<svg xmlns="http://www.w3.org/2000/svg" xmlns:xlink="http://www.w3.org/1999/xlink" viewBox="-5.5 -6 140 140"><defs><linearGradient id="a"><stop offset="0" stop-color="#fff"/><stop offset="1" stop-color="#fff" stop-opacity="0"/></linearGradient><linearGradient id="f"><stop offset="0" stop-color="#fff"/><stop offset=".35" stop-color="#fff" stop-opacity=".84"/><stop offset="1" stop-color="#fff" stop-opacity="0"/></linearGradient><linearGradient id="e" xlink:href="#a"/><linearGradient id="d"><stop offset="0" stop-color="#fff" stop-opacity=".7"/><stop offset=".8" stop-color="#9a0606" stop-opacity="0"/><stop offset="1" stop-color="#e23434"/></linearGradient><linearGradient id="c"><stop offset="0" stop-color="#e23434"/><stop offset="1" stop-color="#9a0606"/></linearGradient><linearGradient id="g"><stop offset="0" stop-color="#3465a4"/><stop offset="1" stop-color="#3465a4" stop-opacity="0"/></linearGradient><linearGradient id="h"><stop offset="0" stop-color="#569fed"/><stop offset="1" stop-color="#fff"/></linearGradient><linearGradient id="b"><stop offset="0" stop-opacity=".71"/><stop offset=".4" stop-opacity=".35"/><stop offset="1" stop-opacity="0"/></linearGradient><radialGradient id="i" cx="65.33" cy="63.5" r="57.35" fx="65.58" fy="64.69" xlink:href="#b" gradientUnits="userSpaceOnUse"/><linearGradient id="x" x1="60.81" x2="428.63" y1="222.16" y2="222.16" xlink:href="#c" gradientUnits="userSpaceOnUse"/><radialGradient id="y" cx="244.72" cy="222.16" r="183.91" fx="244.72" fy="222.16" xlink:href="#d" gradientUnits="userSpaceOnUse"/><radialGradient id="z" cx="49.71" cy="222.16" r="183.91" fx="49.71" fy="222.16" xlink:href="#e" gradientUnits="userSpaceOnUse" gradientTransform="translate(-33.89 -78.63) scale(1.354)"/><radialGradient id="A" cx="69.94" cy="222.16" r="183.91" fx="69.94" fy="222.16" xlink:href="#e" gradientUnits="userSpaceOnUse" gradientTransform="translate(-33.89 -78.63) scale(1.354)"/><linearGradient id="B" x1="98" x2="420" y1="240.92" y2="240.92" xlink:href="#e" gradientUnits="userSpaceOnUse" gradientTransform="matrix(.543 -.94 .94 .543 -156.67 314.83)"/><linearGradient id="C" x1="98" x2="420" y1="240.92" y2="240.92" xlink:href="#e" gradientUnits="userSpaceOnUse" gradientTransform="matrix(-.94 .543 .543 .94 334.225 -173.067)"/><linearGradient id="D" x1="98" x2="420" y1="240.92" y2="240.92" xlink:href="#e" gradientUnits="userSpaceOnUse" gradientTransform="matrix(.94 -.543 -.543 -.94 150.774 625.274)"/><linearGradient id="E" x1="98" x2="420" y1="240.92" y2="240.92" xlink:href="#e" gradientUnits="userSpaceOnUse" gradientTransform="matrix(-.543 .94 -.94 -.543 641.67 131.378)"/><radialGradient id="F" cx="246.35" cy="226.88" r="154.36" fx="246.35" fy="226.88" xlink:href="#e" gradientUnits="userSpaceOnUse" gradientTransform="matrix(1 -.577 .124 .215 -28.136 320.38)"/><radialGradient id="G" cx="246.35" cy="226.88" r="154.36" fx="246.35" fy="226.88" xlink:href="#e" gradientUnits="userSpaceOnUse" gradientTransform="matrix(-.577 -1 .215 -.124 339.848 501.37)"/><radialGradient id="H" cx="156.5" cy="148.5" r="19.5" fx="156.5" fy="148.5" xlink:href="#f" gradientUnits="userSpaceOnUse"/><radialGradient id="I" cx="156.5" cy="148.5" r="19.5" fx="156.5" fy="148.5" xlink:href="#f" gradientUnits="userSpaceOnUse"/><radialGradient id="J" cx="156.5" cy="148.5" r="19.5" fx="156.5" fy="148.5" xlink:href="#f" gradientUnits="userSpaceOnUse"/><radialGradient id="K" cx="156.5" cy="148.5" r="19.5" fx="156.5" fy="148.5" xlink:href="#f" gradientUnits="userSpaceOnUse"/><radialGradient id="L" cx="156.5" cy="148.5" r="19.5" fx="156.5" fy="148.5" xlink:href="#f" gradientUnits="userSpaceOnUse"/><radialGradient id="M" cx="156.5" cy="148.5" r="19.5" fx="156.5" fy="148.5" xlink:href="#f" gradientUnits="userSpaceOnUse"/><radialGradient id="N" cx="156.5" cy="148.5" r="19.5" fx="156.5" fy="148.5" xlink:href="#f" gradientUnits="userSpaceOnUse"/><radialGradient id="O" cx="156.5" cy="148.5" r="19.5" fx="156.5" fy="148.5" xlink:href="#f" gradientUnits="userSpaceOnUse"/><radialGradient id="P" cx="156.5" cy="148.5" r="19.5" fx="156.5" fy="148.5" xlink:href="#f" gradientUnits="userSpaceOnUse"/><radialGradient id="Q" cx="156.5" cy="148.5" r="19.5" fx="156.5" fy="148.5" xlink:href="#f" gradientUnits="userSpaceOnUse"/><radialGradient id="R" cx="156.5" cy="148.5" r="19.5" fx="156.5" fy="148.5" xlink:href="#f" gradientUnits="userSpaceOnUse"/><radialGradient id="S" cx="156.5" cy="148.5" r="19.5" fx="156.5" fy="148.5" xlink:href="#f" gradientUnits="userSpaceOnUse"/><radialGradient id="T" cx="156.5" cy="148.5" r="19.5" fx="156.5" fy="148.5" xlink:href="#f" gradientUnits="userSpaceOnUse"/><radialGradient id="u" cx="31.34" cy="39.21" r="21.78" fx="31.34" fy="39.21" xlink:href="#f" gradientUnits="userSpaceOnUse" gradientTransform="matrix(1.26 .664 -.285 .54 5.606 1.063)"/><linearGradient id="U" x1="2.09" x2="28.26" y1="67.33" y2="67.33" xlink:href="#f" gradientUnits="userSpaceOnUse" gradientTransform="matrix(1 0 0 .903 0 7.612)"/><radialGradient id="v" cx="31.34" cy="86.61" r="20.03" fx="31.34" fy="86.61" xlink:href="#g" gradientUnits="userSpaceOnUse" gradientTransform="matrix(2.12 0 0 2.274 -35.106 -110.373)"/><radialGradient id="t" cx="31.34" cy="39.21" r="21.78" fx="31.34" fy="39.21" xlink:href="#f" gradientUnits="userSpaceOnUse" gradientTransform="matrix(-1.26 .664 .285 .54 122.33 1.063)"/><radialGradient id="w" cx="31.34" cy="86.61" r="20.03" fx="31.34" fy="86.61" xlink:href="#g" gradientUnits="userSpaceOnUse" gradientTransform="matrix(-2.12 0 0 2.274 163.043 -110.373)"/><linearGradient id="V" x1="2.09" x2="28.26" y1="67.33" y2="67.33" xlink:href="#f" gradientUnits="userSpaceOnUse" gradientTransform="matrix(-1 0 0 .903 127.937 7.612)"/><radialGradient id="j" cx="64" cy="78.81" r="64" fx="64" fy="78.81" xlink:href="#h" gradientUnits="userSpaceOnUse" gradientTransform="matrix(1 0 0 1.054 0 -4.642)"/><linearGradient id="Y" x1="50.65" x2="37.42" y1="66.35" y2="51.58" xlink:href="#h" gradientUnits="userSpaceOnUse" gradientTransform="matrix(1.023 0 0 1.186 -1.26 -8.683)"/><linearGradient id="X" x1="50.13" x2="45.44" y1="57.79" y2="49.66" xlink:href="#g" gradientUnits="userSpaceOnUse"/><radialGradient id="Z" cx="41.46" cy="49.55" r="9.23" fx="41.46" fy="49.55" xlink:href="#e" gradientUnits="userSpaceOnUse" gradientTransform="matrix(1.71 0 0 1.518 -29.476 -25.074)"/><linearGradient id="aa" x1="50.65" x2="37.42" y1="66.35" y2="51.58" xlink:href="#h" gradientUnits="userSpaceOnUse" gradientTransform="matrix(1.023 0 0 1.186 -1.26 -8.683)"/><linearGradient id="ab" x1="50.13" x2="45.44" y1="57.79" y2="49.66" xlink:href="#g" gradientUnits="userSpaceOnUse"/><linearGradient id="ac" x1="50.65" x2="37.42" y1="66.35" y2="51.58" xlink:href="#h" gradientUnits="userSpaceOnUse" gradientTransform="matrix(1.023 0 0 1.186 -1.26 -8.683)"/><radialGradient id="ad" cx="41.46" cy="49.55" r="9.23" fx="41.46" fy="49.55" xlink:href="#e" gradientUnits="userSpaceOnUse" gradientTransform="matrix(1.71 0 0 1.518 -29.476 -25.074)"/><radialGradient id="k" cx="64" cy="37.53" r="13.46" fx="64" fy="37.53" xlink:href="#f" gradientUnits="userSpaceOnUse" gradientTransform="matrix(7.14 0 0 2.42 -392.966 -52.387)"/><radialGradient id="l" cx="63.52" cy="41.99" r="3.5" fx="63.52" fy="41.99" xlink:href="#g" gradientUnits="userSpaceOnUse" gradientTransform="matrix(10.062 0 0 6.926 -575.1 -225.383)"/><linearGradient id="m" x1="62.91" x2="62.91" y1="44.77" y2="46.88" xlink:href="#b" gradientUnits="userSpaceOnUse"/><linearGradient id="n" x1="62.91" x2="62.91" y1="44.77" y2="46.88" xlink:href="#b" gradientUnits="userSpaceOnUse"/><linearGradient id="o" x1="185.18" x2="185.18" y1="178.87" y2="162.24" xlink:href="#a" gradientUnits="userSpaceOnUse"/><radialGradient id="p" cx="185.18" cy="162.24" r="8.31" fx="185.18" fy="162.24" xlink:href="#a" gradientUnits="userSpaceOnUse" gradientTransform="matrix(1.766 0 0 3.005 -141.838 -325.263)"/><linearGradient id="q" x1="185.18" x2="185.18" y1="178.87" y2="162.24" xlink:href="#a" gradientUnits="userSpaceOnUse"/><radialGradient id="r" cx="185.18" cy="162.24" r="8.31" fx="185.18" fy="162.24" xlink:href="#a" gradientUnits="userSpaceOnUse" gradientTransform="matrix(1.766 0 0 3.005 -141.838 -325.263)"/><radialGradient id="s" cx="64.02" cy="32.37" r="11.16" fx="64.02" fy="32.37" xlink:href="#h" gradientUnits="userSpaceOnUse" gradientTransform="matrix(1.517 0 0 .378 -33.1 19.78)"/><linearGradient id="W" x1="50.65" x2="37.42" y1="66.35" y2="51.58" xlink:href="#h" gradientUnits="userSpaceOnUse" gradientTransform="matrix(1.023 0 0 1.186 -1.26 -8.683)"/></defs><path fill="url(#i)" d="M122.68 63.5a57.35 57.35 0 1 1-114.7 0 57.35 57.35 0 1 1 114.7 0z" transform="matrix(.806 0 0 .227 11.328 100.543)"/><path fill="url(#j)" fill-rule="evenodd" stroke="#3465a4" stroke-width="2.5" d="M56.874 1.2c-4.762.865-6.277 5.127-8.715 7.37-5.07 3.082-10.84 4.633-16.63 6.158-3.66.965-7.33 1.92-10.82 3.244-9.28 5.725-14.48 18.04-15.55 28.206-.43 3.168-1.26 11.11.02 13.755 2.56-1.49 5.01-1.47 5.04-1.292-6.06-.2-8.79 9.16-9.62 14.04-.53 8.39.79 16.38 6.2 22.53 6.994 7.95 24.71 10.05 31.01 15.78 1.674 1.53-5.07 3.75-7.065 5.99-.645.73-1.1 2.07-.854 2.9.264.89 1.44 1.9 2.378 2.22 1.03.36 2.39-.38 3.515-.16 1.174.24 2.29 1.74 3.39 1.55 1.88-.32 3.66-2.66 5.54-3.09.873-.2 1.816 1.37 2.692 1.23 1.482-.25-.19.1 4.403-2.41 18.2-12.567 5.485-12.57 24.326 0 4.356 2.905 2.89 2.163 4.37 2.415.88.15 1.82-1.422 2.694-1.222 1.88.43 3.66 2.77 5.54 3.09 1.094.19 2.21-1.31 3.39-1.54 1.13-.224 2.52.52 3.55.16.932-.325 2.08-1.33 2.34-2.22.242-.824-.21-2.17-.856-2.897-1.996-2.244-8.74-4.468-7.066-5.99 6.305-5.728 24.02-7.83 31.01-15.775 5.42-6.155 6.77-14.14 6.24-22.53-1.023-4.835-3.47-14.234-9.62-14.035.03-.18 2.61-.37 5.01 1.29 1.28-2.65.45-10.59.023-13.76-.473-10.14-6.67-22.573-15.54-28.202-8.74-3.887-19.46-3.87-27.41-9.4-2.44-2.25-4.42-6.535-8.75-7.376-4.406-.86-8.843-.98-14.22 0z" stroke-linecap="round" stroke-linejoin="round"/><path fill="url(#k)" fill-rule="evenodd" d="M56.918 26.943c6.628-3.13 7.482-3.016 13.994-.412 2.607 1.1 5.213-1.65 7.82-2.48 2.058 13.2 1.03 15.07-1.44 16.1-2.72 1.14 7.094 9.22-13.79 9.22-19.55 0-10.205-8.23-12.552-9.46-2.724-1.43-3.656-3.07-1.852-15.43 2.607.83 5.373 3.9 7.82 2.49z"/><path fill="url(#l)" fill-rule="evenodd" d="M62.927 40.285c-.308 0-.698.13-1.2.52-2.674 2.076-5.507 4.046-6.382 5.562-3.91 6.772 20.78 6.71 16.906 0-1.06-1.837-3.7-3.486-6.38-5.562-1.26-.982-1.83-.463-2.09.325-.15-.47-.38-.846-.85-.846z"/><path fill="url(#m)" d="M63.5 45.797a.5 1.08 0 1 1-.996 0 .5 1.08 0 1 1 .997 0z" transform="translate(-15.432 -13.404) scale(1.238)"/><path fill="url(#n)" d="M63.5 45.797a.5 1.08 0 1 1-.996 0 .5 1.08 0 1 1 .997 0z" transform="translate(-12.962 -13.404) scale(1.238)"/><path d="M58.282 35.563a2.12 2.12 0 0 0-4.238 0 2.12 2.12 0 0 0 4.238 0z"/><path fill="url(#o)" d="M193.496 170.556a8.312 8.312 0 1 1-16.623 0 8.312 8.312 0 1 1 16.623 0z" transform="matrix(.1 0 0 -.047 37.598 42.264)"/><path fill="url(#p)" d="M193.496 170.556a8.312 8.312 0 1 1-16.623 0 8.312 8.312 0 1 1 16.623 0z" transform="matrix(.16 0 0 -.09 26.8 51.577)"/><path d="M73.138 35.563a2.12 2.12 0 0 0-4.238 0 2.12 2.12 0 0 0 4.238 0z"/><path fill="url(#q)" d="M193.496 170.556a8.312 8.312 0 1 1-16.623 0 8.312 8.312 0 1 1 16.623 0z" transform="matrix(.1 0 0 -.047 52.454 42.264)"/><path fill="url(#r)" d="M193.496 170.556a8.312 8.312 0 1 1-16.623 0 8.312 8.312 0 1 1 16.623 0z" transform="matrix(.16 0 0 -.09 41.656 51.577)"/><path fill="url(#s)" fill-rule="evenodd" d="M52.544 32.017c-1.003.42-1.806 1.19-1.935 1.935s.78 3.046 1.13 2.52c2.42-3.64 4.94-.863 7.59-1.17 4.38 2.178 4.61 1.357 8.98 0 2.95.108 4.88-2.19 7.56 1.17.39.494 1.29-1.776 1.16-2.52-.13-.744-.93-1.514-1.94-1.935-1.01-.42-2.41-.912-4.09-.584-1.69.328-4.6 2.242-5.99 2.556-1.14.57-1.28.49-2.41 0-1.39-.32-4.34-2.23-6.03-2.56-1.42-.33-2.73.13-4.058.58z"/><path fill="url(#t)" fill-rule="evenodd" d="M117.132 47.044l-.166-2.16-1.995.165.5-1.5h-1.49v-1h-1.49l-1.33-1.83-.5.66-1.99-1.83v.5L107 38.89l.332.666-3.66-1.66.5.33-4.82-1.83.996.833-4.488-.5-.333.66-4.655-1.33.165 1.66-3.823.83.5.83-4.49 1.16 1 .5-4.987 1.16.832 1.164-3.16 1.83.99 1.66h-1.33l-1.5 1.495-1.5 3.49 15.79 10.81V56.5l3.16 1.33-2-2.493 3.16.997-1.66-2.32 3.32 1-2.33-2.99 2.825 1.33-2.326-3.326 3.822 2.16-1.664-3.158 2.66 1.83-.83-3.327 2.323 2.494-.83-3.657 2.33 3.16-.17-2.828 1.5 2.825v-3.66l1.494 2.49v-2.5l1.83 1.66.33-2.49 1.33 1.83-.166-1.66 1.67 1.33-.16-1.17 1.493.668-.165-1.164 1.83 1.33V44.7l1.16 1.83.33-1.16 1.168 1.663.5-1.167 1.83 1.17z"/><path fill="url(#u)" fill-rule="evenodd" d="M10.805 47.044l.166-2.16 2 .165-.5-1.5h1.5v-1h1.5l1.33-1.83.5.66 2-1.83v.5l1.66-1.17-.33.66 3.66-1.66-.5.33 4.828-1.83-.997.83 4.486-.5.33.663 4.656-1.33-.163 1.666 3.82.83-.5.833 4.49 1.167-1 .5 4.984 1.165-.83 1.16 3.156 1.83-.992 1.66h1.33l1.5 1.5 1.5 3.49-15.79 10.81v-6.15l-3.16 1.33 1.995-2.494-3.156 1 1.66-2.323-3.328 1 2.326-2.99-2.83 1.33 2.33-3.328-3.82 2.16 1.664-3.157-2.66 1.83.83-3.325-2.326 2.495.83-3.66-2.323 3.16.165-2.828L25.3 49.53v-3.66l-1.51 2.495v-2.49l-1.83 1.66-.33-2.494-1.33 1.83.16-1.66-1.66 1.33.168-1.16-1.498.67.17-1.163-1.83 1.33v-1.49l-1.16 1.83-.33-1.16-1.16 1.662-.5-1.165-1.83 1.163z"/><path fill="url(#v)" fill-rule="evenodd" d="M33.413 63.834l1.662-2.327-2.494 1.496 1.33-1.995-2.66 1.164 1-2.16-2.16 1.33.67-2.162-2.82.997.67-1.662-1.66.997v-1.164l-1.49.332.17-1.164-1.83.332-.33-.997-1 .34-.666-1.16-.994.17-1.33-.83-3.657-.66 2.325 1.16-1.33.83 1.827-.33-1.494 2.16 2-1.33-.663 2.16 1.996-1.66-1.83 2.83 2.827-2.16-1.997 2.828 2.99-1.996-1.993 2.99 2.66-2-1.83 2.495 3.16-2.33L22.61 64l2.326-2.828-1.33 3.657 2.66-2.5-1.995 3.65 2.66-3.33-.83 3.16 1.5-2.33-.83 2.49 1.66-2.66-1.66 5.81 2-3.49-1.49 5.49 1.83-2.827-1.49 5.153-.662 4.155-.834-2.33.168 5.155-1.162-1.33.997 5.49-1.994-2.16 1.83 4.985-2.32-2.66 1.99 3.66-2.827-1.49 2.66 3.16-2.824-1.662 1.995 2.5-2.995-1.83 1.994 2.99-3.33-1.997 2.826 2.828-3.49-2.16 2.66 3.66-3.99-2.997 3.656 4.82-4.323-3.822 3.82 5.488-4.82-4.656L19.8 98.4l-3.65-3.49 1.83 3.82-3.326-3.825.997 3.49-2.16-2.99v2.16l-2.16-1.66s.334 1.83 2.66 2.993c2.33 1.16 19.45 6.315 21.78 8.143 2.327 1.83 5.984 4.49 4.49 5.82-1.498 1.33-2.994 3.49-2.994 3.49l2.33-1.99-.667 2.328 1.992-1.665-.5 2 2.16-.997-.162 1.83 1.83-.666.664 1.33 2.16-1.33.83 1.33 3.49-3.326-17.95-51.37z"/><path fill="url(#w)" fill-rule="evenodd" d="M94.524 63.834l-1.662-2.327 2.494 1.496-1.33-1.995 2.66 1.164-.997-2.16 2.16 1.33-.67-2.162 2.82.997-.67-1.662 1.66.997v-1.164l1.49.332-.17-1.164 1.83.332.33-.997 1 .34.662-1.16 1 .17 1.33-.83 3.655-.66-2.327 1.16 1.33.83-1.83-.33 1.493 2.16-1.994-1.33.664 2.16-1.994-1.66 1.83 2.83-2.826-2.16 1.995 2.828-2.99-1.996 1.99 2.99-2.66-2 1.83 2.495-3.16-2.33 1.83 3.653-2.33-2.83 1.33 3.657-2.66-2.49 1.996 3.66L101 62.66l.83 3.16-1.496-2.33.83 2.497-1.66-2.66 1.66 5.817-1.994-3.49 1.5 5.49-1.83-2.824 1.496 5.154.666 4.154.83-2.328-.167 5.153 1.16-1.33-.997 5.483 1.993-2.16-1.83 4.99 2.33-2.66-1.99 3.657 2.83-1.494-2.66 3.15 2.83-1.66-1.995 2.49 2.99-1.83-1.995 2.99 3.323-1.996-2.83 2.823 3.494-2.16-2.66 3.66 3.99-2.99-3.657 4.82 4.32-3.826-3.827 5.49 4.82-4.654-3.16 5.15 3.655-3.49-1.83 3.82 3.33-3.82-.996 3.49 2.16-2.99v2.16l2.16-1.66s-.33 1.83-2.66 2.99c-2.328 1.163-19.45 6.316-21.778 8.144-2.326 1.83-5.983 4.49-4.49 5.82s2.99 3.49 2.99 3.49l-2.325-1.995.664 2.323-1.992-1.66.5 1.997-2.16-.997.164 1.825-1.83-.667-.666 1.33-2.16-1.33-.832 1.33-3.49-3.322 17.95-51.37z"/><path fill="#9a0606" stroke="#9a0606" stroke-width="1.49" d="M64.06 48.13c19.908 0 36.046 16.137 36.046 36.045S83.968 120.22 64.06 120.22c-18.79 0-34.22-14.375-35.895-32.73-.1-1.09-.15-2.197-.15-3.315 0-19.908 16.137-36.046 36.045-36.046z" stroke-linejoin="round"/><path fill="url(#x)" d="M428.628 222.16a183.908 183.908 0 1 1-367.816 0 183.908 183.908 0 1 1 367.816 0z" transform="matrix(0 -.196 .196 0 20.516 132.14)"/><path fill="url(#y)" d="M428.628 222.16a183.908 183.908 0 1 1-367.816 0 183.908 183.908 0 1 1 367.816 0z" transform="matrix(0 -.196 .196 0 20.516 132.14)"/><path fill="url(#z)" d="M428.628 222.16a183.908 183.908 0 1 1-367.816 0 183.908 183.908 0 1 1 367.816 0z" transform="matrix(0 .142 .142 0 32.35 40.227)"/><path fill="url(#A)" d="M428.628 222.16a183.908 183.908 0 1 1-367.816 0 183.908 183.908 0 1 1 367.816 0z" transform="matrix(0 -.115 .154 0 29.866 126.15)"/><g fill-rule="evenodd" opacity=".5"><path fill="url(#B)" d="M55.607 118.814s-34.493-34.88 6.386-70.32c-46.216 35.31-6.28 70.136-6.386 70.32z"/><path fill="url(#C)" d="M98.037 76.972s-34.88-34.493-70.32 6.386c35.31-46.216 70.136-6.28 70.32-6.386z"/><path fill="url(#D)" d="M29.217 93.012s34.88 34.493 70.32-6.386c-35.31 46.216-70.136 6.28-70.32 6.386z"/><path fill="url(#E)" d="M71.647 49.994s34.493 34.88-6.386 70.32c46.22-35.31 6.28-70.136 6.39-70.32z"/><path fill="url(#F)" d="M34.13 102.612s33.4-14.204 60.506-34.934C62.94 81.052 33.933 102.612 34.13 102.612z"/><path fill="url(#G)" d="M81.85 115.398S67.644 81.996 46.914 54.89C60.29 86.587 81.85 115.595 81.85 115.4z"/></g><path fill="url(#H)" d="M176 148.5a19.5 19.5 0 1 1-39 0 19.5 19.5 0 1 1 39 0z" transform="matrix(.367 0 0 .367 7 30.79)"/><path fill="url(#I)" d="M176 148.5a19.5 19.5 0 1 1-39 0 19.5 19.5 0 1 1 39 0z" transform="matrix(.156 0 0 .156 58.236 43.51)"/><path fill="url(#J)" d="M176 148.5a19.5 19.5 0 1 1-39 0 19.5 19.5 0 1 1 39 0z" transform="matrix(.095 0 0 .095 74.918 56.183)"/><path fill="url(#K)" d="M176 148.5a19.5 19.5 0 1 1-39 0 19.5 19.5 0 1 1 39 0z" transform="matrix(.196 0 0 .196 22.17 35.974)"/><path fill="url(#L)" d="M176 148.5a19.5 19.5 0 1 1-39 0 19.5 19.5 0 1 1 39 0z" transform="matrix(.196 0 0 .196 53.907 43.81)"/><path fill="url(#M)" d="M176 148.5a19.5 19.5 0 1 1-39 0 19.5 19.5 0 1 1 39 0z" transform="matrix(.196 0 0 .196 44.7 75.547)"/><path fill="url(#N)" d="M176 148.5a19.5 19.5 0 1 1-39 0 19.5 19.5 0 1 1 39 0z" transform="matrix(.196 0 0 .196 12.18 68.298)"/><path fill="url(#O)" d="M176 148.5a19.5 19.5 0 1 1-39 0 19.5 19.5 0 1 1 39 0z" transform="matrix(.156 0 0 .156 57.257 79.947)"/><path fill="url(#P)" d="M176 148.5a19.5 19.5 0 1 1-39 0 19.5 19.5 0 1 1 39 0z" transform="matrix(.095 0 0 .095 62.185 94.972)"/><path fill="url(#Q)" d="M176 148.5a19.5 19.5 0 1 1-39 0 19.5 19.5 0 1 1 39 0z" transform="matrix(.156 0 0 .156 21.21 80.73)"/><path fill="url(#R)" d="M176 148.5a19.5 19.5 0 1 1-39 0 19.5 19.5 0 1 1 39 0z" transform="matrix(.156 0 0 .156 21.21 44.293)"/><path fill="url(#S)" d="M176 148.5a19.5 19.5 0 1 1-39 0 19.5 19.5 0 1 1 39 0z" transform="matrix(.095 0 0 .095 23.59 85.96)"/><path fill="url(#T)" d="M176 148.5a19.5 19.5 0 1 1-39 0 19.5 19.5 0 1 1 39 0z" transform="matrix(.095 0 0 .095 35.15 46.192)"/><path fill="url(#U)" fill-rule="evenodd" d="M11.803 58.348S7.48 61.05 5.82 63.452s-3.326 3.302-3.658 6.455c-.332 3.152.665 8.256.665 8.256l.332-2.702.16 2.41.66-1.95.5 1.95.99-1.95.5 1.35.33-1.5.83 2.7.16-4.2.83 4.06.16-3 .832 2.71.5-2.7 1.33 3v-3.61l1.33 2.405.16-2.25 1.497 1.956v-2.41l1.5 1.65.164-2.1 1.997 3.3 1.83-2.852.33 3.003 1-3.157 1.83 2.1.166-3.6 1.33.9.664-3.905.5 2.1.83-2.4.83.6 1.33-2.852-1.33 1.65-.663-1.2-.997 1.5-.17-1.8-2.327 2.1 1-2.1-2.16 1.5.666-2.25-2.16 1.8.99-2.252-2.494 1.51.995-2.7-1.993 2.1.5-2.25-1.33.9 1.16-1.95-3.324 1.8 2.993-3-3.66 2.4 3.156-3.6-4.32 2.854 2.33-3.754-3.99 3.15 2.826-4.05-4.32 2.85 3.99-3.75-4.81 3.14 2.99-3.457z"/><path fill="url(#V)" fill-rule="evenodd" d="M116.135 58.348s4.322 2.702 5.984 5.104 3.32 3.302 3.65 6.455c.33 3.152-.67 8.256-.67 8.256l-.33-2.702-.17 2.41-.67-1.95-.5 1.95-1-1.95-.5 1.35-.33-1.5-.83 2.7-.17-4.2-.83 4.06-.17-3-.83 2.71-.5-2.7-1.33 3v-3.61l-1.33 2.405-.17-2.25-1.495 1.956v-2.41l-1.497 1.65-.17-2.1-1.997 3.303-1.83-2.853-.33 3-.995-3.157-1.83 2.1-.164-3.6-1.33.9-.666-3.903-.5 2.1-.83-2.4-.83.6-1.33-2.853 1.33 1.65.662-1.2 1 1.5.17-1.8 2.324 2.1-.995-2.1 2.16 1.5-.668-2.25 2.16 1.8-.998-2.255 2.493 1.51-.997-2.702 1.994 2.1-.5-2.25 1.33.9-1.16-1.95 3.325 1.8-2.99-3 3.655 2.4-3.16-3.602 4.32 2.854-2.326-3.755 3.99 3.15-2.823-4.05 4.32 2.85-3.99-3.75 4.82 3.15-2.99-3.45z"/><g fill-rule="evenodd"><path fill="url(#W)" stroke="url(#X)" d="M35.136 63.09c.834 2.73 3.05-1.418 3.05-1.418s0 3.94 1.87 2.76 2.21-4.337 2.21-4.337.51 2.562 2.89 1.182.68-4.927.68-4.927 1.19 3.744 2.72 1.97c1.53-1.773 3.4-2.56.68-5.91-2.72-3.35 2.38 1.378 5.1-.198 2.72-1.577-.6-3.23-3.74-4.73-10.142-4.84-16.584 11.93-15.462 15.606z"/><path fill="url(#Y)" d="M35.136 63.09c.834 2.73 3.05-1.418 3.05-1.418s0 3.94 1.87 2.76 2.21-4.337 2.21-4.337.51 2.562 2.89 1.182.68-4.927.68-4.927 1.19 3.744 2.72 1.97c1.53-1.773 3.4-2.56.68-5.91-2.72-3.35 2.38 1.378 5.1-.198 2.72-1.577-.6-3.23-3.74-4.73-10.142-4.84-16.584 11.93-15.462 15.606z"/><path fill="url(#Z)" d="M35.5 61.57c.756 2.48 2.767-1.286 2.767-1.286s0 3.578 1.698 2.505 2.007-3.94 2.007-3.94.463 2.32 2.624 1.07c2.16-1.25.617-4.48.617-4.48s1.08 3.4 2.47 1.79c1.39-1.61 3.087-2.33.617-5.37s2.16 1.25 4.63-.18-.545-2.94-3.395-4.3C40.328 43 34.48 58.23 35.5 61.57z"/></g><g fill-rule="evenodd"><path fill="url(#aa)" stroke="url(#ab)" d="M92.785 63.09c-.834 2.73-3.05-1.418-3.05-1.418s0 3.94-1.87 2.76-2.21-4.337-2.21-4.337-.51 2.562-2.89 1.182-.68-4.927-.68-4.927-1.19 3.744-2.72 1.97c-1.53-1.773-3.4-2.56-.68-5.91 2.72-3.35-2.38 1.378-5.1-.198-2.72-1.577.6-3.23 3.74-4.73 10.142-4.84 16.584 11.93 15.462 15.606z"/><path fill="url(#ac)" d="M92.785 63.09c-.834 2.73-3.05-1.418-3.05-1.418s0 3.94-1.87 2.76-2.21-4.337-2.21-4.337-.51 2.562-2.89 1.182-.68-4.927-.68-4.927-1.19 3.744-2.72 1.97c-1.53-1.773-3.4-2.56-.68-5.91 2.72-3.35-2.38 1.378-5.1-.198-2.72-1.577.6-3.23 3.74-4.73 10.142-4.84 16.584 11.93 15.462 15.606z"/><path fill="url(#ad)" d="M92.422 61.57c-.757 2.48-2.768-1.286-2.768-1.286s0 3.578-1.698 2.505-2.007-3.94-2.007-3.94-.47 2.32-2.63 1.07c-2.16-1.25-.62-4.48-.62-4.48s-1.08 3.4-2.47 1.79c-1.39-1.61-3.09-2.33-.62-5.37s-2.16 1.25-4.63-.18.54-2.94 3.39-4.3c9.21-4.39 15.06 10.83 14.04 14.17z"/></g></svg>