<svg xmlns="http://www.w3.org/2000/svg" width="24" height="24" viewBox="0 0 24 24"><path d="M13.78,18.29c0,.12.15,0,0,0Z" /><path d="M10.43,15.59c.39.17-.31-.6,0,0Z" /><path d="M5.4,15.87c.15.26,0-.12,0,0Z" /><path d="M11,16.26c-.27-.42-.2.06,0,.32C11.48,17.05,11.18,16.32,11,16.26Z" /><path d="M20.24,19.06c-.53.63-1-.07-1.63.13-1.1,0,.09-.5.06-1-.58-.45-1.24.61-1.62.9a10.75,10.75,0,0,1-2.67-.83,8,8,0,0,1-2.6-1.94,8.36,8.36,0,0,1-1.87-2.84,21.36,21.36,0,0,1-.84-5.74c.07-1.3,1.44.14,2-.33-.21-.67-1.29-.88-1.89-1.16-.58,0-.79-.55-1.4-.59,0-.73-1.13-.33-1.56-.84.42-1.08-1.37,0-1.23-.91.58-1.2-1.78-1-.8.06.95.54-.93.93-.38,1.29a.59.59,0,0,1-.53.86c-.74.07-.67,1.09.06.55.81-.25.14.11-.25.18a1.3,1.3,0,0,0-.95,1.9,35.32,35.32,0,0,1,1,3.42A16.25,16.25,0,0,0,5.84,17,9.78,9.78,0,0,0,8,19a9.89,9.89,0,0,0,2.43,1.22,18,18,0,0,0,4.73.73,16.53,16.53,0,0,0,2.9-.24c.87.09,1.49-.65,2.26-.26.48-.42,1.16-.23,1.63-.54C22.27,18.69,20.73,19.64,20.24,19.06Zm-1.74-.74c-.22,0,.05-.34,0,0Zm-7.63-11c-.1,0-.08-.12-.16-.15C9.91,6.8,11.1,6.94,10.87,7.36Zm6.76,11.39c-.35-.08.28-.25,0,0Zm-2.81.11c-.23,0,.18-.14,0,0Zm-1.88-1.18c-.13,0,0-.13,0,0Zm-.22-.17c-.36,0-.09-.23,0,0Zm-.42-.36c-.33.08,0-.34,0,0Zm-6-11.66c-.53-.28.11.33-.34.32-.24,0-.69-.52-.54-.78C5.72,5.15,6.25,5.2,6.34,5.49Zm-.92-.81H5.27C5.24,4.37,6.14,4.58,5.42,4.68ZM4.36,3.85c-.42-.19,0-.93.44-.58C5.31,4,3.85,3.19,4.36,3.85Zm.49.69c-.27.11.16-.21,0,0Zm.48.92c.6.46-.34,0-.72.29C4,5.81,5.27,5.41,5.33,5.46Zm.17.6c.35,0,1.88-.69,1.37-.07.47.55.1.37-.21,0,.28.19.06,1-.37.45s-.5-.18-.17.21C5.8,6,4.88,6.28,4.21,6.5,3.78,6.46,5.34,6.13,5.5,6.06ZM3.58,7.51c-.16.4.24.53.62.6.62-.17-.41-.28.06-.44.26,0-.82-.26.08-.38S6.09,6.77,7,6.58a8.71,8.71,0,0,1,2.35-.19c.3.35-.23.94-.77,1a8.61,8.61,0,0,1-2,.39c-.8-.1-1.37.61-2.19.7.22-.4-.18-.14-.59-.16.21.82-1.47-.21-.48-.41-.74-.26-.75.52-.67,1H2.65C2,8,2.72,7.62,3.58,7.51ZM5.46,8.59c-.22-.05.17-.2,0,0Zm-.72.88s-.34-.08-.2-.17c1,.13-.9-.33.13-.22C5.33,9.06,5.11,9.44,4.74,9.47Zm.33.17c-.12.12,0-.24,0,0Zm-.71,0c-.44-.09.21-.22,0,0ZM4.3,11.07c-.07.1-.1-.08,0,0ZM4,10.9c-.55-.19,0-.21,0,0Zm-.12,1.28c-.26-.09-.25-.5-.37-.72C3.13,10.43,3.92,11.86,3.84,12.18Zm.23-1.49c-.69-.08-.05-.49,0,0Zm0-.34-.09,0C3.26,10,4.47,10.18,4,10.35Zm-.11-.79c-.61-.31.58-.36,0,0Zm.21.26c-.34.06.05-.32,0,0Zm-1.3.07c-.12.08,0-.23,0,0ZM3,9.75c-.16,0,0-.27,0,0Zm.08-1c-.4-.1.33-.25,0,0Zm.26,2c-.44-.1-.12-.65,0,0ZM3.64,12c.42.51.26.79.69,1.41-.56-.35-.67-1.2-1-1.75C2.92,10.76,3.56,11.65,3.64,12Zm4.09,6.38c-.34-.07-.57-.43-.81-.66a4.88,4.88,0,0,1-1.57-1.94A12.26,12.26,0,0,1,3.89,13.4c-.41-.92.25.07.35.42.21.68.88,1.07.94,1.52.74.42.36,1.12,1,1.31.27-.14.3.84.89.64-.33.15.13.33.3.61C7.72,17.85,8.54,18.72,7.73,18.42ZM4.62,12c-.31-.07.33-.11,0,0Zm.2.47c-.55-.14.52-.2,0,0Zm1.39.47c.4-.17.16.78.55.9.76,1-.53,0-1-.07.06,0-.38-.12-.19-.16-.14-.15-.45-.66.26-.32C6.43,13.53,6.48,13.35,6.21,12.9Zm1.31,1.76c0,.15-.72.13-.06.42-.38,0-.5,0,0,.3-.22.17.43.31.21.57.66.52-.12.13-.4-.08s-.85-.35-.75-.5c.81.42.21,0-.15-.3.65.16-.51-.48.1-.31.19.05-.27-.38.33-.07C6.26,14.21,7.27,14.61,7.52,14.66ZM8,14.53c-.61-.14,0-.34,0,0Zm-.17,2c-.61-.26.39,0,0,0Zm-.45-.17c-.71-.23.52,0,0,0Zm-.09.11c-.22,0,0-.17,0,0ZM6.21,14.92c-.72-.3-.2-.33,0,0Zm-.54-.35c-.58-.33-.08-.33,0,0Zm0,.65c-.57-.44-.07-.25,0,0Zm-.15-1.34c-.35,0,.13-.2,0,0ZM8,17.38c-.51-.15,0-.14,0,0ZM7.63,17l-.16,0c-.68-.54.31-.38.75-.14C9.19,17,8,17.25,7.63,17Zm2.7,1.65c-.68-.16.16-.27,0,0Zm-.17-.52c-.05,0-.1-.11,0,0ZM9.3,16.79c-.59-.14.21-.19.36,0C10.68,17,9.6,17.05,9.3,16.79ZM9.51,18l-.11,0-.13-.06C8.71,17.35,10.46,18.22,9.51,18Zm-.28.69c-.15.06,0-.14,0,0Zm.29-1.19-.16-.05C8.7,17,10.2,17.54,9.52,17.45Zm.16,1.72c-.4-.16.26-.25,0,0Zm.1-.74c-.58-.14.36-.13,0,0Zm.13-.61c-.44-.06.05-.21,0,0Zm-.72-.88c.46.06.47.27,0,.14-.09,0-.24,0-.28-.17C8.15,16.46,8.94,16.71,9.19,16.94Zm-.06,2c-.2.12,0-.22,0,0Zm-.31-.51c-.53,0,.4-.26,0,0Zm-.12.35c-.26-.1.17-.08,0,0ZM9,17.94c-.52-.14.25-.18,0,0Zm-.16-.57c-.28,0-.06-.16,0,0Zm-.54-.95c-.57-.46,1.18.38,0,0Zm-.06.19c0,.06-.11-.09,0,0Zm3.65,3.78a9.4,9.4,0,0,1-2.56-.85L9,19.34c-.57-.31-.5-.38.06-.07.19.16,1.59.73.93.35-.29-.07-1.9-.95-.84-.57a20.92,20.92,0,0,0,2.74,1.21,7.14,7.14,0,0,0,2.43.15c.65.33,1.33-.08,2,.21A13.05,13.05,0,0,1,11.87,20.39Zm-1.25-.7c-.51-.09.16-.23,0,0Zm.73-1c-.58-.11.6-.23,0,0ZM12.21,20c1,.37-.6.12-.93-.09C10.36,19.53,12,20,12.21,20ZM11.15,18.9c-.81-.12.9,0,0,0Zm1.52.85c-.29.23,0-.3,0,0Zm.29.05c-.15.06,0-.17,0,0Zm.27-.38c-.16.2,0-.23,0,0Zm.31,0c-.45.17.47-.39,0,0Zm.14,0c.49-.42.51-.22.5.13-.43.48-.17-.2-.44.06S13.55,19.51,13.68,19.44Zm.83.45c-.5,0,.51-.54,0,0Zm0,.18c-.2.05,0-.13,0,0Zm-.16-.35c-.39-.26.94-.61,0,0Zm.57.09-.08,0C14.81,19.56,15.38,19.52,14.92,19.81Zm.15.19c-.3-.08.47-.4,0,0Zm.36-.1c-.51.18.48-.4,0,0Zm.22.11-.12.08C15.3,19.93,16.24,19.59,15.65,20Zm-.43-.53c-.54-.18-1.4-.76-2-.37-.8.51.41-.56-.24-.08-.66.79-.45-.5-1.09-.11,0-.12-.57-.16-.17-.37-.36,0-.13-.05,0-.34-.16,0-1,0-1.36-.29-.4-.52.07-.3.48-.23-.67.12.24.5.68.29-.2-.09-.43-.52-1-.9a18.83,18.83,0,0,0-2.13-1c-.84-.5.18-.18.47.08.84.37.51-.51,0-.74-.54,0-.67-.59-1.1-.56.67.11,1.14-.17.39-.85s.3.63-.11.44c-.19-.25-.05-.6-.65-.73,0,.23-.08.58-.21.1-.17,0-.36.21-.5-.28.13-.57-.56-.7-.67-1.06.6.38.87.08.45-.33s-.33-.11-.49,0c-.59.6-.06-1-.32-.56-.26,0-.11.29-.1.65-.86-.21.2.45.45.81-.39-.4-.32.31-.65,0-.11-.3-.12-.77-.67-.85.62-.22-.36-.65-.28-.67.35-.32.4-.76.82-.07-.53,0,0,.88.12.6,0-.47.22-1-.59-1.19-.24.32-.65-.63-.18-.43-.06-.63.74-.26.69-.53.42-.18-.5-.77,0-1,.38.24,1.36-.36.7-.44.42,0,.75.18.79-.24.33.07,1.24.36.42-.09a3.45,3.45,0,0,1,1.13-.25c.79-.61.63,1,.45,1.45.3-.21.24.94.14,1.37.16-.22.23.36,0,.77,0-.07.4-.13.12.35-.22-.47-.31,1-.17.32.37-.61.28,0,.39.24.08.55.32,1.06.4,1.56.35.35-.15.11-.15.59.11-.14.58.19.57.68,0-.78.09-.18.47,0a5.48,5.48,0,0,0,1,1.42c.37.43,0,.13.14.39a3.19,3.19,0,0,0,2.09,1.28,1.46,1.46,0,0,0,1.57.7c-.6.37,1.68.47.91.67C16,19.82,15.61,19.46,15.22,19.48ZM8.7,15.89c-.24,0,0-.2,0,0Zm.38.22c-.18,0-.12-.24,0,0ZM6.47,12.46c-.24-.07.1-.09,0,0Zm-.59,0c-.26,0,0-.34,0,0Zm-.3-.08c-.1.05,0-.11,0,0Zm11,8.25c-.39-.07.32-.22,0,0Zm.73-1.05h-.19l-.11,0c.06-.45,1.33-.1,1.85-.09C18.7,19.83,17.73,19.53,17.31,19.62Zm2,0c-.27,0,.12-.32,0,0Zm1-.09c-.25.13,0-.3,0,0Zm.48.11c-.52-.12.24-.12.4-.14C22.13,19.48,21.19,19.62,20.72,19.62Z" /><path d="M6.51,7.11c1-.2-.38-.33-.69,0C6,7.24,6.23,6.9,6.51,7.11Z" /><path d="M5.69,7.24c0,.19.18-.22,0,0Z" /><path d="M8.31,6.76c.67-.11.11-.41-.09.1C8.29,7,8.33,6.81,8.31,6.76Z" /><path d="M7.69,6.86c.93.36-.05-1,0,0Z" /><path d="M4.77,7.79a.51.51,0,0,1,.33.1C5.85,8.41,5,7.05,4.77,7.79Z" /><path d="M4.81,7.43c.16.13.29-.21,0,0Z" /><path d="M5.18,7.44l.14.12C6,7.62,5.21,7.1,5.18,7.44Z" /><path d="M10.69,16c.09.3,0-.39,0,0Z" /><path d="M5.91,11c.1.18.18-.18,0,0Z" /><path d="M6,11.61c.19.34,0-.51,0,0Z" /><path d="M6.21,11.12c.33.21-.28-.52,0,0Z" /><path d="M5.8,10.3c.07.15.24.16.37.2C7.49,11.11,5.22,9.5,5.8,10.3Z" /><path d="M6.34,11.73c.31.53.18-.37,0,0Z" /><path d="M6.82,11.57c.37.92-.23-.12-.3-.43a2.11,2.11,0,0,0,.28,1c.34.51.19-.28.55.23-.2-.45.1-.2.06-.4S6.41,10.8,6.82,11.57Z" /><path d="M7.18,13.35c.09.31.18,0,0,0Z" /><path d="M5.85,9c.06.14.11,0,0,0Z" /><path d="M6.52,9.42c.32.41.17-.36,0,0Z" /><path d="M5.63,10.56l.14.15C6.76,11,4.72,9.76,5.63,10.56Z" /><path d="M6.33,10.19c1,.41-.09-.27-.44-.2C6,10.12,6.21,10.06,6.33,10.19Z" /><path d="M6.15,9.75c.18.18.82.51.31.06.32-.06,0-.16-.24-.32C5.78,8.82,6.29,9.55,6.15,9.75Z" /><path d="M5.51,10.64c-.53-.44.16.21-.06.2-.55-.4-.32-.11,0,.2C5.78,11.54,6.05,10.74,5.51,10.64Z" /><path d="M7.65,11.28h0C7.77,11.39,7.59,10.6,7.65,11.28Z" /><path d="M8.67,7.78c0,.12.07-.1,0,0Z" /><path d="M9,12.47c0,.21,0-.18,0,0Z" /><path d="M8.71,11.25c.08.46.1-.78,0,0Z" /><path d="M8.85,11.47v.1C9.06,11.06,8.89,10.78,8.85,11.47Z" /><path d="M8.75,8.77c-.14.7-.27.41-.08-.11-.05-.67-.45.41-.27.72C8.69,9.85,9,8.22,8.75,8.77Z" /><path d="M9.76,14.75c.13.35.11-.42,0,0Z" /><path d="M8.41,10.47c0,.2,0-.14,0,0Z" /><path d="M9.05,12.17c0,.26.11-.38,0,0Z" /><path d="M9.5,14l.07.11C9.71,13.62,9.21,13.32,9.5,14Z" /><path d="M7.94,13.48c.27.22-.13-.23,0,0Z" /><path d="M9.17,12.63c.08.29,0-.42,0,0Z" /><path d="M8.14,9.81c.15.33-.05-.27,0,0Z" /><path d="M8.3,10.23c.24.34-.26-.64,0,0Z" /><path d="M8.24,11.38c-.13-1-.42.45,0,.69.13.34.25.2.3-.19C8.22,11.88,8.62,11.26,8.24,11.38Z" /></svg>