<?xml version="1.0" encoding="utf-8"?>
<svg xmlns="http://www.w3.org/2000/svg" xmlns:xlink="http://www.w3.org/1999/xlink" width="24" height="24" viewBox="0 0 24 24"><style>* { fill: #FFFFFF }</style>
    <g id="code">
        <path id="left-bracket" d="M4 12v-1h1c1 0 1 0 1-1v-2.386c0-.514.024-.896.073-1.142.054-.252.139-.463.257-.633.204-.279.473-.475.808-.584.335-.115.872-.255 1.835-.255h1.027v1h-.752c-.457 0-.77.191-.936.408-.167.215-.312.445-.312 1.068v1.857c0 .729-.041 1.18-.244 1.493-.2.307-.562.529-1.09.667.535.155.9.385 1.096.688.199.303.238.757.238 1.484v1.862c0 .619.145.848.312 1.062.166.22.479.407.936.407l.752.004v1h-1.027c-.963 0-1.5-.133-1.835-.248-.335-.109-.604-.307-.808-.591-.118-.165-.203-.374-.257-.625-.049-.253-.073-.636-.073-1.149v-2.387c0-1 0-1-1-1h-1z"/>
        <use transform="matrix(-1 0 0 1 24 0)" id="right-bracket" width="24" height="24" xlink:href="#left-bracket"/>
    </g>
</svg>
