<?xml version="1.0" encoding="UTF-8" standalone="no"?>
<svg width="100px" height="100px" viewBox="0 0 100 100" version="1.1" xmlns="http://www.w3.org/2000/svg" xmlns:xlink="http://www.w3.org/1999/xlink">
    <g stroke="none" stroke-width="1" fill="none" fill-rule="evenodd">
        <path d="M79.6511628,46.4418608 L78.255814,44.3488375 L74.1953488,46.1000003 C68.9488372,37.6511631 59.3418605,31.4488375 49.3162791,31.4488375 C34.4348837,31.4418608 20.3488372,45.1651166 20.3488372,59.6976747 L20.3488372,60.590698 L20.4116279,61.7767445 L27.527907,61.7767445 L27.4372093,60.590698 C27.422466,60.3048414 27.422466,60.018415 27.4372093,59.7325584 C27.4372093,47.990698 37.2534884,38.4116282 49.3232558,38.4116282 C56.9555174,38.3855375 64.0569379,42.3137582 68.0906977,48.7930236 L54.1860465,54.834884 C51.6767029,52.7491676 48.1639154,52.364656 45.2627907,53.8581398 C43.3952606,54.7818914 41.9835769,56.4252512 41.352014,58.4107269 C40.7204512,60.3962027 40.923296,62.5531302 41.9139535,64.3860468 C44.0295234,68.2213439 48.8107007,69.6801129 52.7069767,67.6790701 C55.5853311,66.2402062 57.2739454,63.1712607 56.9488372,59.9697677 L69.8488372,52.2953491 C70.7695148,54.669329 71.2426075,57.1932781 71.244186,59.7395352 L71.244186,60.5976747 L71.1534884,61.7837212 L78.2697674,61.7837212 L78.3325581,60.5976747 C78.347982,60.3002001 78.347982,60.0021261 78.3325581,59.7046515 C78.2788235,55.9212723 77.3726267,52.1987111 75.6813953,48.8139538 L79.6511628,46.4418608 L79.6511628,46.4418608 Z" id="a5ad152f-099f-4da0-be00-21de96bcbff7" fill="#FFFFFF"></path>
    </g>
</svg>