<svg xmlns="http://www.w3.org/2000/svg" width="24" height="24" viewBox="0 0 24 24"><path d="M19.93,10.61A2.7,2.7,0,0,0,19,10a2.74,2.74,0,0,0-1.1-.19,3.28,3.28,0,0,0-2.16.76v-.05a3.67,3.67,0,0,0-5.09-3.39A3.61,3.61,0,0,0,8.87,8.69,3.67,3.67,0,0,0,5.75,6.83a3.74,3.74,0,0,0-1.82.44A3.66,3.66,0,0,0,2.56,8.55,3.77,3.77,0,0,0,2,10.34a3.67,3.67,0,0,0,3.42,3.83l-1.6,2.76H6.21l2.65-4.59h0a3.63,3.63,0,0,0,2.93,1.84l-1.59,2.76H12.6l1.86-3.23a3.53,3.53,0,0,0,2.07,3.19,3.52,3.52,0,0,0,2.61.05,2.58,2.58,0,0,0,.9-.74v.73h2V7.06H19.93Zm-12.78.72,0,0h0a1.69,1.69,0,0,1-1.46.83A1.72,1.72,0,0,1,4.83,12a1.75,1.75,0,0,1-.62-.62A1.78,1.78,0,0,1,4,10.51,1.69,1.69,0,0,1,5.67,8.82a1.63,1.63,0,0,1,.84.23,1.58,1.58,0,0,1,.62.61,1.62,1.62,0,0,1,.23.83A1.72,1.72,0,0,1,7.15,11.33Zm6.38,0v0h0a1.58,1.58,0,0,1-.62.61,1.53,1.53,0,0,1-.84.22,1.78,1.78,0,0,1-.84-.22,1.65,1.65,0,0,1-.61-.62,1.67,1.67,0,0,1,0-1.69,1.73,1.73,0,0,1,.62-.61,1.63,1.63,0,0,1,.84-.23,1.69,1.69,0,0,1,.84.23,1.69,1.69,0,0,1,.63,2.28Zm6.3,3a1.72,1.72,0,0,1-2,.85,1.72,1.72,0,0,1-1-.7,1.75,1.75,0,0,1-.29-1.15,1.77,1.77,0,0,1,.51-1.07,1.75,1.75,0,0,1,2.35-.11,1.73,1.73,0,0,1,.43,2.18Z" /></svg>