<svg xmlns="http://www.w3.org/2000/svg" width="52" height="52" viewBox="0 0 52 52"><path d="M26,2C12.8,2,2,12.8,2,26s10.8,24,24,24,24-10.8,24-24S39.2,2,26,2Zm0,41.6c-9.68,0-17.6-7.92-17.6-17.6S16.32,8.4,26,8.4s17.6,7.92,17.6,17.6-7.92,17.6-17.6,17.6Z" fill="#fff"/><path d="M35.28,15.68l-13.28,4.8c-.72,.24-1.28,.8-1.52,1.52l-4.8,13.28c-.24,.64,.4,1.28,1.04,1.04l13.28-4.8c.72-.24,1.28-.8,1.52-1.52l4.8-13.28c.24-.64-.4-1.28-1.04-1.04Zm-9.28,13.52c-1.76,0-3.2-1.44-3.2-3.2s1.44-3.2,3.2-3.2,3.2,1.44,3.2,3.2-1.44,3.2-3.2,3.2Z" fill="#fff"/></svg>