<svg xmlns="http://www.w3.org/2000/svg" x="0px" y="0px"
	 width="52px" height="52px" viewBox="0 0 52 52" enable-background="new 0 0 52 52" xml:space="preserve">
<path fill="#FFFFFF" d="M38.6,20.4c-1-6.5-6.7-11.5-13.5-11.5c-7.6,0-13.7,6.1-13.7,13.7c0,0.3,0,0.7,0.1,1c-5,0.4-8.9,4.6-8.9,9.6
	c0,5.4,4.3,9.7,9.7,9.7h11.5c-0.8-0.8-8.1-8.1-8.1-8.1c-0.4-0.4-0.4-0.9,0-1.3l1.3-1.3c0.4-0.4,0.9-0.4,1.3,0l3.5,3.5
	c0.4,0.4,1.1,0.1,1.1-0.4V21.8c0-0.4,0.5-0.9,1-0.9h1.9c0.5,0,0.9,0.4,0.9,0.9v13.4c0,0.6,0.8,0.8,1.1,0.4l3.5-3.5
	c0.4-0.4,0.9-0.4,1.3,0l1.3,1.3c0.4,0.4,0.4,0.9,0,1.3L26,42.9h12.3v0c6.1-0.1,11-5.1,11-11.3C49.4,25.5,44.6,20.6,38.6,20.4z"/>
</svg>
