<svg xmlns="http://www.w3.org/2000/svg" x="0px" y="0px"
	 width="52px" height="52px" viewBox="0 0 52 52" enable-background="new 0 0 52 52" xml:space="preserve">
<path fill="#FFFFFF" d="M10.4,36h4.1c0.6,0,1.2-0.5,1.4-1.1l3.2-8.9h13.4l3.5,8.9c0.2,0.6,0.8,1.1,1.4,1.1h4.1
	c0.7,0,1.2-0.7,0.9-1.3L30.4,5c-0.2-0.6-0.7-1-1.3-1H22c-0.6,0-1.2,0.4-1.4,1l-11,29.7C9.3,35.3,9.8,36,10.4,36z M25.1,10H26l4.3,10
	h-9L25.1,10z"/>
<path fill="#FFFFFF" d="M48.5,42h-45C2.7,42,2,42.7,2,43.5v3C2,47.3,2.7,48,3.5,48h45c0.8,0,1.5-0.7,1.5-1.5v-3
	C50,42.7,49.3,42,48.5,42z"/>
</svg>
