<svg id="a" xmlns="http://www.w3.org/2000/svg" width="100" height="100" viewBox="0 0 100 100"><path d="M22.86,46.01h20.82c1.43,0,2.6-1.17,2.6-2.6v-1.21c0-3.17-3.69-5.07-7.15-6.55-.13-.09-.22-.13-.35-.17-.26-.13-.56-.13-.82.04-1.39.87-2.99,1.39-4.68,1.39s-3.3-.52-4.68-1.43c-.26-.17-.56-.17-.82-.04-.13.09-.22.13-.35.17-3.47,1.52-7.15,3.43-7.15,6.59v1.21c0,1.43,1.17,2.6,2.6,2.6h-.01Z" fill="#fff" stroke-width="0"/><ellipse cx="33.26" cy="27.14" rx="6.46" ry="7.15" fill="#fff" stroke-width="0"/><rect x="20.01" y="71.99" width="60" height="8" rx="2" ry="2" fill="#fff" stroke-width="0"/><rect x="20.01" y="53.99" width="60" height="8" rx="2" ry="2" fill="#fff" stroke-width="0"/><rect x="55.61" y="36" width="24.4" height="8" rx="2" ry="2" fill="#fff" stroke-width="0"/></svg>