<?xml version="1.0" encoding="UTF-8"?><svg id="a" xmlns="http://www.w3.org/2000/svg" width="100" height="100" viewBox="0 0 100 100"><path d="M72.7,63.02c.17.17.42.17.58,0l.58-.58c1.42-1.42,1.46-3.59.08-4.96l-1.83-1.84c-1.42-1.17-3.38-.63-4.5.5l-.58.58c-.17.17-.17.42,0,.58l5.67,5.71ZM65.19,59.06c-.17-.17-.42-.17-.58,0l-11.47,11.39c-.63.63-1.08,1.38-1.38,2.25l-1.75,5.63c-.12.33-.08.75.08,1.04.25.42.67.63,1.08.63l.38-.04,5.71-1.79c.83-.25,1.58-.71,2.21-1.33l11.42-11.43c.17-.17.17-.42,0-.58l-5.71-5.76ZM56.52,75.79l-3.42,1.08,1.08-3.42c.13-.46.38-.83.71-1.17l2.79,2.79c-.33.33-.75.58-1.17.71Z" fill="#fff"/><path d="M26,57.32c0,3.14,9.08,5.61,20.15,5.61,3.84,0,7.44-.31,10.51-.83l-5.94,5.9h0c-.46.47-.86.97-1.2,1.51-1.09.07-2.21.11-3.36.11-11.15,0-20.15-3.22-20.15-7.18v-5.12Z" fill="#fff"/><path d="M66.29,51.38c0,.74-.32,1.46-.91,2.13l-.21.2-.46.46c-3.05,2.58-10.21,4.39-18.57,4.39-11.15,0-20.15-3.14-20.15-7.02v-5.2c0,3.14,9,5.61,20.15,5.61,11.15,0,20.15-2.48,20.15-5.61v5.04Z" fill="#fff"/><path d="M66.29,40.56c0,3.96-9,7.18-20.15,7.18-11.15,0-20.14-3.22-20.15-7.18v-5.12l.02.29c.54,3,9.32,5.32,20.12,5.32s20.15-2.48,20.15-5.61v5.12Z" fill="#fff"/><path d="M46.15,20c11.15,0,20.15,3.22,20.15,7.18v2.48c0,3.96-9,7.18-20.15,7.18s-20.14-3.22-20.15-7.18v-2.48c0-3.96,9-7.18,20.15-7.18Z" fill="#fff"/></svg>