<svg xmlns="http://www.w3.org/2000/svg" height="100" width="100" viewBox="0 0 1000 1000" fill="#fff"><path d="M425 638v-2c2-34 30-61 65-61h84a65 65 0 0 1 9-77l2-2 20-19c11-12 27-19 43-20V250c0-27-22-50-50-50H251c-27 0-50 22-50 50v348c0 27 22 50 50 50h174zM276 277c0-7 5-12 12-12h75c7 0 12 5 12 12v35c0 7-5 12-12 12h-75c-7 0-12-5-12-12zm0 109c0-7 5-12 12-12h273c7 0 12 5 12 12v35c0 7-5 12-12 12H289c-7 0-12-5-12-12v-35zm0 144v-35c0-7 5-12 12-12h224c7 0 12 5 12 12v35c0 7-5 12-12 12H289c-8 1-13-4-13-12zm387-19-1-1c-6-5-15-5-20 1l-21 20c-5 6-5 15 0 20l55 55c2 2 3 4 3 7 0 6-4 10-10 10H490c-8 0-14 6-15 14v30c1 8 7 14 15 16h179l5 2c4 3 5 10 2 14l-55 55c-5 6-5 15 0 20l20 21c6 5 15 5 20 0l132-132c5-6 5-15 0-20z"/></svg>