<svg xmlns="http://www.w3.org/2000/svg" x="0px" y="0px"
	 width="52px" height="52px" viewBox="0 0 52 52" enable-background="new 0 0 52 52" xml:space="preserve">
<path fill="#FFFFFF" d="M50.6,30.2C50.6,15.8,39.7,4,26.2,4S1.7,15.8,1.7,30.2c0,3.4,0.6,6.8,1.8,10c1.4,3.9,4.9,6.7,9.1,6.8
	c1.2,0,2.2-1,2.2-2.2V32.3c0-1.2-1-2.2-2.2-2.2c-2.2,0-4.3,0.8-5.9,2c-0.1-0.7-0.1-1.3-0.1-2c0-11.8,8.8-21.3,19.6-21.3
	s19.6,9.6,19.6,21.3c0,0.7,0,1.4-0.1,2c-1.6-1.3-3.6-2.1-5.9-2.1c-1.2,0-2.2,1-2.2,2.2v12.4c0,1.2,1,2.2,2.2,2.2
	c2.4,0,4.9-0.9,6.5-2.7c1.7-1.8,2.5-3.8,3.2-6.2C50.2,35.5,50.6,32.9,50.6,30.2z"/>
</svg>
