<svg xmlns="http://www.w3.org/2000/svg" width="24" height="24" viewBox="0 0 24 24"><path d="M17.549,5.557L17.146,7.67c-0.049,0.229-0.337,0.47-0.605,0.47h-3.76c-0.425,0-0.729,0.296-0.729,0.714v0.463	c0,0.43,0.307,0.725,0.73,0.725h3.194c0.298,0,0.591,0.33,0.524,0.646l-0.404,2.083c-0.037,0.181-0.237,0.475-0.592,0.475h-2.609	c-0.477,0-0.617,0.069-0.936,0.454c-0.316,0.395-3.175,3.827-3.175,3.827C8.758,17.56,8.73,17.549,8.73,17.516V5.522	c0-0.271,0.234-0.588,0.586-0.588h7.756c0.283,0,0.549,0.269,0.477,0.618V5.557L17.549,5.557z M17.89,13.845	c0.111-0.437,1.319-6.63,1.722-8.593 M18.123,2.941H8.457c-1.33,0-1.723,1.002-1.723,1.635v15.353c0,0.71,0.381,0.975,0.596,1.062	c0.214,0.087,0.807,0.161,1.163-0.247c0,0,4.563-5.296,4.64-5.373c0.125-0.118,0.125-0.118,0.238-0.118h2.954	c1.245,0,1.438-0.885,1.574-1.405c0.114-0.429,1.325-6.622,1.721-8.595c0.307-1.496-0.079-2.311-1.495-2.311H18.123z"/></svg>