<svg xmlns="http://www.w3.org/2000/svg" width="24" height="24" viewBox="0 0 24 24"><path d="M14.49 20.937l5.381-1.166c0 0-1.941-13.138-1.957-13.225-.016-.086-.086-.144-.158-.144s-1.439-.101-1.439-.101-.949-.949-1.064-1.05c-.027-.029-.057-.043-.086-.058L14.49 20.937zM14.936 5.165c-.016 0-.043.014-.057.014-.016 0-.217.059-.533.158-.318-.919-.879-1.768-1.871-1.768-.029 0-.057 0-.086 0-.289-.361-.633-.519-.936-.519-2.316 0-3.426 2.892-3.77 4.359C6.791 7.684 6.145 7.885 6.07 7.914 5.566 8.072 5.553 8.086 5.496 8.562 5.439 8.906 4.129 19.051 4.129 19.051l10.117 1.899L14.936 5.165zM12.301 5.869c0 .03 0 .073 0 .102-.559.173-1.178.36-1.783.547.346-1.323.992-1.972 1.553-2.217C12.217 4.676 12.301 5.179 12.301 5.869zM11.381 3.669c.1 0 .201.028.303.102-.732.344-1.539 1.222-1.871 2.978C9.324 6.906 8.848 7.05 8.402 7.181 8.791 5.842 9.727 3.669 11.381 3.669zM11.783 11.481c0 0-.604-.315-1.322-.315-1.08 0-1.123.676-1.123.849 0 .921 2.418 1.28 2.418 3.453 0 1.712-1.08 2.806-2.547 2.806-1.756 0-2.648-1.094-2.648-1.094l.475-1.554c0 0 .922.792 1.697.792.506 0 .721-.402.721-.69 0-1.209-1.986-1.268-1.986-3.252 0-1.669 1.195-3.295 3.627-3.295.936 0 1.395.272 1.395.272L11.783 11.481zM12.705 4.2c.518.06.85.648 1.064 1.311-.258.087-.547.173-.863.273 0-.058 0-.116 0-.187C12.906 5.036 12.834 4.575 12.705 4.2z"/></svg>