<svg xmlns="http://www.w3.org/2000/svg" width="24" height="24" viewBox="0 0 24 24"><path d="M12.166,3c0.796,0,3.495,0.223,4.769,3.073c0.426,0.959,0.324,2.589,0.24,3.898l-0.002,0.047	c-0.011,0.146-0.018,0.278-0.024,0.41c0.061,0.037,0.164,0.072,0.322,0.072c0.241-0.013,0.53-0.096,0.831-0.241	c0.133-0.07,0.276-0.084,0.373-0.084c0.146,0,0.289,0.023,0.409,0.072c0.361,0.12,0.59,0.385,0.59,0.674	c0.013,0.361-0.313,0.675-0.975,0.939c-0.071,0.023-0.169,0.061-0.276,0.096c-0.363,0.109-0.917,0.289-1.073,0.651	c-0.072,0.181-0.049,0.421,0.098,0.697l0.012,0.013c0.048,0.109,1.228,2.795,3.854,3.229c0.204,0.035,0.349,0.217,0.337,0.409	c0,0.06-0.013,0.119-0.036,0.181c-0.193,0.457-1.023,0.795-2.53,1.021c-0.047,0.073-0.096,0.302-0.132,0.459	c-0.022,0.144-0.06,0.289-0.107,0.444c-0.061,0.218-0.217,0.325-0.446,0.325h-0.024c-0.107,0-0.251-0.023-0.433-0.059	c-0.289-0.061-0.614-0.108-1.024-0.108c-0.24,0-0.48,0.012-0.732,0.06c-0.483,0.084-0.904,0.373-1.386,0.71	c-0.687,0.481-1.469,1.036-2.649,1.036c-0.048,0-0.096-0.012-0.146-0.012h-0.119c-1.181,0-1.951-0.543-2.637-1.036	c-0.481-0.338-0.89-0.626-1.373-0.711c-0.252-0.035-0.506-0.06-0.745-0.06c-0.435,0-0.771,0.072-1.023,0.12	c-0.17,0.035-0.314,0.059-0.435,0.059c-0.301,0-0.42-0.179-0.47-0.337c-0.048-0.154-0.071-0.313-0.107-0.456	c-0.038-0.146-0.085-0.396-0.133-0.458c-1.543-0.179-2.373-0.517-2.565-0.986c-0.025-0.051-0.042-0.12-0.044-0.181	c-0.013-0.195,0.133-0.374,0.337-0.409c2.625-0.434,3.805-3.119,3.854-3.232l0.013-0.023c0.145-0.277,0.18-0.52,0.096-0.699	c-0.156-0.349-0.711-0.529-1.07-0.65c-0.098-0.023-0.194-0.06-0.279-0.096c-0.89-0.35-1.011-0.748-0.962-1.024	c0.072-0.384,0.541-0.637,0.939-0.637c0.117,0,0.217,0.023,0.308,0.06c0.337,0.155,0.635,0.241,0.888,0.241	c0.188,0,0.309-0.048,0.373-0.085L6.811,9.954C6.731,8.647,6.629,7.019,7.058,6.065c1.236-2.836,3.929-3.054,4.724-3.054L12.117,3	H12.166L12.166,3z"/></svg>