<svg height="52" viewBox="0 0 52 52" width="52" xmlns="http://www.w3.org/2000/svg"><g fill="#fff"><path d="m49.83 32.45a1.43 1.43 0 0 0 -1.39-1.45h-12a1.43 1.43 0 0 0 -1.44 1.44v1.44a1.43 1.43 0 0 0 1.4 1.44h6.14l-11 11a1.42 1.42 0 0 0 0 2l1 1a1.54 1.54 0 0 0 1.09.45 1.32 1.32 0 0 0 .94-.38l11-11v6a1.43 1.43 0 0 0 1.43 1.44h1.53a1.43 1.43 0 0 0 1.47-1.4z"/><path d="m3.45 12.48h31.91a1.24 1.24 0 0 0 1.25-1.23v-1.25a3.8 3.8 0 0 0 -3.76-3.69h-3.06v-1.31a2.43 2.43 0 0 0 -4.86 0v1.28h-11.06v-1.28a2.44 2.44 0 0 0 -4.87 0v1.28h-3.12a3.69 3.69 0 0 0 -3.69 3.72v1.28a1.24 1.24 0 0 0 1.25 1.23z"/><path d="m36.53 25.13v-7.79a1.25 1.25 0 0 0 -1.22-1.26h-31.86a1.24 1.24 0 0 0 -1.26 1.22v18.46a3.69 3.69 0 0 0 3.69 3.69h18.5a16.82 16.82 0 0 1 12.15-14.32zm-11-2.85a1.24 1.24 0 0 1 1.2-1.28h2.43a1.24 1.24 0 0 1 1.26 1.22v2.47a1.24 1.24 0 0 1 -1.17 1.31h-2.52a1.25 1.25 0 0 1 -1.25-1.23zm-12.23 11a1.23 1.23 0 0 1 -1.25 1.23h-2.49a1.24 1.24 0 0 1 -1.25-1.23v-2.46a1.25 1.25 0 0 1 1.23-1.25h2.46a1.25 1.25 0 0 1 1.26 1.22zm0-8.54a1.24 1.24 0 0 1 -1.22 1.26h-2.52a1.25 1.25 0 0 1 -1.25-1.23v-2.49a1.24 1.24 0 0 1 1.2-1.28h2.49a1.24 1.24 0 0 1 1.26 1.22zm8.54 8.54a1.25 1.25 0 0 1 -1.22 1.26h-2.51a1.24 1.24 0 0 1 -1.26-1.22v-2.5a1.24 1.24 0 0 1 1.23-1.25h2.46a1.25 1.25 0 0 1 1.25 1.23zm-1.3-7.28h-2.43a1.25 1.25 0 0 1 -1.26-1.22v-2.5a1.24 1.24 0 0 1 1.2-1.28h2.49a1.24 1.24 0 0 1 1.25 1.23v2.46a1.24 1.24 0 0 1 -1.17 1.31z"/></g></svg>