<svg xmlns="http://www.w3.org/2000/svg" x="0px" y="0px"
	 width="52px" height="52px" viewBox="0 0 52 52" enable-background="new 0 0 52 52" xml:space="preserve">
<path fill="#FFFFFF" d="M50.5,6h-41C8.7,6,8,6.7,8,7.5V38c0,1.2-1.1,2.2-2.3,2c-1-0.2-1.7-1.1-1.7-2.1V16c0-0.6-0.4-1-1-1H1.5
	C0.7,15,0,15.7,0,16.5V42c0,2.2,1.8,4,4,4h4h40c2.2,0,4-1.8,4-4V7.5C52,6.7,51.3,6,50.5,6z M28,35c0,0.6-0.4,1-1,1H15
	c-0.6,0-1-0.4-1-1v-2c0-0.6,0.4-1,1-1h12c0.6,0,1,0.4,1,1V35z M28,27c0,0.6-0.4,1-1,1H15c-0.6,0-1-0.4-1-1v-2c0-0.6,0.4-1,1-1h12
	c0.6,0,1,0.4,1,1V27z M46,35c0,0.6-0.4,1-1,1H33c-0.6,0-1-0.4-1-1v-2c0-0.6,0.4-1,1-1h12c0.6,0,1,0.4,1,1V35z M46,27
	c0,0.6-0.4,1-1,1H33c-0.6,0-1-0.4-1-1v-2c0-0.6,0.4-1,1-1h12c0.6,0,1,0.4,1,1V27z M46,19c0,0.6-0.4,1-1,1H15c-0.6,0-1-0.4-1-1v-6
	c0-0.6,0.4-1,1-1h30c0.6,0,1,0.4,1,1V19z"/>
</svg>
