<svg data-name="Layer 1" xmlns="http://www.w3.org/2000/svg" width="52" height="52" viewBox="0 0 52 52"><path d="M43.6,6.8h-4V5.2a3.2,3.2,0,0,0-6.4,0V6.8H18.8V5.2a3.2,3.2,0,0,0-6.4,0V6.8h-4a4.81,4.81,0,0,0-4.8,4.8v1.6a1.6,1.6,0,0,0,1.6,1.6H46.8a1.6,1.6,0,0,0,1.6-1.6V11.6A4.81,4.81,0,0,0,43.6,6.8Zm3.2,12.8a1.6,1.6,0,0,1,1.6,1.6h0v24A4.81,4.81,0,0,1,43.6,50H8.4a4.81,4.81,0,0,1-4.8-4.8h0v-24a1.6,1.6,0,0,1,1.6-1.6H46.8ZM36,41.46H26.61a.93.93,0,0,0-.93.93h0V45a.93.93,0,0,0,.93.93H36a.93.93,0,0,0,.93-.93h0V42.39a.93.93,0,0,0-.93-.93Zm0-10.79H15.54a.93.93,0,0,0-.93.93h0v6.32a.93.93,0,0,0,.93.93H36a.93.93,0,0,0,.93-.93h0V31.6a.93.93,0,0,0-.93-.93ZM24.93,23.6H15.54a.93.93,0,0,0-.93.93h0v2.65a.93.93,0,0,0,.93.93h9.39a.93.93,0,0,0,.93-.93h0V24.53a.93.93,0,0,0-.93-.93Z" fill="#fff"/></svg>