<svg xmlns="http://www.w3.org/2000/svg" x="0px" y="0px"
	 width="52px" height="52px" viewBox="0 0 52 52" enable-background="new 0 0 52 52" xml:space="preserve">
<path fill="#FFFFFF" d="M50,18.4c0-0.8-0.7-1.5-1.5-1.5h-21c-0.8,0-1.5,0.7-1.5,1.5v3c0,0.8,0.7,1.5,1.5,1.5h14.3L26.3,41.8
	c0,0,0,0.1,0,0.1c-0.2,0.2-0.3,0.5-0.3,0.8v3c0,0.8,0.7,1.5,1.5,1.5h21c0.8,0,1.5-0.7,1.5-1.5v-3c0-0.8-0.7-1.5-1.5-1.5h-14
	l15.2-18.6c0.2-0.3,0.3-0.7,0.3-1c0-0.1,0-0.1,0-0.2V18.4z"/>
<path fill="#FFFFFF" d="M26,6.3c0-0.8-0.7-1.5-1.5-1.5h-21C2.7,4.8,2,5.5,2,6.3v3c0,0.8,0.7,1.5,1.5,1.5h14.3L2.3,29.7
	c0,0,0,0.1,0,0.1C2.1,30,2,30.3,2,30.6v3c0,0.8,0.7,1.5,1.5,1.5h21c0.8,0,1.5-0.7,1.5-1.5v-3c0-0.8-0.7-1.5-1.5-1.5h-14l15.2-18.6
	c0.2-0.3,0.3-0.7,0.3-1c0-0.1,0-0.1,0-0.2V6.3z"/>
</svg>
