<?xml version="1.0" standalone="no"?>
<!DOCTYPE svg PUBLIC "-//W3C//DTD SVG 1.1//EN" "http://www.w3.org/Graphics/SVG/1.1/DTD/svg11.dtd" >
<svg xmlns="http://www.w3.org/2000/svg">
<metadata>
<json>
<![CDATA[
{
	"fontFamily": "primeicons",
	"majorVersion": 1,
	"minorVersion": 0,
	"copyright": "PrimeTek Informatics",
	"designer": "",
	"description": "Icon Library for Prime UI Libraries\nFont generated by IcoMoon.",
	"fontURL": "https://github.com/primefaces/primeicons",
	"license": "MIT",
	"licenseURL": "https://opensource.org/licenses/MIT",
	"version": "Version 1.0",
	"fontId": "primeicons",
	"psName": "primeicons",
	"subFamily": "Regular",
	"fullName": "primeicons"
}
]]>
</json>
</metadata>
<defs>
<font id="primeicons" horiz-adv-x="1024">
<font-face units-per-em="1024" ascent="960" descent="-64" />
<missing-glyph horiz-adv-x="1024" />
<glyph unicode="&#x20;" horiz-adv-x="512" d="" />
<glyph unicode="&#xe900;" glyph-name="chevron-left" data-tags="chevron-left" d="M727.147-62.973c-22.26 0.083-42.396 9.11-57.016 23.671l-430.291 430.291c-14.711 14.536-23.819 34.712-23.819 57.015s9.112 42.478 23.812 57.007l430.302 430.302c14.77 15.818 35.747 25.679 59.027 25.679 44.558 0 80.68-36.121 80.68-80.68 0-23.28-9.862-44.257-25.633-58.983l-0.047-0.042-373.28-373.28 373.28-373.28c14.711-14.536 23.819-34.712 23.819-57.015s-9.112-42.478-23.812-57.007l-0.008-0.008c-14.616-14.558-34.753-23.583-56.999-23.666h-0.016z" />
<glyph unicode="&#xe901;" glyph-name="chevron-right" data-tags="chevron-right" d="M296.001 960.997c22.348-0.085 42.565-9.144 57.242-23.764l431.994-431.994c14.768-14.594 23.913-34.848 23.913-57.24s-9.146-42.647-23.907-57.233l-432.005-432.005c-14.424-13.47-33.856-21.739-55.219-21.739-44.734 0-81 36.264-81 81 0 21.363 8.269 40.793 21.783 55.266l-0.042-0.047 374.759 374.759-374.759 374.759c-14.768 14.594-23.913 34.848-23.913 57.24s9.146 42.647 23.907 57.233l0.008 0.008c14.676 14.616 34.89 23.676 57.224 23.759h0.016z" />
<glyph unicode="&#xe902;" glyph-name="chevron-down" data-tags="chevron-down" d="M1024.996 663.999c-0.084-22.347-9.145-42.563-23.763-57.243l-431.995-431.995c-14.593-14.769-34.847-23.915-57.241-23.915s-42.647 9.147-57.233 23.907l-432.005 432.005c-13.47 14.426-21.739 33.856-21.739 55.219 0 44.735 36.266 81 81 81 21.363 0 40.794-8.269 55.266-21.781l-0.047 0.043 374.759-374.759 374.759 374.759c14.593 14.769 34.847 23.915 57.241 23.915s42.647-9.147 57.233-23.907l0.008-0.008c14.615-14.676 23.675-34.891 23.759-57.224v-0.016z" />
<glyph unicode="&#xe903;" glyph-name="chevron-up" data-tags="chevron-up" d="M1.021 232.852c0.083 22.26 9.109 42.397 23.67 57.018l430.294 430.294c14.537 14.71 34.712 23.82 57.014 23.82s42.479-9.111 57.008-23.812l430.306-430.306c15.819-14.77 25.679-35.749 25.679-59.027 0-44.559-36.122-80.681-80.681-80.681-23.28 0-44.258 9.861-58.981 25.635l-0.043 0.047-373.283 373.283-373.283-373.283c-14.537-14.71-34.712-23.82-57.014-23.82s-42.479 9.111-57.008 23.812l-0.008 0.008c-14.558 14.617-23.582 34.753-23.668 56.999v0.016z" />
<glyph unicode="&#xe904;" glyph-name="caret-left" data-tags="caret-left" d="M314.755 417.937l342.804-344.387c6.89-5.97 15.942-9.607 25.842-9.607 21.846 0 39.557 17.708 39.557 39.557 0 0.042 0 0.080 0 0.124v-0.006 688.775c-0.324 21.889-18.142 39.509-40.075 39.509-9.877 0-18.918-3.57-25.903-9.496l0.056 0.048-342.279-344.915c-8.478-7.206-13.825-17.876-13.825-29.8s5.346-22.59 13.77-29.753l0.054-0.044z" />
<glyph unicode="&#xe905;" glyph-name="caret-right" data-tags="caret-right" d="M709.246 478.063l-342.804 344.387c-6.89 5.97-15.942 9.607-25.842 9.607-21.846 0-39.557-17.708-39.557-39.557 0-0.042 0-0.080 0-0.124v0.006-688.778c0.324-21.889 18.142-39.509 40.075-39.509 9.877 0 18.918 3.57 25.903 9.496l-0.056-0.048 342.279 344.915c8.478 7.206 13.825 17.876 13.825 29.8s-5.346 22.59-13.77 29.753l-0.054 0.044z" />
<glyph unicode="&#xe906;" glyph-name="caret-down" data-tags="caret-down" d="M542.966 244.823l354.74 353.111c6.151 7.095 9.901 16.421 9.901 26.618 0 22.502-18.243 40.744-40.744 40.744-0.044 0-0.085 0-0.126 0h-709.479c-22.549-0.336-40.695-18.69-40.695-41.284 0-10.173 3.678-19.486 9.779-26.686l-0.051 0.058 355.285-352.57c7.421-8.734 18.414-14.242 30.694-14.242s23.272 5.506 30.646 14.181l0.047 0.058z" />
<glyph unicode="&#xe907;" glyph-name="caret-up" data-tags="caret-up" d="M481.037 651.176l-354.749-353.12c-6.151-7.097-9.901-16.422-9.901-26.618 0-22.503 18.245-40.743 40.743-40.743 0.041 0 0.085 0 0.123 0h709.492c22.545 0.336 40.694 18.687 40.694 41.285 0 10.176-3.682 19.489-9.78 26.686l0.048-0.061-355.293 352.578c-7.423 8.736-18.412 14.241-30.693 14.241s-23.272-5.502-30.646-14.18l-0.044-0.058z" />
<glyph unicode="&#xe908;" glyph-name="search" data-tags="search" d="M466.106 863.791c-202.767 0-367.144-164.375-367.144-367.144s164.375-367.144 367.144-367.144c202.767 0 367.144 164.375 367.144 367.144v0c0 202.767-164.375 367.144-367.144 367.144v0zM466.106 267.181c-126.731 0-229.464 102.736-229.464 229.464s102.736 229.464 229.464 229.464c126.731 0 229.464-102.736 229.464-229.464v0c0-126.731-102.736-229.464-229.464-229.464v0zM669.407 192.232l97.354 97.354 210.933-210.933c17.922-17.922 17.922-46.979 0-64.903v0l-32.451-32.451c-17.922-17.922-46.979-17.922-64.903 0v0l-210.933 210.933z" />
<glyph unicode="&#xe909;" glyph-name="check" data-tags="check" d="M463.434 99.218l507.168 507.721c4.876 4.973 7.887 11.791 7.887 19.316s-3.011 14.344-7.893 19.32l-78.362 78.362c-4.973 4.876-11.791 7.887-19.316 7.887s-14.344-3.011-19.32-7.893l-448.666-448.666-234.543 233.995c-4.973 4.876-11.791 7.887-19.316 7.887s-14.344-3.011-19.32-7.893l-78.362-78.362c-4.876-4.973-7.887-11.791-7.887-19.316s3.011-14.344 7.893-19.32l293.040-293.040c15.093-14.7 35.737-23.763 58.496-23.763s43.404 9.063 58.518 23.778l-0.017-0.017z" />
<glyph unicode="&#xe90a;" glyph-name="check-circle" data-tags="check-circle" d="M512 959.977c-282.757 0-511.977-229.22-511.977-511.977s229.22-511.977 511.977-511.977c282.757 0 511.977 229.22 511.977 511.977v0c0 282.757-229.22 511.977-511.977 511.977v0zM869.745 606.713l-395.503-395.503c-11.629-11.885-27.833-19.255-45.759-19.255s-34.128 7.369-45.747 19.244l-197.763 197.763-30.719 30.078c-3.922 3.934-6.346 9.364-6.346 15.359s2.425 11.425 6.348 15.359v0l63.998 60.797c3.832 3.885 9.154 6.292 15.040 6.292s11.208-2.407 15.037-6.289l30.722-30.722 151.673-152.314 319.986 319.986 30.719 30.078c3.832 3.885 9.154 6.292 15.040 6.292s11.208-2.407 15.037-6.289l64.001-64.001c1.612-2.913 2.56-6.385 2.56-10.080 0-6.829-3.241-12.902-8.271-16.762l-0.049-0.037z" />
<glyph unicode="&#xe90b;" glyph-name="times" data-tags="times" d="M636.4 448l231.2 231.2c17.257 16.113 28.014 38.997 28.014 64.396 0 48.612-39.408 88.020-88.020 88.020-25.397 0-48.283-10.758-64.349-27.964l-0.046-0.052-231.2-231.2-231.2 231.2c-16.113 17.257-38.997 28.014-64.396 28.014-48.612 0-88.020-39.408-88.020-88.020 0-25.397 10.758-48.283 27.964-64.349l0.052-0.046 231.2-231.2-231.2-231.2c-16.047-15.858-25.987-37.87-25.987-62.201s9.939-46.343 25.979-62.194l0.007-0.007c15.926-15.904 37.915-25.74 62.201-25.74s46.276 9.836 62.201 25.742l231.198 231.198 231.2-231.2c15.926-15.904 37.915-25.74 62.201-25.74s46.276 9.836 62.201 25.742l-0.002-0.002c16.047 15.858 25.987 37.87 25.987 62.201s-9.939 46.343-25.979 62.194l-0.007 0.007z" />
<glyph unicode="&#xe90c;" glyph-name="times-circle" data-tags="times-circle" d="M512 959.999c-282.77 0-512-229.23-512-511.999s229.23-512 512-512c282.77 0 512 229.23 512 512v0c0 282.77-229.23 512-512 512v0zM753.279 279.681c9.276-9.363 15.008-22.253 15.008-36.48s-5.731-27.117-15.012-36.484l0.005 0.005c-9.43-9.128-22.297-14.753-36.48-14.753s-27.050 5.625-36.495 14.766l0.015-0.014-168.32 168.96-168.319-168.96c-9.43-9.128-22.298-14.753-36.48-14.753s-27.050 5.625-36.495 14.766l0.015-0.014c-9.276 9.363-15.007 22.253-15.007 36.48s5.732 27.117 15.012 36.485l-0.005-0.005 168.96 168.319-168.96 168.319c-7.324 8.873-11.768 20.361-11.768 32.888 0 28.63 23.21 51.84 51.84 51.84 12.526 0 24.015-4.443 32.976-11.838l-0.089 0.071 168.32-168.96 168.32 168.96c8.872 7.325 20.361 11.768 32.887 11.768 28.63 0 51.84-23.209 51.84-51.84 0-12.526-4.443-24.015-11.838-32.976l0.071 0.089-168.96-168.319z" />
<glyph unicode="&#xe90d;" glyph-name="plus" data-tags="plus" d="M614.394 550.394v230.386c0 28.277-22.923 51.196-51.196 51.196v0h-102.394c-28.277 0-51.196-22.923-51.196-51.196v0-230.386h-230.386c-28.277 0-51.196-22.923-51.196-51.196v0-102.394c0-28.277 22.923-51.196 51.196-51.196v0h230.386v-230.386c0-28.277 22.923-51.196 51.196-51.196v0h102.394c28.277 0 51.196 22.923 51.196 51.196v0 230.386h230.386c28.277 0 51.196 22.923 51.196 51.196v0 102.394c0 28.277-22.923 51.196-51.196 51.196v0z" />
<glyph unicode="&#xe90e;" glyph-name="plus-circle" data-tags="plus-circle" d="M149.776 810.224c-92.529-92.63-149.754-220.543-149.754-361.822 0-282.757 229.22-511.977 511.977-511.977s511.977 229.22 511.977 511.977c0 141.279-57.224 269.192-149.758 361.826l0.004-0.004c-92.669 92.769-220.745 150.157-362.224 150.157s-269.555-57.386-362.219-150.151l-0.004-0.004zM775.669 529.277c22.621 0 40.959-18.338 40.959-40.959v0-80.637c0-22.621-18.338-40.959-40.959-40.959v0h-182.392v-182.392c0-22.621-18.338-40.959-40.959-40.959v0h-80.637c-22.621 0-40.959 18.338-40.959 40.959v0 182.392h-182.392c-22.621 0-40.959 18.338-40.959 40.959v0 80.637c0 22.621 18.338 40.959 40.959 40.959h182.392v182.392c0 22.621 18.338 40.959 40.959 40.959v0h80.637c22.621 0 40.959-18.338 40.959-40.959v0-182.392z" />
<glyph unicode="&#xe90f;" glyph-name="minus" data-tags="minus" d="M173.057 551.247h677.888c28.8 0 52.145-23.347 52.145-52.145v-102.726c0-28.8-23.347-52.145-52.145-52.145h-677.888c-28.8 0-52.145 23.347-52.145 52.145v102.726c0 28.8 23.347 52.145 52.145 52.145z" />
<glyph unicode="&#xe910;" glyph-name="minus-circle" data-tags="minus-circle" d="M512 959.977c-282.757 0-511.977-229.22-511.977-511.977s229.22-511.977 511.977-511.977c282.757 0 511.977 229.22 511.977 511.977v0c0 282.757-229.22 511.977-511.977 511.977v0zM816.626 407.041c0-22.267-18.052-40.318-40.318-40.318v0h-528.618c-22.267 0-40.318 18.052-40.318 40.318v81.916c0 22.267 18.052 40.318 40.318 40.318v0h528.618c22.267 0 40.318-18.052 40.318-40.318v0z" />
<glyph unicode="&#xe911;" glyph-name="circle-on" data-tags="radio-on" d="M1023.977 448c0-282.757-229.22-511.977-511.977-511.977s-511.977 229.22-511.977 511.977c0 282.757 229.22 511.977 511.977 511.977s511.977-229.22 511.977-511.977z" />
<glyph unicode="&#xe912;" glyph-name="circle-off" data-tags="radio-off" d="M512 959.977c-282.757 0-511.977-229.22-511.977-511.977s229.22-511.977 511.977-511.977c282.757 0 511.977 229.22 511.977 511.977v0c0 282.757-229.22 511.977-511.977 511.977v0zM512 64.017c-212.068 0-383.983 171.915-383.983 383.983s171.915 383.983 383.983 383.983c212.068 0 383.983-171.915 383.983-383.983v0c0-212.068-171.915-383.983-383.983-383.983v0z" />
<glyph unicode="&#xe913;" glyph-name="sort-down" data-tags="sort-down" d="M552.083 185.003l459.19 457.080c7.96 9.185 12.813 21.254 12.813 34.457 0 29.127-23.614 52.74-52.74 52.74-0.054 0-0.111 0-0.164 0h-918.373c-29.185-0.432-52.677-24.191-52.677-53.439 0-13.169 4.763-25.225 12.659-34.54l-0.064 0.077 459.894-456.378c9.605-11.306 23.837-18.435 39.731-18.435s30.124 7.125 39.667 18.357l0.061 0.076z" />
<glyph unicode="&#xe914;" glyph-name="sort-up" data-tags="sort-up" d="M471.919 710.996l-459.188-457.078c-7.96-9.183-12.813-21.254-12.813-34.457 0-29.125 23.612-52.74 52.74-52.74 0.054 0 0.111 0 0.164 0h918.367c29.185 0.432 52.677 24.191 52.677 53.436 0 13.169-4.763 25.225-12.659 34.54l0.064-0.077-459.892 456.376c-9.605 11.306-23.837 18.433-39.732 18.433s-30.124-7.128-39.668-18.357l-0.061-0.076z" />
<glyph unicode="&#xe915;" glyph-name="sort" data-tags="sort" d="M162.173 531.037h699.658c0.176-0.003 0.384-0.004 0.593-0.004 22.19 0 40.179 17.989 40.179 40.179 0 10.313-3.884 19.714-10.268 26.828l0.033-0.038-350.363 348.22c-7.404 8.45-18.217 13.756-30.269 13.756s-22.865-5.306-30.229-13.71l-0.041-0.046-349.827-348.22c-5.968-7.038-9.595-16.222-9.595-26.255 0-22.282 17.897-40.383 40.101-40.71h0.031zM861.827 364.963h-699.658c-0.176 0.003-0.384 0.004-0.593 0.004-22.19 0-40.179-17.989-40.179-40.179 0-10.313 3.884-19.714 10.268-26.828l-0.033 0.038 350.363-348.22c7.404-8.45 18.217-13.756 30.269-13.756s22.865 5.306 30.229 13.71l0.041 0.046 349.827 348.22c5.968 7.038 9.595 16.222 9.595 26.255 0 22.282-17.897 40.383-40.101 40.71h-0.031z" />
<glyph unicode="&#xe916;" glyph-name="step-backward" data-tags="step-backward" d="M743.344 11.161c8.037-6.966 18.597-11.21 30.15-11.21 25.488 0 46.145 20.659 46.145 46.145 0 0.050 0 0.095 0 0.143v-0.008 803.54c-0.378 25.535-21.166 46.091-46.754 46.091-11.522 0-22.072-4.167-30.22-11.077l0.067 0.056-399.312-402.385c-9.766-8.361-15.936-20.682-15.996-34.445v-0.010c0.045-13.966 6.207-26.486 15.943-35.024l0.053-0.047zM235.128 0.086h61.527c16.99 0 30.766 13.772 30.766 30.766v0 834.306c0 16.99-13.772 30.766-30.766 30.766v0h-61.527c-16.99 0-30.766-13.772-30.766-30.766v0-834.306c0-16.99 13.772-30.766 30.766-30.766v0z" />
<glyph unicode="&#xe917;" glyph-name="step-forward" data-tags="step-forward" d="M280.656 884.839c-8.037 6.966-18.597 11.21-30.15 11.21-25.488 0-46.145-20.659-46.145-46.145 0-0.050 0-0.095 0-0.143v0.008-803.54c0.378-25.535 21.166-46.091 46.754-46.091 11.522 0 22.072 4.167 30.22 11.077l-0.067-0.056 399.312 402.385c9.766 8.361 15.936 20.682 15.996 34.445v0.010c-0.045 13.966-6.207 26.486-15.943 35.024l-0.053 0.047zM788.872 895.914h-61.527c-16.99 0-30.766-13.772-30.766-30.766v0-834.306c0-16.99 13.772-30.766 30.766-30.766v0h61.527c16.99 0 30.766 13.772 30.766 30.766v0 834.306c0 16.99-13.772 30.766-30.766 30.766v0z" />
<glyph unicode="&#xe918;" glyph-name="th-large" data-tags="th-large" d="M56.909 903.091h341.319c31.417 0 56.887-25.47 56.887-56.887v-284.432c0-31.417-25.47-56.887-56.887-56.887h-341.319c-31.417 0-56.887 25.47-56.887 56.887v284.432c0 31.417 25.47 56.887 56.887 56.887zM56.909 396.802h341.319c31.417 0 56.887-25.47 56.887-56.887v-284.432c0-31.417-25.47-56.887-56.887-56.887h-341.319c-31.417 0-56.887 25.47-56.887 56.887v284.432c0 31.417 25.47 56.887 56.887 56.887zM625.772 903.091h341.319c31.417 0 56.887-25.47 56.887-56.887v-284.432c0-31.417-25.47-56.887-56.887-56.887h-341.319c-31.417 0-56.887 25.47-56.887 56.887v284.432c0 31.417 25.47 56.887 56.887 56.887zM625.772 391.113h341.319c31.417 0 56.887-25.47 56.887-56.887v-284.432c0-31.417-25.47-56.887-56.887-56.887h-341.319c-31.417 0-56.887 25.47-56.887 56.887v284.432c0 31.417 25.47 56.887 56.887 56.887z" />
<glyph unicode="&#xe919;" glyph-name="arrow-down" data-tags="arrow-down" d="M967.429 472.254c-14.771 14.513-35.039 23.472-57.402 23.472s-42.63-8.959-57.412-23.483l0.011 0.011-259.783-260.322v667.244c0 44.647-36.196 80.845-80.845 80.845s-80.845-36.196-80.845-80.845v0-667.244l-259.783 260.322c-14.191 12.343-32.86 19.87-53.287 19.87-44.948 0-81.386-36.437-81.386-81.386 0-20.426 7.525-39.095 19.955-53.386l-0.085 0.099 398.299-397.76c14.627-14.609 34.823-23.643 57.131-23.643s42.503 9.034 57.131 23.645l398.298 397.758c14.513 14.771 23.472 35.039 23.472 57.402s-8.959 42.63-23.483 57.412l0.011-0.011z" />
<glyph unicode="&#xe91a;" glyph-name="arrow-left" data-tags="arrow-left" d="M536.254-7.431c14.513 14.771 23.472 35.039 23.472 57.4s-8.959 42.63-23.483 57.412l0.011-0.011-260.323 259.784h667.245c44.649 0 80.845 36.196 80.845 80.845s-36.196 80.845-80.845 80.845v0h-667.245l260.323 259.784c12.345 14.191 19.87 32.86 19.87 53.287 0 44.948-36.437 81.387-81.387 81.387-20.426 0-39.095-7.525-53.386-19.955l0.099 0.085-397.761-398.3c-14.609-14.627-23.643-34.824-23.643-57.131s9.034-42.504 23.645-57.131l397.76-398.299c14.771-14.513 35.039-23.472 57.4-23.472s42.63 8.959 57.412 23.483l-0.011-0.011z" />
<glyph unicode="&#xe91b;" glyph-name="arrow-right" data-tags="arrow-right" d="M487.746 903.429c-14.513-14.771-23.472-35.039-23.472-57.4s8.959-42.63 23.483-57.412l-0.011 0.011 260.322-259.784h-667.244c-44.649 0-80.845-36.196-80.845-80.845s36.196-80.845 80.845-80.845v0h667.244l-260.322-259.784c-12.345-14.191-19.87-32.86-19.87-53.287 0-44.948 36.437-81.385 81.385-81.385 20.426 0 39.095 7.525 53.386 19.955l-0.099-0.085 397.76 398.299c14.609 14.627 23.643 34.824 23.643 57.131s-9.034 42.504-23.645 57.131l-397.758 398.298c-14.771 14.513-35.039 23.472-57.4 23.472s-42.63-8.959-57.412-23.483l0.011 0.011z" />
<glyph unicode="&#xe91c;" glyph-name="arrow-up" data-tags="arrow-up" d="M56.571 423.746c14.771-14.513 35.039-23.472 57.402-23.472s42.63 8.959 57.412 23.483l-0.011-0.011 259.783 260.322v-667.244c0-44.647 36.196-80.845 80.845-80.845s80.845 36.196 80.845 80.845v0 667.244l259.783-260.322c14.191-12.343 32.86-19.87 53.287-19.87 44.948 0 81.386 36.437 81.386 81.386 0 20.426-7.525 39.095-19.955 53.386l0.085-0.099-398.299 397.76c-14.627 14.609-34.823 23.643-57.131 23.643s-42.503-9.034-57.131-23.645l-398.298-397.758c-14.513-14.771-23.472-35.039-23.472-57.402s8.959-42.63 23.483-57.412l-0.011 0.011z" />
<glyph unicode="&#xe91d;" glyph-name="bars" data-tags="bars" d="M64.021 543.995h895.958c35.344 0 63.997-28.653 63.997-63.997v-63.997c0-35.344-28.653-63.997-63.997-63.997h-895.958c-35.344 0-63.997 28.653-63.997 63.997v63.997c0 35.344 28.653 63.997 63.997 63.997zM64.021 895.979h895.958c35.344 0 63.997-28.653 63.997-63.997v-63.997c0-35.344-28.653-63.997-63.997-63.997h-895.958c-35.344 0-63.997 28.653-63.997 63.997v63.997c0 35.344 28.653 63.997 63.997 63.997zM64.021 192.012h895.958c35.344 0 63.997-28.653 63.997-63.997v-63.997c0-35.344-28.653-63.997-63.997-63.997h-895.958c-35.344 0-63.997 28.653-63.997 63.997v63.997c0 35.344 28.653 63.997 63.997 63.997z" />
<glyph unicode="&#xe91e;" glyph-name="arrow-circle-down" data-tags="arrow-circle-down" d="M0.013 448c0-282.763 229.225-511.987 511.987-511.987s511.987 229.225 511.987 511.987c0 282.763-229.225 511.987-511.987 511.987v0c-282.763 0-511.987-229.223-511.987-511.987v0zM565.759 735.993v-447.99l174.075 173.436c9.745 9.745 23.207 15.774 38.080 15.774 29.741 0 53.852-24.11 53.852-53.852 0-14.871-6.027-28.334-15.774-38.080v0l-265.594-263.674c-9.838-9.805-23.41-15.867-38.399-15.867s-28.561 6.061-38.401 15.868l0.001-0.001-265.594 266.231c-9.745 9.745-15.774 23.209-15.774 38.080 0 29.741 24.11 53.852 53.852 53.852 14.871 0 28.334-6.027 38.080-15.774v0l174.075-173.436v447.99c0 29.69 24.068 53.759 53.759 53.759s53.759-24.068 53.759-53.759v0z" />
<glyph unicode="&#xe91f;" glyph-name="arrow-circle-left" data-tags="arrow-circle-left" d="M512 959.987c-282.763 0-511.987-229.224-511.987-511.987s229.224-511.987 511.987-511.987c282.763 0 511.987 229.224 511.987 511.987v0c0 282.763-229.224 511.987-511.987 511.987v0zM799.993 394.241h-447.99l173.436-174.075c9.745-9.745 15.774-23.209 15.774-38.080 0-29.741-24.11-53.852-53.852-53.852-14.871 0-28.334 6.027-38.080 15.774v0l-263.674 265.594c-9.805 9.838-15.867 23.41-15.867 38.399s6.061 28.561 15.868 38.401l-0.001-0.001 266.233 265.594c9.745 9.745 23.209 15.774 38.080 15.774 29.741 0 53.852-24.11 53.852-53.852 0-14.871-6.027-28.334-15.774-38.080v0l-173.436-174.075h447.99c29.69 0 53.759-24.068 53.759-53.759s-24.068-53.759-53.759-53.759v0z" />
<glyph unicode="&#xe920;" glyph-name="arrow-circle-right" data-tags="arrow-circle-right" d="M512-63.987c282.763 0 511.987 229.224 511.987 511.987s-229.224 511.987-511.987 511.987c-282.763 0-511.987-229.224-511.987-511.987v0c0-282.763 229.224-511.987 511.987-511.987v0zM224.007 501.759h447.99l-175.995 174.075c-9.745 9.745-15.774 23.209-15.774 38.080 0 29.741 24.11 53.852 53.852 53.852 14.871 0 28.334-6.027 38.080-15.774v0l266.233-265.594c9.805-9.838 15.867-23.41 15.867-38.399s-6.061-28.561-15.868-38.401l0.001 0.001-266.233-265.594c-9.745-9.745-23.209-15.774-38.080-15.774-29.741 0-53.852 24.11-53.852 53.852 0 14.871 6.027 28.334 15.774 38.080v0l173.436 174.075h-447.99c-29.69 0-53.759 24.068-53.759 53.759s24.068 53.759 53.759 53.759v0z" />
<glyph unicode="&#xe921;" glyph-name="arrow-circle-up" data-tags="arrow-circle-up" d="M1023.987 448c0 282.763-229.224 511.987-511.987 511.987s-511.987-229.224-511.987-511.987c0-282.763 229.224-511.987 511.987-511.987v0c282.763 0 511.987 229.224 511.987 511.987v0zM458.241 160.007v447.99l-174.075-175.995c-9.745-9.745-23.209-15.774-38.080-15.774-29.741 0-53.852 24.11-53.852 53.852 0 14.871 6.027 28.334 15.774 38.080v0l265.594 266.233c9.838 9.805 23.41 15.867 38.399 15.867s28.561-6.061 38.401-15.868l-0.001 0.001 265.594-266.233c9.745-9.745 15.774-23.209 15.774-38.080 0-29.741-24.11-53.852-53.852-53.852-14.871 0-28.334 6.027-38.080 15.774v0l-174.075 173.436v-447.99c0-29.69-24.068-53.759-53.759-53.759s-53.759 24.068-53.759 53.759v0z" />
<glyph unicode="&#xe922;" glyph-name="exclamation-triangle" data-tags="exclamation-triangle" d="M1013.613 107.153l-440.261 754.407c-12.742 20.939-35.439 34.709-61.352 34.709s-48.611-13.771-61.174-34.394l-0.178-0.316-440.261-754.407c-6.504-10.52-10.357-23.273-10.357-36.929 0-39.217 31.792-71.009 71.009-71.009 0.246 0 0.493 0.001 0.738 0.004h880.483c0.208-0.003 0.454-0.004 0.7-0.004 39.217 0 71.009 31.792 71.009 71.009 0 13.655-3.854 26.409-10.533 37.235l0.176-0.306zM460.304 637.17h103.39c16.001 0 28.972-12.971 28.972-28.972v0l-11.361-234.049c0-0.001 0-0.004 0-0.005 0-15.687-12.717-28.403-28.403-28.403-0.2 0-0.399 0.003-0.598 0.007h-80.638c-0.169-0.004-0.369-0.005-0.569-0.005-15.687 0-28.403 12.717-28.403 28.403 0 0.003 0 0.004 0 0.007v0l-11.361 234.049c0 16.001 12.971 28.972 28.972 28.972v0zM512 133.852c-47.054 0.009-85.194 38.156-85.194 85.212 0 47.061 38.151 85.212 85.212 85.212 46.462 0 84.238-37.186 85.193-83.418l0.001-0.089c0.011-0.507 0.017-1.105 0.017-1.704 0-47.061-38.151-85.212-85.212-85.212-0.007 0-0.012 0-0.019 0h0.001z" />
<glyph unicode="&#xe923;" glyph-name="info" data-tags="info" d="M422.4 716.8h179.2c16.495 0 29.867 13.372 29.867 29.867v0 119.467c0 16.495-13.372 29.867-29.867 29.867v0h-185.173c-13.196 0-23.893-10.698-23.893-23.893v0-125.44c0-16.495 13.372-29.867 29.867-29.867v0zM691.2 149.333h-59.733v418.133c0 16.495-13.372 29.867-29.867 29.867v0h-268.8c-16.495 0-29.867-13.372-29.867-29.867v0-89.6c0-16.495 13.372-29.867 29.867-29.867v0h59.733v-298.667h-59.733c-16.495 0-29.867-13.372-29.867-29.867v0-89.6c0-16.495 13.372-29.867 29.867-29.867v0h358.4c16.495 0 29.867 13.372 29.867 29.867v0 89.6c0 16.495-13.372 29.867-29.867 29.867v0z" />
<glyph unicode="&#xe924;" glyph-name="info-circle" data-tags="info-circle" d="M512 959.999c-282.77 0-512-229.23-512-511.999s229.23-512 512-512c282.77 0 512 229.23 512 512v0c0 282.77-229.23 512-512 512v0zM426.88 751.36c0 9.191 7.45 16.639 16.639 16.639h132.48c11.664 0 21.12-9.456 21.12-21.12v0-85.76c0-11.664-9.456-21.12-21.12-21.12v0h-127.999c-11.664 0-21.12 9.456-21.12 21.12v0zM661.12 149.12c0-11.664-9.456-21.12-21.12-21.12v0h-256c-11.664 0-21.12 9.456-21.12 21.12v0 64c0 0.003 0 0.006 0 0.009 0 11.793 9.381 21.395 21.087 21.75l0.033 0.002h42.88v213.12h-42.88c-11.664 0-21.12 9.456-21.12 21.12v64c0 0.003 0 0.006 0 0.009 0 11.793 9.381 21.394 21.087 21.75l0.033 0.001h192c11.739-0.357 21.12-9.959 21.12-21.75 0-0.003 0-0.006 0-0.010v0-298.241h42.88c11.739-0.357 21.12-9.958 21.12-21.75 0-0.003 0-0.006 0-0.010v0z" />
<glyph unicode="&#xe925;" glyph-name="home" data-tags="home" d="M1005.819 518.692l-477.426 406.223c-4.443 3.602-10.162 5.782-16.392 5.782s-11.951-2.178-16.441-5.821l0.049 0.039-477.426-406.223c-11.809-9.466-19.306-23.89-19.306-40.068 0-12.932 4.792-24.745 12.696-33.759l-0.050 0.059c9.463-11.357 23.613-18.531 39.435-18.531 12.513 0 23.977 4.485 32.874 11.939l-0.080-0.065 409.809 353.972c4.37 3.786 10.114 6.092 16.392 6.092s12.022-2.306 16.424-6.118l-0.031 0.026 409.809-353.972c8.817-7.386 20.281-11.872 32.793-11.872 15.824 0 29.972 7.175 39.369 18.449l0.069 0.084c8.934 9.21 14.44 21.788 14.44 35.65 0 15.113-6.545 28.698-16.955 38.077l-0.046 0.041zM528.905 718.473c-4.443 4.059-10.383 6.546-16.905 6.546s-12.461-2.486-16.924-6.564l0.019 0.018-366.779-321.7c-15.77-13.818-25.775-33.881-26.124-56.288l-0.001-0.061v-298.135c0-42.437 34.402-76.84 76.84-76.84v0h217.711c14.146 0 25.613 11.467 25.613 25.613v0 178.779c0 28.291 22.935 51.226 51.226 51.226v0h76.84c28.291 0 51.226-22.935 51.226-51.226v0-178.779c0-14.146 11.467-25.613 25.613-25.613v0h217.711c42.437 0 76.84 34.402 76.84 76.84v0 297.623c-0.533 22.589-10.48 42.754-26.056 56.798l-0.070 0.062z" />
<glyph unicode="&#xe926;" glyph-name="spinner" data-tags="spinner" d="M512-63.982c-282.759 0-511.982 229.222-511.982 511.982s229.222 511.982 511.982 511.982v0c32.613 0 59.053-26.439 59.053-59.053s-26.439-59.053-59.053-59.053v0c-0.141 0-0.307 0-0.473 0-217.859 0-394.467-176.61-394.467-394.467s176.61-394.467 394.467-394.467c217.859 0 394.467 176.61 394.467 394.467 0 75.756-21.356 146.526-58.374 206.615l0.977-1.705c-5.69 8.916-9.068 19.786-9.068 31.445 0 20.611 10.559 38.756 26.564 49.319l0.221 0.137c8.67 5.283 19.156 8.411 30.374 8.411 21.318 0 39.999-11.296 50.38-28.23l0.147-0.257c46.758-75.711 74.465-167.489 74.465-265.737 0-281.832-227.982-510.415-509.586-511.388h-0.093z" />
<glyph unicode="&#xe927;" glyph-name="calendar" data-tags="calendar" d="M907.567 840.177h-791.133c-31.209 0-56.51-25.301-56.51-56.51v0-791.133c0-31.209 25.301-56.51 56.51-56.51v0h791.133c31.209 0 56.51 25.301 56.51 56.51v0 791.133c0 31.209-25.301 56.51-56.51 56.51v0zM879.312 77.298c0-31.209-25.301-56.51-56.51-56.51v0h-621.605c-31.209 0-56.51 25.301-56.51 56.51v0 474.115c0 31.209 25.301 56.51 56.51 56.51v0h621.605c31.209 0 56.51-25.301 56.51-56.51v0zM227.192 548.022h83.069c15.605 0 28.254-12.65 28.254-28.254v-83.069c0-15.605-12.65-28.254-28.254-28.254h-83.069c-15.605 0-28.254 12.65-28.254 28.254v83.069c0 15.605 12.65 28.254 28.254 28.254zM389.374 548.022h83.069c15.605 0 28.254-12.65 28.254-28.254v-83.069c0-15.605-12.65-28.254-28.254-28.254h-83.069c-15.605 0-28.254 12.65-28.254 28.254v83.069c0 15.605 12.65 28.254 28.254 28.254zM551.557 548.022h83.069c15.605 0 28.254-12.65 28.254-28.254v-83.069c0-15.605-12.65-28.254-28.254-28.254h-83.069c-15.605 0-28.254 12.65-28.254 28.254v83.069c0 15.605 12.65 28.254 28.254 28.254zM713.739 548.022h83.069c15.605 0 28.254-12.65 28.254-28.254v-83.069c0-15.605-12.65-28.254-28.254-28.254h-83.069c-15.605 0-28.254 12.65-28.254 28.254v83.069c0 15.605 12.65 28.254 28.254 28.254zM227.192 378.493h83.069c15.605 0 28.254-12.65 28.254-28.254v-83.069c0-15.605-12.65-28.254-28.254-28.254h-83.069c-15.605 0-28.254 12.65-28.254 28.254v83.069c0 15.605 12.65 28.254 28.254 28.254zM389.374 378.493h83.069c15.605 0 28.254-12.65 28.254-28.254v-83.069c0-15.605-12.65-28.254-28.254-28.254h-83.069c-15.605 0-28.254 12.65-28.254 28.254v83.069c0 15.605 12.65 28.254 28.254 28.254zM551.557 378.493h83.069c15.605 0 28.254-12.65 28.254-28.254v-83.069c0-15.605-12.65-28.254-28.254-28.254h-83.069c-15.605 0-28.254 12.65-28.254 28.254v83.069c0 15.605 12.65 28.254 28.254 28.254zM713.739 378.493h83.069c15.605 0 28.254-12.65 28.254-28.254v-83.069c0-15.605-12.65-28.254-28.254-28.254h-83.069c-15.605 0-28.254 12.65-28.254 28.254v83.069c0 15.605 12.65 28.254 28.254 28.254zM227.192 216.311h83.069c15.605 0 28.254-12.65 28.254-28.254v-83.069c0-15.605-12.65-28.254-28.254-28.254h-83.069c-15.605 0-28.254 12.65-28.254 28.254v83.069c0 15.605 12.65 28.254 28.254 28.254zM389.374 216.311h83.069c15.605 0 28.254-12.65 28.254-28.254v-83.069c0-15.605-12.65-28.254-28.254-28.254h-83.069c-15.605 0-28.254 12.65-28.254 28.254v83.069c0 15.605 12.65 28.254 28.254 28.254zM551.557 216.311h83.069c15.605 0 28.254-12.65 28.254-28.254v-83.069c0-15.605-12.65-28.254-28.254-28.254h-83.069c-15.605 0-28.254 12.65-28.254 28.254v83.069c0 15.605 12.65 28.254 28.254 28.254zM713.739 216.311h83.069c15.605 0 28.254-12.65 28.254-28.254v-83.069c0-15.605-12.65-28.254-28.254-28.254h-83.069c-15.605 0-28.254 12.65-28.254 28.254v83.069c0 15.605 12.65 28.254 28.254 28.254zM257.707 958.847h24.3c31.209 0 56.51-25.301 56.51-56.51v-127.146c0-31.209-25.301-56.51-56.51-56.51h-24.3c-31.209 0-56.51 25.301-56.51 56.51v127.146c0 31.209 25.301 56.51 56.51 56.51zM743.124 959.976h24.3c31.209 0 56.51-25.301 56.51-56.51v-127.146c0-31.209-25.301-56.51-56.51-56.51h-24.3c-31.209 0-56.51 25.301-56.51 56.51v127.146c0 31.209 25.301 56.51 56.51 56.51z" />
<glyph unicode="&#xe928;" glyph-name="chevron-circle-left" data-tags="chevron-circle-left" d="M512 959.987c-282.763 0-511.987-229.224-511.987-511.987s229.224-511.987 511.987-511.987c282.763 0 511.987 229.224 511.987 511.987v0c0 282.763-229.224 511.987-511.987 511.987v0zM653.436 237.446c11.692-11.599 18.931-27.674 18.931-45.438s-7.239-33.839-18.927-45.435l-0.004-0.004c-11.599-11.692-27.674-18.931-45.438-18.931s-33.839 7.239-45.435 18.927l-255.999 255.999c-11.692 11.599-18.931 27.674-18.931 45.438s7.239 33.839 18.927 45.435l255.999 255.999c11.629 11.629 27.694 18.822 45.438 18.822 35.491 0 64.26-28.771 64.26-64.26 0-17.745-7.192-33.811-18.822-45.438v0l-211.195-210.554z" />
<glyph unicode="&#xe929;" glyph-name="chevron-circle-down" data-tags="chevron-circle-down" d="M0.013 448c0-282.763 229.224-511.987 511.987-511.987s511.987 229.224 511.987 511.987c0 282.763-229.224 511.987-511.987 511.987v0c-282.763 0-511.987-229.224-511.987-511.987v0zM722.554 589.436c11.599 11.692 27.674 18.931 45.438 18.931s33.839-7.239 45.435-18.927l0.004-0.004c11.692-11.599 18.931-27.674 18.931-45.438s-7.239-33.839-18.927-45.435l-255.999-255.999c-11.599-11.692-27.674-18.931-45.438-18.931s-33.839 7.239-45.435 18.927l-255.999 255.999c-11.629 11.629-18.822 27.694-18.822 45.438 0 35.491 28.771 64.26 64.26 64.26 17.745 0 33.811-7.192 45.438-18.822v0l210.554-211.195z" />
<glyph unicode="&#xe92a;" glyph-name="chevron-circle-right" data-tags="chevron-circle-right" d="M512-63.987c282.763 0 511.987 229.224 511.987 511.987s-229.224 511.987-511.987 511.987c-282.763 0-511.987-229.224-511.987-511.987v0c0-282.763 229.224-511.987 511.987-511.987v0zM370.564 658.554c-11.692 11.599-18.931 27.674-18.931 45.438s7.239 33.839 18.927 45.435l0.004 0.004c11.599 11.692 27.674 18.931 45.438 18.931s33.839-7.239 45.435-18.927l255.999-255.999c11.692-11.599 18.931-27.674 18.931-45.438s-7.239-33.839-18.927-45.435l-255.999-255.999c-11.629-11.629-27.694-18.822-45.438-18.822-35.491 0-64.26 28.771-64.26 64.26 0 17.745 7.192 33.811 18.822 45.438v0l211.195 210.554z" />
<glyph unicode="&#xe92b;" glyph-name="chevron-circle-up" data-tags="chevron-circle-up" d="M1023.987 448c0 282.763-229.224 511.987-511.987 511.987s-511.987-229.224-511.987-511.987c0-282.763 229.224-511.987 511.987-511.987v0c282.763 0 511.987 229.224 511.987 511.987v0zM301.446 306.564c-11.599-11.692-27.674-18.931-45.438-18.931s-33.839 7.239-45.435 18.927l-0.004 0.004c-11.692 11.599-18.931 27.674-18.931 45.438s7.239 33.839 18.927 45.435l255.999 255.999c11.599 11.692 27.674 18.931 45.438 18.931s33.839-7.239 45.435-18.927l255.999-255.999c11.629-11.629 18.822-27.694 18.822-45.438 0-35.491-28.771-64.26-64.26-64.26-17.745 0-33.811 7.192-45.438 18.822v0l-210.554 211.195z" />
<glyph unicode="&#xe92c;" glyph-name="angle-double-down" data-tags="angle-double-down" d="M512 243.458l-170.369 170.369c-13.601 14.565-32.915 23.644-54.35 23.644-41.029 0-74.289-33.26-74.289-74.289 0-21.436 9.078-40.751 23.601-54.312l0.042-0.041 222.865-222.865c13.385-13.544 31.96-21.932 52.498-21.932s39.111 8.389 52.49 21.927l222.872 222.872c13.423 13.441 21.724 31.999 21.724 52.498s-8.301 39.057-21.726 52.498l0.002-0.002c-13.385 13.544-31.96 21.932-52.498 21.932s-39.111-8.389-52.49-21.927l-0.006-0.006zM512 639.665l-170.369 170.369c-13.229 12.353-31.051 19.937-50.642 19.937-41.029 0-74.289-33.26-74.289-74.289 0-19.592 7.585-37.414 19.978-50.688l-0.041 0.042 222.865-222.865c13.385-13.544 31.96-21.932 52.498-21.932s39.111 8.389 52.49 21.927l222.872 222.872c13.423 13.441 21.724 31.999 21.724 52.498s-8.301 39.057-21.726 52.498l0.002-0.002c-13.385 13.544-31.96 21.932-52.498 21.932s-39.111-8.389-52.49-21.927l-0.006-0.006z" />
<glyph unicode="&#xe92d;" glyph-name="angle-double-left" data-tags="angle-double-left" d="M305.749 448l171.794 171.794c14.687 13.714 23.842 33.189 23.842 54.805 0 41.371-33.538 74.91-74.91 74.91-21.616 0-41.092-9.154-54.764-23.799l-0.041-0.042-224.731-224.731c-13.659-13.497-22.115-32.23-22.115-52.937s8.458-39.441 22.109-52.93l224.737-224.737c13.553-13.538 32.267-21.908 52.937-21.908s39.385 8.372 52.937 21.908l-0.002-0.002c13.659 13.497 22.115 32.23 22.115 52.937s-8.458 39.441-22.109 52.93l-0.006 0.006zM705.267 448l171.794 171.794c14.687 13.714 23.842 33.189 23.842 54.805 0 41.371-33.538 74.91-74.91 74.91-21.616 0-41.092-9.154-54.764-23.799l-0.041-0.042-224.731-224.731c-13.659-13.497-22.115-32.23-22.115-52.937s8.458-39.441 22.109-52.93l224.737-224.737c13.553-13.538 32.267-21.908 52.937-21.908s39.385 8.372 52.937 21.908l-0.002-0.002c13.659 13.497 22.115 32.23 22.115 52.937s-8.458 39.441-22.109 52.93l-0.006 0.006z" />
<glyph unicode="&#xe92e;" glyph-name="angle-double-right" data-tags="angle-double-right" d="M718.242 448l-171.785-171.785c-14.686-13.713-23.841-33.188-23.841-54.803 0-41.369 33.537-74.905 74.905-74.905 21.615 0 41.090 9.154 54.762 23.798l0.041 0.043 224.719 224.719c13.658 13.496 22.113 32.228 22.113 52.935s-8.457 39.439-22.108 52.928l-224.727 224.727c-13.552 13.537-32.265 21.906-52.935 21.906s-39.383-8.372-52.935-21.906l0.002 0.002c-13.658-13.496-22.113-32.228-22.113-52.935s8.457-39.439 22.108-52.928l0.006-0.006zM318.741 448l-171.785-171.785c-14.686-13.713-23.841-33.188-23.841-54.803 0-41.369 33.537-74.905 74.905-74.905 21.615 0 41.090 9.154 54.762 23.798l0.041 0.043 224.719 224.719c13.658 13.496 22.113 32.228 22.113 52.935s-8.457 39.439-22.108 52.928l-224.727 224.727c-13.552 13.537-32.265 21.906-52.935 21.906s-39.383-8.372-52.935-21.906l0.002 0.002c-13.658-13.496-22.113-32.228-22.113-52.935s8.457-39.439 22.108-52.928l0.006-0.006z" />
<glyph unicode="&#xe92f;" glyph-name="angle-double-up" data-tags="angle-double-up" d="M512 652.090l169.992-169.992c13.569-14.534 32.842-23.593 54.231-23.593 40.937 0 74.126 33.186 74.126 74.126 0 21.389-9.059 40.66-23.549 54.191l-0.042 0.041-222.374 222.374c-13.355 13.516-31.89 21.883-52.383 21.883s-39.028-8.37-52.374-21.878l-222.381-222.381c-13.396-13.409-21.677-31.929-21.677-52.383s8.285-38.97 21.678-52.383l-0.002 0.002c13.355-13.516 31.89-21.883 52.383-21.883s39.028 8.37 52.374 21.878l0.006 0.006zM512 256.758l169.992-169.992c13.569-14.534 32.842-23.593 54.231-23.593 40.937 0 74.126 33.186 74.126 74.126 0 21.389-9.059 40.66-23.549 54.191l-0.042 0.041-222.374 222.374c-13.355 13.516-31.89 21.883-52.383 21.883s-39.028-8.37-52.374-21.878l-222.381-222.381c-13.396-13.409-21.677-31.929-21.677-52.383s8.285-38.97 21.678-52.383l-0.002 0.002c13.355-13.516 31.89-21.883 52.383-21.883s39.028 8.37 52.374 21.878l0.006 0.006z" />
<glyph unicode="&#xe930;" glyph-name="angle-down" data-tags="angle-down" d="M869.578 582.091c-0.093-24.665-10.094-46.974-26.226-63.174l-268.181-268.181c-16.106-16.3-38.461-26.392-63.173-26.392s-47.065 10.094-63.166 26.385l-268.193 268.193c-17.527 16.365-28.452 39.608-28.452 65.4 0 49.371 40.022 89.393 89.393 89.393 25.795 0 49.038-10.925 65.355-28.4l0.047-0.053 205.013-205.013 205.013 205.013c16.106 16.3 38.461 26.392 63.173 26.392s47.065-10.094 63.166-26.385l0.009-0.009c16.13-16.196 26.13-38.505 26.224-63.153v-0.018z" />
<glyph unicode="&#xe931;" glyph-name="angle-left" data-tags="angle-left" d="M655.531 65.254c-26.402 0.1-50.281 10.805-67.622 28.071l-287.056 287.056c-17.447 17.24-28.25 41.168-28.25 67.618s10.805 50.378 28.24 67.61l287.068 287.068c17.516 18.759 42.396 30.456 70.005 30.456 52.847 0 95.687-42.84 95.687-95.687 0-27.611-11.693-52.487-30.399-69.956l-0.054-0.052-219.442-219.442 219.442-219.442c17.447-17.24 28.25-41.168 28.25-67.618s-10.805-50.378-28.24-67.61l-0.008-0.008c-17.335-17.265-41.218-27.969-67.6-28.069h-0.018z" />
<glyph unicode="&#xe932;" glyph-name="angle-right" data-tags="angle-right" d="M368.446 830.809c26.406-0.1 50.288-10.806 67.632-28.075l287.104-287.104c17.449-17.242 28.255-41.174 28.255-67.629s-10.806-50.386-28.244-67.62l-287.116-287.116c-17.519-18.763-42.403-30.461-70.017-30.461-52.856 0-95.701 42.848-95.701 95.701 0 27.615 11.695 52.496 30.403 69.966l0.054 0.052 219.476 219.476-219.476 219.476c-17.449 17.242-28.255 41.174-28.255 67.629s10.806 50.386 28.244 67.62l0.008 0.008c17.338 17.268 41.224 27.973 67.61 28.073h0.018z" />
<glyph unicode="&#xe933;" glyph-name="angle-up" data-tags="angle-up" d="M154.367 313.887c0.093 24.668 10.095 46.982 26.23 63.185l268.223 268.223c16.107 16.302 38.467 26.396 63.182 26.396s47.072-10.095 63.175-26.39l268.234-268.234c17.53-16.368 28.457-39.613 28.457-65.412 0-49.379-40.029-89.409-89.409-89.409-25.799 0-49.045 10.927-65.365 28.404l-0.047 0.052-205.045 205.045-205.045-205.045c-16.107-16.302-38.467-26.396-63.182-26.396s-47.072 10.095-63.175 26.39l-0.009 0.009c-16.133 16.198-26.134 38.512-26.227 63.164v0.017z" />
<glyph unicode="&#xe934;" glyph-name="upload" data-tags="upload" d="M211.155 527.964h189.007v-275.681c0-15.441 12.517-27.959 27.959-27.959v0h167.757c15.441 0 27.959 12.517 27.959 27.959v0 275.681h189.007c0.016 0 0.035 0 0.053 0 18.839 0 34.111 15.272 34.111 34.111 0 8.318-2.978 15.942-7.927 21.861l0.043-0.053-301.404 295.813c-6.539 6.904-15.768 11.197-26.002 11.197s-19.465-4.295-25.987-11.183l-0.016-0.016-300.845-295.253c-5.194-5.954-8.361-13.793-8.361-22.373 0-18.839 15.272-34.111 34.111-34.111 0.187 0 0.373 0.001 0.561 0.004h-0.027zM903.434 284.157h-223.676v-27.401c0 0 0-0.001 0-0.001 0-46.127-37.235-83.56-83.289-83.877h-167.788c-0.166-0.001-0.363-0.001-0.56-0.001-46.324 0-83.879 37.553-83.879 83.879 0 0 0 0.001 0 0.001v0 27.401h-223.676c-30.883 0-55.919-25.036-55.919-55.919v0-167.757c0-30.883 25.036-55.919 55.919-55.919v0h782.867c30.883 0 55.919 25.036 55.919 55.919v0 167.757c0 30.883-25.036 55.919-55.919 55.919v0zM847.515 98.505c-23.163 0-41.94 18.777-41.94 41.94s18.777 41.94 41.94 41.94c23.163 0 41.94-18.777 41.94-41.94v0c-0.311-23.037-18.903-41.628-41.909-41.94h-0.030z" />
<glyph unicode="&#xe935;" glyph-name="ban" data-tags="ban" d="M512 959.977c-282.757 0-511.977-229.22-511.977-511.977s229.22-511.977 511.977-511.977c282.757 0 511.977 229.22 511.977 511.977v0c0 282.757-229.22 511.977-511.977 511.977v0zM512 831.983c0.297 0.001 0.648 0.001 1 0.001 82.972 0 159.725-26.627 222.179-71.802l-1.11 0.763-535.016-535.016c-44.412 61.346-71.038 138.099-71.038 221.071 0 0.351 0 0.703 0.001 1.054v-0.054c0 212.068 171.915 383.983 383.983 383.983v0zM512 64.017c-0.297-0.001-0.648-0.001-1-0.001-82.972 0-159.725 26.627-222.179 71.802l1.11-0.763 535.016 535.016c44.412-61.346 71.038-138.099 71.038-221.071 0-0.351 0-0.703-0.001-1.054v0.054c0-212.068-171.915-383.983-383.983-383.983v0z" />
<glyph unicode="&#xe936;" glyph-name="star-o" data-tags="star-o" d="M740.794 1.572c-13.325 0.111-25.808 3.614-36.66 9.685l0.387-0.199-192.522 106.584-192.522-106.584c-10.399-5.893-22.839-9.367-36.092-9.367-16.188 0-31.169 5.183-43.367 13.982l0.218-0.15c-19.371 13.344-31.907 35.404-31.907 60.39 0 4.692 0.442 9.281 1.288 13.728l-0.072-0.456 37.388 231.026-160.155 164.062c-12.971 13.512-20.959 31.894-20.959 52.141 0 8.289 1.339 16.268 3.812 23.727l-0.153-0.533c8.786 26.531 31.53 46.108 59.31 50.175l0.398 0.049 218.192 33.483 96.54 207.031c12.371 25.676 38.194 43.080 68.080 43.080s55.709-17.404 67.883-42.629l0.196-0.45 99.331-205.915 218.192-33.483c28.181-4.117 50.924-23.691 59.559-49.703l0.148-0.521c2.494-7.168 3.935-15.428 3.935-24.026 0-20.386-8.097-38.881-21.252-52.444l0.019 0.020-160.155-164.062 37.388-231.026c0.773-3.991 1.215-8.578 1.215-13.272 0-24.986-12.536-47.044-31.661-60.229l-0.245-0.16c-11.784-8.757-26.617-14.016-42.68-14.016-1.082 0-2.161 0.023-3.232 0.071l0.151-0.006zM512 220.88c0.295 0.004 0.641 0.007 0.989 0.007 12.996 0 25.168-3.526 35.613-9.673l-0.329 0.179 159.598-88.17-28.46 193.081c-0.606 3.588-0.951 7.719-0.951 11.934 0 20.571 8.244 39.214 21.609 52.811l-0.010-0.010 135.044 138.392-183.594 28.46c-24.839 4.372-45.203 20.316-55.606 41.957l-0.198 0.454-83.706 170.759-80.357-170.759c-10.29-22.339-30.807-38.426-55.383-42.355l-0.42-0.055-183.594-28.46 134.487-138.392c13.354-13.583 21.598-32.229 21.598-52.799 0-4.213-0.345-8.345-1.010-12.371l0.061 0.439-31.25-193.081 159.598 88.17c10.115 5.968 22.288 9.494 35.282 9.494 0.348 0 0.694-0.003 1.040-0.007h-0.052zM255.862 311.282v0zM768.696 311.282v0z" />
<glyph unicode="&#xe937;" glyph-name="star" data-tags="star" d="M537.921 879.076l112.699-246.812c4.054-8.379 11.907-14.368 21.259-15.758l0.155-0.019 261.462-40.007c13.721-2.051 24.124-13.752 24.124-27.882 0-7.827-3.191-14.908-8.343-20.013l-0.003-0.003-187.645-193.279c-5.041-5.495-8.131-12.849-8.131-20.926 0-1.364 0.089-2.707 0.259-4.024l-0.016 0.156 45.079-274.423c0.188-1.234 0.295-2.655 0.295-4.104 0-15.872-12.866-28.738-28.738-28.738-5.069 0-9.83 1.311-13.965 3.615l0.147-0.076-231.033 127.351c-3.85 2.39-8.52 3.808-13.524 3.808s-9.674-1.418-13.635-3.871l0.111 0.063-231.033-127.351c-3.988-2.228-8.75-3.541-13.819-3.541-15.872 0-28.738 12.866-28.738 28.738 0 1.448 0.106 2.871 0.315 4.261l-0.021-0.158 45.079 274.423c0.155 1.161 0.242 2.504 0.242 3.869 0 8.077-3.090 15.433-8.152 20.95l0.021-0.022-190.461 193.279c-5.155 5.107-8.346 12.188-8.346 20.014 0 14.132 10.403 25.833 23.968 27.863l0.155 0.019 261.462 40.572c9.506 1.41 17.358 7.398 21.34 15.611l0.075 0.168 112.699 246.812c3.944 11.475 14.645 19.574 27.237 19.574 12.801 0 23.647-8.369 27.364-19.934l0.057-0.203z" />
<glyph unicode="&#xe938;" glyph-name="refresh" data-tags="refresh" d="M37.3 527.022c5.564-2.015 11.982-3.182 18.678-3.182 24.211 0 44.863 15.244 52.878 36.657l0.128 0.388c56.473 153.655 201.545 261.285 371.758 261.285 127.301 0 240.542-60.204 312.802-153.692l0.68-0.913-101.6-106.68c-4.101-4.256-6.627-10.053-6.627-16.44 0-12.445 9.59-22.651 21.783-23.63l0.085-0.005h290.69c0.171-0.004 0.37-0.009 0.571-0.009 13.716 0 24.835 11.119 24.835 24.835 0 0.201-0.003 0.401-0.009 0.601v-0.029 294.076c-0.716 12.515-11.040 22.393-23.67 22.393-6.65 0-12.66-2.737-16.965-7.146l-0.004-0.005-107.245-107.809c-93.877 114.778-235.503 187.461-394.105 187.461-218.834 0-405.348-138.368-476.831-332.387l-1.138-3.523c-2.168-5.757-3.426-12.413-3.426-19.361 0-24.092 15.093-44.658 36.339-52.759l0.388-0.131zM986.7 368.978c-5.564 2.015-11.982 3.182-18.678 3.182-24.211 0-44.863-15.244-52.878-36.657l-0.128-0.388c-56.473-153.655-201.545-261.285-371.758-261.285-127.301 0-240.542 60.204-312.802 153.692l-0.68 0.913 101.6 103.859c4.101 4.256 6.627 10.053 6.627 16.44 0 12.445-9.59 22.651-21.783 23.63l-0.085 0.005h-290.69c-0.171 0.004-0.37 0.009-0.571 0.009-13.716 0-24.835-11.119-24.835-24.835 0-0.201 0.003-0.401 0.009-0.601v0.029-294.076c0.716-12.515 11.040-22.393 23.67-22.393 6.65 0 12.66 2.737 16.965 7.146l0.004 0.005 107.245 107.809c93.875-114.275 235.192-186.599 393.404-186.599 219.565 0 406.597 139.296 477.543 334.338l1.123 3.534c2.168 5.757 3.426 12.413 3.426 19.361 0 24.092-15.093 44.658-36.339 52.759l-0.388 0.131z" />
<glyph unicode="&#xe939;" glyph-name="user" data-tags="user" d="M753.060 718.9c0-133.133-107.926-241.060-241.060-241.060s-241.060 107.926-241.060 241.060c0 133.133 107.926 241.060 241.060 241.060s241.060-107.926 241.060-241.060zM729.070 510.605c-54.681-57.414-131.707-93.118-217.070-93.118s-162.389 35.705-216.955 92.996l-0.117 0.122c-79.676-40.14-133.488-121.093-133.986-214.664v-239.372c0.33-66.434 54.096-120.199 120.498-120.53h461.088c66.434 0.33 120.199 54.096 120.53 120.498v239.337c-0.499 93.638-54.31 174.59-132.608 214.099l-1.381 0.633z" />
<glyph unicode="&#xe93a;" glyph-name="window-minimize" data-tags="window-minimize" d="M906.299 959.984h-788.6c-64.994 0-117.683-52.689-117.683-117.683v0-363.969c0.34-16.824 14.058-30.33 30.932-30.33 0.001 0 0.004 0 0.006 0h52.168c0.001 0 0.004 0 0.006 0 16.873 0 30.59 13.508 30.93 30.299v364l3.64 3.64 792.24-3.64-3.64-792.24h-363.969c-15.457-0.162-28.186-11.634-30.312-26.526l-0.020-0.165v-54.595c0-16.751 13.579-30.33 30.33-30.33v0h363.969c64.994 0 117.683 52.689 117.683 117.683v786.173c0 64.994-52.689 117.683-117.683 117.683v0zM416.155 621.492c-3.998 3.732-9.382 6.024-15.301 6.024-11.526 0-21.023-8.688-22.299-19.873l-0.010-0.104v-268.73c-0.050-0.557-0.080-1.204-0.080-1.858 0-12.061 9.777-21.838 21.838-21.838 0.455 0 0.906 0.014 1.354 0.041l-0.061-0.003h268.73c11.569 0.614 20.716 10.143 20.716 21.81 0 6.212-2.593 11.816-6.755 15.793l-0.009 0.009-96.452 95.239 207.462 207.462c4.754 4.726 7.697 11.27 7.697 18.501s-2.943 13.775-7.696 18.5l-37.005 37.005c-4.628 4.72-11.071 7.648-18.198 7.648s-13.571-2.926-18.194-7.643l-0.004-0.004-209.889-206.25zM60.678 299.985h242.647c33.502 0 60.662-27.16 60.662-60.662v-242.647c0-33.502-27.16-60.662-60.662-60.662h-242.647c-33.502 0-60.662 27.16-60.662 60.662v242.647c0 33.502 27.16 60.662 60.662 60.662z" />
<glyph unicode="&#xe93b;" glyph-name="window-maximize" data-tags="window-maximize" d="M906.299 959.984h-788.6c-64.994 0-117.683-52.689-117.683-117.683v0-363.969c0.34-16.824 14.058-30.33 30.932-30.33 0.001 0 0.004 0 0.006 0h52.168c0.001 0 0.004 0 0.006 0 16.873 0 30.59 13.508 30.93 30.299v364l3.64 3.64 792.24-3.64-3.64-792.24h-363.969c-15.457-0.162-28.186-11.634-30.312-26.526l-0.020-0.165v-54.595c0-16.751 13.579-30.33 30.33-30.33v0h363.969c64.994 0 117.683 52.689 117.683 117.683v786.173c0 64.994-52.689 117.683-117.683 117.683v0zM765.566 432.228c3.981-3.664 9.318-5.91 15.179-5.91 12.128 0 22.009 9.62 22.431 21.643l0.001 0.038v268.73c0.050 0.557 0.080 1.204 0.080 1.858 0 12.061-9.777 21.838-21.838 21.838-0.455 0-0.906-0.014-1.354-0.041l0.061 0.003h-268.124c-11.569-0.614-20.716-10.143-20.716-21.81 0-6.212 2.593-11.816 6.755-15.793l97.673-97.673-209.282-208.675c-4.754-4.726-7.697-11.27-7.697-18.501s2.943-13.775 7.696-18.5l37.005-37.005c4.628-4.72 11.071-7.648 18.198-7.648s13.571 2.926 18.194 7.643l208.074 208.074zM60.678 299.985h242.647c33.502 0 60.662-27.16 60.662-60.662v-242.647c0-33.502-27.16-60.662-60.662-60.662h-242.647c-33.502 0-60.662 27.16-60.662 60.662v242.647c0 33.502 27.16 60.662 60.662 60.662z" />
<glyph unicode="&#xe93c;" glyph-name="external-link" data-tags="external-link" d="M993.007 448h-52.164c-0.001 0-0.004 0-0.006 0-16.872 0-30.588-13.507-30.928-30.297v-363.97l-3.639-3.639-792.175 3.639 3.639 792.175h363.939c15.456 0.162 28.184 11.633 30.309 26.523l0.020 0.165v54.591c0 16.75-13.578 30.328-30.328 30.328v0h-363.939c-0.007 0-0.016 0-0.026 0-64.136 0-116.289-51.31-117.646-115.12l-0.001-0.127v-788.535c0-64.989 52.684-117.673 117.673-117.673v0h788.535c64.989 0 117.673 52.684 117.673 117.673v0 363.939c-0.34 16.822-14.057 30.328-30.929 30.328-0.001 0-0.004 0-0.006 0v0zM780.708 802.841l-320.266-320.266c-5.398-5.561-8.725-13.159-8.725-21.534s3.328-15.971 8.732-21.541l43.059-43.059c5.561-5.398 13.159-8.725 21.534-8.725s15.971 3.328 21.541 8.732l-0.007-0.007 320.266 320.873 113.428-114.034c4.632-4.744 11.090-7.687 18.237-7.687 13.574 0 24.667 10.615 25.433 23.996l0.003 0.068v312.381c0.043 0.554 0.067 1.2 0.067 1.852 0 14.070-11.406 25.476-25.476 25.476-0.451 0-0.898-0.011-1.343-0.034l0.063 0.003h-313.595c-13.449-0.769-24.064-11.864-24.064-25.436 0-7.147 2.943-13.605 7.681-18.231l0.006-0.004z" />
<glyph unicode="&#xe93d;" glyph-name="trash" data-tags="trash" d="M966.935 732.334h-138.756v84.731c-4.56 79.866-70.435 142.901-151.035 142.901-2.482 0-4.949-0.060-7.399-0.177l0.347 0.013h-316.181c-2.106 0.103-4.574 0.165-7.056 0.165-80.602 0-146.475-63.037-151.016-142.5l-0.019-0.401v-84.731h-138.756c-31.407 0-56.867-25.461-56.867-56.867s25.461-56.867 56.867-56.867v0h44.356v-542.511c5.708-78.538 70.827-140.093 150.323-140.093 2.732 0 5.447 0.071 8.142 0.215l-0.375-0.016h504.979c2.267-0.119 4.922-0.192 7.591-0.192 80.494 0 146.251 63.114 150.481 142.55l0.016 0.375v539.668h44.356c31.407 0 56.867 25.461 56.867 56.867s-25.461 56.867-56.867 56.867v0zM309.554 817.069c0 13.648 19.335 29.002 44.356 29.002h316.181c25.021 0 44.356-15.354 44.356-29.002v-84.731h-404.891zM808.845 77.797c0-13.648-18.766-29.002-44.356-29.002h-504.979c-25.59 0-44.356 15.354-44.356 29.002v540.805h593.691zM410.776 150.018c31.407 0 56.867 25.461 56.867 56.867v0 257.038c0 31.407-25.461 56.867-56.867 56.867s-56.867-25.461-56.867-56.867v0-257.038c0-31.407 25.461-56.867 56.867-56.867v0zM613.224 150.018c31.407 0 56.867 25.461 56.867 56.867v0 257.038c0 31.407-25.461 56.867-56.867 56.867s-56.867-25.461-56.867-56.867v0-257.038c0-31.407 25.461-56.867 56.867-56.867v0z" />
<glyph unicode="&#xe93e;" glyph-name="user-minus" data-tags="user-minus" d="M722.926 685.036c0-116.491-94.434-210.926-210.926-210.926s-210.926 94.434-210.926 210.926c0 116.491 94.434 210.926 210.926 210.926s210.926-94.434 210.926-210.926zM639.99 297.997h358.369c14.137 0 25.599-11.457 25.599-25.599v-58.363c0-14.137-11.457-25.599-25.599-25.599h-358.369c-14.137 0-25.599 11.457-25.599 25.599v58.363c0 14.137 11.457 25.599 25.599 25.599zM563.196 214.037v58.363c0 42.412 34.382 76.792 76.792 76.792v0h176.113c-11.985 67.702-54.716 123.427-112.961 153.031l-1.206 0.555c-47.845-50.236-115.243-81.478-189.934-81.478s-142.089 31.241-189.834 81.37l-0.103 0.106c-69.716-35.122-116.801-105.955-117.236-187.83v-209.448c0.288-58.13 47.334-105.173 105.434-105.462h403.448c58.13 0.288 105.173 47.334 105.462 105.434v31.769h-179.183c-42.412 0-76.792 34.382-76.792 76.792v0z" />
<glyph unicode="&#xe93f;" glyph-name="user-plus" data-tags="user-plus" d="M713.199 137.245h-73.207c-42.412 0-76.791 34.382-76.791 76.791v0 58.363c0 42.412 34.382 76.791 76.791 76.791v0h73.207v73.207c0 0.014 0 0.032 0 0.050 0 22.566 9.865 42.829 25.519 56.711l0.079 0.068c-10.725 8.332-22.788 16.145-35.505 22.893l-1.356 0.656c-47.845-50.235-115.243-81.478-189.932-81.478s-142.089 31.241-189.832 81.368l-0.103 0.106c-69.716-35.122-116.8-105.955-117.234-187.83v-209.446c0.288-58.13 47.334-105.173 105.433-105.461h403.446c10.127 0.233 19.782 1.902 28.883 4.81l-0.724-0.201c-17.533 14.001-28.669 35.375-28.669 59.349 0 0.012 0 0.025 0 0.037v-0.003zM722.926 685.036c0-116.491-94.434-210.926-210.926-210.926s-210.926 94.434-210.926 210.926c0 116.491 94.434 210.926 210.926 210.926s210.926-94.434 210.926-210.926zM998.358 297.997h-124.402v124.402c0 14.137-11.457 25.599-25.599 25.599v0h-58.363c-14.137 0-25.599-11.457-25.599-25.599v0-124.402h-124.402c-14.137 0-25.599-11.457-25.599-25.599v0-58.363c0-14.137 11.457-25.599 25.599-25.599v0h124.402v-124.402c0-14.137 11.457-25.599 25.599-25.599v0h58.363c14.137 0 25.599 11.457 25.599 25.599v0 124.402h124.402c14.137 0 25.599 11.457 25.599 25.599v0 58.363c0 14.137-11.457 25.599-25.599 25.599v0z" />
<glyph unicode="&#xe940;" glyph-name="clock" data-tags="clock" d="M512 959.977c-282.757 0-511.977-229.22-511.977-511.977s229.22-511.977 511.977-511.977c282.757 0 511.977 229.22 511.977 511.977v0c0 282.757-229.22 511.977-511.977 511.977v0zM512 64.017c-212.068 0-383.983 171.915-383.983 383.983s171.915 383.983 383.983 383.983c212.068 0 383.983-171.915 383.983-383.983v0c0-212.068-171.915-383.983-383.983-383.983v0zM543.998 695.669h-47.998c-17.672 0-31.998-14.326-31.998-31.998v0-223.99h-111.996c-17.672 0-31.998-14.326-31.998-31.998v0-47.998c0-17.672 14.326-31.998 31.998-31.998v0h191.992c17.672 0 31.998 14.326 31.998 31.998v0 303.987c0 17.672-14.326 31.998-31.998 31.998v0z" />
<glyph unicode="&#xe941;" glyph-name="users" data-tags="users" d="M707.152 664.145c0-108.569-88.013-196.584-196.584-196.584s-196.584 88.013-196.584 196.584c0 108.569 88.013 196.584 196.584 196.584s196.584-88.013 196.584-196.584zM687.588 495.717c-44.592-46.82-107.406-75.938-177.019-75.938s-132.427 29.117-176.925 75.838l-0.095 0.1c-64.487-33.143-107.838-99.215-107.838-175.412 0-0.398 0.001-0.795 0.003-1.193v0.060-195.152c0.234-53.194 42.483-96.445 95.26-98.286l0.169-0.004h375.988c0.71-0.018 1.548-0.029 2.386-0.029 54.391 0 98.513 43.965 98.767 98.296v195.177c-0.115 77.207-44.724 143.967-109.548 176.030l-1.15 0.514zM846 654.125c67.369 0.809 121.671 55.61 121.671 123.095 0 67.988-55.114 123.103-123.103 123.103-67.985 0-123.098-55.11-123.103-123.094v0c-0.001-0.146-0.001-0.319-0.001-0.492 0-67.724 54.901-122.625 122.625-122.625 0.671 0 1.342 0.008 2.011 0.016l-0.101-0.001zM178 654.125c0.426-0.008 0.928-0.008 1.431-0.008 67.988 0 123.103 55.114 123.103 123.103s-55.114 123.103-123.103 123.103c-67.985 0-123.098-55.11-123.103-123.094v0c-0.001-0.142-0.001-0.312-0.001-0.481 0-67.389 54.36-122.082 121.622-122.622h0.051zM955.742 670.825c-27.887-29.4-67.237-47.692-110.857-47.692-32.818 0-63.218 10.351-88.111 27.973l0.476-0.32c-2.606-38.329-13.431-73.615-30.716-104.827l0.654 1.287c59.219-35.969 99.784-97.563 106.338-168.998l0.064-0.864h128.828c33.996 0 61.551 27.559 61.551 61.551v0 122.149c-0.3 47.781-27.669 89.099-67.533 109.42l-0.7 0.324zM293.946 547.246c-16.749 29.292-27.594 63.956-30.022 100.918l-0.038 0.713c-23.822-16.108-53.19-25.714-84.8-25.714-43.606 0-82.943 18.28-110.766 47.595l-0.064 0.067c-40.563-20.644-67.932-61.962-68.231-109.702v-122.189c0-33.996 27.559-61.551 61.551-61.551v0h125.966c6.7 72.275 47.239 133.838 105.428 169.31l0.976 0.552z" />
<glyph unicode="&#xe942;" glyph-name="pencil" data-tags="pencil" d="M932.382 758.475l-109.909 109.909c-13.082 16.081-32.87 26.271-55.039 26.271-16.555 0-31.787-5.685-43.843-15.207l0.149 0.114-44.087-44.087 219.816-219.816 47.193 44.087c8.703 11.626 13.935 26.289 13.935 42.175 0 23.035-11.004 43.502-28.042 56.428l-0.175 0.128zM87.271 242.466l-22.354-241.548 241.548 22.354 548.919 548.919-219.195 219.195zM133.22 215.144l43.466 46.571 149.028-149.028-44.087-43.466-80.102-7.451 6.83 80.102-82.586-4.348 7.451 80.102z" />
<glyph unicode="&#xe943;" glyph-name="cloud-download" data-tags="cloud-download" d="M832.723 567.309c0 3.207 0 5.773 0 8.98-0.359 70.58-57.658 127.658-128.288 127.658-31.917 0-61.111-11.656-83.56-30.943l0.17 0.143c-39.416 94.148-130.792 159.089-237.336 159.089-141.483 0-256.219-114.515-256.578-255.914v-0.035c-0.302-5.078-0.475-11.018-0.475-16.999s0.173-11.919 0.513-17.814l-0.038 0.815c-77.604-45.102-128.949-127.846-128.949-222.583 0-141.705 114.874-256.58 256.58-256.58 0.232 0 0.463 0 0.695 0.002h513.122c140.376 1.736 253.504 115.937 253.504 256.56 0 117.791-79.375 217.043-187.554 247.188l-1.804 0.43zM699.944 340.879l-172.549-171.267c-3.554-4.223-8.843-6.889-14.753-6.889s-11.199 2.666-14.729 6.858l-0.024 0.029-173.191 171.267c-3.259 3.53-5.257 8.267-5.257 13.47 0 10.982 8.903 19.885 19.885 19.885 0.045 0 0.089 0 0.134 0h125.075v184.095c0.347 12.965 10.767 23.385 23.701 23.733h47.5c12.965-0.347 23.385-10.767 23.733-23.701v-184.128h125.082c0.038 0 0.083 0 0.126 0 10.982 0 19.885-8.903 19.885-19.885 0-5.203-1.998-9.94-5.271-13.484l0.012 0.014z" />
<glyph unicode="&#xe944;" glyph-name="cloud-upload" data-tags="cloud-upload" d="M832.723 567.309c0 3.207 0 5.773 0 8.98-0.359 70.58-57.658 127.658-128.288 127.658-31.917 0-61.111-11.656-83.56-30.943l0.17 0.143c-39.416 94.148-130.792 159.089-237.336 159.089-141.483 0-256.219-114.515-256.578-255.914v-0.035c-0.302-5.078-0.475-11.018-0.475-16.999s0.173-11.919 0.513-17.814l-0.038 0.815c-77.604-45.102-128.949-127.846-128.949-222.583 0-141.705 114.874-256.58 256.58-256.58 0.232 0 0.463 0 0.695 0.002h513.122c140.376 1.736 253.504 115.937 253.504 256.56 0 117.791-79.375 217.043-187.554 247.188l-1.804 0.43zM685.191 394.76h-125.724v-184.095c-0.347-12.965-10.767-23.385-23.701-23.733h-47.5c-12.965 0.347-23.385 10.767-23.733 23.701v184.128h-125.082c-0.038 0-0.083 0-0.126 0-10.982 0-19.885 8.903-19.885 19.885 0 5.203 1.998 9.94 5.271 13.484l-0.012-0.014 172.549 171.267c3.554 4.223 8.843 6.889 14.753 6.889s11.199-2.666 14.729-6.858l0.024-0.029 172.549-171.267c3.259-3.53 5.257-8.267 5.257-13.47 0-10.982-8.903-19.885-19.885-19.885-0.045 0-0.089 0-0.134 0h0.008z" />
<glyph unicode="&#xe945;" glyph-name="cloud" data-tags="cloud" d="M832.723 567.309c0 3.207 0 5.773 0 8.98-0.359 70.58-57.658 127.658-128.288 127.658-31.917 0-61.111-11.656-83.56-30.943l0.17 0.143c-39.416 94.148-130.792 159.089-237.336 159.089-141.483 0-256.219-114.515-256.578-255.914v-0.035c-0.302-5.078-0.475-11.018-0.475-16.999s0.173-11.919 0.513-17.814l-0.038 0.815c-77.604-45.102-128.949-127.846-128.949-222.583 0-141.705 114.874-256.58 256.58-256.58 0.232 0 0.463 0 0.695 0.002h513.122c140.376 1.736 253.504 115.937 253.504 256.56 0 117.791-79.375 217.043-187.554 247.188l-1.804 0.43z" />
<glyph unicode="&#xe946;" glyph-name="align-right" data-tags="align-right" d="M352.005 895.982h639.973c17.673 0 31.997-14.327 31.997-31.997v-63.999c0-17.673-14.327-31.997-31.997-31.997h-639.973c-17.673 0-31.997 14.327-31.997 31.997v63.999c0 17.673 14.327 31.997 31.997 31.997zM32.021 639.992h959.958c17.673 0 31.997-14.327 31.997-31.997v-63.999c0-17.673-14.327-31.997-31.997-31.997h-959.958c-17.673 0-31.997 14.327-31.997 31.997v63.999c0 17.673 14.327 31.997 31.997 31.997zM352.005 384.001h639.973c17.673 0 31.997-14.327 31.997-31.997v-63.999c0-17.673-14.327-31.997-31.997-31.997h-639.973c-17.673 0-31.997 14.327-31.997 31.997v63.999c0 17.673 14.327 31.997 31.997 31.997zM32.021 128.015h959.958c17.673 0 31.997-14.327 31.997-31.997v-63.999c0-17.673-14.327-31.997-31.997-31.997h-959.958c-17.673 0-31.997 14.327-31.997 31.997v63.999c0 17.673 14.327 31.997 31.997 31.997z" />
<glyph unicode="&#xe947;" glyph-name="align-left" data-tags="align-left" d="M32.016 895.988h639.978c17.672 0 31.999-14.326 31.999-31.999v-63.998c0-17.672-14.326-31.999-31.999-31.999h-639.978c-17.672 0-31.999 14.326-31.999 31.999v63.998c0 17.672 14.326 31.999 31.999 31.999zM32.016 639.994h959.967c17.672 0 31.999-14.326 31.999-31.999v-63.998c0-17.672-14.326-31.999-31.999-31.999h-959.967c-17.672 0-31.999 14.326-31.999 31.999v63.998c0 17.672 14.326 31.999 31.999 31.999zM32.016 384.002h639.978c17.672 0 31.999-14.326 31.999-31.999v-63.998c0-17.672-14.326-31.999-31.999-31.999h-639.978c-17.672 0-31.999 14.326-31.999 31.999v63.998c0 17.672 14.326 31.999 31.999 31.999zM32.016 128.010h959.967c17.672 0 31.999-14.326 31.999-31.999v-63.998c0-17.672-14.326-31.999-31.999-31.999h-959.967c-17.672 0-31.999 14.326-31.999 31.999v63.998c0 17.672 14.326 31.999 31.999 31.999z" />
<glyph unicode="&#xe948;" glyph-name="align-center" data-tags="align-center" d="M224.012 895.983h575.975c17.672 0 31.998-14.326 31.998-31.998v-63.998c0-17.672-14.326-31.998-31.998-31.998h-575.975c-17.672 0-31.998 14.326-31.998 31.998v63.998c0 17.672 14.326 31.998 31.998 31.998zM32.021 639.992h959.958c17.672 0 31.998-14.326 31.998-31.998v-63.998c0-17.672-14.326-31.998-31.998-31.998h-959.958c-17.672 0-31.998 14.326-31.998 31.998v63.998c0 17.672 14.326 31.998 31.998 31.998zM224.012 384.002h575.975c17.672 0 31.998-14.326 31.998-31.998v-63.998c0-17.672-14.326-31.998-31.998-31.998h-575.975c-17.672 0-31.998 14.326-31.998 31.998v63.998c0 17.672 14.326 31.998 31.998 31.998zM32.021 128.014h959.958c17.672 0 31.998-14.326 31.998-31.998v-63.998c0-17.672-14.326-31.998-31.998-31.998h-959.958c-17.672 0-31.998 14.326-31.998 31.998v63.998c0 17.672 14.326 31.998 31.998 31.998z" />
<glyph unicode="&#xe949;" glyph-name="align-justify" data-tags="align-justify" d="M32.021 895.983h959.958c17.672 0 31.998-14.326 31.998-31.998v-63.998c0-17.672-14.326-31.998-31.998-31.998h-959.958c-17.672 0-31.998 14.326-31.998 31.998v63.998c0 17.672 14.326 31.998 31.998 31.998zM32.021 639.992h959.958c17.672 0 31.998-14.326 31.998-31.998v-63.998c0-17.672-14.326-31.998-31.998-31.998h-959.958c-17.672 0-31.998 14.326-31.998 31.998v63.998c0 17.672 14.326 31.998 31.998 31.998zM32.021 384.002h959.958c17.672 0 31.998-14.326 31.998-31.998v-63.998c0-17.672-14.326-31.998-31.998-31.998h-959.958c-17.672 0-31.998 14.326-31.998 31.998v63.998c0 17.672 14.326 31.998 31.998 31.998zM32.021 128.014h959.958c17.672 0 31.998-14.326 31.998-31.998v-63.998c0-17.672-14.326-31.998-31.998-31.998h-959.958c-17.672 0-31.998 14.326-31.998 31.998v63.998c0 17.672 14.326 31.998 31.998 31.998z" />
<glyph unicode="&#xe94a;" glyph-name="cog" data-tags="cog" d="M991.268 537.982l-127.634 21.060c-7.329 23.35-15.986 43.418-26.41 62.379l0.882-1.753 75.943 104.023c2.399 5.709 3.792 12.346 3.792 19.308 0 15.478-6.889 29.346-17.765 38.709l-0.067 0.057-54.245 54.245c-9.419 10.944-23.286 17.83-38.766 17.83-6.961 0-13.598-1.394-19.645-3.917l0.338 0.124-104.023-73.39c-17.206 9.54-37.276 18.198-58.229 24.869l-2.395 0.658-21.060 127.634c-8.956 17.295-26.716 28.909-47.189 28.909-1.585 0-3.154-0.070-4.704-0.206l0.201 0.015h-76.583c-0.995 0.066-2.155 0.105-3.325 0.105-21.434 0-39.896-12.73-48.232-31.044l-0.137-0.332-21.060-127.634c-23.35-7.329-43.418-15.986-62.379-26.41l1.753 0.882-104.023 75.943c-5.709 2.399-12.346 3.792-19.308 3.792-15.478 0-29.346-6.889-38.709-17.765l-0.057-0.067-54.245-54.245c-10.944-9.419-17.83-23.286-17.83-38.766 0-6.961 1.394-13.598 3.917-19.645l-0.124 0.338 73.39-104.023c-9.54-17.206-18.198-37.276-24.869-58.229l-0.658-2.395-127.634-21.060c-17.295-8.956-28.909-26.716-28.909-47.189 0-1.585 0.070-3.154 0.206-4.704l-0.015 0.201v-76.583c-0.066-0.995-0.105-2.155-0.105-3.325 0-21.434 12.73-39.896 31.044-48.232l0.332-0.137 127.634-21.060c7.329-23.35 15.986-43.418 26.41-62.379l-0.882 1.753-75.943-104.023c-2.399-5.709-3.792-12.346-3.792-19.308 0-15.478 6.889-29.346 17.765-38.709l0.067-0.057 54.245-54.245c9.419-10.944 23.286-17.83 38.766-17.83 6.961 0 13.598 1.394 19.645 3.917l-0.338-0.124 104.023 73.39c17.206-9.54 37.276-18.198 58.229-24.869l2.395-0.658 21.060-127.634c8.473-18.644 26.933-31.376 48.367-31.376 1.17 0 2.33 0.037 3.482 0.112l-0.157-0.009h76.583c0.995-0.066 2.155-0.105 3.325-0.105 21.434 0 39.896 12.73 48.232 31.044l0.137 0.332 21.060 127.634c23.35 7.329 43.418 15.986 62.379 26.41l-1.753-0.882 104.023-73.39c5.709-2.399 12.346-3.792 19.308-3.792 15.478 0 29.346 6.889 38.709 17.765l0.057 0.067 54.245 54.245c10.944 9.419 17.83 23.286 17.83 38.766 0 6.961-1.394 13.598-3.917 19.645l0.124-0.338-73.39 104.023c9.54 17.206 18.198 37.276 24.869 58.229l0.658 2.395 127.634 21.060c17.295 8.956 28.909 26.716 28.909 47.189 0 1.585-0.070 3.154-0.206 4.704l0.015-0.201v76.583c0.066 0.995 0.105 2.155 0.105 3.325 0 21.434-12.73 39.896-31.044 48.232l-0.332 0.137zM512 262.292c-102.566 0-185.708 83.144-185.708 185.708s83.144 185.708 185.708 185.708c102.566 0 185.708-83.144 185.708-185.708v0c-0.362-102.418-83.29-185.347-185.674-185.708h-0.034z" />
<glyph unicode="&#xe94b;" glyph-name="print" data-tags="print" d="M895.986 703.99h-127.993v191.991c0 35.345-28.653 63.998-63.998 63.998v0h-511.979c-35.345 0-63.998-28.653-63.998-63.998v0-191.991c-70.69 0-127.993-57.305-127.993-127.993v0-351.987c0.351-17.529 14.471-31.647 31.965-31.998h96.029v-191.991c0-35.345 28.653-63.998 63.998-63.998v0h511.979c35.345 0 63.998 28.653 63.998 63.998v0 191.991h223.991c17.529 0.351 31.647 14.471 31.998 31.965v352.020c0 70.69-57.305 127.993-127.993 127.993v0zM224.011 863.983h383.986v-31.998c0.351-17.529 14.471-31.647 31.965-31.998h32.032v-223.991h-447.984v287.989zM671.994 32.017h-447.984v255.99h447.984v-255.99zM895.986 527.996c-26.508 0-47.998 21.49-47.998 47.998s21.49 47.998 47.998 47.998c26.508 0 47.998-21.49 47.998-47.998v0c-0.355-26.364-21.634-47.642-47.963-47.998h-0.034z" />
<glyph unicode="&#xe94c;" glyph-name="filter" data-tags="filter" d="M876.489 894.54h-728.98c-23.166-0.343-41.813-19.202-41.813-42.417 0-10.452 3.781-20.023 10.048-27.417l-0.050 0.062 284.671-282.995v-354.442c-0.036-0.539-0.058-1.169-0.058-1.804 0-6.73 2.335-12.914 6.24-17.787l-0.043 0.056 172.476-167.453c5.582-5.582 44.653 0 44.653 55.819v485.613l284.671 283.554c6.319 7.29 10.17 16.871 10.17 27.351 0 23.119-18.743 41.863-41.863 41.863-0.043 0-0.087 0-0.13 0h0.007z" />
<glyph unicode="&#xe94d;" glyph-name="replay" data-tags="replay" d="M979.14 910.019l-103.026-103.667c-92.82 93.733-221.538 151.771-363.812 151.771-282.733 0-511.933-229.2-511.933-511.933s229.2-511.933 511.933-511.933c232.080 0 428.091 154.432 490.874 366.138l0.921 3.622c1.296 4.81 2.040 10.334 2.040 16.030 0 35.341-28.651 63.992-63.992 63.992-0.717 0-1.432-0.012-2.145-0.034l0.103 0.003c-0.049 0-0.106 0-0.165 0-28.013 0-51.821-18.001-60.492-43.065l-0.135-0.45c-47.856-161.379-194.805-277.089-368.779-277.089-22.082 0-43.728 1.864-64.79 5.443l2.266-0.318c-163.731 37.146-289.237 166.946-319.562 330.185l-0.397 2.572c-1.648 13.359-2.589 28.823-2.589 44.507 0 212.050 171.9 383.95 383.95 383.95 107.233 0 204.198-43.961 273.858-114.842l0.054-0.055-19.198-19.198-115.185-119.665c-4.649-4.825-7.513-11.397-7.513-18.638 0-14.109 10.872-25.68 24.696-26.79l0.094-0.006h329.557c0.106-0.001 0.232-0.003 0.358-0.003 15.55 0 28.156 12.606 28.156 28.156 0 1.582-0.13 3.135-0.381 4.646l0.022-0.163v329.557c-1.387 13.665-12.832 24.238-26.746 24.238-6.958 0-13.297-2.643-18.070-6.98l0.022 0.019z" />
<glyph unicode="&#xe94e;" glyph-name="bookmark" data-tags="bookmark" d="M791.973 0.043l-279.973 192.061-279.973-192.061v832.081c-0.065 1.051-0.103 2.281-0.103 3.519 0 31.859 24.636 57.963 55.895 60.303l0.203 0.011h447.957c31.462-2.352 56.098-28.457 56.098-60.315 0-1.238-0.036-2.468-0.11-3.687l0.007 0.168z" />
<glyph unicode="&#xe94f;" glyph-name="globe" data-tags="globe" d="M512 959.977c-282.757 0-511.977-229.22-511.977-511.977s229.22-511.977 511.977-511.977c282.757 0 511.977 229.22 511.977 511.977v0c0 282.757-229.22 511.977-511.977 511.977v0zM891.503 617.593v-3.199l-17.92 19.199v17.279l-17.279 14.719-5.76 6.4h-18.559l5.76-17.92 24.318-12.799 3.84-4.48h-5.119v-14.080l-11.52-5.119h-9.6l-7.68 8.32h16.639l3.84 5.76-35.199 24.318-4.48 9.6-14.080-13.439-14.719 3.199-22.399-28.799-4.48-11.52h-35.838l-12.799 5.76-4.48 23.679 4.48 12.16 21.119 4.48 23.679-4.48 3.199 12.799h-10.24l3.199 19.84 23.679 3.84 16.639 23.679h32.639c26.753-28.644 49.781-61.275 67.994-96.785l1.123-2.41zM811.507 735.988h-3.84l-4.48 10.879zM796.148 751.347h-6.4v6.4zM749.429 725.108l-10.24 6.4-7.039 4.48v7.039l4.48 7.039h14.719l3.84-17.92 8.32-12.799 5.119-6.4 9.6-3.84-10.24-8.32h-30.719v15.359h10.879zM737.271 725.108v-9.6l-19.199-13.439h-10.24v12.799l8.959 14.719h12.16zM304.649 808.304v0-7.68h30.719l-3.84 9.6h-25.599c11.576 7.053 25.437 14.323 39.754 20.761l2.484 0.999h19.84l16 5.119 9.6-4.48-17.279-16h-23.039c0.298-2.401 0.469-5.181 0.469-7.999s-0.171-5.598-0.501-8.328l0.033 0.328h30.719v7.68h19.199v11.52h-11.52l8.959 12.16h39.039l-16.639-15.359v-11.52h17.279v21.119l18.559 5.76 29.439 3.84 42.879-19.199v-16l14.080-3.84-7.039-12.799h-19.84l-6.4-12.16-44.158 10.24 35.199 18.559-13.439 11.52-30.078-3.84-11.52-12.16h-14.080v-7.039h-6.4v-6.4h-11.52v13.439l-19.84-5.76-40.959-24.318 4.48-16.639 11.52-7.68h23.039v-37.758h10.24l9.6 20.479 24.318 7.68v35.838l9.6 7.039 32.639-7.039v-21.119h8.32l23.039 12.16v-26.879l17.279-10.879v-17.279l-17.279-4.48v-5.119l20.479-8.959v-11.52h-5.76l-25.599 7.68v8.32l10.879 5.119v8.959h-7.68v-7.039h-24.318l-3.84 7.039h-14.719l-4.48-3.84v-8.32h16.639l-7.68-8.959-3.84 4.48h-7.039l-20.479-19.199-30.078-16.639-28.158-29.439v-12.799l-28.158-19.199-13.439-14.080v-27.519l-19.199 8.959v12.16h-53.758l-27.519-14.080-12.16-22.399-5.119-17.279 8.32-17.279h21.76l35.199 23.039 3.199-11.52-10.879-20.479 26.238-4.48 3.199-40.959 36.478-6.4 23.039 26.879 28.158-5.76 9.6-13.439h26.879v8.32l14.719-7.68 16.639-26.238h28.799l10.879-18.559v-23.039l31.998-12.16h44.799l11.52-19.84 17.92-5.119v-16l-19.84-24.959-5.76-55.037-17.279-14.080h-31.359l-8.959-15.359 6.4-28.158-28.799-36.478-8.959-17.279-26.879-12.799h-17.92v-7.68l12.16-3.84v-7.68l-11.52-10.879 7.039-8.959h13.439v-10.879l-3.84-10.24v-8.32l18.559-15.359c-16 0-31.359 0-46.718 5.76l-8.959 8.32-21.119 37.119v35.838l-16 21.119 6.4 35.838h-8.959v74.877s-26.879 19.84-28.158 19.84l-14.080 3.84v14.719l-34.559 43.518 3.84 15.359v25.599l23.679 16.639-3.199 28.158-35.199 3.199-30.078 33.918-19.199 5.76h-12.16v11.52h-16v-6.4l-39.678 9.6-15.359 30.719 7.039 11.52-25.599 37.119-4.48 26.879h-10.24l3.84-26.238 17.279-26.879v-10.879h-14.719l-17.92 30.719v30.719c33.809 95.286 98.183 172.71 181.12 222.29l1.912 1.059zM496.641 675.83v-5.76h-6.4v-5.76h-12.799v5.76h12.799v6.4h5.119zM461.442 664.951v-6.4h-13.439v6.4l3.84 5.119zM851.185 205.45l-5.76 8.32v36.478l-13.439 13.439v14.719l17.279 32.639-31.998 56.318 3.199 38.398-28.799 3.199-10.24 10.879h-19.84l-9.6-9.6h-53.758l-43.518 49.918v38.398h7.039v14.719h-10.24l-4.48 16 50.558 36.478v25.599l24.959 14.080h30.078l15.359 7.039 51.197 4.48v-26.238l40.959-10.24 7.68-5.76h7.68v14.080h23.039l4.48-3.84c15.505-40.672 24.63-87.698 24.959-136.814v-0.139c-0.121-91.135-29.622-175.356-79.536-243.726l0.819 1.177z" />
<glyph unicode="&#xe950;" glyph-name="ellipsis-v" data-tags="ellipsis-v" d="M639.994 831.983c0-70.689-57.305-127.994-127.994-127.994s-127.994 57.305-127.994 127.994c0 70.689 57.305 127.994 127.994 127.994s127.994-57.305 127.994-127.994zM639.994 448c0-70.689-57.305-127.994-127.994-127.994s-127.994 57.305-127.994 127.994c0 70.689 57.305 127.994 127.994 127.994s127.994-57.305 127.994-127.994zM639.994 64.017c0-70.689-57.305-127.994-127.994-127.994s-127.994 57.305-127.994 127.994c0 70.689 57.305 127.994 127.994 127.994s127.994-57.305 127.994-127.994z" />
<glyph unicode="&#xe951;" glyph-name="ellipsis-h" data-tags="ellipsis-h" d="M256.011 448c0-70.689-57.305-127.994-127.994-127.994s-127.994 57.305-127.994 127.994c0 70.689 57.305 127.994 127.994 127.994s127.994-57.305 127.994-127.994zM639.994 448c0-70.689-57.305-127.994-127.994-127.994s-127.994 57.305-127.994 127.994c0 70.689 57.305 127.994 127.994 127.994s127.994-57.305 127.994-127.994zM1023.977 448c0-70.689-57.305-127.994-127.994-127.994s-127.994 57.305-127.994 127.994c0 70.689 57.305 127.994 127.994 127.994s127.994-57.305 127.994-127.994z" />
<glyph unicode="&#xe952;" glyph-name="calendar-times" data-tags="calendar-times" d="M906.69 839.307h-83.449v63.151c0 31.14-25.245 56.385-56.385 56.385v0h-24.246c-31.14 0-56.385-25.245-56.385-56.385v0-63.151h-347.327v59.768c0 31.14-25.245 56.385-56.385 56.385v0h-24.246c-31.14 0-56.385-25.245-56.385-56.385v0-62.022h-84.576c-31.14 0-56.385-25.245-56.385-56.385v0-789.379c0-31.14 25.245-56.385 56.385-56.385v0h789.379c31.14 0 56.385 25.245 56.385 56.385v0 789.379c0.029 0.673 0.045 1.462 0.045 2.256 0 31.14-25.245 56.385-56.385 56.385-0.016 0-0.032 0-0.048 0h0.003zM878.497 78.12c0-31.14-25.245-56.385-56.385-56.385v0h-620.226c-31.14 0-56.385 25.245-56.385 56.385v0 473.063c0 31.14 25.245 56.385 56.385 56.385v0h620.226c31.14 0 56.385-25.245 56.385-56.385v0zM726.824 477.32l-50.182 50.182c-6.453 6.582-15.437 10.662-25.373 10.662s-18.92-4.079-25.368-10.657l-112.773-112.773-112.768 112.768c-6.453 6.582-15.437 10.662-25.373 10.662s-18.92-4.079-25.368-10.657l-50.187-50.187c-6.582-6.453-10.662-15.437-10.662-25.373s4.079-18.92 10.657-25.368l112.773-112.773-112.768-112.768c-6.582-6.453-10.662-15.437-10.662-25.373s4.079-18.92 10.657-25.368l50.187-50.187c6.453-6.582 15.437-10.662 25.373-10.662s18.92 4.079 25.368 10.657l112.773 112.773 112.768-112.768c6.453-6.582 15.437-10.662 25.373-10.662s18.92 4.079 25.368 10.657l50.187 50.187c6.582 6.453 10.662 15.437 10.662 25.373s-4.079 18.92-10.657 25.368l-112.773 112.773 112.768 112.768c6.582 6.453 10.662 15.437 10.662 25.373s-4.079 18.92-10.657 25.368l-0.005 0.005z" />
<glyph unicode="&#xe953;" glyph-name="calendar-minus" data-tags="calendar-minus" d="M906.69 839.307h-83.449v63.151c0 31.14-25.245 56.385-56.385 56.385v0h-24.246c-31.14 0-56.385-25.245-56.385-56.385v0-63.151h-347.327v59.768c0 31.14-25.245 56.385-56.385 56.385v0h-24.246c-31.14 0-56.385-25.245-56.385-56.385v0-62.022h-84.576c-31.14 0-56.385-25.245-56.385-56.385v0-789.379c0-31.14 25.245-56.385 56.385-56.385v0h789.379c31.14 0 56.385 25.245 56.385 56.385v0 789.379c0.029 0.673 0.045 1.462 0.045 2.256 0 31.14-25.245 56.385-56.385 56.385-0.016 0-0.032 0-0.048 0h0.003zM878.497 78.12c0-31.14-25.245-56.385-56.385-56.385v0h-620.226c-31.14 0-56.385 25.245-56.385 56.385v0 473.063c0 31.14 25.245 56.385 56.385 56.385v0h620.226c31.14 0 56.385-25.245 56.385-56.385v0zM314.656 372.446h394.69c15.57 0 28.192-12.622 28.192-28.192v-63.151c0-15.57-12.622-28.192-28.192-28.192h-394.69c-15.57 0-28.192 12.622-28.192 28.192v63.151c0 15.57 12.622 28.192 28.192 28.192z" />
<glyph unicode="&#xe954;" glyph-name="calendar-plus" data-tags="calendar-plus" d="M906.69 839.307h-83.449v63.151c0 31.14-25.245 56.385-56.385 56.385v0h-24.246c-31.14 0-56.385-25.245-56.385-56.385v0-63.151h-347.327v59.768c0 31.14-25.245 56.385-56.385 56.385v0h-24.246c-31.14 0-56.385-25.245-56.385-56.385v0-62.022h-84.576c-31.14 0-56.385-25.245-56.385-56.385v0-789.379c0-31.14 25.245-56.385 56.385-56.385v0h789.379c31.14 0 56.385 25.245 56.385 56.385v0 789.379c0.029 0.673 0.045 1.462 0.045 2.256 0 31.14-25.245 56.385-56.385 56.385-0.016 0-0.032 0-0.048 0h0.003zM878.497 78.12c0-31.14-25.245-56.385-56.385-56.385v0h-620.226c-31.14 0-56.385 25.245-56.385 56.385v0 473.063c0 31.14 25.245 56.385 56.385 56.385v0h620.226c31.14 0 56.385-25.245 56.385-56.385v0zM707.090 373.009h-134.758v134.758c0 16.816-13.631 30.447-30.447 30.447v0h-59.768c-16.816 0-30.447-13.631-30.447-30.447v0-134.758h-134.758c-16.816 0-30.447-13.631-30.447-30.447v0-59.768c0-16.816 13.631-30.447 30.447-30.447v0h134.758v-134.758c0-16.816 13.631-30.447 30.447-30.447v0h59.768c16.816 0 30.447 13.631 30.447 30.447v0 134.758h134.758c16.816 0 30.447 13.631 30.447 30.447v0 59.768c0 16.816-13.631 30.447-30.447 30.447v0z" />
<glyph unicode="&#xe955;" glyph-name="clone" data-tags="clone" d="M955.509 959.986h-682.222c-37.819 0-68.478-30.66-68.478-68.478v0-136.316h-136.316c-37.819 0-68.478-30.66-68.478-68.478v0-682.222c0-37.819 30.66-68.478 68.478-68.478v0h682.222c37.819 0 68.478 30.66 68.478 68.478v0 136.316h136.316c37.819 0 68.478 30.66 68.478 68.478v0 682.222c0 37.819-30.66 68.478-68.478 68.478v0zM682.875 72.33h-546.545v546.545h68.478v-409.589c0-37.819 30.66-68.478 68.478-68.478v0h409.589zM887.67 277.125h-546.545v546.545h546.545z" />
<glyph unicode="&#xe956;" glyph-name="download" data-tags="download" d="M486.276 236.067c6.384-7.213 15.664-11.737 26.002-11.737s19.618 4.524 25.971 11.701l0.032 0.036 300.845 295.253c4.905 5.865 7.882 13.49 7.882 21.808 0 18.839-15.272 34.111-34.111 34.111-0.019 0-0.037 0-0.056 0h-189.004v276.24c0 15.441-12.517 27.959-27.959 27.959v0h-167.757c-15.441 0-27.959-12.517-27.959-27.959v0-275.681h-189.006c-0.016 0-0.035 0-0.053 0-18.839 0-34.111-15.272-34.111-34.111 0-8.318 2.978-15.942 7.927-21.861l-0.043 0.053zM903.434 284.716h-243.807l-106.246-102.892c-11.456-8.395-25.829-13.431-41.379-13.431s-29.923 5.037-41.579 13.57l0.198-0.139-106.246 102.892h-243.807c-30.883 0-55.919-25.036-55.919-55.919v0-167.757c0-30.883 25.036-55.919 55.919-55.919v0h782.866c30.883 0 55.919 25.036 55.919 55.919v0 167.757c0 30.883-25.036 55.919-55.919 55.919v0zM847.515 98.506c-23.163 0-41.94 18.777-41.94 41.94s18.777 41.94 41.94 41.94c23.163 0 41.94-18.777 41.94-41.94v0c-0.311-23.037-18.903-41.628-41.909-41.94h-0.030z" />
<glyph unicode="&#xe957;" glyph-name="copy" data-tags="copy" d="M728.709 707.827h119.274c25.759 0 23.519 21.278 23.519 47.038v7.839l-135.513 133.274h-7.839c-25.759 0-46.477 0-46.477-22.958v-118.155c0-25.978 21.060-47.038 47.038-47.038v0zM256.092 142.255v603.092h-55.998c-25.668 0-46.477-20.809-46.477-46.477v0-652.37c0-25.668 20.809-46.477 46.477-46.477v0h465.899c25.668 0 46.477 20.809 46.477 46.477v0 49.278h-409.341c-0.001 0-0.003 0-0.004 0-25.781 0-46.719 20.741-47.033 46.448v0.030zM679.992 663.029c-25.668 0-46.477 20.809-46.477 46.477v0 186.471h-279.986c-25.668 0-46.477-20.809-46.477-46.477v0-652.37c0-25.668 20.809-46.477 46.477-46.477h465.899c25.668 0 46.477 20.809 46.477 46.477v0 465.899z" />
<glyph unicode="&#xe958;" glyph-name="file" data-tags="file" d="M623.988 615.983c-30.925 0-55.995 25.070-55.995 55.995v0 223.979h-335.969c-30.925 0-55.995-25.070-55.995-55.995v0-783.925c0-30.925 25.070-55.995 55.995-55.995v0h559.947c30.925 0 55.995 25.070 55.995 55.995v0 559.947zM679.983 671.979h139.987c30.797 0 27.997 25.198 27.997 55.995v9.519l-158.465 158.465h-9.519c-30.797 0-55.995 0-55.995-27.997v-139.987c0-30.925 25.070-55.995 55.995-55.995v0z" />
<glyph unicode="&#xe959;" glyph-name="question-circle" data-tags="question-circle" d="M512 959.977c-282.757 0-511.977-229.22-511.977-511.977s229.22-511.977 511.977-511.977c282.757 0 511.977 229.22 511.977 511.977v0c0 282.757-229.22 511.977-511.977 511.977v0zM551.678 159.372c0.040-0.403 0.064-0.871 0.064-1.344 0-7.776-6.304-14.080-14.080-14.080-0.474 0-0.942 0.024-1.402 0.069l0.058-0.004h-71.677c-0.429-0.048-0.925-0.076-1.429-0.076-7.422 0-13.439 6.018-13.439 13.439 0 0.705 0.054 1.396 0.159 2.071l-0.009-0.075v69.757c-0.094 0.6-0.148 1.291-0.148 1.996 0 7.422 6.018 13.439 13.439 13.439 0.504 0 1-0.027 1.489-0.081l-0.060 0.006h71.677c0.403 0.040 0.871 0.064 1.344 0.064 7.776 0 14.080-6.304 14.080-14.080 0-0.474-0.024-0.942-0.069-1.402l0.004 0.058zM664.314 492.799c0.012-0.283 0.019-0.615 0.019-0.948 0-7.407-3.495-13.997-8.926-18.212l-0.052-0.039-95.996-92.796c-4.759-4.018-7.762-9.988-7.762-16.66 0-0.669 0.030-1.33 0.088-1.983l-0.006 0.084v-33.279c0.040-0.403 0.064-0.871 0.064-1.344 0-7.776-6.304-14.080-14.080-14.080-0.474 0-0.942 0.024-1.402 0.069l0.058-0.004h-71.677c-0.429-0.048-0.925-0.076-1.429-0.076-7.422 0-13.439 6.018-13.439 13.439 0 0.705 0.054 1.396 0.159 2.071l-0.009-0.075v63.998c-0.016 0.345-0.027 0.75-0.027 1.158 0 6.771 2.695 12.911 7.072 17.407l-0.006-0.006 103.676 102.396v107.515c0.088 0.828 0.139 1.789 0.139 2.763 0 15.199-12.32 27.519-27.519 27.519-1.177 0-2.337-0.073-3.474-0.217l0.135 0.013h-35.838c-1.224 0.196-2.634 0.31-4.069 0.31-14.845 0-26.879-12.034-26.879-26.879 0-1.237 0.084-2.455 0.246-3.649l-0.015 0.139v-59.517c0.055-0.409 0.085-0.885 0.085-1.366 0-6.009-4.87-10.879-10.879-10.879-0.481 0-0.955 0.031-1.42 0.091l0.055-0.006h-78.717c-8.959 0-12.799 4.48-12.799 12.16v78.076c-0.499 3.717-0.786 8.016-0.786 12.379 0 54.077 43.839 97.916 97.916 97.916 4.564 0 9.057-0.312 13.456-0.916l-0.51 0.057h84.476c3.666 0.483 7.906 0.759 12.209 0.759 54.431 0 98.556-44.125 98.556-98.556 0-4.102-0.25-8.145-0.736-12.115l0.048 0.477z" />
<glyph unicode="&#xe95a;" glyph-name="question" data-tags="question" d="M574.63 895.357c5.178 0.656 11.169 1.029 17.248 1.029 79.988 0 144.833-64.844 144.833-144.833 0-6.079-0.374-12.070-1.1-17.952l0.071 0.704v-220.324c0.048-0.659 0.074-1.427 0.074-2.202 0-10.392-4.804-19.661-12.313-25.708l-0.063-0.049-142.035-136.445c-6.929-6.45-11.249-15.625-11.249-25.809 0-0.756 0.023-1.508 0.071-2.253l-0.006 0.103v-49.21c0.090-0.714 0.142-1.54 0.142-2.377 0-11.118-9.013-20.131-20.131-20.131-0.837 0-1.664 0.050-2.474 0.15l0.097-0.008h-105.129c-0.714-0.090-1.54-0.142-2.377-0.142-11.118 0-20.131 9.013-20.131 20.131 0 0.837 0.050 1.664 0.15 2.474l-0.008-0.097v98.418c-0.016 0.392-0.024 0.853-0.024 1.314 0 10.087 4.307 19.17 11.185 25.504l0.023 0.021 152.101 150.983v154.339c0.133 1.236 0.208 2.671 0.208 4.123 0 22.546-18.277 40.822-40.822 40.822-1.452 0-2.886-0.077-4.3-0.224l0.176 0.014h-55.921c-1.622 0.234-3.496 0.37-5.402 0.37-21.929 0-39.703-17.775-39.703-39.703 0-1.906 0.133-3.778 0.393-5.612l-0.024 0.211v-87.235c0.062-0.532 0.097-1.15 0.097-1.774 0-8.956-7.26-16.217-16.217-16.217-0.624 0-1.242 0.035-1.849 0.105l0.075-0.007h-114.077c-0.532-0.062-1.15-0.097-1.774-0.097-8.956 0-16.217 7.26-16.217 16.217 0 0.624 0.035 1.242 0.105 1.849l-0.007-0.075v118.549c-0.708 5.372-1.113 11.584-1.113 17.89 0 79.68 64.592 144.274 144.274 144.274 6.306 0 12.518-0.405 18.61-1.189l-0.721 0.077zM420.293 125.901c-0.090 0.714-0.142 1.54-0.142 2.377 0 11.118 9.013 20.131 20.131 20.131 0.837 0 1.664-0.050 2.474-0.15l-0.097 0.008h105.129c0.714 0.090 1.54 0.142 2.377 0.142 11.118 0 20.131-9.013 20.131-20.131 0-0.837-0.050-1.664-0.15-2.474l0.008 0.097v-102.892c0.090-0.714 0.142-1.54 0.142-2.377 0-11.118-9.013-20.131-20.131-20.131-0.837 0-1.664 0.050-2.474 0.15l0.097-0.008h-105.129c-0.714-0.090-1.54-0.142-2.377-0.142-11.118 0-20.131 9.013-20.131 20.131 0 0.837 0.050 1.664 0.15 2.474l-0.008-0.097z" />
<glyph unicode="&#xe95b;" glyph-name="save" data-tags="save" d="M940.943 615.991l-260.949 260.949c-11.781 11.708-27.993 18.965-45.903 19.040h-495.593c-41.004-0.315-74.163-33.47-74.477-74.446v-747.039c0.315-41.004 33.47-74.163 74.446-74.477h747.039c41.004 0.315 74.163 33.47 74.477 74.446v495.609c-0.075 17.923-7.33 34.138-19.044 45.922l0.005-0.005zM512 112.014c-61.854 0-111.993 50.141-111.993 111.993s50.141 111.993 111.993 111.993c61.854 0 111.993-50.141 111.993-111.993v0c0-61.854-50.141-111.993-111.993-111.993v0zM623.993 615.991c0-30.927-25.071-55.998-55.998-55.998v0h-335.986c-30.927 0-55.998 25.071-55.998 55.998v0 111.993c0 30.927 25.071 55.998 55.998 55.998v0h335.986c30.927 0 55.998-25.071 55.998-55.998v0z" />
<glyph unicode="&#xe95c;" glyph-name="power-off" data-tags="power-off" d="M958.895 695.069c-45.679 81.756-110.713 147.813-189.11 193.42l-2.417 1.297c-8.33 4.731-18.3 7.519-28.92 7.519-21.933 0-41.088-11.893-51.368-29.58l-0.153-0.284c-5.807-8.891-9.262-19.777-9.262-31.47 0-20.070 10.178-37.765 25.656-48.202l0.206-0.132c120.868-68.49 201.102-196.248 201.102-342.747 0-216.843-175.785-392.629-392.629-392.629s-392.629 175.785-392.629 392.629c0 146.497 80.235 274.256 199.156 341.731l1.947 1.017c18.033 10.333 29.986 29.467 29.986 51.393 0 32.604-26.431 59.033-59.033 59.033-10.678 0-20.694-2.835-29.336-7.793l0.287 0.153c-156.255-89.339-259.858-255.007-259.858-444.873 0-282.072 228.664-510.736 510.736-510.736s510.736 228.664 510.736 510.736c0 91.657-24.144 177.675-66.419 252.041l1.321-2.524zM512 357.983c33.141 0 60.012 26.868 60.012 60.012v0 480.731c0 33.141-26.868 60.012-60.012 60.012s-60.012-26.868-60.012-60.012v0-480.731c0-33.141 26.868-60.012 60.012-60.012v0z" />
<glyph unicode="&#xe95d;" glyph-name="tags" data-tags="tags" d="M928.324 452.055l-309.991 311.343c-8.166 8.232-19.484 13.327-31.99 13.327s-23.824-5.097-31.988-13.326l-0.004-0.004-31.541-31.99 279.352-279.352c7.834-8.096 12.66-19.141 12.66-31.314s-4.826-23.218-12.672-31.327l0.012 0.013-223.031-223.031 31.99-31.99c8.166-8.232 19.484-13.327 31.99-13.327s23.824 5.097 31.988 13.326l0.004 0.004 254.571 255.021c7.437 8.013 11.999 18.78 11.999 30.616 0 12.518-5.105 23.845-13.347 32.011l-0.004 0.004zM737.284 444.396l-323.958 325.76c-7.575 7.535-18.019 12.194-29.551 12.194-0.541 0-1.081-0.011-1.616-0.030l0.078 0.003-250.516-4.506c-24.884 0-45.057-20.174-45.057-45.057v0l-4.506-250.516c-0.014-0.405-0.022-0.882-0.022-1.36 0-11.587 4.653-22.087 12.192-29.734l-0.005 0.005 327.563-325.309c8.096-7.834 19.141-12.66 31.314-12.66s23.218 4.826 31.327 12.672l-0.013-0.012 252.769 256.372c7.703 8.070 12.444 19.026 12.444 31.090s-4.741 23.019-12.46 31.107l0.016-0.017zM275.452 589.028c-12.373-13.251-29.944-21.512-49.446-21.512-37.326 0-67.585 30.259-67.585 67.585 0 19.502 8.26 37.073 21.472 49.41l0.039 0.037c12.037 11.239 28.249 18.139 46.075 18.139 37.326 0 67.585-30.259 67.585-67.585 0-17.824-6.9-34.038-18.176-46.113l0.037 0.039z" />
<glyph unicode="&#xe95e;" glyph-name="tag" data-tags="tag" d="M466.137 895.759l-335.517-6.035c-33.327 0-60.344-27.018-60.344-60.344v0l-6.035-335.517c-0.019-0.543-0.030-1.182-0.030-1.822 0-15.518 6.232-29.581 16.329-39.823l-0.007 0.007 436.292-435.688c10.808-10.318 25.482-16.666 41.638-16.666s30.83 6.349 41.662 16.689l-0.023-0.022 341.55 341.55c10.318 10.808 16.666 25.482 16.666 41.638s-6.349 30.83-16.689 41.662l0.022-0.023-433.878 438.102c-10.236 10.091-24.298 16.323-39.817 16.323-0.64 0-1.279-0.011-1.915-0.032l0.091 0.003zM323.12 636.88c-16.442-16.213-39.035-26.227-63.966-26.227s-47.524 10.012-63.976 26.236l0.009-0.009c-15.053 16.12-24.295 37.834-24.295 61.707 0 49.991 40.526 90.517 90.517 90.517 23.873 0 45.587-9.241 61.759-24.342l-0.052 0.049c16.213-16.442 26.227-39.035 26.227-63.966s-10.012-47.524-26.236-63.976l0.009 0.009z" />
<glyph unicode="&#xe95f;" glyph-name="lock" data-tags="lock" d="M847.985 503.998h-55.998v111.994c0 154.633-125.355 279.986-279.986 279.986s-279.986-125.355-279.986-279.986v0-111.994h-55.998c-30.926 0-55.998-25.071-55.998-55.998v0-391.983c0-30.926 25.071-55.998 55.998-55.998v0h671.969c30.926 0 55.998 25.071 55.998 55.998v0 391.983c0 30.926-25.071 55.998-55.998 55.998v0zM344.008 615.992c0 92.779 75.213 167.992 167.992 167.992s167.992-75.213 167.992-167.992v0-111.994h-335.985z" />
<glyph unicode="&#xe960;" glyph-name="unlock" data-tags="unlock" d="M847.985 448h-503.977v167.992c0 92.779 75.213 167.992 167.992 167.992s167.992-75.213 167.992-167.992v0c0-30.926 25.071-55.998 55.998-55.998s55.998 25.071 55.998 55.998v0c0 154.633-125.355 279.986-279.986 279.986s-279.986-125.355-279.986-279.986v0-167.992h-55.998c-30.926 0-55.998-25.071-55.998-55.998v0-335.985c0-30.926 25.071-55.998 55.998-55.998v0h671.969c30.926 0 55.998 25.071 55.998 55.998v0 335.985c0 30.926-25.071 55.998-55.998 55.998v0z" />
<glyph unicode="&#xe961;" glyph-name="inbox" data-tags="inbox" d="M1015.661 458.879l-247.672 325.106s-28.799 47.998-63.999 47.998h-383.985c-35.199 0-63.999-47.998-63.999-47.998l-247.672-325.106c-4.986-6.514-8.074-14.713-8.319-23.622l-0.001-0.054v-323.186c0-26.237 28.799-47.998 63.999-47.998h895.964c35.199 0 63.999 21.761 63.999 47.998v323.186c-0.245 8.966-3.334 17.166-8.393 23.778l0.072-0.1zM639.995 479.997l-63.999-95.996h-127.995l-63.999 95.996h-191.992l175.993 255.989h287.989l175.993-255.989z" />
<glyph unicode="&#xe962;" glyph-name="video" data-tags="video" d="M140.356 745.315h495.528c27.369 0 49.554-22.185 49.554-49.554v-495.528c0-27.369-22.185-49.554-49.554-49.554h-495.528c-27.369 0-49.554 22.185-49.554 49.554v495.528c0 27.369 22.185 49.554 49.554 49.554zM893.555 646.208l-158.568-99.106v-198.208l158.568-99.106c22.586 2.95 39.848 22.072 39.848 45.227 0 1.524-0.074 3.030-0.219 4.515l0.014-0.19v297.315c0.131 1.296 0.206 2.802 0.206 4.327 0 23.155-17.261 42.277-39.617 45.2l-0.228 0.023z" />
<glyph unicode="&#xe963;" glyph-name="folder" data-tags="folder" d="M885.354 127.983h-746.707c-1.008-0.073-2.186-0.114-3.373-0.114-26.228 0-47.752 20.138-49.952 45.796l-0.013 0.185v549.364c2.166 25.294 23.231 45.003 48.9 45.003 1.561 0 3.107-0.073 4.63-0.215l-0.195 0.015h320.017l106.672-91.205h320.017c1.008 0.073 2.186 0.114 3.373 0.114 26.228 0 47.752-20.138 49.952-45.796l0.013-0.185v-457.092c-2.213-25.844-23.737-45.982-49.964-45.982-1.186 0-2.364 0.041-3.53 0.123l0.157-0.008z" />
<glyph unicode="&#xe964;" glyph-name="folder-open" data-tags="folder-open" d="M285.363 496.739h616.55v118.436c-2.022 23.617-21.69 42.019-45.657 42.019-1.084 0-2.161-0.038-3.225-0.112l0.143 0.008h-292.434l-97.478 83.344h-292.434c-1.214 0.116-2.627 0.184-4.053 0.184-23.456 0-42.707-18.011-44.674-40.957l-0.012-0.167v-502.013c-0.105-0.805-0.164-1.736-0.164-2.681s0.059-1.876 0.176-2.79l-0.012 0.108 114.537 272.938c8.164 18.787 26.561 31.685 47.968 31.685 0.27 0 0.542-0.003 0.812-0.005h-0.041zM915.56 423.631h-577.070c-0.358 0.012-0.777 0.017-1.198 0.017-16.328 0-30.448-9.444-37.198-23.169l-0.108-0.243-89.193-187.645c-1.695-4.403-2.675-9.499-2.675-14.824 0-23.418 18.984-42.402 42.402-42.402 1.458 0 2.896 0.073 4.317 0.217l-0.178-0.014h573.172c0.328-0.008 0.714-0.013 1.102-0.013 18.343 0 34.32 10.134 42.638 25.108l0.127 0.249 87.731 185.696c1.695 4.403 2.675 9.499 2.675 14.824 0 23.418-18.984 42.402-42.402 42.402-1.458 0-2.896-0.073-4.317-0.217l0.178 0.014z" />
<glyph unicode="&#xe965;" glyph-name="eye-slash" data-tags="eye-slash" d="M653.433 374.403c-7.939-14.435-17.296-26.852-28.164-37.764l0.006 0.006-5.76-5.119c-9.277-8.824-19.793-16.481-31.226-22.657l-0.774-0.382c-21.652-12.775-47.686-20.366-75.484-20.479h-0.033c-88.361 0-159.994 71.631-159.994 159.994v0c0.112 27.831 7.704 53.864 20.866 76.227l-0.387-0.709c6.558 12.206 14.215 22.721 23.097 32.060l-0.058-0.061 5.119 5.76c10.906 10.863 23.322 20.221 36.906 27.726l0.852 0.432-220.79 220.79c-8.548 7.981-20.063 12.881-32.721 12.881-26.508 0-47.998-21.49-47.998-47.998 0-12.659 4.9-24.173 12.908-32.75l-0.025 0.028 76.156-76.156c-87.071-61.875-161.606-133.968-224.095-215.754l-1.816-2.476s229.111-319.986 511.977-319.986c73.668 1.36 142.65 20.144 203.399 52.382l-2.448-1.185 93.435-93.435c8.787-9.411 21.266-15.277 35.116-15.277 26.508 0 47.998 21.49 47.998 47.998 0 13.85-5.866 26.33-15.248 35.089l-0.028 0.025zM512 767.986c-29.415-0.303-57.858-3.784-85.21-10.117l2.653 0.517 458.22-458.22c49.774 44.749 94.481 93.11 134.447 145.294l1.867 2.539s-229.111 319.986-511.977 319.986z" />
<glyph unicode="&#xe966;" glyph-name="eye" data-tags="eye" d="M512 767.986c-282.868 0-511.977-319.986-511.977-319.986s229.111-319.986 511.977-319.986 511.977 319.986 511.977 319.986-229.111 319.986-511.977 319.986zM512 288.006c-88.361 0-159.994 71.631-159.994 159.994s71.631 159.994 159.994 159.994c88.361 0 159.994-71.631 159.994-159.994v0c0-88.361-71.631-159.994-159.994-159.994v0z" />
<glyph unicode="&#xe967;" glyph-name="list" data-tags="list" d="M64.038 543.992h63.995c35.343 0 63.995-28.652 63.995-63.995v-63.995c0-35.343-28.652-63.995-63.995-63.995h-63.995c-35.343 0-63.995 28.652-63.995 63.995v63.995c0 35.343 28.652 63.995 63.995 63.995zM320.017 543.992h639.945c35.343 0 63.995-28.652 63.995-63.995v-63.995c0-35.343-28.652-63.995-63.995-63.995h-639.945c-35.343 0-63.995 28.652-63.995 63.995v63.995c0 35.343 28.652 63.995 63.995 63.995zM64.038 895.962h63.995c35.343 0 63.995-28.652 63.995-63.995v-63.995c0-35.343-28.652-63.995-63.995-63.995h-63.995c-35.343 0-63.995 28.652-63.995 63.995v63.995c0 35.343 28.652 63.995 63.995 63.995zM320.017 895.962h639.945c35.343 0 63.995-28.652 63.995-63.995v-63.995c0-35.343-28.652-63.995-63.995-63.995h-639.945c-35.343 0-63.995 28.652-63.995 63.995v63.995c0 35.343 28.652 63.995 63.995 63.995zM64.038 192.022h63.995c35.343 0 63.995-28.652 63.995-63.995v-63.995c0-35.343-28.652-63.995-63.995-63.995h-63.995c-35.343 0-63.995 28.652-63.995 63.995v63.995c0 35.343 28.652 63.995 63.995 63.995zM320.017 192.022h639.945c35.343 0 63.995-28.652 63.995-63.995v-63.995c0-35.343-28.652-63.995-63.995-63.995h-639.945c-35.343 0-63.995 28.652-63.995 63.995v63.995c0 35.343 28.652 63.995 63.995 63.995z" />
<glyph unicode="&#xe968;" glyph-name="map-marker" data-tags="map-marker" d="M927.297 545.755c0-161.007-182.731-352.044-392.934-598.667-5.521-6.141-13.492-9.987-22.362-9.987s-16.839 3.845-22.338 9.959l-0.023 0.027c-210.843 245.345-392.934 437.020-392.934 598.667 0 229.362 185.934 415.297 415.297 415.297s415.297-185.934 415.297-415.297v0z" />
<glyph unicode="&#xe969;" glyph-name="table" data-tags="table" d="M959.981 831.983h-895.961c-35.344 0-63.998-28.653-63.998-63.998v0-639.973c0-35.344 28.653-63.998 63.998-63.998v0h895.961c35.344 0 63.998 28.653 63.998 63.998v0 639.973c0 35.344-28.653 63.998-63.998 63.998v0zM448.002 192.011c0-17.672-14.326-31.998-31.998-31.998v0h-255.989c-17.672 0-31.998 14.326-31.998 31.998v0 127.994c0 17.672 14.326 31.998 31.998 31.998v0h255.989c17.672 0 31.998-14.326 31.998-31.998v0zM448.002 511.998c0-17.672-14.326-31.998-31.998-31.998v0h-255.989c-17.672 0-31.998 14.326-31.998 31.998v0 127.994c0 17.672 14.326 31.998 31.998 31.998v0h255.989c17.672 0 31.998-14.326 31.998-31.998v0zM895.983 192.011c0-17.672-14.326-31.998-31.998-31.998v0h-255.989c-17.672 0-31.998 14.326-31.998 31.998v0 127.994c0 17.672 14.326 31.998 31.998 31.998v0h255.989c17.672 0 31.998-14.326 31.998-31.998v0zM895.983 511.998c0-17.672-14.326-31.998-31.998-31.998v0h-255.989c-17.672 0-31.998 14.326-31.998 31.998v0 127.994c0 17.672 14.326 31.998 31.998 31.998v0h255.989c17.672 0 31.998-14.326 31.998-31.998v0z" />
<glyph unicode="&#xe96a;" glyph-name="lock-open" data-tags="lock-open" d="M737.642 906.151c-158.145 0-286.344-128.201-286.344-286.344v0-171.807h-394.012c-31.63 0-57.269-25.64-57.269-57.269v0-343.613c0-31.63 25.64-57.269 57.269-57.269v0h687.228c31.63 0 57.269 25.64 57.269 57.269v0 343.613c0 31.63-25.64 57.269-57.269 57.269v0h-178.68v171.807c0 94.887 76.923 171.807 171.807 171.807s171.807-76.923 171.807-171.807v0-171.807c0-31.63 25.64-57.269 57.269-57.269s57.269 25.64 57.269 57.269v0 171.807c0 158.145-128.201 286.344-286.344 286.344v0z" />
<glyph unicode="&#xe96b;" glyph-name="dollar" data-tags="dollar" d="M591.421 560.182c-9.927 0-15.883 4.963-15.883 13.403v65.025c0 21.84-12.905 33.257-39.711 33.257h-49.638c-24.818 0-39.711-11.417-39.711-33.257v-115.16l236.276-65.522c16.877-5.957 25.812-14.891 25.812-30.776v-193.092c0-75.946-46.66-118.138-135.015-120.62v-99.276c0-8.438-5.957-13.403-15.883-13.403h-95.304c-10.921 0-15.883 4.963-15.883 13.403v99.276c-83.391 2.482-133.030 44.674-133.030 120.62v87.859c0 8.935 5.957 13.403 15.883 13.403h103.247c10.921 0 15.883-4.468 15.883-13.403v-64.53c0-22.337 14.891-33.257 39.711-33.257h49.638c25.812 0 39.711 10.921 39.711 33.257v111.189l-237.27 65.025c-15.242 2.261-26.805 15.255-26.805 30.952 0 0.113 0.001 0.226 0.003 0.338v-0.018 198.552c0 75.946 49.638 118.138 134.023 120.62v99.276c0 8.438 4.963 13.403 15.883 13.403h98.284c9.927 0 15.883-4.963 15.883-13.403v-99.276c88.356 0 135.015-44.674 135.015-120.62v-89.844c0-8.438-4.963-13.403-15.883-13.403z" />
<glyph unicode="&#xe96c;" glyph-name="camera" data-tags="camera" d="M959.989 697.593h-127.996l-45.439 134.396c-11.605 17.527-31.239 28.928-53.534 28.928-1.429 0-2.848-0.044-4.255-0.139l0.19 0.010h-433.268c-1.153 0.073-2.5 0.117-3.858 0.117-22.020 0-41.443-11.121-52.958-28.052l-0.142-0.222-46.719-135.037h-127.996c-1.675 0.169-3.62 0.267-5.589 0.267-29.904 0-54.602-22.294-58.378-51.167l-0.031-0.297v-563.185c3.808-29.172 28.505-51.465 58.41-51.465 1.968 0 3.913 0.096 5.832 0.285l-0.243-0.018h895.976c1.675-0.169 3.62-0.267 5.589-0.267 29.904 0 54.602 22.294 58.378 51.167l0.031 0.297v563.185c-3.808 29.172-28.505 51.465-58.41 51.465-1.968 0-3.913-0.096-5.832-0.285l0.243 0.018zM512 192.007c-106.035 0-191.996 85.96-191.996 191.996s85.96 191.996 191.996 191.996c106.035 0 191.996-85.96 191.996-191.996v0c0-106.035-85.96-191.996-191.996-191.996v0zM639.996 384.001c0-70.69-57.306-127.996-127.996-127.996s-127.996 57.306-127.996 127.996c0 70.69 57.306 127.996 127.996 127.996s127.996-57.306 127.996-127.996z" />
<glyph unicode="&#xe96d;" glyph-name="chart-bar" data-tags="chart-bar" d="M991.979 192.011h-863.963v607.973c0 17.672-14.326 31.998-31.998 31.998v0h-63.998c-17.672 0-31.998-14.326-31.998-31.998v0-703.969c0-17.672 14.326-31.998 31.998-31.998v0h959.958c17.672 0 31.998 14.326 31.998 31.998v0 63.998c0 17.672-14.326 31.998-31.998 31.998v0zM286.729 575.994h63.998c17.672 0 31.998-14.326 31.998-31.998v-191.992c0-17.672-14.326-31.998-31.998-31.998h-63.998c-17.672 0-31.998 14.326-31.998 31.998v191.992c0 17.672 14.326 31.998 31.998 31.998zM480.002 703.989h63.998c17.672 0 31.998-14.326 31.998-31.998v-319.986c0-17.672-14.326-31.998-31.998-31.998h-63.998c-17.672 0-31.998 14.326-31.998 31.998v319.986c0 17.672 14.326 31.998 31.998 31.998zM671.994 639.992h63.998c17.672 0 31.998-14.326 31.998-31.998v-255.989c0-17.672-14.326-31.998-31.998-31.998h-63.998c-17.672 0-31.998 14.326-31.998 31.998v255.989c0 17.672 14.326 31.998 31.998 31.998zM863.985 767.986h63.998c17.672 0 31.998-14.326 31.998-31.998v-383.983c0-17.672-14.326-31.998-31.998-31.998h-63.998c-17.672 0-31.998 14.326-31.998 31.998v383.983c0 17.672 14.326 31.998 31.998 31.998z" />
<glyph unicode="&#xe96e;" glyph-name="sitemap" data-tags="sitemap" d="M448.005 320.012h127.988c35.343 0 63.995-28.652 63.995-63.995v-127.988c0-35.343-28.652-63.995-63.995-63.995h-127.988c-35.343 0-63.995 28.652-63.995 63.995v127.988c0 35.343 28.652 63.995 63.995 63.995zM64.038 320.012h127.988c35.343 0 63.995-28.652 63.995-63.995v-127.988c0-35.343-28.652-63.995-63.995-63.995h-127.988c-35.343 0-63.995 28.652-63.995 63.995v127.988c0 35.343 28.652 63.995 63.995 63.995zM831.972 320.012h127.988c35.343 0 63.995-28.652 63.995-63.995v-127.988c0-35.343-28.652-63.995-63.995-63.995h-127.988c-35.343 0-63.995 28.652-63.995 63.995v127.988c0 35.343 28.652 63.995 63.995 63.995zM160.030 416.003c0 17.671 14.325 31.997 31.997 31.997v0h287.975v-63.995h63.995v63.995h287.975c17.671 0 31.997-14.325 31.997-31.997v0-31.997h63.995v31.997c0 53.014-42.977 95.992-95.992 95.992v0h-287.975v63.995h47.996c35.343 0 63.995 28.652 63.995 63.995v0 127.988c0 35.343-28.652 63.995-63.995 63.995v0h-159.987c-35.343 0-63.995-28.652-63.995-63.995v0-127.988c0-35.343 28.652-63.995 63.995-63.995v0h47.996v-63.995h-287.975c-53.014 0-95.992-42.977-95.992-95.992v0-31.997h63.995z" />
<glyph unicode="&#xe96f;" glyph-name="wifi" data-tags="wifi" d="M1016.904 567.787c-122.223 144.389-302.509 236.353-504.355 239.568l-0.549 0.007c-202.395-3.219-382.681-95.186-504.089-238.587l-0.813-0.985c-4.667-5.255-7.518-12.216-7.518-19.842 0-9.378 4.309-17.746 11.056-23.238l0.055-0.044 46.118-38.332c5.092-4.13 11.65-6.631 18.792-6.631 8.968 0 17.018 3.943 22.505 10.19l0.029 0.034c100.257 118.479 247.886 194.181 413.278 197.639l0.588 0.010c165.722-2.987 313.332-78.051 413.221-195.080l0.643-0.772c5.517-6.281 13.566-10.224 22.534-10.224 7.142 0 13.701 2.5 18.848 6.674l-0.056-0.044 46.118 38.332c6.281 5.517 10.224 13.566 10.224 22.534 0 7.142-2.5 13.701-6.674 18.848l0.044-0.056zM631.787 208.424c0-66.156-53.631-119.787-119.787-119.787s-119.787 53.631-119.787 119.787c0 66.156 53.631 119.787 119.787 119.787s119.787-53.631 119.787-119.787zM512 567.787c-129.249-1.366-244.988-58.073-324.845-147.508l-0.378-0.431c-4.667-5.255-7.518-12.216-7.518-19.842 0-9.378 4.309-17.746 11.056-23.238l0.055-0.044 46.716-38.931c4.92-4.061 11.291-6.523 18.235-6.523 8.752 0 16.588 3.909 21.861 10.078l0.032 0.040c58.355 64.231 141.656 104.898 234.477 106.605l0.305 0.004c93.127-1.713 176.428-42.379 234.544-106.345l0.239-0.267c5.307-6.207 13.144-10.116 21.894-10.116 6.945 0 13.314 2.462 18.284 6.563l-0.049-0.040 46.716 38.931c6.801 5.533 11.111 13.904 11.111 23.281 0 7.625-2.851 14.587-7.543 19.873l0.027-0.031c-80.235 89.864-195.973 146.57-324.981 147.933l-0.242 0.001z" />
<glyph unicode="&#xe970;" glyph-name="sign-in" data-tags="sign-in" d="M754.235 478.039l-339.383 343.858c-6.639 5.195-15.107 8.33-24.308 8.33-21.444 0-38.909-17.032-39.605-38.306l-0.001-0.064v-216.029h-319.57c-17.649 0-31.957-14.307-31.957-31.957v0-191.742c0-17.649 14.307-31.957 31.957-31.957v0h319.57v-216.029c0.698-21.337 18.163-38.371 39.607-38.371 9.201 0 17.669 3.135 24.395 8.396l-0.087-0.066 339.383 344.496c8.245 7.297 13.416 17.904 13.416 29.72s-5.171 22.423-13.374 29.684l-0.042 0.036zM605.314 767.57h162.341c18.018-0.036 35.15-3.794 50.678-10.546l-0.825 0.319c8.39-3.576 15.53-7.426 22.269-11.836l-0.539 0.331c13.44-9.656 24.858-21.074 34.214-34.075l0.3-0.439c13.492-20.148 21.587-44.907 21.731-71.547v-383.521c-0.144-26.678-8.237-51.435-22.029-72.059l0.3 0.475c-9.656-13.44-21.074-24.858-34.075-34.214l-0.439-0.3c-6.2-4.079-13.341-7.929-20.814-11.152l-0.917-0.352c-14.703-6.432-31.835-10.191-49.839-10.227h-162.355c-16.094-0.349-29.050-13.305-29.399-29.368v-69.060c0.349-16.094 13.305-29.050 29.368-29.399h132.975c157.432 0 285.056 127.624 285.056 285.056v0 324.684c0 157.432-127.624 285.056-285.056 285.056v0h-132.942c-16.094-0.349-29.050-13.305-29.399-29.368v-69.060c0.349-16.094 13.305-29.050 29.368-29.399h0.033z" />
<glyph unicode="&#xe971;" glyph-name="sign-out" data-tags="sign-out" d="M1010.538 478.078l-339.825 344.306c-6.648 5.202-15.127 8.341-24.339 8.341-21.472 0-38.959-17.054-39.657-38.356l-0.001-0.064v-216.31h-319.986c-17.672 0-31.998-14.326-31.998-31.998v0-191.992c0-17.672 14.326-31.998 31.998-31.998v0h319.986v-216.31c0.699-21.365 18.187-38.421 39.658-38.421 9.213 0 17.692 3.139 24.426 8.407l-0.087-0.066 339.825 344.945c8.256 7.306 13.433 17.927 13.433 29.759s-5.178 22.453-13.391 29.723l-0.042 0.036zM418.565 128.014h-162.552c-18.041 0.036-35.196 3.799-50.744 10.56l0.826-0.319c-8.401 3.58-15.55 7.435-22.298 11.851l0.54-0.331c-13.457 9.669-24.89 21.101-34.259 34.119l-0.3 0.439c-13.51 20.174-21.616 44.965-21.76 71.64v384.021c0.144 26.712 8.248 51.502 22.058 72.153l-0.3-0.475c9.669 13.457 21.101 24.89 34.119 34.259l0.439 0.3c6.208 4.084 13.358 7.939 20.842 11.167l0.918 0.352c14.722 6.441 31.877 10.204 49.904 10.24h162.566c16.115 0.349 29.088 13.322 29.438 29.406v69.15c-0.349 16.115-13.322 29.088-29.406 29.438h-133.148c-157.637 0-285.427-127.79-285.427-285.427v0-325.106c0-157.637 127.79-285.427 285.427-285.427v0h133.115c16.115 0.349 29.088 13.322 29.438 29.406v69.15c-0.349 16.115-13.322 29.088-29.406 29.438h-0.033z" />
<glyph unicode="&#xe972;" glyph-name="image" data-tags="image" d="M959.981 831.983h-895.961c-35.344 0-63.998-28.653-63.998-63.998v0-639.973c0-35.344 28.653-63.998 63.998-63.998v0h895.961c35.344 0 63.998 28.653 63.998 63.998v0 639.973c0 35.344-28.653 63.998-63.998 63.998v0zM256.011 703.989c70.689 0 127.994-57.305 127.994-127.994s-57.305-127.994-127.994-127.994c-70.689 0-127.994 57.305-127.994 127.994v0c0 70.689 57.305 127.994 127.994 127.994v0zM895.983 320.006v-127.994h-767.967v127.994l109.435 55.037c5.418 2.71 11.803 4.296 18.559 4.296s13.141-1.585 18.805-4.407l-0.244 0.111 109.435-55.037 302.706 241.91c4.971 3.606 11.193 5.767 17.92 5.767s12.949-2.163 18.008-5.83l-0.090 0.061 173.433-113.916z" />
</font>
</defs>
</svg>
