<svg xmlns="http://www.w3.org/2000/svg" height="100" width="100" viewBox="0 0 100 100" fill="#fff"><path d="M43.1 47c.4-4.2 1.6-8.3 3.6-11.8 3.3-5.7 8.6-9 15.8-9.2a9 9 0 1 1 0 6c-8.1.3-12.5 6.6-13.4 15h13.4a9 9 0 1 1 0 6H49.1c.7 9 4.9 15.1 13.4 15a9 9 0 1 1 0 6c-7.4.1-12.8-3.3-16.1-9.1-1.9-3.5-3-7.6-3.3-11.9h-5.6a9 9 0 1 1 0-6zM71 32c1.7 0 3-1.3 3-3s-1.3-3-3-3-3 1.3-3 3 1.3 3 3 3zm0 42c1.7 0 3-1.3 3-3s-1.3-3-3-3-3 1.3-3 3 1.3 3 3 3zm0-21c1.7 0 3-1.3 3-3s-1.3-3-3-3-3 1.3-3 3 1.3 3 3 3zm-42 0c1.7 0 3-1.3 3-3s-1.3-3-3-3-3 1.3-3 3 1.3 3 3 3z"/></svg>