<?xml version="1.0" encoding="utf-8"?>
<!-- Generator: Adobe Illustrator 16.0.0, SVG Export Plug-In . SVG Version: 6.00 Build 0)  -->
<!DOCTYPE svg PUBLIC "-//W3C//DTD SVG 1.1//EN" "http://www.w3.org/Graphics/SVG/1.1/DTD/svg11.dtd">
<svg version="1.1" id="Layer_1" xmlns="http://www.w3.org/2000/svg" xmlns:xlink="http://www.w3.org/1999/xlink" x="0px" y="0px"
	 width="56px" height="64px" viewBox="0 0 56 64" enable-background="new 0 0 56 64" xml:space="preserve">
<path fill="#277A84" d="M5.112,0.011c-2.802,0-5.073,2.273-5.073,5.074v53.841C0.039,61.729,2.311,64,5.112,64h45.775
	c2.801,0,5.074-2.271,5.074-5.074V20.321L37.057,0.011H5.112z"/>
<path fill="#1E5B60" d="M55.96,20.377v1H43.161c0,0-6.312-1.26-6.129-6.707c0,0,0.208,5.707,6.004,5.707H55.96z"/>
<path opacity="0.5" fill="#FFFFFF" enable-background="new    " d="M37.059,0.025v14.561c0,1.656,1.104,5.791,6.104,5.791h12.799
	L37.059,0.025z"/>
<path fill="#FFFFFF" d="M27.094,39.334l2.105-2.104c0,0-18.439,0-18.704,0c0,0-0.361,0.016-0.362,0.401s0,1.159,0,1.347
	c0,0.187,0.182,0.355,0.375,0.355C10.701,39.334,27.094,39.334,27.094,39.334z"/>
<path fill="#FFFFFF" d="M19.768,46.602l2.104-2.104c0,0-11.113,0-11.377,0c0,0-0.361,0.016-0.362,0.401c-0.001,0.387,0,1.16,0,1.347
	s0.182,0.356,0.375,0.356C10.701,46.602,19.768,46.602,19.768,46.602z"/>
<path fill="#FFFFFF" d="M14.708,53.904l0.268-2.104c0,0-4.216,0-4.48,0c0,0-0.361,0.017-0.362,0.402s0,1.16,0,1.346
	c0,0.187,0.182,0.356,0.375,0.356C10.701,53.904,14.708,53.904,14.708,53.904z"/>
<path fill="#FFFFFF" d="M15.588,53.873c0,0,1.672-0.03,2.015-0.112c0.342-0.082,0.406-0.146,0.531-0.271
	s13.104-13.104,13.104-13.104s-0.494,0.42-1.592-0.682c-0.869-0.87-0.487-1.402-0.487-1.402s-12.75,12.729-12.99,12.988
	c-0.24,0.26-0.252,0.404-0.274,0.509C15.874,51.904,15.588,53.873,15.588,53.873z"/>
<path fill="#FFFFFF" d="M30.742,36.714c-0.201,0.201-0.96,0.938-1.059,1.058c-0.097,0.121-0.184,0.227-0.104,0.58
	c0.079,0.353,0.682,1.354,1.656,1.629c0,0,0.299,0.107,0.541-0.133c0.24-0.242,1.092-1.093,1.092-1.093s0.204-0.172,0.042-0.621
	c-0.163-0.448-0.81-1.247-1.582-1.539C30.941,36.447,30.742,36.714,30.742,36.714z"/>
</svg>
