<svg xmlns="http://www.w3.org/2000/svg" width="56" height="64" viewBox="0 0 56 64"><path d="M5.113-.026c-2.803 0-5.074 2.272-5.074 5.074v53.841c0 2.803 2.271 5.074 5.074 5.074h45.773c2.801 0 5.074-2.271 5.074-5.074v-38.605l-18.901-20.31h-31.946z" fill-rule="evenodd" clip-rule="evenodd" fill="#8199AF"/><g fill-rule="evenodd" clip-rule="evenodd"><path d="M55.977 20.352v1h-12.799s-6.312-1.26-6.129-6.707c0 0 .208 5.707 6.004 5.707h12.924z" fill="#617F9B"/><path d="M37.074 0v14.561c0 1.656 1.104 5.791 6.104 5.791h12.799l-18.903-20.352z" opacity=".5" fill="#fff"/></g><path d="M18.438 53.906h-7.581c-.378 0-.756-.342-.756-.828 0-.18.054-.36.162-.504l6.68-9.345h-6.212c-.36 0-.648-.288-.648-.684 0-.36.288-.648.648-.648h7.454c.378 0 .756.342.756.829 0 .18-.054.36-.162.504l-6.68 9.345h6.338c.36 0 .648.288.648.648.001.395-.287.683-.647.683zm4.012.108c-.414 0-.738-.324-.738-.738v-10.767c0-.396.324-.721.774-.721.396 0 .72.324.72.721v10.767c0 .413-.324.738-.756.738zm8.839-4.879h-3.331v4.141c0 .414-.324.738-.756.738-.414 0-.738-.324-.738-.738v-10.299c0-.594.486-1.081 1.081-1.081h3.745c2.413 0 3.763 1.657 3.763 3.619s-1.387 3.62-3.764 3.62zm-.18-5.906h-3.151v4.573h3.151c1.422 0 2.395-.936 2.395-2.287-.001-1.35-.973-2.286-2.395-2.286z" fill="#fff"/></svg>