<svg xmlns="http://www.w3.org/2000/svg" x="0px" y="0px"
	 width="100px" height="100px" viewBox="0 0 100 100" enable-background="new 0 0 100 100" xml:space="preserve">
<g>
	<path fill="#FFFFFF" d="M39,32h22c1.1,0,2-0.9,2-2v-4c0-3.3-2.7-6-6-6H43c-3.3,0-6,2.7-6,6v4C37,31.1,37.9,32,39,32z"/>
	<path fill="#FFFFFF" d="M72,25h-2c-0.6,0-1,0.4-1,1v4c0,4.4-3.6,8-8,8H39c-4.4,0-8-3.6-8-8v-4c0-0.6-0.4-1-1-1h-2c-3.3,0-6,2.7-6,6
		v43c0,3.3,2.7,6,6,6h44c3.3,0,6-2.7,6-6V31C78,27.7,75.3,25,72,25z M64.3,72.6l-1.3,1.3c-0.3,0.3-0.9,0.3-1.3,0l-8.1-8.1
		c-2.3,1.6-5.2,2.5-8.4,2.1c-5.2-0.7-9.4-5.1-9.9-10.3c-0.7-7.2,5.4-13.4,12.6-12.6c5.3,0.5,9.6,4.6,10.3,9.9
		c0.4,3.1-0.4,6.1-2.1,8.4l8.1,8.1C64.7,71.6,64.7,72.2,64.3,72.6z"/>
	<path fill="#FFFFFF" d="M46.9,48.5c-4.4,0-7.9,3.6-7.9,7.9c0,4.4,3.5,7.9,7.9,7.9c4.4,0,7.9-3.5,7.9-7.9
		C54.8,52,51.3,48.5,46.9,48.5z"/>
</g>
</svg>
