<svg width="24" height="24" viewBox="0 0 24 24" stroke-width="1.5" fill="none" xmlns="http://www.w3.org/2000/svg">
<path d="M9 12C9.00007 12.8416 9 15.107 9 16.3941C9 16.7255 9.26863 16.9943 9.59998 16.9962C12.5662 17.0136 15 17.072 15 14.5C15 11.7564 12 12 9 12ZM9 12L9.00003 7.60592C9.00003 7.27453 9.26867 7.00571 9.60005 7.00377C12.5662 6.98641 15 6.92799 15 9.5C15 12.2436 12 12 9 12Z" stroke="currentColor"/>
<path d="M12 7L12 5.5" stroke="currentColor" stroke-linecap="round" stroke-linejoin="round"/>
<path d="M12 18.5L12 17" stroke="currentColor" stroke-linecap="round" stroke-linejoin="round"/>
<path d="M12 22C6.47715 22 2 17.5228 2 12C2 6.47715 6.47715 2 12 2C17.5228 2 22 6.47715 22 12C22 17.5228 17.5228 22 12 22Z" stroke="currentColor" stroke-linecap="round" stroke-linejoin="round"/>
</svg>
