<svg xmlns="http://www.w3.org/2000/svg" viewBox="0 0 64 64" enable-background="new 0 0 64 64"><path fill="#1b75bb" d="M64.195,57.025c0,3.81-3.084,6.894-6.89,6.894H7.166c-3.803,0-6.887-3.084-6.887-6.894V6.889   C0.278,3.086,3.363,0,7.166,0h50.14c3.806,0,6.89,3.086,6.89,6.889V57.025z"/><path fill="#0867a3" d="m.278 48.67v8.355c0 3.81 3.084 6.894 6.887 6.894h50.14c3.806 0 6.89-3.084 6.89-6.894v-50.14c-10.914 39.647-50.15 42.16-63.917 41.781"/><g fill="#fff"><path d="m30.912 20.593c0 1.249-1.01 2.26-2.258 2.26h-22.429c-1.247 0-2.258-1.01-2.258-2.26l0 0c0-1.245 1.01-2.258 2.258-2.258h22.429c1.246 0 2.258 1.013 2.258 2.258l0 0"/><path d="m28.654 18.335c1.247 0 2.258 1.013 2.258 2.258v22.429c0 1.249-1.01 2.258-2.258 2.258l0 0c-1.249 0-2.258-1.01-2.258-2.258v-22.429c0-1.245 1.01-2.258 2.258-2.258l0 0"/><path d="m3.967 43.02c0-1.246 1.013-2.258 2.258-2.258h22.429c1.249 0 2.258 1.012 2.258 2.258l0 0c0 1.249-1.01 2.258-2.258 2.258h-22.429c-1.245 0-2.258-1.01-2.258-2.258l0 0"/><path d="m60.5 20.593c0 1.249-1.01 2.26-2.258 2.26h-22.429c-1.246 0-2.257-1.01-2.257-2.26l0 0c0-1.245 1.01-2.258 2.257-2.258h22.429c1.247 0 2.258 1.013 2.258 2.258l0 0"/><path d="m58.25 18.335c1.247 0 2.258 1.013 2.258 2.258v22.429c0 1.249-1.01 2.258-2.258 2.258l0 0c-1.246 0-2.26-1.01-2.26-2.258v-22.429c0-1.245 1.014-2.258 2.26-2.258l0 0"/><path d="m33.561 43.02c0-1.246 1.01-2.258 2.257-2.258h22.429c1.247 0 2.258 1.012 2.258 2.258l0 0c0 1.249-1.01 2.258-2.258 2.258h-22.43c-1.246 0-2.256-1.01-2.256-2.258l0 0"/></g></svg>