<svg xmlns="http://www.w3.org/2000/svg" viewBox="0 0 64 64" enable-background="new 0 0 64 64"><path fill="#f6921e" d="m64.03 57.16c0 3.817-3.091 6.902-6.903 6.902h-50.25c-3.811 0-6.905-3.085-6.905-6.902v-50.25c0-3.818 3.094-6.903 6.905-6.903h50.25c3.813 0 6.903 3.085 6.903 6.903v50.25"/><path fill="#d07929" d="m-.031 48.705v8.376c0 3.817 3.091 6.91 6.903 6.91h50.26c3.814 0 6.904-3.093 6.904-6.91v-50.25c-10.938 39.737-50.26 42.26-64.06 41.873"/><path fill="#fff" d="m55.01 12.912c-7.913.004-15.827.089-23.739-.004 1.058-1.314 2.125-2.621 3.233-3.876 1.866-2.094-1.298-5.152-3.175-3.042-1.945 2.196-3.789 4.557-5.721 6.813-3.696-.095-7.389-.232-11.08-.457-2.893-.181-2.873 4.117 0 4.293 2.141.13 4.278.229 6.417.317-.266.275-.438.651-.453 1.132-3.166 2.727-6.824 4.771-11.527 5.333-2.837.338-2.871 4.64 0 4.303 4.408-.525 8.253-1.917 11.748-4.213-.034 4.418-.525 8.827-.637 13.251-.156 5.911.687 11.842.714 17.758.016 2.778 4.504 2.778 4.492 0-.014-2.618-.163-5.247-.324-7.868 7.793.09 15.69.731 23.366-.834.289 1.751.563 3.562.188 5.253-.491 2.224-5.609 1.199-7.15 1.174-2.898-.044-2.892 4.256 0 4.293 2.91.044 5.683.449 8.424-.692 2.76-1.146 3.4-4.277 3.35-6.807-.077-3.424-.785-6.714-.727-10.175.077-4.715.313-9.434.33-14.15.005-1.298-.974-1.979-2.02-2.062-.186-.051-.374-.09-.593-.09-8.323-.189-16.629 1.417-24.938.742.008-1.108-.014-2.222-.083-3.345.928-.896 1.801-1.842 2.649-2.808 9.08.177 18.17.067 27.25.063 2.894-.002 2.894-4.304.002-4.304m-30.3 29.436c-.097-1.863-.162-3.721-.146-5.586.002-.422.013-.843.022-1.262 7.714 1.1 15.472.537 23.22-.242-.082 2.109-.106 4.207.016 6.281-.045.005-.08.005-.122.016-7.511 1.644-15.353.883-22.993.793m23.497-15.496c-.045 1.354-.116 2.72-.189 4.085-7.711.787-15.54 1.484-23.22.27.075-1.206.16-2.407.23-3.615 7.721.653 15.442-.681 23.18-.74"/></svg>