<svg xmlns="http://www.w3.org/2000/svg" viewBox="0 0 64 64" enable-background="new 0 0 64 64"><path fill="#ec1c24" d="m63.889 57.07c0 3.789-3.069 6.853-6.854 6.853h-49.89c-3.784 0-6.855-3.063-6.855-6.853v-49.889c0-3.79 3.071-6.853 6.855-6.853h49.89c3.784 0 6.854 3.063 6.854 6.853v49.889"/><path fill="#c32129" d="m.331 48.846l.023 8.315c.012 3.789 3.091 6.851 6.875 6.839l49.89-.148c3.788-.012 6.846-3.092 6.834-6.883l-.15-49.884c-10.74 39.481-49.774 42.1-63.47 41.761"/><g fill="#fff"><path d="m14.06 7.323c.033 3.403 1.137 6.423 3.911 8.494 2.32 1.731 5.506 2.12 8.306 2.297 4.056.26 8.156.09 12.216.09 5.01 0 10.01 0 15.02 0 2.507 0 2.507-3.887 0-3.887-8.613 0-17.257.205-25.869-.03-1.289-.033-2.657-.131-3.704-.311-.621-.105-1.23-.254-1.834-.438-.682-.207-.739-.234-1.364-.568-.953-.51-1.504-1.059-2.028-1.973-.563-.987-.754-2.366-.766-3.675-.023-2.506-3.91-2.508-3.887.0001l0 0"/><path d="m26.309 11.21c-.008 2.956-.188 5.907-.196 8.865-.007 2.505 3.88 2.505 3.888 0 .008-2.958.186-5.909.195-8.865.006-2.508-3.879-2.508-3.887 0l0 0"/><path d="m41.855 10.718c.011 3.142.422 6.38-.125 9.498-.183 1.044.265 2.09 1.356 2.39.948.26 2.21-.313 2.39-1.358.615-3.497.279-7 .267-10.529-.011-2.506-3.897-2.51-3.888-.0001l0 0"/><path d="m22.617 32.2c10.288.76 20.6.199 30.899 0 2.505-.049 2.507-3.937 0-3.886-10.299.2-20.611.758-30.899 0-1.059-.08-1.943.944-1.943 1.942-.0001 1.122.886 1.868 1.943 1.944l0 0"/><path d="m22.23 25.977c10.289.76 20.601.2 30.899 0 2.502-.049 2.508-3.937 0-3.885-10.298.198-20.61.758-30.899 0-1.057-.08-1.944.941-1.944 1.942 0 1.116.887 1.862 1.944 1.943l0 0"/><path d="m35.833 26.951c0 5.339 0 10.679 0 16.02 0 2.508 3.885 2.508 3.885 0 0-5.341 0-10.68 0-16.02 0-2.508-3.885-2.508-3.885 0l0 0"/><path d="m29.806 38.39c0 1.784.016 3.565.195 5.342.107 1.053.803 1.943 1.944 1.943.978 0 2.049-.888 1.943-1.943-.183-1.776-.193-3.558-.195-5.342 0-2.506-3.887-2.506-3.887 0l0 0"/><path d="m41.855 38.39c0 1.612 0 3.222 0 4.834 0 2.506 3.888 2.506 3.888 0 0-1.612 0-3.222 0-4.834 0-2.506-3.888-2.506-3.888 0l0 0"/><path d="m32.33 46.44c3.569-.018 7.119-.492 10.688-.508 2.506-.012 2.509-3.899 0-3.888-3.569.019-7.119.492-10.688.511-2.506.012-2.506 3.898 0 3.885l0 0"/><path d="m51.643 29.933c-.356 2.227-.226 4.501-.155 6.748.088 2.848.17 5.704-.009 8.552-.047.691-.114 1.377-.196 2.063.047-.379-.072.453-.092.566-.056.352-.127.699-.201 1.047-.131.603-.299 1.199-.496 1.785-.051.154-.108.305-.166.455-.188.498.166-.363-.047.116-.125.276-.268.547-.416.81-.121.213-.256.418-.396.619-.281.403.264-.315-.045.06-.092.108-.189.209-.285.313-.16.168-.334.322-.512.471.398-.334-.28.159-.414.236-.084.047-.168.089-.252.129-.436.215.396-.146-.064.023-.281.101-.574.172-.867.23-.515.105.426-.037-.11.018-.166.018-.332.021-.498.029-.355.001-.712-.012-1.066-.047-1.057-.096-1.944.959-1.944 1.945 0 1.134.89 1.847 1.944 1.941 2.999.278 5.581-.89 7.386-3.27 1.737-2.293 2.222-5.438 2.513-8.219.315-2.979.239-5.989.149-8.976-.04-1.343-.09-2.685-.101-4.03-.004-.554.002-1.109.024-1.662.009-.238.027-.477.046-.715.006-.107.02-.216.032-.326.044-.396-.073.496-.013.117.166-1.043-.254-2.086-1.359-2.391-.935-.256-2.222.313-2.39 1.362l0 0"/><path d="m20.479 30.448c.197 8.994.001 18.01 1.235 26.947.145 1.051 1.471 1.61 2.391 1.355 1.122-.307 1.501-1.342 1.356-2.389-1.176-8.57-.907-17.287-1.096-25.914-.054-2.503-3.942-2.507-3.886.0001l0 0"/><path d="m22.23 42.693c-3.165.242-5.875 1.729-7.283 4.654-1.299 2.7-1.458 5.806-1.463 8.754-.004 2.507 3.883 2.507 3.887 0 .003-2.309.063-4.319.805-6.468.246-.709.77-1.52 1.381-2.084.137-.13.76-.51.975-.594.543-.215 1.121-.334 1.697-.379 1.055-.078 1.944-.821 1.944-1.942.0001-.995-.886-2.023-1.943-1.941l0 0"/><path d="m8.817 21.509c.605 4.573 4.508 9.531 9.201 10.424 1.039.199 2.092-.276 2.391-1.356.262-.961-.316-2.196-1.358-2.391-2.91-.555-5.981-3.905-6.347-6.677-.139-1.051-.777-1.944-1.944-1.944-.953 0-2.082.889-1.943 1.944l0 0"/></g></svg>