<svg xmlns="http://www.w3.org/2000/svg" viewBox="0 0 64 64" enable-background="new 0 0 64 64"><defs><linearGradient id="0" gradientUnits="userSpaceOnUse" y1="34.63" x2="0" y2="14.395"><stop stop-color="#fbb041"/><stop offset="1" stop-color="#29abe2"/></linearGradient></defs><path fill="url(#0)" d="M63.993,31.996c0,17.674-14.324,31.997-31.997,31.997S0,49.67,0,31.996C0,14.325,14.324,0,31.997,0    S63.993,14.325,63.993,31.996z"/><g fill="#fff"><path d="m54.844 21.08c0 7.438-4.02 13.466-8.996 13.466-4.967 0-8.993-6.03-8.993-13.466 0-7.441 4.03-13.47 8.993-13.47 4.971 0 8.996 6.03 8.996 13.47"/><path d="m27.462 21.08c0 7.438-4.02 13.466-8.989 13.466s-8.997-6.03-8.997-13.466c0-7.441 4.03-13.47 8.997-13.47s8.989 6.03 8.989 13.47"/></g><path fill="#fbb041" d="m18.08 47.861c0 10.75-4.02 13.47-8.991 13.47-4.968 0-4.949-4.01-4.949-11.444 0-7.443-6.504-20.17 4.949-15.493 4.604 1.877 8.991 6.03 8.991 13.467"/><path fill="#fff" d="m9.09 62.848c-3.03 0-4.915-1.295-5.774-3.96-.692-2.144-.692-5.132-.692-8.914 0-1.972-.472-4.333-.93-6.616-.859-4.281-1.597-7.979.142-10.1.519-.633 1.506-1.39 3.253-1.39 1.233 0 2.729.365 4.575 1.119 6.312 2.576 9.935 7.996 9.935 14.873 0 10.09-3.439 14.987-10.509 14.987m-4-27.943c-.677 0-.849.209-.906.278-.825 1.01-.095 4.652.49 7.577.485 2.429.987 4.939.987 7.126 0 3.603 0 6.38.545 8.07.391 1.206.965 1.859 2.886 1.859 3.48 0 7.473-1.358 7.473-11.952 0-7.639-5.04-10.838-8.05-12.06-1.456-.593-2.608-.893-3.429-.893"/><path fill="#fbb041" d="m45.848 48.37c0 10.75 4.02 13.466 8.992 13.466 4.967 0 4.947-4.01 4.947-11.442 0-7.442 6.506-20.17-4.947-15.495-4.599 1.878-8.992 6.03-8.992 13.471"/><path fill="#fff" d="m54.84 63.35c-7.07 0-10.507-4.903-10.507-14.983 0-6.875 3.618-12.298 9.935-14.877 1.842-.752 3.34-1.118 4.572-1.118 1.748 0 2.733.754 3.257 1.39 1.734 2.119.994 5.816.138 10.1-.458 2.284-.93 4.645-.93 6.53 0 3.868 0 6.856-.688 9-.862 2.665-2.753 3.96-5.777 3.96m4-27.945c-.821 0-1.975.302-3.427.895-3 1.228-8.05 4.428-8.05 12.07 0 10.59 3.995 11.947 7.473 11.947 1.923 0 2.495-.651 2.885-1.857.546-1.688.546-4.465.546-7.978 0-2.272.502-4.785.987-7.213.586-2.928 1.314-6.571.487-7.582-.057-.069-.228-.278-.905-.278"/><path fill="#633c17" d="m41.838 49.97c0 8.879-3.982 8.713-9.419 8.713-5.434 0-10.264.166-10.264-8.713 0-8.883 4.408-16.08 9.844-16.08s9.839 7.196 9.839 16.08"/></svg>