<?xml version="1.0" encoding="utf-8"?>
<!-- Generator: Adobe Illustrator 16.0.0, SVG Export Plug-In . SVG Version: 6.00 Build 0)  -->
<!DOCTYPE svg PUBLIC "-//W3C//DTD SVG 1.1//EN" "http://www.w3.org/Graphics/SVG/1.1/DTD/svg11.dtd">
<svg version="1.1" id="Layer_1" xmlns="http://www.w3.org/2000/svg" xmlns:xlink="http://www.w3.org/1999/xlink" x="0px" y="0px"
	 width="64px" height="64px" viewBox="0 0 64 64" enable-background="new 0 0 64 64" xml:space="preserve">
<g>
	<g>
		<path fill="#D1D2D3" d="M15.339,14.991c2.227,1.729,5.757,0.906,7.894-1.839c2.137-2.747,2.059-6.374-0.164-8.104
			c-2.227-1.728-9.445-3.766-11.581-1.017C9.355,6.776,13.112,13.265,15.339,14.991z"/>
		<path fill="#DBDBDC" d="M15.284,20.765c1.586,1.234,4.602,0.006,6.736-2.739c2.135-2.747,2.578-5.97,0.99-7.202
			c-1.582-1.23-7.222-2.042-9.357,0.703C11.521,14.276,13.702,19.537,15.284,20.765z"/>
		<path fill="#DBDBDC" d="M21.663,11.934c1.582,1.228,4.6,0,6.734-2.747c2.137-2.745,2.578-5.966,0.99-7.198
			c-1.583-1.232-7.222-2.044-9.353,0.703C17.897,5.438,20.077,10.702,21.663,11.934z"/>
		<path fill="#E7E6E6" d="M21.167,17.365c1.586,1.229,4.6,0,6.732-2.745c2.134-2.747,2.58-5.966,0.998-7.196
			C27.309,6.19,21.67,5.38,19.538,8.127C17.401,10.872,19.583,16.133,21.167,17.365z"/>
		<path fill="#E7E6E6" d="M12.841,17.082c1.104,0.855,3.203,0.004,4.693-1.909c1.482-1.911,1.793-4.156,0.686-5.013
			c-1.102-0.857-5.029-1.425-6.517,0.49C10.22,12.56,11.738,16.225,12.841,17.082z"/>
	</g>
	<g>
		<path fill="#D1D2D3" d="M60.102,8.607c0.418-1.812-1.055-3.693-3.293-4.209c-2.233-0.513-4.386,0.537-4.8,2.349
			c-0.418,1.808,0.367,6.69,2.602,7.206C56.846,14.465,59.686,10.417,60.102,8.607z"/>
		<path fill="#DBDBDC" d="M63.574,7.04c0.293-1.292-1.273-2.752-3.51-3.268c-2.236-0.513-4.282,0.115-4.583,1.406
			c-0.297,1.286,0.78,4.884,3.017,5.399C60.734,11.09,63.281,8.326,63.574,7.04z"/>
		<path fill="#DBDBDC" d="M56.518,5.677c0.297-1.289-1.274-2.75-3.511-3.266c-2.236-0.513-4.285,0.115-4.584,1.406
			c-0.297,1.289,0.781,4.884,3.018,5.4C53.677,9.729,56.221,6.965,56.518,5.677z"/>
		<path fill="#E7E6E6" d="M59.902,4.464c0.301-1.288-1.273-2.75-3.508-3.262c-2.237-0.518-4.284,0.111-4.585,1.399
			c-0.293,1.292,0.785,4.886,3.02,5.4C57.064,8.517,59.607,5.755,59.902,4.464z"/>
		<path fill="#E7E6E6" d="M62.047,9.521c0.205-0.896-0.885-1.915-2.445-2.272c-1.559-0.359-2.984,0.08-3.191,0.978
			c-0.207,0.896,0.543,3.402,2.104,3.762C60.066,12.344,61.84,10.418,62.047,9.521z"/>
	</g>
	<g>
		<path fill="#D1D2D3" d="M46.308,18.67c2.699,0.82,5.701-1.21,6.715-4.537c1.01-3.329-0.354-6.69-3.053-7.51
			C47.274,5.806,39.803,6.481,38.793,9.81C37.783,13.136,43.61,17.853,46.308,18.67z"/>
		<path fill="#DBDBDC" d="M48.319,24.084c1.924,0.583,4.299-1.638,5.312-4.964c1.01-3.329,0.275-6.497-1.648-7.081
			c-1.918-0.584-7.479,0.673-8.49,4C42.483,19.368,46.403,23.502,48.319,24.084z"/>
		<path fill="#DBDBDC" d="M51.12,13.556c1.916,0.582,4.297-1.642,5.306-4.97c1.014-3.326,0.273-6.493-1.644-7.077
			c-1.922-0.583-7.48,0.672-8.492,3.998C45.282,8.835,49.2,12.972,51.12,13.556z"/>
		<path fill="#E7E6E6" d="M52.599,18.805c1.922,0.584,4.296-1.642,5.304-4.968c1.016-3.329,0.279-6.493-1.641-7.077
			c-1.921-0.583-7.476,0.671-8.487,4C46.763,14.087,50.677,18.222,52.599,18.805z"/>
		<path fill="#E7E6E6" d="M44.722,21.515c1.336,0.406,2.992-1.14,3.697-3.457c0.703-2.317,0.189-4.523-1.148-4.929
			c-1.336-0.406-5.207,0.466-5.912,2.786C40.653,18.229,43.386,21.109,44.722,21.515z"/>
	</g>
	<g>
		<path fill="#D1D2D3" d="M40.146,7.586c0.414-1.812-1.058-3.693-3.292-4.209c-2.234-0.513-4.387,0.537-4.803,2.349
			c-0.416,1.808,0.369,6.69,2.604,7.206C36.889,13.444,39.729,9.396,40.146,7.586z"/>
		<path fill="#DBDBDC" d="M43.616,6.019c0.295-1.292-1.273-2.752-3.51-3.268c-2.237-0.513-4.284,0.115-4.585,1.406
			c-0.295,1.286,0.785,4.884,3.02,5.399C40.776,10.069,43.321,7.305,43.616,6.019z"/>
		<path fill="#DBDBDC" d="M36.561,4.656c0.297-1.289-1.275-2.75-3.512-3.266c-2.234-0.513-4.285,0.115-4.582,1.406
			c-0.297,1.289,0.781,4.884,3.016,5.4C33.721,8.708,36.264,5.944,36.561,4.656z"/>
		<path fill="#E7E6E6" d="M39.947,3.443c0.296-1.288-1.277-2.75-3.512-3.262c-2.234-0.518-4.283,0.111-4.582,1.399
			c-0.295,1.292,0.781,4.886,3.02,5.4C37.107,7.496,39.65,4.734,39.947,3.443z"/>
		<path fill="#E7E6E6" d="M42.087,8.5c0.207-0.896-0.883-1.915-2.44-2.272c-1.559-0.359-2.984,0.08-3.191,0.978
			c-0.207,0.896,0.543,3.402,2.102,3.762C40.11,11.323,41.882,9.397,42.087,8.5z"/>
	</g>
	<g>
		<path fill="#D1D2D3" d="M26.35,17.649c2.699,0.82,5.703-1.21,6.714-4.537c1.012-3.329-0.355-6.69-3.051-7.51
			C27.319,4.785,19.847,5.46,18.835,8.789C17.823,12.115,23.655,16.832,26.35,17.649z"/>
		<path fill="#DBDBDC" d="M28.361,23.063c1.926,0.583,4.301-1.638,5.312-4.964c1.012-3.329,0.277-6.497-1.648-7.081
			c-1.918-0.584-7.476,0.673-8.488,4C22.526,18.347,26.444,22.481,28.361,23.063z"/>
		<path fill="#DBDBDC" d="M31.162,12.535c1.918,0.582,4.297-1.642,5.309-4.97c1.012-3.326,0.273-6.493-1.648-7.077
			C32.9-0.096,27.346,1.16,26.334,4.486C25.323,7.814,29.24,11.951,31.162,12.535z"/>
		<path fill="#E7E6E6" d="M32.643,17.784c1.918,0.584,4.293-1.642,5.305-4.968c1.014-3.329,0.277-6.493-1.641-7.077
			c-1.924-0.583-7.479,0.671-8.49,4C26.803,13.066,30.721,17.201,32.643,17.784z"/>
		<path fill="#E7E6E6" d="M24.764,20.494c1.336,0.406,2.992-1.14,3.695-3.457c0.707-2.317,0.191-4.523-1.148-4.929
			c-1.336-0.406-5.207,0.466-5.91,2.786C20.698,17.208,23.428,20.088,24.764,20.494z"/>
	</g>
	<g>
		<path fill="#D1D2D3" d="M24.147,13.839c0.414-1.812-1.059-3.693-3.293-4.209c-2.234-0.513-4.386,0.537-4.802,2.349
			c-0.416,1.808,0.369,6.69,2.604,7.206C20.889,19.697,23.729,15.648,24.147,13.839z"/>
		<path fill="#DBDBDC" d="M27.618,12.271c0.295-1.292-1.273-2.753-3.51-3.268c-2.238-0.514-4.285,0.115-4.585,1.405
			c-0.295,1.287,0.785,4.885,3.019,5.4C24.778,16.322,27.323,13.558,27.618,12.271z"/>
		<path fill="#DBDBDC" d="M20.561,10.909c0.297-1.289-1.275-2.75-3.511-3.266c-2.234-0.513-4.285,0.115-4.582,1.406
			c-0.297,1.289,0.781,4.884,3.016,5.399C17.722,14.961,20.264,12.197,20.561,10.909z"/>
		<path fill="#E7E6E6" d="M23.948,9.696c0.297-1.289-1.277-2.75-3.512-3.262c-2.234-0.517-4.283,0.111-4.582,1.4
			c-0.295,1.292,0.781,4.886,3.02,5.4C21.108,13.749,23.651,10.987,23.948,9.696z"/>
		<path fill="#E7E6E6" d="M26.088,14.752c0.207-0.896-0.883-1.915-2.441-2.272c-1.559-0.359-2.984,0.08-3.191,0.978
			c-0.207,0.896,0.543,3.403,2.102,3.762C24.112,17.575,25.883,15.65,26.088,14.752z"/>
	</g>
	<g>
		<path fill="#D1D2D3" d="M10.351,23.902c2.699,0.82,5.703-1.21,6.714-4.537c1.012-3.329-0.355-6.69-3.051-7.51
			c-2.695-0.818-10.167-0.143-11.179,3.186C1.824,18.368,7.656,23.084,10.351,23.902z"/>
		<path fill="#DBDBDC" d="M12.362,29.316c1.926,0.583,4.301-1.638,5.312-4.964c1.012-3.329,0.277-6.497-1.648-7.081
			c-1.918-0.584-7.476,0.673-8.488,4C6.527,24.599,10.445,28.734,12.362,29.316z"/>
		<path fill="#DBDBDC" d="M15.163,18.788c1.918,0.582,4.297-1.642,5.308-4.97c1.012-3.327,0.273-6.493-1.648-7.077
			c-1.922-0.583-7.476,0.671-8.488,3.998C9.324,14.067,13.241,18.204,15.163,18.788z"/>
		<path fill="#E7E6E6" d="M16.644,24.037c1.918,0.583,4.292-1.642,5.304-4.968c1.014-3.329,0.277-6.493-1.641-7.077
			c-1.923-0.584-7.478,0.671-8.489,4C10.804,19.319,14.722,23.453,16.644,24.037z"/>
		<path fill="#E7E6E6" d="M8.765,26.747c1.336,0.406,2.992-1.14,3.695-3.457c0.707-2.317,0.191-4.523-1.148-4.929
			c-1.336-0.406-5.207,0.466-5.91,2.786C4.699,23.461,7.429,26.341,8.765,26.747z"/>
	</g>
	<g>
		<path fill="#A2C3CB" d="M8.429,19.457c0,6.108,0,12.215,0,18.329c0,3.885,0,7.773,0,11.654c0,0.252,0.066,0.457,0.152,0.457
			c2.031,0,4.07,0,6.113,0c1.164,0,2.332,0,3.496,0c0.082,0,0.148-0.205,0.148-0.457c0-6.106,0-12.215,0-18.325
			c0-3.889,0-7.771,0-11.659c0-0.13-0.012-0.236-0.039-0.308l-0.004-0.01l-0.004-0.012c-0.027-0.074-0.059-0.123-0.102-0.123
			c-2.039,0-4.078,0-6.113,0c-1.167,0-2.332,0-3.496,0C8.496,19.004,8.429,19.209,8.429,19.457z"/>
		<path fill="#9A535F" d="M8.429,22.032c0,0.755,0,1.509,0,2.263c0,0.482,0,0.962,0,1.44c0,0.031,0.066,0.057,0.152,0.057
			c2.031,0,4.07,0,6.113,0c1.164,0,2.332,0,3.496,0c0.082,0,0.148-0.025,0.148-0.057c0-0.753,0-1.509,0-2.263c0-0.48,0-0.96,0-1.44
			c0-0.016-0.012-0.027-0.039-0.039h-0.004l-0.004-0.002c-0.027-0.008-0.059-0.014-0.102-0.014c-2.039,0-4.078,0-6.113,0
			c-1.167,0-2.332,0-3.496,0C8.496,21.978,8.429,22.003,8.429,22.032z"/>
		<path fill="#9A535F" d="M8.429,28.576c0,0.754,0,1.509,0,2.263c0,0.48,0,0.96,0,1.441c0,0.029,0.066,0.057,0.152,0.057
			c2.031,0,4.07,0,6.113,0c1.164,0,2.332,0,3.496,0c0.082,0,0.148-0.027,0.148-0.057c0-0.756,0-1.509,0-2.263
			c0-0.482,0-0.962,0-1.441c0-0.018-0.012-0.029-0.039-0.039h-0.004l-0.004-0.002c-0.027-0.008-0.059-0.016-0.102-0.016
			c-2.039,0-4.078,0-6.113,0c-1.167,0-2.332,0-3.496,0C8.496,28.519,8.429,28.544,8.429,28.576z"/>
		<path fill="#9A535F" d="M8.429,35.143c0,0.754,0,1.508,0,2.263c0,0.48,0,0.961,0,1.439c0,0.031,0.066,0.057,0.152,0.057
			c2.031,0,4.07,0,6.113,0c1.164,0,2.332,0,3.496,0c0.082,0,0.148-0.025,0.148-0.057c0-0.754,0-1.508,0-2.263
			c0-0.48,0-0.961,0-1.439c0-0.018-0.012-0.029-0.039-0.039h-0.004l-0.004-0.002c-0.027-0.01-0.059-0.016-0.102-0.016
			c-2.039,0-4.078,0-6.113,0c-1.167,0-2.332,0-3.496,0C8.496,35.086,8.429,35.111,8.429,35.143z"/>
		<path fill="#9A535F" d="M8.429,41.382c0,0.754,0,1.508,0,2.261c0,0.482,0,0.963,0,1.44c0,0.031,0.066,0.057,0.152,0.057
			c2.031,0,4.07,0,6.113,0c1.164,0,2.332,0,3.496,0c0.082,0,0.148-0.025,0.148-0.057c0-0.753,0-1.509,0-2.262
			c0-0.48,0-0.961,0-1.439c0-0.018-0.012-0.029-0.039-0.041h-0.004l-0.004-0.002c-0.027-0.008-0.059-0.014-0.102-0.014
			c-2.039,0-4.078,0-6.113,0c-1.167,0-2.332,0-3.496,0C8.496,41.325,8.429,41.351,8.429,41.382z"/>
	</g>
	<g>
		<path fill="#A2C3CB" d="M42.681,18.897c0,6.108,0,12.215,0,18.329c0,3.885,0,7.774,0,11.655c0,0.251,0.062,0.456,0.148,0.456
			c2.035,0,4.074,0,6.113,0c1.168,0,2.332,0,3.5,0c0.082,0,0.148-0.205,0.148-0.456c0-6.106,0-12.215,0-18.326
			c0-3.889,0-7.771,0-11.658c0-0.131-0.016-0.236-0.039-0.309l-0.008-0.01l-0.004-0.012c-0.021-0.074-0.055-0.123-0.098-0.123
			c-2.039,0-4.074,0-6.113,0c-1.168,0-2.332,0-3.5,0C42.743,18.444,42.681,18.649,42.681,18.897z"/>
		<path fill="#9A535F" d="M42.681,21.472c0,0.756,0,1.509,0,2.263c0,0.482,0,0.962,0,1.441c0,0.031,0.062,0.057,0.148,0.057
			c2.035,0,4.074,0,6.113,0c1.168,0,2.332,0,3.5,0c0.082,0,0.148-0.025,0.148-0.057c0-0.753,0-1.509,0-2.263c0-0.48,0-0.96,0-1.441
			c0-0.016-0.016-0.027-0.039-0.039h-0.008l-0.004-0.002c-0.021-0.007-0.055-0.013-0.098-0.013c-2.039,0-4.074,0-6.113,0
			c-1.168,0-2.332,0-3.5,0C42.743,21.417,42.681,21.442,42.681,21.472z"/>
		<path fill="#9A535F" d="M42.681,28.016c0,0.753,0,1.509,0,2.263c0,0.48,0,0.96,0,1.44c0,0.029,0.062,0.057,0.148,0.057
			c2.035,0,4.074,0,6.113,0c1.168,0,2.332,0,3.5,0c0.082,0,0.148-0.027,0.148-0.057c0-0.755,0-1.509,0-2.262
			c0-0.482,0-0.963,0-1.441c0-0.018-0.016-0.029-0.039-0.039h-0.008l-0.004-0.002c-0.021-0.008-0.055-0.016-0.098-0.016
			c-2.039,0-4.074,0-6.113,0c-1.168,0-2.332,0-3.5,0C42.743,27.959,42.681,27.984,42.681,28.016z"/>
		<path fill="#9A535F" d="M42.681,34.583c0,0.753,0,1.507,0,2.263c0,0.479,0,0.96,0,1.438c0,0.031,0.062,0.057,0.148,0.057
			c2.035,0,4.074,0,6.113,0c1.168,0,2.332,0,3.5,0c0.082,0,0.148-0.025,0.148-0.057c0-0.754,0-1.507,0-2.263c0-0.48,0-0.961,0-1.438
			c0-0.018-0.016-0.029-0.039-0.039h-0.008l-0.004-0.002c-0.021-0.01-0.055-0.016-0.098-0.016c-2.039,0-4.074,0-6.113,0
			c-1.168,0-2.332,0-3.5,0C42.743,34.526,42.681,34.552,42.681,34.583z"/>
		<path fill="#9A535F" d="M42.681,40.822c0,0.753,0,1.507,0,2.26c0,0.482,0,0.963,0,1.441c0,0.031,0.062,0.057,0.148,0.057
			c2.035,0,4.074,0,6.113,0c1.168,0,2.332,0,3.5,0c0.082,0,0.148-0.025,0.148-0.057c0-0.754,0-1.509,0-2.263c0-0.48,0-0.961,0-1.438
			c0-0.018-0.016-0.029-0.039-0.041h-0.008l-0.004-0.002c-0.021-0.008-0.055-0.014-0.098-0.014c-2.039,0-4.074,0-6.113,0
			c-1.168,0-2.332,0-3.5,0C42.743,40.766,42.681,40.791,42.681,40.822z"/>
	</g>
	<g>
		<path fill="#A2C3CB" d="M24.049,8.417c0,7.659,0,15.315,0,22.981c0,4.871,0,9.747,0,14.614c0,0.314,0.078,0.572,0.188,0.572
			c2.551,0,5.105,0,7.664,0c1.465,0,2.926,0,4.387,0c0.104,0,0.188-0.258,0.188-0.572c0-7.656,0-15.317,0-22.977
			c0-4.876,0-9.745,0-14.618c0-0.164-0.02-0.296-0.051-0.386l-0.006-0.006l-0.006-0.021c-0.027-0.094-0.07-0.154-0.125-0.154
			c-2.555,0-5.109,0-7.664,0c-1.464,0-2.921,0-4.386,0C24.127,7.85,24.049,8.107,24.049,8.417z"/>
		<path fill="#9A535F" d="M24.049,11.646c0,0.947,0,1.892,0,2.836c0,0.605,0,1.207,0,1.806c0,0.039,0.078,0.072,0.188,0.072
			c2.551,0,5.105,0,7.664,0c1.465,0,2.926,0,4.387,0c0.104,0,0.188-0.033,0.188-0.072c0-0.945,0-1.892,0-2.837
			c0-0.601,0-1.204,0-1.806c0-0.02-0.02-0.035-0.051-0.049h-0.006l-0.006-0.004c-0.027-0.01-0.07-0.016-0.125-0.016
			c-2.555,0-5.109,0-7.664,0c-1.464,0-2.921,0-4.386,0C24.127,11.578,24.049,11.609,24.049,11.646z"/>
		<path fill="#9A535F" d="M24.049,19.852c0,0.945,0,1.892,0,2.836c0,0.602,0,1.205,0,1.806c0,0.037,0.078,0.07,0.188,0.07
			c2.551,0,5.105,0,7.664,0c1.465,0,2.926,0,4.387,0c0.104,0,0.188-0.033,0.188-0.07c0-0.947,0-1.892,0-2.836
			c0-0.605,0-1.207,0-1.806c0-0.023-0.02-0.037-0.051-0.051h-0.006l-0.006-0.002c-0.027-0.01-0.07-0.02-0.125-0.02
			c-2.555,0-5.109,0-7.664,0c-1.464,0-2.921,0-4.386,0C24.127,19.779,24.049,19.812,24.049,19.852z"/>
		<path fill="#9A535F" d="M24.049,28.086c0,0.945,0,1.888,0,2.836c0,0.601,0,1.205,0,1.804c0,0.039,0.078,0.07,0.188,0.07
			c2.551,0,5.105,0,7.664,0c1.465,0,2.926,0,4.387,0c0.104,0,0.188-0.031,0.188-0.07c0-0.945,0-1.89,0-2.836
			c0-0.603,0-1.205,0-1.804c0-0.023-0.02-0.037-0.051-0.051h-0.006l-0.006-0.002c-0.027-0.012-0.07-0.02-0.125-0.02
			c-2.555,0-5.109,0-7.664,0c-1.464,0-2.921,0-4.386,0C24.127,28.014,24.049,28.045,24.049,28.086z"/>
		<path fill="#9A535F" d="M24.049,35.908c0,0.945,0,1.89,0,2.835c0,0.603,0,1.206,0,1.806c0,0.039,0.078,0.07,0.188,0.07
			c2.551,0,5.105,0,7.664,0c1.465,0,2.926,0,4.387,0c0.104,0,0.188-0.031,0.188-0.07c0-0.945,0-1.892,0-2.837
			c0-0.604,0-1.204,0-1.804c0-0.021-0.02-0.037-0.051-0.053h-0.006l-0.006-0.002c-0.027-0.01-0.07-0.018-0.125-0.018
			c-2.555,0-5.109,0-7.664,0c-1.464,0-2.921,0-4.386,0C24.127,35.836,24.049,35.869,24.049,35.908z"/>
	</g>
	<path fill="#7D4652" d="M0,44.438c0,3.957,0,7.914,0,11.869c0,2.513,0,5.03,0,7.547c0,0.16,0.441,0.293,0.965,0.293
		c13.147,0,26.323,0,39.478,0c7.523,0,15.059,0,22.589,0c0.527,0,0.969-0.133,0.969-0.293c0-3.957,0-7.91,0-11.867
		c0-2.517,0-5.03,0-7.549c0-0.084-0.113-0.148-0.266-0.195l-0.027-0.008c0-0.006-0.008-0.006-0.039-0.006
		c-0.137-0.051-0.361-0.082-0.637-0.082c-13.171,0-26.316,0-39.478,0c-7.523,0-15.058,0-22.588,0C0.441,44.146,0,44.281,0,44.438z"
		/>
	<path fill="#9A535F" d="M26.932,64.146c2.066,0,4.132,0,6.195,0c1.312,0,2.629,0,3.945,0c0.078,0,0.152-0.051,0.152-0.115
		c0-1.54,0-3.086,0-4.629c0-0.886,0-1.765,0-2.652c0-0.062-0.074-0.111-0.152-0.111c-2.07,0-4.137,0-6.199,0
		c-1.312,0-2.629,0-3.941,0c-0.043,0-0.078,0.012-0.105,0.033l-0.004,0.004h-0.004c-0.02,0.021-0.043,0.047-0.043,0.074
		c0,1.542,0,3.088,0,4.632c0,0.887,0,1.769,0,2.649C26.776,64.096,26.85,64.146,26.932,64.146z"/>
	<path fill="#86A7AC" d="M28.193,60.539c0.361,0,0.719,0,1.078,0c0.229,0,0.457,0,0.684,0l0.029-0.031c0-0.422,0-0.846,0-1.266
		c0-0.243,0-0.483,0-0.726c0-0.018-0.014-0.031-0.014-0.031c-0.373,0-0.734,0-1.094,0c-0.225,0-0.455,0-0.684,0
		c-0.008,0-0.016,0.004-0.016,0.004l-0.002,0.008l0,0l-0.01,0.02c0,0.422,0,0.843,0,1.267c0,0.242,0,0.482,0,0.725
		C28.166,60.508,28.178,60.539,28.193,60.539z"/>
	<path fill="#86A7AC" d="M33.971,60.539c0.359,0,0.719,0,1.074,0c0.23,0,0.457,0,0.688,0l0.027-0.031c0-0.422,0-0.846,0-1.266
		c0-0.243,0-0.483,0-0.726c0-0.018-0.016-0.031-0.016-0.031c-0.371,0-0.73,0-1.09,0c-0.227,0-0.457,0-0.684,0l-0.02,0.01v0.002l0,0
		c-0.004,0.006-0.008,0.012-0.008,0.012c0,0.43,0,0.851,0,1.274c0,0.242,0,0.482,0,0.725C33.943,60.508,33.955,60.539,33.971,60.539
		z"/>
</g>
</svg>
