<?xml version="1.0" encoding="UTF-8" standalone="no"?>
<!-- Generator: Adobe Illustrator 16.0.0, SVG Export Plug-In . SVG Version: 6.00 Build 0)  -->

<svg
   xmlns:dc="http://purl.org/dc/elements/1.1/"
   xmlns:cc="http://creativecommons.org/ns#"
   xmlns:rdf="http://www.w3.org/1999/02/22-rdf-syntax-ns#"
   xmlns:svg="http://www.w3.org/2000/svg"
   xmlns="http://www.w3.org/2000/svg"
   xmlns:sodipodi="http://sodipodi.sourceforge.net/DTD/sodipodi-0.dtd"
   xmlns:inkscape="http://www.inkscape.org/namespaces/inkscape"
   version="1.1"
   id="Layer_1"
   x="0px"
   y="0px"
   width="64px"
   height="64px"
   viewBox="0 0 64 64"
   enable-background="new 0 0 64 64"
   xml:space="preserve"
   inkscape:version="0.48.5 r10040"
   sodipodi:docname="1F42C.svg"
   inkscape:export-filename="D:\TESTINGEMOJI\SVGTEST\1F42C.png"
   inkscape:export-xdpi="90"
   inkscape:export-ydpi="90"><metadata
   id="metadata4368"><rdf:RDF><cc:Work
       rdf:about=""><dc:format>image/svg+xml</dc:format><dc:type
         rdf:resource="http://purl.org/dc/dcmitype/StillImage" /><dc:title></dc:title></cc:Work></rdf:RDF></metadata><defs
   id="defs4366" /><sodipodi:namedview
   pagecolor="#ffffff"
   bordercolor="#666666"
   borderopacity="1"
   objecttolerance="10"
   gridtolerance="10"
   guidetolerance="10"
   inkscape:pageopacity="0"
   inkscape:pageshadow="2"
   inkscape:window-width="640"
   inkscape:window-height="480"
   id="namedview4364"
   showgrid="false"
   inkscape:zoom="3.6875"
   inkscape:cx="32"
   inkscape:cy="32"
   inkscape:window-x="847"
   inkscape:window-y="402"
   inkscape:window-maximized="0"
   inkscape:current-layer="Layer_1" />
<g
   id="g4348">
	<path
   fill="#1BA9B6"
   d="M56.309,1.21c-4.317-2.132-17.467-1.8-21.163,3.888c-0.119,0.188,15.495,8.939,15.515,8.804   c0.539-4.307,0.701-7.546,5.342-9.036C58.627,4.024,58.475,2.281,56.309,1.21z"
   id="path4350" />
	<path
   fill="#34BDCA"
   d="M49.892,11.046c-3.759-3.347-15.027-7.724-22.207-7.635c-1.666,0.033-3.31,0.177-4.908,0.45   c-2.713,0.464-5.018,1.501-6.969,2.944c-0.164,0.097-0.334,0.187-0.497,0.292c-4.766,3.06-7.291,7.269-7.408,12.143   C7.829,19.489,7.69,20,7.688,20.007c-1.963,1.244-8.859,6.592-7.516,9.835c0.471,1.144,6.611,0.469,7.637,0.223   c1.804-0.436,3.19-0.77,4.501-0.665c1.312,0.104,3.894,0.841,5.569,1.017c7.135,0.76,13.894,0.094,19.967,3.033   c3.022,1.461,3.786,5.888,3.22,8.863c-0.938,2.842-2.674,5.27-5.894,6.454c-1.875,0.69-3.774,0.531-5.542-0.102   c-2.352-2.832-5.104-5.07-8.536-6.783c-2.733-1.364-2.432,5.71,3.749,10.04c0.107,0.074,0.182,0.16,0.271,0.242   c0.153,1.731-1.544,3.714-2.099,5.188c-0.688,1.838-1.138,6.92,0.189,6.466c2.821-0.963,4.957-2.889,6.332-5.342   c0.875-0.621,1.481-3.288,2.482-3.681c12.983-5.117,18.202-6.501,22.999-15.649C60.086,29.482,57.902,18.171,49.892,11.046z"
   id="path4352" />
	<path
   fill="#95D6DC"
   d="M41.066,42.313c-0.938,2.842-2.674,5.27-5.894,6.454c-1.325,0.484-2.658,0.543-3.951,0.318   c4.406,3.177,10.919,2.152,13.3-3.277c1.597-3.647,1.106-9.381-1.859-12.386c-3.604-3.655-9.22-4.263-14.101-4.173   c-4.089,0.076-8.384,0.178-12.449,0.874c0.629,0.127,1.243,0.239,1.767,0.293c7.135,0.76,13.894,0.094,19.967,3.033   C40.869,34.911,41.633,39.338,41.066,42.313z"
   id="path4354" />
	<path
   fill="#1BA9B6"
   d="M36.023,29.436c-1.001-5.109-7.612-5.896-11.232-3.796c-0.752,0.434-1.857,6.37,1.611,9.898   c1.524,1.552,3.053,2.89,4.82,4.06c0.014,0.014,0.026,0.025,0.038,0.038c1.216,1.07,3.351,2.885,4.594,0.932   c0.811-1.269,0.592-3.483,0.629-4.898C36.543,33.611,36.416,31.461,36.023,29.436z"
   id="path4356" />
	<path
   fill="#34BDCA"
   d="M36.055,31.216c-0.937-4.832-7.1-5.577-10.476-3.591c-0.702,0.415-1.736,6.029,1.5,9.365   c1.423,1.469,2.854,2.733,4.501,3.842c0.01,0.012,0.018,0.023,0.029,0.033c1.136,1.012,3.128,2.729,4.287,0.881   c0.754-1.198,0.551-3.293,0.586-4.633C36.543,35.165,36.42,33.134,36.055,31.216z"
   id="path4358" />
	<path
   fill="#25333A"
   d="M18.744,16.728c-2.334,0-4.218,1.755-4.218,3.913c0,2.165,1.884,3.914,4.218,3.914   c2.336,0,4.222-1.75,4.222-3.914C22.966,18.483,21.08,16.728,18.744,16.728z"
   id="path4360" />
	<ellipse
   fill="#FFFFFF"
   cx="20.515"
   cy="20.328"
   rx="1.857"
   ry="1.801"
   id="ellipse4362" />
</g>
</svg>