<?xml version="1.0" encoding="UTF-8" standalone="no"?>
<!-- Generator: Adobe Illustrator 16.0.0, SVG Export Plug-In . SVG Version: 6.00 Build 0)  -->

<svg
   xmlns:dc="http://purl.org/dc/elements/1.1/"
   xmlns:cc="http://creativecommons.org/ns#"
   xmlns:rdf="http://www.w3.org/1999/02/22-rdf-syntax-ns#"
   xmlns:svg="http://www.w3.org/2000/svg"
   xmlns="http://www.w3.org/2000/svg"
   xmlns:sodipodi="http://sodipodi.sourceforge.net/DTD/sodipodi-0.dtd"
   xmlns:inkscape="http://www.inkscape.org/namespaces/inkscape"
   version="1.1"
   id="Layer_1"
   x="0px"
   y="0px"
   width="64px"
   height="64px"
   viewBox="0 0 64 64"
   enable-background="new 0 0 64 64"
   xml:space="preserve"
   inkscape:version="0.48.5 r10040"
   sodipodi:docname="1F455.svg"
   inkscape:export-filename="D:\TESTINGEMOJI\SVGTEST\1F455.png"
   inkscape:export-xdpi="90"
   inkscape:export-ydpi="90"><metadata
   id="metadata4307"><rdf:RDF><cc:Work
       rdf:about=""><dc:format>image/svg+xml</dc:format><dc:type
         rdf:resource="http://purl.org/dc/dcmitype/StillImage" /><dc:title></dc:title></cc:Work></rdf:RDF></metadata><defs
   id="defs4305" /><sodipodi:namedview
   pagecolor="#ffffff"
   bordercolor="#666666"
   borderopacity="1"
   objecttolerance="10"
   gridtolerance="10"
   guidetolerance="10"
   inkscape:pageopacity="0"
   inkscape:pageshadow="2"
   inkscape:window-width="640"
   inkscape:window-height="480"
   id="namedview4303"
   showgrid="false"
   inkscape:zoom="3.6875"
   inkscape:cx="32"
   inkscape:cy="32"
   inkscape:window-x="454"
   inkscape:window-y="329"
   inkscape:window-maximized="0"
   inkscape:current-layer="Layer_1" />
<g
   id="g4273">
	<path
   fill-rule="evenodd"
   clip-rule="evenodd"
   fill="#089083"
   d="M39.493,0.863h-6.545l0,0h-1.049H30.85l0,0h-6.545   c0,0-10.051-0.724-24.305,20.044c0,0,4.907,9.657,10.518,8.451c0,0,3.736-3.656,3.736,0.104l-2.098,22.589   c0,0-0.938,7.97,4.201,7.97c0,0,10.587,4.279,15.542,2.455c4.957,1.824,15.537-2.455,15.537-2.455c5.145,0,4.207-7.97,4.207-7.97   l-2.099-22.589c0-3.76,3.736-0.104,3.736-0.104c5.611,1.206,10.518-8.451,10.518-8.451C49.544,0.139,39.493,0.863,39.493,0.863z"
   id="path4275" />
	<path
   fill-rule="evenodd"
   clip-rule="evenodd"
   fill="#02786A"
   d="M39.493,0.863h-2.085c1.663,0.055,11.126,1.226,24.045,20.044   c0,0-3.65,7.172-8.249,8.378c0.043,0.04,0.076,0.073,0.076,0.073c5.611,1.206,10.518-8.451,10.518-8.451   C49.544,0.139,39.493,0.863,39.493,0.863z"
   id="path4277" />
	<path
   fill-rule="evenodd"
   clip-rule="evenodd"
   fill="#02786A"
   d="M49.442,29.461c0-0.479,0.059-0.833,0.165-1.09   c-1.093-0.728-2.511-1.224-2.511,1.09l2.103,22.593c0,0,0.938,7.966-4.201,7.966c0,0-6.146,2.479-11.262,2.855   c5.339,0.482,13.604-2.855,13.604-2.855c5.139,0,4.205-7.966,4.205-7.966L49.442,29.461z"
   id="path4279" />
	<g
   id="g4281">
		<path
   fill-rule="evenodd"
   clip-rule="evenodd"
   fill="#02786A"
   d="M7.239,20.907C21.493,0.139,31.544,0.863,31.544,0.863h3.974    h-2.569l0,0h-1.049H30.85l0,0h-6.545c0,0-10.051-0.724-24.305,20.044c0,0,4.907,9.657,10.518,8.451c0,0,1.187-1.161,2.22-1.502    C9.518,25.38,7.239,20.907,7.239,20.907z"
   id="path4283" />
		<path
   fill-rule="evenodd"
   clip-rule="evenodd"
   fill="#02786A"
   d="M23.597,60.021c-5.14,0-4.203-7.97-4.203-7.97l2.099-22.589    c0-3.76-3.736-0.104-3.736-0.104c-1.233,0.265-2.434,0.004-3.556-0.565c0.033,0.19,0.053,0.408,0.053,0.669l-2.098,22.589    c0,0-0.938,7.97,4.201,7.97c0,0,10.587,4.279,15.542,2.455c1.016,0.372,2.269,0.486,3.619,0.436    C30.285,62.723,23.597,60.021,23.597,60.021z"
   id="path4285" />
	</g>
	<g
   id="g4287">
		<path
   fill-rule="evenodd"
   clip-rule="evenodd"
   fill="#34484C"
   d="M1.263,19.547c-0.073-0.045-0.137-0.096-0.208-0.141    c-0.351,0.486-0.7,0.984-1.055,1.5c0,0,4.907,9.657,10.518,8.455c0,0,0.588-0.579,1.296-1.034    C6.578,28.969,2.016,20.948,1.263,19.547z"
   id="path4289" />
	</g>
	<g
   id="g4291">
		<path
   fill-rule="evenodd"
   clip-rule="evenodd"
   fill="#34484C"
   d="M62.535,19.547c0.066-0.045,0.138-0.096,0.208-0.141    c0.345,0.486,0.694,0.984,1.055,1.5c0,0-4.906,9.657-10.518,8.455c0,0-0.586-0.579-1.302-1.034    C57.221,28.969,61.782,20.948,62.535,19.547z"
   id="path4293" />
	</g>
	<path
   fill-rule="evenodd"
   clip-rule="evenodd"
   fill="#34484C"
   d="M31.899,4.107c-4.567,0-8.39-1.269-9.494-2.987   c-0.204,0.326-0.33,0.661-0.33,1.01c0,2.207,4.401,3.995,9.824,3.995c5.423,0,9.82-1.789,9.82-3.995   c0-0.349-0.121-0.685-0.325-1.01C40.289,2.838,36.467,4.107,31.899,4.107z"
   id="path4295" />
	<path
   fill-rule="evenodd"
   clip-rule="evenodd"
   fill="#34484C"
   d="M31.899,0.904c4.568,0,8.39,0.566,9.495,1.339   c0.204-0.147,0.325-0.296,0.325-0.449c0-0.996-4.396-1.794-9.82-1.794c-5.422,0-9.824,0.798-9.824,1.794   c0,0.153,0.126,0.302,0.33,0.449C23.509,1.471,27.332,0.904,31.899,0.904z"
   id="path4297" />
	<path
   fill-rule="evenodd"
   clip-rule="evenodd"
   fill="#34484C"
   d="M32.968,12.499c0,0.614-0.475,1.11-1.069,1.11l0,0   c-0.592,0-1.069-0.496-1.069-1.11l0,0c0-0.606,0.477-1.104,1.069-1.104l0,0C32.493,11.395,32.968,11.893,32.968,12.499   L32.968,12.499z"
   id="path4299" />
	<path
   fill-rule="evenodd"
   clip-rule="evenodd"
   fill="#34484C"
   d="M32.968,16.621c0,0.612-0.475,1.108-1.069,1.108l0,0   c-0.592,0-1.069-0.496-1.069-1.108l0,0c0-0.608,0.477-1.106,1.069-1.106l0,0C32.493,15.515,32.968,16.013,32.968,16.621   L32.968,16.621z"
   id="path4301" />
</g>
</svg>