<?xml version="1.0" encoding="UTF-8" standalone="no"?>
<!-- Generator: Adobe Illustrator 16.0.0, SVG Export Plug-In . SVG Version: 6.00 Build 0)  -->

<svg
   xmlns:dc="http://purl.org/dc/elements/1.1/"
   xmlns:cc="http://creativecommons.org/ns#"
   xmlns:rdf="http://www.w3.org/1999/02/22-rdf-syntax-ns#"
   xmlns:svg="http://www.w3.org/2000/svg"
   xmlns="http://www.w3.org/2000/svg"
   xmlns:sodipodi="http://sodipodi.sourceforge.net/DTD/sodipodi-0.dtd"
   xmlns:inkscape="http://www.inkscape.org/namespaces/inkscape"
   version="1.1"
   id="Layer_1"
   x="0px"
   y="0px"
   width="64px"
   height="64px"
   viewBox="0 0 64 64"
   enable-background="new 0 0 64 64"
   xml:space="preserve"
   inkscape:version="0.48.5 r10040"
   sodipodi:docname="1F45E.svg"
   inkscape:export-filename="D:\TESTINGEMOJI\SVGTEST\1F45E.png"
   inkscape:export-xdpi="90"
   inkscape:export-ydpi="90"><metadata
   id="metadata3477"><rdf:RDF><cc:Work
       rdf:about=""><dc:format>image/svg+xml</dc:format><dc:type
         rdf:resource="http://purl.org/dc/dcmitype/StillImage" /><dc:title></dc:title></cc:Work></rdf:RDF></metadata><defs
   id="defs3475" /><sodipodi:namedview
   pagecolor="#ffffff"
   bordercolor="#666666"
   borderopacity="1"
   objecttolerance="10"
   gridtolerance="10"
   guidetolerance="10"
   inkscape:pageopacity="0"
   inkscape:pageshadow="2"
   inkscape:window-width="640"
   inkscape:window-height="480"
   id="namedview3473"
   showgrid="false"
   inkscape:zoom="3.6875"
   inkscape:cx="32"
   inkscape:cy="32"
   inkscape:window-x="683"
   inkscape:window-y="282"
   inkscape:window-maximized="0"
   inkscape:current-layer="Layer_1" />
<g
   id="g3461"
   transform="translate(0,22)">
	<path
   clip-rule="evenodd"
   d="M 34.825,19.173 C 34.779,15.43 34.472,11.976 33.934,8.582 33.871,8.572 33.808,8.561 33.748,8.548 c -0.16,0.39 -0.316,0.78 -0.479,1.166 -0.188,0.449 -0.439,0.764 -0.796,0.51 C 32.356,10.143 32.267,9.832 32.238,9.605 32.163,9.009 32.446,8.73 32.735,8.493 32.795,8.446 32.88,8.485 32.949,8.446 33.368,8.196 33.444,7.72 33.143,7.192 32.915,6.795 32.668,6.422 32.355,5.918 32.114,6.515 31.93,7.085 31.672,7.552 31.518,7.827 31.243,8.076 31.015,8.08 30.867,8.084 30.562,7.587 30.59,7.41 30.648,7.03 30.863,6.444 31.039,6.421 31.555,6.356 31.678,5.81 31.816,5.305 31.456,4.856 31.09,4.395 30.637,3.829 30.433,4.39 30.243,5 29.99,5.542 29.886,5.762 29.65,5.902 29.464,5.941 29.365,5.963 29.149,5.684 29.147,5.536 29.143,5.186 29.167,4.735 29.305,4.499 29.499,4.165 29.816,3.999 30.069,3.737 30.326,3.474 30.358,3.211 30.053,2.94 29.925,2.825 29.833,2.613 29.719,2.455 29.193,1.737 28.922,1.842 28.635,2.845 28.481,3.383 28.308,3.992 27.83,3.743 27.664,3.658 27.454,3.156 27.492,2.934 27.55,2.588 27.793,2.303 27.975,2.018 28.167,1.715 28.578,1.294 28.545,1.185 28.4,0.73 28.155,0.307 27.88,0.018 27.793,-0.077 27.49,0.229 27.31,0.421 26.02,1.838 24.748,3.297 23.446,4.691 22.758,5.423 22.057,6.157 21.3,6.695 20.449,7.3 19.524,7.658 18.639,8.171 17.139,9.041 15.577,9.116 14.014,8.946 13.226,8.861 12.443,8.499 11.668,8.21 10.93,7.935 10.194,7.626 9.474,7.26 8.808,6.924 8.168,6.487 7.514,6.104 6.99,5.797 6.467,5.46 5.929,5.209 5.15,4.845 4.358,4.521 3.567,4.222 3.16,4.067 2.88,4.198 2.851,5.011 2.829,5.593 2.748,6.27 2.53,6.71 2.002,7.767 2.705,8.048 2.985,8.388 c 0.902,1.098 1.905,1.996 2.811,3.088 1.243,1.5 2.463,3.056 3.634,4.682 1.219,1.689 2.376,3.482 3.542,5.254 0.322,0.491 0.633,0.819 1.116,0.851 1.167,0.075 2.334,0.277 3.501,0.36 0.224,0.02 0.495,-0.214 0.685,-0.443 1.537,-1.84 3.061,-3.703 4.582,-5.571 0.677,-0.831 1.391,-0.348 2.097,-0.174 0.101,0.024 0.192,0.15 0.297,0.17 0.908,0.174 1.826,0.289 2.728,0.522 0.708,0.178 1.4,0.511 2.103,0.756 0.425,0.15 0.856,0.281 1.288,0.404 0.649,0.182 1.3,0.34 1.949,0.526 0.222,0.063 0.438,0.198 0.661,0.249 0.302,0.068 0.611,0.084 0.846,0.111 z"
   id="path3463"
   inkscape:connector-curvature="0"
   style="fill:#60401c;fill-rule:evenodd" />
	<path
   clip-rule="evenodd"
   d="m 35.296,11.596 c 0.087,0.649 0.146,1.104 0.214,1.555 0.031,0.202 0.097,0.396 0.11,0.597 0.107,1.725 0.202,3.454 0.309,5.184 0.026,0.439 0.071,0.874 0.129,1.302 0.081,0.605 -0.103,1.021 -0.515,0.926 -0.793,-0.186 -1.58,-0.471 -2.368,-0.72 -0.502,-0.158 -0.997,-0.356 -1.503,-0.475 -1.286,-0.301 -2.576,-0.546 -3.857,-0.847 -0.968,-0.225 -1.929,-0.486 -2.889,-0.768 -0.833,-0.241 -1.476,0.261 -2.085,0.974 -0.964,1.127 -1.935,2.243 -2.896,3.367 -0.17,0.198 -0.333,0.412 -0.594,0.74 0.4,0.158 0.695,0.312 1,0.388 1.133,0.281 2.267,0.542 3.4,0.803 0.671,0.154 1.354,0.242 2.01,0.471 0.924,0.316 1.83,0.744 2.746,1.112 0.392,0.154 0.789,0.261 1.183,0.419 1.052,0.419 2.104,0.834 3.147,1.293 0.775,0.34 1.529,0.784 2.303,1.116 0.445,0.194 0.91,0.289 1.371,0.38 0.86,0.17 1.729,0.404 2.6,0.436 1.757,0.071 3.521,0.119 5.276,-0.004 1.438,-0.103 2.87,-0.459 4.307,-0.705 0.018,-0.004 0.035,-0.008 0.035,-0.008 1.07,-0.162 2.129,-0.289 3.178,-0.495 0.949,-0.182 1.892,-0.447 2.839,-0.677 0.071,-0.016 0.143,-0.035 0.214,-0.047 1.034,-0.146 2.071,-0.257 3.1,-0.443 1.296,-0.238 2.586,-0.534 3.878,-0.815 0.093,-0.02 0.218,-0.106 0.259,-0.217 0.25,-0.653 -0.075,-2.797 -0.514,-3.296 -0.171,-0.194 -0.402,-0.372 -0.611,-0.384 -2.349,-0.119 -4.701,-0.218 -7.054,-0.301 -0.83,-0.028 -1.665,-0.004 -2.504,0.079 0.247,0 0.492,0 0.737,0 0,0.032 0,0.055 0,0.087 -0.753,0 -1.509,0 -2.265,0 -0.002,-0.004 -0.002,-0.016 -0.002,-0.02 0.178,-0.02 0.359,-0.036 0.54,-0.056 0,-0.043 0,-0.091 0.002,-0.134 -1.122,0 -2.243,-0.048 -3.359,0.012 -0.945,0.051 -1.628,-0.768 -2.343,-1.389 -1.736,-1.504 -3.456,-3.062 -5.121,-4.721 -1.332,-1.321 -2.576,-2.817 -3.864,-4.233 -0.122,-0.134 -0.26,-0.232 -0.543,-0.486 z"
   id="path3465"
   inkscape:connector-curvature="0"
   style="fill:#9e6a36;fill-rule:evenodd" />
	<path
   clip-rule="evenodd"
   d="M 1.569,8.525 C 1.43,9.75 1.371,10.76 1.201,11.723 c -0.512,2.873 -0.206,5.793 -0.289,8.685 -0.02,0.724 0.145,0.95 0.623,0.954 1.195,0 2.388,0.083 3.583,0.162 1.553,0.107 3.104,0.229 4.655,0.372 0.576,0.055 1.149,0.206 1.727,0.289 0.17,0.027 0.342,-0.024 0.576,-0.044 C 8.911,16.958 5.486,12.431 1.569,8.525 z"
   id="path3467"
   inkscape:connector-curvature="0"
   style="fill:#9e6a36;fill-rule:evenodd" />
	<path
   clip-rule="evenodd"
   d="m 43.162,19.794 c 0,0 2.833,1.796 3.452,1.828 0.623,0.036 15.322,-1.413 15.427,2.192 0.107,3.608 -1.996,1.437 -1.996,1.437 0,0 -3.66,0.744 -4.212,0.649 -0.552,-0.099 -5.801,-0.202 -6.04,-0.167 -0.243,0.032 -1.657,-0.138 -2.002,-0.103 -0.346,0.031 -4.629,-5.698 -4.629,-5.698"
   id="path3469"
   inkscape:connector-curvature="0"
   style="fill:#9e6a36;fill-rule:evenodd" />
	<path
   clip-rule="evenodd"
   d="m 62.934,25.718 c -0.002,-0.008 -0.006,-0.012 -0.008,-0.02 0,0 -0.016,0.004 -0.021,0.008 -2.659,-1.045 -9.542,1.638 -9.542,1.638 0,0 -8.275,1.982 -13.656,1.943 -0.954,-0.008 -1.533,-0.004 -1.917,-0.02 -0.268,-0.056 -0.534,-0.115 -0.802,-0.174 -0.486,-0.329 -0.928,-1.234 -8.208,-3.798 -3.142,-1.104 -5.931,-1.824 -8.341,-2.283 -0.075,-0.023 -0.152,-0.04 -0.224,-0.059 -0.123,-0.032 -0.243,-0.079 -0.37,-0.135 -0.601,-0.079 -1.199,-0.178 -1.798,-0.281 -0.01,0 -0.02,0.004 -0.031,0.004 -0.574,-0.043 -1.147,-0.111 -1.719,-0.182 -0.999,-0.087 -1.999,-0.17 -2.996,-0.261 -0.123,-0.012 -0.247,-0.02 -0.37,-0.032 -0.184,0.024 -0.331,0.052 -0.475,0.032 -0.273,-0.04 -0.544,-0.095 -0.819,-0.146 -0.154,-0.016 -0.309,-0.031 -0.461,-0.043 -6.066,-1.183 -8.629,-1.139 -9.71,-0.906 -0.17,0.008 -0.332,0.059 -0.482,0.15 -0.283,0.13 -0.305,0.253 -0.305,0.253 l 0,0 C 0.271,21.852 0,22.624 0,23.502 v 5.239 c 0,1.381 0.665,2.5 1.49,2.5 h 15.936 c 0.823,0 1.49,-1.12 1.49,-2.5 v -1.769 c 2.081,0.582 8.131,2.307 13.916,4.325 0.33,0.126 0.658,0.245 0.987,0.372 0.953,0.356 1.911,0.705 2.87,1.037 0.02,0.012 0.038,0.02 0.06,0.028 0,0 0.041,0.016 0.127,0.04 0.079,0.028 0.158,0.06 0.237,0.087 0.134,0.044 0.272,0.067 0.411,0.079 0.556,0.123 1.421,0.258 2.627,0.312 l 0.002,0.017 c 0.754,0 1.514,0.039 2.268,-0.009 0.056,-0.004 0.108,-0.008 0.166,-0.012 1.019,-0.047 2.179,-0.146 3.49,-0.324 0.914,-0.115 1.824,-0.289 2.731,-0.479 1.217,-0.257 2.432,-0.526 3.648,-0.835 0.817,-0.21 1.634,-0.495 2.453,-0.748 0.034,-0.008 0.071,-0.012 0.107,-0.02 0.979,-0.174 1.962,-0.312 2.936,-0.53 0.893,-0.202 1.776,-0.491 2.663,-0.736 0.106,-0.032 0.215,-0.048 0.322,-0.063 0.77,-0.139 1.535,-0.269 2.301,-0.419 0.191,-0.036 0.35,-0.316 0.434,-0.665 0.567,-1.528 0.17,-2.344 -0.738,-2.711 z"
   id="path3471"
   inkscape:connector-curvature="0"
   style="fill:#25333a;fill-rule:evenodd" />
</g>
</svg>