<?xml version="1.0" encoding="utf-8"?>
<!-- Generator: Adobe Illustrator 16.0.0, SVG Export Plug-In . SVG Version: 6.00 Build 0)  -->
<!DOCTYPE svg PUBLIC "-//W3C//DTD SVG 1.1//EN" "http://www.w3.org/Graphics/SVG/1.1/DTD/svg11.dtd">
<svg version="1.1" id="Layer_1" xmlns="http://www.w3.org/2000/svg" xmlns:xlink="http://www.w3.org/1999/xlink" x="0px" y="0px"
	 width="64px" height="64px" viewBox="0 0 64 64" enable-background="new 0 0 64 64" xml:space="preserve">
<g>
	<path fill="#98A9B4" d="M31.951,0C14.333,0,0,14.336,0,31.952C0,49.57,14.333,63.904,31.951,63.904
		c17.622,0,31.954-14.334,31.954-31.952C63.904,14.336,49.572,0,31.951,0z M31.951,55.985c-13.25,0-24.032-10.78-24.032-24.033
		c0-13.249,10.782-24.033,24.032-24.033c13.254,0,24.035,10.784,24.035,24.033C55.985,45.205,45.205,55.985,31.951,55.985z"/>
	<path fill="#98A9B4" d="M50.823,28.031c0,0-2.733-2.081-2.316-6.259c0.419-4.183-2.707-4.069-2.707-4.069l-7.822,5.869
		c1.56-4.247,3.396-10.139,2.305-11.838c-1.76-2.738-5.846,0-5.846,0s-2.953,1.765-6.679-0.191
		c-3.708-1.959-4.778,0.975-4.778,0.975l2.879,10.877c-3.437-2.734-7.869-5.846-9.684-5.398c-3.165,0.774-1.896,5.529-1.896,5.529
		s0.707,3.363-2.352,6.244c-3.052,2.88-0.625,4.847-0.625,4.847l9.333,0.662c-3.313,2.871-7.174,6.626-7.076,8.495
		c0.178,3.243,5.083,2.888,5.083,2.888s3.44-0.071,5.707,3.464c2.261,3.532,4.641,1.513,4.641,1.513l3.278-12.394
		c1.011,4.031,3.465,12.807,5.792,13.723c3.033,1.188,4.741-3.421,4.741-3.421s1.373-3.159,5.529-3.748
		c4.158-0.585,3.309-3.593,3.309-3.593l-8.004-6.563c4.043-0.251,8.425-0.826,9.387-2.197C54.9,30.788,50.823,28.031,50.823,28.031z
		"/>
</g>
</svg>
