<?xml version="1.0" encoding="UTF-8" standalone="no"?>
<!-- Generator: Adobe Illustrator 16.0.0, SVG Export Plug-In . SVG Version: 6.00 Build 0)  -->

<svg
   xmlns:dc="http://purl.org/dc/elements/1.1/"
   xmlns:cc="http://creativecommons.org/ns#"
   xmlns:rdf="http://www.w3.org/1999/02/22-rdf-syntax-ns#"
   xmlns:svg="http://www.w3.org/2000/svg"
   xmlns="http://www.w3.org/2000/svg"
   xmlns:sodipodi="http://sodipodi.sourceforge.net/DTD/sodipodi-0.dtd"
   xmlns:inkscape="http://www.inkscape.org/namespaces/inkscape"
   version="1.1"
   id="Layer_1"
   x="0px"
   y="0px"
   width="64px"
   height="64px"
   viewBox="0 0 64 64"
   enable-background="new 0 0 64 64"
   xml:space="preserve"
   inkscape:version="0.48.5 r10040"
   sodipodi:docname="1F4F7.svg"
   inkscape:export-filename="D:\TESTINGEMOJI\SVGTEST\1F4F7.png"
   inkscape:export-xdpi="90"
   inkscape:export-ydpi="90"><metadata
   id="metadata4867"><rdf:RDF><cc:Work
       rdf:about=""><dc:format>image/svg+xml</dc:format><dc:type
         rdf:resource="http://purl.org/dc/dcmitype/StillImage" /><dc:title></dc:title></cc:Work></rdf:RDF></metadata><defs
   id="defs4865" /><sodipodi:namedview
   pagecolor="#ffffff"
   bordercolor="#666666"
   borderopacity="1"
   objecttolerance="10"
   gridtolerance="10"
   guidetolerance="10"
   inkscape:pageopacity="0"
   inkscape:pageshadow="2"
   inkscape:window-width="640"
   inkscape:window-height="480"
   id="namedview4863"
   showgrid="false"
   inkscape:zoom="3.6875"
   inkscape:cx="32"
   inkscape:cy="32"
   inkscape:window-x="754"
   inkscape:window-y="299"
   inkscape:window-maximized="0"
   inkscape:current-layer="Layer_1" />
<g
   id="g4819">
	<g
   id="g4821">
		<path
   fill="#25333A"
   d="M16.061,14.251c-2.614,0-5.228,0-7.844,0c-1.663,0-3.325,0-4.992,0c-0.106,0-0.194,0.052-0.194,0.114    c0,1.555,0,3.112,0,4.67c0,0.887,0,1.776,0,2.67c0,0.062,0.088,0.114,0.194,0.114c2.616,0,5.231,0,7.846,0c1.665,0,3.327,0,4.99,0    c0.058,0,0.102-0.012,0.132-0.03l0.006-0.004c0,0,0.004,0,0.004-0.002c0.034-0.018,0.054-0.046,0.054-0.078    c0-1.555,0-3.112,0-4.667c0-0.891,0-1.78,0-2.674C16.257,14.303,16.169,14.251,16.061,14.251z"
   id="path4823" />
	</g>
	<g
   id="g4825">
		<path
   fill="#405866"
   d="M63.129,17.335c-12.67,0-25.339,0-38.009,0c-8.057,0-16.119,0-24.176,0C0.428,17.335,0,17.589,0,17.889    c0,7.538,0,15.076,0,22.621c0,4.307,0,8.627,0,12.939c0,0.3,0.428,0.552,0.943,0.552c12.666,0,25.337,0,38.01,0    c8.063,0,16.117,0,24.176,0c0.278,0,0.494-0.062,0.645-0.147c0,0,0.013-0.008,0.021-0.017c0.013,0,0.019-0.008,0.024-0.021    c0.152-0.084,0.255-0.209,0.255-0.367c0-7.541,0-15.077,0-22.619c0-4.313,0-8.627,0-12.941    C64.072,17.589,63.643,17.335,63.129,17.335z"
   id="path4827" />
	</g>
	<g
   id="g4829">
		<path
   fill="#354A54"
   d="M63.27,23.392c-10.81,0-21.621,0-32.428,0c-6.875,0-13.751,0-20.627,0c-0.438,0-0.803,0.212-0.803,0.461    c0,6.292,0,12.584,0,18.883c0,3.598,0,7.203,0,10.805c0,0.252,0.366,0.46,0.803,0.46c10.807,0,21.619,0,32.428,0    c6.879,0,13.752,0,20.629,0c0.234,0,0.418-0.049,0.547-0.124c0,0,0.011-0.009,0.017-0.014c0,0,0.019-0.008,0.022-0.016    c0.131-0.072,0.217-0.176,0.217-0.308c0-6.295,0-12.587,0-18.884c0-3.6,0-7.202,0-10.804    C64.072,23.604,63.705,23.392,63.27,23.392z"
   id="path4831" />
	</g>
	<g
   id="g4833">
		<path
   fill="#56787F"
   d="M61.68,20.468c-2.615,0-5.229,0-7.845,0c-1.663,0-3.325,0-4.992,0c-0.104,0-0.194,0.052-0.194,0.114    c0,1.555,0,3.111,0,4.67c0,0.888,0,1.777,0,2.67c0,0.062,0.09,0.114,0.194,0.114c2.616,0,5.231,0,7.847,0c1.664,0,3.326,0,4.99,0    c0.057,0,0.102-0.012,0.131-0.03l0.006-0.004c0,0,0.004,0,0.004-0.002c0.035-0.018,0.055-0.046,0.055-0.078    c0-1.555,0-3.111,0-4.666c0-0.892,0-1.781,0-2.674C61.874,20.521,61.786,20.468,61.68,20.468z"
   id="path4835" />
	</g>
	<g
   id="g4837">
		<path
   fill="#D1D2D3"
   d="M45.27,35.668c0,7.186-5.822,13.001-13,13.001s-13-5.815-13-13.001c0-7.182,5.823-12.997,13-12.997    S45.27,28.486,45.27,35.668z"
   id="path4839" />
	</g>
	<g
   id="g4841">
		<path
   fill="#A7A8AC"
   d="M43.948,35.668c0,6.453-5.231,11.678-11.678,11.678s-11.677-5.225-11.677-11.678    s5.23-11.676,11.677-11.676S43.948,29.215,43.948,35.668z"
   id="path4843" />
	</g>
	<g
   id="g4845">
		<path
   fill="#1E75BB"
   d="M42.666,35.668c0,5.744-4.656,10.395-10.396,10.395c-5.737,0-10.394-4.649-10.394-10.395    c0-5.743,4.656-10.394,10.394-10.394C38.01,25.274,42.666,29.925,42.666,35.668z"
   id="path4847" />
	</g>
	<g
   id="g4849">
		<g
   id="g4851">
			<path
   fill="#57C6E9"
   d="M41.383,35.668c0,5.034-4.078,9.115-9.113,9.115c-5.032,0-9.111-4.081-9.111-9.115     c0-5.031,4.079-9.11,9.111-9.11C37.305,26.558,41.383,30.637,41.383,35.668z"
   id="path4853" />
		</g>
		<g
   id="g4855">
			<path
   fill="#27A8E0"
   d="M27.494,38.311c-1.615-3.463-1.687-7.191-0.228-10.273c-2.472,1.626-4.107,4.428-4.107,7.611     c0,5.033,4.079,9.113,9.111,9.113c0.09,0,0.178-0.013,0.268-0.015C30.45,42.986,28.689,40.872,27.494,38.311z"
   id="path4857" />
		</g>
	</g>
	<g
   id="g4859">
		<path
   fill="#57C6E9"
   d="M61.239,19.873c-2.438,0-4.87,0-7.308,0c-1.549,0-3.098,0-4.647,0c-0.101,0-0.183,0.048-0.183,0.106    c0,1.449,0,2.897,0,4.351c0,0.825,0,1.654,0,2.486c0,0.058,0.082,0.106,0.183,0.106c2.437,0,4.872,0,7.307,0    c1.552,0,3.101,0,4.648,0c0.054,0,0.094-0.012,0.12-0.028l0.007-0.004c0,0,0.005,0,0.005-0.002c0.031-0.016,0.05-0.042,0.05-0.072    c0-1.449,0-2.898,0-4.347c0-0.829,0-1.659,0-2.49C61.421,19.921,61.339,19.873,61.239,19.873z"
   id="path4861" />
	</g>
</g>
</svg>