<?xml version="1.0" encoding="UTF-8" standalone="no"?>
<!-- Generator: Adobe Illustrator 16.0.0, SVG Export Plug-In . SVG Version: 6.00 Build 0)  -->

<svg
   xmlns:dc="http://purl.org/dc/elements/1.1/"
   xmlns:cc="http://creativecommons.org/ns#"
   xmlns:rdf="http://www.w3.org/1999/02/22-rdf-syntax-ns#"
   xmlns:svg="http://www.w3.org/2000/svg"
   xmlns="http://www.w3.org/2000/svg"
   xmlns:sodipodi="http://sodipodi.sourceforge.net/DTD/sodipodi-0.dtd"
   xmlns:inkscape="http://www.inkscape.org/namespaces/inkscape"
   version="1.1"
   id="Layer_1"
   x="0px"
   y="0px"
   width="64px"
   height="64px"
   viewBox="0 0 64 64"
   enable-background="new 0 0 64 64"
   xml:space="preserve"
   inkscape:version="0.48.5 r10040"
   sodipodi:docname="1F690.svg"
   inkscape:export-filename="D:\TESTINGEMOJI\SVGTEST\1F690.png"
   inkscape:export-xdpi="90"
   inkscape:export-ydpi="90"><metadata
   id="metadata4616"><rdf:RDF><cc:Work
       rdf:about=""><dc:format>image/svg+xml</dc:format><dc:type
         rdf:resource="http://purl.org/dc/dcmitype/StillImage" /><dc:title></dc:title></cc:Work></rdf:RDF></metadata><defs
   id="defs4614" /><sodipodi:namedview
   pagecolor="#ffffff"
   bordercolor="#666666"
   borderopacity="1"
   objecttolerance="10"
   gridtolerance="10"
   guidetolerance="10"
   inkscape:pageopacity="0"
   inkscape:pageshadow="2"
   inkscape:window-width="640"
   inkscape:window-height="480"
   id="namedview4612"
   showgrid="false"
   inkscape:zoom="3.6875"
   inkscape:cx="32"
   inkscape:cy="32"
   inkscape:window-x="271"
   inkscape:window-y="155"
   inkscape:window-maximized="0"
   inkscape:current-layer="Layer_1" />
<g
   id="g4578"
   transform="translate(0,4)">
	<path
   d="m 62.021,33.895 c 0,1.453 -1.115,2.633 -2.49,2.633 H 9.475 c -1.375,0 -2.49,-1.18 -2.49,-2.633 L 20.584,17.37 c 1.29,-1.601 2.872,-2.632 4.245,-2.632 l 34.303,-1.109 c 1.374,0 2.487,1.179 2.487,2.632 l 0.402,17.634 z"
   id="path4580"
   inkscape:connector-curvature="0"
   style="fill:#bfbdbe" />
	<path
   d="m 59.171,18.662 c 0,-1.452 -1.062,-2.632 -2.373,-2.632 L 36.714,16.711 H 36.712 35.69 V 38.932 H 52.561 56 57.18 c 1.312,0 2.373,-1.182 2.373,-2.633 L 59.171,18.662 z"
   id="path4582"
   inkscape:connector-curvature="0"
   style="fill:#46848f" />
	<path
   d="M 33.439,16.706 27.671,16.8 c -1.066,0 -3.181,0.757 -4.177,1.926 l -9.646,12.097 c 0,1.066 0.864,1.93 1.93,1.93 H 33.4 l 0.039,-16.047 z"
   id="path4584"
   inkscape:connector-curvature="0"
   style="fill:#46848f" />
	<path
   d="m 26.14,30.302 c 0.237,-5.14 2.076,-9.646 4.642,-13.576 l -3.167,0.053 c -1.066,0 -3.181,0.755 -4.179,1.922 l -9.642,12.1 c 0,1.068 0.864,1.927 1.926,1.927 h 10.448 c -0.047,-0.79 -0.067,-1.593 -0.028,-2.426 z"
   id="path4586"
   inkscape:connector-curvature="0"
   style="fill:#83afb7" />
	<path
   d="m 62.502,39.688 c 0,5.209 -2.841,9.438 -6.347,9.438 H 8.206 C 4.7,49.126 1.86,44.897 1.86,39.688 l 0,0 c 0,-5.215 2.84,-9.44 6.346,-9.44 h 47.949 c 3.506,0 6.347,4.225 6.347,9.44 l 0,0 z"
   id="path4588"
   inkscape:connector-curvature="0"
   style="fill:#d1d2d2" />
	<path
   d="m 64,43.989 c 0,2.836 -3,5.138 -6.698,5.138 H 6.7 C 3,49.127 0,46.825 0,43.989 l 0,0 c 0,-2.839 3,-5.14 6.7,-5.14 H 57.302 C 61,38.852 64,41.15 64,43.989 l 0,0 z"
   id="path4590"
   inkscape:connector-curvature="0"
   style="fill:#bfbdbe" />
	<path
   d="m 21.413,49.127 c 0,4.171 -3.387,7.561 -7.568,7.561 -4.169,0 -7.556,-3.39 -7.556,-7.561 0,-4.177 3.387,-7.561 7.556,-7.561 4.18,0 7.568,3.384 7.568,7.561 z"
   id="path4592"
   inkscape:connector-curvature="0"
   style="fill:#ffffff" />
	<path
   d="m 57.743,49.043 c 0,4.174 -3.386,7.561 -7.566,7.561 -4.169,0 -7.556,-3.387 -7.556,-7.561 0,-4.177 3.387,-7.561 7.556,-7.561 4.18,0 7.566,3.384 7.566,7.561 z"
   id="path4594"
   inkscape:connector-curvature="0"
   style="fill:#ffffff" />
	<path
   d="m 20.07,49.127 c 0,3.43 -2.784,6.217 -6.222,6.217 -3.428,0 -6.214,-2.787 -6.214,-6.217 0,-3.434 2.786,-6.218 6.214,-6.218 3.438,0 6.222,2.784 6.222,6.218 z"
   id="path4596"
   inkscape:connector-curvature="0"
   style="fill:#243438" />
	<path
   d="m 17.881,49.041 c 0,2.227 -1.804,4.031 -4.033,4.031 -2.22,0 -4.029,-1.807 -4.029,-4.031 0,-2.224 1.81,-4.027 4.029,-4.027 2.23,0 4.033,1.802 4.033,4.027 z"
   id="path4598"
   inkscape:connector-curvature="0"
   style="fill:#969796" />
	<path
   d="m 56.404,49.127 c 0,3.43 -2.785,6.217 -6.225,6.217 -3.43,0 -6.216,-2.787 -6.216,-6.217 0,-3.434 2.786,-6.218 6.216,-6.218 3.44,0 6.225,2.784 6.225,6.218 z"
   id="path4600"
   inkscape:connector-curvature="0"
   style="fill:#243438" />
	<path
   d="m 54.214,49.041 c 0,2.227 -1.804,4.031 -4.032,4.031 -2.221,0 -4.029,-1.807 -4.029,-4.031 0,-2.224 1.81,-4.027 4.029,-4.027 2.228,0 4.032,1.802 4.032,4.027 z"
   id="path4602"
   inkscape:connector-curvature="0"
   style="fill:#969796" />
	<path
   d="m 3.922,38.323 c 0,2.247 -0.669,4.071 -1.498,4.071 l 0,0 C 1.599,42.394 0.93,40.57 0.93,38.323 v -0.091 c 0,-2.25 0.669,-4.07 1.494,-4.07 l 0,0 c 0.829,0 1.498,1.82 1.498,4.07 v 0.091 z"
   id="path4604"
   inkscape:connector-curvature="0"
   style="fill:#f1f1f1" />
	<path
   d="m 64,38.895 c 0,2.248 -0.669,4.068 -1.498,4.068 l 0,0 c -0.825,0 -1.496,-1.82 -1.496,-4.068 v -0.092 c 0,-2.252 0.671,-4.07 1.496,-4.07 l 0,0 c 0.829,0 1.498,1.818 1.498,4.07 v 0.092 z"
   id="path4606"
   inkscape:connector-curvature="0"
   style="fill:#e3e4e3" />
	<path
   d="m 33.572,38.787 -1.993,9.107 c -0.13,0.592 0.226,1.201 0.794,1.356 0.568,0.16 1.134,-0.19 1.264,-0.784 l 2.117,-9.68 h -2.182 z"
   id="path4608"
   inkscape:connector-curvature="0"
   style="fill:#ffffff" />
	<path
   d="m 20.564,17.65 c 1.288,-1.601 2.87,-2.632 4.246,-2.632 l 34.301,-1.109 c 1.375,0 2.488,1.179 2.488,2.632 l 0.353,15.461 c 0.149,-0.346 0.247,-0.72 0.247,-1.128 L 61.82,13.24 c 0,-1.453 -1.053,-6.617 -2.357,-6.617 L 26.992,7.732 c -1.3,0 -2.798,5.016 -4.016,6.617 l -5.443,6.982 3.031,-3.681 z"
   id="path4610"
   inkscape:connector-curvature="0"
   style="fill:#d1d2d2" />
</g>
</svg>