<?xml version="1.0" encoding="UTF-8" standalone="no"?>
<!-- Generator: Adobe Illustrator 16.0.0, SVG Export Plug-In . SVG Version: 6.00 Build 0)  -->

<svg
   xmlns:dc="http://purl.org/dc/elements/1.1/"
   xmlns:cc="http://creativecommons.org/ns#"
   xmlns:rdf="http://www.w3.org/1999/02/22-rdf-syntax-ns#"
   xmlns:svg="http://www.w3.org/2000/svg"
   xmlns="http://www.w3.org/2000/svg"
   xmlns:sodipodi="http://sodipodi.sourceforge.net/DTD/sodipodi-0.dtd"
   xmlns:inkscape="http://www.inkscape.org/namespaces/inkscape"
   version="1.1"
   id="Layer_1"
   x="0px"
   y="0px"
   width="64px"
   height="64px"
   viewBox="0 0 64 64"
   enable-background="new 0 0 64 64"
   xml:space="preserve"
   inkscape:version="0.48.5 r10040"
   sodipodi:docname="1F6B6.svg"
   inkscape:export-filename="D:\TESTINGEMOJI\SVGTEST\1F6B6.png"
   inkscape:export-xdpi="90"
   inkscape:export-ydpi="90"><metadata
   id="metadata7131"><rdf:RDF><cc:Work
       rdf:about=""><dc:format>image/svg+xml</dc:format><dc:type
         rdf:resource="http://purl.org/dc/dcmitype/StillImage" /><dc:title></dc:title></cc:Work></rdf:RDF></metadata><defs
   id="defs7129" /><sodipodi:namedview
   pagecolor="#ffffff"
   bordercolor="#666666"
   borderopacity="1"
   objecttolerance="10"
   gridtolerance="10"
   guidetolerance="10"
   inkscape:pageopacity="0"
   inkscape:pageshadow="2"
   inkscape:window-width="640"
   inkscape:window-height="480"
   id="namedview7127"
   showgrid="false"
   inkscape:zoom="3.6875"
   inkscape:cx="32"
   inkscape:cy="32"
   inkscape:window-x="533"
   inkscape:window-y="278"
   inkscape:window-maximized="0"
   inkscape:current-layer="Layer_1" />
<g
   id="g7083"
   transform="translate(14,0)">
	<path
   d="M 3.265,26.688 C 1,28.377 -0.145,30.663 0.697,31.792 l 0,0 C 1.54,32.921 4.06,32.47 6.32,30.777 l 8.409,-6.283 c 2.262,-1.689 3.409,-3.973 2.567,-5.107 l 0,0 c -0.844,-1.13 -3.367,-0.678 -5.629,1.011 l -8.402,6.29 z"
   id="path7085"
   inkscape:connector-curvature="0"
   style="fill:#e79d3d" />
	<path
   d="m 10.22,26.491 c 0,-0.509 0.338,-4.491 0.519,-5.966 l 1.518,-0.756 c 2.527,-1.257 5.089,-1.249 5.716,0.012 0.625,1.266 -0.912,3.308 -3.44,4.565 l -4.313,2.145 z"
   id="path7087"
   inkscape:connector-curvature="0"
   style="fill:#249561" />
	<path
   d="m 22.781,35.12 c 0,3.336 -2.282,6.04 -5.099,6.04 l 0,0 c -2.813,0 -5.098,-2.704 -5.098,-6.04 v -12.4 c 0,-3.336 2.285,-6.04 5.098,-6.04 l 0,0 c 2.816,0 5.099,2.704 5.099,6.04 v 12.4 z"
   id="path7089"
   inkscape:connector-curvature="0"
   style="fill:#28b473" />
	<path
   d="m 21.594,38.954 c 0.731,-1.044 1.188,-2.371 1.188,-3.834 v -12.4 c 0,-1.804 -0.682,-3.406 -1.738,-4.512 -4.683,3.854 -3.709,15.363 0.55,20.746 z"
   id="path7091"
   inkscape:connector-curvature="0"
   style="fill:#249561" />
	<path
   d="m 11.372,57.824 c -1.75,3.534 -4.443,5.765 -6.015,4.988 l 0,0 C 3.792,62.032 3.943,58.539 5.694,55.009 l 6.522,-13.144 c 1.752,-3.529 4.446,-5.768 6.011,-4.987 l 0,0 c 1.565,0.776 1.417,4.272 -0.335,7.802 l -6.52,13.144 z"
   id="path7093"
   inkscape:connector-curvature="0"
   style="fill:#193e6b" />
	<path
   d="m 0.051,58.811 c -0.365,0.735 1.254,2.284 3.627,3.46 2.368,1.175 4.581,1.532 4.946,0.793 C 8.992,62.324 7.976,59.555 5.607,58.379 3.236,57.204 0.418,58.071 0.051,58.811 z"
   id="path7095"
   inkscape:connector-curvature="0"
   style="fill:#d1d2d2" />
	<g
   id="g7097">
		<path
   d="m 31.973,53.375 c 2.233,2.995 2.835,6.327 1.335,7.44 l 0,0 c -1.496,1.122 -4.52,-0.398 -6.752,-3.394 L 18.243,46.286 c -2.238,-2.99 -2.835,-6.327 -1.34,-7.444 l 0,0 c 1.499,-1.113 4.522,0.406 6.758,3.397 l 8.312,11.136 z"
   id="path7099"
   inkscape:connector-curvature="0"
   style="fill:#1c447d" />
		<path
   d="m 27.509,63.617 c 0.495,0.658 2.607,-0.09 4.731,-1.672 2.116,-1.582 3.433,-3.394 2.941,-4.055 -0.492,-0.658 -3.422,-1.007 -5.54,0.575 -2.121,1.582 -2.621,4.491 -2.132,5.152 z"
   id="path7101"
   inkscape:connector-curvature="0"
   style="fill:#d1d2d2" />
	</g>
	<path
   d="m 12.142,42.109 c 2.311,0 4.513,0 6.822,0 1.471,0 2.942,0 4.411,0 0.092,0 -0.503,-6.299 -0.503,-7.153 0,-0.058 -4.796,-0.106 -7.109,-0.106 -1.471,0 -3.214,-0.005 -3.216,0 0,0 -0.5,7.259 -0.405,7.259 z"
   id="path7103"
   inkscape:connector-curvature="0"
   style="fill:#1c447d" />
	<path
   d="m 13.029,34.85 c -0.29,0 -0.482,0 -0.482,0 0,0 -0.5,7.26 -0.405,7.26 h 4.065 c -1.77,-1.994 -2.6,-4.557 -3.178,-7.26 z"
   id="path7105"
   inkscape:connector-curvature="0"
   style="fill:#193e6b" />
	<path
   d="m 14.625,18.767 c 1.132,-0.14 4.782,-0.583 5.501,-0.67 0.045,-0.004 -0.628,-3.082 -0.678,-3.5 -0.005,-0.033 -5.062,0.555 -5.062,0.555 0,0 0.195,3.619 0.239,3.615 z"
   id="path7107"
   inkscape:connector-curvature="0"
   style="fill:#249561" />
	<g
   id="g7109">
		<path
   d="m 32.031,28.759 c 1.859,2.121 2.506,4.594 1.446,5.527 l 0,0 c -1.06,0.925 -3.426,-0.037 -5.287,-2.161 l -6.925,-7.894 c -1.857,-2.122 -2.504,-4.598 -1.445,-5.53 l 0,0 c 1.062,-0.929 3.435,0.041 5.297,2.161 l 6.914,7.897 z"
   id="path7111"
   inkscape:connector-curvature="0"
   style="fill:#fbb042" />
		<path
   d="m 24.442,27.855 c 0.191,-0.469 1.396,-4.281 1.787,-5.719 l -1.113,-1.274 c -1.862,-2.12 -4.235,-3.09 -5.297,-2.161 -1.059,0.933 -0.412,3.408 1.445,5.53 l 3.178,3.624 z"
   id="path7113"
   inkscape:connector-curvature="0"
   style="fill:#28b473" />
	</g>
	<g
   id="g7115">
		<g
   id="g7117">
			<path
   d="m 17.409,3.528 c -3.028,-1.114 -4.562,-1.902 -6.288,1.093 -1.346,2.338 -2.597,5.156 -2.35,7.95 0.261,2.975 4.249,4.149 6.697,4.162 2.851,0.012 5.958,-1.352 6.473,-4.45 0.614,-3.709 -0.433,-7.247 -4.532,-8.755 z"
   id="path7119"
   inkscape:connector-curvature="0"
   style="fill:#fbb042" />
			<path
   d="m 15.829,9.26 c 0.092,0.871 -0.419,1.639 -1.136,1.713 -0.721,0.078 -1.377,-0.567 -1.468,-1.442 -0.092,-0.871 0.416,-1.644 1.137,-1.717 0.717,-0.079 1.373,0.571 1.467,1.446 z"
   id="path7121"
   inkscape:connector-curvature="0"
   style="fill:#25333a" />
			<path
   d="m 11.165,9.161 c 0.077,0.723 -0.346,1.36 -0.941,1.421 C 9.624,10.648 9.08,10.11 9.009,9.387 8.929,8.664 9.35,8.027 9.95,7.961 c 0.591,-0.061 1.14,0.477 1.215,1.2 z"
   id="path7123"
   inkscape:connector-curvature="0"
   style="fill:#25333a" />
		</g>
		<path
   d="M 23.132,4.473 C 23.526,4.391 23.863,4.228 23.715,3.91 22.999,2.39 21.262,1.539 19.647,1.342 18.708,1.227 17.629,1.461 16.754,1.1 15.65,0.656 12.105,-0.1 11.835,0.011 9.693,0.886 6.295,3.618 6.748,6.264 6.854,6.893 8.801,6.203 8.841,6.17 8.836,6.178 8.833,6.187 8.826,6.199 c 0,0 0.812,4.557 2.04,0.008 0.255,-0.945 0.862,-1.767 1.487,-2.481 0.286,-0.045 0.569,-0.074 0.85,-0.095 0.362,0.099 0.731,0.115 1.07,0.017 0.51,0.065 0.952,0.23 1.239,0.534 0.558,0.591 0.58,1.799 0.668,2.547 0.029,0.226 0.349,0.337 0.729,0.35 1.348,0.698 3.661,2.855 4.218,2.699 1.992,-0.546 3.725,-0.933 3.865,-1.594 0.387,-1.829 -0.802,-2.598 -1.86,-3.711 z"
   id="path7125"
   inkscape:connector-curvature="0"
   style="fill:#633d19" />
	</g>
</g>
</svg>