<?xml version="1.0" encoding="UTF-8" standalone="no"?>
<!-- Generator: Adobe Illustrator 16.0.0, SVG Export Plug-In . SVG Version: 6.00 Build 0)  -->

<svg
   xmlns:dc="http://purl.org/dc/elements/1.1/"
   xmlns:cc="http://creativecommons.org/ns#"
   xmlns:rdf="http://www.w3.org/1999/02/22-rdf-syntax-ns#"
   xmlns:svg="http://www.w3.org/2000/svg"
   xmlns="http://www.w3.org/2000/svg"
   xmlns:sodipodi="http://sodipodi.sourceforge.net/DTD/sodipodi-0.dtd"
   xmlns:inkscape="http://www.inkscape.org/namespaces/inkscape"
   version="1.1"
   id="Layer_1"
   x="0px"
   y="0px"
   width="64px"
   height="64px"
   viewBox="0 0 64 64"
   enable-background="new 0 0 64 64"
   xml:space="preserve"
   inkscape:version="0.48.5 r10040"
   sodipodi:docname="1F6BD.svg"
   inkscape:export-filename="D:\TESTINGEMOJI\SVGTEST\1F6BD.png"
   inkscape:export-xdpi="90"
   inkscape:export-ydpi="90"><metadata
   id="metadata7457"><rdf:RDF><cc:Work
       rdf:about=""><dc:format>image/svg+xml</dc:format><dc:type
         rdf:resource="http://purl.org/dc/dcmitype/StillImage" /><dc:title></dc:title></cc:Work></rdf:RDF></metadata><defs
   id="defs7455" /><sodipodi:namedview
   pagecolor="#ffffff"
   bordercolor="#666666"
   borderopacity="1"
   objecttolerance="10"
   gridtolerance="10"
   guidetolerance="10"
   inkscape:pageopacity="0"
   inkscape:pageshadow="2"
   inkscape:window-width="640"
   inkscape:window-height="480"
   id="namedview7453"
   showgrid="false"
   inkscape:zoom="3.6875"
   inkscape:cx="32"
   inkscape:cy="32"
   inkscape:window-x="497"
   inkscape:window-y="272"
   inkscape:window-maximized="0"
   inkscape:current-layer="Layer_1" />
<g
   id="g7431"
   transform="translate(4,0)">
	<path
   d="m 56.881,25.189 c 0,6.779 -5.527,12.278 -12.343,12.278 l 0,0 c -6.816,0 -12.341,-5.499 -12.341,-12.278 V 12.277 C 32.197,5.499 37.722,0 44.538,0 l 0,0 c 6.815,0 12.343,5.499 12.343,12.277 v 12.912 z"
   id="path7433"
   inkscape:connector-curvature="0"
   style="fill:#e7e6e6" />
	<path
   d="m 50.671,35.846 c 0,0 -5.824,2.455 -6.133,12.609 0,0 -2.421,-1.601 -2.321,-2.301 0.1,-0.702 -0.756,-8.688 -0.756,-8.688 l 4.073,-2.727 5.137,1.107 z"
   id="path7435"
   inkscape:connector-curvature="0"
   style="fill:#e7e6e6" />
	<path
   d="m 3.989,33.173 c 0,0 2.998,-2.541 4.7,-3.063 h 29.568 l 0.889,3.575 H 21.57 L 3.989,33.173 z"
   id="path7437"
   inkscape:connector-curvature="0"
   style="fill:#e7e6e6" />
	<path
   d="m 16.309,49.657 c 0,0 -6.874,8.521 -6.556,13.885 H 44.539 V 32.634 H 30.661 L 16.309,49.657 z"
   id="path7439"
   inkscape:connector-curvature="0"
   style="fill:#a7a8ac" />
	<path
   d="m 3.321,35.461 0.853,-2.827 h 30.575 c 0,0 0.907,2.933 1.407,3.879 0.577,1.091 0.54,1.875 -0.06,1.138 0,0 -3.621,4.885 -3.906,4.885 -0.284,0 -23.969,1.426 -24.178,1.632 -0.211,0.208 -4.691,-8.707 -4.691,-8.707 z"
   id="path7441"
   inkscape:connector-curvature="0"
   style="fill:#aeacac" />
	<path
   d="M 35.581,34.74 C 20.227,37.648 6.676,35.457 5.158,35.04 4.959,35.019 3.396,34.151 3.199,34.118 3.197,34.125 3.105,34.868 3.103,34.879 -9.312,54.98 19.543,54.214 19.543,54.214 43.296,53.006 35.581,34.74 35.581,34.74 z"
   id="path7443"
   inkscape:connector-curvature="0"
   style="fill:#e7e6e6" />
	<path
   d="M 43.909,32.634 H 1.224 c 0,0 -1.644,1.245 1.212,2.106 h 40.607 l 0.866,-2.106 z"
   id="path7445"
   inkscape:connector-curvature="0"
   style="fill:#808284" />
	<path
   d="M 53.691,1.944 H 36.634 c 0,0 -0.658,1.248 0.481,2.109 h 16.231 l 0.345,-2.109 z"
   id="path7447"
   inkscape:connector-curvature="0"
   style="fill:#a7a8ac" />
	<path
   d="M 30.731,27.151 H 7.27 c 0,0 -0.899,2.07 0.668,3.505 h 22.316 l 0.477,-3.505 z"
   id="path7449"
   inkscape:connector-curvature="0"
   style="fill:#a7a8ac" />
	<path
   d="M 29.121,30.521 33.533,4.838 c 0,0 2.458,-0.597 3.752,1.388 l -4.198,24.431 -3.966,-0.136 z"
   id="path7451"
   inkscape:connector-curvature="0"
   style="fill:#a7a8ac" />
</g>
</svg>