<?xml version="1.0" encoding="UTF-8" standalone="no"?>
<!-- Generator: Adobe Illustrator 16.0.0, SVG Export Plug-In . SVG Version: 6.00 Build 0)  -->

<svg
   xmlns:dc="http://purl.org/dc/elements/1.1/"
   xmlns:cc="http://creativecommons.org/ns#"
   xmlns:rdf="http://www.w3.org/1999/02/22-rdf-syntax-ns#"
   xmlns:svg="http://www.w3.org/2000/svg"
   xmlns="http://www.w3.org/2000/svg"
   xmlns:sodipodi="http://sodipodi.sourceforge.net/DTD/sodipodi-0.dtd"
   xmlns:inkscape="http://www.inkscape.org/namespaces/inkscape"
   version="1.1"
   id="Layer_1"
   x="0px"
   y="0px"
   width="64px"
   height="64px"
   viewBox="0 0 64 64"
   enable-background="new 0 0 64 64"
   xml:space="preserve"
   inkscape:version="0.48.5 r10040"
   sodipodi:docname="2702.svg"><metadata
   id="metadata4635"><rdf:RDF><cc:Work
       rdf:about=""><dc:format>image/svg+xml</dc:format><dc:type
         rdf:resource="http://purl.org/dc/dcmitype/StillImage" /></cc:Work></rdf:RDF></metadata><defs
   id="defs4633" /><sodipodi:namedview
   pagecolor="#ffffff"
   bordercolor="#666666"
   borderopacity="1"
   objecttolerance="10"
   gridtolerance="10"
   guidetolerance="10"
   inkscape:pageopacity="0"
   inkscape:pageshadow="2"
   inkscape:window-width="640"
   inkscape:window-height="480"
   id="namedview4631"
   showgrid="false"
   inkscape:zoom="3.6875"
   inkscape:cx="32"
   inkscape:cy="32"
   inkscape:window-x="702"
   inkscape:window-y="263"
   inkscape:window-maximized="0"
   inkscape:current-layer="Layer_1" />
<g
   id="g4609"
   transform="translate(2,0)">
	<path
   d="M 32.23,14.962 5.964,56.627 c 0,0 -3.021,4.364 3.431,7.26 L 44.347,15.866 32.23,14.962 z"
   id="path4611"
   inkscape:connector-curvature="0"
   style="fill:#919396" />
	<path
   d="m 35.055,16.097 c 0,0 -29.693,41.834 -28.165,46.301 0,0 -2.95,-2.466 -0.918,-5.688 l 26.267,-41.664 2.816,1.051 z"
   id="path4613"
   inkscape:connector-curvature="0"
   style="fill:#888888" />
	<g
   id="g4615">
		<path
   d="m 31.575,28.932 c -0.108,1.2 -1.263,2.09 -2.579,1.992 -1.313,-0.099 -2.294,-1.146 -2.19,-2.344 0.106,-1.201 1.263,-2.091 2.58,-1.993 1.316,0.094 2.297,1.146 2.189,2.345 z"
   id="path4617"
   inkscape:connector-curvature="0"
   style="fill:#ffffff" />
		<path
   d="m 29.193,31.073 c -0.067,0 -0.136,-0.004 -0.207,-0.012 -0.711,-0.053 -1.361,-0.375 -1.794,-0.886 -0.39,-0.459 -0.575,-1.03 -0.524,-1.609 0.114,-1.256 1.329,-2.222 2.728,-2.117 0.707,0.051 1.361,0.374 1.794,0.886 0.39,0.457 0.575,1.032 0.524,1.611 -0.11,1.19 -1.218,2.127 -2.521,2.127 z m -0.004,-4.356 c -1.164,0 -2.147,0.825 -2.244,1.875 -0.046,0.504 0.116,1.002 0.458,1.402 0.387,0.457 0.968,0.744 1.603,0.792 1.245,0.095 2.33,-0.76 2.428,-1.863 0.043,-0.508 -0.116,-1.004 -0.457,-1.406 -0.386,-0.457 -0.969,-0.745 -1.601,-0.792 -0.064,-0.004 -0.124,-0.008 -0.187,-0.008 z"
   id="path4619"
   inkscape:connector-curvature="0" />
	</g>
	<path
   d="m 26.065,15.045 26.268,41.664 c 0,0 3.025,4.365 -3.435,7.256 L 13.951,15.947 26.065,15.045 z"
   id="path4621"
   inkscape:connector-curvature="0"
   style="fill:#e6e7e8" />
	<path
   d="m 26.72,29.013 c 0.106,1.199 1.262,2.092 2.578,1.991 1.317,-0.097 2.298,-1.148 2.19,-2.346 -0.108,-1.198 -1.262,-2.09 -2.578,-1.989 -1.32,0.095 -2.297,1.146 -2.19,2.344 z"
   id="path4623"
   inkscape:connector-curvature="0"
   style="fill:#919396" />
	<path
   d="m 23.249,16.097 c 0,0 29.694,41.834 28.166,46.301 0,0 2.948,-2.466 0.918,-5.688 L 26.065,15.045 23.249,16.097 z"
   id="path4625"
   inkscape:connector-curvature="0"
   style="fill:#c8c8c8" />
	<path
   d="M 11.053,0.214 C 3.001,-2.337 -11.949,18.72 17.258,20.493 l 8.808,-5.448 C 26.065,15.045 17.805,2.357 11.053,0.214 z M 10.801,15.742 C 7,16.026 3.671,13.454 3.364,9.995 3.049,6.542 5.874,3.509 9.673,3.228 c 3.799,-0.284 7.128,2.289 7.439,5.745 0.311,3.456 -2.517,6.485 -6.311,6.769 z"
   id="path4627"
   inkscape:connector-curvature="0"
   style="fill:#be202e" />
	<path
   d="m 32.219,15.045 8.809,5.448 C 70.232,18.721 55.284,-2.337 47.232,0.214 40.48,2.357 32.219,15.045 32.219,15.045 z m 8.954,-6.072 c 0.308,-3.457 3.641,-6.029 7.441,-5.745 3.794,0.281 6.622,3.314 6.307,6.767 -0.308,3.459 -3.636,6.031 -7.438,5.748 -3.793,-0.285 -6.621,-3.314 -6.31,-6.77 z"
   id="path4629"
   inkscape:connector-curvature="0"
   style="fill:#be202e" />
</g>
</svg>