<?xml version="1.0" encoding="UTF-8" standalone="no"?>
<!-- Generator: Adobe Illustrator 16.0.0, SVG Export Plug-In . SVG Version: 6.00 Build 0)  -->

<svg
   xmlns:dc="http://purl.org/dc/elements/1.1/"
   xmlns:cc="http://creativecommons.org/ns#"
   xmlns:rdf="http://www.w3.org/1999/02/22-rdf-syntax-ns#"
   xmlns:svg="http://www.w3.org/2000/svg"
   xmlns="http://www.w3.org/2000/svg"
   xmlns:sodipodi="http://sodipodi.sourceforge.net/DTD/sodipodi-0.dtd"
   xmlns:inkscape="http://www.inkscape.org/namespaces/inkscape"
   version="1.1"
   id="Layer_1"
   x="0px"
   y="0px"
   width="64px"
   height="64px"
   viewBox="0 0 64 64"
   enable-background="new 0 0 64 64"
   xml:space="preserve"
   inkscape:version="0.48.5 r10040"
   sodipodi:docname="2747.svg"
   inkscape:export-filename="D:\TESTINGEMOJI\SVGTEST\2747.png"
   inkscape:export-xdpi="90"
   inkscape:export-ydpi="90"><metadata
   id="metadata3333"><rdf:RDF><cc:Work
       rdf:about=""><dc:format>image/svg+xml</dc:format><dc:type
         rdf:resource="http://purl.org/dc/dcmitype/StillImage" /><dc:title></dc:title></cc:Work></rdf:RDF></metadata><defs
   id="defs3331" /><sodipodi:namedview
   pagecolor="#ffffff"
   bordercolor="#666666"
   borderopacity="1"
   objecttolerance="10"
   gridtolerance="10"
   guidetolerance="10"
   inkscape:pageopacity="0"
   inkscape:pageshadow="2"
   inkscape:window-width="640"
   inkscape:window-height="480"
   id="namedview3329"
   showgrid="false"
   inkscape:zoom="3.6875"
   inkscape:cx="32"
   inkscape:cy="32"
   inkscape:window-x="539"
   inkscape:window-y="375"
   inkscape:window-maximized="0"
   inkscape:current-layer="Layer_1" />
<g
   id="g3309">
	<path
   fill="#37B34A"
   d="M63.51,57.293c0,3.731-3.224,6.957-6.956,6.957H7.441c-3.725,0-6.95-3.226-6.95-6.957V8.181   c0-3.727,3.225-6.953,6.95-6.953h49.113c3.732,0,6.956,3.226,6.956,6.953V57.293z"
   id="path3311" />
</g>
<path
   fill="#0F7B40"
   d="M0.491,49.108v8.185c0,3.731,3.225,6.957,6.95,6.957h49.113c3.732,0,6.956-3.226,6.956-6.957V8.181  C51.693,47.02,14.276,49.48,0.491,49.108z"
   id="path3313" />
<g
   opacity="0.65"
   id="g3315">
	<path
   fill="#FFFFFF"
   d="M60.421,33.4c0-2.143-6.814-3.962-16.649-4.804c6.207-7.424,9.669-13.437,8.184-14.927   c-1.525-1.521-7.816,2.168-15.521,8.695c-0.794-10.458-2.696-17.842-4.903-17.842c-2.216,0-4.099,7.384-4.89,17.854   c-7.697-6.531-13.988-10.233-15.525-8.702c-1.485,1.492,1.982,7.501,8.196,14.921C9.478,29.438,2.66,31.258,2.66,33.4   c0,2.215,7.335,4.093,17.747,4.883c-6.915,8.031-10.858,14.659-9.291,16.228c1.538,1.533,7.875-2.186,15.625-8.768   c0.851,9.771,2.673,16.532,4.79,16.532c2.118,0,3.949-6.767,4.802-16.544c7.746,6.594,14.09,10.338,15.629,8.791   c1.579-1.585-2.376-8.208-9.301-16.232C53.086,37.493,60.421,35.615,60.421,33.4z"
   id="path3317" />
</g>
<g
   id="g3319">
	<g
   id="g3321">
		<path
   fill="#FFFFFF"
   d="M16.166,33.585c0,1.396,5.434,2.536,12.592,2.774c0.242,7.163,1.388,12.593,2.774,12.593    c1.388,0,2.542-5.43,2.784-12.593c7.158-0.238,12.586-1.378,12.586-2.774c0-1.388-5.428-2.535-12.586-2.773    c-0.242-7.162-1.396-12.593-2.784-12.593c-1.386,0-2.532,5.431-2.774,12.593C21.599,31.05,16.166,32.197,16.166,33.585z"
   id="path3323" />
	</g>
	<g
   id="g3325">
		<path
   fill="#FFFFFF"
   d="M20.672,23.089c-0.984,0.987,2.05,5.638,6.94,10.865c-4.897,5.231-7.917,9.89-6.94,10.87    c0.981,0.979,5.631-2.049,10.866-6.938c5.231,4.89,9.882,7.924,10.867,6.938c0.981-0.98-2.049-5.631-6.944-10.865    c4.896-5.232,7.919-9.89,6.94-10.87c-0.981-0.978-5.632,2.049-10.87,6.945C26.303,25.146,21.654,22.111,20.672,23.089z"
   id="path3327" />
	</g>
</g>
</svg>