<?xml version="1.0" encoding="UTF-8" standalone="no"?>
<!-- Generator: Adobe Illustrator 16.0.0, SVG Export Plug-In . SVG Version: 6.00 Build 0)  -->

<svg
   xmlns:dc="http://purl.org/dc/elements/1.1/"
   xmlns:cc="http://creativecommons.org/ns#"
   xmlns:rdf="http://www.w3.org/1999/02/22-rdf-syntax-ns#"
   xmlns:svg="http://www.w3.org/2000/svg"
   xmlns="http://www.w3.org/2000/svg"
   xmlns:sodipodi="http://sodipodi.sourceforge.net/DTD/sodipodi-0.dtd"
   xmlns:inkscape="http://www.inkscape.org/namespaces/inkscape"
   version="1.1"
   id="Layer_1"
   x="0px"
   y="0px"
   width="64px"
   height="64px"
   viewBox="0 0 64 64"
   enable-background="new 0 0 64 64"
   xml:space="preserve"
   inkscape:version="0.48.5 r10040"
   sodipodi:docname="2B06.svg"
   inkscape:export-filename="D:\TESTINGEMOJI\SVGTEST\2B06.png"
   inkscape:export-xdpi="90"
   inkscape:export-ydpi="90"><metadata
   id="metadata3961"><rdf:RDF><cc:Work
       rdf:about=""><dc:format>image/svg+xml</dc:format><dc:type
         rdf:resource="http://purl.org/dc/dcmitype/StillImage" /><dc:title></dc:title></cc:Work></rdf:RDF></metadata><defs
   id="defs3959" /><sodipodi:namedview
   pagecolor="#ffffff"
   bordercolor="#666666"
   borderopacity="1"
   objecttolerance="10"
   gridtolerance="10"
   guidetolerance="10"
   inkscape:pageopacity="0"
   inkscape:pageshadow="2"
   inkscape:window-width="640"
   inkscape:window-height="480"
   id="namedview3957"
   showgrid="false"
   inkscape:zoom="3.6875"
   inkscape:cx="32"
   inkscape:cy="32"
   inkscape:window-x="635"
   inkscape:window-y="325"
   inkscape:window-maximized="0"
   inkscape:current-layer="Layer_1" />
<g
   id="g3947">
	<g
   id="g3949">
		<path
   fill="#1B75BB"
   d="M63.667,57.064c0,3.812-3.07,6.9-6.86,6.9H6.86c-3.788,0-6.86-3.088-6.86-6.9V6.896    C0,3.088,3.072,0,6.86,0h49.946c3.79,0,6.86,3.088,6.86,6.896V57.064z"
   id="path3951" />
		<path
   fill="#0867A3"
   d="M0,48.703v8.361c0,3.812,3.072,6.9,6.86,6.9h49.946c3.79,0,6.86-3.088,6.86-6.9V6.896    C52.797,46.57,13.713,49.085,0,48.703z"
   id="path3953" />
	</g>
	<path
   fill="#FFFFFF"
   d="M15.937,28.09L31.795,9.578l15.938,18.334c-0.191,2.574-1.894,4.593-3.981,4.603l-3.54,0.018l0.09,16.704   c0.012,2.81-2.245,5.1-5.042,5.117l-6.574,0.034c-2.798,0.012-5.079-2.256-5.092-5.065l-0.088-16.7l-3.538,0.02   C17.882,32.65,16.16,30.658,15.937,28.09L15.937,28.09z"
   id="path3955" />
</g>
</svg>