<svg xmlns="http://www.w3.org/2000/svg" viewBox="0 0 64 64" enable-background="new 0 0 64 64"><path fill="#ed4c5c" d="M62,52c0,5.523-4.477,10-10,10H12C6.476,62,2,57.523,2,52V12C2,6.477,6.476,2,12,2h40
		c5.523,0,10,4.477,10,10V52z"/><g fill="#fff"><path d="m22.99 34.616c-.352-.795-.851-1.516-1.484-2.142-.634-.627-1.364-1.121-2.175-1.472-.853-.37-1.749-.558-2.665-.558-1.91 0-3.934-1.89-3.934-3.674 0-2.01 1.664-3.646 3.711-3.646 2.046 0 3.928 1.611 3.928 3.622h3.181c0-.914-.182-1.801-.543-2.636-.348-.807-.844-1.531-1.477-2.152-.631-.62-1.368-1.108-2.19-1.45-.849-.354-1.969-.508-2.899-.508s-1.833.179-2.682.533c-.822.34-1.56.828-2.19 1.448-.633.623-1.129 1.347-1.477 2.153-.361.836-.543 1.723-.543 2.637 0 1.685.804 3.41 2.201 4.736 1.383 1.311 3.174 2.063 4.913 2.063 1.938 0 3.705 1.744 3.705 3.658 0 2.01-1.664 3.646-3.711 3.646-2.046 0-3.928-1.658-3.928-3.668h-3.179c0 .913.182 1.8.543 2.635.348.808.844 1.531 1.477 2.152.631.62 1.368 1.108 2.19 1.45.848.356 1.968.557 2.898.557.931 0 1.833-.179 2.682-.533.822-.34 1.56-.828 2.19-1.45.633-.621 1.129-1.345 1.477-2.151.361-.836.543-1.723.543-2.637 0-.893-.189-1.772-.562-2.613"/><path d="m39 24.14c-.354-.809-.858-1.533-1.5-2.156-.642-.622-1.391-1.111-2.226-1.452-.862-.354-1.779-.535-2.723-.535s-1.861.181-2.726.534c-.833.341-1.582.83-2.224 1.452-.644.623-1.148 1.348-1.5 2.156-.365.838-.551 1.727-.551 2.641v10.435c0 .915.186 1.804.551 2.64.352.81.856 1.534 1.5 2.156.642.622 1.391 1.111 2.224 1.453.864.353 1.781.533 2.726.533s1.861-.18 2.724-.533c.835-.342 1.584-.831 2.226-1.453s1.146-1.347 1.5-2.156c.365-.836.551-1.725.551-2.64v-10.435c-.001-.914-.187-1.803-.552-2.64m-6.449 16.726c-2.078 0-3.77-1.637-3.77-3.651v-10.435c0-2.01 1.691-3.652 3.77-3.652s3.77 1.639 3.77 3.652v10.435c-.001 2.01-1.692 3.651-3.77 3.651"/><path d="m54.993 34.616c-.354-.795-.854-1.516-1.485-2.142-.634-.627-1.367-1.121-2.175-1.472-.855-.37-1.752-.559-2.665-.559-1.914 0-3.935-1.889-3.935-3.673 0-2.01 1.664-3.646 3.711-3.646 2.046 0 3.927 1.611 3.927 3.622h3.181c0-.914-.183-1.801-.543-2.636-.346-.807-.843-1.531-1.475-2.152-.633-.621-1.37-1.108-2.19-1.45-.852-.354-1.97-.508-2.9-.508s-1.833.179-2.685.532c-.819.341-1.558.829-2.188 1.45-.634.622-1.131 1.346-1.477 2.152-.36.836-.543 1.723-.543 2.637 0 1.684.802 3.41 2.201 4.736 1.384 1.311 3.175 2.063 4.915 2.063 1.938 0 3.703 1.744 3.703 3.658 0 2.01-1.665 3.646-3.712 3.646-2.046 0-3.926-1.658-3.926-3.67h-3.182c0 .914.183 1.801.543 2.637.346.808.843 1.53 1.477 2.152.631.62 1.369 1.108 2.188 1.45.853.355 1.971.557 2.901.557s1.833-.179 2.685-.533c.82-.34 1.558-.828 2.19-1.449.632-.622 1.129-1.346 1.475-2.152.36-.836.543-1.723.543-2.637 0-.893-.189-1.772-.559-2.613"/></g></svg>