<svg xmlns="http://www.w3.org/2000/svg" viewBox="0 0 64 64" enable-background="new 0 0 64 64"><path fill="#2a5f9e" d="M32,2v10H12v20H2c0,16.568,13.432,30,30,30s30-13.432,30-30S48.568,2,32,2z"/><g fill="#fff"><path d="M14,8C6.714,13.473,2,22.186,2,32h12V8z"/><path d="M8,14h24V2C22.186,2,13.473,6.714,8,14z"/><path d="M9.831,11.789L26,32h6v-7.5L17.15,5.938C14.413,7.5,11.941,9.476,9.831,11.789z"/></g><g fill="#ed4c5c"><path d="M32,5H18.913C12.857,7.94,7.94,12.857,5,18.912V32h6V11h21V5z"/><path d="m32 27.06l-13-16.06h-6l17 21h2z"/></g><g fill="#fff"><path d="M8 35.715 10.226 33 9.542 36.477 13 36.568 9.923 38.19 12.01 41.02 8.855 39.563 8 43 7.145 39.563 3.991 41.02 6.077 38.19 3 36.568 6.458 36.477 5.774 33z"/><path d="m52 20.17l1.781-2.17-.551 2.781 2.77.074-2.46 1.295 1.67 2.265-2.526-1.165-.684 2.75-.68-2.75-2.527 1.165 1.667-2.265-2.46-1.295 2.766-.074-.546-2.781z"/><path d="m52 40.17l1.781-2.17-.551 2.781 2.77.074-2.46 1.295 1.67 2.26-2.526-1.16-.684 2.75-.68-2.75-2.527 1.16 1.667-2.26-2.46-1.295 2.766-.074-.546-2.781z"/><path d="m42 26.17l1.781-2.17-.551 2.781 2.77.074-2.462 1.295 1.672 2.265-2.526-1.165-.684 2.75-.68-2.75-2.527 1.165 1.668-2.265-2.461-1.295 2.766-.074-.546-2.781z"/></g></svg>