<svg xmlns="http://www.w3.org/2000/svg" viewBox="0 0 64 64" enable-background="new 0 0 64 64"><circle fill="#699635" cx="32" cy="32" r="30"/><g fill="#ffce31"><path d="m35.554 39.937c-4.384 0-7.937-3.554-7.937-7.937 0-4.384 3.553-7.937 7.937-7.937 1.278 0 2.468.331 3.538.868-1.721-1.594-4.02-2.576-6.547-2.576-5.326 0-9.645 4.318-9.645 9.645 0 5.327 4.318 9.646 9.645 9.646 2.532 0 4.828-.983 6.549-2.579-1.07.537-2.261.87-3.54.87"/><circle cx="13.14" cy="23.741" r="9"/></g><path fill="#802000" d="m12.52 30.527h2.248c0 0 .102-.206-.023-.31-.124-.103-.607-.125-.476-.49.268-.748.305-.518.474-2.296.168-1.779.25-4.57.25-4.57h-.325c0 0 .063.868-.125 1.998-.188 1.129-.244 1.229-.45 2.097-.206.868-.237.942-.424 1.448-.187.506-.206.53-.499.998-.294.469-.188.295-.35.574-.081.142-.181.104-.235.206-.056.104-.065.345-.065.345"/><path fill="#699635" d="m14.234 17.18c.019.35-.016.811-.161 1.187-.146.419-.306.836-.298 1.271-.233.079-.474-.505-.698-.161.168.474.558.85.825 1.278.045.133.429.479.207.559-.561-.192-.697-.902-1.045-1.333-.404-.726-1.157-1.239-1.996-1.275-.316.009-1.34-.078-1.074.461.394.267.877.441 1.265.741.29.027.813.509.782.691-.508-.206-.746-.452-1.293-.669-.742-.286-1.768-.114-2.178.622-.078.192-.19.75.051.804.281-.44.684-.931 1.28-.799.469.036-.522.873-.144.704.12-.053.397-.234.59-.254.193-.019.3.126.446.146.292.041.372.162.345.234-.032.083-.125.012-.421.106-.148.047-.226.177-.399.237s-.533.064-.668.011c-.471-.204-1.243-.168-1.389.421 0 .259-.231-.029-.338.083-.08.283-.101.574-.521.549-.255.267-.516.544-.839.734.189.437.942-.438.907-.069-.329.448.169.543.387.198.369-.39.826-.864 1.376-.471.262.247.416-.13.604-.11.12.307.27.014.406-.072.223-.027.159.277.424.089.526-.348 1.173-.056 1.686-.394.547-.25.078.201-.073.377-.24.466-.033 1.078-.553 1.367-.209.556.247 1.288-.219 1.7-.067.257.599.228.787.333.328.014-.014-.75.312-.853.436.271.415-.483.325-.715.042-.528.072-1.105.335-1.583.279-.587.537.239.225.471-.177.539-.436 1.213-.033 1.715.116.025.211.308.362.394.151.087.356-.022.394-.278.193-.771.096-1.602.372-2.353.195-.232.463-.038.584.176.386.449.658 1.01 1.125 1.379.426.2.802.501 1 .939-.003.338.96.391.672.014-.275-.366-.093-.732.186-.976.15.038.106-.231-.011-.125-.188-.044-.201-.389.061-.226.44.143-.034-.318-.194-.333-.372-.231-.8-.496-.983-.897.485.004.989.266 1.484.104.396-.204.8.018.939.367.307-.049.176-.356 0-.459.225-.093.379-.285.107-.455-.145-.188.193-.507-.221-.494.013-.316-.111-.605-.456-.714-.345-.292-1.358.43-1.328-.229-.103-.358.411-.048.554-.227.148-.378-.706-.341-.424-.634.184-.119 1.048-.289.371-.416-.338.092-.628.024-.895-.144-.243.406-.936-.22-.812.501-.095.272-.714.979-.882.437.144-.424.876-.563.649-1.135-.035-.357-.331.063-.47.036-.07-.222.213-.484.411-.537.394.303.406-.381.779-.325.272-.061-.088-.178-.165-.229.075-.2.495-.302.083-.476-.363-.269-.631.268-.93.296-.288-.324.261-.479.412-.65.008-.126-.32-.038-.221-.149.085-.153.665-.164.394-.394-.409-.14-.937-.105-1.33.076-.247.08-.319.639-.532.616-.1-.248.033-.739-.31-.811m1.933 5.459c.313-.053.007.473-.143.465.014-.188-.45-.17-.162-.335.093-.061.197-.107.305-.13"/><g fill="#ffce31"><path d="m48.15 42.865l.52 1.615 1.58-.603-.93 1.413 1.451.86-1.691.15.24 1.675-1.17-1.228-1.166 1.228.236-1.675-1.689-.15 1.455-.86-.936-1.413 1.583.603z"/><path d="m38.743 27.968l.517 1.612 1.586-.6-.938 1.411 1.452.859-1.683.151.232 1.679-1.166-1.229-1.166 1.229.233-1.679-1.69-.151 1.458-.859-.937-1.411 1.589.6z"/><path d="m48.15 17.776l.52 1.612 1.58-.599-.93 1.411 1.451.86-1.691.15.24 1.676-1.17-1.227-1.166 1.227.236-1.676-1.689-.15 1.455-.86-.936-1.411 1.583.599z"/><path d="m56.51 25.459l.52 1.611 1.59-.598-.94 1.41 1.45.864-1.68.147.232 1.676-1.172-1.227-1.16 1.227.23-1.676-1.687-.147 1.457-.864-.94-1.41 1.586.598z"/><path d="m51.914 33.01l.406 1 1.09.08-.832.702.258 1.054-.922-.576-.92.576.256-1.054-.83-.702 1.09-.08z"/></g></svg>