<svg xmlns="http://www.w3.org/2000/svg" viewBox="0 0 64 64" enable-background="new 0 0 64 64"><g fill="#75a843"><path d="M32,2c-6.159,0-11.882,1.858-16.646,5.041h33.291C43.882,3.858,38.159,2,32,2z"/><path d="M32,62c6.159,0,11.882-1.858,16.646-5.041H15.354C20.118,60.142,25.841,62,32,62z"/></g><path fill="#ed4c5c" d="m7.05 47.04h50.904c1.777-3.06 3.03-6.46 3.633-10.08h-58.17c.604 3.622 1.856 7.02 3.633 10.08"/><path fill="#3e4347" d="m3 32c0 1.719.152 3.401.431 5.04h58.14c.278-1.64.43-3.322.43-5.04s-.152-3.401-.431-5.04h-58.14c-.279 1.64-.431 3.322-.431 5.04"/><path fill="#ed4c5c" d="m3.415 27.04h58.17c-.604-3.622-1.855-7.02-3.633-10.08h-50.904c-1.777 3.06-3.03 6.46-3.633 10.08"/><g fill="#ffce31"><path d="m12.304 17.04h45.697c-2.338-4.054-5.592-7.51-9.485-10.08h-33.03c-1.117.738-2.175 1.557-3.181 2.434v7.648"/><path d="m12.304 46.959v7.648c1.01.877 2.063 1.695 3.181 2.434h33.03c3.894-2.572 7.147-6.03 9.485-10.08h-45.697"/></g><path fill="#f9f9f9" d="M12.631,12.204H9.478C4.828,17.487,2,24.41,2,32c0,7.746,2.944,14.801,7.765,20.123h2.539L32.427,32
		L12.631,12.204z"/><path fill="#3e4347" d="m12.304 9.382c-1.01.878-1.953 1.819-2.835 2.822l19.796 19.796-19.796 19.796c.882 1 1.829 1.944 2.835 2.822l22.618-22.618-22.618-22.618"/><path fill="#ed4c5c" d="m17.46 33.93l5.379-4.516-6.344-1.066-3.281-6.655-3.284 6.655-6.341 1.066 5.379 4.516-1.399 6.703 5.645-3.223 5.641 3.223z"/><g fill="#ffce31"><path d="m11.341 30.11c.69 1.502.861 1.602 2.586 2.191 1.726.592 6.6 1.154 7.079 1.209-.313-.313-5.803-4.381-6.931-5.193-1.126-.814-1.442-1.182-1.442-1.182s-1.015-1.83-1.367-2.365c-.351-.537-.996-1.295-1.847-1.295s-1.367.5-1.613 1.387c-.138.037-.864.48-.838.938.207-.025 1.527-.395 1.981 1.094.457 1.492.482 3.934.013 5.139-.467 1.207-1.195 2.119-1.195 3.178 0 .148.099.443.345.443.088.47.778 3.808.778 3.808h9.831l1.562-6.04"/><g stroke="#000" stroke-linejoin="round" stroke-linecap="round" stroke-width=".2"><path d="m11.341 30.11c.69 1.502.861 1.602 2.586 2.191 1.726.592 6.6 1.154 7.079 1.209-.313-.313-5.803-4.381-6.931-5.193-1.126-.814-1.442-1.182-1.442-1.182s-1.015-1.83-1.367-2.365c-.351-.537-.996-1.295-1.847-1.295s-1.367.5-1.613 1.387c-.138.037-.864.48-.838.938.207-.025 1.527-.395 1.981 1.094.457 1.492.482 3.934.013 5.139-.467 1.207-1.195 2.119-1.195 3.178 0 .148.099.443.345.443.088.47.778 3.808.778 3.808h9.831l1.562-6.04"/><path d="m8.111 35.654c0 0 2.096-.121 2.661-.121.568 0 5.845.006 8.786.688"/><path d="m8.854 35.613c0 0-.21-.254-.075-.758.135-.506 1.613-1.813 1.613-3.66"/><path d="m10.119 35.533c0 0-.171-.824 1.715-1.527.529-.162 2.044-1.012 2.093-1.703"/><path d="m11.634 34.08c0 0 4.623.02 8.283.76"/><path d="m12.791 33.531c0 0 1.59.055 1.847-.02.26-.074.719-.266.9-.809"/><path d="m13.732 33.551c0 0 .851-.443 1.017-1.016"/><path d="m11.167 39.463c0 0-.363-2.52-.436-3.93l.949.904 1-.875.863.92.999-.848.86.969.988-.84.786.916.986-.713 1.172 1.113"/><path d="m19.13 37.875c-3.521-.506-8.229-.471-8.229-.471"/><path d="m9.266 28.695c0 0 2.864-1.367 3.367-1.559"/><path d="m10.81 36.531l.961.879.87-.873.88.908.949-.841.874.919.985-.812.811.939.98-.75 1.03.911"/><circle cx="13.541" cy="34.867" r=".383"/><circle cx="15.15" cy="34.976" r=".382"/><circle cx="9.151" cy="24.659" r=".296"/></g></g></svg>