<svg xmlns="http://www.w3.org/2000/svg" viewBox="0 0 64 64" enable-background="new 0 0 64 64"><path fill="#ffe8a6" d="M32,2c-9.389,0-17,13.432-17,30s7.611,30,17,30c16.568,0,30-13.432,30-30S48.568,2,32,2z"/><path fill="#3e4347" d="m15 32c0-16.568 7.611-30 17-30-16.568 0-30 13.432-30 30s13.432 30 30 30c-9.389 0-17-13.432-17-30"/><g fill="#f4dc9f"><circle cx="49.998" cy="35.25" r="7"/><path d="m24.16 41.05c-.132 0-.261.014-.392.02.227-.632.355-1.309.355-2.02 0-3.313-2.687-6-6-6-1.129 0-2.181.317-3.083.859.139 3.898.697 7.595 1.601 10.948.049.013.098.027.147.038-.033.047-.069.092-.102.14 1.669 6.097 4.473 11.05 7.927 13.991 4.759-.237 8.548-4.16 8.548-8.977.001-4.97-4.03-8.999-9-8.999"/><path d="m23.999 21.248c2.209 0 3.999-1.79 3.999-4 0-.645-.167-1.245-.438-1.785.504.172 1.035.285 1.598.285 2.762 0 5-2.24 5-4.998 0-2.764-2.24-5-5-5-2.764 0-5 2.238-5 5 0 .961.285 1.851.756 2.613-.295-.069-.598-.115-.914-.115-2.209 0-4 1.791-4 4 0 2.21 1.792 4 4 4"/><circle cx="37" cy="18.248" r="4"/><path d="m15.614 24.01c-.23 1.471-.398 2.986-.499 4.538.618-.704 1.01-1.616 1.01-2.628 0-.695-.193-1.34-.506-1.91"/><circle cx="38.998" cy="9.248" r="2"/><circle cx="52" cy="50.05" r="2"/><circle cx="24.998" cy="29.923" r="3"/><circle cx="46" cy="52.623" r="4"/></g><g fill="#464d51"><path d="m15.04 33.906c-1.745 1.05-2.917 2.957-2.917 5.142 0 2.801 1.922 5.146 4.518 5.807-.904-3.354-1.462-7.05-1.601-10.949"/><path d="m16.684 45.03c-.963 1.433-1.526 3.158-1.526 5.02 0 4.97 4.03 9 8.999 9 .153 0 .303-.016.454-.023-3.455-2.947-6.258-7.895-7.927-13.992"/><path d="m12.12 29.923c1.198 0 2.261-.538 2.994-1.373.101-1.552.269-3.067.499-4.538-.68-1.239-1.98-2.089-3.493-2.089-2.209 0-4 1.791-4 3.999 0 2.21 1.792 4 4 4"/><circle cx="8.12" cy="39.05" r="2"/><circle cx="14.998" cy="15.748" r="2"/></g></svg>