<svg xmlns="http://www.w3.org/2000/svg" viewBox="0 0 64 64" enable-background="new 0 0 64 64"><path fill="#947151" d="m25 52.13h14v11.875h-14z"/><path fill="#71a03a" d="m32 34.931l-30 20.2c0 0 14.5 3.439 30 3.439 15.501 0 30-3.439 30-3.439l-30-20.2"/><path fill="#76aa3f" d="m32 23.62l-25 20.2c0 0 12.08 3.438 25 3.438s25-3.438 25-3.438l-25-20.2"/><path fill="#7cb545" d="m32 12.31l-20 20.2c0 0 9.667 3.438 20 3.438 10.334 0 20-3.438 20-3.438l-20-20.2"/><path fill="#83bf4f" d="M32,1L17,20.811c0,0,7.25,3.831,15,3.831s15-3.831,15-3.831L32,1z"/></svg>