<svg xmlns="http://www.w3.org/2000/svg" viewBox="0 0 64 64" enable-background="new 0 0 64 64"><path fill="#94989b" d="m57.977 36.12c0 7.664-11.628 13.877-25.976 13.877-14.352 0-25.975-6.213-25.975-13.877 0-7.659 11.623-13.874 25.975-13.874 14.348.001 25.976 6.215 25.976 13.874"/><path fill="#c7d7d7" d="m62 30.975c0 9.378-13.43 16.978-30 16.978-16.568 0-29.999-7.599-29.999-16.978 0-9.373 13.431-16.975 29.999-16.975 16.571 0 30 7.602 30 16.975"/><g fill="#aa4800"><path d="m56.702 29.525c0 6.245-11.06 11.305-24.701 11.305-13.641 0-24.699-5.061-24.699-11.305 0-6.234 11.06-11.298 24.699-11.298 13.643 0 24.701 5.064 24.701 11.298"/><path d="m15.922 37.973c0 0 1.395.455.569 2.26-.826 1.809 2.068 4.127 4.672 2.75s6.375-.939 7.789 0c1.414.941 5.414 1.232 7.514 0s3.699-2.201 7.25-2.152c3.551.051 6.218-3.244 8.02-4.508 1.806-1.262-3.373-1.527-6.273-.514s-17.521 3.684-22.762 1.914c-5.238-1.768-8.927-.774-6.782.25"/></g><g fill="#ce9500"><path d="m42.07 29.44c.443-1.313 1.258-4.631 3.621-4.568 2.362.063 1.884 2.805 1.884 2.805s.184 3.784-.437 3.577c-.621-.206-1.33-.947-2.51-.647-1.179.301-3.294 1.01-2.558-1.167"/><path d="m33.28 35.674c.776-1.623 1.394-2.219 2.242-2.467.85-.253.929-1.452 2.145-.996 1.216.46 2.277-.679 2.592 1.292.313 1.969-1.951 1.854-2.327 3.064-.374 1.205-2.235.639-3.045 1.809-.813 1.169-2.561-.71-1.607-2.702"/><path d="m36.497 25.331c-.221.712-.336 2.496.617 1.427.953-1.072 2.182-2.049 3.127-1.607.947.441 1.369-1.091.48-2.276-.889-1.183-1.848-.998-2.246-1.047-.398-.048-1.525.292-1.457 1.323.069 1.031-.164 1.036-.521 2.18"/><path d="m27.777 32.01c-1.65-.204-3.861 1.227-4.02 3.143-.158 1.916.847 3.313 2.01 2.844 1.162-.469 1.852-2.844 2.433-3.609.58-.768.572-2.255-.424-2.378"/></g><path fill="#fffbe9" d="m37.39 19.697c.973-.102-.537-.853-.751-.944-.418-.181-.861-.348-1.304-.459-.49-.438-.101-.67-.929-.97-.586-.213-.452-.343-.844-.78-.501-.56-1.135-1.019-1.777-1.4-.462-.274-2.884-1.238-1.748.193-.284-.005-3.354.302-2.695 1.01-.939-.403-2-.625-3.02-.644-.402-.008-2.08.16-1.086.825-.394.176-.627.173-1.08.241-.111-.276-.446-.311-.7-.294-.556.034-.684.187-1.249.039-.267-.069-.721-.176-.968.032-.999.825-3.601.095-4.361 1.703-.215.454-.178.871-.928.876-.658.004-1.487-.785-1.704.35-.71.273-3.352 2.23-1.031 2.093-.463.643-1.138.611-1.644 1.377-.583-.558-1.051-.171-1.463-.63-.266-.295-.829-.761-1.21-.354-.839.896.26 2.688.337 3.632-.354-.398-1.926-1.693-2.113-.45-.091.606.226 1.271.528 1.772.498.827.456.773.28 1.692-.162.846-.088.63-.902.806-.416.09-1.033.36-.882.904.082.228.222.413.419.556.658.522.135.125.169.75.032.493.692.618 1.072.648.446.035.912-.014 1.346-.122.15.124.31.234.478.333-.081.205-.128.485.096.627.178.088.365.111.562.072.629-.084.343.055.724.496.479.557 1.208.922 1.923 1.055.419.076.957.098 1.317-.176.661-.506-.335-.939.232-1.352.379-.276 2.438-1.857 1.794-2.5.934.137 1.956-.072 2.822-.42.349-.14.815-.337 1.016-.684.082-.13.075-.258-.021-.384-.304-.104-.312-.258-.024-.459.812-.212 1.315.05 2.107-.491.374.074.999.166 1.3-.158.413-.455.737-.434 1.379-.606-.526 1.01 3.148-.09 3.415-.206.238-.104 1.375-.549 1.204-.984-.203-.517-1.582-.219-1.93-.15.621-.817-.669.133.411-.604.48-.325.806-.194 1.308.006.835.333 1.895.203 2.75.059.53-.09 1.954-.228 2.233-.819.264-.558-1.829-.506-2.01-.495.473-.481-.572-.587-.781-.603.501-.37.849-.185 1.425-.469.455-.225 1.415.101 1.793.472.337.33.947.616 1.325.174.493-.576-.024-1.401.072-1.964.398.443 1.094 1.048 1.749.959.922-.133-.023-1.484-.285-1.781.317-.221.609-.46.785-.815.381.124.782.238 1.185.268.891.063.252-.587-.118-.851"/><g fill="#e8e1d6"><path d="m26.474 16.715c.38.032.797.044 1.232.027 1.411-.058 2.444-.34 2.304-.71-.145-.37-1.425-.716-2.852-.689-.008 0-.014.001-.021.001-.298-.033-.614-.053-.942-.052-1.441.003-2.493.4-2.354.81.132.394 1.289.626 2.633.613"/><path d="m15.876 19.456c1.366-.335 2.361-.898 2.207-1.334-.153-.434-1.415-.603-2.804-.3-1.386.3-2.354.981-2.178 1.45.177.469 1.411.519 2.775.184"/><path d="m10.543 23.59c.409.32 1.495-.237 2.468-1.159.972-.925 1.461-1.873 1.052-2.206-.406-.334-1.558.085-2.53 1.022-.974.937-1.398 2.024-.99 2.343"/><path d="m25.05 17.09c-.128.379.916.938 2.317 1.27 1.401.329 2.642.346 2.784.021.145-.324-.875-.912-2.294-1.295-1.416-.385-2.68-.375-2.807.004"/><path d="m24.613 20.686c.148-.25.249-.494.313-.723.141.681.489 1.225.889 1.43-.4.112-.838.294-1.257.549-1.059.642-1.585 1.475-1.205 1.766.379.294 1.518-.054 2.575-.682 1.058-.632 1.633-1.315 1.256-1.623-.115-.092-.31-.133-.547-.134.293-.293.446-.853.354-1.501-.13-.924-.716-1.702-1.307-1.712-.418-.008-.711.393-.797.968-.067-.112-.165-.194-.293-.242.292-.155.449-.325.394-.492-.135-.401-1.398-.662-2.816-.508-1.385.149-2.377.666-2.274 1.096-.002-.002-.002-.004-.004-.006-.387-.321-1.571-.057-2.61.684-1.041.739-1.542 1.66-1.151 1.97.389.312 1.519-.098 2.56-.823.882-.619 1.409-1.272 1.309-1.654.351.323 1.463.413 2.691.249.246-.033.476-.076.694-.122-.275.232-.537.545-.74.919-.085.156-.148.31-.202.461-.406-.002-.971.392-1.465 1.029-.081-.817-.398-1.399-.837-1.417-.579-.02-1.123.994-1.206 2.28-.008.12-.007.235-.007.351-.51.128-1.152.469-1.74.989-.991.876-1.441 1.906-1.046 2.213.396.31 1.485-.212 2.478-1.074.234-.205.438-.411.613-.61.148.272.339.434.558.422.121-.007.239-.068.354-.163.047.062.103.111.173.138.492.183 1.389-.632 2.039-1.749.178-.307.314-.604.414-.882.536.082 1.334-.541 1.84-1.397"/><path d="m8.08 25.12c-.501-.186-1.379.685-1.922 2.01-.543 1.325-.559 2.572-.075 2.722.482.15 1.296-.825 1.856-2.113.562-1.293.641-2.434.141-2.621"/><path d="m9.431 24.792c.554-.073.988-1.153.973-2.411-.014-1.258-.494-2.257-1.076-2.231-.582.023-1.021 1.101-.979 2.405.044 1.307.53 2.311 1.082 2.237"/><path d="m14.759 28.14c.538-.038 1.076-1.046 1.211-2.235.136-1.192-.205-2.153-.769-2.167-.567-.012-1.122.973-1.229 2.214-.109 1.24.248 2.228.787 2.188"/><path d="m7.744 30.74c-.472.324-.39 1.505.157 2.592.548 1.09 1.335 1.654 1.787 1.299.45-.352.411-1.465-.115-2.528-.526-1.061-1.357-1.692-1.829-1.363"/><path d="m14.936 30.332c-.221-.364-1.09-.62-2.186-.593-.417.011-.808.068-1.156.155.236-.472.384-1.194.369-1.975-.023-1.271-.49-2.245-1.046-2.179s-.967 1.188-.912 2.509c.039.954.296 1.723.634 2.037-.217.149-.357.316-.373.493-.049.535.96.889 2.254.803.158-.011.314-.026.465-.047-.362.366-.544.718-.455.95.175.457 1.278.264 2.499-.359 1.218-.623 2.106-1.412 1.954-1.834-.132-.362-1.01-.349-2.047.04"/><path d="m17.903 22.11c-.147-.414-1.386-.542-2.745-.206-1.362.333-2.309 1.028-2.139 1.479.171.452 1.376.461 2.716.092 1.335-.37 2.319-.947 2.168-1.365"/><path d="m18.06 26.07c-1.299.448-2.198 1.219-2.041 1.646.158.434 1.3.331 2.575-.152 1.273-.485 2.218-1.139 2.078-1.535-.137-.394-1.319-.408-2.612.041"/><path d="m36.11 20.02c-.479-.267-1.552-.089-2.374.472-.486.33-.771.705-.831 1.01-.115-.048-.257-.092-.42-.131.247-.232.443-.574.532-.97.178-.791-.15-1.538-.746-1.673-.59-.134-1.209.438-1.369 1.284-.089.461-.024.89.143 1.201-.172-.002-.35.001-.529.01-1.396.071-2.414.49-2.29.859.052.152.291.266.642.342-.355.1-.734.245-1.102.445-.602.326-1.027.709-1.229 1.033-.438-.012-.96.028-1.511.139-1.35.268-2.314.867-2.176 1.262.139.399 1.314.414 2.646.109 1.069-.245 1.912-.603 2.143-.922.445-.119.958-.324 1.457-.59.95-.507 1.518-1.054 1.375-1.375.153-.005.31-.013.469-.025 1.063-.083 1.918-.28 2.205-.519.484.214 1.504-.075 2.322-.588.828-.519 1.125-1.098.643-1.369"/><path d="m33.441 18.386c.574.005.721-.663.312-1.539-.406-.874-1.224-1.65-1.813-1.682-.589-.034-.712.71-.287 1.614.42.906 1.217 1.604 1.788 1.607"/><path d="m12.408 24.755c-.547.155-.746 1.271-.455 2.47.291 1.2.938 1.994 1.458 1.798.521-.196.74-1.275.477-2.434-.264-1.156-.932-1.989-1.48-1.834"/></g><g fill="#56832f"><path transform="matrix(.8001-.5999.5999.8001-12.84 11.944)" d="m10 24.737h3v1h-3z"/><path transform="matrix(.9923-.124.124.9923-2.514 2.454)" d="m16.95 20.919h3v1h-3z"/><path transform="matrix(.9923-.124.124.9923-2.18 3.815)" d="m28.05 18.919h3v1h-3z"/><path transform="matrix(.9923-.124.124.9923-2.576 3.466)" d="m25.05 21.919h3v1h-3z"/><path transform="matrix(.8682.4961-.4961.8682 16.759-3.278)" d="m13.05 29.415h3v1h-3z"/><path transform="matrix(.8682.4961-.4961.8682 15.257-6.332)" d="m18.05 25.06h3v1h-3z"/><path transform="matrix(.8682.4961-.4961.8682 12.311-9.239)" d="m22.05 18.06h3v1h-3z"/><path transform="matrix(.8682.4961-.4961.8682 14.654-.065)" d="m5.95 27.06h3v1h-3z"/><path transform="matrix(-.3561.9345-.9345-.3561 64.09 15.947)" d="m25.05 29.555h3v1h-3z"/><path transform="matrix(.9923-.124.124.9923-3.105 4.234)" d="m30.95 26.555h3v1h-3z"/><path transform="matrix(.9923-.124.124.9923-2.895 6.338)" d="m47.95 25.919h3v1h-3z"/><path transform="matrix(.9923-.1237.1237.9923-3.879 5.637)" d="m41.95 33.555h3v1h-3z"/><path transform="matrix(.8682.4961-.4961.8682 22.458-10.74)" d="m29.95 36.415h3v.999h-3z"/><path transform="matrix(.8682.4961-.4961.8682 20.18-13.577)" d="m34.15 30.703h3v1h-3z"/><path transform="matrix(.8682.4961-.4961.8682 19.557-15.813)" d="m38.05 28.415h3v1h-3z"/><path transform="matrix(.8683.496-.496.8683 19.15-6.305)" d="m19.95 32.415h2.999v1h-2.999z"/></g></svg>