<svg xmlns="http://www.w3.org/2000/svg" viewBox="0 0 64 64" enable-background="new 0 0 64 64"><g fill="#6adbc6"><path d="m32 30.774c0 0-1.711-10.721-1.711-11.469s.767-1.354 1.711-1.354 1.711.606 1.711 1.354-1.711 11.469-1.711 11.469"/><path d="m32 33.28c0 0 1.711 10.722 1.711 11.47 0 .747-.767 1.354-1.711 1.354s-1.711-.606-1.711-1.354c0-.748 1.711-11.47 1.711-11.47"/><path d="m30.749 32.03c0 0-10.721 1.71-11.468 1.71-.748 0-1.354-.765-1.354-1.71 0-.945.606-1.711 1.354-1.711.747 0 11.468 1.711 11.468 1.711"/><path d="m33.25 32.03c0 0 10.721-1.711 11.469-1.711.747 0 1.354.766 1.354 1.711 0 .945-.606 1.71-1.354 1.71-.748 0-11.469-1.71-11.469-1.71"/><path d="m31.11 31.14c0 0-8.791-6.371-9.319-6.9-.529-.528-.416-1.499.253-2.167.668-.668 1.638-.781 2.167-.253.528.529 6.899 9.32 6.899 9.32"/><path d="m32.886 32.911c0 0 8.791 6.37 9.318 6.899.529.528.416 1.499-.253 2.168-.668.668-1.638.781-2.167.253-.528-.529-6.898-9.32-6.898-9.32"/><path d="m31.11 32.911c0 0-6.371 8.791-6.899 9.32-.529.528-1.5.415-2.167-.253-.669-.669-.782-1.64-.253-2.168.528-.529 9.319-6.899 9.319-6.899"/><path d="m32.886 31.14c0 0 6.37-8.791 6.898-9.32.529-.528 1.499-.416 2.167.253.669.668.782 1.639.253 2.167-.527.53-9.318 6.9-9.318 6.9"/></g><g fill="#ffce31"><path d="m31.16 29.937c0 0-8.816-17.251-9.32-18.499-.504-1.248-.203-2.546.674-2.9s1.996.371 2.5 1.618 6.146 19.781 6.146 19.781"/><path d="m32.844 34.12c0 0 8.816 17.252 9.32 18.499.504 1.248.202 2.546-.674 2.899-.877.355-1.995-.369-2.499-1.617s-6.147-19.781-6.147-19.781"/><path d="m29.912 32.87c0 0-17.252 8.815-18.5 9.319-1.248.505-2.546.203-2.901-.674-.353-.875.371-1.995 1.619-2.499 1.247-.503 19.782-6.146 19.782-6.146"/><path d="m34.09 31.18c0 0 17.252-8.816 18.499-9.32 1.249-.504 2.547-.203 2.901.674.354.876-.371 1.995-1.619 2.499-1.247.505-19.781 6.147-19.781 6.147"/><path d="m29.926 31.15c0 0-18.432-5.965-19.671-6.491-1.239-.526-1.943-1.657-1.574-2.527.369-.87 1.673-1.149 2.912-.623 1.238.525 18.333 9.641 18.333 9.641"/><path d="m34.07 32.906c0 0 18.432 5.966 19.672 6.491 1.238.524 1.943 1.657 1.573 2.526-.369.871-1.673 1.149-2.911.624-1.239-.526-18.334-9.641-18.334-9.641"/><path d="m31.12 34.1c0 0-5.965 18.433-6.491 19.671-.526 1.239-1.658 1.944-2.527 1.575-.87-.37-1.149-1.674-.624-2.912.526-1.239 9.642-18.334 9.642-18.334"/><path d="m32.881 29.952c0 0 5.964-18.433 6.49-19.671.526-1.239 1.657-1.944 2.527-1.575.87.37 1.149 1.673.624 2.912-.526 1.239-9.641 18.334-9.641 18.334"/></g><g fill="#42ade2"><path d="m32.01 47.07c0 0 1.712 12.484 1.712 13.355.002.871-.764 1.577-1.709 1.577-.945.001-1.711-.706-1.711-1.576 0-.871 1.708-13.356 1.708-13.356"/><path d="m31.996 15.956c0 0-1.714-11.668-1.714-12.482-.002-.814.765-1.474 1.71-1.474.945 0 1.711.659 1.711 1.473 0 .814-1.707 12.483-1.707 12.483"/><path d="m42.659 42.65c0 0 10.04 7.616 10.655 8.232.615.615.573 1.656-.095 2.324s-1.709.711-2.324.096c-.616-.614-8.236-10.652-8.236-10.652"/><path d="m20.651 20.659c0 0-9.462-7.04-10.04-7.614-.575-.576-.5-1.583.168-2.252.668-.668 1.677-.744 2.252-.168.576.574 7.619 10.03 7.619 10.03"/><path d="m42.659 21.349c0 0 7.62-10.04 8.236-10.651.615-.616 1.656-.573 2.324.095.668.669.71 1.709.095 2.325-.615.615-10.655 8.231-10.655 8.231"/><path d="m20.651 43.34c0 0-7.04 9.459-7.619 10.03-.575.575-1.584.5-2.252-.168s-.743-1.677-.168-2.252c.577-.574 10.04-7.613 10.04-7.613"/><path d="m47.07 31.994c0 0 12.484-1.714 13.355-1.714.871 0 1.576.766 1.576 1.71.001.945-.704 1.711-1.575 1.711-.87.002-13.356-1.707-13.356-1.707"/><path d="m15.956 32.01c0 0-11.669 1.713-12.482 1.713-.814.001-1.474-.764-1.474-1.709 0-.945.66-1.711 1.473-1.711.814-.001 12.483 1.707 12.483 1.707"/><circle cx="20.728" cy="5.096" r="1.84"/><circle cx="43.544" cy="5.096" r="1.84"/><circle cx="20.21" cy="59.02" r="1.84"/><circle cx="43.02" cy="59.02" r="1.841"/><circle cx="4.913" cy="43.21" r="1.841"/><circle cx="4.913" cy="20.393" r="1.84"/><circle cx="58.842" cy="43.728" r="1.84"/><circle cx="58.842" cy="20.912" r="1.84"/></g></svg>