<svg xmlns="http://www.w3.org/2000/svg" viewBox="0 0 64 64" enable-background="new 0 0 64 64"><path fill="#333" d="M64,53.839c0,2.564-1.727,4.642-3.856,4.642H3.856C1.727,58.48,0,56.403,0,53.839V13.548
		c0-2.564,1.727-4.642,3.856-4.642h56.287c2.13,0,3.856,2.077,3.856,4.642V53.839z"/><path fill="#b2b2b2" d="m3.938 54.953c5.672 0 11.345 0 17.02 0-1.767-13.817-1.767-28.702 0-42.52-5.672 0-11.345 0-17.02 0-4.49 13.818-4.49 28.703 0 42.52"/><path fill="#d0d0d0" d="m2.862 51.3c5.89 0 11.78 0 17.67 0-1.203-11.54-1.203-23.679 0-35.22-5.89 0-11.78 0-17.67 0-3.056 11.54-3.056 23.679 0 35.22"/><path fill="#fff" d="m1.983 47.566c6.067 0 12.135 0 18.203 0-.742-9.152-.742-18.594 0-27.745-6.068 0-12.135 0-18.203 0-1.884 9.152-1.884 18.593 0 27.745"/><path fill="#4187b7" d="m19.556 17.05c-5.354 0-10.708 0-16.06 0 .375-1.549.803-3.088 1.284-4.615 5.113 0 10.227 0 15.34 0-.211 1.526-.398 3.066-.561 4.615"/><path fill="#fbbf67" d="m19.746 54.953c-.367-2.846-4.04-5.199-8.321-5.198-4.272-.001-7.205 2.353-6.278 5.198 4.866 0 9.732 0 14.599 0"/><path fill="#b2b2b2" d="m23.491 54.953c5.672 0 11.345 0 17.02 0 1.361-13.817 1.361-28.702 0-42.52-5.673 0-11.345 0-17.02 0-1.361 13.818-1.361 28.703 0 42.52"/><path fill="#d0d0d0" d="m23.16 51.3c5.89 0 11.78 0 17.67 0 .927-11.54.927-23.679 0-35.22-5.89 0-11.78 0-17.67 0-.926 11.54-.926 23.679 0 35.22"/><path fill="#fff" d="m22.898 47.563c6.068 0 12.136 0 18.203 0 .571-9.15.571-18.591 0-27.741-6.067 0-12.135 0-18.203 0-.57 9.151-.57 18.591 0 27.741"/><path fill="#4187b7" d="m40.03 17.05c-5.354 0-10.708 0-16.06 0 .106-1.549.226-3.088.362-4.615 5.113 0 10.227 0 15.34 0 .136 1.526.256 3.066.361 4.615"/><path fill="#fbbf67" d="m39.3 54.953c.279-2.846-3.02-5.199-7.301-5.198-4.274-.001-7.579 2.353-7.3 5.198 4.867 0 9.734 0 14.601 0"/><path fill="#b2b2b2" d="m43.05 54.953c5.673 0 11.345 0 17.02 0 4.489-13.817 4.489-28.702 0-42.52-5.673 0-11.345 0-17.02 0 1.767 13.818 1.767 28.703 0 42.52"/><path fill="#d0d0d0" d="m43.47 51.3c5.891 0 11.78 0 17.67 0 3.056-11.54 3.056-23.679 0-35.22-5.89 0-11.779 0-17.67 0 1.203 11.54 1.203 23.679 0 35.22"/><path fill="#fff" d="m43.814 47.563c6.067 0 12.135 0 18.203 0 1.883-9.15 1.883-18.591-.001-27.741-6.067 0-12.135 0-18.202 0 .742 9.151.742 18.591 0 27.741"/><path fill="#4187b7" d="m60.51 17.05c-5.354 0-10.709 0-16.06 0-.164-1.549-.351-3.088-.561-4.615 5.113 0 10.227 0 15.34 0 .481 1.526.909 3.066 1.284 4.615"/><path fill="#fbbf67" d="m58.854 54.953c.926-2.846-2.01-5.199-6.279-5.198-4.276-.001-7.953 2.353-8.32 5.198 4.865 0 9.732 0 14.599 0"/><path fill="#3390ff" d="m49.51 40.752c-.146 0-.284-.063-.379-.174s-.138-.257-.115-.4c.027-.186.681-4.257 4.24-7.256-.373-.056-.818-.102-1.282-.102-1.737 0-2.797.604-3.148 1.794-.063.213-.258.358-.479.358h-1.443c-.276 0-.5-.224-.5-.5v-5.726c0-.276.224-.5.5-.5h1.443c.26 0 .473.198.498.451.888-.407 2.463-.988 4.211-.988.767 0 1.497.114 2.171.339 1.269.423 1.834.82 2.173 1.058.075.053.169.119.2.131.039-.025.381-.251.526-.348.082-.054.178-.083.276-.083h2.501c.206 0 .391.126.466.318.074.192.024.41-.127.55-.042.039-4.155 3.916-4.155 10.579 0 .276-.224.5-.5.5h-7.08z"/><path fill="#161616" d="m53.06 28.21c.658 0 1.341.089 2.01.313 1.927.643 2.119 1.208 2.491 1.208.175 0 .39-.125.843-.425h2.501c0 0-4.316 3.965-4.316 10.947h-7.08c0 0 .704-4.666 4.917-7.598 0 0-1.145-.333-2.453-.333-1.455 0-3.113.413-3.628 2.152h-1.443v-5.726h1.443v.766c-.001-.001 2.183-1.304 4.708-1.304m7.847 1.096h.005m-7.852-2.096c-1.576 0-3.02.449-3.986.847-.182-.19-.438-.309-.723-.309h-1.443c-.553 0-1 .448-1 1v5.726c0 .553.447 1 1 1h1.443c.443 0 .833-.292.959-.717.104-.354.425-1.436 2.669-1.436.038 0 .077.001.115.001-2.965 3.01-3.541 6.604-3.568 6.781-.043.288.041.581.231.802.189.221.467.348.758.348h7.08c.553 0 1-.447 1-1 0-6.24 3.68-9.91 3.975-10.193.211-.184.345-.453.345-.754 0-.552-.445-1-.998-1h-.005-2.501c-.196 0-.389.058-.553.167-.049.033-.152.101-.251.163-.355-.247-.984-.651-2.214-1.062-.726-.241-1.509-.364-2.329-.364z"/><path fill="#fff" d="m27.605 40.752c-.146 0-.284-.063-.379-.174-.095-.11-.137-.257-.116-.4.028-.186.681-4.257 4.241-7.256-.374-.056-.819-.102-1.283-.102-1.737 0-2.796.604-3.148 1.794-.063.213-.258.358-.479.358h-1.443c-.276 0-.5-.224-.5-.5v-5.726c0-.276.224-.5.5-.5h1.443c.26 0 .473.198.498.451.888-.407 2.463-.988 4.211-.988.767 0 1.497.114 2.171.339 1.269.423 1.834.82 2.173 1.058.075.053.169.119.2.131.039-.025.381-.251.526-.348.082-.054.178-.083.276-.083h2.501c.206 0 .391.126.466.318.074.192.024.41-.127.55-.042.039-4.155 3.916-4.155 10.579 0 .276-.224.5-.5.5h-7.08z"/><path fill="#161616" d="m31.15 28.21c.659 0 1.341.089 2.01.313 1.927.643 2.119 1.208 2.491 1.208.175 0 .39-.125.843-.425h2.501c0 0-4.316 3.965-4.316 10.947h-7.08c0 0 .704-4.666 4.917-7.598 0 0-1.144-.333-2.453-.333-1.455 0-3.113.413-3.628 2.152h-1.443v-5.726h1.443v.766c-.001-.001 2.184-1.304 4.708-1.304m7.848 1.096h.005m-7.853-2.096c-1.576 0-3.02.449-3.985.847-.182-.19-.439-.309-.723-.309h-1.443c-.552 0-1 .448-1 1v5.726c0 .553.448 1 1 1h1.443c.443 0 .833-.292.959-.717.105-.354.425-1.436 2.669-1.436.039 0 .077.001.115.001-2.964 3.01-3.541 6.604-3.567 6.781-.043.288.041.581.231.802.19.221.466.348.758.348h7.08c.553 0 1-.447 1-1 0-6.24 3.68-9.91 3.975-10.193.211-.184.345-.453.345-.754 0-.552-.445-1-.998-1h-.005-2.501c-.196 0-.389.058-.553.167-.049.033-.152.101-.251.163-.355-.247-.984-.651-2.214-1.062-.727-.241-1.51-.364-2.331-.364z"/><path fill="#ed4c5c" d="m5.699 40.752c-.146 0-.284-.063-.379-.174-.095-.11-.137-.257-.116-.4.028-.186.681-4.257 4.241-7.256-.374-.056-.819-.102-1.283-.102-1.737 0-2.796.604-3.148 1.794-.063.213-.258.358-.479.358h-1.443c-.276 0-.5-.224-.5-.5v-5.726c0-.276.224-.5.5-.5h1.443c.26 0 .473.198.498.451.888-.407 2.463-.988 4.211-.988.767 0 1.497.114 2.171.339 1.269.423 1.834.82 2.172 1.058.075.053.169.119.201.131.038-.025.38-.251.526-.348.082-.054.178-.083.276-.083h2.501c.206 0 .391.126.465.318.075.192.024.41-.126.55-.042.039-4.155 3.916-4.155 10.579 0 .276-.224.5-.5.5h-7.08z"/><path fill="#161616" d="m9.244 28.21c.659 0 1.341.089 2.01.313 1.927.643 2.119 1.208 2.491 1.208.175 0 .39-.125.843-.425h2.501c0 0-4.316 3.965-4.316 10.947h-7.08c0 0 .704-4.666 4.917-7.598 0 0-1.144-.333-2.453-.333-1.455 0-3.113.413-3.628 2.152h-1.443v-5.726h1.443v.766c0-.001 2.185-1.304 4.709-1.304m7.848 1.096h.005m-7.853-2.096c-1.576 0-3.02.449-3.985.847-.182-.19-.439-.309-.723-.309h-1.444c-.552 0-1 .448-1 1v5.726c0 .553.448 1 1 1h1.443c.443 0 .833-.292.959-.717.105-.354.425-1.436 2.669-1.436.039 0 .077.001.115.001-2.964 3.01-3.541 6.604-3.567 6.781-.043.288.041.581.231.802.19.221.466.348.758.348h7.08c.552 0 1-.447 1-1 0-6.24 3.68-9.91 3.975-10.193.211-.184.344-.453.344-.754 0-.552-.445-1-.998-1h-.005-2.501c-.196 0-.389.058-.552.167-.049.033-.152.101-.251.163-.355-.247-.984-.651-2.214-1.062-.726-.241-1.51-.364-2.33-.364z"/></svg>