<svg xmlns="http://www.w3.org/2000/svg" viewBox="0 0 64 64" enable-background="new 0 0 64 64"><path fill="#896349" d="m41.14 38.847c-.607-.896-1.621-1.482-2.77-1.482-1.861 0-3.367 1.538-3.367 3.44v12.337c0 1.898 1.506 3.437 3.367 3.437s3.367-1.538 3.367-3.437v-4.476-7.861c0-.728-.22-1.403-.597-1.958"/><path fill="#3e4347" d="m38.37 56.58c1.861 0 3.367-1.538 3.367-3.437h-6.734c0 1.899 1.506 3.437 3.367 3.437"/><path fill="none" stroke="#a87654" stroke-width="1.5" stroke-miterlimit="10" d="m42.593 30.483c0 0 10.293-2.592 15.592-9.632"/><g fill="#a87654"><path d="m54.88 24.18c-.076-2.67.299-4.863 1.117-6.175 1.234-.828 3.359-1.247 5.992-1.187.08 2.672-.297 4.864-1.115 6.177-1.236.827-3.359 1.249-5.994 1.185"/><path d="m55.3 36.514c0 6.795-6.03 12.304-13.469 12.304h-23.939v-24.63h23.939c7.44-.001 13.469 5.509 13.469 12.326"/><path d="m36.571 38.447c-.883-1.302-2.352-2.153-4.02-2.153-2.701 0-4.889 2.233-4.889 4.995v15.719c0 2.758 2.188 4.991 4.889 4.991 2.703 0 4.89-2.233 4.89-4.991v-6.498-9.221c0-1.056-.322-2.035-.869-2.842"/></g><path fill="#3e4347" d="m32.55 61.999c2.703 0 4.89-2.233 4.89-4.991h-9.779c.001 2.758 2.188 4.991 4.889 4.991"/><path fill="#a87654" d="m16.498 36.34c-2.701 0-4.885 2.229-4.885 4.985v5.641 8.49 1.557c0 2.752 2.184 4.981 4.885 4.981 2.693 0 4.875-2.229 4.875-4.981v-15.688c0-2.756-2.182-4.985-4.875-4.985"/><path fill="#3e4347" d="m16.498 61.999c-2.701 0-4.885-2.229-4.885-4.981h9.76c0 2.752-2.182 4.981-4.875 4.981"/><path fill="#a87654" d="m54.51 34.621c-.805-1.186-2.143-1.96-3.662-1.96-2.459 0-4.449 2.034-4.449 4.547v16.308c0 2.509 1.99 4.544 4.449 4.544 2.461 0 4.453-2.035 4.453-4.544v-5.916-10.392c0-.961-.295-1.853-.791-2.587"/><path fill="#3e4347" d="m50.845 58.06c2.461 0 4.453-2.035 4.453-4.544h-8.902c0 2.508 1.99 4.544 4.449 4.544"/><path fill="#c1875d" d="m46.854 13.435c.125 4.04-.482 7.361-1.799 9.349-1.992 1.248-5.42 1.888-9.668 1.793-.125-4.04.48-7.364 1.801-9.351 1.993-1.247 5.418-1.887 9.666-1.791"/><path fill="#3e4347" d="m44.33 15.893c.07 2.258-.27 4.112-1.01 5.224-1.113.699-3.03 1.056-5.404 1-.07-2.261.268-4.115 1.01-5.227 1.115-.699 3.03-1.055 5.404-1"/><path fill="#c1875d" d="m13.671 24.523c-4.201.119-7.65-.464-9.713-1.733-1.299-1.917-1.961-5.215-1.861-9.304 4.197-.119 7.646.461 9.709 1.731 1.301 1.92 1.961 5.216 1.865 9.306"/><path fill="#3e4347" d="m11.142 22.11c-2.365.066-4.307-.261-5.471-.977-.732-1.08-1.105-2.938-1.051-5.243 2.367-.069 4.311.26 5.473.976.733 1.082 1.108 2.94 1.049 5.244"/><path fill="#c1875d" d="m41.522 24.654c0 2.892-4.574 6.922-4.574 11.128 0 0-5.8 6.404-12.425 6.404-6.492 0-12.266-6.193-12.266-6.193 0-4.312-4.732-8.439-4.732-11.339 0-3.848 1.521-7.94 6.145-13.257 1.086-1.248 1.391-2.869 10.854-2.869 9.386 0 10.07 1.311 11.05 2.373 4.527 4.894 5.946 8.663 5.946 13.753"/><path fill="#db9e75" d="m37.731 40.07c0 3.847-3.096 5.605-13.205 5.605-10.11 0-13.203-1.759-13.203-5.605 0-3.848.277-8.324 13.203-8.324 12.926.001 13.205 4.477 13.205 8.324"/><g fill="#3e4347"><ellipse cx="33.27" cy="22.912" rx="3.726" ry="3.975"/><ellipse cx="15.773" cy="22.912" rx="3.727" ry="3.975"/></g><g fill="#db9e75"><path d="m33.37 30.98c-2.214-1.091-5.343.881-6.994 4.403-1.652 3.528-1.191 7.272 1.027 8.363 2.213 1.095 5.346-.876 6.992-4.401 1.649-3.526 1.19-7.271-1.025-8.365"/><path d="m15.685 30.98c-2.217 1.096-2.676 4.839-1.025 8.366 1.648 3.524 4.779 5.496 6.994 4.401 2.215-1.092 2.676-4.836 1.021-8.361-1.642-3.525-4.777-5.498-6.99-4.406"/></g><g fill="#f6c799"><path d="m15.599 10.73c-9.586 2.308-13.586-8.73-13.586-8.73-.527 15.974 14.817 14.571 15.533 13.373.959-1.604.276-5.179-1.947-4.643"/><path d="m33.448 10.73c9.586 2.308 13.584-8.73 13.584-8.73.527 15.975-14.814 14.571-15.531 13.373-.959-1.604-.275-5.179 1.947-4.643"/></g><g fill="#3e4347"><path d="m32.574 33.05c-1.623-.799-3.916.646-5.125 3.227-1.211 2.585-.873 5.328.752 6.128 1.623.802 3.918-.643 5.123-3.226 1.208-2.583.872-5.328-.75-6.129"/><path d="m16.484 33.05c-1.625.803-1.961 3.546-.752 6.129 1.207 2.583 3.502 4.03 5.125 3.226 1.621-.8 1.959-3.543.75-6.126-1.205-2.584-3.502-4.03-5.123-3.229"/></g></svg>