<svg xmlns="http://www.w3.org/2000/svg" viewBox="0 0 64 64" enable-background="new 0 0 64 64"><path fill="#dae5ef" d="m48.12 39.39h-32.24l-8.275-4.33.126 12.24h48.541l.13-12.24z"/><g fill="#ffbf3e"><path d="m15.478 35.12c0 0-16-5.958-12.784-7.387 8.861-3.936 12.784 7.387 12.784 7.387"/><path d="m15.478 35.12c0 0-13.596-10.5-10.368-11.934 8.183-3.635 10.368 11.934 10.368 11.934"/><path d="m15.478 35.12c0 0-17.634-.542-12.561-2.796 11.394-5.061 12.561 2.796 12.561 2.796"/><path d="m48.52 35.12c0 0 16-5.958 12.783-7.387-8.862-3.936-12.783 7.387-12.783 7.387"/><path d="m48.52 35.12c0 0 13.596-10.5 10.367-11.934-8.183-3.635-10.367 11.934-10.367 11.934"/><path d="m48.52 35.12c0 0 17.633-.542 12.559-2.796-11.392-5.061-12.559 2.796-12.559 2.796"/></g><g fill="#ffd93b"><path d="m33.983 21.809c2.409 3.853-10.899 4.04-11.738-5.395-.837-9.433 5.711-14.414 5.711-14.414s-.422 9.501 6.03 19.809"/><path d="m32.691 19c-1.782 4.149-9.987-5.781-2.565-12.12 7.42-6.338 15.567-4.409 15.567-4.409s-8.24 5.427-13 16.527"/><path d="m26.24 27.896c1.781 4.149 9.986-5.781 2.565-12.12-7.422-6.337-15.568-4.408-15.568-4.408s8.24 5.427 13 16.527"/><path d="m50.759 35.604c0 10.25-8.399 11.836-18.76 11.836-10.362 0-18.758-1.586-18.758-11.836 0-20.994 9.175-25.283 18.758-25.283 9.58-.001 18.76 4.288 18.76 25.283"/></g><path fill="#e08828" d="m28.22 34.839h7.563c0 2.437-1.891 4.078-3.782 4.078s-3.781-1.642-3.781-4.078"/><path fill="#f29a2e" d="m35.781 34.839c0 0-2.431 1.143-3.782 1.142-1.352 0-3.78-1.142-3.78-1.142 0-3.03 1.694-5.487 3.78-5.487 2.088 0 3.782 2.455 3.782 5.487"/><g fill="#bc9342"><path d="m44.74 25.07c-.361-.676-.794-1.33-1.38-1.88-.572-.556-1.298-1.021-2.149-1.229-.85-.203-1.79-.071-2.524.329-.748.382-1.318.967-1.751 1.602.652-.443 1.313-.838 2-1.086.689-.246 1.408-.308 2.09-.138.688.153 1.332.518 1.939.946.604.437 1.174.949 1.773 1.456"/><path d="m19.261 25.07c.361-.676.794-1.33 1.379-1.88.573-.556 1.299-1.021 2.15-1.229.852-.203 1.79-.071 2.524.329.748.382 1.317.967 1.751 1.602-.652-.443-1.313-.838-2-1.086-.689-.246-1.408-.308-2.089-.138-.688.153-1.333.518-1.94.946-.603.437-1.174.949-1.773 1.456"/></g><g fill="#3e4347"><path d="m20.865 30.37c0-1.238 1.028-2.562 2.298-2.562 1.267 0 2.296 1.323 2.296 2.562s-1.029 1.78-2.296 1.78c-1.269 0-2.298-.542-2.298-1.78"/><path d="m38.54 30.37c0-1.238 1.028-2.562 2.299-2.562 1.267 0 2.296 1.323 2.296 2.562s-1.029 1.78-2.296 1.78c-1.271 0-2.299-.542-2.299-1.78"/></g><path fill="#ffea92" d="m44.07 47.671c.048-.269.075-.542.075-.818 0-4.161-5.437-7.534-12.144-7.534-6.705 0-12.142 3.373-12.142 7.534 0 .276.027.55.075.819 3.261 1.311 7.469 1.643 12.07 1.643s8.808-.333 12.07-1.644"/><path fill="#3e4347" d="m35.781 34.749c0 0-1.692 2.38-3.781 2.38-2.088 0-3.781-2.38-3.781-2.38s1.693-2.384 3.781-2.384c2.089 0 3.781 2.384 3.781 2.384"/><path fill="#dae5ef" d="m56.4 35.06l-3.764 6.684-5.415-4.131-16.07 12.966-14.365-12.967-5.415 4.131-3.764-6.684c0 0-2.507 1.753-2.507 5.141.001 12.07 11.442 21.801 26.905 21.801 15.464 0 26.904-9.729 26.904-21.801 0-3.387-2.507-5.14-2.507-5.14"/><path fill="#fff" d="m56 36.812l-.76 3.843-8.02-3.043-5.114 10.262-10.11-7.296-15.44 6.76.222-9.727-8.02 3.043-.76-3.843c0 0-1.403 1.468-1.403 3.979-.001 10.223 10.57 18.87 25.403 18.87 14.832 0 25.404-8.647 25.404-18.869 0-2.512-1.403-3.979-1.403-3.979"/></svg>