<svg xmlns="http://www.w3.org/2000/svg" viewBox="0 0 64 64" enable-background="new 0 0 64 64"><path fill="#89664c" d="m9.108 47.658c-1.781 1.779-2.72.979-3.793-.096-1.074-1.074-1.877-2.01-.096-3.793 1.78-1.779 5.01-4.186 6.084-3.111 1.073 1.074-.415 5.221-2.195 7"/><path fill="#c1875d" d="m50.06 41.18c.143-.328.305-.645.433-.98l9.707 2.219-8.919-4.676c.367-1.426.598-2.906.684-4.426l10.04-1.319-10.04-1.32c-.086-1.518-.316-2.998-.683-4.424l8.92-4.675-9.708 2.218c-.556-1.453-1.255-2.837-2.08-4.133l6.569-7.247-8.02 5.219c-1.028-1.283-2.188-2.455-3.464-3.491l3.513-8.523-5.382 7.154c-1.49-.98-3.1-1.795-4.805-2.412l.379-8.366-2.376 7.745c-1.86-.485-3.811-.745-5.823-.745-.018 0-.035.001-.053.001l-2.148-7 .32 7.082c-2.248.183-4.403.687-6.422 1.469l-3.707-4.927 2.281 5.533c-2.205 1.03-4.218 2.401-5.975 4.04l-4.275-2.783 3.352 3.699c-1.787 1.869-3.261 4.04-4.34 6.43l-4.23-.969 3.799 1.992c-.969 2.455-1.525 5.117-1.588 7.902l-4.01.528 4.01.527c.046 2.035.361 4 .902 5.871 4.245-.975 9.172-1.516 14.783-1.516 9.691.001 19.852 1.61 28.357 4.3"/><path fill="#ffe2b3" d="m3.803 42.42l4.231-.969c1.078 2.389 2.552 4.559 4.338 6.428l-3.352 3.699 4.276-2.783c1.757 1.643 3.77 3.01 5.976 4.045l-2.281 5.533 3.707-4.926c2.02.781 4.174 1.285 6.422 1.467l-.321 7.084 2.148-7c.018 0 .036.002.053.002 2.01 0 3.963-.26 5.823-.746l2.376 7.746-.378-8.367c1.705-.615 3.314-1.43 4.805-2.412l5.382 7.154-3.513-8.521c1.275-1.037 2.436-2.209 3.463-3.492l8.02 5.219-6.569-7.246c.634-.998 1.169-2.059 1.646-3.152-8.505-2.689-18.666-4.299-28.356-4.299-5.611 0-10.538.541-14.783 1.516.199.691.425 1.369.686 2.031l-3.8 1.991"/><ellipse fill="#fcfcfa" cx="14.191" cy="26.701" rx="5.958" ry="6.168"/><ellipse fill="#29251c" cx="14.19" cy="26.701" rx="4.096" ry="4.24"/><ellipse fill="#fcfcfa" cx="32" cy="26.701" rx="7.833" ry="8.109"/><ellipse fill="#29251c" cx="32" cy="26.701" rx="5.385" ry="5.574"/><path fill="#c1875d" d="m51.29 45.12c2.746 2.746 1.509 4.195-.148 5.852s-3.105 2.895-5.852.148c-2.747-2.748-6.459-7.73-4.802-9.389 1.657-1.656 8.05.641 10.802 3.389"/><path fill="#ffe2b3" d="m12.63 37.408c5.179-.043 5.05-2.598 8.295-3.262 2.551-.521 4.618 2.289 8.629 3.072"/><path fill="#29251c" d="m17.487 38.682c.353-.696.775-1.37 1.347-1.938.559-.571 1.268-1.051 2.099-1.265.832-.209 1.748-.073 2.465.338.73.394 1.286.995 1.709 1.651-.635-.457-1.282-.864-1.954-1.12-.673-.252-1.374-.316-2.04-.142-.672.158-1.301.533-1.893.976-.591.45-1.148.976-1.733 1.5"/><g fill="#e0bb86"><path d="m18.297 39.508c-.227.134-.474.208-.74.23-.265.029-.553-.023-.813-.173-.255-.155-.453-.425-.5-.704-.059-.276-.028-.544.08-.785.099.244.17.471.281.652.112.181.234.315.398.409.323.209.788.246 1.294.371"/><path d="m26.19 36.68c.129.196.201.412.226.647.031.234-.015.491-.148.725-.14.229-.383.407-.633.444-.248.047-.484.014-.694-.094.213-.099.408-.168.561-.268.151-.102.261-.204.339-.341.174-.269.215-.667.349-1.113"/><path d="m19.12 39.3c.254-.337.517-.667.852-.945.327-.284.73-.503 1.179-.606.448-.095.938-.051 1.342.149.41.188.742.483.986.832-.38-.192-.741-.381-1.117-.47-.373-.091-.745-.107-1.106-.022-.365.072-.714.241-1.065.431-.351.189-.68.447-1.071.631"/></g><g fill="#89664c"><ellipse transform="matrix(.3025.9532-.9532.3025 61.07-23.447)" cx="46.554" cy="30" rx="2.709" ry="1.916"/><ellipse transform="matrix(.3024.9532-.9532.3024 54.86-27.993)" cx="46.554" cy="23.481" rx="1.948" ry="1.378"/><ellipse transform="matrix(.3022.9532-.9532.3022 54.638-24.472)" cx="44.03" cy="25.09" rx="1.249" ry=".884"/><ellipse transform="matrix(-.5125.8587-.8587-.5125 37.6 12.737)" cx="15.185" cy="17.04" rx="1.6" ry="1.131"/><path d="m18.296 18.338c-.778-.464-.876-1.731-.222-2.833.658-1.1 1.822-1.615 2.601-1.151.779.465.88 1.734.22 2.834-.653 1.099-1.818 1.617-2.599 1.15"/><ellipse transform="matrix(-.5126.8586-.8586-.5126 38.736 5.658)" cx="17.762" cy="13.823" rx=".964" ry=".682"/></g></svg>