<svg xmlns="http://www.w3.org/2000/svg" viewBox="0 0 64 64" enable-background="new 0 0 64 64"><path fill="#fed0ac" d="m52.39 43.891c-3.164-1.201-2.059-6.799-2.059-6.799h-36.655c0 0 1.107 5.598-2.059 6.799 0 0-2.614-.333-2.614 2.704 0 3.66 2.69 3.04 2.69 3.04 0 5.572 5.693 11.448 20.312 11.448 14.615 0 20.31-5.876 20.31-11.448 0 0 2.688.62 2.688-3.04 0-3.037-2.613-2.704-2.613-2.704"/><path fill="#454749" d="m50.46 38.633v10.901c0 5.05-5.16 10.37-18.398 10.37-13.241 0-18.401-5.322-18.401-10.37v-10.901h-1.91v11.919c0 5.571 5.695 11.446 20.312 11.446 14.615 0 20.31-5.875 20.31-11.446v-11.919h-1.913"/><g fill="#fff"><ellipse cx="41.45" cy="45.956" rx="5.289" ry="5.314"/><ellipse cx="22.552" cy="45.956" rx="5.291" ry="5.314"/></g><g fill="#664e27"><path d="m26.477 53.911c-.105.121-.162.279-.162.471-.002 1.305 2.574 2.903 5.75 2.903 3.175 0 5.75-1.588 5.75-2.894 0-.175-.049-.359-.137-.48 0 0-2.484 1.124-5.613 1.124-3.123 0-5.588-1.124-5.588-1.124"/><circle cx="41.45" cy="45.957" r="3.75"/></g><circle fill="#231f20" cx="41.45" cy="45.957" r="1.25"/><circle fill="#664e27" cx="22.551" cy="45.957" r="3.75"/><circle fill="#231f20" cx="22.551" cy="45.957" r="1.25"/><path fill="#454749" d="m61.37 35.504c-1.594-.615-3.064-1.197-4.516-1.831 1.664-.021 3.414-.364 5.15-1.307-1.523-.587-2.93-1.147-4.316-1.747 1.209-.161 2.447-.522 3.68-1.187-1.291-.501-2.494-.985-3.678-1.487 1.314-.219 2.656-.667 3.971-1.484-1.451-.461-2.799-.907-4.129-1.381 1.336-.551 2.65-1.365 3.838-2.591-1.768-.089-3.396-.184-5.03-.346 1.537-.726 3.03-1.791 4.293-3.409-1.854.124-5.586-.538-5.586-.538s3.236-2.393 4.404-4.464c-1.758.406-3.377.766-5.02 1.06 1.053-1.28 1.953-2.813 2.465-4.726-1.65.91-5.49 2.862-5.49 2.862s2.193-3.771 2.479-6.171c-1.502 1.168-5.156 3.819-5.156 3.819s1.146-4.03.857-6.428c-1.18 1.531-3.887 4.832-3.887 4.832s-.133-3.827-.979-5.822c-.707 1.833-2.975 7.165-3.414 8.169.07-.628-.271-6.096-1.398-8.193-.541 1.897-3.945 7.453-3.945 7.453s-1.434-6.161-1.648-8.131c-.941 1.191-1.574 2.465-2 3.751-.186-1.357-.342-2.738-.5-4.21-1.376 1.742-2.098 3.66-2.473 5.541-.541-1.64-1.022-3.295-1.533-5.094-1.127 2.099-1.441 7.982-1.319 8.806-.259-.766-1.851-5.761-2.391-7.657-1.127 2.098-1.47 7.564-1.398 8.193-.44-1-2.709-6.336-3.416-8.168-.846 1.994-1.067 3.968-.979 5.82-.153-.181-2.707-3.3-3.887-4.831-.287 2.398.139 4.541.854 6.418.001.003.003.006.004.009-.278-.193-3.654-2.649-5.156-3.818.166 2.707 1.721 5.805 1.721 5.805s-3.083-1.586-4.733-2.496c.513 1.913 1.413 3.445 2.467 4.726-1.64-.294-3.262-.655-5.02-1.061 1.037 2.953 4.092 5.255 4.092 5.255s-3.42-.128-5.273-.253c1.261 1.62 2.758 2.685 4.296 3.41-1.632.161-3.261.257-5.03.346 1.189 1.226 2.503 2.04 3.84 2.591-1.33.474-2.678.92-4.131 1.381 1.316.817 2.657 1.266 3.972 1.484-1.184.502-2.386.986-3.679 1.487 1.234.664 2.473 1.025 3.682 1.187-1.388.6-2.795 1.159-4.318 1.746 1.74.944 3.49 1.286 5.152 1.307-1.451.636-2.922 1.218-4.518 1.832 1.242.674 2.489 1.04 3.707 1.203-1.252 1.1-2.54 2.146-3.945 3.269 3.152.427 7.07-.912 7.07-.912s-2.246 2.757-3.502 4.216c5.922-.122 27.03-11.588 27.03-11.588s17.654 11.06 25.04 11.128c-1.256-1.458-3.5-4.215-3.5-4.215s4.834 1.328 7.07.912c-1.404-1.123-2.689-2.17-3.943-3.27 1.217-.162 2.465-.528 3.705-1.202"/><path fill="#57595b" d="m59.45 33.827c-1.439-.808-2.766-1.574-4.068-2.378 1.248-.17 2.527-.554 3.797-1.261-1.754-.649-6.158-2.468-6.158-2.468s5.03-.693 6.924-2.027c-1.809-.454-3.465-.884-5.115-1.393-.131-.039 3.154-1.427 4.748-2.97-1.852-.154-4.631-1-4.631-1s3.52-1.88 4.951-3.754c-1.852.141-3.555.259-5.27.297-.152.005 2.209-2.666 3.064-4.707-1.754.651-3.369 1.24-5.02 1.757-.063.02 2.314-3.181 2.912-5.509-1.641.929-3.152 1.773-4.707 2.553-.227.116.4-2.8.426-4.689-1.475 2.137-4.748 4.229-4.717 4.089.434-1.974.549-4.16-.086-6.484-1.256 3.77-4.422 6.599-4.422 6.599s.166-4.198-.674-6.445c-.785 1.798-1.514 3.443-2.316 5.066-.037.079-.281-3.593-1.141-5.58-.623 1.653-1.211 3.18-1.844 4.681-.146-1.493-.527-3.03-1.299-4.552-.389 1.254-.762 2.435-1.148 3.589-.539-1.312-1.052-2.652-1.591-4.087-.951 2.195-1.148 4.376-.996 6.397.012.145-1.305-3.557-1.889-5.439-.771 1.521-1.153 3.058-1.3 4.551-.633-1.502-1.22-3.03-1.843-4.681-.861 1.987-1.105 5.658-1.143 5.58-.802-1.622-1.53-3.269-2.315-5.066-.752 3.74-2.336 4.649-2.336 4.649s-1.832-1.493-2.76-4.803c-.635 2.324-.557 6.383-.844 6.124-1.324-1.167-2.588-2.39-3.959-3.729.026 1.891.653 4.805.426 4.688-1.555-.777-3.067-1.623-4.708-2.551.6 2.326 2.975 5.527 2.913 5.508-1.646-.516-3.263-1.104-5.02-1.757.856 2.043 3.219 4.714 3.066 4.709-1.717-.04-3.42-.157-5.271-.298 1.432 1.873 5.74 4.191 5.577 4.212-1.704.234-3.405.39-5.257.545 1.596 1.542 4.881 2.93 4.748 2.969-1.65.51-3.307.938-5.115 1.393 2.279 2.258 5.72 2.548 5.72 2.548s-3.2 1.297-4.954 1.947c1.271.707 2.551 1.091 3.799 1.261-1.304.804-2.629 1.568-4.07 2.378 1.639.6 3.223.729 4.712.594-.028.018-.056.036-.085.054-1.48.934-2.982 1.793-4.627 2.716 1.26.46 2.486.64 3.662.639-.986.985-1.998 1.957-3.096 2.982 2.258.231 8.14-1.933 8.14-1.933-.926 1.545-1.904 3.035-2.982 4.649 2.246-.331 4.072-1.334 5.582-2.561 1.156-.951 2.918-2.862 2.918-2.862s-.502 3.614-.84 5.566c2.238-1.299 5.938-5.921 5.938-5.921s-.127 3.816-.262 5.883c1.955-1.517 3.18-3.337 3.989-5.185.383.603.769 1.203 1.143 1.811.959 1.521 1.838 3.081 2.781 4.791.895-2.543.586-6.904.586-6.904l6.693.292c0 0 .621 3.064.908 4.74 1.297-1.675 2.221-5.103 2.23-5.087.959 1.523 1.838 3.082 2.779 4.793.656-1.865.77-5.212.77-5.212s1.639 1.991 2.666 2.836c1.51 1.227 3.336 2.229 5.582 2.56-1.078-1.613-2.982-4.648-2.982-4.648s5.881 2.165 8.139 1.934c-1.096-1.025-2.107-1.997-3.094-2.982 1.176 0 2.402-.178 3.66-.64-1.645-.923-3.146-1.781-4.625-2.716-.027-.018-.055-.035-.082-.053 1.487.135 3.069.004 4.706-.596"/><path fill="#454749" d="m50.713 26.531c.146-.006.289.001.438-.01 1.895-.154 3.885-.702 5.766-2.046-1.445-.355-2.791-.703-4.119-1.078 1.414-.724 2.781-1.745 3.941-3.247-1.854.13-3.555.237-5.273.268-.332.009-.666.012-.998.017 1.514-1.188 2.912-2.76 3.84-4.939-1.758.64-3.377 1.221-5.02 1.727-.287.092-.58.177-.869.266.063-.063.129-.116.189-.18 1.344-1.435 2.521-3.229 3.131-5.558-1.645.92-3.162 1.755-4.721 2.525-.322.163-.648.32-.973.479.258-.378.506-.769.736-1.179.965-1.743 1.682-3.797 1.727-6.216-1.377 1.33-2.648 2.547-3.977 3.707-.563.501-1.133.992-1.701 1.487.094-.318.193-.634.271-.964.443-1.97.568-4.158-.053-6.485-.951 1.702-1.836 3.26-2.787 4.786-.061.099-.125.197-.186.296.01-1.459-.197-2.985-.771-4.544-.643 1.454-1.258 2.803-1.895 4.127-.008-1.625-.279-3.328-1.012-5.05-.703 1.836-1.357 3.516-2.082 5.178-.299.696-.607 1.388-.914 2.082-.008-.053-.016-.106-.021-.159-.234-1.814-.396-3.626-.562-5.603-1.39 1.671-2.156 3.527-2.581 5.362-.18-.407-.362-.814-.536-1.224-.727-1.661-1.381-3.343-2.084-5.177-.733 1.718-1 3.42-1.012 5.05-.638-1.325-1.253-2.674-1.896-4.128-.574 1.559-.781 3.085-.771 4.544-.061-.099-.124-.197-.185-.296-.951-1.526-1.836-3.084-2.787-4.785-.621 2.326-.496 4.515-.053 6.484.077.33.177.646.271.964-.57-.495-1.141-.986-1.703-1.487-1.328-1.161-2.6-2.377-3.977-3.707.045 2.419.762 4.472 1.727 6.216.229.41.478.8.736 1.178-.324-.159-.651-.316-.973-.479-1.559-.77-3.076-1.605-4.721-2.524.611 2.328 1.787 4.123 3.131 5.556.063.065.13.12.193.184-.291-.089-.583-.175-.873-.267-1.648-.507-3.268-1.088-5.03-1.728.927 2.179 2.325 3.75 3.839 4.938-.332-.005-.665-.008-.997-.017-1.719-.028-3.421-.137-5.274-.267 1.161 1.501 2.527 2.523 3.941 3.246-1.328.376-2.674.724-4.119 1.078 1.881 1.345 3.872 1.893 5.767 2.047.149.011.294.004.441.01-1.587.472-3.187.878-4.925 1.304 1.769 1.263 3.631 1.817 5.422 2.01-.236.173-.472.35-.71.521-1.414 1.038-2.863 2-4.442 3.043 1.91.55 3.717.494 5.369.136-.199.233-.396.471-.597.702-1.152 1.357-2.354 2.652-3.666 4.052 2.045.067 3.838-.47 5.407-1.269-.056.361-.107.725-.167 1.085-.277 1.815-.641 3.606-1.049 5.554 2.291-1.306 3.809-3.03 4.875-4.823.313-.533.573-1.074.81-1.62.176.453.354.905.522 1.361.654 1.702 1.223 3.431 1.832 5.317 1.062-1.936 2.382-5.826 2.864-8.363.229.392.426.789.535 1.2.543 1.956.992 3.919 1.469 6.05 1.551-2.104 2.199-4.387 2.4-6.585.027-.322.024-.639.032-.958.735 1.344 1.485 2.67 2.208 4.01 1.094 1.963 2.082 3.965 3.14 6.146.824-1.753 1.229-3.459 1.355-5.093.266 1.343.662 2.727 1.102 4.097 1.289-2.179 2.488-4.173 3.787-6.12.563-.868 1.143-1.725 1.721-2.587.447.955.971 1.888 1.611 2.771 1.176 1.593 2.709 3.052 4.805 3.969-.664-1.849-1.264-3.554-1.795-5.295-.215-.678-.418-1.36-.625-2.042.559.435 1.139.847 1.77 1.205 1.684.943 3.641 1.604 5.904 1.53-1.313-1.399-2.514-2.694-3.666-4.052-.201-.231-.396-.469-.596-.702 1.652.358 3.457.414 5.367-.136-1.578-1.039-3.03-2-4.441-3.043-.238-.171-.473-.348-.709-.521 1.789-.191 3.652-.746 5.42-2.01-1.733-.425-3.332-.83-4.918-1.303"/></svg>