<svg xmlns="http://www.w3.org/2000/svg" viewBox="0 0 64 64" enable-background="new 0 0 64 64"><path fill="#94989b" d="m27.23 58.55h12.255v5.446h-12.255z"/><g fill="#3e4347"><path d="m49.02 55.83c0 1.42-1.229 2.724-2.724 2.724h-27.23c-1.497 0-2.724-1.304-2.724-2.724v-19.06c0-1.42 1.228-2.724 2.724-2.724h27.23c1.495 0 2.724 1.304 2.724 2.724v19.06"/><circle cx="17.702" cy="17.703" r="17.702"/></g><g fill="#d0d0d0"><circle cx="11.43" cy="8.749" r="4.057"/><circle cx="23.975" cy="8.749" r="4.056"/><circle cx="28.03" cy="20.281" r="4.056"/><circle cx="17.702" cy="28.394" r="4.057"/><circle cx="7.373" cy="20.281" r="4.056"/><circle cx="16.16" cy="15.434" r="1.015"/><circle cx="19.3" cy="15.433" r="1.014"/><circle cx="20.314" cy="18.316" r="1.014"/><circle cx="17.733" cy="20.344" r="1.014"/><circle cx="15.15" cy="18.316" r="1.014"/></g><circle fill="#3e4347" cx="49.02" cy="20.426" r="14.979"/><g fill="#d0d0d0"><circle cx="43.714" cy="12.85" r="3.433"/><circle cx="54.33" cy="12.849" r="3.432"/><circle cx="57.761" cy="22.608" r="3.433"/><circle cx="49.02" cy="29.474" r="3.433"/><circle cx="40.28" cy="22.608" r="3.433"/><circle cx="47.722" cy="18.505" r=".858"/><circle cx="50.38" cy="18.506" r=".858"/><circle cx="51.23" cy="20.946" r=".858"/><circle cx="49.05" cy="22.662" r=".858"/><circle cx="46.864" cy="20.946" r=".858"/></g><g fill="#3e4347"><path d="m6.809 40.852v20.428l10.893-5.45v-9.53z"/><path d="m55.83 35.404v9.533l-6.81-1.362v-6.808z"/></g></svg>