<svg xmlns="http://www.w3.org/2000/svg" viewBox="0 0 64 64" enable-background="new 0 0 64 64"><path fill="#ffce31" d="M2,28.262v31.432C2,62.072,3.919,64,6.285,64h51.43C60.081,64,62,62.072,62,59.693V28.262H2z"/><path fill="#ff8736" d="M62,23.956c0-2.378-1.919-4.306-4.285-4.306H6.285C3.919,19.65,2,21.578,2,23.956v4.306h60V23.956z"/><g fill="#3e4347"><ellipse cx="12.367" cy="23.528" rx="5.92" ry="2.503"/><ellipse cx="51.633" cy="23.528" rx="5.92" ry="2.503"/></g><path fill="#dfe9ef" d="m32 0c-12.91 0-23.419 10.555-23.419 23.528 0 .784 1.58 1.419 3.786 1.419v-1.419c.753-10.972 9.27-19.653 19.633-19.653 10.365 0 18.88 8.681 19.634 19.653v1.419c2.204 0 3.784-.636 3.784-1.419 0-12.973-10.507-23.528-23.419-23.528"/><path fill="#b0bdc6" d="m51.634 23.528c-.754-10.972-9.269-19.653-19.634-19.653-10.363 0-18.88 8.681-19.634 19.653v1.419c2.205 0 4.18-.636 4.18-1.419 0-7.102 5.908-15.525 15.453-15.525 9.547 0 15.455 8.423 15.455 15.525 0 .784 1.973 1.419 4.18 1.419v-1.419"/><path fill="#3e4347" d="m36.609 56.4l-1.913-12.262c1.13-.834 1.866-2.176 1.866-3.693 0-2.532-2.044-4.584-4.563-4.584s-4.562 2.052-4.562 4.584c0 1.518.736 2.859 1.866 3.693l-1.912 12.262h9.218"/><path fill="#42ade2" d="m43.24 27.335v8.199l2.34 2.204v3.753l-2.34 2.204v4.971l2.34 2.204v3.751l-2.34 2.205v3.423l4.69 3.751 4.689-3.751v-32.914c5.465-1.933 9.379-7.141 9.379-13.266 0-7.77-6.298-14.07-14.07-14.07-7.77 0-14.07 6.299-14.07 14.07-.001 6.125 3.915 11.333 9.378 13.266m9.333-17.909c0 2.565-2.079 4.644-4.644 4.644-2.563 0-4.642-2.078-4.642-4.644 0-2.563 2.079-4.642 4.642-4.642 2.565 0 4.644 2.078 4.644 4.642"/></svg>