<svg xmlns="http://www.w3.org/2000/svg" viewBox="0 0 64 64" enable-background="new 0 0 64 64"><path fill="#d0d0d0" d="m51.998 61.998v-43.12c0-8.438-4.01-15-14.02-15-7.343 0-12.02 5.625-12.02 13.13h-2c0-9.375 5.672-15 14.02-15 10.736 0 16.02 6.563 16.02 16.875v43.12l-2 .004"/><path fill="#3e4347" d="m40.04 33.1c0 16.01-6.721 28.899-15.02 28.899-8.294 0-15.02-12.891-15.02-28.899 0-9.772 6.726-22.663 15.02-22.663 8.296 0 15.02 12.89 15.02 22.663"/><g fill="#94989b"><path d="m15.199 25.542c-.748 2.465-1.193 5.05-1.193 7.521 0 4.853.616 9.3 1.623 13.1.305-.487.625-1.025.956-1.626 5.776-10.419 2.481-16.07-1.386-18.999"/><path d="m34.843 25.542c-3.87 2.928-7.163 8.58-1.39 18.999.332.601.651 1.139.96 1.626 1.01-3.804 1.619-8.251 1.619-13.1 0-2.467-.444-5.056-1.189-7.521"/></g><ellipse fill="#ed4c5c" cx="24.966" cy="21.686" rx="6.01" ry="5.625"/></svg>