<svg xmlns="http://www.w3.org/2000/svg" viewBox="0 0 64 64" enable-background="new 0 0 64 64"><path fill="#dadee0" d="m60.857 1.999c1.797 13.431 1.51 24.23-1.166 31.13l-24.807-18.455c4.928-5.093 14.93-11.218 25.973-12.677"/><path fill="#f7a4a4" d="m57.734 32.18l-10.255-13.253c0 0 1.938-7.285 11.616-12.438 2.901 11.656-1.361 25.691-1.361 25.691"/><path fill="#f78d8d" d="m53.831 29.16l-6.352-8.209c0 0 2.574-5.02 8.568-8.216-3.497 7.563-2.216 16.425-2.216 16.425"/><path fill="#dadee0" d="m3.135 1.999c-1.797 13.431-1.51 24.23 1.166 31.13l24.808-18.455c-4.928-5.093-14.931-11.218-25.974-12.677"/><path fill="#f7a4a4" d="m6.258 32.18l10.255-13.253c0 0-1.938-7.285-11.616-12.438-2.901 11.656 1.361 25.691 1.361 25.691"/><path fill="#f78d8d" d="m10.161 29.16l6.352-8.209c0 0-2.574-5.02-8.568-8.216 3.497 7.563 2.216 16.425 2.216 16.425"/><path fill="#dadee0" d="m58.19 50.753c.845-.881 1.415-1.633 1.661-2.162 1.63-2.643 2.144-5.342 2.144-5.342l-2 .424c0 0 2.318-2.463 1.691-7.793l-1.945 2.102c0 0 1.945-5.41.254-10.4l-2.152 1.588c0 0 .654-2.031.053-3.422l-.932.729c0 0 1.689-4.665.154-6.625-.855 2.827-1.871 2.784-1.871 2.784s1.242-2.116.273-3c-.986 1.594-1.807.558-1.768.079.055-.637-.193-1.534 2.703-1.957-2.314-1.414-5.05-.43-5.05-.43s.098-1.489 2.123-1.43c-1.871-1.593-4.48-.648-4.48-.648l.006.017c-4.111-3.11-9.646-4.902-17.05-4.902-7.408 0-12.942 1.792-17.05 4.902l.006-.017c0 0-2.609-.944-4.48.648 2.027-.06 2.125 1.43 2.125 1.43s-2.742-.984-5.057.43c2.898.423 2.65 1.32 2.703 1.957.039.479-.779 1.515-1.768-.079-.967.887.275 3 .275 3s-1.016.043-1.871-2.784c-1.537 1.96.154 6.625.154 6.625l-.929-.73c-.602 1.391.053 3.422.053 3.422l-2.154-1.588c-1.691 4.99.254 10.4.254 10.4l-1.946-2.101c-.625 5.33 1.691 7.793 1.691 7.793l-2-.424c0 0 .513 2.694 2.141 5.339.249.534.833 1.304 1.698 2.202.023.024.044.049.067.072v-.004c4.065 4.183 14.213 11.141 26.09 11.141 11.882 0 22.03-6.96 26.09-11.142v.005c.034-.036.065-.072.099-.109"/><g fill="#94989b"><path d="m37.682 10.762c-1.762-.258-3.65-.401-5.686-.401s-3.926.144-5.689.401c.736 3.856 2.75 6.583 5.688 11.585 2.98-5.079 4.964-7.756 5.687-11.585"/><path d="m46.809 13.784c-1.908-1.092-4.072-1.944-6.523-2.523.59 2.29 1.857 3.921 3.627 6.935 1.237-2.111 2.216-2.663 2.896-4.412"/><path d="m23.705 11.262c-2.451.579-4.615 1.431-6.521 2.522.686 1.765 1.666 2.323 2.891 4.411 1.794-3.057 3.048-4.664 3.63-6.933"/></g><g fill="#4c5359"><path d="m36.04 36.519c-.811-.945-3.299-1.02-4.04-1.02-.742 0-3.232.074-4.04 1.02-.576.672-.131 2.344 1.406 3.785.969.908 1.895 1.195 2.637 1.195.744 0 1.67-.287 2.639-1.195 1.535-1.442 1.982-3.114 1.404-3.785"/><path d="m49.33 44c0 6.04-5.758 13.1-17.337 13.1-11.583 0-17.337-7.05-17.337-13.1 0 0 5.755 0 17.337 0 11.579 0 17.337 0 17.337 0"/></g><path fill="#363b40" d="m33.686 45.34c-.531-.014-1.348.482-1.049 1.805.151.666 1.091 1.469 1.091 2.544 0 2.186-3.461 2.186-3.461 0 0-1.075.938-1.878 1.09-2.544.3-1.322-.518-1.818-1.046-1.805-1.441.038-3.802 1.601-3.802 4.243 0 2.971 2.458 5.379 5.49 5.379s5.488-2.408 5.488-5.379c-.002-2.642-2.364-4.205-3.801-4.243"/><path fill="#ff717f" d="m41.574 54.55c-2.535-1.815-5.713-2.96-9.578-2.96s-7.04 1.145-9.576 2.96c2.531 1.814 5.711 2.964 9.576 2.964s7.04-1.15 9.578-2.964"/><g fill="#fff"><path d="m16.882 43.705l3.842 5.605 3.842-5.605z"/><path d="m20.725 43.705h22.544v2.093h-22.544z"/><path d="m39.43 43.705l3.84 5.605 3.84-5.605z"/></g><g fill="#4c5359"><path d="m31.996 57.849c-11.854 0-18.25-7.135-18.25-13.849v-.751h36.5v.751c0 6.714-6.395 13.849-18.25 13.849m-16.395-13.1c.459 5.756 6.172 11.6 16.395 11.6s15.937-5.844 16.394-11.6h-32.789"/><path d="m27.584 32.519c-3.264-6.197-12.652-6.197-15.916 0-.195.379.32.922.95 1.354 4.136-3.271 9.88-3.271 14.02-.002.631-.431 1.147-.974.951-1.352"/><path d="m52.32 32.519c-3.264-6.197-12.653-6.197-15.917 0-.195.379.32.922.949 1.352 4.137-3.27 9.882-3.27 14.02 0 .631-.433 1.145-.974.951-1.352"/></g></svg>