<svg xmlns="http://www.w3.org/2000/svg" viewBox="0 0 64 64" enable-background="new 0 0 64 64"><path fill="#ffce31" d="m2 38.36h60v16.522h-60z"/><g fill="#3e4347"><path d="m2 54.885h60v1.775h-60z"/><path d="m13.752 44.06h48.25v1.017h-48.25z"/><path d="m13.752 38.844h48.25v1.015h-48.25z"/></g><g fill="#63686b"><path d="m49.586 46.754c-4.57 0-8.277 3.639-8.277 8.132 0 .608.07 1.204.2 1.775h16.16c.128-.572.197-1.166.197-1.774 0-4.493-3.705-8.132-8.275-8.132"/><path d="m18.551 46.754c-4.57 0-8.275 3.639-8.275 8.132 0 .608.068 1.204.198 1.775h16.16c.13-.572.198-1.166.198-1.774 0-4.493-3.706-8.132-8.277-8.132"/></g><path fill="#ffce31" d="M59.931,16H4.259C3.111,16,2.291,16.945,2,18.026v20.337h60v-20.33C62,16.916,61.068,16,59.931,16z"/><ellipse fill="#3e4347" cx="49.586" cy="54.884" rx="7.242" ry="7.116"/><ellipse fill="#94989b" cx="49.586" cy="54.885" rx="3.62" ry="3.558"/><ellipse fill="#3e4347" cx="18.551" cy="54.884" rx="7.24" ry="7.116"/><path fill="#94989b" d="m18.551 51.33c-1.996 0-3.62 1.594-3.62 3.559 0 1.964 1.625 3.558 3.62 3.558 1.998 0 3.622-1.594 3.622-3.558 0-1.965-1.624-3.559-3.622-3.559"/><path fill="#3e4347" d="m2 20.941h3.125v17.422h-3.125z"/><path fill="#f5f5f5" d="m4.659 53.712c-.267.213-1.504.75-1.504.75v-3.629c0 0 1.238.538 1.504.751.801.642.801 1.485 0 2.128"/><path fill="#ed4c5c" d="m4.105 41.763c-.168.161-.951.563-.951.563v-2.723c0 0 .782.402.951.564.506.481.506 1.115 0 1.596"/><path fill="#63686b" d="m14.898 20.941h7.5v4.538h-7.5z"/><path fill="#3e4347" d="m14.898 27.3h7.5v4.538h-7.5z"/><path fill="#63686b" d="m24.14 20.941h7.5v4.538h-7.5z"/><path fill="#3e4347" d="m24.14 27.3h7.5v4.538h-7.5z"/><path fill="#63686b" d="m33.518 20.941h7.5v4.538h-7.5z"/><path fill="#3e4347" d="m33.518 27.3h7.5v4.538h-7.5z"/><path fill="#63686b" d="m42.893 20.941h7.5v4.538h-7.5z"/><path fill="#3e4347" d="m42.893 27.3h7.5v4.538h-7.5z"/><path fill="#63686b" d="m51.688 20.941h7.5v4.538h-7.5z"/><g fill="#3e4347"><path d="m51.688 27.3h7.5v4.538h-7.5z"/><path d="m2 33.621h60v1.017h-60z"/></g><path fill="#f5f5f5" d="m18.526 43.81l-3.295-3.191v-4.509l3.295-3.192h4.664l3.291 3.192v4.509l-3.291 3.191z"/><path fill="#ed4c5c" d="m19.11 42.45l-2.472-2.39v-3.388l2.472-2.392h3.494l2.466 2.392v3.388l-2.466 2.39z"/><g fill="#94989b"><path d="m13.284 36.478h1.948v3.773h-1.948z"/><path d="m4.03 23.489h2.657v12.328h-2.657z"/></g><g fill="#3e4347"><path d="m6.688 20.941h6.334v10.891h-6.334z"/><path d="m2 43.618h4.688v6.352h-4.688z"/></g><g fill="#63686b"><path d="m2 44.525h3.75v.908h-3.75z"/><path d="m2 46.34h3.75v.907h-3.75z"/><path d="m2 48.16h3.75v.907h-3.75z"/></g></svg>