<svg xmlns="http://www.w3.org/2000/svg" viewBox="0 0 64 64" enable-background="new 0 0 64 64"><g fill="#3e4347"><path d="m19.07 36.497c0 0 4.865-4.717 5.19.416.001 0-2.63-.973-5.19-.416"/><ellipse cx="22.515" cy="37.54" rx="1.744" ry="1.834"/></g><path fill="#bd87a4" d="m27.945 19.577c3.752-11.439-11.947-15.918-11.756-13.73.299 3.42 1.28 14.211 6.287 16.02.878.316 3.831 2.724 5.469-2.29"/><path fill="#fedef0" d="m62 61.999v-18.508c-4.355-23.12-13.252-31.773-24.14-31.773-10.99 0-19.292 6.547-19.292 17.881 0 4.545 4.403 5.42 4.403 9.111 0 6.939-3.219 7.826-3.219 10.709 0 8.26 8.27 6.342 8.27 6.342s.287 2.027 2.785 2.027c8.01 0 8.1-9.514 8.1-9.514 3.762 3.738-4.291 13.725-4.291 13.725h27.383"/><path fill="#9e3838" d="m16.249 34.02c2.097-6.072 12.608-14.14 6.704-16.631-3.878-1.636-10.03 8.27-6.704 16.631"/><path fill="#ffec40" d="m62 20.647c-5.351-11.174-21.609-14.314-23.59-8.9-1.628 4.449-.152 5.221 5.739 5.941 0 0 9.224.943 11.833 1.42 2.258.342 4.356.801 6.02 1.539"/><g fill="#bd87a4"><path d="m45.555 23.16c1.659 2.141 3.03 4.5 4.108 7 1.044 2.5 1.813 5.23 1.509 8.06-.195 1.4-.771 2.795-1.749 3.863-.978 1-2.026 1.902-3.206 2.629-1.169.734-2.428 1.313-3.695 1.799-1.27.473-2.566.873-3.613 1.75.904-1.039 2.242-1.566 3.43-2.172 1.224-.566 2.4-1.197 3.475-1.975 1.063-.783 2.088-1.639 2.967-2.596.832-.949 1.305-2.162 1.459-3.424.355-2.551-.367-5.193-1.247-7.678-.917-2.5-2.106-4.916-3.438-7.264"/><path d="m28.352 47.25c-.381.457-.236.617.132.32.368-.295 2.246-1.488 3.136.699 0 0 .436.969.376-.111-.063-1.084-1.504-3.473-3.644-.908"/><path d="m30.402 49.991c-.359.496-1.428 1.121-1.925.764-.497-.355-.235-1.561.124-2.055.357-.492 1.053-.605 1.551-.248.497.356.609 1.047.25 1.539"/><path d="m34.984 49.552c-.652 2.186-2.26 4.094-4.299 5.266-1.029.574-2.167.961-3.328 1.105-1.161.15-2.335.061-3.439-.229 2.277-.146 4.43-.605 6.301-1.689.938-.525 1.801-1.186 2.594-1.934.782-.761 1.525-1.586 2.171-2.519"/></g><g fill="#3e4347"><path d="m43.47 25.765c0 0-1.953 1.912-3.908 1.912 0 0 .017-1.34-1.558-2.904 0 0 .615 1.557-.01 2.904 0 0-.209-.01-.733.057 0 0-.197-1.539-1.629-2.961 0 0 1.084 2.658-.924 3.605 0 0-.08-1.188-1.449-2.199 0 0 .9 1.803-.136 3.15-1.036 1.35-2.354 2.328-2.354 4.932 0 0 1.137-5.305 8.901-5.305 1.243 0 3.8-1.266 3.8-3.191"/><path d="m39.479 32.23c0 1.906-1.474 3.453-3.284 3.453-1.816 0-3.287-1.547-3.287-3.453 0-1.91 1.471-3.455 3.287-3.455 1.81-.001 3.284 1.544 3.284 3.455"/></g><path fill="#fbbf67" d="m54.22 10.942c-8.871-.631-24.809 8.252-24.809-.516 0-5.759 15.938-8.169 24.809.516"/><path fill="#c94747" d="m11.206 29.03c5.713-6.77 23.22-11.969 16.882-18.06-4.168-4.01-16.997 5.693-16.882 18.06"/><g fill="#ed4c5c"><path d="m13.362 15.16c8.522-2.529 26.02 2.705 24.1-5.854-1.259-5.62-17.343-4.536-24.1 5.854"/><path d="m28.07 28.29c-1.327-6.283 3.545-18.559-2.811-17.697-4.173.566-4.357 12.205 2.811 17.697"/><path d="m33.869 23.12c-1.606-5.145-12.268-11.127-5.461-13.979 4.471-1.872 10.11 6.215 5.461 13.979"/></g><g fill="#ffec40"><path d="m24.1 29.06c-1.609 1.43-3.643 1.268-4.542-.348-.905-1.623-.336-4.084 1.269-5.51 1.609-1.418 3.643-1.256 4.549.355.899 1.618.333 4.085-1.276 5.503"/><path d="m21.36 27.27c-1.449 1.281-3.28 1.135-4.093-.318-.814-1.457-.303-3.678 1.146-4.957 1.446-1.285 3.279-1.137 4.092.316.813 1.455.3 3.673-1.145 4.959"/><path d="m18.629 25.495c-1.3 1.145-2.95 1.023-3.68-.289-.73-1.307-.271-3.309 1.031-4.457 1.304-1.16 2.952-1.021 3.682.289.73 1.307.272 3.297-1.033 4.457"/><path d="m15.919 23.747c-1.173 1.033-2.656.924-3.313-.262-.658-1.178-.246-2.971.927-4.01 1.173-1.033 2.655-.918 3.313.266.659 1.172.246 2.971-.927 4.01"/><path d="m13.218 22.02c-1.053.941-2.391.826-2.982-.23-.594-1.066-.219-2.68.836-3.613 1.056-.932 2.39-.826 2.981.232.592 1.066.22 2.674-.835 3.611"/></g><g fill="#dbb471"><path d="m19.861 21.513c-.17 1.092-.711 2.17-1.586 2.951-1.091.961-2.377 1.156-3.355.668.012.02.017.047.029.074.73 1.313 2.38 1.434 3.68.289 1.156-1.021 1.644-2.697 1.232-3.982"/><path d="m17.1 20.501c-.226.789-.667 1.557-1.312 2.123-1.126 1-2.482 1.094-3.39.367.051.176.115.342.206.494.658 1.186 2.141 1.295 3.313.262.937-.828 1.379-2.143 1.183-3.246"/></g><g fill="#ffec40"><path d="m10.53 20.323c-.947.842-2.15.748-2.684-.205-.534-.957-.198-2.406.753-3.252.948-.834 2.148-.74 2.684.213.531.949.196 2.404-.753 3.244"/><path d="m6.156 19.386c-.949-.553-4.362-4.621-4.146-5.201.184-.508 5.178.236 6.124.791.948.551 1.137 2.293.786 3.24-.35.963-1.818 1.722-2.764 1.17"/></g><g fill="#dbb471"><path d="m14.275 19.14c-.153.65-.507 1.285-1.032 1.748-1.055.934-2.39.83-2.981-.23-.018-.037-.017-.076-.034-.115-.081.057-.16.096-.244.141.008.395.069.777.251 1.109.591 1.057 1.929 1.172 2.982.23.838-.745 1.222-1.899 1.058-2.883"/><path d="m9.07 16.884c-.572.951-1.797 1.742-2.78 1.412-.587-.195-1.992-1.215-3.271-2.303 1.034 1.377 2.552 3.049 3.136 3.393.946.553 2.414-.207 2.764-1.17.134-.365.191-.846.151-1.332"/><path d="m11.465 17.671c-.167.701-.547 1.379-1.114 1.889-.829.732-1.815.859-2.539.443.017.033.016.078.035.115.533.953 1.736 1.047 2.684.205.768-.676 1.107-1.754.934-2.652"/><path d="m25.779 24.872c-.285 1.182-.929 2.322-1.879 3.166-1.394 1.24-3.047 1.461-4.27.777.932 1.51 2.9 1.637 4.471.246 1.214-1.068 1.836-2.734 1.678-4.189"/><path d="m22.877 23.931c-.298.893-.814 1.734-1.543 2.379-1.363 1.209-3.01 1.34-4.121.498.021.051.034.092.055.141.813 1.453 2.644 1.6 4.093.318.97-.86 1.509-2.145 1.516-3.336"/></g><path fill="#fedef0" d="m42.697 19.608c8.204-8.85-4.192-19.414-4.936-17.346-1.161 3.232-4.791 13.449-.998 17.16.666.653 2.341 4.063 5.934.182"/><path fill="#bd87a4" d="m37.971 16.606c-1.508-3 1.064-10.426 1.49-11.461.496-1.209 6.248 4.643 3.039 12.547-.285.715-.748 1.348-1.432 1.221-.69-.139-.346-2.201.229-3.475.572-1.279-.468-.115-.922.756-.458.883-.569.107-.342-.861.229-.967-.859.859-.859 1.951 0 1.078-.185 1.352-1.203-.678"/><path fill="#c7e755" d="m62 26.544c-4.188-2.352-5.257-5.057-6.02-7.436-2.609-.477-11.833-1.42-11.833-1.42 2.918 1.27 5.412 3.215 7.53 5.482.071.063 3.809 3.24 7.129 3.537 1.022.083 2.087.04 3.192-.163"/><path fill="#42ade2" d="m51.68 23.17c7.57 8.107 10.32 20.32 10.32 20.32v-6.848c-3.592-5.396-1.279-6.711-3.191-9.936-3.321-.296-7.06-3.474-7.129-3.536"/></svg>