<svg xmlns="http://www.w3.org/2000/svg" viewBox="0 0 64 64" enable-background="new 0 0 64 64"><path fill="#13618d" d="M62,38.095C62,57.476,48.567,61,31.999,61S2,57.476,2,38.095C2,18.712,15.431,3,31.999,3
		S62,18.712,62,38.095z"/><path fill="#055672" d="m59.05 46.06c0 4.563-5.216 13.495-27.05 13.495-21.833 0-27.05-8.932-27.05-13.495 0-2.109 7.88 7.669 27.05 7.669s27.05-9.779 27.05-7.669"/><ellipse fill="#428bc1" cx="32" cy="27.337" rx="22.479" ry="22.815"/><g fill="#f5f5f5"><ellipse transform="matrix(-.8659-.5003.5003-.8659 19.814 93.23)" cx="22.405" cy="43.958" rx="1.289" ry="1.309"/><ellipse transform="matrix(-.8659-.5002.5002-.8659 72.25 40.8)" cx="41.596" cy="10.716" rx="1.289" ry="1.307"/><ellipse transform="matrix(-.5-.866.866-.5-8.914 68.72)" cx="15.379" cy="36.932" rx="1.289" ry="1.309"/><ellipse transform="matrix(-.5003-.8658.8658-.5003 57.59 68.71)" cx="48.621" cy="17.741" rx="1.289" ry="1.308"/><ellipse cx="12.808" cy="27.337" rx="1.309" ry="1.289"/><ellipse cx="51.19" cy="27.337" rx="1.308" ry="1.289"/><ellipse transform="matrix(.5002-.8659.8659.5002-7.675 22.18)" cx="15.379" cy="17.741" rx="1.289" ry="1.309"/><ellipse transform="matrix(.5003-.8658.8658.5003-7.683 60.55)" cx="48.621" cy="36.932" rx="1.289" ry="1.308"/><ellipse transform="matrix(.866-.5001.5001.866-2.356 12.641)" cx="22.405" cy="10.716" rx="1.289" ry="1.309"/><path d="m42.712 43.31c.362.626.154 1.422-.461 1.776-.617.357-1.41.139-1.771-.486-.361-.628-.155-1.422.462-1.779.615-.356 1.409-.137 1.77.489"/><ellipse cx="32" cy="8.145" rx="1.289" ry="1.309"/><ellipse cx="32" cy="46.528" rx="1.289" ry="1.309"/></g><circle fill="#b0bcc1" cx="32" cy="27.337" r="16"/><circle fill="#f5f5f5" cx="32" cy="25.854" r="14.518"/><path fill="#b0bcc1" d="m37.667 33.26c0 7.261-11.334 7.261-11.334 0 0-7.262 2.537-21.239 5.668-21.239 3.129-.001 5.666 13.977 5.666 21.239"/><path fill="#e4e7ea" d="m36.925 31.796c0 6.994-9.85 6.994-9.85 0 0-6.996 2.205-20.459 4.926-20.459 2.719-.001 4.924 13.463 4.924 20.459"/><path fill="#fff" d="m36.15 29.1c0 6.06-8.291 6.06-8.291 0s1.855-17.719 4.146-17.719c2.289 0 4.145 11.662 4.145 17.719"/></svg>