<svg xmlns="http://www.w3.org/2000/svg" height="100" width="100" viewBox="0 0 1000 1000" fill="#fff"><path d="M393 321h214a20 20 0 0 0 20-20v-40a60 60 0 0 0-58-60H433a60 60 0 0 0-58 60v40a17 17 0 0 0 18 20z"/><path d="M714 252h-20a10 10 0 0 0-10 10v40a79 79 0 0 1-78 79H393a79 79 0 0 1-78-79v-40a10 10 0 0 0-10-10h-20a60 60 0 0 0-58 60v426a60 60 0 0 0 58 60h429a60 60 0 0 0 58-60V312a58 58 0 0 0-58-60zM530 594v11a55 55 0 0 1-31 10 56 56 0 1 1 56-60 45 45 0 0 0-25 39zm150 141a15 15 0 0 1-15 14h-90a14 14 0 0 1-14-14v-14a14 14 0 0 1 14-14h91a14 14 0 0 1 14 14zm0-63a15 15 0 0 1-15 14h-90a14 14 0 0 1-14-14v-14a14 14 0 0 1 14-14h91a14 14 0 0 1 14 14zm0-64a15 15 0 0 1-15 14h-90a14 14 0 0 1-14-14v-14a14 14 0 0 1 14-14h91a14 14 0 0 1 14 14zm1-57a34 34 0 0 0-14-2h-29v-30a40 40 0 0 1-40-40H400a40 40 0 0 1-40 40v84a40 40 0 0 1 40 40h132a34 34 0 0 0-2 14v14a66 66 0 0 0 3 15H353a34 34 0 0 1-34-34V471a34 34 0 0 1 34-34h294a34 34 0 0 1 34 34z"/></svg>