<svg xmlns="http://www.w3.org/2000/svg" width="24" height="24" viewBox="0 0 24 24"><path d="M12,2C6.486,2,2,6.486,2,12c0,5.514,4.486,10,10,10s10-4.486,10-10C22,6.486,17.514,2,12,2z M7,10.5 c0-0.007,0.002-0.015,0.002-0.022L5.629,9.929l0.742-1.857l5,2l-0.742,1.857l-1.031-0.413c-0.014,0.014-0.023,0.031-0.037,0.044 C9.289,11.832,8.914,12,8.5,12s-0.789-0.168-1.061-0.439S7,10.914,7,10.5z M8,17c0,0,1-3,4-3s4,3,4,3H8z M16.986,10.493 c0,0.412-0.167,0.785-0.438,1.056s-0.644,0.438-1.056,0.438s-0.785-0.167-1.056-0.438c-0.011-0.011-0.019-0.024-0.029-0.035 l-1.037,0.415l-0.742-1.857l5-2l0.742,1.857l-1.386,0.554C16.985,10.486,16.986,10.49,16.986,10.493z"/></svg>