<svg xmlns="http://www.w3.org/2000/svg" x="0px" y="0px"
	 width="52px" height="52px" viewBox="0 0 52 52" enable-background="new 0 0 52 52" xml:space="preserve">
<path fill="#FFFFFF" d="M26,2C12.8,2,2,12.8,2,26.1s10.8,24.1,24,24.1s24-10.8,24-24.1S39.2,2,26,2z M17,15c1.7,0,3,1.8,3,4
	s-1.3,4-3,4s-3-1.8-3-4S15.3,15,17,15z M38,34.1c0,1.1-0.9,1.9-1.9,1.9H15.9c-1.1,0-1.9-0.9-1.9-1.9V34c0-1.1,0.9-1.9,1.9-1.9h20.1
	C37.1,32.1,38,33,38,34.1L38,34.1z M35,23c-1.7,0-3-1.8-3-4s1.3-4,3-4s3,1.8,3,4S36.7,23,35,23z"/>
</svg>
