<?xml version="1.0" encoding="utf-8"?>
<svg xmlns="http://www.w3.org/2000/svg" width="24" height="24" viewBox="0 0 24 24">
    <g id="bold-arab-dad">
        <path id="arab-dad" d="M16.411 8.232l-1.676-.665.694-1.567 1.688.64-.707 1.592m.775 3.078c-.509-.286-1-.427-1.476-.423-.471 0-.982.205-1.532.616l-.506.379.006.025c1.084.066 1.934.099 2.551.099h.313c.567-.021.992-.064 1.276-.131-.067-.17-.275-.359-.625-.566h-.006m-6.803 3.296c-.017-.904-.329-1.87-.938-2.898l1.294-1.729.119.149c.267.336.504.924.713 1.766l.063.05c.496-.008.942-.17 1.338-.485v-.006l1.732-1.53c.679-.601 1.282-.902 1.807-.902.383.004.848.195 1.394.572.55.377.884.696 1 .958.063.149.094.386.094.709 0 .696-.11 1.229-.331 1.598-.192.311-.473.555-.844.734-.438.207-1.549.311-3.333.311-.8 0-1.795-.021-2.983-.062l-.144.429c-.254.672-.463 1.113-.625 1.324-.725.937-1.786 1.405-3.183 1.405-1.705-.008-2.557-.922-2.557-2.742.004-.941.279-1.814.825-2.618.15-.216.298-.367.444-.454.225-.133.288-.091.188.124-.396.862-.596 1.548-.6 2.058.008 1.177.752 1.768 2.232 1.772 1.038-.004 1.803-.182 2.295-.535"/>
    </g>
</svg>
