<svg xmlns="http://www.w3.org/2000/svg" height="52" width="52" viewBox="0 0 520 520" fill="#fff"><path d="M261 191c-39 0-70 31-70 70s31 70 70 70 70-31 70-70-31-70-70-70zm210 133-37-31a195 195 0 0 0 0-68l37-31c12-10 16-28 8-42l-16-28a34 34 0 0 0-40-14l-46 17a168 168 0 0 0-59-34l-8-47c-3-16-17-25-33-25h-32c-16 0-30 9-33 25l-8 46a180 180 0 0 0-60 34l-46-17-11-2c-12 0-23 6-29 16l-16 28c-8 14-5 32 8 42l37 31a195 195 0 0 0 0 68l-37 31a34 34 0 0 0-8 42l16 28a34 34 0 0 0 40 14l46-17c18 16 38 27 59 34l8 48a33 33 0 0 0 33 27h32c16 0 30-12 33-28l8-48a170 170 0 0 0 62-37l43 17 12 2c12 0 23-6 29-16l15-26c9-11 5-29-7-39zm-210 47c-61 0-110-49-110-110s49-110 110-110 110 49 110 110-49 110-110 110z"/></svg>