<svg viewBox="0 0 24 24" fill="currentColor" xmlns="http://www.w3.org/2000/svg"><path d="M12 21.9967C6.47715 21.9967 2 17.5196 2 11.9967C2 6.47386 6.47715 1.9967 12 1.9967C17.5228 1.9967 22 6.47386 22 11.9967C22 17.5196 17.5228 21.9967 12 21.9967ZM12 19.9967C16.4183 19.9967 20 16.415 20 11.9967C20 7.57843 16.4183 3.9967 12 3.9967C7.58172 3.9967 4 7.57843 4 11.9967C4 16.415 7.58172 19.9967 12 19.9967ZM12 17.9967V5.9967C15.3137 5.9967 18 8.683 18 11.9967C18 15.3104 15.3137 17.9967 12 17.9967Z"/></svg>