<svg viewBox="0 0 24 24" fill="currentColor" xmlns="http://www.w3.org/2000/svg"><path d="M7 6C7 6.23676 7.04072 6.46184 7.11469 6.66999C7.22686 6.98559 7.17357 7.33638 6.97276 7.60444C6.77194 7.8725 6.45026 8.02222 6.11585 8.00327C6.0776 8.0011 6.03898 8 6 8C4.89543 8 4 8.89543 4 10C4 10.5129 4.19174 10.9786 4.50903 11.3331C4.84885 11.7128 4.84885 12.2872 4.50903 12.6669C4.19174 13.0214 4 13.4871 4 14C4 14.8842 4.57447 15.6369 5.37327 15.9001C5.84924 16.057 6.1356 16.5419 6.04308 17.0345C6.01489 17.1846 6 17.3401 6 17.5C6 18.8807 7.11929 20 8.5 20C9.75862 20 10.8015 19.069 10.9746 17.8583C10.9806 17.8165 10.9891 17.7756 11 17.7358V6C11 4.89543 10.1046 4 9 4C7.89543 4 7 4.89543 7 6ZM13 17.7358C13.0109 17.7756 13.0194 17.8165 13.0254 17.8583C13.1985 19.069 14.2414 20 15.5 20C16.8807 20 18 18.8807 18 17.5C18 17.3401 17.9851 17.1846 17.9569 17.0345C17.8644 16.5419 18.1508 16.057 18.6267 15.9001C19.4255 15.6369 20 14.8842 20 14C20 13.4871 19.8083 13.0214 19.491 12.6669C19.1511 12.2872 19.1511 11.7128 19.491 11.3331C19.8083 10.9786 20 10.5129 20 10C20 8.89543 19.1046 8 18 8C17.961 8 17.9224 8.0011 17.8841 8.00327C17.5497 8.02222 17.2281 7.8725 17.0272 7.60444C16.8264 7.33638 16.7731 6.98559 16.8853 6.66999C16.9593 6.46184 17 6.23676 17 6C17 4.89543 16.1046 4 15 4C13.8954 4 13 4.89543 13 6V17.7358ZM9 2C10.1947 2 11.2671 2.52376 12 3.35418C12.7329 2.52376 13.8053 2 15 2C17.2091 2 19 3.79086 19 6C19 6.04198 18.9994 6.08382 18.9981 6.12552C20.7243 6.56889 22 8.13546 22 10C22 10.728 21.8049 11.4116 21.4646 12C21.8049 12.5884 22 13.272 22 14C22 15.4817 21.1949 16.7734 19.9999 17.4646L20 17.5C20 19.9853 17.9853 22 15.5 22C14.0859 22 12.8248 21.3481 12 20.3285C11.1752 21.3481 9.91405 22 8.5 22C6.01472 22 4 19.9853 4 17.5L4.00014 17.4646C2.80512 16.7734 2 15.4817 2 14C2 13.272 2.19513 12.5884 2.53536 12C2.19513 11.4116 2 10.728 2 10C2 8.13546 3.27573 6.56889 5.00194 6.12552C5.00065 6.08382 5 6.04198 5 6C5 3.79086 6.79086 2 9 2Z"/></svg>