<?xml version="1.0"?><svg xmlns="http://www.w3.org/2000/svg" width="100" height="100" viewBox="0 0 100 100"><path fill="#fff" d="m69.5 59c-3.6-1.5-4.2-2.9-4.2-4.4 0-1.5 1-2.9 2.2-4 2.1-1.9 3.3-4.6 3.3-7.8 0-5.8-3.7-10.9-10.2-10.9s-10.2 5-10.2 10.9c0 3.2 1.2 5.8 3.3 7.8 1.2 1.1 2.2 2.5 2.2 4s-0.6 2.9-4.2 4.4c-5.3 2.2-10.4 5-10.5 9.8 0 3.1 2.4 6.2 5.4 6.2h27.8c3.1 0 5.4-3.1 5.4-6.2 0.1-4.7-5-7.5-10.3-9.8z m-24 4.6"></path><path fill="#fff" d="m46.6 51.4c-0.4-0.5-2.4-3-2.2-9.7 0.1-6.6 3-8.3 3-8.3v-6.5c0-1.1-1.1-1.9-1.9-1.9h-23.6s-1.9 0.9-1.9 2v43.6h13.5c0.3-11.1 13-15.6 13-15.6 1.9-1 0.5-3.1 0.1-3.6z m-15.9 13.7c0 1.1-0.9 2-2 2h-2c-1.1 0-2-0.9-2-2v-2c0-1.1 0.9-2 2-2h2c1.1 0 2 0.9 2 2v2z m0-9.9c0 1.1-0.9 2-2 2h-2c-1.1 0-2-0.9-2-2v-2c0-1.1 0.9-2 2-2h2c1.1 0 2 0.9 2 2v2z m0-9.9c0 1.1-0.9 2-2 2h-2c-1.1 0-2-0.9-2-2v-2c0-1.1 0.9-2 2-2h2c1.1 0 2 0.9 2 2v2z m0-9.9c0 1.1-0.9 2-2 2h-2c-1.1 0-2-0.9-2-2v-2c0-1.1 0.9-2 2-2h2c1.1 0 2 0.9 2 2v2z m11.2 19.8c0 1.1-0.9 2-2 2h-2c-1.1 0-2-0.9-2-2v-2c0-1.1 0.9-2 2-2h2c1.1 0 2 0.9 2 2v2z m0-9.9c0 1.1-0.9 2-2 2h-2c-1.1 0-2-0.9-2-2v-2c0-1.1 0.9-2 2-2h2c1.1 0 2 0.9 2 2v2z m0-9.9c0 1.1-0.9 2-2 2h-2c-1.1 0-2-0.9-2-2v-2c0-1.1 0.9-2 2-2h2c1.1 0 2 0.9 2 2v2z"></path></svg>