<?xml version="1.0" encoding="utf-8"?>
<!-- Generator: Adobe Illustrator 16.0.0, SVG Export Plug-In . SVG Version: 6.00 Build 0)  -->
<!DOCTYPE svg PUBLIC "-//W3C//DTD SVG 1.1//EN" "http://www.w3.org/Graphics/SVG/1.1/DTD/svg11.dtd">
<svg version="1.1"
	 id="Layer_1" xmlns:dc="http://purl.org/dc/elements/1.1/" xmlns:cc="http://creativecommons.org/ns#" xmlns:rdf="http://www.w3.org/1999/02/22-rdf-syntax-ns#" xmlns:svg="http://www.w3.org/2000/svg" xmlns:sodipodi="http://sodipodi.sourceforge.net/DTD/sodipodi-0.dtd" xmlns:inkscape="http://www.inkscape.org/namespaces/inkscape" inkscape:export-ydpi="90" inkscape:export-xdpi="90" inkscape:export-filename="D:\TESTINGEMOJI\SVGTEST\1F31F.png" sodipodi:docname="1F31F.svg" inkscape:version="0.48.5 r10040"
	 xmlns="http://www.w3.org/2000/svg" xmlns:xlink="http://www.w3.org/1999/xlink" x="0px" y="0px" width="64px" height="64px"
	 viewBox="0 0 64 64" enable-background="new 0 0 64 64" xml:space="preserve">
<sodipodi:namedview  id="namedview3337" inkscape:cy="32" inkscape:cx="32" inkscape:zoom="3.6875" showgrid="false" guidetolerance="10" gridtolerance="10" objecttolerance="10" bordercolor="#666666" pagecolor="#ffffff" borderopacity="1" inkscape:current-layer="Layer_1" inkscape:window-maximized="0" inkscape:window-y="332" inkscape:window-x="570" inkscape:window-height="480" inkscape:window-width="640" inkscape:pageshadow="2" inkscape:pageopacity="0">
	</sodipodi:namedview>
<g>
	
		<ellipse transform="matrix(-0.707 -0.7072 0.7072 -0.707 73.6331 51.5404)" fill="#EDC26E" cx="47.493" cy="10.518" rx="1.502" ry="8.976"/>
	<path fill="#EDC26E" d="M8.838,40.423c-3.905,3.058-6.653,6.066-6.141,6.718c0.512,0.653,4.093-1.293,7.992-4.351
		c3.905-3.057,6.656-6.06,6.144-6.713C16.323,35.421,12.745,37.37,8.838,40.423z"/>
	<path fill="#EDC26E" d="M54.856,40.423c3.904,3.058,6.654,6.066,6.143,6.718c-0.512,0.653-4.093-1.293-7.992-4.351
		c-3.906-3.057-6.656-6.06-6.146-6.713C47.371,35.421,50.949,37.37,54.856,40.423z"/>
	<path fill="#EDC26E" d="M33.213,53.713c0.003,4.953-0.668,8.975-1.499,8.975c-0.828,0.004-1.503-4.018-1.503-8.971
		c-0.008-4.961,0.662-8.98,1.49-8.98C32.532,44.736,33.205,48.752,33.213,53.713z"/>
	
		<ellipse transform="matrix(0.7069 -0.7073 0.7073 0.7069 -3.0015 13.7917)" fill="#EDC26E" cx="15.142" cy="10.518" rx="1.502" ry="8.976"/>
	<polygon fill="#EDC26E" points="56.276,20.523 37.031,20.432 31.17,0.959 25.31,20.432 6.062,20.523 21.688,32.956 13.786,54.165 
		31.17,40.689 48.555,54.165 40.654,32.956 	"/>
	<polygon fill="#FAEC78" points="49.441,23.231 37.031,20.947 31.17,10.525 25.31,20.947 13.352,23.36 21.688,33.468 19.503,46.937 
		31.17,41.201 43.161,47.061 40.654,33.468 	"/>
</g>
</svg>
