<?xml version="1.0" encoding="UTF-8" standalone="no"?>
<!-- Generator: Adobe Illustrator 16.0.0, SVG Export Plug-In . SVG Version: 6.00 Build 0)  -->

<svg
   xmlns:dc="http://purl.org/dc/elements/1.1/"
   xmlns:cc="http://creativecommons.org/ns#"
   xmlns:rdf="http://www.w3.org/1999/02/22-rdf-syntax-ns#"
   xmlns:svg="http://www.w3.org/2000/svg"
   xmlns="http://www.w3.org/2000/svg"
   xmlns:sodipodi="http://sodipodi.sourceforge.net/DTD/sodipodi-0.dtd"
   xmlns:inkscape="http://www.inkscape.org/namespaces/inkscape"
   version="1.1"
   id="Layer_1"
   x="0px"
   y="0px"
   width="64px"
   height="64px"
   viewBox="0 0 64 64"
   enable-background="new 0 0 64 64"
   xml:space="preserve"
   inkscape:version="0.48.5 r10040"
   sodipodi:docname="1F36F.svg"
   inkscape:export-filename="D:\TESTINGEMOJI\SVGTEST\1F36F.png"
   inkscape:export-xdpi="90"
   inkscape:export-ydpi="90"><metadata
   id="metadata4672"><rdf:RDF><cc:Work
       rdf:about=""><dc:format>image/svg+xml</dc:format><dc:type
         rdf:resource="http://purl.org/dc/dcmitype/StillImage" /><dc:title></dc:title></cc:Work></rdf:RDF></metadata><defs
   id="defs4670" /><sodipodi:namedview
   pagecolor="#ffffff"
   bordercolor="#666666"
   borderopacity="1"
   objecttolerance="10"
   gridtolerance="10"
   guidetolerance="10"
   inkscape:pageopacity="0"
   inkscape:pageshadow="2"
   inkscape:window-width="640"
   inkscape:window-height="480"
   id="namedview4668"
   showgrid="false"
   inkscape:zoom="3.6875"
   inkscape:cx="32"
   inkscape:cy="32"
   inkscape:window-x="564"
   inkscape:window-y="289"
   inkscape:window-maximized="0"
   inkscape:current-layer="Layer_1" />
<g
   id="g4622"
   transform="translate(4,0)">
	<path
   d="m 45.249,51.749 c 0,6.544 -7.183,11.849 -16.041,11.849 H 16.058 C 7.2,63.598 0.017,58.293 0.017,51.749 V 32.164 c 0,-6.544 7.183,-11.85 16.041,-11.85 h 13.15 c 8.858,0 16.041,5.306 16.041,11.85 v 19.585 z"
   id="path4624"
   inkscape:connector-curvature="0"
   style="fill:#e6a42e" />
	<path
   d="M 29.189,20.314 H 16.035 C 7.177,20.314 0,25.62 0,32.164 v 7.773 c 6.415,1.707 14.205,2.711 22.616,2.711 8.404,0 16.196,-1.004 22.61,-2.711 v -7.773 c 0,-6.544 -7.183,-11.85 -16.037,-11.85 z"
   id="path4626"
   inkscape:connector-curvature="0"
   style="fill:#f0b961" />
	<path
   d="m 11.321,33.611 c 0,-3.959 2.316,-7.419 5.795,-9.361 h -0.579 c -6.757,0 -12.233,4.044 -12.233,9.036 v 5.929 c 2.152,0.572 4.509,1.041 7.016,1.39 v -6.994 z"
   id="path4628"
   inkscape:connector-curvature="0"
   style="fill:#e6e7e8" />
	<path
   d="m 0.018,45.388 v 6.361 c 0,6.544 7.183,11.849 16.041,11.849 h 13.15 c 8.858,0 16.041,-5.305 16.041,-11.849 V 45.388 C 38.83,47.094 31.04,48.1 22.634,48.1 14.228,48.1 6.432,47.094 0.018,45.388 z"
   id="path4630"
   inkscape:connector-curvature="0"
   style="fill:#f0b961" />
	<path
   d="M 11.306,54.602 V 49.163 C 8.702,48.802 6.232,48.352 3.939,47.828 v 5.471 c 0,4.628 4.867,8.54 11.531,9.775 -2.589,-2.242 -4.164,-5.212 -4.164,-8.472 z"
   id="path4632"
   inkscape:connector-curvature="0"
   style="fill:#e6e7e8" />
	<path
   d="m 37.889,32.328 c 0,-2.84 -1.664,-5.327 -4.156,-6.72 h 0.414 c 4.853,0 8.788,2.907 8.788,6.49 v 4.258 c -1.548,0.412 -3.243,0.749 -5.046,0.999 v -5.027 z"
   id="path4634"
   inkscape:connector-curvature="0"
   style="fill:#e6a42e" />
	<path
   d="m 37.641,53.882 v -3.91 c 1.873,-0.254 3.646,-0.579 5.294,-0.95 v 3.928 c 0,3.324 -3.498,6.13 -8.281,7.016 1.853,-1.607 2.987,-3.739 2.987,-6.084 z"
   id="path4636"
   inkscape:connector-curvature="0"
   style="fill:#e6a42e" />
	<path
   d="m 38.326,21.533 c 0,1.823 -7.034,3.305 -15.71,3.305 -8.682,0 -15.722,-1.482 -15.722,-3.305 0,-1.827 7.04,-3.303 15.722,-3.303 8.676,0 15.71,1.477 15.71,3.303 z"
   id="path4638"
   inkscape:connector-curvature="0"
   style="fill:#9f6728" />
	<path
   d="m 22.44,24.838 c 2.503,0 4.864,-0.124 6.969,-0.34 -1.873,-1.482 -4.307,-2.376 -6.969,-2.376 -2.67,0 -5.104,0.894 -6.97,2.376 2.101,0.216 4.464,0.34 6.97,0.34 z"
   id="path4640"
   inkscape:connector-curvature="0"
   style="fill:#25333a" />
	<path
   d="m 57.126,23.913 c 0.793,0.484 1.047,1.517 0.561,2.314 l 0,0 c -0.483,0.791 -1.522,1.044 -2.313,0.561 L 21.565,6.15 C 20.772,5.666 20.52,4.627 21.004,3.836 l 0,0 c 0.484,-0.792 1.523,-1.045 2.314,-0.561 l 33.808,20.638 z"
   id="path4642"
   inkscape:connector-curvature="0"
   style="fill:#e6a42e" />
	<path
   d="m 29.461,5.148 c 0.196,0.118 -0.455,1.548 -1.458,3.194 l 0,0 c -1.004,1.643 -1.979,2.877 -2.173,2.757 L 17.405,5.962 C 17.206,5.838 17.862,4.408 18.86,2.768 l 0,0 c 1.002,-1.649 1.983,-2.883 2.179,-2.759 l 8.422,5.139 z"
   id="path4644"
   inkscape:connector-curvature="0"
   style="fill:#9f6728" />
	<g
   id="g4646">
		<g
   id="g4648">
			<path
   d="m 17.105,1.386 c -1.465,2.337 0.083,3.932 1.387,5.875 1.041,1.556 -1.223,5.689 0.782,6.656 0.974,0.468 1.906,-0.383 1.529,-1.327 -0.031,-0.083 -0.066,-0.167 -0.106,-0.244 -0.567,-1.161 -2.452,-0.206 -1.885,0.952 0.041,0.083 0.078,0.167 0.106,0.248 0.507,-0.441 1.016,-0.886 1.525,-1.327 0.437,0.153 0.501,-0.108 0.201,-0.774 0.023,-0.526 0.182,-1.076 0.283,-1.594 0.17,-0.846 0.129,-1.637 -0.07,-2.458 C 20.466,5.798 17.796,4.167 18.872,2.449 19.568,1.326 17.808,0.256 17.105,1.386 l 0,0 z"
   id="path4650"
   inkscape:connector-curvature="0"
   style="fill:#e6a42e" />
		</g>
		<g
   id="g4652">
			<path
   d="m 18.825,2.141 c -1.95,2.202 0.277,4.659 0.991,6.826 0.484,1.479 0.708,3.09 0.78,4.644 0.048,1.016 -0.06,2.369 0.544,3.249 0.391,0.567 1.401,0.786 1.824,0.052 0.811,-1.394 0.562,-3.146 1.074,-4.683 0.545,-1.631 -0.968,-2.996 -0.631,-4.536 -0.526,0.182 -1.053,0.364 -1.583,0.547 0.987,0.668 3.508,2.245 3.897,3.404 0.604,-0.31 1.211,-0.609 1.821,-0.917 C 26.526,9.403 26.159,8.914 27.441,7.633 28.31,6.764 27.37,5.601 26.255,6.021 24.529,6.675 22.13,4.237 21.116,3.204 20.512,2.583 19.32,2.968 19.274,3.847 19.226,4.975 19.557,5.909 19.947,6.954 20.4,8.158 22.284,7.196 21.836,6.002 21.505,5.348 21.358,4.663 21.387,3.93 20.772,4.149 20.158,4.362 19.545,4.578 21.387,6.463 24.262,8.903 27.212,7.786 26.821,7.248 26.426,6.71 26.031,6.174 c -2.187,2.196 -1.832,3.638 -0.06,5.931 0.602,0.778 2.13,0.012 1.819,-0.909 C 27.093,9.127 24.783,7.763 22.993,6.54 22.486,6.198 21.542,6.47 21.404,7.095 c -0.348,1.583 0.331,2.757 0.673,4.288 0.126,0.555 -0.495,1.643 -0.673,2.185 -0.211,0.669 0.13,1.707 -0.207,2.281 0.61,0.023 1.217,0.041 1.827,0.06 C 22.556,15.224 22.722,14.024 22.688,13.227 22.64,12.24 22.487,11.276 22.32,10.309 22.119,9.132 21.73,8.016 21.318,6.907 20.861,5.699 19.48,4.461 20.59,3.203 21.476,2.199 19.698,1.148 18.825,2.141 l 0,0 z"
   id="path4654"
   inkscape:connector-curvature="0"
   style="fill:#e6a42e" />
		</g>
		<g
   id="g4656">
			<path
   d="m 18.872,12.855 c -1.13,1.608 -0.271,2.688 -0.089,4.359 0.077,0.75 -0.584,1.146 -1.045,1.66 -0.515,0.579 -0.768,1.211 -0.768,1.96 0,1.287 2.115,1.376 2.115,0.083 0,-0.987 1.292,-1.714 1.676,-2.651 0.604,-1.459 -0.999,-3.104 -0.124,-4.35 0.767,-1.084 -0.999,-2.146 -1.765,-1.061 l 0,0 z"
   id="path4658"
   inkscape:connector-curvature="0"
   style="fill:#e6a42e" />
		</g>
		<g
   id="g4660">
			<path
   d="m 23.496,7.882 c -0.975,1.972 -0.656,3.651 0.147,5.575 0.627,1.501 1.117,2.678 0.313,4.236 -0.402,0.774 -0.656,1.488 -0.69,2.339 -0.052,1.292 2.055,1.381 2.115,0.089 0.058,-1.571 1.523,-2.852 1.215,-4.489 C 26.13,13.121 24.21,11.085 25.497,8.481 26.083,7.298 24.069,6.719 23.496,7.882 l 0,0 z"
   id="path4662"
   inkscape:connector-curvature="0"
   style="fill:#e6a42e" />
		</g>
		<g
   id="g4664">
			<path
   d="m 22.296,14.645 c 0.259,1.08 0.639,2.126 0.844,3.22 0.189,1.028 -0.43,2.038 -0.312,3.1 0.662,-0.236 1.322,-0.466 1.979,-0.703 -0.786,-2.121 -3.704,-3.779 -3.603,-6.124 0.052,-1.294 -2.057,-1.381 -2.109,-0.089 -0.132,3.047 2.852,4.547 3.827,7.171 0.426,1.126 2.098,0.325 1.978,-0.705 -0.101,-0.878 0.457,-1.729 0.36,-2.651 -0.127,-1.265 -0.59,-2.446 -0.89,-3.668 -0.307,-1.252 -2.379,-0.803 -2.074,0.449 l 0,0 z"
   id="path4666"
   inkscape:connector-curvature="0"
   style="fill:#e6a42e" />
		</g>
	</g>
</g>
</svg>