<?xml version="1.0" encoding="UTF-8" standalone="no"?>
<!-- Generator: Adobe Illustrator 16.0.0, SVG Export Plug-In . SVG Version: 6.00 Build 0)  -->

<svg
   xmlns:dc="http://purl.org/dc/elements/1.1/"
   xmlns:cc="http://creativecommons.org/ns#"
   xmlns:rdf="http://www.w3.org/1999/02/22-rdf-syntax-ns#"
   xmlns:svg="http://www.w3.org/2000/svg"
   xmlns="http://www.w3.org/2000/svg"
   xmlns:sodipodi="http://sodipodi.sourceforge.net/DTD/sodipodi-0.dtd"
   xmlns:inkscape="http://www.inkscape.org/namespaces/inkscape"
   version="1.1"
   id="Layer_1"
   x="0px"
   y="0px"
   width="64px"
   height="64px"
   viewBox="0 0 64 64"
   enable-background="new 0 0 64 64"
   xml:space="preserve"
   inkscape:version="0.48.5 r10040"
   sodipodi:docname="1F38C.svg"
   inkscape:export-filename="D:\TESTINGEMOJI\SVGTEST\1F38C.png"
   inkscape:export-xdpi="90"
   inkscape:export-ydpi="90"><metadata
   id="metadata5392"><rdf:RDF><cc:Work
       rdf:about=""><dc:format>image/svg+xml</dc:format><dc:type
         rdf:resource="http://purl.org/dc/dcmitype/StillImage" /><dc:title></dc:title></cc:Work></rdf:RDF></metadata><defs
   id="defs5390" /><sodipodi:namedview
   pagecolor="#ffffff"
   bordercolor="#666666"
   borderopacity="1"
   objecttolerance="10"
   gridtolerance="10"
   guidetolerance="10"
   inkscape:pageopacity="0"
   inkscape:pageshadow="2"
   inkscape:window-width="640"
   inkscape:window-height="480"
   id="namedview5388"
   showgrid="false"
   inkscape:zoom="3.6875"
   inkscape:cx="32"
   inkscape:cy="32"
   inkscape:window-x="443"
   inkscape:window-y="230"
   inkscape:window-maximized="0"
   inkscape:current-layer="Layer_1" />
<g
   id="g5354">
	<g
   id="g5356">
		<path
   fill="#D9DADA"
   d="M63.02,27.02c0,0-7.664,3.126-10.814-7.167c-3.155-10.29-14.419-9.775-14.419-9.775l-4.29,12.079    l-1.032,2.925l-1.134,3.196h0.002l-2.479,6.989c0,0,11.456-0.521,14.66,9.939c2.683,8.761,8.588,7.949,10.433,7.465l-0.009-0.029    C60.14,47.281,63.02,27.02,63.02,27.02z"
   id="path5358" />
	</g>
	<g
   id="g5360">
		<path
   fill="#EC1C24"
   d="M50.255,33.45c-1.047,2.962-3.579,4.152-5.654,2.646c-2.072-1.503-2.898-5.117-1.849-8.074    c1.048-2.963,3.58-4.151,5.649-2.649C50.477,26.876,51.305,30.491,50.255,33.45z"
   id="path5362" />
	</g>
	<g
   id="g5364">
		<path
   fill="#D4202A"
   d="M46.503,30.735c0.702-1.983,2.073-3.167,3.524-3.283c-0.39-0.855-0.941-1.587-1.626-2.079    c-2.069-1.502-4.602-0.314-5.649,2.649c-1.05,2.957-0.224,6.571,1.849,8.074c0.685,0.497,1.419,0.696,2.133,0.637    C45.942,34.997,45.8,32.717,46.503,30.735z"
   id="path5366" />
	</g>
	<g
   id="g5368">
		<path
   fill="#B7B7B7"
   d="M22.904,54.461c-0.145,0.407-0.528,0.542-0.855,0.299l0,0c-0.329-0.236-0.478-0.757-0.334-1.154    L38.166,7.211c0.141-0.402,0.521-0.537,0.854-0.299l0,0c0.327,0.232,0.474,0.757,0.333,1.161L22.904,54.461z"
   id="path5370" />
	</g>
	<g
   id="g5372">
		<path
   fill="#D9DADA"
   d="M0.98,27.686c0,0,7.666,3.125,10.818-7.165c3.148-10.295,14.421-9.77,14.421-9.77l4.282,12.068l1.04,2.928    l1.134,3.199h-0.005l2.477,6.987c0,0-11.458-0.523-14.662,9.94c-2.685,8.761-8.582,7.953-10.431,7.461l0.01-0.026    C3.866,47.952,0.98,27.686,0.98,27.686z"
   id="path5374" />
	</g>
	<g
   id="g5376">
		<path
   fill="#EC1C24"
   d="M13.745,34.12c1.05,2.958,3.582,4.149,5.654,2.646c2.072-1.501,2.899-5.119,1.849-8.076    c-1.049-2.968-3.58-4.153-5.652-2.646C13.526,27.543,12.694,31.161,13.745,34.12z"
   id="path5378" />
	</g>
	<g
   id="g5380">
		<path
   fill="#D4202A"
   d="M17.497,31.408c-0.705-1.985-2.072-3.171-3.521-3.283c0.39-0.856,0.939-1.585,1.62-2.081    c2.072-1.506,4.603-0.321,5.652,2.646c1.05,2.957,0.223,6.575-1.849,8.076c-0.684,0.496-1.419,0.693-2.131,0.637    C18.062,35.669,18.203,33.393,17.497,31.408z"
   id="path5382" />
	</g>
	<g
   id="g5384">
		<path
   fill="#B7B7B7"
   d="M41.101,55.13c0.138,0.411,0.523,0.54,0.854,0.303l0,0c0.325-0.238,0.474-0.758,0.33-1.161L25.837,7.884    c-0.147-0.41-0.527-0.54-0.856-0.303l0,0c-0.328,0.237-0.476,0.755-0.334,1.158L41.101,55.13z"
   id="path5386" />
	</g>
</g>
</svg>