<?xml version="1.0" encoding="UTF-8" standalone="no"?>
<!-- Generator: Adobe Illustrator 16.0.0, SVG Export Plug-In . SVG Version: 6.00 Build 0)  -->

<svg
   xmlns:dc="http://purl.org/dc/elements/1.1/"
   xmlns:cc="http://creativecommons.org/ns#"
   xmlns:rdf="http://www.w3.org/1999/02/22-rdf-syntax-ns#"
   xmlns:svg="http://www.w3.org/2000/svg"
   xmlns="http://www.w3.org/2000/svg"
   xmlns:sodipodi="http://sodipodi.sourceforge.net/DTD/sodipodi-0.dtd"
   xmlns:inkscape="http://www.inkscape.org/namespaces/inkscape"
   version="1.1"
   id="Layer_1"
   x="0px"
   y="0px"
   width="64px"
   height="64px"
   viewBox="0 0 64 64"
   enable-background="new 0 0 64 64"
   xml:space="preserve"
   inkscape:version="0.48.5 r10040"
   sodipodi:docname="1F403.svg"
   inkscape:export-filename="D:\TESTINGEMOJI\SVGTEST\1F403.png"
   inkscape:export-xdpi="90"
   inkscape:export-ydpi="90"><metadata
   id="metadata5212"><rdf:RDF><cc:Work
       rdf:about=""><dc:format>image/svg+xml</dc:format><dc:type
         rdf:resource="http://purl.org/dc/dcmitype/StillImage" /><dc:title></dc:title></cc:Work></rdf:RDF></metadata><defs
   id="defs5210" /><sodipodi:namedview
   pagecolor="#ffffff"
   bordercolor="#666666"
   borderopacity="1"
   objecttolerance="10"
   gridtolerance="10"
   guidetolerance="10"
   inkscape:pageopacity="0"
   inkscape:pageshadow="2"
   inkscape:window-width="640"
   inkscape:window-height="480"
   id="namedview5208"
   showgrid="false"
   inkscape:zoom="3.6875"
   inkscape:cx="32"
   inkscape:cy="32"
   inkscape:window-x="0"
   inkscape:window-y="0"
   inkscape:window-maximized="0"
   inkscape:current-layer="Layer_1" />
<g
   id="g5156"
   transform="translate(0,2)">
	<path
   d="m 27.473,17.651 c -1.732,0.266 -3.299,-0.65 -3.511,-2.046 -0.216,-1.396 1.007,-2.738 2.736,-3.005 1.723,-0.264 6.147,0.212 6.364,1.607 0.213,1.398 -3.863,3.178 -5.589,3.444 z"
   id="path5158"
   inkscape:connector-curvature="0"
   style="fill:#2f4045" />
	<path
   d="M 4.261,17.219 C 5.543,17.417 6.709,16.74 6.87,15.7 7.028,14.663 6.124,13.666 4.836,13.467 3.555,13.27 0.269,13.622 0.108,14.661 -0.051,15.7 2.977,17.024 4.261,17.219 z"
   id="path5160"
   inkscape:connector-curvature="0"
   style="fill:#2f4045" />
	<path
   d="m 48.435,9.81 c 4.028,-0.689 7.864,1.383 9.777,3.675 1.986,2.374 2.731,5.094 2.22,8.091 -0.396,2.303 -1.503,4.373 -3.124,6.01 0.571,0.226 1.186,0.377 1.825,0.448 0.49,-0.547 0.938,-1.142 1.335,-1.768 1.704,-2.657 2.258,-6.59 1.34,-9.567 C 60.934,13.848 59.177,11.67 56.452,10.04 55.138,9.249 53.837,8.662 51.758,8.362 50.694,8.212 49.635,8.19 48.602,8.304 47.813,8.887 47.811,9.217 47.811,9.219 47.812,9.283 47.946,9.51 48.435,9.81 z"
   id="path5162"
   inkscape:connector-curvature="0"
   style="fill:#4e656d" />
	<path
   d="m 26.89,47.05 c -0.888,-3.014 -3.182,-5.333 -6.82,-6.903 -0.194,-0.083 -0.408,-0.162 -0.606,-0.245 -1.031,0.797 1.451,4.737 4.31,7.588 1.896,1.884 -0.936,5.951 -1.671,7.221 0.15,0.476 0.809,1.613 1.683,1.99 0.248,0.103 0.993,0.428 2.131,-0.694 0.39,-0.655 2.194,-4.811 0.973,-8.957 z"
   id="path5164"
   inkscape:connector-curvature="0"
   style="fill:#2f4045" />
	<path
   d="m 51.951,47.3 c -0.888,-3.01 -3.18,-5.333 -6.823,-6.899 -0.192,-0.087 -0.398,-0.162 -0.601,-0.249 -1.033,0.797 -1.505,1.859 -0.256,3.35 0.531,0.635 4.149,0.754 4.567,4.238 0.323,2.648 -0.939,5.951 -1.677,7.224 0.15,0.472 0.811,1.614 1.685,1.986 0.248,0.107 0.995,0.433 2.129,-0.689 0.397,-0.656 2.201,-4.815 0.976,-8.961 z"
   id="path5166"
   inkscape:connector-curvature="0"
   style="fill:#2f4045" />
	<path
   d="m 20.834,24.982 c 0,0 35.645,-4.917 38.476,-2.966 2.827,1.958 4.435,15.51 -0.202,18.337 -4.639,2.822 -32.949,6.391 -38.688,3.584 -5.727,-2.808 -2.573,-17.386 -2.573,-17.386"
   id="path5168"
   inkscape:connector-curvature="0"
   style="fill:#4e656d" />
	<path
   d="m 24.428,35.889 c 4.681,-2.581 6.118,-7.188 4.44,-11.95 -4.698,0.583 -8.034,1.043 -8.034,1.043 l -2.988,1.57 c 0,0 -1.128,5.261 -0.795,10.066 2.367,0.694 5.246,0.444 7.377,-0.729 z"
   id="path5170"
   inkscape:connector-curvature="0"
   style="fill:#2f4045" />
	<path
   d="m 33.059,31.139 c 8.12,-5.785 17.878,-7.834 27.643,-7.026 -0.402,-0.991 -0.88,-1.74 -1.392,-2.097 -1.736,-1.197 -15.812,0.19 -26.44,1.443 0.692,2.565 0.766,5.23 0.189,7.68 z"
   id="path5172"
   inkscape:connector-curvature="0"
   style="fill:#2f4045" />
	<path
   d="m 55.154,36.237 c -0.389,-0.047 -5.062,-0.285 -5.471,-0.316 -1.59,-0.131 -2.972,3.068 -3.386,3.762 -0.405,0.679 -0.131,1.816 0.769,3.2 1.328,2.038 3.878,2.367 4.542,2.2 0.41,-0.107 0.836,-0.214 1.311,-0.285 2.233,-0.337 3.998,0.349 5.051,1.919 1.917,2.874 0.943,7.743 0.476,9.587 0.361,0.539 1.59,1.721 2.803,1.875 0.346,0.048 1.396,0.183 2.407,-1.613 0.262,-0.956 1.026,-6.776 -1.967,-11.502 -2.175,-3.438 -1.45,-8.172 -6.535,-8.827 z"
   id="path5174"
   inkscape:connector-curvature="0"
   style="fill:#4e656d" />
	<path
   d="m 33.834,47.775 c -0.674,-3.002 -2.567,-7.181 -4.805,-9.404 -1.945,-1.939 -8.552,0.614 -6.764,2.474 0.989,1.039 2.232,1.757 3.289,2.724 0.24,0.214 0.456,0.44 0.654,0.67 1.644,0.048 2.956,0.722 3.804,1.986 1.921,2.875 0.948,7.747 0.478,9.587 -0.204,1.709 3.125,1.915 3.375,1.871 0.693,-3.017 0.31,-8.37 -0.031,-9.908 z"
   id="path5176"
   inkscape:connector-curvature="0"
   style="fill:#4e656d" />
	<path
   d="m 25.75,55.178 c -0.525,-0.762 -1.352,-1.075 -2.048,-1.27 -1.854,-0.495 -2.01,1.237 -2.006,1.253 -0.177,1.189 -0.432,2.621 3.655,2.022 0.651,-0.09 0.906,-1.272 0.399,-2.005 z"
   id="path5178"
   inkscape:connector-curvature="0"
   style="fill:#25333a" />
	<path
   d="m 50.952,54.951 c -0.529,-0.761 -1.346,-1.074 -2.046,-1.272 -1.859,-0.5 -2.012,1.237 -2.008,1.253 -0.175,1.189 -0.435,2.62 3.661,2.021 0.645,-0.095 0.903,-1.276 0.393,-2.002 z"
   id="path5180"
   inkscape:connector-curvature="0"
   style="fill:#25333a" />
	<path
   d="m 63.609,55.621 c -0.66,-0.943 -1.688,-1.34 -2.555,-1.582 -2.322,-0.63 -2.51,1.543 -2.51,1.559 -0.217,1.486 -0.536,3.278 4.571,2.525 0.806,-0.119 1.127,-1.59 0.494,-2.502 z"
   id="path5182"
   inkscape:connector-curvature="0"
   style="fill:#25333a" />
	<path
   d="m 34.189,55.958 c -0.5,-0.793 -1.281,-1.122 -1.941,-1.324 -1.77,-0.519 -1.918,1.301 -1.918,1.32 -0.171,1.253 -0.417,2.76 3.475,2.117 0.62,-0.102 0.864,-1.343 0.384,-2.113 z"
   id="path5184"
   inkscape:connector-curvature="0"
   style="fill:#25333a" />
	<path
   d="M 27.98,27.833 C 27.912,25.216 21.065,14.44 15.725,14.492 13.578,14.51 9.447,15.63 9.818,17.446 c 1.415,6.823 9.66,17.219 11.311,16.719 2.309,-0.707 6.899,-3.708 6.851,-6.332 z"
   id="path5186"
   inkscape:connector-curvature="0"
   style="fill:#2f4045" />
	<path
   d="m 36.944,2.197 c 1.834,0.27 -6.835,4.93 -8.227,6.576 -1.388,1.647 -2.595,3.131 -4.012,1.935 C 23.286,9.509 18.278,10.1 19.667,8.455 21.058,6.806 34.887,1.895 36.944,2.197 z"
   id="path5188"
   inkscape:connector-curvature="0"
   style="fill:#d1d2d3" />
	<path
   d="m 1.428,0.005 c -1.839,-0.225 1.723,7.703 2.631,9.658 0.904,1.956 -0.284,3.169 1.401,2.39 1.687,-0.782 6.357,1.11 5.452,-0.842 C 10.008,9.253 3.492,0.257 1.428,0.005 z"
   id="path5190"
   inkscape:connector-curvature="0"
   style="fill:#d1d2d3" />
	<path
   d="m 28.103,15.399 c 0,-4.933 -5.501,-8.926 -12.298,-8.926 -6.796,0 -12.303,3.993 -12.303,8.926 0,4.924 5.507,17.08 12.303,17.08 6.797,0 12.298,-12.156 12.298,-17.08 z"
   id="path5192"
   inkscape:connector-curvature="0"
   style="fill:#4e656d" />
	<path
   d="m 46.868,6.501 c 1.74,0.176 3.025,1.454 2.883,2.861 -0.143,1.403 -1.657,2.398 -3.4,2.22 -1.73,-0.175 -5.901,-1.747 -5.755,-3.153 0.145,-1.404 4.538,-2.106 6.272,-1.928 z"
   id="path5194"
   inkscape:connector-curvature="0"
   style="fill:#2f4045" />
	<path
   d="m 3.678,27.785 c 0,-4.297 4.911,-4.218 11.603,-4.218 6.696,0 12.644,-0.079 12.644,4.218 0,4.302 -5.428,7.787 -12.12,7.787 C 9.108,35.571 3.678,32.086 3.678,27.785 z"
   id="path5196"
   inkscape:connector-curvature="0"
   style="fill:#e7e6e6" />
	<path
   d="m 8.638,30.87 c -2.302,-1.447 -3.37,-3.897 -2.991,-6.336 -1.253,0.615 -1.969,1.614 -1.969,3.251 0,4.302 5.43,7.787 12.126,7.787 4.853,0 9.034,-1.839 10.968,-4.488 -5.397,3.128 -11.629,3.861 -18.134,-0.214 z"
   id="path5198"
   inkscape:connector-curvature="0"
   style="fill:#d1d2d3" />
	<path
   d="m 10.488,28.887 c 0,1.51 -1.009,2.735 -2.26,2.735 -1.245,0 -2.258,-1.225 -2.258,-2.735 0,-1.515 1.013,-2.74 2.258,-2.74 1.251,0 2.26,1.226 2.26,2.74 z"
   id="path5200"
   inkscape:connector-curvature="0"
   style="fill:#2f4045" />
	<ellipse
   cx="23.122999"
   cy="28.867001"
   rx="2.26"
   ry="2.74"
   id="ellipse5202"
   sodipodi:cx="23.122999"
   sodipodi:cy="28.867001"
   sodipodi:rx="2.26"
   sodipodi:ry="2.74"
   style="fill:#2f4045"
   d="m 25.382999,28.867001 c 0,1.51326 -1.011836,2.74 -2.26,2.74 -1.248163,0 -2.26,-1.22674 -2.26,-2.74 0,-1.513261 1.011837,-2.74 2.26,-2.74 1.248164,0 2.26,1.226739 2.26,2.74 z" />
	<ellipse
   cx="12.048"
   cy="17.972"
   rx="1.83"
   ry="2.2160001"
   id="ellipse5204"
   sodipodi:cx="12.048"
   sodipodi:cy="17.972"
   sodipodi:rx="1.83"
   sodipodi:ry="2.2160001"
   style="fill:#25333a"
   d="m 13.878,17.972 c 0,1.223863 -0.819319,2.216 -1.83,2.216 -1.010681,0 -1.83,-0.992137 -1.83,-2.216 0,-1.223863 0.819319,-2.216 1.83,-2.216 1.010681,0 1.83,0.992137 1.83,2.216 z" />
	<ellipse
   cx="19.559999"
   cy="17.972"
   rx="1.831"
   ry="2.2160001"
   id="ellipse5206"
   sodipodi:cx="19.559999"
   sodipodi:cy="17.972"
   sodipodi:rx="1.831"
   sodipodi:ry="2.2160001"
   style="fill:#25333a"
   d="m 21.390999,17.972 c 0,1.223863 -0.819766,2.216 -1.831,2.216 -1.011233,0 -1.831,-0.992137 -1.831,-2.216 0,-1.223863 0.819767,-2.216 1.831,-2.216 1.011234,0 1.831,0.992137 1.831,2.216 z" />
</g>
</svg>