<?xml version="1.0" encoding="UTF-8" standalone="no"?>
<!-- Generator: Adobe Illustrator 16.0.0, SVG Export Plug-In . SVG Version: 6.00 Build 0)  -->

<svg
   xmlns:dc="http://purl.org/dc/elements/1.1/"
   xmlns:cc="http://creativecommons.org/ns#"
   xmlns:rdf="http://www.w3.org/1999/02/22-rdf-syntax-ns#"
   xmlns:svg="http://www.w3.org/2000/svg"
   xmlns="http://www.w3.org/2000/svg"
   xmlns:sodipodi="http://sodipodi.sourceforge.net/DTD/sodipodi-0.dtd"
   xmlns:inkscape="http://www.inkscape.org/namespaces/inkscape"
   version="1.1"
   id="Layer_1"
   x="0px"
   y="0px"
   width="64px"
   height="64px"
   viewBox="0 0 64 64"
   enable-background="new 0 0 64 64"
   xml:space="preserve"
   inkscape:version="0.48.5 r10040"
   sodipodi:docname="1F429.svg"
   inkscape:export-filename="D:\TESTINGEMOJI\SVGTEST\1F429.png"
   inkscape:export-xdpi="90"
   inkscape:export-ydpi="90"><metadata
   id="metadata5311"><rdf:RDF><cc:Work
       rdf:about=""><dc:format>image/svg+xml</dc:format><dc:type
         rdf:resource="http://purl.org/dc/dcmitype/StillImage" /><dc:title></dc:title></cc:Work></rdf:RDF></metadata><defs
   id="defs5309" /><sodipodi:namedview
   pagecolor="#ffffff"
   bordercolor="#666666"
   borderopacity="1"
   objecttolerance="10"
   gridtolerance="10"
   guidetolerance="10"
   inkscape:pageopacity="0"
   inkscape:pageshadow="2"
   inkscape:window-width="640"
   inkscape:window-height="480"
   id="namedview5307"
   showgrid="false"
   inkscape:zoom="3.6875"
   inkscape:cx="32"
   inkscape:cy="32"
   inkscape:window-x="380"
   inkscape:window-y="315"
   inkscape:window-maximized="0"
   inkscape:current-layer="Layer_1" />
<g
   id="g5223">
	<path
   fill="#658999"
   d="M27.041,37.007c-0.503-0.042-1.016-0.074-1.541-0.094c-2.065-0.079-3.656,0.442-4.154,1.37   c-0.483,0.896-0.064,2.346,1.181,4.083c1.827,2.553,3,2.927,3.721,2.988c0.689,0.055,1.418-0.163,2.261-0.416   c0.528-0.159,1.074-0.323,1.675-0.444c2.866-0.562,5.188,0.218,6.631,2.193c2.644,3.592,1.67,9.936,1.172,12.339   c0.493,0.67,2.142,2.126,3.728,2.26c0.449,0.038,1.806,0.151,3.015-2.229c0.277-1.243,0.93-8.798-3.209-14.727   C38.516,40.025,33.647,37.562,27.041,37.007z"
   id="path5225" />
</g>
<g
   id="g5227">
	<path
   fill="#729AAF"
   d="M58.361,32.231l-1.105,0.142c-3.248,5.243-8.39,6.892-13.469,4.396c-0.932-0.459-1.542-0.923-2.036-1.32   c-0.167,0.082-0.346,0.142-0.498,0.243c-0.158,0.096-0.274,0.231-0.419,0.342c3.53,3.406,7.8,4.465,11.647,2.721   c2.394-1.083,4.425-3.171,5.874-6.035C58.432,32.57,58.407,32.359,58.361,32.231z"
   id="path5229" />
</g>
<g
   id="g5231">
	<path
   fill="#729AAF"
   d="M27.697,39.112c0-4.103,3.491-4.026,8.255-4.026c4.762,0,8.987-0.076,8.987,4.026   c0,4.11-3.858,7.438-8.625,7.438C31.557,46.551,27.697,43.223,27.697,39.112z"
   id="path5233" />
</g>
<g
   id="g5235">
	<path
   fill="#729AAF"
   d="M40,36.983c-0.521-0.045-1.056-0.073-1.601-0.095c-2.147-0.085-3.803,0.459-4.321,1.422   c-0.499,0.931-0.063,2.437,1.231,4.241c1.901,2.651,3.112,3.045,3.864,3.107c0.717,0.055,1.473-0.168,2.354-0.434   c0.541-0.167,1.112-0.334,1.738-0.459c2.976-0.584,5.388,0.227,6.894,2.275c2.744,3.736,1.733,10.328,1.218,12.822   c0.511,0.7,2.224,2.212,3.872,2.349c0.468,0.043,1.878,0.159,3.134-2.313c0.293-1.29,0.968-9.145-3.336-15.304   C51.926,40.12,46.861,37.561,40,36.983z"
   id="path5237" />
</g>
<g
   id="g5239">
	<circle
   fill="#ABCAD6"
   cx="54.453"
   cy="57.46"
   r="5.39"
   id="circle5241" />
</g>
<g
   id="g5243">
	<path
   fill="#ABCAD6"
   d="M63.707,33.041c0,3.607-2.92,6.529-6.531,6.529c-3.605,0-6.532-2.922-6.532-6.529   c0-3.606,2.927-6.53,6.532-6.53C60.787,26.511,63.707,29.435,63.707,33.041z"
   id="path5245" />
</g>
<g
   id="g5247">
	<path
   fill="#ABCAD6"
   d="M45.771,57.46c0,2.614-2.116,4.726-4.725,4.726c-2.614,0-4.731-2.111-4.731-4.726   c0-2.606,2.117-4.723,4.731-4.723C43.654,52.737,45.771,54.854,45.771,57.46z"
   id="path5249" />
</g>
<g
   id="g5251">
	<path
   fill="#658999"
   d="M18.448,59.801c0,1.376-1.114,2.489-2.488,2.489l0,0c-1.379,0-2.496-1.113-2.496-2.489V38.406   c0-1.376,1.117-2.494,2.496-2.494l0,0c1.374,0,2.488,1.118,2.488,2.494V59.801z"
   id="path5253" />
</g>
<g
   id="g5255">
	<path
   fill="#658999"
   d="M28.034,59.801c0,1.376-1.12,2.489-2.493,2.489l0,0c-1.375,0-2.492-1.113-2.492-2.489V38.406   c0-1.376,1.116-2.494,2.492-2.494l0,0c1.373,0,2.493,1.118,2.493,2.494V59.801z"
   id="path5257" />
</g>
<g
   id="g5259">
	<path
   fill="#ABCAD6"
   d="M8.998,37.917c0-5.519,4.693-5.42,11.098-5.42c6.405,0,12.097-0.099,12.097,5.42   c0,5.524-5.197,10.002-11.599,10.002C14.189,47.919,8.998,43.441,8.998,37.917z"
   id="path5261" />
</g>
<g
   id="g5263">
	<circle
   fill="#ABCAD6"
   cx="15.96"
   cy="59.217"
   r="4.724"
   id="circle5265" />
</g>
<g
   id="g5267">
	<path
   fill="#ABCAD6"
   d="M30.264,59.217c0,2.61-2.109,4.727-4.723,4.727c-2.609,0-4.727-2.116-4.727-4.727s2.118-4.722,4.727-4.722   C28.155,54.495,30.264,56.606,30.264,59.217z"
   id="path5269" />
</g>
<g
   id="g5271">
	<path
   fill="#ABCAD6"
   d="M22.741,15.285c-0.854-5.229-3.983-9.611-8.896-9.611c-4.915,0-8.9,4.303-8.9,9.611   c0,5.016,3.564,9.132,8.109,9.567c-0.575,1.482-0.904,2.91-0.904,3.872c0,2.944,3.041,5.328,6.796,5.328s6.801-2.384,6.801-5.328   C25.747,26.544,23.838,22.027,22.741,15.285z"
   id="path5273" />
</g>
<g
   id="g5275">
	<path
   fill="#729AAF"
   d="M22.104,35.335c0.323-2.215-8.077-13.069-9.777-12.559c-1.753,0.53-4.088-0.391-4.036,1.196   c0.21,5.951,5.669,15.897,7.13,15.714C17.474,39.424,21.771,37.556,22.104,35.335z"
   id="path5277" />
</g>
<g
   id="g5279">
	<path
   fill="#729AAF"
   d="M18.564,18.448c0,4.046-3.279,7.328-7.329,7.328c-4.053,0-7.332-3.282-7.332-7.328   c0-4.048,3.279-7.333,7.332-7.333C15.286,11.116,18.564,14.4,18.564,18.448z"
   id="path5281" />
</g>
<g
   id="g5283">
	<path
   fill="#ABCAD6"
   d="M16.714,12.756c-1.778-1.658-4.472-2.318-6.748-2.694c-6.063-0.994-6.382,2.912-6.373,2.945   c-0.439,2.678-1.127,5.908,12.045,4.271C17.738,17.021,18.44,14.363,16.714,12.756z"
   id="path5285" />
</g>
<g
   id="g5287">
	<path
   fill="#658999"
   d="M22.406,24.148c0.624-1.373-5.228-12.011-6.826-9.925c-2.435,3.185,0.709,11.343,1.695,11.497   C18.648,25.932,21.775,25.521,22.406,24.148z"
   id="path5289" />
</g>
<g
   id="g5291">
	<path
   fill="#25333A"
   d="M5.992,18.448c0,1.091-0.729,1.978-1.625,1.978c-0.908,0-1.636-0.886-1.636-1.978   c0-1.093,0.729-1.983,1.636-1.983C5.263,16.465,5.992,17.355,5.992,18.448z"
   id="path5293" />
</g>
<g
   id="g5295">
	<path
   fill="#729AAF"
   d="M0,22.566c0-3.206,2.728-3.148,6.446-3.148c3.719,0,7.019-0.058,7.019,3.148   c0,3.207-3.011,5.803-6.732,5.803C3.019,28.37,0,25.773,0,22.566z"
   id="path5297" />
</g>
<g
   id="g5299">
	<path
   fill="#25333A"
   d="M0.158,21.684c0-0.892,0.758-0.874,1.792-0.874c1.038,0,1.954-0.018,1.954,0.874   c0,0.895-0.841,1.615-1.872,1.615C0.997,23.299,0.158,22.578,0.158,21.684z"
   id="path5301" />
</g>
<g
   id="g5303">
	<path
   fill="#25333A"
   d="M12.023,18.448c0,1.247-0.834,2.264-1.862,2.264c-1.032,0-1.87-1.017-1.87-2.264   c0-1.255,0.838-2.266,1.87-2.266C11.189,16.183,12.023,17.193,12.023,18.448z"
   id="path5305" />
</g>
</svg>