<?xml version="1.0" encoding="UTF-8" standalone="no"?>
<!-- Generator: Adobe Illustrator 16.0.0, SVG Export Plug-In . SVG Version: 6.00 Build 0)  -->

<svg
   xmlns:dc="http://purl.org/dc/elements/1.1/"
   xmlns:cc="http://creativecommons.org/ns#"
   xmlns:rdf="http://www.w3.org/1999/02/22-rdf-syntax-ns#"
   xmlns:svg="http://www.w3.org/2000/svg"
   xmlns="http://www.w3.org/2000/svg"
   xmlns:sodipodi="http://sodipodi.sourceforge.net/DTD/sodipodi-0.dtd"
   xmlns:inkscape="http://www.inkscape.org/namespaces/inkscape"
   version="1.1"
   id="Layer_1"
   x="0px"
   y="0px"
   width="64px"
   height="64px"
   viewBox="0 0 64 64"
   enable-background="new 0 0 64 64"
   xml:space="preserve"
   inkscape:version="0.48.5 r10040"
   sodipodi:docname="1F433.svg"
   inkscape:export-filename="D:\TESTINGEMOJI\SVGTEST\1F433.png"
   inkscape:export-xdpi="90"
   inkscape:export-ydpi="90"><metadata
   id="metadata5791"><rdf:RDF><cc:Work
       rdf:about=""><dc:format>image/svg+xml</dc:format><dc:type
         rdf:resource="http://purl.org/dc/dcmitype/StillImage" /><dc:title></dc:title></cc:Work></rdf:RDF></metadata><defs
   id="defs5789" /><sodipodi:namedview
   pagecolor="#ffffff"
   bordercolor="#666666"
   borderopacity="1"
   objecttolerance="10"
   gridtolerance="10"
   guidetolerance="10"
   inkscape:pageopacity="0"
   inkscape:pageshadow="2"
   inkscape:window-width="640"
   inkscape:window-height="480"
   id="namedview5787"
   showgrid="false"
   inkscape:zoom="3.6875"
   inkscape:cx="32"
   inkscape:cy="32"
   inkscape:window-x="400"
   inkscape:window-y="177"
   inkscape:window-maximized="0"
   inkscape:current-layer="Layer_1" />
<g
   id="g5735">
	<g
   id="g5737">
		<path
   fill="#1E75BB"
   d="M37.717,13.896c-1.025,2.376-2.904-1.248-2.475-1.048c-1.753-3.165-9.29-3.239-5.575,14.773    c0.8,3.853-6.96,7.188-5.959,7.053c6.48-0.856,4.259-9.933,3.73-14.07c-0.546-4.238-1.285-8.337,2.669-11.26    C33.13,7.11,39.268,10.284,37.717,13.896z"
   id="path5739" />
	</g>
	<g
   id="g5741">
		<path
   fill="#50C0E7"
   d="M15.354,18.777c1.816,1.652,2.022-2.214,1.731-1.873c0.277-3.421,6.758-6.437,10.593,10.582    c0.826,3.642,8.834,3.489,7.912,3.764c-5.934,1.795-7.564-6.918-8.723-10.698c-1.191-3.878-2.158-7.708-6.717-8.688    C16.667,11.118,12.603,16.265,15.354,18.777z"
   id="path5743" />
	</g>
	<g
   id="g5745">
		<path
   fill="#1080B2"
   d="M39.979,56.932c7.438-13.613,22.873-1.518,21.05,0.376C55.331,63.248,38.627,59.415,39.979,56.932z"
   id="path5747" />
	</g>
	<g
   id="g5749">
		<g
   id="g5751">
			<path
   fill="#1080B2"
   d="M34.303,59.651c30.59-2.318,16.317-43.297,15.505-35.377c-1.088,10.529-16.606,15.215-18.902,27.5     C34.16,56.792,18.389,63.037,34.303,59.651z"
   id="path5753" />
		</g>
		<g
   id="g5755">
			<path
   fill="#1080B2"
   d="M50.806,25.121c-0.263-10.444,13.312-10.605,12.875-8.811C62.308,21.917,50.855,27.026,50.806,25.121z"
   id="path5757" />
		</g>
		<g
   id="g5759">
			<path
   fill="#1080B2"
   d="M50.798,25.121c0.266-10.444-13.309-10.605-12.871-8.811C39.3,21.917,50.752,27.026,50.798,25.121z"
   id="path5761" />
		</g>
	</g>
	<g
   id="g5763">
		<path
   fill="#D1D2D2"
   d="M15.007,55.503c0-2.959,5.098-2.828,9.511-2.828c4.416,0,10.01-0.411,10.01,2.546    c0,2.96-6.923,6.487-11.525,5.642C18.66,60.064,15.007,58.46,15.007,55.503z"
   id="path5765" />
	</g>
	<g
   id="g5767">
		<path
   fill="#2EAAE1"
   d="M21.364,8.852c0.854,3.209,3.92-1.044,3.337-0.868c2.817-3.698,12.412-2.389,4.328,19.803    c-1.731,4.751,7.509,10.439,6.257,10.078c-8.074-2.297-3.561-13.417-2.113-18.571c1.483-5.286,3.184-10.355-1.295-14.81    C28.459,1.09,20.064,3.972,21.364,8.852z"
   id="path5769" />
	</g>
	<g
   id="g5771">
		<path
   fill="#1C9BD3"
   d="M19.235,18.595c-9.258-0.99-17.672,6.783-18.8,17.361c-1.127,10.582,5.46,19.949,14.717,20.935    c9.252,0.986,32.996-1.397,34.125-11.979C50.406,34.331,28.488,19.581,19.235,18.595z"
   id="path5773" />
	</g>
	<g
   id="g5775">
		<path
   fill="#FFFFFF"
   d="M46.438,45.295c0,3.94-2.132,7.127-4.759,7.127c-2.629,0-4.761-3.187-4.761-7.127    c0-3.936,2.132-7.127,4.761-7.127C44.306,38.168,46.438,41.359,46.438,45.295z"
   id="path5777" />
	</g>
	<g
   id="g5779">
		<path
   fill="#25333A"
   d="M46.063,44.127c0,2.061-1.375,3.736-3.079,3.736c-1.699,0-3.083-1.676-3.083-3.736    c0-2.062,1.384-3.731,3.083-3.731C44.688,40.396,46.063,42.065,46.063,44.127z"
   id="path5781" />
	</g>
	<g
   id="g5783">
		<path
   fill="#D1D2D2"
   d="M19.574,57.095c0,0,11.289,0.317,14.443-3.903c0,0,2.354-1.017,0,3.49l-5.704,2.33L19.574,57.095z"
   id="path5785" />
	</g>
</g>
</svg>