<?xml version="1.0" encoding="UTF-8" standalone="no"?>
<!-- Generator: Adobe Illustrator 16.0.0, SVG Export Plug-In . SVG Version: 6.00 Build 0)  -->

<svg
   xmlns:dc="http://purl.org/dc/elements/1.1/"
   xmlns:cc="http://creativecommons.org/ns#"
   xmlns:rdf="http://www.w3.org/1999/02/22-rdf-syntax-ns#"
   xmlns:svg="http://www.w3.org/2000/svg"
   xmlns="http://www.w3.org/2000/svg"
   xmlns:sodipodi="http://sodipodi.sourceforge.net/DTD/sodipodi-0.dtd"
   xmlns:inkscape="http://www.inkscape.org/namespaces/inkscape"
   version="1.1"
   id="Layer_1"
   x="0px"
   y="0px"
   width="64px"
   height="64px"
   viewBox="0 0 64 64"
   enable-background="new 0 0 64 64"
   xml:space="preserve"
   inkscape:version="0.48.5 r10040"
   sodipodi:docname="1F473.svg"
   inkscape:export-filename="D:\TESTINGEMOJI\SVGTEST\1F473.png"
   inkscape:export-xdpi="90"
   inkscape:export-ydpi="90"><metadata
   id="metadata3933"><rdf:RDF><cc:Work
       rdf:about=""><dc:format>image/svg+xml</dc:format><dc:type
         rdf:resource="http://purl.org/dc/dcmitype/StillImage" /><dc:title></dc:title></cc:Work></rdf:RDF></metadata><defs
   id="defs3931" /><sodipodi:namedview
   pagecolor="#ffffff"
   bordercolor="#666666"
   borderopacity="1"
   objecttolerance="10"
   gridtolerance="10"
   guidetolerance="10"
   inkscape:pageopacity="0"
   inkscape:pageshadow="2"
   inkscape:window-width="640"
   inkscape:window-height="480"
   id="namedview3929"
   showgrid="false"
   inkscape:zoom="3.6875"
   inkscape:cx="32"
   inkscape:cy="32"
   inkscape:window-x="450"
   inkscape:window-y="281"
   inkscape:window-maximized="0"
   inkscape:current-layer="Layer_1" />
<g
   id="g3875">
	<path
   fill="#D79E53"
   d="M14.188,50.626C14.188,58.016,21.533,64,32.82,64c11.283,0,18.629-5.984,18.629-13.374   c0-7.381-7.347-25.593-18.629-25.593C21.533,25.033,14.188,43.245,14.188,50.626z"
   id="path3877" />
</g>
<g
   id="g3879">
	<path
   fill="#D79E53"
   d="M9.066,40.76c0,9.741,10.817,17.627,24.173,17.627c13.354,0,24.174-7.886,24.174-17.627   c0-9.734-10.819-33.743-24.174-33.743C19.883,7.017,9.066,31.025,9.066,40.76z"
   id="path3881" />
</g>
<g
   id="g3883">
	<path
   fill="#D79E53"
   d="M56.428,33.519c0,15.095-10.382,27.329-23.19,27.329c-12.807,0-23.187-12.234-23.187-27.329   c0-15.097,10.38-22.696,23.187-22.696C46.046,10.823,56.428,18.422,56.428,33.519z"
   id="path3885" />
</g>
<g
   id="g3887">
	<path
   fill="#BA8749"
   d="M28.056,62.323c-2.946-1.331-8.761-4.688-7.908-8.88c1.284-6.324-4.542-6.441-5.706-11.311   c-2.479-10.378,0.954-19.57,6.077-28.138c-6.262,3.53-10.421,10.023-10.421,19.543c0,0.263,0.027,0.515,0.031,0.776   c-0.657,2.47-1.016,4.701-1.016,6.465c0,4.115,1.949,7.893,5.187,10.893C14.936,58.444,21.837,63.788,32.243,64   C30.865,63.505,29.472,62.959,28.056,62.323z"
   id="path3889" />
</g>
<g
   id="g3891">
	<ellipse
   fill="#FFFFFF"
   cx="24.155"
   cy="37.057"
   rx="5.368"
   ry="6.122"
   id="ellipse3893" />
</g>
<g
   id="g3895">
	<path
   fill="#FFFFFF"
   d="M47.692,37.057c0,3.383-2.401,6.122-5.364,6.122c-2.968,0-5.375-2.739-5.375-6.122   c0-3.382,2.407-6.121,5.375-6.121C45.291,30.936,47.692,33.675,47.692,37.057z"
   id="path3897" />
</g>
<g
   id="g3899">
	<ellipse
   fill="#25333A"
   cx="24.155"
   cy="37.057"
   rx="3.476"
   ry="3.207"
   id="ellipse3901" />
</g>
<g
   id="g3903">
	<path
   fill="#25333A"
   d="M45.798,37.057c0,1.77-1.553,3.207-3.47,3.207c-1.922,0-3.48-1.438-3.48-3.207   c0-1.771,1.559-3.207,3.48-3.207C44.245,33.85,45.798,35.286,45.798,37.057z"
   id="path3905" />
</g>
<g
   opacity="0.7"
   id="g3907">
	<path
   fill="#B08046"
   d="M29.82,46.834c0-1.568,1.338-1.541,3.162-1.541c1.824,0,3.445-0.027,3.445,1.541   c0,1.576-1.48,2.85-3.303,2.85C31.3,49.684,29.82,48.41,29.82,46.834z"
   id="path3909" />
</g>
<g
   id="g3911">
	<path
   fill="#A07342"
   d="M30.738,58.125c-0.653-0.047-1.145-0.538-1.104-1.087l0,0c0.047-0.544,0.613-0.946,1.26-0.888l2.762,0.221   c0.654,0.053,1.146,0.54,1.103,1.087l0,0c-0.043,0.544-0.61,0.946-1.26,0.894L30.738,58.125z"
   id="path3913" />
</g>
<g
   id="g3915">
	<path
   fill="#A7A8AC"
   d="M33.019,0.716c-13.027,0-23.586,9.716-23.586,14.245v10.072v3.445v4.013   c4.539-5.481,15.362-8.429,21.84-9.759c0.579-0.018,1.157-0.039,1.746-0.039c13.023,0,23.583,10.313,23.583,5.786V14.961   C56.602,10.432,46.042,0.716,33.019,0.716z"
   id="path3917" />
</g>
<g
   id="g3919">
	<path
   fill="#D1D2D3"
   d="M10.051,31.804c0,0,0.053-0.041,0.07-0.057c4.865-5.003,36.252-19.185,46.213-18.173l0.268,1.387   c0-4.529-10.56-14.245-23.583-14.245c-13.027,0-23.586,9.716-23.586,14.245v10.072v3.445v4.013   c0.189-0.228,0.406-0.447,0.614-0.667L10.051,31.804z"
   id="path3921" />
</g>
<g
   id="g3923">
	<path
   fill="#BCBDBF"
   d="M28.556,1.102C17.665,2.934,9.433,10.962,9.433,14.961V32.49c0.189-0.228,0.406-0.447,0.614-0.667   l0.004-0.02c0,0,0.053-0.041,0.07-0.057c1.795-1.845,7.202-4.941,13.809-8.061C18.993,17.84,23.246,5.55,28.556,1.102z"
   id="path3925" />
</g>
<path
   fill="#DBDCDD"
   d="M37.197,16.674c-5.926-2.569-12.04-4.651-18.278-6.325c-1.814-0.487-3.677-1.03-5.563-1.557  c-2.331,2.265-3.701,4.548-3.701,6.169V32.49c0.189-0.228,0.406-0.447,0.615-0.667l0.004-0.02c0,0,0.053-0.041,0.07-0.057  c3.053-3.141,16.55-9.894,28.643-14.239C38.39,17.232,37.8,16.935,37.197,16.674z"
   id="path3927" />
</svg>