<?xml version="1.0" encoding="UTF-8" standalone="no"?>
<!-- Generator: Adobe Illustrator 16.0.0, SVG Export Plug-In . SVG Version: 6.00 Build 0)  -->

<svg
   xmlns:dc="http://purl.org/dc/elements/1.1/"
   xmlns:cc="http://creativecommons.org/ns#"
   xmlns:rdf="http://www.w3.org/1999/02/22-rdf-syntax-ns#"
   xmlns:svg="http://www.w3.org/2000/svg"
   xmlns="http://www.w3.org/2000/svg"
   xmlns:sodipodi="http://sodipodi.sourceforge.net/DTD/sodipodi-0.dtd"
   xmlns:inkscape="http://www.inkscape.org/namespaces/inkscape"
   version="1.1"
   id="Layer_1"
   x="0px"
   y="0px"
   width="64px"
   height="64px"
   viewBox="0 0 64 64"
   enable-background="new 0 0 64 64"
   xml:space="preserve"
   inkscape:version="0.48.5 r10040"
   sodipodi:docname="1F479.svg"
   inkscape:export-filename="D:\TESTINGEMOJI\SVGTEST\1F479.png"
   inkscape:export-xdpi="90"
   inkscape:export-ydpi="90"><metadata
   id="metadata4529"><rdf:RDF><cc:Work
       rdf:about=""><dc:format>image/svg+xml</dc:format><dc:type
         rdf:resource="http://purl.org/dc/dcmitype/StillImage" /><dc:title></dc:title></cc:Work></rdf:RDF></metadata><defs
   id="defs4527" /><sodipodi:namedview
   pagecolor="#ffffff"
   bordercolor="#666666"
   borderopacity="1"
   objecttolerance="10"
   gridtolerance="10"
   guidetolerance="10"
   inkscape:pageopacity="0"
   inkscape:pageshadow="2"
   inkscape:window-width="640"
   inkscape:window-height="480"
   id="namedview4525"
   showgrid="false"
   inkscape:zoom="3.6875"
   inkscape:cx="32"
   inkscape:cy="32"
   inkscape:window-x="292"
   inkscape:window-y="247"
   inkscape:window-maximized="0"
   inkscape:current-layer="Layer_1" />
<g
   id="g4465">
	<g
   id="g4467">
		<circle
   fill="#25333A"
   cx="32.134"
   cy="32.194"
   r="31.694"
   id="circle4469" />
	</g>
	<g
   id="g4471">
		<path
   fill="#DE374B"
   d="M60.519,32.52c0,15.676-12.705,28.386-28.385,28.386c-15.682,0-28.386-12.71-28.386-28.386    c0-15.678,12.704-28.386,28.386-28.386C47.813,4.133,60.519,16.842,60.519,32.52z"
   id="path4473" />
	</g>
	<g
   id="g4475">
		<path
   fill="#FFFFFF"
   d="M28.037,29.413c0,4.774-2.579,8.64-5.765,8.64c-3.188,0-5.771-3.865-5.771-8.64    c0-4.771,2.583-8.64,5.771-8.64C25.458,20.773,28.037,24.643,28.037,29.413z"
   id="path4477" />
	</g>
	<g
   id="g4479">
		<path
   fill="#FFFFFF"
   d="M47.561,29.413c0,4.774-2.583,8.64-5.768,8.64c-3.188,0-5.771-3.865-5.771-8.64    c0-4.771,2.583-8.64,5.771-8.64C44.978,20.773,47.561,24.643,47.561,29.413z"
   id="path4481" />
	</g>
	<g
   id="g4483">
		<ellipse
   fill="#25333A"
   cx="41.792"
   cy="29.413"
   rx="2.01"
   ry="3.759"
   id="ellipse4485" />
	</g>
	<g
   id="g4487">
		<ellipse
   fill="#25333A"
   cx="22.796"
   cy="30.077"
   rx="2.01"
   ry="3.758"
   id="ellipse4489" />
	</g>
	<g
   opacity="0.6"
   id="g4491">
		<path
   fill="#BE202E"
   d="M17.258,40.749c-5.033-10.793-5.255-22.409-0.708-32.012C8.844,13.812,3.748,22.531,3.748,32.45    c0,15.677,12.704,28.385,28.386,28.385c0.28,0,0.553-0.035,0.831-0.041C26.458,55.317,20.973,48.725,17.258,40.749z"
   id="path4493" />
	</g>
	<g
   id="g4495">
		<path
   fill="#25333A"
   d="M38.434,41.097c-9.967,1.464-19.95,2.737-29.959,3.698c3.768,9.434,12.972,16.11,23.751,16.11    c13.227,0,24.107-10.037,25.447-22.909C51.268,39.087,44.86,40.153,38.434,41.097z"
   id="path4497" />
	</g>
	<g
   id="g4499">
		<path
   fill="#FFFFFF"
   d="M38.465,42.58c-9.058,1.312-18.128,2.448-27.223,3.311c3.423,8.441,11.785,14.417,21.581,14.417    c12.02,0,21.906-8.984,23.123-20.501C50.128,40.782,44.304,41.735,38.465,42.58z"
   id="path4501" />
	</g>
	<g
   id="g4503">
		<g
   id="g4505">
			<path
   fill="#25333A"
   d="M33.5,47.229l5.831,3.929c0.006,0.01,0.02,0.023,0.037,0.039c0.146,0.1,0.321,0.131,0.5,0.109     c0.176-0.021,0.347-0.092,0.466-0.224c0.013-0.018,0.013-0.031,0.022-0.045l4.337-4.72l5.31,3.585     c0.016,0.008,0.018,0.023,0.037,0.039c0.151,0.097,0.331,0.128,0.498,0.108c0.183-0.021,0.356-0.093,0.469-0.224     c0.01-0.02,0.018-0.035,0.029-0.047l4.753-5.175c0.241-0.261,0.199-0.623-0.097-0.817c-0.286-0.195-0.715-0.145-0.952,0.112     l-4.365,4.745l-5.347-3.601c-0.145-0.101-0.325-0.136-0.498-0.116c-0.18,0.023-0.343,0.097-0.462,0.228l-4.365,4.747L34.351,46.3     c-0.29-0.194-0.715-0.146-0.944,0.11C33.171,46.668,33.212,47.029,33.5,47.229z"
   id="path4507" />
		</g>
		<g
   id="g4509">
			<path
   fill="#25333A"
   d="M11.705,49.793l5.819,3.932c0.018,0.008,0.029,0.023,0.037,0.039c0.152,0.1,0.329,0.131,0.514,0.109     c0.169-0.02,0.341-0.094,0.454-0.222c0.01-0.02,0.02-0.035,0.031-0.047l4.333-4.718l5.312,3.581     c0.018,0.01,0.018,0.023,0.035,0.039c0.148,0.099,0.339,0.128,0.506,0.108c0.179-0.021,0.342-0.091,0.461-0.222     c0.013-0.02,0.019-0.035,0.033-0.047l4.749-5.177c0.233-0.257,0.193-0.621-0.097-0.815c-0.282-0.197-0.705-0.146-0.95,0.11     L28.58,51.21l-5.351-3.601c-0.144-0.098-0.321-0.134-0.502-0.112c-0.167,0.019-0.337,0.097-0.459,0.226l-4.36,4.745l-5.354-3.601     c-0.286-0.197-0.71-0.146-0.946,0.11C11.364,49.234,11.409,49.599,11.705,49.793z"
   id="path4511" />
		</g>
	</g>
	<g
   id="g4513">
		<path
   fill="#BE202E"
   d="M24.654,40.371c0-3.955,3.365-11.916,7.953-11.916c4.592,0,8.669,7.96,8.669,11.916    c0,3.961-3.724,7.166-8.311,7.166C28.375,47.537,24.654,44.332,24.654,40.371z"
   id="path4515" />
	</g>
	<g
   id="g4517">
		<path
   fill="#DE374B"
   d="M49.938,14.078c-0.557,0.705-1.931,0.545-3.069-0.356l0,0c-1.133-0.901-1.604-2.201-1.045-2.906    L54.05,0.439c0.559-0.705,1.933-0.545,3.069,0.357l0,0C58.256,1.696,58.725,3,58.166,3.7L49.938,14.078z"
   id="path4519" />
	</g>
	<g
   id="g4521">
		<path
   fill="#DE374B"
   d="M15.231,14.578c0.555,0.707,1.931,0.543,3.069-0.356l0,0c1.133-0.899,1.604-2.202,1.045-2.904    L11.121,0.939c-0.559-0.705-1.933-0.545-3.069,0.357l0,0C6.915,2.197,6.446,3.5,7.004,4.2L15.231,14.578z"
   id="path4523" />
	</g>
</g>
</svg>