<?xml version="1.0" encoding="UTF-8" standalone="no"?>
<!-- Generator: Adobe Illustrator 16.0.0, SVG Export Plug-In . SVG Version: 6.00 Build 0)  -->

<svg
   xmlns:dc="http://purl.org/dc/elements/1.1/"
   xmlns:cc="http://creativecommons.org/ns#"
   xmlns:rdf="http://www.w3.org/1999/02/22-rdf-syntax-ns#"
   xmlns:svg="http://www.w3.org/2000/svg"
   xmlns="http://www.w3.org/2000/svg"
   xmlns:sodipodi="http://sodipodi.sourceforge.net/DTD/sodipodi-0.dtd"
   xmlns:inkscape="http://www.inkscape.org/namespaces/inkscape"
   version="1.1"
   id="Layer_1"
   x="0px"
   y="0px"
   width="64px"
   height="64px"
   viewBox="0 0 64 64"
   enable-background="new 0 0 64 64"
   xml:space="preserve"
   inkscape:version="0.48.5 r10040"
   sodipodi:docname="1F492.svg"
   inkscape:export-filename="D:\TESTINGEMOJI\SVGTEST\1F492.png"
   inkscape:export-xdpi="90"
   inkscape:export-ydpi="90"><metadata
   id="metadata3697"><rdf:RDF><cc:Work
       rdf:about=""><dc:format>image/svg+xml</dc:format><dc:type
         rdf:resource="http://purl.org/dc/dcmitype/StillImage" /><dc:title></dc:title></cc:Work></rdf:RDF></metadata><defs
   id="defs3695" /><sodipodi:namedview
   pagecolor="#ffffff"
   bordercolor="#666666"
   borderopacity="1"
   objecttolerance="10"
   gridtolerance="10"
   guidetolerance="10"
   inkscape:pageopacity="0"
   inkscape:pageshadow="2"
   inkscape:window-width="640"
   inkscape:window-height="480"
   id="namedview3693"
   showgrid="false"
   inkscape:zoom="3.6875"
   inkscape:cx="32"
   inkscape:cy="32"
   inkscape:window-x="282"
   inkscape:window-y="138"
   inkscape:window-maximized="0"
   inkscape:current-layer="Layer_1" />
<g
   id="g3641"
   transform="translate(2,0)">
	<path
   d="M 56.529,6.754 C 56.4,6.61 56.266,6.47 56.115,6.34 55.416,5.728 54.461,5.298 53.286,5.284 c 0,0 -0.013,0 -0.025,0 -0.069,-0.002 -0.142,0.004 -0.21,0.004 -0.73,0.035 -2.838,0.898 -3.365,2.602 -0.524,-1.703 -2.631,-2.566 -3.361,-2.602 -0.071,0 -0.146,-0.006 -0.213,-0.004 -0.016,0 -0.019,0 -0.019,0 -1.183,0.014 -2.134,0.443 -2.835,1.056 -0.152,0.13 -0.288,0.271 -0.413,0.414 -0.89,1.015 -1.313,2.452 -0.764,3.767 0.063,0.185 0.142,0.375 0.228,0.573 1.291,2.94 4.803,6.99 6.541,8.897 0.371,0.467 0.659,0.825 0.828,1.037 v 0.021 l 0,0 0.006,0.008 v -0.016 l 0.002,-0.004 c 0.002,0.002 0.002,0.004 0.002,0.004 l 0.004,0.016 0.002,-0.006 0.005,-0.002 v -0.021 c 0.171,-0.212 0.452,-0.57 0.823,-1.037 1.738,-1.907 5.254,-5.958 6.545,-8.897 0.086,-0.198 0.164,-0.389 0.229,-0.573 C 57.842,9.207 57.42,7.77 56.529,6.754 z"
   id="path3643"
   inkscape:connector-curvature="0"
   style="fill:#f2abb9" />
	<path
   d="M 45.266,11.483 C 45.18,11.285 45.102,11.094 45.036,10.909 44.487,9.595 44.912,8.158 45.801,7.143 45.926,7 46.066,6.859 46.214,6.729 46.665,6.334 47.223,6.019 47.87,5.838 47.258,5.488 46.65,5.303 46.324,5.288 c -0.071,0 -0.146,-0.006 -0.213,-0.004 -0.016,0 -0.019,0 -0.019,0 -1.183,0.014 -2.134,0.443 -2.835,1.056 -0.152,0.13 -0.288,0.271 -0.413,0.414 -0.89,1.015 -1.313,2.452 -0.764,3.767 0.063,0.185 0.142,0.375 0.228,0.573 1.291,2.94 4.803,6.99 6.541,8.897 0.371,0.467 0.659,0.825 0.828,1.037 v 0.021 l 0,0 0.006,0.008 v -0.016 l 0.002,-0.004 c 0.002,0.002 0.002,0.004 0.002,0.004 l 0.004,0.016 0.002,-0.006 0.005,-0.002 v -0.021 c 0.171,-0.212 0.452,-0.57 0.823,-1.037 0.145,-0.159 0.305,-0.334 0.472,-0.519 -1.856,-2.099 -4.617,-5.454 -5.727,-7.989 z"
   id="path3645"
   inkscape:connector-curvature="0"
   style="fill:#cc8fa0" />
	<path
   d="M 19.629,6.754 C 19.501,6.61 19.364,6.47 19.215,6.34 18.515,5.728 17.56,5.298 16.386,5.284 H 16.361 C 16.291,5.282 16.219,5.288 16.151,5.288 15.42,5.323 13.312,6.186 12.785,7.89 12.26,6.186 10.154,5.323 9.423,5.288 9.351,5.288 9.277,5.282 9.211,5.284 c -0.016,0 -0.02,0 -0.025,0 C 8.012,5.298 7.059,5.728 6.357,6.34 6.206,6.47 6.069,6.611 5.945,6.754 5.054,7.77 4.63,9.207 5.181,10.521 c 0.064,0.185 0.142,0.375 0.228,0.573 1.291,2.94 4.803,6.99 6.539,8.897 0.373,0.467 0.661,0.825 0.83,1.037 v 0.021 l 0,0 0.006,0.008 v -0.015 l 0.002,-0.002 0.004,0.002 v 0.016 l 0.006,-0.006 0.002,-0.002 v -0.021 c 0.171,-0.212 0.453,-0.57 0.824,-1.037 1.738,-1.907 5.254,-5.958 6.545,-8.897 0.085,-0.198 0.162,-0.389 0.229,-0.573 C 20.942,9.207 20.52,7.77 19.629,6.754 z"
   id="path3647"
   inkscape:connector-curvature="0"
   style="fill:#f2abb9" />
	<path
   d="M 8.366,11.483 C 8.279,11.285 8.2,11.094 8.135,10.909 7.588,9.594 8.01,8.158 8.898,7.143 9.024,7 9.164,6.859 9.312,6.729 9.763,6.334 10.321,6.019 10.969,5.838 10.356,5.488 9.75,5.303 9.423,5.288 9.351,5.288 9.277,5.282 9.211,5.284 c -0.016,0 -0.02,0 -0.025,0 C 8.012,5.298 7.059,5.728 6.357,6.34 6.206,6.47 6.069,6.611 5.945,6.754 5.054,7.77 4.63,9.207 5.181,10.521 c 0.064,0.185 0.142,0.375 0.228,0.573 1.291,2.94 4.803,6.99 6.539,8.897 0.373,0.467 0.661,0.825 0.83,1.037 v 0.021 l 0,0 0.006,0.008 v -0.015 l 0.002,-0.002 0.004,0.002 v 0.016 l 0.006,-0.006 0.002,-0.002 v -0.021 c 0.171,-0.212 0.453,-0.57 0.824,-1.037 0.144,-0.159 0.304,-0.334 0.471,-0.519 -1.856,-2.1 -4.617,-5.455 -5.727,-7.99 z"
   id="path3649"
   inkscape:connector-curvature="0"
   style="fill:#cc8fa0" />
	<polygon
   points="11.904,42.188 12.785,37.545 10.197,38.24 8.039,39.866 5.896,42.188 "
   id="polygon3651"
   style="fill:#992c3d" />
	<polygon
   points="50.566,42.188 49.686,37.545 52.27,38.24 54.428,39.866 56.57,42.188 "
   id="polygon3653"
   style="fill:#992c3d" />
	<path
   d="M 35.328,4.211 H 32.719 V 1.265 c 0,-0.774 -0.63,-1.404 -1.404,-1.404 -0.776,0 -1.406,0.63 -1.406,1.404 V 4.211 H 27.3 c -0.577,0 -1.013,0.603 -1.013,1.404 0,0.801 0.436,1.404 1.013,1.404 h 2.609 v 8.454 c 0,0.774 0.63,1.404 1.406,1.404 0.774,0 1.404,-0.63 1.404,-1.404 V 7.018 h 2.609 c 0.574,0 1.009,-0.603 1.009,-1.404 0,-0.801 -0.435,-1.403 -1.009,-1.403 z"
   id="path3655"
   inkscape:connector-curvature="0"
   style="fill:#99999a" />
	<path
   d="m 51.155,58.703 c 1.393,0 2.521,0.404 2.521,0.902 l 0,0 c 0,0.505 -1.128,0.908 -2.521,0.908 H 11.731 c -1.384,0 -2.51,-0.403 -2.51,-0.908 l 0,0 c 0,-0.498 1.126,-0.902 2.51,-0.902 h 39.424 z"
   id="path3657"
   inkscape:connector-curvature="0"
   style="fill:#bbbdbf" />
	<path
   d="m 53.702,60.514 c 1.587,0 2.868,0.406 2.868,0.906 l 0,0 c 0,0.502 -1.281,0.906 -2.868,0.906 H 8.758 c -1.577,0 -2.862,-0.404 -2.862,-0.906 l 0,0 c 0,-0.5 1.285,-0.906 2.862,-0.906 h 44.944 z"
   id="path3659"
   inkscape:connector-curvature="0"
   style="fill:#99999a" />
	<path
   d="m 56.541,62.327 c 1.77,0 3.197,0.408 3.197,0.906 l 0,0 c 0,0.498 -1.428,0.905 -3.197,0.905 H 6.443 c -1.762,0 -3.193,-0.407 -3.193,-0.905 l 0,0 c 0,-0.498 1.431,-0.906 3.193,-0.906 h 50.098 z"
   id="path3661"
   inkscape:connector-curvature="0"
   style="fill:#7c7c7d" />
	<polygon
   points="24.374,43.078 24.374,16.797 31.307,11.794 38.247,16.797 38.247,43.078 "
   id="polygon3663"
   style="fill:#f2abb9" />
	<polygon
   points="27.479,16.946 27.479,26.753 24.308,28.433 24.374,27.527 24.374,16.201 31.428,12.058 31.556,12.058 "
   id="polygon3665"
   style="fill:#cc8fa0" />
	<polygon
   points="11.061,58.703 11.061,38.793 31.299,24.191 51.563,38.793 51.563,58.703 "
   id="polygon3667"
   style="fill:#f2abb9" />
	<polygon
   points="18.463,38.555 18.463,58.703 11.061,58.703 11.061,38.318 30.778,24.191 31.737,24.679 "
   id="polygon3669"
   style="fill:#cc8fa0" />
	<path
   d="M 33.979,24.893 V 20.73 c 0,-1.474 -1.193,-2.668 -2.667,-2.668 -1.476,0 -2.667,1.194 -2.667,2.668 v 4.163 h 5.334 z"
   id="path3671"
   inkscape:connector-curvature="0"
   style="fill:#633c17" />
	<path
   d="M 31.964,18.152 C 31.75,18.1 31.536,18.063 31.311,18.063 c -1.476,0 -2.667,1.194 -2.667,2.668 v 4.163 h 1.303 v -4.163 c -10e-4,-1.247 0.857,-2.287 2.017,-2.579 z"
   id="path3673"
   inkscape:connector-curvature="0"
   style="fill:#462a15" />
	<path
   d="m 31.857,23.736 c 0.317,0.471 0.146,1.141 -0.383,1.497 L 6.6,41.973 C 6.073,42.327 5.385,42.235 5.066,41.764 l 0,0 C 4.747,41.289 4.92,40.619 5.449,40.262 L 30.323,23.525 c 0.53,-0.357 1.214,-0.262 1.534,0.211 l 0,0 z"
   id="path3675"
   inkscape:connector-curvature="0"
   style="fill:#de374b" />
	<path
   d="m 30.646,23.736 c -0.319,0.471 -0.146,1.141 0.381,1.497 l 24.875,16.739 c 0.529,0.354 1.215,0.262 1.535,-0.209 l 0,0 c 0.316,-0.475 0.146,-1.145 -0.383,-1.502 L 32.18,23.524 c -0.533,-0.356 -1.219,-0.261 -1.534,0.212 l 0,0 z"
   id="path3677"
   inkscape:connector-curvature="0"
   style="fill:#de374b" />
	<path
   d="m 39.697,16.023 -7.771,-5.227 c -0.185,-0.121 -0.401,-0.165 -0.609,-0.149 -0.214,-0.02 -0.439,0.025 -0.628,0.149 l -7.766,5.227 c -0.434,0.297 -0.558,0.873 -0.278,1.291 0.167,0.247 0.451,0.393 0.754,0.393 0.19,0 0.381,-0.058 0.544,-0.169 l 7.365,-4.958 7.366,4.958 c 0.161,0.111 0.353,0.169 0.546,0.169 0.307,0 0.586,-0.149 0.754,-0.393 0.281,-0.418 0.155,-0.994 -0.277,-1.291 z"
   id="path3679"
   inkscape:connector-curvature="0"
   style="fill:#de374b" />
	<path
   d="M 37.782,58.758 V 48.662 c 0,-3.572 -2.894,-6.475 -6.467,-6.475 -3.58,0 -6.475,2.9 -6.475,6.475 v 10.096 h 12.942 l 0,0 z"
   id="path3681"
   inkscape:connector-curvature="0"
   style="fill:#633c17" />
	<path
   d="m 33.396,42.537 c -0.657,-0.222 -1.357,-0.35 -2.082,-0.35 -3.58,0 -6.475,2.9 -6.475,6.475 V 58.758 H 29 V 48.662 c 0.001,-2.847 1.841,-5.258 4.396,-6.125 z"
   id="path3683"
   inkscape:connector-curvature="0"
   style="fill:#462a15" />
	<path
   d="m 48.006,58.703 v -4.16 c 0,-1.475 -1.197,-2.673 -2.668,-2.673 -1.477,0 -2.668,1.198 -2.668,2.673 v 4.16 h 5.336 z"
   id="path3685"
   inkscape:connector-curvature="0"
   style="fill:#633c17" />
	<path
   d="m 20.065,58.703 v -4.16 c 0,-1.475 -1.192,-2.673 -2.667,-2.673 -1.474,0 -2.668,1.198 -2.668,2.673 v 4.16 h 5.335 z"
   id="path3687"
   inkscape:connector-curvature="0"
   style="fill:#633c17" />
	<path
   d="m 18.274,51.975 c -0.27,-0.09 -0.558,-0.141 -0.861,-0.141 -1.479,0 -2.683,1.202 -2.683,2.68 v 4.188 h 1.729 v -4.188 c -0.001,-1.174 0.759,-2.174 1.815,-2.539 z"
   id="path3689"
   inkscape:connector-curvature="0"
   style="fill:#462a15" />
	<path
   d="m 46.215,51.995 c -0.271,-0.09 -0.558,-0.146 -0.863,-0.146 -1.479,0 -2.682,1.203 -2.682,2.685 v 4.185 h 1.725 v -4.185 c 0,-1.179 0.762,-2.178 1.82,-2.539 z"
   id="path3691"
   inkscape:connector-curvature="0"
   style="fill:#462a15" />
</g>
</svg>