<?xml version="1.0" encoding="UTF-8" standalone="no"?>
<!-- Generator: Adobe Illustrator 16.0.0, SVG Export Plug-In . SVG Version: 6.00 Build 0)  -->

<svg
   xmlns:dc="http://purl.org/dc/elements/1.1/"
   xmlns:cc="http://creativecommons.org/ns#"
   xmlns:rdf="http://www.w3.org/1999/02/22-rdf-syntax-ns#"
   xmlns:svg="http://www.w3.org/2000/svg"
   xmlns="http://www.w3.org/2000/svg"
   xmlns:sodipodi="http://sodipodi.sourceforge.net/DTD/sodipodi-0.dtd"
   xmlns:inkscape="http://www.inkscape.org/namespaces/inkscape"
   version="1.1"
   id="Layer_1"
   x="0px"
   y="0px"
   width="64px"
   height="64px"
   viewBox="0 0 64 64"
   enable-background="new 0 0 64 64"
   xml:space="preserve"
   inkscape:version="0.48.5 r10040"
   sodipodi:docname="1F50D.svg"
   inkscape:export-filename="D:\TESTINGEMOJI\SVGTEST\1F50D.png"
   inkscape:export-xdpi="90"
   inkscape:export-ydpi="90"><metadata
   id="metadata3411"><rdf:RDF><cc:Work
       rdf:about=""><dc:format>image/svg+xml</dc:format><dc:type
         rdf:resource="http://purl.org/dc/dcmitype/StillImage" /><dc:title></dc:title></cc:Work></rdf:RDF></metadata><defs
   id="defs3409" /><sodipodi:namedview
   pagecolor="#ffffff"
   bordercolor="#666666"
   borderopacity="1"
   objecttolerance="10"
   gridtolerance="10"
   guidetolerance="10"
   inkscape:pageopacity="0"
   inkscape:pageshadow="2"
   inkscape:window-width="640"
   inkscape:window-height="480"
   id="namedview3407"
   showgrid="false"
   inkscape:zoom="3.6875"
   inkscape:cx="32"
   inkscape:cy="32"
   inkscape:window-x="602"
   inkscape:window-y="400"
   inkscape:window-maximized="0"
   inkscape:current-layer="Layer_1" />
<g
   id="g3391"
   transform="translate(2,0)">
	<path
   d="M 42.52,63.354 C 40.967,64.1 39.486,64.24 39.208,63.662 L 23.246,30.584 c -0.277,-0.576 0.753,-1.652 2.308,-2.403 l 0,0 c 1.551,-0.747 3.039,-0.888 3.314,-0.308 l 15.96,33.075 c 0.276,0.575 -0.758,1.656 -2.308,2.406 l 0,0 z"
   id="path3393"
   inkscape:connector-curvature="0"
   style="fill:#243438" />
	<path
   d="M 43.603,21.691 C 43.603,33.68 33.885,43.382 21.91,43.382 9.933,43.382 0.217,33.68 0.217,21.691 0.217,9.702 9.933,0 21.91,0 33.885,0 43.603,9.702 43.603,21.691 z"
   id="path3395"
   inkscape:connector-curvature="0"
   style="fill:#243438" />
	<path
   d="m 41.398,21.691 c 0,10.766 -8.731,19.485 -19.489,19.485 -10.759,0 -19.487,-8.719 -19.487,-19.485 0,-10.77 8.728,-19.485 19.487,-19.485 10.758,0 19.489,8.715 19.489,19.485 z"
   id="path3397"
   inkscape:connector-curvature="0"
   style="fill:#30434a" />
	<path
   d="m 39.257,21.691 c 0,9.583 -7.769,17.344 -17.347,17.344 -9.574,0 -17.345,-7.762 -17.345,-17.344 0,-9.585 7.771,-17.345 17.345,-17.345 9.578,0 17.347,7.76 17.347,17.345 z"
   id="path3399"
   inkscape:connector-curvature="0"
   style="fill:#1e75bb" />
	<g
   id="g3401">
		<circle
   cx="21.91"
   cy="21.691"
   r="15.205"
   id="circle3403"
   sodipodi:cx="21.91"
   sodipodi:cy="21.691"
   sodipodi:rx="15.205"
   sodipodi:ry="15.205"
   style="fill:#57c6e9"
   d="m 37.115,21.691 c 0,8.39749 -6.807511,15.205 -15.205,15.205 -8.39749,0 -15.2050001,-6.80751 -15.2050001,-15.205 0,-8.39749 6.8075101,-15.2049999 15.2050001,-15.2049999 8.397489,0 15.205,6.8075099 15.205,15.2049999 z" />
		<path
   d="m 13.557,8.956 c -4.123,2.711 -6.852,7.387 -6.852,12.702 0,8.396 6.807,15.205 15.205,15.205 0.148,0 0.297,-0.02 0.445,-0.024 C 7.44,29.446 11.124,14.095 13.557,8.956 z"
   id="path3405"
   inkscape:connector-curvature="0"
   style="fill:#27a8e0" />
	</g>
</g>
</svg>