<?xml version="1.0" encoding="utf-8"?>
<!-- Generator: Adobe Illustrator 16.0.0, SVG Export Plug-In . SVG Version: 6.00 Build 0)  -->
<!DOCTYPE svg PUBLIC "-//W3C//DTD SVG 1.1//EN" "http://www.w3.org/Graphics/SVG/1.1/DTD/svg11.dtd">
<svg version="1.1"
	 id="Layer_1" xmlns:dc="http://purl.org/dc/elements/1.1/" xmlns:cc="http://creativecommons.org/ns#" xmlns:rdf="http://www.w3.org/1999/02/22-rdf-syntax-ns#" xmlns:svg="http://www.w3.org/2000/svg" xmlns:sodipodi="http://sodipodi.sourceforge.net/DTD/sodipodi-0.dtd" xmlns:inkscape="http://www.inkscape.org/namespaces/inkscape" inkscape:export-ydpi="90" inkscape:export-xdpi="90" inkscape:export-filename="D:\TESTINGEMOJI\SVGTEST\1F528.png" sodipodi:docname="1F528.svg" inkscape:version="0.48.5 r10040"
	 xmlns="http://www.w3.org/2000/svg" xmlns:xlink="http://www.w3.org/1999/xlink" x="0px" y="0px" width="64px" height="64px"
	 viewBox="0 0 64 64" enable-background="new 0 0 64 64" xml:space="preserve">
<sodipodi:namedview  inkscape:cy="32" inkscape:cx="32" inkscape:zoom="3.6875" showgrid="false" guidetolerance="10" gridtolerance="10" objecttolerance="10" bordercolor="#666666" pagecolor="#ffffff" borderopacity="1" id="namedview3424" inkscape:window-height="480" inkscape:window-width="640" inkscape:pageshadow="2" inkscape:pageopacity="0" inkscape:current-layer="Layer_1" inkscape:window-maximized="0" inkscape:window-y="205" inkscape:window-x="362">
	</sodipodi:namedview>
<path fill-rule="evenodd" clip-rule="evenodd" fill="#FBB042" d="M62.132,53.608c1.678,1.604,1.733,4.262,0.132,5.938l-0.268,0.276
	c-1.601,1.675-4.26,1.733-5.934,0.128L23.417,28.722c-1.674-1.603-1.733-4.261-0.132-5.935l0.268-0.278
	c1.601-1.676,4.262-1.734,5.933-0.132L62.132,53.608z"/>
<path fill-rule="evenodd" clip-rule="evenodd" fill="#E8A042" d="M23.069,23.528c-1.564,2.148-0.937,3.964,0.555,5.391
	l32.613,31.202c1.489,1.428,3.332,1.972,5.409,0.317L23.069,23.528z"/>
<path fill-rule="evenodd" clip-rule="evenodd" fill="#FBB042" d="M21.228,14.475c0.208,0.197-1.342,1.701-2.943,3.376l-0.248,0.255
	c-1.599,1.672-2.674,2.911-2.879,2.714l-4.04-3.865c-0.208-0.2,0.877-1.427,2.479-3.1l0.242-0.254
	c1.601-1.675,3.14-3.19,3.348-2.991L21.228,14.475z"/>
<path fill-rule="evenodd" clip-rule="evenodd" fill="#50A9C9" d="M30.56,24.077c-1.659,1.732-3.123,2.412-3.971,1.602l-6.615-6.329
	c-0.848-0.812-0.592-2.648,1.066-4.381l9.542-9.975c1.656-1.73,3.673-2.367,4.522-1.556L31.75,15.721l5.038-0.986
	c0.847,0.811,0.131,2.695-1.522,4.424L30.56,24.077z"/>
<path fill-rule="evenodd" clip-rule="evenodd" fill="#4797AD" d="M25.862,31.522c-1.432,1.501-3.483,2.283-4.392,1.415L12.12,23.99
	c-0.909-0.868-0.382-3.109,1.054-4.609l4.077-4.265c1.436-1.5,3.068-1.512,3.977-0.643l9.35,8.947
	c0.907,0.869,0.805,2.338-0.635,3.839L25.862,31.522z"/>
<path fill-rule="evenodd" clip-rule="evenodd" fill="#50A9C9" d="M19.181,42.322c-1.501,1.567-3.73,1.875-4.972,0.684L1.268,30.624
	c-1.246-1.191-0.722-3.128,0.778-4.695l4.079-4.262c1.5-1.569,3.614-2.387,4.858-1.198l12.941,12.384
	c1.244,1.189,0.835,3.639-0.666,5.209L19.181,42.322z"/>
</svg>
