<?xml version="1.0" encoding="UTF-8" standalone="no"?>
<!-- Generator: Adobe Illustrator 16.0.0, SVG Export Plug-In . SVG Version: 6.00 Build 0)  -->

<svg
   xmlns:dc="http://purl.org/dc/elements/1.1/"
   xmlns:cc="http://creativecommons.org/ns#"
   xmlns:rdf="http://www.w3.org/1999/02/22-rdf-syntax-ns#"
   xmlns:svg="http://www.w3.org/2000/svg"
   xmlns="http://www.w3.org/2000/svg"
   xmlns:sodipodi="http://sodipodi.sourceforge.net/DTD/sodipodi-0.dtd"
   xmlns:inkscape="http://www.inkscape.org/namespaces/inkscape"
   version="1.1"
   id="Layer_1"
   x="0px"
   y="0px"
   width="64px"
   height="64px"
   viewBox="0 0 64 64"
   enable-background="new 0 0 64 64"
   xml:space="preserve"
   inkscape:version="0.48.5 r10040"
   sodipodi:docname="1F551.svg"
   inkscape:export-filename="D:\TESTINGEMOJI\SVGTEST\1F551.png"
   inkscape:export-xdpi="90"
   inkscape:export-ydpi="90"><metadata
   id="metadata3894"><rdf:RDF><cc:Work
       rdf:about=""><dc:format>image/svg+xml</dc:format><dc:type
         rdf:resource="http://purl.org/dc/dcmitype/StillImage" /><dc:title></dc:title></cc:Work></rdf:RDF></metadata><defs
   id="defs3892" /><sodipodi:namedview
   pagecolor="#ffffff"
   bordercolor="#666666"
   borderopacity="1"
   objecttolerance="10"
   gridtolerance="10"
   guidetolerance="10"
   inkscape:pageopacity="0"
   inkscape:pageshadow="2"
   inkscape:window-width="640"
   inkscape:window-height="480"
   id="namedview3890"
   showgrid="false"
   inkscape:zoom="3.6875"
   inkscape:cx="32"
   inkscape:cy="32"
   inkscape:window-x="621"
   inkscape:window-y="351"
   inkscape:window-maximized="0"
   inkscape:current-layer="Layer_1" />
<g
   id="g3878">
	<circle
   fill="#E0E7EC"
   cx="31.926"
   cy="31.924"
   r="29.574"
   id="circle3880" />
	<path
   fill="#D1D7DA"
   d="M52.178,47.06c-16.334,0-29.574-13.24-29.574-29.574c0-5.43,1.489-10.504,4.043-14.878   C12.898,5.15,2.477,17.181,2.477,31.667C2.477,48,15.717,61.24,32.051,61.24c10.903,0,20.401-5.916,25.53-14.697   C55.827,46.869,54.026,47.06,52.178,47.06z"
   id="path3882" />
	<path
   fill="#98A9B4"
   d="M0,31.926C0,49.529,14.321,63.85,31.924,63.85c17.604,0,31.926-14.32,31.926-31.924   C63.85,14.321,49.527,0,31.924,0C14.321,0,0,14.321,0,31.926z M6.215,31.926c0-14.179,11.534-25.712,25.708-25.712   c14.177,0,25.711,11.534,25.711,25.712c0,14.175-11.534,25.709-25.711,25.709C17.749,57.635,6.215,46.101,6.215,31.926z"
   id="path3884" />
	<path
   fill="#85939C"
   d="M33.799,11.013c0-1.434-0.846-2.596-1.886-2.596l0,0c-1.039,0-1.886,1.162-1.886,2.596v21.036   c0,1.436,0.848,2.6,1.886,2.6l0,0c1.041,0,1.886-1.164,1.886-2.6V11.013z"
   id="path3886" />
	<path
   fill="#788288"
   d="M46.151,25.083c1.162-0.84,1.606-2.206,0.997-3.05l0,0c-0.61-0.84-2.051-0.842-3.21,0l-12.327,8.931   c-1.158,0.84-1.606,2.212-0.994,3.05l0,0c0.609,0.844,2.047,0.846,3.207,0.008L46.151,25.083z"
   id="path3888" />
</g>
</svg>