<?xml version="1.0" encoding="utf-8"?>
<!-- Generator: Adobe Illustrator 16.0.0, SVG Export Plug-In . SVG Version: 6.00 Build 0)  -->
<!DOCTYPE svg PUBLIC "-//W3C//DTD SVG 1.1//EN" "http://www.w3.org/Graphics/SVG/1.1/DTD/svg11.dtd">
<svg version="1.1"
	 id="Layer_1" xmlns:dc="http://purl.org/dc/elements/1.1/" xmlns:cc="http://creativecommons.org/ns#" xmlns:rdf="http://www.w3.org/1999/02/22-rdf-syntax-ns#" xmlns:svg="http://www.w3.org/2000/svg" xmlns:sodipodi="http://sodipodi.sourceforge.net/DTD/sodipodi-0.dtd" xmlns:inkscape="http://www.inkscape.org/namespaces/inkscape" inkscape:export-ydpi="90" inkscape:export-xdpi="90" inkscape:export-filename="D:\TESTINGEMOJI\SVGTEST\1F685.png" sodipodi:docname="1F685.svg" inkscape:version="0.48.5 r10040"
	 xmlns="http://www.w3.org/2000/svg" xmlns:xlink="http://www.w3.org/1999/xlink" x="0px" y="0px" width="64px" height="64px"
	 viewBox="0 0 64 64" enable-background="new 0 0 64 64" xml:space="preserve">
<sodipodi:namedview  inkscape:cy="32" inkscape:cx="32" inkscape:zoom="3.6875" showgrid="false" guidetolerance="10" gridtolerance="10" objecttolerance="10" bordercolor="#666666" pagecolor="#ffffff" borderopacity="1" id="namedview4242" inkscape:window-height="480" inkscape:window-width="640" inkscape:pageshadow="2" inkscape:pageopacity="0" inkscape:current-layer="Layer_1" inkscape:window-maximized="0" inkscape:window-y="217" inkscape:window-x="377">
	</sodipodi:namedview>
<path fill="#BCBEC0" d="M11.348,54.643h52.649V11.549c0,0-0.407,0-1.128,0.004c-0.267,0.016-0.53,0.027-0.793,0.039
	c-0.267,0.008-0.533,0.016-0.802,0.02c-0.393,0.004-0.784,0.012-1.172,0.023c-0.393,0.012-0.781,0.027-1.174,0.043
	c-3.454,0.243-6.99,0.508-10.406,1.154c-0.396,0.09-0.791,0.184-1.178,0.286c-0.394,0.094-0.783,0.195-1.173,0.298
	c-0.423,0.078-0.844,0.167-1.259,0.273c-0.391,0.117-0.782,0.239-1.168,0.368c-0.383,0.129-0.767,0.271-1.144,0.419
	c-3.483,1.729-7.132,3.334-10.325,5.945c-0.325,0.263-0.65,0.528-0.968,0.799c-1.607,1.35-3.169,2.782-4.723,4.215
	c-0.298,0.273-0.599,0.543-0.896,0.81c-1.503,1.319-3.06,2.521-4.81,3.459c-0.348,0.18-0.701,0.349-1.053,0.521
	c-1.771,0.834-3.597,1.569-5.262,2.704c-0.278,0.157-0.552,0.321-0.822,0.493c-0.272,0.173-0.542,0.349-0.802,0.536
	c-0.35,0.216-0.694,0.438-1.035,0.674c-2.388,1.624-4.576,3.687-6.213,6.454c-0.18,0.336-0.347,0.681-0.495,1.032
	C3.405,46.313,4.096,50.924,11.348,54.643z"/>
<path fill="#D1D2D3" d="M8.254,50.57c0.149-0.351,0.315-0.696,0.495-1.033c1.638-2.765,3.826-4.828,6.212-6.453
	c0.341-0.233,0.688-0.457,1.036-0.672c0.262-0.188,0.53-0.366,0.802-0.536c0.271-0.173,0.542-0.336,0.822-0.493
	c1.665-1.137,3.489-1.871,5.262-2.704c0.354-0.173,0.704-0.34,1.053-0.521c1.75-0.941,3.307-2.141,4.81-3.461
	c0.3-0.264,0.599-0.534,0.896-0.808c1.554-1.433,3.115-2.865,4.722-4.215c0.319-0.271,0.644-0.536,0.969-0.798
	c3.193-2.611,6.841-4.217,10.324-5.945c0.379-0.15,0.762-0.289,1.145-0.419c0.386-0.131,0.778-0.252,1.169-0.368
	c0.416-0.107,0.836-0.195,1.256-0.273c0.392-0.102,0.78-0.204,1.175-0.299c0.389-0.1,0.782-0.196,1.178-0.284
	c3.417-0.646,6.952-0.912,10.406-1.154c0.39-0.018,0.78-0.034,1.174-0.045c0.278-0.008,0.557-0.012,0.838-0.016v-8.522
	c0,0-0.407,0-1.13,0.004c-0.267,0.016-0.529,0.027-0.795,0.039c-0.265,0.008-0.531,0.016-0.8,0.02
	c-0.393,0.004-0.782,0.012-1.172,0.023c-0.393,0.012-0.784,0.027-1.174,0.043c-3.454,0.243-6.99,0.508-10.406,1.154
	c-0.396,0.09-0.789,0.184-1.178,0.286c-0.394,0.094-0.785,0.195-1.173,0.298c-0.423,0.078-0.842,0.167-1.259,0.273
	c-0.392,0.117-0.785,0.239-1.168,0.368s-0.767,0.271-1.144,0.419c-3.481,1.729-7.134,3.334-10.325,5.945
	c-0.325,0.263-0.649,0.528-0.969,0.799c-1.609,1.35-3.168,2.782-4.722,4.215c-0.298,0.273-0.597,0.543-0.898,0.81
	c-1.501,1.319-3.059,2.521-4.808,3.459c-0.348,0.18-0.699,0.349-1.052,0.521c-1.771,0.834-3.597,1.569-5.262,2.704
	c-0.278,0.157-0.552,0.321-0.822,0.493c-0.273,0.173-0.54,0.349-0.802,0.536c-0.348,0.216-0.694,0.438-1.035,0.674
	c-2.388,1.624-4.576,3.687-6.213,6.454c-0.18,0.336-0.347,0.681-0.495,1.032C3.773,45.453,3.93,49.05,7.687,52.252
	C7.828,51.686,8.016,51.124,8.254,50.57z"/>
<path fill="#106C8C" d="M17.091,50.672h46.99V33.823C35.063,32.664,22.302,43.536,17.091,50.672z"/>
<path fill="#7F9A9F" d="M0.744,64.117c12.696,0,25.39,0,38.084,0c8.073,0,16.156,0,24.222,0c0.52,0,0.947-0.055,0.947-0.117
	c0-1.503,0-3.021,0-4.528c0-0.865,0-1.723,0-2.599c0-0.059-0.428-0.099-0.947-0.099c-12.69,0-25.384,0-38.082,0
	c-8.08,0-16.149,0-24.224,0c-0.285,0-0.497,0.005-0.646,0.02l-0.012,0.013c-0.023,0-0.023,0-0.023,0
	c-0.165,0.019-0.267,0.042-0.267,0.066c0,1.511,0,3.025,0,4.531c0,0.873,0,1.734,0,2.596C-0.203,64.063,0.229,64.117,0.744,64.117z"
	/>
<path fill="#85CFEA" d="M37.822,16.758c-1.8,1.186-3.683,1.988-5.268,3.468c-0.333,0.277-0.662,0.556-0.992,0.838
	c-1.649,1.409-3.282,2.86-4.941,4.285c-0.317,0.289-0.634,0.583-0.951,0.869c-0.954,0.869-1.918,1.726-2.912,2.567
	c1.324,0.404,2.763,0.537,4.042,0.896c0.278,0.055,0.556,0.114,0.835,0.184c0.313,0.059,0.621,0.117,0.922,0.172
	c21.713,3.87,20.551-7.874,18.184-14.778c-0.109-0.317-0.22-0.623-0.329-0.913c-0.208-0.203-0.443-0.344-0.698-0.438
	c-0.383-0.082-0.754-0.102-1.121-0.074c-0.368,0.031-0.73,0.109-1.09,0.219c-1.513,0.411-2.951,1.613-4.516,2.054
	C38.597,16.327,38.209,16.542,37.822,16.758z"/>
<path fill="#27AAE1" d="M46.08,13.51c-1.541,0.399-3.072,0.841-4.583,1.374c2.113,6.559,2.754,16.785-14.935,14.762
	C52.436,35.05,48.781,20.073,46.08,13.51z"/>
<path id="path4240_5_" fill="#FBED21" d="M12.941,33.958c-0.178-0.96,6.17-5.925,7.654-4.68c1.017,0.853,1.941,1.37,0.907,2.919
	C20.469,33.752,13.121,34.922,12.941,33.958z"/>
<path fill="#86A7AC" d="M33.393,53.715c-2.56-4.063-5.711-7.762-9.338-10.807c-3.313-2.782-8.031-6.186-12.888-8.136
	c-2.239,1.583-4.285,3.556-5.835,6.172c-0.18,0.336-0.349,0.681-0.495,1.033c-0.01,0.027-0.018,0.054-0.03,0.079
	c-0.141,0.338-0.26,0.679-0.368,1.021c-0.027,0.094-0.059,0.188-0.084,0.282c-0.104,0.367-0.19,0.735-0.247,1.107
	C4.1,44.522,4.096,44.575,4.09,44.63c-0.051,0.357-0.075,0.717-0.075,1.076c0,0.049-0.004,0.096-0.004,0.143
	c0.008,0.395,0.049,0.792,0.122,1.188c0.007,0.045,0.02,0.09,0.027,0.135c0.165,0.814,0.477,1.624,0.965,2.423
	c0.018,0.031,0.041,0.064,0.061,0.097c0.509,0.812,1.043,1.604,1.943,2.377c0.016,0.015-0.1,0.029-0.107,0.042
	c2,0.827,2.477,1.605,3.966,1.605H33.393z"/>
<path fill="#7C989B" d="M-0.203,56.924h64.2V39.696C24.352,38.51,6.916,49.629-0.203,56.924z"/>
<path fill="#546768" d="M2.335,54.381c-0.961,0.813-1.806,1.604-2.538,2.352h64.2v-2.352H2.335z"/>
</svg>
