<?xml version="1.0" encoding="UTF-8" standalone="no"?>
<!-- Generator: Adobe Illustrator 16.0.0, SVG Export Plug-In . SVG Version: 6.00 Build 0)  -->

<svg
   xmlns:dc="http://purl.org/dc/elements/1.1/"
   xmlns:cc="http://creativecommons.org/ns#"
   xmlns:rdf="http://www.w3.org/1999/02/22-rdf-syntax-ns#"
   xmlns:svg="http://www.w3.org/2000/svg"
   xmlns="http://www.w3.org/2000/svg"
   xmlns:sodipodi="http://sodipodi.sourceforge.net/DTD/sodipodi-0.dtd"
   xmlns:inkscape="http://www.inkscape.org/namespaces/inkscape"
   version="1.1"
   id="Layer_1"
   x="0px"
   y="0px"
   width="64px"
   height="64px"
   viewBox="0 0 64 64"
   enable-background="new 0 0 64 64"
   xml:space="preserve"
   inkscape:version="0.48.5 r10040"
   sodipodi:docname="1F684.svg"
   inkscape:export-filename="D:\TESTINGEMOJI\SVGTEST\1F684.png"
   inkscape:export-xdpi="90"
   inkscape:export-ydpi="90"><metadata
   id="metadata4160"><rdf:RDF><cc:Work
       rdf:about=""><dc:format>image/svg+xml</dc:format><dc:type
         rdf:resource="http://purl.org/dc/dcmitype/StillImage" /><dc:title></dc:title></cc:Work></rdf:RDF></metadata><defs
   id="defs4158" /><sodipodi:namedview
   pagecolor="#ffffff"
   bordercolor="#666666"
   borderopacity="1"
   objecttolerance="10"
   gridtolerance="10"
   guidetolerance="10"
   inkscape:pageopacity="0"
   inkscape:pageshadow="2"
   inkscape:window-width="640"
   inkscape:window-height="480"
   id="namedview4156"
   showgrid="false"
   inkscape:zoom="3.6875"
   inkscape:cx="32"
   inkscape:cy="32"
   inkscape:window-x="345"
   inkscape:window-y="174"
   inkscape:window-maximized="0"
   inkscape:current-layer="Layer_1" />
<path
   fill="#BBBCBE"
   d="M63.906,55.711c-30.97,0-54.412,0.624-54.412-8.497c0-9.122,23.441-24.535,54.412-24.535"
   id="path4128" />
<path
   fill="#1181A8"
   d="M13.438,52.288c7.918,3.775,27.034,3.423,50.468,3.423V24.464C56.715,33.375,43.89,49.604,13.438,52.288z"
   id="path4130" />
<path
   fill="#ADB0AF"
   d="M13.438,58.179c7.918,3.778,27.034,3.425,50.468,3.425V30.357C56.715,39.266,43.89,55.496,13.438,58.179z"
   id="path4132" />
<path
   fill="#29ABE2"
   d="M43.389,26.398c-10.603,2.333-19.474,5.934-25.74,9.781C32.638,40.686,45.611,30.197,43.389,26.398z"
   id="path4134" />
<path
   fill="#F0F1F2"
   d="M41.475,38.533c-10.7,1.029-20.305,10.46-30.882,11.7l2.187,3.766c2.747-0.472,5.425-1.123,8.067-1.893  c0.232,0.906,0.992,1.655,2.179,1.415c3.667-0.74,7.347-1.795,11.043-2.863c0.395,0.427,0.952,0.705,1.683,0.618  c5.299-0.636,10.608-0.99,15.927-1.207c-0.302,1.107,0.174,2.37,1.63,2.351c3.349-0.047,7.25-0.027,10.599,0.008v-14.34  C56.602,37.916,48.746,37.833,41.475,38.533z"
   id="path4136" />
<path
   fill="#29ABE2"
   d="M41.475,42.109c-10.219,0.984-17.439,9.208-27.282,11.024v4.184c2.253-0.442,4.466-0.996,6.653-1.634  c0.232,0.906,0.992,1.657,2.179,1.415c3.667-0.74,7.347-1.795,11.043-2.861c0.395,0.425,0.952,0.705,1.683,0.616  c5.299-0.634,10.608-0.99,15.927-1.207c-0.302,1.109,0.174,2.372,1.63,2.353c3.349-0.047,7.25-0.029,10.599,0.008V41.666  C56.602,41.496,48.746,41.41,41.475,42.109z"
   id="path4138" />
<path
   fill="#1181A8"
   d="M41.475,43.944c-10.219,0.984-17.439,9.207-27.282,11.021v4.184c2.253-0.44,4.466-0.994,6.653-1.63  c0.232,0.905,0.992,1.653,2.179,1.416c3.667-0.741,7.347-1.798,11.043-2.864c0.395,0.425,0.952,0.706,1.683,0.618  c5.299-0.636,10.608-0.99,15.927-1.209c-0.302,1.109,0.174,2.373,1.63,2.354c3.349-0.047,7.25-0.029,10.599,0.008V43.5  C56.602,43.33,48.746,43.246,41.475,43.944z"
   id="path4140" />
<polygon
   fill="#29ABE2"
   points="63.846,61.725 5.065,61.725 11.054,51.267 63.846,51.267 "
   id="polygon4142" />
<path
   fill="#29ABE2"
   d="M63.846,55c0,1.941-1.448,4-3.231,4H13.22c-1.784,0-3.232-2.059-3.232-4l0,0c0-1.941,1.448-4,3.232-4h47.395  C62.397,51,63.846,53.059,63.846,55L63.846,55z"
   id="path4144" />
<polygon
   fill="#1181A8"
   points="7.34,57.752 5.065,61.725 63.846,61.725 63.846,57.752 "
   id="polygon4146" />
<path
   fill="#FBED21"
   d="M24.129,43.318c-0.696,0.293-1.579-0.234-1.973-1.176l0,0c-0.394-0.941-0.15-1.941,0.547-2.233l2.519-1.053  c0.698-0.292,1.579,0.233,1.975,1.173l0,0c0.394,0.944,0.15,1.946-0.546,2.236L24.129,43.318z"
   id="path4148" />
<g
   id="g4150">
	<path
   fill="#7F9A9F"
   d="M0.972,63.446c12.65,0,25.303,0,37.951,0c8.045,0,16.097,0,24.136,0c0.521,0,0.941-0.027,0.941-0.055   c0-0.706,0-1.417,0-2.125c0-0.405,0-0.809,0-1.219c0-0.026-0.421-0.046-0.941-0.046c-12.644,0-25.296,0-37.947,0   c-8.053,0-16.094,0-24.14,0c-0.283,0-0.493,0.002-0.645,0.01l-0.012,0.006c-0.023,0-0.023,0-0.023,0   c-0.16,0.008-0.263,0.02-0.263,0.03c0,0.708,0,1.42,0,2.125c0,0.41,0,0.815,0,1.219C0.028,63.419,0.459,63.446,0.972,63.446z"
   id="path4152" />
</g>
<path
   fill="#85CFEA"
   d="M41.588,25.423c-9.482,2.386-17.416,6.069-23.021,10.005C31.973,40.037,43.576,29.308,41.588,25.423z"
   id="path4154" />
</svg>