<?xml version="1.0" encoding="UTF-8" standalone="no"?>
<!-- Generator: Adobe Illustrator 16.0.0, SVG Export Plug-In . SVG Version: 6.00 Build 0)  -->

<svg
   xmlns:dc="http://purl.org/dc/elements/1.1/"
   xmlns:cc="http://creativecommons.org/ns#"
   xmlns:rdf="http://www.w3.org/1999/02/22-rdf-syntax-ns#"
   xmlns:svg="http://www.w3.org/2000/svg"
   xmlns="http://www.w3.org/2000/svg"
   xmlns:sodipodi="http://sodipodi.sourceforge.net/DTD/sodipodi-0.dtd"
   xmlns:inkscape="http://www.inkscape.org/namespaces/inkscape"
   version="1.1"
   id="Layer_1"
   x="0px"
   y="0px"
   width="64px"
   height="64px"
   viewBox="0 0 64 64"
   enable-background="new 0 0 64 64"
   xml:space="preserve"
   inkscape:version="0.48.5 r10040"
   sodipodi:docname="1F6A0.svg"
   inkscape:export-filename="D:\TESTINGEMOJI\SVGTEST\1F6A0.png"
   inkscape:export-xdpi="90"
   inkscape:export-ydpi="90"><metadata
   id="metadata5547"><rdf:RDF><cc:Work
       rdf:about=""><dc:format>image/svg+xml</dc:format><dc:type
         rdf:resource="http://purl.org/dc/dcmitype/StillImage" /><dc:title></dc:title></cc:Work></rdf:RDF></metadata><defs
   id="defs5545" /><sodipodi:namedview
   pagecolor="#ffffff"
   bordercolor="#666666"
   borderopacity="1"
   objecttolerance="10"
   gridtolerance="10"
   guidetolerance="10"
   inkscape:pageopacity="0"
   inkscape:pageshadow="2"
   inkscape:window-width="640"
   inkscape:window-height="480"
   id="namedview5543"
   showgrid="false"
   inkscape:zoom="3.6875"
   inkscape:cx="32"
   inkscape:cy="32"
   inkscape:window-x="428"
   inkscape:window-y="224"
   inkscape:window-maximized="0"
   inkscape:current-layer="Layer_1" />
<g
   id="g5499">
	<path
   fill="#243438"
   d="M64.231,20.634C42.82,13.75,21.408,6.874,0-0.006v3.278c21.408,6.876,42.817,13.755,64.231,20.634V20.634z"
   id="path5501" />
	<path
   fill="#243438"
   d="M31.212,8.039l-7.039,7.042l7.039,7.039l7.04-7.039L31.212,8.039z M31.212,19.329l-4.247-4.249l4.247-4.25   l4.248,4.25L31.212,19.329z"
   id="path5503" />
	<polygon
   fill="#CDCCCB"
   points="61.015,27.521 1.647,27.521 8.12,19.069 54.545,19.069  "
   id="polygon5505" />
	<polygon
   fill="#A7A8AC"
   points="58.73,25.776 4.193,25.776 10.142,20.65 52.778,20.65  "
   id="polygon5507" />
	<g
   id="g5509">
		<polygon
   fill="#CDCCCB"
   points="1.647,51.525 61.015,51.525 54.547,59.976 8.124,59.976   "
   id="polygon5511" />
		<polygon
   fill="#A7A8AC"
   points="3.938,53.271 58.473,53.271 52.524,58.396 9.891,58.396   "
   id="polygon5513" />
	</g>
	<path
   fill="#CDCCCB"
   d="M61.774,24.741c0-0.435-0.364-0.798-0.789-0.798c-19.727,0-39.447,0-59.173,0   c-0.432,0-0.786,0.363-0.786,0.798c0,9.774,0,19.553,0,29.33c0,0.433,0.354,0.79,0.786,0.79c19.727,0,39.447,0,59.173,0   c0.214,0,0.378-0.078,0.496-0.192c0.021-0.012,0.034-0.023,0.034-0.023c0.034-0.035,0.052-0.047,0.062-0.066   c0.113-0.126,0.197-0.286,0.197-0.508C61.774,44.294,61.774,34.516,61.774,24.741z"
   id="path5515" />
	<path
   fill="#DE374B"
   d="M61.774,45.279c0-0.137-0.364-0.255-0.789-0.255c-19.727,0-39.447,0-59.173,0   c-0.429,0-0.786,0.118-0.786,0.255c0,3.113,0,6.223,0,9.335c0,0.138,0.357,0.247,0.786,0.247c19.727,0,39.447,0,59.173,0   c0.214,0,0.378-0.023,0.496-0.059c0.02-0.004,0.032-0.008,0.057-0.015c0,0,0.031-0.009,0.039-0.017   c0.113-0.039,0.197-0.091,0.197-0.157C61.774,51.502,61.774,48.393,61.774,45.279z"
   id="path5517" />
	<rect
   x="11.963"
   y="31.172"
   fill="#243438"
   width="49.452"
   height="13.99"
   id="rect5519" />
	<rect
   x="11.963"
   y="28.792"
   fill="#243438"
   width="49.452"
   height="13.988"
   id="rect5521" />
	<rect
   x="13.133"
   y="30.208"
   fill="#A2C3CB"
   width="44.164"
   height="11.37"
   id="rect5523" />
	<polygon
   fill="#9FD7F1"
   points="28.439,41.578 27.257,41.578 32.724,30.139 33.665,30.208  "
   id="polygon5525" />
	<polygon
   fill="#9FD7F1"
   points="48.216,41.508 47.035,41.508 52.507,30.065 53.445,30.137  "
   id="polygon5527" />
	<rect
   x="20.088"
   y="29.676"
   fill="#243438"
   width="1.769"
   height="12.431"
   id="rect5529" />
	<rect
   x="27.707"
   y="29.573"
   fill="#243438"
   width="1.769"
   height="12.427"
   id="rect5531" />
	<rect
   x="34.927"
   y="29.676"
   fill="#243438"
   width="1.762"
   height="12.431"
   id="rect5533" />
	<rect
   x="41.372"
   y="29.573"
   fill="#243438"
   width="1.766"
   height="12.427"
   id="rect5535" />
	<rect
   x="48.37"
   y="29.676"
   fill="#243438"
   width="1.76"
   height="12.431"
   id="rect5537" />
	<path
   fill="#243438"
   d="M2.677,29.019c0,2.962,0,5.913,0,8.878c0,1.879,0,3.763,0,5.643c0,0.119,0.061,0.221,0.131,0.221   c1.794,0,3.592,0,5.387,0c1.027,0,2.057,0,3.084,0c0.077,0,0.131-0.102,0.131-0.221c0-2.959,0-5.92,0-8.877   c0-1.883,0-3.758,0-5.644c0-0.066-0.012-0.119-0.036-0.155l0,0v-0.006c-0.022-0.033-0.057-0.065-0.095-0.065   c-1.797,0-3.595,0-5.389,0c-1.031,0-2.052,0-3.082,0C2.737,28.792,2.677,28.895,2.677,29.019z"
   id="path5539" />
	<path
   fill="#C5344D"
   d="M61.774,44.44c0-0.026-0.364-0.049-0.789-0.049c-19.725,0-39.447,0-59.169,0   c-0.425,0-0.79,0.022-0.79,0.049c0,0.561,0,1.125,0,1.688c0,0.024,0.365,0.044,0.79,0.044c19.723,0,39.445,0,59.169,0   c0.212,0,0.378,0,0.496-0.013c0.021,0,0.034,0,0.034,0c0.034-0.004,0.052-0.004,0.052-0.004c0.123-0.008,0.207-0.011,0.207-0.027   C61.774,45.565,61.774,45.001,61.774,44.44z"
   id="path5541" />
</g>
</svg>