<?xml version="1.0" encoding="UTF-8" standalone="no"?>
<!-- Generator: Adobe Illustrator 16.0.0, SVG Export Plug-In . SVG Version: 6.00 Build 0)  -->

<svg
   xmlns:dc="http://purl.org/dc/elements/1.1/"
   xmlns:cc="http://creativecommons.org/ns#"
   xmlns:rdf="http://www.w3.org/1999/02/22-rdf-syntax-ns#"
   xmlns:svg="http://www.w3.org/2000/svg"
   xmlns="http://www.w3.org/2000/svg"
   xmlns:sodipodi="http://sodipodi.sourceforge.net/DTD/sodipodi-0.dtd"
   xmlns:inkscape="http://www.inkscape.org/namespaces/inkscape"
   version="1.1"
   id="Layer_1"
   x="0px"
   y="0px"
   width="64px"
   height="64px"
   viewBox="0 0 64 64"
   enable-background="new 0 0 64 64"
   xml:space="preserve"
   inkscape:version="0.48.5 r10040"
   sodipodi:docname="1F6A6.svg"
   inkscape:export-filename="D:\TESTINGEMOJI\SVGTEST\1F6A6.png"
   inkscape:export-xdpi="90"
   inkscape:export-ydpi="90"><metadata
   id="metadata5979"><rdf:RDF><cc:Work
       rdf:about=""><dc:format>image/svg+xml</dc:format><dc:type
         rdf:resource="http://purl.org/dc/dcmitype/StillImage" /><dc:title></dc:title></cc:Work></rdf:RDF></metadata><defs
   id="defs5977" /><sodipodi:namedview
   pagecolor="#ffffff"
   bordercolor="#666666"
   borderopacity="1"
   objecttolerance="10"
   gridtolerance="10"
   guidetolerance="10"
   inkscape:pageopacity="0"
   inkscape:pageshadow="2"
   inkscape:window-width="640"
   inkscape:window-height="480"
   id="namedview5975"
   showgrid="false"
   inkscape:zoom="3.6875"
   inkscape:cx="32"
   inkscape:cy="32"
   inkscape:window-x="496"
   inkscape:window-y="376"
   inkscape:window-maximized="0"
   inkscape:current-layer="Layer_1" />
<g
   id="g5955">
	<path
   fill="#BFC7CB"
   d="M46.557,50.215c0,7.568-6.617,13.706-14.779,13.706l0,0C23.617,63.921,17,57.783,17,50.215V13.704   C17,6.136,23.617,0,31.777,0l0,0c8.162,0,14.779,6.136,14.779,13.704V50.215z"
   id="path5957" />
	<path
   fill="#1F2E35"
   d="M44.428,48.661c0,6.929-5.617,12.546-12.548,12.546l0,0c-6.929,0-12.548-5.617-12.548-12.546V15.232   c0-6.929,5.619-12.548,12.548-12.548l0,0c6.931,0,12.548,5.619,12.548,12.548V48.661z"
   id="path5959" />
	<path
   fill="#152228"
   d="M26.837,48.659V15.232c0-5.624,3.701-10.382,8.795-11.978c-1.184-0.371-2.446-0.571-3.753-0.571   c-6.929,0-12.548,5.619-12.548,12.548v33.427c0,6.931,5.619,12.548,12.548,12.548c1.307,0,2.569-0.2,3.753-0.572   C30.538,59.041,26.837,54.281,26.837,48.659z"
   id="path5961" />
	<circle
   fill="#EC1C24"
   cx="31.879"
   cy="13.644"
   r="8.111"
   id="circle5963" />
	<path
   fill="#C32127"
   d="M31.879,13.644c0-3.002,1.632-5.621,4.057-7.023c-1.192-0.691-2.578-1.089-4.057-1.089   c-4.48,0-8.111,3.633-8.111,8.112c0,4.48,3.631,8.113,8.111,8.113c1.479,0,2.864-0.398,4.057-1.089   C33.511,19.265,31.879,16.646,31.879,13.644z"
   id="path5965" />
	<circle
   fill="#FFDD15"
   cx="31.879"
   cy="31.945"
   r="8.111"
   id="circle5967" />
	<circle
   fill="#4FBA80"
   cx="31.879"
   cy="50.195"
   r="8.111"
   id="circle5969" />
	<path
   fill="#E7C31E"
   d="M31.751,31.945c0-3.002,1.634-5.619,4.06-7.023c-1.195-0.693-2.58-1.087-4.06-1.087   c-4.478,0-8.108,3.631-8.108,8.11s3.631,8.11,8.108,8.11c1.479,0,2.864-0.398,4.06-1.086   C33.385,37.566,31.751,34.945,31.751,31.945z"
   id="path5971" />
	<path
   fill="#43AA6F"
   d="M31.751,50.195c0-3.002,1.634-5.621,4.06-7.023c-1.195-0.689-2.58-1.089-4.06-1.089   c-4.478,0-8.108,3.632-8.108,8.112c0,4.479,3.631,8.111,8.108,8.111c1.479,0,2.864-0.397,4.06-1.09   C33.385,55.816,31.751,53.197,31.751,50.195z"
   id="path5973" />
</g>
</svg>