<?xml version="1.0" encoding="UTF-8" standalone="no"?>
<!-- Generator: Adobe Illustrator 16.0.0, SVG Export Plug-In . SVG Version: 6.00 Build 0)  -->

<svg
   xmlns:dc="http://purl.org/dc/elements/1.1/"
   xmlns:cc="http://creativecommons.org/ns#"
   xmlns:rdf="http://www.w3.org/1999/02/22-rdf-syntax-ns#"
   xmlns:svg="http://www.w3.org/2000/svg"
   xmlns="http://www.w3.org/2000/svg"
   xmlns:sodipodi="http://sodipodi.sourceforge.net/DTD/sodipodi-0.dtd"
   xmlns:inkscape="http://www.inkscape.org/namespaces/inkscape"
   version="1.1"
   id="Layer_1"
   x="0px"
   y="0px"
   width="64px"
   height="64px"
   viewBox="0 0 64 64"
   enable-background="new 0 0 64 64"
   xml:space="preserve"
   inkscape:version="0.48.5 r10040"
   sodipodi:docname="1F6BE.svg"
   inkscape:export-filename="D:\TESTINGEMOJI\SVGTEST\1F6BE.png"
   inkscape:export-xdpi="90"
   inkscape:export-ydpi="90"><metadata
   id="metadata7499"><rdf:RDF><cc:Work
       rdf:about=""><dc:format>image/svg+xml</dc:format><dc:type
         rdf:resource="http://purl.org/dc/dcmitype/StillImage" /><dc:title></dc:title></cc:Work></rdf:RDF></metadata><defs
   id="defs7497" /><sodipodi:namedview
   pagecolor="#ffffff"
   bordercolor="#666666"
   borderopacity="1"
   objecttolerance="10"
   gridtolerance="10"
   guidetolerance="10"
   inkscape:pageopacity="0"
   inkscape:pageshadow="2"
   inkscape:window-width="640"
   inkscape:window-height="480"
   id="namedview7495"
   showgrid="false"
   inkscape:zoom="3.6875"
   inkscape:cx="32"
   inkscape:cy="32"
   inkscape:window-x="424"
   inkscape:window-y="323"
   inkscape:window-maximized="0"
   inkscape:current-layer="Layer_1" />
<g
   id="g7481">
	<g
   id="g7483">
		<path
   fill="#1B75BB"
   d="M63.915,57.025c0,3.809-3.082,6.895-6.891,6.895H6.885C3.083,63.92,0,60.834,0,57.025V6.891    C0,3.086,3.083,0,6.885,0h50.139c3.809,0,6.891,3.086,6.891,6.891V57.025z"
   id="path7485" />
		<path
   fill="#0867A3"
   d="M0,48.669v8.356c0,3.809,3.083,6.895,6.885,6.895h50.139c3.809,0,6.891-3.086,6.891-6.895V6.891    C52.999,46.537,13.765,49.05,0,48.669z"
   id="path7487" />
	</g>
	<g
   id="g7489">
		<path
   fill="#FFFFFF"
   d="M35.262,16.827c-0.229-0.059-0.462-0.059-0.631-0.059c-1.161,0-1.975,0.587-2.292,1.673l-4.245,16.008    c-0.151,0.569-0.31,1.298-0.465,2.085c-0.143-0.795-0.292-1.529-0.443-2.112l-4.008-15.529c-0.329-1.312-1.287-2.06-2.713-2.121    l-0.148-0.911l-0.165,0.911c-2.014,0.047-2.645,1.317-2.841,2.081l-4.009,15.53c-0.155,0.593-0.313,1.304-0.458,2.062    c-0.146-0.773-0.296-1.504-0.454-2.097L8.18,18.455c-0.262-1.054-1.095-1.687-2.226-1.687c-0.189,0-0.381,0-0.608,0.047    c-1.303,0.226-2.079,1.013-2.079,2.103c0,0.216,0.043,0.424,0.096,0.683l6.369,23.186c0.395,1.426,1.446,2.217,2.966,2.238    l0.138,0.781l0.137-0.783c1.81-0.084,2.514-1.232,2.788-2.211l4.01-15.234c0.172-0.664,0.324-1.39,0.47-2.14    c0.144,0.777,0.298,1.533,0.471,2.203l3.838,15.121c0.343,1.402,1.392,2.223,2.888,2.262l0.122,0.715l0.132-0.715    c1.476-0.045,2.498-0.822,2.891-2.199l6.613-23.343c0.039-0.161,0.09-0.361,0.09-0.597C37.285,17.831,36.488,17.037,35.262,16.827    z"
   id="path7491" />
		<path
   fill="#FFFFFF"
   d="M58.889,34.76c-1.429-0.408-2.709,0.188-3.172,1.465c-0.986,3.035-3.031,4.57-6.079,4.57    c-4.609,0-7.59-3.88-7.59-9.879c0-6.118,2.91-9.915,7.59-9.915c3.668,0,4.991,1.983,5.815,3.954c0.4,0.848,1.18,1.335,2.137,1.335    c0.404,0,0.762-0.061,1.063-0.177c0.791-0.263,1.595-1.017,1.595-2.108c0-0.346-0.069-0.679-0.198-0.978    c-1.224-2.992-4.047-6.562-10.545-6.562c-7.434,0-12.428,5.792-12.428,14.415c0,8.799,4.971,14.483,12.663,14.483    c7.013,0,9.754-4.788,10.767-7.659c0.102-0.294,0.144-0.55,0.144-0.826C60.65,35.757,59.745,34.96,58.889,34.76z"
   id="path7493" />
	</g>
</g>
</svg>