<?xml version="1.0" encoding="UTF-8" standalone="no"?>
<!-- Generator: Adobe Illustrator 16.0.0, SVG Export Plug-In . SVG Version: 6.00 Build 0)  -->

<svg
   xmlns:dc="http://purl.org/dc/elements/1.1/"
   xmlns:cc="http://creativecommons.org/ns#"
   xmlns:rdf="http://www.w3.org/1999/02/22-rdf-syntax-ns#"
   xmlns:svg="http://www.w3.org/2000/svg"
   xmlns="http://www.w3.org/2000/svg"
   xmlns:sodipodi="http://sodipodi.sourceforge.net/DTD/sodipodi-0.dtd"
   xmlns:inkscape="http://www.inkscape.org/namespaces/inkscape"
   version="1.1"
   id="Layer_1"
   x="0px"
   y="0px"
   width="64px"
   height="64px"
   viewBox="0 0 64 64"
   enable-background="new 0 0 64 64"
   xml:space="preserve"
   inkscape:version="0.48.5 r10040"
   sodipodi:docname="2198.svg"
   inkscape:export-filename="D:\TESTINGEMOJI\SVGTEST\2198.png"
   inkscape:export-xdpi="90"
   inkscape:export-ydpi="90"><metadata
   id="metadata3783"><rdf:RDF><cc:Work
       rdf:about=""><dc:format>image/svg+xml</dc:format><dc:type
         rdf:resource="http://purl.org/dc/dcmitype/StillImage" /><dc:title></dc:title></cc:Work></rdf:RDF></metadata><defs
   id="defs3781" /><sodipodi:namedview
   pagecolor="#ffffff"
   bordercolor="#666666"
   borderopacity="1"
   objecttolerance="10"
   gridtolerance="10"
   guidetolerance="10"
   inkscape:pageopacity="0"
   inkscape:pageshadow="2"
   inkscape:window-width="640"
   inkscape:window-height="480"
   id="namedview3779"
   showgrid="false"
   inkscape:zoom="3.6875"
   inkscape:cx="32"
   inkscape:cy="32"
   inkscape:window-x="764"
   inkscape:window-y="362"
   inkscape:window-maximized="0"
   inkscape:current-layer="Layer_1" />
<g
   id="g3769">
	<g
   id="g3771">
		<path
   fill="#1B75BB"
   d="M64.041,57.137c0,3.816-3.088,6.908-6.902,6.908H6.9c-3.81,0-6.9-3.092-6.9-6.908V6.904    C0,3.092,3.09,0,6.9,0h50.238c3.814,0,6.902,3.092,6.902,6.904V57.137z"
   id="path3773" />
		<path
   fill="#0867A3"
   d="M0,48.765v8.372c0,3.816,3.09,6.908,6.9,6.908h50.238c3.814,0,6.902-3.092,6.902-6.908V6.904    C53.105,46.628,13.793,49.146,0,48.765z"
   id="path3775" />
	</g>
	<path
   fill="#FFFFFF"
   d="M47.972,23.113l2.205,24.353l-24.339-1.267c-1.715-1.932-1.975-4.567-0.521-6.082l2.467-2.569L15.715,25.97   c-2.028-1.947-2.099-5.173-0.152-7.208l4.58-4.768c1.95-2.03,5.175-2.097,7.208-0.15l12.064,11.579l2.463-2.573   C43.331,21.339,45.971,21.485,47.972,23.113L47.972,23.113z"
   id="path3777" />
</g>
</svg>