<?xml version="1.0" encoding="UTF-8" standalone="no"?>
<!-- Generator: Adobe Illustrator 16.0.0, SVG Export Plug-In . SVG Version: 6.00 Build 0)  -->

<svg
   xmlns:dc="http://purl.org/dc/elements/1.1/"
   xmlns:cc="http://creativecommons.org/ns#"
   xmlns:rdf="http://www.w3.org/1999/02/22-rdf-syntax-ns#"
   xmlns:svg="http://www.w3.org/2000/svg"
   xmlns="http://www.w3.org/2000/svg"
   xmlns:sodipodi="http://sodipodi.sourceforge.net/DTD/sodipodi-0.dtd"
   xmlns:inkscape="http://www.inkscape.org/namespaces/inkscape"
   version="1.1"
   id="Layer_1"
   x="0px"
   y="0px"
   width="64px"
   height="64px"
   viewBox="0 0 64 64"
   enable-background="new 0 0 64 64"
   xml:space="preserve"
   inkscape:version="0.48.5 r10040"
   sodipodi:docname="2B05.svg"
   inkscape:export-filename="D:\TESTINGEMOJI\SVGTEST\2B05.png"
   inkscape:export-xdpi="90"
   inkscape:export-ydpi="90"><metadata
   id="metadata3927"><rdf:RDF><cc:Work
       rdf:about=""><dc:format>image/svg+xml</dc:format><dc:type
         rdf:resource="http://purl.org/dc/dcmitype/StillImage" /><dc:title></dc:title></cc:Work></rdf:RDF></metadata><defs
   id="defs3925" /><sodipodi:namedview
   pagecolor="#ffffff"
   bordercolor="#666666"
   borderopacity="1"
   objecttolerance="10"
   gridtolerance="10"
   guidetolerance="10"
   inkscape:pageopacity="0"
   inkscape:pageshadow="2"
   inkscape:window-width="640"
   inkscape:window-height="480"
   id="namedview3923"
   showgrid="false"
   inkscape:zoom="3.6875"
   inkscape:cx="32"
   inkscape:cy="32"
   inkscape:window-x="622"
   inkscape:window-y="289"
   inkscape:window-maximized="0"
   inkscape:current-layer="Layer_1" />
<g
   id="g3913">
	<g
   id="g3915">
		<path
   fill="#1B75BB"
   d="M63.792,56.913c0,3.802-3.076,6.882-6.878,6.882H6.874C3.078,63.795,0,60.715,0,56.913V6.877    C0,3.08,3.078,0,6.874,0h50.041c3.802,0,6.878,3.08,6.878,6.877V56.913z"
   id="path3917" />
		<path
   fill="#0867A3"
   d="M0,48.574v8.339c0,3.802,3.078,6.882,6.874,6.882h50.041c3.802,0,6.878-3.08,6.878-6.882V6.877    C52.897,46.446,13.739,48.954,0,48.574z"
   id="path3919" />
	</g>
	<path
   fill="#FFFFFF"
   d="M28.04,47.85L9.578,31.958l18.285-15.965c2.563,0.188,4.582,1.897,4.589,3.986l0.018,3.55l16.654-0.09   c2.806-0.012,5.094,2.246,5.11,5.052l0.031,6.583c0.012,2.807-2.246,5.087-5.052,5.103l-16.656,0.087l0.018,3.546   C32.589,45.897,30.602,47.626,28.04,47.85L28.04,47.85z"
   id="path3921" />
</g>
</svg>