<?xml version="1.0" encoding="UTF-8"?><svg xmlns="http://www.w3.org/2000/svg" width="20" height="20" viewBox="0 0 20 20"><title>
		Meta-Wiki logo
	</title><path fill="#fff" d="M5.346 1.15A10 10 0 0 1 9.991 0a9.96 9.96 0 0 1 4.652 1.146 10 10 0 0 1 3.585 3.187l-1.932 1.108a7.8 7.8 0 0 0-2.762-2.375 7.75 7.75 0 0 0-9.835 2.375L1.767 4.333A10 10 0 0 1 5.346 1.15m-.197 4.294A6.7 6.7 0 0 1 7.034 4.04c-.419.41-.786.869-1.093 1.368q-.395.045-.792.036m2.56-1.683-.048.002v.017l.048-.02Zm0 0a7.2 7.2 0 0 1 1.622.118 7 7 0 0 0 .527-.554 6.6 6.6 0 0 0-2.15.436Zm-1.18 1.544q.352-.5.787-.927l.26.603q-.51.21-1.047.324m1.197-1.1L7.724 4.2v.006h.002Zm0 0 .255.594q.468-.24.892-.554a6.6 6.6 0 0 0-1.147-.04m2.127-.207a7 7 0 0 0 .57-.648v.006a6.7 6.7 0 0 1 2.999.922 9.5 9.5 0 0 1-.809 1.144 7.2 7.2 0 0 0-2.76-1.424M3.462 8.711a6.75 6.75 0 0 1 1.317-2.844v.006q.446.03.894 0a7.2 7.2 0 0 0-.809 3.004 10 10 0 0 1-1.402-.166m6.002-4.35.008-.006-.011.006zm0 0a6.5 6.5 0 0 1-1.295.845l1.19 2.768a9.5 9.5 0 0 0 2.964-2.215 6.74 6.74 0 0 0-2.859-1.397Zm-3.252 1.46.002-.004-.01.006.008-.001Zm0 0a6.8 6.8 0 0 0-.914 3.07 9.5 9.5 0 0 0 3.635-.745l-1.19-2.752a6.6 6.6 0 0 1-1.531.428Zm7.577-1.29.005-.01-.01.006zm0 0a10 10 0 0 1-.845 1.187 7.1 7.1 0 0 1 1.839 2.877q.673-.691 1.237-1.476a6.6 6.6 0 0 0-2.231-2.588M3.4 9.156l.001-.007-.01.005.01.002Zm0 0a6.66 6.66 0 0 0 .44 3.398q.956.105 1.919.072a7 7 0 0 1-.304-.62 7 7 0 0 1-.585-2.683 10 10 0 0 1-1.47-.167m9.247-3.095.007-.008-.01.005zm0 0a9.9 9.9 0 0 1-3.11 2.307l1.31 3.032a13.3 13.3 0 0 0 3.588-2.44 7 7 0 0 0-.276-.742 6.6 6.6 0 0 0-1.512-2.157M5.85 11.826a6.7 6.7 0 0 1-.552-2.492 9.9 9.9 0 0 0 3.82-.8l1.312 3.046c-1.331.567-2.746.91-4.188 1.016a6.5 6.5 0 0 1-.392-.77M14.913 9.1q.7-.7 1.294-1.493h.003a6.6 6.6 0 0 1 .337 3.691q-.773.732-1.635 1.354a7.1 7.1 0 0 0 0-3.552Zm-8.365 6.65a6.64 6.64 0 0 1-2.51-2.721q.984.09 1.97.038a7.1 7.1 0 0 0 2.602 2.385q-1.021.216-2.062.299Zm4.467-3.94a13.6 13.6 0 0 0 3.53-2.353 6.7 6.7 0 0 1-.215 3.602q-1.072.71-2.242 1.244zm-1.737 3.484a6.65 6.65 0 0 1-2.76-2.265 13.5 13.5 0 0 0 4.077-1.041l1.074 2.492q-1.164.498-2.39.814Zm5.405-1.938a16 16 0 0 0 1.657-1.269 6.66 6.66 0 0 1-3.393 3.943 7.2 7.2 0 0 0 1.736-2.675Zm-4.906 3.368a6.6 6.6 0 0 1-2.528-.591l.006-.009a17 17 0 0 0 2.001-.357 7.2 7.2 0 0 0 3.081.532 6.6 6.6 0 0 1-2.56.425m2.483-2.006q.916-.416 1.775-.942l.005-.008a6.8 6.8 0 0 1-1.363 1.916zm.005 1.138a6.7 6.7 0 0 1-2.274-.296q.946-.283 1.855-.67zM.715 6.302a10.06 10.06 0 0 0 .704 8.879 10 10 0 0 0 3.172 3.286A10 10 0 0 0 8.886 20v-2.248a7.77 7.77 0 0 1-5.542-3.686 7.83 7.83 0 0 1-.683-6.634zm16.619 1.13 1.951-1.13a10.06 10.06 0 0 1-.704 8.88 10 10 0 0 1-3.173 3.286A10 10 0 0 1 11.112 20v-2.248a7.76 7.76 0 0 0 5.544-3.684 7.82 7.82 0 0 0 .678-6.636"/></svg>
