<svg viewBox="0 0 24 24" xmlns="http://www.w3.org/2000/svg"><path d="M15 4.58146V11.9999C15 13.6568 13.6569 14.9999 12 14.9999C10.3431 14.9999 9 13.6568 9 11.9999C9 10.3431 10.3431 8.99994 12 8.99994C12.3506 8.99994 12.6872 9.0601 13 9.17065V2.04932C18.0533 2.55104 22 6.81459 22 11.9999C22 17.5228 17.5228 21.9999 12 21.9999C6.47715 21.9999 2 17.5228 2 11.9999C2 6.81459 5.94668 2.55104 11 2.04932V4.06184C7.05369 4.55393 4 7.92032 4 11.9999C4 16.4182 7.58172 19.9999 12 19.9999C16.4183 19.9999 20 16.4182 20 11.9999C20 8.64256 17.9318 5.76823 15 4.58146Z"/></svg>