<svg xmlns="http://www.w3.org/2000/svg" height="100" width="100" viewBox="0 0 1000 1000" fill="#fff"><path d="M390 740a60 60 0 1 0 0-120 60 60 0 0 0 0 120zm0 60a120 120 0 1 1 0-240 120 120 0 0 1 0 240zm67.3-386.6A207 207 0 0 0 598 490a20 20 0 1 0 4.8-39.7A167 167 0 0 1 488.3 388a20 20 0 1 0-31 25.3z"/><path d="M432.9 586.2a207 207 0 0 0 4.5-160.2 20 20 0 1 0-37.6 13.8 167 167 0 0 1-3.5 130.2 20 20 0 1 0 36.6 16.2Zm46.7-328.7a133 133 0 0 1 118.3-6.9c40 17 65.7 49.1 75.7 82 5.3 16.6 6.4 27.3 6.4 62.7a20 20 0 1 0 40 0c0-39.1-1.5-53.5-8.2-74.6A171.9 171.9 0 0 0 613 213.6c-53.1-20.7-104.3-17.7-152.6 8.9a20 20 0 0 0 19.2 35Zm0 485.3a133 133 0 0 0 118.3 6.9c40-17 65.7-49 75.7-81.9 5.3-16.7 6.4-27.4 6.4-62.8a20 20 0 1 1 40 0c0 39.1-1.5 53.5-8.2 74.6A171.9 171.9 0 0 1 613 786.7c-53.1 20.7-104.3 17.7-152.6-8.9a20 20 0 1 1 19.2-35Z"/><circle cx="390" cy="320" r="120"/><circle cx="700" cy="500" r="120"/></svg>