<svg xmlns="http://www.w3.org/2000/svg" height="100" width="100" viewBox="0 0 1000 1000" fill="#fff"><path d="M563 340h91a12 12 0 0 0 12-12 11 11 0 0 0-4-9L550 206a13 13 0 0 0-9-4 12 12 0 0 0-12 12v91a36 36 0 0 0 34 35zm76 212a123 123 0 1 0 123 123 123 123 0 0 0-123-123zm21 134-10-1-47 46a12 12 0 0 1-10 5 13 13 0 0 1-10-4 17 17 0 0 1 0-21l47-47a28 28 0 0 1-1-10 39 39 0 0 1 37-41l10 1 1 4-21 21a5 5 0 0 0 0 5l15 15a6 6 0 0 0 6 0l21-21c1-1 4-1 4 1a38 38 0 0 1 1 10 40 40 0 0 1-43 37zM516 566c43-50 113-53 123-53s27-1 26-15v-89a16 16 0 0 0-17-17H528a51 51 0 0 1-51-51V221a16 16 0 0 0-17-17H290a53 53 0 0 0-51 51v411a51 51 0 0 0 51 51h174s17-10 16-24-6-78 36-127zM360 249a37 37 0 1 1-37 37 37 37 0 0 1 37-37zm-57 129a56 56 0 0 1 56-48h2a56 56 0 0 1 56 48 9 9 0 0 1-10 9h-96c-8 0-8-5-8-9zm150 219a16 16 0 0 1-17 17H324a16 16 0 0 1-17-17v-17a16 16 0 0 1 17-17h112a16 16 0 0 1 17 17zm-129-86a16 16 0 0 1-17-17v-17a16 16 0 0 1 17-17h206a16 16 0 0 1 17 17v17a16 16 0 0 1-17 17z"/></svg>