<svg xmlns="http://www.w3.org/2000/svg" viewBox="0 0 512 512" class="ionicon"><path d="M208 208v264a23.73 23.73 0 0 0 24 24h0a23.73 23.73 0 0 0 24-24" fill="none" stroke="currentColor" stroke-linecap="round" stroke-miterlimit="10" stroke-width="32px"/><path d="M256 336v136a23.73 23.73 0 0 0 24 24h0a23.73 23.73 0 0 0 24-24V208" fill="none" stroke="currentColor" stroke-linecap="round" stroke-miterlimit="10" stroke-width="32px"/><path d="M208 192v88a23.72 23.72 0 0 1-24 24h0a23.72 23.72 0 0 1-24-24v-88a48 48 0 0 1 48-48h96a48 48 0 0 1 48 48v88a23.72 23.72 0 0 1-24 24h0a23.72 23.72 0 0 1-24-24v-88" fill="none" stroke="currentColor" stroke-linecap="round" stroke-miterlimit="10" stroke-width="32px"/><circle cx="256" cy="56" r="40" fill="none" stroke="currentColor" stroke-linecap="round" stroke-miterlimit="10" stroke-width="32px"/></svg>