<svg xmlns="http://www.w3.org/2000/svg" viewBox="0 0 64 64" enable-background="new 0 0 64 64"><g fill="#fff"><path d="m3.16 26.591v.983h.579v.983h.58v-.983h.579v-.983h.58v-.984h.58v-.983h.579v-.984h.58v-.983h-.58v-.983h-.578v-.984h-1.74v.984h1.159v.983h-.58v.983h-.579v.983h-.58v-.983h-.544c-.239.824-.446 1.661-.615 2.513v.438h.58"/><path d="m10.116 11.516c-.1.106-.199.213-.298.32h.298v-.32"/><path d="m14.754 7.902h-.58v.983h-.579v.983h-.58v.983h-.579v.983h-.58v-.983h-.58v-.509c-.194.187-.39.373-.579.564v.928h.579v.984h.58v.983h-.58v.983h-.579v.983h-.58v-.983h-.58v-.983h-.58v-.979c-.195.234-.392.467-.58.707v.271h-.205c-.126.165-.252.33-.375.498v.485h-.354c-.077.11-.149.223-.226.334v.649h-.439c-.209.323-.407.652-.604.983h.463v.984h.58v.983h.579v.983h.58v.983h.232.115.232v-.983h.58v-.983h.579v-.983h.58v-.984h.579v-.983h.58v-.983h.58v.983h.579v.983h.58v.984h.579v.983h.58v.983h.58v-1.967h-.58v-.984h.58v-2.95h-.58v.983h-.58v.983h-.579v-.983h-.58v-.983h-.579v-.978h.579v-.984h.58v-.983h.579v.983h.58v.984h.58v-2.951h-.58v-.983h.58v-1.819c-.193.13-.39.257-.58.391v.444zm-5.797 9.836h-.232-.116-.232v-1.968h.232.115.232v1.968z"/><path d="m2.58 35.443v-.984h.58v-.983h.579v-.983h.58v-.394-.196-.394h-.58v-.983h-.579v-.984h-.58v-.983h-.378c-.129 1.129-.202 2.276-.202 3.441 0 1.166.073 2.313.203 3.443h.377"/><path d="m14.754 29.541h-.58v.984h-.579v.984h-.575v.393.198.392h.575v.984h.579v.983h.58v.984h.58v-6.885h-.58z"/><path d="m9.537 12.14c-.197.223-.386.453-.576.681h.576v-.681"/><path d="m9.818 52.16c.099.107.198.215.298.32v-.32h-.298"/><path d="m8.962 51.18c.19.228.378.458.575.68v-.68h-.575"/><path d="m14.754 55.12v-.983h.58v-2.951h-.58v.983h-.58v.983h-.579v-.983h-.58v-.983h-.579v-.983h.579v-.984h.58v-.983h.579v.983h.58v.984h.58v-2.951h-.58v-.983h.58v-1.968h-.58v.984h-.58v.983h-.579v.983h-.58v.983h-.579v.983h-.58v-.983h-.58v-.983h-.579v-.983h-.58v-.983h-.58v-.984h-.58v-.983h-.232-.116-.232v.983h-.58v.984h-.579v.983h-.58v.983h-.463c.197.331.395.661.604.983h.439v.649c.076.111.148.225.226.334h.354v.486c.123.167.249.333.376.498h.204v.271c.188.24.385.474.58.707v-.978h.58v-.984h.579v-.983h.58v.983h.579v.984h.58v.983h-.58v.983h-.579v.929c.189.191.385.378.579.563v-.509h.58v-.983h.58v.983h.579v.984h.58v.983h.579v.983h.58v.443c.19.135.387.262.58.392v-1.818h-.58zm-5.797-6.886h-.232-.116-.232v-1.967h.232.115.232v1.967z"/><path d="m14.754 37.41h-.58v-.983h-.579v-.984h-.575v.984h-.584v.983h-.581v.98h-.58v.99h-.579v.98h-.58v.98h.58v.99h.579v.98h1.745v-.98h-1.165v-.99h.581v-.98h.584v-.98h.575v.98h.579v.98h.58v.99h.58v-1.97h-.58v-.98h.58v-.99h-.58z"/><path d="m14.754 22.656h-.58v.984h-.579v.983h-.575v-.983h-.584v-.984h-.581v-.983h1.165v-.985h-1.745v.985h-.579v.983h-.58v.984h.58v.983h.579v.983h.58v.985h.581v.983h.584v.984h.575v-.984h.579v-.983h.58v-.985h.58v-.983h-.58v-.983h.58v-1.967h-.58z"/><path d="m3.739 39.38h.58v.984h.579v.983h.58v.983h-1.159v.983h1.739v-.983h.579v-.983h.58v-.983h-.58v-.984h-.578v-.983h-.58v-.984h-.58v-.983h-.58v-.983h-.58v.983h-.579v.983h-.58v.438c.169.852.376 1.688.615 2.513h.544v-.984"/><path d="m10.116 26.591h-.579v-.984h-.58v-.983h-.232-.116-.232v.983h-.58v.984h-.579v.983h-.58v.983h-.579v.983h-.58v2.361.196 2.36h.58v.984h.579v.983h.58v.983h.579v.983h.58v.983h.232.115.232v-.983h.58v-.98h.579v-.983h.58v-.983h.579v-.984h.58v-2.36-.196-2.361h-.58v-.983h-.579v-.983h-.58v-.986zm-3.478 5.311v.196.394h-.579v-.394-.196-.394h.579v.394m4.058.197v-.196-.394h.579v.394.196.394h-.579v-.394m-2.319-5.508h.232.115.232v.983h-.231-.116-.232v-.983m.58 10.819h-.232-.116-.232v-.983h.232.115.232v.983zm1.159-6.885h-.579v.983h-.58v.394.196.394h.58v.983h.579v1.968h-.579v-.984h-.58v-.983h-.232-.116-.232v.983h-.58v.984h-.579v-1.968h.579v-.983h.58v-.394-.196-.394h-.58v-.983h-.579v-1.968h.579v.983h.58v.984h.232.115.232v-.984h.58v-.983h.579v1.968z"/></g><g fill="#c8313e"><path d="m7.218 15.12c-.147.216-.298.43-.439.649h.439v-.649"/><path d="m7.797 14.787v-.485c-.118.161-.238.321-.354.485h.354"/><path d="m8.377 13.804v-.271c-.07.089-.136.182-.205.271h.205"/><path d="m6.06 31.902v.198.392h.578v-.392-.198-.393h-.578z"/><path d="m14.754 16.754h.58v.984h-.58z"/><path d="m8.957 12.82v.005l.004-.005z"/><path d="m9.537 13.804v.983h.579v.983h.58v-.983h.579v-.983h.58v-.984h-.58v-.984h-.579v-.928c-.197.198-.389.403-.58.607v.32h-.298c-.093.103-.189.2-.281.304v.681h-.576c-.001.002-.003.003-.004.005v.979h.58"/><path d="m14.754 8.886h.58v.983h-.58z"/><path d="m14.754 11.836h-.58v-.983h-.579v.983h-.575v.984h-.584v.984h.584v.983h.575v.984h.579v-.984h.58v-.983h.58v-.984h-.58z"/><path d="m11.855 10.853v.983h.58v-.983h.579v-.984h.58v-.983h.579v-.984h.58v-.444c-1.103.777-2.153 1.627-3.141 2.542h.016c-.12.111-.234.23-.353.344v.509h.58"/><path d="m8.609 15.771h-.232v1.967h.232.116.232v-1.967h-.232z"/><path d="m9.537 29.541h-.58v.984h-.232-.116-.232v-.984h-.58v-.983h-.579v1.967h.579v.984h.58v.393.198.392h-.58v.984h-.579v1.967h.579v-.984h.58v-.983h.232.116.232v.983h.58v.984h.579v-1.967h-.579v-.984h-.58v-.392-.198-.393h.58v-.984h.579v-1.967h-.579z"/><path d="m14.754 23.64h.58v.983h-.58z"/><path d="m14.754 18.722h-.58v-.983h-.579v-.984h-.58v-.983h-.579v-.983h-.58v.983h-.58v.983h-.579v.984h-.58v.983h-.58v.983h-.58v.983h-.232-.116-.232v-.983h-.58v-.983h-.579v-.983h-.58v-.984h-.463c-.619 1.043-1.185 2.124-1.675 3.245h.004c-.514 1.175-.946 2.393-1.309 3.64h.544v.983h.58v-.983h.579v-.983h.58v-.983h-1.159v-.984h1.739v.984h.579v.983h.58v.983h-.58v.983h-.578v.983h-.58v.984h-.58v.983h-.58v.983h-.58v-.983h-.579v-.983h-.58v-.438c-.157.791-.284 1.593-.378 2.405h.378v.983h.58v.984h.579v.983h.58v.394.196.394h-.58v.983h-.579v.983h-.58v.984h-.377c.093.813.22 1.614.377 2.405v-.436h.58v-.983h.579v-.983h.58v.983h.579v.983h.58v.983h.58v.983h.579v.984h.58v.983h-.58v.983h-.578v.983h-1.74v-.983h1.159v-.983h-.58v-.983h-.579v-.984h-.58v.984h-.544c.364 1.248.795 2.466 1.309 3.64h-.004c.49 1.122 1.056 2.202 1.675 3.246h.463v-.983h.58v-.983h.579v-.984h.58v-.983h.232.115.232v.983h.58v.984h.579v.983h.58v.983h.579v.983h.58v.983h.58v-.983h.579v-.983h.58v-.983h.579v-.983h.58v-.984h.58v-1.967h-.58v-.983h-.58v-.983h-.579v-.984h-.58v.984h-.579v.983h-.58v.983h1.159v.983h-1.739v-.983h-.579v-.983h-.58v-.983h.58v-.984h.579v-.983h.58v-.986h.58v-.983h.579v-.983h.58v.983h.579v.983h.58v.983h.58v-2.95h-.58v-.984h-.58v-.983h-.579v-.983h-.58v-.394-.196-.394h.58v-.983h.579v-.984h.58v-.983h.58v-2.951h-.58v.984h-.58v.983h-.579v.983h-.58v-.983h-.579v-.983h-.58v-.984h-.58v-.983h-.579v-.985h-.58v-.983h.58v-.983h.579v-.984h1.739v.984h-1.159v.983h.58v.983h.579v.983h.58v-.983h.579v-.983h.58v-.983h.58v-1.968h-.58v-.984zm-4.058 8.852v.983h.579v.983h.58v2.361.196 2.36h-.58v.984h-.579v.983h-.58v.983h-.579v.983h-.58v.983h-.232-.116-.232v-.983h-.58v-.98h-.579v-.983h-.58v-.983h-.579v-.984h-.58v-2.36-.196-2.361h.58v-.983h.579v-.983h.58v-.983h.579v-.984h.58v-.983h.232.115.232v.983h.58v.984h.579v.983h.581z"/><path d="m8.725 27.574h.232v-.983h-.232-.116-.232v.983h.232z"/><path d="m7.218 48.23h-.44c.142.22.292.434.439.649v-.649z"/><path d="m7.797 49.21h-.354c.115.164.235.324.354.486v-.486"/><path d="m8.377 50.2h-.204c.068.09.135.182.204.271v-.271"/><path d="m14.754 46.26h.58v.983h-.58z"/><path d="m14.754 49.21h-.58v-.98h-.579v.98h-.575v.99h-.584v.98h.584v.98h.575v.99h.579v-.99h.58v-.98h.58v-.98h-.58z"/><path d="m8.962 51.18l-.005-.01v.01z"/><path d="m9.537 51.18v.68c.092.104.188.202.281.304h.298v.32c.191.205.383.409.58.608v-.929h.579v-.983h.58v-.983h-.58v-.984h-.579v-.983h-.58v.983h-.579v.984h-.58v.978c.002.002.003.004.005.006h.575z"/><path d="m14.754 54.13h.58v.983h-.58z"/><path d="m11.612 54c.987.916 2.038 1.765 3.142 2.542v-.443h-.58v-.983h-.579v-.983h-.58v-.984h-.579v-.983h-.58v.983h-.58v.509c.118.113.232.232.353.344h-.017z"/><path d="m8.609 46.26h-.232v1.97h.232.116.232v-1.97h-.232z"/><path d="m14.754 39.38h.58v.984h-.58z"/><path d="m11.275 32.1v-.198-.393h-.579v.393.198.392h.579z"/><path d="m8.609 36.427h-.232v.983h.232.116.232v-.983h-.232z"/></g><path fill="#83bf4f" d="m15.334 44v12.933c4.768 3.196 10.495 5.067 16.666 5.067 7.874 0 15.03-3.037 20.388-8h-.016c3.01-2.791 5.46-6.184 7.128-10h-.004-44.16"/><path fill="#c94747" d="m59.5 44c1.608-3.676 2.504-7.732 2.504-12s-.896-8.324-2.504-12h.004c-1.668-3.816-4.115-7.209-7.128-10h.016c-5.353-4.963-12.514-8-20.388-8-6.171 0-11.898 1.871-16.666 5.066v36.934h44.16"/></svg>