<svg xmlns="http://www.w3.org/2000/svg" viewBox="0 0 64 64" enable-background="new 0 0 64 64"><circle fill="#0071bc" cx="32" cy="32" r="30"/><path fill="#8c8a8c" d="m37.447 47.896l-1.129-8.348-1.281-11.539c0 0-.051-.757-.104-1.514-.051-.756-.281-.986-.525-1.191l-.142.027c1.696-.708 1.476-2.899 1.476-2.899s.525-.641.436-1.692-1.923-1.167-1.923-1.167c-.013.026-3.948-.051-5.244.014-1.295.063-1.475 1.09-1.475 1.09s.103 1.294.462 3.128c.359 1.833 1.244 1.615 1.244 1.615s.262.016.678.031c-.313.002-.558.007-.691.021-.654.243-.808 1.872-.808 1.872l-1.321 12.204-1.358 9.655c0 0 .205.961 1.462 1.359.18.73 1.191 1.077 1.641 1.141.449.064 1.449-.32 2.025-.372.578-.052 1.526.347 1.795.359.295.013 3.283-.321 3.834-1.475.757-.077 1.025-1.025 1.025-1.025l-.077-1.294"/><g fill="#fff"><path d="m51.3 31.3c.015.015 1.825-1.768-.42-3.563.971-1.825-.203-2.274-.203-2.274s.564-1.478-.971-1.55c.754-1.174-.971-2.478-.971-2.478s.275-1.796-2.447-1.984c.65-2.984-2.348-2.304-2.348-2.304s.551-2.491-3.26-2.144c-.84-2.086-2.636-1.174-2.636-1.174s-1.116-1.535-2.419-.681c-.986-1.217-2.264-.253-2.621-.113-.987-.239-2.515-1.424-3.232-.19-.564-.232-1.694.507-1.694.507s-1.782-1.203-2.984 1.145c-2.361-.928-2.897.999-2.897.999s-1.738-.318-2.23 1.275c-2.55-.174-2.593 1.607-2.593 1.607s-1.622.058-1.767 2.304c-2.318.927-1.463 3.144-1.463 3.144s-1.623.651-1.333 3.375c-1.796 1.275-.029 3.071-.029 3.071s-1.376.941-.101 2.824c-1.709 1.318.507 2.463.507 2.463s-1 1.116.608 2.087c-.869 2.216.812 2.245 1.058 2.332-.063.387.092.772.507.941 0 0-.145 1.854 1.752 1.681-.304.768.507 1.13.521 1.144.015.015-.043 1.564 1.796 1.188.449 1.507 1.318 1.173 1.362 1.173.043 0-.565 1.812 2.188 1.884 1.173 1.261 2.752 1.261 2.752 1.261s1.058-4.883.811-5.606c-.246-.725-2.115-.232-2.115-.232s-.289-1.55-2.303-1.506c.435-.869-.666-.913-.666-.913s1.115-1.304-1.246-1.564c.334-1.55-.348-1.376-1.116-1.724-.014-.564.362-1.521-.84-1.912 1.057-1.392-.623-2.145-.623-2.145s.884-2.101-.333-2.419c1.26-1.304.333-2.463.333-2.463s.869-1.028.536-1.868c.941-.479.84-1.971.84-1.971s1.043-.261 1.304-1.796c1.999-.349 1.825-1.652 1.825-1.652s1.666-.028 1.999-1.506c1.449.405 2.348-1.188 2.348-1.188s1.057.521 2.244-.681c.666 1.028 2.681-.304 2.681-.304s.854.999 2.39.043c.768 1.231 2.057.594 2.057.594s.393.826 1.29.362c.464 1.753 2.781 1.13 2.796 1.13s.145 1.159 1.318.971c.217 1.55 2 1.188 2 1.188s.23 1.869 1.391 2.072c-.508 1.681.896 2.043.896 2.043s-.42 1.231.869 2.317c-1.217.695.146 3.114.16 3.144.014.028-1.072 1.159-.262 2.709-1.332.449-1.07 2.405-1.07 2.405s-1.275 1.043-1.334 2.303c-2.1.406-1.94 2.26-1.94 2.26s-1.638.131-2.072 1.811c-1.448-.304-2.954 1.289-2.954 1.289l.564 4.304c.058.028 3.01.623 3.621-1.377 2.521.667 2.709-1.825 2.709-1.825s1.982-.109 2.057-1.466c1.898-.928 1.392-1.808 1.392-1.808s1.912-.247 1.941-2.274c1.506-.493 1.158-2.217 1.158-2.217s1.348-.681 1.015-3.347c1.099-1.683-.118-3.146-.103-3.131"/><path d="m31.846 36.16l6.693 4.86-2.557-7.87 6.694-4.86h-8.274l-2.556-7.873-2.556 7.873h-8.27l6.689 4.86-2.559 7.87z"/></g><g fill="#ffce31"><path d="m37.27 46.841c0 0 8.59-2.427 11.186-12.97-1.507 10.822-10.906 14.252-10.906 14.252l-.28-1.282"/><path d="m26.02 46.612c0 0-8.512-2.471-11.08-13.202 1.492 11.02 10.806 14.508 10.806 14.508l.276-1.306"/></g><g fill="#ed4c5c"><path d="m48.791 29.76l-.661.082-.232.881.442.798.66-.084.23-.88z"/><path d="m48.858 29.69l.232-.881-.442-.799-.666.08-.226.886.434.796z"/><path d="m48.582 27.84l.148-.897-.5-.753-.66.138-.15.902.506.751z"/><path d="m48.17 25.898l-.09-.905-.68-.601-.595.303.084.906.681.599z"/><path d="m47.48 24.334l-.09-.905-.679-.602-.601.303.09.91.679.599z"/><path d="m46.41 21.855l-.729-.542-.571.354.16.895.73.538.571-.349z"/><path d="m45.32 20.34l-.782-.469-.538.406.25.873.78.472.533-.412z"/><path d="m44.01 18.927l-.84-.352-.465.475.375.836.836.35.464-.479z"/><path d="m42.546 17.625l-.868-.271-.418.52.441.793.867.272.422-.521z"/><path d="m40.99 16.588l-.9-.125-.33.587.57.705.9.124.331-.584z"/><path d="m39.25 15.666l-.91-.042-.28.611.639.654.908.042.276-.613z"/><path d="m37.543 14.979l-.909.019-.235.628.671.609.914-.018.236-.629z"/><path d="m35.808 14.435l-.906.087-.185.645.721.556.902-.088.187-.645z"/><path d="m33.02 14.336l-.086.664.796.439.881-.226.084-.666-.797-.437z"/><path d="m31.16 14.304l-.03.67.829.369.858-.303.028-.669-.835-.371z"/><path d="m29.428 14.364l-.027.666.829.373.86-.303.03-.667-.83-.373z"/><path d="m28.26 14.304l-.747.514.149.655.899.137.749-.51-.15-.659z"/><path d="m26.421 14.765l-.704.575.203.639.906.061.705-.572-.203-.639z"/><path d="m24.74 15.484l-.63.656.278.61.908-.045.631-.655-.279-.611z"/><path d="m23.07 16.343l-.578.707.329.585.902-.123.572-.706-.328-.585z"/><path d="m21.48 17.418l-.492.762.39.549.883-.22.493-.765-.391-.545z"/><path d="m20.01 18.53l-.423.803.433.511.863-.294.426-.803-.435-.511z"/><path d="m18.719 19.883l-.368.831.471.476.837-.352.371-.828-.473-.482z"/><path d="m17.604 21.387l-.297.859.509.438.805-.424.296-.86-.508-.437z"/><path d="m16.584 22.926l-.203.887.553.377.755-.503.203-.887-.553-.38z"/><path d="m15.735 24.672l-.048.908.61.28.657-.63.046-.907-.608-.283z"/><path d="m15.66 25.811l-.6.685.04.909.629.223.598-.686-.035-.912z"/><path d="m15.803 27.736l-.653-.148-.516.75.139.902.357.08-.24-.02-.411.65.255.699.668.05.412-.649-.256-.7-.101-.007.485-.707z"/></g><g fill="#ffce31"><path d="m47.836 27.512l.664-.209-.514-.732z"/><path d="m48.16 29.322l.674-.162-.454-.764z"/><path d="m47.39 25.86l.589-.37-.679-.578z"/><path d="m46.588 24.21l.582-.367-.68-.578.098.945"/><path d="m44.654 21.19l.516-.455-.76-.461z"/><path d="m43.39 19.879l.503-.478-.783-.432z"/><path d="m40.738 17.64l.332-.61-.88-.171z"/><path d="m42.12 18.675l.429-.545-.831-.317z"/><path d="m39.16 16.77l.27-.64-.891-.08z"/><path d="m37.551 16.07l.17-.674-.889.047z"/><path d="m35.816 15.529l.113-.683-.879.123z"/><path d="m28.771 15.326l-.175-.669-.756.473z"/><path d="m30.512 15.1l-.084-.69-.813.365z"/><path d="m23.796 17.198l-.386-.575-.558.694z"/><path d="m25.371 16.394l-.311-.619-.64.621z"/><path d="m20.864 19.239l-.497-.481-.401.795z"/><path d="m22.264 18.09l-.459-.515-.462.762z"/><path d="m19.622 20.464l-.542-.434-.325.827z"/><path d="m18.508 21.909l-.576-.384-.251.855z"/><path d="m17.576 23.387l-.628-.287-.117.879z"/><path d="m16.758 24.965l-.658-.207v.89l.658-.683"/><path d="m16.1 26.585l-.682-.101.14.88z"/><path d="m15.665 28.39l-.69-.054.198.864z"/><path d="m15.486 29.892l-.689.051.293.653z"/><path d="m45.868 22.744l.532-.451-.761-.473z"/><path d="m48.36 31.16l.67-.163-.45-.767z"/><path d="m36.55 18.19l1.382-1.419-1.094-.641z"/><path d="m27.03 18.526l.515-1.912-1.265-.025z"/><path d="m25.14 19.09l.518-1.91-1.265-.02z"/><path d="m23.05 19.74l.516-1.911-1.265-.025z"/><path d="m21.577 21.21l.513-1.909-1.262-.026z"/><path d="m20.03 22.634l.513-1.911-1.266-.026z"/><path d="m23.59 14.356l-1.012 1.704 1.213.365z"/><path d="m26.689 13.401l-1.01 1.699 1.213.369z"/><path d="m15.14 21.77l1 1.705.91-.887z"/><path d="m13.59 25.731l.724 1.843 1.033-.733z"/><path d="m17.16 30.16l-1.321-1.476-.709 1.047z"/><path d="m16.42 28.24l.554-1.897-1.265-.05z"/><path d="m38.746 19.15l1.384-1.423-1.1-.637z"/><path d="m41.995 20.767l.385-1.943-1.26.06z"/><path d="m50.862 29.973l-1.322-1.473-.712 1.049z"/><path d="m46.527 30.658l.743-1.833 1.03.746z"/><path d="m45.828 18.11l-1.98.01.312 1.228z"/><path d="m43.3 15.995l-1.98.005.307 1.229z"/><path d="m39.521 13.976l-1.033 1.689 1.209.385z"/><path d="m37.06 13.384v1.98l1.23-.304z"/><path d="m30.09 17.635l.656-1.869-1.262-.118z"/><path d="m44.553 23.426l.386-1.942-1.263.059.877 1.883"/></g><g fill="#699635"><path d="m18.633 20.528c.979.979-1.01 3.63.058 5.157-.055-.713.934-5.157-.058-5.157"/><path d="m18.321 20.774c-1.54 1.437-1.081 4.299-1.199 6.227.035-.589 1.697-5.729 1.199-6.227"/><path d="m45.986 21.313c-.934 0-.018 4.839-.273 5.623 1.457-1.662-.776-4.575.273-5.623"/><path d="m47.25 24.08c-1.629 2 1.277 3.642 1.156 5.595.129-2.076-1.542-3.535-1.156-5.595"/><path d="m32.902 14.733c-.536-.43-1.266-.488-1.863.307 1.847-.429 2.378 1.615 1.268 2.801 1.533-.447 1.563-1.765 1.014-2.628 1.133.309 1.533 1.323 1.374 2.613 1.885-1.021-.31-3.984-1.793-3.093"/><path d="m48.867 31.948l-.002-.018.002.016-.002-.016c-.268 1.691-1.9 5.94-.83 7.415-.344-.963.621-2.896.949-3.877-.029.6.043 1.178.43 1.71-.667-1.859 1.091-3.258-.547-5.23m0 0v.02-.02m.001.002c.321.623.345 1.264.291 1.898-.067-.601-.241-1.168-.291-1.898"/><path d="m14.293 32.31c-.004.07-.008.123-.01.157l.01-.157"/><path d="m15.311 39.514c1.204-1.653-.715-5.395-1.013-7.273-.165 2.576 1.253 4.781 1.013 7.273"/><path d="m14.283 32.463c-.004.07-.006.099 0 0"/><path d="m14.438 38.797c1.249-1.718-.971-4.325-.142-6.538l-.003.047.003-.047v-.004-.015.016c-2.167 2.612.994 4.173.142 6.541"/></g></svg>