<svg xmlns="http://www.w3.org/2000/svg" viewBox="0 0 64 64" enable-background="new 0 0 64 64"><path fill="#2a5f9e" d="m12 12h21v21h-21z"/><path fill="#fff" d="m18.912 8.14v5.86h-7.312l14.4 18h6v-7.5z"/><path fill="#2a5f9e" d="M32,2v30H2c0,16.568,13.432,30,30,30s30-13.432,30-30C62,15.432,48.568,2,32,2z"/><path fill="#fff" d="M11,18.913H5.011C3.088,22.87,2,27.307,2,32h12V13.913h-3V18.913z"/><path fill="#ed4c5c" d="m32 27.06l-13-16.06h-6l17 21h2z"/><path fill="#fff" d="M18.912,5.012V11H11v3h21V2C27.306,2,22.868,3.088,18.912,5.012z"/><path fill="#ed4c5c" d="M32,5H18.912C12.857,7.941,7.94,12.858,5,18.913V32h6V11h21V5z"/><g fill="#d8a322"><path d="m34.541 33.85l-.003.006.003-.006"/><path d="m34.536 33.861l-.036.079.036-.079"/></g><path fill="#bfe5e8" d="m48.26 24.03l-3.689 1.248.057-3.804.779-1.259 2.853 3.815m-6.778.502l2.852-2.851-.037 3.572-2.815-.721"/><g fill="#c7e8eb"><path d="m46.37 26l-.01-.001.01.001"/><path d="m48.14 25.947l-.055.015.055-.015"/><path d="m48.24 25.919l-.002.006.002-.006"/><path d="m48.24 25.904l.033-.078-.033.078"/><path d="m48.24 25.919l.006-.016-.006.016"/><path d="m42.573 25.24c.037.647.215.686.215.686h5.449c0 0 .156-.468.207-.709-1.59.425-3.695.702-5.871.023"/></g><path fill="#00a3d6" d="m48.97 26.22c.043-.169.086-.338.127-.507.066-.265-.121-.397-.148-.671-.014-.163.01-.326.047-.485-.205-.064-.422-.088-.637-.084-.195.003-.447-.053-.502.183.283-.028.596-.048.869.049-.602.505-1.695.543-2.434.597-.637.046-1.316.075-1.934.014-.346-.034-.75-.091-1.111-.165-.246-.05-.488-.114-.723-.202-.037-.288.021-.306-.295-.306-.029.319-.154 1.508.404 1.321-.119-.239-.119-.561-.146-.819 1.16.428 3.434.761 6.05-.037-.045.282-.119.553-.221.82.237.008.481.119.649.292"/><path fill="#bc7e22" d="m44.591 20.861c0 0 0-.098-.098-.098-.092 0-.098.098-.098.098l-.064 4.416h.205l.055-4.416"/><g fill="#fff"><path d="m49.646 39.566v-.001z"/><path d="m41.755 39.56h-.002l.002-.001z"/></g><path fill="#1799f8" d="m41.753 41.45h-.002.002"/><path fill="#00a3d6" d="m39.22 27.459c.824-.412 1.684-.223 2.01.536.246.981-.313 1.751-1.049 2.466l.09.123c.4-.502.926-.882 1.785-.904-.111.268-.447 1.506-.547 1.74.145 0 .289.012.436.012.121.056.199.156.244.313-.4.056-.803.021-1.205-.101-.602-.279-1.148-.368-1.494.156-.246-.38-.313-.747-.189-1.116.178-.457.355-.914.547-1.383.378-1.195-.001-1.74-.626-1.842m-.033 3.537c-.068.446.049.882.094 1.328-.469-.101-1.021-.101-1.367.066-.021-.401.168-.591.381-.758-.814-.168-1.439.055-1.697.947.102-.502.189-1.015.156-1.517.681-.535 1.505-.501 2.433-.066"/><g fill="#9ec1ff"><path d="m35.437 28.786c.145.313.4.636.893.948.234.223.479.313.713.268.727-.245 1.105-.613 1.463-.981.223-.278.379-.558.523-.825.012-.067.178-.067.078.1-.211.213-.287.492-.375.827-.135.335-.205.624-.004.937.045-.234.26-.379.461-.468.234-.156.369-.425.447-.714.021-.391.018-.705.273-.827-.111-.356-.346-.547-.703-.569-.289-.367-.691-.49-1.16-.435-.502 0-.971.278-1.494.067.066.367.436.78 1.607.881-.426.391-.916.77-1.82 1.07-.434.044-.692-.089-.902-.279"/><path d="m39.19 31.07c.111 1.038 1.809 1.704 2.701.924-1.473.134-1.361-.245-2.131-.413.189-.189.502-.257 1.238.101.346.089.703.122 1.049.122l.137-.102c-.012-.156-.109-.172-.188-.262l.352-.049c.324.535.648 1.06.971 1.584-.635.814-1.281 1.35-1.918 1.451-.012-.514.178-.882.436-1.205-1.842.703-3.049-.923-2.647-2.151"/><path d="m36.905 31.98c.078.48.512.837 1.148.814-.324.848-1.539.491-1.439-.189.057-.245.145-.457.291-.625"/></g><g fill="#00a3d6"><path d="m50.565 28.14c.252-1.046 1.109-1.141 1.967-.858.326-.146.629-.303 1.215-.156.418.136.826.125 1.246.031-.314.544-.838.837-1.686.764.564.534 1.172.922 1.895.89.115.346-.094.639-.449.89-.607 0-1.174-.335-1.686-.952.094.356.104.712.031 1.067-.324-.271-.67-.533-.848-.806-.209-.23-.221-.618-.178-.963-.073-.922-1.255-.598-1.507.093"/><path d="m46.767 30.02c.43-.272.744-.565.943-.869l.021.011.094.021.156.042.115.031c.199.063.408.157.598.251.104.221.219.43.459.618.283.366.586.722 1.371.597-.197.073-.377.156-.523.282l-.209-.063.115.188-.01.094c.795.324 1.58.597 2.26.146.053.723-.178 1.184-.732 1.351-1.119.22-2.072-.523-2.533-1.518.096.513.012 1.036-.188 1.56-.408-.367-.701-.9-.66-1.863-.115.502-.313.9-.512 1.287-.355-.785-.377-1.507-.063-2.146-.23.105-.46.074-.702-.02"/></g><path fill="#9ec1ff" d="m49.01 29.816c.346.209.723-.01 1.172.126-.25-.188-.355-.377-.355-.555.377-.136.764 0 1.172.313-.355-.544-.555-1.067-.43-1.549.314-.513.713-.816 1.258-.565-.221.304-.23.774-.096 1.225.105.639.439 1.162.617 1.832.389-.23.797-.408 1.215-.523.252-.063.502.021.754.178.314.419.439.849.178 1.298-.24-.492-.68-.544-1.215-.397.273.167.408.408.262.774-.408-.199-.785-.209-1.141-.094 0 0-.402-.823-.973-.879-.283.021-.576.198-.859.324-.293.063-.523.031-.689-.084.072-.293.408-.377.639-.502-.798.063-1.331-.252-1.509-.922m5.705-1.757c.25.178.459.387.533.68.072.346-.074.649-.451.911.262-.042.523-.21.785-.544.168-.199.336-.388.492-.587-.072-.702-.941-.859-1.359-.46"/><g fill="#d8a322"><path d="m41.07 38.37l-.031-.055.031.055"/><path d="m41.04 38.32l.031.055-.031-.055"/><path d="m57.771 34.475l.004.007-.004-.007"/><path d="m50.42 38.35l.033-.055-.033.055"/><path d="m50.46 38.3l-.033.055.033-.055"/><path d="m57.776 34.487l.037.079-.037-.079"/><path d="m45.14 26.949c0-.541.049-.979.109-.979-.863-.815-1.768 0-1.768 0l.365 2.088c0 0-.75-1.282-.365-2.088 0 0-2.068-.548-2.521.997-.143.485.863 1.812.863 1.812 1.596-.919 3.426-.85 3.426-.85v-.001c-.061 0-.109-.439-.109-.979"/><path d="m49.542 26.967c-.453-1.545-2.521-.997-2.521-.997.383.806-.365 2.088-.365 2.088l.365-2.088c0 0-.904-.815-1.768 0 .061 0 .109.438.109.979 0 .54-.049.979-.109.979v.001c0 0 1.83-.069 3.424.85 0-.001 1.01-1.327.865-1.812"/></g><path fill="#fff" d="m45.708 49.957c.998.014 1.979-.229 2.869-.67.447-.221.865-.483 1.266-.778.109-.079.441-.435.559-.438.139-.005.484.286.645.339.656.219 1.531.128 1.709-.668.074-.34-.137-.746-.041-1.08.035-.123.15-.18.193-.284.07-.175.105-.073.004-.273l-.137-.173c-.41-.416-1.049-.404-1.561-.213-.094.035-.26.169-.355.173-.146.005-.375-.198-.537-.259-.326-.122-.639-.188-.984-.127-.646.113-1.027.596-1.529.953-.373.265-1.061.457-.68 1.055.287.45 1.078-.01 1.52-.102-1.814 1.297-4.066 1.199-5.891 0 .195.04.387.078.578.127.182.045.449.256.619.213.553-.139.521-.819.08-1.039-.502-.252-.848-.68-1.328-.963-.73-.433-1.24-.209-1.955.061-.219.082-.174.086-.377-.016-.146-.074-.305-.121-.465-.157-.279-.062-.557-.071-.832.021-.213.071-.518.252-.598.477-.086.239.049.197.152.396.074.144.063.244.061.405-.014.749-.055 1.476.893 1.582.381.043.85-.07 1.17-.284.287-.19.295-.122.553.081.207.162.42.316.637.463 1.116.742 2.41 1.199 3.762 1.178"/><path fill="#007dd4" d="m40.739 34.675l9.941-.019v5.868c-.033 4.076-1.496 5.483-5.02 6.44-3.592-.998-4.893-2.449-4.918-6.457v-5.832"/><path fill="#1799f8" d="m41 34.948l9.455-.017v5.58c-.031 3.877-1.422 5.215-4.777 6.125-3.416-.949-4.652-2.33-4.678-6.141v-5.547"/><g fill="#fff"><path d="m50.44 40.536c-.031 3.877-1.422 5.216-4.777 6.125-3.416-.948-4.652-2.329-4.678-6.141l9.455.016"/><path d="m47.5 40.529l-1.804-3.449-1.892 3.436z"/></g><path fill="#1799f8" d="m43.804 40.516l1.892 3.455 1.804-3.442"/><g fill="#fff"><path d="m49.29 38.621c-.096-.133-.49-.516-.957-.549 0 0 .009-.07-.229-.137-.399-.113-.218-.434-.124-.645.099-.223.063-.545-.396-.813s-.869-.197-1.334-.576c-.073.32.667.586.607.666-.134.178.63.932.036.65-.111-.053-.465-.145-.75-.021.533.119.814.918 1.702 1.057.017.131.1.252.212.262 0 0 .415.107.606.588.1-.299-.226-.617-.272-.684 0 0 .418-.078.51.164.23.611.889 1.248 1.242 1.318-.396-.28-.61-.944-.853-1.28"/><path d="m42.11 38.615c.096-.133.49-.516.957-.549 0 0-.01-.07.229-.137.398-.113.217-.434.123-.645-.098-.223-.063-.545.396-.813.461-.268.869-.197 1.334-.576.073.32-.667.586-.607.666.135.178-.629.932-.035.65.11-.053.465-.145.75-.021-.533.119-.814.918-1.703 1.057-.017.131-.1.252-.211.262 0 0-.416.107-.607.588-.1-.299.227-.617.272-.684 0 0-.417-.078-.509.164-.231.611-.89 1.248-1.242 1.318.396-.28.609-.944.853-1.28"/></g><g fill="#1799f8"><path d="m42.11 42.57c.096.133.49.516.957.549 0 0-.01.07.229.137.398.113.217.434.123.645-.098.223-.063.545.396.813.461.268.869.197 1.334.576.073-.32-.667-.586-.607-.666.135-.178-.629-.932-.035-.65.11.053.465.145.75.021-.533-.119-.814-.918-1.703-1.057-.017-.131-.1-.252-.211-.262 0 0-.416-.107-.607-.588-.1.299.227.617.272.684 0 0-.417.078-.509-.164-.231-.611-.89-1.248-1.242-1.318.396.28.609.944.853 1.28"/><path d="m49.29 42.576c-.096.133-.49.516-.957.549 0 0 .009.07-.229.137-.399.113-.218.434-.124.645.099.223.063.545-.396.813s-.869.197-1.334.576c-.073-.32.667-.586.607-.666-.134-.178.63-.932.036-.65-.111.053-.465.145-.75.021.533-.119.814-.918 1.702-1.057.017-.131.1-.252.212-.262 0 0 .415-.107.606-.588.1.299-.226.617-.272.684 0 0 .418.078.51-.164.23-.611.889-1.248 1.242-1.318-.396.28-.61.944-.853 1.28"/></g><g fill="#d8a322"><path d="m50.45 39.51c-.367-.405.797-2.211.969-1.954.307.343.667.973.947 1.34.396.519-1.01-.983-1.309-.491-.073.119-1.416 2.875.074 3.553-.736-1.946.18-3.898 1.488-1.943.408.611-.276.176-.508.01-1.049-.75-1.023 1.813-.107 2.681-.765-3.01.392-2.148 1.477-1.14.553.515-1.28 2.657-1.33 2.57-.152-.345-.643-.986-.98-.951-.459.046-.988 1.084-.826 1.672.32.735 1.516.738 2.085.551 4.319-1.43 4.79-7.923 3.614-10.09-.151-.281.869-1.105 1.082-.844 2.346 2.87.139 9.258-.154 9.68 3.215-4.64 2.644-10.861-.996-10.634-.729.044-2.056.426-2.987 2.345 0 0 .1-1.534-.886-1.291-.768.189-2.207.879-1.809 1.635.059-.17 1.404-1.085 1.785-1.154.316.004.332 1.663.146 1.205-.121-.296-.475-.788-.816-.545-.314.248-1.941 1.369-1.086 2.24-.076-.812.877-1.605 1.164-1.777.252-.15 1.057 1.538 1.012 1.838-.146.047-1.01-1.313-1.358-1.128-.241.124-1.319 1.932-.691 2.624"/><path d="m40.97 39.51c.368-.404-.796-2.211-.968-1.953-.307.342-.667.973-.948 1.34-.396.518 1.01-.984 1.311-.492.072.119 1.414 2.875-.076 3.553.737-1.945-.18-3.898-1.487-1.943-.409.611.276.176.508.01 1.049-.75 1.023 1.813.108 2.682.764-3.01-.393-2.148-1.477-1.141-.553.516 1.279 2.658 1.33 2.57.152-.344.642-.986.98-.951.458.047.988 1.084.824 1.672-.32.736-1.516.738-2.084.551-4.32-1.43-4.789-7.922-3.615-10.09.152-.281-.869-1.105-1.082-.844-2.346 2.871-.138 9.258.156 9.68-3.216-4.639-2.645-10.861.995-10.633.729.043 2.056.426 2.987 2.344 0 0-.1-1.533.887-1.291.766.189 2.206.879 1.807 1.635-.059-.17-1.402-1.084-1.785-1.154-.316.004-.331 1.664-.145 1.205.12-.295.474-.787.815-.545.314.248 1.94 1.369 1.087 2.24.074-.811-.877-1.605-1.165-1.777-.253-.15-1.057 1.539-1.013 1.838.147.047 1.01-1.313 1.359-1.127.242.123 1.32 1.931.691 2.623"/></g><path fill="#8ca8c2" d="m47.817 33.633c.244.271.324.637.191.994h-.363c.152-.457.059-.894-.59-.951-.969-.085-2.096 1.791-3.789 2.02-.496-.59-.469-1.715.158-2.248-.324-.938-1.01-1.967-1.484-2.413-.313-.051-.672-.076-.902-.063.246-.533.953-1.095 1.523-1.323.092-.135.191-.266.285-.381.057-.733 3.543-.391 4.285.066.001.818.325 3.556.686 4.299"/><path fill="#d8a322" d="m42.479 29.738c1.781-.775 3.889-.775 5.67 0 .143-.24.285-.479.43-.719-2.051-.892-4.479-.892-6.529 0 .142.24.285.479.429.719"/></svg>