<svg xmlns="http://www.w3.org/2000/svg" viewBox="0 0 64 64" enable-background="new 0 0 64 64"><path fill="#83bf4f" d="M42,32h10h10C62,15.431,48.569,2,32,2S2,15.431,2,32s13.431,30,30,30V32H42z"/><path fill="#ff8736" d="M52,54.355C58.136,48.862,62,40.884,62,32H52V54.355z"/><path fill="#3e4347" d="M42,32v28.286c3.727-1.317,7.114-3.348,10-5.931V32H42z"/><path fill="#c94747" d="M42,32H32v30c3.508,0,6.871-0.607,10-1.714V32z"/><g fill="#ff8736" stroke="#2b2b2b" stroke-width=".25" stroke-miterlimit="10"><path d="m57.52 22.273c1.291-.741 1.493-1.396 1.475-1.422.017-.119-.867.514-2.486 1.231 1.982-.962 1.981-1.769 1.894-1.787-.31-.037-1.503.829-3.067 1.511 1.432-.672 2.148-1.515 2.049-1.625-.304.254-3.431 1.479-3.431 1.479l-.033-.012c.371-.231.655-.69.352-.657-.511.353-2.397.732-2.989.833-.372.114-1.542.505-1.763.48-2.037-.139-2.547.139-2.547.139.007 0 .042.046.094.113-.024-.016-.048-.029-.067-.041-.014-.008-.023-.019-.036-.028-.044-.054-.06-.104-.069-.137-.293-.635.096-.841.323-.871.186-.02.241.006.375-.054-.099-.035-.199-.07-.3-.105.237.049.535.045.446.357.232-.081.729-.621-.562-.743-.419-.442-2.146-.695-2.577 1.231.034.027.053.05.162.124-.544-.242-2.02-.429-2.544-.508-1.431-.378-2.917-1.29-3.06-1.178-.19.077.865.979.809.998-.914-.489-1.75-.837-2.528-1.151-.548-.188-1.096-.625-1.156-.542-.201.382.877 1.345 1.078 1.458.201.108 1.779.78 1.756.788-2.377-.989-2.775-1.169-2.896-1.284-.209-.042-.72-.675-.861-.634-.078.069.078 1.069 1.212 1.518.035.023.16.073.316.133-.316-.12-.551-.21-.579-.22-.496-.178-1.104-.803-1.216-.732-.108.064.279.74.78.951.165.066.623.272 1.166.488-.492-.18-1.056-.387-1.432-.531-.368-.187-.541-.42-.598-.37-.083.05.134 1.048 2.74 1.611.008.003.028.002.053 0-.048.007-.087.012-.101.011-.072-.01-.529.049-.537.07-.026.067.166.426 1.511.351.172-.01 1.105-.311 1.027-.246-.039.032-1.271.399-1.364.406-.082.012-.515.054-.531.095-.019.058.321.313 1.043.354.641.031 1.856-.359 1.832-.334-.024.026-1.172.386-1.203.408-.041.021-.461.042-.476.072-.035.073.605.622 2.5.037-.19.235-1.108.396-1.107.438-.004.03.203.215.523.279.16.033.38.026.581-.003.36-.066.74-.197 1.224-.606.057.128-1.206.716-1.146.771.273.233 1.184-.03 1.243-.062.061-.03 1.753-.905 1.746-1.01.027.129-2.183 1.23-2.158 1.275.142.208.896-.011.933-.03.035-.019.963-.478.988-.49.025-.015-1.089.597-.99.691-.041.342 1.275-.107 1.731-.293-.246.119-.711.367-.712.507.3.464 1.258.317 1.405.215.074-.051-.087.345-.035.31.019-.008.209-.215.282-.364-.024.13-.129.335-.189.569-.062.234-.08.499-.164.779-.017.105.428-.15.499-.775-.037.445-.176.973-.125 1.01.037.025.096-.009.157-.066l-.02.056c-.005.076-.09.537-.603.537-.627 0-.645.512-.645.512s-.052.037-.017.285c.104-.168.154-.221.154-.221.07.01.357.089.813-.238-.414.396-.167.544-.167.544s-.099.312.219.374c-.098-.126-.041-.237-.041-.237s.443-.042.415-.537c.018.448.281.559.281.559s0 .249.289.27c-.156-.126-.121-.322-.121-.322s.373-.248.057-.671c.056-.029.106-.075.153-.124-.004.047-.01.092.002.151 0 .264.007.332.202.479-.052-.173-.034-.295-.034-.295s.259.143.512-.248c-.173.385-.052.523-.011.532.039.069-.07.381.275.376-.132-.117-.069-.286-.069-.286s.362-.052.235-.653c.133-.121.186-.006.186-.006s.04.359.355.285c.145.074-.022.269-.022.269s.231.007.3-.174c.068-.18.148-.501-.229-.633-.048-.127.148-.138.148-.138s.242.074.312.185c.068.111.046-.289-.253-.332-.368-.012-.392-.08-.392-.096 0-.006-.009-.129-.021-.293.292.206.608.246.617.232.004-.057-.629-.838-.468-.939.161.03.424.386.638.27-.064-.138-.256-.06-.473-.414-.038-.07-.069-.148-.101-.23.013.013.468.479.907.455.166-.127-.344-.405-.344-.469.179.152.936.746 1.418.531.193-.252-.344-.215-.936-.896.412.252 1.445.808 1.928.594.134-.131-.355-.442-.834-.779.188.099.33.171.394.197.454.19.964-.074.978-.113-.007-.059-.201-.101-.494-.168.573.063 1.019-.041 1.072-.122-.021-.075-.104-.102-.661-.24 1.234.157 2.162-.492 2.162-.492s.292-.092-.207-.085c3.439-.403 4.04-1.875 3.98-1.886-.146-.017-.672.362-1.511.733 1.468-.674 2.231-1.618 2.186-1.681.014-.128-.516.104-1.184.41zm-19.443.765c.261-.054.574-.127.548-.11-.007.005-.294.063-.548.11zm-1.036-1.091c.712.263 1.957.685 1.94.729-.003.01-1.149-.427-1.94-.729zm11.651 2.965c-.129-.137-.224-.255-.207-.313.043.08.129.183.235.291l-.028.022zm6.538-.918c-1 .26-2.238.369-3.673.028 1.426.302 2.655.224 3.673-.028zm.554-.953c-.223.085-.422.152-.576.186.203-.061.393-.123.576-.186zm-9.621 3.386c.005-.079.007-.161-.002-.251.009.074.007.161.002.251zm1.626 1.453c-.021.024-.42-.035-.66.098-.054-.021-.253-.103-.358-.177-.058-.11-.005-.715-.005-.717.095.129.202.249.301.292-.021-.263.003-.251-.082-.511.049-.345.056-.82.067-1.358.517.905.722 1.289.578 1.984.063.023.137-.063.206-.18l.028.469c0 0-.041.063-.075.1zm.341-2.644c.02.018.039.036.06.053l-.011.008c-.015-.02-.034-.04-.049-.061zm7.375-1.319c.06-.018.119-.035.178-.054-.059.019-.119.036-.178.054z"/><path d="m46.17 27.521l.004-.01c.001-.017-.001-.022-.004.01z"/></g></svg>