<svg xmlns="http://www.w3.org/2000/svg" viewBox="0 0 64 64" enable-background="new 0 0 64 64"><g fill="#c5d4d8"><path d="m40.682 47.774c-2.204 4.1-4.342 8.404-6.438 12.95 4.4 1.505 8.756 2.598 13.02 3.276.563-3.949 1.371-7.736 2.392-11.357 1.04-3.684 2.298-7.193 3.737-10.529-1.977-1.749-4.02-3.64-6.133-5.64-2.276 3.597-4.461 7.354-6.583 11.3"/><path d="m62.744 15.94c-2.86 3.188-5.569 6.481-8.152 9.913-2.485 3.302-4.856 6.732-7.136 10.319 2.088 1.998 4.117 3.888 6.073 5.641 1.45-3.325 3.083-6.473 4.858-9.444 1.743-2.919 3.627-5.665 5.612-8.234-.411-2.797-.843-5.549-1.255-8.195"/></g><g fill="#eae7e4"><path d="m0 18.24c16.202 33.567 34.24 42.484 34.24 42.484 2.096-4.546 4.233-8.851 6.438-12.95 2.122-3.946 4.308-7.703 6.583-11.301-8.434-7.998-17.82-17.755-27.455-27.27-3.808 1.754-7.616 3.512-11.44 5.258-2.78 1.27-5.568 2.533-8.37 3.783"/><path d="m40.01 0c-2.796 1.242-5.58 2.499-8.355 3.762-3.818 1.739-7.623 3.489-11.432 5.246 9.551 9.474 18.878 19.17 27.23 27.16 2.279-3.589 4.65-7.02 7.136-10.319 2.583-3.432 5.292-6.725 8.152-9.913l-22.735-15.941"/></g><g fill="#333"><path d="m40.594 47.937c.059-.107.116-.217.175-.325-10.995-9.453-21.286-21.939-32.2-33.17-.098.045-.197.09-.296.136 10.937 11.283 21.243 23.858 32.32 33.36"/><path d="m49.708 52.48c-.031.109-.064.221-.094.331-2.958-1.368-5.967-3-9.02-4.873.059-.107.116-.217.175-.325 3.03 1.862 6.01 3.496 8.94 4.867"/><path d="m54.693 25.717c-.068.09-.135.182-.204.271-6.531-7.05-14.691-14.357-22.952-22.12.099-.045.198-.092.296-.136 8.235 7.718 16.367 14.956 22.86 21.986"/><path d="m58.31 32.503c.052-.089.106-.178.158-.267-1.198-2.152-2.467-4.334-3.773-6.52-.068.09-.135.182-.204.271 1.321 2.189 2.602 4.369 3.819 6.516"/><path d="m53.53 41.813c-.044.1-.088.201-.132.3-10.21-9.03-22.309-21.822-34.773-34.08.143-.063.283-.124.426-.186 12.349 12.202 24.379 24.916 34.479 33.967"/></g><path d="m47.15 22.963c1.342-1.469 2.698-2.922 4.07-4.359-7.088-4.371-15.674-10.1-25.607-15.995l1.224 3.353c6.94 6.078 14.384 11.57 20.313 17"/><path d="m38.679 31.807c1.342-1.471-14.13-17.944-24.07-23.836l1.589 2.891c6.942 6.077 15.852 15.929 22.477 20.945"/><path fill="#55646d" d="m51.814 17.988c-1.575 1.639-3.127 3.295-4.66 4.975-1.636-1.854-3.307-7.295-3.307-7.295l5.471-4.635c0 0 1.125 5.182 2.496 6.955"/><path fill="#333" d="m43.848 15.668l5.471-4.635-17.686-10.875c0 0-4.01 1.631-6.02 2.451 5.798 4.819 18.231 13.06 18.231 13.06"/><path fill="#55646d" d="m29.341 43.05c1.516-1.91 5.369-5.621 5.369-5.621-2.452-2.195-6.365-8.06-6.365-8.06l-8.258 7.89c0-.001 5.235 4.859 9.254 5.796"/><path fill="#333" d="m28.345 29.363l-8.258 7.89c0 0-12.454-14.29-16.656-24.36l6.03-3.289 18.889 19.759"/><path fill="#55646d" d="m43.12 27.468c-1.489 1.696-4.444 4.339-4.444 4.339s-4.712-3.621-6.957-5.818c1.774-1.592 7.347-6.158 7.347-6.158s2.172 5.69 4.054 7.637"/><path fill="#333" d="m31.722 25.988c1.774-1.592 7.347-6.158 7.347-6.158l-18.455-15.16-6 3.305c0 0 11.408 12.04 17.11 18.02"/></svg>