<svg xmlns="http://www.w3.org/2000/svg" viewBox="0 0 64 64" enable-background="new 0 0 64 64"><circle fill="#ed4c5c" cx="52.27" cy="52.44" r="9.564"/><g fill="#e8e8e8"><path transform="matrix(.7071.7071-.7071.7071 52.39-21.605)" d="m42.711 51.754h19.13v1.366h-19.13z"/><path transform="matrix(.7073.7069-.7069.7073 51.57-23.537)" d="m52.84 49.822h2.732v1.366h-2.732z"/><path transform="matrix(.7073.7069-.7069.7073 54.47-24.738)" d="m55.739 52.719h2.732v1.367h-2.732z"/><path transform="matrix(.7071.7071-.7071.7071 48.691-22.337)" d="m49.941 46.923h2.735v1.367h-2.735z"/><path transform="matrix(.7069.7073-.7073.7069 53.21-19.672)" d="m48.975 53.687h2.734v1.365h-2.734z"/><path transform="matrix(.7071.7071-.7071.7071 56.09-20.874)" d="m51.874 56.58h2.732v1.364h-2.732z"/><path d="m55.655 58.715l-.966.967 1.48 1.48c.431-.193.854-.412 1.259-.674l-1.773-1.773"/><path d="m43.548 48.541l1.48 1.48.967-.965-1.773-1.773c-.26.403-.481.826-.674 1.258"/><path transform="matrix(.7071.7071-.7071.7071 50.29-18.472)" d="m46.08 50.788h2.732v1.366h-2.732z"/><path d="m48.893 46.16l.966-.965-1.479-1.48c-.433.191-.854.412-1.259.674l1.772 1.771"/><path d="m61 56.33l-1.479-1.48-.967.967 1.772 1.771c.26-.404.482-.826.674-1.258"/></g><path fill="#dbb471" d="m38.4 15.283l-36.12 36.12c-.95.949.59 4.03 3.439 6.881 2.85 2.85 5.93 4.389 6.88 3.438l36.12-36.12-10.32-10.321"/><path fill="#e8e8e8" d="m47.858 19.582l14.14-14.14c-.211-.805-.612-1.568-1.242-2.197-.629-.631-1.395-1.031-2.196-1.244l-14.14 14.14c-1.426 1.426-3.735 1.424-5.16 0l8.601 8.6c-1.426-1.425-1.426-3.735-.001-5.161"/><path opacity=".5" fill="#fff" d="m12.978 51.779c-.714.713-1.438 2.285-1.364 3.291.108 1.465 1.342 6.295 1.342 6.295l35.762-35.762-4.781-4.783c0 0-23.22 23.22-30.959 30.959"/><g fill="#3e4347"><path opacity=".15" d="m12.222 51.02c-.713.713-2.286 1.438-3.292 1.363-1.464-.107-6.293-1.342-6.293-1.342l35.761-35.762 4.783 4.781c0 .001-23.22 23.22-30.959 30.96"/><path d="m47.858 24.742c-.814-.814-1.147-1.916-1.031-2.977-.83-.441-1.796-.996-2.875-1.717-.721-1.078-1.277-2.045-1.717-2.875-1.062.115-2.164-.217-2.978-1.031 0 0 .796 2.365 2.976 5.625 3.26 2.18 5.625 2.975 5.625 2.975"/><path d="m60.28 7.16l1.719-1.719c-.211-.805-.612-1.568-1.242-2.197-.629-.631-1.395-1.031-2.196-1.244l-1.721 1.721c.804.211 1.567.613 2.197 1.244.63.629 1.03 1.392 1.243 2.195"/></g><g fill="#b2c1c0"><path d="m49.42 18.02l-4.172-2.709-.829.83c-.344.344-.74.602-1.163.779l4.428 2.875c.061-.07.108-.148.176-.215l1.56-1.56"/><path d="m59.966 7.475l-4.17-2.709-1.756 1.757 4.17 2.709z"/><path d="m56.45 10.99l-4.17-2.709-1.76 1.759 4.172 2.706z"/><path d="m52.933 14.506l-4.171-2.707-1.752 1.756 4.16 2.709z"/></g></svg>