<svg xmlns="http://www.w3.org/2000/svg" viewBox="0 0 64 64" enable-background="new 0 0 64 64"><path fill="#7d593e" d="m58.876 47.48h-40.465c0-7.359 5.679-18.712 5.679-18.712-.118-.5.476-1.219 1.105-1.179l12.731-5.917c.266-.374 1.264-.295 1.452 0l12.71 5.917c.57.022 1.164.741 1.106 1.179.001 0 5.682 11.46 5.682 18.712"/><g fill="#64892f"><path d="m35.666 57.58c0 0-6.785 1.248-8.422 0-2.208-1.682 1.295-9.625 3.469-11.346 0 0 4.631-.389 6.119 1.014 0 0-2.306 6.451-1.166 10.332"/><path d="m48.34 58.13c0 0-5.392-.334-6.447-1.6-1.423-1.707 2.517-7.123 4.454-8.03 0 0 3.606.582 4.523 1.939 0 0-2.787 4.498-2.53 7.688"/></g><path fill="#4b662b" d="m5.749 20.06c0 0 8.479-8.494 10.228-1.742 0 0-7.383 8.64-10.228 1.742"/><g fill="#83bf4f"><path d="m24.554 8.6c-5.859-6.414-29.32-.141-20.656 9.9 0 0 3.758-1.999 10.922-1.861-5.635 4.975-9.07 3.42-9.07 3.42 0 3.186 1.497 5.793 7.364 5.793 7.313 0-.606 19.789 5.89 19.789 3.805 0 4.593-15.718 4.878-16.626 1.564-4.978 4.613-16.1.673-20.415"/><path d="m60.896 44.38c1.245 1.586 1.28 5.633.87 6.453-.408.82-.984-1.133-1.791-2.893-1.399-3.051-4.067-3.725-2.227-4.863.854-.525 2.512.491 3.148 1.303"/></g><g fill="#c1875d"><path d="m38.644 28.919l-9.494 3.858-1.723 10.151h22.433l-1.73-10.151z"/><path d="m52.09 27.588c-3.587-3.592-7.823-5.78-12.71-5.917v6.079l9.164 3.518 3.546-3.68"/><path d="m37.927 27.743v-6.072c-4.887.137-9.144 2.325-12.731 5.917l3.549 3.68 9.182-3.525"/><path d="m53.2 28.767l-3.873 4 1.972 10.149.011.008h8.54c-1.061-5.557-3.417-10.465-6.65-14.161"/><path d="m27.969 32.771l-3.879-4c-1.614 1.848-2.969 4.866-5.094 5.55-2.352.758-1 8.611 6.988 8.611.003 0 .009-.008.009-.008l1.976-10.149"/></g><path fill="#ffd93b" d="m17.47 45.1h42.34c0 5.639-4.847 7.822-21.17 7.822s-21.17-2.183-21.17-7.822"/><g fill="#af921b"><path d="m30.08 45.1c.1.781.272 1.514.496 2.221.234.703.522 1.381.898 2.01.36.639.807 1.232 1.303 1.805.499.57 1.06 1.104 1.643 1.668-.79-.246-1.521-.654-2.162-1.174-.648-.516-1.188-1.158-1.607-1.867-.404-.717-.686-1.496-.789-2.297-.105-.797-.071-1.619.218-2.368"/><path d="m47.2 45.1c.29.748.324 1.57.219 2.367-.104.801-.384 1.58-.789 2.297-.418.709-.959 1.352-1.606 1.867-.642.52-1.373.928-2.162 1.174.584-.564 1.144-1.096 1.642-1.668.495-.572.943-1.166 1.304-1.805.376-.631.662-1.309.897-2.01.224-.706.395-1.438.495-2.22"/></g><circle fill="#3e4347" cx="14.739" cy="11.445" r="2.566"/><path fill="#4b662b" d="m4.639 11.954l-.723.341.272-.809.722-.341-.271.809"/><path fill="#83bf4f" d="m29.803 60.889c0 0-8.926 1.906-11.08 0-2.905-2.57 1.705-14.705 4.565-17.332 0 0 6.092-.596 8.05 1.549 0-.001-3.035 9.853-1.535 15.783"/><path fill="#6ea03f" d="m21.537 60.912c-1.136-2.785-2.899-4.67-3.374-4.67-.641 0-1.763 1.703-1.763 4.977 0 1.105 5.697 1.066 5.137-.307"/><path fill="#83bf4f" d="m61.54 51.951c0 0-4.564 7.922-6.893 7.758-3.138-.221-9.79-7.484-7.227-15.822 0 0 5.6-.826 7.899-.395.001 0-1.595 7.104 6.221 8.459"/><path fill="#6ea03f" d="m56.59 58.23c-2.02-1.311-4.066-1.666-4.394-1.414-.44.342-.455 2.107.998 4.359.49.76 4.39-2.299 3.396-2.945"/></svg>