<svg xmlns="http://www.w3.org/2000/svg" viewBox="0 0 64 64" enable-background="new 0 0 64 64"><path fill="#ffbc00" d="M17.486,2C7.469,2,2,8.33,2,16.67v18.508h30.969V16.67c0-12.396-8.383-12.164-8.383-12.164
			S23.955,2,17.486,2z"/><path fill="#ffdd67" d="m6.442 23.643c0 0-2.23-.57-2.23-3.869 0-2.613 1.683-3.063 1.683-3.063 6.02 0 15.838-7.83 15.838-7.83s3.71 6.912 7.289 7.83c0 0 1.736.318 1.736 3.063 0 3.299-2.314 3.869-2.314 3.869-.029 4.979-6.83 10.984-10.957 10.984-4.132 0-11.04-6.01-11.04-10.984"/><path fill="#eba352" d="m20.25 25.916c0 1.086-2.249 1.398-2.764 1.398-.518 0-2.766-.385-2.766-1.469.001.001 5.53-.472 5.53.071"/><path fill="#f5f5f5" d="m13.719 21.58c.65 0 .564-1.68.564-1.68-1.995-4.459-6.44-1.637-6.44-1.637-1.727.771.774 3.209 1.176 3.316 1.881.511 4.7.001 4.7.001"/><path fill="#664e27" d="m13.24 19.539c0 1.174-.95 2.127-2.124 2.127-1.175 0-2.126-.953-2.126-2.127 0-1.172.951-2.125 2.126-2.125 1.174 0 2.124.953 2.124 2.125"/><g fill="#231f20"><circle cx="11.12" cy="19.539" r=".75"/><path d="m14.842 20.543c-.545-.662-1.083-1.301-1.707-1.787-.623-.48-1.324-.789-2.082-.836-.757-.074-1.549.088-2.371.244-.412.08-.837.158-1.279.184-.431.02-.947-.033-1.254-.361.405.158.803.074 1.188-.041.389-.111.774-.271 1.177-.406.796-.283 1.675-.516 2.608-.445.461.045.925.162 1.345.369.416.211.793.486 1.102.814.622.654 1.031 1.443 1.273 2.265"/></g><path fill="#f5f5f5" d="m21.251 21.58c-.651 0-.565-1.68-.565-1.68 1.996-4.459 6.441-1.637 6.441-1.637 1.727.771-.775 3.209-1.176 3.316-1.882.511-4.7.001-4.7.001"/><path fill="#664e27" d="m25.979 19.539c0 1.174-.95 2.127-2.126 2.127-1.173 0-2.124-.953-2.124-2.127 0-1.172.951-2.125 2.124-2.125 1.175 0 2.126.953 2.126 2.125"/><g fill="#231f20"><circle cx="23.854" cy="19.539" r=".75"/><path d="m20.13 20.543c.241-.822.649-1.611 1.273-2.266.307-.328.686-.604 1.102-.814.419-.207.883-.324 1.344-.369.934-.07 1.813.162 2.607.445.402.135.789.295 1.176.406.388.115.785.199 1.189.041-.307.328-.822.381-1.254.361-.441-.025-.867-.104-1.278-.184-.823-.156-1.615-.318-2.371-.244-.757.047-1.458.355-2.082.836-.626.487-1.162 1.126-1.706 1.788"/></g><path fill="#f09985" d="m19.447 28.576c-.4-.1-.986-.053-1.76.207-.069.02-.135.043-.201.064-.069-.021-.137-.045-.205-.064-.772-.26-1.359-.307-1.759-.207-1.198.291-3.02.148-3.02.148 1.32 1.32 1.948 3.121 4.979 3.121 3.03 0 3.655-1.801 4.976-3.121 0 .001-1.816.143-3.01-.148"/><path fill="#d47f6c" d="m19.447 28.576c-.4-.1-.986-.053-1.76.207-.069.02-.135.043-.201.064-.069-.021-.137-.045-.205-.064-.772-.26-1.359-.307-1.759-.207-1.178.285-3.02.148-3.02.148 1.992.359 2.24 1.377 4.979 1.377 2.734 0 2.982-1.018 4.976-1.377.007.001-1.839.137-3.01-.148"/><path fill="#ffbc00" d="m31.895 17.32l1.509 2.756h26.23l1.143-2.943c0-10.553-2.454-15.02-14.13-15.13-11.797-.109-14.746 4.574-14.746 15.318"/><path fill="#ffdd67" d="m59.682 17.14c-.093.609-.218 1.182-.39 1.506-.31.58-.939.91-.939.91s.17-1.178.109-2.826c-.657-9.727-1.227-7.05-11.945-7.05-10.715 0-11.286-2.668-11.945 7.04-.061 1.656.108 2.84.108 2.84s-.632-.33-.939-.91c-.172-.324-.297-.896-.388-1.506-1.013-.266-2.319-.043-2.319 2.877 0 1.816.666 3.307 2.91 3.469.955 7.365 3.804 8.563 9.527 11.178 1.506.688 4.587.688 6.093 0 5.724-2.615 8.57-3.813 9.526-11.178 2.245-.162 2.911-1.652 2.911-3.469 0-2.92-1.307-3.143-2.319-2.877"/><path fill="#574137" d="m52.29 27.734c0 1.887-2.526 3.473-5.647 3.473-3.118 0-5.646-1.586-5.646-3.473 0 0 3 .168 5.647.168 2.643 0 5.646-.168 5.646-.168"/><path fill="#fff" d="m51.811 28c0 .953-2.313 1.707-5.169 1.707-2.856 0-5.169-.754-5.169-1.707 0 0 2.441.189 5.169.189s5.169-.189 5.169-.189"/><path fill="#eba352" d="m49.47 25.17c0 1.1-2.297 1.416-2.826 1.416-.527 0-2.821-.389-2.821-1.486-.001 0 5.647-.475 5.647.07"/><path fill="#f5f5f5" d="m36.08 17.52c-.18.838-.394 2.943 3.58 2.869 4.114-.078 3.951.277 4.152-1.113.174-1.217-1.269-2.568-3.404-3.053-2.135-.487-4.075.095-4.328 1.297"/><ellipse fill="#664e27" cx="40.32" cy="18.14" rx="2.171" ry="2.15"/><path fill="#231f20" d="m41.07 18.14c0 .412-.336.742-.748.742-.418 0-.752-.33-.752-.742s.334-.744.752-.744c.412 0 .748.332.748.744"/><path fill="#664e27" d="m36 18.336c-.578-3.734 7.795-3.535 7.795.441-1.209-3.164-6.983-3.273-7.795-.441"/><path fill="#f5f5f5" d="m56.95 17.52c.178.838.392 2.943-3.582 2.869-4.114-.078-3.952.277-4.152-1.113-.174-1.217 1.269-2.568 3.404-3.053 2.136-.487 4.075.095 4.33 1.297"/><ellipse fill="#664e27" cx="52.713" cy="18.14" rx="2.17" ry="2.15"/><ellipse fill="#231f20" cx="52.713" cy="18.14" rx=".75" ry=".744"/><path fill="#664e27" d="m57.03 18.336c.579-3.734-7.794-3.535-7.794.441 1.209-3.164 6.982-3.273 7.794-.441"/><g fill="#ffbc00"><path d="m40.09 58.11c-.613 6.691-6.852 2.939-7.459 1.867-2.02-3.543 1.237-10.02 3.453-10.02 2.211.001 4.416 3.688 4.01 8.151"/><path d="m52.939 58.11c.614 6.691 6.852 2.939 7.46 1.867 2.02-3.543-1.238-10.02-3.451-10.02-2.215.001-4.421 3.688-4.01 8.151"/><path d="m46.37 32.967c8.33 0 13.464 5.098 13.464 11.432v4.252c0 5-3.627 5-3.626 5h-20.19c.002 0-3.107 0-3.107-5 0-2.355 0-4.252 0-4.252-.001-6.335 5.406-11.432 13.462-11.432"/></g><path fill="#c28fef" d="m46.37 35.1c-7.238 0-12.1 3.703-12.1 8.303 0 0 0 .545 0 1.375 0-4.602 4.857-8.305 12.1-8.305 7.485 0 12.1 3.703 12.1 8.305v-1.375c0-4.6-4.611-8.303-12.1-8.303"/><path fill="#ffdd67" d="m58.781 52.44c0 0 1.616.393 1.616-1.924 0-1.836-2.107-1.715-2.107-1.715v-2.516h-19.239c-.918-1.977.113-4.02.113-4.02-1.855 1.707-1.563 4.02-1.563 4.02h-3.134v2.516c0 0-2.134-.211-2.134 1.715 0 2.316 1.695 1.924 1.695 1.924 0 3.459 3.625 7.248 12.586 7.248 8.491.001 12.167-3.097 12.167-7.248"/><g fill="#ff717f"><path opacity=".5" d="m58.25 53.971c-.173-1.242-1.588-1.99-3.162-1.67-1.577.318-2.717 1.584-2.545 2.824.171 1.242 1.586 1.99 3.162 1.67 1.575-.318 2.715-1.584 2.545-2.824"/><path opacity=".5" d="m37.943 52.3c-1.574-.32-2.99.428-3.16 1.67-.172 1.24.968 2.506 2.542 2.824 1.575.32 2.99-.428 3.16-1.67.173-1.24-.967-2.506-2.542-2.824"/></g><path fill="#574137" d="m42.977 54.941c-.066.076-.102.176-.102.295-.002.818 1.623 1.822 3.629 1.822 2 0 3.629-.998 3.629-1.816 0-.109-.032-.225-.087-.301 0 0-1.569.705-3.542.705-1.972 0-3.527-.705-3.527-.705"/><g fill="#fff"><ellipse cx="52.4" cy="49.852" rx="3.3" ry="3.336"/><ellipse cx="40.607" cy="49.852" rx="3.299" ry="3.336"/></g><circle fill="#664e27" cx="52.4" cy="49.852" r="2.298"/><path fill="#231f20" d="m53.15 49.85c0 .416-.338.752-.75.752-.414 0-.75-.336-.75-.752 0-.412.336-.746.75-.746.413 0 .75.334.75.746"/><circle fill="#664e27" cx="40.606" cy="49.852" r="2.298"/><path fill="#231f20" d="m41.36 49.85c0 .416-.335.752-.75.752s-.75-.336-.75-.752c0-.412.335-.748.75-.748s.75.336.75.748"/><path fill="#ffbc00" d="m17.484 32.967c8.517 0 13.763 4.775 13.763 10.707v3.982c0 4.684-3.706 4.686-3.705 4.684h-20.645c.001.002-3.177 0-3.177-4.684 0-2.205 0-3.982 0-3.982.001-5.932 5.528-10.707 13.764-10.707"/><path fill="#ffdd67" d="m29.948 48.701l-.515-5.65c0-3.611-5.666-.729-11.949-.729s-11.95-2.883-11.95.729l-.513 5.65c-2.737 0-2.737 4.445 0 4.445 0 5.514 7.417 8.852 12.463 8.852 5.05 0 12.464-3.338 12.464-8.852 2.736 0 2.736-4.445 0-4.445"/><g opacity=".5" fill="#ff717f"><path d="m29.22 54.3c-.171-1.242-1.587-1.99-3.162-1.67-1.576.318-2.716 1.584-2.544 2.824.171 1.242 1.586 1.99 3.162 1.67 1.575-.318 2.714-1.584 2.544-2.824"/><path d="m8.91 52.625c-1.576-.32-2.992.428-3.162 1.67-.17 1.24.969 2.506 2.543 2.824 1.576.32 2.99-.428 3.162-1.67.171-1.24-.968-2.506-2.543-2.824"/></g><path fill="#574137" d="m13.957 55.26c-.066.078-.102.176-.102.297-.002.818 1.624 1.822 3.629 1.822 2 0 3.629-.998 3.629-1.816 0-.109-.031-.225-.086-.303 0 0-1.568.707-3.543.707-1.97 0-3.527-.707-3.527-.707"/><circle fill="#fff" cx="23.621" cy="49.21" r="3.629"/><ellipse fill="#664e27" cx="23.622" cy="49.21" rx="2.528" ry="2.5"/><ellipse fill="#231f20" cx="23.621" cy="49.21" rx=".85" ry=".842"/><circle fill="#fff" cx="11.347" cy="49.21" r="3.629"/><ellipse fill="#664e27" cx="11.347" cy="49.21" rx="2.527" ry="2.5"/><ellipse fill="#231f20" cx="11.347" cy="49.21" rx=".851" ry=".842"/></svg>