<svg xmlns="http://www.w3.org/2000/svg" viewBox="0 0 64 64" enable-background="new 0 0 64 64"><path fill="#231f20" d="M32,4c-14.177,0-21.919,9.039-21.919,20.945v30.43H53.92v-30.43c0-17.697-11.867-17.367-11.867-17.367
		S41.16,4,32,4z"/><path fill="#b386e2" d="m41.953 51.05v-7.141h-19.909v7.141c-12.518.386-15.04 2.407-15.04 12.947h49.999c0-10.539-2.533-12.56-15.05-12.947"/><path fill="#8a6859" d="m16.368 34.904c0 0-3.154-.814-3.154-5.527 0-3.731 2.379-4.371 2.379-4.371 8.527 0 22.421-11.18 22.421-11.18s5.252 9.87 10.318 11.18c0 0 2.455.457 2.455 4.371 0 4.713-3.275 5.527-3.275 5.527-.041 7.108-9.668 15.682-15.512 15.682-5.845 0-15.632-8.574-15.632-15.682"/><path fill="#705041" d="m35.914 38.15c0 1.549-3.184 1.998-3.914 1.998s-3.913-.549-3.913-2.098c0 .001 7.827-.673 7.827.1"/><path fill="#7d5442" d="m34.781 41.947c-.57-.143-1.4-.074-2.494.295-.098.029-.193.061-.287.094-.096-.033-.189-.064-.285-.094-1.097-.369-1.925-.438-2.493-.295-1.697.416-4.268.213-4.268.213 1.871 1.883 2.76 4.455 7.05 4.455 4.287 0 5.176-2.572 7.05-4.455 0 0-2.57.203-4.264-.213"/><path fill="#5c3f34" d="m34.781 41.947c-.57-.143-1.4-.074-2.494.295-.098.029-.193.061-.287.094-.096-.033-.189-.064-.285-.094-1.097-.369-1.925-.438-2.493-.295-1.666.408-4.273.211-4.268.213 2.82.51 3.172 1.963 7.05 1.963 3.873 0 4.227-1.453 7.05-1.963.01-.002-2.602.195-4.264-.213"/><g fill="#47352d"><path d="m28.11 29.771c-.035 2.123-1.814 3.791-4.01 3.791-2.195 0-3.975-1.668-4.01-3.791 1.078.885 2.477 1.422 4.01 1.422 1.532 0 2.93-.537 4.01-1.422"/><path d="m43.906 29.771c-.037 2.123-1.818 3.791-4.01 3.791-2.195 0-3.975-1.668-4.01-3.791 1.078.885 2.479 1.422 4.01 1.422 1.53 0 2.928-.537 4.01-1.422"/></g><path fill="#8a6859" d="m18.03 18.2c-.951-2.311-1.211-4.256-1.279-5.797-.023-.52-.217-.945-.541-1.256-.004-.006-.006-.013-.01-.019l-4.363-6.371c-1.221-2.104-8.04-2.234-8.32 2.02l-.375 11.351c-.238 3.629 3.643 6.979 4.211 6.531l-.492 6.094c-.076 1.143.469 2.166 1.73 2.232h.021c1.262.068 2.348-.805 2.424-1.949l1.012-15.1.891.816c0 0 .76 3.274 3.119 3.609 1.632.234 2.326-1.303 1.972-2.159"/><path fill="#705041" d="m8.208 19.952c.078-1.143-.922-1.665-1-.522l-.266 3.95c-1.285-1.22-3.081-3.704-2.914-6.151l.758-11.338c.059-.861.385-1.539.877-2.063-1.164.523-2.049 1.469-2.148 2.944l-.762 11.337c-.309 3.97 3.332 6.843 4.048 7.367l-.358 5.332c-.063.994.658 1.867 1.68 2.119-.449-.406-.719-.979-.676-1.598l.761-11.377"/><path fill="#428bc1" d="M2.726,6.889c0,0,8.08,0.35,9.975-2.203L12.118,0H2.001L2.726,6.889z"/><path fill="#705041" d="m13.884 17.646l-.096-.424c0 0-1.271-1.563-1.619-3.119l-.123 1.828c.355.563.664.939.664.939l.098.426c.213.875.855 2.633 3.066 3.03-1.355-.673-1.814-1.968-1.99-2.681"/><path fill="#8a6859" d="m45.973 18.2c.951-2.311 1.211-4.256 1.279-5.797.023-.52.217-.945.541-1.256.004-.006.006-.013.01-.019l4.363-6.371c1.221-2.104 8.04-2.235 8.32 2.02l.375 11.351c.238 3.629-3.643 6.979-4.211 6.531l.492 6.094c.076 1.143-.469 2.166-1.73 2.232h-.021c-1.262.068-2.348-.805-2.424-1.949l-1.012-15.1-.891.816c0 0-.76 3.274-3.119 3.609-1.632.234-2.326-1.303-1.972-2.159"/><path fill="#705041" d="m55.793 19.952c-.078-1.143.922-1.665 1-.522l.266 3.95c1.285-1.22 3.081-3.704 2.914-6.151l-.758-11.338c-.059-.861-.385-1.539-.877-2.063 1.164.522 2.049 1.469 2.148 2.944l.762 11.337c.309 3.97-3.332 6.843-4.048 7.367l.358 5.332c.063.994-.658 1.867-1.68 2.119.449-.406.719-.979.676-1.598l-.761-11.377"/><path fill="#428bc1" d="M61.275,6.889c0,0-8.08,0.35-9.975-2.203L51.883,0H62L61.275,6.889z"/><path fill="#705041" d="m50.12 17.646l.096-.424c0 0 1.271-1.563 1.619-3.119l.123 1.828c-.355.563-.664.939-.664.939l-.098.426c-.213.875-.855 2.633-3.066 3.03 1.355-.673 1.814-1.968 1.99-2.681"/></svg>