<svg xmlns="http://www.w3.org/2000/svg" viewBox="0 0 64 64" enable-background="new 0 0 64 64"><g fill="#89664c"><path d="m8.829 3.135c0 .684-.551 1.239-1.23 1.239-.679 0-1.23-.555-1.23-1.239v-1.896c0-.684.55-1.239 1.23-1.239.679 0 1.23.555 1.23 1.239v1.896"/><path d="m6.369 60.858c0-.685.551-1.239 1.23-1.239.679 0 1.23.555 1.23 1.239v1.896c0 .684-.551 1.238-1.23 1.238-.679 0-1.23-.555-1.23-1.238v-1.896"/></g><g fill="#a57b5e"><path d="m13.1 5.758c0 1.731-1.394 3.134-3.112 3.134h-4.776c-1.719 0-3.112-1.403-3.112-3.134 0-1.731 1.394-3.134 3.112-3.134h4.776c1.719.001 3.112 1.403 3.112 3.134"/><path d="m2.098 58.23c0-1.73 1.394-3.134 3.112-3.134h4.776c1.719 0 3.112 1.403 3.112 3.134 0 1.731-1.394 3.135-3.112 3.135h-4.776c-1.718 0-3.112-1.403-3.112-3.135"/></g><path fill="#dfcea3" d="m2.388 9.913h10.422v44.17h-10.422z"/><g fill="#89664c"><path d="m15.198 8.528c0 .765-.616 1.385-1.375 1.385h-12.448c-.76 0-1.375-.62-1.375-1.385 0-.765.616-1.385 1.375-1.385h12.449c.758.001 1.374.621 1.374 1.385"/><path d="m0 55.47c0-.764.616-1.385 1.375-1.385h12.449c.759 0 1.375.621 1.375 1.385 0 .766-.616 1.385-1.375 1.385h-12.449c-.76 0-1.375-.62-1.375-1.385"/></g><g fill="#a57b5e"><path d="m8.551 3.135c0 .684-.427 1.239-.952 1.239-.525 0-.952-.555-.952-1.239v-1.896c0-.684.426-1.239.952-1.239.525 0 .952.555.952 1.239v1.896"/><path d="m6.647 60.858c0-.685.426-1.239.952-1.239.525 0 .952.555.952 1.239v1.896c0 .684-.427 1.238-.952 1.238-.525 0-.952-.555-.952-1.238v-1.896"/></g><g fill="#bf9173"><path d="m11.854 5.758c0 1.731-1.078 3.134-2.408 3.134h-3.695c-1.33 0-2.408-1.403-2.408-3.134 0-1.731 1.078-3.134 2.408-3.134h3.695c1.33.001 2.408 1.403 2.408 3.134"/><path d="m3.343 58.23c0-1.73 1.078-3.134 2.408-3.134h3.695c1.33 0 2.408 1.403 2.408 3.134 0 1.731-1.078 3.135-2.408 3.135h-3.695c-1.33 0-2.408-1.403-2.408-3.135"/></g><path fill="#efd8b1" d="m3.567 9.913h8.06v44.17h-8.06z"/><g fill="#a57b5e"><path d="m13.478 8.528c0 .765-.477 1.385-1.063 1.385h-9.63c-.587 0-1.064-.62-1.064-1.385 0-.765.477-1.385 1.064-1.385h9.63c.586.001 1.063.621 1.063 1.385"/><path d="m1.72 55.47c0-.764.477-1.385 1.064-1.385h9.63c.587 0 1.063.621 1.063 1.385 0 .766-.477 1.385-1.063 1.385h-9.63c-.588 0-1.064-.62-1.064-1.385"/></g><g fill="#89664c"><path d="m57.631 3.142c0 .685-.551 1.239-1.23 1.239-.68 0-1.23-.555-1.23-1.239v-1.895c0-.684.551-1.238 1.23-1.238.68 0 1.23.555 1.23 1.238v1.895"/><path d="m55.17 60.865c0-.684.551-1.238 1.23-1.238.68 0 1.23.555 1.23 1.238v1.896c0 .684-.551 1.238-1.23 1.238-.68 0-1.23-.555-1.23-1.238v-1.896"/></g><g fill="#a57b5e"><path d="m61.9 5.766c0 1.73-1.393 3.134-3.111 3.134h-4.776c-1.719 0-3.112-1.403-3.112-3.134 0-1.731 1.394-3.134 3.112-3.134h4.776c1.719 0 3.111 1.403 3.111 3.134"/><path d="m50.9 58.24c0-1.73 1.393-3.135 3.111-3.135h4.776c1.719 0 3.112 1.404 3.112 3.135 0 1.73-1.394 3.135-3.112 3.135h-4.776c-1.718 0-3.111-1.404-3.111-3.135"/></g><path fill="#dfcea3" d="m51.19 9.92h10.422v44.17h-10.422z"/><g fill="#89664c"><path d="m64 8.536c0 .764-.616 1.384-1.375 1.384h-12.449c-.759 0-1.375-.62-1.375-1.385 0-.765.616-1.385 1.375-1.385h12.449c.759.001 1.375.621 1.375 1.386"/><path d="m48.801 55.47c0-.764.616-1.385 1.375-1.385h12.449c.759 0 1.375.621 1.375 1.385 0 .766-.616 1.385-1.375 1.385h-12.449c-.759-.001-1.375-.62-1.375-1.385"/></g><g fill="#a57b5e"><path d="m57.35 3.142c0 .685-.427 1.239-.952 1.239-.525 0-.951-.555-.951-1.239v-1.895c0-.684.426-1.238.951-1.238.525 0 .952.555.952 1.238v1.895"/><path d="m55.45 60.865c0-.684.426-1.238.951-1.238.525 0 .952.555.952 1.238v1.896c0 .684-.427 1.238-.952 1.238-.525 0-.951-.555-.951-1.238v-1.896"/></g><g fill="#bf9173"><path d="m60.66 5.766c0 1.73-1.078 3.134-2.408 3.134h-3.695c-1.329 0-2.407-1.403-2.407-3.134 0-1.731 1.078-3.134 2.407-3.134h3.695c1.33 0 2.408 1.403 2.408 3.134"/><path d="m52.15 58.24c0-1.73 1.078-3.135 2.408-3.135h3.695c1.329 0 2.407 1.404 2.407 3.135 0 1.73-1.078 3.135-2.407 3.135h-3.695c-1.33 0-2.408-1.404-2.408-3.135"/></g><path fill="#efd8b1" d="m52.37 9.92h8.06v44.17h-8.06z"/><g fill="#a57b5e"><path d="m62.28 8.536c0 .765-.477 1.385-1.063 1.385h-9.63c-.588 0-1.064-.62-1.064-1.385 0-.765.477-1.385 1.064-1.385h9.63c.587 0 1.063.62 1.063 1.385"/><path d="m50.52 55.47c0-.764.477-1.385 1.064-1.385h9.63c.587 0 1.063.621 1.063 1.385 0 .766-.477 1.385-1.063 1.385h-9.63c-.587-.001-1.064-.62-1.064-1.385"/></g><path fill="#fff6d7" d="m51.19 54.08c-19.19 4.154-38.38 0-38.38 0v-44.17c19.19 4.082 38.38 0 38.38 0v44.17"/><g fill="none" stroke="#7d8b91" stroke-miterlimit="10"><path d="m17.841 15.871c0 0 4.938 1.5 14.156 1.5 9.844 0 14.594-1.5 14.594-1.5"/><path d="m17.841 20.438c0 0 4.938 1.5 14.156 1.5 9.844 0 14.594-1.5 14.594-1.5"/><path d="m17.841 25c0 0 4.938 1.5 14.156 1.5"/><path d="m24.919 35.32c1.968.188 4.333.32 7.078.32 9.844 0 14.594-1.5 14.594-1.5"/><path d="m17.841 38.705c0 0 4.938 1.5 14.156 1.5 9.844 0 14.594-1.5 14.594-1.5"/><path d="m17.841 43.27c0 0 4.938 1.5 14.156 1.5 9.844 0 14.594-1.5 14.594-1.5"/><path d="m17.841 47.84c0 0 4.938 1.5 14.156 1.5"/></g></svg>