<svg xmlns="http://www.w3.org/2000/svg" viewBox="0 0 64 64" enable-background="new 0 0 64 64"><path fill="#b0bdc6" d="m37.983 64l-8.803-1.217v-48.935h8.803z"/><path fill="#7d8b91" d="m44.33 13.848h-6.347v50.15l6.347-6.082z"/><path fill="#333" d="M46.769,0c-8.17,0-35.633,9.471-35.633,9.471l24.556,40.4L64,32.842V17.03C64,6.281,57.588,0,46.769,0z"/><path fill="#697277" d="M17.231,8.516C6.355,8.516,0,16.013,0,26.76v17.029l35.692,6.082V29.193
			C35.691,18.445,28.106,8.516,17.231,8.516z"/><path fill="#94989b" d="M35.691 49.871 0 43.789 35.691 27.449z"/><path fill="#ed4c5c" d="m62.683 14.172l-26 12.435v3.307l19.263-9.648v9.904l6.736-3.793z"/></svg>