<svg xmlns="http://www.w3.org/2000/svg" viewBox="0 0 64 64" enable-background="new 0 0 64 64"><path transform="matrix(-.7072-.707.707-.7072 5.341 88.3)" fill="#b0bdc6" d="m18.09 40.847h5.727v4.393h-5.727z"/><path transform="matrix(-.7069-.7073.7073-.7069 5.325 88.29)" fill="#dfe9ef" d="m19.463 40.847h2.982v4.392h-2.982z"/><path transform="matrix(-.7072-.707.707-.7072 7.538 87.39)" fill="#b0bdc6" d="m19 41.22h5.727v1.819h-5.727z"/><circle fill="#dfe9ef" cx="39.3" cy="24.703" r="24.703"/><circle fill="#b0bdc6" cx="39.3" cy="24.703" r="22.23"/><circle fill="#fff" cx="39.3" cy="24.703" r="20.586"/><path fill="#dfe9ef" d="m27.664 29.631c6.951 6.951 18.219 6.951 25.17.002 1.84-1.84 3.177-3.986 4.04-6.271.473 5.09-1.235 10.343-5.132 14.239-6.949 6.947-18.217 6.947-25.16 0-5.11-5.111-6.449-12.553-4.04-18.897.37 3.987 2.08 7.874 5.132 10.927"/><path transform="matrix(-.7071-.7071.7071-.7071-14.839 96.65)" fill="#333" d="m7.363 41.02h10.471v20.755h-10.471z"/><path transform="matrix(-.7069-.7073.7073-.7069-14.849 96.65)" fill="#575b5e" d="m9.735 41.02h5.727v20.757h-5.727z"/><path fill="#b0bdc6" d="m.106 54.33c-1.219 1.219 8.339 10.777 9.559 9.559l.749-.75c1.218-1.219-8.341-10.777-9.558-9.558l-.75.749"/><path fill="#dfe9ef" d="m1.696 55.923c-1.22 1.22 5.158 7.599 6.378 6.378l.749-.748c1.22-1.219-5.159-7.597-6.378-6.379l-.749.749"/></svg>