<svg xmlns="http://www.w3.org/2000/svg" viewBox="0 0 64 64" enable-background="new 0 0 64 64"><circle fill="#ffdd67" cx="32" cy="32" r="30"/><g fill="#664e27"><path d="m35 25.471c0 0 7.914 1.729 14 4.529 0 0-4.67-9.912-14-4.529"/><path d="m35 25.471c0 0 7.914-4.67 14-7.471 0 0-3.457 9.791-14 7.471"/></g><path fill="#fff" d="m30.25 24.592c0 4.971-4.03 9-9 9-4.971 0-9-4.03-9-9 0-4.967 4.03-9 9-9 4.969 0 9 4.03 9 9"/><g fill="#664e27"><circle cx="21.25" cy="24.592" r="4.5"/><path d="m48 37.5c0 6.461-5.314 14-16 14-10.689 0-16-7.539-16-14 0 0 5.311 0 16 0 10.686 0 16 0 16 0"/><path d="m32 52.5c-11.04 0-17-7.729-17-15v-1h34v1c0 7.271-5.957 15-17 15m-14.956-14c.523 5.99 5.727 12 14.956 12s14.434-6.01 14.957-12h-29.913"/></g><path fill="#ff717f" d="m32 40h-9.998c0 0 0 2.787 0 5.92 0 10.703 4.475 16.08 9.996 16.08 5.523 0 10-5.377 10-16.08 0-3.131 0-5.918 0-5.918h-10"/><path fill="#e2596c" d="M33.5 40 32 56.854 30.5 40z"/><path opacity=".33" d="m22 40h20v3.385h-20z"/></svg>