<svg xmlns="http://www.w3.org/2000/svg" viewBox="0 0 64 64" enable-background="new 0 0 64 64"><circle fill="#ffdd67" cx="32" cy="32" r="30"/><g fill="#664e27"><path d="m48 37.5c0 6.461-5.314 14-16 14-10.688 0-16-7.539-16-14 0 0 5.311 0 16 0 10.686 0 16 0 16 0"/><path d="m32 52.5c-11.04 0-17-7.729-17-15v-1h34v1c0 7.271-5.957 15-17 15m-14.955-14c.523 5.99 5.727 12 14.955 12 9.229 0 14.434-6.01 14.957-12h-29.912"/></g><path fill="#74e063" d="m32 40h-10c0 0 0 2.787 0 5.92 0 10.703 4.478 16.08 9.998 16.08 5.523 0 10-5.377 10-16.08 0-3.131 0-5.918 0-5.918h-10"/><path opacity=".33" d="m39.642 40v5.66c-.001 8.348-3 13.74-7.643 13.74-4.642-.003-7.64-5.396-7.64-13.738v-5.662h-.805v5.662c0 8.878 3.314 14.617 8.443 14.621h.001c5.13 0 8.446-5.74 8.448-14.623v-5.66h-.804"/><path opacity=".33" d="m22 40h20v3.385h-20z"/><g opacity=".33"><path d="m28.342 45.33c.971-.293 1.721-.121 2.256.518-.646 1.166-1.043 2.01-1.191 2.535.008.979.237 1.517.691 1.611.362.022.713-.275 1.051-.896l.8-1.748c.548-1.092 1.317-1.658 2.312-1.699.574.041 1.088.251 1.545.629.457.379.757.804.9 1.277.145.475.217.768.221.881l1.281.13c.295.629.26 1.226-.104 1.787l-1.338-.13c-.006.545-.292 1.268-.864 2.168-.808.037-1.51-.23-2.108-.801.777-1.102 1.141-1.982 1.088-2.645.069-.621-.139-.949-.627-.986-.276-.021-.636.416-1.076 1.313-.392 1.028-.844 1.791-1.352 2.287s-1.123.719-1.852.662c-.981-.072-1.734-.557-2.26-1.453-.375-.57-.586-1.01-.635-1.306l-1.293-.033c-.316-.911-.238-1.583.236-2.01l1.318.109c.061-.517.395-1.25 1-2.197"/></g><g fill="#664e27"><path d="m22.5 22.774l-2.34-.814c-.838-.355-1.26-.759-1.271-1.211.074-.572.743-.913 2.01-1.022.691.129 1.824.535 3.398 1.216.767-.728.908-1.677.426-2.851-1.286-.653-2.268-.992-2.941-1.014v-1.647c-.605-.544-1.479-.573-2.622-.087l.095 1.607c-.381.092-.92.397-1.616.921-1.102.743-1.646 1.729-1.635 2.953.005.909.358 1.649 1.052 2.229.695.579 1.728 1.062 3.096 1.443 1.204.453 1.809.854 1.809 1.2.005.607-.396.9-1.205.879-.848.133-2.023-.228-3.528-1.078-.673.801-.942 1.699-.809 2.697 1.223.617 2.187.897 2.89.85l-.023 1.673c.763.394 1.535.375 2.315-.055l.03-1.603c.146-.019.518-.138 1.113-.364.597-.228 1.113-.643 1.555-1.248.438-.607.652-1.266.646-1.98-.162-1.23-.974-2.128-2.442-2.694"/><path d="m45.5 22.774l-2.34-.814c-.838-.355-1.26-.759-1.27-1.211.073-.572.742-.913 2.01-1.022.691.129 1.824.535 3.398 1.216.766-.728.908-1.677.426-2.851-1.287-.653-2.268-.992-2.941-1.014v-1.647c-.605-.544-1.479-.573-2.622-.087l.095 1.607c-.381.092-.92.397-1.616.921-1.103.743-1.646 1.729-1.636 2.953.006.909.358 1.649 1.053 2.229.695.579 1.728 1.062 3.096 1.443 1.204.453 1.808.854 1.809 1.2.005.607-.396.9-1.205.879-.848.133-2.023-.228-3.528-1.078-.673.801-.942 1.699-.81 2.697 1.224.617 2.188.897 2.891.85l-.023 1.673c.763.394 1.535.375 2.315-.055l.03-1.603c.146-.019.518-.138 1.113-.364.596-.228 1.113-.643 1.554-1.248.438-.607.653-1.266.646-1.98-.162-1.23-.973-2.128-2.441-2.694"/></g></svg>