<svg xmlns="http://www.w3.org/2000/svg" viewBox="0 0 64 64" enable-background="new 0 0 64 64"><path fill="#89664c" d="m52.2 32.15l-2.1 4.413-4.461 2.434.441 1.6 5.06-2.759 2.4-5.068z"/><path fill="#13618d" d="m55.18 34.07c-1.271.41-4.642-1.035-4.999-2.291-.145-.502.389-1.629.873-1.844 1.211-.535 4.504 1.071 5 2.291.197.489-.367 1.682-.876 1.844"/><path fill="#428bc1" d="m57.46 23.21c-5.08-1.658-4.159 5.89-5.429 3.341-.828-1.665-2.325-1.682-1.976 1.163.345 2.791 3.384 5.184 6.084 4.182 2.647-.982 5.529-7.313 1.321-8.686"/><path fill="#89664c" d="m12.864 32.15l2.094 4.413 4.467 2.434-.446 1.6-5.05-2.758-2.405-5.069z"/><path fill="#13618d" d="m9.886 34.07c1.271.41 4.642-1.035 5-2.291.146-.503-.389-1.63-.873-1.844-1.211-.536-4.503 1.07-5 2.291-.199.489.368 1.681.874 1.844"/><path fill="#428bc1" d="m7.606 23.21c5.08-1.658 4.158 5.889 5.428 3.34.83-1.665 2.326-1.682 1.975 1.163-.344 2.792-3.383 5.185-6.082 4.183-2.649-.981-5.53-7.313-1.321-8.686"/><circle fill="#d0d0d0" cx="32.532" cy="45" r="17"/><path fill="#fff" d="m32.532 30c-8.273 0-15 6.729-15 15s6.727 15 15 15c8.271 0 15-6.729 15-15s-6.728-15-15-15"/><circle fill="#d0d0d0" cx="32.532" cy="25.531" r="13"/><path fill="#fff" d="m32.532 14.531c-6.07 0-11 4.936-11 11 0 6.07 4.936 11 11 11 6.06 0 10.998-4.934 10.998-11 0-6.06-4.933-11-10.998-11"/><circle fill="#ff8736" cx="32.532" cy="26.439" r="2.5"/><g fill="#3e4347"><circle cx="27.12" cy="21.814" r="2"/><circle cx="37.946" cy="21.814" r="2"/><path d="m30.876 46.31l-1.051-3.23 2.748-1.99 2.747 1.99-1.05 3.23z"/><path d="m30.876 56.11l-1.051-3.233 2.748-1.996 2.747 1.996-1.05 3.233z"/><path d="m32.532 33.951c-3.076 0-6.05-1.31-8.145-3.593-.375-.406-.348-1.039.059-1.412s1.039-.348 1.414.059c1.721 1.873 4.152 2.946 6.672 2.946 2.518 0 4.949-1.073 6.67-2.946.375-.406 1.01-.432 1.414-.059.406.373.434 1.01.059 1.412-2.1 2.284-5.067 3.593-8.143 3.593"/></g><g fill="#a2cbdb"><path d="m11.596 8.68l2.085-3.157-3.213 2.048-.834-5.571-.838 5.572-3.212-2.049 2.083 3.155-5.667.823 5.671.823-2.087 3.155 3.21-2.05.84 5.571.836-5.571 3.211 2.05-2.087-3.157 5.673-.821z"/><path d="m56.02 11.826l1.24-1.875-1.91 1.216-.492-3.307-.498 3.308-1.91-1.217 1.24 1.874-3.36.488 3.362.489-1.242 1.873 1.91-1.217.498 3.309.492-3.309 1.91 1.217-1.24-1.874 3.37-.488z"/><path d="m20.249 51.01l1.811-2.75-2.791 1.78-.727-4.84-.727 4.84-2.795-1.78 1.813 2.74-4.929.719 4.933.721-1.817 2.74 2.793-1.78.729 4.84.729-4.84 2.789 1.78-1.813-2.75 4.933-.711z"/><path d="m14.454 19.913l-1.93 1.896 1.93 1.897 1.93-1.897z"/><path d="m5.728 37.573l-1.93 1.897 1.93 1.9 1.929-1.9z"/><path d="m60.07 50.933l-1.93 1.896 1.93 1.897 1.93-1.897z"/><path d="m48.35 4.442l-1.93 1.896 1.93 1.896 1.93-1.896z"/><path d="m59.39 4.463l-.95.937.95.938.95-.938z"/><path d="m54.722 36.636l-.955.937.955.938.953-.938z"/><path d="m60.07 42.596l-.95.936.95.938.95-.938z"/><path d="m6.228 50.781l-.955.937.955.938.954-.938z"/><path d="m21.583 5.058l-.953.937.953.938.955-.938z"/></g><path fill="#ed4c5c" d="m20.294 16.529c0 0 0-5.473 4.816-6.416 0 0-.332-4.797 12.676-7.554 5.719-1.212 6.85-1.342 8.203 9.08.521 4.02 5.502 7.193 1.686 8.434-1.258.408-1.193 2.357-1.193 2.357l-13.338-5.05-12.85-.843"/><g fill="#cc2e45"><path d="m25.11 10.114c.99-.246 2.01-.355 3.037-.403 1.024-.05 2.055.001 3.075.136 2.02.285 4.101.964 5.593 2.368-1.725-1.082-3.682-1.608-5.662-1.88-1.986-.275-4.01-.304-6.04-.221"/><path d="m48.22 18.476c-1.102-.42-2.162-.975-3.105-1.714-.95-.726-1.721-1.702-2.233-2.777-.515-1.077-.821-2.198-1.306-3.229-.477-1.035-1.188-1.956-2.039-2.765.982.648 1.813 1.548 2.383 2.594.589 1.038.912 2.171 1.414 3.188.48 1.028 1.176 1.935 2.03 2.702.856.769 1.846 1.398 2.856 2"/></g><ellipse fill="#c4ccce" cx="49.02" cy="19.655" rx="3.703" ry="3.64"/><g fill="#f5f5f5"><ellipse cx="49.02" cy="18.96" rx="2.998" ry="2.947"/><path d="m34.35 14.87c-8.299-1.474-15.566.261-16.232 3.877-.26 1.414.061 3.168 1.615 4.549-.589-3.438 7.164-5.533 13.92-4.334 6.756 1.202 12.907 4.67 11.663 8.589 1.947-.761 2.598-2.048 2.858-3.462.664-3.618-5.524-7.745-13.824-9.219"/></g><path fill="#c4ccce" d="m33.651 17.892c-8.301-1.474-16.782 2.43-13.92 5.403 1.11-3.144 7.01-4.98 13.764-3.781 6.756 1.203 11.546 4.808 11.819 8.04 4.19-2.461-3.364-8.185-11.663-9.659"/><path fill="#cc2e45" d="m21.2 31.907c-1.533-1.055-1.251 1.179-1.471 1.695-.232.545-2.1 1.583-1.351 1.975 11.399 5.951 20.993 1.478 28.382.119.889.031-.92-1.502-1.23-2-.55-.881-.218-2.193-1.713-1.712-12.973 4.173-17.542 3.416-22.617-.077"/><path fill="#ed4c5c" d="m43.795 48.868c-2.567-1.018-7.03 1.32-6.376 0 1.669-3.379 3.508-12.594.787-15.252-1.086-1.061 4.231-2.576 5.358-1.551 3.149 2.863 1.938 17.481.231 16.803"/></svg>