<svg xmlns="http://www.w3.org/2000/svg" viewBox="0 0 64 64" enable-background="new 0 0 64 64"><path transform="matrix(.7072-.707.707.7072-13.913 31.725)" fill="#ffce31" d="m8.783 22.09h45.12v21.15h-45.12z"/><path fill="#ed4c5c" d="m61.3 4.607l-1.901-1.903c-3.606-3.603-9.444-3.602-13.05 0l-6.52 6.526 14.95 14.951 6.522-6.523c3.606-3.603 3.603-9.445.001-13.05"/><path transform="matrix(.7071-.7071.7071.7071 0 37.491)" fill="#93a2aa" d="m42.38 8.174h5.77v21.14h-5.77z"/><path transform="matrix(.7071-.7071.7071.7071 0 37.492)" fill="#c7d3d8" d="m42.38 10.435h5.771v16.621h-5.771z"/><path fill="#fed0ac" d="m7.913 41.13l-6.476 16.96 4.458 4.48 16.971-6.48z"/><path fill="#333" d="m.297 61.05c-.895 2.355.299 3.546 2.651 2.646l8.229-3.141-7.729-7.733-3.151 8.228"/><path transform="matrix(.7071.7071-.7071.7071 28.14-8.495)" fill="#ffdf85" d="m20.798 10.04h7.05v39.36h-7.05z"/><path transform="matrix(.7071.7071-.7071.7071 38.1-12.623)" fill="#ff8736" d="m30.765 20h7.05v39.36h-7.05z"/></svg>