<svg xmlns="http://www.w3.org/2000/svg" viewBox="0 0 64 64" enable-background="new 0 0 64 64"><g fill="#ed4c5c"><ellipse cx="28.2" cy="55.809" rx="8.128" ry="8.191"/><path d="m47.33 6.436c-4.215-4.271-9.375-6.436-15.334-6.436-6.01 0-11.17 2.14-15.324 6.35-4.213 4.213-6.35 9.369-6.35 15.324 0 1.196.971 2.167 2.168 2.167h9.753c1.197 0 2.167-.971 2.167-2.167 0-2.072.722-3.822 2.185-5.326 1.521-1.521 3.288-2.26 5.401-2.26 2.062 0 3.804.739 5.324 2.26 1.521 1.522 2.262 3.264 2.262 5.326 0 2.113-.74 3.879-2.238 5.38-1.525 1.483-3.275 2.205-5.347 2.205h-9.753c-1.197 0-2.168.971-2.168 2.168v9.753c0 1.196.971 2.167 2.168 2.167h9.752c5.955 0 11.09-2.11 15.238-6.263 4.27-4.216 6.436-9.4 6.436-15.41 0-5.96-2.141-11.09-6.34-15.238"/></g></svg>