<svg xmlns="http://www.w3.org/2000/svg" height="100" width="100" viewBox="0 0 1000 1000" fill="#fff"><path d="M756 200H244a19 19 0 0 0-19 19v62a19 19 0 0 0 19 19h512a19 19 0 0 0 19-19v-62a19 19 0 0 0-19-19ZM356 350H244a19 19 0 0 0-19 19v37a19 19 0 0 0 19 19h112a19 19 0 0 0 19-19v-37a19 19 0 0 0-19-19Zm200 0H444a19 19 0 0 0-19 19v37a19 19 0 0 0 19 19h112a19 19 0 0 0 19-19v-37a19 19 0 0 0-19-19Zm200 0H644a19 19 0 0 0-19 19v37a19 19 0 0 0 19 19h112a19 19 0 0 0 19-19v-37a19 19 0 0 0-19-19ZM356 475H244a19 19 0 0 0-19 19v37a19 19 0 0 0 19 19h112a19 19 0 0 0 19-19v-37a19 19 0 0 0-19-19Zm200 0H444a19 19 0 0 0-19 19v37a19 19 0 0 0 19 19h112a19 19 0 0 0 19-19v-37a19 19 0 0 0-19-19Zm200 0H644a19 19 0 0 0-19 19v37a19 19 0 0 0 19 19h112a19 19 0 0 0 19-19v-37a19 19 0 0 0-19-19ZM356 600H244a19 19 0 0 0-19 19v37a19 19 0 0 0 19 19h112a19 19 0 0 0 19-19v-37a19 19 0 0 0-19-19Zm200 0H444a19 19 0 0 0-19 19v37a19 19 0 0 0 19 19h112a19 19 0 0 0 19-19v-37a19 19 0 0 0-19-19Zm200 0H644a19 19 0 0 0-19 19v37a19 19 0 0 0 19 19h112a19 19 0 0 0 19-19v-37a19 19 0 0 0-19-19ZM356 725H244a19 19 0 0 0-19 19v37a19 19 0 0 0 19 19h112a19 19 0 0 0 19-19v-37a19 19 0 0 0-19-19Zm200 0H444a19 19 0 0 0-19 19v37a19 19 0 0 0 19 19h112a19 19 0 0 0 19-19v-37a19 19 0 0 0-19-19Zm200 0H644a19 19 0 0 0-19 19v37a19 19 0 0 0 19 19h112a19 19 0 0 0 19-19v-37a19 19 0 0 0-19-19Z"/></svg>