<svg id="a" xmlns="http://www.w3.org/2000/svg" width="100" height="100" viewBox="0 0 100 100"><path d="M42.4,64.3c0-1-.9-1.9-1.9-1.9h-18.7c-1,0-1.9.9-1.9,1.9v13.7c0,1,.9,1.9,1.9,1.9h18.7c1,0,1.9-.9,1.9-1.9v-13.7ZM27.7,45h-6.1c-1.2,0-1.9,1.1-1.1,1.7l10,10.3c.5.4,1.2.4,1.7,0l10-10.3c.7-.7,0-1.7-1.1-1.7h-5.9c0-6.2,6.1-12.5,12.3-12.5v-7.5c-11.2,0-19.8,8.7-19.8,19.9h0v.1ZM69.6,42.9c-.5-.4-1.2-.4-1.7,0l-10,10.3c-.7.7,0,1.7,1.1,1.7h6c0,7.5-5.1,12.5-12.6,12.5v7.5c11.2,0,20.1-8.7,20.1-19.9h6.1c1.2,0,1.9-1.1,1.1-1.7l-10.1-10.3h0v-.1ZM79.8,22.1c0-1-.9-1.9-1.9-1.9h-18.7c-1,0-1.9.9-1.9,1.9v13.7c0,1,.9,1.9,1.9,1.9h18.7c1,0,1.9-.9,1.9-1.9,0,0,0-13.7,0-13.7Z" fill="#fff"/></svg>