<svg xmlns="http://www.w3.org/2000/svg" width="24" height="24" viewBox="0 0 24 24"><path d="M17.24,19.399v-4.804h1.6v6.405H4.381v-6.405h1.598v4.804H17.24z M7.582,17.8h8.055v-1.604H7.582V17.8L7.582,17.8z M7.777,14.16l7.859,1.641l0.34-1.552l-7.861-1.642L7.777,14.16L7.777,14.16z M8.795,10.366l7.281,3.398l0.678-1.463L9.473,8.902	l-0.678,1.454V10.366L8.795,10.366z M10.832,6.777l6.166,5.142l1.018-1.216l-6.162-5.14l-1.016,1.213L10.832,6.777L10.832,6.777z M14.814,2.999l-1.311,0.969l4.803,6.454l1.313-0.971l-4.807-6.452H14.814z"/></svg>