<svg xmlns="http://www.w3.org/2000/svg" viewBox="0 0 24 24">
    <g>
        <path fill="none" d="M0 0H24V24H0z"/>
        <path d="M17.363 11.045c1.404-1.393 3.68-1.393 5.084 0 1.404 1.394 1.404 3.654 0 5.047L17 21.5l-5.447-5.408c-1.404-1.393-1.404-3.653 0-5.047 1.404-1.393 3.68-1.393 5.084 0l.363.36.363-.36zm1.88-6.288c.94.943 1.503 2.118 1.689 3.338-1.333-.248-2.739-.01-3.932.713-2.15-1.303-4.994-1.03-6.856.818-2.131 2.115-2.19 5.515-.178 7.701l.178.185 2.421 2.404L11 21.485 2.52 12.993C.417 10.637.496 7.019 2.757 4.757c2.265-2.264 5.888-2.34 8.244-.228 2.349-2.109 5.979-2.039 8.242.228z"/>
    </g>
</svg>
