<svg xmlns="http://www.w3.org/2000/svg" viewBox="0 0 24 24">
    <g>
        <path fill="none" d="M0 0H24V24H0z"/>
        <path d="M11 2c4.068 0 7.426 3.036 7.934 6.965l2.25 3.539c.148.233.118.58-.225.728L19 14.07V17c0 1.105-.895 2-2 2h-1.999L15 22H6v-3.694c0-1.18-.436-2.297-1.244-3.305C3.657 13.631 3 11.892 3 10c0-4.418 3.582-8 8-8zm-.53 5.763c-.684-.684-1.792-.684-2.475 0-.684.683-.684 1.791 0 2.474L11 13.243l3.005-3.006c.684-.683.684-1.791 0-2.474-.683-.684-1.791-.684-2.475 0l-.53.53-.53-.53z"/>
    </g>
</svg>
