<svg xmlns="http://www.w3.org/2000/svg" width="100" height="100" viewBox="0 0 100 100"><path d="M71.7,20H28.17c-4.58,0-8.3,3.56-8.16,7.81V72.19a7,7,0,0,0,.26,2.23A41.24,41.24,0,0,1,28,70.51c4.38-1.8,4.89-3.38,4.89-5.14S31.6,62,30.19,60.61a12.17,12.17,0,0,1-3.86-9c0-6.81,4.37-12.6,12-12.6s12,5.91,12,12.6a11.29,11.29,0,0,1-3.86,9c-1.41,1.29-2.7,3-2.7,4.76s.65,3.34,4.89,5.14c5.68,2.32,11,4.95,12.14,9.49h11A8.08,8.08,0,0,0,80,72.19V27.81A8.12,8.12,0,0,0,71.7,20ZM71,45.85a2,2,0,0,1-2,2H54a2,2,0,0,1-2-2v-3a2,2,0,0,1,2-2H69a2,2,0,0,1,2,2Zm5-13a2,2,0,0,1-2,2H54a2,2,0,0,1-2-2v-3a2,2,0,0,1,2-2H74a2,2,0,0,1,2,2Z" fill="#fff" fill-rule="evenodd"/></svg>