<svg viewBox="0 0 24 24" fill="currentColor" xmlns="http://www.w3.org/2000/svg"><path d="M6.00723 7.29726C6.00242 7.19876 5.99998 7.09965 5.99998 7C5.99998 3.68629 8.68627 1 12 1C13.3496 1 14.5977 1.44677 15.6006 2.20007L14.3994 3.7992C13.731 3.29712 12.9016 3 12 3C11.7239 3 11.4542 3.02798 11.1938 3.08127C9.37112 3.45426 8 5.06701 8 7C8 9.03308 9.51679 10.7119 11.4805 10.9666C12.5039 9.55847 14.055 8.70883 15.696 8.53306C16.3796 8.45983 17.0792 8.50382 17.7635 8.67248C18.3006 8.80481 18.828 9.01404 19.33 9.3039C22.1998 10.9608 23.183 14.6303 21.5262 17.5C19.8693 20.3698 16.1998 21.3531 13.33 19.6962C12.828 19.4064 12.3832 19.0543 12 18.6554C11.6169 19.0543 11.172 19.4064 10.6699 19.6963C7.80019 21.3531 4.13065 20.3699 2.47379 17.5001C0.81694 14.6304 1.80019 10.9608 4.66995 9.30397C5.17193 9.01416 5.69919 8.80494 6.23623 8.67261C6.11278 8.24646 6.03531 7.80079 6.00955 7.3413L6.00723 7.29726ZM7.14979 10.5328C6.64359 10.5989 6.14138 10.7638 5.66995 11.036C3.75678 12.1406 3.10128 14.587 4.20585 16.5001C5.31042 18.4133 7.75678 19.0688 9.66995 17.9642C10.3021 17.5993 10.7949 17.09 11.1337 16.5024C11.7429 15.4457 11.8532 14.1391 11.3649 12.9669C10.9807 12.9264 10.6072 12.8497 10.2481 12.7402C10.2028 12.7264 10.1577 12.712 10.1128 12.6972C8.91238 12.2997 7.87997 11.5335 7.14979 10.5328ZM13.1543 16.9343C13.4647 17.3396 13.8586 17.692 14.33 17.9642C16.2432 19.0687 18.6895 18.4132 19.7941 16.5C20.2936 15.635 20.4332 14.6609 20.2593 13.7511C20.0488 12.6488 19.3781 11.6409 18.33 11.0357C17.6978 10.6708 17.0104 10.4986 16.3322 10.499C15.1125 10.4998 13.9259 11.0576 13.1548 12.0666C13.2661 12.3165 13.3588 12.5707 13.4336 12.8277C13.4336 12.8277 13.4336 12.8277 13.4336 12.8277C13.4774 12.9785 13.5151 13.1302 13.5467 13.2825C13.5602 13.3478 13.5726 13.4131 13.5839 13.4786C13.7871 14.6567 13.6297 15.8611 13.1543 16.9343ZM18.5774 7C18.866 7.33402 19.106 7.71371 19.2866 8.12811L19.5331 8.69379C19.7136 9.10792 20.2864 9.10792 20.4668 8.69379L20.7134 8.12811C21.1529 7.11947 21.9445 6.31641 22.9323 5.87708L23.6919 5.53922C24.1027 5.35653 24.1027 4.75881 23.6919 4.57612L22.9748 4.25714C21.9616 3.80651 21.1558 2.97373 20.7238 1.93083L20.4706 1.31953C20.2942 0.893489 19.7058 0.893489 19.5293 1.31953L19.2761 1.93083C19.1965 2.12319 19.1041 2.3084 19 2.48538C18.5399 3.26793 17.8515 3.88963 17.0252 4.25714L16.308 4.57612C15.8973 4.75881 15.8973 5.35653 16.308 5.53922L17.0677 5.87708C17.6496 6.13591 18.1635 6.521 18.5774 7Z"/></svg>