<svg xmlns="http://www.w3.org/2000/svg" x="0px" y="0px"
	 width="100px" height="100px" viewBox="0 0 100 100" enable-background="new 0 0 100 100" xml:space="preserve">
<g>
	<path fill="#FFFFFF" d="M80,25c0-2.8-2.2-5-5-5H25c-2.8,0-5,2.2-5,5v34.7c0,2.8,2.2,5,5,5h50c2.8,0,5-2.2,5-5V25z M72.5,55.3
		c0,1-0.9,1.9-1.9,1.9H29.4c-1,0-1.9-0.9-1.9-1.9V29.4c0-1,0.9-1.9,1.9-1.9h41.2c1,0,1.9,0.9,1.9,1.9V55.3z M41.2,72.5
		c-2.8,0-5,2.2-5,5v0.6c0,1,0.9,1.9,1.9,1.9h23.8c1,0,1.9-0.9,1.9-1.9v-0.6c0-2.8-2.2-5-5-5H41.2z"/>
</g>
<path fill="#FFFFFF" d="M40.2,50.9h-5.6c-0.5,0-1-0.5-1-1V34.7c0-0.6,0.5-1,1-1h5.6c0.5,0,1,0.4,1,1v15.2
	C41.2,50.4,40.7,50.9,40.2,50.9z"/>
<path fill="#FFFFFF" d="M65.4,50.9H48.3c-0.5,0-1-0.5-1-1V34.7c0-0.5,0.5-1,1-1h17.1c0.5,0,1,0.5,1,1v15.2
	C66.4,50.5,65.9,50.9,65.4,50.9z"/>
</svg>
