<svg xmlns="http://www.w3.org/2000/svg" x="0px" y="0px" width="100" height="100"
	 viewBox="0 0 100 100" style="enable-background:new 0 0 100 100;" xml:space="preserve">

<g>
	<g>
		<path opacity="0.5" fill="#FFFFFF" d="M74,35h-8.7c2.5-3.9,2.3-9.1-0.8-12.3C62.8,21,60.5,20,58.1,20c-2.6,0-5.2,1.2-7.1,3.2
			c-0.4,0.4-0.7,0.8-1,1.3c-0.3-0.5-0.6-0.9-1-1.3c-1.9-2.1-4.5-3.2-7.1-3.2c-2.4,0-4.6,1-6.3,2.7c-3.1,3.2-3.3,8.4-0.8,12.3H26
			c-3.3,0-6,2.7-6,6v4c0,1.1,0.9,2,2,2h56c1.1,0,2-0.9,2-2v-4C80,37.7,77.3,35,74,35z M47,35L47,35c-2.1,0-5.1-0.8-6.8-2.6
			c-1.5-1.6-1.7-4.2-0.3-5.5c0.7-0.7,1.4-0.8,2-0.8c1,0,2,0.5,2.7,1.3c1.7,1.9,2.4,5.1,2.4,7.1c0,0,0,0,0,0C47,34.6,47,34.8,47,35
			C47,35,47,35,47,35z M59.8,32.4C58.1,34.2,55.1,35,53,35c0-0.2,0-0.4,0-0.6c0,0,0,0,0,0c0-2,0.7-5.2,2.4-7.1
			c0.8-0.8,1.8-1.3,2.7-1.3c0.5,0,1.3,0.1,2,0.8C61.4,28.2,61.3,30.7,59.8,32.4z"/>
	</g>
	<g>
		<path opacity="0.5" fill="#FFFFFF" d="M74,53H53v27h17.2c3.2,0,5.8-2.6,5.8-5.8V55C76,53.9,75.1,53,74,53z"/>
	</g>
	<g>
		<path opacity="0.5" fill="#FFFFFF" d="M24,55v19c0,3.3,2.7,6,6,6h17V53H26C24.9,53,24,53.9,24,55z"/>
	</g>
</g>
</svg>
