<svg color="var(--zonos-elements-red-800)" fill="none" height="24" viewBox="0 0 24 24" width="24" xmlns="https://www.w3.org/2000/svg"><path clip-rule="evenodd" d="M22 12c0 5.523-4.477 10-10 10S2 17.523 2 12 6.477 2 12 2s10 4.477 10 10Z" data-is-secondary-color="true" fill="var(--zonos-elements-red-200)" fill-rule="evenodd"></path><path clip-rule="evenodd" d="M8.293 8.293a1 1 0 0 1 1.414 0L12 10.586l2.293-2.293a1 1 0 1 1 1.414 1.414L13.414 12l2.293 2.293a1 1 0 0 1-1.414 1.414L12 13.414l-2.293 2.293a1 1 0 0 1-1.414-1.414L10.586 12 8.293 9.707a1 1 0 0 1 0-1.414Z" fill="currentColor" fill-rule="evenodd"></path></svg>