<?xml version="1.0" encoding="UTF-8"?>
<svg height="100%" width="100%" xmlns="http://www.w3.org/2000/svg">
	<defs>
		<font horiz-adv-x="610" id="web">
			<font-face alphabetic="0" ascent="992" descent="-290" font-family="" panose-1="2 11 3 5 2 2 2 9 2 3"/>
			<missing-glyph d="M49 718H561V0H49ZM99 667V50H511V667ZM308 609Q363 609 397 573T432 478Q432 444 419 418T369 358Q344 335 334 321T322 290T320 234H274L272 251Q272 300 283 327T331 391Q358 417 369 434T381 474Q381 515 359 537T305 559Q272 559 250 536T223 464L173 472Q179 541 215 575T308 609ZM271 184H327V117H271Z"/>
			<glyph d="" horiz-adv-x="243" unicode=" "/>
			<glyph d="M197 708H248L195 374L164 208H123L145 374ZM125 69Q157 69 157 42Q157 21 146 7T113 -6Q81 -6 81 22Q81 43 91 56T125 69Z" horiz-adv-x="298" unicode="!"/>
			<glyph d="M183 708H226L185 472H146ZM335 708H378L337 472H298Z" horiz-adv-x="416" unicode="&quot;"/>
			<glyph d="M301 648H343L296 469H512L559 648H601L554 469H671V434H545L488 215H614V179H479L432 0H390L437 179H221L174 0H132L179 179H64V215H188L245 434H121V469H254ZM287 434L230 215H446L503 434Z" horiz-adv-x="735" unicode="#"/>
			<glyph d="M371 752H413L402 680Q502 676 579 619L555 589Q479 640 381 640Q300 640 248 605T197 510Q197 462 230 438T339 394Q432 372 477 335T523 224Q523 170 493 128T413 61T298 33L287 -44H245L258 32Q194 35 147 53T63 106L91 136Q128 104 172 89T273 75Q360 75 415 114T471 222Q471 262 453 286T402 326T316 355Q228 377 187 410T147 508Q147 582 207 628T360 680Z" unicode="$"/>
			<glyph d="M331 722Q416 722 462 673T509 550Q509 483 478 426T392 337T271 304Q186 304 139 351T93 473Q93 540 123 597T208 688T331 722ZM796 709H847L320 0H268ZM328 680Q274 680 231 652T165 579T142 480Q142 422 175 384T275 346Q328 346 370 373T435 446T459 545Q459 603 426 641T328 680ZM870 407Q955 407 1001 358T1048 235Q1048 168 1017 111T931 22T810 -11Q725 -11 678 36T632 158Q632 225 662 282T747 373T870 407ZM867 365Q813 365 770 337T704 264T681 165Q681 107 714 69T814 31Q867 31 909 58T974 131T998 230Q998 288 965 326T867 365Z" horiz-adv-x="1177" unicode="%"/>
			<glyph d="M351 723Q423 723 464 686T506 594Q506 516 451 467T292 374L485 152Q512 190 534 237T570 334L616 323Q585 211 514 119L601 18L566 -14L482 84Q433 36 376 11T246 -14Q155 -14 98 34T42 164Q42 240 88 292T224 384Q188 428 171 462T155 540Q155 594 180 635T251 700T351 723ZM351 683Q285 683 245 643T206 541Q206 504 219 474T266 404Q329 431 369 455T433 512T457 591Q457 632 429 657T351 683ZM250 354Q170 315 132 274T95 165Q95 104 137 67T248 31Q371 31 454 116Z" horiz-adv-x="653" unicode="&amp;"/>
			<glyph d="M183 708H226L185 472H146Z" horiz-adv-x="264" unicode="'"/>
			<glyph d="M336 826L367 803Q274 694 215 588T136 354Q127 296 127 244Q127 151 152 69T222 -97L187 -118Q134 -26 104 59T75 246Q75 297 84 354Q106 492 169 601T336 826Z" horiz-adv-x="346" unicode="("/>
			<glyph d="M193 826Q246 734 275 648T305 462Q305 411 296 354Q274 216 210 107T44 -118L13 -95Q106 14 164 119T243 354Q252 404 252 464Q252 558 227 640T157 805Z" horiz-adv-x="346" unicode=")"/>
			<glyph d="M178 708H219L214 586L328 629L341 591L225 558L301 461L267 437L199 539L130 437L97 461L173 558L57 591L70 629L183 587Z" horiz-adv-x="398" unicode="*"/>
			<glyph d="M319 487H363L335 309H512L506 268H328L299 87H255L284 268H106L112 309H291Z" unicode="+"/>
			<glyph d="M93 69Q110 69 119 60T129 35Q129 28 127 16Q118 -31 93 -72T10 -165L-6 -148Q37 -104 56 -70T83 0Q68 1 60 9T52 29Q52 47 63 58T93 69Z" horiz-adv-x="249" unicode=","/>
			<glyph d="M54 314H264L258 273H48Z" horiz-adv-x="302" unicode="-"/>
			<glyph d="M95 69Q127 69 127 42Q127 21 116 7T83 -6Q51 -6 51 22Q51 43 61 56T95 69Z" horiz-adv-x="247" unicode="."/>
			<glyph d="M435 782H481L128 -78H82Z" horiz-adv-x="530" unicode="/"/>
			<glyph d="M376 723Q483 723 535 654T588 462Q588 411 579 352Q552 180 474 82T266 -15Q159 -15 106 53T54 246Q54 298 63 356Q90 528 168 625T376 723ZM374 679Q265 679 201 592T115 352Q105 293 105 239Q105 29 268 29Q377 29 440 115T528 356Q537 418 537 469Q537 679 374 679Z" unicode="0"/>
			<glyph d="M390 708H435L330 44H488L481 0H78L85 43H279L376 653L157 543L141 582Z" unicode="1"/>
			<glyph d="M364 723Q429 723 474 700T542 639T565 555Q565 476 514 402T386 262T164 87L106 43L512 44L505 0H27L33 42L113 103Q256 210 334 276T462 412T512 552Q512 609 472 644T359 680Q297 680 247 658T144 593L114 624Q178 676 234 699T364 723Z" unicode="2"/>
			<glyph d="M360 723Q453 723 505 680T557 566Q557 492 513 441T394 375L392 373Q446 368 485 333T524 231Q524 156 488 100T389 15T244 -15Q166 -15 111 7T12 78L43 108Q87 65 133 46T245 28Q312 28 363 53T443 123T472 229Q472 292 431 321T321 350H213L220 393H312Q398 393 451 440T505 564Q505 618 465 649T354 680Q295 680 246 664T146 612L120 645Q178 686 233 704T360 723Z" unicode="3"/>
			<glyph d="M361 708H418L90 232H400L434 446H485L451 232H563L557 188H444L414 0H364L394 188H24L30 228Z" unicode="4"/>
			<glyph d="M178 708H584L577 665H221L178 399Q257 436 349 436Q442 436 493 388T545 259Q545 179 508 116T404 19T253 -15Q176 -15 123 7T25 78L58 107Q101 65 145 46T252 28Q322 28 377 57T462 139T493 256Q493 322 452 358T336 394Q284 394 244 384T160 354H122Z" unicode="5"/>
			<glyph d="M416 723Q466 723 503 711T575 676L550 642Q520 662 489 671T415 681Q302 681 226 593T122 353Q174 403 232 430T365 458Q456 458 508 410T561 279Q561 196 524 129T422 23T272 -15Q163 -15 109 47T56 220Q56 261 64 312Q95 505 185 614T416 723ZM354 417Q224 417 114 300Q107 255 107 212Q107 28 273 28Q344 28 397 61T480 152T510 278Q510 346 469 381T354 417Z" unicode="6"/>
			<glyph d="M120 707H642L636 665Q467 507 364 345T212 0H155Q209 187 308 347T572 664L113 663Z" unicode="7"/>
			<glyph d="M376 723Q462 723 518 682T574 571Q574 500 530 452T405 367Q483 337 517 300T552 208Q552 138 513 87T409 11T264 -15Q155 -15 95 30T35 152Q35 240 90 296T243 385Q184 410 156 445T129 528Q129 587 163 631T254 699T376 723ZM375 683Q322 683 277 664T206 610T180 528Q180 485 207 456T303 402L360 383Q439 419 481 462T523 569Q523 623 482 653T375 683ZM290 367Q192 336 140 286T88 155Q88 94 134 60T267 26Q333 26 386 48T470 111T501 207Q501 257 464 287T340 349Z" unicode="8"/>
			<glyph d="M373 723Q480 723 534 664T588 497Q588 451 579 397Q559 269 496 177T332 35T98 -14L102 30Q214 30 300 70T443 182T520 354Q420 251 283 251Q193 251 138 301T83 440Q83 522 119 586T222 687T373 723ZM370 681Q299 681 245 650T163 564T135 441Q135 369 177 330T294 292Q366 292 426 324T530 412Q537 457 537 501Q537 681 370 681Z" unicode="9"/>
			<glyph d="M97 69Q129 69 129 42Q129 21 118 7T85 -6Q53 -6 53 22Q53 43 63 56T97 69ZM156 452Q188 452 188 425Q188 404 177 390T144 377Q112 377 112 405Q112 426 122 439T156 452Z" horiz-adv-x="248" unicode=":"/>
			<glyph d="M93 69Q110 69 119 60T129 35Q129 28 127 16Q118 -31 93 -72T10 -165L-6 -148Q37 -104 56 -70T83 0Q68 1 60 9T52 29Q52 47 63 58T93 69ZM154 452Q186 452 186 425Q186 404 175 390T142 377Q110 377 110 405Q110 426 120 439T154 452Z" horiz-adv-x="249" unicode=";"/>
			<glyph d="M521 519L537 483L166 282L474 81L448 49L114 264L120 303Z" unicode="&lt;"/>
			<glyph d="M134 406H524L518 365H128ZM102 206H492L486 165H96Z" unicode="="/>
			<glyph d="M173 519L507 304L501 265L100 49L84 85L455 286L147 487Z" unicode="&gt;"/>
			<glyph d="M306 723Q385 723 431 681T477 569Q477 517 457 479T408 415T334 358Q285 324 260 299T231 240L226 208H179L184 247Q191 290 219 320T299 386Q340 414 365 436T407 491T424 565Q424 619 391 649T298 680Q238 680 192 657T104 594L74 623Q125 672 179 697T306 723ZM193 69Q225 69 225 42Q225 21 214 7T181 -6Q149 -6 149 22Q149 43 159 56T193 69Z" horiz-adv-x="474" unicode="?"/>
			<glyph d="M489 678Q610 678 694 636T822 523T865 359Q865 228 821 161T709 95Q654 95 626 128T596 203Q574 156 530 126T428 97Q360 97 321 142T283 262Q283 331 308 386T384 472T507 504Q554 504 594 490T665 458L631 251Q628 236 628 221Q628 179 649 154T708 129Q757 129 788 184T820 357Q820 440 783 504T673 604T489 640Q380 640 301 593T181 466T140 290Q140 186 181 110T300 -6T488 -47Q593 -47 682 -14L694 -49Q595 -86 486 -86Q367 -86 278 -40T142 90T95 290Q95 396 143 484T280 625T489 678ZM504 469Q417 469 372 409T328 262Q328 201 356 167T438 133Q500 133 541 179T593 288L619 439Q561 469 504 469Z" horiz-adv-x="960" unicode="@"/>
			<glyph d="M362 708H420L587 0H532L490 189H129L27 0H-30ZM385 663L151 230H481Z" horiz-adv-x="637" unicode="A"/>
			<glyph d="M169 708H393Q469 708 520 674T572 570Q572 498 528 444T412 376V374Q472 366 509 328T547 228Q547 157 515 105T425 27T293 0H57ZM212 667L169 391H328Q413 391 465 438T518 563Q518 667 379 667ZM163 352L114 41H285Q382 41 438 91T495 229Q495 289 453 320T339 352Z" horiz-adv-x="602" unicode="B"/>
			<glyph d="M466 724Q532 724 587 702T682 640L649 610Q575 679 461 679Q358 679 280 625T160 480T118 280Q118 166 179 98T359 31Q419 31 476 53T581 116L609 82Q497 -15 351 -15Q260 -15 195 21T97 121T64 273Q64 399 114 501T255 664T466 724Z" horiz-adv-x="659" unicode="C"/>
			<glyph d="M169 708H375Q519 708 600 640T681 437Q681 305 632 206T490 54T266 0H57ZM213 665L115 43H266Q382 43 463 91T586 228T628 434Q628 551 561 608T365 665Z" horiz-adv-x="712" unicode="D"/>
			<glyph d="M169 708H575L568 666H213L169 387H482L475 346H163L115 43H486L479 0H57Z" horiz-adv-x="547" unicode="E"/>
			<glyph d="M169 708H577L569 665H214L169 384H489L482 342H163L109 0H57Z" horiz-adv-x="522" unicode="F"/>
			<glyph d="M470 723Q601 723 688 638L656 608Q579 679 468 679Q363 679 283 624T160 478T117 276Q117 160 178 94T362 28Q423 28 472 41T573 79L607 302H432L438 343H663L616 50Q553 19 492 2T355 -15Q213 -15 138 62T64 271Q64 397 114 500T257 663T470 723Z" horiz-adv-x="734" unicode="G"/>
			<glyph d="M169 708H221L170 387H591L642 708H694L582 0H530L584 344H163L109 0H57Z" horiz-adv-x="717" unicode="H"/>
			<glyph d="M130 708H351L345 668H260L161 41H245L239 0H18L24 41H110L209 668H124Z" horiz-adv-x="337" unicode="I"/>
			<glyph d="M336 708H388L307 194Q292 100 238 42T91 -15Q22 -15 -29 17L-6 53Q39 29 91 29Q162 29 203 74T255 194Z" horiz-adv-x="403" unicode="J"/>
			<glyph d="M169 708H221L166 360L550 708H614L255 384L522 0H464L221 353L155 294L109 0H57Z" horiz-adv-x="572" unicode="K"/>
			<glyph d="M169 708H221L115 44H448L441 0H57Z" horiz-adv-x="485" unicode="L"/>
			<glyph d="M169 708H246L415 71H417L789 708H870L758 0H707L811 648H809L426 0H386L210 648H208L106 0H57Z" horiz-adv-x="893" unicode="M"/>
			<glyph d="M169 708H229L585 67H587L686 708H736L624 0H564L209 642H207L106 0H57Z" horiz-adv-x="759" unicode="N"/>
			<glyph d="M468 723Q609 723 685 644T761 433Q761 308 710 206T568 44T357 -15Q216 -15 140 63T64 276Q64 400 114 502T257 663T468 723ZM464 679Q359 679 280 625T159 480T117 278Q117 161 179 95T362 29Q466 29 545 83T666 228T708 431Q708 548 646 613T464 679Z" horiz-adv-x="793" unicode="O"/>
			<glyph d="M169 708H385Q472 708 532 664T593 529Q593 449 558 387T461 292T320 258H149L109 0H57ZM214 666L156 300H324Q386 300 435 329T513 409T541 524Q541 598 494 632T378 666Z" horiz-adv-x="584" unicode="P"/>
			<glyph d="M468 723Q609 723 685 644T761 433Q761 311 713 210T577 49T374 -15Q377 -58 402 -85T484 -125T634 -139L615 -182Q463 -182 394 -138T322 -14Q197 -4 130 73T64 276Q64 400 114 502T257 663T468 723ZM464 679Q359 679 280 625T159 480T117 278Q117 161 179 95T362 29Q466 29 545 83T666 228T708 431Q708 548 646 613T464 679Z" horiz-adv-x="794" unicode="Q"/>
			<glyph d="M169 708H383Q436 708 481 688T554 629T582 531Q582 430 525 364T371 280L513 0H457L320 275H153L109 0H57ZM214 666L159 316H322Q382 316 429 343T502 418T529 525Q529 595 485 630T377 666Z" horiz-adv-x="591" unicode="R"/>
			<glyph d="M351 723Q462 723 544 661L517 627Q479 654 438 667T346 680Q260 680 207 641T154 527Q154 479 188 450T298 397Q390 367 437 325T484 213Q484 143 450 91T358 12T223 -15Q90 -15 3 67L32 100Q73 64 120 46T227 29Q319 29 375 77T432 207Q432 265 392 297T271 357Q187 384 145 423T103 523Q103 618 172 670T351 723Z" horiz-adv-x="536" unicode="S"/>
			<glyph d="M77 708H585L578 663H350L245 0H193L298 663H70Z" horiz-adv-x="518" unicode="T"/>
			<glyph d="M160 708H211L140 256Q134 223 134 194Q134 113 179 71T323 30Q437 30 499 88T580 257L652 708H703L631 253Q610 123 533 54T320 -15Q202 -15 142 38T82 190Q82 226 87 253Z" horiz-adv-x="718" unicode="U"/>
			<glyph d="M82 708H135L269 54H272L610 708H666L290 0H233Z" horiz-adv-x="603" unicode="V"/>
			<glyph d="M92 708H144L223 62H226L510 708H572L655 62H657L942 708H995L678 0H619L533 647H531L245 0H186Z" horiz-adv-x="942" unicode="W"/>
			<glyph d="M113 708H171L313 408L555 708H615L338 371V370L524 0H466L303 333L38 0H-24L278 373Z" horiz-adv-x="582" unicode="X"/>
			<glyph d="M68 708H124L275 351H277L540 708H600L296 306L247 0H196L245 308Z" horiz-adv-x="523" unicode="Y"/>
			<glyph d="M124 708H587L580 661L66 44H493L486 0H0L7 48L521 666H117Z" horiz-adv-x="573" unicode="Z"/>
			<glyph d="M167 804H355L348 763H207L76 -71H216L210 -111H22Z" horiz-adv-x="346" unicode="["/>
			<glyph d="M86 782H131L475 -78H429Z" horiz-adv-x="530" unicode="\"/>
			<glyph d="M168 804H356L211 -111H23L29 -71H170L301 763H161Z" horiz-adv-x="347" unicode="]"/>
			<glyph d="M284 708H327L488 510L462 490L305 673L148 490L122 510Z" unicode="^"/>
			<glyph d="M-9 -105H478L471 -146H-15Z" horiz-adv-x="588" unicode="_"/>
			<glyph d="M129 736L288 611L264 586L98 702Z" horiz-adv-x="236" unicode="`"/>
			<glyph d="M350 513Q403 513 445 500T533 459L478 109Q471 56 467 0H421Q421 46 432 106H430Q396 44 344 15T231 -14Q146 -14 99 41T52 189Q52 282 88 355T192 471T350 513ZM350 472Q275 472 219 435T133 336T104 195Q104 118 140 72T242 27Q322 27 379 89T451 251L480 438Q425 472 350 472Z" horiz-adv-x="587" unicode="a"/>
			<glyph d="M164 708H214L161 388H164Q196 446 251 479T369 513Q458 513 504 458T550 311Q550 286 545 249Q533 174 496 114T403 20T275 -14Q165 -14 58 37ZM360 473Q306 473 259 440T180 355T140 246L112 62Q154 45 192 36T277 27Q364 27 421 89T494 249Q499 282 499 307Q499 384 463 428T360 473Z" horiz-adv-x="601" unicode="b"/>
			<glyph d="M333 513Q378 513 418 499T487 461L463 428Q409 471 328 471Q258 471 207 433T129 333T103 195Q103 118 142 73T257 28Q328 28 404 73L423 38Q342 -14 250 -14Q152 -14 102 42T52 191Q52 280 86 353T184 470T333 513Z" horiz-adv-x="495" unicode="c"/>
			<glyph d="M532 708H582L487 109Q478 53 476 0H429Q431 51 441 106H439Q405 44 352 15T238 -14Q148 -14 99 41T51 189Q51 275 84 349T179 468T321 513Q378 513 418 496T490 447ZM321 472Q257 472 207 433T130 330T103 195Q103 118 141 72T249 27Q330 27 387 89T459 251L483 402Q420 472 321 472Z" horiz-adv-x="601" unicode="d"/>
			<glyph d="M341 513Q420 513 457 479T494 394Q494 326 443 288T309 235T102 213Q101 206 101 190Q101 116 138 72T252 29Q301 29 340 40T417 76L436 42Q392 13 346 0T244 -14Q150 -14 100 40T51 188Q51 279 86 353T186 470T341 513ZM338 474Q242 474 181 412T106 252Q223 260 292 272T403 312T444 394Q444 474 338 474Z" horiz-adv-x="524" unicode="e"/>
			<glyph d="M333 722Q381 722 419 709L405 673Q373 682 337 682Q286 681 255 650T216 562L207 499H335L328 460H201L127 -6Q114 -89 93 -136T41 -210T-45 -257L-59 -218Q-16 -202 9 -179T49 -117T76 -6L151 460H59L64 492L157 499L166 563Q179 641 221 681T333 722Z" horiz-adv-x="307" unicode="f"/>
			<glyph d="M348 513Q401 513 444 500T533 459L461 -13Q444 -128 378 -193T200 -258Q151 -258 106 -243T31 -202L55 -168Q118 -216 200 -216Q289 -216 343 -163T412 -15L432 107H430Q396 45 344 16T231 -12Q146 -12 99 42T52 190Q52 283 88 356T191 471T348 513ZM347 472Q272 472 217 435T133 336T104 196Q104 119 140 73T242 28Q322 28 379 90T451 251L479 438Q427 472 347 472Z" horiz-adv-x="584" unicode="g"/>
			<glyph d="M164 708H214L161 386H163Q189 442 243 477T367 513Q443 513 480 471T518 362Q518 337 514 317L463 0H413L462 308Q466 329 466 354Q466 471 355 471Q270 471 211 399T135 207L102 0H52Z" horiz-adv-x="587" unicode="h"/>
			<glyph d="M131 499H181L102 0H52ZM191 721Q224 721 224 693Q224 674 213 661T180 648Q147 648 147 675Q147 695 157 708T191 721Z" horiz-adv-x="234" unicode="i"/>
			<glyph d="M131 499H181L101 -6Q88 -89 68 -136T15 -210T-71 -257L-85 -218Q-42 -202 -17 -180T24 -117T51 -6ZM191 721Q224 721 224 693Q224 674 213 661T180 648Q147 648 147 675Q147 695 157 708T191 721Z" horiz-adv-x="234" unicode="j"/>
			<glyph d="M164 708H214L145 270L424 499H490L236 293L437 0H380L200 263L135 210L102 0H52Z" horiz-adv-x="480" unicode="k"/>
			<glyph d="M164 708H214L102 0H52Z" horiz-adv-x="234" unicode="l"/>
			<glyph d="M357 513Q425 513 460 475T497 374H499Q527 439 581 476T701 513Q773 513 809 471T845 362Q845 337 841 317L791 0H741L789 308Q793 331 793 356Q793 471 689 471Q613 471 557 402T481 219L446 0H396L444 308Q448 331 448 356Q448 471 345 471Q266 471 209 398T134 207L101 0H51L113 391Q119 427 124 499H170Q168 436 158 382H160Q187 440 240 476T357 513Z" horiz-adv-x="914" unicode="m"/>
			<glyph d="M366 513Q442 513 479 471T517 362Q517 337 513 317L463 0H413L461 308Q465 329 465 354Q465 471 354 471Q269 471 210 399T134 207L101 0H51L113 391Q119 427 124 499H170Q168 436 158 382H160Q187 441 241 477T366 513Z" horiz-adv-x="586" unicode="n"/>
			<glyph d="M332 513Q431 513 484 458T538 310Q538 221 503 147T404 29T257 -14Q158 -14 105 42T52 193Q52 282 86 355T184 470T332 513ZM329 473Q259 473 208 435T130 333T103 195Q103 118 142 72T259 27Q329 27 380 65T459 167T487 307Q487 384 447 428T329 473Z" horiz-adv-x="590" unicode="o"/>
			<glyph d="M368 513Q457 513 503 458T550 312Q550 224 516 149T420 30T278 -14Q222 -14 182 3T110 50L63 -244H13L114 389Q121 440 125 499H172Q171 473 168 441T160 384H162Q193 445 247 479T368 513ZM357 473Q274 473 214 405T138 227L117 93Q154 58 189 42T276 27Q343 27 394 66T472 169T499 306Q499 382 462 427T357 473Z" horiz-adv-x="602" unicode="p"/>
			<glyph d="M349 513Q402 513 445 500T533 459L418 -244H369L429 99H427Q395 42 343 14T231 -14Q146 -14 99 41T52 189Q52 282 88 355T191 471T349 513ZM348 472Q273 472 218 435T133 336T104 195Q104 118 140 72T242 27Q322 27 379 89T451 251L480 438Q425 472 348 472Z" horiz-adv-x="592" unicode="q"/>
			<glyph d="M341 513Q355 513 370 510L360 466Q350 469 332 469Q282 469 240 430T171 328T132 190L101 0H51L113 389Q120 440 124 499H170Q168 435 155 375H157Q188 446 236 479T341 513Z" horiz-adv-x="334" unicode="r"/>
			<glyph d="M247 513Q339 513 400 464L376 433Q346 453 314 463T243 474Q185 474 149 449T113 376Q113 343 139 322T231 282Q297 262 329 229T361 149Q361 71 307 28T164 -14Q66 -14 -4 43L20 75Q53 50 88 38T169 26Q232 26 270 56T309 144Q309 180 283 203T196 246Q126 267 94 297T63 372Q63 439 114 476T247 513Z" horiz-adv-x="426" unicode="s"/>
			<glyph d="M220 648L196 499H334L328 460H190L138 130Q134 105 134 90Q134 28 199 28Q226 28 255 37L259 -2Q228 -14 187 -14Q138 -14 110 11T83 83Q83 100 87 127L140 460H48L53 493L146 499L167 630Z" horiz-adv-x="326" unicode="t"/>
			<glyph d="M123 499H173L124 191Q120 161 120 144Q120 91 147 59T233 28Q318 28 374 92T448 266L485 499H535L473 109Q465 60 461 0H416Q416 46 428 109H426Q398 53 345 19T226 -14Q148 -14 108 29T69 140Q69 163 73 186Z" horiz-adv-x="586" unicode="u"/>
			<glyph d="M47 499H99L194 49H196L428 499H482L217 0H158Z" horiz-adv-x="449" unicode="v"/>
			<glyph d="M59 499H111L156 52H158L368 499H426L495 52H496L685 499H737L517 0H461L391 446H389L178 0H118Z" horiz-adv-x="716" unicode="w"/>
			<glyph d="M69 499H123L237 295L419 499H475L263 261L419 0H361L229 228L28 0H-32L202 264V265Z" horiz-adv-x="470" unicode="x"/>
			<glyph d="M47 499H98L191 52H193L415 499H468L199 -27Q157 -109 127 -150T62 -216T-33 -258L-44 -219Q4 -204 36 -181T94 -121T153 -18L160 -3Z" horiz-adv-x="436" unicode="y"/>
			<glyph d="M90 499H415L409 458L62 40H354L347 0H-3L4 42L349 460H84Z" horiz-adv-x="419" unicode="z"/>
			<glyph d="M380 804L373 762Q323 762 291 734T251 651L224 476Q214 414 186 385T108 348V346Q147 336 166 315T186 255Q186 248 182 214L157 54Q152 22 152 9Q152 -29 175 -49T241 -70L235 -111Q176 -111 140 -81T104 6Q104 28 108 54L135 224Q138 245 138 255Q138 316 65 324L72 369Q159 380 172 456L203 656Q227 804 380 804Z" horiz-adv-x="346" unicode="{"/>
			<glyph d="M144 808H191V-100H144Z" horiz-adv-x="334" unicode="|"/>
			<glyph d="M142 804Q201 804 237 774T273 687Q273 672 268 639L242 469Q239 455 239 438Q239 406 257 389T312 369L305 324Q262 319 237 298T205 237L174 37Q162 -39 116 -75T-3 -111L4 -69Q54 -69 85 -41T126 43L153 217Q163 279 190 308T268 346V348Q230 358 210 378T191 438Q191 456 195 479L220 639Q225 674 225 684Q225 722 201 742T136 763Z" horiz-adv-x="346" unicode="}"/>
			<glyph d="M234 330Q257 330 276 322T319 300Q343 287 358 280T391 274Q417 274 439 286T493 329L516 310Q460 238 390 238Q367 238 347 245T303 268Q280 281 265 287T232 294Q207 294 183 281T130 239L107 258Q137 295 168 312T234 330Z" unicode="~"/>
			<glyph d="" horiz-adv-x="243" unicode=" "/>
			<glyph d="M144 300H185L163 134L111 -200H60L113 134ZM195 514Q227 514 227 486Q227 465 216 452T183 439Q151 439 151 466Q151 487 161 500T195 514Z" horiz-adv-x="298" unicode="¡"/>
			<glyph d="M394 708H435L420 617Q501 611 556 561L530 530Q480 576 397 576Q326 576 273 538T192 436T165 298Q165 222 204 177T322 133Q392 133 472 179L489 144Q417 97 337 91L324 0H282L297 91Q206 97 160 153T115 297Q115 383 147 454T240 568T380 617Z" unicode="¢"/>
			<glyph d="M396 723Q514 723 583 635L548 609Q520 644 483 661T394 679Q342 679 303 657T244 597T223 514Q223 481 229 453T243 403T254 373H448L442 333H265Q273 303 273 272Q273 118 120 47V45H488L481 0H41L47 42Q133 83 178 136T223 272Q223 303 215 333H106L112 373H203Q187 419 180 447T173 514Q173 573 201 620T280 695T396 723Z" unicode="£"/>
			<glyph d="M135 513L207 419Q247 442 305 442Q363 442 403 419L475 513L507 490L433 398Q482 351 482 271Q482 190 432 143L507 51L475 27L402 122Q362 99 305 99Q248 99 208 122L135 27L103 51L178 143Q129 190 129 271Q129 310 141 343T178 398L103 490ZM305 407Q237 407 204 371T171 271Q171 207 204 170T305 133Q372 133 406 170T440 271Q440 335 406 371T305 407Z" unicode="¤"/>
			<glyph d="M109 708H163L315 349H317L579 708H637L357 338H490L484 302H332L321 232H472L466 196H316L285 0H235L266 196H116L122 232H272L283 302H134L140 338H271Z" horiz-adv-x="600" unicode="¥"/>
			<glyph d="M144 808H191V427H144ZM144 281H191V-100H144Z" horiz-adv-x="334" unicode="¦"/>
			<glyph d="M383 723Q432 723 472 710T549 670L523 640Q492 662 458 672T383 683Q325 683 288 658T252 596Q252 563 278 542T371 500Q446 477 478 448T510 371Q510 321 473 286T374 235Q423 216 445 190T468 125Q468 61 411 24T271 -13Q215 -13 172 1T92 43L117 73Q151 49 186 38T269 27Q334 27 375 53T417 123Q417 148 405 164T367 192T291 219Q218 242 185 270T152 345Q152 397 190 432T294 483Q246 502 224 529T202 595Q202 632 225 661T289 706T383 723ZM345 467Q280 455 241 423T202 349Q202 312 228 292T324 252Q326 252 326 251Q390 267 424 298T459 370Q459 407 434 427T345 467Z" unicode="§"/>
			<glyph d="M136 696Q167 696 167 668Q167 649 157 637T126 625Q95 625 95 653Q95 671 105 683T136 696ZM306 696Q337 696 337 668Q337 649 327 637T296 625Q265 625 265 653Q265 671 275 683T306 696Z" horiz-adv-x="301" unicode="¨"/>
			<glyph d="M471 723Q591 723 676 675T804 544T848 354Q848 247 804 163T676 32T471 -15Q351 -15 266 32T138 163T95 354Q95 461 138 544T266 675T471 723ZM472 687Q361 687 285 644T173 525T136 354Q136 258 173 182T285 64T472 21Q583 21 658 64T771 182T808 354Q808 450 771 525T658 644T472 687ZM480 570Q559 570 617 526L599 497Q572 516 543 525T480 534Q403 534 363 485T323 356Q323 275 363 226T480 177Q543 177 598 214L615 186Q588 165 552 153T478 141Q380 141 330 201T280 356Q280 453 333 511T480 570Z" horiz-adv-x="944" unicode="©"/>
			<glyph d="M363 722Q414 722 455 709T541 669L487 328Q481 277 477 222H432Q432 267 443 325H441Q408 265 357 236T247 208Q164 208 118 262T73 406Q73 497 108 568T209 681T363 722ZM363 682Q290 682 235 646T152 549T123 412Q123 337 158 292T258 248Q336 248 391 309T461 466L489 649Q436 682 363 682ZM48 49H453L446 8H42Z" horiz-adv-x="557" unicode="ª"/>
			<glyph d="M248 513L270 491L141 349L224 207L197 188L97 338L101 363ZM401 513L423 491L294 349L377 207L350 188L250 338L254 363Z" horiz-adv-x="468" unicode="«"/>
			<glyph d="M114 364H514L485 182H438L462 323H108Z" horiz-adv-x="596" unicode="¬"/>
			<glyph d="M54 314H264L258 273H48Z" horiz-adv-x="302" unicode="­"/>
			<glyph d="M229 722Q288 722 321 688T354 600Q354 546 321 512T229 478Q170 478 137 512T104 600Q104 654 137 688T229 722ZM229 702Q178 702 152 674T126 600Q126 554 152 526T229 498Q280 498 306 526T332 600Q332 646 306 674T229 702ZM185 671H233Q255 671 269 660T283 628Q283 597 253 586L287 535H262L230 583H208V535H185ZM208 653V601H228Q261 601 261 628Q261 653 229 653Z" horiz-adv-x="347" unicode="®"/>
			<glyph d="M94 653H345L339 617H88Z" horiz-adv-x="311" unicode="¯"/>
			<glyph d="M235 723Q292 723 326 690T361 602Q361 546 326 513T235 480Q177 480 143 513T109 602Q109 658 143 690T235 723ZM235 690Q194 690 171 667T149 602Q149 559 171 536T235 514Q276 514 298 536T321 602Q321 644 298 667T235 690Z" horiz-adv-x="357" unicode="°"/>
			<glyph d="M334 577H378L350 402H527L521 361H343L314 177H270L299 361H121L127 402H306ZM72 48H472L466 7H66Z" unicode="±"/>
			<glyph d="M341 719Q413 719 451 683T490 593Q490 534 452 480T356 377T187 250L162 232L451 233L445 191H86L92 231L151 274Q255 351 311 397T404 492T440 590Q440 630 412 654T333 678Q288 678 251 662T176 615L147 644Q193 683 237 701T341 719Z" horiz-adv-x="540" unicode="²"/>
			<glyph d="M345 719Q417 719 456 688T495 605Q495 597 493 583Q484 528 451 500T376 464L373 463Q414 459 443 433T472 360Q472 352 470 334Q459 263 402 221T255 180Q193 180 152 197T80 249L111 277Q140 246 172 233T257 221Q324 221 368 252T421 340Q423 356 423 361Q423 403 393 422T314 442H230L236 482H307Q361 482 398 507T444 583Q446 597 446 602Q446 639 418 658T338 678Q293 678 256 666T182 628L159 658Q202 690 245 704T345 719Z" horiz-adv-x="540" unicode="³"/>
			<glyph d="M252 736L274 697L103 586L85 615Z" horiz-adv-x="231" unicode="´"/>
			<glyph d="M129 499H179L132 201Q128 169 128 156Q128 97 157 62T245 27Q297 27 340 55T412 131T449 237L491 499H541L480 109Q472 60 468 0H421Q423 45 432 108H430Q396 50 346 17T235 -15Q137 -15 111 70H109L77 -133Q65 -208 52 -244H5Q21 -189 29 -135Z" horiz-adv-x="592" unicode="µ"/>
			<glyph d="M314 708H424L291 -130H242L318 347H256Q172 347 124 385T77 496Q77 594 141 651T314 708ZM546 708H595L462 -130H413ZM307 666Q220 666 171 620T123 496Q123 389 260 389H324L368 666Z" horiz-adv-x="619" unicode="¶"/>
			<glyph d="M142 365Q174 365 174 338Q174 317 163 303T130 290Q98 290 98 318Q98 339 108 352T142 365Z" horiz-adv-x="247" unicode="·"/>
			<glyph d="M68 0H104L66 -76Q83 -72 103 -72Q135 -72 152 -88T170 -133Q170 -178 137 -205T52 -232Q-1 -232 -40 -208L-24 -181Q-6 -191 11 -195T52 -200Q88 -200 109 -183T130 -136Q130 -119 119 -109T87 -100Q67 -100 43 -107H13Z" horiz-adv-x="261" unicode="¸"/>
			<glyph d="M349 708H392L316 233H434L427 191H116L122 232H267L335 656L174 580L160 616Z" horiz-adv-x="540" unicode="¹"/>
			<glyph d="M371 722Q468 722 520 668T572 524Q572 437 538 365T442 250T298 208Q202 208 150 262T99 410Q99 497 132 568T227 680T371 722ZM368 683Q300 683 250 646T174 547T148 412Q148 337 186 292T300 248Q368 248 418 285T495 384T522 521Q522 596 483 639T368 683ZM64 49H469L462 8H58Z" horiz-adv-x="607" unicode="º"/>
			<glyph d="M150 513L250 363L246 338L99 188L77 211L206 353L122 495ZM303 513L403 363L399 338L252 188L230 211L359 353L275 495Z" horiz-adv-x="468" unicode="»"/>
			<glyph d="M305 708H348L272 233H390L383 191H72L78 232H223L291 656L130 580L116 616ZM872 709H923L396 0H344ZM963 517H1017L781 174H995L1019 325H1067L1043 174H1128L1121 132H1037L1016 0H968L989 132H718L724 170Z" horiz-adv-x="1200" unicode="¼"/>
			<glyph d="M287 708H330L254 233H372L365 191H54L60 232H205L273 656L112 580L98 616ZM835 709H886L359 0H307ZM989 528Q1061 528 1099 492T1138 402Q1138 343 1100 289T1004 186T835 59L810 41L1099 42L1093 0H734L740 40L799 83Q903 160 959 206T1052 301T1088 399Q1088 439 1060 463T981 487Q936 487 899 471T824 424L795 453Q841 492 885 510T989 528Z" horiz-adv-x="1200" unicode="½"/>
			<glyph d="M312 719Q384 719 423 688T462 605Q462 597 460 583Q451 528 418 500T343 464L340 463Q381 459 410 433T439 360Q439 352 437 334Q426 263 369 221T222 180Q160 180 119 197T47 249L78 277Q107 246 139 233T224 221Q291 221 335 252T388 340Q390 356 390 361Q390 403 360 422T281 442H197L203 482H274Q328 482 365 507T411 583Q413 597 413 602Q413 639 385 658T305 678Q260 678 223 666T149 628L126 658Q169 690 213 704T312 719ZM874 709H925L398 0H346ZM974 517H1028L792 174H1006L1030 325H1078L1054 174H1139L1132 132H1048L1027 0H979L1000 132H729L735 170Z" horiz-adv-x="1200" unicode="¾"/>
			<glyph d="M250 300H297L292 261Q285 218 257 188T177 122Q136 94 111 71T69 17T52 -57Q52 -111 85 -141T178 -172Q238 -172 283 -149T372 -86L402 -115Q351 -164 296 -189T170 -215Q91 -215 45 -173T-1 -61Q-1 -9 19 29T68 93T142 150Q191 184 215 209T245 268ZM295 514Q327 514 327 486Q327 465 316 452T283 439Q251 439 251 466Q251 487 261 500T295 514Z" horiz-adv-x="474" unicode="¿"/>
			<glyph d="M362 708H420L587 0H532L490 189H129L27 0H-30ZM385 663L151 230H481ZM350 915L512 812L491 787L323 880Z" horiz-adv-x="637" unicode="À"/>
			<glyph d="M362 708H420L587 0H532L490 189H129L27 0H-30ZM385 663L151 230H481ZM492 915L510 876L331 785L318 814Z" horiz-adv-x="637" unicode="Á"/>
			<glyph d="M362 708H420L587 0H532L490 189H129L27 0H-30ZM385 663L151 230H481ZM407 906H449L556 808L534 785L425 872L287 785L269 809Z" horiz-adv-x="637" unicode="Â"/>
			<glyph d="M362 708H420L587 0H532L490 189H129L27 0H-30ZM385 663L151 230H481ZM361 874Q377 874 390 867T421 847Q436 836 445 831T464 826Q481 826 496 836T532 872L558 860Q535 823 511 806T461 790Q446 790 433 796T402 816Q386 828 377 833T357 838Q340 838 324 827T290 792L264 804Q309 874 361 874Z" horiz-adv-x="637" unicode="Ã"/>
			<glyph d="M362 708H420L587 0H532L490 189H129L27 0H-30ZM385 663L151 230H481ZM335 893Q366 893 366 865Q366 846 356 834T325 822Q294 822 294 850Q294 868 304 880T335 893ZM505 893Q536 893 536 865Q536 846 526 834T495 822Q464 822 464 850Q464 868 474 880T505 893Z" horiz-adv-x="637" unicode="Ä"/>
			<glyph d="M457 871Q496 871 520 849T544 793Q544 744 512 712T430 680H427L587 0H532L490 189H129L27 0H-30L362 708Q343 730 343 760Q343 808 376 839T457 871ZM454 841Q421 841 400 819T379 763Q379 739 393 725T433 711Q465 711 486 733T507 790Q507 813 493 827T454 841ZM385 663L151 230H481Z" horiz-adv-x="637" unicode="Å"/>
			<glyph d="M361 708H858L852 666H430L478 387H788L781 346H485L538 43H819L812 0H495L463 189H128L25 0H-30ZM384 663L150 230H456Z" horiz-adv-x="873" unicode="Æ"/>
			<glyph d="M466 724Q532 724 587 702T682 640L649 610Q575 679 461 679Q358 679 280 625T160 480T118 280Q118 166 179 98T359 31Q419 31 476 53T581 116L609 82Q497 -15 351 -15H344L313 -76Q330 -72 350 -72Q382 -72 399 -88T417 -133Q417 -178 384 -205T299 -232Q246 -232 207 -208L223 -181Q241 -191 258 -195T299 -200Q335 -200 356 -183T377 -136Q377 -119 366 -109T334 -100Q314 -100 290 -107H260L308 -13Q191 0 127 76T64 273Q64 399 114 501T255 664T466 724Z" horiz-adv-x="659" unicode="Ç"/>
			<glyph d="M169 708H575L568 666H213L169 387H482L475 346H163L115 43H486L479 0H57ZM320 915L482 812L461 787L293 880Z" horiz-adv-x="547" unicode="È"/>
			<glyph d="M169 708H575L568 666H213L169 387H482L475 346H163L115 43H486L479 0H57ZM462 915L480 876L301 785L288 814Z" horiz-adv-x="547" unicode="É"/>
			<glyph d="M169 708H575L568 666H213L169 387H482L475 346H163L115 43H486L479 0H57ZM377 906H419L526 808L504 785L395 872L257 785L239 809Z" horiz-adv-x="547" unicode="Ê"/>
			<glyph d="M169 708H575L568 666H213L169 387H482L475 346H163L115 43H486L479 0H57ZM305 893Q336 893 336 865Q336 846 326 834T295 822Q264 822 264 850Q264 868 274 880T305 893ZM475 893Q506 893 506 865Q506 846 496 834T465 822Q434 822 434 850Q434 868 444 880T475 893Z" horiz-adv-x="547" unicode="Ë"/>
			<glyph d="M130 708H351L345 668H260L161 41H245L239 0H18L24 41H110L209 668H124ZM200 915L362 812L341 787L173 880Z" horiz-adv-x="337" unicode="Ì"/>
			<glyph d="M130 708H351L345 668H260L161 41H245L239 0H18L24 41H110L209 668H124ZM342 915L360 876L181 785L168 814Z" horiz-adv-x="337" unicode="Í"/>
			<glyph d="M130 708H351L345 668H260L161 41H245L239 0H18L24 41H110L209 668H124ZM257 906H299L406 808L384 785L275 872L137 785L119 809Z" horiz-adv-x="337" unicode="Î"/>
			<glyph d="M130 708H351L345 668H260L161 41H245L239 0H18L24 41H110L209 668H124ZM185 893Q216 893 216 865Q216 846 206 834T175 822Q144 822 144 850Q144 868 154 880T185 893ZM355 893Q386 893 386 865Q386 846 376 834T345 822Q314 822 314 850Q314 868 324 880T355 893Z" horiz-adv-x="337" unicode="Ï"/>
			<glyph d="M169 708H375Q519 708 600 640T681 437Q681 305 632 206T490 54T266 0H57L110 335H25L31 371H116ZM213 665L167 371H332L326 335H161L115 43H266Q382 43 463 91T586 228T628 434Q628 551 561 608T365 665Z" horiz-adv-x="711" unicode="Ð"/>
			<glyph d="M169 708H229L585 67H587L686 708H736L624 0H564L209 642H207L106 0H57ZM423 874Q439 874 452 867T483 847Q498 836 507 831T526 826Q543 826 558 836T594 872L620 860Q597 823 573 806T523 790Q508 790 495 796T464 816Q448 828 439 833T419 838Q402 838 386 827T352 792L326 804Q371 874 423 874Z" horiz-adv-x="759" unicode="Ñ"/>
			<glyph d="M468 723Q609 723 685 644T761 433Q761 308 710 206T568 44T357 -15Q216 -15 140 63T64 276Q64 400 114 502T257 663T468 723ZM464 679Q359 679 280 625T159 480T117 278Q117 161 179 95T362 29Q466 29 545 83T666 228T708 431Q708 548 646 613T464 679ZM430 915L592 812L571 787L403 880Z" horiz-adv-x="793" unicode="Ò"/>
			<glyph d="M468 723Q609 723 685 644T761 433Q761 308 710 206T568 44T357 -15Q216 -15 140 63T64 276Q64 400 114 502T257 663T468 723ZM464 679Q359 679 280 625T159 480T117 278Q117 161 179 95T362 29Q466 29 545 83T666 228T708 431Q708 548 646 613T464 679ZM572 915L590 876L411 785L398 814Z" horiz-adv-x="793" unicode="Ó"/>
			<glyph d="M468 723Q609 723 685 644T761 433Q761 308 710 206T568 44T357 -15Q216 -15 140 63T64 276Q64 400 114 502T257 663T468 723ZM464 679Q359 679 280 625T159 480T117 278Q117 161 179 95T362 29Q466 29 545 83T666 228T708 431Q708 548 646 613T464 679ZM487 906H529L636 808L614 785L505 872L367 785L349 809Z" horiz-adv-x="793" unicode="Ô"/>
			<glyph d="M468 723Q609 723 685 644T761 433Q761 308 710 206T568 44T357 -15Q216 -15 140 63T64 276Q64 400 114 502T257 663T468 723ZM464 679Q359 679 280 625T159 480T117 278Q117 161 179 95T362 29Q466 29 545 83T666 228T708 431Q708 548 646 613T464 679ZM441 874Q457 874 470 867T501 847Q516 836 525 831T544 826Q561 826 576 836T612 872L638 860Q615 823 591 806T541 790Q526 790 513 796T482 816Q466 828 457 833T437 838Q420 838 404 827T370 792L344 804Q389 874 441 874Z" horiz-adv-x="793" unicode="Õ"/>
			<glyph d="M468 723Q609 723 685 644T761 433Q761 308 710 206T568 44T357 -15Q216 -15 140 63T64 276Q64 400 114 502T257 663T468 723ZM464 679Q359 679 280 625T159 480T117 278Q117 161 179 95T362 29Q466 29 545 83T666 228T708 431Q708 548 646 613T464 679ZM415 893Q446 893 446 865Q446 846 436 834T405 822Q374 822 374 850Q374 868 384 880T415 893ZM585 893Q616 893 616 865Q616 846 606 834T575 822Q544 822 544 850Q544 868 554 880T585 893Z" horiz-adv-x="793" unicode="Ö"/>
			<glyph d="M179 441L306 315L432 441L461 412L335 285L462 158L433 129L306 256L179 129L149 158L276 285L150 411Z" unicode="×"/>
			<glyph d="M567 787L611 778L580 707Q668 680 714 608T761 433Q761 308 710 206T568 44T357 -15Q319 -15 287 -9L257 -83L213 -74L246 1Q158 28 111 100T64 276Q64 400 114 502T257 663T468 723Q507 723 538 717ZM464 679Q359 679 280 625T159 480T117 278Q117 185 154 125T266 42L524 674Q494 679 464 679ZM560 666L303 34Q333 29 362 29Q466 29 545 83T666 228T708 431Q708 523 671 583T560 666Z" horiz-adv-x="793" unicode="Ø"/>
			<glyph d="M160 708H211L140 256Q134 223 134 194Q134 113 179 71T323 30Q437 30 499 88T580 257L652 708H703L631 253Q610 123 533 54T320 -15Q202 -15 142 38T82 190Q82 226 87 253ZM391 915L553 812L532 787L364 880Z" horiz-adv-x="718" unicode="Ù"/>
			<glyph d="M160 708H211L140 256Q134 223 134 194Q134 113 179 71T323 30Q437 30 499 88T580 257L652 708H703L631 253Q610 123 533 54T320 -15Q202 -15 142 38T82 190Q82 226 87 253ZM533 915L551 876L372 785L359 814Z" horiz-adv-x="718" unicode="Ú"/>
			<glyph d="M160 708H211L140 256Q134 223 134 194Q134 113 179 71T323 30Q437 30 499 88T580 257L652 708H703L631 253Q610 123 533 54T320 -15Q202 -15 142 38T82 190Q82 226 87 253ZM447 906H489L596 808L574 785L465 872L327 785L309 809Z" horiz-adv-x="718" unicode="Û"/>
			<glyph d="M160 708H211L140 256Q134 223 134 194Q134 113 179 71T323 30Q437 30 499 88T580 257L652 708H703L631 253Q610 123 533 54T320 -15Q202 -15 142 38T82 190Q82 226 87 253ZM376 893Q407 893 407 865Q407 846 397 834T366 822Q335 822 335 850Q335 868 345 880T376 893ZM546 893Q577 893 577 865Q577 846 567 834T536 822Q505 822 505 850Q505 868 515 880T546 893Z" horiz-adv-x="718" unicode="Ü"/>
			<glyph d="M68 708H124L275 351H277L540 708H600L296 306L247 0H196L245 308ZM435 915L453 876L274 785L261 814Z" horiz-adv-x="523" unicode="Ý"/>
			<glyph d="M169 708H221L202 591H366Q456 591 516 547T576 413Q576 337 540 277T442 184T304 151H133L109 0H57ZM196 549L140 193H307Q367 193 416 221T494 298T523 410Q523 483 476 516T359 549Z" horiz-adv-x="590" unicode="Þ"/>
			<glyph d="M361 722Q458 722 534 645L405 413Q469 398 512 356T555 240Q555 169 522 111T434 19T312 -14Q249 -14 197 11L216 46Q261 27 310 27Q366 27 410 55T479 133T504 239Q504 302 465 335T355 383L360 416L480 637Q452 662 422 672T358 683Q294 683 260 650T217 561L127 -6Q114 -89 93 -136T41 -210T-45 -257L-59 -218Q-17 -202 8 -179T49 -116T76 -6L151 460H59L64 492L157 499L167 561Q179 639 229 680T361 722Z" horiz-adv-x="596" unicode="ß"/>
			<glyph d="M350 513Q403 513 445 500T533 459L478 109Q471 56 467 0H421Q421 46 432 106H430Q396 44 344 15T231 -14Q146 -14 99 41T52 189Q52 282 88 355T192 471T350 513ZM350 472Q275 472 219 435T133 336T104 195Q104 118 140 72T242 27Q322 27 379 89T451 251L480 438Q425 472 350 472ZM307 736L466 611L442 586L276 702Z" horiz-adv-x="587" unicode="à"/>
			<glyph d="M350 513Q403 513 445 500T533 459L478 109Q471 56 467 0H421Q421 46 432 106H430Q396 44 344 15T231 -14Q146 -14 99 41T52 189Q52 282 88 355T192 471T350 513ZM350 472Q275 472 219 435T133 336T104 195Q104 118 140 72T242 27Q322 27 379 89T451 251L480 438Q425 472 350 472ZM432 736L454 697L283 586L265 615Z" horiz-adv-x="587" unicode="á"/>
			<glyph d="M350 513Q403 513 445 500T533 459L478 109Q471 56 467 0H421Q421 46 432 106H430Q396 44 344 15T231 -14Q146 -14 99 41T52 189Q52 282 88 355T192 471T350 513ZM350 472Q275 472 219 435T133 336T104 195Q104 118 140 72T242 27Q322 27 379 89T451 251L480 438Q425 472 350 472ZM357 727H400L503 607L481 586L376 692L234 586L214 609Z" horiz-adv-x="587" unicode="â"/>
			<glyph d="M350 513Q403 513 445 500T533 459L478 109Q471 56 467 0H421Q421 46 432 106H430Q396 44 344 15T231 -14Q146 -14 99 41T52 189Q52 282 88 355T192 471T350 513ZM350 472Q275 472 219 435T133 336T104 195Q104 118 140 72T242 27Q322 27 379 89T451 251L480 438Q425 472 350 472ZM307 677Q323 677 336 670T367 650Q382 639 391 634T410 629Q427 629 442 639T478 675L504 663Q481 626 457 609T407 593Q392 593 379 599T348 619Q332 631 323 636T303 641Q286 641 270 630T236 595L210 607Q255 677 307 677Z" horiz-adv-x="587" unicode="ã"/>
			<glyph d="M350 513Q403 513 445 500T533 459L478 109Q471 56 467 0H421Q421 46 432 106H430Q396 44 344 15T231 -14Q146 -14 99 41T52 189Q52 282 88 355T192 471T350 513ZM350 472Q275 472 219 435T133 336T104 195Q104 118 140 72T242 27Q322 27 379 89T451 251L480 438Q425 472 350 472ZM281 696Q312 696 312 668Q312 649 302 637T271 625Q240 625 240 653Q240 671 250 683T281 696ZM451 696Q482 696 482 668Q482 649 472 637T441 625Q410 625 410 653Q410 671 420 683T451 696Z" horiz-adv-x="587" unicode="ä"/>
			<glyph d="M350 513Q403 513 445 500T533 459L478 109Q471 56 467 0H421Q421 46 432 106H430Q396 44 344 15T231 -14Q146 -14 99 41T52 189Q52 282 88 355T192 471T350 513ZM350 472Q275 472 219 435T133 336T104 195Q104 118 140 72T242 27Q322 27 379 89T451 251L480 438Q425 472 350 472ZM375 770Q414 770 438 748T462 692Q462 643 430 611T348 579Q308 579 284 602T261 659Q261 707 294 738T375 770ZM372 740Q339 740 318 718T297 662Q297 638 311 624T351 610Q383 610 404 632T425 689Q425 712 411 726T372 740Z" horiz-adv-x="587" unicode="å"/>
			<glyph d="M299 513Q425 513 436 395Q469 452 522 482T646 513Q717 513 756 478T796 395Q796 297 696 261T423 223Q422 212 422 190Q422 29 560 29Q605 29 643 40T718 76L738 42Q694 13 649 0T552 -14Q480 -14 439 22T389 122Q356 54 302 20T184 -14Q113 -14 73 18T34 114Q34 222 125 262T388 302L393 335Q396 350 396 373Q396 473 292 473Q249 473 212 463T132 433L119 467Q209 513 299 513ZM640 474Q552 474 497 415T428 261Q529 264 596 274T703 313T744 394Q744 429 717 451T640 474ZM382 265Q289 265 226 255T125 213T87 118Q87 72 115 49T195 26Q244 26 281 50T340 109T368 177Z" horiz-adv-x="825" unicode="æ"/>
			<glyph d="M333 513Q378 513 418 499T487 461L463 428Q409 471 328 471Q258 471 207 433T129 333T103 195Q103 118 142 73T257 28Q328 28 404 73L423 38Q343 -13 255 -14L224 -76Q241 -72 261 -72Q293 -72 310 -88T328 -133Q328 -178 295 -205T210 -232Q157 -232 118 -208L134 -181Q152 -191 169 -195T210 -200Q246 -200 267 -183T288 -136Q288 -119 277 -109T245 -100Q226 -100 201 -107H171L220 -12Q136 -3 94 52T52 191Q52 280 86 353T184 470T333 513Z" horiz-adv-x="495" unicode="ç"/>
			<glyph d="M341 513Q420 513 457 479T494 394Q494 326 443 288T309 235T102 213Q101 206 101 190Q101 116 138 72T252 29Q301 29 340 40T417 76L436 42Q392 13 346 0T244 -14Q150 -14 100 40T51 188Q51 279 86 353T186 470T341 513ZM338 474Q242 474 181 412T106 252Q223 260 292 272T403 312T444 394Q444 474 338 474ZM292 736L451 611L427 586L261 702Z" horiz-adv-x="524" unicode="è"/>
			<glyph d="M341 513Q420 513 457 479T494 394Q494 326 443 288T309 235T102 213Q101 206 101 190Q101 116 138 72T252 29Q301 29 340 40T417 76L436 42Q392 13 346 0T244 -14Q150 -14 100 40T51 188Q51 279 86 353T186 470T341 513ZM338 474Q242 474 181 412T106 252Q223 260 292 272T403 312T444 394Q444 474 338 474ZM417 736L439 697L268 586L250 615Z" horiz-adv-x="524" unicode="é"/>
			<glyph d="M341 513Q420 513 457 479T494 394Q494 326 443 288T309 235T102 213Q101 206 101 190Q101 116 138 72T252 29Q301 29 340 40T417 76L436 42Q392 13 346 0T244 -14Q150 -14 100 40T51 188Q51 279 86 353T186 470T341 513ZM338 474Q242 474 181 412T106 252Q223 260 292 272T403 312T444 394Q444 474 338 474ZM342 727H385L488 607L466 586L361 692L219 586L199 609Z" horiz-adv-x="524" unicode="ê"/>
			<glyph d="M341 513Q420 513 457 479T494 394Q494 326 443 288T309 235T102 213Q101 206 101 190Q101 116 138 72T252 29Q301 29 340 40T417 76L436 42Q392 13 346 0T244 -14Q150 -14 100 40T51 188Q51 279 86 353T186 470T341 513ZM338 474Q242 474 181 412T106 252Q223 260 292 272T403 312T444 394Q444 474 338 474ZM266 696Q297 696 297 668Q297 649 287 637T256 625Q225 625 225 653Q225 671 235 683T266 696ZM436 696Q467 696 467 668Q467 649 457 637T426 625Q395 625 395 653Q395 671 405 683T436 696Z" horiz-adv-x="524" unicode="ë"/>
			<glyph d="M131 499H181L102 0H52ZM129 736L288 611L264 586L98 702Z" horiz-adv-x="234" unicode="ì"/>
			<glyph d="M131 499H181L102 0H52ZM254 736L276 697L105 586L87 615Z" horiz-adv-x="234" unicode="í"/>
			<glyph d="M131 499H181L102 0H52ZM179 727H222L325 607L303 586L198 692L56 586L36 609Z" horiz-adv-x="234" unicode="î"/>
			<glyph d="M131 499H181L102 0H52ZM103 696Q134 696 134 668Q134 649 124 637T93 625Q62 625 62 653Q62 671 72 683T103 696ZM273 696Q304 696 304 668Q304 649 294 637T263 625Q232 625 232 653Q232 671 242 683T273 696Z" horiz-adv-x="234" unicode="ï"/>
			<glyph d="M303 723Q366 701 409 676L505 723L517 694L440 656Q564 571 564 403Q564 358 557 316Q534 168 460 77T263 -14Q164 -14 107 39T50 183Q50 266 84 336T182 449T328 491Q391 491 438 462T515 380Q516 389 516 408Q516 554 396 635L289 582L277 611L364 654Q335 669 279 689ZM326 451Q258 451 207 414T129 317T102 186Q102 111 144 70T264 29Q365 29 425 108T507 324Q478 385 434 418T326 451Z" horiz-adv-x="609" unicode="ð"/>
			<glyph d="M366 513Q442 513 479 471T517 362Q517 337 513 317L463 0H413L461 308Q465 329 465 354Q465 471 354 471Q269 471 210 399T134 207L101 0H51L113 391Q119 427 124 499H170Q168 436 158 382H160Q187 441 241 477T366 513ZM314 677Q330 677 343 670T374 650Q389 639 398 634T417 629Q434 629 449 639T485 675L511 663Q488 626 464 609T414 593Q399 593 386 599T355 619Q339 631 330 636T310 641Q293 641 277 630T243 595L217 607Q262 677 314 677Z" horiz-adv-x="586" unicode="ñ"/>
			<glyph d="M332 513Q431 513 484 458T538 310Q538 221 503 147T404 29T257 -14Q158 -14 105 42T52 193Q52 282 86 355T184 470T332 513ZM329 473Q259 473 208 435T130 333T103 195Q103 118 142 72T259 27Q329 27 380 65T459 167T487 307Q487 384 447 428T329 473ZM307 736L466 611L442 586L276 702Z" horiz-adv-x="590" unicode="ò"/>
			<glyph d="M332 513Q431 513 484 458T538 310Q538 221 503 147T404 29T257 -14Q158 -14 105 42T52 193Q52 282 86 355T184 470T332 513ZM329 473Q259 473 208 435T130 333T103 195Q103 118 142 72T259 27Q329 27 380 65T459 167T487 307Q487 384 447 428T329 473ZM432 736L454 697L283 586L265 615Z" horiz-adv-x="590" unicode="ó"/>
			<glyph d="M332 513Q431 513 484 458T538 310Q538 221 503 147T404 29T257 -14Q158 -14 105 42T52 193Q52 282 86 355T184 470T332 513ZM329 473Q259 473 208 435T130 333T103 195Q103 118 142 72T259 27Q329 27 380 65T459 167T487 307Q487 384 447 428T329 473ZM357 727H400L503 607L481 586L376 692L234 586L214 609Z" horiz-adv-x="590" unicode="ô"/>
			<glyph d="M332 513Q431 513 484 458T538 310Q538 221 503 147T404 29T257 -14Q158 -14 105 42T52 193Q52 282 86 355T184 470T332 513ZM329 473Q259 473 208 435T130 333T103 195Q103 118 142 72T259 27Q329 27 380 65T459 167T487 307Q487 384 447 428T329 473ZM307 677Q323 677 336 670T367 650Q382 639 391 634T410 629Q427 629 442 639T478 675L504 663Q481 626 457 609T407 593Q392 593 379 599T348 619Q332 631 323 636T303 641Q286 641 270 630T236 595L210 607Q255 677 307 677Z" horiz-adv-x="590" unicode="õ"/>
			<glyph d="M332 513Q431 513 484 458T538 310Q538 221 503 147T404 29T257 -14Q158 -14 105 42T52 193Q52 282 86 355T184 470T332 513ZM329 473Q259 473 208 435T130 333T103 195Q103 118 142 72T259 27Q329 27 380 65T459 167T487 307Q487 384 447 428T329 473ZM281 696Q312 696 312 668Q312 649 302 637T271 625Q240 625 240 653Q240 671 250 683T281 696ZM451 696Q482 696 482 668Q482 649 472 637T441 625Q410 625 410 653Q410 671 420 683T451 696Z" horiz-adv-x="590" unicode="ö"/>
			<glyph d="M342 526Q373 526 373 499Q373 452 330 452Q298 452 298 480Q298 500 308 513T342 526ZM106 314H506L500 273H100ZM276 117Q307 117 307 90Q307 43 264 43Q232 43 232 71Q232 91 242 104T276 117Z" horiz-adv-x="596" unicode="÷"/>
			<glyph d="M408 582L451 573L419 499Q477 478 507 429T538 310Q538 221 503 147T404 29T257 -14Q229 -14 209 -10L180 -83L138 -74L169 0Q112 22 82 72T52 193Q52 282 86 355T184 470T332 513Q359 513 379 509ZM330 474Q259 474 207 436T129 334T103 194Q103 136 124 96T189 39L366 471Q349 474 330 474ZM400 462L221 29Q239 26 260 26Q331 26 382 64T461 167T488 309Q488 366 466 405T400 462Z" horiz-adv-x="590" unicode="ø"/>
			<glyph d="M123 499H173L124 191Q120 161 120 144Q120 91 147 59T233 28Q318 28 374 92T448 266L485 499H535L473 109Q465 60 461 0H416Q416 46 428 109H426Q398 53 345 19T226 -14Q148 -14 108 29T69 140Q69 163 73 186ZM304 736L463 611L439 586L273 702Z" horiz-adv-x="586" unicode="ù"/>
			<glyph d="M123 499H173L124 191Q120 161 120 144Q120 91 147 59T233 28Q318 28 374 92T448 266L485 499H535L473 109Q465 60 461 0H416Q416 46 428 109H426Q398 53 345 19T226 -14Q148 -14 108 29T69 140Q69 163 73 186ZM429 736L451 697L280 586L262 615Z" horiz-adv-x="586" unicode="ú"/>
			<glyph d="M123 499H173L124 191Q120 161 120 144Q120 91 147 59T233 28Q318 28 374 92T448 266L485 499H535L473 109Q465 60 461 0H416Q416 46 428 109H426Q398 53 345 19T226 -14Q148 -14 108 29T69 140Q69 163 73 186ZM354 727H397L500 607L478 586L373 692L231 586L211 609Z" horiz-adv-x="586" unicode="û"/>
			<glyph d="M123 499H173L124 191Q120 161 120 144Q120 91 147 59T233 28Q318 28 374 92T448 266L485 499H535L473 109Q465 60 461 0H416Q416 46 428 109H426Q398 53 345 19T226 -14Q148 -14 108 29T69 140Q69 163 73 186ZM278 696Q309 696 309 668Q309 649 299 637T268 625Q237 625 237 653Q237 671 247 683T278 696ZM448 696Q479 696 479 668Q479 649 469 637T438 625Q407 625 407 653Q407 671 417 683T448 696Z" horiz-adv-x="586" unicode="ü"/>
			<glyph d="M47 499H98L191 52H193L415 499H468L199 -27Q157 -109 127 -150T62 -216T-33 -258L-44 -219Q4 -204 36 -181T94 -121T153 -18L160 -3ZM355 736L377 697L206 586L188 615Z" horiz-adv-x="436" unicode="ý"/>
			<glyph d="M165 708H216L165 391H167Q195 448 248 480T368 513Q457 513 503 458T550 312Q550 224 516 149T420 30T278 -14Q222 -14 182 3T110 50L63 -244H13ZM357 473Q274 473 214 405T138 227L117 93Q154 58 189 42T276 27Q343 27 394 66T472 169T499 306Q499 382 462 427T357 473Z" horiz-adv-x="602" unicode="þ"/>
			<glyph d="M47 499H98L191 52H193L415 499H468L199 -27Q157 -109 127 -150T62 -216T-33 -258L-44 -219Q4 -204 36 -181T94 -121T153 -18L160 -3ZM204 696Q235 696 235 668Q235 649 225 637T194 625Q163 625 163 653Q163 671 173 683T204 696ZM374 696Q405 696 405 668Q405 649 395 637T364 625Q333 625 333 653Q333 671 343 683T374 696Z" horiz-adv-x="436" unicode="ÿ"/>
			<glyph d="M362 708H420L587 0H532L490 189H129L27 0H-30ZM385 663L151 230H481ZM288 850H539L533 814H282Z" horiz-adv-x="637" unicode="Ā"/>
			<glyph d="M350 513Q403 513 445 500T533 459L478 109Q471 56 467 0H421Q421 46 432 106H430Q396 44 344 15T231 -14Q146 -14 99 41T52 189Q52 282 88 355T192 471T350 513ZM350 472Q275 472 219 435T133 336T104 195Q104 118 140 72T242 27Q322 27 379 89T451 251L480 438Q425 472 350 472ZM234 653H485L479 617H228Z" horiz-adv-x="587" unicode="ā"/>
			<glyph d="M362 708H420L587 0H532L490 189H129L27 0H-30ZM385 663L151 230H481ZM311 891Q316 854 338 835T399 816Q476 816 511 891L543 887Q525 835 486 806T395 778Q342 778 312 806T279 887Z" horiz-adv-x="637" unicode="Ă"/>
			<glyph d="M350 513Q403 513 445 500T533 459L478 109Q471 56 467 0H421Q421 46 432 106H430Q396 44 344 15T231 -14Q146 -14 99 41T52 189Q52 282 88 355T192 471T350 513ZM350 472Q275 472 219 435T133 336T104 195Q104 118 140 72T242 27Q322 27 379 89T451 251L480 438Q425 472 350 472ZM267 709Q274 619 354 619Q393 619 421 640T467 709L501 705Q462 580 352 580Q296 580 265 612T234 705Z" horiz-adv-x="587" unicode="ă"/>
			<glyph d="M362 708H420L587 0H574Q447 -73 447 -148Q447 -170 460 -182T499 -194Q533 -194 567 -176L579 -206Q536 -230 491 -230Q453 -230 429 -210T406 -156Q406 -108 442 -66T531 3L490 189H129L27 0H-30ZM385 663L151 230H481Z" horiz-adv-x="637" unicode="Ą"/>
			<glyph d="M350 513Q403 513 445 500T533 459L478 109Q471 56 467 0H462Q335 -73 335 -148Q335 -170 348 -182T387 -194Q421 -194 455 -176L467 -206Q424 -230 379 -230Q341 -230 317 -210T294 -156Q294 -108 331 -66T421 4Q421 49 432 106H430Q396 44 344 15T231 -14Q146 -14 99 41T52 189Q52 282 88 355T192 471T350 513ZM350 472Q275 472 219 435T133 336T104 195Q104 118 140 72T242 27Q322 27 379 89T451 251L480 438Q425 472 350 472Z" horiz-adv-x="587" unicode="ą"/>
			<glyph d="M466 724Q532 724 587 702T682 640L649 610Q575 679 461 679Q358 679 280 625T160 480T118 280Q118 166 179 98T359 31Q419 31 476 53T581 116L609 82Q497 -15 351 -15Q260 -15 195 21T97 121T64 273Q64 399 114 501T255 664T466 724ZM544 915L562 876L383 785L370 814Z" horiz-adv-x="659" unicode="Ć"/>
			<glyph d="M333 513Q378 513 418 499T487 461L463 428Q409 471 328 471Q258 471 207 433T129 333T103 195Q103 118 142 73T257 28Q328 28 404 73L423 38Q342 -14 250 -14Q152 -14 102 42T52 191Q52 280 86 353T184 470T333 513ZM420 736L442 697L271 586L253 615Z" horiz-adv-x="495" unicode="ć"/>
			<glyph d="M466 724Q532 724 587 702T682 640L649 610Q575 679 461 679Q358 679 280 625T160 480T118 280Q118 166 179 98T359 31Q419 31 476 53T581 116L609 82Q497 -15 351 -15Q260 -15 195 21T97 121T64 273Q64 399 114 501T255 664T466 724ZM459 906H501L608 808L586 785L477 872L339 785L321 809Z" horiz-adv-x="659" unicode="Ĉ"/>
			<glyph d="M333 513Q378 513 418 499T487 461L463 428Q409 471 328 471Q258 471 207 433T129 333T103 195Q103 118 142 73T257 28Q328 28 404 73L423 38Q342 -14 250 -14Q152 -14 102 42T52 191Q52 280 86 353T184 470T333 513ZM345 727H388L491 607L469 586L364 692L222 586L202 609Z" horiz-adv-x="495" unicode="ĉ"/>
			<glyph d="M466 724Q532 724 587 702T682 640L649 610Q575 679 461 679Q358 679 280 625T160 480T118 280Q118 166 179 98T359 31Q419 31 476 53T581 116L609 82Q497 -15 351 -15Q260 -15 195 21T97 121T64 273Q64 399 114 501T255 664T466 724ZM474 899Q507 899 507 871Q507 852 496 839T463 826Q430 826 430 853Q430 873 440 886T474 899Z" horiz-adv-x="659" unicode="Ċ"/>
			<glyph d="M333 513Q378 513 418 499T487 461L463 428Q409 471 328 471Q258 471 207 433T129 333T103 195Q103 118 142 73T257 28Q328 28 404 73L423 38Q342 -14 250 -14Q152 -14 102 42T52 191Q52 280 86 353T184 470T333 513ZM357 721Q390 721 390 693Q390 674 379 661T346 648Q313 648 313 675Q313 695 323 708T357 721Z" horiz-adv-x="495" unicode="ċ"/>
			<glyph d="M466 724Q532 724 587 702T682 640L649 610Q575 679 461 679Q358 679 280 625T160 480T118 280Q118 166 179 98T359 31Q419 31 476 53T581 116L609 82Q497 -15 351 -15Q260 -15 195 21T97 121T64 273Q64 399 114 501T255 664T466 724ZM590 908L608 883L470 786H428L321 884L344 907L452 820Z" horiz-adv-x="659" unicode="Č"/>
			<glyph d="M333 513Q378 513 418 499T487 461L463 428Q409 471 328 471Q258 471 207 433T129 333T103 195Q103 118 142 73T257 28Q328 28 404 73L423 38Q342 -14 250 -14Q152 -14 102 42T52 191Q52 280 86 353T184 470T333 513ZM226 728L331 621L472 728L492 705L349 587H307L203 706Z" horiz-adv-x="495" unicode="č"/>
			<glyph d="M169 708H375Q519 708 600 640T681 437Q681 305 632 206T490 54T266 0H57ZM213 665L115 43H266Q382 43 463 91T586 228T628 434Q628 551 561 608T365 665ZM524 908L542 883L404 786H362L255 884L278 907L386 820Z" horiz-adv-x="712" unicode="Ď"/>
			<glyph d="M532 708H582L487 109Q478 53 476 0H429Q431 51 441 106H439Q405 44 352 15T238 -14Q148 -14 99 41T51 189Q51 275 84 349T179 468T321 513Q378 513 418 496T490 447ZM321 472Q257 472 207 433T130 330T103 195Q103 118 141 72T249 27Q330 27 387 89T459 251L483 402Q420 472 321 472ZM662 723L704 710L643 556L612 563Z" horiz-adv-x="639" unicode="ď"/>
			<glyph d="M169 708H375Q519 708 600 640T681 437Q681 305 632 206T490 54T266 0H57L110 335H25L31 371H116ZM213 665L167 371H332L326 335H161L115 43H266Q382 43 463 91T586 228T628 434Q628 551 561 608T365 665Z" horiz-adv-x="711" unicode="Đ"/>
			<glyph d="M532 708H582L570 633H650L644 597H564L487 109Q478 53 476 0H429Q431 51 441 106H439Q405 44 352 15T238 -14Q148 -14 99 41T51 189Q51 275 84 349T179 468T321 513Q378 513 418 496T490 447L514 597H355L361 633H520ZM321 472Q257 472 207 433T130 330T103 195Q103 118 141 72T249 27Q330 27 387 89T459 251L483 402Q420 472 321 472Z" horiz-adv-x="603" unicode="đ"/>
			<glyph d="M169 708H575L568 666H213L169 387H482L475 346H163L115 43H486L479 0H57ZM258 850H509L503 814H252Z" horiz-adv-x="547" unicode="Ē"/>
			<glyph d="M341 513Q420 513 457 479T494 394Q494 326 443 288T309 235T102 213Q101 206 101 190Q101 116 138 72T252 29Q301 29 340 40T417 76L436 42Q392 13 346 0T244 -14Q150 -14 100 40T51 188Q51 279 86 353T186 470T341 513ZM338 474Q242 474 181 412T106 252Q223 260 292 272T403 312T444 394Q444 474 338 474ZM219 653H470L464 617H213Z" horiz-adv-x="524" unicode="ē"/>
			<glyph d="M169 708H575L568 666H213L169 387H482L475 346H163L115 43H486L479 0H57ZM281 891Q286 854 308 835T369 816Q446 816 481 891L513 887Q495 835 456 806T365 778Q312 778 282 806T249 887Z" horiz-adv-x="547" unicode="Ĕ"/>
			<glyph d="M341 513Q420 513 457 479T494 394Q494 326 443 288T309 235T102 213Q101 206 101 190Q101 116 138 72T252 29Q301 29 340 40T417 76L436 42Q392 13 346 0T244 -14Q150 -14 100 40T51 188Q51 279 86 353T186 470T341 513ZM338 474Q242 474 181 412T106 252Q223 260 292 272T403 312T444 394Q444 474 338 474ZM253 709Q260 619 340 619Q379 619 407 640T453 709L487 705Q448 580 338 580Q282 580 251 612T220 705Z" horiz-adv-x="524" unicode="ĕ"/>
			<glyph d="M169 708H575L568 666H213L169 387H482L475 346H163L115 43H486L479 0H57ZM392 899Q425 899 425 871Q425 852 414 839T381 826Q348 826 348 853Q348 873 358 886T392 899Z" horiz-adv-x="547" unicode="Ė"/>
			<glyph d="M341 513Q420 513 457 479T494 394Q494 326 443 288T309 235T102 213Q101 206 101 190Q101 116 138 72T252 29Q301 29 340 40T417 76L436 42Q392 13 346 0T244 -14Q150 -14 100 40T51 188Q51 279 86 353T186 470T341 513ZM338 474Q242 474 181 412T106 252Q223 260 292 272T403 312T444 394Q444 474 338 474ZM354 721Q387 721 387 693Q387 674 376 661T343 648Q310 648 310 675Q310 695 320 708T354 721Z" horiz-adv-x="524" unicode="ė"/>
			<glyph d="M169 708H575L568 666H213L169 387H482L475 346H163L115 43H486L479 0H446Q319 -73 319 -148Q319 -170 332 -182T371 -194Q405 -194 439 -176L451 -206Q407 -230 363 -230Q325 -230 301 -210T278 -156Q278 -110 312 -69T398 0H57Z" horiz-adv-x="547" unicode="Ę"/>
			<glyph d="M341 513Q420 513 457 479T494 394Q494 326 443 288T309 235T102 213Q101 206 101 190Q101 116 138 72T252 29Q301 29 340 40T417 76L436 42Q391 14 353 2Q287 -37 250 -73T214 -151Q214 -173 227 -185T266 -197Q300 -197 334 -179L346 -209Q302 -233 258 -233Q220 -233 196 -213T173 -159Q173 -76 288 -12Q260 -14 244 -14Q150 -14 100 40T51 188Q51 279 86 353T186 470T341 513ZM338 474Q242 474 181 412T106 252Q223 260 292 272T403 312T444 394Q444 474 338 474Z" horiz-adv-x="524" unicode="ę"/>
			<glyph d="M169 708H575L568 666H213L169 387H482L475 346H163L115 43H486L479 0H57ZM508 908L526 883L388 786H346L239 884L262 907L370 820Z" horiz-adv-x="547" unicode="Ě"/>
			<glyph d="M341 513Q420 513 457 479T494 394Q494 326 443 288T309 235T102 213Q101 206 101 190Q101 116 138 72T252 29Q301 29 340 40T417 76L436 42Q392 13 346 0T244 -14Q150 -14 100 40T51 188Q51 279 86 353T186 470T341 513ZM338 474Q242 474 181 412T106 252Q223 260 292 272T403 312T444 394Q444 474 338 474ZM223 728L328 621L469 728L489 705L346 587H304L200 706Z" horiz-adv-x="524" unicode="ě"/>
			<glyph d="M470 723Q601 723 688 638L656 608Q579 679 468 679Q363 679 283 624T160 478T117 276Q117 160 178 94T362 28Q423 28 472 41T573 79L607 302H432L438 343H663L616 50Q553 19 492 2T355 -15Q213 -15 138 62T64 271Q64 397 114 500T257 663T470 723ZM467 906H509L616 808L594 785L485 872L347 785L329 809Z" horiz-adv-x="734" unicode="Ĝ"/>
			<glyph d="M348 513Q401 513 444 500T533 459L461 -13Q444 -128 378 -193T200 -258Q151 -258 106 -243T31 -202L55 -168Q118 -216 200 -216Q289 -216 343 -163T412 -15L432 107H430Q396 45 344 16T231 -12Q146 -12 99 42T52 190Q52 283 88 356T191 471T348 513ZM347 472Q272 472 217 435T133 336T104 196Q104 119 140 73T242 28Q322 28 379 90T451 251L479 438Q427 472 347 472ZM356 727H399L502 607L480 586L375 692L233 586L213 609Z" horiz-adv-x="584" unicode="ĝ"/>
			<glyph d="M470 723Q601 723 688 638L656 608Q579 679 468 679Q363 679 283 624T160 478T117 276Q117 160 178 94T362 28Q423 28 472 41T573 79L607 302H432L438 343H663L616 50Q553 19 492 2T355 -15Q213 -15 138 62T64 271Q64 397 114 500T257 663T470 723ZM371 891Q376 854 398 835T459 816Q536 816 571 891L603 887Q585 835 546 806T455 778Q402 778 372 806T339 887Z" horiz-adv-x="734" unicode="Ğ"/>
			<glyph d="M348 513Q401 513 444 500T533 459L461 -13Q444 -128 378 -193T200 -258Q151 -258 106 -243T31 -202L55 -168Q118 -216 200 -216Q289 -216 343 -163T412 -15L432 107H430Q396 45 344 16T231 -12Q146 -12 99 42T52 190Q52 283 88 356T191 471T348 513ZM347 472Q272 472 217 435T133 336T104 196Q104 119 140 73T242 28Q322 28 379 90T451 251L479 438Q427 472 347 472ZM266 709Q273 619 353 619Q392 619 420 640T466 709L500 705Q461 580 351 580Q295 580 264 612T233 705Z" horiz-adv-x="584" unicode="ğ"/>
			<glyph d="M470 723Q601 723 688 638L656 608Q579 679 468 679Q363 679 283 624T160 478T117 276Q117 160 178 94T362 28Q423 28 472 41T573 79L607 302H432L438 343H663L616 50Q553 19 492 2T355 -15Q213 -15 138 62T64 271Q64 397 114 500T257 663T470 723ZM481 899Q514 899 514 871Q514 852 503 839T470 826Q437 826 437 853Q437 873 447 886T481 899Z" horiz-adv-x="734" unicode="Ġ"/>
			<glyph d="M348 513Q401 513 444 500T533 459L461 -13Q444 -128 378 -193T200 -258Q151 -258 106 -243T31 -202L55 -168Q118 -216 200 -216Q289 -216 343 -163T412 -15L432 107H430Q396 45 344 16T231 -12Q146 -12 99 42T52 190Q52 283 88 356T191 471T348 513ZM347 472Q272 472 217 435T133 336T104 196Q104 119 140 73T242 28Q322 28 379 90T451 251L479 438Q427 472 347 472ZM368 721Q401 721 401 693Q401 674 390 661T357 648Q324 648 324 675Q324 695 334 708T368 721Z" horiz-adv-x="584" unicode="ġ"/>
			<glyph d="M470 723Q601 723 688 638L656 608Q579 679 468 679Q363 679 283 624T160 478T117 276Q117 160 178 94T362 28Q423 28 472 41T573 79L607 302H432L438 343H663L616 50Q553 19 492 2T355 -15Q213 -15 138 62T64 271Q64 397 114 500T257 663T470 723ZM336 -67Q367 -67 367 -98Q367 -102 365 -114Q358 -151 343 -179T296 -248L277 -234Q300 -199 311 -177T326 -131Q312 -130 305 -122T298 -104Q298 -88 308 -77T336 -67Z" horiz-adv-x="734" unicode="Ģ"/>
			<glyph d="M348 513Q401 513 444 500T533 459L461 -13Q444 -128 378 -193T200 -258Q151 -258 106 -243T31 -202L55 -168Q118 -216 200 -216Q289 -216 343 -163T412 -15L432 107H430Q396 45 344 16T231 -12Q146 -12 99 42T52 190Q52 283 88 356T191 471T348 513ZM347 472Q272 472 217 435T133 336T104 196Q104 119 140 73T242 28Q322 28 379 90T451 251L479 438Q427 472 347 472ZM387 805L406 791Q383 756 372 734T357 688Q371 687 378 679T385 661Q385 645 375 634T347 624Q316 624 316 655Q316 660 318 671Q325 708 340 736T387 805Z" horiz-adv-x="584" unicode="ģ"/>
			<glyph d="M169 708H221L170 387H591L642 708H694L582 0H530L584 344H163L109 0H57ZM447 906H489L596 808L574 785L465 872L327 785L309 809Z" horiz-adv-x="717" unicode="Ĥ"/>
			<glyph d="M164 708H214L161 386H163Q189 442 243 477T367 513Q443 513 480 471T518 362Q518 337 514 317L463 0H413L462 308Q466 329 466 354Q466 471 355 471Q270 471 211 399T135 207L102 0H52ZM381 906H423L530 808L508 785L399 872L261 785L243 809Z" horiz-adv-x="587" unicode="ĥ"/>
			<glyph d="M169 708H221L202 589H623L642 708H694L675 589H766L760 553H669L582 0H530L584 344H163L109 0H57L144 553H52L58 589H150ZM196 553L170 387H591L617 553Z" horiz-adv-x="717" unicode="Ħ"/>
			<glyph d="M164 708H214L202 633H362L356 597H196L161 386H163Q189 442 243 477T367 513Q443 513 480 471T518 362Q518 337 514 317L463 0H413L462 308Q466 329 466 354Q466 471 355 471Q270 471 211 399T135 207L102 0H52L146 597H67L73 633H152Z" horiz-adv-x="587" unicode="ħ"/>
			<glyph d="M130 708H351L345 668H260L161 41H245L239 0H18L24 41H110L209 668H124ZM211 874Q227 874 240 867T271 847Q286 836 295 831T314 826Q331 826 346 836T382 872L408 860Q385 823 361 806T311 790Q296 790 283 796T252 816Q236 828 227 833T207 838Q190 838 174 827T140 792L114 804Q159 874 211 874Z" horiz-adv-x="337" unicode="Ĩ"/>
			<glyph d="M131 499H181L102 0H52ZM129 677Q145 677 158 670T189 650Q204 639 213 634T232 629Q249 629 264 639T300 675L326 663Q303 626 279 609T229 593Q214 593 201 599T170 619Q154 631 145 636T125 641Q108 641 92 630T58 595L32 607Q77 677 129 677Z" horiz-adv-x="234" unicode="ĩ"/>
			<glyph d="M130 708H351L345 668H260L161 41H245L239 0H18L24 41H110L209 668H124ZM138 850H389L383 814H132Z" horiz-adv-x="337" unicode="Ī"/>
			<glyph d="M131 499H181L102 0H52ZM56 653H307L301 617H50Z" horiz-adv-x="234" unicode="ī"/>
			<glyph d="M130 708H351L345 668H260L161 41H245L239 0H18L24 41H110L209 668H124ZM161 891Q166 854 188 835T249 816Q326 816 361 891L393 887Q375 835 336 806T245 778Q192 778 162 806T129 887Z" horiz-adv-x="337" unicode="Ĭ"/>
			<glyph d="M131 499H181L102 0H52ZM89 709Q96 619 176 619Q215 619 243 640T289 709L323 705Q284 580 174 580Q118 580 87 612T56 705Z" horiz-adv-x="234" unicode="ĭ"/>
			<glyph d="M130 708H351L345 668H260L161 41H245L239 0H148Q21 -73 21 -148Q21 -170 34 -182T73 -194Q107 -194 141 -176L153 -206Q109 -230 65 -230Q27 -230 3 -210T-20 -156Q-20 -110 14 -69T100 0H18L24 41H110L209 668H124Z" horiz-adv-x="337" unicode="Į"/>
			<glyph d="M191 721Q224 721 224 693Q224 674 213 661T180 648Q147 648 147 675Q147 695 157 708T191 721ZM131 499H181L102 0H96Q-31 -73 -31 -148Q-31 -170 -17 -182T21 -194Q55 -194 89 -176L101 -206Q57 -230 13 -230Q-25 -230 -48 -210T-72 -156Q-72 -108 -36 -67T52 2Z" horiz-adv-x="234" unicode="į"/>
			<glyph d="M130 708H351L345 668H260L161 41H245L239 0H18L24 41H110L209 668H124ZM271 899Q304 899 304 871Q304 852 293 839T260 826Q227 826 227 853Q227 873 237 886T271 899Z" horiz-adv-x="337" unicode="İ"/>
			<glyph d="M131 499H181L102 0H52Z" horiz-adv-x="234" unicode="ı"/>
			<glyph d="M130 708H351L345 668H260L161 41H245L239 0H18L24 41H110L209 668H124ZM673 708H725L644 194Q629 100 575 42T428 -15Q359 -15 308 17L331 53Q376 29 428 29Q499 29 540 74T592 194Z" horiz-adv-x="740" unicode="Ĳ"/>
			<glyph d="M191 721Q224 721 224 693Q224 674 213 661T180 648Q147 648 147 675Q147 695 157 708T191 721ZM425 721Q458 721 458 693Q458 674 447 661T414 648Q381 648 381 675Q381 695 391 708T425 721ZM131 499H181L102 0H52ZM365 499H415L335 -6Q322 -89 302 -136T249 -210T163 -257L149 -218Q192 -202 217 -180T258 -117T285 -6Z" horiz-adv-x="469" unicode="ĳ"/>
			<glyph d="M336 708H388L307 194Q292 100 238 42T91 -15Q22 -15 -29 17L-6 53Q39 29 91 29Q162 29 203 74T255 194ZM373 906H415L522 808L500 785L391 872L253 785L235 809Z" horiz-adv-x="403" unicode="Ĵ"/>
			<glyph d="M131 499H181L101 -6Q88 -89 68 -136T15 -210T-71 -257L-85 -218Q-42 -202 -17 -180T24 -117T51 -6ZM179 727H222L325 607L303 586L198 692L56 586L36 609Z" horiz-adv-x="234" unicode="ĵ"/>
			<glyph d="M169 708H221L166 360L550 708H614L255 384L522 0H464L221 353L155 294L109 0H57ZM244 -67Q275 -67 275 -98Q275 -102 273 -114Q266 -151 251 -179T204 -248L185 -234Q208 -199 219 -177T234 -131Q220 -130 213 -122T206 -104Q206 -88 216 -77T244 -67Z" horiz-adv-x="572" unicode="Ķ"/>
			<glyph d="M164 708H214L145 270L424 499H490L236 293L437 0H380L200 263L135 210L102 0H52ZM221 -67Q252 -67 252 -98Q252 -102 250 -114Q243 -151 228 -179T181 -248L162 -234Q185 -199 196 -177T211 -131Q197 -130 190 -122T183 -104Q183 -88 193 -77T221 -67Z" horiz-adv-x="480" unicode="ķ"/>
			<glyph d="M132 499H182L145 271L424 499H490L236 293L437 0H380L200 263L136 211L102 0H52Z" horiz-adv-x="493" unicode="ĸ"/>
			<glyph d="M169 708H221L115 44H448L441 0H57ZM299 915L317 876L138 785L125 814Z" horiz-adv-x="485" unicode="Ĺ"/>
			<glyph d="M164 708H214L102 0H52ZM291 915L309 876L130 785L117 814Z" horiz-adv-x="234" unicode="ĺ"/>
			<glyph d="M169 708H221L115 44H448L441 0H57ZM243 -67Q274 -67 274 -98Q274 -102 272 -114Q265 -151 250 -179T203 -248L184 -234Q207 -199 218 -177T233 -131Q219 -130 212 -122T205 -104Q205 -88 215 -77T243 -67Z" horiz-adv-x="485" unicode="Ļ"/>
			<glyph d="M164 708H214L102 0H52ZM74 -67Q105 -67 105 -98Q105 -102 103 -114Q96 -151 81 -179T34 -248L15 -234Q38 -199 49 -177T64 -131Q50 -130 43 -122T36 -104Q36 -88 46 -77T74 -67Z" horiz-adv-x="234" unicode="ļ"/>
			<glyph d="M169 708H221L115 44H448L441 0H57ZM336 723L378 710L317 556L286 563Z" horiz-adv-x="485" unicode="Ľ"/>
			<glyph d="M164 708H214L102 0H52ZM294 723L336 710L275 556L244 563Z" horiz-adv-x="272" unicode="ľ"/>
			<glyph d="M169 708H221L115 44H448L441 0H57ZM379 419Q412 419 412 391Q412 372 401 359T368 346Q335 346 335 373Q335 393 345 406T379 419Z" horiz-adv-x="485" unicode="Ŀ"/>
			<glyph d="M164 708H214L102 0H52ZM259 377Q292 377 292 349Q292 330 281 317T248 304Q215 304 215 331Q215 351 225 364T259 377Z" horiz-adv-x="246" unicode="ŀ"/>
			<glyph d="M169 708H221L165 354L395 470L408 435L157 309L115 44H448L441 0H57L101 281L41 251L29 286L109 326Z" horiz-adv-x="485" unicode="Ł"/>
			<glyph d="M167 708H217L162 359L237 397L248 364L155 317L105 0H55L101 289L28 252L17 285L107 331Z" horiz-adv-x="243" unicode="ł"/>
			<glyph d="M169 708H229L585 67H587L686 708H736L624 0H564L209 642H207L106 0H57ZM554 915L572 876L393 785L380 814Z" horiz-adv-x="759" unicode="Ń"/>
			<glyph d="M366 513Q442 513 479 471T517 362Q517 337 513 317L463 0H413L461 308Q465 329 465 354Q465 471 354 471Q269 471 210 399T134 207L101 0H51L113 391Q119 427 124 499H170Q168 436 158 382H160Q187 441 241 477T366 513ZM439 736L461 697L290 586L272 615Z" horiz-adv-x="586" unicode="ń"/>
			<glyph d="M169 708H229L585 67H587L686 708H736L624 0H564L209 642H207L106 0H57ZM337 -67Q368 -67 368 -98Q368 -102 366 -114Q359 -151 344 -179T297 -248L278 -234Q301 -199 312 -177T327 -131Q313 -130 306 -122T299 -104Q299 -88 309 -77T337 -67Z" horiz-adv-x="759" unicode="Ņ"/>
			<glyph d="M366 513Q442 513 479 471T517 362Q517 337 513 317L463 0H413L461 308Q465 329 465 354Q465 471 354 471Q269 471 210 399T134 207L101 0H51L113 391Q119 427 124 499H170Q168 436 158 382H160Q187 441 241 477T366 513ZM249 -67Q280 -67 280 -98Q280 -102 278 -114Q271 -151 256 -179T209 -248L190 -234Q213 -199 224 -177T239 -131Q225 -130 218 -122T211 -104Q211 -88 221 -77T249 -67Z" horiz-adv-x="586" unicode="ņ"/>
			<glyph d="M169 708H229L585 67H587L686 708H736L624 0H564L209 642H207L106 0H57ZM599 908L617 883L479 786H437L330 884L353 907L461 820Z" horiz-adv-x="759" unicode="Ň"/>
			<glyph d="M366 513Q442 513 479 471T517 362Q517 337 513 317L463 0H413L461 308Q465 329 465 354Q465 471 354 471Q269 471 210 399T134 207L101 0H51L113 391Q119 427 124 499H170Q168 436 158 382H160Q187 441 241 477T366 513ZM245 728L350 621L491 728L511 705L368 587H326L222 706Z" horiz-adv-x="586" unicode="ň"/>
			<glyph d="M366 513Q442 513 479 471T517 362Q517 337 513 317L463 0H413L461 308Q465 329 465 354Q465 471 354 471Q269 471 210 399T134 207L101 0H51L113 391Q119 427 124 499H170Q168 436 158 382H160Q187 441 241 477T366 513ZM187 765Q218 765 218 734Q218 730 216 718Q209 682 194 654T147 584L128 598Q152 636 162 656T177 702Q149 705 149 729Q149 744 159 754T187 765Z" horiz-adv-x="586" unicode="ŉ"/>
			<glyph d="M169 708H229L585 67H587L686 708H736L624 0Q610 -85 589 -134T537 -210T451 -257L437 -218Q481 -201 506 -176T546 -111T573 0H564L209 642H207L106 0H57Z" horiz-adv-x="759" unicode="Ŋ"/>
			<glyph d="M366 513Q442 513 479 471T517 362Q517 337 513 317L462 -5Q449 -87 428 -135T376 -210T290 -257L277 -218Q318 -202 343 -179T385 -116T412 -5L461 308Q465 329 465 354Q465 471 354 471Q269 471 210 399T134 207L101 0H51L113 391Q119 427 124 499H170Q168 436 158 382H160Q187 441 242 477T366 513Z" horiz-adv-x="586" unicode="ŋ"/>
			<glyph d="M468 723Q609 723 685 644T761 433Q761 308 710 206T568 44T357 -15Q216 -15 140 63T64 276Q64 400 114 502T257 663T468 723ZM464 679Q359 679 280 625T159 480T117 278Q117 161 179 95T362 29Q466 29 545 83T666 228T708 431Q708 548 646 613T464 679ZM368 850H619L613 814H362Z" horiz-adv-x="793" unicode="Ō"/>
			<glyph d="M332 513Q431 513 484 458T538 310Q538 221 503 147T404 29T257 -14Q158 -14 105 42T52 193Q52 282 86 355T184 470T332 513ZM329 473Q259 473 208 435T130 333T103 195Q103 118 142 72T259 27Q329 27 380 65T459 167T487 307Q487 384 447 428T329 473ZM234 653H485L479 617H228Z" horiz-adv-x="590" unicode="ō"/>
			<glyph d="M468 723Q609 723 685 644T761 433Q761 308 710 206T568 44T357 -15Q216 -15 140 63T64 276Q64 400 114 502T257 663T468 723ZM464 679Q359 679 280 625T159 480T117 278Q117 161 179 95T362 29Q466 29 545 83T666 228T708 431Q708 548 646 613T464 679ZM391 891Q396 854 418 835T479 816Q556 816 591 891L623 887Q605 835 566 806T475 778Q422 778 392 806T359 887Z" horiz-adv-x="793" unicode="Ŏ"/>
			<glyph d="M332 513Q431 513 484 458T538 310Q538 221 503 147T404 29T257 -14Q158 -14 105 42T52 193Q52 282 86 355T184 470T332 513ZM329 473Q259 473 208 435T130 333T103 195Q103 118 142 72T259 27Q329 27 380 65T459 167T487 307Q487 384 447 428T329 473ZM267 709Q274 619 354 619Q393 619 421 640T467 709L501 705Q462 580 352 580Q296 580 265 612T234 705Z" horiz-adv-x="590" unicode="ŏ"/>
			<glyph d="M468 723Q609 723 685 644T761 433Q761 308 710 206T568 44T357 -15Q216 -15 140 63T64 276Q64 400 114 502T257 663T468 723ZM464 679Q359 679 280 625T159 480T117 278Q117 161 179 95T362 29Q466 29 545 83T666 228T708 431Q708 548 646 613T464 679ZM474 942L509 922L391 776L368 790ZM590 934L622 912L500 771L476 787Z" horiz-adv-x="793" unicode="Ő"/>
			<glyph d="M332 513Q431 513 484 458T538 310Q538 221 503 147T404 29T257 -14Q158 -14 105 42T52 193Q52 282 86 355T184 470T332 513ZM329 473Q259 473 208 435T130 333T103 195Q103 118 142 72T259 27Q329 27 380 65T459 167T487 307Q487 384 447 428T329 473ZM339 745L374 725L256 579L233 593ZM455 737L487 715L365 574L341 590Z" horiz-adv-x="590" unicode="ő"/>
			<glyph d="M453 723Q511 723 555 708H1019L1012 666H615Q664 631 689 572T715 436Q715 419 713 387H926L919 346H708Q692 248 644 167T523 43H930L923 0H443Q397 -15 342 -15Q254 -15 191 20T96 121T64 273Q64 396 112 499T248 662T453 723ZM451 679Q350 679 274 624T157 477T117 279Q117 165 177 97T349 29Q445 29 516 86T625 236T663 437Q663 548 608 613T451 679Z" horiz-adv-x="992" unicode="Œ"/>
			<glyph d="M322 513Q400 513 446 473T505 362Q537 434 595 473T735 513Q806 513 845 478T885 395Q885 297 785 261T512 223Q511 212 511 190Q511 29 649 29Q694 29 732 40T808 76L827 42Q783 13 738 0T641 -14Q565 -14 522 25T472 135Q438 65 380 25T248 -14Q156 -14 104 42T52 194Q52 282 85 355T180 470T322 513ZM729 474Q641 474 586 415T517 261Q618 264 685 274T793 313T834 394Q834 429 806 451T729 474ZM320 473Q254 473 204 434T129 332T103 195Q103 118 140 72T250 27Q316 27 366 65T442 168T469 307Q469 383 431 428T320 473Z" horiz-adv-x="914" unicode="œ"/>
			<glyph d="M169 708H383Q436 708 481 688T554 629T582 531Q582 430 525 364T371 280L513 0H457L320 275H153L109 0H57ZM214 666L159 316H322Q382 316 429 343T502 418T529 525Q529 595 485 630T377 666ZM443 915L461 876L282 785L269 814Z" horiz-adv-x="591" unicode="Ŕ"/>
			<glyph d="M341 513Q355 513 370 510L360 466Q350 469 332 469Q282 469 240 430T171 328T132 190L101 0H51L113 389Q120 440 124 499H170Q168 435 155 375H157Q188 446 236 479T341 513ZM327 736L349 697L178 586L160 615Z" horiz-adv-x="334" unicode="ŕ"/>
			<glyph d="M169 708H383Q436 708 481 688T554 629T582 531Q582 430 525 364T371 280L513 0H457L320 275H153L109 0H57ZM214 666L159 316H322Q382 316 429 343T502 418T529 525Q529 595 485 630T377 666ZM253 -67Q284 -67 284 -98Q284 -102 282 -114Q275 -151 260 -179T213 -248L194 -234Q217 -199 228 -177T243 -131Q229 -130 222 -122T215 -104Q215 -88 225 -77T253 -67Z" horiz-adv-x="591" unicode="Ŗ"/>
			<glyph d="M341 513Q355 513 370 510L360 466Q350 469 332 469Q282 469 240 430T171 328T132 190L101 0H51L113 389Q120 440 124 499H170Q168 435 155 375H157Q188 446 236 479T341 513ZM73 -67Q104 -67 104 -98Q104 -102 102 -114Q95 -151 80 -179T33 -248L14 -234Q37 -199 48 -177T63 -131Q49 -130 42 -122T35 -104Q35 -88 45 -77T73 -67Z" horiz-adv-x="334" unicode="ŗ"/>
			<glyph d="M169 708H383Q436 708 481 688T554 629T582 531Q582 430 525 364T371 280L513 0H457L320 275H153L109 0H57ZM214 666L159 316H322Q382 316 429 343T502 418T529 525Q529 595 485 630T377 666ZM489 908L507 883L369 786H327L220 884L243 907L351 820Z" horiz-adv-x="591" unicode="Ř"/>
			<glyph d="M341 513Q355 513 370 510L360 466Q350 469 332 469Q282 469 240 430T171 328T132 190L101 0H51L113 389Q120 440 124 499H170Q168 435 155 375H157Q188 446 236 479T341 513ZM133 728L238 621L379 728L399 705L256 587H214L110 706Z" horiz-adv-x="334" unicode="ř"/>
			<glyph d="M351 723Q462 723 544 661L517 627Q479 654 438 667T346 680Q260 680 207 641T154 527Q154 479 188 450T298 397Q390 367 437 325T484 213Q484 143 450 91T358 12T223 -15Q90 -15 3 67L32 100Q73 64 120 46T227 29Q319 29 375 77T432 207Q432 265 392 297T271 357Q187 384 145 423T103 523Q103 618 172 670T351 723ZM441 915L459 876L280 785L267 814Z" horiz-adv-x="536" unicode="Ś"/>
			<glyph d="M247 513Q339 513 400 464L376 433Q346 453 314 463T243 474Q185 474 149 449T113 376Q113 343 139 322T231 282Q297 262 329 229T361 149Q361 71 307 28T164 -14Q66 -14 -4 43L20 75Q53 50 88 38T169 26Q232 26 270 56T309 144Q309 180 283 203T196 246Q126 267 94 297T63 372Q63 439 114 476T247 513ZM346 736L368 697L197 586L179 615Z" horiz-adv-x="426" unicode="ś"/>
			<glyph d="M351 723Q462 723 544 661L517 627Q479 654 438 667T346 680Q260 680 207 641T154 527Q154 479 188 450T298 397Q390 367 437 325T484 213Q484 143 450 91T358 12T223 -15Q90 -15 3 67L32 100Q73 64 120 46T227 29Q319 29 375 77T432 207Q432 265 392 297T271 357Q187 384 145 423T103 523Q103 618 172 670T351 723ZM356 906H398L505 808L483 785L374 872L236 785L218 809Z" horiz-adv-x="536" unicode="Ŝ"/>
			<glyph d="M247 513Q339 513 400 464L376 433Q346 453 314 463T243 474Q185 474 149 449T113 376Q113 343 139 322T231 282Q297 262 329 229T361 149Q361 71 307 28T164 -14Q66 -14 -4 43L20 75Q53 50 88 38T169 26Q232 26 270 56T309 144Q309 180 283 203T196 246Q126 267 94 297T63 372Q63 439 114 476T247 513ZM271 727H314L417 607L395 586L290 692L148 586L128 609Z" horiz-adv-x="426" unicode="ŝ"/>
			<glyph d="M351 723Q462 723 544 661L517 627Q479 654 438 667T346 680Q260 680 207 641T154 527Q154 479 188 450T298 397Q390 367 437 325T484 213Q484 112 417 51T243 -15L212 -76Q229 -72 249 -72Q281 -72 298 -88T316 -133Q316 -178 283 -205T198 -232Q145 -232 106 -208L122 -181Q140 -191 157 -195T198 -200Q234 -200 255 -183T276 -136Q276 -119 265 -109T233 -100Q214 -100 189 -107H159L206 -15Q84 -9 3 67L32 100Q73 64 120 46T227 29Q319 29 375 77T432 207Q432 265 392 297T271 357Q187 384 145 423T103 523Q103 618 172 670T351 723Z" horiz-adv-x="536" unicode="Ş"/>
			<glyph d="M247 513Q339 513 400 464L376 433Q346 453 314 463T243 474Q185 474 149 449T113 376Q113 343 139 322T231 282Q297 262 329 229T361 149Q361 74 312 32T181 -14L150 -76Q167 -72 187 -72Q219 -72 236 -88T254 -133Q254 -178 221 -205T136 -232Q83 -232 44 -208L60 -181Q78 -191 95 -195T136 -200Q172 -200 193 -183T214 -136Q214 -119 203 -109T171 -100Q151 -100 127 -107H97L145 -13Q59 -9 -4 43L20 75Q53 50 88 38T169 26Q232 26 270 56T309 144Q309 180 283 203T196 246Q126 267 94 297T63 372Q63 439 114 476T247 513Z" horiz-adv-x="426" unicode="ş"/>
			<glyph d="M351 723Q462 723 544 661L517 627Q479 654 438 667T346 680Q260 680 207 641T154 527Q154 479 188 450T298 397Q390 367 437 325T484 213Q484 143 450 91T358 12T223 -15Q90 -15 3 67L32 100Q73 64 120 46T227 29Q319 29 375 77T432 207Q432 265 392 297T271 357Q187 384 145 423T103 523Q103 618 172 670T351 723ZM487 908L505 883L367 786H325L218 884L241 907L349 820Z" horiz-adv-x="536" unicode="Š"/>
			<glyph d="M247 513Q339 513 400 464L376 433Q346 453 314 463T243 474Q185 474 149 449T113 376Q113 343 139 322T231 282Q297 262 329 229T361 149Q361 71 307 28T164 -14Q66 -14 -4 43L20 75Q53 50 88 38T169 26Q232 26 270 56T309 144Q309 180 283 203T196 246Q126 267 94 297T63 372Q63 439 114 476T247 513ZM152 728L257 621L398 728L418 705L275 587H233L129 706Z" horiz-adv-x="426" unicode="š"/>
			<glyph d="M77 708H585L578 663H350L245 0H238L200 -76Q217 -72 237 -72Q269 -72 286 -88T304 -133Q304 -178 271 -205T186 -232Q133 -232 94 -208L110 -181Q128 -191 145 -195T186 -200Q222 -200 243 -183T264 -136Q264 -119 253 -109T221 -100Q201 -100 177 -107H147L202 0H193L298 663H70Z" horiz-adv-x="518" unicode="Ţ"/>
			<glyph d="M220 648L196 499H334L328 460H190L138 130Q134 105 134 90Q134 28 199 28Q226 28 255 37L259 -2Q228 -14 187 -14H184L153 -76Q170 -72 190 -72Q222 -72 239 -88T257 -133Q257 -178 224 -205T139 -232Q86 -232 47 -208L63 -181Q81 -191 98 -195T139 -200Q175 -200 196 -183T217 -136Q217 -119 206 -109T174 -100Q155 -100 130 -107H100L150 -10Q118 -2 100 21T83 83Q83 100 87 127L140 460H48L53 493L146 499L167 630Z" horiz-adv-x="326" unicode="ţ"/>
			<glyph d="M77 708H585L578 663H350L245 0H193L298 663H70ZM478 908L496 883L358 786H316L209 884L232 907L340 820Z" horiz-adv-x="518" unicode="Ť"/>
			<glyph d="M220 648L196 499H334L328 460H190L138 130Q134 105 134 90Q134 28 199 28Q226 28 255 37L259 -2Q228 -14 187 -14Q138 -14 110 11T83 83Q83 100 87 127L140 460H48L53 493L146 499L167 630ZM348 723L390 710L329 556L298 563Z" horiz-adv-x="326" unicode="ť"/>
			<glyph d="M77 708H585L578 663H350L304 373H430L424 336H298L245 0H193L246 336H123L129 373H252L298 663H70Z" horiz-adv-x="518" unicode="Ŧ"/>
			<glyph d="M220 648L196 499H334L328 460H190L170 330H283L277 292H164L138 130Q134 105 134 90Q134 28 199 28Q226 28 255 37L259 -2Q228 -14 187 -14Q138 -14 110 11T83 83Q83 100 87 127L113 292H22L28 330H119L140 460H48L53 493L146 499L167 630Z" horiz-adv-x="326" unicode="ŧ"/>
			<glyph d="M160 708H211L140 256Q134 223 134 194Q134 113 179 71T323 30Q437 30 499 88T580 257L652 708H703L631 253Q610 123 533 54T320 -15Q202 -15 142 38T82 190Q82 226 87 253ZM402 874Q418 874 431 867T462 847Q477 836 486 831T505 826Q522 826 537 836T573 872L599 860Q576 823 552 806T502 790Q487 790 474 796T443 816Q427 828 418 833T398 838Q381 838 365 827T331 792L305 804Q350 874 402 874Z" horiz-adv-x="718" unicode="Ũ"/>
			<glyph d="M123 499H173L124 191Q120 161 120 144Q120 91 147 59T233 28Q318 28 374 92T448 266L485 499H535L473 109Q465 60 461 0H416Q416 46 428 109H426Q398 53 345 19T226 -14Q148 -14 108 29T69 140Q69 163 73 186ZM304 677Q320 677 333 670T364 650Q379 639 388 634T407 629Q424 629 439 639T475 675L501 663Q478 626 454 609T404 593Q389 593 376 599T345 619Q329 631 320 636T300 641Q283 641 267 630T233 595L207 607Q252 677 304 677Z" horiz-adv-x="586" unicode="ũ"/>
			<glyph d="M160 708H211L140 256Q134 223 134 194Q134 113 179 71T323 30Q437 30 499 88T580 257L652 708H703L631 253Q610 123 533 54T320 -15Q202 -15 142 38T82 190Q82 226 87 253ZM329 850H580L574 814H323Z" horiz-adv-x="718" unicode="Ū"/>
			<glyph d="M123 499H173L124 191Q120 161 120 144Q120 91 147 59T233 28Q318 28 374 92T448 266L485 499H535L473 109Q465 60 461 0H416Q416 46 428 109H426Q398 53 345 19T226 -14Q148 -14 108 29T69 140Q69 163 73 186ZM230 653H481L475 617H224Z" horiz-adv-x="586" unicode="ū"/>
			<glyph d="M160 708H211L140 256Q134 223 134 194Q134 113 179 71T323 30Q437 30 499 88T580 257L652 708H703L631 253Q610 123 533 54T320 -15Q202 -15 142 38T82 190Q82 226 87 253ZM351 891Q356 854 378 835T439 816Q516 816 551 891L583 887Q565 835 526 806T435 778Q382 778 352 806T319 887Z" horiz-adv-x="718" unicode="Ŭ"/>
			<glyph d="M123 499H173L124 191Q120 161 120 144Q120 91 147 59T233 28Q318 28 374 92T448 266L485 499H535L473 109Q465 60 461 0H416Q416 46 428 109H426Q398 53 345 19T226 -14Q148 -14 108 29T69 140Q69 163 73 186ZM264 709Q271 619 351 619Q390 619 418 640T464 709L498 705Q459 580 349 580Q293 580 262 612T231 705Z" horiz-adv-x="586" unicode="ŭ"/>
			<glyph d="M160 708H211L140 256Q134 223 134 194Q134 113 179 71T323 30Q437 30 499 88T580 257L652 708H703L631 253Q610 123 533 54T320 -15Q202 -15 142 38T82 190Q82 226 87 253ZM470 967Q509 967 533 945T557 889Q557 840 525 808T443 776Q403 776 379 799T356 856Q356 904 389 935T470 967ZM467 937Q434 937 413 915T392 859Q392 835 406 821T446 807Q478 807 499 829T520 886Q520 909 506 923T467 937Z" horiz-adv-x="718" unicode="Ů"/>
			<glyph d="M123 499H173L124 191Q120 161 120 144Q120 91 147 59T233 28Q318 28 374 92T448 266L485 499H535L473 109Q465 60 461 0H416Q416 46 428 109H426Q398 53 345 19T226 -14Q148 -14 108 29T69 140Q69 163 73 186ZM372 770Q411 770 435 748T459 692Q459 643 427 611T345 579Q305 579 281 602T258 659Q258 707 291 738T372 770ZM369 740Q336 740 315 718T294 662Q294 638 308 624T348 610Q380 610 401 632T422 689Q422 712 408 726T369 740Z" horiz-adv-x="586" unicode="ů"/>
			<glyph d="M160 708H211L140 256Q134 223 134 194Q134 113 179 71T323 30Q437 30 499 88T580 257L652 708H703L631 253Q610 123 533 54T320 -15Q202 -15 142 38T82 190Q82 226 87 253ZM434 942L469 922L351 776L328 790ZM550 934L582 912L460 771L436 787Z" horiz-adv-x="718" unicode="Ű"/>
			<glyph d="M123 499H173L124 191Q120 161 120 144Q120 91 147 59T233 28Q318 28 374 92T448 266L485 499H535L473 109Q465 60 461 0H416Q416 46 428 109H426Q398 53 345 19T226 -14Q148 -14 108 29T69 140Q69 163 73 186ZM336 745L371 725L253 579L230 593ZM452 737L484 715L362 574L338 590Z" horiz-adv-x="586" unicode="ű"/>
			<glyph d="M160 708H211L140 256Q134 223 134 194Q134 113 179 71T323 30Q437 30 499 88T580 257L652 708H703L631 253Q600 56 444 4Q377 -35 339 -72T302 -151Q302 -173 315 -185T354 -197Q388 -197 422 -179L434 -209Q391 -233 346 -233Q308 -233 284 -213T261 -159Q261 -75 377 -12Q350 -15 320 -15Q202 -15 142 38T82 190Q82 226 87 253Z" horiz-adv-x="718" unicode="Ų"/>
			<glyph d="M123 499H173L124 191Q120 161 120 144Q120 91 147 59T233 28Q318 28 374 92T448 266L485 499H535L473 109Q465 60 461 0H458Q331 -73 331 -148Q331 -170 344 -182T383 -194Q417 -194 451 -176L463 -206Q420 -230 375 -230Q337 -230 313 -210T290 -156Q290 -108 326 -66T416 3Q416 49 428 109H426Q398 53 345 19T226 -14Q148 -14 108 29T69 140Q69 163 73 186Z" horiz-adv-x="586" unicode="ų"/>
			<glyph d="M92 708H144L223 62H226L510 708H572L655 62H657L942 708H995L678 0H619L533 647H531L245 0H186ZM560 906H602L709 808L687 785L578 872L440 785L422 809Z" horiz-adv-x="942" unicode="Ŵ"/>
			<glyph d="M59 499H111L156 52H158L368 499H426L495 52H496L685 499H737L517 0H461L391 446H389L178 0H118ZM420 727H463L566 607L544 586L439 692L297 586L277 609Z" horiz-adv-x="716" unicode="ŵ"/>
			<glyph d="M68 708H124L275 351H277L540 708H600L296 306L247 0H196L245 308ZM350 906H392L499 808L477 785L368 872L230 785L212 809Z" horiz-adv-x="523" unicode="Ŷ"/>
			<glyph d="M47 499H98L191 52H193L415 499H468L199 -27Q157 -109 127 -150T62 -216T-33 -258L-44 -219Q4 -204 36 -181T94 -121T153 -18L160 -3ZM280 727H323L426 607L404 586L299 692L157 586L137 609Z" horiz-adv-x="436" unicode="ŷ"/>
			<glyph d="M68 708H124L275 351H277L540 708H600L296 306L247 0H196L245 308ZM278 893Q309 893 309 865Q309 846 299 834T268 822Q237 822 237 850Q237 868 247 880T278 893ZM448 893Q479 893 479 865Q479 846 469 834T438 822Q407 822 407 850Q407 868 417 880T448 893Z" horiz-adv-x="523" unicode="Ÿ"/>
			<glyph d="M124 708H587L580 661L66 44H493L486 0H0L7 48L521 666H117ZM461 915L479 876L300 785L287 814Z" horiz-adv-x="573" unicode="Ź"/>
			<glyph d="M90 499H415L409 458L62 40H354L347 0H-3L4 42L349 460H84ZM354 736L376 697L205 586L187 615Z" horiz-adv-x="419" unicode="ź"/>
			<glyph d="M124 708H587L580 661L66 44H493L486 0H0L7 48L521 666H117ZM390 899Q423 899 423 871Q423 852 412 839T379 826Q346 826 346 853Q346 873 356 886T390 899Z" horiz-adv-x="573" unicode="Ż"/>
			<glyph d="M90 499H415L409 458L62 40H354L347 0H-3L4 42L349 460H84ZM291 721Q324 721 324 693Q324 674 313 661T280 648Q247 648 247 675Q247 695 257 708T291 721Z" horiz-adv-x="419" unicode="ż"/>
			<glyph d="M124 708H587L580 661L66 44H493L486 0H0L7 48L521 666H117ZM506 908L524 883L386 786H344L237 884L260 907L368 820Z" horiz-adv-x="573" unicode="Ž"/>
			<glyph d="M90 499H415L409 458L62 40H354L347 0H-3L4 42L349 460H84ZM160 728L265 621L406 728L426 705L283 587H241L137 706Z" horiz-adv-x="419" unicode="ž"/>
			<glyph d="M457 722Q505 722 543 709L529 673Q497 682 461 682Q410 681 379 650T340 562L331 499H459L452 460H325L251 -6Q238 -89 217 -136T165 -210T79 -257L65 -218Q108 -202 133 -180T173 -117T200 -6L275 460H183L189 499H281L290 563Q303 641 345 681T457 722Z" unicode="ƒ"/>
			<glyph d="M351 723Q462 723 544 661L517 627Q479 654 438 667T346 680Q260 680 207 641T154 527Q154 479 188 450T298 397Q390 367 437 325T484 213Q484 143 450 91T358 12T223 -15Q90 -15 3 67L32 100Q73 64 120 46T227 29Q319 29 375 77T432 207Q432 265 392 297T271 357Q187 384 145 423T103 523Q103 618 172 670T351 723ZM227 -67Q258 -67 258 -98Q258 -102 256 -114Q249 -151 234 -179T187 -248L168 -234Q191 -199 202 -177T217 -131Q203 -130 196 -122T189 -104Q189 -88 199 -77T227 -67Z" horiz-adv-x="536" unicode="Ș"/>
			<glyph d="M247 513Q339 513 400 464L376 433Q346 453 314 463T243 474Q185 474 149 449T113 376Q113 343 139 322T231 282Q297 262 329 229T361 149Q361 71 307 28T164 -14Q66 -14 -4 43L20 75Q53 50 88 38T169 26Q232 26 270 56T309 144Q309 180 283 203T196 246Q126 267 94 297T63 372Q63 439 114 476T247 513ZM166 -67Q197 -67 197 -98Q197 -102 195 -114Q188 -151 173 -179T126 -248L107 -234Q130 -199 141 -177T156 -131Q142 -130 135 -122T128 -104Q128 -88 138 -77T166 -67Z" horiz-adv-x="426" unicode="ș"/>
			<glyph d="M77 708H585L578 663H350L245 0H193L298 663H70ZM216 -67Q247 -67 247 -98Q247 -102 245 -114Q238 -151 223 -179T176 -248L157 -234Q180 -199 191 -177T206 -131Q192 -130 185 -122T178 -104Q178 -88 188 -77T216 -67Z" horiz-adv-x="518" unicode="Ț"/>
			<glyph d="M220 648L196 499H334L328 460H190L138 130Q134 105 134 90Q134 28 199 28Q226 28 255 37L259 -2Q228 -14 187 -14Q138 -14 110 11T83 83Q83 100 87 127L140 460H48L53 493L146 499L167 630ZM168 -67Q199 -67 199 -98Q199 -102 197 -114Q190 -151 175 -179T128 -248L109 -234Q132 -199 143 -177T158 -131Q144 -130 137 -122T130 -104Q130 -88 140 -77T168 -67Z" horiz-adv-x="326" unicode="ț"/>
			<glyph d="M131 499H181L101 -6Q88 -89 68 -136T15 -210T-71 -257L-85 -218Q-42 -202 -17 -180T24 -117T51 -6Z" horiz-adv-x="234" unicode="ȷ"/>
			<glyph d="M229 727H272L375 607L353 586L248 692L106 586L86 609Z" horiz-adv-x="350" unicode="ˆ"/>
			<glyph d="M125 728L230 621L371 728L391 705L248 587H206L102 706Z" horiz-adv-x="349" unicode="ˇ"/>
			<glyph d="M94 653H345L339 617H88Z" horiz-adv-x="311" unicode="ˉ"/>
			<glyph d="M135 709Q142 619 222 619Q261 619 289 640T335 709L369 705Q330 580 220 580Q164 580 133 612T102 705Z" horiz-adv-x="327" unicode="˘"/>
			<glyph d="M142 721Q175 721 175 693Q175 674 164 661T131 648Q98 648 98 675Q98 695 108 708T142 721Z" horiz-adv-x="136" unicode="˙"/>
			<glyph d="M210 770Q249 770 273 748T297 692Q297 643 265 611T183 579Q143 579 119 602T96 659Q96 707 129 738T210 770ZM207 740Q174 740 153 718T132 662Q132 638 146 624T186 610Q218 610 239 632T260 689Q260 712 246 726T207 740Z" horiz-adv-x="259" unicode="˚"/>
			<glyph d="M98 6L135 0Q8 -73 8 -148Q8 -170 21 -182T60 -194Q94 -194 128 -176L140 -206Q97 -230 52 -230Q14 -230 -9 -210T-33 -156Q-33 -107 5 -65T98 6Z" horiz-adv-x="241" unicode="˛"/>
			<glyph d="M184 677Q200 677 213 670T244 650Q259 639 268 634T287 629Q304 629 319 639T355 675L381 663Q358 626 334 609T284 593Q269 593 256 599T225 619Q209 631 200 636T180 641Q163 641 147 630T113 595L87 607Q132 677 184 677Z" horiz-adv-x="345" unicode="˜"/>
			<glyph d="M191 745L226 725L108 579L85 593ZM307 737L339 715L217 574L193 590Z" horiz-adv-x="295" unicode="˝"/>
			<glyph d="M25 805L44 791Q21 756 10 734T-5 688Q9 687 16 679T23 661Q23 645 13 634T-15 624Q-46 624 -46 655Q-46 660 -44 671Q-37 708 -22 736T25 805Z" horiz-adv-x="0" unicode="̒"/>
			<glyph d="M-117 -67Q-86 -67 -86 -98Q-86 -102 -88 -114Q-95 -151 -110 -179T-157 -248L-176 -234Q-153 -199 -142 -177T-127 -131Q-141 -130 -148 -122T-155 -104Q-155 -88 -145 -77T-117 -67Z" horiz-adv-x="0" unicode="̦"/>
			<glyph d="M367 708H426L599 0H-29ZM391 663L49 42H536Z" horiz-adv-x="649" unicode="Δ"/>
			<glyph d="M466 723Q558 723 623 686T722 584T756 432Q756 304 696 200T528 45H700L693 0H437L444 45H445L444 46Q524 70 582 127T672 264T703 431Q703 545 641 612T464 679Q362 679 283 625T161 481T118 285Q118 197 159 134T277 45L270 0H15L22 45H198Q135 80 100 142T66 289Q66 408 117 507T259 664T466 723Z" horiz-adv-x="786" unicode="Ω"/>
			<glyph d="M129 499H179L132 201Q128 169 128 156Q128 97 157 62T245 27Q297 27 340 55T412 131T449 237L491 499H541L480 109Q472 60 468 0H421Q423 45 432 108H430Q396 50 346 17T235 -15Q137 -15 111 70H109L77 -133Q65 -208 52 -244H5Q21 -189 29 -135Z" horiz-adv-x="592" unicode="μ"/>
			<glyph d="M576 513L579 474Q536 459 482 459L429 122Q424 92 424 59Q424 36 428 0H379Q373 36 373 61Q373 86 379 123L432 459L182 458L109 0H59L132 458H42L48 499H482Q529 499 576 513Z" horiz-adv-x="558" unicode="π"/>
			<glyph d="M92 708H144L223 62H226L510 708H572L655 62H657L942 708H995L678 0H619L533 647H531L245 0H186ZM503 915L665 812L644 787L476 880Z" horiz-adv-x="942" unicode="Ẁ"/>
			<glyph d="M59 499H111L156 52H158L368 499H426L495 52H496L685 499H737L517 0H461L391 446H389L178 0H118ZM370 736L529 611L505 586L339 702Z" horiz-adv-x="716" unicode="ẁ"/>
			<glyph d="M92 708H144L223 62H226L510 708H572L655 62H657L942 708H995L678 0H619L533 647H531L245 0H186ZM645 915L663 876L484 785L471 814Z" horiz-adv-x="942" unicode="Ẃ"/>
			<glyph d="M59 499H111L156 52H158L368 499H426L495 52H496L685 499H737L517 0H461L391 446H389L178 0H118ZM495 736L517 697L346 586L328 615Z" horiz-adv-x="716" unicode="ẃ"/>
			<glyph d="M92 708H144L223 62H226L510 708H572L655 62H657L942 708H995L678 0H619L533 647H531L245 0H186ZM488 893Q519 893 519 865Q519 846 509 834T478 822Q447 822 447 850Q447 868 457 880T488 893ZM658 893Q689 893 689 865Q689 846 679 834T648 822Q617 822 617 850Q617 868 627 880T658 893Z" horiz-adv-x="942" unicode="Ẅ"/>
			<glyph d="M59 499H111L156 52H158L368 499H426L495 52H496L685 499H737L517 0H461L391 446H389L178 0H118ZM344 696Q375 696 375 668Q375 649 365 637T334 625Q303 625 303 653Q303 671 313 683T344 696ZM514 696Q545 696 545 668Q545 649 535 637T504 625Q473 625 473 653Q473 671 483 683T514 696Z" horiz-adv-x="716" unicode="ẅ"/>
			<glyph d="M382 723Q454 723 509 696T612 617L430 417Q523 398 574 354T625 229Q625 156 592 101T501 15T366 -15Q275 -15 208 26L231 62Q292 28 368 28Q430 28 476 53T548 124T573 229Q573 297 524 334T374 387L378 421L549 612Q511 646 471 663T379 680Q299 680 243 638T175 509L94 0H42L124 512Q140 616 210 669T382 723Z" horiz-adv-x="674" unicode="ẞ"/>
			<glyph d="M68 708H124L275 351H277L540 708H600L296 306L247 0H196L245 308ZM293 915L455 812L434 787L266 880Z" horiz-adv-x="523" unicode="Ỳ"/>
			<glyph d="M47 499H98L191 52H193L415 499H468L199 -27Q157 -109 127 -150T62 -216T-33 -258L-44 -219Q4 -204 36 -181T94 -121T153 -18L160 -3ZM230 736L389 611L365 586L199 702Z" horiz-adv-x="436" unicode="ỳ"/>
			<glyph d="M106 314H498L492 273H100Z" horiz-adv-x="588" unicode="–"/>
			<glyph d="M54 314H541L534 273H48Z" horiz-adv-x="579" unicode="—"/>
			<glyph d="M220 723L238 707Q203 670 190 640T175 575Q193 574 201 565T210 541Q210 528 200 518T173 509Q156 509 146 521T137 555Q137 601 154 639T220 723Z" horiz-adv-x="227" unicode="‘"/>
			<glyph d="M167 726Q184 726 193 714T203 680Q203 634 185 596T120 512L102 528Q137 565 150 594T165 660Q147 661 138 669T130 694Q130 707 140 716T167 726Z" horiz-adv-x="195" unicode="’"/>
			<glyph d="M65 66Q82 66 91 54T101 20Q101 -26 83 -64T18 -148L0 -132Q35 -95 48 -65T63 0Q45 1 36 9T28 34Q28 47 38 56T65 66Z" horiz-adv-x="227" unicode="‚"/>
			<glyph d="M366 723L384 707Q349 670 336 640T321 575Q339 574 347 565T356 541Q356 528 346 518T319 509Q302 509 292 521T283 555Q283 601 300 639T366 723ZM220 723L238 707Q203 670 190 640T175 575Q193 574 201 565T210 541Q210 528 200 518T173 509Q156 509 146 521T137 555Q137 601 154 639T220 723Z" horiz-adv-x="372" unicode="“"/>
			<glyph d="M315 723Q332 723 341 711T351 677Q351 631 333 593T268 509L250 525Q285 562 298 591T313 657Q295 658 286 666T278 691Q278 704 288 713T315 723ZM169 723Q186 723 195 711T205 677Q205 631 187 593T122 509L104 525Q139 562 152 591T167 657Q149 658 140 666T132 691Q132 704 142 713T169 723Z" horiz-adv-x="372" unicode="”"/>
			<glyph d="M65 66Q82 66 91 54T101 20Q101 -26 83 -64T18 -148L0 -132Q35 -95 48 -65T63 0Q45 1 36 9T28 34Q28 47 38 56T65 66ZM211 66Q228 66 237 54T247 20Q247 -26 229 -64T164 -148L146 -132Q181 -95 194 -65T209 0Q191 1 182 9T174 34Q174 47 184 56T211 66Z" horiz-adv-x="372" unicode="„"/>
			<glyph d="M328 708H378L349 524H527L520 483H342L266 0H216L292 483H114L121 524H299Z" horiz-adv-x="560" unicode="†"/>
			<glyph d="M328 708H378L349 524H527L520 483H342L314 306H492L485 265H308L266 0H216L258 265H79L85 306H264L292 483H114L121 524H299Z" horiz-adv-x="560" unicode="‡"/>
			<glyph d="M169 393Q237 393 237 324Q237 258 169 258Q100 258 100 324Q100 393 169 393Z" horiz-adv-x="312" unicode="•"/>
			<glyph d="M345 69Q377 69 377 42Q377 21 366 7T333 -6Q301 -6 301 22Q301 43 311 56T345 69ZM597 69Q629 69 629 42Q629 21 618 7T585 -6Q553 -6 553 22Q553 43 563 56T597 69ZM95 69Q127 69 127 42Q127 21 116 7T83 -6Q51 -6 51 22Q51 43 61 56T95 69Z" horiz-adv-x="749" unicode="…"/>
			<glyph d="M395 722Q480 722 526 673T573 550Q573 483 542 426T456 337T335 304Q250 304 203 351T157 473Q157 540 187 597T272 688T395 722ZM860 709H911L384 0H332ZM392 680Q338 680 295 652T229 579T206 480Q206 422 239 384T339 346Q392 346 434 373T499 446T523 545Q523 603 490 641T392 680ZM934 407Q1019 407 1065 358T1112 235Q1112 168 1081 111T995 22T874 -11Q789 -11 742 36T696 158Q696 225 726 282T811 373T934 407ZM1393 407Q1478 407 1524 358T1571 235Q1571 168 1540 111T1454 22T1333 -11Q1248 -11 1201 36T1155 158Q1155 225 1185 282T1270 373T1393 407ZM931 365Q877 365 834 337T768 264T745 165Q745 107 778 69T878 31Q931 31 973 58T1038 131T1062 230Q1062 288 1029 326T931 365ZM1390 365Q1336 365 1293 337T1227 264T1204 165Q1204 107 1237 69T1337 31Q1390 31 1432 58T1497 131T1521 230Q1521 288 1488 326T1390 365Z" horiz-adv-x="1763" unicode="‰"/>
			<glyph d="M248 513L270 491L141 349L224 207L197 188L97 338L101 363Z" horiz-adv-x="315" unicode="‹"/>
			<glyph d="M150 513L250 363L246 338L99 188L77 211L206 353L122 495Z" horiz-adv-x="315" unicode="›"/>
			<glyph d="M355 709H406L-121 0H-173Z" horiz-adv-x="202" unicode="⁄"/>
			<glyph d="M340 719Q431 719 476 667T522 521Q522 486 516 447Q497 323 432 251T260 180Q169 180 123 232T78 378Q78 414 84 451Q103 576 168 647T340 719ZM338 678Q252 678 201 616T133 447Q127 408 127 375Q127 301 159 261T262 221Q349 221 400 282T468 451Q474 490 474 523Q474 678 338 678Z" horiz-adv-x="540" unicode="⁰"/>
			<glyph d="M325 708H379L143 365H357L381 516H429L405 365H490L483 323H399L378 191H330L351 323H80L86 361Z" horiz-adv-x="540" unicode="⁴"/>
			<glyph d="M193 708H505L498 667H234L204 484Q258 511 328 511Q399 511 438 476T477 382Q477 321 448 275T370 205T256 180Q197 180 155 197T79 249L110 277Q141 247 174 234T257 221Q332 221 380 265T428 381Q428 424 398 448T314 472Q277 472 248 465T187 443L151 444Z" horiz-adv-x="540" unicode="⁵"/>
			<glyph d="M373 719Q413 719 441 710T495 684L472 652Q451 666 427 673T371 680Q289 680 233 621T157 460Q195 492 237 509T335 527Q405 527 445 491T486 394Q486 333 457 284T379 207T266 180Q179 180 137 227T95 356Q95 387 101 420Q122 560 193 639T373 719ZM325 489Q273 489 230 468T149 412Q143 368 143 350Q143 220 267 220Q318 220 356 243T415 305T436 393Q436 440 407 464T325 489Z" horiz-adv-x="540" unicode="⁶"/>
			<glyph d="M158 707H524L518 667Q403 558 331 441T226 191H170Q208 327 277 442T457 667L152 665Z" horiz-adv-x="540" unicode="⁷"/>
			<glyph d="M341 719Q411 719 454 690T498 609Q498 558 466 523T371 460Q430 438 457 410T484 340Q484 291 454 255T374 199T259 180Q173 180 125 214T77 306Q77 419 235 471Q148 509 148 575Q148 619 174 651T245 701T341 719ZM339 682Q279 682 238 653T197 578Q197 548 218 526T289 488L331 474Q388 501 419 531T450 606Q450 642 420 662T339 682ZM278 455Q207 433 167 398T128 309Q128 265 163 242T262 219Q339 219 387 252T435 341Q435 375 407 397T316 441Z" horiz-adv-x="540" unicode="⁸"/>
			<glyph d="M339 719Q424 719 465 675T507 550Q507 511 502 480Q480 339 383 260T131 181L134 222Q260 222 341 280T446 442Q375 374 271 374Q202 374 159 411T117 513Q117 573 146 620T225 693T339 719ZM336 679Q259 679 212 633T166 515Q166 466 197 438T283 411Q336 411 379 432T454 492Q460 527 460 556Q460 679 336 679Z" horiz-adv-x="540" unicode="⁹"/>
			<glyph d="M309 632H350L330 506H460L454 467H324L304 340H263L283 467H154L160 506H289Z" horiz-adv-x="540" unicode="⁺"/>
			<glyph d="M160 506H460L454 467H154Z" horiz-adv-x="540" unicode="⁻"/>
			<glyph d="M172 581H472L466 542H166ZM148 425H448L442 386H142Z" horiz-adv-x="540" unicode="⁼"/>
			<glyph d="M403 797L432 775Q346 676 302 578T258 367Q258 243 325 121L293 102Q253 167 230 231T208 370Q208 491 258 593T403 797Z" horiz-adv-x="529" unicode="⁽"/>
			<glyph d="M300 797Q340 731 362 667T385 529Q385 408 334 305T189 102L161 124Q246 223 290 321T334 532Q334 658 268 778Z" horiz-adv-x="529" unicode="⁾"/>
			<glyph d="M289 398Q380 398 425 346T471 200Q471 165 465 126Q446 2 381 -69T209 -141Q118 -141 72 -88T27 57Q27 93 33 130Q52 255 117 326T289 398ZM287 357Q201 357 150 295T82 126Q76 87 76 54Q76 -20 108 -60T211 -100Q298 -100 349 -39T417 130Q423 169 423 202Q423 357 287 357Z" horiz-adv-x="540" unicode="₀"/>
			<glyph d="M299 387H342L266 -88H384L377 -130H66L72 -89H217L285 335L124 259L110 295Z" horiz-adv-x="540" unicode="₁"/>
			<glyph d="M290 398Q362 398 400 362T439 272Q439 213 401 159T305 56T136 -71L111 -89L400 -88L394 -130H35L41 -90L100 -47Q204 30 260 76T353 171T389 269Q389 309 361 333T282 357Q237 357 200 341T125 294L96 323Q142 362 186 380T290 398Z" horiz-adv-x="540" unicode="₂"/>
			<glyph d="M294 398Q366 398 405 367T444 284Q444 276 442 262Q433 207 400 179T325 143L322 142Q363 138 392 112T421 39Q421 31 419 13Q408 -58 351 -99T204 -141Q142 -141 101 -124T29 -72L60 -44Q89 -75 121 -87T206 -100Q273 -100 317 -68T370 19Q372 35 372 40Q372 82 342 101T263 121H179L185 161H256Q310 161 347 186T393 262Q395 276 395 281Q395 318 367 337T287 357Q242 357 205 345T131 307L108 337Q151 369 194 383T294 398Z" horiz-adv-x="540" unicode="₃"/>
			<glyph d="M273 387H327L91 44H305L329 195H377L353 44H438L431 2H347L326 -130H278L299 2H28L34 40Z" horiz-adv-x="540" unicode="₄"/>
			<glyph d="M142 387H454L447 346H183L153 163Q207 190 277 190Q348 190 387 155T426 61Q426 0 397 -45T319 -116T205 -141Q146 -141 104 -124T28 -72L59 -44Q90 -74 123 -87T206 -100Q281 -100 329 -55T377 60Q377 103 347 127T263 151Q226 151 197 144T136 122L100 123Z" horiz-adv-x="540" unicode="₅"/>
			<glyph d="M322 398Q362 398 390 389T444 363L421 331Q400 345 376 352T320 359Q238 359 182 300T106 139Q144 171 186 188T284 206Q354 206 394 170T435 73Q435 12 406 -37T328 -113T215 -141Q128 -141 86 -94T44 35Q44 66 50 99Q71 239 142 318T322 398ZM274 168Q222 168 179 147T98 91Q92 47 92 29Q92 -101 216 -101Q267 -101 305 -78T364 -16T385 72Q385 119 356 143T274 168Z" horiz-adv-x="540" unicode="₆"/>
			<glyph d="M107 386H473L467 346Q352 237 280 120T175 -130H119Q157 6 226 121T406 346L101 344Z" horiz-adv-x="540" unicode="₇"/>
			<glyph d="M290 398Q360 398 403 369T447 288Q447 237 415 202T320 139Q379 117 406 89T433 19Q433 -30 403 -66T323 -121T208 -141Q122 -141 74 -106T26 -15Q26 98 184 150Q97 188 97 254Q97 298 123 330T194 380T290 398ZM288 361Q228 361 187 332T146 257Q146 227 167 205T238 167L280 153Q337 180 368 210T399 285Q399 321 369 341T288 361ZM227 134Q156 112 116 77T77 -12Q77 -56 112 -79T211 -102Q288 -102 336 -68T384 20Q384 54 356 76T265 120Z" horiz-adv-x="540" unicode="₈"/>
			<glyph d="M288 398Q373 398 414 354T456 229Q456 190 451 159Q429 18 332 -61T80 -140L83 -99Q209 -99 290 -40T395 121Q324 53 220 53Q151 53 108 90T66 192Q66 252 95 299T174 372T288 398ZM285 358Q208 358 161 312T115 194Q115 145 146 117T232 90Q285 90 328 111T403 171Q409 206 409 235Q409 358 285 358Z" horiz-adv-x="540" unicode="₉"/>
			<glyph d="M255 291H296L276 165H406L400 126H270L250 -1H209L229 126H100L106 165H235Z" horiz-adv-x="540" unicode="₊"/>
			<glyph d="M106 165H406L400 126H100Z" horiz-adv-x="540" unicode="₋"/>
			<glyph d="M118 240H418L412 201H112ZM94 84H394L388 45H88Z" horiz-adv-x="540" unicode="₌"/>
			<glyph d="M352 476L381 454Q295 355 251 257T207 46Q207 -78 274 -200L242 -219Q202 -154 179 -89T157 49Q157 170 207 272T352 476Z" horiz-adv-x="529" unicode="₍"/>
			<glyph d="M249 476Q289 410 311 346T334 208Q334 87 283 -15T138 -219L110 -197Q195 -98 239 0T283 211Q283 337 217 457Z" horiz-adv-x="529" unicode="₎"/>
			<glyph d="M456 725Q577 725 652 642L621 610Q556 680 455 680Q356 680 284 614T177 441H504L498 404H167Q157 362 152 318H454L448 281H149V259Q149 151 199 91T347 32Q402 32 455 55T550 118L575 81Q528 36 467 11T343 -14Q224 -14 161 58T99 259V281H10L15 318H102Q105 355 115 404H31L37 441H125Q163 568 249 646T456 725Z" unicode="€"/>
			<glyph d="M141 708H612L606 672H416Q488 637 500 561H590L584 525H503Q502 428 443 363T290 280L434 0H379L240 275H74L80 316H238Q302 316 350 343T424 417T451 525H113L119 561H448Q438 615 396 642T296 670H168Z" unicode="₹"/>
			<glyph d="M231 708H283L244 465L427 545L430 505L237 421L223 336L407 416L410 376L216 292L176 45Q290 45 359 69T462 137T507 249H554Q541 167 500 112T380 29T172 0H119L161 268L25 209L22 248L168 312L182 397L45 337L42 377L189 441Z" unicode="₺"/>
			<glyph d="M185 708H386Q475 708 533 666T592 539Q592 465 559 409T467 322T332 291H170L155 199H416L410 161H149L124 0H73L98 161H35L41 199H104L119 291H56L62 328H125ZM229 666L176 328H332Q393 328 440 355T513 430T540 538Q540 604 495 635T381 666Z" unicode="₽"/>
			<glyph d="M303 723Q351 723 377 696T404 626Q404 538 334 447T153 271L130 122Q127 105 127 91Q127 27 194 27Q223 27 250 36L255 -1Q218 -14 184 -14Q133 -14 104 12T76 86Q76 102 80 124L98 237L32 190L20 217Q58 242 104 276L151 572Q162 647 204 685T303 723ZM303 690Q265 690 237 661T201 575L161 320Q362 486 362 627Q362 657 346 673T303 690Z" horiz-adv-x="394" unicode="ℓ"/>
			<glyph d="M471 723Q591 723 676 675T804 544T848 354Q848 247 804 163T676 32T471 -15Q351 -15 266 32T138 163T95 354Q95 461 138 544T266 675T471 723ZM472 687Q361 687 285 644T173 525T136 354Q136 258 173 182T285 64T472 21Q583 21 658 64T771 182T808 354Q808 450 771 525T658 644T472 687ZM344 566H491Q562 566 604 533T646 430Q646 365 603 328T493 292H385V145H344ZM385 531V327H493Q542 327 573 353T605 430Q605 485 573 508T491 531Z" horiz-adv-x="944" unicode="℗"/>
			<glyph d="M214 718Q257 718 296 706T367 670L345 638Q287 678 216 678Q162 678 135 659T108 606Q108 573 133 553T232 518Q309 501 341 473T373 397Q373 338 326 304T203 271Q152 271 111 283T35 322L56 354Q91 332 123 321T201 311Q256 311 289 332T322 391Q322 417 312 432T277 457T200 481Q122 499 91 529T60 603Q60 656 100 687T214 718ZM450 708H522L675 345H677L830 708H902V283H854L855 654H854L694 283H655L496 654H495L496 283H450Z" horiz-adv-x="969" unicode="℠"/>
			<glyph d="M84 708H277V680H197V492H164V680H84ZM306 708H356L433 535H435L511 708H559V492H526L527 673H526L445 492H419L339 673H338V492H306Z" horiz-adv-x="577" unicode="™"/>
			<glyph d="M466 723Q558 723 623 686T722 584T756 432Q756 304 696 200T528 45H700L693 0H437L444 45H445L444 46Q524 70 582 127T672 264T703 431Q703 545 641 612T464 679Q362 679 283 625T161 481T118 285Q118 197 159 134T277 45L270 0H15L22 45H198Q135 80 100 142T66 289Q66 408 117 507T259 664T466 723Z" horiz-adv-x="786" unicode="Ω"/>
			<glyph d="M450 683Q588 683 673 631T795 500T832 330H215Q210 330 210 325V149Q210 129 217 121Q255 73 314 47T449 22Q525 22 584 50T698 130H765Q706 60 636 28T452 -3Q335 -3 248 42T115 164T70 332Q70 423 116 504T249 634T450 683ZM447 659Q387 659 327 635T219 562Q210 553 210 536V355Q210 350 215 350H687Q692 350 692 355V535Q692 548 682 560Q639 614 574 636T447 659Z" horiz-adv-x="902" unicode="℮"/>
			<glyph d="M275 723Q362 723 429 684T533 572T571 401Q571 358 564 316Q541 165 466 75T265 -14Q161 -14 105 40T50 187Q50 273 84 342T182 451T329 491Q398 491 443 462T521 379Q523 399 523 408Q523 489 492 552T403 649T267 683ZM332 451Q260 451 208 415T129 319T102 185Q102 110 143 69T266 29Q466 29 514 327Q483 387 440 419T332 451Z" unicode="∂"/>
			<glyph d="M367 708H426L599 0H-29ZM391 663L49 42H536Z" horiz-adv-x="649" unicode="∆"/>
			<glyph d="M37 708H626V667H531V-120H482V667H181V-120H132V667H37Z" horiz-adv-x="663" unicode="∏"/>
			<glyph d="M68 708H540V666H125L355 311V293L108 -78L553 -76V-120H57V-74L304 301L68 661Z" unicode="∑"/>
			<glyph d="M106 314H498L492 273H100Z" horiz-adv-x="588" unicode="−"/>
			<glyph d="M355 709H406L-121 0H-173Z" horiz-adv-x="202" unicode="∕"/>
			<glyph d="M316 365Q348 365 348 338Q348 317 337 303T304 290Q272 290 272 318Q272 339 282 352T316 365Z" horiz-adv-x="600" unicode="∙"/>
			<glyph d="M509 708H557L342 -120H278L137 251H51V294H173L309 -68Z" unicode="√"/>
			<glyph d="M290 510Q360 510 400 474T464 362Q511 440 560 475T682 510Q753 510 792 468T832 359Q832 296 807 244T738 161T633 131Q562 131 520 164T454 273Q409 200 359 165T241 131Q170 131 130 173T90 284Q90 345 115 397T186 479T290 510ZM675 471Q613 471 570 435T477 314Q500 239 533 205T631 171Q680 171 715 196T768 264T787 358Q787 414 757 442T675 471ZM292 470Q245 470 209 444T155 376T137 284Q137 231 167 201T247 171Q308 171 350 206T440 321Q419 399 388 434T292 470Z" horiz-adv-x="900" unicode="∞"/>
			<glyph d="M478 723Q506 723 523 718L510 680Q494 682 484 682Q438 682 414 655T381 574L273 -112Q261 -187 225 -222T125 -258Q100 -258 82 -252L94 -215Q108 -217 122 -217Q167 -217 190 -190T223 -109L332 577Q343 652 379 687T478 723Z" unicode="∫"/>
			<glyph d="M246 412Q269 412 288 404T331 382Q355 369 370 362T403 356Q429 356 451 368T505 411L528 392Q472 320 402 320Q379 320 359 327T315 350Q292 363 277 369T244 376Q219 376 195 363T142 321L119 340Q149 377 180 394T246 412ZM220 248Q243 248 262 240T305 218Q329 205 344 198T377 192Q403 192 425 204T479 247L502 228Q446 156 376 156Q353 156 333 163T289 186Q266 199 251 205T218 212Q193 212 169 199T116 157L93 176Q123 213 154 230T220 248Z" unicode="≈"/>
			<glyph d="M510 559L541 539L432 406H524L518 365H398L267 206H492L486 165H234L104 7L72 27L186 165H96L102 206H219L350 365H128L134 406H384Z" unicode="≠"/>
			<glyph d="M527 594L543 558L172 357L479 156L454 124L120 339L126 378ZM72 40H472L466 -1H66Z" horiz-adv-x="609" unicode="≤"/>
			<glyph d="M191 594L525 379L519 340L118 124L102 160L473 361L166 562ZM70 40H470L464 -1H64Z" unicode="≥"/>
			<glyph d="M278 708H331L540 354L331 0H278L70 354ZM304 672L120 354L304 36L489 354Z" unicode="◊"/>
			<glyph d="M366 722Q443 722 523 686Q564 722 630 722Q678 722 716 709L702 673Q670 682 634 682Q583 681 552 650T513 562L504 499H632L625 460H498L424 -6Q411 -89 390 -136T338 -210T252 -257L238 -218Q281 -202 306 -179T346 -117T373 -6L448 460H201L127 -6Q114 -89 93 -136T41 -210T-45 -257L-59 -218Q-16 -202 9 -179T49 -117T76 -6L151 460H57L62 492L157 499L167 563Q179 638 229 680T366 722ZM364 682Q297 682 261 650T217 562L207 499H454L463 563Q472 617 496 655Q427 682 364 682Z" horiz-adv-x="604" unicode="ﬀ"/>
			<glyph d="M376 722Q442 722 507 694L492 656Q431 682 376 682Q235 682 217 562L207 499H489L410 0H360L433 460H201L127 -6Q114 -89 93 -136T41 -210T-45 -257L-59 -218Q-16 -202 9 -179T49 -117T76 -6L151 460H57L62 492L157 499L167 563Q179 638 231 680T376 722Z" horiz-adv-x="542" unicode="ﬁ"/>
			<glyph d="M381 722Q455 722 518 692L409 0H359L464 669Q420 682 373 682Q235 682 217 562L207 499H343L337 460H201L127 -6Q114 -89 93 -136T41 -210T-45 -257L-59 -218Q-16 -202 9 -179T49 -117T76 -6L151 460H57L62 492L157 499L167 563Q179 638 232 680T381 722Z" horiz-adv-x="540" unicode="ﬂ"/>
			<glyph d="M366 722Q446 722 526 685Q578 722 664 722Q730 722 795 694L780 656Q719 682 664 682Q523 682 505 562L495 499H777L698 0H648L721 460H489L415 -6Q402 -89 381 -136T329 -210T243 -257L229 -218Q272 -202 297 -179T337 -117T364 -6L439 460H201L127 -6Q114 -89 93 -136T41 -210T-45 -257L-59 -218Q-16 -202 9 -179T49 -117T76 -6L151 460H57L62 492L157 499L167 563Q179 638 229 680T366 722ZM364 682Q297 682 261 650T217 562L207 499H445L455 563Q464 619 494 656Q427 682 364 682Z" horiz-adv-x="830" unicode="ﬃ"/>
			<glyph d="M366 722Q446 722 526 685Q578 722 668 722Q742 722 805 692L696 0H646L751 669Q707 682 660 682Q522 682 504 562L494 499H630L624 460H488L414 -6Q401 -89 380 -136T328 -210T242 -257L228 -218Q271 -202 296 -179T336 -117T363 -6L438 460H201L127 -6Q114 -89 93 -136T41 -210T-45 -257L-59 -218Q-16 -202 9 -179T49 -117T76 -6L151 460H57L62 492L157 499L167 563Q179 638 229 680T366 722ZM364 682Q297 682 261 650T217 562L207 499H444L454 563Q464 621 493 656Q428 682 364 682Z" horiz-adv-x="828" unicode="ﬄ"/>
		</font>
</defs>
</svg>
