<?xml version="1.0" encoding="utf-8"?>
<svg xmlns="http://www.w3.org/2000/svg" width="12" height="12" viewBox="0 0 12 12"><style>* { fill: #36c }</style>
    <g id="secure">
        <path id="lock" d="M8 5h.02v-.997c0-.057.003-1.41-.833-2.255-.434-.438-.998-.66-1.68-.66s-1.244.222-1.677.66c-.837.846-.833 2.198-.832 2.25V5H3a1 1 0 0 0-1 1v3a1 1 0 0 0 1 1h5a1 1 0 0 0 1-1V6a1 1 0 0 0-1-1zM3.998 5V3.993c0-.01.005-1 .543-1.543.49-.485 1.45-.487 1.94-.002.543.546.545 1.536.545 1.55V5H3.998z"/>
    </g>
</svg>
