<?xml version="1.0" encoding="utf-8"?>
<!-- (c) ammap.com | SVG map of Switzerland - High -->
<svg xmlns="http://www.w3.org/2000/svg" xmlns:amcharts="http://amcharts.com/ammap" xmlns:xlink="http://www.w3.org/1999/xlink" version="1.1">
	<defs>
		<style type="text/css">
			.land
			{
				fill: #CCCCCC;
				fill-opacity: 1;
				stroke:white;
				stroke-opacity: 1;
				stroke-width:0.5;
			}
		</style>

		<amcharts:ammap projection="mercator" leftLongitude="5.956300" topLatitude="47.807531" rightLongitude="10.492616" bottomLatitude="45.817519"></amcharts:ammap>

		<!-- All areas are listed in the line below. You can use this list in your script. -->
		<!--{id:"CH-AG"},{id:"CH-AI"},{id:"CH-AR"},{id:"CH-BE"},{id:"CH-BL"},{id:"CH-BS"},{id:"CH-FR"},{id:"CH-GE"},{id:"CH-GL"},{id:"CH-GR"},{id:"CH-JU"},{id:"CH-LU"},{id:"CH-NE"},{id:"CH-NW"},{id:"CH-OW"},{id:"CH-SG"},{id:"CH-SH"},{id:"CH-SO"},{id:"CH-SZ"},{id:"CH-TG"},{id:"CH-TI"},{id:"CH-UR"},{id:"CH-VD"},{id:"CH-VS"},{id:"CH-ZG"},{id:"CH-ZH"}-->

	</defs>
	<g>
		<path id="CH-AG" title="Aargau" class="land" d="M337.26,138.22l3.25,-2.57l1.79,2.51l-0.09,2.61l0,0l-2.2,-1.15l-0.46,-1.21l-1.24,0.28L337.26,138.22zM306.15,40.64l1.59,-1.44l2.6,-0.64l1.12,1.24l2.54,-0.34l1.78,1l0.11,3.35l3.95,3.43l7.6,1.16l0.96,-1.63l1.15,-0.6l2.83,1.59l0,0l-0.45,4.42l-0.81,0.2l-0.66,1.93l-1.27,0.76l-0.31,1.17l-1.07,-0.6l-0.4,0.44l-0.53,2.67l-2.2,0.56l-0.53,1.63l0.53,0.48l-0.46,0.4l0.73,3.28l1.38,0.08l0.17,1.83l-1,0.26l-0.22,0.7l2.94,3.12l-0.95,1.03l0.49,2.01l-0.34,0.52l-1.09,0.02l0.51,0.74l1.2,0.2l0.3,1.91l-0.92,0.54l-0.11,2.42l-0.89,0.81l2.5,1.97l0.32,2.54l0.58,1.23l0.94,0.22l0.2,3.04l-0.67,1.69l1.66,1.89l-0.38,2.16l2.95,0.14l2.64,-1.61l-0.85,2.12l-2.75,3.11l0.07,1.29l-4.22,2.54l-1.2,-0.36l0.77,2.32l1.01,1.03l0.05,3.57l0.86,1.07l0,0l0.3,0.61l-0.66,1.86l-1.57,2.26l1.44,5.96l-0.7,1.82l0.2,1.78l1.25,0.67l0.55,1.92l-0.43,4.73l0,0l-0.78,0.53l-1.71,-0.12l-4.28,-1.5l-0.5,-2.08l-2.59,-4.13l-0.09,-2.18l-1.07,-1.8l-0.55,-3.13l-0.94,-0.55l0.22,-1.13l-1.16,-4.64l-2.13,-2.73l-0.26,-1.21l0.69,-1.27l-2.79,-2.1l-2.32,-0.12l-0.24,-0.79l-1.2,0.1l-1.15,1.59l0.01,1.17l-1.93,-0.18l-1.09,4.18l-2.05,1.94l-0.04,3.33l-1.5,-0.16l-1.02,0.85l-1.16,0.14l-0.44,-1.11l-1.12,-0.3l-0.77,-0.69l0.03,-1.01l-0.59,-0.14l1.94,-0.83l0.73,0.32l-0.34,-2.44l-4.96,1.17l-1.36,0.99l-2.31,-0.59l-1.29,-3.03l-1.34,-0.59l-2.24,1.6l-2.12,-0.14l0.59,1.88l-4.41,1.07l-1.74,-0.71l0.09,-2.99l-2.89,-4.38l-1.31,1.13l-1.65,0.28l-2.4,-0.52l-0.7,0.46l1.48,4.2l-3.76,3.49l-1.63,-0.42l-1.47,-1.27l-4.63,0.97l-2.85,1.23l-3.12,-1.21l0,0l-0.77,-2.48l0.15,-2.93l0,0l1.93,-1.49l2.78,-6.54l1.36,-0.87h2.27l1.07,-1.61v-1.67l1.4,-3l1.71,1.77l3.76,0.32l0.27,3.04l3.25,-0.99l2.32,-2.14l1.94,-0.81l-0.16,-1.73l1,-0.85l-0.09,-1.43l2.16,-2.34l0.47,-2.68l-0.54,-2.7l-1.71,-0.1l0.09,-1.71l-0.74,-0.95l-3.71,-0.91l-2.55,-1.77l0,0l0,0l0,0l0,0l0,0l2.7,-1.17l0.46,1.11l0.24,-1.37l-1.66,-5.73l-1,-0.82l-0.97,1.41h-0.61l0,0l0.23,-0.68l-0.98,-0.72l-1.34,-0.02l0.66,-4.46l-2.46,0.58l-2.9,-0.52l-1.63,-4.18l-2.41,-1.35l0.03,-2.01l-1.58,0.72l-0.2,-1.41l-1.11,-1.55l-2.9,0.12l-0.42,3.78l-3.06,3.46l-1.17,-0.34l-0.13,0.68l-1.04,0.44l0.11,-5.08l-6.65,-1.79l-0.24,-1.1l-1.63,0.02l-1.75,-1.18l0,0l4.25,-0.7l6.64,-2.77l2.08,-2.33l0.74,-2.95l0.69,-0.78l2.63,1.16l3.6,-1.28l3.16,0.24l1.51,1.34l0.86,1.83l-0.28,2.37l0.7,1.83l4.2,1.3l2.08,-2.79l2.09,0.52l3.75,-0.2l2.5,1.12l2.58,-0.56l3.76,-2.21l1.85,1.28l1.19,0.04l1.2,-1.1l1.24,-3.59l3.66,-0.54l0.36,-1.18l1.31,-1.18l2.29,0.26l2.59,-2.03l2.33,-3.09l2.27,0.48L306.15,40.64z"/>
		<path id="CH-AI" title="Appenzell Inner-Rhoden" class="land" d="M456.81,110.7l-1.17,-3.69l-2.51,-4.26l0.66,-3.39l-0.62,-2.42l-0.54,-0.04l0.23,-0.73l2.38,-1.21l0.73,-2.06l1.5,-0.68l-0.2,-1.41l2.82,-1.17l-1,-2.56l0.09,-1.43l-1.07,-0.99l3.86,-0.71l0.03,1.17l0.92,0.66l1.21,-0.58l2.29,2.24l1.42,0.12l1.03,-0.58l1.05,2.88l1.24,0.16l2.5,1.85l2.97,-0.71l2.04,0.54l0,0l-0.12,3.51l-1.23,3.23l0.46,1.45l-0.96,0.85l-0.17,2.74l-2.06,3.43l-1.5,1.37l-3.21,2.66l-2.9,0.81l-1.83,1.82l-2.72,0.73l-2.6,-1.86l-2,-0.32L456.81,110.7zM479.49,82.17l0.23,-1.55l2.9,-1.63l-1.2,-0.68l0.47,-0.32l-0.23,-1.19l1.54,-0.66l0.57,-1.35l2.17,1.13l1.16,-2.49l1.78,0.95l5.34,-0.76l0,0l-3.95,2.33v0.81l2.17,1.51l-3.39,0.64l0.27,0.32l-0.85,0.99l-4.06,2.42l-0.35,-1.53L479.49,82.17z"/>
		<path id="CH-AR" title="Appenzell Ausser-Rhoden" class="land" d="M456.81,110.7L454.23,111.93L452.63,110.44L452.4,109.39L450.93,109.73L449.14,108.1L448.13,108.08L447.79,107.31L445.53,108.5L442.83,108.28L438.5,105.9L441,102.79L440.11,101.34L440.13,99.52L439.08,97.06L442.28,94.77L440.79,92.67L438.59,93.35L437.72,91.78L438.74,90.09L437.2,90.63L436.58,88.8L437.65,89L439.48,88.3L440.62,86.6L440.36,84.41L442.13,82.28L441.87,81.85L446.62,81.01L451.48,82.24L454.87,80.97L457.06,81.17L460.86,79.7L462.95,80.04L463.85,80.99L466.25,80.62L468.52,79.62L468.54,78.85L469.21,78.49L469.69,74.33L472.04,74.93L474.14,73.56L477.4,72.86L479.69,71.29L482.56,70.42L481.92,68.84L482.91,67.55L484.69,67.63L484.67,68.47L486.18,68.13L489.54,68.8L490.31,69.76L491.22,69.54L493.29,71.27L495.78,72.31L495.65,73.24L494.22,73.64L494.22,73.64L488.88,74.39L487.1,73.44L485.94,75.92L483.76,74.79L483.2,76.14L481.66,76.8L481.89,77.99L481.42,78.31L482.62,78.99L479.72,80.62L479.49,82.17L479.49,82.17L478.73,84.91L479.08,86.18L478.15,87.23L478.65,91.68L478.65,91.68L476.61,91.14L473.64,91.86L471.15,90.01L469.91,89.85L468.86,86.97L467.83,87.55L466.41,87.43L464.12,85.19L462.91,85.76L461.99,85.11L461.96,83.93L458.1,84.65L459.17,85.64L459.07,87.07L460.07,89.63L457.25,90.8L457.46,92.21L455.96,92.89L455.23,94.95L452.85,96.16L452.63,96.9L453.17,96.94L453.79,99.36L453.12,102.75L455.63,107.01z"/>
		<path id="CH-BE" title="Bern" class="land" d="M153.24,179.66l0.85,0.71l0.84,-0.08l-1.77,1.61l-0.93,-0.18l-0.08,-0.61l0,0L153.24,179.66zM158.36,176.73l0.74,-0.26l0.5,2.4l-2.52,1.4l-0.85,-2.01l0.23,-1.08L158.36,176.73L158.36,176.73L158.36,176.73zM216.17,96.72l-1.3,1.19l-0.22,2l-1.93,2.46l-3.62,0.67l-2.75,1.33l-2.47,3.79l-3.76,0.54l-3,1.78l0.5,2.1l-0.66,0.5l-5.61,2.71l-1.67,1.56l-0.63,-0.38l-2.29,0.71l1.89,5.13l1.46,-0.81l0.3,0.85l1.47,0.85l1.79,4.02l-1.17,0.24l0.15,1.05l3.86,-0.44l0.84,-1.76l1.79,-0.97v-1.52l0.66,-0.32l0.62,1.15l0.77,-0.22l0.22,-1.74l3.62,-0.24l-0.32,1.13l0.72,2.06l2.48,0.85l-0.93,0.85l0.36,0.53l-2.33,1.98l-1.13,0.38l-2.24,-0.87l-1.43,1.05l-0.03,1.34l-1.86,0.61l-0.53,1.03l1.11,1.19l0.71,-0.34l-0.38,0.67l0.88,0.87l-1.4,-0.18l-3.29,1.23l-1.17,-0.75l-0.7,0.4l-0.58,-1.15l-2.09,0.83l-0.12,1.07l1.24,1.9l0.45,2.04l0.96,0.18l0.11,0.65l5.81,-1.7l0.39,1.09l-0.4,1.5l1.15,2.57l1.97,-0.14l2.55,-1.99l-1.82,-4.54l3.99,-1.72l2.64,-1.88l0.74,-2.12l1.75,-2.23l-1.23,-2.1l0.4,-0.44l1.51,-0.63l1.59,0.71l2.23,-1.5l0.66,0.97l1.05,-0.14l0.58,0.67l0.84,2.49l0.58,-0.77l2.21,-0.2l1.31,-0.75l1.05,0.77l2.15,-0.2l0.77,0.87l0.81,-0.24l0.03,-2.29l1.03,-1.33l1.86,-0.02l0.58,-2.81l-0.82,-0.24l0.43,-1.23l-0.45,-0.95l-1.29,-1.25l-1.82,-0.08l0.39,-0.97l-0.65,-1.68l0.24,-0.85l-1,-0.42l0.36,-0.63l-0.43,-0.89l-1.94,0.57l-0.18,-0.67l-0.74,0.18l-0.18,-0.99l-2.95,-2.38l0.27,-1.66l-0.54,-2.34l-1.83,-1.94l4.99,-1.13l4.83,-0.32l4.28,-2.18l2.24,1.45l1.59,2.36l0.32,-0.44l2.35,3.51l3.22,0.1l1.15,-1.57l1.27,-0.2l0.22,1.27l1.3,1.07l2.25,-2.44l1.66,1.41l1.67,-0.99l0,0l-0.15,2.93l0.77,2.48l0,0l4.48,10.14l0.77,0.69l0.81,2.41l0.09,3.76l1.69,2.49l-0.45,2.33l-2.52,1.94l0.08,1.42l0.82,0.3l-0.14,2.39l0.67,0.42l0.39,1.46l-1.32,5.04l0.36,0.28l-1.08,1.6l0.38,1.32l0.73,1.13l0.94,0.12l0.22,1.24l1.38,1.16l0.08,1.03l0.86,0.97l-0.45,0.85l0.59,1.44l3.1,-0.81l1.12,1.28l2.33,-0.51l0.7,0.57l-0.86,1.97l0.49,2.5l-1.03,0.85l0.18,1.71l-1.88,1.44l-0.31,2.52l-1.12,0.43l-1,2.52l-3.12,0.06l-2.44,1.54l-0.76,1.77l1.73,1.26l0.34,1.12l-1.94,3.39l-0.94,0.14l-0.61,0.85l0.15,2.05l1.61,1.48l0.07,3.78l1.15,1.65l5.98,3.32l3.18,2.83l1.13,2.83l1.71,1l0.9,1.45l1.51,0.65l4.94,-2.77l3.67,0.29l0,0l5.46,0.14l1.77,2.67l2.64,0.63l3.22,2.98l5.88,-2.94l2.77,0.12l1.32,1.51l1.66,0.06l0.99,-1.79l2.68,1.2l1.27,2.04l1.89,0.2l7.22,-5.42l3.13,-0.35l1.24,-1.04l0,0l1.25,0.37l2.31,2.71l0,0l0.2,1.3l2.43,-1.83l0.92,0.84l2.28,-0.39l1.27,0.29l-0.39,0.82l0.46,0.49l0,0l-0.62,2.02l-0.65,0.1l0.62,1.06l-0.32,2.08l1.23,1.33l-0.31,3.2l0.96,0.77l-0.35,4.18l-1.67,0.61l-1.62,-0.14l-3.86,-1.24l-0.23,3.43l1.39,1.71l0.35,2.63l0,0l-1.57,-0.27l-0.62,1.82l-1.96,2.08l-1.07,0.22l-0.11,3.51l-1.34,3.37l0.01,2.41l0.77,0.27l-2.23,3.13l-2.16,1.56l-2.52,0.43l-1.59,2.46l-2.16,0.59l-0.61,0.98l-3.45,1.64l-10.43,1.86l-0.97,-0.9l0.16,-1.27l-1.93,0.29l-4.44,-1.39l-1.69,-1.88l-5.23,-1.84l-1.96,0.8l-3.98,-2.13l-2.66,-0.04l-1.47,0.96l-0.66,-0.16l-1.62,2.35l-1.35,-0.1l-1.61,1.47l1.32,2.99l-0.46,1.76l-2.05,1.52l-1.65,0.04l-2.44,2.4v0.63l-6.37,2.89l-4.25,-0.35l-2.89,2.44l-3.53,1.52l-2.69,2.95l-5.73,3.88l-1.69,0.47l-0.92,1.11l-1.15,0.12l-1.97,-2.07l-8.97,-3.96l-0.74,1.21l-1.62,0.68l0.12,1.5l-1.52,1.21l0.16,1.25l-0.69,0.82l-1.55,-1.09l-0.97,0.04l-1.89,0.9l-1.13,-0.25l-2.78,0.84l-0.67,1.79l3.64,2.2l-1.79,0.9l-0.42,1.31l-1.62,0.58l-2.66,-0.21l-0.74,1.05l-1.89,0.02l-1.13,-2.83l-2.36,1.66l-0.32,-0.99l-2.13,-0.19l-0.7,-0.7l-1.65,1.17l-3.44,1.21l-0.2,-0.41l-6.11,5.05l-5.22,1.23l-0.93,-1.36l0.51,-2.32l-0.24,-2.32l-1.75,1.87l-0.97,-0.31l-3.78,1.66l0.05,3.9l-1.42,1.66l-2.71,0.68l-1.44,-0.56l0,0l-0.35,-5.42l1.39,-0.8l-0.5,-0.68l-1.35,0.45l-1.11,-2.18l0.16,-0.99l-2.02,-0.02l1.9,-4.78l0.27,-2.52l-2.31,-3.57l0.31,-1.25l1.28,0.31l2.33,-0.49l0.59,-1.97l0.84,-0.43l-0.76,-0.74l0.59,-1.68l-0.93,-4l1.62,-0.29l-0.47,-1.31l1.52,-1.02l0.72,-3.42l-0.46,-4.03l-1.13,-1.64l-0.04,-1.49l0,0l2.58,-1.21l3.44,-4.83l2.77,0.94l0.86,-0.45l0.55,-1.39l1.12,-0.53l-0.74,-1.64l0.35,-3.54l-0.77,-0.98l0.15,-2.41l1.48,-0.29l0.69,-0.82l-1.09,-2.57l3.31,-0.12l1.52,3.19l0.19,-1.04l2.44,-2.23l-0.96,-0.08l0.23,-2.61l0.67,-1.12l-0.43,-0.92l0.97,-1.98l-1.54,-0.47l-0.86,-1.25l-2.23,0.06l0.5,-2.67l-5.61,-0.94l-1.5,-2.04l0.15,-2.53l0.97,-1.06l-0.16,-2.51l-1.74,-2.77l1.88,-2.02l-0.45,-1.94l1.23,-3.1l1.28,-1.38l0,0l0.11,-0.94l0,0l-0.12,-1.04l1.56,-1.24l-3.94,-3.87l1.29,-0.71l0.55,-1.34l1.93,0.79l-0.98,0.71l0.34,0.61l1.15,-0.14l0.53,0.57l1.75,-0.96l1.15,-1.63l-0.94,-2.54l-0.14,-2.46l-3.48,-1.08l-2.36,0.43l-2.36,-0.45l-1.52,0.81l-2.55,-1.57l-2.19,-0.51l-0.08,0.47l-0.97,0.06l-0.96,-0.63l0.16,-0.59l-1.65,1.16l-1.19,-0.94l-1.27,0.02l-0.63,0.73l-0.92,-0.28l2.62,-1.75l-0.36,-2.48l1.03,-1.34l-1.3,-1.85l0.93,-0.97l0.13,-2.76l-2.23,-0.93l0.12,-0.51l2.54,-0.59l0.01,-0.89l2.89,-2.6l-1.82,-1.75l0.57,-1.08l-0.43,0.16l-0.93,-1.7l-0.85,0.49l-0.67,-0.43l-1.12,1.24l-5.52,2.8l-8.36,1.93l-5.96,-0.3l0,0l0,0l0,0l-1.21,-0.35l0,0l-2.15,-5.28l1.17,-2.17l-0.04,-2.76l2.29,-2.31l1.83,-0.36l1.79,-1.22l1.25,-1.6l-1.32,-3.36l1.38,-1.07l-0.04,-0.85l-1.4,-2.07l-2.6,-0.67l-2.25,-1.86l-1.56,1.07l-0.7,-1.66l2.21,-2.51l-1.35,-0.53l-0.55,0.61h-2.5l-2.55,1.36l-6.93,1.64l-0.97,-0.79l-1.59,1.56l-6.92,3.89l0.74,-3.54l1.2,-1.09l1.01,-4.51l-3.6,-6.8l0,0l1.36,-1.7l1.59,4.81l3,-1.36l3.24,-2.39l0.96,-0.95l0.58,-2l1.51,-0.61l0.46,1.27l1.86,-0.1l1.36,1.42l0.85,-0.53l1.36,-3.25l3.72,-0.44l3.16,-6.14l1.54,-0.81l-0.34,-1.29l0.49,-1.01l2.62,-0.97l0.07,0.83l0.86,-0.24l0.49,1.56l0.9,-0.08l0.89,-1.15l1.09,0.24l2.27,-0.69l1.63,0.4l2.02,-0.91l-0.54,-1.53l-1.13,-0.06l0.04,-0.75l0.82,-0.54l-0.44,-0.65l0.53,-0.81l2.52,-1.01l0.18,-1.82l-0.65,-1.03l0.42,-0.42l-0.58,-0.54l5.63,-0.3l0.63,1.29l9.85,0.83l4.38,-0.59l2.94,-3.57l3.43,-0.65l2.37,-1.29l4.25,0.32l1.38,1.23l7.22,0.02l1.31,1.03l1.24,-0.02l4.18,-2.6L216.17,96.72zM169.92,174.31l0.45,1.24l2.09,-1.02l0.12,-1.75l-0.63,-0.33l0.03,0.55l-1.66,0.77L169.92,174.31zM232.51,128.28l-0.53,1.92l1.97,0.04l1.36,-1.74l-0.69,-0.04l0,0l-0.5,-0.77L232.51,128.28zM216.17,96.72l-4.05,-0.02l0.89,-2.46l2.08,-1.33l0.3,-0.79l0,0l1.42,0.93l1.23,2.2l-0.42,1.07L216.17,96.72zM185.14,73.18l1.25,0.06l1.85,1.35l4.01,0.48l0,0l-0.74,3.32l0,0l-2.46,-0.14l0.15,-0.54l-2,-1.33l-0.4,-0.95l-2,-0.58L185.14,73.18zM222.42,67.21l2.02,0.46l0.63,0.9l-1.13,6.05l-3.12,0.04l-1.35,0.78l-0.61,-1.25l-1.31,-0.32l0.03,3.06l1.58,1.31l-7.37,0.68l0.74,1.69l-1.65,2.96l-0.98,-0.22l-1.27,0.97l-3.17,-1.05l-0.31,-2.21l-2.36,-0.04l-0.5,-0.64l-0.74,0.2l-0.18,0.72l-0.78,-0.36l0.08,2.54l-1.08,1.91l0,0l-3.25,-0.2l0.63,-0.85l-0.26,-1.85l-2.08,-0.6l-0.4,-1.29l-1,0.04l-0.59,-2.11l0,0l4.82,0.58l1.08,-0.79l1.38,0.32l1.58,-0.66l0.82,-2.27l-0.71,-1.57l-1.74,-1.97l-1.61,0.48l-0.62,-0.4l0,0l1.08,-1.57l0.01,-0.97l1.9,-0.58l0,0l2,2.31l4.42,-1.81l5.44,-0.54l0,0l2.82,-0.56l0.69,1.31l2.06,0.74l2.9,-0.34l1.28,-1.81L222.42,67.21z"/>
		<path id="CH-BL" title="Basel-Landschaft" class="land" d="M215.92,48.53L217.06,50.01L217.77,52.68L219.7,53L219.71,54.99L220.91,57.56L223.16,54.43L224.54,53.47L224.32,52.66L224.93,51.44L224.26,49.71L226.45,49.23L226.45,49.23L228.45,52.06L229.85,52.58L230.76,54.25L231.97,54.89L234.71,55.05L237.33,53.55L237.33,53.55L239.08,54.73L240.71,54.71L240.96,55.81L247.61,57.6L247.5,62.68L248.54,62.24L248.67,61.56L249.85,61.9L252.91,58.43L253.33,54.65L256.23,54.53L257.34,56.08L257.54,57.5L259.12,56.78L259.09,58.79L261.5,60.15L263.14,64.33L266.04,64.84L268.49,64.27L267.83,68.73L269.17,68.75L270.15,69.46L269.92,70.14L269.92,70.14L270.19,70.71L268.7,72.7L269.1,74.93L270.76,76.7L270.76,76.7L270.76,76.7L270.76,76.7L269.92,77L269.73,78.01L267.02,78.83L267.31,79.72L263.54,81.45L261.01,79.84L260.08,80L260.05,80.93L258.23,82.01L258.51,82.96L259.24,83.14L259.45,84.43L254.22,86.24L252.7,88.26L249.36,88.78L248.63,89.83L248.09,92.67L246.87,93.41L244.67,93.37L244.71,92.81L242.59,92.43L241.04,91.12L239.19,87.45L235.29,86.67L227.78,87.71L227.47,85.07L226.35,84.63L226.82,83.93L226.27,79.13L230.26,79.14L232.67,77.34L233.48,74.43L233.06,73.3L233.5,71.25L234.36,70.32L235.21,70.32L235.3,69.16L236.6,67.11L235.49,65.4L231.3,64.27L230.8,61.98L229.18,62.16L228.42,62.97L229.35,63.27L228.79,63.65L229.4,63.85L227.32,64.79L222.83,63.39L222.96,66.24L222.42,67.21L222.42,67.21L222.26,68.43L220.98,70.24L218.08,70.58L216.01,69.84L215.32,68.53L212.5,69.08L212.5,69.08L212.09,66.58L212.91,65.78L213.35,63.15L212.85,63.13L212.71,61.86L210.76,61.94L209.52,61.08L209.52,61.08L209.4,59.63L207.94,57.44L208.73,58.53L210.2,58.06L211.32,58.61L212.37,55.69L210.82,54.57L209.7,55.73L208.51,55.85L208.16,53.67z"/>
		<path id="CH-BS" title="Basel-Stadt" class="land" d="M232.34,43.27L231.47,44.35L232.58,45.06L233.02,46.68L233.67,47.08L233.36,48.41L232.92,47.58L232.19,48.69L230.12,48.55L228.37,49.59L226.78,48.67L226.45,49.23L226.45,49.23L224.26,49.71L224.93,51.44L224.32,52.66L224.54,53.47L223.16,54.43L220.91,57.56L219.71,54.99L219.7,53L217.77,52.68L217.06,50.01L215.92,48.53L215.92,48.53L215.98,47.2L217.2,46.14L219.52,46.48L220.41,43.47L222.47,44.44L222.77,45.94L224.28,46.12L228.15,42.55L231.72,43.29z"/>
		<path id="CH-FR" title="Fribourg" class="land" d="M110.43,209.44l0.27,0.29l0,0l0.34,-0.37l1.04,0.73l-0.28,2.39l-0.94,1.81l0,0l0,0l0,0l-2.01,1.69l-0.5,-1.57l-1.35,-1.22l2.78,-2.61l0.5,-1.26l0,0L110.43,209.44zM120.74,204.83l0.36,0.04l0,0l1.07,2.24l-0.28,0.37l0.88,-0.27l1.43,1.26l-0.05,0.53l0.32,-0.41l0.57,1.22l-2.59,3.67l0.58,0.45l-0.45,0.59l-2.27,-0.41l-2.54,-1.61l-1.36,0.41l-1.16,1.2l-2.27,0.33l-0.58,-0.47l0.65,-1.55l0.88,0.33l2.27,-0.82l0,0l0,0l0,0l1.66,-3.34l1.96,-1.73l0.72,-2.04l0,0L120.74,204.83zM122.85,178.36l4.06,5.16l1.31,0.92l0.62,-0.35l1.43,1.79l-1.19,0.73l-0.38,-0.39l-1.51,0.55l-0.81,0.43l0.27,0.53l2.58,-0.77l2.27,2.6l-2.42,2.36l-1.17,2.75l0.94,2.81l-0.77,1.32l0.94,0.49l1.13,-1.51l1.47,1.06l-1.36,1.73l-0.53,2.34l-0.82,0.98l-0.23,-0.81l-1.39,0.45l-0.59,0.86l-2.23,0.1l-0.47,-0.71l-0.36,0.39l-1.12,-0.59l-0.63,-1.39l-1.93,1.79l-0.66,-0.37l-0.59,1.02l-1.08,-0.27l-0.35,0.77l-2.74,-2.47l-0.9,0.51l-2.29,-2l-0.5,0.79l0.16,-0.92l1.19,-1.06l-0.35,-0.75l-0.81,0.49l-4.9,-5.31l5.13,-4.99l0,0L122.85,178.36zM171.34,173.2l0.61,-0.77l0.63,0.33l-0.12,1.75l-2.09,1.02l-0.45,-1.24L171.34,173.2zM147.61,164.99l5.96,0.3l8.36,-1.93l5.52,-2.8l1.12,-1.24l0.67,0.43l0.85,-0.49l0.93,1.7l0.43,-0.16l-0.57,1.08l1.82,1.75l-2.89,2.6l-0.01,0.89l-2.54,0.59l-0.12,0.51l2.23,0.93l-0.13,2.76l-0.93,0.97l1.3,1.85l-1.03,1.34l0.36,2.48l-2.62,1.75l0.92,0.28l0.63,-0.73l1.27,-0.02l1.19,0.94l1.65,-1.16l-0.16,0.59l0.96,0.63l0.97,-0.06l0.08,-0.47l2.19,0.51l2.55,1.57l1.52,-0.81l2.36,0.45l2.36,-0.43l3.48,1.08l0.14,2.46l0.94,2.54l-1.15,1.63l-1.75,0.96l-0.53,-0.57l-1.15,0.14l-0.34,-0.61l0.98,-0.71l-1.93,-0.79l-0.55,1.34l-1.29,0.71l3.94,3.87l-1.56,1.24l0.12,1.04l0,0l-0.11,0.94l0,0l-1.28,1.38l-1.23,3.1l0.45,1.94l-1.88,2.02l1.74,2.77l0.16,2.51l-0.97,1.06l-0.15,2.53l1.5,2.04l5.61,0.94l-0.5,2.67l2.23,-0.06l0.86,1.25l1.54,0.47l-0.97,1.98l0.43,0.92l-0.67,1.12l-0.23,2.61l0.96,0.08l-2.44,2.23l-0.19,1.04l-1.52,-3.19l-3.31,0.12l1.09,2.57l-0.69,0.82l-1.48,0.29l-0.15,2.41l0.77,0.98l-0.35,3.54l0.74,1.64l-1.12,0.53l-0.55,1.39l-0.86,0.45l-2.77,-0.94l-3.44,4.83l-2.58,1.21l0,0l-1.82,1.15l-2,3.03l-2.12,-2.74l-3.98,3.44l-2.08,0.06l-1.61,3.97l-1.75,1.99l-1.86,0.7l-1.23,1.5l-5.32,-0.1l-5.34,5.19l-0.43,2.6l-3.89,1.87l-0.78,0.02l1.11,-2.05l-1.71,-2.3l-0.16,-2.56l0.4,-0.43l-1,-1.17l-0.26,-2.01l-2.36,-2.03l-2.52,0.12l-3.28,-2.33l-1.32,-0.04l-0.76,1.04l0.22,-2.52l-2.12,1.6l-2.19,2.48l-0.38,1.17h-2l-1.66,-1.64l-0.62,-2.05l-0.85,0.08l-1.82,-2.58l1.93,-3.56l-0.04,1.04l0.76,0.12l3.35,-0.72l0.81,2.11l1.05,-2.54l2.56,-2.91l1.88,-0.57l-0.08,-1.68l-1.86,0.45l-0.46,1.1l-0.69,-1.04l-0.67,0.41l-1.44,-2.74l-2.25,-1l-1.81,1.55l-1.2,-0.37l-0.43,-1.21l-0.89,-0.39l-0.14,1.47l-1.15,0.04l-0.7,0.76l-0.62,-0.23l0.86,-3.23l-0.39,-1.53l0.49,-0.14l0.23,-1.51l-0.13,-3.76l-0.76,-1.18l0.9,-2.35l-0.67,-0.63l1.67,-0.29l1,0.55l1.05,-2.14l0.97,-0.71l1.12,0.16l0.35,0.8l1.21,0.43l0.81,-0.94l0.49,0.35l0.62,-0.41l-0.45,-0.86l0.97,-1.67l-1.17,-1.49l0.74,-0.92l0.63,0.53l2.5,-2.49l0.5,-1.98l5.34,-5.2l0.78,-2.18l-1.39,-1.98l-1.42,0.57l-0.36,-0.63l-0.93,0.22l-0.3,-0.82l0.81,-1.08l0.8,0.63l2,-2.26l-0.45,-0.79l1.46,-1.71l1.01,0.27l0.98,-0.98l-0.11,-1.18l1.43,-1.75l-1.4,-2.4l1,-2.5l2.87,1.12l1.03,-2.18l-1.28,-1.2l1.2,-1.65l-0.27,-0.45l-1.67,0.77l-0.5,-1.44l0.81,-2.64l1.2,-1.36l-1.15,-1.67l-0.93,-1.08l-2.06,1.16l1.42,2.66l-0.46,0.35l-1.9,-1.71l-1.73,-3.01l-1.75,-0.53l-0.2,-0.47l0.88,-0.83l-4.53,-5.14l0,0l4.41,-5.36l0,0l4.79,5.55l0.92,0.73l0.82,-0.59l1.2,0.85l-0.74,2.05l3.89,3.96l-2.21,2.03l0.76,0.9l1.24,0.24l1.09,-1.48l0.67,0.85l0.47,-0.33l1.46,0.96l-0.81,1.38l1.3,1.2l-0.84,0.55l-0.49,1.36l0.89,0.89l2.28,-1.93l2.36,-3.29l-0.62,-1.63l-0.61,0.2v-0.79l2.51,-2.07l-0.8,-0.2l1.2,-0.14l0,0l0.08,0.61l0.93,0.18l1.77,-1.61l-0.84,0.08l-0.85,-0.71l0,0l0.24,-0.63l-4.78,-6.42l0.51,-1l-0.5,-4.18l0.78,-1.06L147.61,164.99zM159.1,176.47L159.1,176.47l-2.64,0.71l-0.23,1.08l0.85,2.01l2.52,-1.4L159.1,176.47L159.1,176.47z"/>
		<path id="CH-GE" title="Genève" class="land" d="M22.79,294.33l2.47,2.73l7.52,3.8l2.87,-5.35l0,0l3.7,1.64l0.61,2.55l-1.69,1.5l-0.31,1.05l1.7,2.96l1.43,1.3l-0.01,0.78l0.97,0.7l1.44,-0.72l2.32,-2.39l0.16,1.71l1.69,-0.21l-0.4,0.99l0.43,1.34l-1.94,3.67l-6.38,3.91l-2.15,-0.16l-6.06,5.01l0.2,2.47l-8.15,5.36l-1.43,-0.74l-3.1,0.17l-0.3,-1.75l-2.35,0.52l-3.13,-0.56l-2.12,3.28l-1.07,-1.15l-4.65,-0.76l-1.5,0.29l-0.82,1.94l-2.59,0.93l-0.09,-0.95l1.38,-1.01L1.12,328l2.42,-5.55l0.65,0.72l0.97,-2.33l-0.47,-1.15l-3.58,-1.79l1.16,-1.17l-0.35,-0.37L3.2,314l1.62,0.33l-0.23,-1.38l1.3,0.5l1.25,-1.89l3.22,-1.85l1.83,1.34l1.92,-2.66l1.43,0.66l1.97,-1.09l2.36,1.77l2.79,-2.43l-0.63,-2.61l-1.23,-1.13l0.16,-0.7l-1.05,-1.03l-0.26,-1.17l1.66,-1.87l0.77,-0.06l-0.03,-3.23L22.79,294.33zM30.1,288.19l0.77,0.74l0,0l-0.42,0.41l-0.93,-0.56l-0.38,1.11l-0.53,-0.41l0.82,-1.19l0,0l0,0l0,0l0.36,-0.37l0,0L30.1,288.19zM37.32,291.87l-4.82,-2.3l-0.24,-1.21l-2.73,-1.11l-0.46,-0.84l1.31,-1.27l2.19,0.99l0.65,0.97l5.33,2.22l0,0L37.32,291.87z"/>
		<path id="CH-GL" title="Glarus" class="land" d="M411.57,126.22L420,135.02L424.33,134.45L429.02,134.73L436.4,136.09L436.03,137.85L436.46,139.51L435.96,140.95L436.49,142.77L436.31,147.25L434.41,150.13L429.61,152.88L431.79,154.55L433.44,155.3L434.53,154.79L435.23,155.44L438.96,153.51L441.13,154.4L443.37,157.08L444.5,161.24L443.56,163.77L443.79,168.36L443.63,168.97L442.57,169.34L442.55,171.04L443.14,172.46L444.46,173.54L444.77,174.76L444.21,176.97L444.21,176.97L443.01,178.56L441.32,178.97L438.11,183.62L435.95,184.72L431.32,184.25L431.83,185.33L430.58,185.72L429.62,187.75L427.83,188.38L425.75,190.05L424.81,189.52L423.46,185.82L420.91,185.04L419.02,185.19L417.99,186.59L416.85,186.88L416.89,190.09L415.69,191.05L415.29,192.96L413.34,196.54L411.8,197.72L404.47,198.92L400.95,200.59L399.29,200.08L399.01,197.6L398.01,197.88L397,197.03L394.1,197.31L394.1,197.31L394.65,194.38L393.4,191.58L396.41,190.23L398.16,187.97L401.74,186.98L404.83,184.76L404.34,179.96L403.06,178.92L401.94,176.2L401.94,176.2L405.81,174.66L404.73,172.53L405.65,169.34L406.77,168.3L405,167.83L403.88,166.35L403.34,166.8L401.53,163.79L402.67,163.35L402.76,162.74L402.18,162.92L401.17,160.97L399.89,160.2L398.89,158.68L398.69,157.12L396.34,155.88L397.76,155.17L397.67,152.98L400.39,152.98L403.91,150.79L404.58,147.96L407.47,143.66L404.64,142.41L405.47,140.79L406.9,140.04L407.25,137.95L406.19,136.74L406.44,133.68z"/>
		<path id="CH-GR" title="Graubünden" class="land" d="M485.45,149.3L485.57,150.41L486.25,150.82L489.43,149.98L492.28,148.28L494.34,149.98L496.23,150.37L497.31,149.84L497.77,148.77L501.48,148.77L502.56,148.16L503.76,149.6L506.36,149.94L506.16,150.88L507.74,151.91L510.85,152.17L512.2,153.29L516.41,152.98L520.37,156.23L521.5,156.39L523.68,157.99L526.22,157.08L526.9,155.98L529.41,156.47L529.67,157.12L528.41,157.91L528.39,158.58L530.74,160.51L531.2,162.64L528.99,165.58L528.33,167.71L529.38,168.85L528.81,170.33L529.5,172.34L529.05,173.32L533.83,175.21L537.43,177.69L538.5,177.85L540.05,177.16L541.25,177.79L542.61,177.16L543.15,179.21L544.39,179.86L546.45,180.55L548.2,180.02L550.06,182.75L551,183.01L552.69,185.06L552.57,187.06L553.14,187.81L557.47,187.95L558.16,188.6L558.25,189.99L560.02,191.86L561.69,191.35L562.34,190.48L564.55,190.66L565.37,189.91L566.88,190.62L567.79,189.89L568.53,190.03L570.27,189.05L571.9,186.87L573.24,187.28L576.9,186.9L577.39,183.3L576.42,182.2L576.18,180.88L577.19,179.76L577.69,177.14L578.35,176.41L578.39,173.99L581.44,174.5L585.77,176.28L586.47,175.29L588.31,175.19L588.46,174.07L586.99,172.34L587.22,170.8L587.47,170.21L589.82,169.56L590.28,167.14L592.5,162.44L593.54,161.93L595.82,162.23L597.69,160.39L599.43,161.02L601.37,163.77L603.26,165.15L602.72,167.9L603.26,168.69L607.09,169.58L609.95,171.9L611.68,172.55L611.27,175.69L610.13,178.32L609.84,181.67L608.42,183.13L609.21,185.27L608.78,187.61L609.17,190.31L608.3,191.82L608.37,193.08L607.26,194.18L607.24,197.09L605.09,200.78L603.57,200.9L602.38,201.73L605.05,205.36L605.59,208.42L605.2,209.48L604.34,209.54L599.83,213L602.03,215.98L601.81,217.61L600.07,218.96L597.77,222.64L598.54,228.13L599.97,232.25L600.99,232.48L605.98,231.42L611.96,236.81L611.06,238.39L611.43,241.92L610,245.46L610.33,247.65L609.52,249.27L609.65,250.25L607.94,250.76L606.91,252.6L605.15,251.7L601.98,248.69L599.09,249.96L595.72,248.02L593.23,247.65L591.49,250.31L589.81,248.67L587.66,249.45L585.6,248.76L585.62,247.06L584.33,244.68L581.81,243.44L579.85,244.56L578.85,243.62L578.19,240.72L580.59,236.91L578.31,234.11L577.95,232.29L576.37,232.83L574.57,235.52L571.74,234.69L571.13,233.83L563.16,237.91L559.42,236.95L558.83,240.16L559.21,242.62L557.87,243.87L556.56,243.95L556.98,245.2L556.66,246.32L555.46,247.14L553.88,249.64L552.18,249.96L551.64,250.82L552.97,254.73L552.76,255.78L551.36,257.09L552.14,258.73L551.65,260.26L552.14,261.25L551.38,262.64L552.57,264.01L552.88,265.39L551,269.3L553.34,270.29L553.96,272.79L556.02,272.6L556.56,273.94L558.94,274L560.19,272.69L561.39,272.99L563.12,272.01L564.96,272.65L565.58,273.63L565.72,275.76L567.22,274.96L568,275.97L567.46,277.28L567.59,280.22L566.82,280.81L564.62,280.77L562.97,282.4L563.04,285.58L560.19,287.39L559.84,291.35L561.35,294.93L564.15,296.74L564.94,298.32L566.59,299.21L566.4,300.25L567.49,301L567.46,302.81L568.64,303.88L569.45,306.1L565.94,309.37L565.28,311.06L563.81,312.01L561.96,312.34L557.91,311.57L556.7,311.94L555.13,313.59L551.75,311.24L552.77,310.24L553.8,307.5L553.1,304.41L549.59,302.13L545.74,300.95L544.85,299.51L544.66,298.46L545.65,297.35L545.31,296.26L545.84,294.95L545.07,294.91L543.1,293.2L544.97,289.58L545.14,287.55L543.53,287.45L540.83,285.15L539.73,283.59L539.73,282.35L536.58,283.18L535.54,284.78L535.21,283.52L534.5,283.57L533.71,282L533.01,281.88L530.32,283.2L528.41,285.25L523.64,285.48L521.73,287.57L517.21,289.38L515.58,290.76L514.19,290.39L511.26,287.61L510.03,287.88L508.44,289.3L508.68,291.06L507.48,292.98L508.41,293.88L508.51,294.83L507.17,297.03L506.9,298.9L505.61,299.25L503.56,298.83L501.59,297.15L500.88,298.14L499.87,298.24L497.12,300.23L495.95,300.34L494.19,299.9L492.48,298.63L489.13,298.55L485.76,296.24L484.48,297.19L480.53,292.38L479.35,287.84L478.08,286.61L477.92,284.53L475.83,284.55L473.01,283.03L473.69,279.29L473.11,275.76L471.89,274.02L472.88,269.24L472.43,265.8L473.33,264.59L473.27,262.74L472.66,262.03L470.88,262.01L470.69,261.19L472.51,260.51L473.09,256.64L469.33,258.56L467.82,260.65L467.67,262.99L466.02,264.89L464.08,264.38L462.26,262L461.07,261.43L460.22,259.48L461.04,257.81L459.45,256.72L458.28,257.64L456.25,257.7L455.43,257.19L447.96,259.26L447.34,261.78L447.78,262.87L447.39,266.92L446.33,268.03L443.99,268.67L443.87,269.92L444.6,272.48L446.62,274.21L447.77,274.27L448.24,275.4L448.39,277.86L447.84,279.46L448.77,280.83L447.54,283.91L448.7,286.23L450.39,287.08L450.7,289.26L449.85,290.78L450.68,292.48L449.79,294.37L448.6,295.13L448.85,298.05L445.66,301.37L444.52,303.98L444.02,310.38L440.23,310.65L439.97,313.98L437.56,315.86L436.65,320.89L434.83,323.05L432.39,323.03L432.39,323.03L431.5,322.91L429.23,321.05L426.49,316.77L422.53,314.4L421.1,309.68L421.14,305.32L419.37,302.99L418.05,299.49L420.93,295.2L419.44,292.63L420.12,291.48L419.79,290.65L420.33,289.25L422.71,288.23L423.65,283.52L422.62,280.59L423.7,278.33L422.88,277.24L424.67,276.01L422.82,271.89L422.54,269.63L423.59,266.43L422.17,263.5L420.58,262.62L418.86,263.32L417.4,262.72L417.06,261.16L416.13,260.55L415.78,259.1L413.88,256.62L413.88,254.79L413.04,252.62L413.77,251.27L413.41,249.14L414.3,245.65L416.54,241.57L415.39,240.55L415.27,239.08L414.27,239.24L412.87,238.45L411.33,236.83L408.5,237.34L406.94,238.59L405.59,238.53L405.24,236.93L405.63,235.38L404.35,232.78L403.99,234.38L402.86,235.44L400.31,234.52L398.03,236.12L398.13,237.96L399.39,239.73L398.63,241.33L394.02,244.07L391.17,244.89L389.73,246.08L388.08,246.36L387.66,244.64L383.71,246.05L378.79,243.97L378.1,244.19L378.1,244.19L377.18,243.72L375.51,244.42L375.51,244.42L373.96,243.5L372.35,244.64L372.35,244.64L372.35,244.64L372.35,244.64L370.93,244.07L369.92,242.66L367.32,243.05L367.32,243.05L367.71,241.1L367.1,239.29L367.31,235.79L367.05,235.07L365.39,234.75L363.65,232.23L364.58,229.72L364.05,229.23L367.28,226.25L366.63,225.04L366.75,220.82L368.37,220.51L369.63,218.82L371.38,219.61L372.36,219.02L372.55,218.21L373.9,217.98L376.51,215.98L376.82,215.17L376.1,213.74L376.7,212.39L378.88,210.74L379.42,210.72L379.51,211.66L380.05,211.72L381.26,213.94L385.4,212.21L385.09,210.6L386.19,207.21L388.27,206.4L387.45,204.02L387.49,201.49L388.31,200.8L389.78,201.12L390.02,200.23L391.67,198.8L393.52,198.27L394.1,197.31L394.1,197.31L397,197.03L398.01,197.88L399.01,197.6L399.29,200.08L400.95,200.59L404.47,198.92L411.8,197.72L413.34,196.54L415.29,192.96L415.69,191.05L416.89,190.09L416.85,186.88L417.99,186.59L419.02,185.19L420.91,185.04L423.46,185.82L424.81,189.52L425.75,190.05L427.83,188.38L429.62,187.75L430.58,185.72L431.83,185.33L431.32,184.25L435.95,184.72L438.11,183.62L441.32,178.97L443.01,178.56L444.21,176.97L444.21,176.97L446.66,179.54L447.98,178.68L449.35,179.13L452.3,178.95L453.42,179.94L456.33,179.72L465.96,181.61L469.02,183.01L471.24,185.41L472.23,183.93L471.97,182.85L473.62,182.75L473.86,182.3L473.75,180.02L476.5,177.58L475.28,176.93L475.44,174.96L476.34,172.97L477.58,172.06L478.76,169.36L480.63,168.77L480.75,165.91L484.25,164.85L480.94,160.75L479.15,156.74L474.95,150.02L474.95,150.02L475.78,149.32L477.26,149.29L478.31,149.21L480.11,149.21L480.63,148.55L483.45,147.63z"/>
		<path id="CH-JU" title="Jura" class="land" d="M145.67,61.7L150.61,63.03L151.05,63.87L153.22,62.58L156.39,62.4L158.12,60.78L159.87,61.3L162.33,63.35L163.88,63.65L168.04,62.68L168.18,63.15L166.65,63.73L165.99,64.9L164.74,67.83L164.74,70.06L163.75,72.66L166.62,73.44L167.32,74.29L172.15,73.58L172.96,74.67L172.79,75.31L173.81,75.92L173.62,77.16L177.35,75.92L178.8,74.57L180.29,74.75L181.66,73.68L184.32,73.68L185.14,73.18L185.14,73.18L184.81,74.85L186.8,75.43L187.21,76.38L189.2,77.71L189.06,78.25L191.51,78.39L191.51,78.39L192.66,78.53L192.66,78.53L193.25,80.64L194.25,80.6L194.65,81.89L196.73,82.48L196.99,84.33L196.35,85.19L199.61,85.38L199.61,85.38L200.31,85.24L203.42,87.23L211.59,86.87L211.33,88.32L213.66,89.24L213.57,91.68L215.39,92.11L215.39,92.11L215.09,92.91L213.02,94.24L212.13,96.7L216.17,96.72L216.17,96.72L216.17,96.72L216.17,96.72L216.17,96.72L216.17,96.72L211.76,98.21L207.58,100.81L206.34,100.83L205.03,99.79L197.81,99.77L196.44,98.54L192.19,98.23L189.81,99.52L186.38,100.17L183.44,103.74L179.06,104.34L169.21,103.5L168.58,102.21L162.95,102.51L163.53,103.05L163.11,103.46L163.76,104.49L163.58,106.32L161.06,107.33L160.54,108.14L160.98,108.8L160.16,109.33L160.12,110.08L161.25,110.14L161.79,111.67L159.77,112.58L158.13,112.18L155.87,112.88L154.77,112.64L153.88,113.79L152.98,113.87L152.49,112.3L151.63,112.54L151.56,111.71L148.95,112.68L148.46,113.69L148.8,114.98L147.26,115.79L144.1,121.93L140.38,122.36L139.02,125.61L138.17,126.14L136.8,124.72L134.94,124.82L134.48,123.55L132.97,124.16L132.39,126.16L131.43,127.11L128.2,129.5L125.2,130.87L123.61,126.06L122.25,127.76L122.25,127.76L121.76,127.94L121.76,127.94L119.86,127.67L119.39,126.72L122.38,125.11L122.81,124.1L123.77,124.2L124.63,121.14L128.72,117.55L130.22,117.02L131.08,115.57L132.86,114.92L133.13,113.77L134.77,112.68L133.73,110.96L134.32,107.29L132.85,104.22L133.12,103.84L134.27,102.99L137.33,103.13L137.65,102.15L140.32,102.33L141.88,101.18L142.92,98.64L142.55,97.35L142.04,97.21L142.17,96.38L145.21,95.69L147,95.95L149.09,92.71L147.6,91.8L147.38,88.9L145.6,88.62L145.22,87.43L143,86.81L140.01,88.7L131.68,89.59L130.42,90.19L127.79,89.43L124.46,90.78L125.21,86.56L129.13,83.71L128.7,82.22L129.68,81.01L129.14,80.58L132.36,80.26L132.86,78.29L132.7,74.87L135.28,74.73L136.25,73.98L136.98,72.21L140,71.79L141.05,70.73L140.58,70.04L140.88,68.05L139.62,67.99L139.84,67.19L139.04,66.24L139.11,63.87L138.5,62.7L143.54,60.64z"/>
		<path id="CH-LU" title="Lucerne" class="land" d="M253.1,113.29L256.22,114.5L259.06,113.27L263.69,112.3L265.16,113.57L266.79,113.99L270.56,110.5L269.07,106.3L269.78,105.84L272.18,106.36L273.82,106.08L275.13,104.95L278.02,109.33L277.92,112.32L279.66,113.04L284.08,111.97L283.48,110.08L285.6,110.22L287.84,108.62L289.18,109.21L290.47,112.24L292.78,112.84L294.14,111.85L299.11,110.68L299.44,113.12L298.71,112.8L296.77,113.63L297.37,113.77L297.34,114.78L298.11,115.47L299.23,115.77L299.67,116.88L300.83,116.74L301.86,115.89L303.36,116.05L303.4,112.72L305.45,110.78L306.54,106.6L308.47,106.77L308.46,105.6L309.6,104.02L310.8,103.92L311.05,104.71L313.37,104.83L316.16,106.93L315.47,108.2L315.73,109.41L317.86,112.14L319.02,116.78L318.8,117.91L319.75,118.46L320.3,121.59L321.37,123.39L321.46,125.57L324.05,129.7L324.55,131.78L328.83,133.28L330.54,133.4L331.32,132.87L331.32,132.87L332.12,136.48L336.1,135.08L336.75,137.99L336.75,137.99L332.17,140.71L330.93,142.23L331.11,143.68L330.54,144.9L328.23,146.68L328.26,147.67L328.37,148.52L329.73,148.79L333.83,147.61L335.11,148L343.34,155.66L344.99,156.33L344.23,159.53L340.75,161.14L338.99,161.08L338.99,161.08L339.28,158.7L333.37,157.12L333.52,160.71L329.19,160.39L327.92,160.91L327.45,157.02L325.39,156.63L320.92,162.6L318.78,160.65L315.69,160.91L314.85,161.62L311.75,160.93L309.04,163.27L306.74,162.03L305.35,164.53L306.85,166.09L306.85,166.09L306.85,166.09L306.85,166.09L306.23,166.74L303.1,167.2L301.13,166.35L296.27,168.91L296.31,170.03L298,172.89L294.09,175.86L290.9,181.87L290.34,181.04L290.51,178.78L288.66,177.97L287.61,178.64L286.67,180.65L285.52,180.9L284.95,182.83L285.55,185.49L284.95,187.69L284.68,188.44L283.64,188.69L283.46,190.29L282.09,191.31L281.63,192.75L284.56,198.31L284.54,199.29L283.42,200.06L283.47,201.25L282.48,202.37L282.48,202.37L278.81,202.08L273.88,204.85L272.37,204.2L271.46,202.75L269.75,201.75L268.62,198.92L265.43,196.09L259.45,192.76L258.31,191.11L258.24,187.34L256.63,185.86L256.49,183.82L257.09,182.97L258.04,182.83L259.98,179.45L259.64,178.32L257.92,177.06L258.67,175.29L261.11,173.76L264.23,173.7L265.23,171.18L266.35,170.74L266.66,168.22L268.53,166.78L268.36,165.07L269.38,164.22L268.9,161.71L269.76,159.74L269.06,159.17L266.73,159.68L265.61,158.4L262.5,159.21L261.91,157.77L262.35,156.92L261.49,155.96L261.41,154.93L260.03,153.77L259.82,152.52L258.87,152.4L258.15,151.28L257.77,149.96L258.85,148.36L258.48,148.08L259.81,143.04L259.41,141.58L258.74,141.17L258.87,138.78L258.05,138.48L257.97,137.06L260.49,135.12L260.94,132.79L259.25,130.3L259.16,126.54L258.35,124.12L257.58,123.43z"/>
		<path id="CH-NE" title="Neuchâtel" class="land" d="M122.25,127.76L125.85,134.57L124.84,139.07L123.64,140.16L122.89,143.7L129.81,139.8L131.41,138.24L132.38,139.03L139.31,137.39L141.86,136.03L144.36,136.03L144.91,135.42L146.26,135.95L144.05,138.46L144.75,140.12L146.31,139.05L148.57,140.91L151.17,141.58L152.58,143.66L152.62,144.51L151.24,145.57L152.56,148.93L151.31,150.53L149.51,151.75L147.68,152.11L145.38,154.42L145.42,157.18L144.25,159.35L146.4,164.63L146.4,164.63L141.34,163.17L131.41,169.88L131.41,169.88L127,175.23L127,175.23L122.85,178.36L122.85,178.36L111.26,189.4L111.26,189.4L107.97,186.02L105.88,185.65L104.91,186.29L105.92,183.46L105.85,181.12L102.72,178.92L103.61,174.03L103.17,172.97L96.45,175.94L93.32,178.11L90.6,182.5L84.92,183.46L78.52,186.79L76.63,188.77L70.91,190.78L68.93,190.52L68.78,189.91L67.89,189.64L67.89,189.64L68.44,182.22L64.13,174.82L66.55,173.17L69.86,168.69L72.89,165.72L73.99,167.31L76.16,166.17L81.92,164.55L86.09,162.11L88.23,162.42L91.32,160.97L94.98,155.13L97.11,153.69L99.74,153.23L102.91,150.61L99.22,147.39L101.2,145.85L101.38,144.9L100.7,144.45L103.82,142.55L105.96,142.63L106.62,141.52L105.98,139.23L109.05,137.1L114.6,135.06L115.08,134.09L115.99,134.01L119.18,131.11L119.31,130.22L120.53,129.72L121.76,127.94L121.76,127.94z"/>
		<path id="CH-NW" title="Nidwalden" class="land" d="M306.85,166.09L305.35,164.53L306.74,162.03L309.04,163.27L311.75,160.93L314.85,161.62L315.69,160.91L318.78,160.65L320.92,162.6L325.39,156.63L327.45,157.02L327.92,160.91L329.19,160.39L333.52,160.71L333.37,157.12L339.28,158.7L338.99,161.08L338.99,161.08L338.65,163.65L342.66,165.13L349.16,164.53L352.94,162.37L352.94,162.37L353.36,163.96L350.74,167.73L351.17,172.26L349.27,172.36L349.69,173.48L349.36,174.7L345.98,175.84L343.74,177.5L343.09,176.61L341.47,176.63L340.73,178.66L338.45,179.58L337.79,180.61L339.11,180.94L340.39,183.34L339.01,185.02L339.42,189.19L339.42,189.19L335.07,189.48L333.81,190.05L332.47,189.74L332.31,187.55L331.55,186.22L330.47,187.22L329.6,187.28L327.8,189.21L327.28,188.93L326.45,190.46L326.67,188.22L327.76,186.96L327.18,185.45L325.91,185.72L325.66,190.88L326.71,194.63L326.28,196.91L328.19,197.64L327.78,199.21L329.5,200.9L332.42,202.1L333.43,204.65L331.93,204.26L329.19,205.46L329.19,205.46L326.88,202.75L325.63,202.37L325.63,202.37L324.7,201.23L322.34,200L319.26,195.99L321.07,194.53L320.19,191.31L320.99,187.91L320.22,184.68L321.49,182.08L321.27,179.47L322.2,177.48L321.61,176.69L321.79,174.54L317.62,175.51L314.8,173.66L316.31,171.08L317.64,170.05L317.21,169.3L317.79,166.82L317.22,165.28L314.05,165.32L310.47,164.5L309.2,165.46z"/>
		<path id="CH-OW" title="Obwalden" class="land" d="M329.19,205.46l2.74,-1.2l1.5,0.39l-1.01,-2.55l-2.91,-1.2l-1.73,-1.69l0.42,-1.57l-1.92,-0.73l0.43,-2.28l-1.05,-3.76l0.26,-5.15l1.27,-0.28l0.58,1.51l-1.09,1.26l-0.22,2.24l0.82,-1.53l0.53,0.28l1.79,-1.93l0.88,-0.06l1.08,-1l0.76,1.34l0.16,2.18l1.33,0.31l1.27,-0.57l4.34,-0.29l0,0l0.94,-0.45l2.77,0.85l1.09,1.44l-0.3,0.9l-2.17,1.2l-1.12,4.15l0.42,1.83l-1.35,0.9l-1.12,-0.24l1.11,1.04l1.09,-0.57l-0.36,1.75l1.4,1.65l0.32,1.59l-1.35,0.86l-2.16,-0.12l-2.28,1.02l0,0l-0.46,-0.49l0.39,-0.82l-1.27,-0.29l-2.28,0.39l-0.92,-0.84l-2.43,1.83L329.19,205.46zM306.85,166.09l2.35,-0.63l1.27,-0.97l3.59,0.83l3.17,-0.04l0.57,1.54l-0.58,2.48l0.43,0.75l-1.34,1.02l-1.51,2.58l2.82,1.85l4.17,-0.96l-0.18,2.15l0.59,0.79l-0.93,1.99l0.22,2.62l-1.27,2.6l0.77,3.23l-0.8,3.4l0.88,3.22l-1.81,1.45l3.08,4.01l2.36,1.24l0.93,1.14l0,0l-1.24,1.04l-3.13,0.35l-7.22,5.42l-1.89,-0.2l-1.27,-2.04l-2.68,-1.2l-0.99,1.79l-1.66,-0.06l-1.32,-1.51l-2.77,-0.12l-5.88,2.94l-3.22,-2.98l-2.64,-0.63l-1.77,-2.67l-5.46,-0.14l0,0l0.98,-1.12l-0.05,-1.2l1.12,-0.77l0.03,-0.98l-2.93,-5.56l0.46,-1.44l1.36,-1.02l0.19,-1.59l1.04,-0.26l0.27,-0.75l0.59,-2.2l-0.59,-2.66l0.57,-1.93l1.15,-0.26l0.94,-2.01l1.05,-0.67l1.85,0.81l-0.18,2.26l0.57,0.83l3.18,-6l3.91,-2.97l-1.69,-2.86l-0.04,-1.12l4.86,-2.56l1.97,0.85l3.13,-0.45L306.85,166.09z"/>
		<path id="CH-SG" title="Sankt Gallen" class="land" d="M480.12,51.64l-8.59,9.52l0.07,1.69l2.2,0.84l-0.16,0.74l10.28,-7.84l0,0l2.89,3.78l0.15,2.09l2.17,1.95l2.02,4.06l1.03,0.26l0.94,-1.45l1.31,1.91l5.17,1.41l0.04,1.05l-1.61,1.71l-0.26,1.25l0.88,5.25l1.03,1.77l1.89,1.27v1.79l-0.61,1.33L499,87.47l-4.02,0.4l-2.56,2.9l-2.87,7.74l-3.49,2.62l-1.5,3.93l-2.13,1.78l-0.19,2.12l-1.27,3.57l-2.25,3.9l-2.31,8.06l0.66,3.62l2.52,5.16l1.31,8.24l-0.92,2.19l-5.42,4.01l0.41,2.31l0,0l4.2,6.73l1.79,4l3.3,4.1l-3.49,1.06l-0.12,2.86l-1.88,0.59l-1.17,2.7l-1.24,0.91l-0.9,1.99l-0.16,1.97l1.23,0.65l-2.75,2.44l0.11,2.28l-0.24,0.45l-1.65,0.1l0.26,1.08l-0.99,1.48l-2.23,-2.4l-3.06,-1.4l-9.62,-1.89l-2.91,0.22l-1.12,-0.98l-2.96,0.18l-1.36,-0.45l-1.32,0.87l-2.46,-2.58l0,0l0.57,-2.21l-0.31,-1.22l-1.32,-1.08l-0.59,-1.42l0.03,-1.69l1.05,-0.37l0.16,-0.61l-0.23,-4.59l0.95,-2.52l-1.13,-4.16l-2.24,-2.68l-2.17,-0.89l-3.72,1.93l-0.7,-0.65l-1.09,0.51l-1.65,-0.75l-2.19,-1.68l4.8,-2.74l1.9,-2.88l0.17,-4.48l-0.53,-1.82l0.5,-1.44l-0.43,-1.66l0.36,-1.76l-7.38,-1.36l-4.68,-0.28l-4.33,0.57l-8.43,-8.8l0,0l-1.71,-1.88l-3.08,-6.65l-4.13,-0.18l-12.6,1.98l-2.91,-0.52l-2.19,-1.92l0,0l-1.69,-3.74l1.09,-1.53l2.89,-0.95l2.48,0.89l1.11,-0.75l0.42,1.15l1.56,0.22l1.01,-0.79l-0.19,-0.83l8.11,-1.33l1.19,-1.39l0.32,-0.65l-0.4,-0.54l0.97,-1.65l-0.32,-0.36l-0.63,0.42l-0.99,-1.65l2.01,-0.75l1.24,-2.58l2.24,-0.42l1.4,-2.6l-1.03,-1.45l0.27,-1.98l-0.81,-0.52l-0.23,-2.52l-1.54,-0.28l-1.33,-3.69l-0.9,-0.72l0,0l1.89,-2.11l1.05,0.26l0.38,-1.23l0.46,-0.02l0.71,-3.9l1.77,-0.5l-0.01,-3.28l1.24,-0.26l0.11,-0.7l1.69,0.26l1.42,-1.59l0.85,0.91l0.78,-0.52l-0.13,0.82h0.47l0.17,-1.29l1.13,0.1l0.23,-0.58l0.84,0.4l0.99,-0.66l-1.7,-1.53l-1.31,-0.18l-1.67,-1.17l0.51,-0.4l-0.31,-1.13l-2.6,-0.98l0.3,-0.5l-0.96,-1.09l1.19,-1.79l2.13,0.02l1.89,-1.13l1.73,1.65l0.92,-1.04l0.31,0.34l2.39,-0.86l0.97,2.55l1.27,-0.6l1.81,0.18l0.89,0.98l1.69,-1.17l3.22,-0.42l1.47,-3.24l0.15,0.48l0.62,-0.26l-0.39,0.86l0.66,0.78l0.86,-0.6l0.43,1.19l0.74,-0.3l0.57,0.8l2.24,-0.02l-0.39,1.23l0.86,0.74l1.52,-1.03l2.71,0.8l0.74,1.05l1.81,0.1l2.38,-1.67l2.36,1.11l3.02,-2.71l-0.55,-1.93l-1.2,0.56l0.01,-1.37l1.19,-0.88l-1.78,-1.25l-1.7,1.75l-2.4,-0.16l-0.59,-0.86l0.96,-0.24l0.59,0.58l0.26,-2.07l2.74,-1.12l1.42,0.74l-0.14,-1l0.9,-0.8l1.28,0.6l1.57,-0.56l-0.16,1.21l0.55,0.72l1.82,0.36l-0.23,0.84l-1.15,0.7l-0.01,0.78l-1.03,0.16l-0.23,1.14l0.67,-0.5l4.26,0.64l-0.05,1.27l-0.55,0.24l0.5,0.48l-0.74,1.04l1.88,-0.4l2.21,2.35l1.2,-3.48l1.59,-0.42l11.63,-12.21l0,0L480.12,51.64zM484.06,81.13l0.35,1.53l4.06,-2.42l0.85,-0.99l-0.27,-0.32l3.39,-0.64l-2.17,-1.51v-0.81l3.95,-2.33l0,0l1.43,-0.4l0.13,-0.93l-2.5,-1.03l-2.06,-1.73l-0.92,0.22l-0.77,-0.95l-3.36,-0.68l-1.51,0.34l0.03,-0.84l-1.78,-0.08l-1,1.29l0.65,1.57l-2.87,0.88l-2.29,1.57l-3.25,0.7l-2.11,1.37l-2.35,-0.6l-0.49,4.15l-0.66,0.36l-0.03,0.77l-2.27,0.99l-2.4,0.38l-0.9,-0.95l-2.09,-0.34l-3.79,1.47l-2.2,-0.2l-3.39,1.27l-4.86,-1.23l-4.75,0.83l0.26,0.44l-1.77,2.13l0.26,2.19l-1.13,1.71l-1.83,0.7l-1.07,-0.2l0.62,1.83l1.54,-0.54l-1.03,1.69l0.88,1.57l2.2,-0.67l1.48,2.1l-3.2,2.28l1.05,2.46l-0.03,1.82l0.89,1.45l-2.5,3.11l4.33,2.38l2.7,0.22l2.27,-1.19l0.34,0.77l1.01,0.02l1.78,1.63l1.47,-0.34l0.23,1.05l1.61,1.49l2.58,-1.23l0,0l0,0l0,0l0.99,1.41l2,0.32l2.6,1.86l2.72,-0.73l1.83,-1.82l2.9,-0.81l3.21,-2.66l1.5,-1.37l2.06,-3.43l0.17,-2.74l0.96,-0.85l-0.46,-1.45l1.23,-3.23l0.12,-3.51l0,0l-0.5,-4.45l0.93,-1.05l-0.35,-1.27l0.75,-2.74L484.06,81.13z"/>
		<path id="CH-SH" title="Schaffhausen" class="land" d="M355.77,40.44l0.39,0.04l0,0l-0.07,1.64l-2.27,1.58l0.31,2.35l-1.15,0.58l-0.47,2.13l-1.5,2.13l-2.06,-3.45l0.65,-0.8l-1.5,-0.26l-0.07,-1.4l0.18,-0.88l2.5,-1.42l0.75,-1.1l0,0l1.9,1.06l0.88,-0.3L355.77,40.44zM385.2,15.99l-0.8,0.58l1.5,0.74l0.63,0.88l-0.28,0.68l3.36,0.26l0.81,1.74l3.01,-0.02l-0.35,1.14l0.82,0.2l-0.27,0.6l-1.32,0.16l0.31,-0.62l-0.97,-0.46l-1.01,0.52l1,0.72l-1.12,1.76l2.25,1.48l1.11,2.42l0.11,1.84l0,0l-1.33,-0.18l-0.92,1.12l-1.28,-0.26l-0.35,-0.38l1.16,-1.42l-1.82,-0.86l-1.38,-1.94l-3.53,-0.78l-1.47,0.76l0,0l0.4,-3l1.57,-0.9l-1.51,-0.62v-1.02l-0.8,-0.6l-3.08,-0.36l0.43,-1.4l-0.35,-0.9l2.71,-2.04l1.13,0.3l-0.24,-1.52l1.43,-0.6L385.2,15.99zM353.44,1.62l1.67,-0.54l0.8,0.64l1.66,-0.62l1.52,0.74l0.5,0.92l-0.57,1.76l0.8,1.82l-0.53,1.8l1.35,1.7l2.13,-1.28l0.09,-0.84l0.9,-0.76l-0.67,-0.38l0.31,-1.72l-0.7,-0.88l1.33,-2.38l1.5,2.32l1.31,0.5l0.74,-0.3l0.46,0.54l-0.16,1.48l0.71,0.7l-0.47,0.52l1.27,3.02l2.74,-1.96l1.85,0.88l1.77,2.64l-2.56,0.74l-1.25,3.28l0.71,1.32l2.47,1.08l-0.82,1.08l-0.43,3.44l0,0l-1.35,0.4l0,0l-0.85,-0.94l-1.09,-3.48l-2.4,0.96l-2.66,-1.02l-0.19,1.4l1.59,1.06l-0.2,0.96l-2.06,0.7l-0.13,0.64l0.82,0.9l0,0l-0.01,0.06l0,0l-2.44,-1.92l-2.59,0.52l0.16,2.76l-1.05,0.56l-0.65,-0.6l-0.5,0.72l-0.22,1.5l0.7,1.34l0,0L357.7,29l-0.4,-1.86l-3.63,2.06l-2.59,-1.56l-2.46,1.1v1.5l-0.88,-0.46l-0.12,-0.72l-0.9,0.58l0.84,1.8l-0.42,1.16l-4.78,-0.28v1.06l-0.78,-0.64l-0.74,0.16l-0.19,-0.9l-0.89,-0.3l-0.28,0.48l0.66,0.56l-0.88,0.62l-0.45,0.16l-0.49,-1.24l0.57,-1.96l-1.55,0.8l-1.52,-0.3l-2.86,-2.4l-1.58,0.04l-0.88,-1.56l0.32,-0.88l1.73,-1.12l-2.04,-2.88l1.63,-2.2l1.25,-0.46l2.13,-2.24l1.48,0.02l0.28,-1.44l-0.67,-0.48l-0.26,-1.6l3.24,-4.56l1.92,-1.72l0.84,0.3l2.29,-1.14l1.28,1l0.7,-1.54l0.98,0.1l2.52,-1.34l1.7,1.5l1.48,-0.74l-0.18,-1.84l-1.62,-0.78l0.45,-2.74l0.73,0.06L353.44,1.62z"/>
		<path id="CH-SO" title="Solothurn" class="land" d="M234.5,128.34l0.13,0.12l0,0l0.69,0.04l-1.36,1.74l-1.97,-0.04l0.53,-1.92l1.62,-0.59l0,0L234.5,128.34zM197.65,72.25l0.62,0.4l1.61,-0.48l1.74,1.97l0.71,1.57l-0.82,2.27l-1.58,0.66l-1.38,-0.32l-1.08,0.79l-4.82,-0.58l0,0l-1.15,-0.14l0,0l0.74,-3.32l0,0l2.98,-0.78l0.09,-0.6L197.65,72.25zM270.76,76.7l-1.66,-1.77l-0.4,-2.23l1.5,-1.99l-0.27,-0.58l0,0h0.61l0.97,-1.41l1,0.82l1.66,5.73l-0.24,1.37l-0.46,-1.11L270.76,76.7zM270.76,76.7l2.55,1.77l3.71,0.91l0.74,0.95l-0.09,1.71l1.71,0.1l0.54,2.7l-0.47,2.68l-2.16,2.34l0.09,1.43l-1,0.85l0.16,1.73l-1.94,0.81l-2.32,2.14l-3.25,0.99l-0.27,-3.04L265,94.48l-1.71,-1.77l-1.4,3v1.67l-1.07,1.61h-2.27l-1.36,0.87l-2.78,6.54l-1.93,1.49l0,0l-1.67,0.99l-1.66,-1.41l-2.25,2.44l-1.3,-1.07l-0.22,-1.27l-1.27,0.2l-1.15,1.57l-3.22,-0.1l-2.35,-3.51l-0.32,0.44l-1.59,-2.36l-2.24,-1.45l-4.28,2.18l-4.83,0.32l-4.99,1.13l1.83,1.94l0.54,2.34l-0.27,1.66l2.95,2.38l0.18,0.99l0.74,-0.18l0.18,0.67l1.94,-0.57l0.43,0.89l-0.36,0.63l1,0.42l-0.24,0.85l0.65,1.68l-0.39,0.97l1.82,0.08l1.29,1.25l0.45,0.95l-0.43,1.23l0.82,0.24l-0.58,2.81l-1.86,0.02l-1.03,1.33l-0.03,2.29l-0.81,0.24l-0.77,-0.87l-2.15,0.2l-1.05,-0.77l-1.31,0.75l-2.21,0.2l-0.58,0.77l-0.84,-2.49l-0.58,-0.67l-1.05,0.14l-0.66,-0.97l-2.23,1.5l-1.59,-0.71l-1.51,0.63l-0.4,0.44l1.23,2.1l-1.75,2.23l-0.74,2.12l-2.64,1.88l-3.99,1.72l1.82,4.54l-2.55,1.99l-1.97,0.14l-1.15,-2.57l0.4,-1.5l-0.39,-1.09l-5.81,1.7l-0.11,-0.65l-0.96,-0.18l-0.45,-2.04l-1.24,-1.9l0.12,-1.07l2.09,-0.83l0.58,1.15l0.7,-0.4l1.17,0.75l3.29,-1.23l1.4,0.18l-0.88,-0.87l0.38,-0.67l-0.71,0.34l-1.11,-1.19l0.53,-1.03l1.86,-0.61l0.03,-1.34l1.43,-1.05l2.24,0.87l1.13,-0.38l2.33,-1.98l-0.36,-0.53l0.93,-0.85l-2.48,-0.85l-0.72,-2.06l0.32,-1.13l-3.62,0.24l-0.22,1.74l-0.77,0.22l-0.62,-1.15l-0.66,0.32v1.52l-1.79,0.97l-0.84,1.76l-3.86,0.44l-0.15,-1.05l1.17,-0.24l-1.79,-4.02l-1.47,-0.85l-0.3,-0.85l-1.46,0.81l-1.89,-5.13l2.29,-0.71l0.63,0.38l1.67,-1.56l5.61,-2.71l0.66,-0.5l-0.5,-2.1l3,-1.78l3.76,-0.54l2.47,-3.79l2.75,-1.33l3.62,-0.67l1.93,-2.46l0.22,-2l1.3,-1.19l0,0l0,0l0,0l1.44,-0.4l0.42,-1.07l-1.23,-2.2l-1.42,-0.93l0,0l-1.82,-0.44l0.09,-2.44l-2.33,-0.91l0.26,-1.45l-8.16,0.36l-3.12,-1.99l-0.7,0.14l0,0l1.08,-1.91l-0.08,-2.54l0.78,0.36l0.18,-0.72l0.74,-0.2l0.5,0.64l2.36,0.04l0.31,2.21l3.17,1.05l1.27,-0.97l0.98,0.22l1.65,-2.96l-0.74,-1.69l7.37,-0.68l-1.58,-1.31l-0.03,-3.06l1.31,0.32l0.61,1.25l1.35,-0.78l3.12,-0.04l1.13,-6.05l-0.63,-0.9l-2.02,-0.46l0,0l0.54,-0.98l-0.13,-2.85l4.49,1.39l2.08,-0.94l-0.61,-0.2l0.57,-0.38l-0.93,-0.3l0.76,-0.82l1.62,-0.18l0.5,2.29l4.2,1.13l1.11,1.71l-1.3,2.05l-0.09,1.15h-0.85l-0.86,0.94l-0.43,2.05l0.42,1.13l-0.81,2.9l-2.42,1.81l-3.99,-0.02l0.55,4.81l-0.47,0.7l1.12,0.44l0.31,2.64l7.51,-1.03l3.9,0.77l1.85,3.67l1.55,1.31l2.12,0.38l-0.04,0.56l2.2,0.04l1.23,-0.73l0.54,-2.84l0.73,-1.05l3.33,-0.52l1.52,-2.03l5.23,-1.81l-0.22,-1.29l-0.73,-0.18l-0.28,-0.95l1.82,-1.07l0.03,-0.93l0.93,-0.16l2.54,1.61l3.76,-1.73l-0.28,-0.89l2.71,-0.81l0.19,-1.01L270.76,76.7zM209.52,61.08l1.24,0.86l1.94,-0.08l0.15,1.27l0.5,0.02l-0.45,2.63l-0.82,0.8l0.42,2.51l0,0l-5.44,0.54l-4.42,1.81l-2,-2.31l0,0l1.69,-2.39l-1.03,-0.04l-0.7,-0.99l-1.78,-0.78l-1.23,0.48l1.9,-3.44l3.76,1.89l1.04,1.41l1.12,0.18l1.31,-0.42l2.87,-2.83L209.52,61.08z"/>
		<path id="CH-SZ" title="Schwyz" class="land" d="M384.95,117.06L387.14,118.98L390.05,119.49L402.65,117.51L406.78,117.69L409.86,124.34L411.57,126.22L411.57,126.22L406.44,133.68L406.19,136.74L407.25,137.95L406.9,140.04L405.47,140.79L404.64,142.41L407.47,143.66L404.58,147.96L403.91,150.79L400.39,152.98L397.67,152.98L397.76,155.17L396.34,155.88L398.69,157.12L398.89,158.68L399.89,160.2L401.17,160.97L402.18,162.92L402.76,162.74L402.67,163.35L401.53,163.79L403.34,166.8L403.88,166.35L405,167.83L406.77,168.3L405.65,169.34L404.73,172.53L405.81,174.66L401.94,176.2L401.94,176.2L398.5,178.46L397.46,178.54L396.55,179.62L395.35,179.66L393.68,181.14L391.87,181.16L390.74,182.91L390.13,181.89L390.17,177.46L388.58,178.56L387.37,176.18L387.31,173.09L385.1,171.9L382.04,174.01L380.72,173.56L379.7,171.92L377.02,173.28L376.21,173.07L376.12,173.58L374.04,174.46L372.57,176.36L371.25,176.69L370.11,175.47L369.76,174.37L370.17,173.05L369.23,170.72L366,171.31L359.8,169.52L357.43,169.91L357.17,163.02L354.56,161.75L352.94,162.37L352.94,162.37L349.16,164.53L342.66,165.13L338.65,163.65L338.99,161.08L338.99,161.08L340.75,161.14L344.23,159.53L344.99,156.33L343.34,155.66L335.11,148L333.83,147.61L329.73,148.79L328.37,148.52L328.26,147.67L328.23,146.68L330.54,144.9L331.11,143.68L330.93,142.23L332.17,140.71L336.75,137.99L336.75,137.99L337.26,138.22L337.26,138.22L338.31,138.7L339.55,138.42L340.01,139.63L342.21,140.77L342.21,140.77L346.27,143.04L346.57,142.41L351.55,141.96L351.56,144.15L352.02,144.39L354.99,143.46L355.8,142.55L357.58,142.27L357.83,141.76L362.1,141.96L362.88,141.5L364.96,137.83L366.67,137.59L367.79,135.95L368.6,133.97L368.29,132.43L370.45,130.65L369.83,128.42L369.29,128.16L369.29,128.16L367.67,125.03L367.87,124.04L369.56,121.77L370.67,121.35L370.81,120.56L382.73,116.64z"/>
		<path id="CH-TG" title="Thurgau" class="land" d="M483.91,56.58l-10.28,7.84l0.16,-0.74l-2.2,-0.84l-0.07,-1.69l8.59,-9.52l0,0L483.91,56.58zM370.87,23.6l1.65,-0.32l0,0l1.35,-0.4l0,0l4.21,0.9l3.48,2.46l1.5,0.42l0,0l1.47,-0.76l3.53,0.78l1.38,1.94l1.82,0.86l-1.16,1.42l0.35,0.38l1.28,0.26l0.92,-1.12l1.33,0.18l0,0l2.48,1.32l1.09,-0.1l6.22,-2.18l9.86,-5.33l5.92,1.36l3.13,-0.04l4.22,2.38l2.69,0.78l1.04,-0.64l0.93,0.16l1.97,2.08l2.17,-0.24l37.6,18.5l5.1,0.86l0.57,0.64l0,0l-11.63,12.21l-1.59,0.42l-1.2,3.48l-2.21,-2.35l-1.88,0.4l0.74,-1.04l-0.5,-0.48l0.55,-0.24l0.05,-1.27l-4.26,-0.64l-0.67,0.5l0.23,-1.14l1.03,-0.16l0.01,-0.78l1.15,-0.7l0.23,-0.84l-1.82,-0.36l-0.55,-0.72l0.16,-1.21l-1.57,0.56l-1.28,-0.6l-0.9,0.8l0.14,1l-1.42,-0.74l-2.74,1.12l-0.26,2.07l-0.59,-0.58l-0.96,0.24l0.59,0.86l2.4,0.16l1.7,-1.75l1.78,1.25l-1.19,0.88l-0.01,1.37l1.2,-0.56l0.55,1.93l-3.02,2.71l-2.36,-1.11l-2.38,1.67l-1.81,-0.1l-0.74,-1.05l-2.71,-0.8l-1.52,1.03l-0.86,-0.74l0.39,-1.23L437,63.63l-0.57,-0.8l-0.74,0.3l-0.43,-1.19l-0.86,0.6l-0.66,-0.78l0.39,-0.86l-0.62,0.26l-0.15,-0.48l-1.47,3.24l-3.22,0.42l-1.69,1.17l-0.89,-0.98l-1.81,-0.18l-1.27,0.6l-0.97,-2.55l-2.39,0.86l-0.31,-0.34l-0.92,1.04l-1.73,-1.65l-1.89,1.13l-2.13,-0.02l-1.19,1.79l0.96,1.09l-0.3,0.5l2.6,0.98l0.31,1.13l-0.51,0.4l1.67,1.17l1.31,0.18l1.7,1.53l-0.99,0.66l-0.84,-0.4l-0.23,0.58l-1.13,-0.1l-0.17,1.29h-0.47l0.13,-0.82l-0.78,0.52l-0.85,-0.91l-1.42,1.59l-1.69,-0.26l-0.11,0.7l-1.24,0.26l0.01,3.28l-1.77,0.5l-0.71,3.9L406.53,83l-0.38,1.23l-1.05,-0.26l-1.89,2.11l0,0l-0.94,-2.78l-1.69,-1.69l-2.79,-0.76l1.25,-2.48l-0.39,-3.7l2.6,0.32l0.45,-0.83l-1.46,0.14l-1.93,-0.74l-0.55,-1.11l0.63,-1.19l-2.35,-3.76l-0.89,-0.34l0.3,-2.09l1.59,-0.62l-0.62,-0.76l0.55,-7.35l-7.53,-1.71l-1.69,-4.32l2.94,-0.9l0.07,-0.56l-1.65,-0.48l-0.03,-1.06l-1.04,-0.48l-0.16,0.44h-2.98l-0.09,-1.66l-0.74,-0.22l0.62,-0.5l-5.84,-1.95l-1.96,0.12l-0.31,-0.86l0.45,-0.7l-1.27,-1.78l0.08,-0.7l0.69,-0.14l0.3,-1.88l1.2,1.18l0.73,-0.3l3.78,1.78l-0.08,1.14l1.93,0.48l0.17,-2.47l1.17,-0.58l-0.08,-2.06l0.99,-0.54l0.86,-1.64l-0.07,-1.82l-2.93,-1.04l0.01,-2.58l-2.15,-0.18l-0.94,2.72l-0.7,0.6l-1.15,-0.18l-2.81,2.22l-0.65,-0.72l-3.09,0.28l-0.73,-0.72l-0.82,0.44l-2.56,-1.46l-1.23,-1.76l-0.36,-2.66l-1.19,-0.68l0.09,-1.7l-0.92,-0.26l0,0l0.01,-0.06l0,0l2.23,-0.5l1.46,-1.54L370.87,23.6z"/>
		<path id="CH-TI" title="Ticino" class="land" d="M367.32,243.05l2.6,-0.39l1.01,1.41l1.42,0.57l1.61,-1.13l1.55,0.92l0,0l1.25,-0.67l1.34,0.43l0,0l0.69,-0.22l4.92,2.07l3.95,-1.41l0.42,1.72l1.65,-0.27l1.44,-1.19l2.85,-0.82l4.61,-2.74l0.75,-1.6l-1.25,-1.76l-0.11,-1.84l2.28,-1.61l2.55,0.92l1.13,-1.06l0.36,-1.61l1.28,2.6l-0.39,1.55l0.35,1.61l1.35,0.06l1.55,-1.25l2.83,-0.51l1.54,1.62l1.4,0.78l1,-0.16l0.12,1.47l1.15,1.02l-2.24,4.09l-0.89,3.48l0.36,2.13l-0.73,1.35l0.84,2.17v1.84l1.9,2.48l0.35,1.45l0.93,0.61l0.34,1.56l1.46,0.61l1.73,-0.7l1.59,0.88l1.42,2.93l-1.05,3.2l0.28,2.26l1.85,4.12l-1.79,1.23l0.82,1.09l-1.08,2.26l1.03,2.92l-0.93,4.72l-2.39,1.01l-0.54,1.4l0.34,0.84l-0.69,1.15l1.5,2.57l-2.89,4.28l1.32,3.5l1.77,2.33l-0.04,4.36l1.43,4.72l3.97,2.37l2.74,4.27l2.27,1.86l0.89,0.12l0,0l-1.19,1.61l-2.52,1.5l-2.19,3.49l-6.38,3.18l2.1,6.32l-1.47,2.73l-0.15,1.63l-2.35,0.72l-1.35,-0.27l-4.22,2.35l-1.43,2.75l0.05,1.72l1.92,2.52l1.01,4.36l-2.19,0.81l-0.69,1.61l-1.47,-0.04l0.13,1.7l-0.76,0.46l3.21,1.84l-0.2,3.17l1.17,0.97l-0.3,1.8l3.12,0.23l1.05,1.04l1.24,0.14l-0.16,0.77l1.29,1.14l1.01,-0.23l0.03,2.53l1.44,-0.58l0.5,0.85l-1.15,1.2l-0.4,0.91l-1.79,2.22l-1.27,0.17l-0.76,1.22l0.08,2.63l-1.82,2.41l0.04,1.66l-0.81,1.29l0.61,1.58l-3.22,0.02l-0.97,-0.69l-1.98,0.52l0.89,-2.64l-1.85,-0.98l-1.05,0.77l-1.77,-0.25l-0.03,-1l-0.82,-0.58l-1.94,0.17l-4.14,2.14l0.36,-2.68l1.93,-2.82l2.28,-1.45l-1.38,-0.21l-0.7,-3.98l-1.25,-1.02l0.34,-2.11l-3.49,-5.51l0.58,-2.55l-0.69,-1.86l-3.72,-0.87l-5.1,-5.36l-5.1,-0.79l-0.76,0.79l-0.51,-0.35l2.12,-5.03l2.71,-1.88l1.09,-1.45l0.09,-1.43l0.16,-1.05l0.35,-0.83l1.51,0.43l1.25,-2.09l-0.07,-2.93l-2.32,-1.36l-1.77,-2.29l-2.12,-1.44l-1.2,1.1l-2,0.25l-3.3,-1.71l-2.23,-3.69l-3.17,3.49l-3.58,0.37l-0.99,-0.16l-0.7,-1.36l-1.5,0.15l-1.5,-0.83l-1.36,-1.9l-4.65,0.23l-0.51,-2.15l-1.61,-1.55l0.82,-2.8l-1.7,-0.33l-0.57,-1.01l-1.63,-0.33l-1.38,-3.94l-1.04,-0.29l-0.32,-1.11l-2.09,-1.65l-0.97,-3.5l-2.48,-0.49l-2.56,-1.57l-2.98,-0.58l-0.66,-0.52l-0.49,-1.91l-2.48,-0.8l-0.13,-1.42l1.77,-1.79l-3.95,-6.56l1.47,-1.01l0.67,-2.96l1.54,-0.55l1.5,-2.38l-0.26,-3.99l0.99,-1.75l-1.12,-4.78l1.3,-1.77l-1.08,-1.52l0.66,-1.62l-1.46,-1.77l0.47,-1.27l-0.58,-1.09l1.67,-1.89l-2.23,-2.38l-0.39,-1.27l-0.99,-0.47l-4.49,1.03l-0.93,1.05l-0.96,-0.31l-1.23,0.6l0,0l-0.28,-1.52l1.34,-1.66l-0.76,-1.35l1.15,-1.8l-0.36,-1.54l2.93,-0.43l0.69,0.37l1.65,-0.82l1.54,0.25l1.3,-2.48l0.88,-0.43l2.51,-3.36l0,0l0.84,-0.98l4.79,-1.31l-0.82,-3.99l0.96,-1.51l0.17,-2.23l2.36,-1.88l1.19,1.02l3.49,-0.39l2.25,1.9l4.1,-0.67l0.88,0.72l0.46,1.49l0.78,0.35l1.86,-0.45l1.86,-1.64L367.32,243.05zM407.09,359.3l-1.32,-0.43l-1.03,3.75l2.1,0.66l0.55,-1.97L407.09,359.3z"/>
		<path id="CH-UR" title="Uri" class="land" d="M352.94,162.37L354.56,161.75L357.17,163.02L357.43,169.91L359.8,169.52L366,171.31L369.23,170.72L370.17,173.05L369.76,174.37L370.11,175.47L371.25,176.69L372.57,176.36L374.04,174.46L376.12,173.58L376.21,173.07L377.02,173.28L379.7,171.92L380.72,173.56L382.04,174.01L385.1,171.9L387.31,173.09L387.37,176.18L388.58,178.56L390.17,177.46L390.13,181.89L390.74,182.91L391.87,181.16L393.68,181.14L395.35,179.66L396.55,179.62L397.46,178.54L398.5,178.46L401.94,176.2L401.94,176.2L403.06,178.92L404.34,179.96L404.83,184.76L401.74,186.98L398.16,187.97L396.41,190.23L393.4,191.58L394.65,194.38L394.1,197.31L394.1,197.31L393.52,198.27L391.67,198.8L390.02,200.23L389.78,201.12L388.31,200.8L387.49,201.49L387.45,204.02L388.27,206.4L386.19,207.21L385.09,210.6L385.4,212.21L381.26,213.94L380.05,211.72L379.51,211.66L379.42,210.72L378.88,210.74L376.7,212.39L376.1,213.74L376.82,215.17L376.51,215.98L373.9,217.98L372.55,218.21L372.36,219.02L371.38,219.61L369.63,218.82L368.37,220.51L366.75,220.82L366.63,225.04L367.28,226.25L364.05,229.23L364.58,229.72L363.65,232.23L365.39,234.75L367.05,235.07L367.31,235.79L367.1,239.29L367.71,241.1L367.32,243.05L367.32,243.05L365.47,243.74L363.61,245.38L361.75,245.83L360.96,245.48L360.51,243.99L359.63,243.27L355.53,243.93L353.27,242.04L349.78,242.43L348.59,241.41L346.23,243.29L346.06,245.52L345.1,247.02L345.92,251.01L341.13,252.32L340.29,253.3L340.29,253.3L338.69,251.79L337.46,252.54L333.79,250.21L333,246.87L331.2,243.37L330.7,241.74L330.95,238.98L331.92,237.75L332.9,233.7L332.43,232.03L332.92,229.46L331.27,228.72L331.27,228.72L330.92,226.09L329.53,224.39L329.76,220.96L333.62,222.19L335.24,222.33L336.91,221.72L337.26,217.55L336.3,216.78L336.61,213.58L335.38,212.25L335.71,210.17L335.09,209.11L335.74,209.01L336.36,206.99L336.36,206.99L338.64,205.97L340.79,206.09L342.14,205.22L341.82,203.63L340.42,201.98L340.78,200.23L339.69,200.8L338.58,199.76L339.7,200L341.05,199.09L340.63,197.27L341.75,193.12L343.92,191.92L344.22,191.01L343.13,189.58L340.36,188.73L339.42,189.19L339.42,189.19L339.01,185.02L340.39,183.34L339.11,180.94L337.79,180.61L338.45,179.58L340.73,178.66L341.47,176.63L343.09,176.61L343.74,177.5L345.98,175.84L349.36,174.7L349.69,173.48L349.27,172.36L351.17,172.26L350.74,167.73L353.36,163.96z"/>
		<path id="CH-VD" title="Vaud" class="land" d="M67.89,189.64l0.89,0.28l0.15,0.61l1.98,0.26l5.72,-2.01l1.89,-1.99l6.4,-3.32l5.68,-0.96l2.73,-4.39l3.13,-2.17l6.72,-2.97l0.44,1.06l-0.89,4.88l3.13,2.2l0.07,2.34l-1.01,2.83l0.97,-0.65l2.09,0.37l3.29,3.38l0,0l-5.13,4.99l4.9,5.31l0.81,-0.49l0.35,0.75l-1.19,1.06l-0.16,0.92l0.5,-0.79l2.29,2l0.9,-0.51l2.74,2.47l0.35,-0.77l1.08,0.27l0.59,-1.02l0.66,0.37l1.93,-1.79l0.63,1.39l1.12,0.59l0.36,-0.39l0.47,0.71l2.23,-0.1l0.59,-0.86l1.39,-0.45l0.23,0.81l0.82,-0.98l0.53,-2.34l1.36,-1.73l-1.47,-1.06l-1.13,1.51l-0.94,-0.49l0.77,-1.32l-0.94,-2.81l1.17,-2.75l2.42,-2.36l-2.27,-2.6l-2.58,0.77l-0.27,-0.53l0.81,-0.43l1.51,-0.55l0.38,0.39l1.19,-0.73l-1.43,-1.79l-0.62,0.35l-1.31,-0.92l-4.06,-5.16l0,0l4.14,-3.13l0,0l4.53,5.14l-0.88,0.83l0.2,0.47l1.75,0.53l1.73,3.01l1.9,1.71l0.46,-0.35l-1.42,-2.66l2.06,-1.16l0.93,1.08l1.15,1.67l-1.2,1.36l-0.81,2.64l0.5,1.44l1.67,-0.77l0.27,0.45l-1.2,1.65l1.28,1.2l-1.03,2.18l-2.87,-1.12l-1,2.5l1.4,2.4l-1.43,1.75l0.11,1.18l-0.98,0.98l-1.01,-0.27l-1.46,1.71l0.45,0.79l-2,2.26l-0.8,-0.63l-0.81,1.08l0.3,0.82l0.93,-0.22l0.36,0.63l1.42,-0.57l1.39,1.98l-0.78,2.18l-5.34,5.2l-0.5,1.98l-2.5,2.49l-0.63,-0.53l-0.74,0.92l1.17,1.49l-0.97,1.67l0.45,0.86l-0.62,0.41l-0.49,-0.35l-0.81,0.94l-1.21,-0.43l-0.35,-0.8l-1.12,-0.16l-0.97,0.71l-1.05,2.14l-1,-0.55l-1.67,0.29l0.67,0.63l-0.9,2.35l0.76,1.18l0.13,3.76l-0.23,1.51l-0.49,0.14l0.39,1.53l-0.86,3.23l0.62,0.23l0.7,-0.76l1.15,-0.04l0.14,-1.47l0.89,0.39l0.43,1.21l1.2,0.37l1.81,-1.55l2.25,1l1.44,2.74l0.67,-0.41l0.69,1.04l0.46,-1.1l1.86,-0.45l0.08,1.68l-1.88,0.57l-2.56,2.91l-1.05,2.54l-0.81,-2.11l-3.35,0.72l-0.76,-0.12l0.04,-1.04l-1.93,3.56l1.82,2.58l0.85,-0.08l0.62,2.05l1.66,1.64h2l0.38,-1.17l2.19,-2.48l2.12,-1.6l-0.22,2.52l0.76,-1.04l1.32,0.04l3.28,2.33l2.52,-0.12l2.36,2.03l0.26,2.01l1,1.17l-0.4,0.43l0.16,2.56l1.71,2.3l-1.11,2.05l0.78,-0.02l3.89,-1.87l0.43,-2.6l5.34,-5.19l5.32,0.1l1.23,-1.5l1.86,-0.7l1.75,-1.99l1.61,-3.97l2.08,-0.06l3.98,-3.44l2.12,2.74l2,-3.03l1.82,-1.15l0,0l0.04,1.49l1.13,1.64l0.46,4.03l-0.72,3.42l-1.52,1.02l0.47,1.31l-1.62,0.29l0.93,4l-0.59,1.68l0.76,0.74l-0.84,0.43l-0.59,1.97l-2.33,0.49l-1.28,-0.31l-0.31,1.25l2.31,3.57l-0.27,2.52l-1.9,4.78l2.02,0.02l-0.16,0.99l1.11,2.18l1.35,-0.45l0.5,0.68l-1.39,0.8l0.35,5.42l0,0l-4.38,4.93l0.01,1.71l1.04,1.17l-0.39,0.78l-0.98,0.31l0.28,2.49l-1.42,0.35l-5.05,6.03l-2.2,0.29l-0.31,2.49l-1.89,2.2l-2.71,2.02l-3.32,0.45l-4.1,2.37l-1.01,-2l-1.82,-1.63l-0.49,-2.8l-0.8,-0.95l-0.19,-1.65l-1.66,-2.16l-0.27,-1.61l-3,-3.09l-0.77,-3.07l-3.01,-2.53l-0.82,-6.19l-1.75,-1.97l-2.04,0.19l-1.01,-0.47l-1.77,-2.57l0.66,-2.24l-0.28,-2.1l-8.67,-9.77l0,0l-18.62,-5.37l-22.02,-0.47l-12.47,7.73l-22.84,10.63l-2.1,3.78l0,0l-5.33,-2.22l-0.65,-0.97l-2.19,-0.99l-1.31,1.27l0.46,0.84l2.73,1.11l0.24,1.21l4.82,2.3l0,0l-1.67,3.62l0,0l-2.87,5.35l-7.52,-3.8l-2.47,-2.73l0,0l1.5,-2.16l0.39,-1.99l2.44,-2.18l0.36,-1.62l1.32,-1.66l-1.29,-2.3l-1.34,0.25l-4.92,-3.78l-1.16,-0.6l-1.38,-1.85l-4.18,-1.52l2.91,-5.17l-1.36,-1.74l-0.42,-1.97l3.22,-3.65l2.32,-5.65l3.28,-4.08l0.76,0.66l0.34,-0.37l1.07,-1.29l-0.69,-0.68l1.05,-1.06l-6.26,-6.14l3.86,-4.03l3.04,-2.49l2.36,-1.1l0.14,-0.92l6.68,-5.76l7.16,-8l9.42,-4.73l0.9,-1.41l1.54,-0.33l-0.09,-1.27l2.39,-0.73l0.62,-0.96l-0.46,-0.9l0.8,-0.92l4.06,-1.33l1.93,-1.65L65,206.4l1.86,-1.51l0.84,-2.71l-3.1,-2.46l-0.61,-2.12l1.23,-0.69l0.35,-3.4L67.89,189.64zM120.52,204.81L120.52,204.81l-0.72,2.04l-1.96,1.73l-1.66,3.34l-2.27,0.82l-0.88,-0.33l-0.65,1.55l0.58,0.47l2.27,-0.33l1.16,-1.2l1.36,-0.41l2.54,1.61l2.27,0.41l0.45,-0.59l-0.58,-0.45l2.59,-3.67l-0.57,-1.22l-0.32,0.41l0.05,-0.53l-1.43,-1.26l-0.88,0.27l0.28,-0.37l-1.07,-2.24L120.52,204.81zM110.27,209.33L110.27,209.33l-0.5,1.26l-2.78,2.61l1.35,1.22l0.5,1.57l1.2,-0.69l1.75,-2.81l0.28,-2.39l-1.04,-0.73l-0.34,0.37L110.27,209.33zM29.8,287.92L29.8,287.92l-1.19,1.56l0.53,0.41l0.38,-1.11l0.93,0.56l0.42,-0.41L29.8,287.92zM147.61,164.99l1.89,1.38l-0.78,1.06l0.5,4.18l-0.51,1l4.78,6.42l-0.24,0.63l0,0l-1.09,1.46l0,0l-1.2,0.14l0.8,0.2l-2.51,2.07v0.79l0.61,-0.2l0.62,1.63l-2.36,3.29l-2.28,1.93l-0.89,-0.89l0.49,-1.36l0.84,-0.55l-1.3,-1.2l0.81,-1.38l-1.46,-0.96l-0.47,0.33l-0.67,-0.85l-1.09,1.48l-1.24,-0.24l-0.76,-0.9l2.21,-2.03l-3.89,-3.96l0.74,-2.05l-1.2,-0.85l-0.82,0.59l-0.92,-0.73l-4.79,-5.55l0,0l9.93,-6.7l5.06,1.46l0,0L147.61,164.99z"/>
		<path id="CH-VS" title="Valais" class="land" d="M331.27,228.72L332.92,229.46L332.43,232.03L332.9,233.7L331.92,237.75L330.95,238.98L330.7,241.74L331.2,243.37L333,246.87L333.79,250.21L337.46,252.54L338.69,251.79L340.29,253.3L340.29,253.3L337.79,256.66L336.91,257.09L335.61,259.57L334.08,259.32L332.43,260.14L331.74,259.77L328.81,260.2L329.18,261.74L328.03,263.54L328.79,264.89L327.45,266.54L327.73,268.07L327.73,268.07L324.59,268.44L319.36,273.47L316.74,273.69L316.33,275.15L314.69,276.95L317.59,277.78L318.41,278.64L318.45,281.27L317.27,282.76L315.15,283.75L313.97,285.35L312.53,284.84L311,285.35L311.59,287.43L310.91,288.89L309.89,288.76L309.36,289.79L307.47,289.93L305.88,291.13L305.62,292.93L304.08,294.97L303.92,296.22L302.3,297.31L301.29,297.17L300.06,298.1L298.15,298.51L296.91,298.51L295.26,297.35L294.34,297.35L292.13,299.12L290.71,301.71L287.15,304.2L286.92,305.27L285.91,305.73L287.26,306.78L290.43,307.79L290.94,310.03L292.62,311.95L294.32,312.56L294.99,315.32L296.19,316.77L296.26,318.74L297.91,321.18L295.84,324.19L296.16,328.12L295.07,329.34L291.13,330.74L290.81,333.03L289.65,334.52L287.65,335.37L279.85,336.79L278.44,342.04L278.81,344.45L280.22,347.58L278.75,347.99L277.14,349.77L277.78,351.19L276.75,352.2L276.84,353.76L275.37,353.82L274.48,356.57L273.9,356.86L272.27,356.09L269.42,356.8L268.47,356.24L262.99,356.55L260.92,360.05L259.08,360.81L259.45,362.69L258.75,363.98L259.06,365.16L258.08,365.97L257.84,367.39L258.87,370.05L258.21,371.39L257.03,372.08L256.36,371.18L254.49,371.21L251.4,370.13L248.43,371.85L244.25,368L241.94,367.62L240.74,369.24L239.85,369.57L239.72,370.63L237.98,370.71L236.09,368.6L236.05,365.57L234.85,364.68L232.57,364.14L230.16,360.25L226.7,361.78L220.11,361.66L219.37,361.18L218.25,358.35L215.01,358.56L213.79,360.07L214.3,363.23L213.65,364.39L211.24,364.12L210.43,363.34L209.12,363.94L207.8,363.29L207.24,364.49L205.25,365.05L204.26,366.05L204.36,368.64L202.63,368.51L201.25,369.26L197.38,373.13L195.91,373.73L194.97,373.17L192.94,375.91L189.49,374.73L188.52,373.32L187.13,372.59L184.08,373.28L183.11,372.12L181.12,371.91L180.23,371.18L177.87,375.14L175.4,377.55L174.88,377.61L174.23,376.66L172.88,377.24L171.52,376.92L169.79,377.69L167.69,380.1L167.65,382.59L166.38,383.29L164.11,382.34L163.49,380.93L162.48,380.72L162.9,380.01L161.65,379.29L158.86,380.64L156.56,383.21L154.32,383.15L153.24,379.64L151.68,378.27L150.9,376.12L149.26,375.22L148.89,372.8L146.71,370.81L146.67,369.53L145.71,368.06L145.87,364.78L143.12,363.61L142.2,362.16L142.25,361.25L144.17,360.19L142.32,358.41L142.19,356.59L141.47,355.8L140.16,355.95L138.75,355.04L138.18,352.16L135.71,349.93L134.16,345.96L132.97,346.11L132.32,345.42L132.3,343.65L131.41,343.05L130.29,343.63L128.76,345.98L126.39,346.75L126.02,347.64L124.8,347.22L123.7,345.9L124.54,342.95L126.1,341.64L125.71,340.67L126.2,339.79L125.12,337.43L126.56,335.16L127.13,331.78L124.74,332.06L119.68,330.97L118.63,330.21L116,330.89L114.99,329.55L113.46,329.26L112.57,325.9L112.88,324.23L115.5,320.56L114.39,316.42L116.82,312.23L116.76,310.98L118.43,309.93L119.2,307.81L121.27,306.39L122.58,301.53L121.81,299.58L120.13,299.6L117.67,297.38L117.28,295.55L115.07,293.74L113.8,293.65L113.69,291.95L111.78,291.06L109.92,287.02L110.63,285.27L112.86,284.65L114.64,282.29L114.19,280.22L116.59,273.04L116.59,273.04L125.27,282.81L125.55,284.92L124.89,287.16L126.66,289.73L127.67,290.2L129.71,290L131.46,291.97L132.28,298.16L135.29,300.69L136.06,303.77L139.06,306.86L139.33,308.47L140.99,310.63L141.17,312.29L141.97,313.24L142.46,316.04L144.28,317.67L145.29,319.67L149.39,317.3L152.71,316.85L155.42,314.83L157.31,312.64L157.62,310.15L159.82,309.85L164.87,303.83L166.28,303.48L166,300.99L166.98,300.67L167.38,299.9L166.34,298.73L166.32,297.02L170.71,292.09L170.71,292.09L172.15,292.65L174.86,291.97L176.28,290.32L176.23,286.42L180,284.76L180.97,285.08L182.73,283.2L182.97,285.52L182.46,287.84L183.39,289.21L188.61,287.98L194.72,282.93L194.92,283.34L198.37,282.13L200.01,280.96L200.71,281.66L202.84,281.86L203.17,282.85L205.53,281.2L206.66,284.02L208.55,284L209.29,282.95L211.95,283.17L213.57,282.58L213.99,281.27L215.78,280.38L212.14,278.17L212.81,276.38L215.59,275.54L216.73,275.79L218.62,274.9L219.59,274.86L221.14,275.95L221.83,275.13L221.67,273.88L223.19,272.67L223.07,271.17L224.69,270.49L225.43,269.28L234.4,273.24L236.37,275.31L237.52,275.19L238.43,274.08L240.12,273.61L245.85,269.73L248.54,266.78L252.07,265.26L254.96,262.82L259.21,263.17L265.58,260.28L265.58,259.65L268.02,257.25L269.67,257.21L271.72,255.68L272.18,253.93L270.85,250.93L272.46,249.47L273.81,249.57L275.43,247.22L276.09,247.38L277.56,246.42L280.22,246.46L284.2,248.59L286.15,247.79L291.39,249.62L293.08,251.5L297.51,252.89L299.44,252.6L299.28,253.87L300.25,254.77L310.68,252.91L314.14,251.27L314.74,250.29L316.9,249.7L318.49,247.24L321.02,246.81L323.17,245.24L325.4,242.11L324.63,241.84L324.62,239.43L325.95,236.06L326.06,232.56L327.13,232.34L329.08,230.27L329.7,228.45z"/>
		<path id="CH-ZG" title="Zug" class="land" d="M330.93,111.25L332.63,116.4L335.29,116.11L338.15,118.48L340.98,119.49L342.33,118.7L343.38,118.82L344.9,117.87L344.98,117.2L347.42,117.47L348.54,116.44L350.62,116.6L354.27,117.91L356.27,119.53L356.47,124.2L357.5,126.32L362.04,126.52L362.43,127.11L364.94,126.77L365.07,128.58L365.86,129.01L369.29,128.16L369.29,128.16L369.83,128.42L370.45,130.65L368.29,132.43L368.6,133.97L367.79,135.95L366.67,137.59L364.96,137.83L362.88,141.5L362.1,141.96L357.83,141.76L357.58,142.27L355.8,142.55L354.99,143.46L352.02,144.39L351.56,144.15L351.55,141.96L346.57,142.41L346.27,143.04L342.21,140.77L342.21,140.77L342.31,138.16L340.51,135.65L337.26,138.22L337.26,138.22L336.75,137.99L336.75,137.99L336.1,135.08L332.12,136.48L331.32,132.87L331.32,132.87L331.75,128.14L331.2,126.22L329.95,125.55L329.75,123.77L330.45,121.95L329,115.99L330.57,113.73L331.23,111.87z"/>
		<path id="CH-ZH" title="Zürich" class="land" d="M365.32,24.52L366.24,24.78L366.14,26.48L367.33,27.16L367.7,29.82L368.92,31.57L371.49,33.03L372.31,32.59L373.04,33.31L376.13,33.03L376.78,33.75L379.58,31.53L380.73,31.71L381.43,31.12L382.38,28.4L384.52,28.58L384.51,31.16L387.43,32.19L387.5,34.01L386.64,35.65L385.65,36.19L385.73,38.24L384.56,38.82L384.39,41.29L382.46,40.81L382.54,39.68L378.76,37.9L378.03,38.2L376.83,37.02L376.53,38.9L375.85,39.04L375.76,39.74L377.03,41.51L376.59,42.21L376.9,43.07L378.85,42.95L384.7,44.9L384.08,45.4L384.82,45.62L384.91,47.28L387.89,47.28L388.05,46.84L389.09,47.32L389.12,48.37L390.77,48.85L390.7,49.41L387.76,50.31L389.44,54.63L396.97,56.34L396.42,63.69L397.04,64.45L395.45,65.06L395.15,67.15L396.04,67.49L398.39,71.25L397.76,72.44L398.31,73.56L400.24,74.29L401.7,74.15L401.25,74.99L398.65,74.67L399.04,78.37L397.78,80.85L400.58,81.61L402.26,83.3L403.21,86.08L403.21,86.08L404.11,86.79L405.45,90.49L406.98,90.77L407.21,93.29L408.02,93.8L407.75,95.79L408.78,97.23L407.38,99.83L405.14,100.25L403.89,102.83L401.88,103.58L402.87,105.23L403.5,104.81L403.83,105.17L402.86,106.81L403.26,107.35L402.94,108L401.75,109.39L393.64,110.72L393.83,111.55L392.82,112.34L391.25,112.12L390.83,110.98L389.73,111.73L387.25,110.84L384.36,111.79L383.27,113.31L384.95,117.06L384.95,117.06L382.73,116.64L370.81,120.56L370.67,121.35L369.56,121.77L367.87,124.04L367.67,125.03L369.29,128.16L369.29,128.16L365.86,129.01L365.07,128.58L364.94,126.77L362.43,127.11L362.04,126.52L357.5,126.32L356.47,124.2L356.27,119.53L354.27,117.91L350.62,116.6L348.54,116.44L347.42,117.47L344.98,117.2L344.9,117.87L343.38,118.82L342.33,118.7L340.98,119.49L338.15,118.48L335.29,116.11L332.63,116.4L330.93,111.25L330.93,111.25L330.07,110.18L330.01,106.62L329,105.58L328.23,103.26L329.43,103.62L333.66,101.08L333.59,99.79L336.34,96.68L337.19,94.56L334.55,96.16L331.59,96.02L331.97,93.86L330.31,91.98L330.99,90.29L330.78,87.25L329.84,87.03L329.26,85.8L328.94,83.26L326.44,81.29L327.33,80.48L327.44,78.05L328.36,77.51L328.06,75.61L326.86,75.41L326.34,74.67L327.44,74.65L327.78,74.13L327.29,72.13L328.23,71.09L325.29,67.97L325.51,67.27L326.51,67.01L326.33,65.18L324.96,65.1L324.23,61.82L324.69,61.42L324.16,60.94L324.69,59.31L326.88,58.75L327.41,56.08L327.82,55.65L328.88,56.24L329.19,55.07L330.46,54.31L331.12,52.38L331.93,52.18L332.38,47.75L332.38,47.75L334.29,48.31L336.92,47.16L338.55,47.06L339.92,46.02L341.17,46.26L342.29,45.42L341.64,43.89L340.57,44.64L338.76,44.8L337.87,43.85L337.3,41.33L338.8,41.01L339.26,39.92L340.05,39.84L340.32,38.7L344.19,38.16L344.23,37.02L345.1,36.92L345.54,35.09L348.36,35.55L348.44,36.43L350.71,36.74L351.66,38.32L352.48,38.26L353.18,39.38L352.1,39.7L351.47,41.59L351.47,41.59L350.71,42.69L348.21,44.11L348.04,44.98L348.11,46.38L349.6,46.64L348.96,47.44L351.02,50.88L352.52,48.75L352.99,46.62L354.14,46.04L353.83,43.69L356.09,42.11L356.16,40.48L356.16,40.48L357.33,38.56L356.38,36.21L356.12,33.05L357.85,31.22L358.58,32.87L357.6,33.73L358.75,34.11L359.71,33.59L360.53,31.67L358.74,29.4L358.74,29.4L358.04,28.06L358.25,26.56L358.75,25.84L359.4,26.44L360.45,25.88L360.29,23.13L362.88,22.61z"/>
	</g>
</svg>