<svg xmlns="http://www.w3.org/2000/svg" height="52" width="52" viewBox="0 0 520 520" fill="#fff"><path d="M164 100h32a8 8 0 0 0 8-8V68h112v24a8 8 0 0 0 8 8h32a8 8 0 0 0 8-8V68a48 48 0 0 0-48-48H204a48 48 0 0 0-48 48v24a8 8 0 0 0 8 8Zm288 48H68a48 48 0 0 0-48 48v256a48 48 0 0 0 48 48h384a48 48 0 0 0 48-48V196a48 48 0 0 0-48-48ZM274 454a8 8 0 0 1-7 8h-27a8 8 0 0 1-8-8v-28a8 8 0 0 1 8-8h27a8 8 0 0 1 8 8Zm8-86a12 12 0 0 0-8 10v10a8 8 0 0 1-8 8h-27a7 7 0 0 1-7-8v-9a55 55 0 0 1 36-52 40 40 0 0 0 17-12 45 45 0 0 0-30-74 42 42 0 0 0-32 12 40 40 0 0 0-12 25 8 8 0 0 1-8 6h-26a8 8 0 0 1-8-10 92 92 0 0 1 25-54 84 84 0 0 1 62-25 87 87 0 0 1 82 86 90 90 0 0 1-56 87Z"/></svg>