<?xml version="1.0" encoding="utf-8"?>
<!DOCTYPE svg PUBLIC "-//W3C//DTD SVG 1.1//EN" "http://www.w3.org/Graphics/SVG/1.1/DTD/svg11.dtd">
<svg version="1.1" id="Icon" xmlns="http://www.w3.org/2000/svg" xmlns:xlink="http://www.w3.org/1999/xlink" x="0px" y="0px" viewBox="0 0 48 48" enable-background="new 0 0 48 48" xml:space="preserve">
<linearGradient id="SVGID_1_" gradientUnits="userSpaceOnUse" x1="23.9995" y1="0" x2="23.9995" y2="48.0005">
	<stop  offset="0" style="stop-color:#9FE8FF"/>
	<stop  offset="1" style="stop-color:#59D6FF"/>
</linearGradient>
<path fill-rule="evenodd" clip-rule="evenodd" fill="url(#SVGID_1_)" d="M48,42c0,3.313-2.687,6-6,6H6c-3.313,0-6-2.687-6-6V6
	c0-3.313,2.687-6,6-6h36c3.313,0,6,2.687,6,6V42z"/>
<path fill-rule="evenodd" clip-rule="evenodd" fill="#B0F0FF" d="M27.675,19.093c0,0-3.847-0.246-1.063-2.619
	c2.782-2.373,7.037-3.437,10.637-0.982c3.602,2.455,3.684,6.056,0,5.646c0,0-1.881,5.483-6.137,10.066
	c-4.255,4.583-9.083,11.946-13.338,3.764c-4.255-8.183-2.864-10.311-4.992-14.238c0,0-8.511,1.555-3.846-1.801
	c4.665-3.354,10.147-6.219,10.474-2.127c0.328,4.092,1.801,13.748,4.501,13.174c2.701-0.572,5.483-6.382,5.729-8.673
	C29.885,19.011,27.675,19.093,27.675,19.093z"/>
<path fill-rule="evenodd" clip-rule="evenodd" fill="#212121" d="M27.675,17.093c0,0-3.847-0.246-1.063-2.619
	c2.782-2.373,7.037-3.437,10.637-0.982c3.602,2.455,3.684,6.056,0,5.646c0,0-1.881,5.483-6.137,10.066
	c-4.255,4.583-9.083,11.946-13.338,3.764c-4.255-8.183-2.864-10.311-4.992-14.238c0,0-8.511,1.555-3.846-1.801
	c4.665-3.354,10.147-6.219,10.474-2.127c0.328,4.092,1.801,13.748,4.501,13.174c2.701-0.572,5.483-6.382,5.729-8.673
	C29.885,17.011,27.675,17.093,27.675,17.093z"/>
</svg>
