<?xml version="1.0" encoding="utf-8"?>
<!DOCTYPE svg PUBLIC "-//W3C//DTD SVG 1.1//EN" "http://www.w3.org/Graphics/SVG/1.1/DTD/svg11.dtd">
<svg version="1.1" id="Icon" xmlns="http://www.w3.org/2000/svg" xmlns:xlink="http://www.w3.org/1999/xlink" x="0px" y="0px" viewBox="0 0 611 611" enable-background="new 0 0 611 611" xml:space="preserve">
<linearGradient id="SVGID_1_" gradientUnits="userSpaceOnUse" x1="24.0391" y1="603.8896" x2="24.0391" y2="555.8896" gradientTransform="matrix(12.7292 0 0 -12.7292 -0.5 7687.021)">
	<stop  offset="0" style="stop-color:#41B8D0"/>
	<stop  offset="1" style="stop-color:#256FBB"/>
</linearGradient>
<path fill="url(#SVGID_1_)" d="M611,534.625C611,576.797,576.797,611,534.625,611H76.375C34.203,611,0,576.797,0,534.625V76.375
	C0,34.203,34.203,0,76.375,0h458.25C576.797,0,611,34.203,611,76.375V534.625z"/>
<circle fill="#FFFFFF" cx="121.639" cy="145.671" r="49.472"/>
<path fill="#FFFFFF" d="M353.989,145.671c0,27.324-22.148,49.472-49.469,49.472c-27.327,0-49.475-22.147-49.475-49.472
	c0-27.324,22.148-49.471,49.475-49.471C331.841,96.2,353.989,118.348,353.989,145.671z"/>
<path fill="#FFFFFF" d="M535.767,145.671c0,27.324-22.148,49.472-49.469,49.472c-27.326,0-49.475-22.147-49.475-49.472
	c0-27.324,22.148-49.471,49.475-49.471C513.618,96.2,535.767,118.348,535.767,145.671z"/>
<path fill="#FFFFFF" d="M353.989,309.652c0,27.324-22.148,49.472-49.469,49.472c-27.327,0-49.475-22.147-49.475-49.472
	c0-27.324,22.148-49.472,49.475-49.472C331.841,260.18,353.989,282.329,353.989,309.652z"/>
<path fill="#FFFFFF" d="M535.767,308.542c0,27.326-22.148,49.475-49.469,49.475c-27.326,0-49.475-22.148-49.475-49.475
	c0-27.324,22.148-49.472,49.475-49.472C513.618,259.07,535.767,281.218,535.767,308.542z"/>
<path fill="#FFFFFF" d="M535.767,475.859c0,27.325-22.148,49.474-49.469,49.474c-27.326,0-49.475-22.148-49.475-49.474
	c0-27.321,22.148-49.47,49.475-49.47C513.618,426.39,535.767,448.538,535.767,475.859z"/>
</svg>
