<?xml version="1.0" encoding="utf-8"?>
<!DOCTYPE svg PUBLIC "-//W3C//DTD SVG 1.1//EN" "http://www.w3.org/Graphics/SVG/1.1/DTD/svg11.dtd">
<svg version="1.1" id="Icon" xmlns="http://www.w3.org/2000/svg" xmlns:xlink="http://www.w3.org/1999/xlink" x="0px" y="0px" viewBox="456 256 48 48" enable-background="new 456 256 48 48" xml:space="preserve">
<linearGradient id="SVGID_1_" gradientUnits="userSpaceOnUse" x1="351.3662" y1="312.875" x2="351.3662" y2="301.375" gradientTransform="matrix(4.1667 0 0 -4.1667 -983.9935 1559.6541)">
	<stop  offset="0" style="stop-color:#40C5EA"/>
	<stop  offset="1" style="stop-color:#2598D9"/>
</linearGradient>
<path fill="url(#SVGID_1_)" d="M504,297.928c0,3.307-2.683,5.989-5.989,5.989h-35.938c-3.308,0-5.99-2.683-5.99-5.989V261.99
	c0-3.307,2.682-5.99,5.99-5.99h35.938c3.307,0,5.989,2.683,5.989,5.99V297.928z"/>
<g id="XpSHuz.tif_1_">
	<g>
		<path fill="#2598D9" d="M498.282,279.634c0,0.249,0,0.497,0,0.744c-0.012,0.07-0.027,0.139-0.032,0.209
			c-0.042,0.615-0.156,1.217-0.364,1.797c-0.653,1.82-1.852,3.088-3.76,3.573c-1.839,0.467-3.541,0.079-5.108-0.961
			c-0.963-0.635-1.757-1.452-2.522-2.303c-0.071-0.08-0.144-0.161-0.243-0.274c-0.034,0.056-0.049,0.096-0.077,0.123
			c-0.625,0.628-1.224,1.287-1.884,1.877c-1.355,1.211-2.935,1.862-4.78,1.708c-2.201-0.187-3.793-1.266-4.73-3.281
			c-0.024-0.052-0.05-0.102-0.078-0.159c-0.017,0.021-0.027,0.028-0.033,0.04c-0.026,0.053-0.051,0.106-0.077,0.159
			c-0.825,1.636-2.109,2.729-3.89,3.168c-1.709,0.422-3.392,0.245-4.979-0.52c-1.41-0.68-2.334-1.792-2.687-3.34
			c-0.085-0.369-0.109-0.752-0.162-1.142c1.156,0,2.262,0,3.372,0c0.01,0.062,0.018,0.112,0.026,0.164
			c0.009,0.051,0.017,0.103,0.028,0.153c0.136,0.679,0.455,1.249,1.025,1.654c1.358,0.968,3.254,0.518,4.058-0.973
			c0.546-1.013,0.59-2.072,0.163-3.136c-0.323-0.804-0.912-1.368-1.759-1.566c-1.379-0.32-2.44,0.01-3.225,1.057
			c-0.088,0.117-0.178,0.163-0.325,0.162c-0.861-0.008-1.722-0.004-2.583-0.004c-0.069,0-0.138,0-0.234,0
			c0.546-3.064,1.087-6.096,1.626-9.122c3.09,0,6.153,0,9.214,0c0,0.923,0,1.832,0,2.749c-0.096,0-0.174,0-0.251,0
			c-2.12,0-4.241,0.001-6.362-0.003c-0.138,0-0.2,0.026-0.227,0.182c-0.194,1.145-0.401,2.287-0.601,3.43
			c-0.01,0.052-0.007,0.107-0.014,0.227c1.245-1.258,2.729-1.495,4.327-1.207c1.645,0.298,2.778,1.289,3.506,2.806
			c0.037-0.09,0.061-0.147,0.085-0.205c0.875-2.046,2.435-3.152,4.639-3.347c1.747-0.155,3.253,0.444,4.599,1.518
			c0.816,0.652,1.49,1.441,2.17,2.224c0.046,0.052,0.091,0.103,0.146,0.162c0.097-0.113,0.175-0.208,0.256-0.302
			c0.74-0.861,1.479-1.722,2.416-2.386c1.501-1.064,3.154-1.495,4.966-1.109c2.279,0.488,3.606,1.971,4.167,4.182
			C498.188,278.776,498.217,279.21,498.282,279.634z M488.249,280.169c0.562,0.767,1.71,1.749,2.521,2.169
			c0.516,0.265,1.054,0.444,1.635,0.492c1.173,0.097,2.098-0.41,2.532-1.437c0.351-0.831,0.364-1.684,0.005-2.513
			c-0.432-0.995-1.204-1.526-2.304-1.552c-0.634-0.015-1.205,0.18-1.747,0.491C489.848,278.416,489.066,279.305,488.249,280.169z
			 M484.306,280.179c-0.89-0.933-1.776-1.845-2.93-2.432c-0.261-0.131-0.536-0.246-0.816-0.322
			c-1.212-0.326-2.237,0.126-2.831,1.232c-0.412,0.768-0.479,1.579-0.247,2.409c0.283,1.01,1.054,1.638,2.098,1.748
			c0.627,0.068,1.219-0.052,1.792-0.3C482.552,282.005,483.457,281.151,484.306,280.179z"/>
	</g>
</g>
<g id="XpSHuz.tif">
	<g>
		<path fill="#FFFFFF" d="M498.282,281.327c0,0.249,0,0.496,0,0.746c-0.012,0.067-0.027,0.137-0.032,0.208
			c-0.042,0.615-0.156,1.216-0.364,1.796c-0.653,1.821-1.852,3.09-3.76,3.573c-1.839,0.467-3.541,0.079-5.108-0.959
			c-0.963-0.637-1.757-1.454-2.522-2.305c-0.071-0.079-0.144-0.161-0.243-0.273c-0.034,0.056-0.049,0.095-0.077,0.122
			c-0.625,0.629-1.224,1.287-1.884,1.878c-1.355,1.21-2.935,1.861-4.78,1.707c-2.201-0.187-3.793-1.265-4.73-3.281
			c-0.024-0.052-0.05-0.102-0.078-0.159c-0.017,0.021-0.027,0.029-0.033,0.039c-0.026,0.054-0.051,0.106-0.077,0.16
			c-0.825,1.635-2.109,2.73-3.89,3.168c-1.709,0.421-3.392,0.247-4.979-0.52c-1.41-0.679-2.334-1.792-2.687-3.338
			c-0.085-0.37-0.109-0.754-0.162-1.143c1.156,0,2.262,0,3.372,0c0.01,0.061,0.018,0.112,0.026,0.163
			c0.009,0.052,0.017,0.103,0.028,0.153c0.136,0.679,0.455,1.248,1.025,1.655c1.358,0.967,3.254,0.517,4.058-0.974
			c0.546-1.013,0.59-2.072,0.163-3.136c-0.323-0.804-0.912-1.368-1.759-1.566c-1.379-0.32-2.44,0.011-3.225,1.057
			c-0.088,0.116-0.178,0.162-0.325,0.161c-0.861-0.008-1.722-0.005-2.583-0.005c-0.069,0-0.138,0-0.234,0
			c0.546-3.064,1.087-6.096,1.626-9.121c3.09,0,6.153,0,9.214,0c0,0.923,0,1.831,0,2.749c-0.096,0-0.174,0-0.251,0
			c-2.12,0-4.241,0.001-6.362-0.003c-0.138,0-0.2,0.026-0.227,0.182c-0.194,1.145-0.401,2.287-0.601,3.43
			c-0.01,0.052-0.007,0.106-0.014,0.228c1.245-1.259,2.729-1.495,4.327-1.208c1.645,0.297,2.778,1.289,3.506,2.807
			c0.037-0.091,0.061-0.148,0.085-0.206c0.875-2.046,2.435-3.152,4.639-3.347c1.747-0.155,3.253,0.444,4.599,1.519
			c0.816,0.652,1.49,1.44,2.17,2.224c0.046,0.052,0.091,0.102,0.146,0.162c0.097-0.114,0.175-0.209,0.256-0.302
			c0.74-0.861,1.479-1.722,2.416-2.386c1.501-1.064,3.154-1.497,4.966-1.109c2.279,0.488,3.606,1.97,4.167,4.183
			C498.188,280.471,498.217,280.903,498.282,281.327z M488.249,281.864c0.562,0.765,1.71,1.747,2.521,2.167
			c0.516,0.267,1.054,0.443,1.635,0.492c1.173,0.098,2.098-0.409,2.532-1.437c0.351-0.831,0.364-1.683,0.005-2.512
			c-0.432-0.997-1.204-1.526-2.304-1.553c-0.634-0.015-1.205,0.18-1.747,0.491C489.848,280.11,489.066,280.998,488.249,281.864z
			 M484.306,281.873c-0.89-0.932-1.776-1.845-2.93-2.432c-0.261-0.132-0.536-0.247-0.816-0.322
			c-1.212-0.326-2.237,0.126-2.831,1.232c-0.412,0.767-0.479,1.578-0.247,2.409c0.283,1.009,1.054,1.638,2.098,1.749
			c0.627,0.067,1.219-0.052,1.792-0.301C482.552,283.698,483.457,282.845,484.306,281.873z"/>
	</g>
</g>
</svg>
