<?xml version="1.0" encoding="utf-8"?>
<!DOCTYPE svg PUBLIC "-//W3C//DTD SVG 1.1//EN" "http://www.w3.org/Graphics/SVG/1.1/DTD/svg11.dtd">
<svg version="1.1" id="Icon" xmlns="http://www.w3.org/2000/svg" xmlns:xlink="http://www.w3.org/1999/xlink" x="0px" y="0px" viewBox="456 256 48 48" enable-background="new 456 256 48 48" xml:space="preserve">
<linearGradient id="SVGID_1_" gradientUnits="userSpaceOnUse" x1="480.042" y1="303.917" x2="480.042" y2="256.0005">
	<stop  offset="0" style="stop-color:#F8350F"/>
	<stop  offset="1" style="stop-color:#F79610"/>
</linearGradient>
<path fill="url(#SVGID_1_)" d="M504,297.928c0,3.307-2.683,5.989-5.989,5.989h-35.938c-3.308,0-5.99-2.683-5.99-5.989V261.99
	c0-3.307,2.682-5.99,5.99-5.99h35.938c3.307,0,5.989,2.683,5.989,5.99V297.928z"/>
<g>
	<path fill="#F8350F" d="M491.689,277.607c0,0,0.007-0.09,0.005-0.248c-0.001,0-0.005,0.001-0.005,0.001V277.607z"/>
	<path fill="#F8350F" d="M461.542,281.797c0,0.778,0.118,1.431,0.306,1.982c0-1.296,0-2.593,0-3.889
		C461.657,280.416,461.542,281.043,461.542,281.797z"/>
	<path fill="#F8350F" d="M462.673,278.946c0,1.982,0,3.867,0,5.855c0.25,0.453,0.541,0.804,0.832,1.066c0-2.712,0-5.166,0-7.86
		C463.203,278.242,462.915,278.548,462.673,278.946z"/>
	<path fill="#F8350F" d="M464.337,277.528c0,2.865,0,6.011,0,8.913c0.334,0.168,0.571,0.222,0.571,0.222s0.092,0,0.26,0
		c0-3.213,0-6.153,0-9.373C464.926,277.331,464.637,277.406,464.337,277.528z"/>
	<path fill="#F8350F" d="M466.832,277.231c-0.275-0.006-0.561,0-0.832,0.003c0,3.05,0,6.4,0,9.429c0.243,0,0.52,0,0.832,0
		C466.832,283.432,466.832,280.475,466.832,277.231z"/>
	<path fill="#F8350F" d="M467.841,277.36c-0.036-0.014-0.082-0.023-0.123-0.035c0,3.147,0,6.134,0,9.337c0.307,0,0.638,0,0.979,0
		c0-3.989,0-7.979,0-11.968C467.693,275.982,467.841,277.36,467.841,277.36z"/>
	<path fill="#F8350F" d="M469.187,274.167c0,4.053,0,8.454,0,12.497c0.314,0,0.643,0,0.979,0c0-4.524,0-8.666,0-13.189
		C469.78,273.686,469.456,273.919,469.187,274.167z"/>
	<path fill="#F8350F" d="M470.654,273.232c0,4.388,0,9.079,0,13.431c0.315,0,0.649,0,0.978,0c0-4.589,0-9.177,0-13.766
		C471.313,272.98,470.987,273.088,470.654,273.232z"/>
	<path fill="#F8350F" d="M472.122,272.788c0,4.739,0,9.145,0,13.875c0.319,0,0.649,0,0.979,0c0-4.527,0-9.425,0-13.963
		C472.785,272.706,472.461,272.728,472.122,272.788z"/>
	<path fill="#F8350F" d="M473.589,272.702c0,4.537,0,9.434,0,13.961c0.321,0,0.65,0,0.979,0c0-4.479,0-9.317,0-13.814
		C474.262,272.78,473.94,272.724,473.589,272.702z"/>
	<path fill="#F8350F" d="M497.928,279.516c-1.937-3.538-6.15-2.184-6.233-2.157c0.002,0.158-0.005,0.248-0.005,0.248v-0.247
		c0,0,0.004-0.001,0.005-0.001c-0.013-1.089-0.398-5.494-5.63-7.269c-5.993-2.032-9.356,3.82-9.356,3.82
		c-0.138-0.221-0.745-0.652-1.652-0.938c0,4.646,0,8.999,0,13.691c8.237,0,18.455,0,19.569,0
		C496.522,286.663,499.885,283.089,497.928,279.516z"/>
</g>
<g>
	<path fill="#FFFFFF" d="M491.689,278.673c0,0,0.007-0.089,0.005-0.246c-0.001,0-0.005,0.001-0.005,0.001V278.673z"/>
	<path fill="#FFFFFF" d="M461.542,282.833c0,0.772,0.118,1.42,0.306,1.968c0-1.287,0-2.574,0-3.859
		C461.657,281.462,461.542,282.084,461.542,282.833z"/>
	<path fill="#FFFFFF" d="M462.673,280.003c0,1.968,0,3.839,0,5.812c0.25,0.45,0.541,0.798,0.832,1.059c0-2.692,0-5.128,0-7.803
		C463.203,279.304,462.915,279.607,462.673,280.003z"/>
	<path fill="#FFFFFF" d="M464.337,278.596c0,2.844,0,5.967,0,8.848c0.334,0.166,0.571,0.22,0.571,0.22s0.092,0,0.26,0
		c0-3.189,0-6.108,0-9.304C464.926,278.399,464.637,278.474,464.337,278.596z"/>
	<path fill="#FFFFFF" d="M466.832,278.3c-0.275-0.006-0.561,0-0.832,0.003c0,3.028,0,6.353,0,9.36c0.243,0,0.52,0,0.832,0
		C466.832,284.455,466.832,281.52,466.832,278.3z"/>
	<path fill="#FFFFFF" d="M467.841,278.429c-0.036-0.014-0.082-0.023-0.123-0.034c0,3.123,0,6.089,0,9.269c0.307,0,0.638,0,0.979,0
		c0-3.96,0-7.921,0-11.88C467.693,277.061,467.841,278.429,467.841,278.429z"/>
	<path fill="#FFFFFF" d="M469.187,275.258c0,4.023,0,8.391,0,12.405c0.314,0,0.643,0,0.979,0c0-4.491,0-8.602,0-13.092
		C469.78,274.781,469.456,275.013,469.187,275.258z"/>
	<path fill="#FFFFFF" d="M470.654,274.331c0,4.355,0,9.013,0,13.332c0.315,0,0.649,0,0.978,0c0-4.555,0-9.11,0-13.665
		C471.313,274.081,470.987,274.188,470.654,274.331z"/>
	<path fill="#FFFFFF" d="M472.122,273.89c0,4.705,0,9.078,0,13.773c0.319,0,0.649,0,0.979,0c0-4.494,0-9.355,0-13.86
		C472.785,273.809,472.461,273.83,472.122,273.89z"/>
	<path fill="#FFFFFF" d="M473.589,273.804c0,4.504,0,9.365,0,13.859c0.321,0,0.65,0,0.979,0c0-4.445,0-9.249,0-13.713
		C474.262,273.882,473.94,273.826,473.589,273.804z"/>
	<path fill="#FFFFFF" d="M497.928,280.568c-1.937-3.512-6.15-2.168-6.233-2.141c0.002,0.157-0.005,0.246-0.005,0.246v-0.245
		c0,0,0.004-0.001,0.005-0.001c-0.013-1.082-0.398-5.453-5.63-7.215c-5.993-2.018-9.356,3.792-9.356,3.792
		c-0.138-0.22-0.745-0.647-1.652-0.931c0,4.612,0,8.932,0,13.59c8.237,0,18.455,0,19.569,0
		C496.522,287.663,499.885,284.115,497.928,280.568z"/>
</g>
</svg>
