<?xml version="1.0" encoding="utf-8"?>
<!DOCTYPE svg PUBLIC "-//W3C//DTD SVG 1.1//EN" "http://www.w3.org/Graphics/SVG/1.1/DTD/svg11.dtd">
<svg version="1.1" id="Icon" xmlns="http://www.w3.org/2000/svg" xmlns:xlink="http://www.w3.org/1999/xlink" x="0px" y="0px" viewBox="0 0 48 48" enable-background="new 0 0 48 48" xml:space="preserve">
<linearGradient id="SVGID_1_" gradientUnits="userSpaceOnUse" x1="23.9995" y1="0" x2="23.9995" y2="48.0005">
	<stop  offset="0" style="stop-color:#4BD0EF"/>
	<stop  offset="1" style="stop-color:#29AAE1"/>
</linearGradient>
<path fill-rule="evenodd" clip-rule="evenodd" fill="url(#SVGID_1_)" d="M48,42c0,3.313-2.687,6-6,6H6c-3.313,0-6-2.687-6-6V6
	c0-3.313,2.687-6,6-6h36c3.313,0,6,2.687,6,6V42z"/>
<path fill="#29AAE1" d="M40.231,13.413c-1.12,0.497-2.323,0.833-3.588,0.984c1.291-0.774,2.28-1.998,2.747-3.457
	c-1.206,0.716-2.543,1.236-3.968,1.516c-1.139-1.214-2.763-1.972-4.56-1.972c-3.449,0-6.246,2.796-6.246,6.247
	c0,0.49,0.055,0.966,0.161,1.424c-5.192-0.261-9.795-2.749-12.876-6.528c-0.538,0.923-0.846,1.996-0.846,3.141
	c0,2.167,1.103,4.08,2.779,5.199c-1.024-0.032-1.987-0.313-2.83-0.781c0,0.026,0,0.053,0,0.079c0,3.026,2.153,5.551,5.011,6.125
	c-0.525,0.143-1.076,0.219-1.646,0.219c-0.403,0-0.794-0.038-1.176-0.11c0.795,2.48,3.102,4.287,5.835,4.338
	c-2.138,1.675-4.832,2.675-7.758,2.675c-0.504,0-1.002-0.03-1.491-0.089c2.765,1.773,6.048,2.808,9.576,2.808
	c11.49,0,17.774-9.519,17.774-17.774c0-0.271-0.006-0.54-0.019-0.809C38.334,15.766,39.394,14.666,40.231,13.413z"/>
<path fill="#FFFFFF" d="M40.231,14.739c-1.12,0.497-2.323,0.833-3.588,0.984c1.291-0.773,2.28-1.998,2.747-3.456
	c-1.206,0.716-2.543,1.236-3.968,1.516c-1.139-1.214-2.763-1.972-4.56-1.972c-3.449,0-6.246,2.796-6.246,6.247
	c0,0.489,0.055,0.966,0.161,1.424c-5.192-0.261-9.795-2.748-12.876-6.527c-0.538,0.923-0.846,1.996-0.846,3.141
	c0,2.167,1.103,4.079,2.779,5.199c-1.024-0.032-1.987-0.313-2.83-0.781c0,0.026,0,0.052,0,0.079c0,3.027,2.153,5.551,5.011,6.125
	c-0.525,0.144-1.076,0.219-1.646,0.219c-0.403,0-0.794-0.038-1.176-0.11c0.795,2.481,3.102,4.287,5.835,4.338
	c-2.138,1.676-4.832,2.675-7.758,2.675c-0.504,0-1.002-0.03-1.491-0.089c2.765,1.773,6.048,2.808,9.576,2.808
	c11.49,0,17.774-9.519,17.774-17.774c0-0.271-0.006-0.54-0.019-0.808C38.334,17.092,39.394,15.992,40.231,14.739z"/>
</svg>
