<?xml version="1.0" encoding="utf-8"?>
<!DOCTYPE svg PUBLIC "-//W3C//DTD SVG 1.1//EN" "http://www.w3.org/Graphics/SVG/1.1/DTD/svg11.dtd">
<svg version="1.1" id="Icon" xmlns="http://www.w3.org/2000/svg" xmlns:xlink="http://www.w3.org/1999/xlink" x="0px" y="0px" viewBox="456 256 48 48" enable-background="new 456 256 48 48" xml:space="preserve">
<linearGradient id="SVGID_1_" gradientUnits="userSpaceOnUse" x1="351.3662" y1="312.875" x2="351.3662" y2="301.375" gradientTransform="matrix(4.1667 0 0 -4.1667 -983.9935 1559.6541)">
	<stop  offset="0" style="stop-color:#082F3C"/>
	<stop  offset="1" style="stop-color:#04242E"/>
</linearGradient>
<path fill="url(#SVGID_1_)" d="M504,297.928c0,3.307-2.683,5.989-5.989,5.989h-35.938c-3.308,0-5.99-2.683-5.99-5.989V261.99
	c0-3.307,2.682-5.99,5.99-5.99h35.938c3.307,0,5.989,2.683,5.989,5.99V297.928z"/>
<path fill-rule="evenodd" clip-rule="evenodd" fill="#03191E" d="M466.752,274.061c1.03-0.476,1.952-1.021,2.946-1.333
	c1.668-0.524,3.078,0.008,4.113,1.417c0.336,0.458,0.521,0.403,0.918,0.025c1.398-1.325,3.034-1.956,4.981-1.419
	c1.338,0.37,2.175,1.325,2.197,2.73c0.05,3.108,0.039,6.218,0.009,9.326c-0.003,0.193-0.363,0.533-0.578,0.552
	c-1.929,0.166-1.93,0.149-1.928-1.802c0-1.97,0.006-3.939-0.002-5.909c-0.006-1.448-0.527-2.357-1.466-2.609
	c-1.138-0.305-2.915,0.399-3.455,1.428c-0.162,0.307-0.194,0.708-0.198,1.066c-0.017,2.277-0.032,4.556,0.003,6.832
	c0.011,0.74-0.189,1.04-0.982,1.027c-1.661-0.029-1.662,0.009-1.662-1.643c0-2.124,0.003-4.248-0.002-6.372
	c-0.004-1.531-0.74-2.382-2.048-2.389c-1.654-0.009-2.935,1.072-2.939,2.495c-0.006,2.309-0.026,4.618,0.01,6.925
	c0.012,0.708-0.185,0.98-0.927,0.981c-1.813,0.003-1.813,0.035-1.813-1.778c0-3.263,0.021-6.526-0.02-9.788
	c-0.01-0.752,0.236-1.02,0.949-0.914c0.03,0.004,0.061,0,0.092,0C465.803,272.95,466.933,272.538,466.752,274.061z"/>
<path fill-rule="evenodd" clip-rule="evenodd" fill="#03191E" d="M491.8,280.083c-1.293,0-2.585-0.007-3.877,0.002
	c-0.979,0.007-1.133,0.265-0.726,1.175c0.799,1.788,2.821,2.76,4.763,2.219c0.669-0.187,1.331-0.488,1.913-0.865
	c0.541-0.354,0.783-0.215,1.1,0.257c0.77,1.149,0.778,1.24-0.441,1.924c-2.871,1.613-7.757,1.431-9.627-2.232
	c-1.926-3.778-0.419-9.347,4.872-9.974c3.228-0.383,6.05,1.763,6.566,4.984c0.048,0.303,0.083,0.609,0.124,0.914
	c0.213,1.597,0.213,1.598-1.437,1.599C493.953,280.084,492.875,280.083,491.8,280.083z M490.363,278.169
	c0.89,0,1.778,0.011,2.668-0.003c0.869-0.014,1.021-0.241,0.76-1.071c-0.461-1.462-1.9-2.396-3.579-2.324
	c-1.493,0.064-2.838,1.177-3.21,2.588c-0.155,0.589,0.04,0.808,0.603,0.808C488.524,278.167,489.444,278.167,490.363,278.169z"/>
<path fill-rule="evenodd" clip-rule="evenodd" fill="#FFCB33" d="M466.752,276.108c1.03-0.476,1.952-1.021,2.946-1.332
	c1.668-0.524,3.078,0.008,4.113,1.417c0.336,0.458,0.521,0.403,0.918,0.026c1.398-1.326,3.034-1.956,4.981-1.419
	c1.338,0.37,2.175,1.325,2.197,2.73c0.05,3.108,0.039,6.218,0.009,9.326c-0.003,0.193-0.363,0.533-0.578,0.552
	c-1.929,0.166-1.93,0.149-1.928-1.802c0-1.97,0.006-3.939-0.002-5.909c-0.006-1.448-0.527-2.357-1.466-2.609
	c-1.138-0.305-2.915,0.399-3.455,1.428c-0.162,0.307-0.194,0.708-0.198,1.067c-0.017,2.277-0.032,4.555,0.003,6.833
	c0.011,0.739-0.189,1.039-0.982,1.026c-1.661-0.029-1.662,0.009-1.662-1.643c0-2.124,0.003-4.248-0.002-6.372
	c-0.004-1.531-0.74-2.382-2.048-2.389c-1.654-0.008-2.935,1.072-2.939,2.495c-0.006,2.309-0.026,4.618,0.01,6.926
	c0.012,0.707-0.185,0.98-0.927,0.981c-1.813,0.002-1.813,0.034-1.813-1.779c0-3.263,0.021-6.525-0.02-9.788
	c-0.01-0.752,0.236-1.02,0.949-0.914c0.03,0.005,0.061,0,0.092,0C465.803,274.997,466.933,274.585,466.752,276.108z"/>
<path fill-rule="evenodd" clip-rule="evenodd" fill="#FFCB33" d="M491.8,282.13c-1.293,0-2.585-0.007-3.877,0.002
	c-0.979,0.007-1.133,0.265-0.726,1.174c0.799,1.79,2.821,2.761,4.763,2.221c0.669-0.188,1.331-0.489,1.913-0.866
	c0.541-0.354,0.783-0.215,1.1,0.257c0.77,1.149,0.778,1.24-0.441,1.925c-2.871,1.613-7.757,1.43-9.627-2.233
	c-1.926-3.778-0.419-9.347,4.872-9.974c3.228-0.383,6.05,1.763,6.566,4.984c0.048,0.304,0.083,0.609,0.124,0.913
	c0.213,1.598,0.213,1.599-1.437,1.6C493.953,282.132,492.875,282.131,491.8,282.13z M490.363,280.216
	c0.89,0,1.778,0.011,2.668-0.003c0.869-0.014,1.021-0.241,0.76-1.071c-0.461-1.462-1.9-2.396-3.579-2.323
	c-1.493,0.064-2.838,1.176-3.21,2.588c-0.155,0.589,0.04,0.808,0.603,0.808C488.524,280.213,489.444,280.214,490.363,280.216z"/>
</svg>
