<?xml version="1.0" encoding="utf-8"?>
<!DOCTYPE svg PUBLIC "-//W3C//DTD SVG 1.1//EN" "http://www.w3.org/Graphics/SVG/1.1/DTD/svg11.dtd">
<svg version="1.1" id="Icon" xmlns="http://www.w3.org/2000/svg" xmlns:xlink="http://www.w3.org/1999/xlink" x="0px" y="0px" viewBox="456 256 48 48" enable-background="new 456 256 48 48" xml:space="preserve">
<linearGradient id="SVGID_1_" gradientUnits="userSpaceOnUse" x1="351.3662" y1="312.875" x2="351.3662" y2="301.375" gradientTransform="matrix(4.1667 0 0 -4.1667 -983.9935 1559.6541)">
	<stop  offset="0" style="stop-color:#AF2300"/>
	<stop  offset="1" style="stop-color:#961900"/>
</linearGradient>
<path fill="url(#SVGID_1_)" d="M504,297.928c0,3.307-2.683,5.989-5.989,5.989h-35.938c-3.308,0-5.99-2.683-5.99-5.989V261.99
	c0-3.307,2.682-5.99,5.99-5.99h35.938c3.307,0,5.989,2.683,5.989,5.99V297.928z"/>
<path fill="#890000" d="M486.881,289.976c0.597,1.568,1.997,2.333,3.686,2.809c0.148,0.787,0.376,1.496,0.351,2.456
	c-3.821,1.217-7.013-0.836-8.072-3.509c-11.228,2.102-18.117-4.878-17.373-15.269c0.517-7.214,6.218-13.307,13.864-13.512
	c9.39-0.252,14.389,6.113,14.389,14.39C493.726,283.004,490.901,287.683,486.881,289.976z M479.335,266.636
	c-9.533,0.492-10.595,24.029,1.93,21.761c-0.263-1.668-1.776-2.086-3.334-2.457c-0.227-0.65-0.286-1.469-0.351-2.281
	c3.284-1.444,6.088,1.176,7.545,2.106C488.163,279.49,487.966,266.191,479.335,266.636z"/>
<path fill="#FFFFFF" d="M486.881,291.942c0.597,1.568,1.997,2.333,3.686,2.809c0.148,0.787,0.376,1.496,0.351,2.456
	c-3.821,1.217-7.013-0.836-8.072-3.509c-11.228,2.102-18.117-4.878-17.373-15.269c0.517-7.214,6.218-13.307,13.864-13.512
	c9.39-0.252,14.389,6.113,14.389,14.39C493.726,284.971,490.901,289.649,486.881,291.942z M479.335,268.603
	c-9.533,0.491-10.595,24.029,1.93,21.76c-0.263-1.668-1.776-2.086-3.334-2.457c-0.227-0.65-0.286-1.469-0.351-2.281
	c3.284-1.444,6.088,1.176,7.545,2.106C488.163,281.457,487.966,268.158,479.335,268.603z"/>
</svg>
