<?xml version="1.0" standalone="no"?>
<!DOCTYPE svg PUBLIC "-//W3C//DTD SVG 1.1//EN" "http://www.w3.org/Graphics/SVG/1.1/DTD/svg11.dtd" >
<svg>
<metadata>
Created by FontForge 20090622 at Fri Jul 17 05:36:45 2015
 By deploy user
[Lato] Copyright (c) 2011-2014 by tyPoland Lukasz Dziedzic (http://www.typoland.com/) with Reserved Font Name "Lato". Licensed under the SIL Open Font License, Version 1.1 (http://scripts.sil.org/OFL).  [Source Han Sans]Copyright  2014, 2015 Adobe Systems
</metadata>
<defs>
<font id="SpoqaHanSansJP-Regular" horiz-adv-x="1024" >
  <font-face 
    font-family="SpoqaHanSansJP-Regular"
    font-weight="400"
    font-stretch="normal"
    units-per-em="1024"
    panose-1="2 11 3 2 2 2 3 2 2 7"
    ascent="881"
    descent="-143"
    x-height="556"
    cap-height="751"
    bbox="-45 -256 1024 1007"
    underline-thickness="51"
    underline-position="-103"
    unicode-range="U+0020-U+FFE5"
  />
<missing-glyph 
d="M402 258v220h220v-220h-220z" />
    <glyph glyph-name=".notdef" 
d="M402 258v220h220v-220h-220z" />
    <glyph glyph-name="space" unicode=" " horiz-adv-x="229" 
 />
    <glyph glyph-name="exclam" unicode="!" horiz-adv-x="331" 
d="M121 660l-3 107h95l-3 -107l-12 -434h-65zM165 -13q-28 0 -48 19.5t-20 50.5q0 32 20 52.5t48 20.5q29 0 48 -20.5t19 -52.5q0 -31 -19 -50.5t-48 -19.5z" />
    <glyph glyph-name="quotedbl" unicode="&#x22;" horiz-adv-x="486" 
d="M94 684l-2 106h98l-2 -106l-18 -189h-57zM296 684l-3 106h99l-2 -106l-19 -189h-57z" />
    <glyph glyph-name="numbersign" unicode="#" horiz-adv-x="568" 
d="M131 233h-90v66h98l22 170h-98v65h105l27 209h60l-26 -209h152l28 209h59l-26 -209h92v-65h-99l-21 -170h97v-66h-105l-28 -233h-62l28 233h-151l-29 -233h-61zM352 299l22 170h-153l-20 -170h151z" />
    <glyph glyph-name="dollar" unicode="$" horiz-adv-x="613" 
d="M548 205q1 -22 -3 -42t-13 -38q-16 -36 -49 -66q-15 -14 -34.5 -25t-42.5 -20l-33 -8t-33 -6v-88h-64v86q-63 3 -123 27q-33 14 -61.5 32t-51.5 42l47 56q22 -21 45.5 -36.5t49.5 -26.5q24 -10 47 -15.5t47 -7.5v281l-57 26q-13 4 -26.5 10t-26.5 14t-25.5 17t-24.5 19
q-22 22 -36 52q-7 15 -11 32t-4 37q-2 21 3 39t13 37q8 17 20 32.5t26 27.5q31 25 75 42q17 5 35.5 9t38.5 6v85h64v-89q41 -4 79 -20q27 -11 50.5 -25.5t42.5 -33.5l-42 -53q-36 30 -76 49l-26.5 8t-27.5 6v-268l51 -22q18 -6 33 -13t29 -17q32 -17 53.5 -39t29.5 -44
q5 -15 8.5 -32t3.5 -37zM238 450q18 -9 38 -17v245q-27 -2 -48 -10t-39 -21q-20 -15 -31.5 -36t-9.5 -47q0 -14 3.5 -28t10.5 -24q5 -10 14 -20t20 -17q18 -15 42 -25zM419 103q44 37 43 93q0 14 -3 27t-8 24q-11 18 -30 35q-8 7 -18.5 13.5t-22.5 11.5q-9 5 -19 9.5
t-21 8.5v-254q51 9 79 32z" />
    <glyph glyph-name="percent" unicode="%" horiz-adv-x="885" 
d="M40 559v19q0 40 11.5 73.5t34 57.5t53 37t69.5 13t70 -12.5t53 -35.5t34 -55.5t12 -71.5v-19q0 -81 -45 -130t-124 -49q-77 0 -122.5 47t-45.5 126zM284 559v25q0 112 -76 112q-77 0 -77 -112v-25q0 -114 77 -114q40 0 58 28.5t18 85.5zM642 765h85l-491 -764h-85z
M510 207v17q0 40 12 73.5t33.5 57.5t52 37.5t69.5 13.5q78 0 123.5 -47.5t45.5 -129.5v-16q0 -41 -12 -74t-34 -56.5t-53 -36t-70 -12.5q-78 0 -122.5 45.5t-44.5 127.5zM754 207v22q0 59 -17.5 86t-59.5 27q-37 0 -56.5 -27t-19.5 -86v-22q0 -113 76 -113q42 0 59.5 28.5
t17.5 84.5z" />
    <glyph glyph-name="ampersand" unicode="&#x26;" horiz-adv-x="665" 
d="M38 197q-2 40 9 72t32 58.5t50.5 48t63.5 39.5q-34 39 -54.5 76.5t-22.5 80.5q-2 44 13 76.5t40.5 54.5t57 32.5t64.5 12.5q37 1 69 -9t56 -29.5t38 -48t15 -64.5q0 -38 -12.5 -67t-34 -52t-49.5 -41.5t-59 -35.5l175 -197q16 34 30.5 74.5t15.5 86.5l77 4
q-3 -63 -23.5 -118.5t-48.5 -102.5l115 -128h-106q-15 18 -29.5 33.5l-30.5 31.5q-35 -39 -84 -61.5t-110 -24.5q-115 -3 -184 46t-73 152zM446 135l-214 233q-47 -29 -77.5 -65.5t-27.5 -94.5q2 -65 43 -103.5t120 -35.5q50 1 89.5 18.5t66.5 47.5zM271 449q22 12 43 25
t37 30t25.5 37.5t8.5 48.5q-2 44 -27 68.5t-64 22.5q-40 -1 -66.5 -25.5t-25.5 -75.5q2 -37 21 -68t48 -63z" />
    <glyph glyph-name="quotesingle" unicode="'" horiz-adv-x="285" 
d="M94 684l-2 106h98l-2 -106l-18 -189h-57z" />
    <glyph glyph-name="parenleft" unicode="(" horiz-adv-x="346" 
d="M245 -145q-71 114 -111 241t-40 279q0 150 40 277t111 242l58 -27q-67 -110 -99 -235.5t-32 -256.5t32 -257t99 -236z" />
    <glyph glyph-name="parenright" unicode=")" horiz-adv-x="346" 
d="M44 -116q67 110 99 236t32 257t-32 256.5t-99 235.5l57 27q72 -115 112 -242t40 -277q0 -152 -40 -279t-112 -241z" />
    <glyph glyph-name="asterisk" unicode="*" horiz-adv-x="478" 
d="M113 515l64 107l-111 46l18 52l117 -29l10 124h55l10 -123l117 28l18 -52l-112 -46l66 -107l-46 -33l-80 98l-81 -98z" />
    <glyph glyph-name="plus" unicode="+" horiz-adv-x="568" 
d="M247 343h-208v70h208v223h75v-223h207v-70h-207v-224h-75v224z" />
    <glyph glyph-name="comma" unicode="," horiz-adv-x="202" 
d="M57 130h104l-65 -207h-76z" />
    <glyph glyph-name="hyphen" unicode="-" horiz-adv-x="432" 
d="M48 413h338v-70h-338v70z" />
    <glyph glyph-name="period" unicode="." horiz-adv-x="285" 
d="M142 -13q-27 0 -47 19.5t-20 50.5q0 32 20 52.5t47 20.5q28 0 48 -20.5t20 -52.5q0 -31 -20 -50.5t-48 -19.5z" />
    <glyph glyph-name="slash" unicode="/" horiz-adv-x="410" 
d="M328 864h69l-315 -994h-71z" />
    <glyph glyph-name="zero" unicode="0" horiz-adv-x="614" 
d="M580 374q0 -101 -22 -172q-21 -74 -58 -121q-18 -24 -40 -41.5t-46 -30.5q-49 -22 -108 -22t-107 22q-51 25 -86 72q-37 48 -58 121q-21 71 -21 172q0 99 21 173q21 73 58 121q35 47 86 71q50 24 107 24q55 0 108 -24q24 -12 46 -30t40 -41q37 -47 58 -121
q22 -74 22 -173zM482 374q0 85 -14 145q-13 59 -39 95q-23 37 -56 53q-33 15 -67 15q-35 0 -66 -15q-33 -16 -57 -53q-12 -17 -21 -41t-18 -54q-14 -60 -14 -145t14 -146q9 -29 18 -52.5t21 -41.5q24 -37 57 -52q31 -15 66 -15q34 0 67 15t56 52q26 36 39 94q14 61 14 146z
" />
    <glyph glyph-name="one" unicode="1" horiz-adv-x="563" 
d="M260 0v590v23.5t1 23.5l-111 -93l-60 54l188 163h76v-761h-94z" />
    <glyph glyph-name="two" unicode="2" horiz-adv-x="625" 
d="M323 764q47 0 90 -14q42 -15 71 -42q31 -27 48 -66q18 -38 18 -89q0 -44 -12 -79q-13 -34 -35 -68q-23 -36 -50 -65q-15 -15 -29.5 -31t-30.5 -32l-197 -198q5 1 16.5 3t24.5 3.5t24 2.5t17 1h287v-90h-506v56l260 257l56 59q12 14 23 28.5t19 28.5q18 29 27 58
q10 29 10 63q0 35 -11 58q-10 24 -29 42q-19 16 -43 25q-27 8 -54 8q-26 0 -53 -8q-23 -9 -43 -24q-19 -16 -32 -36q-7 -11 -11.5 -24.5l-8.5 -26.5l-8 -28l-86 14q8 53 28 92t54 67q30 26 74 41q22 7 44.5 10.5t47.5 3.5z" />
    <glyph glyph-name="three" unicode="3" horiz-adv-x="614" 
d="M322 763q49 0 89 -13q41 -15 69 -40q29 -25 46 -62q17 -34 17 -80q0 -36 -9 -64q-10 -27 -27 -49q-15 -21 -41 -37q-27 -16 -55 -24q74 -19 111 -65q38 -47 38 -116q0 -51 -20 -94q-11 -21 -24 -39.5t-31 -32.5q-31 -28 -79 -45q-47 -15 -99 -15q-60 0 -103 15
q-45 16 -73 41q-31 29 -49 63q-20 37 -33 79l88 29l8 -25l10 -22t11 -23q6 -10 12.5 -19t16.5 -17q18 -17 45 -29q27 -11 66 -11t70 12q14 7 27 15t22 19q19 21 31 46q5 13 7.5 25.5t2.5 24.5q0 32 -9 56q-7 25 -29 44q-21 19 -59 30q-37 10 -98 10v69q24 0 44.5 2.5
t37.5 7.5q36 11 57 28q21 16 30 42q11 23 11 54q0 34 -11 57q-11 24 -28 40q-18 17 -42 24q-27 8 -54 8q-26 0 -53 -8q-23 -9 -43 -24q-10 -8 -20 -20t-15 -23q-8 -14 -12.5 -27.5t-7.5 -23.5q-4 -11 -5 -21l-86 14q8 53 28 92t54 67q30 26 74 41q43 14 92 14z" />
    <glyph glyph-name="four" unicode="4" horiz-adv-x="614" 
d="M469 275h118v-76h-118v-199h-82v199h-324l-40 77l361 482h85v-483zM387 565v14v16q1 4 0.5 7.5t0.5 7.5q0 5 3 20t4 19l-277 -374h269v312v-22z" />
    <glyph glyph-name="five" unicode="5" horiz-adv-x="614" 
d="M521 669h-294l-34 -201q59 12 109 12q63 0 105 -17q44 -17 75 -48q30 -30 47 -73q16 -42 16 -91q0 -62 -22 -109q-21 -50 -57 -84q-38 -34 -87 -53q-49 -18 -108 -18q-35 0 -64 7q-16 3 -29.5 7.5t-26.5 9.5q-29 12 -51 26l-21 14t-19 16l50 67l11 -9l9 -7t8 -5l15 -9
t18 -10q9 -5 20.5 -9t23.5 -9q28 -8 61 -8q41 0 72 13q30 11 54 36q22 21 35 56q13 34 13 74q0 17 -3 33.5t-8 30.5q-11 30 -31 48q-22 22 -53 32q-31 11 -72 11q-15 0 -29.5 -1.5t-30.5 -3.5q-32 -5 -63 -15l-60 17l62 356h359v-86z" />
    <glyph glyph-name="six" unicode="6" horiz-adv-x="614" 
d="M340 461q44 0 86 -16q42 -15 72 -44q31 -29 48 -70q18 -43 18 -97t-19 -97q-19 -45 -53 -79q-34 -33 -82 -52q-46 -19 -106 -19q-57 0 -104 18q-47 19 -79 52q-34 36 -50 81q-19 49 -19 108q0 25 5.5 51.5t17.5 54.5q11 28 28.5 58t41.5 63l210 282h117l-263 -334
q30 19 59 30q18 5 35.5 7.5t36.5 2.5zM143 229q0 -34 12 -66q10 -31 30 -52q21 -22 51 -34q30 -11 66 -11q38 0 69 12q29 12 53 34q21 21 34 51q11 26 11 64q0 19 -2.5 36t-8.5 31q-13 31 -33 51q-22 22 -51 32q-27 11 -65 11q-39 0 -69 -12q-16 -7 -28.5 -16t-23.5 -20
q-21 -22 -33 -50q-12 -31 -12 -61z" />
    <glyph glyph-name="seven" unicode="7" horiz-adv-x="614" 
d="M556 758v-67l-337 -691h-103l314 626q3 6 6.5 12t6.5 12l8 10.5t9 10.5h-403v87h499z" />
    <glyph glyph-name="eight" unicode="8" horiz-adv-x="614" 
d="M307 -13q-57 0 -104 15q-48 16 -81 43q-34 28 -52 69q-19 40 -19 89q0 73 38 121q39 48 110 67q-61 22 -90 67q-31 44 -31 105q0 43 16 79q8 17 20 33t26 31q32 26 73 42q41 15 94 15q51 0 93 -15q43 -16 73 -42q30 -27 47 -64q17 -39 17 -79q0 -61 -31 -105
q-31 -45 -90 -67q71 -20 108 -67q39 -49 39 -121q0 -50 -19 -89q-19 -41 -52 -69q-34 -28 -81 -43q-49 -15 -104 -15zM307 62q39 0 67 11q27 8 49 28q20 18 32 45q10 25 10 59q0 39 -12 66q-15 29 -35 45q-22 18 -51 27q-30 8 -60 8q-29 0 -60 -8q-15 -5 -27 -11t-23 -16
q-23 -17 -35 -45q-14 -26 -14 -66q0 -31 12 -59q11 -26 30 -45q22 -19 51 -28q27 -11 66 -11zM307 427q19 0 34.5 2.5t29.5 8.5q26 12 42 30t24 43q3 12 5 25t2 25q0 27 -9 50q-8 23 -25 41q-18 17 -43 28q-14 5 -28 7.5t-32 2.5q-17 0 -32 -2.5t-27 -7.5q-27 -11 -43 -28
q-9 -8 -15.5 -18.5t-11.5 -22.5q-8 -24 -8 -50q0 -12 1.5 -25t5.5 -25q7 -24 24 -43t43 -30q13 -6 29 -8.5t34 -2.5z" />
    <glyph glyph-name="nine" unicode="9" horiz-adv-x="614" 
d="M272 312q-45 0 -81 15q-37 13 -67 42q-30 27 -46 67q-18 39 -18 93q0 51 19 94q17 43 52 75q33 33 79 52q46 18 101 18t100 -18q44 -17 75 -51q32 -32 50 -76q17 -48 17 -101q0 -33 -6 -61t-18 -58q-11 -26 -27 -56q-8 -14 -17.5 -28.5l-19.5 -28.5l-200 -290h-120
l230 303l11 15l10 14t8.5 11t7.5 11q-13 -8 -28 -16t-34 -14q-39 -12 -78 -12zM463 534q0 34 -12 64q-12 29 -31 49q-20 20 -48 31q-29 11 -62 11q-32 0 -63 -11q-30 -12 -49 -32q-21 -18 -32 -48q-11 -29 -11 -61q0 -37 10 -65q11 -30 30 -48q21 -20 47 -30
q14 -5 29.5 -7.5t32.5 -2.5q36 0 68 13q30 14 49 33q19 20 31 48q11 28 11 56z" />
    <glyph glyph-name="colon" unicode=":" horiz-adv-x="285" 
d="M142 399q-27 0 -47 20t-20 51q0 33 20 53t47 20q28 0 48 -20t20 -53q0 -31 -20 -51t-48 -20zM142 -13q-27 0 -47 19.5t-20 50.5q0 32 20 52.5t47 20.5q28 0 48 -20.5t20 -52.5q0 -31 -20 -50.5t-48 -19.5z" />
    <glyph glyph-name="semicolon" unicode=";" horiz-adv-x="285" 
d="M142 399q-27 0 -47 20t-20 51q0 33 20 53t47 20q28 0 48 -20t20 -53q0 -31 -20 -51t-48 -20zM54 -139q48 20 75 56t28 83q-4 -1 -12 -1q-26 0 -47 16.5t-21 49.5q0 29 21 47t49 18q37 0 58 -29t21 -82q0 -73 -40 -128.5t-109 -85.5z" />
    <glyph glyph-name="less" unicode="&#x3c;" horiz-adv-x="492" 
d="M38 333v68l413 288v-93l-332 -230l332 -218v-94z" />
    <glyph glyph-name="equal" unicode="=" horiz-adv-x="568" 
d="M39 535h490v-70h-490v70zM39 290h490v-70h-490v70z" />
    <glyph glyph-name="greater" unicode="&#x3e;" horiz-adv-x="492" 
d="M39 54v94l332 218l-332 230v93l413 -288v-68z" />
    <glyph glyph-name="question" unicode="?" horiz-adv-x="485" 
d="M229 130q28 0 50 -21q18 -19 18 -53q0 -31 -18 -51q-24 -18 -50 -18q-24 0 -48 18q-18 20 -18 51q0 34 18 53q22 21 48 21zM414 658q16 -38 16 -89q0 -15 -2.5 -30l-4.5 -27l-8 -24.5t-11 -22.5q-11 -24 -24 -38l-15.5 -19t-15.5 -16q-5 -8 -13 -16t-15 -18
q-8 -8 -14.5 -16t-11.5 -16l-10 -19.5t-9 -20.5q-3 -12 -5 -24.5t-2 -25.5v-35h-76v44q0 44 14 76q6 14 12.5 27.5t17.5 25.5q18 26 37 46l18.5 20.5t18.5 21.5l14.5 23.5t12.5 26.5q11 28 9 67q-3 59 -35 88q-27 33 -78 33q-33 0 -55 -14q-26 -13 -40 -36q-8 -12 -15 -25.5
t-11 -28.5q-1 -11 -1.5 -21.5t-2.5 -20.5h-79q2 20 4.5 38t7.5 36q8 23 17.5 42.5t23.5 37.5q14 17 29.5 30.5t35.5 22.5q21 8 42 13t44 5t42 -3.5t36 -9.5q20 -7 35 -17.5t28 -22.5q12 -14 22.5 -30.5t16.5 -37.5z" />
    <glyph glyph-name="at" unicode="@" horiz-adv-x="969" 
d="M461 -177q-84 0 -158 26.5t-128 78.5t-86 128t-32 176q0 115 39 209t104.5 160t152 102t182.5 36q86 0 155.5 -27.5t118.5 -77t75 -120t26 -154.5q0 -74 -21 -131t-54 -95.5t-73.5 -58t-79.5 -19.5q-47 0 -80 21.5t-38 65.5h-3q-27 -32 -64 -55t-75 -23q-58 0 -97.5 41.5
t-39.5 120.5q0 45 15 92.5t44 85.5t70 63t91 25q60 0 91 -57h2l13 47h62l-45 -228q-17 -70 -1 -102t63 -32q28 0 55 16t49.5 46t36.5 74t14 99q0 70 -20.5 129t-60.5 101.5t-99.5 66.5t-137.5 24q-76 0 -148 -31.5t-128 -89t-90 -139t-34 -181.5q0 -84 25.5 -149t71 -110
t108 -68.5t135.5 -23.5q52 0 99.5 14.5t86.5 37.5l25 -56q-50 -29 -104 -43.5t-113 -14.5zM440 129q24 0 50 16t56 52l33 182q-17 27 -34 37.5t-40 10.5q-34 0 -61 -18.5t-45.5 -46.5t-29 -63t-10.5 -67q0 -55 23.5 -79t57.5 -24z" />
    <glyph glyph-name="A" unicode="A" horiz-adv-x="703" 
d="M469 305l-37 115q-22 64 -41 126l-39 128h-4q-18 -67 -38 -128.5l-41 -125.5l-39 -115h239zM495 229h-289l-76 -229h-101l267 751h112l267 -751h-106z" />
    <glyph glyph-name="B" unicode="B" horiz-adv-x="756" 
d="M130 751h235q60 0 109.5 -10.5t85.5 -32.5t56 -57t20 -84q0 -56 -30.5 -100.5t-86.5 -62.5v-5q72 -13 117 -57.5t45 -121.5q0 -55 -22 -96.5t-61.5 -68.5t-95 -41t-120.5 -14h-252v751zM347 431q103 0 147 33.5t44 90.5q0 67 -47 94t-140 27h-121v-245h117zM368 76
q102 0 158.5 35t56.5 112q0 71 -55.5 103t-159.5 32h-138v-282h138z" />
    <glyph glyph-name="C" unicode="C" horiz-adv-x="735" 
d="M429 -13q-74 0 -136.5 26t-108.5 76t-72 122.5t-26 163.5t26.5 163t73 123t110.5 77.5t140 26.5q36 0 68 -7.5t59.5 -21t49.5 -30t39 -34.5l-54 -62q-31 32 -70.5 52t-90.5 20q-56 0 -101.5 -21t-78.5 -60.5t-51 -95.5t-18 -127t17.5 -128t49.5 -97t77.5 -61.5
t101.5 -21.5t100.5 22.5t81.5 61.5l56 -60q-47 -52 -106.5 -79.5t-136.5 -27.5z" />
    <glyph glyph-name="D" unicode="D" horiz-adv-x="745" 
d="M110 751h197q182 0 277 -96.5t95 -276.5q0 -89 -24 -159.5t-70.5 -119t-115.5 -74t-158 -25.5h-201v751zM299 78q139 0 207.5 79t68.5 221q0 143 -68 219.5t-208 76.5h-90v-596h90z" />
    <glyph glyph-name="E" unicode="E" horiz-adv-x="645" 
d="M112 751h454v-80h-354v-236h299v-81h-299v-273h367v-81h-467v751z" />
    <glyph glyph-name="F" unicode="F" horiz-adv-x="610" 
d="M112 751h455v-80h-355v-254h301v-80h-301v-337h-100v751z" />
    <glyph glyph-name="G" unicode="G" horiz-adv-x="748" 
d="M421 -13q-78 0 -143.5 26t-112.5 76t-73 122.5t-26 163.5t27 163t75 123t114 77.5t145 26.5q41 0 75.5 -8t62 -21t49.5 -30t39 -34l-53 -62q-30 30 -70 51t-101 21q-59 0 -107.5 -21t-82.5 -60.5t-52.5 -95.5t-18.5 -127t17.5 -128t50.5 -97t82 -61.5t112 -21.5
q43 0 81.5 11.5t61.5 32.5v196h-166v79h258v-315q-38 -38 -101 -62.5t-143 -24.5z" />
    <glyph glyph-name="H" unicode="H" horiz-adv-x="786" 
d="M110 751h99v-315h369v315h98v-751h-98v354h-369v-354h-99v751z" />
    <glyph glyph-name="I" unicode="I" horiz-adv-x="336" 
d="M121 751h99v-751h-99v751z" />
    <glyph glyph-name="J" unicode="J" horiz-adv-x="590" 
d="M263 -13q-75 0 -127.5 30t-87.5 88l71 49q26 -45 59 -64.5t76 -19.5q63 0 94 36.5t31 122.5v522h98v-531q0 -48 -11.5 -90.5t-38 -74t-66.5 -50t-98 -18.5z" />
    <glyph glyph-name="K" unicode="K" horiz-adv-x="703" 
d="M112 751h99v-377h3l326 377h110l-243 -286l282 -465h-110l-234 391l-134 -153v-238h-99v751z" />
    <glyph glyph-name="L" unicode="L" horiz-adv-x="594" 
d="M115 751h98v-670h341v-81h-439v751z" />
    <glyph glyph-name="M" unicode="M" horiz-adv-x="870" 
d="M108 751h119l152 -402l28 -78.5l28 -77.5h5q15 38 27.5 77.5t27.5 78.5l150 402h120v-751h-93v416q0 24 1 52.5t3 57.5t4.5 57.5t4.5 53.5h-5l-63 -171l-149 -390h-67l-149 390l-62 171h-5q2 -25 4 -53.5t4.5 -57.5t3.5 -57.5t1 -52.5v-416h-90v751z" />
    <glyph glyph-name="N" unicode="N" horiz-adv-x="778" 
d="M110 751h103l287 -473l84 -155h5l-8 118t-4 119v391h94v-751h-103l-286 474l-85 155h-4q3 -58 7 -116.5t4 -118.5v-394h-94v751z" />
    <glyph glyph-name="O" unicode="O" horiz-adv-x="799" 
d="M400 -13q-72 0 -133 27t-104.5 77.5t-67.5 123.5t-24 163t24 161.5t67.5 122t104.5 77t133 26.5q73 0 134 -26.5t104.5 -77t67.5 -122t24 -161.5t-24 -163t-67.5 -123.5t-104.5 -77.5t-134 -27zM400 70q53 0 95.5 22t72.5 62t46.5 96.5t16.5 127.5t-16.5 127t-46.5 95.5
t-72.5 60.5t-95.5 21q-52 0 -94.5 -21t-72.5 -60.5t-46.5 -95.5t-16.5 -127t16.5 -127.5t46.5 -96.5t72.5 -62t94.5 -22z" />
    <glyph glyph-name="P" unicode="P" horiz-adv-x="686" 
d="M111 751h224q66 0 121 -11.5t94 -37.5t60 -68t21 -104q0 -59 -21 -103t-59.5 -72.5t-91.5 -42.5t-118 -14h-130v-298h-100v751zM328 375q104 0 153.5 37.5t49.5 117.5q0 81 -52 112.5t-155 31.5h-113v-299h117z" />
    <glyph glyph-name="Q" unicode="Q" horiz-adv-x="799" 
d="M169 378q0 -72 16.5 -130t46.5 -98.5t73 -62.5t95 -22q53 0 95.5 22t72.5 62.5t46.5 98.5t16.5 130q0 71 -16.5 127t-46.5 95.5t-72.5 60.5t-95.5 21q-52 0 -95 -21t-73 -60.5t-46.5 -95.5t-16.5 -127zM749 -172q-18 -6 -47 -11t-64 -5q-54 0 -99 13t-81 36.5t-62.5 56.5
t-43.5 72q-63 8 -115.5 38.5t-89.5 81t-57.5 118t-20.5 150.5q0 90 24.5 161.5t68 122t104.5 77t134 26.5t134 -26.5t105 -77t68.5 -122t24.5 -161.5q0 -81 -20 -147.5t-55.5 -117t-86.5 -81.5t-112 -41q26 -50 76 -75.5t114 -25.5q27 0 47 3.5t35 8.5z" />
    <glyph glyph-name="R" unicode="R" horiz-adv-x="691" 
d="M210 395h132q93 0 142.5 35.5t49.5 109.5t-49.5 104t-142.5 30h-132v-279zM543 0l-191 318h-142v-318h-100v751h247q60 0 110.5 -11t87.5 -36t57.5 -65.5t20.5 -98.5q0 -88 -49 -140.5t-130 -70.5l202 -329h-113z" />
    <glyph glyph-name="S" unicode="S" horiz-adv-x="653" 
d="M332 -13q-84 0 -154 29.5t-123 81.5l60 65q43 -43 99.5 -68t118.5 -25q78 0 122 33.5t44 89.5q0 28 -10.5 48t-28 35t-41.5 26l-51 24l-114 47q-28 11 -56.5 27t-51.5 39t-38 54t-15 72q0 43 19 80t52 63.5t78.5 41.5t99.5 15q71 0 130 -25.5t101 -67.5l-52 -61
q-36 33 -80 52t-99 19q-68 0 -107.5 -29.5t-39.5 -81.5q0 -27 11.5 -46.5t30 -34.5t41.5 -25.5l47 -20.5l112 -46q34 -14 63.5 -32.5t51.5 -42t35 -54t13 -69.5q0 -45 -19 -83.5t-53.5 -68t-84.5 -45.5t-111 -16z" />
    <glyph glyph-name="T" unicode="T" horiz-adv-x="655" 
d="M278 671h-237v80h572v-80h-236v-671h-99v671z" />
    <glyph glyph-name="U" unicode="U" horiz-adv-x="778" 
d="M389 -13q-60 0 -111.5 16t-89.5 54.5t-60 100t-22 152.5v441h100v-444q0 -67 14 -113t39 -73.5t58 -39t72 -11.5q40 0 74.5 11.5t59.5 39t40 73.5t15 113v444h95v-441q0 -91 -21.5 -152.5t-60 -100t-90 -54.5t-112.5 -16z" />
    <glyph glyph-name="V" unicode="V" horiz-adv-x="609" 
d="M-13 751h103l128 -407l19.5 -63.5l18.5 -60.5l18.5 -60.5l20.5 -63.5h4l20.5 63.5l18.5 60.5l18 60.5t20 63.5l127 407h100l-250 -751h-115z" />
    <glyph glyph-name="W" unicode="W" horiz-adv-x="942" 
d="M29 751h102l82 -409q11 -61 23 -121t23 -122h4l28.5 122l27.5 121l108 409h90l110 -409l27.5 -120.5l27.5 -122.5h5l22.5 122.5l22.5 120.5l82 409h95l-163 -751h-117l-118 453q-11 45 -20 86.5l-19 84.5h-4l-20 -84.5l-20 -86.5l-116 -453h-116z" />
    <glyph glyph-name="X" unicode="X" horiz-adv-x="630" 
d="M254 388l-215 363h109l108 -192l29 -52l33 -57h5l29 57l27 52l105 192h105l-215 -368l229 -383h-109l-116 203q-16 27 -32 57t-36 64h-4l-63 -121l-115 -203h-103z" />
    <glyph glyph-name="Y" unicode="Y" horiz-adv-x="584" 
d="M243 292l-235 459h106l100 -212l37.5 -81.5l39.5 -82.5h4l40 82.5t38 81.5l101 212h103l-235 -459v-292h-99v292z" />
    <glyph glyph-name="Z" unicode="Z" horiz-adv-x="658" 
d="M58 56l417 615h-379v80h501v-56l-416 -614h421v-81h-544v56z" />
    <glyph glyph-name="bracketleft" unicode="[" horiz-adv-x="346" 
d="M108 869h203v-52h-133v-878h133v-54h-203v984z" />
    <glyph glyph-name="backslash" unicode="\" horiz-adv-x="413" 
d="M400 -130h-70l-316 994h70z" />
    <glyph glyph-name="bracketright" unicode="]" horiz-adv-x="346" 
d="M239 -115h-204v54h133v878h-133v52h204v-984z" />
    <glyph glyph-name="asciicircum" unicode="^" horiz-adv-x="477" 
d="M207 752h63l147 -262h-70l-108 192l-109 -192h-70z" />
    <glyph glyph-name="underscore" unicode="_" horiz-adv-x="572" 
d="M13 7h545v-62h-545v62z" />
    <glyph glyph-name="grave" unicode="`" horiz-adv-x="621" 
d="M147 830l66 63l162 -191l-48 -46z" />
    <glyph glyph-name="a" unicode="a" horiz-adv-x="578" 
d="M222 -13q-35 0 -64.5 10.5t-51.5 30.5t-34.5 49t-12.5 67q0 45 20 79.5t62 60t106.5 42t153.5 26.5q0 27 -5 52.5t-17.5 45t-35 31.5t-56.5 12q-49 0 -91.5 -18.5t-75.5 -41.5l-37 65q19 12 43.5 25t52 23.5t58.5 17t65 6.5q50 0 87 -16t60 -46.5t34.5 -72.5t11.5 -93
v-342h-77l-8 67h-3q-40 -33 -86.5 -56.5t-98.5 -23.5zM249 61q41 0 76 19t76 55v156q-70 -8 -117.5 -21t-77.5 -31t-42.5 -40t-12.5 -48q0 -49 28 -69.5t70 -20.5z" />
    <glyph glyph-name="b" unicode="b" horiz-adv-x="633" 
d="M339 -13q-39 0 -80.5 18.5t-78.5 51.5h-3l-8 -57h-75v815h93v-223l-3 -100q38 32 83 55t91 23q55 0 96.5 -20.5t69.5 -57t42.5 -89t14.5 -115.5q0 -72 -20 -128.5t-53.5 -94.5t-77 -58t-91.5 -20zM324 65q34 0 63.5 15t51 43.5t33 69t11.5 93.5q0 46 -8 84t-25.5 65
t-45 42t-67.5 15q-36 0 -73 -19.5t-77 -57.5v-292q37 -33 73 -45.5t64 -12.5z" />
    <glyph glyph-name="c" unicode="c" horiz-adv-x="521" 
d="M313 -13q-55 0 -102.5 19.5t-83 56.5t-55.5 91t-20 124q0 69 22 123.5t59 92t85.5 57t102.5 19.5q55 0 94 -19.5t68 -45.5l-48 -63q-24 23 -51 37t-60 14q-38 0 -70 -15.5t-55 -44.5t-36 -68t-13 -87q0 -49 12 -88t35 -67t54.5 -43t70.5 -15q38 0 71 15.5t60 39.5l40 -63
q-37 -33 -83 -51.5t-97 -18.5z" />
    <glyph glyph-name="d" unicode="d" horiz-adv-x="635" 
d="M284 -13q-53 0 -95.5 19.5t-72 56t-46 91t-16.5 124.5q0 67 20 121.5t53 92t76.5 58t91.5 20.5q49 0 84.5 -17t72.5 -48l-6 96v214h94v-815h-76l-9 66h-2q-33 -33 -76 -56t-93 -23zM304 65q39 0 73.5 18.5t68.5 57.5v292q-35 32 -67.5 45.5t-67.5 13.5q-33 0 -62.5 -15.5
t-51.5 -44t-34 -67.5t-12 -86q0 -102 39.5 -158t113.5 -56z" />
    <glyph glyph-name="e" unicode="e" horiz-adv-x="567" 
d="M318 -13q-55 0 -103.5 19.5t-84.5 56.5t-57 91.5t-21 123.5q0 67 21 121.5t56 92t80.5 58t93.5 20.5q53 0 94 -18t69.5 -52.5t43 -82.5t14.5 -108q0 -15 -1 -29t-3 -24h-375q6 -90 55.5 -142.5t129.5 -52.5q41 0 74.5 12t64.5 32l34 -61q-37 -24 -82 -40.5t-103 -16.5z
M442 323q0 85 -36 129t-102 44q-30 0 -57 -12t-48.5 -34t-36 -54t-18.5 -73h298z" />
    <glyph glyph-name="f" unicode="f" horiz-adv-x="333" 
d="M344 739q-32 15 -62 15q-79 0 -79 -110v-88h118v-76h-118v-480h-93v480h-76v71l76 5v89q0 85 39 134t122 49q26 0 49.5 -5t44.5 -13z" />
    <glyph glyph-name="g" unicode="g" horiz-adv-x="577" 
d="M282 -256q-52 0 -94.5 9.5t-72.5 28.5t-47 47.5t-17 64.5q0 35 22 67.5t61 57.5v5q-22 13 -36.5 35.5t-14.5 55.5q0 35 20.5 61.5t41.5 41.5v4q-27 23 -49.5 61.5t-22.5 88.5q0 46 16.5 82t45.5 62.5t67 40t80 13.5q23 0 43 -4.5t34 -9.5h194v-72h-114q21 -19 33 -48.5
t12 -65.5q0 -45 -15.5 -80.5t-43.5 -61t-64.5 -39t-78.5 -13.5q-44 0 -83 20q-16 -14 -26 -28.5t-10 -38.5q0 -27 20.5 -43.5t76.5 -16.5h109q97 0 145 -32t48 -100q0 -39 -19.5 -74t-56 -61.5t-88.5 -42t-116 -15.5zM282 240q23 0 44.5 9t37.5 26.5t25.5 41.5t9.5 55
q0 61 -34 95.5t-83 34.5q-50 0 -84.5 -34.5t-34.5 -95.5q0 -31 9.5 -55t25.5 -41.5t37.5 -26.5t46.5 -9zM295 -193q40 0 72.5 10t55.5 26t36 37t13 42q0 39 -29 54t-85 15h-96q-15 0 -34 2t-38 7q-29 -22 -43 -46t-14 -48q0 -45 42.5 -72t119.5 -27z" />
    <glyph glyph-name="h" unicode="h" horiz-adv-x="622" 
d="M94 815h93v-223l-3 -115q39 39 83 66t102 27q88 0 129 -55t41 -163v-352h-94v340q0 79 -25 113.5t-80 34.5q-43 0 -77 -21.5t-76 -63.5v-403h-93v815z" />
    <glyph glyph-name="i" unicode="i" horiz-adv-x="282" 
d="M94 556h93v-556h-93v556zM141 671q-27 0 -45.5 17t-18.5 43q0 29 18.5 45t45.5 16q28 0 46.5 -16t18.5 -45q0 -26 -18.5 -43t-46.5 -17z" />
    <glyph glyph-name="j" unicode="j" horiz-adv-x="282" 
d="M37 -249q-26 0 -47 4.5t-35 10.5l18 71q12 -4 25 -7t28 -3q42 0 55.5 29t13.5 81v619h93v-619q0 -85 -34.5 -135.5t-116.5 -50.5zM142 671q-27 0 -45.5 17t-18.5 43q0 29 18.5 45t45.5 16t46 -16t19 -45q0 -26 -19 -43t-46 -17z" />
    <glyph glyph-name="k" unicode="k" horiz-adv-x="565" 
d="M94 815h92v-553h2l239 294h103l-186 -223l211 -333h-101l-163 268l-105 -122v-146h-92v815z" />
    <glyph glyph-name="l" unicode="l" horiz-adv-x="276" 
d="M94 0v815h91v-815h-91z" />
    <glyph glyph-name="m" unicode="m" horiz-adv-x="948" 
d="M94 556h77l8 -81h3q36 40 79.5 67.5t93.5 27.5q65 0 101 -28.5t53 -77.5q43 47 87.5 76.5t95.5 29.5q87 0 128 -55t41 -163v-352h-93v340q0 79 -25 113.5t-78 34.5q-63 0 -141 -85v-403h-93v340q0 79 -25 113.5t-78 34.5q-65 0 -141 -85v-403h-93v556z" />
    <glyph glyph-name="n" unicode="n" horiz-adv-x="626" 
d="M94 556h77l8 -80h3q40 39 84.5 66.5t102.5 27.5q88 0 129 -55t41 -163v-352h-94v340q0 79 -25 113.5t-80 34.5q-43 0 -77 -21.5t-76 -63.5v-403h-93v556z" />
    <glyph glyph-name="o" unicode="o" horiz-adv-x="621" 
d="M310 -13q-51 0 -97.5 19.5t-82.5 56.5t-57 91t-21 124q0 69 21 123.5t57 92t82.5 57t97.5 19.5t98 -19.5t82.5 -57t56.5 -92t21 -123.5q0 -70 -21 -124t-56.5 -91t-82.5 -56.5t-98 -19.5zM310 65q36 0 66 15t51.5 43t33 67t11.5 88q0 48 -11.5 87t-33 68t-51.5 44.5
t-66 15.5t-65.5 -15.5t-50.5 -44.5t-32.5 -68t-11.5 -87q0 -49 11.5 -88t32.5 -67t50.5 -43t65.5 -15z" />
    <glyph glyph-name="p" unicode="p" horiz-adv-x="635" 
d="M94 556h77l8 -63h3q38 30 83 53.5t94 23.5q54 0 95.5 -20.5t69.5 -57t42.5 -89t14.5 -116.5q0 -72 -20 -128t-53.5 -94t-77 -58t-91.5 -20q-38 0 -77 16.5t-77 47.5l2 -97v-188h-93v790zM324 65q34 0 63.5 15t51 43.5t33 69t11.5 93.5q0 46 -8 84t-25.5 65t-45 42
t-67.5 15q-36 0 -72.5 -19.5t-77.5 -57.5v-292q38 -33 73.5 -45.5t63.5 -12.5z" />
    <glyph glyph-name="q" unicode="q" horiz-adv-x="635" 
d="M446 -37l6 102q-34 -33 -76.5 -55.5t-91.5 -22.5q-53 0 -95.5 19.5t-72 56t-46 91t-16.5 124.5q0 67 20 121.5t53 92t76.5 58t91.5 20.5q49 0 86 -17t73 -50h3l9 53h74v-790h-94v197zM304 65q39 0 73.5 18.5t68.5 57.5v292q-35 32 -67.5 45.5t-67.5 13.5
q-33 0 -62.5 -15.5t-51.5 -44t-34 -67.5t-12 -86q0 -102 39.5 -158t113.5 -56z" />
    <glyph glyph-name="r" unicode="r" horiz-adv-x="397" 
d="M94 556h77l8 -101h3q30 53 70.5 84t87.5 31q18 0 32 -2.5t27 -9.5l-17 -82q-14 5 -25.5 7t-28.5 2q-18 0 -37 -6.5t-37 -21.5t-35.5 -39.5t-31.5 -60.5v-357h-93v556z" />
    <glyph glyph-name="s" unicode="s" horiz-adv-x="479" 
d="M240 -13q-60 0 -114 22t-94 54l46 62q36 -30 75.5 -48t89.5 -18q55 0 82 26t27 61q0 22 -11 37.5t-29 27.5t-41 22t-46 19q-29 10 -58.5 23.5t-53.5 32.5t-39 44t-15 61q0 32 13 61t37.5 50.5t60.5 33.5t81 12q52 0 96 -18t77 -44l-45 -61q-30 22 -60 36t-68 14
q-52 0 -76.5 -23.5t-24.5 -56.5q0 -21 10 -34.5t27.5 -24.5t39.5 -19.5l45 -17.5l61.5 -25t54.5 -32t39 -46t15 -66q0 -34 -13 -64.5t-38.5 -52.5t-63.5 -35t-87 -13z" />
    <glyph glyph-name="t" unicode="t" horiz-adv-x="386" 
d="M269 -13q-45 0 -75 13t-48.5 37t-26.5 58.5t-8 76.5v308h-83v71l87 5l11 156h78v-156h150v-76h-150v-310q0 -52 18.5 -80t67.5 -28q14 0 31.5 5t31.5 10l19 -70q-24 -8 -50.5 -14t-52.5 -6z" />
    <glyph glyph-name="u" unicode="u" horiz-adv-x="622" 
d="M256 -13q-88 0 -128.5 55t-40.5 162v352h93v-341q0 -78 24.5 -112.5t80.5 -34.5q43 0 76.5 22t73.5 72v394h93v-556h-77l-8 87h-3q-39 -45 -83 -72.5t-101 -27.5z" />
    <glyph glyph-name="v" unicode="v" horiz-adv-x="534" 
d="M13 556h98l104 -316l26 -83l26 -81h4l26 81l26 83l105 316h92l-197 -556h-109z" />
    <glyph glyph-name="w" unicode="w" horiz-adv-x="821" 
d="M28 556h95l83 -322l16 -77.5t17 -77.5h5l17.5 78t20.5 77l86 322h91l87 -322l19 -77.5t20 -77.5h4q9 39 17 77.5t18 77.5l82 322h88l-150 -556h-113l-80 300q-12 39 -20 78t-18 82h-5l-18.5 -82.5t-19.5 -79.5l-78 -298h-110z" />
    <glyph glyph-name="x" unicode="x" horiz-adv-x="510" 
d="M199 290l-169 266h100l75 -123l27 -45.5l28 -46.5h4l26 46.5l24 45.5l69 123h97l-169 -275l184 -281h-103l-82 130q-14 26 -29 51l-30 48h-5q-15 -23 -29 -48l-29 -51l-74 -130h-99z" />
    <glyph glyph-name="y" unicode="y" horiz-adv-x="534" 
d="M103 -240q-37 0 -65 12l18 74q9 -3 20 -6t22 -3q48 0 78.5 34t47.5 86l13 42l-224 557h98l113 -309l26.5 -77t27.5 -79h5l23 78.5l24 77.5l99 309h91l-210 -602q-14 -41 -33 -76.5t-43.5 -61.5t-57 -41t-73.5 -15z" />
    <glyph glyph-name="z" unicode="z" horiz-adv-x="485" 
d="M36 50l293 430h-261v76h378v-50l-292 -430h303v-76h-421v50z" />
    <glyph glyph-name="braceleft" unicode="{" horiz-adv-x="346" 
d="M261 -117q-34 0 -59.5 7.5t-42 24.5t-24.5 46.5t-8 74.5q0 31 1.5 58.5t3.5 53.5t3.5 52.5t1.5 55.5q0 16 -4.5 32.5t-15.5 29t-30 20.5t-48 8v58q29 0 48 8.5t30 20.5t15.5 28t4.5 33q0 28 -1.5 54.5t-3.5 53.5t-3.5 54.5t-1.5 58.5q0 44 8 73.5t24.5 47t42 24.5t59.5 7
h50v-52h-29q-46 0 -62 -25t-16 -80q0 -53 3 -101t3 -107q0 -56 -15.5 -85t-53.5 -39v-4q38 -12 53.5 -41t15.5 -84q0 -59 -3 -107.5t-3 -100.5q0 -55 16 -79.5t62 -24.5h29v-54h-50z" />
    <glyph glyph-name="bar" unicode="|" horiz-adv-x="275" 
d="M105 867h66v-1005h-66v1005z" />
    <glyph glyph-name="braceright" unicode="}" horiz-adv-x="346" 
d="M36 -117v54h30q46 0 61.5 24.5t15.5 79.5q0 52 -3 100.5t-3 107.5q0 55 15.5 84t53.5 41v4q-38 10 -53.5 39t-15.5 85q0 59 3 107t3 101q0 55 -15.5 80t-61.5 25h-30v52h50q34 0 59.5 -7t42 -24.5t24.5 -47t8 -73.5q0 -31 -1.5 -58.5t-3.5 -54.5t-3.5 -53.5t-1.5 -54.5
q0 -17 4.5 -33t15.5 -28t30.5 -20.5t47.5 -8.5v-58q-28 0 -47.5 -8t-30.5 -20.5t-15.5 -29t-4.5 -32.5q0 -29 1.5 -55.5t3.5 -52.5t3.5 -53.5t1.5 -58.5q0 -45 -8 -74.5t-24.5 -46.5t-42 -24.5t-59.5 -7.5h-50z" />
    <glyph glyph-name="asciitilde" unicode="~" horiz-adv-x="568" 
d="M385 294q-34 0 -61 15.5t-50.5 33l-45.5 33t-47 15.5q-24 0 -45.5 -16.5t-42.5 -52.5l-52 36q32 55 68.5 79t74.5 24q34 0 60.5 -15t50 -33.5t45.5 -33t47 -14.5t46.5 16t40.5 53l53 -38q-31 -54 -68 -78t-74 -24z" />
    <glyph glyph-name="section" unicode="&#xa7;" 
d="M711 749l-26 -64q-69 45 -165 45q-56 0 -91.5 -27.5t-35.5 -61.5q0 -42 39 -65t120 -45q98 -26 148 -66.5t50 -107.5q0 -88 -68 -144q17 -13 30 -41t13 -60q0 -79 -66 -128.5t-163 -49.5q-125 0 -192 52l29 62q63 -50 165 -50q65 0 104 29.5t39 74.5q0 41 -34 67t-127 54
q-108 32 -157.5 71.5t-49.5 106.5q0 32 20 69t59 66q-19 14 -30.5 40.5t-10.5 52.5q0 71 60 118.5t159 47.5q103 0 181 -46zM400 504q-50 -41 -50 -90q0 -34 27 -59t112 -53q120 -40 144 -55q40 35 40 92q0 31 -19.5 54t-52.5 37.5t-67 25.5l-73 23.5t-61 24.5z" />
    <glyph glyph-name="dieresis" unicode="&#xa8;" horiz-adv-x="620" 
d="M201 672q-25 0 -41.5 16.5t-16.5 39.5q0 25 16.5 41t41.5 16t40.5 -16t15.5 -41q0 -24 -16 -40t-40 -16zM364 728q0 25 15.5 41t40.5 16t40.5 -16t15.5 -41q0 -24 -16 -40t-40 -16t-40 16t-16 40z" />
    <glyph glyph-name="degree" unicode="&#xb0;" horiz-adv-x="378" 
d="M189 492q-59 0 -101 40.5t-42 104.5q0 65 42 105.5t101 40.5q60 0 102 -40.5t42 -105.5q0 -64 -42 -104.5t-102 -40.5zM127 570q24 -26 62 -26t62 26t24 67t-24 67.5t-62 26.5t-62 -26.5t-24 -67.5t24 -67z" />
    <glyph glyph-name="plusminus" unicode="&#xb1;" 
d="M884 543v-71h-337v-282h-70v282h-337v71h337v280h70v-280h337zM140 89h748v-71h-748v71z" />
    <glyph glyph-name="acute" unicode="&#xb4;" horiz-adv-x="620" 
d="M294 656l-48 46l162 191l65 -63z" />
    <glyph glyph-name="paragraph" unicode="&#xb6;" 
d="M488 -58v359h-9q-84 0 -157 59t-74 164q-1 39 7.5 73.5t31 69t58 59.5t93.5 40.5t133 15.5q95 0 136 -9v-831h-66v776h-87v-776h-66z" />
    <glyph glyph-name="Aring" unicode="&#xc5;" horiz-adv-x="621" 
d="M309 966q-25 0 -42 -17.5t-17 -45.5q0 -29 16.5 -45.5t42.5 -16.5q25 0 42 16.5t17 45.5q0 28 -17.5 45.5t-41.5 17.5zM309 800q-49 0 -79.5 28.5t-30.5 74.5q0 47 30.5 75.5t79.5 28.5q47 0 79 -29t32 -75t-32 -74.5t-79 -28.5zM196 305h227l-36 115q-24 72 -76 254h-4
q-35 -126 -75 -254zM518 0l-72 229h-274l-73 -229h-96l255 751h106l254 -751h-100z" />
    <glyph glyph-name="multiply" unicode="&#xd7;" 
d="M842 104l-49 -49l-281 281l-280 -281l-50 49l281 281l-281 280l50 50l280 -281l281 281l49 -49l-280 -281z" />
    <glyph glyph-name="divide" unicode="&#xf7;" 
d="M438 645q0 31 21.5 53t52.5 22t52.5 -22t21.5 -53q0 -30 -21.5 -52t-52.5 -22t-52.5 22t-21.5 52zM140 420h744v-71h-744v71zM438 124q0 30 21.5 52t52.5 22t52.5 -22t21.5 -52q0 -31 -21.5 -53t-52.5 -22t-52.5 22t-21.5 53z" />
    <glyph glyph-name="Alpha" unicode="&#x391;" horiz-adv-x="621" 
d="M196 305h227l-36 115q-24 72 -76 254h-4q-35 -126 -75 -254zM518 0l-72 229h-274l-73 -229h-96l255 751h106l254 -751h-100z" />
    <glyph glyph-name="Beta" unicode="&#x392;" horiz-adv-x="672" 
d="M102 0v751h224q121 0 189.5 -44.5t68.5 -139.5q0 -57 -29.5 -101.5t-81.5 -61.5v-5q70 -13 112 -59t42 -120q0 -107 -77.5 -163.5t-207.5 -56.5h-240zM198 431h111q181 0 181 124q0 65 -43.5 93t-133.5 28h-115v-245zM198 76h131q205 0 205 147q0 135 -205 135h-131v-282
z" />
    <glyph glyph-name="Gamma" unicode="&#x393;" horiz-adv-x="570" 
d="M102 0v751h434v-80h-338v-671h-96z" />
    <glyph glyph-name="Delta" unicode="&#x394;" horiz-adv-x="672" 
d="M34 0v56l249 695h107l248 -695v-56h-604zM136 81h398l-118 343l-78 243h-5l-79 -243z" />
    <glyph glyph-name="Epsilon" unicode="&#x395;" horiz-adv-x="602" 
d="M102 0v751h434v-80h-338v-236h284v-81h-284v-273h349v-81h-445z" />
    <glyph glyph-name="Zeta" unicode="&#x396;" horiz-adv-x="617" 
d="M51 0v56l396 615h-360v80h477v-56l-396 -614h400v-81h-517z" />
    <glyph glyph-name="Eta" unicode="&#x397;" horiz-adv-x="745" 
d="M102 0v751h96v-315h350v315h94v-751h-94v354h-350v-354h-96z" />
    <glyph glyph-name="Theta" unicode="&#x398;" horiz-adv-x="759" 
d="M251 354v82h258v-82h-258zM59 378q0 178 89 282.5t232 104.5t231.5 -104.5t88.5 -282.5q0 -179 -88.5 -285t-231.5 -106t-232 106t-89 285zM380 682q-102 0 -162.5 -82t-60.5 -222t61 -224t162 -84t162 84t61 224t-61 222t-162 82z" />
    <glyph glyph-name="Iota" unicode="&#x399;" horiz-adv-x="300" 
d="M102 0v751h96v-751h-96z" />
    <glyph glyph-name="Kappa" unicode="&#x39a;" horiz-adv-x="661" 
d="M102 0v751h96v-377h3l313 377h107l-235 -286l271 -465h-106l-224 391l-129 -153v-238h-96z" />
    <glyph glyph-name="Lambda" unicode="&#x39b;" horiz-adv-x="588" 
d="M1 0l238 751h109l241 -751h-101l-121 408q-10 32 -33.5 114.5t-39.5 131.5h-4q-18 -56 -72 -246l-122 -408h-95z" />
    <glyph glyph-name="Mu" unicode="&#x39c;" horiz-adv-x="831" 
d="M102 0v751h115l144 -402l54 -156h5l51 156l143 402h115v-751h-89v416q0 63 12 221h-4l-59 -171l-143 -390h-63l-142 390l-60 171h-4q11 -181 11 -221v-416h-86z" />
    <glyph glyph-name="Nu" unicode="&#x39d;" horiz-adv-x="739" 
d="M102 0v751h99l273 -473l80 -155h5q-12 182 -12 237v391h90v-751h-97l-274 474l-81 155h-4q1 -24 4.5 -72.5t5.5 -88t2 -74.5v-394h-91z" />
    <glyph glyph-name="Xi" unicode="&#x39e;" horiz-adv-x="609" 
d="M56 0v81h498v-81h-498zM142 354v81h326v-81h-326zM68 671v80h474v-80h-474z" />
    <glyph glyph-name="Omicron" unicode="&#x39f;" horiz-adv-x="759" 
d="M59 378q0 178 89 282.5t232 104.5t231.5 -104.5t88.5 -282.5q0 -179 -88.5 -285t-231.5 -106t-232 106t-89 285zM380 682q-102 0 -162.5 -82t-60.5 -222t61 -224t162 -84t162 84t61 224t-61 222t-162 82z" />
    <glyph glyph-name="Pi" unicode="&#x3a0;" horiz-adv-x="737" 
d="M102 0v751h533v-751h-94v671h-343v-671h-96z" />
    <glyph glyph-name="Rho" unicode="&#x3a1;" horiz-adv-x="647" 
d="M102 0v751h214q282 0 282 -221q0 -115 -74 -173.5t-202 -58.5h-124v-298h-96zM198 375h111q100 0 147.5 37.5t47.5 117.5q0 79 -48 111.5t-151 32.5h-107v-299z" />
    <glyph glyph-name="Sigma" unicode="&#x3a3;" horiz-adv-x="615" 
d="M50 0v56l259 325l-254 314v56h485v-80h-365l231 -288l-236 -302h403v-81h-523z" />
    <glyph glyph-name="Tau" unicode="&#x3a4;" horiz-adv-x="613" 
d="M259 0v671h-227v80h550v-80h-228v-671h-95z" />
    <glyph glyph-name="Upsilon" unicode="&#x3a5;" horiz-adv-x="543" 
d="M224 0v292l-225 459h101l97 -212l33 -75l40 -89h4q48 100 75 164l97 212h99l-226 -459v-292h-95z" />
    <glyph glyph-name="Phi" unicode="&#x3a6;" horiz-adv-x="822" 
d="M454 597v-440q102 5 161.5 65t59.5 156t-59.5 154.5t-161.5 64.5zM369 157v440q-102 -6 -162.5 -64.5t-60.5 -154.5q0 -95 60.5 -155.5t162.5 -65.5zM454 776v-106q144 -6 229 -83t85 -209q0 -131 -85.5 -210t-228.5 -85v-108h-85v108q-143 6 -228.5 85t-85.5 210
q0 132 85 209t229 83v106h85z" />
    <glyph glyph-name="Chi" unicode="&#x3a7;" horiz-adv-x="586" 
d="M17 0l220 388l-205 363h104l103 -192l17 -32.5l21 -39l21 -37.5h4l53 109l101 192h99l-205 -368l219 -383h-104l-111 203q-39 77 -64 121h-4l-61 -121l-108 -203h-100z" />
    <glyph glyph-name="Psi" unicode="&#x3a8;" horiz-adv-x="798" 
d="M633 751h93v-185q0 -274 -282 -285v-281h-90v281q-281 11 -281 285v185h92v-180q0 -107 47 -158.5t142 -56.5v395h90v-395q95 5 142 56.5t47 158.5v180z" />
    <glyph glyph-name="Omega" unicode="&#x3a9;" horiz-adv-x="776" 
d="M52 0v78h150v4q-134 130 -134 320q0 160 87.5 261.5t232.5 101.5t233 -102t88 -261q0 -189 -135 -320v-4h150v-78h-266v69q153 121 153 327q0 125 -60 205.5t-163 80.5t-163 -80.5t-60 -205.5q0 -207 153 -327v-69h-266z" />
    <glyph glyph-name="alpha" unicode="&#x3b1;" horiz-adv-x="640" 
d="M267 -13q-98 0 -156.5 73.5t-58.5 207.5q0 137 71.5 219.5t172.5 82.5q57 0 103 -35.5t69 -110.5h3l24 132h92q-70 -341 -70 -434q0 -27 15.5 -42t39.5 -15q19 0 38 7l15 -71q-32 -14 -72 -14q-52 0 -81.5 27.5t-28.5 84.5h-4q-63 -112 -172 -112zM286 65q56 0 101 51.5
t51 121.5l8 105q-38 149 -140 149q-64 0 -110 -59.5t-46 -163.5q0 -97 35.5 -150.5t100.5 -53.5z" />
    <glyph glyph-name="beta" unicode="&#x3b2;" horiz-adv-x="646" 
d="M91 -204v766q0 120 57.5 193t170.5 73q87 0 148 -51t61 -145q0 -124 -111 -191v-5q83 -11 131 -69t48 -146q0 -108 -64 -171t-154 -63q-123 0 -199 85q0 -6 6 -276h-94zM356 65q63 0 105 43.5t42 117.5q0 70 -40.5 113.5t-116.5 43.5q-26 0 -57 -7l-15 71q83 17 123 66.5
t40 111.5t-33.5 95.5t-82.5 33.5q-65 0 -101.5 -53t-37.5 -152q-3 -198 -3 -397q68 -87 177 -87z" />
    <glyph glyph-name="gamma" unicode="&#x3b3;" horiz-adv-x="552" 
d="M322 -204h-97q4 50 4 137q0 135 -67.5 317t-154.5 296l93 24q55 -76 108 -205t77 -255h5q131 255 146 446h94q-23 -142 -71.5 -264t-149.5 -287q13 -97 13 -209z" />
    <glyph glyph-name="delta" unicode="&#x3b4;" horiz-adv-x="608" 
d="M310 65q74 0 112.5 49t38.5 136q0 64 -32 111t-90 92q-89 -21 -138.5 -76t-49.5 -135t46.5 -128.5t112.5 -48.5zM542 783l-24 -73q-131 47 -217 47q-46 0 -69 -17t-23 -42q0 -13 4 -25t14 -24l19 -22t27 -24.5l30 -23.5l35.5 -26l37.5 -27q56 -41 90 -73.5t60.5 -85.5
t26.5 -116q0 -120 -65 -192t-180 -72q-101 0 -175 69.5t-74 183.5q0 96 59.5 163t155.5 97q-73 51 -113.5 98t-40.5 105q0 54 46.5 89.5t136.5 35.5q105 0 239 -45z" />
    <glyph glyph-name="epsilon" unicode="&#x3b5;" horiz-adv-x="513" 
d="M288 -13q-104 0 -170 45.5t-66 121.5q0 56 32.5 90.5t83.5 47.5v5q-41 15 -64.5 49t-23.5 75q0 72 60.5 110.5t151.5 38.5q97 0 180 -61l-38 -63q-67 50 -139 50q-54 0 -88 -23t-34 -64q0 -40 31.5 -63t96.5 -23q29 0 69 3v-73q-48 3 -86 3q-138 0 -138 -95q0 -46 40 -73
t111 -27q82 0 153 57l39 -63q-89 -68 -201 -68z" />
    <glyph glyph-name="zeta" unicode="&#x3b6;" horiz-adv-x="484" 
d="M412 -211l-75 31q33 41 44 60t11 41q0 26 -25 40t-103 30q-46 9 -80.5 25.5t-65 46t-47 77.5t-16.5 114q0 120 95.5 261t213.5 230q-228 -4 -274 -6v76h377v-76h-5q-114 -81 -212 -225t-98 -255q0 -93 41.5 -135.5t124.5 -57.5q85 -16 121.5 -42t36.5 -81q0 -64 -64 -154
z" />
    <glyph glyph-name="eta" unicode="&#x3b7;" horiz-adv-x="618" 
d="M532 -204h-94q6 272 6 544q0 79 -21 113.5t-70 34.5q-46 0 -83 -27t-83 -97v-364h-93v403q0 87 -8 153h85l8 -117h3q44 67 91.5 99t107.5 32q151 0 151 -218v-556z" />
    <glyph glyph-name="theta" unicode="&#x3b8;" horiz-adv-x="596" 
d="M437 379h-277q7 -314 139 -314q131 0 138 314zM160 445h277q-4 156 -41 231.5t-97 75.5q-61 0 -98 -75.5t-41 -231.5zM299 828q108 0 169 -108t61 -309q0 -215 -60 -319.5t-170 -104.5t-170 104.5t-60 319.5q0 202 60.5 309.5t169.5 107.5z" />
    <glyph glyph-name="iota" unicode="&#x3b9;" horiz-adv-x="299" 
d="M200 -13q-56 0 -81 32.5t-25 96.5v440h94q-1 -43 -4 -206t-3 -241q0 -44 39 -44q16 0 34 6l13 -71q-26 -13 -67 -13z" />
    <glyph glyph-name="kappa" unicode="&#x3ba;" horiz-adv-x="564" 
d="M568 0l-103 -9q-102 119 -185 282q-2 -3 -22.5 -28t-30.5 -40q-44 -59 -46 -176v-29h-87v403q0 99 -10 153h92q10 -43 10 -130v-174h4q70 122 158 209t174 109l8 -89q-89 -28 -193 -141q100 -199 231 -340z" />
    <glyph glyph-name="lambda" unicode="&#x3bb;" horiz-adv-x="565" 
d="M118 -9l-100 9l242 569l-6 23q-25 80 -56 119t-77 39q-34 0 -72 -19l-23 78q47 19 105 19q80 0 128 -57t87 -183l211 -588h-99l-154 462h-4z" />
    <glyph glyph-name="mu" unicode="&#x3bc;" horiz-adv-x="643" 
d="M94 -204v760h93v-341q0 -74 24.5 -110.5t78.5 -36.5q43 0 77 22t70 85v381h94q-1 -51 -2.5 -145t-2.5 -168.5t-1 -133.5q0 -44 41 -44q14 0 33 6l12 -71q-26 -13 -65 -13q-47 0 -71.5 25.5t-29.5 81.5h-2q-60 -105 -155 -105q-75 0 -108 53q1 -150 8 -246h-94z" />
    <glyph glyph-name="nu" unicode="&#x3bd;" horiz-adv-x="540" 
d="M313 0h-92q-31 154 -87 297.5t-127 248.5l93 24q55 -86 105.5 -221t75.5 -254h5q121 255 139 461h94q-42 -272 -206 -556z" />
    <glyph glyph-name="xi" unicode="&#x3be;" horiz-adv-x="492" 
d="M420 -211l-75 31q33 41 44 60t11 41q0 26 -26.5 40.5t-101.5 29.5q-102 21 -159.5 70.5t-57.5 150.5q0 79 50 140t122 82v4q-53 23 -84.5 65t-31.5 101q0 95 83 141q-81 -1 -161 -6v76h442v-76h-130q-58 0 -98.5 -37t-40.5 -100q0 -59 44 -100t97 -41q40 0 75 7v-79
q-36 6 -80 6q-76 0 -132.5 -46.5t-56.5 -124.5q0 -40 12.5 -68.5t39 -45.5t55 -26.5t71.5 -17.5q86 -15 119.5 -41t33.5 -82q0 -64 -64 -154z" />
    <glyph glyph-name="omicron" unicode="&#x3bf;" horiz-adv-x="611" 
d="M52 278q0 135 73 213.5t181 78.5t180.5 -78.5t72.5 -213.5q0 -134 -72.5 -212.5t-180.5 -78.5t-181 78.5t-73 212.5zM191 123q41 -58 115 -58t115.5 57.5t41.5 155.5t-42 156.5t-115 58.5t-114.5 -58.5t-41.5 -156.5t41 -155z" />
    <glyph glyph-name="pi" unicode="&#x3c0;" horiz-adv-x="669" 
d="M554 -13q-63 0 -92 34.5t-29 103.5q0 27 2.5 158t3.5 196h-197q0 -143 -33 -484l-94 5q39 245 39 479h-128v72l79 5h537v-77h-113q-8 -145 -8 -360q0 -54 52 -54q8 0 45 5l13 -71q-33 -12 -77 -12z" />
    <glyph glyph-name="rho" unicode="&#x3c1;" horiz-adv-x="627" 
d="M89 -204v489q0 137 69.5 211t176.5 74q115 0 177 -75t62 -208q0 -136 -68 -218t-161 -82q-100 0 -168 79q5 -164 6 -270h-94zM329 65q64 0 106.5 60t42.5 161q0 96 -36 151t-111 55q-65 0 -109 -54.5t-44 -154.5v-143q63 -75 151 -75z" />
    <glyph glyph-name="sigma" unicode="&#x3c3;" horiz-adv-x="624" 
d="M52 271q0 139 73.5 212t180.5 73h304v-80q-95 8 -175 9v-4q110 -62 110 -221q0 -126 -69 -199.5t-174 -73.5t-177.5 76t-72.5 208zM303 65q67 0 109 55t42 147q0 88 -40.5 149.5t-109.5 61.5t-111.5 -53t-42.5 -154q0 -94 42.5 -150t110.5 -56z" />
    <glyph glyph-name="tau" unicode="&#x3c4;" horiz-adv-x="525" 
d="M330 -13q-61 0 -87.5 34t-26.5 104v355h-186v71l80 5h387v-76h-190q-3 -126 -3 -361q0 -54 46 -54q25 0 54 8l15 -72q-46 -14 -89 -14z" />
    <glyph glyph-name="upsilon" unicode="&#x3c5;" horiz-adv-x="582" 
d="M285 -13q-101 0 -156 55.5t-55 164.5q0 33 2 98t2 98q0 95 -9 153h91q8 -45 8 -130q0 -30 -3.5 -110t-3.5 -115q0 -70 35 -103t90 -33q64 0 102 52.5t38 156.5q0 145 -46 274l91 22q49 -144 49 -292q0 -138 -64 -214.5t-171 -76.5z" />
    <glyph glyph-name="phi" unicode="&#x3c6;" horiz-adv-x="777" 
d="M432 495v-434q84 3 140.5 62t56.5 156q0 98 -54.5 155.5t-142.5 60.5zM345 61v434q-84 -3 -139.5 -61.5t-55.5 -154.5q0 -97 55.5 -156t139.5 -62zM432 712v-145q124 -5 208.5 -81.5t84.5 -206.5t-86 -207.5t-207 -81.5v-194h-87v194q-121 4 -207 82t-86 207t86 206
t207 82v145h87z" />
    <glyph glyph-name="chi" unicode="&#x3c7;" horiz-adv-x="549" 
d="M105 -218l-95 14l221 391l-217 359l92 24l169 -299h5l144 285h98l-197 -368l233 -383l-91 -23l-187 328h-5z" />
    <glyph glyph-name="psi" unicode="&#x3c8;" horiz-adv-x="787" 
d="M583 548l91 22q49 -135 49 -266q0 -149 -76 -231.5t-213 -85.5v-191h-86v191q-136 1 -203 73t-67 195v148q0 87 -8 153h91q7 -46 7 -130q0 -33 -1 -97.5t-1 -79.5q0 -86 46 -136t136 -51v650h86v-650q195 6 195 240q0 117 -46 246z" />
    <glyph glyph-name="omega" unicode="&#x3c9;" horiz-adv-x="800" 
d="M252 -13q-87 0 -140.5 71t-53.5 204q0 152 104 308l84 -39q-51 -73 -75 -138t-24 -148q0 -85 30.5 -132.5t78.5 -47.5q44 0 72.5 33t28.5 105q0 65 -10 149h104q-10 -98 -10 -149q0 -138 100 -138q49 0 78 49.5t29 145.5q0 83 -20.5 142t-69.5 133l85 35
q49 -74 74 -144.5t25 -160.5q0 -136 -50.5 -207t-138.5 -71q-50 0 -90.5 25t-61.5 75h-4q-40 -100 -145 -100z" />
    <glyph glyph-name="afii10023" unicode="&#x401;" horiz-adv-x="602" 
d="M102 0v751h434v-80h-338v-236h284v-81h-284v-273h349v-81h-445zM264 874q0 -24 -16 -39.5t-40 -15.5t-39.5 15t-15.5 40t15.5 40.5t39.5 15.5t40 -15.5t16 -40.5zM443 819q-25 0 -40.5 15t-15.5 40t15.5 40.5t40.5 15.5q24 0 40 -15.5t16 -40.5q0 -24 -16 -39.5
t-40 -15.5z" />
    <glyph glyph-name="afii10017" unicode="&#x410;" horiz-adv-x="621" 
d="M196 305h227l-36 115q-24 72 -76 254h-4q-35 -126 -75 -254zM518 0l-72 229h-274l-73 -229h-96l255 751h106l254 -751h-100z" />
    <glyph glyph-name="afii10018" unicode="&#x411;" horiz-adv-x="663" 
d="M102 0v751h464v-80h-368v-236h144q128 0 201 -50t73 -158q0 -114 -71 -170.5t-199 -56.5h-244zM198 76h133q97 0 144.5 36t47.5 113q0 71 -48.5 104t-146.5 33h-130v-286z" />
    <glyph glyph-name="afii10019" unicode="&#x412;" horiz-adv-x="672" 
d="M102 0v751h224q121 0 189.5 -44.5t68.5 -139.5q0 -57 -29.5 -101.5t-81.5 -61.5v-5q70 -13 112 -59t42 -120q0 -107 -77.5 -163.5t-207.5 -56.5h-240zM198 431h111q181 0 181 124q0 65 -43.5 93t-133.5 28h-115v-245zM198 76h131q205 0 205 147q0 135 -205 135h-131v-282
z" />
    <glyph glyph-name="afii10020" unicode="&#x413;" horiz-adv-x="570" 
d="M102 0v751h434v-80h-338v-671h-96z" />
    <glyph glyph-name="afii10021" unicode="&#x414;" horiz-adv-x="729" 
d="M522 671h-212q-11 -63 -27 -167.5t-28 -168.5q-37 -187 -84 -254h351v590zM616 81h84v-57l-11 -239h-83v215h-483v-215h-83l-10 239v57h35q57 22 104 269q24 129 68 401h379v-670z" />
    <glyph glyph-name="afii10022" unicode="&#x415;" horiz-adv-x="602" 
d="M102 0v751h434v-80h-338v-236h284v-81h-284v-273h349v-81h-445z" />
    <glyph glyph-name="afii10024" unicode="&#x416;" horiz-adv-x="919" 
d="M684 400l228 -400h-103l-196 356h-108v-356h-90v356h-108l-195 -356h-105l230 400l-80 179q-27 58 -49 76.5t-50 18.5q-16 0 -27 -5l-16 89q14 7 41 7q54 0 92 -28.5t77 -110.5l87 -192h103v317h90v-317h102l88 192q39 82 77 110.5t92 28.5q26 0 41 -7l-16 -89
q-10 5 -27 5q-29 0 -50 -18t-48 -77z" />
    <glyph glyph-name="afii10025" unicode="&#x417;" horiz-adv-x="633" 
d="M317 -13q-161 0 -269 108l53 66q50 -50 99.5 -70.5t116.5 -20.5q76 0 127 39t51 108q0 141 -203 141h-85v73h61q188 0 188 130q0 58 -41 89.5t-107 31.5q-100 0 -176 -71l-50 64q41 41 101 65.5t127 24.5q107 0 173 -51.5t66 -140.5q0 -61 -29.5 -106t-82.5 -64v-5
q67 -13 109 -62t42 -123q0 -105 -77 -165.5t-194 -60.5z" />
    <glyph glyph-name="afii10026" unicode="&#x418;" horiz-adv-x="750" 
d="M102 0v751h95v-391q0 -39 -13 -237h5l81 152l278 476h100v-751h-94v394q0 53 12 235h-5l-81 -153l-277 -476h-101z" />
    <glyph glyph-name="afii10027" unicode="&#x419;" horiz-adv-x="750" 
d="M102 0v751h95v-391q0 -39 -13 -237h5l81 152l278 476h100v-751h-94v394q0 53 12 235h-5l-81 -153l-277 -476h-101zM380 812q-88 0 -128.5 42t-44.5 108h82q6 -98 91 -98q87 0 91 98h81q-10 -150 -172 -150z" />
    <glyph glyph-name="afii10028" unicode="&#x41a;" horiz-adv-x="663" 
d="M403 400l257 -400h-102l-231 356h-129v-356h-96v751h96v-317h130l105 192q44 82 80 110.5t88 28.5q27 0 42 -7l-16 -89q-11 5 -27 5q-27 0 -47 -18t-52 -77z" />
    <glyph glyph-name="afii10029" unicode="&#x41b;" horiz-adv-x="720" 
d="M65 -13q-40 0 -65 10l19 87q15 -7 33 -7q22 0 37 12.5t33 58.5t35 131q2 12 86 472h374v-751h-94v671h-206q-14 -72 -36.5 -206t-34.5 -197q-21 -113 -47 -175t-56.5 -84t-77.5 -22z" />
    <glyph glyph-name="afii10030" unicode="&#x41c;" horiz-adv-x="831" 
d="M102 0v751h115l144 -402l54 -156h5l51 156l143 402h115v-751h-89v416q0 63 12 221h-4l-59 -171l-143 -390h-63l-142 390l-60 171h-4q11 -181 11 -221v-416h-86z" />
    <glyph glyph-name="afii10031" unicode="&#x41d;" horiz-adv-x="745" 
d="M102 0v751h96v-315h350v315h94v-751h-94v354h-350v-354h-96z" />
    <glyph glyph-name="afii10032" unicode="&#x41e;" horiz-adv-x="759" 
d="M59 378q0 178 89 282.5t232 104.5t231.5 -104.5t88.5 -282.5q0 -179 -88.5 -285t-231.5 -106t-232 106t-89 285zM380 682q-102 0 -162.5 -82t-60.5 -222t61 -224t162 -84t162 84t61 224t-61 222t-162 82z" />
    <glyph glyph-name="afii10033" unicode="&#x41f;" horiz-adv-x="737" 
d="M102 0v751h533v-751h-94v671h-343v-671h-96z" />
    <glyph glyph-name="afii10034" unicode="&#x420;" horiz-adv-x="647" 
d="M102 0v751h214q282 0 282 -221q0 -115 -74 -173.5t-202 -58.5h-124v-298h-96zM198 375h111q100 0 147.5 37.5t47.5 117.5q0 79 -48 111.5t-151 32.5h-107v-299z" />
    <glyph glyph-name="afii10035" unicode="&#x421;" horiz-adv-x="653" 
d="M386 -13q-143 0 -235 104.5t-92 283.5t93.5 284.5t239.5 105.5q123 0 206 -93l-51 -62q-67 72 -154 72q-107 0 -171.5 -82t-64.5 -222q0 -142 63 -225t170 -83q96 0 174 84l52 -60q-91 -107 -230 -107z" />
    <glyph glyph-name="afii10036" unicode="&#x422;" horiz-adv-x="613" 
d="M259 0v671h-227v80h550v-80h-228v-671h-95z" />
    <glyph glyph-name="afii10037" unicode="&#x423;" horiz-adv-x="587" 
d="M155 -13q-44 0 -74 11l20 85q19 -8 47 -8q70 0 98 61l16 40l-256 575h99l142 -335l57 -148h4l53 148l129 335h98l-247 -615q-30 -74 -74 -111.5t-112 -37.5z" />
    <glyph glyph-name="afii10038" unicode="&#x424;" horiz-adv-x="836" 
d="M460 585v-418q112 3 172 58t60 153q0 97 -59.5 150.5t-172.5 56.5zM377 167v418q-113 -3 -173 -56.5t-60 -150.5t60.5 -152.5t172.5 -58.5zM460 765v-108q154 -5 239 -76.5t85 -202.5t-85.5 -205t-238.5 -79v-107h-83v107q-153 5 -238.5 79t-85.5 205t85 202.5t239 76.5
v108h83z" />
    <glyph glyph-name="afii10039" unicode="&#x425;" horiz-adv-x="586" 
d="M17 0l220 388l-205 363h104l103 -192l17 -32.5l21 -39l21 -37.5h4l53 109l101 192h99l-205 -368l219 -383h-104l-111 203q-39 77 -64 121h-4l-61 -121l-108 -203h-100z" />
    <glyph glyph-name="afii10040" unicode="&#x426;" horiz-adv-x="734" 
d="M622 81h83v-57l-10 -239h-84v215h-509v751h96v-670h328v670h96v-670z" />
    <glyph glyph-name="afii10041" unicode="&#x427;" horiz-adv-x="683" 
d="M486 0v337q-68 -11 -137 -11q-133 0 -202.5 56.5t-69.5 186.5v182h92v-182q0 -91 46.5 -128.5t142.5 -37.5q66 0 128 12v336h95v-751h-95z" />
    <glyph glyph-name="afii10042" unicode="&#x428;" horiz-adv-x="989" 
d="M102 0v751h94v-670h253v670h92v-670h253v670h92v-751h-784z" />
    <glyph glyph-name="afii10043" unicode="&#x429;" horiz-adv-x="999" 
d="M886 81h84v-57l-11 -239h-82v215h-775v751h94v-670h253v670h92v-670h253v670h92v-670z" />
    <glyph glyph-name="afii10044" unicode="&#x42a;" horiz-adv-x="823" 
d="M273 0v671h-241v80h336v-308h124q127 0 204 -53.5t77 -159.5q0 -116 -72 -173t-202 -57h-226zM368 77h119q193 0 193 151q0 139 -201 139h-111v-290z" />
    <glyph glyph-name="afii10045" unicode="&#x42b;" horiz-adv-x="912" 
d="M102 0v751h96v-308h116q130 0 204 -52t74 -161q0 -116 -73 -173t-204 -57h-213zM198 77h106q195 0 195 151q0 139 -198 139h-103v-290zM715 0v751h94v-751h-94z" />
    <glyph glyph-name="afii10046" unicode="&#x42c;" horiz-adv-x="663" 
d="M102 0v751h96v-308h138q130 0 203 -52t73 -161q0 -116 -72.5 -173t-202.5 -57h-235zM198 77h127q195 0 195 151q0 139 -197 139h-125v-290z" />
    <glyph glyph-name="afii10047" unicode="&#x42d;" horiz-adv-x="653" 
d="M106 610l-52 62q38 39 98.5 66t126.5 27q144 0 229.5 -101.5t85.5 -288.5q0 -185 -87 -286.5t-228 -101.5q-146 0 -242 107l51 60q82 -84 187 -84q101 0 160 72.5t64 211.5h-316v81h315q-10 120 -68 183.5t-156 63.5q-96 0 -168 -72z" />
    <glyph glyph-name="afii10048" unicode="&#x42e;" horiz-adv-x="1038" 
d="M517 154q57 -84 154 -84t154 83.5t57 224.5t-56.5 222.5t-154.5 81.5t-154.5 -81.5t-56.5 -222.5t57 -224zM198 436h170q13 154 94.5 241.5t208.5 87.5q139 0 223.5 -104t84.5 -283t-85 -285t-223 -106q-134 0 -216.5 98.5t-88.5 268.5h-168v-354h-96v751h96v-315z" />
    <glyph glyph-name="afii10049" unicode="&#x42f;" horiz-adv-x="664" 
d="M468 395v279h-127q-91 0 -136 -31t-45 -103q0 -145 181 -145h127zM328 751h234v-751h-94v318h-138l-196 -318h-108l210 329q-78 19 -124 72t-46 139q0 211 262 211z" />
    <glyph glyph-name="afii10065" unicode="&#x430;" horiz-adv-x="577" 
d="M222 -13q-72 0 -117.5 42t-45.5 115q0 90 81.5 139t260.5 69q0 141 -114 141q-79 0 -167 -60l-37 65q111 72 219 72q98 0 145.5 -60.5t47.5 -167.5v-342h-77l-8 67h-3q-96 -80 -185 -80zM249 61q69 0 152 74v156q-136 -17 -193 -50.5t-57 -89.5q0 -45 27 -67.5t71 -22.5z
" />
    <glyph glyph-name="afii10066" unicode="&#x431;" horiz-adv-x="622" 
d="M323 65q65 0 106 58t41 152q0 88 -38.5 138.5t-110.5 50.5q-92 0 -170 -102v-43q0 -123 43.5 -188.5t128.5 -65.5zM524 836l20 -85q-38 -24 -115 -36q-41 -6 -63 -10t-52.5 -11.5t-46 -16t-35.5 -23t-30.5 -32.5t-21.5 -44t-16.5 -60t-8.5 -77q76 96 189 96
q100 0 161.5 -70.5t61.5 -191.5q0 -130 -70 -209t-173 -79q-125 0 -194 91t-69 259q0 111 17 190.5t43.5 127.5t74.5 79t95 45t119 25q67 10 114 32z" />
    <glyph glyph-name="afii10067" unicode="&#x432;" horiz-adv-x="580" 
d="M94 0v556h214q205 0 205 -141q0 -45 -24.5 -75.5t-68.5 -42.5v-5q52 -12 84.5 -44.5t32.5 -87.5q0 -81 -59.5 -120.5t-161.5 -39.5h-222zM186 323h106q129 0 129 84q0 82 -123 82h-112v-166zM186 67h120q138 0 138 98q0 43 -37 67t-107 24h-114v-189z" />
    <glyph glyph-name="afii10068" unicode="&#x433;" horiz-adv-x="470" 
d="M94 0v556h346v-76h-253v-480h-93z" />
    <glyph glyph-name="afii10069" unicode="&#x434;" horiz-adv-x="608" 
d="M230 480l-20 -188q-16 -148 -62 -216h261v404h-179zM503 76h80v-59l-10 -214h-80v197h-380v-197h-81l-9 214v59h26q27 13 45 60.5t33 172.5l30 247h346v-480z" />
    <glyph glyph-name="afii10070" unicode="&#x435;" horiz-adv-x="567" 
d="M318 -13q-114 0 -190 79t-76 212q0 130 75 211t176 81q105 0 163 -70t58 -191q0 -27 -4 -53h-375q4 -89 55 -142t130 -53q75 0 139 44l34 -61q-87 -57 -185 -57zM144 323h298q0 84 -36 128.5t-102 44.5q-61 0 -106.5 -46.5t-53.5 -126.5z" />
    <glyph glyph-name="afii10072" unicode="&#x436;" horiz-adv-x="778" 
d="M588 293l175 -293h-101l-140 251h-91v-251h-84v251h-91l-140 -251h-101l174 293l-44 109q-19 46 -37 61.5t-43 15.5q-7 0 -18 -3l-17 88q18 6 32 6q48 0 83 -26.5t64 -92.5l52 -124h86v229h84v-229h85l53 124q28 66 63 92.5t83 26.5q17 0 33 -6l-17 -88q-11 3 -18 3
q-25 0 -43.5 -15.5t-36.5 -61.5z" />
    <glyph glyph-name="afii10073" unicode="&#x437;" horiz-adv-x="522" 
d="M253 -13q-124 0 -211 70l40 61q69 -57 163 -57q59 0 98.5 27.5t39.5 72.5q0 95 -142 95h-77v67h63q66 0 100 23.5t34 64.5q0 42 -31 63.5t-84 21.5q-82 0 -152 -50l-39 62q86 62 196 62q86 0 144 -38.5t58 -110.5q0 -41 -25 -74t-68 -50v-5q53 -13 85 -47.5t32 -90.5
q0 -75 -65.5 -121t-158.5 -46z" />
    <glyph glyph-name="afii10074" unicode="&#x438;" horiz-adv-x="646" 
d="M94 0v556h91v-232q0 -34 -4 -113.5t-5 -91.5h4q44 68 74 119l211 318h87v-556h-91v232q0 42 9 206h-4l-74 -120l-211 -318h-87z" />
    <glyph glyph-name="afii10075" unicode="&#x439;" horiz-adv-x="646" 
d="M94 0v556h91v-232q0 -34 -4 -113.5t-5 -91.5h4q44 68 74 119l211 318h87v-556h-91v232q0 42 9 206h-4l-74 -120l-211 -318h-87zM147 830h76q5 -119 104 -119q97 0 101 119h77q-3 -75 -46 -124.5t-132 -49.5t-132.5 49.5t-47.5 124.5z" />
    <glyph glyph-name="afii10076" unicode="&#x43a;" horiz-adv-x="569" 
d="M366 293l189 -293h-102l-156 251h-110v-251h-93v556h93v-229h108l55 124q30 69 63.5 94t82.5 25q16 0 32 -6l-16 -88q-9 3 -18 3q-25 0 -43 -15t-38 -62z" />
    <glyph glyph-name="afii10077" unicode="&#x43b;" horiz-adv-x="606" 
d="M62 -13q-25 0 -51 8l19 86q14 -4 24 -4q62 0 75 119l43 360h341v-556h-94v480h-173q-26 -218 -38 -308q-22 -185 -146 -185z" />
    <glyph glyph-name="afii10078" unicode="&#x43c;" horiz-adv-x="723" 
d="M94 0v556h108l109 -261l24.5 -67.5l24.5 -68.5h6q49 130 51 136l106 261h108v-556h-85v251q0 49 10 191h-4q-9 -26 -28.5 -73t-23.5 -58l-106 -259h-62l-108 259q-33 81 -51 131h-5q10 -190 10 -191v-251h-84z" />
    <glyph glyph-name="afii10079" unicode="&#x43d;" horiz-adv-x="643" 
d="M94 0v556h93v-225h269v225h93v-556h-93v248h-269v-248h-93z" />
    <glyph glyph-name="afii10080" unicode="&#x43e;" horiz-adv-x="620" 
d="M493 66q-76 -79 -183 -79t-182.5 79t-75.5 212t75.5 212.5t182.5 79.5t182.5 -79.5t75.5 -212.5t-75 -212zM194 124q44 -59 116 -59t117 58.5t45 154.5t-45 155.5t-117 59.5t-116 -59.5t-44 -155.5t44 -154z" />
    <glyph glyph-name="afii10081" unicode="&#x43f;" horiz-adv-x="632" 
d="M94 0v556h445v-556h-94v480h-258v-480h-93z" />
    <glyph glyph-name="afii10082" unicode="&#x440;" horiz-adv-x="634" 
d="M94 -234v790h77l8 -63h3q94 77 177 77q106 0 164 -76.5t58 -206.5q0 -137 -70.5 -218.5t-171.5 -81.5q-76 0 -154 64l2 -97v-188h-93zM483 286q0 206 -146 206q-67 0 -150 -77v-292q67 -58 137 -58t114.5 59.5t44.5 161.5z" />
    <glyph glyph-name="afii10083" unicode="&#x441;" horiz-adv-x="521" 
d="M313 -13q-114 0 -187.5 78t-73.5 213q0 134 78.5 213t190.5 79q88 0 162 -65l-48 -63q-56 51 -111 51q-76 0 -125 -60t-49 -155q0 -96 47.5 -154.5t124.5 -58.5q71 0 131 55l40 -63q-76 -70 -180 -70z" />
    <glyph glyph-name="afii10084" unicode="&#x442;" horiz-adv-x="525" 
d="M216 0v480h-186v76h467v-76h-188v-480h-93z" />
    <glyph glyph-name="afii10085" unicode="&#x443;" horiz-adv-x="533" 
d="M103 -240q-36 0 -65 12l18 74q25 -9 42 -9q86 0 126 120l13 42l-224 557h98l113 -309l28 -80.5l26 -75.5h5l47 156l99 309h91l-210 -602q-33 -92 -81 -143t-126 -51z" />
    <glyph glyph-name="afii10086" unicode="&#x444;" horiz-adv-x="839" 
d="M374 -234v179l2 83q-55 -41 -112 -41q-96 0 -153 77t-57 214q0 131 61 211.5t149 80.5q52 0 112 -40l-2 81v204h91v-204l-2 -84q62 43 120 43q97 0 149 -76t52 -207q0 -138 -61 -219t-150 -81q-55 0 -110 40l2 -82v-179h-91zM285 65q51 0 91 39v350q-42 38 -95 38
q-56 0 -93 -59.5t-37 -153.5q0 -101 35 -157.5t99 -56.5zM557 65q59 0 95.5 59.5t36.5 161.5q0 97 -31.5 151.5t-97.5 54.5q-52 0 -97 -39v-351q42 -37 94 -37z" />
    <glyph glyph-name="afii10087" unicode="&#x445;" horiz-adv-x="509" 
d="M15 0l184 290l-169 266h100l75 -123l29 -48.5l26 -43.5h4q43 78 50 92l69 123h97l-169 -275l184 -281h-103l-82 130q-16 30 -59 99h-5q-46 -77 -58 -99l-74 -130h-99z" />
    <glyph glyph-name="afii10088" unicode="&#x446;" horiz-adv-x="633" 
d="M530 76h81v-59l-9 -214h-80v197h-428v556h93v-480h250v480h93v-480z" />
    <glyph glyph-name="afii10089" unicode="&#x447;" horiz-adv-x="585" 
d="M398 0v222q-58 -12 -109 -12q-220 0 -220 193v153h92v-153q0 -62 35 -89t112 -27q44 0 90 10v259h94v-556h-94z" />
    <glyph glyph-name="afii10090" unicode="&#x448;" horiz-adv-x="857" 
d="M94 0v556h92v-480h197v480h90v-480h198v480h92v-556h-669z" />
    <glyph glyph-name="afii10091" unicode="&#x449;" horiz-adv-x="865" 
d="M763 76h80v-59l-9 -214h-80v197h-660v556h92v-480h197v480h90v-480h198v480h92v-480z" />
    <glyph glyph-name="afii10092" unicode="&#x44a;" horiz-adv-x="680" 
d="M226 0v480h-196v76h291v-206h92q103 0 162 -42.5t59 -130.5q0 -89 -59 -133t-162 -44h-187zM321 75h82q71 0 105.5 24.5t34.5 77.5t-34.5 77.5t-105.5 24.5h-82v-204z" />
    <glyph glyph-name="afii10093" unicode="&#x44b;" horiz-adv-x="771" 
d="M94 0v556h93v-206h79q103 0 162 -42.5t59 -130.5q0 -89 -59 -133t-162 -44h-172zM187 75h69q71 0 105 24.5t34 77.5t-34 77.5t-105 24.5h-69v-204zM584 0v556h93v-556h-93z" />
    <glyph glyph-name="afii10094" unicode="&#x44c;" horiz-adv-x="561" 
d="M94 0v556h93v-206h106q103 0 161.5 -42.5t58.5 -130.5q0 -89 -58.5 -133t-161.5 -44h-199zM187 75h96q71 0 105 24.5t34 77.5t-34 77.5t-105 24.5h-96v-204z" />
    <glyph glyph-name="afii10095" unicode="&#x44d;" horiz-adv-x="521" 
d="M83 446l-44 57q71 67 176 67q110 0 181.5 -75t71.5 -217t-71 -216.5t-188 -74.5q-109 0 -181 70l38 58q59 -54 135 -54q79 0 126 49.5t51 145.5h-245v67h244q-9 85 -54 129t-113 44q-70 0 -127 -50z" />
    <glyph glyph-name="afii10096" unicode="&#x44e;" horiz-adv-x="843" 
d="M437 124q42 -59 110 -59t108 58t40 155t-40 156t-108 59t-110.5 -59.5t-42.5 -155.5t43 -154zM187 327h122q12 114 78.5 178.5t163.5 64.5q103 0 172 -78.5t69 -213.5q0 -134 -69 -212.5t-172 -78.5q-100 0 -167.5 69t-76.5 189h-120v-245h-93v556h93v-229z" />
    <glyph glyph-name="afii10097" unicode="&#x44f;" horiz-adv-x="587" 
d="M400 288v195h-87q-140 0 -140 -94q0 -49 36.5 -75t103.5 -26h87zM298 556h196v-556h-94v220h-102h-2l-154 -220h-105l170 232q-127 39 -127 159q0 165 218 165z" />
    <glyph glyph-name="afii10071" unicode="&#x451;" horiz-adv-x="567" 
d="M318 -13q-114 0 -190 79t-76 212q0 130 75 211t176 81q105 0 163 -70t58 -191q0 -27 -4 -53h-375q4 -89 55 -142t130 -53q75 0 139 44l34 -61q-87 -57 -185 -57zM144 323h298q0 84 -36 128.5t-102 44.5q-61 0 -106.5 -46.5t-53.5 -126.5zM193 672q-24 0 -40.5 16.5
t-16.5 39.5q0 25 16.5 41t40.5 16q25 0 41 -16t16 -41q0 -24 -16 -40t-41 -16zM413 672q-25 0 -41.5 16.5t-16.5 39.5q0 25 16.5 41t41.5 16q24 0 40 -16t16 -41q0 -23 -16 -39.5t-40 -16.5z" />
    <glyph glyph-name="uni2010" unicode="&#x2010;" 
d="M384 411h256v-43h-256v43z" />
    <glyph glyph-name="afii00208" unicode="&#x2015;" 
d="M74 411h876v-43h-876v43z" />
    <glyph glyph-name="quoteleft" unicode="&#x2018;" horiz-adv-x="284" 
d="M186 797l27 -44q-44 -30 -65 -62.5t-22 -80.5q3 1 10 1q25 0 43 -15t18 -42q0 -29 -16.5 -45.5t-44.5 -16.5q-34 0 -52.5 26.5t-18.5 75.5q0 133 121 203z" />
    <glyph glyph-name="quoteright" unicode="&#x2019;" horiz-adv-x="284" 
d="M98 494l-26 44q44 31 64.5 63t21.5 79q-3 -1 -11 -1q-25 0 -42 15.5t-17 42.5q0 29 16 46t43 17q34 0 53.5 -27.5t19.5 -76.5q0 -131 -122 -202z" />
    <glyph glyph-name="quotedblleft" unicode="&#x201c;" horiz-adv-x="486" 
d="M186 797l27 -44q-44 -30 -65 -62.5t-22 -80.5q3 1 10 1q25 0 43 -15t18 -42q0 -29 -16.5 -45.5t-44.5 -16.5q-34 0 -52.5 26.5t-18.5 75.5q0 133 121 203zM387 797l27 -44q-44 -30 -64.5 -63t-21.5 -80q3 1 9 1q25 0 43 -15t18 -42q0 -29 -16.5 -45.5t-44.5 -16.5
q-34 0 -52.5 26.5t-18.5 75.5q0 132 121 203z" />
    <glyph glyph-name="quotedblright" unicode="&#x201d;" horiz-adv-x="486" 
d="M98 494l-26 44q44 31 64.5 63t21.5 79q-3 -1 -11 -1q-25 0 -42 15.5t-17 42.5q0 29 16 46t43 17q34 0 53.5 -27.5t19.5 -76.5q0 -131 -122 -202zM299 494l-27 44q45 31 65.5 62.5t21.5 79.5q-3 -1 -10 -1q-25 0 -42.5 15.5t-17.5 42.5q0 29 16.5 46t43.5 17
q34 0 53 -27.5t19 -76.5q0 -131 -122 -202z" />
    <glyph glyph-name="dagger" unicode="&#x2020;" 
d="M556 782l-7 -247l208 5v-78l-208 6l7 -525h-88l7 525l-208 -6v78l208 -5l-7 247h88z" />
    <glyph glyph-name="daggerdbl" unicode="&#x2021;" 
d="M556 782l-7 -235l208 6v-78l-208 6v-237l208 6v-79l-208 6l7 -234h-88l7 234l-208 -6v79l208 -6v237l-208 -6v78l208 -6l-7 235h88z" />
    <glyph glyph-name="twodotenleader" unicode="&#x2025;" 
d="M188 389q0 29 20 48.5t48 19.5t48 -19.5t20 -48.5q0 -28 -19.5 -47.5t-48.5 -19.5t-48.5 19.5t-19.5 47.5zM700 389q0 29 20 48.5t48 19.5t48 -19.5t20 -48.5q0 -28 -19.5 -47.5t-48.5 -19.5t-48.5 19.5t-19.5 47.5z" />
    <glyph glyph-name="ellipsis" unicode="&#x2026;" 
d="M103 389q0 29 19.5 48.5t48.5 19.5t48.5 -19.5t19.5 -48.5t-19.5 -48t-48.5 -19t-48.5 19t-19.5 48zM444 389q0 29 19.5 48.5t48.5 19.5t48.5 -19.5t19.5 -48.5t-19.5 -48t-48.5 -19t-48.5 19t-19.5 48zM785 389q0 29 19.5 48.5t48.5 19.5t48.5 -19.5t19.5 -48.5
t-19.5 -48t-48.5 -19t-48.5 19t-19.5 48z" />
    <glyph glyph-name="perthousand" unicode="&#x2030;" 
d="M128 -16l395 784h52l-394 -784h-53zM35 535q0 106 38 167.5t96 60.5q60 0 95 -62.5t35 -165.5q0 -111 -38 -169t-93 -58q-59 0 -96 62.5t-37 164.5zM240 535q0 32 -3 60.5t-10.5 56.5t-23 44.5t-37.5 16.5q-27 0 -43.5 -29.5t-22 -66.5t-5.5 -81q0 -178 72 -178
q73 0 73 177zM406 217q0 106 38 168t96 61q60 0 95 -62.5t35 -165.5q0 -112 -38 -169.5t-93 -57.5q-60 0 -96.5 61.5t-36.5 164.5zM725 217q0 106 37.5 168t95.5 61q60 0 95.5 -62.5t35.5 -165.5q0 -112 -38 -169.5t-94 -57.5q-59 0 -95.5 62t-36.5 164zM610 217
q0 32 -3 60.5t-10.5 57t-22.5 45t-37 16.5q-27 0 -43.5 -29.5t-22 -66.5t-5.5 -82q0 -177 72 -177t72 176zM929 217q0 32 -3 60.5t-10.5 57t-22.5 45t-37 16.5q-27 0 -44 -29.5t-22.5 -67t-5.5 -81.5q0 -177 73 -177q72 0 72 176z" />
    <glyph glyph-name="minute" unicode="&#x2032;" horiz-adv-x="284" 
d="M93 516l26 274l91 -2l-15 -103l-40 -170z" />
    <glyph glyph-name="second" unicode="&#x2033;" horiz-adv-x="486" 
d="M93 516l26 274l91 -2l-15 -103l-40 -170zM295 516l24 274l93 -2l-17 -103l-39 -170z" />
    <glyph glyph-name="uni203B" unicode="&#x203b;" horiz-adv-x="947" 
d="M190 312q-28 0 -50 22t-22 51q0 32 20.5 52t51.5 20q29 0 52.5 -20t23.5 -52q0 -29 -22 -51t-54 -22zM826 88l-53 -57l-301 304l-148.5 -152l-148.5 -152l-53 53l301 301l-149.5 148.5l-151.5 148.5l53 57l301 -305l301 305l49 -53l-301 -301zM465 591q-30 0 -51.5 21.5
t-21.5 50.5q0 31 21.5 51.5t51.5 20.5q31 0 53.5 -20.5t22.5 -51.5q0 -29 -22.5 -50.5t-53.5 -21.5zM468 23q-29 0 -50.5 22t-21.5 50q0 32 20 52.5t52 20.5q29 0 51 -20.5t22 -52.5q0 -28 -20.5 -50t-52.5 -22zM765 312q-29 0 -52.5 20t-23.5 49q0 35 22 55.5t51 20.5
q32 0 54 -20.5t22 -55.5q0 -29 -21.5 -49t-51.5 -20z" />
    <glyph glyph-name="uni2103" unicode="&#x2103;" 
d="M193 488q-60 0 -102.5 41.5t-42.5 105.5q0 66 42 106t103 40q60 0 101.5 -40t41.5 -106q0 -64 -42 -105.5t-101 -41.5zM193 542q37 0 61.5 26t24.5 67t-24 67t-62 26t-62.5 -26t-24.5 -67t24.5 -67t62.5 -26zM753 -13q-145 0 -237.5 104t-92.5 283t93.5 284t241.5 105
q120 0 206 -92l-56 -62q-65 68 -149 68q-106 0 -170.5 -81.5t-64.5 -219.5q0 -139 62.5 -221t168.5 -82q97 0 170 82l56 -61q-90 -107 -228 -107z" />
    <glyph glyph-name="arrowleft" unicode="&#x2190;" 
d="M983 354h-789q97 -74 165 -168l-61 -35q-51 66 -121.5 129.5t-140.5 108.5q70 44 140.5 108.5t121.5 130.5l61 -36q-68 -94 -165 -168h789v-70z" />
    <glyph glyph-name="arrowup" unicode="&#x2191;" 
d="M477 -82v790q-76 -99 -168 -166l-36 61q66 51 130.5 121.5t108.5 140.5q44 -70 108.5 -140.5t130.5 -121.5l-36 -61q-92 67 -168 166v-790h-70z" />
    <glyph glyph-name="arrowright" unicode="&#x2192;" 
d="M41 354v70h789q-97 74 -165 168l61 36q51 -66 121.5 -130.5t140.5 -108.5q-70 -45 -140.5 -108.5t-121.5 -129.5l-61 35q68 94 165 168h-789z" />
    <glyph glyph-name="arrowdown" unicode="&#x2193;" 
d="M547 860v-789q76 99 168 166l36 -62q-66 -51 -130.5 -121.5t-108.5 -140.5q-44 70 -108.5 140.5t-130.5 121.5l36 62q92 -67 168 -166v789h70z" />
    <glyph glyph-name="arrowdblright" unicode="&#x21d2;" 
d="M41 278h720q62 64 121 107q-54 38 -121 107h-720v70h658q-54 61 -95 127l61 35q60 -95 151.5 -188.5t182.5 -150.5q-91 -58 -182.5 -151.5t-151.5 -188.5l-61 35q41 66 95 127h-658v71z" />
    <glyph glyph-name="arrowdblboth" unicode="&#x21d4;" 
d="M337 724l59 -35q-35 -61 -90 -127h412q-55 66 -90 127l59 35q56 -95 141.5 -188.5t170.5 -150.5q-85 -58 -170.5 -151.5t-141.5 -188.5l-59 35q35 61 90 127h-412q55 -66 90 -127l-59 -35q-56 95 -141.5 188.5t-170.5 151.5q85 57 170.5 150.5t141.5 188.5zM774 492h-524
q-64 -69 -116 -107q56 -42 116 -107h524q60 65 116 107q-52 38 -116 107z" />
    <glyph glyph-name="universal" unicode="&#x2200;" 
d="M846 782l62 -31l-394 -766h-4l-394 766l62 31l135 -265h398zM350 447l161 -315h2l161 315h-324z" />
    <glyph glyph-name="partialdiff" unicode="&#x2202;" 
d="M723 500q0 103 -45 158t-123 55q-98 0 -168 -90l-50 55q103 103 225 103q108 0 175 -73.5t67 -205.5q0 -92 -24 -182.5t-68 -165t-113.5 -120.5t-152.5 -46q-105 0 -164.5 63.5t-59.5 163.5q0 114 79.5 193.5t179.5 79.5q152 0 220 -136h2q20 80 20 148zM301 215
q0 -69 40.5 -112t108.5 -43q71 1 127.5 51t91.5 145q-9 73 -61 119.5t-120 46.5q-73 0 -130 -60.5t-57 -146.5z" />
    <glyph glyph-name="existential" unicode="&#x2203;" 
d="M200 757h618v-745h-618v71h548v267h-548v70h548v266h-548v71z" />
    <glyph glyph-name="gradient" unicode="&#x2207;" 
d="M458 -16l-303 693v57h712v-57l-301 -693h-108zM610 309l148 344h-495l147 -344l98 -241h5z" />
    <glyph glyph-name="element" unicode="&#x2208;" 
d="M893 644h-422q-106 0 -181.5 -63.5t-87.5 -160.5h691v-71h-691q12 -97 87.5 -160.5t181.5 -63.5h422v-71h-422q-146 0 -245 95.5t-99 235.5q0 139 99 234.5t245 95.5h422v-71z" />
    <glyph glyph-name="suchthat" unicode="&#x220b;" 
d="M553 644h-422v71h422q146 0 245 -95.5t99 -234.5q0 -140 -99 -235.5t-245 -95.5h-422v71h422q106 0 181.5 63.5t87.5 160.5h-691v71h691q-12 97 -87.5 160.5t-181.5 63.5z" />
    <glyph glyph-name="radical" unicode="&#x221a;" 
d="M573 901h451v-42h-421l-329 -947h-30l-111 287l-72 -102l-26 20l140 197l101 -266z" />
    <glyph glyph-name="proportional" unicode="&#x221d;" 
d="M557 385q98 -134 224 -134q37 0 66 9l25 -66q-44 -14 -93 -14q-147 0 -267 149q-120 -149 -268 -149q-82 0 -145.5 54.5t-63.5 150.5q0 95 63.5 149.5t145.5 54.5q148 0 268 -149q120 149 267 149q49 0 93 -14l-25 -65q-29 9 -66 9q-124 0 -224 -134zM105 385
q0 -62 40.5 -98t97.5 -36q126 0 224 134q-100 134 -224 134q-57 0 -97.5 -36.5t-40.5 -97.5z" />
    <glyph glyph-name="infinity" unicode="&#x221e;" 
d="M512 440q120 149 267 149q82 0 145.5 -54.5t63.5 -149.5q0 -96 -63.5 -150.5t-145.5 -54.5q-147 0 -267 149q-120 -149 -268 -149q-82 0 -145.5 54.5t-63.5 150.5q0 95 63.5 149.5t145.5 54.5q148 0 268 -149zM105 385q0 -62 40.5 -98t97.5 -36q124 0 224 134
q-101 134 -224 134q-57 0 -97.5 -36.5t-40.5 -97.5zM557 385q98 -134 224 -134q56 0 96.5 36t40.5 98q0 61 -40.5 97.5t-96.5 36.5q-124 0 -224 -134z" />
    <glyph glyph-name="angle" unicode="&#x2220;" 
d="M270 101v-3h630v-70h-796v4l679 680l50 -50z" />
    <glyph glyph-name="uni2225" unicode="&#x2225;" 
d="M210 123l334 665l62 -30l-333 -666zM480 -12l-62 31l333 666l63 -31z" />
    <glyph glyph-name="logicaland" unicode="&#x2227;" 
d="M116 24l394 764h4l394 -764l-62 -33l-333 650h-2l-333 -650z" />
    <glyph glyph-name="logicalor" unicode="&#x2228;" 
d="M908 745l-394 -764h-4l-394 764l62 33l333 -650h2l333 650z" />
    <glyph glyph-name="intersection" unicode="&#x2229;" 
d="M182 4v421q0 147 95 245.5t235 98.5t235 -98.5t95 -245.5v-421h-71v421q0 117 -74.5 195t-184.5 78t-184.5 -78t-74.5 -195v-421h-71z" />
    <glyph glyph-name="union" unicode="&#x222a;" 
d="M842 765v-421q0 -147 -95 -245.5t-235 -98.5t-235 98.5t-95 245.5v421h71v-421q0 -117 74.5 -195t184.5 -78t184.5 78t74.5 195v421h71z" />
    <glyph glyph-name="integral" unicode="&#x222b;" 
d="M471 170v450q0 246 182 246q24 0 47 -5l-7 -75q-18 5 -34 5q-48 0 -77 -37t-29 -146v-449q0 -247 -182 -247q-24 0 -47 5l7 75q15 -4 34 -4q48 0 77 36.5t29 145.5z" />
    <glyph glyph-name="uni222C" unicode="&#x222c;" 
d="M272 170v450q0 246 183 246q24 0 47 -5l-7 -75q-18 5 -34 5q-48 0 -77.5 -37t-29.5 -146v-449q0 -247 -182 -247q-24 0 -47 5l7 75q15 -4 34 -4q48 0 77 36.5t29 145.5zM670 170v450q0 246 182 246q24 0 47 -5l-7 -75q-18 5 -34 5q-48 0 -77 -37t-29 -146v-449
q0 -247 -183 -247q-24 0 -47 5l7 75q15 -4 34 -4q48 0 77.5 36.5t29.5 145.5z" />
    <glyph glyph-name="therefore" unicode="&#x2234;" 
d="M438 627q0 30 21.5 51.5t52.5 21.5t52.5 -21.5t21.5 -51.5q0 -31 -21.5 -53t-52.5 -22t-52.5 22t-21.5 53zM167 142q0 31 22 53t53 22t52 -22t21 -53q0 -30 -21 -51.5t-52 -21.5t-53 21.5t-22 51.5zM709 142q0 31 21.5 53t52.5 22t52.5 -22t21.5 -53q0 -30 -21.5 -51.5
t-52.5 -21.5t-52.5 21.5t-21.5 51.5z" />
    <glyph glyph-name="uni2235" unicode="&#x2235;" 
d="M167 627q0 30 22 51.5t53 21.5t52 -21.5t21 -51.5q0 -31 -21 -53t-52 -22t-53 22t-22 53zM709 627q0 30 21.5 51.5t52.5 21.5t52.5 -21.5t21.5 -51.5q0 -31 -21.5 -53t-52.5 -22t-52.5 22t-21.5 53zM438 142q0 31 21.5 53t52.5 22t52.5 -22t21.5 -53q0 -30 -21.5 -51.5
t-52.5 -21.5t-52.5 21.5t-21.5 51.5z" />
    <glyph glyph-name="uni223D" unicode="&#x223d;" 
d="M487 410q129 179 292 179q82 0 145.5 -54.5t63.5 -149.5q0 -97 -63.5 -151t-147.5 -54q-48 0 -93 14l27 66q29 -9 68 -9q58 0 98.5 36t40.5 98q0 61 -40.5 97.5t-96.5 36.5q-74 0 -132.5 -42.5t-111.5 -118.5q-131 -178 -293 -178q-82 0 -145.5 54.5t-63.5 150.5t64 150
t147 54q48 0 93 -14l-26 -65q-30 9 -68 9q-58 0 -99 -36.5t-41 -97.5q0 -62 40.5 -98t97.5 -36q73 0 131 41.5t113 117.5z" />
    <glyph glyph-name="uni2252" unicode="&#x2252;" 
d="M274 631q-22 21 -22 52t21.5 53t52.5 22t52.5 -22t21.5 -53t-21.5 -52.5t-52.5 -21.5t-52 22zM140 518h744v-62h-744v62zM140 313h744v-62h-744v62zM646 33q-22 22 -22 53t21.5 52.5t52.5 21.5t52.5 -21.5t21.5 -52.5t-21.5 -53t-52.5 -22t-52 22z" />
    <glyph glyph-name="notequal" unicode="&#x2260;" 
d="M884 457h-309l-53 -149h362v-70h-387l-79 -215l-66 24l69 191h-281v70h306l55 149h-361v70h386l80 219l66 -24l-71 -195h283v-70z" />
    <glyph glyph-name="equivalence" unicode="&#x2261;" 
d="M140 639h744v-67h-744v67zM140 418h744v-67h-744v67zM140 197h744v-67h-744v67z" />
    <glyph glyph-name="uni2266" unicode="&#x2266;" 
d="M880 866l23 -66l-599 -231v-4l599 -230l-23 -67l-774 297v4zM131 191h762v-66h-762v66zM131 19h762v-66h-762v66z" />
    <glyph glyph-name="uni2267" unicode="&#x2267;" 
d="M144 866l774 -297v-4l-774 -297l-23 67l599 230v4l-599 231zM131 191h762v-66h-762v66zM131 19h762v-66h-762v66z" />
    <glyph glyph-name="uni226A" unicode="&#x226a;" 
d="M622 781l35 -51l-493 -343v-4l493 -344l-35 -51l-567 395v4zM932 781l36 -51l-495 -343v-4l495 -344l-36 -51l-566 395v4z" />
    <glyph glyph-name="uni226B" unicode="&#x226b;" 
d="M92 781l566 -394v-4l-566 -395l-36 51l495 344v4l-495 343zM402 781l567 -394v-4l-567 -395l-35 51l493 344v4l-493 343z" />
    <glyph glyph-name="propersubset" unicode="&#x2282;" 
d="M893 54h-422q-146 0 -245 95.5t-99 235.5q0 139 99 234.5t245 95.5h422v-71h-422q-117 0 -195 -74.5t-78 -184.5q0 -111 78 -185.5t195 -74.5h422v-71z" />
    <glyph glyph-name="propersuperset" unicode="&#x2283;" 
d="M131 715h422q146 0 245 -95.5t99 -234.5q0 -140 -99 -235.5t-245 -95.5h-422v71h422q117 0 195 74.5t78 185.5q0 110 -78 184.5t-195 74.5h-422v71z" />
    <glyph glyph-name="reflexsubset" unicode="&#x2286;" 
d="M893 711h-474q-102 0 -161.5 -58.5t-59.5 -140.5q0 -83 59 -141.5t162 -58.5h474v-70h-474q-132 0 -212 79t-80 191q0 111 80 190t212 79h474v-70zM131 58h762v-70h-762v70z" />
    <glyph glyph-name="reflexsuperset" unicode="&#x2287;" 
d="M131 312h474q103 0 162 58.5t59 141.5q0 82 -59.5 140.5t-161.5 58.5h-474v70h474q132 0 212 -79t80 -190q0 -112 -80 -191t-212 -79h-474v70zM131 58h762v-70h-762v70z" />
    <glyph glyph-name="perpendicular" unicode="&#x22a5;" 
d="M547 108h369v-71h-808v71h369v649h70v-649z" />
    <glyph glyph-name="uni2312" unicode="&#x2312;" 
d="M56 600l-31 62q206 203 487 203t487 -203l-31 -62q-197 191 -456 191t-456 -191z" />
    <glyph glyph-name="SF100000" unicode="&#x2500;" 
d="M0 369v41h1024v-41h-1024z" />
    <glyph glyph-name="uni2501" unicode="&#x2501;" 
d="M0 328v123h1024v-123h-1024z" />
    <glyph glyph-name="SF110000" unicode="&#x2502;" 
d="M492 -123v1024h40v-1024h-40z" />
    <glyph glyph-name="uni2503" unicode="&#x2503;" 
d="M451 -123v1024h122v-1024h-122z" />
    <glyph glyph-name="SF010000" unicode="&#x250c;" 
d="M1024 369h-492v-492h-40v533h532v-41z" />
    <glyph glyph-name="uni250F" unicode="&#x250f;" 
d="M1024 328h-451v-451h-122v574h573v-123z" />
    <glyph glyph-name="SF030000" unicode="&#x2510;" 
d="M532 -123h-40v492h-492v41h532v-533z" />
    <glyph glyph-name="uni2513" unicode="&#x2513;" 
d="M573 -123h-122v451h-451v123h573v-574z" />
    <glyph glyph-name="SF020000" unicode="&#x2514;" 
d="M1024 369h-532v532h40v-491h492v-41z" />
    <glyph glyph-name="uni2517" unicode="&#x2517;" 
d="M451 328v573h122v-450h451v-123h-573z" />
    <glyph glyph-name="SF040000" unicode="&#x2518;" 
d="M532 369h-532v41h492v491h40v-532z" />
    <glyph glyph-name="uni251B" unicode="&#x251b;" 
d="M0 328v123h451v450h122v-573h-573z" />
    <glyph glyph-name="SF080000" unicode="&#x251c;" 
d="M1024 369h-492v-492h-40v1024h40v-491h492v-41z" />
    <glyph glyph-name="uni251D" unicode="&#x251d;" 
d="M1024 328h-492v-451h-40v1024h40v-450h492v-123z" />
    <glyph glyph-name="uni2520" unicode="&#x2520;" 
d="M1024 369h-451v-492h-122v1024h122v-491h451v-41z" />
    <glyph glyph-name="uni2523" unicode="&#x2523;" 
d="M1024 328h-451v-451h-122v1024h122v-450h451v-123z" />
    <glyph glyph-name="SF090000" unicode="&#x2524;" 
d="M532 -123h-40v492h-492v41h492v491h40v-1024z" />
    <glyph glyph-name="uni2525" unicode="&#x2525;" 
d="M532 -123h-40v451h-492v123h492v450h40v-1024z" />
    <glyph glyph-name="uni2528" unicode="&#x2528;" 
d="M573 -123h-122v492h-451v41h451v491h122v-1024z" />
    <glyph glyph-name="uni252B" unicode="&#x252b;" 
d="M573 -123h-122v451h-451v123h451v450h122v-1024z" />
    <glyph glyph-name="SF060000" unicode="&#x252c;" 
d="M1024 369h-492v-492h-40v492h-492v41h1024v-41z" />
    <glyph glyph-name="uni252F" unicode="&#x252f;" 
d="M1024 328h-492v-451h-40v451h-492v123h1024v-123z" />
    <glyph glyph-name="uni2530" unicode="&#x2530;" 
d="M1024 369h-451v-492h-122v492h-451v41h1024v-41z" />
    <glyph glyph-name="uni2533" unicode="&#x2533;" 
d="M1024 328h-451v-451h-122v451h-451v123h1024v-123z" />
    <glyph glyph-name="SF070000" unicode="&#x2534;" 
d="M1024 369h-1024v41h492v491h40v-491h492v-41z" />
    <glyph glyph-name="uni2537" unicode="&#x2537;" 
d="M1024 328h-1024v123h492v450h40v-450h492v-123z" />
    <glyph glyph-name="uni2538" unicode="&#x2538;" 
d="M1024 369h-1024v41h451v491h122v-491h451v-41z" />
    <glyph glyph-name="uni253B" unicode="&#x253b;" 
d="M1024 328h-1024v123h451v450h122v-450h451v-123z" />
    <glyph glyph-name="SF050000" unicode="&#x253c;" 
d="M1024 369h-492v-492h-40v492h-492v41h492v491h40v-491h492v-41z" />
    <glyph glyph-name="uni253F" unicode="&#x253f;" 
d="M1024 328h-492v-451h-40v451h-492v123h492v450h40v-450h492v-123z" />
    <glyph glyph-name="uni2542" unicode="&#x2542;" 
d="M1024 369h-451v-492h-122v492h-451v41h451v491h122v-491h451v-41z" />
    <glyph glyph-name="uni254B" unicode="&#x254b;" 
d="M1024 328h-451v-451h-122v451h-451v123h451v450h122v-450h451v-123z" />
    <glyph glyph-name="filledbox" unicode="&#x25a0;" 
d="M102 799h820v-819h-820v819z" />
    <glyph glyph-name="H22073" unicode="&#x25a1;" 
d="M102 799h820v-819h-820v819zM140 761v-744h744v744h-744z" />
    <glyph glyph-name="triagup" unicode="&#x25b2;" 
d="M512 846l481 -834h-962z" />
    <glyph glyph-name="uni25B3" unicode="&#x25b3;" 
d="M512 846l481 -834h-962zM512 770l-416 -720h832z" />
    <glyph glyph-name="triagdn" unicode="&#x25bc;" 
d="M31 766h962l-481 -834z" />
    <glyph glyph-name="uni25BD" unicode="&#x25bd;" 
d="M31 766h962l-481 -834zM928 728h-832l416 -720z" />
    <glyph glyph-name="uni25C6" unicode="&#x25c6;" 
d="M512 889l500 -500l-500 -500l-500 500z" />
    <glyph glyph-name="uni25C7" unicode="&#x25c7;" 
d="M512 889l500 -500l-500 -500l-500 500zM512 835l-445 -446l445 -445l445 445z" />
    <glyph glyph-name="circle" unicode="&#x25cb;" 
d="M838 63q-135 -135 -326 -135t-326 135t-135 326t135 326t326 135t326 -135t135 -326t-135 -326zM213 688q-124 -124 -124 -299t124 -299t299 -124t299 124t124 299t-124 299t-299 124t-299 -124z" />
    <glyph glyph-name="uni25CE" unicode="&#x25ce;" 
d="M186 63q-135 135 -135 326t135 326t326 135t326 -135t135 -326t-135 -326t-326 -135t-326 135zM811 90q124 124 124 299t-124 299t-299 124t-299 -124t-124 -299t124 -299t299 -124t299 124zM298 175q-89 88 -89 214t88.5 214.5t214.5 88.5t214.5 -88.5t88.5 -214.5
t-88.5 -214.5t-214.5 -88.5t-214 89zM704 197q79 79 79 192t-79.5 192t-191.5 79t-191.5 -79t-79.5 -192t79.5 -192t191.5 -79t192 79z" />
    <glyph glyph-name="H18533" unicode="&#x25cf;" 
d="M838 63q-135 -135 -326 -135t-326 135t-135 326t135 326t326 135t326 -135t135 -326t-135 -326z" />
    <glyph glyph-name="uni25EF" unicode="&#x25ef;" 
d="M175 726q140 140 337 140t337 -140t140 -337t-140 -337t-337 -140t-337 140t-140 337t140 337zM826 75q130 129 130 314t-130 315t-314 130t-314 -130t-130 -315t130 -314.5t314 -129.5t314 130z" />
    <glyph glyph-name="uni2605" unicode="&#x2605;" 
d="M627 497h358v-4l-290 -210l114 -346l-3 -2l-294 213l-294 -213l-3 2l114 346l-290 210v4h358l113 344h4z" />
    <glyph glyph-name="uni2606" unicode="&#x2606;" 
d="M397 497l111 344h8l111 -344h358l1 -10l-291 -204l116 -343l-7 -7l-292 215l-292 -215l-7 7l116 343l-291 204l1 10h358zM425 459h-193l-101 5v-2l89 -56l154 -109l-58 -170l-42 -109l2 -1l93 73l143 106l143 -106l93 -73l2 1l-42 109l-58 170l154 109l89 56v2l-102 -5
h-192l-59 183l-27 99h-2l-28 -99z" />
    <glyph glyph-name="female" unicode="&#x2640;" 
d="M291 618q0 93 64.5 157.5t156.5 64.5t156.5 -64.5t64.5 -157.5q0 -81 -53 -142.5t-133 -74.5v-110h293v-70h-293v-282h-70v282h-293v70h293v110q-80 13 -133 74.5t-53 142.5zM663 618q0 63 -44.5 107t-106.5 44t-106.5 -44t-44.5 -107q0 -62 44.5 -105.5t106.5 -43.5
t106.5 43.5t44.5 105.5z" />
    <glyph glyph-name="male" unicode="&#x2642;" 
d="M561 217q0 -91 -64.5 -156t-156.5 -65t-156.5 65t-64.5 156t64.5 156t156.5 65q69 0 127 -42l295 294h-263v71h385v-385h-71v266l-296 -295q44 -57 44 -130zM234 324q-45 -45 -45 -107t44.5 -106t106.5 -44t106 44t44 106t-44 106.5t-106 44.5t-106 -44z" />
    <glyph glyph-name="musicalnote" unicode="&#x266a;" 
d="M498 860h25q0 -121 119 -225q132 -115 132 -231q0 -110 -86 -249h-26q64 131 64 215q0 88 -53 153t-134 83v-514q0 -77 -56 -125.5t-132 -48.5q-38 0 -66.5 20.5t-28.5 55.5q0 54 56.5 97.5t120.5 43.5q41 0 65 -13v738z" />
    <glyph glyph-name="uni266D" unicode="&#x266d;" 
d="M615 485q66 0 105 -36.5t39 -92.5q0 -59 -27 -106.5t-73 -83.5t-95.5 -67t-105.5 -72t-92 -84h-10v893h40v-496q37 65 95.5 105t123.5 40zM396 285v-268q33 35 87 80.5l87.5 74t60 73t26.5 94.5q0 44 -22.5 66.5t-59.5 22.5q-42 0 -91 -36t-88 -107z" />
    <glyph glyph-name="uni266F" unicode="&#x266f;" 
d="M778 540l-138 -21v-210l138 21v-86l-138 -20v-250h-40v244l-179 -25v-250h-40v243l-139 -20v85l139 20v210l-139 -20v86l139 20v239h40v-233l179 26v239h40v-233l138 20v-85zM600 303v210l-179 -26v-209z" />
    <glyph glyph-name="uni3000" unicode="&#x3000;" 
 />
    <glyph glyph-name="uni3001" unicode="&#x3001;" 
d="M349 2l-69 -59q-103 127 -227 228l67 58q116 -93 229 -227z" />
    <glyph glyph-name="uni3002" unicode="&#x3002;" 
d="M199 250q65 0 110.5 -45.5t45.5 -110.5t-45.5 -110.5t-110.5 -45.5q-64 0 -110 46t-46 110t46 110t110 46zM199 -10q43 0 73 30t30 74q0 42 -30 73t-73 31q-42 0 -73 -31t-31 -73q0 -43 31 -73.5t73 -30.5z" />
    <glyph glyph-name="uni3003" unicode="&#x3003;" 
d="M398 637l97 -41l-211 -465l-51 21zM694 637l97 -41l-211 -465l-51 21z" />
    <glyph glyph-name="uni3005" unicode="&#x3005;" 
d="M802 604l57 -31q-75 -209 -222 -406q99 -70 144 -117l-54 -69q-57 62 -168.5 137.5t-222.5 129.5l49 61q98 -46 183 -98q105 137 180 313h-348q-98 -196 -223 -318q-33 27 -72 45q108 99 191.5 250.5t130.5 306.5l85 -20q-29 -89 -75 -187h349z" />
    <glyph glyph-name="uni3006" unicode="&#x3006;" 
d="M814 799l74 -48q-97 -113 -260 -323q123 -88 239 -188l-61 -76q-72 73 -233 193l-143 -187l-118 -155q-24 -30 -58 -85l-76 25q4 23 4 53q-4 143 -20 250l78 10q9 -98 13 -190q10 14 105.5 137.5l148.5 191.5q-137 99 -233 150l59 69q82 -49 228 -150z" />
    <glyph glyph-name="uni3007" unicode="&#x3007;" 
d="M186 63q-136 135 -136 326t135.5 326.5t326.5 135.5t326.5 -135.5t135.5 -326.5t-135.5 -326.5t-326.5 -135.5t-326 136zM783 118q112 112 112 271t-112 271t-271 112t-271 -112t-112 -271t112 -271t271 -112t271 112z" />
    <glyph glyph-name="uni3008" unicode="&#x3008;" 
d="M684 389l287 -447l-65 -30l-304 477l304 477l65 -29z" />
    <glyph glyph-name="uni3009" unicode="&#x3009;" 
d="M118 -88l-65 30l287 447l-287 448l65 29l304 -477z" />
    <glyph glyph-name="uni300A" unicode="&#x300a;" 
d="M605 389l220 -459l-55 -18l-227 477l227 477l55 -18zM767 389l220 -459l-55 -18l-227 477l227 477l55 -18z" />
    <glyph glyph-name="uni300B" unicode="&#x300b;" 
d="M254 -88l-55 18l220 459l-220 459l55 18l227 -477zM92 -88l-55 18l220 459l-220 459l55 18l227 -477z" />
    <glyph glyph-name="uni300C" unicode="&#x300c;" 
d="M666 204v662h323v-70h-248v-592h-75z" />
    <glyph glyph-name="uni300D" unicode="&#x300d;" 
d="M358 574v-662h-323v71h248v591h75z" />
    <glyph glyph-name="uni300E" unicode="&#x300e;" 
d="M989 707h-201v-520h-175v679h376v-159zM955 833h-308v-612h108v519h200v93z" />
    <glyph glyph-name="uni300F" unicode="&#x300f;" 
d="M35 72h201v519h175v-679h-376v160zM69 -54h308v611h-108v-519h-200v-92z" />
    <glyph glyph-name="uni3010" unicode="&#x3010;" 
d="M682 866h307v-5q-89 -75 -146 -199t-57 -273t57 -273t146 -199v-5h-307v954z" />
    <glyph glyph-name="uni3011" unicode="&#x3011;" 
d="M342 866v-954h-307v5q89 75 146 199t57 273t-57 273t-146 199v5h307z" />
    <glyph glyph-name="uni3012" unicode="&#x3012;" 
d="M169 735h686v-83h-686v83zM169 521h686v-83h-298v-428h-90v428h-298v83z" />
    <glyph glyph-name="uni3013" unicode="&#x3013;" 
d="M922 799v-307h-820v307h820zM922 287v-307h-820v307h820z" />
    <glyph glyph-name="uni3014" unicode="&#x3014;" 
d="M950 -100l-220 143v692l220 144l34 -54l-182 -116v-639l182 -117z" />
    <glyph glyph-name="uni3015" unicode="&#x3015;" 
d="M295 43l-221 -143l-34 53l182 117v639l-182 116l34 54l221 -144v-692z" />
    <glyph glyph-name="uni301C" unicode="&#x301c;" 
d="M714 251q-67 0 -120.5 26.5t-110.5 82.5q-46 44 -84 64t-90 20q-59 0 -110 -36.5t-83 -98.5l-73 39q99 179 267 179q67 0 121 -26.5t110 -82.5q46 -44 84 -64t90 -20q59 0 110 36.5t83 98.5l73 -39q-99 -179 -267 -179z" />
    <glyph glyph-name="uni3041" unicode="&#x3041;" 
d="M464 348v-23q0 -80 13 -158q89 89 134 206h-10q-64 0 -137 -25zM395 316q-60 -35 -99.5 -87.5t-39.5 -105.5q0 -48 49 -48q47 0 111 42q-21 107 -21 199zM644 486l71 -17q-8 -19 -17 -47q80 -22 124 -77.5t44 -128.5q0 -93 -67.5 -163.5t-210.5 -93.5l-40 64
q112 11 179 65t67 134q0 50 -30.5 87.5t-86.5 52.5q-68 -170 -183 -269q10 -41 19 -66l-69 -20q-12 37 -13 43q-75 -44 -137 -44q-48 0 -77 26.5t-29 80.5q0 84 60 159t149 115q2 47 10 119q-16 -1 -48 -1q-59 0 -138 7l-2 70q70 -12 140 -12q37 0 54 1q2 15 4.5 38t2.5 27
q4 25 2 41l81 -1q-2 -7 -9 -40q-10 -56 -11 -63q158 8 293 36l1 -68q-149 -25 -302 -32q-6 -60 -8 -96q71 20 136 20q20 0 29 -1v1q6 16 12 53z" />
    <glyph glyph-name="uni3042" unicode="&#x3042;" 
d="M626 451h-17q-82 0 -172 -32v-40q0 -80 18 -184q111 102 171 256zM366 370v17q-74 -42 -123.5 -110t-49.5 -129t57 -61q64 0 139 53q-23 120 -23 230zM722 507l-1 -4q94 -25 148.5 -90t54.5 -150q0 -116 -81.5 -199.5t-250.5 -109.5l-44 69q136 14 215.5 80t79.5 164
q0 59 -38 106t-108 66q-80 -205 -224 -327q2 -7 25 -82l-75 -23l-16 56q-89 -55 -170 -55q-54 0 -87.5 32.5t-33.5 95.5q0 95 73 187.5t180 140.5q1 37 11 149q-22 -1 -62 -1t-163 6l-2 77q84 -12 166 -12q45 0 68 1q1 12 4 39t4 39q3 24 3 48l86 -2q-4 -10 -12 -45
q-6 -36 -12 -77q212 10 355 43l1 -77q-173 -28 -365 -37q-7 -69 -11 -125q89 27 170 27q25 0 37 -1l3 9q8 31 10 59l82 -21q-3 -7 -10.5 -28.5z" />
    <glyph glyph-name="uni3043" unicode="&#x3043;" 
d="M191 585l89 -1q-7 -46 -7 -86q0 -152 11 -234q12 -89 40.5 -143t64.5 -54q30 0 57 51.5t46 124.5l62 -67q-38 -105 -76.5 -151.5t-88.5 -46.5q-63 0 -112 65t-68 208q-13 103 -13 253q0 59 -5 81zM642 534l76 24q61 -73 101.5 -196.5t49.5 -222.5l-78 -31q-9 106 -48 230
t-101 196z" />
    <glyph glyph-name="uni3044" unicode="&#x3044;" 
d="M133 715l98 -2q-6 -35 -8 -99q-2 -131 7 -239q12 -130 48.5 -206t89.5 -76q36 0 69.5 60.5t56.5 146.5l64 -74q-43 -124 -90 -177t-102 -53q-78 0 -136.5 86.5t-78.5 271.5q-12 106 -12 271q0 60 -6 90zM680 657l80 28q68 -88 117.5 -228t60.5 -269l-83 -32
q-13 142 -59 278.5t-116 222.5z" />
    <glyph glyph-name="uni3045" unicode="&#x3045;" 
d="M713 265q0 58 -40.5 89.5t-102.5 31.5q-85 0 -231 -44q-36 -10 -68 -25l-24 86q24 1 75 12q8 2 50 11.5t68 14.5t66.5 10.5t71.5 5.5q97 0 156 -51t59 -142q0 -127 -101.5 -209.5t-284.5 -111.5l-42 72q161 20 254.5 82.5t93.5 167.5zM349 582l12 69q69 -14 180 -26
t184 -14l-11 -71q-65 3 -182.5 16.5t-182.5 25.5z" />
    <glyph glyph-name="uni3046" unicode="&#x3046;" 
d="M734 343q0 64 -47.5 104.5t-125.5 40.5q-33 0 -65.5 -3t-67 -11l-52 -12t-53.5 -14.5t-38 -11.5q-16 -4 -85 -29l-26 94q37 4 92 15q3 1 58 13.5t80.5 17.5t74.5 11.5t90 6.5q111 0 181.5 -60t70.5 -165q0 -158 -125.5 -255.5t-333.5 -128.5l-48 78q195 25 307.5 101.5
t112.5 207.5zM296 722l13 78q79 -18 214.5 -32t216.5 -15l-12 -79q-242 15 -432 48z" />
    <glyph glyph-name="uni3047" unicode="&#x3047;" 
d="M349 582l11 69q56 -15 162.5 -28t175.5 -17l-10 -71q-170 14 -339 47zM671 458l45 -49q-16 -11 -39 -29q-21 -18 -79 -72.5t-82 -80.5q17 0 28 -5q48 -4 66 -65q15 -55 26 -87q14 -41 70 -41q83 0 155 19l-4 -79q-71 -13 -162 -13q-103 0 -125 73l-13.5 48.5t-11.5 42.5
q-8 25 -19 36.5t-33 11.5q-28 0 -60 -32q-26 -24 -80 -83t-86 -100l-72 50q6 5 36 33l98.5 96l142.5 140l102 103q-21 -2 -69.5 -6l-106 -8.5l-70.5 -5.5q-50 -5 -70 -10l-6 84q24 -3 72 -1q43 1 156 8.5t154 13.5q20 2 37 8z" />
    <glyph glyph-name="uni3048" unicode="&#x3048;" 
d="M308 730l14 75q182 -39 400 -53l-11 -76q-215 19 -403 54zM693 570l49 -55q-32 -23 -55 -46q-129 -115 -189 -179q22 2 38 -3q54 -5 77 -73l10 -33.5l13 -44.5t11 -36q8 -29 28 -41.5t59 -12.5q106 0 192 22l-5 -87q-92 -15 -191 -15q-65 0 -102 18.5t-53 67.5
q-5 15 -17 59.5l-16 59.5q-18 53 -62 53q-35 0 -74 -37q-39 -38 -103 -106.5t-102 -117.5l-79 53q24 18 50 46l418 417q-9 -1 -312 -25q-10 -1 -82 -10l-8 91q50 -4 86 -3q44 1 179 10.5t192 16.5q32 4 48 11z" />
    <glyph glyph-name="uni3049" unicode="&#x3049;" 
d="M338 25q30 0 30 40q0 26 -4 146q-114 -60 -114 -117q0 -24 31.5 -46.5t56.5 -22.5zM433 311v-5q93 29 179 29q97 0 159 -47.5t62 -125.5q0 -75 -50.5 -128t-148.5 -72q-31 -6 -93 -9l-25 75q60 -2 98 5q63 11 103 44.5t40 84.5q0 53 -41 80.5t-105 27.5q-92 0 -177 -30
q0 -36 2 -103.5t2 -86.5q0 -101 -80 -101q-55 0 -118 43t-63 96q0 57 55.5 109t129.5 84v27q0 17 1 57.5t1 61.5q-44 -2 -65 -2q-45 0 -106 5l-2 76q65 -8 108 -8q19 0 67 2q0 21 0.5 49t0.5 32q0 28 -5 58h83q-4 -24 -6 -58q-1 -22 -3 -75q93 11 172 33l2 -74
q-122 -24 -176 -31q0 -22 -0.5 -63.5t-0.5 -59.5zM672 509l36 60q121 -63 195 -124l-41 -63q-27 27 -87 66t-103 61z" />
    <glyph glyph-name="uni304A" unicode="&#x304a;" 
d="M301 58q36 0 36 50q0 20 -1.5 83.5t-1.5 95.5q-63 -30 -103 -69.5t-40 -73.5q0 -32 38.5 -59t71.5 -27zM408 424v-34q114 37 222 37q111 0 182.5 -56t71.5 -146q0 -181 -216 -234q-54 -12 -125 -14l-29 81q80 0 119 8q74 13 122 52.5t48 105.5q0 62 -49.5 97t-124.5 35
q-108 0 -220 -40q4 -172 4 -219q0 -124 -90 -124q-66 0 -139 52t-73 116q0 59 64.5 120t157.5 101v58q0 88 1 133q-42 -3 -75 -3q-80 0 -129 5l-2 78q63 -8 129 -8q36 0 78 3q2 106 2 115q0 47 -6 72h89q-3 -30 -5 -70q-1 -33 -3 -109q119 14 208 41l1 -81
q-109 -24 -211 -35q-2 -96 -2 -137zM699 641l37 62q149 -79 232 -148l-41 -66q-34 33 -102 77t-126 75z" />
    <glyph glyph-name="uni304B" unicode="&#x304b;" 
d="M354 806l96 -10l-13 -60q-19 -112 -25 -143q94 6 113 6q76 0 120.5 -38.5t44.5 -133.5q0 -101 -15 -204t-44 -162q-23 -48 -59 -66.5t-90 -18.5q-45 0 -118 16l-14 86q74 -23 124 -23q31 0 52.5 11t36.5 42q47 101 47 310q0 64 -26 86t-80 22q-32 0 -109 -7
q-88 -347 -213 -545l-84 34q69 93 125 234.5t88 268.5q-82 -8 -128 -13l-91 -13l-8 89q30 -2 90 0q13 0 155 12q25 130 25 220zM723 655l76 33q43 -57 99 -169t86 -193l-80 -38q-25 86 -77.5 196.5t-103.5 170.5z" />
    <glyph glyph-name="uni304C" unicode="&#x304c;" 
d="M997 727l-55 -25q-49 93 -85 142l54 22q52 -72 86 -139zM883 685l-57 -25q-42 85 -83 143l55 22q38 -53 85 -140zM340 802l96 -9q-10 -47 -12 -61l-11.5 -61.5l-15.5 -81.5q82 7 114 7q76 0 120.5 -38.5t44.5 -134.5q0 -101 -15 -204t-44 -162q-23 -48 -58.5 -66
t-89.5 -18q-49 0 -120 15l-13 87q71 -23 125 -23q31 0 52 10.5t36 41.5q48 99 48 310q0 64 -26.5 86t-81.5 22q-31 0 -108 -7q-87 -343 -213 -544l-83 34q69 93 124 233t89 269q-73 -7 -128 -13q-62 -7 -91 -13l-8 89q44 -1 90 0q10 0 153 12q27 142 26 220zM710 642l74 35
q44 -58 101 -170.5t85 -190.5l-79 -38q-26 86 -78.5 196t-102.5 168z" />
    <glyph glyph-name="uni304D" unicode="&#x304d;" 
d="M216 274l79 -7q-24 -64 -24 -103q0 -127 206 -127q147 0 250 23l-2 -83q-109 -19 -245 -19q-138 0 -212.5 47.5t-74.5 141.5q0 50 23 127zM862 552l16 -74q-73 -24 -172 -43q58 -126 91 -186l-40 -50q-68 12 -198 28l7 63q101 -12 129 -15q-11 23 -34.5 76.5t-31.5 70.5
q-196 -25 -454 -9l-3 74q237 -21 426 2l-36 83l-11.5 28.5t-10.5 24.5q-166 -15 -357 2l-5 74q178 -19 332 -8q-3 6 -7 16.5t-6 14.5q-17 37 -38 72l92 19q11 -43 38 -113q121 19 202 49l14 -73q-88 -27 -189 -43l19 -42q3 -8 40 -91q98 17 187 50z" />
    <glyph glyph-name="uni304E" unicode="&#x304e;" 
d="M173 268l78 -6q-24 -66 -24 -103q0 -127 207 -127q143 0 249 22l-2 -82q-107 -19 -245 -19q-137 0 -211.5 47.5t-74.5 140.5q0 52 23 127zM819 546l16 -73q-80 -27 -172 -44q76 -159 90 -186l-39 -49q-81 13 -199 27l7 64l129 -15q-10 21 -32.5 72t-33.5 74
q-186 -24 -454 -9l-3 75q237 -21 426 2l-36 83l-22 53q-174 -15 -357 2l-5 74q179 -19 332 -8q-2 4 -13 30q-16 38 -38 73l92 18q13 -45 39 -112q88 11 176 41l14 -73q-83 -25 -163 -36l18 -42l15 -34l26 -57q94 17 187 50zM725 799l51 22q44 -59 85 -142l-53 -25
q-43 89 -83 145zM834 839l50 23q40 -50 88 -139l-52 -26q-48 92 -86 142z" />
    <glyph glyph-name="uni304F" unicode="&#x304f;" 
d="M643 820l77 -67q-18 -13 -70 -58l-291 -238q-46 -40 -45 -61.5t50 -61.5q249 -200 378 -328l-73 -66q-11 14 -37 39.5t-33 33.5q-80 86 -319 282q-48 40 -60.5 72t3.5 61.5t64 69.5l90.5 74.5l122 102.5t85.5 78q44 44 58 67z" />
    <glyph glyph-name="uni3050" unicode="&#x3050;" 
d="M600 559l54 24q22 -32 89 -151l-57 -24q-55 105 -86 151zM719 604l55 25q37 -50 90 -148l-55 -24q-58 104 -90 147zM630 820l76 -67q-10 -7 -23 -18l-27.5 -23.5t-19.5 -16.5l-290 -238q-46 -39 -46 -61t49 -62q261 -210 379 -328l-73 -66q-12 14 -37.5 40t-31.5 33
q-68 73 -320 282q-48 40 -61 72t3 61.5t64 69.5l90 74l124.5 104t84.5 77q43 43 59 67z" />
    <glyph glyph-name="uni3051" unicode="&#x3051;" 
d="M169 790l96 -10q-4 -13 -18 -65q-73 -336 -29 -534q23 71 53 154l45 -28q-47 -134 -65 -223q-5 -25 -5 -45l3 -35l-70 -8q-53 162 -53 321q0 139 38 405q5 30 5 68zM940 607v-84q-66 -11 -164 -18v-35q0 -51 -0.5 -76t-2 -69t-5.5 -67.5t-11 -60t-18 -59t-27 -52
t-37 -51.5t-50 -45.5t-64 -44.5l-75 59q61 25 100 64q75 65 94 148.5t19 254.5v30q-65 -3 -129 -3q-86 0 -163 7v82q75 -12 162 -12q42 0 128 4q-4 133 -6 156q-2 28 -9 61h95q-1 -5 -3 -60q-1 -24 1 -152q103 9 165 23z" />
    <glyph glyph-name="uni3052" unicode="&#x3052;" 
d="M898 659l-51 -18q-27 80 -57 144l49 16q33 -66 59 -142zM158 763l95 -9q-13 -46 -17 -66q-73 -325 -29 -524l53 153l45 -27q-47 -133 -65 -224q-7 -33 -6 -46q0 -4 1.5 -15.5t2.5 -17.5l-71 -10q-53 173 -53 322q0 47 2.5 94.5t8 94.5t9.5 77l10.5 75t8.5 56q5 29 5 67z
M657 769h97q-4 -27 -4 -59q0 -8 2 -151q99 8 177 26v-85q-81 -13 -176 -19v-28q0 -50 -0.5 -76t-2 -69t-5.5 -67.5t-11 -60.5t-18 -59t-27 -53t-37.5 -52t-50 -45.5t-63.5 -44.5l-76 60q58 24 99 63q75 65 94.5 149.5t19.5 254.5v24q-78 -2 -116 -2q-76 0 -164 6v82
q81 -11 163 -11q36 0 116 2q-4 133 -6 156q-2 24 -11 59zM892 816l49 17q25 -51 61 -142l-51 -17q-34 98 -59 142z" />
    <glyph glyph-name="uni3053" unicode="&#x3053;" 
d="M243 634v84q107 -13 268 -13q127 0 273 14v-84q-166 -12 -273 -12q-141 0 -268 11zM201 316l84 -8q-21 -72 -21 -115q0 -59 61 -94.5t179 -35.5q222 0 347 39l1 -88q-131 -34 -346 -34q-156 0 -241 50t-85 144q0 44 21 142z" />
    <glyph glyph-name="uni3054" unicode="&#x3054;" 
d="M742 799l56 22q35 -48 84 -140l-56 -26q-41 86 -84 144zM856 840l54 23q47 -63 87 -140l-56 -25q-45 90 -85 142zM224 623v84q115 -14 269 -14q117 0 273 15v-84q-179 -13 -273 -13q-130 0 -269 12zM183 305l83 -8q-20 -67 -20 -115q0 -60 60.5 -95t178.5 -35
q223 0 348 39l1 -87q-131 -36 -347 -36q-155 0 -240 50.5t-85 145.5q0 55 21 141z" />
    <glyph glyph-name="uni3055" unicode="&#x3055;" 
d="M211 319l83 -7q-29 -71 -29 -128q0 -142 212 -142q132 0 266 28l-1 -85q-137 -24 -266 -24q-140 0 -216.5 53.5t-76.5 149.5q0 59 28 155zM851 697l15 -81q-116 -30 -191 -42q79 -172 136 -283l-47 -49q-87 18 -210 29l8 67q22 -2 77 -7.5t67 -6.5q-106 228 -111 238
q-192 -22 -431 -2l-3 82q204 -26 402 -6l-34 75q-20 45 -43 85l92 17q39 -105 65 -167q110 19 208 51z" />
    <glyph glyph-name="uni3056" unicode="&#x3056;" 
d="M205 311l83 -7q-29 -69 -29 -127q0 -143 212 -143q135 0 266 27l-1 -84q-132 -23 -266 -23q-141 0 -217 53t-76 150q0 58 28 154zM736 818l56 24q45 -63 82 -142l-29 -13l14 -78q-99 -28 -190 -42q81 -181 136 -283l-47 -50q-97 20 -211 30l9 67q66 -7 143 -16
q-70 146 -110 240q-190 -23 -431 -3l-3 82q204 -26 401 -6l-34 74q-20 48 -43 85l92 19q26 -75 66 -167q75 12 179 42q-38 79 -80 137zM850 859l54 23q51 -69 86 -141l-55 -24q-48 94 -85 142z" />
    <glyph glyph-name="uni3057" unicode="&#x3057;" 
d="M247 796l103 -1q-6 -42 -10 -102q-12 -345 -12 -506q0 -150 166 -150q67 0 124 17t101.5 49t76 66t62.5 78l56 -71q-160 -223 -422 -223q-246 0 -246 226q0 81 5 273t5 241q0 58 -9 103z" />
    <glyph glyph-name="uni3058" unicode="&#x3058;" 
d="M560 682l58 25q58 -82 99 -163l-61 -28q-54 108 -96 166zM693 732l58 27q55 -73 101 -160l-59 -29q-55 104 -100 162zM232 790l104 -2q-7 -45 -10 -101q-13 -374 -13 -507q0 -149 167 -149q126 0 212 57.5t152 152.5l56 -71q-160 -223 -423 -223q-246 0 -246 226
q0 81 5.5 273t5.5 241q0 53 -10 103z" />
    <glyph glyph-name="uni3059" unicode="&#x3059;" 
d="M492 240q46 0 71 37t18 107q-23 62 -91 62q-41 0 -71.5 -29.5t-30.5 -76.5q0 -46 30 -73t74 -27zM648 606h-13q0 -74 2 -166q33 -52 33 -130q0 -55 -14.5 -105t-47.5 -99t-94 -89.5t-146 -66.5l-71 68q209 49 269 177q-38 -26 -87 -26q-69 0 -118.5 45.5t-49.5 124.5
q0 74 53 125.5t126 51.5q37 0 68 -11q0 65 -1 100q-235 -2 -453 -17l-2 80l204 5t250 5q0 38 -2 66q-2 38 -6 64h93l-5 -64q0 -6 -0.5 -28t-0.5 -37h15q71 0 176.5 -0.5t120.5 -0.5l-1 -77q-95 5 -298 5z" />
    <glyph glyph-name="uni305A" unicode="&#x305a;" 
d="M955 724l-58 -26q-42 79 -76 124l58 25q42 -62 76 -123zM830 696l-58 -25q-46 86 -75 126l57 23q38 -51 76 -124zM462 228q47 0 71.5 37.5t17.5 107.5q-23 62 -89 62q-42 0 -72.5 -29t-30.5 -77q0 -46 30 -73.5t73 -27.5zM606 668h15q71 0 177 -0.5t120 -0.5l-2 -77
q-95 5 -296 5h-14q0 -73 2 -167q32 -56 32 -129q0 -55 -14.5 -105t-47 -99t-94 -89.5t-146.5 -66.5l-70 68q209 49 268 175q-35 -25 -86 -25q-68 0 -117.5 46t-49.5 125q0 74 53 125.5t126 51.5q36 0 67 -11l-1 100q-235 -2 -452 -17l-3 79q44 1 206.5 5.5t247.5 5.5
q0 11 -0.5 25.5t-1 24.5t-0.5 16q-2 45 -7 64h94q-5 -27 -5 -64q0 -6 -0.5 -28t-0.5 -37z" />
    <glyph glyph-name="uni305B" unicode="&#x305b;" 
d="M669 786h87q-3 -22 -5 -72q0 -23 -0.5 -71.5t-0.5 -70.5q16 1 54 4.5t56 4.5q33 1 80 5v-82h-80q-76 -3 -112 -5q-4 -150 -16 -213q-7 -33 -25 -46t-53 -13q-29 0 -134 15l2 72q65 -13 102 -13q20 0 28 5t10 22q7 50 11 165q-104 -8 -324 -30q-2 -210 0 -249q1 -35 2 -50
t7 -36t16.5 -29t30.5 -17t50 -11.5t74 -2.5q169 0 301 22l-3 -86q-165 -17 -293 -17q-88 0 -139 10t-78.5 38.5t-35.5 64.5t-10 103q-1 44 -1 252l-107 -12q-48 -6 -104 -14l-8 84q44 0 106 5q13 1 51 4.5t62 5.5l1 142q0 38 -6 85h89q-3 -35 -3 -82l-1 -136q235 22 324 29
v145q0 47 -5 75z" />
    <glyph glyph-name="uni305C" unicode="&#x305c;" 
d="M887 634l-51 -18q-26 77 -59 146l49 15q45 -95 61 -143zM649 771h87q-3 -22 -5 -74q0 -23 -0.5 -70.5t-0.5 -69.5q19 1 111 7q53 4 80 5v-81h-80q-78 -3 -113 -5q-4 -156 -15 -213q-7 -33 -24.5 -45.5t-53.5 -12.5t-134 14l2 73q57 -13 101 -13q20 0 28 5t10 21
q7 50 11 165q-100 -8 -323 -30q-2 -209 0 -248q1 -26 1.5 -38t3 -31t7 -26.5t13.5 -19t21.5 -16t31.5 -9.5t44 -6.5t58 -1.5q157 0 301 24l-3 -86q-153 -18 -294 -18q-88 0 -139 10t-78 38.5t-35 64t-10 103.5q-1 43 -1 252l-108 -11q-40 -5 -103 -14l-8 84q43 0 105 5
q13 1 51.5 4.5t62.5 5.5l1 141q0 38 -6 85h89q-3 -36 -3 -82l-1 -136q16 1 137.5 13t185.5 17v144q0 48 -5 76zM879 794l50 16q36 -72 61 -142l-51 -18q-30 92 -60 144z" />
    <glyph glyph-name="uni305D" unicode="&#x305d;" 
d="M274 679l-4 84q37 -4 81 -3q40 0 156.5 5t155.5 10q33 3 55 10l52 -59q-29 -17 -54 -38l-141 -116l-162 -133q298 31 481 31v-77q-167 8 -257 -5q-76 -10 -135.5 -66t-59.5 -125q0 -126 174 -149q74 -10 146 -4l-17 -83q-186 -8 -284.5 49t-98.5 174q0 59 36.5 111.5
t81.5 79.5q-163 -13 -364 -45l-7 78q19 2 174 20q103 71 334 273q-9 -1 -124 -7.5t-141 -8.5q-9 -1 -25.5 -2t-29.5 -2t-23 -2z" />
    <glyph glyph-name="uni305E" unicode="&#x305e;" 
d="M693 636l52 22q49 -71 77 -130l-52 -24q-39 81 -77 132zM802 676l51 23q40 -51 81 -128l-52 -25q-44 85 -80 130zM244 679l-4 84q37 -4 81 -3q40 0 156 5t155 10q33 3 55 10l52 -59q-29 -17 -54 -38l-141 -116l-162 -133q298 31 480 31l1 -77q-168 8 -257 -5
q-76 -10 -135 -66t-59 -125q0 -126 174 -149q73 -10 145 -4l-16 -83q-187 -8 -285.5 49t-98.5 174q0 59 36.5 111.5t82.5 79.5q-165 -14 -365 -45l-7 78q19 2 174 20q133 91 334 273q-11 -1 -124.5 -7.5t-139.5 -8.5q-9 -1 -25.5 -2t-29.5 -2t-23 -2z" />
    <glyph glyph-name="uni305F" unicode="&#x305f;" 
d="M550 418v77q85 8 185 8q103 0 175 -8l-2 -78q-102 12 -171 12q-90 0 -187 -11zM615 684v-81q-103 -23 -209 -35q-9 -44 -32 -134q-29 -114 -75 -249.5t-84 -215.5l-90 30q42 74 90.5 205.5t79.5 248.5q16 59 26 107q-49 -3 -93 -3q-45 0 -117 4l-3 80q56 -7 121 -7
q31 0 109 4q8 42 15 89q6 55 3 84l100 -8q-8 -27 -19 -81l-15 -75q97 12 193 37zM499 255l76 -7q-14 -53 -14 -91q0 -43 34.5 -69t132.5 -26q87 0 198 20l-3 -83q-100 -13 -196 -13q-244 0 -244 149q0 44 16 120z" />
    <glyph glyph-name="uni3060" unicode="&#x3060;" 
d="M857 618l-55 -24q-37 78 -83 142l54 24q47 -65 84 -142zM519 403v77q106 8 186 8q103 0 175 -8l-2 -78q-102 12 -171 12q-91 0 -188 -11zM585 670v-82q-120 -25 -210 -34q-7 -35 -32 -135q-29 -114 -75 -249.5t-84 -214.5l-90 30q42 74 90.5 205.5t79.5 247.5
q14 55 26 108q-50 -3 -92 -3q-70 0 -118 4l-3 80q56 -7 122 -7q30 0 108 4q13 68 16 89q6 56 3 83l99 -9q-4 -13 -18 -79l-16 -75q98 12 194 37zM468 241l77 -8q-15 -57 -15 -92q0 -43 34.5 -68t132.5 -25q96 0 198 20l-3 -83q-116 -15 -196 -15q-243 0 -243 151
q0 48 15 120zM833 778l53 24q55 -77 87 -142l-55 -24q-45 89 -85 142z" />
    <glyph glyph-name="uni3061" unicode="&#x3061;" 
d="M800 705l1 -79q-186 -34 -411 -43q-35 -167 -63 -240q66 47 132.5 67.5t150.5 20.5q120 0 188 -55.5t68 -146.5q0 -103 -67 -167.5t-183 -85.5t-272 -4l-22 81q87 -15 170 -10.5t147.5 22.5t103.5 60t39 102q0 59 -47 96t-133 37q-93 0 -171.5 -30.5t-127.5 -89.5
q-20 -23 -32 -47l-75 27q64 125 117 361h-1q-88 0 -192 9l-1 81q106 -18 192 -18h17q6 31 10 67q6 43 5 84l91 -5q-8 -31 -18 -85q-10 -48 -12 -59q213 9 396 50z" />
    <glyph glyph-name="uni3062" unicode="&#x3062;" 
d="M760 682l1 -79q-187 -34 -406 -43q-33 -152 -61 -228q66 47 133 67.5t152 20.5q120 0 188 -55.5t68 -146.5q0 -154 -142.5 -218.5t-381.5 -38.5l-22 81q87 -15 170.5 -10.5t148 22.5t104 60t39.5 102q0 59 -47.5 96t-133.5 37q-93 0 -172 -31t-128 -90q-18 -20 -31 -47
l-75 28q63 125 115 350q-88 0 -191 9l-1 81q98 -17 192 -17h14q9 46 12 77q6 43 5 84l92 -6q-6 -20 -18 -85l-6.5 -33.5l-6.5 -34.5q215 9 389 48zM730 802l54 23q52 -74 84 -141l-55 -25q-39 81 -83 143zM843 843l55 23q56 -79 85 -140l-54 -25q-48 94 -86 142z" />
    <glyph glyph-name="uni3063" unicode="&#x3063;" 
d="M202 326l-34 85q41 7 94 24q7 2 42.5 13.5l57.5 18.5t61 18t68.5 17t65 11t64.5 5q109 0 178 -61t69 -163q0 -142 -124 -221t-337 -91l-33 78q86 3 157 17t129.5 40.5t91.5 72t33 105.5q0 65 -47 106.5t-124 41.5q-115 0 -412 -117z" />
    <glyph glyph-name="uni3064" unicode="&#x3064;" 
d="M117 444l-38 91q31 6 111 29q7 2 61.5 20t88.5 28t89 24.5t104 21.5t91 7q130 0 216 -72t86 -196q0 -89 -42.5 -159.5t-118.5 -116t-175 -71t-219 -32.5l-36 85q104 3 191 20.5t158 51.5t111.5 91t40.5 132q0 82 -57 136t-157 54q-30 0 -67 -5t-70.5 -12.5t-75.5 -20
l-71.5 -22t-70 -25l-60.5 -23t-53 -21t-37 -15.5z" />
    <glyph glyph-name="uni3065" unicode="&#x3065;" 
d="M720 780l54 23q49 -66 84 -141l-55 -25q-31 69 -83 143zM834 821l53 24q49 -65 87 -140l-55 -25q-47 90 -85 141zM102 426l-37 91q40 8 111 30q4 1 60.5 19.5t89.5 28t88.5 24t104 21.5t90.5 7q130 0 216 -72t86 -196q0 -89 -42.5 -159t-118.5 -115.5t-175 -71
t-219 -32.5l-35 85q104 3 191 20.5t158 51t111.5 90.5t40.5 132q0 82 -57.5 136t-157.5 54q-156 0 -505 -144z" />
    <glyph glyph-name="uni3066" unicode="&#x3066;" 
d="M100 590l-9 90q56 1 90 5q19 2 97 9.5l172 16l176 15.5q134 11 273 17v-81q-140 0 -199 -17q-103 -33 -167 -128t-64 -191q0 -58 20.5 -103.5t54.5 -75t80.5 -49.5t94 -29t99.5 -11l-30 -85q-73 3 -142 24t-128 60t-95 104t-36 146q0 112 55.5 204.5t132.5 137.5
q-15 -2 -94 -10l-138.5 -14.5t-132 -16.5t-110.5 -18z" />
    <glyph glyph-name="uni3067" unicode="&#x3067;" 
d="M697 509l53 22q47 -67 84 -142l-53 -24q-44 90 -84 144zM810 551l51 23q44 -59 89 -141l-53 -24q-44 85 -87 142zM94 584l-9 90q56 1 90 5q1 0 167.5 15.5l277.5 25.5q134 11 273 17v-82q-144 0 -199 -16q-103 -33 -167 -129t-64 -192q0 -71 30.5 -123.5t83 -82
t110.5 -44t125 -16.5l-30 -86q-73 3 -142 24.5t-128 60.5t-95 104t-36 146q0 111 55.5 204t132.5 138q-15 -2 -94 -10l-138.5 -14.5t-132 -16.5t-110.5 -18z" />
    <glyph glyph-name="uni3068" unicode="&#x3068;" 
d="M766 684l44 -75q-37 -22 -78 -43l-61 -30.5l-83 -42t-82 -44.5t-82 -50q-151 -98 -151 -204q0 -64 61 -100.5t179 -36.5q187 0 325 35v-92q-148 -25 -321 -25q-152 0 -240.5 50.5t-88.5 158.5q0 141 176 264q-63 111 -148 312l81 33q59 -161 136 -300q54 33 147.5 82
t112.5 60q41 22 73 48z" />
    <glyph glyph-name="uni3069" unicode="&#x3069;" 
d="M724 657l41 -74q-41 -25 -77 -43l-57.5 -29l-73 -37.5l-72.5 -40t-77 -47.5q-151 -100 -151 -205q0 -64 61 -100t179 -36q186 0 324 35l-1 -92q-146 -25 -320 -25q-152 0 -240.5 50.5t-88.5 158.5q0 142 175 264q-56 100 -146 310l81 34q56 -156 135 -300q52 32 139 77.5
t97 51.5q47 26 72 48zM730 770l55 24q38 -54 84 -142l-55 -24q-38 81 -84 142zM844 811l54 24q50 -68 86 -140l-55 -25q-43 88 -85 141z" />
    <glyph glyph-name="uni306A" unicode="&#x306a;" 
d="M950 537l-46 -68q-38 33 -106.5 73.5t-124.5 65.5l40 64q56 -25 128.5 -66.5t108.5 -68.5zM582 690l2 -76q-86 -24 -184 -36q-38 -108 -99.5 -228t-121.5 -202l-80 41q60 70 120 176.5t97 202.5q-45 -3 -89 -3q-60 0 -117 3l-7 77q53 -7 125 -7q48 0 113 5q30 111 32 175
l91 -8q-4 -14 -17.5 -69t-22.5 -88q77 12 158 37zM635 124q0 30 -1 48q-50 14 -103 14q-55 0 -89 -22.5t-34 -57.5q0 -36 29 -57t87 -21t84.5 27t26.5 69zM621 497h81q-3 -40 -1 -110q0 -17 3.5 -75t4.5 -90q110 -40 210 -127l-45 -69q-86 78 -162 115q1 -15 1 -41
q0 -65 -44.5 -106t-133.5 -41t-146 37t-57 109q0 69 57.5 111.5t145.5 42.5q51 0 96 -9q-1 32 -5 122.5t-5 130.5z" />
    <glyph glyph-name="uni306B" unicode="&#x306b;" 
d="M183 775l92 -7q-10 -28 -19 -69q-49 -240 -49 -388q0 -74 8 -139q24 66 56 145l44 -32q-59 -163 -71 -228q-5 -23 -5 -45l3 -36l-74 -5q-37 133 -37 326q0 52 6 118t11.5 107.5t16 106t11.5 74.5q7 56 7 72zM433 284l74 -8q-13 -53 -13 -93q0 -91 170 -91q127 0 250 27
l1 -86q-109 -21 -252 -21q-246 0 -246 152q0 44 16 120zM468 606l-1 84q88 -13 212 -12t205 12v-84q-82 -8 -207.5 -8t-208.5 8z" />
    <glyph glyph-name="uni306C" unicode="&#x306c;" 
d="M655 62q83 0 131 95q-64 37 -124 37q-42 0 -66.5 -19.5t-24.5 -45.5q0 -31 22 -49t62 -18zM454 395q27 79 44 187q-114 -24 -207 -113q7 -18 41 -95q29 -65 61 -112q36 63 61 133zM236 406l-10 -14q-71 -107 -71 -208q0 -38 17 -62t41 -24q62 0 134 95q-35 48 -71 118
q-15 33 -40 95zM587 662h10q129 0 217 -82t88 -219q0 -105 -22 -181q54 -41 104 -99l-49 -62q-53 62 -84 90q-63 -119 -193 -119q-72 0 -115 35.5t-43 96.5q0 55 45 95.5t114 40.5q78 0 150 -36q15 64 15 137q0 102 -61.5 167.5t-170.5 65.5h-14q-19 -127 -52 -221
q-53 -150 -137.5 -253t-178.5 -103q-55 0 -92 43t-37 114q0 143 85 261q22 30 40 50q-4 12 -15.5 42t-15.5 45q-19 63 -37 106l77 32q14 -66 49 -168q108 91 244 114q4 46 5 61q3 47 -1 84l92 -3q-2 -11 -4 -25.5t-4 -31.5t-3 -24z" />
    <glyph glyph-name="uni306D" unicode="&#x306d;" 
d="M656 67q97 0 134 108q-68 37 -139 37q-40 0 -69 -20.5t-29 -50.5q0 -37 28.5 -55.5t74.5 -18.5zM379 656l30 -35q-24 -36 -45 -71q0 -8 -2 -24.5t-3 -25.5q187 167 323 167q100 0 155 -80.5t55 -210.5q0 -98 -13 -169q55 -39 112 -99l-43 -67q-43 49 -90 88
q-53 -135 -196 -135q-79 0 -129.5 36t-50.5 108q0 61 49.5 101t126.5 40q76 0 148 -31q8 57 8 142q0 94 -41 149.5t-105 55.5q-66 0 -153.5 -57t-161.5 -136q-4 -61 -4 -130q0 -153 4 -244q2 -36 5 -62h-89q3 42 3 61q2 217 3 260q0 4 0.5 17.5t0.5 21.5q-87 -133 -164 -240
l-52 71q149 189 225 308l6 97l-198 -25l-8 84q20 -1 67 1q70 4 144 17q5 78 5 95q0 55 -4 76l97 -3q-10 -48 -20 -153z" />
    <glyph glyph-name="uni306E" unicode="&#x306e;" 
d="M278 143q36 0 76 58.5t77 180.5q38 124 56 273q-93 -12 -166.5 -65t-110 -122.5t-36.5 -139.5q0 -88 33 -136.5t71 -48.5zM545 -27l-47 77q39 2 87 12q108 24 182.5 100.5t74.5 199.5q0 119 -72 201.5t-198 92.5q-23 -165 -60 -291q-94 -316 -238 -316q-71 0 -126 76
t-55 196q0 167 130.5 289.5t314.5 122.5q174 0 281.5 -107.5t107.5 -265.5q0 -160 -100.5 -261.5t-281.5 -125.5z" />
    <glyph glyph-name="uni306F" unicode="&#x306f;" 
d="M174 786l90 -7q-10 -27 -17 -68q-17 -82 -33.5 -206t-16.5 -203q0 -75 9 -138q21 59 57 147l43 -33q-59 -162 -72 -225q-6 -28 -5 -45q0 -5 3 -35l-72 -6q-39 142 -39 322q0 42 3.5 91t9.5 100.5t11 88.5t12.5 85.5t9.5 60.5q7 42 7 71zM691 158q0 21 -1 33
q-51 17 -103 17q-57 0 -92.5 -23t-35.5 -58q0 -37 33 -58t89 -21q61 0 85.5 27.5t24.5 82.5zM968 108l-44 -67q-80 75 -153 116v-19q0 -72 -40.5 -119t-135.5 -47q-101 0 -156 39.5t-55 107.5q0 66 56 110t153 44q51 0 94 -9q-1 25 -3.5 78.5l-4.5 98.5t-2 82q-66 -2 -97 -2
q-52 0 -170 6v78q86 -9 172 -9q31 0 95 2v126q0 33 -5 61h93q-4 -28 -6 -60q-1 -28 -3 -122q84 6 175 24v-80q-86 -14 -175 -20q0 -41 12 -287q94 -38 200 -132z" />
    <glyph glyph-name="uni3070" unicode="&#x3070;" 
d="M891 669l-52 -19q-26 77 -59 146l50 15q42 -86 61 -142zM150 776l90 -8q-7 -19 -18 -68q-17 -82 -33.5 -206t-16.5 -202q0 -76 9 -139q15 44 58 147l43 -34q-60 -164 -72 -224q-6 -28 -5 -45q1 -5 2 -17.5t1 -17.5l-73 -6q-39 142 -39 322q0 125 47 425q7 58 7 73z
M667 146q0 22 -1 35q-53 16 -104 16q-57 0 -92.5 -23t-35.5 -58q0 -37 33 -58t89 -21q61 0 86 27.5t25 81.5zM906 615v-79q-86 -14 -175 -20q0 -42 12 -288q94 -38 200 -132l-44 -66q-76 73 -153 116v-19q0 -72 -40.5 -119t-135.5 -47q-101 0 -156 39.5t-55 108.5
q0 66 56 109.5t153 43.5q52 0 95 -9q-1 15 -5.5 112.5t-5.5 146.5q-66 -2 -97 -2q-67 0 -170 7v77q85 -9 172 -9q31 0 95 2v126q0 26 -4 62h92q-4 -29 -6 -61q-1 -28 -3 -122q93 7 175 23zM883 826l50 17q37 -75 62 -142l-52 -18q-35 99 -60 143z" />
    <glyph glyph-name="uni3071" unicode="&#x3071;" 
d="M150 776l90 -8q-7 -19 -18 -68q-17 -82 -33.5 -206t-16.5 -202q0 -76 9 -139q15 44 58 147l43 -34q-60 -164 -72 -224q-6 -28 -5 -45q1 -5 2 -17.5t1 -17.5l-73 -6q-39 142 -39 322q0 125 47 425q7 58 7 73zM667 146q0 22 -1 35q-53 16 -104 16q-57 0 -92.5 -23
t-35.5 -58q0 -37 33 -58t89 -21q61 0 86 27.5t25 81.5zM906 615v-79q-86 -14 -175 -20q0 -42 12 -288q94 -38 200 -132l-44 -66q-76 73 -153 116v-19q0 -72 -40.5 -119t-135.5 -47q-101 0 -156 39.5t-55 108.5q0 66 56 109.5t153 43.5q52 0 95 -9q-1 15 -5.5 112.5
t-5.5 146.5q-66 -2 -97 -2q-67 0 -170 7v77q85 -9 172 -9q31 0 95 2v126q0 26 -4 62h92q-4 -29 -6 -61q-1 -28 -3 -122q93 7 175 23zM848 711q18 -18 44 -18t43.5 17.5t17.5 43.5t-17.5 44t-43.5 18t-44 -18t-18 -44t18 -43zM892 861q44 0 75.5 -31.5t31.5 -75.5
t-31.5 -75.5t-75.5 -31.5q-45 0 -76 31.5t-31 75.5t31 75.5t76 31.5z" />
    <glyph glyph-name="uni3072" unicode="&#x3072;" 
d="M965 336l-61 -64q-68 84 -125 190q8 -98 -9 -187.5t-57.5 -162t-113 -115.5t-167.5 -43q-122 0 -193 72t-71 195q0 119 55 233t128 190q-107 -17 -168 -29q-34 -6 -56 -11l-11 86q27 0 54 3q71 6 177.5 25t148.5 35l24 -74q-4 -2 -16 -5.5t-22 -7t-16 -6.5
q-66 -50 -141.5 -177t-75.5 -251q0 -98 52.5 -146t133.5 -48q161 0 236 171t24 446l-24 75l78 25q54 -256 216 -419z" />
    <glyph glyph-name="uni3073" unicode="&#x3073;" 
d="M892 655l-53 -20q-40 97 -69 146l51 18q55 -105 71 -144zM650 715l79 24q54 -256 216 -418l-60 -64q-71 86 -125 189q8 -98 -9 -187.5t-57.5 -162t-113.5 -115.5t-168 -43q-122 0 -193 72.5t-71 195.5q0 119 55 233t128 190q-102 -16 -167 -29q-8 -2 -56 -11l-13 86
q28 0 55 3q73 6 178.5 24t146.5 34l25 -73l-24.5 -8t-29.5 -11q-66 -49 -142 -176t-76 -251q0 -98 53 -146t134 -48q161 0 236.5 171t23.5 447l-11 32.5zM876 819l50 20q31 -51 72 -144l-53 -19q-40 98 -69 143z" />
    <glyph glyph-name="uni3074" unicode="&#x3074;" 
d="M650 715l79 24q54 -256 216 -418l-60 -64q-71 86 -125 189q8 -98 -9 -187.5t-57.5 -162t-113.5 -115.5t-168 -43q-122 0 -193 72.5t-71 195.5q0 119 55 233t128 190q-102 -16 -167 -29q-8 -2 -56 -11l-13 86q28 0 55 3q73 6 178.5 24t147.5 34l24 -73l-24.5 -8t-29.5 -11
q-66 -49 -142 -176t-76 -251q0 -98 53 -146t134 -48q161 0 236.5 171t23.5 447l-11 32.5zM892 659q27 0 46 19t19 47t-19 47.5t-46 19.5q-28 0 -47.5 -19.5t-19.5 -47.5t19.5 -47t47.5 -19zM892 838q46 0 79.5 -33.5t33.5 -79.5t-33.5 -79.5t-79.5 -33.5q-47 0 -80 33
t-33 80t33 80t80 33z" />
    <glyph glyph-name="uni3075" unicode="&#x3075;" 
d="M567 511l-52 49q44 28 71 51q-69 56 -217 118l48 61q159 -67 250 -134l19 -53q-83 -67 -119 -92zM332 -9l-11 86q82 -24 163 -24q42 0 72 19.5t30 64.5q0 82 -130 221q-46 46 -82 77l62 52l74 -77q79 -82 120.5 -150t41.5 -132q0 -44 -16.5 -76t-44 -47.5t-55.5 -22.5
t-59 -7q-75 0 -165 16zM980 79l-76 -41q-23 77 -71.5 169.5t-98.5 149.5l69 38q50 -58 100.5 -151t76.5 -165zM307 296l48 -62q-48 -49 -119 -106t-140 -98l-49 67q62 33 139 92t121 107z" />
    <glyph glyph-name="uni3076" unicode="&#x3076;" 
d="M729 657l54 24q50 -70 84 -142l-55 -25q-31 69 -83 143zM843 698l53 24q49 -65 87 -140l-55 -25q-50 95 -85 141zM545 504l-52 49q35 20 69 50q-72 59 -216 118l48 60q167 -71 250 -133l20 -53zM309 -17l-12 86q83 -24 164 -24q42 0 72 19.5t30 64.5q0 80 -130 222
q-39 39 -82 76l63 53q2 -2 73 -79q79 -83 120.5 -149.5t41.5 -130.5q0 -44 -16.5 -76t-44 -48t-55.5 -23t-59 -7q-75 0 -165 16zM957 71l-75 -41q-23 76 -71.5 169.5t-98.5 150.5l68 37q50 -58 100.5 -150.5t76.5 -165.5zM284 289l49 -62q-117 -121 -259 -205l-49 68
q63 34 139.5 93t119.5 106z" />
    <glyph glyph-name="uni3077" unicode="&#x3077;" 
d="M795 616q0 -28 19.5 -47.5t47.5 -19.5q29 0 49 19.5t20 47.5t-20.5 48.5t-48.5 20.5t-47.5 -20t-19.5 -49zM748 616q0 49 33.5 82.5t80.5 33.5q48 0 82 -34t34 -82q0 -47 -34.5 -80.5t-81.5 -33.5t-80.5 33.5t-33.5 80.5zM545 504l-52 49q35 20 69 50q-72 59 -216 118
l48 60q167 -71 250 -133l20 -53zM309 -17l-12 86q83 -24 164 -24q42 0 72 19.5t30 64.5q0 80 -130 222q-39 39 -82 76l63 53q2 -2 73 -79q79 -83 120.5 -149.5t41.5 -130.5q0 -44 -16.5 -76t-44 -48t-55.5 -23t-59 -7q-75 0 -165 16zM957 71l-75 -41q-23 76 -71.5 169.5
t-98.5 150.5l68 37q50 -58 100.5 -150.5t76.5 -165.5zM284 289l49 -62q-117 -121 -259 -205l-49 68q63 34 139.5 93t119.5 106z" />
    <glyph glyph-name="uni3078" unicode="&#x3078;" 
d="M137 206l-76 79q31 22 73 66q24 24 58.5 66.5l78.5 98l62 77.5q45 53 86.5 57t93.5 -46q30 -31 101.5 -114.5l102.5 -117.5q143 -157 253 -256l-65 -73q-87 83 -239 254l-99.5 117l-91.5 107q-34 33 -52 31.5t-44 -34.5q-15 -18 -84 -108t-98 -125q-38 -46 -60 -79z" />
    <glyph glyph-name="uni3079" unicode="&#x3079;" 
d="M649 666l60 25q52 -77 97 -164l-61 -26q-52 106 -96 165zM783 717l58 26q60 -80 100 -160l-58 -29q-51 99 -100 163zM127 187l-75 78q29 21 73 68q24 24 58 64.5l80 99l61 76.5q45 54 87 58t93 -46q30 -31 101.5 -115t103.5 -118q135 -151 252 -256l-65 -72
q-82 78 -240 256l-96.5 115t-93.5 109q-33 33 -51.5 31.5t-44.5 -34.5l-88 -113l-95 -121q-12 -15 -32.5 -43.5t-27.5 -36.5z" />
    <glyph glyph-name="uni307A" unicode="&#x307a;" 
d="M868 605q0 32 -22 54t-53 22t-53.5 -22.5t-22.5 -53.5t22.5 -53.5t53.5 -22.5t53 22.5t22 53.5zM705 517q-36 36 -36 88t36 88.5t88 36.5t89 -36.5t37 -88.5t-37 -88t-89 -36t-88 36zM127 187l-75 78q29 21 73 68q24 24 58 64.5l80 99l61 76.5q45 54 87 58t93 -46
q30 -31 101.5 -115t103.5 -118q135 -151 252 -256l-65 -72q-82 78 -240 256l-96.5 115t-93.5 109q-33 33 -51.5 31.5t-44.5 -34.5l-88 -113l-95 -121q-12 -15 -32.5 -43.5t-27.5 -36.5z" />
    <glyph glyph-name="uni307B" unicode="&#x307b;" 
d="M173 782l91 -8q-8 -24 -18 -67q-17 -85 -33 -206t-16 -199q0 -65 9 -140q9 27 57 149l43 -33q-62 -178 -72 -225q-5 -22 -5 -45l3 -35l-73 -6q-38 139 -38 322q0 127 46 421q6 48 6 72zM678 145q0 25 -1 41q-50 14 -94 14q-54 0 -86.5 -20.5t-32.5 -52.5q0 -76 115 -76
q55 0 77 24.5t22 69.5zM929 512v-75q-84 -10 -188 -14q1 -46 8 -186q110 -37 215 -132l-43 -71q-77 80 -168 124q1 -17 1 -46q0 -62 -43.5 -97t-124.5 -35q-87 0 -141 37t-54 106q0 58 50 99t144 41q38 0 89 -7q-6 98 -7 164q-122 -3 -245 3v75q113 -8 244 -5v166
q-115 -5 -229 0v73q235 -17 468 16v-73q-67 -7 -165 -12v-167q86 5 189 16z" />
    <glyph glyph-name="uni307C" unicode="&#x307c;" 
d="M144 767l92 -8q-12 -33 -18 -67q-18 -83 -34 -204.5t-16 -199.5q0 -77 9 -141q13 36 57 150l44 -34q-60 -164 -72 -224q-6 -26 -4 -45q0 -15 2 -35l-74 -6q-38 139 -38 321q0 127 46 421q6 48 6 72zM649 130q0 26 -1 42q-46 13 -94 13q-54 0 -86.5 -20t-32.5 -52
q0 -37 30.5 -56.5t84.5 -19.5q55 0 77 24.5t22 68.5zM900 498v-75q-77 -9 -187 -15q1 -36 4 -105.5t3 -81.5q116 -39 215 -130l-43 -72q-77 80 -168 124q1 -17 1 -46q0 -63 -43.5 -97.5t-124.5 -34.5q-88 0 -141.5 37t-53.5 107q0 58 50 98.5t144 40.5q38 0 89 -7
q-6 97 -7 165q-136 -3 -245 2v75q113 -8 244 -5v166q-116 -3 -227 1v73q208 -15 408 8q-14 38 -28 64l49 15q45 -96 60 -142l-51 -19l-6 19v-7q-44 -5 -130 -10v-165q64 4 188 17zM892 820l50 18q35 -69 62 -144l-52 -17q-36 102 -60 143z" />
    <glyph glyph-name="uni307D" unicode="&#x307d;" 
d="M144 767l92 -8q-12 -33 -18 -67q-18 -83 -34 -204.5t-16 -199.5q0 -77 9 -141q13 36 57 150l44 -34q-60 -164 -72 -224q-6 -26 -4 -45q0 -15 2 -35l-74 -6q-38 139 -38 321q0 127 46 421q6 48 6 72zM907 834q-26 0 -43.5 -18t-17.5 -44t17.5 -43.5t43.5 -17.5t44 17.5
t18 43.5t-18.5 44t-43.5 18zM649 130q0 26 -1 42q-46 13 -94 13q-54 0 -86.5 -20t-32.5 -52q0 -37 30.5 -56.5t84.5 -19.5q55 0 77 24.5t22 68.5zM833 695v-40q-57 -6 -121 -9v-165q64 4 188 17v-75q-77 -9 -187 -15q1 -36 4 -105.5t3 -81.5q116 -39 215 -130l-43 -72
q-77 80 -168 124q1 -17 1 -46q0 -63 -43.5 -97.5t-124.5 -34.5q-88 0 -141.5 37t-53.5 107q0 58 50 98.5t144 40.5q38 0 89 -7q-6 97 -7 165q-136 -3 -245 2v75q113 -8 244 -5v165q-98 -3 -227 2v73q216 -16 401 7q-10 23 -10 47q0 45 30.5 76.5t75.5 31.5q44 0 76 -32
t32 -76q0 -45 -31.5 -75.5t-76.5 -30.5q-43 0 -74 29z" />
    <glyph glyph-name="uni307E" unicode="&#x307e;" 
d="M513 119q0 7 -0.5 30t-0.5 38q-53 10 -98 10q-70 0 -109.5 -23.5t-39.5 -59.5q0 -37 34.5 -59.5t106.5 -22.5q107 0 107 87zM883 84l-46 -72q-115 105 -245 153q2 -52 2 -64q0 -59 -43.5 -100.5t-135.5 -41.5q-109 0 -168 39t-59 112q0 70 63.5 112t172.5 42q43 0 85 -6
q-4 87 -5 135h-57q-117 0 -254 15v77q109 -19 254 -19h55v14v131h-50q-102 0 -239 16v75q105 -19 238 -19h52v67q0 39 -3 60h87q-3 -20 -5 -68q-1 -12 -1 -56q116 4 260 25l1 -75q-173 -17 -262 -22v-134v-11q129 5 281 27l1 -77q-145 -18 -281 -24q1 -28 3.5 -80.5
l3.5 -72.5q151 -42 295 -158z" />
    <glyph glyph-name="uni307F" unicode="&#x307f;" 
d="M272 162q30 38 109 217q-104 -9 -166 -63t-62 -122q0 -31 17 -49.5t41 -18.5q33 0 61 36zM967 252l-37 -86q-46 40 -106 80q-32 -101 -95.5 -174.5t-171.5 -127.5l-68 56q207 87 266 287q-145 79 -289 91q-95 -216 -128 -264q-50 -71 -128 -71q-57 0 -94.5 38t-37.5 101
q0 113 94.5 189.5t242.5 80.5l48 107.5t57 122.5q-22 -2 -105.5 -6l-104.5 -5q-43 -2 -74 -7l-5 86q43 -5 77 -5q72 0 230 11q29 3 49 11l52 -42q-21 -23 -27 -34q-13 -20 -29.5 -55l-45 -100l-39.5 -89q137 -14 275 -80q4 27 8 75q4 51 1 94l84 -10q-6 -118 -21 -196
q65 -37 122 -78z" />
    <glyph glyph-name="uni3080" unicode="&#x3080;" 
d="M176 296q0 -40 21 -64t50 -24q41 0 61 41t20 99q0 35 -16.5 56t-42.5 21q-38 0 -65.5 -36.5t-27.5 -92.5zM757 284l88 -28q1 -79 0 -110q-3 -71 -33 -107.5t-99 -56.5q-80 -20 -210 -20q-74 0 -122 8.5t-71.5 26t-32 38t-8.5 51.5q0 9 0.5 25.5t0.5 23.5q-14 -3 -31 -3
q-51 0 -91 39.5t-40 120.5t46.5 140.5t118.5 59.5q3 0 27 -3v101q-12 -1 -36 -1q-90 0 -162 10l-4 76q87 -13 161 -13q27 0 41 1v50q0 65 -7 96h90q-6 -44 -6 -96v-44q92 9 193 36v-79q-96 -22 -193 -31v-153q25 -39 25 -90q0 -112 -53 -172q-2 -44 -2 -64q0 -31 9.5 -45.5
t44.5 -23t107 -8.5q111 0 172 17q42 12 63 38t21 75q0 67 -7 115zM685 653l53 55q44 -30 106 -87.5t96 -100.5l-57 -58q-36 46 -95.5 103t-102.5 88z" />
    <glyph glyph-name="uni3081" unicode="&#x3081;" 
d="M416 329q10 -18 20 -34q68 113 118 282q-115 -6 -216 -70q42 -119 78 -178zM242 116q64 0 147 109l-24 39q-39 62 -91 195q-50 -47 -79 -111t-29 -124q0 -51 20.5 -79.5t55.5 -28.5zM595 798l89 -8q-3 -12 -8.5 -40.5t-8.5 -38.5l-17 -69q124 -21 199.5 -109.5
t75.5 -217.5q0 -148 -97.5 -240t-264.5 -115l-49 73q156 13 242.5 89.5t86.5 195.5q0 98 -57 167t-154 86q-65 -222 -149 -345q28 -38 63 -70l-64 -53q-29 32 -48 58q-103 -126 -201 -126q-61 0 -101.5 48.5t-40.5 135.5q0 85 43.5 170t113.5 143q-22 64 -31 94
q-16 53 -33 91l85 26q3 -17 21 -89q4 -15 23 -77q119 69 260 71q13 52 16 73q8 38 6 77z" />
    <glyph glyph-name="uni3082" unicode="&#x3082;" 
d="M693 417l91 18q105 -115 105 -234q0 -112 -92 -177.5t-244 -65.5q-113 0 -181.5 54.5t-68.5 171.5q0 40 8 117q-124 10 -211 37l4 78q91 -32 214 -41l12 91t11 91q-116 10 -216 35l4 76q96 -30 221 -37q8 69 11 105q3 41 1 71l93 -5q-10 -40 -14 -71q-1 -12 -5.5 -46.5
l-7.5 -56.5q116 0 205 12l-2 -77q-108 -10 -206 -10h-7q-11 -78 -23 -181h20q116 0 211 12l-2 -78q-87 -9 -199 -9h-37q-6 -60 -6 -100q0 -74 43 -116t128 -42q116 0 184 46t68 125q0 114 -112 207z" />
    <glyph glyph-name="uni3083" unicode="&#x3083;" 
d="M589 553l-58 -44q-49 52 -109 96l56 43q61 -41 111 -95zM207 542l81 31q11 -26 25 -48q29 -53 49 -97q206 90 301 90q94 0 144 -47.5t50 -116.5q0 -82 -51 -129t-152 -47q-58 0 -126 25l3 76q62 -29 119 -29q68 0 99 29.5t31 74.5q0 37 -29.5 64.5t-91.5 27.5
q-89 0 -266 -81q5 -12 17 -37.5t17 -37.5q46 -105 123 -342l-81 -22q-59 209 -113 333l-32 74l-63 -31.5l-61.5 -30l-39.5 -18.5l-39 80q30 7 72 21q14 5 100 44q-28 60 -45 85q-21 38 -41 59z" />
    <glyph glyph-name="uni3084" unicode="&#x3084;" 
d="M609 709l-59 -46q-77 77 -132 117l59 43q87 -66 132 -114zM162 702l84 33q16 -32 36 -66l58 -117q244 108 365 108q103 0 164.5 -53t61.5 -138q0 -92 -59.5 -149t-174.5 -57q-72 0 -151 29l3 82q72 -34 143 -34q79 0 118 37t39 95q0 49 -38.5 82.5t-109.5 33.5
q-106 0 -329 -103l39 -84q69 -156 153 -426l-88 -23q-69 259 -138 416q-7 17 -21 46.5t-17 37.5l-97 -48.5t-98 -47.5l-39 84q38 10 84 28l33.5 14l44 19t40.5 18q-27 61 -57 112q-17 31 -49 71z" />
    <glyph glyph-name="uni3085" unicode="&#x3085;" 
d="M609 127q94 0 142 48t48 127q0 69 -41.5 113t-128.5 48q6 -63 6 -132q0 -116 -26 -204zM526 627l81 2q13 -78 15 -98q120 -1 185.5 -65t65.5 -162q0 -110 -67.5 -181.5t-196.5 -71.5q-10 0 -28 2q-44 -83 -120 -133l-71 42q74 42 115 111q-88 40 -132 130l42 59
q47 -94 121 -122q26 78 26 195q0 65 -5 123q-102 -18 -172 -91.5t-89 -161.5q-7 -33 -6 -51q2 -44 12 -82l-70 -11q-28 95 -28 217q0 99 22 268q2 30 1 41l85 -7q-4 -12 -11 -40q-29 -134 -26 -238q37 88 111 146t164 76q-5 36 -9 56q-6 23 -15 47z" />
    <glyph glyph-name="uni3086" unicode="&#x3086;" 
d="M608 184h5q106 0 169.5 57.5t63.5 156.5q0 87 -55 144t-160 60q7 -91 7 -164q0 -149 -30 -254zM518 807l85 2q13 -58 21 -136q138 0 219.5 -77.5t81.5 -194.5q0 -130 -80.5 -212.5t-231.5 -82.5l-33 3q-51 -106 -146 -168l-76 45q93 50 142 142q-112 44 -167 157l48 57
q54 -112 148 -144q32 95 32 240q0 62 -6 158q-83 -15 -152.5 -66.5t-109.5 -115t-56 -131.5q-9 -34 -8 -63q2 -40 14 -95l-72 -11q-33 116 -33 262q0 40 3.5 90.5t7.5 85l9.5 80t6.5 54.5q2 35 1 47l88 -7q-10 -34 -13 -48q-36 -184 -28 -295q42 111 132.5 186.5t202.5 96.5
q-5 43 -13 78q-7 38 -17 63z" />
    <glyph glyph-name="uni3087" unicode="&#x3087;" 
d="M478 89q0 33 -1 55q-42 7 -70 7q-63 0 -99.5 -18.5t-36.5 -53.5q0 -30 33 -49.5t90 -19.5q41 0 62.5 21t21.5 58zM544 411v-27q0 -31 7 -187q140 -38 257 -145l-43 -70q-94 96 -210 140q0 -12 0.5 -31t0.5 -26q0 -54 -37.5 -89.5t-116.5 -35.5q-92 0 -147.5 35.5
t-55.5 100.5t56.5 102.5t159.5 37.5q34 0 59 -4q-6 122 -6 177v162q0 59 -7 84h89q-6 -30 -6 -83v-72q145 4 252 16l1 -72q-111 -11 -253 -13z" />
    <glyph glyph-name="uni3088" unicode="&#x3088;" 
d="M478 139q0 7 -0.5 28.5t-0.5 35.5q-47 10 -99 10q-77 0 -120.5 -24.5t-43.5 -66.5t40.5 -64.5t113.5 -22.5q110 0 110 104zM547 522v-7q0 -77 10 -253q179 -49 315 -173l-49 -76q-112 114 -263 167q2 -54 2 -67q0 -68 -45.5 -111.5t-140.5 -43.5q-111 0 -177 39t-66 122
q0 73 65 120t190 47q42 0 86 -6q-8 164 -8 235q0 142 -1 185q-2 72 -8 101h98q-6 -32 -8 -101v-103q192 5 300 19l3 -77q-150 -13 -303 -17z" />
    <glyph glyph-name="uni3089" unicode="&#x3089;" 
d="M324 722l21 78q64 -21 193.5 -46.5t198.5 -31.5l-19 -80q-71 10 -203 36.5t-191 43.5zM236 627l87 -12q-6 -31 -40 -282q139 122 327 122q115 0 187 -60.5t72 -151.5q0 -145 -133.5 -221t-403.5 -53l-25 84q230 -28 353 27.5t123 164.5q0 60 -50 98.5t-128 38.5
q-199 0 -313 -134q-19 -23 -31 -51l-77 18q15 67 31 198.5t21 213.5z" />
    <glyph glyph-name="uni308A" unicode="&#x308a;" 
d="M259 808l90 -3q-33 -111 -47 -282q34 88 110 159.5t165 71.5q103 0 167.5 -95t64.5 -253q0 -200 -113 -307.5t-316 -144.5l-48 74q89 14 155.5 38t122 66.5t85 110.5t29.5 161q0 125 -41.5 200t-119.5 75q-60 0 -118.5 -52t-94.5 -124.5t-42 -140.5q-7 -57 2 -123l-80 -7
q-10 76 -10 161q0 116 31 328q7 53 8 87z" />
    <glyph glyph-name="uni308B" unicode="&#x308b;" 
d="M511 34q43 0 81 6q-7 61 -42 98t-92 37q-34 0 -57.5 -18t-23.5 -44q0 -37 37.5 -58t96.5 -21zM720 770l47 -59l-56 -39q-22 -17 -67 -55l-111.5 -94.5l-86.5 -73.5q64 21 138 21q126 0 208 -68.5t82 -171.5q0 -123 -95 -196.5t-255 -73.5q-102 0 -162.5 40.5t-60.5 104.5
q0 54 44.5 94t112.5 40q90 0 144 -52t65 -128q126 49 126 172q0 74 -66 123t-163 49q-81 0 -148 -24.5t-118 -64t-122 -112.5l-59 60l273 227l233 199q-183 -7 -306 -14q-45 -2 -68 -6l-2 85q23 -3 71 -3q45 0 177.5 4.5t169.5 7.5q41 4 55 8z" />
    <glyph glyph-name="uni308C" unicode="&#x308c;" 
d="M979 170l13 -88q-83 -85 -186 -85q-51 0 -82 33.5t-31 95.5q0 58 19 194.5t19 183.5q0 83 -81 83q-58 0 -139.5 -56.5t-158.5 -139.5q-3 -65 -3 -119q0 -153 4 -244q2 -36 5 -62h-89q3 42 3 61q2 217 3 260q0 4 0.5 17.5t0.5 21.5q-87 -133 -164 -240l-52 71
q149 189 225 308l6 97l-198 -25l-8 85q35 -2 67 1q66 4 144 16q5 80 5 95q0 55 -4 76l97 -3q-10 -48 -20 -153l5 2l30 -35q-24 -36 -45 -71l-6 -57q73 68 158 119t153 51q70 0 106.5 -36.5t36.5 -100.5q0 -50 -19 -189t-19 -190q0 -61 52 -61q76 0 153 84z" />
    <glyph glyph-name="uni308D" unicode="&#x308d;" 
d="M250 662l-3 84q27 -3 68 -3q167 0 330 10q35 2 56 9l49 -61q-12 -5 -44 -28q-165 -126 -273 -221q68 28 153 28q124 0 203.5 -65t79.5 -169q0 -148 -137.5 -224.5t-370.5 -57.5l-24 83q198 -24 322.5 30.5t124.5 169.5q0 73 -58.5 118.5t-155.5 45.5q-66 0 -122 -16
t-106 -51t-83 -65.5t-84 -83.5l-59 63q83 78 275.5 243.5t208.5 180.5q-14 -1 -133 -6t-148 -7q-53 -5 -69 -7z" />
    <glyph glyph-name="uni308E" unicode="&#x308e;" 
d="M419 525l28 -30q-1 -1 -15.5 -23.5l-22.5 -35.5q-1 -6 -2 -20t-1 -20q125 103 252 103q98 0 163.5 -60t65.5 -154q0 -245 -309 -300l-36 71q125 16 197.5 73.5t72.5 157.5q0 54 -42 99t-121 45q-122 0 -249 -115q-2 -48 -2 -67q0 -135 5 -233q1 -7 3 -24.5t2 -24.5h-81
q3 33 3 47q0 188 2 249l-42 -64.5l-52.5 -80l-40.5 -59.5l-46 63q81 98 186 255q1 12 2.5 36t2.5 36q-83 -13 -166 -28l-7 72q33 0 50 1q41 3 128 16q7 83 7 88q2 31 -1 60l86 -1q-10 -46 -20 -132z" />
    <glyph glyph-name="uni308F" unicode="&#x308f;" 
d="M379 656l30 -35q-24 -36 -45 -71q-1 -10 -6 -65q155 126 322 126q110 0 188 -70.5t79 -185.5q1 -147 -96.5 -234t-272.5 -120l-37 77q68 10 123.5 30.5t102 53t72 82.5t25.5 113q0 67 -51 123.5t-144 56.5q-163 0 -317 -146q-3 -63 -3 -119q0 -153 4 -244q2 -36 5 -62
h-89q3 42 3 61q2 217 3 260q0 4 0.5 17.5t0.5 21.5q-87 -133 -164 -240l-52 71q149 189 225 308l6 97l-198 -25l-8 85q35 -2 67 1q66 4 144 16q5 80 5 95q0 55 -4 76l97 -3q-10 -48 -20 -153z" />
    <glyph glyph-name="uni3090" unicode="&#x3090;" 
d="M604 33q53 0 99 19q-14 54 -44.5 83t-75.5 29q-34 0 -56.5 -17t-22.5 -45q0 -32 28 -50.5t72 -18.5zM401 376q29 80 36 102q-117 -42 -192.5 -140t-75.5 -182q0 -29 13 -46t32 -17q33 0 60 28q57 66 127 255zM579 690l-37 -119q26 2 40 2q148 0 236.5 -87.5t88.5 -222.5
q0 -127 -75 -214t-222 -87q-79 0 -126.5 36t-47.5 98q0 56 42 92.5t103 36.5q70 0 116 -37t66 -96q64 64 64 172q0 104 -66 172t-181 68q-23 0 -61 -4q-25 -79 -57 -169q-70 -201 -140 -276q-45 -49 -116 -49q-45 0 -78 35t-33 97q0 136 106 258.5t262 161.5q31 108 39 143
q-192 -10 -281 -19l-4 83q42 -4 66 -3q114 0 210 8q34 3 58 12l53 -40q-17 -26 -25 -52z" />
    <glyph glyph-name="uni3091" unicode="&#x3091;" 
d="M451 424q-31 0 -55 -12.5t-24 -36.5q0 -49 93 -60q61 27 61 64q0 22 -21 33.5t-54 11.5zM688 791l46 -59q-67 -23 -246 -125q50 10 104 10q100 -1 168 -48t68 -124q0 -95 -87 -146.5t-215 -51.5q-42 0 -80 6q-46 -34 -105 -82q110 14 161 -102q31 55 84.5 91t112.5 36
q81 0 144.5 -56.5t104.5 -151.5l-82 -33q-60 171 -173 171q-45 0 -85 -33t-60 -86q-2 -5 -9 -43l-82 1q-2 27 -7 43q-33 107 -120 107q-49 0 -95 -42t-100 -116l-72 42q68 72 152.5 151t150.5 129q-61 34 -61 90q0 48 45.5 77t106.5 29q63 0 101.5 -26.5t38.5 -69.5
q0 -35 -32 -65q78 7 131 42t53 87q0 54 -53 87t-129 33q-108 0 -183 -34q-77 -35 -204 -133l-50 60q121 84 428 260q-207 -5 -304 -14l-3 72q51 -3 70 -3q167 0 300 8q42 3 67 12z" />
    <glyph glyph-name="uni3092" unicode="&#x3092;" 
d="M606 138h-79q4 52 4 158q-77 -42 -118 -82.5t-41 -87.5q0 -29 13 -48t40 -28t56.5 -12t73.5 -3q134 0 276 24l-2 -83q-137 -16 -277 -16q-122 0 -192 34.5t-70 120.5q0 43 19.5 81.5t56.5 70.5t74 55t88 50q-15 62 -91 62q-91 0 -175 -75q-9 -8 -92 -106l-70 52
q162 157 234 309h-42q-71 0 -167 7v76q90 -10 171 -10q42 0 66 1q23 74 26 126l84 -7q-18 -73 -31 -117q176 9 311 31l-1 -76q-148 -22 -336 -29q-40 -90 -91 -155q59 38 140 38q51 0 87 -24t47 -68q37 17 98.5 43t85.5 38q9 4 84 40l33 -76q-10 -3 -89 -32
q-137 -55 -207 -88q0 -24 1 -95.5t2 -98.5z" />
    <glyph glyph-name="uni3093" unicode="&#x3093;" 
d="M476 807l91 -37q-12 -15 -32 -49q-68 -106 -196 -347q68 61 148 61q52 0 85 -32.5t35 -91.5q1 -20 1.5 -89.5t2.5 -97.5q2 -36 24 -54t57 -18q53 0 97.5 41t69 93t39.5 113l68 -54q-90 -278 -287 -278q-74 0 -109 38.5t-38 90.5q-2 32 -3 100.5t-2 92.5q-3 70 -73 70
q-57 0 -110.5 -47.5t-86.5 -113.5q-22 -42 -49 -116t-38 -115l-89 30q49 134 170 373.5t188 357.5q4 9 17 35.5t20 43.5z" />
    <glyph glyph-name="uni309B" unicode="&#x309b;" 
d="M14 786l58 24q32 -45 99 -165l-59 -25q-58 112 -98 166zM142 836l59 24q31 -44 100 -165l-59 -24q-67 123 -100 165z" />
    <glyph glyph-name="uni309C" unicode="&#x309c;" 
d="M260 724q0 -49 -34 -83t-83 -34t-82.5 34t-33.5 83t33.5 83.5t82.5 34.5t83 -34t34 -84zM71 724q0 -28 21.5 -50t50.5 -22t50.5 21.5t21.5 50.5t-21.5 50.5t-50.5 21.5t-50.5 -21.5t-21.5 -50.5z" />
    <glyph glyph-name="uni309D" unicode="&#x309d;" 
d="M769 253l-23 -66q-128 -45 -311 -119l-40 76l123 48.5l141 55.5q-42 63 -142 171.5t-184 183.5l69 52q94 -86 203.5 -207t163.5 -195z" />
    <glyph glyph-name="uni309E" unicode="&#x309e;" 
d="M539 693l58 25q24 -33 94 -155l-60 -26q-60 112 -92 156zM672 736l58 25q34 -47 94 -154l-59 -26q-63 115 -93 155zM728 232l-21 -65q-91 -30 -312 -120l-40 77l126 49l137 54q-41 63 -141 171.5t-184 185.5l69 51q93 -85 202 -206.5t164 -196.5z" />
    <glyph glyph-name="uni30A1" unicode="&#x30a1;" 
d="M453 412h89q-1 -74 -5 -124.5t-18 -108t-39 -99t-69.5 -84t-107.5 -77.5l-73 57q39 13 71 35q95 64 126.5 144t31.5 196q0 21 -6 61zM840 560l46 -43q-13 -15 -21 -28q-106 -169 -208 -239l-66 46q50 30 99.5 84.5t76.5 99.5l-489 1q-54 0 -97 -4v85q51 -7 97 -7h505
q35 0 57 5z" />
    <glyph glyph-name="uni30A2" unicode="&#x30a2;" 
d="M453 557h92q0 -78 -3 -132.5t-13 -115.5t-29.5 -106t-50.5 -90t-78.5 -82t-111.5 -69l-75 62q44 14 91 45q109 67 145.5 166t36.5 248q0 38 -4 74zM903 740l50 -48q-2 -3 -12.5 -17t-14.5 -20q-39 -66 -107.5 -146.5t-147.5 -135.5l-68 54q66 39 131 108t92 121h-582
q-56 0 -117 -6v92q72 -8 117 -8h587q42 0 72 6z" />
    <glyph glyph-name="uni30A3" unicode="&#x30a3;" 
d="M738 617l64 -60q-37 -40 -101 -91.5t-132 -93.5v-363q0 -69 5 -88h-94q4 30 4 88v314q-166 -88 -321 -132l-44 75q179 40 355 141q79 45 152.5 103.5t111.5 106.5z" />
    <glyph glyph-name="uni30A4" unicode="&#x30a4;" 
d="M814 800l68 -62q-124 -125 -275 -222v-438q0 -80 6 -110h-100q6 38 6 110v387q-183 -100 -385 -160l-47 80q123 29 245.5 80.5t212.5 107.5q80 50 153.5 111.5t115.5 115.5z" />
    <glyph glyph-name="uni30A5" unicode="&#x30a5;" 
d="M797 508l54 -31q-7 -22 -11 -52q-8 -56 -30 -129.5t-52 -126.5q-46 -83 -137 -147.5t-217 -97.5l-64 72q45 6 97 24q166 61 237 174q65 102 77 234h-477v-146q0 -26 4 -50h-84q3 42 3 54v148q0 36 -4 72q36 -3 86 -3h187v72q0 30 -5 61h91q-5 -31 -5 -61v-72h192
q41 0 58 5z" />
    <glyph glyph-name="uni30A6" unicode="&#x30a6;" 
d="M848 656l55 -34q-5 -16 -15 -62q-29 -185 -101 -307q-58 -102 -162 -177.5t-243 -113.5l-67 77q45 6 107 29q80 26 156 80.5t121 124.5q39 62 65 144.5t33 154.5h-573v-183q0 -40 4 -60h-89q3 25 3 64v180q0 56 -3 79q40 -4 95 -4h227v95q0 37 -5 77h98q-6 -38 -6 -77
v-95h229q50 0 71 8z" />
    <glyph glyph-name="uni30A7" unicode="&#x30a7;" 
d="M551 74h248q35 0 68 5v-86q-30 3 -68 3h-567q-36 0 -73 -3v86q40 -5 73 -5h236v377h-188q-27 0 -71 -4v82q29 -4 71 -4h471q28 0 72 4v-82q-46 4 -72 4h-200v-377z" />
    <glyph glyph-name="uni30A8" unicode="&#x30a8;" 
d="M552 128h301q31 0 85 6v-93q-28 4 -85 4h-677q-47 0 -90 -4v93q46 -6 90 -6h289v471h-231q-51 0 -86 -4v90q40 -6 86 -6h564q37 0 87 6v-90q-35 4 -87 4h-246v-471z" />
    <glyph glyph-name="uni30A9" unicode="&#x30a9;" 
d="M665 474h147q41 0 69 4v-81q-54 3 -67 3h-148q6 -375 6 -393q1 -32 -20.5 -51t-56.5 -19q-26 0 -149 6l-4 74q62 -9 125 -9q28 0 28 30q0 124 -3 288q-54 -76 -154.5 -162t-201.5 -140l-58 63q112 54 218.5 143t160.5 170h-273q-40 0 -78 -3v81q32 -4 76 -4h308
q-2 57 -3 83q0 29 -7 69h87q-4 -29 -4 -69z" />
    <glyph glyph-name="uni30AA" unicode="&#x30aa;" 
d="M672 616h161q40 0 87 7v-86q-48 2 -84 2h-163q5 -275 7 -486q0 -82 -93 -82q-89 0 -164 6l-7 84q74 -12 144 -12q22 0 30 9.5t8 31.5q0 166 -3 372q-68 -96 -192.5 -205t-255.5 -179l-58 66q147 72 275.5 183.5t194.5 211.5h-338q-47 0 -95 -3v87q52 -7 94 -7h373l-3 100
q-5 68 -9 86h95q-6 -44 -6 -86z" />
    <glyph glyph-name="uni30AB" unicode="&#x30ab;" 
d="M818 622l58 -29q-6 -34 -6 -50q-16 -397 -62 -495q-28 -61 -110 -61q-58 0 -164 6l-11 85q86 -11 153 -11q45 0 59 33q26 52 39 190.5t13 249.5h-286q-27 -212 -103.5 -343.5t-211.5 -224.5l-73 61q56 30 104 76q166 151 203 431h-172q-82 0 -118 -4v87q63 -7 117 -7h180
q4 66 4 105q0 41 -7 85h96q-4 -31 -6 -84q-1 -39 -5 -106h244q31 0 65 6z" />
    <glyph glyph-name="uni30AC" unicode="&#x30ac;" 
d="M488 605h244q38 0 66 5l57 -28q-5 -28 -5 -51q-16 -394 -63 -494q-29 -63 -109 -63q-59 0 -165 8l-10 85q94 -12 152 -12q45 0 60 33q26 53 39 191t13 249h-287q-27 -212 -103 -343t-211 -224l-74 61q61 32 105 75q164 148 202 431h-172q-81 0 -117 -4v86q60 -5 116 -5
h181q4 66 4 104q0 37 -8 85h97q-4 -30 -6 -83q0 -7 -6 -106zM717 779l54 24q38 -53 84 -140l-55 -25q-39 79 -83 141zM829 820l55 24q57 -81 85 -139l-55 -25q-47 91 -85 140z" />
    <glyph glyph-name="uni30AD" unicode="&#x30ad;" 
d="M902 410l18 -86q-10 -1 -93 -14q-205 -33 -252 -40l42 -205q13 -54 25 -94l-93 -17q-11 80 -15 96q-2 9 -7.5 38.5l-15 77.5l-17.5 91q-165 -27 -276 -47q-40 -6 -90 -19l-18 90q41 2 90 9q23 3 64.5 9.5l106.5 16.5l108 17l-41 206q-136 -21 -225 -37q-33 -5 -83 -18
l-17 93q40 2 85 7q56 6 225 32q-20 100 -22 108q-6 33 -19 70l92 16q0 -3 9 -71q7 -40 22 -110q160 26 236 40q35 6 73 17l17 -86q-55 -7 -73 -10q-21 -3 -103.5 -16.5l-135.5 -21.5l41 -206l253 43q48 10 89 21z" />
    <glyph glyph-name="uni30AE" unicode="&#x30ae;" 
d="M853 691l-55 -24q-41 84 -83 141l54 23q42 -60 84 -140zM501 534l40 -205l253 43q49 9 90 20l17 -86q-32 -3 -92 -14q-5 -1 -253 -40l42 -205q12 -53 26 -94l-95 -18q-12 84 -15 97q-2 10 -7 38t-15 79t-17 90q-141 -22 -276 -46q-43 -8 -90 -20l-19 90q40 2 90 9
q5 1 280 43l-40 206q-125 -19 -226 -37q-23 -4 -82 -17l-19 91q58 4 85 7q41 4 226 33q-21 105 -22 109q-6 31 -18 69l91 16q4 -37 10 -71q1 -11 20 -111q127 20 237 41q37 6 74 17l16 -86q-7 0 -18.5 -2l-28.5 -5t-27 -4zM827 850l55 22q52 -72 86 -139l-56 -24
q-44 85 -85 141z" />
    <glyph glyph-name="uni30AF" unicode="&#x30af;" 
d="M824 681l69 -41q-14 -24 -25 -54q-55 -199 -181 -353q-74 -90 -171 -158.5t-236 -119.5l-74 67q252 74 408 257q58 68 102.5 157.5t60.5 161.5h-346q-106 -150 -259 -252l-71 53q119 71 200 165.5t122 180.5q21 33 32 81l95 -31q-24 -38 -46 -80q-9 -19 -25 -43h279
q42 0 66 9z" />
    <glyph glyph-name="uni30B0" unicode="&#x30b0;" 
d="M439 647h278q42 0 66 9l68 -41q-16 -28 -24 -54q-23 -84 -70 -179t-111 -174q-148 -181 -407 -279l-75 68q255 75 409 257q58 67 102.5 156.5t60.5 162.5h-345q-108 -151 -260 -251l-71 52q118 71 198.5 165t123.5 181q23 41 32 82l94 -32q-9 -15 -45 -80q-4 -8 -24 -43z
M729 796l54 23q42 -60 84 -140l-55 -25q-42 87 -83 142zM842 837l54 23q57 -81 85 -139l-54 -25q-49 94 -85 141z" />
    <glyph glyph-name="uni30B1" unicode="&#x30b1;" 
d="M357 616h484q51 0 96 6v-88q-49 3 -96 3h-173q-8 -143 -48.5 -255t-104 -187.5t-155.5 -134.5l-87 59q42 16 83 48q209 159 226 470h-263q-33 -61 -80.5 -123t-90.5 -97l-80 49q50 36 100 99.5t82 120.5q35 62 58 143q14 49 16 82l98 -19q-20 -54 -26 -72
q-15 -44 -39 -104z" />
    <glyph glyph-name="uni30B2" unicode="&#x30b2;" 
d="M862 669l-55 -25q-39 79 -83 141l54 24q38 -53 84 -140zM342 596h483q59 0 97 5v-88q-48 3 -97 3h-173q-11 -211 -89.5 -349t-217.5 -227l-87 59q43 16 83 47q208 158 226 470h-263q-32 -59 -79.5 -121t-90.5 -98l-81 48q50 36 99.5 99t83.5 121q34 61 57 144
q13 45 15 82l100 -20l-27 -72q-19 -56 -39 -103zM837 826l54 24q56 -78 86 -139l-55 -25q-50 96 -85 140z" />
    <glyph glyph-name="uni30B3" unicode="&#x30b3;" 
d="M869 -9h-92q0 5 0.5 13.5t1 21t0.5 22.5h-500q-60 0 -116 -4v92q67 -5 113 -5h503v483h-490q-38 0 -113 -3v91q51 -6 112 -6h505q35 0 75 2q-3 -72 -3 -80v-528q0 -35 4 -99z" />
    <glyph glyph-name="uni30B4" unicode="&#x30b4;" 
d="M835 709l-57 -26q-32 69 -82 138l57 24q49 -71 82 -136zM846 588v-529q0 -35 4 -99h-92q0 7 2 57h-501q-60 0 -116 -4v93q54 -6 114 -6h503v484h-491q-40 0 -112 -3v91q51 -6 111 -6h504q38 0 76 2q-2 -48 -2 -80zM825 851l57 23q37 -52 84 -135l-58 -25q-56 102 -83 137
z" />
    <glyph glyph-name="uni30B5" unicode="&#x30b5;" 
d="M737 585h113q60 0 93 5v-86q-30 3 -93 3h-113v-36q0 -212 -61.5 -327t-231.5 -191l-68 64q75 29 123 60.5t85.5 82t54 124.5t16.5 180v43h-291v-166q0 -53 4 -93h-90q4 40 4 93v166h-110q-55 0 -103 -4v89q31 -7 103 -7h110v131q0 35 -4 75h91q-5 -50 -5 -75v-131h291
v128q0 59 -5 84h92q-5 -50 -5 -84v-128z" />
    <glyph glyph-name="uni30B6" unicode="&#x30b6;" 
d="M876 639l-51 -17q-28 83 -58 144l49 15q44 -91 60 -142zM719 566h111q67 0 95 6v-87q-33 3 -94 3h-112v-35q0 -211 -61.5 -327t-231.5 -192l-69 66q75 29 123 60t85.5 81t54 124t16.5 180v43h-291v-165q0 -57 4 -93h-91q5 45 5 93v165h-110q-27 0 -64.5 -1.5t-38.5 -1.5
v88q32 -7 103 -7h110v131q0 53 -5 75h91q-4 -36 -4 -74v-132h291v128q0 44 -4 84h92q-5 -50 -5 -84v-128zM868 797l50 15q40 -78 61 -141l-50 -17q-30 84 -61 143z" />
    <glyph glyph-name="uni30B7" unicode="&#x30b7;" 
d="M262 718l46 68q123 -70 222 -144l-48 -70q-103 78 -220 146zM202 -29l-47 84q191 32 343 119q126 72 225.5 169t162.5 206l49 -84q-67 -104 -169 -199.5t-224 -167.5q-74 -42 -169 -77t-171 -50zM109 486l45 70q140 -76 225 -138l-47 -72q-107 79 -223 140z" />
    <glyph glyph-name="uni30B8" unicode="&#x30b8;" 
d="M677 739l56 25q54 -76 95 -159l-58 -26q-47 98 -93 160zM810 788l57 25q42 -54 99 -157l-59 -26q-46 90 -97 158zM250 711l46 68q109 -62 222 -144l-48 -71q-90 70 -220 147zM189 -36l-47 83q188 32 343 119q255 146 388 376l50 -85q-67 -103 -170 -198.5t-225 -167.5
q-72 -43 -167 -77.5t-172 -49.5zM95 479l46 70q141 -78 226 -138l-48 -72q-41 30 -110.5 73.5t-113.5 66.5z" />
    <glyph glyph-name="uni30B9" unicode="&#x30b9;" 
d="M767 725l52 -40q-13 -18 -25 -45q-66 -167 -172 -300q75 -64 158 -150t141 -155l-72 -63q-126 165 -282 304q-190 -204 -399 -299l-66 69q118 46 228 127.5t194 176.5q53 60 102 141.5t68 143.5h-399q-49 0 -104 -5v93q49 -7 104 -7h395q48 0 77 9z" />
    <glyph glyph-name="uni30BA" unicode="&#x30ba;" 
d="M858 693l-55 -24q-38 79 -82 141l54 24q52 -77 83 -141zM746 707l53 -40q-15 -20 -26 -44q-66 -167 -172 -301q149 -127 299 -306l-72 -62q-123 162 -281 305q-187 -202 -400 -299l-65 68q118 46 228 127.5t194 176.5q53 60 102 141t68 144h-400q-48 0 -103 -5v93
q49 -7 103 -7h396q47 0 76 9zM838 846l53 23q51 -70 86 -139l-55 -24q-47 89 -84 140z" />
    <glyph glyph-name="uni30BB" unicode="&#x30bb;" 
d="M673 250l-72 43q53 48 103.5 119t78.5 125q-7 -2 -61 -13l-155.5 -31.5l-170.5 -34.5v-304q0 -55 29.5 -74.5t119.5 -19.5q158 0 319 30l-4 -88q-152 -20 -321 -20q-93 0 -143 17.5t-66.5 48t-16.5 84.5v309q-102 -20 -235 -49l-17 86q42 6 252 44v175q0 53 -7 95h97
q-7 -42 -7 -95v-159l397 79q34 7 54 19l60 -47q-13 -18 -25 -41q-105 -191 -209 -298z" />
    <glyph glyph-name="uni30BC" unicode="&#x30bc;" 
d="M864 675l-55 -25q-40 82 -83 142l54 23q38 -53 84 -140zM382 679v-160q305 60 397 81q42 9 55 18l60 -47q-25 -39 -26 -41q-107 -194 -210 -298l-70 42q53 48 103.5 119t78.5 125q-47 -8 -388 -78v-305q0 -54 29.5 -73.5t119.5 -19.5q162 0 319 31l-3 -88
q-154 -22 -322 -22q-93 0 -143 18t-66.5 48.5t-16.5 84.5v309l-236 -48l-15 86q41 4 251 43v175q0 58 -6 94h96q-7 -53 -7 -94zM839 833l54 23q56 -78 86 -139l-55 -25q-52 99 -85 141z" />
    <glyph glyph-name="uni30BD" unicode="&#x30bd;" 
d="M347 -28l-77 65q229 94 362 294q96 142 128 334q10 53 8 84l102 -15q-8 -27 -20 -81q-45 -217 -140 -365q-138 -212 -363 -316zM127 694l81 42q64 -95 172 -291l-82 -46q-32 64 -84.5 155.5t-86.5 139.5z" />
    <glyph glyph-name="uni30BE" unicode="&#x30be;" 
d="M331 -51l-76 65q391 166 477 582q11 50 11 82l100 -20q-17 -54 -21 -73q-17 -70 -37 -130t-59 -134.5t-89 -136t-129 -124.5t-177 -111zM111 672l79 41q75 -110 174 -291l-82 -46q-31 64 -83.5 156t-87.5 140zM700 821l56 24q47 -66 83 -136l-58 -26q-29 67 -81 138z
M829 851l57 23q37 -52 84 -135l-58 -25q-56 102 -83 137z" />
    <glyph glyph-name="uni30BF" unicode="&#x30bf;" 
d="M826 697l67 -41q-10 -17 -24 -55q-47 -162 -149 -304q30 -19 99 -67l-56 -73q-42 32 -97 70q-159 -182 -402 -272l-74 63q238 72 405 255q-127 82 -224 136l52 60q94 -49 225 -128q101 142 132 273h-348q-122 -168 -271 -269l-69 53q119 74 202.5 171.5t126.5 184.5
q22 40 33 82l92 -30l-45 -81q-6 -12 -22 -38h280q43 0 67 10z" />
    <glyph glyph-name="uni30C0" unicode="&#x30c0;" 
d="M729 802l54 23q42 -60 84 -140l-54 -25l48 -28q-14 -24 -23 -54q-50 -165 -151 -306l99 -66l-56 -73l-97 71q-158 -182 -402 -274l-73 65q241 73 405 255q-108 69 -225 135l53 60q101 -53 225 -129q102 144 132 274h-350q-118 -165 -270 -268l-69 53q120 74 203 171
t126 184q24 44 33 81l92 -30q-26 -44 -45 -80q-3 -7 -22 -37h280q44 0 68 9l17 -10q-40 82 -82 139zM842 843l54 23q57 -81 85 -139l-54 -25q-46 90 -85 141z" />
    <glyph glyph-name="uni30C1" unicode="&#x30c1;" 
d="M571 464h283q37 0 81 4v-85q-46 4 -79 4h-286q-8 -146 -70 -250t-192 -179l-80 56q122 57 185.5 147t72.5 226h-304q-43 0 -91 -4v85q46 -4 89 -4h308v186q-121 -12 -298 -14l-20 76q172 -7 344 15q190 27 264 59l55 -70l-59 -16q-88 -23 -203 -40v-196z" />
    <glyph glyph-name="uni30C2" unicode="&#x30c2;" 
d="M544 451h283q37 0 81 4v-84q-34 3 -80 3h-285q-8 -146 -70 -250t-192 -178l-80 55q123 58 186.5 148t72.5 225h-305q-55 0 -92 -3v85q38 -5 91 -5h308v186q-90 -9 -299 -14l-20 75q63 -2 164 2t180 15q188 25 264 58l54 -71l-57 -15q-112 -26 -204 -40v-196zM856 515
l-53 -25q-37 78 -77 134l52 22q40 -57 78 -131zM835 663l50 23q42 -54 83 -130l-54 -25q-44 86 -79 132z" />
    <glyph glyph-name="uni30C3" unicode="&#x30c3;" 
d="M420 564l75 26q53 -128 80 -221l-75 -27q-8 34 -35.5 110.5t-44.5 111.5zM777 560l88 -28l-9 -30t-6 -21q-48 -193 -145 -314q-130 -166 -334 -244l-68 70q93 26 182.5 83.5t150.5 133.5q55 67 92.5 159.5t48.5 190.5zM181 509l76 30q47 -102 93 -232l-78 -28
q-11 39 -43.5 121t-47.5 109z" />
    <glyph glyph-name="uni30C4" unicode="&#x30c4;" 
d="M388 743l79 27q17 -36 52.5 -131t48.5 -138l-80 -28q-12 45 -46.5 138t-53.5 132zM827 731l95 -26q-11 -26 -19 -59q-57 -235 -170 -384q-77 -102 -183.5 -179.5t-217.5 -116.5l-71 72q112 33 220 104.5t183 167.5q61 77 104.5 192.5t58.5 228.5zM100 679l81 30
q20 -43 58.5 -137t56.5 -145l-81 -29q-14 48 -55 148t-60 133z" />
    <glyph glyph-name="uni30C5" unicode="&#x30c5;" 
d="M370 718l79 26q17 -35 52.5 -129.5t48.5 -138.5l-80 -29q-12 45 -46.5 138.5t-53.5 132.5zM799 653l93 -22l-19 -59q-56 -199 -158 -335q-77 -101 -184 -178.5t-219 -116.5l-69 70q112 33 219 105t182 168q122 157 155 368zM82 654l81 29q62 -131 115 -281l-81 -29
q-14 47 -55 147t-60 134zM710 822l56 23q45 -63 82 -136l-56 -25q-34 72 -82 138zM839 851l56 23q33 -44 84 -135l-56 -24q-54 98 -84 136z" />
    <glyph glyph-name="uni30C6" unicode="&#x30c6;" 
d="M727 676h-414q-54 0 -93 -3v85q58 -6 92 -6h415q50 0 95 6v-85q-45 3 -95 3zM187 496h670q49 0 80 5v-85q-46 2 -80 2h-278q-5 -176 -61 -280q-28 -52 -82.5 -102.5t-119.5 -83.5l-75 55q60 25 111.5 66.5t81.5 90.5q55 88 60 254h-307q-61 0 -89 -2v85q47 -5 89 -5z" />
    <glyph glyph-name="uni30C7" unicode="&#x30c7;" 
d="M888 691l-55 -24q-38 80 -83 141l54 23q42 -60 84 -140zM655 667h-353q-54 0 -94 -3v85q70 -7 93 -7h354q43 0 96 7v-85q-45 3 -96 3zM176 486h670q47 0 80 4v-83q-46 2 -80 2h-279q-5 -178 -60 -280q-28 -52 -82.5 -102.5t-119.5 -84.5l-76 56q60 25 112 67t82 90
q54 86 59 254h-306q-61 0 -89 -2v83q56 -4 89 -4zM862 850l54 22q52 -72 86 -139l-55 -24q-46 91 -85 141z" />
    <glyph glyph-name="uni30C8" unicode="&#x30c8;" 
d="M867 350l-34 -87q-172 92 -403 165l1 -338q0 -70 6 -121h-98q6 49 6 121v596q0 64 -8 107h100q-7 -75 -7 -107v-167q103 -31 229.5 -80t207.5 -89z" />
    <glyph glyph-name="uni30C9" unicode="&#x30c9;" 
d="M892 637l-57 -29q-48 91 -96 154l57 26q54 -72 96 -151zM765 583l-58 -27q-46 94 -92 156l57 25q54 -76 93 -154zM398 673v-168q256 -78 438 -168l-36 -87q-165 89 -402 164v-337q0 -71 6 -121h-98q6 50 6 121v596q0 63 -8 106h100q-6 -64 -6 -106z" />
    <glyph glyph-name="uni30CA" unicode="&#x30ca;" 
d="M583 553h272q57 0 89 4v-87q-24 3 -90 3h-271q0 -174 -66.5 -299t-217.5 -213l-80 59q142 67 209.5 179.5t68.5 273.5h-300q-67 0 -97 -3v88q50 -5 95 -5h302v138q0 62 -10 102h102q-6 -40 -6 -103v-137z" />
    <glyph glyph-name="uni30CB" unicode="&#x30cb;" 
d="M94 61v99q58 -5 108 -5h613q55 0 93 5v-99q-62 6 -93 6h-613q-3 0 -108 -6zM182 574v93q55 -5 101 -5h439q53 0 101 5v-93q-58 4 -101 4h-438q-38 0 -102 -4z" />
    <glyph glyph-name="uni30CC" unicode="&#x30cc;" 
d="M845 114l-61 -70q-94 88 -196 165q-77 -85 -177 -151t-205 -105l-72 72q110 32 209 94.5t175 141.5q-146 106 -276 175l52 63q137 -73 279 -174q107 142 148 310h-422q-23 0 -110 -3v87q73 -5 110 -5h422q32 0 57 10l60 -46q-15 -21 -27 -55q-60 -202 -169 -348
q131 -95 203 -161z" />
    <glyph glyph-name="uni30CD" unicode="&#x30cd;" 
d="M794 671l53 -51q-31 -32 -57 -62q-101 -121 -232 -213q0 -44 -0.5 -143t-0.5 -132t5 -113h-93q6 45 6 113q0 28 0.5 107.5t0.5 115.5q-134 -77 -346 -142l-49 75q230 54 415 174q64 41 121 94.5t86 93.5h-424q-63 0 -125 -4v86q40 -5 124 -5h200v65q0 56 -6 90h94
q-6 -34 -6 -90v-65h169q45 0 65 6zM648 295l53 60q147 -80 247 -148l-53 -70q-127 94 -247 158z" />
    <glyph glyph-name="uni30CE" unicode="&#x30ce;" 
d="M723 763l98 -27q-20 -46 -33 -89q-87 -244 -187 -373q-70 -89 -173.5 -167.5t-212.5 -123.5l-72 74q113 39 214.5 111t172.5 161q69 86 119.5 202.5t73.5 231.5z" />
    <glyph glyph-name="uni30CF" unicode="&#x30cf;" 
d="M234 325q34 81 63 187t39 193l91 -19q-9 -30 -19 -75q-39 -187 -93 -320q-61 -151 -151 -282l-87 37q91 118 157 279zM739 364q-80 205 -148 324l83 28q73 -137 149 -325q64 -156 123 -350l-91 -30q-37 148 -116 353z" />
    <glyph glyph-name="uni30D0" unicode="&#x30d0;" 
d="M729 775l54 23q49 -69 84 -141l-55 -24q-37 78 -83 142zM842 816l54 23q47 -62 86 -140l-55 -24q-46 91 -85 141zM223 308q80 192 101 379l91 -18q-18 -69 -19 -75q-46 -206 -93 -320q-63 -156 -150 -281l-87 37q90 117 157 278zM727 347q-85 217 -148 324l83 27
q75 -135 149 -323q69 -166 123 -350l-91 -30q-38 153 -116 352z" />
    <glyph glyph-name="uni30D1" unicode="&#x30d1;" 
d="M821 762q-19 -20 -19 -48t19 -48t47 -20t48.5 20t20.5 48t-20.5 48t-48.5 20t-47 -20zM868 829q47 0 81.5 -34t34.5 -81t-34.5 -81t-81.5 -34q-46 0 -79.5 34t-33.5 81t33.5 81t79.5 34zM223 308q80 192 101 379l91 -18q-18 -69 -19 -75q-46 -206 -93 -320
q-63 -156 -150 -281l-87 37q90 117 157 278zM727 347q-85 217 -148 324l83 27q75 -135 149 -323q69 -166 123 -350l-91 -30q-38 153 -116 352z" />
    <glyph glyph-name="uni30D2" unicode="&#x30d2;" 
d="M321 389v-225q0 -37 16 -52.5t55 -23.5q53 -8 135 -8q229 0 352 33v-94q-144 -21 -355 -21q-104 0 -165 10q-61 11 -91 42t-30 91v564q0 40 -7 82h96q-6 -48 -6 -82v-232q234 57 401 129q39 16 90 47l36 -83l-44 -19t-53 -21q-188 -75 -430 -137z" />
    <glyph glyph-name="uni30D3" unicode="&#x30d3;" 
d="M829 663l-55 -26q-37 78 -83 142l54 23q37 -51 84 -139zM281 370v-226q0 -37 15.5 -52t55.5 -23q58 -9 135 -9q229 0 351 33v-93q-151 -22 -355 -22q-98 0 -164 11q-62 11 -92 42t-30 91v563q0 49 -7 83h96q-5 -40 -5 -83v-231q236 58 389 125q38 15 90 46l36 -82
q-95 -39 -97 -40q-174 -70 -418 -133zM804 820l54 24q56 -78 86 -139l-55 -26q-44 85 -85 141z" />
    <glyph glyph-name="uni30D4" unicode="&#x30d4;" 
d="M281 370v-226q0 -37 15.5 -52t55.5 -23q58 -9 135 -9q229 0 351 33v-93q-151 -22 -355 -22q-98 0 -164 11q-62 11 -92 42t-30 91v563q0 49 -7 83h96q-5 -40 -5 -83v-231q236 58 389 125q38 15 90 46l36 -82q-95 -39 -97 -40q-174 -70 -418 -133zM845 647q28 0 47.5 20
t19.5 48t-19.5 47.5t-47.5 19.5t-48 -19.5t-20 -47.5q0 -29 19.5 -48.5t48.5 -19.5zM764 796q34 33 81 33t80.5 -33.5t33.5 -80.5t-33.5 -81t-80.5 -34t-81 34t-34 81t34 81z" />
    <glyph glyph-name="uni30D5" unicode="&#x30d5;" 
d="M819 721l63 -40q-9 -18 -16 -51q-53 -250 -152 -378q-152 -196 -404 -275l-69 77q141 35 235 96.5t164 150.5q52 66 87.5 160t46.5 174h-523q-22 0 -103 -3v90q58 -6 103 -6h514q35 0 54 5z" />
    <glyph glyph-name="uni30D6" unicode="&#x30d6;" 
d="M855 716l-39 -18l50 -31q-8 -15 -15 -52q-53 -247 -153 -377q-154 -197 -403 -274l-70 77q141 35 236 96t164 150q51 65 86.5 159t47.5 175h-525q-18 0 -36.5 -0.5t-37.5 -2t-27 -1.5v91q65 -7 103 -7h513q23 0 44 4q-43 75 -75 122l55 24q45 -63 82 -135zM849 854l56 24
q30 -41 84 -136l-56 -24q-52 95 -84 136z" />
    <glyph glyph-name="uni30D7" unicode="&#x30d7;" 
d="M844 688q20 -20 48 -20t47.5 19.5t19.5 47.5t-19.5 48.5t-47.5 20.5t-48 -20.5t-20 -48.5t20 -47zM236 701h513q21 0 33 1q-5 17 -5 33q0 47 34 81.5t81 34.5t81 -34.5t34 -81.5t-34 -80.5t-81 -33.5q-21 0 -39 6l-2 -12q-53 -247 -153 -377q-154 -197 -403 -274l-70 77
q141 35 236 96t164 150q51 65 86.5 159t47.5 175h-525q-18 0 -36.5 -0.5t-37.5 -2t-27 -1.5v91q65 -7 103 -7z" />
    <glyph glyph-name="uni30D8" unicode="&#x30d8;" 
d="M140 211l-77 78q30 26 73 67q21 22 55.5 63l79.5 96l67 81q41 49 78 52t93 -42q63 -52 212 -212q178 -190 247 -273l-67 -73q-65 85 -230 269q-139 159 -200 209q-31 27 -48 25.5t-43 -33.5l-93 -116.5l-88 -111.5z" />
    <glyph glyph-name="uni30D9" unicode="&#x30d9;" 
d="M649 669l59 25q52 -74 96 -162l-60 -27q-49 102 -95 164zM781 720l58 26q53 -71 100 -159l-59 -29q-46 93 -99 162zM130 194l-75 75q35 31 72 68q22 22 57 63.5l79 95.5l67 81q41 50 77.5 52.5t92.5 -42.5q63 -52 212 -212q157 -168 247 -274l-66 -72q-75 96 -230 272
q-147 163 -200 208q-32 27 -49 25.5t-43 -33.5l-93.5 -117l-88.5 -112z" />
    <glyph glyph-name="uni30DA" unicode="&#x30da;" 
d="M797 540q31 0 52.5 21.5t21.5 52.5t-21.5 53t-52.5 22q-32 0 -54 -22t-22 -53t22 -52.5t54 -21.5zM709 526q-37 36 -37 88t36.5 88.5t88.5 36.5t88 -36.5t36 -88.5t-36 -88t-88 -36t-88 36zM130 194l-75 75q35 31 72 68q22 22 57 63.5l79 95.5l67 81q41 50 77.5 52.5
t92.5 -42.5q63 -52 212 -212q157 -168 247 -274l-66 -72q-75 96 -230 272q-147 163 -200 208q-32 27 -49 25.5t-43 -33.5l-93.5 -117l-88.5 -112z" />
    <glyph glyph-name="uni30DB" unicode="&#x30db;" 
d="M279 424l71 -35q-31 -63 -90.5 -147t-105.5 -133l-71 48q50 45 107.5 124t88.5 143zM841 548h-272v-497q0 -81 -88 -81q-86 0 -145 7l-7 81q62 -11 117 -11q40 0 40 39q1 55 1 454v8h-284q-51 0 -88 -4v87q43 -6 87 -6h285v105q0 43 -8 73h96q-6 -28 -6 -73v-105h271
q41 0 84 5v-85q-42 3 -83 3zM709 386l69 38q39 -46 91 -126t86 -142l-75 -42q-31 64 -81.5 144.5t-89.5 127.5z" />
    <glyph glyph-name="uni30DC" unicode="&#x30dc;" 
d="M975 702l-55 -24q-47 90 -83 137l54 24q52 -74 84 -137zM852 672l-55 -25q-35 74 -82 139l55 23q40 -57 82 -137zM258 411l72 -35q-30 -62 -90 -146t-107 -136l-71 48q50 46 107.5 126t88.5 143zM820 534h-271v-496q0 -82 -88 -82q-74 0 -146 7l-8 82q67 -12 119 -12
q40 0 40 39v462h-285q-31 0 -87 -4v86q48 -5 87 -5h285v106q0 47 -7 73h96q-6 -28 -6 -74v-105h270q51 0 84 5v-85q-42 3 -83 3zM688 373l70 37q88 -108 177 -268l-76 -42q-32 65 -82.5 146t-88.5 127z" />
    <glyph glyph-name="uni30DD" unicode="&#x30dd;" 
d="M838 822q-27 0 -46 -19t-19 -46q0 -28 19 -47t46 -19q28 0 46.5 19t18.5 47q0 27 -18.5 46t-46.5 19zM950 757q0 -47 -33 -79.5t-79 -32.5t-79 33t-33 79t33 79t79 33t79 -33t33 -79zM258 411l72 -35q-30 -62 -90 -146t-107 -136l-71 48q50 46 107.5 126t88.5 143z
M820 534h-271v-496q0 -82 -88 -82q-74 0 -146 7l-8 82q67 -12 119 -12q40 0 40 39v462h-285q-31 0 -87 -4v86q48 -5 87 -5h285v106q0 47 -7 73h96q-6 -28 -6 -74v-105h270q51 0 84 5v-85q-42 3 -83 3zM688 373l70 37q88 -108 177 -268l-76 -42q-32 65 -82.5 146t-88.5 127z
" />
    <glyph glyph-name="uni30DE" unicode="&#x30de;" 
d="M886 701l65 -52q-14 -15 -25 -32q-64 -104 -160 -215t-213 -200q111 -111 175 -189l-75 -59q-57 78 -184 209q-46 46 -120 109.5t-115 92.5l67 53q81 -60 192 -158q104 78 189.5 177t129.5 178h-602q-45 0 -105 -6v92q58 -8 105 -8h610q44 0 66 8z" />
    <glyph glyph-name="uni30DF" unicode="&#x30df;" 
d="M264 699l30 76q107 -14 276 -50.5t261 -68.5l-32 -78q-90 33 -257 70t-278 51zM217 428l31 77q126 -22 277.5 -56.5t238.5 -66.5l-33 -79q-84 33 -240 70t-274 55zM160 129l31 78q137 -21 323.5 -67.5t286.5 -86.5l-35 -79q-94 41 -279 86.5t-327 68.5z" />
    <glyph glyph-name="uni30E0" unicode="&#x30e0;" 
d="M955 4l-85 -39q-18 52 -56 134q-370 -46 -638 -70q-15 -1 -46 -6t-39 -6l-15 96q33 -1 95 1q15 1 51 3q38 95 100.5 284.5t90.5 284.5q13 51 20 98l102 -20q-29 -76 -35 -95q-137 -423 -183 -544q197 18 459 51q-73 144 -124 210l77 35q54 -77 124 -207t102 -210z" />
    <glyph glyph-name="uni30E1" unicode="&#x30e1;" 
d="M734 778l96 -33q-20 -37 -33 -74q-63 -171 -154 -302q151 -126 252 -234l-65 -72q-99 113 -241 236q-173 -213 -401 -331l-72 65q238 113 406 321q-151 123 -288 207l55 65q127 -80 286 -202q82 118 139 278q13 39 20 76z" />
    <glyph glyph-name="uni30E2" unicode="&#x30e2;" 
d="M846 354h-347v-206q0 -81 130 -81q146 0 269 14l-5 -86q-133 -10 -277 -10q-110 0 -156 35.5t-46 102.5v231h-199q-39 0 -97 -4v86q70 -5 97 -5h199v217h-136q-51 0 -93 -3v82q56 -4 93 -4h487q38 0 84 4v-82q-75 3 -84 3h-266v-217h345q37 0 85 4v-84q-24 3 -83 3z" />
    <glyph glyph-name="uni30E3" unicode="&#x30e3;" 
d="M835 522l51 -36q-32 -65 -98.5 -156t-119.5 -143l-73 36q46 41 97.5 102.5t78.5 108.5q-71 -12 -310 -61l40.5 -145.5l41.5 -150.5l22 -77l23 -70l-87 -22q-4 32 -16 74q-6 20 -22 80l-40 147.5l-40 146.5q-157 -31 -208 -42l-20 78q29 2 85 11l23.5 4t46.5 8.5l55 10.5
q-24 86 -34 118q-9 32 -24 61l87 22q1 -4 15 -66l32 -121q314 61 355 70q30 8 39 12z" />
    <glyph glyph-name="uni30E4" unicode="&#x30e4;" 
d="M881 687l57 -42q-35 -73 -114.5 -180t-144.5 -171l-83 39q59 48 123.5 126t96.5 133q-46 -7 -391 -78q102 -372 127 -457q4 -13 15 -45l12 -35l-96 -22q-9 54 -18 84l-26.5 97.5l-49 181l-49.5 180.5q-238 -51 -251 -54l-23 88q15 1 102 13l151 28l-38 141q-16 54 -29 77
l94 22q2 -22 18 -79l39 -145q415 80 432 84q30 6 46 14z" />
    <glyph glyph-name="uni30E5" unicode="&#x30e5;" 
d="M695 89h101q48 0 81 3v-83q-36 2 -78 2h-561q-40 0 -85 -3v85q50 -4 85 -4h370q43 246 48 344h-325q-4 0 -82 -3v86q50 -6 81 -6h311q35 0 51 7l63 -30q-5 -18 -7 -31q-5 -48 -53 -367z" />
    <glyph glyph-name="uni30E6" unicode="&#x30e6;" 
d="M723 145h139q24 0 85 7v-94q-37 4 -85 4h-691q-47 0 -90 -4v94q54 -7 90 -7h462q60 369 64 456h-403q-33 0 -97 -4v91q45 -6 96 -6h378q39 0 63 8l69 -32q-6 -14 -8 -33q-6 -55 -72 -480z" />
    <glyph glyph-name="uni30E7" unicode="&#x30e7;" 
d="M793 -57h-81q1 9 1 42h-413q-36 0 -84 -3v81q32 -4 84 -4h413v183h-370q-52 0 -92 -2v78q76 -4 91 -4h371v171h-380q-51 0 -105 -3v80q38 -4 105 -4h396q37 0 63 2q-1 -11 -1 -52v-510q0 -27 2 -55z" />
    <glyph glyph-name="uni30E8" unicode="&#x30e8;" 
d="M851 -26h-87q0 5 0.5 23.5t0.5 29.5h-505q-63 0 -103 -4v87q50 -5 102 -5h506v234h-452q-24 0 -63 -0.5t-49 -0.5v84q43 -5 110 -5h454v219h-465q-59 0 -128 -3v86q40 -5 128 -5h478q40 0 72 2q-1 -14 -1 -62v-618q0 -28 2 -62z" />
    <glyph glyph-name="uni30E9" unicode="&#x30e9;" 
d="M841 529l58 -36q-9 -16 -13 -30q-51 -182 -150 -291q-138 -151 -366 -214l-64 73q227 47 361 187q89 95 121 226h-543q-46 0 -100 -3v86q55 -6 100 -6h539q42 0 57 8zM237 678v85q34 -5 92 -5h402q62 0 93 5v-85q-38 3 -94 3h-401q-50 0 -92 -3z" />
    <glyph glyph-name="uni30EA" unicode="&#x30ea;" 
d="M226 769h95q-4 -38 -4 -74v-342q0 -42 4 -78h-95q4 60 4 79v341q0 36 -4 74zM700 776h95q-4 -50 -4 -88v-166q0 -121 -12 -198.5t-33.5 -122.5t-61.5 -93q-77 -92 -244 -150l-66 71q164 42 246 136q53 61 69.5 135t16.5 226v162q0 13 -6 88z" />
    <glyph glyph-name="uni30EB" unicode="&#x30eb;" 
d="M144 -25l-76 52q127 90 178 252q30 94 30 411q0 36 -7 75h95q-6 -72 -6 -74q0 -322 -31 -435q-48 -169 -183 -281zM591 -24l-54 46q7 28 7 57v613q0 28 -6 76h94q-4 -32 -4 -76v-591q77 35 160 102.5t138 149.5l49 -69q-63 -86 -158 -161.5t-191 -122.5q-15 -8 -35 -24z
" />
    <glyph glyph-name="uni30EC" unicode="&#x30ec;" 
d="M287 -18l-60 51q11 25 11 50v586q0 33 -9 93h101q-7 -46 -7 -93v-581q153 38 310.5 133.5t249.5 215.5l46 -71q-201 -249 -599 -366q-27 -7 -43 -18z" />
    <glyph glyph-name="uni30ED" unicode="&#x30ed;" 
d="M795 618h-561v-486h561v486zM879 622v-505q0 -101 2 -123h-88q0 1 0.5 21t0.5 37h-560q2 -50 3 -58h-89q4 48 4 124v504q0 54 -2 79q80 -2 91 -2h550q59 0 90 2q-2 -26 -2 -79z" />
    <glyph glyph-name="uni30EE" unicode="&#x30ee;" 
d="M788 553l58 -37q-4 -6 -12 -40q-34 -233 -112 -335q-117 -154 -314 -223l-68 69q192 48 303 190q81 104 100 296h-465v-158q0 -37 1 -57h-86q3 30 3 57v177q0 7 -3 58q23 -2 92 -2h450q37 0 53 5z" />
    <glyph glyph-name="uni30EF" unicode="&#x30ef;" 
d="M835 723l62 -40q-6 -14 -13 -47q-12 -83 -21.5 -132t-34 -123t-58.5 -128q-62 -99 -163.5 -174t-224.5 -115l-70 71q118 31 219 98t162 162q80 126 98 343h-566v-205q0 -27 3 -65h-93q4 33 4 65v218q0 38 -4 69q42 -3 110 -3h525q40 0 65 6z" />
    <glyph glyph-name="uni30F0" unicode="&#x30f0;" 
d="M388 257h247v296h-247v-296zM717 257h138q31 0 85 6v-87q-28 3 -85 3h-138v-117q0 -47 4 -97h-90q4 50 4 95v119h-453q-58 0 -90 -3v87q46 -6 90 -6h126v296h-88q-43 0 -91 -3v84q50 -5 91 -5h415v86q0 37 -4 71h89q-3 -50 -3 -71v-86h112q40 0 85 5v-84q-28 3 -85 3
h-112v-296z" />
    <glyph glyph-name="uni30F1" unicode="&#x30f1;" 
d="M801 622h-550l-110 -5v89q96 -6 105 -6h564q34 0 61 9l55 -39q-21 -28 -24 -34q-35 -64 -95.5 -138.5t-121.5 -125.5l-72 48q56 40 106.5 95t81.5 107zM538 123h324q31 0 87 6v-94q-39 4 -87 4h-685q-49 0 -92 -4v94q47 -6 92 -6h276v336q0 44 -4 81h94q-5 -48 -5 -81
v-336z" />
    <glyph glyph-name="uni30F2" unicode="&#x30f2;" 
d="M836 734l65 -41q-10 -23 -13 -37q-52 -277 -120 -384q-73 -112 -175.5 -188.5t-251.5 -126.5l-67 72q275 65 415 272q26 41 43 87h-445q-30 0 -94 -4v84q47 -5 91 -5h474q25 90 38 187h-525q-9 0 -105 -4v89q80 -7 105 -7h502q37 0 63 6z" />
    <glyph glyph-name="uni30F3" unicode="&#x30f3;" 
d="M174 688l58 63q55 -36 137 -102.5t125 -109.5l-65 -65q-40 42 -120 109.5t-135 104.5zM199 -19l-55 84q224 34 410 149q113 71 204 174t138 203l49 -87q-57 -103 -145.5 -199.5t-198.5 -164.5q-182 -118 -402 -159z" />
    <glyph glyph-name="uni30F4" unicode="&#x30f4;" 
d="M847 695l-55 -24q-39 79 -83 141l54 24q52 -74 84 -141zM525 636h230q44 0 70 8l56 -35q-8 -22 -16 -61q-30 -187 -100 -307q-58 -103 -162 -178t-243 -112l-66 76q47 7 105 28q80 26 156.5 81.5t121.5 125.5q39 60 64.5 142.5t32.5 155.5h-571v-183q0 -39 3 -61h-89
q4 34 4 66v179q0 48 -4 79q40 -4 95 -4h227v95q0 39 -6 77h98q-6 -48 -6 -77v-95zM828 844l55 23q56 -78 86 -139l-56 -25q-49 94 -85 141z" />
    <glyph glyph-name="uni30F5" unicode="&#x30f5;" 
d="M768 479l50 -26q-4 -26 -4 -41q-3 -102 -15.5 -229.5t-37.5 -181.5q-24 -51 -95 -51q-62 0 -142 6l-8 78q72 -10 130 -10q35 0 49 26q20 42 30.5 152t10.5 200h-237q-22 -170 -82.5 -277t-176.5 -187l-70 56q35 16 85 57q141 118 169 351h-146q-50 0 -95 -3v81
q50 -5 95 -5h153q2 56 2 87q0 36 -5 66h87q-1 -13 -4 -63q-2 -60 -5 -90h210q24 0 52 4z" />
    <glyph glyph-name="uni30F6" unicode="&#x30f6;" 
d="M384 464h411q48 0 79 5v-81q-40 3 -79 3h-151q-22 -330 -260 -474l-81 53q41 16 80 47q165 133 182 374h-219q-30 -50 -70.5 -100.5t-72.5 -77.5l-75 44q81 60 155 178q38 61 55 131q7 27 11 61l91 -20q-11 -27 -19 -53q-12 -35 -37 -90z" />
    <glyph glyph-name="uni30FB" unicode="&#x30fb;" 
d="M435 313q-32 31 -32 76t32 77t77 32t77 -32t32 -77t-32 -76.5t-77 -31.5t-77 32z" />
    <glyph glyph-name="uni30FC" unicode="&#x30fc;" 
d="M104 343v100q78 -5 143 -5h561q54 0 111 5v-100q-100 5 -110 5h-562q-90 0 -143 -5z" />
    <glyph glyph-name="uni30FD" unicode="&#x30fd;" 
d="M299 539l73 56q90 -78 207 -205.5t184 -221.5l-77 -60q-65 100 -177 224.5t-210 206.5z" />
    <glyph glyph-name="uni30FE" unicode="&#x30fe;" 
d="M538 677l58 24q30 -43 94 -154l-60 -27q-62 116 -92 157zM671 719l58 25q38 -54 94 -154l-59 -26q-65 119 -93 155zM273 535l73 55q90 -77 207 -204.5t184 -221.5l-77 -61q-66 100 -178 225t-209 207z" />
    <glyph glyph-name="uni4E00" unicode="&#x4e00;" 
d="M49 440h930v-83h-930v83z" />
    <glyph glyph-name="uni4E01" unicode="&#x4e01;" 
d="M958 763v-78h-373v-640q0 -44 -14 -66.5t-47 -32.5q-50 -16 -237 -16q-11 46 -37 86q65 -2 132.5 -2.5t82.5 0.5q19 1 26.5 7.5t7.5 24.5v639h-433v78h892z" />
    <glyph glyph-name="uni4E03" unicode="&#x4e03;" 
d="M515 33h262q50 0 65 34.5t23 151.5q32 -24 77 -36q-10 -132 -41 -178.5t-122 -46.5h-267q-95 0 -129.5 31.5t-34.5 121.5v310l-281 -45l-13 76l294 47v340h80v-328l533 86l12 -77l-545 -86v-324q0 -47 16.5 -62t70.5 -15z" />
    <glyph glyph-name="uni4E07" unicode="&#x4e07;" 
d="M957 706h-535q-4 -124 -12 -209h454q0 -27 -1 -37q-14 -251 -29.5 -357t-45.5 -138q-30 -33 -87 -37q-59 -5 -180 4q-2 39 -26 75q77 -8 178 -8q34 0 48 13q23 21 37 114.5t25 296.5h-383q-25 -169 -95.5 -297t-211.5 -207q-21 35 -55 59q59 31 106 75t77.5 88.5
t53 105.5t34.5 109.5t19.5 118.5t9.5 115t4 116h-275v73h890v-73z" />
    <glyph glyph-name="uni4E08" unicode="&#x4e08;" 
d="M957 585h-298q-7 -151 -35.5 -258t-93.5 -186q159 -115 443 -148q-32 -34 -45 -72q-288 40 -452 164q-124 -107 -360 -157q-12 34 -43 67q229 46 342 142q-137 135 -204 382l72 18q57 -223 186 -346q57 69 80.5 163.5t29.5 230.5h-510v73h513q1 57 1 184h82
q0 -68 -2 -184h294v-73z" />
    <glyph glyph-name="uni4E09" unicode="&#x4e09;" 
d="M129 758h768v-76h-768v76zM195 426h622v-77h-622v77zM71 73h881v-77h-881v77z" />
    <glyph glyph-name="uni4E0A" unicode="&#x4e0a;" 
d="M518 46h451v-76h-913v76h382v795h80v-314h381v-75h-381v-406z" />
    <glyph glyph-name="uni4E0B" unicode="&#x4e0b;" 
d="M965 706h-433v-183l14 16q92 -44 197.5 -105.5t165.5 -106.5l-53 -69q-114 93 -324 204v-539h-80v783h-392v75h905v-75z" />
    <glyph glyph-name="uni4E0D" unicode="&#x4e0d;" 
d="M949 709h-324q-33 -55 -73 -113v-672h-81v570q-165 -189 -371 -298q-14 24 -51 66q148 74 274.5 193.5t203.5 253.5h-452v75h874v-75zM572 488l57 50q97 -62 196.5 -138.5t152.5 -131.5l-60 -58q-53 57 -153 136.5t-193 141.5z" />
    <glyph glyph-name="uni4E0E" unicode="&#x4e0e;" 
d="M968 268v-73h-196q-28 -188 -76 -236q-32 -32 -91 -36q-69 -4 -182 4q-4 43 -28 75q90 -8 184 -8q38 0 53 13q38 33 63 188h-637v73h648q4 32 17 149h-426q-1 -6 -13 -53l-79 8q56 196 107 486l78 -7q-8 -43 -28 -139h499v-73h-513q-1 -4 -35 -153h492q-1 -24 -2 -35
q-11 -105 -21 -183h186z" />
    <glyph glyph-name="uni4E10" unicode="&#x4e10;" 
d="M946 713h-401v-131h337v-70h-337v-139h395l-3 -37q-22 -182 -44 -268t-54 -115q-31 -30 -88 -31q-58 -3 -171 3q-2 39 -27 73q86 -7 173 -7q37 0 51 10q46 40 78 300h-635q-4 -22 -13 -67l-75 12q41 173 67 381l75 -7q-17 -117 -41 -247h237v340h-389v71h865v-71z" />
    <glyph glyph-name="uni4E11" unicode="&#x4e11;" 
d="M339 27h331q12 106 28 331h-312q-16 -134 -47 -331zM719 716h-289l-34 -282h307q14 225 16 282zM970 358h-195q-13 -196 -26 -331h208v-73h-889v73h191q26 140 51 331h-254v76h265q17 140 32 282h-211v74h657q-8 -168 -20 -356h191v-76z" />
    <glyph glyph-name="uni4E14" unicode="&#x4e14;" 
d="M294 220v-180h445v180h-445zM739 723h-445v-176h445v176zM739 294v181h-445v-181h445zM817 40h150v-75h-909v75h161v757h598v-757z" />
    <glyph glyph-name="uni4E15" unicode="&#x4e15;" 
d="M583 510l56 44q86 -63 178.5 -139.5t143.5 -130.5l-61 -52q-50 55 -141.5 135.5t-175.5 142.5zM472 80v430q-154 -167 -369 -278q-22 34 -57 65q149 67 274.5 174.5t209.5 241.5h-449v72h860v-72h-317q-44 -70 -75 -111v-522h-77zM60 36h905v-73h-905v73z" />
    <glyph glyph-name="uni4E16" unicode="&#x4e16;" 
d="M548 315h192v214h-192v-214zM816 199h-76v45h-192v-50h-75v335h-190v-458h657v-74h-657v-75h-78v607h-153v73h153v227h78v-227h190v249h75v-249h192v237h76v-237h159v-73h-159v-330z" />
    <glyph glyph-name="uni4E17" unicode="&#x4e17;" 
d="M740 82v436h-195v-436h195zM281 518v-436h190v436h-190zM969 592v-74h-152v-590h-77v79h-459v-84h-76v595h-148v74h148v250h76v-250h190v250h74v-250h195v250h77v-250h152z" />
    <glyph glyph-name="uni4E18" unicode="&#x4e18;" 
d="M293 419v-380h346v380h-346zM717 39h254v-75h-917v75h162v712l70 -17q329 47 494 107l59 -63q-183 -63 -546 -111v-174h627v-74h-203v-380z" />
    <glyph glyph-name="uni4E19" unicode="&#x4e19;" 
d="M548 713v-149v-3h367v-538q0 -37 -10 -56t-36 -28q-41 -14 -186 -14q-7 37 -28 76q99 -4 161 -1q14 1 19.5 6t5.5 17v465h-296q-3 -31 -16 -81q199 -147 276 -234l-54 -57q-75 86 -245 221q-64 -147 -243 -242q-20 31 -56 59q93 44 151 104.5t78.5 113t27.5 116.5h-278
v-566h-75v639h356v4v148h-394v74h878v-74h-403z" />
    <glyph glyph-name="uni4E1E" unicode="&#x4e1e;" 
d="M358 588l46 -21q-40 -147 -121 -256.5t-187 -173.5q-9 13 -26.5 30t-29.5 24q91 50 162.5 134.5t110.5 192.5h-242v67h273zM82 -37v70h858v-70h-858zM871 635l67 -50q-134 -111 -233 -174q124 -148 281 -209q-35 -29 -53 -65q-120 55 -218.5 158t-163.5 235v-355
q0 -34 -9.5 -51t-34.5 -26q-34 -11 -179 -11q-6 28 -26 69q34 -1 151 -1q23 1 23 21v456h61q82 54 143 112h-492v69h562l17 4l51 -38q-94 -100 -228 -185q36 -76 77 -133q118 83 204 174z" />
    <glyph glyph-name="uni4E21" unicode="&#x4e21;" 
d="M963 711h-421v-136h372v-566q0 -34 -9 -51.5t-33 -25.5q-35 -13 -166 -11q-8 35 -26 68q98 -3 138 -1q13 1 17.5 5.5t4.5 15.5v495h-298v-317h127v234h67v-360h-67v60h-322v-74h-64v374h64v-234h121v317h-283v-584h-72v655h355v136h-406v73h901v-73z" />
    <glyph glyph-name="uni4E26" unicode="&#x4e26;" 
d="M438 579v-536h143v536h-143zM655 43h312v-77h-909v77h306v536h-279v73h234q-28 84 -98 176l67 27q77 -96 102 -174l-64 -29h347l-42 16q57 81 104 188l81 -25q-64 -116 -111 -179h235v-73h-285v-536zM134 462l68 18q36 -74 64.5 -164t37.5 -158l-73 -19q-7 66 -34 156.5
t-63 166.5zM773 137l-68 21q65 142 112 331l80 -19q-62 -198 -124 -333z" />
    <glyph glyph-name="uni4E2A" unicode="&#x4e2a;" 
d="M508 775q-64 -99 -184 -208.5t-252 -186.5q-23 36 -49 60q134 75 256.5 191.5t184.5 222.5h79q82 -117 209.5 -226.5t254.5 -173.5q-31 -31 -53 -69q-126 74 -251 182.5t-195 207.5zM469 521h79v-599h-79v599z" />
    <glyph glyph-name="uni4E2D" unicode="&#x4e2d;" 
d="M549 329h294v271h-294v-271zM177 329h293v271h-293v-271zM549 675h372v-479h-78v58h-294v-332h-79v332h-293v-64h-75v485h368v182h79v-182z" />
    <glyph glyph-name="uni4E31" unicode="&#x4e31;" 
d="M354 424v419h76v-420q0 -70 -5.5 -123.5t-23.5 -112.5t-49.5 -104.5t-85 -89t-128.5 -76.5q-18 34 -49 61q124 52 182.5 128t73.5 178h-171v-87h-75v538h75v-381h178q2 23 2 70zM850 735h76v-522h-76v71h-186v-361h-76v920h76v-489h186v381z" />
    <glyph glyph-name="uni4E32" unicode="&#x4e32;" 
d="M549 159h289v147h-289v-147zM187 159h282v147h-282v-147zM227 529h242v142h-242v-142zM793 671h-244v-142h244v142zM549 377h370v-328h-81v41h-289v-168h-80v168h-282v-43h-76v330h358v85h-318v276h318v118h80v-118h324v-276h-324v-85z" />
    <glyph glyph-name="uni4E36" unicode="&#x4e36;" 
d="M273 577l63 52q112 -77 226 -175.5t174 -172.5l-69 -63q-57 76 -170 178t-224 181z" />
    <glyph glyph-name="uni4E38" unicode="&#x4e38;" 
d="M803 12h89q23 0 30 34t9 151q27 -22 70 -35q-5 -131 -25 -177.5t-77 -46.5h-108q-57 0 -78.5 24.5t-21.5 94.5v506h-234q-12 -148 -43 -251q111 -76 174 -139l-58 -61q-49 52 -144 124q-87 -212 -296 -316q-18 33 -55 60q206 98 286 304q-81 56 -190 118l52 53
q93 -51 162 -97q26 99 33 205h-288v75h293q3 72 3 215h79q0 -119 -4 -215h309v-582q0 -28 6 -36t27 -8z" />
    <glyph glyph-name="uni4E39" unicode="&#x4e39;" 
d="M383 637l53 43q125 -89 202 -178l-57 -48q-68 82 -198 183zM280 412h473v321h-472v-274q0 -31 -1 -47zM968 412v-73h-139v-316q0 -39 -11.5 -60t-38.5 -30q-40 -12 -206 -12q-9 43 -28 74q108 -4 179 -1q16 1 22.5 7t6.5 22v316h-478q-23 -279 -180 -420q-24 33 -56 54
q141 127 162 366h-143v73h146q1 16 1 48v343h624v-391h139z" />
    <glyph glyph-name="uni4E3B" unicode="&#x4e3b;" 
d="M552 30h415v-75h-906v75h410v251h-315v73h315v225h-362v74h449q-65 77 -174 157l61 43q124 -88 188 -165l-48 -35h330v-74h-363v-225h321v-73h-321v-251z" />
    <glyph glyph-name="uni4E3C" unicode="&#x4e3c;" 
d="M397 506l54 45q118 -90 169 -167l-58 -50q-22 36 -68.5 84.5t-96.5 87.5zM343 299h331v290h-324v-139q0 -94 -7 -151zM974 299v-72h-223v-305h-77v305h-341q-42 -198 -207 -307q-27 33 -58 57q141 90 185 250h-202v72h216q8 65 8 152v138h-193v71h193v192h75v-192h324
v193h77v-193h194v-71h-194v-290h223z" />
    <glyph glyph-name="uni4E3F" unicode="&#x4e3f;" 
d="M520 831h80v-316q0 -74 -5 -129.5t-23.5 -124t-50.5 -122.5t-89.5 -109.5t-138.5 -98.5q-31 37 -65 59q64 34 113 73t80 82t51.5 85.5t30.5 93.5t13.5 93.5t3.5 97.5v316z" />
    <glyph glyph-name="uni4E42" unicode="&#x4e42;" 
d="M768 788l83 -20q-93 -357 -282 -561q170 -153 424 -214q-26 -22 -54 -73q-258 66 -431 227q-162 -145 -414 -228q-7 14 -24.5 37t-31.5 35q251 75 412 217q-177 201 -267 559l78 17q79 -327 250 -517q172 185 257 521z" />
    <glyph glyph-name="uni4E43" unicode="&#x4e43;" 
d="M692 522h258q-1 -28 -2 -38q-13 -256 -31 -369t-50 -146q-31 -35 -90 -39q-66 -3 -181 3q-4 41 -28 77q78 -7 181 -7q36 0 50 13q25 22 40.5 121t27.5 312h-184q-1 -11 -5 -36.5l-6 -38.5l-80 7q27 143 43 333h-265v-69q0 -73 -4 -133t-20 -145t-44 -156t-80 -149
t-124 -141q-32 43 -58 62q68 58 116.5 130.5t74 136.5t40 142.5t18 131.5t3.5 121v69h-199v72h629q-12 -124 -30 -264z" />
    <glyph glyph-name="uni4E45" unicode="&#x4e45;" 
d="M645 695l54 -24q-36 -143 -93 -261q54 -142 153.5 -254.5t226.5 -165.5q-26 -20 -54 -67q-119 56 -214 161t-158 243q-167 -278 -451 -408q-9 15 -27.5 36.5t-31.5 30.5q195 83 339.5 241.5t210.5 387.5h-267q-96 -185 -227 -302q-32 32 -67 56q101 82 180.5 209
t127.5 278l80 -18q-26 -80 -57 -147h261z" />
    <glyph glyph-name="uni4E4B" unicode="&#x4e4b;" 
d="M866 659l58 -35q-90 -145 -237.5 -296t-297.5 -252q108 -63 331 -63q216 0 262 1q-22 -36 -29 -74h-237q-185 0 -300.5 41t-185.5 154q-65 -127 -121 -212l-73 44q53 65 105.5 162t83.5 183l74 -29q-6 -15 -32 -71q22 -49 62 -89q128 84 258 211.5t213 247.5h-697v72h369
v201h76v-201h302z" />
    <glyph glyph-name="uni4E4D" unicode="&#x4e4d;" 
d="M962 608h-474v-149h415v-73h-415v-156h430v-74h-430v-235h-78v687h-126q-78 -130 -169 -221q-26 23 -70 48q82 74 154 186.5t119 237.5l78 -20q-29 -78 -70 -156h636v-75z" />
    <glyph glyph-name="uni4E4E" unicode="&#x4e4e;" 
d="M968 376v-77h-407v-274q0 -41 -13 -62t-42 -29q-41 -14 -211 -14q-10 38 -34 78q57 -2 190 -2q17 1 23.5 7.5t6.5 22.5v273h-422v77h422v339q-178 -15 -338 -20q-3 30 -18 69q483 18 712 78l40 -69q-127 -33 -316 -50v-347h407zM172 640l67 23q74 -127 99 -222l-70 -27
q-22 91 -96 226zM750 416l-62 25q67 110 111 240l81 -28q-88 -174 -130 -237z" />
    <glyph glyph-name="uni4E4F" unicode="&#x4e4f;" 
d="M834 535l55 -38q-87 -119 -227 -239t-286 -198q98 -51 312 -51q249 0 299 1q-21 -32 -28 -72h-272q-180 0 -287.5 34.5t-173.5 130.5q-65 -113 -109 -171l-68 43q46 51 93.5 128.5t75.5 144.5l70 -26q-7 -15 -25 -49q21 -39 49 -67q123 61 245 158.5t203 193.5h-634v72
h344v184q-213 -16 -348 -20q-3 26 -19 68q212 7 416.5 27t323.5 49l59 -62q-136 -34 -355 -55v-191h271z" />
    <glyph glyph-name="uni4E55" unicode="&#x4e55;" 
d="M218 475h321v95h-321v-95zM539 636v98q-142 -12 -321 -19v-79h321zM964 410h-351v-96h301v-243q0 -30 -8.5 -46.5t-31.5 -24.5q-31 -11 -164 -11q-6 28 -23 65q99 -3 133 -1q12 1 16 4.5t4 13.5v177h-227v-327h-74v327h-208v-264h-74v330h282v96h-323q-12 -307 -118 -479
q-29 36 -60 49q45 73 70 175.5t30 178t5 175.5v283l67 -15q437 21 634 66l58 -58q-135 -28 -289 -44v-105h348v-66h-348v-95h351v-65z" />
    <glyph glyph-name="uni4E56" unicode="&#x4e56;" 
d="M288 394v131h70v-531h-70v122q-126 -48 -200 -73l-34 70q80 20 234 69v146h-210v66h210zM963 568h-417v-646h-74v646h-407v69h407v105q-162 -10 -331 -15q-2 28 -16 61q460 15 697 62l51 -60q-133 -25 -327 -41v-112h417v-69zM765 74h109q20 0 26.5 18.5t8.5 86.5
q23 -17 66 -29q-5 -85 -24 -115t-69 -30h-125q-59 0 -79.5 21.5t-20.5 82.5v415h72v-185q113 52 170 95l54 -55q-73 -47 -224 -106v-165q0 -22 6.5 -28t29.5 -6z" />
    <glyph glyph-name="uni4E57" unicode="&#x4e57;" 
d="M325 389v-115h147v115h-147zM325 568v-111h147v111h-147zM698 568h-151v-111h151v111zM698 274v115h-151v-115h151zM929 208h-322q67 -63 169 -116.5t204 -81.5q-33 -29 -54 -68q-102 35 -204 95.5t-175 133.5v-250h-75v250q-71 -70 -172.5 -129.5t-202.5 -93.5
q-23 37 -52 64q100 28 200.5 81t167.5 115h-310v66h148v115h-190v68h190v111h-135v67h356v91q-145 -12 -333 -17q-2 34 -17 64q468 15 703 69l52 -61q-114 -28 -330 -49v-97h369v-67h-143v-111h191v-68h-191v-115h156v-66z" />
    <glyph glyph-name="uni4E58" unicode="&#x4e58;" 
d="M657 546h71v-105q73 27 145 65l47 -56q-90 -40 -192 -71v-83q0 -17 6 -22t28 -5h101q18 0 24 13.5t7 62.5q26 -21 64 -26q-7 -67 -25.5 -91t-61.5 -24h-117q-58 0 -77.5 19t-19.5 73v250zM83 221l-15 66l225 34v90h-196v62h196v71h71v-331h-71v47zM550 573v-234
q65 -107 183 -195.5t250 -127.5q-25 -23 -50 -63q-110 38 -210.5 113t-172.5 171v-314h-78v308q-72 -94 -172 -165.5t-212 -108.5q-23 40 -49 63q133 38 250 124.5t183 193.5v235h-403v70h403v94q-161 -12 -320 -15q-3 27 -18 64q461 16 694 65l35 -67q-126 -25 -313 -41
v-100h403v-70h-403z" />
    <glyph glyph-name="uni4E59" unicode="&#x4e59;" 
d="M306 40h475q55 0 74.5 40.5t24.5 170.5q37 -20 77 -29q-7 -107 -26 -162t-54.5 -76t-102.5 -21h-460q-109 0 -164 37t-55 104q0 27 6.5 49t36.5 66t87.5 101.5t163 152l259.5 222.5h-547v77h655l18 5l53 -38q-5 -7 -15 -11l-351.5 -292.5t-193.5 -180.5t-74.5 -91.5
t-16.5 -52.5q0 -71 130 -71z" />
    <glyph glyph-name="uni4E5D" unicode="&#x4e5d;" 
d="M783 11h105q21 0 28 27.5t9 120.5q22 -20 70 -34q-5 -109 -25.5 -148.5t-76.5 -39.5h-121q-60 0 -81.5 24t-21.5 93v466h-235q-7 -82 -20 -149t-38 -135.5t-61.5 -123t-92.5 -104t-128 -86.5q-20 36 -56 61q84 40 144 96.5t94.5 127.5t52.5 145.5t26 167.5h-270v76h275
q4 107 4 250h80q-2 -195 -5 -250h306v-543q0 -27 6.5 -34.5t31.5 -7.5z" />
    <glyph glyph-name="uni4E5E" unicode="&#x4e5e;" 
d="M948 651h-675q-82 -119 -164 -191q-37 34 -67 55q77 60 145 151.5t110 191.5l78 -23q-15 -38 -56 -109h629v-75zM334 17l470 -1q44 0 59.5 27.5t19.5 119.5q39 -20 74 -26q-10 -121 -41.5 -158t-117.5 -37h-455q-187 0 -187 114q0 18 3.5 31t16 35.5t41.5 49.5t75 64
t120.5 88t175.5 114h-380v74h510l17 3l56 -39q-10 -7 -18 -12l-249.5 -155.5t-159 -106.5t-86 -69t-37.5 -42.5t-7 -27.5q0 -46 100 -46z" />
    <glyph glyph-name="uni4E5F" unicode="&#x4e5f;" 
d="M416 12h360q70 0 92 34.5t32 146.5q28 -20 71 -31q-6 -66 -16 -104.5t-31.5 -66t-56 -38t-90.5 -10.5h-358q-115 0 -156 32.5t-41 127.5v320l-167 -52l-20 68l187 58v290h74v-268l212 66v270h75v-248l237 74l6 5l16 11l53 -23l-4 -15q-5 -298 -33 -374q-25 -69 -82 -77
q-45 -7 -120 -5q-5 46 -19 70q36 -3 102 -3q19 0 32 9.5t22 38.5q20 58 23 289l-233 -72v-396h-75v372l-212 -66v-344q0 -54 23 -71.5t97 -17.5z" />
    <glyph glyph-name="uni4E62" unicode="&#x4e62;" 
d="M398 189v467h67v-610h-67v74h-252v-105h-64v641h64v-467h91v655h69v-655h92zM685 24h167q33 0 43.5 33.5t15.5 143.5q30 -24 71 -33q-8 -125 -33 -170.5t-93 -45.5h-179q-72 0 -98 28t-26 106v763h75v-764q0 -39 10.5 -50t46.5 -11z" />
    <glyph glyph-name="uni4E71" unicode="&#x4e71;" 
d="M461 54v209h-292v-209h292zM351 740v-168h226v-69h-226v-171h185v-384h-75v38h-292v-44h-72v390h179v171h-232v69h232v155q-109 -17 -194 -25q-6 33 -22 62q300 33 438 84l58 -57q-92 -32 -205 -51zM743 6h120q28 0 36.5 36.5t12.5 155.5q30 -25 69 -34q-6 -131 -28 -179
t-84 -48h-134q-65 0 -87.5 27t-22.5 104v777h74v-778q0 -38 8 -49.5t36 -11.5z" />
    <glyph glyph-name="uni4E73" unicode="&#x4e73;" 
d="M490 853l47 -63q-162 -49 -474 -69q-6 32 -21 63q296 21 448 69zM330 570l-67 -10q-2 68 -24 150l62 9q26 -87 29 -149zM173 552l-63 -17q-7 60 -45 146l59 15q36 -70 49 -144zM482 728l70 -28q-63 -116 -116 -186l-57 24q53 75 103 190zM338 319v-46l106 9.5t114 9.5
v-71q-133 -13 -220 -20v-194q0 -33 -7.5 -49t-29.5 -25q-32 -11 -143 -11q-5 28 -25 70q52 -1 114 -1q10 1 13.5 4.5t3.5 12.5v186q-25 -2 -102.5 -9l-112.5 -10l-8 76q141 9 223 16v90h28q52 37 103 88h-310v69h378l17 4l48 -39q-85 -92 -190 -160zM724 6h136q31 0 40 37.5
t13 160.5q32 -25 71 -35q-6 -135 -29.5 -184.5t-89.5 -49.5h-151q-68 0 -93 29t-25 108v766h78v-767q0 -41 9.5 -53t40.5 -12z" />
    <glyph glyph-name="uni4E7E" unicode="&#x4e7e;" 
d="M161 399v-83h251v83h-251zM161 536v-81h251v81h-251zM321 257v-85h192v-70h-192v-180h-74v180h-201v70h201v85h-155v337h155v87h-189v68h189v108h74v-108h183v-68h-183v-87h161v-56q98 115 148 318l75 -15q-16 -63 -45 -138h318v-69h-347q-45 -95 -95 -155q-24 22 -54 43
v-265h-161zM669 8h205q26 0 35 27t11 121q34 -21 66 -25q-4 -84 -17 -126.5t-34.5 -56.5t-62.5 -14h-202q-134 0 -134 96q0 28 10.5 56t66 111t164.5 218h-218v69h305l50 -18q-1 -1 -4 -7t-5 -9q-129 -154 -196 -243.5t-81.5 -118t-14.5 -48.5q0 -32 56 -32z" />
    <glyph glyph-name="uni4E80" unicode="&#x4e80;" 
d="M204 104h265v71h-265v-71zM469 293h-265v-70h265v70zM826 293h-283v-70h283v70zM543 104h283v71h-283v-71zM246 443h223v69h-223v-69zM558 739h-237q-29 -32 -68 -63h258q27 31 47 63zM469 559v68h-223v-68h223zM772 559v68h-229v-68h229zM772 443v69h-229v-69h229z
M618 -15h228q36 0 47.5 21t16.5 91q26 -18 68 -27q-8 -84 -33 -113.5t-96 -29.5h-237q-84 0 -113.5 24t-29.5 93v7h-265v-57h-73v352h338v48h-295v222q-48 -31 -70 -42q-28 35 -54 52q93 45 163 107t109 126l80 -16q-17 -26 -32 -46h228l11 4l50 -32q-23 -45 -63 -93h251
v-282h-304v-48h357v-295h-357v-7q0 -36 14 -47.5t61 -11.5z" />
    <glyph glyph-name="uni4E82" unicode="&#x4e82;" 
d="M507 857l52 -53q-145 -36 -369 -56q-40 -120 -95 -189q-16 16 -55 38q70 81 100 215l41 -9q222 25 326 54zM379 642l-65 -16q-2 50 -27 109l62 14q28 -60 30 -107zM586 434v-435q0 -53 -34 -66q-27 -12 -129 -12q-5 28 -27 63h34q-28 20 -70 42q-58 -55 -128 -87
q-11 17 -32 36q60 25 115 72q-61 27 -84 35l27 39q37 -11 94 -36q28 33 43 61h-168v44h194l9 3l33 -14q-21 -60 -67 -116q43 -21 69 -39l-26 -40h61q18 0 18 15v375h-189l13 -4q-23 -52 -42 -91l110 3q-18 21 -36 39l41 21q66 -62 89 -103l-43 -25q-6 11 -16 24
q-73 -3 -243 -13l-7 49l51 2q25 57 37 98h-114v-452h-68v512h255q-73 41 -143 63l37 40q26 -8 82 -30q41 20 92 57h-268v53h331l15 5l43 -33q-65 -60 -157 -108q34 -16 56 -32l-12 -15h154zM469 755l53 27q81 -95 118 -176l-56 -32q-31 77 -115 181zM771 -3h106
q25 0 32.5 36t9.5 153q33 -22 67 -31q-5 -131 -25.5 -178.5t-78.5 -47.5h-121q-60 0 -81.5 26t-21.5 101v780h73v-782q0 -37 7 -47t33 -10z" />
    <glyph glyph-name="uni4E85" unicode="&#x4e85;" 
d="M479 824h81v-775q0 -43 -12.5 -64t-42.5 -31q-45 -15 -214 -15q-7 35 -31 85q57 -2 115.5 -2.5t71.5 0.5q18 1 25 6.5t7 21.5v774z" />
    <glyph glyph-name="uni4E86" unicode="&#x4e86;" 
d="M848 782l59 -43q-67 -80 -164 -161t-190 -135v-423q0 -38 -12 -58t-41 -29q-39 -11 -211 -11q-3 26 -31 76q58 -2 116 -2.5t70 0.5q17 1 23.5 6.5t6.5 19.5v488h50q126 76 239 192h-660v75h728z" />
    <glyph glyph-name="uni4E88" unicode="&#x4e88;" 
d="M912 482l61 -28q-102 -168 -183 -249l-62 39q63 68 120 159h-291v-386q0 -35 -10.5 -53t-37.5 -26q-43 -13 -184 -13q-5 20 -29 74q98 -4 160 -1q14 1 19 5t5 15v385h-422v73h531q-124 63 -295 136l39 57q136 -56 185 -78q110 62 195 140h-558v71h631l18 4l55 -42
q-114 -114 -266 -208q44 -19 110 -53l-17 -27h211z" />
    <glyph glyph-name="uni4E89" unicode="&#x4e89;" 
d="M793 223v119h-249v-119h249zM544 524v-112h249v112h-249zM587 706h-257q-61 -68 -116 -114h276q47 44 97 114zM981 412v-70h-112v-243h-76v55h-249v-139q0 -37 -10.5 -55t-37.5 -27q-38 -12 -184 -12q-7 35 -28 73q50 -2 99 -2.5t58 0.5q15 2 20.5 6.5t5.5 16.5v139h-320
v69h320v119h-420v70h420v112h-279v46q-60 -44 -67 -48q-26 35 -56 52q94 57 166.5 133t115.5 151l83 -15q-11 -18 -48 -71h255l12 4l54 -38q-48 -75 -118 -146h284v-180h112z" />
    <glyph glyph-name="uni4E8A" unicode="&#x4e8a;" 
d="M788 173v101h-241v-101h241zM547 437v-99h241v99h-241zM973 338v-64h-109v-219h-76v54h-241v-96q0 -36 -10.5 -54t-36.5 -26q-33 -11 -177 -11q-10 37 -29 66q92 -4 149 -1q28 0 28 26v96h-317v64h317v101h-418v64h418v99h-312v65h312v185h-394v68h394v103h76v-103h403
v-68h-403v-185h317v-164h109zM214 656l65 23q54 -80 71 -150l-66 -25q-15 61 -70 152zM718 507l-58 21q48 74 77 155l76 -25q-58 -103 -95 -151z" />
    <glyph glyph-name="uni4E8B" unicode="&#x4e8b;" 
d="M793 135v77h-246v-77h246zM547 344v-72h246v72h-246zM251 525h220v74h-220v-74zM776 599h-229v-74h229v74zM974 272v-60h-106v-181h-75v46h-246v-71q0 -34 -10.5 -50.5t-34.5 -25.5q-35 -12 -170 -12q-6 30 -27 65q31 -1 140 -1q26 1 26 24v71h-331v58h331v77h-419v60
h419v72h-321v56h321v72h-293v180h293v60h-399v62h399v82h76v-82h407v-62h-407v-60h305v-180h-305v-72h321v-128h106z" />
    <glyph glyph-name="uni4E8C" unicode="&#x4e8c;" 
d="M147 710h731v-81h-731v81zM61 106h903v-82h-903v82z" />
    <glyph glyph-name="uni4E8E" unicode="&#x4e8e;" 
d="M966 451v-75h-405v-343q0 -42 -12 -62.5t-41 -29.5q-44 -15 -208 -15q-7 32 -33 79q134 -3 186 -1q17 1 23 7t6 22v343h-423v75h423v258h-352v74h764v-74h-333v-258h405z" />
    <glyph glyph-name="uni4E91" unicode="&#x4e91;" 
d="M859 779v-77h-687v77h687zM965 396h-495q-79 -198 -154 -336q286 10 477 18q-66 96 -149 188l71 35q74 -77 143.5 -172t105.5 -166l-76 -43q-14 31 -48 86q-409 -19 -762 -32l-7 79l160 4q78 145 142 339h-312v78h904v-78z" />
    <glyph glyph-name="uni4E92" unicode="&#x4e92;" 
d="M307 281h365q12 103 24 221h-341q-12 -59 -48 -221zM718 38h252v-71h-914v71h580l27 173h-371l-13 -53l-82 8q60 215 121 555h-227v71h848v-71h-541q-4 -19 -13 -70.5t-15 -79.5h413q-33 -332 -65 -533z" />
    <glyph glyph-name="uni4E94" unicode="&#x4e94;" 
d="M719 384h-277q-48 -245 -69 -332h346v332zM796 52h170v-74h-905v74h229q26 105 71 332h-195v75h210q27 142 40 224h-290v75h766v-75h-393q-7 -42 -22.5 -125l-18.5 -99h338v-407z" />
    <glyph glyph-name="uni4E95" unicode="&#x4e95;" 
d="M369 329h287v242h-282v-114q0 -75 -5 -128zM959 329v-76h-225v-331h-78v331h-297q-39 -222 -218 -341q-31 35 -64 55q163 104 201 286h-211v76h223q5 53 5 129v113h-197v75h197v206h79v-206h282v207h78v-207h202v-75h-202v-242h225z" />
    <glyph glyph-name="uni4E98" unicode="&#x4e98;" 
d="M90 791h850v-71h-850v71zM59 33h908v-72h-908v72zM289 349v-142h451v142h-451zM289 554v-140h451v140h-451zM214 624h605v-487h-605v487z" />
    <glyph glyph-name="uni4E99" unicode="&#x4e99;" 
d="M722 38h247v-71h-913v71h586q40 205 69 483h-343q-55 -247 -95 -386l-83 5q74 252 140 579h-241v71h850v-71h-528q-5 -28 -28 -130h413q-28 -272 -74 -551zM353 234l46 54q58 -26 118.5 -62t93.5 -67l-48 -60q-32 31 -92.5 70t-117.5 65zM406 420l44 51q121 -56 186 -113
l-48 -56q-61 59 -182 118z" />
    <glyph glyph-name="uni4E9B" unicode="&#x4e9b;" 
d="M858 341h-174q-72 0 -97 24t-25 91v400h76v-203q150 54 227 104l61 -59q-100 -54 -288 -112v-130q0 -27 9.5 -34.5t44.5 -7.5h160q30 0 39 23.5t13 109.5q27 -20 71 -32q-8 -103 -31.5 -138.5t-85.5 -35.5zM175 171v73h686v-73h-686zM515 439l1 -68q-288 -40 -461 -60
l-9 74l68 7v352h70v-344l90 12v444h75v-175h159v-70h-159v-190zM61 -53v75h903v-75h-903z" />
    <glyph glyph-name="uni4E9C" unicode="&#x4e9c;" 
d="M425 216v-183h160v183h-160zM199 285h151v226h-151v-226zM425 722v-142h160v142h-160zM585 285v226h-160v-226h160zM817 511h-160v-226h160v226zM657 33h315v-70h-919v70h297v183h-151v-37h-72v401h223v142h-267v70h859v-70h-285v-142h235v-398h-75v34h-160v-183z" />
    <glyph glyph-name="uni4E9E" unicode="&#x4e9e;" 
d="M203 290h230v-254h153v254h231v210h-231v222h-154v-223h-229v-209zM658 36h311v-69h-913v69h303v188h-156v-41h-73v382h229v157h-275v70h860v-70h-286v-156h235v-377h-76v35h-159v-188z" />
    <glyph glyph-name="uni4E9F" unicode="&#x4e9f;" 
d="M317 270v232h-134v-232h134zM117 565h225q24 93 36 158h-291v68h856v-68h-494q-3 -17 -9.5 -48t-9.5 -44h160v-36q-6 -266 -15 -369.5t-30 -130.5q-20 -30 -65 -35q-46 -4 -109 1q-2 36 -21 67q43 -4 100 -4q22 0 32 12q25 37 36 428h-103l-9 -33l-22 1v-325h-201v-67
h-66v425zM56 -37v70h913v-70h-913zM882 601l43 -13q-27 -185 -110 -314q71 -79 168 -119q-31 -25 -50 -62q-90 45 -160 124q-64 -76 -150 -122q-22 38 -43 57q86 42 149 121q-64 92 -106 227l60 15q27 -96 86 -182q54 90 77 202h-224v63h246z" />
    <glyph glyph-name="uni4EA0" unicode="&#x4ea0;" 
d="M550 459h419v-78h-912v78h412v214h81v-214z" />
    <glyph glyph-name="uni4EA1" unicode="&#x4ea1;" 
d="M970 580h-716v-453q0 -51 25.5 -72.5t89.5 -21.5h404q100 0 154 9q1 -6 5 -36t6 -40q-35 -8 -166 -8h-395q-108 0 -154.5 38.5t-46.5 134.5v449h-122v75h418v201h76v-201h422v-75z" />
    <glyph glyph-name="uni4EA2" unicode="&#x4ea2;" 
d="M962 709v-74h-899v74h408v148h79v-148h412zM779 10h100q13 0 20 6t12 27t6.5 52.5t3.5 91.5q29 -22 69 -32q-5 -128 -25.5 -172t-78.5 -44h-118q-61 0 -83 23.5t-22 90.5v388h-318v-122q0 -281 -253 -399q-5 12 -21.5 32.5t-27.5 29.5q71 33 118 74t69 87.5t29.5 87
t7.5 91.5v192h472v-461q0 -28 7 -35.5t33 -7.5z" />
    <glyph glyph-name="uni4EA4" unicode="&#x4ea4;" 
d="M958 724v-74h-891v74h405v134h76v-134h410zM633 577l60 46q80 -54 157 -116.5t118 -110.5l-67 -52q-39 48 -115 113.5t-153 119.5zM328 618l76 -29q-51 -70 -128.5 -138.5t-154.5 -116.5q-37 42 -63 60q78 41 151.5 101.5t118.5 122.5zM659 443l79 -22
q-58 -152 -167 -259q157 -126 413 -168q-26 -25 -50 -72q-257 49 -422 187q-159 -125 -420 -191q-14 36 -48 72q263 55 412 172q-100 106 -160 254l73 22q50 -129 145 -225q95 95 145 230z" />
    <glyph glyph-name="uni4EA5" unicode="&#x4ea5;" 
d="M818 431l70 -41q-85 -123 -222 -224q175 -102 284 -189l-70 -56q-97 84 -284 198q-208 -130 -498 -199q-21 47 -45 72q260 57 458 168t307 271zM549 725h415v-72h-445l18 -8q-98 -107 -210 -198q67 -47 107 -83q160 99 246 221l68 -37q-100 -136 -263 -239.5t-360 -163.5
q-23 41 -47 67q153 44 281 110q-95 87 -225 164l55 50q21 -11 79 -50q101 87 168 167h-374v72h409v132h78v-132z" />
    <glyph glyph-name="uni4EA6" unicode="&#x4ea6;" 
d="M208 498l78 -17q-63 -197 -188 -322q-21 21 -67 45q120 110 177 294zM959 606h-272v-586q0 -37 -10 -56.5t-36 -28.5q-37 -13 -176 -13q-6 35 -27 78q67 -2 147 -2q13 1 18 5.5t5 16.5v586h-161v-120q0 -63 -4 -113t-19.5 -116.5t-42 -121.5t-76 -114.5t-117.5 -107.5
q-15 25 -56 56q63 44 109 98t70.5 104t39 110t18 105t3.5 101v119h-306v75h408v176h77v-176h408v-75zM745 471l68 29q56 -75 104.5 -166.5t68.5 -158.5l-75 -34q-18 66 -65 159t-101 171z" />
    <glyph glyph-name="uni4EA8" unicode="&#x4ea8;" 
d="M848 348l55 -46q-140 -92 -347 -154v-145q0 -34 -11.5 -50.5t-40.5 -23.5q-45 -12 -206 -10q-7 35 -28 68q140 -5 180 -1q16 0 21.5 4t5.5 16v200h62q94 28 185 73h-621v65h727zM743 470v104h-457v-104h457zM823 630v-214h-612v214h612zM549 761h410v-68h-894v68h405v96
h79v-96z" />
    <glyph glyph-name="uni4EAB" unicode="&#x4eab;" 
d="M953 768v-67h-884v67h401v89h79v-89h404zM272 581v-94h482v94h-482zM834 432h-636v204h636v-204zM967 184v-65h-417v-120q0 -32 -10.5 -48t-37.5 -23q-31 -8 -186 -8q-6 27 -26 63q35 -1 156 -1q15 1 20 4.5t5 14.5v118h-412v65h412v61h45q92 25 173 62h-534v63h644l18 3
l50 -41q-127 -79 -317 -131v-17h417z" />
    <glyph glyph-name="uni4EAC" unicode="&#x4eac;" 
d="M956 738v-72h-886v72h400v119h79v-119h407zM237 212l77 -25q-36 -61 -91 -122.5t-111 -104.5q-24 21 -61 45q55 39 106.5 96.5t79.5 110.5zM270 506v-168h490v168h-490zM839 271h-290v-261q0 -34 -9.5 -51.5t-35.5 -25.5q-34 -11 -182 -11q-7 35 -26 71q102 -3 151 0
q14 0 19 3.5t5 14.5v260h-276v301h644v-301zM701 178l69 33q137 -135 195 -220l-74 -38q-67 103 -190 225z" />
    <glyph glyph-name="uni4EAD" unicode="&#x4ead;" 
d="M204 179v64h622v-64h-271v-173q0 -34 -11 -51t-40 -24q-35 -10 -199 -10q-8 32 -27 68q127 -3 171 -1q15 1 20 5t5 15v171h-270zM79 178v201h869v-201h-70v140h-732v-140h-67zM744 495v95h-463v-95h463zM205 644h619v-205h-619v205zM549 769h412v-66h-895v66h404v91h79
v-91z" />
    <glyph glyph-name="uni4EAE" unicode="&#x4eae;" 
d="M961 769v-66h-895v66h404v91h79v-91h412zM948 183h-70v127h-732v-127h-67v189h869v-189zM745 488v99h-464v-99h464zM206 642h618v-208h-618v208zM334 263h78q-7 -78 -23 -129.5t-52 -96t-97 -72.5t-155 -46q-11 34 -40 65q86 14 140.5 36t85.5 57.5t44 77.5t19 108z
M715 -8h136q27 0 35 21.5t11 100.5q28 -22 71 -30q-7 -95 -29 -126.5t-81 -31.5h-153q-72 0 -96 20.5t-24 79.5v233h81v-232q0 -23 9 -29t40 -6z" />
    <glyph glyph-name="uni4EB0" unicode="&#x4eb0;" 
d="M251 205l78 -25q-38 -58 -95.5 -116t-116.5 -98q-21 19 -62 45q58 37 112.5 90.5t83.5 103.5zM268 393v-87h492v87h-492zM268 535v-85h492v85h-492zM837 247h-288v-237q0 -34 -9.5 -52t-34.5 -26q-34 -12 -178 -12q-5 31 -27 74q70 -2 149 -2q14 2 18 5.5t4 13.5v236
h-276v348h642v-348zM680 169l65 36q125 -107 201 -202l-70 -42q-29 39 -86 99t-110 109zM549 743h419v-72h-909v72h411v114h79v-114z" />
    <glyph glyph-name="uni4EB3" unicode="&#x4eb3;" 
d="M961 772v-63h-895v63h404v85h79v-85h412zM950 231h-69v114h-738v-116h-67v175h874v-173zM752 510v92h-472v-92h472zM204 652h627v-191h-627v191zM590 -13h241q37 0 48.5 15.5t16.5 70.5q31 -18 69 -25q-7 -74 -32.5 -98t-94.5 -24h-251q-94 0 -125.5 20t-31.5 80v62
l-353 -20l-6 60l359 20v74q-111 -12 -225 -18q-3 24 -17 50q384 28 550 73l49 -47q-122 -30 -280 -50v-77l434 24l5 -59l-439 -26v-66q0 -24 15.5 -31.5t67.5 -7.5z" />
    <glyph glyph-name="uni4EB6" unicode="&#x4eb6;" 
d="M967 778v-60h-909v60h414v80h77v-80h418zM654 486v54h-278v-54h278zM715 578v-128h-398v128h398zM804 402v223h-570v-223h570zM877 671v-315h-712v315h712zM290 169v-63h459v63h-459zM290 273v-61h459v61h-459zM823 62h-605v255h605v-255zM57 17h912v-62h-912v62z" />
    <glyph glyph-name="uni4EBA" unicode="&#x4eba;" 
d="M460 825h84q-1 -7 -1.5 -23t-0.5 -24q3 -38 7.5 -77.5t18.5 -106t33.5 -127t54.5 -133t79 -132.5t110.5 -116t145.5 -92q-36 -26 -56 -63q-94 45 -170 115t-125 153t-80 161t-51 163q-92 -420 -410 -592q-26 35 -61 59q81 41 147 101t108 119t74 135t48 133t26.5 129.5
t13 108.5t4.5 86q1 16 1 23z" />
    <glyph glyph-name="uni4EC0" unicode="&#x4ec0;" 
d="M299 853l72 -23q-41 -103 -101 -208v-699h-74v580q-57 -79 -112 -137q-20 42 -43 74q77 76 146 185.5t112 227.5zM974 505v-75h-276v-509h-76v509h-286v75h286v341h76v-341h276z" />
    <glyph glyph-name="uni4EC1" unicode="&#x4ec1;" 
d="M928 684v-79h-530v79h530zM303 854l75 -24q-47 -118 -110 -225v-682h-74v566q-42 -59 -107 -125q-19 40 -47 74q79 76 149.5 186.5t113.5 229.5zM341 75h631v-79h-631v79z" />
    <glyph glyph-name="uni4EC2" unicode="&#x4ec2;" 
d="M280 853l71 -22q-36 -101 -100 -220v-688h-75v565q-40 -59 -92 -116q-14 36 -43 74q72 75 136 183.5t103 223.5zM638 613h306q-1 -29 -1 -39q-11 -318 -24 -444t-40 -159q-16 -20 -33 -28.5t-44 -11.5q-44 -4 -139 1q-4 44 -24 75q56 -5 131 -5q26 0 40 15q21 23 33 139
t22 383h-231q-13 -218 -72 -371.5t-196 -247.5q-27 37 -59 55q128 84 183.5 224t68.5 340h-212v74h215q3 77 3 240h77q0 -136 -4 -240z" />
    <glyph glyph-name="uni4EC4" unicode="&#x4ec4;" 
d="M212 722v-233q0 -378 -109 -564q-33 26 -66 40q42 71 65.5 172t28.5 177t5 175v306h821v-73h-745zM525 666h78q-1 -8 -1 -26t-1 -27q15 -125 41 -220.5t70 -176.5t110.5 -138t157.5 -90q-27 -22 -50 -66q-143 58 -227 168.5t-128 281.5q-29 -157 -107 -270t-232 -179
q-18 33 -51 61q76 31 133 73.5t92.5 100.5t58 108.5t34 129t15 129.5t7.5 141z" />
    <glyph glyph-name="uni4EC6" unicode="&#x4ec6;" 
d="M336 852l76 -23q-44 -102 -105 -203v-703h-75v591q-77 -105 -157 -179q-23 41 -52 74q93 79 176.5 196.5t136.5 246.5zM998 321l-47 -67q-135 99 -307 193v-524h-78v928h78v-321q194 -98 354 -209z" />
    <glyph glyph-name="uni4EC7" unicode="&#x4ec7;" 
d="M275 854l72 -21q-35 -100 -100 -222v-690h-75v566q-39 -56 -89 -113q-19 40 -44 75q71 73 133.5 180.5t102.5 224.5zM846 5h35q16 0 23 5q11 7 14 32q4 40 4 124q28 -25 62 -34q-2 -101 -11 -136q-7 -31 -31 -48q-22 -13 -56 -13h-58q-39 0 -62 20q-13 12 -18.5 33.5
t-5.5 76.5v480h-171q-13 -224 -66 -378t-178 -249q-20 32 -57 55q117 85 166.5 226t60.5 346h-176v73h178q2 76 2 237h76q0 -136 -4 -237h245v-559q0 -42 8 -49q8 -5 20 -5z" />
    <glyph glyph-name="uni4ECA" unicode="&#x4eca;" 
d="M772 336l13 4l60 -17q-85 -197 -192 -405l-78 22q94 181 158 324h-575v72h614zM289 535h446v-70h-446v70zM466 859h75q79 -113 202 -220.5t245 -172.5q-28 -25 -51 -66q-120 72 -240.5 179.5t-189.5 204.5q-63 -96 -178 -204t-242 -185q-16 30 -48 60q129 74 247 187
t180 217z" />
    <glyph glyph-name="uni4ECB" unicode="&#x4ecb;" 
d="M508 780q-61 -104 -175.5 -210.5t-244.5 -177.5q-14 31 -47 62q132 68 248 180t175 223h79q76 -123 197.5 -228t246.5 -162q-30 -30 -50 -68q-124 66 -243 170.5t-186 210.5zM651 499h79v-576h-79v576zM289 495h78v-143q0 -63 -7.5 -113t-29 -109.5t-69.5 -112.5
t-121 -96q-23 31 -60 54q68 39 112.5 85.5t64 99t26 95t6.5 98.5v142z" />
    <glyph glyph-name="uni4ECD" unicode="&#x4ecd;" 
d="M286 854l70 -21q-46 -113 -104 -211v-698h-72v588q-58 -80 -113 -135q-20 46 -43 74q78 74 148 181t114 222zM794 512h176q0 -26 -1 -36q-14 -263 -29 -373t-43 -140q-23 -30 -77 -36q-62 -4 -152 2q-2 42 -24 73q76 -6 146 -6q31 0 44 14q21 21 35 119t24 312h-107
l-2.5 -23t-3 -24.5t-2.5 -19.5l-72 6q19 138 33 334h-188q-3 -128 -10.5 -221.5t-28.5 -208.5t-65 -207.5t-111 -157.5q-24 30 -58 51q51 48 87.5 118t56.5 139t32 162t15.5 161.5t4.5 163.5h-118v70h461q-11 -156 -23 -272z" />
    <glyph glyph-name="uni4ECE" unicode="&#x4ece;" 
d="M499 212l-58 -65q-47 91 -138 208q-55 -280 -188 -434q-23 20 -74 52q62 64 105 151.5t67.5 200.5t37 228.5t19.5 268.5l82 -3q-11 -212 -33 -364q127 -141 180 -243zM636 820h80q-2 -86 -7 -165q12 -102 30 -187t49 -178.5t82 -169.5t118 -125q-13 -11 -31.5 -33.5
t-27.5 -39.5q-178 148 -252 488q-68 -334 -273 -486q-35 39 -68 58q47 33 86.5 76t68 85.5t51.5 99t37.5 101.5t25.5 107.5t16 102t8.5 100.5t4.5 88t2 78z" />
    <glyph glyph-name="uni4ECF" unicode="&#x4ecf;" 
d="M303 850l75 -23q-46 -110 -110 -215v-688h-75v575q-61 -82 -121 -140q-23 46 -47 75q83 75 157 185.5t121 230.5zM999 -46l-75 -33q-10 42 -36 117q-322 -35 -569 -56l-16 77l100 9q52 156 105 369t83 388l85 -14q-86 -413 -195 -737q68 5 212.5 17.5t169.5 14.5
q-59 152 -124 278l69 27q61 -112 115 -240.5t76 -216.5z" />
    <glyph glyph-name="uni4ED4" unicode="&#x4ed4;" 
d="M302 850l75 -23q-44 -108 -109 -215v-688h-75v576q-60 -81 -122 -142q-16 39 -47 76q84 75 157.5 185t120.5 231zM987 416v-74h-296v-322q0 -38 -10.5 -57t-36.5 -28q-39 -13 -193 -13q-7 36 -27 77q50 -2 166 -2q15 1 20.5 5.5t5.5 17.5v322h-306v74h306v149h42
q90 63 167 149h-430v71h493l14 3l51 -34q-49 -65 -120.5 -131t-141.5 -114v-93h296z" />
    <glyph glyph-name="uni4ED5" unicode="&#x4ed5;" 
d="M306 854l73 -23q-45 -109 -111 -219v-689h-74v578q-62 -83 -120 -137q-15 37 -46 73q83 75 157.5 186t120.5 231zM984 460h-293v-423h276v-74h-619v74h266v423h-290v74h290v307h77v-307h293v-74z" />
    <glyph glyph-name="uni4ED6" unicode="&#x4ed6;" 
d="M275 853l70 -22q-45 -114 -103 -216v-692h-75v576q-51 -71 -101 -124q-24 47 -43 71q75 74 142 182t110 225zM568 4h262q46 0 60.5 28t21.5 121q33 -24 71 -32q-10 -109 -38.5 -147.5t-110.5 -38.5h-268q-92 0 -124.5 29t-32.5 112v333l-100 -39l-29 66l129 50v270h74
v-240l150 58v281h73v-253l159 62l9 8l14 11l52 -21l-3 -14q0 -318 -12 -375q-10 -61 -62 -74q-40 -10 -103 -8q-4 41 -19 72q28 -2 78 -2q15 0 23 6t12 25q9 33 11 295l-159 -63v-376h-73v348l-150 -60v-360q0 -44 16 -58t69 -14z" />
    <glyph glyph-name="uni4ED7" unicode="&#x4ed7;" 
d="M303 850l74 -24q-45 -107 -109 -214v-689h-74v577q-66 -88 -123 -141q-16 39 -46 75q83 74 157.5 185t120.5 231zM752 568v-5q0 -255 -102 -409q124 -123 340 -166q-32 -34 -48 -69q-209 50 -339 174q-90 -102 -245 -174q-20 34 -53 63q156 70 245 172q-99 127 -151 327
l70 15q43 -168 127 -281q48 78 64 162t16 186v5h-340v73h340v211h76v-211h226v-73h-226z" />
    <glyph glyph-name="uni4ED8" unicode="&#x4ed8;" 
d="M303 850l75 -24q-49 -121 -109 -223v-679h-75v561q-47 -65 -104 -124q-27 50 -47 75q78 74 147.5 184.5t112.5 229.5zM973 630v-76h-129v-528q0 -42 -12.5 -63.5t-41.5 -29.5q-45 -14 -220 -12q-8 36 -29 75q59 -2 120 -2.5t74 0.5q18 2 25 8.5t7 23.5v528h-413v76h413
v215h77v-215h129zM638 199l-71 -38q-47 96 -148 255l65 30q109 -163 154 -247z" />
    <glyph glyph-name="uni4ED9" unicode="&#x4ed9;" 
d="M286 854l70 -21q-46 -113 -104 -211v-697h-72v587q-58 -80 -113 -135q-18 42 -43 74q78 74 148 181t114 222zM864 583h74v-635h-74v80h-430v-86h-72v641h72v-485h173v727h76v-727h181v485z" />
    <glyph glyph-name="uni4EDD" unicode="&#x4edd;" 
d="M552 311v-283h359v-78h-802v78h360v283h-263v78h610v-78h-264zM461 856h82q78 -126 201.5 -243t246.5 -184q-24 -24 -54 -72q-122 76 -242.5 191.5t-187.5 222.5q-63 -106 -177.5 -222t-243.5 -197q-18 32 -51 65q131 80 249.5 203t176.5 236z" />
    <glyph glyph-name="uni4EDE" unicode="&#x4ede;" 
d="M285 854l69 -24q-40 -97 -102 -202v-704h-73v591q-55 -80 -111 -140q-27 53 -44 76q75 76 145 183.5t116 219.5zM428 567l65 -20q-55 -197 -124 -285l-66 32q80 97 125 273zM965 760v-42q-12 -398 -26 -550.5t-44 -190.5q-17 -23 -35 -32.5t-47 -12.5q-46 -5 -148 0
q0 40 -24 79q62 -5 142 -5q27 0 41 18q25 29 39 176.5t24 485.5h-203q-3 -80 -8.5 -140.5t-18 -140t-35.5 -143t-57.5 -129t-88.5 -120t-123 -94.5q-23 33 -55 55q50 28 92 63.5t71.5 77.5t52.5 85t38 95t25 96t15.5 101t8 97.5t4.5 96.5h-243v74h603z" />
    <glyph glyph-name="uni4EDF" unicode="&#x4edf;" 
d="M275 853l72 -23q-47 -118 -105 -219v-688h-75v573q-45 -65 -101 -124q-16 41 -43 74q75 74 142 182t110 225zM979 447v-74h-288v-452h-76v452h-296v74h296v236q-129 -21 -237 -34q-7 32 -23 64q360 47 516 109l62 -61q-90 -34 -242 -64v-250h288z" />
    <glyph glyph-name="uni4EE3" unicode="&#x4ee3;" 
d="M953 671l-59 -41q-24 34 -71.5 81.5t-93.5 86.5l55 37q110 -87 169 -164zM322 845l71 -23q-41 -99 -109 -207v-692h-77v583q-67 -87 -137 -151q-17 39 -44 74q88 75 167 185.5t129 230.5zM973 515l-309 -39q58 -451 210 -465q42 -3 57 176q23 -21 63 -40
q-16 -125 -45 -176t-71 -49q-120 9 -189 149.5t-100 394.5l-246 -31l-10 72l248 31q-16 184 -20 303h76q5 -165 19 -293l307 39z" />
    <glyph glyph-name="uni4EE4" unicode="&#x4ee4;" 
d="M857 360v-280q0 -32 -9 -49t-32 -26q-35 -13 -163 -13q-6 32 -26 73q60 -2 132 -2q22 1 22 18v209h-296v-368h-79v368h-271v70h722zM298 553h430v-69h-430v69zM466 857h76q80 -109 202.5 -210.5t243.5 -160.5q-22 -22 -50 -65q-120 66 -240.5 166.5t-189.5 194.5
q-64 -93 -178.5 -193.5t-242.5 -173.5q-16 30 -48 60q129 69 247.5 176t179.5 206z" />
    <glyph glyph-name="uni4EE5" unicode="&#x4ee5;" 
d="M604 485l-72 -39q-21 54 -65 124.5t-92 125.5l67 34q111 -123 162 -245zM459 287l17 -73l-408 -181l-28 79q71 27 141 57l-17 633l78 3l15 -604zM990 -16l-63 -59q-61 93 -230 271q-119 -180 -351 -277q-24 36 -60 66q130 48 220 119t147.5 175t88.5 227.5t49 297.5
l82 -8q-40 -350 -135 -531q194 -196 252 -281z" />
    <glyph glyph-name="uni4EED" unicode="&#x4eed;" 
d="M286 854l70 -21q-46 -113 -104 -211v-697h-72v587q-58 -80 -113 -135q-20 46 -43 74q78 74 148 181t114 222zM859 702h-208q-8 -231 -47 -380q94 -91 216 -149q23 168 39 529zM355 773h583q0 -31 -1 -41q-18 -411 -43 -591q57 -20 107 -32q-31 -33 -48 -67q-32 9 -73 24
q-14 -68 -38 -97q-28 -39 -82 -44q-48 -4 -147 1q-2 44 -22 73q73 -6 139 -6q29 0 44 19q18 18 33 83q-122 55 -226 150q-76 -216 -247 -326q-22 32 -55 54q173 107 242 332q-107 120 -173 289l64 20q48 -123 131 -225q24 112 30 313h-218v71z" />
    <glyph glyph-name="uni4EEE" unicode="&#x4eee;" 
d="M286 854l70 -23q-42 -105 -104 -210v-697h-72v587q-62 -84 -112 -133q-19 40 -44 75q78 73 148 179.5t114 221.5zM858 462h-291q55 -163 152 -279q96 118 139 279zM900 535l46 -18q-48 -231 -177 -388q97 -96 224 -143q-28 -25 -51 -64q-128 52 -224 151
q-97 -97 -225 -153q-24 41 -52 62q131 55 227 146q-109 133 -174 334h-8q-4 -363 -131 -543q-33 33 -61 46q38 54 63.5 121.5t36.5 142.5t14.5 133.5t3.5 130.5v311h550v-72h-476v-200h401z" />
    <glyph glyph-name="uni4EF0" unicode="&#x4ef0;" 
d="M275 854l69 -21q-40 -103 -102 -212v-696h-73v583q-51 -72 -108 -130q-26 52 -43 73q77 74 145.5 181t111.5 222zM438 672v-492q9 2 165 47l11 -67q-139 -45 -286 -87l-29 69q10 2 21 5l25.5 7t23.5 7v572l37 -11q106 67 162 129l73 -43q-74 -63 -203 -136zM955 752v-567
q0 -59 -34 -75q-36 -15 -146 -15q-3 36 -21 75q26 -1 110 -1q20 1 20 17v498h-179v-762h-71v830h321z" />
    <glyph glyph-name="uni4EF2" unicode="&#x4ef2;" 
d="M271 855l71 -21q-42 -117 -98 -223v-688h-73v570q-47 -70 -90 -117q-21 42 -44 74q70 73 132 180.5t102 224.5zM680 325h200v250h-200v-250zM412 325h193v250h-193v-250zM680 646h274v-451h-74v58h-200v-330h-75v330h-193v-65h-73v458h266v200h75v-200z" />
    <glyph glyph-name="uni4EF6" unicode="&#x4ef6;" 
d="M276 853l72 -23q-48 -125 -101 -221v-686h-73v569q-42 -61 -94 -120q-14 36 -43 74q71 74 135 182.5t104 224.5zM971 349v-75h-278v-353h-76v353h-291v75h291v224h-160q-36 -97 -74 -155q-25 19 -66 39q84 117 126 349l72 -15q-13 -67 -34 -143h136v196h76v-196h234v-75
h-234v-224h278z" />
    <glyph glyph-name="uni4EF7" unicode="&#x4ef7;" 
d="M273 853l71 -22q-44 -115 -105 -221v-686h-72v575q-48 -69 -104 -126q-24 52 -43 73q75 73 142 181.5t111 225.5zM459 340v144h73v-146q0 -285 -183 -424q-25 31 -54 51q54 39 89.5 88.5t50.5 104t19.5 94t4.5 88.5zM740 -70v555h76v-555h-76zM587 838h73
q60 -102 152.5 -197t184.5 -149q-23 -27 -45 -68q-92 62 -181.5 155t-142.5 182q-51 -90 -137 -184t-181 -158q-16 33 -43 63q98 62 187 162t133 194z" />
    <glyph glyph-name="uni4EFB" unicode="&#x4efb;" 
d="M303 856l74 -22q-48 -117 -109 -218v-695h-74v583q-58 -78 -121 -138q-15 39 -47 75q83 74 156.5 184.5t120.5 230.5zM979 348h-289v-314h274v-74h-613v74h263v314h-302v74h302v270q-142 -24 -244 -36q-4 22 -24 65q364 48 536 110l56 -63q-101 -33 -248 -62v-284h289
v-74z" />
    <glyph glyph-name="uni4F01" unicode="&#x4f01;" 
d="M465 859h77q78 -118 200.5 -226t245.5 -171q-29 -31 -50 -66q-122 70 -242 177.5t-188 210.5q-63 -101 -178.5 -209.5t-243.5 -184.5q-18 33 -48 60q131 73 248.5 187.5t178.5 221.5zM557 275v-253h389v-71h-865v71h128v376h76v-376h193v561h79v-239h294v-69h-294z" />
    <glyph glyph-name="uni4F09" unicode="&#x4f09;" 
d="M324 696h287v158h76v-158h293v-72h-656v72zM286 854l70 -21q-46 -113 -104 -211v-697h-72v587q-58 -80 -113 -135q-20 46 -43 74q78 74 148 181t114 222zM855 0h39q20 0 28 5q10 9 13 34q4 27 4 126q24 -21 60 -32q-2 -103 -10 -140q-8 -32 -33 -48q-20 -12 -58 -12h-60
q-41 0 -64 19q-14 11 -19 30.5t-5 71.5v375h-218v-98q0 -281 -190 -415q-6 11 -24 28.5t-30 25.5q53 36 88.5 82t52.5 96t23 92.5t6 92.5v166h367v-448q0 -40 8 -46q10 -5 22 -5z" />
    <glyph glyph-name="uni4F0A" unicode="&#x4f0a;" 
d="M285 854l71 -23q-45 -110 -104 -210v-699h-73v589q-53 -75 -113 -135q-19 46 -43 75q78 74 148 181t114 222zM829 307v170h-203v-51q0 -71 -6 -119h209zM626 715v-167h203v167h-203zM979 548v-71h-76v-294h-74v54h-222q-48 -214 -260 -318q-19 31 -50 58q188 84 234 260
h-175v70h189q6 49 6 119v51h-252v71h252v167h-180v71h532v-238h76z" />
    <glyph glyph-name="uni4F0D" unicode="&#x4f0d;" 
d="M273 851l70 -22q-38 -103 -90 -197v-710h-73v590q-55 -82 -118 -148q-17 44 -42 74q75 74 142.5 184t110.5 229zM809 385h-213l-61 -349h274v349zM885 36h101v-71h-674v71h144q34 163 63 349h-158v72h169q31 201 36 246h-206v72h581v-72h-297q-7 -52 -37 -246h278v-421z
" />
    <glyph glyph-name="uni4F0E" unicode="&#x4f0e;" 
d="M279 854l69 -21q-40 -101 -95 -200v-710h-74v593q-55 -80 -116 -140q-28 55 -43 74q78 74 147 181t112 223zM834 396h-352q59 -137 170 -236q123 99 182 236zM886 470l49 -27q-68 -195 -224 -330q121 -87 283 -128q-24 -20 -50 -67q-167 45 -296 147q-132 -94 -310 -145
q-6 14 -21 35t-27 30q174 46 301 130q-112 109 -177 262l61 19h-139v71h273v161h-286v70h286v156h77v-156h294v-70h-294v-161h185z" />
    <glyph glyph-name="uni4F0F" unicode="&#x4f0f;" 
d="M928 649l-62 -39q-43 86 -122 182l58 33q82 -98 126 -176zM285 855l72 -22q-45 -117 -101 -215v-696h-75v577q-55 -78 -105 -129q-16 41 -43 76q75 74 142.5 183t109.5 226zM968 481h-289q80 -371 304 -493q-35 -27 -56 -66q-195 120 -285 428q-58 -263 -274 -428
q-21 24 -63 49q248 187 281 510h-263v75h268q1 22 1 62v237h76v-237q0 -40 -1 -62h301v-75z" />
    <glyph glyph-name="uni4F10" unicode="&#x4f10;" 
d="M904 698l-50 -48q-54 55 -172 149l48 41q111 -83 174 -142zM303 852l73 -23q-43 -108 -107 -217v-688h-75v571q-45 -62 -107 -126q-22 44 -45 72q79 75 148.5 184t112.5 227zM849 485l73 -26q-79 -153 -208 -276q67 -185 151 -185q22 0 33 41t16 139q33 -29 67 -40
q-10 -126 -36 -171.5t-86 -45.5q-125 0 -209 207q-126 -101 -283 -170q-21 38 -52 65q183 72 310 180q-42 130 -63 307l-250 -27l-7 72l250 25q-13 135 -14 265h77q0 -124 13 -257l319 33l6 -71l-317 -33q17 -146 50 -255q102 105 160 223z" />
    <glyph glyph-name="uni4F11" unicode="&#x4f11;" 
d="M302 850l76 -24q-46 -112 -112 -219v-684h-75v575q-63 -83 -120 -136q-14 36 -46 77q85 73 158.5 182t118.5 229zM973 523h-252q50 -125 125 -236.5t153 -174.5q-37 -29 -57 -62q-73 68 -142.5 177t-122.5 235v-541h-75v519q-52 -121 -122 -225t-144 -169q-32 39 -57 58
q82 64 157.5 177.5t125.5 241.5h-248v74h288v246h75v-246h296v-74z" />
    <glyph glyph-name="uni4F1A" unicode="&#x4f1a;" 
d="M94 275v71h842v-71h-480q-63 -134 -121 -235q231 7 415 15q-71 81 -136 139l65 34q71 -61 138.5 -135.5t102.5 -131.5l-69 -42q-20 34 -47 69q-467 -22 -691 -30l-11 75q109 2 151 4q69 126 111 238h-270zM268 541h485v-70h-485v70zM465 855h78q79 -110 200.5 -204
t245.5 -146q-26 -28 -49 -68q-123 60 -243 154.5t-189 190.5q-63 -93 -178.5 -189t-244.5 -160q-17 35 -44 61q130 62 247 162.5t177 198.5z" />
    <glyph glyph-name="uni4F1C" unicode="&#x4f1c;" 
d="M286 854l70 -21q-46 -113 -104 -211v-697h-72v587q-58 -80 -113 -135q-20 46 -43 74q78 74 148 181t114 222zM680 417v-151h294v-72h-294v-274h-77v274h-292v72h292v151h77zM853 446h35q15 0 25 6q11 6 14 27q3 18 5 106q21 -21 58 -33q-4 -102 -10 -118q-8 -28 -33 -40
q-15 -9 -54 -9h-55q-42 0 -62 17q-13 10 -17.5 28.5t-4.5 61.5v168h-153q-24 -112 -83 -184.5t-176 -115.5q-12 30 -43 57q101 35 153 94t73 149h-174v70h187q7 51 10 125h75q-3 -61 -11 -125h214v-242q0 -31 8 -36q8 -6 19 -6z" />
    <glyph glyph-name="uni4F1D" unicode="&#x4f1d;" 
d="M929 777v-72h-533v72h533zM286 854l70 -21q-46 -113 -104 -211v-697h-72v587q-58 -80 -113 -135q-20 46 -43 74q78 74 148 181t114 222zM993 -45l-71 -34q-8 28 -36 89q-352 -31 -563 -47l-15 77q88 5 113 7q67 156 113 352h-215v74h665v-74h-362q-68 -220 -122 -347
q113 7 351 27q-52 94 -108 168l66 29q59 -74 110.5 -164.5t73.5 -156.5z" />
    <glyph glyph-name="uni4F2F" unicode="&#x4f2f;" 
d="M285 854l72 -17q-39 -130 -104 -256v-661h-75v536q-44 -63 -93 -114q-24 42 -47 67q79 77 143.5 194.5t103.5 250.5zM451 47h371v242h-371v-242zM822 600h-371v-236h371v236zM620 672h279v-741h-77v40h-371v-47h-75v748h166q30 79 54 185l88 -14q-36 -106 -64 -171z" />
    </font>
</defs>
</svg>
