<svg xmlns="http://www.w3.org/2000/svg" viewBox="0 0 64 64" enable-background="new 0 0 64 64"><g fill="#42ade2"><path d="m60 42c-5.523 0-10-4.477-10-10h-39.21v21.21h-.002c5.43 5.43 12.93 8.788 21.21 8.788 13.07 0 24.18-8.356 28.29-20.02-.098.003-.193.015-.291.015"/><path d="m60 22c.098 0 .193.012.291.015-4.115-11.659-15.225-20.02-28.29-20.02-8.285 0-15.785 3.358-21.21 8.788h.002v21.21h39.21c0-5.523 4.477-10 10-10"/></g><path fill="#ffe62e" d="m60.29 22h-49.5v20h49.5c1.107-3.129 1.714-6.492 1.714-10s-.607-6.871-1.714-10"/><path fill="#3e4347" d="M10.787,10.787C5.357,16.216,2,23.716,2,32s3.357,15.784,8.787,21.213L32,32L10.787,10.787z"/></svg>