<svg xmlns="http://www.w3.org/2000/svg" viewBox="0 0 64 64" enable-background="new 0 0 64 64"><path fill="#699635" d="M2,32c0,9.814,4.714,18.527,12,24h36.001C57.286,50.527,62,41.814,62,32S57.286,13.475,50.001,8H14
			C6.714,13.475,2,22.186,2,32z"/><g fill="#ed4c5c"><path d="m14 8h36c-5.02-3.766-11.247-6-18-6s-12.986 2.234-18 6"/><path d="m32 62c6.754 0 12.986-2.232 18-6h-36c5.01 3.768 11.246 6 18 6"/></g><path fill="#fff" d="M43,49.641C34.63,47.971,28.334,40.707,28.334,32S34.63,16.029,43,14.361
		C41.816,14.125,40.587,14,39.334,14C29.207,14,21,22.061,21,32c0,9.941,8.207,18,18.334,18C40.587,50,41.816,49.875,43,49.641z"/></svg>