<svg xmlns="http://www.w3.org/2000/svg" viewBox="0 0 64 64" enable-background="new 0 0 64 64"><path fill="#f9f9f9" d="M32,62c16.568,0,30-13.432,30-30H2C2,48.568,15.432,62,32,62z"/><path fill="#ed4c5c" d="M32,2C15.432,2,2,15.431,2,32h60C62,15.431,48.568,2,32,2z"/><g fill="#f9f9f9"><path d="m21.232 17.472l-1.232-.945 1.525-.005.475-1.522.477 1.522 1.523.005-1.23.946.47 1.527-1.24-.94-1.234.94z"/><path d="m29.23 17.472l-1.23-.945 1.525-.005.475-1.522.477 1.522 1.523.005-1.23.946.47 1.527-1.24-.94-1.234.94z"/><path d="m22.23 22.472l-1.23-.945 1.525-.005.475-1.522.477 1.522 1.523.005-1.23.946.47 1.527-1.24-.94-1.234.94z"/><path d="m28.23 22.472l-1.23-.945 1.525-.005.475-1.522.477 1.522 1.523.005-1.23.946.47 1.527-1.24-.94-1.234.94z"/><path d="m25.23 14.472l-1.23-.945 1.525-.005.475-1.522.477 1.522 1.523.005-1.23.946.47 1.527-1.24-.94-1.234.94z"/><path d="m24.412 27.958c-4.768 0-8.633-4.056-8.633-9.06s3.865-9.06 8.633-9.06c.35 0 .691.028 1.031.07-1.201-.58-2.533-.91-3.943-.91-5.244 0-9.5 4.477-9.5 10s4.256 10 9.5 10c1.633 0 3.162-.438 4.5-1.201-.516.101-1.045.159-1.588.159"/></g></svg>