<svg xmlns="http://www.w3.org/2000/svg" viewBox="0 0 64 64" enable-background="new 0 0 64 64"><path fill="#f9f9f9" d="M32,2C18.938,2,7.833,10.35,3.714,22h56.572C56.167,10.35,45.061,2,32,2z"/><path fill="#ed4c5c" d="m32 62c13.06 0 24.17-8.35 28.29-20h-56.57c4.119 11.65 15.224 20 28.29 20"/><path fill="#428bc1" d="M3.714,22C2.607,25.129,2,28.492,2,32s0.607,6.871,1.714,10h56.572C61.392,38.871,62,35.508,62,32
			s-0.608-6.871-1.714-10H3.714z"/><path fill="#f9f9f9" d="M33.888,19H14.112H14c0,0,0,3.125,0,13.827C14,42,23.593,44.758,24,45c0.406-0.242,10-3,10-12.173
			C34,22.125,34,19,34,19H33.888z"/><path fill="#ed4c5c" d="M16,21v11.91c0,5.606,4.258,8.569,8,10.09c3.742-1.521,8-4.483,8-10.09V21H16z"/><g fill="#f9f9f9"><path d="m23 23h2v14h-2z"/><path d="m19 29h10v2h-10z"/><path d="m21 25h6v2h-6z"/></g><path fill="#428bc1" d="m23.999 35c-1.313 0-2.466.641-3.195 1.617-.504-.382-1.124-.617-1.805-.617-.842 0-1.601.35-2.146.909 1.428 3.104 4.42 4.984 7.147 6.091 2.727-1.107 5.719-2.987 7.146-6.091-.544-.559-1.304-.909-2.147-.909-.68 0-1.3.235-1.804.617-.729-.976-1.883-1.617-3.196-1.617"/></svg>