<svg xmlns="http://www.w3.org/2000/svg" viewBox="0 0 64 64" enable-background="new 0 0 64 64"><path fill="#ed4c5c" d="M32,2C21.316,2,11.943,7.59,6.628,16h50.744C52.058,7.59,42.685,2,32,2z"/><path fill="#2a5f9e" d="M6.628,16C3.701,20.632,2,26.115,2,32h60c0-5.885-1.7-11.368-4.628-16H6.628z"/><path fill="#699635" d="M6.628,48C11.943,56.41,21.316,62,32,62c10.685,0,20.058-5.59,25.372-14H6.628z"/><path fill="#ffce31" d="M57.372,48C60.3,43.368,62,37.885,62,32H2c0,5.885,1.701,11.368,4.628,16H57.372z"/></svg>