<svg xmlns="http://www.w3.org/2000/svg" viewBox="0 0 64 64" enable-background="new 0 0 64 64"><path fill="#2872a0" d="m12 12h20v20h-20z"/><path fill="#5b97b1" d="M32,2v30H2c0,16.568,13.432,30,30,30s30-13.432,30-30S48.568,2,32,2z"/><path fill="#fff" d="M32,2c-4.694,0-9.132,1.088-13.088,3.012V8.14V11H11v2.912V14v4.912H5.011C3.088,22.869,2,27.306,2,32
					h12V17l12,15h6v-7.5L23.6,14H32V2z"/><path fill="#ed4c5c" d="M32,5H18.912C12.857,7.94,7.94,12.857,5,18.912V32h6V11h2l17,21h2v-4.941L19,11h13V5z"/><g fill="#ffe62e"><path d="m28.916 50.15l-.666-2.05-.664 2.05h-2.153l1.737 1.27-.661 2.04 1.741-1.26 1.742 1.26-.665-2.05 1.743-1.26z"/><path d="m37.768 48.559l.665-2.047-1.742 1.265-1.741-1.265.665 2.047-1.741 1.265h2.156l.661 2.047.669-2.047h2.149z"/><path d="m38.433 39.3l-1.742 1.262-1.741-1.262.665 2.04-1.741 1.268h2.156l.661 2.047.669-2.047h2.149l-1.741-1.268z"/><path d="m45.22 46.734l.666-2.046-1.736 1.265-1.75-1.265.67 2.046-1.74 1.266h2.149l.671 2.05.66-2.05h2.152z"/><path d="m43.479 32.3l.671 2.05.66-2.05h2.152l-1.742-1.26.666-2.052-1.736 1.262-1.75-1.262.67 2.052-1.74 1.26z"/><path d="m49.685 41.22l-.665-2.04-.67 2.04h-2.15l1.743 1.267-.663 2.047 1.74-1.264 1.741 1.264-.661-2.047 1.737-1.267z"/><path d="m49.743 30.16l.667 2.04.66-2.04h2.16l-1.75-1.265.67-2.047-1.74 1.262-1.743-1.262.663 2.047-1.739 1.265z"/><path d="m55.979 37.17l-.669-2.05-.662 2.05h-2.158l1.75 1.266-.67 2.046 1.74-1.262 1.74 1.262-.66-2.047 1.74-1.265z"/><path d="m54.24 24.59l-.67 2.047 1.74-1.266 1.74 1.266-.66-2.047 1.74-1.266h-2.151l-.669-2.047-.662 2.047h-2.158z"/></g></svg>