<svg xmlns="http://www.w3.org/2000/svg" viewBox="0 0 64 64" enable-background="new 0 0 64 64"><path fill="#b4d7ee" d="m0 0h64v64h-64z"/><g fill="#dae3ea"><path d="m19.677 6.373c0 .804-.651 1.455-1.455 1.455h-12.934c-.804 0-1.455-.651-1.455-1.455 0-.804.651-1.455 1.455-1.455h12.934c.803 0 1.455.651 1.455 1.455"/><path d="m25.407 3.462c0 .804-.652 1.456-1.455 1.456h-12.933c-.804 0-1.455-.652-1.455-1.456 0-.804.651-1.455 1.455-1.455h12.934c.802 0 1.454.652 1.454 1.455"/><path d="m60.17 19.588c0 .805-.651 1.456-1.455 1.456h-12.934c-.804 0-1.455-.651-1.455-1.456 0-.804.651-1.455 1.455-1.455h12.934c.804 0 1.455.651 1.455 1.455"/><path d="m56.793 16.678c0 .804-.651 1.455-1.455 1.455h-12.934c-.804 0-1.455-.651-1.455-1.455 0-.804.651-1.455 1.455-1.455h12.934c.804 0 1.455.651 1.455 1.455"/></g><path fill="#7c8d93" d="m48 30.738c3.25 0 16 0 16 0v18.262h-20v-14.262c0-2.201 1.8-4 4-4"/><g fill="#d6eef0"><path d="m60.8 34h.4c.439 0 .8.436.8.967v14.03h-2v-14.03c0-.531.36-.967.8-.967"/><path d="m55.8 34h.4c.439 0 .8.436.8.967v14.03h-2v-14.03c0-.531.36-.967.8-.967"/></g><g fill="#7c8d93"><path d="m51.31 27.994h11.02v2.864h-11.02z"/><path d="m0 28.11h13.14v-5.222l-13.14 3z"/><path d="m0 28h13v21h-13z"/></g><g fill="#d6eef0"><path d="m9.5 36c0 .549-.45 1-1 1h-3c-.55 0-1-.451-1-1v-2c0-.551.45-1 1-1h3c.55 0 1 .449 1 1v2"/><path d="m9.5 44c0 .549-.45 1-1 1h-3c-.55 0-1-.451-1-1v-2c0-.551.45-1 1-1h3c.55 0 1 .449 1 1v2"/></g><path fill="#62727a" d="m23 4l-10 11.316v33.684h20v-33.684z"/><path fill="#d6eef0" d="m30 28c0 .549-.45 1-1 1h-12c-.55 0-1-.451-1-1v-2c0-.551.45-1 1-1h12c.55 0 1 .449 1 1v2"/><path fill="#ffdd7d" d="m30 44c0 .549-.45 1-1 1h-12c-.55 0-1-.451-1-1v-2c0-.551.45-1 1-1h12c.55 0 1 .449 1 1v2"/><path fill="#d6eef0" d="m30 20c0 .549-.45 1-1 1h-12c-.55 0-1-.451-1-1v-2c0-.551.45-1 1-1h12c.55 0 1 .449 1 1v2"/><path fill="#62727a" d="m50 23v-4l-6-2v-11h-2v11l-6 2v4h-3v26h20v-26z"/><g fill="#d6eef0"><path d="m41.5 30c0 .549-.45 1-1 1h-3c-.55 0-1-.451-1-1v-2c0-.551.45-1 1-1h3c.55 0 1 .449 1 1v2"/><path d="m49.5 38c0 .549-.45 1-1 1h-3c-.55 0-1-.451-1-1v-2c0-.551.45-1 1-1h3c.55 0 1 .449 1 1v2"/></g><g fill="#6adbc6"><path d="m41.5 46c0 .549-.45 1-1 1h-3c-.55 0-1-.451-1-1v-2c0-.551.45-1 1-1h3c.55 0 1 .449 1 1v2"/><path d="m49.5 46c0 .549-.45 1-1 1h-3c-.55 0-1-.451-1-1v-2c0-.551.45-1 1-1h3c.55 0 1 .449 1 1v2"/></g><path fill="#d6eef0" d="m30 36c0 .549-.45 1-1 1h-12c-.55 0-1-.451-1-1v-2c0-.551.45-1 1-1h12c.55 0 1 .449 1 1v2"/><path fill="#d0d0d0" d="m0 56.01l64-9.98v17.97h-64z"/><path fill="#e8e8e8" d="m47 40.937c.383 0 .744.077 1.08.208.38-2.379 2.43-4.202 4.919-4.202 2 0 3.721 1.183 4.518 2.882.684-.545 1.54-.885 2.484-.885 2.207 0 3.999 1.789 3.999 3.993 0 2.206-1.792 3.994-3.999 3.994h-13c-1.657 0-3-1.341-3-2.995 0-1.654 1.343-2.995 3-2.995"/><ellipse fill="#d0d0d0" cx="8" cy="52.918" rx="8" ry="7.988"/><g fill="#e8e8e8"><path d="m8.9 42.533c.497 0 .968.109 1.403.293.495-3.331 3.159-5.884 6.396-5.884 2.604 0 4.836 1.657 5.873 4.04.888-.765 2-1.239 3.229-1.239 2.87 0 5.199 2.504 5.199 5.591 0 3.089-2.329 5.592-5.199 5.592h-16.901c-2.154 0-3.9-1.878-3.9-4.194 0-2.315 1.746-4.194 3.9-4.194"/><path d="m0 53.966c2.489 0 4.54 1.813 4.92 4.182.336-.13.697-.208 1.08-.208 1.657 0 3 1.336 3 2.98 0 1.646-1.343 3.03-3 3.03h-6v-9.984"/></g><path fill="#d0d0d0" d="m58.2 41.574c-2.67 0-5.087.949-7.02 2.477-2.252-4.75-7.104-8.06-12.764-8.06-7.03 0-12.82 5.095-13.896 11.746-.944-.365-1.969-.584-3.049-.584-4.684 0-8.476 3.752-8.476 8.371 0 4.622 3.792 8.423 8.476 8.423h42.525v-20.78c-1.697-1.01-3.676-1.596-5.797-1.596"/><g fill="#e8e8e8"><path d="m59.2 50.32c-.611 0-1.191.125-1.727.333-.609-3.806-3.889-6.724-7.871-6.724-3.205 0-5.953 1.894-7.229 4.611-1.094-.873-2.463-1.417-3.975-1.417-3.531 0-6.398 2.862-6.398 6.39 0 3.53 2.867 6.391 6.398 6.391h20.801c2.652 0 4.801-2.146 4.801-4.793.001-2.644-2.147-4.791-4.8-4.791"/><path d="m28 57.96c-.383 0-.744.077-1.08.208-.38-2.379-2.43-4.202-4.919-4.202-2 0-3.721 1.183-4.518 2.882-.684-.546-1.54-.885-2.484-.885-2.207 0-3.999 1.789-3.999 3.993 0 2.206 1.792 3.994 3.999 3.994h13c1.657 0 3-1.342 3-2.995s-1.343-2.995-3-2.995"/></g><g fill="#d0d0d0"><path d="m47 63.9c-.945-4.557-5.063-7.987-10-7.987s-9.05 3.431-10 7.987h20"/><path d="m21.5 63.95c-1.7-3.577-4.865-5.991-8.5-5.991s-6.8 2.414-8.5 5.991h17"/><path d="m0 42.934v7.987h9.799c-.927-4.558-4.961-7.987-9.799-7.987"/></g></svg>