<svg xmlns="http://www.w3.org/2000/svg" viewBox="0 0 64 64" enable-background="new 0 0 64 64"><path fill="#594640" d="m22.522 16.16c0 1.705 0 6.91 0 6.91h18.945c0 0 0-5.205 0-6.91.001-8.935-18.945-8.935-18.945 0"/><g fill="#ffe1bd"><path d="m39.841 20.365c-.418-8.132-2.604-3.739-7.847-3.739-5.236 0-7.425-4.393-7.839 3.739 0 0-2.277-1.571-2.277 1.525 0 1.183.436 2.152 1.904 2.254.546 4.192 2.974 5.472 6.598 5.726v.856c0 .519-.35.938-.818 1.074h-4.846l-.004 11.05c0 0 2.515 1.408 7.288 1.408 4.767 0 7.284-1.408 7.284-1.408l.002-11.05h-4.854c-.469-.137-.82-.556-.82-1.074v-.857c3.626-.254 6.06-1.533 6.599-5.726 1.471-.102 1.904-1.071 1.904-2.254-.001-3.096-2.274-1.525-2.274-1.525"/><path d="m49.23 9.403c-1.656-.486-2.327.599-2.652 1.482-.343.057-.642.307-.744.666l-.197.677c-.146.5.135 1.023.63 1.167l.08.023-2.693 10.928 2.892.65 2.673-10.879c.599-.068.78-.683 1.276-2.381.526-1.809-.989-2.253-1.265-2.333"/><path d="m17.729 13.396c.495-.144.776-.667.63-1.167l-.197-.677c-.103-.359-.401-.609-.744-.666-.325-.884-.994-1.969-2.65-1.482-.275.08-1.791.523-1.264 2.334.494 1.698.678 2.313 1.274 2.381l2.673 10.879 2.892-.65-2.693-10.928.079-.024"/></g><g fill="#594640"><path d="m28.2 25.07c0 1.391 1.697 2.557 3.794 2.557 2.095 0 3.794-1.166 3.794-2.557 0 0-2.02.124-3.794.124s-3.794-.124-3.794-.124"/><ellipse cx="35.654" cy="20.729" rx="1.264" ry="1.28"/><ellipse cx="28.337" cy="20.729" rx="1.265" ry="1.28"/></g><path fill="#e6b796" d="m31.15 23.15c0 .471.375.851.842.851s.843-.38.843-.851h-1.685"/><path fill="#94989b" d="m5.484 15.376v-1.789c0 0 8.771-4.491 26.507-4.491 17.738 0 26.516 4.491 26.516 4.491v1.789c0 0-8.777-4.492-26.516-4.492-17.736 0-26.507 4.492-26.507 4.492"/><path fill="#ffe1bd" d="m46.868 11.4c.071-.271-.084-.547-.344-.615-.263-.069-.533.096-.604.367l-.304 1.16.948.247.304-1.159"/><path fill="#e6b796" d="m46.583 11.149c.076.14.129.242.133.395.008.144-.031.281-.067.421-.063.229-.123.456-.183.686-.048.175.223.246.269.07.063-.234.126-.469.188-.703.044-.163.081-.327.071-.496-.007-.188-.082-.352-.17-.514-.084-.158-.326-.016-.241.141"/><path fill="#ffe1bd" d="m17.13 11.4c-.071-.271.084-.547.344-.615.263-.069.533.096.604.367l.304 1.16-.948.247-.304-1.159"/><path fill="#e6b796" d="m17.415 11.149c-.076.14-.129.242-.133.395-.008.144.031.281.067.421.063.229.123.456.183.686.048.175-.223.246-.269.07-.063-.234-.126-.469-.188-.703-.044-.163-.081-.327-.071-.496.007-.188.082-.352.17-.514.084-.158.326-.016.241.141"/><path fill="#428bc1" d="m24.712 42.42v1.557-1.557"/><g fill="#3e4347"><path d="M56.888 21.975 53.17 20.606 58.28 6.4 62 7.768z"/><path d="M52.794 23.561 47.648 21.665 54.728 2 59.874 3.894z"/><path d="M7.114 21.975 10.833 20.606 5.719 6.4 2 7.768z"/><path d="M11.206 23.561 16.354 21.665 9.274 2 4.128 3.894z"/></g><path fill="#47b892" d="m46.548 24.997l-2.756-1.24-5.627 8.04h-2.932c-.362 1.465-1.672 2.553-3.233 2.553s-2.875-1.088-3.235-2.553h-2.932l-5.627-8.04-2.756 1.24 7.266 10.348-.004 8.632c0 0 2.515 1.408 7.288 1.408 4.767 0 7.284-1.408 7.284-1.408l.002-8.635 7.262-10.345"/><g fill="#d3976e"><path d="m20.2 59.29c-1.376 0-2.49 1.209-2.49 2.701v.012h7v-2.713h-4.515"/><path d="m43.801 59.29c1.377 0 2.49 1.209 2.49 2.701v.012h-7.01v-2.713h4.515"/></g><path fill="#f2b200" d="m24.712 41.898v1.67-1.67"/><path fill="#3e4347" d="m41.651 48.28l-2.392-1.796h.026l-.002-2.921c0 0-2.518 1.51-7.284 1.51-4.773 0-7.288-1.51-7.288-1.51v2.921h.026l-2.39 1.796c-1.531 1.161-2.143 2.248-2.143 3.532 0 1.648 0 7.47 0 7.47h4.506v-5.918l3.818-3.01h.025c.479-.417 1.088-.668 1.75-.668 0 0 2.54 0 3.387 0 .865 0 1.891.78 1.891.78l3.703 2.896v5.918h4.506c0 0 0-5.821 0-7.47.002-1.283-.609-2.37-2.139-3.531"/></svg>