<svg xmlns="http://www.w3.org/2000/svg" viewBox="0 0 64 64" enable-background="new 0 0 64 64"><path fill="#b2c1c0" d="m33 11.834c0 .549-.45 1-1 1-.55 0-1-.451-1-1v-10.834c0-.55.45-1 1-1 .55 0 1 .45 1 1v10.834"/><path fill="#e5dec1" d="m4 28h56v32h-56z"/><path fill="#d33b23" d="m60.52 19.789c-.502-.984-1.834-1.789-2.959-1.789h-51.12c-1.125 0-2.457.805-2.96 1.789l-3.283 6.422c-.504.984.004 1.789 1.129 1.789h61.35c1.125 0 1.633-.805 1.13-1.789l-3.284-6.422"/><g fill="#d6eef0"><path d="m15 45c0 .55-.45 1-1 1h-6c-.55 0-1-.45-1-1v-4c0-.55.45-1 1-1h6c.55 0 1 .45 1 1v4"/><path d="m15 35c0 .55-.45 1-1 1h-6c-.55 0-1-.45-1-1v-4c0-.55.45-1 1-1h6c.55 0 1 .45 1 1v4"/></g><g fill="#dbb471"><path d="m14 36.5h-6c-.827 0-1.5-.673-1.5-1.5v-4c0-.827.673-1.5 1.5-1.5h6c.827 0 1.5.673 1.5 1.5v4c0 .827-.673 1.5-1.5 1.5m-6-6c-.275 0-.5.225-.5.5v4c0 .275.225.5.5.5h6c.275 0 .5-.225.5-.5v-4c0-.275-.225-.5-.5-.5h-6"/><path d="m10.5 30h1v6h-1z"/><path d="m14 47h-6c-.827 0-1.5-.673-1.5-1.5v-4c0-.827.673-1.5 1.5-1.5h6c.827 0 1.5.673 1.5 1.5v4c0 .827-.673 1.5-1.5 1.5m-6-6c-.275 0-.5.225-.5.5v4c0 .275.225.5.5.5h6c.275 0 .5-.225.5-.5v-4c0-.275-.225-.5-.5-.5h-6"/><path d="m10.5 40.5h1v6h-1z"/></g><path fill="#d6eef0" d="m15 55c0 .55-.45 1-1 1h-6c-.55 0-1-.45-1-1v-4c0-.55.45-1 1-1h6c.55 0 1 .45 1 1v4"/><g fill="#dbb471"><path d="m14 57h-6c-.827 0-1.5-.673-1.5-1.5v-4c0-.827.673-1.5 1.5-1.5h6c.827 0 1.5.673 1.5 1.5v4c0 .827-.673 1.5-1.5 1.5m-6-6c-.275 0-.5.225-.5.5v4c0 .275.225.5.5.5h6c.275 0 .5-.225.5-.5v-4c0-.275-.225-.5-.5-.5h-6"/><path d="m10.5 50.5h1v6h-1z"/></g><g fill="#d6eef0"><path d="m57 45c0 .55-.45 1-1 1h-6c-.55 0-1-.45-1-1v-4c0-.55.45-1 1-1h6c.55 0 1 .45 1 1v4"/><path d="m57 35c0 .55-.45 1-1 1h-6c-.55 0-1-.45-1-1v-4c0-.55.45-1 1-1h6c.55 0 1 .45 1 1v4"/></g><g fill="#dbb471"><path d="m56 36.5h-6c-.827 0-1.5-.673-1.5-1.5v-4c0-.827.673-1.5 1.5-1.5h6c.827 0 1.5.673 1.5 1.5v4c0 .827-.673 1.5-1.5 1.5m-6-6c-.275 0-.5.225-.5.5v4c0 .275.225.5.5.5h6c.275 0 .5-.225.5-.5v-4c0-.275-.225-.5-.5-.5h-6"/><path d="m52.5 30h1v6h-1z"/><path d="m56 47h-6c-.827 0-1.5-.673-1.5-1.5v-4c0-.827.673-1.5 1.5-1.5h6c.827 0 1.5.673 1.5 1.5v4c0 .827-.673 1.5-1.5 1.5m-6-6c-.275 0-.5.225-.5.5v4c0 .275.225.5.5.5h6c.275 0 .5-.225.5-.5v-4c0-.275-.225-.5-.5-.5h-6"/><path d="m52.5 40.5h1v6h-1z"/></g><path fill="#d6eef0" d="m57 55c0 .55-.45 1-1 1h-6c-.55 0-1-.45-1-1v-4c0-.55.45-1 1-1h6c.55 0 1 .45 1 1v4"/><g fill="#dbb471"><path d="m56 57h-6c-.827 0-1.5-.673-1.5-1.5v-4c0-.827.673-1.5 1.5-1.5h6c.827 0 1.5.673 1.5 1.5v4c0 .827-.673 1.5-1.5 1.5m-6-6c-.275 0-.5.225-.5.5v4c0 .275.225.5.5.5h6c.275 0 .5-.225.5-.5v-4c0-.275-.225-.5-.5-.5h-6"/><path d="m52.5 50.5h1v6h-1z"/></g><path fill="#f15744" d="m32.777 11.629c-.428-.346-1.127-.346-1.555 0l-19.445 15.742c-.427.346-.327.629.223.629h40c.55 0 .65-.283.223-.629l-19.446-15.742"/><path fill="#f9f3d9" d="m48.23 27.364l-15.458-12.728c-.424-.35-1.119-.35-1.543 0l-15.457 12.728c-.423.35-.321.636.229.636h2v32h28v-32h2c.55 0 .652-.286.229-.636"/><path fill="#e5dec1" d="m24 45h16v15h-16z"/><path fill="#42ade2" d="m26 45h12v15h-12z"/><g fill="#89664c"><path d="m20.2 38.03c.266.121.674.241 1.094.241.454 0 .693-.166.693-.419 0-.241-.207-.38-.731-.546-.726-.225-1.198-.581-1.198-1.144 0-.661.621-1.167 1.651-1.167.493 0 .854.092 1.114.195l-.221.707c-.174-.075-.485-.184-.912-.184-.429 0-.636.172-.636.373 0 .247.247.356.81.546.771.253 1.134.609 1.134 1.155 0 .649-.563 1.201-1.762 1.201-.499 0-.991-.115-1.237-.235l.201-.723"/><path d="m26.873 38.827c-.182.081-.59.167-1.121.167-1.51 0-2.287-.833-2.287-1.937 0-1.322 1.063-2.058 2.385-2.058.512 0 .9.092 1.074.173l-.201.695c-.2-.075-.479-.144-.828-.144-.783 0-1.393.419-1.393 1.281 0 .775.518 1.265 1.398 1.265.299 0 .629-.058.822-.127l.151.685"/><path d="m28.512 35.06v1.488h1.626v-1.488h.984v3.873h-.984v-1.621h-1.626v1.621h-.991v-3.873h.991"/><path d="m35.979 36.96c0 1.27-.867 2.04-2.144 2.04-1.295 0-2.053-.868-2.053-1.972 0-1.16.836-2.028 2.124-2.028 1.342 0 2.073.891 2.073 1.96m-3.153.052c0 .758.401 1.293 1.063 1.293.666 0 1.049-.563 1.049-1.316 0-.695-.376-1.293-1.057-1.293-.666-.001-1.055.563-1.055 1.316"/><path d="m40.625 36.96c0 1.27-.867 2.04-2.145 2.04-1.295 0-2.053-.868-2.053-1.972 0-1.16.836-2.028 2.125-2.028 1.341 0 2.073.891 2.073 1.96m-3.154.052c0 .758.401 1.293 1.063 1.293.667 0 1.049-.563 1.049-1.316 0-.695-.375-1.293-1.056-1.293-.668-.001-1.056.563-1.056 1.316"/><path d="m41.27 35.06h.99v3.138h1.737v.735h-2.727v-3.873"/></g><circle fill="#dbb471" cx="32" cy="26" r="7"/><circle fill="#fff" cx="32" cy="26" r="5"/><path fill="#e5dec1" d="m31.5 45h1v15h-1z"/><path fill="#b2c1c0" d="m32 22c-.55 0-1 .45-1 1v4c0 .55.45 1 1 1s1-.45 1-1v-4c0-.55-.45-1-1-1"/><path fill="#f15744" d="m32 26h-2c-.55 0-1 .45-1 1s.45 1 1 1h2c.55 0 1-.45 1-1s-.45-1-1-1"/><path fill="#b4d7ee" d="M33,2c0,2.455,0,4.91,0,7.366c4,3.192,8-6.876,12-3.683C41,0.036,37,7.646,33,2z"/><path fill="#f15744" d="m32.947 40.29c-.543-.387-1.352-.387-1.895 0-2.179 1.552-9.05 5.704-9.05 5.704v2.01h20v-2.01c0 0-6.873-4.152-9.05-5.704"/><path fill="#666" d="m63 60h-62c-.55 0-1 .45-1 1v2c0 .55.45 1 1 1h62c.55 0 1-.45 1-1v-2c0-.55-.45-1-1-1"/><path fill="#e8e8e8" d="m20 62h24v2h-24z"/><path fill="#d0d0d0" d="m22 60h20v2h-20z"/><g fill="#666"><path d="m29.06 53.5h1.438v.726h-1.438z"/><path d="m33.5 53.5h1.438v.726h-1.438z"/></g></svg>