<svg xmlns="http://www.w3.org/2000/svg" viewBox="0 0 64 64" enable-background="new 0 0 64 64"><path fill="#e8e8e8" d="m40 18h-26c-2.2 0-4 1.8-4 4v38h34v-38c0-2.2-1.8-4-4-4"/><g fill="#62727a"><path d="m60 36h-34c-1.1 0-2 .899-2 2v22h38v-22c0-1.101-.9-2-2-2"/><path d="M7,36c-0.55,0-1.25,0.374-1.555,0.832l-2.891,4.336C2.25,41.626,2,42.45,2,43v17h8V36H7z"/></g><path fill="#b4d7ee" d="m12 53h10v7h-10z"/><path fill="#62727a" d="m63 60h-62c-.55 0-1 .451-1 1v2c0 .551.45 1 1 1h62c.55 0 1-.449 1-1v-2c0-.549-.45-1-1-1"/><g fill="#b4d7ee"><path d="m14 34.5c0 .274-.225.5-.5.5h-1c-.275 0-.5-.226-.5-.5v-5c0-.274.225-.5.5-.5h1c.275 0 .5.226.5.5v5"/><path d="m18 34.5c0 .274-.225.5-.5.5h-1c-.275 0-.5-.226-.5-.5v-5c0-.274.225-.5.5-.5h1c.275 0 .5.226.5.5v5"/><path d="m22 34.5c0 .274-.225.5-.5.5h-1c-.275 0-.5-.226-.5-.5v-5c0-.274.225-.5.5-.5h1c.275 0 .5.226.5.5v5"/><path d="m26 34.5c0 .274-.225.5-.5.5h-1c-.275 0-.5-.226-.5-.5v-5c0-.274.225-.5.5-.5h1c.275 0 .5.226.5.5v5"/><path d="m30 34.5c0 .274-.225.5-.5.5h-1c-.275 0-.5-.226-.5-.5v-5c0-.274.225-.5.5-.5h1c.275 0 .5.226.5.5v5"/><path d="m14 42.5c0 .274-.225.5-.5.5h-1c-.275 0-.5-.226-.5-.5v-5c0-.274.225-.5.5-.5h1c.275 0 .5.226.5.5v5"/><path d="m18 42.5c0 .274-.225.5-.5.5h-1c-.275 0-.5-.226-.5-.5v-5c0-.274.225-.5.5-.5h1c.275 0 .5.226.5.5v5"/><path d="m22 42.5c0 .274-.225.5-.5.5h-1c-.275 0-.5-.226-.5-.5v-5c0-.274.225-.5.5-.5h1c.275 0 .5.226.5.5v5"/><path d="m14 50.5c0 .274-.225.5-.5.5h-1c-.275 0-.5-.226-.5-.5v-5c0-.274.225-.5.5-.5h1c.275 0 .5.226.5.5v5"/><path d="m18 50.5c0 .274-.225.5-.5.5h-1c-.275 0-.5-.226-.5-.5v-5c0-.274.225-.5.5-.5h1c.275 0 .5.226.5.5v5"/><path d="m22 50.5c0 .274-.225.5-.5.5h-1c-.275 0-.5-.226-.5-.5v-5c0-.274.225-.5.5-.5h1c.275 0 .5.226.5.5v5"/><path d="m32 44h30v16h-30z"/><path d="m7 46.5c0 .274-.225.5-.5.5h-1c-.275 0-.5-.226-.5-.5v-5c0-.274.225-.5.5-.5h1c.275 0 .5.226.5.5v5"/><path d="m7 55.5c0 .275-.225.5-.5.5h-1c-.275 0-.5-.225-.5-.5v-5c0-.274.225-.5.5-.5h1c.275 0 .5.226.5.5v5"/></g><g fill="#fff"><path d="m21 53h-8-1v1 6h1v-6h3.5v6h1v-6h3.5v6h1v-6-1z"/><path d="m17.5 56h-1c-.275 0-.5.227-.5.5v1c0 .275.225.5.5.5h1c.275 0 .5-.225.5-.5v-1c0-.273-.225-.5-.5-.5"/></g><path fill="#b2c1c0" d="m13 60h8v2h-8z"/><path fill="#e8e8e8" d="m13 62h8v2h-8z"/><path fill="#fff" d="m33 44h29v-2h-31c-.55 0-1 .45-1 1v17h2v-3c0-.549.45-1 1-1h29v-2h-29c-.55 0-1-.449-1-1v-2c0-.55.45-1 1-1h29v-2h-29c-.55 0-1-.45-1-1v-2c0-.55.45-1 1-1"/><g fill="#b4d7ee"><path d="m14 26.5c0 .274-.225.5-.5.5h-1c-.275 0-.5-.226-.5-.5v-5c0-.274.225-.5.5-.5h1c.275 0 .5.226.5.5v5"/><path d="m18 26.5c0 .274-.225.5-.5.5h-1c-.275 0-.5-.226-.5-.5v-5c0-.274.225-.5.5-.5h1c.275 0 .5.226.5.5v5"/><path d="m22 26.5c0 .274-.225.5-.5.5h-1c-.275 0-.5-.226-.5-.5v-5c0-.274.225-.5.5-.5h1c.275 0 .5.226.5.5v5"/><path d="m26 26.5c0 .274-.225.5-.5.5h-1c-.275 0-.5-.226-.5-.5v-5c0-.274.225-.5.5-.5h1c.275 0 .5.226.5.5v5"/><path d="m30 26.5c0 .274-.225.5-.5.5h-1c-.275 0-.5-.226-.5-.5v-5c0-.274.225-.5.5-.5h1c.275 0 .5.226.5.5v5"/><path d="m34 34.5c0 .274-.225.5-.5.5h-1c-.275 0-.5-.226-.5-.5v-5c0-.274.225-.5.5-.5h1c.275 0 .5.226.5.5v5"/><path d="m34 26.5c0 .274-.225.5-.5.5h-1c-.275 0-.5-.226-.5-.5v-5c0-.274.225-.5.5-.5h1c.275 0 .5.226.5.5v5"/><path d="m38 34.5c0 .274-.225.5-.5.5h-1c-.275 0-.5-.226-.5-.5v-5c0-.274.225-.5.5-.5h1c.275 0 .5.226.5.5v5"/><path d="m38 26.5c0 .274-.225.5-.5.5h-1c-.275 0-.5-.226-.5-.5v-5c0-.274.225-.5.5-.5h1c.275 0 .5.226.5.5v5"/><path d="m42 34.5c0 .274-.225.5-.5.5h-1c-.275 0-.5-.226-.5-.5v-5c0-.274.225-.5.5-.5h1c.275 0 .5.226.5.5v5"/><path d="m42 26.5c0 .274-.225.5-.5.5h-1c-.275 0-.5-.226-.5-.5v-5c0-.274.225-.5.5-.5h1c.275 0 .5.226.5.5v5"/></g><path fill="#b2c1c0" d="m19 8h16v10h-16z"/><circle fill="#e8e8e8" cx="27" cy="8" r="8"/><path fill="#f15744" d="m32 6h-3v-3c0-.55-.45-1-1-1h-2c-.55 0-1 .45-1 1v3h-3c-.55 0-1 .45-1 1v2c0 .55.45 1 1 1h3v3c0 .55.45 1 1 1h2c.55 0 1-.45 1-1v-3h3c.55 0 1-.45 1-1v-2c0-.55-.45-1-1-1"/></svg>