<svg xmlns="http://www.w3.org/2000/svg" viewBox="0 0 64 64" enable-background="new 0 0 64 64"><path fill="#e84d88" d="m60.821 32.884c-.719-3.363-2.972-5.299-5.086-5.7.453-.406.884-1.01 1.28-1.852 1.016-2.156 1.646-5.427.887-7.507-1.274-3.489-4.08-5.571-7.507-5.571-1.612 0-3.211.461-4.612 1.284.229-.657.374-1.371.372-2.139-.004-2-.976-3.976-2.889-5.864-1.68-1.659-3.722-2.535-5.905-2.535-2.557 0-5 1.165-7 2.877-.034-.043-.064-.089-.104-.132-1.414-1.537-3.303-2.349-5.459-2.349-3.891 0-8.229 2.754-8.351 4.694-.022.351.091.749.394 1.055-2.791.817-4.828 2.473-5.806 4.775-.104.246-.18.504-.259.761-.259-.219-.58-.332-.926-.308-2.246.155-4.054 1.739-5.084 4.461-.85 2.245-1.127 5.291-.184 6.251.2.202.457.31.728.34-.236.336-.437.686-.58 1.046-1.023 2.576-.955 5.294.132 7.848-.249.067-.474.203-.649.407-1.465 1.708-1.603 4.108-.389 6.752 1 2.182 2.979 4.518 4.323 4.519.046 0 .085-.021.129-.025.202 1.449.692 2.955 1.482 4.482 1.446 2.798 4.149 5.914 5.721 5.915.375 0 .708-.153.933-.433.063-.081.118-.169.16-.263.823 1.65 1.954 2.871 3.385 3.629 2.127 1.127 4.234 1.698 6.267 1.698 4.917 0 8.551-3.293 10.726-6.426.225.8.68 1.507 1.367 2.039 1.097.853 2.719 1.285 4.82 1.285.774 0 1.625-.06 2.53-.176 4.704-.606 6.838-8.01 6.687-10.35-.065-1.044-.625-1.32-.961-1.395.186-.365.344-.762.487-1.176.166.072.36.131.615.131.002 0 .002 0 .002 0 1.503 0 4.213-1.837 6.04-4.094 1.44-1.777 3-4.603 2.289-7.954"/><path fill="#a01a5d" d="m61.814 32.914c-.744-3.479-3.074-5.481-5.262-5.896.469-.42.914-1.045 1.324-1.916 1.051-2.23 1.703-5.614.918-7.766-1.318-3.609-4.221-5.764-7.766-5.764-1.668 0-3.322.478-4.771 1.328.236-.68.387-1.418.385-2.213-.004-2.072-1.01-4.113-2.988-6.07-1.738-1.715-3.851-2.621-6.109-2.621-2.645 0-5.173 1.205-7.246 2.977-.035-.045-.066-.092-.107-.137-1.463-1.59-3.416-2.43-5.646-2.43-4.02 0-8.514 2.85-8.639 4.855-.024.364.093.775.406 1.092-2.887.846-4.994 2.559-6.01 4.939-.107.255-.186.521-.268.787-.268-.227-.6-.344-.957-.318-2.324.16-4.193 1.799-5.26 4.615-.879 2.322-1.166 5.474-.189 6.467.207.209.473.32.752.352-.244.348-.451.709-.6 1.082-1.059 2.664-.988 5.477.137 8.118-.258.069-.49.21-.672.421-1.516 1.768-1.658 4.25-.402 6.985 1.037 2.257 3.082 4.673 4.473 4.674.047 0 .088-.021.133-.026.209 1.5.717 3.058 1.533 4.638 1.496 2.894 4.293 6.117 5.918 6.118.389 0 .732-.158.965-.447.066-.084.123-.175.166-.271.852 1.707 2.02 2.97 3.502 3.754 2.199 1.164 4.379 1.755 6.482 1.755 5.086 0 8.845-3.406 11.1-6.647.232.827.703 1.559 1.414 2.109 1.135.882 2.813 1.329 4.986 1.329.801 0 1.682-.062 2.617-.182 4.867-.627 7.07-8.283 6.918-10.706-.068-1.08-.646-1.366-.994-1.442.191-.378.355-.788.504-1.217.172.075.373.136.637.136.002 0 .002 0 .002 0 1.555 0 4.357-1.9 6.248-4.235 1.489-1.841 3.108-4.763 2.367-8.231m-9.515-8.387c.904 2.283-.73 6.637-1.648 7.527-1.088-.951-3.879-5.879-4.158-9.192-.193-2.29-1.188-3.718-1.811-4.538 2.578-.304 6.49 3.35 7.617 6.203m-36.55 17.02c-1.01 0-2.088-.588-3.045-1.655-1.676-1.868-2.584-4.684-2.314-7.173.83-7.633 5.07-9.871 7.609-10.526-1.395 2.071-3.143 5.925-.338 11.514.172 1.172-1.07 6.757-1.859 7.841-.018-.001-.036-.001-.053-.001m23.21-.808c1.402-1.486 3.322-3.519 4.354-5.849 1.063-2.396.209-5.566-.475-8.113-.191-.709-.434-1.607-.518-2.178 1.371.645 2.971 2.806 3.906 5.326 1.031 2.777 1.08 5.356.129 6.899-1.826 2.969-5.977 4.559-8.182 4.758.247-.271.53-.572.786-.843m1.217-13.428c2.02 3.863.855 8.573-2.596 10.502-.314.176-.67.313-.998.416.973-1.963 2.703-6.271 1.051-9.436-1.455-2.784-5.775-3.368-9.142-3.368-.477 0-.91.012-1.281.028.766-.667 1.875-1.445 2.607-1.735 1.02-.403 2.098-.607 3.205-.607 3.107-.001 5.781 1.57 7.154 4.2m-10.269 9.06c-.609-.747-.941-1.782-1.107-2.65.793.505 1.717.958 2.475.958.002 0 .002 0 .002 0 .785 0 1.701-.501 1.701-1.912 0-1.74-1.146-2.834-3.098-2.99.453-.717 1.191-1.541 1.9-1.541 2.423 0 3.509 2.276 3.509 4.531 0 3.261-.984 4.532-3.509 4.532-.752 0-1.365-.304-1.873-.928m-3.834-7.395c.246-.149.518-.277.781-.383-.957 1.991-2.449 5.938-.881 8.706 1.561 2.76 5.484 3.38 7.822 3.495-.24.207-.506.411-.77.571-1.08.652-2.304.997-3.542.997-2.447 0-4.73-1.347-5.959-3.516-1.938-3.419-.793-7.849 2.549-9.87m16.976-8.512c.344.756.467 1.363.492 1.749-.602-.161-1.129-.24-1.604-.24-1.436 0-2.076.745-2.422 1.145-.004.005-.008.01-.012.015-.348-.207-1.15-.869-3.01-2.839-2.162-2.296-4.914-3.46-8.177-3.46-1.615 0-3.02.275-4.049.476-.061.013-.121.024-.18.035 1.092-2 4.752-3.784 8.18-3.784.884 0 1.689.119 2.392.354 5.759 1.929 7.784 5.223 8.388 6.549m-15.06-.58c1.371 0 2.531.204 3.324.44-.143.056-.285.11-.422.163-1.967.752-4.938 1.889-6.717 4.13-1.207 1.519-2.232 3.463-3.059 5.02-.4.76-.873 1.653-1.217 2.176-.645-.912-.967-2.319-.875-3.912.15-2.631 1.387-5.148 3.15-6.412 1.445-1.037 3.509-1.609 5.816-1.609m-.928 32.367c-1.215 0-2.33-.295-3.314-.876-5.709-3.368-4.908-10.406-4-14.11.891 2.551 2.566 6.248 6.133 7.582.852.319 1.846.475 3.035.475 0 0 0 0 .002 0 1.732 0 3.582-.334 5.212-.628 1.229-.221 2.391-.43 3.176-.43.328 0 .502.037.582.063-.002.054-.014.145-.049.28-.813 3.01-5.802 7.642-10.773 7.642m22.01-5.05c-2.043 1.568-4.764 1.803-6.203 1.803-2.035-.001-3.449-.441-3.889-.725-.02-.938 1.553-3.956 2.234-4.495 7.58-1.928 8.363-6.781 8.613-9.119.926 1.299 1.533 3.744 1.5 6.263-.034 2.874-.878 5.219-2.255 6.273m-43.482-20.2c.76-1.912 3.82-3.525 5.34-3.525.188 0 .299.024.359.045-.1.24-.418.709-.68 1.095-1.405 2.076-3.903 5.761-2.702 12.354-.723-.754-1.535-1.816-2.125-3.114-1.031-2.272-1.096-4.579-.192-6.855m11.614 15.883c0 0 0 .002 0 .003 0-.001 0-.002 0-.003m39.779-24.878c.813 2.225-.531 6.098-1.447 7.328-.055-.179-.109-.376-.16-.555-.354-1.269-.887-3.188-2.324-4.967-1.918-2.375-4.854-3.418-6.607-4.04-.176-.063-.369-.132-.551-.199 1.398-1.287 3.295-2.06 5.143-2.06 2.737.001 4.903 1.638 5.946 4.493m-19.432-14.06c1.764 0 3.361.693 4.75 2.063 1.598 1.578 2.41 3.157 2.412 4.693.004 2.091-1.48 3.777-2.428 4.741-.096-.118-.201-.258-.297-.382-.775-1.016-2.074-2.714-4.664-3.773-1.26-.516-2.676-.776-4.213-.776-1.859 0-3.533.37-4.755.64-.131.028-.264.057-.391.085 1.62-3.692 5.57-7.291 9.586-7.291m-13 .41c1.637 0 3.01.563 4.098 1.673-.17.28-.645.767-.975 1.104-.693.71-1.514 1.55-1.928 2.529-1.213-.754-3.504-2.059-7.617-2.664.877-.965 3.538-2.642 6.422-2.642m-12.457 9.707c.934-2.197 3.047-3.635 6.115-4.156.342-.058.701-.088 1.068-.088 2.713 0 5.342 1.628 5.588 2.939-.02.423-1.24 1.571-1.896 2.188-1.129 1.064-2.197 2.07-2.48 3.139-.662.861-5.58 3.354-7.365 3.354-.016 0-.029 0-.043-.001-1.543-2.36-1.922-5.168-.987-7.375m-5.91 3.843c.688-1.2 1.553-1.918 2.578-2.137.064.672-.059 2.01-.135 2.863-.063.672-.121 1.313-.143 1.881-.645.186-1.783.592-3.52 2.134.003-1.168.304-3.134 1.22-4.741m.5 26.09c-.83-.82-2.02-2.415-2.521-4.195-.373-1.332-.277-2.451.287-3.336.523.426 1.389 1.448 1.943 2.105.436.515.852 1.01 1.24 1.421-.318.59-.828 1.686-.949 4.01m7.489 1.378c-.338 1.914-.883 4.995-.207 9.189-1.199-1.098-3.02-3.329-4.02-6.104-1.01-2.794-.883-5.272.367-7.376.117.131.24.275.348.399.807.938 1.988 2.315 3.689 2.811-.034.289-.106.702-.174 1.081m11.853 14.703c-1.785 0-3.66-.516-5.576-1.53-1.557-.825-2.693-2.403-3.375-4.689-.771-2.592-.787-5.507-.592-7.543 1.111 3.042 2.912 7.333 6.256 8.327.98.291 2.047.438 3.172.438 3.684 0 7.363-1.563 9.798-2.597.375-.16.789-.336 1.166-.486-1.455 2.903-5.214 8.08-10.849 8.08m22.968-5.691c-.941 1.393-1.984 2.173-3.104 2.316-2.887.374-5.064.101-6.17-.755-.553-.432-.834-1.01-.834-1.717 0-1.415 1.09-2.687 1.621-2.687 1.32.133 2.451.197 3.457.197 4.145 0 5.492-1.167 6.924-2.403.043-.038.088-.077.135-.116-.246 1.368-.892 3.48-2.029 5.165m4.211-9.961l-.002-.968h.002v.968m4.742-4.486c-1.396 1.726-3.02 2.831-4 3.283.836-3.435.219-5.241-.287-6.714-.6-1.751-1.072-3.134 1.445-7.478.021-.03.199-.152.615-.152 1.309 0 3.508 1.186 4.207 4.453.583 2.722-.755 5.096-1.98 6.608"/></svg>