<svg xmlns="http://www.w3.org/2000/svg" viewBox="0 0 64 64" enable-background="new 0 0 64 64"><g fill="#3e4347"><path d="m35.907 52.986c0 0 1.867 2.178 6.881.555 1.165-.377-3.591 6.32-4.329 7.5.929-1.029 7.927-7.299 5.633-9.01-1.444-1.08-5.405.035-5.881-.557l-2.304 1.514"/><path d="m41.867 47.867c0 0 3.054 3.561 11.254.908 1.906-.615-5.873 10.336-7.079 12.266 1.519-1.684 12.964-11.936 9.212-14.74-2.362-1.764-8.84.059-9.619-.908l-3.768 2.474"/><path d="m35.35 11.11l-.962-.07c.146-2.053-1.479-4.738-4.132-5.463l.248-.957c2.871.787 5.04 3.699 4.846 6.49"/><path d="m44.979 10.564l-.118-.98c2.01-.256 4.284-2.4 4.468-5.184l.962.068c-.2 3.01-2.582 5.747-5.312 6.096"/><path d="m32.2 3.508c.866 1.018.756 2.555-.247 3.436-1 .879-2.514.77-3.379-.248-.866-1.018-.756-2.555.246-3.434 1-.881 2.512-.772 3.38.246"/><path d="m51.701 5.93c-.813 1.061-2.315 1.252-3.362.428-1.044-.829-1.23-2.358-.419-3.419.814-1.061 2.318-1.254 3.362-.426 1.045.827 1.234 2.356.419 3.417"/></g><path fill="#5e51a7" d="m19.1 54.12c.518 3.113-13.402 5.03-16.647-.883-1.385-2.523.241-4.68 7.598-4.217 9.586.6 8.343.852 9.05 5.1"/><path fill="#b5aada" d="m23.535 54.01c.641 3.686-16.529 5.961-20.531-1.049-1.706-2.988.298-5.545 9.371-4.996 11.824.713 10.289 1.012 11.16 6.05"/><path fill="#5e51a7" d="m29.411 53.55c.785 4.406-20.278 7.125-25.19-1.25-2.095-3.574.365-6.627 11.496-5.973 14.508.85 12.625 1.207 13.693 7.223"/><path fill="#b5aada" d="m35.33 52.9c.898 5.344-23.21 8.637-28.838-1.516-2.396-4.334.418-8.03 13.162-7.244 16.608 1.034 14.454 1.467 15.676 8.76"/><path fill="#5e51a7" d="m39.02 52.1c.911 6.416-23.53 10.367-29.23-1.82-2.43-5.201.422-9.643 13.338-8.693 16.836 1.239 14.65 1.759 15.89 10.513"/><path fill="#b5aada" d="m45.59 49.19c.915 7.969-25.681 14.813-31.403-.33-2.439-6.461 2.501-12.1 15.473-10.922 16.903 1.537 14.684.375 15.93 11.252"/><path fill="#5e51a7" d="m50.53 47.613c.896 7.967-25.23 14.813-30.853-.33-2.398-6.461 2.455-12.1 15.199-10.922 16.61 1.537 14.429.377 15.654 11.252"/><path fill="#b5aada" d="m52.796 43.887c.781 7.967-21.951 14.813-26.843-.33-2.084-6.461 2.138-12.1 13.226-10.924 14.449 1.539 12.551.377 13.617 11.254"/><path fill="#5e51a7" d="m55.26 37.24c.462 10.549-23.07 14.869-29.19-.381-2.886-7.197 13.974-11.507 20.527-11.507 13.477 0 8.421 6.445 8.661 11.888"/><path fill="#b5aada" d="m56.18 24.799c.512 11.404-22.705 19.313-29.488 5.742-5.188-10.379 2.911-21.22 11.496-22.21 13.998-1.615 17.743 10.918 17.992 16.467"/><ellipse fill="#5e51a7" cx="45.82" cy="21.621" rx="4.5" ry="4.658"/><ellipse fill="#fcfcfa" cx="45.821" cy="21.621" rx="3.467" ry="3.682"/><ellipse fill="#3e4347" cx="45.821" cy="21.621" rx="2.384" ry="2.531"/><ellipse fill="#5e51a7" cx="32.829" cy="21.621" rx="4.5" ry="4.658"/><ellipse fill="#fcfcfa" cx="32.83" cy="21.621" rx="3.467" ry="3.682"/><g fill="#3e4347"><ellipse cx="32.83" cy="21.621" rx="2.384" ry="2.531"/><path d="m59.6 45.539c-.512 0-.948-.391-.995-.91-.496-5.49-3.991-7.02-6.544-8.131-.252-.109-.489-.213-.708-.314-.501-.23-.721-.824-.489-1.326s.823-.721 1.327-.49c.207.096.432.193.67.299 2.668 1.164 7.134 3.111 7.736 9.783.05.551-.356 1.037-.906 1.086-.031.003-.061.003-.091.003"/><path d="m27.864 39.26c-.332 0-.656-.166-.847-.467-2.75-4.359-4.959-6.947-6.734-9.02-2.623-3.072-4.206-4.926-4.206-9.09 0-.553.447-1 1-1s1 .447 1 1c0 3.422 1.168 4.789 3.727 7.787 1.722 2.02 4.079 4.777 6.905 9.258.295.467.155 1.084-.313 1.379-.165.103-.349.154-.532.154"/><ellipse cx="14.97" cy="21.02" rx="1.766" ry="1.813"/><ellipse cx="15.652" cy="23.885" rx="1.767" ry="1.811"/><ellipse cx="16.737" cy="19.387" rx="2.101" ry="2.156"/><path d="m61.52 44.523c.795 1.854.58 3.746-.483 4.225-1.061.479-2.566-.635-3.363-2.486-.795-1.854-.579-3.746.482-4.225 1.062-.48 2.568.633 3.364 2.486"/><path d="m18.597 52.15c-.477.59-4.03-.047-5.476 1.033-2.294 1.715 4.103 7.783 5.03 8.813-.738-1.18-5.05-7.982-3.862-7.686 4.065 1.02 6.625-.494 6.625-.494l-2.318-1.666"/><path d="m30.567 45.896c-.778.967-6.591-.072-8.953 1.691-3.752 2.804 6.708 12.729 8.228 14.413-1.207-1.93-8.259-13.06-6.316-12.568 6.648 1.666 10.835-.807 10.835-.807l-3.794-2.729"/><path d="m9.437 53.59c-.358.447-3.037-.031-4.126.781-1.729 1.291 3.091 5.865 3.791 6.641-.556-.889-3.806-6.02-2.91-5.791 3.063.768 4.992-.373 4.992-.373l-1.747-1.258"/></g><path fill="#5e51a7" d="m39.32 35.06c-2.55 0-4.966-.711-6.805-2-1.893-1.33-2.937-3.094-2.937-4.971v-.736l.698.16c.042.01 4.356.992 9.04.992 4.691-.002 9.01-.988 9.06-.998l.696-.16v.736c0 3.846-4.371 6.975-9.742 6.977h-.004"/><path fill="#fff" d="m47.994 28.521c0 2.1-3.604 5.357-8.668 5.361-5.066 0-8.67-3.256-8.673-5.355 0 0 3.865 1.01 8.673 1.01 4.803 0 8.668-1.012 8.668-1.012"/></svg>