<svg xmlns="http://www.w3.org/2000/svg" viewBox="0 0 64 64" enable-background="new 0 0 64 64"><path fill="#231f20" d="M17.487,2C7.47,2,2.002,8.332,2.002,16.669v18.508h30.969V16.669c0-12.396-8.382-12.164-8.382-12.164
				S23.957,2,17.487,2z"/><path fill="#ffdd67" d="m6.443 23.642c0 0-2.229-.57-2.229-3.869 0-2.613 1.682-3.063 1.682-3.063 6.02 0 15.839-7.828 15.839-7.828s3.71 6.912 7.29 7.828c0 0 1.734.318 1.734 3.063 0 3.299-2.313 3.869-2.313 3.869-.031 4.979-6.831 10.985-10.959 10.985-4.13 0-11.04-6.01-11.04-10.985"/><path fill="#eba352" d="m20.253 25.916c0 1.086-2.25 1.398-2.766 1.398s-2.766-.385-2.766-1.469c.001 0 5.532-.472 5.532.071"/><path fill="#f5f5f5" d="m13.72 21.58c.65 0 .566-1.68.566-1.68-1.996-4.457-6.441-1.637-6.441-1.637-1.727.771.774 3.209 1.175 3.316 1.882.51 4.7.001 4.7.001"/><circle fill="#664e27" cx="11.12" cy="19.541" r="2.125"/><g fill="#231f20"><path d="m11.866 19.541c0 .414-.336.748-.748.748-.416 0-.752-.334-.752-.748 0-.416.336-.75.752-.75.412 0 .748.334.748.75"/><path d="m14.843 20.542c-.544-.662-1.082-1.301-1.707-1.787-.623-.48-1.324-.789-2.08-.836-.758-.072-1.551.088-2.373.244-.411.08-.836.158-1.279.184-.431.02-.946-.033-1.253-.361.405.158.802.074 1.188-.041.389-.111.773-.271 1.176-.406.797-.281 1.675-.516 2.609-.445.461.047.924.164 1.346.369.415.211.791.486 1.1.814.622.654 1.031 1.443 1.273 2.265"/></g><path fill="#f5f5f5" d="m21.253 21.58c-.65 0-.566-1.68-.566-1.68 1.996-4.457 6.441-1.637 6.441-1.637 1.729.771-.774 3.209-1.176 3.316-1.882.51-4.699.001-4.699.001"/><circle fill="#664e27" cx="23.856" cy="19.541" r="2.125"/><g fill="#231f20"><path d="m24.605 19.541c0 .414-.335.748-.751.748-.412 0-.749-.334-.749-.748 0-.416.337-.75.749-.75.417 0 .751.334.751.75"/><path d="m20.13 20.542c.242-.822.65-1.611 1.273-2.266.309-.328.686-.604 1.102-.814.42-.205.883-.324 1.344-.369.934-.07 1.813.164 2.609.445.402.135.787.295 1.176.406.387.115.783.199 1.188.041-.306.328-.821.381-1.252.361-.443-.025-.868-.104-1.28-.184-.821-.156-1.614-.316-2.37-.244-.758.047-1.459.355-2.082.836-.628.488-1.164 1.126-1.708 1.788"/></g><path fill="#f09985" d="m19.449 28.576c-.401-.1-.987-.053-1.76.207-.069.02-.136.043-.202.064-.068-.021-.137-.045-.204-.064-.772-.26-1.358-.307-1.76-.207-1.198.291-3.02.148-3.02.148 1.321 1.32 1.949 3.121 4.979 3.121 3.03 0 3.655-1.801 4.977-3.121 0 0-1.817.143-3.01-.148"/><path fill="#d47f6c" d="m19.449 28.576c-.401-.1-.987-.053-1.76.207-.069.02-.136.043-.202.064-.068-.021-.137-.045-.204-.064-.772-.26-1.358-.307-1.76-.207-1.178.285-3.02.148-3.02.148 1.992.359 2.242 1.377 4.979 1.377 2.734 0 2.982-1.018 4.977-1.377.006 0-1.84.137-3.01-.148"/><path fill="#231f20" d="m31.897 17.32l1.508 2.756h26.23l1.142-2.943c0-10.553-2.453-15.02-14.13-15.13-11.796-.11-14.745 4.574-14.745 15.318"/><path fill="#ffdd67" d="m59.683 17.14c-.092.609-.217 1.182-.389 1.506-.311.58-.939.91-.939.91s.17-1.178.109-2.824c-.658-9.729-1.227-7.05-11.945-7.05-10.715 0-11.285-2.67-11.945 7.04-.061 1.656.107 2.84.107 2.84s-.631-.33-.939-.91c-.172-.324-.297-.896-.387-1.506-1.014-.266-2.319-.043-2.319 2.877 0 1.816.665 3.307 2.911 3.469.954 7.365 3.803 8.563 9.525 11.178 1.506.688 4.588.688 6.094 0 5.723-2.616 8.569-3.813 9.525-11.178 2.246-.162 2.911-1.652 2.911-3.469 0-2.92-1.306-3.142-2.319-2.877"/><path fill="#574137" d="m52.29 27.734c0 1.887-2.527 3.473-5.647 3.473-3.119 0-5.646-1.586-5.646-3.473 0 0 3 .168 5.648.168 2.642 0 5.645-.168 5.645-.168"/><path fill="#fff" d="m51.813 28c0 .953-2.313 1.707-5.169 1.707s-5.17-.754-5.17-1.707c0 0 2.442.189 5.17.189 2.726 0 5.169-.189 5.169-.189"/><path fill="#eba352" d="m49.47 25.17c0 1.1-2.296 1.416-2.825 1.416-.527 0-2.822-.389-2.822-1.486-.001 0 5.647-.474 5.647.07"/><path fill="#f5f5f5" d="m36.09 17.521c-.18.836-.393 2.941 3.58 2.867 4.115-.078 3.952.277 4.152-1.113.174-1.217-1.268-2.568-3.404-3.053-2.133-.486-4.074.098-4.328 1.299"/><ellipse fill="#664e27" cx="40.32" cy="18.14" rx="2.171" ry="2.15"/><path fill="#231f20" d="m41.07 18.14c0 .412-.337.742-.749.742-.417 0-.751-.33-.751-.742s.334-.744.751-.744c.412 0 .749.332.749.744"/><path fill="#664e27" d="m36.01 18.335c-.578-3.734 7.795-3.535 7.795.441-1.21-3.163-6.982-3.273-7.795-.441"/><path fill="#f5f5f5" d="m56.952 17.521c.178.836.391 2.941-3.582 2.867-4.115-.078-3.952.277-4.152-1.113-.174-1.217 1.268-2.568 3.404-3.053 2.135-.486 4.074.098 4.33 1.299"/><ellipse fill="#664e27" cx="52.715" cy="18.14" rx="2.171" ry="2.15"/><ellipse fill="#231f20" cx="52.715" cy="18.14" rx=".75" ry=".742"/><path fill="#664e27" d="m57.03 18.335c.578-3.734-7.795-3.535-7.795.441 1.21-3.163 6.982-3.273 7.795-.441"/><g fill="#231f20"><path d="m25.581 58.11c-.615 6.691-6.854 2.939-7.463 1.867-2.02-3.543 1.238-10.02 3.453-10.02 2.214.001 4.42 3.686 4.01 8.151"/><path d="m38.425 58.11c.615 6.691 6.852 2.939 7.461 1.867 2.02-3.543-1.238-10.02-3.451-10.02-2.216.001-4.422 3.686-4.01 8.151"/><path d="m31.852 32.966c8.329 0 13.463 5.098 13.463 11.432v4.252c0 5-3.627 5-3.625 5h-20.2c.002.002-3.107 0-3.107-5 0-2.355 0-4.252 0-4.252 0-6.334 5.407-11.432 13.465-11.432"/></g><path fill="#c28fef" d="m31.852 35.1c-7.239 0-12.1 3.703-12.1 8.303 0 0 0 .545 0 1.375 0-4.602 4.859-8.305 12.1-8.305 7.485 0 12.1 3.703 12.1 8.305v-1.375c-.001-4.6-4.612-8.303-12.1-8.303"/><path fill="#ffdd67" d="m44.27 52.44c0 0 1.616.391 1.616-1.926 0-1.834-2.107-1.713-2.107-1.713v-2.516h-19.24c-.921-1.979.113-4.02.113-4.02-1.858 1.707-1.565 4.02-1.565 4.02h-3.133v2.516c0 0-2.135-.211-2.135 1.713 0 2.316 1.695 1.926 1.695 1.926 0 3.459 3.626 7.248 12.588 7.248 8.491.001 12.168-3.097 12.168-7.248"/><g fill="#ff717f"><path opacity=".5" d="m43.738 53.971c-.172-1.242-1.588-1.99-3.162-1.672-1.576.318-2.716 1.584-2.544 2.826.17 1.24 1.586 1.99 3.162 1.67 1.575-.318 2.714-1.584 2.544-2.824"/><path opacity=".5" d="m23.428 52.3c-1.574-.318-2.99.43-3.16 1.672-.172 1.24.968 2.506 2.542 2.824 1.576.32 2.992-.43 3.162-1.67.172-1.242-.968-2.508-2.544-2.826"/></g><path fill="#574137" d="m28.463 54.939c-.066.078-.103.176-.103.297-.002.818 1.624 1.822 3.629 1.822 2 0 3.629-.998 3.629-1.816 0-.109-.031-.225-.086-.303 0 0-1.569.707-3.543.707-1.97 0-3.526-.707-3.526-.707"/><g fill="#fff"><ellipse cx="37.883" cy="49.852" rx="3.3" ry="3.336"/><ellipse cx="26.09" cy="49.852" rx="3.3" ry="3.336"/></g><circle fill="#664e27" cx="37.883" cy="49.852" r="2.298"/><circle fill="#231f20" cx="37.882" cy="49.852" r=".75"/><circle fill="#664e27" cx="26.09" cy="49.852" r="2.299"/><circle fill="#231f20" cx="26.09" cy="49.85" r=".75"/></svg>