<svg xmlns="http://www.w3.org/2000/svg" viewBox="0 0 64 64" enable-background="new 0 0 64 64"><path fill="#231f20" d="m60.31 24.744c-.934.333-3.563 1.234-5.89 1.457-.851.057-1.694.022-2.484-.142-.73-.212-1.284-.614-1.5-1.315l-.188.69c-1.446-.83-2.486-2.403-2.654-5.148-1.282-20.985-11.541-14.71-11.541-14.71s-.889-3.578-9.997-3.578c-14.1 0-21.796 9.04-21.796 20.946v30.333c0 0 51.05 8.721 57.738-29.27 0 .001-.655.332-1.688.738"/><path fill="#a9b5ae" d="m50.44 24.744c.497 1.615 2.733 1.694 4.988 1.323-1.048-2.622-2.76-5.846-4.239-9.424-.617-1.484-1.828-2.227-3.43-1.115 0 0-1.451-.743-3.421-6.738-.017-.047-.304-.757-.461-1.017-1.442-2.385-4.644-3.087-7.148-1.567-2.503 1.518-3.366 4.683-1.925 7.07 1.439 2.385 4.641 3.086 7.145 1.568.703-.429 1.274-.989 1.703-1.62.571.385 1.387 3.588 1.387 3.588l5.213 8.626.188-.693m-9.749-11.987c-1.297.785-2.953.423-3.697-.81-.747-1.235-.301-2.872.996-3.657s2.954-.422 3.697.812c.747 1.232.299 2.872-.996 3.655"/><path fill="#b386e2" d="m35.639 49.36v-6.969h-19.16v6.969c-12.05.378-14.477 2.351-14.477 12.637h48.12c0-10.285-2.436-12.259-14.478-12.637"/><path fill="#8a6859" d="m10.48 33.589c0 0-3.139-.814-3.139-5.526 0-3.732 2.367-4.372 2.367-4.372 8.479 0 22.295-11.18 22.295-11.18s5.225 9.87 10.264 11.18c0 0 2.439.457 2.439 4.372 0 4.712-3.256 5.526-3.256 5.526-.042 7.107-9.615 15.683-15.426 15.683-5.812-.001-15.544-8.576-15.544-15.683"/><path fill="#705041" d="m29.915 36.833c0 1.549-3.164 1.998-3.89 1.998-.728 0-3.894-.549-3.894-2.098.001 0 7.784-.672 7.784.1"/><path fill="#f5f5f5" d="m20.724 30.644c.917 0 .794-2.399.794-2.399-2.811-6.366-9.06-2.336-9.06-2.336-2.433 1.101 1.091 4.582 1.654 4.735 2.649.727 6.616 0 6.616 0"/><ellipse fill="#664e27" cx="17.06" cy="27.729" rx="2.991" ry="3.035"/><g fill="#231f20"><ellipse cx="17.06" cy="27.729" rx="1" ry="1.015"/><path d="m22.302 29.16c-.766-.947-1.521-1.858-2.399-2.552-.879-.69-1.865-1.127-2.932-1.193-1.064-.104-2.182.125-3.34.347-.578.114-1.176.228-1.8.263-.603.025-1.333-.046-1.763-.517.568.229 1.13.107 1.672-.059.549-.159 1.089-.387 1.656-.579 1.121-.404 2.359-.736 3.67-.636.65.064 1.303.231 1.895.525.586.306 1.117.696 1.551 1.166.877.931 1.451 2.059 1.79 3.235"/></g><path fill="#f5f5f5" d="m31.32 30.644c-.917 0-.794-2.399-.794-2.399 2.809-6.366 9.07-2.336 9.07-2.336 2.433 1.101-1.091 4.582-1.655 4.735-2.648.727-6.618 0-6.618 0"/><ellipse fill="#664e27" cx="34.99" cy="27.729" rx="2.992" ry="3.035"/><g fill="#231f20"><ellipse cx="34.99" cy="27.729" rx="1" ry="1.014"/><path d="m29.747 29.16c.341-1.176.911-2.304 1.792-3.234.435-.47.964-.86 1.55-1.166.592-.294 1.245-.461 1.892-.525 1.314-.101 2.553.231 3.671.635.569.193 1.111.421 1.657.58.543.166 1.104.287 1.676.059-.434.471-1.161.542-1.766.517-.624-.035-1.223-.148-1.802-.263-1.155-.222-2.273-.451-3.338-.347-1.063.067-2.051.503-2.93 1.193-.88.694-1.636 1.605-2.402 2.551"/></g><path fill="#7d5442" d="m28.789 40.633c-.565-.143-1.392-.074-2.48.294-.094.031-.19.062-.283.094-.095-.032-.189-.063-.285-.094-1.091-.368-1.913-.437-2.48-.294-1.686.416-4.24.213-4.24.213 1.859 1.882 2.742 4.455 7.01 4.455s5.146-2.573 7.01-4.455c-.002 0-2.559.203-4.243-.213"/><path fill="#5c3f34" d="m28.789 40.633c-.565-.143-1.392-.074-2.48.294-.094.031-.19.062-.283.094-.095-.032-.189-.063-.285-.094-1.091-.368-1.913-.437-2.48-.294-1.655.408-4.248.212-4.24.213 2.805.511 3.154 1.963 7.01 1.963 3.85 0 4.201-1.452 7.01-1.963.007-.001-2.59.195-4.243-.213"/><path fill="#cedbd5" d="m61.819 8.669c.754-2.763-.897-5.497-3.69-6.109-2.791-.612-5.664 1.129-6.416 3.889-.082.302-.172 1.077-.174 1.126-.318 6.387-1.509 7.583-1.509 7.583-1.818-.524-2.784.589-2.979 2.213-1.067 8.743-3.729 16.216.959 16.286l4.959-18.18c0 0-.059-3.331.383-3.891.576.46 1.268.804 2.051.977 2.792.611 5.663-1.13 6.416-3.889m-2.438-.536c-.39 1.427-1.877 2.328-3.319 2.01-1.444-.315-2.298-1.731-1.909-3.159.39-1.428 1.875-2.328 3.321-2.01 1.442.318 2.296 1.732 1.907 3.161"/><path fill="#231f20" d="m50.635 18.58c.199-.731-.24-1.457-.979-1.618-.741-.162-1.501.3-1.703 1.031-.199.731.236 1.456.979 1.619.739.164 1.501-.299 1.703-1.032"/></svg>