<svg xmlns="http://www.w3.org/2000/svg" viewBox="0 0 64 64" enable-background="new 0 0 64 64"><path fill="#b2c1c0" d="m23.821 41.555c-.471-.945-.069-2.09.897-2.549.964-.463 2.128-.068 2.599.879.469.947.067 2.09-.896 2.549-.967.462-2.131.07-2.6-.879"/><path fill="#c94747" d="m22.07 42.39c-.234-.473-.035-1.045.448-1.275.482-.23 1.063-.033 1.3.439.234.475.034 1.045-.448 1.275-.484.233-1.065.035-1.3-.439"/><path opacity=".5" fill="#3e4347" d="m24.521 41.879c.507.172.214-.607.475-1.354.264-.748.984-1.18.477-1.354-.506-.17-1.132.293-1.394 1.043-.265.749-.066 1.493.442 1.665"/><path fill="#b2c1c0" d="m29.07 39.05c-.471-.949-.068-2.092.896-2.553.966-.461 2.13-.068 2.603.881.469.947.065 2.09-.9 2.551-.965.461-2.13.066-2.599-.879"/><path fill="#c94747" d="m27.317 39.885c-.235-.475-.035-1.043.449-1.275.481-.23 1.063-.037 1.299.441.234.473.034 1.045-.449 1.275s-1.064.031-1.299-.441"/><path opacity=".5" fill="#3e4347" d="m29.765 39.37c.509.172.212-.605.476-1.354.263-.746.983-1.18.476-1.354-.508-.172-1.13.293-1.396 1.041-.262.751-.066 1.495.444 1.667"/><path fill="#b2c1c0" d="m34.31 36.543c-.471-.945-.069-2.09.897-2.549.964-.463 2.128-.07 2.599.879.469.947.067 2.09-.896 2.549-.968.463-2.132.068-2.6-.879"/><path fill="#c94747" d="m32.563 37.38c-.236-.475-.038-1.045.446-1.277.481-.229 1.063-.033 1.3.441.234.475.033 1.045-.447 1.275-.485.233-1.064.036-1.299-.439"/><path opacity=".5" fill="#3e4347" d="m35.01 36.867c.508.172.214-.607.475-1.354.265-.748.983-1.178.479-1.354-.51-.17-1.134.293-1.396 1.043-.265.749-.066 1.493.442 1.665"/><path fill="#b2c1c0" d="m39.604 34.16c-.336-1 .22-2.08 1.24-2.408 1.018-.33 2.118.213 2.454 1.215.335 1-.221 2.08-1.24 2.41-1.023.328-2.12-.217-2.454-1.217"/><path fill="#c94747" d="m37.755 34.752c-.168-.5.111-1.037.621-1.205.511-.164 1.061.109 1.228.611.167.5-.11 1.039-.62 1.203-.511.164-1.061-.105-1.229-.609"/><path opacity=".5" fill="#3e4347" d="m40.25 34.57c.478.236.293-.57.656-1.279.364-.705 1.135-1.039.657-1.275-.479-.238-1.161.141-1.524.846-.364.706-.27 1.472.211 1.708"/><path fill="#b2c1c0" d="m50.564 30.26c-.399-.979.088-2.09 1.084-2.479.998-.391 2.13.086 2.526 1.064.397.98-.087 2.09-1.085 2.48-.997.39-2.126-.087-2.525-1.065"/><path fill="#c94747" d="m48.759 30.965c-.199-.49.044-1.045.542-1.242.501-.193 1.063.043 1.264.535.197.49-.045 1.047-.544 1.24-.5.197-1.065-.043-1.262-.533"/><path opacity=".5" fill="#3e4347" d="m51.24 30.631c.495.209.261-.588.576-1.316.318-.725 1.07-1.105.576-1.314-.492-.205-1.152.213-1.469.939-.318.726-.177 1.484.317 1.691"/><path fill="#b2c1c0" d="m55.59 27.469c-.655-.834-.497-2.033.353-2.676s2.071-.49 2.726.346c.658.834.499 2.035-.353 2.678-.849.64-2.07.486-2.726-.348"/><path fill="#c94747" d="m54.05 28.633c-.327-.416-.248-1.016.178-1.338.426-.32 1.035-.244 1.363.174.327.418.248 1.018-.176 1.338-.428.322-1.037.246-1.365-.174"/><path opacity=".5" fill="#3e4347" d="m56.35 27.646c.533.066.084-.635.187-1.418.103-.785.721-1.352.188-1.42-.533-.068-1.049.512-1.152 1.295-.105.788.244 1.475.777 1.543"/><path fill="#b2c1c0" d="m59.65 23.652c-1.066-.143-1.811-1.102-1.666-2.146.143-1.045 1.121-1.775 2.187-1.635 1.062.141 1.81 1.1 1.665 2.146-.144 1.044-1.124 1.776-2.186 1.635"/><path fill="#c94747" d="m59.38 25.543c-.532-.07-.904-.551-.834-1.072.072-.523.562-.887 1.096-.818.531.07.903.549.832 1.072-.073.525-.562.888-1.094.818"/><path opacity=".5" fill="#3e4347" d="m60.31 23.26c.428-.32-.396-.51-.884-1.141-.486-.627-.456-1.455-.883-1.139-.429.322-.379 1.09.108 1.719.492.629 1.231.883 1.659.561"/><path fill="#b2c1c0" d="m60.53 17.959c-.926.531-2.115.225-2.658-.684-.543-.912-.231-2.078.694-2.611s2.118-.227 2.661.684c.541.908.233 2.076-.697 2.611"/><path fill="#c94747" d="m61.52 19.605c-.462.266-1.058.111-1.329-.342-.272-.455-.117-1.039.346-1.305.465-.268 1.059-.115 1.331.34s.114 1.04-.348 1.307"/><path opacity=".5" fill="#3e4347" d="m60.81 17.248c.137-.51-.629-.162-1.409-.361-.781-.199-1.273-.873-1.412-.361-.134.508.387 1.084 1.166 1.283.781.201 1.521-.051 1.655-.561"/><path fill="#b2c1c0" d="m53.938 8.791c-.511.926-1.692 1.27-2.635.768-.945-.504-1.294-1.662-.783-2.588.514-.926 1.693-1.27 2.637-.768.944.504 1.292 1.662.781 2.588"/><path fill="#c94747" d="m55.646 9.701c-.257.463-.846.635-1.318.383-.472-.25-.646-.828-.391-1.293.257-.461.846-.635 1.318-.381.474.248.647.828.391 1.291"/><path opacity=".5" fill="#3e4347" d="m53.799 8.04c-.152-.504-.625.184-1.397.408-.772.223-1.55-.1-1.399.406.154.506.903.734 1.676.51.772-.226 1.274-.816 1.12-1.324"/><path fill="#b2c1c0" d="m48.936 5.701c.046 1.053-.786 1.943-1.859 1.988-1.072.045-1.979-.773-2.026-1.824-.046-1.055.787-1.945 1.858-1.988 1.073-.047 1.979.771 2.027 1.824"/><path fill="#c94747" d="m50.877 5.619c.021.527-.393.971-.931.994-.535.021-.988-.385-1.01-.912-.022-.529.392-.971.931-.994.535-.021.988.385 1.01.912"/><path opacity=".5" fill="#3e4347" d="m48.42 5.131c-.396-.357-.44.473-.985 1.055s-1.381.697-.984 1.055c.395.357 1.154.174 1.701-.408.545-.587.665-1.345.268-1.702"/><path fill="#b2c1c0" d="m43.907 8.367c.591.881.344 2.064-.553 2.645-.896.578-2.102.338-2.693-.539-.591-.883-.344-2.064.552-2.646.897-.581 2.102-.337 2.694.54"/><path fill="#c94747" d="m45.53 7.316c.295.441.17 1.033-.277 1.324-.448.289-1.051.168-1.346-.273-.297-.438-.173-1.031.275-1.32.448-.291 1.051-.168 1.348.269"/><path opacity=".5" fill="#3e4347" d="m43.17 8.137c-.525-.105-.133.627-.293 1.402-.162.773-.82 1.297-.293 1.402s1.084-.438 1.246-1.211c.162-.775-.133-1.488-.66-1.593"/><path fill="#b2c1c0" d="m39.1 11.586c.893.588 1.13 1.775.53 2.65-.601.873-1.808 1.105-2.699.518-.89-.588-1.127-1.773-.528-2.648.6-.874 1.807-1.106 2.697-.52"/><path fill="#c94747" d="m40.19 10c.443.295.563.887.263 1.324s-.903.555-1.351.258c-.443-.293-.563-.885-.263-1.322.303-.44.904-.555 1.351-.26"/><path opacity=".5" fill="#3e4347" d="m38.34 11.652c-.527.1.126.629.281 1.406.156.773-.246 1.502.279 1.402.528-.102.828-.813.675-1.588-.155-.774-.706-1.321-1.235-1.22"/><path fill="#b2c1c0" d="m32.626 21.11c.913.549 1.201 1.727.639 2.621-.563.898-1.76 1.18-2.676.627-.915-.553-1.199-1.729-.637-2.625.563-.898 1.76-1.177 2.674-.623"/><path fill="#c94747" d="m33.644 19.482c.459.275.601.863.319 1.311-.28.449-.881.588-1.337.316-.457-.279-.602-.865-.319-1.314.282-.451.88-.59 1.337-.313"/><path opacity=".5" fill="#3e4347" d="m31.858 21.2c-.521.123.15.625.338 1.395.189.77-.185 1.514.34 1.393.521-.125.794-.846.604-1.613-.184-.772-.756-1.296-1.282-1.175"/><path fill="#b2c1c0" d="m29.571 25.982c.914.553 1.199 1.729.637 2.627-.563.896-1.76 1.176-2.673.625-.915-.553-1.202-1.727-.64-2.625.564-.898 1.762-1.177 2.676-.627"/><path fill="#c94747" d="m30.589 24.357c.459.275.6.863.318 1.313-.281.451-.879.59-1.336.313-.459-.273-.602-.863-.32-1.311.283-.449.879-.59 1.338-.315"/><path opacity=".5" fill="#3e4347" d="m28.804 26.08c-.521.121.151.623.339 1.391.185.771-.187 1.516.337 1.393s.797-.846.607-1.615c-.188-.769-.762-1.292-1.283-1.169"/><path fill="#b2c1c0" d="m26.515 30.859c.916.553 1.201 1.729.638 2.625-.562.896-1.759 1.178-2.671.627-.919-.553-1.203-1.727-.64-2.625.559-.9 1.761-1.177 2.673-.627"/><path fill="#c94747" d="m27.535 29.23c.456.277.6.863.317 1.311-.283.451-.881.592-1.338.314s-.6-.865-.318-1.313c.283-.446.88-.589 1.339-.312"/><path opacity=".5" fill="#3e4347" d="m25.749 30.955c-.523.123.15.623.337 1.395.188.768-.185 1.512.339 1.389.522-.121.793-.842.607-1.611-.187-.771-.761-1.294-1.283-1.173"/><path fill="#b2c1c0" d="m23.461 35.736c.915.553 1.199 1.729.638 2.625-.563.896-1.762 1.178-2.676.625-.914-.551-1.199-1.729-.637-2.623.562-.9 1.76-1.179 2.675-.627"/><path fill="#c94747" d="m24.481 34.11c.453.275.598.863.315 1.313-.281.449-.879.59-1.336.313-.458-.275-.601-.863-.319-1.313.284-.451.88-.588 1.34-.313"/><path opacity=".5" fill="#3e4347" d="m22.692 35.832c-.523.123.151.621.34 1.393.188.77-.185 1.512.338 1.391.523-.121.793-.844.606-1.613s-.76-1.294-1.284-1.171"/><g fill="#c94747"><path d="m21.423 38.986c.457.277.601.863.32 1.313-.283.449-.879.59-1.34.314-.456-.277-.598-.863-.316-1.313.28-.45.88-.589 1.336-.314"/><path d="m16.99 45.1c.458.275.6.863.319 1.311-.281.451-.881.592-1.336.314-.458-.277-.601-.863-.32-1.314.281-.448.878-.587 1.337-.311"/></g><path fill="#ed4c5c" d="m37.23 18.963c-1.141 1.119-2.985 1.119-4.124 0-1.14-1.119-1.142-2.93 0-4.049 1.138-1.117 2.984-1.117 4.124 0 1.138 1.117 1.138 2.93 0 4.049"/><path opacity=".5" fill="#3e4347" d="m37.35 17.83c0-.793-.979 0-2.188 0s-2.186-.793-2.186.002c0 .787.977 1.428 2.186 1.428 1.211.002 2.187-.639 2.188-1.43"/><path fill="#ed4c5c" d="m47.909 33.496c-1.141 1.119-2.984 1.117-4.125 0-1.138-1.117-1.139-2.93 0-4.047 1.139-1.119 2.984-1.119 4.125 0 1.139 1.117 1.138 2.932 0 4.047"/><path opacity=".5" fill="#3e4347" d="m48.04 32.363c0-.789-.98 0-2.189 0-1.208 0-2.185-.789-2.187 0 0 .793.979 1.432 2.187 1.432 1.21 0 2.187-.639 2.189-1.432"/><path fill="#ed4c5c" d="m59.37 14.289c-1.14 1.121-2.985 1.119-4.124 0-1.14-1.117-1.141-2.928 0-4.047 1.138-1.117 2.985-1.119 4.124 0 1.139 1.117 1.139 2.932 0 4.047"/><path opacity=".5" fill="#3e4347" d="m59.5 13.156c0-.789-.979 0-2.188 0s-2.184-.789-2.186.004c0 .789.977 1.428 2.186 1.428 1.211.002 2.187-.639 2.188-1.432"/><path fill="#ed4c5c" d="m21.354 45.3c-1.14 1.119-2.986 1.119-4.124 0-1.14-1.119-1.141-2.93 0-4.047 1.137-1.119 2.986-1.119 4.124 0 1.138 1.115 1.138 2.93 0 4.047"/><path opacity=".5" fill="#3e4347" d="m21.479 44.16c0-.791-.979 0-2.189 0-1.208 0-2.184-.791-2.185 0 0 .791.978 1.43 2.185 1.43 1.211.002 2.189-.639 2.189-1.43"/><path fill="#c94747" d="m17.318 47.22c-.541-.531-1.616-.236-1.772-.391-.169-.166.223-1.131-.404-1.744-.614-.605-1.687-.455-2.284.373-.211.293-.507.947-.618 1.277-.285.867-.555 3.051-.131 3.467.423.416 2.649.152 3.532-.129.336-.107 1-.4 1.301-.605.843-.588.99-1.645.376-2.248"/><path opacity=".5" fill="#3e4347" d="m17.205 47.973c-.118-.379-.545-.32-1.666.436-1.121.754-2.521 1.24-2.93.414-.407-.83-.674.961.304 1.227.876.235 4.712-.734 4.292-2.077"/><path fill="#c94747" d="m11.931 50.06c.457.277.6.865.319 1.313-.281.449-.879.59-1.338.313-.457-.275-.6-.863-.317-1.313.281-.447.879-.59 1.336-.313"/><path fill="#b2c1c0" d="m11.08 55.938l-1.719-1.686 1.719-1.688c.189-.186.189-.488 0-.676l-.688-.674c-.188-.186-.496-.186-.687 0l-1.719 1.688-1.717-1.688c-.19-.186-.499-.186-.688 0l-.687.674c-.19.188-.19.49 0 .676l1.719 1.688-4.469 4.385c-.189.186-.189.488 0 .674l.687.674c.19.188.499.188.688 0l4.467-4.385 1.719 1.688c.19.186.499.186.687 0l.688-.674c.189-.188.189-.491 0-.676"/><g opacity=".5"><path fill="#3e4347" d="m10.389 56.61c.19-.188.19-.49 0-.676l-1.373-1.347c-.189-.188-.189-.49 0-.676l1.374-1.35c.19-.186.19-.488 0-.676-.188-.186-.496-.186-.687 0l-1.375 1.35c-.188.186-.499.186-.688 0l-1.373-1.35c-.19-.186-.499-.186-.688 0-.19.188-.19.49 0 .676l1.374 1.35c.189.186.189.488 0 .676l-4.125 4.047c-.188.186-.188.488 0 .674.19.188.499.188.688 0l4.123-4.047c.189-.188.5-.188.688 0l1.375 1.35c.191.183.499.183.687-.001"/></g></svg>