<svg xmlns="http://www.w3.org/2000/svg" viewBox="0 0 64 64" enable-background="new 0 0 64 64"><path fill="#ffce31" d="M2,28.262v31.433C2,62.072,3.919,64,6.285,64h51.43C60.081,64,62,62.072,62,59.694V28.262H2z"/><path fill="#ff8736" d="M62,23.956c0-2.378-1.919-4.306-4.285-4.306H6.285C3.919,19.65,2,21.578,2,23.956v4.306h60V23.956z"/><g fill="#3e4347"><ellipse cx="12.367" cy="23.528" rx="5.92" ry="2.503"/><ellipse cx="51.633" cy="23.528" rx="5.92" ry="2.503"/><path d="m36.609 56.4l-1.913-12.262c1.13-.834 1.866-2.176 1.866-3.693 0-2.531-2.044-4.584-4.563-4.584s-4.562 2.053-4.562 4.584c0 1.518.736 2.859 1.866 3.693l-1.912 12.262h9.218"/></g><path fill="#dfe9ef" d="m32 0c-5.588 0-10.725 1.98-14.755 5.275l2.902 2.902c3.3-2.694 7.403-4.303 11.853-4.303 10.365 0 18.88 8.682 19.634 19.653v1.419c2.204 0 3.784-.636 3.784-1.419 0-12.972-10.507-23.527-23.419-23.527"/><path fill="#b0bdc6" d="m51.634 23.528c-.754-10.971-9.269-19.653-19.634-19.653-4.449 0-8.553 1.608-11.853 4.303l2.825 2.825c2.428-1.831 5.475-3 9.03-3 9.547 0 15.455 8.423 15.455 15.525 0 .783 1.973 1.419 4.18 1.419v-1.419"/></svg>