<svg xmlns="http://www.w3.org/2000/svg" viewBox="0 0 64 64" enable-background="new 0 0 64 64"><circle fill="#0071bc" cx="32" cy="32" r="30"/><g fill="#fff"><path d="m17.424 43.528h14v5.999h-14z"/><path d="m11.424 29.528h6v14h-6z"/><path d="m37.15 21.973c0 4.764 9.555 4.764 9.555 0 0-2.586 0-4.751 0-4.751h-9.555l-3.801 2.851h3.801c0 .67 0 1.349 0 1.9"/><path d="m46.709 16.271v-3.8h-10.509l.95 3.8z"/><path d="m33.785 42.08l14.395-14.406h-8.704-5.691-.011l-13.502 14.1h5.702l7.811-8.16z"/><path d="m33.785 44.48h16.791v5.05h-16.791z"/><path d="m35.463 42.805h15.11v-15.13z"/></g></svg>