<svg xmlns="http://www.w3.org/2000/svg" viewBox="0 0 64 64" enable-background="new 0 0 64 64"><g fill="#e8e8e8"><circle cx="46" cy="16.5" r="3"/><circle cx="49" cy="14" r="4"/><circle cx="53" cy="15" r="4"/><circle cx="34" cy="5.833" r="3"/><circle cx="38" cy="4" r="4"/></g><g fill="#fff"><path d="m41 17.612v32.388h8v-32.388c-2.4-2.342-5.6-1.946-8 0"/><path d="m29 6.612v32.388h8v-32.388c-2.4-2.342-5.6-1.946-8 0"/></g><path fill="#ed4c5c" d="m29 8.612v32.388h8v-32.388c-2.4-2.342-5.6-1.946-8 0"/><path fill="#fff" d="m29 10.612v32.388h8v-32.388c-2.4-2.342-5.6-1.946-8 0"/><path fill="#ed4c5c" d="m41 19.612v32.388h8v-32.388c-2.4-2.342-5.6-1.946-8 0"/><path fill="#fff" d="m41 21.612v32.388h8v-32.388c-2.4-2.342-5.6-1.946-8 0"/><g fill="#94989b"><path d="m60.5 49h-51v-26l2-2v-2.9l2-1.1v-2.189l8-3.604 16 2.793 23 21.48z"/><path d="m35.434 14v4l-1.934.362v3.638l-2-.191v4.167l-2 .024v4.674l31 16.17v-11.362l-23-21.48z"/></g><path fill="#fff" d="M7,24c0,0-5.473,1.968-7,7c0,0,1.654,6.074,6.49,13.496C11.327,51.92,14,62,14,62V31.79L7,24z"/><g fill="#3e4347"><path d="m28 27v3l-14.5-2v-1z"/><path d="m30 23v3l-14.5-2v-1z"/><path d="m32 19v3l-14.5-2v-1z"/><path d="m34 15v3l-14.5-2v-1z"/></g><path fill="#fff" d="m13.5 13v2l8-2v-2z"/><path fill="#e8e8e8" d="m21.5 11v2l16 2v-2z"/><path fill="#d0d0d0" d="m37.5 15v-2l23 22.48v.52z"/><path fill="#fff" d="m11.5 17v2l8-2v-2z"/><path fill="#e8e8e8" d="m19.5 15v2l16 2v-2z"/><path fill="#d0d0d0" d="m35.5 19v-2l25 21.48v.52z"/><path fill="#fff" d="m9.5 21v2l8-2v-2z"/><path fill="#e8e8e8" d="m17.5 19v2l16 2v-2z"/><path fill="#d0d0d0" d="m33.5 23v-2l27 20.48v.52z"/><path fill="#fff" d="m7.5 25v2l8-2v-2z"/><path fill="#e8e8e8" d="m15.5 23v2l16 2v-2z"/><path fill="#d0d0d0" d="m31.5 27v-2l29 19.48v.52z"/><circle fill="#e8e8e8" cx="42" cy="4" r="4"/><g fill="#d0d0d0"><path d="m43.09 5.509c-.146.094-.306.146-.457.188-.153.033-.297.065-.449.056-.296-.005-.6-.063-.902-.183-.154-.05-.309-.118-.457-.193-.142-.07-.305-.172-.411-.233l-.456-.264-.429.303-.357.252c-.124.072-.226.206-.358.238l-.388.172c-.064.04-.138.024-.207.047l-.214.042c-.146.052-.298.011-.459.021-.166.015-.324-.024-.495-.056-.351-.05-.684-.173-1.055-.312.172.307.442.594.782.803.169.112.351.213.562.272.207.069.418.153.65.148l.349.016c.114-.002.243.024.349-.015l.667-.178c.243-.044.388-.189.575-.294l.083-.055c.061.029.119.059.183.089.209.093.427.177.66.24.463.113.991.171 1.502.049.256-.053.493-.161.705-.28.2-.141.375-.289.506-.462.267-.34.389-.716.428-1.088-.32.263-.586.522-.907.677"/><path d="m54.08 16.297c-.163.055-.331.064-.489.066-.156-.006-.304-.011-.448-.059-.285-.079-.564-.211-.828-.404-.137-.087-.269-.191-.393-.302-.12-.104-.252-.242-.34-.329l-.374-.369-.492.185-.409.154c-.138.039-.271.143-.407.14l-.418.07c-.072.022-.139-.011-.211-.006l-.219-.014c-.154.014-.291-.064-.449-.096-.164-.027-.307-.104-.465-.178-.326-.137-.617-.34-.942-.567.089.341.278.687.556.974.135.151.285.295.475.405.183.119.365.253.593.308l.333.103c.111.026.229.084.341.073l.69-.004c.247.019.423-.086.631-.141l.094-.032c.051.044.101.087.154.132.18.143.369.279.578.399.42.226.917.414 1.442.425.261.013.518-.032.752-.095.229-.085.437-.186.606-.319.344-.262.557-.596.688-.945-.376.173-.698.358-1.049.426"/></g><g fill="#3e4347"><path d="m37.5 16.835l-1-.885v1.55l1 .862z"/><path d="m39.5 18.605l-1-.885v1.504l1 .866z"/><path d="m41.5 20.375l-1-.885v1.457l1 .862z"/><path d="m43.5 22.15l-1-.89v1.41l1 .862z"/><path d="m45.5 23.916l-1-.886v1.364l1 .856z"/><path d="m47.5 25.686l-1-.885v1.319l1 .859z"/><path d="m49.5 27.457l-1-.886v1.269l1 .863z"/><path d="m50.5 28.341v1.223l1 .862v-1.196z"/><path d="m54.5 31.881v1.129l1 .863v-1.106z"/><path d="m52.5 30.11v1.18l1 .86v-1.153z"/><path d="m56.5 33.652v1.082l1 .862v-1.059z"/><path d="m58.5 35.422v1.035l1 .863v-1.01z"/><path d="m35.586 20.662l-1.086-.847v1.482l1.086.823z"/><path d="m37.755 22.353l-1.086-.846v1.437l1.086.823z"/><path d="m39.924 24.04l-1.086-.84v1.391l1.086.824z"/><path d="m42.09 25.736l-1.08-.846v1.35l1.08.82z"/><path d="m44.26 27.428l-1.08-.846v1.303l1.08.823z"/><path d="m46.43 29.12l-1.08-.85v1.262l1.08.824z"/><path d="m48.601 30.813l-1.081-.847v1.214l1.081.82z"/><path d="m49.686 31.659v1.168l1.084.823v-1.146z"/><path d="m54.02 35.04v1.08l1.09.823v-1.056z"/><path d="m51.854 33.35v1.123l1.085.827v-1.1z"/><path d="m56.19 36.732v1.036l1.09.824v-1.014z"/><path d="m58.36 38.426v.984l1.09.83v-.97z"/><path d="m33.673 24.479l-1.173-.82v1.431l1.173.801z"/><path d="m36.02 26.12l-1.173-.823v1.391l1.173.797z"/><path d="m38.37 27.753l-1.18-.818v1.345l1.18.8z"/><path d="m40.713 29.391l-1.172-.818v1.304l1.172.797z"/><path d="m43.06 31.03l-1.173-.82v1.261l1.173.799z"/><path d="m45.41 32.667l-1.18-.819v1.222l1.18.793z"/><path d="m47.756 34.3l-1.175-.814v1.174l1.175.797z"/><path d="m48.929 35.12v1.13l1.171.8v-1.109z"/><path d="m53.621 38.4v1.043l1.174.797v-1.02z"/><path d="m51.27 36.762v1.086l1.18.798v-1.066z"/><path d="m55.969 40.04v1l1.171.796v-.981z"/><path d="m58.31 41.676v.957l1.18.797v-.936z"/><path d="m31.762 28.859l-1.262-.749v1.308l1.262.722z"/><path d="m34.28 30.346l-1.26-.744v1.264l1.26.724z"/><path d="m36.806 31.834l-1.261-.744v1.23l1.261.72z"/><path d="m39.33 33.32l-1.26-.741v1.185l1.26.724z"/><path d="m41.851 34.811l-1.261-.741v1.14l1.261.728z"/><path d="m44.37 36.3l-1.26-.745v1.107l1.26.718z"/><path d="m46.896 37.787l-1.26-.747v1.07l1.26.724z"/><path d="m48.16 38.531v1.028l1.26.721v-1.01z"/><path d="m53.2 41.508v.952l1.26.72v-.93z"/><path d="m50.681 40.02v.99l1.26.722v-.968z"/><path d="m55.726 42.996v.908l1.26.725v-.889z"/><path d="m58.25 44.48v.87l1.26.73v-.85z"/></g><path fill="#d0d0d0" d="M7,24c0,0-1.186,8.459,2.25,18.199C14,55.666,13.75,62,13.75,62h44.5c0,0,0.25-2.99,3-6.852S64,49,64,49
			S20.375,20.761,7,24z"/><path fill="#42ade2" d="m64 57.09l-1.738 1.189c-1.551 1.055-3.484.93-4.932-.318-.332-.287-.624-.631-.881-1l-1.941 1.322c-1.547 1.055-3.479.936-4.916-.314-.342-.291-.624-.629-.881-1l-1.94 1.322c-1.544 1.055-3.479.932-4.916-.316-.341-.289-.633-.627-.88-.998l-1.94 1.316c-1.545 1.055-3.479.936-4.927-.313-.33-.293-.623-.629-.87-1l-1.95 1.322c-1.534 1.055-3.468.932-4.921-.318-.326-.287-.626-.625-.876-.998l-1.94 1.322c-1.553 1.055-3.479.934-4.924-.313-.333-.293-.634-.633-.878-1.01l-1.936 1.322c-1.552 1.055-3.482.936-4.922-.314-.34-.291-.636-.625-.883-1l-1.938 1.324c-1.546 1.055-3.48.934-4.927-.314-.333-.291-.625-.631-.882-1l-1.94 1.32c-.104.072-.214.126-.321.189v5.498h64v-6.908"/><g fill="#3e4347"><path d="m32.932 34.734c0-.279-.204-.604-.453-.717l-1.154-.523c-.25-.113-.454.023-.454.305v1.877c0 .281.208.592.464.693l1.135.451c.255.104.463-.043.463-.324v-1.762"/><path d="m37.05 36.65c0-.281-.203-.605-.451-.723l-1.158-.541c-.248-.115-.452.018-.452.299v1.648c0 .279.207.596.461.701l1.141.475c.253.105.46-.037.46-.318v-1.541"/><path d="m41.18 38.621c0-.281-.202-.607-.449-.729l-1.162-.559c-.248-.119-.449.014-.449.295v1.438c0 .279.205.6.457.709l1.146.498c.252.109.457-.031.457-.313v-1.339"/><path d="m45.3 40.652c0-.281-.201-.609-.445-.732l-1.168-.58c-.246-.121-.447.008-.447.289v1.25c0 .281.205.604.454.717l1.153.525c.25.113.453-.021.453-.303v-1.166"/><path d="m49.42 42.816c0-.281-.197-.617-.439-.748l-1.184-.645c-.24-.129-.438-.008-.438.273v1.01c0 .281.2.611.446.734l1.17.592c.244.125.445-.004.445-.285v-.929"/><path d="m53.54 44.791c0-.281-.198-.617-.44-.746l-1.18-.629c-.243-.129-.441-.006-.441.275v.977c0 .281.201.611.445.734l1.172.59c.244.127.444-.002.444-.283v-.918"/><path d="m57.22 46.82c0-.281-.196-.621-.435-.758l-.741-.414c-.239-.135-.435-.016-.435.266v.877c0 .279.197.617.438.748l.736.4c.24.133.437.014.437-.268v-.851"/><path d="m60.5 48.574c0-.279-.199-.611-.443-.738l-.658-.334c-.244-.123-.445.002-.445.283v.758c0 .281.201.611.447.734l.655.33c.244.125.444-.002.444-.283v-.75"/><path d="m28.982 32.977c0-.288-.246-.622-.547-.74l-1.389-.541c-.301-.116-.547.026-.547.315v1.938c0 .291.251.611.559.715l1.367.467c.307.105.557-.045.557-.332v-1.822"/></g><g fill="#e8e8e8"><path d="m58.25 45.498c0 .891 0 1.779 0 2.668 0 .322.5.322.5 0 0-.889 0-1.777 0-2.668 0-.322-.5-.322-.5 0"/><path d="m51.25 41.42c0 1.094 0 2.188 0 3.281 0 .322.5.322.5 0 0-1.094 0-2.188 0-3.281 0-.322-.5-.322-.5 0"/><path d="m43.75 36.969c0 1.578 0 3.154 0 4.732 0 .322.5.322.5 0 0-1.578 0-3.154 0-4.732 0-.323-.5-.323-.5 0"/><path d="m35.15 32.758c0 1.91 0 3.82 0 5.73 0 .322.5.322.5 0 0-1.91 0-3.82 0-5.73 0-.322-.5-.322-.5 0"/></g><path fill="#ed4c5c" d="m58.883 48.2c.411.607-.5.787-2.036.402-1.541-.383-3.118-1.188-3.531-1.793-.411-.605.5-.785 2.036-.402 1.54.385 3.118 1.188 3.531 1.793"/><path opacity=".5" fill="#6f1f08" d="m58.678 48.74c-.517-.59-1.984-1.318-3.431-1.68-.838-.209-1.479-.246-1.832-.143.517.59 1.985 1.318 3.432 1.68.839.21 1.479.247 1.831.143"/><path fill="#ed4c5c" d="m51.924 45.02c.445.738-.547 1-2.215.592-1.673-.41-3.383-1.34-3.83-2.076-.445-.738.548-1 2.216-.592 1.672.41 3.382 1.339 3.829 2.076"/><path opacity=".5" fill="#6f1f08" d="m51.699 45.707c-.559-.713-2.151-1.555-3.722-1.939-.909-.225-1.606-.242-1.99-.096.56.713 2.151 1.555 3.722 1.939.909.225 1.607.241 1.99.096"/><path fill="#ed4c5c" d="m44.35 41.523c.512.727-.543 1.018-2.355.652-1.815-.365-3.699-1.25-4.213-1.975-.513-.727.543-1.018 2.355-.652 1.815.366 3.698 1.251 4.213 1.975"/><path opacity=".5" fill="#6f1f08" d="m44.14 42.22c-.633-.699-2.383-1.498-4.089-1.84-.99-.201-1.739-.199-2.145-.043.634.697 2.384 1.496 4.089 1.84.988.199 1.74.197 2.145.043"/><path fill="#ed4c5c" d="m36.02 38.04c.61.848-.584 1.244-2.668.889-2.087-.354-4.271-1.328-4.885-2.174-.609-.848.584-1.246 2.668-.891 2.088.356 4.27 1.328 4.885 2.176"/><path opacity=".5" fill="#6f1f08" d="m35.799 38.879c-.748-.807-2.778-1.686-4.739-2.02-1.137-.193-1.992-.158-2.45.047.749.809 2.777 1.688 4.737 2.02 1.137.193 1.994.156 2.452-.049"/><g fill="#e8e8e8"><path d="m28.75 29.469c0 2.301 0 4.601 0 6.902 0 .322.5.322.5 0 0-2.301 0-4.601 0-6.902 0-.322-.5-.322-.5 0"/><path d="m37.817 34.17c0 1.873 0 3.748 0 5.623 0 .322.5.322.5 0 0-1.875 0-3.75 0-5.623 0-.322-.5-.322-.5 0"/><path d="m46.18 38.424c0 1.586 0 3.172 0 4.758 0 .322.5.322.5 0 0-1.586 0-3.172 0-4.758 0-.322-.5-.322-.5 0"/><path d="m53.584 42.75c0 1.223 0 2.443 0 3.666 0 .322.5.322.5 0 0-1.223 0-2.443 0-3.666 0-.322-.5-.322-.5 0"/><path d="m23.948 4.534c-.018 0-.035.005-.054.006-.175-.881-.848-1.54-1.652-1.54-.854 0-1.553.737-1.676 1.697-.152-.101-.327-.163-.515-.163-.579 0-1.051.551-1.051 1.233 0 .681.618 1.233 1.199 1.233h3.789c.563-.024 1.012-.569 1.012-1.233 0-.682-.472-1.233-1.052-1.233"/><path d="m55.05 23.534c.018 0 .035.005.054.006.176-.881.849-1.54 1.652-1.54.854 0 1.553.737 1.676 1.697.152-.101.327-.163.515-.163.58 0 1.052.551 1.052 1.232-.001.682-.619 1.234-1.2 1.234h-3.789c-.563-.024-1.012-.569-1.012-1.233 0-.682.472-1.233 1.052-1.233"/></g><g fill="#94989b"><path d="m3.612 14.827c0 0-.111-1.394 1.874-1.877 0 0 .621-1.762 2.993-1.639 0 0-2.451.921-2.271 2.45.001 0-1.746-.408-2.596 1.066"/><path d="m4 5.204c0 0 .678-1.224 2.6-.529 0 0 1.49-1.125 3.4.287 0 0-2.552-.586-3.246.788 0 0-1.231-1.306-2.754-.546"/></g></svg>