<svg xmlns="http://www.w3.org/2000/svg" viewBox="0 0 64 64" enable-background="new 0 0 64 64"><path fill="#5a6568" d="m38.19 62c-3.961 0-7.968-3.229-7.968-9.402v-40.847c-.001-.967.796-1.751 1.78-1.751.982 0 1.781.784 1.781 1.751v40.847c0 4.076 2.213 5.902 4.406 5.902 2.078 0 4.316-1.746 4.316-5.581 0-.967.797-1.751 1.781-1.751.982 0 1.779.784 1.779 1.751.001 5.962-3.961 9.08-7.875 9.08"/><path fill="#fc97b2" d="m32 14.08c-18 3.889-18 30-18 30 0-3.314 2.686-6 6-6 3.313 0 6 2.686 6 6 0 0-.722-22.944 6-30"/><g fill="#e84d88"><path d="m32 14.08c-16.568 0-30 13.432-30 30 0-3.314 2.686-6 6-6 3.313 0 6 2.686 6 6 0 0 0-26.11 18-30"/><path d="m32 14.08c-6.723 7.06-6 30-6 30 0-3.314 2.686-6 6-6 3.314 0 6 2.686 6 6 0 0 .723-22.944-6-30"/></g><path fill="#fc97b2" d="m32 14.08c6.722 7.06 6 30 6 30 0-3.314 2.686-6 6-6s6 2.686 6 6c0 0 0-26.11-18-30"/><path fill="#e84d88" d="m32 14.08c18 3.889 18 30 18 30 0-3.314 2.686-6 6-6s6 2.686 6 6c0-16.568-13.432-30-30-30"/><g fill="#42ade2"><path d="m57.09 2c3.119 4.267 4.912 8.194 4.912 11.422 0 2.74-2.201 4.963-4.916 4.963s-4.914-2.223-4.914-4.963c0-3.228 1.846-7.221 4.918-11.422"/><path d="m40.36 12.07c3.121 4.267 4.912 8.194 4.912 11.422 0 2.74-2.201 4.963-4.914 4.963-2.715 0-4.914-2.223-4.914-4.963 0-3.227 1.844-7.22 4.916-11.422"/><path d="m23.641 2c3.119 4.267 4.912 8.194 4.912 11.422 0 2.74-2.201 4.963-4.916 4.963s-4.914-2.223-4.914-4.963c0-3.228 1.846-7.221 4.918-11.422"/><path d="m6.917 12.07c3.121 4.267 4.912 8.194 4.912 11.422 0 2.74-2.201 4.963-4.914 4.963-2.715 0-4.915-2.223-4.915-4.963 0-3.227 1.844-7.22 4.917-11.422"/></g></svg>