<svg xmlns="http://www.w3.org/2000/svg" viewBox="0 0 64 64" enable-background="new 0 0 64 64"><circle fill="#c28fef" cx="32" cy="32" r="30"/><path fill="#fff" stroke="#fff" stroke-miterlimit="10" d="m45.28 45.854c-4.226-3.199-6.53-7.688-6.954-12.305 2.057 0 4.111 0 6.166 0 2.02 0 2.02-3.076 0-3.076-2.055 0-4.109 0-6.166 0 .424-4.617 2.729-9.105 6.954-12.304 1.574-1.191.021-3.865-1.576-2.656-5.2 3.938-8.01 9.387-8.449 14.96-2.073 0-4.146 0-6.218 0-.446-5.693-3.362-11.251-8.764-15.177-1.624-1.18-3.18 1.49-1.576 2.656 4.419 3.211 6.827 7.801 7.26 12.521-2.148 0-4.294 0-6.441 0-2.02 0-2.02 3.076 0 3.076 2.148 0 4.295 0 6.443 0-.432 4.711-2.828 9.289-7.231 12.502-1.601 1.166-.045 3.838 1.576 2.654 5.383-3.924 8.287-9.475 8.731-15.16 2.072 0 4.146 0 6.219 0 .438 5.576 3.25 11.02 8.45 14.959 1.597 1.209 3.151-1.465 1.576-2.654z"/></svg>