<svg xmlns="http://www.w3.org/2000/svg" viewBox="0 0 64 64" enable-background="new 0 0 64 64"><path fill="#42ade2" d="m0 48h64v16h-64z"/><g fill="#3e4347"><path d="m31.5 2h1v10h-1z"/><path d="m57 59h-40.998l-2-2c0 0 16.666-3.166 43 2"/></g><path fill="#89664c" d="m33 47c0 .551-.449 1-1 1-.549 0-1-.449-1-1v-38c0-.55.451-1 1-1 .551 0 1 .45 1 1v38"/><path fill="#dae3ea" d="m54 52c0 0-4.6-1.557-10-3-3.404-.91-7.682-1.727-9.572-2.236-.529-.145-1.307-.555-1.725-.912l-1.408-1.203c-.42-.356-1.211-.649-1.762-.649h-8.094c-.549 0-1.318.318-1.709.705l-1.188 1.184c-.389.389-1.158.705-1.709.705h-4.833c-.549 0-.893.438-.76.971l1.959 7.965c.131.533.689.971 1.238.971h39.563l1-2.5-1-2"/><path fill="#c5d0d8" d="m7 46.5c0 0 1.834 4.5 7 10.5 0 0 29.578 2 43 2l-2-5c0 0-23-7.5-48-7.5"/><g fill="#3e4347"><path d="m29.5 46.5c0 .275-.225.5-.5.5h-1c-.275 0-.5-.225-.5-.5v-1c0-.275.225-.5.5-.5h1c.275 0 .5.225.5.5v1"/><path d="m25.5 46.5c0 .275-.225.5-.5.5h-3c-.275 0-.5-.225-.5-.5v-1c0-.275.225-.5.5-.5h3c.275 0 .5.225.5.5v1"/></g><path fill="#89664c" d="m11.963 41.34c-.604.521-1.391 1.234-2.139 1.986-.752.748-1.465 1.535-1.986 2.139-.52.605-.838 1.037-.838 1.037s.432-.318 1.037-.838 1.393-1.232 2.141-1.984c.752-.748 1.463-1.537 1.984-2.141.52-.605.838-1.037.838-1.037s-.432.318-1.037.838"/><path fill="#f9f3d9" d="M31,9c0,0-14,21.75-21,34.5c0,0,9.539-2.496,21-2.496V9z"/><path fill="#ff9d27" d="m33 9v32l14 3z"/><g fill="#f15744"><path d="m42.777 54h-1.777c0-2.205 1.795-4 4-4v1.777c-1.225 0-2.223.998-2.223 2.223"/><path d="m45 58v-1.777c1.227 0 2.223-.998 2.223-2.223h1.777c0 2.205-1.793 4-4 4"/></g><g fill="#fff"><path d="m45 58c-2.205 0-4-1.795-4-4h1.777c0 1.225.998 2.223 2.223 2.223v1.777"/><path d="m49 54h-1.777c0-1.225-.996-2.223-2.223-2.223v-1.777c2.207 0 4 1.795 4 4"/></g><g fill="#f15744"><path d="m32.5 3c0 1.313 0 2.625 0 3.938 2.668.525 5.334-2.494 8-1.969-2.666-1.838-5.332-.131-8-1.969"/><path d="m21.14 24.672c-.527.857-1.064 1.73-1.602 2.608 3.555.442 7.885 1.454 11.461 3.72v-3c0 0-3.107-2.189-9.859-3.328"/></g><path fill="#ffce31" d="m16.674 32c11.185 0 14.326 3 14.326 3v-4c-3.576-2.266-7.906-3.278-11.461-3.72-1.076 1.759-1.803 2.947-2.865 4.72"/><g fill="#fff"><path d="m44.5 49h1v1h-1z"/><path d="m44.5 58h1v1h-1z"/><path d="m49 53.5h1v1h-1z"/><path d="m40 53.5h1v1h-1z"/></g><g fill="#89664c"><path d="m40.75 53.51l-.5-.02c.004-.082.088-2.039 1.195-3.148 1.158-1.158 2.99-1.09 3.066-1.092l-.021.5c-.012-.004-1.688-.057-2.691.945-.967.969-1.047 2.795-1.049 2.815"/><path d="m49.25 53.51c0-.02-.08-1.846-1.049-2.814-1-1-2.68-.949-2.689-.945l-.021-.5c.074.002 1.906-.066 3.064 1.092 1.109 1.109 1.193 3.066 1.195 3.148l-.5.019"/><path d="m44.42 58.75c-.398 0-1.947-.068-2.971-1.092-1.107-1.109-1.191-3.066-1.195-3.15l.5-.018c.002.018.082 1.846 1.049 2.814 1 1 2.68.951 2.691.945l.021.5c-.009.001-.042.001-.095.001"/><path d="m45.584 58.75c-.053 0-.086 0-.094 0l.021-.5c.01.006 1.688.057 2.689-.945.969-.969 1.049-2.797 1.049-2.814l.5.018c-.002.084-.086 2.041-1.195 3.15-1.023 1.023-2.57 1.091-2.97 1.091"/></g><circle fill="#3e4347" cx="13" cy="50" r="1.5"/></svg>