<svg xmlns="http://www.w3.org/2000/svg" viewBox="0 0 24 24">
    <g>
        <path fill="none" d="M0 0h24v24H0z"/>
        <path fill-rule="nonzero" d="M14.935 7.204l-6-3L4 6.319v12.648l5.065-2.17 6 3L20 17.68V5.033l-5.065 2.17zM2 5l7-3 6 3 6.303-2.701a.5.5 0 0 1 .697.46V19l-7 3-6-3-6.303 2.701a.5.5 0 0 1-.697-.46V5zm4 6h2v2H6v-2zm4 0h2v2h-2v-2zm5.998-.063L17.236 9.7l1.06 1.06-1.237 1.238 1.237 1.238-1.06 1.06-1.238-1.237-1.237 1.237-1.061-1.06 1.237-1.238-1.237-1.237L14.76 9.7l1.238 1.237z"/>
    </g>
</svg>
