<?xml version="1.0" encoding="UTF-8"?>
<svg width="411px" height="128px" viewBox="0 0 411 128" version="1.1" xmlns="http://www.w3.org/2000/svg" xmlns:xlink="http://www.w3.org/1999/xlink">
    <!-- Generator: Sketch 46.2 (44496) - http://www.bohemiancoding.com/sketch -->
    <title>Bamboo-white</title>
    <desc>Created with Sketch.</desc>
    <defs>
        <linearGradient x1="50.015868%" y1="-98.2986767%" x2="50.015868%" y2="38.2167612%" id="linearGradient-1">
            <stop stop-color="#FFFFFF" stop-opacity="0.4" offset="0%"></stop>
            <stop stop-color="#FFFFFF" offset="100%"></stop>
        </linearGradient>
        <linearGradient x1="68.5976148%" y1="0%" x2="68.5976148%" y2="97.6004464%" id="linearGradient-2">
            <stop stop-color="#FFFFFF" stop-opacity="0.4" offset="0%"></stop>
            <stop stop-color="#FFFFFF" offset="100%"></stop>
        </linearGradient>
    </defs>
    <g id="Page-1" stroke="none" stroke-width="1" fill="none" fill-rule="evenodd">
        <g id="Bamboo-white" fill-rule="nonzero">
            <g transform="translate(0.000000, 24.389999)" id="Shape">
                <path d="M61.6,41.86 L46.14,41.86 C45.1751885,41.8737584 44.3704645,42.6014343 44.26,43.56 C43.3920348,49.7699361 38.0803006,54.3905049 31.81,54.39 L35.95,73.3 C50.9665412,71.33641 62.5166592,59.0583962 63.56,43.95 C63.5843757,43.4110277 63.3899637,42.8850689 63.020899,42.4915253 C62.6518343,42.0979818 62.139426,41.8702395 61.6,41.86 L61.6,41.86 Z" fill="#FFFFFF"></path>
                <path d="M35,41.43 L57.13,22.43 C57.5605009,22.0503339 57.8071243,21.5040012 57.8071243,20.93 C57.8071243,20.3559988 57.5605009,19.8096661 57.13,19.43 L35,0.47 C34.4041249,0.0280343924 33.6125596,-0.0477744442 32.9436306,0.273059863 C32.2747015,0.593894171 31.8383293,1.25865111 31.81,2 L31.81,40 C31.8724195,40.7233607 32.321957,41.356081 32.9844834,41.6530755 C33.6470097,41.9500701 34.4184555,41.8646872 35,41.43 Z" fill="#FFFFFF"></path>
                <path d="M0.3,46 C2.40874607,61.7931681 15.8766744,73.5898936 31.81,73.6 L31.81,54.39 C24.8850024,54.3900198 19.2665406,48.7849778 19.25,41.86 L0.3,46 Z" fill="url(#linearGradient-1)"></path>
                <path d="M-2.33146835e-17,41.55 L-2.33146835e-17,41.85 L19.25,41.85 C19.2720417,34.9289296 24.8888945,29.3299649 31.81,29.33 L27.68,10.42 C11.9929503,12.4640476 0.195825041,25.7315516 -3.55271368e-15,41.55" fill="url(#linearGradient-2)"></path>
                <path d="M117.53,7.9 C129.32,7.9 135,13.71 135,23 C135,30 131.83,34.26 125.32,35.85 C133.86,37.26 138.08,41.92 138.08,50.1 C138.08,59.34 131.83,65.68 118.9,65.68 L95.09,65.68 L95.09,7.9 L117.53,7.9 Z M103,15.47 L103,32.72 L116.46,32.72 C123.94,32.72 127.02,29.29 127.02,23.72 C127.02,18.15 123.68,15.45 116.46,15.45 L103,15.47 Z M103,39.76 L103,57.76 L119.2,57.76 C126.77,57.76 130.2,55.03 130.2,49.22 C130.2,43.06 126.94,39.72 119.03,39.72 L103,39.76 Z" fill="#FFFFFF"></path>
                <path d="M177,57.8 C174.18,63.61 168.9,66.6 162.13,66.6 C150.43,66.6 144.53,56.66 144.53,43.72 C144.53,31.31 150.69,20.84 163.01,20.84 C169.43,20.84 174.36,23.74 177.01,29.46 L177.01,21.72 L184.58,21.72 L184.58,65.72 L177,65.72 L177,57.8 Z M164.15,59.56 C170.93,59.56 177,55.25 177,45.48 L177,42 C177,32.23 171.46,27.92 165,27.92 C156.46,27.92 152.06,33.55 152.06,43.76 C152.11,54.28 156.34,59.56 164.17,59.56 L164.15,59.56 Z" fill="#FFFFFF"></path>
                <path d="M233.43,65.72 L225.86,65.72 L225.86,39.14 C225.86,31.22 222.69,27.7 215.48,27.7 C208.48,27.7 203.6,32.36 203.6,41.25 L203.6,65.72 L196,65.72 L196,21.72 L203.57,21.72 L203.57,28.94 C206.316107,23.8454163 211.683733,20.7175195 217.47,20.84 C224.95,20.84 230.05,24.62 232.25,31.58 C234.71,24.8 240.61,20.84 247.91,20.84 C257.77,20.84 263.22,27.53 263.22,39.94 L263.22,65.72 L255.65,65.72 L255.65,41.25 C255.65,32.19 252.48,27.7 245.27,27.7 C238.27,27.7 233.39,32.36 233.39,41.25 L233.43,65.72 Z" fill="#FFFFFF"></path>
                <path d="M295.38,66.6 C288.96,66.6 284.03,63.7 281.38,57.98 L281.38,65.72 L273.81,65.72 L273.81,3.33 L281.38,3.33 L281.38,29.64 C284.2,23.83 289.48,20.84 296.25,20.84 C307.95,20.84 313.85,30.78 313.85,43.72 C313.86,56.13 307.7,66.6 295.38,66.6 Z M294.24,27.88 C287.46,27.88 281.39,32.19 281.39,41.96 L281.39,45.48 C281.39,55.25 286.93,59.56 293.39,59.56 C301.93,59.56 306.33,53.93 306.33,43.72 C306.29,33.16 302.06,27.88 294.23,27.88 L294.24,27.88 Z" fill="#FFFFFF"></path>
                <path d="M320,43.63 C320,30.43 327.74,20.84 340.94,20.84 C354.14,20.84 361.71,30.43 361.71,43.63 C361.71,56.83 354.05,66.63 340.94,66.63 C327.83,66.63 320,56.83 320,43.63 Z M327.39,43.63 C327.39,51.99 331.53,59.56 340.94,59.56 C350.35,59.56 354.34,52 354.34,43.63 C354.34,35.26 350.34,27.88 340.97,27.88 C331.6,27.88 327.41,35.27 327.41,43.63 L327.39,43.63 Z" fill="#FFFFFF"></path>
                <path d="M367.89,43.63 C367.89,30.43 375.63,20.84 388.83,20.84 C402.03,20.84 409.6,30.43 409.6,43.63 C409.6,56.83 401.94,66.63 388.83,66.63 C375.72,66.63 367.89,56.83 367.89,43.63 Z M375.28,43.63 C375.28,51.99 379.42,59.56 388.83,59.56 C398.24,59.56 402.21,52 402.21,43.63 C402.21,35.26 398.21,27.88 388.84,27.88 C379.47,27.88 375.28,35.27 375.28,43.63 Z" fill="#FFFFFF"></path>
            </g>
        </g>
    </g>
</svg>