<svg xmlns="http://www.w3.org/2000/svg" x="0px" y="0px"
	 width="100px" height="100px" viewBox="0 0 100 100" enable-background="new 0 0 100 100" xml:space="preserve">
<g>
	<path fill="#FFFFFF" d="M59,22c-3-2-13.8-3.9-18,3c-2,3.3,0.4,9.1,2.2,12.8c0.5,0.9,1.5,1.4,2.5,1C47,38.3,48.5,38,50,38
		c1,0,2,0.1,3,0.4c0.9,0.2,1.8-0.2,2.2-1c0.7-1.3,1.899-2.8,3.8-4.4C64,29,62,24,59,22z"/>
	<path fill="#FFFFFF" d="M53.8,61.4C52.6,61.8,51.3,62,50,62c-1.2,0-2.4-0.2-3.5-0.5c-0.9-0.3-1.9,0.2-2.3,1
		c-0.7,1.3-1.9,2.9-3.9,4.5c-5,4-3,9.1,0,11.1s13.9,3.9,18-3c1.9-3.199-0.3-9-2.1-12.699C55.7,61.5,54.7,61.1,53.8,61.4z"/>
	<path fill="#FFFFFF" d="M75,41c-3.3-2-9.1,0.4-12.8,2.2c-0.9,0.5-1.4,1.5-1,2.5C61.7,47,62,48.5,62,50c0,1-0.1,2-0.4,3
		c-0.199,0.9,0.2,1.8,1,2.2C63.9,55.9,65.4,57.1,67,59c4,5,9,3,11,0S81.9,45.1,75,41z"/>
	<path fill="#FFFFFF" d="M38.6,53.8C38.2,52.6,38,51.3,38,50c0-1.2,0.2-2.4,0.5-3.5c0.3-0.9-0.2-1.9-1-2.3c-1.3-0.7-2.9-1.9-4.5-3.9
		c-4-5-9.1-3-11.1,0s-3.9,13.8,3,18c3.2,1.9,9-0.3,12.7-2.1C38.5,55.7,38.9,54.7,38.6,53.8z"/>
	<circle fill="#FFFFFF" cx="50" cy="50" r="6"/>
</g>
</svg>
