<svg xmlns="http://www.w3.org/2000/svg" width="240" height="117" viewBox="0 0 240 117">
  <g fill="none" fill-rule="evenodd" transform="translate(-29 -7)">
    <g transform="translate(42.5 97)">
      <polyline stroke="#C2E8FF" stroke-linecap="round" stroke-linejoin="round" stroke-width="3" points="167.75 18 190 0 207.5 13.5" transform="matrix(-1 0 0 1 375.25 0)"/>
      <path stroke="#C2E8FF" stroke-linecap="round" stroke-linejoin="round" stroke-width="3" d="M185.25.5L185.25 17.5M167.75 5.5C167.75 10.3718944 167.75 12.8718944 167.75 13 167.75 12.8718944 167.75 10.3718944 167.75 5.5z"/>
      <polyline stroke="#C2E8FF" stroke-linecap="round" stroke-linejoin="round" stroke-width="3" points="151.5 9 156.75 4.5 173 18" transform="matrix(-1 0 0 1 324.5 0)"/>
      <path stroke="#C2E8FF" stroke-linecap="round" stroke-width="3" d="M0,18.5 L225,18.5"/>
      <path fill="#C2E8FF" d="M203.54276,6.39237488 L206.5,16.3730597 L200.247914,11.9224278 L201.613561,6.43496287 L201.613561,6.43496287 C201.746938,5.89902534 202.289525,5.57268552 202.825462,5.70606247 C203.169253,5.79162062 203.442114,6.05269424 203.54276,6.39237488 Z"/>
      <path fill="#C2E8FF" d="M156.462964,7.43915721 L159,16.5 L153.385109,11.5531821 L154.537036,7.43915721 L154.537036,7.43915721 C154.685948,6.90732687 155.2378,6.59691062 155.76963,6.74582312 C156.105963,6.83999625 156.368791,7.10282459 156.462964,7.43915721 Z" transform="matrix(-1 0 0 1 312.385 0)"/>
    </g>
    <g fill="#C2E8FF" fill-rule="nonzero" transform="translate(29 86)">
      <path d="M11.2581158 11.747284C11.3650252 11.0128331 11.3027406 10.1336767 10.9700085 9.08580216 10.9700085 9.08580216 10.9507303 9.02744027 10.9087051 8.92879578 12.2394903 5.51083411 9.85921106 6.6094338 9.14727223 6.99597765 9.02723507 6.93654187 8.90024097 6.88299502 8.76599993 6.83684859 8.76599993 6.83684859 7.33241741 6.12698441 5.82588609 6.15411285 5.27637283 5.33997493 3.85959958 3.62806728 3.53773461 7.05366982 2.03017893 8.42004685 1.07127066 10.3707559 2.28840672 12.5863397 2.03306493 12.4923445 1.73092748 12.4529074 1.44872149 12.5968798.778654755 12.9384662.519981229 13.4846048.758925418 14.2001382.958530914 14.7918217 1.9211667 15.5257305 2.95479519 15.7453843 2.97339232 15.760356 2.99375321 15.7732046 3.01594871 15.7837415 3.21048896 15.8760798 3.50975368 15.9561852 3.80065499 16.0895627 3.87592452 16.1241466 3.93039108 16.197123 3.94592991 16.2842076 3.96146874 16.3712923 3.9360407 16.4610573 3.87810747 16.5236316 3.36903018 17.0658231 2.42287367 17.439517 1.72325602 17.5914411.868006171 17.7769069-.131239826 17.7769069.0142108287 18.7298854.209478332 20.0005234 1.99015797 20.4503766 2.64868581 20.503254 3.30721365 20.5561315 3.30721365 19.97369 3.55120712 19.8150576 3.79520059 19.6564251 4.96680562 19.5775035 5.67333217 19.7621801 6.37985872 19.9468567 7.79582085 20.8757641 8.16162924 21.9593578 8.52743764 23.0429516 9.25941806 24.285967 10.0397608 23.9414742 10.8201036 23.5969813 11.0706423 21.8196666 10.9910081 21.2147324 10.9059921 20.5700142 10.4313493 20.4381104 10.1340582 20.0964458 10.1350935 20.0811366 10.1394002 20.066803 10.1474126 20.0536448 10.2747675 19.8445002 10.9024455 20.5404671 12.4569036 19.6967993 12.4569036 19.6967993 11.6862242 19.631417 11.7091481 19.4136073 11.732072 19.1957976 12.195644 19.5132562 12.9597737 18.9232401 13.900381 18.1981269 14.7492927 18.9736554 15 19.2651186 15 19.2651186 14.8326192 16.9696488 12.7738355 16.3942059 12.4150584 16.2937693 12.628287 16.2122383 13.0649325 16.1551273 13.0649325 16.1551273 11.7793753 15.5560522 9.91235175 16.6210746 9.90435324 16.6256372 9.89639878 16.6302232 9.88848811 16.6348322 9.8927896 16.566735 9.8976334 16.5087271 9.9030372 16.462862 9.91196918 16.3872512 9.95053968 16.3195037 10.0088526 16.2770016 10.5648949 15.8675825 11.2272219 15.4353262 11.6634681 15.1276804 11.7978356 15.1465434 11.9284467 15.1389856 12.0441075 15.0953656 13.2324868 14.6459441 13.8220845 13.7785207 13.8753504 13.027231 13.9322897 12.2262266 13.5237958 11.7521465 12.7464819 11.6137406 12.26562 11.5262426 11.8442688 11.858735 11.593001 12.1228198 11.5504125 12.1679523 11.4880238 12.1833704 11.4315653 12.1627153 11.3751068 12.1420602 11.3341435 12.0888311 11.3255697 12.0249812 11.3120155 11.9307834 11.2908858 11.8329022 11.2581158 11.747284zM36.3191719 23.2999581C34.4097169 23.5438355 30.2222101 22.5968404 27.2833914 24.6137623 25.7628344 25.6568779 26.9074012 28.3273311 26.9074012 28.3273311 26.343702 27.9899092 26.2687329 27.7366821 26.2687329 27.7366821 26.2687329 27.7366821 26.454342 28.1046452 26.5783686 28.4967041 26.5730953 28.4464628 26.565748 28.4160249 26.565748 28.4160249 26.565748 28.4160249 27.242187 29.0490926 26.4907789 30.1886145 25.7393707 31.3281364 25.5888602 31.2015229 25.5138911 31.0749093 25.438922 30.9482958 25.3994344 30.1044197 25.2134423 30.1468384 25.0274502 30.1892572 24.8002537 30.7799062 24.574774 30.7374874 24.3492943 30.6950687 24.2743252 28.8408551 24.4242635 28.1627978 24.4242635 28.1627978 24.4461673 28.1961768 24.4848676 28.2518237 24.522853 27.761416 24.6531768 27.2631784 24.6531768 26.639579 24.6531768 25.7532842 24.2405605 25.0334508 23.9395394 24.1497268 23.6385184 23.2660029 23.1503606 20.5216382 23.4508094 18.7509767 23.7512582 16.9803152 23.5257785 14.7019141 23.5257785 14.7019141 23.375268 14.9551412 22.8493395 15.1659495 22.8493395 15.1659495 22.9992778 15.039336 23.1497883 14.3850589 23.1497883 14.3850589 22.5300054 14.8940839 22.0790461 14.7012714 22.0790461 14.7012714 22.3606095 14.5116724 22.5860892 13.7519912 22.5860892 13.7519912 22.1912136 14.1961026 21.2332112 14.1318318 21.2332112 14.1318318L21.6275145 13.7519912C21.27129 13.6186374 20.8369808 13.3273634 20.5056186 13.0814787 19.7976859 12.7032743 19.1336617 11.8622812 19.2754297 11.5809224 19.4253679 11.2833484 19.9123811 11.6226984 19.9890671 11.4118901 20.065753 11.2010817 19.8780441 10.6522088 20.1035237 10.6522088 20.3290034 10.6522088 21.3436619 11.4523807 21.3436619 11.4523807 21.3394412 11.452831 21.3352452 11.4533248 21.3310738 11.4538615 21.8695546 11.7370388 22.4855337 11.8006502 23.0696686 11.621413 23.2985246 11.554468 23.4893746 11.4416458 23.6485065 11.3011971 23.5425018 10.7160052 23.6011305 10.2379744 23.5561095 9.89188484 23.4347855 9.80704734 23.0330425 10.1001223 21.8747409 9.81411713 20.7164393 9.52811191 20.3364431 7.73302749 20.857221 6.84159101 21.3779989 5.95015453 21.9634448 4.59918158 22.1065157 4.11200866 22.2495865 3.62483573 22.5683484 2.67619821 23.4004485 2.15817528 23.6836777 1.98174668 23.9613185 1.85795963 24.225944 1.77289045 24.1090254.303084884 22.7538395.854861877 22.4681988.746787742 22.2158218.651024198 22.5094032.4048669 22.7280155.329670024 22.9975609.234549188 24.0648695-.332962284 24.8569097.363090858 25.1406143.612248591 25.3519827 1.0954339 25.4398029 1.60677224 25.7456153 1.61761835 25.9896886 1.66369634 26.1445474 1.69349714 26.5756764 1.776559 26.9291831 1.91159429 27.2265646 2.08572136 27.6911614 1.56994541 28.7582549 1.07926531 29.5273146 1.27380859 31.0415765 1.6594336 30.5734487 2.62349612 32.5735792 4.02845657 32.6880359 4.10879511 32.6771625 4.38580241 32.4247855 4.29646595 30.1171618 3.47916927 30.2231608 1.25321714 28.317054 3.18352443 28.3921116 3.31164669 28.468024 3.46999075 28.5481285 3.64748647L28.5550051 3.63383364C28.5550051 3.63383364 31.3694949 5.27402535 30.6112194 6.286291 30.3126444 6.6847662 29.4105852 6.4073731 28.6864297 5.96122272 28.5825063 6.47191043 28.4521219 6.95726711 28.299284 7.39135618 28.3332028 8.0526678 28.3707661 8.69193675 28.4491327 8.99980565 28.5996432 9.59109733 30.2787227 11.0050557 31.4175667 10.7723953 32.1078929 10.6313055 32.7751236 10.5033841 33.2306936 10.4177562 33.5562412 10.2802717 33.8440295 10.2222263 33.9310354 10.2710828 34.1559428 10.3951255 33.5556175 11.2852765 33.5556175 11.2852765 33.5556175 11.2852765 34.8232253 10.8315244 34.3819948 11.5385036 33.617462 12.7664025 32.941261 12.8353775 32.5373431 12.6988831 31.6618237 13.0465119 30.4017637 13.2204714 30.4017637 13.2204714 30.4395344 13.5154745 31.3786514 13.9377339 31.3786514 13.9377339 30.9276921 13.9795099 30.2140547 13.8953151 30.2140547 13.8953151 30.2140547 13.8953151 33.7461879 20.0563174 34.6103359 20.5627716 35.2872614 20.9594997 36.2869117 21.0194236 36.6882966 21.0267671 37.4785432 20.8274289 38.5950213 20.8848977 38.6649638 21.1996955 38.7399329 21.5371174 38.1012646 21.7909872 38.1012646 21.9593768 38.1012646 22.1277664 39.0031833 22.1721133 38.5899947 22.6766393 38.1768061 23.1811654 36.2979996 23.309707 36.2979996 23.309707 36.3051012 23.3064574 36.3121585 23.3032078 36.3191719 23.2999581z"/>
    </g>
    <g stroke="#C2E8FF" stroke-linecap="round" stroke-width="3" transform="translate(42 49.749)">
      <path d="M22,8.79146919 L31.5,8.79146919 C31.1394857,6.06480614 32.0407715,3.78378292 34.2038574,1.94839955 C36.6877441,-0.0982417247 39.6367188,0.360587604 41.220459,1.06679965 C42.8041992,1.7730117 43.9803467,2.74328671 44.7956543,4.5741966 C45.1411133,5.34508018 45.3758952,5.99728321 45.5,6.53080569"/>
      <path d="M41.5 10.2985782C42.0279134 8.46301559 43.1113688 7.26289664 44.7503662 6.69822136 47.2088623 5.85120844 49.5400391 6.97920986 50.4711914 8.11420227 51.4023438 9.24919468 51.6975098 10.1609662 51.873291 11.1124759 51.9904785 11.7468158 52.0327148 12.4802559 52 13.3127962L54.081543 13.3127962C56.0183919 13.8295019 56.9937337 14.9811653 57.0075684 16.7677864 57.0322678 19.9575033 54.6954577 20.7511848 53.5 20.7511848L14 20.7511848M9 14.7511848L41.5002493 14.7511848M0 14.7511848L4 14.7511848"/>
    </g>
    <g stroke="#C2E8FF" stroke-linecap="round" stroke-width="3" transform="translate(138 8.749)">
      <path d="M22,8.79146919 L31.5,8.79146919 C31.1394857,6.06480614 32.0407715,3.78378292 34.2038574,1.94839955 C36.6877441,-0.0982417247 39.6367188,0.360587604 41.220459,1.06679965 C42.8041992,1.7730117 43.9803467,2.74328671 44.7956543,4.5741966 C45.1411133,5.34508018 45.3758952,5.99728321 45.5,6.53080569"/>
      <path d="M41.5 10.2985782C42.0279134 8.46301559 43.1113688 7.26289664 44.7503662 6.69822136 47.2088623 5.85120844 49.5400391 6.97920986 50.4711914 8.11420227 51.4023438 9.24919468 51.6975098 10.1609662 51.873291 11.1124759 51.9904785 11.7468158 52.0327148 12.4802559 52 13.3127962L54.081543 13.3127962C56.0183919 13.8295019 56.9937337 14.9811653 57.0075684 16.7677864 57.0322678 19.9575033 54.6954577 20.7511848 53.5 20.7511848L14 20.7511848M9 14.7511848L41.5002493 14.7511848M0 14.7511848L4 14.7511848"/>
    </g>
    <g transform="translate(57.5 74.5)">
      <g fill="#C2E8FF" transform="matrix(-1 0 0 1 92 0)">
        <path d="M12.5 26.5C12.5 27.88 11.380625 29 10 29 8.62 29 7.5 27.88 7.5 26.5 7.5 25.12 8.62 24 10 24 11.380625 24 12.5 25.12 12.5 26.5zM4 29C3.17065107 29 2.5 29.672177 2.5 30.5 2.5 31.327823 3.17065107 32 4 32 4.82858596 32 5.5 31.327823 5.5 30.5 5.5 29.672177 4.82858596 29 4 29M21.6466208 0C17.6428288 0 14.1564024 2.20293261 12.3191478 5.45923019 11.044487 4.5561143 9.49073547 4.01943322 7.81067618 4.01943322 3.49580295 4.01943322 0 7.51839929 0 11.8345474 0 16.151236 3.49580295 19.6502021 7.81067618 19.6502021 7.90389024 19.6502021 7.99600117 19.6388523 8.09031835 19.6356095 9.5006636 21.667215 11.8459072 23 14.5055415 23 16.3924367 23 18.1237913 22.3298242 19.4734647 21.2148463 20.1756037 21.3596908 20.902563 21.4369772 21.6466208 21.4369772 27.563783 21.4369772 32 16.7284519 32 10.8092866 32 4.88958079 27.563783 0 21.6466208 0z"/>
      </g>
      <g transform="translate(0 9)">
        <path fill="#8CD3F8" d="M45.2528776,24.5269019 C45.2528776,24.5269019 58.1077416,27.0350986 72.7165011,27.0350986 C87.3252607,27.0350986 102.252878,24.5269019 102.252878,24.5269019 C102.252878,24.5269019 96.1114309,28.3189331 92.9525278,29.5129226 C89.7936248,30.7069121 83.3186359,31.6835905 83.3186359,31.6835905 C83.3186359,31.6835905 76.9326354,33.3993681 73.7528776,33.4687212 C70.5731199,33.5380742 66.2710902,32.0554111 66.2710902,32.0554111 L53.3933358,29.5129226 L45.2528776,24.5269019 Z"/>
        <path stroke="#8CD3F8" stroke-linecap="round" stroke-linejoin="round" stroke-width="4" d="M42.4099133,19.6684202 C42.4099133,19.6684202 49.7228756,33.2126825 73.9579787,33.2126825 C98.1930819,33.2126825 107.409913,19.6684202 107.409913,19.6684202"/>
        <path stroke="#8CD3F8" stroke-linecap="round" stroke-width="3" d="M35.5 22.75L43 22.75M106.5 22.75L114 22.75"/>
        <path fill="#8CD3F8" d="M72.4728686,0 L77.7793812,0 L77.7793812,3.33066907e-16 C78.2188934,2.52329817e-16 78.5751885,0.356295075 78.5751885,0.795807325 L78.5751885,1.39099629 L78.5751885,1.39099629 C78.5751885,1.519753 78.5255179,1.64354665 78.4365217,1.73659479 L74.1173783,6.25238383 L78.4993529,6.25238383 L78.4993529,6.25238383 C78.971866,6.25238383 79.3549136,6.63543143 79.3549136,7.1079446 L79.3549136,7.1079446 L79.3549136,7.1079446 C79.3549136,7.58045777 78.971866,7.96350538 78.4993529,7.96350538 L72.0199969,7.96350538 L72.0199969,7.96350538 C71.5639842,7.96350538 71.1943129,7.59383404 71.1943129,7.13782133 L71.1943129,6.51268831 L71.1943129,6.51268831 C71.1943129,6.38397171 71.2439526,6.26021344 71.3328995,6.16717364 L75.603315,1.70025729 L72.4728686,1.70025729 L72.4728686,1.70025729 C72.0033555,1.70025729 71.6227399,1.31964173 71.6227399,0.850128644 L71.6227399,0.850128644 L71.6227399,0.850128644 C71.6227399,0.380615558 72.0033555,-1.3579645e-16 72.4728686,-2.22044605e-16 Z"/>
        <path stroke="#8CD3F8" stroke-linecap="round" stroke-width="3" d="M10 39L195 39M0 39L6 39"/>
      </g>
    </g>
    <g transform="translate(86.75 50.5)">
      <path fill="#C2E8FF" d="M10.6009586,6.72613904 L16.2564092,41.0603851 L16.2564092,41.0603851 C16.4359321,42.1502683 15.6979392,43.1793252 14.608056,43.358848 C14.500609,43.3765464 14.391896,43.3854399 14.2830012,43.3854399 L2.26516396,43.3854399 L2.26516396,43.3854399 C1.16059446,43.3854399 0.26516396,42.4900094 0.26516396,41.3854399 C0.26516396,41.2632018 0.276370525,41.1412211 0.298642961,41.0210292 L6.66102953,6.68678315 L6.66102953,6.68678315 C6.862288,5.60070359 7.90588167,4.88341438 8.99196123,5.08467286 C9.82054708,5.23821587 10.463998,5.89465136 10.6009586,6.72613904 Z" transform="translate(0 3.5)"/>
      <g stroke="#8CD3F8" stroke-linecap="round" stroke-width="3">
        <polygon stroke-linejoin="round" points="8.75 .355 18 47 0 47"/>
        <path d="M8.75,4.04724702 C8.75,48.0499751 8.75,70.5183531 8.75,71.452381 C8.75,70.5183531 8.75,48.0499751 8.75,4.04724702 Z"/>
        <path stroke-linejoin="round" d="M9.5,32.1167002 L14,37.0690812 L9.5,32.1167002 Z" transform="matrix(-1 0 0 1 23.5 0)"/>
        <path stroke-linejoin="round" d="M5,26.1167002 C7.33333333,28.8599384 8.5,30.3440653 8.5,30.5690812 C8.5,30.3440653 7.33333333,28.8599384 5,26.1167002 Z"/>
      </g>
    </g>
    <g transform="translate(154.75 41.5)">
      <path fill="#C2E8FF" d="M14.762016,0.334960938 L27.5211097,52.9170557 L27.5211097,52.9170557 C27.7815761,53.990476 27.1225468,55.0718048 26.0491265,55.3322712 C25.8947196,55.3697382 25.736398,55.3886719 25.5775104,55.3886719 L2.50721742,55.3886719 L2.50721742,55.3886719 C1.40264792,55.3886719 0.507217421,54.4932414 0.507217421,53.3886719 C0.507217421,53.2125861 0.530471637,53.0372714 0.576376964,52.8672746 L14.762016,0.334960938 Z" transform="translate(0 1)"/>
      <g stroke="#8CD3F8" stroke-linecap="round" stroke-width="3">
        <polygon stroke-linejoin="round" points="14.75 0 29.286 56 0 56"/>
        <path d="M14.75,3.04724702 C14.75,53.7166417 14.75,79.5183531 14.75,80.452381 C14.75,79.5183531 14.75,53.7166417 14.75,3.04724702 Z"/>
        <path stroke-linejoin="round" d="M15.5,37.1167002 L24.5,47.0690812 L15.5,37.1167002 Z" transform="matrix(-1 0 0 1 40 0)"/>
        <path stroke-linejoin="round" d="M7,30.6167002 C12,36.3599384 14.5,39.3440653 14.5,39.5690812 C14.5,39.3440653 12,36.3599384 7,30.6167002 Z"/>
        <path stroke-linejoin="round" d="M15.5,24.1167002 L21,31.0690812 L15.5,24.1167002 Z" transform="matrix(-1 0 0 1 36.5 0)"/>
      </g>
    </g>
    <g transform="translate(175.75 60)">
      <path fill="#C2E8FF" d="M10.6009586,6.72613904 L16.2564092,41.0603851 L16.2564092,41.0603851 C16.4359321,42.1502683 15.6979392,43.1793252 14.608056,43.358848 C14.500609,43.3765464 14.391896,43.3854399 14.2830012,43.3854399 L2.26516396,43.3854399 L2.26516396,43.3854399 C1.16059446,43.3854399 0.26516396,42.4900094 0.26516396,41.3854399 C0.26516396,41.2632018 0.276370525,41.1412211 0.298642961,41.0210292 L6.66102953,6.68678315 L6.66102953,6.68678315 C6.862288,5.60070359 7.90588167,4.88341438 8.99196123,5.08467286 C9.82054708,5.23821587 10.463998,5.89465136 10.6009586,6.72613904 Z" transform="translate(0 2)"/>
      <g stroke="#8CD3F8" stroke-linecap="round" stroke-width="3">
        <polygon stroke-linejoin="round" points="8.75 .355 18 45.5 0 45.5"/>
        <path d="M8.75,2.54724702 C8.75,41.5499751 8.75,61.5183531 8.75,62.452381 C8.75,61.5183531 8.75,41.5499751 8.75,2.54724702 Z"/>
        <path stroke-linejoin="round" d="M9.5,30.6167002 L15,36.5690812 L9.5,30.6167002 Z" transform="matrix(-1 0 0 1 24.5 0)"/>
      </g>
    </g>
    <g stroke="#C2E8FF" stroke-linecap="round" stroke-width="3" transform="rotate(-15 387.243 -707.937)">
      <path d="M15.5180353,1.71764295 C15.5180353,1.71764295 20.2901141,0.335946526 21.3244212,5.34543313" transform="rotate(41 18.421 3.444)"/>
      <path d="M20.2141001,5.08986883 C20.2141001,5.08986883 24.9861789,3.7081724 26.020486,8.71765901" transform="scale(-1 1) rotate(-41 0 68.646)"/>
      <path d="M0.365142392,14.7932757 C0.365142392,14.7932757 5.1372212,13.4115793 6.17152826,18.4210659"/>
      <path d="M6.36514239,14.7932757 C6.36514239,14.7932757 11.1372212,13.4115793 12.1715283,18.4210659" transform="matrix(-1 0 0 1 18.537 0)"/>
    </g>
  </g>
</svg>
