<svg xmlns="http://www.w3.org/2000/svg" width="240" height="126" viewBox="0 0 240 126">
  <g fill="none" fill-rule="evenodd" transform="translate(-24 -3)">
    <rect width="300" height="130" fill="none"/>
    <g transform="matrix(-1 0 0 1 198.25 54.5)">
      <polyline stroke="#C2E8FF" stroke-linecap="round" stroke-linejoin="round" stroke-width="3" points=".25 48.5 48.75 0 83.75 34.5"/>
      <polyline stroke="#C2E8FF" stroke-linecap="round" stroke-linejoin="round" stroke-width="3" points="72.75 23 83.75 12.5 120.75 49.5"/>
      <path fill="#C2E8FF" d="M10.7556657,28.2319794 L14.2715764,40.8581779 L7.24077604,34.6472002 L8.82160689,28.2599845 L8.82160689,28.2599845 C8.95429341,27.7238757 9.49645921,27.3968372 10.0325681,27.5295238 C10.3826295,27.6161637 10.6589265,27.8845733 10.7556657,28.2319794 Z" transform="matrix(-1 0 0 1 21.512 0)"/>
      <path fill="#C2E8FF" d="M111.855519,33.9531312 L113.485348,39.8061099 L109.120232,37.2184294 L109.92146,33.9811363 L109.92146,33.9811363 C110.054146,33.4450274 110.596312,33.117989 111.132421,33.2506755 C111.482483,33.3373154 111.75878,33.6057251 111.855519,33.9531312 Z"/>
      <polyline stroke="#C2E8FF" stroke-linecap="round" stroke-linejoin="round" stroke-width="3" points="60.209 12 52.975 12 45.822 19.09 41.173 14.441 36.845 18.769 34.303 16.227"/>
    </g>
    <g transform="translate(114 92.25)">
      <path fill="#C2E8FF" d="M70.4810694,13.2322243 C69.1128675,10.0071547 65.9723882,7.7514553 62.316946,7.7514553 C61.3098316,7.7514553 60.3418061,7.92267707 59.4391638,8.23821958 C57.7257405,5.58521329 54.783703,3.83492723 51.4418946,3.83492723 C48.2456337,3.83492723 45.4150793,5.43607116 43.6754255,7.89678339 C42.9794978,7.4840805 42.1711578,7.24781705 41.3088803,7.24781705 C40.5541571,7.24781705 39.8407551,7.42881672 39.2078836,7.75070193 C37.4987664,3.29361107 33.2549152,0.137629938 28.2902279,0.137629938 C23.7316418,0.137629938 19.7807891,2.79842183 17.8418652,6.68409115 C16.6956017,6.13348651 15.4157432,5.82577963 14.0656371,5.82577963 C9.71867522,5.82577963 6.09994221,9.01564989 5.32381071,13.2322245 L70.4810708,13.2322245 L70.4810694,13.2322243 Z"/>
      <path stroke="#C2E8FF" stroke-linecap="round" stroke-width="3" d="M0,12.25 L65,12.25"/>
    </g>
    <g transform="translate(26 92.25)">
      <path fill="#C2E8FF" d="M104.481069,13.2322243 C103.112867,10.0071547 99.9723882,7.7514553 96.316946,7.7514553 C95.3098316,7.7514553 94.3418061,7.92267707 93.4391638,8.23821958 C91.7257405,5.58521329 88.783703,3.83492723 85.4418946,3.83492723 C82.2456337,3.83492723 79.4150793,5.43607116 77.6754255,7.89678339 C76.9794978,7.4840805 76.1711578,7.24781705 75.3088803,7.24781705 C74.5541571,7.24781705 73.8407551,7.42881672 73.2078836,7.75070193 C71.4987664,3.29361107 67.2549152,0.137629938 62.2902279,0.137629938 C57.7316418,0.137629938 53.7807891,2.79842183 51.8418652,6.68409115 C50.6956017,6.13348651 49.4157432,5.82577963 48.0656371,5.82577963 C43.7186752,5.82577963 40.0999422,9.01564989 39.3238107,13.2322245 L104.481071,13.2322245 L104.481069,13.2322243 Z"/>
      <path stroke="#C2E8FF" stroke-linecap="round" stroke-width="3" d="M14 12.25L99 12.25M0 12.25L8 12.25M23 12.25L28.5 12.25"/>
    </g>
    <g transform="translate(175.647 84.527)">
      <path fill="#C2E8FF" d="M82.7143538,20.9727273 L0.0497716281,20.9727273 C0.0168307478,20.6044744 0,20.2315035 0,19.8545455 C0,13.10663 5.39332657,7.63636364 12.046332,7.63636364 C13.8746008,7.63636364 15.6077425,8.04946135 17.1599751,8.78864886 C19.7856014,3.57212308 25.135714,0 31.3087987,0 C38.0318128,0 43.7786947,4.23691726 46.0931242,10.2205795 C46.9501377,9.78844733 47.916203,9.54545455 48.9382239,9.54545455 C50.1058914,9.54545455 51.2005184,9.86263918 52.1429206,10.4166944 C54.4987017,7.11317846 58.3317442,4.96363636 62.6600141,4.96363636 C69.0217205,4.96363636 74.313576,9.60734023 75.4173776,15.7335706 C75.7436941,15.6815523 76.078197,15.6545455 76.4189189,15.6545455 C79.5585481,15.6545455 82.170119,17.9476849 82.7143538,20.9727273 L82.7143538,20.9727273 Z"/>
      <path stroke="#C2E8FF" stroke-linecap="round" stroke-width="3" d="M16.3532819,19.9727273 L86.8532819,19.9727273"/>
    </g>
    <g transform="translate(69.647 84.527)">
      <path fill="#C2E8FF" d="M82.7143538,20.9727273 L0.0497716281,20.9727273 C0.0168307478,20.6044744 0,20.2315035 0,19.8545455 C0,13.10663 5.39332657,7.63636364 12.046332,7.63636364 C13.8746008,7.63636364 15.6077425,8.04946135 17.1599751,8.78864886 C19.7856014,3.57212308 25.135714,0 31.3087987,0 C38.0318128,0 43.7786947,4.23691726 46.0931242,10.2205795 C46.9501377,9.78844733 47.916203,9.54545455 48.9382239,9.54545455 C50.1058914,9.54545455 51.2005184,9.86263918 52.1429206,10.4166944 C54.4987017,7.11317846 58.3317442,4.96363636 62.6600141,4.96363636 C69.0217205,4.96363636 74.313576,9.60734023 75.4173776,15.7335706 C75.7436941,15.6815523 76.078197,15.6545455 76.4189189,15.6545455 C79.5585481,15.6545455 82.170119,17.9476849 82.7143538,20.9727273 L82.7143538,20.9727273 Z"/>
      <path stroke="#C2E8FF" stroke-linecap="round" stroke-width="3" d="M16.3532819 19.9727273L86.8532819 19.9727273M91.3532819 19.9727273L96.8532819 19.9727273"/>
    </g>
    <g transform="translate(235 74.5)">
      <path fill="#C2E8FF" d="M10.4209988,4.29236217 L16.259296,24.443436 L16.259296,24.443436 C16.5666778,25.5043744 15.9557995,26.613617 14.8948612,26.9209988 C14.7139843,26.9734036 14.5266126,27 14.3382972,27 L2.6617028,27 L2.6617028,27 C1.5571333,27 0.661702805,26.1045695 0.661702805,25 C0.661702805,24.8116846 0.688299176,24.6243129 0.74070397,24.443436 L6.57900117,4.29236217 L6.57900117,4.29236217 C6.88638297,3.23142381 7.99562563,2.62054553 9.05656399,2.92792733 C9.71521023,3.11875451 10.2301717,3.63371594 10.4209988,4.29236217 Z"/>
      <g stroke="#8CD3F8" stroke-linecap="round" stroke-width="3">
        <polygon stroke-linejoin="round" points="8.5 .162 17 27 0 27"/>
        <path d="M8.5,3.16197183 C8.5,21.6275866 8.5,31.073596 8.5,31.5 C8.5,31.073596 8.5,21.6275866 8.5,3.16197183 Z"/>
        <path stroke-linejoin="round" d="M8.5,14.6619718 C11.1666667,17.8925806 12.5,19.5592472 12.5,19.6619718 C12.5,19.5592472 11.1666667,17.8925806 8.5,14.6619718 Z" transform="matrix(-1 0 0 1 21 0)"/>
      </g>
    </g>
    <g transform="translate(214 57)">
      <path fill="#C2E8FF" d="M12.8239437,0 L25.0758365,41.9391718 L25.0758365,41.9391718 C25.3855734,42.9994249 24.7771597,44.1100213 23.7169065,44.4197582 C23.5347184,44.4729817 23.3458815,44.5 23.1560783,44.5 L2.49180902,44.5 L2.49180902,44.5 C1.38723952,44.5 0.491809024,43.6045695 0.491809024,42.5 C0.491809024,42.3101968 0.518827286,42.1213599 0.572050791,41.9391718 L12.8239437,0 Z" transform="translate(.5)"/>
      <g stroke="#8CD3F8" stroke-linecap="round" stroke-width="3" transform="translate(0 1)">
        <polygon stroke-linejoin="round" points="13.5 0 26.5 43.5 .5 43.5"/>
        <path d="M13.5,3 C13.5,32.2486474 13.5,47.2486474 13.5,48 C13.5,47.2486474 13.5,32.2486474 13.5,3 Z"/>
        <path stroke-linejoin="round" d="M7.82394366 21C11.4906103 24.539346 13.3239437 26.3726794 13.3239437 26.5 13.3239437 26.3726794 11.4906103 24.539346 7.82394366 21zM13.8239437 34C18.4906103 28.539346 20.8239437 25.8726794 20.8239437 26 20.8239437 25.8726794 18.4906103 28.539346 13.8239437 34z"/>
      </g>
    </g>
    <g transform="translate(145 74.622)">
      <g fill="#C2E8FF" transform="translate(15.927 2.274)">
        <path d="M1.28352602,8.56969821 L0.116966986,14.1738478 L0.116966986,31.2410731 L42.0051466,31.2410731 L40.130564,34.687244 L61.0256584,34.687244 L60.6514263,18.6761435 L56.9563894,11.0253827 L48.1835544,6.71720246 C37.7250329,6.44987898 27.9973823,6.31621724 19.0006025,6.31621724 C10.0038227,6.31621724 4.09813053,7.06737756 1.28352602,8.56969821 Z"/>
        <rect width="17.202" height="6.371" x="17.52" rx="2"/>
      </g>
      <g fill="#FFF" transform="translate(15.29 8.282)">
        <polygon points=".404 25.734 42.788 25.734 40.893 28.683 61.604 29.336 59.344 34.575 54 36.493 7.055 36.9 .404 36.493"/>
        <circle cx="42.048" cy="37.633" r="7.008"/>
        <path d="M0.973376859,7.21306782 C3.13602177,4.48447392 5.32956753,3.11193329 7.55401414,3.09544592 C9.77846076,3.07895855 22.8144755,3.07895855 46.6620584,3.09544592 C52.9363778,3.35788218 57.6277571,6.53475263 60.7361962,12.6260573 C63.8446353,18.7173619 63.1740972,16.564568 58.7245818,6.16767539 C56.3742505,3.89117432 55.1589034,2.72274879 55.0785404,2.6623988 C54.9981775,2.60204881 52.7077814,1.80712956 48.2073522,0.27764105 L37.1382623,0.27764105 L7.35289937,0.27764105 L3.09791417,1.65713599 L0.973376859,4.02633962 L0.973376859,7.21306782 Z"/>
      </g>
      <g stroke="#8CD3F8" stroke-width="3">
        <path stroke-linecap="round" stroke-linejoin="round" d="M69.125,44.877704 C73.347306,44.877704 77.5,40.581177 77.5,36.358871 L77.5,22.9798387 C77.5,14.5352267 69.9244507,7.87770398 61.4798387,7.87770398 L23.2540323,7.87770398 C19.0317263,7.87770398 15.5,11.1123714 15.5,15.3346774 L15.5,44.877704 L50.3306452,44.877704 C50.3306452,48.7481511 53.4682625,51.9677419 57.3387097,51.9677419 C61.2091568,51.9677419 64.3467742,48.7481511 64.3467742,44.877704 L69.125,44.877704 Z"/>
        <path d="M35.5.877703985L48.5.877703985 48.5.877703985C49.6045695.877703985 50.5 1.77313449 50.5 2.87770398L50.5 7.87770398 33.5 7.87770398 33.5 2.87770398 33.5 2.87770398C33.5 1.77313449 34.3954305.877703985 35.5.877703985zM25.5 17.877704L38.5 17.877704 38.5 17.877704C39.0522847 17.877704 39.5 18.3254192 39.5 18.877704L39.5 43.877704 39.5 43.877704C39.5 44.4299887 39.0522847 44.877704 38.5 44.877704L25.5 44.877704 25.5 44.877704C24.9477153 44.877704 24.5 44.4299887 24.5 43.877704L24.5 18.877704 24.5 18.877704C24.5 18.3254192 24.9477153 17.877704 25.5 17.877704zM48.5 17.877704L65.5 17.877704 65.5 17.877704C66.0522847 17.877704 66.5 18.3254192 66.5 18.877704L66.5 24.877704 66.5 24.877704C66.5 25.4299887 66.0522847 25.877704 65.5 25.877704L48.5 25.877704 48.5 25.877704C47.9477153 25.877704 47.5 25.4299887 47.5 24.877704L47.5 18.877704 47.5 18.877704C47.5 18.3254192 47.9477153 17.877704 48.5 17.877704z"/>
        <polyline points="15.927 32.878 57.976 32.878 55.424 36.878 76.77 36.878"/>
        <path stroke-linecap="round" d="M66.8982721 44.877704L0 44.877704M7.5 38.2701613L7.5 51.0120968"/>
      </g>
    </g>
    <g fill="#C2E8FF" fill-rule="nonzero" transform="translate(39 73)">
      <path d="M10.6920303,27.0039829 C11.0192672,27.2049035 11.0688485,27.4824543 10.9201045,27.7450528 C10.716821,28.1067099 9.87294649,28.2880057 8.86942008,27.7628086 C8.8664452,28.1366143 8.85454567,28.5562113 8.829755,29.0458969 C8.8148806,29.3262512 8.61853848,29.9916254 8.79901457,30.1617071 C9.2353304,30.5728934 9.37415817,30.9093186 9.27499548,31.3401297 C9.220456,31.5784309 8.87636147,31.7541196 8.45690329,31.8606543 C8.1108255,31.9681234 7.6864092,32.040081 7.25207662,31.9755995 L7.25108499,31.9755995 C6.14442939,31.8905587 5.70613031,31.680293 5.72794607,31.227988 C5.72992936,31.1653755 5.74182888,31.097156 5.76265304,31.0214603 C5.85189944,30.706529 5.93023797,30.3644967 5.92924632,30.1187194 C5.92825472,30.0364822 5.92032169,29.9645245 5.89850589,29.9084537 C5.87867338,29.8523828 5.78546044,29.669218 5.64564105,29.572963 C5.61093412,29.5496001 5.57325231,29.5309098 5.5325956,29.5206302 C5.41062547,29.4907257 5.26584794,29.540255 5.10917089,29.7598659 C5.06851422,29.8159367 5.02488262,29.9009775 5.01099985,29.99256 C4.99711708,30.0841424 5.01099985,30.1822664 5.08933838,30.2645037 C5.13396158,30.3121639 5.1686685,30.3663657 5.19544244,30.4243056 C5.22122474,30.4822455 5.23907405,30.5439234 5.24799868,30.608405 C5.29857166,30.9934249 5.01992448,31.455075 4.40412419,31.5831035 C4.13341004,31.6382398 3.8815368,31.6756204 3.64751287,31.6933762 C2.94544102,31.745709 2.40897086,31.6251566 2.05297684,31.3298501 C1.81399473,31.1336021 2.01232014,30.2972117 2.21560364,29.576701 C0.757912111,29.0496349 0.462407268,28.0095204 0.462407268,28.0095204 C0.790635789,28.1786675 1.19621119,28.5580803 1.25769206,28.3337969 C1.31917292,28.1113825 -0.970493565,26.7301702 0.485214714,24.2742663 C0.413817573,25.7442575 1.1486131,25.9610649 1.284466,25.9760171 C1.41932725,25.9919038 1.38462028,25.7891142 1.30529015,25.4695103 C1.78821243,25.6050148 2.15709766,26.0124631 2.42483692,26.3451502 C2.43673645,26.29749 2.44268619,26.2432882 2.45458571,26.1965624 C2.43971129,25.9816241 2.48631779,25.7096805 2.57853908,25.4190465 C2.74612401,24.8985219 3.06840275,24.3265992 3.44819586,23.9088712 C3.34605829,23.8621455 3.25284534,23.8144853 3.1804566,23.7696286 C1.74160598,22.8631496 -0.527236346,20.5016317 2.05396844,17.3186756 C2.1888297,17.1532666 2.33360723,17.0018753 2.48929268,16.8626326 C2.24535242,13.9964769 3.99061576,15.1281739 4.76705964,15.7636437 C6.03733368,15.5038487 7.43056946,15.6505674 8.59870594,16.1084795 C9.47927062,15.5234735 11.1501619,14.7319398 10.6404657,17.5448281 C10.6404657,17.5448281 11.6965483,21.2081246 9.0617957,23.1649977 C8.60068919,23.5079645 8.12867479,23.7602834 7.66360178,23.9406447 C7.69533384,23.990174 7.71119987,24.024751 7.71913289,24.0471793 C7.72904915,24.0583935 7.73797379,24.0696077 7.74888169,24.0817564 C8.52235066,24.2378203 8.64134589,24.8237608 8.64134589,24.8237608 C8.63638776,24.9564618 8.65820355,25.0919664 8.69092724,25.2751313 C8.76232437,25.3760588 8.83372151,25.4779209 8.9071019,25.5881936 C8.95668324,25.6620202 9.02708875,25.7489301 9.09947752,25.8367744 C9.46637947,26.0199392 9.91062831,26.0591888 9.9175697,26.0601233 C9.98202545,26.0545163 10.0593723,26.0694685 10.1020123,26.0778791 C10.3062874,26.1161942 10.7178126,26.1087181 10.7902014,26.4488814 C10.8229251,26.6030762 10.7049215,26.6871825 10.6265829,26.7647472 C10.5591523,26.8301632 10.6107169,26.9544536 10.6920303,27.0039829 Z"/>
      <path d="M21.0732953,0.443340322 C21.9481935,-0.0154007196 23.8047406,0.144012938 24.381694,0.297039201 C24.5608576,0.139115871 25.0399186,-0.207936116 25.4178867,0.19885218 C25.8543499,0.669306393 25.052586,1.46545968 25.052586,1.46545968 L25.0450511,1.45429998 C25.1833015,2.1010725 25.2571204,2.91291015 25.3165067,3.59068789 C25.4094377,4.65131171 25.9567009,6.11311936 26.1446939,6.59058034 C26.1505338,6.58223641 26.1564281,6.57390581 26.162377,6.56558897 C26.162377,6.56558897 29.9781075,9.28653169 30.7869195,10.697494 C31.4517084,11.857046 31.0644271,12.5235273 30.4900916,13.3905797 C30.0193824,14.1009358 30.6709985,13.954686 30.9853901,14.099543 C31.4297537,14.3049891 31.7300943,16.3211471 29.9543964,16.7160216 C29.0570598,16.9155686 28.2144438,16.4906919 27.5677581,15.888066 C27.6481403,16.1697502 27.7328193,16.459202 27.8220118,16.7565862 C28.522571,19.0921751 28.9884735,22.9465528 29.8254609,25.9618243 C30.3145563,27.7305737 31.3261719,28.6372545 31.3261719,29.7079514 C31.3261719,31.1368595 29.7122255,31.8486892 27.3752093,31.581015 C26.0443515,31.4288081 25.5388848,30.8317896 25.3165067,29.172603 C25.0702537,27.3428397 22.4214989,26.8730976 21.0872305,26.8179882 C18.937121,26.7287635 16.1362487,27.9956236 16.0243775,29.3333387 C15.9356991,30.4060039 16.0734917,31.5423072 13.9656749,31.9024865 C11.4615341,32.3308965 10.0706479,31.2661041 10.0706479,30.2970972 C10.0706479,29.7204167 10.7691607,27.9031186 11.7146085,25.7098956 C13.2337373,22.1789576 15.3886218,17.6704837 16.3033733,15.7790504 C17.0173403,14.302466 17.5079434,12.5700364 17.9075275,11.0147219 C17.0741165,10.4514661 16.1165546,9.59410261 15.2269316,8.21288938 C14.8496655,7.62334162 14.2104846,5.6182242 14.0625637,3.79521152 C13.6920831,2.03442889 13.983175,0.143290701 15.8505062,0.012280089 C16.987054,-0.0696015438 17.0772993,1.11538945 16.7712795,2.66393489 C16.7672083,2.67245058 16.7672083,2.68031121 16.7672083,2.6888269 C16.7156396,4.21575559 16.8649175,5.17671843 16.9192004,5.33917159 C17.2733962,5.94313052 18.0279282,6.4318001 18.6304682,6.76915243 C18.8257541,6.79891991 19.0182598,6.8091807 19.1982628,6.80991723 C19.6858779,5.54360586 19.977468,3.0064668 20.3823948,1.57806806 C20.194557,1.35803213 19.7560153,0.766193743 20.1101999,0.393091035 C20.4495673,0.0354251246 20.8614058,0.273479224 21.0732953,0.443340322 L21.0732953,0.443340322 Z"/>
    </g>
    <g transform="translate(57 4)">
      <path stroke="#C2E8FF" stroke-linecap="round" stroke-linejoin="round" stroke-width="3" d="M125.198103,23.4314099 C125.869988,30.6133808 130.227503,37.2585787 137.237036,40.5271774 C147.748375,45.4286955 160.242965,40.8810368 165.144483,30.3696974 C170.046001,19.858358 165.498342,7.36376842 154.987003,2.46225038 C148.56085,-0.534313859 141.393449,0.000790523347 135.672954,3.27114095 C137.635863,3.21281455 139.641822,3.60000623 141.542979,4.48653006 C148.049998,7.52080313 150.865216,15.2555491 147.830943,21.7625687 C144.79667,28.2695883 137.061924,31.0848056 130.554904,28.0505325 C128.293007,26.9957926 126.477197,25.3730859 125.198103,23.4314099 L125.198103,23.4314099 Z"/>
      <circle cx="74.5" cy="42.5" r="2.5" fill="#C2E8FF"/>
      <circle cx="2.5" cy="47.5" r="2.5" fill="#C2E8FF"/>
      <circle cx="186.5" cy="45.5" r="2.5" fill="#C2E8FF"/>
      <circle cx="145.5" cy="67.5" r="2.5" fill="#C2E8FF"/>
      <circle cx="117.5" cy="35.5" r="2.5" fill="#C2E8FF"/>
      <polygon stroke="#C2E8FF" stroke-linecap="round" stroke-linejoin="round" stroke-width="3" points="170.719 42.122 168.089 43.349 169.317 40.719 168.089 38.089 170.719 39.317 173.349 38.089 172.122 40.719 173.349 43.349" transform="rotate(45 170.72 40.72)"/>
      <polygon stroke="#C2E8FF" stroke-linecap="round" stroke-linejoin="round" stroke-width="3" points="126.719 59.122 124.089 60.349 125.317 57.719 124.089 55.089 126.719 56.317 129.349 55.089 128.122 57.719 129.349 60.349" transform="rotate(45 126.72 57.72)"/>
      <polygon stroke="#C2E8FF" stroke-linecap="round" stroke-linejoin="round" stroke-width="3" points="42.719 56.122 40.089 57.349 41.317 54.719 40.089 52.089 42.719 53.317 45.349 52.089 44.122 54.719 45.349 57.349" transform="rotate(45 42.72 54.72)"/>
      <polygon stroke="#C2E8FF" stroke-linecap="round" stroke-linejoin="round" stroke-width="3" points="98.719 21.122 96.089 22.349 97.317 19.719 96.089 17.089 98.719 18.317 101.349 17.089 100.122 19.719 101.349 22.349" transform="rotate(45 98.72 19.72)"/>
    </g>
    <g transform="translate(50 81)">
      <path fill="#FFF" d="M1.44744117,1.89614401 L37.4474412,0.00140717125 L37.4474412,0.00140717125 C37.9989626,-0.0276202707 38.4695904,0.395944769 38.4986178,0.947466167 C38.4995391,0.964970637 38.5,0.982496304 38.5,1.000025 L38.5,10.8919937 L38.5,10.8919937 C38.5,11.4442784 38.0522847,11.8919937 37.5,11.8919937 C37.4824713,11.8919937 37.4649456,11.8915328 37.4474412,11.8906115 L1.44744117,9.99587466 L1.44744117,9.99587466 C0.916316461,9.96792073 0.5,9.52911666 0.5,8.99725683 L0.5,2.89476184 L0.5,2.89476184 C0.5,2.36290202 0.916316461,1.92409795 1.44744117,1.89614401 Z" transform="rotate(-25 51.492 -7.933)"/>
      <path fill="#C2E8FF" d="M0.883158752,1.84210831 L15.8831588,0.0774024259 L15.8831588,0.0774024259 C16.4316607,0.0128727867 16.928621,0.40520985 16.9931506,0.953711783 C16.997713,0.992491737 17,1.03150562 17,1.07055303 L17,10.8214656 L17,10.8214656 C17,11.3737504 16.5522847,11.8214656 16,11.8214656 C15.9609526,11.8214656 15.9219387,11.8191786 15.8831588,11.8146162 L0.883158752,10.0499104 L0.883158752,10.0499104 C0.379545837,9.99066179 2.27879865e-13,9.56384591 2.27817765e-13,9.05675976 L2.27373675e-13,2.83525891 L2.2759572e-13,2.83525891 C2.2753362e-13,2.32817276 0.379545837,1.90135689 0.883158752,1.84210831 Z" transform="rotate(-25 45.589 -27.465)"/>
      <g transform="rotate(-25 47.27 9.61)">
        <path stroke="#8CD3F8" stroke-linecap="round" stroke-linejoin="round" stroke-width="3" d="M9.44744117,4.89614401 L45.4474412,3.00140717 L45.4474412,3.00140717 C45.9989626,2.97237973 46.4695904,3.39594477 46.4986178,3.94746617 C46.4995391,3.96497064 46.5,3.9824963 46.5,4.000025 L46.5,13.8919937 L46.5,13.8919937 C46.5,14.4442784 46.0522847,14.8919937 45.5,14.8919937 C45.4824713,14.8919937 45.4649456,14.8915328 45.4474412,14.8906115 L9.44744117,12.9958747 L9.44744117,12.9958747 C8.91631646,12.9679207 8.5,12.5291167 8.5,11.9972568 L8.5,5.89476184 L8.5,5.89476184 C8.5,5.36290202 8.91631646,4.92409795 9.44744117,4.89614401 Z"/>
        <rect width="6" height="4" x="1.982" y="7.43" fill="#8CD3F8"/>
        <path stroke="#8CD3F8" stroke-linecap="round" stroke-width="3" d="M46.5.77016129L46.5 17.4801604M1.46592583 5.02898034L1.46592583 13.7389804"/>
      </g>
      <g stroke="#8CD3F8" stroke-linecap="round" stroke-linejoin="round" stroke-width="3" transform="translate(22 22)">
        <path d="M7.5.787597656L7.5 6.40759754M7.5 6.78759766L.5 18.4075975"/>
        <path d="M14.5,6.78759766 L7.5,18.4075975" transform="matrix(-1 0 0 1 22 0)"/>
        <path d="M3.5,6.5 L11.5,6.5"/>
      </g>
    </g>
  </g>
</svg>
