<svg xmlns="http://www.w3.org/2000/svg" xmlns:xlink="http://www.w3.org/1999/xlink" viewBox="0 -5 129.2 129.2"><ellipse cx="63.76" cy="59.38" fill="#110070" rx="59.34" ry="59.38"/><radialGradient id="a" cx="64.57" cy="7.23" r="104.22" fx="64.57" fy="7.23" gradientUnits="userSpaceOnUse"><stop offset="0" stop-color="#67c5d5"/><stop offset=".16" stop-color="#66c2d3"/><stop offset=".28" stop-color="#62b9ce"/><stop offset=".39" stop-color="#5ca8c6"/><stop offset=".48" stop-color="#5392ba"/><stop offset=".58" stop-color="#4874aa"/><stop offset=".66" stop-color="#3a5097"/><stop offset=".75" stop-color="#2a2781"/><stop offset=".81" stop-color="#1b006d"/><stop offset="1" stop-color="#596aad"/></radialGradient><ellipse cx="63.76" cy="59.38" fill="url(#a)" rx="58.22" ry="58.25"/><radialGradient id="b" cx="64.55" cy="14.17" r="52.23" fx="64.55" fy="14.17" gradientUnits="userSpaceOnUse"><stop offset="0" stop-color="#0f80bc"/><stop offset=".34" stop-color="#0a5f9e"/><stop offset="1" stop-color="#00145a"/></radialGradient><path fill="url(#b)" d="M55.4 89.45c-.07-.32-.85-1.24-1.45-1.44-.6-.2-1.2.9-1.58-.9-1.26.72-1.8-.2-1.8-.2s-1.37.07-1.64 1.74c-.65.77-2.3 3.57-1.43.66.9-2.94-.94-.24-1.1 1.23-.33.65-.86.72-.53-2.22-1.17-.4-1.77-3.1-1.12-3.16-.75-1.04-.16-2.63.46-2.54.64.07 1.7-1.37 1.67-1.7-.03-.34.5-.1.45-2.34-.02-2.25.86-2.8.93-.93.08 1.87 1.2-.6 1.08-1.56-.1-.95.12-3.1.8-1.83-.8-3.14-.16-3.26.3-1.17 1.2.1 1.25.73 1.25.73 1.32-.33 1.95.67 2.05 1.23 1.23-1.45 2.46.1 2.46.1s.85-.27.44 1.2c-.4 1.5 1.78.7 1.26-.38 1.07-.54 2.67 1.1 3.17 2.23s-.86 2.72.2 3.1c1.07.4.6 2.25.6 2.25s2.23 1.24.68 2.3L62 87.1s1 1.12 1.34.45c.34-.67.47.68.47.68-.1-.24.26 1.4 1.66 1.74 1.4.35 2.28 2.55.73 2.58-1.56.03-1.68 0-2.1.9-.4.9-2.4.92-3.4-.24-1.1.38-3.03-.1-2.46-.96-.94.55-1.83-.92-1.1-1.58.74-.65-.4-1.5-.8-.56-.37.92-2.4 1.4-2.25-.2.03-.48 1.1-.75 1.12-.36.2.46.3-.04.2-.1z"/><radialGradient id="c" cx="64.55" cy="14.18" r="52.23" fx="64.55" fy="14.18" gradientUnits="userSpaceOnUse"><stop offset="0" stop-color="#0f80bc"/><stop offset=".34" stop-color="#0a5f9e"/><stop offset="1" stop-color="#00145a"/></radialGradient><path fill="url(#c)" d="M103.54 43.92c.3.3.92.23 1.25.14.32-.1.3-.34.57-.43.3-.1 1.4.43 1.1 1.58-.67.1-.9.93-.9.93s-.7.3-1.03.15c-.33-.15-.33-.1-.82-.05-.48.05-1.64-.62-.38-.62 1.25 0-.15-.57-.68-.57s-.1-.53.53-.38c-.44-.72-.2-1.26.33-.72z"/><radialGradient id="d" cx="64.55" cy="14.17" r="52.24" fx="64.55" fy="14.17" gradientUnits="userSpaceOnUse"><stop offset="0" stop-color="#0f80bc"/><stop offset=".34" stop-color="#0a5f9e"/><stop offset="1" stop-color="#00145a"/></radialGradient><path fill="url(#d)" d="M99.2 46.52c-.35.34.04 1.35.47 1.3.43-.05 1.1-.24 1.1-.24s.35.67 0 .87c-.33.2-1.3.1-.04.57 1.3.48 1.64.33 1.74.1.1-.24.53-1.06.77-1 .2-.44-.67-.83-.2-1.12.5-.28.1-1.34.1-1.34s-.67.05-.96.53c-.3.46-.67-.07-.96-.07-.05.3-.24.53-.24.53l-.2-.43s-1.35-.05-1.6.28z"/><radialGradient id="e" cx="65.41" cy="19.12" r="57.38" fx="65.41" fy="19.12" gradientUnits="userSpaceOnUse"><stop offset="0" stop-color="#0f80bc"/><stop offset=".26" stop-color="#0b629b"/><stop offset=".84" stop-color="#031747"/><stop offset="1" stop-color="#00022f"/></radialGradient><path fill="url(#e)" d="M90.17 47.3c-.05-.1.38-.6.27.04-.27.46 1.05.87 1.42.36 1.24-1.7-1.17-2.52-2.2-1.73-1.07.8-1.65-.92-.44-1.16 1.2-.22 1.3-2.4-.02-2.42 1.18-.58-.45-2.3-1.8-2.6-.22-1.88-2.2-3.07-3.22-2.4-1.05.7-1.14.57-2.68-.36-1.52-.92-2.26 1.94-1.14 3.18 1.14 1.26.32 3.28.36 2.94 0 0-.42.76-.4 1.05-1.3.43-1.67-1.4-2.47-1.8-.58.77-1.53 1.17-1.53 1.17L76.4 42s-4.03-2.2-5.26-1.57c-1.52.47-1.88 4-.5 4.5 1.38.52-1.74 1.82 1.4 5.12 3.2 3.38 4.45 3.48 5.1 2.93.17-.14.45-.35.8-.58.02.13.07.26.15.38.8 1.2-1.9 2.16-2.26 3.9-.38 1.74-.03 5 1.56 5.1.3-1.73 3.27-1.1 1.66.46-1.64 1.6-.5 1.88-.5 1.88s.1 3 2.6 2.05c-.07.17-.13.4-.17.63-.7-.14-2.44-.36-2.86.84-.53 1.5-2.77-.5-4.34.17-1.55.7-3.83 2.9-3.07 4.46 1.48-.7 2.6 2.46.55 1.8-2.07-.64-1.67.6-1.67.6s-2.13 1.7-.12 3.5c-.77.12-2.15.98-1.68 2.87 0 0-.9.04-1.02 1.73-2.9.58-2.7 1.48 1.63.5-1.73.9 1.25 1.33 2.57 1.2 1.32-.1 4.8 1.6 2.2 1.62-2.63.02-1.85 1.3 1.28 1.35 3.12.07 2.8.8 3.26.76.47-.04 2.5 1.55 2.38 2.43-.1.9 2.12 1.8 3.57.8.07.9 3.88.2 4.45-1.46 4.12.63 4.02-.14 3.1-.63-2.06-.32-5.86-3.06-1.74-1.65 4.1 1.4.15-1.1-.93-2.1-2.35-.45-2.47-2.4-2.47-2.4s1.3-.75.27-2.6c2.54-.46 1-1.36 1.3-2.2.28-.86 1.57-1.95 2-2.04.1-.1.78.03.14.3-.55 0-.16 1.55.5 1.63 2.25.26 1.6-2.66.27-3.25-1.32-.6-.13-2.2.8-1.12.92 1.08 3-.13 2.2-1.5 1.25.85 1.9-1.9 1.4-3.5 1.63-1.43 1.58-4.28.3-4.92-.62-.3-.92-.5-1.08-.9.76-.35 1.76-.6 2.16-.26.64.58 2.42-1.02 2.3-2.88.76.4 1.96-3.4.94-4.73 2.33-3.25 1.7-3.55.92-3-1.17 1.62-5 3.56-2.03.68 2.9-2.8-.77-.66-2-.2-1.44 1.8-2.97.93-2.97.93s.07-1.48-1.8-1.5c.87-2.38-.52-1.52-1-2.17-.5-.65-.66-2.23-.52-2.64z"/><radialGradient id="f" cx="64.55" cy="14.17" r="52.23" fx="64.55" fy="14.17" gradientUnits="userSpaceOnUse"><stop offset="0" stop-color="#0f80bc"/><stop offset=".34" stop-color="#0a5f9e"/><stop offset="1" stop-color="#00145a"/></radialGradient><path fill="url(#f)" d="M60 23.54c-.35.94 1.18 2.47 1.96 1.98.77-.5 1.88-1.48 1.88-1.48s1.18.94.7 1.62c-.48.67-2.38 1.42.38 1.12 2.83-.3 3.34-.9 3.33-1.44 0-.54.14-2.47.63-2.6.02-1-1.92-.9-1.25-1.9.67-.98-.9-2.6-.9-2.6s-1.23.72-1.4 1.9c-.14 1.16-1.3.53-1.84.8.12.58-.04 1.2-.04 1.2l-.7-.62S60.18 22.7 60 23.54z"/><radialGradient id="g" cx="64.55" cy="14.16" r="52.24" fx="64.55" fy="14.16" gradientUnits="userSpaceOnUse"><stop offset="0" stop-color="#0f80bc"/><stop offset=".34" stop-color="#0a5f9e"/><stop offset="1" stop-color="#00145a"/></radialGradient><path fill="url(#g)" d="M64.6 72.97c-.33.33.06 1.34.5 1.3.43-.06 1.1-.25 1.1-.25s.34.67 0 .87c-.34.17-1.32.1-.05.55 1.3.48 1.65.34 1.74.1.1-.24.5-1.06.75-1 .2-.44-.67-.82-.2-1.1.5-.3.1-1.36.1-1.36s-.67.04-.96.52c-.3.48-.68-.05-.97-.05-.05.3-.24.53-.24.53l-.2-.42s-1.36-.05-1.6.3z"/><defs><ellipse id="h" cx="63.76" cy="59.38" rx="58.22" ry="58.25"/></defs><clipPath id="j"><use xlink:href="#h"/></clipPath><linearGradient id="i" x1="76.37" x2="93.23" y1="16.59" y2="18.03" gradientUnits="userSpaceOnUse"><stop offset="0" stop-color="#0f80bc"/><stop offset=".34" stop-color="#0a5f9e"/><stop offset="1" stop-color="#00145a"/></linearGradient><path fill="url(#i)" d="M65.06 1c-.9.2.6 3.5.6 3.5s-.04 2.22.34 2.33c.37.12 2.85.74 4.14 2.35 1.3 1.6.63 2.46-.46 2-1.08-.47-.8.96-.8.96s3.28 1.06.8 1c-2.47-.08 1.67 1.73 1.4 1.92-.27.2-.43 1.23-.43 1.23s-2.18.16-.33.94c6.26 2.64-.67 1.93-.67 1.93l-.88 1.08 1.74 2.2 1.37.96s2.83-.94 3.72-1.1c.87-.13 3.1-1.8 3.1-1.8s.67.48.17-.5c-.5-.97 1.84-.54 2.42.2l4.13 1.86c.05.14.14.27.3.37.8.57-.74 1.54-.58 2.56.15 1 1.1 2.7 2.12 2.52-.18-.97 1.85-1.1 1.14 0-.7 1.07.1 1.05.1 1.05s.64 1.52 2.02.68c-.04.46.24 1.4 1.43 1.45 0 0-.13.52.84.88-.14 1.74.42 1.8.55-.85.25 1.16 1-.47 1.15-1.25.15-.78 1.75-2.5 1.32-.98-.43 1.5 4.73 2.06 5.3.26.58-1.82 2.64-2.77 2.7-3.04.07-.28-4.58-.7-4.07-.5.52.23 1.47-.94 1.12-1.98.58.12.83-2.3-.08-2.93 1.13-2.4.64-2.46.17-2-.57 1.23-2.92 3.05-1.33.8 1.6-2.26-.65-.3-1.44.2-.7 1.35-1.9 1.1-1.9 1.1s-.22-.9-1.5-.6c.14-1.63-.67-.85-1.13-1.17-.3-.2-.56-.62-.73-1 1.12.46 2.6.94 2.36.1-.17-.53 2.1.65 2.2.4l2.84-.4L103.1 16C85.38.15 65.06 1 65.06 1z" clip-path="url(#j)"/><linearGradient id="k" x1="38.49" x2="29.17" y1="19.15" y2="32.83" gradientUnits="userSpaceOnUse"><stop offset="0" stop-color="#0f80bc"/><stop offset=".34" stop-color="#0a5f9e"/><stop offset="1" stop-color="#00145a"/></linearGradient><path fill="url(#k)" d="M38.75 6.1C28.18 10.84 20.2 20.63 20.2 20.63s.94 2.14 1.27 1.98c.33-.13-2.36 5.65-.4 5.98 2 .32 7.7-3.58 6.65-3.22-1.06.35.6-2.12.6-2.12s2.96-1.3 1.2.2c-1.74 1.52 2.32.2 2.26.5-.06.3.53 1.15.53 1.15s-1.4 1.5.4.9c6.2-2.1.83 1.76.83 1.76l.1 1.3 2.68.48 1.6-.15s1.37-2.45 1.9-3.1c.54-.67 1.03-3.3 1.03-3.3s.8-.08-.2-.46c-1.03-.4.96-1.6 1.87-1.44l4.3-1.34c.13.06.3.1.47.08.98-.1.5 1.6 1.3 2.25.8.62 2.62 1.24 3.27.45-.78-.6.68-2 .86-.75.2 1.26.77.73.77.73s1.54-2.65 2.04-4.18c.3.38 2.8-3.3 2.04-5.06-.77-1.8.48-3.48.34-3.74-.14-.25-.9.53-.34.34.56-.18-1.6.78-1.87-2.05-.3-2.9-.7.24-1 1.17.4 1.5 4.3-6.1 4.3-6.1l5-2.01S52.53-.1 38.76 6.1z" clip-path="url(#j)"/><linearGradient id="l" x1="62.65" x2="62.65" y1="34.55" y2="11.9" gradientUnits="userSpaceOnUse"><stop offset=".01" stop-opacity="0"/><stop offset=".65" stop-opacity=".2" stop-color="#c4e0e3"/><stop offset=".82" stop-color="#c4e0e3"/><stop offset=".85" stop-color="#cde5e8"/><stop offset=".94" stop-color="#e8f4f7"/><stop offset="1" stop-color="#f2fafc"/></linearGradient><ellipse cx="62.65" cy="23.27" fill="url(#l)" opacity=".5" rx="30.82" ry="19.97"/><filter id="m" width="150%" height="150%" x="-25%" y="-25%"><feGaussianBlur in="SourceAlpha" stdDeviation="1.5" result="blur"/><feOffset dx="1" dy="1" in="blur" result="shift"/><feMerge><feMergeNode in="shift"/><feMergeNode in="SourceGraphic"/></feMerge></filter><g filter="url(#m)"><linearGradient id="n" x1="64.48" x2="78.47" y1="56.3" y2="48.09" gradientUnits="userSpaceOnUse"><stop offset="0" stop-color="#df731b"/><stop offset=".54" stop-color="#df731b"/><stop offset=".7" stop-color="#ec8811"/><stop offset=".86" stop-color="#f4950b"/><stop offset="1" stop-color="#f79a09"/></linearGradient><path fill="url(#n)" d="M125.32 43.08l-1.42 9.15s-2.04-16.94-4.54-23.27c-3.83-9.7-5.54-9.62-5.55-9.6 2.6 6.5 2.1 10 2.1 10S111.4 17 99.37 13.06c-14.23-4.67-21.48-3-21.43-2.9.06.04 14.7 2.54 17.3 6.1 0 0-6.22 0-12.4 1.8-.3.08 22.78 2.88 27.5 25.93 0 0-2.53-5.28-5.66-6.18 2.06 6.27 1.53 18.14-.43 24.05-.25.76-.5-3.28-4.37-5.02 1.24 8.85-.07 22.9-6.22 26.77-.47.3 3.86-13.87.88-8.4-17.8 27.3-38.96 11.05-47.54 5.26 6.9 1.7 14.2.47 18.43-2.42 4.27-2.93 6.8-5.06 9.07-4.56 2.26.5 3.77-1.77 2-3.8-1.75-2-6.04-4.8-11.84-3.28-4.1 1.07-9.15 5.6-16.9 1-6.6-3.9-6.54-7.07-6.54-9.1 0-2.02 1.8-5.1 5.07-4.6 2.92.46 1.37-1.26 4.53 0 .86.36-.1-4.12-1.3-7 2.35-4.9 10-6.37 10.56-6.8 1.03-.78.46-1.17.8-2.35.34-1.1.55-4.06-8-3.24-3.94.4-6.45-4.72-7.27-5.96.27-1.57.7-3 1.27-4.33.6-1.2 1.24-2.3 1.88-3.13l.53-.7c1.3-1.5 2.86-2.76 4.74-3.8.98-.57-10.97-.05-16.34 6.96-1.46.2-3.44-.23-5.65-.23-2.77 0-4.95.3-6.97.8-.32.08-.84.04-1.48-.1-1.77-1.85-6.8-6.27-7.03-12.27 0 0-7.3 5.62-6.2 20.92-.1 8.46-2.6 6.04-3.88 10.63-.6 2.2.87 3.8.87 3.9 0 .02 1.8-1.96 1.8-1.96s-11.32 19.63 3.3 44.67c12.6 21.6 33.76 31.14 55.7 29.28 3.84-.25 7.7-.82 11.57-1.75 51.13-12.37 45.57-74.12 45.57-74.12z"/><linearGradient id="o" x1="41.84" x2="52.7" y1="36.96" y2="37.89" gradientUnits="userSpaceOnUse"><stop offset=".01" stop-color="#941403"/><stop offset=".9" stop-color="#e85c0a"/></linearGradient><path fill="url(#o)" d="M45.47 27.6s2.2 6.05 7.17 6.03c9.45-.04 9.64.1 9.7 1.24.2 3.5-1.54 4.65-2.2 5.15-.66.5-9.67 5.7-10 7.2-.33 1.5-10.4-14.2-10.4-14.2l5.73-5.4z"/><linearGradient id="p" x1="24.45" x2="63.64" y1="33.95" y2="38.85" gradientUnits="userSpaceOnUse"><stop offset=".01" stop-color="#941403"/><stop offset=".14" stop-color="#a32104"/><stop offset=".5" stop-color="#c84107"/><stop offset=".79" stop-color="#df5509"/><stop offset=".97" stop-color="#e85c0a"/></linearGradient><path fill="url(#p)" d="M50.5 34.12s3.08 3.92.75 5.5c-2.83 1.9 4 2.33 6.5.93s4-3.44 4.1-3.74.9-3.04-4.3-2.1c-3.27.63-4.46.77-7.05-.57z"/><linearGradient id="q" x1="48.73" x2="51.86" y1="44.32" y2="42.95" gradientUnits="userSpaceOnUse"><stop offset="0" stop-color="#f2c8a9"/><stop offset="1" stop-color="#ffc"/></linearGradient><path fill="url(#q)" d="M60.14 40.02c.5-.38 1.62-1.14 2.04-3-.3.1-.33-.24-.7-.1-6.96 7.26-7.22 2.2-11.02 3.23-3.46.95-4.24 2.25-4.38 2.35l.15.22c1 .5 1.96 2.12 2.67 3.56.7.84 1.18 1.25 1.24.95.34-1.5 9.34-6.72 10-7.2z"/><linearGradient id="r" x1="38.77" x2="91.34" y1="82.58" y2="84.75" gradientUnits="userSpaceOnUse"><stop offset="0" stop-color="#b30000"/><stop offset="1" stop-color="#df731b"/></linearGradient><path fill="url(#r)" d="M8.18 45.78c-1.42 2.98-10.53 18.38 4.34 44 14.55 25.1 39.74 33.28 65.45 27.72 7.34-1.6 15.8-7.33 21.2-11.55-3.47-8.74-1.42-8.4-3.28-7.26-20.73 12.8-37.2.15-49.94-1.46C-.9 91.3 8.34 45.7 8.34 45.7l-.16.08z"/><linearGradient id="s" x1="51.28" x2="78.69" y1="74.42" y2="84.21" gradientUnits="userSpaceOnUse"><stop offset="0" stop-color="#941403"/><stop offset="1" stop-color="#df731b"/></linearGradient><path fill="url(#s)" d="M47.22 80.93c4.42 1.33 14.06.2 18.2-2.9 2.8-2.07 4.9-3.63 6.67-4.3-3.15-2.12-3.2.9-9.8 2.43-13.72 3.18-20.4-3.7-20.4-3.7 1 5.45 4.4 8.1 5.9 9.04-.4-.36-.6-.57-.6-.57z"/><linearGradient id="t" x1="6.11" x2="32.83" y1="87.06" y2="87.06" gradientUnits="userSpaceOnUse" gradientTransform="rotate(2.8 27.644 95.554)"><stop offset=".06" stop-color="#b30000"/><stop offset="1" stop-color="#de5c01"/></linearGradient><path fill="url(#t)" d="M32.33 105.8S20.9 92.9 17.7 78.45C13 74 9.68 70.25 7.46 67.55c1.28 10.27 6.52 26.22 24.88 38.24z"/><linearGradient id="u" x1="209.72" x2="224.26" y1="-130.66" y2="-85.62" gradientUnits="userSpaceOnUse" gradientTransform="rotate(6.8 -1626.854 -1650.806)"><stop offset=".06" stop-color="#de7210"/><stop offset="1" stop-color="#f6c08f"/></linearGradient><path fill="url(#u)" d="M22.8 94.08s-7.9-11.23-4.93-20.76c2.66-8.57-.57-3.47-2.44-1.64-1.9 1.85-2.87-5.46-2.82-6.3v-.03c-.1-.03-3.74 17.52 10.2 28.73z"/><linearGradient id="v" x1="12.47" x2="12.47" y1="61.11" y2="111.45" gradientUnits="userSpaceOnUse" gradientTransform="rotate(2.56 17.155 71.762)"><stop offset=".06" stop-color="#de7210"/><stop offset="1" stop-color="#f6c08f"/></linearGradient><path fill="url(#v)" d="M11.12 84.3S9.3 61.5 15 58.27c9.03-5.1.75-3.9-1.86-2.5-2.65 1.44-2.4-8-2.03-8.9.4-.87-9.3 8.93.03 37.4z"/><path fill="#a40000" d="M50.6 17.24s-7.14 7.26-7.1 7.28c.06.03.2 9.32.45 11.95.85 1 3.52 7.6 1.48 6.13-2.1-1.5-.58-1.53-.4-.77v.04c-.14.06-5.2-10.92 5.57-24.63z"/><linearGradient id="w" x1="18.35" x2="12.89" y1="30.85" y2="16.85" gradientUnits="userSpaceOnUse"><stop offset=".01" stop-color="#941403"/><stop offset=".47" stop-color="#e85c0a"/><stop offset="1" stop-color="#f9bd5f"/></linearGradient><path fill="url(#w)" d="M16.6 11.65s-7.58 5.82-6.13 21.8c5.88-5.28 14.2-9.22 14.2-9.22-1.4-.88-7.8-6-8.06-12.58z"/><linearGradient id="x" x1="41.7" x2="54.79" y1="34.06" y2="16.85" gradientUnits="userSpaceOnUse"><stop offset=".2" stop-color="#de7210"/><stop offset=".84" stop-color="#f9bd5f"/><stop offset="1" stop-color="#fffccf"/></linearGradient><path fill="url(#x)" d="M35.33 29.12l11.4 14.2c-3.3-13.94-.76-22.3 7.34-26.86 1.2-.68-16.92.24-18.74 12.66z"/><linearGradient id="y" x1="34.78" x2="48.05" y1="57.54" y2="84.08" gradientUnits="userSpaceOnUse"><stop offset=".02" stop-color="#941403"/><stop offset=".5" stop-color="#e35100"/><stop offset="1" stop-color="#df731b"/></linearGradient><path fill="url(#y)" d="M27.3 64.16c1.94-12.25 19-10.45 19-10.45-.77.58-3.7.9-4.53 3.26-2.76 7.72-.12 24.58 17.08 31.65 1.82.76-34.43-6.3-31.56-24.43z"/><linearGradient id="z" x1="54.83" x2="58.14" y1="41.27" y2="44.27" gradientUnits="userSpaceOnUse"><stop offset="0" stop-color="#eea272"/><stop offset=".19" stop-color="#efa777"/><stop offset=".41" stop-color="#f2b585"/><stop offset=".64" stop-color="#f6cd9c"/><stop offset=".89" stop-color="#fceebb"/><stop offset="1" stop-color="#ffc"/></linearGradient><path fill="url(#z)" d="M62.1 37.34c-.1-.02-.17-.02-.2.03-.22.3-1.03 1.24-2.96 2.82-3.58 2.9-5.1 2.15-7.76 2.75-1.22.27-2.37 1.1-3.15 1.74.32.5.6 1.05.87 1.57.7.84 1.18 1.25 1.24.95.33-1.5 9.34-6.72 10-7.2.47-.37 1.47-1.07 1.95-2.7z"/><linearGradient id="A" x1="35.5" x2="50.72" y1="48.36" y2="63.89" gradientUnits="userSpaceOnUse"><stop offset=".2" stop-color="#df731b"/><stop offset=".84" stop-color="#f9bd5f"/><stop offset="1" stop-color="#fffccf"/></linearGradient><path fill="url(#A)" d="M51.1 55.87c.1-2.6-.1-8.9-2.78-11.62-2.06-2.08-2.54-4.47-2.82-7.2-22.36 8.36-25.56 19.28-23.32 18.92 17.9-2.84 22.9-3.18 28.9-.1z"/><linearGradient id="B" x1="847.47" x2="847.47" y1="-1065.02" y2="-1007.96" gradientUnits="userSpaceOnUse" gradientTransform="rotate(14.7 -3854.01 -3747.1)"><stop offset=".06" stop-color="#de7210"/><stop offset="1" stop-color="#f6c08f"/></linearGradient><path fill="url(#B)" d="M3.4 71.17s1.57-20.2 11.67-27.58c7.94-5.83 1.77-3.7-1.3-3.48-3.22.26-4.94 2.22-4.32 1.5.03-.03.04-.05.03-.05-.1-.13-7.58 6.15-6.07 29.6z"/><linearGradient id="C" x1="15.86" x2="-3.44" y1="36.41" y2="67.83" gradientUnits="userSpaceOnUse" gradientTransform="matrix(.99 -.08 .095 1.173 -3.82 -4.947)"><stop offset=".06" stop-color="#de7210"/><stop offset="1" stop-color="#f2c06e"/></linearGradient><path fill="url(#C)" d="M2.35 55.66s5.4-17.2 16.36-17.05c7.28.1 1.5-6.1-.7-7.06-2.27-.98-2.82-.94-3.35-.47-.8.7-8 .44-12.3 24.6z"/><linearGradient id="D" x1="80.93" x2="60.43" y1="67.84" y2="71.76" gradientUnits="userSpaceOnUse"><stop offset="0" stop-color="#fffaee"/><stop offset=".28" stop-color="#f5f89b"/><stop offset=".31" stop-color="#f3ed91"/><stop offset=".47" stop-color="#ecc267"/><stop offset=".62" stop-color="#e6a046"/><stop offset=".76" stop-color="#e2872e"/><stop offset=".89" stop-color="#e07820"/><stop offset="1" stop-color="#df731b"/></linearGradient><path fill="url(#D)" d="M76.2 72.5c.8-.82.22-3.92-4.95-5.8-4.7-1.7-12.02 2.64-14.2 3.5 0 0 8.3-1.56 11.42-1.04 4.2.7 5.7 5.3 7.7 3.33z"/><linearGradient id="E" x1="-411.27" x2="-411.27" y1="427.63" y2="475.32" gradientUnits="userSpaceOnUse" gradientTransform="rotate(7.25 2864.42 3601.483)"><stop offset=".06" stop-color="#de7210"/><stop offset="1" stop-color="#f2c06e"/></linearGradient><path fill="url(#E)" d="M10.34 66.82s-.9-16.9 6.68-24.12c5.95-5.67 1.07-3.25-1.45-2.72-2.65.56-3.86 2.37-3.42 1.7l.02-.04c-.1-.1-5.62 5.92-1.83 25.18z"/><linearGradient id="F" x1="-414.44" x2="-414.44" y1="422.68" y2="470.37" gradientUnits="userSpaceOnUse" gradientTransform="rotate(21.2 832.438 1378.86)"><stop offset=".06" stop-color="#de7210"/><stop offset="1" stop-color="#f2c06e"/></linearGradient><path fill="url(#F)" d="M4.5 61.45s3.2-16.62 12.3-21.8c7.14-4.07 1.82-2.9-.74-3-2.7-.08-4.33 1.4-3.74.85l.03-.05c-.08-.1-6.88 4.4-7.84 24z"/><linearGradient id="G" x1="13.85" x2=".57" y1="55.8" y2="75.72" gradientUnits="userSpaceOnUse" gradientTransform="rotate(-35.87 17.144 54.254)"><stop offset=".06" stop-color="#de7210"/><stop offset="1" stop-color="#f2c072"/></linearGradient><path fill="url(#G)" d="M15.3 68.28s-1.75-10.08 2.02-15.04c3-3.95.37-2.02-1.03-1.45-1.47.6-2.03 1.75-1.83 1.32.2-.42-6.5 4.76.82 15.15z"/><linearGradient id="H" x1="21.03" x2="7.76" y1="49.27" y2="69.19" gradientUnits="userSpaceOnUse" gradientTransform="rotate(-35.87 17.144 54.254)"><stop offset=".06" stop-color="#de7210"/><stop offset="1" stop-color="#f2c072"/></linearGradient><path fill="url(#H)" d="M17.3 58.77s-1.75-10.07 2.02-15.03c3-3.96.37-2.02-1.03-1.45-1.47.6-2.03 1.75-1.83 1.32.2-.42-6.5 4.76.82 15.14z"/><linearGradient id="I" x1="12.31" x2="6.5" y1="37.86" y2="48.71" gradientUnits="userSpaceOnUse"><stop offset=".06" stop-color="#de7210"/><stop offset="1" stop-color="#eed8a5"/></linearGradient><path fill="url(#I)" d="M6.72 45s4.1-8.37 9.52-10.02c4.34-1.32 1.35-1.3.02-1.62-1.4-.34-2.43.23-2.06.02.37-.2-7.32.05-7.47 11.62z"/><linearGradient id="J" x1="11.73" x2="5.92" y1="44.49" y2="55.34" gradientUnits="userSpaceOnUse"><stop offset=".06" stop-color="#de7210"/><stop offset="1" stop-color="#eed8a5"/></linearGradient><path fill="url(#J)" d="M6.14 51.63s4.1-8.37 9.52-10.02c4.34-1.3 1.34-1.3.02-1.6-1.4-.33-2.44.24-2.06.03.37-.2-7.33.06-7.48 11.63z"/><linearGradient id="K" x1="18.31" x2="12.7" y1="39.89" y2="53.83" gradientUnits="userSpaceOnUse"><stop offset=".06" stop-color="#de7210"/><stop offset="1" stop-color="#f2c072"/></linearGradient><path fill="url(#K)" d="M9.1 49.8s7.22-14.77 16.8-17.68c7.65-2.32 2.4-2.3.03-2.86-2.47-.6-4.3.4-3.63.04.65-.37-12.93.08-13.2 20.5z"/><linearGradient id="L" x1="20.45" x2="7.17" y1="33.1" y2="53.02" gradientUnits="userSpaceOnUse"><stop offset=".06" stop-color="#de7210"/><stop offset="1" stop-color="#f2c072"/></linearGradient><path fill="url(#L)" d="M14.04 41.85s4.48-9.2 10.44-11c4.76-1.45 1.48-1.43.02-1.78-1.54-.37-2.67.25-2.26.02.4-.25-8.04.03-8.2 12.74z"/><linearGradient id="M" x1="21.34" x2="9.24" y1="37.13" y2="55.28" gradientUnits="userSpaceOnUse"><stop offset=".06" stop-color="#de7210"/><stop offset="1" stop-color="#f2c072"/></linearGradient><path fill="url(#M)" d="M15.5 45.1s4.1-8.38 9.52-10.03c4.33-1.32 1.35-1.3 0-1.62-1.38-.34-2.42.23-2.04.02.37-.2-7.33.05-7.48 11.62z"/><linearGradient id="N" x1="60.29" x2="61.24" y1="34.3" y2="36.01" gradientUnits="userSpaceOnUse"><stop offset="0" stop-color="#8b8b89"/><stop offset="1" stop-color="#120500"/></linearGradient><path fill="url(#N)" d="M62.34 34.87c-.04-.87-.17-1.16-4.35-1.23.46.22 1.3.66 2.2 1.4 1.2 1 1.4 2.08 1.5 3.22.4-.78.7-1.84.63-3.4z"/><linearGradient id="O" x1="22.56" x2="22.56" y1="28.49" y2="23.25" gradientUnits="userSpaceOnUse"><stop offset=".06" stop-color="#de7210"/><stop offset="1" stop-color="#f6c08f"/></linearGradient><path fill="url(#O)" d="M37.8 23.2l-3.62 5.84s-14.5-2.27-26.8 9.62c-1 .98 8.05-21.03 30.42-15.45z"/><linearGradient id="P" x1="23.01" x2="33.99" y1="34.75" y2="21.92" gradientUnits="userSpaceOnUse" gradientTransform="rotate(2.3 33.954 24.338)"><stop offset=".06" stop-color="#de7210"/><stop offset="1" stop-color="#f6c08f"/></linearGradient><path fill="url(#P)" d="M24.78 33.65s3.87-7.18 8.88-9.34c-2.6.1-8.4 2.1-8.88 9.36z"/><linearGradient id="Q" x1="15.51" x2="9.7" y1="33.51" y2="44.35" gradientUnits="userSpaceOnUse"><stop offset=".06" stop-color="#de7210"/><stop offset="1" stop-color="#eed8a5"/></linearGradient><path fill="url(#Q)" d="M9.92 40.65s4.1-8.38 9.52-10.03c4.34-1.3 1.35-1.3 0-1.62-1.38-.34-2.42.23-2.04.02.37-.2-7.33.05-7.48 11.63z"/><linearGradient id="R" x1="16.34" x2="27.07" y1="35.8" y2="23.27" gradientUnits="userSpaceOnUse" gradientTransform="rotate(5.96 21.63 35.315)"><stop offset=".06" stop-color="#de7210"/><stop offset="1" stop-color="#f6c08f"/></linearGradient><path fill="url(#R)" d="M18.48 34.74S22.7 28 27.72 26.2c-2.53-.1-8.33 1.52-9.24 8.54z"/><linearGradient id="S" x1="13.37" x2="26.26" y1="22.88" y2="24.64" gradientUnits="userSpaceOnUse" gradientTransform="rotate(5.2 27.104 24.746)"><stop offset=".06" stop-color="#de7210"/><stop offset="1" stop-color="#f6c08f"/></linearGradient><path fill="url(#S)" d="M25.7 23.2s-3.17 1.4-8.78-.93l5 2.5 3.8-1.56z"/><linearGradient id="T" x1="6.98" x2="25.18" y1="23.11" y2="25.6" gradientUnits="userSpaceOnUse"><stop offset=".06" stop-color="#de7210"/><stop offset="1" stop-color="#f6c08f"/></linearGradient><path fill="url(#T)" d="M24.18 24.1s-4.24 1.65-12.4-.8l6.98 2.78c.86-.8 5.4-1.97 5.4-1.97z"/><linearGradient id="U" x1="15.88" x2="27.72" y1="22.23" y2="23.85" gradientUnits="userSpaceOnUse" gradientTransform="rotate(5.2 27.104 24.746)"><stop offset=".06" stop-color="#de7210"/><stop offset="1" stop-color="#f6c08f"/></linearGradient><path fill="url(#U)" d="M27.27 22.76s-2.8.85-8-1.16l5 2.52c.52-.47 3-1.36 3-1.36z"/><linearGradient id="V" x1="15.2" x2="4.52" y1="26.94" y2="25.84" gradientUnits="userSpaceOnUse"><stop offset=".06" stop-color="#de7210"/><stop offset="1" stop-color="#f6c08f"/></linearGradient><path fill="url(#V)" d="M18.5 26s-2.1 1.73-7.45 1.8l4.63.15L18.5 26z"/><linearGradient id="W" x1="10.95" x2="25.72" y1="37.1" y2="19.84" gradientUnits="userSpaceOnUse" gradientTransform="rotate(5.96 21.63 35.315)"><stop offset=".06" stop-color="#de7210"/><stop offset="1" stop-color="#f6c08f"/></linearGradient><path fill="url(#W)" d="M13.4 34.87s7.16-9.32 13.05-11.43c-2.96-.1-11.97 3.2-13.04 11.43z"/></g><linearGradient id="X" x1="88.33" x2="117.26" y1="117.37" y2="72.74" gradientUnits="userSpaceOnUse"><stop offset="0" stop-color="#de5c01"/><stop offset=".74" stop-color="#fefd00"/><stop offset=".78" stop-color="#fefe26"/><stop offset=".84" stop-color="#fffe54"/><stop offset=".89" stop-color="#ffff76"/><stop offset=".93" stop-color="#ffff8b"/><stop offset=".96" stop-color="#ffff92"/></linearGradient><path fill="url(#X)" d="M124.2 50.76s.77 17.3-23.25 41.3C98.3 94.73 83.8 108.3 84.3 112.38c.18 1.44 38.03-5.8 39.9-61.62z"/><linearGradient id="Y" x1="105.16" x2="86.21" y1="22.74" y2="14.42" gradientUnits="userSpaceOnUse"><stop offset="0" stop-color="#f79a09"/><stop offset=".74" stop-color="#fefd00"/><stop offset=".78" stop-color="#fefe26"/><stop offset=".84" stop-color="#fffe54"/><stop offset=".89" stop-color="#ffff76"/><stop offset=".93" stop-color="#ffff8b"/><stop offset=".96" stop-color="#ffff92"/></linearGradient><path fill="url(#Y)" d="M77.64 10.1c28.93 2.22 34.53 23.02 34.53 21.74.07-20.22-27.44-21.75-34.53-21.74z"/><linearGradient id="Z" x1="117.88" x2="91.36" y1="41.73" y2="17.11" gradientUnits="userSpaceOnUse"><stop offset="0" stop-color="#de5c01"/><stop offset=".74" stop-color="#fefd00"/><stop offset=".78" stop-color="#fefe26"/><stop offset=".84" stop-color="#fffe54"/><stop offset=".89" stop-color="#ffff76"/><stop offset=".93" stop-color="#ffff8b"/><stop offset=".96" stop-color="#ffff92"/></linearGradient><path fill="url(#Z)" d="M86.45 18s20.05 4.1 25.7 25.36c.76 2.8-2.4-17.27-1.43-15.36.97 1.9-8.07-9.36-24.27-10z"/><linearGradient id="aa" x1="1.14" x2="-9.97" y1="145.45" y2="133.96" gradientUnits="userSpaceOnUse" gradientTransform="rotate(-1.62 -3656.64 -3767.36)"><stop offset="0" stop-color="#f79a09"/><stop offset=".74" stop-color="#fefd00"/><stop offset=".78" stop-color="#fefe26"/><stop offset=".84" stop-color="#fffe54"/><stop offset=".89" stop-color="#ffff76"/><stop offset=".93" stop-color="#ffff8b"/><stop offset=".96" stop-color="#ffff92"/></linearGradient><path fill="url(#aa)" d="M94.46 17.48s18.1 3.78 18.3 32.5c.12 20.35 3.13 7.65 6.12 3.08 2.58-3.95.82-8.76.76-8.75 0 0-1.3-3.72-.43-2.14.06.07-1.2-1.03-1.2-1.03.2-.03-.7-20.65-23.53-23.64z"/><linearGradient id="ab" x1="113.44" x2="119.69" y1="55.83" y2="34.33" gradientUnits="userSpaceOnUse"><stop offset="0" stop-color="#f79a09"/><stop offset=".74" stop-color="#fefd00"/><stop offset=".78" stop-color="#fefe26"/><stop offset=".84" stop-color="#fffe54"/><stop offset=".89" stop-color="#ffff76"/><stop offset=".93" stop-color="#ffff8b"/><stop offset=".96" stop-color="#ffff92"/></linearGradient><path fill="url(#ab)" d="M114.86 21.38s6.5 16.94-.4 25.37c-2.24 2.75-2.5 16.84.26 15.54 2.75-1.3 2.15 7.46 1.8 8.46-.02.02-.02.03 0 .03.17.1 13.58-21.67-1.66-49.43z"/><linearGradient id="ac" x1="-51.97" x2="-52.19" y1="212.79" y2="196.43" gradientUnits="userSpaceOnUse" gradientTransform="rotate(-2.36 -3658.052 -3762.183)"><stop offset="0" stop-color="#f79a09"/><stop offset=".74" stop-color="#fefd00"/><stop offset=".78" stop-color="#fefe26"/><stop offset=".84" stop-color="#fffe54"/><stop offset=".89" stop-color="#ffff76"/><stop offset=".93" stop-color="#ffff8b"/><stop offset=".96" stop-color="#ffff92"/></linearGradient><path fill="url(#ac)" d="M105.8 39.22s4.1 11.98-.18 20.56l3.24 7.24c2.38-5.84 5.4-18.2-3.05-27.8z"/><linearGradient id="ad" x1="-172.72" x2="-161.46" y1="332.08" y2="309.89" gradientUnits="userSpaceOnUse" gradientTransform="rotate(-4.05 -3665.396 -3730.748)"><stop offset="0" stop-color="#f79a09"/><stop offset=".74" stop-color="#fefd00"/><stop offset=".78" stop-color="#fefe26"/><stop offset=".84" stop-color="#fffe54"/><stop offset=".89" stop-color="#ffff76"/><stop offset=".93" stop-color="#ffff8b"/><stop offset=".96" stop-color="#ffff92"/></linearGradient><path fill="url(#ad)" d="M113.02 37.8s2.83 19.02-7.4 36.2c.17 3.97-.53 7.57-1.5 10.53.46.58 1.05 1 1.84 1.06l-1.03.9c-.6.25-1.24.54-1.85.83-.13.3-.26.6-.4.88.7-.47 1.45-1.04 2.25-1.72 2.1-.93 3.97-1.65 3.96-1.65l-1.3.48c-.64.23-1.18.3-1.65.27 7.9-7.2 18.7-23.3 7.06-47.8zm-11.9 50.58c-.9.53-1.57 1.02-1.7 1.4-.1.3.5.13 1.57-.47.03-.3.1-.6.1-.9z"/><linearGradient id="ae" x1="99.21" x2="100.72" y1="87.75" y2="63.17" gradientUnits="userSpaceOnUse" gradientTransform="rotate(-4.05 187.36 161.744)"><stop offset="0" stop-color="#de5c01"/><stop offset=".74" stop-color="#fefd00"/><stop offset=".78" stop-color="#fefe26"/><stop offset=".84" stop-color="#fffe54"/><stop offset=".89" stop-color="#ffff76"/><stop offset=".93" stop-color="#ffff8b"/><stop offset=".96" stop-color="#ffff92"/></linearGradient><path fill="url(#ae)" d="M100.4 58.06S108.48 81 82.73 102.5c-1.52 1.27 10.45.72 11.5.25 3.1-1.4 6.73-10.76 6.3-9.64-.42 1.14 11.96-16.52-.1-35.02z"/><linearGradient id="af" x1="58.37" x2="105.88" y1="113.86" y2="85.46" gradientUnits="userSpaceOnUse"><stop offset="0" stop-color="#b9120d"/><stop offset=".08" stop-color="#bb180d"/><stop offset=".18" stop-color="#c0290c"/><stop offset=".3" stop-color="#c8450a"/><stop offset=".43" stop-color="#d36c08"/><stop offset=".57" stop-color="#e29e05"/><stop offset=".72" stop-color="#f4da02"/><stop offset=".79" stop-color="#fefd00"/><stop offset=".81" stop-color="#fefd07"/><stop offset=".85" stop-color="#fefd1b"/><stop offset=".88" stop-color="#fefe3c"/><stop offset=".93" stop-color="#fffe69"/><stop offset=".97" stop-color="#ffffa3"/><stop offset="1" stop-color="#ffffc7"/></linearGradient><path fill="url(#af)" d="M111.68 72.6s-4.86 29.75-38.46 32.15c-13.16.93-32.05-2.14-30.38 2.87.52 1.56 3 8.05 8.64 9.55 15.27 4.08 55.9 2.74 60.2-44.56z"/><linearGradient id="ag" x1="54.24" x2="102.91" y1="93.58" y2="100.18" gradientUnits="userSpaceOnUse" gradientTransform="rotate(5.67 66.47 101.705)"><stop offset=".06" stop-color="#de7210"/><stop offset="1" stop-color="#f6c08f"/></linearGradient><path fill="url(#ag)" d="M83.66 95.12s-20.56 4.7-33.88-6.64c-12.2-10.38-6.14-1.65-4.5 2.66 1.7 4.42-7.84 1.05-9.28.34-1.43-.7 22.63 14.38 47.66 3.64z"/><linearGradient id="ah" x1="39.01" x2="95.52" y1="89.89" y2="107.65" gradientUnits="userSpaceOnUse" gradientTransform="rotate(8.32 47.227 95.202)"><stop offset=".06" stop-color="#de7210"/><stop offset="1" stop-color="#f6c08f"/></linearGradient><path fill="url(#ah)" d="M70.4 106.33S45.9 101.5 38.13 84.9c-6.64-14.2-4.88-3.8-5.18.94-.3 4.88-7.2-1.78-8.1-2.94-.04-.02-.05-.04-.06-.03-.14.08 12.64 20.13 45.62 23.45z"/><linearGradient id="ai" x1="-601.47" x2="-574.6" y1="628.96" y2="680.4" gradientUnits="userSpaceOnUse" gradientTransform="rotate(-10.36 -3298.864 -3083.507)"><stop offset=".06" stop-color="#de7210"/><stop offset="1" stop-color="#f6c08f"/></linearGradient><path fill="url(#ai)" d="M43.62 104.18s-11.72-9.08-17-21.52C22.18 81.12 16.28 77.6 16.17 77c1.87 9.66 11.74 20.95 27.45 27.18z"/></svg>