<svg xmlns="http://www.w3.org/2000/svg" height="52" width="52" viewBox="0 0 520 520" fill="#fff"><path d="M184 19l130 72a12 12 0 0 1 5 9v9a11 11 0 0 1-11 11H35a11 11 0 0 1-10-11V99c0-3 2-6 5-8l130-72c3-3 7-4 12-4s8 1 12 4zm-38 54c0 14 11 26 26 26s26-12 26-26-11-27-26-27-26 12-26 27zm73 186v-97a11 11 0 0 0-10-11h-11a11 11 0 0 0-10 11v116h-32V162a11 11 0 0 0-10-11h-11a11 11 0 0 0-10 11v116H93V162a11 11 0 0 0-10-11H72a11 11 0 0 0-10 11v116h-6a32 32 0 0 0-31 31v11a11 11 0 0 0 10 10h169a77 77 0 0 1-3-21c0-19 7-36 18-50zm63-28v-69a11 11 0 0 0-10-10h-11a11 11 0 0 0-10 10v74a78 78 0 0 1 29-5h2zm24 261l-1 2a4 4 0 0 1-3 1h-17l-3-1-2-2a4 4 0 0 1 0-2 4 4 0 0 1 0-2l129-236a5 5 0 0 1 1-1 6 6 0 0 1 3-1h19l2 3v3L306 492zm129-85a26 26 0 0 1 15 4 26 26 0 0 1 11 27 25 25 0 0 1-8 13 25 25 0 0 1-28 6 27 27 0 0 1-11-10 25 25 0 0 1-5-14 26 26 0 0 1 8-18 26 26 0 0 1 18-8zm0-34a60 60 0 0 0-42 102 60 60 0 0 0 30 17 60 60 0 0 0 35-4 60 60 0 0 0 37-55 60 60 0 0 0-4-23 61 61 0 0 0-13-20 60 60 0 0 0-20-13 60 60 0 0 0-23-4zm-154-86a26 26 0 0 1 25 31 25 25 0 0 1-7 13 26 26 0 0 1-13 7c-5 1-10 1-15-1a27 27 0 0 1-11-10 26 26 0 0 1 21-40zm0-34a59 59 0 0 0-33 10 60 60 0 0 0-23 27 59 59 0 0 0-3 34 61 61 0 0 0 47 48 59 59 0 0 0 35-4 60 60 0 0 0 37-55c0-16-6-32-17-43a60 60 0 0 0-43-17z"/></svg>