<svg viewBox="0 0 24 24" fill="currentColor" xmlns="http://www.w3.org/2000/svg"><path d="M19.5761 14.5764L15.7067 10.707C15.3162 10.3164 14.683 10.3164 14.2925 10.707L6.86484 18.1346C5.11358 16.6671 4 14.4636 4 12C4 7.58172 7.58172 4 12 4C16.4183 4 20 7.58172 20 12C20 12.9014 19.8509 13.7679 19.5761 14.5764ZM8.58927 19.2386L14.9996 12.8283L18.6379 16.4666C17.1992 18.6003 14.7613 19.9998 11.9996 19.9998C10.7785 19.9998 9.62345 19.7268 8.58927 19.2386ZM12 22C17.5228 22 22 17.5228 22 12C22 6.47715 17.5228 2 12 2C6.47715 2 2 6.47715 2 12C2 17.5228 6.47715 22 12 22ZM11 10C11 11.1046 10.1046 12 9 12C7.89543 12 7 11.1046 7 10C7 8.89543 7.89543 8 9 8C10.1046 8 11 8.89543 11 10Z"/></svg>