<?xml version="1.0" encoding="UTF-8" standalone="no"?>
<!-- Generator: Adobe Illustrator 16.0.0, SVG Export Plug-In . SVG Version: 6.00 Build 0)  -->

<svg
   xmlns:dc="http://purl.org/dc/elements/1.1/"
   xmlns:cc="http://creativecommons.org/ns#"
   xmlns:rdf="http://www.w3.org/1999/02/22-rdf-syntax-ns#"
   xmlns:svg="http://www.w3.org/2000/svg"
   xmlns="http://www.w3.org/2000/svg"
   xmlns:sodipodi="http://sodipodi.sourceforge.net/DTD/sodipodi-0.dtd"
   xmlns:inkscape="http://www.inkscape.org/namespaces/inkscape"
   version="1.1"
   id="Layer_1"
   x="0px"
   y="0px"
   width="64px"
   height="64px"
   viewBox="0 0 64 64"
   enable-background="new 0 0 64 64"
   xml:space="preserve"
   inkscape:version="0.48.5 r10040"
   sodipodi:docname="1F1E8-1F1F3.svg"
   inkscape:export-filename="D:\TESTINGEMOJI\SVGTEST\1F1E8-1F1F3.png"
   inkscape:export-xdpi="90"
   inkscape:export-ydpi="90"><metadata
   id="metadata3033"><rdf:RDF><cc:Work
       rdf:about=""><dc:format>image/svg+xml</dc:format><dc:type
         rdf:resource="http://purl.org/dc/dcmitype/StillImage" /><dc:title></dc:title></cc:Work></rdf:RDF></metadata><defs
   id="defs3031" /><sodipodi:namedview
   pagecolor="#ffffff"
   bordercolor="#666666"
   borderopacity="1"
   objecttolerance="10"
   gridtolerance="10"
   guidetolerance="10"
   inkscape:pageopacity="0"
   inkscape:pageshadow="2"
   inkscape:window-width="640"
   inkscape:window-height="480"
   id="namedview3029"
   showgrid="false"
   inkscape:zoom="5.953125"
   inkscape:cx="32"
   inkscape:cy="32"
   inkscape:window-x="614"
   inkscape:window-y="321"
   inkscape:window-maximized="0"
   inkscape:current-layer="Layer_1" />
<g
   id="g3011">
	<g
   id="g3013">
		<path
   fill="#EC1C24"
   d="M57.105,12.761H6.893c-3.81,0-6.898,3.693-6.898,8.25v5.596v13.849v5.601c0,4.555,3.087,8.252,6.9,8.252    h50.214c3.807,0,6.895-3.697,6.895-8.252v-5.601V26.607v-5.596C64.004,16.454,60.916,12.761,57.105,12.761z"
   id="path3015" />
	</g>
	<path
   fill="#C32129"
   d="M6.895,12.968c-3.813,0-6.9,3.657-6.9,8.168v5.542l0,0v13.712l0,0v5.541c0,4.512,3.087,8.168,6.9,8.168   h12.217V40.391l0,0V26.678l0,0v-13.71H6.895z"
   id="path3017" />
	<polygon
   fill="#F9CB38"
   points="15.366,21.292 17.551,25.721 22.434,26.43 18.899,29.875 19.733,34.743 15.366,32.445    10.996,34.743 11.83,29.875 8.295,26.43 13.18,25.721  "
   id="polygon3019" />
	<polygon
   fill="#F9CB38"
   points="23.387,17.558 23.994,18.787 25.35,18.984 24.369,19.942 24.6,21.292 23.387,20.653 22.176,21.292    22.405,19.942 21.424,18.984 22.781,18.787  "
   id="polygon3021" />
	<polygon
   fill="#F9CB38"
   points="27.313,21.977 27.918,23.205 29.275,23.403 28.294,24.362 28.524,25.711 27.313,25.073    26.1,25.711 26.33,24.362 25.35,23.403 26.705,23.205  "
   id="polygon3023" />
	<polygon
   fill="#F9CB38"
   points="27.313,29.069 27.918,30.3 29.275,30.496 28.294,31.454 28.524,32.805 27.313,32.167 26.1,32.805    26.33,31.454 25.35,30.496 26.705,30.3  "
   id="polygon3025" />
	<polygon
   fill="#F9CB38"
   points="23.387,34.047 23.994,35.277 25.35,35.475 24.369,36.43 24.6,37.782 23.387,37.146 22.176,37.782    22.405,36.43 21.424,35.475 22.781,35.277  "
   id="polygon3027" />
</g>
</svg>