<?xml version="1.0" encoding="utf-8"?>
<!-- Generator: Adobe Illustrator 16.0.0, SVG Export Plug-In . SVG Version: 6.00 Build 0)  -->
<!DOCTYPE svg PUBLIC "-//W3C//DTD SVG 1.1//EN" "http://www.w3.org/Graphics/SVG/1.1/DTD/svg11.dtd">
<svg version="1.1"
	 id="Layer_1" xmlns:dc="http://purl.org/dc/elements/1.1/" xmlns:cc="http://creativecommons.org/ns#" xmlns:rdf="http://www.w3.org/1999/02/22-rdf-syntax-ns#" xmlns:svg="http://www.w3.org/2000/svg" xmlns:sodipodi="http://sodipodi.sourceforge.net/DTD/sodipodi-0.dtd" xmlns:inkscape="http://www.inkscape.org/namespaces/inkscape" inkscape:export-ydpi="90" inkscape:export-xdpi="90" inkscape:export-filename="D:\TESTINGEMOJI\SVGTEST\1F355.png" sodipodi:docname="1F355.svg" inkscape:version="0.48.5 r10040"
	 xmlns="http://www.w3.org/2000/svg" xmlns:xlink="http://www.w3.org/1999/xlink" x="0px" y="0px" width="64px" height="64px"
	 viewBox="0 0 64 64" enable-background="new 0 0 64 64" xml:space="preserve">
<sodipodi:namedview  inkscape:cy="32" inkscape:cx="32" inkscape:zoom="3.6875" showgrid="false" guidetolerance="10" gridtolerance="10" objecttolerance="10" bordercolor="#666666" pagecolor="#ffffff" borderopacity="1" id="namedview3933" inkscape:window-height="480" inkscape:window-width="640" inkscape:pageshadow="2" inkscape:pageopacity="0" inkscape:current-layer="Layer_1" inkscape:window-maximized="0" inkscape:window-y="242" inkscape:window-x="452">
	</sodipodi:namedview>
<g>
	<path fill="#D2903F" d="M5.877,19.222c-7.388-0.737-6.559-6.427-0.174-9.497c2.52-1.211,7.041,0.206,10.555-0.865
		c4.034-1.231,8.505-2.273,12.912-2.913c4.05-0.586,16.784-1.382,20.339-1.119c6.704,0.495,8.445,1.085,9.596,2.966
		c1.148,1.881-2.478,5.357-4.624,5.534c-2.425,0.199-4.731-2.988-7.801-2.994c-3.064-0.005-5.775,0.01-7.51,0.51
		c-5.506,1.584-13.15,4.134-18.646,5.279C13.935,17.498,8.219,19.457,5.877,19.222z"/>
</g>
<path fill="#BF803C" d="M9.543,13.159c-0.34-0.796-1.043-1.383-1.919-1.551c-1.583-0.054-3.368,1.099-4.547,1.099h0.002
	c-0.144,0-0.281,0.261-0.406,0.388c-1.536,1.559-1.341,3.907,0.705,4.761c0.199,0.092,0.401,0.169,0.606,0.22
	c0.006,0.002,0.013,0.008,0.019,0.01c0.185,0.048,0.375,0.081,0.563,0.1c0.036,0.003,0.074,0.005,0.109,0.007
	c0.161,0.012,0.321,0.013,0.483,0.005c0.047-0.002,0.092-0.005,0.142-0.011c0.149-0.012,0.304-0.034,0.453-0.064
	c0.047-0.009,0.096-0.017,0.149-0.027c0.155-0.034,0.31-0.08,0.46-0.132c0.04-0.012,0.078-0.021,0.118-0.035
	c0.187-0.068,0.366-0.145,0.547-0.233c0.049-0.024,0.094,0.089,0.146,0.063c0.108-0.058,0.219-0.034,0.319-0.034H7.482
	C9.145,16.051,10.25,14.709,9.543,13.159z"/>
<g>
	<path fill="#D18E3D" d="M49.979,13.236c10.081,4.522,12.646,37.369,9.648,44.075c-3.037,6.724-19.327-9.705-29.406-17.688
		c-8.092-6.428-20.115-15.765-22-21.357c-0.527-1.577,3.06,0.06,3.725-1.42C14.98,10.141,39.872,8.695,49.979,13.236z"/>
</g>
<g>
	<path fill="#F2AD5A" d="M52.523,11.961c7.658,3.436,10.21,25.455,9.257,36.886c-0.208,2.505,1.578,6.082,1.049,7.261
		c-0.821,1.825-3.135,4.931-3.834,0.469c-0.099-0.646-2.624-0.34-3.28-0.714c-6.612-3.797-16.088-12.943-22.186-17.908
		c-9.535-7.789-19.591-15.152-16.635-21.734C19.867,9.655,43.162,7.755,52.523,11.961z"/>
</g>
<path fill="#F2AD5A" d="M52.576,40.292c-2.533-5.521-11.129-14.929-17.235-8.701c-0.121,0.125-0.18,0.26-0.214,0.4
	c-0.36,0.119-0.649,0.442-0.539,0.922c0.349,1.552,1.103,5.564,0.219,8.405c-0.994,3.192-2.715,5.12-1.514,6.578
	c1.199,1.454,3.089,1.598,4.171-0.098c0.738-1.156-1.396-6.238,0.861-6.298c0.214-0.006,2.001-0.493,2.491,0.032
	c0.586,0.622,0.998,1.609,1.407,2.351c1.361,2.46,2.242,4.235,4.804,5.562c0.083,0.079,0.186,0.144,0.311,0.192
	c3.006,1.093-0.152,7.933-0.152,10.215c0,3.974,1.504,4.533,4.063,3.487c1.765-0.722,0.22-3.62,0.199-6.688
	c-0.008-1.383,2.119-3.236,1.83-4.178c-0.708-2.33,0.604-4.726,0.784-7.071C54.193,43.668,53.283,41.821,52.576,40.292z"/>
<path fill="#F2AD5A" d="M34.119,27.918c-2.533-5.518-11.133-14.927-17.236-8.7c-0.123,0.124-0.183,0.261-0.217,0.4
	c-0.359,0.119-0.65,0.441-0.539,0.923c0.35,1.553,1.104,5.563,0.217,8.404c-0.989,3.192-2.714,5.119-1.511,6.575
	c1.199,1.456,3.088,1.601,4.171-0.097c0.738-1.156-1.394-6.237,0.859-6.295c0.216-0.005,2.004-0.493,2.493,0.033
	c0.584,0.621,0.996,1.608,1.404,2.347c1.366,2.461,2.246,4.237,4.809,5.563c0.079,0.08,0.179,0.144,0.308,0.19
	c3.006,1.094-0.153,7.937-0.153,10.218c0,3.975,1.507,4.533,4.065,3.487c1.764-0.722,0.215-3.623,0.198-6.691
	c-0.006-1.377,2.117-3.234,1.83-4.173c-0.71-2.332,0.603-4.726,0.784-7.071C35.734,31.298,34.821,29.447,34.119,27.918z"/>
<g>
	<g>
		<path fill="#8E3944" d="M55.698,16.843c1.577,2.982-5.523,5.095-10.26,2.673c-3.09-1.48-3.094-3.778-0.491-4.776
			c1.955-0.75,5.178-0.532,7.936,0.095C54.232,15.28,55.274,15.972,55.698,16.843z"/>
	</g>
	<g>
		<path fill="#702F39" d="M47.42,18.949c-0.558-0.565-1.738-0.853-2.268-1.431c-0.472-0.506-0.66-0.934-0.644-1.467
			c0.027-0.574,0.464-1.087,1.111-1.518c-0.24,0.059-0.473,0.127-0.681,0.21c-2.604,0.998-2.599,3.296,0.492,4.776
			c2.019,1.031,4.469,1.24,6.489,0.907C50.126,20.256,48.366,19.905,47.42,18.949z"/>
	</g>
	<g>
		<path fill="#8A5F3D" d="M46.148,17.902c0.393-0.103,1.659,0.365,1.844,0.522c0.178,0.155-0.785,0.176-1.307,0.223
			c-0.531,0.049-1.063,0.113-1.245-0.042C45.266,18.45,45.764,18.004,46.148,17.902z"/>
	</g>
	<g>
		<path fill="#8A5F3D" d="M50.758,16.995c0.375,0.06,0.753,0.669,0.714,0.805c-0.044,0.134-0.735-0.135-1.142-0.259
			c-0.423-0.128-0.859-0.248-0.813-0.383C49.561,17.024,50.38,16.936,50.758,16.995z"/>
	</g>
	<g>
		<path fill="#8A5F3D" d="M50.327,15.562c-0.021,0.142,0.725,0.439,0.924,0.463c0.196,0.023,0.015-0.283-0.046-0.454
			c-0.063-0.178-0.111-0.354-0.308-0.379C50.703,15.168,50.348,15.419,50.327,15.562z"/>
	</g>
	<g>
		<path fill="#8A5F3D" d="M48.398,15.247c-0.172-0.126-1.035-0.116-1.19-0.066c-0.16,0.049,0.354,0.244,0.616,0.369
			c0.266,0.128,0.528,0.262,0.684,0.212C48.667,15.711,48.57,15.378,48.398,15.247z"/>
	</g>
	<g>
		<path fill="#8A5F3D" d="M54.617,16.492c-0.197-0.118-1.034-0.051-1.178,0.008c-0.14,0.061,0.405,0.227,0.686,0.335
			c0.291,0.111,0.578,0.23,0.72,0.17C54.987,16.945,54.815,16.612,54.617,16.492z"/>
	</g>
	<g>
		<path fill="#8A5F3D" d="M44.37,16.138c-0.022,0.143,0.725,0.439,0.921,0.462c0.199,0.022,0.016-0.282-0.045-0.452
			c-0.064-0.177-0.109-0.356-0.309-0.381C44.738,15.745,44.393,15.995,44.37,16.138z"/>
	</g>
	<g>
		<path fill="#8A5F3D" d="M49.11,19.995c0.274,0.063,0.873-0.222,0.922-0.317c0.052-0.097-0.537-0.106-0.867-0.132
			c-0.336-0.029-0.68-0.068-0.73,0.028C48.381,19.667,48.84,19.937,49.11,19.995z"/>
	</g>
	<g>
		<path fill="#8A5F3D" d="M51.793,18.486c0.382-0.273,2.553,0.005,2.968,0.177c0.417,0.169-0.797,0.513-1.404,0.747
			c-0.623,0.242-1.226,0.506-1.641,0.337C51.301,19.575,51.413,18.761,51.793,18.486z"/>
	</g>
</g>
<g>
	<path fill="#2BB573" d="M50.164,21.359c0.672-0.325,2.494,0.975,2.717,1.428c0.223,0.451-1.332,0.583-2.178,0.761
		c-0.879,0.179-1.756,0.409-1.978-0.043C48.504,23.055,49.498,21.689,50.164,21.359z"/>
</g>
<g>
	<path fill="#2BB573" d="M58.11,34.669c1.653,0.582,2.486,5.794,2.097,6.915c-0.393,1.114-3.181-1.27-4.882-2.4
		c-1.751-1.168-3.584-2.255-3.188-3.375C52.525,34.69,56.453,34.095,58.11,34.669z"/>
</g>
<g>
	<path fill="#2BB573" d="M33.254,28.746c0.98-0.244,3.035,2.002,3.207,2.666c0.16,0.661-1.942,0.398-3.115,0.393
		c-1.214-0.008-2.44,0.05-2.606-0.614C30.569,30.529,32.275,28.995,33.254,28.746z"/>
</g>
<g>
	<path fill="#2BB573" d="M53.776,25.582c0.979-0.244,3.034,2.002,3.205,2.665c0.164,0.661-1.937,0.397-3.113,0.393
		c-1.215-0.008-2.44,0.049-2.609-0.616C51.092,27.363,52.794,25.829,53.776,25.582z"/>
</g>
<g>
	<path fill="#2BB573" d="M45.459,36.613c0.979-0.243,3.034,2.002,3.203,2.664c0.167,0.662-1.934,0.397-3.111,0.394
		c-1.215-0.007-2.441,0.049-2.611-0.615C42.775,38.396,44.479,36.86,45.459,36.613z"/>
</g>
<g>
	<path fill="#04A69C" d="M41.965,26.652c1.211-1.334,6.466-0.045,7.369,0.768c0.902,0.808-2.466,2.503-4.209,3.653
		c-1.797,1.19-3.557,2.489-4.456,1.671C39.765,31.931,40.762,27.989,41.965,26.652z"/>
</g>
<g>
	<g>
		<path fill="#8E3944" d="M52.482,39.042c1.311,3.285-3.208,7.701-6.568,5.915c-2.183-1.038-2.393-3.883-0.751-5.779
			c1.226-1.422,3.383-1.976,5.27-1.901C51.372,37.479,52.122,38.069,52.482,39.042z"/>
	</g>
	<g>
		<path fill="#702F39" d="M47.178,43.748c-0.423-0.553-1.231-0.609-1.632-1.187c-0.358-0.509-0.525-0.986-0.556-1.651
			c-0.037-0.716,0.21-1.462,0.594-2.156c-0.149,0.131-0.299,0.274-0.427,0.43c-1.644,1.896-1.432,4.738,0.751,5.777
			c1.435,0.764,3.075,0.396,4.389-0.529C49.096,44.678,47.893,44.693,47.178,43.748z"/>
	</g>
	<g>
		<path fill="#8A5F3D" d="M46.242,42.78c0.25-0.227,1.135,0.03,1.267,0.178c0.13,0.145-0.504,0.418-0.844,0.608
			c-0.351,0.197-0.696,0.412-0.832,0.265C45.703,43.684,45.991,43.007,46.242,42.78z"/>
	</g>
	<g>
		<path fill="#8A5F3D" d="M49.219,40.485c0.252-0.021,0.557,0.637,0.545,0.813c-0.017,0.179-0.502,0.023-0.78-0.03
			C48.695,41.216,48.395,41.18,48.41,41C48.427,40.825,48.964,40.51,49.219,40.485z"/>
	</g>
	<g>
		<path fill="#8A5F3D" d="M48.801,38.825c0,0.181,0.523,0.358,0.657,0.336c0.131-0.022-0.016-0.354-0.073-0.552
			c-0.057-0.2-0.103-0.408-0.232-0.387C49.014,38.243,48.803,38.644,48.801,38.825z"/>
	</g>
	<g>
		<path fill="#8A5F3D" d="M47.495,38.928c-0.124-0.115-0.696,0.119-0.797,0.22c-0.1,0.103,0.259,0.213,0.442,0.301
			c0.187,0.087,0.376,0.188,0.472,0.087C47.711,39.433,47.62,39.044,47.495,38.928z"/>
	</g>
	<g>
		<path fill="#8A5F3D" d="M51.732,38.882c-0.142-0.095-0.693,0.2-0.78,0.31c-0.089,0.111,0.288,0.177,0.485,0.237
			c0.204,0.064,0.402,0.142,0.493,0.03C52.02,39.349,51.874,38.98,51.732,38.882z"/>
	</g>
	<g>
		<path fill="#8A5F3D" d="M44.901,41.053c0,0.183,0.521,0.359,0.652,0.337c0.135-0.022-0.015-0.351-0.071-0.548
			c-0.057-0.199-0.101-0.411-0.236-0.389C45.113,40.472,44.904,40.875,44.901,41.053z"/>
	</g>
	<g>
		<path fill="#8A5F3D" d="M48.395,44.616c0.186,0.005,0.556-0.498,0.58-0.63c0.028-0.129-0.365,0.008-0.584,0.057
			c-0.229,0.053-0.455,0.09-0.483,0.227C47.881,44.397,48.208,44.609,48.395,44.616z"/>
	</g>
	<g>
		<path fill="#8A5F3D" d="M50.036,42.065c0.23-0.433,1.696-0.642,1.987-0.537c0.289,0.104-0.482,0.836-0.863,1.282
			c-0.396,0.457-0.771,0.938-1.063,0.832C49.808,43.536,49.808,42.502,50.036,42.065z"/>
	</g>
</g>
<g>
	<g>
		<path fill="#8E3944" d="M39.213,18.533c2.212,4.464-5.417,10.466-11.09,8.039c-3.687-1.416-4.038-5.274-1.271-7.852
			c2.07-1.934,5.715-2.685,8.903-2.586C37.334,16.413,38.601,17.215,39.213,18.533z"/>
	</g>
	<g>
		<path fill="#702F39" d="M30.256,24.929c-0.708-0.754-2.079-0.827-2.755-1.614c-0.605-0.688-0.886-1.341-0.941-2.241
			c-0.061-0.974,0.351-1.989,1.01-2.932c-0.257,0.181-0.504,0.375-0.729,0.584c-2.769,2.578-2.412,6.435,1.271,7.852
			c2.418,1.036,5.196,0.537,7.407-0.722C33.488,26.191,31.461,26.209,30.256,24.929z"/>
	</g>
	<g>
		<path fill="#8A5F3D" d="M28.677,23.612c0.421-0.306,1.911,0.044,2.136,0.243c0.227,0.197-0.854,0.568-1.422,0.827
			c-0.592,0.268-1.175,0.557-1.402,0.358C27.767,24.84,28.256,23.919,28.677,23.612z"/>
	</g>
	<g>
		<path fill="#8A5F3D" d="M33.695,20.494c0.435-0.026,0.946,0.868,0.924,1.108c-0.028,0.238-0.845,0.027-1.316-0.043
			c-0.489-0.07-0.995-0.122-0.969-0.363C32.362,20.958,33.269,20.528,33.695,20.494z"/>
	</g>
	<g>
		<path fill="#8A5F3D" d="M33,18.237c0,0.247,0.877,0.487,1.105,0.458c0.223-0.028-0.028-0.479-0.123-0.746
			c-0.096-0.274-0.174-0.559-0.398-0.527C33.357,17.447,33.004,17.991,33,18.237z"/>
	</g>
	<g>
		<path fill="#8A5F3D" d="M30.792,18.378c-0.211-0.155-1.174,0.161-1.344,0.299c-0.17,0.139,0.433,0.291,0.746,0.407
			c0.318,0.121,0.633,0.258,0.801,0.119C31.161,19.066,31.004,18.539,30.792,18.378z"/>
	</g>
	<g>
		<path fill="#8A5F3D" d="M37.947,18.318c-0.242-0.132-1.169,0.27-1.316,0.42c-0.152,0.15,0.485,0.241,0.816,0.322
			c0.344,0.087,0.682,0.19,0.83,0.041C38.43,18.95,38.186,18.45,37.947,18.318z"/>
	</g>
	<g>
		<path fill="#8A5F3D" d="M26.414,21.267c-0.002,0.249,0.878,0.488,1.103,0.457c0.223-0.029-0.024-0.478-0.121-0.744
			c-0.098-0.275-0.173-0.559-0.402-0.53C26.768,20.478,26.416,21.021,26.414,21.267z"/>
	</g>
	<g>
		<path fill="#8A5F3D" d="M32.312,26.104c0.313,0.008,0.938-0.677,0.979-0.852c0.042-0.179-0.617,0.008-0.989,0.077
			c-0.382,0.07-0.769,0.123-0.818,0.302C31.44,25.806,31.998,26.098,32.312,26.104z"/>
	</g>
	<g>
		<path fill="#8A5F3D" d="M35.084,22.643c0.385-0.589,2.861-0.874,3.351-0.73c0.492,0.142-0.813,1.136-1.456,1.741
			c-0.665,0.622-1.3,1.274-1.793,1.131C34.698,24.641,34.698,23.234,35.084,22.643z"/>
	</g>
</g>
</svg>
