<?xml version="1.0" encoding="UTF-8" standalone="no"?>
<!-- Generator: Adobe Illustrator 16.0.0, SVG Export Plug-In . SVG Version: 6.00 Build 0)  -->

<svg
   xmlns:dc="http://purl.org/dc/elements/1.1/"
   xmlns:cc="http://creativecommons.org/ns#"
   xmlns:rdf="http://www.w3.org/1999/02/22-rdf-syntax-ns#"
   xmlns:svg="http://www.w3.org/2000/svg"
   xmlns="http://www.w3.org/2000/svg"
   xmlns:sodipodi="http://sodipodi.sourceforge.net/DTD/sodipodi-0.dtd"
   xmlns:inkscape="http://www.inkscape.org/namespaces/inkscape"
   version="1.1"
   id="Layer_1"
   x="0px"
   y="0px"
   width="64px"
   height="64px"
   viewBox="0 0 64 64"
   enable-background="new 0 0 64 64"
   xml:space="preserve"
   inkscape:version="0.48.5 r10040"
   sodipodi:docname="1F368.svg"
   inkscape:export-filename="D:\TESTINGEMOJI\SVGTEST\1F368.png"
   inkscape:export-xdpi="90"
   inkscape:export-ydpi="90"><metadata
   id="metadata5543"><rdf:RDF><cc:Work
       rdf:about=""><dc:format>image/svg+xml</dc:format><dc:type
         rdf:resource="http://purl.org/dc/dcmitype/StillImage" /><dc:title></dc:title></cc:Work></rdf:RDF></metadata><defs
   id="defs5541" /><sodipodi:namedview
   pagecolor="#ffffff"
   bordercolor="#666666"
   borderopacity="1"
   objecttolerance="10"
   gridtolerance="10"
   guidetolerance="10"
   inkscape:pageopacity="0"
   inkscape:pageshadow="2"
   inkscape:window-width="640"
   inkscape:window-height="480"
   id="namedview5539"
   showgrid="false"
   inkscape:zoom="3.6875"
   inkscape:cx="32"
   inkscape:cy="32"
   inkscape:window-x="137"
   inkscape:window-y="180"
   inkscape:window-maximized="0"
   inkscape:current-layer="Layer_1" />
<g
   id="g5485">
	<path
   fill="#E6E6E6"
   d="M61.556,30.239c0-6.317-12.925-6.731-28.888-6.731c-15.961,0-28.889,0.414-28.889,6.731   c0,6.311,12.928,21.883,28.889,21.883C48.631,52.122,61.556,36.55,61.556,30.239z"
   id="path5487" />
</g>
<g
   id="g5489">
	<path
   fill="#C8CCCE"
   d="M27.939,42.294c-4.284-5.273-6.512-13.48-2.666-18.729c-12.362,0.23-21.484,1.37-21.484,6.674   c0,6.311,12.93,21.883,28.889,21.883c3.147,0,6.171-0.611,9.003-1.629C36.186,48.691,31.138,46.228,27.939,42.294z"
   id="path5491" />
</g>
<g
   id="g5493">
	<path
   fill="#BCBDBF"
   d="M61.385,30.482c0,4.672-12.856,8.454-28.714,8.454c-15.861,0-28.718-3.782-28.718-8.454   c0-4.668,12.857-8.453,28.718-8.453C48.528,22.029,61.385,25.814,61.385,30.482z"
   id="path5495" />
</g>
<g
   id="g5497">
	<ellipse
   fill="#04A69C"
   cx="32.67"
   cy="31.22"
   rx="27.999"
   ry="7.717"
   id="ellipse5499" />
</g>
<g
   id="g5501">
	<path
   fill="#BE202E"
   d="M30.9,0.708c0,0-28.323,4.743-19.162,13.877l30.493,7.714l10.363-2.904c0,0,10.366-6.582-12.537-11.605   c0,0-13.702-2.688-7.633-6.161C32.425,1.628,33.553,0.637,30.9,0.708z"
   id="path5503" />
</g>
<g
   id="g5505">
	<path
   fill="#A41E2C"
   d="M39.975,7.789c0,0-13.706-2.688-7.637-6.161c0,0,1.124-0.992-1.524-0.921c0,0-2.631,0.444-6.022,1.311   c-4.444,3.28,8.231,5.771,8.231,5.771c22.905,5.023,12.538,11.605,12.538,11.605l-7.066,1.978l3.646,0.926l10.364-2.904   C52.505,19.395,62.874,12.813,39.975,7.789z"
   id="path5507" />
</g>
<g
   id="g5509">
	<path
   fill="#FDE3D2"
   d="M13.302,21.592c0,0-12.775,3.394-9.64,10.897c0,0,18.121,14.863,53.414,4.005   c5.574-1.715,11.656-8.515-8.218-13.843l-20.21-3.791L13.302,21.592z"
   id="path5511" />
</g>
<g
   id="g5513">
	<path
   fill="#EDCCB4"
   d="M7.758,17.766c0,0,3.379-5.375,19.89-5.163c0,0,19.402,0.209,26.634,8.069c0,0,2.753,1.342,0.656,4.456   c0,0-16.444-5.093-29.343-3.324c0,0-9.159,2.263-13.136,2.334c0,0-7.502-1.017-4.701-6.016"
   id="path5515" />
</g>
<g
   id="g5517">
	<path
   fill="#CBAA92"
   d="M54.282,20.672c-7.232-7.859-26.634-8.069-26.634-8.069c-1.361-0.018-2.617,0.006-3.802,0.056   c4.76,0.245,19.076,1.508,25.063,8.013c0,0,1.989,0.979,1.281,3.197c2.913,0.693,4.749,1.259,4.749,1.259   C57.035,22.014,54.282,20.672,54.282,20.672z"
   id="path5519" />
</g>
<g
   id="g5521">
	<path
   fill="#F1F1F2"
   d="M27.179,2.713c0,0-12.752,2.823-12.231,6.139c0.523,3.317-0.014,0.245-0.014,0.245s1.895,1.291,4.197,0.368   c2.3-0.92,2.803-4.685,8.048-6.261C32.425,1.628,27.179,2.713,27.179,2.713z"
   id="path5523" />
</g>
<g
   id="g5525">
	<path
   fill="#F1F1F2"
   d="M18.366,14.319c0,0-7.993,0.38-8.45,5.508c0,0,0.73,4.477,10.102,1.939c0,0,2.207-0.432,0-1.401   c0,0-9.189-2.482-2.663-5.021C17.355,15.344,20.569,14.535,18.366,14.319z"
   id="path5527" />
</g>
<g
   id="g5529">
	<path
   fill="#FFFFFF"
   d="M7.416,28.374c0,0-1.431-2.553,3.765-2.676c5.199-0.126,7.211,0.561,10.395,2.956   c3.183,2.399,13.622,3.458,13.622,3.458s8.591-0.375,9.652-0.903c0,0,1.536,0.217-1.433,1.057   c-2.968,0.843-13.624,2.739-18.604,2.492c-4.988-0.252-9.282,0.434-14.264-3.114C5.563,28.093,7.546,28.721,7.416,28.374z"
   id="path5531" />
</g>
<path
   fill="#C8CCCE"
   d="M35,62.149C35,63.172,34.172,64,33.149,64h-0.299C31.829,64,31,63.172,31,62.149V49.851  C31,48.828,31.829,48,32.851,48h0.299C34.172,48,35,48.828,35,49.851V62.149z"
   id="path5533" />
<g
   id="g5535">
	<ellipse
   fill="#C8CCCE"
   cx="32.847"
   cy="60.132"
   rx="14.038"
   ry="3.776"
   id="ellipse5537" />
</g>
</svg>