<?xml version="1.0" encoding="utf-8"?>
<!-- Generator: Adobe Illustrator 16.0.0, SVG Export Plug-In . SVG Version: 6.00 Build 0)  -->
<!DOCTYPE svg PUBLIC "-//W3C//DTD SVG 1.1//EN" "http://www.w3.org/Graphics/SVG/1.1/DTD/svg11.dtd">
<svg version="1.1" id="Layer_1" xmlns="http://www.w3.org/2000/svg" xmlns:xlink="http://www.w3.org/1999/xlink" x="0px" y="0px"
	 width="64px" height="64px" viewBox="0 0 64 64" enable-background="new 0 0 64 64" xml:space="preserve">
<g>
	<g>
		<path fill="#28A6DE" d="M32.262,36.225c0,2.053-2.132,3.72-4.76,3.72c-2.624,0-4.758-1.667-4.758-3.72
			c0-2.052,2.134-3.716,4.758-3.716C30.129,32.508,32.262,34.173,32.262,36.225z"/>
	</g>
	<g>
		<path fill="#28A6DE" d="M32.262,36.616c0,0.566-0.458,1.025-1.022,1.025l0,0c-0.568,0-1.029-0.459-1.029-1.025V19.187
			c0-0.566,0.461-1.023,1.029-1.023l0,0c0.564,0,1.022,0.458,1.022,1.023V36.616z"/>
	</g>
</g>
<g>
	<g>
		<path fill="#28A6DE" d="M40.753,50.724c0,2.723-2.826,4.934-6.313,4.934c-3.491,0-6.313-2.211-6.313-4.934
			c0-2.726,2.822-4.933,6.313-4.933C37.927,45.791,40.753,47.998,40.753,50.724z"/>
	</g>
	<g>
		<path fill="#28A6DE" d="M40.753,51.245c0,0.751-0.609,1.358-1.359,1.358l0,0c-0.754,0-1.359-0.607-1.359-1.358v-23.13
			c0-0.754,0.605-1.364,1.359-1.364l0,0c0.75,0,1.359,0.61,1.359,1.364V51.245z"/>
	</g>
</g>
<path fill="none" d="M53.99,38.244c0.265-1.392,0.416-2.821,0.416-4.287c0-12.492-10.164-22.657-22.657-22.657
	c-12.496,0-22.661,10.165-22.661,22.657c0,1.466,0.152,2.896,0.419,4.287H53.99z"/>
<path fill="#56787F" d="M31.749,6.833c-14.958,0-27.125,12.169-27.125,27.124c0,1.389,0.128,2.218,0.396,3.823L5.157,38h5.577
	l-0.231-0.577c-0.267-1.384-0.402-2.446-0.402-3.78c0-11.933,9.711-21.487,21.648-21.487c11.935,0,21.645,9.789,21.645,21.725
	c0,1.325-0.134,2.117-0.399,3.506L52.765,38h5.571l0.14-0.22c0.268-1.613,0.398-2.755,0.398-4.138
	C58.874,18.688,46.707,6.833,31.749,6.833z"/>
<path fill="#34484C" d="M63.165,53.34c0,4.568-4.138,8.271-9.243,8.271h-0.806c-5.104,0-9.242-3.702-9.242-8.271V38.242
	c0-4.568,4.139-8.269,9.242-8.269h0.806c5.105,0,9.243,3.701,9.243,8.269V53.34z"/>
<path fill="#34484C" d="M19.914,53.342c0,4.566-4.138,8.269-9.242,8.269H9.866c-5.105,0-9.242-3.702-9.242-8.269V38.244
	c0-4.568,4.137-8.271,9.242-8.271h0.806c5.104,0,9.242,3.703,9.242,8.271V53.342z"/>
</svg>
