<?xml version="1.0" encoding="utf-8"?>
<!-- Generator: Adobe Illustrator 16.0.0, SVG Export Plug-In . SVG Version: 6.00 Build 0)  -->
<!DOCTYPE svg PUBLIC "-//W3C//DTD SVG 1.1//EN" "http://www.w3.org/Graphics/SVG/1.1/DTD/svg11.dtd">
<svg version="1.1" id="Layer_1" xmlns="http://www.w3.org/2000/svg" xmlns:xlink="http://www.w3.org/1999/xlink" x="0px" y="0px"
	 width="64px" height="64px" viewBox="0 0 64 64" enable-background="new 0 0 64 64" xml:space="preserve">
<g>
	<path fill="#BE1E2D" d="M57.864,28.882c0,15.977-12.955,28.93-28.93,28.93C12.955,57.812,0,44.859,0,28.882
		C0,12.903,12.955-0.05,28.934-0.05C44.909-0.05,57.864,12.903,57.864,28.882z"/>
	<circle fill="#FFFFFF" cx="28.934" cy="29.458" r="23.569"/>
	<circle fill="#BE1E2D" cx="28.932" cy="29.308" r="17.813"/>
	<path fill="#FFFFFF" d="M42.333,29.661c0,7.405-6,13.403-13.399,13.403c-7.404,0-13.4-5.998-13.4-13.403
		c0-7.398,5.996-13.398,13.4-13.398C36.333,16.262,42.333,22.262,42.333,29.661z"/>
	<path fill="#BE1E2D" d="M36.587,29.221c0,4.229-3.426,7.659-7.653,7.659c-4.231,0-7.658-3.43-7.658-7.659
		c0-4.227,3.427-7.652,7.658-7.652C33.161,21.569,36.587,24.994,36.587,29.221z"/>
	<g>
		<g>
			<path fill="#71A3B9" d="M56.208,61.632c0.837-0.547-3.648-5.855-3.959-6.185L36.205,40.496c-0.31-0.325-0.191-1.257-1.026-0.695
				c-0.835,0.556-1.259,1.271-0.943,1.594l15.138,22.478C49.694,64.205,55.379,62.199,56.208,61.632z"/>
			<path fill="#71A3B9" d="M38.291,38.263l16.004,14.994c0.347,0.291,5.945,4.408,6.441,3.535c0.505-0.864,2.122-6.681,1.771-6.969
				L39.059,36.229c-0.341-0.285-1.025,0.186-1.522,1.056C37.032,38.152,37.948,37.975,38.291,38.263z"/>
		</g>
		<g>
			<path fill="#226798" d="M59.257,59.95c0.668-0.721,0.361-2.1-0.697-3.091L29.328,29.535c-0.268,0.624-0.768,1.158-1.426,1.471
				c-0.479,0.232-0.983,0.378-1.499,0.518c0.008-0.006-0.049,0.008-0.13,0.032l29.86,27.904
				C57.185,60.444,58.586,60.663,59.257,59.95z"/>
		</g>
	</g>
</g>
</svg>
