<?xml version="1.0" encoding="utf-8"?>
<!-- Generator: Adobe Illustrator 16.0.0, SVG Export Plug-In . SVG Version: 6.00 Build 0)  -->
<!DOCTYPE svg PUBLIC "-//W3C//DTD SVG 1.1//EN" "http://www.w3.org/Graphics/SVG/1.1/DTD/svg11.dtd">
<svg version="1.1"
	 id="Layer_1" xmlns:dc="http://purl.org/dc/elements/1.1/" xmlns:cc="http://creativecommons.org/ns#" xmlns:rdf="http://www.w3.org/1999/02/22-rdf-syntax-ns#" xmlns:svg="http://www.w3.org/2000/svg" xmlns:sodipodi="http://sodipodi.sourceforge.net/DTD/sodipodi-0.dtd" xmlns:inkscape="http://www.inkscape.org/namespaces/inkscape" inkscape:export-ydpi="90" inkscape:export-xdpi="90" inkscape:export-filename="D:\TESTINGEMOJI\SVGTEST\1F413.png" sodipodi:docname="1F413.svg" inkscape:version="0.48.5 r10040"
	 xmlns="http://www.w3.org/2000/svg" xmlns:xlink="http://www.w3.org/1999/xlink" x="0px" y="0px" width="64px" height="64px"
	 viewBox="0 0 64 64" enable-background="new 0 0 64 64" xml:space="preserve">
<sodipodi:namedview  inkscape:cy="32" inkscape:cx="32" inkscape:zoom="3.6875" showgrid="false" guidetolerance="10" gridtolerance="10" objecttolerance="10" bordercolor="#666666" pagecolor="#ffffff" borderopacity="1" id="namedview3591" inkscape:window-height="480" inkscape:window-width="640" inkscape:pageshadow="2" inkscape:pageopacity="0" inkscape:current-layer="Layer_1" inkscape:window-maximized="0" inkscape:window-y="239" inkscape:window-x="542">
	</sodipodi:namedview>
<path fill-rule="evenodd" clip-rule="evenodd" fill="#F7931E" d="M20.997,52.683c-0.102-1.109-1.833-1.002-1.735,0.115
	c0.094,1.021-0.041,2.048-0.197,3.057c-0.127,0.82-0.258,2.065-0.809,2.782c-0.064,0.02-0.131,0.027-0.197,0.064
	c-1.196,0.666-2.587,0.868-3.904,1.19c-1.088,0.262-0.529,1.905,0.551,1.644c0.668-0.162,1.329-0.311,1.978-0.491
	c0.121,0.511,0.729,0.966,1.344,0.642c0.545-0.281,0.977-0.708,1.481-1.048c0.43-0.293,0.446-0.76,0.254-1.117
	c0.5-0.782,0.711-1.815,0.887-2.68C20.923,55.507,21.118,54.049,20.997,52.683z"/>
<path fill-rule="evenodd" clip-rule="evenodd" fill="#F7931E" d="M27.713,53.74c-0.111-1.22-2.015-1.103-1.905,0.127
	c0.102,1.119-0.047,2.249-0.219,3.357c-0.139,0.902-0.282,2.269-0.887,3.058c-0.07,0.02-0.141,0.027-0.217,0.07
	c-1.315,0.732-2.843,0.954-4.29,1.306c-1.196,0.291-0.582,2.095,0.606,1.808c0.735-0.181,1.458-0.343,2.173-0.54
	c0.133,0.562,0.799,1.06,1.478,0.706c0.598-0.31,1.071-0.778,1.625-1.153c0.473-0.32,0.489-0.834,0.28-1.225
	c0.551-0.862,0.779-1.996,0.975-2.945C27.633,56.841,27.846,55.24,27.713,53.74z"/>
<path fill-rule="evenodd" clip-rule="evenodd" fill="#D4D6D8" d="M28.139,43.708c0.17-0.505,0.424-0.966,0.741-1.38
	c-0.786-1.009-1.853-1.673-3.298-1.45c-1.051,0.16-2.849,0.726-3.212,1.962c1.041,1.003,2.81,2.99,2.394,5.491
	c-0.197,1.188-1.565,5.2-0.48,5.667c2.415,1.043,5.125-0.627,5.104-1.419c-0.021-0.789-0.672-1.544-0.668-1.563
	C27.823,48.64,27.162,46.633,28.139,43.708z"/>
<path fill-rule="evenodd" clip-rule="evenodd" fill="#D4D6D8" d="M21.302,43.039c0.17-0.504,0.424-0.965,0.741-1.379
	c-0.786-1.009-1.853-1.671-3.298-1.45c-1.049,0.16-2.851,0.727-3.213,1.962c1.042,1.004,2.811,2.989,2.394,5.493
	c-0.199,1.186-1.563,5.199-0.481,5.667c2.416,1.041,5.126-0.628,5.104-1.419c-0.021-0.792-0.672-1.544-0.668-1.563
	C20.985,47.972,20.325,45.967,21.302,43.039z"/>
<path fill="#D4D6D8" d="M49.609,17.945C40.31,22.619,33.28,29.677,27.573,37.9c4.512-15.072,16.604-30.629,27.46-28.256
	c3.332,0.731,6.104,3.433,8.295,6.968C59.01,14.885,53.744,15.87,49.609,17.945z"/>
<path fill="#D4D6D8" d="M51.87,26.055c-8.907,1.553-16.524,5.665-23.338,11.075c6.446-7.582,21.497-21.319,29.931-16.621
	c2.593,1.44,4.219,4.383,5.156,7.877C60.46,25.867,55.833,25.363,51.87,26.055z"/>
<path fill="#D4D6D8" d="M48.462,35.348c-8.467-1.141-16.504,0.386-24.18,3.314c7.969-4.988,25.444-13.065,31.697-6.429
	c1.925,2.042,2.55,5.155,2.397,8.566C56.253,37.631,52.228,35.856,48.462,35.348z"/>
<path fill="#D4D6D8" d="M45.768,42.777c-7.408-2.274-14.826-2.091-22.126-0.607c7.869-3.285,24.694-7.932,29.315-1.067
	c1.419,2.108,1.519,4.985,0.88,8.02C52.401,45.971,49.06,43.788,45.768,42.777z"/>
<path fill="#D4D6D8" d="M39.391,46.814c-6.042-1.853-12.094-1.706-18.048-0.496c6.419-2.677,20.143-6.468,23.91-0.867
	c1.161,1.717,1.241,4.064,0.722,6.54C44.8,49.42,42.076,47.64,39.391,46.814z"/>
<path fill="#D4D6D8" d="M34.041,49.727c-3.482-1.067-6.969-0.983-10.4-0.285c3.697-1.544,11.609-3.727,13.78-0.501
	c0.665,0.991,0.714,2.343,0.413,3.771C37.159,51.227,35.588,50.203,34.041,49.727z"/>
<path fill-rule="evenodd" clip-rule="evenodd" fill="#CDCCCB" d="M36.944,32.081c-0.201-0.84-2.405-1.431-2.415-1.413
	c-2.339-0.332-3.35-0.866-5.2-0.858c-2.093,0.012-4.328-0.355-6.036-1.364c-2.142-1.258-3.302-3.74-4.408-5.901
	c-1.673-3.255-4.309-6.921-7.77-8.41c0.833-0.637,1.481-1.62,1.462-2.638c-0.01-0.768-0.234-1.862-0.901-2.353
	c-0.897-0.664-2.167-0.311-2.88,0.485c-0.068,0.078-0.123,0.16-0.182,0.24c-0.579,0.483-0.555,0.049-0.561-0.527
	c-0.551,0.033-0.971,1.25-1.104,1.729c-0.09-0.186-0.201-0.359-0.344-0.496c-0.471-0.449-1.169-0.346-1.663,0.012
	c-0.952,0.684-1.151,1.712-0.954,2.734c-0.547-0.452-1.19-0.702-1.88-0.286c-0.692,0.415-1.016,1.239-1.036,2.022
	c-0.033,1.228,0.475,2.466,1.472,2.857c0.111,0.094,0.236,0.184,0.402,0.243c-0.264,0.713-0.484,1.446-0.667,2.2
	c-0.014,0.059-0.139,0.67,0.014,0.607c0.473-0.195,0.911-0.359,1.378-0.49c-0.059,0.825,0.086,1.589,0.4,2.284
	c0.289,0.967,0.903,1.815,1.804,2.425c-0.049,0.083-0.731,1.274-0.928,1.737c-1.685,3.693-3.492,11.631-1.659,14.091
	c1.833,2.462,8.399,8.466,13.87,10.056c2.533,0.474,7.723-0.211,8.321,0.501c0.915-0.88,2.136-1.46,3.384-1.649
	c1.084-0.16,2.565-0.164,4.068,0.066c2.938-1.931,5.374-10.479,5.229-12.471C38.078,36.321,37.813,33.734,36.944,32.081z"/>
<path fill-rule="evenodd" clip-rule="evenodd" fill="#BE202E" d="M10.613,14.785c0.609-0.693,1.215-1.37,1.878-1.962
	c0.506-0.633,0.852-1.385,0.834-2.163c-0.008-0.868-0.262-2.104-1.016-2.662c-1.014-0.747-2.45-0.348-3.255,0.551
	c-0.078,0.086-0.141,0.182-0.207,0.27C8.194,9.367,8.217,8.878,8.213,8.226C7.588,8.261,7.115,9.638,6.965,10.18
	C6.863,9.968,6.738,9.773,6.576,9.617C6.044,9.11,5.255,9.228,4.696,9.632c-1.077,0.772-1.302,1.935-1.079,3.089
	C3,12.212,2.273,11.93,1.493,12.399c-0.779,0.469-1.149,1.401-1.174,2.286c-0.025,1.028,0.333,2.425,0.907,2.705
	c0.575,0.279,1.22,0.596,1.456,0.625C3.428,14.689,7.205,14.234,10.613,14.785z"/>
<g>
	<path fill="#F7931E" d="M3.143,17.941c-0.934,0.118-2.149,3.535-2.067,4.192c0.082,0.654,1.81-0.313,2.826-0.725
		c1.043-0.428,2.12-0.803,2.04-1.458C5.859,19.293,4.071,17.822,3.143,17.941z"/>
</g>
<g>
	<g>
		<path fill="#FFFFFF" d="M9.617,17.5c0,1.235-0.764,2.229-1.708,2.229c-0.946,0-1.712-0.995-1.712-2.229
			c0-1.231,0.766-2.228,1.712-2.228C8.853,15.272,9.617,16.269,9.617,17.5z"/>
	</g>
	<g>
		<ellipse fill="#25333A" cx="7.908" cy="17.5" rx="1.107" ry="1.168"/>
	</g>
</g>
<path fill="#A7A8AC" d="M32.687,39.704c0-4.22-6.132-2.951-11.029-2.951s-9.245-0.078-9.245,4.141c0,4.225,3.971,7.646,8.863,7.646
	C26.173,48.54,32.687,43.929,32.687,39.704z"/>
</svg>
