<?xml version="1.0" encoding="UTF-8" standalone="no"?>
<!-- Generator: Adobe Illustrator 16.0.0, SVG Export Plug-In . SVG Version: 6.00 Build 0)  -->

<svg
   xmlns:dc="http://purl.org/dc/elements/1.1/"
   xmlns:cc="http://creativecommons.org/ns#"
   xmlns:rdf="http://www.w3.org/1999/02/22-rdf-syntax-ns#"
   xmlns:svg="http://www.w3.org/2000/svg"
   xmlns="http://www.w3.org/2000/svg"
   xmlns:sodipodi="http://sodipodi.sourceforge.net/DTD/sodipodi-0.dtd"
   xmlns:inkscape="http://www.inkscape.org/namespaces/inkscape"
   version="1.1"
   id="Layer_1"
   x="0px"
   y="0px"
   width="64px"
   height="64px"
   viewBox="0 0 64 64"
   enable-background="new 0 0 64 64"
   xml:space="preserve"
   inkscape:version="0.48.5 r10040"
   sodipodi:docname="1F44C.svg"
   inkscape:export-filename="D:\TESTINGEMOJI\SVGTEST\1F44C.png"
   inkscape:export-xdpi="90"
   inkscape:export-ydpi="90"><metadata
   id="metadata5209"><rdf:RDF><cc:Work
       rdf:about=""><dc:format>image/svg+xml</dc:format><dc:type
         rdf:resource="http://purl.org/dc/dcmitype/StillImage" /><dc:title></dc:title></cc:Work></rdf:RDF></metadata><defs
   id="defs5207" /><sodipodi:namedview
   pagecolor="#ffffff"
   bordercolor="#666666"
   borderopacity="1"
   objecttolerance="10"
   gridtolerance="10"
   guidetolerance="10"
   inkscape:pageopacity="0"
   inkscape:pageshadow="2"
   inkscape:window-width="640"
   inkscape:window-height="480"
   id="namedview5205"
   showgrid="false"
   inkscape:zoom="3.6875"
   inkscape:cx="32"
   inkscape:cy="32"
   inkscape:window-x="570"
   inkscape:window-y="283"
   inkscape:window-maximized="0"
   inkscape:current-layer="Layer_1" />
<path
   fill="#DDA37C"
   d="M50.435,21.85c-3.034-0.55-5.962-0.64-8.707,0.915c-1.029,0.584-6.995,2.246-6.711,3.124  c-4.9,2.862-2.144,5.801-6.509,9.992c-2.101,2.018,0.559,5.756,2.658,3.741c5.139-4.937,9.015-10.206,16.107-12.376  c0.807-0.246,1.253-0.767,1.455-1.357c0.13,0.021,0.24,0.027,0.375,0.053c1.182,0.229,2.044-1.197,2.465-2.037  C51.031,22.851,50.939,22.919,50.435,21.85z"
   id="path5199" />
<g
   id="g5201">
	<path
   fill="#EFB086"
   d="M56.595,52.611c1.783-4.104,2.224-8.065,1.313-11.77c-1.502-6.137-3.766-12.016-6.737-17.607l-0.595,0.136   c-7.075,1.632-13.318,5.541-19.646,12.295l-2.915,3.112l2.009-3.762c2.147-4.016,5.297-7.411,9.107-9.818   c3.856-2.443,7.925-3.483,11.409-2.928l0.095,0.015c-2.733-4.969-6.014-9.715-9.885-14.185c-1.421-1.638-3.37-3.035-5.255-4.386   c-0.67-0.482-1.326-0.805-1.986-0.98l1.43,1.259l0.57,0.349l-0.091,0.101c5.267,4.742,8.635,9.272,10.302,13.843   c0.105,0.294,0.066,0.605-0.109,0.855c-0.421,0.603-1.513,0.53-1.774-0.169C42.189,14.454,38.71,9.925,33.2,5.128l-1.063-0.636   c-0.417-0.254-0.829-0.517-1.241-0.783l-0.713-0.456c-1.16-0.744-2.357-1.513-3.621-2.09c-2.597-1.187-5.263-1.206-7.524-0.059   c-0.095,0.048-0.191,0.094-0.288,0.138c9.669,6.775,15.873,13.361,18.949,20.113c0.151,0.332,0.127,0.695-0.065,0.998   c-0.441,0.691-1.658,0.689-2.01-0.07c-4.127-9.06-13.417-16.06-20.097-20.559c-0.46-0.046-0.864-0.116-1.242-0.212   c-2.458-0.63-4.456,0.075-6.158,2.193C6.485,5.738,6.459,7.201,8.025,8.754c0.792,0.789,1.77,1.504,2.715,2.193   c0.316,0.224,0.555,0.401,0.792,0.577l0.138,0.103c0.847,0.634,1.746,1.243,2.623,1.838l0.233,0.158   c2.099,1.432,4.27,2.915,6.011,4.711c2.5,2.572,5.022,5.029,8.393,6.77c0.259,0.131,0.557,0.417,0.511,1.022l0.007,1.463   l-1.316-0.491c-0.21-0.075-0.417-0.156-0.621-0.237c-0.44-0.169-0.794-0.307-1.165-0.406c-0.623-0.165-1.246-0.347-1.866-0.528   l-0.45-0.132c-1.722-0.493-3.5-1.007-5.286-1.279c-3.401-0.515-6.263,0.665-8.424,3.481c-1.344,1.763-2.845,3.614-4.867,6   c-1.724,2.044-2.538,4.007-2.491,6c0.022,0.976,0.419,1.768,1.145,2.29c0.859,0.614,2.116,0.748,3.428,0.363   c1.09-0.328,2.318-1.148,3.197-2.135c0.781-0.872,1.36-1.95,1.919-2.994l0.133-0.248c0.147-0.274,0.296-0.555,0.448-0.827   c1.522-2.675,3.779-3.609,6.625-2.741c5.249,1.602,8.575,4.843,9.622,9.371c0.294,1.266,0.074,2.469-0.629,3.482   c-0.922,1.318-2.623,2.174-4.671,2.345c-2.75,0.224-5.125-0.27-7.31-1.528c-1.204-0.7-2.794-1.572-4.443-2.125   c-0.724-0.237-1.491-0.357-2.276-0.357c-0.54,0-1.083,0.057-1.614,0.171c-1.63,0.349-3.117,1.211-4.189,2.423   c-0.724,0.823-1.035,1.632-0.899,2.345c0.169,0.857,0.937,1.399,1.55,1.704c0.869,0.433,1.91,0.759,3.011,0.945   c5.351,0.895,9.777,2.945,13.152,6.095c3.814,3.557,8.757,5.288,15.113,5.288c0.662,0,1.338-0.018,2.028-0.058   c1.516-0.081,2.998-0.275,4.412-0.579C49.313,61.813,54.241,58.042,56.595,52.611z"
   id="path5203" />
</g>
</svg>