<?xml version="1.0" encoding="UTF-8" standalone="no"?>
<!-- Generator: Adobe Illustrator 16.0.0, SVG Export Plug-In . SVG Version: 6.00 Build 0)  -->

<svg
   xmlns:dc="http://purl.org/dc/elements/1.1/"
   xmlns:cc="http://creativecommons.org/ns#"
   xmlns:rdf="http://www.w3.org/1999/02/22-rdf-syntax-ns#"
   xmlns:svg="http://www.w3.org/2000/svg"
   xmlns="http://www.w3.org/2000/svg"
   xmlns:sodipodi="http://sodipodi.sourceforge.net/DTD/sodipodi-0.dtd"
   xmlns:inkscape="http://www.inkscape.org/namespaces/inkscape"
   version="1.1"
   id="Layer_1"
   x="0px"
   y="0px"
   width="64px"
   height="64px"
   viewBox="0 0 64 64"
   enable-background="new 0 0 64 64"
   xml:space="preserve"
   inkscape:version="0.48.5 r10040"
   sodipodi:docname="1F462.svg"
   inkscape:export-filename="D:\TESTINGEMOJI\SVGTEST\1F462.png"
   inkscape:export-xdpi="90"
   inkscape:export-ydpi="90"><metadata
   id="metadata4695"><rdf:RDF><cc:Work
       rdf:about=""><dc:format>image/svg+xml</dc:format><dc:type
         rdf:resource="http://purl.org/dc/dcmitype/StillImage" /><dc:title></dc:title></cc:Work></rdf:RDF></metadata><defs
   id="defs4693" /><sodipodi:namedview
   pagecolor="#ffffff"
   bordercolor="#666666"
   borderopacity="1"
   objecttolerance="10"
   gridtolerance="10"
   guidetolerance="10"
   inkscape:pageopacity="0"
   inkscape:pageshadow="2"
   inkscape:window-width="640"
   inkscape:window-height="480"
   id="namedview4691"
   showgrid="false"
   inkscape:zoom="3.6875"
   inkscape:cx="32"
   inkscape:cy="32"
   inkscape:window-x="360"
   inkscape:window-y="334"
   inkscape:window-maximized="0"
   inkscape:current-layer="Layer_1" />
<g
   id="g4675"
   transform="translate(14,0)">
	<path
   clip-rule="evenodd"
   d="m 26.552,55.586 c 0,0 1.743,1.104 2.124,1.125 0.383,0.022 9.423,-0.87 9.491,1.351 0.064,2.218 -1.229,0.881 -1.229,0.881 0,0 -2.25,0.459 -2.591,0.399 -0.337,-0.059 -3.566,-0.126 -3.718,-0.102 -0.145,0.019 -1.014,-0.086 -1.231,-0.063 -0.209,0.019 -2.845,-3.506 -2.845,-3.506"
   id="path4677"
   inkscape:connector-curvature="0"
   style="fill:#9e6b36;fill-rule:evenodd" />
	<path
   clip-rule="evenodd"
   d="m 38.712,59.229 c 0,0 -0.004,-0.006 -0.004,-0.01 0,0 -0.008,0 -0.013,0.004 -1.636,-0.645 -5.87,1.007 -5.87,1.007 0,0 -5.087,1.22 -8.401,1.194 -0.583,-0.004 -0.942,0 -1.176,-0.012 -0.166,-0.031 -0.328,-0.067 -0.494,-0.106 -0.3,-0.202 -0.569,-0.76 -5.05,-2.336 -1.933,-0.68 -3.647,-1.123 -5.131,-1.404 -0.045,-0.015 -0.093,-0.024 -0.136,-0.039 -0.075,-0.019 -0.152,-0.047 -0.229,-0.082 -0.372,-0.047 -0.737,-0.106 -1.104,-0.172 0,0 -0.014,0.002 -0.021,0.002 C 10.731,57.25 10.377,57.208 10.027,57.164 9.411,57.111 8.798,57.058 8.182,57.005 8.105,56.999 8.032,56.99 7.957,56.984 7.844,56.999 7.755,57.014 7.665,57.003 7.495,56.979 7.329,56.945 7.161,56.911 7.066,56.904 6.97,56.896 6.876,56.886 3.146,56.161 1.569,56.189 0.903,56.331 0.802,56.333 0.701,56.366 0.606,56.423 0.434,56.501 0.42,56.576 0.42,56.576 v 0.002 C 0.166,56.853 0,57.327 0,57.868 v 3.223 c 0,0.848 0.411,1.539 0.919,1.539 h 9.803 c 0.501,0 0.915,-0.691 0.915,-1.539 v -1.089 c 1.282,0.355 4.999,1.419 8.56,2.66 0.203,0.078 0.405,0.153 0.61,0.229 0.587,0.221 1.174,0.435 1.765,0.639 0.01,0.007 0.025,0.009 0.036,0.018 0,0 0.025,0.008 0.077,0.023 0.049,0.021 0.098,0.035 0.146,0.052 0.081,0.03 0.17,0.043 0.257,0.051 0.337,0.075 0.871,0.159 1.612,0.192 v 0.01 c 0.466,0 0.935,0.026 1.399,-0.004 0.032,-0.004 0.065,-0.006 0.101,-0.008 0.625,-0.027 1.34,-0.091 2.148,-0.202 0.562,-0.068 1.121,-0.178 1.677,-0.294 0.749,-0.156 1.5,-0.322 2.245,-0.512 0.504,-0.13 1.006,-0.304 1.509,-0.461 0.022,-0.006 0.042,-0.008 0.065,-0.01 0.605,-0.11 1.208,-0.193 1.809,-0.327 0.545,-0.123 1.093,-0.303 1.636,-0.455 0.065,-0.021 0.133,-0.028 0.201,-0.039 0.473,-0.083 0.945,-0.163 1.413,-0.257 0.119,-0.021 0.215,-0.194 0.268,-0.408 0.347,-0.94 0.102,-1.44 -0.459,-1.67 z"
   id="path4679"
   inkscape:connector-curvature="0"
   style="fill:#25333a;fill-rule:evenodd" />
	<path
   d="m 37.947,57.646 c -0.109,-0.123 -0.251,-0.229 -0.381,-0.237 -1.443,-0.072 -2.892,-0.134 -4.336,-0.186 -0.512,-0.016 -1.027,-0.004 -1.541,0.05 0.15,0 0.302,0 0.452,0 0,0.02 0,0.033 0,0.054 -0.466,0 -0.928,0 -1.393,0 0,-0.004 0,-0.008 0,-0.013 0.106,-0.012 0.219,-0.021 0.332,-0.031 0,-0.029 0,-0.06 0.002,-0.085 -0.692,0 -1.383,-0.03 -2.067,0.01 -0.583,0.029 -1.002,-0.475 -1.44,-0.857 -1.071,-0.925 -2.126,-1.886 -3.153,-2.904 -0.765,-0.76 -1.484,-1.608 -2.221,-2.427 -0.042,-0.735 -0.02,-1.474 0.136,-2.225 0.045,-0.202 -0.498,-0.312 -0.885,-0.247 -0.417,-0.063 -1.026,0.077 -0.883,0.251 0.033,0.043 0.055,0.095 0.081,0.14 -0.062,0.148 -0.123,0.3 -0.184,0.447 -0.114,0.279 -0.271,0.47 -0.49,0.314 -0.067,-0.05 -0.126,-0.241 -0.141,-0.382 -0.049,-0.365 0.123,-0.539 0.303,-0.684 0.033,-0.029 0.091,-0.005 0.13,-0.029 0.259,-0.155 0.306,-0.447 0.123,-0.771 -0.14,-0.245 -0.296,-0.474 -0.488,-0.782 -0.148,0.367 -0.259,0.716 -0.421,1.004 -0.095,0.17 -0.265,0.324 -0.399,0.324 -0.095,0.004 -0.281,-0.303 -0.263,-0.411 0.035,-0.235 0.164,-0.597 0.274,-0.608 0.316,-0.039 0.395,-0.376 0.476,-0.688 -0.215,-0.275 -0.444,-0.557 -0.721,-0.908 -0.128,0.348 -0.245,0.721 -0.401,1.056 -0.065,0.134 -0.21,0.221 -0.324,0.244 -0.062,0.015 -0.192,-0.157 -0.195,-0.249 -0.002,-0.213 0.011,-0.491 0.098,-0.636 0.119,-0.205 0.312,-0.309 0.469,-0.471 0.158,-0.161 0.18,-0.322 -0.008,-0.489 -0.079,-0.071 -0.136,-0.2 -0.205,-0.299 -0.324,-0.44 -0.494,-0.377 -0.666,0.239 -0.099,0.332 -0.204,0.707 -0.498,0.553 -0.101,-0.051 -0.229,-0.359 -0.209,-0.498 0.038,-0.21 0.186,-0.387 0.298,-0.562 0.121,-0.187 0.374,-0.444 0.352,-0.512 -0.087,-0.281 -0.24,-0.542 -0.409,-0.72 -0.047,-0.051 -0.201,0.096 -0.311,0.212 2.964,-14.084 5.926,-28.17 8.89,-42.251 0.17,-0.813 -0.887,-1.794 -1.928,-1.197 -5.44,3.124 -10.883,6.246 -16.327,9.37 -3.25,1.863 -5.41,2.26 -5.41,5.451 0,10.328 0,20.652 0,30.977 -0.176,-0.016 -0.297,0.106 -0.31,0.511 -0.016,0.357 -0.062,0.775 -0.198,1.046 -0.148,0.298 -0.664,0.97 -0.593,1.116 -0.05,-0.018 -0.043,0.022 -0.008,0.09 -0.08,0.711 -0.119,1.311 -0.217,1.878 -0.314,1.765 -0.127,3.563 -0.178,5.344 -0.014,0.444 0.091,0.582 0.383,0.586 0.735,0 1.47,0.05 2.205,0.1 0.953,0.063 1.909,0.14 2.863,0.229 0.336,0.031 0.674,0.115 1.016,0.17 0,0 0,0.004 0.004,0.008 0.101,0.221 3.325,0.343 4.467,0.49 0.078,0.012 0.358,0.01 0.636,-0.012 -0.071,0.087 -0.13,0.16 -0.233,0.289 0.245,0.097 0.429,0.188 0.615,0.236 0.697,0.174 1.396,0.334 2.094,0.496 0.411,0.093 0.832,0.148 1.235,0.289 0.567,0.195 1.126,0.456 1.691,0.682 0.237,0.096 0.486,0.161 0.728,0.261 0.648,0.258 1.292,0.513 1.932,0.794 0.482,0.209 0.942,0.482 1.422,0.688 0.269,0.118 0.557,0.179 0.838,0.233 0.534,0.103 1.067,0.249 1.599,0.269 1.083,0.044 2.171,0.071 3.249,-0.004 0.883,-0.063 1.768,-0.28 2.652,-0.431 0.009,-0.005 0.021,-0.007 0.031,-0.009 0.648,-0.098 1.298,-0.176 1.942,-0.302 0.587,-0.112 1.164,-0.274 1.746,-0.417 0.044,-0.01 0.092,-0.023 0.135,-0.027 0.631,-0.091 1.271,-0.158 1.905,-0.274 0.796,-0.145 1.588,-0.327 2.383,-0.502 0.059,-0.011 0.134,-0.065 0.159,-0.133 0.158,-0.406 -0.04,-1.724 -0.311,-2.031 z"
   id="path4681"
   inkscape:connector-curvature="0"
   style="fill:#9e6b36" />
	<path
   d="M 9.692,8.281 C 8.955,8.706 8.214,9.13 7.475,9.554 c -3.25,1.863 -5.41,2.26 -5.41,5.451 v 30.977 c -0.176,-0.016 -0.297,0.106 -0.31,0.511 -0.016,0.357 -0.062,0.775 -0.198,1.046 -0.148,0.298 -0.664,0.97 -0.593,1.116 -0.05,-0.018 -0.043,0.022 -0.008,0.09 -0.08,0.711 -0.119,1.311 -0.217,1.878 -0.314,1.765 -0.127,3.563 -0.178,5.344 -0.014,0.444 0.091,0.582 0.383,0.586 0.735,0 1.47,0.05 2.205,0.1 0.953,0.063 1.909,0.14 2.863,0.229 0.336,0.031 0.674,0.115 1.016,0.17 0,0 0,0.004 0.004,0.008 0.055,0.123 1.053,0.214 2.13,0.295 -2.594,-1.7 -5.779,-27.651 0.53,-49.074 z"
   id="path4683"
   inkscape:connector-curvature="0"
   style="fill:#895c31" />
	<path
   clip-rule="evenodd"
   d="m 19.988,43.823 c 0.431,0.488 0.273,1.326 -0.349,1.873 l -4.78,4.205 c -0.623,0.545 -1.474,0.597 -1.903,0.108 l 0,0 c -0.429,-0.487 -0.272,-1.327 0.35,-1.874 l 4.779,-4.204 c 0.623,-0.546 1.473,-0.595 1.903,-0.108 l 0,0 z"
   id="path4685"
   inkscape:connector-curvature="0"
   style="fill:#25333a;fill-rule:evenodd" />
	<path
   clip-rule="evenodd"
   d="m 21.931,45.562 c 0.429,0.487 0.271,1.324 -0.352,1.874 l -4.78,4.204 c -0.622,0.546 -1.476,0.598 -1.903,0.107 l 0,0 c -0.429,-0.486 -0.272,-1.328 0.35,-1.874 l 4.779,-4.204 c 0.623,-0.547 1.475,-0.598 1.906,-0.107 l 0,0 z"
   id="path4687"
   inkscape:connector-curvature="0"
   style="fill:#25333a;fill-rule:evenodd" />
	<path
   clip-rule="evenodd"
   d="m 23.75,47.451 c 0.427,0.488 0.271,1.326 -0.352,1.873 l -4.78,4.205 c -0.623,0.545 -1.474,0.597 -1.903,0.108 l 0,0 c -0.431,-0.488 -0.272,-1.328 0.35,-1.876 l 4.78,-4.202 c 0.623,-0.546 1.475,-0.595 1.905,-0.108 l 0,0 z"
   id="path4689"
   inkscape:connector-curvature="0"
   style="fill:#25333a;fill-rule:evenodd" />
</g>
</svg>