<?xml version="1.0" encoding="UTF-8" standalone="no"?>
<!-- Generator: Adobe Illustrator 16.0.0, SVG Export Plug-In . SVG Version: 6.00 Build 0)  -->

<svg
   xmlns:dc="http://purl.org/dc/elements/1.1/"
   xmlns:cc="http://creativecommons.org/ns#"
   xmlns:rdf="http://www.w3.org/1999/02/22-rdf-syntax-ns#"
   xmlns:svg="http://www.w3.org/2000/svg"
   xmlns="http://www.w3.org/2000/svg"
   xmlns:sodipodi="http://sodipodi.sourceforge.net/DTD/sodipodi-0.dtd"
   xmlns:inkscape="http://www.inkscape.org/namespaces/inkscape"
   version="1.1"
   id="Layer_1"
   x="0px"
   y="0px"
   width="64px"
   height="64px"
   viewBox="0 0 64 64"
   enable-background="new 0 0 64 64"
   xml:space="preserve"
   inkscape:version="0.48.5 r10040"
   sodipodi:docname="1F48D.svg"
   inkscape:export-filename="D:\TESTINGEMOJI\SVGTEST\1F48D.png"
   inkscape:export-xdpi="90"
   inkscape:export-ydpi="90"><metadata
   id="metadata5536"><rdf:RDF><cc:Work
       rdf:about=""><dc:format>image/svg+xml</dc:format><dc:type
         rdf:resource="http://purl.org/dc/dcmitype/StillImage" /><dc:title></dc:title></cc:Work></rdf:RDF></metadata><defs
   id="defs5534" /><sodipodi:namedview
   pagecolor="#ffffff"
   bordercolor="#666666"
   borderopacity="1"
   objecttolerance="10"
   gridtolerance="10"
   guidetolerance="10"
   inkscape:pageopacity="0"
   inkscape:pageshadow="2"
   inkscape:window-width="640"
   inkscape:window-height="480"
   id="namedview5532"
   showgrid="false"
   inkscape:zoom="3.6875"
   inkscape:cx="32"
   inkscape:cy="32"
   inkscape:window-x="735"
   inkscape:window-y="318"
   inkscape:window-maximized="0"
   inkscape:current-layer="Layer_1" />
<g
   id="g5500">
	<path
   fill="#F6921E"
   d="M38.021,5.134c-7.897,1.391-15.825,5.801-22.322,12.418C9.299,24.071,5.082,31.936,3.823,39.702   c-1.258,7.771,0.592,14.505,5.214,18.97c4.549,4.402,11.271,6.083,18.933,4.734h0.002c7.895-1.389,15.82-5.797,22.315-12.416   c6.403-6.519,10.619-14.384,11.875-22.152c1.259-7.769-0.592-14.505-5.212-18.968C52.401,5.468,45.678,3.788,38.021,5.134z    M29.061,57.07c-5.992,1.055-11.254-0.261-14.813-3.7c-7.462-7.215-5.126-21.652,5.214-32.183   c5.084-5.176,11.286-8.628,17.467-9.715c5.989-1.053,11.254,0.264,14.812,3.704c7.465,7.215,5.12,21.651-5.214,32.181   C41.442,52.531,35.241,55.985,29.061,57.07z"
   id="path5502" />
	<g
   id="g5504">
		<path
   fill="#DC8027"
   d="M5.875,41.745c1.258-7.765,5.478-15.634,11.873-22.15c6.498-6.619,14.423-11.03,22.322-12.418    c7.162-1.258,13.502,0.128,18.016,3.912c-0.362-0.423-0.731-0.834-1.135-1.223c-4.549-4.398-11.271-6.078-18.93-4.731    c-7.897,1.391-15.825,5.801-22.322,12.418C9.299,24.071,5.082,31.936,3.823,39.702c-1.258,7.771,0.596,14.503,5.214,18.97    c0.296,0.288,0.602,0.561,0.919,0.824C6.177,55.067,4.723,48.84,5.875,41.745z"
   id="path5506" />
		<path
   fill="#DC8027"
   d="M31.114,59.11c6.178-1.084,12.38-4.534,17.462-9.712c10.34-10.531,12.68-24.965,5.216-32.182    c-0.3-0.287-0.619-0.56-0.941-0.82c6.075,7.533,3.46,20.99-6.324,30.957c-5.077,5.178-11.285,8.632-17.464,9.717    c-5.489,0.965-10.356-0.063-13.876-2.884c0.348,0.426,0.709,0.836,1.112,1.225C19.857,58.851,25.12,60.166,31.114,59.11z"
   id="path5508" />
	</g>
	<g
   id="g5510">
		<path
   fill="#3BC5F1"
   d="M29.532,0.233L38.123,10l-3.184,4.006l-6.783,2.032c0,0-4.188-0.787-4.262-1.317    c-0.075-0.531-3.142-4.818-2.544-5.292c0.591-0.472,3.366-4.375,3.509-4.467C25.002,4.874,29.532,0.233,29.532,0.233z"
   id="path5512" />
		<polygon
   fill="#3BC5F1"
   points="0.084,25.426 9.694,36.359 17.265,33.604 17.244,20.251 11.072,18.645 3.591,22.095   "
   id="polygon5514" />
		<path
   fill="#00A5D7"
   d="M26.145,14.046l3.438-14.023L29.599,0L20.64,0.692l-1.248,1.057L3.295,15.461l-1.246,1.059l-2.022,8.664    l14.639-1.336C16.5,19.488,21.445,15.088,26.145,14.046z"
   id="path5516" />
		<polygon
   fill="#3BC5F1"
   points="29.484,0.044 20.593,0.73 19.348,1.789 3.253,15.497 2.007,16.561 0,25.153   "
   id="polygon5518" />
		<path
   fill="#00A5D7"
   d="M21.397,16.141l-2.565-7.026L11.37,8.582l-0.361,7.194l6.552,3.654    C18.683,18.184,19.998,17.06,21.397,16.141z"
   id="path5520" />
		<path
   fill="#3BC5F1"
   d="M21.422,16.126l-2.531-6.929L11.08,15.85l6.462,3.601C18.674,18.19,20.006,17.053,21.422,16.126z"
   id="path5522" />
		<path
   fill="#00A5D7"
   d="M23.802,11.718l14.329-1.774l0.023-0.015l-1.729,8.821l-1.199,1.111l-15.493,14.39l-1.2,1.114l-8.84,0.994    l3.035-14.379C17.275,20.663,22.221,16.271,23.802,11.718z"
   id="path5524" />
		<polygon
   fill="#3BC5F1"
   points="38.123,10 36.405,18.754 35.208,19.87 19.717,34.253 18.517,35.369 9.742,36.359   "
   id="polygon5526" />
		<path
   fill="#00A5D7"
   d="M21.168,16.191l6.68,3.366l-0.34,7.475l-7.189-0.484l-2.863-6.932    C18.823,18.647,20.094,17.475,21.168,16.191z"
   id="path5528" />
		<path
   fill="#3BC5F1"
   d="M21.187,16.168l6.585,3.322l-7.519,6.982l-2.819-6.837C18.819,18.656,20.103,17.468,21.187,16.168z"
   id="path5530" />
	</g>
</g>
</svg>