<?xml version="1.0" encoding="utf-8"?>
<!-- Generator: Adobe Illustrator 16.0.0, SVG Export Plug-In . SVG Version: 6.00 Build 0)  -->
<!DOCTYPE svg PUBLIC "-//W3C//DTD SVG 1.1//EN" "http://www.w3.org/Graphics/SVG/1.1/DTD/svg11.dtd">
<svg version="1.1"
	 id="Layer_1" xmlns:dc="http://purl.org/dc/elements/1.1/" xmlns:cc="http://creativecommons.org/ns#" xmlns:rdf="http://www.w3.org/1999/02/22-rdf-syntax-ns#" xmlns:svg="http://www.w3.org/2000/svg" xmlns:sodipodi="http://sodipodi.sourceforge.net/DTD/sodipodi-0.dtd" xmlns:inkscape="http://www.inkscape.org/namespaces/inkscape" inkscape:export-ydpi="90" inkscape:export-xdpi="90" inkscape:export-filename="D:\TESTINGEMOJI\SVGTEST\1F495.png" sodipodi:docname="1F495.svg" inkscape:version="0.48.5 r10040"
	 xmlns="http://www.w3.org/2000/svg" xmlns:xlink="http://www.w3.org/1999/xlink" x="0px" y="0px" width="64px" height="64px"
	 viewBox="0 0 64 64" enable-background="new 0 0 64 64" xml:space="preserve">
<sodipodi:namedview  inkscape:cy="32" inkscape:cx="32" inkscape:zoom="3.6875" showgrid="false" guidetolerance="10" gridtolerance="10" objecttolerance="10" bordercolor="#666666" pagecolor="#ffffff" borderopacity="1" id="namedview3831" inkscape:current-layer="Layer_1" inkscape:window-maximized="0" inkscape:window-y="336" inkscape:window-x="581" inkscape:window-height="480" inkscape:window-width="640" inkscape:pageshadow="2" inkscape:pageopacity="0">
	</sodipodi:namedview>
<g>
	<g>
		<path fill="#D13852" d="M17.479,60.829c0.723,0.631,1.35,1.158,1.979,1.682c0.393,0.324,0.783,0.652,1.174,0.971
			c0.368-0.301,0.767-0.633,1.164-0.963c0.639-0.531,1.263-1.062,1.884-1.589c8.12-7.497,17.204-15.886,17.331-26.298
			c-0.033-0.82-0.175-1.738-0.408-2.638c-0.241-0.925-0.593-1.849-1.039-2.738c-1.143-2.096-3.98-3.845-6.877-4.199
			c-5.504-0.648-8.082,0.765-10.679,4.473l-1.375,1.983l-1.38-1.983c-2.348-3.366-4.659-4.562-9.191-4.562
			c-0.474,0-0.968,0.031-1.486,0.089c-2.89,0.354-5.732,2.103-6.906,4.248c-0.416,0.84-0.767,1.764-1.008,2.689
			c-0.237,0.894-0.375,1.817-0.415,2.731C0.381,45.044,9.459,53.433,17.479,60.829z"/>
		<path fill="#F1A5B1" d="M38.859,33.223c-0.036-0.675-0.162-1.292-0.364-1.852c-0.198-0.562-0.475-1.072-0.814-1.524
			c-2.012-2.727-6.207-3.576-9.649-2.727c-1.338,0.376-2.676,0.938-3.25,2.257c-0.189,0.561,0.573,0.941,0.957,0.749
			c2.484-0.376,5.255-0.232,7.504,0.752c0.564,0.249,1.091,0.548,1.577,0.905c1.629,1.165,2.389,3.044,2.775,4.923
			c0.763-0.185,1.146-1.124,1.21-1.95C38.879,34.242,38.906,33.725,38.859,33.223z"/>
	</g>
	<g>
		<path fill="#D13852" d="M46.089,28.184c0.544,0.474,1.014,0.87,1.487,1.264c0.294,0.242,0.584,0.489,0.881,0.73
			c0.276-0.228,0.575-0.476,0.874-0.724c0.478-0.401,0.947-0.798,1.411-1.194c6.097-5.627,12.918-11.926,13.014-19.743
			c-0.026-0.615-0.131-1.305-0.307-1.979c-0.181-0.694-0.447-1.389-0.781-2.056c-0.857-1.575-2.988-2.886-5.162-3.154
			c-4.134-0.486-6.068,0.577-8.018,3.36l-1.031,1.488l-1.036-1.488c-1.763-2.528-3.498-3.425-6.902-3.425
			c-0.354,0-0.725,0.026-1.114,0.065c-2.171,0.269-4.305,1.58-5.183,3.19c-0.313,0.631-0.577,1.326-0.76,2.02
			c-0.177,0.67-0.28,1.364-0.31,2.052C33.253,16.334,40.068,22.634,46.089,28.184z"/>
		<path fill="#F1A5B1" d="M62.141,7.46c-0.027-0.504-0.12-0.971-0.274-1.389c-0.148-0.421-0.356-0.805-0.608-1.145
			c-1.513-2.05-4.661-2.686-7.247-2.05c-1.004,0.285-2.008,0.708-2.437,1.698c-0.145,0.419,0.429,0.704,0.715,0.562
			c1.867-0.283,3.947-0.174,5.636,0.563c0.423,0.19,0.818,0.413,1.182,0.68c1.222,0.876,1.795,2.285,2.083,3.698
			c0.573-0.14,0.863-0.846,0.91-1.464C62.154,8.225,62.179,7.837,62.141,7.46z"/>
	</g>
</g>
</svg>
