<?xml version="1.0" encoding="UTF-8" standalone="no"?>
<!-- Generator: Adobe Illustrator 16.0.0, SVG Export Plug-In . SVG Version: 6.00 Build 0)  -->

<svg
   xmlns:dc="http://purl.org/dc/elements/1.1/"
   xmlns:cc="http://creativecommons.org/ns#"
   xmlns:rdf="http://www.w3.org/1999/02/22-rdf-syntax-ns#"
   xmlns:svg="http://www.w3.org/2000/svg"
   xmlns="http://www.w3.org/2000/svg"
   xmlns:sodipodi="http://sodipodi.sourceforge.net/DTD/sodipodi-0.dtd"
   xmlns:inkscape="http://www.inkscape.org/namespaces/inkscape"
   version="1.1"
   id="Layer_1"
   x="0px"
   y="0px"
   width="64px"
   height="64px"
   viewBox="0 0 64 64"
   enable-background="new 0 0 64 64"
   xml:space="preserve"
   inkscape:version="0.48.5 r10040"
   sodipodi:docname="1F4B5.svg"
   inkscape:export-filename="D:\TESTINGEMOJI\SVGTEST\1F4B5.png"
   inkscape:export-xdpi="90"
   inkscape:export-ydpi="90"><metadata
   id="metadata33824"><rdf:RDF><cc:Work
       rdf:about=""><dc:format>image/svg+xml</dc:format><dc:type
         rdf:resource="http://purl.org/dc/dcmitype/StillImage" /><dc:title></dc:title></cc:Work></rdf:RDF></metadata><defs
   id="defs33822" /><sodipodi:namedview
   pagecolor="#ffffff"
   bordercolor="#666666"
   borderopacity="1"
   objecttolerance="10"
   gridtolerance="10"
   guidetolerance="10"
   inkscape:pageopacity="0"
   inkscape:pageshadow="2"
   inkscape:window-width="640"
   inkscape:window-height="480"
   id="namedview33820"
   showgrid="false"
   inkscape:zoom="3.6875"
   inkscape:cx="32"
   inkscape:cy="32"
   inkscape:window-x="1002"
   inkscape:window-y="284"
   inkscape:window-maximized="0"
   inkscape:current-layer="Layer_1" />
<g
   id="g33800"
   transform="translate(0,10)">
	<path
   clip-rule="evenodd"
   d="m 62.429,39.403 c 0,2.273 -1.593,4.11 -3.558,4.11 H 3.557 C 1.593,43.514 0,41.677 0,39.403 V 8.073 C 0,5.802 1.593,3.963 3.557,3.963 h 55.314 c 1.965,0 3.558,1.838 3.558,4.11 v 31.33 z"
   id="path33802"
   inkscape:connector-curvature="0"
   style="fill:#04564c;fill-rule:evenodd" />
	<g
   id="g33804">
		<path
   clip-rule="evenodd"
   d="m 63.901,38.272 c 0,2.273 -1.593,4.11 -3.557,4.11 H 5.034 c -1.966,0 -3.557,-1.837 -3.557,-4.11 V 6.942 c 0,-2.271 1.591,-4.11 3.557,-4.11 h 55.311 c 1.964,0 3.557,1.839 3.557,4.11 v 31.33 z"
   id="path33806"
   inkscape:connector-curvature="0"
   style="fill:#01786e;fill-rule:evenodd" />
		<path
   clip-rule="evenodd"
   d="m 57.661,35.146 c 0,1.812 -1.272,3.284 -2.846,3.284 H 10.563 c -1.574,0 -2.846,-1.473 -2.846,-3.284 V 10.072 c 0,-1.815 1.272,-3.289 2.846,-3.289 h 44.252 c 1.573,0 2.846,1.473 2.846,3.289 v 25.074 z"
   id="path33808"
   inkscape:connector-curvature="0"
   style="fill:#08a69b;fill-rule:evenodd" />
		<path
   clip-rule="evenodd"
   d="m 60.947,10.134 c 0,0.257 -0.267,0.466 -0.591,0.466 h -9.191 c -0.322,0 -0.587,-0.209 -0.587,-0.466 V 6.588 c 0,-0.255 0.265,-0.462 0.587,-0.462 h 9.191 c 0.324,0 0.591,0.207 0.591,0.462 v 3.546 z"
   id="path33810"
   inkscape:connector-curvature="0"
   style="fill:#1a8c80;fill-rule:evenodd" />
		<path
   d="m 25.403,24.235 c 0,6.714 -4.713,12.154 -10.528,12.154 l 0,0 c -5.819,0 -10.532,-5.44 -10.532,-12.154 v -3.252 c 0,-6.716 4.713,-12.158 10.532,-12.158 l 0,0 c 5.815,0 10.528,5.442 10.528,12.158 v 3.252 z"
   id="path33812"
   inkscape:connector-curvature="0"
   style="fill:#1ab6a5" />
		<path
   d="m 60.081,31.18 c 0,4.006 -2.524,7.251 -5.645,7.251 l 0,0 c -3.12,0 -5.646,-3.245 -5.646,-7.251 v -1.941 c 0,-4.003 2.525,-7.25 5.646,-7.25 l 0,0 c 3.12,0 5.645,3.246 5.645,7.25 v 1.941 z"
   id="path33814"
   inkscape:connector-curvature="0"
   style="fill:#4ab5a8" />
		<path
   d="m 20.875,21.165 c -1.009,-1.077 -2.405,-1.796 -3.731,-2.395 -1.376,-0.626 -3.375,-1.141 -4.253,-2.492 -0.735,-1.127 0.278,-2.318 1.314,-2.664 1.667,-0.559 3.716,0.114 5.177,0.936 0.731,0.41 1.5,0.009 1.775,-0.721 0.305,-0.806 0.611,-1.612 0.916,-2.418 0.186,-0.493 -0.116,-1.12 -0.553,-1.361 -1.326,-0.74 -2.71,-1.143 -4.174,-1.335 0,-0.82 0,-1.644 0,-2.467 0,-0.657 -0.547,-1.204 -1.205,-1.204 -0.758,0 -1.516,0 -2.273,0 -0.657,0 -1.208,0.547 -1.208,1.204 0,0.92 0,1.837 0,2.757 -2.248,0.648 -4.301,2.102 -5.102,4.404 -0.889,2.552 -0.348,5.192 1.542,7.12 1.013,1.038 2.386,1.723 3.689,2.312 1.469,0.661 3.275,1.137 4.226,2.552 1.013,1.512 -0.298,3.004 -1.721,3.434 -1.898,0.572 -4.207,-0.284 -5.804,-1.284 -0.704,-0.435 -1.52,0.016 -1.774,0.721 -0.29,0.822 -0.584,1.639 -0.878,2.459 -0.189,0.522 0.124,1.081 0.553,1.361 1.508,0.986 3.24,1.478 5.015,1.681 0,0.865 0,1.731 0,2.598 0,0.353 0.127,0.621 0.321,0.816 0.012,0.011 0.023,0.021 0.031,0.032 0.012,0.01 0.023,0.021 0.035,0.033 0.193,0.193 0.462,0.323 0.815,0.323 0.773,0 1.543,0 2.312,0 0.661,0 1.206,-0.55 1.206,-1.205 0,-0.959 0,-1.914 0,-2.869 2.502,-0.721 4.435,-2.335 5.413,-4.848 1,-2.563 0.149,-5.544 -1.664,-7.48 z"
   id="path33816"
   inkscape:connector-curvature="0"
   style="fill:#01786e" />
	</g>
	<path
   clip-rule="evenodd"
   d="m 38.402,0 c 0.831,0 1.5,1.154 1.5,2.575 V 42.64 c 0,1.421 -0.669,2.575 -1.5,2.575 H 26.977 c -0.828,0 -1.5,-1.154 -1.5,-2.575 V 2.575 C 25.477,1.154 26.149,0 26.977,0 h 11.425 z"
   id="path33818"
   inkscape:connector-curvature="0"
   style="fill:#d1d2d3;fill-rule:evenodd" />
</g>
</svg>