<?xml version="1.0" encoding="utf-8"?>
<!-- Generator: Adobe Illustrator 16.0.0, SVG Export Plug-In . SVG Version: 6.00 Build 0)  -->
<!DOCTYPE svg PUBLIC "-//W3C//DTD SVG 1.1//EN" "http://www.w3.org/Graphics/SVG/1.1/DTD/svg11.dtd">
<svg version="1.1" id="Layer_1" xmlns="http://www.w3.org/2000/svg" xmlns:xlink="http://www.w3.org/1999/xlink" x="0px" y="0px"
	 width="64px" height="64px" viewBox="0 0 64 64" enable-background="new 0 0 64 64" xml:space="preserve">
<g>
	<path fill="#25333A" d="M63.947,54.063c0,4.785-3.705,8.664-8.28,8.664H8.281C3.709,62.728,0,58.849,0,54.063v-41.19
		C0,8.093,3.709,4.21,8.281,4.21h47.386c4.575,0,8.28,3.883,8.28,8.664V54.063z"/>
	<path fill="#FFFFFF" d="M57.942,51.38c0,3.459-3.037,6.263-6.789,6.263H12.328c-3.75,0-6.792-2.804-6.792-6.263V21.617
		c0-3.456,3.042-6.261,6.792-6.261h38.826c3.752,0,6.789,2.805,6.789,6.261V51.38z"/>
	<path fill="#D6D7D6" d="M18.956,51.38V21.617c0-3.456,3.04-6.261,6.788-6.261H12.328c-3.75,0-6.792,2.805-6.792,6.261V51.38
		c0,3.459,3.042,6.263,6.792,6.263h13.416C21.995,57.643,18.956,54.839,18.956,51.38z"/>
	<path fill="#BE1E2D" d="M57.942,24.178c0,1.431-3.037,2.593-6.789,2.593H12.328c-3.75,0-6.792-1.162-6.792-2.593V11.845
		c0-1.433,3.042-2.593,6.792-2.593h38.826c3.752,0,6.789,1.16,6.789,2.593V24.178z"/>
	<path fill="#25333A" d="M22.454,52.332V36.531c-2.885,2.257-4.826,3.388-5.823,3.388c-0.478,0-0.9-0.195-1.271-0.584
		c-0.367-0.387-0.55-0.836-0.55-1.347c0-0.59,0.18-1.023,0.542-1.303c0.363-0.275,1.005-0.634,1.925-1.077
		c1.375-0.656,2.472-1.351,3.293-2.079c0.824-0.73,1.552-1.548,2.188-2.448c0.636-0.906,1.048-1.462,1.242-1.671
		c0.191-0.209,0.558-0.309,1.089-0.309c0.605,0,1.085,0.234,1.451,0.709c0.359,0.474,0.544,1.126,0.544,1.962v19.883
		c0,2.326-0.779,3.492-2.334,3.492c-0.691,0-1.246-0.24-1.667-0.711C22.661,53.962,22.454,53.26,22.454,52.332z"/>
	<path fill="#25333A" d="M34.241,29.301h11.337c1.085,0,1.874,0.174,2.366,0.521c0.487,0.345,0.729,0.919,0.729,1.72
		c0,0.482-0.285,1.126-0.858,1.927c-0.574,0.797-1.227,1.679-1.96,2.646c-0.727,0.968-1.488,2.168-2.261,3.605
		c-0.777,1.431-1.491,3.188-2.14,5.259c-0.273,0.916-0.465,1.673-0.574,2.278c-0.117,0.602-0.24,1.378-0.375,2.341
		c-0.137,0.964-0.258,1.696-0.362,2.204c-0.234,1.183-0.57,2.001-1.012,2.457c-0.435,0.459-1.018,0.688-1.744,0.688
		c-0.691,0-1.245-0.248-1.663-0.736c-0.426-0.491-0.635-1.22-0.635-2.183c0-0.739,0.15-1.745,0.461-3.02
		c0.307-1.274,0.806-2.8,1.497-4.574c0.691-1.778,1.556-3.602,2.6-5.472c1.034-1.87,2.269-3.73,3.701-5.581h-9.107
		c-0.955,0-1.668-0.178-2.14-0.529c-0.472-0.357-0.705-0.906-0.705-1.661c0-0.8,0.248-1.314,0.748-1.546
		C32.642,29.414,33.343,29.301,34.241,29.301z"/>
	<path fill="#D0D2D3" d="M22.399,11.769c0,2.179-1.733,3.939-3.863,3.939l0,0c-2.136,0-3.864-1.761-3.864-3.939V3.888
		c0-2.179,1.729-3.941,3.864-3.941l0,0c2.13,0,3.863,1.763,3.863,3.941V11.769z"/>
	<path fill="#D0D2D3" d="M47.351,11.769c0,2.179-1.729,3.939-3.865,3.939l0,0c-2.132,0-3.861-1.761-3.861-3.939V3.888
		c0-2.179,1.729-3.941,3.861-3.941l0,0c2.136,0,3.865,1.763,3.865,3.941V11.769z"/>
</g>
</svg>
