<?xml version="1.0" encoding="UTF-8" standalone="no"?>
<!-- Generator: Adobe Illustrator 16.0.0, SVG Export Plug-In . SVG Version: 6.00 Build 0)  -->

<svg
   xmlns:dc="http://purl.org/dc/elements/1.1/"
   xmlns:cc="http://creativecommons.org/ns#"
   xmlns:rdf="http://www.w3.org/1999/02/22-rdf-syntax-ns#"
   xmlns:svg="http://www.w3.org/2000/svg"
   xmlns="http://www.w3.org/2000/svg"
   xmlns:sodipodi="http://sodipodi.sourceforge.net/DTD/sodipodi-0.dtd"
   xmlns:inkscape="http://www.inkscape.org/namespaces/inkscape"
   version="1.1"
   id="Layer_1"
   x="0px"
   y="0px"
   width="64px"
   height="64px"
   viewBox="0 0 64 64"
   enable-background="new 0 0 64 64"
   xml:space="preserve"
   inkscape:version="0.48.5 r10040"
   sodipodi:docname="1F4F1.svg"
   inkscape:export-filename="D:\TESTINGEMOJI\SVGTEST\1F4F1.png"
   inkscape:export-xdpi="90"
   inkscape:export-ydpi="90"><metadata
   id="metadata4515"><rdf:RDF><cc:Work
       rdf:about=""><dc:format>image/svg+xml</dc:format><dc:type
         rdf:resource="http://purl.org/dc/dcmitype/StillImage" /><dc:title></dc:title></cc:Work></rdf:RDF></metadata><defs
   id="defs4513" /><sodipodi:namedview
   pagecolor="#ffffff"
   bordercolor="#666666"
   borderopacity="1"
   objecttolerance="10"
   gridtolerance="10"
   guidetolerance="10"
   inkscape:pageopacity="0"
   inkscape:pageshadow="2"
   inkscape:window-width="640"
   inkscape:window-height="480"
   id="namedview4511"
   showgrid="false"
   inkscape:zoom="3.6875"
   inkscape:cx="32"
   inkscape:cy="32"
   inkscape:window-x="629"
   inkscape:window-y="340"
   inkscape:window-maximized="0"
   inkscape:current-layer="Layer_1" />
<g
   id="g4487">
	<path
   fill="#405866"
   d="M47.873,0H16.124c-2.804,0-5.08,2.276-5.08,5.079v30.096v1.826V54.57v1.829v2.521   c0,2.799,2.276,5.079,5.08,5.079h31.749c2.803,0,5.083-2.28,5.083-5.079v-2.521V54.57V41.271v-1.838V5.079   C52.956,2.276,50.676,0,47.873,0z"
   id="path4489" />
</g>
<g
   id="g4491">
	<path
   fill="#85CFEA"
   d="M44.579,3.876H19.422c-2.22,0-4.025,1.802-4.025,4.021v23.847v1.448v13.922v1.452v1.998   c0,2.216,1.805,4.025,4.025,4.025h25.157c2.22,0,4.025-1.81,4.025-4.025v-1.998v-1.452V36.578v-1.455V7.898   C48.604,5.678,46.799,3.876,44.579,3.876z"
   id="path4493" />
</g>
<g
   id="g4495">
	<path
   fill="#28A6DE"
   d="M31.297,3.876H19.422c-2.22,0-4.025,1.802-4.025,4.021v42.667c0,2.216,1.805,4.025,4.025,4.025h25.157   c0.813,0,1.564-0.249,2.196-0.659C36.078,39.996,30.352,21.265,31.297,3.876z"
   id="path4497" />
</g>
<g
   id="g4499">
	<path
   fill="#CBD5DC"
   d="M35.298,59.392c0,1.817-1.476,3.298-3.297,3.298s-3.297-1.48-3.297-3.298s1.476-3.298,3.297-3.298   S35.298,57.574,35.298,59.392z"
   id="path4501" />
</g>
<g
   id="g4503">
	<path
   fill="#CBD5DC"
   d="M22.595,59.388c0,1.331-1.078,2.413-2.409,2.413c-1.335,0-2.413-1.082-2.413-2.413   c0-1.327,1.078-2.409,2.413-2.409C21.517,56.979,22.595,58.061,22.595,59.388z"
   id="path4505" />
</g>
<g
   id="g4507">
	<path
   fill="#CBD5DC"
   d="M41.406,59.388c0,1.331,1.078,2.413,2.409,2.413s2.413-1.082,2.413-2.413c0-1.327-1.082-2.409-2.413-2.409   S41.406,58.061,41.406,59.388z"
   id="path4509" />
</g>
</svg>