<?xml version="1.0" encoding="UTF-8" standalone="no"?>
<!-- Generator: Adobe Illustrator 16.0.0, SVG Export Plug-In . SVG Version: 6.00 Build 0)  -->

<svg
   xmlns:dc="http://purl.org/dc/elements/1.1/"
   xmlns:cc="http://creativecommons.org/ns#"
   xmlns:rdf="http://www.w3.org/1999/02/22-rdf-syntax-ns#"
   xmlns:svg="http://www.w3.org/2000/svg"
   xmlns="http://www.w3.org/2000/svg"
   xmlns:sodipodi="http://sodipodi.sourceforge.net/DTD/sodipodi-0.dtd"
   xmlns:inkscape="http://www.inkscape.org/namespaces/inkscape"
   version="1.1"
   id="Layer_1"
   x="0px"
   y="0px"
   width="64px"
   height="64px"
   viewBox="0 0 64 64"
   enable-background="new 0 0 64 64"
   xml:space="preserve"
   inkscape:version="0.48.5 r10040"
   sodipodi:docname="1F561.svg"
   inkscape:export-filename="D:\TESTINGEMOJI\SVGTEST\1F561.png"
   inkscape:export-xdpi="90"
   inkscape:export-ydpi="90"><metadata
   id="metadata4274"><rdf:RDF><cc:Work
       rdf:about=""><dc:format>image/svg+xml</dc:format><dc:type
         rdf:resource="http://purl.org/dc/dcmitype/StillImage" /><dc:title></dc:title></cc:Work></rdf:RDF></metadata><defs
   id="defs4272" /><sodipodi:namedview
   pagecolor="#ffffff"
   bordercolor="#666666"
   borderopacity="1"
   objecttolerance="10"
   gridtolerance="10"
   guidetolerance="10"
   inkscape:pageopacity="0"
   inkscape:pageshadow="2"
   inkscape:window-width="640"
   inkscape:window-height="480"
   id="namedview4270"
   showgrid="false"
   inkscape:zoom="3.6875"
   inkscape:cx="32"
   inkscape:cy="32"
   inkscape:window-x="381"
   inkscape:window-y="221"
   inkscape:window-maximized="0"
   inkscape:current-layer="Layer_1" />
<g
   id="g4258">
	<path
   fill="#E0E7EC"
   d="M61.188,31.765c0,16.25-13.174,29.423-29.425,29.423S2.338,48.015,2.338,31.765   c0-16.253,13.174-29.427,29.425-29.427S61.188,15.512,61.188,31.765z"
   id="path4260" />
	<path
   fill="#D1D7DA"
   d="M51.913,46.825c-16.251,0-29.425-13.174-29.425-29.427c0-5.403,1.483-10.45,4.023-14.802   c-13.68,2.528-24.049,14.5-24.049,28.913c0,16.25,13.173,29.423,29.423,29.423c10.851,0,20.301-5.885,25.404-14.621   C55.545,46.633,53.753,46.825,51.913,46.825z"
   id="path4262" />
	<path
   fill="#98A9B4"
   d="M31.765,0C14.25,0,0,14.25,0,31.765C0,49.28,14.25,63.53,31.765,63.53c17.515,0,31.763-14.25,31.763-31.765   C63.528,14.25,49.28,0,31.765,0z M31.765,57.347c-14.105,0-25.581-11.478-25.581-25.582c0-14.105,11.476-25.581,25.581-25.581   c14.104,0,25.58,11.476,25.58,25.581C57.345,45.869,45.869,57.347,31.765,57.347z"
   id="path4264" />
	<path
   fill="#85939C"
   d="M33.629,52.57c0,1.427-0.842,2.585-1.877,2.585l0,0c-1.034,0-1.877-1.158-1.877-2.585V31.643   c0-1.429,0.843-2.586,1.877-2.586l0,0c1.035,0,1.877,1.158,1.877,2.586V52.57z"
   id="path4266" />
	<path
   fill="#788288"
   d="M29.886,31.643c0-1.429,0.84-2.586,1.875-2.586l0,0c1.036,0,1.877,1.16,1.877,2.586l0.005,15.145   c0,1.426-0.843,2.585-1.875,2.583l0,0c-1.036,0.002-1.879-1.157-1.879-2.581L29.886,31.643z"
   id="path4268" />
</g>
</svg>