<?xml version="1.0" encoding="UTF-8" standalone="no"?>
<!-- Generator: Adobe Illustrator 16.0.0, SVG Export Plug-In . SVG Version: 6.00 Build 0)  -->

<svg
   xmlns:dc="http://purl.org/dc/elements/1.1/"
   xmlns:cc="http://creativecommons.org/ns#"
   xmlns:rdf="http://www.w3.org/1999/02/22-rdf-syntax-ns#"
   xmlns:svg="http://www.w3.org/2000/svg"
   xmlns="http://www.w3.org/2000/svg"
   xmlns:sodipodi="http://sodipodi.sourceforge.net/DTD/sodipodi-0.dtd"
   xmlns:inkscape="http://www.inkscape.org/namespaces/inkscape"
   version="1.1"
   id="Layer_1"
   x="0px"
   y="0px"
   width="64px"
   height="64px"
   viewBox="0 0 64 64"
   enable-background="new 0 0 64 64"
   xml:space="preserve"
   inkscape:version="0.48.5 r10040"
   sodipodi:docname="1F619.svg"
   inkscape:export-filename="D:\TESTINGEMOJI\SVGTEST\1F619.png"
   inkscape:export-xdpi="90"
   inkscape:export-ydpi="90"><metadata
   id="metadata5154"><rdf:RDF><cc:Work
       rdf:about=""><dc:format>image/svg+xml</dc:format><dc:type
         rdf:resource="http://purl.org/dc/dcmitype/StillImage" /><dc:title></dc:title></cc:Work></rdf:RDF></metadata><defs
   id="defs5152" /><sodipodi:namedview
   pagecolor="#ffffff"
   bordercolor="#666666"
   borderopacity="1"
   objecttolerance="10"
   gridtolerance="10"
   guidetolerance="10"
   inkscape:pageopacity="0"
   inkscape:pageshadow="2"
   inkscape:window-width="640"
   inkscape:window-height="480"
   id="namedview5150"
   showgrid="false"
   inkscape:zoom="3.6875"
   inkscape:cx="32"
   inkscape:cy="32"
   inkscape:window-x="679"
   inkscape:window-y="269"
   inkscape:window-maximized="0"
   inkscape:current-layer="Layer_1" />
<g
   id="g5124">
	<g
   id="g5126">
		<g
   id="g5128">
			<circle
   fill="#FBB041"
   cx="31.796"
   cy="31.796"
   r="31.796"
   id="circle5130" />
		</g>
	</g>
	<g
   opacity="0.9866"
   id="g5132">
		<g
   id="g5134">
			<g
   id="g5136">
				<path
   fill="#E79D3C"
   d="M15.132,40.989C9.499,28.902,9.246,15.888,14.338,5.131C5.707,10.815,0,20.582,0,31.693      c0,17.563,14.235,31.796,31.796,31.796c0.312,0,0.619-0.039,0.93-0.049C25.438,57.308,19.294,49.922,15.132,40.989z"
   id="path5138" />
			</g>
		</g>
	</g>
	<path
   fill="#633D19"
   d="M29.205,29.244c-1.361-3.719-4.453-7.279-8.718-7.195c-3.98,0.076-6.378,4.285-7.676,7.473   c-0.809,1.99,2.412,2.846,3.213,0.885c0.833-2.046,2.06-4.307,4.311-4.991c2.578-0.79,4.937,2.75,5.657,4.715   C26.723,32.131,29.944,31.267,29.205,29.244z"
   id="path5140" />
	<path
   fill="#633D19"
   d="M34.99,29.209c1.361-3.719,4.45-7.279,8.719-7.197c3.979,0.078,6.376,4.287,7.673,7.474   c0.812,1.992-2.411,2.848-3.211,0.887c-0.833-2.048-2.062-4.307-4.311-4.993c-2.579-0.788-4.938,2.752-5.657,4.717   C37.471,32.092,34.251,31.228,34.99,29.209z"
   id="path5142" />
	<g
   id="g5144">
		<g
   id="g5146">
			<path
   fill="#633D19"
   d="M39.087,42.017c-0.615-1.439-1.93-2.169-3.91-2.169c-1.544,0-3.221,0.443-4.447,0.768l-0.716,0.184     c-0.315,0.077-1.949,0.996-1.84,1.885l0.19,0.716h0.662c0.109,0,0.226-0.016,0.364-0.049l0.593-0.149     c1.34-0.337,2.603-0.656,3.923-0.656c0.776,0,1.438,0.3,1.971,0.892c0.436,0.48,0.366,0.762,0.343,0.855     c-0.117,0.486-0.876,1.068-1.887,1.453c-0.016,0.006-1.57,0.647-1.638,1.551l0.051,0.612l0.409,0.233     c2.291,1.313,2.244,2.161,1.948,2.755c-0.326,0.653-1.256,0.791-1.979,0.791c-1.004,0-2.089-0.269-2.724-0.533l-0.42-0.081     c-0.794,0-2.074,0.955-2.214,1.647l-0.07,0.704l0.564,0.235c0.977,0.41,2.015,0.618,3.081,0.618h0.004     c1.867,0,3.773-0.653,5.361-1.838c1.408-1.051,1.687-2.147,1.673-2.885c-0.02-0.924-0.498-1.854-1.37-2.687     C39.203,45.557,39.901,43.929,39.087,42.017z"
   id="path5148" />
		</g>
	</g>
</g>
</svg>