<?xml version="1.0" encoding="UTF-8" standalone="no"?>
<!-- Generator: Adobe Illustrator 16.0.0, SVG Export Plug-In . SVG Version: 6.00 Build 0)  -->

<svg
   xmlns:dc="http://purl.org/dc/elements/1.1/"
   xmlns:cc="http://creativecommons.org/ns#"
   xmlns:rdf="http://www.w3.org/1999/02/22-rdf-syntax-ns#"
   xmlns:svg="http://www.w3.org/2000/svg"
   xmlns="http://www.w3.org/2000/svg"
   xmlns:sodipodi="http://sodipodi.sourceforge.net/DTD/sodipodi-0.dtd"
   xmlns:inkscape="http://www.inkscape.org/namespaces/inkscape"
   version="1.1"
   id="Layer_1"
   x="0px"
   y="0px"
   width="64px"
   height="64px"
   viewBox="0 0 64 64"
   enable-background="new 0 0 64 64"
   xml:space="preserve"
   inkscape:version="0.48.5 r10040"
   sodipodi:docname="1F696.svg"
   inkscape:export-filename="D:\TESTINGEMOJI\SVGTEST\1F696.png"
   inkscape:export-xdpi="90"
   inkscape:export-ydpi="90"><metadata
   id="metadata3573"><rdf:RDF><cc:Work
       rdf:about=""><dc:format>image/svg+xml</dc:format><dc:type
         rdf:resource="http://purl.org/dc/dcmitype/StillImage" /><dc:title></dc:title></cc:Work></rdf:RDF></metadata><defs
   id="defs3571" /><sodipodi:namedview
   pagecolor="#ffffff"
   bordercolor="#666666"
   borderopacity="1"
   objecttolerance="10"
   gridtolerance="10"
   guidetolerance="10"
   inkscape:pageopacity="0"
   inkscape:pageshadow="2"
   inkscape:window-width="640"
   inkscape:window-height="480"
   id="namedview3569"
   showgrid="false"
   inkscape:zoom="3.6875"
   inkscape:cx="32"
   inkscape:cy="32"
   inkscape:window-x="749"
   inkscape:window-y="226"
   inkscape:window-maximized="0"
   inkscape:current-layer="Layer_1" />
<g
   id="g3541">
	<path
   fill="#1C282B"
   d="M12.124,53.273c0,2.713-2.199,4.912-4.913,4.912l0,0c-2.714,0-4.913-2.199-4.913-4.912v-8.158   c0-2.713,2.199-4.912,4.913-4.912l0,0c2.714,0,4.913,2.199,4.913,4.912V53.273z"
   id="path3543" />
	<path
   fill="#1C282B"
   d="M61.626,53.273c0,2.713-2.199,4.912-4.913,4.912l0,0c-2.714,0-4.912-2.199-4.912-4.912v-8.158   c0-2.713,2.198-4.912,4.912-4.912l0,0c2.714,0,4.913,2.199,4.913,4.912V53.273z"
   id="path3545" />
	<path
   fill="#F9A425"
   d="M37.129,4c-3.303,0-6.601,0-9.901,0c-2.099,0-4.197,0-6.298,0c-0.132,0-0.246,0.05-0.246,0.111   c0,1.517,0,3.029,0,4.545c0,0.865,0,1.733,0,2.601c0,0.059,0.113,0.111,0.246,0.111c3.302,0,6.601,0,9.903,0   c2.099,0,4.194,0,6.297,0c0.069,0,0.128-0.013,0.167-0.031l0.003-0.002l0.007-0.004c0.039-0.015,0.063-0.041,0.063-0.074   c0-1.515,0-3.031,0-4.547c0-0.867,0-1.732,0-2.599C37.37,4.05,37.261,4,37.129,4z"
   id="path3547" />
	<path
   fill="#F48020"
   d="M43.473,4c-2.188,0-4.382,0-6.574,0c-1.391,0-2.782,0-4.18,0c-0.087,0-0.16,0.05-0.16,0.111   c0,1.517,0,3.029,0,4.545c0,0.865,0,1.733,0,2.601c0,0.059,0.073,0.111,0.16,0.111c2.192,0,4.385,0,6.575,0   c1.394,0,2.783,0,4.181,0c0.045,0,0.084-0.013,0.112-0.031v-0.002l0.004-0.004c0.026-0.015,0.046-0.041,0.046-0.074   c0-1.515,0-3.031,0-4.547c0-0.867,0-1.732,0-2.599C43.636,4.05,43.559,4,43.473,4z"
   id="path3549" />
	<path
   fill="#E4E4E4"
   d="M59.313,30.207c0,7.167-6.965,5.714-15.556,5.714H20.532c-8.591,0-15.557,1.453-15.557-5.714L7.2,22.948   c0-7.163,6.965-12.971,15.556-12.971h18.776c8.591,0,15.557,5.808,15.557,12.971L59.313,30.207z"
   id="path3551" />
	<path
   fill="#A2C3CB"
   d="M57.82,31.971c0,6.772-6.586,5.399-14.699,5.399H21.166c-8.115,0-14.698,1.373-14.698-5.399l2.103-6.861   c0-6.77,6.581-12.258,14.701-12.258h17.746c8.117,0,14.698,5.488,14.698,12.258L57.82,31.971z"
   id="path3553" />
	<path
   fill="#8EB1B7"
   d="M35.348,28.566c-5.598-2.7-14.668-8.536-16.144-15.228C13.066,14.811,8.571,19.517,8.571,25.11   l-2.103,6.861c0,6.772,6.583,5.399,14.698,5.399h21.955c6.604,0,12.189,0.907,14.042-2.401   C49.566,33.711,42.121,31.834,35.348,28.566z"
   id="path3555" />
	<path
   fill="#F48020"
   d="M64.046,37.918c0,7.438-8.178,13.466-18.264,13.466H18.507c-10.086,0-18.264-6.026-18.264-13.466l0,0   c0-7.435,8.178-13.464,18.264-13.464h27.275C55.868,24.454,64.046,30.483,64.046,37.918L64.046,37.918z"
   id="path3557" />
	<path
   fill="#DA7327"
   d="M4.895,28.964c-2.883,2.379-4.652,5.511-4.652,8.954c0,7.438,8.178,13.466,18.264,13.466h6.19   C22.891,46.628,18.007,30.885,4.895,28.964z"
   id="path3559" />
	<path
   fill="#E4E4E4"
   d="M55.755,49.195c0,1.979-1.836,3.578-4.104,3.578H11.317c-2.273,0-4.106-1.6-4.106-3.578l0,0   c0-1.977,1.833-3.578,4.106-3.578H51.65C53.919,45.617,55.755,47.219,55.755,49.195L55.755,49.195z"
   id="path3561" />
	<path
   fill="#D1D2D3"
   d="M7.752,47.451c-0.334,0.518-0.541,1.107-0.541,1.744c0,1.979,1.833,3.578,4.106,3.578H51.65   c1.589,0,2.953-0.795,3.638-1.948C41.473,51.344,20.232,52.205,7.752,47.451z"
   id="path3563" />
	<path
   fill="#E4E4E4"
   d="M16.521,37.918c0,2.113-1.56,3.826-3.489,3.826H7.817c-1.929,0-3.494-1.713-3.494-3.826l0,0   c0-2.111,1.564-3.824,3.494-3.824h5.215C14.961,34.094,16.521,35.807,16.521,37.918L16.521,37.918z"
   id="path3565" />
	<path
   fill="#E4E4E4"
   d="M59.313,37.918c0,2.113-1.562,3.826-3.49,3.826h-5.217c-1.93,0-3.491-1.713-3.491-3.826l0,0   c0-2.111,1.562-3.824,3.491-3.824h5.217C57.752,34.094,59.313,35.807,59.313,37.918L59.313,37.918z"
   id="path3567" />
</g>
</svg>