<?xml version="1.0" encoding="UTF-8" standalone="no"?>
<!-- Generator: Adobe Illustrator 16.0.0, SVG Export Plug-In . SVG Version: 6.00 Build 0)  -->

<svg
   xmlns:dc="http://purl.org/dc/elements/1.1/"
   xmlns:cc="http://creativecommons.org/ns#"
   xmlns:rdf="http://www.w3.org/1999/02/22-rdf-syntax-ns#"
   xmlns:svg="http://www.w3.org/2000/svg"
   xmlns="http://www.w3.org/2000/svg"
   xmlns:sodipodi="http://sodipodi.sourceforge.net/DTD/sodipodi-0.dtd"
   xmlns:inkscape="http://www.inkscape.org/namespaces/inkscape"
   version="1.1"
   id="Layer_1"
   x="0px"
   y="0px"
   width="64px"
   height="64px"
   viewBox="0 0 64 64"
   enable-background="new 0 0 64 64"
   xml:space="preserve"
   inkscape:version="0.48.5 r10040"
   sodipodi:docname="1F6B2.svg"
   inkscape:export-filename="D:\TESTINGEMOJI\SVGTEST\1F6B2.png"
   inkscape:export-xdpi="90"
   inkscape:export-ydpi="90"><metadata
   id="metadata6823"><rdf:RDF><cc:Work
       rdf:about=""><dc:format>image/svg+xml</dc:format><dc:type
         rdf:resource="http://purl.org/dc/dcmitype/StillImage" /><dc:title></dc:title></cc:Work></rdf:RDF></metadata><defs
   id="defs6821" /><sodipodi:namedview
   pagecolor="#ffffff"
   bordercolor="#666666"
   borderopacity="1"
   objecttolerance="10"
   gridtolerance="10"
   guidetolerance="10"
   inkscape:pageopacity="0"
   inkscape:pageshadow="2"
   inkscape:window-width="640"
   inkscape:window-height="480"
   id="namedview6819"
   showgrid="false"
   inkscape:zoom="3.6875"
   inkscape:cx="32"
   inkscape:cy="32"
   inkscape:window-x="611"
   inkscape:window-y="365"
   inkscape:window-maximized="0"
   inkscape:current-layer="Layer_1" />
<g
   id="g6801">
	<path
   fill="#A7A8AC"
   d="M60.465,31.892c-3.41-3.726-9.007-4.802-13.507-2.596c-0.405,0.204-0.797,0.419-1.197,0.631   c-0.022-0.031-0.046-0.058-0.069-0.089c-0.537,0.534-1.188,0.972-1.832,1.397c0.017,0.087,0.013,0.19-0.028,0.229   c-0.828,0.78-1.426,1.723-2.022,2.689c-0.865,1.391-1.263,2.936-1.455,4.545c-0.062,0.492-0.078,0.989-0.105,1.491   c-0.006,0.138,0.324,2.62,0.365,2.788c1.502,5.656,6.566,9.333,12.312,8.841c4.019-0.348,7.101-2.358,9.13-5.862   C64.705,41.375,64.031,35.789,60.465,31.892z M60.732,43.611c-1.512,3.924-5.678,6.444-9.807,5.967   c-4.504-0.525-7.443-4.033-8.119-7.147c0.141-0.017-0.203-2.249-0.266-2.241c-0.525-1.55,1.201-5.847,2.813-6.99   c0.025,0.039,1.867-1.255,1.771-1.39c2.503-1.685,6.789-2.145,10.245,0.349C61.036,34.799,62.363,39.379,60.732,43.611z"
   id="path6803" />
	<path
   fill="#A7A8AC"
   d="M20.68,32.341c-0.633-0.524-1.215-1.108-1.762-1.734c-0.089-0.049-0.128-0.068-0.157-0.097   c-2.505-1.869-5.322-2.684-8.402-2.249c-4.729,0.666-8.035,3.316-9.626,7.863c-1.479,4.25-0.707,8.244,2.216,11.647   c2.841,3.324,6.52,4.646,10.8,3.925c5.021-0.846,8.821-4.806,9.585-9.91c0.516-3.457-0.349-6.582-2.577-9.29   C20.71,32.44,20.697,32.393,20.68,32.341z M16.698,48.205c-5.815,3.588-13.346-0.01-14.314-6.847   c-0.765-5.403,3.168-10.438,8.543-10.891c2.53-0.218,4.792,0.495,6.789,2.084c0.181,0.149,0.2,0.256,0.103,0.473   c-0.844,1.82-1.979,3.396-3.632,4.55c-0.846,0.584-1.739,1.045-2.711,1.358c-0.867,0.272-1.108,1.3-0.465,1.913   c0.351,0.339,0.774,0.357,1.212,0.215c1.715-0.54,3.225-1.455,4.552-2.682c1.063-0.982,1.907-2.135,2.565-3.428   c0.052-0.107,0.12-0.213,0.206-0.375c0.142,0.211,0.256,0.375,0.357,0.541C22.558,39.631,21.12,45.478,16.698,48.205z"
   id="path6805" />
	<path
   fill="#25333A"
   d="M11.826,18.268c0,0-1.339,2.014,0,2.348c0,0,8.536,1.737,12.89-2.185l-1.257-0.968l-9.039,0.968   L11.826,18.268z"
   id="path6807" />
	<path
   fill="#8EB1B7"
   d="M52.7,39.375c-1.775-2.377-3.524-4.77-5.276-7.16c-0.104-0.134-2.322-3.093-2.625-3.502   c-0.617-0.846-1.232-1.704-1.83-2.565c-0.07-0.099-0.087-0.282-0.053-0.396c0.482-1.315,0.98-2.618,1.462-3.925   c0.067-0.2,0.164-0.268,0.386-0.268c1.1-0.021,2.194-0.05,3.291-0.108c0.539-0.033,0.924-0.45,0.985-0.958   c0.09-0.732-0.415-1.294-1.151-1.277c-1.027,0.018-2.046,0.08-3.063,0.08c-1.167-0.006-2.319-0.113-3.446-0.375v0.192   c0,0.724-0.179,1.407-0.566,2.006c0.185,0.039,0.367,0.078,0.554,0.115c0.252,0.042,0.498,0.097,0.753,0.147   c-0.008,0.083-0.008,0.128-0.02,0.168c-0.432,1.149-0.869,2.296-1.293,3.448c-0.062,0.179-0.175,0.179-0.317,0.149   c-1.372-0.245-2.74-0.485-4.106-0.72c-3.617-0.633-7.226-1.257-10.845-1.888c-0.293-0.056-0.592-0.114-0.908-0.177   c0.048-0.14,0.08-0.234,0.114-0.333c0.47-1.294,0.939-2.586,1.403-3.881c0.293-0.813-0.068-1.459-0.902-1.63l-2.268,1.717   c0.211,0.076,0.433,0.147,0.681,0.229c-1.498,4.106-3.023,8.147-4.717,12.154c-0.11-0.06-1.022,2.189-1.12,2.406   c-0.844,1.82-1.979,3.396-3.632,4.551c-0.846,0.584-1.739,1.043-2.711,1.357c-0.867,0.273-1.108,1.3-0.465,1.913   c0.351,0.339,0.774,0.356,1.212,0.215c1.715-0.54,3.225-1.455,4.552-2.683c1.063-0.981,1.907-2.133,2.565-3.426   c0.052-0.108,1.269-2.73,1.349-2.91c0.266-0.582,0.518-1.17,0.774-1.758c0.031-0.07,0.087-0.134,0.167-0.258   c0.146,0.175,0.249,0.314,0.373,0.439c2.053,2.051,4.102,4.09,6.151,6.137c0.627,0.627,1.221,1.287,1.847,1.919   c1.265,1.274,2.548,2.544,3.815,3.829c0.019,0.023,0.041,0.048,0.064,0.074c0.11,0.103,0.178,0.171,0.104,0.146l0.006,0.006   c0.129,0.074,0.257,0.141,0.393,0.198c0.023,0.009,0.051,0.019,0.083,0.022c0.388,0.096,0.782,0.171,1.179,0.22   c0.059-0.017,0.893,0.021,0.992,0.021c0.062,0,0.125,0.008,0.188,0.01c0.201-0.029,0.412-0.051,0.639-0.051   c0.112,0,0.227,0.006,0.336,0.015c0.838-0.097,1.68-0.196,2.516-0.3c0.227-0.026,2.527-0.135,2.494-0.284   c0.855-0.099,1.69-0.196,2.526-0.3c2.181-0.254,4.354-0.482,6.533-0.762C52.948,41.23,53.302,40.181,52.7,39.375z M35.557,39.039   c-0.029,0-0.067,0.008-0.099,0.013c-0.354-1.197-0.672-2.397-0.92-3.671c0.487-0.035,0.944-0.061,1.385-0.098   c0.741-0.063,1.195-0.765,0.978-1.477c-0.147-0.454-0.5-0.747-1.043-0.73c-0.979,0.033-1.951,0.088-2.922,0.196   c-0.681,0.078-1.045,0.741-0.865,1.478c0.264,1.076,0.539,2.146,0.807,3.227c0.015,0.044,0.024,0.096-0.021,0.197   c-0.289-0.272-0.591-0.535-0.876-0.822c-0.611-0.621-1.211-1.262-1.828-1.884c-1.952-1.976-3.916-3.937-5.875-5.902   c-0.522-0.53-1.054-1.048-1.593-1.549c-0.144-0.146-0.157-0.244-0.08-0.442c0.365-0.877,0.698-1.76,1.044-2.646   c0.157-0.4,0.221-0.437,0.648-0.353c1.021,0.188,2.049,0.397,3.07,0.578c2.608,0.446,5.22,0.889,7.814,1.329   c1.228,0.208,2.449,0.427,3.668,0.639c0.344,0.062,0.676,0.153,1.076,0.246C38.461,31.283,37.008,35.156,35.557,39.039z    M42.542,40.188c-0.021-0.065-0.019-0.163-0.033-0.237c-0.489,0.082-0.991,0.102-1.315,0.135c-0.299,0.029-0.62,0.043-0.942,0.045   c0,0.019-0.004,0.039-0.004,0.058c-0.006,0.147-0.008,0.276-0.199,0.293c-0.879,0.101-1.757,0.2-2.64,0.289   c-0.021,0-0.036-0.019-0.096-0.048c1.506-4.061,3.021-8.126,4.543-12.236c0.096,0.078,0.168,0.119,0.211,0.179   c0.595,0.827,1.191,1.649,1.775,2.485c0.047,0.076,1.381,2.143,1.514,2.047c1.484,2.022,2.978,4.045,4.521,6.137   C47.379,39.621,44.96,39.906,42.542,40.188z"
   id="path6809" />
	<path
   fill="#25333A"
   d="M44.245,38.664c0,0,2.733,0.524,1.948,2.117l-6.482,4.814c0,0-2.73,0.152-1.504-2.239l3.126-3.679   L44.245,38.664z"
   id="path6811" />
	<path
   fill="#25333A"
   d="M11.826,18.268c0,0-1.339,2.014,0,2.348c0,0,8.536,1.737,12.89-2.185l-0.182-1.375L11.826,18.268z"
   id="path6813" />
	<path
   fill="#C5344D"
   d="M47.889,19.214c-1.027,0.018-2.046,0.08-3.063,0.08c-1.167-0.006-2.319-0.113-3.446-0.375   c0,0-2.773,0.985-0.566,2.198c0.185,0.039,0.367,0.078,0.554,0.115c0.252,0.042,0.498,0.097,0.753,0.147   c0,0.023-0.004,0.031-0.004,0.048c0.57,0.052,1.137,0.116,1.691,0.227c0.213,0.025,0.424,0.037,0.633,0.078   c0.065-0.113,0.154-0.175,0.326-0.175c1.099-0.021,2.193-0.05,3.291-0.108c0.538-0.033,0.924-0.45,0.984-0.958   C49.13,19.76,48.625,19.198,47.889,19.214z"
   id="path6815" />
	<path
   fill="#25333A"
   d="M44.245,38.664c0,0,2.733,0.524,1.948,2.117l-6.482,4.814c0,0-2.73,0.152-1.504-2.239l3.126-3.679   L44.245,38.664z"
   id="path6817" />
</g>
</svg>