<?xml version="1.0" encoding="UTF-8" standalone="no"?>
<!-- Generator: Adobe Illustrator 16.0.0, SVG Export Plug-In . SVG Version: 6.00 Build 0)  -->

<svg
   xmlns:dc="http://purl.org/dc/elements/1.1/"
   xmlns:cc="http://creativecommons.org/ns#"
   xmlns:rdf="http://www.w3.org/1999/02/22-rdf-syntax-ns#"
   xmlns:svg="http://www.w3.org/2000/svg"
   xmlns="http://www.w3.org/2000/svg"
   xmlns:sodipodi="http://sodipodi.sourceforge.net/DTD/sodipodi-0.dtd"
   xmlns:inkscape="http://www.inkscape.org/namespaces/inkscape"
   version="1.1"
   id="Layer_1"
   x="0px"
   y="0px"
   width="64px"
   height="64px"
   viewBox="0 0 64 64"
   enable-background="new 0 0 64 64"
   xml:space="preserve"
   inkscape:version="0.48.5 r10040"
   sodipodi:docname="1F6B8.svg"
   inkscape:export-filename="D:\TESTINGEMOJI\SVGTEST\1F6B8.png"
   inkscape:export-xdpi="90"
   inkscape:export-ydpi="90"><metadata
   id="metadata7227"><rdf:RDF><cc:Work
       rdf:about=""><dc:format>image/svg+xml</dc:format><dc:type
         rdf:resource="http://purl.org/dc/dcmitype/StillImage" /><dc:title></dc:title></cc:Work></rdf:RDF></metadata><defs
   id="defs7225" /><sodipodi:namedview
   pagecolor="#ffffff"
   bordercolor="#666666"
   borderopacity="1"
   objecttolerance="10"
   gridtolerance="10"
   guidetolerance="10"
   inkscape:pageopacity="0"
   inkscape:pageshadow="2"
   inkscape:window-width="640"
   inkscape:window-height="480"
   id="namedview7223"
   showgrid="false"
   inkscape:zoom="3.6875"
   inkscape:cx="32"
   inkscape:cy="32"
   inkscape:window-x="762"
   inkscape:window-y="382"
   inkscape:window-maximized="0"
   inkscape:current-layer="Layer_1" />
<g
   id="g7203">
	<path
   fill="#A95826"
   d="M62.702,28.481C53.479,19.4,44.259,10.321,35.038,1.243c-0.898-0.883-1.905-1.236-2.875-1.24   C32.102,0,32.045,0.003,31.984,0c-0.063,0.003-0.125,0-0.188,0.005c-0.974,0.003-1.977,0.356-2.872,1.238   C19.698,10.321,10.477,19.4,1.254,28.481c-1.672,1.643-1.672,4.469,0,6.113c9.223,9.079,18.444,18.154,27.668,27.233   c1.689,1.662,4.424,1.662,6.114,0c9.223-9.079,18.443-18.154,27.666-27.233C64.375,32.95,64.375,30.124,62.702,28.481z"
   id="path7205" />
	<polygon
   fill="#FFDD15"
   points="59.646,31.539 31.978,58.773 4.309,31.539 31.979,4.301  "
   id="polygon7207" />
	<g
   id="g7209">
		<g
   id="g7211">
			<path
   fill-rule="evenodd"
   clip-rule="evenodd"
   d="M37.522,39.451c-1.92-0.291-3.475-0.514-5.017-0.791     c-0.274-0.051-0.528-0.317-0.739-0.537c-0.865-0.908-1.7-1.853-2.566-2.76c-0.982-1.028-2.29-0.954-3.185,0.176     c-1.533,1.943-3.049,3.901-4.574,5.849c-0.269,0.337-0.493,0.798-0.845,0.959c-0.433,0.193-1.115,0.336-1.442,0.122     c-0.316-0.207-0.455-0.904-0.425-1.37c0.023-0.371,0.379-0.754,0.642-1.088c1.688-2.174,3.407-4.316,5.068-6.512     c0.302-0.401,0.431-0.972,0.516-1.489c0.549-3.313-0.365-6.031-3.156-8.1c-1.027-0.759-1.781-1.874-2.69-2.801     c-0.539-0.552-0.79-1.193-0.184-1.734c0.584-0.521,1.25-0.247,1.771,0.297c1.278,1.334,2.522,2.701,3.861,3.967     c0.402,0.38,1.052,0.565,1.618,0.687c3.676,0.797,6.363-1.263,9.083-3.207c0.383-0.272,0.754-0.678,1.179-0.751     c0.487-0.085,1.024,0.123,1.544,0.206c-0.142,0.517-0.119,1.253-0.453,1.505c-1.924,1.427-3.903,2.788-5.92,4.077     c-0.831,0.532-1.2,1.13-1.099,2.109C30.583,29,30.641,29.779,30.5,30.5c-0.559,2.876,1.601,4.219,3.262,5.8     c0.389,0.369,1.18,0.327,1.794,0.449c0.655,0.124,1.315,0.209,1.972,0.341c0.744,0.15,1.327,0.585,1.033,1.373     C38.393,38.924,37.781,39.222,37.522,39.451z"
   id="path7213" />
			<path
   fill-rule="evenodd"
   clip-rule="evenodd"
   d="M27.801,23.871c-1.182-0.028-2.03-0.927-2.013-2.152     c0.015-1.204,0.895-2.07,2.094-2.063c1.159,0.007,2.059,0.956,2.023,2.141C29.871,22.989,28.953,23.897,27.801,23.871z"
   id="path7215" />
		</g>
		<g
   id="g7217">
			<path
   fill-rule="evenodd"
   clip-rule="evenodd"
   d="M48.751,40.2c-1.457-0.224-2.64-0.39-3.812-0.601     c-0.205-0.038-0.401-0.24-0.559-0.407c-0.66-0.69-1.294-1.408-1.951-2.096c-0.747-0.783-1.744-0.727-2.42,0.134     c-1.168,1.476-2.32,2.961-3.478,4.442c-0.203,0.257-0.376,0.604-0.642,0.727c-0.331,0.151-0.848,0.26-1.095,0.095     c-0.243-0.159-0.347-0.683-0.324-1.04c0.015-0.284,0.291-0.575,0.486-0.832c1.283-1.645,2.593-3.275,3.849-4.944     c0.23-0.301,0.332-0.737,0.396-1.128c0.417-2.521-0.275-4.586-2.398-6.161c-0.778-0.572-1.354-1.425-2.041-2.127     c-0.416-0.42-0.605-0.907-0.141-1.321c0.441-0.392,0.946-0.187,1.342,0.226c0.97,1.013,1.915,2.054,2.936,3.02     c0.304,0.288,0.799,0.426,1.232,0.52c2.792,0.609,4.833-0.959,6.9-2.436c0.293-0.208,0.574-0.514,0.896-0.573     c0.371-0.064,0.78,0.098,1.174,0.157c-0.108,0.394-0.089,0.951-0.347,1.145c-1.458,1.086-2.963,2.116-4.496,3.097     c-0.635,0.404-0.915,0.86-0.837,1.6c0.056,0.567,0.102,1.155-0.004,1.701c-0.427,2.188,1.214,3.21,2.477,4.404     c0.294,0.285,0.899,0.254,1.363,0.345c0.497,0.1,1,0.159,1.497,0.262c0.567,0.114,1.01,0.444,0.788,1.043     C49.414,39.8,48.947,40.028,48.751,40.2z"
   id="path7219" />
			<path
   fill-rule="evenodd"
   clip-rule="evenodd"
   d="M41.366,28.359c-0.901-0.019-1.541-0.706-1.533-1.629     c0.012-0.917,0.681-1.58,1.595-1.577c0.878,0.007,1.563,0.73,1.535,1.629C42.936,27.69,42.238,28.376,41.366,28.359z"
   id="path7221" />
		</g>
	</g>
</g>
</svg>