<?xml version="1.0" encoding="UTF-8" standalone="no"?>
<!-- Generator: Adobe Illustrator 16.0.0, SVG Export Plug-In . SVG Version: 6.00 Build 0)  -->

<svg
   xmlns:dc="http://purl.org/dc/elements/1.1/"
   xmlns:cc="http://creativecommons.org/ns#"
   xmlns:rdf="http://www.w3.org/1999/02/22-rdf-syntax-ns#"
   xmlns:svg="http://www.w3.org/2000/svg"
   xmlns="http://www.w3.org/2000/svg"
   xmlns:sodipodi="http://sodipodi.sourceforge.net/DTD/sodipodi-0.dtd"
   xmlns:inkscape="http://www.inkscape.org/namespaces/inkscape"
   version="1.1"
   id="Layer_1"
   x="0px"
   y="0px"
   width="64px"
   height="64px"
   viewBox="0 0 64 64"
   enable-background="new 0 0 64 64"
   xml:space="preserve"
   inkscape:version="0.48.5 r10040"
   sodipodi:docname="1F6C3.svg"
   inkscape:export-filename="D:\TESTINGEMOJI\SVGTEST\1F6C3.png"
   inkscape:export-xdpi="90"
   inkscape:export-ydpi="90"><metadata
   id="metadata7969"><rdf:RDF><cc:Work
       rdf:about=""><dc:format>image/svg+xml</dc:format><dc:type
         rdf:resource="http://purl.org/dc/dcmitype/StillImage" /><dc:title></dc:title></cc:Work></rdf:RDF></metadata><defs
   id="defs7967" /><sodipodi:namedview
   pagecolor="#ffffff"
   bordercolor="#666666"
   borderopacity="1"
   objecttolerance="10"
   gridtolerance="10"
   guidetolerance="10"
   inkscape:pageopacity="0"
   inkscape:pageshadow="2"
   inkscape:window-width="640"
   inkscape:window-height="480"
   id="namedview7965"
   showgrid="false"
   inkscape:zoom="3.6875"
   inkscape:cx="32"
   inkscape:cy="32"
   inkscape:window-x="588"
   inkscape:window-y="318"
   inkscape:window-maximized="0"
   inkscape:current-layer="Layer_1" />
<g
   id="g7925">
	<g
   id="g7927">
		<path
   fill="#1B75BB"
   d="M63.791,56.913c0,3.802-3.076,6.882-6.876,6.882H6.874C3.078,63.795,0,60.715,0,56.913V6.877    C0,3.08,3.078,0,6.874,0h50.042c3.8,0,6.876,3.08,6.876,6.877V56.913z"
   id="path7929" />
		<path
   fill="#0867A3"
   d="M0,48.574v8.339c0,3.802,3.078,6.882,6.874,6.882h50.042c3.8,0,6.876-3.08,6.876-6.882V6.877    C52.898,46.446,13.739,48.954,0,48.574z"
   id="path7931" />
	</g>
	<g
   id="g7933">
		<path
   fill-rule="evenodd"
   clip-rule="evenodd"
   fill="#FFFFFF"
   d="M44.932,27.166c-1.225,2.579-2.512,4.939-3.486,7.442    c-0.995,2.559-1.687,5.255-2.49,7.822c-0.972-1.219-0.654-2.986-0.886-4.599c-0.105-0.046-0.213-0.089-0.321-0.132    c-0.431,0.697-0.888,1.384-1.291,2.097c-0.444,0.788-0.767,1.665-1.283,2.383c-0.43,0.588-1.049,1.032-1.613,1.497    c-0.667,0.551-1.35,1.081-2.059,1.571c-1.411,0.972-2.986,0.224-4.475,0.419c-0.116,0.016-0.353-0.296-0.376-0.474    c-0.027-0.22,0.055-0.533,0.196-0.682c1.418-1.497,2.935-2.898,4.256-4.483c0.623-0.747,0.88-1.842,1.311-2.774    c0.175-0.373,0.351-0.743,0.525-1.113c0.337-0.709,0.676-1.415,1-2.128c0.468-1.017,0.892-2.062,1.373-3.068    c0.385-0.802,0.819-1.58,1.262-2.346c0.081-0.139,0.308-0.225,0.479-0.249c1.912-0.239,3.827-0.451,5.737-0.706    c0.419-0.055,0.815-0.294,1.232-0.398C44.309,27.173,44.618,27.187,44.932,27.166z"
   id="path7935" />
		<path
   fill-rule="evenodd"
   clip-rule="evenodd"
   fill="#FFFFFF"
   d="M45.151,17.141c-1.433-0.02-2.644,0.066-3.938,0.401    c-2.021,0.525-4.154,0.551-6.249,0.733c-0.257,0.135-0.521,0.249-0.796,0.341c-0.213,0.196-0.44,0.37-0.682,0.525    c-0.386,0.484-0.641,1.083-0.515,1.524c0.077,0.276,0.431,0.541,0.713,0.658c0.306,0.127,0.674,0.081,0.76,0.092    c0.543,1.107,0.884,2.089,1.446,2.892c1.105,1.587,2.5,2.888,4.479,2.665c0.966-0.11,1.979-0.598,2.8-1.188    c1.017-0.733,1.836-1.85,1.948-3.206C45.257,20.833,45.151,19.059,45.151,17.141z"
   id="path7937" />
		<g
   id="g7939">
			<path
   fill="#FFFFFF"
   d="M36.179,28.925c-0.605,1.568-1.597,2.9-2.282,4.425c-0.631,1.416-1.174,2.845-1.917,4.205     c-0.764,1.402-1.762,2.582-2.72,3.828c-0.788,1.023-1.983,1.85-2.524,3.057c-0.135,0.302-0.027,0.666,0.29,0.765     c0.749,0.228,1.454,0.121,2.02-0.479c0.445-0.47-0.237-1.207-0.684-0.736c-0.329,0.349-0.67,0.337-1.082,0.209     c0.098,0.257,0.194,0.514,0.29,0.767c0.274-0.617,0.734-1.024,1.203-1.47c0.6-0.572,1.096-1.281,1.605-1.943     c0.942-1.227,1.848-2.395,2.598-3.772c0.741-1.357,1.268-2.819,1.903-4.236c0.67-1.499,1.632-2.796,2.229-4.342     C37.349,28.58,36.412,28.313,36.179,28.925L36.179,28.925z"
   id="path7941" />
		</g>
		<path
   fill-rule="evenodd"
   clip-rule="evenodd"
   fill="#FFFFFF"
   d="M17.958,47.165c-0.076,0.319-0.122,0.668-0.122,1.029v2.155    c0,1.583,0.81,2.87,1.807,2.87h15.734c1,0,1.807-1.287,1.807-2.87v-2.155c0-0.361-0.045-0.71-0.121-1.029H17.958z"
   id="path7943" />
		<path
   fill-rule="evenodd"
   clip-rule="evenodd"
   fill="#FFFFFF"
   d="M12.729,27.92c-0.308,0.02-0.629,0.082-0.948,0.198l-1.895,0.674    c-1.397,0.496-2.277,1.728-1.965,2.747l4.926,16.106c0.312,1.022,1.699,1.45,3.096,0.952l1.895-0.674    c0.322-0.114,0.611-0.267,0.87-0.447L12.729,27.92z"
   id="path7945" />
		<path
   fill-rule="evenodd"
   clip-rule="evenodd"
   fill="#FFFFFF"
   d="M39.304,53.198l0.929-4.395h9.899l0.351,3.466l1.096-9.546    l-1.503-2.916l1.503-2.514c0,0,1.795,1.122,1.969,1.373c0.175,0.249,0.927,6.635,1.1,7.092c0.172,0.46-1.68,6.699-1.68,6.699    l-1.969,0.312l-1.908-0.188l-0.406-1.373L39.304,53.198z"
   id="path7947" />
		<g
   id="g7949">
			<path
   fill-rule="evenodd"
   clip-rule="evenodd"
   fill="#FFFFFF"
   d="M50.57,26.87l0.103,0.249l0,0     C50.604,27.052,50.655,26.934,50.57,26.87z"
   id="path7951" />
			<path
   fill-rule="evenodd"
   clip-rule="evenodd"
   fill="#FFFFFF"
   d="M55.787,39.808l-5.114-12.689l0,0L50.57,26.87     c-0.039-0.029-0.08-0.061-0.123-0.088c-0.678-0.435-1.305-0.544-1.816,0.027c-0.65,0.737-1.186,1.599-1.713,2.452     c-0.435,0.705-0.836,1.45-1.155,2.224c-0.469,1.137-0.831,2.324-1.286,3.468c-0.501,1.268-1.138,2.477-1.556,3.77     c-0.351,1.098-0.468,2.281-0.697,3.426c-0.041,0.193-0.092,0.39-0.175,0.564c-0.615,1.365-0.425,2.763-0.312,4.103     c0.757-0.145,1.294-0.317,1.836-0.337c1.801-0.07,3.598-0.078,5.398-0.119c0.819-0.018,1.299-0.559,1.303-1.456     c0.011-1.587,0.003-3.175,0.003-4.762c0.094-0.039,0.184-0.076,0.277-0.115c0.259,0.29,0.584,0.543,0.751,0.884     c0.249,0.509,0.523,1.079,0.537,1.634c0.021,0.763-0.208,1.53-0.284,2.303c-0.231,2.271-0.438,4.542-0.666,6.809     c-0.011,0.123-0.149,0.233-0.41,0.615c-0.066-0.89-0.166-1.489-0.137-2.081c0.051-1.007-0.323-1.348-1.248-1.27     c-2.789,0.239-5.581,0.415-8.375,0.623c-0.247,0.016-0.492,0.049-0.674,0.07c-0.157,1.211-0.3,2.338-0.463,3.586     c5.046,0,10.184,0,15.278,0c0.242-1.575,0.491-3.07,0.699-4.569c0.229-1.63,0.421-3.269,0.627-4.902     C56.128,41.359,55.787,39.808,55.787,39.808z"
   id="path7953" />
		</g>
		<path
   fill-rule="evenodd"
   clip-rule="evenodd"
   fill="#FFFFFF"
   d="M48.964,26.542c0,0-8.049,8.606-7.283,19.606    c0.004,0.053,0.006,0.104,0.012,0.156l0,0v-0.016l5.289-3.707l1.383-6.117l1.125-6.158L48.964,26.542z"
   id="path7955" />
		<path
   fill-rule="evenodd"
   clip-rule="evenodd"
   fill="#FFFFFF"
   d="M34.104,18.56c0,0,6.035-1.803,10.828-1.422l-1.388,3.165    c0,0-2.181,1.33-2.247,1.356c-0.064,0.025-3.31-1.499-3.31-1.499l-3.884-1.497"
   id="path7957" />
		<path
   fill-rule="evenodd"
   clip-rule="evenodd"
   fill="#FFFFFF"
   d="M34.766,21.538c0,0-6.113-0.831-0.308-3.08l2.996,1.497    L34.766,21.538z"
   id="path7959" />
		<path
   fill-rule="evenodd"
   clip-rule="evenodd"
   fill="#FFFFFF"
   d="M33.79,10.806c0,0-3.542,1.785-2.694,4.109    c0.848,2.328,2.91,2.222,2.91,2.222s6.621-1.435,10.926-1.199l2.314-1.466c0,0,0.347-0.697-1.267-1.254    C45.979,13.218,38.979,9.656,33.79,10.806z"
   id="path7961" />
		<path
   fill-rule="evenodd"
   clip-rule="evenodd"
   fill="#1B75BB"
   d="M34.831,14.027c0,0.78-0.586,1.413-1.31,1.413l0,0    c-0.723,0-1.309-0.633-1.309-1.413l0,0c0-0.778,0.586-1.413,1.309-1.413l0,0C34.245,12.615,34.831,13.25,34.831,14.027    L34.831,14.027z"
   id="path7963" />
	</g>
</g>
</svg>