<?xml version="1.0" encoding="UTF-8" standalone="no"?>
<!-- Generator: Adobe Illustrator 16.0.0, SVG Export Plug-In . SVG Version: 6.00 Build 0)  -->

<svg
   xmlns:dc="http://purl.org/dc/elements/1.1/"
   xmlns:cc="http://creativecommons.org/ns#"
   xmlns:rdf="http://www.w3.org/1999/02/22-rdf-syntax-ns#"
   xmlns:svg="http://www.w3.org/2000/svg"
   xmlns="http://www.w3.org/2000/svg"
   xmlns:sodipodi="http://sodipodi.sourceforge.net/DTD/sodipodi-0.dtd"
   xmlns:inkscape="http://www.inkscape.org/namespaces/inkscape"
   version="1.1"
   id="Layer_1"
   x="0px"
   y="0px"
   width="64px"
   height="64px"
   viewBox="0 0 64 64"
   enable-background="new 0 0 64 64"
   xml:space="preserve"
   inkscape:version="0.48.5 r10040"
   sodipodi:docname="263A.svg"
   inkscape:export-filename="D:\TESTINGEMOJI\SVGTEST\263A.png"
   inkscape:export-xdpi="90"
   inkscape:export-ydpi="90"><metadata
   id="metadata3587"><rdf:RDF><cc:Work
       rdf:about=""><dc:format>image/svg+xml</dc:format><dc:type
         rdf:resource="http://purl.org/dc/dcmitype/StillImage" /><dc:title></dc:title></cc:Work></rdf:RDF></metadata><defs
   id="defs3585" /><sodipodi:namedview
   pagecolor="#ffffff"
   bordercolor="#666666"
   borderopacity="1"
   objecttolerance="10"
   gridtolerance="10"
   guidetolerance="10"
   inkscape:pageopacity="0"
   inkscape:pageshadow="2"
   inkscape:window-width="640"
   inkscape:window-height="480"
   id="namedview3583"
   showgrid="false"
   inkscape:zoom="3.6875"
   inkscape:cx="32"
   inkscape:cy="32"
   inkscape:window-x="588"
   inkscape:window-y="341"
   inkscape:window-maximized="0"
   inkscape:current-layer="Layer_1" />
<g
   id="g3525">
	<g
   id="g3527">
		<g
   id="g3529">
			<path
   fill="#FBB041"
   d="M63.627,31.812c0,17.571-14.244,31.815-31.812,31.815C14.244,63.627,0,49.383,0,31.812     C0,14.244,14.244,0,31.815,0C49.383,0,63.627,14.244,63.627,31.812z"
   id="path3531" />
		</g>
	</g>
	<g
   opacity="0.9866"
   id="g3533">
		<g
   id="g3535">
			<g
   id="g3537">
				<path
   fill="#E79D3C"
   d="M15.14,41.01C9.505,28.916,9.25,15.898,14.35,5.136C5.713,10.821,0,20.593,0,31.709      c0,17.572,14.244,31.811,31.815,31.811c0.314,0,0.617-0.039,0.927-0.047C25.454,57.336,19.309,49.949,15.14,41.01z"
   id="path3539" />
			</g>
		</g>
	</g>
	<g
   id="g3541">
		<g
   id="g3543">
			<path
   fill="#633D19"
   d="M27.76,29.776c-0.224,0-4.31-1.568-8.436-1.568c-3.686,0-7.403,1.568-8.436,1.568     c-0.896,0-1.23-1.038-0.688-1.658c4.936-5.698,13.309-5.698,18.248,0C28.986,28.739,28.652,29.776,27.76,29.776z"
   id="path3545" />
		</g>
	</g>
	<g
   id="g3547">
		<g
   id="g3549">
			<path
   fill="#633D19"
   d="M52.648,29.776c-0.224,0-4.311-1.568-8.437-1.568c-3.686,0-7.402,1.568-8.436,1.568     c-0.896,0-1.23-1.038-0.688-1.658c4.935-5.698,13.309-5.698,18.247,0C53.874,28.739,53.54,29.776,52.648,29.776z"
   id="path3551" />
		</g>
	</g>
	<g
   id="g3553">
		<g
   id="g3555">
			<path
   fill="#633D19"
   d="M42.959,45.419c-0.558,0-1.112,0-1.67,0c-0.087,0-0.146,0.035-0.22,0.045     c-0.087,0.014-0.169,0.018-0.256,0.053c-0.142,0.054-0.26,0.138-0.361,0.236c-0.023,0.02-0.047,0.02-0.071,0.043     c-4.031,3.93-9.308,4.825-14.341,2.239c-2.7-1.391-2.479-2.616-5.368-2.616c-1.183,0-1.623,1.375-0.912,2.192     c6.523,7.528,17.583,7.528,24.106,0C44.582,46.794,44.142,45.419,42.959,45.419z"
   id="path3557" />
		</g>
	</g>
	<g
   id="g3559">
		<g
   id="g3561">
			<path
   fill="#633D19"
   d="M25.843,13.851c-0.361,0.22-0.723,0.437-1.081,0.652c-0.059,0.032-0.11,0.04-0.161,0.059     c-0.062,0.023-0.118,0.051-0.188,0.067c-0.114,0.016-0.22,0.012-0.326-0.012c-0.02-0.004-0.039,0.004-0.063,0     c-4.149-0.971-7.917,0.515-10.165,4.161c-1.206,1.957-0.585,2.664-2.456,3.796c-0.766,0.464-1.587-0.255-1.446-1.065     c1.277-7.43,8.444-11.756,15.615-9.434C26.357,12.326,26.609,13.387,25.843,13.851z"
   id="path3563" />
		</g>
	</g>
	<g
   id="g3565">
		<g
   id="g3567">
			<path
   fill="#633D19"
   d="M37.784,13.977c0.361,0.22,0.723,0.436,1.084,0.652c0.056,0.031,0.11,0.039,0.161,0.059     c0.06,0.024,0.114,0.051,0.185,0.067c0.114,0.016,0.225,0.012,0.326-0.012c0.024-0.004,0.04,0.004,0.067,0     c4.146-0.971,7.917,0.515,10.165,4.161c1.206,1.957,0.581,2.664,2.456,3.796c0.766,0.463,1.587-0.255,1.445-1.065     c-1.276-7.43-8.443-11.756-15.619-9.435C37.273,12.452,37.021,13.513,37.784,13.977z"
   id="path3569" />
		</g>
	</g>
	<g
   opacity="0.9"
   id="g3571">
		<g
   id="g3573">
			<path
   fill="#E97760"
   d="M26.307,37.866c0,3.553-5.434,6.431-12.126,6.431c-6.699,0-12.125-2.878-12.125-6.431     c0-3.552,5.426-6.428,12.125-6.428C20.873,31.438,26.307,34.314,26.307,37.866z"
   id="path3575" />
		</g>
	</g>
	<g
   opacity="0.9"
   id="g3577">
		<g
   id="g3579">
			<path
   fill="#E97760"
   d="M61.101,38.244c0,3.552-5.435,6.43-12.126,6.43c-6.699,0-12.126-2.878-12.126-6.43     c0-3.553,5.427-6.433,12.126-6.433C55.666,31.812,61.101,34.691,61.101,38.244z"
   id="path3581" />
		</g>
	</g>
</g>
</svg>