<svg width="24" height="24" viewBox="0 0 24 24" stroke-width="1.5" fill="none" xmlns="http://www.w3.org/2000/svg">
<path d="M16.3056 17.1133L17.2147 15.1856C17.3314 14.9381 17.6686 14.9381 17.7853 15.1856L18.6944 17.1133L20.7275 17.4243C20.9884 17.4642 21.0923 17.7998 20.9035 17.9923L19.4326 19.4917L19.7797 21.61C19.8243 21.882 19.5515 22.0895 19.3181 21.961L17.5 20.9603L15.6819 21.961C15.4485 22.0895 15.1757 21.882 15.2203 21.61L15.5674 19.4917L14.0965 17.9923C13.9077 17.7998 14.0116 17.4642 14.2725 17.4243L16.3056 17.1133Z" stroke="currentColor" stroke-linecap="round" stroke-linejoin="round"/>
<path d="M20 12V5.74853C20 5.5894 19.9368 5.43679 19.8243 5.32426L16.6757 2.17574C16.5632 2.06321 16.4106 2 16.2515 2H4.6C4.26863 2 4 2.26863 4 2.6V21.4C4 21.7314 4.26863 22 4.6 22H11" stroke="currentColor" stroke-linecap="round" stroke-linejoin="round"/>
<path d="M16 2V5.4C16 5.73137 16.2686 6 16.6 6H20" stroke="currentColor" stroke-linecap="round" stroke-linejoin="round"/>
</svg>
