<?xml version="1.0" encoding="UTF-8"?><svg xmlns="http://www.w3.org/2000/svg" width="20" height="20" viewBox="0 0 20 20"><title>bold</title><path d="M11.167 3v6.013c.382-.038.626-.21.822-.521.196-.31.467-1.019.814-2.124.455-1.449.922-2.373 1.397-2.77.47-.393 1.254-.589 2.35-.589L17 3v2.077l-.45-.01c-.467 0-.805.073-1.025.219-.217.13-.393.35-.527.641-.134.292-.334.887-.597 1.789-.14.478-.292.88-.458 1.204-.16.32-.447.625-.86.91.513.182.933.542 1.264 1.08.336.53.704 1.287 1.101 2.267L17 17h-2.7l-1.365-3.593-.132-.295-.28-.654c-.288-.665-.524-1.088-.711-1.271a.847.847 0 00-.645-.277V17H8.833v-6.09c-.263 0-.445.09-.637.268-.191.175-.429.603-.714 1.28l-.287.653-.131.296L5.699 17H3l1.552-3.812c.381-.942.74-1.688 1.077-2.24.341-.555.773-.925 1.295-1.108-.415-.284-.704-.583-.87-.9a7.417 7.417 0 01-.457-1.214c-.259-.886-.455-1.47-.59-1.773a1.522 1.522 0 00-.524-.665c-.21-.14-.572-.21-1.064-.21H3V3l.45.01c1.112 0 1.902.198 2.373.597.467.404.922 1.325 1.373 2.76.35 1.113.624 1.825.815 2.135.196.303.44.472.822.511v-6.01"/></svg>