<?xml version="1.0" encoding="UTF-8"?><svg xmlns="http://www.w3.org/2000/svg" xmlns:xlink="http://www.w3.org/1999/xlink" width="20" height="20" viewBox="0 0 20 20"><title>code</title><g fill="#36c"><path id="a" d="M1 10.08V8.92h1.15c1.15 0 1.15 0 1.15-1.15V5a7.42 7.42 0 01.09-1.3 2 2 0 01.3-.7 1.84 1.84 0 01.93-.68A6.44 6.44 0 016.74 2h1.18v1.15h-.86A1.32 1.32 0 006 3.62a1.71 1.71 0 00-.36 1.23V7a3.22 3.22 0 01-.28 1.72 2 2 0 01-1.26.77 2.15 2.15 0 011.26.79A3.26 3.26 0 015.62 12v3.15A1.67 1.67 0 006 16.37a1.31 1.31 0 001.08.47h.87V18H6.74a6.3 6.3 0 01-2.12-.29 1.82 1.82 0 01-.93-.71 1.94 1.94 0 01-.3-.72A7.46 7.46 0 013.31 15v-3.77c0-1.15 0-1.15-1.15-1.15zm18 0V8.92h-1.15c-1.15 0-1.15 0-1.15-1.15V5a7.42 7.42 0 00-.08-1.32 2 2 0 00-.3-.73 1.84 1.84 0 00-.93-.68A6.44 6.44 0 0013.26 2h-1.18v1.15h.87a1.32 1.32 0 011.05.47 1.71 1.71 0 01.36 1.23V7a3.22 3.22 0 00.28 1.72 2 2 0 001.26.77 2.15 2.15 0 00-1.26.79 3.26 3.26 0 00-.26 1.72v3.15a1.67 1.67 0 01-.38 1.22 1.31 1.31 0 01-1.08.47h-.87V18h1.19a6.3 6.3 0 002.12-.29 1.82 1.82 0 00.93-.68 1.94 1.94 0 00.3-.72 7.46 7.46 0 00.1-1.31v-3.77c0-1.15 0-1.15 1.15-1.15z"/><use transform="matrix(-1 0 0 1 20 0)" xlink:href="#a"/></g></svg>