<?xml version="1.0" encoding="UTF-8"?><svg xmlns="http://www.w3.org/2000/svg" width="20" height="20" viewBox="0 0 20 20"><title>Creative Commons logo</title><g fill="#fff"><path d="M10 18a8 8 0 118-8 8 8 0 01-8 8zm0-18A9.94 9.94 0 000 10a9.94 9.94 0 0010 10 9.94 9.94 0 0010-10A9.94 9.94 0 0010 0z"/><path d="M13.49 11.67c-1 0-1.43-.57-1.43-1.71s.43-1.71 1.43-1.71c.57 0 .86.29 1.14.86l1.29-.71A2.8 2.8 0 0013.2 7a2.91 2.91 0 00-2.14.86A2.7 2.7 0 0010.2 10a3 3 0 00.86 2.29 2.91 2.91 0 002.14.86 3.24 3.24 0 002.71-1.57L14.63 11a1.46 1.46 0 01-1.14.71zm-6 0c-1 0-1.43-.57-1.43-1.71s.43-1.71 1.43-1.71c.57 0 .86.29 1.14.86l1.29-.71A2.8 2.8 0 007.2 7a2.91 2.91 0 00-2.14.86A2.7 2.7 0 004.2 10a3 3 0 00.86 2.29 2.91 2.91 0 002.14.86 3.24 3.24 0 002.71-1.57L8.63 11a1.46 1.46 0 01-1.14.71z"/></g></svg>