<?xml version="1.0" encoding="utf-8"?>
<svg version="1.1" xmlns="http://www.w3.org/2000/svg" xmlns:xlink="http://www.w3.org/1999/xlink" x="0px" y="0px"
 viewBox="0 0 256 256" style="enable-background:new 0 0 256 256;" xml:space="preserve">
<rect fill="#0D0D0D" width="256" height="256"/>
<path fill="#0078D7" d="M175.2,237.2c-11.1,0-24.2-5.6-38.4-16.4c-19.5-15-39-38.4-55-66.1C47.6,95.4,41.1,37.3,67,22.3
  c25.9-14.9,73,19.7,107.2,79c34.2,59.2,40.7,117.4,14.8,132.3l0,0C184.9,236,180.3,237.2,175.2,237.2z M80.8,28.4
  c-3.4,0-6.4,0.7-9,2.2C53.4,41.2,56.4,91.6,90,149.9c15.4,26.6,34,49.1,52.6,63.3c17.1,13.2,32.3,17.6,41.7,12.2l0,0
  c18.3-10.6,15.4-61.1-18.3-119.3C137,56,101.7,28.4,80.8,28.4z"/>
<path fill="#0078D7" d="M80.6,237.1c-5,0-9.6-1.1-13.6-3.5c-25.9-15-19.4-73.1,14.8-132.3c16-27.6,35.5-51.1,55-66.1
  C157.5,19.4,176,14.8,189,22.3c25.9,15,19.4,73.1-14.8,132.3C145.4,204.6,107.4,237.1,80.6,237.1z M175.2,28.3
  c-8.9,0-20.2,5-32.6,14.5C124.1,57,105.4,79.5,90,106.1c-33.6,58.3-36.6,108.8-18.3,119.3c18.4,10.6,60.6-17.2,94.2-75.5
  s36.6-108.8,18.3-119.3l0,0C181.7,29.1,178.6,28.3,175.2,28.3z"/>
<path fill="#0078D7" d="M128,181.3C59.6,181.3,6,157.9,6,128s53.6-53.3,122-53.3S250,98.1,250,128S196.4,181.3,128,181.3z M128,84.2
  c-67.3,0-112.5,22.7-112.5,43.8s45.2,43.8,112.5,43.8s112.5-22.7,112.5-43.8S195.3,84.2,128,84.2z"/>
<path fill="#0078D7" d="M128,109c10.5,0,19,8.5,19,19s-8.5,19-19,19s-19-8.5-19-19S117.5,109,128,109"/>
</svg>
