<svg xmlns="http://www.w3.org/2000/svg" height="100" width="100" viewBox="0 0 1000 1000" fill="#fff"><path d="M479 638 364 525a62 62 0 0 0-86 0l-72 71c-8 8-8 21 0 28l14 14 14 14 116 114 7 7 22 21c8 8 21 8 29 0l72-71c23-23 23-61-1-85zm-187-42 15-14c8-8 20-8 28 0l87 85c8 8 8 21 0 28l-15 14c-8 8-20 8-28 0l-87-85c-8-8-8-21 0-28zm125-104 93 91c2 2 4 3 7 3l43-1c5 0 9-4 9-9l1-37c0-5 4-9 9-9l38-1c5 0 9-4 9-9l1-37c0-5 4-9 9-9l38-1c5 0 9-4 9-9l1-37c0-5 4-9 9-9l38-1c5 0 9-4 9-9l1-38c0-5 4-8 8-9l41-6c7-1 11-9 7-15l-88-130c-7-10-21-11-30-3L416 467c-6 6-6 18 1 25z"/></svg>