<svg xmlns="http://www.w3.org/2000/svg" x="0px" y="0px"
	 width="100px" height="100px" viewBox="0 0 100 100" enable-background="new 0 0 100 100" xml:space="preserve">
<path fill="#FFFFFF" d="M78.3,29.3l-18-9c-0.8-0.4-1.8-0.4-2.7,0L41,28.6l-16.7-8.3c-0.9-0.5-2-0.4-2.9,0.1C20.5,21,20,22,20,23v45
	c0,1.1,0.6,2.2,1.7,2.7l18,9c0.8,0.399,1.8,0.399,2.7,0L59,71.4l16.7,8.3C76.1,79.9,76.6,80,77,80c0.5,0,1.1-0.2,1.6-0.4
	C79.5,79,80,78,80,77V32C80,30.9,79.4,29.8,78.3,29.3z M74,35.1v23.7c0,1.4-1.4,2.4-2.7,1.9c-4.6-1.8-1-9.5-4.3-13.7
	c-3.1-3.9-7.2,0.1-11-6c-3.7-5.9,1.3-10.1,5.7-12.4c0.6-0.3,1.2-0.3,1.8,0l9.3,4.7C73.6,33.6,74,34.3,74,35.1z M48.5,69.9
	c-0.7,0.399-1.6,0.3-2.2-0.301C45,68.5,44,66.7,44,65c0-3-5-2-5-8c0-4.8-5.9-6.2-10.8-5.7C27,51.4,26,50.5,26,49.3V31.1
	c0-1.5,1.6-2.5,2.9-1.8l10.8,5.4c0.1,0,0.2,0.1,0.3,0.1l0.4,0.2c4.5,2.6,3.6,4.8,1.7,8c-2.1,3.6-3,0-6-1s-6,1-5,3s4,0,6,2s2,5,8,3
	c6-2,7-1,9,1s3,6,0,9c-1.8,1.8-2.5,5.4-3.3,8c-0.2,0.5-0.5,1-1,1.3L48.5,69.9z"/>
</svg>
