<svg xmlns="http://www.w3.org/2000/svg" x="0px" y="0px"
	 width="100px" height="100px" viewBox="0 0 100 100" enable-background="new 0 0 100 100" xml:space="preserve">
<g>
	<path fill="#FFFFFF" d="M78,33h-6c-1.3,0-2.6-0.6-3.6-1.5L63.6,27.4c-1-0.8-2.3-1.4-3.6-1.4H48.3c-1.5,0-2.9,0.6-4,1.7l-6.2,5.1
		c-0.5,0.4-0.5,1.2-0.1,1.7l1.9,1.8c1.3,1,3,1.2,4.3,0.3l5.5-3.3c0.7-0.5,1.7-0.3,2.3,0.3l17.3,16.8c0.4,0.4,0.7,1,0.7,1.6v4.5
		c0,1.2,0.9,2.5,2,2.5h6c1.1,0,2-0.9,2-2.1V35C80,33.8,79.1,33,78,33z"/>
	<path fill="#FFFFFF" d="M61,51L50.2,40.5l-3,1.8c-1.5,0.9-3.2,1.4-4.9,1.4c-2.1,0-4.3-0.8-6-2.2l-3.9-3.2c-0.9-0.7-1.4-1.5-1.5-2.6
		c-0.2-1.1-1-1.7-2-1.7h-4.8H22c-1.1,0-2,0.6-2,1.8V54c0,1.2,0.9,2,2,2h4c0.3,0,0.7-1.1,1.1-1.6c1.5-2,3.7-3.101,6.1-3.4
		c2.4-0.2,4.7,0.6,6.6,2.3l12.5,11.4c1.101,1,1.9,2.1,2.4,3.5c0.3,0.7,1.1,0.899,1.6,0.399L61,63.9c2.4-2.4,4.2-8,2-10.601L61,51z"
		/>
	<path fill="#FFFFFF" d="M35.9,58.4c-1.3-1.2-3.2-1-4.2,0.399c-1.1,1.4-0.9,3.4,0.4,4.601l12.5,11.3c0.6,0.6,1.4,0.8,2.2,0.7
		c0.8-0.101,1.5-0.5,2-1.2c1.1-1.4,0.9-3.4-0.4-4.601L35.9,58.4z"/>
</g>
</svg>
