<?xml version="1.0" encoding="UTF-8" standalone="no"?>
<!-- Generator: Adobe Illustrator 16.0.0, SVG Export Plug-In . SVG Version: 6.00 Build 0)  -->

<svg
   xmlns:dc="http://purl.org/dc/elements/1.1/"
   xmlns:cc="http://creativecommons.org/ns#"
   xmlns:rdf="http://www.w3.org/1999/02/22-rdf-syntax-ns#"
   xmlns:svg="http://www.w3.org/2000/svg"
   xmlns="http://www.w3.org/2000/svg"
   xmlns:sodipodi="http://sodipodi.sourceforge.net/DTD/sodipodi-0.dtd"
   xmlns:inkscape="http://www.inkscape.org/namespaces/inkscape"
   version="1.1"
   id="Layer_1"
   x="0px"
   y="0px"
   width="64px"
   height="64px"
   viewBox="0 0 64 64"
   enable-background="new 0 0 64 64"
   xml:space="preserve"
   inkscape:version="0.48.5 r10040"
   sodipodi:docname="1F239.svg"
   inkscape:export-filename="D:\TESTINGEMOJI\SVGTEST\1F239.png"
   inkscape:export-xdpi="90"
   inkscape:export-ydpi="90"><metadata
   id="metadata5278"><rdf:RDF><cc:Work
       rdf:about=""><dc:format>image/svg+xml</dc:format><dc:type
         rdf:resource="http://purl.org/dc/dcmitype/StillImage" /><dc:title></dc:title></cc:Work></rdf:RDF></metadata><defs
   id="defs5276" /><sodipodi:namedview
   pagecolor="#ffffff"
   bordercolor="#666666"
   borderopacity="1"
   objecttolerance="10"
   gridtolerance="10"
   guidetolerance="10"
   inkscape:pageopacity="0"
   inkscape:pageshadow="2"
   inkscape:window-width="640"
   inkscape:window-height="480"
   id="namedview5274"
   showgrid="false"
   inkscape:zoom="3.6875"
   inkscape:cx="32"
   inkscape:cy="32"
   inkscape:window-x="599"
   inkscape:window-y="293"
   inkscape:window-maximized="0"
   inkscape:current-layer="Layer_1" />
<g
   id="g5258">
	<path
   fill="#EC297B"
   d="M63.997,57.098c0,3.814-3.082,6.902-6.896,6.902H6.899c-3.81,0-6.896-3.088-6.896-6.902v-50.2   C0.003,3.09,3.089,0,6.899,0h50.203c3.813,0,6.896,3.09,6.896,6.898V57.098z"
   id="path5260" />
	<path
   fill="#D12775"
   d="M0.003,48.731v8.366C0.003,60.912,3.089,64,6.899,64h50.203c3.813,0,6.896-3.088,6.896-6.902v-50.2   C53.071,46.595,13.783,49.111,0.003,48.731z"
   id="path5262" />
	<g
   id="g5264">
		<path
   fill="#FFFFFF"
   d="M39.83,32.323c-4.581,0.012-9.157,0.196-13.726,0.401c0.063-1.188,0.118-2.369,0.161-3.555    c3.173-0.173,6.35-0.305,9.53-0.051c2.131,0.169,2.115-3.146,0-3.314c-3.146-0.251-6.287-0.126-9.424,0.045    c0.02-0.785,0.031-1.571,0.043-2.351c2.068,0.051,4.132-0.012,6.13-0.427c1.65-0.35,3.133-1.246,4.227-2.52    c1.371-1.608,1.706-3.851,2.696-5.673c0.153-0.277,0.213-0.55,0.213-0.808c0.81-0.93,0.412-2.806-1.195-2.806    c-4.003,0-8.005,0-12.003,0c-0.004-0.869-0.004-1.733-0.008-2.601c0-2.137-3.314-2.137-3.314,0c0,0.867,0,1.732,0,2.601    c-3.778,0-7.557,0-11.335,0c-0.275,0-0.515,0.055-0.716,0.147c-1.148-0.279-2.528,0.559-2.005,1.95    c1.065,2.813,2.387,5.624,4.836,7.494c2.339,1.789,5.209,2.294,8.087,2.439c0.358,0.016,0.716,0.04,1.078,0.055    c-0.016,0.893-0.032,1.789-0.051,2.677c-2.921,0.149-5.842,0.236-8.764,0c-2.135-0.179-2.119,3.141,0,3.314    c2.886,0.236,5.771,0.153,8.653,0.008c-0.043,1.171-0.098,2.343-0.165,3.515c-4.246,0.181-8.496,0.344-12.746,0.355    c-2.139,0.006-2.139,3.32,0,3.313c4.18-0.01,8.354-0.165,12.53-0.342c-0.008,0.102-0.012,0.206-0.024,0.311    c-0.161,2.131,3.157,2.115,3.318,0c0.012-0.153,0.02-0.303,0.032-0.452c4.643-0.205,9.29-0.397,13.941-0.409    C41.969,35.636,41.969,32.319,39.83,32.323z M35.961,14.58c-0.951,2.272-1.525,4.533-4.301,5.292    c-1.655,0.456-3.437,0.409-5.202,0.303c0.016-1.866,0.023-3.731,0.023-5.595C29.643,14.58,32.8,14.58,35.961,14.58z M16.315,18.5    c-1.431-0.877-2.406-2.367-3.137-3.92c3.33,0,6.66,0,9.986,0c0,1.807-0.004,3.613-0.02,5.418    C20.754,19.966,18.395,19.774,16.315,18.5z"
   id="path5266" />
		<path
   fill="#FFFFFF"
   d="M38.701,39.554c-8.535-2.505-17.728-0.339-26.432-0.283c-0.665,0.004-1.125,0.33-1.372,0.774    c-0.672,0.144-1.23,0.656-1.18,1.553c0.232,4.137,0.5,8.267,1.404,12.315c0.118,0.529,0.625,1.052,1.156,1.16    c4.545,0.914,9.251,0.687,13.854,0.985c3.063,0.198,6.204,1.057,9.239,0.212c2.615-0.728,3.456-3.686,3.936-6.027    c0.609-2.952,0.786-6.086,0.613-9.094C39.877,40.4,39.44,39.77,38.701,39.554z M36.283,48.339    c-0.311,2.168-0.53,4.771-3.098,4.955c-2.469,0.177-4.942-0.412-7.396-0.573c-3.861-0.252-7.839-0.056-11.669-0.675    c-0.613-3.124-0.845-6.294-1.034-9.473c7.733-0.169,15.951-1.956,23.559-0.132C36.681,44.409,36.566,46.395,36.283,48.339z"
   id="path5268" />
		<path
   fill="#FFFFFF"
   d="M44.222,40.257c-0.009,2.138,3.308,2.138,3.313,0c0.021-9.337,0.638-18.688-0.224-28.008    c-0.192-2.109-3.511-2.129-3.314,0C44.858,21.568,44.241,30.92,44.222,40.257z"
   id="path5270" />
		<path
   fill="#FFFFFF"
   d="M54.707,12.249c0.138-2.135-3.181-2.119-3.318,0c-0.535,8.268-0.354,16.56-0.382,24.839    c-0.02,5.222,0.865,13.846-6.471,14.056c-2.135,0.063-2.144,3.378,0,3.316c6.967-0.202,9.647-5.905,9.723-12.189    C54.377,32.269,54.059,22.239,54.707,12.249z"
   id="path5272" />
	</g>
</g>
</svg>