<?xml version="1.0" encoding="UTF-8" standalone="no"?>
<!-- Generator: Adobe Illustrator 16.0.0, SVG Export Plug-In . SVG Version: 6.00 Build 0)  -->

<svg
   xmlns:dc="http://purl.org/dc/elements/1.1/"
   xmlns:cc="http://creativecommons.org/ns#"
   xmlns:rdf="http://www.w3.org/1999/02/22-rdf-syntax-ns#"
   xmlns:svg="http://www.w3.org/2000/svg"
   xmlns="http://www.w3.org/2000/svg"
   xmlns:sodipodi="http://sodipodi.sourceforge.net/DTD/sodipodi-0.dtd"
   xmlns:inkscape="http://www.inkscape.org/namespaces/inkscape"
   version="1.1"
   id="Layer_1"
   x="0px"
   y="0px"
   width="64px"
   height="64px"
   viewBox="0 0 64 64"
   enable-background="new 0 0 64 64"
   xml:space="preserve"
   inkscape:version="0.48.5 r10040"
   sodipodi:docname="1F34D.svg"
   inkscape:export-filename="D:\TESTINGEMOJI\SVGTEST\1F34D.png"
   inkscape:export-xdpi="90"
   inkscape:export-ydpi="90"><metadata
   id="metadata4977"><rdf:RDF><cc:Work
       rdf:about=""><dc:format>image/svg+xml</dc:format><dc:type
         rdf:resource="http://purl.org/dc/dcmitype/StillImage" /><dc:title></dc:title></cc:Work></rdf:RDF></metadata><defs
   id="defs4975" /><sodipodi:namedview
   pagecolor="#ffffff"
   bordercolor="#666666"
   borderopacity="1"
   objecttolerance="10"
   gridtolerance="10"
   guidetolerance="10"
   inkscape:pageopacity="0"
   inkscape:pageshadow="2"
   inkscape:window-width="640"
   inkscape:window-height="480"
   id="namedview4973"
   showgrid="false"
   inkscape:zoom="3.6875"
   inkscape:cx="32"
   inkscape:cy="32"
   inkscape:window-x="318"
   inkscape:window-y="136"
   inkscape:window-maximized="0"
   inkscape:current-layer="Layer_1" />
<g
   id="g4773"
   transform="translate(6,0)">
	<path
   d="m 44.343,55.383 c 0.849,-0.625 2.038,-0.453 2.663,0.392 l 0.653,0.879 c 0.626,0.842 0.453,2.033 -0.39,2.663 l -2.975,2.206 c -0.843,0.627 -2.034,0.452 -2.659,-0.392 l -0.657,-0.879 c -0.621,-0.845 -0.447,-2.036 0.396,-2.665 l 2.969,-2.204 z"
   id="path4775"
   inkscape:connector-curvature="0"
   style="fill:#a4792b" />
	<path
   d="m 49.981,42.259 c 3.635,4.892 2.62,11.803 -2.27,15.434 l -5.098,3.785 C 37.725,65.115 30.817,64.096 27.181,59.207 L 14.378,41.977 C 10.745,37.088 11.764,30.179 16.653,26.542 l 5.09,-3.783 c 4.89,-3.635 11.801,-2.618 15.432,2.273 l 12.806,17.227 z"
   id="path4777"
   inkscape:connector-curvature="0"
   style="fill:#e8af3b" />
	<path
   d="m 24.867,29.381 c 0.794,-2.764 1.265,-5.605 1.236,-8.563 -1.537,0.311 -3.022,0.942 -4.36,1.94 l -5.09,3.783 c -0.505,0.374 -0.956,0.793 -1.374,1.234 3.15,0.758 6.367,1.178 9.588,1.606 z"
   id="path4779"
   inkscape:connector-curvature="0"
   style="fill:#c0902e" />
	<path
   d="m 32.918,29.373 c 0.863,-2.056 1.665,-4.13 2.397,-6.237 -2.164,-2.092 -5.121,-3.032 -8.007,-2.691 0.042,2.732 -0.396,5.336 -1.128,7.873 0.792,0.108 1.585,0.213 2.375,0.333 1.459,0.217 2.91,0.468 4.363,0.722 z"
   id="path4781"
   inkscape:connector-curvature="0"
   style="fill:#c0902e" />
	<path
   d="m 35.065,30.233 c 2.482,0.684 4.963,1.374 7.449,1.981 l -5.34,-7.185 c -0.15,-0.203 -0.305,-0.404 -0.467,-0.599 -0.488,1.966 -1.043,3.894 -1.642,5.803 z"
   id="path4783"
   inkscape:connector-curvature="0"
   style="fill:#c0902e" />
	<path
   d="m 22.831,30.603 c -2.876,-0.375 -5.746,-0.768 -8.549,-1.48 -1.267,1.602 -1.969,3.544 -2.034,5.531 2.754,0.644 5.533,1.191 8.299,1.788 0.87,-1.921 1.661,-3.86 2.284,-5.839 z"
   id="path4785"
   inkscape:connector-curvature="0"
   style="fill:#c0902e" />
	<path
   d="m 29.62,38.969 c 1.153,-2.458 2.273,-4.924 3.329,-7.416 C 30.92,31.2 28.892,30.859 26.852,30.585 26.391,30.52 25.93,30.46 25.474,30.398 c -0.737,2.34 -1.674,4.629 -2.701,6.901 1.148,0.249 2.295,0.514 3.44,0.791 1.138,0.276 2.275,0.575 3.407,0.879 z"
   id="path4787"
   inkscape:connector-curvature="0"
   style="fill:#c0902e" />
	<path
   d="m 41.64,41.218 c 1.165,-1.942 2.217,-3.936 3.096,-6.021 L 43.479,33.506 C 40.782,33.135 38.1,32.64 35.417,32.152 c -0.901,2.159 -1.859,4.297 -2.85,6.424 2.967,0.828 5.908,1.729 8.871,2.59 0.064,0.018 0.137,0.031 0.202,0.052 z"
   id="path4789"
   inkscape:connector-curvature="0"
   style="fill:#c0902e" />
	<path
   d="m 49.385,41.451 -4.011,-5.396 c -0.544,1.89 -1.222,3.682 -2.001,5.413 1.733,0.751 3.471,1.455 5.21,2.149 0.266,-0.722 0.534,-1.441 0.802,-2.166 z"
   id="path4791"
   inkscape:connector-curvature="0"
   style="fill:#c0902e" />
	<path
   d="m 48.959,44.242 c 0.81,0.194 1.619,0.39 2.434,0.576 -0.35,-0.885 -0.809,-1.743 -1.398,-2.541 -0.35,0.656 -0.695,1.309 -1.036,1.965 z"
   id="path4793"
   inkscape:connector-curvature="0"
   style="fill:#c0902e" />
	<path
   d="m 20.507,38.748 c -2.844,-0.854 -5.689,-1.691 -8.519,-2.606 0.246,1.991 1.041,4.021 2.389,5.835 l 3.207,4.312 c 0.934,-2.53 1.979,-5.024 2.923,-7.541 z"
   id="path4795"
   inkscape:connector-curvature="0"
   style="fill:#c0902e" />
	<path
   d="m 29.19,39.75 c -1.409,-0.377 -2.825,-0.738 -4.25,-1.055 -0.601,-0.139 -1.206,-0.258 -1.814,-0.388 -1.145,2.476 -2.383,4.938 -3.516,7.433 2.036,0.446 4.074,0.858 6.113,1.258 1.155,-2.415 2.324,-4.828 3.467,-7.248 z"
   id="path4797"
   inkscape:connector-curvature="0"
   style="fill:#c0902e" />
	<path
   d="m 39.312,43.401 c -2.896,-0.834 -5.786,-1.707 -8.697,-2.5 -1.063,2.257 -2.149,4.504 -3.227,6.755 2.687,0.523 5.387,0.99 8.086,1.429 1.338,-1.867 2.638,-3.749 3.838,-5.684 z"
   id="path4799"
   inkscape:connector-curvature="0"
   style="fill:#c0902e" />
	<path
   d="m 46.639,50.687 c 1.703,0.241 3.41,0.471 5.121,0.674 0.48,-1.608 0.499,-3.346 0.024,-4.993 -0.856,-0.197 -1.718,-0.41 -2.58,-0.615 -0.85,1.645 -1.703,3.291 -2.565,4.934 z"
   id="path4801"
   inkscape:connector-curvature="0"
   style="fill:#c0902e" />
	<path
   d="m 47.576,44.877 c -2.029,-0.48 -4.062,-0.98 -6.083,-1.555 -1.416,2.296 -2.948,4.532 -4.521,6.753 2.423,0.386 4.847,0.745 7.278,1.078 1.116,-2.087 2.227,-4.181 3.326,-6.276 z"
   id="path4803"
   inkscape:connector-curvature="0"
   style="fill:#c0902e" />
	<path
   d="m 34.583,51.908 c -2.832,-0.459 -5.653,-0.948 -8.468,-1.496 -0.712,1.502 -1.423,3.002 -2.113,4.516 l 3.314,4.457 c 0.354,0.476 0.745,0.897 1.159,1.287 1.908,-2.976 4.023,-5.86 6.108,-8.764 z"
   id="path4805"
   inkscape:connector-curvature="0"
   style="fill:#c0902e" />
	<path
   d="m 36.73,63.817 c 0.874,-1.321 1.711,-2.675 2.476,-4.083 1.108,-2.042 2.182,-4.1 3.241,-6.164 -2.196,-0.355 -4.384,-0.729 -6.574,-1.129 -2.099,3.022 -4.239,6.024 -6.164,9.138 2.024,1.647 4.555,2.419 7.021,2.238 z"
   id="path4807"
   inkscape:connector-curvature="0"
   style="fill:#c0902e" />
	<path
   d="m 40.949,60.371 c -0.563,0.905 -1.158,1.788 -1.77,2.659 1.293,-0.318 2.565,-0.901 3.723,-1.764 l 4.481,-3.331 c 1.491,-1.109 2.596,-2.526 3.284,-4.065 -1.857,-0.125 -3.713,-0.275 -5.569,-0.438 -1.354,2.328 -2.728,4.646 -4.149,6.939 z"
   id="path4809"
   inkscape:connector-curvature="0"
   style="fill:#c0902e" />
	<path
   d="m 24.897,48.867 c -2.125,-0.42 -4.252,-0.844 -6.371,-1.309 l 4.285,5.764 c 0.684,-1.489 1.384,-2.972 2.086,-4.455 z"
   id="path4811"
   inkscape:connector-curvature="0"
   style="fill:#c0902e" />
	<g
   id="g4813">
		<path
   d="m 15.182,29.671 c -1.823,-0.615 -3.698,-1.388 -4.981,-2.878 -0.187,0.637 -0.367,1.272 -0.552,1.912 0.438,-0.213 0.885,-0.42 1.332,-0.633 C 12.02,27.583 11.984,26.3 11.016,25.759 8.95,24.61 6.683,24.161 4.448,23.451 4.671,23.999 4.888,24.545 5.11,25.093 5.928,23.009 4.418,20.689 3.533,18.866 3.192,19.426 2.847,19.992 2.502,20.558 2.853,20.544 3.2,20.505 3.541,20.444 4.485,20.495 5.215,19.691 4.891,18.752 4.24,16.885 2.945,15.295 2.51,13.347 2.035,13.804 1.56,14.263 1.085,14.722 1.55,14.844 2.019,14.91 2.494,14.931 3.219,14.994 3.759,14.568 3.917,13.873 4.528,11.198 4.284,8.444 4.705,5.742 4.037,6.012 3.367,6.278 2.698,6.546 3.697,7.285 4.543,8.186 5.545,8.923 6.095,9.333 6.862,9.252 7.299,8.706 8.902,6.71 8.772,4.057 10.239,2.03 9.748,2.151 9.251,2.281 8.762,2.407 c 1.402,0.739 1.983,2.348 2.815,3.59 0.412,0.611 1.188,0.591 1.752,0.26 1.5,-0.885 2.243,-2.807 3.848,-3.454 -0.487,-0.142 -0.972,-0.282 -1.456,-0.422 0.851,1.067 0.853,2.533 1.405,3.753 0.41,0.911 1.498,1.031 2.153,0.316 0.842,-0.923 1.512,-1.983 2.29,-2.959 C 20.852,3.383 20.136,3.28 19.42,3.174 c 1.208,2.931 0.483,6.182 1.088,9.237 0.185,0.905 1.181,1.474 1.993,0.867 1.508,-1.128 2.459,-2.746 3.882,-3.964 -0.639,-0.187 -1.274,-0.365 -1.912,-0.552 1.291,2.645 -0.505,5.906 -0.719,8.654 -0.081,1.076 1.049,1.839 1.983,1.181 0.278,-0.165 0.554,-0.327 0.833,-0.491 -0.562,-0.345 -1.125,-0.688 -1.693,-1.031 0.174,1.315 0.167,2.63 0.244,3.954 0.051,0.962 1.26,1.406 1.989,0.862 0.15,-0.111 0.307,-0.225 0.463,-0.341 -0.664,-0.288 -1.325,-0.577 -1.989,-0.865 0.057,1.147 0.211,2.521 -0.954,3.15 -1.043,0.558 -2.267,0.808 -3.353,1.271 -2.482,1.052 -4.64,2.882 -6.781,4.483 -1.291,0.966 0.201,2.976 1.494,2.005 1.457,-1.09 2.902,-2.196 4.435,-3.187 1.602,-1.047 3.377,-1.485 5.106,-2.245 2.401,-1.053 2.645,-3.412 2.537,-5.754 -0.044,-0.966 -1.264,-1.402 -1.989,-0.865 -0.154,0.114 -0.309,0.228 -0.459,0.343 0.66,0.286 1.321,0.576 1.989,0.864 -0.079,-1.319 -0.073,-2.636 -0.248,-3.952 -0.102,-0.763 -0.94,-1.372 -1.693,-1.029 -0.552,0.253 -0.923,0.469 -1.421,0.822 0.662,0.396 1.319,0.79 1.981,1.186 0.252,-3.278 2.137,-6.718 0.575,-9.921 -0.335,-0.682 -1.249,-1.119 -1.91,-0.55 -1.417,1.21 -2.391,2.846 -3.887,3.962 0.666,0.288 1.332,0.579 1.989,0.867 C 22.335,8.845 23.06,5.437 21.746,2.267 21.385,1.386 20.198,1.196 19.597,1.951 18.813,2.931 18.152,3.989 17.305,4.912 18.023,5.018 18.738,5.123 19.458,5.227 18.784,3.745 18.768,2.199 17.723,0.89 17.378,0.46 16.797,0.257 16.27,0.468 14.307,1.266 13.591,3.216 11.835,4.249 12.418,4.332 13,4.422 13.581,4.507 12.408,2.752 11.669,1.126 9.737,0.107 9.264,-0.143 8.574,0.065 8.266,0.489 6.794,2.529 6.882,5.228 5.323,7.169 5.907,7.098 6.494,7.024 7.078,6.956 6.081,6.215 5.231,5.314 4.228,4.573 3.479,4.019 2.375,4.431 2.229,5.378 1.812,8.08 2.05,10.834 1.443,13.511 1.912,13.158 2.389,12.807 2.86,12.456 2.383,12.435 1.912,12.369 1.452,12.247 c -0.735,-0.146 -1.6,0.603 -1.429,1.374 0.489,2.192 1.807,3.939 2.535,6.036 0.446,-0.562 0.897,-1.125 1.348,-1.687 -0.584,-0.034 -1.1,0.061 -1.676,0.104 -0.761,0.053 -1.376,0.977 -1.031,1.693 0.481,0.986 2.044,3.237 1.611,4.346 -0.227,0.584 -0.008,1.427 0.662,1.638 2.223,0.71 4.506,1.163 6.564,2.308 0.016,-0.771 0.026,-1.541 0.039,-2.313 -0.444,0.209 -0.887,0.418 -1.329,0.629 -0.682,0.321 -1.112,1.254 -0.55,1.91 1.587,1.847 3.725,2.922 6.006,3.688 1.515,0.507 2.51,-1.784 0.98,-2.302 l 0,0 z"
   id="path4815"
   inkscape:connector-curvature="0"
   style="fill:#00a551" />
	</g>
	<g
   id="g4817">
		<path
   d="m 3.152,11.701 c -0.059,1.443 0.016,2.84 0.235,4.271 C 4.059,15.598 4.731,15.225 5.398,14.849 5.069,14.626 4.765,14.376 4.479,14.094 3.677,13.386 2.303,14.177 2.47,15.217 2.777,17.188 4.128,19.11 4.033,21.109 4.782,20.922 5.525,20.734 6.276,20.545 5.988,20.159 5.704,19.774 5.411,19.39 4.447,18.089 2.511,19.55 3.408,20.88 4.603,22.648 5.421,24.501 6.933,26.039 8.021,27.135 9.33,25.41 8.709,24.304 8.258,23.505 7.757,22.735 7.307,21.933 6.809,22.568 6.312,23.2 5.815,23.829 c 1.717,0.773 3.165,2.005 4.831,2.878 0.964,0.503 2.072,-0.649 1.658,-1.602 -0.093,-0.227 -0.195,-0.453 -0.314,-0.666 -0.725,0.398 -1.447,0.8 -2.167,1.197 0.909,1.307 1.697,2.688 2.606,3.992 0.591,-0.58 1.183,-1.155 1.772,-1.729 -0.457,-0.286 -0.824,-0.649 -1.114,-1.094 -0.5,0.631 -1.001,1.263 -1.494,1.894 4.76,1.364 8.011,-1.468 11.933,-3.741 1.692,-0.982 2.269,-2.119 1.676,-3.966 -0.453,-1.405 -0.923,-2.261 -0.885,-3.83 0.048,-1.683 0.666,-3.17 1.213,-4.733 -0.765,-0.325 -1.532,-0.656 -2.301,-0.982 -1.196,3.556 -3.016,7.917 0.458,10.767 0.909,0.745 2.513,-0.309 1.934,-1.437 -1.62,-3.16 -3.383,-6.241 -4.771,-9.513 C 20.192,9.722 19.878,8.116 19.46,6.502 19.076,5.006 17.802,4.917 16.876,3.857 16.521,3.447 15.957,3.204 15.423,3.439 14.676,3.759 14.104,4.18 13.54,4.776 13.087,5.259 12.549,6.365 11.971,5.245 11.709,4.754 11.591,4.169 11.447,3.636 11.163,2.596 9.458,2.6 9.127,3.601 8.339,5.99 7.635,8.537 4.723,8.851 3.84,8.951 3.501,9.781 3.692,10.546 5.08,16.12 7.002,21.267 10.28,26.014 10.869,25.438 11.459,24.861 12.054,24.285 8.096,20.394 4.089,12.18 10.98,9.05 c 1.453,-0.666 3.037,-1.078 4.571,-1.514 1.853,-0.524 2.545,-0.649 3.093,1.256 0.505,1.794 0.966,3.485 1.743,5.198 1.009,2.223 2.198,4.333 2.712,6.741 0.672,-0.374 1.341,-0.747 2.011,-1.123 C 22.971,17.871 21.237,15.457 19.983,13.007 18.981,11.059 19.348,8.739 17.373,7.34 14.556,5.347 9.648,7.882 7.521,9.889 c -5.565,5.273 0.788,14.138 5.265,17.729 1.256,1.007 2.797,-0.962 1.538,-1.971 -3.367,-2.699 -9.295,-9.984 -4.932,-14.106 1.106,-1.045 2.657,-1.656 4.083,-2.104 0.818,-0.26 2.147,-0.481 2.817,0.246 0.615,0.667 0.705,2.074 0.934,2.89 0.954,3.426 3.617,6.789 6.346,9.007 0.786,0.635 2.245,-0.041 2.01,-1.125 C 25.016,17.829 23.856,15.501 22.716,13.083 21.691,10.916 21.549,8.232 20.317,6.209 18.287,2.876 12.716,5.645 10.071,6.714 0.962,10.412 5.332,21.159 10.513,26.249 11.553,27.276 13.052,25.63 12.285,24.52 9.131,19.956 7.353,14.987 6.022,9.641 5.679,10.205 5.336,10.769 4.995,11.333 8.9,10.911 10.299,7.999 11.425,4.574 10.655,4.562 9.884,4.552 9.109,4.54 9.481,5.91 10.095,7.917 11.725,8.246 14.02,8.706 14.53,6.545 16.326,5.77 15.839,5.628 15.35,5.49 14.869,5.348 c 0.588,0.676 1.916,1.244 2.259,2.06 0.623,1.47 0.783,3.235 1.384,4.762 1.303,3.294 3.16,6.361 4.776,9.509 0.645,-0.479 1.291,-0.958 1.934,-1.439 -2.316,-1.896 -0.461,-5.529 0.304,-7.812 0.514,-1.512 -1.766,-2.511 -2.301,-0.982 -1.317,3.775 -1.821,6.686 -0.357,10.448 0.325,0.831 -2.983,2.271 -3.858,2.86 -2.018,1.364 -3.959,2.354 -6.442,1.642 -1.104,-0.314 -2.322,0.822 -1.492,1.898 0.481,0.621 0.956,1.108 1.585,1.573 1.143,0.853 2.58,-0.572 1.77,-1.729 -0.907,-1.309 -1.697,-2.689 -2.606,-3.994 -0.796,-1.141 -2.809,-0.075 -2.17,1.198 0.118,0.217 0.223,0.438 0.314,0.667 0.552,-0.534 1.102,-1.072 1.656,-1.605 C 9.955,23.53 8.524,22.31 6.795,21.53 5.549,20.966 4.741,22.425 5.303,23.424 c 0.449,0.804 0.95,1.571 1.402,2.371 0.587,-0.576 1.181,-1.15 1.772,-1.731 -1.323,-1.34 -2.02,-3.132 -3.067,-4.674 -0.666,0.493 -1.335,0.995 -2.003,1.49 0.288,0.384 0.572,0.771 0.858,1.155 0.603,0.812 2.19,0.57 2.241,-0.562 C 6.615,19.096 5.315,17.231 4.951,14.944 4.281,15.319 3.614,15.695 2.942,16.066 3.226,16.344 3.53,16.6 3.859,16.825 4.695,17.432 6.047,16.811 5.874,15.699 5.681,14.479 5.572,13.302 5.626,12.066 5.691,10.471 3.217,10.089 3.152,11.701 l 0,0 z"
   id="path4819"
   inkscape:connector-curvature="0"
   style="fill:#00a551" />
	</g>
	<g
   id="g4821">
		<path
   d="m 2.931,8.585 c 0.264,1.599 0.264,3.223 0.528,4.82 0.262,1.587 2.748,1.315 2.488,-0.274 C 5.677,11.531 5.681,9.91 5.415,8.311 5.153,6.726 2.667,6.994 2.931,8.585 l 0,0 z"
   id="path4823"
   inkscape:connector-curvature="0"
   style="fill:#00a551" />
	</g>
	<g
   id="g4825">
		<path
   d="m 4.546,20.158 c 0.572,2.044 1.682,3.725 3.46,4.902 0.757,0.503 1.877,0.188 2.007,-0.802 C 10.261,22.391 9.816,20.44 9.554,18.599 9.363,17.211 8.29,12.549 9.976,11.741 9.444,11.501 8.9,11.264 8.364,11.029 c 1.67,4.471 0.601,9.945 4.447,13.479 3.621,3.329 7.14,2.458 10.848,-0.235 1.086,-0.786 0.286,-2.253 -0.879,-2.245 -1.352,0.01 -2.616,0.43 -3.939,0.655 -2.056,0.343 -2.88,-1.751 -3.588,-3.264 -1.313,-2.797 -3.146,-6.517 -2.898,-9.661 -0.475,0.349 -0.946,0.701 -1.418,1.052 2.441,0.53 5.058,0.501 7.4,1.406 1.565,0.607 2.486,2.072 3.097,3.55 0.442,1.082 -0.298,1.715 -0.97,2.466 -2.992,3.394 -7.917,5.823 -7.381,11.023 0.801,-0.197 1.603,-0.394 2.403,-0.591 -1.092,-4.376 -2.194,-8.969 -1.047,-13.446 -0.745,0.187 -1.492,0.377 -2.241,0.562 1.733,3.012 2.45,6.469 3.948,9.594 0.729,-0.402 1.447,-0.802 2.169,-1.202 -2.131,-3.217 -3.606,-6.756 -4.751,-10.428 -0.723,0.398 -1.445,0.796 -2.17,1.196 1.348,1.42 2.517,2.981 3.968,4.294 0.958,0.869 2.338,-0.339 1.93,-1.435 -0.871,-2.391 -1.965,-4.688 -2.761,-7.112 -0.647,0.479 -1.295,0.96 -1.936,1.439 1.553,1.305 2.322,3.195 4.246,4.047 1.043,0.465 1.962,-0.609 1.652,-1.602 -0.351,-1.118 -0.777,-2.21 -1.031,-3.357 -0.749,0.3 -1.5,0.591 -2.253,0.887 2.281,2.444 3.978,5.306 5.827,8.074 0.667,-0.495 1.337,-0.995 2.003,-1.492 -0.944,-1.279 -1.867,-2.562 -2.722,-3.909 -0.765,-1.208 -2.693,-0.087 -2.169,1.202 0.629,1.524 1.319,3.012 1.798,4.591 0.646,-0.477 1.291,-0.958 1.937,-1.439 -1.953,-1.788 -3.495,-3.952 -5.249,-5.927 -0.901,-1.008 -2.726,-0.181 -2.168,1.202 1.194,2.965 3.207,5.401 5.001,8.017 0.67,-0.499 1.336,-0.997 2.005,-1.492 -1.441,-1.967 -2.833,-3.927 -4.593,-5.628 -0.977,-0.936 -2.255,0.378 -1.935,1.441 0.66,2.194 1.983,4.087 2.684,6.27 0.645,-0.479 1.291,-0.958 1.936,-1.439 -2.028,-1.269 -3.759,-2.959 -6.036,-3.793 -0.688,-0.256 -1.687,0.122 -1.727,0.968 -0.071,1.821 0.655,3.312 1.181,5.023 0.723,-0.4 1.447,-0.799 2.166,-1.195 -1.339,-2.105 -2.46,-4.292 -3.355,-6.619 -0.723,0.4 -1.445,0.795 -2.166,1.2 2.267,2.559 4.54,6.184 7.775,7.662 0.623,0.282 1.263,0.225 1.766,-0.258 0.359,-0.345 0.907,-0.396 1.301,-0.684 0.844,-0.604 -0.15,-0.822 0.52,0.106 0.52,0.724 1.859,0.664 2.153,-0.256 0.264,-0.814 0.412,-1.66 0.676,-2.476 -0.773,-0.01 -1.546,-0.026 -2.318,-0.037 0.136,0.258 0.266,0.518 0.404,0.779 0.643,-0.481 1.289,-0.96 1.93,-1.437 -0.611,-0.68 -1.063,-1.447 -1.352,-2.302 -0.604,-1.496 -2.933,-0.588 -2.328,0.903 0.54,1.332 1.134,2.354 2.145,3.367 0.861,0.869 2.482,-0.365 1.935,-1.439 -0.134,-0.258 -0.266,-0.518 -0.402,-0.779 -0.445,-0.861 -1.942,-1.198 -2.316,-0.037 -0.262,0.818 -0.412,1.66 -0.672,2.476 0.714,-0.085 1.435,-0.167 2.151,-0.251 -0.556,-0.775 -1.145,-1.591 -2.178,-1.607 -0.917,-0.012 -1.555,0.848 -2.365,1.175 -0.335,0.138 -0.643,0.368 -0.901,0.611 0.952,0.015 1.09,-0.144 0.414,-0.475 -0.437,-0.305 -0.861,-0.625 -1.279,-0.958 -1.963,-1.524 -3.422,-3.729 -5.056,-5.576 -0.905,-1.025 -2.702,-0.185 -2.172,1.196 0.979,2.533 2.22,4.916 3.682,7.203 0.804,1.256 2.563,0.079 2.168,-1.195 -0.37,-1.206 -1.086,-2.468 -1.031,-3.753 -0.579,0.318 -1.157,0.639 -1.729,0.964 2.07,0.757 3.633,2.31 5.476,3.469 1.043,0.651 2.33,-0.207 1.932,-1.441 -0.698,-2.184 -2.023,-4.074 -2.681,-6.27 -0.647,0.479 -1.289,0.958 -1.938,1.439 1.593,1.532 2.823,3.365 4.128,5.145 0.956,1.301 2.915,-0.17 2.005,-1.492 -1.664,-2.428 -3.568,-4.678 -4.676,-7.433 -0.725,0.4 -1.449,0.8 -2.171,1.2 1.91,2.145 3.598,4.459 5.715,6.407 0.99,0.905 2.267,-0.359 1.936,-1.437 -0.477,-1.581 -1.171,-3.066 -1.798,-4.597 -0.721,0.399 -1.445,0.799 -2.166,1.199 0.851,1.346 1.774,2.626 2.724,3.907 0.964,1.303 2.896,-0.161 2.003,-1.492 -1.845,-2.769 -3.54,-5.628 -5.817,-8.074 -0.743,-0.793 -2.551,-0.471 -2.247,0.883 0.304,1.36 0.769,2.655 1.189,3.984 0.548,-0.534 1.1,-1.067 1.65,-1.604 -1.546,-0.684 -2.395,-2.638 -3.684,-3.718 -0.997,-0.836 -2.302,0.319 -1.935,1.437 0.8,2.419 1.892,4.719 2.769,7.11 0.644,-0.481 1.287,-0.958 1.934,-1.437 -1.285,-1.167 -2.312,-2.562 -3.499,-3.818 -0.956,-1.009 -2.608,-0.207 -2.167,1.202 1.208,3.887 2.825,7.613 5.078,11.015 0.773,1.169 2.778,0.073 2.166,-1.197 -1.604,-3.333 -2.413,-6.958 -4.271,-10.177 -0.611,-1.057 -2.009,-0.349 -2.241,0.562 -1.258,4.897 -0.008,9.935 1.191,14.717 0.351,1.411 2.547,0.773 2.407,-0.589 -0.363,-3.542 3.176,-5.459 5.397,-7.611 1.246,-1.202 3.248,-2.994 3.136,-4.924 C 23.693,9.495 16.309,9.422 11.298,8.337 10.667,8.2 9.935,8.746 9.88,9.391 c -0.318,4.09 1.847,8.928 3.802,12.444 0.775,1.398 1.786,2.931 3.491,3.25 2.023,0.385 3.871,-0.556 5.882,-0.573 -0.294,-0.747 -0.59,-1.494 -0.883,-2.245 -1.4,1.021 -2.955,2.178 -4.788,2.054 -2.044,-0.134 -3.729,-2.344 -4.5,-4.027 -1.435,-3.134 -0.97,-6.913 -2.19,-10.17 C 10.465,9.525 9.687,9.119 9.076,9.412 4.087,11.794 8.07,19.898 7.542,23.893 8.211,23.625 8.879,23.355 9.547,23.091 8.106,22.135 7.337,20.887 6.876,19.253 6.438,17.698 4.114,18.622 4.546,20.158 l 0,0 z"
   id="path4827"
   inkscape:connector-curvature="0"
   style="fill:#00a551" />
	</g>
	<g
   id="g4829">
		<path
   d="m 7.311,13.966 c 0.901,3.02 2.318,5.825 3.452,8.758 0.587,1.504 2.915,0.595 2.332,-0.905 -1.132,-2.931 -2.553,-5.736 -3.45,-8.756 -0.463,-1.549 -2.789,-0.627 -2.334,0.903 l 0,0 z"
   id="path4831"
   inkscape:connector-curvature="0"
   style="fill:#00a551" />
	</g>
	<g
   id="g4833">
		<path
   d="m 18.555,31.665 c 2.832,-1.924 5.703,-3.765 8.216,-6.105 1.167,-1.092 -0.311,-3.107 -1.488,-2.011 -2.513,2.344 -5.386,4.185 -8.222,6.113 -1.335,0.902 0.162,2.905 1.494,2.003 l 0,0 z"
   id="path4835"
   inkscape:connector-curvature="0"
   style="fill:#006838" />
	</g>
	<g
   id="g4837">
		<path
   d="m 27.032,25.33 c 0.536,-1.616 0.339,-3.223 0.451,-4.892 0.049,-0.68 -0.341,-1.313 -1.055,-1.419 -0.633,-0.093 -1.37,0.375 -1.415,1.054 -0.098,1.396 0.166,2.929 -0.28,4.278 -0.213,0.647 -0.004,1.358 0.658,1.64 0.592,0.248 1.424,-0.012 1.641,-0.661 l 0,0 z"
   id="path4839"
   inkscape:connector-curvature="0"
   style="fill:#006838" />
	</g>
	<g
   id="g4841">
		<path
   d="m 23.899,23.142 c -1.391,1.031 -2.777,2.062 -4.167,3.095 -1.295,0.962 0.199,2.969 1.49,2.007 1.386,-1.033 2.778,-2.064 4.169,-3.1 1.293,-0.961 -0.203,-2.966 -1.492,-2.002 l 0,0 z"
   id="path4843"
   inkscape:connector-curvature="0"
   style="fill:#006838" />
	</g>
	<g
   id="g4845">
		<path
   d="m 16.401,29.708 c -0.635,-0.102 -1.261,-0.284 -1.9,-0.382 -0.676,-0.105 -1.319,0.384 -1.418,1.051 -0.1,0.678 0.379,1.313 1.051,1.419 0.641,0.102 1.262,0.284 1.904,0.383 0.674,0.108 1.315,-0.383 1.42,-1.053 0.098,-0.679 -0.383,-1.313 -1.057,-1.418 l 0,0 z"
   id="path4847"
   inkscape:connector-curvature="0"
   style="fill:#006838" />
	</g>
	<g
   id="g4849">
		<path
   d="m 17.688,3.02 c 0.509,0.962 0.901,1.975 1.313,2.978 0.615,1.49 2.949,0.586 2.332,-0.905 C 20.921,4.091 20.525,3.076 20.018,2.12 19.699,1.517 19.09,1.136 18.398,1.406 17.82,1.63 17.367,2.419 17.688,3.02 l 0,0 z"
   id="path4851"
   inkscape:connector-curvature="0"
   style="fill:#006838" />
	</g>
	<g
   id="g4853">
		<path
   d="M 14.875,3.909 C 15.959,5.792 17.329,7.467 18.63,9.2 19.6,10.491 21.605,9.001 20.637,7.71 19.334,5.977 17.964,4.302 16.88,2.417 16.083,1.021 14.085,2.527 14.875,3.909 l 0,0 z"
   id="path4855"
   inkscape:connector-curvature="0"
   style="fill:#006838" />
	</g>
	<g
   id="g4857">
		<path
   d="m 22.717,14.38 c 0.534,1.244 0.856,2.567 1.395,3.814 0.637,1.479 2.965,0.574 2.33,-0.905 -0.536,-1.244 -0.858,-2.565 -1.395,-3.812 -0.635,-1.482 -2.969,-0.577 -2.33,0.903 l 0,0 z"
   id="path4859"
   inkscape:connector-curvature="0"
   style="fill:#006838" />
	</g>
	<g
   id="g4861">
		<path
   d="m 3.917,22.292 c 2.166,2.509 4.999,4.418 8.11,5.545 1.506,0.548 2.499,-1.748 0.98,-2.299 -2.689,-0.972 -5.206,-2.56 -7.08,-4.733 -1.046,-1.215 -3.059,0.267 -2.01,1.487 l 0,0 z"
   id="path4863"
   inkscape:connector-curvature="0"
   style="fill:#006838" />
	</g>
	<g
   id="g4865">
		<path
   d="m 1.461,11.725 c 0.833,1.352 1.772,2.63 2.718,3.905 0.964,1.297 2.967,-0.197 2.009,-1.49 -0.952,-1.277 -1.89,-2.556 -2.724,-3.907 -0.85,-1.37 -2.851,0.132 -2.003,1.492 l 0,0 z"
   id="path4867"
   inkscape:connector-curvature="0"
   style="fill:#006838" />
	</g>
	<g
   id="g4869">
		<path
   d="m 13.978,11.402 c 2.583,3.067 4.773,6.288 6.253,10.037 0.593,1.498 2.923,0.591 2.334,-0.907 -1.567,-3.943 -3.853,-7.386 -6.58,-10.617 -1.035,-1.228 -3.047,0.255 -2.007,1.487 l 0,0 z"
   id="path4871"
   inkscape:connector-curvature="0"
   style="fill:#006838" />
	</g>
	<g
   id="g4873">
		<path
   d="m 11.865,20.167 c 1.132,1.524 2.291,3.01 3.647,4.35 1.145,1.128 2.673,-0.851 1.537,-1.973 -1.189,-1.173 -2.184,-2.533 -3.181,-3.868 -0.96,-1.296 -2.967,0.198 -2.003,1.491 l 0,0 z"
   id="path4875"
   inkscape:connector-curvature="0"
   style="fill:#006838" />
	</g>
	<g
   id="g4877">
		<path
   d="M 8.703,12.448 C 7.729,11.137 6.75,9.826 5.778,8.512 4.816,7.219 2.811,8.709 3.771,10.004 c 0.974,1.312 1.952,2.625 2.927,3.938 0.962,1.292 2.965,-0.199 2.005,-1.494 l 0,0 z"
   id="path4879"
   inkscape:connector-curvature="0"
   style="fill:#006838" />
	</g>
	<g
   id="g4881">
		<path
   d="m 10.73,20.536 c 2.562,0.773 5.166,1.389 7.725,2.164 1.524,0.467 2.525,-1.829 0.977,-2.298 -2.558,-0.777 -5.16,-1.394 -7.719,-2.169 -1.526,-0.463 -2.527,1.832 -0.983,2.303 l 0,0 z"
   id="path4883"
   inkscape:connector-curvature="0"
   style="fill:#006838" />
	</g>
	<g
   id="g4885">
		<path
   d="M 17.424,24.232 C 15.293,23.158 13.61,21.413 11.637,20.1 c -1.332,-0.891 -2.884,1.076 -1.539,1.969 2.16,1.443 4.007,3.286 6.347,4.461 1.442,0.722 2.418,-1.578 0.979,-2.298 l 0,0 z"
   id="path4887"
   inkscape:connector-curvature="0"
   style="fill:#006838" />
	</g>
	<g
   id="g4889">
		<path
   d="m 14.589,26.822 c -0.102,0.089 -0.207,0.168 -0.323,0.248 0.221,-0.146 -0.229,0.044 0.035,-0.016 -0.024,0.002 -0.396,0.03 -0.152,0.039 -0.124,-0.004 -0.238,-0.029 -0.357,-0.049 0.228,0.042 -0.136,-0.049 -0.154,-0.059 -0.116,-0.041 -0.229,-0.097 -0.339,-0.154 -0.347,-0.174 0.181,0.126 -0.146,-0.091 -0.134,-0.087 -0.26,-0.188 -0.388,-0.288 -1.26,-1.007 -2.797,0.96 -1.539,1.971 1.391,1.114 3.363,1.683 4.861,0.406 0.518,-0.443 0.682,-1.173 0.256,-1.75 -0.388,-0.517 -1.235,-0.702 -1.754,-0.257 l 0,0 z"
   id="path4891"
   inkscape:connector-curvature="0"
   style="fill:#006838" />
	</g>
	<g
   id="g4893">
		<path
   d="m 11.725,5.709 c 1.534,2.369 2.653,4.964 4.063,7.404 C 16.59,14.508 18.589,13 17.791,11.626 16.387,9.18 15.269,6.59 13.728,4.22 12.852,2.868 10.85,4.366 11.725,5.709 l 0,0 z"
   id="path4895"
   inkscape:connector-curvature="0"
   style="fill:#006838" />
	</g>
	<g
   id="g4897">
		<path
   d="m 24.664,19.726 c 1.378,-2.446 1.451,-5.277 1.934,-7.975 0.282,-1.589 -2.188,-1.95 -2.472,-0.363 -0.446,2.497 -0.483,5.097 -1.764,7.357 -0.793,1.399 1.514,2.369 2.302,0.981 l 0,0 z"
   id="path4899"
   inkscape:connector-curvature="0"
   style="fill:#006838" />
	</g>
	<g
   id="g4901">
		<path
   d="m 10.588,14.82 c 0.229,0.312 0.461,0.619 0.69,0.93 0.406,0.544 1.2,0.662 1.748,0.256 0.546,-0.406 0.662,-1.204 0.258,-1.748 -0.229,-0.311 -0.461,-0.617 -0.69,-0.928 -0.406,-0.546 -1.202,-0.664 -1.751,-0.258 -0.545,0.407 -0.665,1.204 -0.255,1.748 l 0,0 z"
   id="path4903"
   inkscape:connector-curvature="0"
   style="fill:#006838" />
	</g>
	<g
   id="g4905">
		<path
   d="m 5.814,23.107 c 0.867,0.437 1.729,0.873 2.594,1.311 0.603,0.307 1.386,-0.065 1.642,-0.662 C 10.326,23.101 9.995,22.424 9.388,22.114 8.524,21.678 7.659,21.245 6.794,20.805 6.187,20.499 5.406,20.874 5.156,21.467 c -0.277,0.658 0.048,1.332 0.658,1.64 l 0,0 z"
   id="path4907"
   inkscape:connector-curvature="0"
   style="fill:#006838" />
	</g>
	<g
   id="g4909">
		<path
   d="M 2.864,6.365 C 3.326,6.982 3.783,7.597 4.24,8.218 5.204,9.513 7.209,8.019 6.249,6.724 5.788,6.109 5.33,5.494 4.869,4.875 3.909,3.578 1.904,5.07 2.864,6.365 l 0,0 z"
   id="path4911"
   inkscape:connector-curvature="0"
   style="fill:#006838" />
	</g>
	<g
   id="g4913">
		<path
   d="m 2.18,18.425 c 2.214,1.871 4.887,3.028 7.25,4.68 1.315,0.916 2.864,-1.047 1.54,-1.971 C 8.61,19.482 5.93,18.323 3.72,16.458 2.488,15.419 0.952,17.388 2.18,18.425 l 0,0 z"
   id="path4915"
   inkscape:connector-curvature="0"
   style="fill:#006838" />
	</g>
	<g
   id="g4917">
		<path
   d="M 12.078,28.245 C 10.15,28.054 8.248,27.683 6.342,27.297 4.761,26.979 4.408,29.453 5.983,29.771 c 1.898,0.384 3.802,0.757 5.736,0.946 1.597,0.162 1.969,-2.312 0.359,-2.472 l 0,0 z"
   id="path4919"
   inkscape:connector-curvature="0"
   style="fill:#006838" />
	</g>
	<g
   id="g4921">
		<path
   d="m 20.542,12.208 c 0.104,0.597 0.148,1.197 0.25,1.792 0.116,0.67 0.674,1.181 1.384,1.104 0.645,-0.071 1.218,-0.708 1.1,-1.378 -0.101,-0.595 -0.15,-1.198 -0.25,-1.79 -0.114,-0.672 -0.676,-1.184 -1.38,-1.108 -0.647,0.073 -1.222,0.713 -1.104,1.38 l 0,0 z"
   id="path4923"
   inkscape:connector-curvature="0"
   style="fill:#006838" />
	</g>
	<g
   id="g4925">
		<path
   d="m 18.005,15.776 c -1.025,-1.427 -1.733,-3.004 -2.409,-4.622 -0.625,-1.488 -2.953,-0.583 -2.334,0.907 0.759,1.814 1.587,3.603 2.738,5.208 0.943,1.306 2.944,-0.184 2.005,-1.493 l 0,0 z"
   id="path4927"
   inkscape:connector-curvature="0"
   style="fill:#006838" />
	</g>
	<g
   id="g4929">
		<path
   d="m 10.911,12.221 c -0.627,3.324 0.516,6.316 2.446,8.987 0.944,1.305 2.951,-0.185 2.009,-1.492 -1.565,-2.16 -2.488,-4.435 -1.983,-7.128 0.301,-1.589 -2.177,-1.946 -2.472,-0.367 l 0,0 z"
   id="path4931"
   inkscape:connector-curvature="0"
   style="fill:#006838" />
	</g>
	<g
   id="g4933">
		<path
   d="m 21.315,16.194 c 0.428,0.597 0.714,1.24 0.952,1.935 0.521,1.528 2.845,0.617 2.328,-0.905 -0.302,-0.891 -0.723,-1.751 -1.278,-2.521 -0.942,-1.307 -2.944,0.187 -2.002,1.491 l 0,0 z"
   id="path4935"
   inkscape:connector-curvature="0"
   style="fill:#37b34a" />
	</g>
	<g
   id="g4937">
		<path
   d="m 19.519,14.946 c 0.321,1.66 0.956,3.166 1.703,4.678 0.708,1.437 3.042,0.54 2.33,-0.907 -0.637,-1.299 -1.271,-2.616 -1.551,-4.045 -0.304,-1.575 -2.789,-1.307 -2.482,0.274 l 0,0 z"
   id="path4939"
   inkscape:connector-curvature="0"
   style="fill:#37b34a" />
	</g>
	<g
   id="g4941">
		<path
   d="m 12.157,19.998 c 1.029,0.942 1.967,1.971 2.898,3.008 1.06,1.191 3.079,-0.292 2.001,-1.492 -1.074,-1.204 -2.169,-2.391 -3.363,-3.485 -1.187,-1.086 -2.717,0.891 -1.536,1.969 l 0,0 z"
   id="path4943"
   inkscape:connector-curvature="0"
   style="fill:#37b34a" />
	</g>
	<g
   id="g4945">
		<path
   d="m 11.006,25.709 c 0.714,0.453 1.319,1.039 1.922,1.622 0.499,0.475 1.37,0.278 1.757,-0.215 0.455,-0.58 0.274,-1.285 -0.215,-1.755 -0.609,-0.584 -1.212,-1.169 -1.928,-1.624 -0.572,-0.368 -1.303,-0.357 -1.754,0.217 -0.389,0.499 -0.356,1.39 0.218,1.755 l 0,0 z"
   id="path4947"
   inkscape:connector-curvature="0"
   style="fill:#37b34a" />
	</g>
	<g
   id="g4949">
		<path
   d="m 12.429,28.618 c 2.476,1.005 5.176,0.759 7.78,0.526 1.611,-0.142 1.327,-2.625 -0.274,-2.48 -2.16,0.188 -4.467,0.489 -6.527,-0.345 -1.49,-0.606 -2.479,1.692 -0.979,2.299 l 0,0 z"
   id="path4951"
   inkscape:connector-curvature="0"
   style="fill:#37b34a" />
	</g>
	<g
   id="g4953">
		<path
   d="m 3.02,16.491 c 2.364,2.833 5.212,5.034 8.313,6.998 1.348,0.853 2.9,-1.108 1.539,-1.973 C 9.966,19.677 7.244,17.658 5.03,14.999 4.002,13.765 1.989,15.25 3.02,16.491 l 0,0 z"
   id="path4955"
   inkscape:connector-curvature="0"
   style="fill:#37b34a" />
	</g>
	<g
   id="g4957">
		<path
   d="m 18.088,10.091 c 0.581,1.524 1.021,3.089 1.481,4.652 0.459,1.549 2.785,0.627 2.33,-0.907 -0.463,-1.559 -0.895,-3.127 -1.478,-4.648 -0.578,-1.51 -2.905,-0.599 -2.333,0.903 l 0,0 z"
   id="path4959"
   inkscape:connector-curvature="0"
   style="fill:#37b34a" />
	</g>
	<g
   id="g4961">
		<path
   d="m 8.958,11.902 c 1.654,2.005 3.199,4.088 4.644,6.253 0.895,1.339 2.896,-0.159 2.007,-1.494 -1.447,-2.164 -2.988,-4.244 -4.648,-6.251 -1.02,-1.238 -3.033,0.25 -2.003,1.492 l 0,0 z"
   id="path4963"
   inkscape:connector-curvature="0"
   style="fill:#37b34a" />
	</g>
	<g
   id="g4965">
		<path
   d="m 3.945,26.789 c 2.036,0.532 3.862,1.636 5.829,2.365 1.5,0.56 2.493,-1.733 0.977,-2.3 C 8.575,26.048 6.57,24.908 4.311,24.317 2.75,23.915 2.401,26.392 3.945,26.789 l 0,0 z"
   id="path4967"
   inkscape:connector-curvature="0"
   style="fill:#37b34a" />
	</g>
	<g
   id="g4969">
		<path
   d="m 9.04,5.007 c 1.792,3.028 2.728,6.464 4.043,9.708 0.601,1.496 2.931,0.586 2.328,-0.907 C 14.009,10.341 12.961,6.755 11.05,3.518 10.231,2.129 8.232,3.637 9.04,5.007 l 0,0 z"
   id="path4971"
   inkscape:connector-curvature="0"
   style="fill:#37b34a" />
	</g>
</g>
</svg>