<?xml version="1.0" encoding="UTF-8" standalone="no"?>
<!-- Generator: Adobe Illustrator 16.0.0, SVG Export Plug-In . SVG Version: 6.00 Build 0)  -->

<svg
   xmlns:dc="http://purl.org/dc/elements/1.1/"
   xmlns:cc="http://creativecommons.org/ns#"
   xmlns:rdf="http://www.w3.org/1999/02/22-rdf-syntax-ns#"
   xmlns:svg="http://www.w3.org/2000/svg"
   xmlns="http://www.w3.org/2000/svg"
   xmlns:sodipodi="http://sodipodi.sourceforge.net/DTD/sodipodi-0.dtd"
   xmlns:inkscape="http://www.inkscape.org/namespaces/inkscape"
   version="1.1"
   id="Layer_1"
   x="0px"
   y="0px"
   width="64px"
   height="64px"
   viewBox="0 0 64 64"
   enable-background="new 0 0 64 64"
   xml:space="preserve"
   inkscape:version="0.48.5 r10040"
   sodipodi:docname="1F437.svg"
   inkscape:export-filename="D:\TESTINGEMOJI\SVGTEST\1F437.png"
   inkscape:export-xdpi="90"
   inkscape:export-ydpi="90"><metadata
   id="metadata3065"><rdf:RDF><cc:Work
       rdf:about=""><dc:format>image/svg+xml</dc:format><dc:type
         rdf:resource="http://purl.org/dc/dcmitype/StillImage" /><dc:title></dc:title></cc:Work></rdf:RDF></metadata><defs
   id="defs3063" /><sodipodi:namedview
   pagecolor="#ffffff"
   bordercolor="#666666"
   borderopacity="1"
   objecttolerance="10"
   gridtolerance="10"
   guidetolerance="10"
   inkscape:pageopacity="0"
   inkscape:pageshadow="2"
   inkscape:window-width="640"
   inkscape:window-height="480"
   id="namedview3061"
   showgrid="false"
   inkscape:zoom="3.6875"
   inkscape:cx="32"
   inkscape:cy="32"
   inkscape:window-x="227"
   inkscape:window-y="176"
   inkscape:window-maximized="0"
   inkscape:current-layer="Layer_1" />
<g
   id="g3027"
   transform="translate(2,0)">
	<g
   id="g3029">
		<path
   d="M 17.257,15.958 C 18.448,20.941 6.39,31.346 2.881,32.183 -0.626,33.02 1.004,22.353 1.168,16.376 1.335,10.224 1.366,-1.151 4.188,1.094 7.246,3.528 16.07,10.974 17.257,15.958 z"
   id="path3031"
   inkscape:connector-curvature="0"
   style="fill:#d08565" />
		<path
   d="M 16.924,19.847 C 17.957,24.176 7.482,33.209 4.441,33.936 1.395,34.663 2.81,25.4 2.953,20.211 3.099,14.868 2.968,9.464 6.013,8.737 c 3.043,-0.726 9.88,6.783 10.911,11.11 z"
   id="path3033"
   inkscape:connector-curvature="0"
   style="fill:#eac8b8" />
	</g>
	<g
   id="g3035">
		<path
   d="m 43.403,15.957 c -1.19,4.982 10.866,15.387 14.371,16.224 3.512,0.837 1.883,-9.83 1.718,-15.807 -0.166,-6.152 -0.2,-17.526 -3.02,-15.282 -3.058,2.434 -11.882,9.88 -13.069,14.865 z"
   id="path3037"
   inkscape:connector-curvature="0"
   style="fill:#d08565" />
		<path
   d="m 43.736,19.845 c -1.03,4.329 9.436,13.362 12.48,14.089 3.048,0.728 1.634,-8.535 1.49,-13.724 C 57.559,14.867 57.691,9.463 54.646,8.736 51.604,8.009 44.767,15.518 43.736,19.845 z"
   id="path3039"
   inkscape:connector-curvature="0"
   style="fill:#eac8b8" />
	</g>
	<path
   d="M 0,41.886 C 0,53.978 13.499,63.77 30.166,63.77 46.831,63.77 60.33,53.978 60.33,41.886 60.329,29.805 46.83,0 30.166,0 13.499,0 0,29.805 0,41.886 z"
   id="path3041"
   inkscape:connector-curvature="0"
   style="fill:#dfad92" />
	<path
   d="M 10.015,51.328 C 3.448,34.702 12.846,16.464 22.169,2.265 9.387,9.43 0,31.812 0,41.886 0,51.224 8.063,59.167 19.402,62.312 15.27,59.698 11.912,56.128 10.015,51.328 z"
   id="path3043"
   inkscape:connector-curvature="0"
   style="fill:#d08565" />
	<ellipse
   cx="18.306999"
   cy="27.775"
   rx="6.9369998"
   ry="10.387"
   id="ellipse3045"
   sodipodi:cx="18.306999"
   sodipodi:cy="27.775"
   sodipodi:rx="6.9369998"
   sodipodi:ry="10.387"
   style="fill:#ffffff"
   d="m 25.243999,27.775 c 0,5.736581 -3.105801,10.387 -6.937,10.387 -3.831199,0 -6.937,-4.650419 -6.937,-10.387 0,-5.736582 3.105801,-10.387 6.937,-10.387 3.831199,0 6.937,4.650418 6.937,10.387 z" />
	<path
   d="m 48.712,27.775 c 0,5.737 -3.1,10.387 -6.932,10.387 -3.834,0 -6.938,-4.649 -6.938,-10.387 0,-5.739 3.104,-10.386 6.938,-10.386 3.832,0.001 6.932,4.648 6.932,10.386 z"
   id="path3047"
   inkscape:connector-curvature="0"
   style="fill:#ffffff" />
	<path
   d="m 22.795,27.775 c 0,3.006 -2.006,5.439 -4.485,5.439 -2.48,0 -4.491,-2.434 -4.491,-5.439 0,-3.005 2.011,-5.441 4.491,-5.441 2.479,0 4.485,2.436 4.485,5.441 z"
   id="path3049"
   inkscape:connector-curvature="0"
   style="fill:#25333a" />
	<path
   d="m 46.264,27.775 c 0,3.006 -2.005,5.439 -4.483,5.439 -2.48,0 -4.489,-2.434 -4.489,-5.439 0,-3.005 2.009,-5.441 4.489,-5.441 2.478,0 4.483,2.436 4.483,5.441 z"
   id="path3051"
   inkscape:connector-curvature="0"
   style="fill:#25333a" />
	<path
   d="m 15.805,43.196 c 0,-6.834 5.812,-6.708 13.746,-6.708 7.937,0 14.978,-0.126 14.978,6.708 0,6.844 -6.43,12.388 -14.361,12.388 -7.931,0 -14.363,-5.544 -14.363,-12.388 z"
   id="path3053"
   inkscape:connector-curvature="0"
   style="fill:#d08565" />
	<path
   d="m 28.062,46.065 c 0,2.725 -1.821,4.93 -4.063,4.93 -2.247,0 -4.072,-2.205 -4.072,-4.93 0,-2.722 1.825,-4.928 4.072,-4.928 2.242,10e-4 4.063,2.207 4.063,4.928 z"
   id="path3055"
   inkscape:connector-curvature="0"
   style="fill:#784e3d" />
	<path
   d="m 40.149,46.033 c 0,2.726 -1.821,4.93 -4.065,4.93 -2.247,0 -4.068,-2.204 -4.068,-4.93 0,-2.721 1.821,-4.927 4.068,-4.927 2.244,0 4.065,2.206 4.065,4.927 z"
   id="path3057"
   inkscape:connector-curvature="0"
   style="fill:#784e3d" />
	<path
   d="m 37.205,56.789 c -0.257,-0.763 -1.37,-1.079 -2.483,-0.703 l -4.474,1.509 -0.984,-3.878 c -0.266,-1.051 -1.02,-1.77 -1.68,-1.601 -0.662,0.168 -0.982,1.158 -0.717,2.212 l 1.134,4.468 c 0.091,0.362 0.255,0.662 0.44,0.923 0.002,0.009 -0.002,0.017 0,0.025 0.255,0.763 1.37,1.075 2.485,0.695 l 4.727,-1.593 c 1.114,-0.374 1.809,-1.298 1.552,-2.057 z"
   id="path3059"
   inkscape:connector-curvature="0"
   style="fill:#d08565" />
</g>
</svg>