<?xml version="1.0" encoding="UTF-8" standalone="no"?>
<!-- Generator: Adobe Illustrator 16.0.0, SVG Export Plug-In . SVG Version: 6.00 Build 0)  -->

<svg
   xmlns:dc="http://purl.org/dc/elements/1.1/"
   xmlns:cc="http://creativecommons.org/ns#"
   xmlns:rdf="http://www.w3.org/1999/02/22-rdf-syntax-ns#"
   xmlns:svg="http://www.w3.org/2000/svg"
   xmlns="http://www.w3.org/2000/svg"
   xmlns:sodipodi="http://sodipodi.sourceforge.net/DTD/sodipodi-0.dtd"
   xmlns:inkscape="http://www.inkscape.org/namespaces/inkscape"
   version="1.1"
   id="Layer_1"
   x="0px"
   y="0px"
   width="64px"
   height="64px"
   viewBox="0 0 64 64"
   enable-background="new 0 0 64 64"
   xml:space="preserve"
   inkscape:version="0.48.5 r10040"
   sodipodi:docname="1F43A.svg"
   inkscape:export-filename="D:\TESTINGEMOJI\SVGTEST\1F43A.png"
   inkscape:export-xdpi="90"
   inkscape:export-ydpi="90"><metadata
   id="metadata4736"><rdf:RDF><cc:Work
       rdf:about=""><dc:format>image/svg+xml</dc:format><dc:type
         rdf:resource="http://purl.org/dc/dcmitype/StillImage" /><dc:title></dc:title></cc:Work></rdf:RDF></metadata><defs
   id="defs4734" /><sodipodi:namedview
   pagecolor="#ffffff"
   bordercolor="#666666"
   borderopacity="1"
   objecttolerance="10"
   gridtolerance="10"
   guidetolerance="10"
   inkscape:pageopacity="0"
   inkscape:pageshadow="2"
   inkscape:window-width="852"
   inkscape:window-height="637"
   id="namedview4732"
   showgrid="false"
   inkscape:zoom="7.03125"
   inkscape:cx="32"
   inkscape:cy="32"
   inkscape:window-x="514"
   inkscape:window-y="203"
   inkscape:window-maximized="0"
   inkscape:current-layer="Layer_1" />
<g
   id="g4694"
   transform="translate(0.99555556,0.28444444)">
	<path
   d="m 42.76,12.268 c -1.879,5.272 9.99,17.986 13.702,19.308 3.709,1.319 3.19,-10.452 3.721,-16.963 0.54,-6.7 1.436,-13.438 -2.274,-14.76 -3.71,-1.32 -13.272,7.143 -15.149,12.415 z"
   id="path4696"
   inkscape:connector-curvature="0"
   style="fill:#424143" />
	<path
   d="m 42.95,16.56 c -1.632,4.577 8.675,15.618 11.894,16.767 3.22,1.146 2.776,-9.078 3.233,-14.731 C 58.543,12.78 59.322,6.927 56.102,5.78 52.882,4.632 44.578,11.985 42.95,16.56 z"
   id="path4698"
   inkscape:connector-curvature="0"
   style="fill:#929497" />
	<path
   d="M 17.925,12.268 C 19.804,17.54 7.932,30.254 4.223,31.576 0.51,32.895 1.031,21.124 0.502,14.613 -0.04,7.913 -0.936,1.175 2.775,-0.147 c 3.711,-1.32 13.273,7.143 15.15,12.415 z"
   id="path4700"
   inkscape:connector-curvature="0"
   style="fill:#424143" />
	<path
   d="M 17.733,16.56 C 19.367,21.137 9.056,32.178 5.842,33.327 2.622,34.473 3.066,24.249 2.608,18.596 2.141,12.78 1.365,6.927 4.583,5.78 c 3.22,-1.148 11.524,6.205 13.15,10.78 z"
   id="path4702"
   inkscape:connector-curvature="0"
   style="fill:#929497" />
	<path
   d="m 1.367,44.888 c 0,11.176 14.402,14.439 29.807,14.439 15.402,0 29.806,-3.264 29.806,-14.439 C 60.98,33.726 46.576,0.391 31.174,0.391 15.769,0.391 1.367,33.726 1.367,44.888 z"
   id="path4704"
   inkscape:connector-curvature="0"
   style="fill:#59595c" />
	<path
   d="M 12.408,45.789 C 6.657,33.394 16.305,13.161 25.469,1.824 12.392,8.356 1.365,35.1 1.365,44.868 c 0,9.684 10.811,13.418 23.716,14.247 C 19.867,56.53 15.453,52.353 12.408,45.789 z"
   id="path4706"
   inkscape:connector-curvature="0"
   style="fill:#424143" />
	<path
   d="m 14.544,44.986 c 0,-7.913 6.733,-7.766 15.915,-7.766 9.185,0 17.346,-0.147 17.346,7.766 0,7.924 -7.45,14.341 -16.631,14.341 -9.182,0 -16.63,-6.417 -16.63,-14.341 z"
   id="path4708"
   inkscape:connector-curvature="0"
   style="fill:#e7e6e6" />
	<path
   d="m 19.622,53.668 c 0,-5.497 4.673,-5.395 11.049,-5.395 6.383,0 12.05,-0.103 12.05,5.395 0,5.502 -5.176,9.959 -11.555,9.959 -6.373,0 -11.544,-4.457 -11.544,-9.959 z"
   id="path4710"
   inkscape:connector-curvature="0"
   style="fill:#d1d2d3" />
	<path
   d="m 19.625,50.05 c 0,-5.496 4.671,-3.383 11.053,-3.383 6.377,0 12.046,-2.113 12.046,3.383 0,5.503 -5.176,7.949 -11.551,7.949 -6.375,0 -11.548,-2.446 -11.548,-7.949 z"
   id="path4712"
   inkscape:connector-curvature="0"
   style="fill:#25333a" />
	<path
   d="m 28.522,24.3 c -0.387,-0.108 -0.778,-0.218 -1.17,-0.326 -0.057,-0.018 -0.09,-0.051 -0.143,-0.075 -0.057,-0.026 -0.112,-0.047 -0.165,-0.086 -0.086,-0.069 -0.155,-0.147 -0.208,-0.234 -0.014,-0.02 -0.03,-0.025 -0.042,-0.045 -2.056,-3.535 -5.57,-5.19 -9.598,-4.359 -2.152,0.444 -2.238,1.345 -4.261,0.782 -0.823,-0.23 -0.864,-1.276 -0.208,-1.71 6.028,-3.994 13.767,-1.838 16.859,4.697 0.34,0.71 -0.237,1.586 -1.064,1.356 z"
   id="path4714"
   inkscape:connector-curvature="0"
   style="fill:#25333a" />
	<path
   d="m 26.95,26.288 c -0.829,-0.324 -1.665,-0.625 -2.505,-0.913 0.438,0.777 0.697,1.72 0.697,2.733 0,2.687 -1.798,4.864 -4.013,4.864 -2.217,0 -4.012,-2.178 -4.012,-4.864 0,-1.869 0.876,-3.471 2.15,-4.284 -1.25,-0.322 -2.511,-0.625 -3.784,-0.876 -0.528,1.363 -0.848,2.924 -0.848,4.612 0,5.131 2.772,9.288 6.199,9.288 3.425,0 6.203,-4.157 6.203,-9.288 -10e-4,-0.436 -0.054,-0.852 -0.087,-1.272 z"
   id="path4716"
   inkscape:connector-curvature="0"
   style="fill:#ffffff" />
	<path
   d="m 17.116,28.107 c 0,2.687 1.795,4.864 4.012,4.864 2.215,0 4.013,-2.178 4.013,-4.864 0,-1.013 -0.259,-1.956 -0.697,-2.733 -1.701,-0.589 -3.431,-1.102 -5.178,-1.551 -1.274,0.813 -2.15,2.415 -2.15,4.284 z"
   id="path4718"
   inkscape:connector-curvature="0"
   style="fill:#25333a" />
	<path
   d="m 34.813,24.3 c 0.389,-0.108 0.775,-0.218 1.168,-0.326 0.058,-0.018 0.095,-0.051 0.144,-0.075 0.062,-0.026 0.118,-0.047 0.171,-0.086 0.087,-0.069 0.153,-0.147 0.206,-0.234 0.012,-0.02 0.027,-0.025 0.041,-0.045 2.051,-3.535 5.571,-5.19 9.597,-4.359 2.151,0.444 2.242,1.345 4.261,0.782 0.826,-0.23 0.867,-1.276 0.21,-1.71 -6.028,-3.994 -13.765,-1.838 -16.859,4.697 -0.343,0.71 0.233,1.586 1.061,1.356 z"
   id="path4720"
   inkscape:connector-curvature="0"
   style="fill:#25333a" />
	<g
   id="g4722">
		<path
   d="m 47.71,23.244 c -1.201,0.239 -2.396,0.518 -3.573,0.821 1.319,0.795 2.236,2.431 2.236,4.341 0,2.686 -1.795,4.861 -4.014,4.861 -2.217,0 -4.01,-2.175 -4.01,-4.861 0,-1.078 0.297,-2.066 0.788,-2.873 -0.973,0.33 -1.94,0.68 -2.891,1.053 -0.039,0.42 -0.089,0.836 -0.089,1.271 0,5.133 2.778,9.287 6.205,9.287 3.419,0 6.197,-4.154 6.197,-9.287 0.002,-1.688 -0.321,-3.251 -0.849,-4.613 z"
   id="path4724"
   inkscape:connector-curvature="0"
   style="fill:#ffffff" />
		<path
   d="m 42.359,33.268 c 2.219,0 4.014,-2.175 4.014,-4.861 0,-1.911 -0.917,-3.546 -2.236,-4.341 -1.687,0.43 -3.358,0.913 -4.999,1.468 -0.491,0.807 -0.788,1.795 -0.788,2.873 0,2.685 1.793,4.861 4.009,4.861 z"
   id="path4726"
   inkscape:connector-curvature="0"
   style="fill:#25333a" />
	</g>
	<ellipse
   cx="21.124001"
   cy="26.677999"
   rx="1.178"
   ry="2.6129999"
   id="ellipse4728"
   d="m 22.302001,26.677999 c 0,1.443121 -0.527409,2.613 -1.178,2.613 -0.650592,0 -1.178,-1.169879 -1.178,-2.613 0,-1.44312 0.527408,-2.612999 1.178,-2.612999 0.650591,0 1.178,1.169879 1.178,2.612999 z"
   sodipodi:cx="21.124001"
   sodipodi:cy="26.677999"
   sodipodi:rx="1.178"
   sodipodi:ry="2.6129999"
   style="fill:#ffffff" />
	<ellipse
   cx="42.641998"
   cy="26.677999"
   rx="1.176"
   ry="2.6129999"
   id="ellipse4730"
   d="m 43.817998,26.677999 c 0,1.443121 -0.526513,2.613 -1.176,2.613 -0.649487,0 -1.176,-1.169879 -1.176,-2.613 0,-1.44312 0.526513,-2.612999 1.176,-2.612999 0.649487,0 1.176,1.169879 1.176,2.612999 z"
   sodipodi:cx="42.641998"
   sodipodi:cy="26.677999"
   sodipodi:rx="1.176"
   sodipodi:ry="2.6129999"
   style="fill:#ffffff" />
</g>
</svg>