<?xml version="1.0" encoding="utf-8"?>
<!-- Generator: Adobe Illustrator 16.0.0, SVG Export Plug-In . SVG Version: 6.00 Build 0)  -->
<!DOCTYPE svg PUBLIC "-//W3C//DTD SVG 1.1//EN" "http://www.w3.org/Graphics/SVG/1.1/DTD/svg11.dtd">
<svg version="1.1"
	 id="Layer_1" xmlns:dc="http://purl.org/dc/elements/1.1/" xmlns:cc="http://creativecommons.org/ns#" xmlns:rdf="http://www.w3.org/1999/02/22-rdf-syntax-ns#" xmlns:svg="http://www.w3.org/2000/svg" xmlns:sodipodi="http://sodipodi.sourceforge.net/DTD/sodipodi-0.dtd" xmlns:inkscape="http://www.inkscape.org/namespaces/inkscape" inkscape:export-ydpi="90" inkscape:export-xdpi="90" inkscape:export-filename="D:\TESTINGEMOJI\SVGTEST\1F48C.png" sodipodi:docname="1F48C.svg" inkscape:version="0.48.5 r10040"
	 xmlns="http://www.w3.org/2000/svg" xmlns:xlink="http://www.w3.org/1999/xlink" x="0px" y="0px" width="64px" height="64px"
	 viewBox="0 0 64 64" enable-background="new 0 0 64 64" xml:space="preserve">
<sodipodi:namedview  id="namedview5454" inkscape:cy="32" inkscape:cx="32" inkscape:zoom="3.6875" showgrid="false" guidetolerance="10" gridtolerance="10" objecttolerance="10" bordercolor="#666666" pagecolor="#ffffff" borderopacity="1" inkscape:current-layer="Layer_1" inkscape:window-maximized="0" inkscape:window-y="342" inkscape:window-x="810" inkscape:window-height="480" inkscape:window-width="640" inkscape:pageshadow="2" inkscape:pageopacity="0">
	</sodipodi:namedview>
<path id="path5440" inkscape:connector-curvature="0" fill="#E7E5E5" d="M64.096,48.486c0,5.718-4.636,10.355-10.354,10.355H10.355
	C4.635,58.843,0,54.204,0,48.486V14.357C0,8.639,4.635,4,10.355,4H53.74c5.72,0,10.354,4.639,10.354,10.357v34.129H64.096z"/>
<path id="path5442" inkscape:connector-curvature="0" fill="#BFBEBE" d="M21.572,31.619c6.583-6.768,3.659-3.844,10.355-10.357
	h0.235c5.102,4.955,4.318,4.563,10.359,10.357l21.571,16.867c0,5.719-4.635,10.356-10.354,10.356H10.355
	C4.635,58.843,0,54.204,0,48.486L21.572,31.619z"/>
<path id="path5444" inkscape:connector-curvature="0" fill="#E7E5E5" d="M22.851,33.328c5.779-5.779,3.213-3.28,9.093-8.845h0.206
	c4.476,4.231,3.79,3.899,9.094,8.845L60.188,47.73c0,4.888-4.071,8.846-9.094,8.846H13c-5.026,0-9.093-3.958-9.093-8.846
	L22.851,33.328z"/>
<path id="path5446" inkscape:connector-curvature="0" fill="#B4B4B5" d="M20.567,34.323c0.193,0.065,11.478,7.647,11.478,7.647
	l11.633-7.647l-2.244-1.929l-5.006,3.983l-4.303,2.57l-1.477-0.299l-5.909-4.582l-3.016-2.118L20.567,34.323z"/>
<path id="path5448" inkscape:connector-curvature="0" fill="#B2B2B2" d="M64.096,14.357C64.096,8.639,59.46,4,53.74,4H10.355
	C4.635,4,0,8.639,0,14.357l31.217,26.529c0.227,0.224,0.458,0.445,0.711,0.693h0.235c0.324-0.312,0.618-0.597,0.896-0.87
	L64.096,14.357z"/>
<path id="path5450" inkscape:connector-curvature="0" fill="#F3F1F2" d="M60.229,14.708c0-5.03-4.074-9.108-9.104-9.108H12.967
	c-5.031,0-9.106,4.078-9.106,9.108l27.457,23.331c0.198,0.195,0.404,0.391,0.626,0.609h0.206c0.282-0.275,0.543-0.525,0.788-0.766
	L60.229,14.708z"/>
<path fill="#D13852" d="M29.015,45.638c0.596,0.521,1.12,0.961,1.642,1.396c0.325,0.27,0.647,0.538,0.975,0.803
	c0.306-0.254,0.637-0.524,0.967-0.801c0.526-0.438,1.046-0.877,1.562-1.319c6.735-6.22,14.287-13.186,14.39-21.834
	c-0.026-0.68-0.142-1.442-0.339-2.191c-0.201-0.772-0.491-1.541-0.862-2.275c-0.951-1.743-3.306-3.193-5.709-3.486
	c-4.557-0.554-6.716,1.942-8.863,5.029l-1.148,1.644l-1.147-1.644c-1.947-2.794-3.865-5.105-7.632-5.105
	c-0.392,0-0.802,0.025-1.233,0.076c-2.401,0.292-4.759,1.743-5.731,3.527c-0.35,0.696-0.64,1.462-0.841,2.234
	c-0.195,0.746-0.31,1.508-0.342,2.265C14.812,32.531,22.358,39.494,29.015,45.638z"/>
</svg>
