<?xml version="1.0" encoding="utf-8"?>
<!-- Generator: Adobe Illustrator 16.0.0, SVG Export Plug-In . SVG Version: 6.00 Build 0)  -->
<!DOCTYPE svg PUBLIC "-//W3C//DTD SVG 1.1//EN" "http://www.w3.org/Graphics/SVG/1.1/DTD/svg11.dtd">
<svg version="1.1"
	 id="Layer_1" inkscape:version="0.48.5 r10040" sodipodi:docname="1F4C6.svg" inkscape:export-filename="D:\TESTINGEMOJI\SVGTEST\1F4C6.png" inkscape:export-xdpi="90" inkscape:export-ydpi="90" xmlns:svg="http://www.w3.org/2000/svg" xmlns:sodipodi="http://sodipodi.sourceforge.net/DTD/sodipodi-0.dtd" xmlns:cc="http://creativecommons.org/ns#" xmlns:dc="http://purl.org/dc/elements/1.1/" xmlns:inkscape="http://www.inkscape.org/namespaces/inkscape" xmlns:rdf="http://www.w3.org/1999/02/22-rdf-syntax-ns#"
	 xmlns="http://www.w3.org/2000/svg" xmlns:xlink="http://www.w3.org/1999/xlink" x="0px" y="0px" width="64px" height="64px"
	 viewBox="0 0 64 64" enable-background="new 0 0 64 64" xml:space="preserve">
<g>
	<path fill="#E0E0E0" d="M62.554,55.756c0,4.047-3.555,7.329-7.946,7.329H9.167c-4.39,0-7.95-3.282-7.95-7.329V20.921
		c0-4.042,3.56-7.328,7.95-7.328h45.441c4.392,0,7.946,3.286,7.946,7.328V55.756z"/>
	<path fill="#D6D7D6" d="M16.921,55.756V20.921c0-4.042,3.557-7.328,7.946-7.328h-15.7c-4.39,0-7.95,3.286-7.95,7.328v34.834
		c0,4.047,3.56,7.329,7.95,7.329h15.7C20.478,63.085,16.921,59.803,16.921,55.756z"/>
	<path fill="#BE1E2D" d="M62.554,23.919c0,1.675-3.555,3.034-7.946,3.034H9.167c-4.39,0-7.95-1.359-7.95-3.034V9.483
		c0-1.676,3.56-3.034,7.95-3.034h45.441c4.392,0,7.946,1.358,7.946,3.034V23.919z"/>
	<path fill="#25333A" d="M30.087,56.87V38.378c-3.377,2.643-5.649,3.963-6.82,3.963c-0.558,0-1.049-0.228-1.484-0.683
		c-0.432-0.452-0.642-0.979-0.642-1.576c0-0.691,0.207-1.199,0.634-1.524c0.423-0.324,1.174-0.742,2.252-1.263
		c1.608-0.768,2.891-1.579,3.854-2.432c0.965-0.854,1.816-1.813,2.562-2.865c0.743-1.059,1.225-1.71,1.454-1.957
		c0.223-0.242,0.65-0.361,1.273-0.361c0.709,0,1.27,0.276,1.697,0.831c0.423,0.556,0.64,1.318,0.64,2.296v23.271
		c0,2.724-0.912,4.087-2.735,4.087c-0.807,0-1.458-0.281-1.949-0.831C30.327,58.777,30.087,57.955,30.087,56.87z"/>
	<path fill="#D0D2D3" d="M22.997,14.073c0,2.551-2.028,4.612-4.521,4.612l0,0c-2.5,0-4.522-2.061-4.522-4.612V4.851
		c0-2.551,2.023-4.614,4.522-4.614l0,0c2.493,0,4.521,2.063,4.521,4.614V14.073z"/>
	<path fill="#D0D2D3" d="M50.152,14.073c0,2.551-2.021,4.612-4.52,4.612l0,0c-2.496,0-4.521-2.061-4.521-4.612V4.851
		c0-2.551,2.025-4.614,4.521-4.614l0,0c2.499,0,4.52,2.063,4.52,4.614V14.073z"/>
</g>
<sodipodi:namedview  id="namedview34837" inkscape:window-width="640" inkscape:window-height="637" inkscape:current-layer="Layer_1" inkscape:window-x="727" inkscape:pageshadow="2" inkscape:window-y="177" inkscape:pageopacity="0" inkscape:window-maximized="0" showgrid="false" borderopacity="1" objecttolerance="10" bordercolor="#666666" inkscape:zoom="7.03125" guidetolerance="10" inkscape:cy="32" inkscape:cx="32" pagecolor="#ffffff" gridtolerance="10">
	</sodipodi:namedview>
</svg>
