<?xml version="1.0" encoding="UTF-8" standalone="no"?>
<!-- Generator: Adobe Illustrator 16.0.0, SVG Export Plug-In . SVG Version: 6.00 Build 0)  -->

<svg
   xmlns:dc="http://purl.org/dc/elements/1.1/"
   xmlns:cc="http://creativecommons.org/ns#"
   xmlns:rdf="http://www.w3.org/1999/02/22-rdf-syntax-ns#"
   xmlns:svg="http://www.w3.org/2000/svg"
   xmlns="http://www.w3.org/2000/svg"
   xmlns:sodipodi="http://sodipodi.sourceforge.net/DTD/sodipodi-0.dtd"
   xmlns:inkscape="http://www.inkscape.org/namespaces/inkscape"
   version="1.1"
   id="Layer_1"
   x="0px"
   y="0px"
   width="64px"
   height="64px"
   viewBox="0 0 64 64"
   enable-background="new 0 0 64 64"
   xml:space="preserve"
   inkscape:version="0.48.5 r10040"
   sodipodi:docname="1F604.svg"
   inkscape:export-filename="D:\TESTINGEMOJI\SVGTEST\1F604.png"
   inkscape:export-xdpi="90"
   inkscape:export-ydpi="90"><metadata
   id="metadata3716"><rdf:RDF><cc:Work
       rdf:about=""><dc:format>image/svg+xml</dc:format><dc:type
         rdf:resource="http://purl.org/dc/dcmitype/StillImage" /><dc:title></dc:title></cc:Work></rdf:RDF></metadata><defs
   id="defs3714" /><sodipodi:namedview
   pagecolor="#ffffff"
   bordercolor="#666666"
   borderopacity="1"
   objecttolerance="10"
   gridtolerance="10"
   guidetolerance="10"
   inkscape:pageopacity="0"
   inkscape:pageshadow="2"
   inkscape:window-width="640"
   inkscape:window-height="480"
   id="namedview3712"
   showgrid="false"
   inkscape:zoom="3.6875"
   inkscape:cx="32"
   inkscape:cy="32"
   inkscape:window-x="791"
   inkscape:window-y="327"
   inkscape:window-maximized="0"
   inkscape:current-layer="Layer_1" />
<g
   id="g3680">
	<g
   id="g3682">
		<g
   id="g3684">
			<ellipse
   fill="#FBB041"
   cx="32"
   cy="31.96"
   rx="32"
   ry="31.961"
   id="ellipse3686" />
		</g>
	</g>
	<g
   opacity="0.9866"
   id="g3688">
		<g
   id="g3690">
			<g
   id="g3692">
				<path
   fill="#E79D3C"
   d="M15.229,41.201C9.56,29.051,9.305,15.97,14.43,5.158C5.743,10.872,0,20.688,0,31.857      c0,17.655,14.327,31.961,32,31.961c0.313,0,0.623-0.04,0.936-0.05C25.601,57.604,19.418,50.18,15.229,41.201z"
   id="path3694" />
			</g>
		</g>
	</g>
	<g
   id="g3696">
		<g
   id="g3698">
			<path
   fill="#633D19"
   d="M52.105,39.348c0,10.996-8.932,19.921-19.947,19.921c-11.006,0-19.941-8.925-19.941-19.921"
   id="path3700" />
		</g>
	</g>
	<path
   fill="#633D19"
   d="M29.393,25.152c-1.371-3.738-4.481-7.317-8.775-7.232c-4.005,0.076-6.419,4.308-7.725,7.512   c-0.814,2,2.428,2.861,3.234,0.89c0.838-2.057,2.073-4.329,4.339-5.018c2.594-0.794,4.968,2.764,5.692,4.739   C26.895,28.055,30.136,27.187,29.393,25.152z"
   id="path3702" />
	<path
   fill="#633D19"
   d="M35.215,25.117c1.371-3.739,4.479-7.316,8.774-7.234c4.005,0.078,6.417,4.309,7.723,7.512   c0.817,2.003-2.428,2.863-3.232,0.892c-0.838-2.059-2.075-4.329-4.338-5.019c-2.597-0.792-4.971,2.767-5.693,4.741   C37.711,28.015,34.47,27.147,35.215,25.117z"
   id="path3704" />
	<g
   id="g3706">
		<g
   id="g3708">
			<path
   fill="#FFFFFF"
   d="M48.688,41.35c0,4.392-7.553,7.958-16.863,7.958c-9.303,0-16.858-3.566-16.858-7.958"
   id="path3710" />
		</g>
	</g>
</g>
</svg>