<?xml version="1.0" encoding="utf-8"?>
<!-- Generator: Adobe Illustrator 16.0.0, SVG Export Plug-In . SVG Version: 6.00 Build 0)  -->
<!DOCTYPE svg PUBLIC "-//W3C//DTD SVG 1.1//EN" "http://www.w3.org/Graphics/SVG/1.1/DTD/svg11.dtd">
<svg version="1.1"
	 id="Layer_1" xmlns:dc="http://purl.org/dc/elements/1.1/" xmlns:cc="http://creativecommons.org/ns#" xmlns:rdf="http://www.w3.org/1999/02/22-rdf-syntax-ns#" xmlns:svg="http://www.w3.org/2000/svg" xmlns:sodipodi="http://sodipodi.sourceforge.net/DTD/sodipodi-0.dtd" xmlns:inkscape="http://www.inkscape.org/namespaces/inkscape" inkscape:export-ydpi="90" inkscape:export-xdpi="90" inkscape:export-filename="D:\TESTINGEMOJI\SVGTEST\1F64F.png" sodipodi:docname="1F64F.svg" inkscape:version="0.48.5 r10040"
	 xmlns="http://www.w3.org/2000/svg" xmlns:xlink="http://www.w3.org/1999/xlink" x="0px" y="0px" width="64px" height="64px"
	 viewBox="0 0 64 64" enable-background="new 0 0 64 64" xml:space="preserve">
<sodipodi:namedview  id="namedview3191" inkscape:cy="32" inkscape:cx="32" inkscape:zoom="3.6875" showgrid="false" guidetolerance="10" gridtolerance="10" objecttolerance="10" bordercolor="#666666" pagecolor="#ffffff" borderopacity="1" inkscape:current-layer="Layer_1" inkscape:window-maximized="0" inkscape:window-y="0" inkscape:window-x="0" inkscape:window-height="480" inkscape:window-width="640" inkscape:pageshadow="2" inkscape:pageopacity="0">
	</sodipodi:namedview>
<path fill="#C18E6B" d="M48.941,49.108c0,5.063-14.181,9.168-16.898,9.168c-2.722,0-16.904-4.104-16.904-9.168
	c0-5.063,14.182-9.167,16.904-9.167C34.761,39.941,48.941,44.046,48.941,49.108z"/>
<path fill="#C18E6B" d="M37.213,15.614c0,5.063-2.206,9.167-4.925,9.167c-2.722,0-4.928-4.104-4.928-9.167
	c0-5.063,2.206-9.167,4.928-9.167C33.764,6.446,37.213,10.552,37.213,15.614z"/>
<path fill="#DE6498" d="M35.662,62.318c0.354,0.241,0.725,0.448,1.099,0.658c-0.02,0.52,0.292,1.037,0.959,1.037h24.915
	c0.521,0,0.838-0.32,0.963-0.705c0.245-0.156,0.432-0.406,0.432-0.796V57.22c0-0.171-0.039-0.319-0.101-0.452
	c-0.074-0.304-0.258-0.584-0.62-0.729c-5.52-2.211-9.873-5.62-14.224-9.607c-0.409-0.382-1.013-0.466-1.446-0.065
	c-4.895,4.49-11.061,7.767-12.401,14.786C35.151,61.608,35.249,62.05,35.662,62.318z"/>
<path fill="#DDA37C" d="M38.109,24.463c0.807-1.756,3.91-3.582,4.374-0.988c1.067,5.969,1.569,13.114,0.795,19.179
	c-0.27,2.108-2.736,1.481-3.111,1.288C35.338,41.521,37.307,26.219,38.109,24.463z"/>
<path fill="#EFB086" d="M33.148,47.223c-0.005-0.062-0.031-1.781,0-1.832l-1.492-1.953V33.217V18.073l1.492-7.352
	c0.175-2.169-0.183-5.068,2.892-1.301c0.826,1.007,2.826,11.058,3.629,14.168c1.96,7.589,5.604,13.083,7.086,21.89
	c0.515,6.296-4.549,16.956-9.702,12.065C35.233,55.824,33.522,54.671,33.148,47.223z"/>
<path fill="#DE6498" d="M28.846,61.152c-1.345-7.02-7.509-10.296-12.405-14.786c-0.433-0.4-1.035-0.316-1.444,0.065
	c-4.352,3.987-8.704,7.396-14.225,9.607c-0.361,0.145-0.546,0.425-0.62,0.729C0.09,56.9,0.051,57.049,0.051,57.22v5.293
	c0,0.39,0.187,0.64,0.435,0.796c0.123,0.385,0.438,0.705,0.96,0.705h24.917c0.667,0,0.978-0.518,0.955-1.037
	c0.375-0.21,0.749-0.417,1.1-0.658C28.832,62.05,28.932,61.608,28.846,61.152z"/>
<path fill="#DDA37C" d="M25.969,24.463c-0.805-1.756-3.907-3.582-4.371-0.988c-1.068,5.969-1.571,13.114-0.796,19.179
	c0.269,2.108,2.739,1.481,3.113,1.288C28.745,41.521,26.776,26.219,25.969,24.463z"/>
<g>
	<path fill="#E2C961" d="M16.008,14.705c-0.218,0.69-3.379,0.316-7.059-0.836c-3.679-1.151-6.49-2.643-6.275-3.334
		c0.214-0.691,3.375-0.315,7.055,0.836C13.413,12.523,16.223,14.014,16.008,14.705z"/>
	<path fill="#E2C961" d="M19.197,10.467c-0.519,0.506-2.709-0.881-4.896-3.103c-2.19-2.22-3.547-4.428-3.032-4.938
		c0.514-0.509,2.709,0.881,4.896,3.101C18.351,7.748,19.711,9.956,19.197,10.467z"/>
	<path fill="#E2C961" d="M17.521,18.108c-0.406-0.603-2.83,0.317-5.422,2.052c-2.588,1.735-4.361,3.625-3.964,4.229
		c0.406,0.601,2.834-0.319,5.422-2.054C16.147,20.601,17.922,18.71,17.521,18.108z"/>
</g>
<g>
	
		<ellipse transform="matrix(-0.9544 0.2985 -0.2985 -0.9544 109.8193 8.7649)" fill="#E2C961" cx="54.24" cy="12.77" rx="6.986" ry="1.309"/>
	<path fill="#E2C961" d="M44.381,10.617c0.519,0.506,2.709-0.881,4.899-3.103c2.187-2.22,3.547-4.428,3.033-4.938
		c-0.52-0.508-2.709,0.881-4.896,3.101C45.228,7.898,43.87,10.106,44.381,10.617z"/>
	<path fill="#E2C961" d="M46.058,18.258c0.404-0.603,2.829,0.317,5.422,2.052c2.592,1.734,4.364,3.625,3.964,4.229
		c-0.402,0.6-2.83-0.32-5.418-2.054C47.434,20.751,45.659,18.86,46.058,18.258z"/>
</g>
<path fill="#EFB086" d="M30.736,47.245c0.004-0.06,0.031-1.78,0-1.832l1.551-6.226L32.075,32.5L32,20.813l-1.264-10.067
	c-0.173-2.169,0.183-5.069-2.892-1.301c-0.825,1.007-2.826,11.058-3.627,14.168c-1.962,7.588-5.605,13.083-7.088,21.89
	c-0.515,6.297,4.549,16.957,9.704,12.064C28.65,55.848,30.364,54.694,30.736,47.245z"/>
<rect x="30.753" y="8.095" fill="#C18E6B" width="2.644" height="46.935"/>
</svg>
