<?xml version="1.0" encoding="UTF-8" standalone="no"?>
<!-- Generator: Adobe Illustrator 16.0.0, SVG Export Plug-In . SVG Version: 6.00 Build 0)  -->

<svg
   xmlns:dc="http://purl.org/dc/elements/1.1/"
   xmlns:cc="http://creativecommons.org/ns#"
   xmlns:rdf="http://www.w3.org/1999/02/22-rdf-syntax-ns#"
   xmlns:svg="http://www.w3.org/2000/svg"
   xmlns="http://www.w3.org/2000/svg"
   xmlns:sodipodi="http://sodipodi.sourceforge.net/DTD/sodipodi-0.dtd"
   xmlns:inkscape="http://www.inkscape.org/namespaces/inkscape"
   version="1.1"
   id="Layer_1"
   x="0px"
   y="0px"
   width="64px"
   height="64px"
   viewBox="0 0 64 64"
   enable-background="new 0 0 64 64"
   xml:space="preserve"
   inkscape:version="0.48.5 r10040"
   sodipodi:docname="1F68D.svg"
   inkscape:export-filename="D:\TESTINGEMOJI\SVGTEST\1F68D.png"
   inkscape:export-xdpi="90"
   inkscape:export-ydpi="90"><metadata
   id="metadata3529"><rdf:RDF><cc:Work
       rdf:about=""><dc:format>image/svg+xml</dc:format><dc:type
         rdf:resource="http://purl.org/dc/dcmitype/StillImage" /><dc:title></dc:title></cc:Work></rdf:RDF></metadata><defs
   id="defs3527" /><sodipodi:namedview
   pagecolor="#ffffff"
   bordercolor="#666666"
   borderopacity="1"
   objecttolerance="10"
   gridtolerance="10"
   guidetolerance="10"
   inkscape:pageopacity="0"
   inkscape:pageshadow="2"
   inkscape:window-width="640"
   inkscape:window-height="480"
   id="namedview3525"
   showgrid="false"
   inkscape:zoom="3.6875"
   inkscape:cx="32"
   inkscape:cy="32"
   inkscape:window-x="462"
   inkscape:window-y="310"
   inkscape:window-maximized="0"
   inkscape:current-layer="Layer_1" />
<g
   id="g3455">
	<path
   fill="#CCCCCC"
   d="M60.614,22.508c-1.39,0-2.52,1.128-2.52,2.523v0.973h-3.019c-0.871,0-1.575,0.284-1.575,0.63   c0,0.351,0.704,0.628,1.575,0.628h3.019v3.293h-3.019c-0.871,0-1.575,0.283-1.575,0.632c0,0.35,0.704,0.628,1.575,0.628h3.019   v0.831c0,1.396,1.13,2.522,2.52,2.522c1.394,0,2.522-1.126,2.522-2.522v-7.616C63.137,23.636,62.008,22.508,60.614,22.508z"
   id="path3457" />
</g>
<g
   id="g3459">
	<path
   fill="#CCCCCC"
   d="M3.387,22.508c1.39,0,2.52,1.128,2.52,2.523v0.973h3.018c0.871,0,1.575,0.284,1.575,0.63   c0,0.351-0.704,0.628-1.575,0.628H5.907v3.293h3.018c0.871,0,1.575,0.283,1.575,0.632c0,0.35-0.704,0.628-1.575,0.628H5.907v0.831   c0,1.396-1.13,2.522-2.52,2.522c-1.394,0-2.523-1.126-2.523-2.522v-7.616C0.864,23.636,1.993,22.508,3.387,22.508z"
   id="path3461" />
</g>
<g
   id="g3463">
	<polygon
   fill="#CCCCCC"
   points="49.204,12.85 14.057,12.85 17.885,0.462 45.371,0.462  "
   id="polygon3465" />
</g>
<g
   id="g3467">
	<path
   fill="#1C282B"
   d="M56.459,59.053c0,2.637-2.139,4.771-4.772,4.771l0,0c-2.638,0-4.774-2.135-4.774-4.771v-7.927   c0-2.636,2.137-4.772,4.774-4.772l0,0c2.634,0,4.772,2.137,4.772,4.772V59.053z"
   id="path3469" />
</g>
<g
   id="g3471">
	<path
   fill="#1C282B"
   d="M17.463,59.054c0,2.635-2.137,4.772-4.774,4.772l0,0c-2.638,0-4.771-2.138-4.771-4.772v-7.93   c0-2.638,2.132-4.772,4.771-4.772l0,0c2.637,0,4.774,2.135,4.774,4.772V59.054z"
   id="path3473" />
</g>
<g
   id="g3475">
	<path
   fill="#CEBA35"
   d="M8.112,5.437c0,10.002,0,19.997,0,30.006c0,6.354,0,12.722,0,19.081c0,0.414,0.328,0.744,0.729,0.744   c9.883,0,19.769,0,29.662,0c5.658,0,11.318,0,16.975,0c0.393,0,0.725-0.33,0.725-0.744c0-9.997,0-19.999,0-30.005   c0-6.363,0-12.73,0-19.082c0-0.218-0.076-0.389-0.193-0.506c0-0.017-0.018-0.017-0.023-0.027l-0.022-0.012   c-0.104-0.111-0.274-0.203-0.485-0.203c-9.893,0-19.776,0-29.667,0c-5.657,0-11.316,0-16.969,0C8.44,4.689,8.112,5.027,8.112,5.437   z"
   id="path3477" />
</g>
<g
   id="g3479">
	<path
   fill="#BCA73C"
   d="M8.162,4.897c-0.14,0.137-0.231,49.626-0.231,49.626c0,0.414,0.328,0.744,0.728,0.744h46.633   c0.396,0,0.728-0.33,0.728-0.744v-0.365C47.886,51.537,14.467,19.289,8.162,4.897z"
   id="path3481" />
</g>
<g
   id="g3483">
	<g
   id="g3485">
		<path
   fill="#E4E4E4"
   d="M55.772,56.343c0,1.923-1.784,3.474-3.988,3.474H12.599c-2.209,0-3.991-1.551-3.991-3.474l0,0    c0-1.922,1.782-3.477,3.991-3.477h39.185C53.988,52.866,55.772,54.421,55.772,56.343L55.772,56.343z"
   id="path3487" />
	</g>
	<g
   id="g3489">
		<path
   fill="#D1D2D3"
   d="M9.134,54.646c-0.324,0.504-0.525,1.078-0.525,1.696c0,1.923,1.782,3.474,3.991,3.474h39.185    c1.547,0,2.871-0.771,3.534-1.893C41.894,58.425,21.261,59.264,9.134,54.646z"
   id="path3491" />
	</g>
</g>
<g
   id="g3493">
	<path
   fill="#099284"
   d="M11.828,16.366c0,4.553,0,9.099,0,13.657c0,2.891,0,5.782,0,8.681c0,0.184,0.283,0.339,0.617,0.339   c8.363,0,16.742,0,25.123,0c4.786,0,9.578,0,14.379,0c0.346,0,0.61-0.155,0.61-0.339c0-4.545,0-9.103,0-13.648   c0-2.903,0-5.791,0-8.689c0-0.095-0.058-0.179-0.149-0.23h-0.031c0-0.016-0.004-0.016-0.004-0.016   c-0.1-0.052-0.247-0.094-0.426-0.094c-8.379,0-16.754,0-25.135,0c-4.794,0-9.578,0-14.366,0   C12.11,16.025,11.828,16.183,11.828,16.366z"
   id="path3495" />
</g>
<g
   id="g3497">
	<path
   fill="#6CB5C6"
   d="M11.828,15.102c0,4.557,0,9.103,0,13.66c0,2.892,0,5.783,0,8.679c0,0.182,0.283,0.339,0.617,0.339   c8.363,0,16.742,0,25.123,0c4.786,0,9.578,0,14.379,0c0.346,0,0.61-0.157,0.61-0.339c0-4.543,0-9.1,0-13.649c0-2.9,0-5.787,0-8.689   c0-0.092-0.058-0.175-0.149-0.227h-0.031c0-0.018-0.004-0.018-0.004-0.018c-0.1-0.049-0.247-0.093-0.426-0.093   c-8.379,0-16.754,0-25.135,0c-4.794,0-9.578,0-14.366,0C12.11,14.763,11.828,14.918,11.828,15.102z"
   id="path3499" />
</g>
<g
   id="g3501">
	<path
   fill="#AAADAE"
   d="M22.188,46.104c0,1.05,0,2.1,0,3.15c0,0.669,0,1.336,0,2.004c0,0.043,0.135,0.079,0.296,0.079   c4.015,0,8.036,0,12.059,0c2.3,0,4.599,0,6.902,0c0.169,0,0.295-0.036,0.295-0.079c0-1.046,0-2.1,0-3.149c0-0.668,0-1.337,0-2.005   c0-0.023-0.03-0.043-0.072-0.052h-0.016c0-0.004,0-0.004,0-0.004c-0.05-0.012-0.119-0.021-0.207-0.021c-4.02,0-8.043,0-12.063,0   c-2.303,0-4.601,0-6.898,0C22.323,46.027,22.188,46.062,22.188,46.104z"
   id="path3503" />
</g>
<g
   id="g3505">
	<path
   fill="#62A7B1"
   d="M32.645,37.68c-6.935-3.84-16.472-9.372-20.84-16.725V37.44c0,0.182,0.282,0.339,0.617,0.339h20.415   C32.772,37.743,32.708,37.714,32.645,37.68z"
   id="path3507" />
</g>
<g
   id="g3509">
	<path
   fill="#F1F1F1"
   d="M19.773,47.835c0,1.936-1.429,3.503-3.195,3.503h-4.772c-1.768,0-3.198-1.567-3.198-3.503l0,0   c0-1.933,1.43-3.5,3.198-3.5h4.772C18.344,44.335,19.773,45.902,19.773,47.835L19.773,47.835z"
   id="path3511" />
</g>
<g
   id="g3513">
	<path
   fill="#F1F1F1"
   d="M55.318,47.835c0,1.936-1.43,3.503-3.195,3.503h-4.772c-1.766,0-3.197-1.567-3.197-3.503l0,0   c0-1.933,1.432-3.5,3.197-3.5h4.772C53.889,44.335,55.318,45.902,55.318,47.835L55.318,47.835z"
   id="path3515" />
</g>
<g
   id="g3517">
	<path
   fill="#CCCCCC"
   d="M7.553,4.627c0,2.034,0,4.066,0,6.103c0,1.292,0,2.589,0,3.881c0,0.083,0.337,0.151,0.746,0.151   c10.111,0,20.23,0,30.348,0c5.792,0,11.587,0,17.37,0c0.402,0,0.741-0.068,0.741-0.151c0-2.036,0-4.068,0-6.103   c0-1.295,0-2.591,0-3.881c0-0.046-0.075-0.082-0.197-0.105c0,0-0.019-0.001-0.022-0.004l-0.023-0.002   c-0.107-0.023-0.281-0.042-0.498-0.042c-10.121,0-20.235,0-30.351,0c-5.791,0-11.584,0-17.367,0   C7.891,4.474,7.553,4.544,7.553,4.627z"
   id="path3519" />
</g>
<g
   id="g3521">
	<path
   fill="#243438"
   d="M24.047,2.896c0,1.534,0,3.063,0,4.597c0,0.974,0,1.944,0,2.919c0,0.064,0.111,0.116,0.249,0.116   c3.34,0,6.695,0,10.046,0c1.916,0,3.833,0,5.75,0c0.139,0,0.248-0.052,0.248-0.116c0-1.528,0-3.061,0-4.592   c0-0.976,0-1.947,0-2.924c0-0.031-0.025-0.059-0.062-0.077h-0.01l-0.01-0.004c-0.036-0.018-0.096-0.032-0.167-0.032   c-3.349,0-6.701,0-10.052,0c-1.917,0-3.832,0-5.744,0C24.158,2.784,24.047,2.835,24.047,2.896z"
   id="path3523" />
</g>
</svg>