<?xml version="1.0" encoding="UTF-8" standalone="no"?>
<!-- Generator: Adobe Illustrator 16.0.0, SVG Export Plug-In . SVG Version: 6.00 Build 0)  -->

<svg
   xmlns:dc="http://purl.org/dc/elements/1.1/"
   xmlns:cc="http://creativecommons.org/ns#"
   xmlns:rdf="http://www.w3.org/1999/02/22-rdf-syntax-ns#"
   xmlns:svg="http://www.w3.org/2000/svg"
   xmlns="http://www.w3.org/2000/svg"
   xmlns:sodipodi="http://sodipodi.sourceforge.net/DTD/sodipodi-0.dtd"
   xmlns:inkscape="http://www.inkscape.org/namespaces/inkscape"
   version="1.1"
   id="Layer_1"
   x="0px"
   y="0px"
   width="64px"
   height="64px"
   viewBox="0 0 64 64"
   enable-background="new 0 0 64 64"
   xml:space="preserve"
   inkscape:version="0.48.5 r10040"
   sodipodi:docname="1F6C2.svg"
   inkscape:export-filename="D:\TESTINGEMOJI\SVGTEST\1F6C2.png"
   inkscape:export-xdpi="90"
   inkscape:export-ydpi="90"><metadata
   id="metadata7875"><rdf:RDF><cc:Work
       rdf:about=""><dc:format>image/svg+xml</dc:format><dc:type
         rdf:resource="http://purl.org/dc/dcmitype/StillImage" /><dc:title></dc:title></cc:Work></rdf:RDF></metadata><defs
   id="defs7873" /><sodipodi:namedview
   pagecolor="#ffffff"
   bordercolor="#666666"
   borderopacity="1"
   objecttolerance="10"
   gridtolerance="10"
   guidetolerance="10"
   inkscape:pageopacity="0"
   inkscape:pageshadow="2"
   inkscape:window-width="640"
   inkscape:window-height="480"
   id="namedview7871"
   showgrid="false"
   inkscape:zoom="3.6875"
   inkscape:cx="32"
   inkscape:cy="32"
   inkscape:window-x="341"
   inkscape:window-y="240"
   inkscape:window-maximized="0"
   inkscape:current-layer="Layer_1" />
<g
   id="g7847">
	<g
   id="g7849">
		<path
   fill="#1B75BB"
   d="M63.791,56.913c0,3.802-3.076,6.882-6.876,6.882H6.874C3.078,63.795,0,60.715,0,56.913V6.877    C0,3.08,3.078,0,6.874,0h50.042c3.8,0,6.876,3.08,6.876,6.877V56.913z"
   id="path7851" />
		<path
   fill="#0867A3"
   d="M0,48.574v8.339c0,3.802,3.078,6.882,6.874,6.882h50.042c3.8,0,6.876-3.08,6.876-6.882V6.877    C52.896,46.446,13.739,48.954,0,48.574z"
   id="path7853" />
	</g>
	<g
   id="g7855">
		<path
   fill-rule="evenodd"
   clip-rule="evenodd"
   fill="#FFFFFF"
   d="M42.018,25.608c-0.505,0.125-0.981,0.413-1.489,0.48    c-2.304,0.308-4.614,0.562-6.922,0.85c-0.206,0.032-0.48,0.133-0.576,0.302l-0.012,0.02c-0.192,0.043-0.371,0.135-0.465,0.375    c-0.729,1.891-1.926,3.5-2.755,5.339c-0.689,1.552-1.312,3.108-2.089,4.613c1.673,0.824,2.722,2.375,3.12,4.091    c0.333-0.059,0.678-0.102,1.054-0.102c0.192,0,0.36,0.039,0.549,0.055c0.148-0.298,0.297-0.59,0.458-0.878    c0.486-0.862,1.039-1.688,1.557-2.531c0.13,0.053,0.261,0.105,0.387,0.16c0.201,1.399,0.066,2.891,0.407,4.17    c0.317,0.208,0.604,0.445,0.866,0.705c0.884-2.896,1.685-5.897,2.802-8.766c1.176-3.018,2.728-5.867,4.205-8.979    C42.739,25.537,42.362,25.52,42.018,25.608z"
   id="path7857" />
		<path
   fill-rule="evenodd"
   clip-rule="evenodd"
   fill="#FFFFFF"
   d="M56.216,40.766l-6.172-15.312    c-0.083-0.079-0.023-0.222-0.126-0.298c-0.045-0.038-0.094-0.075-0.146-0.108c-0.648-0.417-1.256-0.566-1.787-0.274l-0.002-0.014    c0,0-0.035,0.037-0.047,0.051c-0.122,0.077-0.243,0.145-0.356,0.271c-0.52,0.592-0.973,1.254-1.407,1.928    c-2.574,3.486-6.962,10.718-7.019,19.449c-0.039,0.654-0.014,1.305,0.041,1.949c0,0,0,0.006,0,0.01    c0.004,0.063,0.006,0.126,0.014,0.188c0-0.012,0-0.02,0-0.02c0.02,0.212,0.035,0.427,0.055,0.635    c0.913-0.177,1.56-0.384,2.215-0.407c2.173-0.085,4.342-0.095,6.515-0.144c0.985-0.021,1.567-0.674,1.571-1.758    c0.012-1.891,0.002-3.781,0.002-5.674l1.571,3.045l-1.324,11.521c-0.078-1.074-0.2-1.799-0.165-2.513    c0.024-0.468-0.053-0.785-0.189-1.03l-0.066-0.643H37.444l-0.203,0.976l-0.016,0.002c-0.01,0.066-0.021,0.128-0.024,0.194    l-0.875,4.134l0.351-0.078c-0.006,0.029-0.006,0.051-0.01,0.078c6.088,0,12.287,0,18.434,0c0.294-1.902,0.594-3.707,0.845-5.514    c0.276-1.967,0.508-3.946,0.757-5.917C56.627,42.637,56.216,40.766,56.216,40.766z"
   id="path7859" />
	</g>
	<path
   fill-rule="evenodd"
   clip-rule="evenodd"
   fill="#FFFFFF"
   d="M43.382,13.414c-0.095,0-0.177,0.012-0.271,0.012l0.004-0.016   c-4.258-0.339-9.317,0.752-11.698,1.348c-0.11,0.008-0.218,0.016-0.329,0.025c-0.116,0.059-0.239,0.1-0.357,0.155   c-0.098,0.024-0.176,0.047-0.25,0.065h-0.002l-0.014,0.006c-0.259,0.072-0.416,0.118-0.416,0.118v0.059   c-4.364,1.811-2.21,2.824-0.529,3.262c0,0,0.018,0.012,0.024,0.014c0.043,0.02,0.088,0.012,0.133,0.027   c0.324,0.078,0.615,0.137,0.827,0.174c0.629,1.299,1.041,2.455,1.703,3.399c1.334,1.917,3.018,3.486,5.406,3.217   c1.164-0.133,2.387-0.723,3.378-1.434c1.227-0.886,2.214-2.232,2.35-3.868C43.509,17.87,43.382,15.73,43.382,13.414z"
   id="path7861" />
	<path
   fill-rule="evenodd"
   clip-rule="evenodd"
   fill="#FFFFFF"
   d="M29.673,5.771c0,0-4.275,2.153-3.252,4.959   c1.027,2.808,3.511,2.68,3.511,2.68s7.991-1.732,13.183-1.446l2.794-1.771c0,0,0.417-0.84-1.528-1.513   C44.381,8.68,35.934,4.381,29.673,5.771z"
   id="path7863" />
	<path
   fill-rule="evenodd"
   clip-rule="evenodd"
   fill="#1B75BB"
   d="M30.928,9.658c0,0.94-0.709,1.705-1.58,1.705l0,0   c-0.872,0-1.579-0.764-1.579-1.705l0,0c0-0.939,0.707-1.705,1.579-1.705l0,0C30.218,7.953,30.928,8.719,30.928,9.658L30.928,9.658z   "
   id="path7865" />
	<path
   fill-rule="evenodd"
   clip-rule="evenodd"
   fill="#FFFFFF"
   d="M31.942,39.099c0.955,1.25,0.717,3.031-0.529,3.985l0,0   c-1.25,0.948-3.029,0.715-3.985-0.533l-6.271-8.202c-0.952-1.246-0.711-3.031,0.535-3.981l0,0c1.246-0.956,3.031-0.717,3.983,0.529   L31.942,39.099z"
   id="path7867" />
	<path
   fill-rule="evenodd"
   clip-rule="evenodd"
   fill="#FFFFFF"
   d="M20.511,27.44c0.38,1.132-1.005,2.618-3.096,3.319l-2.653,0.889   c-2.089,0.7-4.089,0.349-4.467-0.784L6.552,19.714c-0.382-1.131,1.003-2.618,3.094-3.317l2.651-0.89   c2.093-0.7,4.091-0.353,4.473,0.778L20.511,27.44z"
   id="path7869" />
</g>
</svg>