<?xml version="1.0" encoding="UTF-8" standalone="no"?>
<!-- Generator: Adobe Illustrator 16.0.0, SVG Export Plug-In . SVG Version: 6.00 Build 0)  -->

<svg
   xmlns:dc="http://purl.org/dc/elements/1.1/"
   xmlns:cc="http://creativecommons.org/ns#"
   xmlns:rdf="http://www.w3.org/1999/02/22-rdf-syntax-ns#"
   xmlns:svg="http://www.w3.org/2000/svg"
   xmlns="http://www.w3.org/2000/svg"
   xmlns:sodipodi="http://sodipodi.sourceforge.net/DTD/sodipodi-0.dtd"
   xmlns:inkscape="http://www.inkscape.org/namespaces/inkscape"
   version="1.1"
   id="Layer_1"
   x="0px"
   y="0px"
   width="64px"
   height="64px"
   viewBox="0 0 64 64"
   enable-background="new 0 0 64 64"
   xml:space="preserve"
   inkscape:version="0.48.5 r10040"
   sodipodi:docname="2197.svg"
   inkscape:export-filename="D:\TESTINGEMOJI\SVGTEST\2197.png"
   inkscape:export-xdpi="90"
   inkscape:export-ydpi="90"><metadata
   id="metadata3749"><rdf:RDF><cc:Work
       rdf:about=""><dc:format>image/svg+xml</dc:format><dc:type
         rdf:resource="http://purl.org/dc/dcmitype/StillImage" /><dc:title></dc:title></cc:Work></rdf:RDF></metadata><defs
   id="defs3747" /><sodipodi:namedview
   pagecolor="#ffffff"
   bordercolor="#666666"
   borderopacity="1"
   objecttolerance="10"
   gridtolerance="10"
   guidetolerance="10"
   inkscape:pageopacity="0"
   inkscape:pageshadow="2"
   inkscape:window-width="640"
   inkscape:window-height="480"
   id="namedview3745"
   showgrid="false"
   inkscape:zoom="3.6875"
   inkscape:cx="32"
   inkscape:cy="32"
   inkscape:window-x="557"
   inkscape:window-y="171"
   inkscape:window-maximized="0"
   inkscape:current-layer="Layer_1" />
<g
   id="g3735">
	<g
   id="g3737">
		<path
   fill="#1B75BB"
   d="M63.915,57.025c0,3.809-3.082,6.895-6.887,6.895H6.886C3.083,63.92,0,60.834,0,57.025V6.891    C0,3.086,3.083,0,6.886,0h50.142c3.805,0,6.887,3.086,6.887,6.891V57.025z"
   id="path3739" />
		<path
   fill="#0867A3"
   d="M0,48.669v8.356c0,3.809,3.083,6.895,6.886,6.895h50.142c3.805,0,6.887-3.086,6.887-6.895V6.891    C53.003,46.537,13.767,49.05,0,48.669z"
   id="path3741" />
	</g>
	<path
   fill="#FFFFFF"
   d="M25.197,17.929l24.308-2.201L48.236,40.02c-1.924,1.712-4.559,1.971-6.066,0.52l-2.568-2.462L28.049,50.122   c-1.946,2.024-5.166,2.095-7.193,0.151l-4.759-4.57c-2.028-1.946-2.093-5.166-0.149-7.193l11.554-12.041l-2.566-2.46   C23.428,22.56,23.573,19.925,25.197,17.929L25.197,17.929z"
   id="path3743" />
</g>
</svg>