<?xml version="1.0" encoding="UTF-8" standalone="no"?>
<!-- Generator: Adobe Illustrator 16.0.0, SVG Export Plug-In . SVG Version: 6.00 Build 0)  -->

<svg
   xmlns:dc="http://purl.org/dc/elements/1.1/"
   xmlns:cc="http://creativecommons.org/ns#"
   xmlns:rdf="http://www.w3.org/1999/02/22-rdf-syntax-ns#"
   xmlns:svg="http://www.w3.org/2000/svg"
   xmlns="http://www.w3.org/2000/svg"
   xmlns:sodipodi="http://sodipodi.sourceforge.net/DTD/sodipodi-0.dtd"
   xmlns:inkscape="http://www.inkscape.org/namespaces/inkscape"
   version="1.1"
   id="Layer_1"
   x="0px"
   y="0px"
   width="64px"
   height="64px"
   viewBox="0 0 64 64"
   enable-background="new 0 0 64 64"
   xml:space="preserve"
   inkscape:version="0.48.5 r10040"
   sodipodi:docname="267F.svg"
   inkscape:export-filename="D:\TESTINGEMOJI\SVGTEST\267F.png"
   inkscape:export-xdpi="90"
   inkscape:export-ydpi="90"><metadata
   id="metadata3165"><rdf:RDF><cc:Work
       rdf:about=""><dc:format>image/svg+xml</dc:format><dc:type
         rdf:resource="http://purl.org/dc/dcmitype/StillImage" /><dc:title></dc:title></cc:Work></rdf:RDF></metadata><defs
   id="defs3163" /><sodipodi:namedview
   pagecolor="#ffffff"
   bordercolor="#666666"
   borderopacity="1"
   objecttolerance="10"
   gridtolerance="10"
   guidetolerance="10"
   inkscape:pageopacity="0"
   inkscape:pageshadow="2"
   inkscape:window-width="640"
   inkscape:window-height="480"
   id="namedview3161"
   showgrid="false"
   inkscape:zoom="3.6875"
   inkscape:cx="32"
   inkscape:cy="32"
   inkscape:window-x="604"
   inkscape:window-y="241"
   inkscape:window-maximized="0"
   inkscape:current-layer="Layer_1" />
<g
   id="g3139">
	<path
   fill="#1B75BB"
   d="M64.042,57.138c0,3.815-3.089,6.906-6.902,6.906H6.901C3.09,64.044,0,60.953,0,57.138V6.903   C0,3.092,3.09,0,6.901,0H57.14c3.813,0,6.902,3.092,6.902,6.903V57.138z"
   id="path3141" />
	<path
   fill="#0867A3"
   d="M0,48.521v8.372C0,60.71,3.09,63.8,6.901,63.8H57.14c3.813,0,6.902-3.09,6.902-6.906V6.659   C53.106,46.383,13.793,48.901,0,48.521z"
   id="path3143" />
	<path
   fill="#FFFFFF"
   d="M22.687,34.77c-7.353,0-13.339,5.985-13.339,13.343c0,7.353,5.986,13.339,13.339,13.339   c7.359,0,13.343-5.986,13.343-13.339C36.03,40.755,30.046,34.77,22.687,34.77z M22.687,56.734c-4.754,0-8.622-3.868-8.622-8.622   c0-4.759,3.868-8.626,8.622-8.626c4.758,0,8.626,3.867,8.626,8.626C31.313,52.866,27.445,56.734,22.687,56.734z"
   id="path3145" />
	<path
   fill="#FFFFFF"
   d="M50.665,44.227c-4.131,0-7.486,3.358-7.486,7.489c0,4.127,3.355,7.487,7.486,7.487   c4.13,0,7.487-3.36,7.487-7.487C58.152,47.585,54.795,44.227,50.665,44.227z M50.665,55.408c-2.037,0-3.693-1.656-3.693-3.692   c0-2.038,1.656-3.696,3.693-3.696c2.038,0,3.694,1.658,3.694,3.696C54.359,53.752,52.703,55.408,50.665,55.408z"
   id="path3147" />
	<path
   fill="#FFFFFF"
   d="M42.18,32.395c-1.444,0.565,2.809-0.798,4.087-0.761c-0.039-0.374-0.105-0.735-0.226-1.064   c0.096-0.409,0.112-0.84,0.002-1.273c-0.36-1.438-1.822-2.313-3.262-1.951l-7.325,1.845c0.377-4.81-1.578-11.927-2.601-12.035   l-10.168-1.082c-1.113-0.122-0.976,7.513-1.556,12.94c-0.128,1.192-0.203,2.331-0.236,3.399c0.372-0.097,0.744-0.183,1.125-0.248   c4.756-0.795,9.336,1.135,12.161,4.638c0.161-0.57-0.146,0.681,0,0l9.968-4.646C46.668,30.414,43.438,31.895,42.18,32.395z"
   id="path3149" />
	<circle
   fill="#FFFFFF"
   cx="25.097"
   cy="8.508"
   r="5.603"
   id="circle3151" />
	<path
   fill="#FFFFFF"
   d="M12.711,20.559c1.415-0.46,2.929,0.311,3.392,1.719l4.198,12.871c0.46,1.409-0.311,2.928-1.719,3.39l0,0   c-1.413,0.458-2.931-0.312-3.389-1.722l-4.2-12.869C10.53,22.538,11.301,21.019,12.711,20.559L12.711,20.559z"
   id="path3153" />
	<path
   fill="#FFFFFF"
   stroke="#1B75BB"
   stroke-width="0.5"
   stroke-miterlimit="10"
   d="M27.619,19.465   c1.432,0.397,2.27,1.876,1.876,3.307l-3.614,13.046c-0.395,1.429-1.876,2.269-3.307,1.875l0,0c-1.43-0.399-2.27-1.881-1.873-3.307   l3.612-13.048C24.707,19.907,26.188,19.067,27.619,19.465L27.619,19.465z"
   id="path3155" />
	<path
   fill="#FFFFFF"
   d="M42.095,27.825c1.088-1.005,2.787-0.94,3.797,0.149l9.187,9.938c1.011,1.09,0.946,2.792-0.144,3.799l0,0   c-1.094,1.007-2.794,0.942-3.801-0.147l-9.19-9.938C40.934,30.536,41.003,28.834,42.095,27.825L42.095,27.825z"
   id="path3157" />
	<path
   fill="#FFFFFF"
   d="M32.318,45.72c-0.124-1.479,1.422-2.816,3.451-2.983l18.517-1.535c2.026-0.167,3.774,0.897,3.898,2.375l0,0   c0.118,1.479-1.428,2.814-3.458,2.981l-18.511,1.535C34.185,48.262,32.438,47.197,32.318,45.72L32.318,45.72z"
   id="path3159" />
</g>
</svg>