<?xml version="1.0" encoding="UTF-8" standalone="no"?>
<!-- Generator: Adobe Illustrator 16.0.0, SVG Export Plug-In . SVG Version: 6.00 Build 0)  -->

<svg
   xmlns:dc="http://purl.org/dc/elements/1.1/"
   xmlns:cc="http://creativecommons.org/ns#"
   xmlns:rdf="http://www.w3.org/1999/02/22-rdf-syntax-ns#"
   xmlns:svg="http://www.w3.org/2000/svg"
   xmlns="http://www.w3.org/2000/svg"
   xmlns:sodipodi="http://sodipodi.sourceforge.net/DTD/sodipodi-0.dtd"
   xmlns:inkscape="http://www.inkscape.org/namespaces/inkscape"
   version="1.1"
   id="Layer_1"
   x="0px"
   y="0px"
   width="64px"
   height="64px"
   viewBox="0 0 64 64"
   enable-background="new 0 0 64 64"
   xml:space="preserve"
   inkscape:version="0.48.5 r10040"
   sodipodi:docname="2753.svg"
   inkscape:export-filename="D:\TESTINGEMOJI\SVGTEST\2753.png"
   inkscape:export-xdpi="90"
   inkscape:export-ydpi="90"><metadata
   id="metadata3359"><rdf:RDF><cc:Work
       rdf:about=""><dc:format>image/svg+xml</dc:format><dc:type
         rdf:resource="http://purl.org/dc/dcmitype/StillImage" /><dc:title></dc:title></cc:Work></rdf:RDF></metadata><defs
   id="defs3357" /><sodipodi:namedview
   pagecolor="#ffffff"
   bordercolor="#666666"
   borderopacity="1"
   objecttolerance="10"
   gridtolerance="10"
   guidetolerance="10"
   inkscape:pageopacity="0"
   inkscape:pageshadow="2"
   inkscape:window-width="640"
   inkscape:window-height="480"
   id="namedview3355"
   showgrid="false"
   inkscape:zoom="3.6875"
   inkscape:cx="32"
   inkscape:cy="32"
   inkscape:window-x="412"
   inkscape:window-y="231"
   inkscape:window-maximized="0"
   inkscape:current-layer="Layer_1" />
<g
   id="g3349"
   transform="translate(10,0)">
	<path
   d="m 21.033,51.231 c -1.902,0 -3.527,0.604 -4.872,1.809 -1.344,1.204 -2.017,2.662 -2.017,4.381 0,1.937 0.68,3.457 2.038,4.563 1.362,1.106 2.948,1.664 4.761,1.664 1.843,0 3.451,-0.55 4.827,-1.641 1.375,-1.096 2.062,-2.623 2.062,-4.587 0,-1.719 -0.657,-3.177 -1.972,-4.381 -1.315,-1.203 -2.921,-1.808 -4.827,-1.808 z"
   id="path3351"
   inkscape:connector-curvature="0"
   style="fill:#be212f" />
	<path
   d="M 40.458,8.617 C 38.708,5.961 36.207,3.837 33.02,2.298 29.851,0.773 26.16,0 22.046,0 17.617,0 13.675,0.926 10.335,2.753 6.991,4.583 4.407,6.931 2.655,9.731 0.895,12.545 0,15.375 0,18.145 c 0,1.477 0.616,2.856 1.824,4.096 1.214,1.248 2.724,1.879 4.488,1.879 3.007,0 5.061,-1.766 6.105,-5.23 0.951,-2.865 2.124,-5.052 3.48,-6.498 1.276,-1.364 3.346,-2.056 6.149,-2.056 2.418,0 4.326,0.678 5.84,2.075 1.491,1.378 2.217,3.022 2.217,5.024 0,1.009 -0.236,1.917 -0.709,2.775 -0.503,0.9 -1.13,1.727 -1.863,2.463 -0.775,0.776 -2.054,1.941 -3.802,3.473 -2.036,1.785 -3.679,3.348 -4.875,4.646 -1.25,1.349 -2.263,2.935 -3.015,4.712 -0.756,1.789 -1.14,3.924 -1.14,6.349 0,2.069 0.577,3.671 1.717,4.762 1.128,1.08 2.533,1.63 4.178,1.63 3.145,0 5.121,-1.719 5.709,-4.935 0.298,-1.337 0.524,-2.271 0.674,-2.802 0.136,-0.483 0.333,-0.979 0.586,-1.474 0.246,-0.482 0.635,-1.028 1.16,-1.625 0.547,-0.631 1.286,-1.371 2.192,-2.198 3.389,-3.028 5.78,-5.222 7.106,-6.52 1.368,-1.337 2.561,-2.946 3.546,-4.778 1.014,-1.875 1.528,-4.084 1.528,-6.559 0.002,-3.131 -0.887,-6.072 -2.637,-8.737 z"
   id="path3353"
   inkscape:connector-curvature="0"
   style="fill:#be212f" />
</g>
</svg>