<?xml version="1.0" encoding="utf-8"?>
<svg xmlns="http://www.w3.org/2000/svg" width="24" height="24" viewBox="0 0 24 24">
    <g id="help">
        <path id="circle" d="M12 2.085c5.477 0 9.915 4.438 9.915 9.916 0 5.48-4.438 9.92-9.916 9.92-5.48 0-9.92-4.44-9.92-9.913 0-5.477 4.44-9.915 9.913-9.915zm-.002 18a8.084 8.084 0 1 0 0-16.168 8.084 8.084 0 0 0 0 16.168z"/>
        <g id="question-mark">
            <path id="top" d="M12.234 6.688c2.5 0 3.22 2.188 3.22 2.188l-1.412.854s-.298-.79-.9-1.23c-.517-.374-1.626-.624-2.22.126-.7.885.17 1.587 1.078 2.72C12.953 12.53 13 15 13 15h-1.97s-.134-2.318-1.04-3.38c-.603-.708-1.443-1.34-1.443-2.495 0-1.156 1.187-2.437 3.687-2.437z"/>
            <path id="bottom" d="M13 16h-2v2h2z"/>
        </g>
    </g>
</svg>
