<?xml version="1.0" encoding="utf-8"?>
<svg xmlns="http://www.w3.org/2000/svg" width="24" height="24" viewBox="0 0 24 24">
    <g id="link">
        <path id="right" d="M19.188 12c0 1.1-.89 2.016-1.988 2.016L13.005 14c.538 1.09.963 2 1.997 2h3C19.658 16 21 13.657 21 12s-1.342-4-2.998-4h-3c-1.034 0-1.46.91-1.998 2l4.195-.016c1.094 0 1.985.917 1.985 2.017z"/>
        <path id="center" d="M8 12c0 .535.42 1 .938 1h6.11c.517 0 .937-.465.937-1 0-.534-.42-1-.938-1h-6.11C8.42 11 8 11.466 8 12z"/>
        <path id="left" d="M4.816 12c0-1.1.89-2.016 1.988-2.016L11 10c-.54-1.09-.964-2-1.998-2h-3c-1.656 0-2.998 2.343-2.998 4s1.342 4 2.998 4h3c1.034 0 1.46-.91 1.998-2l-4.195.016c-1.098 0-1.99-.917-1.99-2.017z"/>
    </g>
</svg>
