<?xml version="1.0" encoding="utf-8"?>
<svg xmlns="http://www.w3.org/2000/svg" width="24" height="24" viewBox="0 0 24 24">
    <g id="regular-expression">
        <path id="left-bracket" d="M3 12.045c0-.99.15-1.915.45-2.777.306-.862.743-1.618 1.314-2.268H6.23c-.552.72-.968 1.512-1.25 2.374-.28.862-.42 1.75-.42 2.66 0 .915.142 1.8.427 2.654.29.85.7 1.622 1.23 2.312h-1.45c-.575-.635-1.013-1.376-1.314-2.223-.3-.847-.45-1.758-.45-2.732"/>
        <path id="dot" d="M10 16c0 .552-.448 1-1 1s-1-.448-1-1 .448-1 1-1 1 .448 1 1z"/>
        <path id="star" d="M14.25 7.013l-.24 2.156 2.187-.61.193 1.474-1.992.14 1.307 1.74-1.33.71-.914-1.834-.8 1.823-1.382-.697 1.295-1.74-1.98-.152.23-1.465 2.14.61-.24-2.158h1.534"/>
        <path id="right-bracket" d="M21 12.045c0 .982-.152 1.896-.457 2.744-.3.843-.737 1.58-1.307 2.21h-1.453c.527-.69.936-1.458 1.225-2.31.29-.854.434-1.74.434-2.66 0-.91-.14-1.796-.422-2.66-.28-.86-.697-1.653-1.248-2.373h1.465c.574.652 1.012 1.412 1.313 2.28.3.86.45 1.782.45 2.764"/>
    </g>
</svg>
