<?xml version="1.0" encoding="utf-8"?>
<!-- Generator: Adobe Illustrator 18.1.1, SVG Export Plug-In . SVG Version: 6.00 Build 0)  -->
<svg version="1.1" id="Layer_1" xmlns="http://www.w3.org/2000/svg" xmlns:xlink="http://www.w3.org/1999/xlink" x="0px" y="0px"
	 width="52px" height="52px" viewBox="0 0 52 52" enable-background="new 0 0 52 52" xml:space="preserve">
<path fill="#FFFFFF" d="M24,36.6c-0.6,0-1.2-0.1-1.8-0.3c-0.6-0.1-1.3-0.3-1.9-0.5c-0.4-0.1-0.8,0-1,0.2l-0.4,0.4
	c-2.5,2.5-6.6,2.8-9.3,0.5c-2.9-2.6-3.1-7.1-0.3-9.8l6.6-6.6c0.9-0.9,1.9-1.4,3-1.7c1.4-0.4,2.9-0.3,4.2,0.3
	c0.8,0.3,1.6,0.8,2.2,1.5c0.3,0.3,0.6,0.7,0.9,1.2c0.3,0.6,1.1,0.7,1.6,0.2c0.8-0.8,1.8-1.8,2.5-2.5c0.4-0.4,0.4-0.9,0.1-1.3
	c-0.4-0.5-0.8-0.9-1.2-1.4c-0.6-0.6-1.4-1.2-2.1-1.7c-1.3-0.8-2.6-1.3-4.1-1.6c-2.7-0.5-5.6-0.1-8.2,1.3c-1,0.5-1.9,1.2-2.7,2
	l-6.4,6.4c-4.6,4.6-5,12.1-0.5,16.9c4.7,5,12.6,5.2,17.4,0.3l2.2-2.2C25.3,37.7,24.9,36.7,24,36.6z"/>
<path fill="#FFFFFF" d="M40.5,22.5c4.8-4.8,4.7-12.7-0.3-17.4c-4.8-4.4-12.3-4.1-16.9,0.5l-2,2c-0.6,0.6-0.2,1.6,0.6,1.7
	c1.2,0.1,2.5,0.3,3.7,0.7c0.4,0.1,0.8,0,1-0.2L27,9.4c2.5-2.5,6.6-2.8,9.3-0.5c2.9,2.6,3.1,7.1,0.3,9.8L30,25.3
	c-0.9,0.9-1.9,1.4-3,1.7c-1.4,0.4-2.9,0.3-4.2-0.3c-0.8-0.3-1.6-0.8-2.2-1.5c-0.3-0.3-0.6-0.7-0.8-1.1c-0.3-0.6-1.1-0.7-1.6-0.2
	l-2.4,2.4c-0.4,0.4-0.4,0.9-0.1,1.3c0.4,0.5,0.7,0.9,1.2,1.4c0.7,0.7,1.4,1.2,2.1,1.7c1.3,0.8,2.6,1.3,4.1,1.6
	c2.7,0.5,5.6,0.1,8.2-1.3c1-0.5,1.9-1.2,2.7-2L40.5,22.5z"/>
<path fill="#FFFFFF" d="M45.1,41l4.6-4.6c0.4-0.4,0.4-1,0-1.4l-2.8-2.8c-0.4-0.4-1-0.4-1.4,0L41,36.9l-4.3-4.3c-0.4-0.4-1-0.4-1.4,0
	l-2.8,2.8c-0.4,0.4-0.4,1,0,1.4l4.3,4.3l-4.2,4.2c-0.4,0.4-0.4,1,0,1.4l2.8,2.8c0.4,0.4,1,0.4,1.4,0l4.2-4.2l4.5,4.5
	c0.4,0.4,1,0.4,1.4,0l2.8-2.8c0.4-0.4,0.4-1,0-1.4L45.1,41z"/>
</svg>
