<svg xmlns="http://www.w3.org/2000/svg" height="52" width="52" viewBox="0 0 520 520" fill="#fff"><path d="M440 20H140c-22 0-40 18-40 40v30H70c-17 0-30 13-30 30s13 30 30 30h30v80H70c-17 0-30 13-30 30s13 30 30 30h30v80H70c-17 0-30 13-30 30s13 30 30 30h30v30c0 22 18 40 40 40h300c22 0 40-18 40-40V60c0-22-18-40-40-40zm-70 340c0 6-4 10-10 10H220c-6 0-10-4-10-10v-20c0-6 4-10 10-10h140c6 0 10 4 10 10v20zm20-80c0 6-4 10-10 10H200c-6 0-10-4-10-10v-20c0-6 4-10 10-10h180c6 0 10 4 10 10v20zm20-100c0 6-4 10-10 10H180c-6 0-10-4-10-10v-60c0-6 4-10 10-10h220c6 0 10 4 10 10v60z"/></svg>