<svg xmlns="http://www.w3.org/2000/svg" width="24" height="24" viewBox="0 0 24 24"><path d="M20.707 15.293L19 13.586V10c0-3.217-2.185-5.927-5.145-6.742C13.562 2.52 12.846 2 12 2s-1.562.52-1.855 1.258C7.185 4.074 5 6.783 5 10v3.586l-1.707 1.707C3.105 15.48 3 15.734 3 16v2c0 .553.447 1 1 1h16c.553 0 1-.447 1-1v-2C21 15.734 20.895 15.48 20.707 15.293zM19 17H5v-.586l1.707-1.707C6.895 14.52 7 14.266 7 14v-4c0-2.757 2.243-5 5-5s5 2.243 5 5v4c0 .266.105.52.293.707L19 16.414V17zM12 22c1.311 0 2.407-.834 2.818-2H9.182C9.593 21.166 10.689 22 12 22z"/><path d="M8.037 10H15.963000000000001V12H8.037z"/></svg>