<svg xmlns="http://www.w3.org/2000/svg" width="24" height="24" viewBox="0 0 24 24"><path d="M20.995,6.9c-0.034-0.342-0.241-0.642-0.548-0.795l-8-4c-0.281-0.141-0.613-0.141-0.895,0l-8,4 C3.246,6.259,3.039,6.559,3.005,6.9c-0.011,0.107-0.961,10.767,8.589,15.014C11.723,21.972,11.861,22,12,22 s0.277-0.028,0.406-0.086C21.956,17.667,21.006,7.008,20.995,6.9z M12,19.897C5.231,16.625,4.911,9.642,4.966,7.635L12,4.118 l7.029,3.515C19.066,9.622,18.701,16.651,12,19.897z"/><path d="M11 12.586L8.707 10.293 7.293 11.707 11 15.414 16.707 9.707 15.293 8.293z"/></svg>