<svg xmlns="http://www.w3.org/2000/svg" width="24" height="24" viewBox="0 0 24 24"><path d="M12,2C9.33,2,6.818,3.04,4.929,4.929C3.04,6.818,2,9.33,2,12s1.04,5.182,2.929,7.071C6.818,20.96,9.33,22,12,22 s5.182-1.04,7.071-2.929C20.96,17.182,22,14.67,22,12s-1.04-5.182-2.929-7.071C17.182,3.04,14.67,2,12,2z M17.657,17.657 C16.146,19.168,14.137,20,12,20s-4.146-0.832-5.657-2.343C4.832,16.146,4,14.137,4,12s0.832-4.146,2.343-5.657 C7.615,5.07,9.242,4.287,11,4.069V12c0,0.553,0.447,1,1,1h7.931C19.713,14.758,18.93,16.385,17.657,17.657z M13,11V4.062 c1.758,0.218,3.384,1.009,4.657,2.281C18.93,7.616,19.721,9.242,19.938,11H13z"/></svg>