<svg xmlns="http://www.w3.org/2000/svg" width="24" height="24" viewBox="0 0 24 24"><path d="M20.772,10.156l-1.368-4.105C18.995,4.824,17.852,4,16.559,4H14V2h-4v2H7.441C6.148,4,5.005,4.824,4.596,6.051 l-1.368,4.105C2.508,10.459,2,11.171,2,12v5c0,0.753,0.423,1.402,1.039,1.743C3.026,18.809,3,18.869,3,18.938V21 c0,0.553,0.447,1,1,1h1c0.553,0,1-0.447,1-1v-2h12v2c0,0.553,0.447,1,1,1h1c0.553,0,1-0.447,1-1v-2.062 c0-0.069-0.026-0.13-0.039-0.195C21.577,18.402,22,17.753,22,17v-5C22,11.171,21.492,10.459,20.772,10.156z M4,17v-5h16l0.002,5H4 z M7.441,6h9.117c0.431,0,0.813,0.274,0.949,0.684L18.613,10H5.387l1.105-3.316C6.629,6.274,7.011,6,7.441,6z"/><circle cx="6.5" cy="14.5" r="1.5"/><circle cx="17.5" cy="14.5" r="1.5"/></svg>