<?xml version="1.0" encoding="utf-8"?>
<!-- Generator: Adobe Illustrator 16.0.4, SVG Export Plug-In . SVG Version: 6.00 Build 0)  -->
<!DOCTYPE svg PUBLIC "-//W3C//DTD SVG 1.1 Tiny//EN" "http://www.w3.org/Graphics/SVG/1.1/DTD/svg11-tiny.dtd" [
	<!ENTITY ns_flows "http://ns.adobe.com/Flows/1.0/">
	<!ENTITY ns_extend "http://ns.adobe.com/Extensibility/1.0/">
	<!ENTITY ns_ai "http://ns.adobe.com/AdobeIllustrator/10.0/">
	<!ENTITY ns_graphs "http://ns.adobe.com/Graphs/1.0/">
]>
<svg version="1.1" baseProfile="tiny" id="Layer_1" xmlns:x="&ns_extend;" xmlns:i="&ns_ai;" xmlns:graph="&ns_graphs;"
	 xmlns="http://www.w3.org/2000/svg" xmlns:xlink="http://www.w3.org/1999/xlink" xmlns:a="http://ns.adobe.com/AdobeSVGViewerExtensions/3.0/"
	 x="0px" y="0px" width="42px" height="42px" viewBox="-0.5 0.5 42 42" xml:space="preserve">
<path d="M10.17,32.23c-1.37,0-2.71,0.25-4.07,0.438C4.01,33.08,2.12,33.92,0.5,35.6v4.9h18.41c0.06,0,0.08-0.4,0.08-0.62
	c-0.021-1.43-0.971-2.729-2.12-3.72c-1.63-1.381-3.511-2.5-5.32-3.84C11.08,32.25,10.62,32.23,10.17,32.23z M0.5,22.5v9.9
	c2.439-1.45,4.689-1.621,7.15-1.7c0.76,0,1.42-0.021,1.979-0.05c-0.39-0.521-0.771-1.08-1.14-1.66c-0.85-1.35-0.65-2.99-0.04-4.45
	C5.58,24.91,2.939,24.38,0.5,22.5z M7.65,6.87c-0.7,0.01-1.42,0.17-2.09,0.479C4.2,8.01,3.2,9.09,2.83,10.72
	C2.55,12.401,2.62,14.19,3.04,16c0.51,2.061,1.521,4.02,3.351,5.45c1.369,0.97,3.459,1.11,5.219,0.64
	c1.371-0.41,2.351-1.71,2.891-3.12c0.48-1.53,0.311-3.27-0.109-5.03c-0.541-2.25-1.631-4.409-3.551-6.049
	C9.96,7.21,8.82,6.84,7.65,6.87z M0.5,1.5v6.87c2.439-2.35,6.38-3.87,10-3.87h12L19.45,8h-3.46c0.84,0.811,1.609,1.32,2.229,2.35
	c0.79,1.351,1.21,2.801,1.23,4.471c-0.011,1.609-0.4,3.34-1.4,4.84c-0.819,1.2-1.989,2.21-3.22,3.17
	c-0.811,0.812-1.52,1.479-1.58,2.771c0.01,0.961,0.641,1.819,1.5,2.439c1.43,1.12,2.66,2.04,4.01,3.2
	c1.29,1.12,2.49,2.489,3.261,4.17c0.66,1.528,0.67,3.459,0.211,5.089H39.5v-25h-7v8h-3v-8h-8v-3h8v-8h3v8h7v-11H0.5z"/>
</svg>
