<?xml version="1.0" encoding="utf-8"?>
<!-- Generator: Adobe Illustrator 16.0.4, SVG Export Plug-In . SVG Version: 6.00 Build 0)  -->
<!DOCTYPE svg PUBLIC "-//W3C//DTD SVG 1.1 Tiny//EN" "http://www.w3.org/Graphics/SVG/1.1/DTD/svg11-tiny.dtd" [
	<!ENTITY ns_flows "http://ns.adobe.com/Flows/1.0/">
	<!ENTITY ns_extend "http://ns.adobe.com/Extensibility/1.0/">
	<!ENTITY ns_ai "http://ns.adobe.com/AdobeIllustrator/10.0/">
	<!ENTITY ns_graphs "http://ns.adobe.com/Graphs/1.0/">
]>
<svg version="1.1" baseProfile="tiny" id="Layer_1" xmlns:x="&ns_extend;" xmlns:i="&ns_ai;" xmlns:graph="&ns_graphs;"
	 xmlns="http://www.w3.org/2000/svg" xmlns:xlink="http://www.w3.org/1999/xlink" xmlns:a="http://ns.adobe.com/AdobeSVGViewerExtensions/3.0/"
	 x="0px" y="0px" width="42px" height="42px" viewBox="0 0 42 42" xml:space="preserve">
<path d="M29.609,39h0.781c4.959-0.07,9.689-0.6,10.539-1.391c0.211-1.719,0.45-2.549-7.57-6.17
	c-1.141-0.609-0.529-2.969-0.529-2.969c2.411-1.74,4.062-5.761,4.062-8.991c0-5.57-2.633-8.21-6.502-8.48h-0.781
	c-3.868,0.27-6.5,2.9-6.5,8.48c0,3.23,1.65,7.25,4.062,8.991c0,0,0.61,2.359-0.528,2.969c-8.021,3.621-7.782,4.451-7.571,6.17
	C19.92,38.4,24.65,38.93,29.609,39z M11.608,31h0.782c4.959-0.07,9.689-0.6,10.54-1.391c0.211-1.719,0.449-2.549-7.571-6.17
	c-1.14-0.609-0.529-2.969-0.529-2.969c2.41-1.74,4.061-5.76,4.061-8.99c0-5.57-2.631-8.21-6.5-8.48h-0.782
	c-3.869,0.27-6.5,2.9-6.5,8.48c0,3.23,1.65,7.25,4.061,8.99c0,0,0.61,2.36-0.529,2.969c-8.021,3.621-7.781,4.451-7.57,6.17
	C1.919,30.4,6.649,30.93,11.608,31z"/>
</svg>
