<svg xmlns="http://www.w3.org/2000/svg" viewBox="21 21 470 470"><style>.a{fill:#424242}.b{opacity:.2;fill:#fff}.c{opacity:.3;fill:#263238}.d{fill:#e8e8e8}.h{fill:#d6d6d6}.g{fill:#fff}</style><path class="a" d="M208 153.4V452h95.9V153.4H208zm93.5 296.1h-90.9V155.9h90.9v293.6z"/><path class="a" d="M20.9 78.8L64 153.4h144V452h96V153.4h143.6l43.1-74.6z"/><path class="b" d="M489.2 81.4l1.5-2.6H20.9l1.6 2.6z"/><path fill="#afafaf" d="M103.3 153.4H64l12.3 21.3H94c2.7-7.4 5.7-14.5 9.3-21.3zm304 0c3.5 6.8 6.6 14 9.2 21.3h18.8l12.3-21.3h-40.3z"/><ellipse fill="#4285f4" cx="255.3" cy="231.7" rx="171" ry="171"/><path class="c" d="M95 172.1H74.8l1.5 2.6H94c.4-.9.7-1.8 1-2.6zm320.6 0c.3.9.6 1.7.9 2.6h18.8l1.5-2.6h-21.2zM255.3 400.2c-94 0-170.3-75.9-171-169.8v1.2c0 94.4 76.6 171 171 171s171-76.6 171-171v-1.2c-.7 93.9-77 169.8-171 169.8z"/><path class="b" d="M255.3 63.2c94 0 170.3 75.9 171 169.8v-1.2c0-94.4-76.6-171-171-171s-171 76.6-171 171v1.2c.7-93.9 77-169.8 171-169.8z"/><circle class="c" cx="255.3" cy="233.6" r="112"/><radialGradient id="d" cx="263.6" cy="228.19" r="167.93" gradientUnits="userSpaceOnUse"><stop offset="0" stop-color="#231F20" stop-opacity=".1"/><stop offset="1" stop-color="#231F20" stop-opacity="0"/></radialGradient><path fill="url(#d)" d="M425.2 251.2l-74.1-74.1-12.3 7.1-48.2-48.2-34.1 89-16.5 70.8 14.9 49.8 49.9 49.9c64.3-19.5 112.6-75.7 120.4-144.3z"/><path class="d" d="M254.9 123.5v111l49.2-65.7c-2.7-28.1-22.5-45.3-49.2-45.3zm-97.1 55l97.1 56-32.3-75.3c-25.7-11.7-51.4-3.8-64.8 19.3zm.9 111.6l96.2-55.6-81.3-9.6c-23.1 16.4-28.3 42.1-14.9 65.2z"/><path class="h" d="M254.9 345.6v-111l-49 63.7c2.6 28.1 22.2 47.3 49 47.3zm32.3-35.8c25.7 11.8 51.5 2 64.8-21.1l-97-56.8 32.2 77.9z"/><path class="h" d="M351.1 179l-96.2 55.6 81.3 9.6c23-16.5 28.3-42.2 14.9-65.2z"/><path class="g" d="M254.9 232.6v-111c26.7 0 46.3 17.3 49 45.5l-49 65.5zm0 0L158.7 177c13.5-23.1 38.3-31.5 63.9-19.7l32.3 75.3z"/><path class="g" d="M254.9 232.6l-96.2 55.6c-13.4-23.1-8.1-48.8 14.9-65.2l81.3 9.6z"/><path class="d" d="M254.9 232.6v111c-26.7 0-46.3-17.3-49-45.5l49-65.5zm0 0l96.2 55.6c-13.4 23.1-38.2 31.5-63.9 19.7l-32.3-75.3z"/><path class="d" d="M254.9 232.6l96.2-55.6c13.4 23.1 8.1 48.8-14.9 65.2l-81.3-9.6z"/><circle class="g" cx="254.8" cy="231.2" r="37"/><radialGradient id="e" cx="254.78" cy="231.15" r="37" gradientUnits="userSpaceOnUse"><stop offset=".4" stop-color="#231F20" stop-opacity="0"/><stop offset="1" stop-color="#231F20" stop-opacity=".04"/></radialGradient><circle fill="url(#e)" cx="254.8" cy="231.2" r="37"/><radialGradient id="f" cx="23.82" cy="81.35" r="468.19" gradientUnits="userSpaceOnUse"><stop offset="0" stop-color="#FFF" stop-opacity=".1"/><stop offset="1" stop-color="#FFF" stop-opacity="0"/></radialGradient><path fill="url(#f)" d="M331.8 78.8c-23-11.5-49-18.1-76.5-18.1s-53.5 6.5-76.5 18.1H20.9l.7 1.3.8 1.4 41.6 72 10.8 18.7 1.5 2.6H94c-6.3 17.8-9.8 37-9.8 57 0 78 52.3 143.9 123.7 164.4V452h95.9v-56.3c70.7-21 122.3-86.4 122.3-164 0-20-3.4-39.2-9.8-57h18.8l12.3-21.3 43.1-74.6H331.8zm-231 79.6c-.1.1-.1.2-.2.4 0-.1.1-.2.2-.4zm-2.4 5.3c0 .1-.1.2-.1.3 0-.2 0-.2.1-.3zm311.4-5.3c.1.1.1.2.2.4 0-.1-.1-.2-.2-.4zm2.4 5.3c0 .1.1.2.1.3 0-.2 0-.2-.1-.3z"/></svg>