<?xml version="1.0" encoding="utf-8"?>
<svg xmlns="http://www.w3.org/2000/svg" width="24" height="24" viewBox="0 0 24 24">
    <g id="italic-geor-kan">
        <path id="geor-kan" d="M15.057 14.663c-.441 2.225-1.834 3.337-4.178 3.337-1.919 0-2.879-.787-2.879-2.36 0-.298.036-.624.108-.977.083-.431.245-.836.488-1.217l1.241.605-.207.613c-.055.259-.083.497-.083.712 0 .972.521 1.458 1.564 1.458 1.307 0 2.101-.723 2.383-2.17l.058-.331c.044-.221.066-.425.066-.613 0-.928-.546-1.391-1.638-1.391h-1.117l.248-1.259h1.117c1.202-.005 1.908-.552 2.118-1.64.039-.182.058-.356.058-.522 0-1.143-.899-1.714-2.697-1.714l.232-1.193c2.708 0 4.062.875 4.062 2.625 0 .248-.028.516-.083.803-.204 1.093-1.051 1.825-2.54 2.195l-.033.166c1.23.199 1.845.823 1.845 1.872 0 .21-.025.433-.074.671l-.058.331"/>
    </g>
</svg>
