<?xml version="1.0" encoding="utf-8"?>
<svg xmlns="http://www.w3.org/2000/svg" width="24" height="24" viewBox="0 0 24 24">
    <g id="history">
        <path id="clock-hands" d="M17.26 15.076s-2.385-1.935-4.005-3.062c.72-2.397 1.702-6.56 1.702-6.56s-4.35 5.364-4.877 6.7c-.463 1.168 1.46 2.21 2.346 1.678 1.9.55 4.834 1.244 4.834 1.244z"/>
        <path id="arrow" d="M12.086 2.085C6.608 2.085 2.17 6.523 2.17 12c0 1.784.476 3.455 1.3 4.9L1.25 18.94h5.688v-5.22L4.87 15.616c-.55-1.088-.866-2.312-.866-3.615 0-4.464 3.62-8.083 8.084-8.083 4.464 0 8.083 3.62 8.083 8.084 0 4.465-3.618 8.084-8.082 8.084-1.145 0-2.228-.247-3.213-.678l-.833 1.634c1.235.557 2.602.874 4.045.874C17.563 21.914 22 17.476 22 12c0-5.477-4.438-9.915-9.914-9.915z"/>
    </g>
</svg>
