<svg xmlns="http://www.w3.org/2000/svg" height="100" width="100" viewBox="0 0 100 100" fill="#fff"><path d="M42 60h16a2 2 0 0 0 2-2V42a2 2 0 0 0-2-2H42a2 2 0 0 0-2 2v16c0 1.1.9 2 2 2zm35-7c1.7 0 3-1.3 3-3s-1.3-3-3-3h-5v-6h5c1.7 0 3-1.3 3-3s-1.3-3-3-3h-5v-1a6 6 0 0 0-6-6h-1v-5c0-1.7-1.3-3-3-3s-3 1.3-3 3v5h-6v-5c0-1.7-1.3-3-3-3s-3 1.3-3 3v5h-6v-5c0-1.7-1.3-3-3-3s-3 1.3-3 3v5h-1a6 6 0 0 0-6 6v1h-5c-1.7 0-3 1.3-3 3s1.3 3 3 3h5v6h-5c-1.7 0-3 1.3-3 3s1.3 3 3 3h5v6h-5c-1.7 0-3 1.3-3 3s1.3 3 3 3h5v1a6 6 0 0 0 6 6h1v5c0 1.7 1.3 3 3 3s3-1.3 3-3v-5h6v5c0 1.7 1.3 3 3 3s3-1.3 3-3v-5h6v5c0 1.7 1.3 3 3 3s3-1.3 3-3v-5h1a6 6 0 0 0 6-6v-1h5c1.7 0 3-1.3 3-3s-1.3-3-3-3h-5v-6h5zM66 63a3 3 0 0 1-3 3H37a3 3 0 0 1-3-3V37a3 3 0 0 1 3-3h26a3 3 0 0 1 3 3v26z"/></svg>