<svg xmlns="http://www.w3.org/2000/svg" height="64" width="56" viewBox="0 0 5600 6400"><path fill="#fcc003" d="M515-4A507 507 0 0 0 8 504v5384c0 280 227 507 507 507h4578c280 0 507-227 507-507V2027L3710-4z"/><path fill="#e4a201" d="M5601 2032v100H4321s-631-126-613-671c0 0 21 571 600 571z"/><path fill="#f9e3b6" d="M3711-4v1457c0 165 110 579 610 579h1280z"/><path fill="#2e2204" d="M1876 4305h-327v1004c0 42-33 74-76 74-41 0-74-32-74-74V4304l-326 1c-36 0-64-29-64-69 0-36 28-65 64-65h803c36 0 65 29 65 69 0 36-29 65-65 65zm1170 1080c-21 0-41-9-54-27l-372-497-375 497a64 64 0 0 1-54 27c-40 0-72-31-72-72 0-15 4-31 14-43l389-513-362-483c-9-13-14-27-14-42 0-34 29-72 72-72 22 0 43 11 58 29l344 463 343-465c13-18 33-27 55-27a74 74 0 0 1 61 114l-362 481 389 514c9 13 12 27 12 42 0 40-32 74-72 74zm1120-1080h-328v1004c0 42-32 74-75 74-42 0-74-32-74-74V4304l-326 1c-36 0-65-29-65-69 0-36 29-65 65-65h803c36 0 65 29 65 69 0 36-29 65-65 65z"/></svg>