<?xml version="1.0"?><svg xmlns="http://www.w3.org/2000/svg" width="52" height="52" viewBox="0 0 52 52"><path fill="#fff" d="m5.5 4h3c0.8 0 1.5 0.7 1.5 1.5v7c0 0.9 0.5 1.3 1.2 0.7 0.3-0.4 0.6-0.7 1-1 5-5 12-7.1 19.2-5.7 2.5 0.5 4.9 1.5 7 2.9 6.1 4 9.6 10.5 9.7 17.5 0.1 5.4-2 10.8-5.8 14.7-3.6 3.8-8.4 6.1-13.5 6.5-1-0.1-1.8-0.8-1.8-1.7v-3c0-0.8 0.6-1.4 1.4-1.5 4.7-0.4 9-3 11.6-7.3 0.7-1.2 1.3-2.5 1.6-3.8 1.6-6.6-1.1-13.2-6.9-16.7-1.2-0.7-2.5-1.3-3.8-1.6-5.4-1.3-10.7 0.2-14.4 3.9-0.5 0.4-0.9 0.9-1.2 1.4-0.3 0.8 0.4 1.2 1.3 1.2h7c0.8 0 1.4 0.7 1.4 1.5v3.1c0 0.8-0.5 1.4-1.3 1.4h-18.4c-0.7 0-1.3-0.6-1.3-1.3v-18.2c0-0.8 0.7-1.5 1.5-1.5z"></path></svg>