<svg id="Layer_1" data-name="Layer 1" xmlns="http://www.w3.org/2000/svg" x="0" y="0" width="18" height="12" viewBox="0 0 17.62 11.4"><defs><style>.cls-1{fill:#fff;}</style></defs><title>6</title><path id="cardboard" class="cls-1" d="M157.8,3.9H142.3A1.11,1.11,0,0,0,141.2,5v9.2a1.11,1.11,0,0,0,1.1,1.1h4.2a1,1,0,0,0,1-.7l1.2-3.1a1.39,1.39,0,0,1,2.6,0l1.2,3.1a1.09,1.09,0,0,0,1,.7h4.2a1.11,1.11,0,0,0,1.1-1.1V5.1a1,1,0,0,0-1-1.2m-11.9,7.6a2,2,0,1,1,2-2,2.07,2.07,0,0,1-2,2m8.4,0a2,2,0,1,1,2-2A2,2,0,0,1,154.3,11.5Z" transform="translate(-141.2 -3.9)"/></svg>