<svg xmlns="http://www.w3.org/2000/svg" xmlns:xlink="http://www.w3.org/1999/xlink" fill="#fff" viewBox="0 0 2390 2390"><linearGradient id="a" x1="1056.8" x2="1083.6" y1="1122.4" y2="1096.8" gradientUnits="userSpaceOnUse"><stop offset="0" stop-color="#c3dcda"/><stop offset="1" stop-color="#c3dcda" stop-opacity="0"/></linearGradient><g stroke="#80bec2" stroke-width="6"><path fill="#a2a4a4" d="M2295.23 1197.02a1097.27 1097.27 0 11-2194.53 0 1097.27 1097.27 0 112194.53 0z"/><path fill="#7fc0c4" d="M2257.36 1197.02a1059.4 1059.4 0 11-2118.8 0 1059.4 1059.4 0 112118.8 0z"/><path fill="#007c85" d="M2181.63 1197.02a983.66 983.66 0 11-1967.32 0 983.7 983.7 0 111967.4 0zm0 0a983.66 983.66 0 11-1967.32 0 983.7 983.7 0 111967.4 0z"/></g><use xlink:href="#c"/><use fill="url(#a)" xlink:href="#c"/><path fill="#000" d="M2077.54 1637.66c-161.7 321.93-494.98 543.02-879.57 543.02-376.5 0-703.84-212-869.15-522.86 898.8-272.57 1201.67-106.18 1748.72-20.16z"/><path d="M1511 1575h65V684h-65z"/><path d="M1329.22 667.33c116.2-3.2 161.3 46.93 185.92 112.42l64.86-12.97c21.48-43.76 37.74-89.27 159.97-99.45v-30.26H1325zM300.02 1598.8c598.15-160.33 1237.18-133.67 1778.26 37.33l-9.16 18c-387.75-33.16-1045.08-172.8-1712.4 52-19.2-30.33-39.77-65.85-56.7-107.53z"/><g fill="#c3dcda"><path d="M496.8 1696.36c114.62 3.2 159.12-46.92 183.4-112.4l63.97 12.96c21.2 43.76 37.23 89.27 157.8 99.44v30.27H492.55l4.26-30.27z"/><path d="M675.93 755.8L740 828.93v850.14h-63.97z"/></g><path d="M503.4 1696.36c117.34 7.78 164.82-32.87 185.92-112.4l64.86 12.96c21.5 43.76 37.74 89.27 159.97 99.44v30.27H499.08l4.33-30.27z"/><path d="M685 771l64.85 72.4v835.77H685z"/><defs><path id="c" d="M504 669.44l85.8 11.44 31.45 17.15 729.2 820.7 226 22.87-94.37-137.25L801.5 649.42l-297.4-2.86z"/></defs></svg>