<svg xmlns="http://www.w3.org/2000/svg" width="24" height="24" viewBox="0 0 24 24"><path d="M12.186,14.552c-0.617,0-0.977,0.587-0.977,1.373c0,0.791,0.371,1.35,0.983,1.35 c0.617,0,0.971-0.588,0.971-1.374C13.163,15.175,12.815,14.552,12.186,14.552z"/><path d="M14,2H6C4.896,2,4,2.896,4,4v16c0,1.104,0.896,2,2,2h12c1.104,0,2-0.896,2-2V8L14,2z M9.155,17.454 c-0.426,0.354-1.073,0.521-1.864,0.521c-0.475,0-0.81-0.03-1.038-0.06v-3.971c0.336-0.054,0.773-0.083,1.235-0.083 c0.768,0,1.266,0.138,1.655,0.432c0.42,0.312,0.684,0.81,0.684,1.522C9.827,16.59,9.545,17.124,9.155,17.454z M12.145,18 c-1.2,0-1.901-0.906-1.901-2.058c0-1.211,0.773-2.116,1.967-2.116c1.241,0,1.919,0.929,1.919,2.045 C14.129,17.196,13.325,18,12.145,18z M16.8,17.238c0.275,0,0.581-0.061,0.762-0.132l0.138,0.713 c-0.168,0.084-0.546,0.174-1.037,0.174c-1.397,0-2.117-0.869-2.117-2.021c0-1.379,0.983-2.146,2.207-2.146 c0.474,0,0.833,0.096,0.995,0.18l-0.186,0.726c-0.187-0.078-0.444-0.15-0.768-0.15c-0.726,0-1.29,0.438-1.29,1.338 C15.504,16.729,15.984,17.238,16.8,17.238z M14,9c-0.553,0-1,0-1,0V4l5,5H14z"/><path d="M7.584,14.563c-0.203,0-0.335,0.018-0.413,0.036v2.645c0.078,0.018,0.204,0.018,0.317,0.018 c0.828,0.006,1.367-0.449,1.367-1.415C8.861,15.007,8.37,14.563,7.584,14.563z"/></svg>