<svg xmlns="http://www.w3.org/2000/svg" width="24" height="24" viewBox="0 0 24 24"><path d="M19.148,7.971C18.789,7.372,18.132,7,17.434,7H16V5c0-0.553-0.447-1-1-1H4C2.897,4,2,4.897,2,6v11c0,1.103,0.897,2,2,2 c0,1.654,1.346,3,3,3s3-1.346,3-3h4c0,1.654,1.346,3,3,3s3-1.346,3-3c1.103,0,2-0.897,2-2v-4c0-0.182-0.049-0.359-0.143-0.515 L19.148,7.971z M17.434,9l1.8,3H16V9H17.434z M7,20c-0.552,0-1-0.448-1-1s0.448-1,1-1s1,0.448,1,1S7.552,20,7,20z M17,20 c-0.552,0-1-0.448-1-1s0.448-1,1-1s1,0.448,1,1S17.552,20,17,20z"/></svg>