<svg id="Layer_1" data-name="Layer 1" xmlns="http://www.w3.org/2000/svg" width="52" height="52" viewBox="0 0 52 52"><path d="M17.08,2H8A6,6,0,0,0,2,8v5.68A6,6,0,0,0,8.08,19.6h9.06a6,6,0,0,0,6-6V7.94A6,6,0,0,0,17.08,2ZM13.82,14.8h-2.5a4,4,0,0,1,0-8h2.5a4,4,0,0,1,0,8Z" fill="#fff"/><path d="M34.5,19.6h9.06a6,6,0,0,0,6-6V7.94A6,6,0,0,0,43.5,2H34.44a6,6,0,0,0-6,6v5.66A6,6,0,0,0,34.5,19.6ZM37.74,6.8h2.5a4,4,0,0,1,0,8h-2.5a4,4,0,0,1,0-8Z" fill="#fff"/><path d="M17.08,24.4H8a6,6,0,0,0-6,6v5.68A6,6,0,0,0,8.08,42h9.06a6,6,0,0,0,6-6V30.34A6,6,0,0,0,17.08,24.4ZM13.82,37.2h-2.5a4,4,0,1,1,0-8h2.5a4,4,0,0,1,0,8Z" fill="#fff"/><path d="M49.83,40.12a.84.84,0,0,0-.23-.23l-1.84-1.52a1.42,1.42,0,0,0-1.84,0L42.82,41c-.53.45-1.45.17-1.45-.5v-15a1.27,1.27,0,0,0-1.32-1.12H37.42a1.33,1.33,0,0,0-1.32,1.12V40.45c0,.67-.92.95-1.45.5l-3.09-2.58a1.44,1.44,0,0,0-1.85,0l-1.77,1.52a.92.92,0,0,0-.23,1.28.84.84,0,0,0,.23.23l9.88,8.26a1.42,1.42,0,0,0,1.84,0L49.6,41.4A.92.92,0,0,0,49.83,40.12Z" fill="#fff"/></svg>