<?xml version="1.0" encoding="utf-8"?>
<!-- Generator: Adobe Illustrator 17.0.0, SVG Export Plug-In . SVG Version: 6.00 Build 0)  -->
<!DOCTYPE svg PUBLIC "-//W3C//DTD SVG 1.1//EN" "http://www.w3.org/Graphics/SVG/1.1/DTD/svg11.dtd">
<svg version="1.1" id="Layer_1" xmlns="http://www.w3.org/2000/svg" xmlns:xlink="http://www.w3.org/1999/xlink" x="0px" y="0px"
	 width="100px" height="100px" viewBox="0 0 100 100" enable-background="new 0 0 100 100" xml:space="preserve">
<g>
	<path d="M82.533,29.788h-0.006c0-0.323-0.124-0.646-0.369-0.894l0.003-0.003l-9.764-9.764l-0.024,0.024
		c-0.281-0.23-0.626-0.318-0.967-0.272H35.304c-0.073-0.006-0.143-0.022-0.218-0.022c-1.356,0-2.453,1.067-2.523,2.406h-0.008v0.082
		c0,0.017-0.005,0.032-0.005,0.048s0.005,0.032,0.005,0.048v8.346h0v28.152h0.001c0,0.003-0.001,0.006-0.001,0.009
		c0,1.401,1.136,2.537,2.537,2.537c0.047,0,0.09-0.011,0.136-0.014h9.931c0.15,0.244,0.334,0.453,0.536,0.637l0.109,0.188v0.109
		h0.063l9.709,16.816l0.025-0.014c0.99,1.753,2.847,2.936,4.98,2.936c3.171,0,5.742-2.607,5.742-5.825h0.058v-3.257v-0.106V60.471
		h13.684v-0.019c1.361-0.04,2.452-1.145,2.461-2.513h0.008V29.788z"/>
	<path d="M27.407,25.873L27.407,25.873c-0.001-0.003,0-0.006,0-0.009c0-1.401-1.136-2.536-2.537-2.536
		c-0.047,0-0.091,0.011-0.137,0.014l-4.798,0v0.018c-1.361,0.04-2.452,1.145-2.461,2.513h-0.008v27.502h0.043
		c0.12,1.257,1.147,2.243,2.426,2.287v0.022l4.971,0l0,0l0,0h0l0,0c1.4,0,2.536-1.136,2.536-2.537c0-0.12-0.019-0.234-0.035-0.35
		V25.873z"/>
</g>
</svg>
