<?xml version="1.0" encoding="utf-8"?>
<!-- Generator: Adobe Illustrator 17.0.0, SVG Export Plug-In . SVG Version: 6.00 Build 0)  -->
<!DOCTYPE svg PUBLIC "-//W3C//DTD SVG 1.1//EN" "http://www.w3.org/Graphics/SVG/1.1/DTD/svg11.dtd">
<svg version="1.1" id="Layer_1" xmlns="http://www.w3.org/2000/svg" xmlns:xlink="http://www.w3.org/1999/xlink" x="0px" y="0px"
	 width="100px" height="100px" viewBox="0 0 100 100" enable-background="new 0 0 100 100" xml:space="preserve">
<g>
	<path d="M81.465,66.127c-0.022-0.038-0.052-0.069-0.076-0.105l0.002-0.001L54.487,19.422l-0.014,0.008
		c-0.23-0.368-0.558-0.637-0.929-0.801l0.038-0.022l-11.01-6.357l0,0.044c-0.554-0.315-1.232-0.367-1.846-0.107l-0.012-0.021
		l-0.206,0.119c-0.004,0.003-0.009,0.003-0.013,0.006c-0.004,0.002-0.007,0.006-0.012,0.008l-21.183,12.23
		c-0.656,0.378-1.021,1.058-1.037,1.764l-0.007-0.004v12.714l0.021-0.012c-0.047,0.427,0.03,0.872,0.261,1.273
		c0.014,0.024,0.032,0.042,0.047,0.065l0,0l26.816,46.446c0.026,0.055,0.044,0.112,0.075,0.166c0.562,0.971,1.785,1.316,2.772,0.801
		l0.005,0.008l32.465-18.743l-0.014-0.025C81.7,68.404,82.042,67.126,81.465,66.127z M36.366,29.361
		c-1.849,1.068-4.214,0.435-5.281-1.414c-1.068-1.849-0.434-4.213,1.415-5.281c1.849-1.068,4.213-0.434,5.281,1.416
		C38.849,25.929,38.215,28.294,36.366,29.361z"/>
</g>
</svg>
