<?xml version="1.0" encoding="utf-8"?>
<!-- Generator: Adobe Illustrator 17.0.0, SVG Export Plug-In . SVG Version: 6.00 Build 0)  -->
<!DOCTYPE svg PUBLIC "-//W3C//DTD SVG 1.1//EN" "http://www.w3.org/Graphics/SVG/1.1/DTD/svg11.dtd">
<svg version="1.1" id="Layer_1" xmlns="http://www.w3.org/2000/svg" xmlns:xlink="http://www.w3.org/1999/xlink" x="0px" y="0px"
	 width="100px" height="100px" viewBox="0 0 100 100" enable-background="new 0 0 100 100" xml:space="preserve">
<path d="M37.483,61.48c7.221,0.67,12.822,4.535,18.604,8.086c4.091,2.512,8.593,3.973,13.483,3.91
	c2.35-0.029,4.435-0.799,6.224-2.303c0.767-0.646,1.085-0.514,1.312,0.43c1.756,7.254-4.007,14.668-11.467,14.891
	c-3.72,0.111-6.915-1.223-9.895-3.17c-3.4-2.225-6.648-4.686-10.036-6.928c-6.246-4.137-13.147-5.551-20.546-4.674
	c-2.162,0.258-2.375,0.086-2.547-2.199c-0.321-4.287,1.237-7.81,4.117-10.93c8.217-8.893,16.293-17.912,23.846-27.389
	c0.647-0.812,1.289-1.629,1.92-2.453c0.181-0.238,0.557-0.445,0.377-0.795c-0.175-0.34-0.564-0.185-0.859-0.17
	c-3.609,0.201-7.217,0.402-10.834,0.322c-1.868-0.045-3.691-0.299-5.413-1.059c-2.893-1.271-3.835-3.455-2.733-6.391
	c0.896-2.383,2.238-4.523,3.709-6.594c0.416-0.584,0.778-0.727,1.449-0.381c3.368,1.727,7.045,2.184,10.744,2.477
	c7.833,0.621,15.604,0.076,23.297-1.486c1.005-0.203,1.029,0.293,1.118,0.982c0.456,3.51-0.722,6.443-3.028,9.047
	c-8.268,9.332-16.146,19.008-24.974,27.846C42.616,55.285,39.882,58.058,37.483,61.48z"/>
</svg>
