<?xml version="1.0" encoding="utf-8"?>
<!-- Generator: Adobe Illustrator 16.0.0, SVG Export Plug-In . SVG Version: 6.00 Build 0)  -->
<!DOCTYPE svg PUBLIC "-//W3C//DTD SVG 1.1//EN" "http://www.w3.org/Graphics/SVG/1.1/DTD/svg11.dtd">
<svg version="1.1" id="Layer_1" xmlns="http://www.w3.org/2000/svg" xmlns:xlink="http://www.w3.org/1999/xlink" x="0px" y="0px"
	 width="100px" height="100px" viewBox="0 0 100 100" enable-background="new 0 0 100 100" xml:space="preserve">
<path fill="#FFFFFF" d="M69.7,28.9C64.4,22.3,60.1,20,51,20c-4.1,0-9,1.6-11,2l0,0c0-1.1-0.9-2-2-2h-3h-1c-1.1,0-2,0.9-2,2v8
	c0,1.1,0.9,2,2,2h4c1.1,0,2-0.9,2-2h2.1c1.6,0,2.9,1.3,2.9,2.9V33c0,1.7,1.3,3,3,3v16c-2.2,0-4,1.8-4,4v18c0,3.3,2.7,6,6,6h2
	c3.3,0,6-2.7,6-6V56c0-2.2-1.8-4-4-4V36c1.7,0,3-2.2,3-3.9V32c0-1.5,1.2-2.7,2.7-2.8c4-0.2,6.2,1.4,7.3,2.3c0.6,0.5,1.6,0.6,2.2,0.1
	l0,0C70.2,31,70.4,29.8,69.7,28.9z"/>
</svg>
