<svg xmlns="http://www.w3.org/2000/svg" width="24" height="24" viewBox="0 0 24 24"><path d="M12,2C6.486,2,2,6.486,2,12s4.486,10,10,10s10-4.486,10-10S17.514,2,12,2z M5.553,11.105l2.459-1.229L6.445,8.832 l1.109-1.664l3,2c0.297,0.197,0.466,0.538,0.443,0.895c-0.022,0.355-0.232,0.673-0.551,0.832l-4,2L5.553,11.105z M8,17 c0,0,1-3,4-3s4,3,4,3H8z M17.553,12.895l-4-2c-0.318-0.159-0.528-0.477-0.551-0.832c-0.022-0.356,0.146-0.697,0.443-0.895l3-2 l1.109,1.664l-1.566,1.044l2.459,1.229L17.553,12.895z"/></svg>