<svg xmlns="http://www.w3.org/2000/svg" width="24" height="24" viewBox="0 0 24 24"><path d="M6.787 7h10.426c-.108-.158-.201-.331-.318-.481l2.813-2.812-1.414-1.414-2.846 2.846c-.233-.166-.473-.321-.723-.454-1.723-.91-3.726-.911-5.45 0-.25.132-.488.287-.722.453L5.707 2.293 4.293 3.707l2.813 2.812C6.988 6.67 6.896 6.842 6.787 7zM5.756 9H2v2h2.307C4.242 11.495 4.2 11.997 4.2 12.5c0 .507.042 1.013.107 1.511H2v2h2.753c.013.039.021.08.034.118.188.555.421 1.093.695 1.6.044.081.095.155.141.234l-2.33 2.33 1.414 1.414 2.11-2.111c.235.254.478.498.736.716.418.354.867.657 1.332.903.479.253.982.449 1.496.58.204.052.411.085.618.118V16h2v5.914c.207-.032.414-.065.618-.118.514-.131 1.017-.327 1.496-.58.465-.246.914-.55 1.333-.904.258-.218.5-.462.734-.716l2.111 2.111 1.414-1.414-2.33-2.33c.047-.08.098-.155.142-.236.273-.505.507-1.043.694-1.599.013-.039.021-.079.034-.118H22v-2h-2.308c.065-.499.107-1.004.107-1.511 0-.503-.042-1.005-.106-1.5H22V9h-3.756H5.756z"/></svg>