<svg xmlns="http://www.w3.org/2000/svg" width="24" height="24" viewBox="0 0 24 24"><path d="M4,20h2V10c0-0.553,0.447-1,1-1h12V7c0-0.553-0.447-1-1-1h-3.051c-0.252-2.244-2.139-4-4.449-4S6.303,3.756,6.051,6H3 C2.447,6,2,6.447,2,7v11C2,19.104,2.896,20,4,20z M10.5,4c1.207,0,2.218,0.86,2.45,2h-4.9C8.282,4.86,9.293,4,10.5,4z"/><path d="M21,11H9c-0.553,0-1,0.447-1,1v8c0,1.104,0.896,2,2,2h10c1.104,0,2-0.896,2-2v-8C22,11.447,21.553,11,21,11z M15,18 c-2.757,0-5-2.243-5-5h2c0,1.654,1.346,3,3,3s3-1.346,3-3h2C20,15.757,17.757,18,15,18z"/></svg>