<svg viewBox="0 0 24 24" xmlns="http://www.w3.org/2000/svg"><path d="M9.3349 11.5025L11.5049 11.5029C13.9902 11.5029 16.0049 13.5176 16.0049 16.0029H9.00388L9.00488 17.0029L17.0049 17.0021V16.0029C17.0049 14.9205 16.6867 13.8998 16.1188 13.0021L19.0049 13.0029C20.9972 13.0029 22.7173 14.1682 23.521 15.8543C21.1562 18.975 17.3268 21.0029 13.0049 21.0029C10.2436 21.0029 7.90445 20.4123 6.00456 19.3782L6.00592 10.074C7.25147 10.2523 8.39122 10.7586 9.3349 11.5025ZM5.00488 19.0029C5.00488 19.5552 4.55717 20.0029 4.00488 20.0029H2.00488C1.4526 20.0029 1.00488 19.5552 1.00488 19.0029V10.0029C1.00488 9.45064 1.4526 9.00293 2.00488 9.00293H4.00488C4.55717 9.00293 5.00488 9.45064 5.00488 10.0029V19.0029ZM18.0049 5.00293C19.6617 5.00293 21.0049 6.34608 21.0049 8.00293C21.0049 9.65978 19.6617 11.0029 18.0049 11.0029C16.348 11.0029 15.0049 9.65978 15.0049 8.00293C15.0049 6.34608 16.348 5.00293 18.0049 5.00293ZM11.0049 2.00293C12.6617 2.00293 14.0049 3.34608 14.0049 5.00293C14.0049 6.65978 12.6617 8.00293 11.0049 8.00293C9.34803 8.00293 8.00488 6.65978 8.00488 5.00293C8.00488 3.34608 9.34803 2.00293 11.0049 2.00293Z"/></svg>