<svg viewBox="0 0 24 24" xmlns="http://www.w3.org/2000/svg"><path d="M3.00488 3.00293H21.0049C21.5572 3.00293 22.0049 3.45064 22.0049 4.00293V20.0029C22.0049 20.5552 21.5572 21.0029 21.0049 21.0029H3.00488C2.4526 21.0029 2.00488 20.5552 2.00488 20.0029V4.00293C2.00488 3.45064 2.4526 3.00293 3.00488 3.00293ZM4.00488 5.00293V19.0029H20.0049V5.00293H4.00488ZM9.00488 13.0029H8.00488V11.0029H9.00488V10.0029C9.00488 8.06993 10.5719 6.50293 12.5049 6.50293C13.9741 6.50293 15.2319 7.40823 15.7509 8.69143L13.7644 9.18804C13.4971 8.77572 13.0329 8.50293 12.5049 8.50293C11.6765 8.50293 11.0049 9.1745 11.0049 10.0029V11.0029H14.0049V13.0029H11.0049V15.0029H16.0049V17.0029H8.00488V15.0029H9.00488V13.0029Z"/></svg>