<svg xmlns="http://www.w3.org/2000/svg" xmlns:xlink="http://www.w3.org/1999/xlink" viewBox="-4 -1 263 256">
    <defs>
        <linearGradient x1="246.287" y1="309.293" x2="344.287" y2="61.96" xlink:href="#a" gradientUnits="userSpaceOnUse" gradientTransform="matrix(1 0 0 -1 -95.525 413.639)"/>
        <linearGradient x1="425.283" y1="380.217" x2="523.283" y2="132.883" xlink:href="#b" gradientUnits="userSpaceOnUse" gradientTransform="matrix(1 0 0 -1 -95.525 413.639)"/>
        <radialGradient cx="354.779" cy="148.45" r="224.877" xlink:href="#c" gradientUnits="userSpaceOnUse" gradientTransform="matrix(1 0 0 -1 -95.525 413.639)"/>
        <linearGradient x1="393.387" y1="379.518" x2="393.998" y2="335.523" xlink:href="#d" gradientUnits="userSpaceOnUse" gradientTransform="matrix(1 0 0 -1 -95.525 413.639)"/>
        <radialGradient cx="363.576" cy="283.968" r="226.974" fx="223.237" fy="279.066" xlink:href="#e" gradientUnits="userSpaceOnUse" gradientTransform="matrix(.269 .963 .647 -.181 -112.056 -13.519)"/>
        <radialGradient cx="354.112" cy="210.617" r="87.218" xlink:href="#f" gradientUnits="userSpaceOnUse" gradientTransform="matrix(1 0 0 -1 -95.525 413.639)"/>
        <linearGradient x1="283.84" y1="247.407" x2="405.834" y2="247.407" xlink:href="#g" gradientUnits="userSpaceOnUse" gradientTransform="matrix(1 0 0 -1 -95.525 413.639)"/>
        <linearGradient x1="315.816" y1="240.502" x2="362.487" y2="240.502" xlink:href="#h" gradientUnits="userSpaceOnUse" gradientTransform="matrix(1 0 0 -1 -95.525 413.639)"/>
        <linearGradient x1="212.457" y1="195.828" x2="210.957" y2="252.828" xlink:href="#i" gradientUnits="userSpaceOnUse"/>
        <linearGradient x1="325.928" y1="150.774" x2="333.595" y2="127.44" xlink:href="#j" gradientUnits="userSpaceOnUse" gradientTransform="matrix(1 0 0 -1 -95.525 413.639)"/>
        <linearGradient x1="299.559" y1="149.418" x2="415.892" y2="114.418" xlink:href="#k" gradientUnits="userSpaceOnUse" gradientTransform="matrix(1 0 0 -1 -95.525 413.639)"/>
        <linearGradient x1="394.055" y1="195.11" x2="410.055" y2="152.11" xlink:href="#l" gradientUnits="userSpaceOnUse" gradientTransform="matrix(1 0 0 -1 -95.525 413.639)"/>
        <linearGradient x1="140.64" y1="153.574" x2="231.779" y2="153.574" xlink:href="#m" gradientUnits="userSpaceOnUse" gradientTransform="matrix(1 0 0 -1 -95.525 413.639)"/>
        <linearGradient x1="273.692" y1="99.52" x2="378.692" y2="163.52" xlink:href="#n" gradientUnits="userSpaceOnUse"/>
        <radialGradient cx="314.445" cy="191.782" r="257.587" xlink:href="#o" gradientUnits="userSpaceOnUse" gradientTransform="matrix(1 0 0 -1 -95.525 413.639)"/>
        <radialGradient cx="314.445" cy="191.781" r="257.587" xlink:href="#p" gradientUnits="userSpaceOnUse" gradientTransform="matrix(1 0 0 -1 -95.525 413.639)"/>
        <linearGradient xlink:href="#a" id="q" gradientUnits="userSpaceOnUse" gradientTransform="matrix(1 0 0 -1 -95.525 413.639)" x1="246.287" y1="309.293" x2="344.287" y2="61.96"/>
        <linearGradient xlink:href="#b" id="r" gradientUnits="userSpaceOnUse" gradientTransform="matrix(1 0 0 -1 -95.525 413.639)" x1="425.283" y1="380.217" x2="523.283" y2="132.883"/>
        <radialGradient xlink:href="#c" id="s" gradientUnits="userSpaceOnUse" gradientTransform="matrix(1 0 0 -1 -95.525 413.639)" cx="354.779" cy="148.45" r="224.877"/>
        <linearGradient xlink:href="#d" id="t" gradientUnits="userSpaceOnUse" gradientTransform="matrix(1 0 0 -1 -95.525 413.639)" x1="393.387" y1="379.518" x2="393.998" y2="335.523"/>
        <radialGradient xlink:href="#e" id="u" gradientUnits="userSpaceOnUse" gradientTransform="matrix(.269 .963 .647 -.181 -112.056 -13.519)" cx="363.576" cy="283.968" fx="223.237" fy="279.066" r="226.974"/>
        <radialGradient xlink:href="#f" id="v" gradientUnits="userSpaceOnUse" gradientTransform="matrix(1 0 0 -1 -95.525 413.639)" cx="354.112" cy="210.617" r="87.218"/>
        <linearGradient xlink:href="#g" id="w" gradientUnits="userSpaceOnUse" gradientTransform="matrix(1 0 0 -1 -95.525 413.639)" x1="283.84" y1="247.407" x2="405.834" y2="247.407"/>
        <linearGradient xlink:href="#h" id="x" gradientUnits="userSpaceOnUse" gradientTransform="matrix(1 0 0 -1 -95.525 413.639)" x1="315.816" y1="240.502" x2="362.487" y2="240.502"/>
        <linearGradient xlink:href="#i" id="y" gradientUnits="userSpaceOnUse" x1="212.457" y1="195.828" x2="210.957" y2="252.828"/>
        <linearGradient xlink:href="#j" id="z" gradientUnits="userSpaceOnUse" gradientTransform="matrix(1 0 0 -1 -95.525 413.639)" x1="325.928" y1="150.774" x2="333.595" y2="127.44"/>
        <linearGradient xlink:href="#k" id="A" gradientUnits="userSpaceOnUse" gradientTransform="matrix(1 0 0 -1 -95.525 413.639)" x1="299.559" y1="149.418" x2="415.892" y2="114.418"/>
        <linearGradient xlink:href="#l" id="B" gradientUnits="userSpaceOnUse" gradientTransform="matrix(1 0 0 -1 -95.525 413.639)" x1="394.055" y1="195.11" x2="410.055" y2="152.11"/>
        <linearGradient xlink:href="#m" id="C" gradientUnits="userSpaceOnUse" gradientTransform="matrix(1 0 0 -1 -95.525 413.639)" x1="140.64" y1="153.574" x2="231.779" y2="153.574"/>
        <linearGradient xlink:href="#n" id="D" gradientUnits="userSpaceOnUse" x1="273.692" y1="99.52" x2="378.692" y2="163.52"/>
        <radialGradient xlink:href="#o" id="E" gradientUnits="userSpaceOnUse" gradientTransform="matrix(1 0 0 -1 -95.525 413.639)" cx="314.445" cy="191.782" r="257.587"/>
        <radialGradient xlink:href="#p" id="F" gradientUnits="userSpaceOnUse" gradientTransform="matrix(1 0 0 -1 -95.525 413.639)" cx="314.445" cy="191.781" r="257.587"/>
    </defs>
    <g>
        <g transform="matrix(.569 0 0 .569 -18.524 -19.989)">
            <ellipse ry="209" rx="214.667" cy="260.19" cx="263.586" fill="#4e4a4a"/>
            <g>
                <linearGradient gradientTransform="matrix(1 0 0 -1 -95.525 413.639)" gradientUnits="userSpaceOnUse" id="a" y2="61.96" x2="344.287" y1="309.293" x1="246.287">
                    <stop offset="0" stop-color="#fff"/>
                    <stop offset=".147" stop-color="#fff" stop-opacity=".887"/>
                    <stop offset="1" stop-color="#fff" stop-opacity=".23"/>
                </linearGradient>
                <path d="M143.086 106.023s-10.499 4.833-9.166 24c1.333 19.167 8.333 29.417 18.583 42.417 10.25 13 20.75 27 18.5 37.25s-9.375 73.708 61.625 98.375l-81.625 61.375s4.25 13.75 19.5 30.75l54.917 47.667s-19.334-1.166-33.334-7c0 0 13.334 13 37.167 12.833l13.167.167-63.917-67.917s-7.251-10.916 6.083-20.583c13.334-9.667 72.667-56.5 72.667-56.5s44.75 2.583 66.75-31.917c0 0-55.75 47.249-97.75 11.583-42-35.666-45-92.666-45-92.666s-.25-10.667-7-18.417c-6.75-7.75-2.25-40.75-2.25-40.75s-8.084-37.584-28.917-30.667z" fill="url(#q)"/>
                <linearGradient gradientTransform="matrix(1 0 0 -1 -95.525 413.639)" gradientUnits="userSpaceOnUse" id="b" y2="132.883" x2="523.283" y1="380.217" x1="425.283">
                    <stop offset="0" stop-color="#fff"/>
                    <stop offset=".147" stop-color="#fff" stop-opacity=".887"/>
                    <stop offset="1" stop-color="#fff" stop-opacity=".23"/>
                </linearGradient>
                <path d="M337.003 190.94s64.5 4.5 85.5 16.25 15-2.25 12-10.5 13.75-14.75 14.75.25 2.5 30 2.25 34.25c0 0-3.75-24.75-7-31.5s-4-2.25-1 9.75 4 17.5 2.5 23.5l-81.75-25.75s-24.667-.834-27.25-16.25z" fill="url(#r)"/>
            </g>
        </g>
        <g>
            <path d="M93.002 232.328s4.979 6.401 20.057 4.552l25.036 8.393s-31.295 6.97-45.093-12.945z" fill="#112b48"/>
            <path d="M60.711 33.036l-13.276 10.622s2.845-14.984 13.276-10.622" fill="#262626"/>
            <path d="M110.665 157.979l.569-2.063s-20.366-7.374-28.616-23.448-7.539-30.299-6.686-35.42c0 0-.9-3.556-4.409-5.026-3.509-1.47-4.553 28.639 6.401 44.002 10.953 15.363 31.295 23.756 31.295 23.756l1.446-1.801z" fill="#2a4b72"/>
            <path d="M102.675 165.329s-28.023 21.622-33.144 29.446c-5.121 7.824-.379 12.945-.379 12.945s8.629 10.811 16.121 17.354c7.492 6.543 22.665 21.621 42.722 20.483l2.205-1.636 6.046 2.276s-4.623 5.263-19.915 2.347c-11.778-2.246-38.55-17.686-51.826-35.325-13.276-17.639 1.327-24.278 15.932-35.847 14.605-11.569 20.295-13.277 20.295-13.277l1.944 1.233z" fill="#2a4b72"/>
            <path d="M241.582 92.283s-.498 1.921-8.748 1.446c0 0-26.316-8.061-43.813-9.057-17.497-.996-18.207-4.789-21.337-9.72-3.129-4.932-23.899-20.295-47.417-17.829-23.518 2.466-38.645 25.985-38.645 25.985l-3.271-1.28 4.077-8.677s13.181-21.717 42.011-23.424c28.83-1.707 45.709 10.053 53.675 19.726 7.966 9.673 36.606 8.346 54.814 15.363 0 0 8.677 2.228 8.653 7.468z" fill="#162e5e"/>
            <path d="M62.133 30.689" stroke="#f05a28" stroke-width="0.528601" fill="none"/>
            <path d="M61.778 34.814s-5.405-4.836-9.744.996c-4.339 5.832-.427 19.132 2.892 25.581 3.32 6.449 6.923 12.471 8.843 15.031 0 0-5.619-5.121-10.598-12.518-4.979-7.397-8.25-14.936-6.117-24.894 2.134-9.957 11.333-9.697 14.367-8.629l.356 4.433z" fill="#2a4b72"/>
            <path d="M244.996 115.114s4.054-.143 3.296-6.212c-.758-6.069-3.794-27.857-18.019-50.475 0 0 12.517 11.214 20.104 42.699 7.587 31.484-5.382 13.988-5.382 13.988z" fill="#7f848a"/>
            <path d="M181.861 90.316s-.971 2.726-1.375 3.651c0 0 9.301 24.338-10.144 50.269l1.323.893s26.08-22.57 10.195-54.813z" fill="#7e848a"/>
        </g>
        <g transform="matrix(.569 0 0 .569 -18.524 -19.989)">
            <radialGradient gradientTransform="matrix(1 0 0 -1 -95.525 413.639)" gradientUnits="userSpaceOnUse" id="c" r="224.877" cy="148.45" cx="354.779">
                <stop offset=".091" stop-color="#d1dce7"/>
                <stop offset=".444" stop-color="#cfdae5"/>
                <stop offset=".636" stop-color="#c9d3dd"/>
                <stop offset=".747" stop-color="#c0c9d2"/>
                <stop offset=".941" stop-color="#a9afb5"/>
                <stop offset="1" stop-color="#a1a6ab"/>
            </radialGradient>
            <path d="M445.586 147.857s78 104 3.99 222.97c-40.724 65.46-117.333 96.499-165 99.499s-95.875-45.375-105.75-55-15.75-21.124-3-31.999 84.417-65.334 84.417-65.334 44.76 3.447 78.01-36.303c33.25-39.75 13.917-87.833 13.917-87.833s4 4.333 8.333 5.999c4.333 1.668 19.75 3.834 39.375 9.334s51.625 17.5 63.25 27.25 11.063-3.979 9.625-13.416c-7.333-48.167-27.167-75.167-27.167-75.167z" fill="url(#s)"/>
            <linearGradient gradientTransform="matrix(1 0 0 -1 -95.525 413.639)" gradientUnits="userSpaceOnUse" id="d" y2="335.523" x2="393.998" y1="379.518" x1="393.387">
                <stop offset="0" stop-color="#647fad"/>
                <stop offset=".376" stop-color="#516fa2"/>
                <stop offset="1" stop-color="#2a4c8a"/>
            </linearGradient>
            <path d="M170.253 179.065s2.313-4.75-1.875-12.125c-4.188-7.375-37.792-59.751-26.458-90.417 0 0 57.333-39.333 136.833-30.833s125 49.5 145 72.5 34.167 65.667 35.167 72.334c1 6.667-1.501 10.332-10.334 5.499-8.833-4.833-19.666-8.333-39.833-13.333-20.167-5-42.499-7-50.833-7.5-8.334-.5-13.833.001-19.083-6.166-5.25-6.167-26.917-38.835-76.917-41.501-50-2.666-83.001 33.084-91.667 51.542z" fill="url(#t)"/>
            <radialGradient gradientTransform="matrix(.269 .963 .647 -.181 -112.056 -13.519)" gradientUnits="userSpaceOnUse" id="e" fy="279.066" fx="223.237" r="226.974" cy="283.968" cx="363.576">
                <stop offset="0" stop-color="#93bef2"/>
                <stop offset=".143" stop-color="#80b3ef"/>
                <stop offset=".432" stop-color="#5095e8"/>
                <stop offset=".449" stop-color="#4d93e8"/>
                <stop offset=".601" stop-color="#4d92e5"/>
                <stop offset=".716" stop-color="#4f8fdb"/>
                <stop offset=".819" stop-color="#5189cb"/>
                <stop offset=".857" stop-color="#5286c3"/>
            </radialGradient>
            <path d="M229.815 313.815s-55.188 36.875-76.688 59.063c-9.185 9.478-18.875 13.563.875 38.313s57.5 55.25 91 58.5c0 0 5.667 3.417 12.584 3.584 0 0-80.667 6.583-146-49.417s-98.246-147.845-67.333-232c20.31-55.288 54.499-84.167 70.124-96.292 8.442-6.552 15.876-7.541 15.876-7.541s-17.584 5.833-11.667 31.083c5.104 21.784 16.166 38.833 21.666 44.833s20.667 23.917 21.167 34.25c.5 10.333-8.833 41.333 13.5 75s54.896 40.624 54.896 40.624z" fill="url(#u)"/>
            <radialGradient gradientTransform="matrix(1 0 0 -1 -95.525 413.639)" gradientUnits="userSpaceOnUse" id="f" r="87.218" cy="210.617" cx="354.112">
                <stop offset="0" stop-color="#b1def4"/>
                <stop offset=".12" stop-color="#9bcef2"/>
                <stop offset=".37" stop-color="#62a5ec"/>
                <stop offset=".442" stop-color="#5098ea"/>
                <stop offset=".691" stop-color="#0b86d2"/>
                <stop offset=".732" stop-color="#0f7fc5"/>
                <stop offset=".808" stop-color="#186da2"/>
                <stop offset=".91" stop-color="#274f69"/>
                <stop offset="1" stop-color="#363232"/>
            </radialGradient>
            <ellipse ry="80" rx="86.334" cy="226.524" cx="259.586" fill="url(#v)"/>
        </g>
        <g>
            <path d="M223.48 48.319c2.942 5.115 12.322 21.734 14.474 29.384 2.56 9.104 4.268 14.936-.569 12.091-4.836-2.845-35.42-10.1-45.733-10.882-10.313-.782-15.15-.782-16.501-2.987 0 0-14.296-24.396-48.294-24.396s-48.08 28.45-48.08 28.45l.308.485c5.865-10.808 24.217-29.342 51.424-27.892 28.45 1.517 40.779 20.105 43.766 23.614 2.987 3.509 6.116 3.224 10.858 3.508 4.742.284 17.449 1.422 28.924 4.268 11.475 2.845 17.639 4.836 22.665 7.586s6.449.665 5.88-3.129c-.554-3.695-8.213-26.806-19.121-40.1z" opacity=".5" fill="#fff"/>
            <path d="M241.368 114.119c4.457 3.225 4.457 1.896 4.457 1.896-.851-1.016-1.752-1.965-2.691-2.86-7.428-5.065-22.724-10.811-32.997-13.791-6.637-1.123-12.459-1.724-16.066-2.74 0 0-6.093-1.185-11.024-4.599 0 0 .353 1.769.648 4.665 2.059 9.425 3.562 27.689-9.752 43.605-18.919 22.618-44.388 20.656-44.388 20.656s-40.779 30.987-48.033 37.175c-7.255 6.188-3.912 12.731 1.707 18.207 4.966 4.841 26.969 26.899 50.741 30.783.695.068 1.347.119 1.945.151 0 0-23.993-5.548-37.649-18.777-13.656-13.229-23.613-19.346-15.221-26.174 8.393-6.828 49.218-40.257 49.218-40.257s25.254 1.243 44.335-23.755c15.908-20.84 7.942-44.098 7.942-44.098s10.005 5.263 17.094 5.405c14.033.28 35.277 11.283 39.734 14.507z" opacity=".5" fill="#fff"/>
            <path d="M249.043 99.148c-6.643-23.117-9.061-23.685-12.689-32.932 3.557 6.046 9.424 16.252 12.689 32.932z" fill="#fff"/>
            <path d="M60.142 72.084l-.162-.347c-3.341-4.309-8.484-13.098-11.028-23.954-2.862-12.211 3.933-16.439 6.038-17.434-9.245 2.925-8.92 9.469-5.659 22.602 3.319 13.371 10.811 19.133 10.811 19.133z" opacity=".8" fill="#fff"/>
            <path d="M60.711 72.084" stroke="#be1e2d" stroke-width="0.528601" fill="none"/>
            <path d="M56.064 30.191" stroke="#be1e2d" stroke-width="0.528601" fill="none"/>
            <path d="M69.104 213.978c-2.011-2.521-3.478-4.659-4.514-6.511-.691-.723-1.332-1.08-1.673-.459-.782 1.422 1.636 3.841 1.636 3.841 24.467 32.433 54.339 37.269 54.339 37.269-5.041-1.366-9.875-3.349-14.427-5.697-13.943-6.534-27.292-18.331-35.361-28.443z" opacity=".5" fill="#fff"/>
            <path d="M133.685 63.762c-1.629-.215-3.216-.332-4.764-.372-4.831.023-9.495.695-13.9 1.922-17.328 5.4-26.714 20.214-26.714 20.214s15.977-24.849 50.072-20.199c32.338 4.41 38.123 37.127 38.123 37.127s-2.444-33.374-42.817-38.692z" opacity=".6" fill="#fff"/>
            <path d="M72.66 65.327c-3.698-7.397-12.992-26.126-10.669-39.688 0 0-.331.58-.741 1.679-2.644 16.023 10.871 38.991 15.064 46.038-.906-2.201-2.126-4.972-3.654-8.029z" opacity=".6" fill="#fff"/>
        </g>
        <g transform="matrix(.569 0 0 .569 -18.524 -19.989)">
            <linearGradient gradientTransform="matrix(1 0 0 -1 -95.525 413.639)" gradientUnits="userSpaceOnUse" id="g" y2="247.407" x2="405.834" y1="247.407" x1="283.84">
                <stop offset="0"/>
                <stop offset=".075" stop-color="#000916"/>
                <stop offset=".233" stop-color="#002150"/>
                <stop offset=".458" stop-color="#0046ab"/>
                <stop offset=".527" stop-color="#0052c9"/>
                <stop offset=".994"/>
            </linearGradient>
            <path d="M307.007 159.683c-77.92-37.325-118.691 25.008-118.691 25.008 7-7.375 31.188-17.5 31.188-17.5 31.25-20.5 58.625-5.75 61.125-4.125s11.125 2.75 16.5.25c4.021-1.871 10.281-1.712 13.18-1.513-1.083-.73-2.183-1.438-3.302-2.12z" opacity=".52" fill="url(#w)"/>
            <path d="M220.628 166.44s26.709-15.25 55.042-5.833c0 0-26.25-12-55.042 5.833z" opacity=".4" fill="#fff"/>
            <linearGradient gradientTransform="matrix(1 0 0 -1 -95.525 413.639)" gradientUnits="userSpaceOnUse" id="h" y2="240.502" x2="362.487" y1="240.502" x1="315.816">
                <stop offset=".006" stop-color="#b1def4"/>
                <stop offset="1" stop-color="#b1def4" stop-opacity=".07"/>
            </linearGradient>
            <path d="M266.961 163.69s-24.375 3.25-36.75 14.75-11.625 1.875-6.125-3.375 19.625-16.375 42.875-11.375z" opacity=".52" fill="url(#x)"/>
            <linearGradient gradientUnits="userSpaceOnUse" id="i" y2="252.828" x2="210.957" y1="195.828" x1="212.457">
                <stop offset=".006" stop-color="#b1def4"/>
                <stop offset="1" stop-color="#b1def4" stop-opacity=".07"/>
            </linearGradient>
            <path d="M228.253 169.523s-21.666 16.667-21.333 54.667c.333 38-10.168 8.5-10.334 3-.166-5.5.834-49.167 31.667-57.667z" opacity=".52" fill="url(#y)"/>
            <linearGradient gradientTransform="matrix(1 0 0 -1 -95.525 413.639)" gradientUnits="userSpaceOnUse" id="j" y2="127.44" x2="333.595" y1="150.774" x1="325.928">
                <stop offset=".006" stop-color="#647fad"/>
                <stop offset=".225" stop-color="#5c7197"/>
                <stop offset=".679" stop-color="#464d5e"/>
                <stop offset="1" stop-color="#363232"/>
            </linearGradient>
            <path d="M185.253 204.94s-6.167 35.417 10 44.75c0 0 21.75 50.5 80.25 26.75 0 0-8.417 9.75-10.25 16.75 0 0-97 17.166-80-88.25z" opacity=".29" fill="url(#z)"/>
            <linearGradient gradientTransform="matrix(1 0 0 -1 -95.525 413.639)" gradientUnits="userSpaceOnUse" id="k" y2="114.418" x2="415.892" y1="149.418" x1="299.559">
                <stop offset=".006" stop-color="#647fad"/>
                <stop offset=".225" stop-color="#5c7197"/>
                <stop offset=".679" stop-color="#464d5e"/>
                <stop offset="1" stop-color="#363232"/>
            </linearGradient>
            <path d="M275.503 276.44c-58.5 23.75-80.25-26.75-80.25-26.75-1.127-.556-2.151-1.215-3.085-1.961 13.465 48.423 64.84 39.194 77.832 36.019 2.716-4.077 5.503-7.308 5.503-7.308z" opacity=".38" fill="url(#A)"/>
            <path d="M195.253 249.69s-13.333-9.75-10.249-41.083c0 0-5.917 30.083 10.249 41.083z" opacity=".4" fill="#fff"/>
            <linearGradient gradientTransform="matrix(1 0 0 -1 -95.525 413.639)" gradientUnits="userSpaceOnUse" id="l" y2="152.11" x2="410.055" y1="195.11" x1="394.055">
                <stop offset=".006" stop-color="#64b0ad"/>
                <stop offset=".221" stop-color="#5c9a97"/>
                <stop offset=".665" stop-color="#476160"/>
                <stop offset="1" stop-color="#363232"/>
            </linearGradient>
            <path d="M286.253 289.69s5-20.25 25-35.75 17.75-50.75.5-71.75c0 0 27 15.5 29 58.5 0 0-16.5 41.25-54.5 49z" opacity=".38" fill="url(#B)"/>
            <path d="M321.237 190.247c-4.545-4.865-8.323-7.344-9.251-7.916l.347.6c16.709 21.078 18.689 55.688-1.079 71.01-4.661 3.612-8.498 7.481-11.656 11.293-1.293 1.751-2.094 2.707-2.094 2.707s30-4.75 33-40c1.572-18.491-3.802-30.472-9.267-37.694z" opacity=".14" fill="#fff"/>
            <path d="M312.087 182.69s30.5 40.5-.417 71.167c0 0 28.583-25.834.417-71.167z" opacity=".4" fill="#fff"/>
        </g>
        <g transform="matrix(.569 0 0 .569 -18.524 -19.989)">
            <linearGradient gradientTransform="matrix(1 0 0 -1 -95.525 413.639)" gradientUnits="userSpaceOnUse" id="m" y2="153.574" x2="231.779" y1="153.574" x1="140.64">
                <stop offset="0" stop-color="#fff"/>
                <stop offset=".77" stop-color="#fff" stop-opacity="0"/>
                <stop offset="1" stop-color="#fff" stop-opacity="0"/>
            </linearGradient>
            <path d="M82.253 142.19c8.131-12.199 22.5-27.125 29.25-34.5 0 0-68.75 70-57.916 165.501 10.204 89.952 82.667 134.666 82.667 134.666l-12.251 4.583s-145.079-115.225-41.75-270.25z" opacity=".5" fill="url(#C)"/>
            <path d="M32.587 94.857" stroke="#f05a28" stroke-width=".929" fill="none"/>
            <path d="M113.815 116.815s-7.396 3.293-13.646 11.876c-6.25 8.583-7.418 14.916-7.334 21.416.084 6.5.584 12.5 6.417 14.5s7-4.917 13.5-7.25 9.916-.582 10.583 1.084c.667 1.666 3.001 6.332 12.584 5.249.001 0-22.041-18.417-22.104-46.875z" opacity=".5" fill="#fff"/>
            <path d="M153.086 126.774s8.417-30.084-11.458-29.334c0 0 2.875 14 6.25 21.125s3.666 7.918 5.208 8.209z" opacity=".5" fill="#fff"/>
            <path d="M184.504 79.523s-3.001-5.999-15.084.584c-12.083 6.583-15.917 10.583-14 17.083 1.917 6.5 7.084 5.749 14.584-.917 7.5-6.666 18.417-10.417 14.5-16.75z" opacity=".5" fill="#fff"/>
            <linearGradient gradientUnits="userSpaceOnUse" id="n" y2="163.52" x2="378.692" y1="99.52" x1="273.692">
                <stop offset=".006" stop-color="#fff"/>
                <stop offset="1" stop-color="#b1def4" stop-opacity=".07"/>
            </linearGradient>
            <path d="M400.128 108.315s-112.875-114.625-259.375-17.625c0 0 .75 3.25 3.625 1.5s48.875-34.5 113.375-33.25 105.75 32.25 114.25 40.25 30.833 29.749 28.125 9.125z" opacity=".3" fill="url(#D)"/>
            <g fill="#fff">
                <path d="M56.253 346.19l-.335-.377c.219.28.335.377.335.377z" opacity=".5"/>
                <path d="M111.42 100.69c3.543-3.985 6.275-6.784 8.067-8.541-1.621.927-3.341 2.043-5.109 3.416-7.748 6.013-20.062 16.15-32.981 31.578-6.156 8.304-12.81 18.413-19.81 30.714-19.122 33.604-27.068 63.375-28.751 89.326-.419 7.546-.387 15.078.063 22.567.823 11.626 2.797 22.332 5.354 32.105 8.263 31.576 15.998 41.983 17.665 43.956-1.607-2.047-8.823-13.961-17.332-70.29-9.667-64 32.168-126.5 39.001-137.5 6.833-11 27.167-29.831 33.833-37.331z" opacity=".5"/>
            </g>
            <g opacity=".4">
                <radialGradient gradientTransform="matrix(1 0 0 -1 -95.525 413.639)" gradientUnits="userSpaceOnUse" id="o" r="257.587" cy="191.782" cx="314.445">
                    <stop offset="0" stop-color="#fff"/>
                    <stop offset=".739" stop-color="#fff" stop-opacity=".39"/>
                    <stop offset=".861" stop-color="#fff" stop-opacity=".29"/>
                    <stop offset=".88" stop-color="#fff" stop-opacity=".334"/>
                    <stop offset="1" stop-color="#fff" stop-opacity=".6"/>
                </radialGradient>
                <path d="M257.587 473.274c-6.917-.167-12.584-3.584-12.584-3.584-23.012-2.232-48.028-17.323-67.84-34.576-80.047-25.709-124.41-89.424-124.41-89.424l.363 1.688c13.733 29.044 33.785 55.32 58.471 76.479 65.333 56 146 49.417 146 49.417z" fill="url(#E)"/>
                <radialGradient gradientTransform="matrix(1 0 0 -1 -95.525 413.639)" gradientUnits="userSpaceOnUse" id="p" r="257.587" cy="191.781" cx="314.445">
                    <stop offset="0" stop-color="#fff"/>
                    <stop offset=".739" stop-color="#fff" stop-opacity=".39"/>
                    <stop offset=".861" stop-color="#fff" stop-opacity=".29"/>
                    <stop offset=".88" stop-color="#fff" stop-opacity=".334"/>
                    <stop offset="1" stop-color="#fff" stop-opacity=".6"/>
                </radialGradient>
                <path d="M480.706 280.62c-14.919 36.325-76.471 144.068-202.453 162.569-24.105 3.54-46.484 3.104-67.047-.048 20.161 14.616 46.848 28.853 73.37 27.184 47.667-3 124.276-34.039 165-99.499 19.716-31.692 28.641-62.321 31.13-90.206z" fill="url(#F)"/>
            </g>
            <path d="M174.92 273.19c-22.333-33.667-13-64.667-13.5-75-.22-4.533-3.262-10.524-7.072-16.331-6.062 13.485-9.429 28.361-9.429 43.998 0 44.582 27.317 83.001 66.677 100.53 10.637-7.505 18.22-12.572 18.22-12.572s-32.563-6.958-54.896-40.625z" opacity=".6" fill="#fff"/>
            <path d="M361.697 175.453c-18.999-35.777-57.593-60.264-102.11-60.264-38.846 0-73.175 18.646-93.917 47.167 1.25 2.113 2.199 3.686 2.709 4.583 4.188 7.375 1.875 12.125 1.875 12.125 8.666-18.458 41.667-54.208 91.667-51.542 50 2.666 71.667 35.334 76.917 41.501 5.25 6.167 10.749 5.666 19.083 6.166 1.047.064 2.317.151 3.776.264z" opacity=".6" fill="#fff"/>
            <path d="M259.586 336.524c63.329 0 114.667-49.547 114.667-110.667 0-8.012-.89-15.82-2.565-23.349-5.408-1.126-9.321-1.937-11.185-2.652-4.333-1.666-8.333-5.999-8.333-5.999s19.333 48.083-13.917 87.833-78.01 36.303-78.01 36.303-9.316 7.078-21.828 16.643c6.862 1.235 13.938 1.888 21.171 1.888z" opacity=".6" fill="#fff"/>
        </g>
        <g>
            <path d="M254.029 139.724s-1.707-15.007-12.945-15.932c0 0 4.125 52.632-54.244 86.678 0 0 11.191 13.086 6.165 20.863 0 0 2.56-9.293-8.156-21.242 0 0 54.671-24.42 55.667-87.437 0 0 12.233.379 13.514 17.07z" opacity=".21"/>
            <path d="M193.573 231.333s4.362-6.353-6.734-20.863c0 0 53.865-27.028 54.244-86.678 0 0 9.957-.57 12.945 15.932 0 0-4.695-14.888-12.186-14.509 0 0 4.363 51.115-53.39 84.733 0 0 11.878 15.41 5.121 21.385z" opacity=".82" fill="#d9dde2"/>
            <path d="M177.712 239.441s2.016-12.281-6.899-22.238c0 0-16.122 6.259-27.407 7.397 0 0 2.56 13.183 14.983 20.959 0 0-9.293-5.5-13.276-19.63 0 0 16.406-2.56 25.51-7.492 0 0 6.401 3.887 7.089 21.005z" opacity=".21"/>
            <path d="M158.389 245.558s-10.526-9.769-11.949-18.967c0 0 18.659-3.544 24.597-7.841 0 0 5.796 10.021 6.674 20.691 0 0 .024-14.841-7.089-21.005 0 0-13.845 6.165-25.51 7.492 0 0 3.982 14.225 13.276 19.63z" opacity=".82" fill="#d9dde2"/>
        </g>
    </g>
</svg>
