<svg xmlns="http://www.w3.org/2000/svg" xmlns:xlink="http://www.w3.org/1999/xlink" viewBox="0 10 498 498"><defs><linearGradient id="A" x1="294.73" x2="215.7" y1="480.99" y2="32.77" xlink:href="#I"><stop offset="0" stop-color="#1b1b1b"/><stop offset=".07" stop-color="#414141"/><stop offset=".35" stop-color="#8e8d8d"/><stop offset="1" stop-color="#d3d3d3"/></linearGradient><linearGradient id="B" x1="287.02" x2="223.63" y1="436.52" y2="77.01" xlink:href="#I"><stop offset="0" stop-color="#b6b5b5"/><stop offset=".57" stop-color="#959595"/><stop offset="1" stop-color="#5d5d5d"/></linearGradient><linearGradient id="C" x1="293.64" x2="216.92" y1="474.28" y2="39.19" xlink:href="#I"><stop offset="0" stop-color="#a9a9a9"/><stop offset=".15" stop-color="#dbdbdb"/><stop offset=".35" stop-color="#b4b4b4"/><stop offset=".35" stop-color="#b5b5b5"/><stop offset=".53" stop-color="#d4d4d4"/><stop offset=".7" stop-color="#ebebeb"/><stop offset=".86" stop-color="#f8f8f8"/><stop offset="1" stop-color="#fdfdfd"/></linearGradient><linearGradient id="D" x1="254.94" x2="254.94" y1="442.63" y2="69.72" xlink:href="#I"><stop offset="0" stop-color="#fdfdfd"/><stop offset=".66" stop-color="#f9f9f9"/><stop offset="1" stop-color="#a6a6a6"/></linearGradient><linearGradient id="E" x1="294.09" x2="216.56" y1="476.31" y2="36.64" xlink:href="#I"><stop offset="0" stop-color="#636363"/><stop offset=".34" stop-color="#f9f9f9"/><stop offset="1" stop-color="#fdfdfd"/></linearGradient><linearGradient id="F" x1="254.91" x2="254.91" y1="4315.4" y2="-6072.5" xlink:href="#I"><stop offset="0"/><stop offset="1" stop-color="#999"/></linearGradient><filter id="G" width="1.16" height="3.15" x="-.08" y="-1.07"><feGaussianBlur stdDeviation="8.66"/></filter><filter id="H" width="1.15" height="3.18" x="-.08" y="-1.09"><feGaussianBlur stdDeviation="8.78"/></filter><linearGradient id="I" gradientUnits="userSpaceOnUse"/></defs><path d="M252.58 471.93a136.64 9.67 0 11-.76 0l1.75 9.67z" filter="url(#H)" opacity=".4" transform="matrix(1.035 0 0 -.853 -7.86 890.88)"/><path d="M385.53 481.6a131.96 9.67 0 11-263.93 0 131.96 9.67 0 11263.93 0z" filter="url(#G)" transform="matrix(.63 0 0 -.455 94.55 699.54)"/><path fill="url(#A)" d="M255.07 29.74c-135.04 0-212.62 101.43-212.62 224.88 0 126.54 79.72 229.7 212.1 229.7 133.43 0 212.78-103.77 212.78-229.5 0-123.16-77.22-225.1-212.26-225.1zm0 400.86c-46.14 0-78.75-34.35-78.75-174.1 0-147.9 32.6-176.33 78.75-176.33s78.76 28.44 78.76 176.34c0 139.77-32.6 174.1-78.76 174.1z"/><path fill="url(#B)" d="M255.07 72.98c-48.1 0-86.74 30.16-86.74 184.7 0 145.98 36.82 183.17 86.74 183.17s86.96-40.2 86.96-186.18c0-151.34-38.87-181.7-86.96-181.7zm-.35 356.06c-45.22 0-77.5-34.04-77.5-174.42 0-142.37 32.06-170.12 77.28-170.12 46.2 0 77.1 25.34 77.1 172.96 0 138.67-31.66 171.58-76.88 171.58z"/><path fill="url(#C)" d="M255.07 35.97c-125.48 0-198.18 97.8-198.18 218.77 0 118.24 75.36 223.13 198.15 223.13 122.8 0 197.85-103.64 197.85-221.88 0-121-72.35-220.05-197.84-220.05zm-.44 406.28c-54.6 0-88.1-45.5-88.1-186.16 0-149.54 36.15-182.8 88.05-182.8S341 105 341 254.5c0 140.66-31.77 187.75-86.38 187.75z"/><path fill="url(#D)" d="M254.54 69.72c-53.3 0-89.3 38.45-89.3 184.66 0 144.56 35.1 188.25 89.57 188.25 54.25 0 89.86-42.95 89.86-186.53 0-137.2-29.4-186.38-90.1-186.38zm.5 369.43c-51.37 0-86.3-36.56-86.3-184.52 0-154.36 39.23-181.17 85.85-181.17 50.02 0 86.45 31.26 86.45 181.14 0 149.23-36.3 184.55-86.02 184.55z"/><path fill="url(#E)" d="M254.58 476.17c-123.48 0-196.9-100.42-196.9-220.97 0-120.65 71.93-218.97 197-218.97 125.06 0 198.15 97.96 198.15 218.6 0 117.94-74.18 221.34-198.25 221.34zm-.02-442.68C126.2 33.5 53.4 134.5 53.4 254.8c0 122.42 75.84 225.03 201.45 225.03 125.6 0 201.82-103.3 201.82-224.86 0-121-72.83-221.5-202.1-221.5z"/><g opacity=".2" fill="none" stroke="#000" stroke-width=".5"><path d="M254.9 435.18c-48.58 0-82.9-35.2-82.9-178.42 0-151.58 36.1-179.42 82.9-179.42 46.82 0 82.93 27.84 82.93 179.42 0 143.2-34.33 178.42-82.92 178.42zm0-2.75c-46.96 0-80.14-34.7-80.14-175.8 0-149.34 33.2-175.78 80.15-175.78s80.2 26.44 80.2 175.8c0 141.1-33.2 175.78-80.17 175.78zm-22-7.63l-.38 2.5-1.35 6.42-.96 3.1-12.15 35.43-1.96 4.2-2.2 3.28m26.2-53.37l-.25 2.44-.9 6.33-.64 3.07-8.1 35.3-1.3 4.28-1.5 3.47m19.9-53.34l-.14 2.4-.45 6.26-.3 3.06-4.07 35.2-.66 4.35-.73 3.65m13.54-53.33v54.85m7.4-56.43l.12 2.4.43 6.23.32 3.06 4.06 35.2.67 4.33.73 3.65m1.05-56.45l.25 2.44.9 6.33.65 3.06 8.12 35.3 1.3 4.28 1.46 3.47m-5.27-56.46l.38 2.5 1.35 6.42.93 3.1 12.18 35.42 1.97 4.2 2.18 3.28m-11.6-56.5l.5 2.53 1.8 6.52 1.27 3.1 16.24 35.56 2.6 4.12 2.93 3.1m-19.8-60.02l.7 2.44 2.23 6.35 1.5 3 21.26 36.45 3 3.9 3.5 3.02m-26.63-60.2l.86 2.34 2.7 6.15 1.74 2.9 26.27 37.37 3.44 3.7 4.06 2.9M300.8 408l1.04 2.25 3.16 5.96 1.96 2.8 31.28 38.28 3.86 3.5 4.62 2.8M306.38 403l1.2 2.15 3.6 5.77 2.2 2.65 36.3 39.2 4.28 3.27 5.18 2.7m-49.5-62.64l1.28 2.07 3.9 5.4 2.32 2.4 43.26 38.42 4.4 3 5.73 2.57M312.9 389.2l1.32 1.98 4.18 5.02 2.47 2.18L371.1 436l4.53 2.7 6.3 2.45m-65.78-58.88l1.42 1.9 4.47 4.64 2.6 1.96 57.2 36.84 4.63 2.4 6.84 2.33m-73.9-57l1.5 1.8 4.77 4.3 2.72 1.7 64.15 36.07 4.77 2.12 7.4 2.2m-83.2-57l1.52 1.7 4.88 4.02 2.8 1.56 70.22 33.5 4.8 1.83 7.9 1.95m-90.07-53.4l1.58 1.66 5 3.73 2.9 1.4 76.26 30.96 4.85 1.53 8.37 1.7m-96.87-49.8l1.6 1.6 5.12 3.47 3 1.26 82.3 28.36 4.88 1.22 8.83 1.42m-103.7-46.17l1.66 1.5 5.24 3.2 3.08 1.1L426 371.7l4.92.93 9.3 1.17M328.7 329.2l1.73 1.4 5.33 2.82 3.14.96 92.1 23.14 4.87.8 9.6.9m-115.77-40.9l1.82 1.3 5.4 2.46 3.2.8 95.9 20.45 4.8.68 9.87.68m-119.97-37.2l1.9 1.16 5.47 2.1 3.27.68 99.67 17.74 4.74.56 10.13.38m-124.1-33.47l2 1.04 5.54 1.72 3.32.52L446.1 315l4.7.42 10.4.13M331.94 286.1l2.07.77 5.64 1.3 3.35.4 104.4 11.28 4.72.32 10.5.1m-130.56-24.72l2.16.53 5.73.87 3.38.26 105.38 7.55 4.77.2L464 285m-131.86-19.98l2.24.26 5.84.44 3.4.13 111.13 3.9 10.64.03M332.25 254.5H466.8m-134.66-10.94l1.95-.16 5.77-.33 3.48-.13 111.5-3.75 10.4-.1m-133.22-6.5l1.9-.32 5.68-.66 3.43-.28 105.7-7.3 4.64-.18 10.32-.13m-131.8-2.07l1.82-.5 5.6-.97 3.38-.4 104.6-10.95 4.6-.27 10.26-.18m-130.38 2.36l1.77-.67 5.5-1.3 3.34-.54 103.46-14.6 4.56-.38 10.16-.25m-129.9 7.32l1.73-.84 5.4-1.66 3.26-.68L440.8 180l4.62-.5 10.02-.46M329.6 190l1.72-1 5.3-2.06 3.15-.8 95.95-19.84 4.68-.6 9.88-.7M328.5 179.6l1.72-1.18 5.2-2.43 3.05-.9 92.2-22.5 4.74-.73 9.77-.92m-117.7 18.2l1.68-1.35 5.1-2.8 2.95-1.02 88.4-25.1 4.8-.86 9.63-1.13m-114.58 23.64l1.65-1.4 4.98-3 2.83-1.15 82.5-27.67 4.84-1.1 9.05-1.34M323.48 151.9l1.6-1.48 4.9-3.2 2.7-1.26 76.58-30.22 4.8-1.35 8.5-1.54m-101.1 30.43l1.58-1.55 4.77-3.4 2.6-1.37 70.6-32.8 4.8-1.6 7.96-1.75m-94.32 33.87l1.53-1.62 4.65-3.57 2.46-1.5 64.73-35.4 4.84-1.84 7.4-2M316.16 128l1.46-1.74 4.45-3.96 2.3-1.65L382.2 84.4l4.56-2.03 6.9-2.14m-80.75 41l1.4-1.87 4.27-4.33 2.13-1.8 50.9-37.02 4.3-2.2 6.4-2.3m-72.66 42.83l1.32-1.98 4.05-4.72 1.98-1.95 43.97-37.82 4.07-2.4 5.93-2.5m-64.58 44.67l1.25-2.12 3.84-5.1 1.8-2.1 37.05-38.63 3.8-2.58 5.44-2.7m-58.73 48.6l1.08-2.2 3.4-5.58 1.66-2.32 31.93-37.65 3.45-2.8 4.9-2.68M295.28 98.5l.88-2.25 2.95-6.06 1.5-2.54L327.43 51l3.08-3.03 4.36-2.66m-45.13 48.55l.7-2.3 2.5-6.55 1.36-2.7 21.65-35.7 2.7-3.26 3.83-2.64m-38.3 48.5l.5-2.38 2.05-7 1.23-2.93 16.55-34.7 2.35-3.5 3.27-2.6m-14.04-1.64l-2.46 2.92-1.76 3.56-12.4 34.7-.93 2.9-1.54 6.92-.38 2.34m5.44-54.96l-1.66 3.2-1.16 3.65L271 74.45l-.62 2.88-1.03 6.83-.25 2.32m-1.06-55.2l-.82 3.5-.58 3.7-4.14 34.75-.3 2.86-.53 6.75-.13 2.28M254 29.63V83.7m-7.1 1.42l-.12-2.37-.5-6.7-.32-2.86-4.13-34.7-.54-3.58-.87-3.66m-.62 55.26l-.25-2.42-1.02-6.8-.6-2.87-8.27-34.66-1.07-3.5-1.68-3.4m5.84 55.08l-.4-2.47-1.54-6.9-.92-2.9-12.37-34.63-1.6-3.45-2.53-3.1m12.3 54.87l-.54-2.52-2.05-7-1.2-2.93-16.53-34.6-2.14-3.4-3.36-2.82m20.23 57.96l-.7-2.43-2.45-6.62-1.37-2.7-21.64-35.6-2.6-3.2-3.82-2.8m26.94 58.1l-.88-2.35-2.8-6.24-1.52-2.5-26.73-36.63-3.03-3-4.3-2.8m33.65 58.23l-1.06-2.26-3.2-5.87-1.67-2.32-31.83-37.6-3.47-2.8-4.78-2.8m40.37 58.34l-1.24-2.18-3.57-5.48-1.8-2.12-36.94-38.62-3.93-2.57-5.22-2.8m49.47 60.5l-1.3-2.04-3.8-5.1-1.97-1.98L149 68l-4.15-2.4-5.76-2.6m57.62 58.66l-1.37-1.96-4.05-4.72-2.12-1.8-50.83-37-4.37-2.2-6.3-2.4m65.83 56.8l-1.43-1.85-4.3-4.32-2.3-1.64-57.77-36.2-4.6-2.03-6.85-2.17m74.02 54.97l-1.53-1.76-4.52-3.92-2.46-1.5L117 92.53l-4.8-1.83-7.4-1.98m83.47 54.88l-1.57-1.65-4.68-3.65-2.6-1.37-70.64-32.82-4.8-1.6-7.98-1.7m90.26 51.37l-1.6-1.55-4.82-3.36-2.7-1.26-76.6-30.25-4.8-1.35-8.5-1.55m97.05 47.8l-1.67-1.44-4.96-3.1-2.85-1.13-82.5-27.67-4.8-1.1-9.06-1.36m103.82 44.3l-1.7-1.36-5.1-2.8-2.96-1.03-88.42-25.1-4.8-.86-9.62-1.15m111.5 42.85l-1.7-1.26-5.2-2.52-3.05-.9-92.2-22.47-4.75-.74-9.74-.9m115.55 39.4l-1.74-1.2-5.28-2.23-3.13-.8L74 166.22l-4.7-.6-9.88-.7m119.6 35.95l-1.75-1.1-5.4-1.97-3.2-.67-99.75-17.22-4.62-.5-10.02-.44M178 211.42l-1.78-1.03-5.5-1.7-3.27-.55-103.54-14.6-4.55-.37-10.16-.25m128.5 29.2l-1.87-.76-5.6-1.27-3.3-.4-104.46-10.96-4.6-.28-10.23-.2m129.78 24.6l-1.93-.5-5.7-.84-3.33-.27-105.4-7.3-4.64-.2-10.3-.1m131 19.96l-2-.24-5.8-.4-3.34-.14-106.35-3.65-4.68-.1-10.36-.04m132.25 15.36H43M177.05 265l-2.02.23-5.9.43-3.44.15-106.5 3.8-4.8.1-9.85.06m132.72 5.84l-1.96.47-5.76.86-3.4.3-105.47 7.5-4.75.22-9.8.1m131.38 1.1l-1.87.7-5.66 1.3-3.36.43-104.4 11.25-4.72.32-9.74.13m130.06-3.6l-1.8.94-5.54 1.72-3.32.56L63.7 314.94l-4.68.43-9.68.18m129.58-7.93l-1.77 1.02-5.48 2.04-3.25.7-99.7 17.74-4.74.55-9.5.42M180 318.52l-1.73 1.1-5.4 2.36-3.2.83-95.9 20.45-4.8.65-9.3.66m121.46-15.15l-1.72 1.2-5.3 2.66-3.13.98-92.15 23.14-4.86.8-9.1.9m117.4-18.74l-1.7 1.3-5.27 2.98-3.07 1.1-88.37 25.84-4.94.92-8.93 1.15m114.26-24.6l-1.65 1.43-5.14 3.3-2.94 1.25-82.3 28.45-4.9 1.22-8.5 1.4m107.52-28.3l-1.58 1.55-5 3.64-2.85 1.4-76.32 31-4.85 1.5-8.16 1.7m100.8-32.03l-1.55 1.68-4.9 3.96-2.7 1.53-70.3 33.55-4.8 1.84-7.8 1.95m94.06-35.75l-1.5 1.8-4.74 4.28-2.6 1.65-64.27 36.1-4.77 2.14-7.4 2.2m88.54-41.28l-1.42 1.9-4.46 4.64-2.46 1.84-57.35 36.92-4.57 2.4-6.88 2.37m80.4-43.17l-1.34 1.97-4.17 5.02-2.3 2.02-50.43 37.7-4.4 2.7-6.36 2.53M200.18 396l-1.26 2.07-3.9 5.4-2.1 2.2-43.52 38.52-4.2 2.97-5.87 2.67m64.1-46.9l-1.2 2.14-3.6 5.78-2 2.4-36.6 39.3-4.02 3.27-5.35 2.83m58.3-50.66l-1.03 2.25-3.15 5.96-1.8 2.57-31.5 38.4-3.68 3.46-4.77 2.9m51.48-50.5l-.83 2.35-2.7 6.16-1.62 2.74-26.42 37.44-3.32 3.7-4.1 2.97m44.62-50.28l-.66 2.44-2.25 6.36-1.45 2.93-21.33 36.48-2.95 3.9-3.54 3.04m37.8-50.1l-.5 2.54-1.8 6.55-1.3 3.1-16.23 35.56-2.6 4.13-2.94 3.1" opacity=".6"/><path d="M254.9 442.35c-55.6 0-90.2-44.92-90.2-185.58 0-149.5 37.34-186.57 90.2-186.57 52.88 0 90.2 37.07 90.2 186.57 0 140.66-34.57 185.58-90.2 185.58zm0 3.77c-64.3 0-101.18-58.56-101.18-189.38 0-136.65 38.15-190.04 101.2-190.04 63.03 0 101.18 53.4 101.18 190.04 0 130.82-36.88 189.38-101.2 189.38zm0 3.77c-73 0-112.17-72.2-112.17-193.2 0-123.8 38.97-193.5 112.18-193.5s112.2 69.7 112.2 193.5c0 121-39.16 193.2-112.2 193.2zm0 3.74c-81.7 0-123.16-85.83-123.16-196.98 0-110.94 39.8-196.96 123.17-196.96 83.4 0 123.2 86.03 123.2 196.97 0 111.15-41.46 196.98-123.17 196.98zm0 3.84c-88.84 0-136.1-88.5-136.1-200.84 0-113.02 45.4-200.8 136.1-200.8 90.72 0 136.12 87.78 136.12 200.8C391 369 343.76 457.5 254.9 457.5zm0 3.83c-96 0-149.02-91.17-149.02-204.66 0-115.12 51-204.63 149.03-204.63 98.07 0 149.07 89.5 149.07 204.64 0 113.5-53.03 204.67-149.04 204.67zm0 3.85c-103.15 0-161.96-93.85-161.96-208.5 0-117.23 56.6-208.47 161.98-208.47 105.37 0 161.97 91.25 161.97 208.47 0 114.66-58.84 208.5-162 208.5zm0 3.85c-109.63 0-173.82-96.5-173.82-212.36 0-118.46 61.82-212.3 173.83-212.3s173.86 93.84 173.86 212.3C428.76 372.5 364.56 469 254.9 469zm0 3.85c-116.12 0-185.68-99.16-185.68-216.2 0-119.72 67.04-216.17 185.7-216.17s185.7 96.47 185.7 216.17c0 117.05-69.58 216.2-185.7 216.2zm0 3.85c-122.6 0-197.55-101.82-197.55-220.06 0-120.95 72.26-220 197.56-220 125.34 0 197.6 99.05 197.6 220 0 118.24-74.95 220.05-197.56 220.05zm0 3.62c-125.4 0-202.08-101.84-202.08-223.7C52.82 132 126.74 33 254.92 33 383.07 33 457 132 457 256.67c0 121.85-76.66 223.7-202.1 223.7zm0 1.24c-127.46 0-205.38-102.42-205.38-224.95 0-125.33 75.13-224.53 205.4-224.53 130.26 0 205.38 99.2 205.38 224.55 0 122.53-77.92 224.93-205.4 224.93zm0 1.22c-129.5 0-208.68-102.96-208.68-226.17 0-126 76.34-225.43 208.7-225.43S463.6 130.63 463.6 256.65c0 123.2-79.17 226.17-208.7 226.17zm0 1.24c-131.55 0-211.98-103.53-211.98-227.4 0-126.73 77.54-226.35 212-226.35 134.44 0 212 99.63 212 226.34-.02 123.9-80.44 227.4-212 227.4z" opacity=".6"/></g><g opacity=".3"><path fill="#fff" d="M255 85.05h-1V31h1v54.05zm0 400.3h-1V430.5h1v54.86zM466.83 256H332.28v-1h134.55v1zM284.7 90.3l-1-.2.52-2.38 2.06-7.05 1.25-2.97L304.1 43l2.47-3.68 3.3-2.6.62.77-3.26 2.54-2.3 3.43-16.52 34.6-1.22 2.9-2.02 6.96-.5 2.35zm22.07 18.75l-.86-.5 1.28-2.14 3.88-5.12 1.82-2.14 37.16-38.73 3.82-2.6 5.48-2.7.45.9-5.44 2.7-3.72 2.5-37 38.6-1.8 2.1-3.83 5.05-1.22 2.07zm13.07 26.97l-.73-.68 1.56-1.62 4.7-3.63 2.5-1.56 64.74-35.4 4.86-1.87 7.45-2 .27.97-7.4 1.97-4.75 1.83-64.65 35.37-2.44 1.5-4.6 3.54-1.5 1.56zm7.94 34.5l-.62-.77 1.7-1.34 5.16-2.83 3.03-1.06 88.45-25.1 4.86-.87 9.63-1.14.1 1-9.6 1.12-4.8.88-88.38 25.1-2.93 1-5.03 2.8-1.62 1.3zm4.2 41.7l-.35-.93 1.77-.7 5.58-1.3 3.36-.56 103.5-14.6 4.6-.37 10.18-.24.02 1-10.16.24-4.54.37-106.8 15.16-5.48 1.3-1.72.66zm-22.85 267.3l-2.93-3.1-2.67-4.2-16.27-35.6-1.3-3.13-1.8-6.6-.52-2.6.98-.2.5 2.55 1.8 6.5 1.25 3.07 16.23 35.53 2.58 4.06 2.87 3.05-.72.7zm49.8-19.36l-5.17-2.7-4.34-3.32-36.36-39.25-2.22-2.7-3.65-5.8-1.24-2.2.87-.5 1.2 2.17 3.6 5.73 2.15 2.6 36.27 39.17 4.2 3.2 5.1 2.65-.46.9zM404.6 425l-7.4-2.2-4.83-2.15-64.2-36.08-2.74-1.73-4.8-4.34-1.55-1.86.77-.64 1.5 1.8 4.7 4.22 2.65 1.66 64.14 36.05 4.74 2.1 7.34 2.18-.28 1zm35.55-49.73l-9.3-1.16-4.97-.9-88.4-25.85-3.2-1.16-5.24-3.2-1.73-1.57.7-.73 1.65 1.5 5.13 3.1 3.03 1.1 88.3 25.82 4.9.9 9.3 1.16-.13 1zm21.08-58.23l-10.4-.12-4.74-.43-106.8-15.6-5.64-1.76-2.07-1.08.45-.88 1.98 1.03 5.47 1.74 3.25.5 103.46 15.04 4.68.4 10.38.13v1zM254.9 85.54c-26.62 0-43.83 9.6-55.78 31.1-14.7 26.4-21.83 72.58-21.83 141.13 0 65.43 7.1 110.6 21.8 138.12 12.44 23.24 30.16 34.1 55.8 34.1 37.9 0 76.63-20.5 76.63-172.25 0-143.4-29.32-172.22-76.63-172.22zm0 354.62c-28.5 0-48.2-11.58-62.02-36.45-16.18-29.1-24.05-76.83-24.05-145.9 0-72.08 8.1-121.03 24.74-149.66 13.57-23.35 32.5-33.76 61.34-33.76s47.8 10.4 61.37 33.76C332.9 136.74 341 185.7 341 257.77c0 69.08-7.88 116.82-24.06 145.94-13.82 24.9-33.54 36.48-62.04 36.48zm0-365.8c-45.15 0-85.07 23.1-85.07 183.42 0 68.9 7.82 116.48 23.92 145.45 13.62 24.52 33.06 35.94 61.16 35.94s47.57-11.42 61.2-35.94C332.2 374.26 340 326.7 340 257.78c0-160.3-39.64-183.4-85.1-183.4zm0 403.87c-29.77 0-57.63-6-82.8-17.8-23.83-11.2-44.8-27.35-62.33-48.06-34.12-40.3-52.92-95.24-52.92-154.7 0-60.8 18.44-116.1 51.9-155.68 35.88-42.44 86.4-64.85 146.16-64.85S365.2 59.55 401.1 102c33.47 39.58 51.9 94.87 51.9 155.68 0 59.45-18.78 114.38-52.9 154.7-17.53 20.7-38.5 36.86-62.34 48.05-25.16 11.8-53.03 17.8-82.8 17.8zm0-440.07c-116 0-197.05 90.27-197.05 219.52 0 109.1 67.7 219.55 197.06 219.55S452 366.78 452 257.68c0-129.25-81.03-219.52-197.06-219.52zm0 428.52c-49.18 0-90.7-21.25-120.06-61.46-27.34-37.44-42.4-89.84-42.4-147.54 0-59.85 14.37-111.2 41.57-148.48 28.88-39.56 70.7-60.48 120.9-60.48 50.27 0 92.07 20.92 120.9 60.48 27.2 37.3 41.6 88.64 41.6 148.5 0 57.7-15.06 110.1-42.4 147.53-29.36 40.2-70.9 61.46-120.1 61.46zm0-416.97c-98.08 0-161.46 81.66-161.46 208 0 124.4 64.9 208 161.48 208s161.47-83.6 161.47-208c0-126.33-63.4-207.96-161.5-207.96zm0 405.5c-38.87 0-70.9-19.74-92.64-57.06-20.3-34.85-31-83.4-31-140.43 0-57.3 10.5-105.8 30.37-140.32C183.15 80 215.4 60.25 254.9 60.25c39.52 0 71.78 19.76 93.3 57.13 19.87 34.52 30.38 83.04 30.38 140.33 0 57.05-10.72 105.6-31 140.46-21.74 37.33-53.78 57.06-92.67 57.06zm0-393.94c-39.1 0-71.07 19.58-92.4 56.63-19.8 34.36-30.25 82.7-30.25 139.82 0 56.85 10.67 105.24 30.87 139.94 21.54 37 53.28 56.56 91.8 56.56 38.5 0 70.24-19.56 91.78-56.57 20.2-34.7 30.88-83.08 30.88-139.92 0-57.1-10.46-105.44-30.25-139.8C326 80.88 294.03 61.3 254.9 61.3zm0 420.63c-59.95 0-111.3-22.94-148.44-66.33-34.9-40.76-54.13-96.83-54.13-157.87 0-62.44 18.85-118.87 53.1-158.9 36.52-42.7 88.2-65.25 149.5-65.25S367.87 56.08 404.4 98.77c34.24 40.03 53.1 96.46 53.1 158.9 0 61.02-19.22 117.1-54.13 157.85-37.16 43.4-88.5 66.32-148.46 66.32zm0-447.35c-120.56 0-201.58 89.68-201.58 223.15 0 129.32 84.78 223.2 201.6 223.2 116.8 0 201.58-93.9 201.58-223.2 0-133.5-81-223.16-201.58-223.16zm0 451.05c-62.88 0-116.72-23.3-155.7-67.4-36.6-41.47-56.78-98.46-56.78-160.5 0-63.4 19.78-120.6 55.7-161.04 38.25-43.06 92.47-65.82 156.8-65.82s118.53 22.74 156.78 65.8c35.93 40.44 55.7 97.63 55.7 161.02 0 62.06-20.15 119.05-56.77 160.5-38.97 44.1-92.8 67.4-155.7 67.4zm0-453.76c-126.5 0-211.48 90.76-211.48 225.84 0 131.48 88.95 226.9 211.5 226.9s211.5-95.42 211.5-226.9c-.02-135.08-85-225.84-211.5-225.84zM176.8 256H43v-1h133.8v1zm48.37-165.55l-.54-2.52-2.04-6.98-1.24-2.86-16.5-34.6-2.07-3.28-3.3-2.76.63-.76 3.48 2.94 2.16 3.4L222.3 77.7l1.25 2.93 2.08 7.07.55 2.56-.98.2zm-22.43 19l-1.23-2.14-3.52-5.43-1.76-2.07-36.87-38.58-3.88-2.55-5.18-2.77.46-.88 5.23 2.8 4.04 2.67L197 99.1l1.8 2.14 3.6 5.53 1.26 2.18-.87.5zm-12.9 27.05l-1.5-1.76-4.5-3.88-2.4-1.44-64.7-35.4-4.74-1.8-7.35-1.95.26-.96 7.4 2 4.88 1.85 64.78 35.43 2.48 1.5 4.6 4 1.57 1.8-.76.66zm-7.8 34.03l-1.68-1.34-5.03-2.8-2.88-1-88.4-25.07-4.76-.85-9.6-1.14.1-1 9.6 1.15 4.86.87 88.47 25.1 2.98 1.04 5.2 2.85 1.76 1.4-.62.78zm-4.3 42.4l-1.72-1-5.43-1.65-3.24-.54-103.52-14.6-4.53-.37-10.12-.24v-1l10.17.24 4.6.37 103.56 14.6 3.3.55 5.67 1.7 1.77 1.03-.5.86zm22.96 266.6l-.73-.7 2.93-3.1 2.56-4.04 16.2-35.5 1.28-3.1 1.78-6.48.5-2.5.98.2-.5 2.54-1.8 6.58-1.3 3.17-16.24 35.58-2.64 4.17-3 3.2zm-49.8-19.37l-.48-.9 5.35-2.82 3.95-3.2 36.56-39.3 1.95-2.36 3.57-5.72 1.2-2.13.87.5-1.2 2.14-3.62 5.8-2 2.42-36.63 39.32-4.08 3.3-5.43 2.9zM105.24 425l-.28-.95 7.4-2.2 4.7-2.1 64.22-36.1 2.58-1.65 4.67-4.23 1.44-1.75.76.64-1.5 1.8-4.8 4.33-2.7 1.7-64.27 36.1-4.82 2.15-7.46 2.23zM70.1 375.27l-.13-1 8.9-1.14 4.92-.92 88.3-25.8 3.02-1.1 5.2-2.96 1.63-1.24.6.8-1.7 1.3-5.32 3-3.13 1.15L84 373.2l-5 .92-8.92 1.16zM49.35 317.1l-.02-1 9.68-.18 4.67-.43 106.73-15.63 5.5-1.72 1.7-.9.47.9-1.78.92-5.65 1.76-3.38.58L63.8 316.5l-4.72.42-9.72.18z" opacity=".75"/><path fill="url(#F)" d="M467.4 256.65c0-21.92-2.37-43.1-6.95-63.1h.2l-.03-1h-.4a238.27 238.27 0 00-20.12-55.26l-.1-.94-.36.04a203.64 203.64 0 00-27.94-40.8 192.73 192.73 0 00-6.75-7.2l-.03-.1h-.06a187.86 187.86 0 00-45.4-33.93l-.14-.28-.2.1a200.85 200.85 0 00-49.08-18.3l-.18-.22-.18.15c-17.25-4-35.55-6.04-54.77-6.04-19.14 0-37.4 2.05-54.62 6.02l-.14-.1-.15.17a200.09 200.09 0 00-49.1 18.2l-.18-.1-.12.25a187.92 187.92 0 00-45.63 34.06h-.06l-.03.1c-2.3 2.33-4.56 4.73-6.76 7.2a203.97 203.97 0 00-27.92 40.8l-.35-.03-.1.9a238.34 238.34 0 00-20.13 55.26h-.4l-.05 1h.2c-4.6 20-6.96 41.17-6.96 63.1 0 62.04 20.15 119.03 56.8 160.48 1.9 2.2 3.9 4.3 5.9 6.38l.12.47.26-.08a194.63 194.63 0 0045.17 34.83l.2.38.25-.12a198.34 198.34 0 0049.18 19.13l.4.36.2-.23a229.24 229.24 0 0054 6.24c18.87 0 36.92-2.1 54-6.24l.22.22.38-.36a199.35 199.35 0 0049.18-19.16l.25.13.2-.4a194.22 194.22 0 0045.2-34.84l.27.08.14-.5c2-2.07 4-4.2 5.9-6.36 11.4-12.9 21.2-27.3 29.3-42.9l.2.03.1-.6a239.89 239.89 0 0020.72-57.64h.28v-1h-.04c4.1-18.7 6.24-38.27 6.24-58.4zm-7.22 58.38l-8.8-.1a276.5 276.5 0 006.12-58.27l-.02-1.66h8.9v1.65c0 20.4-2.14 39.94-6.22 58.4zM396.23 420.3l-2.96-1.33c2.3-2.46 4.58-5 6.78-7.6a208.8 208.8 0 0026.05-39.13l3.6.68a205.42 205.42 0 01-33.47 47.4zm-281.9.76l2.97-1.32a183.23 183.23 0 0041.86 32.96l-2.17 1.77a189.02 189.02 0 01-42.67-33.4zM80.1 372.9l3.63-.66c7.3 14.14 16 27.28 26.05 39.14 2.2 2.6 4.47 5.14 6.8 7.6l-2.97 1.34a206 206 0 01-33.45-47.38zM53.35 255h3.53l-.02 1.67c0 19.93 2.13 39.35 6.22 57.88l-3.64.33c-4-18.38-6.1-37.86-6.1-58.22V255zM155.7 57.85l2.94 1.92a177.24 177.24 0 00-41.77 32.25l-3.8-1.45a180.65 180.65 0 0142.63-32.72zm47.3-18.3l1.53 2.43a182.6 182.6 0 00-44.92 17.25l-2.9-1.92a191.66 191.66 0 0146.3-17.74zM353.12 57.3l-2.88 1.95a182.7 182.7 0 00-44.95-17.27l1.6-2.4c16.54 4 32 9.98 46.2 17.74zm43.6 33.27l-3.77 1.45a177.84 177.84 0 00-41.73-32.22l2.88-1.95a180.76 180.76 0 0142.63 32.72zm33.32 47l-4.17.75c-7-13.56-15.3-26.08-24.82-37.34a188.54 188.54 0 00-7.35-8.18l3.8-1.46a195.59 195.59 0 0132.55 46.23zm26.45 119.1c0 20.35-2.1 39.83-6.1 58.2l-3.66-.32c4.1-18.53 6.2-37.94 6.2-57.87V255h3.52l.02 1.67zm-106.65 195.5l-11.13-12.02a152.82 152.82 0 0033.24-31.95l19.63 11.03a180.03 180.03 0 01-41.73 32.94zm-45.64 18.2l-5.03-11.02a138.45 138.45 0 0038.72-18.62l11.1 11.94a178.8 178.8 0 01-44.77 17.7zM160.7 452.6l11.1-11.9a138.44 138.44 0 0038.8 18.67l-5.02 11.02a179.28 179.28 0 01-44.88-17.77zm-42.5-33.35l19.63-11.03a152.66 152.66 0 0033.16 31.9l-11.16 12a180.16 180.16 0 01-41.62-32.86zM84.97 371.9l27.45-8.03a196.72 196.72 0 0022.45 40.34c.8 1.1 1.6 2.16 2.4 3.2l-19.72 11.1A206.08 206.08 0 0185 371.9zM57.86 255h34.6v1.67c0 18.3 1.5 36.07 4.44 53l-32.64 4.74a262.93 262.93 0 01-6.4-57.7V255zm6.83-60.73l32.64 4.6a327.3 327.3 0 00-4.9 55.13H57.88c.18-21.04 2.5-41.02 6.8-59.73zm95.2-133.43l10.9 11.4a147.15 147.15 0 00-33.13 31.1L118.24 92.7a181.81 181.81 0 0141.67-31.85zM205.1 43.1l5.1 10.7a139.6 139.6 0 00-38.6 17.88l-10.8-11.34a185.04 185.04 0 0144.33-17.25zm143.92 17.3L338.2 71.7a138.2 138.2 0 00-38.64-17.9l5.1-10.72a184.72 184.72 0 0144.4 17.28zm42.5 32.3l-19.44 10.64a145.98 145.98 0 00-33.1-31.06l10.94-11.4a180.85 180.85 0 0141.6 31.83zm33.18 45.9l-27.54 7.8a190.35 190.35 0 00-21.4-38.23c-1-1.38-2-2.72-3.05-4.05l19.53-10.68a196.7 196.7 0 0132.45 45.14zM451.9 254h-34.6a325.19 325.19 0 00-4.88-55.13l32.67-4.6c4.3 18.7 6.63 38.7 6.8 59.73zm.02 2.67a263.2 263.2 0 01-6.4 57.73l-32.64-4.74a309.2 309.2 0 004.47-53l-.03-1.66h34.6v1.67zM93.47 255h37.8l-.02 1.68c0 16.63.92 32.53 2.7 47.6l-36.26 5.27a318.53 318.53 0 01-4.27-52.88V255zm284.1 1.68c0 16.58-.9 32.44-2.7 47.45l-32.13-4.68-2.87-.44a728.94 728.94 0 001.13-42.2V255h36.58v1.66zM132.27 255h36.57v1.77c0 15.07.37 29.13 1.13 42.2l-2.86.48-32.13 4.68a399.42 399.42 0 01-2.7-47.45V255zM340 256.77c0 15-.37 28.98-1.12 42l-4.85-1.53-2-1.05-.45.85 2.07 1.08 5.18 1.63a434.36 434.36 0 01-4.66 44.17l-4.54-2.75-1.65-1.5-.67.72 1.77 1.57 4.96 3c-2.2 13.37-5.05 25.2-8.52 35.55l-4.12-3.72-1.5-1.8-.57.5c8.94-27.74 13.3-66.9 13.3-118.74V255h7.4v1.78zM311.25 410l-3.2-5.1-1.2-2.16-.15.08a90.38 90.38 0 004.38-7.47c3-5.74 5.7-12.27 8.07-19.58l1.44 1.73 4.5 4.05c-2.68 7.7-5.68 14.6-9.05 20.66a92 92 0 01-4.82 7.8zm-24.5 21.6l-1.62-5.93-.44-2.22c8.4-4.35 15.5-10.92 21.5-19.84l1 1.8 3.4 5.5c-6.67 9.38-14.54 16.2-23.86 20.7zm-87.55-20.7l3.45-5.52.8-1.44c6.1 8.8 13.24 15.3 21.67 19.6l-.4 2.1-1.65 5.97c-9.32-4.5-17.2-11.32-23.87-20.7zm-5.45-8.68a128.24 128.24 0 01-9-20.65l4.54-4.1.9-1.13c2.36 7.07 5.04 13.4 8.03 19a87.59 87.59 0 004.58 7.66l-1.03 1.86-3.2 5.13a99.09 99.09 0 01-4.84-7.8zm-17.9-57.2l5.04-2.86 1-.78c2.07 12.74 4.7 24 7.93 33.85l-1.26 1.54-4.2 3.78c-3.46-10.35-6.3-22.17-8.52-35.54zm-6-90.02h6.45v1.77c0 14.16.33 27.37 1 39.67l-1.4.74-4.95 1.54c-.75-13-1.12-26.96-1.12-41.94V255zm28.54-153.5l3.1 4.8 1.1 1.9a78.4 78.4 0 00-4.36 6.94c-3.06 5.5-5.8 11.86-8.2 19.07l-1.02-1.15-4.2-3.64c3.9-11.45 8.48-20.6 13.55-27.9zm24.3-21.06l1.9 6.5.48 2.17c-8.7 3.9-15.86 9.9-21.88 18.2l-.86-1.5-3.36-5.14c7.08-9.86 15.1-16.2 23.73-20.2zm88.08 20.16l-3.65 4.82-1.05 1.78c-5.86-8.2-12.88-14.14-21.4-18.02l.48-2.22 1.9-6.52c8.63 3.97 16.65 10.3 23.72 20.16zm14.17 28.77l-4.34 3.35-1.5 1.6a113.4 113.4 0 00-8.06-19.18 78.9 78.9 0 00-4.42-7.16l.1.07 1.23-2.08 3.4-4.5c5.08 7.28 9.66 16.44 13.58 27.9zM254.9 429c-25.62 0-43.34-10.84-55.77-34.1-14.7-27.52-21.84-72.7-21.84-138.13 0-68.55 7.1-114.72 21.8-141.14 11.95-21.5 29.16-31.08 55.8-31.08 47.3 0 76.62 28.8 76.62 172.22C331.52 408.53 292.8 429 254.9 429zm29.33-342.3l-.44 2.05c-8.17-3.52-17.66-5.2-28.8-5.22v-9.2c10.77.02 21.34 1.35 31.2 5.68l-1.98 6.7zM254 83.56c-10.76.1-20 1.75-27.97 5.14l-.43-2.02-1.95-6.65c9.58-4.22 19.86-5.6 30.35-5.66v9.2zm-69.5 46.86l3.83 3.32 1.35 1.56c-3.1 9.5-5.63 20.46-7.64 32.94l-1.13-.9-4.7-2.6c2.25-13.26 5.05-24.6 8.3-34.35zM176 165.8l4.36 2.38 1.5 1.2a436.63 436.63 0 00-4.3 41.28l-1.1-.64-5.18-1.6a436.6 436.6 0 014.72-42.64zm-4.78 43.67l4.8 1.46 1.48.85a759.06 759.06 0 00-1.2 42.2h-6.46c.05-16.23.5-31.04 1.38-44.52zm5.05 88.63l1.1-.57a427.76 427.76 0 004.35 42.73l-1.4 1.06-4.65 2.65a438.21 438.21 0 01-4.66-44.23l5.3-1.64zm49.4 127.75l.38-1.87c8.1 3.92 17.35 5.88 27.95 6v8.15c-11.37-.1-21.32-2.1-30.02-6.12l1.7-6.15zM255 430c10.97-.02 20.48-2 28.76-6.1l.4 2 1.68 6.13c-8.9 4.1-19.12 6.12-30.84 6.13V430zm77.53-176c-.15-53.04-4.54-92.5-13.37-119.6l.68.62 1.47-1.56 4.04-3.1c3.26 9.75 6.07 21.12 8.32 34.4l-4.8 2.65-1.68 1.37.62.78 1.6-1.3 4.43-2.43c2.07 12.5 3.67 26.6 4.72 42.63l-5.13 1.2-1.76.68.35.94 1.7-.64 4.95-1.16c.86 13.5 1.33 28.32 1.38 44.58h-7.45zm2.28-88.67l2.57-.88 26.96-7.66a287.09 287.09 0 019.9 46.44l-31.86 4.5-2.8.45a433.8 433.8 0 00-4.73-42.9zm2.27-1.84l-2.4.8c-2.22-13.03-5.02-24.56-8.4-34.6l2.1-1.28 19.5-10.66c6.4 11.27 11.8 24.02 16.16 38.07l-26.95 7.65zm-9.2-35.96l-1.93 1.18c-2.82-8.2-6.04-15.4-9.66-21.62a88.86 88.86 0 00-4.18-6.5l1.52-1.8 10.9-11.35c8.56 8.07 16.2 17.9 22.83 29.4l.03.04-19.5 10.64zm-15-29.42l-1.37 1.62c-6.7-9.24-14.57-15.9-24.07-20.23l1.02-2.4 4.7-9.8a98.7 98.7 0 0130.63 19.47l-10.9 11.36zM287.54 76.7l-1 2.44c-8.98-3.9-19.37-5.77-31.52-5.78V60.22c13.26 0 25.7 2.28 37.18 6.7l-4.66 9.78zM254 73.37c-11.8.1-21.9 1.96-30.68 5.77l-1.03-2.46-4.68-9.75c11.24-4.34 23.4-6.6 36.36-6.7v13.14zm-32.62 3.72l1.03 2.4c-9.5 4.33-17.35 11-24.04 20.24l-1.4-1.65-10.85-11.35a98.87 98.87 0 0130.6-19.47l4.7 9.76zM196.2 98.8l1.54 1.8a88.52 88.52 0 00-4.17 6.5 122.64 122.64 0 00-9.66 21.63l-1.93-1.2-19.48-10.64.02-.08c6.64-11.5 14.3-21.33 22.87-29.4l10.84 11.33zm-14.75 29.62l2.14 1.28c-3.4 10.05-6.2 21.58-8.4 34.62l-2.47-.85-26.93-7.65c4.38-14.05 9.78-26.8 16.17-38.07l19.47 10.65zm-9 36.02l2.57.88a436.49 436.49 0 00-4.73 42.9l-2.78-.46-31.9-4.5a290.33 290.33 0 019.9-46.47l26.93 7.6zm-5.07 44.3l2.85.48a750.44 750.44 0 00-1.38 44.78h-36.58c.1-17.47 1.2-34.1 3.23-49.75l31.9 4.5zm-.1 91.7l2.76-.48a435.6 435.6 0 004.72 44.45l-2.62.97-27.25 7.97c-4.4-14.8-7.7-30.95-9.8-48.22l32.2-4.67zm5.16 45.87l2.48-.9c2.25 13.5 5.13 25.4 8.65 35.8l-2.26 1.44-19.75 11.12c-6.5-11.73-11.98-24.95-16.36-39.46l27.27-8zm9.38 37.2l2.1-1.33c2.63 7.65 5.63 14.5 8.98 20.54 1.62 2.9 3.32 5.6 5.1 8.17l-1.7 2.06L185.06 425c-8.16-7.88-15.5-17.36-21.93-28.4-.38-.65-.75-1.32-1.12-1.98l19.8-11.13zm15.23 30.1l1.55-1.87c6.77 9.43 14.74 16.33 24.17 20.85l-1.08 2.63-4.9 10.7a98.94 98.94 0 01-31-20.2l11.23-12.1zm25.55 22l1.07-2.6c8.8 4.03 18.86 6.04 30.36 6.14v14a100.53 100.53 0 01-36.3-6.87l4.88-10.7zm32.42 3.56c11.85 0 22.17-2.03 31.18-6.17l1.08 2.6 4.88 10.67a100.44 100.44 0 01-37.13 6.87v-14zm33.18-3.94l-1.1-2.64c9.45-4.52 17.42-11.43 24.2-20.85l1.8 2.18 10.96 11.84a99 99 0 01-30.96 20.2l-4.88-10.7zm25.64-22l-1.95-2.34c1.75-2.55 3.45-5.27 5.1-8.18a130.78 130.78 0 008.96-20.54l2.2 1.4 19.7 11.06-1.13 1.96c-6.44 11.06-13.8 20.55-21.96 28.44l-10.94-11.8zm14.85-30.5l-2.4-1.5c3.5-10.4 6.4-22.33 8.63-35.8l2.54.92 27.2 7.97c-4.37 14.5-9.83 27.73-16.35 39.46l-19.65-11.05zm9.1-37.34l-2.7-.96c2.2-13.3 3.75-28.1 4.7-44.43l2.8.43 32.17 4.7a296.25 296.25 0 01-9.8 48.2l-27.2-7.94zm3.2-91.4c-.04-16.08-.5-31-1.37-44.77l2.88-.5 31.85-4.5a404.27 404.27 0 013.23 49.78H341zm34.34-49.88l36.18-5.1a328.05 328.05 0 014.85 55h-37.8c-.1-17.53-1.2-34.2-3.24-49.9zm-.13-1a290.53 290.53 0 00-9.9-46.6l31.46-8.92c6.4 15.3 11.3 32.18 14.6 50.43l-36.13 5.1zM365 155.55c-4.4-14.13-9.82-26.95-16.25-38.28l23.16-12.67c9.64 12.24 17.84 26.3 24.48 42.04l-31.36 8.9zm-16.74-39.15l-.04-.08c-6.67-11.58-14.38-21.47-23-29.6l13.05-13.63c12.3 8.3 23.35 18.6 33 30.7l-23.02 12.6zm-23.8-30.36a99.33 99.33 0 00-30.9-19.67l5.54-11.6c13.82 4.03 26.64 10 38.33 17.76l-12.96 13.5zM292.66 66c-11.6-4.5-24.2-6.8-37.64-6.8V48.7c15.26 0 29.67 2 43.13 5.8l-5.5 11.52zM254 59.23a103.5 103.5 0 00-36.8 6.8l-5.5-11.5a156.89 156.89 0 0142.3-5.8v10.5zm-37.73 7.16a99.71 99.71 0 00-30.88 19.63L172.43 72.5a139.34 139.34 0 0138.28-17.7l5.53 11.6zm-31.6 20.3c-8.65 8.14-16.36 18.04-23.04 29.63l-.04.07-23.04-12.57a147.26 147.26 0 0133.03-30.75l13.05 13.63zm-23.57 30.6c-6.42 11.32-11.85 24.14-16.24 38.26l-31.36-8.9c6.64-15.72 14.83-29.8 24.45-42.04l23.15 12.66zm-16.55 39.2c-4.37 14.3-7.7 29.9-9.92 46.6L98.5 198c3.3-18.23 8.2-35.1 14.6-50.4l31.44 8.92zm-10.05 47.6a403.86 403.86 0 00-3.24 49.9h-37.8c.14-19.46 1.8-37.84 4.85-55l36.2 5.1zm-.42 101.16a296.2 296.2 0 009.82 48.35l-31.35 9.18a248.64 248.64 0 01-14.7-52.28l36.23-5.26zm10.1 49.3c4.4 14.6 9.9 27.88 16.46 39.68l-22.86 12.85c-9.8-12.68-18.13-27.2-24.85-43.4l31.26-9.13zm16.95 40.54a132.1 132.1 0 0023.23 30.65l-12.73 13.7a152.15 152.15 0 01-33.2-31.56l22.72-12.8zm23.96 31.34a100.07 100.07 0 0031.24 20.4l-5.28 11.57a139.63 139.63 0 01-38.6-18.4l12.63-13.55zm32.16 20.78a101.24 101.24 0 0036.73 6.94v10.52a152.05 152.05 0 01-41.97-5.97l5.25-11.5zm37.72 6.96a101.89 101.89 0 0037.55-6.95l5.25 11.5a153 153 0 01-42.8 5.97v-10.5zm38.47-7.34a100.2 100.2 0 0031.23-20.36l12.6 13.6a139.75 139.75 0 01-38.53 18.34l-5.28-11.57zm31.95-21.06c8.24-7.96 15.66-17.52 22.15-28.67l1.13-2 22.74 12.8a152.78 152.78 0 01-33.3 31.6l-12.7-13.73zm23.77-31.53c6.55-11.8 12.04-25.1 16.44-39.67l31.27 9.14c-6.7 16.18-15.04 30.7-24.84 43.38l-22.85-12.85zm16.73-40.63a296.12 296.12 0 009.82-48.36L412 310.5a250.16 250.16 0 01-14.7 52.25l-31.35-9.17zm9.94-49.35a401.77 401.77 0 002.72-47.6V255h37.8v1.66c0 18.58-1.46 36.25-4.24 52.87l-36.27-5.27zm36.43-106.4a245.77 245.77 0 00-14.68-50.54l27.6-7.83a229.2 229.2 0 0119.7 53.78l-32.6 4.6zM298.6 53.57a159.57 159.57 0 00-43.6-5.85V37.17c17.03 0 33.3 1.97 48.68 5.7l-5.1 10.68zM254 47.7a160.3 160.3 0 00-42.76 5.82l-5.1-10.67a205.83 205.83 0 0147.86-5.7V47.7zM117.53 93.46l19.53 10.68a158.55 158.55 0 00-3.05 4.05 190.7 190.7 0 00-21.4 38.2l-27.5-7.8c8.9-16.9 19.8-32.04 32.46-45.15zM84.6 139.5l27.62 7.84c-6.46 15.5-11.37 32.42-14.7 50.55l-32.6-4.6a229.12 229.12 0 0119.68-53.8zm12.48 171.15c3.3 18.6 8.32 36.16 14.95 52.3L84.5 371a242.44 242.44 0 01-20.02-55.6l32.6-4.75zm114.52 149a153.21 153.21 0 0042.4 6v10.56c-16.86-.04-32.67-2-47.4-5.6l5-10.94zm43.4 6.03c15.2 0 29.64-2.05 43.23-6.04l5 10.97a202.02 202.02 0 01-48.23 5.64V465.7zm137.32-47.2L372.6 407.4c.8-1.05 1.6-2.1 2.4-3.2 8.76-12 16.26-25.57 22.4-40.34l27.46 8.02a205.95 205.95 0 01-32.54 46.6zm33-47.5l-27.53-8.04a256.84 256.84 0 0014.93-52.3l32.6 4.74a241.83 241.83 0 01-20.03 55.6zM452.95 254a280.85 280.85 0 00-6.88-59.86l3.87-.3c4.13 18.8 6.36 38.9 6.54 60.16h-3.53zm-7.1-60.84a237.1 237.1 0 00-19.5-53.9l4.16-.76h.05a233.82 233.82 0 0119.2 54.34l-3.88.3zM304.27 41.72A213.89 213.89 0 00255 36.15V33.5c17.9.02 34.9 2 50.9 5.82l-1.62 2.4zM254 36.17a213.65 213.65 0 00-48.45 5.56l-1.53-2.43A220.66 220.66 0 01254 33.52v2.65zM112.33 91.35l3.8 1.44a189.16 189.16 0 00-7.37 8.16 200.25 200.25 0 00-24.8 37.34l-4.2-.74a196.26 196.26 0 0132.57-46.22zM79.3 138.5l4.18.75a236.68 236.68 0 00-19.5 53.9h-.02l-3.86-.3a234.12 234.12 0 0119.2-54.34zm-19.4 55.33l3.86.3A278.96 278.96 0 0056.88 254h-3.53c.17-21.25 2.4-41.37 6.54-60.17zm18.55 178.34l-7.8 1a234.26 234.26 0 01-20.77-57.08l8.8-.2a240.6 240.6 0 0019.77 56.25zm-18.8-56.3l3.63-.34a237.32 237.32 0 0019.97 55.77l-3.62.68a235.97 235.97 0 01-19.98-56.12zM160.1 453.2c3.9 2.22 7.9 4.3 12 6.22a183.82 183.82 0 0033.04 11.77l-1.43 2.23a189.03 189.03 0 01-45.8-18.47l2.2-1.77zm46.05 18.25a202.13 202.13 0 0047.85 5.76v2.66a203.89 203.89 0 01-49.27-6.13l1.42-2.25zm48.85 5.77c16.9 0 33.16-1.94 48.67-5.77l1.43 2.25a204.03 204.03 0 01-50.1 6.15v-2.62zm49.68-6.03a183.1 183.1 0 0033.04-11.8 178.23 178.23 0 0011.9-6.14l2.25 1.73c-14.18 8-29.5 14.23-45.75 18.44l-1.44-2.26zm45.87-18.46a182.97 182.97 0 0041.98-33.03l2.97 1.33a190.44 190.44 0 01-42.68 33.43l-2.25-1.72zm79.64-80.78l-3.65-.68c8.8-17.27 15.52-36 19.97-55.78l3.63.33a235.1 235.1 0 01-19.98 56.12zM466.35 254h-8.9c-.2-20.9-2.48-41.1-6.77-60.23l8.92-.2c4.27 18.9 6.57 39.1 6.75 60.43zm-15.9-61.22a240.42 240.42 0 00-19.28-54.36l8.14-.96a231.44 231.44 0 0120.06 55.1l-8.92.22zm-11.62-56.27l-8.14 1a200.02 200.02 0 00-26.3-39.7 197 197 0 00-6.03-6.7l6.2-1.65a197.9 197.9 0 0134.28 47.08zM397.6 90.28a180.1 180.1 0 00-42.37-33l3.7-1.84a189.88 189.88 0 0144.84 33.2l-6.16 1.64zm-43.42-33.6a189 189 0 00-46.42-18l2.07-1.64a203.84 203.84 0 0148 17.84l-3.65 1.82zm-47.6-18.33l-.03.05A221.61 221.61 0 00255 32.5v-1.7c18.83 0 36.74 2.05 53.6 5.92l-2.02 1.6zM254 30.84v1.7a221.5 221.5 0 00-50.72 5.83l-1.97-1.66c16.6-3.8 34.2-5.8 52.7-5.86zM200.1 37l2 1.65a188.2 188.2 0 00-46.44 18l-3.54-1.9A204.72 204.72 0 01200.1 37zm-49.05 18.33l3.58 1.9a180.54 180.54 0 00-42.4 33.02l-6.17-1.64a188.78 188.78 0 0145-33.25zm-45.82 34.1l6.22 1.64a190.97 190.97 0 00-6.03 6.7 199.88 199.88 0 00-26.3 39.7l-8.16-.96a198.7 198.7 0 0134.27-47.05zm-34.76 48.03l8.15.96a240.76 240.76 0 00-19.28 54.36l-8.93-.2a232.46 232.46 0 0120.08-55.1zm-11.36 56.3A288.8 288.8 0 0052.38 254h-8.9a285 285 0 016.74-60.43l8.9.2zM43.47 255h8.9l-.02 1.66c0 20.08 2.1 39.63 6.14 58.27l-8.8.16a269.96 269.96 0 01-6.24-58.47l.02-1.65zm27.7 119.12l7.8-1a209.84 209.84 0 0027.5 41.4 200.9 200.9 0 005.73 6.38l-5.87 1.75a210.31 210.31 0 01-35.16-48.53zm41.57 47.66l.2-.1a186.68 186.68 0 0042.7 33.84l-3.8 2a197.61 197.61 0 01-44.7-34.08l5.6-1.68zm43.62 34.5l.24-.2A185.68 185.68 0 00203 474.6l-.1.14-2.1 2.22a201.28 201.28 0 01-47.94-18.85l3.47-1.8zm47.36 19.07l.3-.5a212.57 212.57 0 0050 6v2.7a220.06 220.06 0 01-52.06-6.32l1.77-1.88zm51.33 8.2v-2.7c17.75 0 34.73-2.03 50.83-6l.36.58 1.7 1.8a220.08 220.08 0 01-52.9 6.34zm54-6.6L307 474.8l-.14-.2c16.47-4.14 32-10.34 46.4-18.52l.52.4 3.2 1.65a202.25 202.25 0 01-47.96 18.84zm49-19.4l-3.7-1.94-.1-.05a186.34 186.34 0 0042.7-33.86l.27.1 5.54 1.65a198.81 198.81 0 01-44.7 34.1zm45.5-34.9l-5.86-1.76c1.93-2.1 3.85-4.2 5.72-6.4a210.72 210.72 0 0027.5-41.4l7.8.96a210.25 210.25 0 01-35.17 48.55zm35.7-49.5l-7.83-1a241.74 241.74 0 0019.76-56.24l8.8.1a235.19 235.19 0 01-20.76 57.15z"/><path d="M254.9 442.35c-55.6 0-90.2-44.92-90.2-185.58 0-149.5 37.34-186.57 90.2-186.57 52.88 0 90.2 37.07 90.2 186.57 0 140.66-34.57 185.58-90.2 185.58z" fill="none" stroke="#000"/></g></svg>