<svg xmlns="http://www.w3.org/2000/svg" viewBox="0 0 64 64" enable-background="new 0 0 64 64"><path fill="#ed4c5c" d="M2,32c0,13.061,8.35,24.167,20,28.286V3.714C10.35,7.833,2,18.939,2,32z"/><path fill="#699635" d="M32,2c-3.51,0-6.87,0.62-10,1.729V22h38.286C56.167,10.35,45.062,2,32,2z"/><path fill="#f9f9f9" d="M60.286,22H22v20h38.286C61.392,38.871,62,35.508,62,32S61.392,25.129,60.286,22z"/><path fill="#3e4347" d="M22,42v18.271C25.13,61.38,28.49,62,32,62c13.062,0,24.167-8.35,28.286-20H22z"/></svg>