<svg xmlns="http://www.w3.org/2000/svg" viewBox="0 0 64 64" enable-background="new 0 0 64 64"><path fill="#ffe8a6" d="m49 32c0-16.568-7.611-30-17-30-16.568 0-30 13.432-30 30s13.432 30 30 30c9.389 0 17-13.432 17-30"/><path fill="#3e4347" d="M32,2c9.389,0,17,13.432,17,30s-7.611,30-17,30c16.568,0,30-13.432,30-30S48.568,2,32,2z"/><g fill="#f4dc9f"><path d="m48.87 28.348c-3.328.54-5.871 3.42-5.871 6.901 0 3.184 2.127 5.866 5.04 6.715.622-3.118.964-6.47.964-9.964 0-1.237-.048-2.455-.13-3.652"/><path d="m24.16 41.05c-.133 0-.262.014-.393.02.227-.632.355-1.309.355-2.02 0-3.313-2.687-6-6-6-3.314 0-6 2.688-6 6 0 2.854 1.995 5.237 4.666 5.845-1.023 1.461-1.629 3.235-1.629 5.154 0 4.97 4.03 9 9 9s9-4.03 9-9c.001-4.971-4.03-9-8.999-9"/><path d="m23.999 21.248c2.209 0 4-1.79 4-4 0-.645-.168-1.245-.438-1.785.504.172 1.035.285 1.598.285 2.76 0 5-2.24 5-4.998 0-2.764-2.24-5-5-5-2.764 0-5 2.238-5 5 0 .961.285 1.851.756 2.613-.295-.069-.598-.115-.914-.115-2.209 0-4 1.791-4 4 0 2.21 1.791 4 4 4"/><circle cx="36.999" cy="18.248" r="4"/><circle cx="12.12" cy="25.923" r="4"/><circle cx="38.999" cy="9.248" r="2"/><circle cx="8.12" cy="39.05" r="2"/><circle cx="24.999" cy="29.923" r="3"/><circle cx="14.999" cy="15.748" r="2"/><path d="m41.999 52.623c0 .93.33 1.773.862 2.453 1.263-1.853 2.37-4.02 3.284-6.438-.049-.002-.096-.015-.145-.015-2.208 0-4 1.791-4 4"/></g><g fill="#464d51"><path d="m56.999 35.25c0-3.866-3.135-7-7-7-.386 0-.761.039-1.129.1.082 1.197.13 2.415.13 3.652 0 3.494-.342 6.846-.964 9.964.623.182 1.28.284 1.963.284 3.865 0 7-3.134 7-6.999"/><circle cx="51.999" cy="50.05" r="2"/><path d="m46 56.623c2.209 0 3.998-1.79 3.998-4 0-2.159-1.713-3.907-3.854-3.985-.914 2.417-2.02 4.586-3.284 6.438.734.936 1.86 1.547 3.14 1.547"/></g></svg>