<svg xmlns="http://www.w3.org/2000/svg" viewBox="0 0 64 64" enable-background="new 0 0 64 64"><path fill="#83bf4f" d="m39.43 49.49c-6.723 5.194-8.551 14.512-8.551 14.512h2.418c9.02-13.06 26.549-22.18 26.549-22.18s-11.832 1.033-20.416 7.667"/><path fill="#75a843" d="m30.474 1l2.5 63h-5z"/><path fill="#83bf4f" d="m23.929 50.738c5.824 6.184 6.545 13.262 6.545 13.262h-2.416c-9.02-15.309-23.903-20.602-23.903-20.602s12.83-.031 19.774 7.34"/><g fill="#f4bc58"><path d="m42.808 23.607c-5.303-1.42-7.92-.209-8.51 1.992s1.07 4.559 6.373 5.98c5.303 1.421 12.828-.834 12.828-.834s-5.389-5.717-10.691-7.138"/><path d="m18.544 25.651c5.301 1.42 7.92.209 8.508-1.992.592-2.202-1.07-4.56-6.373-5.981-5.301-1.421-12.826.835-12.826.835s5.388 5.717 10.691 7.138"/><path d="m29.653 12.498c-1.42 5.301-.209 7.918 1.992 8.509 2.201.59 4.561-1.071 5.98-6.373 1.422-5.302-.834-12.828-.834-12.828s-5.716 5.389-7.138 10.692"/><path d="m31.696 36.762c1.422-5.303.211-7.92-1.992-8.51-2.201-.59-4.559 1.072-5.979 6.373-1.422 5.303.836 12.828.836 12.828s5.715-5.39 7.135-10.691"/><path d="m38.532 15.328c-4.754 2.745-5.748 5.452-4.609 7.427 1.141 1.973 3.98 2.466 8.736-.279 4.754-2.745 8.48-9.661 8.48-9.661s-7.855-.231-12.607 2.513"/><path d="m22.819 33.93c4.752-2.744 5.748-5.451 4.609-7.424-1.141-1.975-3.982-2.468-8.736.277-4.754 2.745-8.48 9.661-8.48 9.661s7.853.23 12.607-2.514"/><path d="m21.374 16.773c2.744 4.753 5.453 5.748 7.426 4.608 1.975-1.14 2.467-3.981-.279-8.735-2.744-4.754-9.66-8.48-9.66-8.48s-.231 7.853 2.513 12.607"/><path d="m39.976 32.485c-2.744-4.753-5.451-5.748-7.426-4.608-1.973 1.14-2.465 3.981.279 8.736 2.744 4.753 9.662 8.479 9.662 8.479s.231-7.854-2.515-12.607"/></g><g fill="#fc6"><path d="m34.804 13.174c0 5.49-1.85 7.704-4.129 7.704s-4.127-2.214-4.127-7.704c0-5.488 4.127-12.174 4.127-12.174s4.129 6.686 4.129 12.174"/><path d="m26.548 36.08c0-5.49 1.848-7.704 4.127-7.704s4.129 2.214 4.129 7.704c0 5.488-4.129 12.174-4.129 12.174s-4.127-6.686-4.127-12.174"/><path d="m42.13 28.756c-5.488 0-7.705-1.848-7.705-4.126 0-2.279 2.217-4.126 7.705-4.126s12.174 4.126 12.174 4.126-6.686 4.126-12.174 4.126"/><path d="m19.222 20.503c5.488 0 7.703 1.847 7.703 4.126 0 2.279-2.215 4.126-7.703 4.126s-12.174-4.126-12.174-4.126 6.685-4.126 12.174-4.126"/><path d="m41.692 19.448c-3.881 3.881-6.754 4.14-8.365 2.529s-1.352-4.483 2.529-8.366c3.881-3.881 11.527-5.69 11.527-5.69s-1.808 7.645-5.691 11.527"/><path d="m19.657 29.811c3.883-3.881 6.754-4.142 8.365-2.53 1.613 1.612 1.354 4.484-2.529 8.366-3.881 3.881-11.525 5.691-11.525 5.691s1.808-7.645 5.689-11.527"/><path d="m35.856 35.646c-3.881-3.881-4.141-6.754-2.529-8.365 1.613-1.612 4.484-1.352 8.365 2.529 3.883 3.883 5.691 11.527 5.691 11.527s-7.646-1.81-11.527-5.691"/><path d="m25.493 13.611c3.883 3.882 4.143 6.754 2.529 8.366-1.611 1.612-4.482 1.352-8.365-2.53-3.881-3.881-5.689-11.526-5.689-11.526s7.644 1.809 11.525 5.69"/></g><g fill="#ffd68d"><path d="m31.696 12.497c1.422 5.302.211 7.92-1.992 8.509-2.201.59-4.559-1.071-5.979-6.373-1.421-5.302.835-12.827.835-12.827s5.714 5.389 7.136 10.691"/><path d="m29.653 36.762c-1.42-5.303-.209-7.92 1.992-8.51s4.561 1.07 5.98 6.373c1.422 5.303-.836 12.828-.836 12.828s-5.714-5.39-7.136-10.691"/><path d="m42.806 25.651c-5.301 1.42-7.918.209-8.508-1.992-.59-2.202 1.07-4.56 6.373-5.98 5.303-1.421 12.828.835 12.828.835s-5.389 5.716-10.693 7.137"/><path d="m18.542 23.607c5.303-1.42 7.922-.209 8.51 1.992.59 2.201-1.07 4.559-6.373 5.98-5.301 1.421-12.826-.835-12.826-.835s5.388-5.716 10.689-7.137"/><path d="m39.976 16.773c-2.744 4.754-5.451 5.748-7.426 4.608-1.973-1.14-2.467-3.981.279-8.735 2.744-4.754 9.662-8.48 9.662-8.48s.231 7.853-2.515 12.607"/><path d="m21.374 32.485c2.744-4.754 5.453-5.748 7.426-4.608 1.975 1.14 2.467 3.981-.279 8.734-2.744 4.755-9.66 8.48-9.66 8.48s-.231-7.853 2.513-12.606"/><path d="m38.532 33.93c-4.754-2.744-5.75-5.451-4.609-7.425 1.141-1.974 3.98-2.467 8.734.277 4.756 2.746 8.482 9.662 8.482 9.662s-7.855.23-12.607-2.514"/><path d="m22.819 15.328c4.752 2.745 5.748 5.452 4.609 7.426-1.141 1.974-3.982 2.467-8.736-.278-4.754-2.745-8.48-9.661-8.48-9.661s7.853-.231 12.607 2.513"/></g><circle fill="#947151" cx="30.676" cy="24.385" r="13.167"/><circle fill="#3e4347" cx="30.677" cy="24.386" r="9.98"/></svg>