<svg xmlns="http://www.w3.org/2000/svg" viewBox="0 0 64 64" enable-background="new 0 0 64 64"><g fill="#c7d7d7"><path d="m35.31 57.04c-3.266-4.808-2.01-28.865-2.01-28.865h-2.603c0 0 1.251 24.06-2.02 28.865-2.169 3.196-9.771 1.554-9.771 4.962h26.18c.001-3.409-7.605-1.766-9.774-4.962"/><path d="m48.29 2h-32.583c0 0-5.708 7.05-5.708 18.445 0 11.169 9.848 21.519 22 21.519 12.15 0 22-10.35 22-21.519 0-11.403-5.708-18.443-5.709-18.445m-35.18 20.596c-.076-.644-.121-1.29-.121-1.941 0-9.85 4.933-15.944 4.933-15.944h28.16c.001.003 4.846 5.989 4.927 15.702-10.835-1.473-24.639 6.4-37.902 2.183"/></g><path fill="#961623" d="m13.11 22.596c1.044 8.877 9.1 16.658 18.894 16.658 10.502 0 19.02-8.946 19.02-18.6 0-.083-.006-.162-.007-.242-10.835-1.472-24.639 6.401-37.902 2.184"/></svg>