<svg xmlns="http://www.w3.org/2000/svg" viewBox="0 0 64 64" enable-background="new 0 0 64 64"><g fill="#3e4347"><path d="m2.265 36.11c-.229-1.012-.31-1.998-.242-2.936.086-1.153.398-2.208.929-3.134.618-1.084 1.568-1.982 2.674-2.522 1.133-.567 2.502-.79 3.801-.622 1.186.146 2.367.6 3.411 1.308.888.6 1.689 1.38 2.385 2.324 1.096 1.503 1.856 3.277 2.329 5.424l.006.031c.018.086.031.174.043.264.151 1.309-.642 2.52-1.929 2.941-.204.066-.417.111-.633.133-.771.078-1.527-.137-2.135-.607-.606-.471-.987-1.141-1.073-1.885-.161-1.379-.533-2.596-1.079-3.52-.546-.936-1.33-1.599-2.1-1.774-.338-.08-.679-.07-.985.031-.366.119-.678.356-.932.705-.264.361-.452.841-.546 1.384-.098.555-.104 1.17-.021 1.832.151 1.213.592 2.561 1.306 4 .302.613.673 1.275 1.104 1.963.419.668.893 1.285 1.338 1.85 1.051 1.303 2.099 2.326 3.204 3.129 1.254.91 2.564 1.494 3.893 1.738 1.335.248 2.812.154 4.266-.277 1.189-.35 1.939.094 2.132.65.18.514-.06 1.264-1.318 1.688l-.139.049c-1.791.586-3.653.762-5.381.504-1.744-.246-3.529-.955-5.165-2.049-1.362-.908-2.649-2.063-3.931-3.531-.498-.563-.956-1.154-1.398-1.727l-.206-.268c-.568-.744-1.054-1.445-1.483-2.141-1.079-1.756-1.753-3.33-2.125-4.959"/><path d="m46.732 55.942c1.766 2.256 9.703.047 10.988-2.555 5.24-10.617-.006-15.207-.006-15.207l-10.982 1.471c0 0-2.253 13.411 0 16.291"/><path d="m31.818 55.942c-1.767 2.256-9.705.047-10.989-2.555-5.242-10.617.004-15.207.004-15.207l10.985 1.471c0 0 2.252 13.411 0 16.291"/></g><g fill="#fff"><path d="m34.541 55.2c-.096 1.051-2.6 1.699-5.596 1.445-2.996-.252-5.348-1.309-5.253-2.361.096-1.051 2.42.293 5.416.547 2.997.252 5.529-.684 5.433.369"/><path d="m44.01 55.2c.094 1.051 2.6 1.699 5.596 1.445 2.996-.252 5.348-1.309 5.252-2.361-.094-1.051-2.42.293-5.416.547-2.997.252-5.528-.684-5.432.369"/></g><g fill="#4c5359"><path d="m39.24 60.38c1.957 2.232 8.941 2.092 11.06 0 3.037-2.994 2.908-16.652 3.037-23.313l-12.988-1.053c0 .001-3.606 21.52-1.112 24.366"/><path d="m39.31 60.38c-1.955 2.232-8.944 2.092-11.06 0-3.038-2.994-2.909-16.652-3.038-23.313l12.99-1.053c-.001.001 3.605 21.52 1.111 24.366"/></g><path fill="#fff" d="m33.979 43.749l5.291 11.125 5.3-11.125z"/><path fill="#4c5359" d="m59.904 2.199c-2.414-1.428-14.799 5.071-17.291 9.493l17.91 10.592c2.387-4.234 1.659-18.738-.619-20.09"/><path fill="#f7a4a4" d="m56.17 8.824c-.889-.526-8.205 2.777-9.582 5.219l9.961 5.89c1.318-2.337.437-10.628-.379-11.11"/><path fill="#4c5359" d="m18.732 2.187c-2.415 1.428-3.113 15.665-.621 20.09l17.912-10.592c-2.388-4.234-15.01-10.84-17.291-9.493"/><path fill="#f7a4a4" d="m22.465 8.812c-.89.525-1.755 8.668-.379 11.11l9.96-5.891c-1.317-2.337-8.767-5.7-9.581-5.219"/><path fill="#4c5359" d="m39.27 9.419c-20.773 0-22.725 14.531-22.725 22.728 0 3.362 10.177 13.853 22.725 13.853 12.549-.001 22.727-10.491 22.727-13.854 0-8.196-1.951-22.727-22.727-22.727"/><path fill="#bfffab" d="m33.467 28.546c0 0-2.363 3.601-6.77 2.457-4.406-1.145-4.594-5.406-4.594-5.406s2.361-3.599 6.769-2.456c4.407 1.144 4.595 5.405 4.595 5.405"/><path fill="#93e67f" d="m33.02 26.702c0 0-2.099 2.265-4.979 2.265-3.124 0-4.979-4.425-4.979-4.425s2.056-2.352 5.815-1.403c3.445.867 4.143 3.563 4.143 3.563"/><path fill="#4c5359" d="m29.813 26.649c0 4.926-2.434 4.926-2.434 0 0-4.928 2.434-4.928 2.434 0"/><path fill="#bfffab" d="m45.08 28.546c0 0 2.361 3.601 6.77 2.457 4.406-1.145 4.594-5.406 4.594-5.406s-2.361-3.599-6.77-2.456c-4.406 1.144-4.594 5.405-4.594 5.405"/><path fill="#93e67f" d="m45.533 26.702c0 0 2.1 2.265 4.977 2.265 3.125 0 4.98-4.425 4.98-4.425s-2.055-2.352-5.816-1.403c-3.444.867-4.141 3.563-4.141 3.563"/><path fill="#4c5359" d="m48.734 26.649c0 4.926 2.436 4.926 2.436 0 0-4.928-2.436-4.928-2.436 0"/><path fill="#fff" d="m45.908 32.51c-1.98-1.504-4.17-6.486-6.635-6.486s-4.654 4.982-6.634 6.486c-3.137 2.384-11.497 5.085-11.497 5.085.001 0 8.922 7.619 18.13 7.619 9.211 0 18.13-7.619 18.13-7.619s-8.361-2.701-11.498-5.085"/><g fill="#4c5359"><path d="m45.729 39.31c-.732.443-1.58.623-2.398.584-.826-.059-1.607-.318-2.236-.814-.627-.477-1.09-1.158-1.225-1.91l-.592-3.332-.6 3.332c-.137.75-.596 1.434-1.227 1.91-.613.494-1.436.754-2.215.813-.863.039-1.672-.139-2.417-.582-.737-.43-1.35-1.129-1.663-2.02.044.953.567 1.879 1.317 2.518.745.639 1.764 1.016 2.723 1.057 1.041.057 2.047-.234 2.922-.822.451-.313.846-.727 1.154-1.203.311.477.703.889 1.156 1.201.861.588 1.906.881 2.9.824 1.01-.045 1.986-.418 2.742-1.057.75-.641 1.273-1.564 1.318-2.518-.31.89-.923 1.589-1.659 2.02"/><path d="m42.36 33.09c-.617-.738-2.518-.795-3.086-.795-.566 0-2.469.057-3.088.795-.439.529-.098 1.838 1.074 2.965.74.713 1.447.939 2.01.939.568 0 1.275-.227 2.02-.939 1.172-1.127 1.514-2.436 1.07-2.965"/></g><g fill="#fff"><path d="m38.959 59.62c0 1.055-2.313 1.91-5.164 1.91-2.853 0-5.165-.855-5.165-1.91 0-1.057 2.312.088 5.165.088 2.851 0 5.164-1.144 5.164-.088"/><path d="m49.918 59.62c0 1.055-2.313 1.91-5.164 1.91-2.854 0-5.166-.855-5.166-1.91 0-1.057 2.313.088 5.166.088 2.851 0 5.164-1.144 5.164-.088"/></g><g fill="#3e4347"><path d="m29.575 61.25l1.402-2.448-.424 2.768z"/><path d="m33.11 61.995l.517-3.295.523 3.295z"/><path d="m37.04 61.63l-.395-2.59 1.375 2.26z"/><path d="m47.996 61.57l-.426-2.768 1.403 2.448z"/><path d="m44.4 61.995l.518-3.295.522 3.295z"/><path d="m40.533 61.3l1.367-2.26-.392 2.59z"/></g></svg>