<svg xmlns="http://www.w3.org/2000/svg" viewBox="0 0 64 64" enable-background="new 0 0 64 64"><g fill="#64892f"><path d="m28.685 60.58l3-4.208c0 0-1.508-1.01-2.378-1.134-.873-.129-2.558.405-2.558.405l1.932 4.937"/><path d="m34.34 60.07l1.761-5.02c0 0-1.705-.46-2.571-.296-.867.167-2.336 1.236-2.336 1.236l3.146 4.076"/><path d="m39.505 58.948l1.268-5.2c0 0-1.738-.25-2.584.018-.847.271-2.203 1.512-2.203 1.512l3.519 3.67"/><path d="m57.771 45.853l-2.046-4.879c0 0-1.468 1.075-1.956 1.894-.487.822-.802 2.754-.802 2.754l4.804.231"/><path d="m60.87 38.02l-3.341-3.877c0 0-1.08 1.549-1.306 2.501-.223.955.035 2.896.035 2.896l4.612-1.52"/><path d="m62 28.622l-4.171-2.682c0 0-.653 1.825-.635 2.809.023.985.752 2.771.752 2.771l4.054-2.898"/><path d="m60.702 19.759l-4.704-1.112c0 0-.12 1.962.168 2.892.293.93 1.477 2.377 1.477 2.377l3.059-4.157"/><path d="m57.827 12.391l-4.784-.534c0 0 .069 1.965.446 2.854.381.889 1.697 2.184 1.697 2.184l2.641-4.504"/><path d="m53.38 6.06l-4.521 1.833c0 0 .818 1.738 1.501 2.359.686.619 2.372 1.149 2.372 1.149l.648-5.341"/></g><path fill="#769e2a" d="m26.418 44.724c-2.045-9.278-13.203-2.711-12.991 4.719.127 4.438-13.541 7.06-.201 7.06 3.078 0 5.375.629 5.962-5.626.204-2.178 9.414 3.764 7.23-6.152"/><path fill="#83b533" d="m51.03 8.659c2.142.577 12.41 19.841 4.576 34.582-12.576 23.662-48.22 20.241-50.819-4.778-1.364-13.162 5.337-12.677 5.337-9.05-3.102-1.052-2.459 9.841 2.318 12.738 10.881 6.601 19.918-1.953 23.04-7.641 3.124-5.689.453-12.73.453-15.47 0-2.74 15.09-10.384 15.09-10.384"/><path fill="#ffd93b" d="m14.15 45.16c15.06 10.757 27.563-3.185 31.887-12.455 3.574-7.667 1.667-16.84.898-22.313-4.472 2.467-11.197 6.48-11.197 8.311 0 2.74 2.671 9.782-.453 15.47-3.124 5.688-16.365 14.528-25.311 5.274.925 2.099 2.639 4.614 4.176 5.713"/><g fill="#8cc63e"><path d="m53.5 48.22c-1.589-7.079-3.752-12.05-6.297-10.631s.598 10.09-2.916 15.768c-5.694 9.207 1.853 2.547 5.352 4.482 13.233 7.322 5.94-.35 3.861-9.619"/><path d="m54.04 49.32c-2.159-4.789-4.419-7.884-6.02-6.19-1.597 1.692 1.92 13.714 4.683 14.237 10.45 1.988 4.16-1.777 1.333-8.05"/></g><g fill="#d3b226"><path d="m36.792 27.07c1.783-.783 7.364-1.718 11.05-.65"/><path d="m36.02 32.531c1.892-.339 5.642.166 9.04 2.087"/><path d="m31.559 38.454c1.912.125 4.935 1.041 7.883 3.737"/><path d="m25.871 41.98c1.777.802 3.339 2.272 5.367 5.882"/><path d="m18.01 43.41c0 0 1.026.371 1.466 4.607"/></g><path fill="#769e2a" d="m34.695 37.559c0 1.353-.474 2.686-2.033 2.686s-2.823-1.098-2.823-2.452 2.756-3.845 4.315-3.845.541 2.257.541 3.611"/><path fill="#8cc63e" d="m33.88 49.06c-2.168-10.184-13.998-2.977-13.773 5.177.134 4.87-14.355 7.747-.213 7.747 3.264 0 5.698.69 6.321-6.175.216-2.388 9.98 4.132 7.665-6.749"/><g fill="#64892f"><path d="m2 34.618l3.638 2.468c0 0 .612-1.596.612-2.468s-.612-2.466-.612-2.466l-3.638 2.466"/><path d="m2.824 41.06l4.03 1.512c0 0 .285-1.707.114-2.557-.17-.852-1.079-2.256-1.079-2.256l-3.066 3.301"/><path d="m4.947 47.3l4.229.481c0 0-.058-1.735-.391-2.522-.333-.789-1.495-1.936-1.495-1.936l-2.343 3.977"/><path d="m8.117 53.642l4.773-.654c0 0-.451-1.898-.993-2.674-.543-.775-2.081-1.715-2.081-1.715l-1.699 5.04"/><path d="m13.904 58.789l4.323-2.361c0 0-.979-1.632-1.716-2.165-.739-.535-2.467-.862-2.467-.862l-.14 5.388"/></g><path fill="#83b533" d="m50.584 11.04c1.937 1.755 6.124 6.298 3.687 10.245s-12.813 7.135-23.438 4.26-24.808-8.711-25.375-11.167 1.105-2.396 2.209-1.583 42.917-1.755 42.917-1.755"/><ellipse fill="#8cc63e" cx="38.596" cy="7.641" rx="5.393" ry="5.643"/><ellipse fill="#fff" cx="38.596" cy="7.641" rx="4.441" ry="4.646"/><ellipse fill="#3e4347" cx="38.595" cy="7.641" rx="3.109" ry="3.253"/><path fill="#e8f94b" d="m7.02 12.08v3.366l2.188-1.279.188 2.562 1.977-1.679.96 3.365 2.563-2.154 1.281 3.687 3.062-2.562 1.688 4.343 5.303-3.719.416 5.251 3.753-3.333 1.901 4.817 3.398-4.575 2.632 5.278 3.149-5.199 2.791 5.04 1.87-5.282 3.88 3.407-.468-4.77 4.468 1.114-3.389-4.711 2.609-.289-2.75-2.681-17.2 4.486-17.341-2.32z"/><path fill="#8cc63e" d="m9.785 8.59c0 2.508-.703 2.447-1.569 2.447-.867 0-1.569.061-1.569-2.447 0-1.352.702-2.447 1.569-2.447.866 0 1.569 1.095 1.569 2.447"/><ellipse fill="#4b662b" cx="7.667" cy="8.59" rx=".642" ry="1.734"/><g fill="#8cc63e"><path d="m4.469 10.724c-.288-6.29 16.16 5.976 36.927-2.309 5.04-2.01 9.838-.145 10.125 6.145.289 6.29-4.1 7.133-9.484 7.833-5.683.738-37.28-5.38-37.568-11.669"/><path d="m14.762 9.871c0 3.704-1.037 3.615-2.317 3.615-1.281 0-2.318.089-2.318-3.615 0-1.997 1.037-3.616 2.318-3.616 1.28 0 2.317 1.619 2.317 3.616"/></g><ellipse fill="#4b662b" cx="12.03" cy="9.871" rx="1.284" ry="2.561"/><ellipse fill="#8cc63e" cx="46.14" cy="7.641" rx="5.392" ry="5.643"/><ellipse fill="#fff" cx="46.14" cy="7.641" rx="4.441" ry="4.646"/><ellipse fill="#3e4347" cx="46.14" cy="7.641" rx="3.109" ry="3.253"/></svg>