<svg xmlns="http://www.w3.org/2000/svg" viewBox="0 0 64 64" enable-background="new 0 0 64 64"><g fill="#c1875d"><ellipse cx="51.14" cy="40.06" rx="4.773" ry="6.171"/><ellipse cx="27.844" cy="43.804" rx="4.773" ry="6.17"/><path d="m49.32 33.676v23.18c0 2.813 1.318 3.051 2.941 3.051 1.629 0 2.945-.237 2.945-3.051v-23.18h-5.886"/></g><path fill="#89664c" d="m55.912 61.999h-7.301l.707-5.092c0 0 .771-1.021 2.943-1.021 2.172 0 2.943 1.021 2.943 1.021l.708 5.092"/><path fill="#c1875d" d="m24.9 33.676v23.18c0 2.813 1.318 3.051 2.941 3.051 1.629 0 2.945-.237 2.945-3.051v-23.18h-5.886"/><path fill="#89664c" d="m31.495 61.999h-7.302l.707-5.092c0 0 .771-1.021 2.943-1.021s2.943 1.021 2.943 1.021l.709 5.092"/><path fill="#e0ac7e" d="m52.97 33.676v23.18c0 2.813 1.317 3.051 2.941 3.051 1.628 0 2.944-.237 2.944-3.051v-23.18h-5.885"/><path fill="#c1875d" d="m59.56 61.999h-7.302l.708-5.092c0 0 .771-1.021 2.943-1.021 2.171 0 2.942 1.021 2.942 1.021l.709 5.092"/><g fill="#e0ac7e"><path d="m60.35 41.551c.226-4.802-3.386-9.535-3.421-9.583l.71-.516c.156.204 3.837 5.03 3.598 10.136l-.887-.037"/><path d="m60.765 38.935c-.662 1.188-1.097 2.31-1.204 3.185.113.795.551 1.709 1.234 2.576.662-1.187 1.096-2.311 1.205-3.185-.115-.795-.551-1.71-1.235-2.576"/><path d="m58.871 35.891c.498 5.826-12.02 7.913-21.484 7.913-12.266 0-20.811-20.487-18.277-17.02 3.414 4.669 5.791-2.283 8.549-3.235 5.859-2.02 10.863.14 17.1.739 7.751.744 14.11 5.185 14.11 11.603"/><path d="m55.01 28.14c0 5.331-3.197 7.682-7.143 7.682s-7.143-4.323-7.143-9.654c0-.296 3.196-9.653 7.143-9.653 3.946 0 7.143 10.306 7.143 11.625"/><path d="m41.943 24.5c0 5.331-3.197 9.653-7.142 9.653-3.946 0-7.144-4.322-7.144-9.653 0-.298 3.199-9.654 7.144-9.654s7.142 9.357 7.142 9.654"/><path d="m28.553 33.676v23.18c0 2.813 1.316 3.051 2.941 3.051 1.627 0 2.944-.237 2.944-3.051v-23.18h-5.885"/></g><path fill="#c1875d" d="m35.15 61.999h-7.303l.709-5.092c0 0 .77-1.021 2.943-1.021 2.171 0 2.942 1.021 2.942 1.021l.709 5.092"/><path fill="#e0ac7e" d="m7.545 13.916c4.873 2.139 6.796.074 6.796.074-9.388 10.783-4.27 42.42 13.902 26.07 21.576-19.415 2.463-8.134-.586-8.134s-11.433-.738-5.695-15.415c5.737-14.679-8.02-10.175-14.433-9.88-3.412.157-3.4 2.284-4.987 3.226-.945.561-.489 1.21.124 1.348l.049.408c-1.132.576-.39 2.443.805 2.064 2.066-.653 3.205-.124 4.03.237"/><path fill="#ffe2b3" d="m14.342 13.99c-9.64 9.972-4.76 40.95 12.262 27.447-13.544 5.775-15.431-23.365-12.262-27.447"/><g fill="#e0ac7e"><ellipse cx="31.495" cy="44.696" rx="4.773" ry="6.171"/><ellipse cx="54.09" cy="39.27" rx="4.773" ry="6.171"/><path d="m22.922 8.463c-1.42-2.892-6.57-6.707-10.438-6.452 0 0 1.385.635 1.418 1.652 0 0-1.76-.029-2.266.531 1.385.383 1.565 1.036 1.565 1.036s-1.06-.299-1.997.524c1.41.018 1.41.327 3.17 1.39 1.761 1.063 8.548 1.319 8.548 1.319"/></g><path fill="#89664c" d="m4.725 8.685c.102.122.51-.002.913-.277.403-.275.646-.596.545-.718-.102-.121-.51.003-.912.277-.403.276-.647.597-.546.718"/><ellipse fill="#c1875d" cx="14.813" cy="9.177" rx="2.086" ry="1.534"/><ellipse fill="#3e4347" cx="14.755" cy="8.922" rx=".946" ry=".723"/><path fill="#c1875d" d="m18.627 7.834c.304-.431 2.766-1.032 4.133-1.062 1.368-.029.177 2.979-2.066 3.422-2.243.443-2.419-1.858-2.067-2.36"/><path fill="#e0ac7e" d="m19 8.472c.238-.36 2.172-.864 3.246-.889s.139 2.494-1.623 2.865c-1.762.371-1.899-1.555-1.623-1.976"/><path fill="#89664c" d="m2.672 11.208c2.624 0 6.47 1.306 8.532.656-2.501.988-5.859-.25-8.49-.25l-.042-.406"/></svg>