<svg xmlns="http://www.w3.org/2000/svg" viewBox="0 0 64 64" enable-background="new 0 0 64 64"><path fill="#f5d1ac" d="m15.775 52.06c-6.748-4.386-9.438-21.414-7.238-29.17 1.638-5.771 7.832-14.276 13.393-16.495 4.678-1.867 15.462-1.867 20.14 0 5.563 2.218 11.755 10.724 13.393 16.495 2.203 7.754.513 24.783-6.238 29.17-14.233 9.249-19.217 9.25-33.45 0"/><path fill="#423223" d="m5.072 24.651c3.614 7.906 4.5 8.216 7.912-1.182 1.819-5.02.545-8.01 2.66-11.25 1.178-1.806 3.906-4.758 3.906-4.758s-21.298 2.258-14.478 17.19"/><path fill="#947151" d="m14.18 7.166c-5.378 3.464-16.901 2.09-10.08 17.02 3.614 7.907 4.5 8.216 7.912-1.182 1.819-5.02.545-8.01 2.66-11.25 1.178-1.806 4.879-4.296 4.879-4.296s-1.681-2.674-5.371-.295"/><path fill="#423223" d="m58.929 24.646c-3.614 7.906-4.5 8.217-7.912-1.182-1.819-5.02-.545-8.01-2.66-11.25-1.178-1.806-3.906-4.758-3.906-4.758s21.298 2.258 14.478 17.19"/><path fill="#947151" d="m49.821 7.161c5.378 3.465 16.9 2.091 10.08 17.02-3.614 7.906-4.5 8.216-7.912-1.182-1.819-5.02-.545-8.01-2.66-11.25-1.178-1.806-4.879-4.296-4.879-4.296s1.681-2.674 5.371-.295"/><ellipse fill="#fff" cx="17.749" cy="30.732" rx="6" ry="6.01"/><ellipse fill="#3e4347" cx="16.249" cy="30.732" rx="4.5" ry="4.509"/><ellipse fill="#fff" cx="46.25" cy="30.732" rx="6" ry="6.01"/><ellipse fill="#3e4347" cx="47.751" cy="30.732" rx="4.5" ry="4.509"/><path fill="#7d644b" d="m21.689 48.804l4.65 4.869c2.796 2.914 8.525 2.916 11.317 0l4.652-4.869-4.78-5h-11.06l-4.781 5"/><path fill="#f15a61" d="m32 39.604c0 0-4.861 6.954-4.281 10.328.818 4.774 7.744 4.774 8.563 0 .579-3.374-4.282-10.328-4.282-10.328"/><path fill="#ba454b" d="m32 51.722l1.083-6.728h-2.166l1.083 6.728"/><path fill="#423223" d="m26.986 41.515h10.03v4.564h-10.03z"/><path fill="#947151" d="m47.835 42.603l-7.142-7.479c-4.295-4.475-13.09-4.479-17.382 0l-7.146 7.479c-2.027 2.121-2.027 5.561 0 7.684 2.024 2.116 5.314 2.116 7.342 0l7.148-7.477c.688-.722 2-.722 2.69 0l7.146 7.477c2.028 2.116 5.316 2.116 7.342 0 2.028-2.124 2.028-5.563.002-7.684"/><g fill="#3e4347"><path d="m26.1 35.654c0-2.635 2.642-3.143 5.898-3.143 3.259 0 5.898.508 5.898 3.143 0 2.092-4.695 3.949-5.898 3.949-1.206.001-5.898-1.857-5.898-3.949"/><path transform="matrix(.7061-.7081.7081.7061-20.472 28.681)" d="m23.605 38.3h1.416v1.415h-1.416z"/><path transform="matrix(.7061-.7081.7081.7061-23.12 27.805)" d="m21.22 41.05h1.416v1.415h-1.416z"/><path transform="matrix(.7061-.7081.7081.7061-22.913 30.32)" d="m24.355 42.05h1.416v1.415h-1.416z"/><path transform="matrix(-.7061-.7081.7081-.7061 40.09 94.64)" d="m38.978 38.3h1.416v1.415h-1.416z"/><path transform="matrix(-.7061-.7081.7081-.7061 42.2 101.03)" d="m41.36 41.05h1.416v1.415h-1.416z"/><path transform="matrix(-.7061-.7081.7081-.7061 36.15 100.52)" d="m38.23 42.05h1.416v1.415h-1.416z"/></g></svg>