<svg xmlns="http://www.w3.org/2000/svg" viewBox="0 0 64 64" enable-background="new 0 0 64 64"><path fill="#ffdd67" d="m31.765 36.906c0 0-4.354-.869-.753 6.613 2.608 5.418 2.348 11.709 0 15.05-3.757 5.344-11.07 3.592-10.311.523 2.607-10.546-3.284-13.688-6.328-20.345-3.085-6.745-2.746-16.32-1.327-24.845.887-5.328 3.138-11.9 11.448-11.9h11.486l-4.215 34.906"/><path fill="#eba352" d="m25.75 3.484c-8.31 0-10.13 6.569-11.02 11.897-1.419 8.524-1.646 15.328 1.082 22.22 2.968 7.498 6.096 7.717 6.096 22.542 0 .742.392 1.23.793 1.557-1.407-.467-2.186-1.289-2.186-2.492 0-11.09-3.101-13.804-6.144-20.46-3.086-6.746-2.747-16.321-1.328-24.846.887-5.328 3.138-11.9 11.448-11.9h11.486v1.483h-10.23"/><path fill="#ffdd67" d="m45.998 28.18h-14.233c-4.965 0-4.965 8.723 0 8.723h14.233c4.965-.001 4.965-8.723 0-8.723"/><path fill="#eba352" d="m47.1 29.633h-14.232c-3.351 0-4.432 3.965-3.26 6.549-2.654-2.08-1.944-7.998 2.148-7.998h14.232c1.614 0 2.694.927 3.259 2.173-.565-.447-1.275-.724-2.147-.724"/><path fill="#ffdd67" d="m47.532 19.427h-17.08c-5.957 0-5.957 8.722 0 8.722h17.08c5.956-.001 5.956-8.722-.001-8.722"/><path fill="#eba352" d="m48.857 20.875h-17.08c-4.02 0-5.317 3.967-3.91 6.548-3.187-2.08-2.334-7.996 2.576-7.996h17.08c1.938 0 3.234.927 3.911 2.171-.678-.444-1.532-.723-2.578-.723"/><path fill="#ffdd67" d="m45.931 10.705h-14.437c-5.04 0-5.04 8.722 0 8.722h14.437c5.04 0 5.04-8.722 0-8.722"/><path fill="#eba352" d="m47.05 12.153h-14.436c-3.398 0-4.492 3.968-3.307 6.551-2.692-2.082-1.972-7.999 2.18-7.999h14.438c1.636 0 2.731.929 3.306 2.174-.575-.446-1.295-.726-2.181-.726"/><path fill="#ffdd67" d="m44.38 2h-9.329c-5.385 0-5.385 8.721 0 8.721h9.329c5.388 0 5.388-8.721 0-8.721"/><path fill="#eba352" d="m45.58 3.448h-9.333c-3.631 0-4.804 3.968-3.532 6.551-2.881-2.082-2.109-7.999 2.33-7.999h9.329c1.75 0 2.923.928 3.535 2.172-.613-.443-1.381-.724-2.329-.724"/></svg>