<svg xmlns="http://www.w3.org/2000/svg" viewBox="0 0 64 64" enable-background="new 0 0 64 64"><path fill="#dbb471" d="m32 1.998c-18.11 0-28 11.449-28 26.527v33.473h56v-33.473c0-22.413-15.16-21.996-15.16-21.996s-1.14-4.531-12.84-4.531"/><path fill="#fed0ac" d="m12.03 41.14c0 0-4.03-1.031-4.03-6.998 0-4.727 3.039-5.538 3.039-5.538 10.896 0 28.643-14.157 28.643-14.157s6.709 12.5 13.184 14.157c0 0 3.135.578 3.135 5.538 0 5.967-4.182 6.998-4.182 6.998-.057 9-12.352 19.861-19.817 19.861-7.468 0-19.97-10.859-19.97-19.861"/><path fill="#e0a372" d="m37 45.25c0 1.963-4.067 2.529-5 2.529s-5-.695-5-2.656c-.001 0 10-.851 10 .127"/><path fill="#f5f5f5" d="m25.19 37.41c1.176 0 1.02-3.037 1.02-3.037-3.608-8.06-11.646-2.96-11.646-2.96-3.123 1.396 1.4 5.804 2.125 5.998 3.404.921 8.501-.001 8.501-.001"/><circle fill="#664e27" cx="20.485" cy="33.717" r="3.844"/><g fill="#231f20"><circle cx="20.485" cy="33.717" r="1.25"/><path d="m27.22 35.531c-.984-1.199-1.956-2.353-3.086-3.231-1.129-.873-2.396-1.426-3.766-1.513-1.367-.132-2.801.16-4.287.441-.744.145-1.513.288-2.314.333-.776.032-1.712-.06-2.267-.655.732.291 1.452.137 2.149-.072.703-.204 1.4-.491 2.127-.736 1.44-.511 3.03-.932 4.717-.804.834.083 1.673.294 2.432.667.752.384 1.436.88 1.992 1.476 1.129 1.179 1.866 2.607 2.303 4.094"/></g><path fill="#f5f5f5" d="m38.813 37.41c-1.176 0-1.02-3.037-1.02-3.037 3.607-8.06 11.645-2.96 11.645-2.96 3.125 1.396-1.4 5.804-2.125 5.998-3.403.921-8.5-.001-8.5-.001"/><circle fill="#664e27" cx="43.52" cy="33.717" r="3.844"/><g fill="#231f20"><circle cx="43.52" cy="33.717" r="1.25"/><path d="m36.785 35.531c.436-1.487 1.172-2.915 2.301-4.095.557-.596 1.24-1.092 1.992-1.476.758-.372 1.598-.584 2.432-.667 1.686-.127 3.275.293 4.715.804.729.245 1.426.533 2.127.736.699.208 1.418.362 2.15.072-.555.596-1.49.688-2.268.655-.801-.045-1.568-.188-2.313-.333-1.486-.281-2.92-.573-4.287-.441-1.369.087-2.637.64-3.766 1.513-1.128.88-2.1 2.033-3.083 3.232"/></g><path fill="#e08672" d="m35.555 50.06c-.727-.178-1.787-.094-3.186.375-.123.037-.244.078-.365.117-.123-.039-.244-.08-.367-.117-1.398-.469-2.459-.553-3.184-.375-2.166.527-5.45.27-5.45.27 2.388 2.387 3.522 5.645 9 5.645 5.477 0 6.612-3.258 8.999-5.645-.001-.001-3.284.257-5.448-.27"/><path fill="#b86e5d" d="m35.555 50.06c-.727-.178-1.787-.094-3.186.375-.123.037-.244.078-.365.117-.123-.039-.244-.08-.367-.117-1.398-.469-2.459-.553-3.184-.375-2.127.518-5.462.268-5.45.27 3.603.648 4.052 2.488 9 2.488 4.948 0 5.397-1.84 8.999-2.488.011-.003-3.323.247-5.448-.27"/></svg>