<svg xmlns="http://www.w3.org/2000/svg" viewBox="0 0 64 64" enable-background="new 0 0 64 64"><path fill="#594640" d="m32 1.998c-18.11 0-28 11.449-28 26.527v33.473h56v-33.473c0-22.413-15.16-21.996-15.16-21.996s-1.141-4.531-12.841-4.531"/><path fill="#ffe1bd" d="m12.03 41.14c0 0-4.03-1.031-4.03-6.998 0-4.726 3.039-5.537 3.039-5.537 10.895 0 28.643-14.157 28.643-14.157s6.709 12.5 13.184 14.157c0 0 3.135.578 3.135 5.537 0 5.967-4.182 6.998-4.182 6.998-.057 9-12.352 19.862-19.817 19.862-7.469 0-19.971-10.86-19.971-19.862"/><path fill="#e6b796" d="m37 45.25c0 1.962-4.066 2.529-5 2.529s-5-.695-5-2.657c0 0 10-.851 10 .128"/><path fill="#f5f5f5" d="m25.19 37.41c1.176 0 1.02-3.038 1.02-3.038-3.608-8.06-11.646-2.959-11.646-2.959-3.123 1.396 1.4 5.803 2.125 5.998 3.405.921 8.501-.001 8.501-.001"/><circle fill="#664e27" cx="20.484" cy="33.716" r="3.844"/><g fill="#231f20"><circle cx="20.484" cy="33.716" r="1.25"/><path d="m27.22 35.53c-.983-1.198-1.956-2.352-3.085-3.23-1.129-.873-2.397-1.426-3.766-1.513-1.368-.132-2.801.16-4.288.441-.744.145-1.513.288-2.313.333-.777.032-1.713-.06-2.268-.655.732.291 1.452.137 2.15-.072.702-.204 1.399-.491 2.127-.736 1.439-.511 3.03-.932 4.717-.804.834.083 1.672.294 2.432.667.752.384 1.435.88 1.992 1.476 1.129 1.179 1.865 2.607 2.302 4.093"/></g><path fill="#f5f5f5" d="m38.812 37.41c-1.176 0-1.02-3.038-1.02-3.038 3.608-8.06 11.646-2.959 11.646-2.959 3.125 1.396-1.4 5.803-2.125 5.998-3.403.921-8.501-.001-8.501-.001"/><circle fill="#664e27" cx="43.52" cy="33.716" r="3.844"/><g fill="#231f20"><circle cx="43.52" cy="33.716" r="1.25"/><path d="m36.784 35.53c.437-1.486 1.173-2.914 2.302-4.094.557-.596 1.239-1.092 1.991-1.476.759-.372 1.599-.584 2.432-.667 1.687-.127 3.276.293 4.716.804.728.245 1.425.533 2.127.736.698.208 1.418.362 2.15.072-.555.596-1.49.688-2.268.655-.801-.045-1.568-.188-2.313-.333-1.487-.281-2.92-.573-4.288-.441-1.368.087-2.636.64-3.765 1.513-1.129.88-2.1 2.033-3.084 3.231"/></g><path fill="#f09985" d="m35.554 50.06c-.727-.179-1.787-.094-3.186.374-.123.038-.244.078-.365.117-.123-.039-.244-.079-.367-.117-1.398-.468-2.459-.553-3.184-.374-2.166.527-5.45.27-5.45.27 2.388 2.387 3.522 5.645 9 5.645 5.477 0 6.611-3.258 8.999-5.645 0-.001-3.284.257-5.448-.27"/><path fill="#d47f6c" d="m35.554 50.06c-.727-.179-1.787-.094-3.186.374-.123.038-.244.078-.365.117-.123-.039-.244-.079-.367-.117-1.398-.468-2.459-.553-3.184-.374-2.127.518-5.462.268-5.45.27 3.603.647 4.052 2.488 9 2.488 4.947 0 5.396-1.841 8.999-2.488.012-.003-3.323.247-5.448-.27"/></svg>