<svg xmlns="http://www.w3.org/2000/svg" viewBox="0 0 64 64" enable-background="new 0 0 64 64"><path fill="#ffce31" d="M11.159 54.795 9.482 53.15 25.18 37.703 26.858 39.35z"/><path fill="#42ade2" d="m4.205 59.984c0 0-.576-6.697 5.253-12.428l1.714 5.574-6.967 6.854"/><path fill="#467591" d="m4.205 59.984c0 0 6.808.566 12.637-5.166l-5.669-1.688-6.968 6.854"/><path fill="#f46767" d="m53.741 24.385c-5.601-14.576-23.784-8.04-25.467-.756-2.313-7.758-20.05-13.547-25.462.766-6.03 15.939 23.359 30.25 25.462 32.59 2.102-1.864 31.493-16.919 25.467-32.6"/><path fill="#ffce31" d="m39.997 27.29l-1.677-1.649 16.16-15.899 1.68 1.651z"/><g fill="#467591"><path d="m46.923 17.18c0 0-.309-6.959 6.02-13.182l1.546 5.742-7.561 7.44"/><path d="m48.601 18.83c0 0 7.07.305 13.398-5.916l-5.836-1.521-7.562 7.437"/></g></svg>