<svg xmlns="http://www.w3.org/2000/svg" viewBox="0 0 64 64" enable-background="new 0 0 64 64"><path fill="#83bf4f" d="m25 14h-18c-1.657 0-3-1.344-3-3s1.343-3 3-3h18c1.657 0 3 1.344 3 3h4c0-3.866-3.134-7-7-7h-7v-4h-4v4h-7c-3.866 0-7 3.134-7 7s3.134 7 7 7h18c1.657 0 3 1.344 3 3 0 1.657-1.343 3-3 3v-.001h-18v.001c-1.657 0-3-1.344-3-3h-4c0 3.866 3.134 7 7 7h7v4h4v-4h7c3.866 0 7-3.134 7-7s-3.134-7-7-7"/><g fill="#94989b"><path d="m42.722 22.11l-5.187 5.18 16.264.71-.709-16.264-5.184 5.187-13.906-8.722z"/><path d="m19 37l.707 16.26 4.95-4.95 14.14 8.489-8.489-14.14 4.95-4.95z"/></g><path fill="#83bf4f" d="m54.961 44l9.04-9.22-2.73-2.78-8.27 8.44-8.275-8.44-2.725 2.78 9.04 9.22h-.04-4.051v4h4.051v4h-4.051v4h4.051v8h4v-8h4.05v-4h-4.05v-4h4.05v-4h-4.05z"/></svg>