<svg xmlns="http://www.w3.org/2000/svg" viewBox="0 0 64 64" enable-background="new 0 0 64 64"><path fill="#d9e3e8" d="m0 0c17.302 17.05 6.697 46.953 24 64 12.729-8.352 27.27-16.648 40-25-7.652-7.539-8.296-18.363-10-28-7.939-3.03-16.6-6.951-29-11h-25"/><g fill="#7d8b91"><path d="m13.04 9.02c.418.813.8 1.641 1.146 2.48 5.411-.988 10.819-1.975 16.229-2.962-.3-.73-.632-1.448-.995-2.157-5.461.88-10.922 1.759-16.38 2.639"/><path d="m16.39 18.801c5.313-1.305 10.627-2.611 15.941-3.916-.166-.779-.349-1.55-.556-2.313-5.342 1.189-10.682 2.379-16.02 3.568.237.88.449 1.766.64 2.661"/><path d="m17.587 26.46c10.524-3.278 21.05-6.557 31.571-9.834-.077-.682-.164-1.362-.259-2.04-10.556 3.038-21.11 6.076-31.663 9.113.129.917.243 1.837.351 2.761"/></g><path opacity=".5" fill="#333" d="m25 0c4.854 4.784 2.92 17.885 4 24 7.05-1.857 17.954-11.144 25-13-7.939-3.03-16.6-6.951-29-11"/><path fill="#7d8b91" d="m22.11 51.32c.354.838.743 1.664 1.17 2.475 5.02-2.83 10.03-5.66 15.04-8.49-.371-.705-.709-1.422-1.017-2.15-5.064 2.722-10.128 5.443-15.194 8.165"/><path fill="#d9e3e8" d="m25 0c4.854 4.784 6.6 10.571 7.68 16.686 7.05-1.857 14.274-3.83 21.32-5.686-7.939-3.03-16.6-6.951-29-11"/></svg>