<svg xmlns="http://www.w3.org/2000/svg" viewBox="0 0 64 64" enable-background="new 0 0 64 64"><circle fill="#ed4c5c" cx="32" cy="32" r="30"/><circle fill="#333" cx="32" cy="32" r="24"/><path fill="#fff" d="m41.475 28.11v-7.235-7c0-.485-.424-.879-.945-.879-.523 0-.945.394-.945.879v.455l-14.14 9.947h-6.17c-1.247 0-2.259.94-2.259 2.1v2.082 7.07 2.081c0 1.16 1.012 2.101 2.259 2.101h6.17l14.15 9.947v.455c0 .485.422.879.945.879.521 0 .945-.394.945-.879v-7-7.235c2.309 0 4.18-1.739 4.18-3.885-.001-2.147-1.872-3.887-4.18-3.887"/><path transform="matrix(-.7071-.7071.7071-.7071 31.999 77.25)" fill="#ed4c5c" d="m2.815 29h58.37v6h-58.37z"/></svg>