<svg xmlns="http://www.w3.org/2000/svg" viewBox="0 0 64 64" enable-background="new 0 0 64 64"><path fill="#44363c" d="m51.905 26l-2.273.705 2.177.962-2.339.423 2.03 1.239-2.38.091 1.828 1.523-2.364-.268 1.576 1.786-2.298-.63 1.288 2-2.18-.963.983 2.169-2.025-1.253.701 2.273-1.862-1.483.443 2.339-1.7-1.666.221 2.37-1.541-1.809.02 2.379-1.4-1.92-.137 2.375-1.283-2.01-.28 2.363-1.165-2.076-.413 2.346-1.053-2.14-.52 2.328-.963-2.178-.615 2.299-.875-2.219-.707 2.278-.799-2.248-.79 2.248-.709-2.278-.871 2.22-.62-2.3-.96 2.179-.523-2.319-1.056 2.13-.411-2.345-1.165 2.075-.289-2.363-1.284 2.01-.142-2.373-1.41 1.91.03-2.375-1.553 1.805.223-2.37-1.703 1.663.449-2.336-1.862 1.483.706-2.277-2.03 1.247.99-2.163-2.179.96 1.289-1.999-2.296.627 1.576-1.781-2.36.267 1.828-1.519-2.377-.09 2.033-1.232-2.342-.423 2.177-.963-2.269-.704 2.271-.76-2.169-1.03 2.351-.488-2.031-1.281 2.392-.201-1.864-1.512 2.398.077-1.681-1.715 2.373.347-1.479-1.889 2.325.602-1.276-2.04 2.251.84-1.065-2.151 2.154 1.051-.849-2.243 2.051 1.248-.645-2.312 1.93 1.429-.437-2.361 1.797 1.59-.236-2.389 1.659 1.735-.039-2.4 1.513 1.863.157-2.395 1.36 1.979.344-2.376 1.2 2.079.528-2.343 1.039 2.166.708-2.297.87 2.237.872-2.237.703 2.297 1.039-2.166.526 2.342 1.2-2.079.347 2.376 1.363-1.979.15 2.396 1.516-1.864-.038 2.4 1.662-1.734-.24 2.389 1.802-1.59-.437 2.361 1.935-1.427-.649 2.312 2.051-1.249-.854 2.245 2.162-1.053-1.07 2.153 2.25-.833-1.27 2.03 2.32-.598-1.48 1.888 2.37-.35-1.675 1.718 2.398-.077-1.863 1.509 2.39.204-2.03 1.279 2.349.487-2.17 1.03z"/><path fill="#75676d" d="m39.34 36.568c0 0 10.423-2.26 17.328-8.688 1.604-1.494-4.156-6.438-4.156-6.438s3.104 4.135.938 6.303c-2.072 2.072-10.294 5.236-11.392 5.133l-2.718 3.69"/><path fill="#5b4c52" d="m38.937 36.654c0 0 11.582-4.188 17.356-9.117 1.685-1.438-3.781-6.094-3.781-6.094s3.251 3.781 1.625 5.406c-2.072 2.072-11.453 6.06-12.552 5.953l-2.648 3.852"/><path fill="#75676d" d="m21.943 32.879c-1.098.104-9.319-3.061-11.392-5.133-2.167-2.168.938-6.303.938-6.303s-5.76 4.943-4.156 6.438c6.905 6.428 17.328 8.688 17.328 8.688l-2.718-3.69"/><path fill="#5b4c52" d="m22.416 32.803c-1.099.105-10.479-3.881-12.552-5.953-1.626-1.625 1.625-5.406 1.625-5.406s-5.466 4.656-3.781 6.093c5.774 4.93 17.356 9.117 17.356 9.117l-2.648-3.851"/><path fill="#75676d" d="m40.35 38.488c0 0 5.396 1.756 16.514-4.297 2.584-1.406-5.632 11.771-6.843 14.02 1.732-2.172 15.438-16.395 9.241-17.17-3.903-.482-12.758 4.055-14.15 3.555l-4.762 3.888"/><path fill="#5b4c52" d="m39.799 38.467c0 0 6.733.285 15.882-4.197 2.67-1.309-4.446 11.693-5.657 13.941 1.732-2.172 14.1-15.66 7.907-16.432-3.899-.484-12.01 3.064-13.405 2.564l-4.727 4.124"/><path fill="#75676d" d="m18.886 34.6c-1.393.5-10.247-4.04-14.15-3.555-6.197.771 7.509 14.994 9.241 17.17-1.211-2.248-9.426-15.426-6.843-14.02 11.12 6.05 16.514 4.297 16.514 4.297l-4.762-3.888"/><g fill="#5b4c52"><path d="m19.475 34.34c-1.393.5-9.506-3.049-13.405-2.564-6.197.771 6.175 14.26 7.907 16.432-1.211-2.249-8.327-15.251-5.657-13.942 9.148 4.482 15.882 4.197 15.882 4.197l-4.727-4.123"/><path d="m47.911 36.23l-1.821.566 1.744.77-1.872.336 1.623.993-1.9.072 1.465 1.213-1.89-.21 1.255 1.43-1.835-.507 1.025 1.601-1.738-.77.787 1.726-1.624-.99.565 1.81-1.485-1.18.35 1.869-1.36-1.334.18 1.895-1.23-1.45.02 1.905-1.13-1.535-.103 1.9-1.025-1.606-.228 1.89-.932-1.66-.322 1.874-.847-1.708-.413 1.86-.772-1.74-.492 1.84-.706-1.78-.563 1.82-.637-1.79-.631 1.79-.567-1.82-.692 1.78-.5-1.84-.773 1.741-.42-1.861-.85 1.708-.327-1.876-.936 1.66-.224-1.891-1.03 1.609-.11-1.9-1.129 1.528.023-1.908-1.24 1.449.181-1.894-1.362 1.328.359-1.863-1.488 1.18.565-1.82-1.621 1 .792-1.732-1.741.768 1.031-1.598-1.834.502 1.262-1.422-1.89.212 1.465-1.211-1.899-.071 1.626-.991-1.87-.334 1.736-.769-1.816-.564 1.818-.609-1.728-.821 1.87-.388-1.62-1.023 1.912-.159-1.491-1.21 1.918.06-1.344-1.371 1.899.277-1.184-1.509 1.858.479-1.02-1.625 1.799.667-.85-1.718 1.724.84-.682-1.795 1.639.999-.518-1.849 1.546 1.142-.351-1.887 1.438 1.27-.19-1.91 1.326 1.389-.03-1.919 1.211 1.49.12-1.92 1.09 1.586.275-1.899.96 1.662.422-1.873.829 1.73.564-1.835.7 1.788.698-1.788.562 1.835.83-1.731.422 1.874.959-1.663.276 1.9 1.086-1.586.125 1.92 1.212-1.492-.03 1.92 1.326-1.388-.186 1.91 1.438-1.269-.348 1.887 1.539-1.141-.509 1.849 1.63-.998-.68 1.792 1.73-.84-.85 1.72 1.79-.667-1.01 1.626 1.853-.48-1.183 1.512 1.897-.278-1.347 1.367 1.92-.06-1.491 1.21 1.911.161-1.623 1.022 1.879.388-1.736.822z"/></g><ellipse fill="#ffe62e" cx="37.425" cy="33.926" rx="4.722" ry="4.805"/><path fill="#3f3438" d="m40.683 33.926c0 1.824-1.453 3.305-3.248 3.305-1.79 0-3.245-1.48-3.245-3.305s1.455-3.305 3.245-3.305c1.794 0 3.248 1.481 3.248 3.305"/><ellipse fill="#ffe62e" cx="26.575" cy="33.926" rx="4.723" ry="4.805"/><path fill="#3f3438" d="m29.833 33.926c0 1.824-1.453 3.305-3.248 3.305-1.79 0-3.246-1.48-3.246-3.305s1.456-3.305 3.246-3.305c1.794 0 3.248 1.481 3.248 3.305"/><path fill="#75676d" d="m40.59 41.896c0 0 4.624 3.289 17.04.84 2.886-.572-8.895 9.547-10.723 11.33 2.303-1.555 19.636-11.03 13.952-13.617-3.579-1.627-13.387.055-14.565-.84l-5.707 2.287"/><path fill="#5b4c52" d="m40.07 41.711c0 0 6.341 2.285 16.41.744 2.939-.449-7.739 9.828-9.567 11.611 2.303-1.555 18.14-10.725 12.46-13.314-3.576-1.629-12.379-.668-13.559-1.563l-5.744 2.522"/><path fill="#75676d" d="m17.704 39.609c-1.179.895-10.986-.787-14.565.84-5.683 2.59 11.649 12.06 13.952 13.617-1.828-1.783-13.608-11.902-10.723-11.33 12.419 2.449 17.04-.84 17.04-.84l-5.707-2.287"/><path fill="#5b4c52" d="m18.19 39.19c-1.18.895-9.982-.066-13.559 1.563-5.683 2.59 10.157 11.76 12.46 13.314-1.828-1.783-12.507-12.06-9.567-11.611 10.07 1.541 16.41-.744 16.41-.744l-5.744-2.522"/><path fill="#fff" d="m35.06 40.973c0-1.049-1.371-.211-3.063-.211-1.691 0-3.063-.838-3.063.211 0 1.051 1.371 1.902 3.063 1.902 1.691 0 3.063-.852 3.063-1.902"/><g fill="#e24b4b"><path d="m40 15.875c0 0-3.582-.939-8-.939-4.42 0-8 .939-8 .939s3.58-3.045 8-3.045c4.418 0 8 3.045 8 3.045"/><path d="m40 18.316c0 0-3.582-1.217-8-1.217-4.418.001-8 1.217-8 1.217s3.582-3.498 8-3.498c4.417 0 7.999 3.498 7.999 3.498"/></g><path fill="#75676d" d="m36.836 44.18c0 0 2.33 2.645 10.186 2.928 1.826.064-6.732 4.508-8.092 5.328 1.613-.613 13.438-3.879 10.371-6.252-1.934-1.492-8.104-1.867-8.689-2.576l-3.776.572"/><path fill="#5b4c52" d="m36.549 43.994c0 0 3.508 2.281 9.816 2.779 1.838.145-6.076 4.842-7.436 5.662 1.613-.613 12.492-3.908 9.426-6.281-1.934-1.492-7.391-2.16-7.977-2.871l-3.829.711"/><path fill="#75676d" d="m23.388 43.37c-.586.709-6.756 1.082-8.688 2.574-3.068 2.375 8.758 5.641 10.369 6.254-1.357-.82-9.918-5.264-8.092-5.328 7.855-.283 10.186-2.928 10.186-2.928l-3.775-.572"/><path fill="#5b4c52" d="m23.623 43.05c-.586.709-6.04 1.379-7.977 2.871-3.068 2.373 7.813 5.668 9.424 6.281-1.357-.82-9.273-5.518-7.434-5.664 6.309-.496 9.816-2.779 9.816-2.779l-3.829-.709"/></svg>