<svg xmlns="http://www.w3.org/2000/svg" viewBox="0 0 64 64" enable-background="new 0 0 64 64"><path fill="#b2c1c0" d="m62 50.783c0-1.029-.844-1.871-1.875-1.871h-56.25c-1.031 0-1.875.842-1.875 1.871v1.869c0 1.027.844 1.869 1.875 1.869h56.25c1.031 0 1.875-.842 1.875-1.869v-1.869"/><ellipse fill="#3e4347" cx="12.313" cy="55.46" rx="6.563" ry="6.545"/><ellipse fill="#b2c1c0" cx="12.313" cy="55.46" rx="3.75" ry="3.74"/><ellipse fill="#3e4347" cx="50.75" cy="55.46" rx="6.563" ry="6.545"/><ellipse fill="#b2c1c0" cx="50.75" cy="55.46" rx="3.75" ry="3.74"/><path fill="#62727a" d="M54.5,19H28.25c-3.095,0-5.625,2.524-5.625,5.609v24.303h37.5V24.609C60.125,21.524,57.593,19,54.5,19z"/><path fill="#f15744" d="m15.13 26.479c-4.453 0-5.625 0-5.625 7.479 0 5.607-5.625 5.607-5.625 11.217v3.738h18.75v-22.434c0 0-5.156 0-7.5 0"/><path fill="#ffce31" d="m5.75 43.3h1.875v3.738h-1.875z"/><path fill="#d33b23" d="m12.785 39.564c-1.095 0-1.676.789-1.293 1.752l1.589 3.979c.384.961 1.595 1.748 2.69 1.748h2.986c1.095 0 1.992-.842 1.992-1.869v-3.74c0-1.027-.897-1.869-1.992-1.869h-5.972"/><g fill="#3e4347"><path d="m20.75 28.348h-7.5c0 0-1.875.208-1.875 2.804v4.465c0 0 0 2.078 1.875 2.078s7.5 0 7.5 0v-9.347"/><circle cx="12.313" cy="51.717" r=".938"/><circle cx="9.06" cy="53.588" r=".936"/><path d="m8.596 56.52c.448-.258 1.023-.104 1.281.342.258.445.104 1.018-.344 1.277-.447.258-1.022.104-1.28-.344-.258-.445-.105-1.018.343-1.275"/><circle cx="12.313" cy="59.2" r=".938"/><circle cx="15.561" cy="57.33" r=".935"/><circle cx="15.561" cy="53.587" r=".935"/></g><ellipse fill="#62727a" cx="12.313" cy="55.46" rx="1.875" ry="1.869"/><g fill="#3e4347"><circle cx="50.75" cy="51.717" r=".938"/><circle cx="47.5" cy="53.588" r=".936"/><path d="m47.03 56.52c.448-.258 1.023-.104 1.281.342.259.445.104 1.018-.344 1.277-.447.258-1.021.104-1.28-.344-.257-.445-.104-1.018.343-1.275"/><circle cx="50.75" cy="59.2" r=".938"/><circle cx="53.998" cy="57.33" r=".935"/><circle cx="53.998" cy="53.587" r=".935"/></g><ellipse fill="#62727a" cx="50.75" cy="55.46" rx="1.875" ry="1.869"/><g fill="#fff"><path d="m28.354 32.725c-.507-.425-1.22-.637-2.25-.637-.597 0-1.161.041-1.604.115v5.421c.328.039.769.072 1.358.072 1.073 0 1.948-.254 2.496-.752.523-.475.86-1.211.86-2.191.001-.94-.327-1.595-.86-2.028m-2.291 4.17c-.205 0-.417 0-.557-.023v-3.942c.14-.033.368-.058.687-.058 1.261 0 1.964.696 1.958 1.913 0 1.399-.778 2.117-2.088 2.11"/><path d="m33.17 35.2h-2.078v1.617h2.323v.826h-3.331v-5.511h3.208v.827h-2.201v1.422h2.078v.819"/><path d="m35.31 36.795v-4.665h-1.01v5.509h3.275v-.844z"/><path d="m38.33 32.13h1.01v5.511h-1.01z"/><path d="m43.744 32.13l-.802 2.519c-.222.67-.419 1.34-.565 1.992h-.017c-.146-.67-.328-1.314-.54-2.01l-.753-2.503h-1.097l1.783 5.511h1.155l1.906-5.511h-1.07"/><path d="m46.42 36.813v-1.613h2.08v-.823h-2.08v-1.422h2.2v-.825h-3.21v5.509h3.331v-.826z"/><path d="m53.1 36.1c-.14-.531-.375-.916-.77-1.063v-.025c.517-.188.998-.67.998-1.381 0-.467-.172-.85-.474-1.104-.368-.31-.908-.441-1.703-.441-.581 0-1.146.049-1.523.115v5.437h1v-2.266h.507c.573.018.835.246.99.965.156.688.288 1.137.368 1.301h1.04c-.115-.214-.261-.853-.433-1.538m-1.875-1.465h-.597v-1.74c.099-.025.304-.048.622-.048.655 0 1.08.278 1.08.882 0 .547-.425.906-1.105.906"/><path d="m57.11 32.13l-.663 1.415c-.188.4-.345.744-.481 1.094h-.017c-.146-.374-.287-.686-.476-1.094l-.663-1.415h-1.145l1.743 3.212v2.299h1.01v-2.322l1.835-3.188h-1.138"/></g><g fill="#3e4347"><path d="m27.313 30.22v-5.609c0-.516.421-.935.938-.935h26.25c.517 0 .938.419.938.935v5.609h1.875v-5.609c0-1.546-1.262-2.805-2.813-2.805h-26.25c-1.551 0-2.813 1.258-2.813 2.805v5.609h1.876"/><path d="m55.44 39.564v3.74c0 .514-.421.934-.938.934h-26.25c-.517 0-.938-.42-.938-.934v-3.74h-1.875v3.74c0 1.545 1.262 2.803 2.813 2.803h26.25c1.551 0 2.813-1.258 2.813-2.803v-3.74h-1.875"/></g><g fill="#b2c1c0"><circle cx="29.19" cy="25.543" r=".938"/><circle cx="53.56" cy="25.543" r=".938"/><circle cx="29.19" cy="42.37" r=".938"/><circle cx="53.56" cy="42.37" r=".938"/></g><path fill="#62727a" d="m37.625 55.46c0 1.027-.844 1.869-1.875 1.869h-7.5c-1.031 0-1.875-.842-1.875-1.869v-1.871c0-1.027.844-1.869 1.875-1.869h7.5c1.031 0 1.875.842 1.875 1.869v1.871"/><path fill="#b2c1c0" d="m28.484 52.652c-.645 0-1.172.422-1.172.934 0 .516.527.936 1.172.936h7.03c.645 0 1.172-.42 1.172-.936 0-.512-.527-.934-1.172-.934h-7.03"/></svg>