<svg xmlns="http://www.w3.org/2000/svg" viewBox="0 0 64 64" enable-background="new 0 0 64 64"><circle fill="#428bc1" cx="32" cy="32" r="30"/><g fill="#fff"><path d="m36.574 24.14v-1.043h-7.576v1.043c0 .575-.459 1.042-1.023 1.042h-4.945c-2.313 0-4.188 1.911-4.188 4.267v5.098h5.686v-1.788c0-.985.783-1.785 1.752-1.785h.635c.24 0 .512.239.619.44 1.033 1.869 2.998 3.133 5.254 3.133 2.264 0 4.236-1.273 5.266-3.156.113-.195.375-.417.605-.417.002 0 .002 0 .002 0h4.813v-5.791h-5.874c-.567-.001-1.026-.468-1.026-1.043"/><path d="m24.527 16.706c.166 0 1.463-.022 1.617-.063.633-.049 1.311-.106 4.436-.124.135.182.291.345.465.488v2.29h-1.025c-.564 0-1.021.467-1.021 1.042 0 .576.457 1.043 1.021 1.043h1.025 3.484 1.023c.564 0 1.021-.467 1.021-1.043 0-.575-.457-1.042-1.021-1.042h-1.023v-2.29c.174-.144.328-.307.463-.488 3.125.018 3.803.075 4.436.124.154.041 1.453.063 1.619.063 1.023 0 1.854-.846 1.854-1.888 0-1.043-.83-1.889-1.854-1.889-.166 0-1.465.021-1.619.063-.633.048-1.311.106-4.436.124-.506-.679-1.304-1.116-2.205-1.116s-1.701.437-2.207 1.117c-3.125-.018-3.803-.076-4.436-.124-.154-.042-1.451-.063-1.617-.063-1.025 0-1.855.846-1.855 1.889 0 1.041.83 1.887 1.855 1.887"/><path d="m45.16 23.1h2.842v9.691h-2.842z"/><path d="m17.516 52h8.336l1.516-13.996h-11.368l1.516 13.996m8.355-8.973h-8.373l-.439-4.059h9.252l-.44 4.059"/></g></svg>