<svg xmlns="http://www.w3.org/2000/svg" viewBox="0 0 64 64" enable-background="new 0 0 64 64"><path fill="#3e4347" d="m35.08 28.654l-1.357 3.061-4.689 6.85c-1.373 1.373-1.373 3.602 0 4.975l6.623-2.447c2.273-1.02 1.574-3.164 2.176-3.826 2.051-2.26 4.889-1.553 6.443-4.725.824-1.684.602-3.986-.287-5.523l-8.909 1.635"/><path fill="#44618b" d="m46.28 28.11c-2.311-3.928-6.504-3.494-9.346-6.162-5.933-5.57-9.503-2.992-9.359-1.836.404 3.273-.061 5.771.863 6.641l5.281 4.957c0 0 1.768-1.721 4.832-2.238 5.04-.852 7.729-1.362 7.729-1.362"/><g fill="#cc2e45"><path d="m31.02 16.958c0 0 5.433-1.676 7.294-1.555 1.941.127 5.402 2.395 7.338 2.596 1.061.109 3.35-1.17 4.23-.568.959.658 1.787 3.59 1.092 4.521-.811 1.086-4.09.574-5.408.27-2.172-.5-5.609-3.963-7.814-4.289-1.875-.277-7.423 1.57-7.423 1.57l.691-2.545"/><path d="m29.05 18.46c0 0 3.496-4.484 5.091-5.451 1.664-1.01 5.799-1.129 7.502-2.072.934-.518 2.076-2.877 3.143-2.889 1.162-.01 3.521 1.92 3.484 3.084-.043 1.352-3.02 2.811-4.279 3.316-2.066.834-6.869-.039-8.863.955-1.697.848-5.187 5.539-5.187 5.539l-.891-2.482"/></g><path fill="#ffdd67" d="m25.962 17.283l1.698-1.233 4.56 6.293-4.367 3.172z"/><path fill="#f9c19b" d="m25.845 17.16c2.051 2.826 2.484 4.695.453 6.17l1.555 2.188c2.4-1.74 1.211-5.449-1.182-8.75l-.826.392"/><path fill="#ffdd67" d="m20.296 6.396l-7.375 9.943c.357 2.813 1.883 3.336 2.473 4.23.264.398-.008 1.676-.154 2.346-.332 1.5 1.707 1.039 2.199.494.994.6.572 1.27 1.904.109.732-.641 1.268-2.131 1.268-2.131-1.879 4.682-.336 4.926.816 3.518 1.33 1.832 2.469 1.01 4.961-.803 2.031-1.475 2.334-4.512.283-7.338l2.381-2.451-8.756-7.917"/><path fill="#ffbc00" d="m14.796 6.439c7.05-5.115 12.32.203 14.354 5.066 1.082 2.59.934 4.844.006 6.439l-1.012.056-1.473-1.234c0 0 1.146-1.322.412-3.189-.336-.857-2.057-1.707-3.158-.998-.77.498-1.438 1.82-1.539 2.152-1.328-1.83-2.33-3.99-3.971-3.631-1.352.293-4.307 5.48-5.494 5.24-3.183-.637-2.371-6.819 1.875-9.901"/><g fill="#574137"><path d="m24.845 14.64c-.146.076-.264.188-.342.322-.035-.174-.051-.352-.061-.539-.012-.232.01-.465.006-.725-.322.393-.469.939-.352 1.475.121.539.533.957.998 1.143-.113-.23-.252-.428-.352-.631-.061-.129-.113-.258-.154-.387.055-.037.104-.07.158-.102.109-.063.199-.125.299-.174.096-.057.201-.094.314-.152.111-.055.238-.094.385-.176-.248-.193-.612-.204-.899-.054"/><path d="m17.484 18.578c.424.584.43 1.309.012 1.609-.42.307-1.105.076-1.529-.508-.424-.588-.428-1.307-.012-1.611.42-.305 1.103-.076 1.529.51"/><path d="m20.611 21.388c0 0 .053 2.441-.068 2.877-.258.93-.697.76-.695.135.003-.643.763-3.01.763-3.01"/></g><path fill="#86d0bf" d="m23.595 3.873c.299 2.426-1.402 4.641-3.799 4.949-2.393.309-4.578-1.41-4.877-3.84-.297-2.424 1.404-4.639 3.799-4.947 2.395-.307 4.58 1.414 4.877 3.838"/><g fill="#44618b"><path d="m30.29 10.228c-2.043-3.936-6.371-6.383-11.03-5.799s-8.244 4.03-9.254 8.342c2.727-1.732 6.105-2.98 9.869-3.451 3.757-.471 7.341-.1 10.412.908"/><path d="m31.427 13.837c-3.223-1.195-7.07-1.674-11.135-1.164-4.063.51-7.68 1.926-10.504 3.879.002.02.002.037.004.057.75 5.98 4.953.26 10.932-.488 5.979-.75 11.463 3.75 10.713-2.227-.002-.019-.006-.037-.01-.057"/></g><g fill="#86d0bf"><path d="m31.427 13.837c-.168-1.299-.57-2.51-1.143-3.609-3.07-1.01-6.654-1.379-10.411-.908-3.764.471-7.143 1.719-9.869 3.451-.283 1.209-.371 2.48-.215 3.781 2.824-1.953 6.441-3.369 10.504-3.879 4.06-.509 7.912-.031 11.134 1.164"/><path d="m30.4 52.37c-1.369.496-2.074 2.01-1.578 3.381l.902 2.479 10.744-3.91-1.807-4.959-8.261 3.01"/></g><path fill="#44618b" d="m29.13 56.57c-.457.162-.691.666-.527 1.125.166.457.672.693 1.127.525l10.744-3.91-.604-1.652-10.74 3.912"/><path transform="matrix(.9397-.3421.3421.9397-13.841 14.383)" fill="#86d0bf" d="m30.336 42.03h7.03v8.792h-7.03z"/><g fill="#44618b"><path d="m34.16 47.26l-3.306 1.199c-.457.17-.693.672-.525 1.131.166.457.67.691 1.127.525l3.304-1.205c.457-.164.693-.67.525-1.127-.166-.455-.67-.691-1.125-.523"/><path d="m32.951 43.949l-3.305 1.205c-.457.164-.691.67-.525 1.125.164.459.672.691 1.127.525l3.304-1.201c.457-.166.691-.67.525-1.129-.166-.456-.67-.691-1.126-.525"/></g><g fill="#ed4c5c"><path d="m18.982 62.13c-.912.334-1.922-.137-2.254-1.051l-1.654.604c.668 1.826 2.686 2.766 4.51 2.102l34.705-12.633-.604-1.652-34.703 12.63"/><path d="m52.29 27.894l-38.41 15.25.65 1.635 38.41-15.249c.453-.182.672-.691.492-1.143s-.689-.671-1.14-.493"/></g><path fill="#3e4347" d="m51.13 32.14c.182.451.693.672 1.143.494.451-.18.674-.691.494-1.143l-1.945-4.902c-.18-.449-.695-.672-1.143-.492-.449.178-.674.691-.494 1.141l1.945 4.902"/><path fill="#86d0bf" d="m29.542 18.57c-1.459.045-2.889 1.303-2.555 2.719 1.93 8.23-4.664 16.202-4.664 16.202l3.848 3.613c0 0 8.615-12.43 6.09-19.979-.463-1.383-1.263-2.602-2.719-2.555"/><path fill="#44618b" d="m21.494 38.38c-1.758-.186-2.225.996-3.555 1.725-.682.371-.971 1.262-.498 1.629l.916-.363c-.154 1.094-.621 3.238.553 3.057 2.137-.332 2.51.922 4.791.047.83-.316 1.611-1.66 1.639-2.48l.832-.885-3.848-3.613-.83.883"/><path fill="#ed4c5c" d="m21.478 25.322c.285.492 2.139.648 2.83.896.732.264 1.545 1.752 2.34 1.594 2.234-.441.088-4.85 1.102-6.271.754-1.057 5.396-1.289 5.937-2.404.186-.385-1.103-.979-1.294-1.361-.188-.379.316-1.398-.197-1.59-1.756-.652-5.354 1.918-6.807 2.852-1.829 1.17-4.831 4.696-3.911 6.284"/></svg>