<?xml version="1.0"?><svg xmlns="http://www.w3.org/2000/svg" width="100" height="100" viewBox="0 0 100 100"><path fill="#fff" d="m74 20h-32c-3.3 0-6 2.7-6 6v1c0 0.5 0.4 1 1 1h29c3.3 0 6 2.7 6 6v31c0 0.5 0.4 1 1 1 3.8 0 7-3.1 7-7v-33c0-3.3-2.7-6-6-6z m-46 14c-3.3 0-6 2.7-6 6v34c0 3.3 2.7 6 6 6h32c3.3 0 6-2.7 6-6v-34c0-3.3-2.7-6-6-6h-32z m8 14c0 1.1-0.9 2-2 2h-2c-1.1 0-2-0.9-2-2v-2c0-1.1 0.9-2 2-2h2c1.1 0 2 0.9 2 2v2z m22 0c0 1.1-0.9 2-2 2h-14c-1.1 0-2-0.9-2-2v-2c0-1.1 0.9-2 2-2h14c1.1 0 2 0.9 2 2v2z m-22 10c0 1.1-0.9 2-2 2h-2c-1.1 0-2-0.9-2-2v-2c0-1.1 0.9-2 2-2h2c1.1 0 2 0.9 2 2v2z m22 0c0 1.1-0.9 2-2 2h-14c-1.1 0-2-0.9-2-2v-2c0-1.1 0.9-2 2-2h14c1.1 0 2 0.9 2 2v2z m-22 10c0 1.1-0.9 2-2 2h-2c-1.1 0-2-0.9-2-2v-2c0-1.1 0.9-2 2-2h2c1.1 0 2 0.9 2 2v2z m22 0c0 1.1-0.9 2-2 2h-14c-1.1 0-2-0.9-2-2v-2c0-1.1 0.9-2 2-2h14c1.1 0 2 0.9 2 2v2z"></path></svg>