<svg xmlns="http://www.w3.org/2000/svg" width="24" height="24" viewBox="0 0 24 24"><path d="M12.081,12.932c-0.78,1.611-1.849,3.792-2.379,4.776c-0.513,0.896-0.94,0.776-1.278,0.024	c-1.172-2.77-3.58-7.625-4.712-10.347c-0.209-0.502-0.367-0.823-0.516-0.95c-0.151-0.125-0.462-0.2-0.936-0.227	C2.086,6.189,2,6.147,2,6.077V5.698L2.043,5.66c0.771-0.004,4.503,0,4.503,0l0.042,0.038V6.06c0,0.1-0.063,0.147-0.188,0.147	l-0.47,0.024C5.527,6.257,5.325,6.368,5.325,6.596c0,0.112,0.044,0.275,0.139,0.501c0.902,2.206,4.017,8.772,4.017,8.772	l0.114,0.039l2.01-4.012l-0.402-0.89L9.82,8.285c0,0-0.265-0.545-0.357-0.727C8.856,6.355,8.87,6.293,8.257,6.211	c-0.173-0.02-0.261-0.042-0.261-0.125v-0.39l0.05-0.037h3.578l0.095,0.03v0.376c0,0.088-0.063,0.125-0.189,0.125l-0.257,0.039	c-0.66,0.051-0.551,0.318-0.113,1.186l1.319,2.712l1.465-2.922c0.244-0.533,0.194-0.668,0.093-0.789	c-0.058-0.07-0.255-0.185-0.677-0.2l-0.168-0.018c-0.043,0-0.082-0.013-0.121-0.043c-0.037-0.025-0.056-0.063-0.056-0.107V5.691	l0.051-0.037c1.04-0.007,3.371,0,3.371,0l0.05,0.037v0.364c0,0.101-0.05,0.148-0.161,0.148c-0.539,0.024-0.652,0.079-0.854,0.366	c-0.1,0.154-0.313,0.49-0.538,0.865l-1.919,3.563l-0.054,0.112l2.328,4.763l0.142,0.041l3.665-8.704	c0.129-0.352,0.107-0.602-0.053-0.746c-0.165-0.144-0.289-0.228-0.716-0.246l-0.35-0.014c-0.051,0-0.088-0.011-0.127-0.037	c-0.036-0.024-0.06-0.063-0.06-0.1V5.705l0.049-0.038h4.137l0.034,0.038v0.364c0,0.1-0.062,0.15-0.174,0.15	c-0.541,0.024-0.94,0.15-1.203,0.351c-0.263,0.213-0.465,0.514-0.614,0.89c0,0-3.371,7.72-4.524,10.289	c-0.438,0.84-0.878,0.765-1.253-0.026c-0.477-0.977-1.478-3.156-2.206-4.761L12.081,12.932L12.081,12.932z"/></svg>