<svg xmlns="http://www.w3.org/2000/svg" width="24" height="24" viewBox="0 0 24 24"><path d="M8.71,6.366C7.604,7.67,6.888,9.602,6.838,11.765v0.471c0.05,2.165,0.766,4.094,1.872,5.397	c1.434,1.865,3.564,3.046,5.948,3.046c1.463,0,2.834-0.448,4.006-1.225C16.898,21.038,14.563,22,12,22	c-0.16,0-0.318-0.004-0.475-0.013C6.22,21.741,2,17.364,2,12C2,6.477,6.478,2,12,2h0.038c2.545,0.009,4.866,0.972,6.627,2.545	c-1.173-0.773-2.543-1.225-4.009-1.225c-2.382,0-4.514,1.184-5.95,3.046H8.71L8.71,6.366z M22,12c0,2.964-1.288,5.624-3.335,7.455	c-2.564,1.25-4.954,0.375-5.747-0.172c2.52-0.553,4.422-3.6,4.422-7.283c0-3.686-1.901-6.73-4.422-7.283	c0.792-0.545,3.183-1.42,5.747-0.172C20.712,6.375,22,9.037,22,12z"/></svg>