<svg xmlns="http://www.w3.org/2000/svg" width="24" height="24" viewBox="0 0 24 24"><path d="M10.198,9.127l3.309-4.799c0.628-0.902,1.434-1.354,2.427-1.354c0.806,0,1.506,0.287,2.097,0.861	c0.59,0.574,0.885,1.26,0.885,2.059c0,0.59-0.155,1.113-0.469,1.563l-2.983,4.34l3.649,4.627c0.363,0.461,0.547,1,0.547,1.617	c0,0.816-0.286,1.518-0.86,2.105c-0.574,0.586-1.269,0.879-2.084,0.879c-0.895,0-1.577-0.291-2.047-0.873l-4.469-5.578v3.074	c0,0.879-0.152,1.561-0.457,2.049c-0.555,0.885-1.356,1.328-2.417,1.328c-0.963,0-1.711-0.328-2.24-0.977	c-0.496-0.602-0.744-1.396-0.744-2.387V6.258c0-0.936,0.253-1.709,0.755-2.318c0.525-0.643,1.255-0.965,2.186-0.965	c0.887,0,1.624,0.322,2.216,0.965c0.329,0.357,0.537,0.717,0.625,1.082c0.053,0.227,0.079,0.646,0.079,1.266v2.84H10.198z"/></svg>