<svg viewBox="0 0 24 24" fill="currentColor" xmlns="http://www.w3.org/2000/svg"><path d="M7.44262 5.34998C8.08197 5.34998 8.67213 5.39945 9.21311 5.54786C9.7541 5.6468 10.1967 5.84468 10.5902 6.09203C10.9836 6.33938 11.2787 6.68566 11.4754 7.13089C11.6721 7.57612 11.7705 8.12029 11.7705 8.71393C11.7705 9.40651 11.623 10.0002 11.2787 10.4454C10.9836 10.8906 10.4918 11.2864 9.90164 11.5832C10.7377 11.8305 11.377 12.2758 11.7705 12.8694C12.1639 13.463 12.4098 14.2051 12.4098 15.0461C12.4098 15.7387 12.2623 16.3323 12.0164 16.827C11.7705 17.3217 11.377 17.7669 10.9344 18.0638C10.4918 18.3606 9.95082 18.6079 9.36066 18.7563C8.77049 18.9047 8.18033 19.0037 7.59016 19.0037H1V5.34998H7.44262ZM7.04918 10.8906C7.59016 10.8906 8.03279 10.7422 8.37705 10.4949C8.72131 10.2475 8.86885 9.80227 8.86885 9.2581C8.86885 8.96128 8.81967 8.66446 8.72131 8.46658C8.62295 8.2687 8.47541 8.12029 8.27869 7.97188C8.08197 7.87294 7.88525 7.774 7.63934 7.72453C7.39344 7.67506 7.14754 7.67506 6.85246 7.67506H4V10.8906H7.04918ZM7.19672 16.7281C7.4918 16.7281 7.78689 16.6786 8.03279 16.6291C8.27869 16.5797 8.52459 16.4807 8.72131 16.3323C8.91803 16.1839 9.06557 16.0355 9.21311 15.7881C9.31148 15.5408 9.40984 15.244 9.40984 14.8977C9.40984 14.2051 9.21312 13.7104 8.81967 13.3641C8.42623 13.0673 7.88525 12.9189 7.2459 12.9189H4V16.7281H7.19672ZM16.6885 16.6786C17.082 17.0744 17.6721 17.2722 18.459 17.2722C19 17.2722 19.4918 17.1238 19.8852 16.8765C20.2787 16.5797 20.5246 16.2828 20.623 15.986H23.0328C22.6393 17.1733 22.0492 18.0143 21.2623 18.5585C20.4754 19.0532 19.541 19.35 18.4098 19.35C17.6229 19.35 16.9344 19.2016 16.2951 18.9542C15.6557 18.7069 15.1639 18.3606 14.7213 17.8659C14.2787 17.4206 13.9344 16.8765 13.7377 16.2334C13.4918 15.5903 13.3934 14.8977 13.3934 14.1062C13.3934 13.3641 13.4918 12.6715 13.7377 12.0284C13.9836 11.3853 14.3279 10.8411 14.7705 10.3464C15.2131 9.90121 15.7541 9.50545 16.3443 9.2581C16.9836 9.01075 17.6229 8.86234 18.4098 8.86234C19.2459 8.86234 19.9836 9.01075 20.623 9.35704C21.2623 9.70333 21.7541 10.0991 22.1475 10.6927C22.541 11.2369 22.8361 11.88 23.0328 12.5726C23.1311 13.2652 23.1803 13.9577 23.1311 14.7493H16C16 15.5408 16.2951 16.2828 16.6885 16.6786ZM19.7869 11.4843C19.4426 11.138 18.9016 10.9401 18.2623 10.9401C17.8197 10.9401 17.4754 11.039 17.1803 11.1874C16.8852 11.3358 16.6885 11.5337 16.4918 11.7316C16.2951 11.9295 16.1967 12.1768 16.1475 12.4242C16.0984 12.6715 16.0492 12.8694 16.0492 13.0673H20.4754C20.3771 12.3252 20.1311 11.8305 19.7869 11.4843ZM15.459 6.2899H20.9672V7.62559H15.459V6.2899Z"/></svg>