<svg viewBox="0 0 24 24" fill="currentColor" xmlns="http://www.w3.org/2000/svg"><path d="M11.174 22.5552C11.4297 22.6937 11.7051 22.7729 12.0002 22.7729C12.2952 22.7729 12.5902 22.6937 12.8262 22.5947L20.6745 18.023C21.1854 17.7261 21.5 17.172 21.5 16.5781V7.45437C21.5 6.86056 21.1854 6.30644 20.6745 6.00954L12.8262 1.43778C12.3345 1.16072 11.6657 1.16072 11.174 1.43778L3.32604 6.00954C2.81468 6.30644 2.5 6.86056 2.5 7.45437V16.5781C2.5 17.172 2.81468 17.7261 3.32604 18.023L5.3913 19.2105C6.39448 19.7052 6.74854 19.7052 7.20089 19.7052C8.67604 19.7052 9.52182 18.7948 9.52182 17.2313V8.22623C9.52182 8.08765 9.4038 7.98875 9.28578 7.98875H8.28271C8.14495 7.98875 8.04667 8.10749 8.04667 8.22623V17.2313C8.04667 17.924 7.31891 18.6167 6.15844 18.023L4.01453 16.776C3.93578 16.7365 3.89651 16.6376 3.89651 16.5584V7.43453C3.89651 7.35536 3.93578 7.25647 4.01453 7.21689L11.8625 2.66486C11.9214 2.62528 12.0198 2.62528 12.0984 2.66486L19.9466 7.21689C20.0247 7.25647 20.0648 7.33563 20.0648 7.43453V16.5584C20.0648 16.6573 20.0247 16.7365 19.9466 16.776L12.0984 21.3479C12.0394 21.3875 11.9411 21.3875 11.8625 21.3479L9.85624 20.1407C9.79723 20.1011 9.71849 20.0812 9.65948 20.1208C9.10875 20.4375 9.01047 20.477 8.47937 20.6552C8.36135 20.6948 8.16469 20.774 8.55802 20.9917L11.174 22.5552ZM10.2887 13.5698C10.2887 14.9156 10.9967 16.499 14.4393 16.499C16.9169 16.499 18.3531 15.5093 18.3531 13.7677C18.3531 12.0657 17.212 11.6104 14.7929 11.2938C12.3539 10.9772 12.0982 10.799 12.0982 10.225C12.0982 9.75008 12.3146 9.11679 14.1242 9.11679C15.7367 9.11679 16.3463 9.47302 16.5828 10.5615C16.6023 10.6605 16.701 10.7397 16.7987 10.7397H17.8411C17.9008 10.7397 17.9594 10.7001 17.9994 10.6605C18.0385 10.6011 18.058 10.5418 18.058 10.4824C17.9008 8.58241 16.6619 7.71155 14.1438 7.71155C11.9015 7.71155 10.564 8.66157 10.564 10.2646C10.564 11.9865 11.9015 12.4615 14.0454 12.6792C16.6219 12.9365 16.8192 13.3126 16.8192 13.8271C16.8192 14.7177 16.1109 15.0938 14.4588 15.0938C12.3736 15.0938 11.9212 14.5792 11.7639 13.5302C11.7639 13.4115 11.6655 13.3323 11.5475 13.3323H10.5247C10.387 13.3323 10.2887 13.4511 10.2887 13.5698Z"/></svg>