<svg fill-rule="evenodd" viewBox="64 64 896 896" focusable="false"><path d="M235.52 616.57c16.73-.74 32.28-1.77 47.69-2.07 66.8-1.18 132.4 6.81 194.76 32 30.5 12.3 59.98 26.52 86.5 46.51 21.76 16.45 26.5 36.9 16.58 67.11-6.22 18.67-18.66 32.74-34.36 45.04-37.03 28.88-75.83 54.96-120.41 69.62A595.87 595.87 0 01330 898.04c-42.8 6.67-86.2 9.63-129.45 13.63-8.88.89-17.92-.3-26.8-.3-4.6 0-5.78-2.37-5.93-6.37-1.18-19.7-2.07-39.55-3.85-59.25a2609.47 2609.47 0 00-7.7-76.3c-4-35.4-8.44-70.66-12.89-105.92-4.59-37.18-9.33-74.21-13.77-111.4-4.44-36.3-8.44-72.73-13.18-109.03-5.34-41.48-11.26-82.96-16.89-124.44-6.66-49.03-15.85-97.62-28.43-145.47-.6-2.07 1.18-6.67 2.96-7.26 41.91-16.89 83.98-33.33 125.89-50.07 13.92-5.63 15.1-7.26 15.25 10.37.15 75.1.45 150.21 1.63 225.32.6 39.11 2.08 78.22 4.74 117.18 3.26 47.55 8.3 95.1 12.6 142.66 0 2.07.88 4 1.33 5.19m83.68 218.06a74372.3 74372.3 0 00114.78-86.96c-4.74-6.82-109.3-47.85-133.89-53.33 6.22 46.37 12.59 92.59 19.1 140.29m434.13-14.39c-19.94-202.14-36.78-406.5-75.32-609.67 12.55-1.48 25.1-3.25 37.8-4.3 14.63-1.32 29.4-1.92 44.01-3.1 12.26-1.04 16.84 2.22 17.58 14.22 2.21 32.13 4.13 64.26 6.35 96.4 2.95 43.39 6.05 86.92 9.15 130.31 2.22 31.25 4.14 62.64 6.65 93.89 2.8 34.2 5.9 68.27 9 102.47 2.22 25.18 4.3 50.5 6.8 75.68 2.66 27.24 5.61 54.49 8.42 81.74.74 7.85 1.62 15.7 2.21 23.54.3 4.3-2.06 4.89-6.05 4.45-21.7-2.23-43.42-3.85-66.6-5.63M572 527.15c17.62-2.51 34.64-5.32 51.66-7.25 12.29-1.48 24.72-1.63 37.01-2.81 6.66-.6 10.95 1.77 11.99 8.29 2.81 17.32 5.77 34.79 7.85 52.26 3.4 29.02 6.07 58.18 9.17 87.2 2.67 25.46 5.33 50.78 8.3 76.24 3.25 27.24 6.8 54.33 10.2 81.42 1.04 8 1.78 16.14 2.82 24.88a9507.1 9507.1 0 00-74.76 9.62C614.93 747.15 593.61 638.19 572 527.15m382 338.83c-24.08 0-47.28.14-70.47-.3-1.93 0-5.35-3.4-5.5-5.48-3.57-37.05-6.69-73.96-9.96-111l-9.37-103.16c-3.27-35.42-6.39-70.84-9.66-106.26-.15-2.07-.6-4-1.04-7.11 8.62-1.04 16.8-2.67 25.12-2.67 22.45 0 44.9.6 67.5 1.19 5.8.14 8.32 4 8.62 9.33.75 11.12 1.79 22.08 1.79 33.2.14 52.17-.15 104.48.3 156.65.44 41.65 1.78 83.44 2.67 125.08zM622.07 480c-5.3-42.57-10.62-84.1-16.07-127.4 13.86-.16 27.71-.6 41.42-.6 4.57 0 6.64 2.51 7.08 7.54 3.69 38.72 7.52 77.45 11.5 117.65-14.3.74-29.04 1.78-43.93 2.81M901 364.07c11.94 0 24.62-.15 37.45 0 6.42.14 9.55 2.67 9.55 10.24-.45 36.22-.15 72.45-.15 108.53V491c-15.37-.74-30.14-1.49-46.7-2.23-.15-41.12-.15-82.4-.15-124.7M568.57 489c-7.43-41.2-15-82.1-22.57-124.02 13.51-2.07 27.02-4.29 40.39-5.9 5.94-.75 4.9 4.42 5.2 7.67 1.63 13.88 2.81 27.6 4.3 41.49 2.37 21.7 4.75 43.4 6.98 64.96.3 2.8 0 5.76 0 8.86-11.29 2.36-22.57 4.58-34.3 6.94M839 365.16c12.72 0 25.43.15 38-.15 5.69-.15 7.78 1.04 7.63 7.56-.44 17.36.15 34.7.3 52.2.15 21.51 0 43.17 0 64.52-12.86 1.34-24.09 2.37-36.2 3.71-3.15-41.97-6.44-83.8-9.73-127.84" /></svg>