<svg fill-rule="evenodd" viewBox="64 64 896 896" focusable="false"><path d="M530.8 64c-5.79 0-11.76.3-17.88.78-157.8 12.44-115.95 179.45-118.34 235.11-2.88 40.8-11.2 72.95-39.24 112.78-33.03 39.23-79.4 102.66-101.39 168.77-10.37 31.06-15.3 62.87-10.71 92.92a15.83 15.83 0 00-4.14 5.04c-9.7 10-16.76 22.43-24.72 31.32-7.42 7.43-18.1 9.96-29.75 14.93-11.68 5.08-24.56 10.04-32.25 25.42a49.7 49.7 0 00-4.93 22.43c0 7.43 1 14.97 2.05 20.01 2.17 14.9 4.33 27.22 1.46 36.21-9.26 25.39-10.42 42.79-3.92 55.44 6.5 12.47 19.97 17.51 35.05 22.44 30.28 7.46 71.3 5.04 103.6 22.36 34.56 17.43 69.66 25.05 97.65 17.54a66.01 66.01 0 0045.1-35.27c21.91-.12 45.92-10.05 84.37-12.47 26.09-2.17 58.75 9.97 96.23 7.43.94 5.04 2.36 7.43 4.26 12.47l.11.1c14.6 29.05 41.55 42.27 70.33 39.99 28.78-2.24 59.43-20.01 84.26-48.76 23.55-28.55 62.83-40.46 88.77-56.1 12.99-7.43 23.48-17.51 24.23-31.85.86-14.93-7.43-30.3-26.66-51.4v-3.62l-.1-.11c-6.35-7.47-9.34-19.98-12.63-34.57-3.17-14.97-6.8-29.34-18.36-39.05h-.11c-2.2-2.02-4.6-2.5-7.02-5.04a13.33 13.33 0 00-7.1-2.39c16.1-47.7 9.86-95.2-6.45-137.9-19.9-52.63-54.7-98.48-81.2-130.02-29.71-37.52-58.83-73.06-58.27-125.77 1-80.33 8.85-228.95-132.3-229.17m19.75 127.11h.48c7.95 0 14.79 2.31 21.8 7.4 7.13 5.03 12.32 12.39 16.4 19.89 3.91 9.67 5.89 17.13 6.19 27.03 0-.75.22-1.5.22-2.2v3.88a3.21 3.21 0 01-.15-.79l-.15-.9a67.46 67.46 0 01-5.6 26.36 35.58 35.58 0 01-7.95 12.5 26.5 26.5 0 00-3.28-1.56c-3.92-1.68-7.43-2.39-10.64-4.96a48.98 48.98 0 00-8.18-2.47c1.83-2.2 5.42-4.96 6.8-7.39a44.22 44.22 0 003.28-15v-.72a45.17 45.17 0 00-2.27-14.93c-1.68-5.04-3.77-7.5-6.84-12.47-3.13-2.46-6.23-4.92-9.96-4.92h-.6c-3.47 0-6.57 1.12-9.78 4.92a29.86 29.86 0 00-7.65 12.47 44.05 44.05 0 00-3.36 14.93v.71c.07 3.33.3 6.69.74 9.97-7.2-2.5-16.35-5.04-22.66-7.54-.37-2.46-.6-4.94-.67-7.43v-.75a66.15 66.15 0 015.6-28.7 40.45 40.45 0 0116.05-19.9 36.77 36.77 0 0122.18-7.43m-110.58 2.2h1.35c5.3 0 10.08 1.8 14.9 5.04a51.6 51.6 0 0112.83 17.36c3.36 7.43 5.27 14.97 5.72 24.9v.15c.26 5 .22 7.5-.08 9.93v2.99c-1.12.26-2.09.67-3.1.9-5.67 2.05-10.23 5.03-14.67 7.46.45-3.32.49-6.68.11-9.97v-.56c-.44-4.96-1.45-7.43-3.06-12.43a22.88 22.88 0 00-6.2-9.97 9.26 9.26 0 00-6.83-2.39h-.78c-2.65.23-4.85 1.53-6.94 4.93a20.6 20.6 0 00-4.48 10.08 35.24 35.24 0 00-.86 12.36v.52c.45 5.04 1.38 7.5 3.02 12.47 1.68 5 3.62 7.46 6.16 10 .41.34.79.67 1.27.9-2.61 2.13-4.37 2.61-6.57 5.08a11.39 11.39 0 01-4.89 2.53 97.84 97.84 0 01-10.27-15 66.15 66.15 0 01-5.78-24.9 65.67 65.67 0 012.98-24.94 53.38 53.38 0 0110.57-19.97c4.78-4.97 9.7-7.47 15.6-7.47M491.15 257c12.36 0 27.33 2.43 45.36 14.9 10.94 7.46 19.52 10.04 39.31 17.47h.11c9.52 5.07 15.12 9.93 17.84 14.9v-4.9a21.32 21.32 0 01.6 17.55c-4.59 11.6-19.26 24.04-39.72 31.47v.07c-10 5.04-18.7 12.43-28.93 17.36-10.3 5.04-21.95 10.9-37.78 9.97a42.52 42.52 0 01-16.72-2.5 133.12 133.12 0 01-12.02-7.4c-7.28-5.04-13.55-12.39-22.85-17.36v-.18h-.19c-14.93-9.19-22.99-19.12-25.6-26.54-2.58-10-.19-17.51 7.2-22.4 8.36-5.04 14.19-10.12 18.03-12.55 3.88-2.76 5.34-3.8 6.57-4.89h.08v-.1c6.3-7.55 16.27-17.52 31.32-22.44a68.65 68.65 0 0117.4-2.43m104.48 80c13.4 52.9 44.69 129.72 64.8 166.98 10.68 19.93 31.93 61.93 41.15 112.89 5.82-.19 12.28.67 19.15 2.39 24.11-62.38-20.39-129.43-40.66-148.06-8.25-7.5-8.66-12.5-4.59-12.5 21.99 19.93 50.96 58.68 61.45 102.92 4.81 19.97 5.93 41.21.78 62.34 2.5 1.05 5.04 2.28 7.65 2.5 38.53 19.94 52.75 35.02 45.92 57.38v-1.6c-2.27-.12-4.48 0-6.75 0h-.56c5.63-17.44-6.8-30.8-39.76-45.7-34.16-14.93-61.45-12.54-66.11 17.36-.27 1.6-.45 2.46-.64 5.04-2.54.86-5.19 1.98-7.8 2.39-16.05 10-24.71 24.97-29.6 44.31-4.86 19.9-6.35 43.16-7.66 69.77v.11c-.78 12.47-6.38 31.29-11.9 50.44-56 40.01-133.65 57.41-199.69 12.46a98.74 98.74 0 00-15-19.9 54.13 54.13 0 00-10.27-12.46c6.8 0 12.62-1.08 17.36-2.5a22.96 22.96 0 0011.72-12.47c4.03-9.97 0-26.02-12.88-43.42C398.87 730.24 377 710.53 345 690.9c-23.51-14.89-36.8-32.47-42.93-52.1-6.16-19.94-5.33-40.51-.56-61.42 9.15-39.94 32.6-78.77 47.56-103.14 4-2.43 1.38 5.04-15.23 36.36-14.78 28.03-42.6 93.21-4.55 143.87a303.27 303.27 0 0124.15-107.36c21.06-47.71 65.07-130.81 68.54-196.66 1.8 1.34 8.1 5.04 10.79 7.54 8.14 4.96 14.18 12.43 22.02 17.36 7.88 7.5 17.81 12.5 32.7 12.5 1.46.12 2.8.23 4.15.23 15.34 0 27.21-5 37.18-10 10.83-5 19.45-12.48 27.63-14.94h.18c17.44-5.04 31.21-15 39.01-26.13m81.6 334.4c1.39 22.44 12.81 46.48 32.93 51.41 21.95 5 53.53-12.43 66.86-28.56l7.88-.33c11.76-.3 21.54.37 31.62 9.97l.1.1c7.77 7.44 11.4 19.83 14.6 32.7 3.18 14.98 5.75 29.13 15.27 39.8 18.15 19.68 24.08 33.82 23.75 42.56l.1-.22v.67l-.1-.45c-.56 9.78-6.91 14.78-18.6 22.21-23.51 14.97-65.17 26.58-91.72 58.61-23.07 27.51-51.18 42.52-76 44.46-24.79 1.98-46.18-7.46-58.76-33.52l-.19-.11c-7.84-14.97-4.48-38.27 2.1-63.1 6.56-24.93 15.97-50.2 17.28-70.85 1.38-26.65 2.83-49.83 7.28-67.71 4.48-17.36 11.5-29.76 23.93-36.74l1.68-.82zm-403.72 1.84h.37c1.98 0 3.92.18 5.86.52 14.04 2.05 26.35 12.43 38.19 28.07l33.97 62.12.11.11c9.07 19.9 28.15 39.72 44.39 61.15 16.2 22.32 28.74 42.22 27.21 58.61v.22c-2.13 27.78-17.88 42.86-42 48.3-24.07 5.05-56.74.08-89.4-17.31-36.14-20.01-79.07-17.51-106.66-22.48-13.77-2.46-22.8-7.5-26.99-14.97-4.14-7.42-4.21-22.43 4.6-45.91v-.11l.07-.12c4.37-12.46 1.12-28.1-1-41.77-2.06-14.97-3.1-26.47 1.6-35.09 5.97-12.47 14.78-14.9 25.72-19.9 11.01-5.04 23.93-7.54 34.2-17.5h.07v-.12c9.55-10 16.61-22.43 24.93-31.28 7.1-7.5 14.19-12.54 24.75-12.54M540.76 334.5c-16.24 7.5-35.27 19.97-55.54 19.97-20.24 0-36.21-9.97-47.75-17.4-5.79-5-10.45-10-13.96-12.5-6.12-5-5.38-12.47-2.76-12.47 4.07.6 4.81 5.04 7.43 7.5 3.58 2.47 8.02 7.43 13.47 12.43 10.86 7.47 25.39 17.44 43.53 17.44 18.1 0 39.3-9.97 52.19-17.4 7.28-5.04 16.6-12.47 24.19-17.43 5.82-5.12 5.56-10 10.41-10 4.82.6 1.27 5-5.48 12.42a302.3 302.3 0 01-25.76 17.47v-.03zm-40.39-59.13v-.83c-.22-.7.49-1.56 1.09-1.86 2.76-1.6 6.72-1.01 9.7.15 2.35 0 5.97 2.5 5.6 5.04-.22 1.83-3.17 2.46-5.04 2.46-2.05 0-3.43-1.6-5.26-2.54-1.94-.67-5.45-.3-6.09-2.42m-20.57 0c-.74 2.16-4.22 1.82-6.2 2.46-1.75.93-3.2 2.54-5.18 2.54-1.9 0-4.9-.71-5.12-2.54-.33-2.47 3.29-4.97 5.6-4.97 3.03-1.15 6.87-1.75 9.67-.18.71.33 1.35 1.12 1.12 1.86v.79h.11z" /></svg>