<svg fill-rule="evenodd" viewBox="64 64 896 896" focusable="false"><path d="M548 818v126a16 16 0 01-16 16h-40a16 16 0 01-16-16V818c15.85 1.64 27.84 2.46 36 2.46 8.15 0 20.16-.82 36-2.46m205.25-115.66l89.1 89.1a16 16 0 010 22.62l-28.29 28.29a16 16 0 01-22.62 0l-89.1-89.1c12.37-10.04 21.43-17.95 27.2-23.71 5.76-5.77 13.67-14.84 23.71-27.2m-482.5 0c10.04 12.36 17.95 21.43 23.71 27.2 5.77 5.76 14.84 13.67 27.2 23.71l-89.1 89.1a16 16 0 01-22.62 0l-28.29-28.29a16 16 0 010-22.63zM512 278c129.24 0 234 104.77 234 234S641.24 746 512 746 278 641.24 278 512s104.77-234 234-234m0 72c-89.47 0-162 72.53-162 162s72.53 162 162 162 162-72.53 162-162-72.53-162-162-162M206 476c-1.64 15.85-2.46 27.84-2.46 36 0 8.15.82 20.16 2.46 36H80a16 16 0 01-16-16v-40a16 16 0 0116-16zm738 0a16 16 0 0116 16v40a16 16 0 01-16 16H818c1.64-15.85 2.46-27.84 2.46-36 0-8.15-.82-20.16-2.46-36zM814.06 180.65l28.29 28.29a16 16 0 010 22.63l-89.1 89.09c-10.04-12.37-17.95-21.43-23.71-27.2-5.77-5.76-14.84-13.67-27.2-23.71l89.1-89.1a16 16 0 0122.62 0m-581.5 0l89.1 89.1c-12.37 10.04-21.43 17.95-27.2 23.71-5.76 5.77-13.67 14.84-23.71 27.2l-89.1-89.1a16 16 0 010-22.62l28.29-28.29a16 16 0 0122.62 0M532 64a16 16 0 0116 16v126c-15.85-1.64-27.84-2.46-36-2.46-8.15 0-20.16.82-36 2.46V80a16 16 0 0116-16z" /></svg>