<svg xmlns="http://www.w3.org/2000/svg" viewBox="0 0 64 64" enable-background="new 0 0 64 64"><switch><g><path fill="#ec1c24" d="m32.454 32.03l-28.344 20.22c1.538 1.106 3.499 1.754 5.89 1.754h44c6.627 0 10-4.925 10-11v-11h-31.584l.038.027"/><path fill="#e6e7e8" d="m54 10h-44c-2.201 0-4.04.553-5.514 1.5l27.93 20.5h31.584v-11c0-6.075-3.373-11-10-11"/><path fill="#1b75bb" d="M32.416,32L4.486,11.5C1.513,13.407,0,16.942,0,21v11v11c0,3.883,1.385,7.289,4.11,9.246l28.344-20.219
			L32.416,32z"/></g></switch></svg>