<svg xmlns="http://www.w3.org/2000/svg" viewBox="0 0 64 64" enable-background="new 0 0 64 64"><switch><g><path fill="#e6e7e8" d="m0 23h64v19h-64z"/><path fill="#ec1c24" d="m54 10h-44c-6.627 0-10 4.925-10 11v2h64v-2c0-6.075-3.373-11-10-11"/><path fill="#ec1c24" d="m0 43c0 6.075 3.373 11 10 11h44c6.627 0 10-4.925 10-11v-1h-64v1"/><path fill="#137a08" d="m40.39 37.28c-.335-.322-.702-.598-1.103-.828-.573-.333-1.144-.663-1.716-.998-.278-.156-.286-.498-.018-.66.363-.224.707-.137 1.039.073.237.158.484.276.768.315.143.018.279.035.332-.139.049-.168-.016-.319-.171-.387-.341-.156-.606-.409-.875-.662-.188-.175-.381-.357-.569-.533-.358-.338-.784-.5-1.274-.484-.166.002-.228-.092-.162-.24.049-.122.144-.217.272-.207.552.06 1.102-.103 1.66-.016.149.025.298-.045.349-.207.059-.173-.085-.234-.208-.285-.061-.033-.127-.044-.191-.061-.591-.142-1.164-.354-1.764-.455-.1-.021-.173-.078-.18-.184-.012-.125.036-.217.146-.264.085-.038.176-.068.27-.031.355.145.735.147 1.102.203.182.035.28-.086.215-.262-.042-.116-.135-.193-.259-.234-.31-.102-.595-.266-.867-.447-.396-.266-.769-.557-1.138-.855-.412-.332-.775-.719-1.28-.924-.129-.055-.217-.17-.17-.32.045-.155.176-.211.328-.205.17.002.323.082.479.145.317.127.641.222.986.229.081.002.172.008.2-.093.021-.093-.064-.128-.127-.155-.413-.161-.753-.432-1.096-.699-.081-.061-.237-.113-.177-.252.061-.133.216-.107.338-.112.027 0 .06.011.081.015.104.032.216.083.269-.063.055-.141.011-.264-.114-.325-.327-.162-.604-.394-.911-.585-.388-.249-.804-.414-1.264-.475-.618-.089-1.093-.412-1.417-.945-.158-.262-.282-.534-.427-.836-.224.361-.449.676-.73.947-.009.069-.053.104-.12.121-.124.091-.226.214-.353.311-.242.18-.469.379-.702.572-.078.059-.085.152-.055.232.043.105.112 0 .165-.004.128-.008.227.046.29.139.067.1-.048.154-.106.207-.126.128-.287.191-.441.27-.04.023-.081.046-.121.069-.035.02-.074.038-.109.055-.045.054-.107.085-.173.106-.034.02-.072.037-.105.056-.149.105-.304.209-.456.313-.052.225-.019.271.205.266.082 0 .152.012.227.05.118.061.191.147.126.269-.068.141-.167.269-.356.256-.095.013-.189.027-.28.039-.112.043-.215.105-.284.205-.065.107-.136.207-.199.31-.023.04-.047.08-.078.114-.212.258-.507.4-.802.545-.099.047-.188.098-.282.148-.18.065-.322.201-.487.289-.031.07-.091.092-.158.113-.268.178-.297.287-.153.479.114.147.266.093.405.07.214-.028.397-.16.616-.188.093-.037.178-.049.266.004.28.158.347.343.273.766-.03.129-.097.234-.203.309-.276.303-.569.584-.979.693-.248.07-.479.153-.679.324-.087.09-.175.179-.268.27-.231.218-.457.436-.699.645-.062.051-.091.088-.091.17 0 .18.091.279.309.324.08 0 .158-.004.242-.006.066-.024.132-.055.199-.077.078-.046.155-.095.236-.139.026-.029.057-.069.106-.069.089-.085.188-.148.297-.203.252-.157.368-.146.604.059.085.037.11.105.118.19.045.209-.029.373-.17.524-.021.068-.085.089-.15.114-.168.084-.334.169-.503.253-.061.034-.118.067-.177.107-.31.166-.59.377-.852.607-.046.073-.107.132-.193.157-.146.144-.303.276-.438.431-.188.203-.384.381-.667.422-.069.059-.168.096-.139.219.03.124.135.164.243.178.103.012.212 0 .319-.004.106-.022.214-.05.321-.073.589-.16 1.142-.413 1.684-.687.08-.043.161-.089.241-.133.158-.105.326-.186.511-.234.076-.041.154-.041.231 0 .021.007.043.011.062.011.103.015.191.052.233.155.018.028.035.051.051.074.059.072.05.142 0 .209-.06.117-.144.2-.25.282-.162.116-.347.182-.512.284-.045.043-.104.065-.166.07-.037.019-.074.035-.115.052-.049.038-.102.06-.165.065-.249.09-.504.173-.757.258-.064.038-.13.064-.203.069-.218.067-.434.153-.657.191-.146.028-.223.089-.271.213 0 .063 0 .131 0 .196.045.176.198.15.325.169.147 0 .291 0 .438 0 .066 0 .128-.007.19-.007.081-.04.166-.037.252-.031.146-.032.295-.064.438-.091.076-.04.162-.063.245-.069.123-.045.243-.088.361-.129.089-.057.182-.089.284-.118.102-.04.206-.085.309-.128.076-.051.157-.098.254-.111.059-.047.118-.085.199-.09.047-.042.1-.064.162-.072.076-.072.188-.084.279-.123.085-.057.181-.092.282-.116.137-.062.284-.118.44-.083.072-.01.142-.014.207.037l.02-.004.016.012c.087.018.168.047.228.117.228.184.374.414.418.705.03.078.038.154 0 .231-.024.101-.028.207-.069.3-.221.461-.47.908-.824 1.291-.073.133-.175.246-.316.316-.082.068-.167.137-.246.205-.081.1-.186.17-.316.193-.063.035-.128.064-.194.091-.051.046-.108.063-.166.071-.053.018-.104.038-.158.053-.053.023-.107.045-.161.068-.008.01-.02.014-.03.008-.081.055-.157.1-.254.111-.099.068-.188.167-.299.203-.129.046-.092.141-.084.208.006.071.069.132.14.147.088.021.159-.021.201-.097.148-.259.396-.347.676-.382.066-.038.136-.038.208-.031.312-.018.612-.086.905-.168.09-.043.174-.08.258-.121.082-.057.162-.105.238-.154.071-.061.139-.111.203-.168.166-.166.343-.313.566-.402.041-.042.096-.068.161-.068.162-.092.321-.031.48.004.058.02.109.041.165.056.025.009.055.019.076.022.093 0 .185 0 .28 0 .145-.066.292-.066.441-.045.118.022.192.086.231.199.03.047-.004.113.056.146.049.055.094.105.11.174.026.025.058.059.084.087.09.025.155.089.224.149.175.121.341.256.495.409.038.04.096.101.185.05.083-.05.104-.106.092-.197-.009-.027.003-.062.003-.094-.003-.063-.006-.119.041-.166.025-.129.121-.164.231-.148.132.012.263.037.394.064.283.057.58.076.825.254.069.014.121.054.151.115.072.08.142.164.209.242.078.049.132.113.158.2.044.069.143.075.174.153.102-.023.209.038.312-.027.129-.204.089-.381-.162-.521-.407-.232-.743-.549-1.071-.865-.416-.408-.665-.897-.702-1.489-.036-.437-.009-.866.043-1.301.051-.433.454-.663.851-.482.165.075.328.157.488.237.329.162.673.252 1.045.23.341-.017.684-.02 1.021-.035.699-.03 1.329.154 1.898.58.302.229.618.438.977.584.161.066.301.064.398-.094.099-.15.07-.312-.071-.445m-11.728-4.202c-.324.181-.677.282-1.041.343-.198.01-.282-.136-.364-.274-.218-.384-.148-.509.294-.542.262-.023.53-.049.796-.074.094-.01.188.006.272.049.238.108.269.366.043.498m-.205-2.483c-.231-.043-.5-.374-.5-.609 0-.189.124-.302.31-.291.259.017.584.306.624.555.033.201-.199.389-.434.345m1.357-3.524c.157-.004.219.098.232.225.011.169-.095.293-.221.287-.154-.012-.22-.112-.22-.256.001-.14.044-.256.209-.256m-.728 2.8c-.004-.247.17-.388.492-.388.152-.004.286.145.289.303.003.19-.235.379-.468.375-.192 0-.313-.107-.313-.29m.569 5.46c-.121.036-.201-.033-.256-.137-.121-.206-.136-.443-.182-.668-.022-.114.061-.151.167-.147.117.019.221.078.309.165.144.15.147.354.177.533.022.121-.084.223-.215.254m.082-6.508c-.074-.084-.051-.182.003-.26.178-.245.414-.431.702-.53.201-.064.151.127.192.194-.003.147-.032.27-.135.348-.151.124-.322.231-.51.304-.09.033-.185.026-.252-.056m.472 3.206c-.149-.017-.232-.12-.243-.271-.011-.106.048-.178.157-.188.121-.01.255.146.255.281 0 .115-.058.185-.169.178m.437 3.233c-.163-.101-.213-.263-.221-.444-.003-.107.075-.093.142-.078.165.023.316.217.312.393-.001.161-.089.216-.233.129m2.02-7.905c.164 0 .23.107.238.253 0 .148-.063.25-.215.258-.135.004-.247-.132-.247-.289 0-.146.076-.222.224-.222m-.572 1.988c.026.155-.115.33-.266.348-.149.016-.273-.08-.29-.234-.018-.177.066-.25.329-.271.142-.05.205.032.227.157m-1-1.539c.084-.152.599-.406.761-.364.1.023.157.1.168.198.017.135-.003.277-.135.332-.188.072-.387.137-.578.161-.232 0-.317-.14-.216-.327m.208 4.03c-.131.014-.188-.094-.191-.211 0-.131.052-.244.199-.253.134-.007.188.087.191.214-.016.121-.056.239-.199.25m.457 3.379c-.188.008-.309-.117-.295-.334.008-.129-.091-.328.113-.35.258 0 .453.184.458.383 0 .176-.11.297-.276.301m.634-2.704c-.174.069-.381-.009-.454-.179-.035-.072-.047-.152-.051-.234.004-.02.004-.036.004-.057.016-.154.069-.314.221-.353.114-.031.195.114.262.211.048.071.091.162.124.247.054.145.089.287-.106.365m.503-.026c-.104 0-.15-.083-.142-.182.006-.093.028-.209.16-.209.117-.008.124.091.144.184-.027.089-.025.211-.162.207m.177-3.071c-.013.195-.159.367-.316.346-.165-.023-.211-.15-.206-.293.007-.162.206-.345.363-.342.085.003.162.147.159.289m2.293 1.387c.179.005.33.164.33.361 0 .166-.146.311-.323.317-.198.007-.41-.183-.406-.366 0-.167.189-.312.399-.312m-2.037-3.06c-.01-.173.13-.299.377-.304.139.012.193.127.197.274.004.175-.124.319-.29.326-.157.006-.275-.119-.284-.296m.808 2.464c-.009 0-.016 0-.019 0-.327-.01-.538-.14-.574-.367-.025-.195.085-.295.247-.355.322-.123.611-.058.75.177.065.107.088.224.025.337-.062.128-.239.208-.429.208m1.596 3.895c-.151.177-.408.28-.674.275-.077.009-.161-.017-.242-.043-.265-.085-.319-.254-.124-.455.234-.241.558-.289.868-.289.232.008.328.332.172.512m1.545.384c-.135.224-.337.331-.614.338-.153-.02-.337-.023-.419-.215-.057-.142.059-.36.234-.468.115-.072.238-.12.357-.178.159-.073.289-.031.393.093.103.13.141.278.049.43"/></g></switch></svg>