<svg xmlns="http://www.w3.org/2000/svg" viewBox="0 0 64 64" enable-background="new 0 0 64 64"><path fill="#e6e6e6" d="m61.56 30.24c0-6.317-12.925-6.731-28.888-6.731-15.961 0-28.889.414-28.889 6.731 0 6.311 12.928 21.883 28.889 21.883 15.963 0 28.888-15.572 28.888-21.883"/><path fill="#c8ccce" d="m27.939 42.29c-4.284-5.273-6.512-13.48-2.666-18.729-12.362.23-21.484 1.37-21.484 6.674 0 6.311 12.93 21.883 28.889 21.883 3.147 0 6.171-.611 9-1.629-5.495-1.802-10.543-4.265-13.742-8.199"/><path fill="#bcbdbf" d="m61.38 30.482c0 4.672-12.856 8.454-28.714 8.454-15.861 0-28.718-3.782-28.718-8.454 0-4.668 12.857-8.453 28.718-8.453 15.857 0 28.714 3.785 28.714 8.453"/><ellipse fill="#04a69c" cx="32.67" cy="31.22" rx="27.999" ry="7.717"/><path fill="#be202e" d="m30.9.708c0 0-28.323 4.743-19.16 13.877l30.493 7.714 10.363-2.904c0 0 10.366-6.582-12.537-11.605 0 0-13.702-2.688-7.633-6.161 0 0 1.129-.992-1.524-.921"/><path fill="#a41e2c" d="m39.975 7.789c0 0-13.706-2.688-7.637-6.161 0 0 1.124-.992-1.524-.921 0 0-2.631.444-6.02 1.311-4.444 3.28 8.231 5.771 8.231 5.771 22.905 5.02 12.538 11.605 12.538 11.605l-7.07 1.978 3.646.926 10.364-2.904c0 0 10.369-6.581-12.53-11.605"/><path fill="#fde3d2" d="m13.302 21.592c0 0-12.775 3.394-9.64 10.897 0 0 18.12 14.863 53.41 4.01 5.574-1.715 11.656-8.515-8.218-13.843l-20.21-3.791-15.346 2.732"/><path fill="#edccb4" d="m7.758 17.766c0 0 3.379-5.375 19.89-5.163 0 0 19.402.209 26.634 8.07 0 0 2.753 1.342.656 4.456 0 0-16.444-5.093-29.343-3.324 0 0-9.159 2.263-13.14 2.334 0 0-7.502-1.017-4.701-6.02"/><path fill="#cbaa92" d="m54.28 20.672c-7.232-7.859-26.634-8.07-26.634-8.07-1.361-.018-2.617.006-3.802.056 4.76.245 19.08 1.508 25.06 8.01 0 0 1.989.979 1.281 3.197 2.913.693 4.749 1.259 4.749 1.259 2.096-3.114-.657-4.456-.657-4.456"/><g fill="#f1f1f2"><path d="m27.18 2.713c0 0-12.752 2.823-12.231 6.139.523 3.317-.014.245-.014.245s1.895 1.291 4.197.368c2.3-.92 2.803-4.685 8.05-6.261 5.246-1.576 0-.491 0-.491"/><path d="m18.366 14.319c0 0-7.993.38-8.45 5.508 0 0 .73 4.477 10.1 1.939 0 0 2.207-.432 0-1.401 0 0-9.189-2.482-2.663-5.02 0 0 3.214-.809 1.01-1.025"/></g><path fill="#fff" d="m7.416 28.374c0 0-1.431-2.553 3.765-2.676 5.199-.126 7.211.561 10.395 2.956 3.183 2.399 13.622 3.458 13.622 3.458s8.591-.375 9.652-.903c0 0 1.536.217-1.433 1.057-2.968.843-13.624 2.739-18.604 2.492-4.988-.252-9.282.434-14.264-3.114-4.986-3.551-3-2.923-3.133-3.27"/><g fill="#c8ccce"><path d="m35 62.15c0 1.023-.828 1.851-1.851 1.851h-.299c-1.021 0-1.85-.828-1.85-1.851v-12.298c0-1.023.829-1.851 1.851-1.851h.299c1.022 0 1.85.828 1.85 1.851v12.298"/><ellipse cx="32.847" cy="60.13" rx="14.04" ry="3.776"/></g></svg>