<?xml version="1.0" encoding="UTF-8"?><svg id="a" xmlns="http://www.w3.org/2000/svg" width="52" height="52" viewBox="0 0 52 52"><path d="M25.89,2C-4.3,2.82-1.66,47.97,28.39,45.3c-1.23-2.55-1.36-5.88-.33-8.55v-10.86h5c-.11,1.98-.37,3.84-.74,5.53,1.38-.91,2.98-1.52,4.71-1.74.17-1.21.3-2.48.37-3.8h5.72c-.19,1.5-.58,2.95-1.13,4.31,1.41.49,2.7,1.26,3.78,2.24,6.44-13.8-4.58-30.77-19.89-30.43h.01ZM43.12,21.55h-5.72c-.22-5.14-1.37-9.63-3.11-13.03,4.78,2.68,8.11,7.46,8.83,13.03ZM23.71,7.29v14.27h-5c.36-6.8,2.53-12.16,5-14.27ZM23.71,25.9v14.27c-2.46-2.1-4.63-7.45-5-14.27,0,0,5,0,5,0ZM28.06,21.55V7.29c2.46,2.1,4.63,7.46,5,14.27h-5,0ZM17.49,8.52c-1.74,3.4-2.83,7.89-3.11,13.03h-5.72c.73-5.57,4.06-10.35,8.83-13.03ZM8.65,25.9h5.72c.22,5.14,1.38,9.63,3.11,13.04-4.78-2.68-8.11-7.46-8.83-13.04ZM39.87,31.17c-5.9-.79-1.07,1.93-5.25,2.81-.7-.23-1.33-1.59-2.17-.99-4,3.32.13,2.08-1.13,4.66-1.01,2.78-2.91-1.31-2.49,4.29.44.69,1.31.39,1.99.63.42.43.57,1.23.84,1.81-.06.47-.68.92-.93,1.36-.63.69,1.45,1.97,1.72,2.44.74.61,1.32-.66,1.99-.91.58-.25,1.2.44,1.81.54.64.44-.18,2.18,1,2.17,1.9-.05,3.15.57,3.07-1.99.38-.42,1.21-.5,1.72-.82.07,0,.15-.05.18.09.61.32,1.26,1.45,1.99.91.27-.49,2.34-1.75,1.72-2.44-.23-.44-1.04-.93-.91-1.45.29-.55.4-1.32.81-1.72.64-.23,1.98.18,1.99-.82.5-5.61-2.09-.78-2.81-5.15,1.88-1.76.49-2.24-.82-3.62-.65-.55-1.32.65-1.9.91-.09,0-.09.09-.09.09-2.78-.68-1.25-1.24-2.35-2.81h.02ZM38.16,36.97c4.74-.4,5.11,6.88.54,7.22-4.76.43-5.17-6.96-.53-7.22h-.01Z" fill="#fff"/></svg>