<svg xmlns="http://www.w3.org/2000/svg" height="52" width="52" viewBox="0 0 520 520" fill="#fff"><path d="M487 20H296c-8 0-16 5-16 13v30c0 8 7 17 16 17h79c9 0 14 10 7 16L212 266c-6 6-6 15 0 21l21 21c6 6 15 6 21 0l170-170c6-6 16-2 16 7v79c0 8 8 17 16 17h29c8 0 15-9 15-17V34c0-9-5-14-13-14zM363 255l-34 35c-6 6-9 13-9 21v114c0 8-7 15-15 15H95c-8 0-15-7-15-15V215c0-8 7-15 15-15h115c8 0 16-3 21-9l34-34c6-6 2-17-7-17H60a40 40 0 0 0-40 40v280a40 40 0 0 0 40 40h280a40 40 0 0 0 40-40V262c0-9-11-13-17-7z"/></svg>