<svg xmlns="http://www.w3.org/2000/svg" height="52" width="52" viewBox="0 0 520 520" fill="#fff"><path d="M145 40H55c-8 0-15 7-15 15v170c0 8 7 15 15 15h90c8 0 15-7 15-15V55c0-8-7-15-15-15zm160 0h-90c-8 0-15 7-15 15v170c0 8 7 15 15 15h90c8 0 15-7 15-15V55c0-8-7-15-15-15zm160 0h-90c-8 0-15 7-15 15v170c0 8 7 15 15 15h90c8 0 15-7 15-15V55c0-8-7-15-15-15zM145 280H55c-8 0-15 7-15 15v170c0 8 7 15 15 15h90c8 0 15-7 15-15V295c0-8-7-15-15-15zm160 0h-90c-8 0-15 7-15 15v170c0 8 7 15 15 15h90c8 0 15-7 15-15V295c0-8-7-15-15-15zm160 0h-90c-8 0-15 7-15 15v170c0 8 7 15 15 15h90c8 0 15-7 15-15V295c0-8-7-15-15-15z"/></svg>