<svg viewBox="0 0 24 24" xmlns="http://www.w3.org/2000/svg"><path d="M5.63611 12.7072L7.46454 14.5356L8.87875 13.1214L7.05033 11.293L8.46454 9.87875L10.293 11.7072L11.7072 10.293L9.87875 8.46454L11.293 7.05033L13.1214 8.87875L14.5356 7.46454L12.7072 5.63611L15.5356 2.80768C15.9261 2.41716 16.5593 2.41716 16.9498 2.80768L21.1925 7.05033C21.583 7.44085 21.583 8.07401 21.1925 8.46454L8.46454 21.1925C8.07401 21.583 7.44085 21.583 7.05033 21.1925L2.80768 16.9498C2.41716 16.5593 2.41716 15.9261 2.80768 15.5356L5.63611 12.7072ZM14.1214 18.3635L18.364 14.1209L20.9997 16.7566V20.9999H16.7578L14.1214 18.3635ZM5.63597 9.87812L2.80754 7.04969C2.41702 6.65917 2.41702 6.02601 2.80754 5.63548L5.63597 2.80705C6.02649 2.41653 6.65966 2.41653 7.05018 2.80705L9.87861 5.63548L5.63597 9.87812Z"/></svg>