<?xml version="1.0" standalone="no"?>
<!DOCTYPE svg PUBLIC "-//W3C//DTD SVG 1.1//EN" "http://www.w3.org/Graphics/SVG/1.1/DTD/svg11.dtd" >
<svg>
<metadata>
Created by FontForge 20090622 at Fri Jul 17 05:34:23 2015
 By deploy user
[Lato] Copyright (c) 2011-2014 by tyPoland Lukasz Dziedzic (http://www.typoland.com/) with Reserved Font Name "Lato". Licensed under the SIL Open Font License, Version 1.1 (http://scripts.sil.org/OFL).  [Source Han Sans]Copyright  2014, 2015 Adobe Systems
</metadata>
<defs>
<font id="SpoqaHanSansJP-Thin" horiz-adv-x="1024" >
  <font-face 
    font-family="SpoqaHanSansJP-Thin"
    font-weight="250"
    font-stretch="normal"
    units-per-em="1024"
    panose-1="2 11 3 2 2 2 3 2 2 7"
    ascent="881"
    descent="-143"
    x-height="540"
    cap-height="743"
    bbox="-34 -263 1024 979"
    underline-thickness="51"
    underline-position="-103"
    unicode-range="U+0020-U+FFE5"
  />
<missing-glyph 
d="M402 258v220h220v-220h-220z" />
    <glyph glyph-name=".notdef" 
d="M402 258v220h220v-220h-220z" />
    <glyph glyph-name="space" unicode=" " horiz-adv-x="225" 
 />
    <glyph glyph-name="exclam" unicode="!" horiz-adv-x="282" 
d="M122 684v71h38v-71l-4 -489h-30zM140 -13q-15 0 -28 11.5t-13 32.5q0 22 13 34t28 12q17 0 29.5 -12t12.5 -34q0 -21 -12.5 -32.5t-29.5 -11.5z" />
    <glyph glyph-name="quotedbl" unicode="&#x22;" horiz-adv-x="383" 
d="M94 713v68h45v-68l-6 -160h-32zM241 713v68h46v-68l-8 -160h-30z" />
    <glyph glyph-name="numbersign" unicode="#" horiz-adv-x="534" 
d="M135 246h-94v33h98l26 198h-102v33h104l29 222h32l-28 -222h174l29 222h33l-28 -222h92v-33h-96l-24 -198h96v-33h-101l-29 -246h-33l29 246h-174l-30 -246h-33zM347 279l25 198h-175l-25 -198h175z" />
    <glyph glyph-name="dollar" unicode="$" horiz-adv-x="615" 
d="M300 14q-79 1 -137 29.5t-100 73.5l27 24q39 -43 93 -68.5t117 -26.5v323l-51 22q-24 10 -49.5 23t-47 32.5t-35.5 46.5t-14 65q0 36 15 66t41 51.5t62.5 34t78.5 13.5v98h29v-99q58 -4 101.5 -27t73.5 -54l-24 -21q-27 27 -65 46.5t-86 23.5v-297l48 -19
q30 -14 58 -28.5t49.5 -34.5t34 -47.5t12.5 -67.5q0 -37 -14 -69t-40.5 -56t-64 -39t-83.5 -18v-88h-29v88zM329 355v-308q77 5 121 45.5t44 100.5q0 33 -10.5 56.5t-29 40.5t-43 29t-52.5 23zM142 562q0 -33 12.5 -56t31.5 -39.5t40.5 -28t39.5 -19.5l34 -15v287
q-73 -2 -115.5 -37.5t-42.5 -91.5z" />
    <glyph glyph-name="percent" unicode="%" horiz-adv-x="772" 
d="M639 746l-476 -735h-35l473 735h38zM575 380q66 0 105.5 -45.5t39.5 -121.5v-10q0 -76 -39.5 -120.5t-105.5 -44.5q-67 0 -107.5 44.5t-40.5 120.5v8q0 37 9.5 69t33.5 56q20 22 45.5 33t59.5 11zM575 67q55 0 82.5 35t27.5 101v10q0 66 -29 102t-81 36q-54 0 -83.5 -36
t-29.5 -102v-10q0 -66 29.5 -101t83.5 -35zM344 559q0 -76 -39.5 -121t-107.5 -45q-33 0 -60.5 11.5t-47.5 33t-31 51t-11 66.5v11q0 76 41.5 120.5t108.5 44.5q68 0 107.5 -44.5t39.5 -120.5v-7zM197 703q-56 0 -85.5 -34.5t-29.5 -98.5v-15q0 -65 29.5 -99t85.5 -34
q54 0 83.5 34t29.5 99v15q0 64 -29.5 98.5t-83.5 34.5z" />
    <glyph glyph-name="ampersand" unicode="&#x26;" horiz-adv-x="626" 
d="M605 19h-44l-2 1l-77 86q-39 -51 -93 -77t-122 -29h-13q-97 0 -153 48t-58 135q-2 40 8.5 72.5t31.5 59t52 49t68 43.5l-20 23q-23 25 -45.5 61.5t-24.5 82.5q-2 71 37 111t113 43h6q62 0 102 -37t42 -98q1 -39 -15 -69.5t-40 -54t-52 -40.5l-52 -31l224 -241
q37 68 57 177v2l30 1v-3q-19 -124 -65 -202zM236 423q24 13 49.5 28.5t46 35.5t33.5 45t12 58q-3 49 -32 78.5t-76 29.5h-5q-39 -2 -62 -14.5t-35 -31t-16 -38.5t-3 -36q2 -32 17.5 -65t43.5 -64zM223 383q-29 -16 -56.5 -34t-47.5 -41t-31 -53.5t-10 -70.5q2 -72 48.5 -112
t128.5 -40h11q128 5 193 96z" />
    <glyph glyph-name="quotesingle" unicode="'" horiz-adv-x="237" 
d="M94 713v68h45v-68l-6 -160h-32z" />
    <glyph glyph-name="parenleft" unicode="(" horiz-adv-x="306" 
d="M263 -137q-69 111 -108.5 235t-39.5 274q0 148 39.5 272.5t108.5 237.5l22 -15q-68 -107 -102.5 -233t-34.5 -262t34.5 -262.5t102.5 -233.5z" />
    <glyph glyph-name="parenright" unicode=")" horiz-adv-x="306" 
d="M36 -124q67 107 101.5 233.5t34.5 262.5t-34.5 262t-101.5 233l21 15q70 -113 109.5 -237.5t39.5 -272.5q0 -150 -39.5 -274t-109.5 -235z" />
    <glyph glyph-name="asterisk" unicode="*" horiz-adv-x="437" 
d="M122 554l60 98l-100 38l10 29l104 -30l7 114h30l8 -112l103 28l9 -29l-99 -38l61 -98l-25 -17l-71 92l-73 -92z" />
    <glyph glyph-name="plus" unicode="+" horiz-adv-x="534" 
d="M248 355h-210v33h210v230h38v-230h210v-33h-210v-229h-38v229z" />
    <glyph glyph-name="comma" unicode="," horiz-adv-x="158" 
d="M57 76q16 1 28 0.5t29 -0.5l-72 -202h-24z" />
    <glyph glyph-name="hyphen" unicode="-" horiz-adv-x="411" 
d="M45 388h321v-33h-321v33z" />
    <glyph glyph-name="period" unicode="." horiz-adv-x="237" 
d="M118 -13q-16 0 -28.5 11.5t-12.5 32.5q0 22 12.5 34t28.5 12t29 -12t13 -34q0 -21 -13 -32.5t-29 -11.5z" />
    <glyph glyph-name="slash" unicode="/" horiz-adv-x="423" 
d="M380 853h36l-369 -981h-36z" />
    <glyph glyph-name="zero" unicode="0" horiz-adv-x="614" 
d="M307 -9q-52 0 -101 23q-24 13 -46 30t-39 41q-36 46 -58 121q-20 70 -20 168q0 95 20 169q12 36 25.5 65.5t32.5 53.5q17 23 39 41t46 30q48 24 101 24t103 -24q47 -23 84 -71q18 -24 32 -53.5t25 -65.5q21 -73 21 -169q0 -100 -21 -168q-22 -75 -57 -121
q-36 -46 -84 -71q-50 -23 -103 -23zM307 725q-45 0 -88 -20q-43 -23 -74 -64q-30 -43 -51 -109q-9 -32 -13 -72t-4 -86q0 -47 4 -87t13 -73q21 -66 51 -109q31 -40 74 -62q42 -20 88.5 -20t88.5 20q21 11 39.5 26t33.5 36q14 22 27 49t22 60q10 33 14.5 73t4.5 87
q0 46 -4.5 86t-14.5 72q-9 33 -22 60.5t-27 48.5q-30 41 -73 64q-43 20 -89 20z" />
    <glyph glyph-name="one" unicode="1" horiz-adv-x="562" 
d="M316 756h23v-755h-35v696v4l-131 -117l-22 24z" />
    <glyph glyph-name="two" unicode="2" horiz-adv-x="614" 
d="M542 0h-479v23l271 274q33 33 60 63q15 16 27 32t22 32q12 15 19.5 31t13.5 32q11 30 11 71q0 47 -14 77q-15 32 -40 52q-24 21 -56 31q-36 10 -72 9t-66 -12q-30 -10 -57 -32q-22 -20 -41 -51q-15 -29 -21 -67q-3 -8 -3 -12v-5h-34l1 12q6 47 26 83q17 35 48 63
q30 24 68 39q36 14 78 14.5t83 -11.5q36 -11 68 -36q15 -14 27.5 -28.5t21.5 -34.5q18 -37 18 -91q0 -44 -14 -81q-6 -19 -16 -37l-21 -36q-11 -16 -24.5 -32.5t-28.5 -32.5l-30 -31l-31 -33l-239 -243q7 1 14.5 1h15.5h394v-33z" />
    <glyph glyph-name="three" unicode="3" horiz-adv-x="614" 
d="M307 -11q-46 0 -80 9q-32 9 -59 25q-24 14 -44 35q-16 18 -29 41q-6 11 -10 21.5l-8 20.5l-5.5 21.5t-4.5 18.5l-2 8h34q0 -3 1 -6q1 -2 1.5 -4.5t1.5 -4.5q0 -6 6 -21q5 -17 13 -31l10.5 -17.5t11.5 -18.5q9 -8 17.5 -16.5t19.5 -14.5q22 -17 52 -24q30 -11 74 -11
q50 0 90 18q38 17 64 43q26 28 38 58q12 32 12 62q0 36 -12 66q-13 29 -38 51q-27 24 -68 36q-45 15 -102 15h-11v28l11 1q44 1 84 15q18 6 33.5 14.5t28.5 19.5q25 22 40 51q13 27 13 66q0 45 -14 74q-16 33 -39 48q-12 10 -25.5 17.5t-28.5 11.5q-35 11 -71.5 10
t-66.5 -12q-32 -11 -57 -32q-25 -23 -41 -51q-8 -15 -12 -29.5t-7 -27.5q-4 -14 -5 -27h-33l1 12q6 46 25 83q18 37 49 61q31 27 67 41q36 13 78.5 14t82.5 -11q35 -10 66 -34q30 -24 48 -60q9 -18 13 -40.5t4 -47.5q0 -39 -14 -74q-16 -32 -40 -56q-12 -12 -26.5 -22
t-30.5 -18q-4 -2 -7.5 -3.5l-8.5 -3.5q18 -5 34 -11q38 -18 64 -42q12 -13 21 -28t16 -32t10.5 -35t3.5 -38q0 -44 -19 -81q-19 -41 -49 -68q-32 -28 -76 -46q-41 -17 -95 -17z" />
    <glyph glyph-name="four" unicode="4" horiz-adv-x="635" 
d="M413 0v224h-354l-15 30l379 499h24v-497h145v-32h-145v-224h-34zM413 256v429l-325 -429h325z" />
    <glyph glyph-name="five" unicode="5" horiz-adv-x="614" 
d="M275 -13q-14 0 -28 1.5t-28 3.5q-12 2 -25 5t-24 8l-23 8t-21 10q-10 5 -18.5 10t-15.5 10l-8 7l20 27q4 -2 8 -5q6 -5 17 -11q6 -4 14.5 -7.5t18.5 -8.5t22.5 -8.5l25.5 -7.5q28 -7 65 -7q23 0 44 3.5t41 9.5q21 8 38 18t31 23q31 28 47 68q19 43 19 96q0 42 -13 78
q-6 18 -15 33.5t-22 27.5q-25 25 -63 41q-60 22 -160 10l-36 -6.5t-41 -9.5h-3l-20 8l58 326h332v-33h-304l-47 -264q16 3 30.5 6t28.5 5q51 6 94 3.5t79 -15.5q43 -17 75 -48q31 -28 46 -72q15 -42 15 -91q0 -61 -21 -107q-9 -23 -23.5 -42.5t-31.5 -36.5q-33 -31 -80 -49
q-49 -17 -98 -17z" />
    <glyph glyph-name="six" unicode="6" horiz-adv-x="581" 
d="M281 -14q-50 0 -94 16q-41 17 -71 48q-32 30 -47 77q-10 21 -14 47.5t-4 54.5q0 42 23 97q11 27 30 59.5t46 68.5l217 292h40l-230 -311q-8 -10 -14 -19.5l-12 -19.5l8.5 6.5t9.5 6.5q13 8 28 14t31 11q17 5 34 6.5t34 1.5q26 0 49.5 -4t43.5 -13q42 -15 72 -47
q31 -31 46 -72q8 -21 12 -43t4 -47q0 -52 -18 -93q-20 -45 -50 -73q-18 -15 -37 -27t-40 -20q-47 -17 -97 -17zM297 411q-51 0 -91 -18q-20 -9 -35.5 -20.5t-30.5 -25.5q-26 -25 -41 -61q-14 -30 -14 -65q0 -47 14 -82q14 -36 39 -64q13 -13 28 -23.5t33 -17.5
q18 -8 38 -12.5t44 -4.5q50 0 89 17q18 7 34 17t30 23q25 23 41 62q14 38 14 80q0 44 -14 81t-40 61q-12 14 -27 23t-32 16q-36 14 -79 14z" />
    <glyph glyph-name="seven" unicode="7" horiz-adv-x="563" 
d="M124 0l368 719h-451v33h495v-24l-373 -728h-39z" />
    <glyph glyph-name="eight" unicode="8" horiz-adv-x="593" 
d="M295 -13q-53 0 -96 15q-21 6 -40 16.5t-36 23.5q-32 26 -50 64q-18 36 -18 88q0 49 16 82q15 37 43 62q23 26 61 40q6 3 13.5 5.5t14.5 5.5q-16 5 -27 12q-33 18 -51 41q-21 24 -32 56q-6 15 -8.5 31.5t-2.5 33.5q0 39 15 75q14 35 42 60q15 14 30.5 24t36.5 18
q38 16 89 16q50 0 90 -16q38 -15 67 -42q13 -12 23.5 -27t18.5 -33q15 -36 15 -75q0 -35 -12 -65q-12 -32 -32 -56q-10 -12 -23 -22t-27 -19q-7 -4 -13.5 -7t-14.5 -5l15 -5.5t14 -5.5q35 -13 61 -39q27 -27 43 -63q7 -17 11.5 -38t4.5 -44q0 -50 -19 -88q-18 -38 -50 -64
q-16 -13 -35 -23.5t-41 -16.5q-43 -15 -96 -15zM295 371q-22 0 -44 -3q-23 -3 -47 -12q-22 -8 -43 -20q-21 -13 -37 -33q-8 -10 -14.5 -22t-11.5 -25q-9 -27 -9 -62q0 -21 3.5 -39t11.5 -34q15 -33 42 -54q15 -12 31.5 -20.5t33.5 -14.5q38 -14 84 -14t84 14q18 6 34.5 14.5
t29.5 20.5q28 21 43 54q15 30 15 73q0 17 -1.5 33t-6.5 29q-12 27 -27 47q-16 20 -37 33q-23 13 -43 20q-25 9 -47 12q-24 3 -44 3zM295 723q-44 0 -76 -12q-17 -6 -30.5 -14.5t-25.5 -18.5q-23 -21 -35 -50q-12 -30 -12 -65q0 -29 11 -60q10 -28 33 -50q23 -23 55 -36
q35 -15 80 -15t80 15q17 7 30.5 15.5t24.5 20.5q22 21 34 50q10 27 10 60q0 35 -12 65q-13 31 -35 50q-25 21 -56 33q-33 12 -76 12z" />
    <glyph glyph-name="nine" unicode="9" horiz-adv-x="593" 
d="M180 0l221 327q8 9 13.5 17.5l10.5 16.5l-6 -4t-7 -4q-13 -8 -27 -14t-31 -11q-40 -12 -81.5 -9t-74.5 17q-20 8 -38 20t-32 26q-29 31 -44 70q-15 40 -15 86q0 48 17 89q19 43 50 69q17 16 35.5 27.5t39.5 19.5q41 16 89.5 16.5t90.5 -17.5q38 -17 70 -48q31 -28 46 -72
q17 -44 17 -97q0 -28 -7 -51q-6 -23 -18 -50q-6 -13 -13.5 -26t-16.5 -27q-9 -15 -19 -29.5l-22 -32.5l-208 -309h-40zM303 727q-46 0 -82 -13q-35 -14 -62 -39q-28 -27 -41 -60q-16 -33 -16 -77t14 -77q14 -35 39 -60q22 -24 57 -36q17 -7 36 -10.5t40 -3.5q51 0 86 18
q38 17 63 43q27 26 40 59q12 29 12 61q0 21 -3 41.5t-10 37.5q-16 37 -40 63q-12 12 -27 21.5t-30 17.5q-33 14 -76 14z" />
    <glyph glyph-name="colon" unicode=":" horiz-adv-x="237" 
d="M118 425q-16 0 -28.5 11t-12.5 33q0 23 12.5 34.5t28.5 11.5t29 -11.5t13 -34.5q0 -22 -13 -33t-29 -11zM118 -13q-16 0 -28.5 11.5t-12.5 32.5q0 22 12.5 34t28.5 12t29 -12t13 -34q0 -21 -13 -32.5t-29 -11.5z" />
    <glyph glyph-name="semicolon" unicode=";" horiz-adv-x="237" 
d="M118 425q-16 0 -28.5 11t-12.5 33q0 23 12.5 34.5t28.5 11.5t29 -11.5t13 -34.5q0 -22 -13 -33t-29 -11zM54 -142q36 20 58.5 54t23.5 82q-3 -1 -6.5 -1h-6.5q-18 0 -30 10.5t-12 31.5q0 20 12.5 31t29.5 11q22 0 36 -19.5t14 -52.5q0 -58 -29.5 -103t-75.5 -72z" />
    <glyph glyph-name="less" unicode="&#x3c;" horiz-adv-x="426" 
d="M390 636v-40l-316 -230l316 -226v-40l-352 250v33z" />
    <glyph glyph-name="equal" unicode="=" horiz-adv-x="534" 
d="M38 501h458v-32h-458v32zM38 275h458v-32h-458v32z" />
    <glyph glyph-name="greater" unicode="&#x3e;" horiz-adv-x="426" 
d="M38 636l352 -253v-33l-352 -250v40l316 226l-316 230v40z" />
    <glyph glyph-name="question" unicode="?" horiz-adv-x="445" 
d="M219 78q14 0 28 -11t14 -36q0 -21 -14 -32.5t-28 -11.5q-16 0 -28 12t-12 32q0 23 13 35t27 12zM393 663q15 -35 15 -82q0 -36 -8 -61.5t-19.5 -46t-26 -37.5l-28.5 -34l-25 -21.5t-30 -35.5t-26 -59.5t-11 -91.5h-34q0 69 21.5 122.5t60.5 92.5l26.5 25.5t31 36.5
t25.5 48t10 62q-1 41 -14.5 70t-34.5 47.5t-47.5 26.5t-54.5 7q-71 -3 -111.5 -48.5t-52.5 -125.5h-34q4 46 18.5 84.5t40.5 66t61.5 43t81.5 15.5q62 0 104 -28.5t61 -75.5z" />
    <glyph glyph-name="at" unicode="@" horiz-adv-x="906" 
d="M431 -161q-81 0 -149.5 26t-118 76.5t-77.5 122.5t-28 163q0 110 36.5 198.5t97.5 151.5t141 97.5t167 34.5q80 0 144.5 -25.5t110 -71.5t69.5 -111t24 -145q0 -70 -19 -124.5t-48 -91.5t-65 -55.5t-70 -18.5q-45 0 -74 20t-32 65h-2q-31 -32 -65.5 -55.5t-73.5 -23.5
q-25 0 -48 9t-40.5 28t-28 47.5t-10.5 66.5q0 40 14 84t40.5 81.5t65.5 61.5t89 24q61 0 94 -54h3l9 45h30l-38 -208q-39 -159 69 -159q28 0 56.5 17t52.5 50t39.5 80t15.5 108q0 75 -22 134.5t-63.5 101.5t-100 64.5t-129.5 22.5q-78 0 -151 -32t-129 -90t-90 -140.5
t-34 -184.5q0 -82 24.5 -148t69 -112t107 -71t139.5 -25q59 0 105.5 15.5t86.5 39.5l17 -28q-97 -61 -211 -61zM403 104q28 0 60 19t67 60l36 200q-21 33 -40.5 45t-47.5 12q-39 0 -70.5 -19.5t-53.5 -50.5t-34 -69.5t-12 -75.5q0 -34 8 -57t20.5 -37t30 -20.5t36.5 -6.5z
" />
    <glyph glyph-name="A" unicode="A" horiz-adv-x="629" 
d="M460 297l-54 148l-46.5 129t-43.5 131h-4q-21 -70 -43 -131l-47 -129l-55 -148h293zM471 264h-315l-99 -264h-40l279 743h36l279 -743h-43z" />
    <glyph glyph-name="B" unicode="B" horiz-adv-x="688" 
d="M121 743h205q116 0 185.5 -44t69.5 -136q0 -59 -31.5 -101.5t-92.5 -60.5v-5q78 -11 125 -56.5t47 -123.5q0 -53 -20.5 -93.5t-58 -67.5t-91 -41t-120.5 -14h-218v743zM302 414q127 0 182 39t55 108q0 82 -58.5 116t-171.5 34h-148v-297h141zM326 34q60 0 108.5 10.5
t83 32.5t53 56t18.5 81q0 85 -69 125.5t-194 40.5h-165v-346h165z" />
    <glyph glyph-name="C" unicode="C" horiz-adv-x="675" 
d="M393 -13q-72 0 -131.5 27.5t-101.5 78t-65.5 122t-23.5 159.5t23.5 158.5t66.5 120.5t104 77t134 27q69 0 119.5 -27.5t80.5 -60.5l-25 -26q-31 35 -75 56.5t-100 21.5q-66 0 -119.5 -24t-90 -69.5t-56.5 -109.5t-20 -144t19.5 -145t56 -110.5t89 -70.5t117.5 -25
q62 0 110 23.5t93 70.5l25 -25q-45 -49 -99 -77t-131 -28z" />
    <glyph glyph-name="D" unicode="D" horiz-adv-x="718" 
d="M121 743h175q90 0 156 -26.5t109 -74.5t64 -116.5t21 -151.5t-20.5 -151.5t-63.5 -118.5t-109 -77t-156 -27h-176v743zM291 34q83 0 142.5 25.5t97 71t55.5 107.5t18 136q0 73 -18 134.5t-55.5 106t-97 70t-142.5 25.5h-130v-676h130z" />
    <glyph glyph-name="E" unicode="E" horiz-adv-x="614" 
d="M123 743h419v-33h-379v-296h318v-34h-318v-346h391v-34h-431v743z" />
    <glyph glyph-name="F" unicode="F" horiz-adv-x="571" 
d="M123 743h418v-33h-378v-311h318v-32h-318v-367h-40v743z" />
    <glyph glyph-name="G" unicode="G" horiz-adv-x="717" 
d="M399 -13q-73 0 -134 27.5t-104 78t-66.5 122t-23.5 159.5t24.5 158.5t69 120.5t107.5 77t140 27q39 0 71 -8.5t57.5 -20.5t45 -28t35.5 -31l-26 -26q-30 32 -74 55t-109 23q-70 0 -125.5 -24t-94 -69.5t-59 -109.5t-20.5 -144t20 -145t57 -110.5t91 -70.5t121 -25
q57 0 106 15.5t79 43.5v244h-193v33h235v-289q-36 -37 -94.5 -60t-135.5 -23z" />
    <glyph glyph-name="H" unicode="H" horiz-adv-x="756" 
d="M121 743h40v-329h434v329h41v-743h-41v380h-434v-380h-40v743z" />
    <glyph glyph-name="I" unicode="I" horiz-adv-x="305" 
d="M132 743h40v-743h-40v743z" />
    <glyph glyph-name="J" unicode="J" horiz-adv-x="556" 
d="M247 -13q-63 0 -109.5 27t-76.5 79l33 20q30 -50 66.5 -70t87.5 -20q75 0 109.5 43t34.5 136v541h41v-546q0 -44 -9.5 -82.5t-32 -67t-58 -44.5t-86.5 -16z" />
    <glyph glyph-name="K" unicode="K" horiz-adv-x="664" 
d="M121 743h40v-426h2l394 426h51l-251 -272l284 -471h-47l-267 441l-166 -179v-262h-40v743z" />
    <glyph glyph-name="L" unicode="L" horiz-adv-x="561" 
d="M125 743h40v-709h362v-34h-402v743z" />
    <glyph glyph-name="M" unicode="M" horiz-adv-x="829" 
d="M119 743h63l167 -448l32.5 -83.5l32.5 -84.5h4l31 84.5l30 83.5l168 448h64v-743h-40v514q0 44 1 96.5t3 98.5h-4l-61 -164l-175 -462h-42l-176 462l-61 164h-4q2 -46 3.5 -98.5t1.5 -96.5v-514h-38v743z" />
    <glyph glyph-name="N" unicode="N" horiz-adv-x="755" 
d="M121 743h42l344 -541l89 -147h5q-6 108 -6 210v478h39v-743h-43l-343 542l-89 146h-4q2 -52 3 -101t1 -103v-484h-38v743z" />
    <glyph glyph-name="O" unicode="O" horiz-adv-x="774" 
d="M386 -13q-70 0 -128 27.5t-100 78t-65.5 122t-23.5 159.5t23.5 158.5t65.5 120.5t100 77t128 27t128 -27t100 -77t65.5 -120.5t23.5 -158.5t-23.5 -159.5t-65.5 -122t-100 -78t-128 -27.5zM386 23q61 0 112.5 25t87.5 70.5t56 110.5t20 145t-20 144t-56 109.5t-87.5 69.5
t-112.5 24t-112.5 -24t-87 -69.5t-55.5 -109.5t-20 -144t20 -145t55.5 -110.5t87 -70.5t112.5 -25z" />
    <glyph glyph-name="P" unicode="P" horiz-adv-x="655" 
d="M122 743h188q67 0 118.5 -10.5t87.5 -34.5t55 -63t19 -94q0 -109 -72 -161t-204 -52h-152v-328h-40v743zM300 361q126 0 186.5 41.5t60.5 138.5q0 49 -15.5 81t-46.5 51.5t-78.5 28t-110.5 8.5h-134v-349h138z" />
    <glyph glyph-name="Q" unicode="Q" horiz-adv-x="774" 
d="M111 374q0 -80 20 -145t55.5 -111.5t87 -72t112.5 -25.5t112.5 25.5t87.5 72t56 111.5t20 145t-20 144t-56 109.5t-87.5 69.5t-112.5 24t-112.5 -24t-87 -69.5t-55.5 -109.5t-20 -144zM702 -160q-14 -5 -39 -8.5t-53 -3.5q-47 0 -86.5 12.5t-71 34t-54.5 50.5t-37 63
q-64 4 -118 33.5t-92.5 80t-60 119.5t-21.5 153q0 88 23.5 158.5t65.5 120.5t100 77t128 27t128 -27t100 -77t65.5 -120.5t23.5 -158.5q0 -85 -22 -154t-60.5 -119.5t-93.5 -79.5t-119 -33q26 -59 78.5 -90.5t128.5 -31.5q27 0 45 2.5t32 6.5z" />
    <glyph glyph-name="R" unicode="R" horiz-adv-x="645" 
d="M324 383q108 0 165.5 41t57.5 128t-57.5 122.5t-165.5 35.5h-162v-327h162zM555 0l-220 350h-173v-350h-40v743h216q57 0 103.5 -10.5t79.5 -33.5t51 -59.5t18 -87.5q0 -90 -56 -140.5t-153 -59.5l220 -352h-46z" />
    <glyph glyph-name="S" unicode="S" horiz-adv-x="624" 
d="M323 -13q-87 0 -151 31.5t-110 80.5l28 27q43 -48 102.5 -75.5t130.5 -27.5q47 0 84.5 11.5t64.5 32t41 49.5t14 64q0 37 -11 62.5t-31 44t-46 32t-56 25.5l-119 51q-25 11 -53.5 25.5t-52 35.5t-39 51t-15.5 71q0 39 17 72.5t47 57t70.5 36.5t88.5 13q70 0 124 -26
t88 -62l-25 -26q-34 35 -81 56.5t-106 21.5q-83 0 -132.5 -38t-49.5 -101q0 -35 14 -60t34.5 -43t44 -30t44.5 -21l119 -51q33 -15 63.5 -30.5t53.5 -37.5t36 -52.5t13 -73.5t-17.5 -78.5t-49.5 -62t-77 -41t-100 -14.5z" />
    <glyph glyph-name="T" unicode="T" horiz-adv-x="627" 
d="M293 710h-252v33h546v-33h-252v-710h-42v710z" />
    <glyph glyph-name="U" unicode="U" horiz-adv-x="752" 
d="M375 -13q-48 0 -93.5 13t-82 46t-58.5 90t-22 143v464h40v-456q0 -77 18 -127.5t47.5 -81t69 -43t81.5 -12.5q43 0 83 12.5t70 43t48.5 81t18.5 127.5v456h39v-464q0 -86 -22.5 -143t-59.5 -90t-83.5 -46t-93.5 -13z" />
    <glyph glyph-name="V" unicode="V" horiz-adv-x="586" 
d="M14 743h42l151 -444l21 -65.5l20 -60.5l21 -60.5l23 -64.5h4l23 64.5l21 60.5l20.5 60.5l21.5 65.5l149 444h41l-258 -743h-41z" />
    <glyph glyph-name="W" unicode="W" horiz-adv-x="901" 
d="M35 743h42l102 -448l29 -122l29 -122h4q14 62 30 122l32 122l126 448h45l127 -448l31.5 -122l32.5 -122h5l27 122l26 122l103 448h40l-178 -743h-42l-149 530l-22 84l-21 83h-4l-23.5 -83t-22.5 -84l-147 -530h-42z" />
    <glyph glyph-name="X" unicode="X" horiz-adv-x="572" 
d="M265 385l-220 358h44l134 -227l30.5 -48t34.5 -52h4l30 52l29 48l136 227h41l-220 -360l237 -383h-43l-144 238l-34 55l-39 62h-4q-21 -33 -37.5 -62l-32.5 -55l-141 -238h-41z" />
    <glyph glyph-name="Y" unicode="Y" horiz-adv-x="536" 
d="M247 305l-235 438h43l124 -238l42.5 -81.5l43.5 -80.5h4l46 80.5t41 81.5l125 238h40l-234 -438v-305h-40v305z" />
    <glyph glyph-name="Z" unicode="Z" horiz-adv-x="646" 
d="M67 23l460 687h-419v33h471v-21l-462 -688h467v-34h-517v23z" />
    <glyph glyph-name="bracketleft" unicode="[" horiz-adv-x="306" 
d="M113 862h172v-26h-144v-918h144v-26h-172v970z" />
    <glyph glyph-name="backslash" unicode="\" horiz-adv-x="422" 
d="M410 -128h-36l-369 981h36z" />
    <glyph glyph-name="bracketright" unicode="]" horiz-adv-x="306" 
d="M22 -83h143v918h-143v26h172v-970h-172v26z" />
    <glyph glyph-name="asciicircum" unicode="^" horiz-adv-x="457" 
d="M244 743l151 -258h-35l-134 224l-127 -224h-38l154 258h29z" />
    <glyph glyph-name="underscore" unicode="_" horiz-adv-x="563" 
d="M13 -11h537v-33h-537v33z" />
    <glyph glyph-name="grave" unicode="`" horiz-adv-x="600" 
d="M181 816l29 24l149 -173l-21 -21z" />
    <glyph glyph-name="a" unicode="a" horiz-adv-x="549" 
d="M223 -13q-32 0 -60 8.5t-49.5 26t-33.5 45t-12 66.5q0 45 21 78.5t64 58t109.5 41t157.5 26.5q1 33 -3.5 65t-19 58t-40.5 42.5t-68 16.5q-29 0 -55 -6t-48.5 -16t-41 -21.5t-31.5 -21.5l-19 29q12 10 32 21.5t46 22.5t56 18.5t63 7.5q47 0 79 -16.5t51 -44.5t27.5 -65
t8.5 -78v-349h-31l-5 72h-3q-42 -34 -91 -59.5t-104 -25.5zM226 20q49 0 95 23t99 69v193q-88 -9 -148 -24.5t-97 -36.5t-53.5 -48.5t-16.5 -61.5q0 -31 10 -53t26.5 -35t38.5 -19.5t46 -6.5z" />
    <glyph glyph-name="b" unicode="b" horiz-adv-x="607" 
d="M309 -13q-39 0 -82 18.5t-81 48.5h-3l-5 -54h-30v813h36v-240l-3 -108q43 36 91.5 62t99.5 26q55 0 95.5 -19.5t67.5 -56t40.5 -87t13.5 -112.5q0 -69 -19.5 -123.5t-52.5 -91.5t-76.5 -56.5t-91.5 -19.5zM312 20q43 0 79.5 19t62.5 53.5t41 81.5t15 104q0 51 -10 95.5
t-31.5 76.5t-56 50.5t-83.5 18.5q-42 0 -88 -24t-97 -69v-333q46 -40 91 -56.5t77 -16.5z" />
    <glyph glyph-name="c" unicode="c" horiz-adv-x="504" 
d="M302 -13q-51 0 -95.5 19t-77 54.5t-51 88.5t-18.5 119q0 68 19.5 121t53 89.5t77.5 55.5t93 19q55 0 93 -21t65 -47l-24 -26q-26 25 -59 42.5t-75 17.5q-43 0 -80 -18.5t-64.5 -51t-43.5 -79t-16 -102.5q0 -55 14.5 -100.5t41.5 -78.5t64.5 -51t83.5 -18q45 0 83 19
t67 46l21 -27q-34 -29 -77 -50t-95 -21z" />
    <glyph glyph-name="d" unicode="d" horiz-adv-x="609" 
d="M284 -13q-102 0 -163 72t-61 209q0 66 19.5 118.5t52.5 89.5t77 57t93 20t86.5 -17.5t79.5 -50.5l-3 102v226h37v-813h-31l-5 72h-2q-34 -34 -79 -59.5t-101 -25.5zM287 20q47 0 90 24.5t88 69.5v331q-45 40 -83.5 57t-81.5 17t-79.5 -19.5t-63.5 -53.5t-42.5 -79.5
t-15.5 -98.5q0 -55 12.5 -100.5t36.5 -78.5t59 -51t80 -18z" />
    <glyph glyph-name="e" unicode="e" horiz-adv-x="540" 
d="M307 -13q-51 0 -96 19.5t-78.5 55t-53 88t-19.5 118.5t19.5 118.5t52 89.5t74.5 57t87 20q94 0 149 -64t55 -185v-17t-2 -20h-396q0 -53 15 -98t42.5 -78.5t66 -52t86.5 -18.5q46 0 82 13.5t67 36.5l16 -32q-31 -19 -69 -35t-98 -16zM461 301q0 111 -45.5 164.5
t-122.5 53.5q-36 0 -69.5 -15t-59.5 -43t-43.5 -68.5t-21.5 -91.5h362z" />
    <glyph glyph-name="f" unicode="f" horiz-adv-x="286" 
d="M302 777q-33 17 -65 17q-47 0 -68 -33.5t-21 -94.5v-126h128v-34h-128v-506h-35v506h-75v29l75 5v131q0 80 33 117.5t92 37.5q35 0 75 -17z" />
    <glyph glyph-name="g" unicode="g" horiz-adv-x="543" 
d="M282 -263q-52 0 -93 10.5t-69.5 30.5t-44 48t-15.5 61q0 36 22 71.5t60 61.5v5q-20 12 -34 33.5t-14 52.5q0 18 6 33.5t15 28t19 22t20 15.5v4q-26 23 -47.5 61t-21.5 87q0 41 14.5 76t39.5 60.5t58.5 40t72.5 14.5q24 0 42 -4t29 -9h180v-34h-129q29 -24 46.5 -60.5
t17.5 -83.5q0 -39 -14.5 -74.5t-39.5 -61t-59 -40.5t-73 -15q-23 0 -47.5 6.5t-43.5 18.5q-18 -15 -32.5 -35t-14.5 -47q0 -16 4.5 -29.5t17 -23.5t33 -16t51.5 -6h119q90 0 131.5 -29t41.5 -92q0 -34 -17 -66.5t-50 -58t-79 -41t-102 -15.5zM270 205q30 0 56.5 11.5t47 32
t32.5 50t12 63.5q0 36 -12 65.5t-32 50t-46.5 31t-57.5 10.5q-29 0 -56 -10.5t-47 -31t-31.5 -49.5t-11.5 -66q0 -34 11.5 -63.5t32 -50t47 -32t55.5 -11.5zM284 -230q48 0 87 12.5t66 33t41.5 46t14.5 52.5q0 48 -33 68t-98 20h-122q-6 0 -24.5 2t-41.5 7
q-40 -26 -57.5 -58.5t-17.5 -62.5q0 -54 48 -87t137 -33z" />
    <glyph glyph-name="h" unicode="h" horiz-adv-x="589" 
d="M108 813h36v-361q43 44 87.5 72.5t101.5 28.5q83 0 123 -50t40 -156v-347h-37v342q0 90 -30.5 133.5t-99.5 43.5q-50 0 -91.5 -26.5t-93.5 -79.5v-413h-36v813z" />
    <glyph glyph-name="i" unicode="i" horiz-adv-x="251" 
d="M108 540h36v-540h-36v540zM127 676q-16 0 -27.5 10.5t-11.5 28.5q0 19 11.5 29.5t27.5 10.5q15 0 27.5 -10.5t12.5 -29.5q0 -18 -12.5 -28.5t-27.5 -10.5z" />
    <glyph glyph-name="j" unicode="j" horiz-adv-x="251" 
d="M32 -262q-18 0 -36.5 4t-29.5 9l9 30l26 -7t33 -4q23 0 37.5 9t22.5 25.5t11 38.5t3 48v649h36v-653q0 -77 -27.5 -113t-84.5 -36zM127 676q-16 0 -27.5 10.5t-11.5 28.5q0 19 11.5 29.5t27.5 10.5q15 0 27.5 -10.5t12.5 -29.5q0 -18 -12.5 -28.5t-27.5 -10.5z" />
    <glyph glyph-name="k" unicode="k" horiz-adv-x="511" 
d="M108 813h36v-614h2l278 341h43l-174 -213l205 -327h-40l-187 299l-127 -151v-148h-36v813z" />
    <glyph glyph-name="l" unicode="l" horiz-adv-x="260" 
d="M112 0v813h35v-813h-35z" />
    <glyph glyph-name="m" unicode="m" horiz-adv-x="910" 
d="M108 540h30l6 -86h2q37 43 81.5 71t89.5 28q67 0 101.5 -30.5t47.5 -82.5q48 53 93.5 83t91.5 30q80 0 120 -50t40 -156v-347h-36v342q0 177 -128 177q-40 0 -81 -26.5t-89 -79.5v-413h-36v342q0 90 -30.5 133.5t-96.5 43.5q-77 0 -170 -106v-413h-36v540z" />
    <glyph glyph-name="n" unicode="n" horiz-adv-x="594" 
d="M108 540h30l6 -86h2q42 43 86 71t101 28q83 0 123 -50t40 -156v-347h-37v342q0 90 -30.5 133.5t-99.5 43.5q-50 0 -91.5 -26.5t-93.5 -79.5v-413h-36v540z" />
    <glyph glyph-name="o" unicode="o" horiz-adv-x="600" 
d="M300 -13q-48 0 -91.5 19t-76.5 54.5t-52.5 88.5t-19.5 119q0 68 19.5 121t52.5 89.5t76.5 55.5t91.5 19t91.5 -19t76.5 -55.5t52.5 -89.5t19.5 -121q0 -66 -19.5 -119t-52.5 -88.5t-76.5 -54.5t-91.5 -19zM300 20q43 0 80 18t64 51t42.5 78.5t15.5 100.5
q0 56 -15.5 102.5t-42.5 79t-64 51t-80 18.5t-80 -18.5t-63.5 -51t-42 -79t-15.5 -102.5q0 -55 15.5 -100.5t42 -78.5t63.5 -51t80 -18z" />
    <glyph glyph-name="p" unicode="p" horiz-adv-x="609" 
d="M144 93q49 -40 92.5 -56.5t75.5 -16.5q43 0 79.5 19t62.5 53.5t41 81.5t15 104q0 51 -10 95.5t-31.5 76.5t-56 50.5t-83.5 18.5q-42 0 -87 -24t-98 -69v-333zM108 540h30l6 -70h2q40 32 87.5 57.5t98.5 25.5q55 0 95.5 -19.5t67.5 -56t40.5 -87t13.5 -112.5
q0 -69 -19.5 -123.5t-52.5 -91.5t-76.5 -56.5t-91.5 -19.5q-39 0 -80.5 17.5t-84.5 49.5v-303h-36v789z" />
    <glyph glyph-name="q" unicode="q" horiz-adv-x="609" 
d="M465 -36l3 111q-38 -36 -83 -62t-101 -26q-102 0 -163 72t-61 209q0 66 19.5 118.5t52.5 89.5t77 57t93 20t86 -17t76 -47h2l5 51h31v-789h-37v213zM287 20q47 0 90 24.5t88 69.5v331q-45 40 -83.5 57t-81.5 17t-79.5 -19.5t-63.5 -53.5t-42.5 -79.5t-15.5 -98.5
q0 -55 12.5 -100.5t36.5 -78.5t59 -51t80 -18z" />
    <glyph glyph-name="r" unicode="r" horiz-adv-x="347" 
d="M108 540h30l6 -102h2q27 49 65.5 82t87.5 33q14 0 26 -2t26 -9l-9 -34q-13 5 -22.5 7t-25.5 2q-19 0 -38 -7.5t-38.5 -24.5t-38.5 -44.5t-35 -67.5v-373h-36v540z" />
    <glyph glyph-name="s" unicode="s" horiz-adv-x="452" 
d="M234 -13q-61 0 -110.5 22t-85.5 51l23 30q34 -30 74.5 -50t101.5 -20q67 0 101.5 34t34.5 80q0 27 -12.5 46.5t-32 34t-43.5 25.5t-47 19q-31 11 -62.5 23.5t-56 30t-40.5 41.5t-16 59q0 27 11 53t32.5 45t53 30.5t73.5 11.5q40 0 80 -15.5t70 -39.5l-22 -28
q-26 20 -57 34.5t-74 14.5q-33 0 -57.5 -8.5t-40 -23.5t-23.5 -34t-8 -38q0 -25 11.5 -42t30 -30t41.5 -23t47 -19l64.5 -24.5t58 -30.5t41.5 -44t16 -66q0 -30 -12 -57t-34 -47.5t-54.5 -32.5t-76.5 -12z" />
    <glyph glyph-name="t" unicode="t" horiz-adv-x="342" 
d="M247 -13q-38 0 -62.5 11t-39 31.5t-20 49.5t-5.5 64v363h-86v29l86 5l4 157h32v-157h159v-34h-159v-368q0 -26 3.5 -47.5t13.5 -37t28.5 -24.5t48.5 -9q15 0 34.5 5.5t33.5 12.5l13 -31q-24 -8 -47 -14t-37 -6z" />
    <glyph glyph-name="u" unicode="u" horiz-adv-x="591" 
d="M261 -13q-83 0 -123 50t-40 156v347h37v-343q0 -91 30.5 -134t98.5 -43q50 0 91.5 28t91.5 88v404h37v-540h-31l-4 92h-3q-40 -47 -84.5 -76t-100.5 -29z" />
    <glyph glyph-name="v" unicode="v" horiz-adv-x="477" 
d="M13 540h41l127 -349q15 -38 28.5 -77.5t28.5 -75.5h4l28.5 75.5l27.5 77.5l128 349h38l-202 -540h-44z" />
    <glyph glyph-name="w" unicode="w" horiz-adv-x="760" 
d="M27 540h41l103 -362q9 -38 19 -72t18 -70h5l20 70t20 72l103 362h50l103 -362q10 -38 20 -72l21 -70h4q9 36 19 70l21 72l100 362h39l-158 -540h-50l-100 349q-12 39 -22 77l-21 77h-5l-20.5 -78t-23.5 -78l-99 -347h-45z" />
    <glyph glyph-name="x" unicode="x" horiz-adv-x="444" 
d="M201 282l-169 258h41l91 -144l29 -43.5t30 -45.5h4l28.5 45.5t29.5 43.5l89 144h39l-169 -260l185 -280h-42l-100 155l-31 50t-34 49h-5q-17 -24 -32.5 -49l-31.5 -50l-98 -155h-40z" />
    <glyph glyph-name="y" unicode="y" horiz-adv-x="479" 
d="M76 -250q-15 0 -28.5 3t-23.5 8l9 34q8 -4 20.5 -6.5t24.5 -2.5q25 0 46.5 12t39 31.5t32 47.5t25.5 61l16 50l-224 552h41l136 -353l30 -74.5l31 -76.5h5l26.5 76.5l24.5 74.5l121 353h38l-215 -616q-10 -32 -26 -63t-37.5 -55.5t-49 -40t-62.5 -15.5z" />
    <glyph glyph-name="z" unicode="z" horiz-adv-x="449" 
d="M30 19l329 487h-293v34h342v-21l-330 -485h341v-34h-389v19z" />
    <glyph glyph-name="braceleft" unicode="{" horiz-adv-x="306" 
d="M250 -109q-31 0 -53.5 6.5t-38 22t-23 43.5t-7.5 70q0 63 4.5 120t4.5 116q0 19 -4 35.5t-14.5 29.5t-29 20.5t-48.5 7.5v28q30 0 48.5 8t29 20.5t14.5 28.5t4 33q0 62 -4.5 118.5t-4.5 119.5q0 42 7.5 69.5t23 44t38 23t53.5 6.5h35v-26h-36q-53 0 -71 -30t-18 -91
q0 -57 3.5 -107.5t3.5 -112.5q0 -49 -11.5 -77.5t-43.5 -38.5v-4q32 -12 43.5 -41t11.5 -75q0 -62 -3.5 -113.5t-3.5 -106.5q0 -61 18 -91t71 -30h36v-26h-35z" />
    <glyph glyph-name="bar" unicode="|" horiz-adv-x="249" 
d="M109 857h30v-992h-30v992z" />
    <glyph glyph-name="braceright" unicode="}" horiz-adv-x="306" 
d="M22 -83h34q54 0 72 30t18 91q0 55 -3.5 106.5t-3.5 113.5q0 46 11 75t44 41v4q-33 10 -44 38.5t-11 77.5q0 62 3.5 112.5t3.5 107.5q0 60 -18 90.5t-72 30.5h-34v26h33q31 0 54 -6.5t38.5 -23t23 -44t7.5 -69.5q0 -63 -4.5 -119.5t-4.5 -118.5q0 -17 4 -33t15 -28.5
t29.5 -20.5t47.5 -8v-28q-29 0 -47.5 -7.5t-29.5 -20.5t-15 -29.5t-4 -35.5q0 -59 4.5 -116t4.5 -120q0 -42 -7.5 -70t-23 -43.5t-38.5 -22t-54 -6.5h-33v26z" />
    <glyph glyph-name="asciitilde" unicode="~" horiz-adv-x="534" 
d="M369 304q-33 0 -59.5 16t-51.5 35.5t-48 35.5t-47 16q-26 0 -48 -15.5t-42 -56.5l-26 14q23 46 54.5 68.5t64.5 22.5q32 0 58.5 -16t51 -35l47.5 -35.5t48 -16.5t47 15.5t43 56.5l25 -17q-23 -44 -54.5 -66t-62.5 -22z" />
    <glyph glyph-name="section" unicode="&#xa7;" 
d="M699 733l-23 -32q-25 20 -71.5 37.5t-99.5 17.5q-60 0 -102 -36.5t-42 -76.5q0 -23 10.5 -42t26 -31.5t42 -23.5t48.5 -17.5t57 -15.5q182 -44 182 -154q0 -41 -16 -80t-43 -63q16 -13 26.5 -40t10.5 -57q0 -68 -56 -119t-152 -51q-119 0 -173 52l24 30q51 -51 155 -51
q78 0 123.5 39t45.5 96q0 51 -37.5 81t-148.5 63q-106 30 -148 66.5t-42 96.5q0 64 69 127q-19 12 -28.5 37t-8.5 47q0 62 51.5 107.5t141.5 45.5q104 0 178 -53zM388 530q-56 -53 -56 -110q0 -19 4 -31t19.5 -28.5t50.5 -33t91 -34.5q113 -36 149 -60q45 45 45 114
q0 45 -35.5 76t-80 44l-102.5 30.5t-85 32.5z" />
    <glyph glyph-name="dieresis" unicode="&#xa8;" horiz-adv-x="600" 
d="M203 678q-16 0 -26.5 11t-10.5 26t10.5 26t26.5 11q15 0 26 -11t11 -26t-11 -26t-26 -11zM424 689q-11 -11 -27 -11t-26.5 11t-10.5 26t10.5 26t26.5 11t26.5 -11t10.5 -26t-10 -26z" />
    <glyph glyph-name="degree" unicode="&#xb0;" horiz-adv-x="344" 
d="M47 640q0 59 37.5 95t87.5 36t87.5 -36t37.5 -95q0 -58 -37.5 -94t-87.5 -36t-87.5 36t-37.5 94zM264 640q0 44 -26 72.5t-66 28.5t-66 -28.5t-26 -72.5q0 -42 26 -70.5t66 -28.5t66 28.5t26 70.5z" />
    <glyph glyph-name="plusminus" unicode="&#xb1;" 
d="M893 512v-37h-363v-304h-36v304h-363v37h363v304h36v-304h363zM131 65h762v-37h-762v37z" />
    <glyph glyph-name="acute" unicode="&#xb4;" horiz-adv-x="600" 
d="M262 646l-21 21l150 173l28 -24z" />
    <glyph glyph-name="paragraph" unicode="&#xb6;" 
d="M523 -59v355h-10q-64 0 -121.5 23.5t-98 76.5t-40.5 126q0 37 8.5 70.5t30.5 67.5t56 58.5t90.5 39.5t129.5 15q83 0 118 -7v-825h-36v797h-91v-797h-36z" />
    <glyph glyph-name="Aring" unicode="&#xc5;" horiz-adv-x="587" 
d="M294 953q-29 0 -48.5 -18.5t-19.5 -50.5q0 -33 19.5 -51.5t48.5 -18.5q28 0 46 18.5t18 51.5q0 32 -18.5 50.5t-45.5 18.5zM294 788q-41 0 -68 27t-27 69q0 43 27 69t68 26q39 0 66.5 -26.5t27.5 -68.5q0 -41 -27.5 -68.5t-66.5 -27.5zM154 297h278l-51 148
q-44 123 -85 260h-4q-36 -118 -86 -260zM536 0l-93 264h-301l-93 -264h-38l265 743h34l267 -743h-41z" />
    <glyph glyph-name="multiply" unicode="&#xd7;" 
d="M835 84l-26 -26l-297 297l-297 -297l-26 26l297 297l-297 296l27 26l296 -296l297 296l26 -25l-297 -297z" />
    <glyph glyph-name="divide" unicode="&#xf7;" 
d="M470 603q-17 17 -17 42t17 42.5t42 17.5t42 -17.5t17 -42.5t-17 -42t-42 -17t-42 17zM131 399h762v-37h-762v37zM470 75q-17 17 -17 42t17 42t42 17t42 -17t17 -42t-17 -42.5t-42 -17.5t-42 18z" />
    <glyph glyph-name="Alpha" unicode="&#x391;" horiz-adv-x="587" 
d="M154 297h278l-51 148q-44 123 -85 260h-4q-36 -118 -86 -260zM536 0l-93 264h-301l-93 -264h-38l265 743h34l267 -743h-41z" />
    <glyph glyph-name="Beta" unicode="&#x392;" horiz-adv-x="647" 
d="M113 0v743h194q114 0 178.5 -45t64.5 -135q0 -60 -30.5 -102.5t-87.5 -59.5v-5q76 -12 120 -58.5t44 -121.5q0 -104 -73 -160t-202 -56h-208zM151 414h134q225 0 225 147q0 80 -53.5 115t-164.5 35h-141v-297zM151 34h156q120 0 185.5 44.5t65.5 135.5q0 166 -251 166
h-156v-346z" />
    <glyph glyph-name="Gamma" unicode="&#x393;" horiz-adv-x="541" 
d="M113 0v743h397v-33h-359v-710h-38z" />
    <glyph glyph-name="Delta" unicode="&#x394;" horiz-adv-x="617" 
d="M30 0v23l261 720h37l260 -720v-23h-558zM73 34h472l-146 406l-87 253h-5l-89 -253z" />
    <glyph glyph-name="Epsilon" unicode="&#x395;" horiz-adv-x="575" 
d="M113 0v743h399v-33h-361v-296h303v-34h-303v-346h372v-34h-410z" />
    <glyph glyph-name="Zeta" unicode="&#x396;" horiz-adv-x="606" 
d="M58 0v23l440 687h-401v33h449v-21l-440 -688h445v-34h-493z" />
    <glyph glyph-name="Eta" unicode="&#x397;" horiz-adv-x="714" 
d="M113 0v743h38v-329h413v329h39v-743h-39v380h-413v-380h-38z" />
    <glyph glyph-name="Theta" unicode="&#x398;" horiz-adv-x="731" 
d="M226 380v34h279v-34h-279zM63 374q0 173 84.5 278t218.5 105t218 -104.5t84 -278.5t-84.5 -280.5t-217.5 -106.5t-218 106.5t-85 280.5zM366 721q-119 0 -191 -94t-72 -253t72.5 -255t190.5 -96t190 96t72 255t-72 253t-190 94z" />
    <glyph glyph-name="Iota" unicode="&#x399;" horiz-adv-x="263" 
d="M113 0v743h38v-743h-38z" />
    <glyph glyph-name="Kappa" unicode="&#x39a;" horiz-adv-x="621" 
d="M113 0v743h38v-426h2l375 426h49l-239 -272l270 -471h-45l-254 441l-158 -179v-262h-38z" />
    <glyph glyph-name="Lambda" unicode="&#x39b;" horiz-adv-x="544" 
d="M7 0l244 743h40l248 -743h-41l-144 444q-63 199 -81 251h-4q-18 -52 -81 -251l-143 -444h-38z" />
    <glyph glyph-name="Mu" unicode="&#x39c;" horiz-adv-x="788" 
d="M113 0v743h60l159 -448l61 -168h4l59 168l159 448h61v-743h-38v514q0 75 4 195h-4l-57 -164l-167 -462h-40l-168 462l-59 164h-4q5 -100 5 -195v-514h-35z" />
    <glyph glyph-name="Nu" unicode="&#x39d;" horiz-adv-x="712" 
d="M113 0v743h40l327 -541l85 -147h5q-6 108 -6 210v478h37v-743h-41l-327 542l-85 146h-4q4 -140 4 -204v-484h-35z" />
    <glyph glyph-name="Xi" unicode="&#x39e;" horiz-adv-x="567" 
d="M52 0v34h464v-34h-464zM142 380v34h284v-34h-284zM63 710v33h442v-33h-442z" />
    <glyph glyph-name="Omicron" unicode="&#x39f;" horiz-adv-x="731" 
d="M63 374q0 173 84.5 278t218.5 105t218 -104.5t84 -278.5t-84.5 -280.5t-217.5 -106.5t-218 106.5t-85 280.5zM366 721q-119 0 -191 -94t-72 -253t72.5 -255t190.5 -96t190 96t72 255t-72 253t-190 94z" />
    <glyph glyph-name="Pi" unicode="&#x3a0;" horiz-adv-x="710" 
d="M113 0v743h486v-743h-39v710h-409v-710h-38z" />
    <glyph glyph-name="Rho" unicode="&#x3a1;" horiz-adv-x="612" 
d="M113 0v743h179q132 0 199 -47.5t67 -154.5q0 -106 -67.5 -159.5t-194.5 -53.5h-145v-328h-38zM151 361h132q121 0 177.5 42.5t56.5 137.5t-56.5 132t-181.5 37h-128v-349z" />
    <glyph glyph-name="Sigma" unicode="&#x3a3;" horiz-adv-x="595" 
d="M54 0v23l276 356l-270 343v21h457v-33h-405l259 -331l-265 -345h447v-34h-499z" />
    <glyph glyph-name="Tau" unicode="&#x3a4;" horiz-adv-x="586" 
d="M273 0v710h-239v33h519v-33h-240v-710h-40z" />
    <glyph glyph-name="Upsilon" unicode="&#x3a5;" horiz-adv-x="493" 
d="M227 0v305l-223 438h41l118 -238l34 -69t48 -93h4q51 93 83 162l119 238h37l-223 -438v-305h-38z" />
    <glyph glyph-name="Phi" unicode="&#x3a6;" horiz-adv-x="775" 
d="M406 623v-502q125 1 199.5 71t74.5 182t-74 180t-200 69zM370 121v502q-127 -1 -201.5 -68.5t-74.5 -180.5q0 -112 75 -182t201 -71zM406 768v-112q145 -2 230 -77.5t85 -204.5t-85.5 -207t-229.5 -79v-113h-36v113q-143 2 -229.5 79.5t-86.5 206.5t86 204.5t230 77.5
v112h36z" />
    <glyph glyph-name="Chi" unicode="&#x3a7;" horiz-adv-x="531" 
d="M20 0l226 385l-210 358h42l128 -227l61 -100h4l57 100l130 227h39l-210 -360l225 -383h-41l-136 238q-15 27 -71 117h-4l-65 -117l-136 -238h-39z" />
    <glyph glyph-name="Psi" unicode="&#x3a8;" horiz-adv-x="741" 
d="M622 743h38v-182q0 -260 -271 -262v-299h-38v299q-270 3 -270 262v182h38v-182q0 -226 232 -229v411h38v-411q233 2 233 229v182z" />
    <glyph glyph-name="Omega" unicode="&#x3a9;" horiz-adv-x="736" 
d="M52 0v34h165v4q-151 147 -151 352q0 160 83 263.5t220 103.5q136 0 219 -103.5t83 -263.5q0 -207 -153 -352v-4h167v-34h-234v29q179 123 179 363q0 143 -70 236t-191 93t-192 -93t-71 -236q0 -129 50.5 -219t128.5 -144v-29h-233z" />
    <glyph glyph-name="alpha" unicode="&#x3b1;" horiz-adv-x="601" 
d="M261 -13q-91 0 -146 69t-55 199q0 136 68.5 217t166.5 81q61 0 111 -41t69 -127h2l28 155h36q-66 -343 -66 -459q0 -27 15.5 -44t38.5 -17q17 0 39 9l9 -31q-24 -11 -51 -11q-43 0 -67 33t-13 92h-3q-69 -125 -182 -125zM264 20q68 0 124 61.5t62 145.5l9 109
q-40 183 -165 183q-80 0 -137.5 -71.5t-57.5 -192.5q0 -108 44 -171.5t121 -63.5z" />
    <glyph glyph-name="beta" unicode="&#x3b2;" horiz-adv-x="606" 
d="M139 561v-443q77 -98 202 -98q72 0 121 53t49 140q0 86 -49.5 137.5t-143.5 51.5q-33 0 -64 -7l-9 34q96 22 145 82.5t49 127.5q0 74 -39 114.5t-97 40.5q-76 0 -120 -59.5t-44 -173.5zM102 -203v778q0 113 51 182t148 69q74 0 125 -49t51 -137q0 -128 -121 -203v-5
q93 -10 143.5 -68.5t50.5 -151.5q0 -99 -60.5 -162t-147.5 -63q-127 0 -205 90q2 -95 2 -280h-37z" />
    <glyph glyph-name="gamma" unicode="&#x3b3;" horiz-adv-x="501" 
d="M268 -203h-36q2 52 2 123q0 150 -69 332.5t-152 286.5l34 14q66 -88 126 -231.5t79 -272.5h5q51 97 82.5 162.5t62 158t37.5 170.5h38q-20 -133 -69.5 -254.5t-148.5 -287.5q9 -92 9 -201z" />
    <glyph glyph-name="delta" unicode="&#x3b4;" horiz-adv-x="584" 
d="M300 20q92 0 138.5 61.5t46.5 159.5q0 77 -38 132t-107 107q-110 -25 -171 -90.5t-61 -157.5q0 -93 57.5 -152.5t134.5 -59.5zM519 781l-12 -36q-131 49 -216 49q-60 0 -90 -22.5t-30 -55.5q0 -12 2 -23.5t9 -23l12 -20t18 -21.5l19.5 -19.5t24.5 -20.5l25 -19.5
t29.5 -22l29.5 -21.5q42 -31 68 -54t56 -58t44.5 -77t14.5 -92q0 -117 -59 -187t-164 -70q-90 0 -160 66.5t-70 175.5q0 103 66.5 175t174.5 98l-56 41.5t-45 37.5t-43 43.5t-23.5 41t-11.5 48.5q0 48 40.5 80t120.5 32q92 0 226 -45z" />
    <glyph glyph-name="epsilon" unicode="&#x3b5;" horiz-adv-x="485" 
d="M269 -13q-96 0 -152.5 43.5t-56.5 113.5q0 56 34 91.5t84 48.5v5q-42 17 -65 50.5t-23 75.5q0 66 52.5 102t132.5 36q88 0 165 -61l-18 -29q-73 56 -149 56q-63 0 -104 -27t-41 -79q0 -51 39.5 -81.5t121.5 -30.5q33 0 61 2v-38q-32 2 -78 2q-85 0 -129 -31.5t-44 -89.5
t47 -92t127 -34q50 0 88 15t81 51l21 -29q-46 -38 -90 -54t-104 -16z" />
    <glyph glyph-name="zeta" unicode="&#x3b6;" horiz-adv-x="441" 
d="M380 -205l-32 21q35 41 45.5 59.5t10.5 41.5q0 28 -26.5 42.5t-111.5 31.5q-98 19 -152 76t-54 179q0 70 33.5 153t85 155t107 131.5t104.5 96.5q-220 0 -296 -3v34h339v-34h-4q-117 -92 -223.5 -249t-106.5 -283q0 -110 50.5 -159.5t137.5 -64.5q83 -15 118.5 -36
t35.5 -67q0 -48 -61 -125z" />
    <glyph glyph-name="eta" unicode="&#x3b7;" horiz-adv-x="590" 
d="M494 -203h-37q2 181 2 545q0 91 -25.5 134t-82.5 43q-58 0 -103 -32.5t-104 -121.5v-365h-36v406q0 69 -6 134h36l6 -129h2q45 76 94.5 109t113.5 33q72 0 106 -50.5t34 -155.5v-550z" />
    <glyph glyph-name="theta" unicode="&#x3b8;" horiz-adv-x="564" 
d="M450 395h-335q1 -193 46.5 -284t121.5 -91t121 90.5t46 284.5zM115 429h335q-3 175 -48.5 270t-118.5 95t-119 -95t-49 -270zM283 826q98 0 151.5 -109t53.5 -307q0 -423 -205 -423q-206 0 -206 423q0 198 53.5 307t152.5 109z" />
    <glyph glyph-name="iota" unicode="&#x3b9;" horiz-adv-x="261" 
d="M170 -13q-62 0 -62 81v472h36q0 -56 -1 -152.5t-1.5 -176t-0.5 -151.5q0 -19 9 -29.5t23 -10.5q9 0 32 7l7 -31q-18 -9 -42 -9z" />
    <glyph glyph-name="kappa" unicode="&#x3ba;" horiz-adv-x="510" 
d="M513 0l-38 -7q-53 58 -114 148.5t-103 169.5q-39 -50 -80 -118q-33 -54 -37 -168v-25h-33v406q0 87 -10 134h37q9 -38 9 -121v-223h4q69 128 162.5 228.5t173.5 128.5l4 -37q-95 -38 -208 -176q99 -193 233 -340z" />
    <glyph glyph-name="lambda" unicode="&#x3bb;" horiz-adv-x="507" 
d="M57 -7l-37 7l237 559l-9 29q-36 111 -68 158.5t-85 47.5q-30 0 -62 -19l-15 34q34 17 80 17q65 0 104 -56t81 -182l214 -588h-37l-185 514h-4z" />
    <glyph glyph-name="mu" unicode="&#x3bc;" horiz-adv-x="606" 
d="M108 -203v743h36v-343q0 -177 125 -177q52 0 94 26t89 106v388h36q-2 -326 -2 -480q0 -40 32 -40q8 0 32 7l6 -31q-18 -9 -41 -9q-37 0 -50.5 26t-11.5 90h-2q-70 -116 -178 -116q-48 0 -79.5 15t-54.5 57q0 -170 5 -262h-36z" />
    <glyph glyph-name="nu" unicode="&#x3bd;" horiz-adv-x="490" 
d="M268 0h-41q-83 348 -214 539l34 14q64 -95 119.5 -238t84.5 -277h5q154 308 172 502h38q-34 -243 -198 -540z" />
    <glyph glyph-name="xi" unicode="&#x3be;" horiz-adv-x="452" 
d="M391 -205l-32 21q36 42 46.5 60t10.5 41q0 28 -28 43.5t-110 30.5q-101 19 -159.5 68.5t-58.5 150.5q0 84 52.5 146.5t127.5 82.5v4q-123 54 -123 173q0 118 104 166q-106 0 -178 -3v34h401v-34h-125q-66 0 -114.5 -44t-48.5 -119q0 -70 56 -117.5t116 -47.5q37 0 65 5
v-40q-25 4 -67 4q-89 0 -158 -56.5t-69 -152.5q0 -47 16 -82t46.5 -55.5t62.5 -32t74 -18.5q83 -15 118.5 -36t35.5 -67q0 -47 -61 -125z" />
    <glyph glyph-name="omicron" unicode="&#x3bf;" horiz-adv-x="586" 
d="M60 268q0 134 65.5 209.5t168.5 75.5t167.5 -75.5t64.5 -209.5q0 -132 -64.5 -206.5t-167.5 -74.5t-168.5 74.5t-65.5 206.5zM294 20q89 0 141 67t52 181q0 113 -52 182t-141 69t-142 -69t-53 -182q0 -114 52.5 -181t142.5 -67z" />
    <glyph glyph-name="pi" unicode="&#x3c0;" horiz-adv-x="617" 
d="M515 -13q-43 0 -63.5 22.5t-20.5 73.5q0 42 3 206t4 215h-244q0 -148 -34 -506l-38 2q38 261 38 504h-130v31l73 5h485v-36h-114q-9 -185 -9 -427q0 -57 52 -57q4 0 46 7l7 -31q-29 -9 -55 -9z" />
    <glyph glyph-name="rho" unicode="&#x3c1;" horiz-adv-x="602" 
d="M102 -203v493q0 124 64.5 193.5t158.5 69.5q106 0 161.5 -73.5t55.5 -201.5q0 -132 -66 -211.5t-155 -79.5q-109 0 -184 90q2 -109 2 -280h-37zM323 20q76 0 128.5 73t52.5 185q0 110 -44.5 175.5t-136.5 65.5q-77 0 -130.5 -62t-53.5 -183v-158q78 -96 184 -96z" />
    <glyph glyph-name="sigma" unicode="&#x3c3;" horiz-adv-x="590" 
d="M60 263q0 137 67 207t167 70h284v-36q-93 6 -184 6v-4q123 -70 123 -243q0 -128 -65 -202t-161 -74t-163.5 74.5t-67.5 201.5zM479 263q0 100 -50 171.5t-136 71.5q-85 0 -139.5 -63.5t-54.5 -179.5q0 -108 55 -175.5t137 -67.5t135 67t53 176z" />
    <glyph glyph-name="tau" unicode="&#x3c4;" horiz-adv-x="490" 
d="M305 -13q-43 0 -60.5 22t-17.5 74v423h-197v29l73 5h359v-34h-199q-2 -144 -2 -429q0 -30 11 -43.5t36 -13.5q18 0 47 9l7 -31q-24 -11 -57 -11z" />
    <glyph glyph-name="upsilon" unicode="&#x3c5;" horiz-adv-x="555" 
d="M271 -13q-84 0 -134.5 47.5t-50.5 152.5q0 37 2 110t2 109q0 72 -8 134h37q7 -39 7 -121q0 -38 -3.5 -119.5t-3.5 -111.5q0 -89 43 -128.5t111 -39.5q75 0 123.5 61t48.5 179q0 155 -52 281l37 12q54 -141 54 -294q0 -130 -61 -201t-152 -71z" />
    <glyph glyph-name="phi" unicode="&#x3c6;" horiz-adv-x="716" 
d="M376 519v-499q100 2 170.5 71t70.5 179q0 112 -68 179.5t-173 69.5zM340 20v499q-100 -2 -170.5 -70.5t-70.5 -178.5q0 -109 70.5 -178.5t170.5 -71.5zM376 697v-146q118 -2 199 -77t81 -204q0 -127 -82.5 -203t-197.5 -78v-192h-36v192q-114 2 -197 78t-83 203t83 203
t197 78v146h36z" />
    <glyph glyph-name="chi" unicode="&#x3c7;" horiz-adv-x="501" 
d="M46 -216l-35 13l221 385l-214 357l36 14l195 -335h4l173 322h40l-196 -358l235 -385l-34 -13l-218 364h-4z" />
    <glyph glyph-name="psi" unicode="&#x3c8;" horiz-adv-x="721" 
d="M560 541l36 12q29 -76 41 -134.5t12 -131.5q0 -139 -73 -217.5t-199 -82.5v-190h-37v190q-121 1 -186.5 66.5t-65.5 185.5v167q0 80 -6 134h37q5 -39 5 -121q0 -41 -1 -105t-1 -75q0 -103 56.5 -160.5t161.5 -58.5v677h37v-677q111 4 172.5 73t61.5 196q0 70 -11 124.5
t-40 127.5z" />
    <glyph glyph-name="omega" unicode="&#x3c9;" horiz-adv-x="749" 
d="M236 -13q-72 0 -120 64.5t-48 186.5q0 93 28.5 166t82.5 149l30 -22q-55 -72 -80.5 -138.5t-25.5 -159.5q0 -101 39 -157t96 -56q50 0 84 37.5t34 123.5q0 93 -5 147h45q-4 -54 -4 -147q0 -86 35 -123.5t85 -37.5q61 0 96.5 55t35.5 165q0 91 -23 154.5t-77 139.5l31 19
q55 -77 81.5 -147t26.5 -166q0 -126 -46 -189.5t-121 -63.5q-46 0 -83 24t-56 70h-4q-18 -45 -55 -69.5t-82 -24.5z" />
    <glyph glyph-name="afii10023" unicode="&#x401;" horiz-adv-x="575" 
d="M113 0v743h399v-33h-361v-296h303v-34h-303v-346h372v-34h-410zM209 820q-17 0 -27.5 9.5t-10.5 27.5q0 17 10.5 27t27.5 10q15 0 26 -10t11 -27t-11 -27t-26 -10zM426 820q-37 0 -37 37q0 17 10 27t27 10q16 0 26.5 -10t10.5 -27t-10.5 -27t-26.5 -10z" />
    <glyph glyph-name="afii10017" unicode="&#x410;" horiz-adv-x="587" 
d="M154 297h278l-51 148q-44 123 -85 260h-4q-36 -118 -86 -260zM536 0l-93 264h-301l-93 -264h-38l265 743h34l267 -743h-41z" />
    <glyph glyph-name="afii10018" unicode="&#x411;" horiz-adv-x="635" 
d="M113 0v743h422v-33h-384v-296h173q124 0 192.5 -48.5t68.5 -149.5q0 -106 -65 -161t-192 -55h-215zM151 34h163q118 0 175.5 43.5t57.5 136.5q0 86 -59 126t-179 40h-158v-346z" />
    <glyph glyph-name="afii10019" unicode="&#x412;" horiz-adv-x="647" 
d="M113 0v743h194q114 0 178.5 -45t64.5 -135q0 -60 -30.5 -102.5t-87.5 -59.5v-5q76 -12 120 -58.5t44 -121.5q0 -104 -73 -160t-202 -56h-208zM151 414h134q225 0 225 147q0 80 -53.5 115t-164.5 35h-141v-297zM151 34h156q120 0 185.5 44.5t65.5 135.5q0 166 -251 166
h-156v-346z" />
    <glyph glyph-name="afii10020" unicode="&#x413;" horiz-adv-x="541" 
d="M113 0v743h397v-33h-359v-710h-38z" />
    <glyph glyph-name="afii10021" unicode="&#x414;" horiz-adv-x="691" 
d="M536 710h-257q-12 -69 -32 -199t-35 -212q-40 -214 -86 -265h410v676zM574 34h77v-21l-7 -225h-32v212h-533v-212h-32l-6 225v21h34q54 24 101 274q29 160 72 435h326v-709z" />
    <glyph glyph-name="afii10022" unicode="&#x415;" horiz-adv-x="575" 
d="M113 0v743h399v-33h-361v-296h303v-34h-303v-346h372v-34h-410z" />
    <glyph glyph-name="afii10024" unicode="&#x416;" horiz-adv-x="851" 
d="M605 401l236 -401h-44l-222 380h-131v-380h-36v380h-130l-222 -380h-45l236 400l-91 203q-33 71 -57 92.5t-52 21.5q-10 0 -22 -5l-7 41q12 4 26 4q43 0 74 -28t71 -114l92 -201h127v329h36v-329h127l93 201q40 86 71 114t74 28q12 0 26 -4l-8 -41q-10 5 -22 5
q-29 0 -52 -21.5t-56 -92.5z" />
    <glyph glyph-name="afii10025" unicode="&#x417;" horiz-adv-x="616" 
d="M315 -13q-85 0 -145.5 26.5t-115.5 85.5l26 27q55 -57 107.5 -80t127.5 -23q89 0 150 48.5t61 132.5q0 88 -66 132t-185 44h-72v34h50q120 0 176 39.5t56 119.5q0 69 -50 108.5t-127 39.5q-56 0 -106.5 -21.5t-83.5 -56.5l-25 26q35 38 92.5 63t122.5 25q91 0 153 -49.5
t62 -133.5q0 -63 -32.5 -109.5t-90.5 -63.5v-5q74 -12 119 -61.5t45 -129.5q0 -99 -72 -158.5t-177 -59.5z" />
    <glyph glyph-name="afii10026" unicode="&#x418;" horiz-adv-x="721" 
d="M113 0v743h38v-478q0 -30 -5 -210h5l86 144l332 544h41v-743h-39v484q0 64 6 204h-5l-86 -143l-333 -545h-40z" />
    <glyph glyph-name="afii10027" unicode="&#x419;" horiz-adv-x="721" 
d="M113 0v743h38v-478q0 -30 -5 -210h5l86 144l332 544h41v-743h-39v484q0 64 6 204h-5l-86 -143l-333 -545h-40zM366 802q-135 0 -148 143h36q3 -50 29.5 -82.5t82.5 -32.5t82.5 33t28.5 82h36q-5 -60 -38.5 -101.5t-108.5 -41.5z" />
    <glyph glyph-name="afii10028" unicode="&#x41a;" horiz-adv-x="617" 
d="M346 398l264 -398h-45l-252 380h-162v-380h-38v743h38v-329h163l110 201q47 88 75.5 115t68.5 27q13 0 27 -4l-7 -41q-12 5 -23 5q-27 0 -48 -21t-60 -93z" />
    <glyph glyph-name="afii10029" unicode="&#x41b;" horiz-adv-x="686" 
d="M54 -13q-23 0 -45 9l11 38q15 -7 32 -7q34 0 58.5 42.5t49.5 173.5l90 500h324v-743h-38v710h-254q-15 -78 -42 -235t-42 -237q-27 -150 -58.5 -200.5t-85.5 -50.5z" />
    <glyph glyph-name="afii10030" unicode="&#x41c;" horiz-adv-x="788" 
d="M113 0v743h60l159 -448l61 -168h4l59 168l159 448h61v-743h-38v514q0 75 4 195h-4l-57 -164l-167 -462h-40l-168 462l-59 164h-4q5 -100 5 -195v-514h-35z" />
    <glyph glyph-name="afii10031" unicode="&#x41d;" horiz-adv-x="714" 
d="M113 0v743h38v-329h413v329h39v-743h-39v380h-413v-380h-38z" />
    <glyph glyph-name="afii10032" unicode="&#x41e;" horiz-adv-x="731" 
d="M63 374q0 173 84.5 278t218.5 105t218 -104.5t84 -278.5t-84.5 -280.5t-217.5 -106.5t-218 106.5t-85 280.5zM366 721q-119 0 -191 -94t-72 -253t72.5 -255t190.5 -96t190 96t72 255t-72 253t-190 94z" />
    <glyph glyph-name="afii10033" unicode="&#x41f;" horiz-adv-x="710" 
d="M113 0v743h486v-743h-39v710h-409v-710h-38z" />
    <glyph glyph-name="afii10034" unicode="&#x420;" horiz-adv-x="612" 
d="M113 0v743h179q132 0 199 -47.5t67 -154.5q0 -106 -67.5 -159.5t-194.5 -53.5h-145v-328h-38zM151 361h132q121 0 177.5 42.5t56.5 137.5t-56.5 132t-181.5 37h-128v-349z" />
    <glyph glyph-name="afii10035" unicode="&#x421;" horiz-adv-x="633" 
d="M371 -13q-138 0 -223 106t-85 281t86 279t228 104q115 0 189 -88l-23 -26q-68 78 -166 78q-127 0 -200.5 -93.5t-73.5 -253.5t73 -255.5t197 -95.5q107 0 192 94l24 -25q-89 -105 -218 -105z" />
    <glyph glyph-name="afii10036" unicode="&#x422;" horiz-adv-x="586" 
d="M273 0v710h-239v33h519v-33h-240v-710h-40z" />
    <glyph glyph-name="afii10037" unicode="&#x423;" horiz-adv-x="544" 
d="M134 -13q-33 0 -57 9l12 38q15 -7 40 -7q44 0 69.5 18.5t45.5 60.5l19 53l-254 584h40l179 -416l53 -123h4l47 123l166 416h41l-255 -633q-25 -62 -59.5 -92.5t-90.5 -30.5z" />
    <glyph glyph-name="afii10038" unicode="&#x424;" horiz-adv-x="797" 
d="M417 611v-478q138 1 211.5 65.5t73.5 175.5t-73 173.5t-212 63.5zM381 133v478q-139 -1 -213 -64t-74 -173t74.5 -175t212.5 -66zM417 757v-112q155 -1 240.5 -72.5t85.5 -198.5t-86 -200.5t-240 -74.5v-112h-36v112q-155 1 -241 74.5t-86 200.5t85.5 198.5t241.5 72.5
v112h36z" />
    <glyph glyph-name="afii10039" unicode="&#x425;" horiz-adv-x="531" 
d="M20 0l226 385l-210 358h42l128 -227l61 -100h4l57 100l130 227h39l-210 -360l225 -383h-41l-136 238q-15 27 -71 117h-4l-65 -117l-136 -238h-39z" />
    <glyph glyph-name="afii10040" unicode="&#x426;" horiz-adv-x="700" 
d="M584 34h75v-21l-6 -225h-31v212h-509v743h38v-709h393v709h40v-709z" />
    <glyph glyph-name="afii10041" unicode="&#x427;" horiz-adv-x="646" 
d="M496 0v357q-71 -13 -154 -13q-128 0 -194.5 51t-66.5 168v180h38v-180q0 -101 57 -142t170 -41q83 0 150 13v350h38v-743h-38z" />
    <glyph glyph-name="afii10042" unicode="&#x428;" horiz-adv-x="934" 
d="M113 0v743h38v-709h298v709h37v-709h298v709h39v-743h-710z" />
    <glyph glyph-name="afii10043" unicode="&#x429;" horiz-adv-x="940" 
d="M823 34h77v-21l-7 -225h-32v212h-748v743h38v-709h298v709h37v-709h298v709h39v-709z" />
    <glyph glyph-name="afii10044" unicode="&#x42a;" horiz-adv-x="802" 
d="M288 0v710h-254v33h293v-329h153q125 0 195.5 -49.5t70.5 -147.5q0 -106 -66 -161.5t-192 -55.5h-200zM327 34h148q118 0 176 44t58 137q0 165 -242 165h-140v-346z" />
    <glyph glyph-name="afii10045" unicode="&#x42b;" horiz-adv-x="851" 
d="M113 0v743h38v-329h147q125 0 193.5 -48.5t68.5 -148.5q0 -106 -66 -161.5t-191 -55.5h-190zM151 34h139q116 0 173.5 44t57.5 137q0 86 -58.5 125.5t-177.5 39.5h-134v-346zM701 0v743h38v-743h-38z" />
    <glyph glyph-name="afii10046" unicode="&#x42c;" horiz-adv-x="635" 
d="M113 0v743h38v-329h167q124 0 193 -48.5t69 -148.5q0 -106 -65.5 -161.5t-190.5 -55.5h-211zM151 34h158q118 0 175.5 44t57.5 137q0 86 -58.5 125.5t-178.5 39.5h-154v-346z" />
    <glyph glyph-name="afii10047" unicode="&#x42d;" horiz-adv-x="633" 
d="M91 643l-24 26q34 37 90 62.5t117 25.5q140 0 218.5 -100t78.5 -283q0 -181 -79.5 -284t-213.5 -103q-141 0 -233 105l24 25q88 -94 205 -94q121 0 189.5 93.5t68.5 263.5h-352v34h351q-7 145 -73.5 226t-183.5 81q-53 0 -101.5 -21.5t-81.5 -56.5z" />
    <glyph glyph-name="afii10048" unicode="&#x42e;" horiz-adv-x="986" 
d="M883 374q0 159 -67.5 253t-180.5 94q-114 0 -181.5 -94t-67.5 -253q0 -160 68 -255.5t181 -95.5t180.5 95.5t67.5 255.5zM151 414h198q9 157 87 250t199 93q128 0 208.5 -104.5t80.5 -278.5t-80.5 -280.5t-208.5 -106.5t-207.5 106t-79.5 281v6h-197v-380h-38v743h38
v-329z" />
    <glyph glyph-name="afii10049" unicode="&#x42f;" horiz-adv-x="625" 
d="M475 383v327h-154q-106 0 -159.5 -37t-53.5 -121q0 -169 213 -169h154zM307 743h206v-743h-38v350h-176l-220 -350h-45l221 353q-86 11 -136.5 61t-50.5 138q0 191 239 191z" />
    <glyph glyph-name="afii10065" unicode="&#x430;" horiz-adv-x="548" 
d="M223 -13q-68 0 -111.5 36.5t-43.5 109.5q0 89 83.5 136t268.5 68q6 182 -131 182q-95 0 -176 -65l-19 29q95 70 197 70q166 0 166 -204v-349h-31l-5 72h-3q-104 -85 -195 -85zM226 20q85 0 194 92v193q-171 -19 -243 -60t-72 -111q0 -59 33.5 -86.5t87.5 -27.5z" />
    <glyph glyph-name="afii10066" unicode="&#x431;" horiz-adv-x="598" 
d="M313 20q78 0 132 70.5t54 179.5q0 97 -49.5 160t-138.5 63q-109 0 -205 -121q-1 -17 -1 -55q0 -139 52.5 -218t155.5 -79zM504 823l8 -38q-33 -19 -98 -30q-49 -8 -75.5 -13.5t-63 -17t-55.5 -26t-42 -39t-34.5 -57.5t-21 -79.5t-13.5 -107.5q86 110 205 110
q103 0 163.5 -70t60.5 -185q0 -128 -66 -205.5t-159 -77.5q-116 0 -179.5 85.5t-63.5 245.5q0 84 8 150t21 112.5t37.5 81t48.5 56t63 36.5t72.5 23t85.5 16t98 30z" />
    <glyph glyph-name="afii10067" unicode="&#x432;" horiz-adv-x="555" 
d="M108 0v540h189q184 0 184 -133q0 -91 -89 -118v-4q48 -10 81 -42.5t33 -88.5q0 -76 -53 -115t-150 -39h-195zM144 301h134q164 0 164 103q0 102 -154 102h-144v-205zM144 33h148q176 0 176 122q0 55 -47.5 83.5t-137.5 28.5h-139v-234z" />
    <glyph glyph-name="afii10068" unicode="&#x433;" horiz-adv-x="444" 
d="M108 0v540h308v-34h-272v-506h-36z" />
    <glyph glyph-name="afii10069" unicode="&#x434;" horiz-adv-x="553" 
d="M196 506l-27 -227q-20 -185 -68 -245h312v472h-217zM449 34h72v-21l-5 -207h-32v194h-418v-194h-32l-4 207v21h19q19 10 32.5 29.5t28 73t25.5 144.5l32 259h282v-506z" />
    <glyph glyph-name="afii10070" unicode="&#x435;" horiz-adv-x="539" 
d="M307 -13q-105 0 -176 76.5t-71 204.5q0 127 69.5 206t163.5 79q95 0 149.5 -65t54.5 -184q0 -24 -2 -37h-396q0 -108 58 -177.5t152 -69.5q81 0 149 50l16 -32q-26 -16 -44.5 -25t-52 -17.5t-70.5 -8.5zM99 301h362q0 107 -45 162.5t-123 55.5q-75 0 -130.5 -59.5
t-63.5 -158.5z" />
    <glyph glyph-name="afii10072" unicode="&#x436;" horiz-adv-x="697" 
d="M508 289l170 -289h-42l-152 265h-118v-265h-34v265h-118l-154 -265h-40l168 288l-53 137q-21 53 -40.5 71t-44.5 18q-8 0 -15 -2l-10 37q10 4 23 4q72 0 119 -117l53 -138h112v242h34v-242h110l55 138q25 65 54 91t64 26q15 0 23 -4l-8 -37q-7 2 -17 2q-25 0 -44.5 -18
t-40.5 -71z" />
    <glyph glyph-name="afii10073" unicode="&#x437;" horiz-adv-x="496" 
d="M249 -13q-121 0 -200 71l22 26q71 -64 177 -64q68 0 114.5 34.5t46.5 91.5q0 59 -47 90t-134 31h-66v34h51q84 0 127.5 30t43.5 82t-37.5 79t-98.5 27q-52 0 -88 -13.5t-74 -42.5l-20 26q80 64 182 64q75 0 124.5 -36t49.5 -102q0 -84 -92 -126v-5q51 -12 84 -47.5
t33 -92.5q0 -68 -56.5 -112.5t-141.5 -44.5z" />
    <glyph glyph-name="afii10074" unicode="&#x438;" horiz-adv-x="620" 
d="M108 0v540h36v-285q0 -23 -5 -205h5q12 17 39 59t39 59l254 372h37v-540h-37v284q0 59 6 205h-5l-79 -117l-254 -372h-36z" />
    <glyph glyph-name="afii10075" unicode="&#x439;" horiz-adv-x="620" 
d="M439 810h35q-2 -29 -10.5 -55t-25.5 -52t-49.5 -41.5t-76.5 -15.5t-77 15.5t-50 41.5t-25.5 52t-11.5 55h36q2 -57 32 -95.5t96 -38.5q65 0 95 38.5t32 95.5zM108 0v540h36v-285q0 -23 -5 -205h5q12 17 39 59t39 59l254 372h37v-540h-37v284q0 59 6 205h-5l-79 -117
l-254 -372h-36z" />
    <glyph glyph-name="afii10076" unicode="&#x43a;" horiz-adv-x="520" 
d="M316 284l184 -284h-40l-171 265h-145v-265h-36v540h36v-242h144l57 138q28 68 55.5 92.5t62.5 24.5q15 0 23 -4l-9 -37q-6 2 -16 2q-25 0 -44 -17.5t-41 -71.5z" />
    <glyph glyph-name="afii10077" unicode="&#x43b;" horiz-adv-x="561" 
d="M52 -13q-20 0 -37 6l10 36q14 -4 22 -4q68 0 84 141l13.5 118l17 138t14.5 118h278v-540h-37v506h-212l-41 -346q-19 -173 -112 -173z" />
    <glyph glyph-name="afii10078" unicode="&#x43c;" horiz-adv-x="690" 
d="M108 0v540h43l136 -308l26 -63.5t30 -76.5h5q53 124 58 140l134 308h44v-540h-36v326q0 44 4 148h-4l-48 -108l-134 -312h-39l-137 312q-41 91 -47 108h-5q0 -9 3 -66.5t3 -81.5v-326h-36z" />
    <glyph glyph-name="afii10079" unicode="&#x43d;" horiz-adv-x="616" 
d="M108 0v540h36v-239h328v239h37v-540h-37v267h-328v-267h-36z" />
    <glyph glyph-name="afii10080" unicode="&#x43e;" horiz-adv-x="600" 
d="M60 268q0 131 69.5 208t170.5 77t170.5 -77t69.5 -208q0 -129 -69.5 -205t-170.5 -76t-170.5 76t-69.5 205zM502 268q0 110 -57.5 180.5t-144.5 70.5t-144 -70.5t-57 -180.5q0 -109 57 -178.5t144 -69.5t144.5 69.5t57.5 178.5z" />
    <glyph glyph-name="afii10081" unicode="&#x43f;" horiz-adv-x="605" 
d="M108 0v540h390v-540h-37v506h-317v-506h-36z" />
    <glyph glyph-name="afii10082" unicode="&#x440;" horiz-adv-x="609" 
d="M144 426v-333q87 -73 168 -73q86 0 142 72.5t56 185.5q0 110 -43.5 175.5t-137.5 65.5q-76 0 -185 -93zM108 -249v789h30l6 -70h2q105 83 186 83q107 0 162 -73t55 -202q0 -133 -69.5 -212t-170.5 -79q-76 0 -165 67v-303h-36z" />
    <glyph glyph-name="afii10083" unicode="&#x441;" horiz-adv-x="503" 
d="M302 -13q-106 0 -174 75.5t-68 205.5q0 131 70.5 208t172.5 77q86 0 158 -68l-24 -26q-64 60 -134 60q-87 0 -145.5 -70.5t-58.5 -180.5q0 -111 56 -179.5t148 -68.5q81 0 150 65l21 -27q-80 -71 -172 -71z" />
    <glyph glyph-name="afii10084" unicode="&#x442;" horiz-adv-x="490" 
d="M227 0v506h-197v34h432v-34h-199v-506h-36z" />
    <glyph glyph-name="afii10085" unicode="&#x443;" horiz-adv-x="479" 
d="M76 -250q-32 0 -52 11l9 34q20 -9 45 -9q90 0 143 152l16 50l-224 552h41l136 -353q15 -41 61 -151h5l51 151l121 353h38l-215 -616q-25 -74 -68 -124t-107 -50z" />
    <glyph glyph-name="afii10086" unicode="&#x444;" horiz-adv-x="788" 
d="M412 470v-401q55 -49 116 -49q71 0 116 72.5t45 185.5q0 110 -38.5 175.5t-120.5 65.5q-63 0 -118 -49zM376 71v399q-52 49 -116 49q-69 0 -115 -73t-46 -178q0 -112 44 -180t121 -68q58 0 112 51zM376 -249v283q-54 -47 -115 -47q-93 0 -147 73.5t-54 207.5
q0 128 57.5 206.5t143.5 78.5q50 0 115 -46v306h36v-307q60 47 122 47q96 0 144.5 -73t48.5 -202q0 -133 -57.5 -212t-142.5 -79q-52 0 -115 47v-283h-36z" />
    <glyph glyph-name="afii10087" unicode="&#x445;" horiz-adv-x="444" 
d="M15 0l186 282l-169 258h41l91 -144q10 -17 31 -47.5t28 -41.5h4q15 25 58 89l89 144h39l-169 -260l185 -280h-42l-100 155q-22 38 -65 99h-5q-10 -14 -20.5 -30.5l-23.5 -36.5t-20 -32l-98 -155h-40z" />
    <glyph glyph-name="afii10088" unicode="&#x446;" horiz-adv-x="589" 
d="M488 34h73v-21l-5 -207h-31v194h-417v540h36v-506h308v506h36v-506z" />
    <glyph glyph-name="afii10089" unicode="&#x447;" horiz-adv-x="544" 
d="M401 0v240q-79 -14 -115 -14q-107 0 -158 41t-51 130v143h36v-143q0 -73 43 -105t136 -32q50 0 109 13v267h36v-540h-36z" />
    <glyph glyph-name="afii10090" unicode="&#x448;" horiz-adv-x="798" 
d="M108 0v540h36v-506h237v506h36v-506h237v506h36v-540h-582z" />
    <glyph glyph-name="afii10091" unicode="&#x449;" horiz-adv-x="791" 
d="M690 34h73v-21l-5 -207h-32v194h-618v540h36v-506h237v506h36v-506h237v506h36v-506z" />
    <glyph glyph-name="afii10092" unicode="&#x44a;" horiz-adv-x="647" 
d="M243 0v506h-213v34h250v-222h115q96 0 149 -40.5t53 -116.5q0 -77 -53.5 -119t-148.5 -42h-152zM280 34h104q89 0 131.5 30.5t42.5 96.5q0 65 -42.5 95t-131.5 30h-104v-252z" />
    <glyph glyph-name="afii10093" unicode="&#x44b;" horiz-adv-x="703" 
d="M108 0v540h36v-222h105q96 0 149 -40.5t53 -116.5q0 -77 -53.5 -119t-148.5 -42h-141zM144 34h94q89 0 131.5 30.5t42.5 96.5q0 65 -42.5 95t-131.5 30h-94v-252zM560 0v540h36v-540h-36z" />
    <glyph glyph-name="afii10094" unicode="&#x44c;" horiz-adv-x="530" 
d="M108 0v540h36v-222h135q95 0 147.5 -40t52.5 -117q0 -78 -52.5 -119.5t-147.5 -41.5h-171zM144 34h123q89 0 131 30.5t42 96.5q0 65 -42 95t-131 30h-123v-252z" />
    <glyph glyph-name="afii10095" unicode="&#x44d;" horiz-adv-x="503" 
d="M67 459l-24 26q72 68 171 68t163.5 -73t64.5 -212q0 -137 -65.5 -209t-173.5 -72q-98 0 -173 71l20 26q67 -64 153 -64q93 0 147 65t54 182h-276v34h275q-7 103 -59.5 160.5t-131.5 57.5q-81 0 -145 -60z" />
    <glyph glyph-name="afii10096" unicode="&#x44e;" horiz-adv-x="799" 
d="M515 20q82 0 133.5 69t51.5 179q0 111 -51.5 181t-133.5 70q-84 0 -136.5 -70t-52.5 -181q0 -110 52.5 -179t136.5 -69zM144 296h147q7 120 69.5 188.5t155.5 68.5q96 0 159 -76.5t63 -208.5q0 -130 -63 -205.5t-159 -75.5q-98 0 -161.5 74t-64.5 201h-146v-262h-36v540
h36v-244z" />
    <glyph glyph-name="afii10097" unicode="&#x44f;" horiz-adv-x="553" 
d="M410 275v231h-112q-174 0 -174 -112q0 -59 46 -89t128 -30h112zM286 540h159v-540h-35v243h-131l-185 -243h-43l188 245q-69 9 -111 46t-42 103q0 146 200 146z" />
    <glyph glyph-name="afii10071" unicode="&#x451;" horiz-adv-x="539" 
d="M307 -13q-105 0 -176 76.5t-71 204.5q0 127 69.5 206t163.5 79q95 0 149.5 -65t54.5 -184q0 -24 -2 -37h-396q0 -108 58 -177.5t152 -69.5q81 0 149 50l16 -32q-26 -16 -44.5 -25t-52 -17.5t-70.5 -8.5zM99 301h362q0 107 -45 162.5t-123 55.5q-75 0 -130.5 -59.5
t-63.5 -158.5zM222 689q-11 -11 -26 -11t-26 11t-11 26t11 26t26 11t26 -11t11 -26t-11 -26zM391 678q-16 0 -27 11t-11 26t11 26t27 11q14 0 25.5 -11t11.5 -26t-11.5 -26t-25.5 -11z" />
    <glyph glyph-name="uni2010" unicode="&#x2010;" 
d="M384 408h256v-37h-256v37z" />
    <glyph glyph-name="afii00208" unicode="&#x2015;" 
d="M72 408h880v-37h-880v37z" />
    <glyph glyph-name="quoteleft" unicode="&#x2018;" horiz-adv-x="236" 
d="M155 796l18 -22q-38 -33 -55 -63.5t-18 -74.5q3 1 10 1q15 0 26.5 -9.5t11.5 -28.5q0 -39 -38 -39q-44 0 -44 68q0 105 89 168z" />
    <glyph glyph-name="quoteright" unicode="&#x2019;" horiz-adv-x="236" 
d="M82 553l-19 21q38 33 55 64t18 76q-3 -1 -9 -1q-15 0 -27 9.5t-12 27.5q0 38 39 38q44 0 44 -66q0 -104 -89 -169z" />
    <glyph glyph-name="quotedblleft" unicode="&#x201c;" horiz-adv-x="382" 
d="M155 796l18 -22q-38 -33 -55 -63.5t-18 -74.5q3 1 10 1q15 0 26.5 -9.5t11.5 -28.5q0 -39 -38 -39q-44 0 -44 68q0 105 89 168zM301 796l18 -22q-37 -33 -54 -63.5t-18 -74.5q3 1 9 1q15 0 27 -9.5t12 -28.5q0 -39 -39 -39q-20 0 -32 18t-12 50q0 104 89 168z" />
    <glyph glyph-name="quotedblright" unicode="&#x201d;" horiz-adv-x="382" 
d="M82 553l-19 21q38 33 55 64t18 76q-3 -1 -9 -1q-15 0 -27 9.5t-12 27.5q0 38 39 38q44 0 44 -66q0 -104 -89 -169zM228 553l-18 21q38 33 55 64t18 76q-3 -1 -10 -1q-15 0 -27 9.5t-12 27.5q0 38 39 38q44 0 44 -66q0 -104 -89 -169z" />
    <glyph glyph-name="dagger" unicode="&#x2020;" 
d="M531 774l-4 -258l221 2v-37l-221 2l4 -540h-38l4 540l-221 -2v37l221 -2l-4 258h38z" />
    <glyph glyph-name="daggerdbl" unicode="&#x2021;" 
d="M531 774l-4 -248l221 2v-36l-221 2l1 -274l220 2v-37l-221 2l4 -244h-38l4 244l-221 -2v37l221 -2v274l-221 -2v36l221 -2l-4 248h38z" />
    <glyph glyph-name="twodotenleader" unicode="&#x2025;" 
d="M220 353q-15 14 -15 36t14.5 36.5t36.5 14.5t36.5 -14.5t14.5 -36.5t-14.5 -36.5t-36.5 -14.5t-36 15zM732 353q-15 14 -15 36t14.5 36.5t36.5 14.5t36.5 -14.5t14.5 -36.5t-14.5 -36.5t-36.5 -14.5t-36 15z" />
    <glyph glyph-name="ellipsis" unicode="&#x2026;" 
d="M135 353q-15 14 -15 36t14.5 36.5t36.5 14.5t36.5 -14.5t14.5 -36.5t-14.5 -36.5t-36.5 -14.5t-36 15zM476 353q-15 14 -15 36t14.5 36.5t36.5 14.5t36.5 -14.5t14.5 -36.5t-14.5 -36.5t-36.5 -14.5t-36 15zM817 353q-15 14 -15 36t14.5 36.5t36.5 14.5t36.5 -14.5
t14.5 -36.5t-14.5 -36.5t-36.5 -14.5t-36 15z" />
    <glyph glyph-name="perthousand" unicode="&#x2030;" 
d="M138 -19l388 783h37l-388 -783h-37zM39 532q0 114 39 169.5t92 54.5q52 0 91.5 -55.5t39.5 -170.5q0 -109 -38 -165t-94 -56q-52 0 -91 55.5t-39 167.5zM168 725q-28 0 -48 -21.5t-29 -55t-12.5 -62t-3.5 -55.5q0 -28 4 -56.5t13 -61t29 -53t48 -20.5q29 0 49.5 20.5
t29.5 53.5t13 61.5t4 55.5t-4 56.5t-13.5 62.5t-30 54t-49.5 21zM400 211q0 114 39 169t92 54q52 0 92 -55t40 -170q0 -109 -38.5 -165t-94.5 -56q-52 0 -91 55.5t-39 167.5zM723 211q0 114 39 169t92 54q52 0 91.5 -55t39.5 -170q0 -109 -38 -165t-94 -56q-52 0 -91 55.5
t-39 167.5zM529 403q-28 0 -48 -21t-29 -54.5t-12.5 -62t-3.5 -55.5q0 -28 4 -56.5t13 -61.5t29 -53.5t48 -20.5q29 0 49.5 21t30 54t13.5 61.5t4 55.5t-4 56.5t-14 62.5t-30.5 53.5t-49.5 20.5zM852 403q-28 0 -48 -21t-29 -54.5t-12.5 -62t-3.5 -55.5q0 -28 3.5 -55.5
t12 -61t29 -54.5t49.5 -21t49.5 21t29.5 54t13 61.5t4 55.5t-4 56t-13 62t-30 54t-50 21z" />
    <glyph glyph-name="minute" unicode="&#x2032;" horiz-adv-x="236" 
d="M92 561l28 220l33 -2l-9 -70l-27 -150z" />
    <glyph glyph-name="second" unicode="&#x2033;" horiz-adv-x="382" 
d="M92 561l28 220l33 -2l-9 -70l-27 -150zM239 561l26 220l35 -2l-9 -70l-28 -150z" />
    <glyph glyph-name="uni203B" unicode="&#x203b;" horiz-adv-x="895" 
d="M732 441q21 0 35 -14t14 -35q0 -20 -12.5 -34.5t-36.5 -14.5q-17 0 -31.5 14.5t-14.5 34.5q0 21 14.5 35t31.5 14zM154 343q-21 0 -33.5 14.5t-12.5 34.5q0 21 14 35t32 14q20 0 34.5 -14t14.5 -35q0 -20 -14.5 -34.5t-34.5 -14.5zM435 629q-20 0 -33 14t-13 35
q0 17 13 31.5t33 14.5q21 0 35 -14.5t14 -31.5q0 -21 -14 -35t-35 -14zM466 392l304 -312l-22 -23l-306 313l-301 -313l-22 23l305 312l-301 317l22 22l301 -312l306 316l22 -23zM435 148q21 0 35 -14t14 -35q0 -20 -14 -33t-35 -13q-20 0 -33 13t-13 33q0 21 13 35t33 14z
" />
    <glyph glyph-name="uni2103" unicode="&#x2103;" 
d="M194 505q-51 0 -88.5 35.5t-37.5 93.5q0 60 37 95.5t89 35.5q50 0 87 -35.5t37 -95.5q0 -58 -37 -93.5t-87 -35.5zM194 537q39 0 65 27.5t26 69.5q0 43 -26 71t-65 28q-40 0 -66 -27.5t-26 -71.5q0 -42 26 -69.5t66 -27.5zM742 -13q-138 0 -222.5 105t-84.5 279
q0 175 85.5 278t227.5 103q113 0 191 -88l-27 -28q-68 76 -163 76q-125 0 -196.5 -92t-71.5 -249t70.5 -250t192.5 -93q108 0 189 91l26 -28q-88 -104 -217 -104z" />
    <glyph glyph-name="arrowleft" unicode="&#x2190;" 
d="M983 371h-856q121 -92 198 -194l-31 -21q-51 66 -120 128t-138 105q150 94 258 234l31 -22q-75 -100 -198 -193h856v-37z" />
    <glyph glyph-name="arrowup" unicode="&#x2191;" 
d="M494 -82v856q-90 -119 -194 -197l-21 30q66 51 128 120t105 138q43 -69 105 -138t128 -120l-21 -30q-104 78 -194 197v-856h-36z" />
    <glyph glyph-name="arrowright" unicode="&#x2192;" 
d="M41 371v37h856q-123 93 -198 193l31 22q108 -140 258 -234q-69 -43 -138 -105t-120 -128l-31 21q77 102 198 194h-856z" />
    <glyph glyph-name="arrowdown" unicode="&#x2193;" 
d="M530 860v-856q92 121 194 198l21 -31q-66 -51 -128 -120t-105 -138q-43 69 -105 138t-128 120l21 31q102 -77 194 -198v856h36z" />
    <glyph glyph-name="arrowdblright" unicode="&#x21d2;" 
d="M41 256h747q76 76 145 125q-69 49 -145 125h-747v37h713q-67 73 -112 143l31 20q58 -89 147 -179.5t176 -145.5q-87 -55 -176 -145.5t-147 -179.5l-31 20q45 70 112 143h-713v37z" />
    <glyph glyph-name="arrowdblboth" unicode="&#x21d4;" 
d="M351 706l31 -20q-45 -70 -112 -143h484q-67 73 -112 143l31 20q58 -89 147 -179.5t176 -145.5q-87 -55 -176 -145.5t-147 -179.5l-31 20q45 70 112 143h-484q67 -73 112 -143l-31 -20q-58 89 -147 179.5t-176 145.5q87 55 176 145.5t147 179.5zM788 506h-552
q-76 -76 -145 -125q69 -49 145 -125h552q76 76 145 125q-69 49 -145 125z" />
    <glyph glyph-name="universal" unicode="&#x2200;" 
d="M873 775l33 -16l-392 -773h-4l-392 773l33 16l148 -293h426zM317 445l194 -384h2l194 384h-390z" />
    <glyph glyph-name="partialdiff" unicode="&#x2202;" 
d="M743 511q0 116 -47 174t-129 58q-57 0 -102 -31t-72 -71l-26 21q28 42 80.5 77.5t116.5 35.5q100 0 156 -66.5t56 -188.5q0 -140 -43.5 -262t-121.5 -196.5t-172 -74.5q-90 0 -141.5 59.5t-51.5 150.5q0 111 76.5 192.5t169.5 81.5q91 0 145.5 -46t75.5 -115h2
q28 104 28 201zM279 191q0 -77 43.5 -125t120.5 -48q71 2 137 59t109 169q0 81 -56.5 137.5t-138.5 56.5q-83 0 -149 -75.5t-66 -173.5z" />
    <glyph glyph-name="existential" unicode="&#x2203;" 
d="M206 749h603v-736h-603v37h566v312h-566v37h566v313h-566v37z" />
    <glyph glyph-name="gradient" unicode="&#x2207;" 
d="M496 -20l-329 720v23h688v-23l-328 -720h-31zM625 283l183 406h-594l183 -406l113 -253h5z" />
    <glyph glyph-name="element" unicode="&#x2208;" 
d="M893 675h-416q-128 0 -214.5 -79t-93.5 -197h724v-37h-724q7 -118 93.5 -196.5t214.5 -78.5h416v-37h-416q-148 0 -247 95.5t-99 235.5t99 235.5t247 95.5h416v-37z" />
    <glyph glyph-name="suchthat" unicode="&#x220b;" 
d="M547 675h-416v37h416q148 0 247 -95.5t99 -235.5t-99 -235.5t-247 -95.5h-416v37h416q128 0 214.5 78.5t93.5 196.5h-724v37h724q-7 118 -93.5 197t-214.5 79z" />
    <glyph glyph-name="radical" unicode="&#x221a;" 
d="M581 901h443v-37h-418l-328 -946h-30l-109 289l-72 -105l-26 18l131 185l104 -277z" />
    <glyph glyph-name="proportional" unicode="&#x221d;" 
d="M534 381q109 -158 245 -158q42 0 75 9l13 -34q-42 -12 -88 -12q-155 0 -267 163q-114 -163 -268 -163q-79 0 -141 52t-62 143t62 142.5t141 51.5q154 0 268 -162q112 162 267 162q49 0 88 -11l-13 -35q-37 10 -75 10q-136 0 -245 -158zM244 223q136 0 245 158
q-109 158 -245 158q-66 0 -116 -42.5t-50 -115.5t50 -115.5t116 -42.5z" />
    <glyph glyph-name="infinity" unicode="&#x221e;" 
d="M512 413q112 162 267 162q79 0 141 -51.5t62 -142.5t-62 -143t-141 -52q-155 0 -267 163q-114 -163 -268 -163q-79 0 -141 52t-62 143t62 142.5t141 51.5q154 0 268 -162zM244 223q136 0 245 158q-109 158 -245 158q-66 0 -116 -42.5t-50 -115.5t50 -115.5t116 -42.5z
M534 381q109 -158 245 -158q66 0 116 42.5t50 115.5t-50 115.5t-116 42.5q-136 0 -245 -158z" />
    <glyph glyph-name="angle" unicode="&#x2220;" 
d="M197 66v-4h696v-36h-783v4l686 685l25 -26z" />
    <glyph glyph-name="uni2225" unicode="&#x2225;" 
d="M225 105l341 681l33 -16l-340 -681zM458 -10l-33 16l340 681l34 -16z" />
    <glyph glyph-name="logicaland" unicode="&#x2227;" 
d="M118 8l392 773h4l392 -773l-33 -16l-360 714h-2l-360 -714z" />
    <glyph glyph-name="logicalor" unicode="&#x2228;" 
d="M906 754l-392 -773h-4l-392 773l33 16l360 -714h2l360 714z" />
    <glyph glyph-name="intersection" unicode="&#x2229;" 
d="M181 0v416q0 148 95.5 247t235.5 99t235.5 -99t95.5 -247v-416h-37v416q0 133 -84.5 221t-209.5 88t-209.5 -88t-84.5 -221v-416h-37z" />
    <glyph glyph-name="union" unicode="&#x222a;" 
d="M843 762v-416q0 -148 -95.5 -247t-235.5 -99t-235.5 99t-95.5 247v416h37v-416q0 -133 84.5 -221t209.5 -88t209.5 88t84.5 221v416h37z" />
    <glyph glyph-name="integral" unicode="&#x222b;" 
d="M494 146v483q0 231 166 231q17 0 29 -3l-3 -31q-10 3 -26 3q-18 0 -32 -2t-33.5 -13.5t-32.5 -31t-22.5 -58t-9.5 -92.5v-482q0 -232 -166 -232q-17 0 -29 3l3 31q10 -3 26 -3q18 0 32 2t33.5 13.5t32.5 31t22.5 58t9.5 92.5z" />
    <glyph glyph-name="uni222C" unicode="&#x222c;" 
d="M299 146v483q0 231 167 231q17 0 29 -3l-3 -31q-10 3 -26 3q-18 0 -32 -2t-33.5 -13.5t-32.5 -31t-22.5 -58t-9.5 -92.5v-482q0 -232 -167 -232q-17 0 -29 3l3 31q11 -3 26 -3q18 0 32 2t33.5 13.5t32.5 31t22.5 58t9.5 92.5zM688 146v483q0 231 167 231q17 0 29 -3
l-3 -31q-11 3 -26 3q-18 0 -32 -2t-33.5 -13.5t-32.5 -31t-22.5 -58t-9.5 -92.5v-482q0 -232 -167 -232q-17 0 -29 3l3 31q10 -3 26 -3q18 0 32 2t33.5 13.5t32.5 31t22.5 58t9.5 92.5z" />
    <glyph glyph-name="therefore" unicode="&#x2234;" 
d="M470 592q-17 17 -17 42t17 42t42 17t42 -17t17 -42t-17 -42.5t-42 -17.5t-42 18zM179 86q-17 17 -17 42t17 42t42 17t42.5 -17t17.5 -42t-17.5 -42t-42.5 -17t-42 17zM762 86q-18 17 -18 42t17.5 42t42.5 17t42 -17t17 -42t-17 -42t-42 -17t-42 17z" />
    <glyph glyph-name="uni2235" unicode="&#x2235;" 
d="M179 592q-17 17 -17 42t17 42t42 17t42.5 -17t17.5 -42t-17.5 -42.5t-42.5 -17.5t-42 18zM762 592q-18 17 -18 42t17.5 42t42.5 17t42 -17t17 -42t-17 -42.5t-42 -17.5t-42 18zM470 86q-17 17 -17 42t17 42t42 17t42 -17t17 -42t-17 -42t-42 -17t-42 17z" />
    <glyph glyph-name="uni223D" unicode="&#x223d;" 
d="M499 394q117 181 280 181q79 0 141 -51.5t62 -142.5t-62 -143t-141 -52q-46 0 -88 12l14 34q33 -9 74 -9q66 0 116 42.5t50 115.5t-50 115.5t-116 42.5q-142 0 -255 -171q-118 -182 -280 -182q-79 0 -141 52t-62 143t62 142.5t141 51.5q50 0 88 -11l-14 -35
q-37 10 -74 10q-66 0 -116 -42.5t-50 -115.5t50 -115.5t116 -42.5q142 0 255 171z" />
    <glyph glyph-name="uni2252" unicode="&#x2252;" 
d="M280 635q-18 17 -18 42t17.5 42t42.5 17t42 -17t17 -42t-17 -42.5t-42 -17.5t-42 18zM131 505h762v-37h-762v37zM131 294h762v-37h-762v37zM660 43q-17 17 -17 42t17 42t42 17t42.5 -17t17.5 -42t-17.5 -42t-42.5 -17t-42 17z" />
    <glyph glyph-name="notequal" unicode="&#x2260;" 
d="M893 460h-333l-59 -165h392v-37h-406l-88 -242l-34 14l82 228h-316v37h330l60 165h-390v37h404l90 248l34 -13l-86 -235h320v-37z" />
    <glyph glyph-name="equivalence" unicode="&#x2261;" 
d="M131 618h762v-36h-762v36zM131 399h762v-37h-762v37zM131 180h762v-37h-762v37z" />
    <glyph glyph-name="uni2266" unicode="&#x2266;" 
d="M885 860l13 -35l-689 -268v-4l689 -269l-13 -34l-775 303v4zM131 147h762v-36h-762v36zM131 -4h762v-37h-762v37z" />
    <glyph glyph-name="uni2267" unicode="&#x2267;" 
d="M139 860l775 -303v-4l-775 -303l-13 34l689 269v4l-689 268zM131 147h762v-36h-762v36zM131 -4h762v-37h-762v37z" />
    <glyph glyph-name="uni226A" unicode="&#x226a;" 
d="M643 775l21 -30l-522 -362v-4l522 -363l-21 -29l-564 392v4zM923 775l21 -30l-522 -362v-4l522 -363l-21 -29l-565 392v4z" />
    <glyph glyph-name="uni226B" unicode="&#x226b;" 
d="M101 775l565 -392v-4l-565 -392l-21 29l522 363v4l-522 362zM381 775l564 -392v-4l-564 -392l-21 29l522 363v4l-522 362z" />
    <glyph glyph-name="propersubset" unicode="&#x2282;" 
d="M893 50h-416q-148 0 -247 95.5t-99 235.5t99 235.5t247 95.5h416v-37h-416q-133 0 -221 -84.5t-88 -209.5t88 -209.5t221 -84.5h416v-37z" />
    <glyph glyph-name="propersuperset" unicode="&#x2283;" 
d="M131 712h416q148 0 247 -95.5t99 -235.5t-99 -235.5t-247 -95.5h-416v37h416q133 0 221 84.5t88 209.5t-88 209.5t-221 84.5h-416v37z" />
    <glyph glyph-name="reflexsubset" unicode="&#x2286;" 
d="M893 738h-471q-123 0 -188.5 -66t-65.5 -158t65.5 -158t188.5 -66h471v-37h-472q-138 0 -214 76.5t-76 184.5t76 184.5t214 76.5h472v-37zM131 24h762v-37h-762v37z" />
    <glyph glyph-name="reflexsuperset" unicode="&#x2287;" 
d="M131 290h472q122 0 187.5 66t65.5 158t-65.5 158t-187.5 66h-472v37h472q138 0 214 -76.5t76 -184.5t-76 -184.5t-214 -76.5h-472v37zM131 24h762v-37h-762v37z" />
    <glyph glyph-name="perpendicular" unicode="&#x22a5;" 
d="M530 80h376v-37h-788v37h376v680h36v-680z" />
    <glyph glyph-name="uni2312" unicode="&#x2312;" 
d="M49 628l-19 25q214 206 482 206t482 -206l-19 -25q-199 198 -463 198t-463 -198z" />
    <glyph glyph-name="SF100000" unicode="&#x2500;" 
d="M0 369v41h1024v-41h-1024z" />
    <glyph glyph-name="uni2501" unicode="&#x2501;" 
d="M0 328v123h1024v-123h-1024z" />
    <glyph glyph-name="SF110000" unicode="&#x2502;" 
d="M492 -123v1024h40v-1024h-40z" />
    <glyph glyph-name="uni2503" unicode="&#x2503;" 
d="M451 -123v1024h122v-1024h-122z" />
    <glyph glyph-name="SF010000" unicode="&#x250c;" 
d="M1024 369h-492v-492h-40v533h532v-41z" />
    <glyph glyph-name="uni250F" unicode="&#x250f;" 
d="M1024 328h-451v-451h-122v574h573v-123z" />
    <glyph glyph-name="SF030000" unicode="&#x2510;" 
d="M532 -123h-40v492h-492v41h532v-533z" />
    <glyph glyph-name="uni2513" unicode="&#x2513;" 
d="M573 -123h-122v451h-451v123h573v-574z" />
    <glyph glyph-name="SF020000" unicode="&#x2514;" 
d="M1024 369h-532v532h40v-491h492v-41z" />
    <glyph glyph-name="uni2517" unicode="&#x2517;" 
d="M451 328v573h122v-450h451v-123h-573z" />
    <glyph glyph-name="SF040000" unicode="&#x2518;" 
d="M532 369h-532v41h492v491h40v-532z" />
    <glyph glyph-name="uni251B" unicode="&#x251b;" 
d="M0 328v123h451v450h122v-573h-573z" />
    <glyph glyph-name="SF080000" unicode="&#x251c;" 
d="M1024 369h-492v-492h-40v1024h40v-491h492v-41z" />
    <glyph glyph-name="uni251D" unicode="&#x251d;" 
d="M1024 328h-492v-451h-40v1024h40v-450h492v-123z" />
    <glyph glyph-name="uni2520" unicode="&#x2520;" 
d="M1024 369h-451v-492h-122v1024h122v-491h451v-41z" />
    <glyph glyph-name="uni2523" unicode="&#x2523;" 
d="M1024 328h-451v-451h-122v1024h122v-450h451v-123z" />
    <glyph glyph-name="SF090000" unicode="&#x2524;" 
d="M532 -123h-40v492h-492v41h492v491h40v-1024z" />
    <glyph glyph-name="uni2525" unicode="&#x2525;" 
d="M532 -123h-40v451h-492v123h492v450h40v-1024z" />
    <glyph glyph-name="uni2528" unicode="&#x2528;" 
d="M573 -123h-122v492h-451v41h451v491h122v-1024z" />
    <glyph glyph-name="uni252B" unicode="&#x252b;" 
d="M573 -123h-122v451h-451v123h451v450h122v-1024z" />
    <glyph glyph-name="SF060000" unicode="&#x252c;" 
d="M1024 369h-492v-492h-40v492h-492v41h1024v-41z" />
    <glyph glyph-name="uni252F" unicode="&#x252f;" 
d="M1024 328h-492v-451h-40v451h-492v123h1024v-123z" />
    <glyph glyph-name="uni2530" unicode="&#x2530;" 
d="M1024 369h-451v-492h-122v492h-451v41h1024v-41z" />
    <glyph glyph-name="uni2533" unicode="&#x2533;" 
d="M1024 328h-451v-451h-122v451h-451v123h1024v-123z" />
    <glyph glyph-name="SF070000" unicode="&#x2534;" 
d="M1024 369h-1024v41h492v491h40v-491h492v-41z" />
    <glyph glyph-name="uni2537" unicode="&#x2537;" 
d="M1024 328h-1024v123h492v450h40v-450h492v-123z" />
    <glyph glyph-name="uni2538" unicode="&#x2538;" 
d="M1024 369h-1024v41h451v491h122v-491h451v-41z" />
    <glyph glyph-name="uni253B" unicode="&#x253b;" 
d="M1024 328h-1024v123h451v450h122v-450h451v-123z" />
    <glyph glyph-name="SF050000" unicode="&#x253c;" 
d="M1024 369h-492v-492h-40v492h-492v41h492v491h40v-491h492v-41z" />
    <glyph glyph-name="uni253F" unicode="&#x253f;" 
d="M1024 328h-492v-451h-40v451h-492v123h492v450h40v-450h492v-123z" />
    <glyph glyph-name="uni2542" unicode="&#x2542;" 
d="M1024 369h-451v-492h-122v492h-451v41h451v491h122v-491h451v-41z" />
    <glyph glyph-name="uni254B" unicode="&#x254b;" 
d="M1024 328h-451v-451h-122v451h-451v123h451v450h122v-450h451v-123z" />
    <glyph glyph-name="filledbox" unicode="&#x25a0;" 
d="M102 799h820v-819h-820v819z" />
    <glyph glyph-name="H22073" unicode="&#x25a1;" 
d="M102 799h820v-819h-820v819zM133 768v-758h758v758h-758z" />
    <glyph glyph-name="triagup" unicode="&#x25b2;" 
d="M512 846l481 -834h-962z" />
    <glyph glyph-name="uni25B3" unicode="&#x25b3;" 
d="M512 846l481 -834h-962zM512 784l-428 -741h856z" />
    <glyph glyph-name="triagdn" unicode="&#x25bc;" 
d="M31 766h962l-481 -834z" />
    <glyph glyph-name="uni25BD" unicode="&#x25bd;" 
d="M31 766h962l-481 -834zM940 735h-856l428 -741z" />
    <glyph glyph-name="uni25C6" unicode="&#x25c6;" 
d="M512 889l500 -500l-500 -500l-500 500z" />
    <glyph glyph-name="uni25C7" unicode="&#x25c7;" 
d="M512 889l500 -500l-500 -500l-500 500zM512 845l-456 -456l456 -456l456 456z" />
    <glyph glyph-name="circle" unicode="&#x25cb;" 
d="M838 63q-135 -135 -326 -135t-326 135t-135 326t135 326t326 135t326 -135t135 -326t-135 -326zM208 694q-126 -126 -126 -305t126 -304.5t304 -125.5t304 125.5t126 304.5t-126 304.5t-304 125.5t-304 -125z" />
    <glyph glyph-name="uni25CE" unicode="&#x25ce;" 
d="M186 63q-135 135 -135 326t135 326t326 135t326 -135t135 -326t-135 -326t-326 -135t-326 135zM816 85q126 125 126 304t-126 304.5t-304 125.5t-304 -125.5t-126 -304.5t126 -304.5t304 -125.5t304 126zM296 173q-89 89 -89 216t89 216t216 89t216 -89t89 -216t-89 -216
t-216 -89t-216 89zM710 192q82 81 82 197t-82 198t-198 82t-198 -82t-82 -198t82 -197.5t198 -81.5t198 82z" />
    <glyph glyph-name="H18533" unicode="&#x25cf;" 
d="M838 63q-135 -135 -326 -135t-326 135t-135 326t135 326t326 135t326 -135t135 -326t-135 -326z" />
    <glyph glyph-name="uni25EF" unicode="&#x25ef;" 
d="M179 722q138 138 333 138t333 -138t138 -333t-138 -333t-333 -138t-333 138t-138 333t138 333zM826 75q130 129 130 314t-130 315t-314 130t-314 -130t-130 -315t130 -314.5t314 -129.5t314 130z" />
    <glyph glyph-name="uni2605" unicode="&#x2605;" 
d="M626 496h359v-2l-291 -211l114 -346h-2l-294 213l-294 -213h-2l114 346l-291 211v2h359l113 345h2z" />
    <glyph glyph-name="uni2606" unicode="&#x2606;" 
d="M398 496l110 345h8l110 -345h359v-9l-291 -204l116 -343l-6 -6l-292 216l-292 -216l-6 6l116 343l-291 204v9h359zM421 465h-223l-83 4v-2l75 -49l177 -123l-65 -192l-36 -97l2 -1l84 65l160 117l160 -117l84 -65l2 1l-36 97l-65 192l177 123l75 49v2l-84 -4h-222
l-66 209l-24 84h-2l-24 -84z" />
    <glyph glyph-name="female" unicode="&#x2640;" 
d="M307 635q0 86 59.5 145.5t145.5 59.5t145.5 -59.5t59.5 -145.5q0 -79 -54 -138t-133 -67v-136h306v-37h-306v-318h-36v318h-306v37h306v136q-79 8 -133 67t-54 138zM631 516q49 49 49 119t-49 119t-119 49t-119 -49t-49 -119t49 -119t119 -49t119 49z" />
    <glyph glyph-name="male" unicode="&#x2642;" 
d="M534 206q0 -85 -60 -145t-145 -60t-145 60t-60 145t60 145t145 60q73 0 131 -47l345 344h-306v36h368v-368h-37v306l-345 -345q49 -54 49 -131zM210 325q-49 -49 -49 -119t49 -119t119 -49t119 49t49 119t-49 119t-119 49t-119 -49z" />
    <glyph glyph-name="musicalnote" unicode="&#x266a;" 
d="M498 860h25q0 -121 119 -225q132 -115 132 -231q0 -110 -86 -249h-26q64 131 64 215q0 88 -53 153t-134 83v-514q0 -77 -56 -125.5t-132 -48.5q-38 0 -66.5 20.5t-28.5 55.5q0 54 56.5 97.5t120.5 43.5q41 0 65 -13v738z" />
    <glyph glyph-name="uni266D" unicode="&#x266d;" 
d="M617 495q65 0 100.5 -35.5t35.5 -89.5q0 -59 -27 -107.5t-72 -84.5t-93 -67.5t-102.5 -72.5t-87.5 -83h-11v868h39v-479q36 66 95 108.5t123 42.5zM399 287v-254q39 40 99 85l98 72.5t67 71t29 94.5q0 45 -25.5 69t-65.5 24q-48 0 -104 -40.5t-98 -121.5z" />
    <glyph glyph-name="uni266F" unicode="&#x266f;" 
d="M788 544l-139 -20v-212l139 20v-56l-139 -19v-266h-39v260l-196 -28v-265h-39v259l-139 -19v55l139 19v212l-139 -19v55l139 20v255h39v-249l196 27v254h39v-247l139 19v-55zM610 306v212l-196 -28v-211z" />
    <glyph glyph-name="uni3000" unicode="&#x3000;" 
 />
    <glyph glyph-name="uni3001" unicode="&#x3001;" 
d="M328 -19l-30 -25q-112 138 -232 230l25 25q111 -87 237 -230z" />
    <glyph glyph-name="uni3002" unicode="&#x3002;" 
d="M200 246q61 0 103.5 -43t42.5 -104t-42.5 -103.5t-103.5 -42.5q-60 0 -103.5 43t-43.5 103q0 61 43.5 104t103.5 43zM200 -16q49 0 82 33t33 82q0 48 -33.5 82t-81.5 34q-47 0 -81.5 -34.5t-34.5 -81.5q0 -48 34 -81.5t82 -33.5z" />
    <glyph glyph-name="uni3003" unicode="&#x3003;" 
d="M430 640l50 -18l-188 -477l-24 9zM706 640l50 -18l-189 -477l-23 9z" />
    <glyph glyph-name="uni3005" unicode="&#x3005;" 
d="M806 582l21 -13q-39 -103 -104.5 -217t-133.5 -199q106 -74 167 -141l-24 -23q-59 66 -170.5 145t-223.5 135l21 22q99 -50 204 -121q61 73 122.5 178.5t98.5 200.5h-398q-102 -203 -234 -332q-10 10 -26 22q109 102 193.5 252t133.5 308l33 -9q-40 -116 -86 -210h399z
" />
    <glyph glyph-name="uni3006" unicode="&#x3006;" 
d="M829 774l29 -19l-275 -343q138 -100 253 -205l-22 -26q-82 80 -251 206l-308 -399q-7 -8 -24 -37l-27 8q2 28 1 41q-5 119 -18 232l31 4q12 -146 16 -225l305 395q-162 117 -244 161l21 25q78 -46 241 -162q261 331 272 344z" />
    <glyph glyph-name="uni3007" unicode="&#x3007;" 
d="M191 68q-133 133 -133 321t133 321t321 133t321 -133t133 -321t-133 -321t-321 -133t-321 133zM811 90q124 124 124 299t-124 299t-299 124t-299 -124t-124 -299t124 -299t299 -124t299 124z" />
    <glyph glyph-name="uni3008" unicode="&#x3008;" 
d="M668 389l305 -456l-28 -15l-315 471l315 471l28 -15z" />
    <glyph glyph-name="uni3009" unicode="&#x3009;" 
d="M79 -82l-28 15l305 456l-305 456l28 15l315 -471z" />
    <glyph glyph-name="uni300A" unicode="&#x300a;" 
d="M585 389l246 -461l-25 -10l-252 471l252 471l25 -10zM731 389l247 -461l-26 -10l-252 471l252 471l26 -10z" />
    <glyph glyph-name="uni300B" unicode="&#x300b;" 
d="M218 -82l-25 10l246 461l-246 461l25 10l252 -471zM72 -82l-26 10l247 461l-247 461l26 10l252 -471z" />
    <glyph glyph-name="uni300C" unicode="&#x300c;" 
d="M676 190v670h307v-31h-276v-639h-31z" />
    <glyph glyph-name="uni300D" unicode="&#x300d;" 
d="M348 588v-670h-307v31h276v639h31z" />
    <glyph glyph-name="uni300E" unicode="&#x300e;" 
d="M983 723h-217v-543h-153v680h370v-137zM961 838h-325v-635h107v542h218v93z" />
    <glyph glyph-name="uni300F" unicode="&#x300f;" 
d="M41 55h217v543h153v-680h-370v137zM63 -59h325v634h-107v-542h-218v-92z" />
    <glyph glyph-name="uni3010" unicode="&#x3010;" 
d="M688 860h295v-5q-89 -74 -146 -196.5t-57 -269.5t57 -269.5t146 -196.5v-5h-295v942z" />
    <glyph glyph-name="uni3011" unicode="&#x3011;" 
d="M336 860v-942h-295v5q89 74 146 196.5t57 269.5t-57 269.5t-146 196.5v5h295z" />
    <glyph glyph-name="uni3012" unicode="&#x3012;" 
d="M169 727h686v-56h-686v56zM169 527h686v-56h-312v-461h-62v461h-312v56z" />
    <glyph glyph-name="uni3013" unicode="&#x3013;" 
d="M922 799v-307h-820v307h820zM922 287v-307h-820v307h820z" />
    <glyph glyph-name="uni3014" unicode="&#x3014;" 
d="M952 -93l-202 132v700l202 132l19 -25l-190 -121v-672l190 -121z" />
    <glyph glyph-name="uni3015" unicode="&#x3015;" 
d="M274 39l-202 -132l-19 25l190 121v672l-190 121l19 25l202 -132v-700z" />
    <glyph glyph-name="uni301C" unicode="&#x301c;" 
d="M720 270q-62 0 -110 25t-109 80q-56 50 -99 73t-98 23q-69 0 -128.5 -40.5t-94.5 -108.5l-34 17q46 82 112 125.5t145 43.5q62 0 110 -25t109 -80q56 -50 99 -73t98 -23q69 0 128.5 41t94.5 109l34 -18q-46 -82 -112 -125.5t-145 -43.5z" />
    <glyph glyph-name="uni3041" unicode="&#x3041;" 
d="M467 133q113 103 169 256q-9 1 -29 1q-75 0 -158 -32q-2 -32 -2 -49q0 -78 20 -176zM298 49q62 0 141 62q-22 105 -22 200v33q-75 -37 -127.5 -103t-52.5 -133q0 -59 61 -59zM664 480l34 -8q-1 -3 -3 -10t-4 -12l-12 -36q84 -18 128.5 -72.5t44.5 -125.5
q0 -91 -69 -158.5t-210 -88.5l-19 31q110 9 188.5 67t78.5 151q0 62 -40.5 107.5t-112.5 59.5q-72 -181 -193 -286q5 -19 21 -69l-32 -11q-9 24 -17 58q-87 -60 -152 -60q-40 0 -64.5 24.5t-24.5 66.5q0 83 62.5 157t150.5 114q3 68 11 136q-12 0 -35 -0.5t-34 -0.5
q-67 0 -129 6l-1 36q60 -10 130 -10q47 0 72 1q4 35 9 85q2 24 2 30h39q-1 -4 -7 -32q-9 -58 -12 -82q152 7 303 35l1 -33q-171 -26 -307 -33q-5 -40 -11 -126q88 30 154 30q16 0 42 -2q7 20 11 35q6 22 7 26z" />
    <glyph glyph-name="uni3042" unicode="&#x3042;" 
d="M441 159q144 127 211 314q-24 2 -39 2q-88 0 -194 -40q0 -14 -0.5 -40t-0.5 -39q0 -80 23 -197zM237 59q82 0 177 76q-27 131 -27 224q0 42 1 62q-92 -44 -156 -126t-64 -162q0 -74 69 -74zM681 577l39 -11q-1 -2 -10 -27l-16 -42q100 -21 155 -85.5t55 -146.5
q0 -113 -84 -192t-246 -106l-20 31q137 14 226.5 84t89.5 185q0 72 -49 128.5t-137 73.5q-87 -219 -234 -347q12 -46 24 -87l-32 -10q-13 43 -20 74q-98 -73 -184 -73q-47 0 -76 28t-29 79q0 94 75.5 185t181.5 138q4 74 13 172q-62 -2 -90 -2q-76 0 -148 6l-1 37
q70 -12 148 -12q30 0 96 2q1 12 5 49.5t5 51.5q2 30 2 36l40 -1q-4 -8 -9 -36q-11 -63 -15 -99q212 10 366 42l1 -35q-182 -29 -370 -38q-7 -69 -12 -160q99 36 187 36q30 0 55 -3q1 3 6 19.5t7 25.5q4 16 5 30z" />
    <glyph glyph-name="uni3043" unicode="&#x3043;" 
d="M202 574l38 -1q-4 -36 -4 -69q0 -163 14 -257q14 -97 50 -157.5t80 -60.5q33 0 64.5 50.5t53.5 129.5l29 -24q-67 -190 -146 -190q-55 0 -99 60.5t-63 187.5q-14 92 -14 258q0 61 -3 73zM664 532l32 12q59 -72 97.5 -188t48.5 -212l-34 -14q-7 97 -46 212.5t-98 189.5z
" />
    <glyph glyph-name="uni3044" unicode="&#x3044;" 
d="M154 697l42 -2q-4 -25 -6 -72q-4 -116 9 -265q14 -144 60 -230t107 -86q40 0 78.5 59t64.5 154l28 -24q-73 -223 -172 -223q-67 0 -121.5 84.5t-74.5 261.5q-11 100 -11 266q0 61 -4 77zM714 650l30 13q66 -93 112 -217t60 -260l-31 -13q-26 279 -171 477z" />
    <glyph glyph-name="uni3045" unicode="&#x3045;" 
d="M744 270q0 72 -48 107.5t-114 35.5q-85 0 -242 -44q-11 -3 -58 -21l-14 42q31 2 64 10q7 2 49 12l67 15.5t64.5 11t69.5 5.5q87 0 141 -46t54 -129q0 -125 -98 -203.5t-268 -107.5l-18 30q156 21 253.5 93t97.5 189zM366 600l6 32q65 -13 172.5 -26t169.5 -14l-5 -33
q-54 2 -165 15.5t-178 25.5z" />
    <glyph glyph-name="uni3046" unicode="&#x3046;" 
d="M769 348q0 77 -56 123.5t-143 46.5q-35 0 -68 -3t-68.5 -10.5t-53.5 -12t-55.5 -15.5t-42.5 -12q-33 -9 -73 -25l-13 43q16 1 75 14q9 2 57.5 14t77.5 18.5t76.5 13t87.5 6.5q100 0 165.5 -53.5t65.5 -148.5q0 -81 -33 -146.5t-93.5 -110.5t-137 -74.5t-171.5 -45.5
l-23 30q125 18 218 59.5t150.5 115.5t57.5 173zM311 741l6 34q74 -18 203 -32t204 -16l-5 -34q-218 14 -408 48z" />
    <glyph glyph-name="uni3047" unicode="&#x3047;" 
d="M689 420l-24 -20q-13 -11 -83 -77.5l-104 -100.5q10 2 21 2q67 0 86 -72q13 -51 29 -102q16 -48 81 -48q85 0 152 21l-2 -37q-83 -15 -152 -15q-91 0 -110 74q-4 12 -14.5 51.5t-14.5 50.5q-9 27 -21 39.5t-38 12.5q-34 0 -64 -27q-26 -23 -93 -94t-94 -105l-34 25
q12 9 24 21l203 199l191 186q-57 -6 -304 -25q-42 -3 -61 -8l-3 40q26 -2 61 0q43 2 160.5 11t155.5 15q19 3 28 7zM354 602l6 33q56 -17 161.5 -31t161.5 -17l-5 -34q-154 12 -324 49z" />
    <glyph glyph-name="uni3048" unicode="&#x3048;" 
d="M315 752l7 31q75 -19 195 -36t193 -21l-7 -33q-187 18 -388 59zM691 552l24 -28q-26 -19 -46 -39l-95.5 -91.5t-117.5 -114.5q16 3 37 3q70 0 94 -77q3 -10 17 -61.5t22 -73.5q10 -34 32.5 -48.5t70.5 -14.5q105 0 184 25l-2 -39q-91 -17 -181 -17q-56 0 -89.5 18.5
t-46.5 67.5q-3 9 -11 39t-15.5 55.5t-12.5 40.5q-22 58 -69 58q-45 0 -83 -33q-36 -32 -117.5 -117t-112.5 -125l-36 24q15 11 31 28l482 477q-43 -3 -192 -16l-183 -16q-40 -3 -74 -7l-3 40q31 -3 74 -1q49 1 186.5 13.5t192.5 19.5q25 3 40 10z" />
    <glyph glyph-name="uni3049" unicode="&#x3049;" 
d="M350 -4q35 0 35 45q0 19 -2 87t-2 104q-60 -29 -105 -68t-45 -77q0 -32 43.5 -61.5t75.5 -29.5zM411 290v-12q103 38 203 38q89 0 146 -42t57 -112t-49 -119t-139 -66q-39 -8 -90 -8l-11 30q57 -2 98 6q71 13 115.5 53.5t44.5 103.5q0 62 -50 94t-122 32q-103 0 -203 -42
q5 -192 5 -207q0 -74 -62 -74q-43 0 -99 38.5t-56 78.5q0 30 18.5 60t48 53.5t58 40.5t56.5 29v22q0 75 3 156q-60 -4 -85 -4q-26 0 -92 5l-1 35q59 -8 93 -8q42 0 85 3q3 76 3 111q0 25 -3 41h37q-1 -8 -2 -22.5t-1 -17.5q-1 -19 -3 -109q107 11 192 38l1 -34
q-112 -25 -194 -34q-2 -108 -2 -157zM688 525l19 26q42 -24 98.5 -63.5t83.5 -65.5l-23 -27q-27 30 -81 68.5t-97 61.5z" />
    <glyph glyph-name="uni304A" unicode="&#x304a;" 
d="M316 25q40 0 40 56q0 29 -1.5 115t-1.5 116q-76 -33 -129.5 -83t-53.5 -91q0 -42 51 -77.5t95 -35.5zM384 392v-34q131 51 251 51q103 0 166 -52.5t63 -131.5q0 -89 -56.5 -142t-151.5 -75q-48 -11 -117 -11l-12 32q82 0 115 7q81 14 136.5 61t55.5 127q0 73 -58 113.5
t-141 40.5q-118 0 -251 -52q0 -40 2 -127.5t2 -116.5q0 -89 -69 -89q-51 0 -117.5 46t-66.5 98q0 55 64 112.5t153 96.5v43q0 87 3 181q-54 -6 -95 -6q-62 0 -117 5l-1 35q66 -9 118 -9q36 0 96 5q0 30 1 63.5t1.5 55.5t0.5 29q0 34 -5 53h39q-2 -34 -2 -51q0 -8 -0.5 -29.5
t-1.5 -54.5t-1 -62q131 15 228 45l1 -35q-115 -27 -230 -41q-3 -93 -3 -181zM718 662l18 25q52 -29 117 -75t97 -77l-20 -28q-66 70 -212 155z" />
    <glyph glyph-name="uni304B" unicode="&#x304b;" 
d="M386 790l40 -4q-5 -26 -6 -35q-25 -154 -31 -184q118 10 141 10q67 0 107.5 -32t40.5 -119q0 -99 -16 -201t-46 -160q-22 -45 -52.5 -60.5t-77.5 -15.5q-52 0 -116 15l-5 38q71 -23 124 -23q36 0 60 12t42 49q54 117 54 341q0 72 -30 98.5t-86 26.5q-43 0 -147 -9
q-84 -330 -219 -548l-35 14q72 95 131.5 250.5t89.5 280.5l-91 -9t-78 -7l-28 -3q-28 -3 -41 -5l-6 41q37 -1 73 0q33 1 178 13q29 130 30 226zM745 650l29 16q45 -52 102.5 -160t90.5 -188l-30 -16q-28 79 -85.5 186t-106.5 162z" />
    <glyph glyph-name="uni304C" unicode="&#x304c;" 
d="M884 670l-30 -15q-36 77 -86 143l29 13q45 -62 87 -141zM366 790l40 -4q-1 -3 -3.5 -15t-3.5 -20q-28 -173 -30 -184q118 10 141 10q66 0 106 -32t40 -119q0 -101 -15 -202t-45 -159q-22 -45 -52.5 -60.5t-77.5 -15.5q-52 0 -118 15l-5 38q72 -23 126 -23q36 0 59 12
t42 49q54 117 54 341q0 72 -29.5 98.5t-85.5 26.5q-44 0 -148 -9q-84 -330 -220 -548l-33 14q72 95 131.5 250.5t89.5 280.5l-91 -9t-78 -7l-70 -8l-5 41q37 -1 73 0q33 1 178 13q29 140 30 226zM725 639l28 16q45 -52 102.5 -159t90.5 -188l-30 -16q-29 80 -85.5 186.5
t-105.5 160.5zM873 834l28 13q48 -63 90 -140l-29 -15q-48 91 -89 142z" />
    <glyph glyph-name="uni304D" unicode="&#x304d;" 
d="M237 261l32 -3q-24 -61 -24 -107q0 -71 59.5 -109.5t176.5 -38.5q132 0 231 23v-35q-111 -19 -229 -19q-130 0 -199.5 44t-69.5 128q0 44 23 117zM859 522l7 -32q-85 -29 -187 -47q61 -136 97 -202l-19 -23l-174 23l3 28q41 -6 149 -18l-87 187q-175 -28 -461 -12l-1 34
q242 -22 449 6q-35 77 -55 126l-11 23t-10 23q-164 -17 -364 0l-4 34q199 -21 356 -4l-8.5 21t-10 22t-7.5 16q-14 35 -26 56l39 11q14 -42 46 -122q121 15 208 48l8 -33q-84 -26 -204 -45l16 -40q18 -44 58 -131q93 15 193 51z" />
    <glyph glyph-name="uni304E" unicode="&#x304e;" 
d="M190 259l32 -3q-23 -58 -23 -108q0 -71 59 -109t176 -38q134 0 231 23v-35q-109 -19 -229 -19q-129 0 -198.5 44t-69.5 128q0 47 22 117zM813 520l7 -32q-89 -30 -188 -47q66 -143 97 -202l-18 -23l-77 10l-98 13l3 28q54 -7 150 -18q-18 35 -88 187q-174 -28 -461 -12
l-1 34q242 -21 450 6l-57 126l-19 46q-164 -17 -366 0l-3 34q200 -21 357 -4l-8.5 21t-10 22t-7.5 16q-15 35 -28 56l40 11q19 -57 45 -122q119 15 196 44l7 -33q-86 -28 -190 -41l16 -40q11 -28 59 -131q90 14 193 51zM734 793l28 13q42 -56 87 -146l-29 -15
q-38 85 -86 148zM838 828l26 14q38 -47 90 -145l-28 -14q-47 93 -88 145z" />
    <glyph glyph-name="uni304F" unicode="&#x304f;" 
d="M655 800l34 -30q-6 -5 -27 -24.5t-23 -21.5q-63 -59 -313 -263q-52 -44 -51.5 -69t56.5 -70q87 -68 202 -168.5t184 -172.5l-28 -24q-7 9 -26 27.5t-25 25.5q-74 82 -336 295q-45 37 -56.5 65t2.5 52t58 62l92 75.5l130.5 109t88.5 82.5q28 31 38 49z" />
    <glyph glyph-name="uni3050" unicode="&#x3050;" 
d="M611 559l27 13q34 -50 91 -147l-29 -13q-42 77 -89 147zM727 602l27 14q42 -51 94 -143l-29 -13q-47 81 -92 142zM644 800l34 -30q-6 -5 -27 -24.5t-23 -21.5q-56 -52 -314 -263q-52 -44 -51.5 -69t56.5 -70q88 -69 203 -169.5t184 -171.5l-28 -24q-7 9 -26 27.5
t-25 25.5q-74 82 -336 295q-45 37 -56.5 65t2.5 52t58 62l92 75.5l130.5 109t88.5 82.5q28 31 38 49z" />
    <glyph glyph-name="uni3051" unicode="&#x3051;" 
d="M199 771l41 -4l-12 -49q-81 -367 -23 -617q12 45 58 191l26 -14q-55 -161 -63 -201q-4 -27 -3 -41l3 -27l-26 -5q-48 165 -48 314q0 73 7.5 147.5t21 161t14.5 96.5q4 24 4 48zM940 584v-36q-83 -18 -176 -25v-26v-44v-68t-2 -64.5t-5 -61.5t-10.5 -58.5t-17.5 -55
t-26 -52t-37 -48t-49 -44.5t-63 -41l-33 26q41 15 79 46q28 22 49.5 47.5t35.5 47.5t23.5 57.5t14.5 58.5t7 69.5t2.5 71.5t0.5 83v30v24q-63 -4 -142 -4q-105 0 -172 7v36q67 -12 173 -12q79 0 140 4q-5 153 -7 177q-2 27 -8 50h44q-1 -5 -1 -11.5t-0.5 -17.5t-0.5 -20
q-1 -17 4 -176q97 8 177 30z" />
    <glyph glyph-name="uni3052" unicode="&#x3052;" 
d="M893 641l-32 -12q-24 69 -61 142l29 10q43 -84 64 -140zM194 746l40 -4q-2 -7 -5.5 -24t-5.5 -24q-80 -363 -23 -610q10 40 58 190l26 -14q-55 -161 -63 -201q-4 -27 -3 -42q3 -24 3 -25l-26 -5q-50 172 -50 314q0 73 8 147.5t21 155t15 95.5q5 30 5 47zM697 756h44
q-2 -34 -2 -49q0 -11 1.5 -74.5t2.5 -97.5q109 8 192 31v-37q-82 -16 -191 -24v-26q0 -176 -5 -226q-17 -153 -109 -241q-39 -38 -95 -69l-33 25q35 13 79 45q28 22 49.5 47.5t35.5 48t23.5 57.5t14.5 58t7 69.5t2.5 72t0.5 83.5v30v24q-57 -4 -128 -4q-106 0 -172 7v36
q72 -13 173 -13q63 0 126 3q-5 149 -7 174q-2 18 -9 50zM899 801l30 10q27 -50 64 -138l-31 -13q-35 96 -63 141z" />
    <glyph glyph-name="uni3053" unicode="&#x3053;" 
d="M260 659v33q104 -13 260 -13q115 0 253 14v-33q-201 -12 -253 -12q-137 0 -260 11zM224 307l34 -4q-24 -70 -24 -127q0 -68 70.5 -108t201.5 -40q236 0 338 39l1 -33q-45 -15 -139.5 -26t-199.5 -11q-139 0 -221 44.5t-82 129.5q0 52 21 136z" />
    <glyph glyph-name="uni3054" unicode="&#x3054;" 
d="M764 791l29 13q45 -62 87 -141l-30 -16q-35 77 -86 144zM869 826l28 14q46 -60 90 -141l-30 -14q-48 92 -88 141zM246 648v33q104 -13 260 -13q115 0 253 14v-33q-201 -12 -253 -12q-137 0 -260 11zM210 296l34 -4q-24 -70 -24 -127q0 -68 71 -108.5t201 -40.5
q235 0 337 39l1 -32q-45 -15 -139 -26t-199 -11q-139 0 -221.5 44.5t-82.5 129.5q0 48 22 136z" />
    <glyph glyph-name="uni3055" unicode="&#x3055;" 
d="M228 306l34 -4q-30 -68 -30 -134q0 -78 62 -120t181 -42q137 0 257 27v-36q-140 -22 -258 -22q-129 0 -201 50.5t-72 136.5q0 60 27 144zM846 665l6 -35q-114 -29 -210 -43q11 -23 39 -86l55.5 -122l47.5 -100l-23 -22q-74 16 -190 24l6 28q77 -7 167 -19
q-110 238 -132 291l-1 2q-199 -26 -435 -5l-1 34q218 -27 424 -2q-5 12 -45 101q-18 43 -36 73l39 8q28 -73 73 -178q110 16 216 51z" />
    <glyph glyph-name="uni3056" unicode="&#x3056;" 
d="M231 299l34 -4q-29 -66 -29 -134q0 -78 61.5 -120t180.5 -42q137 0 257 27v-36q-140 -22 -258 -22q-129 0 -201 50.5t-72 136.5q0 60 27 144zM849 657l6 -34q-114 -29 -210 -43q2 -4 58.5 -129t83.5 -180l-23 -21q-67 14 -190 23l6 29q81 -7 168 -19q-127 275 -133 290
l-1 2q-199 -26 -435 -5l-1 35q218 -27 424 -2l-45 100q-20 47 -36 74l39 7q24 -64 73 -177q116 17 216 50zM754 821l28 14q46 -64 86 -142l-28 -14q-35 75 -86 142zM859 858l28 13q60 -81 89 -141l-29 -14q-45 88 -88 142z" />
    <glyph glyph-name="uni3057" unicode="&#x3057;" 
d="M275 780h43q-4 -27 -6 -68q-12 -360 -12 -550q0 -85 52 -124.5t141 -39.5q73 0 134 18t106.5 51.5t76 66t62.5 76.5l23 -28q-32 -42 -65.5 -74.5t-83 -67.5t-115.5 -54t-142 -19q-220 0 -220 207q0 87 6 283.5t6 254.5q0 41 -6 68z" />
    <glyph glyph-name="uni3058" unicode="&#x3058;" 
d="M582 677l27 13q60 -84 99 -163l-29 -14q-50 99 -97 164zM710 725l26 13q54 -70 102 -160l-29 -15q-52 101 -99 162zM263 773h43q-4 -27 -6 -68q-12 -360 -12 -550q0 -164 192 -164q73 0 134 18t107 51.5t76.5 66t62.5 76.5l23 -28q-32 -42 -65.5 -74.5t-83 -67.5
t-115.5 -54t-142 -19q-220 0 -220 207q0 87 5.5 283.5t5.5 254.5q0 45 -5 68z" />
    <glyph glyph-name="uni3059" unicode="&#x3059;" 
d="M492 219q52 0 81 35.5t34 98.5q-7 63 -38.5 93t-78.5 30q-51 0 -88 -37.5t-37 -94.5q0 -59 35.5 -92t91.5 -33zM611 653h49q84 0 178.5 -1t101.5 -1v-33q-85 5 -278 5h-51q0 -88 2 -182q29 -49 29 -119q0 -57 -12.5 -105.5t-43 -96t-87 -86t-137.5 -64.5l-31 29
q246 61 274 259q-38 -70 -113 -70q-70 0 -114.5 42t-44.5 114q0 65 46.5 114t108.5 49q54 0 95 -31q0 12 -0.5 63.5t-0.5 83.5q-285 -4 -470 -21l-1 37q452 13 470 13q0 62 -2 102q0 22 -5 40h41q-3 -18 -3 -40q-1 -23 -1 -101z" />
    <glyph glyph-name="uni305A" unicode="&#x305a;" 
d="M930 697l-31 -15q-44 82 -80 128l29 13q41 -57 82 -126zM818 673l-30 -16q-51 90 -80 129l28 14q33 -44 82 -127zM463 211q52 0 81.5 36t34.5 98q-7 63 -38.5 93t-78.5 30q-52 0 -89 -37.5t-37 -94.5q0 -59 35.5 -92t91.5 -33zM583 645h49q84 0 178 -1t101 -1v-33
q-68 4 -278 4h-50q0 -87 2 -181q28 -47 28 -120q0 -57 -12.5 -105.5t-42.5 -95.5t-86.5 -85.5t-137.5 -64.5l-32 29q247 61 275 259q-38 -70 -114 -70q-70 0 -114.5 42t-44.5 114q0 65 47 114t109 49q53 0 94 -31q0 12 -0.5 63t-0.5 83q-298 -4 -470 -20l-1 37
q452 13 470 13q0 61 -2 101q0 26 -4 40h41q-3 -18 -3 -40q-1 -23 -1 -100z" />
    <glyph glyph-name="uni305B" unicode="&#x305b;" 
d="M692 773h38q-3 -25 -3 -59q0 -120 -1 -171q74 6 145 9q32 1 62 3v-38q-13 1 -62 1q-46 0 -146 -7q-5 -169 -16 -222q-5 -27 -21 -38t-46 -11q-54 0 -116 13l1 33q63 -15 109 -15q24 0 33 6t12 25q12 65 14 207q-89 -6 -371 -33q0 -252 1 -269q3 -84 12 -107
q17 -47 91 -59q36 -6 93 -6q176 0 300 20l-1 -33q-175 -18 -300 -18q-52 0 -88 4t-61 16t-39 25t-22 39t-11 50.5t-4 66.5q-1 43 -1 268q-64 -6 -148 -16q-17 -2 -45 -6.5t-39 -5.5l-4 39q41 0 85 4q18 1 70.5 6.5l80.5 8.5l1 178q0 32 -4 59h37q-2 -26 -2 -59l-1 -175
q276 27 370 35q1 56 1 173q0 39 -4 59z" />
    <glyph glyph-name="uni305C" unicode="&#x305c;" 
d="M877 625l-32 -12q-23 67 -65 149l29 9q47 -91 68 -146zM673 759h38q-3 -25 -3 -60q0 -120 -1 -171q107 8 145 10q29 1 61 3v-38q-13 1 -61 1q-46 0 -146 -7q-5 -165 -17 -223q-5 -27 -20.5 -38t-45.5 -11q-49 0 -116 14l1 32q59 -14 108 -14q24 0 33.5 6t12.5 25
q12 65 14 207q-93 -6 -372 -33q0 -252 1 -269q3 -85 13 -109q18 -48 97 -59q35 -5 87 -5q169 0 300 21l-1 -34q-165 -17 -300 -17q-52 0 -88 4t-61 15.5t-39.5 24.5t-22.5 39t-11 50.5t-4 66.5q-1 43 -1 269l-54.5 -6t-54.5 -6.5t-38 -4.5q-66 -8 -84 -11l-4 39q41 0 85 4
q15 1 36.5 3t55.5 5.5t58 5.5l1 179q0 32 -4 59h37q-2 -26 -2 -59l-1 -175q216 21 371 34q1 56 1 173q0 40 -4 60zM879 792l29 9q42 -77 68 -145l-32 -12q-37 102 -65 148z" />
    <glyph glyph-name="uni305D" unicode="&#x305d;" 
d="M289 706l-2 38q25 -3 65 -3q37 0 163.5 6t164.5 10q22 2 40 7l23 -24q-12 -8 -28 -20l-365 -302q326 36 536 36v-33q-164 7 -253 -7q-81 -12 -150 -79t-69 -145q0 -83 54 -122t140 -53q67 -10 137 -4l-7 -33q-175 -7 -265 47t-90 162q0 76 51.5 137t111.5 86
q-243 -22 -422 -51l-3 32q31 3 91.5 11.5t79.5 10.5q112 80 384 315q-22 -1 -160 -8t-162 -9z" />
    <glyph glyph-name="uni305E" unicode="&#x305e;" 
d="M258 706l-2 38q26 -3 66 -3q37 0 163 6t163 10q23 2 41 7l24 -24q-21 -14 -29 -20l-365 -302q326 36 535 36v-33q-165 7 -252 -7q-81 -12 -150 -79t-69 -145q0 -83 54.5 -122t140.5 -53q67 -10 137 -4l-7 -33q-175 -7 -266 47t-91 162q0 76 51.5 137t112.5 86
q-245 -22 -422 -51l-3 32q30 3 90.5 11.5t80.5 10.5q129 92 383 315q-22 -1 -159.5 -8t-160.5 -9zM806 684l27 13q47 -61 88 -138l-29 -15q-44 85 -86 140zM702 647l28 15q54 -77 85 -141l-29 -14q-42 84 -84 140z" />
    <glyph glyph-name="uni305F" unicode="&#x305f;" 
d="M555 447v34q86 7 175 7q106 0 173 -8l-2 -34q-89 12 -167 12q-69 0 -179 -11zM606 654v-34q-130 -27 -224 -36q-16 -79 -33 -140q-30 -118 -75 -252.5t-81 -206.5l-39 12q84 149 164 452q22 85 31 132q-75 -7 -119 -7q-49 0 -112 5l-1 33q50 -7 115 -7q55 0 124 6l23 119
q6 36 4 65l42 -4q-6 -19 -14 -65q-3 -19 -11.5 -60.5l-10.5 -51.5q115 13 217 40zM513 246l33 -3q-16 -61 -16 -99q0 -22 6.5 -39t25.5 -34t61.5 -26.5t106.5 -9.5q101 0 186 18l-1 -36q-91 -14 -186 -14q-229 0 -229 139q0 38 13 104z" />
    <glyph glyph-name="uni3060" unicode="&#x3060;" 
d="M851 602l-29 -14q-32 68 -86 142l28 13q47 -63 87 -141zM524 430v34q86 7 175 7q106 0 173 -8l-2 -34q-82 11 -167 11q-79 0 -179 -10zM575 637v-35q-130 -27 -224 -36q-15 -76 -33 -139q-30 -119 -75 -253.5t-81 -206.5l-39 13q86 153 165 451q18 69 30 132
q-64 -6 -118 -6q-62 0 -113 4l-1 34q50 -7 116 -7q55 0 124 6q19 99 22 119q6 35 4 64l42 -4q-6 -20 -14 -64q-4 -19 -12 -60.5l-10 -51.5q115 13 217 40zM482 228l33 -3q-15 -57 -15 -98q0 -23 6.5 -39.5t25.5 -34t61 -27t106 -9.5q97 0 187 19l-1 -36q-91 -14 -187 -14
q-229 0 -229 139q0 37 13 103zM842 767l26 13q59 -77 90 -141l-28 -14q-42 82 -88 142z" />
    <glyph glyph-name="uni3061" unicode="&#x3061;" 
d="M791 682v-36q-195 -37 -420 -44q-49 -229 -81 -301q71 60 144.5 86t172.5 26q116 0 177.5 -51.5t61.5 -134.5q0 -142 -137.5 -203t-361.5 -37l-8 32q92 -14 178 -6t152 30t106 69.5t40 113.5q0 70 -54.5 113t-154.5 43q-97 0 -181 -31t-138 -93q-19 -21 -35 -49l-31 12
q68 138 120 380h-38q-62 0 -174 10l-1 35q82 -14 174 -14q29 0 45 1q10 61 14 89q6 45 5 65l40 -3q-8 -28 -14 -66q-8 -48 -15 -85q245 10 414 49z" />
    <glyph glyph-name="uni3062" unicode="&#x3062;" 
d="M763 660v-35q-194 -37 -422 -44q-40 -206 -78 -291q70 59 144 85t174 26q116 0 177 -51t61 -134q0 -143 -137 -204t-361 -37l-9 33q92 -14 178 -6t152 30t106 69.5t40 113.5q0 70 -54 113t-154 43q-98 0 -182.5 -31.5t-137.5 -92.5q-22 -24 -35 -49l-30 12
q67 133 116 370h-35q-62 0 -174 10l-1 35q86 -15 174 -15h42q13 67 17 101q5 40 4 65l41 -3q-6 -22 -13 -66l-7.5 -39t-10.5 -57q246 10 415 49zM743 798l29 13q48 -66 86 -141l-29 -15q-36 77 -86 143zM849 834l28 13q56 -74 89 -140l-29 -15q-49 95 -88 142z" />
    <glyph glyph-name="uni3063" unicode="&#x3063;" 
d="M202 349l-17 37q18 4 82 23l51 17q51 18 75 25.5t71 20.5t85 18.5t71 5.5q98 0 163 -55.5t65 -145.5q0 -60 -24.5 -109t-65.5 -81.5t-98.5 -55t-119 -34.5t-132.5 -16l-13 34q84 3 154.5 17.5t133 43.5t98 80.5t35.5 120.5q0 73 -54 121.5t-142 48.5q-46 0 -117 -17
t-124.5 -35.5l-113 -40.5t-63.5 -23z" />
    <glyph glyph-name="uni3064" unicode="&#x3064;" 
d="M116 470l-18 39q15 3 99 28l64.5 21.5t88.5 28.5t89 25.5t101 21.5t90 7q119 0 197.5 -65.5t78.5 -177.5q0 -74 -30 -134t-80 -99.5t-120 -67t-144 -41.5t-159 -19l-14 35q81 3 152 14t138.5 36t116 60.5t77.5 91t29 124.5q0 91 -65 151.5t-176 60.5q-63 0 -152 -20.5
t-152 -42t-135 -49t-76 -28.5z" />
    <glyph glyph-name="uni3065" unicode="&#x3065;" 
d="M733 770l28 13q51 -70 87 -142l-29 -14q-28 63 -86 143zM839 806l26 13q55 -70 90 -140l-28 -14q-45 87 -88 141zM105 450l-17 38q13 2 98 28q13 4 65 21.5l88.5 29t89 25.5t101 21.5t90.5 7.5q119 0 197.5 -65.5t78.5 -177.5q0 -74 -30 -134t-80 -99.5t-120.5 -67.5
t-144.5 -42t-159 -19l-13 35q81 3 152 14t138.5 36t116 61t77.5 91.5t29 124.5q0 91 -65 151.5t-176 60.5q-63 0 -152 -20.5t-152.5 -42t-136 -49t-75.5 -28.5z" />
    <glyph glyph-name="uni3066" unicode="&#x3066;" 
d="M110 615l-6 41q30 1 82 6q299 32 451 44q163 14 259 17v-34q-142 2 -201 -18q-116 -42 -183 -149t-67 -208q0 -66 23.5 -118.5t61 -84.5t88 -54t99 -31t99.5 -10l-11 -30q-51 0 -103 11t-104.5 35.5t-92.5 60t-65 91t-25 122.5q0 122 66 223.5t160 147.5
q-6 -1 -141.5 -14.5t-239.5 -26t-150 -21.5z" />
    <glyph glyph-name="uni3067" unicode="&#x3067;" 
d="M713 518l27 13q49 -69 88 -146l-28 -14q-38 82 -87 147zM823 557l27 13q49 -66 91 -146l-29 -14q-43 86 -89 147zM99 605l-5 41q43 1 82 5q299 32 451 44q182 16 259 18v-34q-140 2 -201 -19q-116 -42 -183 -148.5t-67 -207.5q0 -66 23.5 -118.5t61 -84.5t88 -54t99 -31
t99.5 -10l-11 -31q-51 0 -103.5 11t-104.5 35.5t-92.5 60.5t-65.5 91.5t-25 122.5q0 122 66.5 223.5t160.5 147.5q-7 -1 -142 -14.5t-239.5 -26t-150.5 -21.5z" />
    <glyph glyph-name="uni3068" unicode="&#x3068;" 
d="M772 653l19 -30q-19 -12 -55 -31q-1 0 -85.5 -43t-143 -76t-105.5 -65q-160 -105 -160 -226q0 -73 68.5 -116t199.5 -43q205 0 318 30v-37q-132 -24 -315 -24q-139 0 -220.5 47t-81.5 140q0 138 173 253l9 6q-51 88 -152 322l33 14q64 -178 145 -319q63 40 178.5 99.5
l123.5 63.5q35 21 51 35z" />
    <glyph glyph-name="uni3069" unicode="&#x3069;" 
d="M733 629l19 -30q-23 -15 -54 -31l-82.5 -42.5l-124 -66t-103.5 -63.5q-161 -107 -161 -225q0 -73 69 -116.5t200 -43.5q207 0 318 31v-37q-132 -24 -315 -24q-139 0 -220.5 47t-81.5 140q0 139 173 253l9 6q-54 92 -153 321l34 15q65 -183 144 -320q61 39 167 94l112 58
q34 21 50 34zM749 758l28 13q52 -74 86 -142l-28 -15q-33 72 -86 144zM854 794l28 13q56 -74 89 -140l-29 -15q-49 95 -88 142z" />
    <glyph glyph-name="uni306A" unicode="&#x306a;" 
d="M579 666l1 -35q-90 -25 -191 -39q-38 -108 -101 -227t-124 -197l-36 19q63 69 126.5 184t99.5 218q-62 -6 -124 -6q-44 0 -110 2l-2 36q56 -7 113 -7q66 0 135 7q32 108 36 181l41 -4q-4 -13 -19 -76.5t-25 -96.5q98 13 180 41zM662 97q0 10 -1 35.5t-1 40.5
q-64 18 -124 18q-67 0 -109.5 -27.5t-42.5 -71.5t36 -69t110 -25q66 0 99 29.5t33 69.5zM648 487h35q-3 -37 -1 -88q0 -22 3.5 -93t4.5 -110q104 -36 210 -124l-19 -29q-96 83 -189 119q0 -14 0.5 -37t0.5 -32q0 -54 -42.5 -90.5t-118.5 -36.5q-79 0 -129.5 30.5t-50.5 94.5
q0 62 55 96.5t127 34.5q63 0 124 -16q-1 18 -5 125.5t-5 155.5zM693 621l17 25q55 -24 122 -64t101 -68l-20 -29q-73 67 -220 136z" />
    <glyph glyph-name="uni306B" unicode="&#x306b;" 
d="M475 630v36q75 -14 199.5 -13.5t197.5 13.5v-36q-70 -9 -198 -9t-199 9zM442 275l32 -4q-16 -57 -16 -100q0 -110 198 -110q136 0 248 27l1 -36q-105 -21 -243 -21q-235 0 -235 138q0 35 15 106zM206 758l41 -4q-11 -35 -13 -45q-51 -247 -51 -407q0 -90 14 -213
q34 102 67 190l25 -18q-62 -155 -71 -206q-5 -24 -4 -43l4 -28l-31 -3q-34 127 -34 321q0 50 6 114.5t13 110l17 107l13 79.5q4 25 4 45z" />
    <glyph glyph-name="uni306C" unicode="&#x306c;" 
d="M655 37q113 0 165 117q-77 52 -160 52q-56 0 -85.5 -25t-29.5 -58q0 -40 29 -63t81 -23zM477 388q29 80 48 219q-152 -24 -260 -134q27 -69 53 -126q32 -72 76 -132q44 69 83 173zM207 70q87 0 169 117q-51 69 -84 143q-32 73 -49 119q-17 -19 -40 -54q-70 -111 -70 -220
q0 -48 22.5 -76.5t51.5 -28.5zM570 712l-8 -70q12 1 38 1q116 0 201 -76t85 -206q0 -112 -28 -194q52 -38 109 -102l-23 -28q-50 61 -98 98q-60 -129 -191 -129q-65 0 -103 31.5t-38 84.5q0 49 41.5 82t104.5 33q89 0 171 -53q24 78 24 176q0 101 -67 176.5t-189 75.5
q-15 0 -41 -2q-18 -140 -54 -237q-56 -151 -131.5 -243t-163.5 -92q-46 0 -76.5 38t-30.5 98q0 129 79 242q18 28 50 63q-24 64 -36 104q-16 53 -33 91l34 13q18 -81 58 -184q122 114 275 135q7 59 8 69q4 37 0 76l43 -2q-3 -12 -10 -69z" />
    <glyph glyph-name="uni306D" unicode="&#x306d;" 
d="M656 41q124 0 164 135q-79 49 -172 49q-47 0 -83 -26.5t-36 -63.5q0 -47 35.5 -70.5t91.5 -23.5zM358 630l20 -20q-28 -42 -39 -63q-6 -86 -6 -88q205 186 349 186q93 0 141 -78t48 -198q0 -103 -15 -178q54 -35 121 -104l-21 -28q-59 63 -108 99q-46 -148 -190 -148
q-68 0 -113.5 30t-45.5 93q0 54 43.5 88.5t108.5 34.5q95 0 176 -46q14 71 14 176q0 106 -47.5 167.5t-117.5 61.5q-68 0 -169.5 -61t-176.5 -140q-5 -97 -5 -163q0 -169 2 -226q1 -17 3 -47h-39q3 21 3 46v227q0 35 7 151q-43 -67 -205 -296l-23 30q45 57 122 165t109 161
q6 83 8 126q-20 -3 -97 -13.5l-113 -15.5l-4 38q18 -1 45 1q69 4 171 22q2 23 4 51l3 42.5t1 19.5q0 35 -4 60l46 -2q-8 -42 -19 -165q5 2 13 4z" />
    <glyph glyph-name="uni306E" unicode="&#x306e;" 
d="M458 379q41 132 58 298q-157 -9 -262.5 -119.5t-105.5 -239.5q0 -105 41 -160.5t86 -55.5q41 0 91 67.5t92 209.5zM531 -11l-18 33q42 2 79 9q52 11 100 35t91 62.5t68.5 98.5t25.5 132q0 130 -89 223t-240 96q-20 -170 -60 -307q-88 -301 -215 -301q-58 0 -106.5 66.5
t-48.5 180.5q0 157 124.5 274.5t297.5 117.5q163 0 265 -102.5t102 -248.5q0 -156 -102 -253.5t-274 -115.5z" />
    <glyph glyph-name="uni306F" unicode="&#x306f;" 
d="M197 774l40 -4q-9 -27 -12 -45q-52 -242 -52 -425q0 -102 14 -213q24 75 70 192l23 -18q-61 -159 -71 -206q-5 -24 -4 -43l4 -28l-31 -3q-36 142 -36 318q0 50 6.5 118t13.5 116t18 114t13 82q4 25 4 45zM718 145q0 32 -1 52q-60 20 -126 20q-70 0 -114.5 -28.5
t-44.5 -71.5q0 -45 40.5 -72.5t109.5 -27.5q77 0 106.5 32.5t29.5 95.5zM950 86l-18 -28q-93 88 -184 127q1 -19 1 -53q0 -26 -6.5 -48.5t-22 -46t-48 -37t-77.5 -13.5q-95 0 -144.5 34.5t-49.5 93.5q0 54 51 93.5t142 39.5q60 0 122 -18q-13 302 -13 315q-61 -3 -122 -3
q-28 0 -163 7v33q101 -9 166 -9q39 0 119 4q0 67 2 139q0 34 -3 57h40q-5 -31 -6 -56q-2 -35 -2 -139q117 8 192 23v-33q-91 -15 -192 -21q0 -18 12 -327q92 -36 204 -134z" />
    <glyph glyph-name="uni3070" unicode="&#x3070;" 
d="M884 646l-34 -13q-22 64 -65 148l31 11q41 -77 68 -146zM176 764l40 -4q-7 -21 -11 -45q-52 -242 -52 -425q0 -102 14 -213q22 70 70 191l22 -17q-61 -159 -71 -206q-5 -24 -4 -43q0 -4 4 -29l-30 -3q-36 142 -36 319q0 50 6.5 118.5t13 115t17.5 115l13 81.5q4 25 4 45z
M697 135q0 31 -1 51q-63 21 -126 21q-69 0 -113.5 -29t-44.5 -72q0 -45 40 -72t109 -27q77 0 106.5 32.5t29.5 95.5zM905 591v-33q-91 -15 -191 -21q0 -18 12 -327q92 -36 204 -134l-19 -28q-93 88 -184 127q1 -19 1 -53q0 -26 -6.5 -49t-22 -46t-48 -37t-77.5 -14
q-95 0 -144 34.5t-49 93.5q0 54 50.5 94t141.5 40q60 0 122 -18q-12 279 -12 315q-82 -4 -123 -4q-8 0 -163 8v32q90 -8 166 -8q60 0 120 3q0 104 1 140q0 42 -2 57h40q-5 -31 -6 -56q-2 -35 -2 -140q107 8 191 24zM885 811l30 10q40 -74 69 -143l-34 -13q-37 100 -65 146z
" />
    <glyph glyph-name="uni3071" unicode="&#x3071;" 
d="M176 764l40 -4q-7 -21 -11 -45q-52 -242 -52 -425q0 -102 14 -213q22 70 70 191l22 -17q-61 -159 -71 -206q-5 -24 -4 -43q0 -4 4 -29l-30 -3q-36 142 -36 319q0 50 6.5 118.5t13 115t17.5 115l13 81.5q4 25 4 45zM697 135q0 31 -1 51q-63 21 -126 21q-69 0 -113.5 -29
t-44.5 -72q0 -45 40 -72t109 -27q77 0 106.5 32.5t29.5 95.5zM905 591v-33q-91 -15 -191 -21q0 -18 12 -327q92 -36 204 -134l-19 -28q-93 88 -184 127q1 -19 1 -53q0 -26 -6.5 -49t-22 -46t-48 -37t-77.5 -14q-95 0 -144 34.5t-49 93.5q0 54 50.5 94t141.5 40q60 0 122 -18
q-12 279 -12 315q-82 -4 -123 -4q-8 0 -163 8v32q90 -8 166 -8q60 0 120 3q0 104 1 140q0 42 -2 57h40q-5 -31 -6 -56q-2 -35 -2 -140q107 8 191 24zM886 666q30 0 51 20.5t21 50.5q0 31 -21 52.5t-51 21.5q-31 0 -52 -21.5t-21 -52.5q0 -30 21 -50.5t52 -20.5zM782 737
q0 44 30.5 74.5t73.5 30.5t73.5 -31t30.5 -74t-30.5 -73t-73.5 -30t-73.5 30t-30.5 73z" />
    <glyph glyph-name="uni3072" unicode="&#x3072;" 
d="M950 312l-26 -26q-103 126 -162 258q20 -146 -7.5 -275.5t-110.5 -216t-209 -86.5q-116 0 -179 68.5t-63 184.5q0 132 63 252.5t142 196.5q-37 -7 -114.5 -20.5l-88.5 -15.5q-7 -1 -25.5 -4.5l-28.5 -5.5l-5 41q24 0 51 3q61 5 167 24t142 34l10 -35q-5 -2 -27 -6.5
t-29 -7.5q-25 -18 -61 -60.5t-74.5 -102.5t-65 -138t-26.5 -150q0 -117 60.5 -171.5t152.5 -54.5q111 0 187.5 78.5t105.5 222.5t1 328q-19 56 -28 92l34 10q20 -105 73.5 -218t140.5 -199z" />
    <glyph glyph-name="uni3073" unicode="&#x3073;" 
d="M891 635l-31 -14q-40 85 -77 142l27 11q43 -66 81 -139zM686 703l34 11q20 -105 73.5 -218t140.5 -199l-27 -27q-103 126 -162 258q9 -86 6 -168.5t-28 -156.5t-64 -130t-101 -89t-139 -33q-116 0 -179.5 68.5t-63.5 184.5q0 132 63.5 252t142.5 196q-37 -7 -114.5 -20.5
l-89.5 -15.5q-7 -1 -25 -4.5l-28 -5.5l-5 41q24 0 51 3q60 5 166 24.5t142 34.5l10 -35q-5 -2 -27 -7t-29 -8q-25 -18 -60.5 -60.5t-74 -102t-65 -137.5t-26.5 -150q0 -117 60.5 -171.5t152.5 -54.5q111 0 187.5 78.5t105.5 222t1 327.5q-19 56 -28 92zM883 802l26 13
q37 -55 82 -138l-30 -14q-48 98 -78 139z" />
    <glyph glyph-name="uni3074" unicode="&#x3074;" 
d="M686 703l34 11q20 -105 73.5 -218t140.5 -199l-27 -27q-103 126 -162 258q9 -86 6 -168.5t-28 -156.5t-64 -130t-101 -89t-139 -33q-116 0 -179.5 68.5t-63.5 184.5q0 132 63.5 252t142.5 196q-37 -7 -114.5 -20.5l-89.5 -15.5q-7 -1 -25 -4.5l-28 -5.5l-5 41q24 0 51 3
q60 5 166 24.5t142 34.5l10 -35q-5 -2 -27 -7t-29 -8q-25 -18 -60.5 -60.5t-74 -102t-65 -137.5t-26.5 -150q0 -117 60.5 -171.5t152.5 -54.5q111 0 187.5 78.5t105.5 222t1 327.5q-19 56 -28 92zM836 656q22 -22 54 -22t54 22t22 54t-22 54t-54 22t-54 -22t-22 -54t22 -54z
M815 786q31 31 75 31t75.5 -31.5t31.5 -75.5t-31.5 -75.5t-75.5 -31.5t-75.5 31.5t-31.5 75.5t32 76z" />
    <glyph glyph-name="uni3075" unicode="&#x3075;" 
d="M322 272l19 -23q-49 -50 -123 -108t-137 -94l-21 27q61 32 141 92.5t121 105.5zM969 62l-29 -15q-27 75 -78 164.5t-102 140.5l26 17q54 -60 104.5 -148t78.5 -159zM337 9l-4 37q74 -22 171 -22q26 0 50 7t45.5 31.5t21.5 63.5q0 35 -25 82.5t-50.5 79.5t-69.5 83l-69 72
l24 23l66 -75q75 -83 114.5 -145.5t39.5 -122.5q0 -40 -16.5 -68t-42 -40t-47 -17t-41.5 -5q-85 0 -167 16zM572 523l-21 24q43 25 77 55q-64 60 -231 136l21 27q60 -28 130.5 -70t107.5 -74l9 -28q-34 -28 -93 -70z" />
    <glyph glyph-name="uni3076" unicode="&#x3076;" 
d="M291 264l19 -23q-49 -50 -123 -108t-137 -94l-20 27q61 32 140.5 92.5t120.5 105.5zM938 54l-29 -15q-27 75 -78 164.5t-102 140.5l27 16q54 -60 104 -147.5t78 -158.5zM306 1l-4 37q77 -23 171 -23q25 0 49.5 7.5t46 32t21.5 63.5q0 35 -25.5 82.5t-50 79t-69.5 82.5
l-69 73l24 23l66 -75q75 -84 115 -146t40 -122q0 -40 -16.5 -68t-42.5 -40t-47.5 -17t-41.5 -5q-85 0 -167 16zM542 515l-22 24q43 25 77 55q-65 61 -230 136l20 27q59 -28 130.5 -70.5t108.5 -74.5l8 -27q-41 -34 -92 -70zM846 687l26 13q58 -74 91 -140l-29 -14
q-48 92 -88 141zM740 651l28 14q49 -67 87 -143l-29 -14q-28 63 -86 143z" />
    <glyph glyph-name="uni3077" unicode="&#x3077;" 
d="M291 264l19 -23q-49 -50 -123 -108t-137 -94l-20 27q61 32 140.5 92.5t120.5 105.5zM938 54l-29 -15q-27 75 -78 164.5t-102 140.5l27 16q54 -60 104 -147.5t78 -158.5zM306 1l-4 37q77 -23 171 -23q25 0 49.5 7.5t46 32t21.5 63.5q0 35 -25.5 82.5t-50 79t-69.5 82.5
l-69 73l24 23l66 -75q75 -84 115 -146t40 -122q0 -40 -16.5 -68t-42.5 -40t-47.5 -17t-41.5 -5q-85 0 -167 16zM542 515l-22 24q43 25 77 55q-65 61 -230 136l20 27q59 -28 130.5 -70.5t108.5 -74.5l8 -27q-41 -34 -92 -70zM848 712q45 0 76.5 -32t31.5 -77t-31.5 -76
t-76.5 -31t-76.5 31t-31.5 76t32 77t76 32zM848 526q32 0 55 22.5t23 54.5t-23 55t-55 23q-31 0 -53.5 -23t-22.5 -55t22.5 -54.5t53.5 -22.5z" />
    <glyph glyph-name="uni3078" unicode="&#x3078;" 
d="M109 231l-30 30q20 14 61 55q21 21 51.5 57.5l53.5 65.5l58 74l46 60q25 30 47 42t48 4.5t55 -39.5l84.5 -99.5t113.5 -128.5q151 -170 257 -263l-23 -26q-90 86 -256 267q-36 39 -104.5 119.5t-90.5 104.5q-26 27 -43 33.5t-30.5 -2t-34.5 -34.5q-135 -173 -209 -258
q-25 -26 -54 -62z" />
    <glyph glyph-name="uni3079" unicode="&#x3079;" 
d="M663 664l28 13q59 -85 99 -163l-30 -14q-43 93 -97 164zM792 712l26 13q53 -68 102 -161l-29 -14q-59 111 -99 162zM98 211l-29 30q20 14 61 55q21 21 51.5 57.5l53.5 65.5l58 74l46 60q25 30 46.5 41.5t47.5 4t55 -39.5l85 -99t114 -129q172 -187 257 -262l-23 -26
q-95 89 -257 266q-32 35 -100.5 116t-93.5 107q-40 39 -59.5 37.5t-49.5 -40.5q-161 -202 -208 -257z" />
    <glyph glyph-name="uni307A" unicode="&#x307a;" 
d="M785 508q35 0 60 25.5t25 60.5t-25 60.5t-60 25.5q-36 0 -61 -25.5t-25 -60.5t25 -60.5t61 -25.5zM785 711q48 0 82.5 -34.5t34.5 -82.5t-34.5 -82.5t-82.5 -34.5q-49 0 -82.5 34t-33.5 83t33.5 83t82.5 34zM98 211l-29 30q20 14 61 55q21 21 51.5 57.5l53.5 65.5l58 74
l46 60q25 30 46.5 41.5t47.5 4t55 -39.5l85 -99t114 -129q172 -187 257 -262l-23 -26q-95 89 -257 266q-32 35 -100.5 116t-93.5 107q-40 39 -59.5 37.5t-49.5 -40.5q-161 -202 -208 -257z" />
    <glyph glyph-name="uni307B" unicode="&#x307b;" 
d="M198 764l40 -4q-10 -32 -12 -45q-52 -242 -52 -415q0 -102 14 -213q24 75 70 192l23 -18q-61 -159 -71 -206q-5 -24 -4 -43l4 -28l-31 -3q-36 135 -36 318q0 65 8.5 140.5t25.5 176.5t17 103q4 25 4 45zM702 136q0 8 -2 60q-58 14 -112 14q-66 0 -108 -24.5t-42 -64.5
q0 -94 150 -94q66 0 90 28.5t24 80.5zM924 490v-32q-100 -11 -205 -16q1 -42 9 -221q113 -35 222 -134l-19 -32q-86 91 -201 131q2 -64 2 -76q0 -55 -40 -84.5t-106 -29.5q-81 0 -129.5 32.5t-48.5 92.5q0 47 45 84t135 37q50 0 110 -14q0 11 -4.5 92.5t-5.5 120.5
q-135 -6 -258 1v33q115 -8 258 -3v5v200q-158 -6 -242 -1v33q113 -7 236.5 -2t216.5 17v-33q-53 -6 -180 -13v-198v-7q114 6 205 17z" />
    <glyph glyph-name="uni307C" unicode="&#x307c;" 
d="M168 749l40 -5q-7 -22 -11 -44q-54 -251 -54 -414q0 -98 16 -213q22 68 68 191l23 -17q-59 -154 -70 -206q-5 -25 -4 -43q0 -4 4 -29l-32 -3q-34 128 -34 319q0 50 6.5 118.5t12 107t18.5 116.5l13 78q4 25 4 44zM673 121q0 6 -2 60q-62 15 -114 15q-65 0 -106.5 -25
t-41.5 -65q0 -94 148 -94q66 0 91 29t25 80zM894 476v-33q-106 -11 -205 -15q1 -44 9 -222q116 -36 223 -133l-20 -32q-86 91 -201 131q2 -64 2 -77q0 -55 -40 -84t-107 -29q-82 0 -129.5 32t-47.5 92q0 46 45 83t134 37q59 0 112 -12q-11 179 -12 212q-136 -5 -257 1v34
q115 -8 257 -3v5v199q-141 -5 -240 0v32q191 -16 414 12q-17 38 -31 65l28 9q51 -99 68 -145l-32 -12q-10 28 -23 60v-9q-72 -7 -152 -11v-197v-7q111 6 205 17zM899 801l30 11q36 -66 67 -145l-31 -13q-36 99 -66 147z" />
    <glyph glyph-name="uni307D" unicode="&#x307d;" 
d="M168 749l40 -5q-7 -22 -11 -44q-54 -251 -54 -414q0 -98 16 -213q22 68 68 191l23 -17q-59 -154 -70 -206q-5 -25 -4 -43q0 -4 4 -29l-32 -3q-34 128 -34 319q0 50 6.5 118.5t12 107t18.5 116.5l13 78q4 25 4 44zM673 121q0 6 -2 60q-62 15 -114 15q-65 0 -106.5 -25
t-41.5 -65q0 -94 148 -94q66 0 91 29t25 80zM836 764q0 -31 20.5 -52t51.5 -21q30 0 52 21.5t22 51.5t-22 51.5t-52 21.5t-51 -21.5t-21 -51.5zM689 662v-196v-7q111 6 205 17v-33q-106 -11 -205 -15q1 -44 9 -222q116 -36 223 -133l-20 -32q-86 91 -201 131q2 -64 2 -77
q0 -55 -40 -84t-107 -29q-82 0 -129.5 32t-47.5 92q0 46 45 83t134 37q59 0 112 -12q-11 179 -12 212q-136 -5 -257 1v34q115 -8 257 -3v5v197q-115 -4 -240 2v32q202 -16 406 11q-18 26 -18 59q0 43 30 73.5t73 30.5t74 -30.5t31 -73.5t-31 -73.5t-74 -30.5q-55 0 -83 41
v-29q-46 -5 -136 -10z" />
    <glyph glyph-name="uni307E" unicode="&#x307e;" 
d="M537 104q0 11 -0.5 42.5t-0.5 50.5q-54 12 -112 12q-88 0 -137 -30t-49 -75q0 -101 174 -101q125 0 125 101zM871 58l-19 -29q-132 117 -285 160q3 -57 3 -85q0 -23 -6.5 -44t-22.5 -42t-49.5 -33.5t-79.5 -12.5q-99 0 -152 33t-53 98q0 62 59 99.5t161 37.5
q48 0 108 -12q-1 35 -3.5 101.5t-3.5 81.5q-20 -1 -61 -1q-129 0 -265 14v35q135 -19 265 -19q39 0 61 1q-1 18 -1 47v139q-17 -1 -53 -1q-127 0 -256 15v35q105 -20 255 -20q36 0 54 1v85q0 37 -2 53h37q-3 -20 -4 -64v-74q146 6 278 27v-34q-192 -18 -278 -22v-140v-46
q139 5 294 29v-34q-143 -20 -293 -25q1 -85 7 -191q152 -40 305 -163z" />
    <glyph glyph-name="uni307F" unicode="&#x307f;" 
d="M278 127q20 25 42.5 69.5t50.5 109t41 91.5q-129 -4 -205.5 -69t-76.5 -151q0 -40 23 -63t55 -23q39 0 70 36zM955 227l-15 -32q-50 43 -128 89q-29 -116 -93 -194.5t-180 -134.5l-28 23q212 88 273 321q-175 93 -340 98l-31 -70.5t-38.5 -86l-33.5 -67.5t-35 -59
q-41 -54 -98 -54q-46 0 -77.5 33t-31.5 82q0 108 92 180.5t236 72.5l59 128.5t71 149.5q-115 -8 -246 -14q-59 -5 -67 -6l-2 40q24 -2 67 -2q90 0 246 12q17 1 31 6l22 -19q-12 -14 -19 -27q-13 -20 -33.5 -61t-51 -109t-45.5 -99q162 -8 333 -96q10 47 15 116q2 32 2 76
l34 -3q-6 -115 -24 -205q78 -44 136 -88z" />
    <glyph glyph-name="uni3080" unicode="&#x3080;" 
d="M160 286q0 -50 24.5 -78.5t60.5 -28.5q49 0 73 52t24 121q0 42 -20 67.5t-51 25.5q-45 0 -78 -45.5t-33 -113.5zM784 251l35 -12q3 -70 2 -100q-2 -70 -30.5 -102t-83.5 -43q-89 -19 -200 -19q-128 0 -174 21.5t-46 81.5q0 9 3 81q-24 -11 -49 -11q-40 0 -76.5 34.5
t-36.5 105.5t40.5 129.5t104.5 58.5q26 0 49 -13v140q-9 0 -26.5 -0.5t-25.5 -0.5q-87 0 -157 11v34q80 -14 156 -14q19 0 53 2v93q0 42 -5 65h39q-4 -28 -4 -65v-91q97 10 208 37v-35q-127 -27 -208 -33v-172q23 -36 23 -79q0 -121 -53 -175q-5 -65 -5 -85q0 -38 11.5 -55
t52 -25.5t127.5 -8.5q120 0 188 18q46 13 70 39t24 83q0 52 -6 105zM703 659l22 23q43 -32 99.5 -85t89.5 -95l-24 -24q-30 42 -86.5 95.5t-100.5 85.5z" />
    <glyph glyph-name="uni3081" unicode="&#x3081;" 
d="M582 597h-12q-137 0 -258 -82q46 -125 80 -186q15 -28 44 -74l7 10t7 11q76 128 132 321zM236 86q83 0 182 141q-36 56 -51 84q-34 61 -80 185q-65 -51 -105 -128t-40 -148q0 -62 25.5 -98t68.5 -36zM616 782l38 -3q-3 -13 -6.5 -32t-4.5 -24q-8 -41 -23 -98
q125 -14 203.5 -99.5t78.5 -211.5q0 -141 -94.5 -230t-263.5 -111l-21 29q156 14 251.5 95.5t95.5 216.5q0 112 -71 190t-188 91q-64 -222 -139 -341q-3 -4 -8.5 -13l-8.5 -14q29 -44 67 -80l-24 -22q-36 41 -62 76q-105 -146 -202 -146q-55 0 -88.5 43.5t-33.5 121.5
q0 84 46 168t117 138q-22 64 -34 105q-15 53 -26 79l37 11l9 -37.5t10 -44.5q8 -30 30 -94q127 82 273 82h16q13 46 22 98q5 29 4 57z" />
    <glyph glyph-name="uni3082" unicode="&#x3082;" 
d="M719 415l39 7q109 -104 109 -226q0 -108 -86.5 -166t-225.5 -58q-97 0 -161 51t-64 163q0 51 9 132q-135 7 -229 39l2 34q93 -35 230 -40q3 33 27 226q-127 7 -233 33l3 34q96 -31 234 -38q10 84 14 130q3 29 0 54l41 -4q-4 -19 -8 -51q-6 -49 -17 -130h13q122 0 213 12
v-33q-117 -10 -212 -10h-17l-27 -225h29q137 0 220 12v-34q-109 -11 -219 -11h-33q-9 -90 -9 -127q0 -86 48 -136t144 -50q128 0 206 50.5t78 144.5q0 55 -29.5 113.5t-88.5 103.5z" />
    <glyph glyph-name="uni3083" unicode="&#x3083;" 
d="M573 527l-22 -22q-45 50 -110 96l24 21q60 -44 108 -95zM234 535l36 15q5 -12 20 -37q3 -5 59 -115q217 96 313 96q86 0 131 -41.5t45 -106.5q0 -67 -47 -108t-139 -41q-64 0 -124 25l3 33q62 -30 123 -30q84 0 119.5 35.5t35.5 86.5q0 47 -33.5 82t-113.5 35
q-96 0 -298 -93q6 -14 21 -44.5t21 -46.5q39 -88 120 -330l-34 -11q-67 223 -113 328q-5 12 -20 43t-22 48l-94.5 -46t-81.5 -39l-21 38q21 4 54 17q25 9 130 58q-40 80 -56 104q-24 36 -34 45z" />
    <glyph glyph-name="uni3084" unicode="&#x3084;" 
d="M598 685l-23 -22q-69 68 -132 114l24 20q81 -61 131 -112zM193 698l35 15q12 -24 32 -56l70 -136q260 115 379 115q93 0 147 -45.5t54 -123.5t-50.5 -129t-163.5 -51q-72 0 -146 28l1 35q68 -33 147 -33q100 0 141 44t41 108q0 58 -43 97t-129 39q-121 0 -364 -111
q8 -18 25 -53t25 -53q53 -118 149 -412l-37 -11q-77 273 -140 411q-9 20 -26.5 55t-23.5 49l-109.5 -52l-100.5 -47l-19 39q39 10 67 22q22 8 149 66q-47 95 -73 134q-15 29 -37 56z" />
    <glyph glyph-name="uni3085" unicode="&#x3085;" 
d="M622 482h-11q9 -85 9 -153q0 -140 -36 -234q18 -2 29 -2q104 0 160 56t56 146q0 82 -51 134.5t-156 52.5zM608 512h12q117 0 178 -61t61 -153q0 -103 -62.5 -169t-188.5 -66q-13 0 -37 4q-45 -90 -128 -138l-29 21q84 43 127 123q-102 28 -155 138l21 26
q49 -112 147 -137q36 86 36 228q0 84 -7 152q-114 -13 -195 -92.5t-107 -179.5q-10 -36 -9 -62q2 -28 15 -76l-30 -5q-27 99 -27 201q0 72 25 277q1 17 0 30l40 -4q-5 -15 -7 -27q-11 -57 -20.5 -158t-6.5 -153q32 112 121 188.5t197 89.5q-3 22 -12 61q-10 36 -12 40l36 2
q9 -38 17 -100z" />
    <glyph glyph-name="uni3086" unicode="&#x3086;" 
d="M625 621h-16q11 -105 11 -183q0 -176 -42 -288q4 0 12 -1t14.5 -1.5t12.5 -0.5q116 0 189 66t73 182q0 97 -66.5 161.5t-187.5 64.5zM606 651h17q133 0 209 -72.5t76 -180.5q0 -124 -76 -202.5t-221 -78.5q-25 0 -46 3q-51 -109 -153 -167l-29 18q102 52 153 156
q-125 34 -191 165l24 24q60 -134 179 -160q42 105 42 281q0 87 -9 181q-134 -16 -233.5 -110t-132.5 -216q-12 -40 -9 -76q4 -47 14 -91l-27 -6q-31 116 -31 243q0 52 5.5 116.5t14 132t8.5 72.5q1 19 0 34l38 -3q0 -4 -3 -15t-4 -19q-14 -77 -25 -197t-5 -182
q34 138 142.5 235t243.5 112q-6 52 -16 92q-5 29 -14 53l36 2q12 -51 23 -144z" />
    <glyph glyph-name="uni3087" unicode="&#x3087;" 
d="M493 71q0 10 -1.5 38t-1.5 42q-47 7 -78 7q-77 0 -124.5 -22.5t-47.5 -66.5q0 -37 40 -61t113 -24q48 0 74 24t26 63zM514 428v-54q0 -40 7 -199q149 -35 269 -141l-18 -32q-101 103 -250 141q2 -64 2 -81q0 -45 -33.5 -76t-95.5 -31q-88 0 -136.5 30t-48.5 84
q0 55 52.5 86.5t150.5 31.5q39 0 76 -6q-6 132 -6 193v181q0 51 -5 66h41q-5 -17 -5 -66v-96q155 2 270 17v-31q-125 -15 -270 -17z" />
    <glyph glyph-name="uni3088" unicode="&#x3088;" 
d="M502 116q0 38 -3 93q-55 12 -113 12q-96 0 -149 -30t-53 -82q0 -48 48.5 -77t138.5 -29q63 0 97 29t34 84zM520 539v-44q0 -24 8 -259q179 -45 323 -174l-20 -31q-56 57 -135 102t-166 69q2 -74 2 -97q0 -58 -41.5 -95.5t-114.5 -37.5q-104 0 -163 34.5t-59 102.5
q0 63 58 103.5t175 40.5q54 0 111 -11q-1 29 -3.5 83.5t-4 96.5t-1.5 73v206q0 57 -6 83h43q-6 -28 -6 -83v-131q176 2 317 21l1 -33q-163 -17 -318 -19z" />
    <glyph glyph-name="uni3089" unicode="&#x3089;" 
d="M337 744l9 34q61 -19 187.5 -45.5t191.5 -32.5l-8 -32q-69 9 -196.5 34.5t-183.5 41.5zM258 616l38 -4q-6 -37 -21.5 -162t-22.5 -164q148 147 358 147q102 0 170 -53.5t68 -139.5q0 -136 -132 -205.5t-376 -49.5l-9 34q239 -26 362.5 39t123.5 184q0 71 -58.5 115.5
t-147.5 44.5q-220 0 -345 -149q-14 -17 -23 -43l-37 8q14 60 31 193.5t21 204.5z" />
    <glyph glyph-name="uni308A" unicode="&#x308a;" 
d="M286 792l41 -1q-38 -130 -54 -354q27 109 113 203.5t186 94.5q96 0 154.5 -92t58.5 -244q0 -100 -31 -176.5t-88.5 -126.5t-129 -80t-163.5 -47l-20 30q401 60 401 398q0 86 -18.5 153.5t-61.5 111t-105 43.5q-63 0 -126.5 -53t-104.5 -126.5t-51 -141.5q-11 -67 0 -141
l-34 -3q-9 83 -9 152q0 108 34 331q4 30 8 69z" />
    <glyph glyph-name="uni308B" unicode="&#x308b;" 
d="M519 5q58 0 104 10q-9 73 -53.5 117t-116.5 44q-42 0 -71 -22t-29 -55q0 -44 47.5 -69t118.5 -25zM714 748l28 -29q-5 -3 -14 -10.5t-17 -13t-12 -9.5q-25 -20 -145 -126.5l-159 -139.5q80 31 182 31q122 0 199 -64t77 -160q0 -121 -94 -187t-239 -66q-96 0 -146.5 35
t-50.5 89q0 44 36.5 76.5t94.5 32.5q88 0 138.5 -53.5t61.5 -129.5q78 24 123 75.5t45 127.5q0 81 -70.5 136.5t-174.5 55.5q-126 0 -208 -42.5t-203 -155.5l-27 26l159 133l133 112l255 220q-233 -13 -368 -18q-43 -2 -53 -4l-1 38q17 -2 52 -2q42 0 186 5.5t179 9.5
q18 2 33 7z" />
    <glyph glyph-name="uni308C" unicode="&#x308c;" 
d="M982 139l9 -34q-86 -93 -181 -93q-45 0 -72 27t-27 77q0 60 20 207t20 197q0 92 -94 92q-65 0 -155 -58t-172 -148q-5 -93 -5 -155q0 -169 2 -226q1 -17 3 -47h-39q3 21 3 46v227q0 35 7 151q-43 -67 -205 -296l-23 30q45 57 122 165t109 161q6 83 8 126
q-20 -3 -97 -13.5l-113 -15.5l-4 39q18 -1 45 1q76 4 172 21q1 24 3 51t3 42.5t1 19.5q0 35 -4 60l46 -2q-8 -42 -19 -165q5 2 13 4l20 -20q-28 -42 -39 -63q-3 -31 -7 -95q70 71 162 131t163 60q60 0 93 -31.5t33 -91.5q0 -49 -21 -198.5t-21 -199.5q0 -34 16.5 -56
t49.5 -22q90 0 175 95z" />
    <glyph glyph-name="uni308D" unicode="&#x308d;" 
d="M259 684l-1 38q19 -2 59 -2q112 0 336 11q28 3 40 7l29 -29l-9.5 -6.5l-14 -10t-9.5 -7.5q-181 -148 -310 -264q99 43 201 43q117 0 192.5 -61.5t75.5 -162.5q0 -96 -69.5 -160t-177.5 -88.5t-240 -14.5l-10 35q125 -14 230.5 8t170.5 80.5t65 141.5q0 86 -65.5 138
t-173.5 52q-56 0 -106.5 -11.5t-87.5 -28t-78.5 -47.5t-69.5 -56.5t-71 -68.5l-26 26l177 159.5l214.5 184.5l132.5 113q-24 -1 -104 -4t-149 -6l-92 -4t-59 -5z" />
    <glyph glyph-name="uni308E" unicode="&#x308e;" 
d="M404 506l20 -18q-34 -54 -40 -66q-4 -38 -5 -64q67 62 139.5 94t134.5 32q89 0 152.5 -54.5t63.5 -144.5q0 -118 -80 -186.5t-220 -93.5l-14 32q128 18 206.5 79.5t78.5 169.5q0 27 -10.5 55t-31.5 54.5t-59.5 43.5t-87.5 17q-70 0 -142.5 -37t-132.5 -96q-2 -54 -2 -78
q0 -151 3 -229q0 -6 0.5 -18t1.5 -18h-37q2 12 2 35q0 252 2 303l-161 -242l-23 28q91 119 187 267q2 20 9 97q-22 -3 -86 -13.5l-87 -14.5l-5 36q8 0 19.5 0.5t13.5 0.5q66 5 148 19q2 19 5.5 55.5l4.5 46.5q1 13 1 48l43 -1q-8 -27 -23 -142q8 1 12 3z" />
    <glyph glyph-name="uni308F" unicode="&#x308f;" 
d="M358 630l20 -20q-28 -42 -39 -63q-3 -36 -7 -103q166 151 345 151q101 0 177 -65.5t77 -174.5q1 -73 -27.5 -131.5t-80.5 -97t-114 -63t-138 -38.5l-13 31q52 7 99.5 21.5t92.5 39.5t78 57.5t53 79.5t19 102q0 31 -12.5 65t-37 67.5t-71 54.5t-105.5 21
q-91 0 -180.5 -43.5t-163.5 -117.5q-5 -92 -5 -152q0 -169 2 -226q1 -17 3 -47h-39q3 21 3 46v227q0 35 7 151q-43 -67 -205 -296l-23 30q45 57 122 165t109 161q6 83 8 126q-20 -3 -97 -13.5l-113 -15.5l-4 39q18 -1 45 1q76 4 172 21q1 24 3 51t3 42.5t1 19.5q0 35 -4 60
l46 -2q-8 -42 -19 -165q5 2 13 4z" />
    <glyph glyph-name="uni3090" unicode="&#x3090;" 
d="M590 7q70 0 128 25q-45 138 -159 138q-42 0 -69.5 -21t-27.5 -54q0 -41 36.5 -64.5t91.5 -23.5zM402 325q31 78 64 184q-135 -39 -227 -149t-92 -217q0 -39 18 -60.5t43 -21.5q41 0 71 29q56 58 123 235zM541 760l30 -21q-11 -18 -14 -28l-20 -68.5l-27 -91.5q38 6 76 6
q140 0 220.5 -85.5t80.5 -212.5q0 -54 -17 -103t-51 -90t-92.5 -65.5t-135.5 -24.5q-75 0 -118 32.5t-43 85.5q0 47 37 77t90 30q134 0 189 -155q109 65 109 211q0 114 -72 191t-201 77q-39 0 -82 -8q-35 -114 -69 -204q-62 -171 -128 -241q-39 -42 -95 -42q-39 0 -65 28.5
t-26 83.5q0 126 105 245t255 157q37 117 49 177q-8 -1 -126.5 -8.5t-170.5 -13.5l-2 41q39 -3 59 -2q78 2 208 11q31 3 47 11z" />
    <glyph glyph-name="uni3091" unicode="&#x3091;" 
d="M351 372q0 -60 110 -73q36 12 62 33.5t26 44.5q0 28 -27 43t-68 15q-40 0 -71.5 -16t-31.5 -47zM685 768l26 -29q-40 -15 -266 -150q67 16 136 16q93 0 159.5 -41.5t66.5 -120.5q0 -83 -82 -131t-199 -48q-52 0 -87 7q-66 -43 -138 -106q74 13 123 -22t73 -102
q25 60 80.5 103t117.5 43q74 0 135 -54.5t102 -147.5l-34 -16q-37 93 -90 140.5t-115 47.5q-53 0 -101.5 -39t-70.5 -100q-2 -6 -3.5 -13.5t-2.5 -16t-2 -11.5h-33q-3 30 -7 40q-41 123 -141 123q-53 0 -106 -44.5t-116 -122.5l-32 20q70 78 161 159t160 129q-80 28 -80 91
q0 42 43 68t94 26q55 0 90.5 -23.5t35.5 -65.5q0 -49 -65 -82h10q100 0 174 40t74 107q0 63 -57.5 99t-139.5 36q-113 0 -187 -31q-77 -33 -212 -131l-23 25q147 106 470 288q-297 -8 -360 -13l-2 39q2 0 21 -1.5t28 -1.5q94 0 310 9q45 2 62 8z" />
    <glyph glyph-name="uni3092" unicode="&#x3092;" 
d="M543 322l-2 -1q-95 -49 -148.5 -98.5t-53.5 -107.5q0 -30 13 -51t31.5 -32.5t50 -18t58.5 -8t66 -1.5q121 0 265 21l-1 -35q-146 -17 -267 -17q-54 0 -95 6t-77 20.5t-55.5 43t-19.5 70.5q0 71 60 126t169 112l5 3v6q-1 39 -29.5 62.5t-75.5 23.5q-103 0 -191 -78
q-4 -3 -91 -101l-31 23q162 162 243 340v1q-25 -1 -72 -1q-69 0 -162 5v36q84 -9 164 -9q54 0 82 1q29 80 33 135l33 -3q-17 -81 -33 -131q194 7 331 31v-33q-154 -25 -343 -30l-3 -7q-39 -102 -121 -203q74 55 166 55q55 0 91.5 -28.5t39.5 -78.5q48 23 129 58t107 47
q20 8 54 27l16 -35q-13 -4 -59 -22q-169 -68 -247 -107q0 -105 2 -209h-35q3 71 3 193z" />
    <glyph glyph-name="uni3093" unicode="&#x3093;" 
d="M500 785l38 -15q-23 -34 -33 -51q-107 -182 -215 -390q83 91 182 91q47 0 80 -30.5t34 -84.5q1 -37 1.5 -107t1.5 -99q1 -44 27.5 -66t69.5 -22q39 0 75.5 18t62 45t47 62.5t34.5 67t21 61.5l26 -20q-44 -126 -108.5 -195t-161.5 -69q-37 0 -63 11t-38.5 30t-17.5 37
t-6 38q-1 31 -1 102t-2 106q-2 40 -25 62t-64 22q-65 0 -130.5 -53t-100.5 -119q-25 -44 -57 -120.5t-41 -113.5l-34 12q70 197 373 736q20 40 25 54z" />
    <glyph glyph-name="uni309B" unicode="&#x309b;" 
d="M17 790l27 11q30 -41 100 -161l-28 -13q-56 106 -99 163zM142 837l27 11q35 -48 100 -160l-28 -13q-65 119 -99 162z" />
    <glyph glyph-name="uni309C" unicode="&#x309c;" 
d="M57 644q-33 33 -33 80t32.5 80.5t79.5 33.5t80 -33.5t33 -80.5t-33 -80t-80 -33t-79 33zM52 724q0 -32 25.5 -57.5t58.5 -25.5t58.5 25.5t25.5 57.5q0 33 -25.5 58t-58.5 25t-58.5 -25t-25.5 -58z" />
    <glyph glyph-name="uni309D" unicode="&#x309d;" 
d="M740 238l-10 -26q-95 -32 -295 -114l-15 29l139 54.5l140 55.5q-47 70 -147 179t-192 194l27 21q94 -87 193.5 -199.5t159.5 -193.5z" />
    <glyph glyph-name="uni309E" unicode="&#x309e;" 
d="M553 686l30 13q36 -49 96 -152l-32 -16q-53 102 -94 155zM681 728l30 13q41 -56 96 -151l-32 -16q-62 114 -94 154zM699 218l-10 -25q-95 -32 -295 -114l-15 29l140 54.5t139 54.5q-47 70 -147 179.5t-192 194.5l27 20q94 -87 193.5 -199.5t159.5 -193.5z" />
    <glyph glyph-name="uni30A1" unicode="&#x30a1;" 
d="M488 420h37q0 -131 -17.5 -212.5t-68.5 -149t-147 -120.5l-35 27q29 9 57 26q58 38 95 83t54.5 96.5t23 96t5.5 104.5q0 13 -4 49zM844 542l18 -18q-2 -3 -6 -8.5t-5 -7.5q-102 -165 -212 -236l-31 22q58 31 115.5 94.5t90.5 118.5l-535 1q-47 0 -85 -3v39q42 -5 85 -5
h537q14 0 28 3z" />
    <glyph glyph-name="uni30A2" unicode="&#x30a2;" 
d="M493 559h35q0 -122 -10.5 -203t-41 -155t-87.5 -126t-147 -93l-31 25q33 10 76 35q54 30 93 72t61 84.5t34.5 98t16 101.5t3.5 105q0 36 -2 56zM909 713l21 -22l-7 -7q-7 -8 -10 -13q-35 -61 -105 -142.5t-158 -141.5l-29 24q74 41 150 122t109 145h-633q-44 0 -108 -4
v42q56 -7 108 -7h624q18 0 38 4z" />
    <glyph glyph-name="uni30A3" unicode="&#x30a3;" 
d="M744 592l26 -24q-38 -41 -102.5 -93.5t-131.5 -94.5v-381q0 -51 3 -68h-37q3 33 3 68v362l-15 -8q-161 -89 -339 -143l-20 33q173 39 349 141q75 43 150 102t114 106z" />
    <glyph glyph-name="uni30A4" unicode="&#x30a4;" 
d="M830 773l27 -25q-49 -52 -124.5 -113.5t-153.5 -110.5v-457q0 -56 4 -84h-39q4 28 4 84v439q-176 -105 -417 -180l-20 33q117 30 238.5 82.5t211.5 108.5q80 50 154 111t115 112z" />
    <glyph glyph-name="uni30A5" unicode="&#x30a5;" 
d="M805 482l20 -12q-3 -8 -8 -35q-21 -156 -77 -254q-98 -172 -347 -239l-28 27q23 3 68 17q95 34 163 79.5t114 124.5q33 56 52.5 128.5t23.5 130.5h-537v-171q0 -26 3 -38h-37q3 24 3 38v142q0 37 -3 61q38 -2 75 -2h198v91q0 24 -3 47h38q-3 -15 -3 -47v-91h241
q26 0 44 3z" />
    <glyph glyph-name="uni30A6" unicode="&#x30a6;" 
d="M853 638l23 -15q-7 -15 -11 -42q-9 -69 -36 -163.5t-69 -161.5q-119 -196 -392 -272l-27 29q20 3 67 17q94 27 183.5 91.5t139.5 146.5q41 69 70 166.5t34 166.5h-636v-216q0 -29 3 -46h-37q3 15 3 45v182q0 50 -3 70q50 -4 87 -4h234v112q0 32 -3 60h38q-4 -25 -4 -60
v-112h281q39 0 55 6z" />
    <glyph glyph-name="uni30A7" unicode="&#x30a7;" 
d="M525 47h273q30 0 59 3v-37q-38 2 -59 2h-568q-16 0 -62 -2v37q33 -3 62 -3h265v423h-219q-40 0 -60 -2v36q33 -3 59 -3h476q13 0 64 3v-36q-18 2 -64 2h-226v-423z" />
    <glyph glyph-name="uni30A8" unicode="&#x30a8;" 
d="M524 95h330q22 0 74 4v-38q-35 4 -74 4h-678q-22 0 -80 -4v38q37 -4 80 -4h317v525h-263q-24 0 -74 -4v38q36 -4 74 -4h568q40 0 80 4v-38q-44 4 -80 4h-274v-525z" />
    <glyph glyph-name="uni30A9" unicode="&#x30a9;" 
d="M642 458h175q37 0 53 3v-37q-33 3 -54 3h-174l3 -250.5t2 -170.5q0 -25 -15 -37.5t-39 -12.5q-32 0 -137 6l-2 34q66 -11 133 -11q28 0 28 28q0 113 -4 375q-52 -82 -160 -179.5t-222 -157.5l-24 25q118 58 231.5 160t166.5 191h-329q-29 0 -59 -3v37q24 -3 59 -3h336
l-2 104q0 25 -5 53h41q-3 -18 -3 -53z" />
    <glyph glyph-name="uni30AA" unicode="&#x30aa;" 
d="M646 591h196q36 0 68 4v-38q-48 3 -69 3h-194q5 -398 5 -512q0 -61 -71 -61q-65 0 -151 6l-2 36q79 -14 153 -14q24 0 32.5 9.5t8.5 30.5q0 66 -5 466q-65 -100 -199 -222.5t-279 -199.5l-23 27q152 76 289 202t203 232h-397q-33 0 -76 -3v38q41 -4 76 -4h405
q0 23 -0.5 54t-1 47.5t-0.5 23.5q-2 45 -7 66h43q-5 -40 -5 -66q0 -2 0.5 -45t0.5 -80z" />
    <glyph glyph-name="uni30AB" unicode="&#x30ab;" 
d="M831 598l28 -14q-3 -19 -5 -46q-14 -394 -63 -488q-24 -46 -89 -46t-158 5l-4 34q88 -9 160 -9q47 0 62 31q31 60 45.5 218t14.5 281h-343q-13 -117 -41 -209.5t-70 -159.5t-89 -114.5t-110 -89.5l-30 24q25 12 75 52q200 162 238 497h-209q-72 0 -102 -3v38
q58 -4 101 -4h213q5 62 5 119q0 46 -5 76h40q-4 -43 -5 -75q-1 -45 -7 -120h296q22 0 52 3z" />
    <glyph glyph-name="uni30AC" unicode="&#x30ac;" 
d="M463 583h296q22 0 52 3l28 -15q-3 -19 -5 -46q-14 -390 -64 -487q-14 -26 -34 -36t-54 -10q-66 0 -159 5l-4 34q89 -9 161 -9q47 0 61 30q32 60 46.5 219.5t14.5 280.5h-343q-13 -117 -41.5 -209.5t-70.5 -160t-89 -115t-110 -89.5l-29 25q28 13 75 51q199 161 237 498
h-209q-71 0 -101 -3v38q58 -4 100 -4h213q5 62 5 118q0 46 -5 76h40q-2 -21 -4 -75q-1 -43 -7 -119zM727 772l28 13q49 -68 86 -140l-29 -14q-32 69 -85 141zM831 808l27 13q57 -76 89 -139l-28 -14q-44 84 -88 140z" />
    <glyph glyph-name="uni30AD" unicode="&#x30ad;" 
d="M899 386l7 -37q-6 -1 -77 -12q-20 -3 -72 -11.5l-106.5 -17l-103.5 -16.5l22 -105l17.5 -85.5t7.5 -35.5q16 -66 24 -86l-39 -10q-8 49 -17 89q-5 34 -45 228l-306 -50q-33 -6 -79 -18l-8 42q36 2 75 7q120 15 312 48q-8 44 -25.5 128.5t-23.5 118.5l-251 -40
q-36 -6 -72 -13l-8 42q24 1 76 6q57 6 248 36q-19 104 -26 123q-5 28 -16 62l38 8q0 -3 9 -62q6 -36 24 -126q110 17 272 46q27 5 51 12l8 -37q-3 0 -10.5 -1.5t-19.5 -3.5t-22 -4l-273 -43l51 -246l282 48q58 10 76 16z" />
    <glyph glyph-name="uni30AE" unicode="&#x30ae;" 
d="M845 680l-29 -14q-32 69 -85 141l28 13q49 -68 86 -140zM468 551l50 -247l283 48q51 9 76 17l7 -37q-7 -1 -32 -5.5t-45 -7.5l-72 -11.5l-107.5 -17l-103.5 -16.5l22 -105l17.5 -85.5t7.5 -35.5q14 -59 25 -86l-40 -9q-10 62 -16 89q-4 31 -45 227l-307 -50
q-40 -7 -78 -17l-9 42q35 2 75 7q120 15 312 48q-8 44 -25.5 128.5t-23.5 118.5l-251 -40q-31 -5 -71 -13l-8 42q21 1 75 6q57 6 248 36q-20 108 -25 122q-4 24 -17 63l38 8q0 -3 9 -62q1 -6 25 -126q104 16 271 46q27 5 51 12l9 -38q-20 -2 -53 -8zM836 843l26 13
q57 -76 89 -139l-28 -15q-47 91 -87 141z" />
    <glyph glyph-name="uni30AF" unicode="&#x30af;" 
d="M834 662l30 -18q-6 -10 -13 -36q-22 -89 -70.5 -186t-113.5 -177q-146 -179 -403 -269l-27 27q247 70 405 260q64 78 112.5 176t68.5 185h-403q-103 -154 -261 -257l-28 20q118 69 203.5 172.5t121.5 190.5q12 26 17 55l39 -13l-15.5 -31t-12.5 -26q-18 -37 -45 -81h349
q30 0 46 8z" />
    <glyph glyph-name="uni30B0" unicode="&#x30b0;" 
d="M388 628h349q31 0 45 7l31 -18q-6 -11 -13 -35q-22 -88 -71 -186t-114 -178q-145 -178 -402 -268l-28 26q247 70 406 261q65 78 113 175.5t68 184.5h-403q-103 -154 -261 -257l-28 20q118 69 203 172.5t121 190.5q14 30 18 55l39 -13l-28 -56q-18 -37 -45 -81zM741 786
l28 14q48 -66 86 -141l-29 -14q-32 69 -85 141zM846 822l26 14q59 -78 90 -140l-29 -14q-46 88 -87 140z" />
    <glyph glyph-name="uni30B1" unicode="&#x30b1;" 
d="M316 589h527q59 0 85 4v-37q-52 2 -85 2h-203q-5 -115 -29.5 -208.5t-66.5 -162.5t-92.5 -119t-116.5 -92l-36 26q29 9 70 39q228 168 240 517h-308q-31 -60 -82 -125t-93 -98l-33 19q50 34 103.5 104t83.5 126q37 70 56 146q6 26 9 58l40 -7l-18 -60q-25 -79 -51 -132z
" />
    <glyph glyph-name="uni30B2" unicode="&#x30b2;" 
d="M853 649l-29 -14q-32 69 -85 141l28 14q48 -66 86 -141zM296 571h526q59 0 85 4v-36q-52 2 -85 2h-202q-10 -222 -89 -358t-217 -224l-35 26q27 9 69 39q229 169 241 517h-308q-31 -59 -82.5 -125t-93.5 -99l-32 20q50 34 103 103.5t83 125.5q37 69 56 147q8 32 10 58
l40 -7l-19 -61q-27 -84 -50 -132zM844 812l26 13q57 -76 89 -139l-28 -14q-46 88 -87 140z" />
    <glyph glyph-name="uni30B3" unicode="&#x30b3;" 
d="M845 5h-36q2 30 2 61h-532q-35 0 -101 -3v39q42 -5 100 -5h533v544h-521q-42 0 -99 -3v39q50 -5 98 -5h492q39 0 63 1q-2 -44 -2 -64v-527z" />
    <glyph glyph-name="uni30B4" unicode="&#x30b4;" 
d="M824 699l-28 -14q-36 73 -84 137l27 13q34 -47 85 -136zM826 581v-528l3 -77h-35q2 30 2 61h-533q-56 0 -100 -2v39q43 -5 99 -5h534v543h-522q-41 0 -98 -3v39q50 -5 97 -5h493q38 0 62 1q-2 -44 -2 -63zM833 848l27 12q40 -53 86 -134l-28 -13q-59 103 -85 135z" />
    <glyph glyph-name="uni30B5" unicode="&#x30b5;" 
d="M709 557h149l75 4v-38q-38 3 -75 3h-149v-38q0 -223 -57.5 -333.5t-219.5 -184.5l-28 27q57 24 96 47.5t75 61t57 86.5t33.5 121t12.5 167v46h-340v-192l3 -78h-38q4 46 4 78v192h-134l-94 -3v38q58 -4 94 -4h134v161l-3 56h37q-3 -25 -3 -55v-162h340v149l-4 72h39
q-4 -33 -4 -72v-149z" />
    <glyph glyph-name="uni30B6" unicode="&#x30b6;" 
d="M861 622l-31 -12q-26 76 -64 147l29 9q42 -79 66 -144zM688 537h150l74 4v-38q-37 3 -74 3h-150v-38q0 -223 -57 -333.5t-219 -184.5l-28 26q57 24 95.5 48t75 61.5t57 86.5t33 121t12.5 167v46h-340v-193l4 -77h-38q4 45 4 77v193h-134l-95 -3v38q59 -4 95 -4h134v160
l-3 57h37q-4 -26 -4 -56v-161h340v148l-4 73h39q-4 -34 -4 -73v-148zM863 786l30 10q43 -79 68 -144l-32 -11q-35 94 -66 145z" />
    <glyph glyph-name="uni30B7" unicode="&#x30b7;" 
d="M283 737l17 26q38 -22 110.5 -71.5t101.5 -71.5l-20 -27q-29 25 -97.5 72t-111.5 72zM201 -6l-19 32q84 14 175.5 47t163.5 75q244 143 377 367l21 -30q-63 -101 -163 -197t-218 -166q-136 -81 -337 -128zM132 509l18 27q147 -82 215 -133l-19 -28q-33 25 -103 69
t-111 65z" />
    <glyph glyph-name="uni30B8" unicode="&#x30b8;" 
d="M692 729l28 13q56 -78 97 -160l-29 -15q-42 90 -96 162zM819 777l27 14q48 -62 100 -160l-28 -15q-50 98 -99 161zM271 727l18 26q37 -22 110 -71.5t102 -72.5l-21 -26q-29 25 -97.5 72t-111.5 72zM189 -16l-18 31q181 31 339 123q244 143 377 367l20 -30
q-63 -101 -163 -197t-218 -166q-136 -81 -337 -128zM121 499l17 26q152 -85 215 -132l-18 -28q-33 25 -103 69t-111 65z" />
    <glyph glyph-name="uni30B9" unicode="&#x30b9;" 
d="M764 693l20 -17q-9 -11 -14 -26q-29 -78 -79.5 -167t-104.5 -152q158 -134 312 -319l-26 -22q-61 76 -145 165t-161 154q-203 -217 -414 -311l-25 27q223 91 424 314q56 63 111 155.5t76 163.5h-450l-86 -3v39q53 -5 86 -5h429q32 0 47 4z" />
    <glyph glyph-name="uni30BA" unicode="&#x30ba;" 
d="M849 675l-29 -15q-33 72 -85 142l28 13q49 -68 86 -140zM743 682l21 -17q-9 -11 -14 -26q-29 -77 -80 -167t-105 -153q164 -139 313 -318l-26 -23q-155 192 -306 320q-202 -216 -415 -311l-25 26q222 90 424 315q56 63 111.5 156t76.5 163h-451l-86 -3v39q53 -5 86 -5
h429q32 0 47 4zM840 838l26 13q57 -76 89 -139l-28 -15q-47 91 -87 141z" />
    <glyph glyph-name="uni30BB" unicode="&#x30bb;" 
d="M656 268l-29 19q59 55 115.5 136.5t85.5 142.5l-460 -93v-339q0 -58 34.5 -79t132.5 -21q175 0 315 26l-2 -36q-147 -21 -326 -21q-106 0 -145.5 30t-39.5 94v340l-256 -52l-7 37q61 7 263 47v204q0 42 -5 71h41q-5 -36 -5 -71v-198q273 53 455 92q26 5 36 12l23 -17
q-4 -5 -18 -27q-118 -202 -208 -297z" />
    <glyph glyph-name="uni30BC" unicode="&#x30bc;" 
d="M855 652l-29 -14q-32 69 -85 141l28 14q48 -66 86 -141zM355 687v-199q240 46 456 93q26 5 36 12l22 -18q-3 -3 -17 -26q-118 -202 -208 -297l-30 18q59 55 116 137t86 143l-461 -93v-339q0 -58 34.5 -79.5t132.5 -21.5q171 0 316 27l-2 -37q-140 -20 -326 -20
q-106 0 -145.5 30t-39.5 94v340l-104.5 -21.5l-97.5 -20l-54 -11.5l-8 37q63 7 264 47v205q0 36 -6 71h41q-5 -36 -5 -71zM846 815l26 13q60 -80 90 -139l-29 -14q-46 88 -87 140z" />
    <glyph glyph-name="uni30BD" unicode="&#x30bd;" 
d="M322 -10l-30 24q231 93 373 310q101 155 134 358q4 28 4 44l38 -5q-9 -26 -11 -42q-41 -222 -138 -372q-142 -217 -370 -317zM158 691l28 15q42 -62 168 -281l-28 -16q-26 52 -82 146.5t-86 135.5z" />
    <glyph glyph-name="uni30BE" unicode="&#x30be;" 
d="M306 -30l-30 25q102 43 185 107t134.5 127.5t90 138.5t57 131.5t29.5 115.5q6 42 6 44l38 -7q-2 -4 -12 -40q-16 -72 -37 -134.5t-61 -138t-91 -138t-131 -124.5t-178 -107zM141 672l29 14q46 -67 168 -280l-29 -17q-27 53 -82.5 147.5t-85.5 135.5zM712 822l27 13
q34 -47 85 -136l-28 -14q-36 73 -84 137zM833 848l27 12q40 -53 86 -134l-28 -13q-59 103 -85 135z" />
    <glyph glyph-name="uni30BF" unicode="&#x30bf;" 
d="M836 676l30 -18q-6 -11 -13 -35q-47 -181 -160 -330l102 -68l-21 -26q-36 27 -99 68l-7 -8q-152 -187 -418 -283l-28 26q122 36 234 110.5t187 165.5l5 7q-136 85 -257 151l20 23q97 -49 257 -150q112 148 157 329h-403q-108 -162 -271 -272l-28 20q119 72 207.5 178.5
t124.5 193.5q14 30 18 55l38 -13l-15.5 -31t-12.5 -26q-8 -16 -42 -74h350q31 0 45 7z" />
    <glyph glyph-name="uni30C0" unicode="&#x30c0;" 
d="M400 645h350q31 0 45 7l30 -17q-6 -10 -13 -36q-47 -181 -160 -330l102 -67l-21 -27q-47 35 -99 69l-7 -8q-152 -187 -418 -283l-28 25q122 36 234 110.5t187 165.5l5 7q-147 92 -257 152l20 22q105 -53 257 -149q112 149 157 328h-403q-108 -162 -271 -272l-28 20
q119 72 207.5 178.5t124.5 193.5q13 29 18 56l38 -14l-28 -56q-10 -21 -42 -75zM741 797l28 13q49 -68 86 -140l-29 -15q-33 72 -85 142zM846 833l26 13q60 -80 90 -139l-29 -15q-47 91 -87 141z" />
    <glyph glyph-name="uni30C1" unicode="&#x30c1;" 
d="M546 442h307q40 0 70 3v-36q-25 3 -69 3h-308q-3 -161 -64 -262t-197 -175l-30 24q128 61 192 158t68 255h-327q-52 0 -87 -3v37q34 -4 85 -4h329v229q-136 -15 -322 -17l-9 34q136 -9 339 15q64 8 149 25.5t121 31.5l23 -30q-4 -1 -16.5 -4.5l-19.5 -5.5
q-142 -33 -234 -45v-233z" />
    <glyph glyph-name="uni30C2" unicode="&#x30c2;" 
d="M516 429h307q40 0 70 3v-37q-25 3 -69 3h-308q-3 -161 -64 -261.5t-197 -174.5l-30 24q128 61 192 157.5t68 254.5h-326q-53 0 -87 -3v38q34 -4 85 -4h328v228q-126 -14 -322 -16l-8 34q136 -9 339 15q65 8 149.5 25t119.5 31l23 -29q-4 -1 -16 -4.5l-19 -5.5
q-141 -33 -235 -45v-233zM837 501l-29 -15q-36 77 -83 140l28 13q49 -69 84 -138zM827 662l27 13q45 -59 87 -137l-29 -15q-44 86 -85 139z" />
    <glyph glyph-name="uni30C3" unicode="&#x30c3;" 
d="M443 560l30 11q63 -164 77 -217l-30 -12q-6 30 -34 107t-43 111zM804 541l33 -11q-6 -16 -9 -25q-47 -205 -149 -331q-125 -155 -326 -231l-27 27q94 29 178.5 86t147.5 134q121 147 152 351zM206 509l28 13q62 -145 92 -228l-30 -11q-11 37 -44.5 120t-45.5 106z" />
    <glyph glyph-name="uni30C4" unicode="&#x30c4;" 
d="M420 731l29 10q16 -36 51 -132t45 -131l-31 -10q-11 42 -44.5 137t-49.5 126zM855 703l37 -11q-5 -13 -10 -36q-56 -233 -170 -383q-76 -100 -183.5 -177t-217.5 -113l-25 26q113 34 217.5 108t181.5 173q134 174 170 413zM132 670l31 12q37 -80 111 -274l-31 -12
q-12 42 -53.5 143t-57.5 131z" />
    <glyph glyph-name="uni30C5" unicode="&#x30c5;" 
d="M399 711l29 10q16 -36 51 -132t45 -131l-30 -11q-11 42 -45 137.5t-50 126.5zM825 640l37 -11q-5 -13 -10 -36q-28 -101 -64.5 -181.5t-96.5 -158.5q-76 -101 -183 -178t-217 -113l-26 27q114 34 219 108t181 172q129 168 160 371zM112 649l30 13q41 -86 112 -275
l-32 -11q-12 43 -53 143.5t-57 129.5zM725 822l28 13q34 -47 85 -136l-29 -14q-36 73 -84 137zM846 848l27 12q40 -53 86 -134l-28 -13q-59 103 -85 135z" />
    <glyph glyph-name="uni30C6" unicode="&#x30c6;" 
d="M727 695h-416q-45 0 -78 -3v38q52 -4 76 -4h418q48 0 81 4v-38q-39 3 -81 3zM188 474h670q32 0 67 3v-36q-38 2 -67 2h-309q-2 -200 -56 -298q-29 -49 -82 -96.5t-116 -79.5l-31 25q141 62 201 167q33 54 43 119t11 163h-331q-51 0 -79 -2v36q39 -3 79 -3z" />
    <glyph glyph-name="uni30C7" unicode="&#x30c7;" 
d="M886 680l-29 -14q-32 69 -85 141l28 13q49 -68 86 -140zM674 689h-372q-45 0 -78 -3v38q52 -4 76 -4h374q48 0 81 4v-38q-39 3 -81 3zM179 468h670q31 0 66 3v-36q-38 2 -66 2h-309q-2 -199 -57 -298q-29 -49 -82 -96.5t-115 -79.5l-31 25q141 62 201 167q33 54 43 119
t11 163h-331q-52 0 -80 -2v36q39 -3 80 -3zM877 843l26 13q57 -76 89 -139l-28 -15q-47 91 -87 141z" />
    <glyph glyph-name="uni30C8" unicode="&#x30c8;" 
d="M846 324l-13 -32q-82 46 -211 97t-223 78l1 -384q0 -74 3 -100h-37q3 26 3 100v602q0 55 -5 90h40q-5 -45 -5 -90v-184q231 -71 447 -177z" />
    <glyph glyph-name="uni30C9" unicode="&#x30c9;" 
d="M739 558l-28 -14q-37 79 -93 154l28 14q53 -73 93 -154zM366 673v-185q228 -70 446 -177l-13 -31q-82 46 -210.5 97t-222.5 78l1 -384q0 -75 3 -101h-38q3 26 3 101v602q0 55 -5 90h41q-5 -45 -5 -90zM732 745l27 14q47 -61 96 -153l-29 -14q-48 93 -94 153z" />
    <glyph glyph-name="uni30CA" unicode="&#x30ca;" 
d="M555 528h314q46 0 66 2v-33q-10 1 -67 1h-313v-36q0 -170 -68.5 -287.5t-206.5 -193.5l-32 23q276 135 276 458v36h-337q-66 0 -76 -1v34q30 -3 75 -3h338v163q0 57 -6 84h42q-5 -45 -5 -84v-163z" />
    <glyph glyph-name="uni30CB" unicode="&#x30cb;" 
d="M101 85v40q60 -4 86 -4h639q41 0 74 4v-40q-38 3 -74 3h-639q-15 0 -29 -0.5t-30.5 -1.5t-26.5 -1zM191 602v36q3 0 32.5 -1.5t48.5 -1.5h454q48 0 88 3v-36q-27 2 -88 2h-454q-25 0 -81 -2z" />
    <glyph glyph-name="uni30CC" unicode="&#x30cc;" 
d="M818 99l-23 -26q-91 86 -207 173q-81 -93 -184 -163t-210 -110l-30 28q107 31 213 102.5t185 161.5q-159 118 -297 189l20 23q141 -74 298 -189q61 75 108 173t69 195h-470q-32 0 -86 -2v37q54 -4 86 -4h455q25 0 37 5l22 -18q-13 -21 -20 -44q-23 -91 -73.5 -193
t-103.5 -168q113 -83 211 -170z" />
    <glyph glyph-name="uni30CD" unicode="&#x30cd;" 
d="M541 365l-7 -6q0 -44 -1 -150t-1 -141q0 -17 5 -97h-40q5 53 5 97q0 34 0.5 134t0.5 138q-146 -90 -378 -161l-21 31q236 61 413 176q72 47 141 111.5t103 110.5h-480q-72 0 -117 -3v39q45 -5 117 -5h224v80q0 60 -5 85h41q-5 -25 -5 -85v-80h215q34 0 44 4l22 -21
q-25 -25 -36 -38q-42 -51 -106 -111.5t-134 -107.5zM649 315l23 23q117 -62 248 -149l-23 -26q-148 102 -248 152z" />
    <glyph glyph-name="uni30CE" unicode="&#x30ce;" 
d="M788 724l-21 -66q-82 -237 -182 -368q-70 -91 -173 -166t-210 -120l-28 29q110 38 213 111.5t173 164.5q68 89 119 202t74 223z" />
    <glyph glyph-name="uni30CF" unicode="&#x30cf;" 
d="M259 311q33 73 63.5 182.5t41.5 188.5l33 -6q-6 -20 -13 -47q-56 -236 -98 -333q-62 -141 -152 -270l-31 13q87 115 156 272zM763 369q-86 206 -149 311l30 11q84 -155 148 -312q71 -170 127 -344l-31 -9q-31 112 -125 343z" />
    <glyph glyph-name="uni30D0" unicode="&#x30d0;" 
d="M741 766l28 13q49 -68 86 -140l-29 -14q-32 69 -85 141zM846 802l26 13q60 -80 90 -139l-29 -14q-46 88 -87 140zM249 297q33 72 63 181.5t41 189.5l34 -6q-5 -16 -13 -48q-54 -229 -99 -332q-65 -147 -151 -271l-31 14q87 115 156 272zM753 354q-87 209 -149 312l30 11
q80 -148 147 -312q70 -166 127 -345l-30 -9q-31 112 -125 343z" />
    <glyph glyph-name="uni30D1" unicode="&#x30d1;" 
d="M782 691q0 -31 22 -53.5t54 -22.5t54.5 22.5t22.5 53.5t-22.5 54t-54.5 23q-31 0 -53.5 -22.5t-22.5 -54.5zM783 616q-31 31 -31 75t31 76t75 32t76 -32t32 -76t-32 -75t-76 -31t-75 31zM249 297q33 72 63 181.5t41 189.5l34 -6q-5 -16 -13 -48q-54 -229 -99 -332
q-65 -147 -151 -271l-31 14q87 115 156 272zM753 354q-87 209 -149 312l30 11q80 -148 147 -312q70 -166 127 -345l-30 -9q-31 112 -125 343z" />
    <glyph glyph-name="uni30D2" unicode="&#x30d2;" 
d="M295 406v-262q0 -43 17.5 -60.5t59.5 -26.5q57 -10 152 -10q228 0 344 31v-38q-148 -22 -344 -22q-102 0 -155 9q-55 10 -80 33.5t-25 79.5v570q0 38 -5 59h40q-4 -34 -4 -59v-270q96 22 225.5 63t217.5 80q44 20 69 38l17 -35q-2 -1 -29.5 -13.5t-44.5 -18.5
q-160 -68 -455 -148z" />
    <glyph glyph-name="uni30D3" unicode="&#x30d3;" 
d="M821 635l-28 -14q-32 69 -85 141l27 13q49 -68 86 -140zM254 388v-261q0 -43 17.5 -60.5t59.5 -26.5q57 -10 152 -10q232 0 344 30v-37q-149 -22 -344 -22q-108 0 -155 8q-55 10 -80 34t-25 80v569q0 39 -5 60h40q-4 -34 -4 -60v-269q251 58 425 135q44 20 69 38l17 -35
q-6 -3 -20.5 -9.5l-28.5 -12.5t-26 -10q-155 -66 -436 -141zM812 798l27 13q57 -76 89 -139l-29 -15q-47 91 -87 141z" />
    <glyph glyph-name="uni30D4" unicode="&#x30d4;" 
d="M254 388v-261q0 -43 17.5 -60.5t59.5 -26.5q57 -10 152 -10q232 0 344 30v-37q-149 -22 -344 -22q-108 0 -155 8q-55 10 -80 34t-25 80v569q0 39 -5 60h40q-4 -34 -4 -60v-269q251 58 425 135q44 20 69 38l17 -35q-6 -3 -20.5 -9.5l-28.5 -12.5t-26 -10
q-155 -66 -436 -141zM914 701q0 32 -22.5 54.5t-53.5 22.5t-53.5 -22.5t-22.5 -54.5q0 -31 22 -53t54 -22t54 22t22 53zM763 777q31 32 75 32t75.5 -32t31.5 -76t-31.5 -75t-75.5 -31t-75.5 31t-31.5 75t32 76z" />
    <glyph glyph-name="uni30D5" unicode="&#x30d5;" 
d="M829 695l24 -15q-4 -10 -8 -32q-17 -97 -57.5 -206t-94.5 -176q-76 -96 -166.5 -159.5t-227.5 -105.5l-28 31q140 37 234 99t164 154q55 71 95.5 180t51.5 198h-570q-4 0 -82 -3v37q43 -5 83 -5h553q18 0 29 3z" />
    <glyph glyph-name="uni30D6" unicode="&#x30d6;" 
d="M825 679l24 -15q-4 -10 -8 -32q-17 -97 -57.5 -206t-94.5 -176q-76 -96 -166.5 -159.5t-227.5 -105.5l-28 30q140 37 234 99t164 154q55 71 95.5 180t51.5 198h-570q-30 0 -82 -2v37q43 -5 83 -5h553q18 0 29 3zM863 853l28 12q40 -53 86 -134l-29 -13q-59 103 -85 135z
M742 827l28 13q37 -51 85 -135l-29 -15q-36 73 -84 137z" />
    <glyph glyph-name="uni30D7" unicode="&#x30d7;" 
d="M979 720q0 32 -22.5 54.5t-54.5 22.5q-31 0 -53.5 -22.5t-22.5 -54.5t22 -54t54 -22t54.5 22.5t22.5 53.5zM796 676h9q-9 20 -9 44q0 44 31 75.5t75 31.5t76 -31.5t32 -75.5t-32 -75.5t-76 -31.5q-33 0 -61 20v-1q-17 -97 -57.5 -206t-94.5 -176q-76 -96 -166.5 -159.5
t-227.5 -105.5l-28 30q140 37 234 99t164 154q55 71 95.5 180t51.5 198h-570q-30 0 -82 -2v37q43 -5 83 -5h553z" />
    <glyph glyph-name="uni30D8" unicode="&#x30d8;" 
d="M113 240l-30 28q11 10 60 58q23 23 60 67l83.5 101.5l64.5 78.5q37 43 64.5 46.5t77.5 -34.5q50 -40 214 -216q150 -161 243 -271l-23 -25q-35 45 -73.5 89l-99.5 110t-70 75q-150 164 -211 214q-37 30 -53 28t-47 -38l-64.5 -78l-83 -100.5t-60.5 -70.5q-10 -11 -29 -34
z" />
    <glyph glyph-name="uni30D9" unicode="&#x30d9;" 
d="M662 666l27 13q54 -75 97 -161l-28 -14q-42 90 -96 162zM788 714l27 13q48 -62 100 -160l-28 -14q-50 98 -99 161zM102 219l-29 29q17 14 60 57q23 23 60 67.5l83 101.5l65 79q37 43 64 46t77 -35q50 -40 214 -216q170 -182 244 -270l-24 -26q-27 35 -62.5 76l-58 66.5
l-66 72.5l-55.5 60q-150 164 -211 214q-37 30 -53.5 27.5t-47.5 -38.5l-64 -77.5l-82.5 -100t-60.5 -70.5q-10 -11 -29.5 -34.5z" />
    <glyph glyph-name="uni30DA" unicode="&#x30da;" 
d="M727 662q-25 -25 -25 -60t25 -60t60 -25t60 25t25 60t-25 60t-60 25t-60 -25zM706 521q-34 34 -34 81t34 81.5t81 34.5t81.5 -34.5t34.5 -81.5t-34.5 -81.5t-81.5 -34.5t-81 35zM102 219l-29 29q17 14 60 57q23 23 60 67.5l83 101.5l65 79q37 43 64 46t77 -35
q50 -40 214 -216q170 -182 244 -270l-24 -26q-27 35 -62.5 76l-58 66.5l-66 72.5l-55.5 60q-150 164 -211 214q-37 30 -53.5 27.5t-47.5 -38.5l-64 -77.5l-82.5 -100t-60.5 -70.5q-10 -11 -29.5 -34.5z" />
    <glyph glyph-name="uni30DB" unicode="&#x30db;" 
d="M142 123l-29 20q49 43 108.5 126t89.5 145l28 -15q-28 -59 -87 -140t-110 -136zM849 569h-304v-516q0 -36 -15.5 -51t-53.5 -15q-61 0 -125 6l-2 36q75 -13 123 -13q42 0 42 42v511h-309q-37 0 -76 -3v38q36 -4 75 -4h310v129q0 32 -6 56h40q-3 -21 -3 -56v-129h303
q34 0 66 4v-36q-23 1 -65 1zM727 395l28 15q40 -46 92.5 -125.5t86.5 -141.5l-31 -17q-30 60 -82.5 141t-93.5 128z" />
    <glyph glyph-name="uni30DC" unicode="&#x30dc;" 
d="M842 650l-29 -14q-32 69 -85 141l28 14q48 -66 86 -141zM114 108l-30 20q49 44 109 126t90 144l27 -14q-28 -59 -87 -140.5t-109 -135.5zM820 554h-304v-516q0 -36 -15.5 -51.5t-53.5 -15.5q-60 0 -124 6l-2 36q69 -12 122 -12q42 0 42 42v511h-309q-37 0 -76 -3v38
q36 -4 75 -4h310v129q0 32 -6 56h40q-3 -21 -3 -56v-129h303q35 0 67 4v-36q-23 1 -66 1zM698 380l28 14q40 -46 92.5 -125.5t86.5 -140.5l-31 -17q-30 60 -82.5 141t-93.5 128zM838 806l26 13q57 -76 89 -139l-28 -14q-46 88 -87 140z" />
    <glyph glyph-name="uni30DD" unicode="&#x30dd;" 
d="M826 821q-31 0 -52.5 -22t-21.5 -54q0 -31 21 -52.5t53 -21.5t54 21.5t22 52.5t-22 53.5t-54 22.5zM721 745q0 44 31 75.5t74 31.5q44 0 75.5 -32t31.5 -75t-31.5 -74t-75.5 -31t-74.5 31t-30.5 74zM114 108l-30 20q49 44 109 126t90 144l27 -14q-28 -59 -87 -140.5
t-109 -135.5zM820 554h-304v-516q0 -36 -15.5 -51.5t-53.5 -15.5q-60 0 -124 6l-2 36q69 -12 122 -12q42 0 42 42v511h-309q-37 0 -76 -3v38q36 -4 75 -4h310v129q0 32 -6 56h40q-3 -21 -3 -56v-129h303q35 0 67 4v-36q-23 1 -66 1zM698 380l28 14q40 -46 92.5 -125.5
t86.5 -140.5l-31 -17q-30 60 -82.5 141t-93.5 128z" />
    <glyph glyph-name="uni30DE" unicode="&#x30de;" 
d="M899 674l28 -21q-11 -11 -17 -20q-163 -262 -395 -430l11 -12q133 -135 180 -193l-29 -23q-41 56 -175 197q-44 44 -124 112t-119 95l25 19q29 -20 94 -74t115 -101q127 92 230 210.5t150 205.5h-663q-36 0 -90 -3v39q48 -5 90 -5h653q27 0 36 4z" />
    <glyph glyph-name="uni30DF" unicode="&#x30df;" 
d="M285 719l12 30q103 -13 262.5 -49t252.5 -68l-13 -31q-92 34 -248 69t-266 49zM237 454l13 29q344 -62 498 -121l-15 -29q-87 34 -236.5 70t-259.5 51zM179 153l12 28q140 -24 315 -68t272 -86l-14 -30q-92 43 -268 88t-317 68z" />
    <glyph glyph-name="uni30E0" unicode="&#x30e0;" 
d="M936 -8l-33 -16q-22 62 -65 147q-430 -55 -669 -75q-28 -2 -74 -9l-7 39q35 -1 79 2q31 2 74 6q34 79 105 293.5t97 305.5q15 58 17 79l42 -9l-28 -76q-25 -86 -95.5 -299t-102.5 -291q291 25 547 62q-81 153 -143 233l28 15q54 -75 127 -205t101 -202z" />
    <glyph glyph-name="uni30E1" unicode="&#x30e1;" 
d="M760 751l35 -13q-8 -16 -24 -57q-72 -196 -171 -324q173 -147 261 -244l-23 -24q-95 107 -257 245q-186 -231 -421 -345l-27 23q241 114 424 342q-166 136 -301 218l19 25q171 -113 302 -219q101 132 165 315q14 38 18 58z" />
    <glyph glyph-name="uni30E2" unicode="&#x30e2;" 
d="M851 379h-381v-254q0 -39 34.5 -64t108.5 -25q156 0 274 14l-1 -33q-158 -12 -273 -12q-88 0 -131 29.5t-43 79.5v265h-230q-42 0 -81 -3v38q36 -4 81 -4h230v258h-158q-35 0 -85 -2v35q38 -3 85 -3h480q44 0 77 3v-35q-46 2 -77 2h-291v-258h381q43 0 71 3v-36
q-38 2 -71 2z" />
    <glyph glyph-name="uni30E3" unicode="&#x30e3;" 
d="M850 495l20 -15q-31 -61 -98 -146t-121 -132l-30 16q54 44 110.5 112.5t89.5 125.5l-384 -75q80 -293 111 -393q3 -9 9 -28.5t9 -27.5l-37 -11q-1 25 -11 60q-5 16 -22.5 79.5l-44 158l-43.5 156.5l-226 -44l-9 34q25 2 76 11l151 27l-40 140q-11 38 -19 50l38 10l12 -54
l38 -139q383 72 394 75q17 4 27 10z" />
    <glyph glyph-name="uni30E4" unicode="&#x30e4;" 
d="M892 656l21 -14q-36 -71 -116 -171.5t-144 -156.5l-33 18q63 50 137 139t110 150q-35 -6 -473 -93q102 -373 134 -479q3 -11 21 -63l-38 -11q-7 41 -14 65l-132 482q-254 -50 -273 -55l-10 37q43 4 89 11l186 35l-22 77l-17.5 63.5t-7.5 25.5q-13 46 -23 63l39 11
q1 -8 14 -66l47 -168q431 80 475 91q22 5 30 9z" />
    <glyph glyph-name="uni30E5" unicode="&#x30e5;" 
d="M672 67h137q29 0 61 2v-34q-16 1 -58 1h-583q-23 0 -69 -2v36q34 -3 69 -3h411q12 68 32.5 213t21.5 185h-372q-19 0 -63 -2v37q44 -4 62 -4h359q20 0 26 3l26 -13q-4 -12 -4 -20q-16 -161 -56 -399z" />
    <glyph glyph-name="uni30E6" unicode="&#x30e6;" 
d="M699 114h168q23 0 75 4v-38q-26 3 -75 3h-699q-36 0 -79 -3v38q37 -4 79 -4h500q17 93 43.5 278t27.5 237h-452q-38 0 -80 -3v38q56 -6 79 -6h432q14 0 32 6l29 -13q-3 -7 -5 -20q-14 -139 -75 -517z" />
    <glyph glyph-name="uni30E7" unicode="&#x30e7;" 
d="M774 -39h-34q1 8 1 40v3h-435q-20 0 -47.5 -1t-33.5 -1v38q32 -4 80 -4h436v228h-412q-40 0 -72 -2v37q52 -4 71 -4h413v217h-419q-8 0 -43 -1t-40 -1v36q18 -3 83 -3h403q13 0 28.5 0.5t19.5 0.5q-1 -8 -1 -35v-507q0 -17 2 -41z" />
    <glyph glyph-name="uni30E8" unicode="&#x30e8;" 
d="M831 -13h-33q1 10 1 45v8h-532q-43 0 -100 -3v38q38 -4 99 -4h533v285h-503q-46 0 -90 -2v38q42 -5 88 -5h505v271h-514q-61 0 -103 -3v38q28 -4 103 -4h490q27 0 55 2q-1 -11 -1 -40v-617q0 -17 2 -47z" />
    <glyph glyph-name="uni30E9" unicode="&#x30e9;" 
d="M847 513l25 -15q-7 -14 -8 -19q-42 -184 -147 -298q-77 -83 -166 -129.5t-201 -76.5l-24 30q224 45 365 196q50 54 86.5 128.5t51.5 147.5h-592q-35 0 -81 -3v39q52 -5 81 -5h572q28 0 38 5zM245 702v37q35 -4 77 -4h412q46 0 75 4v-37q-33 3 -76 3h-411
q-13 0 -25.5 -0.5t-27.5 -1.5t-24 -1z" />
    <glyph glyph-name="uni30EA" unicode="&#x30ea;" 
d="M253 752h38q-3 -22 -3 -69v-338q0 -47 3 -67h-38q4 26 4 67v338q0 39 -4 69zM729 759h38q-3 -33 -3 -75v-129q0 -196 -19.5 -277.5t-75.5 -152.5q-43 -57 -103 -91t-136 -61l-27 28q162 47 243 144q55 66 71 148.5t16 260.5v130q0 31 -4 75z" />
    <glyph glyph-name="uni30EB" unicode="&#x30eb;" 
d="M124 -5l-30 20q132 95 182 258q31 100 31 420q0 32 -4 55h38q-3 -28 -3 -55q0 -315 -33 -430q-22 -78 -70 -148t-111 -120zM581 1l-23 19q5 20 5 40v630q0 25 -3 64h37q-2 -13 -2 -64v-646q90 43 187 120t157 168l19 -27q-65 -92 -158.5 -166t-192.5 -122q-14 -7 -26 -16
z" />
    <glyph glyph-name="uni30EC" unicode="&#x30ec;" 
d="M276 7l-21 18q6 14 6 33v616q0 42 -5 70h41q-5 -28 -5 -69v-630q174 40 339 138t256 221l19 -26q-96 -124 -250.5 -217.5t-353.5 -145.5q-14 -3 -26 -8z" />
    <glyph glyph-name="uni30ED" unicode="&#x30ed;" 
d="M825 644h-623v-549h623v549zM857 617v-507q0 -70 2 -106h-35q1 13 1 62h-623q0 -10 0.5 -32.5t1.5 -29.5h-35q2 44 2 105v508q0 40 -1 60q39 -2 75 -2h535q54 0 79 2q-2 -19 -2 -60z" />
    <glyph glyph-name="uni30EE" unicode="&#x30ee;" 
d="M793 534l22 -17q-4 -7 -6 -21q-27 -226 -103 -333q-116 -159 -313 -222l-27 27q191 49 309 206q79 109 101 326h-534v-190q0 -4 0.5 -18t0.5 -21h-34q2 14 2 39v176q0 17 -2 45q18 -2 79 -2h478q15 0 27 5z" />
    <glyph glyph-name="uni30EF" unicode="&#x30ef;" 
d="M845 696l25 -16q-5 -8 -8 -27q-12 -91 -20.5 -140.5t-31 -122t-54.5 -122.5q-61 -97 -162.5 -172t-223.5 -111l-26 24q252 71 385 275q82 123 101 378h-639v-240q0 -8 1.5 -24.5t1.5 -22.5h-35q2 18 2 47v221q0 25 -3 51q23 -2 93 -2h562q21 0 32 4z" />
    <glyph glyph-name="uni30F0" unicode="&#x30f0;" 
d="M362 232h302v340h-302v-340zM694 232h163q9 0 74 5v-37q-26 3 -74 3h-163v-122q0 -53 3 -97h-38q5 56 5 95v124h-484q-35 0 -80 -3v37q48 -5 80 -5h152v340h-114q-22 0 -80 -2v36q42 -3 80 -3h446v97q0 27 -5 65h38q-3 -37 -3 -65v-97h135q36 0 75 3v-36q-26 2 -75 2
h-135v-340z" />
    <glyph glyph-name="uni30F1" unicode="&#x30f1;" 
d="M845 645h-597l-97 -3v38q60 -4 97 -4h583q29 0 42 5l24 -18q-17 -21 -20 -27q-38 -62 -98.5 -129.5t-128.5 -120.5l-30 23q65 40 127 106.5t98 129.5zM510 91h354q23 0 77 4v-38q-27 3 -77 3h-690q-37 0 -82 -3v38q39 -4 82 -4h305v417q0 15 -2 45h36q-3 -23 -3 -45v-417
z" />
    <glyph glyph-name="uni30F2" unicode="&#x30f2;" 
d="M847 709l29 -19q-9 -22 -10 -28q-41 -277 -115 -388q-75 -112 -175.5 -183.5t-238.5 -115.5l-27 30q267 64 415 286q29 44 56 126h-489q-5 0 -83 -3v38q65 -5 83 -5h499q31 108 45 228h-560q-37 0 -94 -3v40q48 -6 94 -6h539q21 0 32 3z" />
    <glyph glyph-name="uni30F3" unicode="&#x30f3;" 
d="M198 700l20 22q53 -34 133.5 -99.5t123.5 -106.5l-23 -23q-43 43 -121.5 108t-132.5 99zM191 -1l-20 33q226 36 426 166q101 67 184.5 165.5t125.5 190.5l20 -32q-52 -97 -130.5 -189.5t-179.5 -158.5q-195 -130 -426 -175z" />
    <glyph glyph-name="uni30F4" unicode="&#x30f4;" 
d="M835 683l-29 -14q-32 69 -85 141l28 13q49 -68 86 -140zM496 621h280q39 0 55 6l23 -16q-5 -11 -10 -42q-9 -68 -36.5 -162t-69.5 -162q-120 -197 -392 -273l-27 30q26 4 67 16q94 27 184 92t140 147q41 69 69.5 166t33.5 167h-636v-216q0 -30 3 -46h-37q3 15 3 45v182
q0 50 -3 70q50 -4 87 -4h235v112q0 31 -3 60h38q-4 -25 -4 -60v-112zM831 836l27 13q57 -76 89 -139l-28 -15q-45 87 -88 141z" />
    <glyph glyph-name="uni30F5" unicode="&#x30f5;" 
d="M782 458l22 -15q-2 -13 -4 -39q-2 -52 -6 -119.5t-17 -156.5t-31 -123q-22 -41 -71 -41q-62 0 -140 6l-4 33q59 -9 141 -9q36 0 49 25q24 49 36 179.5t12 225.5h-290q-20 -181 -80.5 -288t-171.5 -183l-29 25q18 8 62 39q163 122 192 407h-177q-55 0 -79 -2v37
q46 -4 78 -4h180q4 44 4 102q0 29 -4 54h36q0 -10 -1 -25.5t-1 -25.5q-1 -55 -6 -105h258q15 0 42 3z" />
    <glyph glyph-name="uni30F6" unicode="&#x30f6;" 
d="M349 442h446q47 0 69 3v-35q-44 2 -69 2h-175q-18 -335 -258 -479l-34 24q31 10 68 40q182 138 193 415h-257q-29 -50 -70.5 -101t-75.5 -78l-30 19q75 52 154 183q39 64 54 130q7 31 8 47l39 -9q-13 -34 -16 -47q-20 -62 -46 -114z" />
    <glyph glyph-name="uni30FB" unicode="&#x30fb;" 
d="M451 328q-26 25 -26 61t25.5 61.5t61.5 25.5t61.5 -25.5t25.5 -61.5t-25.5 -61.5t-61.5 -25.5t-61 26z" />
    <glyph glyph-name="uni30FC" unicode="&#x30fc;" 
d="M115 374v39q50 -4 121 -4h572q64 0 100 4v-39q-51 3 -99 3h-573q-82 0 -121 -3z" />
    <glyph glyph-name="uni30FD" unicode="&#x30fd;" 
d="M331 548l27 20q89 -79 196 -197.5t177 -215.5l-29 -22q-66 99 -172 217.5t-199 197.5z" />
    <glyph glyph-name="uni30FE" unicode="&#x30fe;" 
d="M550 681l30 13q36 -50 96 -152l-32 -16q-53 102 -94 155zM678 723l30 13q41 -56 96 -151l-32 -16q-62 114 -94 154zM305 546l28 20q89 -79 196 -197.5t177 -215.5l-29 -22q-66 99 -172.5 217t-199.5 198z" />
    <glyph glyph-name="uni4E00" unicode="&#x4e00;" 
d="M51 417h927v-34h-927v34z" />
    <glyph glyph-name="uni4E01" unicode="&#x4e01;" 
d="M954 740v-29h-397v-707q0 -29 -10.5 -41.5t-35.5 -17.5q-27 -5 -228 -5q-4 11 -15 30q165 -5 226 0q19 1 26 7.5t7 25.5v708h-458v29h885z" />
    <glyph glyph-name="uni4E03" unicode="&#x4e03;" 
d="M487 -2h322q49 0 64.5 31.5t21.5 133.5q13 -10 31 -16q-7 -108 -28.5 -143.5t-93.5 -35.5h-311q-76 0 -104 21.5t-28 86.5v371l-296 -50l-7 28l303 52v360h30v-355l566 97l7 -29l-573 -97v-379q0 -44 19 -60t77 -16z" />
    <glyph glyph-name="uni4E07" unicode="&#x4e07;" 
d="M957 736h-545q-4 -147 -16 -253h457v-20q-14 -259 -31 -369t-46 -139q-22 -24 -68 -25q-63 -2 -182 8q-2 18 -10 30q82 -8 185 -8q38 -1 49 11q26 24 42 129.5t30 353.5h-430q-12 -86 -33 -158.5t-57.5 -144t-94.5 -130.5t-135 -99q-2 3 -23 20q64 32 114.5 79t84 96.5
t58.5 115.5t38.5 121.5t21.5 130.5t10.5 126.5t4.5 124.5h-314v30h890v-30z" />
    <glyph glyph-name="uni4E08" unicode="&#x4e08;" 
d="M953 606h-315q-6 -167 -34 -280t-98 -196q167 -137 467 -177q-11 -13 -18 -27q-300 41 -470 183q-123 -125 -385 -179q-5 13 -17 27q259 51 379 173q-154 142 -218 406l27 8q61 -254 211 -392q67 79 93.5 187t31.5 267h-534v30h535q2 63 2 201h31q0 -138 -2 -201h314v-30
z" />
    <glyph glyph-name="uni4E09" unicode="&#x4e09;" 
d="M130 750h768v-30h-768v30zM190 410h629v-30h-629v30zM70 45h885v-30h-885v30z" />
    <glyph glyph-name="uni4E0A" unicode="&#x4e0a;" 
d="M492 5h473v-30h-905v30h402v828h30v-338h404v-30h-404v-460z" />
    <glyph glyph-name="uni4E0B" unicode="&#x4e0b;" 
d="M965 743h-457v-204l7 8q96 -45 205.5 -108.5t176.5 -111.5l-17 -27q-64 46 -170 109.5t-202 111.5v-593h-30v815h-418v31h905v-31z" />
    <glyph glyph-name="uni4E0D" unicode="&#x4e0d;" 
d="M948 744h-337q-37 -65 -86 -131v-685h-29v646q-181 -219 -419 -347q-1 2 -5.5 7t-8 9.5t-6.5 7.5q163 86 300.5 216.5t219.5 276.5h-501v30h872v-30zM585 520l19 20q99 -58 203 -133.5t161 -132.5l-20 -22q-59 57 -162.5 134t-200.5 134z" />
    <glyph glyph-name="uni4E0E" unicode="&#x4e0e;" 
d="M966 245v-30h-193q-34 -218 -86 -265q-25 -22 -76 -23q-86 0 -193 8q-2 20 -10 30q98 -9 198 -9q43 0 56 12q47 41 81 247h-682v30h687q13 83 24 189h-501l-10.5 -37t-6.5 -24l-30 5q57 187 115 475l31 -4q-12 -58 -36 -161h529v-30h-536q-9 -40 -27 -113t-20 -80h525
q-1 -15 -2 -21q-9 -88 -25 -199h188z" />
    <glyph glyph-name="uni4E10" unicode="&#x4e10;" 
d="M948 739h-424v-169h362v-30h-362v-183h412q-1 -14 -2 -20q-24 -191 -46 -277t-53 -114q-24 -20 -69 -20q-65 -2 -176 7q-2 18 -9 29q90 -8 179 -8q39 0 51 10q28 24 48.5 106.5t41.5 257.5h-705l-8 -38t-7 -32l-31 6q32 131 63 365l31 -4q-10 -81 -43 -268h293v382h-413
v31h867v-31z" />
    <glyph glyph-name="uni4E11" unicode="&#x4e11;" 
d="M305 -9h393q20 178 34 390h-370q-30 -235 -57 -390zM755 743h-347q-12 -106 -41 -332h367q16 229 21 332zM966 381h-204q-15 -224 -32 -390h222v-30h-880v30h202q33 185 60 390h-273v30h277q30 234 40 332h-236v31h644q-15 -257 -22 -363h202v-30z" />
    <glyph glyph-name="uni4E14" unicode="&#x4e14;" 
d="M259 233v-229h511v229h-511zM770 756h-511v-228h511v228zM770 263v236h-511v-236h511zM800 4h165v-30h-905v30h169v781h571v-781z" />
    <glyph glyph-name="uni4E15" unicode="&#x4e15;" 
d="M496 62v515q-169 -215 -419 -343q-12 14 -25 24q164 78 296.5 201t217.5 279h-483v30h859v-30h-342q-29 -56 -75 -122v-554h-29zM571 535l23 17q96 -69 197 -152.5t159 -142.5l-23 -20q-59 61 -161 147t-195 151zM61 7h904v-30h-904v30z" />
    <glyph glyph-name="uni4E16" unicode="&#x4e16;" 
d="M523 287h249v267h-249v-267zM802 207h-30v50h-249v-58h-30v355h-243v-510h685v-30h-685v-87h-30v627h-161v31h161v241h30v-241h243v264h30v-264h249v251h30v-251h166v-31h-166v-347z" />
    <glyph glyph-name="uni4E17" unicode="&#x4e17;" 
d="M780 49v496h-257v-496h257zM244 545v-496h249v496h-249zM965 575v-30h-155v-613h-30v87h-536v-91h-30v617h-154v30h154v265h30v-265h249v265h30v-265h257v265h30v-265h155z" />
    <glyph glyph-name="uni4E18" unicode="&#x4e18;" 
d="M260 439v-434h403v434h-403zM692 5h273v-30h-905v30h170v714l29 -10q391 60 535 119l29 -23q-174 -68 -563 -122v-213h659v-31h-227v-434z" />
    <glyph glyph-name="uni4E19" unicode="&#x4e19;" 
d="M521 743v-156v-31h383v-568q0 -24 -7.5 -35.5t-27.5 -15.5q-30 -7 -173 -7q-2 9 -13 33q113 -3 168 0q14 1 18.5 6t4.5 18v539h-355q-3 -57 -14 -106q82 -63 168 -142t135 -136l-24 -19q-44 53 -125 128.5t-162 141.5q-61 -179 -275 -288q-8 13 -20 24q85 41 143.5 91
t87.5 104.5t41.5 100.5t15.5 101h-338v-599h-30v629h370v31v156h-417v30h876v-30h-430z" />
    <glyph glyph-name="uni4E1E" unicode="&#x4e1e;" 
d="M382 574l11 -7q-41 -142 -127 -249.5t-196 -172.5q-6 11 -21 24q102 56 184 154t122 222h-281v30h296l7 3l3 -3h2v-1zM88 -25v30h846v-30h-846zM888 628l25 -20q-111 -105 -255 -196q137 -174 317 -242q-13 -9 -22 -24q-132 55 -245.5 170t-179.5 258v-437q0 -23 -7 -33
t-27 -15q-26 -6 -178 -6q-2 9 -13 31q116 -3 171 0q14 1 19 5.5t5 16.5v485h30v-7q125 64 227 156h-567v30h597l7 2l22 -16q-102 -102 -267 -191q41 -91 96 -164q139 91 245 197z" />
    <glyph glyph-name="uni4E21" unicode="&#x4e21;" 
d="M957 743h-439v-174h384v-587q0 -24 -7 -35.5t-25 -15.5q-22 -5 -160 -5q-7 18 -15 33q118 -3 155 -1q13 1 17.5 6t4.5 18v557h-354v-381h178v270h31v-371h-31v71h-379v-76h-30v376h30v-270h170v381h-331v-613h-30v643h361v174h-419v31h889v-31z" />
    <glyph glyph-name="uni4E26" unicode="&#x4e26;" 
d="M761 849l27 -13q-64 -123 -117 -195l-25 14q61 79 115 194zM375 663l-28 -15q-32 89 -114 189l25 12q84 -101 117 -186zM415 592v-583h185v583h-185zM631 9h334v-29h-905v29h325v583h-292v31h842v-31h-304v-583zM150 463l27 8q42 -78 74.5 -172.5t40.5 -163.5l-29 -6
q-9 70 -40.5 163.5t-72.5 170.5zM738 126l-24 10q72 149 130 348l30 -11q-78 -233 -136 -347z" />
    <glyph glyph-name="uni4E2A" unicode="&#x4e2a;" 
d="M508 815q-67 -101 -196.5 -221t-268.5 -205q-10 15 -18 23q142 86 271 207t194 228h28q83 -110 221.5 -229t265.5 -193q-14 -14 -21 -26q-130 78 -265 195.5t-211 220.5zM493 523h30v-596h-30v596z" />
    <glyph glyph-name="uni4E2D" unicode="&#x4e2d;" 
d="M524 307h358v325h-358v-325zM137 307h358v325h-358v-325zM524 662h387v-450h-29v66h-358v-349h-29v349h-358v-71h-29v455h387v188h29v-188z" />
    <glyph glyph-name="uni4E31" unicode="&#x4e31;" 
d="M376 417v419h30v-419q0 -69 -5.5 -120.5t-22.5 -108.5t-47 -101t-82 -87t-125 -77q-6 10 -21 23q134 63 194 148.5t73 201.5h-231v-109h-29v534h29v-394h234q3 43 3 90zM886 721h29v-511h-29v86h-243v-368h-30v908h30v-509h243v394z" />
    <glyph glyph-name="uni4E32" unicode="&#x4e32;" 
d="M524 138h353v199h-353v-199zM151 138h344v199h-344v-199zM189 505h306v191h-306v-191zM829 696h-305v-191h305v191zM524 367h382v-301h-29v43h-353v-179h-29v179h-344v-47h-30v305h374v108h-335v251h335v125h29v-125h335v-251h-335v-108z" />
    <glyph glyph-name="uni4E36" unicode="&#x4e36;" 
d="M288 606l24 19q112 -78 229 -182t182 -182l-27 -22q-61 77 -177.5 181.5t-230.5 185.5z" />
    <glyph glyph-name="uni4E38" unicode="&#x4e38;" 
d="M796 -25h127q27 0 35 34t10 153q14 -11 29 -16q-3 -124 -15.5 -162.5t-57.5 -38.5h-128q-43 0 -57.5 14t-14.5 56v580h-293q-11 -169 -46 -284q128 -87 195 -154l-25 -24q-70 73 -180 149q-84 -248 -312 -357q-8 12 -25 22q227 105 310 353q-105 72 -211 127l23 19
q93 -47 197 -116q34 110 44 265h-309v31h311q5 95 5 221h29q0 -145 -4 -221h321v-612q0 -24 8 -31.5t34 -7.5z" />
    <glyph glyph-name="uni4E39" unicode="&#x4e39;" 
d="M385 659l24 19q139 -99 225 -197l-26 -22q-34 41 -98 98.5t-125 101.5zM245 393h540v364h-539v-305q0 -40 -1 -59zM965 393v-29h-150v-375q0 -27 -9 -39.5t-30 -16.5q-29 -6 -192 -6q-7 19 -15 32q126 -3 187 0q17 1 23 7t6 22v376h-541q-18 -291 -177 -442q-7 12 -22 23
q153 144 169 419h-154v29h155q1 19 1 59v334h599v-393h150z" />
    <glyph glyph-name="uni4E3B" unicode="&#x4e3b;" 
d="M616 666l-23 -17q-28 37 -79 87t-101 89l22 16q50 -37 101 -87t80 -88zM526 -5h441v-30h-904v30h434v306h-342v30h342v273h-382v30h798v-30h-387v-273h352v-30h-352v-306z" />
    <glyph glyph-name="uni4E3C" unicode="&#x4e3c;" 
d="M409 526l22 17q53 -41 104.5 -93.5t76.5 -91.5l-23 -20q-26 41 -77 94.5t-103 93.5zM317 282h382v321h-371v-143q0 -100 -11 -178zM965 282v-31h-235v-323h-31v323h-387q-40 -204 -208 -322q-8 12 -20 22q159 112 197 300h-221v31h226q11 70 11 178v143h-210v31h210v211
h31v-211h371v211h31v-211h211v-31h-211v-321h235z" />
    <glyph glyph-name="uni4E3F" unicode="&#x4e3f;" 
d="M552 828h31v-325q0 -60 -4 -107t-15 -101.5t-33 -100.5t-56 -92.5t-86.5 -88.5t-121.5 -79q-13 18 -21 24q81 42 138.5 93.5t89.5 101t50 113t23 115.5t5 122v325z" />
    <glyph glyph-name="uni4E42" unicode="&#x4e42;" 
d="M794 779l33 -9q-51 -191 -122.5 -331t-173.5 -244q183 -175 458 -242q-2 -2 -21 -27q-278 71 -459 247q-167 -156 -440 -247q-8 16 -22 30q273 85 439 240q-201 208 -299 575l31 7q94 -357 291 -560q193 194 285 561z" />
    <glyph glyph-name="uni4E43" unicode="&#x4e43;" 
d="M672 502h265q-1 -16 -1 -21q-17 -268 -34 -380.5t-47 -142.5q-22 -24 -69 -25q-81 0 -180 8q-4 19 -11 30q83 -8 185 -8q36 -1 49 12q27 24 44 135t31 362h-236q-2 -16 -13 -78l-29 3q26 145 45 343h-332v-86q0 -76 -3.5 -135t-19 -142.5t-42.5 -153t-78 -148.5
t-122 -147q-14 14 -25 20q70 66 120.5 143.5t77 145t41 149t18 137.5t3.5 130v87h-210v31h606q-18 -160 -33 -269z" />
    <glyph glyph-name="uni4E45" unicode="&#x4e45;" 
d="M648 675l19 -10q-33 -137 -89 -251q57 -157 163.5 -282t236.5 -179q-15 -12 -23 -26q-127 58 -231 179t-163 274q-164 -307 -481 -458q-12 19 -23 26q132 59 241.5 151t198.5 232.5t132 311.5h-317q-106 -201 -241 -320q-6 7 -26 20q103 88 186 219.5t136 286.5l30 -6
q-44 -118 -70 -170h314z" />
    <glyph glyph-name="uni4E4B" unicode="&#x4e4b;" 
d="M714 -24h263q-12 -16 -14 -30h-249q-202 0 -320 45.5t-183 174.5q-67 -133 -139 -237l-29 14q53 70 107 167.5t86 180.5l27 -13q-5 -14 -35 -78q26 -65 77 -114q148 85 304 233.5t248 284.5h-753v31h391v213h30v-213h354l7 2l21 -14q-93 -145 -257 -303t-322 -254
q65 -51 159 -70.5t227 -19.5z" />
    <glyph glyph-name="uni4E4D" unicode="&#x4e4d;" 
d="M955 636h-491v-190h438v-29h-438v-198h448v-30h-448v-262h-30v709h-168q-89 -142 -188 -232q-6 6 -27 21q88 75 165.5 188.5t130.5 241.5l29 -8q-43 -101 -90 -181h669v-30z" />
    <glyph glyph-name="uni4E4E" unicode="&#x4e4e;" 
d="M962 359v-29h-428v-345q0 -27 -10 -39.5t-32 -17.5q-23 -5 -200 -5q-8 20 -13 31q126 -4 194 -1q18 2 24.5 8t6.5 23v346h-441v29h441v385q-177 -16 -362 -21q0 8 -7 27q509 19 704 75l19 -25q-111 -32 -324 -52v-389h428zM191 666l29 8q83 -143 109 -242l-29 -10
q-29 105 -109 244zM719 421l-24 13q76 121 128 255l31 -14q-80 -169 -135 -254z" />
    <glyph glyph-name="uni4E4F" unicode="&#x4e4f;" 
d="M684 -26h298q-10 -13 -14 -30h-282q-195 0 -303 38.5t-169 149.5q-62 -111 -125 -195l-28 15q45 55 92.5 134t76.5 145l27 -14q-7 -16 -27 -54q22 -48 60 -86q145 66 293.5 182.5t236.5 227.5h-697v31h370v221q-190 -17 -371 -23q-1 10 -8 26q522 22 746 78l27 -25
q-134 -32 -364 -53v-224h321l7 2l22 -14q-92 -124 -248.5 -249.5t-312.5 -199.5q59 -47 148.5 -65t223.5 -18z" />
    <glyph glyph-name="uni4E55" unicode="&#x4e55;" 
d="M179 477h365v127h-365v-127zM544 635v127q-216 -18 -365 -23v-104h365zM957 446h-383v-123h320v-270q0 -20 -6.5 -29.5t-24.5 -13.5q-25 -6 -172 -6q-3 15 -11 29q133 -2 162 0q13 1 17.5 4.5t4.5 14.5v240h-290v-364h-30v364h-269v-297h-30v328h299v123h-365
q-6 -329 -112 -508q-8 11 -24 21q44 74 69 174.5t30.5 177t5.5 173.5v296l45 -13q480 22 671 68l26 -26q-132 -27 -316 -44v-130h378v-31h-378v-127h383v-31z" />
    <glyph glyph-name="uni4E56" unicode="&#x4e56;" 
d="M316 389v148h30v-529h-30v130q-234 -72 -236 -73l-17 28q100 26 253 75v191h-235v30h235zM962 592h-437v-665h-30v665h-428v31h428v140q-213 -18 -358 -23q-2 16 -8 28q501 23 705 72l26 -25q-128 -30 -335 -49v-143h437v-31zM746 53h151q24 0 31.5 20t9.5 92
q11 -8 30 -14q-3 -77 -16 -102t-53 -25h-151q-46 0 -61.5 11.5t-15.5 49.5v452h29v-213q152 62 214 108l28 -24q-67 -43 -242 -114v-210q0 -19 8.5 -25t37.5 -6z" />
    <glyph glyph-name="uni4E57" unicode="&#x4e57;" 
d="M301 410v-158h194v158h-194zM301 593v-154h194v154h-194zM726 593h-201v-154h201v154zM726 252v158h-201v-158h201zM931 222h-366q72 -75 184.5 -138.5t224.5 -97.5q-10 -7 -21 -25q-115 38 -234 109.5t-191 151.5h-3v-297h-30v297h-1q-71 -76 -189.5 -145t-232.5 -106
q-8 13 -22 25q107 32 220 94t185 132h-352v30h168v158h-211v29h211v154h-160v31h384v126q-193 -16 -357 -22q0 15 -7 27q499 21 705 72l24 -25q-126 -30 -335 -49v-129h400v-31h-169v-154h209v-29h-209v-158h175v-30z" />
    <glyph glyph-name="uni4E58" unicode="&#x4e58;" 
d="M78 239l-13 29q60 9 257 50v124h-228v30h228v88h29v-330h-29v61q-40 -8 -123.5 -26.5t-120.5 -25.5zM525 596v-245q66 -117 192.5 -219t259.5 -144q-13 -13 -21 -26q-123 43 -240 137t-191 206v-377h-29v372q-73 -111 -188.5 -201t-239.5 -131q-11 18 -22 26
q134 40 258 137.5t192 214.5v250h-427v30h427v134q-205 -16 -350 -21q-1 12 -8 27q494 21 696 73l16 -28q-122 -29 -325 -48v-137h429v-30h-429zM670 560h29v-128q134 53 183 80l23 -25q-75 -40 -206 -85v-127q0 -14 8 -18.5t35 -4.5h140q22 0 28.5 15.5t7.5 76.5
q11 -9 29 -13q-3 -67 -14.5 -88t-47.5 -21h-142q-44 0 -58.5 10t-14.5 44v284z" />
    <glyph glyph-name="uni4E59" unicode="&#x4e59;" 
d="M267 -5h543q60 0 78 39.5t23 168.5q12 -8 32 -12q-8 -139 -32.5 -182.5t-98.5 -43.5h-537q-176 0 -176 103q0 24 7.5 44t41.5 67t99.5 111.5t187.5 175.5l298 261h-636v30h677l7 3l22 -14q-1 -2 -9 -6l-367.5 -322t-202 -197t-77.5 -97.5t-17 -54.5q0 -36 38 -55t99 -19z
" />
    <glyph glyph-name="uni4E5D" unicode="&#x4e5d;" 
d="M776 -26h142q24 0 31 25.5t9 116.5q14 -10 30 -16q-2 -95 -15 -125.5t-55 -30.5h-141q-44 0 -60 13.5t-16 53.5v535h-284q-7 -107 -26 -192t-56.5 -168t-103.5 -148t-159 -110q-8 9 -26 23q92 42 157 104.5t102 142.5t55.5 162.5t26.5 185.5h-298v31h300q5 87 5 265h31
q0 -162 -6 -265h313v-567q0 -22 8 -29t36 -7z" />
    <glyph glyph-name="uni4E5E" unicode="&#x4e5e;" 
d="M942 681h-696q-77 -120 -172 -202q-17 14 -28 21q79 63 146.5 155.5t109.5 196.5l30 -8q-25 -63 -68 -133h678v-30zM297 -27l538 -1q47 0 61.5 29.5t18.5 131.5q13 -8 31 -12q-7 -114 -27 -145.5t-84 -31.5h-532q-145 0 -145 81q0 18 5.5 33t34 49t81.5 78t155.5 119
t248.5 173h-492v30h535v-2l3 2h5l7 2l23 -13q-3 -4 -10 -8l-262.5 -181.5t-166.5 -124t-90 -79.5t-39.5 -47.5t-7.5 -29.5q0 -53 109 -53z" />
    <glyph glyph-name="uni4E5F" unicode="&#x4e5f;" 
d="M396 -22h412q73 0 96 39t32 163q14 -8 31 -14q-10 -131 -39.5 -174t-126.5 -43h-399q-95 0 -129 25.5t-34 100.5v370l-191 -57l-9 26l200 60v307h29v-298l268 81v285h29v-276l286 87l4 4l8 7l22 -11l-3 -8q-5 -302 -37 -383q-22 -61 -80 -63q-80 0 -114 2q-2 15 -10 30
q57 -4 118 -4q22 0 36 10.5t25 41.5q28 77 31 345l-286 -86v-410h-29v401l-268 -80v-384q0 -54 26.5 -74t101.5 -20z" />
    <glyph glyph-name="uni4E62" unicode="&#x4e62;" 
d="M418 173v479h29v-586h-29v76h-293v-113h-31v622h31v-478h129v666h31v-666h133zM663 -8h213q38 0 49.5 36t15.5 154q11 -10 32 -16q-6 -123 -23.5 -163.5t-77.5 -40.5h-207q-59 0 -79.5 18.5t-20.5 73.5v793h30v-794q0 -37 13.5 -49t54.5 -12z" />
    <glyph glyph-name="uni4E71" unicode="&#x4e71;" 
d="M495 31v261h-354v-261h354zM332 757v-198h248v-30h-248v-207h192v-374h-29v53h-354v-56h-29v377h190v207h-252v30h252v193q-97 -17 -221 -31q-2 7 -11 25q324 37 450 90l29 -24q-68 -28 -217 -55zM728 -26h161q33 0 42.5 37t13.5 159q12 -9 28 -13q-4 -128 -18.5 -168.5
t-66.5 -40.5h-158q-53 0 -70 16.5t-17 70.5v806h30v-808q0 -36 10.5 -47.5t44.5 -11.5z" />
    <glyph glyph-name="uni4E73" unicode="&#x4e73;" 
d="M505 846l21 -26q-149 -55 -470 -79q-1 11 -10 28q332 30 459 77zM417 523l-24 13q64 83 119 199l29 -15q-67 -124 -124 -197zM316 578l-30 -6q-2 66 -27 155l28 5q26 -83 29 -154zM160 555l-31 -9q-9 72 -48 148l28 8q39 -70 51 -147zM317 334v-79q47 4 140 13t110 11
v-33q-15 -1 -108.5 -10.5t-141.5 -13.5v-242q0 -21 -5.5 -31t-21.5 -14t-131 -4q-1 4 -14 30q100 -2 125 0q10 1 13.5 4.5t3.5 12.5v241l-237 -23l-5 35q38 3 127.5 11t114.5 10v107h23q92 54 158 119h-378v30h407l8 2l23 -15q-83 -90 -211 -161zM697 -24h188q37 0 47.5 36
t15.5 160q12 -10 29 -14q-5 -128 -21 -168.5t-72 -40.5h-185q-57 0 -76 17.5t-19 73.5v796h31v-798q0 -38 11.5 -50t50.5 -12z" />
    <glyph glyph-name="uni4E7E" unicode="&#x4e7e;" 
d="M976 660h-366q-51 -108 -99 -167q-5 5 -28 18q104 123 161 340l32 -6q-23 -82 -53 -155h353v-30zM137 412v-114h302v114h-302zM137 553v-112h302v112h-302zM301 268v-114h212v-30h-212v-196h-30v196h-220v30h220v114h-163v316h163v113h-208v31h208v123h30v-123h201v-31
h-201v-113h169v-316h-169zM634 -26h265q20 0 29 12t12.5 43.5t5.5 104.5q14 -8 32 -12q-3 -82 -11 -119t-22 -48.5t-46 -11.5h-262q-99 0 -99 63q0 25 12 53t81 124.5t202 255.5h-282v31h313l8 1l22 -8q-4 -6 -6 -8q-140 -170 -213 -268.5t-88 -128.5t-15 -50q0 -34 62 -34z
" />
    <glyph glyph-name="uni4E80" unicode="&#x4e80;" 
d="M166 83h326v96h-326v-96zM492 304h-326v-95h326v95zM869 304h-347v-95h347v95zM522 83h347v96h-347v-96zM208 427h284v93h-284v-93zM585 758h-281q-44 -47 -91 -86h308q41 42 64 86zM492 550v91h-284v-91h284zM815 550v91h-293v-91h293zM815 427v93h-293v-93h293z
M602 -36h275q35 0 46 21.5t15 93.5q12 -9 31 -13q-5 -79 -22.5 -106t-73.5 -27h-268q-66 0 -89.5 17t-23.5 70v32h-326v-61h-31v343h357v62h-314v249q-46 -34 -104 -65q-9 9 -23 17q96 51 171 119.5t117 134.5l34 -6q-22 -33 -43 -58h274l6 3l3 -3h2v-1l17 -10
q-22 -46 -71 -104h284v-276h-323v-62h377v-282h-377v-33q0 -33 15 -44t65 -11z" />
    <glyph glyph-name="uni4E82" unicode="&#x4e82;" 
d="M519 851l26 -26q-123 -32 -370 -56q-39 -124 -98 -196q-11 9 -29 17q72 81 103 212l25 -5q224 24 343 54zM365 639l-31 -8q0 52 -31 123l31 7q31 -71 31 -122zM478 14l-21 -25q-35 28 -96 63q-68 -67 -158 -105q0 1 -19 23q84 31 153 96q-59 31 -108 50l20 21
q54 -20 110 -49q43 46 62 86h-205v30h220l6 2l19 -9q-23 -62 -77 -122q51 -27 94 -61zM570 434v-463q0 -33 -26 -40q-19 -5 -133 -5l-13 27q100 -2 123 0q11 1 15 4.5t4 12.5v433h-235l19 -9q-14 -34 -51 -110q27 1 83 2.5t81 2.5q-31 30 -59 50l22 16q71 -53 109 -99
l-24 -19q-5 8 -20 24q-110 -5 -281 -12l-5 33l64 2q37 75 50 119h-153v-475h-29v506h280q-59 41 -159 86l20 21q40 -16 87 -40q81 39 133 78h-318v29h354l7 2l25 -16q-61 -56 -173 -108q36 -21 65 -43l-7 -9h145zM486 774l25 12q84 -93 125 -178l-26 -16q-45 92 -124 182z
M748 -37h147q31 0 40.5 37t12.5 159q15 -12 29 -15q-4 -128 -18 -168.5t-64 -40.5h-146q-50 0 -66.5 17t-16.5 70v813h29v-816q0 -35 10 -45.5t43 -10.5z" />
    <glyph glyph-name="uni4E85" unicode="&#x4e85;" 
d="M502 817h30v-807q0 -27 -9.5 -39t-32.5 -17q-29 -6 -192 -6q-2 7 -12 33q124 -3 187 0q16 1 22.5 6.5t6.5 21.5v808z" />
    <glyph glyph-name="uni4E86" unicode="&#x4e86;" 
d="M867 764l23 -15q-64 -74 -165.5 -150t-200.5 -128v-487q0 -25 -8.5 -36.5t-30.5 -15.5q-25 -5 -201 -5q-1 4 -14 30q157 -3 196 0q16 1 22 7t6 20v519h30v-1q83 44 168 106.5t142 123.5h-736v30h762z" />
    <glyph glyph-name="uni4E88" unicode="&#x4e88;" 
d="M941 478l22 -12q-133 -177 -202 -234l-23 17q85 73 172 197h-378v-459q0 -23 -7 -33t-26 -14q-29 -7 -171 -7q-1 5 -13 30q112 -3 164 0q24 1 24 23v460h-442v30h581q-174 103 -350 184l19 21q110 -50 207 -102q152 80 266 188h-629v30h659l7 2l24 -17
q-110 -112 -296 -219l133 -74l-9 -13h260z" />
    <glyph glyph-name="uni4E89" unicode="&#x4e89;" 
d="M833 205v163h-313v-163h313zM520 551v-154h313v154h-313zM976 397v-29h-114v-257h-29v64h-313v-191q0 -24 -8.5 -35.5t-29.5 -15.5q-28 -6 -176 -6q-6 16 -15 31q115 -4 173 -1q15 1 20 6.5t5 19.5v192h-349v30h349v163h-436v29h436v154h-305v31h305q69 61 129 153h-295
q-96 -115 -217 -194q-11 13 -24 21q94 59 169 138t118 154l35 -6q-23 -39 -58 -83h292l6 2l23 -15q-54 -91 -140 -170h335v-185h114z" />
    <glyph glyph-name="uni4E8A" unicode="&#x4e8a;" 
d="M819 152v141h-295v-141h295zM524 463v-139h295v139h-295zM967 324v-31h-118v-233h-30v62h-295v-138q0 -44 -37 -51q-26 -6 -160 -5q-9 21 -14 30q105 -3 155 0q26 1 26 26v138h-334v30h334v141h-436v31h436v139h-330v30h330v209h-413v31h413v118h30v-118h424v-31h-424
v-209h325v-169h118zM229 671l27 9q60 -86 79 -159l-29 -11q-19 72 -77 161zM696 507l-23 13q48 66 92 165l30 -15q-60 -112 -99 -163z" />
    <glyph glyph-name="uni4E8B" unicode="&#x4e8b;" 
d="M833 120v106h-309v-106h309zM524 356v-100h309v100h-309zM215 515h280v98h-280v-98zM818 613h-294v-98h294v98zM969 256v-30h-107v-184h-29v48h-309v-106q0 -26 -8.5 -37.5t-27.5 -16.5q-25 -6 -161 -6q-2 9 -14 33q107 -3 156 0q14 1 20 6.5t6 19.5v107h-354v30h354v106
h-435v30h435v100h-342v30h342v99h-310v158h310v81h-419v30h419v97h29v-97h428v-30h-428v-81h324v-158h-324v-99h338v-130h107z" />
    <glyph glyph-name="uni4E8C" unicode="&#x4e8c;" 
d="M148 698h729v-29h-729v29zM60 77h905v-30h-905v30z" />
    <glyph glyph-name="uni4E8E" unicode="&#x4e8e;" 
d="M964 429v-30h-429v-405q0 -27 -9.5 -38.5t-31.5 -16.5q-35 -7 -195 -6q-5 12 -14 31q129 -3 190 0q17 1 23.5 7t6.5 22v406h-445v30h445v310h-373v30h760v-30h-357v-310h429z" />
    <glyph glyph-name="uni4E91" unicode="&#x4e91;" 
d="M854 761v-30h-682v30h682zM961 414h-518q-96 -241 -177 -390q211 6 586 19q-87 124 -193 231l26 14q77 -77 153 -175.5t114 -169.5l-25 -18q-15 29 -57 91q-547 -22 -804 -30l-5 32q30 1 173 5q99 179 175 391h-343v29h895v-29z" />
    <glyph glyph-name="uni4E92" unicode="&#x4e92;" 
d="M265 249h437q22 179 32 280h-409q-11 -57 -60 -280zM699 6h266v-30h-905v30h609q11 72 29 213h-440l-14 -57l-30 5q59 223 122 576h-240v31h837v-31h-567q-5 -30 -17.5 -92.5t-17.5 -91.5h436q-36 -363 -68 -553z" />
    <glyph glyph-name="uni4E94" unicode="&#x4e94;" 
d="M755 412h-339q-58 -290 -82 -390h421v390zM785 22h180v-31h-905v31h241q35 140 85 390h-209v29h214q31 155 51 274h-311v29h755v-29h-413l-51 -274h363v-419z" />
    <glyph glyph-name="uni4E95" unicode="&#x4e95;" 
d="M336 304h348v288h-342v-152q0 -83 -6 -136zM953 304v-30h-239v-346h-30v346h-351q-15 -113 -68 -201t-163 -156q-8 12 -20 22q104 65 154.5 148t65.5 187h-229v30h233q6 53 6 136v152h-203v30h203v223h30v-223h342v223h30v-223h218v-30h-218v-288h239z" />
    <glyph glyph-name="uni4E98" unicode="&#x4e98;" 
d="M90 775h846v-31h-846v31zM60 2h905v-30h-905v30zM249 367v-195h533v195h-533zM249 589v-193h533v193h-533zM219 620h593v-479h-593v479z" />
    <glyph glyph-name="uni4E99" unicode="&#x4e99;" 
d="M694 6h271v-30h-905v30h604q43 223 80 534h-396q-80 -321 -108 -414l-31 3q78 254 157 612h-270v31h837v-31h-538l-21 -90.5t-19 -80.5h424q-48 -359 -85 -564zM354 251l21 21q68 -30 136 -70t105 -74l-21 -25q-37 35 -106 77t-135 71zM412 441l21 21q55 -24 111.5 -60
t88.5 -66l-23 -23q-70 68 -198 128z" />
    <glyph glyph-name="uni4E9B" unicode="&#x4e9b;" 
d="M882 355h-209q-59 0 -79 14t-20 57v424h30v-227q196 71 272 126l30 -22q-104 -64 -302 -133v-169q0 -24 12.5 -32t53.5 -8h212q36 0 46 26t14 121q11 -8 30 -14q-5 -101 -20.5 -132t-69.5 -31zM179 189v30h682v-30h-682zM510 418l1 -29l-453 -64l-4 31l77 11v363h30v-359
l124 16v463h29v-197h191v-29h-191v-233zM68 -43v30h889v-30h-889z" />
    <glyph glyph-name="uni4E9C" unicode="&#x4e9c;" 
d="M398 228v-223h213v223h-213zM166 260h203v277h-203v-277zM398 744v-177h213v177h-213zM611 260v277h-213v-277h213zM853 537h-212v-277h212v277zM641 5h324v-30h-905v30h309v223h-203v-47h-31v386h234v177h-277v31h842v-31h-293v-177h243v-383h-31v44h-212v-223z" />
    <glyph glyph-name="uni4E9E" unicode="&#x4e9e;" 
d="M168 265h242v-259h199v259h245v257h-245v221h-200v-223h-241v-255zM639 6h326v-30h-905v30h320v228h-212v-47h-31v363h242v193h-283v31h837v-31h-294v-191h246v-358h-31v40h-215v-228z" />
    <glyph glyph-name="uni4E9F" unicode="&#x4e9f;" 
d="M385 563l-31 3q20 58 46 177h-304v31h837v-31h-503q-11 -52 -28 -115h170q0 -17 -1 -23q-8 -279 -18 -384.5t-30 -131.5q-18 -22 -52 -23q-59 0 -95 3q-2 19 -9 30q44 -4 99 -4q22 0 30 13q17 20 27 128t17 361h-146q-6 -24 -9 -34zM340 231v291h-184v-291h184zM371 552
v-351h-215v-65h-30v416h245zM60 -25v30h905v-30h-905zM894 592l18 -7q-33 -195 -125 -323q82 -100 190 -142q-14 -10 -23 -25q-100 45 -184 145q-74 -96 -176 -146q-12 19 -20 26q105 47 178 143q-84 113 -127 266l25 7q40 -144 118 -250q79 114 111 274h-272v30h281z" />
    <glyph glyph-name="uni4EA0" unicode="&#x4ea0;" 
d="M525 435h440v-29h-905v29h435v223h30v-223z" />
    <glyph glyph-name="uni4EA1" unicode="&#x4ea1;" 
d="M966 609h-747v-514q0 -51 29 -74t97 -23h449q94 0 136 7q5 -25 7 -31q-25 -6 -141 -6h-447q-84 0 -122.5 30t-38.5 98v513h-131v30h440v212h30v-212h439v-30z" />
    <glyph glyph-name="uni4EA2" unicode="&#x4ea2;" 
d="M959 690v-30h-894v30h432v162h31v-162h431zM774 -25h135q30 0 38.5 33.5t11.5 154.5q13 -11 29 -15q-3 -124 -17 -162t-60 -38h-137q-47 0 -63 13.5t-16 54.5v467h-387v-165q0 -55 -9 -103t-32.5 -101t-72.5 -101.5t-120 -86.5q-4 10 -20 23q69 37 115.5 82.5t69 95.5
t31.5 95t9 97v194h447v-498q0 -25 9 -32.5t39 -7.5z" />
    <glyph glyph-name="uni4EA4" unicode="&#x4ea4;" 
d="M957 701v-29h-889v29h427v150h30v-150h432zM655 595l25 18q80 -53 160 -119t122 -116l-25 -23q-42 51 -122 119t-160 121zM348 616l30 -10q-51 -72 -129 -141t-160 -119q-12 18 -21 27q81 46 156.5 110.5t123.5 132.5zM687 441l31 -9q-61 -167 -181 -279
q174 -150 442 -196q-10 -10 -22 -29q-269 51 -444 203q-161 -137 -442 -208q-4 11 -21 30q280 64 440 200q-119 116 -178 272l28 10q58 -152 174 -262q114 107 173 268z" />
    <glyph glyph-name="uni4EA5" unicode="&#x4ea5;" 
d="M841 431l25 -15q-90 -138 -245 -251q195 -114 318 -218l-24 -21q-122 103 -319 222q-219 -152 -517 -224q-8 16 -19 27q263 63 465.5 187.5t315.5 292.5zM527 699h435v-29h-456l8 -5q-106 -123 -230 -223q94 -70 138 -115q174 111 267 246l27 -14q-93 -131 -253 -239
t-349 -168q-13 18 -21 25q161 49 303 134q-43 43 -110 96t-131 92l19 17q17 -10 87 -57q120 97 216 211h-410v29h430v153h30v-153z" />
    <glyph glyph-name="uni4EA6" unicode="&#x4ea6;" 
d="M233 499l30 -7q-69 -189 -198 -310q-1 0 -12 8t-16 10q129 112 196 299zM957 627h-286v-643q0 -24 -8 -35.5t-27 -15.5q-27 -6 -168 -6q-9 23 -14 32q123 -3 162 -1q14 1 19 6t5 19v644h-223v-138q0 -64 -4 -113.5t-19.5 -115.5t-42.5 -119.5t-77 -112t-120 -107.5
q-5 7 -22 21q68 48 117 105t75 108.5t40.5 115t18 110t3.5 108.5v138h-318v29h428v194h30v-194h431v-29zM768 485l25 11q59 -72 111.5 -162.5t74.5 -156.5l-28 -12q-21 65 -73 155.5t-110 164.5z" />
    <glyph glyph-name="uni4EA8" unicode="&#x4ea8;" 
d="M866 332l26 -20q-133 -89 -358 -142v-198q0 -21 -7 -30t-27 -13q-28 -7 -192 -5q-3 12 -13 27q151 -3 183 0q15 1 20 5.5t5 15.5v225h22q178 42 287 102h-704v31h750zM786 452v145h-537v-145h537zM219 628h597v-206h-597v206zM526 742h430v-29h-889v29h429v110h30v-110z
" />
    <glyph glyph-name="uni4EAB" unicode="&#x4eab;" 
d="M956 748v-30h-889v30h429v104h30v-104h430zM237 602v-127h555v127h-555zM822 444h-615v189h615v-189zM966 168v-31h-440v-165q0 -20 -6 -29t-24 -13q-20 -5 -168 -5q-2 7 -13 27q110 -3 159 0q13 1 17.5 5t4.5 14v166h-435v31h435v78h26q151 34 262 86h-630v29h680l7 3
l25 -19q-124 -78 -340 -125v-52h440z" />
    <glyph glyph-name="uni4EAC" unicode="&#x4eac;" 
d="M266 208l31 -10q-35 -61 -92 -124t-117 -106q-9 13 -22 19q59 42 114.5 103t85.5 118zM239 535v-218h558v218h-558zM827 287h-302v-309q0 -22 -7 -31.5t-26 -13.5q-28 -7 -180 -5q-9 20 -13 28q118 -3 172 0q14 1 19 5.5t5 15.5v310h-286v278h618v-278zM721 191l25 14
q130 -123 205 -224l-26 -18q-32 45 -90.5 110.5t-113.5 117.5zM525 712h429v-30h-880v30h421v140h30v-140z" />
    <glyph glyph-name="uni4EAD" unicode="&#x4ead;" 
d="M193 206v30h651v-30h-319v-231q0 -22 -6.5 -31t-26.5 -13q-22 -5 -185 -5q-3 11 -13 28q145 -3 177 0q14 1 19 5t5 15v232h-302zM92 177v190h846v-190h-30v159h-785v-159h-31zM787 481v130h-545v-130h545zM212 641h606v-190h-606v190zM526 751h431v-30h-889v30h428v105
h30v-105z" />
    <glyph glyph-name="uni4EAE" unicode="&#x4eae;" 
d="M957 751v-30h-889v30h428v105h30v-105h431zM938 188h-30v140h-785v-140h-31v169h846v-169zM788 472v136h-545v-136h545zM213 638h606v-197h-606v197zM354 258h32q-15 -149 -83 -224t-233 -109q-4 11 -18 24q160 30 224 100t78 209zM700 -42h180q31 0 40 24t12 113
q10 -10 27 -12q-4 -94 -18 -123t-59 -29h-181q-53 0 -71 11.5t-18 47.5v265h30v-265q0 -20 11 -26t47 -6z" />
    <glyph glyph-name="uni4EB0" unicode="&#x4eb0;" 
d="M278 206l30 -10q-36 -57 -95 -115t-121 -97q-1 0 -9.5 7.5t-12.5 10.5q62 40 119.5 95.5t88.5 108.5zM236 411v-120h559v120h-559zM236 558v-118h559v118h-559zM825 261h-300v-286q0 -22 -6.5 -31.5t-25.5 -13.5q-22 -5 -176 -5q-1 6 -13 29q130 -3 168 -1q14 2 18.5 6
t4.5 15v287h-289v327h619v-327zM705 189l25 15q127 -113 205 -210l-27 -17q-34 43 -92 104t-111 108zM525 719h439v-31h-899v31h430v133h30v-133z" />
    <glyph glyph-name="uni4EB3" unicode="&#x4eb3;" 
d="M957 755v-30h-889v30h428v97h30v-97h431zM941 225h-30v134h-796v-134h-30v164h856v-164zM793 494v128h-549v-128h549zM214 651h609v-187h-609v187zM580 -40h285q40 0 52 19.5t16 87.5q12 -8 28 -12q-5 -75 -22.5 -98.5t-72.5 -23.5h-282q-74 0 -98.5 12.5t-24.5 52.5v107
l-382 -22l-3 29l385 22v106q-177 -19 -276 -26q0 14 -8 26q423 33 586 82l29 -24q-106 -30 -302 -54v-109l453 27l2 -29l-455 -27v-108q0 -23 17.5 -30.5t72.5 -7.5z" />
    <glyph glyph-name="uni4EB6" unicode="&#x4eb6;" 
d="M60 -35v30h905v-30h-905zM686 482v70h-345v-70h345zM716 583v-131h-405v131h405zM837 390v254h-640v-254h640zM866 675v-315h-699v315h699zM258 168v-85h523v85h-523zM258 281v-83h523v83h-523zM811 53h-583v257h583v-257zM525 765h440v-30h-905v30h435v86h30v-86z" />
    <glyph glyph-name="uni4EBA" unicode="&#x4eba;" 
d="M522 812l-2 -34q3 -36 7.5 -75t19 -108.5t35 -134t57 -141.5t82 -140.5t114 -122.5t150.5 -95q-11 -8 -23 -24q-76 35 -140.5 87.5t-110 115t-81 127.5t-59.5 135.5t-38 127.5t-24 116q-68 -531 -441 -708q-5 7 -22 21q69 32 127 78t100 93t76 109t56 111.5t38.5 116
t24.5 106.5t14 100t7 79t3 60h30z" />
    <glyph glyph-name="uni4EC0" unicode="&#x4ec0;" 
d="M332 847l29 -8q-48 -119 -113 -227v-683h-30v636q-69 -103 -147 -183q-8 12 -23 25q85 80 160 196.5t124 243.5zM972 481v-29h-301v-525h-30v525h-311v29h311v364h30v-364h301z" />
    <glyph glyph-name="uni4EC1" unicode="&#x4ec1;" 
d="M909 667v-30h-525v30h525zM330 849l29 -7q-54 -138 -119 -243v-669h-30v622q-66 -99 -132 -167q-7 10 -24 25q83 79 155.5 195t120.5 244zM322 45h637v-30h-637v30z" />
    <glyph glyph-name="uni4EC2" unicode="&#x4ec2;" 
d="M303 847l29 -8q-44 -120 -108 -233v-677h-29v627q-60 -97 -124 -166q-5 11 -22 25q76 80 143.5 194.5t110.5 237.5zM935 594v-22q-12 -322 -26.5 -451t-41.5 -161q-22 -25 -63 -26q-56 0 -136 6q-5 20 -11 29q63 -5 143 -5q29 -2 40 13q24 25 38 153t26 434h-286
q-5 -86 -14 -156.5t-29 -144.5t-49.5 -133t-76 -112.5t-106.5 -91.5q-13 13 -27 20q74 45 126 111t81.5 149t44.5 168t21 190h-246v30h248q4 83 4 254h30q0 -143 -4 -254h314z" />
    <glyph glyph-name="uni4EC4" unicode="&#x4ec4;" 
d="M952 746h-770v-270q0 -363 -111 -543q-12 12 -26 19q107 173 107 524v301h800v-31zM578 670l-1 -13q16 -142 43.5 -249.5t73.5 -199.5t116.5 -155t166.5 -100q-13 -10 -23 -26q-167 69 -257 212t-131 375q-10 -100 -29.5 -178.5t-58.5 -159.5t-108 -144t-166 -104
q-4 5 -21 22q68 28 122 68t90.5 83.5t63.5 102t42 108.5t25 119t13.5 118.5t6.5 120.5h32z" />
    <glyph glyph-name="uni4EC6" unicode="&#x4ec6;" 
d="M365 845l27 -9q-50 -111 -114 -210v-698h-31v653q-90 -127 -200 -222q-13 19 -21 25q101 83 190.5 204.5t148.5 256.5zM992 292l-17 -25q-158 115 -363 222v-561h-29v921h29v-328q100 -52 209.5 -117.5t170.5 -111.5z" />
    <glyph glyph-name="uni4EC7" unicode="&#x4ec7;" 
d="M299 849l30 -8q-48 -129 -107 -233v-682h-29v630q-56 -93 -120 -164q-15 18 -23 25q75 80 141 194t108 238zM847 -32h46q23 0 32 6q12 7 15 32q5 33 5 125q12 -11 28 -14q0 -99 -7 -129q-5 -29 -23 -39q-18 -9 -47 -9h-50q-29 0 -47 11q-10 7 -14 24.5t-4 69.5v523h-228
q-5 -87 -14 -158t-28 -145.5t-47 -133.5t-72 -113t-102 -92q-10 10 -26 18q71 46 120.5 112.5t78 150.5t42 169t19.5 192h-209v30h210q4 83 4 253h30q0 -142 -4 -253h256v-567q0 -53 10 -59q9 -4 26 -4z" />
    <glyph glyph-name="uni4ECA" unicode="&#x4eca;" 
d="M806 327l6 3l23 -9q-106 -227 -198 -398l-29 9q91 166 182 364h-630v31h646zM284 517h460v-31h-460v31zM489 849h29q77 -108 208 -224.5t253 -189.5q-13 -9 -22 -24q-124 76 -251 189.5t-199 216.5q-63 -100 -185 -217t-255 -200q-5 9 -20 24q135 82 257.5 200t184.5 225
z" />
    <glyph glyph-name="uni4ECB" unicode="&#x4ecb;" 
d="M508 817q-63 -109 -183 -224.5t-253 -192.5q-5 9 -20 24q136 76 256.5 192.5t181.5 232.5h29q75 -119 203.5 -233.5t253.5 -180.5q-10 -8 -21 -24q-127 70 -250.5 181t-196.5 225zM684 504h30v-574h-30v574zM306 501h30v-160q0 -63 -7.5 -111.5t-29.5 -105t-71.5 -106.5
t-124.5 -92q-6 10 -20 22q59 32 101.5 71.5t65.5 76t36 82t16.5 81t3.5 82.5v160z" />
    <glyph glyph-name="uni4ECD" unicode="&#x4ecd;" 
d="M306 847l30 -8q-47 -116 -114 -224v-685h-31v638q-66 -99 -141 -174q-21 25 -22 26q82 77 155.5 190t122.5 237zM786 500h177q0 -16 -1 -21q-15 -271 -31.5 -384.5t-44.5 -142.5q-21 -23 -68 -24q-77 0 -162 5q-2 20 -10 31q88 -7 167 -7q34 0 45 12q26 25 43 137t31 364
h-149q-5 -46 -9 -77l-31 2q21 152 35 347h-253q-2 -83 -5.5 -145t-11.5 -147.5t-24.5 -154t-40.5 -139.5t-62.5 -129.5t-88.5 -100.5q-7 5 -25 16q59 48 101.5 124.5t65.5 152.5t37 178.5t18 174.5t6 170h-148v31h463q-4 -59 -24 -273z" />
    <glyph glyph-name="uni4ECE" unicode="&#x4ece;" 
d="M482 180l-26 -16q-59 112 -172 248q-57 -319 -208 -486l-28 20q66 68 111.5 158t72.5 206t41 232.5t23 276.5l32 -2q-14 -212 -38 -368q127 -148 192 -269zM648 819h31q0 -7 -1 -50.5t-2 -69.5q8 -89 20 -165t36 -165.5t56 -162t82 -141t114 -115.5l-23 -23
q-230 180 -295 638q-56 -477 -342 -640q-7 6 -24 18q54 31 100 73.5t79 87t59.5 102t44 106.5t30 112.5t19 108.5t10.5 107t4.5 95t1.5 84z" />
    <glyph glyph-name="uni4ECF" unicode="&#x4ecf;" 
d="M331 843l27 -7q-49 -120 -118 -228v-678h-30v634q-71 -102 -158 -185q-11 13 -22 23q89 79 168.5 196t132.5 245zM997 -60l-27 -13q-14 47 -48 126q-420 -41 -625 -59l-7 33l110 8q54 153 115 378t99 406l30 -7q-105 -454 -214 -774q80 6 480 42q-72 161 -152 298l25 9
q65 -108 125.5 -235t88.5 -212z" />
    <glyph glyph-name="uni4ED4" unicode="&#x4ed4;" 
d="M330 843l27 -7q-52 -124 -117 -227v-679h-30v635q-71 -103 -159 -186q-11 13 -22 23q89 79 168.5 196t132.5 245zM981 399v-29h-327v-384q0 -25 -8.5 -36t-28.5 -16q-28 -5 -183 -5q-8 20 -14 31q122 -3 178 0q15 1 21 6.5t6 18.5v385h-340v29h340v159h22q143 85 234 188
h-498v31h525l7 2l23 -14q-51 -61 -130 -124t-154 -107v-135h327z" />
    <glyph glyph-name="uni4ED5" unicode="&#x4ed5;" 
d="M330 846l28 -8q-53 -124 -118 -226v-683h-30v638q-71 -102 -158 -185q-11 16 -22 24q89 80 168.5 196.5t131.5 243.5zM982 480h-330v-477h315v-30h-634v30h290v477h-314v30h314v327h29v-327h330v-30z" />
    <glyph glyph-name="uni4ED6" unicode="&#x4ed6;" 
d="M298 846l29 -8q-52 -127 -113 -226v-683h-30v636q-64 -99 -138 -175q-11 16 -22 24q82 79 154.5 193t119.5 239zM539 -32h319q49 0 64 30t21 127q17 -11 31 -14q-7 -103 -28.5 -137t-91.5 -34h-310q-76 0 -103 20.5t-27 82.5v385l-123 -48l-11 29l134 52v299h29v-288
l204 79v299h30v-288l216 83l5 5l6 7l22 -11l-2 -7q0 -346 -17 -410q-14 -52 -64 -54q-47 -2 -93 0q-3 13 -12 30q18 -1 95 -1q19 0 29 7.5t16 30.5q16 52 16 371l-217 -84v-388h-30v377l-204 -79v-397q0 -43 19.5 -58.5t76.5 -15.5z" />
    <glyph glyph-name="uni4ED7" unicode="&#x4ed7;" 
d="M330 843l28 -8q-53 -125 -118 -226v-680h-30v635q-73 -105 -158 -186q-8 12 -22 24q89 80 168.5 196.5t131.5 244.5zM711 596v-33q0 -123 -22 -223t-86 -189q140 -151 385 -198q-12 -13 -18 -28q-244 53 -384 202q-94 -116 -274 -202q-12 17 -23 25q181 84 274 202
q-109 128 -159 329l28 8q48 -193 150 -314q59 84 78.5 177t19.5 211v33h-357v30h357v225h31v-225h264v-30h-264z" />
    <glyph glyph-name="uni4ED8" unicode="&#x4ed8;" 
d="M330 842l29 -7q-54 -136 -119 -240v-666h-30v619q-70 -103 -136 -170q-10 12 -24 24q84 79 158 196t122 244zM963 615v-29h-146v-597q0 -29 -10 -41.5t-33 -17.5q-33 -7 -201 -5q-6 16 -14 32q126 -4 198 -1q18 2 24 8t6 24v598h-440v29h440v223h30v-223h146zM623 182
l-27 -18q-58 110 -166 266l25 13q108 -155 168 -261z" />
    <glyph glyph-name="uni4ED9" unicode="&#x4ed9;" 
d="M306 847l30 -8q-47 -116 -114 -224v-685h-31v638q-66 -99 -141 -174q-21 25 -22 26q82 77 155.5 190t122.5 237zM901 565h31v-619h-31v86h-509v-95h-30v628h30v-504h235v759h29v-759h245v504z" />
    <glyph glyph-name="uni4EDD" unicode="&#x4edd;" 
d="M527 336v-347h384v-31h-802v31h388v347h-303v31h641v-31h-308zM489 852h30q78 -121 211 -248t259 -204q-9 -8 -22 -25q-129 84 -258 207t-201 236q-64 -110 -188.5 -237t-260.5 -215q0 1 -20 23q138 89 263 217t187 246z" />
    <glyph glyph-name="uni4EDE" unicode="&#x4ede;" 
d="M306 847l29 -8q-46 -108 -113 -219v-691h-29v644q-65 -100 -142 -179q-18 21 -23 25q81 78 154.5 191.5t123.5 236.5zM440 564l25 -9q-65 -202 -144 -290l-25 15q84 90 144 284zM961 737v-23q-13 -400 -29.5 -558.5t-48.5 -196.5q-25 -28 -69 -29q-67 0 -144 7
q-2 18 -10 29q82 -6 151 -6q32 0 43 16q29 30 46 191t30 541h-274q-2 -59 -5 -104t-10 -107.5t-18.5 -112.5t-28.5 -108t-43 -106t-59.5 -94.5t-80 -85t-102.5 -67.5q-17 17 -21 20q63 32 113.5 78t84.5 95t59.5 113t39.5 118.5t23.5 125t12.5 120t5 115.5h-275v29h610z" />
    <glyph glyph-name="uni4EDF" unicode="&#x4edf;" 
d="M298 847l30 -8q-46 -115 -114 -229v-681h-30v633q-70 -103 -138 -172q-12 18 -22 25q82 78 154.5 192.5t119.5 239.5zM976 432v-30h-317v-475h-29v475h-315v30h315v280q-141 -26 -269 -42q-4 13 -10 24q386 53 536 114l28 -24q-84 -33 -256 -66v-286h317z" />
    <glyph glyph-name="uni4EE3" unicode="&#x4ee3;" 
d="M943 649l-21 -18q-75 82 -192 167l20 16q112 -79 193 -165zM349 837l29 -9q-52 -118 -125 -224v-676h-30v634q-72 -99 -169 -185q-10 15 -21 23q95 78 178.5 194t137.5 243zM967 540l-328 -38q71 -531 262 -543q26 -1 42.5 47.5t26.5 145.5q14 -10 26 -13
q-13 -116 -35 -165.5t-60 -47.5q-220 11 -290 572l-292 -34l-4 28l292 34q-15 143 -24 311h29q7 -143 24 -307l326 38z" />
    <glyph glyph-name="uni4EE4" unicode="&#x4ee4;" 
d="M848 351v-302q0 -32 -27 -40q-23 -6 -148 -6q-1 6 -14 29q116 -2 139 0q12 1 16 4t4 13v273h-349v-395h-31v395h-302v29h712zM294 541h439v-30h-439v30zM490 850h29q80 -105 209.5 -211.5t251.5 -169.5q-14 -14 -21 -26q-124 68 -250.5 172.5t-200.5 203.5
q-64 -96 -186 -203.5t-254 -181.5q-12 15 -20 23q135 73 257 182t185 211z" />
    <glyph glyph-name="uni4EE5" unicode="&#x4ee5;" 
d="M578 472l-28 -14q-20 53 -65.5 122.5t-96.5 124.5l25 12q51 -55 97 -123.5t68 -121.5zM473 255l6 -29l-420 -191l-12 28l70 31l74 33l-12 675l29 1l13 -663l112.5 51.5zM820 804l31 -4q-22 -185 -56 -317.5t-90 -230.5q183 -174 280 -300l-27 -20q-95 127 -268 295
q-124 -199 -392 -303q-12 14 -25 24q114 40 198.5 96.5t143.5 127t99.5 168t64.5 207t41 257.5z" />
    <glyph glyph-name="uni4EED" unicode="&#x4eed;" 
d="M306 847l30 -8q-47 -116 -114 -224v-685h-31v638q-66 -99 -141 -174q-21 25 -22 26q82 77 155.5 190t122.5 237zM898 737h-267q-9 -256 -58 -424q119 -119 279 -187q27 178 46 611zM930 768v-25q-20 -447 -46 -629q64 -25 112 -36q-11 -11 -19 -27q-43 11 -98 32
q-17 -95 -45 -126q-24 -29 -71 -29q-53 -2 -148 5q-2 22 -9 31q80 -7 154 -7q30 0 45 17q27 27 42 122q-159 66 -283 187q-81 -250 -266 -358q-11 11 -23 18q189 111 266 364q-120 126 -188 297l27 10q61 -157 170 -275q42 158 49 398h-254v31h585z" />
    <glyph glyph-name="uni4EEE" unicode="&#x4eee;" 
d="M306 847l30 -8q-47 -116 -114 -224v-685h-31v638q-66 -99 -141 -174q-21 25 -22 26q82 77 155.5 190t122.5 237zM899 485h-376q64 -197 191 -339q132 140 185 339zM920 518l18 -10q-57 -229 -204 -383q112 -117 254 -170q-8 -7 -21 -25q-139 56 -253 174
q-111 -110 -272 -177q-15 20 -21 25q159 63 272 174q-129 147 -199 359h-53v-15q0 -369 -123 -545q-14 11 -26 16q73 104 96.5 237.5t23.5 291.5v326h550v-30h-521v-250h471z" />
    <glyph glyph-name="uni4EF0" unicode="&#x4ef0;" 
d="M299 847l30 -8q-47 -116 -114 -224v-685h-30v639q-67 -99 -142 -175q-18 22 -23 26q83 77 157.5 190.5t121.5 236.5zM583 840l32 -20q-84 -68 -214 -138v-536l94 28t115 33l4 -27l-168.5 -52l-129.5 -39l-12 32q6 2 19.5 5t25.5 6l23 6v580l25 -9q121 67 186 131z
M948 749v-584q0 -23 -6.5 -33t-23.5 -14q-24 -6 -155 -6q-4 17 -13 30q102 -3 146 0q13 1 18 5.5t5 16.5v555h-239v-792h-31v822h299z" />
    <glyph glyph-name="uni4EF2" unicode="&#x4ef2;" 
d="M293 851l29 -7q-40 -115 -102 -229v-687h-30v635q-60 -102 -120 -169q-15 18 -23 25q74 79 139 193.5t107 238.5zM656 298h266v305h-266v-305zM370 298h257v305h-257v-305zM656 633h295v-428h-29v63h-266v-339h-29v339h-257v-67h-30v432h287v208h29v-208z" />
    <glyph glyph-name="uni4EF6" unicode="&#x4ef6;" 
d="M301 847l29 -8q-43 -118 -105 -227v-683h-29v632q-55 -92 -126 -171q-7 10 -23 24q76 79 143 194t111 239zM962 324v-30h-296v-368h-30v368h-311v30h311v275h-200q-39 -112 -84 -179q-14 11 -25 18q89 121 130 366l29 -5q-17 -89 -41 -170h191v210h30v-210h255v-30h-255
v-275h296z" />
    <glyph glyph-name="uni4EF7" unicode="&#x4ef7;" 
d="M298 847l30 -8q-49 -120 -114 -228v-681h-30v634q-62 -96 -139 -174q-13 19 -21 25q82 78 154.5 193t119.5 239zM466 344v145h30v-146q0 -43 -2.5 -78t-13 -85t-29.5 -91t-54.5 -87t-84.5 -83q-11 15 -22 22q48 34 82 77.5t52 83t28 88t12 80.5t2 74zM767 -67v556h30
v-556h-30zM604 831h32q60 -102 158.5 -200.5t196.5 -159.5q-3 -3 -19 -26q-99 66 -195.5 163t-153.5 192q-51 -94 -143.5 -194t-195.5 -169q-4 7 -21 24q106 67 199.5 168t141.5 202z" />
    <glyph glyph-name="uni4EFB" unicode="&#x4efb;" 
d="M330 853l28 -8q-57 -130 -117 -224v-694h-31v647q-73 -105 -158 -186q-10 14 -22 25q90 80 169 196t131 244zM979 372h-324v-370h302v-30h-624v30h293v370h-330v29h330v317q-141 -26 -282 -43q-2 9 -10 24q404 57 562 115l25 -26q-103 -35 -266 -64v-323h324v-29z" />
    <glyph glyph-name="uni4F01" unicode="&#x4f01;" 
d="M534 295v-306h416v-30h-871v30h148v403h30v-403h246v596h31v-259h317v-31h-317zM490 851h29q76 -117 205 -235t253 -190q-15 -13 -22 -25q-125 75 -250 191t-197 227q-62 -106 -183 -225.5t-253 -202.5q-6 9 -20 23q135 83 256 203.5t182 233.5z" />
    <glyph glyph-name="uni4F09" unicode="&#x4f09;" 
d="M312 677h312v169h29v-169h324v-31h-665v31zM306 847l30 -8q-47 -116 -114 -224v-685h-31v638q-66 -99 -141 -174q-21 25 -22 26q82 77 155.5 190t122.5 237zM852 -32h54q28 0 38 7q14 9 18 35q5 37 5 133q7 -6 27 -13q0 -101 -6 -139q-7 -31 -26 -41q-17 -9 -53 -9h-58
q-34 0 -52 11q-11 7 -15 23t-4 63v426h-285v-137q0 -269 -198 -404q-7 14 -19 24q187 128 187 381v166h345v-466q0 -48 11 -55q15 -5 31 -5z" />
    <glyph glyph-name="uni4F0A" unicode="&#x4f0a;" 
d="M306 847l30 -8q-45 -111 -114 -225v-687h-29v641q-64 -96 -142 -174q-18 21 -23 25q83 77 157 190.5t121 237.5zM856 276v221h-264v-65q0 -97 -10 -156h274zM592 744v-218h264v218h-264zM974 526v-29h-88v-310h-30v60h-278q-48 -215 -276 -320q-9 15 -18 26
q217 94 262 294h-206v29h212q10 59 10 155v66h-283v29h283v218h-204v30h528v-248h88z" />
    <glyph glyph-name="uni4F0D" unicode="&#x4f0d;" 
d="M295 842l30 -7q-42 -108 -101 -213v-694h-30v642q-66 -106 -148 -192q-8 12 -21 23q81 81 152.5 197.5t117.5 243.5zM838 413h-271q-48 -268 -77 -407h348v407zM868 6h112v-30h-688v30h166q29 125 79 407h-192v29h197q34 204 47 290h-245v30h597v-30h-321
q-6 -43 -48 -290h296v-436z" />
    <glyph glyph-name="uni4F0E" unicode="&#x4f0e;" 
d="M298 847l30 -8q-47 -114 -105 -210v-699h-30v649q-66 -102 -147 -185q-21 25 -22 26q82 77 154.5 190.5t119.5 236.5zM901 452l19 -13q-75 -200 -254 -336q137 -108 321 -155q-11 -8 -21 -26q-185 50 -324 164q-145 -102 -348 -159q-12 18 -20 25q202 54 344 153
q-140 125 -210 299l26 11q69 -172 209 -292q165 124 235 297h-560v30h304v195h-320v31h320v175h29v-175h325v-31h-325v-195h243z" />
    <glyph glyph-name="uni4F0F" unicode="&#x4f0f;" 
d="M910 628l-24 -19q-56 94 -135 184l22 13q83 -90 137 -178zM310 847l29 -8q-41 -105 -108 -218v-692h-29v643q-66 -102 -145 -182q-12 18 -22 25q82 78 154.5 192.5t120.5 239.5zM968 501h-314q78 -428 323 -548q-15 -12 -23 -26q-236 127 -319 523q-45 -332 -313 -521
q-10 12 -25 22q280 194 313 550h-295v29h297q3 52 3 102v217h30v-217q0 -50 -3 -102h326v-29z" />
    </font>
</defs>
</svg>
