<svg xmlns="http://www.w3.org/2000/svg" viewBox="0 0 64 64" enable-background="new 0 0 64 64"><path fill="#e6e7e8" d="m56.968 12.936h-40.78v41.38h40.78c3.796 0 6.87-3.682 6.87-8.217v-24.945c0-4.536-3.074-8.216-6.87-8.216"/><path fill="#1b75bb" d="m21.09 12.936h-14.06c-3.79 0-6.867 3.68-6.867 8.217v5.575 13.793 5.576c0 4.535 3.074 8.217 6.872 8.217h14.05v-41.38"/><path fill="#176496" d="M6.956,12.936c-3.797,0-6.872,3.68-6.872,8.217v5.575l0,0v13.795l0,0V46.1c0,4.536,3.075,8.217,6.872,8.217   h12.169V40.521l0,0V26.726l0,0v-13.79H6.956z"/><path fill="#ec1c24" d="m57.05 12.936h-14.05v41.38h14.05c3.796 0 6.87-3.68 6.87-8.217v-5.574-13.795-5.575c0-4.537-3.074-8.217-6.87-8.217"/></svg>