<svg xmlns="http://www.w3.org/2000/svg" viewBox="0 0 64 64" enable-background="new 0 0 64 64"><g transform="translate(4)"><ellipse cx="29.11" cy="56.14" rx="28.25" ry="7.609" fill="#04a69c"/><path d="m51.716 56.14c0 3.362-10.12 6.088-22.605 6.088-12.481 0-22.601-2.726-22.601-6.088 0-3.359 10.12-6.084 22.601-6.084 12.485 0 22.605 2.724 22.605 6.084" fill="#0b7d70"/><path d="m58.18 28.852c0-8.224-13.01-8.762-29.07-8.762-16.06 0-29.07.538-29.07 8.762 0 8.212 13.01 28.48 29.07 28.48 16.07 0 29.07-20.269 29.07-28.48" fill="#04a69c"/><path d="m24.352 44.54c-4.311-6.863-6.554-17.545-2.684-24.375-12.441.299-21.621 1.784-21.621 8.687 0 8.212 13.01 28.48 29.07 28.48 3.168 0 6.209-.797 9.06-2.122-5.531-2.343-10.611-5.55-13.83-10.67" fill="#089083"/><ellipse cx="29.11" cy="27.608" rx="28.9" ry="9.116" fill="#bcbdbf"/><ellipse cx="29.11" cy="28.405" rx="28.18" ry="8.319" fill="#04a69c"/><path d="m58.23 27.875c.189 8.673-14.85 10.506-29.799 10.837-14.954.335-28.22-3.737-28.42-12.407-.182-8.678 19.69-21.854 34.63-22.18 14.943-.326 23.398 15.09 23.589 23.755" fill="#f5e8d9"/><path d="m50.587 34.09c-8.326 2.216-19.524 2.02-27.564-1.303-7.409-3.06-14.734-9.909-10.132-18.762.926-1.785 2.086-3.295 3.396-4.626-9.1 4.702-16.397 11.634-16.286 16.91.195 8.67 13.467 12.742 28.418 12.407 12.73-.279 25.498-1.67 28.895-7.431-1.948 1.172-4.156 2.119-6.727 2.805" fill="#e9ddd6"/><path d="m54.17 17.189c.138 6.291-13.04 17.792-23.683 11.895-11.04-6.12-23.54-6.634-23.681-12.919-.133-6.295 16.06-15.891 28.22-16.16 12.157-.265 19.01 10.899 19.14 17.18" fill="#eb77ab"/><path d="m22.826 15.267c-1.918-5.971-.717-10.25 2.231-13.366-9.522 3.16-18.352 9.61-18.254 14.264.142 6.285 12.641 6.799 23.681 12.919 3.58 1.984 7.438 1.97 10.991.879-6.923-2.941-16.376-7.63-18.649-14.696" fill="#db7db2"/></g></svg>