<svg xmlns="http://www.w3.org/2000/svg" viewBox="0 0 64 64" enable-background="new 0 0 64 64"><g fill="#efb086"><path d="m17.17 62.979c4.504 1.215 9.233 1.215 15.12-.049-.721-.552-1.425-1.206-2.088-2.06-1.532-1.936-1.323-4.605.416-6.581-.939-1.454-1.24-3.227-.663-4.884.128-.357.3-.702.503-1.029.345-.619.818-1.216 1.441-1.786-.114-.057-.244-.106-.352-.163-.135-.075-.252-.173-.38-.252-3.593 4.592-8.935 7.743-15.14 8.49l-.234.018c-.962 0-1.732-.747-1.794-1.732-.06-.981.625-1.813 1.593-1.931 5.559-.668 10.206-3.505 13.177-7.691-.451-1.145-.51-2.408-.077-3.615.232-.658.628-1.264 1.121-1.804.068-.093.126-.189.203-.281-1.699-.792-2.528-2.101-2.917-3.272-.887-2.665.254-5.197 3.094-7.04.264-.226.534-.451.81-.658-1.945.103-3.766-.277-5.259-1.295l-1.322-.897 1.636-1.224c.219-.177.425-.344.698-.473 2.795-1.326 4.312-3.527 4.641-6.728.544-5.327-.384-9.379-2.917-12.755-.742-.99-1.949-1.945-3.303-2.617-.41-.202-.803-.305-1.196-.305-.864 0-1.799.469-3.03 1.513-.96.803-.967 1.674-.62 3.327.11.519.292 1.075.567 1.751 1.629 3.929.946 7.85-1.976 11.342-2.352 2.82-4.338 4.741-6.439 6.231-6.887 4.888-9.37 11.208-7.582 19.314.434 1.976.803 3.961 1.17 5.944l.313 1.692c1.147 6.087 4.677 9.848 10.789 11.501"/><path d="m48.673 23.55c-.196 0-.393.001-.596.021-1.562.129-3.118.492-4.381 1.03-3.254 1.383-7.06 3.061-10.645 4.98-2.192 1.177-3.087 2.419-2.663 3.687.234.699.851 1.622 3.525 1.622.352 0 .702-.013 1.05-.039 4.104-.309 9.36-.106 11.965-.881 2.607-.772 2.955-1.374 3.262-1.497 2.405-1.01 3.814-3.356 3.338-5.401-.486-2.094-2.346-3.522-4.855-3.522"/><path d="m53.39 35.06c-.135-.026-.279-.035-.425-.035-.272 0-.469.044-.563.083-4.724 2.061-10.05 3.179-16.758 3.522-1.606.081-3.35 1.065-3.805 2.153-.422 1.01.07 2.028 1.263 2.612.703.349 1.576.632 2.524.817 1.092.217 2.775.331 4.866.331 4.557 0 9.84-.543 12.293-1.264 2.729-.809 4.316-2.44 4.35-4.474.027-1.859-1.479-3.364-3.745-3.745"/><path d="m54.29 47.957c-5.718.968-11.438 1.087-16.967.34-.18-.026-.36-.035-.542-.035-1.538 0-3.105.849-3.645 1.971-.554 1.163.047 2.538 1.397 3.188 3.668 1.75 7.815 1.883 12.206 2.023l.79.022c1.06.04 2.168-.009 2.976-.044l.661-.022c2.554-.627 4.505-2.099 5.107-3.862.394-1.146.181-2.268-.607-3.249-.424-.522-.717-.452-1.376-.332"/><path d="m33.428 56.619c-.535.786-.588 1.676-.095 2.32.672.902 1.354 1.556 2.04 1.963 2.897 1.729 6.35 2.744 10.566 3.111 2.112.194 3.94-.429 5.306-1.817 1.055-1.078 1.447-2.125 1.213-3.305-7.687.694-13.651-.035-19.03-2.272"/></g></svg>