<svg xmlns="http://www.w3.org/2000/svg" viewBox="0 0 64 64" enable-background="new 0 0 64 64"><path fill="#7c7b7d" d="m28.98 8.877c-7.335-8.66-18.414-11.483-24.771-6.235-3.088 2.594-4.558 6.688-4.14 11.53.412 4.734 2.59 9.652 6.134 13.833l24.408 28.829 3.279-2.709-22.09-26.07c-5.797-6.853-8.389-17.916-3.862-21.72 4.188-3.456 13.241.933 18.921 6.728l-.247.249.492.304c.24.15.465.322.705.485.086.097.174.189.265.289l22.906 27.05c2.853 3.37 5.572 7.173 5.991 10.736-.114 1.683-.26 4.01-1.355 4.932-2.508 2.069-8.308.421-12.396-2.579l.04-.21-.309-.13c-.168-.077-.34-.181-.512-.267-1.062-.857-2.09-1.858-3.048-2.991l-16.05-18.953c-1.12-2.643-1.649-5.837-.223-7.04 2.07-1.706 6.985.591 10.06 4.221l12.482 14.746 1.992-1.646c.04-.033.08-.042.119-.07l-13.815-16.318c-4.225-4.993-10.128-6.763-13.463-4-2.336 1.962-2.643 5.585-1.128 9.311-.009.009-.022.011-.033.018.452.913.827 1.872 1.426 2.689.084.108.124.221.146.337.053.066.115.121.15.205.083.177.159.366.233.549l17.4 20.548c6.329 7.471 15.11 10.164 19.999 6.126l.051-.038c2.381-2 3.393-5.292 2.835-9.258-.437-3.158-1.843-6.462-3.987-9.5l-.047-.134-.097-.159c-.28-.363-.56-.723-.861-1.082l-27.605-32.605"/></svg>