<svg xmlns="http://www.w3.org/2000/svg" viewBox="0 0 64 64" enable-background="new 0 0 64 64"><circle fill="#e0e7ec" cx="31.893" cy="31.891" r="29.544"/><path fill="#d1d7da" d="m52.12 47.01c-16.316 0-29.543-13.227-29.543-29.542 0-5.426 1.488-10.494 4.04-14.863-13.735 2.539-24.15 14.557-24.15 29.03 0 16.319 13.227 29.545 29.543 29.545 10.893 0 20.381-5.912 25.505-14.682-1.751.325-3.551.515-5.398.515"/><path fill="#98a9b4" d="m0 31.895c0 17.583 14.306 31.889 31.891 31.889 17.585 0 31.893-14.306 31.893-31.889 0-17.589-14.307-31.895-31.893-31.895-17.585 0-31.891 14.306-31.891 31.895m6.209 0c0-14.164 11.522-25.686 25.682-25.686 14.163 0 25.684 11.522 25.684 25.686 0 14.161-11.521 25.682-25.684 25.682-14.16 0-25.682-11.521-25.682-25.682"/><path fill="#85939c" d="m30.02 52.784c0 1.433.845 2.593 1.884 2.593l0 0c1.04 0 1.885-1.16 1.885-2.593v-21.01c0-1.437-.845-2.597-1.885-2.597l0 0c-1.04 0-1.884 1.16-1.884 2.597v21.01"/><path fill="#788288" d="m21.751 43.651c-.741 1.225-.616 2.655.272 3.19l0 0c.892.538 2.215-.022 2.954-1.251l7.854-13.02c.737-1.229.613-2.662-.278-3.194l0 0c-.888-.537-2.213.022-2.952 1.246l-7.85 13.03"/></svg>