<svg xmlns="http://www.w3.org/2000/svg" viewBox="0 0 64 64" enable-background="new 0 0 64 64"><path fill="#a2c3cb" d="M64,57.083c0,3.812-3.086,6.901-6.9,6.901H6.896C3.086,63.984,0,60.896,0,57.083V6.898   C0,3.09,3.086,0,6.896,0H57.1C60.914,0,64,3.09,64,6.898V57.083z"/><path fill="#98babf" d="m0 48.719v12.177c0 3.812 3.086 3.089 6.896 3.089h50.2c3.814 0 6.9.433 6.9-3.38v-53.709c-10.93 39.688-50.22 42.2-64 41.823"/><path fill="#b0d6dc" d="m58.56 36.871c0 14.883-12.07 26.954-26.965 26.954-14.889 0-26.962-12.07-26.962-26.954 0-14.887 12.07-26.958 26.962-26.958 14.893 0 26.965 12.07 26.965 26.958"/><path fill="#25333a" d="m2.805 63.926c9.727 0 19.464 0 29.19 0 9.738 0 19.478 0 29.2 0 1.801 0 2.938-1.087 2.047-1.906-9.736-9.105-19.465-18.19-29.19-27.28-.889-.818-3.207-.818-4.097 0-9.727 9.09-19.454 18.18-29.19 27.28-.894.819.25 1.906 2.046 1.906"/><path fill="#e7e6e6" d="m24.581 49.931c3.314-.14 6.609 1.535 9.699.065 3.194-1.521 7.647-1.563 11.817-1.816-4.045-3.777-8.09-7.558-12.13-11.332-.861-.794-3.1-.794-3.963 0-4.26 3.981-8.524 7.97-12.786 11.951 1.737 1.228 4.644 1.248 7.361 1.132"/></svg>