<svg xmlns="http://www.w3.org/2000/svg" viewBox="0 0 64 64" enable-background="new 0 0 64 64"><g transform="translate(2)"><path d="m32.23 14.962l-26.27 41.665c0 0-3.02 4.364 3.431 7.26l34.952-48.02-12.12-.904" fill="#919396"/><path d="m35.05 16.1c0 0-29.693 41.834-28.16 46.3 0 0-2.95-2.466-.918-5.688l26.27-41.664 2.816 1.051" fill="#888"/><g><path d="m31.575 28.932c-.108 1.2-1.263 2.09-2.579 1.992-1.313-.099-2.294-1.146-2.19-2.344.106-1.201 1.263-2.091 2.58-1.993 1.316.094 2.297 1.146 2.189 2.345" fill="#fff"/><path d="m29.19 31.07c-.067 0-.136-.004-.207-.012-.711-.053-1.361-.375-1.794-.886-.39-.459-.575-1.03-.524-1.609.114-1.256 1.329-2.222 2.728-2.117.707.051 1.361.374 1.794.886.39.457.575 1.032.524 1.611-.11 1.19-1.218 2.127-2.521 2.127m-.004-4.356c-1.164 0-2.147.825-2.244 1.875-.046.504.116 1 .458 1.402.387.457.968.744 1.603.792 1.245.095 2.33-.76 2.428-1.863.043-.508-.116-1-.457-1.406-.386-.457-.969-.745-1.601-.792-.064-.004-.124-.008-.187-.008"/></g><path d="m26.07 15.04l26.27 41.664c0 0 3.02 4.365-3.435 7.256l-34.947-48.02 12.11-.902" fill="#e6e7e8"/><path d="m26.72 29.01c.106 1.199 1.262 2.092 2.578 1.991 1.317-.097 2.298-1.148 2.19-2.346-.108-1.198-1.262-2.09-2.578-1.989-1.32.095-2.297 1.146-2.19 2.344" fill="#919396"/><path d="m23.25 16.1c0 0 29.694 41.834 28.17 46.3 0 0 2.948-2.466.918-5.688l-26.27-41.665-2.816 1.052" fill="#c8c8c8"/><g fill="#be202e"><path d="m11.05.214c-8.05-2.551-23 18.506 6.205 20.279l8.808-5.448c0 0-8.261-12.688-15.01-14.831m-.252 15.528c-3.801.284-7.13-2.288-7.437-5.747-.315-3.453 2.51-6.486 6.309-6.767 3.799-.284 7.128 2.289 7.439 5.745.311 3.456-2.517 6.485-6.311 6.769"/><path d="m32.22 15.04l8.809 5.448c29.2-1.772 14.256-22.83 6.204-20.279-6.752 2.143-15.01 14.831-15.01 14.831m8.954-6.072c.308-3.457 3.641-6.03 7.441-5.745 3.794.281 6.622 3.314 6.307 6.767-.308 3.459-3.636 6.03-7.438 5.748-3.793-.285-6.621-3.314-6.31-6.77"/></g></g></svg>