<?xml version="1.0" encoding="utf-8"?>
<svg xmlns="http://www.w3.org/2000/svg" width="24" height="24" viewBox="0 0 24 24">
    <g id="bold-cyrl-zhe">
        <path id="cyrl-zhe" d="M13 6v5.154c.328-.033.537-.181.705-.447.168-.266.401-.873.698-1.821.39-1.241.789-2.033 1.197-2.374.403-.336 1.075-.504 2.014-.504l.386-.008v1.78l-.386-.008c-.399 0-.691.062-.878.187-.186.119-.337.304-.452.553-.115.249-.286.762-.512 1.537-.12.412-.25.756-.392 1.033-.137.276-.383.537-.738.78.439.157.8.466 1.084.927.288.455.603 1.103.944 1.943l1.33 3.268h-2.314l-1.17-3.081-.113-.252-.239-.561c-.248-.569-.452-.932-.612-1.089-.16-.157-.317-.236-.552-.236v5.22h-2v-5.22c-.226 0-.382.076-.546.228-.164.152-.368.518-.612 1.098l-.246.561-.113.252-1.17 3.081h-2.314l1.33-3.268c.328-.808.636-1.447.924-1.919.293-.477.663-.794 1.11-.951-.355-.244-.603-.501-.745-.772-.137-.276-.268-.623-.392-1.041-.222-.759-.39-1.266-.505-1.52-.111-.255-.261-.444-.452-.569-.186-.125-.492-.187-.917-.187l-.352.008v-1.78l.386.008c.953 0 1.631.171 2.034.512.399.347.791 1.136 1.177 2.366.301.954.534 1.564.698 1.829.168.26.377.406.705.439v-5.154"/>
    </g>
</svg>
