<svg xmlns="http://www.w3.org/2000/svg" viewBox="0 0 64 64" enable-background="new 0 0 64 64"><path fill="#e6e7e8" d="m56.971 12.885h-50.02c-3.794 0-6.871 3.68-6.871 8.218v5.576 13.795 5.577c0 4.537 3.075 8.218 6.873 8.218h50.02c3.795 0 6.87-3.681 6.87-8.218v-5.577-13.795-5.576c0-4.538-3.075-8.218-6.872-8.218"/><path fill="#29b473" d="m21.09 12.885h-14.06c-3.794 0-6.871 3.68-6.871 8.218v5.576 13.795 5.577c0 4.537 3.074 8.218 6.873 8.218h14.06v-41.38l0 0"/><path fill="#ec1c24" d="m57.05 12.885h-14.05v41.39h14.05c3.796 0 6.871-3.68 6.871-8.217v-5.578-13.796-5.576c0-4.538-3.073-8.218-6.873-8.218"/><path fill="#239a60" d="M6.952,13.298c-3.798,0-6.873,3.643-6.873,8.136v5.52l0,0v13.657l0,0v5.521   c0,4.494,3.075,8.138,6.873,8.138h12.171V40.613l0,0V26.954l0,0V13.298H6.952z"/></svg>