<svg xmlns="http://www.w3.org/2000/svg" viewBox="0 0 64 64" enable-background="new 0 0 64 64"><g transform="translate(6)"><path d="m51.962 15.5c.658-1.539-.072-3.375-1.611-4.04-8.694-3.74-17.39-7.479-26.09-11.22-1.539-.659-3.379.072-4.04 1.611-6.664 15.486-13.323 30.977-19.983 46.46-.663 1.539.068 3.375 1.606 4.03 8.695 3.74 17.393 7.484 26.09 11.225.829.356 1.594.327 2.24.063.036-.013.07-.025.108-.038.036-.013.074-.03.108-.047.646-.255 1.224-.757 1.579-1.585 6.663-15.49 13.324-30.977 19.986-46.47" fill="#67308f"/><path d="m43.489 35.2l8.473-19.697c.658-1.539-.072-3.375-1.611-4.04l-26.09-11.22c-1.539-.659-3.379.072-4.04 1.611-2.353 5.47-4.705 10.939-7.06 16.409 9.868 6.01 20 11.627 30.32 16.935" fill="#8a5f3d"/><g fill="#764d2a"><path d="m19.06 30.32l11.486-27.408-1.511-.629-10.998 26.26c.376.57.72 1.161 1.023 1.777"/><path d="m24.869 41.538l14.558-34.738-1.509-.629-13.855 33.07c.262.77.53 1.534.806 2.295"/><path d="m48.728 23.667l-32.18-13.485c-.17.523-.359 1.033-.595 1.521l32.02 13.417c.201-.5.464-.985.754-1.453"/><path transform="matrix(.9228.3852-.3852.9228 14.447-13.246)" d="m39.471 8.902h1.633v41.07h-1.633z"/></g><path d="m43.489 35.2c4.214 3.735-11.914 14.811-14.341 17.552-2.427 2.737-3.302-5.665-6.528-13.692-2.509-6.243-13.1-20.544-9.452-20.795 4.557-.31 26.12 13.2 30.32 16.935" fill="#e7e6e6"/></g></svg>