<svg xmlns="http://www.w3.org/2000/svg" viewBox="0 0 64 64" enable-background="new 0 0 64 64"><path fill="#ae92c4" d="m32.05 0c-17.697 0-32.05 14.348-32.05 32.05 0 17.701 14.348 32.05 32.05 32.05 17.702 0 32.05-14.351 32.05-32.05 0-17.697-14.346-32.05-32.05-32.05m0 42.808c-5.484 0-9.936-4.446-9.936-9.937 0-5.486 4.452-9.934 9.936-9.934 5.488 0 9.94 4.448 9.94 9.934 0 5.49-4.452 9.937-9.94 9.937"/><g fill="#8873a5"><path d="m41.985 32.871c0 2.532-.979 4.816-2.536 6.571 5.587 4.62 11.247 9.06 16.982 13.37 4.766-5.595 7.662-12.836 7.662-20.767 0-4.201-.833-8.207-2.302-11.884-7.04 2.62-13.875 5.609-20.753 8.54.592 1.273.947 2.677.947 4.17"/><path d="m22.11 32.871c0 2.532.977 4.816 2.537 6.571-5.587 4.62-11.247 9.06-16.983 13.37-4.767-5.594-7.663-12.835-7.663-20.767 0-4.201.833-8.207 2.302-11.884 7.04 2.62 13.875 5.609 20.754 8.54-.591 1.273-.947 2.677-.947 4.17"/></g></svg>