<svg xmlns="http://www.w3.org/2000/svg" viewBox="0 0 64 64" enable-background="new 0 0 64 64"><circle fill="#25333a" cx="32.02" cy="32.01" r="28.01"/><path fill="#be1e2d" d="m32.02 0c-17.653 0-32.02 14.363-32.02 32.02 0 17.652 14.363 32.02 32.02 32.02 17.652 0 32.02-14.363 32.02-32.02 0-17.653-14.364-32.02-32.02-32.02m0 56.1c-13.279 0-24.08-10.802-24.08-24.08 0-13.279 10.802-24.08 24.08-24.08 13.279 0 24.08 10.804 24.08 24.08 0 13.279-10.802 24.08-24.08 24.08"/><g fill="#fff" fill-rule="evenodd"><path d="m31.05 33.698c-1.792 1.393-3.477 2.573-4.994 3.938-.6.543-1.131 1.478-1.179 2.263-.159 2.542-.14 5.107-.073 7.655.037 1.382.331 2.898 2.137 2.859 1.812-.035 2.036-1.419 1.928-2.908-.051-.712-.002-1.421-.014-2.129-.095-4.596 2-7.463 7.07-9.229-.39 1.613-.609 3.044-1.088 4.374-.574 1.586-.285 2.853.77 4.12 1.452 1.743 2.742 3.618 4.198 5.354.886 1.053 2.01 2.032 3.459.95 1.415-1.055.634-2.251-.059-3.364-.264-.421-.469-.915-.83-1.232-3.373-2.992-3.365-6.587-1.704-10.337 1.239-2.796.454-4.998-1.33-7.209-1.407-1.745-2.587-3.679-3.975-5.678 3.306-.606 6.174-.549 8.816 1.283.805.555 1.761 1.122 2.686 1.192.746.057 1.789-.451 2.224-1.051.244-.338-.273-1.735-.803-2.036-3.16-1.828-6.203-3.569-10.237-3.546-4.106.026-7.384 1.157-10.524 3.585-3.56 2.749-7.528 3.717-11.998 2.333-1.395-.437-3.455-1.442-4.045 1.021-.57 2.357 1.775 1.948 2.967 2.389 3.51 1.287 7.087 1.279 10.595-.094 1.336-.523 2.235-.307 2.984 1.023.832 1.475 1.888 2.821 3.02 4.474"/><path d="m26.318 21.539c1.855.106 3.356-1.248 3.51-3.164.162-2.02-1.316-3.899-3.186-4.059-1.942-.164-3.799 1.411-3.921 3.317-.128 2.052 1.458 3.78 3.597 3.906"/></g><path fill="#be1e2d" d="m51.961 49.07c-12.335-12.333-24.673-24.673-37.01-37.01-5.491-5.493-8.374-2.605-2.884 2.884 12.34 12.34 24.676 24.677 37.01 37.01 5.493 5.493 8.378 2.608 2.887-2.885"/></svg>