<svg xmlns="http://www.w3.org/2000/svg" viewBox="0 0 64 64" enable-background="new 0 0 64 64"><path fill="#1b75bb" d="M64.04,57.137c0,3.816-3.089,6.908-6.9,6.908H6.9c-3.81,0-6.9-3.092-6.9-6.908V6.904C0,3.092,3.09,0,6.9,0    H57.14c3.812,0,6.9,3.092,6.9,6.904V57.137z"/><path fill="#0867a3" d="m0 48.765v8.372c0 3.816 3.09 6.908 6.9 6.908h50.24c3.812 0 6.9-3.092 6.9-6.908v-50.23c-10.934 39.724-50.25 42.24-64.04 41.861"/><g fill="#fff"><path d="m11.899 15.1c-2.313.157-4.245 1.168-5.091 2.553v27.618c.85 1.388 2.786 2.4 5.103 2.554l22.39-16.303-22.402-16.422"/><path d="m34.831 15.1c-2.313.157-4.245 1.168-5.09 2.553v27.618c.85 1.388 2.785 2.4 5.103 2.554l22.39-16.303-22.403-16.422"/></g></svg>