<svg xmlns="http://www.w3.org/2000/svg" x="0px" y="0px"
	 width="52px" height="52px" viewBox="0 0 52 52" enable-background="new 0 0 52 52" xml:space="preserve">
<path fill="#FFFFFF" d="M39,35L39,35L27.8,23.9l0,0L27,23.1l0,0l-9.9-9.9l0,0l-4.4-4.4l0,0L7.9,4C7.2,3.2,6.1,3.1,5.5,3.7L3.4,5.8
	c-0.5,0.5-0.5,1.3-0.1,2l40.5,40.6l0.1,0.1c0.7,0.7,1.8,0.8,2.4,0.3l2.1-2.1c0.6-0.6,0.5-1.7-0.3-2.4l-4.7-4.7l0,0L39,35z"/>
<path fill="#FFFFFF" d="M24.9,11c4,0,7.8,1.6,10.6,4.4c0.5,0.4,0.9,0.9,1.2,1.4c0.3,0.8-0.4,1.2-1.3,1.2h-7c-0.1,0-0.2,0-0.3,0l6,6
	h12.6c0.7,0,1.3-0.6,1.3-1.3V4.5C47.8,3.7,47.1,3,46.3,3h-3c-0.8,0-1.5,0.7-1.5,1.5v7c0,0.9-0.5,1.3-1.2,0.7c-0.3-0.4-0.6-0.7-1-1
	c-5-5-12-7.1-19.2-5.7c-1.3,0.3-2.5,0.6-3.7,1.2l4.8,4.8C22.5,11.1,23.7,11,24.9,11z"/>
<path fill="#FFFFFF" d="M26.9,41.4c-4,0-7.8-1.6-10.6-4.4c-0.5-0.4-0.9-0.9-1.2-1.4c-0.3-0.8,0.4-1.2,1.3-1.2h7c0.1,0,0.2,0,0.4-0.1
	l-5.9-5.9H5.2c-0.7,0-1.3,0.6-1.3,1.3v18.2c0.1,0.8,0.8,1.5,1.6,1.5h3c0.8,0,1.5-0.7,1.5-1.5v-7c0-0.9,0.5-1.3,1.2-0.7
	c0.3,0.4,0.6,0.7,1,1c5,5,12,7.1,19.2,5.7c1.3-0.3,2.5-0.6,3.7-1.2l-4.8-4.8C29.2,41.2,28.1,41.4,26.9,41.4z"/>
</svg>
