<svg viewBox="64 64 896 896" focusable="false"><defs><style /></defs><path d="M326 664H104c-8.8 0-16 7.2-16 16v48c0 8.8 7.2 16 16 16h174v176c0 8.8 7.2 16 16 16h48c8.8 0 16-7.2 16-16V696c0-17.7-14.3-32-32-32zm16-576h-48c-8.8 0-16 7.2-16 16v176H104c-8.8 0-16 7.2-16 16v48c0 8.8 7.2 16 16 16h222c17.7 0 32-14.3 32-32V104c0-8.8-7.2-16-16-16zm578 576H698c-17.7 0-32 14.3-32 32v224c0 8.8 7.2 16 16 16h48c8.8 0 16-7.2 16-16V744h174c8.8 0 16-7.2 16-16v-48c0-8.8-7.2-16-16-16zm0-384H746V104c0-8.8-7.2-16-16-16h-48c-8.8 0-16 7.2-16 16v224c0 17.7 14.3 32 32 32h222c8.8 0 16-7.2 16-16v-48c0-8.8-7.2-16-16-16z" /></svg>