<?xml version="1.0" standalone="no"?>
<!DOCTYPE svg PUBLIC "-//W3C//DTD SVG 1.1//EN" "http://www.w3.org/Graphics/SVG/1.1/DTD/svg11.dtd" >
<svg xmlns="http://www.w3.org/2000/svg">
<metadata></metadata>
<defs>
<font id="opendyslexicbold" horiz-adv-x="1334" >
<font-face units-per-em="2048" ascent="1638" descent="-410" />
<missing-glyph horiz-adv-x="800" />
<glyph unicode="&#xfb01;" horiz-adv-x="1393" d="M571 1120v55q0 66 28 109v-1q25 36 103 36l197 45v213l-216 -23q-181 -32 -273 -119q-96 -93 -96 -280v-35h-164v-199h164l-20 -921h305l-6 226q-3 79 -7 234q-5 193 -14 461h395l-19 -921h295l-29 1120h-643zM1215 1233v292h-248v-292h248z" />
<glyph unicode="&#xfb02;" horiz-adv-x="1460" d="M1206 1527h-515q-197 0 -285 -88q-91 -91 -91 -281l-6 -38h-159v-208h154l-28 -912h354l-56 912h271v208h-276l-7 77q0 81 25 106v-1q26 26 102 26h270v-1328h350v271q-33 0 -103 -2v1258z" />
<glyph horiz-adv-x="0" />
<glyph unicode="&#xd;" horiz-adv-x="2048" />
<glyph horiz-adv-x="450" />
<glyph horiz-adv-x="450" />
<glyph unicode=" "  horiz-adv-x="800" />
<glyph unicode="&#x09;" horiz-adv-x="800" />
<glyph unicode="&#xa0;" horiz-adv-x="800" />
<glyph unicode="!" horiz-adv-x="634" d="M484 449h-334l20 372v643l272 4l10 -646zM450 312l24 -312h-316l24 312h268z" />
<glyph unicode="&#x22;" horiz-adv-x="1031" d="M150 846h312l-12 622h-240zM571 846h310l-58 622h-241z" />
<glyph unicode="#" horiz-adv-x="1682" d="M925 1447h-229q-40 -162 -47 -192l-47 -196h-346v-218h290l-59 -237h-337v-218h284l-97 -386h227l96 386h196l-96 -386h227l97 386h341v218h-287l17 64q10 39 28 113q2 10 14 60h335v218h-281l96 388h-225l-99 -388h-195zM716 604l58 237h195l-58 -237h-195z" />
<glyph unicode="$" horiz-adv-x="1278" d="M754 -275l-14 287q151 15 264 105q121 100 124 276q-7 158 -104.5 242.5t-301.5 123.5q0 16 0.5 47.5t1.5 46.5q0 15 0.5 44.5t1.5 44.5q0 59 1 88q1 15 1.5 45.5t0.5 46.5q144 -15 324 -112l5 232q-179 62 -327 73l5 218l-169 2l-4 -222q-190 -17 -293 -111.5 t-106 -256.5q6 -153 106 -249q91 -84 273 -123q0 -13 -0.5 -39t-1.5 -39q-1 -25 -1 -73q0 -12 -1 -36t-1 -36q-1 -13 -1.5 -38t-0.5 -38q-166 17 -382 158l-4 -316q195 -88 378 -105l-22 -282zM545 1114l-7 -331q-167 42 -167 162q0 63 48.5 108t125.5 61zM723 273l-8 257 q80 -21 117 -58.5t37 -96.5q0 -57 -37 -73q-42 -17 -109 -29z" />
<glyph unicode="%" horiz-adv-x="1980" d="M509 1493q-163 0 -263 -115q-96 -114 -96 -301q0 -191 96.5 -304t262.5 -113q165 0 262.5 113.5t97.5 303.5q0 188 -98.5 302t-261.5 114zM651 -27l925 1520h-237l-925 -1520h237zM509 1300q63 0 99.5 -58.5t36.5 -158.5q0 -104 -36 -161.5t-100 -57.5t-100 57.5 t-36 161.5q0 101 36.5 159t99.5 58zM1472 806q-164 0 -262 -114t-98 -303q0 -191 96.5 -303.5t263.5 -112.5q164 0 261 115q97 110 97 301q0 190 -97 303.5t-261 113.5zM1472 613q62 0 98 -54.5t36 -150.5t-36 -150.5t-98 -54.5q-64 0 -100 54.5t-36 150.5q0 97 36 151 t100 54z" />
<glyph unicode="&#x26;" horiz-adv-x="1738" d="M624 955h1q-82 85 -108 128l1 -1q-23 41 -23 78q0 66 48 106v-1q53 44 135 44q118 0 309 -104l100 203q-197 85 -362 85q-188 0 -301 -101h1q-116 -104 -116 -271q0 -109 77 -224q-236 -188 -236 -429q0 -218 155 -358q155 -137 393 -137t428 151l121 -124h341l-301 307 q71 104 95 228q13 75 21 143q6 47 15 144h-250q-6 -136 -23 -222q-11 -54 -43 -116zM486 772l443 -457q-114 -84 -258 -84q-134 0 -223.5 81t-89.5 201q0 134 128 259z" />
<glyph unicode="'" horiz-adv-x="534" d="M150 875h234v593h-234v-593z" />
<glyph unicode="(" horiz-adv-x="907" d="M757 1514l-235 19q-336 -434 -372 -858q0 -452 186 -913l282 -18q-61 131 -101.5 252t-60.5 240.5t-28 206t-13 213.5q17 400 342 858z" />
<glyph unicode=")" horiz-adv-x="908" d="M539 1541l-232 20q127 -268 162 -488q33 -212 33 -419q-43 -426 -352 -865l305 -18q121 224 213 434q90 213 90 430q-1 205 -44 430v-1q-41 214 -175 477z" />
<glyph unicode="*" horiz-adv-x="1244" d="M1094 1187l-92 158q-102 -61 -142 -86q-75 -47 -147 -90v324h-181v-324l-291 176l-91 -158q24 -12 151 -82q8 -4 67 -36.5t90 -49.5l-308 -167l93 -157l142 87q49 29 147 89v-324h181v324l288 -176l93 157q-67 36 -308 167z" />
<glyph unicode="+" horiz-adv-x="1571" d="M670 753h-520v-233h520v-520h231v520h520v233h-520v520h-231v-520z" />
<glyph unicode="," horiz-adv-x="718" d="M150 -269h191l227 324v247h-309v-228z" />
<glyph unicode="-" horiz-adv-x="888" d="M729 456l9 229l-579 -11l-9 -228z" />
<glyph unicode="." horiz-adv-x="603" d="M453 0v376h-353v-376h353z" />
<glyph unicode="/" horiz-adv-x="1082" d="M444 -186l488 1631l-216 6l-566 -1627z" />
<glyph unicode="0" horiz-adv-x="1337" d="M678 1493q-251 0 -385 -195q-132 -190 -143 -565q0 -373 128.5 -566.5t380.5 -193.5q251 0 384.5 193.5t143.5 565.5q0 373 -128.5 567t-380.5 194zM482 497l1 -1q-60 122 -60 372q0 476 255 476q256 0 256 -473q-20 -234 -85 -352q-69 -126 -190 -126q-124 0 -177 104z " />
<glyph unicode="1" horiz-adv-x="1204" d="M1054 0v336h-308v1132h-228l-368 -74v-248l335 67v-877h-308v-336h877z" />
<glyph unicode="2" horiz-adv-x="1259" d="M1109 345h-447q38 90 132 186q62 65 100 106q25 26 49 53q91 110 123 191q36 84 36 177q0 198 -142 319q-140 116 -370 116q-169 0 -431 -104v-279q269 150 435 150q109 0 176.5 -60t67.5 -154q0 -54 -33 -122q-33 -65 -120 -164q-42 -50 -209 -175q-126 -95 -326 -259 v-326h959v345z" />
<glyph unicode="3" horiz-adv-x="1292" d="M150 439v-387q228 -79 409 -79q281 0 432 122q151 124 151 366q0 147 -85 250q-51 57 -118 85q170 98 170 299q0 185 -139 293v-1q-131 106 -363 106q-179 0 -415 -68v-230q245 84 398 84q125 0 191 -48t66 -137q0 -87 -64 -132.5t-185 -45.5h-207v-230h199 q134 0 212 -57.5t78 -139.5q0 -32 -81 -101q-82 -70 -245 -70q-198 0 -404 121z" />
<glyph unicode="4" horiz-adv-x="1390" d="M150 394h610l-20 -394h332q0 14 -1.5 45.5t-2.5 49.5q-4 66 -5 100l-6 102q-4 66 -5 97h188v231h-189l-9 843h-294l-598 -910v-164zM410 625l368 577l-8 -577h-360z" />
<glyph unicode="5" horiz-adv-x="1276" d="M209 1468v-795q194 90 342 90q146 0 224.5 -63t78.5 -188q0 -55 -79 -128q-77 -75 -224 -75q-188 0 -401 116v-382q225 -70 404 -70q270 0 421 134.5t151 376.5q0 234 -148 373t-395 139q-59 0 -145 -18v275h586v215h-815z" />
<glyph unicode="6" horiz-adv-x="1337" d="M1096 1169v257q-189 67 -331 67q-281 0 -448 -208t-167 -552q0 -368 136 -564t398 -196q227 0 365 140t138 371q0 232 -133 373q-133 139 -358 139q-158 0 -273 -95q59 359 349 359q136 0 324 -91zM684 772q112 0 175 -75.5t63 -212.5q0 -77 -62 -121.5t-176 -44.5 t-176 44.5t-62 121.5q0 137 63 212.5t175 75.5z" />
<glyph unicode="7" horiz-adv-x="1261" d="M848 1253l-514 -1253h421l356 1345v123h-961v-215h698z" />
<glyph unicode="8" horiz-adv-x="1368" d="M246 680q-96 -104 -96 -251q0 -221 147 -339q143 -117 387 -117q247 0 390.5 119t143.5 337q0 70 -21 130t-57 102.5t-74.5 71t-82.5 48.5q165 94 165 314q0 164 -121 273q-122 107 -343 107q-216 0 -340 -105.5t-124 -274.5q0 -220 166 -314q-78 -34 -140 -101z M519 1255h-1q59 52 166 52q56 0 95 -13q51 -16 88.5 -54.5t37.5 -106.5q0 -91 -58.5 -141.5t-162.5 -50.5q-105 0 -162.5 50.5t-57.5 141.5q0 73 55 122zM871 339h1q-67 -58 -188 -58q-112 0 -181.5 53.5t-69.5 113.5q0 111 64.5 171.5t186.5 60.5t187 -60.5t65 -171.5 q0 -52 -65 -109z" />
<glyph unicode="9" horiz-adv-x="1336" d="M239 409v-369q189 -67 332 -67q186 0 325.5 94.5t214.5 266.5t75 399q0 370 -137 565t-397 195q-228 0 -365 -141q-137 -139 -137 -370q0 -236 131 -373q134 -137 359 -137q157 0 272 95q-24 -142 -86 -186q-92 -63 -263 -63q-136 0 -324 91zM636 827q-149 0 -233 33 q-66 24 -66 152q0 134 80 210.5t219 76.5q138 0 218 -77t80 -210q0 -128 -67 -152q-84 -33 -231 -33z" />
<glyph unicode=":" horiz-adv-x="618" d="M468 762v340h-318v-340h318zM468 0v360h-318v-360h318z" />
<glyph unicode=";" horiz-adv-x="692" d="M542 749v349h-301v-349h301zM150 -306h205l183 359v225h-293v-211z" />
<glyph unicode="&#x3c;" horiz-adv-x="1629" d="M172 830l-22 -263l1226 -570l26 304l-858 391l913 237l22 249z" />
<glyph unicode="=" horiz-adv-x="1571" d="M1421 711v232h-1271v-232h1271zM1421 329v261h-1271v-261h1271z" />
<glyph unicode="&#x3e;" horiz-adv-x="1629" d="M177 420l-27 -305l1307 348l22 263l-1226 570l-21 -248l855 -392z" />
<glyph unicode="?" horiz-adv-x="1109" d="M646 374v152q0 87 9 114q3 12 10 21q3 5 35 53l20 33q2 2 35 38q4 4 15 17t18 20q75 79 122 148q49 73 49 157q0 164 -112 266q-107 100 -296 100q-199 0 -401 -122v-239q236 162 369 162q85 0 133 -54q52 -55 52 -122q-5 -29 -32 -56q-17 -19 -102 -90l-94 -84 q-88 -82 -120 -159q-29 -75 -29 -174v-181h319zM642 -9v339h-320v-339h320z" />
<glyph unicode="@" horiz-adv-x="2027" d="M1612 -119l-116 232q134 39 221 123q160 153 160 415q0 246 -151 443q-123 157 -299.5 242t-382.5 85q-184 0 -348 -65.5t-290 -190.5q-124 -124 -190 -284t-66 -337q0 -377 256 -627q255 -249 624 -249q306 0 582 213zM1244 166v-89q138 5 236 31q-211 -157 -450 -157 q-144 0 -255 35q-109 33 -201 123q-123 133 -170 213h1q-49 82 -49 222q0 170 77.5 315.5t217.5 237.5q173 114 395 114q156 0 287 -61t225 -177q110 -140 110 -326q0 -148 -70 -248q-58 -74 -146 -99v677h-208v-66q-103 85 -260 85q-176 0 -288 -130q-110 -125 -110 -327 t110.5 -329.5t287.5 -127.5q159 0 260 84zM782 615q0 99 56 160q58 58 153 58q96 0 153.5 -58.5t57.5 -159.5q0 -102 -55 -160t-154 -58q-101 0 -156 57.5t-55 160.5z" />
<glyph unicode="A" horiz-adv-x="1710" d="M492 0l72 231h581l53 -231h362l-589 1493h-231l-590 -1493h342zM1064 532h-417q31 93 54 163q9 29 27 81.5t25 72.5l50 152q8 25 25.5 77.5l26.5 79.5z" />
<glyph unicode="B" horiz-adv-x="1400" d="M150 0h547q255 0 404 114.5t149 320.5q0 275 -270 373q145 81 145 297q0 186 -128 287q-129 101 -366 101h-481v-1493zM418 1288h246q121 0 180.5 -55t59.5 -149q0 -176 -240 -176h-246v380zM418 677h270q140 0 204 -55q61 -51 61 -81q0 -111 -57 -145h1 q-63 -39 -209 -39h-270v320z" />
<glyph unicode="C" horiz-adv-x="1518" d="M1368 1106v310q-146 71 -258.5 90.5t-259.5 12.5q-338 -15 -519 -216.5t-181 -557.5q0 -357 196 -565t534 -208q261 0 488 155v441q-247 -229 -477 -229q-239 0 -349 91.5t-114 314.5q0 268 105.5 404t327.5 136q129 0 238.5 -35t268.5 -144z" />
<glyph unicode="D" horiz-adv-x="1567" d="M150 0h432q424 0 629 181q206 185 206 567q0 374 -205 564q-210 181 -630 181h-432v-1493zM427 1260h193q271 0 400 -122q128 -121 128 -368q-20 -90 -58.5 -159.5t-85.5 -107.5q-104 -70 -384 -70h-193v827z" />
<glyph unicode="E" horiz-adv-x="1289" d="M1139 0v370h-721v305h674v237h-674v344h704v237h-972v-1493h989z" />
<glyph unicode="F" horiz-adv-x="1201" d="M477 0l-19 639h542v275h-552q7 140 9 168q2 30 4.5 86t3.5 78h586v247h-851l-50 -1493h327z" />
<glyph unicode="G" horiz-adv-x="1614" d="M1169 527v-118q-28 -21 -85 -35h1q-74 -16 -174 -16q-248 0 -364 83h1q-108 82 -120 325q1 538 483 538q254 0 506 -215v288q-227 142 -522 142q-348 0 -546.5 -205.5t-198.5 -568.5q0 -359 197 -568q199 -205 548 -205q319 0 569 178v638h-598v-261h303z" />
<glyph unicode="H" horiz-adv-x="1476" d="M447 0v476h582v-476h297l-19 1493h-278v-676h-582v676h-278l-19 -1493h297z" />
<glyph unicode="I" horiz-adv-x="607" d="M457 0l-19 1493h-257l-31 -1493h307z" />
<glyph unicode="J" horiz-adv-x="969" d="M542 1497l-54 -1386q-2 -47 -48 -90q-48 -45 -155 -51l-135 30v-395l147 -15q244 4 354 121q109 113 115 385l53 1384z" />
<glyph unicode="K" horiz-adv-x="1574" d="M150 0h327q-4 97 -7 141q-5 106 -17 302l-9 147l417 -590h563l-791 793l745 700h-357l-581 -548l17 548h-267z" />
<glyph unicode="L" horiz-adv-x="1270" d="M1097 0l23 370h-683v1123h-267l-20 -1493h947z" />
<glyph unicode="M" horiz-adv-x="1772" d="M150 0h351q-2 73 -7.5 245t-8.5 266q-3 88 -8.5 260.5t-7.5 257.5l274 -804h285l274 802l-32 -1027h352l-60 1493h-329l-347 -723l-328 723h-348z" />
<glyph unicode="N" horiz-adv-x="1468" d="M471 0l-24 524q-4 78 -12.5 256.5t-13.5 273.5l559 -1054h338v1493h-252l-26 -1042l-552 1014h-299l-39 -1465h321z" />
<glyph unicode="O" horiz-adv-x="1688" d="M845 1519q-317 0 -507 -213q-188 -212 -188 -561t188 -561q191 -212 507 -212q313 0 505 212q188 212 188 561t-188 561q-190 213 -505 213zM845 1287q191 0 302.5 -143.5t111.5 -398.5q0 -97 -26.5 -163t-82 -102.5t-128 -51.5t-177.5 -15q-196 0 -313 69 q-104 67 -104 263q0 249 114 401q120 141 303 141z" />
<glyph unicode="P" horiz-adv-x="1340" d="M456 0l19 551h195q256 0 386 127q134 125 134 354q0 228 -131 344.5t-389 116.5h-459l-61 -1493h306zM485 1335h203q126 0 194 -59t68 -168q0 -111 -68 -170t-194 -59h-220q7 193 9 230q2 40 4.5 116.5t3.5 109.5z" />
<glyph unicode="Q" horiz-adv-x="1800" d="M1650 -251l-334 372q68 82 141 217q80 152 80 407q0 231 -85 407t-242.5 271.5t-364.5 95.5q-209 0 -367 -95.5t-243 -271t-85 -407.5q0 -350 189 -561.5t496 -211.5h27q7 0 37 2l198 -225h553zM791 402l-65 11q-82 11 -195 75q-103 61 -103 257q0 249 114 401 q120 141 303 141q190 0 302 -144.5t112 -397.5q0 -193 -147 -279q-111 18 -238 76q-12 -21 -18 -31q-17 -27 -22 -36q-4 -6 -11.5 -18.5t-10.5 -19.5q-17 -27 -21 -35z" />
<glyph unicode="R" horiz-adv-x="1503" d="M994 0h359q-48 98 -110 220l-112 222q-95 186 -189 258q82 49 126 137.5t44 209.5q0 221 -130 336q-125 110 -361 110h-471v-1493h305v599h105q104 0 161 -42t121 -173l-1 3zM436 1316h204q52 0 96 -13t82.5 -41.5t60.5 -83.5t22 -131q0 -66 -81.5 -121.5t-179.5 -55.5 h-204v446z" />
<glyph unicode="S" horiz-adv-x="1373" d="M1138 1162v274q-251 83 -453 83q-246 0 -390.5 -118.5t-144.5 -324.5q0 -177 105 -279t331 -145l117 -23q137 -31 192 -79q52 -50 52 -88q0 -44 -73 -96q-80 -58 -232 -58q-199 0 -487 160v-394q275 -102 487 -102q286 0 433.5 116.5t147.5 340.5q0 189 -110 301 t-340 156h1l-117 23q-147 27 -197 70l1 -1q-43 36 -43 114q0 94 75 144.5t214 50.5q165 0 431 -125z" />
<glyph unicode="T" horiz-adv-x="1575" d="M652 1274l-38 -1274h347l-38 1274l502 -20v239h-1275v-238z" />
<glyph unicode="U" horiz-adv-x="1461" d="M150 1493v-923q0 -295 147 -446.5t434 -151.5q288 0 434 150.5t146 447.5v923h-268v-766q0 -213 -74 -305v1q-71 -86 -238 -86t-238 86v-1q-74 92 -74 305v766h-269z" />
<glyph unicode="V" horiz-adv-x="1705" d="M1555 1493h-278l-424 -1000l-424 1000h-279l519 -1493h368z" />
<glyph unicode="W" horiz-adv-x="2191" d="M484 0h355q35 86 127 332q91 245 128 346l235 -678h336l376 1493h-262q-52 -167 -152 -482q-29 -90 -80.5 -260t-72.5 -236l-276 607h-217l-149 -293q-91 -175 -152 -297l-270 961h-260z" />
<glyph unicode="X" horiz-adv-x="1662" d="M150 0h408l274 470l273 -470h407l-497 700l459 793h-294l-332 -565l-331 565h-293l442 -791z" />
<glyph unicode="Y" horiz-adv-x="1619" d="M637 0h335v513l497 980h-291l-367 -684l-370 684h-291l487 -980v-513z" />
<glyph unicode="Z" horiz-adv-x="1533" d="M998 1256l-848 -933v-323h1233v361h-870l848 933v199h-1189v-237h826z" />
<glyph unicode="[" horiz-adv-x="770" d="M620 -252v283h-224v1288h224v208h-470v-1779h470z" />
<glyph unicode="\" horiz-adv-x="987" d="M562 -191l275 -11l-450 1664l-237 7z" />
<glyph unicode="]" horiz-adv-x="771" d="M150 1319h223v-1298h-223v-273h471v1779h-471v-208z" />
<glyph unicode="^" horiz-adv-x="1677" d="M150 874h399l289 398l290 -398h399l-601 594h-175z" />
<glyph unicode="_" horiz-adv-x="1368" d="M150 -451h1068v242h-1068v-242z" />
<glyph unicode="`" horiz-adv-x="886" d="M384 1180h352l-320 423h-266z" />
<glyph unicode="a" horiz-adv-x="1258" d="M1108 0v634q0 257 -121.5 384t-366.5 127q-175 0 -393 -85v-227q205 111 373 111q119 -10 186 -64t74 -145h-202q-508 0 -508 -393q0 -166 106 -269q107 -100 282 -100q199 0 323 113v-86h247zM765 534v-1q0 -61 -7 -100.5t-20 -64.5t-39 -37.5t-56 -17t-79 -4.5 q-87 0 -146 17q-38 11 -49 63q1 77 48 108q52 37 231 37h117z" />
<glyph unicode="b" horiz-adv-x="1310" d="M193 210l205 -127q109 -110 297 -110q207 0 336 162.5t129 423.5t-129 423.5t-336 162.5q-187 0 -293 -106l15 488h-248zM897 409q-68 -49 -165 -55q-113 1 -173.5 60t-78.5 181q2 172 70 265q71 88 185 88q116 0 173 -87q62 -95 68 -260q-23 -143 -79 -192z" />
<glyph unicode="c" horiz-adv-x="1202" d="M1052 829v237q-173 79 -339 79q-261 0 -412 -157.5t-151 -428.5q0 -265 150.5 -425.5t401.5 -160.5q178 0 350 81l-5 357q-114 -66 -185 -68h-147q-158 14 -225 57q-61 44 -75 163q2 177 80 274t226 97q141 0 331 -105z" />
<glyph unicode="d" horiz-adv-x="1327" d="M932 1527l-17 -495q-115 113 -300 113q-209 0 -337 -162.5t-128 -423.5t128 -423.5t337 -162.5q188 0 297 110v-83h247l18 1527h-245zM416 853l-1 -1q69 93 185 93q111 0 171 -96q56 -90 62 -259q-2 -75 -15.5 -120.5t-44.5 -69.5t-71 -32t-107 -8q-120 0 -176 50v-1 q-56 50 -74 174q1 172 71 270z" />
<glyph unicode="e" d="M1184 566v105q-20 238 -139 351h1q-120 114 -345 123q-251 0 -396.5 -160t-154.5 -434q0 -265 157 -418q158 -151 421 -160q205 0 426 92l-5 324q-138 -73 -224 -80q-88 -7 -187 -7q-169 13 -251 64q-70 52 -82 200h779zM950 790h-524q14 58 71 115v-1q75 76 204 76 q110 0 176 -76q51 -61 73 -114z" />
<glyph unicode="f" horiz-adv-x="994" d="M834 1486l-186 22q-140 0 -235 -79h1q-98 -78 -100 -271l-6 -38h-158v-245h153l-27 -875h324q-9 252 -14 436q-5 189 -14 439h272v245h-276q0 3 -0.5 9t-1.5 9q-1 4 -1 11q-1 2 -1.5 5.5t-0.5 5.5q0 1 -0.5 3.5t-1 6t-0.5 6.5q0 82 16 98q12 15 65 17l192 -24v219z" />
<glyph unicode="g" horiz-adv-x="1328" d="M1178 1120h-244q0 -4 -1.5 -19.5t-2.5 -25.5q-4 -34 -7 -51q-109 121 -309 121q-210 0 -337 -158.5t-127 -414.5t127 -414t337 -158q126 0 218 50q27 16 52 34q-30 -64 -70 -110q-75 -81 -220 -81q-146 0 -337 105v-395q181 -66 364 -66q260 0 391 143q124 135 137 486z M837 582q0 -46 -6 -81t-16 -59t-29.5 -40.5t-38 -26t-50 -14.5t-58.5 -6.5t-70 -1.5q-125 0 -180 33q-45 36 -62 200q1 84 18 152q50 199 237 199q122 0 189 -92q66 -94 66 -263z" />
<glyph unicode="h" horiz-adv-x="1290" d="M854 0l20 664q0 132 -49.5 204t-145.5 72q-120 0 -191 -86t-71 -225q7 -248 10 -315q3 -72 10 -314h-287l39 1527h248l-17 -498q116 116 298 116q199 0 300.5 -120.5t101.5 -356.5v1l20 -669h-286z" />
<glyph unicode="i" horiz-adv-x="550" d="M400 1235l-12 292h-226l-12 -292h250zM389 0v1120h-237v-1120h237z" />
<glyph unicode="j" horiz-adv-x="875" d="M725 1235l-12 292h-226l-12 -292h250zM448 1116l-47 -989q-2 -71 -8 -104q-7 -40 -21 -55q-27 -30 -109 -33h-108l-5 -334h132q185 6 272 102q86 92 92 307l38 1102z" />
<glyph unicode="k" horiz-adv-x="1387" d="M456 0l-23 417l339 -417h465q-37 36 -148 143l-160 154q-27 26 -80 77.5t-80 77.5q-13 13 -68.5 65.5t-82.5 79.5l422 523h-314l-299 -350l9 757h-247l-39 -1527h306z" />
<glyph unicode="l" horiz-adv-x="673" d="M523 0v287h-116v1240h-237l-20 -1527h373z" />
<glyph unicode="m" horiz-adv-x="1940" d="M1770 669v-1q0 229 -98 353t-280 124q-125 0 -202 -46.5t-140 -137.5q-39 72 -112 121q-101 63 -223 63q-173 0 -283 -101l7 76h-250l-39 -1120h305q-7 242 -10 314q-3 67 -10 315q0 139 75 236q72 94 184 94q92 0 135.5 -62.5t44.5 -192.5l-69 -704h315l11 627 q0 145 64.5 233.5t176.5 88.5q86 0 118.5 -57.5t32.5 -198.5l-50 -693h317q-8 262 -10 335q-3 74 -10 334z" />
<glyph unicode="n" horiz-adv-x="1318" d="M1168 0l-30 670q-12 231 -115.5 353t-296.5 122q-117 0 -211 -51q-75 -45 -89 -54v89h-246l-30 -1129h315l-30 639q0 292 272 292q93 0 134 -62.5t41 -194.5l-39 -674h325z" />
<glyph unicode="o" d="M667 1145q-244 0 -381 -158q-136 -155 -136 -428t136 -427q136 -159 381 -159q240 0 378.5 157.5t138.5 428.5t-138.5 428.5t-378.5 157.5zM667 944q119 0 189.5 -94t70.5 -261q0 -161 -63 -201q-77 -44 -197 -44q-57 0 -94 4.5t-72 19.5t-54 41.5t-30.5 71t-11.5 108.5 q0 166 71 260.5t191 94.5z" />
<glyph unicode="p" horiz-adv-x="1329" d="M397 -398l17 484q115 -113 300 -113q207 0 336 163.5t129 422.5t-129 422.5t-336 163.5q-173 0 -281 -96l6 71h-250l-26 -1000l-63 -518h297zM556 864l-1 -1q70 94 185 94q116 0 183 -94q72 -100 72 -274q0 -84 -14 -136.5t-47.5 -79t-74.5 -35t-110 -8.5q-68 0 -111.5 9 t-81 35t-54.5 79t-17 136q0 177 71 275z" />
<glyph unicode="q" horiz-adv-x="1545" d="M1224 -126l-91 132q-3 5 -6 35t-2 43l53 1036h-243q-6 -54 -12 -96q-109 121 -308 121q-209 0 -337 -162.5t-128 -423.5t128 -423.5t337 -162.5q97 0 167.5 25t126.5 81l-16 -477h213q32 0 104 19l185 50q-10 5 -21.5 14t-20.5 18t-22.5 25t-21.5 25.5t-22.5 30 t-20.5 29.5t-22 32t-20 29zM409 859l-1 -1q70 93 185 93t185 -93q71 -101 71 -275q0 -169 -64 -206q-70 -43 -197 -43q-55 0 -90 4.5t-68.5 19t-51.5 41.5t-29 72.5t-11 111.5q0 175 71 276z" />
<glyph unicode="r" horiz-adv-x="979" d="M828 838v273q-86 16 -114 16q-134 0 -230 -57v1q-15 -11 -30 -18q-7 -3 -27 -16v74h-227l-50 -1111h297l-20 561q0 155 58 246v-1q54 83 178 83q45 0 70 -7q40 -11 95 -44z" />
<glyph unicode="s" horiz-adv-x="1174" d="M968 847v230q-168 68 -371 68q-212 0 -325.5 -89t-113.5 -256q0 -135 79 -206t252 -106h-1l60 -14q144 -31 162 -49q15 -16 44 -65q-2 -47 -49 -70q-47 -24 -147 -24q-171 0 -408 123v-340q231 -76 405 -76q214 0 341.5 95t127.5 258q0 141 -90 222q-90 75 -278 115 q-15 2 -28 6q-7 2 -29 7q-131 30 -174 62h1q-37 28 -37 79q0 61 59 94.5t169 33.5q157 0 351 -98z" />
<glyph unicode="t" horiz-adv-x="1027" d="M277 1120h-127v-208h126l-9 -530q0 -211 90.5 -296.5t305.5 -85.5h214v330h-214q-92 0 -115 26q-25 24 -25 137l10 419h241v208h-240l9 259h-257z" />
<glyph unicode="u" horiz-adv-x="1260" d="M150 1120v-670q0 -235 102.5 -356t301.5 -121q177 0 292 112l-5 -85h249l20 1120h-274l-11 -478q-11 -147 -76 -220q-64 -76 -187 -76q-93 0 -139.5 65t-54.5 197v512h-218z" />
<glyph unicode="v" horiz-adv-x="1425" d="M866 0l409 1120h-261q-62 -146 -150 -352q-120 -278 -152 -355l-301 707h-261l410 -1120h306z" />
<glyph unicode="w" horiz-adv-x="1800" d="M728 0l172 412l163 -412h294l293 1120h-248q-14 -48 -97 -331l-98 -336l-163 322h-287l-162 -322l-196 667h-249l293 -1120h285z" />
<glyph unicode="x" horiz-adv-x="1512" d="M1312 1120h-262q-60 -84 -147 -199l-148 -201l-268 400h-272l384 -580l-449 -540h377l237 335l221 -335h377q-20 24 -105 127q-21 26 -61 73.5t-53 63.5q-39 46 -115 138q-61 72 -107 128z" />
<glyph unicode="y" horiz-adv-x="1429" d="M1020 1120l-265 -567l-345 567h-260l114 -244q188 -405 236 -507l114 -244q-16 -35 -33 -66q-28 -53 -34 -66q-38 -49 -77 -83q-30 -24 -86 -24h-157v-302h193q69 0 118 13.5t98 50.5t92.5 104.5t90.5 173.5l460 1194h-259z" />
<glyph unicode="z" horiz-adv-x="1223" d="M763 917l-613 -615v-302h913v305h-534l544 606v209h-881v-203h571z" />
<glyph unicode="{" horiz-adv-x="1130" d="M951 -59h-100q-116 3 -139 32q-25 26 -33 113l4 230q-7 136 -48 211v-1q-25 46 -69 75q46 25 75 69q50 77 53 232l4 232v-1q1 46 2 67t8.5 44.5t15.5 30.5t32 15.5t48 10.5t73 5h99l4 209h-97q-85 -2 -146 -9.5t-111 -25t-81 -44t-53 -68.5t-31.5 -96.5t-10.5 -130.5 l-3 -224q-3 -124 -42 -161q-40 -37 -161 -43h-94v-208h20h26q9 -1 27 -1h20q115 -3 150.5 -44.5t41.5 -173.5l-3 -221q6 -215 89 -303q94 -81 332 -87h98v266z" />
<glyph unicode="|" horiz-adv-x="621" d="M471 1535h-234l-40 -944h234zM200 566l-50 -1017h253l29 1017h-232z" />
<glyph unicode="}" horiz-adv-x="1113" d="M150 -312h96q250 0 335 79h-1q92 80 92 303v223q0 127 39.5 169.5t156.5 42.5h95v208h-95q-116 0 -156 42v-1q-40 43 -40 168v224q0 222 -92 303h1q-87 78 -335 78h-96v-208h103q60 0 91 -5t51 -25.5t25 -52.5t5 -94v-231q0 -158 48 -233q30 -44 74 -70q-44 -26 -74 -70 q-48 -75 -48 -223v-232q0 -63 -4.5 -94.5t-24.5 -52t-50.5 -25t-92.5 -4.5h-103v-219z" />
<glyph unicode="~" horiz-adv-x="1571" d="M1421 634v244q-122 -100 -210.5 -145t-161.5 -45q-77 0 -217 54q-3 1 -11 5l-11 3l-14 6q-147 59 -253 59q-96 0 -189 -37q-97 -38 -204 -120v-294q33 29 118 98q81 67 113 90q70 52 140 52q82 0 219 -75l20 -6l12 -5q144 -87 256 -87q99 0 194 62v-1q24 15 96 66 q47 32 103 76z" />
<glyph unicode="&#xa1;" horiz-adv-x="622" d="M160 1468v-330h302v330h-302zM441 1019h-259l-22 -369l-10 -650h322l-10 650z" />
<glyph unicode="&#xa2;" horiz-adv-x="1211" d="M1061 831v220q-126 61 -257 78l4 272l-170 2q-1 -22 -1.5 -66.5t-0.5 -67.5l-3 -137q-217 -25 -343 -167q-136 -152 -140 -405q-3 -255 126 -411q125 -146 337 -176l-4 -275h169l3 133q0 23 0.5 68t1.5 67q131 16 261 71l6 320q-159 -80 -262 -96l12 678q90 -12 261 -108 zM630 933l-13 -662q-95 24 -147 86h1q-62 71 -64 197q6 154 65 252q61 99 158 127z" />
<glyph unicode="&#xa3;" horiz-adv-x="1322" d="M1166 1151l6 258q-186 71 -309 73q-234 -6 -346 -124q-113 -116 -119 -375l-6 -185l-186 3l-4 -190l185 -3q-2 -109 -4 -168q-4 -107 -5 -164l-220 5l-8 -280l1002 -18l7 280l-520 10q0 16 6 168q2 58 4 163l365 -8l4 190q-24 0 -85 1.5t-95 2.5q-13 0 -184 3l4 163 q3 95 14 150.5t38.5 89t65 46t102.5 16.5q101 -4 288 -107z" />
<glyph unicode="&#xa4;" horiz-adv-x="1448" d="M1140 1211l-199 -200q-111 60 -217 60q-114 0 -214 -61l-198 198l-160 -160q15 -14 47 -46q16 -17 50 -51l52 -52l16 -16l18 -18l15 -15q-61 -104 -61 -214q0 -104 60 -216l-199 -199l157 -160l200 199q109 -59 217 -59q112 0 216 62l198 -198l159 157l-200 199 q62 102 62 215q0 112 -59 218l198 198zM571 485v-1q-61 61 -61 153q0 90 62.5 150.5t151.5 60.5q91 0 152.5 -60.5t61.5 -150.5t-63 -153h1q-61 -61 -152 -61t-153 62z" />
<glyph unicode="&#xa5;" horiz-adv-x="1504" d="M891 614v1l64 117h324v189h-222l297 547h-282l-159 -304q-33 -62 -93 -177t-68 -130l-322 611h-280l288 -547h-223v-189h327q34 -50 41 -59l39 -59h-389v-227h386l-28 -387h323q0 13 -1.5 44t-2.5 49q-4 66 -5 99l-6 100q-4 68 -5 95h385v227h-388z" />
<glyph unicode="&#xa6;" horiz-adv-x="533" d="M150 629h233v782h-233v-782zM150 -327h233v782h-233v-782z" />
<glyph unicode="&#xa7;" horiz-adv-x="1156" d="M936 809h-1q71 -83 71 -190q0 -167 -148 -270q87 -91 87 -204q0 -149 -107 -238t-282 -89q-137 0 -332 64v285q207 -93 311 -93q83 0 123 18t40 66q0 53 -186 158l1 -1l-25 14q-139 77 -211 136t-99.5 114.5t-27.5 132.5q0 81 38 151t107 119q-84 89 -84 204 q0 139 107 224q107 83 272 83q145 0 322 -66v-237q-198 94 -300 94q-74 0 -114 -27t-40 -76q0 -61 173 -159h-1l38 -21q204 -117 268 -192zM429 657h-1q65 -58 269 -171q83 65 83 126q0 54 -56 107q-57 56 -266 170q-83 -65 -83 -126q0 -53 54 -106z" />
<glyph unicode="&#xa8;" horiz-adv-x="969" d="M428 1260v277h-278v-277h278zM819 1260v277h-278v-277h278z" />
<glyph unicode="&#xa9;" horiz-adv-x="1758" d="M879 1461q-148 0 -283 -58t-232.5 -156.5t-155.5 -234t-58 -283.5q0 -300 214 -513q214 -216 515 -216q147 0 282 58t233 156t156 233t58 282q0 119 -37 230.5t-105 201.5t-157.5 158t-200.5 105t-229 37zM478 368l5 -3q-165 150 -165 364q0 228 166 397q164 164 395 164 q230 0 397 -164q162 -165 162 -397q0 -238 -160 -362l3 1q-181 -123 -402 -123q-218 0 -401 123zM1195 945v179q-154 63 -293 63q-218 0 -345.5 -124t-127.5 -334t128.5 -334.5t344.5 -124.5q147 0 293 66v260q-167 -85 -272 -85q-121 0 -194 66.5t-73 151.5q0 133 69 218 q68 82 188 82q113 0 282 -84z" />
<glyph unicode="&#xaa;" horiz-adv-x="1039" d="M673 669v51q-90 -69 -225 -69q-133 0 -215.5 73.5t-82.5 195.5q0 292 391 292h129q-22 99 -178 99q-107 0 -285 -86v204q167 64 305 64q191 0 283 -90.5t92 -277.5v-456h-214zM664 1091h-81q-142 0 -192 -27q-39 -21 -39 -72q0 -43 35.5 -68.5t95.5 -25.5q81 0 130 55 q48 54 51 138zM889 627v-189h-717v189h717z" />
<glyph unicode="&#xab;" horiz-adv-x="1281" d="M150 511l490 -468l63 300q-54 53 -257 246l270 224l10 278l-523 -435zM555 497l490 -468l63 300q-81 77 -127 122q-42 40 -130 123l270 224l10 279l-523 -435z" />
<glyph unicode="&#xac;" horiz-adv-x="1601" d="M150 879v-253q73 1 247 4.5t270 5.5q95 2 268 5.5t250 4.5l-46 -378h312l-31 611h-1270z" />
<glyph unicode="&#xad;" horiz-adv-x="888" d="M729 456l9 229l-579 -11l-9 -228z" />
<glyph unicode="&#xae;" horiz-adv-x="1758" d="M879 1461q118 0 229 -37t200.5 -105t157.5 -158t105 -201.5t37 -230.5q0 -147 -58 -282t-156 -233t-233 -156t-282 -58q-301 0 -515 216q-214 213 -214 513q0 148 58 283.5t155.5 234t232.5 156.5t283 58zM1159 581l108 -177q80 72 125.5 168t45.5 203q0 204 -162 363 q-81 72 -184 112t-213 40q-151 0 -280.5 -70t-205 -188.5t-75.5 -256.5q0 -126 64.5 -236.5t174.5 -183.5v815h303q185 0 274.5 -64t89.5 -197q0 -155 -146 -216q36 -44 81 -112zM823 863h77q88 0 117.5 19.5t29.5 71.5q0 50 -33 71t-114 21h-77v-183zM823 315h-194 q119 -55 250 -55q133 0 251 55h-56l-132 213q-49 81 -79 102q-7 4 -11 8l-8 5q-3 2 -6 5h-15v-333z" />
<glyph unicode="&#xaf;" horiz-adv-x="932" d="M782 1286v213h-632v-213h632z" />
<glyph unicode="&#xb0;" horiz-adv-x="966" d="M718 922q-96 -96 -237 -96t-236 95t-95 236q0 142 96 238q95 98 237 98t237 -100q96 -94 96 -236q0 -139 -98 -235zM483 1098q59 0 99.5 35t40.5 87q0 50 -40.5 87.5t-99.5 37.5q-58 0 -99 -37t-41 -88q0 -52 40.5 -87t99.5 -35z" />
<glyph unicode="&#xb1;" horiz-adv-x="1571" d="M670 912h-520v-233h520v-362h231v362h520v233h-520v361h-231v-361zM1421 0v252h-1271v-252h1271z" />
<glyph unicode="&#xb2;" horiz-adv-x="933" d="M450 805l7 5q1 1 1 2q320 275 320 420q0 119 -93 190t-242 71q-112 0 -287 -62v-202q177 88 267 88q63 0 101 -27.5t38 -72.5q0 -69 -309 -344l-103 -93v-157h633v182h-333z" />
<glyph unicode="&#xb3;" horiz-adv-x="952" d="M150 860v-203q162 -48 272 -48q185 0 282.5 72t97.5 207q0 130 -113 197q93 60 93 168q0 110 -95 179q-92 61 -234 61q-110 0 -276 -40v-186q87 25 155 39q54 11 90 11q145 0 145 -74q0 -77 -141 -77h-125v-176h117q168 0 168 -102q0 -48 -46.5 -75t-130.5 -27 q-117 0 -259 74z" />
<glyph unicode="&#xb4;" horiz-adv-x="953" d="M400 1139l403 464h-306l-347 -464h250z" />
<glyph unicode="&#xb5;" horiz-adv-x="1428" d="M169 -398h247q0 32 -1.5 105.5t-2.5 114.5q-1 38 -2.5 113.5t-1.5 112.5q86 -75 228 -75q151 0 260 104q47 -104 169 -104q45 0 105 39h-1q18 12 29 18l30 18q13 9 28 17l22 12v217q-17 -8 -40.5 -17.5t-27.5 -11.5q-24 -11 -31 -12q-70 4 -70 25l10 842h-246l-10 -451 q0 -276 -240 -276q-217 0 -217 236l-11 502l-245 -13z" />
<glyph unicode="&#xb6;" horiz-adv-x="1438" d="M1072 1468h-441q-216 0 -348.5 -118.5t-132.5 -312.5q0 -190 121 -302q100 -94 194 -122l-66 -797h379v1463h93v-1463h417z" />
<glyph unicode="&#xb7;" horiz-adv-x="571" d="M421 545v312h-271v-312h271z" />
<glyph unicode="&#xb8;" horiz-adv-x="761" d="M489 75h-202q64 -87 90 -131q29 -50 29 -73q0 -50 -74 -50q-77 0 -182 54v-213q116 -31 201 -31q260 0 260 206q0 98 -122 238z" />
<glyph unicode="&#xb9;" horiz-adv-x="908" d="M758 623v178h-191v676h-166l-251 -42v-183q9 1 47 8q20 4 58 11t50 9q11 2 29 5.5t24 4.5v-489h-191v-178h591z" />
<glyph unicode="&#xba;" horiz-adv-x="1096" d="M549 1493q-182 0 -290.5 -115t-108.5 -307q0 -190 108.5 -305t290.5 -115t289.5 114t107.5 306t-108 307t-289 115zM419 1006v-1q-48 51 -48 144q0 94 47.5 145.5t130.5 51.5q81 0 129 -51q48 -56 48 -146q0 -89 -48 -141.5t-129 -52.5q-79 0 -130 51zM907 438v189h-717 v-189h717z" />
<glyph unicode="&#xbb;" horiz-adv-x="1270" d="M429 609l-279 -223l36 -305l530 426l-40 147l-484 479l-14 -277zM833 587l-279 -222l36 -305l530 425l-40 148l-484 479l-14 -278z" />
<glyph unicode="&#xbc;" horiz-adv-x="2022" d="M1662 306h126v-176h-126v-174h-210v174h-386v24l-109 -181h-237l915 1520h237l-411 -683h201v-504zM358 801v489q-6 -1 -24 -4.5t-29 -5.5q-12 -2 -50 -9t-58 -11q-38 -7 -47 -8v183l251 42h166v-676h191v-178h-591v178h191zM1452 546l-176 -240h176v240z" />
<glyph unicode="&#xbd;" horiz-adv-x="2016" d="M697 -27l915 1520h-237l-915 -1520h237zM758 623v178h-191v676h-166l-251 -42v-183q9 1 47 8q20 4 58 11t50 9q11 2 29 5.5t24 4.5v-489h-191v-178h591zM1533 138l7 5q1 1 1 2q320 275 320 420q0 119 -93 190t-242 71q-112 0 -287 -62v-202q177 88 267 88q63 0 101 -27.5 t38 -72.5q0 -70 -309 -344l-103 -93v-157h633v182h-333z" />
<glyph unicode="&#xbe;" horiz-adv-x="1893" d="M150 860v-203q162 -48 272 -48q185 0 282.5 72t97.5 207q0 130 -113 197q93 60 93 168q0 110 -95 179q-92 61 -234 61q-110 0 -276 -40v-186q87 25 155 39q54 11 90 11q145 0 145 -74q0 -77 -141 -77h-125v-176h117q168 0 168 -102q0 -48 -46.5 -75t-130.5 -27 q-117 0 -259 74zM652 -27l915 1520h-237l-915 -1520h237zM1021 130h386v-174h210v174h126v176h-126v504h-211l-385 -518v-162zM1231 306l176 240v-240h-176z" />
<glyph unicode="&#xbf;" horiz-adv-x="1119" d="M478 1468v-312h263v312h-263zM483 1094v-152q0 -39 -2 -73q-4 -51 -28 -80v1q-20 -28 -58 -64l-82 -80q-84 -82 -125 -154q-38 -74 -38 -152q0 -165 115.5 -266t302.5 -101q200 0 401 122v324q-236 -162 -368 -162q-90 0 -139 43v-1q-48 41 -48 106q0 72 90 156l85 83 q42 46 58.5 66.5t33.5 52.5t21.5 64t4.5 84v183h-224z" />
<glyph unicode="&#xc0;" horiz-adv-x="1710" d="M707 1551h233l-238 321h-274zM492 0l72 231h581l53 -231h362l-589 1493h-231l-590 -1493h342zM1064 532h-417q31 93 54 163q9 29 27 81.5t25 72.5l50 152q8 25 25.5 77.5l26.5 79.5z" />
<glyph unicode="&#xc1;" horiz-adv-x="1710" d="M951 1551l277 321h-273l-239 -321h235zM492 0l72 231h581l53 -231h362l-589 1493h-231l-590 -1493h342zM1064 532h-417q31 93 54 163q9 29 27 81.5t25 72.5l50 152q8 25 25.5 77.5l26.5 79.5z" />
<glyph unicode="&#xc2;" horiz-adv-x="1710" d="M709 1551l68 74q23 25 70 75l140 -149h223l-257 323h-211l-256 -323h223zM492 0l72 231h581l53 -231h362l-589 1493h-231l-590 -1493h342zM1064 532h-417q31 93 54 163q9 29 27 81.5t25 72.5l50 152q8 25 25.5 77.5l26.5 79.5z" />
<glyph unicode="&#xc3;" horiz-adv-x="1710" d="M779 1656l54 -31q53 -27 84 -36q34 -8 70 -8q96 0 153 76q56 73 61 203h-192v-43q0 -49 -30 -49q-18 0 -49 19l-54 28h1q-43 24 -82 36q-31 9 -72 9q-97 0 -155 -75q-58 -77 -58 -204h191v43q0 51 34 51q10 0 44 -19zM492 0l72 231h581l53 -231h362l-589 1493h-231 l-590 -1493h342zM1064 532h-417q31 93 54 163q9 29 27 81.5t25 72.5l50 152q8 25 25.5 77.5l26.5 79.5z" />
<glyph unicode="&#xc4;" horiz-adv-x="1710" d="M794 1581v264h-265v-264h265zM1158 1581v264h-264v-264h264zM492 0l72 231h581l53 -231h362l-589 1493h-231l-590 -1493h342zM1064 532h-417q31 93 54 163q9 29 27 81.5t25 72.5l50 152q8 25 25.5 77.5l26.5 79.5z" />
<glyph unicode="&#xc5;" horiz-adv-x="1709" d="M434 0l130 364h584l130 -364h281l-515 1350q110 90 110 231q0 126 -88 211q-85 88 -211 88q-125 0 -211.5 -86.5t-86.5 -212.5q0 -141 110 -230l-517 -1351h284zM961 1581q0 -44 -30.5 -74.5t-75.5 -30.5t-75.5 30.5t-30.5 74.5q0 46 30.5 76.5t75.5 30.5q42 0 74 -32.5 t32 -74.5zM651 599l53 145q34 92 51 137l101 273l203 -555h-408z" />
<glyph unicode="&#xc6;" horiz-adv-x="2157" d="M150 0h452l-10 250h425v-250h990v323h-722v190h675v238h-675v505h704v237h-1214zM1017 485h-343l286 782h57v-782z" />
<glyph unicode="&#xc7;" horiz-adv-x="1518" d="M1368 1366v-310q-247 229 -477 229q-226 0 -344.5 -138t-118.5 -402q4 -223 114 -314.5t349 -91.5q230 0 477 229v-441q-189 -128 -394 -150q47 -75 47 -140q0 -206 -260 -206q-85 0 -201 31v213q105 -54 182 -54q74 0 74 50q0 23 -29 73l-22 35q-288 35 -451.5 238.5 t-163.5 527.5q0 356 196 565t534 209q263 0 488 -153z" />
<glyph unicode="&#xc8;" horiz-adv-x="1289" d="M436 1551h233l-238 321h-274zM1139 0v370h-721v305h674v237h-674v344h704v237h-972v-1493h989z" />
<glyph unicode="&#xc9;" horiz-adv-x="1289" d="M570 1551l277 321h-273l-239 -321h235zM1139 0v370h-721v305h674v237h-674v344h704v237h-972v-1493h989z" />
<glyph unicode="&#xca;" horiz-adv-x="1289" d="M458 1551l68 74q23 25 70 75l140 -149h223l-257 323h-211l-256 -323h223zM1139 0v370h-721v305h674v237h-674v344h704v237h-972v-1493h989z" />
<glyph unicode="&#xcb;" horiz-adv-x="1289" d="M573 1581v264h-265v-264h265zM937 1581v264h-264v-264h264zM1139 0v370h-721v305h674v237h-674v344h704v237h-972v-1493h989z" />
<glyph unicode="&#xcc;" horiz-adv-x="877" d="M429 1551h233l-238 321h-274zM727 0l-19 1493h-257l-31 -1493h307z" />
<glyph unicode="&#xcd;" horiz-adv-x="820" d="M393 1551l277 321h-273l-239 -321h235zM457 0l-19 1493h-257l-31 -1493h307z" />
<glyph unicode="&#xce;" horiz-adv-x="1024" d="M373 1551l68 74q23 25 70 75l140 -149h223l-257 323h-211l-256 -323h223zM669 0l-19 1493h-257l-31 -1493h307z" />
<glyph unicode="&#xcf;" horiz-adv-x="929" d="M415 1581v264h-265v-264h265zM779 1581v264h-264v-264h264zM576 0l-19 1493h-257l-31 -1493h307z" />
<glyph unicode="&#xd0;" horiz-adv-x="1758" d="M150 877v-213h191v-664h433q418 0 628 181q206 189 206 567q0 374 -205 564q-210 181 -629 181h-433v-616h-191zM610 1260h192q276 0 402 -122.5t126 -389.5q0 -77 -10.5 -136t-29.5 -103t-52.5 -74t-72.5 -49.5t-97.5 -30t-119.5 -14.5t-146 -4h-192v327h319v213h-319 v383z" />
<glyph unicode="&#xd1;" horiz-adv-x="1468" d="M611 1656l54 -31q53 -27 84 -36q34 -8 70 -8q96 0 153 76q56 73 61 203h-192v-43q0 -49 -30 -49q-18 0 -49 19l-54 28h1q-43 24 -82 36q-31 9 -72 9q-97 0 -155 -75q-58 -77 -58 -204h191v43q0 51 34 51q10 0 44 -19zM471 0l-24 524q-4 78 -12.5 256.5t-13.5 273.5 l559 -1054h338v1493h-252l-26 -1042l-552 1014h-299l-39 -1465h321z" />
<glyph unicode="&#xd2;" horiz-adv-x="1688" d="M738 1551h233l-238 321h-274zM845 1519q-317 0 -507 -213q-188 -212 -188 -561t188 -561q191 -212 507 -212q313 0 505 212q188 212 188 561t-188 561q-190 213 -505 213zM845 1287q191 0 302.5 -143.5t111.5 -398.5q0 -97 -26.5 -163t-82 -102.5t-128 -51.5t-177.5 -15 q-196 0 -313 69q-104 67 -104 263q0 249 114 401q120 141 303 141z" />
<glyph unicode="&#xd3;" horiz-adv-x="1688" d="M892 1551l277 321h-273l-239 -321h235zM845 1519q-317 0 -507 -213q-188 -212 -188 -561t188 -561q191 -212 507 -212q313 0 505 212q188 212 188 561t-188 561q-190 213 -505 213zM845 1287q191 0 302.5 -143.5t111.5 -398.5q0 -97 -26.5 -163t-82 -102.5t-128 -51.5 t-177.5 -15q-196 0 -313 69q-104 67 -104 263q0 249 114 401q120 141 303 141z" />
<glyph unicode="&#xd4;" horiz-adv-x="1688" d="M690 1551l68 74q22 25 70 75l140 -149h223l-257 323h-211l-256 -323h223zM845 1519q-317 0 -507 -213q-188 -212 -188 -561t188 -561q191 -212 507 -212q313 0 505 212q188 212 188 561t-188 561q-190 213 -505 213zM845 1287q191 0 302.5 -143.5t111.5 -398.5 q0 -97 -26.5 -163t-82 -102.5t-128 -51.5t-177.5 -15q-196 0 -313 69q-104 67 -104 263q0 249 114 401q120 141 303 141z" />
<glyph unicode="&#xd5;" horiz-adv-x="1688" d="M760 1656l54 -31q52 -27 84 -36q34 -8 70 -8q96 0 153 76q56 73 61 203h-192v-43q0 -49 -30 -49q-18 0 -49 19l-54 28h1q-43 24 -82 36q-31 9 -72 9q-97 0 -155 -75q-58 -77 -58 -204h191v43q0 51 34 51q10 0 44 -19zM845 1519q-317 0 -507 -213q-188 -212 -188 -561 t188 -561q191 -212 507 -212q313 0 505 212q188 212 188 561t-188 561q-190 213 -505 213zM845 1287q191 0 302.5 -143.5t111.5 -398.5q0 -97 -26.5 -163t-82 -102.5t-128 -51.5t-177.5 -15q-196 0 -313 69q-104 67 -104 263q0 249 114 401q120 141 303 141z" />
<glyph unicode="&#xd6;" horiz-adv-x="1688" d="M855 1581v264h-265v-264h265zM1219 1581v264h-264v-264h264zM845 1519q-317 0 -507 -213q-188 -212 -188 -561t188 -561q191 -212 507 -212q313 0 505 212q188 212 188 561t-188 561q-190 213 -505 213zM845 1287q191 0 302.5 -143.5t111.5 -398.5q0 -97 -26.5 -163 t-82 -102.5t-128 -51.5t-177.5 -15q-196 0 -313 69q-104 67 -104 263q0 249 114 401q120 141 303 141z" />
<glyph unicode="&#xd7;" horiz-adv-x="1436" d="M713 866l-336 336l-209 -213l333 -335l-351 -352l208 -212l355 354l354 -354l209 212l-352 352l362 363l-210 212z" />
<glyph unicode="&#xd8;" horiz-adv-x="1742" d="M305 -82l155 183q172 -129 412 -129q314 0 505 212q188 211 188 561q0 295 -139 498l166 194l-154 134l-155 -182q-173 130 -411 130q-315 0 -504.5 -211.5t-189.5 -562.5q0 -295 138 -497l-166 -197zM1125 1203l-594 -692q-30 36 -67 104l1 -1q-38 78 -38 169 q0 249 114 401q117 139 300 141q120 -11 182 -39q52 -20 102 -83zM676 364l568 663q13 -30 26 -72q17 -54 17 -148q-37 -254 -125 -348q-89 -86 -285 -115q-67 0 -141 2q-36 5 -60 18z" />
<glyph unicode="&#xd9;" horiz-adv-x="1481" d="M628 1551h233l-238 321h-274zM150 1493l10 -923q3 -296 149 -447t432 -151q574 0 580 598l10 923h-268l-10 -766q-3 -217 -74 -305v1q-71 -86 -238 -86t-238 86v-1q-71 88 -74 305l-10 766h-269z" />
<glyph unicode="&#xda;" horiz-adv-x="1461" d="M812 1551l277 321h-273l-239 -321h235zM150 1493v-923q0 -295 147 -446.5t434 -151.5q288 0 434 150.5t146 447.5v923h-268v-766q0 -213 -74 -305v1q-71 -86 -238 -86t-238 86v-1q-74 92 -74 305v766h-269z" />
<glyph unicode="&#xdb;" horiz-adv-x="1461" d="M590 1551l68 74q22 25 70 75l140 -149h223l-257 323h-211l-256 -323h223zM150 1493v-923q0 -295 147 -446.5t434 -151.5q288 0 434 150.5t146 447.5v923h-268v-766q0 -213 -74 -305v1q-71 -86 -238 -86t-238 86v-1q-74 92 -74 305v766h-269z" />
<glyph unicode="&#xdc;" horiz-adv-x="1461" d="M705 1581v264h-265v-264h265zM1069 1581v264h-264v-264h264zM150 1493v-923q0 -295 147 -446.5t434 -151.5q288 0 434 150.5t146 447.5v923h-268v-766q0 -213 -74 -305v1q-71 -86 -238 -86t-238 86v-1q-74 92 -74 305v766h-269z" />
<glyph unicode="&#xdd;" horiz-adv-x="1619" d="M871 1551l277 321h-273l-239 -321h235zM637 0h335v513l497 980h-291l-367 -684l-370 684h-291l487 -980v-513z" />
<glyph unicode="&#xde;" horiz-adv-x="1291" d="M418 0v321h203q259 0 389.5 116t130.5 345q0 460 -520 460h-203v251h-268v-1493h268zM418 1009h203q117 0 179.5 -59t62.5 -168t-62.5 -168.5t-179.5 -59.5h-203v455z" />
<glyph unicode="&#xdf;" horiz-adv-x="1376" d="M150 0h337q-7 157 -24 546l-24 546q17 143 69.5 199t159.5 56q54 0 82.5 -4t59 -21.5t53.5 -51.5t52 -95q-154 -30 -222 -114.5t-68 -220.5q0 -99 46 -169q53 -79 90 -124l82 -56q91 -55 111 -87q21 -28 21 -58q0 -38 -45 -59q-46 -21 -137 -21q-113 0 -304 71v-308 q174 -56 292 -56q217 0 331 94.5t114 274.5q0 109 -52 182t-211 174l-53 35h1q-98 62 -98 127q0 72 78 116.5t221 52.5q-4 246 -115 372t-325 126q-216 0 -341 -113q-123 -114 -123 -314z" />
<glyph unicode="&#xe0;" horiz-adv-x="1258" d="M536 1564h352l-320 423h-266zM1108 0v634q0 257 -121.5 384t-366.5 127q-175 0 -393 -85v-227q205 111 373 111q119 -10 186 -64t74 -145h-202q-508 0 -508 -393q0 -166 106 -269q107 -100 282 -100q199 0 323 113v-86h247zM765 534v-1q0 -61 -7 -100.5t-20 -64.5 t-39 -37.5t-56 -17t-79 -4.5q-87 0 -146 17q-38 11 -49 63q1 77 48 108q52 37 231 37h117z" />
<glyph unicode="&#xe1;" horiz-adv-x="1273" d="M558 1357l403 464h-306l-347 -464h250zM1108 0v634q0 257 -121.5 384t-366.5 127q-175 0 -393 -85v-227q205 111 373 111q119 -10 186 -64t74 -145h-202q-508 0 -508 -393q0 -166 106 -269q107 -100 282 -100q199 0 323 113v-86h247zM765 534v-1q0 -61 -7 -100.5 t-20 -64.5t-39 -37.5t-56 -17t-79 -4.5q-87 0 -146 17q-38 11 -49 63q1 77 48 108q52 37 231 37h117z" />
<glyph unicode="&#xe2;" horiz-adv-x="1258" d="M270 1259h218q42 57 73 100q15 21 43 58.5t33 44.5l149 -203h218l-277 425h-180zM1108 0v634q0 257 -121.5 384t-366.5 127q-175 0 -393 -85v-227q205 111 373 111q119 -10 186 -64t74 -145h-202q-508 0 -508 -393q0 -166 106 -269q107 -100 282 -100q199 0 323 113v-86 h247zM765 534v-1q0 -61 -7 -100.5t-20 -64.5t-39 -37.5t-56 -17t-79 -4.5q-87 0 -146 17q-38 11 -49 63q1 77 48 108q52 37 231 37h117z" />
<glyph unicode="&#xe3;" horiz-adv-x="1258" d="M553 1340l53 -52q40 -36 75.5 -51t80.5 -15q103 0 160 87.5t60 250.5h-191q-1 -71 -10 -111q-7 -34 -25 -34q-9 0 -38 26h1l-54 51q-42 37 -76.5 52.5t-78.5 15.5q-103 0 -160.5 -88t-59.5 -250h191q1 70 10 110q7 34 25 34q9 0 38 -26h-1zM1108 0v634q0 257 -121.5 384 t-366.5 127q-175 0 -393 -85v-227q205 111 373 111q119 -10 186 -64t74 -145h-202q-508 0 -508 -393q0 -166 106 -269q107 -100 282 -100q199 0 323 113v-86h247zM765 534v-1q0 -61 -7 -100.5t-20 -64.5t-39 -37.5t-56 -17t-79 -4.5q-87 0 -146 17q-38 11 -49 63 q1 77 48 108q52 37 231 37h117z" />
<glyph unicode="&#xe4;" horiz-adv-x="1258" d="M608 1434v277h-278v-277h278zM999 1434v277h-278v-277h278zM1108 0v634q0 257 -121.5 384t-366.5 127q-175 0 -393 -85v-227q205 111 373 111q119 -10 186 -64t74 -145h-202q-508 0 -508 -393q0 -166 106 -269q107 -100 282 -100q199 0 323 113v-86h247zM765 534v-1 q0 -61 -7 -100.5t-20 -64.5t-39 -37.5t-56 -17t-79 -4.5q-87 0 -146 17q-38 11 -49 63q1 77 48 108q52 37 231 37h117z" />
<glyph unicode="&#xe5;" horiz-adv-x="1258" d="M919 1460q0 121 -86 207t-207 86q-122 0 -207.5 -85.5t-85.5 -207.5q0 -123 85.5 -208.5t207.5 -85.5q121 0 207 86t86 208zM730 1460q0 -45 -29.5 -75t-74.5 -30q-44 0 -76 29q-29 32 -29 76t29.5 73.5t75.5 29.5q45 0 74.5 -29.5t29.5 -73.5zM1108 0v634 q0 257 -121.5 384t-366.5 127q-175 0 -393 -85v-227q205 111 373 111q119 -10 186 -64t74 -145h-202q-508 0 -508 -393q0 -166 106 -269q107 -100 282 -100q199 0 323 113v-86h247zM765 534v-1q0 -61 -7 -100.5t-20 -64.5t-39 -37.5t-56 -17t-79 -4.5q-87 0 -146 17 q-38 11 -49 63q1 77 48 108q52 37 231 37h117z" />
<glyph unicode="&#xe6;" horiz-adv-x="2036" d="M1886 538h-783q11 -45 34 -84.5t61.5 -74.5t98.5 -55.5t135 -20.5q185 0 414 124v-334q-47 -20 -106 -43q-25 -10 -108 -41q-104 -36 -209 -36q-160 0 -271 46t-188 149q-146 -195 -404 -195q-193 0 -301.5 97.5t-108.5 271.5q0 243 125.5 346t382.5 103h201 q-12 42 -66 98q-66 73 -191 73q-175 0 -375 -111v209q218 85 393 85q126 0 225 -39t159 -111q150 150 388 150q110 0 204.5 -40t157 -107t97.5 -155t35 -184v-121zM1110 746h526q-14 83 -79 156t-163 73q-127 0 -202 -86q-62 -66 -82 -143zM862 581h-134q-200 0 -272 -34 q-59 -29 -59 -141q0 -57 49.5 -89t136.5 -32q131 0 204 70q74 69 75 226z" />
<glyph unicode="&#xe7;" horiz-adv-x="1202" d="M1052 1066v-237q-190 105 -331 105q-148 0 -226 -97t-80 -274q14 -119 75 -163q67 -43 225 -57h147q71 2 185 68l5 -357q-93 -44 -189 -65q55 -82 55 -152q0 -206 -260 -206q-85 0 -201 31v213q105 -54 182 -54q74 0 74 50q0 23 -29 73l-19 30q-236 13 -375.5 171.5 t-139.5 413.5q0 271 151 428.5t412 157.5q166 0 339 -79z" />
<glyph unicode="&#xe8;" d="M527 1180h352l-320 423h-266zM1184 566v105q-20 238 -139 351h1q-120 114 -345 123q-251 0 -396.5 -160t-154.5 -434q0 -265 157 -418q158 -151 421 -160q205 0 426 92l-5 324q-138 -73 -224 -80q-88 -7 -187 -7q-169 13 -251 64q-70 52 -82 200h779zM950 790h-524 q14 58 71 115v-1q75 76 204 76q110 0 176 -76q51 -61 73 -114z" />
<glyph unicode="&#xe9;" d="M1184 566h-779q12 -148 82 -200q82 -51 251 -64q99 0 187 7q86 7 224 80l5 -324q-221 -92 -426 -92q-263 9 -421 160q-157 153 -157 418q8 247 128.5 403t331.5 185h-158l347 464h306l-398 -458q221 -11 339 -123h-1q119 -113 139 -351v-105zM426 790h524q-22 53 -73 114 q-66 76 -176 76q-129 0 -204 -76v1q-57 -57 -71 -115z" />
<glyph unicode="&#xea;" d="M295 1178h218q42 57 73 100q15 21 43 58.5t33 44.5l149 -203h218l-277 425h-180zM1184 566v105q-20 238 -139 351h1q-120 114 -345 123q-251 0 -396.5 -160t-154.5 -434q0 -265 157 -418q158 -151 421 -160q205 0 426 92l-5 324q-138 -73 -224 -80q-88 -7 -187 -7 q-169 13 -251 64q-70 52 -82 200h779zM950 790h-524q14 58 71 115v-1q75 76 204 76q110 0 176 -76q51 -61 73 -114z" />
<glyph unicode="&#xeb;" d="M667 1260v277h-278v-277h278zM1058 1260v277h-278v-277h278zM1184 566v105q-20 238 -139 351h1q-120 114 -345 123q-251 0 -396.5 -160t-154.5 -434q0 -265 157 -418q158 -151 421 -160q205 0 426 92l-5 324q-138 -73 -224 -80q-88 -7 -187 -7q-169 13 -251 64 q-70 52 -82 200h779zM950 790h-524q14 58 71 115v-1q75 76 204 76q110 0 176 -76q51 -61 73 -114z" />
<glyph unicode="&#xec;" horiz-adv-x="886" d="M384 1180h352l-320 423h-266zM689 0v1120h-247v-1120h247z" />
<glyph unicode="&#xed;" horiz-adv-x="953" d="M400 1139l403 464h-306l-347 -464h250zM420 0v1120h-247v-1120h247z" />
<glyph unicode="&#xee;" horiz-adv-x="1034" d="M150 1178h218q42 57 73 100q15 21 43 58.5t33 44.5l149 -203h218l-277 425h-180zM677 0v1120h-247v-1120h247z" />
<glyph unicode="&#xef;" horiz-adv-x="969" d="M428 1260v277h-278v-277h278zM819 1260v277h-278v-277h278zM623 0v1120h-247v-1120h247z" />
<glyph unicode="&#xf0;" d="M835 1258l116 -131q125 -145 177 -279q56 -144 56 -309q0 -254 -143 -410t-374 -156q-232 0 -374.5 155.5t-142.5 410.5q0 248 139 404t362 156q5 0 5 1h3q2 -1 6 -1l-69 79q-102 -34 -156 -53q-36 -13 -154 -52l-55 164l245 81q-6 7 -22 25t-25 29l-51 57q-26 29 -48 54 q-7 8 -20.5 22.5t-19.5 21.5h312l114 -130l322 108l55 -161zM482 797h1q-77 -92 -77 -258q0 -163 70.5 -254.5t190.5 -91.5q118 0 189 92.5t71 253.5q0 205 -85 320q-86 26 -145 26q-139 0 -215 -88z" />
<glyph unicode="&#xf1;" horiz-adv-x="1318" d="M495 1340l53 -52q40 -36 75.5 -51t80.5 -15q103 0 160 87.5t60 250.5h-191q-1 -71 -10 -111q-7 -34 -25 -34q-9 0 -38 26h1l-54 51q-42 37 -76.5 52.5t-78.5 15.5q-103 0 -160.5 -88t-59.5 -250h191q1 70 10 110q7 34 25 34q9 0 38 -26h-1zM1168 0l-30 670 q-12 231 -115.5 353t-296.5 122q-117 0 -211 -51q-75 -45 -89 -54v89h-246l-30 -1129h315l-30 639q0 292 272 292q93 0 134 -62.5t41 -194.5l-39 -674h325z" />
<glyph unicode="&#xf2;" horiz-adv-x="1344" d="M384 1180h352l-320 423h-266zM677 1145q-244 0 -381 -158q-136 -155 -136 -428t136 -427q136 -159 381 -159q240 0 378.5 157.5t138.5 428.5t-138.5 428.5t-378.5 157.5zM677 944q119 0 189.5 -94t70.5 -261q0 -161 -63 -201q-77 -44 -197 -44q-57 0 -94 4.5t-72 19.5 t-54 41.5t-30.5 71t-11.5 108.5q0 166 71 260.5t191 94.5z" />
<glyph unicode="&#xf3;" d="M759 1139h-4q201 -29 315 -182.5t114 -397.5q0 -271 -138.5 -428.5t-378.5 -157.5q-245 0 -381 159q-136 154 -136 427t136 428q108 126 290 152h-67l347 464h306zM864 388q63 40 63 201q0 167 -70.5 261t-189.5 94q-120 0 -191 -94.5t-71 -260.5q0 -64 11.5 -108.5 t30.5 -71t54 -41.5t72 -19.5t94 -4.5q120 0 197 44z" />
<glyph unicode="&#xf4;" d="M252 1178h218q42 57 73 100q15 21 43 58.5t33 44.5l149 -203h218l-277 425h-180zM667 1145q-244 0 -381 -158q-136 -155 -136 -428t136 -427q136 -159 381 -159q240 0 378.5 157.5t138.5 428.5t-138.5 428.5t-378.5 157.5zM667 944q119 0 189.5 -94t70.5 -261 q0 -161 -63 -201q-77 -44 -197 -44q-57 0 -94 4.5t-72 19.5t-54 41.5t-30.5 71t-11.5 108.5q0 166 71 260.5t191 94.5z" />
<glyph unicode="&#xf5;" d="M569 1340l53 -52q40 -36 75.5 -51t80.5 -15q103 0 160 87.5t60 250.5h-191q-1 -71 -10 -111q-7 -34 -25 -34q-9 0 -38 26h1l-54 51q-42 37 -76.5 52.5t-78.5 15.5q-103 0 -160.5 -88t-59.5 -250h191q1 70 10 110q7 34 25 34q9 0 38 -26h-1zM667 1145q-244 0 -381 -158 q-136 -155 -136 -428t136 -427q136 -159 381 -159q240 0 378.5 157.5t138.5 428.5t-138.5 428.5t-378.5 157.5zM667 944q119 0 189.5 -94t70.5 -261q0 -161 -63 -201q-77 -44 -197 -44q-57 0 -94 4.5t-72 19.5t-54 41.5t-30.5 71t-11.5 108.5q0 166 71 260.5t191 94.5z" />
<glyph unicode="&#xf6;" d="M684 1260v277h-278v-277h278zM1075 1260v277h-278v-277h278zM667 1145q-244 0 -381 -158q-136 -155 -136 -428t136 -427q136 -159 381 -159q240 0 378.5 157.5t138.5 428.5t-138.5 428.5t-378.5 157.5zM667 944q119 0 189.5 -94t70.5 -261q0 -161 -63 -201 q-77 -44 -197 -44q-57 0 -94 4.5t-72 19.5t-54 41.5t-30.5 71t-11.5 108.5q0 166 71 260.5t191 94.5z" />
<glyph unicode="&#xf7;" horiz-adv-x="1618" d="M985 830v351h-351v-351h351zM1468 473v280h-1318v-280h1318zM985 47v350h-351v-350h351z" />
<glyph unicode="&#xf8;" horiz-adv-x="1438" d="M297 -103l30 36q41 51 69 83q22 26 32 39q118 -82 292 -82q241 0 379 157.5t138 428.5q0 218 -91 367l142 174l-145 122l-30 -36q-25 -30 -34 -41q-36 -42 -68 -82q-124 82 -291 82q-241 0 -379 -157t-138 -429q0 -224 91 -366l-144 -176zM862 881l-390 -471 q-13 53 -13 136q0 184 71 285q70 94 190 94q85 0 142 -44zM576 237l390 472q14 -50 14 -150q0 -173 -70.5 -269.5t-189.5 -96.5q-87 0 -144 44z" />
<glyph unicode="&#xf9;" horiz-adv-x="1260" d="M389 1180h352l-320 423h-266zM150 1120v-670q0 -235 102.5 -356t301.5 -121q177 0 292 112l-5 -85h249l20 1120h-274l-11 -478q-11 -147 -76 -220q-64 -76 -187 -76q-93 0 -139.5 65t-54.5 197v512h-218z" />
<glyph unicode="&#xfa;" horiz-adv-x="1260" d="M674 1139l403 464h-306l-347 -464h250zM150 1120v-670q0 -235 102.5 -356t301.5 -121q177 0 292 112l-5 -85h249l20 1120h-274l-11 -478q-11 -147 -76 -220q-64 -76 -187 -76q-93 0 -139.5 65t-54.5 197v512h-218z" />
<glyph unicode="&#xfb;" horiz-adv-x="1260" d="M267 1178h218q42 57 73 100q15 21 43 58.5t33 44.5l149 -203h218l-277 425h-180zM150 1120v-670q0 -235 102.5 -356t301.5 -121q177 0 292 112l-5 -85h249l20 1120h-274l-11 -478q-11 -147 -76 -220q-64 -76 -187 -76q-93 0 -139.5 65t-54.5 197v512h-218z" />
<glyph unicode="&#xfc;" horiz-adv-x="1260" d="M599 1260v277h-278v-277h278zM990 1260v277h-278v-277h278zM150 1120v-670q0 -235 102.5 -356t301.5 -121q177 0 292 112l-5 -85h249l20 1120h-274l-11 -478q-11 -147 -76 -220q-64 -76 -187 -76q-93 0 -139.5 65t-54.5 197v512h-218z" />
<glyph unicode="&#xfd;" horiz-adv-x="1429" d="M811 1139l403 464h-306l-347 -464h250zM1020 1120l-265 -567l-345 567h-260l114 -244q188 -405 236 -507l114 -244q-16 -35 -33 -66q-28 -53 -34 -66q-38 -49 -77 -83q-30 -24 -86 -24h-157v-302h193q69 0 118 13.5t98 50.5t92.5 104.5t90.5 173.5l460 1194h-259z" />
<glyph unicode="&#xfe;" horiz-adv-x="1310" d="M397 -398v481q110 -110 297 -110q207 0 336.5 163t129.5 423t-129.5 423t-336.5 163q-187 0 -297 -110v492h-247v-1925h247zM468 834l-1 -1q70 94 185 94q118 0 186.5 -97t68.5 -271q0 -179 -72 -276q-65 -92 -183 -92t-185 93l1 -1q-71 98 -71 276q0 177 71 275z" />
<glyph unicode="&#xff;" horiz-adv-x="1429" d="M626 1260v277h-278v-277h278zM1017 1260v277h-278v-277h278zM1020 1120l-265 -567l-345 567h-260l114 -244q188 -405 236 -507l114 -244q-16 -35 -33 -66q-28 -53 -34 -66q-38 -49 -77 -83q-30 -24 -86 -24h-157v-302h193q69 0 118 13.5t98 50.5t92.5 104.5t90.5 173.5 l460 1194h-259z" />
<glyph unicode="&#x152;" horiz-adv-x="2222" d="M2055 1493h-1032q-428 0 -651 -190q-222 -189 -222 -555q0 -368 222 -558t651 -190h1049v342h-722v399h694v238h-694v315h705v199zM1083 342h-85q-286 0 -431 127q-139 131 -139 279q0 289 138.5 417.5t431.5 128.5h85v-952z" />
<glyph unicode="&#x153;" horiz-adv-x="2124" d="M1974 622v121q0 55 -35.5 123t-96.5 131t-158 105.5t-205 42.5q-271 0 -420 -178q-133 178 -392 178q-241 0 -379 -157t-138 -429q0 -273 136 -427q137 -159 381 -159q137 0 229 41q94 41 166 139q163 -180 448 -180q203 0 424 92v306q-230 -122 -415 -122 q-159 0 -245 58h1q-37 25 -60 104q-21 72 -29 211h788zM1715 820h-506q23 38 69 81h-1q77 71 204 71q111 0 177 -72q41 -44 57 -80zM667 953q120 0 190.5 -89.5t70.5 -244.5q0 -157 -70 -245.5t-191 -88.5q-122 0 -191.5 87t-69.5 247q0 157 70 245.5t191 88.5z" />
<glyph unicode="&#x178;" horiz-adv-x="1619" d="M804 1581v264h-265v-264h265zM1168 1581v264h-264v-264h264zM637 0h335v513l497 980h-291l-367 -684l-370 684h-291l487 -980v-513z" />
<glyph unicode="&#x2c6;" horiz-adv-x="1034" d="M150 1178h218q42 57 73 100q15 21 43 58.5t33 44.5l149 -203h218l-277 425h-180z" />
<glyph unicode="&#x2dc;" horiz-adv-x="992" d="M413 1340l53 -52q40 -36 75.5 -51t80.5 -15q103 0 160 87.5t60 250.5h-191q-1 -71 -10 -111q-7 -34 -25 -34q-9 0 -38 26h1l-54 51q-42 37 -76.5 52.5t-78.5 15.5q-103 0 -160.5 -88t-59.5 -250h191q1 70 10 110q7 34 25 34q9 0 38 -26h-1z" />
<glyph unicode="&#x2000;" horiz-adv-x="993" />
<glyph unicode="&#x2001;" horiz-adv-x="1987" />
<glyph unicode="&#x2002;" horiz-adv-x="993" />
<glyph unicode="&#x2003;" horiz-adv-x="1987" />
<glyph unicode="&#x2004;" horiz-adv-x="662" />
<glyph unicode="&#x2005;" horiz-adv-x="496" />
<glyph unicode="&#x2006;" horiz-adv-x="331" />
<glyph unicode="&#x2007;" horiz-adv-x="331" />
<glyph unicode="&#x2008;" horiz-adv-x="248" />
<glyph unicode="&#x2009;" horiz-adv-x="397" />
<glyph unicode="&#x200a;" horiz-adv-x="110" />
<glyph unicode="&#x2010;" horiz-adv-x="888" d="M729 456l9 229l-579 -11l-9 -228z" />
<glyph unicode="&#x2011;" horiz-adv-x="888" d="M729 456l9 229l-579 -11l-9 -228z" />
<glyph unicode="&#x2012;" horiz-adv-x="888" d="M729 456l9 229l-579 -11l-9 -228z" />
<glyph unicode="&#x2013;" horiz-adv-x="1330" d="M1180 456v209h-1030v-209h1030z" />
<glyph unicode="&#x2014;" horiz-adv-x="2286" d="M2136 456v209h-1986v-209h1986z" />
<glyph unicode="&#x2018;" horiz-adv-x="721" d="M571 1492h-219l-202 -394v-245h318v231z" />
<glyph unicode="&#x2019;" horiz-adv-x="718" d="M150 876h218l200 389v219h-314v-204z" />
<glyph unicode="&#x201a;" horiz-adv-x="660" d="M150 -222h193l167 327v207h-272v-193z" />
<glyph unicode="&#x201c;" horiz-adv-x="1201" d="M575 1468h-221l-204 -398v-248h319v232zM1051 1468h-221l-204 -398v-248h319v232z" />
<glyph unicode="&#x201d;" horiz-adv-x="1147" d="M150 860h211l192 375v233h-304v-219zM593 860h212l192 375v233h-303v-219z" />
<glyph unicode="&#x201e;" horiz-adv-x="1210" d="M150 -222h223l206 403v248h-322v-233zM631 -222h223l206 403v248h-322v-233z" />
<glyph unicode="&#x2022;" horiz-adv-x="929" d="M150 749q0 -132 91.5 -223.5t223.5 -91.5q130 0 222 91.5t92 223.5q0 129 -91.5 220.5t-220.5 91.5q-132 0 -224.5 -91.5t-92.5 -220.5z" />
<glyph unicode="&#x2026;" horiz-adv-x="1948" d="M526 0v414h-376v-414h376zM1161 0v414h-375v-414h375zM1798 0v414h-376v-414h376z" />
<glyph unicode="&#x202f;" horiz-adv-x="397" />
<glyph unicode="&#x2039;" horiz-adv-x="813" d="M150 542l513 -457v279l-262 233l262 234v279l-513 -458v-110z" />
<glyph unicode="&#x203a;" horiz-adv-x="812" d="M411 597l-261 -233v-279l512 457v110l-512 458v-279z" />
<glyph unicode="&#x205f;" horiz-adv-x="496" />
<glyph unicode="&#x20ac;" horiz-adv-x="1485" d="M1335 1072v269q-187 152 -383 152q-236 0 -390 -145q-146 -140 -189 -365h-138l-85 -190h202v-1v-26q-1 -10 -1 -33q0 -21 1 -30v-25v-3h-120l-76 -227h226q18 -92 67 -177q51 -94 112 -152q158 -146 391 -146q193 0 383 154v392q-157 -163 -229 -201q-70 -37 -156 -37 q-132 0 -215 83q-53 54 -72 84h308l77 227h-434q-1 7 -1 16v10q0 6 1 11v21v33q-2 15 0 27h492l85 190h-552q33 146 115.5 239.5t204.5 93.5q89 0 156 -37q75 -40 220 -207z" />
<glyph unicode="&#x2122;" horiz-adv-x="1627" d="M150 1306h185l-28 -452h243l-29 452h187v162h-558v-162zM708 854h243q-6 81 -8 132l-9 141l94 -225h140l42 105q14 35 44 109l-16 -262h239l-20 614h-218q-60 -114 -67 -128l-71 -132l-131 260h-219z" />
<glyph unicode="&#xe000;" horiz-adv-x="1120" d="M0 1120h1120v-1120h-1120v1120z" />
</font>
</defs>
</svg>
