<?xml version="1.0" encoding="utf-8"?>
<!-- Generator: Adobe Illustrator 23.0.2, SVG Export Plug-In . SVG Version: 6.00 Build 0)  -->
<svg version="1.1" id="Layer_1" xmlns="http://www.w3.org/2000/svg" xmlns:xlink="http://www.w3.org/1999/xlink" x="0px" y="0px"
	 width="100px" height="100px" viewBox="0 0 100 100" enable-background="new 0 0 100 100" xml:space="preserve">
<g id="icons">
	<g>
		<path fill="#FFFFFF" d="M71.4,28.6C65.9,23.1,58.6,20,50.9,20c-1.7,0-3,1.3-3,3s1.3,3,3,3c6.1,0,11.9,2.4,16.3,6.7
			C71.5,37.2,74,43,74,49.1c0,1.7,1.3,3,3,3s3-1.3,3-3C80,41.4,77,34.1,71.4,28.6z M50.9,32.1c-1.7,0-3,1.3-3,3s1.3,3,3,3
			c2.9,0,5.7,1.1,7.8,3.2c2.1,2.1,3.2,4.8,3.2,7.8c0,1.7,1.3,3,3,3c1.7,0,3-1.3,3-3c0-4.5-1.8-8.8-5-12S55.4,32.1,50.9,32.1z
			 M46.6,60.8l2.6-7c1.8,0.7,3.8,0.3,5.3-1.1c2-2,2-5.1,0-7.1c-2-2-5.1-2-7.1,0c-1.5,1.5-1.8,3.7-1,5.6l-6.5,2.9L28.2,42.4
			c-0.8-0.8-2.2-0.8-2.9,0.1c-7.5,9-7,22.4,1.5,30.9c8.4,8.4,21.8,8.9,30.9,1.5c0.9-0.7,0.9-2.1,0.1-2.9
			C57.7,71.9,46.6,60.8,46.6,60.8z"/>
	</g>
</g>
</svg>
