<?xml version="1.0" encoding="utf-8"?>
<!-- Generator: Adobe Illustrator 23.0.2, SVG Export Plug-In . SVG Version: 6.00 Build 0)  -->
<svg version="1.1" id="Layer_1" xmlns="http://www.w3.org/2000/svg" xmlns:xlink="http://www.w3.org/1999/xlink" x="0px" y="0px"
	 width="100px" height="100px" viewBox="0 0 100 100" enable-background="new 0 0 100 100" xml:space="preserve">
<g>
	<path fill="#FFFFFF" d="M62.8,71.2v7.8c0,0.6,0.5,1.1,1.1,1.1c0.2,0,0.5-0.1,0.6-0.2l15.1-12.3c0.2-0.2,0.3-0.5,0.3-0.8
		c0-0.3-0.2-0.6-0.4-0.8L64.4,53.1C64.3,53,64.1,53,63.9,53c-0.6,0-1.1,0.5-1.1,1.1v8.3c-9.3,2.5-16.9-5.7-16.9-5.7
		c-0.2-0.2-0.5-0.3-0.8-0.3c-0.6,0-1.1,0.5-1.1,1.1v0.2C47.8,73.4,62.8,71.2,62.8,71.2z"/>
	<g>
		<path fill="#FFFFFF" d="M38.2,58.9l-0.2-0.7v-0.7v-0.2c0-3.9,3.2-7.1,7.1-7.1c1.9,0,3.6,0.7,5,2.1l0.1,0.1l0.1,0.1
			c0.9,1,3.5,3.1,6.6,4V54c0-3.9,3.2-7.1,7.1-7.1c1.5,0,2.5,0.4,3.2,0.8l0.7,0.3l0.6,0.5l8.5,7.2c2-2,3.2-4.8,3.2-7.8
			c0-6.2-5-11.2-11.2-11.2h-0.6v-1c0-6.2-5.1-11.3-11.3-11.3c-3,0-5.6,1.1-7.6,3c-1.6-4.2-5.7-7.4-10.6-7.4
			c-6.2,0-11.3,5.1-11.3,11.3c0,2.1,0.6,4,1.5,5.7c-5,1.2-8.6,5.6-8.6,11c0,6.1,4.7,11,10.8,11.2h7.4C38.3,59.1,38.3,59,38.2,58.9z"
			/>
	</g>
</g>
</svg>
