<?xml version="1.0" encoding="utf-8"?>
<!-- Generator: Adobe Illustrator 17.1.0, SVG Export Plug-In . SVG Version: 6.00 Build 0)  -->
<!DOCTYPE svg PUBLIC "-//W3C//DTD SVG 1.1//EN" "http://www.w3.org/Graphics/SVG/1.1/DTD/svg11.dtd">
<svg version="1.1" id="Layer_1" xmlns="http://www.w3.org/2000/svg" xmlns:xlink="http://www.w3.org/1999/xlink" x="0px" y="0px" width="100" height="100"
	 viewBox="0 0 100 100" style="enable-background:new 0 0 100 100;" xml:space="preserve">

<g>
	<path fill="#FFFFFF" d="M72,22H28c-3.3,0-6,2.7-6,6v44c0,3.3,2.7,6,6,6h44c3.3,0,6-2.7,6-6V28C78,24.7,75.3,22,72,22z M59,62.6
		c0.3,1.2-0.7,2.4-1.9,2.4H43c-1.3,0-2.2-1.2-1.9-2.4l3.2-11c-3.1-2.2-4.9-6.1-4.1-10.4c0.8-4,3.9-7.2,7.9-7.9
		C54.4,32,60,36.9,60,43.2c0,3.5-1.7,6.5-4.3,8.3L59,62.6z"/>
</g>
</svg>
