<?xml version="1.0" encoding="utf-8"?>
<!-- Generator: Adobe Illustrator 21.1.0, SVG Export Plug-In . SVG Version: 6.00 Build 0)  -->
<svg version="1.1" id="Layer_1" xmlns="http://www.w3.org/2000/svg" xmlns:xlink="http://www.w3.org/1999/xlink" x="0px" y="0px"
	 width="100px" height="100px" viewBox="0 0 100 100" enable-background="new 0 0 100 100" xml:space="preserve">
<title></title>
<desc></desc>
<path fill="#FFFFFF" d="M49.1,21.5c-16.9,0-30.3,12.4-30.3,27.8c0,4.8,1.4,9.4,3.7,13.5c0.4,0.6,0.5,1.4,0.3,2.2l-3.9,10.8
	c-0.4,1,0.6,1.9,1.7,1.7l10.9-4.2c0.6-0.3,1.4-0.1,2.2,0.3c4.6,2.5,10,4.1,15.9,4.1C66,77.4,79.6,64.9,79.6,49.6
	C79.5,33.9,65.9,21.5,49.1,21.5z M36.9,54c-0.4,0.6-0.8,1.3-1.3,1.7c-0.5,0.4-1.1,0.8-1.9,1c-0.6,0.3-1.4,0.3-2.2,0.3
	c-1,0-1.9-0.1-2.8-0.5c-0.9-0.4-1.8-0.9-2.4-1.7l-0.3-0.3c-0.1-0.1,0-0.4,0.3-0.6l2-1.9c0.3-0.3,0.5-0.3,0.6-0.1
	c0.1,0.1,0.3,0.4,0.3,0.4c0.3,0.4,0.6,0.6,1,0.9c0.6,0.4,1.3,0.4,2,0.3c0.3,0,0.4-0.1,0.6-0.3l0.4-0.4c0.1-0.1,0.1-0.4,0.1-0.5
	c0-0.5-0.1-0.6-0.3-0.8c-0.3-0.3-0.6-0.5-1.1-0.6c-0.5-0.1-1-0.4-1.7-0.5c-0.6-0.3-1.3-0.5-1.8-0.8c-0.6-0.4-1-0.9-1.4-1.4
	c-0.4-0.6-0.6-1.4-0.6-2.4c0-0.9,0.1-1.7,0.5-2.3s0.8-1.1,1.4-1.5c0.5-0.4,1.1-0.8,1.9-0.9c1.5-0.4,3-0.4,4.6,0.1
	c0.8,0.3,1.5,0.8,1.9,1l0.4,0.3c0.3,0.1,0.1,0.5-0.1,0.8l-1.9,1.9c-0.3,0.3-0.6,0.3-0.9,0c-0.3-0.1-0.4-0.4-0.5-0.4
	c-0.6-0.4-1.5-0.5-2.3-0.4c-0.3,0-0.4,0.1-0.5,0.3L30.7,45c-0.1,0.1-0.1,0.3-0.1,0.5c0,0.4,0.1,0.5,0.3,0.6c0.3,0.3,0.6,0.4,1.1,0.6
	c0.5,0.1,1,0.4,1.7,0.5c0.6,0.3,1.3,0.5,1.8,0.8c0.6,0.4,1,0.9,1.4,1.4c0.4,0.6,0.6,1.4,0.6,2.4C37.4,52.6,37.3,53.4,36.9,54z
	 M58,55.8c0,0.8-0.6,1.3-1.4,1.3h-1.3c-0.8,0-1.1-0.5-1.1-1.3v-7.5c0-0.8-1-0.9-1.3-0.3l-2.2,5.7c-0.1,0.5-0.6,0.8-1.1,0.8h-0.9
	c-0.5,0-1-0.4-1.1-0.8L45.3,48c-0.3-0.6-1.3-0.5-1.3,0.3v7.5c0,0.8-0.6,1.3-1.4,1.3h-1.3c-0.8,0-1.1-0.5-1.1-1.3v-14
	c0-0.8,0.5-1.3,1.1-1.3h3.3c0.5,0,1,0.4,1.1,0.8l2.5,6.6c0.3,0.5,1,0.5,1.1,0l2.5-6.6c0.1-0.5,0.6-0.8,1.1-0.8h3.4
	c0.8,0,1.4,0.5,1.4,1.3C58,41.8,58,55.8,58,55.8z M71.3,54.1c-0.4,0.6-0.8,1.3-1.4,1.7c-0.5,0.4-1.1,0.8-1.9,1
	c-0.8,0.3-1.4,0.3-2.2,0.3c-1,0-1.9-0.1-2.8-0.5s-1.8-0.9-2.4-1.7l-0.3-0.3c-0.1-0.1,0-0.4,0.3-0.6l2-1.9c0.3-0.3,0.5-0.3,0.6-0.1
	s0.3,0.4,0.3,0.4c0.3,0.4,0.6,0.6,1,0.9c0.6,0.4,1.4,0.4,2,0.3c0.3-0.1,0.5-0.1,0.6-0.3l0.4-0.4c0,0,0.1-0.4,0.1-0.5
	c0-0.5-0.1-0.6-0.3-0.8c-0.3-0.3-0.6-0.5-1.1-0.6c-0.5-0.1-1-0.4-1.7-0.5c-0.6-0.3-1.3-0.5-1.8-0.8c-0.6-0.4-1.1-0.9-1.5-1.4
	c-0.4-0.6-0.6-1.4-0.6-2.4c0-0.9,0.1-1.7,0.5-2.3c0.4-0.6,0.8-1.1,1.4-1.5c0.5-0.4,1.3-0.8,1.9-0.9c1.5-0.4,3-0.4,4.6,0.1
	c0.8,0.3,1.5,0.8,1.9,1.1l0.4,0.4c0.3,0.1,0.1,0.5-0.1,0.8l-1.9,1.9c-0.3,0.3-0.6,0.3-0.9,0c-0.3-0.1-0.4-0.4-0.5-0.4
	c-0.6-0.4-1.5-0.5-2.3-0.4c-0.3,0-0.4,0.1-0.5,0.3l-0.4,0.4c-0.1,0.1-0.1,0.4-0.1,0.5c0,0.4,0.1,0.5,0.3,0.6
	c0.3,0.3,0.6,0.4,1.1,0.6c0.5,0.1,1,0.4,1.7,0.5c0.6,0.3,1.3,0.5,1.8,0.8c0.6,0.4,1,0.9,1.5,1.4c0.4,0.6,0.6,1.4,0.6,2.4
	C71.9,52.6,71.7,53.5,71.3,54.1z"/>
</svg>
