<?xml version="1.0" encoding="utf-8"?>
<!-- Generator: Adobe Illustrator 21.0.2, SVG Export Plug-In . SVG Version: 6.00 Build 0)  -->
<svg version="1.1" id="Layer_1"
    xmlns="http://www.w3.org/2000/svg"
    xmlns:xlink="http://www.w3.org/1999/xlink" x="0px" y="0px"
	 width="100px" height="100px" viewBox="0 0 100 100" enable-background="new 0 0 100 100" xml:space="preserve">
    <path fill="#FFFFFF" d="M78.2,34.3h-7.9l3.4-13c0-0.1,0-0.2,0-0.3c0-0.5-0.4-1-1-1h-6.3c-0.5,0-0.9,0.4-1,0.8L62,34.3H46.2l3.4-13
	c0-0.1,0-0.2,0-0.3c0-0.5-0.4-1-1-1h-6.3c-0.5,0-0.9,0.4-1,0.8l-3.5,13.4h-8.8c-0.5,0-0.8,0.3-1,0.7l-1.6,6c0,0.1,0,0.2,0,0.2
	c0,0.5,0.4,1,1,1h8.3l-3.9,15.2h-8.5c-0.5,0-0.8,0.3-1,0.7l-1.6,6c0,0.1,0,0.2,0,0.2c0,0.5,0.4,1,1,1h8l-3.4,13.2c0,0.1,0,0.2,0,0.2
	c0,0.5,0.4,1,1,1h6.3c0.5,0,0.9-0.3,1-0.8l3.5-13.7h15.7l-3.4,13.2c0,0.1,0,0.2,0,0.2c0,0.5,0.4,1,1,1h6.3c0.5,0,0.9-0.3,1-0.8
	l3.5-13.7h8.7c0.5,0,0.9-0.3,1-0.8l1.6-6c0-0.1,0-0.2,0-0.2c0-0.5-0.4-1-1-1h-8.2l3.9-15.2h8.4c0.5,0,0.9-0.3,1-0.8l1.6-6
	c0-0.1,0-0.2,0-0.2C79.2,34.7,78.7,34.3,78.2,34.3z M56,57.5H40.2l3.9-15.2h15.7L56,57.5z"/>
</svg>
