<svg xmlns="http://www.w3.org/2000/svg" width="100" height="100" viewBox="0 0 100 100"><path d="M67.96,20.22H23.69c-.43,.01-.83,.19-1.14,.5-.3,.31-.48,.73-.49,1.17v5.55c.01,.44,.19,.86,.49,1.17,.3,.31,.71,.49,1.14,.5h44.27c.42-.01,.83-.19,1.13-.5s.47-.73,.49-1.16v-5.55c-.01-.44-.18-.86-.48-1.17-.3-.31-.7-.49-1.13-.5Zm-34.55,13.33h-9.72c-.43,.01-.83,.19-1.14,.5-.3,.31-.48,.73-.49,1.17v3.33c.01,.44,.19,.86,.49,1.17,.3,.31,.71,.49,1.14,.5h9.72c.42-.01,.83-.19,1.13-.5,.3-.31,.47-.73,.49-1.16v-3.33c-.01-.44-.18-.86-.48-1.17-.3-.31-.7-.49-1.13-.5Zm17.27,0h-9.71c-.43,0-.84,.19-1.14,.5-.3,.31-.48,.73-.49,1.17v3.33c.01,.44,.19,.86,.49,1.17,.3,.31,.71,.49,1.14,.5h9.71c.43,0,.83-.19,1.14-.5,.3-.31,.48-.73,.49-1.17v-3.33c0-.44-.18-.86-.49-1.17-.3-.31-.71-.49-1.14-.5Zm17.28,0h-9.73c-.43,.01-.83,.19-1.13,.5-.3,.31-.47,.73-.48,1.17v3.33c.01,.44,.18,.85,.49,1.16,.3,.31,.71,.49,1.13,.5h9.73c.42-.01,.83-.19,1.13-.5,.3-.31,.47-.73,.49-1.16v-3.33c-.01-.44-.18-.86-.48-1.17-.3-.31-.7-.49-1.13-.5Zm-34.55,11.11h-9.72c-.43,0-.84,.19-1.14,.5-.3,.31-.48,.73-.49,1.17v3.33c.01,.44,.19,.85,.49,1.16,.3,.31,.71,.49,1.13,.5h9.72c.42-.01,.83-.19,1.13-.5,.3-.31,.47-.72,.49-1.16v-3.33c0-.44-.18-.86-.48-1.17-.3-.31-.71-.49-1.13-.5Zm17.27,0h-9.71c-.43,0-.84,.19-1.14,.5-.3,.31-.48,.73-.49,1.17v3.33c.01,.44,.19,.86,.49,1.17,.3,.31,.71,.49,1.14,.5h9.71c.43,0,.83-.19,1.14-.5,.3-.31,.48-.73,.49-1.17v-3.33c0-.44-.18-.86-.49-1.17-.3-.31-.71-.49-1.14-.5Zm17.28,0h-9.73c-.43,.01-.83,.19-1.13,.5-.3,.31-.47,.73-.48,1.17v3.33c.01,.44,.19,.85,.49,1.16,.3,.31,.7,.49,1.13,.5h9.73c.42-.01,.83-.19,1.13-.5,.3-.31,.47-.72,.49-1.16v-3.33c0-.44-.18-.86-.48-1.17-.3-.31-.71-.49-1.13-.5Zm-34.55,11.11h-9.72c-.43,.01-.83,.19-1.14,.5-.3,.31-.48,.73-.49,1.17v3.33c.01,.44,.19,.86,.49,1.17,.3,.31,.71,.49,1.14,.5h9.72c.42-.01,.83-.19,1.13-.5,.3-.31,.47-.73,.49-1.16v-3.33c-.01-.44-.18-.86-.48-1.17-.3-.31-.7-.49-1.13-.5Zm0,11.11h-9.72c-.43,.01-.83,.19-1.13,.5-.3,.31-.48,.73-.49,1.16v3.34c.01,.44,.19,.86,.49,1.17,.3,.31,.71,.49,1.14,.5h9.72c.42-.01,.83-.19,1.13-.5,.3-.31,.47-.73,.49-1.16v-3.34c-.01-.44-.19-.85-.49-1.16-.3-.31-.7-.49-1.13-.5Zm40.91-11.48h-31.54c-2,0-3.62,1.62-3.62,3.62v17.58c0,2,1.62,3.62,3.62,3.62h31.54c2,0,3.62-1.62,3.62-3.62v-17.58c0-2-1.62-3.62-3.62-3.62Zm-27.28,21.2c0-2.39-1.87-4.27-4.27-4.27v-9.05c2.39,0,4.27-1.87,4.27-4.27h23.01c0,2.39,1.87,4.27,4.27,4.27v9.05c-2.39,0-4.27,1.87-4.27,4.27h-23.01Zm17.58-9.11c0,3.36-2.72,6.08-6.08,6.08s-6.08-2.72-6.08-6.08,2.72-6.08,6.08-6.08,6.08,2.72,6.08,6.08Z" fill="#fff" fill-rule="evenodd"/></svg>