<svg xmlns="http://www.w3.org/2000/svg" x="0px" y="0px"
	 width="100px" height="100px" viewBox="0 0 100 100" enable-background="new 0 0 100 100" xml:space="preserve">
<g>
	<path fill="#FFFFFF" d="M77.3,45.5h-5.5v-6.3c0-8.3-4.7-15.5-11.5-19.2v10.9c0,5.6-4.6,10.2-10.2,10.2c-5.6,0-10.2-4.6-10.2-10.2
		V19.9c-7,3.6-11.8,10.9-11.8,19.4v6.3h-5.5c-1.5,0-2.8,1.2-2.8,2.8v0.5c0,1.5,1.2,2.8,2.8,2.8h54.6c1.5,0,2.8-1.2,2.8-2.8v-0.5
		C80.1,46.8,78.8,45.5,77.3,45.5z"/>
	<path fill="#FFFFFF" d="M50.1,35.1c2.3,0,4.2-1.9,4.2-4.2V17.8c-1.4-0.3-2.8-0.4-4.3-0.4c-1.4,0-2.7,0.1-4,0.4v13.1
		C46,33.2,47.8,35.1,50.1,35.1z"/>
</g>
<path fill="#FFFFFF" d="M50,82.6c-12.7,0-23-11.3-23-25.1h6c0,10.5,7.6,19.1,17,19.1S67,68,67,57.5h6C73,71.3,62.7,82.6,50,82.6z"/>
</svg>
