<svg xmlns="http://www.w3.org/2000/svg" viewBox="0 0 512 512" class="ionicon"><ellipse cx="373.14" cy="219.33" rx="46.29" ry="46" fill="none"/><path d="M80 132v328a20 20 0 0 0 20 20h392a20 20 0 0 0 20-20V132a20 20 0 0 0-20-20H100a20 20 0 0 0-20 20m293.14 41.33a46 46 0 1 1-46.28 46 46.19 46.19 0 0 1 46.28-46m-261.41 276v-95.48l122.76-110.2L328.27 337l-113 112.33Zm368.27 0H259l144.58-144L480 370.59Z"/><path d="M20 32A20 20 0 0 0 0 52v344a20 20 0 0 0 20 20h28V100a20 20 0 0 1 20-20h380V52a20 20 0 0 0-20-20Z"/></svg>