<svg xmlns="http://www.w3.org/2000/svg" viewBox="0 0 512 512" class="ionicon"><path d="M246.4 480a181 181 0 0 0 3.22-22.86c.35-4.61.53-9.31.53-14 0-100-81.34-181.32-181.32-181.32A181.7 181.7 0 0 0 32 265.61 224.2 224.2 0 0 0 246.4 480"/><path d="M284.63 227.37A222.73 222.73 0 0 1 219 68.83a227 227 0 0 1 2.62-34.42A224.41 224.41 0 0 0 34.41 221.58 227 227 0 0 1 68.83 219a222.73 222.73 0 0 1 158.54 65.67A222.73 222.73 0 0 1 293 443.17c0 5.74-.22 11.54-.65 17.23s-1.11 11.51-2 17.2a224.42 224.42 0 0 0 187.24-187.18 227 227 0 0 1-34.42 2.58 222.73 222.73 0 0 1-158.54-65.63"/><path d="M443.17 250.15a181.7 181.7 0 0 0 36.83-3.76A224.2 224.2 0 0 0 265.61 32a181.7 181.7 0 0 0-3.76 36.83c0 99.98 81.34 181.32 181.32 181.32"/></svg>