<svg xmlns="http://www.w3.org/2000/svg" viewBox="0 0 512 512" class="ionicon"><path d="M96 416a16 16 0 0 1-14.3-23.16l24-48a16 16 0 0 1 28.62 14.32l-24 48A16 16 0 0 1 96 416M120 480a16 16 0 0 1-14.3-23.16l16-32a16 16 0 0 1 28.62 14.32l-16 32A16 16 0 0 1 120 480M376 416a16 16 0 0 1-14.3-23.16l24-48a16 16 0 0 1 28.62 14.32l-24 48A16 16 0 0 1 376 416M400 480a16 16 0 0 1-14.3-23.16l16-32a16 16 0 0 1 28.62 14.32l-16 32A16 16 0 0 1 400 480"/><path d="M405.84 136.9a151.25 151.25 0 0 0-47.6-81.9 153 153 0 0 0-241.81 51.86C60.5 110.16 16 156.65 16 213.33 16 272.15 63.91 320 122.8 320h66.31l-12.89 77.37A16 16 0 0 0 192 416h32v64a16 16 0 0 0 29 9.3l80-112a16 16 0 0 0-13-25.3h-27.51l8-32h103.84a91.56 91.56 0 0 0 1.51-183.1"/></svg>