<svg xmlns="http://www.w3.org/2000/svg" width="16" height="16" fill="currentColor" class="bi bi-wrench-adjustable-cricle" viewBox="0 0 16 16">
  <path fill-rule="evenodd" d="M15 8a7 7 0 0 1-10.253 6.2l1.658-1.99a4.49 4.49 0 0 0 1.592.29c.652 0 1.273-.139 1.833-.39L8.497 9l-1-2.5 3.826-1.53a4.5 4.5 0 0 0-7.537 4.623l-1.988 1.656A7 7 0 1 1 15 8Zm1 0A8 8 0 1 1 0 8a8 8 0 0 1 16 0Zm-3.504 0a4.491 4.491 0 0 1-1.703 3.526L9.497 8.5l2.959-1.11c.027.2.04.403.04.61Zm-5.791.139a.25.25 0 0 0-.288-.376l-1.5.5.159.474.808-.27-.595.894a.25.25 0 0 0 .287.376l.808-.27-.595.894a.25.25 0 0 0 .287.376l1.5-.5-.159-.474-.808.27.596-.894a.25.25 0 0 0-.288-.376l-.808.27.596-.894Z"/>
</svg>