<svg xmlns="http://www.w3.org/2000/svg" width="16" height="16" fill="currentColor" class="bi bi-wrench-adjustable-circle-fill" viewBox="0 0 16 16">
  <path fill-rule="evenodd" d="M8 16A8 8 0 1 0 8 0a8 8 0 0 0 0 16Zm-6.202-4.751a7.031 7.031 0 0 0 2.949 2.95l1.658-1.989a4.49 4.49 0 0 0 1.592.29c.652 0 1.273-.139 1.833-.39L8.497 9l-1-2.5 3.826-1.53a4.5 4.5 0 0 0-7.537 4.623l-1.988 1.656ZM12.496 8a4.491 4.491 0 0 1-1.703 3.526L9.497 8.5l2.959-1.11c.027.2.04.403.04.61Zm-5.791.139a.25.25 0 0 0-.288-.376l-1.5.5.159.474.808-.27-.595.894a.25.25 0 0 0 .287.376l.808-.27-.595.894a.25.25 0 0 0 .287.376l1.5-.5-.159-.474-.808.27.596-.894a.25.25 0 0 0-.288-.376l-.808.27.596-.894Z"/>
</svg>