<?xml version="1.0" encoding="utf-8"?>
<svg xmlns="http://www.w3.org/2000/svg" width="24" height="24" viewBox="0 0 24 24">
    <g id="bold-arab-ain">
        <path id="arab-ain" d="M9.337 13.616c0 1.349 1.386 2.101 4.159 2.258l2.187-.029.318.044c-.03.127-.251.345-.665.652l-.089.066c-1.236.929-2.423 1.393-3.56 1.393-1.143 0-2.046-.33-2.711-.99-.65-.66-.975-1.559-.975-2.698.005-1.354.566-2.573 1.684-3.658v-.044l-.606-.55c-.148-.181-.222-.391-.222-.63 0-.489.239-1.109.717-1.862.65-1.046 1.303-1.566 1.958-1.561.886.005 1.618.42 2.194 1.246.325.479-.03.552-1.064.22-.842-.327-1.527-.051-2.054.828l.015.073 1.123.865.052.007c1.404-.498 2.418-.74 3.043-.726-.059.117-.14.362-.244.733-.103.357-.204.684-.303.982l-.126.374-.384.051c-1.743.239-2.992.716-3.745 1.429-.463.464-.697.973-.702 1.525"/>
    </g>
</svg>
