<svg xmlns="http://www.w3.org/2000/svg" width="100" height="100" viewBox="0 0 100 100"><path d="M47.06,61.56a1.59,1.59,0,0,1-1.18-.51L30.68,45.88a1.67,1.67,0,0,1-.51-1.19,1.64,1.64,0,0,1,.51-1.18L33.05,41a1.63,1.63,0,0,1,2.37,0l6.3,6.3a1.12,1.12,0,0,0,1.91-.79V22.69A1.73,1.73,0,0,1,45.32,21h3.37a2,2,0,0,1,1.8,1.68v24a1.12,1.12,0,0,0,.7,1,1.11,1.11,0,0,0,1.22-.24l6.3-6.3a1.63,1.63,0,0,1,1.18-.5,1.65,1.65,0,0,1,1.18.5l2.35,2.37a1.63,1.63,0,0,1,0,2.37L48.24,61.05A1.6,1.6,0,0,1,47.06,61.56Zm5,6.65A15.84,15.84,0,0,0,54.14,75H24.5A4.49,4.49,0,0,1,20,70.5V55.27a1.73,1.73,0,0,1,1.69-1.68h3.39a1.72,1.72,0,0,1,1.68,1.68V66.53a1.72,1.72,0,0,0,1.68,1.68ZM56,67A12,12,0,1,1,68,79,12,12,0,0,1,56,67Zm19.52-2.81-8.07,8.08a1.46,1.46,0,0,1-2.15,0l-3.9-3.91a.69.69,0,0,1,0-1.07l1.07-1.08a.71.71,0,0,1,1.08,0L66.37,69l6.93-6.93a.7.7,0,0,1,1.08,0l1.07,1.08A.66.66,0,0,1,75.52,64.19Z" fill="#fff" fill-rule="evenodd"/></svg>