<svg viewBox="0 0 24 24" xmlns="http://www.w3.org/2000/svg"><path d="M20.9744 16.1635C20.6888 17.0545 20.199 17.5 19.5048 17.5C18.6273 17.5 17.7647 16.9735 16.917 15.9206C16.3283 15.1893 15.5026 13.7996 14.44 11.7515C13.984 10.8723 13.5611 10.0959 13.1714 9.42225C13.4809 8.93372 13.757 8.54177 13.9998 8.24641C14.957 7.08214 15.9587 6.5 17.0048 6.5C17.8397 6.5 18.635 7.03584 19.3907 8.10753C20.1673 9.20896 20.7114 10.5694 21.0228 12.1888C21.3292 13.782 21.3131 15.1069 20.9744 16.1635ZM12.0049 11.4296C12.2149 11.8151 12.4349 12.2294 12.6647 12.6725C13.7887 14.839 14.6869 16.3397 15.3591 17.1748C16.6071 18.7249 17.989 19.5 19.5048 19.5C20.3608 19.5 21.0931 19.2297 21.7019 18.6892C22.2267 18.2233 22.6191 17.5849 22.879 16.774C23.3216 15.3931 23.3576 13.7388 22.9868 11.8112C22.6212 9.90978 21.9673 8.29105 21.0252 6.95497C19.8712 5.31832 18.531 4.5 17.0048 4.5C15.3288 4.5 13.8121 5.32543 12.4549 6.97628C12.3132 7.14862 12.1632 7.34668 12.0049 7.57046C11.8466 7.34668 11.6966 7.14862 11.5548 6.97628C10.1976 5.32543 8.68102 4.5 7.005 4.5C5.4788 4.5 4.13867 5.31833 2.98462 6.95498C2.04252 8.29105 1.38864 9.90977 1.02298 11.8112C0.652277 13.7388 0.688225 15.3931 1.13083 16.774C1.39074 17.5849 1.78309 18.2233 2.30788 18.6892C2.91672 19.2297 3.6491 19.5 4.50502 19.5C6.02087 19.5 7.40276 18.7249 8.65069 17.1748C9.32296 16.3397 10.2211 14.839 11.345 12.6726C11.575 12.2294 11.7949 11.8151 12.0049 11.4296ZM10.8384 9.42226C10.4487 10.0959 10.0258 10.8723 9.56972 11.7515C8.50715 13.7996 7.6815 15.1893 7.09279 15.9206C6.24514 16.9735 5.38255 17.5 4.50502 17.5C3.81084 17.5 3.32096 17.0545 3.03539 16.1635C2.69674 15.1069 2.6806 13.782 2.98699 12.1888C3.29843 10.5694 3.84248 9.20896 4.61913 8.10752C5.37481 7.03584 6.1701 6.5 7.005 6.5C8.05111 6.5 9.05277 7.08214 10.01 8.24641C10.2528 8.54176 10.5289 8.93371 10.8384 9.42226Z"/></svg>