<svg viewBox="0 0 24 24" xmlns="http://www.w3.org/2000/svg"><path d="M16.9197 4.5C15.0689 4.5 13.622 5.89404 12.3123 7.6649C10.5124 5.37323 9.00722 4.5 7.20593 4.5C3.53352 4.5 0.719727 9.27931 0.719727 14.3379C0.719727 17.5034 2.25116 19.5 4.81628 19.5C6.66249 19.5 7.99028 18.6296 10.3508 14.5034C10.3508 14.5034 11.3347 12.7658 12.0116 11.5689C12.2488 11.9518 12.4981 12.3639 12.7611 12.8069L13.868 14.669C16.0242 18.2772 17.2256 19.5 19.4025 19.5C21.9014 19.5 23.2921 17.4761 23.2921 14.2448C23.2921 8.94828 20.4149 4.5 16.9197 4.5ZM8.55076 13.3862C6.63697 16.3862 5.9749 17.0586 4.90938 17.0586C3.81283 17.0586 3.16111 16.0959 3.16111 14.3793C3.16111 10.7069 4.99214 6.95172 7.1749 6.95172C8.35692 6.95172 9.34471 7.63438 10.8577 9.80042C9.42105 12.0041 8.55076 13.3862 8.55076 13.3862ZM15.7737 13.0085L14.4502 10.8013C14.0921 10.2188 13.7489 9.6836 13.4177 9.19286C14.6105 7.35183 15.5944 6.43448 16.7646 6.43448C19.1956 6.43448 21.1404 10.0138 21.1404 14.4103C21.1404 16.0862 20.5915 17.0586 19.4542 17.0586C18.3641 17.0586 17.8434 16.3387 15.7737 13.0085Z"/></svg>