<svg viewBox="0 0 24 24" xmlns="http://www.w3.org/2000/svg"><path d="M10.99 1.97382C13.9093 0.113875 17.947 0.981141 19.9913 3.90708C20.4765 4.58613 20.8221 5.35525 21.006 6.1693C21.1898 6.98334 21.2092 7.82592 21.063 8.64757C20.9214 9.43214 20.6222 10.1799 20.1836 10.8456C20.8234 12.0666 21.0379 13.4661 20.793 14.8226C20.6485 15.6281 20.3376 16.3945 19.8801 17.0729C19.4225 17.7513 18.8284 18.3268 18.1357 18.7625L13.0086 22.0302C10.0897 23.8908 6.05178 23.0233 4.00745 20.097C3.52241 19.4179 3.17783 18.6488 2.99394 17.8347C2.81004 17.0207 2.79053 16.1782 2.93654 15.3565C3.07828 14.5718 3.37766 13.824 3.81658 13.1583C3.17613 11.9376 2.96114 10.5381 3.20565 9.18145C3.35026 8.37593 3.6614 7.60945 4.11916 6.93104C4.57692 6.25263 5.17122 5.67721 5.86406 5.2416L10.99 1.97382ZM8.04892 20.2493C8.8306 20.5391 9.68237 20.582 10.4892 20.3722C10.8578 20.2737 11.2092 20.1193 11.531 19.9144L16.6586 16.6478C17.0751 16.3857 17.4323 16.0396 17.7075 15.6316C17.9827 15.2237 18.1697 14.7628 18.2567 14.2784C18.3445 13.7843 18.3327 13.2777 18.2221 12.7883C18.1115 12.2988 17.9043 11.8364 17.6125 11.4281C17.1374 10.7431 16.4635 10.2205 15.6818 9.93072C14.9002 9.64096 14.0484 9.59805 13.2416 9.80779C12.873 9.90616 12.5216 10.0605 12.1998 10.2654L10.2435 11.5121C10.1463 11.5736 10.0402 11.62 9.929 11.6497C9.68583 11.7127 9.42916 11.6997 9.19365 11.6122C8.95813 11.5248 8.75511 11.3672 8.61198 11.1608C8.52418 11.0376 8.46182 10.8982 8.42855 10.7506C8.39527 10.603 8.39174 10.4503 8.41816 10.3014C8.44437 10.1555 8.50072 10.0167 8.58361 9.89384C8.6665 9.77097 8.77411 9.66675 8.89956 9.58783L14.0279 6.31946C14.1251 6.25784 14.2312 6.21144 14.3424 6.18186C14.5855 6.11864 14.8422 6.13159 15.0777 6.21895C15.3133 6.30631 15.5163 6.46387 15.6594 6.67034C15.816 6.89212 15.8893 7.16211 15.8662 7.43264L15.8485 7.62292L16.0392 7.68071C16.7597 7.89825 17.4378 8.23729 18.0442 8.68322L18.3068 8.87566L18.4033 8.5808C18.455 8.42423 18.496 8.26431 18.526 8.10215C18.6137 7.6081 18.602 7.1015 18.4913 6.61206C18.3807 6.12262 18.1735 5.66019 17.8818 5.25189C17.4066 4.56692 16.7327 4.04427 15.951 3.75451C15.1693 3.46475 14.3175 3.42184 13.5107 3.63157C13.1421 3.73014 12.7908 3.88453 12.4689 4.08938L7.34135 7.35696C6.92461 7.61876 6.56709 7.96465 6.29167 8.37252C6.01625 8.78039 5.82899 9.24125 5.74186 9.72563C5.65406 10.2197 5.66581 10.7263 5.77643 11.2157C5.88704 11.7052 6.09429 12.1676 6.38602 12.5759C6.8612 13.2609 7.53514 13.7835 8.31683 14.0733C9.09852 14.3631 9.9503 14.406 10.7571 14.1962C11.1257 14.0977 11.477 13.9436 11.799 13.739L13.7554 12.4918C13.8527 12.4302 13.9587 12.3838 14.0699 12.3542C14.3131 12.2911 14.5698 12.3041 14.8053 12.3915C15.0408 12.479 15.2439 12.6366 15.387 12.843C15.4748 12.9662 15.5371 13.1056 15.5705 13.2531C15.6038 13.4006 15.6075 13.5533 15.5812 13.7022C15.5548 13.8481 15.4984 13.987 15.4154 14.1099C15.3325 14.2327 15.2249 14.337 15.0994 14.416L9.97244 17.6842C9.87522 17.7458 9.76916 17.7922 9.65793 17.8218C9.4148 17.885 9.15811 17.8721 8.92257 17.7847C8.68703 17.6973 8.48399 17.5398 8.34091 17.3333C8.18411 17.1118 8.11078 16.842 8.13392 16.5716L8.15142 16.3813L7.96094 16.3235C7.24041 16.1059 6.56232 15.7669 5.95593 15.321L5.69311 15.1282L5.5966 15.423C5.54476 15.5795 5.50384 15.7395 5.47413 15.9017C5.38636 16.3957 5.3981 16.9023 5.50868 17.3917C5.61926 17.8812 5.82645 18.3436 6.1181 18.7519C6.59329 19.4369 7.26723 19.9595 8.04892 20.2493Z"/></svg>