<svg viewBox="0 0 24 24" xmlns="http://www.w3.org/2000/svg"><path d="M19.8001 3.77059C17.9455 0.859391 14.082 0.00287873 11.1708 1.85752L6.11044 5.08132C3.23141 6.91546 2.36191 10.7143 4.13686 13.6138C2.93471 15.5855 2.87555 18.1499 4.20064 20.2298C6.05528 23.141 9.91876 23.9975 12.83 22.1429L17.8903 18.9191C20.7693 17.085 21.6388 13.2862 19.8639 10.3867C21.0656 8.41567 21.1254 5.85095 19.8001 3.77059ZM18.448 8.7745C17.6282 8.11563 16.6628 7.68311 15.6505 7.49875C15.6882 7.26522 15.6437 7.01748 15.5066 6.80226C15.2099 6.33647 14.5917 6.19943 14.1259 6.49617L9.06558 9.71997C8.59979 10.0167 8.46275 10.6349 8.75949 11.1007C9.05623 11.5665 9.67439 11.7035 10.1402 11.4068L12.2487 10.0635C14.2283 8.80235 16.8554 9.38478 18.1166 11.3644C19.3778 13.344 18.7953 15.9712 16.8157 17.2323L11.7554 20.4561C9.77574 21.7173 7.14858 21.1349 5.88742 19.1552C5.11002 17.935 5.03292 16.4674 5.55276 15.2259C6.37258 15.8848 7.33791 16.3173 8.35026 16.5017C8.31252 16.7352 8.35701 16.983 8.49412 17.1982C8.79086 17.664 9.40902 17.801 9.87481 17.5043L14.9352 14.2805C15.401 13.9837 15.538 13.3656 15.2413 12.8998C14.9445 12.434 14.3264 12.2969 13.8606 12.5937L11.7521 13.9369C9.77247 15.1981 7.1453 14.6157 5.88415 12.636C4.62299 10.6564 5.20542 8.02925 7.18504 6.7681L12.2454 3.5443C14.225 2.28315 16.8522 2.86557 18.1133 4.84519C18.8906 6.06522 18.9681 7.53265 18.448 8.7745Z"/></svg>