<svg xmlns="http://www.w3.org/2000/svg" x="0px" y="0px"
	 width="100px" height="100px" viewBox="0 0 100 100" enable-background="new 0 0 100 100" xml:space="preserve">
<g>
	<path fill="#FFFFFF" d="M42.4,50h29.5c0.899,0,1.699-0.6,1.899-1.5l5.4-19C79.6,28.2,78.6,27,77.3,27H31.7l-0.8-2.8
		C30.5,22.9,29.3,22,28,22h-4.8c-1.6,0-3.1,1.2-3.2,2.8c-0.1,1.7,1.3,3.2,3,3.2h2.8l9.4,31.8c0.4,1.3,1.5,2.2,2.9,2.2h34.8
		c1.6,0,3.1-1.2,3.199-2.8c0.101-1.7-1.3-3.2-3-3.2H42.5c-1.3,0-2.5-0.9-2.8-2.1V53.8C39,51.9,40.5,50,42.4,50z"/>
	<circle fill="#FFFFFF" cx="43" cy="73" r="5"/>
	<circle fill="#FFFFFF" cx="67" cy="73" r="5"/>
</g>
</svg>
