<?xml version="1.0" encoding="UTF-8"?><svg xmlns="http://www.w3.org/2000/svg" width="20" height="20" viewBox="0 0 20 20"><g fill="#36c"><title>image locked</title><path d="M8 9V5a1 1 0 0 0-1-1h-.5V2.5A2.45 2.45 0 0 0 4 0a2.45 2.45 0 0 0-2.5 2.5V4H1a1 1 0 0 0-1 1v4a1 1 0 0 0 1 1h6a1 1 0 0 0 1-1zM4 8a1 1 0 1 1 1-1 1 1 0 0 1-1 1zm1.5-4h-3V2.75C2.5 2 2.5 1 4 1s1.5 1 1.5 1.75zM18 6h-8v4a2 2 0 0 1-2 2H2v6a2 2 0 0 0 2 2h14a2 2 0 0 0 2-2V8a2 2 0 0 0-2-2zM4 17l3.54-4.5 2.53 3 3.54-4.5 4.56 6z"/></g></svg>