<?xml version="1.0" encoding="UTF-8"?><svg xmlns="http://www.w3.org/2000/svg" width="20" height="20" viewBox="0 0 20 20"><g fill="#fff"><title>map trail</title><path d="M20 6l-1-1-1.5 1.5L16 5l-1 1 1.5 1.5L15 9l1 1 1.5-1.5L19 10l1-1-1.5-1.5L20 6zm-9 8.5A3.54 3.54 0 0 1 7.5 18a3.5 3.5 0 0 1 0-7 3.54 3.54 0 0 1 3.5 3.5z"/><circle cx="7" cy="3" r="2"/><circle cx="13" cy="7" r="1"/><circle cx="10" cy="6" r="1"/><circle cx="3" cy="3" r="1"/><circle cx="1" cy="6" r="1"/><circle cx="1" cy="9" r="1"/><circle cx="3" cy="12" r="1"/></g></svg>