<?xml version="1.0" encoding="UTF-8"?><svg xmlns="http://www.w3.org/2000/svg" width="20" height="20" viewBox="0 0 20 20"><g fill="#fff"><title>search diacritics</title><path d="M5.31 7.87a7.27 7.27 0 0 1 5.13-2 5.06 5.06 0 0 1 1.95.35 3.91 3.91 0 0 1 1.43 1 4.44 4.44 0 0 1 .88 1.54 6.05 6.05 0 0 1 .3 2v8.04h-1.2a1.18 1.18 0 0 1-.58-.12.91.91 0 0 1-.34-.48l-.26-1a11.5 11.5 0 0 1-1 .78 6 6 0 0 1-1 .58 4.81 4.81 0 0 1-1.08.35 6.39 6.39 0 0 1-1.21.09 4.72 4.72 0 0 1-1.44-.21 3.14 3.14 0 0 1-1.15-.64A3 3 0 0 1 5 17.08a3.67 3.67 0 0 1-.28-1.49 2.89 2.89 0 0 1 .39-1.43 3.58 3.58 0 0 1 1.29-1.25A8.37 8.37 0 0 1 8.76 12a17.22 17.22 0 0 1 3.64-.41v-.85a3 3 0 0 0-.59-2A2.15 2.15 0 0 0 10.1 8a3.77 3.77 0 0 0-1.29.19 5.87 5.87 0 0 0-.91.42L7.21 9a1.15 1.15 0 0 1-.63.19.76.76 0 0 1-.47-.14 1.17 1.17 0 0 1-.32-.36zm6.2-5.8a.83.83 0 0 0 .62-.23 1.11 1.11 0 0 0 .24-.77H14a3.75 3.75 0 0 1-.17 1.18 2.74 2.74 0 0 1-.49.91 2.19 2.19 0 0 1-.76.59 2.27 2.27 0 0 1-1 .2 2 2 0 0 1-.82-.17 6.55 6.55 0 0 1-.72-.37L9.43 3a1.16 1.16 0 0 0-.56-.17.8.8 0 0 0-.62.24A1.12 1.12 0 0 0 8 3.9H6.37a3.67 3.67 0 0 1 .18-1.18A2.81 2.81 0 0 1 7 1.8a2.25 2.25 0 0 1 .76-.59 2.22 2.22 0 0 1 1-.21 2.06 2.06 0 0 1 .83.17 6.42 6.42 0 0 1 .72.37l.69.36a1.12 1.12 0 0 0 .51.17zm.9 11.18a17 17 0 0 0-2.42.23 6.87 6.87 0 0 0-1.59.46 2.1 2.1 0 0 0-.88.67 1.45 1.45 0 0 0-.27.85 1.85 1.85 0 0 0 .14.77 1.39 1.39 0 0 0 .4.52 1.6 1.6 0 0 0 .6.3 2.85 2.85 0 0 0 .75.09 3.84 3.84 0 0 0 1.8-.39 5.61 5.61 0 0 0 1.46-1.14z"/></g></svg>