<svg viewBox="0 0 24 24" xmlns="http://www.w3.org/2000/svg"><path d="M12 2C6.47715 2 2 6.47715 2 12 2 17.5228 6.47715 22 12 22 17.5228 22 22 17.5228 22 12H20C20 16.4183 16.4183 20 12 20 7.58172 20 4 16.4183 4 12 4 7.58172 7.58172 4 12 4 14.4639 4 16.6676 5.11383 18.1351 6.86543L16.1384 8.86165C15.6996 8.48063 15.1267 8.25 14.5 8.25 13.1193 8.25 12 9.36929 12 10.75V13.25C12 14.6307 13.1193 15.75 14.5 15.75 15.8807 15.75 17 14.6307 17 13.25V10.75C17 10.0686 16.7274 9.45094 16.2854 9H22V3L19.5534 5.44648C17.72 3.33509 15.0159 2 12 2ZM15.5 10.75V13.25C15.5 13.8023 15.0523 14.25 14.5 14.25 13.9477 14.25 13.5 13.8023 13.5 13.25V10.75C13.5 10.1977 13.9477 9.75 14.5 9.75 15.0523 9.75 15.5 10.1977 15.5 10.75ZM10 8.5H8.5V15.5H10V8.5Z"/></svg>