<?xml version="1.0" standalone="no"?>
<!DOCTYPE svg PUBLIC "-//W3C//DTD SVG 1.1//EN" "http://www.w3.org/Graphics/SVG/1.1/DTD/svg11.dtd" >
<svg xmlns="http://www.w3.org/2000/svg">
<metadata>Generated by IcoMoon</metadata>
<defs>
<font id="Lyfeicons" horiz-adv-x="2048">
<font-face units-per-em="2048" ascent="1740.8" descent="-307.2" />
<missing-glyph horiz-adv-x="2048" />
<glyph unicode="&#x20;" d="" horiz-adv-x="1024" />
<glyph unicode="&#xe000;" d="M1792 863.872h-672v672h-192v-672h-672v-192h672v-672h192v672h672z" />
<glyph unicode="&#xe001;" d="M256 863.872h1536v-192h-1536v192z" />
<glyph unicode="&#xe002;" d="M1645.632 1243.072l-135.744 135.744-475.2-475.2-475.2 475.2-135.744-135.744 475.2-475.2-475.2-475.2 135.744-135.744 475.2 475.2 475.2-475.2 135.744 135.744-475.2 475.2z" />
<glyph unicode="&#xe003;" d="M1744.576 1123.136l-135.744 135.744-831.616-831.68-338.048 337.92-135.744-135.744 475.008-472.512z" />
<glyph unicode="&#xe004;" d="M1707.514 1470.414l162.396-162.442-1225.3-1224.954-162.396 162.442 1225.3 1224.954zM1564.56 1613.266l81.232-81.232-1225.128-1225.128-81.232 81.232 1225.128 1225.128zM590.848 33.344l-412.544-110.592 110.528 412.672z" />
<glyph unicode="&#xe005;" d="M255.872 863.872h1536v-192h-1536v192zM255.872 192h1536v-192h-1536v192zM255.872 1535.872h1536v-192h-1536v192z" />
<glyph unicode="&#xe006;" d="M1615.296 948.736c-8.192 19.776-17.344 38.848-27.2 57.28l96.32 202.624c-45.312 59.264-97.6 111.488-155.584 155.712l-202.752-96.32c-37.248 19.904-76.352 36.096-116.864 48.384l-75.136 211.456c-72.256 9.728-146.112 9.792-220.096-0.128l-75.136-211.328c-20.032-6.080-39.936-13.056-59.712-21.248s-38.784-17.344-57.344-27.2l-202.56 96.256c-59.328-45.248-111.488-97.472-155.712-155.52l96.32-202.752c-19.968-37.248-36.096-76.416-48.384-116.864l-211.52-75.264c-9.728-72.256-9.728-146.112 0.128-220.096l211.328-75.136c6.080-20.032 13.12-39.872 21.248-59.648 8.192-19.776 17.344-38.848 27.2-57.28l-96.32-202.624c45.376-59.328 97.6-111.488 155.584-155.776l202.752 96.384c37.248-19.904 76.352-36.096 116.864-48.384l75.2-211.52c72.32-9.728 146.112-9.728 220.096 0.128l75.136 211.328c20.032 6.080 40.064 13.12 59.84 21.312 19.776 8.128 38.72 17.344 57.216 27.136l202.56-96.256c59.328 45.248 111.552 97.536 155.776 155.52l-96.384 202.752c19.968 37.248 36.096 76.416 48.384 116.864l211.52 75.264c9.728 72.256 9.792 146.048-0.128 220.096l-211.328 75.136c-6.080 20.096-13.184 40-21.312 59.712zM1195.52 289.984c-228.672-94.72-490.688 13.888-585.344 242.432s13.824 490.688 242.496 585.344c228.544 94.656 490.56-13.952 585.28-242.496s-13.888-490.624-242.432-585.28z" />
<glyph unicode="&#xe007;" d="M1177.728 1096.512c-6.144 14.848-12.928 29.12-20.352 42.944l72.192 151.808c-33.92 44.352-73.152 83.52-116.544 116.608l-151.872-72.192c-27.968 14.912-57.28 27.072-87.552 36.288l-56.384 158.464c-54.144 7.232-109.44 7.296-164.864-0.128l-56.32-158.336c-15.040-4.544-29.952-9.792-44.8-15.936-14.72-6.144-29.056-12.928-42.88-20.352l-151.808 72.128c-44.416-33.92-83.52-73.088-116.608-116.48l72.192-151.936c-14.976-27.904-27.136-57.28-36.224-87.488l-158.528-56.448c-7.296-54.144-7.296-109.44 0.128-164.864l158.336-56.32c4.544-14.976 9.792-29.888 15.936-44.672s12.928-29.056 20.352-42.88l-72.192-151.808c33.984-44.416 73.152-83.52 116.544-116.608l151.872 72.192c27.968-14.912 57.28-27.136 87.552-36.288l56.384-158.464c54.208-7.296 109.44-7.296 164.864 0.064l56.32 158.4c14.976 4.544 30.016 9.792 44.8 15.936s29.056 12.928 42.816 20.352l151.808-72.192c44.416 33.856 83.584 73.152 116.672 116.48l-72.256 151.936c14.976 27.968 27.136 57.28 36.224 87.552l158.528 56.384c7.296 54.144 7.296 109.44-0.128 164.864l-158.336 56.384c-4.48 14.912-9.728 29.824-15.872 44.608zM863.232 603.008c-171.392-70.976-367.616 10.368-438.592 181.632s10.304 367.616 181.696 438.528c171.264 70.976 367.488-10.368 438.464-181.632s-10.304-367.68-181.568-438.528zM1898.432 303.68l-82.176 22.784c-13.952 51.264-40.704 97.152-76.992 133.76l21.312 82.496c-29.632 23.808-62.976 43.008-99.008 57.152l-60.992-59.904c-24.64 6.4-50.368 10.176-76.992 10.176s-52.352-3.84-76.992-10.176l-60.992 59.904c-36.032-14.144-69.376-33.344-99.008-57.152l21.312-82.496c-36.288-36.608-63.040-82.496-76.992-133.76l-82.176-22.784c-2.816-18.688-4.736-37.696-4.736-57.216s1.92-38.528 4.736-57.28l82.176-22.72c13.952-51.264 40.704-97.152 76.992-133.76l-21.312-82.496c29.632-23.808 62.976-43.008 99.008-57.152l60.992 59.904c24.64-6.464 50.368-10.24 76.992-10.24s52.352 3.84 76.992 10.24l60.992-59.904c36.032 14.144 69.376 33.344 99.008 57.152l-21.312 82.496c36.288 36.608 63.040 82.496 76.992 133.76l82.176 22.72c2.816 18.752 4.736 37.76 4.736 57.28s-1.92 38.528-4.736 57.216zM1523.584 69.376c-97.792 0-177.216 79.232-177.216 177.152 0 97.792 79.36 177.152 177.216 177.152s177.216-79.296 177.216-177.152c-0.064-97.92-79.424-177.152-177.216-177.152z" />
<glyph unicode="&#xe008;" d="M122.752 703.872c217.536-315.392 540.608-579.264 901.12-579.264s683.584 263.872 901.12 579.264c-217.536 315.456-540.608 579.328-901.12 579.328s-683.584-263.872-901.12-579.328zM247.616 653.696c187.328 269.056 465.344 439.552 776.256 439.552s588.928-170.496 776.256-439.552c-187.328-269.056-465.344-439.552-776.256-439.552s-588.928 170.496-776.256 439.552zM1023.872 930.24c-42.752 0-83.392-9.472-119.872-26.112 63.424-18.496 110.208-76.48 110.208-145.856 0-84.224-68.416-152.64-152.64-152.64-52.544 0-98.88 26.624-126.4 67.136-1.216-11.008-1.984-22.016-1.984-33.28 0-160.384 130.24-290.688 290.688-290.688s290.688 130.304 290.688 290.688c0 160.512-130.24 290.752-290.688 290.752z" />
<glyph unicode="&#xe009;" d="M1308.672 952.384h256v-256h-256v256zM1564.672 1720.384h256v-256h-256v256zM1308.672 1464.384h256v-256h-256v256zM1564.672 1208.384h256v-256h-256v256zM1917.568 183.424l-958.016-0.064c-133.888 0-267.776 51.136-369.92 153.28-204.224 204.288-204.224 535.488 0 739.84 71.872 71.936 159.552 117.632 251.84 138.688v-133.376l402.688 232.448-402.688 232.576v-154.048c-137.344-23.168-268.992-86.784-375.040-192.896-272.448-272.448-272.448-714.048 0-986.432 136.192-136.256 314.752-204.352 493.248-204.352v0.064h957.952v174.272z" />
<glyph unicode="&#xe00a;" d="M640 768c0-106.038-85.962-192-192-192s-192 85.962-192 192c0 106.038 85.962 192 192 192s192-85.962 192-192zM1216 768c0-106.038-85.962-192-192-192s-192 85.962-192 192c0 106.038 85.962 192 192 192s192-85.962 192-192zM1792 768c0-106.038-85.962-192-192-192s-192 85.962-192 192c0 106.038 85.962 192 192 192s192-85.962 192-192z" />
<glyph unicode="&#xe00b;" d="M1216 192c0-106.038-85.962-192-192-192s-192 85.962-192 192c0 106.038 85.962 192 192 192s192-85.962 192-192zM1216 768c0-106.038-85.962-192-192-192s-192 85.962-192 192c0 106.038 85.962 192 192 192s192-85.962 192-192zM1216 1344c0-106.038-85.962-192-192-192s-192 85.962-192 192c0 106.038 85.962 192 192 192s192-85.962 192-192z" />
<glyph unicode="&#xe00c;" d="M1818.56 548.928c0 145.92-100.736 268.416-236.48 301.76-7.744 124.288-110.72 222.848-236.992 222.848-35.648 0-69.248-8.064-99.648-22.144-70.272 145.472-219.328 245.888-391.744 245.888-239.488 0-433.728-193.536-435.008-432.768-111.744-52.416-189.248-166.016-189.248-297.664 0-175.36 137.28-318.656 310.272-328.192h1001.728c155.84 16.832 277.12 149.952 277.12 310.272z" />
<glyph unicode="&#xe00d;" d="M1024 1536l152.896-197.376 231.104 94.528 33.728-247.424 247.424-33.728-94.528-231.104 197.376-152.896-197.376-152.896 94.528-231.104-247.424-33.728-33.728-247.424-231.104 94.528-152.896-197.376-152.896 197.376-231.104-94.528-33.728 247.424-247.424 33.728 94.528 231.104-197.376 152.896 197.376 152.896-94.528 231.104 247.424 33.728 33.728 247.424 231.104-94.528z" />
<glyph unicode="&#xe00e;" d="M597.376 1211.904h842.624v-1212.032h-842.624v1212.032zM1157.376 1473.216v64h-266.624v-64h-400.128v-192h1066.752v192z" />
<glyph unicode="&#xe00f;" d="M640 1329.984h576v192h-768v-1123.968h192zM832 1137.984h768v-1124.032h-768v1124.032z" />
<glyph unicode="&#xe010;" d="M814.848 35.648l673.152 673.088-673.152 673.152-121.856-121.792 551.36-551.36-551.36-551.232zM704 1536v-277.12l596.736-598.976-596.736-599.040v-60.864h1088v1536zM673.856 1107.776h-263.744l344.128-351.872h-626.24v-192h626.24l-344.128-351.936h263.744l446.144 447.936z" />
<glyph unicode="&#xe011;" d="M1024.128 1507.328l-0.128-192c318.144-0.064 576-257.856 576-576s-257.856-576-576-576-576 257.856-576 576c0 111.936 32.512 216.064 87.616 304.448l104.384-104.32 132.48 494.592-494.528-132.48 119.232-119.296c-88.576-125.248-141.184-277.824-141.184-442.944 0-424.192 343.872-768 768-768 424.256 0 768 343.808 768 768s-343.744 767.936-767.872 768z" />
<glyph unicode="&#xe012;" d="M1792 758.528c0 424.192-343.744 768-767.872 768l-0.128-192c318.144 0 576-257.856 576-576 0-111.808-32.384-215.872-87.488-304.192l-104.384 104.448-132.608-494.592 494.656 132.416-119.104 119.232c88.448 125.184 140.928 277.632 140.928 442.688zM448 758.528c0 111.936 32.512 216.064 87.744 304.448l104.256-104.32 132.48 494.592-494.464-132.48 119.232-119.36c-88.64-125.248-141.248-277.76-141.248-442.88 0-424.128 343.872-767.936 768-768v192c-318.144 0.064-576 257.856-576 576z" />
<glyph unicode="&#xe013;" d="M256-0.128h384c0 212.224-171.776 384-384 384v-384zM256 639.744c353.728-0.064 639.872-286.272 639.872-639.872h256.128c0 494.784-401.152 896-896 896v-256.128zM256 1151.872c636.224 0 1152-515.776 1152-1152h256c0 777.6-630.4 1408-1408 1408v-256z" />
<glyph unicode="&#xe014;" d="M903.744 768l512 512h-271.488l-512-512 512-512h271.488z" />
<glyph unicode="&#xe015;" d="M1144.256 768l-512-512h271.488l512 512-512 512h-271.488z" />
<glyph unicode="&#xe016;" d="M1024 888.256l512-512v271.488l-512 512-512-512v-271.488z" />
<glyph unicode="&#xe017;" d="M1024 647.744l-512 512v-271.488l512-512 512 512v271.488z" />
<glyph unicode="&#xe018;" d="M888.256 768l-512-512h271.488l512 512-512 512h-271.488zM1400.256 768l-512-512h271.488l512 512-512 512h-271.488z" />
<glyph unicode="&#xe019;" d="M1159.744 768l512 512h-271.488l-512-512 512-512h271.488zM647.744 768l512 512h-271.488l-512-512 512-512h271.488z" />
<glyph unicode="&#xe01a;" d="M883.84 228.224l-755.84 539.776 755.84 539.904v-324.032l908.16-0.128v-431.488h-908.16z" />
<glyph unicode="&#xe01b;" d="M1164.16 228.224l755.84 539.776-755.84 539.904v-324.032l-908.16-0.128v-431.488h908.16z" />
<glyph unicode="&#xe01c;" d="M1563.84 908.224l-539.84 755.776-539.84-755.776h324.032l0.064-908.224h431.552v908.224z" />
<glyph unicode="&#xe01d;" d="M484.16 627.904l539.84-755.904 539.84 755.904h-324.032l-0.064 908.096h-431.552v-908.096z" />
<glyph unicode="&#xe01e;" d="M1457.088 1353.984v-192h-192v192h-209.088v103.68l216 105.152-280 136.32v-345.152h-210.112v-192h-192v192h-333.888v-384h192v-969.984h395.456v443.328c4.608 148.288 83.328 266.688 180.544 266.688s175.936-118.4 180.544-266.688v-443.328h395.456v969.984h192v384h-334.912z" />
<glyph unicode="&#xe01f;" d="M1391.68 567.168c-2.944-24.384-33.728-24.256-48.96-13.44-17.792 12.736-24.96 34.368-24.256 55.552 1.664 51.072 52.096 88.448 99.648 92.928 100.416 9.344 177.344-85.248 174.336-180.48-3.264-102.976-78.848-186.24-176.32-212.416-100.352-26.944-205.888 10.304-275.456 85.312-30.784 33.152-52.288 74.112-75.584 112.704-30.528 50.56-60.992 101.184-91.584 151.808-15.552 25.856-21.44 51.136-51.2 57.472-45.248 9.728-90.368 20.736-135.872 29.376-100.352 21.504-212.288-23.104-256.704-118.976-38.784-84.416-7.808-207.424 92.032-231.104 44.352-10.432 97.472 3.84 117.504 48.256 8.064 17.984 9.088 41.024-3.456 57.344-5.44 7.104-14.528 13.504-23.744 14.144-5.504 0.512-17.792-9.984-20.736-8.896-15.872 11.84-7.808 34.496 5.312 44.416 16.512 12.672 39.296 11.456 57.344 3.392 47.808-21.312 61.376-81.792 45.12-127.936-32.768-96.96-156.16-121.28-238.784-76.032-92.032 50.24-130.24 159.68-105.856 258.752 25.344 102.848 111.424 177.728 212.928 201.088 44.224 10.112 90.24 8.384 135.36 9.28 59.136 1.152 118.208 2.24 177.344 3.392 30.272 0.64 54.976-6.912 75.456 15.552 31.040 34.24 62.976 67.968 93.248 102.848 68.608 75.712 86.72 195.712 25.536 281.536-56.064 78.976-186.432 112.576-253.76 27.264-28.224-35.904-36.736-91.392-1.728-126.208 13.184-13.056 34.496-21.504 52.672-14.336 17.856 7.168 13.184 34.624 25.024 35.008 54.784 1.664 17.984-72.384-7.296-85.952-44.8-24.064-102.72 1.088-130.176 39.872-61.056 86.464-10.688 204.288 79.296 246.464 96.384 44.992 207.424 12.224 275.584-66.176 69.12-79.616 79.744-194.176 41.856-290.176-36.096-91.648-95.424-177.856-142.912-263.872-7.552-13.696-15.104-27.392-22.656-41.088-4.48-8.192 4.928-24.128 7.488-32.32 15.488-48.384 27.776-99.904 48.64-146.368 41.088-91.456 141.888-157.44 243.776-134.656 91.456 20.352 171.264 119.104 123.84 213.12-19.008 37.632-60.672 65.6-103.872 54.144-31.552-8.448-58.944-54.144-18.432-70.592zM691.2 131.072c180.288-99.136 400.832-112 591.552-35.264 84.352 33.92 161.792 84.544 226.816 148.16 67.072 65.728 131.84 148.096 146.048 243.392 15.36 102.848-34.88 213.376-130.432 259.52-86.592 41.728-199.36 19.84-249.536-66.24-22.784-39.040-26.816-89.152-6.208-129.92 21.056-41.664 77.824-76.48 121.984-45.568 15.040 10.56 26.688 30.208 18.24 48.768-6.656 12.992-27.968 9.6-10.816 26.752 42.304 42.432 71.872-47.872 61.568-77.696-36.544-105.92-178.816-79.232-233.344-6.784-61.056 81.6-39.424 196.096 28.8 265.472 74.944 76.352 191.744 89.6 288 49.344 96.192-40.256 159.872-134.4 177.024-235.136 32.512-191.104-123.456-367.104-270.656-466.624-157.12-106.112-351.936-150.272-539.456-121.856-128.896 19.52-251.904 72.64-354.624 152.896 43.968-11.072 89.984-14.144 135.040-9.216zM664.256 1331.648c-158.656-96.512-273.984-255.872-315.712-436.864-22.464-97.344-23.488-199.488-3.072-297.344 21.056-100.864 62.080-213.184 144.96-279.296 78.784-62.912 193.152-75.072 280.704-22.656 85.824 51.392 127.68 165.12 76.544 255.040-22.272 39.168-63.808 67.968-109.376 70.464-46.080 2.432-105.984-28.992-100.544-83.008 1.728-17.856 13.248-38.656 33.344-40 14.464-1.28 22.208 19.648 28.48-4.032 15.296-57.344-77.44-39.232-98.048-14.72-71.616 84.928 19.392 195.008 110.656 205.568 103.296 12.544 192.128-66.176 216.832-162.24 26.176-101.632-20.736-207.488-102.464-269.504-83.136-63.104-196.096-71.296-292.032-35.648-202.176 75.2-273.088 338.24-270.336 532.8 2.56 177.152 68.352 350.464 183.872 484.736 78.72 91.648 179.264 163.776 291.328 209.024-31.36-32.704-56.896-70.912-75.136-112.32-206.976-125.824 8.576 19.456 0 0zM1717.376 754.56c-7.808 344.32-277.824 638.208-620.544 673.92-100.928 10.56-200.32-7.808-270.144-87.36-66.56-75.776-82.432-193.088-22.4-277.76 56-78.272 186.624-112.768 253.504-27.136 28.352 36.352 36.544 91.008 1.792 126.4-13.056 13.248-34.496 21.376-52.608 14.272-17.92-7.040-13.312-34.88-25.088-35.136-54.464-1.216-18.432 72.32 7.232 85.888 45.248 23.872 102.208-0.64 130.112-39.616 61.888-86.4 10.24-204.16-79.296-246.464-96.064-45.312-207.552-12.032-275.584 66.048-69.184 79.68-79.68 194.112-41.728 290.176 37.824 95.808 125.12 164.672 223.424 190.080 85.888 22.144 180.672 9.984 265.664-11.52 161.216-40.768 306.304-135.872 409.216-266.368 128.192-162.496 183.616-372.032 155.904-576.768-12.736 43.52-32.448 84.928-59.456 121.344-8.576 376.96 12.736-17.216 0 0z" />
<glyph unicode="&#xe020;" d="M1024 1507.264c-424.128 0-768-343.808-768-767.936s343.872-767.936 768-767.936 768 343.808 768 767.936-343.872 767.936-768 767.936zM372.8 748.544c2.176 151.808 58.56 300.352 157.568 415.488 67.52 78.592 153.664 140.288 249.728 179.2-27.008-28.032-48.832-60.736-64.512-96.256-136-82.688-234.816-219.328-270.592-374.528-19.264-83.456-20.096-171.008-2.624-254.784 18.048-86.464 53.184-182.784 124.224-239.424 67.584-54.016 165.504-64.32 240.576-19.456 73.536 44.032 109.44 141.568 65.6 218.56-19.072 33.6-54.656 58.304-93.76 60.352-39.488 2.112-90.88-24.896-86.208-71.104 1.472-15.232 11.392-33.088 28.544-34.24 12.352-1.152 19.008 16.768 24.448-3.52 13.12-49.152-66.368-33.536-84.032-12.544-61.376 72.832 16.64 167.168 94.848 176.192 88.576 10.752 164.672-56.768 185.792-139.136 22.464-87.040-17.728-177.792-87.808-230.912-71.232-54.144-168.064-61.12-250.24-30.592-173.184 64.512-233.92 289.984-231.552 456.704zM1152.96 1153.856c-48.064 67.776-159.808 96.512-217.472 23.36-24.192-30.72-31.488-78.336-1.472-108.096 11.328-11.264 29.568-18.496 45.184-12.224 15.296 6.144 11.328 29.632 21.44 29.952 46.912 1.408 15.36-62.080-6.336-73.664-38.4-20.608-88.064 0.96-111.552 34.24-52.288 74.112-9.216 175.104 68.032 211.2 82.56 38.656 177.728 10.496 236.16-56.704 59.264-68.224 68.288-166.528 35.904-248.768-30.976-78.592-81.792-152.448-122.496-226.112-6.528-11.84-12.992-23.488-19.52-35.264-3.84-6.976 4.224-20.672 6.464-27.712 13.312-41.472 23.808-85.632 41.664-125.504 35.2-78.336 121.6-134.912 208.96-115.392 78.4 17.472 146.816 102.080 106.112 182.656-16.32 32.256-52.032 56.256-89.088 46.4-27.008-7.232-50.432-46.4-15.744-60.48-2.496-20.864-28.864-20.736-41.92-11.52-15.232 10.88-21.376 29.504-20.736 47.616 1.408 43.776 44.672 75.84 85.376 79.616 86.080 8.064 152.064-73.024 149.44-154.688-2.816-88.32-67.648-159.552-151.104-182.080-86.080-23.104-176.512 8.896-236.096 73.152-26.368 28.352-44.8 63.552-64.768 96.576-26.112 43.392-52.288 86.72-78.528 130.112-13.312 22.208-18.368 43.84-43.904 49.344-38.72 8.384-77.44 17.728-116.416 25.216-86.080 18.432-182.016-19.84-220.032-102.080-33.344-72.384-6.656-177.728 78.848-198.016 38.080-9.024 83.584 3.264 100.736 41.28 6.848 15.424 7.744 35.136-2.944 49.216-4.672 6.144-12.416 11.648-20.352 12.096-4.736 0.448-15.232-8.576-17.792-7.552-13.568 10.112-6.656 29.504 4.544 38.080 14.144 10.88 33.664 9.792 49.216 2.88 41.024-18.24 52.608-70.144 38.656-109.696-28.032-83.008-133.888-103.872-204.672-65.152-78.912 43.008-111.68 136.896-90.752 221.76 21.696 88.192 95.488 152.384 182.528 172.288 37.952 8.704 77.376 7.232 116.032 7.936 50.624 1.024 101.248 1.92 151.936 2.88 25.92 0.576 47.104-5.888 64.704 13.376 26.624 29.376 54.016 58.24 79.872 88.192 58.816 64.832 74.304 167.68 21.888 241.28zM1389.312 199.232c-134.656-90.944-301.696-128.768-462.4-104.448-110.464 16.704-215.872 62.272-303.936 131.008 37.696-9.408 77.12-12.096 115.776-7.808 154.56-84.992 343.488-96 507.008-30.272 72.384 29.12 138.752 72.512 194.432 126.976 57.472 56.384 113.024 126.912 125.184 208.64 13.184 88.192-29.888 182.848-111.808 222.4-74.176 35.84-170.88 17.024-213.888-56.768-19.584-33.472-22.976-76.352-5.312-111.36 18.048-35.712 66.688-65.536 104.576-38.976 12.928 9.024 22.848 25.792 15.616 41.728-5.696 11.136-23.936 8.256-9.28 22.912 36.224 36.288 61.632-41.088 52.736-66.624-31.296-90.752-153.28-67.968-200-5.824-52.352 69.952-33.792 168.064 24.704 227.648 64.256 65.344 164.352 76.736 246.848 42.24 82.432-34.496 137.024-115.2 151.68-201.472 27.968-163.776-105.728-314.688-231.936-400zM1618.304 752.384c-6.656 295.104-238.144 547.008-531.968 577.664-86.528 9.088-171.712-6.656-231.488-74.88-57.088-64.96-70.656-165.568-19.2-238.080 48-67.136 160-96.64 217.344-23.296 24.32 31.168 31.296 78.016 1.536 108.288-11.264 11.392-29.632 18.368-45.12 12.224-15.36-6.080-11.456-29.888-21.504-30.144-46.656-1.024-15.808 62.016 6.272 73.6 38.72 20.48 87.552-0.576 111.488-33.984 53.056-73.984 8.832-174.976-68.032-211.264-82.304-38.784-177.856-10.304-236.16 56.704-59.264 68.288-68.224 166.464-35.776 248.704 32.384 82.112 107.264 141.12 191.488 162.944 73.6 19.008 154.88 8.576 227.776-9.792 138.112-34.944 262.528-116.48 350.656-228.352 109.888-139.264 157.44-318.848 133.632-494.4-10.88 37.312-27.84 72.832-50.944 104.064z" />
<glyph unicode="&#xe021;" d="M1786.112 1341.76c-22.144 25.216-54.144 39.616-87.744 39.616h-227.264c3.52 49.6 5.888 100.352 5.888 153.152 0 0.512-0.128 1.024-0.128 1.472h-905.728c0-0.512 0-1.024 0-1.472 0-52.736 2.368-103.488 5.888-153.152h-227.264c-33.6 0-65.6-14.464-87.872-39.616s-32.512-58.688-28.416-92.032c42.112-336 313.344-598.528 654.656-654.464-6.656-16.704-10.496-34.752-10.496-53.824 0-47.744 38.72-76.736 58.624-116.48 19.392-38.976 19.136-135.104 0-174.272-33.6-68.416-241.408-186.688-241.408-186.688h658.368c0 0-207.744 118.272-241.344 186.752-19.136 39.104-19.392 135.232 0 174.272 19.776 39.744 58.624 68.736 58.624 116.48 0 19.072-4.032 37.12-10.496 53.824 341.248 55.936 612.48 318.464 654.528 654.464 4.224 33.28-6.144 66.816-28.416 91.968zM349.76 1264.256h238.848c28.352-216.768 90.624-394.176 173.632-513.472-221.376 87.104-383.36 281.024-412.48 513.472zM1285.888 750.72c83.008 119.296 145.152 296.768 173.632 513.472h238.848c-29.12-232.384-191.232-426.304-412.48-513.472zM576 0h896v-128h-896v128z" />
<glyph unicode="&#xe022;" d="M1021.888 1536c-424.128-1.152-767.040-345.984-765.888-770.112 1.28-424.192 345.984-767.104 770.112-765.888 424.256 1.216 767.040 345.984 765.888 770.112-1.152 424.192-345.984 767.104-770.112 765.888zM1018.624 640h-192v-192h-128v192h-192v128h192v192h128v-192h192v-128zM1432.512 385.856h-181.248v463.424c0 18.496-1.984 33.728-5.888 46.016s-10.24 20.608-19.136 25.472c-8.896 4.736-22.976 8-41.984 9.728l-48.256 1.856h-21.376v86.528c48.256 12.48 87.616 28.736 118.4 48.64 30.528 20.032 65.28 47.488 104 82.624h95.488v-764.288z" />
<glyph unicode="&#xe023;" d="M1024 1536c-424.192 0-768-343.872-768-768s343.808-768 768-768 768 343.872 768 768-343.808 768-768 768zM1024 192c-318.144 0-576 257.856-576 576s257.856 576 576 576 576-257.856 576-576-257.856-576-576-576zM1216 1022.848c0-106.038-85.962-192-192-192s-192 85.962-192 192c0 106.038 85.962 192 192 192s192-85.962 192-192zM985.792 578.56c0-106.038-85.962-192-192-192s-192 85.962-192 192c0 106.038 85.962 192 192 192s192-85.962 192-192zM1446.208 570.688c0-106.038-85.962-192-192-192s-192 85.962-192 192c0 106.038 85.962 192 192 192s192-85.962 192-192z" />
<glyph unicode="&#xe024;" d="M320 1472v-1408h1408v1408h-1408zM512 264.64v1015.36h1015.424l-1015.424-1015.36z" />
<glyph unicode="&#xe025;" d="M1675.52 1309.44c-28.096-3.392-56.768-5.696-85.76-5.696-226.368 0-426.496 106.88-556.608 271.872l-9.152 11.264-9.28-11.264c-129.984-164.992-330.112-271.872-556.48-271.872-29.12 0-57.6 2.304-85.76 5.696-25.856-104.768-40.64-216.704-40.64-333.632 0-541.632 300.864-983.68 682.88-1026.688h18.368c382.144 43.008 683.008 485.056 683.008 1026.688 0 116.928-14.848 228.864-40.576 333.632zM1265.28 644.608l35.648-302.656-276.928 127.424-276.864-127.424 35.776 302.656-206.912 223.936 299.008 59.648 148.992 265.856 149.12-265.856 298.88-59.648-206.72-223.936z" />
<glyph unicode="&#xe026;" d="M385.28 690.368l0.192-0.256 638.4 638.4 638.4-638.4 0.448 0.384v270.656l-638.848 638.848-638.592-638.656zM385.28 64.256l0.192-0.256 638.4 638.4 638.4-638.4 0.448 0.448v270.528l-638.848 638.912-638.592-638.656z" />
<glyph unicode="&#xe027;" d="M632.354 1587.182l71.124-71.246-427.79-427.066-71.124 71.246 427.79 427.066zM774.646 1444.904l71.23-71.23-160.382-160.382-71.23 71.23 160.382 160.382zM916.952 1302.496l71.352-71.11-160.11-160.654-71.352 71.11 160.11 160.654zM1059.618 1159.89l71.23-71.23-160.246-160.246-71.23 71.23 160.246 160.246zM1202.122 1017.428l71.23-71.23-427.428-427.428-71.23 71.23 427.428 427.428zM1344.748 874.832l71.124-71.246-160.382-160.11-71.124 71.246 160.382 160.11zM1487.1 732.418l71.23-71.23-160.292-160.292-71.23 71.23 160.292 160.292zM1629.602 590.030l71.23-71.23-160.382-160.382-71.23 71.23 160.382 160.382zM1772.124 447.396l71.23-71.23-427.518-427.518-71.23 71.23 427.518 427.518zM1194.496 502.72l-297.28-297.152-70.528 70.528 180.224 180.224c7.104 7.104 12.352 13.76 15.616 20.096 3.264 6.144 4.032 12.032 2.368 17.28-1.6 5.376-5.632 12.032-12.352 20.096l-18.112 19.52-8.256 8.384 33.6 33.6c23.616-13.888 45.248-22.976 64.896-27.008 19.648-4.224 43.904-6.976 72.64-8.384l37.184-37.184z" />
<glyph unicode="&#xe028;" d="M1408 864h-288v288h-192v-288h-288v-192h288v-288h192v288h288zM1024 1536c-424.192 0-768-343.872-768-768s343.808-768 768-768 768 343.872 768 768-343.808 768-768 768zM1024 192c-318.144 0-576 257.856-576 576s257.856 576 576 576 576-257.856 576-576-257.856-576-576-576z" />
<glyph unicode="&#xe029;" d="M1024 1536c-424.192 0-768-343.872-768-768s343.808-768 768-768 768 343.872 768 768-343.808 768-768 768zM1408 672h-288v-288h-192v288h-288v192h288v288h192v-288h288v-192z" />
<glyph unicode="&#xe02a;" d="M640 864h768v-192h-768v192zM1024 1536c-424.192 0-768-343.872-768-768s343.808-768 768-768 768 343.872 768 768-343.808 768-768 768zM1024 192c-318.144 0-576 257.856-576 576s257.856 576 576 576 576-257.856 576-576-257.856-576-576-576z" />
<glyph unicode="&#xe02b;" d="M1024 1536c-424.192 0-768-343.872-768-768s343.808-768 768-768 768 343.872 768 768-343.808 768-768 768zM1408 672h-768v192h768v-192z" />
<glyph unicode="&#xe02c;" d="M1363.456 564.352l-203.712 203.648 203.712 203.648-135.808 135.744-203.648-203.648-203.648 203.648-135.808-135.744 203.712-203.648-203.712-203.648 135.808-135.744 203.648 203.648 203.648-203.648zM1567.040 1311.040c-299.968 299.968-786.176 299.968-1086.144 0s-299.968-786.176 0-1086.144 786.176-299.968 1086.144 0 299.968 786.24 0 1086.144zM616.704 360.768c-224.96 224.896-224.96 589.632 0 814.592s589.696 224.96 814.656 0 224.96-589.696 0-814.592c-224.96-225.024-589.76-225.024-814.656 0z" />
<glyph unicode="&#xe02d;" d="M1567.040 1311.040c-299.968 299.968-786.176 299.968-1086.144 0s-299.968-786.176 0-1086.144 786.176-299.968 1086.144 0 299.968 786.24 0 1086.144zM1227.648 428.608l-203.648 203.648-203.648-203.648-135.808 135.744 203.712 203.648-203.712 203.648 135.808 135.744 203.648-203.648 203.648 203.648 135.808-135.744-203.712-203.648 203.712-203.648-135.808-135.744z" />
<glyph unicode="&#xe02e;" d="M1024 1504.384c-424.192 0-768-343.872-768-768s343.808-768 768-768 768 343.872 768 768-343.808 768-768 768zM1024 160.384c-318.144 0-576 257.856-576 576s257.856 576 576 576 576-257.856 576-576-257.856-576-576-576zM925.12 610.56v38.336c0 33.152 7.040 61.952 21.248 86.528 14.144 24.512 40 50.496 77.632 78.144 36.224 25.856 60.096 46.912 71.68 63.104 11.584 16.256 17.344 34.368 17.344 54.4 0 22.464-8.32 39.488-24.896 51.264s-39.68 17.6-69.376 17.6c-51.776 0-110.72-16.96-177.024-50.752l-56.448 113.344c76.928 43.136 158.592 64.768 244.8 64.768 71.104 0 127.616-17.152 169.536-51.264 41.92-34.24 62.848-79.744 62.848-136.768 0-37.952-8.64-70.72-25.856-98.304-17.28-27.648-49.984-58.688-98.304-93.184-33.216-24.512-54.144-43.136-62.912-55.872-8.832-12.8-13.184-29.504-13.184-50.24v-31.040h-137.088zM908.544 433.472c0 28.992 7.744 50.944 23.296 65.728 15.488 14.848 38.144 22.272 67.84 22.272 28.608 0 50.816-7.552 66.496-22.72s23.552-36.928 23.552-65.28c0-27.264-7.936-48.768-23.808-64.448s-38.016-23.552-66.24-23.552c-28.992 0-51.456 7.744-67.328 23.040s-23.808 37.056-23.808 64.96z" />
<glyph unicode="&#xe02f;" d="M1024 1504.384c-424.192 0-768-343.872-768-768s343.808-768 768-768 768 343.872 768 768-343.808 768-768 768zM1065.92 369.088c-15.872-15.68-38.016-23.552-66.24-23.552-28.992 0-51.456 7.744-67.328 23.040s-23.808 36.992-23.808 64.96c0 28.992 7.744 50.944 23.296 65.728 15.488 14.848 38.144 22.272 67.84 22.272 28.608 0 50.816-7.552 66.496-22.72s23.552-36.928 23.552-65.28c0-27.264-7.936-48.768-23.808-64.448zM1236.736 840.96c-17.28-27.648-49.984-58.688-98.304-93.184-33.216-24.512-54.144-43.136-62.912-55.872-8.832-12.8-13.184-29.504-13.184-50.24v-31.040h-137.216v38.336c0 33.152 7.040 61.952 21.248 86.528 14.144 24.512 40 50.496 77.632 78.144 36.224 25.856 60.096 46.912 71.68 63.104 11.584 16.256 17.344 34.368 17.344 54.4 0 22.464-8.32 39.488-24.896 51.264s-39.68 17.6-69.376 17.6c-51.776 0-110.72-16.96-177.024-50.752l-56.448 113.344c76.928 43.136 158.592 64.768 244.8 64.768 71.104 0 127.616-17.152 169.536-51.264 41.92-34.24 62.848-79.744 62.848-136.768 0.192-38.016-8.448-70.848-25.728-98.368z" />
<glyph unicode="&#xe030;" d="M1024 1504.384c-424.192 0-768-343.872-768-768s343.808-768 768-768 768 343.872 768 768-343.808 768-768 768zM1024 160.384c-318.144 0-576 257.856-576 576s257.856 576 576 576 576-257.856 576-576-257.856-576-576-576zM933.376 438.976c0 28.992 7.744 50.88 23.36 65.728 15.488 14.72 38.144 22.272 67.776 22.272 28.608 0 50.88-7.616 66.496-22.784 15.744-15.168 23.616-36.928 23.616-65.216 0-27.328-8-48.768-23.872-64.512-15.872-15.68-37.888-23.488-66.24-23.488-28.992 0-51.392 7.616-67.264 22.976s-23.872 37.056-23.872 65.024zM1088.256 616h-126.4l-26.368 505.728h179.136l-26.368-505.728z" />
<glyph unicode="&#xe031;" d="M1024 1504.384c-424.192 0-768-343.872-768-768s343.808-768 768-768 768 343.872 768 768-343.808 768-768 768zM1090.752 374.528c-15.872-15.68-37.888-23.488-66.24-23.488-28.992 0-51.392 7.616-67.264 22.976s-23.872 36.992-23.872 65.024c0 28.992 7.744 50.88 23.36 65.728 15.488 14.72 38.144 22.272 67.776 22.272 28.608 0 50.88-7.616 66.496-22.784 15.744-15.168 23.616-36.928 23.616-65.216 0-27.328-8-48.768-23.872-64.512zM1088.256 616h-126.4l-26.368 505.728h179.136l-26.368-505.728z" />
<glyph unicode="&#xe032;" d="M1024 1551.808l-896-1551.936h1792l-896 1551.936zM1024 1193.92l586.304-1015.424h-1172.608l586.304 1015.424zM939.904 299.84c0 26.88 7.168 47.168 21.696 60.992 14.4 13.76 35.392 20.672 62.848 20.672 26.624 0 47.232-7.104 61.76-21.184 14.656-14.144 21.952-34.304 21.952-60.48 0-25.344-7.424-45.312-22.208-59.904-14.656-14.592-35.136-21.824-61.504-21.824-26.88 0-47.68 7.104-62.4 21.312-14.72 14.272-22.144 34.368-22.144 60.416zM1083.648 464.064h-117.312l-24.448 469.568h166.272l-24.512-469.568z" />
<glyph unicode="&#xe033;" d="M1021.568 1551.872l-896-1552h1792l-896 1552zM1108.096 935.744l-24.512-469.568h-117.312l-24.448 469.568h166.272zM1085.952 242.048c-14.656-14.592-35.136-21.824-61.504-21.824-26.88 0-47.68 7.104-62.4 21.312-14.72 14.272-22.208 34.368-22.208 60.352 0 26.88 7.168 47.168 21.696 60.992 14.4 13.76 35.392 20.672 62.848 20.672 26.624 0 47.232-7.104 61.76-21.184 14.656-14.144 21.952-34.304 21.952-60.48 0-25.344-7.424-45.248-22.144-59.84z" />
<glyph unicode="&#xe034;" d="M1024 1510.72c-424.192 0-768-343.808-768-768 0-424.128 343.808-768 768-768s768 343.872 768 768c0 424.192-343.808 768-768 768zM1024 166.72c-318.144 0-576 257.856-576 576s257.856 576 576 576 576-257.856 576-576-257.856-576-576-576zM1465.216 764.992l-65.344 201.152-310.144-142.784 39.936 339.008h-211.328l39.936-339.008-310.144 142.784-65.344-201.152 334.848-66.752-231.616-250.752 171.072-124.288 166.912 297.792 166.912-297.792 171.072 124.288-231.616 250.752z" />
<glyph unicode="&#xe035;" d="M1024 1510.72c-424.128 0-768-343.808-768-768 0-424.128 343.872-768 768-768 424.256 0 768 343.872 768 768 0 424.192-343.744 768-768 768zM1361.984 447.488l-171.008-124.288-166.976 297.792-166.848-297.792-171.136 124.288 231.616 250.752-334.72 66.752 65.28 201.152 310.144-142.72-39.936 338.944h211.392l-40-339.008 310.144 142.72 65.344-201.152-334.848-66.752 231.552-250.688z" />
<glyph unicode="&#xe036;" d="M1456.64 927.232l-135.744 135.744-383.616-383.68-210.048 209.984-135.744-135.808 344.512-344.448zM1024 1536c-424.128 0-768-343.744-768-768 0-424.128 343.872-768 768-768 424.256 0 768 343.872 768 768 0 424.256-343.744 768-768 768zM1024 192c-318.144 0-576 257.856-576 576s257.856 576.064 576 576.064c318.144-0.064 576-257.92 576-576.064s-257.856-576-576-576z" />
<glyph unicode="&#xe037;" d="M1024 1536c-424.128 0-768-343.744-768-768 0-424.128 343.872-768 768-768 424.256 0 768 343.872 768 768 0 424.256-343.744 768-768 768zM591.488 753.472l135.744 135.744 209.984-209.92 383.616 383.68 135.744-135.744-518.144-518.272z" />
<glyph unicode="&#xe038;" d="M1024 1510.72c-424.128 0-768-343.808-768-768 0-424.128 343.872-768 768-768 424.256 0 768 343.872 768 768 0 424.192-343.744 768-768 768zM1024 166.72c-318.144 0-576 257.856-576 576s257.856 576 576 576 576-257.856 576-576-257.856-576-576-576zM928 867.968h192v-505.728h-192v505.728zM1120 1027.392c0-53.020-42.98-96-96-96s-96 42.98-96 96c0 53.020 42.98 96 96 96s96-42.98 96-96z" />
<glyph unicode="&#xe039;" d="M1024 1510.72c-424.128 0-768-343.808-768-768 0-424.128 343.872-768 768-768 424.256 0 768 343.872 768 768 0 424.192-343.744 768-768 768zM1120 362.24h-192v505.728h192v-505.728zM1024 931.392c-52.992 0-96 43.008-96 96s43.008 96 96 96 96-43.008 96-96-43.008-96-96-96z" />
<glyph unicode="&#xe03a;" d="M1227.58 1107.368l135.802-135.724-542.808-543.116-135.802 135.724 542.808 543.116zM1024 1536c-424.192 0-768-343.872-768-768.128 0-424 343.808-768 768-768s768 344 768 768c0 424.256-343.808 768.128-768 768.128zM1024 192c-318.144 0-576 257.856-576 575.872 0 318.144 257.856 576 576 576s576-257.856 576-576c0.064-318.016-257.856-575.872-576-575.872z" />
<glyph unicode="&#xe03b;" d="M1024 1536c-424.128 0-768-343.872-768-768.128 0-424 343.872-768 768-768 424.256 0 768 344 768 768 0 424.256-343.744 768.128-768 768.128zM820.352 428.608l-135.744 135.744 542.976 542.848 135.872-135.744-543.104-542.848z" />
<glyph unicode="&#xe03c;" d="M1024 1498.496c-424.128 0-768-343.872-768-768s343.872-768 768-768c424.256 0 768 343.872 768 768s-343.744 768-768 768zM1024 154.496c-318.144 0-576 257.856-576 576s257.856 576 576 576 576-257.856 576-576-257.856-576-576-576zM928 1091.968h192v-723.008h-192v723.008z" />
<glyph unicode="&#xe03d;" d="M1915.904 864h-130.496c-43.392 347.264-318.144 622.016-665.408 665.344v130.56h-192v-130.496c-347.264-43.392-621.888-318.144-665.344-665.408h-130.56v-192h130.496c43.392-347.264 318.144-622.016 665.344-665.344v-130.496h192v130.496c347.264 43.392 622.016 318.144 665.344 665.344h130.496v192zM1120 200.64v187.52h-192v-187.52c-241.024 40.512-430.848 230.4-471.36 471.36h187.52v192h-187.52c40.64 241.024 230.4 430.848 471.36 471.36v-187.52h192v187.52c241.024-40.512 430.848-230.4 471.36-471.36h-187.52v-192h187.52c-40.512-241.024-230.208-430.848-471.36-471.36zM1184 768c0-88.366-71.634-160-160-160s-160 71.634-160 160c0 88.366 71.634 160 160 160s160-71.634 160-160z" />
<glyph unicode="&#xe03e;" d="M1024 1520.512l263.232-469.504 528-105.408-365.248-395.456 63.040-534.656-489.024 225.024-489.024-225.024 62.912 534.656-365.12 395.456 527.872 105.408z" />
<glyph unicode="&#xe03f;" d="M1815.232 945.6l-528 105.344-263.232 469.568-263.36-469.504-527.872-105.344 365.12-395.52-62.848-534.656 488.96 225.024 489.024-225.024-62.976 534.656 365.184 395.456zM1024 381.376l-335.232-154.24 43.136 366.528-250.24 271.104 361.856 72.256 180.48 321.856 180.48-321.856 361.856-72.256-250.368-271.104 43.136-366.528-335.104 154.24z" />
<glyph unicode="&#xe040;" d="M1920 1124.736c0 269.12-218.112 487.232-487.104 487.232-171.584 0-322.112-89.024-408.896-222.976-86.72 134.016-237.312 222.976-408.896 222.976-268.992 0-487.104-218.112-487.104-487.232 0-82.368 13.312-164.352 56.768-228.032 181.312-265.088 744.128-696.576 839.232-972.928 92.352 277.632 657.92 707.904 839.232 972.992 43.456 63.616 56.768 145.6 56.768 227.968z" />
<glyph unicode="&#xe041;" d="M1432.896 1611.968c-171.584 0-322.112-89.024-408.896-222.976-86.72 134.016-237.312 222.976-408.896 222.976-268.992 0-487.104-218.112-487.104-487.232 0-82.368 13.312-164.352 56.768-228.032 181.312-265.088 744.128-696.576 839.232-972.928 92.352 277.632 657.92 707.904 839.232 972.992 43.456 63.616 56.768 145.6 56.768 227.968 0 269.12-218.112 487.232-487.104 487.232zM1757.568 968.896c-66.432-97.152-197.696-226.496-336.704-363.392-145.344-143.104-293.824-289.344-397.568-427.904-103.552 137.344-250.752 283.008-394.816 425.28-139.456 137.984-271.168 268.352-338.112 366.144-22.72 33.344-34.368 85.824-34.368 155.712 0 198.016 161.152 359.104 359.104 359.104 122.048 0 234.752-61.504 301.44-164.48l107.456-166.016 107.456 166.016c66.688 102.976 179.392 164.48 301.44 164.48 198.016 0 359.104-161.152 359.104-359.104 0-69.888-11.648-122.368-34.432-155.84z" />
<glyph unicode="&#xe042;" d="M128 1536h192v-1536h-192v1536zM798.72 835.008c-54.144 0-113.6-16.896-178.368-50.752-64.832-33.856-124.864-78.016-180.032-132.608v832.448c102.144 110.144 226.688 165.12 373.76 165.12 69.44 0 133.056-6.976 190.784-21.12 57.6-14.144 131.904-40.384 222.656-78.848 67.456-28.224 126.208-49.28 176.256-62.848 49.984-13.632 99.072-20.48 147.008-20.48 55.104 0 115.392 16.256 180.8 48.512 65.344 32.384 125.568 77.376 180.672 134.848v-830.848c-104.064-111.232-228.736-166.72-373.76-166.72-73.408 0-142.4 8.384-206.72 25.024-64.32 16.768-133.184 41.152-206.72 73.472-76.608 32.384-137.92 54.656-183.808 66.752-46.080 12.032-93.376 18.048-142.528 18.048z" />
<glyph unicode="&#xe043;" d="M131.904 1536h192v-1536h-192v1536zM1735.424 1514.368c-65.408-32.256-125.632-48.512-180.8-48.512-47.936 0-97.024 6.848-147.072 20.48s-108.736 34.624-176.192 62.848c-90.816 38.528-165.056 64.768-222.72 78.848s-121.28 21.12-190.784 21.12c-147.008 0-271.552-54.976-373.696-165.12v-832.512c55.168 54.656 115.264 98.752 180.032 132.608 64.832 33.856 124.288 50.752 178.496 50.752 49.024 0 96.448-6.016 142.464-18.112 45.824-12.096 107.2-34.368 183.808-66.752 73.536-32.384 142.464-56.768 206.656-73.472 64.384-16.64 133.376-25.024 206.848-25.024 144.96 0 269.632 55.488 373.696 166.72v831.040c-55.104-57.536-115.392-102.528-180.736-134.912zM1781.568 870.528c-69.696-60.992-148.352-90.88-239.104-90.88-61.248 0-118.976 6.848-171.648 20.48-56.896 14.848-119.296 37.12-185.408 66.24-85.312 36.032-151.488 59.904-204.288 73.728-57.536 15.232-117.568 22.848-178.432 22.848-70.976 0-146.176-19.136-223.936-56.896v526.336c68.608 60.48 145.664 88.896 239.104 88.896 58.112 0 110.976-5.76 157.12-17.152 50.432-12.224 118.272-36.48 201.664-71.744 74.24-31.104 137.536-53.632 193.728-68.992 62.080-16.896 124.032-25.472 184.256-25.472 71.808 0 148.096 18.624 226.944 55.36v-522.752z" />
<glyph unicode="&#xe044;" d="M1024 1536c-424.256 0-768-343.872-768-768s343.744-768 768-768c424.128 0 768 343.872 768 768s-343.872 768-768 768zM1024 192c-318.144 0-576 257.856-576 576s257.856 576 576 576 576-257.856 576-576-257.856-576-576-576z" />
<glyph unicode="&#xe045;" d="M1024 1536c-424.256 0-768-343.872-768-768s343.744-768 768-768c424.128 0 768 343.872 768 768s-343.872 768-768 768z" />
<glyph unicode="&#xe046;" d="M1024 1536c-424.256 0-768-343.872-768-768s343.744-768 768-768c424.128 0 768 343.872 768 768s-343.872 768-768 768zM1024 192c-318.144 0-576 257.856-576 576s257.856 576 576 576v-1152z" />
<glyph unicode="&#xe047;" d="M1024 0c424.256 0 768 343.872 768 768s-343.744 768-768 768c-424.128 0-768-343.872-768-768s343.872-768 768-768zM1024 1344c318.144 0 576-257.856 576-576s-257.856-576-576-576v1152z" />
<glyph unicode="&#xe048;" d="M1860.736 1116.032c-70.72 0-128-57.344-128-128 0-24.128 6.976-46.528 18.624-65.728l-498.752-386.624-170.752 702.272c77.632 24.704 134.144 96.512 134.144 182.080 0 106.048-86.016 192-192 192-106.112 0-192-85.952-192-192 0-85.632 56.512-157.376 134.016-182.144l-170.624-702.208-498.752 386.624c11.648 19.264 18.624 41.536 18.624 65.728 0 70.656-57.28 128-128 128-70.656 0-128-57.344-128-128 0-70.72 57.344-128 128-128 3.008 0 5.888 0.64 8.768 0.896 0 0 237.248-500.352 241.28-681.024 2.112-100.288-117.248-256-117.248-256h1408c0 0-119.488 155.712-117.248 256 3.904 180.608 241.152 681.024 241.152 681.024 3.008-0.256 5.888-0.896 8.896-0.896 70.72 0 128 57.28 128 128-0.128 70.656-57.344 128-128.128 128z" />
<glyph unicode="&#xe049;" d="M1280 320v640h-512v-384h-512v-640h1536v384zM1105.728 1635.84v-547.84h-129.92v332.096c0 13.248-1.344 24.256-4.16 33.024-2.752 8.768-7.296 14.784-13.76 18.24-6.4 3.392-16.448 5.76-30.080 6.976l-34.56 1.344h-15.36v62.080c34.56 8.96 62.784 20.544 84.8 34.88 21.952 14.336 46.784 33.984 74.56 59.2h68.48z" />
<glyph unicode="&#xe04a;" d="M256 1536h384v-384h-384v384zM832 1536h384v-384h-384v384zM1408 1536h384v-384h-384v384zM256 960h384v-384h-384v384zM832 960h384v-384h-384v384zM1408 960h384v-384h-384v384zM256 384h384v-384h-384v384zM832 384h384v-384h-384v384zM1408 384h384v-384h-384v384z" />
<glyph unicode="&#xe04b;" d="M256 1536h256v-256h-256v256zM704 1536h1088v-256h-1088v256zM256 896h256v-256h-256v256zM704 896h1088v-256h-1088v256zM256 256h256v-256h-256v256zM704 256h1088v-256h-1088v256z" />
<glyph unicode="&#xe04c;" d="M886.656 86.144l256-254.4v1009.152l694.72 695.104h-1645.376l694.656-695.104z" />
<glyph unicode="&#xe04d;" d="M896 768.64h1024v-768h-192v-224l-224 224h-608zM704 960.64h960v448h-1536v-1024h192v-288l224 288h160z" />
<glyph unicode="&#xe04e;" d="M1792 287.872v1024h-1536v-1024h192v-416l352 416z" />
<glyph unicode="&#xe04f;" d="M1600 1472h-1152c-70.656 0-128-57.344-128-128v-1152c0-70.656 57.344-128 128-128h1152c70.72 0 128 57.344 128 128v1152c0 70.656-57.28 128-128 128zM626.752 160c-106.112 0-192 86.144-192 192 0 106.048 85.888 192 192 192 105.856 0 192-85.952 192-192 0-105.856-86.144-192-192-192zM626.752 992c-106.112 0-192 86.080-192 192 0 106.112 85.888 192 192 192 105.856 0 192-85.888 192-192 0-105.92-86.144-192-192-192zM1024 576c-105.984 0-192 86.080-192 192 0 106.112 86.016 192 192 192 106.112 0 192-85.888 192-192 0-105.92-85.888-192-192-192zM1421.376 160c-105.984 0-192 86.080-192 192 0 106.112 86.016 192 192 192 106.112 0 192-85.888 192-192 0-105.92-85.888-192-192-192zM1421.376 992c-105.984 0-192 86.080-192 192 0 106.112 86.016 192 192 192 106.112 0 192-85.888 192-192 0-105.92-85.888-192-192-192z" />
<glyph unicode="&#xe050;" d="M1024 1504.896c-424.256 0-768-343.808-768-768 0-424.128 343.744-768 768-768 424.128 0 768 343.872 768 768 0 424.192-343.872 768-768 768zM1253.376 211.904c-203.008-87.744-399.232-59.84-581.888 65.92-34.112 23.552-45.504 46.208-20.736 83.52 22.976 34.56 7.872 55.936-21.76 84.48-86.272 82.944-195.264 155.008-179.776 300.544 5.632 52.224 14.976 100.032 66.496 128.256 30.016 16.512 37.376 39.872 24.768 74.752-10.88 30.080-29.76 66.112-2.112 95.552 15.744 16.96 32.64 112.704 66.112 7.936 3.008-9.28 9.344-13.696 19.52-11.456 19.264 4.288 70.848 97.92 59.008 112.64-28.032 34.56-9.28 49.536 19.008 69.184 162.752 112.896 440.768 120.512 608.384 15.232 14.656-9.216 32.256-18.304 27.136-37.504-4.48-17.344-24.384-13.824-38.528-14.016-65.472-0.704-131.008-1.152-196.608 0.064-28.736 0.576-55.232-1.408-73.344-27.008-8.384-11.84-34.624-14.336-28.224-28.416 4.992-11.456 27.52-16.96 43.264-21.376 22.4-6.272 29.376 6.656 30.4 27.712 0.512 12.032 8 31.296 18.752 27.712 16.384-5.504 30.72-20.352 43.264-33.856 13.76-15.040-5.248-20.288-12.096-28.928-25.472-32.384-57.344-45.888-99.648-42.176-52.032 4.608-105.28-50.752-96.64-95.296 3.392-17.984 3.136-31.040 30.528-23.296 53.504 15.104 109.12 52.032 158.848-15.552 14.656-19.968 32.128 8.704 39.872 24.96 17.856 38.080 45.888 39.296 78.144 22.848 15.616-7.872 40.256-10.624 35.904-36.608-4.48-27.456-28.032-19.648-45.76-20.48-16.512-0.768-38.272 5.76-44.032-14.272-5.888-20.544 17.152-18.88 29.376-24.576 15.872-7.296 21.376-22.592 18.624-36.8-3.52-18.304-23.232-19.456-36.224-16.512-60.736 13.568-134.016-23.936-181.12 50.048-15.744 24.704-52.864 8.96-77.888 1.664-65.6-19.072-105.728-66.88-124.864-130.496-15.36-51.136-1.28-95.616 42.368-129.6 20.864-16.192 42.88-24.384 69.632-25.664 92.48-4.544 121.984-35.2 123.904-128.512 0.64-32.064 2.24-63.104 17.152-92.416 21.888-43.392 66.752-56 95.872-19.584 41.856 52.48 110.4 88.704 107.776 171.584-0.896 28.16 26.752 44.864 49.152 62.208 21.76 16.896 39.744 38.144-6.848 51.648-56 16.192-52.032 64.704-54.656 111.488 30.848-48.448 62.848-85.76 118.72-34.56 17.472 15.936 41.728 33.088-3.136 46.656-17.856 5.44-29.504 21.44-20.864 39.488 10.24 20.992 24.768 1.408 37.632-1.088 62.272-11.968 109.888-40 124.48-107.584 1.984-9.152 9.984-22.72 16.768-23.808 12.608-1.984 12.096 13.952 16.896 22.592 9.024 16.704 17.984 39.104 40.384 31.872 24.64-8 13.376-31.616 11.008-49.6-28.672-217.088-143.744-373.696-342.4-459.52z" />
<glyph unicode="&#xe051;" d="M1521.6 977.024v205.952c0 132.096-48.768 244.864-146.496 339.264-97.728 94.528-214.464 141.632-351.104 141.632-136.896 0-253.376-47.104-351.104-141.632-97.92-94.336-146.752-207.104-146.752-339.264v-206.016h-142.144v-977.152h1280v977.216h-142.4zM1056 336.832v-165.888h-64v165.888c-37.248 13.184-64 48.448-64 90.112 0 53.056 43.008 96 96 96s96-42.944 96-96c0-41.664-26.88-76.928-64-90.112zM1308.48 977.024h-568.896v205.952c0 76.224 27.52 140.672 83.264 194.304 55.552 53.696 122.176 80.512 201.152 80.512 78.848 0 145.472-26.816 201.152-80.512 55.488-53.632 83.392-118.080 83.392-194.304v-205.952z" />
<glyph unicode="&#xe052;" d="M1056 336.832v-165.888h-64v165.888c-37.248 13.184-64 48.448-64 90.112 0 53.056 43.008 96 96 96s96-42.944 96-96c0-41.664-26.88-76.928-64-90.112zM1375.104 1522.24c-97.728 94.528-214.464 141.632-351.104 141.632-136.896 0-253.376-47.104-351.104-141.632-97.92-94.336-146.752-207.104-146.752-339.264v-206.016h-142.144v-977.152h1280v977.216h-924.352v205.952c0 76.224 27.52 140.672 83.264 194.304 55.488 53.696 122.112 80.512 201.088 80.512 78.848 0 145.472-26.816 201.152-80.512l149.952 144.96z" />
<glyph unicode="&#xe053;" d="M1765.376 12.608c0 0-47.552-53.632-87.552-49.728-33.344 3.136-67.008 0.64-100.544 0.768-61.184 0.256-82.176 26.752-74.176 86.272 3.008 22.016 0.576 47.872-8.64 67.776-14.592 32-44.352 28.992-75.136 22.656-67.008-13.76-103.808 21.376-95.68 88.384 4.352 36.032-32.768 72.512-69.248 67.904-66.176-8.512-118.976 48.768-107.264 115.52 6.336 35.904 21.44 70.4-17.6 102.848-25.664 21.504-47.232 31.36-77.312 20.096-51.904-19.392-92.992-6.848-123.84 39.104-26.624 39.744-83.2 65.856-128.576 52.864-199.488-56.896-411.648 37.888-507.072 221.248-99.328 190.72-51.2 416.256 118.528 555.776 153.28 125.888 387.456 125.888 547.264-0.128 148.16-116.992 206.976-305.6 148.864-485.888-9.024-27.904 20.096-68.608 40.384-88.768 205.952-204.48 617.408-613.632 617.408-613.632l41.344-163.648-693.12 694.848-41.792-40.512 693.76-693.76zM471.424 1071.616c53.952-54.848 146.368-54.72 199.68 0 51.712 53.248 51.264 142.4-1.024 195.648-53.056 54.016-139.712 55.36-194.56 3.008-57.024-54.4-58.816-143.040-4.096-198.656z" />
<glyph unicode="&#xe054;" d="M1024-128c114.24 0 206.72 92.608 206.72 206.72h-413.44c0-114.112 92.608-206.72 206.72-206.72zM443.136 836.864c0 0-12.096-476.736-96.896-620.224 266.24 0 1034.752 0 1355.52 0-90.752 126.4-96.768 620.224-96.768 620.224 0 456.896-259.968 827.136-580.992 827.136-320.896 0-580.864-370.24-580.864-827.136z" />
<glyph unicode="&#xe055;" d="M1504 1403.136v-1344h-960v1344h-128v-1536h1216v1536zM937.28 396.544l1.216-1.152 454.144 454.080-135.744 135.808-319.616-319.68-146.048 146.048-135.744-135.744 280.512-280.512zM1312 1540.864h-197.888c3.648 10.048 5.888 20.736 5.888 32 0 52.992-43.008 96-96 96s-96-43.008-96-96c0-11.264 2.368-21.952 5.888-32h-197.888v-192h576v192z" />
<glyph unicode="&#xe056;" d="M1441.472 1118.976c0-230.564-186.908-417.472-417.472-417.472s-417.472 186.908-417.472 417.472c0 230.564 186.908 417.472 417.472 417.472s417.472-186.908 417.472-417.472zM583.36-58.176h881.344c91.392 0 176.768-25.088 250.368-67.968v323.2c0 228.672-147.392 422.592-352.128 493.056-85.504-89.344-205.632-145.152-339.008-145.152s-253.504 55.808-339.008 145.152c-204.736-70.528-352.128-264.384-352.128-493.056v-323.2c73.728 42.88 159.104 67.968 250.56 67.968z" />
<glyph unicode="&#xe057;" d="M554.624 1654.528h128v-256h-128v256zM1365.376 1654.528h128v-256h-128v256zM1557.376 1526.528v-192h-256v192h-554.752v-192h-256v192h-362.624v-1664h1792v1664h-362.624zM810.624 761.216h426.752v-320h-426.752v320zM810.624 889.216v320h426.752v-320h-426.752zM256 1209.216h426.624v-320h-426.624v320zM256 761.216h426.624v-320h-426.624v320zM256-6.784v320h426.624v-320h-426.624zM810.624-6.784v320h426.752v-320h-426.752zM1792-6.784h-426.624v320h426.624v-320zM1792 441.216h-426.624v320h426.624v-320zM1792 889.216h-426.624v320h426.624v-320z" />
<glyph unicode="&#xe058;" d="M1831.68 52.48l-464.96 464.896c184.896 250.496 164.608 604.736-62.272 831.616-249.92 249.856-655.104 249.856-905.088 0-249.92-249.984-249.92-655.168 0-905.152 226.816-226.88 581.056-247.104 831.552-62.272l464.96-464.96 135.808 135.872zM535.168 579.648c-174.912 174.976-174.912 458.624 0 633.536 174.976 174.912 458.624 174.912 633.536 0 174.976-174.912 174.976-458.56 0-633.536-174.912-175.040-458.496-175.040-633.536 0z" />
<glyph unicode="&#xe059;" d="M800.064 426.496h448v-192h-448v192zM1471.936 917.184h448v-192h-448v192zM128.064 1162.496h448v-192h-448v192zM256.064 1526.528h192v-300.032h-192v300.032zM256.064 906.496h192v-916.032h-192v916.032zM928.064 1526.528h192v-1036.032h-192v1036.032zM928.064 170.496h192v-180.032h-192v180.032zM1599.936 1526.528h192v-545.344h-192v545.344zM1599.936 661.184h192v-670.656h-192v670.656z" />
<glyph unicode="&#xe05a;" d="M414.4 1414.4l1219.2-704-1219.2-704z" />
<glyph unicode="&#xe05b;" d="M1708.736 1316.992l-135.744 135.872-275.84-275.968-92.16 92.096v-320h320l-92.096 92.16zM339.264 218.88l135.744-135.744 275.84 275.968 92.16-92.096v320h-320l92.096-92.16zM1152 768c0-70.692-57.308-128-128-128s-128 57.308-128 128c0 70.692 57.308 128 128 128s128-57.308 128-128z" />
<glyph unicode="&#xe05c;" d="M1170.816 1050.624c28.416-14.72 55.616-32.512 79.424-56.384 23.872-23.744 41.6-51.008 56.384-79.36l281.28 281.28 92.096-92.096-0.064 320h-320l92.096-92.096-281.216-281.344zM877.184 485.376c-28.416 14.72-55.616 32.512-79.424 56.384-23.872 23.744-41.6 51.008-56.384 79.36l-281.28-281.28-92.096 92.16 0.064-320h319.936l-92.096 92.096 281.28 281.28zM1152 768c0-70.692-57.308-128-128-128s-128 57.308-128 128c0 70.692 57.308 128 128 128s128-57.308 128-128z" />
<glyph unicode="&#xe05d;" d="M1170.752 1050.688c28.48-14.72 55.616-32.512 79.488-56.384 23.872-23.744 41.6-51.008 56.384-79.36l281.28 281.28 92.096-92.096-0.128 320h-320l92.096-92.096-281.216-281.344zM877.12 485.312c-28.352 14.72-55.616 32.512-79.36 56.384-23.872 23.744-41.6 51.008-56.384 79.36l-281.28-281.216-92.096 92.096v-319.872h320l-92.096 92.032 281.216 281.216zM1152 768c0-70.692-57.308-128-128-128s-128 57.308-128 128c0 70.692 57.308 128 128 128s128-57.308 128-128zM741.376 914.944c14.72 28.352 32.512 55.616 56.384 79.36 23.744 23.872 51.008 41.6 79.36 56.384l-281.216 281.28 92.096 92.096h-320v-320l92.096 92.096 281.28-281.216zM1306.624 621.184c-14.72-28.48-32.512-55.616-56.384-79.488-23.744-23.872-51.008-41.6-79.36-56.384l281.28-281.28-92.096-92.032 320 0.128v319.744l-92.096-92.096-281.344 281.408z" />
<glyph unicode="&#xe05e;" d="M1152 768c0-70.692-57.308-128-128-128s-128 57.308-128 128c0 70.692 57.308 128 128 128s128-57.308 128-128zM1708.736 1317.056l-135.744 135.872-275.84-275.968-92.16 92.096v-320h320l-92.096 92.16zM339.264 218.816l135.744-135.616 275.84 275.84 92.16-92.096v320h-320l92.096-92.16zM475.008 1452.8l-135.872-135.744 275.968-275.84-92.096-92.16h320v320l-92.16-92.096zM1573.12 83.328l135.744 135.616-275.968 275.84 92.096 92.16h-320v-320l92.16 92.096z" />
<glyph unicode="&#xe05f;" d="M487.744 768.064c0 102.72 29.504 198.528 79.616 280.384l-503.36-290.752 525.504-303.488c-63.744 88.448-101.76 196.608-101.76 313.856zM1026.368 528.576c-132.032 0-239.36 107.392-239.36 239.488 0 132.032 107.392 239.36 239.36 239.36s239.36-107.392 239.36-239.36c0-132.096-107.328-239.488-239.36-239.488zM1026.368 229.312c-103.36 0-199.744 29.888-281.856 80.512l289.728-501.76 299.136 517.888c-87.232-60.736-192.896-96.64-307.008-96.64zM1984 778.432l-516.864 298.368c61.376-87.488 97.856-193.856 97.856-308.736 0-100.992-28.352-195.264-76.864-276.032l495.872 286.4zM1026.368 1306.688c100.224 0 193.856-28.032 274.368-75.904l-287.104 497.216-302.848-524.288c88.832 64.448 197.696 102.976 315.584 102.976z" />
<glyph unicode="&#xe060;" d="M542.272 1472v-325.696c181.376-30.656 320-188.352 320-378.24 0-190.016-138.624-347.776-320-378.368v-325.632l1219.392 704-1219.392 703.936zM670.272 768.064c0-106.038-85.962-192-192-192s-192 85.962-192 192c0 106.038 85.962 192 192 192s192-85.962 192-192z" />
<glyph unicode="&#xe061;" d="M990.016 1020.224v274.752l-871.616-503.104 871.616-503.104v272c185.472 10.88 712.128 10.24 939.648-320-118.528 527.872-735.296 727.232-939.648 779.456z" />
<glyph unicode="&#xe062;" d="M1057.984 1020.224v274.752l871.616-503.104-871.616-503.104v272c-185.344 10.88-712 10.24-939.648-320 118.656 527.872 735.296 727.232 939.648 779.456z" />
<glyph unicode="&#xe063;" d="M1185.472 1181.888c0-230.564-186.908-417.472-417.472-417.472s-417.472 186.908-417.472 417.472c0 230.564 186.908 417.472 417.472 417.472s417.472-186.908 417.472-417.472zM1971.136 440.896h-288v288h-192v-288h-288v-192h288v-288h192v288h288zM1363.136 120.896h-288v448h288c-62.656 88.256-151.744 148.096-256.128 184.128-85.504-89.344-205.632-145.152-339.008-145.152s-253.504 55.744-339.008 145.152c-204.736-70.528-352.128-264.384-352.128-493.12v-323.136c73.6 42.88 158.976 67.904 250.496 67.904h881.344c54.144 0 105.664-9.6 154.368-25.728v141.952z" />
<glyph unicode="&#xe064;" d="M1185.472 1181.888c0-230.564-186.908-417.472-417.472-417.472s-417.472 186.908-417.472 417.472c0 230.564 186.908 417.472 417.472 417.472s417.472-186.908 417.472-417.472zM1203.136 440.896h768v-192h-768v192zM1363.136 120.896h-288v448h288c-62.656 88.256-151.744 148.096-256.128 184.128-85.504-89.344-205.632-145.152-339.008-145.152s-253.504 55.744-339.008 145.152c-204.736-70.528-352.128-264.384-352.128-493.12v-323.136c73.6 42.88 158.976 67.904 250.496 67.904h881.344c54.144 0 105.664-9.6 154.368-25.728v141.952z" />
<glyph unicode="&#xe065;" d="M1369.024 935.36c0-183.978-154.472-333.12-345.024-333.12s-345.024 149.142-345.024 333.12c0 183.978 154.472 333.12 345.024 333.12s345.024-149.142 345.024-333.12zM659.904-3.904h728.384c75.52 0 145.984-20.032 206.848-54.272v257.856c0 182.528-121.728 337.216-291.008 393.408-70.656-71.232-169.856-115.84-280.128-115.84s-209.472 44.544-280.128 115.84c-169.28-56.256-291.008-210.944-291.008-393.408v-257.856c60.864 34.304 131.392 54.272 207.040 54.272zM1544 1594.112c-148.736 0-269.376-116.416-269.376-260.096 0-2.88 0.768-5.504 0.896-8.384 90.496-55.616 160-140.48 195.392-240.768 23.36-6.4 47.616-10.88 73.152-10.88 148.736 0 269.376 116.352 269.376 260.032-0.064 143.68-120.704 260.096-269.44 260.096zM772.48 1325.184c0.128 3.008 0.896 5.824 0.896 8.832 0 143.68-120.64 260.096-269.376 260.096s-269.376-116.416-269.376-260.096c0-143.616 120.64-260.032 269.376-260.032 25.472 0 49.6 4.48 73.024 10.88 35.328 100.16 104.96 184.64 195.456 240.32zM1762.752 1066.88c-55.104-55.616-132.608-90.496-218.752-90.496-17.024 0-33.28 2.368-49.344 4.992 1.472-15.104 2.368-30.528 2.368-46.016 0-93.184-29.12-179.52-78.144-252.032 44.608-22.272 84.608-50.624 120.768-82.752h288.768c59.008 0 113.984-15.616 161.6-42.368v201.344c0 142.592-95.168 263.36-227.264 307.328zM550.976 935.36c0 15.488 0.768 30.848 2.368 46.016-16.256-2.624-32.512-4.992-49.344-4.992-86.144 0-163.648 34.88-218.752 90.496-132.096-43.968-227.264-164.736-227.264-307.264v-201.344c47.488 26.752 102.656 42.368 161.6 42.368h288.64c36.224 32.128 76.224 60.48 120.768 82.752-48.96 72.512-78.016 158.784-78.016 251.968z" />
<glyph unicode="&#xe066;" d="M1216.576 1181.76c0-230.564-186.908-417.472-417.472-417.472s-417.472 186.908-417.472 417.472c0 230.564 186.908 417.472 417.472 417.472s417.472-186.908 417.472-417.472zM1080.128 72.384l203.648 203.776-203.648 203.648 198.848 198.848c-42.496 31.488-89.856 56.768-140.864 74.368-85.504-89.344-205.632-145.28-339.008-145.28s-253.504 55.872-339.008 145.28c-204.736-70.528-352.128-264.384-352.128-493.12v-323.264c73.6 43.008 158.976 68.032 250.496 68.032h789.376l-67.712 67.712zM1940.032 72.384l-203.648 203.712 203.648 203.648-135.808 135.744-203.584-203.584-203.648 203.584-135.872-135.744 203.776-203.648-203.776-203.712 135.872-135.744 203.648 203.712 203.584-203.712z" />
<glyph unicode="&#xe067;" d="M1349.376 1181.76c0-230.564-186.908-417.472-417.472-417.472s-417.472 186.908-417.472 417.472c0 230.564 186.908 417.472 417.472 417.472s417.472-186.908 417.472-417.472zM1413.632 677.12c-43.008 32.256-91.008 57.984-142.72 75.904-85.504-89.344-205.632-145.28-339.008-145.28s-253.504 55.872-339.008 145.28c-204.736-70.528-352.128-264.384-352.128-493.12v-323.264c73.6 43.008 158.976 68.032 250.496 68.032h226.368l696 672.448zM1374.528 4.48c90.624-0.384 175.36-25.152 248.512-67.904v318.72l-248.512-250.816zM1543.488 624.64l263.744-1.536-680.128-686.464h-295.616z" />
<glyph unicode="&#xe068;" d="M1345.472 1181.76c0-230.564-186.908-417.472-417.472-417.472s-417.472 186.908-417.472 417.472c0 230.564 186.908 417.472 417.472 417.472s417.472-186.908 417.472-417.472zM1576 154.112c-17.6 0-35.264 1.28-52.736 3.904-21.12-20.096-46.144-34.496-73.28-42.24-6.848-23.872-18.752-46.4-35.008-65.728-16.512-19.648-36.864-34.496-59.264-45.376h12.992c91.392 0 176.768-25.024 250.368-68.032v220.48c-14.208-1.728-28.416-3.008-43.072-3.008zM883.392 137.28l330.368 328.384c-14.976 99.904 12.352 199.488 74.624 278.016-7.232 2.88-14.016 6.72-21.376 9.344-85.504-89.344-205.632-145.28-339.008-145.28s-253.504 55.872-339.008 145.28c-204.736-70.528-352.128-264.384-352.128-493.12v-323.264c73.6 43.008 158.976 68.032 250.496 68.032h362.496l33.536 132.608zM1368.512 333.12l-22.272 21.632-369.472-370.368 22.016 87.104c0 0 219.392 218.112 329.152 327.104 10.88 10.752 26.368 32.512 21.632 47.36-30.976 96.128 0.384 196.608 79.36 259.008 85.12 67.136 209.984 67.264 291.776 0.128 90.368-74.368 116.096-194.624 63.104-296.256-50.88-97.856-164.032-148.352-270.4-118.016-24.128 6.848-54.272-6.976-68.48-28.224-16.384-24.512-38.4-31.104-65.984-20.736-16 5.888-27.52 0.64-41.28-10.752-20.736-17.344-12.736-35.776-9.344-54.848 6.272-35.648-21.888-66.112-57.152-61.632-19.52 2.496-39.232-17.024-36.992-36.096 4.352-35.776-15.232-54.528-51.008-47.104-16.384 3.392-32.256 4.992-40-12.096-4.864-10.624-6.272-24.384-4.608-36.096 4.224-31.616-6.848-45.888-39.488-45.888-17.984-0.128-35.904 1.152-53.632-0.512-21.376-1.984-46.72 26.624-46.72 26.624l369.792 369.664zM1686.272 633.728c-29.248 28.032-75.392 27.264-103.744-1.6-27.776-28.352-28.032-75.904-0.512-104.256 28.48-29.248 77.76-29.248 106.496 0 29.12 29.632 28.224 76.864-2.24 105.856z" />
<glyph unicode="&#xe069;" d="M1275.136 951.936l46.592 408.704-1215.744-1215.872 180.992-180.992zM1625.856 1792l105.28-187.648 210.88-41.984-145.984-158.144 25.216-213.504-195.392 89.792-195.328-89.792 25.216 213.504-145.856 158.144 210.752 41.984zM1546.88 854.592l68.864-122.816 137.856-27.52-95.488-103.488 16.512-139.648-127.744 58.688-127.872-58.688 16.512 139.712-95.488 103.424 137.984 27.52zM996.736 1404.672l-122.752 68.8-27.584 138.048-103.424-95.552-139.712 16.512 58.752-127.808-58.752-127.808 139.712 16.448 103.552-95.424 27.328 137.92z" />
<glyph unicode="&#xe06a;" d="M1245.76 1266.624c-101.376 0-195.648-30.080-274.752-81.344l-273.152 273.152c4.992 17.152 8.512 34.816 8.512 53.568 0 105.984-86.016 192-192 192-106.112 0-192-86.016-192-192s85.888-192 192-192c15.36 0 30.272 2.304 44.608 5.76l273.344-273.344c-58.624-82.624-93.376-183.36-93.376-292.352 0-97.728 28.224-188.736 76.096-266.112l-283.392-283.52c-14.272 3.392-28.864 5.632-44.096 5.632-106.112 0-192-86.016-192-192s85.888-192 192-192c105.984 0 192 86.016 192 192 0 18.88-3.648 36.8-8.768 54.080l274.496 274.56c84.096-62.144 187.776-99.264 300.352-99.264 279.744 0 506.624 226.752 506.624 506.624 0.128 279.68-226.752 506.56-506.496 506.56z" />
<glyph unicode="&#xe06b;" d="M1661.248 1031.936c-8.768 21.312-18.624 41.792-29.248 61.696l103.744 218.368c-48.768 63.936-105.28 120.192-167.616 167.808l-218.496-103.808c-40.256 21.504-82.368 38.912-126.144 52.16l-80.896 227.968c-77.888 10.496-157.504 10.56-237.248-0.128l-81.024-227.776c-21.632-6.656-43.008-14.144-64.384-22.848-21.184-8.896-41.664-18.752-61.696-29.376l-218.368 103.744c-63.872-48.832-120.128-105.088-167.744-167.616l103.744-218.496c-21.376-40.192-38.848-82.368-52.032-126.080l-228.096-81.024c-10.496-77.952-10.496-157.44 0.256-237.184l227.648-81.024c6.528-21.632 14.272-43.072 22.976-64.384 8.896-21.248 18.624-41.792 29.248-61.696l-103.744-218.368c48.896-63.936 105.28-120.192 167.616-167.808l218.496 103.936c40.256-21.504 82.368-38.976 126.016-52.224l81.152-227.904c77.888-10.496 157.376-10.496 237.248 0.128l80.896 227.776c21.76 6.656 43.136 14.144 64.512 22.912 21.248 8.832 41.728 18.688 61.632 29.312l218.368-103.744c63.872 48.768 120.256 105.152 167.744 167.552l-103.808 218.56c21.376 40.128 38.848 82.368 52.032 126.016l228.032 81.024c10.624 77.888 10.624 157.504-0.128 237.248l-227.648 80.96c-6.656 21.632-14.272 43.072-23.040 64.32zM1245.76 232.64c-295.744-122.432-634.624 17.92-757.12 313.6-122.368 295.616 17.856 634.624 313.6 757.12 295.616 122.368 634.496-17.92 756.864-313.664 122.496-295.616-17.728-634.56-313.344-757.056zM1135.872 999.104c-45.248 0-87.104-13.376-122.368-36.224l-121.6 121.664c2.24 7.616 3.904 15.488 3.904 23.872 0 47.168-38.272 85.44-85.504 85.44s-85.504-38.272-85.504-85.44c0-47.296 38.272-85.504 85.504-85.504 6.848 0 13.504 1.024 19.904 2.56l121.6-121.728c-25.984-36.736-41.472-81.472-41.472-130.112 0-43.52 12.608-84.032 33.856-118.528l-126.272-126.208c-6.272 1.536-12.736 2.56-19.52 2.56-47.104 0-85.504-38.336-85.504-85.504s38.4-85.504 85.504-85.504c47.232 0 85.376 38.336 85.376 85.504 0 8.384-1.6 16.384-3.904 24.064l122.24 122.176c37.504-27.648 83.52-44.096 133.76-44.096 124.48 0 225.472 100.992 225.472 225.472s-100.992 225.536-225.472 225.536z" />
<glyph unicode="&#xe06c;" d="M1373.76 1274.624c-101.376 0-195.648-30.080-274.752-81.344l-273.152 273.152c4.992 17.152 8.512 34.816 8.512 53.568 0 105.984-86.016 192-192 192-106.112 0-192-86.016-192-192s85.888-192 192-192c15.36 0 30.272 2.304 44.608 5.76l273.344-273.344c-58.624-82.624-93.376-183.36-93.376-292.352 0-97.728 28.224-188.736 76.096-266.112l-283.392-283.52c-14.144 3.328-28.8 5.568-44.032 5.568-106.112 0-192-86.016-192-192s85.888-192 192-192c105.984 0 192 86.016 192 192 0 18.88-3.648 36.8-8.768 54.080l274.496 274.56c84.096-62.144 187.776-99.264 300.352-99.264 279.744 0 506.624 226.752 506.624 506.624 0.064 279.744-226.816 506.624-506.56 506.624zM1661.76 672h-192v-192h-192v192h-192v192h192v192h192v-192h192v-192z" />
<glyph unicode="&#xe06d;" d="M1373.76 1266.624c-101.376 0-195.648-30.080-274.752-81.344l-273.152 273.152c4.992 17.152 8.512 34.816 8.512 53.568 0 105.984-86.016 192-192 192-106.112 0-192-86.016-192-192s85.888-192 192-192c15.36 0 30.272 2.304 44.608 5.76l273.344-273.344c-58.624-82.624-93.376-183.36-93.376-292.352 0-97.728 28.224-188.736 76.096-266.112l-283.392-283.52c-14.272 3.392-28.864 5.632-44.096 5.632-106.112 0-192-86.016-192-192s85.888-192 192-192c105.984 0 192 86.016 192 192 0 18.88-3.648 36.8-8.768 54.080l274.496 274.56c84.096-62.144 187.776-99.264 300.352-99.264 279.744 0 506.624 226.752 506.624 506.624 0.128 279.68-226.752 506.56-506.496 506.56zM1645.248 624.256l-135.744-135.744-135.744 135.744-135.744-135.744-135.872 135.744 135.872 135.744-135.872 135.744 135.872 135.744 135.744-135.744 135.744 135.744 135.744-135.744-135.744-135.744 135.744-135.744z" />
<glyph unicode="&#xe06e;" d="M1373.76 1266.624c-101.376 0-195.648-30.080-274.752-81.344l-273.152 273.152c4.992 17.152 8.512 34.816 8.512 53.568 0 105.984-86.016 192-192 192-106.112 0-192-86.016-192-192s85.888-192 192-192c15.36 0 30.272 2.304 44.608 5.76l273.344-273.344c-58.624-82.624-93.376-183.36-93.376-292.352 0-97.728 28.224-188.736 76.096-266.112l-283.392-283.52c-14.272 3.392-28.864 5.632-44.096 5.632-106.112 0-192-86.016-192-192s85.888-192 192-192c105.984 0 192 86.016 192 192 0 18.88-3.648 36.8-8.768 54.080l274.496 274.56c84.096-62.144 187.776-99.264 300.352-99.264 279.744 0 506.624 226.752 506.624 506.624 0.128 279.68-226.752 506.56-506.496 506.56zM1661.76 664h-576v192h576v-192z" />
<glyph unicode="&#xe06f;" d="M1474.496 1295.296c0-110.634-89.686-200.32-200.32-200.32s-200.32 89.686-200.32 200.32c0 110.634 89.686 200.32 200.32 200.32s200.32-89.686 200.32-200.32zM1352.384 1012.608c-353.024 11.072-286.848 150.272-356.736 159.488 0 0-289.344 168.128-353.6 144.704-28.224-10.24-353.28-422.528-353.28-422.528l108.864-50.816c0 0 252.352 295.296 302.528 313.536 27.008 9.792 97.344-57.216 131.136-91.392-154.24-174.656-334.848-487.424-278.144-643.136 37.632-103.68 257.856-136.832 401.472-184.832 57.024-23.296 168.768-70.4 173.376-83.264 21.76-59.648-107.136-230.016-107.136-230.016l108.864-50.752c0 0 178.112 289.344 158.144 338.88-13.376 33.152-197.376 190.144-299.904 241.024-64.832 341.632 265.152 130.176 364.416 559.104zM1827.008 1077.376c0 0-145.152-203.84-195.264-222.144-32-11.584-121.728 79.104-202.24 124.864-13.376-47.744-41.472-128.384-58.24-165.888 99.904-56.128 262.528-139.136 318.656-118.72 28.224 10.368 246.144 331.136 246.144 331.136l-109.056 50.752zM508.48 308.224c-30.976-84.608-58.624-159.36-88.128-170.112-50.24-18.304-257.6 154.24-257.6 154.24l-50.88-108.864c0 0 275.136-238.464 366.656-205.12 50.112 18.24 181.12 129.728 239.232 236.096-59.136 22.016-172.416 55.872-209.28 93.76z" />
<glyph unicode="&#xe070;" d="M801.088 925.76l90.496 90.496-113.152 113.088 113.152 113.152-90.496 90.496-113.152-113.088-113.152 113.088-90.496-90.496 113.152-113.152-113.152-113.088 90.496-90.496 113.152 113.088zM1378.944 1536l-184.768-320h91.008v-593.6c0-105.856-86.144-192-192-192h-117.376c-105.856 0-192 86.144-192 192v156.224h-192v-156.224c0-199.488 152.128-363.392 346.688-382.144v-240.256h192v240.256c194.56 18.752 346.688 182.656 346.688 382.144v593.6h86.528l-184.768 320z" />
<glyph unicode="&#xe071;" d="M1554.56 1216l-184.768 320-184.768-320h91.008v-593.6c0-105.856-86.144-192-192-192h-117.376c-105.856 0-192 86.144-192 192v593.6h88.192l-184.768 320-184.64-320h89.28v-593.6c0-199.488 152.128-363.392 346.688-382.144v-240.256h192v240.256c194.56 18.752 346.688 182.656 346.688 382.144v593.6h86.464z" />
<glyph unicode="&#xe072;" d="M360.128 331.648c0-24.64 8.512-45.504 26.496-63.488l139.392-138.368c17.984-16.128 38.848-24.64 64.512-24.64 25.536 0 47.36 8.512 64.448 25.6l267.648 268.48c17.984 17.984 26.56 38.848 26.56 64.512 0 26.432-10.496 49.28-31.296 69.12-1.92-1.856-7.552-7.616-17.088-17.984l-20.864-20.864c-3.776-2.88-9.408-7.552-17.984-14.208-16.128-11.328-31.232-15.168-50.24-15.040-50.24-0.128-91.008 40.64-91.008 90.88-3.84 25.536 17.152 54.976 30.336 68.224 2.88 3.776 9.472 10.368 19.968 20.032l17.984 17.92c-18.944 19.968-41.664 30.4-68.224 30.4-25.6-0.064-46.464-8.576-64.448-26.56l-269.568-269.504c-18.112-18.048-26.624-38.912-26.624-64.512v0zM1098.88 1072.32c0-26.56 10.496-49.344 31.232-69.184l17.984 17.984c9.6 10.368 16.256 17.088 20.032 19.904 3.776 3.84 9.472 8.512 17.984 14.208 16.192 12.288 31.232 16.128 50.24 16.128 50.24 0.064 91.008-40.768 91.008-91.008 3.776-25.536-17.152-54.912-29.376-68.224l-20.864-20.8c-10.432-9.472-16.128-15.232-17.984-17.152 18.944-19.904 41.728-29.312 68.224-29.312 25.536 0 47.36 8.512 64.448 25.536l269.504 269.504c18.048 17.984 26.56 38.848 26.56 64.512 0 24.64-8.512 45.504-26.56 63.488l-139.328 138.368c-18.048 17.088-39.872 25.6-64.512 25.6-25.6 0-46.464-8.576-64.448-26.56l-267.712-268.544c-17.792-18.048-26.432-38.912-26.432-64.448v0zM178.112 331.648c0 75.904 26.496 140.352 79.616 193.344l269.504 269.504c52.992 53.12 117.504 79.616 193.344 79.68 76.736-0.064 143.104-27.52 197.184-83.456l83.456 83.456c-55.936 54.016-83.52 120.32-83.456 198.080-0.064 75.904 26.56 140.352 78.656 192.512l267.648 268.544c52.096 54.016 116.608 80.576 193.344 80.576 75.904 0 140.288-26.496 192.448-78.656l139.392-138.496c54.080-52.096 80.576-116.544 80.576-192.384 0-75.904-26.496-140.352-79.616-193.472l-269.504-269.504c-53.12-52.992-117.568-79.552-193.344-79.616-76.736 0-143.168 27.648-197.248 83.52l-83.392-83.52c55.872-53.952 83.392-120.384 83.392-198.016 0-75.904-26.496-140.352-78.656-192.512l-267.648-268.608c-52.096-54.016-116.608-80.512-193.344-80.512-75.904 0-140.352 26.496-192.448 78.656l-139.456 138.496c-53.952 52.096-80.448 116.48-80.448 192.384z" />
<glyph unicode="&#xe073;" d="M362.496 1044.288h288v-85.312h-288v85.312zM472.126 1308.064l60.478 60.17 203.126-204.164-60.478-60.17-203.126 204.164zM796.736 1476.472l85.248-0.376-1.268-288-85.248 0.376 1.268 288zM1440 560.896h288v-85.248h-288v85.248zM1618.312 211.838l-60.512-60.136-203.012 204.278 60.512 60.136 203.012-204.278zM1293.78 43.38l-85.376 0.376 1.268 288 85.376-0.376-1.268-288zM893.376 492.352c15.488-17.856 23.744-37.824 23.744-60.608 0-25.6-8.64-46.528-26.624-64.512l-267.648-268.48c-17.024-17.152-38.848-25.6-64.384-25.6-25.6 0-46.528 8.512-64.512 24.64l-139.392 138.368c-17.984 17.984-26.496 38.848-26.496 63.488 0 25.6 8.512 46.528 26.496 64.512l269.568 269.44c12.992 12.864 65.6 15.424 101.504 8.576l136.64 136.704c-49.472 41.472-107.392 63.296-173.632 63.296-75.904-0.064-140.352-26.56-193.344-79.68l-269.504-269.504c-53.12-52.992-79.616-117.504-79.616-193.344s26.496-140.224 80.512-192.384l139.392-138.496c52.096-52.096 116.608-78.656 192.512-78.656 76.736 0 141.248 26.496 193.344 80.512l267.648 268.608c52.096 52.096 78.656 116.608 78.656 192.512 0 73.664-25.6 136.96-76.032 189.376l-128.832-128.768zM1821.248 1428.736l-139.392 138.496c-52.096 52.032-116.48 78.656-192.384 78.656-76.864 0-141.248-26.56-193.344-80.576l-267.648-268.544c-52.096-52.096-78.72-116.608-78.72-192.448 0-67.072 21.888-125.12 63.36-174.656l129.984 129.984c-7.872 13.696-12.224 28.352-12.224 44.672 0 25.536 8.512 46.464 26.496 64.448l267.648 268.544c17.984 17.984 38.848 26.56 64.512 26.56 24.64 0 46.4-8.576 64.512-25.6l139.264-138.368c18.112-17.984 26.624-38.848 26.624-63.488 0-25.6-8.512-46.528-26.624-64.512l-269.568-269.504c-17.024-17.088-38.848-25.6-64.384-25.6-22.72 0-42.496 7.36-59.776 21.888l-128.768-128.896c52.352-50.304 115.52-76.032 188.48-76.032 75.776 0 140.224 26.56 193.344 79.616l269.504 269.504c53.12 53.056 79.616 117.568 79.616 193.408 0.128 75.904-26.368 140.416-80.512 192.448z" />
<glyph unicode="&#xe074;" d="M768 1536h1024v-256h-1024v256zM768 896h512v-256h-512v256zM768 256h768v-256h-768v256zM577.472 32l-96 96 96 96-64 64-96-96-96 96-64-64 96-96-96-96 64-64 96 96 96-96zM581.824 1568l-187.776-187.776-102.72 102.784-66.368-66.368 168.576-168.64 0.64 0.64 0.512-0.64 253.632 253.504zM581.824 928l-187.776-187.776-102.72 102.784-66.368-66.368 168.576-168.64 0.64 0.64 0.512-0.64 253.632 253.504z" />
<glyph unicode="&#xe075;" d="M256 319.936h1536v-447.872h-1536v447.872zM674.816 704.064h141.184v192h-240l-320-448.128h241.344zM1264 704.064h109.184l168.128-256.128h250.688l-320 448.128h-208zM939.584 1145.216h4.416v-562.24h-64c-70.656 0-128-57.28-128-128l2.176-6.976h571.648l2.176 6.976c0 70.72-57.344 128-128 128h-64v562.24h4.416c70.656 0 128 57.344 128 128v136c0 70.656-57.344 127.936-128 127.936h-200.896c-70.656 0-128-57.28-128-127.936v-136c0.064-70.656 57.408-128 128.064-128zM939.584 1441.216h200.896v-200.128h-200.896v200.128z" />
<glyph unicode="&#xe076;" d="M836.736 1504.896v-1499.2h987.264l-987.264 1499.2zM1028.736 864.192l438.848-666.624h-438.848v666.624zM1337.344 1093.696h294.656v-447.488l128-194.368v769.856h-506.88zM644.736 261.568h-292.736v832.128h292.736v128h-420.736v-1088.128h420.736z" />
<glyph unicode="&#xe077;" d="M1217.856 508.288v-263.744l574.144 574.144-1.728 1.728 1.728 1.792-574.144 574.080v-263.744l304.384-312.128zM830.144 1140.16v256l-574.144-574.080 1.728-1.792-1.728-1.728 574.144-574.144v263.744l-304.384 312.128z" />
<glyph unicode="&#xe078;" d="M1024 1152c-211.776 0-384-172.224-384-384s172.224-384 384-384 384 172.224 384 384-172.224 384-384 384zM1024 1536c-424.192 0-768-343.872-768-768s343.808-768 768-768 768 343.872 768 768-343.808 768-768 768zM1024 192c-317.632 0-576 258.368-576 576s258.368 576 576 576 576-258.368 576-576-258.368-576-576-576z" />
<glyph unicode="&#xe079;" d="M928 192h192v-192h672l-256 1536h-1024l-256-1536h672v192zM928 1344h192v-384h-192v384zM928 768h192v-384h-192v384z" />
<glyph unicode="&#xe07a;" d="M512 768c0 140.032 56.576 267.008 148.032 359.488l-315.52 182.144c-22.336 12.864-47.232 19.328-72.192 19.328-24.896 0-49.792-6.464-72.128-19.328-44.672-25.792-72.192-73.472-72.192-124.992v-833.28c0-51.584 27.52-99.2 72.192-124.992 22.336-12.864 47.232-19.328 72.128-19.328 24.96 0 49.856 6.464 72.192 19.328l315.456 182.144c-91.392 92.544-147.968 219.456-147.968 359.488zM1847.808 1309.632c-22.336 12.864-47.232 19.328-72.128 19.328-24.96 0-49.856-6.464-72.192-19.328l-315.52-182.144c91.456-92.48 148.032-219.52 148.032-359.488s-56.576-266.944-147.968-359.488l315.456-182.144c22.336-12.864 47.232-19.328 72.192-19.328 24.896 0 49.792 6.464 72.128 19.328 44.672 25.792 72.192 73.472 72.192 124.992v833.28c0 51.52-27.52 99.2-72.192 124.992zM1024 1088c-176.704 0-320-143.232-320-320s143.296-320 320-320 320 143.232 320 320-143.296 320-320 320z" />
<glyph unicode="&#xe07b;" d="M701.568 325.248v1003.136c-128.32-792.512-334.656-552.384-501.568-1217.984 7.168 0.64 1638.016 2.112 1648 0-166.976 665.6-373.376 425.472-501.568 1217.984v-1003.136h-644.864zM844.8 467.264h358.336c0 0 0 648.256 0 890.624-23.104 132.864-109.056 321.6-179.264 321.6-70.144 0-156.032-188.736-179.072-321.6 0-242.368 0-890.624 0-890.624zM737.344-143.488h-358.208l71.552 143.36h214.976zM1668.8-143.488h-358.272l71.744 143.36h214.848z" />
<glyph unicode="&#xe07c;" d="M740.736 233.152v662.208c-84.672-523.2-220.928-364.736-331.136-804.096 4.736 0.384 1081.344 1.344 1088 0-110.272 439.36-246.528 280.96-331.136 804.096v-662.272h-425.728zM835.328 326.848h236.544c0 0 0 428.032 0 588.032-15.232 87.68-72 212.224-118.336 212.224s-103.040-124.544-118.272-212.224c0.064-160.064 0.064-588.032 0.064-588.032zM764.352-76.352h-236.48l47.232 94.592h141.952zM1379.328-76.352h-236.608l47.424 94.592h141.888zM1701.76 974.4c-25.856 151.232-96.576 296.256-213.312 412.992-299.968 299.968-786.176 299.968-1086.144 0-186.496-186.496-256.832-444.992-211.456-686.016h197.056c-48.704 190.592 0.96 401.088 150.208 550.272 224.896 224.96 589.632 224.96 814.592 0 79.104-79.104 129.792-175.744 153.344-277.248h-147.52l255.872-443.392 256.128 443.392h-168.768z" />
<glyph unicode="&#xe07d;" d="M192 772.352l343.232-158.336 832 506.112-633.216-596.352 474.88-213.632 647.104 1250.24zM733.76 402.112v-426.496l170.368 349.888z" />
<glyph unicode="&#xe07e;" d="M1423.36 1599.872h-798.848c-35.648 0-64.512-28.608-64.512-64v-1535.744c0-35.392 28.864-64 64.512-64h798.848c35.776 0 64.64 28.608 64.64 64v1535.744c0 35.392-28.864 64-64.64 64zM1024-28.992c-52.864 0-96 42.88-96 95.872 0 53.12 43.136 96 96 96 52.992 0 96-42.88 96-96 0-52.992-43.008-95.872-96-95.872zM1360 195.264h-672v1280h672v-1280z" />
<glyph unicode="&#xe07f;" d="M1728 1360h-1408c-35.392 0-64-28.608-64-64v-1056c0-35.392 28.608-64 64-64h1408c35.392 0 64 28.608 64 64v1056c0 35.392-28.608 64-64 64zM1024 208c-35.264 0-64 28.672-64 64 0 35.392 28.736 64 64 64 35.392 0 64-28.608 64-64 0-35.328-28.608-64-64-64zM1666.752 373.376h-1288v858.624h1288v-858.624z" />
<glyph unicode="&#xe080;" d="M1792 384v896c0 35.392-28.608 64-64 64h-1408c-35.392 0-64-28.608-64-64v-896h-128c5.632-71.488 62.848-192 133.632-192h1524.864c70.656 0 128 120.512 133.504 192h-128zM1664 384h-1280v816h1280v-816z" />
<glyph unicode="&#xe081;" d="M1856 1376.512h-1664c-35.392 0-64-28.608-64-64v-1024c0-35.392 28.608-64 64-64h1664c35.392 0 64 28.608 64 64v1024c0 35.392-28.608 64-64 64zM1792 368.512h-1536v864h1536v-864zM512 133.888h1024v-192h-1024v192z" />
<glyph unicode="&#xe082;" d="M1582.016 850.688c-7.744 124.288-110.72 222.848-236.992 222.848-35.648 0-69.248-8.064-99.648-22.144-70.272 145.472-219.264 245.888-391.744 245.888-239.488 0-433.728-193.536-435.008-432.768-111.744-52.416-189.248-166.016-189.248-297.664 0-175.36 137.28-318.656 310.272-328.192h1001.728c155.904 16.832 277.12 149.952 277.12 310.272 0 145.92-100.736 268.416-236.48 301.76zM1025.728 359.744l-1.728 1.728-1.728-1.728-382.144 382.144 135.744 135.744 248.128-248.128 248.128 248.128 135.744-135.744-382.144-382.144z" />
<glyph unicode="&#xe083;" d="M1582.016 850.688c-7.744 124.288-110.72 222.848-236.992 222.848-35.648 0-69.248-8.064-99.648-22.144-70.272 145.472-219.264 245.888-391.744 245.888-239.488 0-433.728-193.536-435.008-432.768-111.744-52.416-189.248-166.016-189.248-297.664 0-175.36 137.28-318.656 310.272-328.192h1001.728c155.904 16.832 277.12 149.952 277.12 310.272 0 145.92-100.736 268.416-236.48 301.76zM1272.128 434.368l-248.128 248.128-248.128-248.128-135.744 135.744 382.144 382.144 1.728-1.728 1.728 1.728 382.144-382.144-135.744-135.744z" />
<glyph unicode="&#xe084;" d="M928 643.008l-624.512 360.512v-716.736l624.512-360.512zM1024.256 809.152l628.224 362.752-628.48 362.816-628.224-362.752zM1120 642.752v-716.608l624.512 360.64v716.608z" />
<glyph unicode="&#xe085;" d="M1936.512 1267.136h-288v288h-192v-288h-288v-192h288v-288h192v288h288zM735.936 680.512l-624.448 360.512v-716.736l624.448-360.512zM1328.512 659.136v252.352l-400.576-231.232v-716.608l624.576 360.64v334.848zM1040.512 1449.344l-208.512 122.88-628.288-362.752 628.48-362.816 208.32 120.256z" />
<glyph unicode="&#xe086;" d="M1836.544 932.736c-119.424 339.264-301.312 444.032-458.816 384-51.52-19.52-69.952-75.264-123.52-104.128-62.656-33.6-397.888-33.6-460.416 0-53.568 28.864-72.064 84.608-123.456 104.128-157.504 60.032-339.456-44.736-458.944-384-119.424-339.264-88.32-662.848 69.248-722.752 123.456-47.104 177.984 173.504 410.816 303.232 105.536 58.88 565.248 66.368 665.152 0 220.16-146.752 287.36-350.4 410.816-303.232 157.568 59.904 188.608 383.488 69.12 722.752zM609.28 606.016c-141.44 0-256 114.624-256 256s114.56 256 256 256 256-114.624 256-256-114.624-256-256-256zM1442.496 1086.016c43.648 0 78.912-35.264 78.912-78.848s-35.328-78.848-78.912-78.848c-43.584 0-78.848 35.264-78.848 78.848s35.264 78.848 78.848 78.848zM1297.408 783.104c-43.648 0-78.912 35.264-78.912 78.848s35.328 78.848 78.912 78.848c43.584 0 78.848-35.264 78.848-78.848s-35.264-78.848-78.848-78.848zM1442.496 638.016c-43.584 0-78.848 35.392-78.848 78.848 0 43.648 35.328 78.976 78.848 78.976 43.648 0 78.912-35.392 78.912-78.976 0-43.52-35.264-78.848-78.912-78.848zM1587.648 783.104c-43.648 0-78.912 35.264-78.912 78.848s35.328 78.848 78.912 78.848c43.584 0 78.848-35.264 78.848-78.848s-35.328-78.848-78.848-78.848zM610.24 1054.016c-105.792 0.64-192.448-85.12-193.024-190.976s85.12-192.384 190.976-193.024c105.792-0.512 192.448 85.12 193.024 190.976s-85.12 192.512-190.976 193.024z" />
<glyph unicode="&#xe087;" d="M610.24 926.144c-105.856 0.64-192.512-85.12-193.024-190.976-0.64-105.856 85.12-192.384 190.976-193.024 105.728-0.512 192.384 85.12 193.024 190.976 0.512 105.984-85.12 192.512-190.976 193.024zM840.64 626.24c-40.768-87.232-128.64-148.096-231.36-148.096-141.504 0-256 114.624-256 256s114.496 256 256 256c102.656 0 190.656-60.736 231.36-148.032v229.632c-20.608 3.648-37.248 7.872-46.848 12.992-53.504 28.864-72 84.608-123.392 104.128-157.504 60.032-339.52-44.736-459.008-384-119.36-339.264-88.256-662.976 69.248-722.88 123.52-46.976 177.984 173.504 410.88 303.232 28.48 15.872 83.136 28.032 149.12 35.904v205.12zM1836.48 804.864c-119.36 339.264-301.248 444.032-458.752 384-51.52-19.52-70.016-75.264-123.52-104.128-9.6-5.12-26.368-9.344-46.848-12.992v-648.128c66.88-7.616 121.728-20.096 149.248-38.4 220.096-146.752 287.36-350.272 410.752-303.232 157.632 59.904 188.672 383.616 69.12 722.88zM1442.496 958.144c43.648 0 78.848-35.264 78.848-78.848s-35.264-78.848-78.848-78.848-78.848 35.264-78.848 78.848 35.2 78.848 78.848 78.848zM1297.344 655.232c-43.648 0-78.848 35.392-78.848 78.848 0 43.648 35.264 78.976 78.848 78.976s78.848-35.392 78.848-78.976c0.064-43.456-35.2-78.848-78.848-78.848zM1442.496 510.144c-43.648 0-78.848 35.392-78.848 78.976 0 43.52 35.264 78.848 78.848 78.848s78.848-35.392 78.848-78.848c0-43.648-35.2-78.976-78.848-78.976zM1587.648 655.232c-43.648 0-78.976 35.392-78.976 78.848 0 43.648 35.392 78.976 78.976 78.976 43.52 0 78.848-35.392 78.848-78.976 0-43.456-35.392-78.848-78.848-78.848zM1322.496 1249.472l-298.496 418.176-298.624-418.176h179.264v-751.488h238.72v751.488z" />
<glyph unicode="&#xe088;" d="M959.936 1472c-424.128 0-768-343.872-768-768s343.872-768 768-768 768 343.872 768 768h-768v768zM1087.936 1600v-768h768c0 424.128-343.872 768-768 768z" />
<glyph unicode="&#xe089;" d="M223.936 384h256v-384h-256v384zM671.936 640h256v-640h-256v640zM1119.936 1024h256v-1024h-256v1024zM1567.936 1536h256v-1536h-256v1536z" />
<glyph unicode="&#xe08a;" d="M448 768c0 317.632 258.368 576 576 576s576-258.368 576-576c0-55.488-8.32-108.992-23.040-159.872h198.208c10.816 51.648 16.832 105.024 16.832 159.872 0 424.128-343.808 768-768 768s-768-343.872-768-768c0-54.848 6.016-108.224 16.896-159.872h198.144c-14.72 50.88-23.040 104.384-23.040 159.872zM1576.96 608.128h-297.6c-3.52-138.112-116.352-249.6-255.36-249.6s-251.904 111.488-255.36 249.6h-495.744c73.6-347.392 381.76-608.128 751.104-608.128s677.504 260.736 751.104 608.128h-198.144zM1152 614.528c0-70.692-57.308-128-128-128s-128 57.308-128 128c0 70.692 57.308 128 128 128s128-57.308 128-128zM1379.614 1068.832l48.112-42.108-368.816-421.4-48.112 42.108 368.816 421.4zM992 1279.616h64v-256h-64v256zM512.064 800h192v-64h-192v64zM1347.776 800h192v-64h-192v64z" />
<glyph unicode="&#xe08b;" d="M1943.488 1346.496l-341.568 341.568-507.456-126.080-989.952-990.016 724.096-724.032 989.952 989.952 124.928 508.608zM828.608 28.928l-543.040 543.040 868.416 868.48 402.944 111.552 250.496-250.496-111.936-405.632-866.88-866.944zM1638.592 1222.016c0-88.366-71.634-160-160-160s-160 71.634-160 160c0 88.366 71.634 160 160 160s160-71.634 160-160zM1358.484 739.876l-529.884-529.884-361.99 361.99 529.884 529.884 361.99-361.99z" />
<glyph unicode="&#xe08c;" d="M314.432 861.76c48 0 85.76 9.28 113.152 27.904s41.152 44.864 41.152 78.72v159.232c0 58.048 10.24 101.568 30.656 130.368 20.416 28.864 53.824 49.856 100.032 62.976 46.208 13.184 110.080 19.776 191.552 19.776v-174.848c-37.248-1.28-62.4-4.096-75.584-8.512s-23.68-11.2-31.68-20.352c-7.872-9.216-11.904-21.76-11.904-37.632v-169.856c0-47.232-11.84-83.52-35.456-108.864-23.616-25.28-61.952-41.6-115.072-49.216v-7.552c53.504-8.32 92.032-24.896 115.392-49.472s35.136-59.584 35.136-104.704v-173.056c0-16.32 4.352-29.056 13.12-38.272 8.832-9.216 20.48-16 35.136-20.352s38.272-7.232 70.848-8.512v-174.272c-82.368 0-146.496 6.656-192.512 20.032s-79.104 34.624-99.392 63.616c-20.224 29.056-30.336 73.088-30.336 131.968v155.52c0 33.472-14.016 59.648-41.984 78.4-28.032 18.88-65.472 28.224-112.256 28.224v188.736zM1733.568 673.024c-46.4 0-83.584-9.344-111.552-28.224-28.032-18.752-41.984-44.864-41.984-78.4v-155.52c0-58.496-10.24-102.4-30.72-131.648-20.416-29.248-53.696-50.624-99.712-64s-109.952-20.032-191.872-20.032v174.272c45.12 1.664 76.224 7.872 93.44 18.496 17.152 10.688 25.664 26.88 25.664 48.64v173.056c0 45.12 11.776 80.064 35.136 104.704s61.888 41.216 115.392 49.472v7.552c-53.12 7.552-91.456 23.936-115.072 49.216-23.616 25.344-35.456 61.632-35.456 108.864v169.856c0 16.32-4.032 28.928-12.224 37.952-8.128 9.024-18.56 15.68-31.296 20.032s-37.952 7.232-75.584 8.512v174.912c81.92 0 145.856-6.592 191.872-19.776 46.016-13.12 79.232-34.112 99.712-62.976 20.48-28.8 30.72-72.32 30.72-130.368v-159.232c0-33.856 13.568-60.096 40.768-78.72s64.832-27.904 112.832-27.904v-188.736z" />
<glyph unicode="&#xe08d;" d="M1663.104 0.128h-640v192h640v-192zM385.024 455.872l128-135.744 446.080 446.144-1.728 1.728 1.728 1.728-446.080 446.144-128-135.744 304.32-312.128z" />
<glyph unicode="&#xe08e;" d="M1024 872l768 400.512v100.864h-1536v-100.992zM1024 655.104l-768 400.384v-892.864h1536v892.864z" />
<glyph unicode="&#xe08f;" d="M576 1216h896v-128h-896v128zM576 960h896v-128h-896v128zM576 704h896v-128h-896v128zM576 448h492.032v-128h-492.032v128zM384 1536v-1536h896l384 384v1152h-1280zM1280 384v-320h-832v1344h1152v-1024h-320z" />
<glyph unicode="&#xe090;" d="M320 1536h1408v-128h-1408v128zM320 0h1408v-128h-1408v128zM1536 1183.936v96.064h-1024v-96.064c0-212.032 233.984-233.984 384-384 33.856-33.856 33.856-158.016 0-191.936-150.016-149.952-384-171.968-384-384v-96h1024v96c0 212.032-234.112 234.048-384 384-33.984 33.92-33.984 158.080 0 191.936 149.888 150.016 384 171.968 384 384zM1061.504 890.432c-15.36-15.232-27.904-34.624-37.504-56.576-9.728 21.952-22.272 41.344-37.504 56.576-64.384 64.384-137.152 106.944-201.344 144.512-91.776 53.632-129.152 80.256-140.736 117.056h759.232c-11.648-36.8-49.152-63.424-140.864-117.056-64.128-37.568-136.896-80.128-201.28-144.512z" />
<glyph unicode="&#xe091;" d="M1024 1536c-424.128 0-768-343.808-768-768s343.872-768 768-768c424.256 0 768 343.808 768 768s-343.744 768-768 768zM1024 192c-318.144 0-576 257.856-576 576s257.856 576 576 576 576-257.856 576-576-257.856-576-576-576zM1359.488 1082.56v62.848h-670.976v-62.848c0-139.008 153.472-153.344 251.648-251.648 22.272-22.272 22.272-103.488 0-125.76-98.112-98.24-251.648-112.768-251.648-251.648v-62.976h670.976v62.976c0 138.88-153.344 153.344-251.648 251.648-22.272 22.272-22.272 103.488 0 125.76 98.304 98.304 251.648 112.64 251.648 251.648zM1048.64 890.176c-9.984-9.984-18.24-22.72-24.64-37.12-6.272 14.4-14.528 27.136-24.512 37.12-42.24 42.112-89.856 70.144-131.904 94.656-60.096 35.264-84.736 52.608-92.352 76.736h497.6c-7.616-24.128-32.256-41.472-92.352-76.736-41.984-24.512-89.6-52.544-131.84-94.656z" />
<glyph unicode="&#xe092;" d="M1072.64 1288v-91.008c24.256-4.032 46.016-10.24 65.344-18.496 19.392-8.512 38.528-20.48 57.28-36.224s33.472-38.656 44.224-68.736c10.624-30.272 16-72.384 16-126.656h-200.896v64.256c0 30.144-4.736 48.128-14.144 53.76-9.344 5.76-17.984 8.64-26.112 8.64-4.608 0-9.984-1.6-16-4.608-6.144-3.008-10.624-8.896-13.632-17.472-3.008-8.768-4.864-15.616-5.504-20.608-0.768-4.992-1.024-12.608-1.024-22.656 0-30.72 7.104-54.272 21.632-70.4 14.4-16 41.984-36.096 82.88-60.224l30.144-17.152c60.992-34.752 103.488-71.744 127.616-110.976 24.128-39.104 36.096-83.904 36.096-134.144 0-20.032-3.136-51.392-9.472-93.888-6.272-42.624-25.856-78.016-58.496-106.496s-78.016-47.744-136-57.856v-108.992h-103.104v110.144c-28.992 6.016-53.376 13.376-73.28 22.016-20.032 8.768-41.28 23.488-63.744 44.224-22.656 20.736-38.976 47.488-49.152 80.384-8.128 31.488-12.096 67.648-12.096 108.48v42.24h204.032v-60.288l3.008-65.344c1.984-17.344 6.848-28.992 14.528-34.624 7.744-5.76 15.616-8.512 23.616-8.512 6.144 0 12.032 1.472 17.6 4.352 5.76 3.136 10.624 9.28 14.656 18.624s6.016 23.744 6.016 43.264c0 50.88-4.736 83.392-14.144 97.472-8 14.016-38.848 38.528-92.352 73.28l-22.144 13.12c-56.896 32.768-97.152 65.6-120.512 98.368-22.848 35.648-34.24 74.752-34.24 117.632 0 19.392 4.032 49.856 12.096 91.52 8 41.472 26.24 73.152 54.72 94.848 28.352 21.76 74.112 41.024 137.152 57.728v91.008h97.408zM1024 1536c-424.256 0-768-343.872-768-768s343.744-768 768-768c424.128 0 768 343.872 768 768s-343.872 768-768 768zM1024 192c-317.632 0-576 258.368-576 576s258.368 576 576 576 576-258.368 576-576-258.368-576-576-576z" />
<glyph unicode="&#xe093;" d="M972.032 651.072c64.512-28.736 140.224 0.256 169.024 64.896 6.72 15.36 10.112 31.232 10.752 46.976l483.392 275.136-63.232 111.232-480.128-273.28c-4.992 3.136-9.984 6.528-15.488 8.896-32.64 14.656-68.096 14.272-98.88 2.112l-248.128 194.24-78.848-100.736 247.616-193.856c-8.256-55.36 20.288-111.744 73.92-135.616zM1766.016 965.312l-174.4-99.264c18.88-108.736 6.848-224.256-41.472-332.608-129.472-290.624-470.016-420.992-760.64-291.648-290.496 129.6-420.992 470.272-291.52 760.896 129.472 290.496 470.144 420.992 760.64 291.52 54.272-24.256 102.976-55.872 145.344-92.992l173.76 98.752c-66.752 69.632-147.52 127.872-240.896 169.6-387.456 172.544-841.472-1.408-1014.208-388.736-172.736-387.52 1.28-841.6 388.736-1014.144 387.392-172.736 841.344 1.28 1014.144 388.48 74.496 167.040 84.096 346.24 40.512 510.144z" />
<glyph unicode="&#xe094;" d="M1691.008 975.040c134.656 134.72 134.656 353.28 0 487.872-17.344 17.344-36.032 32.192-55.872 45.12v-228.864l-188.096-135.872-188.16 135.872v228.8c-19.776-12.864-38.528-27.776-55.744-45.056-94.656-94.528-53.632-227.52-83.136-349.12-60.736-250.624-661.504-703.744-793.984-801.28-7.488-4.352-14.272-9.472-20.864-15.232-3.264-2.368-5.376-3.904-5.376-3.904l0.256-0.256c-0.768-0.768-1.728-1.28-2.624-2.112-57.6-57.6-54.72-153.984 6.528-215.104 61.248-61.248 157.632-64.128 215.36-6.528 0.768 0.768 1.28 1.728 1.984 2.624l0.256-0.256c0 0 1.6 2.112 3.904 5.248 5.76 6.72 11.008 13.504 15.232 20.864 97.472 132.48 550.656 733.376 801.152 794.112 121.536 29.44 254.528-11.392 349.184 83.072zM474.88 113.792c-33.152-33.152-89.856-30.272-126.656 6.528-36.608 36.48-39.616 93.376-6.528 126.528 33.152 33.024 89.984 30.144 126.656-6.528 36.672-36.736 39.68-93.504 6.528-126.528z" />
<glyph unicode="&#xe095;" d="M571.392 104.96c6.72 7.744 12.736 15.744 17.728 24.256 79.232 107.648 358.528 478.656 620.096 719.872l-151.616 151.616c-241.28-261.632-612.096-541.12-719.744-620.224-8.64-4.992-16.64-11.136-24.384-17.728-3.776-2.752-6.272-4.48-6.272-4.48l0.256-0.384c-0.896-0.896-2.112-1.472-3.008-2.368-67.52-67.52-64.128-180.352 7.616-252.032 71.616-71.616 184.512-75.008 252.032-7.616 0.896 1.024 1.472 2.24 2.368 3.136l0.256-0.256c0-0.064 1.92 2.432 4.672 6.208zM1558.4 1081.408c-33.856 33.728-25.024 68.352-5.632 109.376l-192.896 192.768c-123.776 54.272-392.384 151.040-557.504 80l0.896-0.896c167.488-8.896 402.88-190.272 402.88-285.632 0-29.376-24-46.4-46.272-70.976l154.112-153.984c40.896 19.392 75.52 28.224 109.376-5.632 33.984-33.856 40.64-84.096 21.248-125.12l108.608-108.608 238.784 238.848-108.608 108.48c-40.896-19.328-91.136-12.48-124.992 21.376z" />
<glyph unicode="&#xe096;" d="M808.512 594.432c-116.096-95.488-217.6-171.52-263.744-205.376-7.488-4.48-14.528-9.728-21.248-15.616-3.264-2.368-5.504-3.904-5.504-3.904l0.256-0.256c-0.768-0.896-1.728-1.344-2.624-2.112-58.88-58.88-55.872-157.248 6.656-219.776 62.528-62.4 160.896-65.344 219.648-6.656 0.896 0.896 1.344 1.856 2.112 2.752l0.384-0.384c0 0 1.472 2.24 3.904 5.504 5.888 6.72 11.136 13.76 15.488 21.248 33.6 45.76 108.864 145.984 203.392 261.12-56.96 63.488-110.464 118.464-158.72 163.456zM1256.384 730.688c-39.744 37.888-82.752 82.112-127.872 131.904 13.632 13.888 143.36 148.224 143.36 148.224 19.264 21.504 40.256 36.224 40.256 61.888 0 83.136-205.248 241.28-351.232 249.024l-0.768 0.768c144 62.016 378.112-22.528 486.016-69.76l168-168c-16.896-35.776-24.512-65.856 4.992-95.36s73.28-35.52 108.864-18.496l94.72-94.656-208.128-208.256-94.656 94.72c16.896 35.648 11.008 79.488-18.496 108.992-29.632 29.504-59.776 21.76-95.36 4.864l-149.696-145.856zM778.624 1338.048c-116.352 116.352-305.024 116.352-421.376 0-14.848-14.976-27.776-31.104-38.848-48.256h197.76l117.248-162.496-117.248-162.496h-197.76c11.136-17.024 24-33.152 38.848-48.128 81.728-81.6 196.608-46.272 301.632-71.744 216.512-52.48 607.744-571.392 691.904-685.888 3.776-6.4 8.256-12.224 13.248-17.984 1.984-2.752 3.392-4.608 3.392-4.608l0.128 0.128c0.768-0.64 1.152-1.472 1.856-2.112 49.728-49.728 132.992-47.232 185.856 5.632 52.864 52.736 55.488 136 5.632 185.856-0.768 0.64-1.472 1.152-2.24 1.728l0.256 0.256c0 0-1.856 1.344-4.608 3.392-5.76 4.864-11.648 9.344-17.984 13.12-114.624 84.224-633.344 475.648-685.888 692.032-25.408 104.96 9.92 219.84-71.808 301.568zM1522.624 287.552c28.48-28.48 25.984-77.632-5.632-109.248-31.744-31.744-80.768-34.24-109.376-5.632s-26.112 77.632 5.632 109.376c31.616 31.616 80.768 34.112 109.376 5.504z" />
<glyph unicode="&#xe097;" d="M1024 1536c-424.128 0-768-343.808-768-767.936 0-424.256 343.872-768 768-768s768 343.744 768 768c0 424.128-343.872 767.936-768 767.936zM704 1088.064c70.656 0 128-57.28 128-128s-57.344-128-128-128c-70.72 0-128 57.28-128 128s57.28 128 128 128zM1024 231.168c-177.152 0-335.744 99.264-444.224 256h888.384c-108.544-156.736-267.008-256-444.16-256zM1344 832.064c-70.72 0-128 57.28-128 128s57.28 128 128 128c70.656 0 128-57.28 128-128s-57.344-128-128-128z" />
<glyph unicode="&#xe098;" d="M1024 1536c-424.128 0-768-343.808-768-767.936 0-424.256 343.872-768 768-768s768 343.744 768 768c0 424.128-343.872 767.936-768 767.936zM473.728 820.416l139.776 139.648-139.776 139.776 90.624 90.368 139.648-139.648 139.52 139.648 90.624-90.496-139.648-139.648 139.648-139.648-90.496-90.496-139.776 139.648-139.52-139.648-90.624 90.496zM1404.608 321.344h-768v128h768v-128zM1483.648 729.92l-139.776 139.648-139.52-139.648-90.624 90.496 139.776 139.648-139.776 139.776 90.624 90.368 139.648-139.648 139.52 139.648 90.624-90.496-139.648-139.648 139.648-139.648-90.496-90.496z" />
<glyph unicode="&#xe099;" d="M1024 1536c-424.128 0-768-343.808-768-767.936 0-424.256 343.872-768 768-768s768 343.744 768 768c0 424.128-343.872 767.936-768 767.936zM704 1088.064c70.72 0 128-57.28 128-128s-57.28-128-128-128c-70.656 0-128 57.28-128 128s57.344 128 128 128zM579.904 359.040c108.48 156.608 267.008 256 444.096 256s335.744-99.392 444.224-256h-888.32zM1483.648 729.92l-139.648 139.648-139.648-139.648-90.496 90.496 139.648 139.648-139.648 139.776 90.496 90.368 139.648-139.648 139.648 139.648 90.624-90.496-139.776-139.648 139.776-139.648-90.624-90.496z" />
<glyph unicode="&#xe09a;" d="M960 106.496c0 0-150.464 82.752-437.568 134.144-148.416 26.496-416.768 32.384-416.768 32.384v1229.248c0 0 268.288-5.888 416.768-32.384 287.104-51.136 437.568-134.016 437.568-134.016v-1229.376zM507.84 158.528c-89.984 16-229.504 24.256-318.72 28.096v-153.28c0 0 242.112 59.648 376.064 71.616 52.992 4.736 100.608 6.72 143.168 7.232-56.32 16.192-123.008 32.448-200.512 46.336zM1088 106.496c0 0 150.464 82.752 437.568 134.144 148.416 26.496 416.768 32.384 416.768 32.384v1229.248c0 0-268.288-5.888-416.768-32.384-287.104-51.136-437.568-134.016-437.568-134.016v-1229.376zM1540.16 158.528c89.984 16 229.504 24.256 318.72 28.096v-153.28c0 0-242.112 59.648-376.064 71.616-52.992 4.736-100.608 6.72-143.168 7.232 56.32 16.192 123.008 32.448 200.512 46.336z" />
<glyph unicode="&#xe09b;" d="M1024 487.616l320-487.744v1536.128h-640v-1536.128z" />
<glyph unicode="&#xe09c;" d="M1792 1238.144h-320v83.84c0 70.656-57.28 128-128 128h-640c-70.656 0-128-57.344-128-128v-83.904h-320c-70.656 0-128-57.344-128-128v-896c0-70.72 57.344-128 128-128h1536c70.72 0 128 57.28 128 128v896c0 70.656-57.28 128.064-128 128.064zM1024.128 271.488c-214.4 0-388.224 173.76-388.224 388.096s173.888 388.096 388.224 388.096 388.096-173.76 388.096-388.096-173.696-388.096-388.096-388.096zM1287.488 659.648c0-145.45-117.91-263.36-263.36-263.36s-263.36 117.91-263.36 263.36c0 145.45 117.91 263.36 263.36 263.36s263.36-117.91 263.36-263.36z" />
<glyph unicode="&#xe09d;" d="M1496.448 1343.936h-945.024v-263.744l304.384-312.128-304.384-312.256v-263.744h945.024v186.24h-758.784l387.904 388.032-1.728 1.728 1.728 1.728-382.144 382.144h753.024z" />
<glyph unicode="&#xe09e;" d="M283.456 1453.504v-1151.872h1481.152v1152l-1481.152-0.128zM1636.544 429.632h-1225.088v895.872l1225.152 0.128v-896zM896 1709.632h256v-128h-256v128zM1419.776 173.632h-147.84l201.28-267.648h147.712zM810.432 173.632h-147.968l-202.176-267.648h147.968zM976 173.632h128v-347.264h-128v347.264z" />
<glyph unicode="&#xe09f;" d="M1553.536 1283.968h-215.232c-3.712 201.024-142.784 362.624-314.24 362.624-171.584 0-310.656-161.6-314.368-362.624h-215.232l-64.192-1283.712h1187.52l-64.256 1283.712zM1024.064 1518.528c99.008 0 182.464-106.624 185.92-234.496h-372.032c3.52 127.872 86.976 234.496 186.112 234.496zM799.232 1020.352c-38.656 0-70.016 31.36-70.016 70.016 0 38.72 31.36 70.016 70.016 70.016s70.016-31.232 70.016-70.016c0-38.592-31.36-70.016-70.016-70.016zM1248.768 1020.352c-38.656 0-70.016 31.36-70.016 70.016 0 38.72 31.36 70.016 70.016 70.016s70.016-31.232 70.016-70.016c-0.064-38.592-31.424-70.016-70.016-70.016z" />
<glyph unicode="&#xe0a0;" d="M1024 1600c-370.368 0-471.232-279.872-471.232-540.864 0-441.6 370.816-801.024 471.232-1123.264 97.856 326.72 471.232 677.12 471.232 1123.264 0 254.72-100.8 540.864-471.232 540.864zM1024 846.144c-132.352 0-240 107.392-240 239.872 0 132.608 107.648 240.128 240 240.128 132.288 0 240-107.52 240-240.128 0-132.544-107.712-239.872-240-239.872z" />
<glyph unicode="&#xe0a1;" d="M1694.4 214.976c107.392 107.52-50.88 439.36-353.344 741.888-302.272 302.4-634.752 460.608-742.016 353.408-96.256-96.256 22.080-372.864 264.512-646.72l-543.552-727.68 727.68 543.744c274.176-242.88 550.528-360.896 646.72-264.64z" />
<glyph unicode="&#xe0a2;" d="M1195.712 419.904l278.336 270.528c131.456-80.896 244.608-107.648 293.376-58.752 78.4 78.4-36.928 320.256-257.344 540.736-220.352 220.096-462.464 335.616-540.8 257.344-49.472-49.472-20.928-164.992 62.528-299.008l-278.016-270.4c-131.904 81.28-245.504 108.352-294.464 59.392-70.144-70.144 15.872-271.616 192.704-470.976l-396.032-530.496 530.24 396.224c199.744-177.152 401.088-262.976 471.232-192.896 49.536 49.536 21.184 164.672-61.76 298.304z" />
<glyph unicode="&#xe0a3;" d="M1435.904 699.648c121.92-70.528 225.536-92.352 271.552-46.272 78.4 78.4-36.928 320.256-257.344 540.736-220.352 220.096-462.464 335.616-540.8 257.344-46.144-46.144-23.808-149.888 46.912-272.256l479.68-479.552zM693.824 882.112c-131.904 81.28-245.504 108.352-294.464 59.392-70.144-70.144 15.872-271.616 192.704-471.104l-396.032-530.368 530.24 396.096c199.744-177.024 401.088-262.848 471.232-192.768 49.472 49.472 21.184 164.48-61.824 298.112l-441.856 440.64zM267.952 1505.506l90.508 90.508 1493.35-1493.35-90.508-90.508-1493.35 1493.35z" />
<glyph unicode="&#xe0a4;" d="M960 1603.968h128v-512.128h-128v512.128zM1569.862 1404.28l90.508-90.508-361.99-361.99-90.508 90.508 361.99 361.99zM1348.032 831.872h512v-128h-512v128zM1660.248 221.922l-90.482-90.354-361.734 362.246 90.482 90.354 361.734-362.246zM960 443.904h128v-512.128h-128v512.128zM478.028 131.272l-90.482 90.354 361.914 362.428 90.482-90.354-361.914-362.428zM187.904 831.872h512v-128h-512v128zM387.392 1313.7l90.354 90.482 362.336-361.824-90.354-90.482-362.336 361.824z" />
<glyph unicode="&#xe0a5;" d="M1425.088 1422.016v-951.872h-140.224v1019.456c-81.6 29.504-169.152 46.4-260.864 46.4-424.192 0-768-343.872-768-768 0-240.512 110.656-454.976 283.776-595.904v633.472c0 84.224 30.912 155.392 92.928 213.504s137.792 87.104 227.52 87.104c88.256 0 162.496-31.232 222.976-93.888 60.416-62.656 90.624-139.52 90.624-230.528 0-106.368-35.008-187.008-104.896-241.984-70.016-54.976-137.984-82.496-204.096-82.496-26.624 0-49.152 2.624-67.328 8-18.24 5.248-30.080 8.896-35.392 10.752-5.312 1.984-20.544 9.024-45.632 21.12v167.616c22.784-23.488 45.44-40.512 67.904-50.752s46.912-15.36 73.536-15.36c51.712 0 93.888 17.152 126.656 51.136 32.64 34.112 49.024 78.144 49.024 132.032 0 52.224-16.768 96.256-50.176 131.904s-75.328 53.376-125.44 53.376c-49.408 0-91.456-17.28-126.016-51.776-34.624-34.624-51.904-76.48-51.904-125.888v-707.52c103.488-51.904 220.096-81.92 343.936-81.92 424.192 0 768 343.872 768 768 0 276.992-147.072 518.848-366.912 654.016z" />
</font>
</defs>
</svg>
