<svg xmlns="http://www.w3.org/2000/svg" height="100" width="100" viewBox="0 0 1000 1000" fill="#fff"><path d="M720 700h-10V480c0-11-9-20-20-20h-20c-11 0-20 9-20 20v220h-60V480c0-11-9-20-20-20h-20c-11 0-20 9-20 20v220h-60V480c0-11-9-20-20-20h-20c-11 0-20 9-20 20v220h-60V480c0-11-9-20-20-20h-20c-11 0-20 9-20 20v220h-10c-33 0-60 27-60 60v20c0 11 9 20 20 20h520c11 0 20-9 20-20v-20c0-33-27-60-60-60zm50-356L523 208c-7-5-15-8-23-8s-16 3-23 8L230 344c-6 4-10 10-10 17v19c0 11 9 20 20 20h520c11 0 20-9 20-20v-18c0-7-4-14-10-18zm-270 16c-28 0-50-22-50-50s22-50 50-50 50 22 50 50-22 50-50 50z"/></svg>