<svg xmlns="http://www.w3.org/2000/svg" width="24" height="24" viewBox="0 0 24 24"><path d="M12,2C6.486,2,2,6.486,2,12c0,5.514,4.486,10,10,10s10-4.486,10-10C22,6.486,17.514,2,12,2z M6.435,8.467 C6.72,8.179,7.096,8.019,7.492,8.016c0.373-0.003,0.73,0.133,1.01,0.384C8.776,8.145,9.131,8.003,9.504,8 c0.396-0.004,0.775,0.15,1.063,0.433c0.597,0.592,0.604,1.521,0.018,2.118l-2.05,2.083l-2.082-2.05 C5.855,9.997,5.849,9.066,6.435,8.467z M12,18c-4,0-5-4-5-4h10C17,14,16,18,12,18z M17.585,10.551l-2.05,2.083l-2.082-2.05 c-0.598-0.587-0.604-1.518-0.019-2.117c0.285-0.288,0.661-0.448,1.058-0.451c0.373-0.003,0.73,0.133,1.01,0.384 C15.776,8.145,16.131,8.003,16.504,8c0.396-0.004,0.775,0.15,1.063,0.433C18.164,9.024,18.172,9.954,17.585,10.551z"/></svg>