<svg xmlns="http://www.w3.org/2000/svg" width="24" height="24" viewBox="0 0 24 24"><path d="M4.929,19.071c1.854,1.854,4.26,2.814,6.692,2.906c-0.463-2.773,0.365-5.721,2.5-7.856c2.136-2.135,5.083-2.963,7.856-2.5 c-0.092-2.433-1.053-4.839-2.906-6.692s-4.26-2.814-6.692-2.906c0.463,2.773-0.365,5.721-2.5,7.856 c-2.136,2.135-5.083,2.963-7.856,2.5C2.114,14.812,3.075,17.218,4.929,19.071z"/><path d="M15.535 15.535c-1.714 1.714-2.35 4.103-1.911 6.318 1.996-.325 3.911-1.247 5.447-2.782 1.535-1.536 2.457-3.451 2.782-5.447C19.638 13.186 17.249 13.821 15.535 15.535zM8.465 8.465c1.714-1.714 2.35-4.103 1.911-6.318C8.38 2.472 6.465 3.394 4.929 4.929 3.394 6.465 2.472 8.38 2.146 10.376 4.362 10.814 6.751 10.179 8.465 8.465z"/></svg>