<svg xmlns="http://www.w3.org/2000/svg" width="24" height="24" viewBox="0 0 24 24"><path d="m22.69 18.37 1.14-1-1-1.73-1.45.49c-.32-.27-.68-.48-1.08-.63L20 14h-2l-.3 1.49c-.4.15-.76.36-1.08.63l-1.45-.49-1 1.73 1.14 1c-.08.5-.08.76 0 1.26l-1.14 1 1 1.73 1.45-.49c.32.27.68.48 1.08.63L18 24h2l.3-1.49c.4-.15.76-.36 1.08-.63l1.45.49 1-1.73-1.14-1c.08-.51.08-.77 0-1.27zM19 21c-1.1 0-2-.9-2-2s.9-2 2-2 2 .9 2 2-.9 2-2 2zM11 7v5.41l2.36 2.36 1.04-1.79-1.4-1.39V7h-2zm10 5a9 9 0 0 0-9-9C9.17 3 6.65 4.32 5 6.36V4H3v6h6V8H6.26A7.01 7.01 0 0 1 12 5c3.86 0 7 3.14 7 7h2zm-10.14 6.91c-2.99-.49-5.35-2.9-5.78-5.91H3.06c.5 4.5 4.31 8 8.94 8h.07l-1.21-2.09z"/></svg>