<svg xmlns="http://www.w3.org/2000/svg" width="24" height="24" viewBox="0 0 24 24"><path fill="none" d="M12,4c-4.411,0-8,3.589-8,8s3.589,8,8,8s8-3.589,8-8S16.411,4,12,4z M8,12H6c0-3.309,2.691-6,6-6v2 C9.794,8,8,9.794,8,12z M11.993,14c-1.108,0-2.007-0.898-2.007-2.007s0.898-2.007,2.007-2.007S14,10.885,14,11.993 S13.102,14,11.993,14z"/><circle cx="11.993" cy="11.993" r="2.007"/><path d="M12,2C6.486,2,2,6.486,2,12s4.486,10,10,10s10-4.486,10-10S17.514,2,12,2z M12,20c-4.411,0-8-3.589-8-8s3.589-8,8-8 s8,3.589,8,8S16.411,20,12,20z"/><path d="M12,6c-3.309,0-6,2.691-6,6h2c0-2.206,1.794-4,4-4V6z"/></svg>