<svg xmlns="http://www.w3.org/2000/svg" width="24" height="24" viewBox="0 0 24 24"><path d="M18,8.001h-3V8V4.999c0-0.812-0.316-1.566-0.874-2.108c-0.623-0.637-1.481-0.96-2.39-0.879C10.202,2.144,9,3.508,9,5.117 V8H8H6c-1.103,0-2,0.897-2,2v3v8c0,0.553,0.447,1,1,1h14c0.553,0,1-0.447,1-1v-8v-2.999C20,8.898,19.103,8.001,18,8.001z M6,10h2 h2h1V9V8V5.117c0-0.57,0.407-1.07,1.002-1.117c0.266,0,0.512,0.103,0.712,0.307C12.898,4.486,13,4.732,13,4.999V8v1.001V10h0.995 c0.002,0,0.003,0.001,0.005,0.001h4V12H6V10z M18,20H6v-6h12V20z"/></svg>