<svg xmlns="http://www.w3.org/2000/svg" width="24" height="24" viewBox="0 0 24 24"><path d="M10,6.5C10,4.57,8.43,3,6.5,3S3,4.57,3,6.5S4.57,10,6.5,10c0.601,0,1.158-0.166,1.652-0.434L10.586,12l-2.434,2.434 C7.658,14.166,7.101,14,6.5,14C4.57,14,3,15.57,3,17.5S4.57,21,6.5,21s3.5-1.57,3.5-3.5c0-0.601-0.166-1.158-0.434-1.652L12,13.414 l5.707,5.707C18.27,19.684,19.033,20,19.828,20H22L9.58,8.127C9.839,7.639,10,7.09,10,6.5z M6.5,19C5.673,19,5,18.327,5,17.5 S5.673,16,6.5,16S8,16.673,8,17.5S7.327,19,6.5,19z M5,6.5C5,5.673,5.673,5,6.5,5S8,5.673,8,6.5S7.327,8,6.5,8S5,7.327,5,6.5z"/><path d="M22,4h-2.172c-0.795,0-1.559,0.316-2.121,0.879l-4.414,4.414l1.414,1.414L22,4z"/></svg>