<svg xmlns="http://www.w3.org/2000/svg" width="24" height="24" viewBox="0 0 24 24"><path fill="none" d="M5.081,11.606C5.238,11.238,5.6,11,6,11h12V8h-8C9.776,8,9.56,7.925,9.384,7.787L7.1,6H4v8.129L5.081,11.606z"/><path fill="none" d="M4.517 18L17.341 18 19.483 13 6.659 13z"/><path d="M2.165,19.551C2.351,19.831,2.664,20,3,20h15c0.4,0,0.762-0.238,0.919-0.606l3-7c0.133-0.309,0.101-0.663-0.084-0.944 C21.649,11.169,21.336,11,21,11h-1V8c0-1.103-0.897-2-2-2h-7.655L8.061,4.213C7.885,4.075,7.668,4,7.444,4H4C2.897,4,2,4.897,2,6 v13h0.007C2.007,19.192,2.056,19.385,2.165,19.551z M17.341,18H4.517l2.143-5h12.824L17.341,18z M7.1,6l2.284,1.787 C9.56,7.925,9.776,8,10,8h8v3H6c-0.4,0-0.762,0.238-0.919,0.606L4,14.129V6H7.1z"/></svg>