<svg xmlns="http://www.w3.org/2000/svg" width="24" height="24" viewBox="0 0 24 24"><path fill="none" d="M4 12H20.002V19H4zM19.535 10L20 10 20.001 10 20 6 16.868 6zM4.465 6L4 6 4 10 7.132 10zM14.465 6L11.868 6 14.535 10 17.132 10zM9.535 10L12.132 10 9.465 6 6.868 6z"/><path d="M4,21h16c1.103,0,2-0.897,2-2v-7V6c0-1.103-0.897-2-2-2H4C2.897,4,2,4.897,2,6v6v7C2,20.103,2.897,21,4,21z M4,19v-7h16 l0.002,7H4z M14.535,10l-2.667-4h2.597l2.667,4H14.535z M12.132,10H9.535L6.868,6h2.597L12.132,10z M20.001,10 C20,10,20,10,20.001,10h-0.466l-2.667-4H20L20.001,10z M4,6h0.465l2.667,4H4V6z"/></svg>