<svg xmlns="http://www.w3.org/2000/svg" width="24" height="24" viewBox="0 0 24 24"><path fill="none" d="M5,5v9v2h14V4H6C5.55,4.012,5,4.194,5,5z M9.503,5.994c0.83,0,1.503,0.673,1.503,1.503S10.333,9,9.503,9 S8,8.327,8,7.497S8.673,5.994,9.503,5.994z M10,10l1.024,1.536L13.5,8l3.5,5h-5h-2H8L10,10z"/><path d="M12 13L17 13 13.5 8 11.024 11.536 10 10 8 13 10 13z"/><circle cx="9.503" cy="7.497" r="1.503"/><path d="M19,2H6C4.794,2,3,2.799,3,5v9v3v2c0,2.201,1.794,3,3,3h15v-2H6.012C5.55,19.988,5,19.806,5,19s0.55-0.988,1.012-1H20 c0.553,0,1-0.447,1-1V4C21,2.897,20.103,2,19,2z M19,16H5v-2V5c0-0.806,0.55-0.988,1-1h13V16z"/></svg>