<svg xmlns="http://www.w3.org/2000/svg" width="24" height="24" viewBox="0 0 24 24"><path d="M19,2H5C3.897,2,3,2.897,3,4v13c0,1.103,0.897,2,2,2h4l3,3l3-3h4c1.103,0,2-0.897,2-2V4C21,2.897,20.103,2,19,2z M8,17	c0-1.654,1.794-3,4-3s4,1.346,4,3H8z M10,10c0-1.178,0.822-2,2-2s2,0.822,2,2s-0.822,2-2,2S10,11.178,10,10z M18,17	c0-1.846-1.209-3.457-2.999-4.323C15.621,11.977,16,11.054,16,10c0-2.28-1.72-4-4-4s-4,1.72-4,4c0,1.054,0.379,1.977,0.999,2.677	C7.209,13.543,6,15.154,6,17H5V4h14l0.002,13H18z"/></svg>