<svg xmlns="http://www.w3.org/2000/svg" width="24" height="24" viewBox="0 0 24 24"><path d="M3,18.878L5.122,21c0.378,0.378,0.88,0.586,1.414,0.586S7.572,21.378,7.95,21l4.336-4.336 c0.716,0.221,1.459,0.333,2.217,0.333c2.003,0,3.887-0.779,5.302-2.195c2.146-2.147,2.787-5.349,1.632-8.158 c-0.127-0.309-0.4-0.535-0.729-0.6c-0.329-0.066-0.667,0.037-0.903,0.273l-3.183,3.182l-2.121-2.122l3.182-3.182 c0.236-0.236,0.339-0.576,0.273-0.903c-0.065-0.328-0.291-0.602-0.601-0.729C16.446,2.189,15.485,2,14.499,2 c-2.003,0-3.886,0.78-5.301,2.196C7.213,6.18,6.516,9.068,7.336,11.714L3,16.05C2.22,16.829,2.22,18.099,3,18.878z M9.198,12.681 c0.285-0.285,0.371-0.714,0.218-1.087c-0.848-2.061-0.378-4.41,1.196-5.983C11.65,4.572,13.03,4,14.499,4 c0.177,0,0.352,0.008,0.526,0.025L12.38,6.67c-0.391,0.391-0.391,1.023,0,1.414l3.535,3.536c0.188,0.188,0.441,0.293,0.707,0.293 s0.52-0.105,0.707-0.293l2.648-2.648c0.156,1.608-0.403,3.231-1.587,4.416c-1.55,1.55-3.964,2.027-5.984,1.196 c-0.372-0.153-0.801-0.067-1.087,0.218l-4.783,4.784h0.001l-0.001,1v-1l-2.122-2.122L9.198,12.681z"/></svg>