<svg xmlns="http://www.w3.org/2000/svg" height="52" width="52" viewBox="0 0 520 520" fill="#fff"><path d="M212 363c9 0 16-10 16-24s-7-24-16-24-17 11-17 24 8 24 17 24Zm101 0c9 0 17-10 17-24s-7-24-17-24-16 11-16 24 7 24 16 24Zm29 49a133 133 0 0 0-54-29c-4 7-13 12-23 12s-20-5-24-12a128 128 0 0 0-52 25c-4 4-7 9-7 15 0 39 40 8 81 8 41 1 84 28 84-7a15 15 0 0 0-5-12Z"/><path d="M197 446c-5 0-9-1-12-3-5-4-7-10-7-20 0-7 3-13 9-18a133 133 0 0 1 53-26l4 2c3 6 12 10 21 10s16-4 20-9a3 3 0 0 1 4-2c27 7 48 23 55 29 5 4 7 9 7 15 0 8-2 14-7 17-9 7-24 4-42 0a193 193 0 0 0-40-6c-13-1-27 3-39 6-10 3-19 5-26 5zm42-59a126 126 0 0 0-48 24c-4 3-6 7-6 12 0 7 1 12 4 14 6 4 18 1 32-2 13-4 27-8 42-7 14 0 28 3 40 6 17 4 31 7 37 2 2-2 4-6 4-12a12 12 0 0 0-4-10c-7-6-26-20-51-27-5 7-15 11-25 11s-19-4-25-11zm-94 37c-33 20-64 3-75-6 19-13 26-18 27-28-27 1-46-1-72-45 27-7 21-13 64-27-1-8-35-3-47-15 11-8 22-40 34-46l-43 1c8-29 33-54 59-70-4-5-15-9-20-13 18-17 62-30 81-15-3-46 35-58 35-91 19 6 47 32 52 51 12-15 52-31 77-37 9 4 15 14 18 23s2 33 2 43c66-27 103 7 117 24a93 93 0 0 1-22 22c24 14 39 29 46 54-16 4-26 6-43 12 8 10 25 14 37 19-8 25-24 19-35 22 17 33 40 34 58 37-11 32-41 58-75 57 2 6 10 17 16 18-18 20-33 18-56 14 37-70 7-144-7-163-2 8-6 15-17 16-18-29-67-54-100-61a60 60 0 0 0 13 48c-18-1-58-14-71-26-49 36-93 80-53 182z"/><path d="M113 438a81 81 0 0 1-46-16 5 5 0 0 1-3-4 5 5 0 0 1 3-4c13-9 20-14 23-19-25 0-45-6-69-47a5 5 0 0 1-1-4 5 5 0 0 1 4-3l22-10 28-14h-2c-11-1-26-3-33-11a5 5 0 0 1-2-4 5 5 0 0 1 2-3c4-3 9-12 14-20 3-6 6-12 10-16H33a5 5 0 0 1-4-2 5 5 0 0 1-1-5c7-24 28-50 56-68l-8-5-7-4a5 5 0 0 1-2-4l1-4c17-16 56-29 80-20 1-22 11-36 20-48 8-12 15-21 15-34 0-2 0-3 2-4l4-1a102 102 0 0 1 53 47c18-15 53-28 74-33a5 5 0 0 1 3 0c10 5 17 15 21 27 2 8 2 23 2 37 69-25 106 15 116 28a5 5 0 0 1 0 5 84 84 0 0 1-18 19c24 15 36 31 42 53a5 5 0 0 1-3 7l-14 3-20 6c6 4 13 7 20 9l8 4c3 1 4 3 3 6-7 23-21 23-31 24 14 22 30 25 46 27l5 1 3 3 1 4a89 89 0 0 1-72 59c3 5 7 9 9 9s4 1 4 3a5 5 0 0 1-1 5c-20 22-38 20-61 15l-4-2v-5c33-61 11-125-1-149-4 5-9 9-18 10a5 5 0 0 1-5-2c-16-26-58-49-91-58a55 55 0 0 0 12 38c2 2 2 4 1 6a5 5 0 0 1-4 3c-18-1-55-13-72-25-47 36-85 78-48 174a5 5 0 0 1-2 6 69 69 0 0 1-35 10zm-34-20a62 62 0 0 0 60 4c-38-102 7-147 56-184a5 5 0 0 1 6 0c10 9 39 20 57 23a65 65 0 0 1-8-42c1-1 1-3 3-3a5 5 0 0 1 3-1 207 207 0 0 1 58 23 140 140 0 0 1 44 38c6-2 8-6 10-13a5 5 0 0 1 4-3c2 0 4 0 5 2 17 23 42 96 10 162 17 3 29 2 41-9a47 47 0 0 1-12-17 5 5 0 0 1 0-5l4-2c28 0 56-19 68-48-18-3-40-7-56-39a5 5 0 0 1 0-5l4-2 8-1c9-1 16-1 21-13l-3-1c-11-4-24-9-31-17l-1-5c0-2 2-3 3-3 12-5 20-7 29-9l9-3c-6-19-19-32-42-46a5 5 0 0 1 0-8c5-4 14-12 18-18-11-14-46-44-108-19l-5-1-2-4c0-20 0-35-2-41a32 32 0 0 0-14-20c-27 7-62 23-73 36a5 5 0 0 1-8-2c-3-14-24-37-43-46-2 13-9 23-16 33-10 13-20 27-18 50a5 5 0 0 1-3 5 5 5 0 0 1-5 0c-15-11-50-4-70 10l1 1c6 3 11 6 14 10 1 2 2 3 1 4l-2 4c-26 16-46 38-55 60l36-1a5 5 0 0 1 5 4 5 5 0 0 1-3 6c-5 2-11 13-16 22l-11 18c6 3 15 4 23 5 11 1 20 3 21 10a5 5 0 0 1-3 5c-24 8-32 13-40 17-5 4-10 6-19 9 23 36 40 38 64 37l4 2 1 4c-1 11-7 16-23 27h1z"/></svg>