<svg xmlns="http://www.w3.org/2000/svg" width="24" height="24" viewBox="0 0 24 24"><path d="M19.891,7.788c0.7,1.281,1.099,2.75,1.099,4.313c0,3.315-1.797,6.214-4.47,7.771l2.746-7.939	c0.513-1.282,0.684-2.309,0.684-3.219C19.949,8.375,19.928,8.063,19.891,7.788 M13.24,7.875c0.539-0.025,1.026-0.088,1.026-0.088	c0.485-0.063,0.428-0.775-0.056-0.749c0,0-1.463,0.112-2.4,0.112c-0.887,0-2.375-0.125-2.375-0.125	C8.948,7.001,8.885,7.738,9.374,7.763c0,0,0.449,0.052,0.938,0.075l1.399,3.838l-1.975,5.899L6.462,7.851	C7.003,7.825,7.49,7.768,7.49,7.768c0.487-0.063,0.43-0.775-0.055-0.747c0,0-1.455,0.115-2.395,0.115	c-0.167,0-0.365-0.007-0.575-0.013C6.093,4.726,8.862,3.113,12,3.113c2.341,0,4.471,0.894,6.071,2.36	c-0.038-0.002-0.076-0.008-0.117-0.008c-0.883,0-1.51,0.77-1.51,1.596c0,0.741,0.427,1.369,0.883,2.108	c0.343,0.601,0.742,1.37,0.742,2.481c0,0.763-0.295,1.662-0.685,2.899l-0.896,2.987l-3.25-9.675L13.24,7.875L13.24,7.875z M12,21.087c-0.883,0-1.734-0.127-2.54-0.364l2.697-7.838l2.763,7.572c0.021,0.044,0.042,0.085,0.065,0.124	c-0.934,0.327-1.938,0.508-2.985,0.508 M3.01,12.101c0-1.304,0.279-2.542,0.778-3.658l4.287,11.749	C5.078,18.734,3.01,15.66,3.01,12.101 M12,2.101c-5.513,0-10,4.487-10,10s4.487,10,10,10s10-4.487,10-10S17.513,2.101,12,2.101"/></svg>