<svg xmlns="http://www.w3.org/2000/svg" viewBox="0 0 64 64" enable-background="new 0 0 64 64"><g transform="translate(1.295.141)"><path d="m.902 63.796c12.149 0 24.296 0 36.439 0 7.73 0 15.452 0 23.18 0 .495 0 .9-.415.9-.904 0-12.287 0-24.572 0-36.87 0-7.02 0-14.06 0-21.09 0-.493-.405-.9-.9-.9-12.146 0-24.295 0-36.441 0-7.729 0-15.452 0-23.18 0-.264 0-.47.092-.614.241 0 0-.013.013-.016.025 0 0-.02.008-.029.033-.143.131-.244.338-.244.601 0 12.289 0 24.574 0 36.865 0 7.03 0 14.06 0 21.09 0 .489.411.904.902.904" fill="#a7a8ac"/><path d="m.004 44.37v18.521c0 .489.409.904.897.904h59.62c.495 0 .902-.415.902-.904v-18.521h-61.42" fill="#d1d2d3"/><g fill="#405967"><path d="m7.467 46.13c9.47 0 18.943 0 28.414 0 6.03 0 12.05 0 18.08 0 .387 0 .703-.271.703-.588 0-7.994 0-15.991 0-23.993 0-4.571 0-9.148 0-13.722 0-.319-.316-.587-.703-.587-9.469 0-18.941 0-28.419 0-6.02 0-12.04 0-18.07 0-.207 0-.373.061-.477.159 0 0-.011.008-.018.017 0 0-.012.004-.02.019-.109.086-.188.22-.188.393 0 7.995 0 15.992 0 23.986 0 4.574 0 9.155 0 13.728 0 .317.322.588.703.588"/><path d="m42.4 44.613c0 7.02-5.234 12.726-11.679 12.726-6.453 0-11.681-5.7-11.681-12.726 0-7.03 5.228-12.729 11.681-12.729 6.444 0 11.679 5.695 11.679 12.729"/></g><path d="m33.12.974c1.506 1.858 2.999 3.717 4.506 5.576 1.493 1.859 2.993 3.718 4.495 5.576 1.058 1.311-.285 3.01-2.421 3.01h-4.596v14.328h-8.782v-14.328h-4.607c-2.119 0-3.466-1.702-2.413-3.01 3-3.717 6-7.435 8.991-11.152 1.051-1.299 3.788-1.299 4.827 0" fill="#de374b"/></g></svg>