<svg xmlns="http://www.w3.org/2000/svg" viewBox="0 0 64 64" enable-background="new 0 0 64 64"><circle fill="#fbb041" cx="31.86" cy="29.861" r="29.86"/><path fill="#fff" d="m28.16 23.456c0 5.313-2.871 9.613-6.417 9.613-3.546 0-6.421-4.299-6.421-9.613 0-5.31 2.875-9.612 6.421-9.612 3.546 0 6.417 4.302 6.417 9.612"/><ellipse fill="#25333a" cx="21.742" cy="23.456" rx="4.155" ry="5.04"/><path fill="#fff" d="m48.52 23.456c0 5.313-2.871 9.613-6.418 9.613-3.546 0-6.421-4.299-6.421-9.613 0-5.31 2.875-9.612 6.421-9.612 3.547 0 6.418 4.302 6.418 9.612"/><ellipse fill="#25333a" cx="42.1" cy="23.456" rx="4.155" ry="5.04"/><g opacity=".987"><path fill="#e79d3c" d="m16.212 38.594c-5.292-11.356-5.528-23.574-.745-33.677-8.107 5.339-13.467 14.511-13.467 24.946 0 16.492 13.367 29.859 29.861 29.859.294 0 .583-.033.874-.043-6.844-5.763-12.614-12.694-16.523-21.09"/></g><path fill="#633d19" d="m52.957 36.767c0 11.04-9.176 20-20.483 20-11.298 0-20.474-8.959-20.474-20"/><path fill="#f45ba1" d="m42.652 56.08c0 4.055-4.574 7.342-10.218 7.342l0 0c-5.641 0-10.215-3.287-10.215-7.342l2.202-8.468c0-4.053 2.372-7.34 8.01-7.34l0 0c5.644 0 8.02 3.287 8.02 7.34l2.203 8.468"/><path fill="#fff" d="m50.27 37.896c0 3.739-7.987 6.772-17.834 6.772-9.842 0-17.83-3.03-17.83-6.772"/></svg>