<svg xmlns="http://www.w3.org/2000/svg" viewBox="0 0 512 512" class="ionicon"><path d="M104 160a56 56 0 1 1 56-56 56.06 56.06 0 0 1-56 56M256 160a56 56 0 1 1 56-56 56.06 56.06 0 0 1-56 56M408 160a56 56 0 1 1 56-56 56.06 56.06 0 0 1-56 56M104 312a56 56 0 1 1 56-56 56.06 56.06 0 0 1-56 56M256 312a56 56 0 1 1 56-56 56.06 56.06 0 0 1-56 56M408 312a56 56 0 1 1 56-56 56.06 56.06 0 0 1-56 56M104 464a56 56 0 1 1 56-56 56.06 56.06 0 0 1-56 56M256 464a56 56 0 1 1 56-56 56.06 56.06 0 0 1-56 56M408 464a56 56 0 1 1 56-56 56.06 56.06 0 0 1-56 56"/></svg>