<svg xmlns="http://www.w3.org/2000/svg" height="100" width="100" viewBox="0 0 100 100" fill="#fff"><path d="M56 38V23a3 3 0 0 0-3-3h-4c-1.7 0-3 1.3-3 3s1.3 3 3 3h1v12c0 6.6-5.4 12-12 12s-12-5.4-12-12V26h1c1.7 0 3-1.3 3-3s-1.3-3-3-3h-4a3 3 0 0 0-3 3v15c0 9.9 8.1 18 18 18s18-8.1 18-18z"/><path d="M80 50c0-5-4-9-9-9s-9 4-9 9c0 3.9 2.5 7.2 6 8.5v2.2C68 68 62 74 54.7 74h-.3c-6.3 0-11.6-4.5-13-10.4a2 2 0 0 0-2-1.6h-2a2 2 0 0 0-2 2.4A19.3 19.3 0 0 0 54.3 80h.3C65.3 80 74 71.3 74 60.7v-2.2c3.5-1.3 6-4.6 6-8.5zm-9 3c-1.7 0-3-1.3-3-3s1.3-3 3-3 3 1.3 3 3-1.3 3-3 3z"/></svg>