<svg version="1.1" xmlns="http://www.w3.org/2000/svg" xmlns:xlink="http://www.w3.org/1999/xlink" x="0px" y="0px" width="400px" height="120px"
	 viewBox="0 0 400 120" style="enable-background:new 0 0 400 120;" xml:space="preserve">
  <g id="controls">
    <g id="play">
      <path d="M16.31,9.48a.56.56,0,0,1,0,1l-11.38,7c-.47.29-.85.07-.85-.48V3c0-.55.38-.77.85-.48Z" transform="translate(0.17 -0.99)" style="fill: #fff"/>
    </g>
    <g id="pause">
      <g>
        <rect x="23" y="1.01" width="4.2" height="16" rx="1" ry="1" style="fill: #fff"/>
        <rect x="32.8" y="1.01" width="4.2" height="16" rx="1" ry="1" style="fill: #fff"/>
      </g>
    </g>
    <g id="fullscreen">
      <g id="enter">
        <path d="M80.83,2.38a1,1,0,0,1,1-1h5.41c.55,0,.68.32.29.71l-6,6c-.39.39-.71.26-.71-.29Z" transform="translate(0.17 -0.99)" style="fill: #fff"/>
        <path d="M80.83,18.17a1,1,0,0,0,1,1h5.41c.55,0,.68-.32.29-.71l-6-6c-.39-.39-.71-.26-.71.29Z" transform="translate(0.17 -0.99)" style="fill: #fff"/>
        <path d="M98.63,2.38a1,1,0,0,0-1-1H92.21c-.55,0-.68.32-.29.71l6,6c.39.39.71.26.71-.29Z" transform="translate(0.17 -0.99)" style="fill: #fff"/>
        <path d="M98.63,18.17a1,1,0,0,1-1,1H92.21c-.55,0-.68-.32-.29-.71l6-6c.39-.39.71-.26.71.29Z" transform="translate(0.17 -0.99)" style="fill: #fff"/>
      </g>
      <g id="exit">
        <g>
          <path d="M112.53,6a1,1,0,0,0,1,1h4.1c.55,0,.68-.32.29-.71l-4.68-4.68c-.39-.39-.71-.26-.71.29Z" transform="translate(0.17 -0.99)" style="fill: #fff"/>
          <path d="M105.43,7a1,1,0,0,0,1-1V1.88c0-.55-.32-.68-.71-.29L101,6.27c-.39.39-.26.71.29.71Z" transform="translate(0.17 -0.99)" style="fill: #fff"/>
          <path d="M106.43,14.07a1,1,0,0,0-1-1h-4.1c-.55,0-.68.32-.29.71l4.68,4.68c.39.39.71.26.71-.29Z" transform="translate(0.17 -0.99)" style="fill: #fff"/>
          <path d="M113.53,13.07a1,1,0,0,0-1,1v4.1c0,.55.32.68.71.29l4.68-4.68c.39-.39.26-.71-.29-.71Z" transform="translate(0.17 -0.99)" style="fill: #fff"/>
        </g>
      </g>
    </g>
    <g id="volume">
      <g id="unmuted">
        <path d="M66.8,6.77a3.51,3.51,0,0,1-1.8.6H61.85a1,1,0,0,0-1,1V14.1a1,1,0,0,0,1,1H65a6.28,6.28,0,0,1,1,0,8.5,8.5,0,0,0,.81.63l3.54,2.6c.44.33.81.14.81-.41V4.5c0-.55-.36-.73-.8-.4Z" transform="translate(0.17 -0.99)" style="fill: #fff"/>
        <path d="M73.72,3.5s3.95-.81,3.87,7.73S73.72,19,73.72,19" transform="translate(0.17 -0.99)" style="fill: none;stroke: #fff;stroke-linecap: round;stroke-width: 1.5px"/>
        <path d="M72.43,7.38S75.06,7,75,11.23s-2.58,3.86-2.58,3.86" transform="translate(0.17 -0.99)" style="fill: none;stroke: #fff;stroke-linecap: round;stroke-width: 1.5px"/>
      </g>
      <g id="muted">
        <path d="M46.8,6.77a3.51,3.51,0,0,1-1.8.6H41.85a1,1,0,0,0-1,1V14.1a1,1,0,0,0,1,1H45a6.28,6.28,0,0,1,1,0,8.5,8.5,0,0,0,.81.63l3.54,2.6c.44.33.81.14.81-.41V4.5c0-.55-.36-.73-.8-.4Z" transform="translate(0.17 -0.99)" style="fill: #fff"/>
        <line x1="52.83" y1="6.98" x2="58.22" y2="12.36" style="fill: none;stroke: #fff;stroke-linecap: round;stroke-width: 2px"/>
        <line x1="52.83" y1="12.36" x2="58.22" y2="6.98" style="fill: none;stroke: #fff;stroke-linecap: round;stroke-width: 2px"/>
      </g>
    </g>
    <g id="closed_captions">
      <path d="M128.53,9.58c-6.17-4.21-6.46,7.77,0,3.92" transform="translate(0.17 -0.99)" style="fill: none;stroke: #fff"/>
      <path d="M135.06,9.58c-6.17-4.21-6.46,7.77,0,3.92" transform="translate(0.17 -0.99)" style="fill: none;stroke: #fff"/>
      <path d="M122,4.35h15.69V17.43H122ZM120.68,3V18.73H139V3Z" transform="translate(0.17 -0.99)" style="fill: #fff"/>
    </g>
    <g id="jumpforward">
      <path d="M192,3.16l-4.33,2.16V1Z" transform="translate(0.17 -0.99)" style="fill: #fff"/>
      <path d="M194.73,3.16,190.4,5.32V1Z" transform="translate(0.17 -0.99)" style="fill: #fff"/>
      <path d="M189.83,3.16a8.15,8.15,0,0,0-8.16,8.16" transform="translate(0.17 -0.99)" style="fill: none;stroke: #fff;stroke-width: 2px"/>
      <path d="M181.68,10.83A8.15,8.15,0,0,0,189.83,19" transform="translate(0.17 -0.99)" style="fill: none;stroke: #fff;stroke-width: 2px"/>
      <path d="M189.46,19a8.15,8.15,0,0,0,8.16-8.16" transform="translate(0.17 -0.99)" style="fill: none;stroke: #fff;stroke-width: 2px"/>
    </g>
    <g id="skipback">
      <path d="M162.52,10.65a8.15,8.15,0,0,0,8.16,8.16" transform="translate(0.17 -0.99)" style="fill: none;stroke: #fff;stroke-width: 2px"/>
      <path d="M170.2,18.8a8.15,8.15,0,0,0,8.16-8.16" transform="translate(0.17 -0.99)" style="fill: none;stroke: #fff;stroke-width: 2px"/>
      <path d="M178.36,11a8.15,8.15,0,0,0-8.16-8.16" transform="translate(0.17 -0.99)" style="fill: none;stroke: #fff;stroke-width: 2px"/>
      <path d="M166.42,3.16l4.32,2.16V1Z" transform="translate(0.17 -0.99)" style="fill: #fff"/>
      <path d="M163.7,3.16,168,5.32V1Z" transform="translate(0.17 -0.99)" style="fill: #fff"/>
    </g>
    <g>
      <rect x="141.17" y="3.01" width="18" height="14" rx="2" ry="2" style="fill: #fff"/>
      <path d="M146.19,14.78a2.69,2.69,0,0,1-2.14-1A3.87,3.87,0,0,1,144.17,9c.51-.56,2-1.65,4.64.16l-.56.83c-1.43-1-2.62-1.09-3.34-.31a2.89,2.89,0,0,0-.08,3.47c.7.86,1.92.83,3.45-.08l.51.86A5.13,5.13,0,0,1,146.19,14.78Z" transform="translate(0.17 -0.99)" style="fill: #231f20"/>
      <path d="M153.73,14.78a2.69,2.69,0,0,1-2.14-1A3.87,3.87,0,0,1,151.71,9c.51-.56,2-1.65,4.64.16l-.56.83c-1.43-1-2.62-1.09-3.34-.31a2.89,2.89,0,0,0-.08,3.47c.7.86,1.92.83,3.45-.08l.51.86A5.13,5.13,0,0,1,153.73,14.78Z" transform="translate(0.17 -0.99)" style="fill: #231f20"/>
    </g>
    <g id="settings">
      <path d="M218.46,10.38a1.35,1.35,0,0,0-1-1.24l-1.85-.46a.7.7,0,0,1-.46-1.1l1-1.64A1.35,1.35,0,0,0,216,4.36h0a1.35,1.35,0,0,0-1.56-.19l-1.64,1a.7.7,0,0,1-1.1-.46l-.46-1.85a1.35,1.35,0,0,0-1.24-1h0a1.35,1.35,0,0,0-1.24,1l-.46,1.85a.7.7,0,0,1-1.1.46l-1.64-1a1.35,1.35,0,0,0-1.56.19h0a1.35,1.35,0,0,0-.19,1.56l1,1.64a.7.7,0,0,1-.46,1.1l-1.85.46a1.35,1.35,0,0,0-1,1.24h0a1.35,1.35,0,0,0,1,1.24l1.85.46a.7.7,0,0,1,.46,1.1l-1,1.64a1.35,1.35,0,0,0,.19,1.56h0a1.35,1.35,0,0,0,1.56.19l1.64-1a.7.7,0,0,1,1.1.46l.46,1.85a1.35,1.35,0,0,0,1.24,1h0a1.35,1.35,0,0,0,1.24-1l.46-1.85a.7.7,0,0,1,1.1-.46l1.64,1a1.35,1.35,0,0,0,1.56-.19h0a1.35,1.35,0,0,0,.19-1.56l-1-1.64a.7.7,0,0,1,.46-1.1l1.85-.46a1.35,1.35,0,0,0,1-1.24Zm-5.68,0A2.82,2.82,0,1,1,210,7.54,2.82,2.82,0,0,1,212.78,10.36Z" transform="translate(0.17 -0.99)" style="fill: #fff"/>
    </g>
    <g id="stop">
      <rect x="223" y="2.84" width="14" height="14" rx="2" ry="2" style="fill: #fff"/>
    </g>
    <g id="loop">
      <g id="loop_on">
        <path d="M254.05,7.52a5.72,5.72,0,1,1-8.7-.27l-1.62-1.62a8,8,0,1,0,11.94.26Z" transform="translate(0.17 -0.99)" style="fill: #fff"/>
        <path d="M251.13,4.36a.72.72,0,0,1,.85-.85l5.52.77c.54.08.67.46.28.84l-5,5c-.39.39-.77.26-.84-.28Z" transform="translate(0.17 -0.99)" style="fill: #fff"/>
      </g>
      <g id="loop_off" style="opacity: 0.5">
        <path d="M274.21,7.77a5.72,5.72,0,1,1-8.7-.27l-1.62-1.62a8,8,0,1,0,11.94.26Z" transform="translate(0.17 -0.99)" style="fill: #fff"/>
        <path d="M271.29,4.61a.72.72,0,0,1,.85-.85l5.52.77c.54.08.67.46.28.84l-5,5c-.39.39-.77.26-.84-.28Z" transform="translate(0.17 -0.99)" style="fill: #fff"/>
      </g>
    </g>
    <g id="replay">
      <path d="M298.64,10.54a.79.79,0,0,1-1.1.64l-4.86-1.82c-.51-.19-.55-.58-.07-.85l6.18-3.57c.48-.27.79-.06.7.49Z" transform="translate(0.17 -0.99)" style="fill: #fff"/>
      <path d="M290,17.08a6.22,6.22,0,0,1-2.9-.71,5.94,5.94,0,0,1-3.2-5.24,6.11,6.11,0,0,1,11.87-1.89l.1-.15L298,10.15a8.1,8.1,0,0,0-16.12,1,7.93,7.93,0,0,0,4.26,7,8.22,8.22,0,0,0,3.83.95,8.13,8.13,0,0,0,6.57-3.32l-1.8-.93A6.14,6.14,0,0,1,290,17.08Z" transform="translate(0.17 -0.99)" style="fill: #fff"/>
    </g>
    <g id="chapters">
      <rect x="302" y="3.01" width="3" height="3" rx="2" ry="2" style="fill: #fff"/>
      <rect x="307" y="3.01" width="15" height="3" rx="2" ry="2" style="fill: #fff"/>
      <rect x="302" y="8.01" width="3" height="3" rx="2" ry="2" style="fill: #fff"/>
      <rect x="307" y="8.01" width="15" height="3" rx="2" ry="2" style="fill: #fff"/>
      <rect x="302" y="13.01" width="3" height="3" rx="2" ry="2" style="fill: #fff"/>
      <rect x="307" y="13.01" width="15" height="3" rx="2" ry="2" style="fill: #fff"/>
    </g>
  </g>
  <g id="big_play">
    <g id="big_play_opaque">
      <path d="M60.1,78a1.06,1.06,0,0,1,0,2L29.82,97.49c-1,.55-1.73.1-1.73-1v-35c0-1.1.78-1.55,1.73-1Z" transform="translate(0.17 -0.99)" style="fill: #fff"/>
      <path d="M2.33,80a37.5,37.5,0,1,1,37.5,37.5A37.5,37.5,0,0,1,2.33,80Z" transform="translate(0.17 -0.99)" style="fill: none;stroke: #fff;stroke-width: 5px;opacity: 0.75;isolation: isolate"/>
    </g>
    <g id="big_play_hover">
      <path d="M140.1,78a1.06,1.06,0,0,1,0,2L109.82,97.49c-1,.55-1.73.1-1.73-1v-35c0-1.1.78-1.55,1.73-1Z" transform="translate(0.17 -0.99)" style="fill: #fff"/>
      <path d="M82.33,80a37.5,37.5,0,1,1,37.5,37.5A37.5,37.5,0,0,1,82.33,80Z" transform="translate(0.17 -0.99)" style="fill: none;stroke: #fff;stroke-width: 5px"/>
    </g>
    <g id="loading">
      <circle cx="201.88" cy="47.13" r="8.13" style="fill: #fff"/>
      <circle cx="233.88" cy="79.01" r="5" style="fill: #fff;opacity: 0.4"/>
      <circle cx="201.88" cy="110.88" r="6" style="fill: #fff;opacity: 0.6000000000000001"/>
      <circle cx="170.13" cy="79.01" r="7" style="fill: #fff;opacity: 0.8"/>
      <circle cx="178.25" cy="56.34" r="7.5" style="fill: #fff;opacity: 0.9"/>
      <circle cx="226.33" cy="56.09" r="4.5" style="fill: #fff;opacity: 0.30000000000000004"/>
      <circle cx="225.75" cy="102.76" r="5.5" style="fill: #fff;opacity: 0.5"/>
      <circle cx="178.25" cy="102.76" r="6.5" style="fill: #fff;opacity: 0.7000000000000001"/>
    </g>
  </g>
</svg>
