<?xml version="1.0" encoding="utf-8"?>
<svg xmlns="http://www.w3.org/2000/svg" width="24" height="24" viewBox="0 0 24 24">
    <g id="number-list-ltr">
        <path id="bottom_dot" d="M3 16v1h1.993l.03 1H4v1h1v1H3v1h2.023L6 19.998v-1l-.955-.53.955-.5v-.97L4.993 16z"/>
        <path id="middle_dot" d="M3 9v1h2.117L3 12.187v1.81l3-.06V13H3.882L6 10.812V9.78L5.332 9z"/>
        <path id="top_dot" d="M4.993 2h-.648L3.018 3.39l.03.61h1.026l-.068 2H3v1h3V6H4.963z"/>
        <path id="bottom_line" d="M20.002 17H9a1 1 0 0 0-1 1v1a1 1 0 0 0 1 1h11.002A1 1 0 0 0 21 19v-1a1 1 0 0 0-.998-1z"/>
        <path id="middle_line" d="M20.002 10H9a1 1 0 0 0-1 1v1a1 1 0 0 0 1 1h11.002A1 1 0 0 0 21 12v-1a1 1 0 0 0-.998-1z"/>
        <path id="top_line" d="M20.002 3H9a1 1 0 0 0-1 1v1a1 1 0 0 0 1 1h11.002A1 1 0 0 0 21 5V4a1 1 0 0 0-.998-1z"/>
    </g>
</svg>
