<svg width="24" height="24" viewBox="0 0 24 24" stroke-width="1.5" fill="none" xmlns="http://www.w3.org/2000/svg">
<path d="M14 12H14.4C14.7314 12 15 12.2686 15 12.6V15.4C15 15.7314 14.7314 16 14.4 16H9.6C9.26863 16 9 15.7314 9 15.4V12.6C9 12.2686 9.26863 12 9.6 12H10M14 12V10C14 9.33333 13.6 8 12 8C10.4 8 10 9.33333 10 10V12M14 12H10" stroke="currentColor" stroke-linecap="round" stroke-linejoin="round"/>
<path d="M2 8L11.7317 3.13416C11.9006 3.04971 12.0994 3.0497 12.2683 3.13416L22 8" stroke="currentColor" stroke-linecap="round" stroke-linejoin="round"/>
<path d="M20 11V19C20 20.1046 19.1046 21 18 21H6C4.89543 21 4 20.1046 4 19V11" stroke="currentColor" stroke-linecap="round" stroke-linejoin="round"/>
</svg>
