<?xml version="1.0" encoding="utf-8"?>
<!-- Generator: Adobe Illustrator 18.1.1, SVG Export Plug-In . SVG Version: 6.00 Build 0)  -->
<svg version="1.1" id="Layer_1" xmlns="http://www.w3.org/2000/svg" xmlns:xlink="http://www.w3.org/1999/xlink" x="0px" y="0px"
	 width="52px" height="52px" viewBox="0 0 52 52" enable-background="new 0 0 52 52" xml:space="preserve">
<path fill="#FFFFFF" d="M36,20c0-2.2-1.8-4-4-4H6c-2.2,0-4,1.8-4,4v26c0,2.2,1.8,4,4,4h26c2.2,0,4-1.8,4-4V20z M28,34
	c0,0.5-0.5,1-1,1h-6v6c0,0.5-0.5,1-1,1h-2c-0.5,0-1-0.5-1-1v-6h-6c-0.5,0-1-0.5-1-1v-2c0-0.5,0.5-1,1-1h6v-6c0-0.5,0.5-1,1-1h2
	c0.5,0,1,0.5,1,1v6h6c0.5,0,1,0.5,1,1V34z"/>
<g>
	<g>
		<path fill="#FFFFFF" d="M43,42h-3v-6h3c0.6,0,1-0.4,1-1V9c0-0.6-0.4-1-1-1H17c-0.6,0-1,0.4-1,1v3h-6V9c0-3.9,3.1-7,7-7h26
			c3.9,0,7,3.1,7,7v26C50,38.9,46.9,42,43,42z"/>
	</g>
</g>
</svg>
