<svg xmlns="http://www.w3.org/2000/svg" height="100" width="100" viewBox="0 0 1000 1000" fill="#fff"><path d="M521 679a153 153 0 0 1 29-89H371a8 8 0 0 1-9-9v-9a8 8 0 0 1 9-9h202a154 154 0 0 1 29-21l-1-4V411a8 8 0 0 1 9-9h17a8 8 0 0 1 9 9v119a143 143 0 0 1 96 5V268a24 24 0 0 0-24-24H293a24 24 0 0 0-24 24v415a24 24 0 0 0 24 24h53v25a24 24 0 0 0 24 24h28a24 24 0 0 0 24-24v-25h103a86 86 0 0 1-4-28zm-55-139a8 8 0 0 1-9 9h-17a8 8 0 0 1-9-9V411a8 8 0 0 1 9-9h17a8 8 0 0 1 9 9zm77 0a8 8 0 0 1-9 9h-34a8 8 0 0 1-9-9V411a8 8 0 0 1 9-9h34a8 8 0 0 1 9 9zm33 0a9 9 0 0 1-18 0V411a9 9 0 1 1 18 0zM363 368a8 8 0 0 1 9-9h257a8 8 0 0 1 9 9v9a8 8 0 0 1-9 9H371a8 8 0 0 1-9-9v-9zm0 43a8 8 0 0 1 9-9h34a8 8 0 0 1 9 9v129a8 8 0 0 1-9 9h-34a8 8 0 0 1-9-9zm328 270a14 14 0 0 1-2-6v-48a8 8 0 0 0-7-8h-15a8 8 0 0 0-7 8v60a14 14 0 0 0 2 6l37 37a7 7 0 0 0 10 0l11-11a8 8 0 0 0 0-11zm-16-122a120 120 0 1 0 121 120 121 121 0 0 0-121-120zm0 210a90 90 0 1 1 90-90 89 89 0 0 1-90 90z"/></svg>