<svg xmlns="http://www.w3.org/2000/svg" height="100" width="100" viewBox="0 0 1000 1000" fill="#fff"><path d="M538 603a4 4 0 0 1-3 2h-16a4 4 0 0 1-3-6l110-202a4 4 0 0 1 3-2h17a4 4 0 0 1 1 5zm111-74a22 22 0 1 1-22 22 22 22 0 0 1 22-22m0-29a52 52 0 1 0 51 51 51 51 0 0 0-51-51zm140-29-24-28a52 52 0 0 1-12-30l-2-36a47 47 0 0 0-43-44l-32-2a67 67 0 0 1-38-16l-24-21a47 47 0 0 0-61 0l-26 22a59 59 0 0 1-34 14l-34 2a47 47 0 0 0-43 43l-3 31a68 68 0 0 1-14 35v46l20-24a97 97 0 0 0 23-55l3-31a17 17 0 0 1 16-15l34-3a89 89 0 0 0 51-20l26-22a17 17 0 0 1 11-5 18 18 0 0 1 12 5l24 20a96 96 0 0 0 55 23l31 3a17 17 0 0 1 16 16l3 37a80 80 0 0 0 19 46l24 28a18 18 0 0 1 0 23l-20 22a104 104 0 0 0-25 59l-3 30a17 17 0 0 1-16 15l-36 3a82 82 0 0 0-47 19l-28 23a18 18 0 0 1-23 0l-24-21a95 95 0 0 0-55-23l-32-3a17 17 0 0 1-15-14l-23 22a47 47 0 0 0 36 22l31 2a66 66 0 0 1 38 16l25 21a47 47 0 0 0 61 1l27-24a54 54 0 0 1 31-12l36-3a47 47 0 0 0 44-42l2-30a75 75 0 0 1 18-42l19-22a47 47 0 0 0 1-61zM318 327v244a7 7 0 0 1-13 5l-70-71a11 11 0 0 0-15 0l-16 16a11 11 0 0 0 0 16l129 128a11 11 0 0 0 15 0l129-128a11 11 0 0 0 0-16l-16-15a11 11 0 0 0-15 0l-70 70a8 8 0 0 1-14-5l1-244a11 11 0 0 0-10-11h-23a11 11 0 0 0-12 11zm198 100a22 22 0 1 1-22 22 22 22 0 0 1 22-22m0-30a52 52 0 1 0 52 52 52 52 0 0 0-52-52z"/></svg>