<svg xmlns="http://www.w3.org/2000/svg" height="100" width="100" viewBox="0 0 100 100" fill="#fff"><path d="M63 36h11a1 1 0 0 0 1-1 1 1 0 0 0 0-1L61 20a1 1 0 0 0-1 0 1 1 0 0 0-1 1v11a4 4 0 0 0 4 4zm10 6H59a6 6 0 0 1-6-6V22a2 2 0 0 0-2-2H31a6 6 0 0 0-6 6v48a6 6 0 0 0 6 6h38a6 6 0 0 0 6-6V44a2 2 0 0 0-2-2zm-40-2a2 2 0 0 1 2-2h8a2 2 0 0 1 2 2v2a2 2 0 0 1-2 2h-8a2 2 0 0 1-2-2zm30 26a2 2 0 0 1-2 2H35a2 2 0 0 1-2-2v-2a2 2 0 0 1 2-2h26a2 2 0 0 1 2 2zm4-12a2 2 0 0 1-2 2H35a2 2 0 0 1-2-2v-2a2 2 0 0 1 2-2h30a2 2 0 0 1 2 2z"/></svg>