<svg xmlns="http://www.w3.org/2000/svg" height="100" width="100" viewBox="0 0 1000 1000" fill="#fff"><path d="M695 283v93a18 18 0 0 0 18 18h11a7 7 0 0 0 7-7V283a7 7 0 0 0-7-6h-23a7 7 0 0 0-6 6Zm-181 16v56c0 40 31 43 65 43 32 0 42-12 73-13a7 7 0 0 0 6-7v-90a7 7 0 0 0-6-7c-22 0-39-23-39-47v-27a7 7 0 0 0-7-7h-11a18 18 0 0 0-18 18v45a18 18 0 0 1-18 18h-27a18 18 0 0 0-18 18Z"/><path d="M571 434c-43 0-90-12-90-62v-55H315a46 46 0 0 0-46 46v391a46 46 0 0 0 46 46h297a46 46 0 0 0 46-46V417c-35 3-49 17-87 17Zm-238 97 24-28 47 40-23 28a31 31 0 1 1-49-39Zm48 184a31 31 0 0 1-50-37 39 39 0 0 1 2-3l24-27 47 40Zm57-68-24 28-47-40 23-28a31 31 0 0 1 47 40Zm0-144-24 28-47-40 23-28a31 31 0 0 1 49 38 12 12 0 0 1-2 2Zm156 181a8 8 0 0 1-7 9H483a10 10 0 0 1-9-9v-17a9 9 0 0 1 9-10h102a9 9 0 0 1 9 10v18Zm0-145a9 9 0 0 1-7 10H483a9 9 0 0 1-9-10v-17a9 9 0 0 1 9-9h102a9 9 0 0 1 9 9Z"/></svg>