<svg xmlns="http://www.w3.org/2000/svg" height="100" width="100" viewBox="0 0 1000 1000" fill="#fff"><path d="M660 495c18 0 32 19 47 26s40 3 52 16 9 35 16 51 25 30 25 48-19 31-25 47-3 40-16 51-35 9-52 16-30 26-47 26-32-19-48-26-40-3-51-16-9-35-16-51-26-30-26-48 20-31 26-47 3-40 16-51 35-9 51-16 30-26 48-26ZM509 687a58 58 0 0 1 5 9c6 15 6 35 11 51H217a19 19 0 0 1-17-20v-20a19 19 0 0 1 17-20h292Zm203-97a7 7 0 0 0-10 0l-55 62-25-25a7 7 0 0 0-9 0l-10 10a6 6 0 0 0 0 10l35 35a14 14 0 0 0 10 5 13 13 0 0 0 10-5l65-72a8 8 0 0 0 0-10ZM258 329a17 17 0 0 1 17 18v277a17 17 0 0 1-17 18h-41a17 17 0 0 1-17-18V347a17 17 0 0 1 17-18h41Zm238 0a18 18 0 0 1 17 18h1v228c-9 20-33 38-33 60a31 31 0 0 0 0 7h-40a18 18 0 0 1-18-18V347a18 18 0 0 1 18-18h54Zm-122 0a19 19 0 0 1 20 18v277a19 19 0 0 1-20 18h-20a19 19 0 0 1-20-18V347a19 19 0 0 1 20-18h20Zm224 0a19 19 0 0 1 20 18v131a94 94 0 0 1-19 11 228 228 0 0 1-41 9V347a19 19 0 0 1 20-18h20Zm108 0a17 17 0 0 1 17 18v143l-3-1c-20-8-38-33-60-33a34 34 0 0 0-12 2V347a17 17 0 0 1 17-18h41Zm-1-105a19 19 0 0 1 18 20v20a19 19 0 0 1-18 20H217a19 19 0 0 1-17-20v-20a19 19 0 0 1 17-20h488Z"/></svg>