<svg viewBox="0 0 1285 1008.0124" xmlns="http://www.w3.org/2000/svg"><path d="M71 935.012h161v-161H71v161zm197 0h178v-161H268v161zm-197-197h161v-178H71v178zm197 0h178v-178H268v178zm-197-214h161v-161H71v161zm411 411h179v-161H482v161zm-214-411h178v-161H268v161zm428 411h161v-161H696v161zm-214-197h179v-178H482v178zm-196-482v-161q0-7-6-12t-12-6h-36q-7 0-12 6t-6 12v161q0 7 6 13t12 5h36q7 0 12-5t6-13zm410 482h161v-178H696v178zm-214-214h179v-161H482v161zm214 0h161v-161H696v161zm18-268v-161q0-7-5-12t-13-6h-35q-7 0-13 6t-5 12v161q0 7 5 13t13 5h35q8 0 13-5t5-13zm215-36v715q0 29-22 50t-50 21H71q-29 0-50-21t-21-50v-715q0-29 21-50t50-21h72v-54q0-37 26-63t63-26h36q37 0 63 26t26 63v54h214v-54q0-37 27-63t63-26h35q37 0 64 26t26 63v54h71q29 0 50 21t22 50z"/></svg>