<svg xmlns="http://www.w3.org/2000/svg" xmlns:xlink="http://www.w3.org/1999/xlink" viewBox="15 0 295 295"><defs><linearGradient id="a"><stop offset="0" stop-color="#d4e3eb" stop-opacity=".498"/><stop offset="1" stop-color="#d4e3eb" stop-opacity="0"/></linearGradient><linearGradient><stop offset="0" stop-color="#d4e3eb" stop-opacity=".498"/><stop offset="1" stop-color="#d4e3eb" stop-opacity="0"/></linearGradient><linearGradient xlink:href="#a" id="b" x1="64.844" y1="175.62" x2="114.723" y2="175.62" gradientUnits="userSpaceOnUse"/></defs><path d="M255.278 178.653a106.515 99.774 0 1 1-213.03 0 106.515 99.774 0 1 1 213.03 0z" transform="matrix(1.089 0 0 1.126 -15.435 -31.53)" fill="#002452" stroke="#000"/><path d="M34.958 141.102l6.674-9.216c5.95.65 9.922 3.932 13.347 7.945l2.54 3.5 2.86-.63 4.13 3.5-.32-2.54 2.22 3.18 2.22 1.59 1.59-.64 6.35 3.5 4.13-5.4-.96-.95 4.13-.32 1.59-6.04-3.82 3.18-4.45-.32-.32-2.22H75.6l-1.907-4.45-1.59.64-.637 2.86-1.59-.31.64-5.72-3.816-1.27-1.27-1.59 2.227-1.27v-1.28l-2.223-1.27 2.23-3.49.32-5.4-3.18.32 2.54-4.45.314-6.35-1.59-.63.32-1.27 1.27-.95v-7c2.225-5.93 4.45-5.84 6.674-7.94v-6.7c-15.78 10.99-31.024 26.93-39.4 59.43z" fill="#8ac2ff"/><path d="M102.33 139.195l2.86 4.45.32 5.084 7.944-.32c11.298 8.75 6.656 10.54 5.085 13.66l11.12.95.32-2.23h4.76l-.64-2.86 1.27-1.59v-3.82l1.91-1.27-.32-1.27-4.13-.32-.96-4.77 4.45-3.81 1.27-6.36.32-3.18 45.12 6.35 2.86 2.86-.96 5.72 3.49 2.54v5.4s-5.72.63-6.99 0c-1.27-.64-3.18.95-3.18.95l9.21 1.27c2.55 5.13 4.32 6.34 6.04 7.31v16.84l-17.8 24.15-6.68.95-4.77 2.22-8.58-.96c-4.7-1.95-3.84-4.52-.96-7.31 2.98-2.1.28-5.02-2.54-7.95 2.2-1.52 1.49-4.02 1.27-6.36L142 177.27l-2.547 7.31h-2.86v3.815l1.59.32v5.085l-3.818-3.18-2.54-.32v2.54l-1.91.64-8.9-5.08-.638-4.77h-1.59l-1.903-3.172 2.226-2.54-2.86-3.813-2.54 2.86-2.54.32-.95-3.18.63-2.224h2.225l.958-2.54-1.906-4.13 2.86-1.27-.31-7.94-5.09-3.18-3.816-.95 7.63 4.77-.95 3.82-1.9-.32c-1.27-2.12-.24-4.24-6.99-6.35l.64-3.5-2.86-2.54.95-8.58z" fill="#5ea9fe"/><path d="M39.407 122.352C37.99 61.762 74.13 23.737 133.475 13.666c43.42-1.824 65.696 18.255 88.03 27.966l6.356-13.03c.18.823 2.68.376 3.61 1.2l5.61 7.38 6.68.636 13.03 9.216 38.77-2.542c.03 3.76.43 8.28-.32 10.487-4.86 4.07-11.47 9.31-12.36 12.1-.81 2.52-1.88 4.13-3.84 5.06-.15 5.38 1.14 8.62-2.22 12.39l-3.17 21.93c-5.02 3.12-9.95 7.78-13.34 13.34l-.95 4.76c.91 1.64-2.06 1.41-4.69 4.61-2.15 2.61-4.48 2.87-8.97 1.74l-7.94-.64-1.27-2.86-10.17-.96-2.22-.32-6.99-6.68c-10.08-1.86-8.32-11.35-12.39-18.75l-8.29-10.15c-6.45 2.31-10.23 7.53-17.48 18.43-.88 10.58-3.71 12.8-1.59 32.41.58 2.83.94 5.77 1.65 8.63 1.45 5.8 3.36 11.78 3.76 16.16 3.36 5.09 7.66 9.99 6.99 15.89 4.68 5.75 4.06 10.63 3.82 15.57 4.73 4.11 5.65 7.86 5.4 11.12-1.35 3.22-.7 7.95-5.09 8.9l-7.63-.96-1.59-2.23-6.04-.96-3.18-5.72c.1-5.94-4.8-11.87-11.44-17.8-1.07-2.34-5.62-5.58-3.66-7.04 2.06-1.53.32-7.78-3.39-10.63-2.74-2.11-3.73-6.07-7.26-9.36 1.49 2.09-5.65-13.98-5.08-16.53.92-4.16-3.55-17.26-5.72-17.48V102.9c-3.9-18.6-9.63-44.27-46.86-30.41-7.54 2.81-26.74 9.96-52.62 49.808z" fill="#f1f6f8" stroke="#000"/><path d="M146.14 151.673c18.22-20.34 32.384-47.7 49.624-62.77 4.294 7.293 6.79 7.47 9.82 12.81 3.83 6.755.996 14.01 6.39 15.17 4.914 1.698 7.287 6.127 12.2 8.64l13.223 1.325c.46-.56-.79 1.87.44 2.39 3.136 1.325 12.06 2.604 13.236 1.63l14.61-27.462-20.023-50.28-39.725-18.17-134.75 24.468L43.22 86.45l-4.768 38.348c7.73-13.167 19.104-31.617 31.78-39.014 56.878-41.732 67.906 5.34 67.057 9.447l6.67 41.16 2.18 15.29z" fill="#d0e0e9"/><path d="M191.314 258.05l2.86-3.813v-4.767s9.216-9.534 10.17-8.58c.952.952 9.215-.32 9.215-.32l.31-2.86 4.76-.317 5.72-5.72h1.9l-.64-2.86 2.54-2.225-.32-3.496 3.17-5.085.63-4.767 3.18-3.178 3.18 2.225 6.67-.953.95 8.898-2.86 5.72-.95 6.992-1.91.636-.32 4.45-5.72 3.495.95 1.907c-7.57 11.817-23.28 15.49-43.54 14.62z" fill="#056eff"/><path d="M209.746 257.097c22.68-23.452 18.75-29.237 18.75-29.237l-2.86.636.318 3.178-1.907.953-5.72 4.45-4.45 1.27-1.27 2.86-9.852.318-8.898 7.627-.318 5.403-2.55 3.496c8.05 1.49 13.11-.02 18.75-.95z" fill="#00c5ff"/><path d="M90.803 156.99c25.517 54.614 39.888 82.744 103.262 101.38 33.42 1.817 51.34-24.898 61.45-47.353 2.814 11.804 1.967 24.315 0 36.23-11.52 18.39-23.858 33.373-48.78 34.957-28.414 4.027-60.626.704-101.995-29.238-48-46.845-37.757-71.8-39.91-94.07 6.788-18.45 15.814-15.578 25.973-1.906z" fill="#aad4ff" stroke="#000" stroke-width=".998"/><path d="M68.59 194.664c16.235-.897 34.887 6.196 46.133 10.156-7.22-9.74-14.36-25.437-22.504-42.703-3.15-7.45-8.02-16.45-18.43-15.65-6.37 4.55-10.51 15.807-8.4 29.052 1 6.16.82 14.51 3.19 19.14z" fill="#f2f2f2" stroke="url(#b)"/><path d="M65.466 175.106c8.073 2.1 13.45-6.577 19.068-14.3l.636 12.393-19.386 11.12-.318-9.22z" fill="#002655"/><path d="M71.504 207.84l24.47-13.348-2.86-7.31c-6.89 5.282-11.115 12.636-25.106 12.395l3.496 8.263z" fill="#00244f"/><path d="M76.59 217.055c9.243-2.802 17.947-6.697 25.423-13.03l3.178 5.403c-9.21 4.553-16.83 10.705-23.51 17.797l-5.08-10.17z" fill="#002045"/><path d="M89.3 236.123c8.406-5.49 19.076-9.848 24.47-16.843l5.404 5.085c-4.24 9.49-12.96 15.396-21.292 21.61l-8.58-9.852z" fill="#002655"/><path d="M105.508 252.966c31.2-15.813 25.91-19.29 25.742-19.386l-.318.953c1.642 4.82-.628 13.915-13.347 26.06-4.528-2.04-9.19-3.948-12.076-7.628z" fill="#002a5d"/><path d="M129.66 267.267c11.68-18.154 13.89-22.42 13.984-22.564.433 4.478-.47 9.74 2.225 12.712l2.54.636c-1.33 5.51-4 11.02-3.82 16.53-10.05-2.43-11.16-4.87-14.94-7.31z" fill="#00346f"/><path d="M155.72 278.072c7.815-3.455 4.45-24.153 4.45-24.153l12.393 14.3c-1.25 6.83-1.146 12.51 3.496 14.3-6.68-.87-12.9 1-20.34-4.45z" fill="#003e84"/><path d="M187.5 262.818c20.936 6.25 13.914 12.5 20.34 18.75-5.526 1.157-10.888 2.396-19.704 1.907 6.504-4.82 3.748-12.488-.636-20.657z" fill="#004fa5"/><path d="M225.318 261.547c3.602 5.48 7.203 7.956 10.805 9.216-4.75 4.606-10.31 6.78-15.89 8.898 1.75-3.56.3-9.52-1.27-15.57-1.18-2.25 4.69-2.04 6.355-2.54z" fill="#005cc1"/><path d="M212.58 79.33c-1.3-7.634-1.004-16.55 7.335-33.29 1.185-2.378 1.63-2.153 1.654-4.913l6.74-12.584 4.04 1.348c1.21 3.39 2.68 5.76 4.49 6.75 2.74.95 5.32 1.73 6.29.9l13.48 9.44 38.65-2.24.45 10.79-10.79 8.54-4.16 6.86-1.91 1.02-.23 7.98-1.01 3.49-1.02.9-3.26 21.68c-5.66 5.3-13.48 7.85-14.16 19.21l-3.6 2.47-2.81 3.04-3.71.68c-1.29-8.39-3.61-7.13-2.75-11.05.72-3.28 5.59-8.69 6.69-10.63l5.09-.22 2.87-2.03-11.91-2.47-2.7 5.17-13.94-16.29.45 16.07-7.87-1.23c-3.17-4.53-12.37-7.87-14.385-13.48-1.905-3.61-.49-7.89 3.596-12.7l6.8 4.66 7.193.34 8.09-3.82-.226-7.86-5.51-18.427-3.707-8.99c-4.424 10.44-2.384 23.655-14.27 30.9z" fill="#6db5ff"/><path d="M39.55 102.7l13.034-25.62 16.18-9.887 53.932-1.348c9.667 1.32 11.45 7.148 12.898 13.167 8.74.76 9.41 4.543 8.675 8.856l-6.3 8.99 1.8 32.358 4.94 8.09 1.34-21.123c-.34-13.59 3.15-15.7 6.29-18.876 32.97-.102 33.06-25.784 34.6-50.336 1.11-1.34 1.96-2.69 5.39-4.04l22.92-4.04C113.27-3.3 53.55 31.95 39.55 102.7z" fill="#5babfe"/><path d="M61.97 50.212l6.992 1.59 3.496-2.543 3.178 7.3 3.496 1.27-.318-2.86-6.674-13.34c5.702 2.57 10.468 7.95 13.665 9.85-.99-4.31-.693-7.98 0-11.44l1.907-1.91 3.178 9.21c4.802 5.24 6.23 9.57 8.58 13.99 2.83.18 4.218-.13 5.404-1.59-2.12.65-3.53-1.06-4.767-5.41l-.318-7.31-2.86-1.27-.64-11.13 3.18.63 6.99 20.66c6.8 4.9 10.15 6.34 13.66 7.94 0 0 2.54.95 3.81.95s0-2.23 0-2.23c-6.09-1.61-10.88-8.4-16.21-13.03-3.62-8.81-1.15-9.93-1.59-14.94l4.13 7.31c3.39 4.83 6.78 9.13 10.17 11.44l-.32-4.45c-8.9-12.38-4.37-12.83-6.36-19.07l3.18.64.63 9.21c5.33 5.35 14.55 8.48 14.62 16.84 1.85-1.5 7.01 4.05 8.89 14.3l-.32-11.12c-5.72-4.96-11.44-14.12-17.16-23.2-2.5-4.57-1.78-8.34-.96-12.08 2.71 1.23 6.6 1.67 6.99 4.45l11.45 23.52c7.86 5.63 8.78 11.96 8.26 18.43 5.33 4.58 5.29 11.31 6.67 17.48l-.96-13.03-12.05-43.2 5.4.32 1.9 5.41 5.08 3.17 3.18 12.72 1.9 23.512.96.96-.32 13.347 2.86-13.66-1.59-2.86-.63-24.16c-2.7-3.18-2.21-6.36-2.54-9.54l1.91-7.31 2.54.32.64 11.44 1.9 6.35V40.68l7.31-4.768-1.9 20.02c1.36-4.427 3.12-12.416 4.45-19.385l5.72 1.907c-.13 15.746-2.49 27.518-4.13 40.996 5.29-6.7 4.26-22.847 6.36-34.322l9.85-10.805 2.22 1.907-6.674 17.797-4.45 18.432.956.31 8.58-20.66V48.3l3.18-9.215 6.99 4.45 11.123-4.133C184.33 17.952 120.345-11 61.98 50.212z" fill="#004ca0"/><path d="M225.615 67.868l1.798-13.932 5.168-12.81.23-3.37 6.07 2.022 17.75 10.112 25.17.225c-7.21 2.83-16.12 6.142-21.79 7.865l-7.19-.225c-5.68-4.847-11.31-9.508-16.4-12.584-6.17 6.47-8.75 14.46-10.78 22.7z" fill="#003a7b"/><path d="M237.3 97.98c9.328 9.38 8.815 10.76 8.764 10.786-.235-1.845-.168-3.324.225-6.292-3.5-3.496-6.03-3.123-8.99-4.494zm11.01 28.54l2.698-2.023 4.944.674c-1.198 1.93-2.397 3.24-3.595 3.38-.75.08-1.43-.04-4.494-1.12l.45-.9z" fill="#001c41"/><path d="M239.877 119.7c-8.104-.16-7.945 0-7.945 0-1.263-.22-3.722.756-6.674 2.225-2.004 2.77-4.602 4.355-6.992 6.356l6.674-7.3c1.776-1.13 3.59-2.23 6.197-2.54 3.583-.1 6.11-.21 8.898-.31l-.16 1.59zm-5.72-2.383c-3.236.015-6.235-.68-9.852.477-5.95 1.74-8.205 3.627-11.123 4.608l8.898-5.72c4.64-1.262 8.606-.5 12.87-.636l-.793 1.27zm6.543 5.116c-.993-.443-11.583 1.134-11.266 2.644-5.11 1.19-8.083 5.775-11.96 8.924l5.72-7.1c3.96-3.5 6.79-3.78 9.88-4.79 3.678-.46 6.406-.46 9.187-.49l-1.56.83z" fill="#9fceff"/><path d="M220.65 131.46z" stroke="#000" fill="none"/></svg>