<svg xmlns="http://www.w3.org/2000/svg" viewBox="0 0 24 24" xml:space="preserve"><path d="M9.17 13.416c-.615-.859-.851-1.624-.931-2.055l2.459-2.393a1 1 0 0 0 .043-1.391L7.045 3.513a.999.999 0 0 0-1.391-.087l-2.17 1.861a1 1 0 0 0-.29.648c-.014.235-.251 5.479 3.534 9.923l-4.435 4.435 1.414 1.414 18-18-1.414-1.414L9.17 13.416zM16.607 13.443a1.001 1.001 0 0 0-1.391.043l-2.392 2.461a4.39 4.39 0 0 1-.517-.134L9.65 18.471C13.132 20.794 16.751 21 17.891 21c.203 0 .326-.006.359-.008a.99.99 0 0 0 .648-.291l1.861-2.171a1.002 1.002 0 0 0-.086-1.391l-4.066-3.696z"/></svg>