<svg height="52" viewBox="0 0 52 52" width="52" xmlns="http://www.w3.org/2000/svg"><g fill="#fff"><path d="m46.31 7.54h-40.62a3.69 3.69 0 0 0 -3.69 3.69v29.54a3.69 3.69 0 0 0 3.69 3.69h40.62a3.69 3.69 0 0 0 3.69-3.69v-29.54a3.69 3.69 0 0 0 -3.69-3.69zm0 32.31a.93.93 0 0 1 -.93.92h-38.76a.93.93 0 0 1 -.93-.92v-25.85a.93.93 0 0 1 .93-.92h38.76a.93.93 0 0 1 .93.92z"/><path d="m26.52 17a.7.7 0 0 0 -1-.1.47.47 0 0 0 -.1.1l-6.57 7.12a.88.88 0 0 0 0 1.19l1.15 1.21a.71.71 0 0 0 1 .1l.1-.1 2.42-2.61a.57.57 0 0 1 .81 0 .56.56 0 0 1 .15.37v10.16a.8.8 0 0 0 .72.85h1.59a.87.87 0 0 0 .83-.85v-10.18a.53.53 0 0 1 .9-.4l2.42 2.66a.87.87 0 0 0 1.15 0l1.1-1.18a.88.88 0 0 0 0-1.19z"/></g></svg>