<?xml version="1.0" encoding="utf-8"?>
<!-- Generator: Adobe Illustrator 21.1.0, SVG Export Plug-In . SVG Version: 6.00 Build 0)  -->
<svg version="1.1" id="Layer_1" xmlns="http://www.w3.org/2000/svg" xmlns:xlink="http://www.w3.org/1999/xlink" x="0px" y="0px"
	 width="100px" height="100px" viewBox="0 0 100 100" enable-background="new 0 0 100 100" xml:space="preserve">
<g>
	<path fill="#FFFFFF" d="M62.7,64.8c3.5-5.7,2.8-13.3-2.2-18.2c-5.8-5.8-15.2-5.8-21,0c-4.9,4.9-5.7,12.5-2.2,18.2H62.7z"/>
</g>
<path fill="#FFFFFF" d="M80,26v48c0,3.3-2.7,6-6,6H26c-3.3,0-6-2.7-6-6V26c0-3.3,2.7-6,6-6h48C77.3,20,80,22.7,80,26z M30,71.9h40
	c1.1,0,2-0.9,2-2V30c0-1.1-0.9-2-2-2H30c-1.1,0-2,0.9-2,2v39.9C28,71,28.9,71.9,30,71.9z"/>
</svg>
