<svg height="100" viewBox="0 0 100 100" width="100" xmlns="http://www.w3.org/2000/svg"><path d="m47.44 61.66a1 1 0 0 1 1 .91v14.37a3.06 3.06 0 0 1 -2.87 3h-20.49a3.06 3.06 0 0 1 -3-2.88v-14.38a1 1 0 0 1 .91-1h24.5zm29.51 0a1 1 0 0 1 1 .91v14.37a3.06 3.06 0 0 1 -2.87 3h-20.49a3.06 3.06 0 0 1 -3-2.88v-14.38a1 1 0 0 1 .91-1h24.5zm-37.36 4.23-.09.11-5.82 6.32-2.63-2.55a.77.77 0 0 0 -1-.08l-.09.08-1.09 1a.62.62 0 0 0 -.07.9l.07.08 3.73 3.54a1.56 1.56 0 0 0 1.08.45 1.43 1.43 0 0 0 1.09-.45l3.14-3.32.63-.67 3.14-3.31a.78.78 0 0 0 .06-.9l-.06-.08-1.09-1a.76.76 0 0 0 -1-.12zm29.51 0-.1.11-5.82 6.32-2.64-2.55a.75.75 0 0 0 -1-.08l-.09.08-1.09 1a.62.62 0 0 0 -.07.9l.07.08 3.73 3.54a1.54 1.54 0 0 0 1.08.45 1.43 1.43 0 0 0 1.09-.45l3.14-3.32.63-.67 3.14-3.31a.78.78 0 0 0 .06-.9l-.06-.08-1.07-1.01a.76.76 0 0 0 -1-.11zm-23.43-14.41a3 3 0 0 1 2.85 2.87v3.24a1 1 0 0 1 -.84 1h-26.68a1 1 0 0 1 -.94-.9v-3.16a3 3 0 0 1 2.69-3.05h23zm31.48 0a3 3 0 0 1 2.85 2.87v3.24a1 1 0 0 1 -.84 1h-26.73a1 1 0 0 1 -1-.9v-3.16a3 3 0 0 1 2.68-3.05h23zm-15-21.29a1 1 0 0 1 1 .91v14.37a3.06 3.06 0 0 1 -2.87 3.05h-20.44a3.06 3.06 0 0 1 -3.05-2.87v-14.44a1 1 0 0 1 .9-1h24.51zm-7.85 4.22-.09.08-5.82 6.32-2.59-2.56a.76.76 0 0 0 -1-.07l-.09.07-1.08 1a.61.61 0 0 0 -.07.9l.07.08 3.72 3.53a1.56 1.56 0 0 0 1.09.45 1.43 1.43 0 0 0 1.08-.45l3.14-3.31.64-.67 3.13-3.32a.78.78 0 0 0 .06-.9l-.06-.07-1.08-1a.77.77 0 0 0 -1-.08zm7.9-14.41a3.06 3.06 0 0 1 3 2.88v3.23a1 1 0 0 1 -.91 1h-28.52a1 1 0 0 1 -1-.91v-3.14a3.06 3.06 0 0 1 2.87-3h24.56z" fill="#fff"/></svg>