<?xml version="1.0" encoding="UTF-8" standalone="no"?>
<svg width="100px" height="100px" viewBox="0 0 100 100" version="1.1" xmlns="http://www.w3.org/2000/svg" xmlns:xlink="http://www.w3.org/1999/xlink" xmlns:sketch="http://www.bohemiancoding.com/sketch/ns">
    <!-- Generator: Sketch 3.3 (11970) - http://www.bohemiancoding.com/sketch -->
    <title>Artboard</title>
    <desc>Created with Sketch.</desc>
    <defs></defs>
    <g id="Page-1" stroke="none" stroke-width="1" fill="none" fill-rule="evenodd" sketch:type="MSPage">
        <g id="Artboard" sketch:type="MSArtboardGroup" fill="#FFFFFF">
            <path d="M100,100 L100,62 L62,100 L100,100 Z M96.1,85.6 L93,88.8 C92.9,88.9 92.9,89 92.9,89.1 L93.6,93.6 C93.7,93.9 93.3,94.2 93.1,94 L89.3,91.9 C89.2,91.8 89.1,91.8 89,91.9 L85,94 C84.7,94.1 84.4,93.9 84.5,93.6 L85.2,89.1 C85.2,89 85.2,88.8 85.1,88.8 L82,85.6 C81.8,85.3 81.9,85 82.2,84.9 L86.5,84.2 C86.6,84.2 86.7,84.1 86.8,84 L88.7,79.9 C88.8,79.6 89.2,79.6 89.4,79.9 L91.3,84 C91.4,84.1 91.5,84.2 91.6,84.2 L95.9,84.9 C96.2,84.9 96.3,85.3 96.1,85.6 L96.1,85.6 L96.1,85.6 Z" id="Shape" fill-opacity="0.65" sketch:type="MSShapeGroup"></path>
            <path d="M49.9,22 C33.3,22 19.9,34.5 19.9,50 C19.9,55 21.3,59.6 23.7,63.7 C24,64.2 24.1,64.8 23.9,65.3 L21.1,74.2 C20.6,75.8 22.1,77.2 23.7,76.7 L32.5,73.6 C33.1,73.4 33.7,73.5 34.2,73.8 C38.8,76.5 44.2,78 50,78 C66.6,78 80,65.5 80,50 C79.9,34.5 66.6,22 49.9,22 L49.9,22 L49.9,22 Z M52.9,67 C52.9,68.1 52,69 50.9,69 L48.9,69 C47.8,69 46.9,68.1 46.9,67 L46.9,65 C46.9,63.9 47.8,63 48.9,63 L50.9,63 C52,63 52.9,63.9 52.9,65 L52.9,67 L52.9,67 Z M53.8,54.3 C53.4,54.4 53,54.8 53,55.3 L53,56.9 C53,58 52.1,59 51,59 L49,59 C47.9,59 47,58 47,56.9 L47,55.3 C47,52.3 49,49.6 51.9,48.6 C53,48.2 54,47.7 54.6,46.8 C58,42.3 54.6,37.1 50.1,37 C48.5,36.9 46.9,37.6 45.7,38.7 C44.9,39.5 44.3,40.5 44.1,41.5 C43.9,42.4 43.1,43.1 42.2,43.1 L40.1,43.1 C38.9,43.1 37.9,41.9 38.1,40.7 C38.6,38.3 39.7,36.1 41.5,34.4 C43.8,32.1 46.9,30.9 50.2,31 C56.5,31.2 61.7,36.4 61.9,42.7 C62.1,47.9 58.9,52.6 53.8,54.3 L53.8,54.3 L53.8,54.3 Z" id="Shape_1_" sketch:type="MSShapeGroup"></path>
        </g>
    </g>
</svg>