<?xml version="1.0" encoding="utf-8"?>
<!-- Generator: Adobe Illustrator 21.1.0, SVG Export Plug-In . SVG Version: 6.00 Build 0)  -->
<svg version="1.1" id="Layer_1" xmlns="http://www.w3.org/2000/svg" xmlns:xlink="http://www.w3.org/1999/xlink" x="0px" y="0px"
	 width="100px" height="100px" viewBox="0 0 100 100" enable-background="new 0 0 100 100" xml:space="preserve">
<g>
	<path fill="#FFFFFF" d="M72,26h-5v-2c0-2.2-1.8-4-4-4c-2.2,0-4,1.8-4,4v2H41v-2c0-2.2-1.8-4-4-4s-4,1.8-4,4v2h-5c-3.3,0-6,2.7-6,6
		v2c0,1.1,0.9,2,2,2h52c1.1,0,2-0.9,2-2v-2C78,28.7,75.3,26,72,26z"/>
	<g>
		<path fill="#FFFFFF" d="M76,42H24c-1.1,0-2,0.9-2,2v30c0,3.3,2.7,6,6,6h44c3.3,0,6-2.7,6-6V44C78,42.9,77.1,42,76,42z M64.9,61.1
			c-0.1,8.2-6.8,14.9-15,14.8c-8.2-0.1-14.9-6.8-14.8-15c0.1-8.2,6.8-14.9,15-14.8C58.3,46.1,64.9,53,64.9,61.1
			C64.9,61.1,64.9,61.1,64.9,61.1z"/>
		<path fill="#FFFFFF" d="M49.8,50.2v11.4h10.7c0,0,0.6-4-3.1-7.8S49.8,50.2,49.8,50.2z"/>
	</g>
</g>
</svg>
