<svg viewBox="0 0 24 24" fill="currentColor" xmlns="http://www.w3.org/2000/svg"><path d="M20.7134 8.12811L20.4668 8.69379C20.2864 9.10792 19.7136 9.10792 19.5331 8.69379L19.2866 8.12811C18.8471 7.11947 18.0555 6.31641 17.0677 5.87708L16.308 5.53922C15.8973 5.35653 15.8973 4.75881 16.308 4.57612L17.0252 4.25714C18.0384 3.80651 18.8442 2.97373 19.2761 1.93083L19.5293 1.31953C19.7058 0.893489 20.2942 0.893489 20.4706 1.31953L20.7238 1.93083C21.1558 2.97373 21.9616 3.80651 22.9748 4.25714L23.6919 4.57612C24.1027 4.75881 24.1027 5.35653 23.6919 5.53922L22.9323 5.87708C21.9445 6.31641 21.1529 7.11947 20.7134 8.12811ZM19.9999 11C20.7012 11 21.3744 10.8797 22 10.6586V20C22 20.5523 21.5523 21 21 21H2V4C2 3.44772 2.44772 3 3 3H14.3413C14.1202 3.62556 13.9999 4.29873 13.9999 5C13.9999 6.44366 14.5098 7.76824 15.3593 8.80348L11.9999 11.6829L5.6507 6.24074L4.34912 7.75926L11.9999 14.3171L16.8855 10.1294C17.7934 10.6818 18.8595 11 19.9999 11Z"/></svg>