<svg xmlns="http://www.w3.org/2000/svg" width="100" height="100" viewBox="0 0 100 100">
    <path d="M74.31,41.54h-14.8c-3.49,0-6.34-2.85-6.34-6.34v-14.8c0-1.16-.95-2.11-2.11-2.11H29.92c-3.49,0-6.34,2.85-6.34,6.34v50.74c0,3.49,2.85,6.34,6.34,6.34h22.91c-2.86-3.46-4.6-7.87-4.69-12.68h-3.74c-1.16,0-2.11-.95-2.11-2.11v-2.11c0-1.16,.95-2.11,2.11-2.11h4.62c.7-2.31,1.8-4.45,3.22-6.34h-7.84c-1.16,0-2.11-.95-2.11-2.11v-2.11c0-1.16,.95-2.11,2.11-2.11h15.7c2.61-1.2,5.5-1.87,8.56-1.87,2.75,0,5.37,.54,7.77,1.52v-6c0-1.16-.95-2.11-2.11-2.11Zm-40.59,27.59c-1.8,0-3.28-1.48-3.28-3.28s1.48-3.28,3.28-3.28,3.28,1.48,3.28,3.28-1.48,3.28-3.28,3.28Zm41.22-33.93h-11.2c-2.33,0-4.23-1.9-4.23-4.23v-11.2c0-.85,.63-1.48,1.48-1.48,.42,0,.74,.11,1.06,.42l13.95,13.95c.32,.32,.42,.63,.42,1.06,0,.85-.63,1.48-1.48,1.48Zm-41.22,21.25c-1.8,0-3.28-1.48-3.28-3.28s1.48-3.28,3.28-3.28,3.28,1.48,3.28,3.28c0,1.9-1.48,3.28-3.28,3.28Zm.53-14.38l4.65-2.43c.11-.11,.32-.11,.42,0l4.65,2.43c.32,.21,.74-.11,.63-.42l-.85-5.18c0-.21,0-.32,.11-.42l3.81-3.7c.32-.21,.11-.63-.21-.74l-5.18-.74c-.11,0-.21-.11-.32-.21l-2.33-4.76c-.21-.32-.63-.32-.85,0l-2.33,4.76c0,.11-.21,.21-.32,.21l-5.18,.74c-.32,.11-.53,.53-.42,.74l3.81,3.7c.11,.11,.11,.32,.11,.42l-.85,5.18c-.11,.32,.32,.63,.63,.42Zm49.32,26.58c0,8.24-6.68,14.92-14.92,14.92s-14.92-6.68-14.92-14.92,6.68-14.92,14.92-14.92,14.92,6.68,14.92,14.92Zm-6.19-5.09c.75,.7,.79,1.88,.09,2.64l-5.6,5.97c-.36,.38-.85,.59-1.38,.59-.52,0-1.02-.23-1.37-.61l-2.41-2.66-4.21,4.21c-.73,.73-1.91,.73-2.64,0s-.73-1.91,0-2.64l5.6-5.6c.36-.36,.85-.56,1.36-.55,.51,.01,.99,.23,1.34,.61l2.37,2.61,4.21-4.49c.7-.75,1.89-.79,2.64-.09Z" fill="#fff" fill-rule="evenodd" />
</svg>