<svg xmlns="http://www.w3.org/2000/svg" x="0px" y="0px"
	 width="100px" height="100px" viewBox="0 0 100 100" enable-background="new 0 0 100 100" xml:space="preserve">
<g>
	<path fill="#FFFFFF" d="M74.4,30.8H25.6c-3.1,0-5.6,2.5-5.6,5.6v27.2c0,3.1,2.5,5.6,5.6,5.6h48.8c3.1,0,5.6-2.5,5.6-5.6V36.4
		C80,33.3,77.5,30.8,74.4,30.8z M32.2,63.6c0-3.7-2.9-6.6-6.6-6.6V43c3.7,0,6.6-2.9,6.6-6.6h35.6c0,3.7,2.9,6.6,6.6,6.6V57
		c-3.7,0-6.6,2.9-6.6,6.6H32.2z"/>
	<circle fill="#FFFFFF" cx="50" cy="49.5" r="9.4"/>
</g>
</svg>
