<svg xmlns="http://www.w3.org/2000/svg" width="100" height="100" viewBox="0 0 100 100"><path d="M73.59,20H26.41c-3.52,0-6.41,2.8-6.41,6.2v47.6c0,3.4,2.9,6.2,6.41,6.2h47.17c3.52,0,6.41-2.8,6.41-6.2V26.2c0-3.4-2.9-6.2-6.41-6.2h0Zm.21,10.9c0,.8-.83,1.4-1.66,1.4H27.76c-.83,0-1.45-.8-1.45-1.6v-2c0-.8,.83-1.4,1.66-1.4h44.38c.83,0,1.45,.8,1.45,1.6v2Zm-10.05,27.24l-1.58-1.83c-.46-.53-.74-1.2-.79-1.89l-.18-2.36c-.05-.72-.36-1.39-.88-1.9s-1.21-.83-1.95-.89l-2.11-.17c-.94-.08-1.83-.44-2.54-1.04l-1.6-1.32c-.56-.47-1.28-.73-2.02-.74-.74,0-1.46,.24-2.03,.71l-1.74,1.42c-.65,.53-1.45,.84-2.29,.9l-2.26,.16c-.74,.05-1.44,.35-1.97,.85-.53,.5-.85,1.17-.91,1.89l-.17,1.98c-.08,.91-.46,1.78-1.09,2.47l-1.36,1.54c-.49,.54-.76,1.23-.77,1.95,0,.72,.25,1.41,.73,1.96l1.5,1.73c.5,.6,.79,1.33,.84,2.1l.17,2.25c.05,.72,.36,1.39,.88,1.9s1.21,.83,1.95,.89l2.11,.18c.94,.08,1.82,.44,2.53,1.04l1.6,1.34c.56,.47,1.28,.73,2.02,.74,.74,0,1.46-.24,2.03-.7l1.84-1.49c.58-.47,1.3-.75,2.05-.8l2.4-.17c.74-.05,1.44-.35,1.97-.85s.85-1.17,.92-1.89l.18-1.89c.09-1,.51-1.95,1.19-2.71l1.29-1.42c.49-.54,.77-1.24,.78-1.96,0-.72-.26-1.42-.74-1.97h0Zm-21.77-1.54c0-.67,.2-1.33,.58-1.88,.38-.56,.93-.99,1.57-1.25s1.34-.33,2.02-.2,1.3,.45,1.8,.92c.49,.47,.83,1.07,.97,1.73s.07,1.34-.19,1.96-.71,1.15-1.28,1.52-1.25,.58-1.94,.58c-.46,0-.91-.08-1.34-.25s-.81-.41-1.14-.73c-.33-.31-.59-.68-.76-1.09-.18-.41-.27-.85-.27-1.29h0l-.02-.02Zm5.07,9.98s-.05,.07-.09,.09-.08,.04-.12,.04h-1.02s-.09-.01-.14-.04c-.04-.02-.08-.06-.1-.1-.02-.04-.04-.08-.04-.13s0-.09,.04-.13l7.33-12.99,.09-.09s.08-.04,.12-.04h1.09c.06,.03,.11,.08,.14,.15,.02,.06,.02,.14,0,.2l-7.3,13.03h0Zm10.95-3.23c0,.67-.2,1.33-.59,1.88-.38,.56-.93,.99-1.57,1.25s-1.35,.33-2.03,.2c-.68-.13-1.31-.45-1.8-.93-.49-.47-.83-1.08-.96-1.74s-.07-1.34,.2-1.96c.26-.62,.71-1.15,1.29-1.52s1.25-.57,1.95-.57c.93,0,1.82,.37,2.47,1,.65,.64,1.02,1.5,1.02,2.4h.02Zm-13.57-8.31c.31-.2,.67-.31,1.05-.31,.25,0,.49,.05,.72,.14s.44,.23,.61,.4,.31,.37,.41,.59c.09,.22,.14,.46,.14,.7,0,.36-.11,.71-.32,1.01s-.5,.53-.85,.67c-.34,.14-.72,.17-1.09,.1-.36-.07-.7-.24-.96-.5-.26-.25-.44-.58-.51-.93s-.03-.72,.11-1.05c.14-.33,.38-.62,.69-.82Zm8.99,6.78c.31-.2,.67-.31,1.04-.32h.02c.25,0,.49,.05,.72,.14s.44,.23,.61,.4,.31,.37,.41,.59c.09,.22,.14,.46,.14,.7,0,.36-.11,.71-.32,1.01s-.5,.53-.84,.67-.72,.17-1.08,.1-.7-.24-.96-.49-.44-.58-.52-.93c-.07-.35-.04-.72,.1-1.05,.14-.33,.38-.62,.68-.82Zm20.28-22.26c0,.8-.83,1.4-1.66,1.4H27.66c-.83,0-1.45-.8-1.45-1.6v-2c0-.8,.83-1.4,1.66-1.4h44.38c.83,0,1.45,.8,1.45,1.6v2Z" fill="#fff" fill-rule="evenodd"/></svg>