<svg xmlns="http://www.w3.org/2000/svg" x="0px" y="0px" width="100" height="100"
	 viewBox="0 0 100 100" style="enable-background:new 0 0 100 100;" xml:space="preserve">

<g>
	<path fill="#FFFFFF" d="M47.5,26c-5.1,0.3-9.2,4.4-9.5,9.5C38.2,30.3,42.3,26.2,47.5,26z"/>
</g>
<g>
	<path fill="#FFFFFF" d="M58,35.5c-0.3-5.1-4.4-9.2-9.5-9.5C53.7,26.2,57.8,30.3,58,35.5z"/>
</g>
<g>
	<g>
		<path fill="#FFFFFF" d="M63.6,54.8l-10.2-3.5c-0.8-0.3-1.4-1-1.4-1.9V35.8c0-2.1-1.7-3.8-3.8-3.8h-0.4c-2.1,0-3.8,1.7-3.8,3.8v26.9
			c0,2.3-2.9,3.2-4.1,1.2l-2.6-5.5c-1.4-2.4-4.5-3-6.7-1.4L29,58.2l8.6,20.4c0.4,0.9,1.2,1.4,2.2,1.4h22.6c1.1,0,2-0.8,2.3-1.8
			l4-14.3C69.5,60,67.3,56.1,63.6,54.8z"/>
	</g>
	<g>
		<path fill="#FFFFFF" d="M38,46.2V36c0-0.2,0-0.3,0-0.5c0.3-5.1,4.4-9.2,9.5-9.5c0.2,0,0.3,0,0.5,0s0.3,0,0.5,0
			c5.1,0.3,9.2,4.4,9.5,9.5c0,0.2,0,0.3,0,0.5v10.2c0,0.9,1.1,1.3,1.7,0.7C62.4,44,64,40.2,64,36c0-9.3-8-16.8-17.5-15.9
			c-7.2,0.7-13.2,6.3-14.3,13.4c-0.8,5,0.8,9.9,4.1,13.4C36.9,47.5,38,47.1,38,46.2z"/>
	</g>
</g>
</svg>
