<svg xmlns="http://www.w3.org/2000/svg" width="100" height="100" viewBox="0 0 100 100"><path d="M35.5,23.99c0-1.69,1.18-2.99,2.72-2.99h38.07c1.54,0,2.72,1.3,2.72,2.99v30.44c0,1.69-1.18,2.99-2.72,2.99h-4.53V31.56c0-1.69-1.18-2.99-2.72-2.99H35.5s0-4.58,0-4.58Z" fill="#fff" fill-rule="evenodd"/><path d="M23.72,36.13c-1.54,0-2.72,1.3-2.72,2.99v30.44c0,1.69,1.18,2.99,2.72,2.99h13.15l3.26,5.17c.91,1.39,2.53,1.69,3.81,.7,.18-.2,.37-.4,.54-.6l3.81-5.28h13.5c1.54,0,2.72-1.3,2.72-2.99v-30.44c0-1.69-1.18-2.99-2.72-2.99H23.72Z" fill="#fff"/></svg>