<svg xmlns="http://www.w3.org/2000/svg" height="100" width="100" viewBox="0 0 100 100" fill="#fff"><path d="M69.5 59c-3.6-1.5-4.2-2.9-4.2-4.4s1-2.9 2.2-4c2.1-1.9 3.3-4.6 3.3-7.8 0-5.8-3.7-10.9-10.2-10.9s-10.2 5-10.2 10.9c0 3.2 1.2 5.8 3.3 7.8 1.2 1.1 2.2 2.5 2.2 4s-.6 2.9-4.2 4.4c-5.3 2.2-10.4 5-10.5 9.8 0 3.1 2.4 6.2 5.4 6.2h27.8c3.1 0 5.4-3.1 5.4-6.2.1-4.7-5-7.5-10.3-9.8zm-22.9-7.6c-.4-.5-2.4-3-2.2-9.7.1-6.6 3-8.3 3-8.3v-6.5c0-1.1-1.1-1.9-1.9-1.9H21.9c-.9 0-1.9.9-1.9 2v43.6h13.5c.3-11.1 13-15.6 13-15.6 1.9-1 .5-3.1.1-3.6zM30.7 65.1a2 2 0 0 1-2 2h-2a2 2 0 0 1-2-2v-2c0-1.1.9-2 2-2h2a2 2 0 0 1 2 2zm0-9.9a2 2 0 0 1-2 2h-2a2 2 0 0 1-2-2v-2c0-1.1.9-2 2-2h2a2 2 0 0 1 2 2zm0-9.9a2 2 0 0 1-2 2h-2a2 2 0 0 1-2-2v-2c0-1.1.9-2 2-2h2a2 2 0 0 1 2 2zm0-9.9a2 2 0 0 1-2 2h-2a2 2 0 0 1-2-2v-2c0-1.1.9-2 2-2h2a2 2 0 0 1 2 2zm11.2 19.8a2 2 0 0 1-2 2h-2a2 2 0 0 1-2-2v-2c0-1.1.9-2 2-2h2a2 2 0 0 1 2 2zm0-9.9a2 2 0 0 1-2 2h-2a2 2 0 0 1-2-2v-2c0-1.1.9-2 2-2h2a2 2 0 0 1 2 2zm0-9.9a2 2 0 0 1-2 2h-2a2 2 0 0 1-2-2v-2c0-1.1.9-2 2-2h2a2 2 0 0 1 2 2z"/></svg>