<svg xmlns="http://www.w3.org/2000/svg" version="1" width="50" height="50" viewBox="0 0 50 50"><path d="M25.004 49.057c-5.756 0-8.862-12.2-8.862-23.676s3.105-23.674 8.862-23.674c5.755 0 8.86 12.198 8.86 23.675s-3.104 23.677-8.86 23.677zm0-45.35c-3.246 0-6.862 8.9-6.862 21.674 0 12.775 3.616 21.677 6.862 21.677 3.244 0 6.86-8.902 6.86-21.676 0-12.773-3.616-21.674-6.86-21.674z"/><path d="M39.83 39.607c-4.95 0-12.15-2.45-19.257-6.553-9.94-5.738-18.95-14.527-16.073-19.51.63-1.09 2.125-2.39 5.676-2.39 4.952 0 12.15 2.45 19.257 6.553 5.34 3.083 9.953 6.713 12.99 10.223 3.314 3.828 4.38 7.04 3.082 9.29-.628 1.09-2.123 2.387-5.675 2.387zM10.176 13.154c-2.026 0-3.427.493-3.944 1.39-1.623 2.81 4.278 10.392 15.34 16.778 6.715 3.877 13.71 6.285 18.258 6.285 2.026 0 3.428-.493 3.943-1.39.798-1.38-.27-3.99-2.86-6.98-2.897-3.344-7.33-6.824-12.48-9.798-6.713-3.877-13.71-6.286-18.257-6.286z"/><path d="M10.177 39.607c-3.552 0-5.047-1.3-5.677-2.39-1.298-2.247-.232-5.46 3.083-9.288 3.038-3.51 7.65-7.14 12.99-10.224 7.106-4.103 14.306-6.553 19.257-6.553 3.552 0 5.047 1.3 5.676 2.39 1.3 2.247.232 5.46-3.082 9.288-3.037 3.51-7.65 7.14-12.99 10.224-7.107 4.104-14.306 6.553-19.257 6.553zM39.83 13.154c-4.547 0-11.543 2.408-18.257 6.285-5.15 2.973-9.583 6.453-12.48 9.798-2.588 2.99-3.658 5.6-2.86 6.98.516.896 1.917 1.39 3.943 1.39 4.547 0 11.543-2.41 18.257-6.286 5.15-2.975 9.583-6.454 12.48-9.8 2.59-2.99 3.658-5.6 2.86-6.98-.515-.895-1.916-1.388-3.943-1.388z"/><circle cx="24.938" cy="25.271" r="4.996"/></svg>