<?xml version="1.0" encoding="utf-8"?>
<svg xmlns="http://www.w3.org/2000/svg" width="24" height="24" viewBox="0 0 24 24">
    <g id="translation">
        <path id="english" d="M7.53 9L4 19h2.063l.72-2.406h3.624l.72 2.406h2.062L9.65 9H7.53zm1.064 1.53L9.938 15H7.25z"/>
        <path id="chinese" d="M14.594 4.22c-.43.29-.88.616-1.25.874l.187.312c.14.194.28.393.41.594h-3.843v1.47h1.594c.43 1.41 1.11 2.624 2.03 3.624-.662.437-1.413.82-2.25 1.187l.563 1.567a15.882 15.882 0 0 0 2.908-1.625 13.82 13.82 0 0 0 3.97 2.125l.28.094c.293-.514.578-1.075.813-1.532l-.375-.125c-1.38-.49-2.49-1.05-3.375-1.654.284-.28.59-.635.906-1.157.46-.717.775-1.572 1-2.5h1.656V6H15.75c-.283-.552-.596-1.083-.97-1.53l-.186-.25zm-1.25 3.25h3.187c-.315 1.075-.825 1.937-1.53 2.624-.71-.705-1.26-1.568-1.653-2.625zM9.97 12.874L9.624 13c.196.3.406.594.625.875l-.28-1z"/>
    </g>
</svg>
