<svg id="a" xmlns="http://www.w3.org/2000/svg" width="100" height="100" viewBox="0 0 100 100"><path d="M61,32h-22c-1.12,0-2-.87-2-2v-4c0-3.25,2.75-6,6-6h14c3.25,0,6,2.75,6,6v4c0,1.12-.88,2-2,2ZM70,25h2c3.25,0,6,2.75,6,6v43c0,3.25-2.75,6-6,6H28c-3.25,0-6-2.75-6-6V31c0-3.25,2.75-6,6-6h2c.62,0,1,.38,1,1v4c0,4.38,3.63,8,8,8h22c4.38,0,8-3.62,8-8v-4c0-.62.37-1,1-1ZM61.11,47.09c.91,1.44,2.29,2.56,3.89,3.04.48.16.91.54,1.01.96.26.8-.03,1.96-.25,2.89-.05.19-.09.36-.12.53-.21,1.18-.54,2.29-.85,3.41-.85,2.78-2.02,5.44-3.58,7.89-1.81,2.82-4.11,5.34-6.88,7.31-.11.09-.24.19-.39.29-1.19.91-3.24,2.51-4.53,1.84-1.59-.8-3.1-1.76-4.47-2.87-4.91-3.89-8.05-9.39-9.7-15.3-.06-.24-.15-.54-.25-.89-.55-1.86-1.5-5.04-.01-5.89.39-.23.76-.44,1.12-.62,1.23-.65,2.28-1.21,3.14-2.57.21-.35.36-.82.51-1.32.35-1.12.72-2.35,1.94-2.35h16.96c1.17,0,1.57,1.22,1.93,2.35.16.5.31.99.52,1.32ZM58.7,63.92c2-3.05,3.35-6.48,3.96-10.06l.21-1.12v-.05l-.69-.37c-1.98-1.12-3.63-3.04-4.54-5.06l-.26-.69h-14.4l-.43.96c-.91,1.86-2.45,3.62-4.11,4.64l-.96.59.21,1.12c.59,3.6,1.91,7.04,3.92,10.1,2,3.05,4.63,5.65,7.7,7.61l.85.54.85-.54c3.05-1.99,5.66-4.6,7.66-7.64v-.03ZM44.8,50.35c.59-.54,3.58-.54,4.8-.54.59,0,.59.47.59,1.06v16.21c0,1.55-2.45-.91-2.73-1.17-2.51-2.62-4.4-5.77-5.55-9.23-.05-.17-.1-.35-.16-.51-.33-1.04-.6-1.86.37-2.69.55-.47.98-1.05,1.4-1.64.39-.54.79-1.08,1.28-1.51h0Z" fill="#fff" fill-rule="evenodd" stroke-width="0"/></svg>