<?xml version="1.0" standalone="no"?>
<!DOCTYPE svg PUBLIC "-//W3C//DTD SVG 1.1//EN" "http://www.w3.org/Graphics/SVG/1.1/DTD/svg11.dtd" >
<svg xmlns="http://www.w3.org/2000/svg">
<metadata>
This is a custom SVG webfont generated by Font Squirrel.
Designer    : Drew Wilson
Foundry     : Drew Wilson
Foundry URL : httppictosdrewwilsoncom
</metadata>
<defs>
<font id="webfontIyfZbseF" horiz-adv-x="920" >
<font-face units-per-em="1000" ascent="750" descent="-250" />
<missing-glyph horiz-adv-x="500" />
<glyph unicode=" "  horiz-adv-x="500" />
<glyph unicode="&#x09;" horiz-adv-x="500" />
<glyph unicode="&#xa0;" horiz-adv-x="500" />
<glyph unicode="!" horiz-adv-x="936" d="M865 103q37 -62 11 -106.5t-98 -44.5h-621q-72 0 -97.5 44.5t11.5 106.5l310 534q36 62 87.5 62t87.5 -62zM471 46q23 0 38.5 16t15.5 38t-15.5 37.5t-38.5 15.5q-22 0 -37.5 -15.5t-15.5 -37.5t15.5 -38t37.5 -16zM509 187l26 308h-127l26 -308h75z" />
<glyph unicode="&#x22;" horiz-adv-x="865" d="M52 289q1 65 7.5 115t26.5 101.5t53.5 86.5t90.5 58.5t135 28.5v-157q-66 0 -95 -46.5t-29 -147.5l-4 -1h84q18 0 31 -13t13 -32v-258q0 -18 -13 -31t-31 -13h-225q-18 0 -31 13t-13 31v258v7zM493 289q0 65 7 115t27 101.5t53.5 86.5t90.5 58.5t135 28.5v-157 q-67 0 -96 -46.5t-29 -147.5l-4 -1h84q18 0 31 -13t13 -32v-258q0 -18 -13 -31t-31 -13h-224q-19 0 -32 13t-13 31v258q0 5 1 7z" />
<glyph unicode="#" horiz-adv-x="748" d="M705 482q9 -14 -8 -14h-48v-567q0 -7 -5 -12t-12 -5h-513q-7 0 -12 5t-5 12v567h-52q-7 0 -9.5 4t1.5 10l31 46q9 14 27 14h75v66q0 20 12 30l48 49q12 12 30 12h216q18 0 30 -12l52 -52q13 -13 13 -30v-63h71q18 0 27 -14zM248 546v-4h254v4v28q0 20 -12 30l-9 10 q-12 12 -30 12h-155q-18 0 -30 -12l-6 -6q-12 -12 -12 -30v-32zM576 450q0 16 -16 18h-279h-89q-7 0 -12 -5.5t-5 -12.5v-476q0 -7 5 -12t12 -5h367q7 0 12 5t5 12v476zM263 418q7 0 12.5 -5t5.5 -12v-379q0 -7 -5.5 -12t-12.5 -5h-21q-7 0 -12.5 5t-5.5 12v379q0 7 5.5 12 t12.5 5h21zM364 5q-7 0 -12.5 5t-5.5 12v379q0 7 5.5 12t12.5 5h21q7 0 12 -5t5 -12v-379q0 -7 -5 -12t-12 -5h-21zM485 5q-7 0 -12 5t-5 12v379q0 7 5 12t12 5h22q7 0 12 -5t5 -12v-379q0 -7 -5 -12t-12 -5h-22z" />
<glyph unicode="$" horiz-adv-x="893" d="M503 283h-108l-16 68h124v-68zM684 351l-18 -68h-104l1 68h121zM400 118q28 0 48.5 -20t20.5 -49t-20.5 -49t-48.5 -20t-48.5 20t-20.5 49t20.5 49t48.5 20zM659 118q29 0 49 -20t20 -49t-20 -49t-49 -20t-49 20t-20 49t20 49t49 20zM833 516q25 -7 25 -33q0 -3 -2 -9 l-88 -293q-7 -25 -32 -25h-417q-12 0 -21.5 7.5t-11.5 18.5l-81 327h-149q-14 0 -24 10t-10 24t10 24t24 10h176q26 0 33 -26l18 -73h503l5 15q6 24 32 24q7 0 10 -1zM712 231l54 179h-466l45 -186h365z" />
<glyph unicode="%" horiz-adv-x="903" d="M867 277q0 -79 -37.5 -149t-102.5 -117l11 -96v-4q0 -17 -11 -30q-13 -15 -34 -15h-148q-21 0 -34 15q-11 13 -11 30v5l2 18q-6 -1 -18 -1h-10l2 -17v-5q0 -17 -11 -30q-12 -15 -34 -15h-148q-21 0 -34 15q-11 13 -11 30v5l11 90q-86 60 -124 153l-44 -4h-4q-18 0 -30 12 q-15 12 -15 33v152q0 21 15 33q12 12 30 12h4l43 -4q34 85 107 141l-2 110v1v1q0 28 25 43q11 7 26 7q14 0 25 -7l128 -72q25 3 51 3q160 0 270 -99q113 -100 113 -244zM681 47q61 41 95.5 101t34.5 129q0 118 -94 202q-96 85 -233 85q-29 0 -53 -4l-9 -1l-136 77l2 -130 l-12 -8q-79 -57 -106 -144l-7 -22l-75 7v-127l75 8l7 -22q33 -96 124 -155l15 -9l-13 -112h123l-9 74l35 -4q13 -2 39 -2q24 0 47 3l36 4l-9 -75h123l-15 116zM501 521l7 -1q7 0 18 -2t26 -5t32 -9t35 -14t37 -20.5t36 -28.5q8 -7 8 -19t-8 -20q-8 -9 -20 -9q-11 0 -19 8 q-24 23 -59 38.5t-55.5 19.5t-35.5 5h-4q-11 1 -19 9.5t-8 19.5q1 12 9.5 20t19.5 8zM231 384q19 20 41 26t34 -5q11 -11 6.5 -33t-23.5 -42t-40.5 -26t-33.5 5t-7 33t23 42z" />
<glyph unicode="&#x26;" horiz-adv-x="732" d="M465 405h250v-198h-250v-250h-198v250h-250v198h250v250h198v-250z" />
<glyph unicode="'" horiz-adv-x="908" d="M265 139q78 78 188.5 78t188.5 -78q1 0 1 -1l-55 -55q-1 0 -1 1q-55 55 -133 55t-133 -55zM140 264q85 85 199.5 115.5t228.5 0t199 -115.5l1 -1l-56 -56q0 1 -1 1q-106 106 -257.5 106.5t-257.5 -105.5zM893 392q0 -2 2 -2l-56 -56l-2 2q-104 104 -244 141t-279.5 0 t-243.5 -141q-1 0 -1 -1l-56 56l1 1q120 119 280 161.5t319.5 0t279.5 -161.5zM392 13q26 25 63 25t63 -25l-63 -63z" />
<glyph unicode="(" horiz-adv-x="671" d="M550 359h77v-437h-582v437h75v128q0 87 62 149t149 62h4h4q88 0 149.5 -62t61.5 -149v-128zM402 2l-32 141q32 20 32 57q0 28 -19 47t-47 19q-27 0 -46.5 -19t-19.5 -47q0 -38 33 -56l-33 -142h132zM445 359v128q0 43 -31 74t-75 31h-3h-5q-43 0 -74 -31t-31 -74v-128 h219z" />
<glyph unicode=")" horiz-adv-x="889" d="M645 698q88 0 150 -61.5t62 -149.5v-128h-106v29l36 34v13h-36v52q0 44 -31 74.5t-75 30.5h-2h-5q-44 0 -75 -30.5t-31 -74.5v-128h77v-438h-584v438h401v128q0 88 62 149.5t150 61.5h3h4zM382 0l-33 142q33 20 33 57q0 28 -19.5 47.5t-46.5 19.5q-28 0 -47.5 -19.5 t-19.5 -47.5q0 -37 33 -57l-33 -142h133z" />
<glyph unicode="*" horiz-adv-x="777" d="M737 490l-195 -195l195 -196l-154 -153l-195 195l-195 -195l-154 153l195 196l-195 195l154 154l195 -195l195 195z" />
<glyph unicode="+" d="M460 702q174 0 297 -123t123 -297t-123 -297t-297 -123t-297 123t-123 297t123 297t297 123zM709 262v41q0 15 -10.5 25.5t-25.5 10.5h-121q-15 0 -25.5 11t-10.5 26v121q0 15 -11 25.5t-26 10.5h-41q-15 0 -25.5 -10.5t-10.5 -25.5v-121q0 -15 -11 -26t-26 -11h-120 q-16 0 -26.5 -10.5t-10.5 -25.5v-41q0 -15 10.5 -26t26.5 -11h120q15 0 26 -10.5t11 -25.5v-121q0 -15 10.5 -25.5t25.5 -10.5h41q15 0 26 10.5t11 25.5v121q0 15 10.5 25.5t25.5 10.5h121q15 0 25.5 11t10.5 26z" />
<glyph unicode="," horiz-adv-x="915" d="M458 701q173 0 295 -122.5t122 -295.5q0 -104 -46 -191q-59 -115 -172 -176q-94 -51 -199 -51q-101 0 -194 48q-114 60 -175 173q-49 93 -49 197q0 173 122.5 295.5t295.5 122.5zM760 203q11 41 11 80q0 130 -92 222t-221 92q-130 0 -222 -92t-92 -222q0 -39 12 -85 q3 -9 9 -25q21 6 45 6q65 0 111.5 -46t46.5 -111q0 -17 -5 -37q4 -2 12 -4q42 -11 83 -11q45 0 87 12q2 0 5.5 2t5.5 2q-5 22 -5 40q0 64 46.5 110.5t110.5 46.5q23 0 44 -6q5 15 8 26zM498 333q25 -19 25 -50q0 -14 -5 -24q-16 -39 -58 -39q-11 0 -24 5q-39 16 -39 58 q0 1 0.5 4t0.5 5l-56 245l21 9zM478 565v-95h-39v95h39zM632 490l27 -27l-68 -68l-27 28zM629 300v38h96v-38h-96zM192 300v38h95v-38h-95zM244 463l28 27l67 -67l-27 -28z" />
<glyph unicode="-" horiz-adv-x="921" d="M461 698q174 0 297 -123.5t123 -297.5t-123 -297.5t-297 -123.5q-175 0 -298 123.5t-123 297.5t123 297.5t298 123.5zM694 258v39q0 19 -14 33t-33 14h-376q-19 0 -33 -14t-14 -33v-39q0 -20 14 -33.5t33 -13.5h376q19 0 33 13.5t14 33.5z" />
<glyph unicode="." horiz-adv-x="945" d="M147 392q37 0 64 -27t27 -64q0 -38 -26.5 -65t-64.5 -27t-65 27t-27 65t27 64.5t65 26.5zM472 392q38 0 65 -26.5t27 -64.5t-27 -65t-65 -27t-64.5 27t-26.5 65q0 37 26.5 64t64.5 27zM798 392q38 0 65 -26.5t27 -64.5t-27 -65t-65 -27t-65 27t-27 65q0 37 27 64t65 27z " />
<glyph unicode="/" horiz-adv-x="912" d="M693 537h181v-127v-301h-181v-53l-136 -136h-336v189h-181v301v127h181v163h472v-163zM816 480h-105v-53h105v53zM275 646v-109h364v109h-364zM502 -26v136h137v131v55h54v-129h67v197h-604v-197h65v111v18h54v-55v-267h227z" />
<glyph unicode="0" horiz-adv-x="889" d="M643 161l39 -40l28 -27q-47 -60 -116.5 -94.5t-148.5 -34.5q-140 0 -238.5 98t-99.5 238h-11h-2h-67l126 126l127 -126h-51h-28q0 -100 71.5 -171t172.5 -71q60 0 112.5 27.5t85.5 74.5zM810 301h52l-127 -126l-126 126h50h30v2q0 101 -71.5 172.5t-172.5 71.5 q-61 0 -113.5 -28.5t-86.5 -76.5l-39 39l-28 28q47 61 116.5 96t150.5 35q139 0 238 -99t99 -238v-2h28z" />
<glyph unicode="1" horiz-adv-x="743" d="M688 235h29v-30q0 -143 -100.5 -243.5t-243.5 -100.5t-244 101t-101 243q0 143 101 244t244 101q16 0 25 -1v79v71l49 -50l157 -157l21 -21l-21 -20l-157 -157l-49 -50v70v88q-18 2 -25 2q-83 0 -141 -58t-58 -141q0 -82 58.5 -140t140.5 -58t140 58t58 140v30h30h87z " />
<glyph unicode="2" horiz-adv-x="919" d="M459 701q174 0 297 -123t123 -297t-123 -297t-297 -123q-173 0 -296 123t-123 297t123 297t296 123zM728 392q6 6 6 15t-6 16l-55 54q-6 6 -15 6t-16 -6l-243 -244q-15 -16 -31 0l-88 88q-16 16 -31 0l-55 -54q-6 -7 -6 -16t6 -15l139 -140q15 -15 37 -15h26q20 0 37 15z " />
<glyph unicode="3" horiz-adv-x="868" d="M22 239q-10 10 -10 24t10 24l83 83q10 10 23.5 10t23.5 -10l136 -135q10 -10 23.5 -10t23.5 10l371 372q10 10 23.5 10t23.5 -10l83 -82q10 -10 10 -23.5t-10 -23.5l-450 -451q-24 -24 -57 -24h-39q-32 0 -56 24z" />
<glyph unicode="4" horiz-adv-x="762" d="M59 700l702 -351l-702 -350v701z" />
<glyph unicode="5" horiz-adv-x="816" d="M59 1v698h262v-698h-262zM495 699h262v-698h-262v698z" />
<glyph unicode="6" horiz-adv-x="817" d="M758 2h-699v698h699v-698z" />
<glyph unicode="7" horiz-adv-x="922" d="M423 417v182l485 -243l-485 -242v181l-364 -181v485z" />
<glyph unicode="8" horiz-adv-x="922" d="M500 295v-182l-486 243l486 242v-182l363 182v-485z" />
<glyph unicode="9" d="M460 700q174 0 297 -123t123 -297t-123 -297t-297 -123t-297 123t-123 297t123 297t297 123zM298 64l431 216l-431 216v-432z" />
<glyph unicode=":" horiz-adv-x="801" d="M671 100l105 -102q0 -16 -12 -28.5t-29 -12.5h-242q1 -4 1 -12q0 -39 -27.5 -66.5t-66.5 -27.5t-66.5 27.5t-27.5 66.5q0 2 0.5 6t0.5 6h-241q-16 0 -28.5 12.5t-12.5 28.5l105 102q-1 8 -1 25v208q0 88 50.5 158t130.5 98q-4 11 -4 26q0 39 27.5 66.5t66.5 27.5 t66.5 -27.5t27.5 -66.5q0 -14 -3 -26q80 -28 130.5 -98.5t50.5 -157.5v-208q0 -17 -1 -25zM348 615q0 -5 2 -15q28 5 50 5q23 0 50 -5q3 8 3 15q0 22 -15.5 37t-37.5 15t-37 -15t-15 -37z" />
<glyph unicode=";" horiz-adv-x="887" d="M299 418l-42 -44q-4 -5 -11 -12.5l-12.5 -13.5l-10.5 -11q-18 16 -27 23q-49 40 -81 40h-101v112h101q59 -1 118 -41q33 -21 66 -53zM399 156l44 47l32 34q16 -14 26 -22q52 -42 84 -40h86v94l175 -148l-175 -146v88h-86q-56 0 -120 40q-27 17 -66 53zM582 400 q-23 0 -56 -22q-35 -23 -78 -68q-19 -19 -54.5 -57.5l-66.5 -69.5t-60 -55q-80 -64 -154 -65h-99v112h99q26 0 59 22q29 18 79 68q5 5 73 77.5t107 104.5q81 64 152 65h88v92l175 -147l-175 -147v90h-88h-1z" />
<glyph unicode="&#x3c;" horiz-adv-x="395" d="M115 410l222 223v-668l-222 222h-112v223h112z" />
<glyph unicode="=" horiz-adv-x="947" d="M896 379v-176l-63 -25v-108h-773v442h773v-109zM760 144v294h-626v-294h626zM373 390l222 -198h-413v198h191z" />
<glyph unicode="&#x3e;" horiz-adv-x="889" d="M126 408l222 223v-668l-222 222h-112v223h112zM434 438q75 -50 75 -140t-75 -139l-34 67q35 28 35 72t-35 72v2zM680 298q0 -92 -46 -168.5t-123 -120.5l-34 66q59 34 94 93.5t35 129.5t-35 129.5t-94 93.5v2l33 65q77 -44 123.5 -121.5t46.5 -168.5zM587 738 q118 -66 188.5 -183t70.5 -257t-70.5 -257t-188.5 -182l-33 66q99 56 158.5 155.5t59.5 217.5t-59.5 217.5t-159.5 155.5z" />
<glyph unicode="?" horiz-adv-x="922" d="M461 702q175 0 298 -123.5t123 -297.5t-123 -297.5t-298 -123.5q-174 0 -297.5 123.5t-123.5 297.5t123.5 297.5t297.5 123.5zM489 29q19 18 19 47t-19 47q-20 17 -49 17q-28 0 -48 -17q-20 -20 -18 -47q-2 -27 18 -47q19 -17 48 -17q32 0 49 17zM602 351q10 24 10 62 q0 58 -41 93q-38 34 -108 34q-49 0 -85 -12q-33 -11 -63 -31l-9 -6l46 -87l10 8q2 1 19 11q7 4 23 10q10 4 23 6q7 2 21 2q30 0 38 -10q11 -11 11 -31q0 -13 -7 -25q-12 -16 -21 -24q-4 -4 -8.5 -8l-10 -9t-9.5 -8q-17 -16 -30 -34q-12 -20 -20 -46q-5 -22 -5 -41 q0 -4 0.5 -12t0.5 -12l1 -11h11h88v12q0 26 8 42q9 16 21 30q14 14 29 25t32 30q14 17 25 42z" />
<glyph unicode="@" horiz-adv-x="508" d="M258 703q92 0 157.5 -66t65.5 -157q0 -107 -203 -546l-24 -50l-63 135t-101 244.5t-63 216.5q0 92 65.5 157.5t157.5 65.5h4h4zM254 397q42 0 72 30t30 73q0 42 -30 72t-72 30q-43 0 -73 -30t-30 -72q0 -43 30 -73t73 -30z" />
<glyph unicode="A" horiz-adv-x="893" d="M315 299l70 -70q-38 -32 -88.5 -30t-86.5 38l-144 144q-38 37 -38 91t38 91l99 99q38 38 91.5 38t91.5 -38l144 -144q36 -36 37.5 -86.5t-30.5 -88.5l-70 69q10 20 -6 38l-144 144q-9 9 -22.5 9t-22.5 -9l-99 -99q-10 -10 -10 -23t10 -23l144 -144q16 -16 36 -6zM728 -99 q-38 -37 -91 -37t-91 37l-145 145q-35 35 -37 85.5t30 88.5l69 -70q-9 -20 7 -36l144 -144q9 -10 22.5 -10t22.5 10l99 99q10 9 10 22.5t-10 22.5l-144 145q-16 16 -37 5l-69 70q38 32 88.5 30.5t86.5 -37.5l144 -144q37 -38 37 -91.5t-37 -91.5zM263 465q14 14 34 14 t34 -14l295 -295q14 -14 14 -34t-14 -34t-34 -14t-34 14l-295 294q-14 14 -14 34.5t14 34.5z" />
<glyph unicode="B" horiz-adv-x="881" d="M734 311q-14 -27 -42 -50q-12 -30 -31.5 -58t-54.5 -60t-92.5 -51.5t-129.5 -19.5q-77 0 -143.5 21t-105.5 51t-67 60t-39 51l-11 21q5 -3 14.5 -6.5t38.5 -11.5t58 -12t70 -0.5t78 17.5q-64 27 -96 91q-21 43 -8 54q7 7 25 -10q53 -50 212 -41q7 8 21 26v5q0 67 47 114 t114 47q64 0 110 -43.5t51 -106.5l102 -49zM626 469q-19 0 -32 -13.5t-13 -32.5t13 -32t32 -13t32.5 13t13.5 32t-13 32.5t-33 13.5z" />
<glyph unicode="C" horiz-adv-x="913" d="M771 317q46 -18 74 -59.5t28 -92.5q0 -68 -48.5 -116.5t-116.5 -48.5q-2 0 -5 0.5t-4 0.5h-494h-1h-2q-69 1 -117.5 50t-48.5 119q0 45 22.5 83.5t60.5 60.5q-6 16 -6 35q0 47 34 81t81 34q38 0 71 -25q31 64 91 103t133 39q103 0 176 -72.5t73 -176.5q0 -10 -1 -15z" />
<glyph unicode="D" horiz-adv-x="917" d="M459 698q173 0 295.5 -123t122.5 -296t-122.5 -295.5t-295.5 -122.5t-296 122.5t-123 295.5t123 296t296 123zM574 252q-11 12 -11 28t11 28l109 108q11 12 11 28.5t-11 27.5l-31 31q-12 11 -28.5 11t-27.5 -11l-108 -109q-12 -11 -28.5 -11t-27.5 11l-109 109 q-11 11 -27.5 11t-27.5 -11l-31 -31q-11 -11 -11 -27.5t11 -28.5l109 -108q11 -12 11 -28t-11 -28l-109 -108q-11 -12 -11 -28.5t11 -27.5l31 -31q11 -11 27.5 -11t27.5 11l109 109q11 11 27.5 11t28.5 -11l108 -109q11 -11 27.5 -11t28.5 11l31 31q11 11 11 27.5t-11 28.5z " />
<glyph unicode="E" horiz-adv-x="895" d="M448 531q63 0 129.5 -23.5t115.5 -57t89.5 -67t61.5 -57.5l21 -23v-8l-22 -24.5t-59.5 -54.5t-92 -69t-114 -54.5t-130.5 -24.5t-129.5 23.5t-115.5 57t-89.5 67t-61.5 56.5l-21 24v9l22 24.5t59.5 54.5t92 68.5t114 54t130.5 24.5zM446 158q58 0 98.5 40.5t40.5 98.5 q0 57 -40.5 97.5t-98.5 40.5q-57 0 -97.5 -40.5t-40.5 -97.5q0 -58 40.5 -98.5t97.5 -40.5zM446 361q26 0 45 -19t19 -45t-19 -44.5t-45 -18.5t-44.5 18.5t-18.5 44.5t18.5 45t44.5 19z" />
<glyph unicode="F" horiz-adv-x="704" d="M224 700h422v-818h-593v646l171 171v1zM578 -50v682h-285v-172h-172v-510h457z" />
<glyph unicode="G" d="M460 698q174 0 297 -123t123 -297t-123 -297t-297 -123t-297 123t-123 297t123 297t297 123zM738 401l-1 -3q-1 -3 -1 -5.5t2 -2.5q0 -2 3 -6t3 -8v-11q1 -2 5 -3q1 -4 6 -5t6 3q-3 0 -2.5 4.5t-0.5 4.5q0 2 -1 3q-2 2 -2 3h7q0 2 -2 5t-2 4q-1 0 -2.5 -1t-2 -1t-0.5 2 t-4 6l-2 7q3 0 6 1q-1 0 4 2q-1 1 -2 4q-2 4 -7 2q-2 0 -5 -2.5t-5 -2.5zM735 81q63 90 63 197q0 19 -1 28q-9 0 -13 2q-4 0 -14.5 4.5t-16.5 2.5q0 1 -1 1q2 3 -5 11q-5 4 -7 0q-2 -3 5 -10q0 -2 2 -6q2 -1 1 -3t-1 -3q4 0 5 7q0 -1 1 -1q-2 -3 1 -6v-5q10 0 14 10 q1 0 1 -2t1 -3q3 -3 2 -5t2 -2q2 -1 2 1v2q4 -2 4 -6t-4 -6q0 -1 -1 -3t-1 -4q0 -6 -4 -8l-4 -2q-4 -3 -8 -5.5t-4 -3.5q-12 0 -15 -7q-7 0 -11 -4q-6 0 -8.5 6t-4.5 6l-2 5q1 0 -1.5 6l-5.5 13t-3 9l-5 10q-2 1 -7 12q-8 4 -10 13q10 0 10 4q-1 0 -2 1q-2 2 1 2l3 9 q0 1 1 5.5t1 6.5q-2 0 -8 -2q0 -1 -1.5 -0.5t-3.5 0.5l-3 1q0 1 -6.5 0t-8.5 2q-2 2 -4 14q-1 3 -8 3q-3 1 -3.5 -1t0.5 -5l1 -4q2 0 -2 -7q-1 -1 -1 -2q-4 1 -6 6t-4 6q-1 4 -3 4q0 10 -1 10l-3 1q-4 2 -5 3q-2 0 -5.5 3.5t-6.5 5.5t-4 0l3 -6q2 0 5 -4.5t7 -3.5v-5 q3 1 4.5 -1.5t2.5 -2.5q0 -1 -3 0q-4 2 -3 -1q2 -6 -4 -9q0 12 -3 12q-2 3 -7 5t-6 4q-1 0 -3.5 3.5t-4.5 4.5q-2 -2 -5 -2q-1 -2 -4.5 -2.5t-7.5 0.5l-3 1q-7 -18 -8 -20q-1 -3 -3 -5t-3 -5q0 -1 -7.5 -1.5t-7.5 -1.5q-11 4 -11 13v5t1 9t1 6l2 -2h3.5h4.5t3.5 1t1.5 2 q4 0 3 -4q9 -3 9 3q-2 0 -2 2q3 4 2 7t-4 6t-3 4l-4 4q9 -6 11 -1q0 1 -1 3v1q2 -2 3.5 -2.5t2.5 1.5q2 1 3 3v6q3 -4 4.5 0t2.5 5q0 -3 3 0q2 2 3 2q1 2 5 2.5t5 3.5q-3 1 -3 12q2 0 4.5 1.5t3.5 1.5t2 -2q0 -6 1 -6q4 2 4 5q-2 0 -5 10q-3 0 -5 -2q-3 0 -7.5 1t-6.5 1 q-7 7 -6 7q-2 4 2 5h2q0 2 11.5 5t12.5 8q-6 0 8 13q10 8 14 8q1 0 9.5 2l14.5 3.5t8 -0.5q22 0 22 -2q1 0 3.5 -1t4 -1.5t3.5 0.5q3 2 11 -2t8 -8q-3 0 -12 -1t-14 -1v-2q2 0 5.5 -4.5t2.5 -6.5q3 0 6 2t4 2q0 -2 1 -3q3 -2 4 3l-1 4q1 2 4.5 2.5t4.5 3.5q-47 56 -114.5 88 t-143.5 32q-134 0 -231 -91q1 -1 5 2l2 1q0 -6 1 -8l3 -7q8 0 9 -2h-5q1 -6 -3 -4q-3 1 -4 1q0 1 -3 2t-5 0t0 -5q1 0 2 -1t3 -2q2 0 6.5 -1t6.5 -2q2 0 5 0.5t4 0.5q2 1 3 2t-1 2q1 2 -4 4q0 1 11 1q2 2 1.5 3.5t0.5 3.5t4 2t4 3q4 -2 5 -6q1 0 3 -3q9 -10 9 -3q6 -1 6 -11 q7 1 7 11q-1 0 -1 3h4q2 -1 2 1q1 0 1 -2h8v-11q0 -2 -2 -3t-3 -1l-2 -1q-3 -4 -1.5 -5t6.5 -3.5t6 -3.5l-8 1q-1 0 -4.5 -0.5t-6 -1t-4.5 0.5q5 0 7 11q-8 2 -11 -5q-1 -4 -4 -3.5t-4 -1.5l-2 -1q-3 -1 -5 -1.5t-2 0.5q-7 -2 -7 -17q11 -8 11 -12q4 -1 9.5 -2t8.5 -1 q1 -3 4 -3q0 -4 9 -4q0 6 6 -4q1 -2 1 -3q-1 0 0 -2.5t3 -5.5q-2 0 -1 -1q2 -2 5.5 -1t3.5 3q-2 0 -2 6q-6 6 1 8q0 -4 6 1q2 2 -1 3q2 9 0 12q-1 1 -2.5 1t-2.5 2q4 1 1 14h5q2 0 5.5 -1.5t5.5 -1t3 3.5q3 -2 4.5 -5t4.5 1q0 -1 4 -5.5t5 -4.5q0 -3 2 -3l-1 -2q7 0 7 1 q6 0 6 8q1 0 2.5 -3l3 -6t2.5 -3l2.5 -2.5l3 -3t2.5 -3t1 -2.5q2 -2 2 -5q1 0 2 2q3 3 3 -1q2 0 4.5 -2.5t2.5 -3.5q-2 0 -1.5 -2t-0.5 -2q0 -1 -11 -1q-1 -5 -6 -6t-11 0.5t-11 -0.5q-4 -2 -9.5 -8.5t-5.5 -10.5q3 0 7.5 3.5t6.5 4.5q2 0 10 4q0 -1 1 -1v-1q-6 0 -2 -7 q1 -1 1 -2q3 -5 8 -5q0 -1 -2.5 -1t-2.5 -2l-5 -3h-6l1 1l1 1h3v4q-3 0 -6 -1.5t-5 -1.5q-4 -4 -6 -4q-2 -10 -6 -12l-2 -1l-4 -2l-2 -2l-2 -2q-1 -2 -2 -5q-3 -7 -3 -9q-1 0 -3.5 -5.5t-6.5 -5.5q-1 -2 -5.5 -6t-4.5 -10q1 -1 1.5 -4t1.5 -6.5t1 -4.5q0 -8 -4 -8l-2 3t-1 3 q0 4 -4 12q0 2 -4.5 1.5t-5.5 -0.5q-1 3 -13 3q0 -1 1 -2t1 -3q-6 -2 -7 -2q-2 0 -4.5 2.5t-5.5 1.5q-14 -2 -14 -16q-1 0 -1 -8.5t1 -8.5q0 -2 2 -6t2 -5q2 0 6 -4t5 -4q1 -4 5 -4l2 1l2 4q-3 1 -1.5 3.5t3.5 3.5q0 -2 6 2l6 2l2 2q1 -3 -1 -4q-2 0 -3 -3l-1 -2 q-1 -2 -2 -5t-1 -5t1 -4.5t0 -4.5h13v3q3 0 2.5 -6.5t1.5 -6.5q0 -2 1 -6t1 -5q5 -3 4 -8q12 0 12 3q7 0 5 -7q5 0 6 3t1 5.5t2 2.5q0 3 2 1l6 3l3 2q2 -1 2 -2q5 0 9 4q2 0 4 -5t6 -5q12 0 13 1q3 -2 3 -3q1 0 2 -1l1 -1h1l4 -4q0 -2 2.5 -3t2.5 -2l1 -1l3 -2l9 -3q1 3 4 0 q1 -1 2 -1l2 -2q1 -1 4 -7q2 -2 4 -11q-1 0 -1 -8l4 -1q2 0 2 2q2 0 5 -2t4 -2q-2 -2 1 -3.5t3 2.5q3 0 3 -11q2 0 4.5 1.5t4.5 1.5q6 0 6 1q8 -2 13 -8q5 -5 5.5 -14t-4.5 -14l-8 -10q0 -12 -1 -12q0 -14 -3 -14q0 -3 -2.5 -7t-3.5 -6q-1 -1 -6.5 -4.5t-6.5 -5.5 q-1 0 -4 -1t-4 -1l-2 -3q-3 -3 -2 -3q0 -1 -0.5 -7.5t-1.5 -8.5q-4 -2 -3 -4q-1 0 -1.5 -1t-3.5 -1q-2 0 -5 -2.5t-3 -5.5q-2 -8 -6 -11l-3 -2q-4 -2 -4 -4v-8q-6 0 -8 -4q-4 0 -11 -4q0 -4 -2 -4q0 -4 -3 -3t-4 0q2 0 2 -6q0 -1 -6 -9l-1 -2q-2 -3 -3 -3q0 -1 -0.5 -4 t-0.5 -5v-3l2 2q0 1 2 -1q-1 -2 -3 -4t-3 -5q-5 0 -5 -8q0 -2 1 -2q0 -1 2 -5l-27 9q0 37 4 37q0 9 2 9v14q-1 2 1.5 6.5t2.5 6.5q3 1 3.5 10t0.5 17t2 8q0 4 1.5 20.5t-0.5 20.5l-7 8q-5 0 -9 6.5t-4 12.5q-3 9 -3 10q1 0 -2 4.5t-6 9.5l-4 5q-3 3 -3 4.5t2 5t2 6.5 q-4 2 -2 10.5t5 8.5q0 3 3 4q1 -3 3 -2q3 3 0 5v13q0 10 -5 10q-2 0 -4 -5q-1 1 -5 1.5t-7 2t-3 4.5q2 6 -8 11q1 4 -5.5 8.5t-10.5 4.5q0 1 -2 1.5t-2 1.5q-2 0 -5 3t-6 3q-4 0 -10 2.5t-9 2.5q-1 2 -6.5 3t-6.5 3q-7 0 -7 13q0 18 -9 18q0 3 -4 6.5t-6 3.5q-3 7 -5 7 q0 4 -6 9q-3 2 -3 0q-1 -2 2.5 -5.5t3.5 -5.5q1 0 8 -13q6 -10 3 -11q-4 -1 -10 8q-2 4 -2 6q-2 1 -4.5 6.5t-2.5 7.5q-1 1 -2.5 4t-2.5 6l-1 2q0 10 -11 10l-7 9q0 10 -8 13q0 2 -1 9t0 10q0 23 -10 31q-33 -68 -33 -144q0 -140 99.5 -239t239.5 -99q82 0 153 37t118 100 q-7 -2 -9 9q-3 17 2 32q5 -2 6 0q-4 1 -2 6q10 -7 10 2l-2 2q0 2 1 3t1.5 0.5t0.5 -2.5q3 0 3.5 4.5t1.5 5.5q0 -11 3 -12q2 -2 -0.5 -4.5t-2.5 -3.5q-2 -1 -2 -6h-3q0 -3 -1 -8.5t-1 -7.5q-2 0 -2 -16zM666 383q2 -1 2 -4q25 0 25 3q1 -2 2 -3t2 2q1 0 4.5 -3t7.5 -2l7 4 l-2 1q0 6 -5 9.5t-6 4.5q-1 0 -3.5 1t-4.5 1q-3 2 -6 -1q-3 -2 -3 0q-1 2 -3 2q0 8 -9 7q-1 -3 -3.5 -7t-3.5 -7.5t-1 -7.5zM518 491q0 -5 -1 -5q-5 -3 -10 -3h-11q-2 0 -10 2q0 1 1 2q3 4 -1 4q7 3 8 3v-1v-4q0 -1 2 -0.5t4.5 1t3.5 1.5q3 0 6 1q1 1 1.5 0.5t0.5 -3.5z M551 444q0 2 -1 4t-1 4q0 3 3 2.5t4 3.5q3 -1 0 -3v-4q2 0 4 2t3 2q-2 -7 -1 -8q5 -5 4 -6q7 0 5 -11q3 0 3 3q2 -1 2 -2.5t-2 -1.5q-3 -5 -15 -5q0 6 -4 3q-3 -1 -2 4q1 2 1 3q-2 1 5 2q-1 8 -8 8zM536 428q-2 2 0 8q-3 1 1 2l5 2q-4 0 -2 4h2q1 -2 2 -1h4q1 -1 0 -3 q-3 -12 -12 -12zM551 422q1 0 1 1h3q0 -2 -1.5 -2t-2.5 1zM392 401q1 1 4 3q0 -3 -4 -3zM598 388q2 0 -1 -6q-1 2 -2 5q3 0 3 1zM598 380q2 0 1.5 -4.5t-5.5 -3.5q0 7 2 7l1 -2q1 1 1 3zM620 365q0 -4 -1 -4.5t-4.5 1.5t-5.5 2h5q1 -1 6 1zM728 240q6 0 6 1q10 0 16 3 q0 -4 -2.5 -9.5t-1.5 -9.5q-3 0 -3 -5l-2 -2q-2 -3 -4 -4q0 -2 -9 -11q-1 -2 -5.5 -6.5t-5.5 -6.5q-14 -14 -10 -14q0 -24 2 -24l1 -6q1 -6 1 -10t-1 -5q0 -3 -2 -7.5t-2 -6.5l-2 -1l-3 -3q-2 0 -4 -3.5t-3 -3.5q0 -4 -1 -11t-1 -11l-1 -4l-2 -6l-1 -4q-15 -8 -15 -17 q-7 -10 -8 -12q-19 0 -19 -4h-15q0 2 -1 6t-1 7q-1 0 -2 3.5t-2 3.5q0 1 -2.5 6.5t-4.5 11t-1 5.5q0 9 -3 9q0 4 -2.5 11t-2.5 10q-1 0 -2 4t-1.5 7.5t0.5 4.5q0 4 4 22q1 9 -3 23q-4 0 -4 6q-6 4 -6 15q6 6 3 20q-3 1 -14 1q-1 3 -7.5 4t-16.5 0l-10 -1q-1 -2 -4.5 -1.5 t-8.5 2.5t-5 3q-3 0 -7.5 4.5t-4.5 8.5q-4 1 -8 9.5t-4 12.5q-4 4 0 9q0 3 -3 12q0 2 1.5 4t1.5 4q0 11 4 19q0 1 2 4t2 4q2 3 3 3q2 1 3 3q2 1 5 5q2 3 3 4q3 1 0 4q4 0 4 10q2 3 6 3l1 1q4 5 5 5q2 3 6 3q1 -1 2.5 -1t4.5 1l3 1q5 7 14 7q1 2 5 1.5t10.5 -1.5t7.5 -1v2 q3 -1 7 -10t4 -12h8q0 -4 10 -4q16 0 16 6q6 0 6 -6h6t8.5 -0.5t7.5 -2t2 -2.5q2 0 4 -3t3 -3q0 -3 2.5 -8.5t4.5 -5.5q0 -8 5 -11q6 -14 12 -18q-1 -2 1.5 -6t2.5 -5q1 -6 3 -7q0 -4 5 -11.5t8 -7.5q0 -1 -1 -2t2 -2zM312 296q0 -3 3 0q0 -4 -4 -2q-2 0 -1 3q1 0 2 -1z M328 297q4 -1 7.5 -3.5t5.5 -2.5q3 -3 3.5 -4t-1.5 -2q-8 -2 -12 5q-5 0 -10 5q6 0 7 2zM362 283l2 -1q2 -2 3 -4l1 -1h-13q-1 -1 -4.5 -1t-4.5 2h7l-2 4q1 0 5 -1t6 -1v3zM331 278q4 0 4 -3q-5 0 -4 3zM336 275l2 3q1 0 1 -2q-1 -1 -3 -1zM376 278q3 0 3 -1q-4 2 -3 1z M373 278l2 -1q-1 0 -1 -0.5t-1 -0.5v2zM357 250q1 1 1 2l1 -1q0 -1 -2 -1zM740 134q0 2 2 3z" />
<glyph unicode="H" horiz-adv-x="865" d="M686 279v-378h-177v235h-152v-235h-183v378h-153l412 411l411 -411h-158z" />
<glyph unicode="I" horiz-adv-x="932" d="M884 234v-314h-836v314l157 418h522zM582 234h198l-105 322l-418 1l-104 -323h197l49 -96h130z" />
<glyph unicode="J" horiz-adv-x="862" d="M848 534l-122 -122l82 -82l-370 -42l43 369l81 -81l122 122zM136 148l-82 82l369 43l-43 -370l-81 82l-122 -122l-163 163zM182 388l197 -68l-221 18zM393 417v-85l-28 80zM682 174l-197 69l221 -19zM471 146v85l28 -81z" />
<glyph unicode="K" horiz-adv-x="869" d="M530 351l318 -318v-168v0h-168h-1v129h-128v128h-128l-61 61q-40 -14 -83 -14q-109 0 -187 77.5t-78 187.5t78 187.5t187 77.5t187 -77.5t78 -187.5q0 -43 -14 -83zM224 402q37 0 63 26t26 63t-26 63t-63 26t-63.5 -26t-26.5 -63t26.5 -63t63.5 -26z" />
<glyph unicode="L" d="M460 701q174 0 297 -123t123 -297t-123 -297t-297 -123t-297 123t-123 297t123 297t297 123zM460 -34q130 0 222.5 92t92.5 223t-92.5 223t-222.5 92t-222.5 -92t-92.5 -223t92.5 -223t222.5 -92zM464 529q103 0 176.5 -73.5t73.5 -177.5t-73 -177.5t-177 -73.5 t-177.5 73.5t-73.5 177.5t73.5 177.5t177.5 73.5zM396 359q33 33 102 70l-30 40q-4 1 -12 1q-61 0 -116.5 -55t-55.5 -116q0 -6 1 -9l42 -32q38 70 69 101zM540 155q16 0 28 12t12 29t-11.5 29t-28.5 12t-29 -12t-12 -29t12 -29t29 -12z" />
<glyph unicode="M" horiz-adv-x="952" d="M892 32l-273 262l273 234q3 -8 3 -15v-465q0 -8 -3 -16zM476 238l-72 58l-36 30l-275 235q10 2 14 2h738q4 0 14 -2l-275 -235l-36 -30zM845 -2h-738q-5 0 -13 2l276 265l106 -87l107 87l275 -265q-8 -2 -13 -2zM60 528l273 -234l-273 -262q-3 8 -3 16v465q0 7 3 15z" />
<glyph unicode="N" horiz-adv-x="943" d="M857 670q17 0 23 -6t6 -23v-655q0 -17 -6 -23t-23 -6h-108h-546h-71q-28 0 -53.5 26.5t-25.5 52.5v481q0 17 6 23t23 6h92v95q0 17 6 23t23 6h654zM837 7v613h-614v-74v-50v-445h-49v445h-71v-460q0 -7 11 -18t18 -11h71h546h88zM511 556v-223h-223v223h223zM765 525v-37 h-185v37h185zM765 411v-37h-185v37h185zM765 259v-37h-477v37h477zM765 144v-37h-477v37h477z" />
<glyph unicode="O" horiz-adv-x="930" d="M882 510v-511h-70v511h70zM695 510h47v-511h-556v511h52q68 133 122 133h207q32 0 66.5 -40.5t61.5 -92.5zM514 522q13 0 22 9t9 22t-9 21.5t-22 8.5h-104q-13 0 -21.5 -8.5t-8.5 -21.5t8.5 -22t21.5 -9h104zM48 510h69v-511h-69v511z" />
<glyph unicode="P" horiz-adv-x="909" d="M719 496h143v-495h-659v1l-177 461l615 237zM660 496l-51 133l-345 -133h396zM97 432l106 -277v318zM258 56h549v385h-549v-385zM699 292l58 -190h-432l103 112l66 -42l123 177l38 -71zM379 275q-22 0 -37 15t-15 37t15 37t37 15t37 -15t15 -37t-15 -37t-37 -15z" />
<glyph unicode="Q" horiz-adv-x="844" d="M681 521q61 -54 95.5 -129.5t34.5 -160.5q0 -161 -114 -275.5t-275 -114.5t-275 114.5t-114 275.5q0 85 35 161t96 130q20 17 46.5 15.5t43.5 -21.5q17 -19 15.5 -45.5t-21.5 -43.5q-88 -78 -88 -196q0 -109 76.5 -186t185.5 -77t185.5 77t77.5 186q0 117 -88 195 q-20 18 -21.5 44t16.5 46q17 19 43.5 20.5t45.5 -15.5zM423 166q-26 0 -44.5 19t-18.5 45v407q0 26 18.5 45t44.5 19t45 -19t19 -45v-407q0 -26 -19 -45t-45 -19z" />
<glyph unicode="R" horiz-adv-x="909" d="M668 105v87l104 70v-262h-731v523h327q-2 -1 -6.5 -3t-6.5 -3q-87 -39 -141 -99h-69v-313h523zM877 417l-313 -211v137q-90 0 -141 -7q-49 -6 -89.5 -21t-63.5 -33.5t-39 -35.5t-22 -28l-6 -12q0 54 20 100t51.5 75.5t70.5 52.5t77.5 35t70 20t51.5 10l20 2v126z" />
<glyph unicode="S" horiz-adv-x="853" d="M826 389q10 -11 8 -24q0 -13 -10 -28q-3 -4 -16 -14l-184 -121q-2 -1 -5.5 -7t-2.5 -10v-4l81 -237q4 -11 4 -23q0 -15 -7 -25q-11 -16 -30 -16h-1q-16 1 -36 15l-190 155q-3 3 -10 3t-9 -3l-181 -154q-18 -14 -36 -15q-21 -2 -31 15q-8 11 -8 26q0 7 4 21l72 236v4 q1 5 -2 11t-6 7l-185 122q-10 7 -16 14q-11 13 -11 28q0 14 8 24q9 9 16 12q12 5 27 5h230q6 0 11 4q7 5 7 10l67 239q4 14 9 21q13 18 33 19q20 -1 33 -19q3 -4 10 -21l66 -239q0 -5 7 -10q5 -4 11 -4h230q9 0 20 -3q14 -4 23 -14z" />
<glyph unicode="T" horiz-adv-x="899" d="M817 185l63 -64l-162 -91l-92 -163l-63 64l14 148l-169 169l-224 -371l-63 63l120 475l-176 175q-19 20 -19 46.5t19 45.5t46 19t46 -19l176 -175l475 120l63 -63l-371 -225l168 -168z" />
<glyph unicode="U" horiz-adv-x="894" d="M760 154q46 -20 72.5 -44.5t29.5 -38.5l3 -14v-86h-836v86q0 2 0.5 6t6 15t15.5 22t31.5 26t50.5 28q12 5 54 29t87 43t94 28q-33 34 -72 134q-11 28 -11 100q0 7 -1 31t-0.5 41.5t3.5 29.5q31 111 159 111q127 0 158 -111q4 -12 4.5 -29.5t-1 -41t-1.5 -31.5 q0 -72 -10 -100q-38 -96 -72 -134q50 -8 94.5 -27t87 -43.5t54.5 -29.5z" />
<glyph unicode="V" horiz-adv-x="949" d="M659 416l235 111v-449l-235 111v1v-103q0 -19 -13 -32t-32 -13h-510q-19 0 -32 13t-13 32v433q0 19 13 32t32 13h510q19 0 32 -13t13 -32v-104z" />
<glyph unicode="W" horiz-adv-x="954" d="M704 54v181l92 93v-274q0 -51 -36 -87t-87 -36h-492q-51 0 -87 36t-36 87v493q0 51 36 87t87 36h492q17 0 24 -2l-89 -90h-427q-13 0 -22 -9t-9 -22v-493q0 -13 9 -22t22 -9h492q13 0 22 9t9 22zM431 314l354 354l132 -132l-354 -354v0l-195 -63l63 195v0zM547 208 l-89 89l-43 -131z" />
<glyph unicode="X" horiz-adv-x="921" d="M868 542v-423h-66q-13 29 -40 46.5t-60 17.5t-59.5 -17.5t-40.5 -46.5h-220v423h486zM240 183q-33 0 -60 -17.5t-40 -46.5h-107v180l111 123h184v-284q-33 45 -88 45zM101 288v-58h161v132h-99zM240 146q30 0 51.5 -21t21.5 -52q0 -30 -21.5 -51.5t-51.5 -21.5 q-31 0 -52 21.5t-21 51.5q0 31 21 52t52 21zM702 146q31 0 52 -21t21 -52q0 -30 -21 -51.5t-52 -21.5q-30 0 -51.5 21.5t-21.5 51.5q0 31 21.5 52t51.5 21z" />
<glyph unicode="Y" horiz-adv-x="861" d="M425 488l-145 -409l-126 193l-81 -76l-22 -20l-46 39l162 151l96 -147l171 483l157 -605l131 413l116 -371l-61 -16l-55 178l-137 -431z" />
<glyph unicode="Z" horiz-adv-x="897" d="M402 607v-369h371q0 -153 -108 -261t-261 -108t-261 108t-108 261q0 152 107.5 260t259.5 109zM496 700q153 0 261.5 -108.5t108.5 -261.5h-371v370h1z" />
<glyph unicode="[" horiz-adv-x="861" d="M445 671v-278h409v-185h-409v-277l-427 370z" />
<glyph unicode="\" horiz-adv-x="854" d="M710 579h87v-739h-740v739h89v46q0 35 20 54t56 19t56.5 -19.5t20.5 -53.5v-46h52v46q0 34 20.5 53.5t56.5 19.5t56 -19t20 -54v-46h52v46q0 34 20.5 53.5t56.5 19.5t56.5 -19.5t20.5 -53.5v-46zM598 625v-123q0 -32 35 -32q19 0 27.5 7.5t8.5 24.5v123q0 17 -8.5 24.5 t-27.5 7.5q-35 0 -35 -32zM392 625v-123q0 -17 8.5 -24.5t27.5 -7.5q35 0 35 32v123q0 32 -35 32q-19 0 -27.5 -7.5t-8.5 -24.5zM187 625v-123q0 -32 35 -32q19 0 27.5 7.5t8.5 24.5v123q0 17 -8.5 24.5t-27.5 7.5q-35 0 -35 -32zM735 -99v514h-616v-514h616zM429 99 q0 -45 -35 -70t-90 -25q-36 0 -73 14l7 52q35 -14 73 -14q24 0 38 11t14 28q0 22 -16.5 32.5t-59.5 12.5v52q63 5 63 38q0 28 -42 28q-29 0 -61 -15l-7 52q34 15 84 15q45 0 71 -18t26 -46q0 -50 -65 -72v-1q73 -20 73 -74zM537 229l-52 -20l-7 52l91 44h31v-296h-63v220z " />
<glyph unicode="]" horiz-adv-x="861" d="M415 -69v277h-408v185h408v278l428 -370z" />
<glyph unicode="^" horiz-adv-x="775" d="M749 572q22 -46 -3 -132q-24 -85 -5 -234q-8 -2 -21 -4t-49 -8t-66 -8t-61 -2t-46.5 9t-10.5 26q15 48 -48 46q-61 -2 -182 -48q-37 -14 -63 -3v399q22 6 58 15t112 25t126.5 14.5t50.5 -24.5q0 -3 -2 -14.5t-3.5 -23t-1.5 -23t5 -18t16 -5.5q30 4 78.5 7t82.5 4z M145 658v-817h-85v817q0 17 12.5 29.5t30.5 12.5q17 0 29.5 -12.5t12.5 -29.5z" />
<glyph unicode="_" horiz-adv-x="820" d="M59 198v199h702v-199h-702z" />
<glyph unicode="`" horiz-adv-x="936" d="M306 378l-152 153l-95 -96v277h277l-95 -95l152 -152zM783 75l95 95v-276h-277l95 95l-152 151l87 87zM631 378l-87 87l152 152l-95 95h276v-277l-94 95zM306 227l87 -87l-152 -152l95 -95l-277 1v277l95 -96z" />
<glyph unicode="a" horiz-adv-x="810" d="M745 144q21 0 35.5 -14.5t14.5 -35.5t-14.5 -36t-35.5 -15q-2 0 -6 0.5t-6 0.5q-42 -36 -79 -59q-83 -55 -157 -76q-71 -44 -90 -44q-14 0 -95 45q-76 22 -156 75q-40 27 -79 59q-2 0 -5.5 -0.5t-5.5 -0.5q-21 0 -36 15t-15 36t15 35.5t36 14.5t35.5 -14.5t14.5 -35.5v-8 q9 -8 34 -22t38 -23q47 -31 144 -33l32 151q4 98 7 192h-136l-52 12q-14 -17 -33 -17q-17 0 -29 11.5t-12 28.5t12 28.5t29 11.5q22 0 33 -18h190q2 72 3 96q-32 10 -52 36.5t-20 60.5q0 42 29.5 71.5t70.5 29.5q42 0 71.5 -29.5t29.5 -71.5q0 -33 -20 -59.5t-51 -36.5 q0 -7 1.5 -40.5l2.5 -56.5h189q11 18 33 18q17 0 29 -11.5t12 -28.5t-12 -28.5t-29 -11.5q-21 0 -32 17l-53 -12h-135l6 -192l33 -154q79 -4 120 21q50 30 96 62q-1 2 -1 6q0 21 15 35.5t36 14.5zM351 601q0 -22 15.5 -37.5t37.5 -15.5q23 0 38.5 15.5t15.5 37.5t-16 37.5 t-38 15.5t-37.5 -15.5t-15.5 -37.5z" />
<glyph unicode="b" horiz-adv-x="919" d="M461 699l408 -113v-591l-408 -114l-410 114v591zM426 -38v439l-306 86v-441zM460 462l300 84l-299 82l-300 -82zM801 46v440l-307 -85v-440z" />
<glyph unicode="c" horiz-adv-x="908" d="M767 318q46 -19 73.5 -60t27.5 -92q0 -68 -48 -116t-116 -48h-9h-198v162h30h76q12 0 15 6.5t-4 16.5l-145 173q-8 10 -19.5 10t-19.5 -10l-145 -173q-8 -10 -5 -16.5t16 -6.5h76h30v-162h-198h-1h-1h-2v1q-68 1 -116.5 50t-48.5 117q0 46 22 84t60 61q-5 18 -5 34 q0 47 33.5 80.5t81.5 33.5q39 0 69 -24q31 64 91 103t133 39q103 0 175.5 -72.5t72.5 -175.5q0 -10 -1 -15z" />
<glyph unicode="d" horiz-adv-x="918" d="M459 699q174 0 296.5 -123t122.5 -296q0 -174 -122.5 -296.5t-296.5 -122.5q-173 0 -296 122.5t-123 296.5q0 173 123 296t296 123zM774 280q0 130 -92.5 222t-222.5 92q-100 0 -182 -58l438 -438q59 81 59 182zM145 280q0 -130 92 -222t222 -92q103 0 183 58l-438 439 q-59 -83 -59 -183z" />
<glyph unicode="e" horiz-adv-x="556" d="M550 699l-193 -342h158l-510 -476l239 386h-160z" />
<glyph unicode="f" horiz-adv-x="912" d="M56 415q149 0 275 -73.5t200 -199.5t75 -275h-160q-2 161 -115 274q-114 114 -275 114v160zM56 700q169 0 322.5 -66t265.5 -177.5t178 -266t67 -323.5h-160q-1 183 -91.5 337.5t-245 244.5t-336.5 90v161zM167 90q46 0 78.5 -32.5t32.5 -78.5t-32.5 -78.5t-78.5 -32.5 t-78.5 32.5t-32.5 78.5t32.5 78.5t78.5 32.5z" />
<glyph unicode="g" horiz-adv-x="894" d="M865 36v-35h-151v47v1q-4 43 -55 73q-10 16 -22 47q-5 11 -5 40q0 37 1 41q13 44 64 44t64 -44v-41q0 -30 -4 -40q-15 -39 -29 -54q20 -4 38 -11.5t35.5 -17t21.5 -11.5q19 -8 29.5 -18t11.5 -15zM180 49v-1v-47h-151v35q0 2 1 6t11.5 14t29.5 18q5 2 21.5 12t34.5 17.5 t38 11.5q-14 15 -29 54q-4 10 -4 40q0 37 1 41q11 44 63 44q51 0 64 -44q1 -4 1 -41q0 -30 -4 -40q-15 -36 -24 -48q-53 -32 -53 -72zM620 102q25 -11 39.5 -24.5t16.5 -21.5l2 -8v-47h-462v47q0 3 1.5 8.5t16 19.5t40.5 26q6 3 29 16t48 23.5t52 15.5q-18 21 -39 74 q-6 13 -6 56q0 53 1 56q17 61 87 61t88 -61q1 -3 1 -56q0 -41 -6 -56q-21 -54 -40 -74q28 -5 52.5 -15t49 -24t29.5 -16z" />
<glyph unicode="h" horiz-adv-x="906" d="M848 425q25 -68 25 -144t-25 -144q-10 -28 -40 -28q-6 0 -10 1l-7 2q-55 -111 -169 -169l2 -7q4 -16 -3.5 -30t-22.5 -20q-72 -25 -144 -25q-73 0 -145 25q-15 6 -22.5 20t-3.5 30l2 7q-112 55 -170 169l-7 -2q-3 -1 -10 -1q-29 0 -39 28q-26 70 -26 144t26 144 q10 28 39 28q3 0 11 -2l6 -1q58 115 170 169l-2 7q-4 16 3.5 30t22.5 20q72 25 144 25q75 0 145 -26q15 -5 22.5 -19t3.5 -30l-2 -7q113 -56 170 -169l6 1q8 2 11 2q29 0 39 -28zM808 151q23 63 23 130q0 66 -22 130l-166 -41q20 -42 20 -89t-20 -89zM583 -74l-40 165 q-42 -20 -89 -20t-90 20l-40 -165q61 -23 130 -23q68 0 129 23zM561 129q12 -7 17 -16q24 17 44 43q-11 6 -17 18q-8 17 0 36q16 32 16 71q0 38 -16 71q-8 18 0 36q7 12 17 18q-19 25 -44 43q-7 -12 -17 -16q-8 -4 -18 -4q-11 0 -18 4q-33 16 -72 16q-38 0 -71 -16 q-7 -4 -18 -4q-10 0 -18 4q-12 7 -17 16q-25 -18 -44 -43q11 -6 17 -18q8 -18 0 -36q-17 -36 -17 -71q0 -36 16 -71q9 -19 0 -36q-4 -11 -16 -18q16 -22 44 -44q5 10 17 17q8 4 18 4q11 0 18 -4q33 -16 72 -16q38 0 71 16q7 4 18 4q10 0 18 -4zM75 281q0 -64 23 -130l165 41 q-20 45 -20 89q0 45 21 89l-166 41q-23 -67 -23 -130zM453 659q-68 0 -129 -23l40 -165q43 20 89 20q47 0 90 -20l40 165q-61 23 -130 23z" />
<glyph unicode="i" d="M460 699q174 0 297 -123t123 -297t-123 -297t-297 -123q-173 0 -296.5 123t-123.5 297t123.5 297t296.5 123zM514 569q-31 -1 -49 -22t-18 -45q0 -25 13.5 -40.5t36.5 -15.5h1q29 0 48.5 20.5t19.5 48.5q0 23 -13 37q-15 17 -39 17zM565 98l3 3l-2 4l-18 38l-5 -4 q-14 -14 -34.5 -28t-24.5 -15v5q0 7 3 20l46 188q6 25 6 57q0 18 -6 30q-7 12 -22 12q-25 0 -71.5 -28.5t-91.5 -70.5l-3 -3l16 -45l6 4q35 31 55 39q0 -6 -3 -21l-43 -182q-6 -30 -6 -60q0 -25 10 -36q9 -10 26 -10q23 0 70.5 29t88.5 74z" />
<glyph unicode="j" horiz-adv-x="877" d="M835 232v-1l1 -1v-1q19 -35 19 -79q0 -18 -5 -43q-12 -46 -45 -80l-64 -63q-51 -51 -123 -51t-122 51l-77 76l-47 48l-33 33q-37 37 -48 91q-2 20 -2 31q0 17 3 35l3 12q4 15 14 34v1q1 1 2.5 4l2.5 5l1 2l1 1q1 1 2.5 3.5t2.5 3.5v1l2 2q1 1 3 3.5t3 3.5v1l2 2l4 4t4 5 l28 28l4 -5l57 -56q0 -1 2 -3t2 -3t1 -3.5t1 -3.5l-25 -25q-1 -1 -3 -3.5t-4 -4.5q0 -1 -1 -2v-1q-2 -2 -4 -6q-1 0 -1 -1t-1 -2t-1.5 -3.5t-0.5 -3.5l-1 -1v-2q-4 -9 -4 -22q0 -15 7 -32q4 -8 14 -20l57 -57l40 -39l60 -61q21 -21 52 -21q32 0 52 21l64 64q12 12 18 29 q3 11 3 23q0 10 -3 21q-5 19 -18 31l-98 98q1 6 1 17q0 21 -3 40q-12 68 -59 116q39 -12 71 -42l2 -2l157 -157q18 -18 29 -39q0 -1 1 -1zM538 441q39 -39 48 -91q3 -15 3 -31q0 -11 -4 -35l-3 -12q-3 -12 -13 -34l-1 -1q-1 -1 -2.5 -4l-2.5 -5l-1 -2l-1 -1q-2 -4 -5 -7 l-1 -1q-1 -1 -1 -2q-3 -3 -5 -7l-1 -1l-2 -2q-2 -3 -8 -9l-28 -28l-4 5l-57 56q-1 1 -2 3t-2 3t-1 3.5t-1 3.5l25 25q1 1 3 3.5t4 4.5q0 1 0.5 1t0.5 1v1q2 2 4 6l1 1q1 1 1 2q2 4 3 7v1q0 1 1 2q3 11 3 22q0 15 -7 32q-4 8 -14 20l-57 57l-39 39l-61 61q-21 21 -52 21 t-52 -21l-64 -64q-12 -12 -18 -29q-3 -11 -3 -23q0 -10 3 -21q5 -19 18 -31l98 -98q-1 -6 -1 -17q0 -23 4 -40q10 -65 58 -116q-40 12 -71 42l-2 2l-157 157q-18 18 -29 39q0 1 -1 1v1l-1 1v1q-19 38 -19 79q0 18 5 43q12 46 45 80l64 63q51 51 123 51t122 -51l77 -76 l47 -48z" />
<glyph unicode="k" horiz-adv-x="896" d="M657 610q89 0 148.5 -50.5t59.5 -159.5q0 -49 -26 -101t-52 -79l-26 -28l-313 -312l-313 312l-11 11t-25 30t-32 46t-25 56.5t-11 64.5q0 109 59 159.5t148 50.5q90 0 191 -107l19 -21q4 5 11.5 13.5t31 31t47 39t56.5 30.5t63 14z" />
<glyph unicode="l" horiz-adv-x="942" d="M279 700h605v-133h-605v133zM279 284v133h605v-133h-605zM279 0v133h605v-133h-605zM122 700q28 0 47.5 -19.5t19.5 -46.5q0 -28 -19.5 -47.5t-47.5 -19.5q-27 0 -46.5 19.5t-19.5 47.5q0 27 19.5 46.5t46.5 19.5zM122 418q28 0 47.5 -19.5t19.5 -47.5q0 -27 -19.5 -46.5 t-47.5 -19.5q-27 0 -46.5 19.5t-19.5 46.5q0 28 19.5 47.5t46.5 19.5zM122 134q28 0 47.5 -19.5t19.5 -46.5q0 -28 -19.5 -47.5t-47.5 -19.5q-27 0 -46.5 19.5t-19.5 47.5q0 27 19.5 46.5t46.5 19.5z" />
<glyph unicode="m" horiz-adv-x="808" d="M771 698v-83v-514q-1 -52 -46.5 -88t-110.5 -36t-111 37t-46 89t46 89t111 37q36 0 70 -13v308l-352 -84v-495q-1 -52 -47 -88.5t-110 -36.5q-65 0 -111 37t-46 90q0 52 46 89t111 37q35 0 69 -13v513h2l438 104z" />
<glyph unicode="n" horiz-adv-x="956" d="M759 700q58 0 99 -41t41 -99v-561q0 -58 -41 -99t-99 -41h-561q-58 0 -99 41t-41 99v561q0 58 41 99t99 41h561zM794 490h-513v-117h513v117zM259 217h-96v-114h96v114zM163 238h96v114h-96v-114zM281 217v-114h513v114h-513zM281 238h513v114h-513v-114zM259 490h-96 v-117h96v117zM163 -1q0 -14 10.5 -24.5t24.5 -10.5h61v117h-96v-82zM759 -36q14 0 24.5 10.5t10.5 24.5v82h-513v-117h478z" />
<glyph unicode="o" horiz-adv-x="941" d="M867 545q11 0 18 -7.5t7 -17.5v-525q0 -11 -7 -18t-18 -7h-784q-11 0 -18 7t-7 18v525q0 10 7 17.5t18 7.5h38l29 59q11 22 36 22h158q25 0 36 -22l28 -59h459z" />
<glyph unicode="p" horiz-adv-x="855" d="M542 549l153 -153l-460 -460v0v0l-226 -74l73 227v0v0zM188 65l379 379l-25 26l-380 -380zM694 701l154 -153l-101 -100l-153 153z" />
<glyph unicode="q" horiz-adv-x="910" d="M865 160q0 -42 -26 -75t-66 -44q15 -43 66 -82q12 -8 -9 -14q-45 -11 -114 21q-52 25 -97 71h-299q-42 0 -77 27q30 18 56 43h276q74 0 126.5 52.5t52.5 126.5v235q47 -5 79 -40t32 -83v-238zM698 286q0 -52 -36 -88t-87 -36h-298q-49 -50 -100 -72t-90 -22q-34 0 -34 11 q0 3 3 5q50 38 66 82q-40 11 -66 44t-26 76v237q0 51 36 87.5t88 36.5h421q51 0 87 -36.5t36 -87.5v-237z" />
<glyph unicode="r" horiz-adv-x="900" d="M726 278l24 24l91 91v-260q0 -128 -128 -128h-509v-108l-171 172l171 172v-115v-6h484q16 0 27 11t11 27v120zM174 319l-24 -24l-91 -91v260q0 127 128 127h509v108l171 -171l-171 -172v115v6h-484q-16 0 -27 -11.5t-11 -27.5v-119z" />
<glyph unicode="s" horiz-adv-x="864" d="M816 4q23 -23 23 -54q0 -29 -20 -48q-19 -19 -47 -19q-32 0 -55 23l-219 219q-74 -48 -166 -48q-129 0 -220.5 91.5t-91.5 220.5t91.5 220.5t220.5 91.5t220.5 -91.5t91.5 -220.5q0 -90 -47 -165zM506 389q0 72 -51 123t-123 51t-123 -51t-51 -123t51 -123t123 -51 t123 51t51 123z" />
<glyph unicode="t" horiz-adv-x="919" d="M460 699q173 0 296 -123t123 -296q0 -174 -123 -297t-296 -123q-174 0 -297 123t-123 297q0 173 123 296t297 123zM460 -35q130 0 222 92.5t92 222.5t-92 222t-222 92t-222.5 -92t-92.5 -222t92.5 -222.5t222.5 -92.5zM663 186q14 -10 5 -24l-24 -39q-5 -6 -11 -8h-4 q-5 0 -10 3l-193 129q-1 1 -2.5 2t-2.5 1q-5 7 -5 13v228q0 7 5 12q7 5 13 5h46q7 0 12 -5t5 -12v-193z" />
<glyph unicode="u" horiz-adv-x="955" d="M60 631h835v-673h-835v673zM825 28v534h-695v-534h695zM225 431q-18 0 -31 13t-13 31t13 30.5t31 12.5t30.5 -12.5t12.5 -30.5t-12.5 -31t-30.5 -13zM731 431q-18 0 -31 13t-13 31t13 30.5t31 12.5t30.5 -12.5t12.5 -30.5t-12.5 -31t-30.5 -13zM225 159q18 0 30.5 -13 t12.5 -31t-12.5 -30.5t-30.5 -12.5t-31 12.5t-13 30.5t13 31t31 13zM731 159q18 0 30.5 -13t12.5 -31t-12.5 -30.5t-30.5 -12.5t-31 12.5t-13 30.5t13 31t31 13zM593 457v-325h-228v325h228zM533 181v118h-109v-118h109z" />
<glyph unicode="v" horiz-adv-x="945" d="M866 557q10 0 17.5 -7t7.5 -17v-472q0 -11 -7.5 -18t-17.5 -7h-786q-10 0 -17.5 7t-7.5 18v472q0 10 7.5 17t17.5 7h173q0 1 1 1l23 48q4 9 15 15.5t21 6.5h319q25 0 36 -22l24 -48v-1h174zM472 120q75 0 128 52.5t53 127.5t-53 128t-128 53q-74 0 -127 -53t-53 -128 t53 -127.5t127 -52.5z" />
<glyph unicode="w" horiz-adv-x="927" d="M885 397q16 -137 -94.5 -247t-282.5 -129q-62 -7 -120 0q-92 -95 -197 -106q-47 -5 -56 8q-3 4 3 8q88 66 80 145q-69 39 -112 98t-51 130q-16 136 94 246.5t282 130.5q172 19 304.5 -64t149.5 -220z" />
<glyph unicode="x" horiz-adv-x="949" d="M526 100q2 10 2 16l98 98l139 -139l94 -69l10 -38l-104 -104l-37 10l-70 94zM755 22q-18 0 -30.5 -12.5t-12.5 -31.5q0 -18 12.5 -30.5t30.5 -12.5q19 0 31.5 12.5t12.5 30.5q0 19 -12.5 31.5t-31.5 12.5zM469 371l-98 -98q-6 0 -16 -2l-71 70q-32 -15 -56 -15 q-74 0 -133.5 60t-60.5 134q0 1 17 18q63 -63 71 -68t45 -5q29 0 65.5 36t36.5 66q0 36 -6 45.5t-67 69.5q15 18 18 18q74 1 134 -59.5t60 -134.5q0 -27 -16 -57zM786 202q0 3 0.5 7.5t0.5 18.5t-1.5 28t-5.5 32t-10.5 33.5t-19 30.5t-28.5 24h-3q-10 0 -34 -22l-218 -217 q8 -29 -8 -47q-2 -1 -7 -6l-201 -201q-5 -5 -6 -7q-11 -11 -29 -11q-41 0 -77 48t-8 77q3 2 6 6l202 202q5 3 6 6q11 11 28 11q9 0 19 -3l194 194l4 6q4 6 5.5 8t5 8.5t4.5 11t1.5 11t-1 13.5t-4.5 14q-16 29 -60 38h-1q-16 0 -55 37l-6 6q-19 19 -20 25t18 27l72 73 q17 17 26 17q6 0 26 -20l6 -6q33 -33 37 -49q4 -20 24 -46q3 -4 18 -4t19 -4l119 -119q73 -73 30 -252l-15 -50z" />
<glyph unicode="y" horiz-adv-x="897" d="M843 359q9 -1 15.5 -9t6.5 -17v-97q0 -9 -6.5 -17t-15.5 -9l-124 -23q-9 -2 -12 -8t2 -14l72 -106q12 -19 -4 -35l-68 -68q-16 -16 -34 -3l-106 71q-7 5 -14.5 2.5t-8.5 -11.5l-23 -125q-1 -9 -9 -15.5t-17 -6.5h-97q-9 0 -17 6.5t-9 15.5l-23 125q-1 9 -8.5 11.5 t-14.5 -2.5l-105 -71q-20 -12 -35 3l-68 68q-16 16 -4 35l72 106q5 8 2 14t-12 8l-124 23q-9 1 -15.5 9t-6.5 17v97q0 9 6.5 17t15.5 9l124 23q22 6 10 23l-72 106q-11 19 4 34l68 68q16 16 35 4l105 -72q7 -5 14.5 -2t8.5 12l23 124q1 9 9 15.5t17 6.5h97q9 0 17 -6.5 t9 -15.5l23 -124q1 -9 8.5 -12t14.5 2l106 72q18 12 34 -4l68 -68q15 -15 4 -34l-72 -106q-12 -17 10 -23zM448 134q63 0 107 44t44 106t-44 106.5t-107 44.5q-62 0 -106 -44.5t-44 -106.5t44 -106t106 -44z" />
<glyph unicode="z" horiz-adv-x="736" d="M433 -33q34 0 55 23l176 176l39 -39q15 -15 0 -31l-254 -254q-15 -16 -31 0l-350 350q-15 15 -17 36l-8 97l335 -335q23 -23 55 -23zM353 664l350 -349q16 -16 0 -31l-254 -255q-7 -6 -16 -6t-15 6l-350 350q-15 17 -17 37l-17 190q-2 22 14 36l43 44q15 13 34 13h3 l189 -17q22 -2 36 -18zM115 617q-14 -13 -14 -33t14 -33q13 -13 33 -13t33 13t13 33t-13 33q-14 14 -33 14t-33 -14z" />
<glyph unicode="{" horiz-adv-x="762" d="M751 299h-278v-408h-185v408h-277l370 428z" />
<glyph unicode="|" horiz-adv-x="915" d="M182 280q-3 -16 -3 -35v-69q-58 0 -98.5 40.5t-40.5 98.5v244q0 58 40.5 98.5t98.5 40.5h348q58 0 98.5 -40.5t40.5 -98.5v-105h-104v105q0 14 -10.5 24.5t-24.5 10.5h-348q-14 0 -24.5 -10.5t-10.5 -24.5v-244q0 -14 10.5 -24.5t24.5 -10.5h3zM736 385q57 0 98 -41 t41 -99v-243q0 -58 -41 -99t-98 -41h-348q-58 0 -98.5 41t-40.5 99v243q0 58 40.5 99t98.5 41h348zM770 2v243q0 15 -10 25t-24 10h-348q-14 0 -24.5 -10t-10.5 -25v-243q0 -15 10.5 -25t24.5 -10h348q14 0 24 10t10 25z" />
<glyph unicode="}" horiz-adv-x="762" d="M11 301h277v409h185v-409h278l-370 -427z" />
<glyph unicode="~" d="M460 699q174 0 297 -123t123 -297t-123 -297t-297 -123t-297 123t-123 297t123 297t297 123zM628 34v232h-166l145 167h-112v135h-75v-135h-112l144 -167h-162v-232h145l-39 -39h126l-39 39h145zM333 76v148h253v-148h-253z" />
<glyph unicode="&#xff;" horiz-adv-x="833" />
<glyph horiz-adv-x="500" />
</font>
</defs>
</svg>
