<svg xmlns="http://www.w3.org/2000/svg" viewBox="0 0 512 512" class="ionicon"><path d="m461 349-34-19.64a89.5 89.5 0 0 1 20.94-16 22 22 0 0 0-21.28-38.51 133.6 133.6 0 0 0-38.55 32.1L300 256l88.09-50.86a133.5 133.5 0 0 0 38.55 32.1 22 22 0 1 0 21.28-38.51 89.7 89.7 0 0 1-20.94-16l34-19.64A22 22 0 1 0 439 125l-34 19.63a89.7 89.7 0 0 1-3.42-26.15A22 22 0 0 0 380 96h-.41a22 22 0 0 0-22 21.59 133.6 133.6 0 0 0 8.5 49.41L278 217.89V116.18a133.5 133.5 0 0 0 47.07-17.33 22 22 0 0 0-22.71-37.69A89.6 89.6 0 0 1 278 71.27V38a22 22 0 0 0-44 0v33.27a89.6 89.6 0 0 1-24.36-10.11 22 22 0 1 0-22.71 37.69A133.5 133.5 0 0 0 234 116.18v101.71L145.91 167a133.6 133.6 0 0 0 8.52-49.43 22 22 0 0 0-22-21.59H132a22 22 0 0 0-21.59 22.41 89.7 89.7 0 0 1-3.41 26.19L73 125a22 22 0 1 0-22 38.1l34 19.64a89.7 89.7 0 0 1-20.94 16 22 22 0 1 0 21.28 38.51 133.6 133.6 0 0 0 38.55-32.1L212 256l-88.09 50.86a133.6 133.6 0 0 0-38.55-32.1 22 22 0 1 0-21.28 38.51 89.7 89.7 0 0 1 20.94 16L51 349a22 22 0 1 0 22 38.1l34-19.63a89.7 89.7 0 0 1 3.42 26.15A22 22 0 0 0 132 416h.41a22 22 0 0 0 22-21.59 133.6 133.6 0 0 0-8.5-49.41L234 294.11v101.71a133.5 133.5 0 0 0-47.07 17.33 22 22 0 1 0 22.71 37.69A89.6 89.6 0 0 1 234 440.73V474a22 22 0 0 0 44 0v-33.27a89.6 89.6 0 0 1 24.36 10.11 22 22 0 0 0 22.71-37.69A133.5 133.5 0 0 0 278 395.82V294.11L366.09 345a133.6 133.6 0 0 0-8.52 49.43 22 22 0 0 0 22 21.59h.43a22 22 0 0 0 21.59-22.41 89.7 89.7 0 0 1 3.41-26.19l34 19.63A22 22 0 1 0 461 349"/></svg>