<svg xmlns="http://www.w3.org/2000/svg" x="0px" y="0px"
	 width="52px" height="52px" viewBox="0 0 52 52" enable-background="new 0 0 52 52" xml:space="preserve">
<path fill="#FFFFFF" d="M49.1,7.7c-0.3-0.3-0.6-0.4-1-0.4l0,0c-3.8-0.2-7.7,0.1-11.5,0.2L23.1,7.5c-4.1,0-7.4,0.9-10.5,3.7
	c-2,1.8-3.9,4.4-5.4,6.7C7.1,18.2,7,18.4,7,18.8c0,0.8,0.7,1.5,1.5,1.5c0.9,0,1.1-0.6,1.5-1.2c0.4-0.7,0.9-1.3,1.5-1.8
	c2.1-1.9,4.9-3,7.7-2.7c-2.4,6.6-5.7,14.2-10.5,19.4c-2,2.2-5.4,4.4-6.1,7.4c-0.8,3.1,2.4,3.9,4.7,3c3-1.2,4.9-4.3,6.4-7
	c1.9-3.3,3.6-6.8,5-10.3c1.5-3.5,2.9-6.9,4.4-10.4c0.9-2.1,1.1-2.1,3.3-2.1h5.9c-2.2,4.8-4.3,9.7-6.2,14.6
	c-1.5,3.7-4.2,9.2-2.3,13.2c1.9,4,7.2,2.5,10.1,0.5c2.9-2.1,4.9-5.4,6.5-8.6c0.3-0.6,0.6-1.2,0.4-1.9c-0.2-0.6-0.8-0.9-1.4-0.9
	c-1.4,0-1.6,1.6-2.1,2.6c-0.8,1.7-2.6,3.2-4.5,2.9c-4.4-0.6-0.5-8.6,0.3-10.7c0.8-2.2,1.7-4.4,2.7-6.5c0.5-1.2,1-2.5,1.7-3.7
	c0.8-1.5,0.8-1.5,2.6-1.6c1.5-0.1,5.9,0.7,7.2-0.1c1.1-0.7,1.7-3.3,2.2-5.2l0,0C49.6,8.6,49.4,8.1,49.1,7.7z"/>
</svg>
