<svg xmlns="http://www.w3.org/2000/svg" width="52" height="52" viewBox="0 0 52 52"><path d="M31.81,27.92a5.86,5.86,0,1,0-5.87,5.86A5.86,5.86,0,0,0,31.81,27.92Z" fill="#fff"/><path d="M26,19.89a8,8,0,0,1,3,.57l8-14.14A24,24,0,0,0,15,6.36l8,14.1A7.78,7.78,0,0,1,26,19.89Z" fill="#fff"/><path d="M18,29H2A24.06,24.06,0,0,0,13.26,48.1l7.81-13.79a9,9,0,0,1-.8-.71A8,8,0,0,1,18,29Z" fill="#fff"/><path d="M31.64,33.6a8.82,8.82,0,0,1-.81.7l7.83,13.84A24.05,24.05,0,0,0,50,29H33.91A8.08,8.08,0,0,1,31.64,33.6Z" fill="#fff"/></svg>