<svg xmlns="http://www.w3.org/2000/svg" width="52" height="52" viewBox="0 0 52 52"><path d="M34.87,27.18l-6.79,3.39c-2.04,1.02-3.69,2.67-4.71,4.71l-3.39,6.79c-.48,.97-1.87,.97-2.35,0l-3.39-6.79c-1.02-2.04-2.67-3.69-4.71-4.71l-6.79-3.39c-.97-.48-.97-1.87,0-2.35l6.79-3.39c2.04-1.02,3.69-2.67,4.71-4.71l3.39-6.79c.48-.97,1.87-.97,2.35,0l3.39,6.79c1.02,2.04,2.67,3.69,4.71,4.71l6.79,3.39c.97,.48,.97,1.87,0,2.35Zm14.81,15.1l-2.91-1.46c-.88-.43-1.58-1.15-2.02-2.02l-1.46-2.91c-.2-.42-.8-.42-1.01,0l-1.46,2.91c-.43,.88-1.15,1.58-2.02,2.02l-2.91,1.46c-.42,.2-.42,.8,0,1.01l2.91,1.46c.88,.43,1.58,1.15,2.02,2.02l1.46,2.91c.2,.42,.8,.42,1.01,0l1.46-2.91c.43-.88,1.15-1.58,2.02-2.02l2.91-1.46c.42-.2,.42-.8,0-1.01Zm0-33.59l-2.91-1.46c-.88-.43-1.58-1.15-2.02-2.02l-1.46-2.91c-.2-.42-.8-.42-1.01,0l-1.46,2.91c-.43,.88-1.15,1.58-2.02,2.02l-2.91,1.46c-.42,.2-.42,.8,0,1.01l2.91,1.46c.88,.43,1.58,1.15,2.02,2.02l1.46,2.91c.2,.42,.8,.42,1.01,0l1.46-2.91c.43-.88,1.15-1.58,2.02-2.02l2.91-1.46c.42-.2,.42-.8,0-1.01Z" fill="#fff"/></svg>