<svg xmlns="http://www.w3.org/2000/svg" viewBox="0 0 512 512" class="ionicon"><path d="M421.83 293.82A144 144 0 0 0 218.18 90.17" stroke-miterlimit="10" class="ionicon-fill-none ionicon-stroke-width"/><path d="M353.94 225.94a48 48 0 0 0-67.88-67.88" stroke-miterlimit="10" class="ionicon-fill-none ionicon-stroke-width"/><path d="M192 464v-48M90.18 421.82l33.94-33.94M48 320h48" stroke-linecap="round" stroke-miterlimit="10" class="ionicon-stroke-width"/><path d="M286.06 158.06 172.92 271.19a32 32 0 0 1-45.25 0L105 248.57a32 32 0 0 1 0-45.26L218.18 90.17M421.83 293.82 308.69 407a32 32 0 0 1-45.26 0l-22.62-22.63a32 32 0 0 1 0-45.26l113.13-113.17M139.6 169.98l67.88 67.89M275.36 305.75l67.89 67.88" stroke-linejoin="round" class="ionicon-fill-none ionicon-stroke-width"/></svg>