<svg xmlns="http://www.w3.org/2000/svg" viewBox="0 0 512 512" class="ionicon"><path d="m56 320 156.05 12-23 89.4c-6.08 26.6.7 41.87 22.39 48.62l34.69 9.85a4 4 0 0 0 4.4-1.72l129-202.34a8 8 0 0 1 6.81-3.81H496V64H378.39a48 48 0 0 1-15.18-2.46l-76.3-25.43a80 80 0 0 0-25.3-4.11H83.68c-19 0-31.5 13.52-35.23 32.16L16 206.42V280c0 22.06 18 38 40 40"/><path d="M378.45 273.93A15.84 15.84 0 0 1 386 272a15.9 15.9 0 0 0-7.51 1.91ZM337.86 343.22l-.13.22a3 3 0 0 1 .13-.22c20.5-35.51 30.36-55 33.82-62-3.47 7.06-13.34 26.51-33.82 62" class="ionicon-fill-none"/><path d="m372.66 279.16-1 2a16.3 16.3 0 0 1 6.77-7.26 16.5 16.5 0 0 0-5.77 5.26"/></svg>