<svg xmlns="http://www.w3.org/2000/svg" width="24" height="24" viewBox="0 0 24 24"><path d="M17,14a5,5,0,0,0,2.71-.81L20,13a3.16,3.16,0,0,0,.45-.37l.21-.2a4.48,4.48,0,0,0,.48-.58l.06-.08a4.28,4.28,0,0,0,.41-.76,1.57,1.57,0,0,0,.09-.23,4.21,4.21,0,0,0,.2-.63l.06-.25A5.5,5.5,0,0,0,22,9V2s-2,0-2.5,3h-5C14,2,12,2,12,2V9A5,5,0,0,0,17,14Zm2-7a1,1,0,1,1-1,1A1,1,0,0,1,19,7ZM15,7a1,1,0,1,1-1,1A1,1,0,0,1,15,7Z"/><path d="M17,15a6,6,0,0,1-5.91-5H6C4.18,10,4,8.84,4,8.51S4.19,7,6,7a3.89,3.89,0,0,0,4-4A1,1,0,0,0,9,2H9A1,1,0,0,0,8,3,1.89,1.89,0,0,1,6,5,3.65,3.65,0,0,0,2,8.5a3.59,3.59,0,0,0,.52,1.76A3.49,3.49,0,0,0,5,11.9v8.6A1.5,1.5,0,0,0,6.5,22h0A1.5,1.5,0,0,0,8,20.5V17h3v3.5a1.5,1.5,0,0,0,3,0V17h2v3.5A1.5,1.5,0,0,0,17.5,22h0A1.5,1.5,0,0,0,19,20.5V14.65A6,6,0,0,1,17,15Z"/></svg>