<svg xmlns="http://www.w3.org/2000/svg" viewBox="0 0 64 64" enable-background="new 0 0 64 64"><path fill="#c94747" d="M32,2C18.938,2,7.833,10.349,3.713,22h56.572C56.166,10.349,45.061,2,32,2z"/><path fill="#699635" d="m32 62c13.06 0 24.17-8.35 28.28-20h-56.57c4.12 11.65 15.225 20 28.29 20"/><path fill="#ffce31" d="M3.713,22C2.607,25.128,2,28.492,2,32c0,3.508,0.608,6.872,1.714,10h56.572C61.392,38.871,62,35.508,62,32
			c0-3.508-0.608-6.871-1.715-10H3.713z"/><path fill="#3e4347" d="m32 37.31l6.18 4.69-2.333-7.63 6.153-4.87h-7.623l-2.377-7.5-2.309 7.5h-7.691l6.15 4.87-2.332 7.63z"/></svg>