<svg xmlns="http://www.w3.org/2000/svg" viewBox="0 0 64 64" enable-background="new 0 0 64 64"><path fill="#f9f9f9" d="M2,32c0,5.885,1.701,11.368,4.628,16h50.744C60.299,43.368,62,37.885,62,32s-1.701-11.368-4.628-16H6.628
		C3.701,20.632,2,26.115,2,32z"/><path fill="#c94747" d="M57.372,16C52.057,7.59,42.684,2,32,2S11.943,7.59,6.628,16H57.372z"/><path fill="#699635" d="M6.628,48C11.943,56.41,21.316,62,32,62s20.057-5.59,25.372-14H6.628z"/><g fill="#ffce31"><path d="m38.28 36.409c-.567.513-1.296.827-2.07.896-1.914.165-3.605-1.197-3.777-3.041v-2.649c.02-.609.547-1.088 1.179-1.069.396.012.756.218.955.547.47-1.363-.298-2.838-1.714-3.289-1.416-.453-2.945.286-3.415 1.651-.184.532-.184 1.106 0 1.638.318-.524 1.019-.704 1.565-.398.342.192.557.539.568.921v2.649c-.172 1.844-1.863 3.206-3.777 3.041-.774-.068-1.503-.383-2.07-.896-.739 1.789-2.843 2.661-4.699 1.948-.273-.105-.532-.241-.771-.406.335 3.215 5.335 2.558 5.708-.567 1.57 2.657 5.02 1.896 6.04-1.356h.01c1.012 3.253 4.466 4.01 6.04 1.356.373 3.125 5.373 3.782 5.708.567-.239.165-.498.301-.771.406-1.858.712-3.961-.16-4.701-1.949m-8.229-6.469c.12-.842.809-1.505 1.684-1.621 1.077-.142 2.07.584 2.219 1.621-.771-.151-1.557.188-1.951.844-.396-.655-1.181-.995-1.952-.844"/><path d="m28.23 39.972c-.001 0-.354-.204-1.089-.112-.105-.457-.522-.852-.82-1.049-.284.303-.486.861-.388 1.265-.525.093-1.016.426-1.016.426 1.221 1.17 2.615.922 3.313-.53"/><path d="m33.688 39.808c0 0-.313-.258-1.055-.282-.026-.468-.371-.922-.632-1.162-.332.252-.626.772-.597 1.186-.534.009-1.074.261-1.074.261 1.01 1.346 2.425 1.319 3.358-.003"/><path d="m37.682 38.812c-.37.198-.748.665-.789 1.076-.527-.074-1.104.09-1.104.09.765 1.487 2.168 1.683 3.313.523 0 0-.267-.302-.993-.444.053-.465-.211-.967-.427-1.245"/><path d="m22.872 42.42l.487 1.58c5.653-1.621 11.629-1.621 17.281 0l.487-1.58c-5.971-1.712-12.283-1.712-18.255 0"/><path d="m31.17 22.467l-.516 1.523 1.346-.94 1.35.94-.518-1.523 1.348-.944h-1.666l-.514-1.523-.514 1.523h-1.664z"/><path d="m24.757 24.12l-.517 1.526 1.349-.942 1.346.942-.514-1.526 1.346-.94h-1.667l-.511-1.525-.519 1.525h-1.659z"/><path d="m20.06 28.645l-.51 1.525 1.346-.94 1.344.94-.512-1.525 1.342-.944h-1.661l-.513-1.521-.515 1.521h-1.663z"/><path d="m19.18 35.404l1.343.946-.513-1.528 1.345-.942h-1.664l-.511-1.526-.516 1.526h-1.664l1.346.942-.514 1.528z"/><path d="m37.579 24.12l-.519 1.526 1.35-.942 1.347.942-.517-1.526 1.349-.94h-1.663l-.516-1.525-.513 1.525h-1.667z"/><path d="m42.27 28.645l-.511 1.525 1.341-.94 1.35.94-.513-1.525 1.343-.944h-1.662l-.518-1.521-.509 1.521h-1.664z"/><path d="m45.654 34.822l1.346-.942h-1.66l-.518-1.526-.512 1.526h-1.665l1.345.942-.513 1.528 1.345-.946 1.348.946z"/></g></svg>