<svg xmlns="http://www.w3.org/2000/svg" viewBox="0 0 64 64" enable-background="new 0 0 64 64"><path fill="#2a5f9e" d="m12 12h20.625v20.625h-20.625z"/><path fill="#fff" d="m18.912 8.14v5.86h-7.312l14.4 18h6v-7.5z"/><path fill="#2a5f9e" d="M32,2v30H2c0,16.568,13.432,30,30,30s30-13.432,30-30S48.568,2,32,2z"/><path fill="#fff" d="M11,18.913H5.011C3.088,22.869,2,27.306,2,32h12V13.913h-3V18.913z"/><path fill="#ed4c5c" d="m32 27.06l-13-16.06h-6l17 21h2z"/><path fill="#fff" d="M18.912,5.011V11H11v3h21V2C27.306,2,22.868,3.089,18.912,5.011z"/><path fill="#ed4c5c" d="M32,5H18.912C12.857,7.94,7.94,12.857,5,18.913V32h6V11h21V5z"/><path fill="#fff" d="m37.93 28.475v11.689c0 1.174 1.036 1.686 2.125 2.125l4.251 1.682 4.25-1.682c1.089-.439 2.125-.951 2.125-2.125v-11.689h-12.751"/><path fill="#42ade2" d="m50.681 36.977c0 0-1.343-.893-3.188-.893-1.846 0-2.134.893-3.188.893-1.282 0-1.344-.893-3.188-.893s-3.188.893-3.188.893v-1.785c0 0 1.343-.895 3.188-.895s1.906.895 3.188.895c1.054 0 1.342-.895 3.188-.895 1.845 0 3.188.895 3.188.895v1.785"/><path fill="#ed4c5c" d="m37.93 27.413v6.04c0 0 1.343-1.512 3.188-1.512s1.906 1.512 3.188 1.512c1.054 0 1.342-1.512 3.188-1.512 1.845 0 3.188 1.512 3.188 1.512v-6.04h-12.752"/><g fill="#42ade2"><path d="m50.681 40.16c0 0-1.343-.834-3.188-.834-1.846 0-2.134.834-3.188.834-1.282 0-1.344-.834-3.188-.834s-3.188.834-3.188.834v-1.668c0 0 1.343-.834 3.188-.834s1.906.834 3.188.834c1.054 0 1.342-.834 3.188-.834 1.845 0 3.188.834 3.188.834v1.668"/><path d="m41.12 41.23c-.889 0-1.655.248-2.218.504.343.217.744.393 1.155.559l4.251 1.682 4.25-1.682c.41-.166.812-.342 1.156-.559-.563-.256-1.331-.504-2.219-.504-1.846 0-2.134 1.063-3.188 1.063-1.281-.001-1.342-1.063-3.187-1.063"/></g><g fill="#ed4c5c"><path d="m34.803 46.48l-1.123-2.314c1.048-.715 2.219-1.307 3.479-1.76l.65 2.555c-1.096.394-2.108.904-3.01 1.519"/><path d="m53.794 46.539c-.914-.633-1.945-1.16-3.067-1.566l.655-2.555c1.29.467 2.484 1.078 3.549 1.818l-1.137 2.303"/></g><g fill="#83bf4f"><path d="m44.31 40.23l1.309 1-.499-1.625 1.31-1-1.619-.006-.501-1.617-.51 1.617-1.62.006 1.307 1-.496 1.625z"/><path d="m41.12 35.979l1.31.998-.495-1.627 1.305-1-1.617-.01-.503-1.614-.508 1.614-1.619.01 1.307 1-.496 1.627z"/><path d="m47.49 35.979l1.317.998-.497-1.627 1.308-1-1.62-.01-.508-1.614-.503 1.614-1.617.01 1.305 1-.495 1.627z"/></g><g fill="#ffe62e"><path d="m44.27 47.746c-2.775 0-5.442-1.211-7.506-3.406l1.501-1.988c1.651 1.756 3.783 2.725 6.01 2.725 2.249 0 4.402-.988 6.06-2.787l1.515 1.973c-2.076 2.247-4.768 3.483-7.578 3.483"/><path d="m35.865 48.609l-1.123-2.314c1.048-.715 2.218-1.307 3.48-1.76l.649 2.555c-1.095.394-2.107.904-3.01 1.519"/><path d="m52.73 48.664c-.913-.635-1.943-1.16-3.065-1.566l.655-2.553c1.288.465 2.483 1.076 3.548 1.816l-1.138 2.303"/><path d="m49.551 30.05c-.048-.127-.081-.176-.254-.12-.421.139-1.575.06-1.942-.178.552.214 1.256-.239 1.256-.614 0-.417-.546-.759-1.65-.533-1.105.226-2.452.13-2.452-.214 0-.346.966-.395 1.461-.322.495.071.851.12 1.778-.192-.229.083-.966.107-1.55-.047-.583-.154-2.02-.154-2.032.573-.013.728 1.528.662 2.858.477.774-.107 1.181-.035 1.181.204 0 .226-.71.322-1.257.262-.547-.059-1.111-.067-1.753.132-1.157.36-2.488.095-2.837-.427.024-.053.042-.119.042-.225 0-.003 0-.006 0-.009.082-.08.16-.232.194-.343.078-.26-.029-.268-.346-.149-.111-.102-.294-.164-.603-.164s-.493.062-.602.165c-.321-.12-.428-.112-.349.148.033.112.114.269.197.346 0 .003 0 .005 0 .006.002.401.467.993.457 1.015-.604-.051-1.401-1.128-1.545-1.566-.063-.2-.312-.325-.449-.278-.12.042-.165.139-.062.213.104.073.235.084.264.27-.135-.153-.334-.207-.432-.113-.058.058-.034.191.092.203.184.019.087.171.229.333-.181-.159-.335-.165-.434-.058-.067.071 0 .197.142.184.206-.02.862.895 2.462 1.732-.022.117-.279.095-.48.103-.375.015-.875-.039-1.137-.317-.231-.248-.541-.446-.787-.261-.127.094-.005.217.096.183.099-.035.217.034.322.078-.17-.068-.355-.015-.43.046-.099.083.023.246.144.188.097-.044.291-.075.418.035-.138-.026-.28-.02-.35.049-.068.069-.015.171.134.164.237-.009 1.943 1.01 3.335-.166.202.006 1.617-.043 2.166-.361.365.393.424.349.743.408.331.059.533.059.313.233-.075.061-.394.032-.643.042-.553.021-.807-.361-.97-.162-.124.151-.017.224.214.229-.178 0-.373.009-.335.157.073.281.358-.052.468.062-.093-.021-.242.035-.248.119-.005.085.212.195.45.017.131-.098.292-.135.396-.135.39.002 1.268.189 1.556-.112.112-.117-.031-.215-.146-.322-.109-.104-.137-.247-.115-.483.327.054.75.064 1.343-.036.705-.121.927.101.927.405 0 .21-.132.228-.229.234-.394.022-.562-.139-.717-.086-.104.034-.168.193-.018.248-.123.06-.108.171-.045.212.064.042.227.004.339-.044-.144.061-.29.168-.207.284.052.069.182.127.303-.021.12-.148.347-.24.483-.253.591-.059.856-.893.643-1.448"/><path d="m48.51 20.616l-2.313.04 2.042-1.978-2.451 1.025.606-2.907-1.671 2.295-.894-2.505-.247 2.737-1.712-1.923.944 3.104-1.822-.126c0 0 1.828 1.278 2.186 1.722h2.75c.68-.807 2.582-1.484 2.582-1.484"/></g><g fill="#83bf4f"><path d="m41.12 23.16c0 .586-1.537 1.063-2.124 1.063-.588 0-1.063-.477-1.063-1.063 0-.586.476-1.063 1.063-1.063.587 0 2.124.477 2.124 1.063"/><ellipse cx="41.12" cy="26.351" rx=".531" ry="1.063"/><ellipse cx="45.37" cy="26.351" rx=".531" ry="1.063"/><ellipse cx="47.49" cy="26.351" rx=".531" ry="1.063"/><path d="m48.556 23.754c0 2.251-1.903 2.422-4.25 2.422-2.348 0-4.251-.171-4.251-2.422 0-1.424 1.903-2.716 4.251-2.716 2.346 0 4.25 1.062 4.25 2.716"/></g></svg>