<svg xmlns="http://www.w3.org/2000/svg" viewBox="0 0 64 64" enable-background="new 0 0 64 64"><path fill="#ed4c5c" d="M33,32L11.299,53.701C16.683,58.838,23.97,62,32,62c16.568,0,30-13.432,30-30H33z"/><path fill="#428bc1" d="M62,32C62,15.432,48.568,2,32,2c-8.03,0-15.317,3.161-20.701,8.299L33,32H62z"/><path fill="#f9f9f9" d="M11.299,10.299C5.573,15.762,2,23.461,2,32c0,8.539,3.573,16.238,9.299,21.701L33,32L11.299,10.299z"/><g fill="#ffce31"><path d="m12.992 13.61l-.762 1.42 1.096 1.07-1.548-.215-.738 1.428-.198-1.553-1.553-.196 1.428-.74-.219-1.548 1.077 1.095z"/><path d="m13.231 48l-1.101 1.17.779 1.33-1.439-.617-1.084 1.187.213-1.55-1.45-.59 1.571-.346.189-1.554.757 1.34z"/><path d="m30.499 32l-1.54.464.013 1.536-.942-1.25-1.531.49.96-1.24-.96-1.236 1.531.486.942-1.25-.013 1.537z"/><path d="m23.69 30.481l-.596-.433-6.548 1.425.06-.049 6.133-1.634-.711-.517-5.233 1.993 4.316-3.605-.086-.883-4.459 4.575-.072.027 4.489-5.05-.072-.74-.73.058-4.113 5.367.014-.078 3.665-5.257-.873.07-2.747 4.942 1.024-5.58-.625-.62-.52 6.416-.037.069.246-6.796-.524-.521-.524.52.246 6.796-.037-.068-.521-6.416-.624.62 1.024 5.581-2.748-4.943-.871-.069 3.663 5.256.014.076-4.113-5.365-.731-.059-.072.741 4.489 5.04-.07-.026-4.461-4.576-.086.883 4.317 3.605-5.233-1.993-.711.517 6.133 1.634.059.05-6.548-1.425-.596.433.414.614 6.633.933-.073.027-6.313-.594.494.732 5.589-.056-5.271 1.89-.217.859 5.733-2.75h.076l-5.918 3.181-.184.721.707.201 5.672-3.615-.039.068-5.211 3.664.841.24 4.247-3.691-2.842 4.888.378.799 2.648-5.847.061-.053-2.521 6.3.316.672.667-.309 2.06-6.468.011.078-1.671 6.209.795-.367.917-5.598.918 5.598.795.365-1.672-6.207.012-.078 2.06 6.469.667.309.317-.67-2.521-6.302.061.053 2.648 5.847.378-.799-2.842-4.887 4.247 3.69.84-.24-5.21-3.664-.04-.068 5.672 3.615.708-.201-.184-.721-5.919-3.181h.077l5.733 2.75-.217-.859-5.271-1.89 5.588.055.493-.731-6.312.595-.074-.027 6.634-.934.415-.615m-8.822 1.594l-.051-.005.046-.022.045.005-.04.022m.09-.575l-.036-.037.049.013.031.034-.044-.01m.204 1.074l-.043.03.021-.048.039-.024-.017.042m.23-1.455l-.005-.052.03.042v.044l-.026-.034m.297 1.696l-.013-.052.013-.043.014.042-.014.053m.3-1.694l-.026.034v-.046l.031-.042-.005.054m.228 1.454l-.016-.043.038.024.021.049-.043-.03m.206-1.074l-.045.01.03-.035.052-.013-.037.038m.089.574l-.04-.021.045-.006.047.022-.052.005"/><circle cx="15.69" cy="32" r="4.5"/></g></svg>