<svg xmlns="http://www.w3.org/2000/svg" viewBox="0 0 64 64" enable-background="new 0 0 64 64"><path fill="#ed4c5c" d="m17.628 39c6.852 0 6.852-1.988 13.702-1.988s6.85 1.988 13.698 1.988c6.847 0 6.847-1.988 13.693-1.988 1.105 0 2.024.054 2.827.142.292-1.678.452-3.398.452-5.158 0-16.568-13.432-30-30-30s-30 13.432-30 30c0 1.724.153 3.411.433 5.05.465-.022.953-.039 1.498-.039 6.848 0 6.848 1.988 13.697 1.988"/><g fill="#ffce31"><path d="m44.3 33l3.7-1.67-3.97-.873 3.27-2.407-4.06-.03 2.693-3.02-3.982.811 2-3.518-3.725 1.617 1.225-3.86-3.305 2.356.393-4.02-2.742 2.984-.461-4.02-2.06 3.486-1.28-3.836-1.285 3.836-2.061-3.486-.454 4.02-2.744-2.984.394 4.03-3.307-2.348 1.227 3.85-3.73-1.615 2.01 3.516-3.98-.811 2.693 3.02-4.064.04 3.269 2.397-3.968.873 3.7 1.67-3.7 1.672 3.969.871-3.27 2.4 4.064.034-2.693 3.02 6.228-1.268-1.534-2.642-.654-2-.221-2.09.221-2.088.653-2 1.055-1.822 1.412-1.561 1.713-1.236 1.93-.855 2.07-.438h2.107l2.07.434 1.93.855 1.709 1.232 1.411 1.559 1.06 1.824.659 1.998.221 2.09-.217 2.088-.653 2-1.535 2.652 6.229 1.266-2.694-3.02 4.06-.032-3.27-2.4 3.97-.871z"/><circle cx="32" cy="33" r="12"/></g><path fill="#f27a52" d="m32 43c-5.514 0-10-4.486-10-10s4.486-10 10-10 10 4.486 10 10-4.486 10-10 10m0-18c-4.411 0-8 3.588-8 8 0 4.41 3.589 8 8 8s8-3.59 8-8c0-4.412-3.589-8-8-8"/><path fill="#ffce31" d="m43.1 9.287c-1.537 1.051-1.393 1.438-7.273 1.438-2.116 0-3.241.344-3.826.783-.585-.439-1.71-.783-3.826-.783-5.881 0-5.736-.387-7.273-1.438-2.041-1.398-.682 2.758 4.797 2.758 2.303 0 4.142.43 5.299.799-3.391.162-5.998 1.064-5.998 1.064s3.134 1.092 7 1.092 7-1.092 7-1.092-2.607-.902-5.996-1.064c1.157-.369 2.996-.799 5.299-.799 5.478 0 6.838-4.156 4.797-2.758"/><g fill="#428bc1"><path d="m31.3 48.994c-6.848 0-6.848 1.99-13.694 1.99-5.403 0-6.557-1.234-10.162-1.757 1.318 1.875 2.842 3.594 4.544 5.119 1.387.361 3 .657 5.638.657 6.852 0 6.852-1.988 13.702-1.988s6.85 1.988 13.698 1.988c3.894 0 5.577-.641 7.562-1.196 1.517-1.433 2.885-3.02 4.077-4.74-4.884.352-5.579 1.917-11.667 1.917-6.85 0-6.85-1.99-13.698-1.99"/><path d="m31.3 56.994c-6.406 0-6.847 1.734-12.481 1.959 3.978 1.949 8.449 3.047 13.178 3.047 4.706 0 9.158-1.086 13.12-3.02-.041.001-.078.002-.121.002-6.849 0-6.849-1.99-13.697-1.99"/><path d="m58.703 40.994c-6.852 0-6.852 1.99-13.703 1.99-6.849 0-6.849-1.99-13.697-1.99-6.848 0-6.848 1.99-13.694 1.99-6.849 0-6.849-1.99-13.699-1.99-.185 0-.36.003-.535.007.438 1.394.974 2.743 1.602 4.04 5.794.196 6.181 1.962 12.651 1.962 6.852 0 6.852-1.988 13.702-1.988s6.85 1.988 13.698 1.988c6.847 0 6.847-1.988 13.693-1.988.11 0 .206.005.312.006.615-1.273 1.14-2.598 1.571-3.963-.571-.04-1.194-.065-1.901-.065"/></g><g fill="#fff"><path d="m17.609 42.984c6.846 0 6.846-1.99 13.694-1.99 6.849 0 6.849 1.99 13.697 1.99 6.852 0 6.852-1.99 13.703-1.99.707 0 1.33.024 1.901.064.401-1.266.714-2.569.944-3.901-.803-.088-1.722-.142-2.827-.142-6.847 0-6.847 1.988-13.693 1.988-6.849 0-6.849-1.988-13.698-1.988s-6.85 1.988-13.702 1.988c-6.849 0-6.849-1.988-13.698-1.988-.545 0-1.033.017-1.498.039.229 1.348.541 2.666.943 3.946.174-.004.35-.007.535-.007 6.85.001 6.85 1.991 13.699 1.991"/><path d="m45.03 47c-6.849 0-6.849-1.988-13.698-1.988s-6.85 1.988-13.702 1.988c-6.47 0-6.857-1.766-12.651-1.962.709 1.468 1.541 2.863 2.47 4.186 3.605.522 4.759 1.757 10.162 1.757 6.846 0 6.846-1.99 13.694-1.99 6.849 0 6.849 1.99 13.697 1.99 6.088 0 6.783-1.565 11.667-1.917.888-1.28 1.684-2.631 2.366-4.046-.105-.001-.201-.006-.312-.006-6.846 0-6.846 1.988-13.693 1.988"/><path d="m31.33 53.02c-6.85 0-6.85 1.988-13.702 1.988-2.634 0-4.25-.296-5.638-.657 2.044 1.832 4.34 3.387 6.831 4.606 5.635-.225 6.075-1.959 12.481-1.959 6.849 0 6.849 1.99 13.697 1.99.043 0 .08-.001.121-.002 2.754-1.341 5.266-3.095 7.469-5.175-1.984.556-3.668 1.196-7.562 1.196-6.847.001-6.847-1.987-13.697-1.987"/></g></svg>