<svg xmlns="http://www.w3.org/2000/svg" viewBox="0 0 64 64" enable-background="new 0 0 64 64"><path fill="#94989b" d="m40.03 23.969c4.766 4.766 12.337 5.01 17.394.737l-18.13-18.13c-4.272 5.057-4.03 12.628.737 17.394"/><path fill="#3e4347" d="m40.03 23.969c-1.61-1.61-2.703-3.543-3.28-5.589l-30.508 34.388 1.221 1.221-5.464 6.949 1.063 1.062 6.949-5.464 1.221 1.221 34.387-30.508c-2.046-.577-3.977-1.67-5.589-3.28"/><path fill="#94989b" d="m58.23 5.768c-4.766-4.766-12.337-5.01-17.394-.737l18.13 18.13c4.272-5.057 4.03-12.628-.738-17.393"/><path fill="#3e4347" d="m58.97 23.16l-18.13-18.13c-.276.233-.547.477-.808.737-.26.261-.504.531-.737.808l18.13 18.13c.276-.233.548-.477.808-.737.26-.261.503-.531.737-.808"/><path transform="matrix(.7072-.707.707.7072-19.499 29.406)" fill="#d0d0d0" d="m23.615 36.444h4.279v3.603h-4.279z"/><path transform="matrix(.707-.7072.7072.707-16.475 30.674)" fill="#94989b" d="m26.641 33.418h4.279v3.603h-4.279z"/><g fill="#42ade2"><path d="m57.678 37.33c-.649-3.567-4-4.252-4-4.252l-6.275 11.596c-.187-1.344-1.242-2.762-2.867-3.641-2.332-1.263-4.954-.936-5.856.73-.901 1.666.258 4.04 2.591 5.303s4.955.936 5.856-.73l5.01-9.252c.529-.008 1.319.309 2.405 1.554 2.273 2.603 5.358 2.899 5.358 2.899s-1.653-1.108-2.217-4.207"/><path d="m29.369 5.439c-2.982-4.395-7.881-3.325-7.881-3.325l-1.54 19.252c-1.045-1.688-3.299-2.963-5.996-3.179-3.873-.31-7.192 1.683-7.413 4.448-.222 2.767 2.738 5.261 6.611 5.57s7.192-1.683 7.414-4.448l1.229-15.361c.703-.324 1.949-.368 4.142.656 4.588 2.141 8.896.711 8.896.711s-2.871-.506-5.462-4.324"/></g></svg>