<svg xmlns="http://www.w3.org/2000/svg" viewBox="0 0 64 64" enable-background="new 0 0 64 64"><path fill="#333" d="M52.61,0h-41.22C8.97,0,7,1.839,7,4.1V59.9c0,2.261,1.97,4.1,4.391,4.1h41.22c2.421,0,4.391-1.839,4.391-4.1
	V4.1C57.001,1.839,55.031,0,52.61,0z"/><path fill="#b70000" d="M51.322,2H12.679C10.409,2,9,3.677,9,5.797V34l46,24.313V6C55,3.88,53.592,2,51.322,2z"/><circle fill="#fff" cx="24.955" cy="18.956" r="13.04"/><path fill="#333" d="m55.44 58.16h-46.875v-24.11c24.08 0 46.875 10.142 46.875 24.11"/></svg>