<svg xmlns="http://www.w3.org/2000/svg" viewBox="0 0 64 64" enable-background="new 0 0 64 64"><path fill="#e27c17" d="m28.954 31.404c.287.287.568.582.865.894.068.071.136.143.205.215-.024.039-.049.075-.073.109-.68 1.031-1.704 2.585-1.536 4.57.175 2.044.689 3.43 1.619 4.359.686.686 1.456.987 2.193 1.085-.09.038-.183.075-.283.117-1.776.73-4.21 1.729-5.078 4.541-.318 1.026-.516 2.166-.725 3.374-.411 2.381-.88 5.081-2.338 6.539-2.038 2.039-4.439 2.876-7.139 2.491-2.641-.376-5.461-1.946-7.938-4.425-2.478-2.477-4.049-5.294-4.424-7.938-.384-2.699.454-5.101 2.491-7.139 1.398-1.398 3.442-2.117 6.628-2.327 5.935-.394 7.286-3.851 8.181-6.138.698-1.789.934-2.393 2.67-2.525 1.933-.144 3.181.697 4.682 2.198m1.563-1.564c-1.644-1.644-3.484-3.059-6.413-2.836-6.662.505-2.294 8.093-10.829 8.662-3.051.2-5.948.871-8.04 2.969-5.33 5.329-3.628 12.642 1.933 18.204 5.56 5.56 12.875 7.262 18.203 1.934 2.778-2.777 2.685-7.816 3.614-10.826 1.2-3.89 7.464-2.574 7.177-6.902-.026-.407-.126-.665-.281-.819-.78-.78-2.963 1.076-4.277-.237-.479-.478-.843-1.38-.979-2.982-.208-2.438 2.782-4.222 1.691-5.314-.603-.602-1.185-1.243-1.794-1.853z"/><path fill="#ff9d27" d="m26.13 50.651c.208-1.206.406-2.347.724-3.375.867-2.811 3.301-3.809 5.079-4.539.098-.04.193-.079.281-.117-.737-.097-1.506-.399-2.191-1.085-.93-.93-1.444-2.315-1.62-4.359-.168-1.984.857-3.539 1.535-4.569.023-.035.048-.072.074-.111-.069-.073-.138-.144-.205-.214-.297-.313-.577-.607-.864-.894-1.502-1.501-2.749-2.342-4.684-2.195-1.735.131-1.971.733-2.669 2.524-.895 2.289-2.245 5.746-8.181 6.138-3.186.21-5.23.929-6.628 2.328-2.038 2.037-2.875 4.439-2.492 7.139.376 2.643 1.949 5.46 4.426 7.938 2.478 2.478 5.297 4.049 7.937 4.425 2.702.384 5.102-.454 7.141-2.491 1.457-1.46 1.924-4.16 2.337-6.543"/><g fill="#3e4347"><path transform="matrix(.7073.7069-.7069.7073 35.513-4.746)" d="m19.964 38.785h7.05v3.456h-7.05z"/><path transform="matrix(.707.7072-.7072.707 37.519.049)" d="m15.177 43.574h7.05v3.454h-7.05z"/><path transform="matrix(.707.7072-.7072.707 39.26 4.121)" d="m11.927 48.46h5.459v1.969h-5.459z"/><path d="m28.793 39.661l-4.452-4.451 25.499-24.07 3.02 3.02z"/><circle cx="22.566" cy="53.656" r="2.304"/><circle cx="17.07" cy="56.55" r="1.843"/><path d="m52.647 19.245c-.653.653-1.049 1.312-.463 1.9.589.589 1.25.192 1.902-.461.652-.652 1.049-1.312.46-1.9-.588-.587-1.246-.19-1.899.461"/><path transform="matrix(-.7071-.7071.7071-.7071 75.922 69.25)" d="m51.2 18.411h2.199v.976h-2.199z"/><path d="m56.09 15.803c-.651.653-1.049 1.313-.46 1.902.588.587 1.248.191 1.899-.462.65-.651 1.049-1.312.46-1.9-.587-.588-1.247-.191-1.899.46"/><path transform="matrix(-.7071-.7071.7071-.7071 84.23 65.805)" d="m54.644 14.969h2.199v.978h-2.199z"/><path d="m59.53 12.363c-.651.652-1.048 1.312-.459 1.9.588.587 1.246.192 1.899-.46.653-.654 1.048-1.313.461-1.9-.587-.59-1.248-.191-1.901.46"/><path transform="matrix(-.7071-.7071.7071-.7071 92.53 62.37)" d="m58.08 11.529h2.199v.978h-2.199z"/><path d="m44.756 11.354c-.652.652-1.31 1.049-1.899.46-.589-.589-.191-1.248.461-1.901.65-.653 1.312-1.048 1.899-.459.589.588.191 1.248-.461 1.9"/><path transform="matrix(.7062.708-.708.7062 21.533-28.494)" d="m44 11.211h2.199v.977h-2.199z"/><path d="m48.2 7.914c-.652.651-1.311 1.05-1.899.46-.589-.588-.192-1.247.461-1.9.651-.652 1.311-1.047 1.899-.46.588.588.192 1.247-.461 1.9"/><path transform="matrix(.7069.7073-.7073.7069 20.07-31.915)" d="m47.44 7.769h2.199v.977h-2.199z"/><path d="m51.637 4.472c-.65.653-1.309 1.051-1.898.461-.589-.588-.191-1.246.461-1.899.65-.652 1.313-1.051 1.901-.462.588.589.188 1.248-.464 1.9"/><path transform="matrix(.7071.7071-.7071.7071 18.632-35.35)" d="m50.883 4.329h2.2v.978h-2.2z"/><path d="m54.825 15.91c-5.375 5.378-6.896 6.808-10.218 3.484-3.323-3.322-1.893-4.842 3.485-10.219 7.198-7.199 7.146-9.294 11.586-4.853 4.439 4.44 2.346 4.388-4.853 11.588"/></g><g fill="#8a959b"><circle cx="53.775" cy="6.609" r="1.283"/><circle cx="50.32" cy="10.06" r="1.283"/><circle cx="46.864" cy="13.522" r="1.282"/><circle cx="57.4" cy="10.238" r="1.282"/><path d="m54.855 14.6c-.502.502-1.315.502-1.813 0-.5-.501-.503-1.312-.001-1.814.499-.499 1.313-.5 1.816 0 .498.501.498 1.313-.002 1.814"/><circle cx="50.49" cy="17.15" r="1.284"/></g></svg>