<svg xmlns="http://www.w3.org/2000/svg" viewBox="0 0 64 64" enable-background="new 0 0 64 64"><path fill="#3e4347" d="m48.548 34.15l4.713-2.81c1.647-1.191 4.402.006 6.15 2.678 1.746 2.67 1.827 5.801.18 6.994-.114.082-.233.153-.356.212l-4.356 2.595-6.331-9.669"/><path fill="#62696d" d="m49.09 41.03c1.747 2.668 4.137 3.979 5.784 2.786 1.649-1.191 1.567-4.322-.18-6.991-1.748-2.673-4.502-3.872-6.15-2.678-1.514 1.094-.702 4.978.546 6.883"/><path fill="#3e4347" d="m50.45 40.11c.929 1.42 2.075 2.078 2.951 1.445.878-.634.834-2.3-.096-3.719-.93-1.423-2.395-2.059-3.271-1.425-.877.634-.514 2.28.416 3.699"/><path fill="#b2c1c0" d="m51.25 37.967c.893-.452 2.078.783 1.481 1.701l-3.906 2.407-1.213-2.055 3.638-2.053"/><path fill="#9c2c1b" d="m47.652 33.391v5.372l-4.063-3.743z"/><path fill="#3e4347" d="m28.49 16.56l5.435-3.236c1.899-1.376 5.076.009 7.091 3.086 2.02 3.08 2.107 6.689.208 8.07-.133.093-.271.174-.411.243l-5.02 2.993-7.3-11.152"/><path fill="#62696d" d="m29.12 24.495c2.02 3.077 4.77 4.59 6.67 3.217 1.902-1.374 1.808-4.985-.208-8.07-2.02-3.08-5.189-4.462-7.091-3.087-1.745 1.263-.809 5.738.629 7.935"/><path fill="#9c2c1b" d="m51.07 48.858l-11.344-6.265-2.953 1.697-11.553-2.615-14.321-10.762v-5.114l14.321 10.04 11.553 4.137 2.953-2.088 11.344 9.214z"/><path fill="#d33b23" d="m55.26 44.36l-4.19 2.74-11.344-9.214-2.953 2.088-11.553-4.137-14.321-10.04 3.629-2.072 2.34.533 8.282-4.531-.06-1.134 3.297-1.983 14.883 9.841 4.382 6.938-3.048 1.493z"/><path fill="#f15744" d="m15.607 15.759v4.441l10.623 5.083 4.649-2.233-12.352-4.787v-2.504z"/><path fill="#9c2c1b" d="m30.879 26.86v-3.81l-4.649 2.233-10.623-5.083v-4.441h-.612v4.809l11.235 8.416z"/><path fill="#f15744" d="m43.27 26.453l4.382 6.938-10.879 6.583-11.553-4.137z"/><g fill="#ffe62e"><path d="m43.27 26.453l4.382 6.938-1.172.709-4.46-7z"/><path d="m28.49 16.56l14.78 9.893-1.25.647-14.76-9.812z"/><path d="m27.542 34.63l10.878 4.349-1.647.994-11.553-4.137z"/><path d="m12.74 24.747l14.802 9.883-2.322 1.207-14.321-10.04z"/></g><path fill="#9c2c1b" d="m26.23 28.984c-.309 2.115 2.885 4.754 6.02 5.217 5.445.806 7.903-2.346 6.33-5.479-1.454-2.897-7.521-2.274-7.521-2.274l-4.83 2.536"/><path fill="#3e4347" d="m4.997 29.92l6.155-3.666c2.152-1.56 5.752.008 8.03 3.496 2.283 3.487 2.389 7.574.236 9.134-.15.109-.306.199-.465.276l-5.689 3.389-8.27-12.629"/><path fill="#62696d" d="m5.709 38.908c2.283 3.486 5.404 5.199 7.559 3.641 2.152-1.554 2.046-5.644-.237-9.133-2.283-3.488-5.88-5.057-8.03-3.496-1.977 1.43-.916 6.5.711 8.988"/><path fill="#3e4347" d="m7.475 37.706c1.215 1.855 2.713 2.718 3.857 1.889 1.145-.828 1.088-3-.125-4.858-1.216-1.857-3.129-2.688-4.274-1.86-1.145.826-.673 2.973.542 4.829"/><path fill="#b2c1c0" d="m43.543 42.45c.893-.453 2.078.783 1.481 1.699l-3.906 2.406-1.213-2.053 3.638-2.052"/><path fill="#3e4347" d="m31.488 43.34l5.434-3.236c1.899-1.377 5.075.007 7.092 3.089 2.01 3.077 2.106 6.686.207 8.06-.133.095-.271.175-.411.242l-5.02 2.993-7.299-11.151"/><path fill="#62696d" d="m32.12 51.27c2.02 3.077 4.771 4.59 6.671 3.214 1.901-1.374 1.808-4.982-.208-8.06-2.02-3.079-5.189-4.46-7.09-3.086-1.746 1.262-.809 5.739.627 7.936"/><path fill="#3e4347" d="m33.673 50.22c1.072 1.638 2.395 2.397 3.405 1.666 1.012-.731.962-2.651-.11-4.289-1.073-1.64-2.76-2.372-3.771-1.642-1.012.73-.594 2.624.476 4.265"/><path fill="#d33b23" d="M22.72 9 26.696 12.628 8.138 22.422 2 16.758z"/><path fill="#42ade2" d="m27.602 28.697c0 3.01 3.556 4.516 6.415 4.516 2.86 0 3.942-1.51 3.942-4.516 0-3.01-2.319-5.443-5.18-5.443-2.859 0-5.177 2.436-5.177 5.443"/><path fill="#3e4347" d="m30.692 28.626c.121-1.08 3.922-1.052 6.801-1.261.907-.064.805 3.349-.033 3.41-4.533.327-6.889-1.067-6.768-2.149"/><path fill="#f15744" d="m60.05 40.895l1.95 4.385-13.1 8.78-5.902-2.65 11.847-7.33z"/><g fill="#ffe62e"><path d="m4.796 15.711l6.404 5.095 1.783-.941-5.744-5.069z"/><path d="m19.15 10.335l4.365 3.973 1.318-.697-4.02-3.897z"/><path d="m57.18 42.65l2.21 4.38 1.1-.74-2.02-4.427z"/><path d="m45.62 49.786l4.89 3.193 1.132-.759-4.688-3.258z"/></g></svg>