<svg xmlns="http://www.w3.org/2000/svg" viewBox="0 0 64 64" enable-background="new 0 0 64 64"><g fill="#ffecd6"><path d="m11.382 4.317c-9.635-6.739-11.654 2.68-6.952 9.693 4.555-2.353 5.809-7.217 6.952-9.693"/><path d="m11.325 22.257c3.069-4.055 6.179-9.331 7.921-14.685-1.871-2.133-4.701-3.313-6.674-2.694-.743 2.771-2.452 4.754-4.324 6.871-1.127 1.275-2.026 2.732-3.172 3.881-1.783 3.462-.453 9.635 1.641 11.439 1.629-1.37 3.176-2.918 4.608-4.812"/><path d="m38.61 54.41c3.616 0 23.04 2.535 23.04-5.59 0-18.718-2.379-34.36-25.562-34.36-2.653 7.177-4.327 6.559-1.583-.047-1.576-5.02-8.814-8.62-14.463-6.45-1.502 5.135-4.225 10.36-7.143 14.216-1.819 2.405-3.732 4.602-5.867 6.61.001 16.21 17.62 25.621 31.578 25.621"/></g><path fill="#ddb199" d="m12.976 4.779c0 0-1.051.083-1.953-.708-2.602 6.333-6.96 9.365-6.96 9.365 1.124 1.59.568 3.309.568 3.309 1.343-1.426 6.142-5.466 8.345-11.966"/><path fill="#29251c" d="m24.719 29.862c-1.819 1.99 33.804 32.31 33.804 29.3 0-3.436-.537-3.491-.621-5.279-.082-1.786 2.646-8.806-.371-13.04-1.281-1.798-6.282-8.642-7.521-10.544-1.241-1.902-10.334-4.754-12.4-5.01-2.066-.26-11.08 2.594-12.895 4.581"/><path fill="#c1875d" d="m58.752 48.711c-1.018-.751-8.906-.854-12.854-2.766-5.732-2.778-10.472-4.675-12.02-8.944-1.428-3.911-2.422-8.349-2.59-10.342-.096-1.135-6.332 2.947-6.563 3.203-1.817 1.989-1.607 5.969.376 10.724 1.984 4.753 8.536 10.702 9.586 10.816 1.049.111 8.352 6.121 11.243 6.555 2.896.431 3.557.235 4.3.84.745.604 2.15 1.84 2.977 1.84.521 0 2.578 1.439 3.939.726 1.596-.244 1.604-3.038 1.406-6.02-.18-2.736 1.547-5.642.207-6.63"/><path fill="#ffd6bb" d="m52.16 58.22c-5.512-.467-22.598-8.767-26.04-17.736-1.492-3.886.462-9.461.295-11.46-.096-1.135-1.463.574-1.695.83-1.818 1.988-3.955 7.737-2.066 12.526 4.892 12.402 26.48 19.617 30.663 19.617 2.723 0 4.208-.758 4.208-.758s-1.747-2.714-5.362-3.02"/><g fill="#ddb199"><path d="m20.753 7.725c-1.507.25-2.267-.889-2.267-.889-2.222 7.01-9.691 17.36-12.451 19.457.903 1.343 1.034 3.737 1.034 3.758 3.483-3.368 11.437-12.833 13.684-22.326"/><path d="m31 27.07c0 0 3.689-5.416 6.344-12.592 0 0-1.957.104-3.104-.764-2.743 6.605-7.943 14.239-7.943 14.239l4.703-.883"/><path d="m23.819 31.688c.514-.69 5.911-3.233 9.812-3.497 13.08-.887 24.04 13.583 24.732 20.46.156 1.569-1.381 3.664-1.389 4.95-.021 3.339 1.615 5.203 1.615 5.203s.072-2.996 1.162-5.082c.214-.411 2.271-3.601 2.248-5.105-.209-13.516-16.723-25.344-26.551-24.654-6.119.43-10.22 4.613-10.726 5.057-1.735 1.526-1.659 3.688-.899 2.669"/></g></svg>