<svg xmlns="http://www.w3.org/2000/svg" viewBox="0 0 64 64" enable-background="new 0 0 64 64"><path fill="#ffbc00" d="m47.865 20.954c0 1.256 0 10.214 0 10.214h-17.356c0 0 0-8.958 0-10.214 0-11.21 17.356-11.21 17.356 0"/><path fill="#ffdd67" d="m47.36 23.29c0-2.282-1.834-1.125-1.834-1.125.134-3.227-1.462-3.491-1.462-3.491-7.443 0-11.22 3.491-11.22 3.491s-1.839-1.157-1.839 1.125c0 .872.351 1.585 1.54 1.661.502 3.527 2.993 4.256 6.64 4.256 3.647 0 6.138-.729 6.641-4.256 1.185-.076 1.534-.789 1.534-1.661"/><path fill="#594640" d="m42.17 25.643c0 .905-1.333 1.663-2.979 1.663-1.647 0-2.983-.758-2.983-1.663 0 0 1.586.081 2.983.081 1.395-.002 2.979-.081 2.979-.081"/><path fill="#ffdd67" d="m32.23 35.714l3.784-3.563c1.685-1.427-.614-3.258-2.223-1.754-5.709 5.339-5.806 4.679-4.631 5.777l6.973 7.132-.002-2.495-3.901-5.097"/><path fill="#594640" d="m36.22 32.14c1.851-1.563-.674-3.576-2.44-1.924-1.016.948-1.886 1.739-2.654 2.427l2.291 2.139 2.803-2.642"/><path fill="#ffdd67" d="m45.884 35.471l-3.523-3.32c-1.686-1.427.613-3.258 2.221-1.754 5.712 5.339 5.377 5.262 4.202 6.361l-8.457 5.057-.538-1.497 6.095-4.847"/><path fill="#594640" d="m42.16 32.14c-1.85-1.563.674-3.576 2.44-1.924 1.016.948 1.886 1.739 2.654 2.427l-2.293 2.139-2.801-2.642"/><path fill="#ffdd67" d="m37.26 27.533h3.856v4.02h-3.856z"/><g fill="#594640"><path d="m43.09 29.603h-1.949c0 .826-.345 1.497-1.959 1.497-1.61 0-1.952-.671-1.952-1.497h-1.955c-1.332.973-2.396 9.146-.875 13.591 1.261 3.691 6.083 3.407 7.89 2.749l2.575-2.898c.353-2.661-2.615-4.105-2.615-4.105-.554-2.658 2.178-8.364.84-9.337"/><path d="m57.5 52.795c2.988 1.868 1.291 4.202-3.118 2.238-3.715-1.655-.557-4.98.751-3.835 1.116.98 1.761 1.219 2.367 1.597"/></g><path fill="#ffdd67" d="m55.2 52.22c-3.4-2.799-2.703-4.51-6.283-5.141-2.879-5.136-5.525-6.761-5.525-6.761-2.074 2.754-1.592 5.085-1.592 5.085s3.107 4.408 5.634 5.476c3.109 1.306 6.27 3.276 6.27 3.276 1.397 1.17 3.03-.674 1.496-1.935"/><path fill="#594640" d="m41.22 59.64c.125 3.83-5.561 2.208-3.501.61.328-.256.305-.856.142-1.332-1.257-3.625 3.073-3.892 3.124-2.215.046 1.428.214 2.258.235 2.937"/><path fill="#ffdd67" d="m40.33 57.48c-.263-4.23 1.365-4.978-.507-7.792.978-2.491-.002-3.369-.002-3.369-2.772.288-5.113-2.425-5.113-2.425s.648 5.075 1.545 7.496c1.101 2.981 1.779 6.464 1.779 6.464.095 1.752 2.417 1.528 2.298-.374"/><path fill="#594640" d="m43.476 16.604c.216-1 .896-3.123 3.051-6.971 1.245-2.222-.071-7.333-.806-7.626-.45-.187-4.251 3.232-4.367 6.078-.154 3.823-.356 6.396-.469 7.641-.12 1.092 2.304 1.545 2.591.878"/><path fill="#e84d88" d="m44.884 5.316c-.4-.163-2.02 1.223-2.347 3.248-.77 4.828-1.035 7.445-1.035 7.445l1.5.448c0 0-.009-1.56 2.236-7.089.591-1.456.293-3.789-.354-4.052"/><path fill="#594640" d="m34.897 16.604c-.215-1-.895-3.123-3.05-6.971-1.246-2.222.071-7.333.805-7.626.451-.187 4.251 3.232 4.368 6.078.154 3.823.356 6.396.468 7.641.12 1.092-2.304 1.545-2.591.878"/><path fill="#e84d88" d="m33.49 5.316c.399-.163 2.02 1.223 2.346 3.248.771 4.828 1.036 7.445 1.036 7.445l-1.5.448c0 0 .009-1.56-2.237-7.089-.591-1.456-.292-3.789.355-4.052"/><g fill="#594640"><path d="m39.27 16.958c2.577 0 4.974.496 6.998 1.341-1.057-1.862-3.787-3.191-6.998-3.191s-5.941 1.329-6.998 3.191c2.025-.845 4.421-1.341 6.998-1.341"/><circle cx="36" cy="22.417" r="1.206"/><circle cx="42.37" cy="22.417" r="1.206"/></g><path fill="#ffbc00" d="m24.299 20.954c0 1.256 0 10.214 0 10.214h-17.358c0 0 0-8.958 0-10.214 0-11.21 17.358-11.21 17.358 0"/><path fill="#ffdd67" d="m23.797 23.29c0-2.282-1.835-1.125-1.835-1.125.134-3.227-1.462-3.491-1.462-3.491-7.443 0-11.219 3.491-11.219 3.491s-1.84-1.157-1.84 1.125c0 .872.352 1.585 1.54 1.661.503 3.527 2.992 4.256 6.641 4.256 3.646 0 6.137-.729 6.639-4.256 1.185-.076 1.536-.789 1.536-1.661"/><path fill="#594640" d="m18.6 25.643c0 .905-1.333 1.663-2.979 1.663-1.647 0-2.983-.758-2.983-1.663 0 0 1.586.081 2.983.081 1.396-.002 2.979-.081 2.979-.081"/><path fill="#ffdd67" d="m8.666 35.714l3.784-3.563c1.684-1.427-.614-3.258-2.222-1.754-5.71 5.339-5.807 4.679-4.632 5.777l6.973 7.132-.002-2.495-3.901-5.097"/><path fill="#594640" d="m12.65 32.14c1.85-1.563-.675-3.576-2.441-1.924-1.015.948-1.885 1.739-2.653 2.427l2.29 2.139 2.804-2.642"/><path fill="#ffdd67" d="m22.316 35.471l-3.522-3.32c-1.686-1.427.612-3.258 2.221-1.754 5.71 5.339 5.377 5.262 4.2 6.361l-8.455 5.057-.539-1.497 6.095-4.847"/><path fill="#594640" d="m18.592 32.14c-1.85-1.563.674-3.576 2.44-1.924 1.016.948 1.886 1.739 2.653 2.427l-2.291 2.139-2.802-2.642"/><path fill="#ffdd67" d="m13.691 27.533h3.857v4.02h-3.857z"/><g fill="#594640"><path d="m19.526 29.603h-1.949c0 .826-.345 1.497-1.959 1.497-1.611 0-1.953-.671-1.953-1.497h-1.954c-1.332.973-2.395 9.146-.875 13.591 1.261 3.691 6.084 3.407 7.89 2.749l2.575-2.898c.352-2.661-2.614-4.105-2.614-4.105-.553-2.658 2.177-8.364.839-9.337"/><path d="m33.933 52.795c2.986 1.868 1.29 4.202-3.119 2.238-3.714-1.655-.556-4.98.751-3.835 1.116.98 1.761 1.219 2.368 1.597"/></g><path fill="#ffdd67" d="m31.632 52.22c-3.401-2.799-2.704-4.51-6.284-5.141-2.879-5.136-5.525-6.761-5.525-6.761-2.074 2.754-1.592 5.085-1.592 5.085s3.107 4.408 5.634 5.476c3.11 1.306 6.27 3.276 6.27 3.276 1.398 1.17 3.03-.674 1.497-1.935"/><path fill="#594640" d="m17.656 59.64c.124 3.83-5.562 2.208-3.501.61.327-.256.305-.856.141-1.332-1.256-3.625 3.074-3.892 3.125-2.215.047 1.428.215 2.258.235 2.937"/><path fill="#ffdd67" d="m16.762 57.48c-.263-4.23 1.365-4.978-.506-7.792.977-2.491-.003-3.369-.003-3.369-2.772.288-5.113-2.425-5.113-2.425s.647 5.075 1.544 7.496c1.103 2.981 1.78 6.464 1.78 6.464.094 1.752 2.416 1.528 2.298-.374"/><path fill="#594640" d="m19.908 16.604c.215-1 .896-3.123 3.051-6.971 1.246-2.222-.071-7.333-.806-7.626-.452-.187-4.25 3.232-4.367 6.078-.154 3.823-.356 6.396-.469 7.641-.121 1.092 2.305 1.545 2.591.878"/><path fill="#e84d88" d="m21.316 5.316c-.4-.163-2.02 1.223-2.346 3.248-.771 4.828-1.037 7.445-1.037 7.445l1.5.448c0 0-.008-1.56 2.238-7.089.59-1.456.293-3.789-.355-4.052"/><path fill="#594640" d="m11.33 16.604c-.216-1-.895-3.123-3.051-6.971-1.245-2.221.072-7.333.806-7.626.451-.187 4.251 3.232 4.367 6.078.154 3.823.356 6.396.469 7.641.121 1.092-2.305 1.545-2.591.878"/><path fill="#e84d88" d="m9.921 5.316c.401-.163 2.024 1.223 2.347 3.248.771 4.828 1.036 7.445 1.036 7.445l-1.499.448c0 0 .008-1.56-2.237-7.089-.59-1.456-.293-3.789.353-4.052"/><g fill="#594640"><path d="m15.707 16.958c2.578 0 4.974.496 6.998 1.341-1.057-1.862-3.787-3.191-6.998-3.191s-5.94 1.329-6.997 3.191c2.02-.845 4.421-1.341 6.997-1.341"/><circle cx="12.432" cy="22.417" r="1.205"/><circle cx="18.805" cy="22.417" r="1.206"/></g></svg>