<svg xmlns="http://www.w3.org/2000/svg" viewBox="0 0 64 64" enable-background="new 0 0 64 64"><path fill="#cedbd5" d="m50 10.777c-7.05-5.533-28.955-5.533-36 0-10.412 8.18-12 51.22-12 51.22h59.998c0 0-1.59-43.04-11.998-51.22"/><path fill="#231f20" d="m54.31 38.982c.297-.686.465-1.445.465-2.248 0-1.488-.566-2.834-1.482-3.818 1.393-.977 2.311-2.645 2.311-4.539 0-1.988-1.016-3.723-2.529-4.676.57-.875.904-1.934.904-3.074 0-.176-.002-.352-.006-.527l-1.379-3.67.283-2.688c-2.299-6.58-8.459-11.744-20.873-11.744-12.403 0-18.563 5.154-20.868 11.725l.275 2.708-1.379 3.703c-.004.165-.005.329-.005.494 0 1.141.336 2.199.904 3.074-1.514.953-2.529 2.688-2.529 4.676 0 1.895.92 3.563 2.313 4.539-.916.984-1.484 2.33-1.484 3.818 0 .803.168 1.563.464 2.248-2.048.729-2.69 2.764-2.69 5.164 0 10.123 10.959 5.67 10.959 5.67h28.08c0 0 10.959 4.453 10.959-5.67-.002-2.401-.647-4.436-2.695-5.165"/><g fill="#f2f1f0"><path d="m54.26 61.998c0-14.73-1.438-15.533-22.258-15.533-20.815 0-22.257.803-22.257 15.533h44.515"/><path d="m32 6.629c-7.84 0-15.07 2.652-20.871 7.105-.709 2.023-1.049 4.182-1.096 6.365 5.551-5.814 13.344-9.443 21.967-9.443 8.624 0 16.413 3.629 21.963 9.443-.047-2.184-.387-4.342-1.094-6.365-5.798-4.453-13.03-7.105-20.869-7.105"/></g><path fill="#b47d56" d="m15.899 35.17c0 0-3.251-.832-3.251-5.645 0-3.811 2.45-4.465 2.45-4.465 8.786 0 23.1-9.482 23.1-9.482s5.41 8.146 10.633 9.482c0 0 2.525.467 2.525 4.465 0 4.813-3.373 5.645-3.373 5.645-.045 7.26-9.959 16.02-15.98 16.02-6.02 0-16.1-8.758-16.1-16.02"/><path fill="#935e3e" d="m36.03 38.484c0 1.582-3.28 2.041-4.03 2.041s-4.03-.561-4.03-2.145c0 .001 8.07-.685 8.07.104"/><path fill="#f5f5f5" d="m26.51 32.16c.947 0 .821-2.449.821-2.449-2.908-6.502-9.389-2.389-9.389-2.389-2.52 1.127 1.129 4.684 1.714 4.838 2.745.744 6.854 0 6.854 0"/><circle fill="#664e27" cx="22.713" cy="29.19" r="3.1"/><g fill="#231f20"><path d="m23.715 29.19c0 .554-.449 1-1 1-.551 0-.997-.446-.997-1 0-.552.446-.998.997-.998.554 0 1 .445 1 .998"/><path d="m28.15 30.648c-.847-.938-1.653-1.842-2.563-2.521-.916-.674-1.902-1.08-2.973-1.159-1.072-.094-2.211.116-3.416.32-.603.107-1.229.208-1.884.229-.634.009-1.409-.089-1.84-.599.608.205 1.167.057 1.722-.128.558-.179 1.113-.425 1.697-.633 1.155-.433 2.454-.798 3.846-.684 1.39.095 2.744.796 3.631 1.789.909.982 1.48 2.16 1.78 3.386"/></g><path fill="#f5f5f5" d="m37.494 32.16c-.947 0-.822-2.449-.822-2.449 2.91-6.502 9.391-2.389 9.391-2.389 2.518 1.127-1.131 4.684-1.715 4.838-2.743.744-6.854 0-6.854 0"/><circle fill="#664e27" cx="41.29" cy="29.19" r="3.1"/><g fill="#231f20"><path d="m42.29 29.19c0 .554-.445 1-.996 1-.555 0-1-.446-1-1 0-.552.449-.998 1-.998.551 0 .996.445.996.998"/><path d="m35.857 30.648c.301-1.227.871-2.405 1.781-3.385.887-.992 2.24-1.694 3.631-1.789 1.391-.114 2.689.251 3.846.684.584.208 1.139.454 1.697.633.555.185 1.113.333 1.721.128-.43.51-1.205.607-1.84.599-.654-.021-1.281-.122-1.883-.229-1.205-.205-2.344-.414-3.416-.32-1.07.079-2.057.484-2.973 1.159-.909.679-1.716 1.582-2.564 2.52"/></g><path fill="#994360" d="m34.865 42.37c-.586-.145-1.439-.076-2.569.303-.097.029-.195.061-.294.094-.099-.033-.197-.064-.294-.094-1.129-.379-1.984-.447-2.569-.303-1.746.424-4.393.217-4.393.217 1.924 1.922 2.839 4.549 7.256 4.549 4.417 0 5.332-2.627 7.255-4.549.001 0-2.646.207-4.392-.217"/><path fill="#733449" d="m34.865 42.37c-.586-.145-1.439-.076-2.569.303-.097.029-.195.061-.294.094-.099-.033-.197-.064-.294-.094-1.129-.379-1.984-.447-2.569-.303-1.714.416-4.404.215-4.393.217 2.903.521 3.266 2.01 7.256 2.01 3.99 0 4.353-1.484 7.255-2.01.013-.002-2.677.199-4.392-.217"/><path fill="#428bc1" d="m39.855 61.998h-16.605l-2.18-2.978h20.1z"/><ellipse fill="#224863" cx="31.12" cy="59.02" rx="10.05" ry=".796"/><path fill="#871212" d="m25.632 54.28l-1.987-2.2-1.585 2.45z"/><path fill="#991d1d" d="m22.955 54.894l2.075-2.922 2.329 1.448z"/><path fill="#ad2727" d="m22.11 53l-.3 1.729 4.603.25z"/><path fill="#cc3636" d="m25.398 54.968c2.902 1.362 2.598 3.185 1.124 3.907-1.473.722-3.78.091-4.175-1.771-.398-1.873-1.686-2.993-1.686-2.993s2.52-.184 4.737.857"/><path fill="#e24b4b" d="m23.666 55.6c-1.04 3.066 1.489 3.939 2.963 3.219 1.473-.723 1.99-2.686 1.158-4.385-.834-1.701-1.555-2.544-1.555-2.544s-1.825 1.527-2.566 3.71"/><path fill="#75a843" d="m26.321 58.08c2.263-1.146 1.702.231.228.953-3.623 1.776-5.01-1.465-5.01-1.465s2.776 1.53 4.784.512"/><path fill="#83bf4f" d="m26.321 58.08c-.489.549-1.907 1.682-.328 1.262 3.121-.828 2.524-5.057 2.524-5.057s-.742 2.164-2.196 3.795"/><path fill="#871212" d="m35.893 52.82l4.217 2.53-.09-3.412z"/><path fill="#991d1d" d="m39.77 57.27l-2.782-4.02h4.709z"/><path fill="#ad2727" d="m40.74 55.755l-2.61-4.575-2.183 1.84z"/><path fill="#cc3636" d="m38.604 55.52l-4.474-.26 1.99-4.631z"/><path fill="#e24b4b" d="m36.832 54.38c-3.5 1.165-2.555 4.064-.885 4.905 1.67.84 3.811-.041 4.779-1.969.971-1.926 2.082-2.847 2.082-2.847s-3.484-.92-5.976-.089"/><path fill="#83bf4f" d="m36.408 58.5c-.834-.066-2.84-.575-1.371.57 2.902 2.263 6.328-1.188 6.328-1.188s-2.474.814-4.957.618"/><path fill="#871212" d="m27.616 52.819l6.183-.279-2.994-2.717z"/><path fill="#991d1d" d="M34.982 51.764 29 53.43 32.658 50.13z"/><path fill="#ad2727" d="m33.02 53.12l-4.532-2.57-.615 3.332z"/><path fill="#cc3636" d="m32.19 54.19v5.497c-2.168.48-4.771-1.085-4.697-3.66.074-2.59-1.263-4.474-1.263-4.474s3.374.559 5.96 2.637"/><path fill="#e24b4b" d="m29.708 54.47c-2.346 3.7.703 5.658 2.871 5.178 2.168-.48 3.475-2.897 2.92-5.399-.553-2.503-.223-4.185-.223-4.185s-3.898 1.769-5.568 4.406"/><path fill="#75a843" d="m32.412 58.58c3.34-.788 2.165.848-.004 1.327-5.332 1.183-6.128-3.524-6.128-3.524s3.167 2.896 6.132 2.197"/><path fill="#83bf4f" d="m32.412 58.58c-.819.566-3.045 1.604-.834 1.556 4.372-.097 4.932-5.849 4.932-5.849s-1.666 2.611-4.098 4.293"/></svg>