<svg xmlns="http://www.w3.org/2000/svg" viewBox="0 0 64 64" enable-background="new 0 0 64 64"><path fill="#ffe1bd" d="m62 31.76c0-2.537-1.861-4.615-4.277-4.972-1.193-16.24-12.25-24.79-25.723-24.79s-24.529 8.55-25.723 24.79c-2.416.356-4.277 2.435-4.277 4.972 0 2.64 2.02 4.778 4.574 5 1.652 12.444 8.627 15.68 25.426 15.68 16.798 0 23.773-3.235 25.426-15.68 2.558-.222 4.574-2.361 4.574-5"/><path fill="#594640" d="m35.469 13.178c1.066 0 2.104-.066 3.119-.168-2.402-1.762-4.27-4.063-5.365-6.691 2.75 1.012 5.998 1.6 9.484 1.6 1.066 0 2.105-.064 3.121-.17-1.484-1.086-2.752-2.385-3.771-3.834-3.178-1.268-6.688-1.916-10.381-1.916-4.949 0-9.57 1.156-13.498 3.42 2.082 4.468 9.02 7.759 17.291 7.759"/><g fill="#ff717f"><path opacity=".5" d="m55.22 37.05c-.338-2.473-3.137-3.963-6.254-3.328-3.116.633-5.368 3.156-5.03 5.633.34 2.473 3.138 3.967 6.257 3.33 3.117-.637 5.367-3.159 5.03-5.635"/><path opacity=".5" d="m15.04 33.721c-3.113-.635-5.916.855-6.254 3.328-.336 2.477 1.916 4.998 5.03 5.635s5.916-.857 6.254-3.33c.34-2.477-1.916-4.997-5.03-5.633"/></g><path fill="#fff" d="m26.34 27.754c0 3.865-3.135 6.998-6.998 6.998-3.869 0-7-3.133-7-6.998 0-3.867 3.133-7 7-7 3.863 0 6.998 3.135 6.998 7"/><path fill="#664e27" d="m24.59 27.752c0 2.898-2.352 5.25-5.25 5.25-2.9 0-5.25-2.352-5.25-5.25 0-2.902 2.35-5.25 5.25-5.25 2.898 0 5.25 2.348 5.25 5.25"/><path fill="#231f20" d="m21.09 27.753c0 .966-.785 1.746-1.748 1.746-.969 0-1.752-.78-1.752-1.746 0-.969.783-1.751 1.752-1.751.963 0 1.748.782 1.748 1.751"/><path fill="#fff" d="m51.665 27.756c0 3.865-3.135 6.996-6.999 6.996-3.865 0-7-3.131-7-6.996 0-3.867 3.135-7 7-7 3.864 0 6.999 3.137 6.999 7"/><path fill="#664e27" d="m49.915 27.752c0 2.898-2.35 5.25-5.249 5.25-2.9 0-5.25-2.352-5.25-5.25 0-2.902 2.35-5.25 5.25-5.25 2.899 0 5.249 2.348 5.249 5.25"/><path fill="#231f20" d="m46.42 27.753c0 .966-.784 1.747-1.75 1.747-.967 0-1.75-.781-1.75-1.747 0-.969.783-1.753 1.75-1.753.966 0 1.75.784 1.75 1.753"/><path fill="#e6b796" d="m35.504 34.18c0 1.322-2.848 1.701-3.5 1.701-.654 0-3.5-.467-3.5-1.787 0 0 7-.571 7 .086"/><path fill="#61c2ff" d="m47 42.502c0 9.379-6.714 13.721-14.999 13.721-8.283 0-15-4.342-15-13.721 0-9.375 6.756-5.793 15.04-5.793 8.285 0 14.96-3.582 14.96 5.793"/><ellipse fill="#6235a8" cx="32" cy="46.13" rx="6" ry="5.66"/><path fill="#fbbf67" d="m32 45.561c-5.965 0-10.799-.713-10.799 5.389 0 6.104 4.834 11.05 10.799 11.05s10.801-4.945 10.801-11.05c0-6.102-4.836-5.389-10.801-5.389m0 12.703c-4.24 0-8.158-2.975-8.158-7.314s3.918-3.283 8.158-3.283c4.242 0 8.16-1.057 8.16 3.283s-3.918 7.314-8.16 7.314"/><path fill="#42ade2" d="m35.67 47.45c0 .625-.447 1.131-1 1.131h-5.334c-.553 0-1-.506-1-1.131v-2.643c0-.627.447-1.133 1-1.133h5.334c.553 0 1 .506 1 1.133v2.643"/></svg>