<svg xmlns="http://www.w3.org/2000/svg" viewBox="0 0 64 64" enable-background="new 0 0 64 64"><path fill="#b70b0b" d="m56.56 33.76c-1.51 12.309-26.19 10.92-27.429 4.697-9.23 4.658-6.688 12.02-6.688 12.02 8.482 19 46.44-.147 34.12-16.715"/><path fill="#ff4848" d="m44.32 52.52c3.125 1.924 1.35 4.326-3.264 2.307-3.885-1.705-.582-5.132.787-3.951 1.169 1.01 1.843 1.255 2.477 1.644"/><path fill="#d6a57c" d="m41.582 52.25c-3.5-2.942-2.998-4.477-6.461-5.408-3.225-5.079-5.896-6.851-5.896-6.851-1.711 2.375-1.029 4.602-1.029 4.602s3.376 4.421 5.878 5.658c3.078 1.519 6.27 3.664 6.27 3.664 1.439 1.228 2.814-.34 1.238-1.665"/><path fill="#ff4848" d="m28.23 59.57c.131 3.944-5.818 2.273-3.662.628.342-.263.318-.882.146-1.37-1.314-3.734 3.217-4.01 3.271-2.283.048 1.471.224 2.324.245 3.02"/><path fill="#d6a57c" d="m26.944 57.34c-.238-4.355 1.246-5.125-.461-8.02.531-2.574-.703-6.688-.703-6.688-2.529.295-3.959.721-3.959.721s.59 5.227 1.408 7.721c1 3.068 1.619 6.654 1.619 6.654.089 1.806 2.206 1.574 2.096-.385"/><path fill="#594640" d="m37.12 10.597c2.738 7.591 11.938 10.05 16.961 3.073 2.611 9.951-11.139 14.548-18.965 14.76-24.386.656-21.749-13.02-21.749-14.726 0-15.265 19.521-14.844 23.753-3.107"/><g fill="#d6a57c"><path d="m41.1 32.715c-1.613-.921-2.152-1.211-2.656-.763l-7.195-4.573c-1.651-1.068-3.71-1.465-3.71-1.465-1.387 1.367.461 2.605.461 2.605l9.185 5.357-.338.578c-.264.447-.107 1.021.346 1.281l.615.35c.324.186.717.161 1.01-.035.854.41 2.098.729 2.979-.773.143-.25.949-1.623-.695-2.562"/><path d="m14.657 26.762l-4.438-4.379.015-.016c.359-.377.344-.97-.039-1.325l-.516-.481c-.273-.255-.662-.318-.99-.195-.734-.592-1.871-1.185-3.076.077-.203.21-1.307 1.364.074 2.651 1.334 1.244 1.797 1.657 2.379 1.362l5.678 5.593 6.43-.62 1.549-3.515-7.07.848"/></g><path fill="#ff4848" d="m24.909 47.689c10.02-3.332 11.608.306 23.989-.706 12.379-1.01 7.666-13.224 7.666-13.224-2.027 10.528-25.989 6.697-27.23.475 2.159-2.174 2-4.186-1.795-8.32 0 0-1.301 1.195-2.908 1.195s-2.908-1.195-2.908-1.195c-6.486 6.829-1.523 8.951-1.523 8.951 1.688 3.25-.813 6.977 2.25 15.609-.001.001 1.038-2.311 2.46-2.785"/><path fill="#d6a57c" d="m32.742 15.352c.174-4.393-1.886-4.755-1.886-4.755-9.605 0-14.479 4.755-14.479 4.755s-2.373-1.576-2.373 1.53c0 1.187.453 2.157 1.988 2.262.523 3.887 2.731 5.276 6.05 5.665v1.105h-.318l-2.107 3.284c0 .678 2.119-2.03 5.03 1.563 2.896-3.578 5-.885 5-1.563l-2.107-3.284h-.461v-1.104c3.319-.389 5.526-1.778 6.05-5.666 1.527-.104 1.98-1.075 1.98-2.262 0-3.107-2.369-1.53-2.369-1.53"/><g fill="#664e27"><path d="m28.491 20.09c0 1.231-1.721 2.264-3.846 2.264-2.127 0-3.85-1.032-3.85-2.264 0 0 2.049.11 3.85.11 1.803 0 3.846-.11 3.846-.11"/><path d="m22.16 15.697c0 .67-.598 1.215-1.324 1.215-.734 0-1.326-.545-1.326-1.215 0-.676.592-1.217 1.326-1.217.726 0 1.324.541 1.324 1.217"/><path d="m29.79 15.697c0 .67-.588 1.215-1.32 1.215-.73 0-1.324-.545-1.324-1.215 0-.676.594-1.217 1.324-1.217.732 0 1.32.541 1.32 1.217"/></g><path fill="#b58360" d="m9.401 22.69c-.256-.237-1.01-.929-1.088-1.072-.15-.265-.117-.593.053-.841.021-.027.045-.055.068-.08.125-.133-.076-.33-.199-.199-.246.264-.344.609-.279.96.043.24.184.442.359.606.283.261.871.81.885.824.135.125.336-.074.201-.198"/></svg>