<svg xmlns="http://www.w3.org/2000/svg" viewBox="0 0 64 64" enable-background="new 0 0 64 64"><path fill="#d0d0d0" d="m24.502 35.532c-6.674 7.343-21.637 25.326-23.873 27.565-.025.023-.051.049-.076.072-.9.9-.625 1.18.275.279 1.975-1.969 20.25-17.188 27.648-23.941l-3.974-3.975"/><path transform="matrix(.7071.7071-.7071.7071 28.21-22.606)" fill="#c94747" d="m33.31 6.883h16.17v31.745h-16.17z"/><g fill="#ed4c5c"><path d="m43.551 54.59c.875-7.83-2.549-17.09-9.799-24.335s-16.512-10.682-24.336-9.811l34.14 34.15"/><path d="M64,22.878c-5.25,0.583-11.449-1.716-16.311-6.573C42.838,11.447,40.539,5.246,41.113,0L64,22.878z"/></g></svg>