<svg xmlns="http://www.w3.org/2000/svg" viewBox="0 0 64 64" enable-background="new 0 0 64 64"><g fill="#42ade2"><path d="m54.18 15.16c2.234 5.43 2.794 11.156 2.896 16.794-.07 5.627-.661 11.363-2.896 16.777-.438-5.574-.198-11.213-.164-16.793-.035-5.578-.236-11.205.164-16.778"/><path d="m58.42 6.765c2.709 8.24 3.448 16.741 3.578 25.18-.131 8.439-.861 16.936-3.578 25.17.021-8.236.479-16.473.515-24.711.038-8.55-.469-17.09-.515-25.642"/></g><path fill="#333" d="m18.19 52.37h-8.08l14.514-13.555h8.08z"/><path fill="#b0bdc6" d="m8.316 25.1c-1.577.132-3.01.206-4.251.206 0 0-2.065 3.212-2.065 6.646 0 3.438 2.068 6.646 2.068 6.646 1.24 0 2.677.074 4.254.205-.582-1.197-1.744-3.953-1.744-6.853.001-2.895 1.157-5.648 1.738-6.85"/><path fill="#ed4c5c" d="m42.25 4.918c0 0-15.983 18.04-29.584 19.725-.718 1.647-1.694 4.418-1.694 7.309 0 2.896.98 5.667 1.699 7.312 13.594 1.68 29.549 19.682 29.549 19.682l.03-54.03"/><path fill="#333" d="m12.664 24.643c-1.53.189-2.99.346-4.347.459-.581 1.202-1.738 3.955-1.738 6.85 0 2.899 1.162 5.655 1.744 6.853 1.356.113 2.815.27 4.346.459-.719-1.645-1.699-4.416-1.699-7.312 0-2.891.976-5.662 1.694-7.309"/><ellipse fill="#aa1d39" cx="43.883" cy="31.931" rx="6.285" ry="27.988"/><path fill="#5b0617" d="m43.883 59.942c-3.471 0-6.284-12.531-6.284-27.989 5.316-3.968 12.355 4.87 12.355 4.87-10.993 6.01-6.071 23.12-6.071 23.12"/><path fill="#333" d="m37.849 24.442c0 0-.25 2.635-.25 7.488 0 4.941.25 7.488.25 7.488l12.319-2.635v-9.707l-12.319-2.634"/><path fill="#4b4d4f" d="m37.703 26.813c0 0-.104 1.805-.104 5.128 0 3.382.104 5.126.104 5.126l12.466-1.803v-6.646l-12.466-1.805"/><ellipse fill="#ed4c5c" cx="50.17" cy="31.932" rx="1.571" ry="4.853"/><path fill="#898a90" d="m10.11 28.17h8.08v24.2h-8.08z"/><ellipse fill="#fff" cx="14.15" cy="32.528" rx="1.654" ry="1.969"/></svg>