<svg xmlns="http://www.w3.org/2000/svg" viewBox="0 0 64 64" enable-background="new 0 0 64 64"><circle fill="#42ade2" cx="32" cy="32" r="30"/><g fill="#fff"><path d="m47.33 23.735l-11.369-6.735v3.818h-11.539c-2.784 0-5.401 1.113-7.369 3.132-1.969 2.02-3.053 4.706-3.053 7.562 0 1.176.185 2.321.538 3.405.245-.345.517-.671.814-.976.738-.759 1.599-1.353 2.556-1.768.574-.25 1.169-.429 1.779-.533-.002-.042-.002-.086-.002-.129 0-2.682 2.124-4.861 4.736-4.861h11.539v3.82l11.37-6.735"/><path d="m49.46 28.09l-5.153 3.054c.008.121.014.246.014.371 0 2.682-2.125 4.861-4.738 4.861h-12.329c-1.186-2.273-3.522-3.818-6.211-3.818-3.887 0-7.04 3.233-7.04 7.223 0 3.988 3.152 7.222 7.04 7.222 3.058 0 5.658-1.999 6.631-4.795h11.908c2.785 0 5.401-1.112 7.371-3.131 1.967-2.02 3.051-4.707 3.051-7.562 0-1.183-.186-2.336-.544-3.425m-28.417 16.529c-2.604 0-4.717-2.167-4.717-4.839 0-2.674 2.112-4.84 4.717-4.84 2.605 0 4.715 2.166 4.715 4.84 0 2.672-2.109 4.839-4.715 4.839"/><path d="m21.785 42.742h-1.1v-4.271c-.403.388-.876.675-1.422.86v-1.029c.288-.098.6-.279.936-.549.337-.27.568-.584.693-.942h.893v5.931"/></g></svg>