<svg xmlns="http://www.w3.org/2000/svg" viewBox="0 0 64 64" enable-background="new 0 0 64 64"><path fill="#ffb031" d="m57.04 24.593c-3.02-7.214-12.284-15.906-12.284-15.906s2.994 7.435.826 17.266l3.51-3.038c0 0 3.342 1.434 3.717 4.958.466 4.355-2.03 10.567-2.03 10.567s-5.506-1.737-13.92-1.616l-3.01-19.584 7.155 4.69-9.01-19.93-9.01 19.93 7.157-4.69-3.01 19.584c-8.416-.121-13.922 1.616-13.922 1.616s-2.494-6.212-2.028-10.567c.375-3.524 3.715-4.958 3.715-4.958l3.511 3.038c-2.168-9.832.826-17.266.826-17.266s-9.27 8.692-12.285 15.906c-3.097 7.407-4.955 16.225-4.955 16.225l6.399 5.914c0 0 5.649-1.664 9.963-1.997 4.129-.319 8.93-.399 8.93-.399l-.618 8.712 5.326 8.952 5.326-8.952-.62-8.712c0 0 4.801.08 8.93.399 4.314.333 9.963 1.997 9.963 1.997l6.401-5.914c0 0-1.858-8.818-4.957-16.225"/></svg>