<svg xmlns="http://www.w3.org/2000/svg" viewBox="0 0 64 64" enable-background="new 0 0 64 64"><g fill="#222526"><path d="m3.587 32.594c3.984-13.409 8.265-19.593 10.1-19.593.975 0 1.306.675 1.662 2.225.854 3.716.053 4.892-.455 5.409-.699.714-1.838.128-1.838-3.838-.937 2.294-5.33 10.44-7.646 19.03l-1.827-3.229"/><path d="m60.41 32.594c-3.984-13.409-8.266-19.593-10.11-19.593-.974 0-1.305.675-1.66 2.225-.854 3.716-.054 4.892.453 5.409.7.714 1.838.128 1.838-3.838.938 2.294 5.332 10.44 7.646 19.03l1.828-3.229"/></g><path fill="#363b3d" d="m36.12 33.29c-2.356 1.206-5.891 1.206-8.247 0-2.518-1.323-5.593-2.171-9.275-2.502-3.595-.323-11.215-.313-15.03 1.063-.438.157-.868.361-1.283.58-.234.121-.281.211-.281.66v.579c0 1.09-.133.666.627 1.12 1.479.889 2.32 3.193 2.771 6.367.641 4.625 2.855 7.523 6.453 8.908 3.338 1.283 7.07 1.238 10.384-.115 1.812-.741 3.401-1.914 4.665-3.816 2.216-3.336 1.552-5.418 2.695-8.283.996-2.502 3.794-2.502 4.792 0 1.144 2.865.479 4.947 2.694 8.283 1.263 1.902 2.854 3.075 4.666 3.816 3.312 1.354 7.05 1.398 10.384.115 3.596-1.385 5.813-4.283 6.453-8.908.449-3.174 1.291-5.479 2.771-6.367.76-.454.627-.03.627-1.12v-.579c0-.449-.048-.539-.281-.66-.415-.219-.847-.423-1.282-.58-3.813-1.375-11.435-1.387-15.03-1.063-3.686.331-6.762 1.179-9.279 2.502"/><g fill="#5f6566"><path d="m26.18 35.05c-.832-.629-2.358-1.104-4.18-1.428-1.047-.188-2.189-.324-3.354-.413-2.737-.208-5.58-.15-7.547.157-1.218.191-2.103.477-2.406.855-1.416 1.773-1.128 6.314.315 9.473.387.847.852 1.598 1.393 2.164.923.967 2.127 1.617 3.455 2.02.885.269 1.822.418 2.779.472 1.6.09 3.237-.086 4.723-.492.259-.07.5-.168.738-.272 4.309-1.894 5.416-9.101 4.729-11.69-.082-.31-.309-.59-.645-.847"/><path d="m55.658 34.479c-.055-.086-.104-.179-.165-.254-.599-.75-3.457-1.14-6.733-1.138-1.188.002-2.43.054-3.642.158-1.325.114-2.608.294-3.741.537-2.156.465-3.763 1.163-4.02 2.112-.418 1.566-.174 4.824 1.035 7.576.492 1.119 1.144 2.154 1.979 2.956.689.663 1.501 1.173 2.452 1.431.155.043.321.068.479.106 3 .712 6.508.546 9.03-.983.525-.319 1.025-.678 1.45-1.121 2.483-2.592 3.432-8.926 1.875-11.38"/></g></svg>