<svg xmlns="http://www.w3.org/2000/svg" viewBox="0 0 64 64" enable-background="new 0 0 64 64"><path fill="#dadee0" d="M60.861,2c1.797,13.431,1.51,24.233-1.166,31.132L34.888,14.677C39.815,9.584,49.818,3.459,60.861,2z"/><path fill="#f7a4a4" d="m57.738 32.18l-10.255-13.253c0 0 1.938-7.285 11.616-12.438 2.901 11.656-1.361 25.691-1.361 25.691"/><path fill="#f78d8d" d="m53.835 29.16l-6.352-8.209c0 0 2.574-5.02 8.568-8.216-3.497 7.563-2.216 16.425-2.216 16.425"/><path fill="#dadee0" d="M3.139,2c-1.797,13.431-1.51,24.233,1.166,31.132l24.808-18.455C24.185,9.584,14.182,3.459,3.139,2z"/><path fill="#f7a4a4" d="M6.262,32.177l10.255-13.253c0,0-1.938-7.285-11.616-12.438C2,18.142,6.262,32.177,6.262,32.177z"/><path fill="#f78d8d" d="m10.165 29.16l6.352-8.209c0 0-2.574-5.02-8.568-8.216 3.497 7.563 2.216 16.425 2.216 16.425"/><path fill="#dadee0" d="m58.2 50.754c.845-.881 1.415-1.633 1.661-2.162 1.63-2.643 2.144-5.342 2.144-5.342l-2 .424c0 0 2.318-2.463 1.691-7.793l-1.945 2.102c0 0 1.945-5.41.254-10.4l-2.152 1.588c0 0 .654-2.031.053-3.422l-.932.729c0 0 1.689-4.665.154-6.625-.855 2.827-1.871 2.784-1.871 2.784s1.242-2.116.273-3c-.986 1.594-1.807.558-1.768.079.055-.637-.193-1.534 2.703-1.957-2.314-1.414-5.05-.43-5.05-.43s.098-1.489 2.123-1.43c-1.871-1.593-4.48-.648-4.48-.648l.006.017c-4.111-3.11-9.646-4.902-17.05-4.902-7.408 0-12.942 1.792-17.05 4.902l.006-.017c0 0-2.609-.944-4.48.648 2.027-.06 2.125 1.43 2.125 1.43s-2.742-.984-5.057.43c2.898.423 2.65 1.32 2.703 1.957.039.479-.779 1.515-1.768-.079-.967.887.275 3 .275 3s-1.016.043-1.871-2.784c-1.537 1.96.154 6.625.154 6.625l-.932-.729c-.602 1.391.053 3.422.053 3.422l-2.154-1.588c-1.691 4.99.254 10.4.254 10.4l-1.945-2.102c-.625 5.33 1.691 7.793 1.691 7.793l-2-.424c0 0 .513 2.694 2.141 5.339.249.534.833 1.304 1.698 2.202.023.024.044.049.067.072v-.004c4.066 4.183 14.213 11.141 26.09 11.141 11.882 0 22.03-6.96 26.09-11.142v.005c.034-.036.065-.072.099-.109"/><g fill="#94989b"><path d="m37.686 10.763c-1.762-.258-3.65-.401-5.686-.401s-3.926.144-5.689.401c.736 3.856 2.75 6.583 5.688 11.585 2.98-5.079 4.964-7.756 5.687-11.585"/><path d="m46.813 13.785c-1.908-1.092-4.072-1.944-6.523-2.523.59 2.29 1.857 3.921 3.627 6.935 1.237-2.111 2.216-2.663 2.896-4.412"/><path d="m23.709 11.263c-2.451.579-4.615 1.431-6.521 2.522.686 1.765 1.666 2.323 2.891 4.411 1.794-3.057 3.048-4.664 3.63-6.933"/></g><path fill="#4c5359" d="m36.04 38.767c-.811-.945-3.299-1.018-4.04-1.018-.742 0-3.232.072-4.04 1.018-.576.674-.131 2.344 1.406 3.785.969.91 1.895 1.197 2.637 1.197.744 0 1.67-.287 2.639-1.197 1.535-1.442 1.982-3.112 1.404-3.785"/><path fill="#fff" d="m24.299 30.84c0 0-.484-4.569-4.509-6.03-4.539-1.651-7.636 2.386-8.477 4.694-1.24 3.407.316 7.133.778 7.992.306.566 3.659 3.241 11.22.709.001 0 1.882-3.789.988-7.361"/><path fill="#b2b6b8" d="m24.299 30.84c-.404-1.559-1.133-3.039-2.255-4.094-.546-.535-1.179-.962-1.869-1.245-.345-.146-.695-.255-1.074-.347-.337-.083-.719-.125-1.075-.139-1.451-.041-2.832.578-3.896 1.6-1.061 1.01-1.938 2.329-2.29 3.713-.383 1.406-.313 2.951.021 4.435.16.743.392 1.487.688 2.173l.113.243c-.032-.054.014.022.017.026.002 0 0-.005-.002-.006l.055.063c.098.103.231.209.37.312.282.203.602.384.94.532 1.365.595 2.949.792 4.519.751 1.585-.006 3.168-.31 4.751-.655-1.479.668-3.056 1.128-4.691 1.388-1.634.219-3.361.197-5.01-.396-.411-.147-.814-.334-1.207-.574-.195-.124-.384-.262-.575-.441-.05-.048-.092-.091-.151-.159l-.097-.124-.063-.102-.156-.299c-.379-.78-.661-1.574-.879-2.4-.415-1.645-.529-3.423-.09-5.15.491-1.739 1.491-3.206 2.792-4.381 1.304-1.15 3.121-1.924 4.921-1.71.446.051.867.126 1.307.269.396.126.812.285 1.19.498.767.412 1.447.973 1.984 1.634 1.047 1.342 1.638 2.963 1.714 4.585"/><path fill="#fff" d="m39.698 30.84c0 0 .484-4.568 4.509-6.03 4.539-1.651 7.636 2.387 8.477 4.694 1.24 3.407-.316 7.133-.778 7.992-.306.566-3.659 3.241-11.22.709 0 0-1.882-3.789-.988-7.361"/><path fill="#b2b6b8" d="m39.698 30.84c.076-1.622.667-3.243 1.715-4.587.537-.661 1.219-1.222 1.984-1.634.379-.213.794-.372 1.191-.498.438-.143.859-.218 1.307-.269 1.8-.214 3.616.56 4.92 1.71 1.301 1.175 2.301 2.642 2.792 4.382.438 1.728.325 3.505-.089 5.15-.219.825-.501 1.619-.881 2.399l-.155.299-.063.102-.097.124c-.06.068-.102.111-.151.159-.191.18-.38.317-.576.441-.392.24-.795.427-1.206.574-1.65.593-3.378.614-5.01.396-1.635-.26-3.212-.72-4.69-1.388 1.583.346 3.166.649 4.751.655 1.569.041 3.152-.156 4.519-.751.339-.148.658-.329.94-.532.139-.103.272-.209.37-.312l.055-.063c-.002.001-.004.006-.002.007.003-.005.049-.081.017-.027l.113-.243c.297-.686.528-1.43.688-2.173.334-1.483.404-3.03.021-4.435-.353-1.384-1.229-2.705-2.29-3.713-1.064-1.021-2.445-1.641-3.896-1.6-.356.014-.738.056-1.075.139-.378.092-.729.2-1.073.347-.691.283-1.324.71-1.87 1.245-1.123 1.058-1.851 2.537-2.256 4.096"/><g fill="#4c5359"><circle cx="45" cy="32.5" r="5"/><circle cx="19" cy="32.5" r="5"/><path d="m42.684 53.13c-1.801-1.059-3.541-1.701-5.322-2.127-1.775-.426-3.566-.609-5.361-.611-1.799.008-3.588.189-5.361.615-1.781.428-3.52 1.066-5.322 2.123.771-1.977 2.484-3.531 4.396-4.525 1.932-1 4.119-1.486 6.287-1.486 2.166.004 4.354.486 6.283 1.49 1.909.994 3.624 2.546 4.4 4.521"/></g><g fill="#fff"><ellipse cx="18.991" cy="35.972" rx="2.186" ry="2.528"/><ellipse cx="15.278" cy="31.719" rx="1.278" ry="1.479"/><ellipse cx="44.991" cy="35.972" rx="2.186" ry="2.528"/><ellipse cx="41.28" cy="31.719" rx="1.278" ry="1.479"/></g><path fill="#65b1ef" d="m46.98 37c-4.763 6.511-7.496 12.501-7.496 17.425 0 4.184 3.355 7.574 7.5 7.574 4.139 0 7.497-3.391 7.497-7.574 0-4.924-2.814-11.02-7.501-17.425"/></svg>