<svg xmlns="http://www.w3.org/2000/svg" viewBox="0 0 64 64" enable-background="new 0 0 64 64"><path fill="#3e4347" d="m61.19 41.1c.119.484-.172.979-.643 1.1l-2.118.44-2.053-12.189 1.777-.192c.473-.119.956.177 1.073.661l1.964 10.18"/><path fill="#42ade2" d="m56.27 27.721c0 0 1.286-.474 1.286-2.72 0 0-12.43 0-23.949 0-2.125 0-4.762-.09-7.243 4.493-2.132 3.936-5.252 8.08-5.401 8.233-12.398 0-15.437 6.676-16.228 7.453-1.304 1.282-.858 9.447-.858 9.447h2.344 51.34c0 0 2.57 0 2.57-4.139-.001-4.189-3.857-22.767-3.857-22.767"/><g fill="#3e4347"><path d="m5.75 55.55c0 .507-.423.922-.938.922h-1.874c-.517 0-.938-.415-.938-.922v-4.608c0-.507.421-.922.938-.922h1.875c.515 0 .938.415.938.922v4.608"/><path d="m38.938 55.55c0 .507-.423.922-.938.922h-12c-.517 0-.938-.415-.938-.922v-1.843c0-.508.421-.922.938-.922h12c.515 0 .938.414.938.922v1.843"/><path d="m62 55.55c0 .507-.423.922-.938.922h-1.875c-.517 0-.938-.415-.938-.922v-5.529c0-.507.421-.921.938-.921h1.875c.515 0 .938.414.938.921v5.529"/></g><g fill="#b4d7ee"><path d="m16.06 44.658c3.673 0 6.859 2.174 8.467 5.36-.751-4.196-4.254-7.373-8.467-7.373-4.215 0-7.716 3.177-8.467 7.373 1.605-3.186 4.794-5.36 8.467-5.36"/><path d="m47.938 44.658c3.66 0 6.835 2.174 8.438 5.36-.749-4.196-4.239-7.373-8.438-7.373-4.2 0-7.688 3.177-8.438 7.373 1.601-3.186 4.777-5.36 8.438-5.36"/></g><path fill="#d6eef0" d="m3.875 49.1c0 0-.038-2.453.456-3.01.523-.587 1.816-.821 2.999-.596.943.178-.427 2.626-3.455 3.603"/><g fill="#3e4347"><path d="m41.737 38.17c0 .672.487 1.222 1.084 1.222h9.216c.596 0 .985-.537.865-1.195l-1.575-8.603c-.116-.659-.699-1.198-1.295-1.198h-7.211c-.597 0-1.084.55-1.084 1.222v8.552"/><path d="m39.5 29.614c0-.672-.499-1.222-1.107-1.222h-6.09c-.608 0-1.342.485-1.628 1.078l-4.478 8.853c-.295.586-.038 1.066.569 1.066h11.626c.608 0 1.107-.55 1.107-1.222v-8.553z"/><ellipse cx="16.06" cy="53.705" rx="8.438" ry="8.295"/></g><ellipse fill="#e8e8e8" cx="16.06" cy="53.705" rx="4.821" ry="4.739"/><g fill="#3e4347"><path d="m17.201 51.37c-.204.631-.718 1.148-1.139 1.148s-.935-.518-1.139-1.148l-.022-.072c-.205-.631.319-1.148 1.161-1.148.842 0 1.366.518 1.161 1.148l-.022.072"/><path d="m14.575 51.568c.454.49.654 1.186.441 1.543-.208.359-.92.537-1.579.396l-.076-.018c-.659-.143-.852-.846-.43-1.563.421-.718 1.137-.904 1.591-.413l.053.055"/><path d="m13.438 53.902c.659-.141 1.371.037 1.579.396.213.358.013 1.054-.439 1.544l-.055.055c-.454.49-1.17.303-1.591-.414-.422-.718-.229-1.42.43-1.563l.076-.018"/><path d="m14.924 56.04c.207-.633.718-1.148 1.139-1.148s.935.516 1.139 1.148l.022.071c.205.634-.319 1.149-1.161 1.149-.842 0-1.366-.516-1.161-1.149l.022-.071"/><path d="m17.55 55.841c-.454-.491-.654-1.185-.441-1.544.208-.359.92-.537 1.579-.396l.076.019c.659.142.852.846.43 1.563-.421.717-1.137.903-1.591.412l-.053-.054"/><path d="m18.688 53.51c-.659.143-1.371-.036-1.579-.395-.213-.359-.015-1.054.439-1.543l.055-.055c.454-.491 1.17-.304 1.591.414.422.717.229 1.419-.43 1.563l-.076.016"/></g><g fill="#e8e8e8"><path d="m18.694 57l-1.045.59-4.218-7.18 1.045-.594z"/><path d="m11.844 53.11h8.438v1.186h-8.438z"/><path d="m17.649 49.816l1.045.594-4.218 7.18-1.045-.59z"/></g><ellipse fill="#3e4347" cx="47.938" cy="53.705" rx="8.438" ry="8.295"/><ellipse fill="#e8e8e8" cx="47.938" cy="53.705" rx="4.821" ry="4.739"/><g fill="#3e4347"><path d="m49.08 51.37c-.204.631-.718 1.148-1.139 1.148s-.935-.518-1.139-1.148l-.022-.072c-.205-.631.319-1.148 1.161-1.148.842 0 1.366.518 1.161 1.148l-.022.072"/><path d="m46.45 51.568c.454.49.654 1.186.441 1.543-.208.359-.92.537-1.579.396l-.076-.018c-.659-.143-.852-.846-.43-1.563.421-.718 1.137-.904 1.591-.413l.053.055"/><path d="m45.31 53.902c.659-.141 1.371.037 1.579.396.213.358.013 1.054-.439 1.544l-.055.055c-.454.49-1.17.303-1.591-.414-.422-.718-.229-1.42.43-1.563l.076-.018"/><path d="m46.799 56.04c.207-.633.718-1.148 1.139-1.148s.935.516 1.139 1.148l.022.071c.205.634-.319 1.149-1.161 1.149-.842 0-1.366-.516-1.161-1.149l.022-.071"/><path d="m49.42 55.841c-.454-.491-.654-1.185-.441-1.544.208-.359.92-.537 1.579-.396l.076.019c.659.142.852.846.43 1.563-.421.717-1.137.903-1.591.412l-.053-.054"/><path d="m50.563 53.51c-.659.143-1.371-.036-1.579-.395-.213-.359-.015-1.054.439-1.543l.055-.055c.454-.491 1.17-.304 1.591.414.422.717.229 1.419-.43 1.563l-.076.016"/></g><g fill="#e8e8e8"><path d="m50.569 57l-1.049.59-4.21-7.18 1.04-.594z"/><path d="m43.719 53.11h8.438v1.186h-8.438z"/><path d="m49.52 49.816l1.049.594-4.219 7.18-1.04-.59z"/></g><g fill="#3e4347"><path d="m37.713 21c0 0-2.057.959-2.057 4h2.057c0 0-.172-2.613 1.943-4h-1.943"/><path d="m49.6 21c0 0 2.057.959 2.057 4h-2.057c0 0 .17-2.613-1.943-4h1.943"/><path d="m34.512 22h18.14c1.5 0 1.5-2 0-2h-18.14c-1.5.001-1.5 2 0 2"/></g></svg>