<svg xmlns="http://www.w3.org/2000/svg" viewBox="0 0 64 64" enable-background="new 0 0 64 64"><path fill="#94989b" d="m32 2c-8.25 0-15 6.751-15 15v30c0 8.251 6.75 15 15 15s15-6.749 15-15v-30c0-8.249-6.75-15-15-15"/><path fill="#3e4347" d="m32 3.875c-7.238 0-13.12 5.889-13.12 13.13v30c0 7.238 5.887 13.13 13.13 13.13s13.13-5.887 13.13-13.12v-30c0-7.236-5.887-13.12-13.12-13.12"/><circle fill="#ffe62e" cx="32" cy="32" r="7.5"/><circle fill="#ed4c5c" cx="32" cy="13.25" r="7.5"/><circle fill="#83bf4f" cx="32" cy="50.75" r="7.5"/></svg>