<svg xmlns="http://www.w3.org/2000/svg" viewBox="0 0 64 64" enable-background="new 0 0 64 64"><g fill="#3e4347"><path d="m7.111 6.895h49.777v50.21h-49.777z"/><ellipse cx="32" cy="57.1" rx="26" ry="4.895"/><ellipse cx="32" cy="23.571" rx="26" ry="4.895"/><ellipse cx="32" cy="40.43" rx="26" ry="4.895"/></g><g fill="#d0d0d0"><ellipse cx="32" cy="6.895" rx="26" ry="4.895"/><path d="m7.412 22.446c3.514 1.92 13.193 4.206 24.588 4.206s21.08-2.286 24.588-4.206c-6.227.917-14.94 2.394-24.588 2.394s-18.361-1.477-24.588-2.394"/><path d="m7.412 39.3c3.514 1.922 13.193 4.208 24.588 4.208s21.08-2.286 24.588-4.208c-6.227.919-14.94 2.395-24.588 2.395s-18.361-1.476-24.588-2.395"/><path d="m7.412 55.617c3.514 1.92 13.193 4.207 24.588 4.207s21.08-2.287 24.588-4.207c-6.227.918-14.94 2.395-24.588 2.395s-18.361-1.477-24.588-2.395"/></g><ellipse fill="#3e4347" cx="15.67" cy="6.894" rx="3.887" ry=".978"/></svg>