<svg xmlns="http://www.w3.org/2000/svg" xmlns:xlink="http://www.w3.org/1999/xlink" viewBox="0 0 1187.44 82.78"><defs><style>.cls-1{fill:url(#linear-gradient);}.cls-2{fill:#fff;}</style><linearGradient id="linear-gradient" x1="28.12" y1="35.05" x2="11.24" y2="64.29" gradientUnits="userSpaceOnUse"><stop offset="0" stop-color="#fff" stop-opacity="0.4"/><stop offset="0.92" stop-color="#fff"/></linearGradient></defs><title>Atlassian Partner Program-white-rgb</title><g id="Layer_2" data-name="Layer 2"><g id="White"><path class="cls-1" d="M19.35,30.11a1.86,1.86,0,0,0-3.16.34l-16,32a1.91,1.91,0,0,0,1.71,2.77H24.19a1.84,1.84,0,0,0,1.71-1.06C30.7,54.22,27.79,39.13,19.35,30.11Z"/><path class="cls-2" d="M31.09,1a42.19,42.19,0,0,0-2.46,41.65L39.36,64.15a1.91,1.91,0,0,0,1.71,1.06H63.34a1.91,1.91,0,0,0,1.71-2.77L34.34,1A1.81,1.81,0,0,0,31.09,1Z"/><path class="cls-2" d="M292.31,26.67c0,7.92,3.67,14.21,18,17,8.57,1.8,10.37,3.18,10.37,6s-1.8,4.57-7.84,4.57a44.24,44.24,0,0,1-20.82-5.63v12.9c4.33,2.12,10,4.49,20.66,4.49,15,0,21-6.7,21-16.66m0,0c0-9.39-5-13.8-19-16.82-7.76-1.71-9.64-3.43-9.64-5.88,0-3.1,2.78-4.41,7.92-4.41,6.21,0,12.33,1.88,18.13,4.49V14.42a41,41,0,0,0-17.72-3.67c-13.88,0-21.07,6-21.07,15.92"/><polygon class="cls-2" points="485.33 11.56 485.33 65.21 496.76 65.21 496.76 24.3 501.58 35.16 517.75 65.21 532.12 65.21 532.12 11.56 520.69 11.56 520.69 46.18 516.36 36.14 503.38 11.56 485.33 11.56"/><rect class="cls-2" x="400.13" y="11.56" width="12.49" height="53.65"/><path class="cls-2" d="M385.72,49.37c0-9.39-5-13.8-19-16.82-7.76-1.71-9.64-3.43-9.64-5.88,0-3.1,2.78-4.41,7.92-4.41,6.21,0,12.33,1.88,18.13,4.49V14.42a41,41,0,0,0-17.72-3.67c-13.88,0-21.07,6-21.07,15.92,0,7.92,3.67,14.21,18,17,8.57,1.8,10.37,3.18,10.37,6s-1.8,4.57-7.84,4.57a44.24,44.24,0,0,1-20.82-5.63v12.9c4.33,2.12,10,4.49,20.66,4.49,15,0,21-6.7,21-16.66"/><polygon class="cls-2" points="195.26 11.56 195.26 65.21 220.94 65.21 224.99 53.61 207.84 53.61 207.84 11.56 195.26 11.56"/><polygon class="cls-2" points="144.53 11.56 144.53 23.16 158.41 23.16 158.41 65.21 170.99 65.21 170.99 23.16 185.85 23.16 185.85 11.56 144.53 11.56"/><path class="cls-2" d="M126.3,11.56H109.82L91.11,65.21H105.4l2.65-9a35.51,35.51,0,0,0,20,0l2.65,9H145ZM118.06,46.5a24.4,24.4,0,0,1-6.87-1l6.87-23.42,6.87,23.42A24.4,24.4,0,0,1,118.06,46.5Z"/><path class="cls-2" d="M265.21,11.56H248.73L230,65.21h14.29l2.65-9a35.51,35.51,0,0,0,20,0l2.65,9h14.29ZM257,46.5a24.4,24.4,0,0,1-6.87-1L257,22.1l6.87,23.42A24.4,24.4,0,0,1,257,46.5Z"/><path class="cls-2" d="M457.64,11.56H441.17L422.46,65.21h14.29l2.65-9a35.51,35.51,0,0,0,20,0l2.65,9h14.29ZM449.4,46.5a24.4,24.4,0,0,1-6.87-1L449.4,22.1l6.87,23.42A24.4,24.4,0,0,1,449.4,46.5Z"/><path class="cls-2" d="M590.28,7.28c14.43,0,21.47,7.39,21.47,19.27,0,12.58-7,19.62-21.47,19.62H578.75V65.09h-7.92V7.28Zm13.29,19.45c0-7-4-11.88-14.17-11.88H578.75V38.6H589.4C599.61,39,603.57,34.12,603.57,26.72Z"/><path class="cls-2" d="M648.53,57.17c-2.82,5.81-8.1,8.8-14.87,8.8-11.7,0-17.6-9.94-17.6-22.88,0-12.41,6.16-22.88,18.48-22.88,6.42,0,11.35,2.9,14,8.62V21.09h7.57v44h-7.57Zm-12.85,1.76c6.78,0,12.85-4.31,12.85-14.08V41.33c0-9.77-5.54-14.08-12-14.08-8.54,0-12.94,5.63-12.94,15.84C623.63,53.65,627.85,58.93,635.69,58.93Z"/><path class="cls-2" d="M667.54,21.09h7.39v7.74c2.55-5.19,7-8.89,15.58-8.36v7.39c-9.68-1-15.58,1.94-15.58,11.26v26h-7.39Z"/><path class="cls-2" d="M714.45,57.7a24,24,0,0,0,4.75-.62v7.3a18.15,18.15,0,0,1-5.1.7c-9.42,0-14-5.54-14-13.73V28.13H693v-7h7.13V11.76h7.39v9.33h11.7v7h-11.7V51.19C707.49,55.06,709.78,57.7,714.45,57.7Z"/><path class="cls-2" d="M766.28,65.09h-7.57V38.52c0-7.92-3.17-11.44-10.38-11.44-7,0-11.88,4.66-11.88,13.55V65.09h-7.57v-44h7.57v7.22a15.42,15.42,0,0,1,13.9-8.1c10.12,0,15.93,7,15.93,19.1Z"/><path class="cls-2" d="M797.87,66c-16.46,0-23.67-9.5-23.67-23,0-13.29,7.39-22.79,20.77-22.79,13.55,0,19,9.42,19,22.79v3.43H781.85c1.06,7.48,5.9,12.32,16.28,12.32a39,39,0,0,0,13.38-2.38v7C807.9,65.27,802.36,66,797.87,66Zm-16.1-26h24.55c-.44-8.18-4.14-12.85-11.7-12.85C786.61,27.08,782.56,32.27,781.77,39.92Z"/><path class="cls-2" d="M822.95,21.09h7.39v7.74c2.55-5.19,7-8.89,15.58-8.36v7.39c-9.68-1-15.58,1.94-15.58,11.26v26h-7.39Z"/><path class="cls-2" d="M889.39,7.28c14.43,0,21.47,7.39,21.47,19.27,0,12.58-7,19.62-21.47,19.62H877.86V65.09h-7.92V7.28Zm13.29,19.45c0-7-4-11.88-14.17-11.88H877.86V38.6h10.65C898.71,39,902.67,34.12,902.67,26.72Z"/><path class="cls-2" d="M917.81,21.09h7.39v7.74c2.55-5.19,7-8.89,15.58-8.36v7.39c-9.68-1-15.58,1.94-15.58,11.26v26h-7.39Z"/><path class="cls-2" d="M943.77,43c0-13.2,7.74-22.79,20.94-22.79S985.48,29.8,985.48,43s-7.66,23-20.77,23S943.77,56.2,943.77,43Zm7.39,0c0,8.36,4.14,15.93,13.55,15.93S978.09,51.36,978.09,43s-4-15.75-13.37-15.75S951.16,34.64,951.16,43Z"/><path class="cls-2" d="M1023.94,57.17c-2.82,5.81-8.1,8.8-14.87,8.8-11.62,0-17.42-9.94-17.42-22.88,0-12.41,6.07-22.88,18.3-22.88,6.42,0,11.35,2.9,14,8.62V21.09h7.39v40c0,12.94-6.07,21.65-21.82,21.65a44.31,44.31,0,0,1-15.66-2.38V73a48.61,48.61,0,0,0,15.31,2.64c11,0,14.78-5.9,14.78-14.08Zm-12.85,1.76c6.78,0,12.85-4.31,12.85-14.08V41.33c0-9.77-5.54-14.08-12-14.08-8.54,0-12.94,5.63-12.94,15.84C999,53.65,1003.26,58.93,1011.09,58.93Z"/><path class="cls-2" d="M1042.77,21.09h7.39v7.74c2.55-5.19,7-8.89,15.58-8.36v7.39c-9.68-1-15.58,1.94-15.58,11.26v26h-7.39Z"/><path class="cls-2" d="M1101.2,57.17c-2.82,5.81-8.1,8.8-14.87,8.8-11.7,0-17.6-9.94-17.6-22.88,0-12.41,6.16-22.88,18.48-22.88,6.42,0,11.35,2.9,14,8.62V21.09h7.57v44h-7.57Zm-12.85,1.76c6.78,0,12.85-4.31,12.85-14.08V41.33c0-9.77-5.54-14.08-12-14.08-8.54,0-12.94,5.63-12.94,15.84C1076.3,53.65,1080.52,58.93,1088.35,58.93Z"/><path class="cls-2" d="M1157.61,65.09H1150V38.52c0-7.92-3.17-11.44-10.38-11.44-7,0-11.88,4.66-11.88,13.55V65.09h-7.57v-44h7.57v7.22a15.42,15.42,0,0,1,13.9-8.1c7.48,0,12.58,3.78,14.78,10.74,2.46-6.78,8.36-10.74,15.66-10.74,9.86,0,15.31,6.69,15.31,19.1V65.09h-7.57V40.63c0-9.06-3.17-13.55-10.38-13.55-7,0-11.88,4.66-11.88,13.55Z"/></g></g></svg>