<?xml version="1.0" encoding="UTF-8"?>
<svg height="100%" width="100%" xmlns="http://www.w3.org/2000/svg">
	<defs>
		<font horiz-adv-x="610" id="web">
			<font-face alphabetic="0" ascent="992" descent="-290" font-family="" panose-1="2 11 2 5 2 2 2 2 2 3"/>
			<missing-glyph d="M49 718H561V0H49ZM99 667V50H511V667ZM308 609Q363 609 397 573T432 478Q432 444 419 418T369 358Q344 335 334 321T322 290T320 234H274L272 251Q272 300 283 327T331 391Q358 417 369 434T381 474Q381 515 359 537T305 559Q272 559 250 536T223 464L173 472Q179 541 215 575T308 609ZM271 184H327V117H271Z"/>
			<glyph d="" horiz-adv-x="240" unicode=" "/>
			<glyph d="M133 708H155V357L153 200H135L133 357ZM144 43Q168 43 168 19Q168 -4 144 -4Q120 -4 120 19Q120 43 144 43Z" horiz-adv-x="288" unicode="!"/>
			<glyph d="M90 708H112L110 480H90ZM235 708H257L255 480H235Z" horiz-adv-x="347" unicode="&quot;"/>
			<glyph d="M307 648H327L278 462H516L565 648H585L536 462H654V444H532L470 206H601V186H465L416 0H396L445 186H207L158 0H138L187 186H70V206H192L254 444H123V462H258ZM274 444L212 206H450L512 444Z" horiz-adv-x="724" unicode="#"/>
			<glyph d="M303 752H323V681Q433 678 516 621L505 607Q420 661 319 661Q237 661 187 626T137 529Q137 470 177 440T310 387Q382 369 426 348T495 292T519 202Q519 125 465 80T323 34V-44H303V34Q236 35 185 54T92 108L105 124Q151 88 199 71T307 55Q393 55 445 93T497 202Q497 252 474 283T410 333T306 368Q238 384 197 403T136 452T115 529Q115 597 166 637T303 681Z" unicode="$"/>
			<glyph d="M318 721Q382 721 427 691T494 615T517 514Q517 460 494 413T427 337T318 308Q254 308 209 337T141 413T119 514Q119 568 141 615T209 691T318 721ZM806 709H830L412 0H388ZM318 702Q260 702 220 675T160 604T141 514Q141 467 160 424T220 354T318 327Q376 327 416 354T475 424T495 514Q495 561 475 604T416 675T318 702ZM903 402Q967 402 1012 372T1079 296T1102 195Q1102 141 1079 94T1012 18T903 -11Q839 -11 794 18T726 94T704 195Q704 249 726 296T794 372T903 402ZM903 383Q845 383 805 356T745 285T726 195Q726 148 745 105T805 35T903 8Q961 8 1001 35T1060 105T1080 195Q1080 242 1060 285T1001 356T903 383Z" horiz-adv-x="1220" unicode="%"/>
			<glyph d="M276 722Q324 722 360 702T415 649T435 577Q435 529 413 495T350 435T242 378L499 122Q522 160 540 212T567 323L585 321Q577 259 558 204T512 109L622 -1L608 -14L501 93Q461 42 405 14T270 -14Q211 -14 163 9T87 75T60 176Q60 244 96 295T212 382Q157 438 135 475T113 569Q113 638 159 680T276 722ZM277 703Q213 703 173 667T134 569Q134 516 153 481T229 391Q297 421 335 444T393 499T414 577Q414 630 376 666T277 703ZM225 369Q145 330 113 285T82 177Q82 93 134 49T270 6Q413 6 488 106Z" horiz-adv-x="642" unicode="&amp;"/>
			<glyph d="M90 708H112L110 480H90Z" horiz-adv-x="202" unicode="'"/>
			<glyph d="M249 822L265 812Q185 701 141 593T97 354Q97 223 140 116T265 -104L249 -114Q163 2 119 108T75 354Q75 493 119 600T249 822Z" horiz-adv-x="340" unicode="("/>
			<glyph d="M91 822Q176 707 220 600T265 354Q265 215 221 108T91 -114L75 -104Q156 9 199 116T243 354Q243 485 199 593T75 812Z" horiz-adv-x="340" unicode=")"/>
			<glyph d="M183 708H202L200 582L320 623L326 606L205 569L282 466L267 455L193 560L119 455L104 466L181 569L60 606L66 623L185 582Z" horiz-adv-x="386" unicode="*"/>
			<glyph d="M295 488H315V298H505V279H315V88H295V279H105V298H295Z" unicode="+"/>
			<glyph d="M118 43Q143 43 143 12Q143 -32 127 -70T70 -156L60 -148Q95 -104 107 -70T122 0Q95 0 95 21Q95 31 101 37T118 43Z" horiz-adv-x="239" unicode=","/>
			<glyph d="M50 303H255V284H50Z" horiz-adv-x="305" unicode="-"/>
			<glyph d="M120 43Q144 43 144 19Q144 -4 120 -4Q96 -4 96 19Q96 43 120 43Z" horiz-adv-x="240" unicode="."/>
			<glyph d="M359 779H381L161 -75H139Z" horiz-adv-x="520" unicode="/"/>
			<glyph d="M305 722Q434 722 497 623T560 354Q560 184 497 85T305 -14Q176 -14 113 85T50 354Q50 524 113 623T305 722ZM305 703Q186 703 129 609T72 354Q72 193 129 99T305 5Q424 5 481 99T538 354Q538 515 481 609T305 703Z" unicode="0"/>
			<glyph d="M327 708H345V20H507V0H128V19L323 20V681L113 563L102 581Z" unicode="1"/>
			<glyph d="M293 722Q361 722 409 697T482 629T507 536Q507 462 472 398T357 255T101 20H537V0H71V19Q252 177 335 260T452 404T485 535Q485 609 434 656T292 703Q226 703 177 681T80 613L67 626Q121 676 171 699T293 722Z" unicode="2"/>
			<glyph d="M292 722Q390 722 445 673T500 544Q500 467 460 427T364 376V374Q427 369 474 326T522 197Q522 99 458 42T282 -14Q202 -14 148 7T47 75L60 87Q108 42 158 23T282 5Q386 5 443 55T500 195Q500 283 445 323T307 364H203V383H295Q375 383 426 424T478 544Q478 619 429 661T291 703Q226 703 177 686T81 631L69 644Q117 685 168 703T292 722Z" unicode="3"/>
			<glyph d="M305 708H329L65 221H416V447H438V221H570V201H438V0H416V201H40V219Z" unicode="4"/>
			<glyph d="M111 708H506V689H133V391Q213 431 313 431Q420 431 479 375T538 224Q538 117 473 51T286 -14Q215 -14 162 7T60 75L74 87Q124 43 173 24T286 5Q397 5 456 64T516 224Q516 314 462 363T314 412Q257 412 215 402T130 369H111Z" unicode="5"/>
			<glyph d="M341 722Q391 722 427 710T500 675L489 660Q455 682 421 692T341 703Q216 703 151 601T83 330Q128 387 186 420T327 454Q431 454 492 395T554 235Q554 122 490 54T311 -14Q182 -14 121 73T61 308Q61 503 132 612T341 722ZM327 435Q246 435 187 399T83 298Q85 160 137 82T311 5Q418 5 475 67T532 234Q532 329 477 382T327 435Z" unicode="6"/>
			<glyph d="M51 707H569V689Q416 520 335 355T232 0H210Q235 184 313 351T542 687H51Z" unicode="7"/>
			<glyph d="M305 722Q362 722 411 702T489 643T518 550Q518 487 483 446T367 366Q438 342 478 318T536 260T555 177Q555 119 524 76T436 9T304 -14Q187 -14 121 38T55 178Q55 255 101 305T245 387Q161 417 126 453T92 551Q92 603 121 641T198 701T305 722ZM305 703Q224 703 169 661T114 550Q114 511 128 484T177 437T275 395L345 373Q426 412 461 451T496 549Q496 621 442 662T305 703ZM271 378Q166 345 121 299T77 178Q77 98 137 51T304 5Q408 5 470 51T533 176Q533 227 512 258T449 312T329 360Z" unicode="8"/>
			<glyph d="M303 722Q430 722 489 640T549 400Q549 273 501 179T362 36T144 -14V6Q262 6 347 52T478 181T527 376Q491 321 431 287T288 254Q220 254 167 281T85 359T56 483Q56 553 84 607T168 691T303 722ZM303 703Q194 703 136 642T78 484Q78 383 135 328T288 273Q369 273 429 309T527 408Q525 555 473 629T303 703Z" unicode="9"/>
			<glyph d="M120 43Q144 43 144 19Q144 -4 120 -4Q96 -4 96 19Q96 43 120 43ZM123 440Q147 440 147 416Q147 393 123 393Q99 393 99 416Q99 440 123 440Z" horiz-adv-x="243" unicode=":"/>
			<glyph d="M130 440Q154 440 154 416Q154 393 130 393Q106 393 106 416Q106 440 130 440ZM118 43Q143 43 143 12Q143 -32 127 -70T70 -156L60 -148Q95 -104 107 -70T122 0Q95 0 95 21Q95 31 101 37T118 43Z" horiz-adv-x="250" unicode=";"/>
			<glyph d="M489 512L499 495L135 284L499 73L489 56L111 274V294Z" unicode="&lt;"/>
			<glyph d="M105 203H505V184H105ZM105 403H505V384H105Z" unicode="="/>
			<glyph d="M121 512L499 294V274L121 56L111 73L475 284L111 495Z" unicode="&gt;"/>
			<glyph d="M231 722Q287 722 329 700T394 639T417 552Q417 507 401 473T363 416T304 363Q261 327 240 302T220 241V200H200V242Q200 283 221 310T289 376Q324 404 345 426T380 479T395 551Q395 620 350 661T230 703Q164 703 118 678T35 613L20 625Q63 672 111 697T231 722ZM210 43Q234 43 234 19Q234 -4 210 -4Q186 -4 186 19Q186 43 210 43Z" horiz-adv-x="467" unicode="?"/>
			<glyph d="M488 677Q606 677 689 636T816 525T859 366Q859 231 816 165T708 100Q653 100 627 135T602 213Q580 164 535 133T431 102Q364 102 326 146T288 267Q288 373 345 438T505 504Q583 504 659 460L623 251Q620 235 620 219Q620 174 643 145T708 117Q763 117 800 178T838 365Q838 450 798 516T679 620T488 658Q377 658 294 608T166 475T122 292Q122 185 165 106T291 -15T487 -58Q546 -58 591 -48T681 -24L687 -41Q590 -77 486 -77Q369 -77 282 -32T148 96T101 292Q101 396 148 484T283 625T488 677ZM502 485Q407 485 358 422T309 268Q309 200 341 160T435 120Q483 120 519 144T578 206T608 283L637 450Q607 465 575 475T502 485Z" horiz-adv-x="960" unicode="@"/>
			<glyph d="M305 708H335L625 0H601L518 203H120L39 0H15ZM320 694L128 222H510Z" horiz-adv-x="640" unicode="A"/>
			<glyph d="M105 708H323Q410 708 463 668T517 541Q517 475 476 431T380 377V375Q457 366 503 319T550 192Q550 93 488 46T332 0H105ZM127 689V383H307Q387 383 441 423T495 541Q495 619 447 654T320 689ZM127 364V19H322Q414 19 471 60T528 192Q528 274 473 319T326 364Z" horiz-adv-x="604" unicode="B"/>
			<glyph d="M401 722Q532 722 626 640L612 625Q522 703 401 703Q300 703 228 658T119 534T82 354Q82 253 118 174T227 51T401 6Q466 6 526 30T630 98L644 83Q597 36 534 11T401 -14Q293 -14 216 32T99 162T60 354Q60 462 99 545T216 675T401 722Z" horiz-adv-x="669" unicode="C"/>
			<glyph d="M105 708H306Q477 708 568 619T660 354Q660 178 568 89T306 0H105ZM127 689V19H301Q464 19 551 103T638 354Q638 523 551 606T301 689Z" horiz-adv-x="720" unicode="D"/>
			<glyph d="M105 708H507V689H126V377H464V358H126V19H523V0H105Z" horiz-adv-x="555" unicode="E"/>
			<glyph d="M105 708H509V689H127V377H472V358H127V0H105Z" horiz-adv-x="530" unicode="F"/>
			<glyph d="M409 722Q540 722 634 640L620 625Q530 703 409 703Q306 703 232 658T120 534T82 354Q82 251 119 172T228 49T404 5Q473 5 526 20T636 62V311H442V330H657V51Q593 19 537 2T404 -14Q293 -14 215 32T99 162T60 354Q60 463 101 546T220 675T409 722Z" horiz-adv-x="752" unicode="G"/>
			<glyph d="M105 708H127V376H597V708H619V0H597V356H127V0H105Z" horiz-adv-x="724" unicode="H"/>
			<glyph d="M63 708H261V689H173V19H261V0H63V19H151V689H63Z" horiz-adv-x="324" unicode="I"/>
			<glyph d="M288 708H310V187Q310 96 266 41T129 -14Q65 -14 10 16L19 32Q43 19 72 12T129 5Q210 5 249 55T288 188Z" horiz-adv-x="405" unicode="J"/>
			<glyph d="M105 708H127V338L487 708H517L204 387L535 0H506L188 371L127 308V0H105Z" horiz-adv-x="553" unicode="K"/>
			<glyph d="M105 708H127V20H479V0H105Z" horiz-adv-x="484" unicode="L"/>
			<glyph d="M105 708H142L450 32H452L758 708H795V0H773V683H771L460 0H442L129 683H127V0H105Z" horiz-adv-x="900" unicode="M"/>
			<glyph d="M105 708H133L643 29H645V708H667V0H638L129 680H127V0H105Z" horiz-adv-x="772" unicode="N"/>
			<glyph d="M404 722Q513 722 590 675T708 545T748 354Q748 246 708 162T590 32T404 -14Q295 -14 217 32T100 162T60 354Q60 462 100 545T217 675T404 722ZM404 703Q302 703 229 658T119 535T82 354Q82 252 119 173T229 49T404 5Q506 5 578 49T688 173T726 354Q726 456 688 535T578 658T404 703Z" horiz-adv-x="808" unicode="O"/>
			<glyph d="M105 708H315Q413 708 480 656T548 487Q548 417 516 367T431 293T319 268H127V0H105ZM127 689V287H320Q375 287 422 310T497 378T526 487Q526 593 464 641T315 689Z" horiz-adv-x="584" unicode="P"/>
			<glyph d="M404 722Q513 722 590 675T708 545T748 354Q748 248 709 165T596 36T417 -14Q436 -65 469 -96T558 -142T706 -157V-176Q609 -176 548 -158T452 -105T395 -14Q289 -12 213 35T99 164T60 354Q60 462 100 545T217 675T404 722ZM404 703Q302 703 229 658T119 535T82 354Q82 252 119 173T229 49T404 5Q506 5 578 49T688 173T726 354Q726 456 688 535T578 658T404 703Z" horiz-adv-x="808" unicode="Q"/>
			<glyph d="M105 708H316Q373 708 422 685T503 615T534 496Q534 435 508 390T439 320T345 289L541 0H516L322 288H127V0H105ZM127 689V307H315Q369 307 414 329T485 393T512 496Q512 561 484 604T411 668T316 689Z" horiz-adv-x="594" unicode="R"/>
			<glyph d="M278 722Q388 722 470 659L458 645Q419 674 376 688T277 703Q191 703 138 662T85 549Q85 503 105 473T163 425T265 389Q339 368 386 344T459 280T486 179Q486 88 425 37T267 -14Q131 -14 36 71L49 85Q98 44 149 25T266 6Q352 6 408 51T464 179Q464 260 414 301T263 369Q193 388 150 409T86 464T64 549Q64 629 122 675T278 722Z" horiz-adv-x="534" unicode="S"/>
			<glyph d="M5 708H509V688H268V0H246V688H5Z" horiz-adv-x="514" unicode="T"/>
			<glyph d="M95 708H117V253Q117 6 365 6Q613 6 613 253V708H635V252Q635 -14 365 -14Q95 -14 95 252Z" horiz-adv-x="730" unicode="U"/>
			<glyph d="M15 708H38L298 19H300L560 708H583L315 0H282Z" horiz-adv-x="598" unicode="V"/>
			<glyph d="M25 708H48L252 20H254L455 708H488L693 20H695L899 708H922L710 0H677L472 687H470L269 0H237Z" horiz-adv-x="947" unicode="W"/>
			<glyph d="M49 708H75L288 388L502 708H527L301 371L551 0H525L287 354L51 0H25L274 372Z" horiz-adv-x="576" unicode="X"/>
			<glyph d="M0 708H25L254 330H256L483 708H508L265 308V0H243V310Z" horiz-adv-x="508" unicode="Y"/>
			<glyph d="M55 708H516V682L63 19H528V0H42V24L496 689H55Z" horiz-adv-x="581" unicode="Z"/>
			<glyph d="M82 799H257V779H103V-89H257V-109H82Z" horiz-adv-x="340" unicode="["/>
			<glyph d="M139 779H161L381 -75H359Z" horiz-adv-x="520" unicode="\"/>
			<glyph d="M83 799H258V-109H83V-89H237V779H83Z" horiz-adv-x="340" unicode="]"/>
			<glyph d="M295 708H317L470 505L456 494L306 690L155 494L141 505Z" unicode="^"/>
			<glyph d="M60 -108H550V-127H60Z" unicode="_"/>
			<glyph d="M44 722L185 606L174 593L30 704Z" horiz-adv-x="215" unicode="`"/>
			<glyph d="M247 506Q423 506 423 328V105Q423 48 428 0H408Q403 48 403 94H401Q376 41 325 13T205 -15Q130 -15 89 22T48 128Q48 191 79 227T174 278T344 293Q381 293 401 292V328Q401 487 247 487Q199 487 162 475T90 440L80 455Q152 506 247 506ZM346 274Q247 274 188 261T99 217T70 128Q70 68 105 36T205 4Q271 4 315 31T380 96T401 168V273Z" horiz-adv-x="509" unicode="a"/>
			<glyph d="M100 708H122V380H124Q149 440 202 473T322 506Q392 506 441 472T517 379T543 245Q543 171 516 112T437 19T315 -14Q251 -14 205 10T122 81L118 0H100ZM323 487Q262 487 216 459T146 385T122 286V115Q162 58 208 31T315 5Q380 5 426 37T497 123T521 245Q521 313 498 368T430 455T323 487Z" horiz-adv-x="602" unicode="b"/>
			<glyph d="M289 506Q336 506 378 491T449 452L437 438Q379 487 289 487Q188 487 134 420T81 246Q81 139 135 72T289 5Q370 5 436 54L447 40Q415 15 374 0T289 -14Q180 -14 119 57T59 246Q59 364 119 435T289 506Z" horiz-adv-x="492" unicode="c"/>
			<glyph d="M480 708H502V105Q502 48 507 0H486Q481 48 481 110H479Q450 46 399 16T283 -14Q213 -14 162 19T85 111T59 247Q59 321 87 380T166 472T286 506Q352 506 398 480T480 407ZM286 487Q224 487 177 455T106 368T81 247Q81 178 104 123T174 36T283 5Q343 5 388 32T456 105T480 206V374Q443 431 397 459T286 487Z" horiz-adv-x="601" unicode="d"/>
			<glyph d="M277 506Q378 506 432 438T486 258V242H81Q83 139 134 72T283 5Q334 5 373 19T452 60L463 45Q423 17 380 1T283 -14Q175 -14 117 59T59 251Q59 326 85 383T161 473T277 506ZM276 487Q215 487 171 456T104 374T81 259H465Q463 366 415 426T276 487Z" horiz-adv-x="544" unicode="e"/>
			<glyph d="M248 722Q285 722 314 715L310 698Q278 704 249 704Q193 704 163 669T134 571V492H268V473H134V0H112V473H15V487L112 492V570Q112 644 147 683T248 722Z" horiz-adv-x="288" unicode="f"/>
			<glyph d="M240 502Q265 502 281 499T319 492H478V473L350 476Q385 459 408 421T431 328Q431 244 381 198T238 153Q187 153 150 135T113 90Q113 39 218 39Q361 39 419 6T477 -92Q477 -170 411 -214T228 -258Q128 -258 76 -221T25 -117Q25 -70 53 -35T154 28Q92 44 92 90Q92 115 113 133T175 162Q116 174 83 216T51 328Q51 408 101 455T240 502ZM240 483Q161 483 117 441T73 328Q73 252 115 212T240 172Q324 172 366 212T409 328Q409 399 364 441T240 483ZM182 21Q107 -5 77 -38T47 -117Q47 -176 92 -207T228 -239Q337 -239 396 -201T455 -92Q455 -52 431 -27T351 9T182 21Z" horiz-adv-x="504" unicode="g"/>
			<glyph d="M100 708H122V385H124Q146 437 194 471T313 506Q406 506 451 450T496 307V0H474V305Q474 383 435 435T313 487Q257 487 213 461T146 392T122 296V0H100Z" horiz-adv-x="586" unicode="h"/>
			<glyph d="M100 492H122V0H100ZM111 708Q135 708 135 684Q135 661 111 661Q87 661 87 684Q87 708 111 708Z" horiz-adv-x="222" unicode="i"/>
			<glyph d="M100 492H122V-127Q122 -195 94 -226T10 -258Q-4 -258 -19 -255L-16 -237Q-2 -239 10 -239Q58 -239 79 -212T100 -127ZM111 708Q135 708 135 684Q135 661 111 661Q87 661 87 684Q87 708 111 708Z" horiz-adv-x="222" unicode="j"/>
			<glyph d="M100 708H122V248L389 492H420L195 287L450 0H420L179 273L122 220V0H100Z" horiz-adv-x="455" unicode="k"/>
			<glyph d="M100 708H122V0H100Z" horiz-adv-x="222" unicode="l"/>
			<glyph d="M303 506Q375 506 415 468T468 360H470Q489 429 540 467T661 506Q747 506 790 451T834 317V0H812V315Q812 359 796 398T746 462T661 487Q604 487 561 457T496 379T474 273V0H453V305Q453 381 417 434T303 487Q249 487 207 461T143 392T121 296V0H99V387Q99 444 94 492H114Q119 444 119 382H121Q141 438 189 472T303 506Z" horiz-adv-x="924" unicode="m"/>
			<glyph d="M312 506Q405 506 450 450T495 307V0H473V305Q473 383 434 435T312 487Q256 487 212 461T145 392T121 296V0H99V387Q99 444 94 492H114Q119 444 119 382H121Q145 439 193 472T312 506Z" horiz-adv-x="585" unicode="n"/>
			<glyph d="M290 507Q401 507 462 436T523 247Q523 129 462 57T290 -14Q180 -14 119 57T59 247Q59 365 119 436T290 507ZM290 488Q189 488 135 421T81 247Q81 140 135 72T290 5Q392 5 446 71T501 247Q501 355 446 421T290 488Z" horiz-adv-x="582" unicode="o"/>
			<glyph d="M321 506Q391 506 440 472T516 379T542 245Q542 171 515 112T436 19T314 -14Q251 -14 204 10T121 81V-244H99V387Q99 444 94 492H114Q119 444 119 372H121Q146 438 199 472T321 506ZM322 487Q261 487 215 459T145 385T121 286V115Q161 58 207 31T314 5Q379 5 425 36T496 122T520 245Q520 313 497 368T429 455T322 487Z" horiz-adv-x="601" unicode="p"/>
			<glyph d="M286 506Q352 506 398 480T480 407L484 492H502V-244H480V109H478Q451 46 399 16T283 -14Q213 -14 162 19T85 111T59 247Q59 321 87 380T166 472T286 506ZM286 487Q224 487 177 455T106 368T81 247Q81 178 104 123T173 36T283 5Q343 5 388 32T456 105T480 206V374Q443 431 397 459T286 487Z" horiz-adv-x="602" unicode="q"/>
			<glyph d="M290 506Q303 506 313 504L311 486Q301 487 289 487Q208 487 164 428T121 274V0H99V387Q99 444 94 492H114Q119 444 119 382H121Q161 506 290 506Z" horiz-adv-x="318" unicode="r"/>
			<glyph d="M199 506Q290 506 351 455L339 440Q281 487 199 487Q138 487 102 460T67 387Q67 341 99 315T212 271Q294 252 329 218T365 126Q365 63 320 24T202 -14Q148 -14 106 1T30 45L42 59Q80 31 115 18T203 5Q265 5 304 37T343 125Q343 161 330 184T286 224T199 254Q114 274 79 305T45 386Q45 442 87 474T199 506Z" horiz-adv-x="415" unicode="s"/>
			<glyph d="M134 636V492H279V473H134V100Q134 51 157 28T220 5Q251 5 278 14L282 -3Q255 -14 219 -14Q169 -14 140 15T112 100V473H15V488L112 492V628Z" horiz-adv-x="312" unicode="t"/>
			<glyph d="M90 492H112V194Q112 112 151 58T270 4Q328 4 372 35T440 120T464 236V492H486V105Q486 48 491 0H471Q466 48 466 129H464Q438 60 389 22T270 -15Q179 -15 134 42T90 193Z" horiz-adv-x="585" unicode="u"/>
			<glyph d="M15 492H39L224 22H226L405 492H429L240 0H210Z" horiz-adv-x="444" unicode="v"/>
			<glyph d="M30 492H53L185 22H187L339 492H370L523 22H525L657 492H680L539 0H509L355 469H353L200 0H170Z" horiz-adv-x="710" unicode="w"/>
			<glyph d="M38 492H64L226 275L387 492H413L240 259L441 0H414L225 243L42 0H16L211 259Z" horiz-adv-x="457" unicode="x"/>
			<glyph d="M15 492H38L220 26H221L393 492H416L176 -157Q156 -210 128 -234T58 -258Q34 -258 16 -251L21 -234Q38 -239 58 -239Q97 -239 120 -216T158 -149L208 -2Z" horiz-adv-x="431" unicode="y"/>
			<glyph d="M56 492H366V470L62 19H378V0H40V21L344 473H56Z" horiz-adv-x="418" unicode="z"/>
			<glyph d="M285 799V778Q233 778 201 747T169 659V458Q169 407 144 382T74 346V344Q120 333 144 308T169 232V31Q169 -27 201 -57T285 -88V-109Q225 -109 186 -73T147 31V232Q147 317 55 333V357Q97 364 122 389T147 458V659Q147 727 186 763T285 799Z" horiz-adv-x="340" unicode="{"/>
			<glyph d="M150 808H172V-100H150Z" horiz-adv-x="322" unicode="|"/>
			<glyph d="M55 799Q115 799 154 763T193 659V458Q193 414 218 389T285 357V333Q193 317 193 232V31Q193 -37 154 -73T55 -109V-88Q107 -88 139 -57T171 31V232Q171 283 195 308T266 344V346Q220 357 195 382T171 458V659Q171 717 139 747T55 778Z" horiz-adv-x="340" unicode="}"/>
			<glyph d="M224 320Q245 320 264 313T310 292Q334 279 352 272T390 265Q417 265 438 276T485 317L497 308Q473 276 447 261T390 246Q369 246 349 253T302 275Q275 288 258 294T224 301Q198 301 174 289T125 249L113 258Q164 320 224 320Z" unicode="~"/>
			<glyph d="" horiz-adv-x="240" unicode=" "/>
			<glyph d="M135 302H153L155 145V-206H133V145ZM144 506Q168 506 168 483Q168 459 144 459Q120 459 120 483Q120 506 144 506Z" horiz-adv-x="288" unicode="¡"/>
			<glyph d="M331 708H351L350 614Q394 612 433 598T500 560L488 546Q430 595 340 595Q239 595 185 528T132 354Q132 247 186 180T340 113Q421 113 487 162L498 148Q431 97 350 94L351 0H331L332 94Q226 97 168 168T110 354Q110 470 168 540T332 614Z" unicode="¢"/>
			<glyph d="M325 722Q385 722 429 700T512 636L497 623Q461 663 421 682T325 702Q247 702 202 659T158 545Q158 502 170 469T207 390L218 370H420V351H227Q259 285 259 218Q259 145 220 96T122 22V20H518V0H88V20Q160 57 199 101T238 218Q238 256 229 288T204 351H92V370H194Q191 376 173 409T146 476T137 545Q137 623 187 672T325 722Z" unicode="£"/>
			<glyph d="M129 506L202 412Q243 438 305 438Q367 438 408 412L481 506L497 494L424 401Q478 356 478 269Q478 182 423 137L497 44L481 32L408 126Q367 100 305 100Q243 100 202 126L129 32L113 44L187 137Q132 182 132 269Q132 357 187 402L113 495ZM305 419Q229 419 191 379T154 269Q154 200 192 159T305 119Q380 119 418 159T456 269Q456 339 418 379T305 419Z" unicode="¤"/>
			<glyph d="M46 708H71L300 327H302L529 708H554L321 325H464V308H311V228H464V211H311V0H289V211H136V228H289V308H136V325H280Z" horiz-adv-x="600" unicode="¥"/>
			<glyph d="M150 808H172V427H150ZM150 281H172V-100H150Z" horiz-adv-x="322" unicode="¦"/>
			<glyph d="M311 722Q367 722 405 709T477 671L465 656Q432 680 397 691T311 703Q248 703 211 677T175 608Q175 580 188 560T233 524T323 492Q384 475 418 458T467 418T483 356Q483 304 448 272T350 228Q424 207 453 182T483 110Q483 51 437 18T310 -14Q252 -14 209 0T128 45L140 59Q182 30 218 17T311 5Q381 5 421 32T461 109Q461 139 448 157T403 188T311 218Q247 235 211 253T159 296T143 361Q143 406 177 439T271 487Q205 510 179 537T153 608Q153 659 196 690T311 722ZM298 479Q235 466 200 434T165 362Q165 326 179 304T225 267T316 237Q385 246 423 275T461 355Q461 389 448 409T404 443T310 475Q302 477 298 479Z" unicode="§"/>
			<glyph d="M54 684Q78 684 78 660Q78 637 54 637Q30 637 30 660Q30 684 54 684ZM210 684Q234 684 234 660Q234 637 210 637Q186 637 186 660Q186 684 210 684Z" horiz-adv-x="264" unicode="¨"/>
			<glyph d="M474 722Q594 722 678 674T805 544T848 354Q848 247 805 164T678 33T474 -14Q354 -14 269 33T142 164T100 354Q100 461 142 544T269 674T474 722ZM474 703Q359 703 279 657T160 533T121 354Q121 253 160 174T279 50T474 5Q589 5 668 50T787 174T827 354Q827 455 787 533T668 657T474 703ZM481 570Q560 570 617 526L607 512Q578 532 548 541T481 551Q396 551 351 497T306 355Q306 267 351 212T481 158Q548 158 605 198L615 184Q588 163 553 151T481 139Q388 139 336 198T285 355Q285 453 336 511T481 570Z" horiz-adv-x="948" unicode="©"/>
			<glyph d="M269 721Q442 721 442 546V328Q442 272 446 225H427Q422 272 422 317H420Q395 265 345 237T228 210Q154 210 114 247T74 350Q74 412 104 447T197 497T364 512Q400 512 420 511V546Q420 702 269 702Q222 702 186 690T115 656L105 671Q176 721 269 721ZM366 494Q269 494 211 481T124 438T96 350Q96 292 130 260T228 229Q293 229 336 255T400 319T420 390V493ZM85 28H485V9H85Z" horiz-adv-x="560" unicode="ª"/>
			<glyph d="M207 446L221 435L113 293L221 151L207 140L90 285V301ZM352 446L366 435L258 293L366 151L352 140L235 285V301Z" horiz-adv-x="456" unicode="«"/>
			<glyph d="M105 353H505V190H485V334H105Z" unicode="¬"/>
			<glyph d="M50 303H255V284H50Z" horiz-adv-x="305" unicode="­"/>
			<glyph d="M174 722Q234 722 266 688T299 600Q299 546 266 512T174 478Q115 478 82 512T50 600Q50 654 82 688T174 722ZM175 706Q122 706 95 676T68 600Q68 553 95 523T175 494Q227 494 254 523T282 600Q282 647 254 676T175 706ZM133 673H179Q201 673 214 662T228 630Q228 612 219 601T196 587L232 534H212L177 585H151V534H133ZM151 658V600H174Q211 600 211 630Q211 644 201 651T175 658Z" horiz-adv-x="349" unicode="®"/>
			<glyph d="M30 640H262V621H30Z" horiz-adv-x="292" unicode="¯"/>
			<glyph d="M176 722Q228 722 260 691T292 608Q292 556 260 525T176 494Q123 494 91 525T60 608Q60 660 91 691T176 722ZM176 703Q131 703 106 678T82 608Q82 563 106 538T176 513Q221 513 245 538T270 608Q270 653 245 678T176 703Z" horiz-adv-x="352" unicode="°"/>
			<glyph d="M295 577H315V387H505V368H315V177H295V368H105V387H295ZM105 29H505V10H105Z" unicode="±"/>
			<glyph d="M268 718Q343 718 384 679T425 581Q425 527 400 481T316 378T129 211H444V191H99V210Q232 323 293 383T379 486T403 580Q403 633 367 666T266 699Q215 699 179 683T108 634L95 647Q134 684 172 701T268 718Z" horiz-adv-x="540" unicode="²"/>
			<glyph d="M275 718Q349 718 391 682T433 588Q433 532 403 502T332 465V464Q379 459 414 428T450 335Q450 263 401 222T268 181Q208 181 167 196T90 246L103 259Q138 227 175 213T268 200Q344 200 385 235T427 334Q427 396 387 425T286 454H207V473H277Q336 473 373 502T411 587Q411 640 375 669T274 699Q226 699 190 687T118 647L106 660Q142 690 181 704T275 718Z" horiz-adv-x="540" unicode="³"/>
			<glyph d="M171 722L185 704L41 593L30 606Z" horiz-adv-x="215" unicode="´"/>
			<glyph d="M95 492H117V194Q117 112 156 58T275 4Q333 4 377 35T445 120T469 236V492H491V105Q491 48 496 0H476Q471 48 471 129H469Q443 60 394 22T275 -15Q161 -15 118 86H116V-131Q116 -201 111 -244H90Q95 -196 95 -139Z" horiz-adv-x="590" unicode="µ"/>
			<glyph d="M238 708H342V-130H320V360H238Q146 360 93 404T40 534Q40 619 93 663T238 708ZM480 708H502V-130H480ZM238 688Q153 688 107 649T62 534Q62 457 107 418T238 380H320V688Z" horiz-adv-x="607" unicode="¶"/>
			<glyph d="M120 343Q144 343 144 319Q144 296 120 296Q96 296 96 319Q96 343 120 343Z" horiz-adv-x="240" unicode="·"/>
			<glyph d="M105 0H125L93 -85Q112 -79 134 -79Q170 -79 191 -98T213 -148Q213 -184 185 -205T114 -226Q88 -226 69 -220T30 -204L38 -189Q57 -199 74 -203T115 -207Q152 -207 171 -192T191 -148Q191 -124 176 -110T133 -97Q113 -97 85 -104H64Z" horiz-adv-x="243" unicode="¸"/>
			<glyph d="M285 708H303V211H424V191H135V210L281 211V682L125 598L115 615Z" horiz-adv-x="540" unicode="¹"/>
			<glyph d="M295 722Q404 722 464 652T524 467Q524 351 464 281T295 211Q187 211 128 281T69 467Q69 583 127 652T295 722ZM295 703Q196 703 143 638T90 467Q90 362 143 296T295 230Q395 230 448 295T502 467Q502 573 448 638T295 703ZM107 28H507V9H107Z" horiz-adv-x="604" unicode="º"/>
			<glyph d="M104 446L221 301V285L104 140L90 151L198 293L90 435ZM249 446L366 301V285L249 140L235 151L343 293L235 435Z" horiz-adv-x="456" unicode="»"/>
			<glyph d="M246 708H264V211H385V191H96V210L242 211V682L86 598L76 615ZM798 709H822L404 0H380ZM929 517H953L764 164H1013V326H1035V164H1125V144H1035V0H1013V144H739V162Z" horiz-adv-x="1200" unicode="¼"/>
			<glyph d="M240 708H258V211H379V191H90V210L236 211V682L80 598L70 615ZM792 709H816L398 0H374ZM954 527Q1029 527 1070 488T1111 390Q1111 336 1086 290T1002 187T815 20H1130V0H785V19Q918 132 979 192T1065 295T1089 389Q1089 442 1053 475T952 508Q901 508 865 492T794 443L781 456Q820 493 858 510T954 527Z" horiz-adv-x="1200" unicode="½"/>
			<glyph d="M248 718Q322 718 364 682T406 588Q406 532 376 502T305 465V464Q352 459 387 428T423 335Q423 263 374 222T241 181Q181 181 140 196T63 246L76 259Q111 227 148 213T241 200Q317 200 358 235T400 334Q400 396 360 425T259 454H180V473H250Q309 473 346 502T384 587Q384 640 348 669T247 699Q199 699 163 687T91 647L79 660Q115 690 154 704T248 718ZM810 709H834L416 0H392ZM941 517H965L776 164H1025V326H1047V164H1137V144H1047V0H1025V144H751V162Z" horiz-adv-x="1200" unicode="¾"/>
			<glyph d="M247 302H267V260Q267 219 245 191T178 126Q143 98 122 76T86 23T72 -49Q72 -118 116 -159T237 -201Q303 -201 348 -176T432 -111L447 -123Q404 -170 355 -195T236 -220Q180 -220 137 -198T72 -137T50 -50Q50 -5 66 29T104 86T163 139Q206 175 226 200T247 261ZM257 506Q281 506 281 483Q281 459 257 459Q233 459 233 483Q233 506 257 506Z" horiz-adv-x="467" unicode="¿"/>
			<glyph d="M305 708H335L625 0H601L518 203H120L39 0H15ZM320 694L128 222H510ZM239 903L392 806L383 792L227 884Z" horiz-adv-x="640" unicode="À"/>
			<glyph d="M305 708H335L625 0H601L518 203H120L39 0H15ZM320 694L128 222H510ZM400 903L412 884L256 792L247 806Z" horiz-adv-x="640" unicode="Á"/>
			<glyph d="M305 708H335L625 0H601L518 203H120L39 0H15ZM320 694L128 222H510ZM309 900H331L453 805L443 793L320 882L197 793L187 805Z" horiz-adv-x="640" unicode="Â"/>
			<glyph d="M305 708H335L625 0H601L518 203H120L39 0H15ZM320 694L128 222H510ZM265 863Q280 863 293 856T328 836Q344 825 354 819T374 814Q391 814 405 824T436 861L451 854Q421 795 375 795Q361 795 347 801T315 821Q298 833 287 838T266 844Q249 844 234 833T204 797L189 804Q221 863 265 863Z" horiz-adv-x="640" unicode="Ã"/>
			<glyph d="M305 708H335L625 0H601L518 203H120L39 0H15ZM320 694L128 222H510ZM242 884Q266 884 266 860Q266 837 242 837Q218 837 218 860Q218 884 242 884ZM398 884Q422 884 422 860Q422 837 398 837Q374 837 374 860Q374 884 398 884Z" horiz-adv-x="640" unicode="Ä"/>
			<glyph d="M320 873Q359 873 385 848T411 784Q411 751 391 727T340 697L625 0H601L518 203H120L39 0H15L300 697Q268 703 248 727T229 784Q229 823 255 848T320 873ZM320 855Q288 855 268 835T249 784Q249 753 268 733T320 713Q352 713 371 733T391 784Q391 815 371 835T320 855ZM320 694L128 222H510Z" horiz-adv-x="640" unicode="Å"/>
			<glyph d="M305 708H808V689H341L447 377H778V358H454L569 19H867V0H551L483 203H121L39 0H15ZM320 694L128 222H477Z" horiz-adv-x="889" unicode="Æ"/>
			<glyph d="M401 722Q532 722 626 640L612 625Q522 703 401 703Q300 703 228 658T119 534T82 354Q82 253 118 174T227 51T401 6Q466 6 526 30T630 98L644 83Q598 37 536 12T406 -14L379 -85Q399 -79 420 -79Q456 -79 477 -98T499 -148Q499 -184 471 -205T400 -226Q374 -226 355 -220T316 -204L324 -189Q343 -199 360 -203T401 -207Q438 -207 457 -192T477 -148Q477 -124 462 -110T419 -97Q399 -97 371 -104H350L386 -14Q282 -11 208 36T97 166T60 354Q60 462 99 545T216 675T401 722Z" horiz-adv-x="669" unicode="Ç"/>
			<glyph d="M105 708H507V689H126V377H464V358H126V19H523V0H105ZM237 903L390 806L381 792L225 884Z" horiz-adv-x="555" unicode="È"/>
			<glyph d="M105 708H507V689H126V377H464V358H126V19H523V0H105ZM398 903L410 884L254 792L245 806Z" horiz-adv-x="555" unicode="É"/>
			<glyph d="M105 708H507V689H126V377H464V358H126V19H523V0H105ZM307 900H329L451 805L441 793L318 882L195 793L185 805Z" horiz-adv-x="555" unicode="Ê"/>
			<glyph d="M105 708H507V689H126V377H464V358H126V19H523V0H105ZM240 884Q264 884 264 860Q264 837 240 837Q216 837 216 860Q216 884 240 884ZM396 884Q420 884 420 860Q420 837 396 837Q372 837 372 860Q372 884 396 884Z" horiz-adv-x="555" unicode="Ë"/>
			<glyph d="M63 708H261V689H173V19H261V0H63V19H151V689H63ZM81 903L234 806L225 792L69 884Z" horiz-adv-x="324" unicode="Ì"/>
			<glyph d="M63 708H261V689H173V19H261V0H63V19H151V689H63ZM242 903L254 884L98 792L89 806Z" horiz-adv-x="324" unicode="Í"/>
			<glyph d="M63 708H261V689H173V19H261V0H63V19H151V689H63ZM151 900H173L295 805L285 793L162 882L39 793L29 805Z" horiz-adv-x="324" unicode="Î"/>
			<glyph d="M63 708H261V689H173V19H261V0H63V19H151V689H63ZM84 884Q108 884 108 860Q108 837 84 837Q60 837 60 860Q60 884 84 884ZM240 884Q264 884 264 860Q264 837 240 837Q216 837 216 860Q216 884 240 884Z" horiz-adv-x="324" unicode="Ï"/>
			<glyph d="M105 708H306Q477 708 568 619T660 354Q660 178 568 89T306 0H105V343H19V362H105ZM127 689V362H297V343H127V19H301Q464 19 551 103T638 354Q638 523 551 606T301 689Z" horiz-adv-x="720" unicode="Ð"/>
			<glyph d="M105 708H133L643 29H645V708H667V0H638L129 680H127V0H105ZM331 863Q346 863 359 856T394 836Q410 825 420 819T440 814Q457 814 471 824T502 861L517 854Q487 795 441 795Q427 795 413 801T381 821Q364 833 353 838T332 844Q315 844 300 833T270 797L255 804Q287 863 331 863Z" horiz-adv-x="772" unicode="Ñ"/>
			<glyph d="M404 722Q513 722 590 675T708 545T748 354Q748 246 708 162T590 32T404 -14Q295 -14 217 32T100 162T60 354Q60 462 100 545T217 675T404 722ZM404 703Q302 703 229 658T119 535T82 354Q82 252 119 173T229 49T404 5Q506 5 578 49T688 173T726 354Q726 456 688 535T578 658T404 703ZM323 903L476 806L467 792L311 884Z" horiz-adv-x="808" unicode="Ò"/>
			<glyph d="M404 722Q513 722 590 675T708 545T748 354Q748 246 708 162T590 32T404 -14Q295 -14 217 32T100 162T60 354Q60 462 100 545T217 675T404 722ZM404 703Q302 703 229 658T119 535T82 354Q82 252 119 173T229 49T404 5Q506 5 578 49T688 173T726 354Q726 456 688 535T578 658T404 703ZM484 903L496 884L340 792L331 806Z" horiz-adv-x="808" unicode="Ó"/>
			<glyph d="M404 722Q513 722 590 675T708 545T748 354Q748 246 708 162T590 32T404 -14Q295 -14 217 32T100 162T60 354Q60 462 100 545T217 675T404 722ZM404 703Q302 703 229 658T119 535T82 354Q82 252 119 173T229 49T404 5Q506 5 578 49T688 173T726 354Q726 456 688 535T578 658T404 703ZM393 900H415L537 805L527 793L404 882L281 793L271 805Z" horiz-adv-x="808" unicode="Ô"/>
			<glyph d="M404 722Q513 722 590 675T708 545T748 354Q748 246 708 162T590 32T404 -14Q295 -14 217 32T100 162T60 354Q60 462 100 545T217 675T404 722ZM404 703Q302 703 229 658T119 535T82 354Q82 252 119 173T229 49T404 5Q506 5 578 49T688 173T726 354Q726 456 688 535T578 658T404 703ZM349 863Q364 863 377 856T412 836Q428 825 438 819T458 814Q475 814 489 824T520 861L535 854Q505 795 459 795Q445 795 431 801T399 821Q382 833 371 838T350 844Q333 844 318 833T288 797L273 804Q305 863 349 863Z" horiz-adv-x="808" unicode="Õ"/>
			<glyph d="M404 722Q513 722 590 675T708 545T748 354Q748 246 708 162T590 32T404 -14Q295 -14 217 32T100 162T60 354Q60 462 100 545T217 675T404 722ZM404 703Q302 703 229 658T119 535T82 354Q82 252 119 173T229 49T404 5Q506 5 578 49T688 173T726 354Q726 456 688 535T578 658T404 703ZM326 884Q350 884 350 860Q350 837 326 837Q302 837 302 860Q302 884 326 884ZM482 884Q506 884 506 860Q506 837 482 837Q458 837 458 860Q458 884 482 884Z" horiz-adv-x="808" unicode="Ö"/>
			<glyph d="M170 432L305 297L440 432L453 419L318 284L453 149L440 136L305 270L171 136L157 149L292 284L157 418Z" unicode="×"/>
			<glyph d="M503 781L525 777L507 710Q622 680 685 585T748 354Q748 246 708 162T590 32T404 -14Q369 -14 323 -7L305 -77L283 -73L302 -2Q186 28 123 122T60 354Q60 462 100 545T217 675T404 722Q446 722 486 714ZM404 703Q302 703 229 658T119 535T82 354Q82 226 141 135T308 17L483 695Q443 703 404 703ZM501 691L327 12Q369 5 404 5Q506 5 578 49T688 173T726 354Q726 482 667 572T501 691Z" horiz-adv-x="808" unicode="Ø"/>
			<glyph d="M95 708H117V253Q117 6 365 6Q613 6 613 253V708H635V252Q635 -14 365 -14Q95 -14 95 252ZM285 903L438 806L429 792L273 884Z" horiz-adv-x="730" unicode="Ù"/>
			<glyph d="M95 708H117V253Q117 6 365 6Q613 6 613 253V708H635V252Q635 -14 365 -14Q95 -14 95 252ZM446 903L458 884L302 792L293 806Z" horiz-adv-x="730" unicode="Ú"/>
			<glyph d="M95 708H117V253Q117 6 365 6Q613 6 613 253V708H635V252Q635 -14 365 -14Q95 -14 95 252ZM355 900H377L499 805L489 793L366 882L243 793L233 805Z" horiz-adv-x="730" unicode="Û"/>
			<glyph d="M95 708H117V253Q117 6 365 6Q613 6 613 253V708H635V252Q635 -14 365 -14Q95 -14 95 252ZM288 884Q312 884 312 860Q312 837 288 837Q264 837 264 860Q264 884 288 884ZM444 884Q468 884 468 860Q468 837 444 837Q420 837 420 860Q420 884 444 884Z" horiz-adv-x="730" unicode="Ü"/>
			<glyph d="M0 708H25L254 330H256L483 708H508L265 308V0H243V310ZM334 903L346 884L190 792L181 806Z" horiz-adv-x="508" unicode="Ý"/>
			<glyph d="M105 708H127V588H315Q413 588 480 536T548 372Q548 304 516 256T431 183T319 158H127V0H105ZM127 569V177H320Q375 177 422 199T497 266T526 372Q526 475 464 522T315 569Z" horiz-adv-x="590" unicode="Þ"/>
			<glyph d="M275 722Q317 722 359 707T447 656L350 410Q432 395 484 343T537 199Q537 136 509 87T432 12T324 -14Q260 -14 211 8L220 25Q267 5 325 5Q378 5 421 29T490 97T515 199Q515 288 466 333T330 396V412L423 650Q385 680 349 692T276 704Q201 704 167 667T134 569V0H112V473H15V487L112 492V568Q112 643 154 682T275 722Z" horiz-adv-x="575" unicode="ß"/>
			<glyph d="M247 506Q423 506 423 328V105Q423 48 428 0H408Q403 48 403 94H401Q376 41 325 13T205 -15Q130 -15 89 22T48 128Q48 191 79 227T174 278T344 293Q381 293 401 292V328Q401 487 247 487Q199 487 162 475T90 440L80 455Q152 506 247 506ZM346 274Q247 274 188 261T99 217T70 128Q70 68 105 36T205 4Q271 4 315 31T380 96T401 168V273ZM176 722L317 606L306 593L162 704Z" horiz-adv-x="509" unicode="à"/>
			<glyph d="M247 506Q423 506 423 328V105Q423 48 428 0H408Q403 48 403 94H401Q376 41 325 13T205 -15Q130 -15 89 22T48 128Q48 191 79 227T174 278T344 293Q381 293 401 292V328Q401 487 247 487Q199 487 162 475T90 440L80 455Q152 506 247 506ZM346 274Q247 274 188 261T99 217T70 128Q70 68 105 36T205 4Q271 4 315 31T380 96T401 168V273ZM327 722L341 704L197 593L186 606Z" horiz-adv-x="509" unicode="á"/>
			<glyph d="M247 506Q423 506 423 328V105Q423 48 428 0H408Q403 48 403 94H401Q376 41 325 13T205 -15Q130 -15 89 22T48 128Q48 191 79 227T174 278T344 293Q381 293 401 292V328Q401 487 247 487Q199 487 162 475T90 440L80 455Q152 506 247 506ZM346 274Q247 274 188 261T99 217T70 128Q70 68 105 36T205 4Q271 4 315 31T380 96T401 168V273ZM239 720H261L382 605L370 593L250 702L129 593L117 605Z" horiz-adv-x="509" unicode="â"/>
			<glyph d="M247 506Q423 506 423 328V105Q423 48 428 0H408Q403 48 403 94H401Q376 41 325 13T205 -15Q130 -15 89 22T48 128Q48 191 79 227T174 278T344 293Q381 293 401 292V328Q401 487 247 487Q199 487 162 475T90 440L80 455Q152 506 247 506ZM346 274Q247 274 188 261T99 217T70 128Q70 68 105 36T205 4Q271 4 315 31T380 96T401 168V273ZM195 663Q210 663 223 656T258 636Q274 625 284 619T304 614Q321 614 335 624T366 661L381 654Q351 595 305 595Q291 595 277 601T245 621Q228 633 217 638T196 644Q179 644 164 633T134 597L119 604Q151 663 195 663Z" horiz-adv-x="509" unicode="ã"/>
			<glyph d="M247 506Q423 506 423 328V105Q423 48 428 0H408Q403 48 403 94H401Q376 41 325 13T205 -15Q130 -15 89 22T48 128Q48 191 79 227T174 278T344 293Q381 293 401 292V328Q401 487 247 487Q199 487 162 475T90 440L80 455Q152 506 247 506ZM346 274Q247 274 188 261T99 217T70 128Q70 68 105 36T205 4Q271 4 315 31T380 96T401 168V273ZM172 684Q196 684 196 660Q196 637 172 637Q148 637 148 660Q148 684 172 684ZM328 684Q352 684 352 660Q352 637 328 637Q304 637 304 660Q304 684 328 684Z" horiz-adv-x="509" unicode="ä"/>
			<glyph d="M247 506Q423 506 423 328V105Q423 48 428 0H408Q403 48 403 94H401Q376 41 325 13T205 -15Q130 -15 89 22T48 128Q48 191 79 227T174 278T344 293Q381 293 401 292V328Q401 487 247 487Q199 487 162 475T90 440L80 455Q152 506 247 506ZM346 274Q247 274 188 261T99 217T70 128Q70 68 105 36T205 4Q271 4 315 31T380 96T401 168V273ZM250 760Q289 760 315 735T341 671Q341 634 315 608T250 582Q210 582 184 608T159 671Q159 710 185 735T250 760ZM250 742Q218 742 198 722T179 671Q179 640 198 620T250 600Q282 600 301 620T321 671Q321 702 301 722T250 742Z" horiz-adv-x="509" unicode="å"/>
			<glyph d="M247 506Q390 506 403 357Q423 426 474 466T594 506Q656 506 700 474T768 386T791 260V242H406Q407 176 429 122T496 36T601 5Q645 5 681 19T757 60L768 45Q728 17 688 1T601 -14Q528 -14 475 28T402 142Q384 63 332 24T215 -15Q135 -15 91 22T48 128Q48 191 78 227T170 278T331 293Q365 293 384 292V328Q384 487 247 487Q199 487 163 475T90 440L80 455Q153 506 247 506ZM593 487Q535 487 493 456T429 374T406 259H770Q770 364 723 425T593 487ZM333 274Q241 274 184 261T99 217T70 128Q70 68 108 36T215 4Q272 4 310 31T366 96T384 168V273Z" horiz-adv-x="849" unicode="æ"/>
			<glyph d="M289 506Q336 506 378 491T449 452L437 438Q379 487 289 487Q188 487 134 420T81 246Q81 139 135 72T289 5Q370 5 436 54L447 40Q415 15 374 0T289 -14H287L260 -85Q280 -79 301 -79Q337 -79 358 -98T380 -148Q380 -184 352 -205T281 -226Q255 -226 236 -220T197 -204L205 -189Q224 -199 241 -203T282 -207Q319 -207 338 -192T358 -148Q358 -124 343 -110T300 -97Q280 -97 252 -104H231L267 -13Q168 -6 113 64T59 246Q59 364 119 435T289 506Z" horiz-adv-x="492" unicode="ç"/>
			<glyph d="M277 506Q378 506 432 438T486 258V242H81Q83 139 134 72T283 5Q334 5 373 19T452 60L463 45Q423 17 380 1T283 -14Q175 -14 117 59T59 251Q59 326 85 383T161 473T277 506ZM276 487Q215 487 171 456T104 374T81 259H465Q463 366 415 426T276 487ZM207 722L348 606L337 593L193 704Z" horiz-adv-x="544" unicode="è"/>
			<glyph d="M277 506Q378 506 432 438T486 258V242H81Q83 139 134 72T283 5Q334 5 373 19T452 60L463 45Q423 17 380 1T283 -14Q175 -14 117 59T59 251Q59 326 85 383T161 473T277 506ZM276 487Q215 487 171 456T104 374T81 259H465Q463 366 415 426T276 487ZM358 722L372 704L228 593L217 606Z" horiz-adv-x="544" unicode="é"/>
			<glyph d="M277 506Q378 506 432 438T486 258V242H81Q83 139 134 72T283 5Q334 5 373 19T452 60L463 45Q423 17 380 1T283 -14Q175 -14 117 59T59 251Q59 326 85 383T161 473T277 506ZM276 487Q215 487 171 456T104 374T81 259H465Q463 366 415 426T276 487ZM270 720H292L413 605L401 593L281 702L160 593L148 605Z" horiz-adv-x="544" unicode="ê"/>
			<glyph d="M277 506Q378 506 432 438T486 258V242H81Q83 139 134 72T283 5Q334 5 373 19T452 60L463 45Q423 17 380 1T283 -14Q175 -14 117 59T59 251Q59 326 85 383T161 473T277 506ZM276 487Q215 487 171 456T104 374T81 259H465Q463 366 415 426T276 487ZM203 684Q227 684 227 660Q227 637 203 637Q179 637 179 660Q179 684 203 684ZM359 684Q383 684 383 660Q383 637 359 637Q335 637 335 660Q335 684 359 684Z" horiz-adv-x="544" unicode="ë"/>
			<glyph d="M100 492H122V0H100ZM37 722L178 606L167 593L23 704Z" horiz-adv-x="222" unicode="ì"/>
			<glyph d="M100 492H122V0H100ZM188 722L202 704L58 593L47 606Z" horiz-adv-x="222" unicode="í"/>
			<glyph d="M100 492H122V0H100ZM100 720H122L243 605L231 593L111 702L-10 593L-22 605Z" horiz-adv-x="222" unicode="î"/>
			<glyph d="M100 492H122V0H100ZM33 684Q57 684 57 660Q57 637 33 637Q9 637 9 660Q9 684 33 684ZM189 684Q213 684 213 660Q213 637 189 637Q165 637 165 660Q165 684 189 684Z" horiz-adv-x="222" unicode="ï"/>
			<glyph d="M232 722Q300 699 345 675L435 722L444 707L363 664Q448 612 493 530T538 318Q538 168 479 77T296 -14Q186 -14 122 52T59 233Q59 312 88 370T171 460T294 491Q368 491 422 456T517 356Q509 559 344 654L244 602L236 617L326 664Q278 688 224 705ZM294 472Q196 472 138 408T81 232Q81 126 138 65T296 5Q410 5 463 90T518 323Q475 395 421 433T294 472Z" horiz-adv-x="603" unicode="ð"/>
			<glyph d="M312 506Q405 506 450 450T495 307V0H473V305Q473 383 434 435T312 487Q256 487 212 461T145 392T121 296V0H99V387Q99 444 94 492H114Q119 444 119 382H121Q145 439 193 472T312 506ZM245 663Q260 663 273 656T308 636Q324 625 334 619T354 614Q371 614 385 624T416 661L431 654Q401 595 355 595Q341 595 327 601T295 621Q278 633 267 638T246 644Q229 644 214 633T184 597L169 604Q201 663 245 663Z" horiz-adv-x="585" unicode="ñ"/>
			<glyph d="M290 507Q401 507 462 436T523 247Q523 129 462 57T290 -14Q180 -14 119 57T59 247Q59 365 119 436T290 507ZM290 488Q189 488 135 421T81 247Q81 140 135 72T290 5Q392 5 446 71T501 247Q501 355 446 421T290 488ZM217 722L358 606L347 593L203 704Z" horiz-adv-x="582" unicode="ò"/>
			<glyph d="M290 507Q401 507 462 436T523 247Q523 129 462 57T290 -14Q180 -14 119 57T59 247Q59 365 119 436T290 507ZM290 488Q189 488 135 421T81 247Q81 140 135 72T290 5Q392 5 446 71T501 247Q501 355 446 421T290 488ZM368 722L382 704L238 593L227 606Z" horiz-adv-x="582" unicode="ó"/>
			<glyph d="M290 507Q401 507 462 436T523 247Q523 129 462 57T290 -14Q180 -14 119 57T59 247Q59 365 119 436T290 507ZM290 488Q189 488 135 421T81 247Q81 140 135 72T290 5Q392 5 446 71T501 247Q501 355 446 421T290 488ZM280 720H302L423 605L411 593L291 702L170 593L158 605Z" horiz-adv-x="582" unicode="ô"/>
			<glyph d="M290 507Q401 507 462 436T523 247Q523 129 462 57T290 -14Q180 -14 119 57T59 247Q59 365 119 436T290 507ZM290 488Q189 488 135 421T81 247Q81 140 135 72T290 5Q392 5 446 71T501 247Q501 355 446 421T290 488ZM236 663Q251 663 264 656T299 636Q315 625 325 619T345 614Q362 614 376 624T407 661L422 654Q392 595 346 595Q332 595 318 601T286 621Q269 633 258 638T237 644Q220 644 205 633T175 597L160 604Q192 663 236 663Z" horiz-adv-x="582" unicode="õ"/>
			<glyph d="M290 507Q401 507 462 436T523 247Q523 129 462 57T290 -14Q180 -14 119 57T59 247Q59 365 119 436T290 507ZM290 488Q189 488 135 421T81 247Q81 140 135 72T290 5Q392 5 446 71T501 247Q501 355 446 421T290 488ZM213 684Q237 684 237 660Q237 637 213 637Q189 637 189 660Q189 684 213 684ZM369 684Q393 684 393 660Q393 637 369 637Q345 637 345 660Q345 684 369 684Z" horiz-adv-x="582" unicode="ö"/>
			<glyph d="M105 303H505V284H105ZM305 107Q329 107 329 83Q329 60 305 60Q281 60 281 83Q281 107 305 107ZM305 507Q329 507 329 483Q329 460 305 460Q281 460 281 483Q281 507 305 507Z" unicode="÷"/>
			<glyph d="M365 569L385 565L366 497Q442 474 482 408T523 247Q523 129 462 57T290 -14Q263 -14 235 -9L218 -77L198 -73L217 -4Q140 18 99 84T59 247Q59 365 119 436T290 507Q321 507 348 501ZM290 488Q189 488 135 421T81 247Q81 160 117 98T222 15L343 483Q316 488 290 488ZM361 478L240 10Q267 5 290 5Q392 5 446 71T501 247Q501 333 465 395T361 478Z" horiz-adv-x="582" unicode="ø"/>
			<glyph d="M90 492H112V194Q112 112 151 58T270 4Q328 4 372 35T440 120T464 236V492H486V105Q486 48 491 0H471Q466 48 466 129H464Q438 60 389 22T270 -15Q179 -15 134 42T90 193ZM224 722L365 606L354 593L210 704Z" horiz-adv-x="585" unicode="ù"/>
			<glyph d="M90 492H112V194Q112 112 151 58T270 4Q328 4 372 35T440 120T464 236V492H486V105Q486 48 491 0H471Q466 48 466 129H464Q438 60 389 22T270 -15Q179 -15 134 42T90 193ZM375 722L389 704L245 593L234 606Z" horiz-adv-x="585" unicode="ú"/>
			<glyph d="M90 492H112V194Q112 112 151 58T270 4Q328 4 372 35T440 120T464 236V492H486V105Q486 48 491 0H471Q466 48 466 129H464Q438 60 389 22T270 -15Q179 -15 134 42T90 193ZM287 720H309L430 605L418 593L298 702L177 593L165 605Z" horiz-adv-x="585" unicode="û"/>
			<glyph d="M90 492H112V194Q112 112 151 58T270 4Q328 4 372 35T440 120T464 236V492H486V105Q486 48 491 0H471Q466 48 466 129H464Q438 60 389 22T270 -15Q179 -15 134 42T90 193ZM220 684Q244 684 244 660Q244 637 220 637Q196 637 196 660Q196 684 220 684ZM376 684Q400 684 400 660Q400 637 376 637Q352 637 352 660Q352 684 376 684Z" horiz-adv-x="585" unicode="ü"/>
			<glyph d="M15 492H38L220 26H221L393 492H416L176 -157Q156 -210 128 -234T58 -258Q34 -258 16 -251L21 -234Q38 -239 58 -239Q97 -239 120 -216T158 -149L208 -2ZM293 722L307 704L163 593L152 606Z" horiz-adv-x="431" unicode="ý"/>
			<glyph d="M100 708H123V378H125Q150 440 202 473T322 506Q392 506 441 472T517 379T543 245Q543 171 516 112T437 19T315 -14Q252 -14 205 10T122 81V-244H100ZM323 487Q262 487 216 458T146 382T122 276V115Q162 58 208 31T315 5Q380 5 426 36T497 122T521 245Q521 313 498 368T430 455T323 487Z" horiz-adv-x="602" unicode="þ"/>
			<glyph d="M15 492H38L220 26H221L393 492H416L176 -157Q156 -210 128 -234T58 -258Q34 -258 16 -251L21 -234Q38 -239 58 -239Q97 -239 120 -216T158 -149L208 -2ZM138 684Q162 684 162 660Q162 637 138 637Q114 637 114 660Q114 684 138 684ZM294 684Q318 684 318 660Q318 637 294 637Q270 637 270 660Q270 684 294 684Z" horiz-adv-x="431" unicode="ÿ"/>
			<glyph d="M305 708H335L625 0H601L518 203H120L39 0H15ZM320 694L128 222H510ZM204 840H436V821H204Z" horiz-adv-x="640" unicode="Ā"/>
			<glyph d="M247 506Q423 506 423 328V105Q423 48 428 0H408Q403 48 403 94H401Q376 41 325 13T205 -15Q130 -15 89 22T48 128Q48 191 79 227T174 278T344 293Q381 293 401 292V328Q401 487 247 487Q199 487 162 475T90 440L80 455Q152 506 247 506ZM346 274Q247 274 188 261T99 217T70 128Q70 68 105 36T205 4Q271 4 315 31T380 96T401 168V273ZM134 640H366V621H134Z" horiz-adv-x="509" unicode="ā"/>
			<glyph d="M305 708H335L625 0H601L518 203H120L39 0H15ZM320 694L128 222H510ZM216 883Q240 802 320 802Q400 802 424 883L442 880Q431 833 399 807T320 782Q272 782 240 807T198 880Z" horiz-adv-x="640" unicode="Ă"/>
			<glyph d="M247 506Q423 506 423 328V105Q423 48 428 0H408Q403 48 403 94H401Q376 41 325 13T205 -15Q130 -15 89 22T48 128Q48 191 79 227T174 278T344 293Q381 293 401 292V328Q401 487 247 487Q199 487 162 475T90 440L80 455Q152 506 247 506ZM346 274Q247 274 188 261T99 217T70 128Q70 68 105 36T205 4Q271 4 315 31T380 96T401 168V273ZM146 698Q158 647 183 624T250 602Q291 602 316 624T354 698L372 695Q350 582 250 582Q150 582 128 695Z" horiz-adv-x="509" unicode="ă"/>
			<glyph d="M305 708H335L625 0Q570 -40 546 -73T523 -143Q523 -173 540 -188T588 -204Q625 -204 659 -185L667 -200Q631 -223 588 -223Q549 -223 525 -201T501 -143Q501 -70 600 2L518 203H120L39 0H15ZM320 694L128 222H510Z" horiz-adv-x="640" unicode="Ą"/>
			<glyph d="M247 506Q423 506 423 328V105Q423 48 428 0H425Q370 -40 346 -73T323 -143Q323 -173 340 -188T388 -204Q425 -204 459 -185L467 -200Q431 -223 388 -223Q349 -223 325 -201T301 -143Q301 -67 407 7Q403 63 403 94H401Q376 41 325 13T205 -15Q130 -15 89 22T48 128Q48 191 79 227T174 278T344 293Q381 293 401 292V328Q401 487 247 487Q199 487 162 475T90 440L80 455Q152 506 247 506ZM346 274Q247 274 188 261T99 217T70 128Q70 68 105 36T205 4Q271 4 315 31T380 96T401 168V273Z" horiz-adv-x="509" unicode="ą"/>
			<glyph d="M401 722Q532 722 626 640L612 625Q522 703 401 703Q300 703 228 658T119 534T82 354Q82 253 118 174T227 51T401 6Q466 6 526 30T630 98L644 83Q597 36 534 11T401 -14Q293 -14 216 32T99 162T60 354Q60 462 99 545T216 675T401 722ZM471 903L483 884L327 792L318 806Z" horiz-adv-x="669" unicode="Ć"/>
			<glyph d="M289 506Q336 506 378 491T449 452L437 438Q379 487 289 487Q188 487 134 420T81 246Q81 139 135 72T289 5Q370 5 436 54L447 40Q415 15 374 0T289 -14Q180 -14 119 57T59 246Q59 364 119 435T289 506ZM366 722L380 704L236 593L225 606Z" horiz-adv-x="492" unicode="ć"/>
			<glyph d="M401 722Q532 722 626 640L612 625Q522 703 401 703Q300 703 228 658T119 534T82 354Q82 253 118 174T227 51T401 6Q466 6 526 30T630 98L644 83Q597 36 534 11T401 -14Q293 -14 216 32T99 162T60 354Q60 462 99 545T216 675T401 722ZM380 900H402L524 805L514 793L391 882L268 793L258 805Z" horiz-adv-x="669" unicode="Ĉ"/>
			<glyph d="M289 506Q336 506 378 491T449 452L437 438Q379 487 289 487Q188 487 134 420T81 246Q81 139 135 72T289 5Q370 5 436 54L447 40Q415 15 374 0T289 -14Q180 -14 119 57T59 246Q59 364 119 435T289 506ZM278 720H300L421 605L409 593L289 702L168 593L156 605Z" horiz-adv-x="492" unicode="ĉ"/>
			<glyph d="M401 722Q532 722 626 640L612 625Q522 703 401 703Q300 703 228 658T119 534T82 354Q82 253 118 174T227 51T401 6Q466 6 526 30T630 98L644 83Q597 36 534 11T401 -14Q293 -14 216 32T99 162T60 354Q60 462 99 545T216 675T401 722ZM391 888Q415 888 415 864Q415 841 391 841Q367 841 367 864Q367 888 391 888Z" horiz-adv-x="669" unicode="Ċ"/>
			<glyph d="M289 506Q336 506 378 491T449 452L437 438Q379 487 289 487Q188 487 134 420T81 246Q81 139 135 72T289 5Q370 5 436 54L447 40Q415 15 374 0T289 -14Q180 -14 119 57T59 246Q59 364 119 435T289 506ZM289 708Q313 708 313 684Q313 661 289 661Q265 661 265 684Q265 708 289 708Z" horiz-adv-x="492" unicode="ċ"/>
			<glyph d="M401 722Q532 722 626 640L612 625Q522 703 401 703Q300 703 228 658T119 534T82 354Q82 253 118 174T227 51T401 6Q466 6 526 30T630 98L644 83Q597 36 534 11T401 -14Q293 -14 216 32T99 162T60 354Q60 462 99 545T216 675T401 722ZM269 897L391 808L514 897L524 885L402 790H380L258 885Z" horiz-adv-x="669" unicode="Č"/>
			<glyph d="M289 506Q336 506 378 491T449 452L437 438Q379 487 289 487Q188 487 134 420T81 246Q81 139 135 72T289 5Q370 5 436 54L447 40Q415 15 374 0T289 -14Q180 -14 119 57T59 246Q59 364 119 435T289 506ZM169 717L289 608L409 717L421 705L300 590H278L157 705Z" horiz-adv-x="492" unicode="č"/>
			<glyph d="M105 708H306Q477 708 568 619T660 354Q660 178 568 89T306 0H105ZM127 689V19H301Q464 19 551 103T638 354Q638 523 551 606T301 689ZM208 897L330 808L453 897L463 885L341 790H319L197 885Z" horiz-adv-x="720" unicode="Ď"/>
			<glyph d="M480 708H502V105Q502 48 507 0H486Q481 48 481 110H479Q450 46 399 16T283 -14Q213 -14 162 19T85 111T59 247Q59 321 87 380T166 472T286 506Q352 506 398 480T480 407ZM286 487Q224 487 177 455T106 368T81 247Q81 178 104 123T174 36T283 5Q343 5 388 32T456 105T480 206V374Q443 431 397 459T286 487ZM586 722L608 718L578 565L563 568Z" horiz-adv-x="638" unicode="ď"/>
			<glyph d="M105 708H306Q477 708 568 619T660 354Q660 178 568 89T306 0H105V343H19V362H105ZM127 689V362H297V343H127V19H301Q464 19 551 103T638 354Q638 523 551 606T301 689Z" horiz-adv-x="720" unicode="Đ"/>
			<glyph d="M480 708H502V625H584V606H502V105Q502 48 507 0H486Q481 48 481 110H479Q450 46 399 16T283 -14Q213 -14 162 19T85 111T59 247Q59 321 87 380T166 472T286 506Q352 506 398 480T480 407V606H317V625H480ZM286 487Q224 487 177 455T106 368T81 247Q81 178 104 123T174 36T283 5Q343 5 388 32T456 105T480 206V374Q443 431 397 459T286 487Z" horiz-adv-x="601" unicode="đ"/>
			<glyph d="M105 708H507V689H126V377H464V358H126V19H523V0H105ZM202 840H434V821H202Z" horiz-adv-x="555" unicode="Ē"/>
			<glyph d="M277 506Q378 506 432 438T486 258V242H81Q83 139 134 72T283 5Q334 5 373 19T452 60L463 45Q423 17 380 1T283 -14Q175 -14 117 59T59 251Q59 326 85 383T161 473T277 506ZM276 487Q215 487 171 456T104 374T81 259H465Q463 366 415 426T276 487ZM165 640H397V621H165Z" horiz-adv-x="544" unicode="ē"/>
			<glyph d="M105 708H507V689H126V377H464V358H126V19H523V0H105ZM214 883Q238 802 318 802Q398 802 422 883L440 880Q429 833 397 807T318 782Q270 782 238 807T196 880Z" horiz-adv-x="555" unicode="Ĕ"/>
			<glyph d="M277 506Q378 506 432 438T486 258V242H81Q83 139 134 72T283 5Q334 5 373 19T452 60L463 45Q423 17 380 1T283 -14Q175 -14 117 59T59 251Q59 326 85 383T161 473T277 506ZM276 487Q215 487 171 456T104 374T81 259H465Q463 366 415 426T276 487ZM177 698Q189 647 214 624T281 602Q322 602 347 624T385 698L403 695Q381 582 281 582Q181 582 159 695Z" horiz-adv-x="544" unicode="ĕ"/>
			<glyph d="M105 708H507V689H126V377H464V358H126V19H523V0H105ZM318 888Q342 888 342 864Q342 841 318 841Q294 841 294 864Q294 888 318 888Z" horiz-adv-x="555" unicode="Ė"/>
			<glyph d="M277 506Q378 506 432 438T486 258V242H81Q83 139 134 72T283 5Q334 5 373 19T452 60L463 45Q423 17 380 1T283 -14Q175 -14 117 59T59 251Q59 326 85 383T161 473T277 506ZM276 487Q215 487 171 456T104 374T81 259H465Q463 366 415 426T276 487ZM281 708Q305 708 305 684Q305 661 281 661Q257 661 257 684Q257 708 281 708Z" horiz-adv-x="544" unicode="ė"/>
			<glyph d="M105 708H507V689H126V377H464V358H126V19H523V0H480Q425 -40 401 -73T378 -143Q378 -173 395 -188T443 -204Q480 -204 514 -185L522 -200Q486 -223 443 -223Q404 -223 380 -201T356 -143Q356 -70 453 0H105Z" horiz-adv-x="555" unicode="Ę"/>
			<glyph d="M277 506Q378 506 432 438T486 258V242H81Q83 139 134 72T283 5Q334 5 373 19T452 60L463 45Q426 18 389 5Q331 -40 307 -73T283 -143Q283 -173 300 -188T348 -204Q385 -204 419 -185L427 -200Q391 -223 348 -223Q309 -223 285 -201T261 -143Q261 -76 350 -7Q315 -14 283 -14Q175 -14 117 59T59 251Q59 326 85 383T161 473T277 506ZM276 487Q215 487 171 456T104 374T81 259H465Q463 366 415 426T276 487Z" horiz-adv-x="544" unicode="ę"/>
			<glyph d="M105 708H507V689H126V377H464V358H126V19H523V0H105ZM196 897L318 808L441 897L451 885L329 790H307L185 885Z" horiz-adv-x="555" unicode="Ě"/>
			<glyph d="M277 506Q378 506 432 438T486 258V242H81Q83 139 134 72T283 5Q334 5 373 19T452 60L463 45Q423 17 380 1T283 -14Q175 -14 117 59T59 251Q59 326 85 383T161 473T277 506ZM276 487Q215 487 171 456T104 374T81 259H465Q463 366 415 426T276 487ZM161 717L281 608L401 717L413 705L292 590H270L149 705Z" horiz-adv-x="544" unicode="ě"/>
			<glyph d="M409 722Q540 722 634 640L620 625Q530 703 409 703Q306 703 232 658T120 534T82 354Q82 251 119 172T228 49T404 5Q473 5 526 20T636 62V311H442V330H657V51Q593 19 537 2T404 -14Q293 -14 215 32T99 162T60 354Q60 463 101 546T220 675T409 722ZM393 900H415L537 805L527 793L404 882L281 793L271 805Z" horiz-adv-x="752" unicode="Ĝ"/>
			<glyph d="M240 502Q265 502 281 499T319 492H478V473L350 476Q385 459 408 421T431 328Q431 244 381 198T238 153Q187 153 150 135T113 90Q113 39 218 39Q361 39 419 6T477 -92Q477 -170 411 -214T228 -258Q128 -258 76 -221T25 -117Q25 -70 53 -35T154 28Q92 44 92 90Q92 115 113 133T175 162Q116 174 83 216T51 328Q51 408 101 455T240 502ZM240 483Q161 483 117 441T73 328Q73 252 115 212T240 172Q324 172 366 212T409 328Q409 399 364 441T240 483ZM182 21Q107 -5 77 -38T47 -117Q47 -176 92 -207T228 -239Q337 -239 396 -201T455 -92Q455 -52 431 -27T351 9T182 21ZM231 720H253L374 605L362 593L242 702L121 593L109 605Z" horiz-adv-x="504" unicode="ĝ"/>
			<glyph d="M409 722Q540 722 634 640L620 625Q530 703 409 703Q306 703 232 658T120 534T82 354Q82 251 119 172T228 49T404 5Q473 5 526 20T636 62V311H442V330H657V51Q593 19 537 2T404 -14Q293 -14 215 32T99 162T60 354Q60 463 101 546T220 675T409 722ZM300 883Q324 802 404 802Q484 802 508 883L526 880Q515 833 483 807T404 782Q356 782 324 807T282 880Z" horiz-adv-x="752" unicode="Ğ"/>
			<glyph d="M240 502Q265 502 281 499T319 492H478V473L350 476Q385 459 408 421T431 328Q431 244 381 198T238 153Q187 153 150 135T113 90Q113 39 218 39Q361 39 419 6T477 -92Q477 -170 411 -214T228 -258Q128 -258 76 -221T25 -117Q25 -70 53 -35T154 28Q92 44 92 90Q92 115 113 133T175 162Q116 174 83 216T51 328Q51 408 101 455T240 502ZM240 483Q161 483 117 441T73 328Q73 252 115 212T240 172Q324 172 366 212T409 328Q409 399 364 441T240 483ZM182 21Q107 -5 77 -38T47 -117Q47 -176 92 -207T228 -239Q337 -239 396 -201T455 -92Q455 -52 431 -27T351 9T182 21ZM138 698Q150 647 175 624T242 602Q283 602 308 624T346 698L364 695Q342 582 242 582Q142 582 120 695Z" horiz-adv-x="504" unicode="ğ"/>
			<glyph d="M409 722Q540 722 634 640L620 625Q530 703 409 703Q306 703 232 658T120 534T82 354Q82 251 119 172T228 49T404 5Q473 5 526 20T636 62V311H442V330H657V51Q593 19 537 2T404 -14Q293 -14 215 32T99 162T60 354Q60 463 101 546T220 675T409 722ZM404 888Q428 888 428 864Q428 841 404 841Q380 841 380 864Q380 888 404 888Z" horiz-adv-x="752" unicode="Ġ"/>
			<glyph d="M240 502Q265 502 281 499T319 492H478V473L350 476Q385 459 408 421T431 328Q431 244 381 198T238 153Q187 153 150 135T113 90Q113 39 218 39Q361 39 419 6T477 -92Q477 -170 411 -214T228 -258Q128 -258 76 -221T25 -117Q25 -70 53 -35T154 28Q92 44 92 90Q92 115 113 133T175 162Q116 174 83 216T51 328Q51 408 101 455T240 502ZM240 483Q161 483 117 441T73 328Q73 252 115 212T240 172Q324 172 366 212T409 328Q409 399 364 441T240 483ZM182 21Q107 -5 77 -38T47 -117Q47 -176 92 -207T228 -239Q337 -239 396 -201T455 -92Q455 -52 431 -27T351 9T182 21ZM242 708Q266 708 266 684Q266 661 242 661Q218 661 218 684Q218 708 242 708Z" horiz-adv-x="504" unicode="ġ"/>
			<glyph d="M409 722Q540 722 634 640L620 625Q530 703 409 703Q306 703 232 658T120 534T82 354Q82 251 119 172T228 49T404 5Q473 5 526 20T636 62V311H442V330H657V51Q593 19 537 2T404 -14Q293 -14 215 32T99 162T60 354Q60 463 101 546T220 675T409 722ZM417 -71Q439 -71 439 -99Q439 -136 427 -163T383 -235L373 -229Q400 -188 409 -164T420 -110Q396 -110 396 -91Q396 -71 417 -71Z" horiz-adv-x="752" unicode="Ģ"/>
			<glyph d="M240 502Q265 502 281 499T319 492H478V473L350 476Q385 459 408 421T431 328Q431 244 381 198T238 153Q187 153 150 135T113 90Q113 39 218 39Q361 39 419 6T477 -92Q477 -170 411 -214T228 -258Q128 -258 76 -221T25 -117Q25 -70 53 -35T154 28Q92 44 92 90Q92 115 113 133T175 162Q116 174 83 216T51 328Q51 408 101 455T240 502ZM240 483Q161 483 117 441T73 328Q73 252 115 212T240 172Q324 172 366 212T409 328Q409 399 364 441T240 483ZM182 21Q107 -5 77 -38T47 -117Q47 -176 92 -207T228 -239Q337 -239 396 -201T455 -92Q455 -52 431 -27T351 9T182 21ZM274 795L284 789Q257 748 248 724T237 670Q261 670 261 651Q261 631 240 631Q218 631 218 659Q218 696 229 723T274 795Z" horiz-adv-x="504" unicode="ģ"/>
			<glyph d="M105 708H127V376H597V708H619V0H597V356H127V0H105ZM351 900H373L495 805L485 793L362 882L239 793L229 805Z" horiz-adv-x="724" unicode="Ĥ"/>
			<glyph d="M100 708H122V385H124Q146 437 194 471T313 506Q406 506 451 450T496 307V0H474V305Q474 383 435 435T313 487Q257 487 213 461T146 392T122 296V0H100ZM282 900H304L426 805L416 793L293 882L170 793L160 805Z" horiz-adv-x="586" unicode="ĥ"/>
			<glyph d="M105 708H127V582H597V708H619V582H710V563H619V0H597V356H127V0H105V563H14V582H105ZM127 563V376H597V563Z" horiz-adv-x="724" unicode="Ħ"/>
			<glyph d="M100 708H122V625H284V606H122V385H124Q146 437 194 471T313 506Q406 506 451 450T496 307V0H474V305Q474 383 435 435T313 487Q257 487 213 461T146 392T122 296V0H100V606H17V625H100Z" horiz-adv-x="586" unicode="ħ"/>
			<glyph d="M63 708H261V689H173V19H261V0H63V19H151V689H63ZM107 863Q122 863 135 856T170 836Q186 825 196 819T216 814Q233 814 247 824T278 861L293 854Q263 795 217 795Q203 795 189 801T157 821Q140 833 129 838T108 844Q91 844 76 833T46 797L31 804Q63 863 107 863Z" horiz-adv-x="324" unicode="Ĩ"/>
			<glyph d="M100 492H122V0H100ZM56 663Q71 663 84 656T119 636Q135 625 145 619T165 614Q182 614 196 624T227 661L242 654Q212 595 166 595Q152 595 138 601T106 621Q89 633 78 638T57 644Q40 644 25 633T-5 597L-20 604Q12 663 56 663Z" horiz-adv-x="222" unicode="ĩ"/>
			<glyph d="M63 708H261V689H173V19H261V0H63V19H151V689H63ZM46 840H278V821H46Z" horiz-adv-x="324" unicode="Ī"/>
			<glyph d="M100 492H122V0H100ZM-5 640H227V621H-5Z" horiz-adv-x="222" unicode="ī"/>
			<glyph d="M63 708H261V689H173V19H261V0H63V19H151V689H63ZM58 883Q82 802 162 802Q242 802 266 883L284 880Q273 833 241 807T162 782Q114 782 82 807T40 880Z" horiz-adv-x="324" unicode="Ĭ"/>
			<glyph d="M100 492H122V0H100ZM7 698Q19 647 44 624T111 602Q152 602 177 624T215 698L233 695Q211 582 111 582Q11 582 -11 695Z" horiz-adv-x="222" unicode="ĭ"/>
			<glyph d="M63 708H261V689H173V19H261V0H173Q118 -40 94 -73T71 -143Q71 -173 88 -188T136 -204Q173 -204 207 -185L215 -200Q179 -223 136 -223Q97 -223 73 -201T49 -143Q49 -70 146 0H63V19H151V689H63Z" horiz-adv-x="324" unicode="Į"/>
			<glyph d="M111 708Q135 708 135 684Q135 661 111 661Q87 661 87 684Q87 708 111 708ZM100 492H122V0Q67 -40 43 -73T20 -143Q20 -173 37 -188T85 -204Q122 -204 156 -185L164 -200Q128 -223 85 -223Q46 -223 22 -201T-2 -143Q-2 -69 100 3Z" horiz-adv-x="222" unicode="į"/>
			<glyph d="M63 708H261V689H173V19H261V0H63V19H151V689H63ZM162 888Q186 888 186 864Q186 841 162 841Q138 841 138 864Q138 888 162 888Z" horiz-adv-x="324" unicode="İ"/>
			<glyph d="M100 492H122V0H100Z" horiz-adv-x="222" unicode="ı"/>
			<glyph d="M63 708H261V689H173V19H261V0H63V19H151V689H63ZM612 708H634V187Q634 96 590 41T453 -14Q389 -14 334 16L343 32Q367 19 396 12T453 5Q534 5 573 55T612 188Z" horiz-adv-x="729" unicode="Ĳ"/>
			<glyph d="M111 708Q135 708 135 684Q135 661 111 661Q87 661 87 684Q87 708 111 708ZM333 708Q357 708 357 684Q357 661 333 661Q309 661 309 684Q309 708 333 708ZM100 492H122V0H100ZM322 492H344V-127Q344 -195 316 -226T232 -258Q218 -258 203 -255L206 -237Q220 -239 232 -239Q280 -239 301 -212T322 -127Z" horiz-adv-x="444" unicode="ĳ"/>
			<glyph d="M288 708H310V187Q310 96 266 41T129 -14Q65 -14 10 16L19 32Q43 19 72 12T129 5Q210 5 249 55T288 188ZM288 900H310L432 805L422 793L299 882L176 793L166 805Z" horiz-adv-x="405" unicode="Ĵ"/>
			<glyph d="M100 492H122V-127Q122 -195 94 -226T10 -258Q-4 -258 -19 -255L-16 -237Q-2 -239 10 -239Q58 -239 79 -212T100 -127ZM100 720H122L243 605L231 593L111 702L-10 593L-22 605Z" horiz-adv-x="222" unicode="ĵ"/>
			<glyph d="M105 708H127V338L487 708H517L204 387L535 0H506L188 371L127 308V0H105ZM308 -71Q330 -71 330 -99Q330 -136 318 -163T274 -235L264 -229Q291 -188 300 -164T311 -110Q287 -110 287 -91Q287 -71 308 -71Z" horiz-adv-x="553" unicode="Ķ"/>
			<glyph d="M100 708H122V248L389 492H420L195 287L450 0H420L179 273L122 220V0H100ZM272 -71Q294 -71 294 -99Q294 -136 282 -163T238 -235L228 -229Q255 -188 264 -164T275 -110Q251 -110 251 -91Q251 -71 272 -71Z" horiz-adv-x="455" unicode="ķ"/>
			<glyph d="M100 492H122V227L389 492H420L193 270L450 0H420L177 255L122 201V0H100Z" horiz-adv-x="455" unicode="ĸ"/>
			<glyph d="M105 708H127V20H479V0H105ZM196 903L208 884L52 792L43 806Z" horiz-adv-x="484" unicode="Ĺ"/>
			<glyph d="M100 708H122V0H100ZM191 903L203 884L47 792L38 806Z" horiz-adv-x="222" unicode="ĺ"/>
			<glyph d="M105 708H127V20H479V0H105ZM293 -71Q315 -71 315 -99Q315 -136 303 -163T259 -235L249 -229Q276 -188 285 -164T296 -110Q272 -110 272 -91Q272 -71 293 -71Z" horiz-adv-x="484" unicode="Ļ"/>
			<glyph d="M100 708H122V0H100ZM112 -71Q134 -71 134 -99Q134 -136 122 -163T78 -235L68 -229Q95 -188 104 -164T115 -110Q91 -110 91 -91Q91 -71 112 -71Z" horiz-adv-x="222" unicode="ļ"/>
			<glyph d="M105 708H127V20H479V0H105ZM247 722L269 718L239 565L224 568Z" horiz-adv-x="484" unicode="Ľ"/>
			<glyph d="M100 708H122V0H100ZM201 722L223 718L193 565L178 568Z" horiz-adv-x="253" unicode="ľ"/>
			<glyph d="M105 708H127V20H479V0H105ZM353 400Q377 400 377 376Q377 353 353 353Q329 353 329 376Q329 400 353 400Z" horiz-adv-x="484" unicode="Ŀ"/>
			<glyph d="M100 708H122V0H100ZM221 362Q245 362 245 338Q245 315 221 315Q197 315 197 338Q197 362 221 362Z" horiz-adv-x="222" unicode="ŀ"/>
			<glyph d="M105 708H127V331L360 458L370 442L127 310V20H479V0H105V298L38 261L29 278L105 319Z" horiz-adv-x="484" unicode="Ł"/>
			<glyph d="M104 708H126V337L204 379L212 363L126 317V0H104V305L26 262L18 278L104 325Z" horiz-adv-x="230" unicode="ł"/>
			<glyph d="M105 708H133L643 29H645V708H667V0H638L129 680H127V0H105ZM466 903L478 884L322 792L313 806Z" horiz-adv-x="772" unicode="Ń"/>
			<glyph d="M312 506Q405 506 450 450T495 307V0H473V305Q473 383 434 435T312 487Q256 487 212 461T145 392T121 296V0H99V387Q99 444 94 492H114Q119 444 119 382H121Q145 439 193 472T312 506ZM377 722L391 704L247 593L236 606Z" horiz-adv-x="585" unicode="ń"/>
			<glyph d="M105 708H133L643 29H645V708H667V0H638L129 680H127V0H105ZM387 -71Q409 -71 409 -99Q409 -136 397 -163T353 -235L343 -229Q370 -188 379 -164T390 -110Q366 -110 366 -91Q366 -71 387 -71Z" horiz-adv-x="772" unicode="Ņ"/>
			<glyph d="M312 506Q405 506 450 450T495 307V0H473V305Q473 383 434 435T312 487Q256 487 212 461T145 392T121 296V0H99V387Q99 444 94 492H114Q119 444 119 382H121Q145 439 193 472T312 506ZM294 -71Q316 -71 316 -99Q316 -136 304 -163T260 -235L250 -229Q277 -188 286 -164T297 -110Q273 -110 273 -91Q273 -71 294 -71Z" horiz-adv-x="585" unicode="ņ"/>
			<glyph d="M105 708H133L643 29H645V708H667V0H638L129 680H127V0H105ZM264 897L386 808L509 897L519 885L397 790H375L253 885Z" horiz-adv-x="772" unicode="Ň"/>
			<glyph d="M312 506Q405 506 450 450T495 307V0H473V305Q473 383 434 435T312 487Q256 487 212 461T145 392T121 296V0H99V387Q99 444 94 492H114Q119 444 119 382H121Q145 439 193 472T312 506ZM180 717L300 608L420 717L432 705L311 590H289L168 705Z" horiz-adv-x="585" unicode="ň"/>
			<glyph d="M312 506Q405 506 450 450T495 307V0H473V305Q473 383 434 435T312 487Q256 487 212 461T145 392T121 296V0H99V387Q99 444 94 492H114Q119 444 119 382H121Q145 439 193 472T312 506ZM115 758Q137 758 137 730Q137 694 126 667T83 595L73 600Q98 643 107 667T118 719Q94 719 94 738Q94 758 115 758Z" horiz-adv-x="585" unicode="ŉ"/>
			<glyph d="M105 708H133L643 29H645V708H667V-127Q667 -195 639 -226T555 -258Q541 -258 526 -255L529 -237Q543 -239 555 -239Q603 -239 624 -212T645 -127V0H638L129 680H127V0H105Z" horiz-adv-x="772" unicode="Ŋ"/>
			<glyph d="M312 506Q405 506 450 450T495 307V-127Q495 -195 467 -226T383 -258Q369 -258 354 -255L357 -237Q371 -239 383 -239Q431 -239 452 -212T473 -127V305Q473 383 434 435T312 487Q256 487 212 461T145 392T121 296V0H99V387Q99 444 94 492H114Q119 444 119 382H121Q145 439 193 472T312 506Z" horiz-adv-x="585" unicode="ŋ"/>
			<glyph d="M404 722Q513 722 590 675T708 545T748 354Q748 246 708 162T590 32T404 -14Q295 -14 217 32T100 162T60 354Q60 462 100 545T217 675T404 722ZM404 703Q302 703 229 658T119 535T82 354Q82 252 119 173T229 49T404 5Q506 5 578 49T688 173T726 354Q726 456 688 535T578 658T404 703ZM288 840H520V821H288Z" horiz-adv-x="808" unicode="Ō"/>
			<glyph d="M290 507Q401 507 462 436T523 247Q523 129 462 57T290 -14Q180 -14 119 57T59 247Q59 365 119 436T290 507ZM290 488Q189 488 135 421T81 247Q81 140 135 72T290 5Q392 5 446 71T501 247Q501 355 446 421T290 488ZM175 640H407V621H175Z" horiz-adv-x="582" unicode="ō"/>
			<glyph d="M404 722Q513 722 590 675T708 545T748 354Q748 246 708 162T590 32T404 -14Q295 -14 217 32T100 162T60 354Q60 462 100 545T217 675T404 722ZM404 703Q302 703 229 658T119 535T82 354Q82 252 119 173T229 49T404 5Q506 5 578 49T688 173T726 354Q726 456 688 535T578 658T404 703ZM300 883Q324 802 404 802Q484 802 508 883L526 880Q515 833 483 807T404 782Q356 782 324 807T282 880Z" horiz-adv-x="808" unicode="Ŏ"/>
			<glyph d="M290 507Q401 507 462 436T523 247Q523 129 462 57T290 -14Q180 -14 119 57T59 247Q59 365 119 436T290 507ZM290 488Q189 488 135 421T81 247Q81 140 135 72T290 5Q392 5 446 71T501 247Q501 355 446 421T290 488ZM187 698Q199 647 224 624T291 602Q332 602 357 624T395 698L413 695Q391 582 291 582Q191 582 169 695Z" horiz-adv-x="582" unicode="ŏ"/>
			<glyph d="M404 722Q513 722 590 675T708 545T748 354Q748 246 708 162T590 32T404 -14Q295 -14 217 32T100 162T60 354Q60 462 100 545T217 675T404 722ZM404 703Q302 703 229 658T119 535T82 354Q82 252 119 173T229 49T404 5Q506 5 578 49T688 173T726 354Q726 456 688 535T578 658T404 703ZM421 933L440 923L352 783L338 791ZM524 925L543 915L450 778L435 787Z" horiz-adv-x="808" unicode="Ő"/>
			<glyph d="M290 507Q401 507 462 436T523 247Q523 129 462 57T290 -14Q180 -14 119 57T59 247Q59 365 119 436T290 507ZM290 488Q189 488 135 421T81 247Q81 140 135 72T290 5Q392 5 446 71T501 247Q501 355 446 421T290 488ZM308 733L327 723L239 583L225 591ZM411 725L430 715L337 578L322 587Z" horiz-adv-x="582" unicode="ő"/>
			<glyph d="M389 722Q440 722 490 708H958V689H529Q605 651 649 568T698 377H915V358H698V354Q698 236 653 147T529 19H974V0H490Q440 -14 389 -14Q287 -14 213 32T99 162T60 354Q60 462 99 545T213 675T389 722ZM389 703Q294 703 224 658T118 534T82 354Q82 253 118 173T224 49T389 5Q479 5 544 49T642 173T676 354Q676 456 642 535T544 658T389 703Z" horiz-adv-x="1006" unicode="Œ"/>
			<glyph d="M280 507Q362 507 416 460T491 333Q510 413 561 459T688 506Q782 506 834 437T887 258V242H502Q504 139 553 72T694 5Q739 5 777 19T853 60L864 45Q781 -14 694 -14Q615 -14 563 33T491 162Q472 80 417 33T280 -14Q176 -14 117 58T59 247Q59 364 117 435T280 507ZM279 488Q184 488 132 421T80 247Q80 178 103 123T171 36T279 5Q375 5 427 72T480 247Q480 354 427 421T279 488ZM687 487Q630 487 588 456T525 374T502 259H866Q866 364 818 425T687 487Z" horiz-adv-x="945" unicode="œ"/>
			<glyph d="M105 708H316Q373 708 422 685T503 615T534 496Q534 435 508 390T439 320T345 289L541 0H516L322 288H127V0H105ZM127 689V307H315Q369 307 414 329T485 393T512 496Q512 561 484 604T411 668T316 689ZM367 903L379 884L223 792L214 806Z" horiz-adv-x="594" unicode="Ŕ"/>
			<glyph d="M290 506Q303 506 313 504L311 486Q301 487 289 487Q208 487 164 428T121 274V0H99V387Q99 444 94 492H114Q119 444 119 382H121Q161 506 290 506ZM271 722L285 704L141 593L130 606Z" horiz-adv-x="318" unicode="ŕ"/>
			<glyph d="M105 708H316Q373 708 422 685T503 615T534 496Q534 435 508 390T439 320T345 289L541 0H516L322 288H127V0H105ZM127 689V307H315Q369 307 414 329T485 393T512 496Q512 561 484 604T411 668T316 689ZM313 -71Q335 -71 335 -99Q335 -136 323 -163T279 -235L269 -229Q296 -188 305 -164T316 -110Q292 -110 292 -91Q292 -71 313 -71Z" horiz-adv-x="594" unicode="Ŗ"/>
			<glyph d="M290 506Q303 506 313 504L311 486Q301 487 289 487Q208 487 164 428T121 274V0H99V387Q99 444 94 492H114Q119 444 119 382H121Q161 506 290 506ZM111 -71Q133 -71 133 -99Q133 -136 121 -163T77 -235L67 -229Q94 -188 103 -164T114 -110Q90 -110 90 -91Q90 -71 111 -71Z" horiz-adv-x="318" unicode="ŗ"/>
			<glyph d="M105 708H316Q373 708 422 685T503 615T534 496Q534 435 508 390T439 320T345 289L541 0H516L322 288H127V0H105ZM127 689V307H315Q369 307 414 329T485 393T512 496Q512 561 484 604T411 668T316 689ZM165 897L287 808L410 897L420 885L298 790H276L154 885Z" horiz-adv-x="594" unicode="Ř"/>
			<glyph d="M290 506Q303 506 313 504L311 486Q301 487 289 487Q208 487 164 428T121 274V0H99V387Q99 444 94 492H114Q119 444 119 382H121Q161 506 290 506ZM74 717L194 608L314 717L326 705L205 590H183L62 705Z" horiz-adv-x="318" unicode="ř"/>
			<glyph d="M278 722Q388 722 470 659L458 645Q419 674 376 688T277 703Q191 703 138 662T85 549Q85 503 105 473T163 425T265 389Q339 368 386 344T459 280T486 179Q486 88 425 37T267 -14Q131 -14 36 71L49 85Q98 44 149 25T266 6Q352 6 408 51T464 179Q464 260 414 301T263 369Q193 388 150 409T86 464T64 549Q64 629 122 675T278 722ZM359 903L371 884L215 792L206 806Z" horiz-adv-x="534" unicode="Ś"/>
			<glyph d="M199 506Q290 506 351 455L339 440Q281 487 199 487Q138 487 102 460T67 387Q67 341 99 315T212 271Q294 252 329 218T365 126Q365 63 320 24T202 -14Q148 -14 106 1T30 45L42 59Q80 31 115 18T203 5Q265 5 304 37T343 125Q343 161 330 184T286 224T199 254Q114 274 79 305T45 386Q45 442 87 474T199 506ZM282 722L296 704L152 593L141 606Z" horiz-adv-x="415" unicode="ś"/>
			<glyph d="M278 722Q388 722 470 659L458 645Q419 674 376 688T277 703Q191 703 138 662T85 549Q85 503 105 473T163 425T265 389Q339 368 386 344T459 280T486 179Q486 88 425 37T267 -14Q131 -14 36 71L49 85Q98 44 149 25T266 6Q352 6 408 51T464 179Q464 260 414 301T263 369Q193 388 150 409T86 464T64 549Q64 629 122 675T278 722ZM268 900H290L412 805L402 793L279 882L156 793L146 805Z" horiz-adv-x="534" unicode="Ŝ"/>
			<glyph d="M199 506Q290 506 351 455L339 440Q281 487 199 487Q138 487 102 460T67 387Q67 341 99 315T212 271Q294 252 329 218T365 126Q365 63 320 24T202 -14Q148 -14 106 1T30 45L42 59Q80 31 115 18T203 5Q265 5 304 37T343 125Q343 161 330 184T286 224T199 254Q114 274 79 305T45 386Q45 442 87 474T199 506ZM194 720H216L337 605L325 593L205 702L84 593L72 605Z" horiz-adv-x="415" unicode="ŝ"/>
			<glyph d="M278 722Q388 722 470 659L458 645Q419 674 376 688T277 703Q191 703 138 662T85 549Q85 503 105 473T163 425T265 389Q339 368 386 344T459 280T486 179Q486 92 428 41T280 -14L253 -85Q273 -79 294 -79Q330 -79 351 -98T373 -148Q373 -184 345 -205T274 -226Q248 -226 229 -220T190 -204L198 -189Q217 -199 234 -203T275 -207Q312 -207 331 -192T351 -148Q351 -124 336 -110T293 -97Q273 -97 245 -104H224L260 -14Q126 -11 36 71L49 85Q98 44 149 25T266 6Q352 6 408 51T464 179Q464 260 414 301T263 369Q193 388 150 409T86 464T64 549Q64 629 122 675T278 722Z" horiz-adv-x="534" unicode="Ş"/>
			<glyph d="M199 506Q290 506 351 455L339 440Q281 487 199 487Q138 487 102 460T67 387Q67 341 99 315T212 271Q294 252 329 218T365 126Q365 63 320 25T205 -14L178 -85Q198 -79 219 -79Q255 -79 276 -98T298 -148Q298 -184 270 -205T199 -226Q173 -226 154 -220T115 -204L123 -189Q142 -199 159 -203T200 -207Q237 -207 256 -192T276 -148Q276 -124 261 -110T218 -97Q198 -97 170 -104H149L185 -14Q95 -9 30 45L42 59Q80 31 115 18T203 5Q265 5 304 37T343 125Q343 161 330 184T286 224T199 254Q114 274 79 305T45 386Q45 442 87 474T199 506Z" horiz-adv-x="415" unicode="ş"/>
			<glyph d="M278 722Q388 722 470 659L458 645Q419 674 376 688T277 703Q191 703 138 662T85 549Q85 503 105 473T163 425T265 389Q339 368 386 344T459 280T486 179Q486 88 425 37T267 -14Q131 -14 36 71L49 85Q98 44 149 25T266 6Q352 6 408 51T464 179Q464 260 414 301T263 369Q193 388 150 409T86 464T64 549Q64 629 122 675T278 722ZM157 897L279 808L402 897L412 885L290 790H268L146 885Z" horiz-adv-x="534" unicode="Š"/>
			<glyph d="M199 506Q290 506 351 455L339 440Q281 487 199 487Q138 487 102 460T67 387Q67 341 99 315T212 271Q294 252 329 218T365 126Q365 63 320 24T202 -14Q148 -14 106 1T30 45L42 59Q80 31 115 18T203 5Q265 5 304 37T343 125Q343 161 330 184T286 224T199 254Q114 274 79 305T45 386Q45 442 87 474T199 506ZM85 717L205 608L325 717L337 705L216 590H194L73 705Z" horiz-adv-x="415" unicode="š"/>
			<glyph d="M5 708H509V688H268V0H267L235 -85Q254 -79 276 -79Q312 -79 333 -98T355 -148Q355 -184 327 -205T256 -226Q230 -226 211 -220T172 -204L180 -189Q199 -199 216 -203T257 -207Q294 -207 313 -192T333 -148Q333 -124 318 -110T275 -97Q255 -97 227 -104H206L247 0H246V688H5Z" horiz-adv-x="514" unicode="Ţ"/>
			<glyph d="M134 636V492H279V473H134V100Q134 51 157 28T220 5Q251 5 278 14L282 -3Q255 -14 219 -14H210L183 -85Q203 -79 224 -79Q260 -79 281 -98T303 -148Q303 -184 275 -205T204 -226Q178 -226 159 -220T120 -204L128 -189Q147 -199 164 -203T205 -207Q242 -207 261 -192T281 -148Q281 -124 266 -110T223 -97Q203 -97 175 -104H154L191 -11Q153 -3 132 25T112 100V473H15V488L112 492V628Z" horiz-adv-x="312" unicode="ţ"/>
			<glyph d="M5 708H509V688H268V0H246V688H5ZM135 897L257 808L380 897L390 885L268 790H246L124 885Z" horiz-adv-x="514" unicode="Ť"/>
			<glyph d="M134 636V492H279V473H134V100Q134 51 157 28T220 5Q251 5 278 14L282 -3Q255 -14 219 -14Q169 -14 140 15T112 100V473H15V488L112 492V628ZM257 722L279 718L249 565L234 568Z" horiz-adv-x="312" unicode="ť"/>
			<glyph d="M5 708H509V688H268V364H396V345H268V0H246V345H118V364H246V688H5Z" horiz-adv-x="514" unicode="Ŧ"/>
			<glyph d="M134 636V492H279V473H134V330H249V311H134V100Q134 51 157 28T220 5Q251 5 278 14L282 -3Q255 -14 219 -14Q169 -14 140 15T112 100V311H15V330H112V473H15V488L112 492V628Z" horiz-adv-x="312" unicode="ŧ"/>
			<glyph d="M95 708H117V253Q117 6 365 6Q613 6 613 253V708H635V252Q635 -14 365 -14Q95 -14 95 252ZM311 863Q326 863 339 856T374 836Q390 825 400 819T420 814Q437 814 451 824T482 861L497 854Q467 795 421 795Q407 795 393 801T361 821Q344 833 333 838T312 844Q295 844 280 833T250 797L235 804Q267 863 311 863Z" horiz-adv-x="730" unicode="Ũ"/>
			<glyph d="M90 492H112V194Q112 112 151 58T270 4Q328 4 372 35T440 120T464 236V492H486V105Q486 48 491 0H471Q466 48 466 129H464Q438 60 389 22T270 -15Q179 -15 134 42T90 193ZM243 663Q258 663 271 656T306 636Q322 625 332 619T352 614Q369 614 383 624T414 661L429 654Q399 595 353 595Q339 595 325 601T293 621Q276 633 265 638T244 644Q227 644 212 633T182 597L167 604Q199 663 243 663Z" horiz-adv-x="585" unicode="ũ"/>
			<glyph d="M95 708H117V253Q117 6 365 6Q613 6 613 253V708H635V252Q635 -14 365 -14Q95 -14 95 252ZM250 840H482V821H250Z" horiz-adv-x="730" unicode="Ū"/>
			<glyph d="M90 492H112V194Q112 112 151 58T270 4Q328 4 372 35T440 120T464 236V492H486V105Q486 48 491 0H471Q466 48 466 129H464Q438 60 389 22T270 -15Q179 -15 134 42T90 193ZM182 640H414V621H182Z" horiz-adv-x="585" unicode="ū"/>
			<glyph d="M95 708H117V253Q117 6 365 6Q613 6 613 253V708H635V252Q635 -14 365 -14Q95 -14 95 252ZM262 883Q286 802 366 802Q446 802 470 883L488 880Q477 833 445 807T366 782Q318 782 286 807T244 880Z" horiz-adv-x="730" unicode="Ŭ"/>
			<glyph d="M90 492H112V194Q112 112 151 58T270 4Q328 4 372 35T440 120T464 236V492H486V105Q486 48 491 0H471Q466 48 466 129H464Q438 60 389 22T270 -15Q179 -15 134 42T90 193ZM194 698Q206 647 231 624T298 602Q339 602 364 624T402 698L420 695Q398 582 298 582Q198 582 176 695Z" horiz-adv-x="585" unicode="ŭ"/>
			<glyph d="M95 708H117V253Q117 6 365 6Q613 6 613 253V708H635V252Q635 -14 365 -14Q95 -14 95 252ZM366 960Q405 960 431 935T457 871Q457 834 431 808T366 782Q326 782 300 808T275 871Q275 910 301 935T366 960ZM366 942Q334 942 314 922T295 871Q295 840 314 820T366 800Q398 800 417 820T437 871Q437 902 417 922T366 942Z" horiz-adv-x="730" unicode="Ů"/>
			<glyph d="M90 492H112V194Q112 112 151 58T270 4Q328 4 372 35T440 120T464 236V492H486V105Q486 48 491 0H471Q466 48 466 129H464Q438 60 389 22T270 -15Q179 -15 134 42T90 193ZM298 760Q337 760 363 735T389 671Q389 634 363 608T298 582Q258 582 232 608T207 671Q207 710 233 735T298 760ZM298 742Q266 742 246 722T227 671Q227 640 246 620T298 600Q330 600 349 620T369 671Q369 702 349 722T298 742Z" horiz-adv-x="585" unicode="ů"/>
			<glyph d="M95 708H117V253Q117 6 365 6Q613 6 613 253V708H635V252Q635 -14 365 -14Q95 -14 95 252ZM383 933L402 923L314 783L300 791ZM486 925L505 915L412 778L397 787Z" horiz-adv-x="730" unicode="Ű"/>
			<glyph d="M90 492H112V194Q112 112 151 58T270 4Q328 4 372 35T440 120T464 236V492H486V105Q486 48 491 0H471Q466 48 466 129H464Q438 60 389 22T270 -15Q179 -15 134 42T90 193ZM315 733L334 723L246 583L232 591ZM418 725L437 715L344 578L329 587Z" horiz-adv-x="585" unicode="ű"/>
			<glyph d="M95 708H117V253Q117 6 365 6Q613 6 613 253V708H635V252Q635 45 471 -1Q417 -43 394 -75T372 -143Q372 -173 389 -188T437 -204Q474 -204 508 -185L516 -200Q480 -223 437 -223Q398 -223 374 -201T350 -143Q350 -77 438 -8Q404 -14 365 -14Q95 -14 95 252Z" horiz-adv-x="730" unicode="Ų"/>
			<glyph d="M90 492H112V194Q112 112 151 58T270 4Q328 4 372 35T440 120T464 236V492H486V105Q486 48 491 0H488Q433 -40 409 -73T386 -143Q386 -173 403 -188T451 -204Q488 -204 522 -185L530 -200Q494 -223 451 -223Q412 -223 388 -201T364 -143Q364 -67 470 7Q466 63 466 129H464Q438 60 389 22T270 -15Q179 -15 134 42T90 193Z" horiz-adv-x="585" unicode="ų"/>
			<glyph d="M25 708H48L252 20H254L455 708H488L693 20H695L899 708H922L710 0H677L472 687H470L269 0H237ZM461 900H483L605 805L595 793L472 882L349 793L339 805Z" horiz-adv-x="947" unicode="Ŵ"/>
			<glyph d="M30 492H53L185 22H187L339 492H370L523 22H525L657 492H680L539 0H509L355 469H353L200 0H170ZM344 720H366L487 605L475 593L355 702L234 593L222 605Z" horiz-adv-x="710" unicode="ŵ"/>
			<glyph d="M0 708H25L254 330H256L483 708H508L265 308V0H243V310ZM243 900H265L387 805L377 793L254 882L131 793L121 805Z" horiz-adv-x="508" unicode="Ŷ"/>
			<glyph d="M15 492H38L220 26H221L393 492H416L176 -157Q156 -210 128 -234T58 -258Q34 -258 16 -251L21 -234Q38 -239 58 -239Q97 -239 120 -216T158 -149L208 -2ZM205 720H227L348 605L336 593L216 702L95 593L83 605Z" horiz-adv-x="431" unicode="ŷ"/>
			<glyph d="M0 708H25L254 330H256L483 708H508L265 308V0H243V310ZM176 884Q200 884 200 860Q200 837 176 837Q152 837 152 860Q152 884 176 884ZM332 884Q356 884 356 860Q356 837 332 837Q308 837 308 860Q308 884 332 884Z" horiz-adv-x="508" unicode="Ÿ"/>
			<glyph d="M55 708H516V682L63 19H528V0H42V24L496 689H55ZM371 903L383 884L227 792L218 806Z" horiz-adv-x="581" unicode="Ź"/>
			<glyph d="M56 492H366V470L62 19H378V0H40V21L344 473H56ZM290 722L304 704L160 593L149 606Z" horiz-adv-x="418" unicode="ź"/>
			<glyph d="M55 708H516V682L63 19H528V0H42V24L496 689H55ZM291 888Q315 888 315 864Q315 841 291 841Q267 841 267 864Q267 888 291 888Z" horiz-adv-x="581" unicode="Ż"/>
			<glyph d="M56 492H366V470L62 19H378V0H40V21L344 473H56ZM213 708Q237 708 237 684Q237 661 213 661Q189 661 189 684Q189 708 213 708Z" horiz-adv-x="418" unicode="ż"/>
			<glyph d="M55 708H516V682L63 19H528V0H42V24L496 689H55ZM169 897L291 808L414 897L424 885L302 790H280L158 885Z" horiz-adv-x="581" unicode="Ž"/>
			<glyph d="M56 492H366V470L62 19H378V0H40V21L344 473H56ZM93 717L213 608L333 717L345 705L224 590H202L81 705Z" horiz-adv-x="418" unicode="ž"/>
			<glyph d="M399 722Q436 722 465 715L461 698Q430 704 400 704Q344 704 314 669T285 571V492H419V475H285V-127Q285 -195 257 -226T173 -258Q159 -258 144 -255L147 -237Q161 -239 173 -239Q221 -239 242 -212T263 -127V475H166V492H263V570Q263 644 298 683T399 722Z" unicode="ƒ"/>
			<glyph d="M278 722Q388 722 470 659L458 645Q419 674 376 688T277 703Q191 703 138 662T85 549Q85 503 105 473T163 425T265 389Q339 368 386 344T459 280T486 179Q486 88 425 37T267 -14Q131 -14 36 71L49 85Q98 44 149 25T266 6Q352 6 408 51T464 179Q464 260 414 301T263 369Q193 388 150 409T86 464T64 549Q64 629 122 675T278 722ZM276 -71Q298 -71 298 -99Q298 -136 286 -163T242 -235L232 -229Q259 -188 268 -164T279 -110Q255 -110 255 -91Q255 -71 276 -71Z" horiz-adv-x="534" unicode="Ș"/>
			<glyph d="M199 506Q290 506 351 455L339 440Q281 487 199 487Q138 487 102 460T67 387Q67 341 99 315T212 271Q294 252 329 218T365 126Q365 63 320 24T202 -14Q148 -14 106 1T30 45L42 59Q80 31 115 18T203 5Q265 5 304 37T343 125Q343 161 330 184T286 224T199 254Q114 274 79 305T45 386Q45 442 87 474T199 506ZM201 -71Q223 -71 223 -99Q223 -136 211 -163T167 -235L157 -229Q184 -188 193 -164T204 -110Q180 -110 180 -91Q180 -71 201 -71Z" horiz-adv-x="415" unicode="ș"/>
			<glyph d="M5 708H509V688H268V0H246V688H5ZM258 -71Q280 -71 280 -99Q280 -136 268 -163T224 -235L214 -229Q241 -188 250 -164T261 -110Q237 -110 237 -91Q237 -71 258 -71Z" horiz-adv-x="514" unicode="Ț"/>
			<glyph d="M134 636V492H279V473H134V100Q134 51 157 28T220 5Q251 5 278 14L282 -3Q255 -14 219 -14Q169 -14 140 15T112 100V473H15V488L112 492V628ZM206 -71Q228 -71 228 -99Q228 -136 216 -163T172 -235L162 -229Q189 -188 198 -164T209 -110Q185 -110 185 -91Q185 -71 206 -71Z" horiz-adv-x="312" unicode="ț"/>
			<glyph d="M100 492H122V-127Q122 -195 94 -226T10 -258Q-4 -258 -19 -255L-16 -237Q-2 -239 10 -239Q58 -239 79 -212T100 -127Z" horiz-adv-x="222" unicode="ȷ"/>
			<glyph d="M152 720H174L295 605L283 593L163 702L42 593L30 605Z" horiz-adv-x="325" unicode="ˆ"/>
			<glyph d="M42 717L162 608L282 717L294 705L173 590H151L30 705Z" horiz-adv-x="324" unicode="ˇ"/>
			<glyph d="M30 640H262V621H30Z" horiz-adv-x="292" unicode="ˉ"/>
			<glyph d="M48 698Q60 647 85 624T152 602Q193 602 218 624T256 698L274 695Q252 582 152 582Q52 582 30 695Z" horiz-adv-x="304" unicode="˘"/>
			<glyph d="M54 708Q78 708 78 684Q78 661 54 661Q30 661 30 684Q30 708 54 708Z" horiz-adv-x="108" unicode="˙"/>
			<glyph d="M121 760Q160 760 186 735T212 671Q212 634 186 608T121 582Q81 582 55 608T30 671Q30 710 56 735T121 760ZM121 742Q89 742 69 722T50 671Q50 640 69 620T121 600Q153 600 172 620T192 671Q192 702 172 722T121 742Z" horiz-adv-x="242" unicode="˚"/>
			<glyph d="M137 7L154 0Q99 -40 75 -73T52 -143Q52 -173 69 -188T117 -204Q154 -204 188 -185L196 -200Q160 -223 117 -223Q78 -223 54 -201T30 -143Q30 -67 137 7Z" horiz-adv-x="226" unicode="˛"/>
			<glyph d="M106 663Q121 663 134 656T169 636Q185 625 195 619T215 614Q232 614 246 624T277 661L292 654Q262 595 216 595Q202 595 188 601T156 621Q139 633 128 638T107 644Q90 644 75 633T45 597L30 604Q62 663 106 663Z" horiz-adv-x="322" unicode="˜"/>
			<glyph d="M113 733L132 723L44 583L30 591ZM216 725L235 715L142 578L127 587Z" horiz-adv-x="265" unicode="˝"/>
			<glyph d="M-43 795L-33 789Q-60 748 -69 724T-80 670Q-56 670 -56 651Q-56 631 -77 631Q-99 631 -99 659Q-99 696 -87 723T-43 795Z" horiz-adv-x="0" unicode="̒"/>
			<glyph d="M-50 -71Q-28 -71 -28 -99Q-28 -136 -40 -163T-84 -235L-94 -229Q-67 -188 -58 -164T-47 -110Q-71 -110 -71 -91Q-71 -71 -50 -71Z" horiz-adv-x="0" unicode="̦"/>
			<glyph d="M305 708H335L625 0H15ZM320 694L47 19H593Z" horiz-adv-x="640" unicode="Δ"/>
			<glyph d="M394 722Q498 722 573 675T688 545T728 354Q728 239 678 152T538 22H728V0H488V22Q590 57 648 145T706 354Q706 456 669 535T561 658T394 703Q297 703 226 658T119 535T82 354Q82 234 140 145T299 22V0H60V22H250Q160 65 110 152T60 354Q60 462 99 545T214 675T394 722Z" horiz-adv-x="788" unicode="Ω"/>
			<glyph d="M95 492H117V194Q117 112 156 58T275 4Q333 4 377 35T445 120T469 236V492H491V105Q491 48 496 0H476Q471 48 471 129H469Q443 60 394 22T275 -15Q161 -15 118 86H116V-131Q116 -201 111 -244H90Q95 -196 95 -139Z" horiz-adv-x="590" unicode="μ"/>
			<glyph d="M531 506L536 488Q491 473 438 473V115Q438 78 443 53T458 0H437Q426 26 421 51T416 117V473H127V0H105V473H10V492H438Q485 492 531 506Z" horiz-adv-x="556" unicode="π"/>
			<glyph d="M25 708H48L252 20H254L455 708H488L693 20H695L899 708H922L710 0H677L472 687H470L269 0H237ZM391 903L544 806L535 792L379 884Z" horiz-adv-x="947" unicode="Ẁ"/>
			<glyph d="M30 492H53L185 22H187L339 492H370L523 22H525L657 492H680L539 0H509L355 469H353L200 0H170ZM281 722L422 606L411 593L267 704Z" horiz-adv-x="710" unicode="ẁ"/>
			<glyph d="M25 708H48L252 20H254L455 708H488L693 20H695L899 708H922L710 0H677L472 687H470L269 0H237ZM552 903L564 884L408 792L399 806Z" horiz-adv-x="947" unicode="Ẃ"/>
			<glyph d="M30 492H53L185 22H187L339 492H370L523 22H525L657 492H680L539 0H509L355 469H353L200 0H170ZM432 722L446 704L302 593L291 606Z" horiz-adv-x="710" unicode="ẃ"/>
			<glyph d="M25 708H48L252 20H254L455 708H488L693 20H695L899 708H922L710 0H677L472 687H470L269 0H237ZM394 884Q418 884 418 860Q418 837 394 837Q370 837 370 860Q370 884 394 884ZM550 884Q574 884 574 860Q574 837 550 837Q526 837 526 860Q526 884 550 884Z" horiz-adv-x="947" unicode="Ẅ"/>
			<glyph d="M30 492H53L185 22H187L339 492H370L523 22H525L657 492H680L539 0H509L355 469H353L200 0H170ZM277 684Q301 684 301 660Q301 637 277 637Q253 637 253 660Q253 684 277 684ZM433 684Q457 684 457 660Q457 637 433 637Q409 637 409 660Q409 684 433 684Z" horiz-adv-x="710" unicode="ẅ"/>
			<glyph d="M310 722Q377 722 434 696T546 619L388 413Q504 392 565 341T627 190Q627 92 567 39T408 -14Q317 -14 243 26L253 43Q323 6 407 6Q496 6 551 53T606 190Q606 285 546 331T364 399V412L519 617Q470 660 420 681T309 702Q222 702 166 656T111 519V0H89L90 520Q89 617 150 669T310 722Z" horiz-adv-x="675" unicode="ẞ"/>
			<glyph d="M0 708H25L254 330H256L483 708H508L265 308V0H243V310ZM173 903L326 806L317 792L161 884Z" horiz-adv-x="508" unicode="Ỳ"/>
			<glyph d="M15 492H38L220 26H221L393 492H416L176 -157Q156 -210 128 -234T58 -258Q34 -258 16 -251L21 -234Q38 -239 58 -239Q97 -239 120 -216T158 -149L208 -2ZM142 722L283 606L272 593L128 704Z" horiz-adv-x="431" unicode="ỳ"/>
			<glyph d="M105 303H505V284H105Z" unicode="–"/>
			<glyph d="M50 303H540V284H50Z" horiz-adv-x="590" unicode="—"/>
			<glyph d="M167 722L175 715Q144 678 131 648T117 583Q144 583 144 562Q144 552 138 546T120 540Q96 540 96 571Q96 615 112 649T167 722Z" horiz-adv-x="235" unicode="‘"/>
			<glyph d="M115 726Q139 726 139 695Q139 651 123 617T68 544L60 551Q91 588 103 617T118 683Q91 683 91 704Q91 714 97 720T115 726Z" horiz-adv-x="204" unicode="’"/>
			<glyph d="M115 43Q139 43 139 12Q139 -32 123 -66T68 -139L60 -132Q91 -95 103 -65T118 0Q91 0 91 21Q91 31 97 37T115 43Z" horiz-adv-x="235" unicode="‚"/>
			<glyph d="M297 722L305 715Q274 678 261 648T247 583Q274 583 274 562Q274 552 268 546T250 540Q226 540 226 571Q226 615 242 649T297 722ZM167 722L175 715Q144 678 131 648T117 583Q144 583 144 562Q144 552 138 546T120 540Q96 540 96 571Q96 615 112 649T167 722Z" horiz-adv-x="365" unicode="“"/>
			<glyph d="M245 722Q269 722 269 691Q269 647 253 613T198 540L190 547Q221 584 233 613T248 679Q221 679 221 700Q221 710 227 716T245 722ZM115 722Q139 722 139 691Q139 647 123 613T68 540L60 547Q91 584 103 613T118 679Q91 679 91 700Q91 710 97 716T115 722Z" horiz-adv-x="365" unicode="”"/>
			<glyph d="M115 43Q139 43 139 12Q139 -32 123 -66T68 -139L60 -132Q91 -95 103 -65T118 0Q91 0 91 21Q91 31 97 37T115 43ZM245 43Q269 43 269 12Q269 -32 253 -66T198 -139L190 -132Q221 -95 233 -65T248 0Q221 0 221 21Q221 31 227 37T245 43Z" horiz-adv-x="365" unicode="„"/>
			<glyph d="M264 708H286V511H469V492H286V0H264V492H80V511H264Z" horiz-adv-x="549" unicode="†"/>
			<glyph d="M264 708H286V511H469V492H286V297H469V278H286V0H264V278H80V297H264V492H80V511H264Z" horiz-adv-x="549" unicode="‡"/>
			<glyph d="M144 367Q192 367 192 319Q192 273 144 273Q96 273 96 319Q96 367 144 367Z" horiz-adv-x="288" unicode="•"/>
			<glyph d="M359 43Q383 43 383 19Q383 -4 359 -4Q335 -4 335 19Q335 43 359 43ZM600 43Q624 43 624 19Q624 -4 600 -4Q576 -4 576 19Q576 43 600 43ZM120 43Q144 43 144 19Q144 -4 120 -4Q96 -4 96 19Q96 43 120 43Z" horiz-adv-x="720" unicode="…"/>
			<glyph d="M393 721Q457 721 502 691T569 615T592 514Q592 460 569 413T502 337T393 308Q329 308 284 337T216 413T194 514Q194 568 216 615T284 691T393 721ZM881 709H905L487 0H463ZM393 702Q335 702 295 675T235 604T216 514Q216 467 235 424T295 354T393 327Q451 327 491 354T550 424T570 514Q570 561 550 604T491 675T393 702ZM978 402Q1042 402 1087 372T1154 296T1177 195Q1177 141 1154 94T1087 18T978 -11Q914 -11 869 18T801 94T779 195Q779 249 801 296T869 372T978 402ZM1437 402Q1501 402 1546 372T1613 296T1636 195Q1636 141 1613 94T1546 18T1437 -11Q1373 -11 1328 18T1260 94T1238 195Q1238 249 1260 296T1328 372T1437 402ZM978 383Q920 383 880 356T820 285T801 195Q801 148 820 105T880 35T978 8Q1036 8 1076 35T1135 105T1155 195Q1155 242 1135 285T1076 356T978 383ZM1437 383Q1379 383 1339 356T1279 285T1260 195Q1260 148 1279 105T1339 35T1437 8Q1495 8 1535 35T1594 105T1614 195Q1614 242 1594 285T1535 356T1437 383Z" horiz-adv-x="1830" unicode="‰"/>
			<glyph d="M207 446L221 435L113 293L221 151L207 140L90 285V301Z" horiz-adv-x="311" unicode="‹"/>
			<glyph d="M104 446L221 301V285L104 140L90 151L198 293L90 435Z" horiz-adv-x="311" unicode="›"/>
			<glyph d="M297 709H321L-97 0H-121Z" horiz-adv-x="191" unicode="⁄"/>
			<glyph d="M270 718Q375 718 426 645T478 449Q478 326 426 253T270 181Q166 181 114 253T62 449Q62 573 114 645T270 718ZM270 699Q176 699 130 631T84 449Q84 334 130 267T270 200Q365 200 410 267T456 449Q456 565 410 632T270 699Z" horiz-adv-x="540" unicode="⁰"/>
			<glyph d="M267 708H291L102 355H351V517H373V355H463V335H373V191H351V335H77V353Z" horiz-adv-x="540" unicode="⁴"/>
			<glyph d="M128 708H427V689H150V478Q208 507 282 507Q362 507 406 466T451 355Q451 276 402 228T260 181Q204 181 164 196T89 246L103 259Q138 227 174 213T261 200Q342 200 385 241T429 354Q429 418 390 453T281 488Q239 488 208 480T146 457H128Z" horiz-adv-x="540" unicode="⁵"/>
			<glyph d="M297 718Q335 718 362 709T417 684L407 669Q381 685 356 692T297 700Q206 700 156 628T103 437Q137 477 180 500T287 523Q365 523 411 480T458 363Q458 281 410 231T274 181Q175 181 128 244T81 416Q81 558 137 638T297 718ZM286 505Q225 505 181 480T103 409Q106 199 274 199Q352 199 393 243T435 362Q435 430 395 467T286 505Z" horiz-adv-x="540" unicode="⁶"/>
			<glyph d="M93 707H447V689Q343 569 288 449T219 191H195Q213 327 265 447T419 687H93Z" horiz-adv-x="540" unicode="⁷"/>
			<glyph d="M270 718Q342 718 389 685T436 592Q436 548 408 517T321 459Q399 434 432 404T465 321Q465 257 412 219T269 181Q177 181 125 219T74 321Q74 377 111 414T221 473Q157 495 130 521T104 593Q104 650 151 684T270 718ZM270 700Q206 700 166 671T126 592Q126 551 152 527T248 482L300 466Q361 494 387 521T414 591Q414 643 374 671T270 700ZM246 465Q167 442 131 408T96 322Q96 264 142 231T269 199Q351 199 397 231T443 320Q443 356 426 378T377 417T287 452Z" horiz-adv-x="540" unicode="⁸"/>
			<glyph d="M270 718Q368 718 413 658T458 483Q458 342 377 261T149 181V200Q282 200 357 271T436 462Q408 423 363 399T257 376Q178 376 129 420T81 543Q81 621 130 669T270 718ZM270 699Q189 699 146 656T103 544Q103 472 145 433T259 394Q320 394 364 419T436 489Q434 595 396 647T270 699Z" horiz-adv-x="540" unicode="⁹"/>
			<glyph d="M260 634H280V498H420V479H280V342H260V479H120V498H260Z" horiz-adv-x="540" unicode="⁺"/>
			<glyph d="M120 498H420V479H120Z" horiz-adv-x="540" unicode="⁻"/>
			<glyph d="M120 571H420V552H120ZM120 415H420V396H120Z" horiz-adv-x="540" unicode="⁼"/>
			<glyph d="M328 792L344 782Q284 702 251 623T219 449Q219 354 251 276T344 117L328 107Q264 191 230 269T197 449Q197 551 230 630T328 792Z" horiz-adv-x="540" unicode="⁽"/>
			<glyph d="M212 792Q276 709 310 629T344 449Q344 348 310 270T212 107L197 117Q257 198 289 276T321 449Q321 545 288 623T197 782Z" horiz-adv-x="540" unicode="⁾"/>
			<glyph d="M270 397Q375 397 426 324T478 128Q478 5 426 -67T270 -140Q166 -140 114 -67T62 128Q62 252 114 324T270 397ZM270 378Q176 378 130 310T84 128Q84 13 130 -54T270 -121Q365 -121 410 -54T456 128Q456 244 410 311T270 378Z" horiz-adv-x="540" unicode="₀"/>
			<glyph d="M285 387H303V-110H424V-130H135V-111L281 -110V361L125 277L115 294Z" horiz-adv-x="540" unicode="₁"/>
			<glyph d="M268 397Q343 397 384 358T425 260Q425 206 400 160T316 57T129 -110H444V-130H99V-111Q232 2 293 62T379 165T403 259Q403 312 367 345T266 378Q215 378 179 362T108 313L95 326Q134 363 172 380T268 397Z" horiz-adv-x="540" unicode="₂"/>
			<glyph d="M275 397Q349 397 391 361T433 267Q433 211 403 181T332 144V143Q379 138 414 107T450 14Q450 -58 401 -99T268 -140Q208 -140 167 -124T90 -75L103 -62Q138 -94 175 -107T268 -121Q344 -121 385 -85T427 13Q427 75 387 104T286 133H207V152H277Q336 152 373 181T411 266Q411 319 375 348T274 378Q226 378 190 366T118 326L106 339Q142 369 181 383T275 397Z" horiz-adv-x="540" unicode="₃"/>
			<glyph d="M267 387H291L102 34H351V196H373V34H463V14H373V-130H351V14H77V32Z" horiz-adv-x="540" unicode="₄"/>
			<glyph d="M128 387H427V368H150V157Q208 186 282 186Q362 186 406 145T451 34Q451 -45 402 -92T260 -140Q204 -140 164 -124T89 -75L103 -62Q138 -94 174 -107T261 -121Q342 -121 385 -79T429 33Q429 97 390 132T281 167Q239 167 208 159T146 136H128Z" horiz-adv-x="540" unicode="₅"/>
			<glyph d="M297 397Q335 397 362 388T417 363L407 348Q381 364 356 371T297 379Q206 379 156 307T103 116Q137 156 180 179T287 202Q365 202 411 159T458 42Q458 -40 410 -90T274 -140Q175 -140 128 -76T81 95Q81 237 137 317T297 397ZM286 184Q225 184 181 159T103 88Q106 -122 274 -122Q352 -122 393 -78T435 41Q435 109 395 146T286 184Z" horiz-adv-x="540" unicode="₆"/>
			<glyph d="M93 386H447V368Q343 248 288 128T219 -130H195Q213 6 265 126T419 366H93Z" horiz-adv-x="540" unicode="₇"/>
			<glyph d="M270 397Q342 397 389 364T436 271Q436 227 408 196T321 138Q399 113 432 83T465 0Q465 -64 412 -102T269 -140Q177 -140 125 -102T74 0Q74 56 111 93T221 152Q157 174 130 200T104 272Q104 329 151 363T270 397ZM270 379Q206 379 166 350T126 271Q126 230 152 206T248 161L300 145Q361 173 387 200T414 270Q414 322 374 350T270 379ZM246 144Q167 121 131 87T96 1Q96 -57 142 -89T269 -122Q351 -122 397 -89T443 -1Q443 35 426 57T377 96T287 131Z" horiz-adv-x="540" unicode="₈"/>
			<glyph d="M270 397Q368 397 413 337T458 162Q458 21 377 -59T149 -140V-121Q282 -121 357 -50T436 141Q408 102 363 78T257 55Q178 55 129 99T81 222Q81 300 130 348T270 397ZM270 378Q189 378 146 335T103 223Q103 151 145 112T259 73Q320 73 364 98T436 168Q434 274 396 326T270 378Z" horiz-adv-x="540" unicode="₉"/>
			<glyph d="M260 293H280V157H420V138H280V1H260V138H120V157H260Z" horiz-adv-x="540" unicode="₊"/>
			<glyph d="M120 157H420V138H120Z" horiz-adv-x="540" unicode="₋"/>
			<glyph d="M120 230H420V211H120ZM120 74H420V55H120Z" horiz-adv-x="540" unicode="₌"/>
			<glyph d="M328 471L344 461Q284 381 251 302T219 128Q219 33 251 -44T344 -204L328 -214Q264 -130 230 -51T197 128Q197 230 230 309T328 471Z" horiz-adv-x="540" unicode="₍"/>
			<glyph d="M212 471Q276 388 310 308T344 128Q344 27 310 -51T212 -214L197 -204Q257 -123 289 -45T321 128Q321 224 288 302T197 461Z" horiz-adv-x="540" unicode="₎"/>
			<glyph d="M383 723Q500 723 585 641L573 626Q492 704 383 704Q273 704 204 628T121 428H463V411H119Q116 384 116 355Q116 325 117 311H443V294H119Q132 160 200 83T383 7Q442 7 496 31T589 99L602 84Q560 37 503 12T383 -13Q259 -13 184 68T97 294H7V311H95Q94 325 94 355Q94 375 96 411H7V428H98Q115 563 189 643T383 723Z" unicode="€"/>
			<glyph d="M79 708H530V691H327Q373 676 405 643T450 560H530V543H454Q458 523 458 496Q458 435 432 390T363 320T269 289L465 0H440L246 288H79V307H239Q293 307 338 329T409 393T436 496Q436 524 432 543H79V560H428Q410 625 357 658T240 691H79Z" unicode="₹"/>
			<glyph d="M165 708H187V416L439 526L446 510L187 398V290L439 400L446 384L187 272V19Q317 19 391 46T495 123T525 246H545Q545 167 513 113T402 29T187 0H165V262L70 221L64 237L165 281V388L70 347L64 363L165 407Z" unicode="₺"/>
			<glyph d="M118 708H320Q415 708 476 658T538 499Q538 433 509 386T432 316T324 292H140V189H420V172H140V0H118V172H51V189H118V292H51V309H118ZM140 689V309H325Q379 309 422 331T491 396T516 499Q516 598 460 643T320 689Z" unicode="₽"/>
			<glyph d="M219 721Q269 721 297 689T325 608Q325 439 122 261V100Q122 51 145 28T208 5Q239 5 266 14L270 -3Q243 -14 207 -14Q157 -14 128 15T100 100V244L38 195L30 209Q71 240 100 265V573Q100 646 132 683T219 721ZM219 702Q175 702 148 670T122 573V285Q216 370 259 449T303 608Q303 650 280 676T219 702Z" horiz-adv-x="375" unicode="ℓ"/>
			<glyph d="M474 722Q594 722 678 674T805 544T848 354Q848 247 805 164T678 33T474 -14Q354 -14 269 33T142 164T100 354Q100 461 142 544T269 674T474 722ZM474 703Q359 703 279 657T160 533T121 354Q121 253 160 174T279 50T474 5Q589 5 668 50T787 174T827 354Q827 455 787 533T668 657T474 703ZM356 568H497Q564 568 604 536T644 435Q644 372 603 336T500 300H377V143H356ZM377 549V320H500Q554 320 588 349T623 435Q623 498 587 523T497 549Z" horiz-adv-x="948" unicode="℗"/>
			<glyph d="M211 718Q295 718 360 669L348 654Q287 699 211 699Q150 699 118 675T87 611Q87 574 115 550T221 508Q303 489 334 462T366 387Q366 334 321 302T204 271Q153 271 114 284T37 323L47 338Q86 313 120 301T205 290Q267 290 305 315T344 386Q344 416 333 433T293 464T208 491Q127 510 96 539T65 610Q65 660 103 689T211 718ZM452 708H485L666 313H668L846 708H879V283H858V683H857L675 283H657L474 683H473V283H452Z" horiz-adv-x="949" unicode="℠"/>
			<glyph d="M40 708H236V690H148V492H128V690H40ZM270 708H301L390 521H392L479 708H510V492H490V685H489L398 492H381L291 685H290V492H270Z" horiz-adv-x="580" unicode="™"/>
			<glyph d="M394 722Q498 722 573 675T688 545T728 354Q728 239 678 152T538 22H728V0H488V22Q590 57 648 145T706 354Q706 456 669 535T561 658T394 703Q297 703 226 658T119 535T82 354Q82 234 140 145T299 22V0H60V22H250Q160 65 110 152T60 354Q60 462 99 545T214 675T394 722Z" horiz-adv-x="788" unicode="Ω"/>
			<glyph d="M450 683Q588 683 673 631T795 500T832 330H215Q210 330 210 325V149Q210 129 217 121Q255 73 314 47T449 22Q525 22 584 50T698 130H765Q706 60 636 28T452 -3Q335 -3 248 42T115 164T70 332Q70 423 116 504T249 634T450 683ZM447 659Q387 659 327 635T219 562Q210 553 210 536V355Q210 350 215 350H687Q692 350 692 355V535Q692 548 682 560Q639 614 574 636T447 659Z" horiz-adv-x="902" unicode="℮"/>
			<glyph d="M212 722Q303 722 379 671T500 529T545 318Q545 168 486 77T303 -14Q188 -14 127 54T66 239Q66 358 130 424T301 491Q374 491 427 457T522 360Q517 456 475 534T363 658T210 703ZM301 472Q202 472 145 411T88 238Q88 129 142 67T303 5Q523 5 523 326Q481 397 427 434T301 472Z" unicode="∂"/>
			<glyph d="M305 708H335L625 0H15ZM320 694L47 19H593Z" horiz-adv-x="640" unicode="∆"/>
			<glyph d="M40 708H602V689H507V-120H485V689H157V-120H135V689H40Z" horiz-adv-x="642" unicode="∏"/>
			<glyph d="M74 708H535V689H94L340 307V299L80 -103L548 -101V-120H62V-98L319 302L74 682Z" unicode="∑"/>
			<glyph d="M105 303H505V284H105Z" unicode="−"/>
			<glyph d="M297 709H321L-97 0H-121Z" horiz-adv-x="191" unicode="∕"/>
			<glyph d="M305 343Q329 343 329 319Q329 296 305 296Q281 296 281 319Q281 343 305 343Z" unicode="∙"/>
			<glyph d="M527 708H547L331 -120H302L155 265H62V285H170L316 -99Z" unicode="√"/>
			<glyph d="M260 504Q333 504 373 465T448 338Q482 424 525 464T641 504Q718 504 762 455T807 325Q807 243 763 192T640 142Q567 142 524 176T447 292Q415 215 372 178T259 142Q181 142 137 191T93 321Q93 401 139 452T260 504ZM640 486Q572 486 532 447T457 317Q482 258 506 224T561 176T640 161Q708 161 747 202T786 325Q786 403 747 444T640 486ZM260 485Q193 485 153 440T114 321Q114 249 154 204T260 160Q325 160 364 196T438 314Q414 379 392 414T339 467T260 485Z" horiz-adv-x="900" unicode="∞"/>
			<glyph d="M406 722Q420 722 435 719L432 701Q418 703 406 703Q358 703 337 676T316 591V-127Q316 -195 288 -226T204 -258Q190 -258 175 -255L178 -237Q192 -239 204 -239Q252 -239 273 -212T294 -127V591Q294 659 322 690T406 722Z" unicode="∫"/>
			<glyph d="M229 400Q250 400 269 393T315 372Q339 359 357 352T395 345Q422 345 443 356T490 397L502 388Q478 356 452 341T395 326Q374 326 354 333T307 355Q280 368 263 374T229 381Q203 381 179 369T130 329L118 338Q169 400 229 400ZM229 240Q250 240 269 233T315 212Q339 199 357 192T395 185Q422 185 443 196T490 237L502 228Q478 196 452 181T395 166Q374 166 354 173T307 195Q280 208 263 214T229 221Q203 221 179 209T130 169L118 178Q169 240 229 240Z" unicode="≈"/>
			<glyph d="M473 549L490 539L396 403H505V384H383L257 203H505V184H244L128 17L111 27L220 184H105V203H233L359 384H105V403H372Z" unicode="≠"/>
			<glyph d="M490 580L500 563L136 352L500 141L490 124L112 342V362ZM105 28H505V9H105Z" unicode="≤"/>
			<glyph d="M105 28H505V9H105ZM120 580L498 362V342L120 124L110 141L474 352L110 563Z" unicode="≥"/>
			<glyph d="M290 708H320L530 354L320 0H290L80 354ZM305 694L104 354L305 14L506 354Z" unicode="◊"/>
			<glyph d="M261 722Q340 722 404 678Q440 722 509 722Q546 722 575 715L571 698Q540 704 510 704Q454 704 424 669T395 571V492H529V473H395V0H373V473H134V0H112V473H15V487L112 492V570Q112 642 148 682T261 722ZM261 704Q134 704 134 571V492H373V570Q373 627 394 663Q334 704 261 704Z" horiz-adv-x="549" unicode="ﬀ"/>
			<glyph d="M261 722Q303 722 341 709T410 674L402 658Q338 704 261 704Q134 704 134 571V492H410V0H388V473H134V0H112V473H15V487L112 492V570Q112 642 148 682T261 722Z" horiz-adv-x="510" unicode="ﬁ"/>
			<glyph d="M261 722Q303 722 341 709T410 674V0H388V667Q331 704 261 704Q134 704 134 571V492H269V473H134V0H112V473H15V487L112 492V570Q112 642 148 682T261 722Z" horiz-adv-x="510" unicode="ﬂ"/>
			<glyph d="M261 722Q303 722 341 709T410 674L402 658Q338 704 261 704Q134 704 134 571V492H401V570Q401 642 437 682T550 722Q592 722 630 709T699 674L691 658Q627 704 550 704Q423 704 423 571V492H699V0H677V473H423V0H401V473H134V0H112V473H15V487L112 492V570Q112 642 148 682T261 722Z" horiz-adv-x="799" unicode="ﬃ"/>
			<glyph d="M261 722Q303 722 341 709T410 674L402 658Q338 704 261 704Q134 704 134 571V492H400V570Q400 642 436 682T549 722Q591 722 629 709T698 674V0H676V667Q619 704 549 704Q422 704 422 571V492H557V473H422V0H400V473H134V0H112V473H15V487L112 492V570Q112 642 148 682T261 722Z" horiz-adv-x="798" unicode="ﬄ"/>
		</font>
</defs>
</svg>
