<svg xmlns="http://www.w3.org/2000/svg" xmlns:xlink="http://www.w3.org/1999/xlink" viewBox="1 1 48 46">
    <defs id="defs3614">
        <linearGradient id="linearGradient3412">
            <stop offset="0" id="stop3414" stop-color="#fff" stop-opacity=".598"/>
            <stop offset="1" id="stop3416" stop-color="#4e9a06" stop-opacity="0"/>
        </linearGradient>
        <linearGradient id="linearGradient3458">
            <stop offset="0" id="stop3460" stop-color="#41a100"/>
            <stop offset="1" id="stop3462" stop-color="#fff" stop-opacity="0"/>
        </linearGradient>
        <linearGradient xlink:href="#linearGradient3412" id="linearGradient2416" gradientUnits="userSpaceOnUse" gradientTransform="matrix(1.163 .329 -.329 1.163 325.631 407.161)" x1="13" y1="11" x2="40" y2="19"/>
        <linearGradient xlink:href="#linearGradient3458" id="linearGradient2427" gradientUnits="userSpaceOnUse" gradientTransform="matrix(1.163 .329 -.329 1.163 327.751 406.926)" x1="33" y1="33" x2="4" y2="5"/>
    </defs>
    <g id="layer1" transform="translate(-322.769 -423.39)">
        <g transform="matrix(1.163 .329 -.329 1.163 327.859 406.676)" id="g3562" fill="#c5f199">
            <path id="path3564" d="M32.627 6.67c-3.684 3.678-21.515 5.995-23.627 26.33.341 5.116 2.75 11.619 7.5 10.598.983-.211 2.039.197 2.704.81 4.352 4.011 8.529 2.375 9.651-.445.215-.541.9-.597 1.461-.373 6.541 2.611 8.297-4.944 8.684-10.59.097-2.449-1.199-21.057-3.178-22.527-.59-.438-2.021 1.714-3.178 3.906-9.247 17.516-20.882 9.678-.406-7.224l.235-.527.271.031"/>
            <g id="g3566" fill-rule="evenodd">
                <path d="M24 45v-12" id="path3568"/>
                <path d="M15 42v-7" id="path3570"/>
                <path d="M33 42v-7" id="path3572"/>
            </g>
        </g>
        <g transform="matrix(1.163 .329 -.329 1.163 327.859 406.676)" id="g3574" fill="#73d216">
            <path id="path3576" d="M35.235 13.724c-3.738 8.082-13.235 16.223-15.74 10.909-1.236-2.621.95-7.294 5.476-12.587-5.918 3.639-15.966 12.612-14.356 21.845-.374 3.84 2.603 10.963 6.461 8.637 1.028-.62 2.758.276 3.378 1.332 1.319 2.243 6.112 1.588 7.154.151.768-1.059 2.374-1.672 3.638-1.377 5.533 1.289 5.921-6.125 5.897-9.046 1.629-10.747-1.787-15.884-1.908-19.864z"/>
            <g id="g3578" fill-rule="evenodd">
                <path d="M33 42v-7" id="path3580"/>
                <path d="M24 45v-12" id="path3582"/>
                <path d="M15 42v-7" id="path3584"/>
            </g>
        </g>
        <path id="path3586" d="M329.511 447.614c2.709-5.297 7.726-5.358 16.512-2.481 5.834 0 13.676-5.522 18.11-10.471.994 19.206-7.56 38.549-15.177 31.016-1.019-1.007-1.785.096-3.289.937-1.44.806-2.132.93-3.686.528-5.122.324-6.115-7.929-8.389-6.264-4.311 3.157-5.862-5.784-4.081-13.265z" fill="url(#linearGradient2427)" fill-rule="evenodd"/>
        <path id="path3590" d="M334.538 462.279c-.331-2.871-.694-8.279 1.82-11.417" stroke="#c5f199" stroke-width="3.625" stroke-linecap="round" fill="none"/>
        <path id="path3592" d="M347.268 454.039c-2.898 7.567-1.014 8.846.395 12.96l-.179-.625" stroke="#c5f199" stroke-width="3.625" stroke-linecap="round" fill="none"/>
        <g transform="matrix(1.163 .329 -.329 1.163 300.435 392.47)" id="g3596" stroke-width=".828" fill="none">
            <path d="M58.837 11.192c-4.235 2.092-24.465 10.348-24.725 27.187.127 5.638 2.911 12.57 8.884 10.597.423-.14.507-.011.762.307 4.154 5.187 9.979 2.384 10.705-.314.103-.384-.355-.12 0 0 7.447 2.509 9.177-4.365 9.653-10.189 1.109-5.25-2.802-24.7-3.739-23.106-15.961 27.16-21.139 8.675-1.539-4.482" id="path3598" stroke="#204c00" stroke-linejoin="round"/>
            <g id="g3602" stroke="#204c00" stroke-width=".828" stroke-linecap="round" stroke-linejoin="bevel" fill="none" transform="translate(25 5)">
                <path d="M18.646 43.904c-3.594-6.717-2.105-8.498-1.932-10.624" id="path3606"/>
                <path d="M29.35 43.829c-3.263-3.744-3.931-7.406-3.232-10.473" id="path3608"/>
            </g>
        </g>
        <path id="path3610" d="M351.923 429.592c.185-2.304-22.609 7.325-22.318 18.169 3.968-5.156 7.823-5.581 14.15-2.999 4.613 4.309-9.182-3.548 8.168-15.17z" fill="url(#linearGradient2416)" fill-rule="evenodd"/>
    </g>
</svg>
