<?xml version="1.0" standalone="no"?>
<!DOCTYPE svg PUBLIC "-//W3C//DTD SVG 1.1//EN" "http://www.w3.org/Graphics/SVG/1.1/DTD/svg11.dtd" >
<svg>
<metadata>
Created by FontForge 20090622 at Mon Jul 13 02:12:56 2015
 By deploy user
Copyright  2015 Spoqa (http://bi.spoqa.com/)
</metadata>
<defs>
<font id="SpoqaHanSans-Thin" horiz-adv-x="920" >
  <font-face 
    font-family="SpoqaHanSans"
    font-weight="250"
    font-stretch="normal"
    units-per-em="1000"
    panose-1="2 11 2 0 0 0 0 0 0 0"
    ascent="880"
    descent="-120"
    x-height="527"
    cap-height="726"
    bbox="-33 -275 1000 940"
    underline-thickness="50"
    underline-position="-100"
    unicode-range="U+000D-U+FFE6"
  />
<missing-glyph horiz-adv-x="1000" 
 />
    <glyph glyph-name=".notdef" horiz-adv-x="1000" 
 />
    <glyph glyph-name="NULL" horiz-adv-x="0" 
 />
    <glyph glyph-name="NULL" horiz-adv-x="0" 
 />
    <glyph glyph-name="nonmarkingreturn" unicode="&#xd;" horiz-adv-x="220" 
 />
    <glyph glyph-name="cid1" unicode=" " horiz-adv-x="220" 
 />
    <glyph glyph-name="cid4.001" horiz-adv-x="521" 
d="M132 240h-92v32h96l25 194h-99v32h101l28 217h32l-28 -217h170l29 217h32l-28 -217h90v-32h-93l-24 -194h94v-32h-99l-28 -240h-32l28 240h-170l-29 -240h-32zM339 272l24 194h-171l-24 -194h171z" />
    <glyph glyph-name="cid5.001" horiz-adv-x="521" 
d="M412 617q-15 16 -30 28.5t-31.5 21t-36.5 13t-47 4.5q-30 0 -54.5 -10t-42 -28t-27 -42t-9.5 -52q0 -51 23.5 -81.5t59.5 -52.5t77 -40.5t77 -44.5t59.5 -65.5t23.5 -103.5q0 -39 -13 -70.5t-36 -54t-53.5 -35.5t-66.5 -16v-109h-34v109q-29 2 -55.5 10t-49.5 20t-43 26
t-35 29l21 26q15 -14 34 -28.5t41.5 -25.5t48.5 -18t55 -7q73 0 111 39.5t38 102.5q0 57 -23.5 92.5t-59.5 59.5t-77 42.5t-77 42.5t-59.5 58.5t-23.5 91.5q0 34 11.5 63.5t32.5 51.5t49 35.5t61 16.5v109h34v-108q54 -4 88 -26t62 -51z" />
    <glyph glyph-name="cid6.001" horiz-adv-x="880" 
d="M198 284q-72 0 -112 58.5t-40 170.5q0 109 40 167.5t112 58.5t112.5 -58.5t40.5 -167.5q0 -112 -40.5 -170.5t-112.5 -58.5zM198 313q55 0 86.5 53t31.5 147t-31.5 145.5t-86.5 51.5q-54 0 -86 -51.5t-32 -145.5t32 -147t86 -53zM623 739h36l-406 -752h-37zM682 -13
q-72 0 -112.5 58.5t-40.5 170.5q0 109 40.5 167.5t112.5 58.5q71 0 111.5 -58.5t40.5 -167.5q0 -112 -40.5 -170.5t-111.5 -58.5zM682 16q54 0 86 53t32 147t-32 145.5t-86 51.5q-55 0 -87 -51.5t-32 -145.5t32 -147t87 -53z" />
    <glyph glyph-name="cid7.001" horiz-adv-x="621" 
d="M250 20q48 0 90 23t78 60q-60 55 -116 124.5t-96 143.5q-26 -20 -49 -40.5t-40 -43.5t-27.5 -48t-10.5 -54q0 -38 13.5 -68t37 -52t54.5 -33.5t66 -11.5zM177 583q0 -38 11.5 -79.5t31.5 -84.5l55 42.5t47 44.5t32.5 48.5t12.5 54.5q0 18 -4.5 35.5t-14 31.5t-25.5 22.5
t-38 8.5q-26 0 -46 -10t-33.5 -27t-21 -39.5t-7.5 -47.5zM594 -13q-33 12 -71 35t-80 59q-40 -42 -87.5 -68t-108.5 -26q-42 0 -79 13.5t-65 39t-44.5 62t-16.5 81.5q0 35 12.5 65t33.5 56t48 49.5t56 45.5q-23 47 -36 93t-13 89q0 34 10.5 63t29.5 50t45.5 33t58.5 12
q57 0 86 -36.5t29 -90.5q0 -35 -14.5 -65t-38.5 -56.5t-54.5 -50.5l-61.5 -48q38 -74 94 -142.5t113 -120.5q41 51 70 113.5t49 134.5h36q-22 -76 -54 -144.5t-76 -125.5q76 -62 142 -87z" />
    <glyph glyph-name="cid8.001" horiz-adv-x="231" 
d="M92 696v67h44v-67l-6 -156h-31z" />
    <glyph glyph-name="cid9.001" horiz-adv-x="299" 
d="M244 -191q-68 109 -106.5 230t-38.5 267q0 145 38.5 266.5t106.5 231.5l21 -14q-66 -105 -99.5 -228t-33.5 -256t33.5 -256.5t99.5 -227.5l-21 -13v0z" />
    <glyph glyph-name="cid10.001" horiz-adv-x="299" 
d="M33 -178q66 104 100 227.5t34 256.5t-34 256t-100 228l22 14q67 -110 106 -231.5t39 -266.5q0 -146 -38.5 -267t-106.5 -230z" />
    <glyph glyph-name="cid11.001" horiz-adv-x="427" 
d="M119 541l59 96l-98 37l10 28l101 -29l7 111h30l7 -109l101 27l9 -28l-97 -37l60 -96l-25 -17l-69 90l-71 -90z" />
    <glyph glyph-name="cid12.001" horiz-adv-x="521" 
d="M242 347h-205v32h205v225h37v-225h205v-32h-205v-224h-37v224z" />
    <glyph glyph-name="cid13.001" horiz-adv-x="231" 
d="M53 -139q35 20 57 53t23 80q-3 -1 -6.5 -1h-6.5q-17 0 -29 10.5t-12 30.5t12.5 30.5t28.5 10.5q22 0 35.5 -19t13.5 -51q0 -57 -29 -101t-74 -70z" />
    <glyph glyph-name="cid14.001" horiz-adv-x="324" 
d="M44 291h239v-35h-239v35z" />
    <glyph glyph-name="cid15.001" horiz-adv-x="231" 
d="M115 -13q-15 0 -27.5 11.5t-12.5 31.5q0 22 12.5 33.5t27.5 11.5q16 0 28.5 -11.5t12.5 -33.5q0 -20 -12.5 -31.5t-28.5 -11.5z" />
    <glyph glyph-name="cid16.001" horiz-adv-x="396" 
d="M359 782h34l-349 -958h-35z" />
    <glyph glyph-name="cid17.001" horiz-adv-x="521" 
d="M261 -13q-97 0 -151.5 92.5t-54.5 285.5q0 190 54.5 282t151.5 92q95 0 150 -92t55 -282q0 -192 -55 -285t-150 -93zM261 20q77 0 122.5 88.5t45.5 256.5q0 166 -45.5 254t-122.5 88q-78 0 -123.5 -88t-45.5 -254q0 -168 45.5 -256.5t123.5 -88.5z" />
    <glyph glyph-name="cid18.001" horiz-adv-x="521" 
d="M95 33h167v625h-127v26q42 7 75 17.5t56 24.5h31v-693h156v-33h-358v33z" />
    <glyph glyph-name="cid19.001" horiz-adv-x="521" 
d="M46 23q97 83 164 154t108.5 133.5t60 118t18.5 106.5q0 35 -9 66t-28.5 54.5t-49.5 37t-72 13.5q-49 0 -92.5 -25.5t-76.5 -67.5l-25 23q38 43 85.5 73t111.5 30q93 0 143.5 -55.5t50.5 -148.5q0 -60 -22 -119t-64 -121t-103 -128t-140 -139q30 2 60 3.5t59 1.5h246v-33
h-425v23z" />
    <glyph glyph-name="cid20.001" horiz-adv-x="521" 
d="M253 -13q-42 0 -75.5 9t-60 23t-47.5 32t-37 35l23 26q16 -17 35 -33.5t43 -29.5t53.5 -21t67.5 -8q37 0 68.5 12t54 34t35.5 53.5t13 69.5q0 39 -14.5 71t-45 55.5t-78 36t-114.5 12.5v35q63 0 106 13t69.5 36t38 53.5t11.5 65.5q0 63 -40 101t-108 40q-49 -2 -92 -24.5
t-72 -54.5l-23 26q35 34 80 59t107 26q39 0 73 -12t59.5 -33.5t40 -53.5t14.5 -72q0 -74 -39.5 -119.5t-97.5 -64.5v-4q33 -7 62.5 -23t52 -40t35.5 -56t13 -71q0 -47 -16 -84.5t-44.5 -64t-67 -41t-83.5 -14.5z" />
    <glyph glyph-name="cid21.001" horiz-adv-x="521" 
d="M343 245v299q0 11 0.5 26l1 30.5t1.5 30t2 26.5h-5l-27.5 -47.5l-29.5 -48.5l-220 -316h277zM486 213h-108v-213h-35v213h-325v19l335 494h25v-481h108v-32z" />
    <glyph glyph-name="cid22.001" horiz-adv-x="521" 
d="M247 -13q-42 0 -75 8.5t-59.5 22t-47 30t-36.5 33.5l23 27q15 -17 33.5 -32.5t42.5 -28t53.5 -20t67.5 -7.5q36 0 69 15t57.5 42.5t39.5 66t15 85.5q0 93 -48.5 147t-130.5 54q-41 0 -71.5 -13.5t-61.5 -34.5l-30 18l26 326h317v-33h-284l-24 -267q28 17 59 27.5t72 10.5
q45 0 84 -13.5t68 -42t45.5 -72.5t16.5 -105q0 -59 -19 -104t-50 -76.5t-71 -47.5t-81 -16z" />
    <glyph glyph-name="cid23.001" horiz-adv-x="521" 
d="M289 20q32 0 59 15.5t47 42t31 62t11 76.5q0 42 -9 78t-28 62.5t-49 41.5t-73 15q-38 0 -85.5 -25t-92.5 -85q3 -62 15 -114t35.5 -89.5t57.5 -58.5t81 -21zM436 648q-23 29 -54 43.5t-66 14.5q-44 0 -83 -18.5t-68.5 -60.5t-47 -111t-18.5 -170q38 46 84 72t97 26
q94 0 144.5 -58t50.5 -170q0 -50 -15 -91.5t-41 -72.5t-60 -48t-72 -17q-53 0 -94.5 23.5t-70.5 68.5t-44.5 110.5t-15.5 149.5q0 112 21 188.5t56 123.5t81.5 67.5t96.5 20.5q47 0 81.5 -18t61.5 -48z" />
    <glyph glyph-name="cid24.001" horiz-adv-x="521" 
d="M210 0q4 112 18 205.5t39.5 176.5t64.5 158.5t94 152.5h-378v33h427v-21q-65 -87 -106.5 -168t-66.5 -165t-36 -175t-15 -197h-41v0z" />
    <glyph glyph-name="cid25.001" horiz-adv-x="521" 
d="M265 -13q-48 0 -89 14.5t-70 40.5t-45.5 61.5t-16.5 76.5q0 38 13 71t33.5 60t46 47t50.5 34v4q-19 12 -37 28.5t-32.5 37t-23 44.5t-8.5 53q0 39 14 71t38 55.5t56.5 36.5t70.5 13q45 0 79.5 -14.5t58.5 -40t36.5 -60t12.5 -74.5q0 -30 -10 -58t-25 -52t-32.5 -43
t-32.5 -31v-5q22 -14 44.5 -31t39.5 -39.5t28 -51.5t11 -66q0 -38 -15 -71t-43 -58t-66.5 -39t-85.5 -14zM318 373q48 38 73 81t25 92q0 31 -10 59.5t-29.5 50.5t-47.5 34.5t-64 12.5q-32 0 -58 -11t-44.5 -30.5t-29 -45.5t-10.5 -57q0 -40 17 -68.5t45 -50t62.5 -37.5
t70.5 -30zM265 20q39 0 71 11.5t54.5 32t34.5 47.5t12 58q0 45 -19 76.5t-50.5 55t-71.5 40.5l-82 34q-59 -33 -96 -82t-37 -113q0 -33 13.5 -62.5t38 -51t58.5 -34t74 -12.5z" />
    <glyph glyph-name="cid26.001" horiz-adv-x="521" 
d="M243 313q42 0 89.5 27t92.5 88q-2 61 -14 112t-35 88t-58.5 58t-83.5 21q-32 0 -59 -15.5t-47 -42t-31 -62.5t-11 -77t9 -77t28 -62.5t48.5 -42t71.5 -15.5zM87 79q52 -59 130 -59q39 0 75.5 18.5t65 61.5t46.5 111.5t21 169.5q-38 -44 -84 -71.5t-101 -27.5
q-91 0 -141.5 59t-50.5 169q0 49 15 91t40.5 73t60 48t72.5 17q106 0 166 -86t60 -244q0 -118 -21 -199t-55.5 -130.5t-79 -71t-92.5 -21.5q-51 0 -86.5 18t-63.5 48z" />
    <glyph glyph-name="cid27.001" horiz-adv-x="231" 
d="M115 415q-15 0 -27.5 11t-12.5 32q0 22 12.5 33.5t27.5 11.5q16 0 28.5 -11.5t12.5 -33.5q0 -21 -12.5 -32t-28.5 -11zM115 -13q-15 0 -27.5 11.5t-12.5 31.5q0 22 12.5 33.5t27.5 11.5q16 0 28.5 -11.5t12.5 -33.5q0 -20 -12.5 -31.5t-28.5 -11.5z" />
    <glyph glyph-name="cid28.001" horiz-adv-x="231" 
d="M115 415q-15 0 -27.5 11t-12.5 32q0 22 12.5 33.5t27.5 11.5q16 0 28.5 -11.5t12.5 -33.5q0 -21 -12.5 -32t-28.5 -11zM53 -139q35 20 57 53t23 80q-3 -1 -6.5 -1h-6.5q-17 0 -29 10.5t-12 30.5t12.5 30.5t28.5 10.5q22 0 35.5 -19t13.5 -51q0 -57 -29 -101t-74 -70z" />
    <glyph glyph-name="cid29.001" horiz-adv-x="521" 
d="M37 345v41l447 178v-37l-263 -102l-146 -58v-4l146 -57l263 -103v-37z" />
    <glyph glyph-name="cid30.001" horiz-adv-x="521" 
d="M37 489h447v-31h-447v31zM37 269h447v-32h-447v32z" />
    <glyph glyph-name="cid31.001" horiz-adv-x="521" 
d="M37 203l263 103l146 57v4l-146 58l-263 102v37l447 -178v-41l-447 -179v37z" />
    <glyph glyph-name="cid32.001" horiz-adv-x="435" 
d="M180 190q-6 47 3.5 84.5t27.5 69t40.5 59.5t42.5 56.5t33.5 58t13.5 65.5q0 26 -7.5 50.5t-23.5 43t-41 30t-59 11.5q-42 0 -80.5 -18.5t-66.5 -53.5l-23 21q31 35 73 59.5t99 24.5q40 0 71 -13t52 -35.5t32 -53t11 -64.5q0 -38 -13.5 -70t-34 -61.5t-43.5 -58t-41 -60
t-28.5 -67t-4.5 -78.5h-33zM201 -13q-16 0 -28 11.5t-12 31.5q0 22 12 33.5t28 11.5t28.5 -11.5t12.5 -33.5q0 -20 -12.5 -31.5t-28.5 -11.5z" />
    <glyph glyph-name="cid33.001" horiz-adv-x="885" 
d="M421 -157q-79 0 -146 25.5t-115.5 74.5t-75.5 119.5t-27 159.5q0 107 35.5 193.5t95 148t137.5 95t163 33.5q78 0 141 -24.5t107.5 -69.5t68 -108.5t23.5 -141.5q0 -69 -18.5 -122t-47 -89t-63.5 -54.5t-68 -18.5q-44 0 -72.5 20t-31.5 63h-2q-30 -31 -63.5 -54
t-71.5 -23q-25 0 -47.5 9t-39.5 27.5t-27 46.5t-10 65q0 39 13.5 82t39.5 79.5t64 60t87 23.5q59 0 92 -53h2l9 44h30l-38 -203q-38 -155 68 -155q27 0 55 16.5t51.5 48.5t38.5 78t15 106q0 73 -21.5 131t-62 99t-97.5 63t-127 22q-76 0 -147 -31t-126 -88t-88 -137.5
t-33 -179.5q0 -80 24 -144.5t67.5 -109.5t104.5 -69.5t136 -24.5q57 0 102.5 15t84.5 39l17 -28q-95 -59 -206 -59zM394 102q27 0 58 18.5t66 58.5l35 195q-21 32 -40 44t-46 12q-38 0 -69 -19t-52.5 -49.5t-33 -68t-11.5 -73.5q0 -33 7.5 -55.5t20 -36.5t29.5 -20t36 -6z
" />
    <glyph glyph-name="cid34.001" horiz-adv-x="574" 
d="M422 290l-50 145l-43 125.5t-40 127.5h-4q-20 -68 -40.5 -127.5l-43.5 -125.5l-51 -145h272zM433 258h-294l-91 -258h-37l259 726h33l260 -726h-40z" />
    <glyph glyph-name="cid35.001" horiz-adv-x="632" 
d="M110 726h190q109 0 173 -43t64 -133q0 -58 -29 -99.5t-86 -58.5v-5q72 -11 116 -55.5t44 -120.5q0 -104 -72.5 -157.5t-196.5 -53.5h-203v726zM278 404q118 0 169 38t51 106q0 80 -54 113t-159 33h-138v-290h131zM300 33q113 0 179 42t66 134q0 83 -64 122.5t-181 39.5
h-153v-338h153z" />
    <glyph glyph-name="cid36.001" horiz-adv-x="619" 
d="M362 -13q-67 0 -122.5 27t-95 76.5t-61 119t-21.5 155.5t22 155t62 118t96.5 75t125.5 26q63 0 110 -26.5t75 -59.5l-23 -25q-29 34 -70 55t-92 21q-62 0 -111.5 -23.5t-84 -68t-53 -107t-18.5 -140.5t18.5 -141.5t52.5 -108t82.5 -69t109.5 -24.5q57 0 101.5 23t86.5 69
l23 -24q-42 -48 -92 -75.5t-121 -27.5z" />
    <glyph glyph-name="cid37.001" horiz-adv-x="661" 
d="M110 726h163q84 0 145.5 -26t101.5 -73t59.5 -114t19.5 -148t-19.5 -148t-59 -115.5t-101 -75t-145.5 -26.5h-164v726zM268 33q77 0 132.5 25t91 69.5t52 105t16.5 132.5t-16.5 132t-52 103.5t-91 68t-132.5 24.5h-121v-660h121z" />
    <glyph glyph-name="cid38.001" horiz-adv-x="562" 
d="M110 726h390v-33h-353v-289h296v-33h-296v-338h364v-33h-401v726z" />
    <glyph glyph-name="cid39.001" horiz-adv-x="518" 
d="M110 726h388v-33h-351v-303h296v-32h-296v-358h-37v726z" />
    <glyph glyph-name="cid40.001" horiz-adv-x="661" 
d="M368 -13q-69 0 -125.5 27t-96.5 76.5t-62 119t-22 155.5t22.5 155t64 118t100 75t130.5 26q36 0 66 -8t53.5 -20t42 -27.5t32.5 -30.5l-23 -25q-28 31 -69 53.5t-102 22.5q-65 0 -116.5 -23.5t-87.5 -68t-55 -107t-19 -140.5t18.5 -141.5t53 -108t85 -69t113.5 -24.5
q52 0 98 15.5t73 42.5v238h-179v33h218v-283q-34 -36 -87.5 -58.5t-125.5 -22.5z" />
    <glyph glyph-name="cid41.001" horiz-adv-x="698" 
d="M110 726h37v-322h404v322h38v-726h-38v371h-404v-371h-37v726z" />
    <glyph glyph-name="cid42.001" horiz-adv-x="257" 
d="M110 726h37v-726h-37v726z" />
    <glyph glyph-name="cid43.001" horiz-adv-x="503" 
d="M221 -13q-59 0 -102.5 26.5t-71.5 77.5l31 19q28 -48 62 -68t82 -20q70 0 103 42t33 133v529h38v-534q0 -43 -9.5 -80.5t-30 -65t-54 -43.5t-81.5 -16z" />
    <glyph glyph-name="cid44.001" horiz-adv-x="607" 
d="M110 726h37v-416h2l367 416h47l-233 -266l264 -460h-44l-248 431l-155 -175v-256h-37v726z" />
    <glyph glyph-name="cid45.001" horiz-adv-x="508" 
d="M110 726h37v-693h340v-33h-377v726z" />
    <glyph glyph-name="cid46.001" horiz-adv-x="770" 
d="M110 726h59l155 -438l30 -81.5l30 -82.5h4l29 82.5l28 81.5l156 438h59v-726h-37v502q0 43 1 94t3 96h-4l-56 -160l-163 -451h-39l-164 451l-57 160h-4q2 -45 3.5 -96t1.5 -94v-502h-35v726z" />
    <glyph glyph-name="cid47.001" horiz-adv-x="696" 
d="M110 726h39l320 -529l83 -143h5q-6 105 -6 205v467h36v-726h-40l-319 529l-83 143h-4q2 -51 3 -99t1 -100v-473h-35v726z" />
    <glyph glyph-name="cid48.001" horiz-adv-x="714" 
d="M357 -13q-65 0 -119 27t-93 76.5t-61 119t-22 155.5t22 155t61 118t93 75t119 26q64 0 118.5 -26t93.5 -75t61 -118t22 -155t-22 -155.5t-61 -119t-93.5 -76.5t-118.5 -27zM357 22q57 0 104.5 24.5t81 69t52 108t18.5 141.5t-18.5 140.5t-52 107t-81 68t-104.5 23.5
t-104.5 -23.5t-81 -68t-52 -107t-18.5 -140.5t18.5 -141.5t52 -108t81 -69t104.5 -24.5z" />
    <glyph glyph-name="cid49.001" horiz-adv-x="598" 
d="M110 726h175q62 0 110.5 -10.5t81.5 -34t50.5 -61.5t17.5 -92q0 -106 -66.5 -157t-189.5 -51h-142v-320h-37v726zM276 353q117 0 173 40.5t56 134.5q0 48 -14.5 79.5t-43.5 50.5t-72.5 27t-102.5 8h-125v-340h129z" />
    <glyph glyph-name="cid50.001" horiz-adv-x="714" 
d="M101 365q0 -78 18.5 -141.5t52 -109t81 -70t104.5 -24.5t104.5 24.5t81 70t52 109t18.5 141.5t-18.5 140.5t-52 107t-81 68t-104.5 23.5t-104.5 -23.5t-81 -68t-52 -107t-18.5 -140.5zM651 -156q-14 -5 -36.5 -8.5t-48.5 -3.5q-44 0 -81 12t-66.5 33t-50.5 49.5t-34 61.5
q-60 4 -110 33t-86 78t-56 116.5t-20 149.5q0 86 22 155t61 118t93 75t119 26q64 0 118.5 -26t93.5 -75t61 -118t22 -155q0 -83 -20.5 -150.5t-57 -116.5t-87 -77.5t-110.5 -32.5q24 -57 73 -88t120 -31q25 0 42 2.5t30 6.5z" />
    <glyph glyph-name="cid51.001" horiz-adv-x="589" 
d="M298 374q100 0 153.5 40t53.5 125t-53.5 119.5t-153.5 34.5h-151v-319h151zM513 0l-205 342h-161v-342h-37v726h201q54 0 97 -10.5t73.5 -33t47 -58t16.5 -85.5q0 -88 -51.5 -137t-142.5 -58l205 -344h-43z" />
    <glyph glyph-name="cid52.001" horiz-adv-x="569" 
d="M295 -13q-81 0 -140.5 31t-101.5 79l25 26q40 -47 95.5 -74t121.5 -27q88 0 139 42.5t51 111.5q0 36 -10.5 61t-29 43t-43 31t-51.5 25l-111 50q-24 10 -50 24.5t-47.5 35t-36 49.5t-14.5 69q0 39 15.5 71.5t43 55.5t65.5 35.5t82 12.5q66 0 116 -25.5t82 -60.5l-23 -25
q-32 34 -75.5 55t-99.5 21q-76 0 -122 -37t-46 -99q0 -34 12.5 -58t31.5 -41t41.5 -28l41.5 -20l111 -50q31 -14 59 -30t49 -38t33.5 -52t12.5 -72t-16 -77t-46 -60.5t-72 -40t-93 -14.5z" />
    <glyph glyph-name="cid53.001" horiz-adv-x="573" 
d="M267 693h-234v33h507v-33h-234v-693h-39v693z" />
    <glyph glyph-name="cid54.001" horiz-adv-x="694" 
d="M346 -13q-44 0 -87 13t-76.5 45t-54 87.5t-20.5 139.5v454h37v-446q0 -75 16.5 -124.5t44.5 -79t64.5 -42t75.5 -12.5q40 0 77 12.5t65.5 42t45.5 79t17 124.5v446h36v-454q0 -84 -21 -139.5t-55 -87.5t-77.5 -45t-87.5 -13z" />
    <glyph glyph-name="cid55.001" horiz-adv-x="532" 
d="M7 726h39l140 -434l19.5 -64l19 -59l19 -59t21.5 -63h4q12 33 21.5 63l19 59l19 59l20.5 64l139 434h38l-240 -726h-38z" />
    <glyph glyph-name="cid56.001" horiz-adv-x="842" 
d="M33 726h39l96 -438q14 -60 26.5 -119t26.5 -119h4l28.5 119l29.5 119l117 438h42l118 -438l29.5 -119l29.5 -119h5l25 119l24 119l97 438h37l-166 -726h-39l-139 518l-19.5 82l-20.5 81h-4q-10 -43 -21 -81t-21 -82l-137 -518h-39z" />
    <glyph glyph-name="cid57.001" horiz-adv-x="519" 
d="M240 376l-205 350h41l125 -222l28 -46.5l32 -51.5h4l28.5 51.5t26.5 46.5l127 222h38l-205 -352l220 -374h-40l-133 232l-32 54l-37 61h-4l-33.5 -61l-30.5 -54l-132 -232h-38z" />
    <glyph glyph-name="cid58.001" horiz-adv-x="482" 
d="M222 298l-218 428h40l115 -233l39 -79.5t41 -78.5h4l42.5 78.5t38.5 79.5l116 233h37l-218 -428v-298h-37v298z" />
    <glyph glyph-name="cid59.001" horiz-adv-x="592" 
d="M57 22l429 671h-391v33h438v-21l-429 -672h434v-33h-481v22z" />
    <glyph glyph-name="cid60.001" horiz-adv-x="299" 
d="M110 780h168v-26h-140v-896h140v-25h-168v947z" />
    <glyph glyph-name="cid61.001" horiz-adv-x="396" 
d="M3 782h34l350 -958h-35z" />
    <glyph glyph-name="cid62.001" horiz-adv-x="299" 
d="M21 -142h140v896h-140v26h168v-947h-168v25z" />
    <glyph glyph-name="cid63.001" horiz-adv-x="521" 
d="M240 737h41l165 -416h-37l-89 234l-57 145h-5l-57 -145l-89 -234h-37z" />
    <glyph glyph-name="cid64.001" horiz-adv-x="550" 
d="M13 -90h524v-36h-524v36z" />
    <glyph glyph-name="cid65.001" horiz-adv-x="586" 
d="M177 797l28 23l146 -169l-21 -20z" />
    <glyph glyph-name="cid66.001" horiz-adv-x="536" 
d="M218 -13q-31 0 -58.5 8.5t-48.5 25.5t-33 44t-12 65q0 44 20.5 76.5t62.5 56.5t107 40t154 26q1 32 -3.5 63.5t-18.5 57t-39.5 41.5t-66.5 16q-28 0 -53.5 -6t-47.5 -15.5t-40 -21t-31 -21.5l-18 29q12 9 31.5 20.5t44.5 22t54.5 18t61.5 7.5q46 0 77.5 -16t50 -43.5
t26.5 -63.5t8 -76v-341h-30l-5 70h-3q-41 -33 -89 -58t-101 -25zM221 20q48 0 92.5 22t96.5 67v189q-86 -9 -144.5 -24t-94.5 -35.5t-52 -47.5t-16 -60q0 -30 9.5 -51.5t25.5 -34.5t37.5 -19t45.5 -6z" />
    <glyph glyph-name="cid67.001" horiz-adv-x="593" 
d="M302 -13q-38 0 -80 18t-79 48h-3l-5 -53h-30v794h36v-234l-3 -106q42 35 89 60.5t97 25.5q54 0 93.5 -19t66 -54.5t39.5 -85t13 -110.5q0 -67 -19 -120t-51 -89.5t-74.5 -55.5t-89.5 -19zM305 20q42 0 77.5 18.5t61 52t40 79.5t14.5 101q0 50 -9.5 93.5t-30.5 75
t-55 49.5t-82 18q-41 0 -86 -23.5t-94 -67.5v-325q45 -39 88.5 -55t75.5 -16z" />
    <glyph glyph-name="cid68.001" horiz-adv-x="492" 
d="M295 -13q-50 0 -93.5 18.5t-75 53.5t-49.5 86.5t-18 116.5q0 66 19 118t51.5 87.5t75.5 54t91 18.5q54 0 91 -20.5t63 -45.5l-23 -26q-26 25 -58 42t-73 17q-42 0 -78 -18t-63 -50t-42.5 -77.5t-15.5 -99.5t14 -98.5t40.5 -76.5t63 -49.5t81.5 -17.5q44 0 81 18.5
t65 44.5l21 -26q-33 -29 -75 -49.5t-93 -20.5z" />
    <glyph glyph-name="cid69.001" horiz-adv-x="595" 
d="M277 -13q-99 0 -158.5 70.5t-59.5 204.5q0 64 19 115.5t51 87.5t75 55.5t91 19.5t84.5 -17t77.5 -49l-3 99v221h36v-794h-30l-5 70h-2q-33 -33 -77 -58t-99 -25zM280 20q46 0 88 23.5t86 67.5v324q-44 39 -81.5 55.5t-79.5 16.5t-77.5 -19t-62 -52.5t-41.5 -78t-15 -95.5
q0 -54 12 -98.5t35.5 -76.5t57.5 -49.5t78 -17.5z" />
    <glyph glyph-name="cid70.001" horiz-adv-x="527" 
d="M300 -13q-50 0 -94 19t-76.5 54t-51.5 86t-19 116q0 64 19 115.5t50.5 87.5t72.5 55.5t85 19.5q92 0 145.5 -62.5t53.5 -180.5v-17t-2 -19h-386q0 -52 14.5 -96t41.5 -76.5t64.5 -50.5t84.5 -18q45 0 80 13t65 35l16 -31q-30 -18 -67.5 -34t-95.5 -16zM450 294
q0 108 -44.5 160.5t-119.5 52.5q-35 0 -67.5 -14.5t-58 -42t-42.5 -67t-21 -89.5h353z" />
    <glyph glyph-name="cid71.001" horiz-adv-x="279" 
d="M295 759q-32 16 -64 16q-45 0 -65.5 -32.5t-20.5 -92.5v-123h125v-33h-125v-494h-35v494h-73v28l73 5v128q0 78 32.5 115t89.5 37q35 0 74 -17z" />
    <glyph glyph-name="cid72.001" horiz-adv-x="530" 
d="M275 -257q-50 0 -90 10.5t-68 30t-43 46.5t-15 60q0 35 21.5 69.5t58.5 60.5v4q-20 12 -33.5 33t-13.5 51q0 18 6 33t14.5 27.5t18.5 21.5t19 15v4q-25 22 -46 59.5t-21 85.5q0 40 14 74t38.5 59t57.5 39t71 14q23 0 40.5 -4t28.5 -9h176v-33h-126q28 -23 45 -59t17 -81
q0 -39 -14 -73.5t-38.5 -59.5t-57.5 -39.5t-71 -14.5q-23 0 -47 6.5t-42 17.5q-18 -14 -32 -33.5t-14 -46.5q0 -15 4.5 -28.5t16.5 -23t32 -15.5t50 -6h117q88 0 128.5 -28.5t40.5 -89.5q0 -33 -17 -65t-49 -57t-77 -40t-100 -15zM264 200q29 0 55 11.5t46 31.5t31.5 48.5
t11.5 62.5q0 35 -11.5 63.5t-31 48.5t-45.5 30.5t-56 10.5q-29 0 -55 -10.5t-45.5 -30.5t-31 -48t-11.5 -64q0 -34 11.5 -62.5t31.5 -48.5t45.5 -31.5t54.5 -11.5zM277 -225q47 0 85 12.5t64.5 32.5t40.5 45t14 51q0 47 -32 66.5t-95 19.5h-120q-5 0 -23.5 2t-40.5 7
q-39 -26 -56 -57.5t-17 -60.5q0 -53 46.5 -85.5t133.5 -32.5z" />
    <glyph glyph-name="cid73.001" horiz-adv-x="575" 
d="M105 794h36v-353q42 43 85.5 71t98.5 28q81 0 120 -49t39 -152v-339h-36v334q0 88 -29.5 130.5t-97.5 42.5q-49 0 -89.5 -26t-90.5 -78v-403h-36v794z" />
    <glyph glyph-name="cid74.001" horiz-adv-x="245" 
d="M105 527h36v-527h-36v527zM124 660q-16 0 -27 10.5t-11 27.5q0 19 11 29t27 10q15 0 27 -10t12 -29q0 -17 -12 -27.5t-27 -10.5z" />
    <glyph glyph-name="cid75.001" horiz-adv-x="245" 
d="M31 -256q-17 0 -35 4t-29 9l9 29q10 -3 25 -7t32 -4q23 0 37 9t22 25t10.5 37.5t2.5 47.5v633h36v-637q0 -76 -27 -111t-83 -35zM124 660q-16 0 -27 10.5t-11 27.5q0 19 11 29t27 10q15 0 27 -10t12 -29q0 -17 -12 -27.5t-27 -10.5z" />
    <glyph glyph-name="cid76.001" horiz-adv-x="499" 
d="M105 794h36v-600h2l271 333h42l-170 -208l200 -319h-39l-182 292l-124 -147v-145h-36v794z" />
    <glyph glyph-name="cid77.001" horiz-adv-x="254" 
d="M159 -13q-26 0 -40 17t-14 55v735h36v-741q0 -33 22 -33h7t12 2l7 -31q-7 -2 -13 -3t-17 -1z" />
    <glyph glyph-name="cid78.001" horiz-adv-x="889" 
d="M105 527h30l6 -84h2q36 42 79.5 69.5t87.5 27.5q65 0 98.5 -30t46.5 -80q47 51 91.5 80.5t89.5 29.5q78 0 117 -49t39 -152v-339h-35v334q0 173 -125 173q-39 0 -79 -26t-87 -78v-403h-35v334q0 88 -30 130.5t-94 42.5q-76 0 -166 -104v-403h-36v527z" />
    <glyph glyph-name="cid79.001" horiz-adv-x="580" 
d="M105 527h30l6 -84h2q41 42 84 69.5t98 27.5q81 0 120 -49t39 -152v-339h-36v334q0 88 -29.5 130.5t-97.5 42.5q-49 0 -89.5 -26t-90.5 -78v-403h-36v527z" />
    <glyph glyph-name="cid80.001" horiz-adv-x="586" 
d="M293 -13q-47 0 -89.5 18.5t-74.5 53.5t-51 86.5t-19 116.5q0 66 19 118t51 87.5t74.5 54t89.5 18.5t89.5 -18.5t74.5 -54t51 -87.5t19 -118q0 -65 -19 -116.5t-51 -86.5t-74.5 -53.5t-89.5 -18.5zM293 20q42 0 78 17.5t62.5 49.5t41.5 76.5t15 98.5t-15 99.5t-41.5 77.5
t-62.5 50t-78 18t-78 -18t-62 -50t-41 -77.5t-15 -99.5t15 -98.5t41 -76.5t62 -49.5t78 -17.5z" />
    <glyph glyph-name="cid81.001" horiz-adv-x="595" 
d="M141 91q47 -39 89.5 -55t74.5 -16q42 0 77.5 18.5t61 52t40 79.5t14.5 101q0 50 -9.5 93.5t-30.5 75t-55 49.5t-82 18q-41 0 -85 -23.5t-95 -67.5v-325zM105 527h30l6 -68h2q39 31 85 56t96 25q54 0 93.5 -19t66 -54.5t39.5 -85t13 -110.5q0 -67 -19 -120t-51 -89.5
t-74.5 -55.5t-89.5 -19q-38 0 -78.5 17t-82.5 49v-296h-36v770z" />
    <glyph glyph-name="cid82.001" horiz-adv-x="595" 
d="M454 -35l3 108q-37 -35 -81 -60.5t-99 -25.5q-99 0 -158.5 70.5t-59.5 204.5q0 64 19 115.5t51 87.5t75 55.5t91 19.5t84 -16.5t74 -45.5h2l5 49h30v-770h-36v208zM280 20q46 0 88 23.5t86 67.5v324q-44 39 -81.5 55.5t-79.5 16.5t-77.5 -19t-62 -52.5t-41.5 -78
t-15 -95.5q0 -54 12 -98.5t35.5 -76.5t57.5 -49.5t78 -17.5z" />
    <glyph glyph-name="cid83.001" horiz-adv-x="339" 
d="M105 527h30l6 -99h2q26 48 63.5 80t85.5 32q14 0 25.5 -2t25.5 -9l-9 -33q-13 5 -22 7t-25 2q-18 0 -37 -7.5t-38 -24t-37.5 -43.5t-33.5 -66v-364h-36v527z" />
    <glyph glyph-name="cid84.001" horiz-adv-x="441" 
d="M229 -13q-60 0 -108.5 21.5t-83.5 50.5l23 29q33 -29 72.5 -48.5t98.5 -19.5q66 0 99.5 33t33.5 78q0 26 -12 45t-31 33.5t-42.5 25t-46.5 18.5l-60.5 23t-54.5 29t-39.5 40.5t-15.5 57.5q0 27 10.5 52t31.5 44t52 30t72 11q39 0 78 -15t68 -39l-21 -27q-26 20 -56 34
t-72 14q-33 0 -56.5 -8.5t-39 -23t-23 -33t-7.5 -37.5q0 -24 11 -40.5t29 -29.5t40.5 -22.5t46.5 -18.5l62.5 -24t56.5 -29.5t40.5 -43t15.5 -64.5q0 -29 -11.5 -55.5t-33 -46.5t-53.5 -32t-74 -12z" />
    <glyph glyph-name="cid85.001" horiz-adv-x="334" 
d="M241 -13q-37 0 -61 11t-38 31t-19.5 48t-5.5 63v354h-84v28l84 5l4 154h31v-154h156v-33h-156v-359q0 -26 3.5 -47t13.5 -36t28 -23.5t47 -8.5q15 0 34 5t33 12l12 -30q-23 -8 -45.5 -14t-36.5 -6z" />
    <glyph glyph-name="cid86.001" horiz-adv-x="577" 
d="M255 -13q-81 0 -120 49t-39 152v339h36v-335q0 -88 29.5 -130t96.5 -42q49 0 89.5 27t89.5 86v394h36v-527h-31l-4 90h-2q-40 -46 -83 -74.5t-98 -28.5z" />
    <glyph glyph-name="cid87.001" horiz-adv-x="466" 
d="M13 527h40l124 -340l27.5 -76.5t27.5 -73.5h4l28 73.5l27 76.5l125 340h37l-197 -527h-43z" />
    <glyph glyph-name="cid88.001" horiz-adv-x="742" 
d="M26 527h40l101 -353q9 -37 18.5 -70.5t17.5 -68.5h5l19.5 68.5l19.5 70.5l101 353h48l101 -353l19.5 -70.5t20.5 -68.5h4q9 35 18.5 68.5l20.5 70.5l98 353h38l-154 -527h-49l-98 341q-12 38 -21.5 75t-20.5 75h-5l-20 -76t-23 -76l-96 -339h-44z" />
    <glyph glyph-name="cid89.001" horiz-adv-x="434" 
d="M196 275l-165 252h40l89 -140l28.5 -43l29.5 -44h4l27.5 44l28.5 43l87 140h38l-165 -254l181 -273h-41l-98 151q-14 25 -30 49.5t-33 47.5h-5q-17 -23 -32 -47.5l-31 -49.5l-95 -151h-39z" />
    <glyph glyph-name="cid90.001" horiz-adv-x="468" 
d="M74 -244q-14 0 -27.5 3t-23.5 8l9 33q8 -4 20 -6.5t24 -2.5q25 0 46 11.5t38 31t31 46.5t25 59l15 49l-218 539h40l133 -344l28.5 -73.5l30.5 -74.5h5q13 35 26 74.5l24 73.5l118 344h37l-210 -601q-10 -31 -25.5 -61.5t-36.5 -54.5t-48 -39t-61 -15z" />
    <glyph glyph-name="cid91.001" horiz-adv-x="438" 
d="M29 19l322 475h-287v33h334v-20l-322 -474h333v-33h-380v19z" />
    <glyph glyph-name="cid92.001" horiz-adv-x="299" 
d="M244 -167q-30 0 -52 6t-37 21.5t-22.5 42.5t-7.5 68q0 62 4.5 117.5t4.5 113.5q0 18 -4 34t-14.5 29t-28.5 20.5t-47 7.5v27q29 0 47 7.5t28.5 20t14.5 28t4 32.5q0 60 -4.5 115.5t-4.5 116.5q0 41 7.5 68t22.5 43t37 22.5t52 6.5h34v-26h-35q-52 0 -69.5 -29t-17.5 -89
q0 -55 3.5 -104.5t3.5 -110.5q0 -47 -11 -75t-43 -38v-4q32 -11 43 -39.5t11 -73.5q0 -61 -3.5 -111t-3.5 -104q0 -59 17.5 -88.5t69.5 -29.5h35v-25h-34v0z" />
    <glyph glyph-name="cid93.001" horiz-adv-x="243" 
d="M106 826h31v-1101h-31v1101z" />
    <glyph glyph-name="cid94.001" horiz-adv-x="299" 
d="M21 -142h34q52 0 70 29.5t18 88.5q0 54 -3.5 104t-3.5 111q0 45 10.5 73.5t42.5 39.5v4q-32 10 -42.5 38t-10.5 75q0 61 3.5 110.5t3.5 104.5q0 59 -18 88.5t-70 29.5h-34v26h33q30 0 52.5 -6.5t37.5 -22.5t22.5 -43t7.5 -68q0 -61 -4.5 -116.5t-4.5 -115.5
q0 -17 4 -32.5t14.5 -28t28.5 -20t47 -7.5v-27q-29 0 -47 -7.5t-28.5 -20.5t-14.5 -29t-4 -34q0 -58 4.5 -113.5t4.5 -117.5q0 -41 -7.5 -68t-22.5 -42.5t-37.5 -21.5t-52.5 -6h-33v25z" />
    <glyph glyph-name="cid95.001" horiz-adv-x="521" 
d="M360 297q-32 0 -58 15.5t-50 34.5t-46.5 34.5t-46.5 15.5q-25 0 -46.5 -15t-41.5 -55l-25 14q22 45 53 67t63 22q31 0 57 -16t50 -34.5l46.5 -34.5t46.5 -16q25 0 46.5 15t41.5 55l25 -16q-23 -43 -53.5 -64.5t-61.5 -21.5z" />
    <glyph glyph-name="cid96" unicode="&#xa1;" horiz-adv-x="275" 
d="M119 -141l4 477h29l4 -477v-70h-37v70zM137 451q-15 0 -27.5 12t-12.5 34q0 20 12.5 31.5t27.5 11.5q16 0 28.5 -11.5t12.5 -31.5q0 -22 -12.5 -34t-28.5 -12z" />
    <glyph glyph-name="cid97" unicode="&#xa4;" horiz-adv-x="521" 
d="M35 154l73 75q-42 54 -42 132q0 81 42 135l-73 76l23 25l73 -76q26 25 59 38.5t71 13.5q36 0 69.5 -13.5t59.5 -38.5l73 76l23 -25l-74 -76q20 -26 31.5 -60t11.5 -75q0 -39 -11 -72.5t-31 -59.5l73 -75l-23 -25l-74 75q-26 -25 -59 -38.5t-69 -13.5q-38 0 -71.5 13.5
t-59.5 38.5l-72 -75zM261 185q31 0 59.5 12.5t50.5 36t34.5 56t12.5 71.5t-12.5 72t-34.5 57t-50.5 37t-59.5 13q-32 0 -61 -13t-50.5 -37t-34 -57t-12.5 -72t12.5 -71.5t34 -56t50.5 -36t61 -12.5z" />
    <glyph glyph-name="cid98.001" horiz-adv-x="521" 
d="M242 185h-185v32h185v80h-185v32h171l-193 375h40l109 -220l36 -73.5l38 -78.5h5l38.5 78.5t37.5 73.5l109 220h38l-196 -375h174v-32h-187v-80h187v-32h-187v-185h-35v185z" />
    <glyph glyph-name="cid99" unicode="&#xa7;" horiz-adv-x="1000" 
d="M660 685q-9 7 -25.5 16.5t-38 17.5t-48 13.5t-55.5 5.5q-31 0 -56.5 -10.5t-44 -26.5t-29 -35.5t-10.5 -37.5q0 -29 14.5 -49.5t39.5 -34.5t57.5 -24t67.5 -19q89 -21 133.5 -57.5t44.5 -92.5q0 -41 -16 -79t-42 -61q15 -13 25.5 -39t10.5 -56q0 -31 -13 -60.5t-38.5 -53
t-63.5 -38t-88 -14.5q-66 0 -106 14t-63 37l24 29q17 -17 52.5 -33.5t98.5 -16.5q39 0 70 10.5t52 28.5t32 42t11 51q0 24 -7.5 42.5t-27.5 35t-55 31.5t-91 32q-53 15 -88.5 31t-57 34.5t-31 41.5t-9.5 52q0 23 15 56.5t52 67.5q-20 14 -28.5 38.5t-7.5 43.5q0 28 12 55
t36 48t59 34t82 13q32 0 59.5 -5.5t49.5 -13t38.5 -17t26.5 -16.5zM379 518q-31 -29 -43 -56.5t-12 -51.5q0 -15 4 -29.5t19.5 -29.5t48 -31t89.5 -34q37 -12 62.5 -21t42 -16t26 -12t15.5 -9q22 22 33 52t11 59q0 32 -15.5 54t-41 37.5t-57.5 26t-65 20l-63.5 19
t-53.5 22.5z" />
    <glyph glyph-name="cid100" unicode="&#xa8;" horiz-adv-x="586" 
d="M198 662q-16 0 -26 10.5t-10 25.5t10 25.5t26 10.5q15 0 25.5 -10.5t10.5 -25.5t-10.5 -25.5t-25.5 -10.5zM388 662q-16 0 -26 10.5t-10 25.5t10 25.5t26 10.5t26 -10.5t10 -25.5t-10 -25.5t-26 -10.5z" />
    <glyph glyph-name="cid101" unicode="&#xb0;" horiz-adv-x="336" 
d="M168 498q-23 0 -45 8.5t-39 25t-27.5 40t-10.5 53.5t10.5 54t27.5 40.5t39 25t45 8.5t45 -8.5t39 -25t27.5 -40.5t10.5 -54t-10.5 -53.5t-27.5 -40t-39 -25t-45 -8.5zM168 528q40 0 65 27.5t25 69.5q0 43 -25 71t-65 28t-65 -28t-25 -71q0 -42 25 -69.5t65 -27.5z" />
    <glyph glyph-name="cid102" unicode="&#xb1;" horiz-adv-x="1000" 
d="M872 464h-354v-297h-36v297h-354v36h354v297h36v-297h354v-36zM872 63v-36h-744v36h744z" />
    <glyph glyph-name="cid103" unicode="&#xb2;" horiz-adv-x="397" 
d="M64 473l97.5 93.5t66.5 73.5t38 60.5t12 55.5q0 50 -26.5 79t-71.5 29q-31 0 -58 -21t-45 -50l-22 21q18 32 53 55.5t75 23.5q59 0 94.5 -33t35.5 -101q0 -35 -14 -66.5t-39.5 -64.5t-61.5 -69l-79 -78h221v-30h-276v22z" />
    <glyph glyph-name="cid104" unicode="&#xb3;" horiz-adv-x="397" 
d="M194 438q-50 0 -88 24.5t-60 56.5l28 20q20 -31 52 -51.5t70 -20.5q43 0 73.5 25t30.5 71q0 45 -42 68.5t-115 23.5v27q34 0 60 8t44 21.5t27 30.5t9 36q0 38 -25.5 62t-70.5 24q-26 0 -53 -17t-47 -43l-23 21q21 28 53 48t72 20q27 0 50.5 -7.5t41 -22t27.5 -35.5
t10 -47q0 -42 -25 -69t-61 -41q20 -3 38.5 -12t33 -22.5t23 -32t8.5 -41.5q0 -30 -11 -53t-29.5 -39t-44.5 -24.5t-56 -8.5z" />
    <glyph glyph-name="cid105" unicode="&#xb4;" horiz-adv-x="586" 
d="M235 651l147 169l27 -23l-153 -166z" />
    <glyph glyph-name="cid106" unicode="&#xb6;" horiz-adv-x="1000" 
d="M511 289h-10q-45 0 -90 13.5t-81.5 41t-59.5 69t-23 97.5q0 42 13.5 86t48 79t94.5 57.5t152 22.5q49 0 74.5 -2t40.5 -5v-806h-35v779h-89v-779h-35v347z" />
    <glyph glyph-name="cid107" unicode="&#xb7;" horiz-adv-x="529" 
d="M258 311q-15 0 -27.5 11.5t-12.5 31.5q0 23 12.5 34.5t27.5 11.5q16 0 28.5 -11.5t12.5 -34.5q0 -20 -12.5 -31.5t-28.5 -11.5z" />
    <glyph glyph-name="cid108" unicode="&#xb8;" horiz-adv-x="586" 
d="M216 -209q71 5 97.5 19.5t26.5 39.5t-20 38t-66 20l45 94h32l-33 -75q35 -8 56 -24.5t21 -49.5q0 -42 -39 -64.5t-114 -27.5z" />
    <glyph glyph-name="cid109" unicode="&#xb9;" horiz-adv-x="397" 
d="M196 813h-90v25q58 13 92 42h31v-429h-33v362z" />
    <glyph glyph-name="cid110" unicode="&#xbc;" horiz-adv-x="836" 
d="M174 297v362h-91v25q58 13 93 42h30v-429h-32zM637 739l-407 -752h-36l407 752h36zM685 158v103l5 113h-5l-64 -92l-84 -124h148zM781 129h-64v-129h-32v129h-193v18l199 282h26v-271h64v-29z" />
    <glyph glyph-name="cid111" unicode="&#xbd;" horiz-adv-x="858" 
d="M174 659h-91v25q58 13 93 42h30v-429h-32v362zM574 739h37l-407 -752h-37zM525 23l96.5 93.5t67 73t39 60.5t12.5 56q0 49 -27 78t-72 29q-31 0 -57.5 -21t-44.5 -50l-23 21q18 32 53 55.5t75 23.5q58 0 94 -33t36 -101q0 -35 -14 -66.5t-39.5 -64.5t-61.5 -68.5
l-79 -78.5h221v-30h-276v23z" />
    <glyph glyph-name="cid112" unicode="&#xbe;" horiz-adv-x="857" 
d="M64 671q21 28 53 48t72 20q27 0 50.5 -7.5t41 -22t27.5 -35.5t10 -47q0 -42 -25 -69t-61 -41q20 -3 38.5 -12t33 -22.5t23 -32t8.5 -41.5q0 -30 -11 -53t-30 -39t-44.5 -24.5t-55.5 -8.5q-50 0 -88 24.5t-60 56.5l28 21q20 -32 52 -52.5t70 -20.5q43 0 73.5 25.5
t30.5 70.5t-42 69t-115 24v27q34 0 60 8t44 21t27 30.5t9 36.5q0 37 -25.5 61t-70.5 24q-26 0 -53 -17t-47 -43zM692 739l-407 -752h-36l407 752h36zM707 158v103l5 113h-5l-64 -92l-84 -124h148zM803 129h-64v-129h-32v129h-193v18l199 282h26v-271h64v-29z" />
    <glyph glyph-name="cid113" unicode="&#xbf;" horiz-adv-x="435" 
d="M223 -224q-40 0 -71 13t-52 35.5t-32 52.5t-11 65q0 38 14 70t34 61t43 58t41 60t28 66.5t5 78.5h33q6 -46 -3.5 -83.5t-27.5 -69t-40.5 -60t-42.5 -56.5t-33.5 -58t-13.5 -65q0 -27 7.5 -51.5t23.5 -43t41 -30t59 -11.5q42 0 80 19t67 54l24 -21q-32 -35 -74 -59.5
t-99 -24.5zM234 451q-16 0 -28 12t-12 34q0 20 12 31.5t28 11.5t28.5 -11.5t12.5 -31.5q0 -22 -12.5 -34t-28.5 -12z" />
    <glyph glyph-name="cid114" unicode="&#xd7;" horiz-adv-x="1000" 
d="M790 57l-290 290l-290 -290l-25 25l290 290l-290 289l26 26l289 -290l290 290l25 -25l-290 -290l290 -290z" />
    <glyph glyph-name="cid115" unicode="&#xf7;" horiz-adv-x="1000" 
d="M442 630q0 24 17 41t41 17t41 -17t17 -41t-17 -41t-41 -17t-41 17t-17 41zM872 390v-36h-744v36h744zM442 114q0 24 17 41t41 17t41 -17t17 -41t-17 -41t-41 -17t-41 17t-17 41z" />
    <glyph glyph-name="cid116" unicode="&#x2c7;" horiz-adv-x="1000" 
d="M729 525l-230 -373l-232 373h30l203 -320l197 320h32z" />
    <glyph glyph-name="cid117" unicode="&#x2d9;" horiz-adv-x="1000" 
d="M498 300q-39 0 -61 25t-23 57q0 16 5.5 31.5t16.5 28t26.5 20.5t35.5 8t35.5 -8t26.5 -20t16.5 -28t5.5 -32q1 -33 -22 -57.5t-62 -24.5z" />
    <glyph glyph-name="cid118" unicode="&#x2018;" horiz-adv-x="231" 
d="M169 756q-35 -30 -52.5 -59.5t-18.5 -75.5q3 1 9 1q14 0 26 -8.5t12 -28.5q0 -19 -10.5 -28.5t-27.5 -9.5q-20 0 -31.5 17t-11.5 49q0 57 23 96t64 68z" />
    <glyph glyph-name="cid119" unicode="&#x2019;" horiz-adv-x="231" 
d="M62 561q17 15 30 29.5t22 30.5t14 34.5t5 41.5q-3 -1 -9 -1q-14 0 -26 8.5t-12 27.5t10.5 28.5t27.5 9.5q19 0 31 -16.5t12 -48.5q0 -57 -23 -96.5t-64 -68.5z" />
    <glyph glyph-name="cid120" unicode="&#x201c;" horiz-adv-x="374" 
d="M169 756q-35 -30 -52.5 -59.5t-18.5 -75.5q3 1 9 1q14 0 26 -8.5t12 -28.5q0 -19 -10.5 -28.5t-27.5 -9.5q-20 0 -31.5 17t-11.5 49q0 57 23 96t64 68zM312 756q-34 -30 -52 -59.5t-19 -75.5q3 1 9 1q14 0 26 -8.5t12 -28.5q0 -19 -10.5 -28.5t-27.5 -9.5q-19 0 -31 17
t-12 49q0 57 23.5 96t63.5 68z" />
    <glyph glyph-name="cid121" unicode="&#x201d;" horiz-adv-x="374" 
d="M62 561q17 15 30 29.5t22 30.5t14 34.5t5 41.5q-3 -1 -9 -1q-14 0 -26 8.5t-12 27.5t10.5 28.5t27.5 9.5q19 0 31 -16.5t12 -48.5q0 -57 -23 -96.5t-64 -68.5zM205 561q17 15 30 29.5t22 30.5t14 34.5t5 41.5q-3 -1 -9 -1q-14 0 -26 8.5t-12 27.5t10.5 28.5t27.5 9.5
q19 0 31 -16.5t12 -48.5q0 -57 -23 -96.5t-64 -68.5z" />
    <glyph glyph-name="cid122" unicode="&#x2020;" horiz-adv-x="1000" 
d="M515 504l215 2v-36l-215 2l4 -528h-38l4 528l-215 -2v36l215 -2l-4 252h38z" />
    <glyph glyph-name="cid123" unicode="&#x2021;" horiz-adv-x="1000" 
d="M515 514l215 2v-36l-215 2l1 -267l214 2v-36l-215 2l4 -239h-38l4 239l-215 -2v36l215 -2v267l-215 -2v36l215 -2l-4 242h38z" />
    <glyph glyph-name="cid124" unicode="&#x2025;" horiz-adv-x="1000" 
d="M200 380q0 21 14.5 35.5t35.5 14.5t35.5 -14.5t14.5 -35.5t-14.5 -35.5t-35.5 -14.5t-35.5 14.5t-14.5 35.5zM700 380q0 21 14.5 35.5t35.5 14.5t35.5 -14.5t14.5 -35.5t-14.5 -35.5t-35.5 -14.5t-35.5 14.5t-14.5 35.5z" />
    <glyph glyph-name="cid125" unicode="&#x2026;" horiz-adv-x="1000" 
d="M117 380q0 21 14.5 35.5t35.5 14.5t35.5 -14.5t14.5 -35.5t-14.5 -35.5t-35.5 -14.5t-35.5 14.5t-14.5 35.5zM450 380q0 21 14.5 35.5t35.5 14.5t35.5 -14.5t14.5 -35.5t-14.5 -35.5t-35.5 -14.5t-35.5 14.5t-14.5 35.5zM783 380q0 21 14.5 35.5t35.5 14.5t35.5 -14.5
t14.5 -35.5t-14.5 -35.5t-35.5 -14.5t-35.5 14.5t-14.5 35.5z" />
    <glyph glyph-name="cid126" unicode="&#x2030;" horiz-adv-x="1000" 
d="M514 746h36l-379 -765h-36zM38 520q0 60 11.5 101.5t29.5 67.5t41 37.5t46 11.5q22 0 44.5 -11.5t41 -37.5t30.5 -68t12 -103q0 -57 -11 -97.5t-29 -67t-41 -39t-48 -12.5q-22 0 -44.5 11.5t-41 37.5t-30 67.5t-11.5 101.5zM259 519q0 22 -3.5 54.5t-14 62.5t-29 51
t-48.5 21q-29 0 -47 -21.5t-28 -51.5t-13 -62.5t-3 -53.5q0 -23 3.5 -55t13.5 -61t28 -50t47 -21q30 0 48.5 21t28.5 50.5t13.5 61.5t3.5 54zM391 206q0 60 11.5 101.5t29.5 67.5t41 37.5t46 11.5q22 0 44.5 -11.5t41 -37.5t30.5 -68t12 -103q0 -57 -11 -97.5t-29 -67
t-41 -39t-48 -12.5q-22 0 -44.5 11.5t-41 37.5t-30 67.5t-11.5 101.5zM706 206q0 60 11.5 101.5t29.5 67.5t41 37.5t46 11.5q22 0 44.5 -11.5t41 -37.5t30.5 -68t12 -103q0 -57 -11 -97.5t-29 -67t-41 -39t-48 -12.5q-22 0 -44.5 11.5t-41 37.5t-30 67.5t-11.5 101.5z
M612 205q0 22 -3.5 54.5t-14 62.5t-29 51t-48.5 21q-29 0 -47 -21.5t-28 -51.5t-13 -62.5t-3 -53.5q0 -23 3.5 -55t13.5 -61t28 -50t47 -21q30 0 48.5 21t28.5 50.5t13.5 61.5t3.5 54zM927 205q0 22 -3.5 54.5t-13.5 62.5t-29 51t-49 21q-29 0 -47 -21.5t-28 -51.5
t-13 -62.5t-3 -53.5t3 -53t12.5 -62t28 -51t48.5 -21t48.5 21t28.5 50.5t13.5 61.5t3.5 54z" />
    <glyph glyph-name="cid127" unicode="&#x2032;" horiz-adv-x="231" 
d="M117 763l32 -2l-8 -69l-27 -146l-24 2z" />
    <glyph glyph-name="cid128" unicode="&#x2033;" horiz-adv-x="374" 
d="M117 763l32 -2l-8 -69l-27 -146l-24 2zM259 763l34 -2l-9 -69l-27 -146l-24 2z" />
    <glyph glyph-name="cid129.001" horiz-adv-x="1000" 
d="M575 665q0 -31 -22 -53t-53 -22t-53 22t-22 53t22 53t53 22t53 -22t22 -53zM500 409l330 330l29 -29l-330 -330l330 -330l-29 -29l-330 330l-331 -331l-29 29l331 331l-330 330l29 29zM215 455q31 0 53 -22t22 -53t-22 -53t-53 -22t-53 22t-22 53t22 53t53 22zM785 305
q-31 0 -53 22t-22 53t22 53t53 22t53 -22t22 -53t-22 -53t-53 -22zM425 95q0 31 22 53t53 22t53 -22t22 -53t-22 -53t-53 -22t-53 22t-22 53z" />
    <glyph glyph-name="cid130.001" horiz-adv-x="521" 
d="M425 343h-88l27 -169l18 -139h4l18 139zM299 376l-16 98l-20 152h-5l-22 -154l-15 -96h78zM186 343h-85l21 -169l15 -139h5l17 139zM530 343h-75l-48 -343h-48l-55 343h-88l-53 -343h-44l-51 343h-81v29l77 4l-49 328h40l41 -328h96l46 284h48l46 -284h97l40 328h37
l-46 -328h70v-33z" />
    <glyph glyph-name="cid131" unicode="&#x2103;" horiz-adv-x="1000" 
d="M189 493q-24 0 -46 8.5t-39 25t-27.5 39.5t-10.5 53q0 31 10.5 54.5t27.5 40t39 25t46 8.5q23 0 45 -8.5t39 -25t27.5 -40t10.5 -54.5q0 -30 -10.5 -53t-27.5 -39.5t-39 -25t-45 -8.5zM189 524q38 0 63.5 26.5t25.5 68.5q0 43 -25.5 70t-63.5 27q-40 0 -64.5 -27
t-24.5 -70q0 -42 24.5 -68.5t64.5 -26.5zM725 -13q-67 0 -122.5 26.5t-95 75.5t-61 118t-21.5 155t22 155t61.5 117t96 74t125.5 26q63 0 110.5 -26.5t76.5 -59.5l-26 -27q-30 34 -69.5 54t-90.5 20q-61 0 -109.5 -23.5t-82 -66.5t-51.5 -105t-18 -138q0 -77 18 -138.5
t51 -105.5t80.5 -67.5t107.5 -23.5q57 0 100.5 22t83.5 67l26 -27q-42 -48 -92 -75t-120 -27z" />
    <glyph glyph-name="cid132" unicode="&#x2109;" horiz-adv-x="1000" 
d="M241 493q-24 0 -46 8.5t-39 25t-27.5 39.5t-10.5 53q0 31 10.5 54.5t27.5 40t39 25t46 8.5q23 0 45 -8.5t39 -25t27.5 -40t10.5 -54.5q0 -30 -10.5 -53t-27.5 -39.5t-39 -25t-45 -8.5zM241 524q38 0 63.5 26.5t25.5 68.5q0 43 -25.5 70t-63.5 27q-40 0 -64.5 -27
t-24.5 -70q0 -42 24.5 -68.5t64.5 -26.5zM517 721h388v-37h-347v-296h294v-36h-294v-352h-41v721z" />
    <glyph glyph-name="cid133" unicode="&#x2116;" horiz-adv-x="919" 
d="M95 -13h-6.5t-7.5 2l-4 31q15 0 24 9.5t9 34.5v640h42l107 -228l106 -227l87 -194h4q-2 54 -3 98t-1.5 84.5t-0.5 82v89.5v228q0 42 12 61t38 19h6.5t8.5 -2l4 -31q-16 0 -24.5 -9t-8.5 -35v-640h-43l-107 228.5l-106 229.5l-86 191h-4q2 -54 3 -98t1 -84.5v-82v-89.5
v-228q0 -80 -50 -80zM749 310q-33 0 -62 11.5t-51 34t-34.5 54t-12.5 72.5q0 42 12.5 74t34.5 53.5t51 33t62 11.5t62 -11.5t50 -33t33.5 -53.5t12.5 -74q0 -41 -12.5 -72.5t-33.5 -54t-50 -34t-62 -11.5zM749 340q56 0 90 39.5t34 102.5q0 65 -34 103.5t-90 38.5
q-57 0 -91 -38.5t-34 -103.5q0 -63 34 -102.5t91 -39.5zM614 215h269v-32h-269v32z" />
    <glyph glyph-name="cid134" unicode="&#x2121;" horiz-adv-x="1000" 
d="M170 686h-143v35h327v-35h-143v-686h-41v686zM407 558h241v-34h-200v-210h155v-34h-155v-245h211v-35h-252v558zM731 558h41v-523h189v-35h-230v558z" />
    <glyph glyph-name="cid135" unicode="&#x2122;" horiz-adv-x="662" 
d="M123 712h-121v32h276v-32h-121v-305h-34v305zM337 744h50l59 -142l35 -97h4l35 97l57 142h50v-337h-34v186l4 106h-4l-94 -239h-34l-93 239h-5l5 -106v-186h-35v337z" />
    <glyph glyph-name="cid136" unicode="&#x212b;" horiz-adv-x="1000" 
d="M631 288l-48 140l-42.5 125t-39.5 126h-5q-19 -67 -38.5 -126l-42.5 -125l-49 -140h265zM408 819q0 -48 26 -72t64 -24q36 0 62.5 24t26.5 72q0 43 -26.5 68.5t-62.5 25.5q-38 0 -64 -25.5t-26 -68.5zM643 253h-289l-88 -253h-42l247 700q-41 8 -67 40t-26 79
q0 56 34.5 88.5t85.5 32.5q25 0 47 -8.5t38.5 -24.5t26.5 -38t10 -50q0 -47 -27 -78.5t-68 -40.5l250 -700h-45z" />
    <glyph glyph-name="cid137" unicode="&#x2160;" horiz-adv-x="1000" 
d="M479 721h42v-721h-42v721z" />
    <glyph glyph-name="cid138" unicode="&#x2161;" horiz-adv-x="1000" 
d="M351 721h41v-721h-41v721zM609 721h41v-721h-41v721z" />
    <glyph glyph-name="cid139" unicode="&#x2162;" horiz-adv-x="1000" 
d="M221 721h42v-721h-42v721zM479 721h42v-721h-42v721zM737 721h42v-721h-42v721z" />
    <glyph glyph-name="cid140" unicode="&#x2163;" horiz-adv-x="1000" 
d="M214 721h42v-721h-42v721zM369 721h45l137 -427l19.5 -63l18.5 -59l18.5 -58.5l20.5 -62.5h4q12 33 21.5 62.5l18.5 58.5l18 59t20 63l136 427h43l-237 -721h-44z" />
    <glyph glyph-name="cid141" unicode="&#x2164;" horiz-adv-x="1000" 
d="M241 721h45l137 -427l19 -63l18 -59l19 -58.5l21 -62.5h4q12 33 21.5 62.5l18.5 58.5l18 59t20 63l136 427h43l-237 -721h-45z" />
    <glyph glyph-name="cid142" unicode="&#x2165;" horiz-adv-x="1000" 
d="M111 721h45l137 -427l19.5 -63l18.5 -59l18.5 -58.5l20.5 -62.5h4q12 33 21.5 62.5l18.5 58.5l18.5 59l20.5 63l136 427h42l-236 -721h-45zM744 721h42v-721h-42v721z" />
    <glyph glyph-name="cid143" unicode="&#x2166;" horiz-adv-x="1000" 
d="M2 721h45l124 -427l19 -63.5l17.5 -58.5l18 -58.5t21.5 -62.5h4q12 33 21.5 62.5l18 58.5l17 58.5l18.5 63.5l126 427h43l-225 -721h-42zM616 721h42v-721h-42v721zM844 721h42v-721h-42v721z" />
    <glyph glyph-name="cid144" unicode="&#x2167;" horiz-adv-x="1000" 
d="M-5 721h51l80 -427q6 -33 12.5 -63l12.5 -59l12 -58.5l13 -62.5h3l13 62.5l12 58.5l12 59l12 63l79 427h48l-146 -721h-65zM475 721h47v-721h-47v721zM666 721h47v-721h-47v721zM857 721h46v-721h-46v721z" />
    <glyph glyph-name="cid145" unicode="&#x2168;" horiz-adv-x="1000" 
d="M220 721h41v-721h-41v721zM605 374l-202 347h46l122 -218q14 -25 27 -46l33 -51h4l27.5 51l25.5 46l123 218h43l-203 -350l218 -371h-45l-130 228l-31 53l-36 59h-4l-33 -59t-31 -53l-128 -228h-42z" />
    <glyph glyph-name="cid146" unicode="&#x2169;" horiz-adv-x="1000" 
d="M475 374l-202 347h46l123 -218q14 -25 27 -46l32 -51h4l28 51t26 46l123 218h42l-203 -350l219 -371h-46l-129 228l-31.5 53l-36.5 59h-4l-32.5 -59l-30.5 -53l-129 -228h-42z" />
    <glyph glyph-name="cid147" unicode="&#x2170;" horiz-adv-x="1000" 
d="M479 523h41v-523h-41v523zM501 653q-17 0 -29.5 12t-12.5 29q0 19 12.5 29.5t29.5 10.5q15 0 27.5 -10.5t12.5 -29.5q0 -17 -12.5 -29t-27.5 -12z" />
    <glyph glyph-name="cid148" unicode="&#x2171;" horiz-adv-x="1000" 
d="M357 523h40v-523h-40v523zM379 653q-17 0 -29.5 12t-12.5 29q0 19 12.5 29.5t29.5 10.5q15 0 27 -10.5t12 -29.5q0 -17 -12 -29t-27 -12zM603 523h40v-523h-40v523zM625 653q-17 0 -29.5 12t-12.5 29q0 19 12.5 29.5t29.5 10.5q15 0 27 -10.5t12 -29.5q0 -17 -12 -29
t-27 -12z" />
    <glyph glyph-name="cid149" unicode="&#x2172;" horiz-adv-x="1000" 
d="M233 523h41v-523h-41v523zM255 653q-17 0 -29.5 12t-12.5 29q0 19 12.5 29.5t29.5 10.5q15 0 27.5 -10.5t12.5 -29.5q0 -17 -12.5 -29t-27.5 -12zM479 523h41v-523h-41v523zM501 653q-17 0 -29.5 12t-12.5 29q0 19 12.5 29.5t29.5 10.5q15 0 27.5 -10.5t12.5 -29.5
q0 -17 -12.5 -29t-27.5 -12zM725 523h41v-523h-41v523zM747 653q-17 0 -29.5 12t-12.5 29q0 19 12.5 29.5t29.5 10.5q15 0 27.5 -10.5t12.5 -29.5q0 -17 -12.5 -29t-27.5 -12z" />
    <glyph glyph-name="cid150" unicode="&#x2173;" horiz-adv-x="1000" 
d="M245 523h41v-523h-41v523zM268 653q-17 0 -29.5 12t-12.5 29q0 19 12.5 29.5t29.5 10.5q15 0 27 -10.5t12 -29.5q0 -17 -12 -29t-27 -12zM402 523h45l121 -333l26.5 -76.5t27.5 -73.5h4l27 73.5t26 76.5l122 333h42l-195 -523h-49z" />
    <glyph glyph-name="cid151" unicode="&#x2174;" horiz-adv-x="1000" 
d="M279 523h45l121 -333l27.5 -76.5t27.5 -73.5h4l27 73.5t26 76.5l122 333h42l-196 -523h-48z" />
    <glyph glyph-name="cid152" unicode="&#x2175;" horiz-adv-x="1000" 
d="M156 523h45l121 -333l26.5 -76.5t27.5 -73.5h4l27 73.5t26 76.5l122 333h42l-195 -523h-48zM713 523h40v-523h-40v523zM735 653q-17 0 -29.5 12t-12.5 29q0 19 12.5 29.5t29.5 10.5q15 0 27 -10.5t12 -29.5q0 -17 -12 -29t-27 -12z" />
    <glyph glyph-name="cid153" unicode="&#x2176;" horiz-adv-x="1000" 
d="M17 523h45l125 -333l28 -76.5l28 -73.5h4l28 73.5l27 76.5l126 333h41l-200 -523h-49zM593 523h41v-523h-41v523zM615 653q-17 0 -29.5 12t-12.5 29q0 19 12.5 29.5t29.5 10.5q15 0 27.5 -10.5t12.5 -29.5q0 -17 -12.5 -29t-27.5 -12zM850 523h40v-523h-40v523zM872 653
q-17 0 -29.5 12t-12.5 29q0 19 12.5 29.5t29.5 10.5q15 0 27 -10.5t12 -29.5q0 -17 -12 -29t-27 -12z" />
    <glyph glyph-name="cid154" unicode="&#x2177;" horiz-adv-x="1000" 
d="M-3 523h48l79 -333q11 -38 20 -76.5t21 -73.5h4q11 35 20.5 73.5l19.5 76.5l78 333h44l-133 -523h-63zM457 523h46v-523h-46v523zM482 653q-19 0 -32 12t-13 29q0 19 13 29.5t32 10.5q17 0 29.5 -10.5t12.5 -29.5q0 -17 -12.5 -29t-29.5 -12zM665 523h46v-523h-46v523z
M690 653q-18 0 -31.5 12t-13.5 29q0 19 13.5 29.5t31.5 10.5q17 0 29.5 -10.5t12.5 -29.5q0 -17 -12.5 -29t-29.5 -12zM873 523h46v-523h-46v523zM898 653q-18 0 -31.5 12t-13.5 29q0 19 13.5 29.5t31.5 10.5q17 0 29.5 -10.5t12.5 -29.5q0 -17 -12.5 -29t-29.5 -12z" />
    <glyph glyph-name="cid155" unicode="&#x2178;" horiz-adv-x="1000" 
d="M261 523h40v-523h-40v523zM283 653q-17 0 -29.5 12t-12.5 29q0 19 12.5 29.5t29.5 10.5q15 0 27 -10.5t12 -29.5q0 -17 -12 -29t-27 -12zM599 273l-164 250h44l88 -136q12 -21 27 -42.5l29 -43.5h4q15 22 28 43.5t28 42.5l84 136h43l-164 -252l179 -271h-45l-96 148
q-14 24 -29.5 48t-32.5 47h-5q-16 -23 -30.5 -46.5t-31.5 -48.5l-93 -148h-43z" />
    <glyph glyph-name="cid156" unicode="&#x2179;" horiz-adv-x="1000" 
d="M476 273l-164 250h45l88 -136q12 -21 26.5 -42.5l29.5 -43.5h4l27.5 43.5t28.5 42.5l83 136h44l-164 -252l178 -271h-44l-96 148l-30.5 48t-32.5 47h-5l-29.5 -46.5t-31.5 -48.5l-93 -148h-43z" />
    <glyph glyph-name="cid157" unicode="&#x2190;" horiz-adv-x="1000" 
d="M124 362q46 -35 99 -85t94 -104l-30 -21q-25 33 -55 65t-63 61.5t-67 55t-67 46.5q33 21 67 46.5t67 55t63 61.5t55 65l30 -21q-41 -54 -94 -104t-99 -85h836v-36h-836z" />
    <glyph glyph-name="cid158" unicode="&#x2191;" horiz-adv-x="1000" 
d="M482 756q-35 -46 -85 -99t-104 -94l-21 30q33 25 65 55t61.5 63t55 67t46.5 67q21 -33 46.5 -67t55 -67t61.5 -63t65 -55l-21 -30q-54 41 -104 94t-85 99v-836h-36v836z" />
    <glyph glyph-name="cid159" unicode="&#x2192;" horiz-adv-x="1000" 
d="M40 398h836q-46 35 -99 85t-94 104l30 21q25 -33 55 -65t63 -61.5t67 -55t67 -46.5q-33 -21 -67 -46.5t-67 -55t-63 -61.5t-55 -65l-30 21q41 54 94 104t99 85h-836v36z" />
    <glyph glyph-name="cid160" unicode="&#x2193;" horiz-adv-x="1000" 
d="M518 4q35 46 85 99t104 94l21 -30q-33 -25 -65 -55t-61.5 -63t-55 -67t-46.5 -67q-21 33 -46.5 67t-55 67t-61.5 63t-65 55l21 30q54 -41 104 -94t85 -99v836h36v-836z" />
    <glyph glyph-name="cid161" unicode="&#x2194;" horiz-adv-x="1000" 
d="M124 354q46 -35 99 -85t94 -104l-30 -21q-25 33 -55 65t-63 61.5t-67 55t-67 46.5q33 21 67 46.5t67 55t63 61.5t55 65l30 -21q-41 -54 -94 -104t-99 -85h752q-46 35 -99 85t-94 104l30 21q25 -33 55 -65t63 -61.5t67 -55t67 -46.5q-33 -21 -67 -46.5t-67 -55t-63 -61.5
t-55 -65l-30 21q41 54 94 104t99 85h-752z" />
    <glyph glyph-name="cid162" unicode="&#x2195;" horiz-adv-x="1000" 
d="M518 4q35 46 85 99t104 94l21 -30q-33 -25 -65 -55t-61.5 -63t-55 -67t-46.5 -67q-21 33 -46.5 67t-55 67t-61.5 63t-65 55l21 30q54 -41 104 -94t85 -99v752q-35 -46 -85 -99t-104 -94l-21 30q33 25 65 55t61.5 63t55 67t46.5 67q21 -33 46.5 -67t55 -67t61.5 -63
t65 -55l-21 -30q-54 41 -104 94t-85 99v-752z" />
    <glyph glyph-name="cid163" unicode="&#x2196;" horiz-adv-x="1000" 
d="M221 633q4 -29 6.5 -62t3.5 -68.5t-1 -71t-6 -68.5l-36 6q6 41 7 85t-1 88t-8 86.5t-15 80.5q38 -9 80.5 -15t86.5 -8t88 -1t85 7l6 -36q-33 -5 -68.5 -6.5t-71 -0.5t-69 3.5t-61.5 6.5l591 -592l-25 -25z" />
    <glyph glyph-name="cid164" unicode="&#x2197;" horiz-adv-x="1000" 
d="M753 659q-29 -4 -62 -6.5t-68.5 -3.5t-71 0.5t-68.5 6.5l6 36q41 -6 85 -7t88 1t86.5 8t80.5 15q-9 -38 -15 -80.5t-8 -86.5t-1 -88t7 -85l-36 -6q-5 33 -6.5 68.5t-0.5 71t3.5 68.5t6.5 62l-592 -591l-25 25z" />
    <glyph glyph-name="cid165" unicode="&#x2198;" horiz-adv-x="1000" 
d="M779 127q-4 28 -6.5 61.5t-3.5 69t0.5 71t6.5 68.5l36 -6q-6 -41 -7 -85t1 -88t8 -86.5t15 -80.5q-38 9 -80.5 15t-86.5 8t-88 1t-85 -7l-6 36q33 4 68.5 6t71 1t68.5 -3.5t62 -6.5l-591 592l25 25z" />
    <glyph glyph-name="cid166" unicode="&#x2199;" horiz-adv-x="1000" 
d="M247 101q28 4 61.5 6.5t69 3.5t71 -1t68.5 -6l-6 -36q-41 6 -85 7t-88 -1t-86.5 -8t-80.5 -15q9 38 15 80.5t8 86.5t1 88t-7 85l36 6q4 -33 6 -68.5t1 -71t-3.5 -69t-6.5 -61.5l592 591l25 -25z" />
    <glyph glyph-name="cid167" unicode="&#x21d2;" horiz-adv-x="1000" 
d="M770 250q35 35 71.5 67t69.5 55q-33 23 -69.5 55t-71.5 67h-730v36h696q-32 35 -60 71t-49 69l30 19q27 -42 63.5 -86t78 -86t86 -79.5t88.5 -65.5q-44 -28 -88.5 -65.5t-86 -79.5t-78 -86t-63.5 -86l-30 19q21 33 49 69t60 71h-696v36h730v0z" />
    <glyph glyph-name="cid168" unicode="&#x21d4;" horiz-adv-x="1000" 
d="M373 670q-21 -33 -49 -69t-60 -71h472q-32 35 -60 71t-49 69l30 19q27 -42 63.5 -86t78 -86t86 -79.5t88.5 -65.5q-44 -28 -88.5 -65.5t-86 -79.5t-78 -86t-63.5 -86l-30 19q21 33 49 69t60 71h-472q32 -35 60 -71t49 -69l-30 -19q-27 42 -63.5 86t-78 86t-86 79.5
t-88.5 65.5q44 28 88.5 65.5t86 79.5t78 86t63.5 86zM230 494q-35 -35 -71.5 -67t-69.5 -55q33 -23 69.5 -55t71.5 -67h540q35 35 71.5 67t69.5 55q-33 23 -69.5 55t-71.5 67h-540z" />
    <glyph glyph-name="cid169" unicode="&#x2200;" horiz-adv-x="1000" 
d="M885 741l-383 -755h-4l-383 755l32 16l145 -286h416l145 286zM499 60h2l189 375h-380z" />
    <glyph glyph-name="cid170" unicode="&#x2202;" horiz-adv-x="1000" 
d="M726 499q0 116 -47.5 171.5t-124.5 55.5q-31 0 -57.5 -10t-48.5 -25t-38 -32.5t-26 -32.5l-26 20q10 16 28.5 35t43.5 36t55.5 28.5t65.5 11.5q98 0 152.5 -64t54.5 -185q0 -103 -25 -197.5t-69 -166.5t-104.5 -114.5t-130.5 -42.5q-45 0 -80 16t-59.5 43.5t-37 65
t-12.5 80.5q0 55 21 104t55 85.5t77 57.5t87 21q48 0 84.5 -13.5t62.5 -35.5t43 -50t26 -58h2q13 47 20.5 99t7.5 97zM272 187q0 -36 10.5 -67t31 -53.5t50.5 -35.5t69 -13q66 2 130.5 54.5t109.5 167.5q0 39 -15 74t-40.5 60.5t-60.5 40.5t-75 15t-78 -20t-67 -53.5
t-47 -77.5t-18 -92z" />
    <glyph glyph-name="cid171" unicode="&#x2203;" horiz-adv-x="1000" 
d="M790 731v-718h-589v36h553v305h-553v36h553v305h-553v36h589z" />
    <glyph glyph-name="cid172" unicode="&#x2207;" horiz-adv-x="1000" 
d="M163 684v22h672v-22l-320 -704h-31zM789 673h-580l179 -397l110 -247h5l107 247z" />
    <glyph glyph-name="cid173" unicode="&#x2208;" horiz-adv-x="1000" 
d="M466 659q-63 0 -116.5 -20.5t-93.5 -57t-64 -85.5t-27 -106h707v-36h-707q3 -57 27 -106t64 -85.5t93.5 -57t116.5 -20.5h406v-36h-406q-73 0 -135 25t-107 68.5t-70.5 102.5t-25.5 127t25.5 127t70.5 102.5t107 68.5t135 25h406v-36h-406z" />
    <glyph glyph-name="cid174" unicode="&#x220b;" horiz-adv-x="1000" 
d="M128 659v36h406q73 0 135 -25t107 -68.5t70.5 -102.5t25.5 -127t-25.5 -127t-70.5 -102.5t-107 -68.5t-135 -25h-406v36h406q63 0 116.5 20.5t93.5 57t64 85.5t27 106h-707v36h707q-3 57 -27 106t-64 85.5t-93.5 57t-116.5 20.5h-406z" />
    <glyph glyph-name="cid175" unicode="&#x220f;" horiz-adv-x="1000" 
d="M231 704h539v-836h-40v803h-462v-803h-37v836z" />
    <glyph glyph-name="cid176" unicode="&#x2211;" horiz-adv-x="1000" 
d="M261 31h536v-31h-594v25l327 332l-308 337v25h531v-30h-476v-4l299 -329l-315 -322v-3z" />
    <glyph glyph-name="cid177" unicode="&#x221a;" horiz-adv-x="1000" 
d="M1000 880v-36h-408l-321 -924h-29l-106 282l-71 -102l-25 17l128 181l102 -271l297 853h433z" />
    <glyph glyph-name="cid178" unicode="&#x221d;" horiz-adv-x="1000" 
d="M521 372q48 -69 107.5 -111.5t132.5 -42.5q41 0 73 9l13 -34q-20 -6 -41.5 -8.5t-44.5 -2.5q-44 0 -81.5 13t-70 34.5t-60 50.5t-49.5 61q-23 -32 -50 -61t-60 -50.5t-71 -34.5t-81 -13q-35 0 -70.5 12t-64 36t-46 59.5t-17.5 82.5t17.5 82.5t46 59.5t64 36t70.5 12
q43 0 81 -13t71 -34.5t60 -50.5t50 -61q22 32 49.5 61t60 50.5t70 34.5t81.5 13q23 0 44.5 -2.5t41.5 -8.5l-13 -34q-32 9 -73 9q-73 0 -132.5 -42.5t-107.5 -111.5zM76 372q0 -38 14 -66.5t37 -48t52 -29.5t59 -10q73 0 132.5 42.5t107.5 111.5q-48 69 -107.5 111.5
t-132.5 42.5q-30 0 -59 -10t-52 -29.5t-37 -48t-14 -66.5z" />
    <glyph glyph-name="cid179" unicode="&#x221e;" horiz-adv-x="1000" 
d="M500 403q22 32 49.5 61t60 50.5t70 34.5t81.5 13q35 0 70.5 -12t64 -36t46 -59.5t17.5 -82.5t-17.5 -82.5t-46 -59.5t-64 -36t-70.5 -12q-44 0 -81.5 13t-70 34.5t-60 50.5t-49.5 61q-23 -32 -50 -61t-60 -50.5t-71 -34.5t-81 -13q-35 0 -70.5 12t-64 36t-46 59.5
t-17.5 82.5t17.5 82.5t46 59.5t64 36t70.5 12q43 0 81 -13t71 -34.5t60 -50.5t50 -61zM76 372q0 -38 14 -66.5t37 -48t52 -29.5t59 -10q73 0 132.5 42.5t107.5 111.5q-48 69 -107.5 111.5t-132.5 42.5q-30 0 -59 -10t-52 -29.5t-37 -48t-14 -66.5zM521 372
q48 -69 107.5 -111.5t132.5 -42.5q30 0 59 10t52 29.5t37 48t14 66.5t-14 66.5t-37 48t-52 29.5t-59 10q-73 0 -132.5 -42.5t-107.5 -111.5z" />
    <glyph glyph-name="cid180" unicode="&#x2220;" horiz-adv-x="1000" 
d="M192 61h680v-36h-765v4l670 669l25 -25l-610 -609v-3z" />
    <glyph glyph-name="cid181" unicode="&#x2227;" horiz-adv-x="1000" 
d="M498 763h4l383 -755l-32 -16l-352 697h-2l-352 -697l-32 16z" />
    <glyph glyph-name="cid182" unicode="&#x2228;" horiz-adv-x="1000" 
d="M502 -19h-4l-383 755l32 16l352 -697h2l352 697l32 -16z" />
    <glyph glyph-name="cid183" unicode="&#x2229;" horiz-adv-x="1000" 
d="M177 406q0 73 25 135t68.5 107t102.5 70.5t127 25.5t127 -25.5t102.5 -70.5t68.5 -107t25 -135v-406h-36v406q0 65 -22 120.5t-61 96t-91.5 63t-112.5 22.5t-112.5 -22.5t-91.5 -63t-61 -96t-22 -120.5v-406h-36v406v0z" />
    <glyph glyph-name="cid184" unicode="&#x222a;" horiz-adv-x="1000" 
d="M823 338q0 -73 -25 -135t-68.5 -107t-102.5 -70.5t-127 -25.5t-127 25.5t-102.5 70.5t-68.5 107t-25 135v406h36v-406q0 -65 22 -120.5t61 -96t91.5 -63t112.5 -22.5t112.5 22.5t91.5 63t61 96t22 120.5v406h36v-406v0z" />
    <glyph glyph-name="cid185" unicode="&#x222b;" horiz-adv-x="1000" 
d="M482 614q0 73 15.5 117.5t39.5 68.5t53 32t55 8q16 0 28 -3l-3 -30q-11 3 -25 3q-17 0 -39 -4.5t-41.5 -23t-33 -57.5t-13.5 -108v-471q0 -73 -15.5 -117.5t-39.5 -68.5t-53 -32t-55 -8q-16 0 -28 3l3 30q10 -3 25 -3q17 0 39 4.5t41.5 23t33 57.5t13.5 108v471z" />
    <glyph glyph-name="cid186" unicode="&#x222c;" horiz-adv-x="1000" 
d="M292 614q0 73 15.5 117.5t39.5 68.5t53 32t55 8q16 0 28 -3l-3 -30q-11 3 -25 3q-17 0 -39 -4.5t-41.5 -23t-33 -57.5t-13.5 -108v-471q0 -73 -15.5 -117.5t-39.5 -68.5t-53 -32t-55 -8q-16 0 -28 3l3 30q10 -3 25 -3q17 0 39 4.5t41.5 23t33 57.5t13.5 108v471zM672 614
q0 73 15.5 117.5t39.5 68.5t53 32t55 8q16 0 28 -3l-3 -30q-11 3 -25 3q-17 0 -39 -4.5t-41.5 -23t-33 -57.5t-13.5 -108v-471q0 -73 -15.5 -117.5t-39.5 -68.5t-53 -32t-55 -8q-16 0 -28 3l3 30q10 -3 25 -3q17 0 39 4.5t41.5 23t33 57.5t13.5 108v471z" />
    <glyph glyph-name="cid187" unicode="&#x222e;" horiz-adv-x="1000" 
d="M482 231q-28 3 -52 16t-42 33t-28 45.5t-10 54.5t10 54.5t28 45.5t42 33t52 16v85q0 73 15.5 117.5t39.5 68.5t53 32t55 8q16 0 28 -3l-3 -30q-11 3 -25 3q-17 0 -39 -4.5t-41.5 -23t-33 -57.5t-13.5 -108v-88q28 -3 52 -16t42 -33t28 -45.5t10 -54.5t-10 -54.5
t-28 -45.5t-42 -33t-52 -16v-85q0 -73 -15.5 -117.5t-39.5 -68.5t-53 -32t-55 -8q-16 0 -28 3l3 30q10 -3 25 -3q17 0 39 4.5t41.5 23t33 57.5t13.5 108v88zM482 503q-45 -7 -75.5 -41.5t-30.5 -81.5t30.5 -81.5t75.5 -41.5v246zM518 257q45 7 75.5 41.5t30.5 81.5
t-30.5 81.5t-75.5 41.5v-246z" />
    <glyph glyph-name="cid188" unicode="&#x2234;" horiz-adv-x="1000" 
d="M442 619q0 24 17 41t41 17t41 -17t17 -41t-17 -41t-41 -17t-41 17t-17 41zM158 125q0 24 17 41t41 17t41 -17t17 -41t-17 -41t-41 -17t-41 17t-17 41zM727 125q0 24 17 41t41 17t41 -17t17 -41t-17 -41t-41 -17t-41 17t-17 41z" />
    <glyph glyph-name="cid189" unicode="&#x2235;" horiz-adv-x="1000" 
d="M158 619q0 24 17 41t41 17t41 -17t17 -41t-17 -41t-41 -17t-41 17t-17 41zM727 619q0 24 17 41t41 17t41 -17t17 -41t-17 -41t-41 -17t-41 17t-17 41zM442 125q0 24 17 41t41 17t41 -17t17 -41t-17 -41t-41 -17t-41 17t-17 41z" />
    <glyph glyph-name="cid190" unicode="&#x2236;" horiz-adv-x="1000" 
d="M442 619q0 24 17 41t41 17t41 -17t17 -41t-17 -41t-41 -17t-41 17t-17 41zM442 125q0 24 17 41t41 17t41 -17t17 -41t-17 -41t-41 -17t-41 17t-17 41z" />
    <glyph glyph-name="cid191" unicode="&#x223d;" horiz-adv-x="1000" 
d="M487 385q22 34 50.5 66t62.5 57t74 39.5t87 14.5q35 0 70.5 -12t64 -36t46 -59.5t17.5 -82.5t-17.5 -82.5t-46 -59.5t-64 -36t-70.5 -12q-23 0 -44.5 2.5t-41.5 8.5l13 34q31 -9 73 -9q30 0 59 10t52 29.5t37 48t14 66.5t-14 66.5t-37 48t-52 29.5t-59 10
q-77 0 -138.5 -46t-110.5 -121q-23 -35 -51 -66.5t-62 -56.5t-74.5 -39.5t-86.5 -14.5q-35 0 -70.5 12t-64 36t-46 59.5t-17.5 82.5t17.5 82.5t46 59.5t64 36t70.5 12q23 0 44.5 -2.5t41.5 -8.5l-13 -34q-32 9 -73 9q-30 0 -59 -10t-52 -29.5t-37 -48t-14 -66.5t14 -66.5
t37 -48t52 -29.5t59 -10q77 0 138.5 46t110.5 121z" />
    <glyph glyph-name="cid192" unicode="&#x2252;" horiz-adv-x="1000" 
d="M256 661q0 24 17 41t41 17t41 -17t17 -41t-17 -41t-41 -17t-41 17t-17 41zM872 493v-36h-744v36h744zM872 287v-36h-744v36h744zM628 83q0 24 17 41t41 17t41 -17t17 -41t-17 -41t-41 -17t-41 17t-17 41z" />
    <glyph glyph-name="cid193" unicode="&#x2260;" horiz-adv-x="1000" 
d="M547 449l-58 -161h383v-36h-396l-86 -236l-34 13l81 223h-309v36h322l59 161h-381v36h394l88 243l34 -13l-84 -230h312v-36h-325z" />
    <glyph glyph-name="cid194" unicode="&#x2261;" horiz-adv-x="1000" 
d="M872 604v-36h-744v36h744zM872 390v-36h-744v36h744zM872 176v-36h-744v36h744z" />
    <glyph glyph-name="cid195" unicode="&#x2264;" horiz-adv-x="1000" 
d="M872 81v-36h-744v36h744zM204 477l668 -270l-14 -33l-750 303v4l750 303l14 -33l-668 -270v-4z" />
    <glyph glyph-name="cid196" unicode="&#x2265;" horiz-adv-x="1000" 
d="M128 81h744v-36h-744v36zM796 477v4l-668 270l14 33l750 -303v-4l-750 -303l-14 33z" />
    <glyph glyph-name="cid197" unicode="&#x226a;" horiz-adv-x="1000" 
d="M648 728l-509 -354v-4l509 -354l-20 -29l-551 383v4l551 383zM922 728l-510 -354v-4l510 -354l-21 -29l-551 383v4l551 383z" />
    <glyph glyph-name="cid198" unicode="&#x226b;" horiz-adv-x="1000" 
d="M650 374v-4l-551 -383l-21 29l510 354v4l-510 354l21 29zM923 374v-4l-551 -383l-20 29l509 354v4l-509 354l20 29z" />
    <glyph glyph-name="cid199" unicode="&#x2282;" horiz-adv-x="1000" 
d="M466 49q-73 0 -135 25t-107 68.5t-70.5 102.5t-25.5 127t25.5 127t70.5 102.5t107 68.5t135 25h406v-36h-406q-65 0 -120.5 -22t-96 -61t-63 -91.5t-22.5 -112.5t22.5 -112.5t63 -91.5t96 -61t120.5 -22h406v-36h-406v0z" />
    <glyph glyph-name="cid200" unicode="&#x2283;" horiz-adv-x="1000" 
d="M534 695q73 0 135 -25t107 -68.5t70.5 -102.5t25.5 -127t-25.5 -127t-70.5 -102.5t-107 -68.5t-135 -25h-406v36h406q65 0 120.5 22t96 61t63 91.5t22.5 112.5t-22.5 112.5t-63 91.5t-96 61t-120.5 22h-406v36h406v0z" />
    <glyph glyph-name="cid201" unicode="&#x2286;" horiz-adv-x="1000" 
d="M412 721q-64 0 -110.5 -19t-77 -49.5t-45.5 -70t-15 -80.5t15 -80.5t45.5 -70.5t77 -49.5t110.5 -18.5h460v-36h-461q-71 0 -124 21.5t-88.5 57t-53 81.5t-17.5 95t17.5 95t53 81.5t88.5 57t124 21.5h461v-36h-460zM872 23v-36h-744v36h744z" />
    <glyph glyph-name="cid202" unicode="&#x2287;" horiz-adv-x="1000" 
d="M589 283q63 0 109.5 18.5t77 49.5t45.5 70.5t15 80.5t-15 80.5t-45.5 70t-77 49.5t-109.5 19h-461v36h461q71 0 124 -21.5t88.5 -57t53 -81.5t17.5 -95t-17.5 -95t-53 -81.5t-88.5 -57t-124 -21.5h-461v36h461zM872 23v-36h-744v36h744z" />
    <glyph glyph-name="cid203" unicode="&#x2299;" horiz-adv-x="1000" 
d="M500 10q-77 0 -144 29t-117.5 79.5t-79.5 117.5t-29 144q0 76 29 143.5t79.5 118t117.5 79.5t144 29q76 0 143.5 -29t118 -79.5t79.5 -118t29 -143.5q0 -77 -29 -144t-79.5 -117.5t-118 -79.5t-143.5 -29zM166 380q0 -69 26.5 -130t71.5 -106t106 -71.5t130 -26.5
t130 26.5t106 71.5t71.5 106t26.5 130t-26.5 130t-71.5 106t-106 71.5t-130 26.5t-130 -26.5t-106 -71.5t-71.5 -106t-26.5 -130zM550 380q0 -21 -15 -35.5t-35 -14.5q-21 0 -35.5 14.5t-14.5 35.5q0 20 14.5 35t35.5 15q20 0 35 -15t15 -35z" />
    <glyph glyph-name="cid204" unicode="&#x22a5;" horiz-adv-x="1000" 
d="M885 78v-36h-770v36h367v664h36v-664h367z" />
    <glyph glyph-name="cid205" unicode="&#x2312;" horiz-adv-x="1000" 
d="M29 638q103 100 220 150.5t251 50.5t251 -50.5t220 -150.5l-19 -25q-99 98 -213 146t-239 48t-239 -48t-213 -146l-19 25v0z" />
    <glyph glyph-name="cid206" unicode="&#x2460;" horiz-adv-x="1000" 
d="M500 -80q-95 0 -179 36t-146.5 98.5t-98.5 146.5t-36 179t36 179t98.5 146.5t146.5 98.5t179 36t179 -36t146.5 -98.5t98.5 -146.5t36 -179q0 -96 -36.5 -180t-99 -146t-146.5 -98t-178 -36zM500 -54q90 0 169 34t138 93t93 138t34 169t-34 169t-93 138t-138 93t-169 34
q-91 0 -170 -34.5t-137.5 -93.5t-92.5 -138t-34 -168q0 -90 34 -169t93 -138t138 -93t169 -34zM500 584h-103v26q35 5 62 13.5t47 18.5h31v-511h-37v453z" />
    <glyph glyph-name="cid207" unicode="&#x2461;" horiz-adv-x="1000" 
d="M500 -80q-95 0 -179 36t-146.5 98.5t-98.5 146.5t-36 179t36 179t98.5 146.5t146.5 98.5t179 36t179 -36t146.5 -98.5t98.5 -146.5t36 -179q0 -96 -36.5 -180t-99 -146t-146.5 -98t-178 -36zM500 -54q90 0 169 34t138 93t93 138t34 169t-34 169t-93 138t-138 93t-169 34
q-91 0 -170 -34.5t-137.5 -93.5t-92.5 -138t-34 -168q0 -90 34 -169t93 -138t138 -93t169 -34zM336 155l124 114.5t88.5 92.5t53 78t17.5 69q0 49 -30 81.5t-96 32.5q-40 0 -74.5 -19.5t-60.5 -46.5l-25 20q33 36 72.5 56.5t89.5 20.5q75 0 118.5 -39t43.5 -105
q0 -38 -19 -76.5t-53.5 -80.5t-83 -89l-108.5 -103q23 2 48.5 3t56.5 1h186v-34h-348v24z" />
    <glyph glyph-name="cid208" unicode="&#x2462;" horiz-adv-x="1000" 
d="M500 -80q-95 0 -179 36t-146.5 98.5t-98.5 146.5t-36 179t36 179t98.5 146.5t146.5 98.5t179 36t179 -36t146.5 -98.5t98.5 -146.5t36 -179q0 -96 -36.5 -180t-99 -146t-146.5 -98t-178 -36zM500 -54q90 0 169 34t138 93t93 138t34 169t-34 169t-93 138t-138 93t-169 34
q-91 0 -170 -34.5t-137.5 -93.5t-92.5 -138t-34 -168q0 -90 34 -169t93 -138t138 -93t169 -34zM500 119q-35 0 -62.5 6.5t-50 17t-39.5 23.5t-30 26l22 26q26 -26 63 -46t97 -20q59 0 96.5 31t37.5 82q0 53 -46.5 86t-154.5 33v32q50 0 84.5 8.5t56 23.5t31 35t9.5 43
q0 45 -31.5 70.5t-85.5 25.5q-39 0 -73.5 -15t-59.5 -41l-22 25q29 27 67 45t89 18q33 0 61 -8.5t48.5 -24.5t32.5 -39.5t12 -53.5q0 -50 -31.5 -80.5t-75.5 -44.5v-3q26 -6 49.5 -17t41 -28t28 -39.5t10.5 -50.5q0 -33 -13.5 -60t-37 -46t-55 -29.5t-68.5 -10.5z" />
    <glyph glyph-name="cid209" unicode="&#x2463;" horiz-adv-x="1000" 
d="M547 316v183v44t2 46h-4q-11 -17 -21.5 -31l-24.5 -32l-168 -210h216zM583 316h86v-32h-86v-153h-36v153h-264v22l267 336h33v-326zM500 -54q90 0 169 34t138 93t93 138t34 169t-34 169t-93 138t-138 93t-169 34q-91 0 -170 -34.5t-137.5 -93.5t-92.5 -138t-34 -168
q0 -90 34 -169t93 -138t138 -93t169 -34zM500 840q95 0 179 -36t146.5 -98.5t98.5 -146.5t36 -179q0 -96 -36.5 -180t-99 -146t-146.5 -98t-178 -36q-95 0 -179 36t-146.5 98.5t-98.5 146.5t-36 179t36 179t98.5 146.5t146.5 98.5t179 36z" />
    <glyph glyph-name="cid210" unicode="&#x2464;" horiz-adv-x="1000" 
d="M500 -80q-95 0 -179 36t-146.5 98.5t-98.5 146.5t-36 179t36 179t98.5 146.5t146.5 98.5t179 36t179 -36t146.5 -98.5t98.5 -146.5t36 -179q0 -96 -36.5 -180t-99 -146t-146.5 -98t-178 -36zM500 -54q90 0 169 34t138 93t93 138t34 169t-34 169t-93 138t-138 93t-169 34
q-91 0 -170 -34.5t-137.5 -93.5t-92.5 -138t-34 -168q0 -90 34 -169t93 -138t138 -93t169 -34zM501 119q-35 0 -61.5 6t-48 16t-38 22t-29.5 24l21 27q12 -11 27 -22t33.5 -20t42 -14.5t53.5 -5.5q28 0 53.5 9.5t45 27.5t31 43.5t11.5 56.5q0 61 -38 96.5t-101 35.5
q-33 0 -58 -10.5t-49 -26.5l-26 16l20 242h261v-33h-228l-17 -185q21 11 46 20t55 9q36 0 68 -10t55.5 -30t37.5 -50.5t14 -72.5q0 -41 -16 -73t-41.5 -54t-58 -33t-65.5 -11z" />
    <glyph glyph-name="cid211" unicode="&#x2465;" horiz-adv-x="1000" 
d="M502 152q25 0 47 9.5t38 27t25 40.5t9 50q0 56 -30.5 92.5t-97.5 36.5q-31 0 -68.5 -17t-75.5 -59q5 -83 42.5 -131.5t110.5 -48.5zM624 578q-41 43 -102 43q-35 0 -66 -13t-55 -42.5t-38 -77.5t-15 -119q31 32 70 51.5t81 19.5q77 0 119 -41t42 -119q0 -35 -13 -64.5
t-34.5 -51t-50.5 -33.5t-61 -12q-89 0 -140 62.5t-51 180.5q0 81 17.5 136.5t47 90t68 50t81.5 15.5q41 0 70.5 -13.5t51.5 -36.5zM500 -54q90 0 169 34t138 93t93 138t34 169t-34 169t-93 138t-138 93t-169 34q-91 0 -170 -34.5t-137.5 -93.5t-92.5 -138t-34 -168
q0 -90 34 -169t93 -138t138 -93t169 -34zM500 840q95 0 179 -36t146.5 -98.5t98.5 -146.5t36 -179q0 -96 -36.5 -180t-99 -146t-146.5 -98t-178 -36q-95 0 -179 36t-146.5 98.5t-98.5 146.5t-36 179t36 179t98.5 146.5t146.5 98.5t179 36z" />
    <glyph glyph-name="cid212" unicode="&#x2466;" horiz-adv-x="1000" 
d="M500 -80q-95 0 -179 36t-146.5 98.5t-98.5 146.5t-36 179t36 179t98.5 146.5t146.5 98.5t179 36t179 -36t146.5 -98.5t98.5 -146.5t36 -179q0 -96 -36.5 -180t-99 -146t-146.5 -98t-178 -36zM500 -54q90 0 169 34t138 93t93 138t34 169t-34 169t-93 138t-138 93t-169 34
q-91 0 -170 -34.5t-137.5 -93.5t-92.5 -138t-34 -168q0 -90 34 -169t93 -138t138 -93t169 -34zM448 131q4 77 15 141t31 121t50.5 109.5t73.5 106.5h-291v33h341v-21q-51 -61 -84 -117t-53 -114t-29.5 -121t-12.5 -138h-41z" />
    <glyph glyph-name="cid213" unicode="&#x2467;" horiz-adv-x="1000" 
d="M500 -80q-95 0 -179 36t-146.5 98.5t-98.5 146.5t-36 179t36 179t98.5 146.5t146.5 98.5t179 36t179 -36t146.5 -98.5t98.5 -146.5t36 -179q0 -96 -36.5 -180t-99 -146t-146.5 -98t-178 -36zM500 -54q90 0 169 34t138 93t93 138t34 169t-34 169t-93 138t-138 93t-169 34
q-91 0 -170 -34.5t-137.5 -93.5t-92.5 -138t-34 -168q0 -90 34 -169t93 -138t138 -93t169 -34zM503 119q-40 0 -73.5 11t-58 30t-38 44.5t-13.5 55.5q0 27 10.5 49.5t27 40.5t37 32t40.5 24v4q-15 9 -30 21t-27 26.5t-19.5 32t-7.5 37.5q0 28 12 51.5t32.5 40t48 26
t59.5 9.5q75 0 115.5 -38.5t40.5 -96.5q0 -21 -8 -41t-20.5 -36.5t-27 -30.5t-26.5 -23v-3q18 -10 36.5 -22t32.5 -27.5t23 -35.5t9 -46q0 -28 -12.5 -52.5t-36 -43t-55.5 -29t-71 -10.5zM544 399q37 26 58 56t21 63q0 43 -32 74t-89 31q-51 0 -82 -26.5t-31 -69.5
q0 -27 13 -47t35 -35t50 -26t57 -20zM503 152q63 0 100 29t37 74q0 30 -14.5 50.5t-39 36t-56.5 27.5l-66 24q-45 -23 -76.5 -55t-31.5 -75q0 -24 11 -44t30.5 -35t46.5 -23.5t59 -8.5z" />
    <glyph glyph-name="cid214" unicode="&#x2468;" horiz-adv-x="1000" 
d="M505 365q31 0 68.5 17t72.5 59q-5 81 -41 131t-109 50q-25 0 -46.5 -10t-37 -27t-24.5 -41t-9 -51q0 -57 29.5 -92.5t96.5 -35.5zM375 193q40 -40 101 -40q34 0 65 13t54 42.5t37 77t15 117.5q-30 -32 -67.5 -51t-79.5 -19q-75 0 -117.5 41t-42.5 120q0 35 12.5 64.5
t34 50.5t50 33t60.5 12q88 0 139 -62.5t51 -180.5q0 -81 -17.5 -137t-47 -90.5t-67.5 -49.5t-79 -15q-42 0 -71.5 13.5t-51.5 35.5zM500 -54q90 0 169 34t138 93t93 138t34 169t-34 169t-93 138t-138 93t-169 34q-91 0 -170 -34.5t-137.5 -93.5t-92.5 -138t-34 -168
q0 -90 34 -169t93 -138t138 -93t169 -34zM500 840q95 0 179 -36t146.5 -98.5t98.5 -146.5t36 -179q0 -96 -36.5 -180t-99 -146t-146.5 -98t-178 -36q-95 0 -179 36t-146.5 98.5t-98.5 146.5t-36 179t36 179t98.5 146.5t146.5 98.5t179 36z" />
    <glyph glyph-name="cid215" unicode="&#x2469;" horiz-adv-x="1000" 
d="M500 -80q-95 0 -179 36t-146.5 98.5t-98.5 146.5t-36 179t36 179t98.5 146.5t146.5 98.5t179 36t179 -36t146.5 -98.5t98.5 -146.5t36 -179q0 -96 -36.5 -180t-99 -146t-146.5 -98t-178 -36zM500 -54q90 0 169 34t138 93t93 138t34 169t-34 169t-93 138t-138 93t-169 34
q-91 0 -170 -34.5t-137.5 -93.5t-92.5 -138t-34 -168q0 -90 34 -169t93 -138t138 -93t169 -34zM313 584h-82v26q29 5 50.5 13.5t38.5 18.5h30v-511h-37v453zM612 119q-35 0 -62.5 18.5t-47 53.5t-29.5 85t-10 112q0 125 39 195.5t110 70.5q70 0 109 -70.5t39 -195.5
q0 -62 -10 -112t-29 -85t-46.5 -53.5t-62.5 -18.5zM612 153q49 0 79.5 60.5t30.5 174.5q0 115 -30.5 174t-79.5 59q-50 0 -80 -59t-30 -174q0 -114 30 -174.5t80 -60.5z" />
    <glyph glyph-name="cid216" unicode="&#x246a;" horiz-adv-x="1000" 
d="M500 -80q-95 0 -179 36t-146.5 98.5t-98.5 146.5t-36 179t36 179t98.5 146.5t146.5 98.5t179 36t179 -36t146.5 -98.5t98.5 -146.5t36 -179q0 -96 -36.5 -180t-99 -146t-146.5 -98t-178 -36zM500 -54q90 0 169 34t138 93t93 138t34 169t-34 169t-93 138t-138 93t-169 34
q-91 0 -170 -34.5t-137.5 -93.5t-92.5 -138t-34 -168q0 -90 34 -169t93 -138t138 -93t169 -34zM365 584h-82v26q29 5 50.5 13.5t38.5 18.5h30v-511h-37v453zM620 584h-82v26q29 5 50 13.5t38 18.5h30v-511h-36v453z" />
    <glyph glyph-name="cid217" unicode="&#x246b;" horiz-adv-x="1000" 
d="M500 -80q-95 0 -179 36t-146.5 98.5t-98.5 146.5t-36 179t36 179t98.5 146.5t146.5 98.5t179 36t179 -36t146.5 -98.5t98.5 -146.5t36 -179q0 -96 -36.5 -180t-99 -146t-146.5 -98t-178 -36zM500 -54q90 0 169 34t138 93t93 138t34 169t-34 169t-93 138t-138 93t-169 34
q-91 0 -170 -34.5t-137.5 -93.5t-92.5 -138t-34 -168q0 -90 34 -169t93 -138t138 -93t169 -34zM314 584h-82v26q29 5 50 13.5t38 18.5h30v-511h-36v453zM471 155l98.5 114.5t71 92.5t43 78t14.5 69q0 49 -24 81.5t-74 32.5q-33 0 -59.5 -18.5t-46.5 -46.5l-25 18
q27 36 59.5 57t72.5 21q63 0 98 -39t35 -105q0 -38 -14.5 -76.5t-41.5 -80.5t-64.5 -89l-83.5 -103q18 2 38.5 3t43.5 1h143v-34h-284v24z" />
    <glyph glyph-name="cid218" unicode="&#x246c;" horiz-adv-x="1000" 
d="M500 -80q-95 0 -179 36t-146.5 98.5t-98.5 146.5t-36 179t36 179t98.5 146.5t146.5 98.5t179 36t179 -36t146.5 -98.5t98.5 -146.5t36 -179q0 -96 -36.5 -180t-99 -146t-146.5 -98t-178 -36zM500 -54q90 0 169 34t138 93t93 138t34 169t-34 169t-93 138t-138 93t-169 34
q-91 0 -170 -34.5t-137.5 -93.5t-92.5 -138t-34 -168q0 -90 34 -169t93 -138t138 -93t169 -34zM313 584h-82v26q29 5 50 13.5t38 18.5h31v-511h-37v453zM605 119q-54 0 -89.5 24t-57.5 51l25 22q23 -26 52 -45t73 -19q45 0 74 31t29 82q0 53 -36 86t-123 33v32
q39 0 66.5 8.5t44.5 23.5t24.5 35t7.5 43q0 45 -24 70.5t-66 25.5q-27 0 -55 -13.5t-48 -39.5l-26 20q25 28 56 46.5t73 18.5q55 0 91.5 -33t36.5 -93q0 -51 -25 -81t-60 -44v-3q21 -6 39.5 -17t32.5 -28t22 -39.5t8 -50.5q0 -33 -11 -60t-30.5 -46t-46 -29.5t-57.5 -10.5z
" />
    <glyph glyph-name="cid219" unicode="&#x246d;" horiz-adv-x="1000" 
d="M232 610q29 5 50 13.5t38 18.5h30v-511h-36v453h-82v26zM658 316v183q0 17 0.5 44t1.5 46h-3q-9 -17 -17.5 -31l-19.5 -32l-127 -210h165zM695 316h66v-32h-66v-153h-37v153h-210v22l208 336h39v-326zM500 -54q90 0 169 34t138 93t93 138t34 169t-34 169t-93 138t-138 93
t-169 34q-91 0 -170 -34.5t-137.5 -93.5t-92.5 -138t-34 -168q0 -90 34 -169t93 -138t138 -93t169 -34zM500 840q95 0 179 -36t146.5 -98.5t98.5 -146.5t36 -179q0 -96 -36.5 -180t-99 -146t-146.5 -98t-178 -36q-95 0 -179 36t-146.5 98.5t-98.5 146.5t-36 179t36 179
t98.5 146.5t146.5 98.5t179 36z" />
    <glyph glyph-name="cid220" unicode="&#x246e;" horiz-adv-x="1000" 
d="M500 -80q-95 0 -179 36t-146.5 98.5t-98.5 146.5t-36 179t36 179t98.5 146.5t146.5 98.5t179 36t179 -36t146.5 -98.5t98.5 -146.5t36 -179q0 -96 -36.5 -180t-99 -146t-146.5 -98t-178 -36zM500 -54q90 0 169 34t138 93t93 138t34 169t-34 169t-93 138t-138 93t-169 34
q-91 0 -170 -34.5t-137.5 -93.5t-92.5 -138t-34 -168q0 -90 34 -169t93 -138t138 -93t169 -34zM314 584h-82v26q29 5 50 13.5t38 18.5h30v-511h-36v453zM613 119q-28 0 -50 6t-39.5 16t-31.5 22.5t-25 25.5l20 26q19 -23 48.5 -43t76.5 -20q21 0 40.5 9.5t34.5 27.5t24 43.5
t9 56.5q0 61 -30 96.5t-78 35.5q-26 0 -45 -10.5t-40 -26.5l-23 16l15 242h216v-33h-184l-12 -185q17 11 36 20t42 9q29 0 55 -10t45.5 -30t31 -50.5t11.5 -72.5q0 -41 -13 -73t-33.5 -54t-47 -33t-53.5 -11z" />
    <glyph glyph-name="cid221" unicode="&#x2474;" horiz-adv-x="1000" 
d="M164 -60q-66 97 -96.5 204t-30.5 236q0 128 30.5 235.5t96.5 204.5l25 -11q-63 -91 -90.5 -203t-27.5 -226q0 -115 27.5 -226.5t90.5 -202.5zM338 52h166v604h-126v26q42 6 75 17t57 25h30v-672h156v-32h-358v32zM811 -49q63 91 90.5 202.5t27.5 226.5q0 114 -27.5 226
t-90.5 203l25 11q66 -97 96.5 -204.5t30.5 -235.5q0 -129 -30.5 -236t-96.5 -204z" />
    <glyph glyph-name="cid222" unicode="&#x2475;" horiz-adv-x="1000" 
d="M164 -60q-66 97 -96.5 204t-30.5 236q0 128 30.5 235.5t96.5 204.5l25 -11q-63 -91 -90.5 -203t-27.5 -226q0 -115 27.5 -226.5t90.5 -202.5zM314 42l151 160.5t109 131.5t66 110.5t22 97.5q0 33 -9 62.5t-28 51t-48.5 34t-70.5 12.5q-50 0 -94.5 -24t-73.5 -66l-27 22
q35 45 83.5 73.5t113.5 28.5q94 0 143 -52.5t49 -141.5q0 -53 -24 -108t-67.5 -115t-104.5 -126.5l-136 -144.5q30 2 59 3t59 1h252v-32h-424v22zM811 -49q63 91 90.5 202.5t27.5 226.5q0 114 -27.5 226t-90.5 203l25 11q66 -97 96.5 -204.5t30.5 -235.5q0 -129 -30.5 -236
t-96.5 -204z" />
    <glyph glyph-name="cid223" unicode="&#x2476;" horiz-adv-x="1000" 
d="M164 -60q-66 97 -96.5 204t-30.5 236q0 128 30.5 235.5t96.5 204.5l25 -11q-63 -91 -90.5 -203t-27.5 -226q0 -115 27.5 -226.5t90.5 -202.5zM507 8q-39 0 -72 8.5t-60 22.5t-48 31.5t-35 35.5l24 24q29 -36 76 -62t115 -26q35 0 65.5 11t53.5 32t36.5 50.5t13.5 66.5
q0 78 -59 124t-187 46v34q59 0 101 13t69 35.5t39.5 51t12.5 60.5q0 63 -41 99.5t-104 36.5q-47 0 -89.5 -20.5t-70.5 -55.5l-24 24q32 38 79.5 62t104.5 24q40 0 73.5 -11t58 -32t38 -52t13.5 -71q0 -71 -37.5 -113.5t-102.5 -62.5v-4q72 -16 118 -62.5t46 -123.5
q0 -45 -16 -81.5t-43.5 -62t-65.5 -39t-82 -13.5zM811 -49q63 91 90.5 202.5t27.5 226.5q0 114 -27.5 226t-90.5 203l25 11q66 -97 96.5 -204.5t30.5 -235.5q0 -129 -30.5 -236t-96.5 -204z" />
    <glyph glyph-name="cid224" unicode="&#x2477;" horiz-adv-x="1000" 
d="M189 809q-63 -91 -90.5 -203t-27.5 -226q0 -115 27.5 -226.5t90.5 -202.5l-25 -11q-66 97 -96.5 204t-30.5 236q0 128 30.5 235.5t96.5 204.5zM580 268v294v47.5t2 54.5h-4l-30 -45.5t-30 -44.5l-208 -306h270zM616 268h104v-32h-104v-216h-36v216h-318v20l319 468h35
v-456zM836 820q66 -97 96.5 -204.5t30.5 -235.5q0 -129 -30.5 -236t-96.5 -204l-25 11q63 91 90.5 202.5t27.5 226.5q0 114 -27.5 226t-90.5 203z" />
    <glyph glyph-name="cid225" unicode="&#x2478;" horiz-adv-x="1000" 
d="M164 -60q-66 97 -96.5 204t-30.5 236q0 128 30.5 235.5t96.5 204.5l25 -11q-63 -91 -90.5 -203t-27.5 -226q0 -115 27.5 -226.5t90.5 -202.5zM488 6q-40 0 -71.5 8t-57 21.5t-45 30.5t-34.5 34l24 26q14 -17 31.5 -32.5t40 -27.5t51 -19t63.5 -7q37 0 70 14.5t58.5 40.5
t40.5 62.5t15 80.5q0 43 -12.5 78.5t-36 60t-56 38t-71.5 13.5q-42 0 -71.5 -12.5t-58.5 -35.5l-30 16l26 328h314v-34h-282l-24 -268q28 20 57.5 30t72.5 10t81 -13t66.5 -40t45.5 -69t17 -100q0 -56 -19 -99.5t-50.5 -73.5t-72 -45.5t-82.5 -15.5zM811 -49
q63 91 90.5 202.5t27.5 226.5q0 114 -27.5 226t-90.5 203l25 11q66 -97 96.5 -204.5t30.5 -235.5q0 -129 -30.5 -236t-96.5 -204z" />
    <glyph glyph-name="cid226" unicode="&#x2479;" horiz-adv-x="1000" 
d="M189 809q-63 -91 -90.5 -203t-27.5 -226q0 -115 27.5 -226.5t90.5 -202.5l-25 -11q-66 97 -96.5 204t-30.5 236q0 128 30.5 235.5t96.5 204.5zM519 42q33 0 61.5 14t48.5 38.5t31.5 58t11.5 71.5q0 88 -38 136t-116 48q-19 0 -41.5 -5t-46 -18t-47 -34t-44.5 -52
q3 -57 16 -104.5t35.5 -81t55 -52.5t73.5 -19zM674 644q-24 32 -59.5 45t-74.5 13q-40 0 -76 -18.5t-64 -60.5t-44.5 -110.5t-17.5 -169.5q36 47 84.5 73t99.5 26q88 0 138 -56t50 -162q0 -47 -15.5 -87t-41.5 -68.5t-60.5 -44.5t-73.5 -16q-50 0 -90 22t-69 64t-44.5 103
t-15.5 139q0 112 19.5 189t52.5 123.5t76.5 67t91.5 20.5q103 0 158 -66zM836 820q66 -97 96.5 -204.5t30.5 -235.5q0 -129 -30.5 -236t-96.5 -204l-25 11q63 91 90.5 202.5t27.5 226.5q0 114 -27.5 226t-90.5 203z" />
    <glyph glyph-name="cid227" unicode="&#x247a;" horiz-adv-x="1000" 
d="M164 -60q-66 97 -96.5 204t-30.5 236q0 128 30.5 235.5t96.5 204.5l25 -11q-63 -91 -90.5 -203t-27.5 -226q0 -115 27.5 -226.5t90.5 -202.5zM442 20q3 109 18 198t41 168t63 153t85 153h-357v32h400v-22q-55 -87 -94 -165t-64 -158.5t-38 -167.5t-16 -191h-38zM811 -49
q63 91 90.5 202.5t27.5 226.5q0 114 -27.5 226t-90.5 203l25 11q66 -97 96.5 -204.5t30.5 -235.5q0 -129 -30.5 -236t-96.5 -204z" />
    <glyph glyph-name="cid228" unicode="&#x247b;" horiz-adv-x="1000" 
d="M164 -60q-66 97 -96.5 204t-30.5 236q0 128 30.5 235.5t96.5 204.5l25 -11q-63 -91 -90.5 -203t-27.5 -226q0 -115 27.5 -226.5t90.5 -202.5zM507 8q-50 0 -89.5 14.5t-67.5 40t-43 61t-15 76.5q0 40 12.5 71t32 56t44 43.5t48.5 33.5v4q-44 32 -73.5 69.5t-29.5 94.5
q0 37 13.5 67t37.5 51.5t56.5 33.5t69.5 12q45 0 79.5 -13.5t58 -37t35.5 -55t12 -68.5q0 -27 -9 -52.5t-23.5 -49.5t-33 -46t-37.5 -42v-4l51 -34t39.5 -36.5t25.5 -47.5t9 -66q0 -38 -13.5 -70t-39 -55.5t-63.5 -37t-87 -13.5zM553 384q44 45 70.5 86t26.5 92q0 28 -10 54
t-28.5 45.5t-46 31t-62.5 11.5q-30 0 -55 -9.5t-44 -27t-29.5 -42t-10.5 -53.5q0 -36 14 -63.5t39.5 -49.5t60 -40t75.5 -35zM507 40q40 0 71 11t52 30.5t31.5 45.5t10.5 57q0 43 -16.5 73.5t-45.5 53t-68.5 40.5l-84.5 37q-26 -18 -49 -36.5t-40.5 -41t-27.5 -49.5t-10 -61
t12.5 -63t35.5 -50.5t55.5 -34t73.5 -12.5zM811 -49q63 91 90.5 202.5t27.5 226.5q0 114 -27.5 226t-90.5 203l25 11q66 -97 96.5 -204.5t30.5 -235.5q0 -129 -30.5 -236t-96.5 -204z" />
    <glyph glyph-name="cid229" unicode="&#x247c;" horiz-adv-x="1000" 
d="M189 809q-63 -91 -90.5 -203t-27.5 -226q0 -115 27.5 -226.5t90.5 -202.5l-25 -11q-66 97 -96.5 204t-30.5 236q0 128 30.5 235.5t96.5 204.5zM476 336q19 0 41.5 5t46 18t47 33.5t44.5 52.5q-3 57 -16 104.5t-35.5 81t-55 52.5t-73.5 19q-33 0 -61.5 -14t-48.5 -38.5
t-31.5 -58t-11.5 -71.5q0 -88 38 -136t116 -48zM320 100q24 -32 59.5 -45t74.5 -13q40 0 76 18.5t64 60.5t44.5 110.5t17.5 169.5q-36 -47 -84.5 -73t-99.5 -26q-88 0 -138 56t-50 162q0 47 15.5 87t41.5 68.5t60.5 44.5t73.5 16q49 0 89.5 -22t69.5 -64t44.5 -103
t15.5 -139q0 -113 -19.5 -189.5t-52.5 -123t-76.5 -67t-91.5 -20.5q-103 0 -158 66zM836 820q66 -97 96.5 -204.5t30.5 -235.5q0 -129 -30.5 -236t-96.5 -204l-25 11q63 91 90.5 202.5t27.5 226.5q0 114 -27.5 226t-90.5 203z" />
    <glyph glyph-name="cid230" unicode="&#x247d;" horiz-adv-x="1000" 
d="M811 -49q63 91 90.5 202.5t27.5 226.5q0 114 -27.5 226t-90.5 203l25 11q66 -97 96.5 -204.5t30.5 -235.5q0 -129 -30.5 -236t-96.5 -204zM642 42q32 0 58.5 19.5t45.5 60.5t29.5 104t10.5 150t-10.5 149t-29.5 101t-45.5 57.5t-58.5 18.5t-58.5 -18.5t-45.5 -57.5
t-29.5 -101t-10.5 -149q0 -174 39.5 -254t104.5 -80zM642 8q-39 0 -72.5 22t-58 67t-38 114.5t-13.5 164.5q0 94 13.5 162.5t38 112t58 64.5t72.5 21t72.5 -21t58 -64.5t38 -112t13.5 -162.5q0 -95 -13.5 -164.5t-38 -114.5t-58 -67t-72.5 -22zM291 656h-114v26
q38 5 67.5 17t52.5 25h30v-704h-36v636zM164 -60q-66 97 -96.5 204t-30.5 236q0 128 30.5 235.5t96.5 204.5l25 -11q-63 -91 -90.5 -203t-27.5 -226q0 -115 27.5 -226.5t90.5 -202.5z" />
    <glyph glyph-name="cid231" unicode="&#x247e;" horiz-adv-x="1000" 
d="M811 -49q63 91 90.5 202.5t27.5 226.5q0 114 -27.5 226t-90.5 203l25 11q66 -97 96.5 -204.5t30.5 -235.5q0 -129 -30.5 -236t-96.5 -204zM671 656h-114v26q38 5 67.5 17t52.5 25h30v-704h-36v636zM351 656h-114v26q38 5 67.5 17t52.5 25h30v-704h-36v636zM164 -60
q-66 97 -96.5 204t-30.5 236q0 128 30.5 235.5t96.5 204.5l25 -11q-63 -91 -90.5 -203t-27.5 -226q0 -115 27.5 -226.5t90.5 -202.5z" />
    <glyph glyph-name="cid232" unicode="&#x247f;" horiz-adv-x="1000" 
d="M811 -49q63 91 90.5 202.5t27.5 226.5q0 114 -27.5 226t-90.5 203l25 11q66 -97 96.5 -204.5t30.5 -235.5q0 -129 -30.5 -236t-96.5 -204zM466 42q76 90 131 162.5t90.5 133t52 112t16.5 98.5q0 32 -7.5 60t-23 49t-40 33t-57.5 12q-40 0 -75 -26t-61 -64l-27 22
q16 21 33.5 39.5t38 32.5t43.5 22t50 8q80 0 122 -51t42 -137q0 -54 -18 -109t-52.5 -115.5t-86 -128.5t-117.5 -147q30 2 59 3t59 1h182v-32h-354v22zM291 656h-114v26q38 5 67.5 17t52.5 25h30v-704h-36v636zM164 -60q-66 97 -96.5 204t-30.5 236q0 128 30.5 235.5
t96.5 204.5l25 -11q-63 -91 -90.5 -203t-27.5 -226q0 -115 27.5 -226.5t90.5 -202.5z" />
    <glyph glyph-name="cid233" unicode="&#x2480;" horiz-adv-x="1000" 
d="M811 -49q63 91 90.5 202.5t27.5 226.5q0 114 -27.5 226t-90.5 203l25 11q66 -97 96.5 -204.5t30.5 -235.5q0 -129 -30.5 -236t-96.5 -204zM684 390q28 -7 53.5 -22.5t45 -39t31.5 -55t12 -69.5q0 -45 -14 -81.5t-39 -62t-59 -39t-73 -13.5q-35 0 -64.5 9t-54 23t-44 31.5
t-32.5 34.5l24 24q27 -35 68.5 -61.5t102.5 -26.5q30 0 57 11t47 32t31.5 50.5t11.5 66.5q0 78 -51.5 124t-162.5 46v34q52 0 88.5 13t60 35.5t34.5 51t11 60.5q0 63 -35.5 99.5t-91.5 36.5q-41 0 -77.5 -21.5t-62.5 -54.5l-24 24q30 36 71.5 61t92.5 25q36 0 66.5 -11
t52 -32t34 -52t12.5 -71q0 -71 -35.5 -114.5t-86.5 -61.5v-4zM291 656h-114v26q38 5 67.5 17t52.5 25h30v-704h-36v636zM164 -60q-66 97 -96.5 204t-30.5 236q0 128 30.5 235.5t96.5 204.5l25 -11q-63 -91 -90.5 -203t-27.5 -226q0 -115 27.5 -226.5t90.5 -202.5z" />
    <glyph glyph-name="cid234" unicode="&#x2481;" horiz-adv-x="1000" 
d="M189 809q-63 -91 -90.5 -203t-27.5 -226q0 -115 27.5 -226.5t90.5 -202.5l-25 -11q-66 97 -96.5 204t-30.5 236q0 128 30.5 235.5t96.5 204.5zM177 682q38 5 67.5 17t52.5 25h30v-704h-36v636h-114v26zM692 268v271v28.5v34t0.5 34t1.5 28.5h-4l-24.5 -47.5l-25.5 -48.5
l-167 -300h219zM728 236v-216h-36v216h-267v20l267 468h36v-456h87v-32h-87zM836 820q66 -97 96.5 -204.5t30.5 -235.5q0 -129 -30.5 -236t-96.5 -204l-25 11q63 91 90.5 202.5t27.5 226.5q0 114 -27.5 226t-90.5 203z" />
    <glyph glyph-name="cid235" unicode="&#x2482;" horiz-adv-x="1000" 
d="M811 -49q63 91 90.5 202.5t27.5 226.5q0 114 -27.5 226t-90.5 203l25 11q66 -97 96.5 -204.5t30.5 -235.5q0 -129 -30.5 -236t-96.5 -204zM514 422q25 17 48.5 28.5t59.5 11.5t68.5 -13t57 -40t38.5 -69t14 -100q0 -56 -16.5 -99.5t-43.5 -73.5t-61.5 -45.5t-70.5 -15.5
q-34 0 -61 8.5t-48.5 22t-38 30.5t-30.5 33l24 26q13 -16 28 -31.5t33.5 -27.5t41.5 -19.5t53 -7.5t57.5 14.5t48.5 40.5t33.5 62.5t12.5 80.5q0 88 -39.5 139t-104.5 51q-35 0 -58.5 -14t-49.5 -34l-30 16l26 328h276v-34h-244zM291 656h-114v26q38 5 67.5 17t52.5 25h30
v-704h-36v636zM164 -60q-66 97 -96.5 204t-30.5 236q0 128 30.5 235.5t96.5 204.5l25 -11q-63 -91 -90.5 -203t-27.5 -226q0 -115 27.5 -226.5t90.5 -202.5z" />
    <glyph glyph-name="cid236" unicode="&#x249c;" horiz-adv-x="1000" 
d="M164 -60q-66 97 -96.5 204t-30.5 236q0 128 30.5 235.5t96.5 204.5l25 -11q-63 -91 -90.5 -203t-27.5 -226q0 -115 27.5 -226.5t90.5 -202.5zM454 103q-31 0 -58.5 8.5t-48.5 25.5t-33.5 44t-12.5 64q0 44 20.5 76.5t62.5 56.5t107 39.5t154 25.5q1 31 -4 62t-19 56
t-39.5 40.5t-65.5 15.5q-27 0 -52.5 -6t-47.5 -15.5t-40 -21t-31 -21.5l-19 32q13 10 33 21.5t45 21.5t54.5 17t61.5 7q46 0 77.5 -16t50.5 -43t27 -63.5t8 -77.5v-336h-33l-4 69h-4q-41 -33 -88.5 -57.5t-100.5 -24.5zM460 139q47 0 90.5 21.5t94.5 65.5v184
q-84 -9 -142 -23.5t-93.5 -34.5t-51 -46t-15.5 -59q0 -29 9.5 -49.5t25 -33.5t37 -19t45.5 -6zM811 -49q63 91 90.5 202.5t27.5 226.5q0 114 -27.5 226t-90.5 203l25 11q66 -97 96.5 -204.5t30.5 -235.5q0 -129 -30.5 -236t-96.5 -204z" />
    <glyph glyph-name="cid237" unicode="&#x249d;" horiz-adv-x="1000" 
d="M164 -60q-66 97 -96.5 204t-30.5 236q0 128 30.5 235.5t96.5 204.5l25 -11q-63 -91 -90.5 -203t-27.5 -226q0 -115 27.5 -226.5t90.5 -202.5zM503 3q-37 0 -79.5 16.5t-81.5 45.5h-1l-6 -49h-34v788h41v-231l-3 -105q42 35 89.5 59.5t96.5 24.5q54 0 94 -19t66.5 -53.5
t39.5 -83.5t13 -110q0 -67 -19 -119.5t-51 -89t-74.5 -55.5t-90.5 -19zM504 39q42 0 77 18t60.5 51t40 78t14.5 99q0 49 -9.5 91.5t-30.5 73.5t-54 48.5t-81 17.5q-42 0 -86 -23t-93 -66v-319q45 -38 87.5 -53.5t74.5 -15.5zM811 -49q63 91 90.5 202.5t27.5 226.5
q0 114 -27.5 226t-90.5 203l25 11q66 -97 96.5 -204.5t30.5 -235.5q0 -129 -30.5 -236t-96.5 -204z" />
    <glyph glyph-name="cid238" unicode="&#x249e;" horiz-adv-x="1000" 
d="M164 -60q-66 97 -96.5 204t-30.5 236q0 128 30.5 235.5t96.5 204.5l25 -11q-63 -91 -90.5 -203t-27.5 -226q0 -115 27.5 -226.5t90.5 -202.5zM531 103q-51 0 -94 18.5t-74.5 53.5t-49.5 86t-18 116q0 66 19.5 117t52 86t75.5 53.5t90 18.5q54 0 90.5 -20.5t62.5 -44.5
l-24 -28q-27 24 -58 41t-71 17q-41 0 -76.5 -18t-62 -49.5t-41.5 -76t-15 -96.5q0 -53 14 -97t39.5 -75.5t61 -49t79.5 -17.5q45 0 81.5 19t63.5 45l23 -29q-35 -31 -76 -50.5t-92 -19.5zM811 -49q63 91 90.5 202.5t27.5 226.5q0 114 -27.5 226t-90.5 203l25 11
q66 -97 96.5 -204.5t30.5 -235.5q0 -129 -30.5 -236t-96.5 -204z" />
    <glyph glyph-name="cid239" unicode="&#x249f;" horiz-adv-x="1000" 
d="M164 -60q-66 97 -96.5 204t-30.5 236q0 128 30.5 235.5t96.5 204.5l25 -11q-63 -91 -90.5 -203t-27.5 -226q0 -115 27.5 -226.5t90.5 -202.5zM481 3q-50 0 -90 18t-69 52.5t-44.5 86t-15.5 117.5q0 63 19 114t51.5 87t75 55t90.5 19t85.5 -16.5t78.5 -46.5l-4 96v219h42
v-788h-35l-5 69h-2q-33 -33 -77.5 -57.5t-99.5 -24.5zM486 39q45 0 87.5 22.5t84.5 67.5v318q-43 38 -81 53.5t-79 15.5t-76 -18.5t-61 -51t-41 -76t-15 -93.5q0 -54 12 -97.5t35 -75t56.5 -48.5t77.5 -17zM811 -49q63 91 90.5 202.5t27.5 226.5q0 114 -27.5 226t-90.5 203
l25 11q66 -97 96.5 -204.5t30.5 -235.5q0 -129 -30.5 -236t-96.5 -204z" />
    <glyph glyph-name="cid240" unicode="&#x24a0;" horiz-adv-x="1000" 
d="M164 -60q-66 97 -96.5 204t-30.5 236q0 128 30.5 235.5t96.5 204.5l25 -11q-63 -91 -90.5 -203t-27.5 -226q0 -115 27.5 -226.5t90.5 -202.5zM537 103q-50 0 -94.5 18.5t-77.5 54t-52 86t-19 115.5q0 64 19 115t51 86.5t73.5 54.5t85.5 19q94 0 147.5 -62t53.5 -179
q0 -8 0.5 -17.5t-1.5 -18.5h-388q1 -52 16 -95.5t41.5 -75t64 -49t83.5 -17.5q45 0 80 13.5t65 33.5l18 -31q-31 -20 -69 -35.5t-97 -15.5zM686 406q0 106 -44 158.5t-119 52.5q-35 0 -67 -14.5t-57.5 -42t-42.5 -66.5t-21 -88h351zM811 -49q63 91 90.5 202.5t27.5 226.5
q0 114 -27.5 226t-90.5 203l25 11q66 -97 96.5 -204.5t30.5 -235.5q0 -129 -30.5 -236t-96.5 -204z" />
    <glyph glyph-name="cid241" unicode="&#x24a1;" horiz-adv-x="1000" 
d="M189 809q-63 -91 -90.5 -203t-27.5 -226q0 -115 27.5 -226.5t90.5 -202.5l-25 -11q-66 97 -96.5 204t-30.5 236q0 128 30.5 235.5t96.5 204.5zM433 662q0 78 32.5 116.5t91.5 38.5q17 0 36.5 -5t37.5 -13l-11 -33q-33 15 -63 15q-44 0 -64.5 -32t-20.5 -90v-120h124v-35
h-124v-488h-39v488h-72v31l72 4v123zM836 820q66 -97 96.5 -204.5t30.5 -235.5q0 -129 -30.5 -236t-96.5 -204l-25 11q63 91 90.5 202.5t27.5 226.5q0 114 -27.5 226t-90.5 203z" />
    <glyph glyph-name="cid242" unicode="&#x24a2;" horiz-adv-x="1000" 
d="M164 -60q-66 97 -96.5 204t-30.5 236q0 128 30.5 235.5t96.5 204.5l25 -11q-63 -91 -90.5 -203t-27.5 -226q0 -115 27.5 -226.5t90.5 -202.5zM509 -19q-98 0 -155 37t-57 100q0 31 19 63t51 54v4q-19 13 -32.5 32.5t-13.5 48.5q0 16 6 30t14.5 25t18.5 20t18 15v4
q-25 21 -45.5 56.5t-20.5 83.5q0 39 14 71.5t38 56t56 37t68 13.5q43 0 69 -13h173v-35h-126q26 -22 42.5 -55.5t16.5 -75.5q0 -38 -13 -71t-36.5 -57.5t-55.5 -38.5t-70 -14q-17 0 -40.5 5.5t-43.5 16.5q-16 -14 -29 -30.5t-13 -40.5q0 -27 22.5 -46t84.5 -19h100
q83 0 122 -27t39 -84q0 -31 -15.5 -61t-44.5 -53t-69.5 -37.5t-91.5 -14.5zM488 407q28 0 52.5 10.5t42.5 30t28 46.5t10 60t-10 59t-28 45t-42.5 29t-52.5 10q-27 0 -51.5 -10t-42.5 -28.5t-28.5 -45t-10.5 -59.5t11 -60t29 -46.5t42 -30t51 -10.5zM512 16q41 0 73.5 11
t55.5 29t35 41t12 47q0 40 -29 56.5t-86 16.5h-102q-8 0 -28.5 2t-41.5 7q-35 -23 -48.5 -50.5t-13.5 -53.5q0 -48 45 -77t128 -29zM811 -49q63 91 90.5 202.5t27.5 226.5q0 114 -27.5 226t-90.5 203l25 11q66 -97 96.5 -204.5t30.5 -235.5q0 -129 -30.5 -236t-96.5 -204z
" />
    <glyph glyph-name="cid243" unicode="&#x24a3;" horiz-adv-x="1000" 
d="M164 -60q-66 97 -96.5 204t-30.5 236q0 128 30.5 235.5t96.5 204.5l25 -11q-63 -91 -90.5 -203t-27.5 -226q0 -115 27.5 -226.5t90.5 -202.5zM312 804h40v-231l-1 -117q43 42 86.5 69t99.5 27q81 0 119 -48.5t38 -150.5v-337h-39v331q0 86 -29 128t-96 42
q-48 0 -88.5 -26t-89.5 -77v-398h-40v788zM811 -49q63 91 90.5 202.5t27.5 226.5q0 114 -27.5 226t-90.5 203l25 11q66 -97 96.5 -204.5t30.5 -235.5q0 -129 -30.5 -236t-96.5 -204z" />
    <glyph glyph-name="cid244" unicode="&#x24a4;" horiz-adv-x="1000" 
d="M164 -60q-66 97 -96.5 204t-30.5 236q0 128 30.5 235.5t96.5 204.5l25 -11q-63 -91 -90.5 -203t-27.5 -226q0 -115 27.5 -226.5t90.5 -202.5zM479 539h41v-523h-41v523zM501 669q-17 0 -29.5 12t-12.5 29q0 19 12.5 29.5t29.5 10.5q15 0 27.5 -10.5t12.5 -29.5
q0 -17 -12.5 -29t-27.5 -12zM811 -49q63 91 90.5 202.5t27.5 226.5q0 114 -27.5 226t-90.5 203l25 11q66 -97 96.5 -204.5t30.5 -235.5q0 -129 -30.5 -236t-96.5 -204z" />
    <glyph glyph-name="cid245" unicode="&#x24a5;" horiz-adv-x="1000" 
d="M164 -60q-66 97 -96.5 204t-30.5 236q0 128 30.5 235.5t96.5 204.5l25 -11q-63 -91 -90.5 -203t-27.5 -226q0 -115 27.5 -226.5t90.5 -202.5zM426 -138q-17 0 -35.5 4t-29.5 9l10 34q11 -4 25.5 -7t30.5 -3q22 0 36.5 8.5t22 24t10.5 37t3 46.5v624h39v-628
q0 -77 -27 -113t-85 -36zM520 769q-17 0 -29 12t-12 29q0 19 12 29.5t29 10.5q16 0 27.5 -10.5t11.5 -29.5q0 -17 -11.5 -29t-27.5 -12zM811 -49q63 91 90.5 202.5t27.5 226.5q0 114 -27.5 226t-90.5 203l25 11q66 -97 96.5 -204.5t30.5 -235.5q0 -129 -30.5 -236
t-96.5 -204z" />
    <glyph glyph-name="cid246" unicode="&#x24a6;" horiz-adv-x="1000" 
d="M164 -60q-66 97 -96.5 204t-30.5 236q0 128 30.5 235.5t96.5 204.5l25 -11q-63 -91 -90.5 -203t-27.5 -226q0 -115 27.5 -226.5t90.5 -202.5zM330 804h40v-589h2l272 324h46l-172 -206l203 -317h-46l-181 286l-124 -142v-144h-40v788zM811 -49q63 91 90.5 202.5
t27.5 226.5q0 114 -27.5 226t-90.5 203l25 11q66 -97 96.5 -204.5t30.5 -235.5q0 -129 -30.5 -236t-96.5 -204z" />
    <glyph glyph-name="cid247" unicode="&#x24a7;" horiz-adv-x="1000" 
d="M164 -60q-66 97 -96.5 204t-30.5 236q0 128 30.5 235.5t96.5 204.5l25 -11q-63 -91 -90.5 -203t-27.5 -226q0 -115 27.5 -226.5t90.5 -202.5zM533 3q-28 0 -43 17.5t-15 59.5v724h41v-731q0 -35 22 -35h8t12 2l7 -33q-8 -1 -14.5 -2.5t-17.5 -1.5zM811 -49
q63 91 90.5 202.5t27.5 226.5q0 114 -27.5 226t-90.5 203l25 11q66 -97 96.5 -204.5t30.5 -235.5q0 -129 -30.5 -236t-96.5 -204z" />
    <glyph glyph-name="cid248" unicode="&#x24a8;" horiz-adv-x="1000" 
d="M164 -60q-66 97 -96.5 204t-30.5 236q0 128 30.5 235.5t96.5 204.5l25 -11q-63 -91 -90.5 -203t-27.5 -226q0 -115 27.5 -226.5t90.5 -202.5zM237 639h38l6 -61h2q26 32 59 53t68 21q46 0 70.5 -23.5t35.5 -63.5q32 42 65 64.5t75 22.5q114 0 114 -182v-354h-43v348
q0 153 -78 153q-35 0 -62 -20.5t-59 -62.5v-418h-45v348q0 153 -81 153q-37 0 -63 -21t-57 -62v-418h-45v523zM811 -49q63 91 90.5 202.5t27.5 226.5q0 114 -27.5 226t-90.5 203l25 11q66 -97 96.5 -204.5t30.5 -235.5q0 -129 -30.5 -236t-96.5 -204z" />
    <glyph glyph-name="cid249" unicode="&#x24a9;" horiz-adv-x="1000" 
d="M164 -60q-66 97 -96.5 204t-30.5 236q0 128 30.5 235.5t96.5 204.5l25 -11q-63 -91 -90.5 -203t-27.5 -226q0 -115 27.5 -226.5t90.5 -202.5zM313 639h34l6 -82h2q41 42 84 68.5t99 26.5q81 0 119.5 -48.5t38.5 -151.5v-336h-39v330q0 87 -29.5 129t-96.5 42
q-48 0 -88 -26t-89 -78v-397h-41v523zM811 -49q63 91 90.5 202.5t27.5 226.5q0 114 -27.5 226t-90.5 203l25 11q66 -97 96.5 -204.5t30.5 -235.5q0 -129 -30.5 -236t-96.5 -204z" />
    <glyph glyph-name="cid250" unicode="&#x24aa;" horiz-adv-x="1000" 
d="M164 -60q-66 97 -96.5 204t-30.5 236q0 128 30.5 235.5t96.5 204.5l25 -11q-63 -91 -90.5 -203t-27.5 -226q0 -115 27.5 -226.5t90.5 -202.5zM500 103q-47 0 -90 18.5t-75 53.5t-51 86t-19 116q0 66 19 117t51 86t75 53.5t90 18.5t89.5 -18.5t74.5 -53.5t51 -86t19 -117
q0 -65 -19 -116t-51 -86t-74.5 -53.5t-89.5 -18.5zM500 138q41 0 76.5 17.5t61.5 49t40.5 75.5t14.5 97q0 52 -14.5 96.5t-40.5 76t-61.5 49.5t-76.5 18t-76.5 -18t-61.5 -49.5t-41 -76t-15 -96.5q0 -53 15 -97t41 -75.5t61.5 -49t76.5 -17.5zM811 -49q63 91 90.5 202.5
t27.5 226.5q0 114 -27.5 226t-90.5 203l25 11q66 -97 96.5 -204.5t30.5 -235.5q0 -129 -30.5 -236t-96.5 -204z" />
    <glyph glyph-name="cid251" unicode="&#x24ab;" horiz-adv-x="1000" 
d="M811 -49q63 91 90.5 202.5t27.5 226.5q0 114 -27.5 226t-90.5 203l25 11q66 -97 96.5 -204.5t30.5 -235.5q0 -129 -30.5 -236t-96.5 -204zM343 288q46 -38 87.5 -53.5t73.5 -15.5q42 0 76.5 18t60 51t39.5 78t14 99q0 49 -9.5 91.5t-30 73.5t-53.5 48.5t-80 17.5
q-41 0 -84 -23t-94 -66v-319zM303 719h33l7 -66h1q39 31 85.5 55t95.5 24q54 0 93.5 -19t66 -53.5t39.5 -83.5t13 -110q0 -67 -19 -119.5t-51 -89t-74.5 -55.5t-89.5 -19q-37 0 -77.5 16.5t-82.5 48.5v-253h-40v724zM164 -60q-66 97 -96.5 204t-30.5 236q0 128 30.5 235.5
t96.5 204.5l25 -11q-63 -91 -90.5 -203t-27.5 -226q0 -115 27.5 -226.5t90.5 -202.5z" />
    <glyph glyph-name="cid252" unicode="&#x24ac;" horiz-adv-x="1000" 
d="M164 -60q-66 97 -96.5 204t-30.5 236q0 128 30.5 235.5t96.5 204.5l25 -11q-63 -91 -90.5 -203t-27.5 -226q0 -115 27.5 -226.5t90.5 -202.5zM657 161l4 104q-36 -32 -80.5 -57t-98.5 -25q-50 0 -90 18t-69 52.5t-44.5 86t-15.5 117.5q0 63 19 114t51.5 87t75 55t90.5 19
q47 0 84 -16.5t75 -44.5h1l4 48h35v-724h-41v166zM487 219q45 0 86.5 22.5t83.5 67.5v318q-43 38 -80.5 53.5t-78.5 15.5t-75.5 -18.5t-60.5 -51t-40.5 -76t-14.5 -93.5q0 -54 11.5 -97.5t34.5 -75t56.5 -48.5t77.5 -17zM811 -49q63 91 90.5 202.5t27.5 226.5
q0 114 -27.5 226t-90.5 203l25 11q66 -97 96.5 -204.5t30.5 -235.5q0 -129 -30.5 -236t-96.5 -204z" />
    <glyph glyph-name="cid253" unicode="&#x24ad;" horiz-adv-x="1000" 
d="M164 -60q-66 97 -96.5 204t-30.5 236q0 128 30.5 235.5t96.5 204.5l25 -11q-63 -91 -90.5 -203t-27.5 -226q0 -115 27.5 -226.5t90.5 -202.5zM404 639h34l6 -98h2q26 48 63.5 79.5t85.5 31.5q14 0 25.5 -2t25.5 -9l-11 -36q-12 5 -21 7t-25 2q-35 0 -74.5 -31t-69.5 -107
v-360h-41v523zM811 -49q63 91 90.5 202.5t27.5 226.5q0 114 -27.5 226t-90.5 203l25 11q66 -97 96.5 -204.5t30.5 -235.5q0 -129 -30.5 -236t-96.5 -204z" />
    <glyph glyph-name="cid254" unicode="&#x24ae;" horiz-adv-x="1000" 
d="M164 -60q-66 97 -96.5 204t-30.5 236q0 128 30.5 235.5t96.5 204.5l25 -11q-63 -91 -90.5 -203t-27.5 -226q0 -115 27.5 -226.5t90.5 -202.5zM508 103q-59 0 -108 21.5t-83 51.5l24 30q17 -14 34.5 -26t37.5 -21t44 -14.5t53 -5.5q31 0 55.5 8.5t41 23.5t25 34.5
t8.5 40.5q0 25 -11.5 44t-30.5 33.5t-42 25t-45 18.5q-31 10 -61.5 22t-55 29t-39.5 40.5t-15 56.5q0 27 11 52t32 44t52 30t72 11q40 0 79.5 -15t67.5 -38l-23 -29q-26 19 -55 33.5t-70 14.5q-32 0 -55 -8.5t-38 -23t-22.5 -32.5t-7.5 -36q0 -24 10.5 -40.5t28 -29
t40 -21.5l46.5 -18l62 -24t55.5 -29.5t40 -43t15.5 -64.5q0 -29 -11.5 -55.5t-33.5 -46.5t-54 -31.5t-74 -11.5zM811 -49q63 91 90.5 202.5t27.5 226.5q0 114 -27.5 226t-90.5 203l25 11q66 -97 96.5 -204.5t30.5 -235.5q0 -129 -30.5 -236t-96.5 -204z" />
    <glyph glyph-name="cid255" unicode="&#x24af;" horiz-adv-x="1000" 
d="M164 -60q-66 97 -96.5 204t-30.5 236q0 128 30.5 235.5t96.5 204.5l25 -11q-63 -91 -90.5 -203t-27.5 -226q0 -115 27.5 -226.5t90.5 -202.5zM573 63q-37 0 -61.5 11.5t-39 31.5t-20.5 48.5t-6 63.5v346h-82v31l83 4l5 153h33v-153h155v-35h-155v-351q0 -25 4 -46t14 -36
t27.5 -23.5t45.5 -8.5q14 0 33.5 5t33.5 13l11 -34q-22 -8 -44.5 -14t-36.5 -6zM811 -49q63 91 90.5 202.5t27.5 226.5q0 114 -27.5 226t-90.5 203l25 11q66 -97 96.5 -204.5t30.5 -235.5q0 -129 -30.5 -236t-96.5 -204z" />
    <glyph glyph-name="cid256" unicode="&#x24b0;" horiz-adv-x="1000" 
d="M164 -60q-66 97 -96.5 204t-30.5 236q0 128 30.5 235.5t96.5 204.5l25 -11q-63 -91 -90.5 -203t-27.5 -226q0 -115 27.5 -226.5t90.5 -202.5zM466 103q-82 0 -121 48.5t-39 151.5v336h39v-330q0 -87 30 -128.5t96 -41.5q49 0 88.5 27t86.5 85v388h41v-523h-34l-6 90h-2
q-40 -46 -82.5 -74.5t-96.5 -28.5zM811 -49q63 91 90.5 202.5t27.5 226.5q0 114 -27.5 226t-90.5 203l25 11q66 -97 96.5 -204.5t30.5 -235.5q0 -129 -30.5 -236t-96.5 -204z" />
    <glyph glyph-name="cid257" unicode="&#x24b1;" horiz-adv-x="1000" 
d="M164 -60q-66 97 -96.5 204t-30.5 236q0 128 30.5 235.5t96.5 204.5l25 -11q-63 -91 -90.5 -203t-27.5 -226q0 -115 27.5 -226.5t90.5 -202.5zM279 639h45l121 -333l27.5 -76.5t27.5 -73.5h4l27 73.5t26 76.5l122 333h42l-196 -523h-48zM811 -49q63 91 90.5 202.5
t27.5 226.5q0 114 -27.5 226t-90.5 203l25 11q66 -97 96.5 -204.5t30.5 -235.5q0 -129 -30.5 -236t-96.5 -204z" />
    <glyph glyph-name="cid258" unicode="&#x24b2;" horiz-adv-x="1000" 
d="M164 -60q-66 97 -96.5 204t-30.5 236q0 128 30.5 235.5t96.5 204.5l25 -11q-63 -91 -90.5 -203t-27.5 -226q0 -115 27.5 -226.5t90.5 -202.5zM167 639h47l91 -345q11 -38 19 -71.5l17 -68.5h5q10 35 17 68.5t18 71.5l95 345h52l93 -345q10 -37 18 -71t18 -69h4l19 68.5
l19 71.5l90 345h44l-148 -523h-53l-92 334q-11 38 -19 75t-19 75h-5q-10 -38 -18 -75.5t-22 -75.5l-88 -333h-51zM811 -49q63 91 90.5 202.5t27.5 226.5q0 114 -27.5 226t-90.5 203l25 11q66 -97 96.5 -204.5t30.5 -235.5q0 -129 -30.5 -236t-96.5 -204z" />
    <glyph glyph-name="cid259" unicode="&#x24b3;" horiz-adv-x="1000" 
d="M164 -60q-66 97 -96.5 204t-30.5 236q0 128 30.5 235.5t96.5 204.5l25 -11q-63 -91 -90.5 -203t-27.5 -226q0 -115 27.5 -226.5t90.5 -202.5zM477 389l-164 250h45l88 -136q12 -21 26.5 -42.5l29.5 -43.5h4q15 22 28 43.5t28 42.5l84 136h43l-164 -252l178 -271h-44
l-96 148l-30.5 48t-32.5 47h-5l-29.5 -46.5t-31.5 -48.5l-93 -148h-43zM811 -49q63 91 90.5 202.5t27.5 226.5q0 114 -27.5 226t-90.5 203l25 11q66 -97 96.5 -204.5t30.5 -235.5q0 -129 -30.5 -236t-96.5 -204z" />
    <glyph glyph-name="cid260" unicode="&#x24b4;" horiz-adv-x="1000" 
d="M164 -60q-66 97 -96.5 204t-30.5 236q0 128 30.5 235.5t96.5 204.5l25 -11q-63 -91 -90.5 -203t-27.5 -226q0 -115 27.5 -226.5t90.5 -202.5zM349 -5q-17 0 -33.5 2.5t-28.5 7.5l10 37q24 -8 52 -8q52 0 83 27.5t46 75.5l15 47l-217 535h45l129 -336l29.5 -73.5
l29.5 -74.5h4q14 35 26 74t24 74l115 336h42l-210 -594q-9 -24 -21.5 -47.5t-32 -42t-45.5 -29.5t-62 -11zM811 -49q63 91 90.5 202.5t27.5 226.5q0 114 -27.5 226t-90.5 203l25 11q66 -97 96.5 -204.5t30.5 -235.5q0 -129 -30.5 -236t-96.5 -204z" />
    <glyph glyph-name="cid261" unicode="&#x24b5;" horiz-adv-x="1000" 
d="M164 -60q-66 97 -96.5 204t-30.5 236q0 128 30.5 235.5t96.5 204.5l25 -11q-63 -91 -90.5 -203t-27.5 -226q0 -115 27.5 -226.5t90.5 -202.5zM311 137l316 467h-281v35h334v-21l-317 -466h327v-36h-379v21zM811 -49q63 91 90.5 202.5t27.5 226.5q0 114 -27.5 226
t-90.5 203l25 11q66 -97 96.5 -204.5t30.5 -235.5q0 -129 -30.5 -236t-96.5 -204z" />
    <glyph glyph-name="cid262" unicode="&#x24d0;" horiz-adv-x="1000" 
d="M500 -80q-95 0 -179 36t-146.5 98.5t-98.5 146.5t-36 179t36 179t98.5 146.5t146.5 98.5t179 36t179 -36t146.5 -98.5t98.5 -146.5t36 -179q0 -96 -36.5 -180t-99 -146t-146.5 -98t-178 -36zM500 -54q90 0 169 34t138 93t93 138t34 169t-34 169t-93 138t-138 93t-169 34
q-91 0 -170 -34.5t-137.5 -93.5t-92.5 -138t-34 -168q0 -90 34 -169t93 -138t138 -93t169 -34zM468 188q-46 0 -75.5 25.5t-29.5 73.5q0 57 53.5 88t171.5 42q0 21 -3 40t-11.5 33.5t-23 22.5t-37.5 8q-35 0 -68 -14t-53 -28l-13 28l24.5 14t32.5 15t38 11.5t41 4.5
q31 0 52.5 -10t34 -27.5t18 -42t5.5 -54.5v-221h-29l-6 44h-5q-23 -20 -52 -36.5t-65 -16.5zM476 221q26 0 54 12.5t58 41.5v115q-53 -5 -88.5 -14t-58 -22t-32 -29t-9.5 -35q0 -37 20.5 -53t55.5 -16z" />
    <glyph glyph-name="cid263" unicode="&#x24d1;" horiz-adv-x="1000" 
d="M500 -80q-95 0 -179 36t-146.5 98.5t-98.5 146.5t-36 179t36 179t98.5 146.5t146.5 98.5t179 36t179 -36t146.5 -98.5t98.5 -146.5t36 -179q0 -96 -36.5 -180t-99 -146t-146.5 -98t-178 -36zM500 -54q90 0 169 34t138 93t93 138t34 169t-34 169t-93 138t-138 93t-169 34
q-91 0 -170 -34.5t-137.5 -93.5t-92.5 -138t-34 -168q0 -90 34 -169t93 -138t138 -93t169 -34zM517 148q-24 0 -51 11t-52 31h-5l-5 -33h-26v517h34v-148l-2 -69q28 23 56 39t63 16q72 0 107 -47t35 -128q0 -45 -12.5 -80t-33.5 -59.5t-49 -37t-59 -12.5zM518 181
q51 0 83.5 42t32.5 113q0 65 -25.5 104.5t-82.5 39.5q-26 0 -55.5 -15t-58.5 -42v-199q27 -23 55.5 -33t50.5 -10z" />
    <glyph glyph-name="cid264" unicode="&#x24d2;" horiz-adv-x="1000" 
d="M500 -80q-95 0 -179 36t-146.5 98.5t-98.5 146.5t-36 179t36 179t98.5 146.5t146.5 98.5t179 36t179 -36t146.5 -98.5t98.5 -146.5t36 -179q0 -96 -36.5 -180t-99 -146t-146.5 -98t-178 -36zM500 -54q90 0 169 34t138 93t93 138t34 169t-34 169t-93 138t-138 93t-169 34
q-91 0 -170 -34.5t-137.5 -93.5t-92.5 -138t-34 -168q0 -90 34 -169t93 -138t138 -93t169 -34zM522 188q-35 0 -65 12t-52 35.5t-34 57.5t-12 78q0 43 13.5 76.5t36 57t52.5 35.5t62 12q36 0 60.5 -12t43.5 -27l-20 -24q-19 16 -37.5 24t-48.5 8q-27 0 -49.5 -11t-39 -31
t-25.5 -47.5t-9 -60.5q0 -66 34.5 -108t91.5 -42q30 0 52.5 9.5t39.5 24.5l16 -25q-19 -16 -44.5 -29t-65.5 -13z" />
    <glyph glyph-name="cid265" unicode="&#x24d3;" horiz-adv-x="1000" 
d="M500 -80q-95 0 -179 36t-146.5 98.5t-98.5 146.5t-36 179t36 179t98.5 146.5t146.5 98.5t179 36t179 -36t146.5 -98.5t98.5 -146.5t36 -179q0 -96 -36.5 -180t-99 -146t-146.5 -98t-178 -36zM500 -54q90 0 169 34t138 93t93 138t34 169t-34 169t-93 138t-138 93t-169 34
q-91 0 -170 -34.5t-137.5 -93.5t-92.5 -138t-34 -168q0 -90 34 -169t93 -138t138 -93t169 -34zM494 148q-71 0 -111 49t-40 140q0 40 12.5 72.5t34 55.5t49.5 35t59 12q29 0 54.5 -10.5t51.5 -30.5l-3 63v140h35v-517h-27l-7 41h-3q-23 -19 -48 -34.5t-57 -15.5zM497 181
q26 0 50.5 14.5t53.5 39.5v201q-27 24 -53 34.5t-51 10.5q-24 0 -45.5 -11t-37 -30.5t-24.5 -45.5t-9 -57q0 -72 27.5 -114t88.5 -42z" />
    <glyph glyph-name="cid266" unicode="&#x24d4;" horiz-adv-x="1000" 
d="M500 -80q-95 0 -179 36t-146.5 98.5t-98.5 146.5t-36 179t36 179t98.5 146.5t146.5 98.5t179 36t179 -36t146.5 -98.5t98.5 -146.5t36 -179q0 -96 -36.5 -180t-99 -146t-146.5 -98t-178 -36zM500 -54q90 0 169 34t138 93t93 138t34 169t-34 169t-93 138t-138 93t-169 34
q-91 0 -170 -34.5t-137.5 -93.5t-92.5 -138t-34 -168q0 -90 34 -169t93 -138t138 -93t169 -34zM517 188q-33 0 -63 12t-52 35t-35 57.5t-13 78.5q0 42 12.5 75.5t34 57t50 36t60.5 12.5q42 0 68.5 -16.5t42 -40t21 -50t5.5 -47.5q0 -8 -0.5 -14t-2.5 -20h-254
q1 -64 35.5 -103.5t94.5 -39.5q29 0 54 9.5t42 21.5l17 -27q-22 -12 -49.5 -24.5t-67.5 -12.5zM613 394q0 22 -5 44.5t-17 40.5t-31.5 29.5t-47.5 11.5q-51 0 -82.5 -33.5t-37.5 -92.5h221z" />
    <glyph glyph-name="cid267" unicode="&#x24d5;" horiz-adv-x="1000" 
d="M459 572q0 52 22.5 82t65.5 30q15 0 27.5 -2t27.5 -9l-10 -29q-8 3 -18.5 5.5t-24.5 2.5q-29 0 -42 -21.5t-13 -53.5v-73h82v-30h-82v-317h-35v317h-50v27l50 3v68zM500 -54q90 0 169 34t138 93t93 138t34 169t-34 169t-93 138t-138 93t-169 34q-91 0 -170 -34.5
t-137.5 -93.5t-92.5 -138t-34 -168q0 -90 34 -169t93 -138t138 -93t169 -34zM500 840q95 0 179 -36t146.5 -98.5t98.5 -146.5t36 -179q0 -96 -36.5 -180t-99 -146t-146.5 -98t-178 -36q-95 0 -179 36t-146.5 98.5t-98.5 146.5t-36 179t36 179t98.5 146.5t146.5 98.5t179 36z
" />
    <glyph glyph-name="cid268" unicode="&#x24d6;" horiz-adv-x="1000" 
d="M500 -80q-95 0 -179 36t-146.5 98.5t-98.5 146.5t-36 179t36 179t98.5 146.5t146.5 98.5t179 36t179 -36t146.5 -98.5t98.5 -146.5t36 -179q0 -96 -36.5 -180t-99 -146t-146.5 -98t-178 -36zM500 -54q90 0 169 34t138 93t93 138t34 169t-34 169t-93 138t-138 93t-169 34
q-91 0 -170 -34.5t-137.5 -93.5t-92.5 -138t-34 -168q0 -90 34 -169t93 -138t138 -93t169 -34zM502 92q-68 0 -105.5 25.5t-37.5 70.5q0 23 13 43.5t38 36.5v4q-14 8 -23 23t-9 35q0 21 13 37t27 24v5q-19 13 -32 37t-13 56q0 56 36 89.5t88 33.5q32 0 54 -11h114v-31h-78
q17 -12 27 -34.5t10 -46.5q0 -27 -10 -50t-27 -39.5t-40 -25.5t-50 -9q-14 0 -29 3.5t-29 11.5q-11 -9 -18.5 -20t-7.5 -27q0 -20 14 -31.5t52 -11.5h76q60 0 87.5 -19t27.5 -62q0 -23 -12 -44t-33.5 -37t-52.5 -26t-70 -10zM497 396q38 0 65.5 26t27.5 67q0 43 -27.5 67.5
t-65.5 24.5q-39 0 -64.5 -24t-25.5 -68q0 -42 25.5 -67.5t64.5 -25.5zM506 123q59 0 94 25.5t35 56.5q0 28 -21 38.5t-60 10.5h-73q-7 0 -20 0.5t-24 4.5q-44 -29 -44 -67q0 -33 29.5 -51t83.5 -18z" />
    <glyph glyph-name="cid269" unicode="&#x24d7;" horiz-adv-x="1000" 
d="M370 674h34v-224q24 26 55.5 44t66.5 18q61 0 85 -37t24 -95v-223h-34v217q0 24 -3.5 43.5t-13 33.5t-26 22t-41.5 8q-24 0 -51 -15.5t-62 -49.5v-259h-34v517zM500 -54q90 0 169 34t138 93t93 138t34 169t-34 169t-93 138t-138 93t-169 34q-91 0 -170 -34.5
t-137.5 -93.5t-92.5 -138t-34 -168q0 -90 34 -169t93 -138t138 -93t169 -34zM500 -80q-95 0 -179 36t-146.5 98.5t-98.5 146.5t-36 179t36 179t98.5 146.5t146.5 98.5t179 36t179 -36t146.5 -98.5t98.5 -146.5t36 -179q0 -96 -36.5 -180t-99 -146t-146.5 -98t-178 -36z" />
    <glyph glyph-name="cid270" unicode="&#x24d8;" horiz-adv-x="1000" 
d="M500 -80q-95 0 -179 36t-146.5 98.5t-98.5 146.5t-36 179t36 179t98.5 146.5t146.5 98.5t179 36t179 -36t146.5 -98.5t98.5 -146.5t36 -179q0 -96 -36.5 -180t-99 -146t-146.5 -98t-178 -36zM500 -54q90 0 169 34t138 93t93 138t34 169t-34 169t-93 138t-138 93t-169 34
q-91 0 -170 -34.5t-137.5 -93.5t-92.5 -138t-34 -168q0 -90 34 -169t93 -138t138 -93t169 -34zM483 504h35v-347h-35v347zM502 585q-14 0 -22.5 9t-8.5 23t8.5 23t22.5 9q15 0 24 -9t9 -23t-9 -23t-24 -9z" />
    <glyph glyph-name="cid271" unicode="&#x24d9;" horiz-adv-x="1000" 
d="M500 -80q-95 0 -179 36t-146.5 98.5t-98.5 146.5t-36 179t36 179t98.5 146.5t146.5 98.5t179 36t179 -36t146.5 -98.5t98.5 -146.5t36 -179q0 -96 -36.5 -180t-99 -146t-146.5 -98t-178 -36zM500 -54q90 0 169 34t138 93t93 138t34 169t-34 169t-93 138t-138 93t-169 34
q-91 0 -170 -34.5t-137.5 -93.5t-92.5 -138t-34 -168q0 -90 34 -169t93 -138t138 -93t169 -34zM447 32q-14 0 -23 2t-21 7l9 32q8 -4 14.5 -5.5t18.5 -1.5q29 0 38 19.5t9 51.5v407h34v-403q0 -57 -18.5 -83t-60.5 -26zM511 625q-14 0 -22.5 9t-8.5 23t8.5 23t22.5 9
q15 0 24.5 -9t9.5 -23t-9.5 -23t-24.5 -9z" />
    <glyph glyph-name="cid272" unicode="&#x24da;" horiz-adv-x="1000" 
d="M500 -80q-95 0 -179 36t-146.5 98.5t-98.5 146.5t-36 179t36 179t98.5 146.5t146.5 98.5t179 36t179 -36t146.5 -98.5t98.5 -146.5t36 -179q0 -96 -36.5 -180t-99 -146t-146.5 -98t-178 -36zM500 -54q90 0 169 34t138 93t93 138t34 169t-34 169t-93 138t-138 93t-169 34
q-91 0 -170 -34.5t-137.5 -93.5t-92.5 -138t-34 -168q0 -90 34 -169t93 -138t138 -93t169 -34zM392 674h34v-372h4l169 202h45l-117 -139l134 -208h-40l-119 181l-76 -91v-90h-34v517z" />
    <glyph glyph-name="cid273" unicode="&#x24db;" horiz-adv-x="1000" 
d="M500 -80q-95 0 -179 36t-146.5 98.5t-98.5 146.5t-36 179t36 179t98.5 146.5t146.5 98.5t179 36t179 -36t146.5 -98.5t98.5 -146.5t36 -179q0 -96 -36.5 -180t-99 -146t-146.5 -98t-178 -36zM500 -54q90 0 169 34t138 93t93 138t34 169t-34 169t-93 138t-138 93t-169 34
q-91 0 -170 -34.5t-137.5 -93.5t-92.5 -138t-34 -168q0 -90 34 -169t93 -138t138 -93t169 -34zM525 148q-26 0 -37 16t-11 48v462h34v-469q0 -14 5.5 -19t13.5 -5h6t8 2l8 -31q-6 -1 -12 -2.5t-15 -1.5z" />
    <glyph glyph-name="cid274" unicode="&#x24dc;" horiz-adv-x="1000" 
d="M500 -80q-95 0 -179 36t-146.5 98.5t-98.5 146.5t-36 179t36 179t98.5 146.5t146.5 98.5t179 36t179 -36t146.5 -98.5t98.5 -146.5t36 -179q0 -96 -36.5 -180t-99 -146t-146.5 -98t-178 -36zM500 -54q90 0 169 34t138 93t93 138t34 169t-34 169t-93 138t-138 93t-169 34
q-91 0 -170 -34.5t-137.5 -93.5t-92.5 -138t-34 -168q0 -90 34 -169t93 -138t138 -93t169 -34zM267 544h28l5 -52h3q23 26 50 43t62 17t60.5 -17t36.5 -53q26 28 56.5 49t64.5 21q58 0 82 -37t24 -95v-223h-36v217q0 24 -3.5 43.5t-12.5 33.5t-24 22t-39 8
q-23 0 -47.5 -15.5t-55.5 -49.5v-259h-36v217q0 47 -16.5 77t-62.5 30q-24 0 -48 -15.5t-56 -49.5v-259h-35v347z" />
    <glyph glyph-name="cid275" unicode="&#x24dd;" horiz-adv-x="1000" 
d="M500 -80q-95 0 -179 36t-146.5 98.5t-98.5 146.5t-36 179t36 179t98.5 146.5t146.5 98.5t179 36t179 -36t146.5 -98.5t98.5 -146.5t36 -179q0 -96 -36.5 -180t-99 -146t-146.5 -98t-178 -36zM500 -54q90 0 169 34t138 93t93 138t34 169t-34 169t-93 138t-138 93t-169 34
q-91 0 -170 -34.5t-137.5 -93.5t-92.5 -138t-34 -168q0 -90 34 -169t93 -138t138 -93t169 -34zM370 544h28l5 -52h3q25 26 55.5 43t65.5 17q61 0 85 -37t24 -95v-223h-34v217q0 47 -16.5 77t-65.5 30q-26 0 -53.5 -15.5t-61.5 -49.5v-259h-35v347z" />
    <glyph glyph-name="cid276" unicode="&#x24de;" horiz-adv-x="1000" 
d="M500 -80q-95 0 -179 36t-146.5 98.5t-98.5 146.5t-36 179t36 179t98.5 146.5t146.5 98.5t179 36t179 -36t146.5 -98.5t98.5 -146.5t36 -179q0 -96 -36.5 -180t-99 -146t-146.5 -98t-178 -36zM500 -54q90 0 169 34t138 93t93 138t34 169t-34 169t-93 138t-138 93t-169 34
q-91 0 -170 -34.5t-137.5 -93.5t-92.5 -138t-34 -168q0 -90 34 -169t93 -138t138 -93t169 -34zM499 188q-33 0 -61.5 12.5t-50 36t-34 57.5t-12.5 77t12.5 76.5t34 57t50 35.5t61.5 12t62 -12t51 -35.5t34.5 -57t12.5 -76.5t-12.5 -77t-34.5 -57.5t-51 -36t-62 -12.5z
M499 221q54 0 87.5 42t33.5 108q0 68 -33.5 109t-87.5 41t-87 -41t-33 -109q0 -66 33 -108t87 -42z" />
    <glyph glyph-name="cid277" unicode="&#x24df;" horiz-adv-x="1000" 
d="M500 -80q-95 0 -179 36t-146.5 98.5t-98.5 146.5t-36 179t36 179t98.5 146.5t146.5 98.5t179 36t179 -36t146.5 -98.5t98.5 -146.5t36 -179q0 -96 -36.5 -180t-99 -146t-146.5 -98t-178 -36zM500 -54q90 0 169 34t138 93t93 138t34 169t-34 169t-93 138t-138 93t-169 34
q-91 0 -170 -34.5t-137.5 -93.5t-92.5 -138t-34 -168q0 -90 34 -169t93 -138t138 -93t169 -34zM373 604h27l7 -44h4q23 20 50.5 36t62.5 16q72 0 107 -47t35 -128q0 -45 -12 -80t-33 -59.5t-49 -37t-59 -12.5q-24 0 -54 11t-53 32l1 -65v-121h-34v499zM513 281q51 0 83.5 42
t32.5 113q0 65 -25.5 104.5t-82.5 39.5q-26 0 -55.5 -15t-58.5 -42v-199q27 -23 55.5 -33t50.5 -10z" />
    <glyph glyph-name="cid278" unicode="&#x24e0;" horiz-adv-x="1000" 
d="M500 -80q-95 0 -179 36t-146.5 98.5t-98.5 146.5t-36 179t36 179t98.5 146.5t146.5 98.5t179 36t179 -36t146.5 -98.5t98.5 -146.5t36 -179q0 -96 -36.5 -180t-99 -146t-146.5 -98t-178 -36zM500 -54q90 0 169 34t138 93t93 138t34 169t-34 169t-93 138t-138 93t-169 34
q-91 0 -170 -34.5t-137.5 -93.5t-92.5 -138t-34 -168q0 -90 34 -169t93 -138t138 -93t169 -34zM601 228l2 68q-23 -21 -50.5 -34.5t-59.5 -13.5q-71 0 -110.5 48t-39.5 135q0 42 12.5 76t34 57t49.5 35.5t59 12.5q29 0 54.5 -10.5t47.5 -30.5h4l5 33h27v-499h-35v123z
M496 281q51 0 105 48v206q-27 25 -53.5 35t-50.5 10t-45 -11t-37 -30.5t-25.5 -47t-9.5 -60.5q0 -66 28 -108t88 -42z" />
    <glyph glyph-name="cid279" unicode="&#x24e1;" horiz-adv-x="1000" 
d="M500 -80q-95 0 -179 36t-146.5 98.5t-98.5 146.5t-36 179t36 179t98.5 146.5t146.5 98.5t179 36t179 -36t146.5 -98.5t98.5 -146.5t36 -179q0 -96 -36.5 -180t-99 -146t-146.5 -98t-178 -36zM500 -54q90 0 169 34t138 93t93 138t34 169t-34 169t-93 138t-138 93t-169 34
q-91 0 -170 -34.5t-137.5 -93.5t-92.5 -138t-34 -168q0 -90 34 -169t93 -138t138 -93t169 -34zM428 544h27l6 -61h5q19 32 43 50.5t56 18.5q9 0 19.5 -1.5t17.5 -4.5l-9 -35q-5 2 -14 3.5t-17 1.5q-26 0 -51.5 -18.5t-46.5 -66.5v-234h-36v347z" />
    <glyph glyph-name="cid280" unicode="&#x24e2;" horiz-adv-x="1000" 
d="M500 -80q-95 0 -179 36t-146.5 98.5t-98.5 146.5t-36 179t36 179t98.5 146.5t146.5 98.5t179 36t179 -36t146.5 -98.5t98.5 -146.5t36 -179q0 -96 -36.5 -180t-99 -146t-146.5 -98t-178 -36zM500 -54q90 0 169 34t138 93t93 138t34 169t-34 169t-93 138t-138 93t-169 34
q-91 0 -170 -34.5t-137.5 -93.5t-92.5 -138t-34 -168q0 -90 34 -169t93 -138t138 -93t169 -34zM508 188q-41 0 -74.5 14t-59.5 34l22 27q23 -18 49.5 -31t61.5 -13q38 0 59 19.5t21 47.5q0 15 -7.5 26t-19.5 19.5t-27 14.5l-30 12q-20 7 -40 15.5t-35.5 20.5t-25.5 28.5
t-10 39.5q0 17 7 33t20.5 29t34 20.5t46.5 7.5q34 0 60.5 -10t46.5 -26l-21 -26q-20 15 -38.5 23t-46.5 8q-37 0 -54.5 -18.5t-17.5 -39.5q0 -15 6.5 -25t18 -18t26 -14.5t31.5 -12.5l40 -16t36 -19t26 -27t10 -41q0 -45 -32 -73.5t-83 -28.5z" />
    <glyph glyph-name="cid281" unicode="&#x24e3;" horiz-adv-x="1000" 
d="M500 -80q-95 0 -179 36t-146.5 98.5t-98.5 146.5t-36 179t36 179t98.5 146.5t146.5 98.5t179 36t179 -36t146.5 -98.5t98.5 -146.5t36 -179q0 -96 -36.5 -180t-99 -146t-146.5 -98t-178 -36zM500 -54q90 0 169 34t138 93t93 138t34 169t-34 169t-93 138t-138 93t-169 34
q-91 0 -170 -34.5t-137.5 -93.5t-92.5 -138t-34 -168q0 -90 34 -169t93 -138t138 -93t169 -34zM538 188q-51 0 -69.5 30.5t-18.5 78.5v215h-56v29l55 3l5 102h30v-102h104v-32h-104v-217q0 -34 13.5 -54.5t47.5 -20.5q11 0 22.5 3t22.5 7l9 -29q-13 -5 -30.5 -9t-30.5 -4z
" />
    <glyph glyph-name="cid282" unicode="&#x24e4;" horiz-adv-x="1000" 
d="M500 -80q-95 0 -179 36t-146.5 98.5t-98.5 146.5t-36 179t36 179t98.5 146.5t146.5 98.5t179 36t179 -36t146.5 -98.5t98.5 -146.5t36 -179q0 -96 -36.5 -180t-99 -146t-146.5 -98t-178 -36zM500 -54q90 0 169 34t138 93t93 138t34 169t-34 169t-93 138t-138 93t-169 34
q-91 0 -170 -34.5t-137.5 -93.5t-92.5 -138t-34 -168q0 -90 34 -169t93 -138t138 -93t169 -34zM477 188q-32 0 -53 10t-33.5 27.5t-18 42t-5.5 53.5v223h36v-216q0 -49 15.5 -77.5t65.5 -28.5q26 0 53.5 14t61.5 48v260h35v-347h-29l-5 52h-3q-24 -26 -54.5 -43.5
t-65.5 -17.5z" />
    <glyph glyph-name="cid283" unicode="&#x24e5;" horiz-adv-x="1000" 
d="M500 -80q-95 0 -179 36t-146.5 98.5t-98.5 146.5t-36 179t36 179t98.5 146.5t146.5 98.5t179 36t179 -36t146.5 -98.5t98.5 -146.5t36 -179q0 -96 -36.5 -180t-99 -146t-146.5 -98t-178 -36zM500 -54q90 0 169 34t138 93t93 138t34 169t-34 169t-93 138t-138 93t-169 34
q-91 0 -170 -34.5t-137.5 -93.5t-92.5 -138t-34 -168q0 -90 34 -169t93 -138t138 -93t169 -34zM347 544h37l77 -212l36 -102h5l39 102l76 212h38l-133 -347h-44z" />
    <glyph glyph-name="cid284" unicode="&#x24e6;" horiz-adv-x="1000" 
d="M500 -80q-95 0 -179 36t-146.5 98.5t-98.5 146.5t-36 179t36 179t98.5 146.5t146.5 98.5t179 36t179 -36t146.5 -98.5t98.5 -146.5t36 -179q0 -96 -36.5 -180t-99 -146t-146.5 -98t-178 -36zM500 -54q90 0 169 34t138 93t93 138t34 169t-34 169t-93 138t-138 93t-169 34
q-91 0 -170 -34.5t-137.5 -93.5t-92.5 -138t-34 -168q0 -90 34 -169t93 -138t138 -93t169 -34zM266 544h39l59 -220l25 -95h6l25 95l60 220h41l61 -220l28 -95h3l27 95l58 220h37l-101 -347h-47l-58 208l-27 101h-3l-26 -101l-58 -208h-47z" />
    <glyph glyph-name="cid285" unicode="&#x24e7;" horiz-adv-x="1000" 
d="M478 379l-111 165h41l94 -141h4l35 57l53 84h38l-108 -167l118 -180h-42l-59 90l-40 62h-4l-44 -62l-57 -90h-39zM500 -54q90 0 169 34t138 93t93 138t34 169t-34 169t-93 138t-138 93t-169 34q-91 0 -170 -34.5t-137.5 -93.5t-92.5 -138t-34 -168q0 -90 34 -169t93 -138
t138 -93t169 -34zM500 -80q-95 0 -179 36t-146.5 98.5t-98.5 146.5t-36 179t36 179t98.5 146.5t146.5 98.5t179 36t179 -36t146.5 -98.5t98.5 -146.5t36 -179q0 -96 -36.5 -180t-99 -146t-146.5 -98t-178 -36z" />
    <glyph glyph-name="cid286" unicode="&#x24e8;" horiz-adv-x="1000" 
d="M500 -80q-95 0 -179 36t-146.5 98.5t-98.5 146.5t-36 179t36 179t98.5 146.5t146.5 98.5t179 36t179 -36t146.5 -98.5t98.5 -146.5t36 -179q0 -96 -36.5 -180t-99 -146t-146.5 -98t-178 -36zM500 -54q90 0 169 34t138 93t93 138t34 169t-34 169t-93 138t-138 93t-169 34
q-91 0 -170 -34.5t-137.5 -93.5t-92.5 -138t-34 -168q0 -90 34 -169t93 -138t138 -93t169 -34zM408 103q-24 0 -39 7l10 33l14 -4t13 -2q32 0 54 24.5t35 64.5l8 27l-143 351h36l83 -211q8 -23 19 -49t20 -52h4l18 50.5t17 50.5l70 211h37l-135 -382q-8 -23 -19 -44.5
t-25.5 -38t-33.5 -26.5t-43 -10z" />
    <glyph glyph-name="cid287" unicode="&#x24e9;" horiz-adv-x="1000" 
d="M500 -80q-95 0 -179 36t-146.5 98.5t-98.5 146.5t-36 179t36 179t98.5 146.5t146.5 98.5t179 36t179 -36t146.5 -98.5t98.5 -146.5t36 -179q0 -96 -36.5 -180t-99 -146t-146.5 -98t-178 -36zM500 -54q90 0 169 34t138 93t93 138t34 169t-34 169t-93 138t-138 93t-169 34
q-91 0 -170 -34.5t-137.5 -93.5t-92.5 -138t-34 -168q0 -90 34 -169t93 -138t138 -93t169 -34zM371 217l206 295h-183v32h231v-23l-207 -293h212v-31h-259v20z" />
    <glyph glyph-name="cid288" unicode="&#x2592;" horiz-adv-x="1000" 
d="M750 880h50l200 -200v-50zM500 880h50l450 -450v-50zM250 880h50l700 -700v-50zM0 880h50l950 -950v-50zM0 630v50l800 -800h-50zM0 380v50l550 -550h-50zM0 130v50l300 -300h-50zM0 -70l50 -50h-50v50z" />
    <glyph glyph-name="cid289" unicode="&#x25a0;" horiz-adv-x="1000" 
d="M900 780v-800h-800v800h800z" />
    <glyph glyph-name="cid290" unicode="&#x25a1;" horiz-adv-x="1000" 
d="M900 780v-800h-800v800h800zM130 10h740v740h-740v-740z" />
    <glyph glyph-name="cid291" unicode="&#x25a3;" horiz-adv-x="1000" 
d="M900 780v-800h-800v800h800zM130 10h740v740h-740v-740zM350 530h300v-300h-300v300z" />
    <glyph glyph-name="cid292" unicode="&#x25a4;" horiz-adv-x="1000" 
d="M870 10v162h-740v-162h740zM130 365v-163h740v163h-740zM870 395v163h-740v-163h740zM130 750v-162h740v162h-740zM900 780v-800h-800v800h800z" />
    <glyph glyph-name="cid293" unicode="&#x25a5;" horiz-adv-x="1000" 
d="M870 750h-162v-740h162v740zM130 10h162v740h-162v-740zM485 750h-163v-740h163v740zM515 10h163v740h-163v-740zM900 780v-800h-800v800h800z" />
    <glyph glyph-name="cid294" unicode="&#x25a6;" horiz-adv-x="1000" 
d="M870 10v162h-162v-162h162zM130 10h162v162h-162v-162zM130 750v-162h162v162h-162zM870 395v163h-162v-163h162zM708 202h162v163h-162v-163zM678 202v163h-163v-163h163zM515 10h163v162h-163v-162zM322 172v-162h163v162h-163zM322 202h163v163h-163v-163zM130 365
v-163h162v163h-162zM292 558h-162v-163h162v163zM322 558v-163h163v163h-163zM485 750h-163v-162h163v162zM515 558v-163h163v163h-163zM678 588v162h-163v-162h163zM870 750h-162v-162h162v162zM900 780v-800h-800v800h800z" />
    <glyph glyph-name="cid295" unicode="&#x25a7;" horiz-adv-x="1000" 
d="M130 10h150l-150 150v-150zM870 750h-150l150 -150v150zM490 750h-148l528 -528v148zM870 558l-192 192h-146l338 -338v146zM870 31v149l-570 570h-149zM700 10h149l-719 719v-149zM510 10h148l-528 528v-148zM130 202l192 -192h146l-338 338v-146zM900 780v-800h-800
v800h800z" />
    <glyph glyph-name="cid296" unicode="&#x25a8;" horiz-adv-x="1000" 
d="M870 10v149l-148 -149h148zM130 750v-150l150 150h-150zM130 180v-150l720 720h-149zM468 750h-146l-192 -192v-146zM130 370v-148l529 528h-148zM870 579v149l-717 -718h149zM534 10h146l190 191v146zM870 389v148l-526 -527h148zM900 780v-800h-800v800h800z" />
    <glyph glyph-name="cid297" unicode="&#x25a9;" horiz-adv-x="1000" 
d="M870 600v128l-64 -64zM870 31v128l-64 -64zM722 10h127l-64 64zM534 10h124l-62 62zM344 10h124l-62 62zM153 10h127l-64 64zM130 160v-130l65 65zM130 729v-129l65 65zM280 750h-129l65 -64zM468 750h-126l63 -63zM659 750h-127l63 -63zM785 685l65 65h-130zM764 664
l-75 75l-73 -73l75 -75zM860 568l-75 75l-73 -73l75 -75zM870 412v125l-62 -63zM870 222v125l-62 -63zM785 116l75 74l-73 73l-75 -74zM617 93l73 -73l74 75l-73 73zM596 114l74 75l-74 74l-74 -75zM427 93l74 -74l74 74l-74 74zM406 114l74 74l-75 75l-74 -74zM237 95
l75 -75l73 73l-75 75zM141 191l75 -75l73 73l-75 75zM130 348v-126l63 63zM130 538v-126l63 63zM216 644l-75 -75l73 -73l75 75zM384 666l-73 73l-74 -74l73 -73zM405 645l-74 -75l74 -74l74 75zM574 666l-74 74l-74 -74l74 -74zM670 570l-75 75l-74 -74l75 -75zM766 474
l-75 75l-74 -74l75 -75zM787 305l74 74l-74 74l-74 -74zM617 284l74 -74l75 74l-74 74zM596 305l75 74l-75 75l-74 -75zM426 284l75 -75l74 75l-74 74zM501 401l74 74l-75 75l-74 -75zM405 305l75 75l-75 74l-75 -74zM235 285l75 -75l74 74l-75 75zM309 401l75 74l-74 74
l-75 -74zM214 454l-74 -74l74 -74l74 74zM900 780v-800h-800v800h800z" />
    <glyph glyph-name="cid298" unicode="&#x25b2;" horiz-adv-x="1000" 
d="M970 12h-940l470 814z" />
    <glyph glyph-name="cid299" unicode="&#x25b3;" horiz-adv-x="1000" 
d="M970 12h-940l470 814zM82 42h836l-418 724z" />
    <glyph glyph-name="cid300" unicode="&#x25b6;" horiz-adv-x="1000" 
d="M122 -93v940l814 -470z" />
    <glyph glyph-name="cid301" unicode="&#x25b7;" horiz-adv-x="1000" 
d="M122 -93v940l814 -470zM152 795v-836l724 418z" />
    <glyph glyph-name="cid302" unicode="&#x25bc;" horiz-adv-x="1000" 
d="M970 748l-470 -814l-470 814h940z" />
    <glyph glyph-name="cid303" unicode="&#x25bd;" horiz-adv-x="1000" 
d="M970 748l-470 -814l-470 814h940zM82 718l418 -724l418 724h-836z" />
    <glyph glyph-name="cid304" unicode="&#x25c0;" horiz-adv-x="1000" 
d="M878 -93l-814 470l814 470v-940z" />
    <glyph glyph-name="cid305" unicode="&#x25c1;" horiz-adv-x="1000" 
d="M878 -93l-814 470l814 470v-940zM848 795l-724 -418l724 -418v836z" />
    <glyph glyph-name="cid306" unicode="&#x25c6;" horiz-adv-x="1000" 
d="M988 380l-488 -488l-488 488l488 488z" />
    <glyph glyph-name="cid307" unicode="&#x25c7;" horiz-adv-x="1000" 
d="M988 380l-488 -488l-488 488l488 488zM55 380l445 -445l445 445l-445 445z" />
    <glyph glyph-name="cid308" unicode="&#x25c8;" horiz-adv-x="1000" 
d="M988 380l-488 -488l-488 488l488 488zM55 380l445 -445l445 445l-445 445zM500 726l346 -346l-346 -346l-346 346z" />
    <glyph glyph-name="cid309" unicode="&#x25cb;" horiz-adv-x="1000" 
d="M500 -70q-93 0 -175 35.5t-143 96.5t-96.5 143t-35.5 175t35.5 175t96.5 143t143 96.5t175 35.5t175 -35.5t143 -96.5t96.5 -143t35.5 -175t-35.5 -175t-96.5 -143t-143 -96.5t-175 -35.5zM80 380q0 -87 33 -163.5t90 -133.5t133.5 -90t163.5 -33t163.5 33t133.5 90
t90 133.5t33 163.5t-33 163.5t-90 133.5t-133.5 90t-163.5 33t-163.5 -33t-133.5 -90t-90 -133.5t-33 -163.5z" />
    <glyph glyph-name="cid310" unicode="&#x25ce;" horiz-adv-x="1000" 
d="M50 380q0 93 35.5 175t96.5 143t143 96.5t175 35.5t175 -35.5t143 -96.5t96.5 -143t35.5 -175t-35.5 -175t-96.5 -143t-143 -96.5t-175 -35.5t-175 35.5t-143 96.5t-96.5 143t-35.5 175zM920 380q0 87 -33 163.5t-90 133.5t-133.5 90t-163.5 33t-163.5 -33t-133.5 -90
t-90 -133.5t-33 -163.5t33 -163.5t90 -133.5t133.5 -90t163.5 -33t163.5 33t133.5 90t90 133.5t33 163.5zM202 380q0 62 23.5 116t64 94.5t94.5 64t116 23.5t116 -23.5t94.5 -64t64 -94.5t23.5 -116t-23.5 -116t-64 -94.5t-94.5 -64t-116 -23.5t-116 23.5t-94.5 64t-64 94.5
t-23.5 116zM773 380q0 57 -21.5 106.5t-58.5 86.5t-86.5 58.5t-106.5 21.5t-106.5 -21.5t-86.5 -58.5t-58.5 -86.5t-21.5 -106.5t21.5 -106.5t58.5 -86.5t86.5 -58.5t106.5 -21.5t106.5 21.5t86.5 58.5t58.5 86.5t21.5 106.5z" />
    <glyph glyph-name="cid311" unicode="&#x25cf;" horiz-adv-x="1000" 
d="M500 -70q-93 0 -175 35.5t-143 96.5t-96.5 143t-35.5 175t35.5 175t96.5 143t143 96.5t175 35.5t175 -35.5t143 -96.5t96.5 -143t35.5 -175t-35.5 -175t-96.5 -143t-143 -96.5t-175 -35.5z" />
    <glyph glyph-name="cid312" unicode="&#x25d0;" horiz-adv-x="1000" 
d="M940 380q0 -91 -34.5 -171t-94.5 -140t-140 -94.5t-171 -34.5t-171 34.5t-140 94.5t-94.5 140t-34.5 171t34.5 171t94.5 140t140 94.5t171 34.5t171 -34.5t140 -94.5t94.5 -140t34.5 -171zM500 -34q86 0 161.5 32.5t131.5 88.5t88.5 131.5t32.5 161.5t-32.5 161.5
t-88.5 131.5t-131.5 88.5t-161.5 32.5v-828z" />
    <glyph glyph-name="cid313" unicode="&#x25d1;" horiz-adv-x="1000" 
d="M940 380q0 -91 -34.5 -171t-94.5 -140t-140 -94.5t-171 -34.5t-171 34.5t-140 94.5t-94.5 140t-34.5 171t34.5 171t94.5 140t140 94.5t171 34.5t171 -34.5t140 -94.5t94.5 -140t34.5 -171zM500 794q-86 0 -161.5 -32.5t-131.5 -88.5t-88.5 -131.5t-32.5 -161.5
t32.5 -161.5t88.5 -131.5t131.5 -88.5t161.5 -32.5v828z" />
    <glyph glyph-name="cid314" unicode="&#x2605;" horiz-adv-x="1000" 
d="M962 484v-2l-284 -206l111 -338h-2l-287 208l-287 -208h-2l111 338l-284 206v2h351l110 337h2l110 -337h351z" />
    <glyph glyph-name="cid315" unicode="&#x2606;" horiz-adv-x="1000" 
d="M496 821h8l107 -337h351v-8l-284 -200l113 -335l-6 -5l-285 210l-285 -210l-6 5l113 335l-284 200v8h351zM193 454l-81 4v-2l74 -48l172 -120l-63 -187l-35 -95l2 -1l82 63l156 115l156 -115l82 -63l2 1l-35 95l-63 187l172 120l74 48v2l-82 -4h-217l-65 204l-23 82h-2
l-23 -82l-65 -204h-218z" />
    <glyph glyph-name="cid316" unicode="&#x260e;" horiz-adv-x="1000" 
d="M222 570l41 -106q5 -12 3.5 -23t-16.5 -14l-182 -31q-28 -3 -28 28q0 16 1.5 41t7.5 50.5t16.5 48.5t28.5 37q31 24 69 43t86 31.5t109.5 19t141.5 6.5q79 0 141 -6.5t110 -19t85.5 -31.5t69.5 -43q18 -14 28.5 -37t16.5 -48.5t7.5 -50.5t1.5 -41q0 -31 -28 -28l-182 31
q-15 3 -16.5 14t3.5 23l41 106h-107v-64q0 -26 8 -49.5t23.5 -46.5t37.5 -47t50 -51q52 -51 72 -111.5t20 -126.5q0 -24 -10 -35.5t-36 -11.5h-672q-26 0 -36 11.5t-10 35.5q0 66 20 126.5t72 111.5q28 27 50 51t37.5 47t23.5 46.5t8 49.5v64h-107zM415 570v-96h170v96h-170
zM332 250q0 -35 13 -65.5t36 -53.5t53.5 -36t65.5 -13t65.5 13t53.5 36t36 53.5t13 65.5t-13 65.5t-36 53.5t-53.5 36t-65.5 13t-65.5 -13t-53.5 -36t-36 -53.5t-13 -65.5z" />
    <glyph glyph-name="cid317" unicode="&#x260f;" horiz-adv-x="1000" 
d="M682 250q0 -37 -14.5 -70t-39.5 -58t-58 -39.5t-70 -14.5t-70 14.5t-58 39.5t-39.5 58t-14.5 70t14.5 70t39.5 58t58 39.5t70 14.5t70 -14.5t58 -39.5t39.5 -58t14.5 -70zM346 250q0 -32 12 -60t33 -49t49 -33t60 -12t60 12t49 33t33 49t12 60t-12 60t-33 49t-49 33
t-60 12t-60 -12t-49 -33t-33 -49t-12 -60zM401 584h198v-124h-198v124zM429 556v-68h142v68h-142zM202 584h141v-78q0 -28 -9 -53.5t-25 -50t-38.5 -49t-50.5 -51.5q-51 -48 -69.5 -105.5t-18.5 -122.5q0 -19 6.5 -26t25.5 -7h672q19 0 25.5 7t6.5 26q0 65 -18.5 122.5
t-69.5 105.5q-56 54 -89.5 101t-33.5 103v78h141l-48 -125v-1q-7 -15 2 -17l182 -31q7 -1 9.5 2t2.5 12q0 16 -1.5 39.5t-7 47.5t-15 45.5t-25.5 33.5q-31 24 -67 42t-83.5 30t-107.5 18.5t-139 6.5t-139 -6.5t-107.5 -18.5t-83.5 -30t-67 -42q-16 -12 -25.5 -33.5
t-15 -45.5t-7 -47.5t-1.5 -39.5q0 -9 2.5 -12t9.5 -2l181 31q10 1 3 17v1zM242 556l34 -87v1q3 -7 4 -16t-1 -17t-8.5 -14.5t-18.5 -9.5l-182 -31q-19 -2 -31.5 10t-12.5 32q0 16 2 42t8 53t17.5 52.5t31.5 40.5q32 25 71 44.5t88.5 32.5t112.5 19.5t143 6.5t143 -6.5
t112.5 -19.5t88.5 -32.5t71 -44.5q20 -15 31.5 -40.5t17.5 -52.5t8 -53t2 -42q0 -20 -12.5 -32t-31.5 -10l-183 31q-12 3 -18 9.5t-8 14.5t-1 17t4 16v-1l34 87h-73v-50q0 -24 7.5 -46t22 -43.5t36 -44.5t49.5 -50q54 -53 75 -116.5t21 -131.5q0 -28 -14.5 -44.5
t-45.5 -16.5h-672q-31 0 -45.5 16.5t-14.5 44.5q0 68 21 131.5t75 116.5q28 27 49.5 50t36 44.5t22 43.5t7.5 46v50h-73z" />
    <glyph glyph-name="cid318" unicode="&#x261c;" horiz-adv-x="1000" 
d="M269 454q13 0 23 1t18 3q10 2 20 7t17 13q15 16 36 32t35 29q1 1 1 1.5t1 1.5q2 8 0 16q0 3 -3 3l-85.5 -6.5t-86 -7.5t-75 -8t-52.5 -8q-24 -5 -36.5 -10.5t-18.5 -11.5t-7 -11.5t-1 -8.5q0 -12 10.5 -22.5t49.5 -13.5q11 -1 29.5 -1t40 0.5l43.5 1t41 0.5zM301 324
q20 -4 38.5 -4t26.5 2q26 3 49.5 8t45.5 14q14 6 26.5 12.5t20.5 14.5t9.5 15.5t-0.5 15.5q-3 10 -15 7l-33 -9t-36 -10q-18 -4 -33 -5.5t-29 1.5q-17 3 -27.5 11t-18.5 26q-2 5 -7 6t-9 -1q-28 -10 -47 -29q-11 -10 -10.5 -24.5t5.5 -25.5q5 -12 18.5 -17.5t25.5 -7.5z
M392 232q12 0 27 2.5t31.5 8t33 13t30.5 16.5q23 14 33.5 25.5t10.5 25.5t-9 25q-4 3 -9.5 4t-11.5 -3l-29.5 -15t-29.5 -14q-28 -12 -61.5 -19t-71.5 -7h-16t-17 2q-5 0 -5 -5q2 -13 7.5 -26t19.5 -21t31 -10t36 -2zM427 151q31 0 70.5 16t64.5 43q11 11 11.5 22t-1.5 16
q-5 14 -15 13.5t-19 -6.5q-16 -11 -35.5 -20t-39.5 -15.5t-39 -10.5t-32 -4q-9 0 -18.5 0.5t-17.5 1.5q-4 0 -4 -3q6 -27 26 -40q14 -9 28 -11t21 -2zM874 475h-6.5t-6.5 2q-44 19 -88 35t-83 27t-71.5 17.5t-54.5 6.5q-38 0 -61.5 -6.5t-49.5 -23.5l-17.5 -12.5
l-22.5 -16.5t-23 -19t-20 -20q-14 -15 -17.5 -24t-0.5 -14q7 -14 27 -16.5t46 5.5q21 6 44 13.5l42.5 13.5t33.5 11t18 7t9 1t7 -5q8 -11 28 -26.5t52 -32.5t66 -26t64 -9q5 0 11 -3t6 -8t-5 -9.5t-12 -6.5q-28 -8 -56 -9t-66 3q-31 3 -44.5 -15.5t-13.5 -41.5t-5 -42.5
t-15 -32.5q-15 -18 -35.5 -30.5t-40.5 -22.5q-2 0 -1.5 -1.5t1.5 -1.5q26 -2 54.5 -1t58.5 6q55 9 109.5 26.5t114.5 45.5q3 2 6.5 2h6.5l63 -8q5 0 8.5 2.5t3.5 7.5v251q0 8 -10 8zM871 192q-11 1 -21 -3q-112 -52 -220 -68q-23 -4 -45 -5.5t-42 -1.5q-12 0 -26 1
t-27.5 2.5t-24 3.5t-16.5 4h-3q-5 0 -9.5 -0.5t-9.5 -0.5q-11 0 -28.5 3t-35.5 15q-36 23 -39 70q0 3 -2 3q-3 2 -5.5 2.5t-5.5 2.5q-38 23 -41 79q0 6 -4 7q-24 12 -33 31q-11 20 -8 43t18 38q2 2 4 3q2 2 0.5 3.5t-3.5 1.5q-18 0 -37 -0.5t-36.5 -0.5h-32.5t-25 1
q-50 4 -67.5 22.5t-17.5 40.5q0 18 8 30t20.5 19.5t27.5 12t29 7.5q19 3 51 7t71.5 8t83 7.5l84 6.5t75 4.5t56.5 1.5q61 0 146.5 -23t186.5 -66q3 -1 9 -1l74 9q8 1 11.5 -3.5t3.5 -10.5v-301q0 -3 -2 -7q-4 -7 -13 -7z" />
    <glyph glyph-name="cid319" unicode="&#x261e;" horiz-adv-x="1000" 
d="M464 593q22 0 56.5 -1.5t75 -4.5l84 -6.5t83 -7.5t71.5 -8t51 -7q14 -3 29 -7.5t27.5 -12t20.5 -19.5t8 -30q0 -22 -17.5 -40.5t-67.5 -22.5q-10 -1 -25 -1h-32.5t-36.5 0.5t-37 0.5q-2 0 -3.5 -1.5t0.5 -3.5q2 -1 4 -3q15 -15 18 -38t-8 -43q-9 -19 -33 -31q-4 -1 -4 -7
q-3 -56 -41 -79q-3 -2 -5.5 -2.5t-5.5 -2.5q-2 0 -2 -3q-3 -47 -39 -70q-18 -12 -35.5 -15t-28.5 -3q-5 0 -9.5 0.5t-9.5 0.5h-3q-6 -2 -16.5 -4t-24 -3.5t-27.5 -2.5t-26 -1q-20 0 -42 1.5t-45 5.5q-108 16 -220 68q-11 4 -21 3l-79 -9q-9 0 -13 7q-2 4 -2 7v301
q0 6 3.5 10.5t11.5 3.5l74 -9q6 0 9 1q101 43 186.5 66t146.5 23zM148 219q60 -28 114.5 -45.5t109.5 -26.5q30 -5 58.5 -6t54.5 1q1 0 1.5 1.5t-1.5 1.5q-20 10 -40.5 22.5t-35.5 30.5q-10 13 -15 32.5t-5 42.5t-13.5 41.5t-44.5 15.5q-38 -4 -66 -3t-56 9q-7 2 -12 6.5
t-5 9.5t6 8t11 3q30 0 64 9t66 26t52 32.5t28 26.5q2 4 7 5t9 -1t18 -7t33.5 -11l42.5 -13.5t44 -13.5q26 -8 46 -5.5t27 16.5q3 5 -0.5 14t-17.5 24q-9 10 -20 20t-23 19l-22.5 16.5l-17.5 12.5q-26 17 -49.5 23.5t-61.5 6.5q-22 0 -54.5 -6.5t-71.5 -17.5t-83 -27t-88 -35
q-3 -2 -6.5 -2h-6.5l-54 7q-10 0 -10 -8v-251q0 -5 3.5 -7.5t8.5 -2.5l63 8h6.5t6.5 -2zM571 151q7 0 21 2t28 11q20 13 26 40q0 3 -4 3q-8 -1 -17.5 -1.5t-18.5 -0.5q-14 0 -32.5 4t-38.5 10.5t-39.5 15.5t-35.5 20q-9 6 -19 6.5t-15 -13.5q-2 -5 -1.5 -16t11.5 -22
q25 -27 64.5 -43t70.5 -16zM606 232q19 0 36 2t31 10t19.5 21t7.5 26q0 5 -5 5q-9 -2 -17 -2h-16q-38 0 -71.5 7t-61.5 19q-14 6 -29.5 14l-29.5 15q-6 4 -11.5 3t-9.5 -4q-9 -11 -9 -25t10.5 -25.5t33.5 -25.5q14 -9 30.5 -16.5t33 -13t31.5 -8t27 -2.5zM697 324
q12 2 25.5 7.5t18.5 17.5q5 11 5.5 25.5t-10.5 24.5q-19 19 -47 29q-4 2 -9 1t-7 -6q-8 -18 -18.5 -26t-27.5 -11q-14 -3 -29 -1.5t-33 5.5q-17 5 -36 10l-33 9q-12 3 -15 -7q-2 -8 -0.5 -15.5t9.5 -15.5t20.5 -14.5t26.5 -12.5q22 -9 45.5 -14t49.5 -8q8 -2 26.5 -2t38.5 4
zM729 454q19 0 41 -0.5l43.5 -1t40 -0.5t29.5 1q39 3 49.5 13.5t10.5 22.5q0 3 -1 8.5t-7 11.5t-18.5 11.5t-36.5 10.5q-19 4 -52.5 8t-75 8t-86 7.5l-85.5 6.5q-3 0 -3 -3q-2 -8 0 -16q1 -1 1 -1.5t1 -1.5q14 -13 35 -29t36 -32q7 -8 17 -13t20 -7q8 -2 18 -3t23 -1z" />
    <glyph glyph-name="cid320" unicode="&#x2640;" horiz-adv-x="1000" 
d="M300 620q0 42 15.5 78.5t42.5 63.5t63.5 42.5t78.5 15.5t78.5 -15.5t63.5 -42.5t42.5 -63.5t15.5 -78.5q0 -39 -14 -73.5t-38 -61t-57.5 -44t-72.5 -21.5v-133h298v-36h-298v-311h-36v311h-298v36h298v133q-39 4 -72.5 21.5t-57.5 44t-38 61t-14 73.5zM664 620
q0 34 -13 64t-35 52t-52 35t-64 13t-64 -13t-52 -35t-35 -52t-13 -64t13 -64t35 -52t52 -35t64 -13t64 13t52 35t35 52t13 64z" />
    <glyph glyph-name="cid321" unicode="&#x2642;" horiz-adv-x="1000" 
d="M521 201q0 -41 -16 -77.5t-43 -63.5t-63.5 -43t-77.5 -16t-77.5 16t-63.5 43t-43 63.5t-16 77.5t16 77.5t43 63.5t63.5 43t77.5 16q71 0 128 -46l337 336h-299v36h360v-360h-36v299l-337 -337q23 -25 35 -59t12 -69zM157 201q0 -34 13 -64t35 -52t52 -35t64 -13t64 13
t52 35t35 52t13 64t-13 64t-35 52t-52 35t-64 13t-64 -13t-52 -35t-35 -52t-13 -64z" />
    <glyph glyph-name="cid322" unicode="&#x2660;" horiz-adv-x="1000" 
d="M727 599l60.5 -58.5t62 -71.5t48 -85t19.5 -100q0 -44 -14.5 -83.5t-40.5 -69.5t-63 -47.5t-82 -17.5q-57 0 -101.5 27t-63.5 70l-7.5 16.5t-8.5 5.5q-5 0 -5.5 -8t-0.5 -10q5 -78 31 -124.5t68 -81.5q8 -8 5.5 -14t-5.5 -6h-258q-3 0 -6 6t6 14q42 35 68 81.5t31 124.5
q0 2 -0.5 10t-5.5 8q-6 0 -8.5 -5.5l-7.5 -16.5q-19 -43 -63.5 -70t-101.5 -27q-45 0 -81.5 17.5t-63 47.5t-41 69.5t-14.5 83.5q0 54 19.5 100t48 85t62 71.5l60.5 58.5l67.5 67.5l65 69.5t54.5 64.5t38 51.5q2 4 4 0q13 -21 37.5 -51.5t55 -64.5l65 -69.5z" />
    <glyph glyph-name="cid323" unicode="&#x2661;" horiz-adv-x="1000" 
d="M503 642q15 41 38 70.5t50.5 48t58.5 27t63 8.5q43 0 81 -18.5t66.5 -51t45 -76.5t16.5 -95q0 -56 -20 -103.5t-49 -88t-63 -74l-62 -60.5q-34 -33 -68.5 -70t-64.5 -73t-54 -68.5t-38 -54.5q-2 -4 -4 0q-14 22 -38 54.5t-54 68.5t-64.5 73t-68.5 70l-62 60.5t-63 74
t-49 88.5t-20 103q0 51 16.5 95t45 76.5t66.5 51t81 18.5q31 0 62 -8.5t58.5 -27t50.5 -48t39 -70.5q2 -6 4 0zM892 555q0 45 -14 83.5t-38.5 67t-57 45t-69.5 16.5q-69 0 -115 -38t-75 -115q-8 -22 -22 -22t-22 22q-29 77 -75 115t-115 38q-37 0 -69.5 -16.5t-57 -45
t-38.5 -67t-14 -83.5q0 -48 19 -92t46.5 -83t59.5 -71.5l59 -58.5q33 -31 64 -63.5t58 -64t48.5 -59.5t34.5 -49q2 -4 4 0q13 21 34.5 49t48.5 59.5t58 64t64 63.5l59 58.5t59.5 71t46.5 82.5t19 93z" />
    <glyph glyph-name="cid324" unicode="&#x2663;" horiz-adv-x="1000" 
d="M464 185q-6 0 -7.5 -5.5t-8.5 -16.5q-28 -44 -75.5 -74t-107.5 -30q-42 0 -79 15t-64 42t-42.5 64t-15.5 82q0 43 15 80t42 64.5t64 43.5t81 16q23 0 46 -7t40 -16q1 -1 3 -1t4 3q1 3 0 6q-1 2 -3 3q-26 25 -44 62t-18 82q0 43 16 80.5t44 66t65.5 45t80.5 16.5
t80.5 -16.5t65.5 -44.5t44 -65.5t16 -80.5q0 -45 -18 -82.5t-44 -62.5q-2 -1 -3 -3q-2 -4 0 -6q1 -3 4 -3q1 0 3 1q17 9 40.5 16t44.5 7q45 0 82 -16t64 -43.5t42 -64.5t15 -80q0 -45 -15.5 -82t-42.5 -64t-64 -42t-79 -15q-57 0 -104.5 28t-78.5 76q-7 11 -8.5 16.5
t-7.5 5.5q-5 0 -5.5 -8t-0.5 -10q3 -39 10.5 -69.5t20.5 -55t30 -44t38 -37.5q9 -8 6 -14t-6 -6h-257q-4 0 -6.5 6t5.5 14q42 35 68 81.5t31 124.5q0 2 -0.5 10t-5.5 8z" />
    <glyph glyph-name="cid325" unicode="&#x2664;" horiz-adv-x="1000" 
d="M364 -59q-3 0 -5.5 6t5.5 14q40 35 64 78.5t28 103.5q1 11 1 19.5t-1 8.5t-5 -8.5t-12 -19.5q-25 -36 -65 -56.5t-91 -20.5q-45 0 -82 17.5t-63 47.5t-40.5 69.5t-14.5 83.5q0 54 19.5 100t48 85t62 71.5l60.5 58.5l67.5 67.5l65 69.5t54.5 64.5t38 51.5q2 4 4 0
q13 -21 37.5 -51.5t55 -64.5l65 -69.5l67.5 -67.5l60.5 -58.5t62 -71.5t48 -85t19.5 -100q0 -44 -14.5 -83.5t-41 -69.5t-63 -47.5t-81.5 -17.5q-51 0 -91 20.5t-65 56.5q-8 11 -12 19.5t-5 8.5t-1 -8.5t1 -19.5q4 -60 28 -103.5t64 -78.5q9 -8 6 -14t-6 -6h-272zM576 -29
q3 0 -0.5 5.5t-9.5 13.5q-21 29 -36 67.5t-15 103.5q0 26 6 41t18 15q10 0 16.5 -11.5t23.5 -35.5q49 -74 138 -74q39 0 70.5 15.5t53 41.5t33.5 60t12 72q0 49 -18.5 91.5t-45.5 78.5t-58 66l-56 54l-62 61.5l-59 62t-50 57t-35 46.5q-2 4 -4 0q-13 -20 -35.5 -46.5
l-50 -57t-59 -62l-62.5 -61.5l-56 -54t-58 -66t-45.5 -78.5t-18.5 -91.5q0 -38 12 -72t34 -60t53.5 -41.5t70.5 -15.5q89 0 138 74q17 24 23.5 35.5t16.5 11.5q12 0 18 -15t6 -41q0 -65 -15 -103.5t-36 -67.5q-6 -8 -9.5 -13.5t-0.5 -5.5h152z" />
    <glyph glyph-name="cid326" unicode="&#x2665;" horiz-adv-x="1000" 
d="M505 636q22 83 79 121.5t128 38.5q43 0 81 -18.5t66.5 -51t45 -76.5t16.5 -95q0 -56 -20 -103.5t-49 -88t-63 -74l-62 -60.5q-34 -33 -68.5 -70t-64.5 -73t-54 -68.5t-38 -54.5q-2 -4 -4 0q-14 22 -38 54.5t-54 68.5t-64.5 73t-68.5 70l-62 60.5t-63 74t-49 88.5t-20 103
q0 51 16.5 95t45 76.5t66.5 51t81 18.5q35 0 67.5 -9.5t60 -29t48 -49.5t31.5 -72q2 -7 5 -7t5 7z" />
    <glyph glyph-name="cid327" unicode="&#x2667;" horiz-adv-x="1000" 
d="M345 420q-16 6 -35.5 11.5t-46.5 5.5q-36 0 -67 -13.5t-53.5 -37t-35.5 -55.5t-13 -69q0 -38 13 -69.5t36.5 -54.5t54.5 -36t67 -13q51 0 93 24.5t72 72.5l15 23t16 9q12 0 18 -15.5t6 -41.5q0 -65 -15.5 -104t-38.5 -71q-11 -15 -7 -15h152q4 0 -7 15q-23 32 -38.5 71
t-15.5 104q0 26 6 41.5t18 15.5q10 0 18 -12l25 -37q26 -37 64 -58.5t89 -21.5q36 0 67 13t54.5 36t36.5 54.5t13 69.5q0 37 -13 69t-35.5 55.5t-53.5 37t-67 13.5q-27 0 -46.5 -6t-35.5 -12q-35 -13 -45 2q-11 16 15 45q21 23 35.5 57t14.5 76q0 36 -14 68t-37.5 56.5
t-55.5 38.5t-68 14t-68 -14t-56 -38.5t-37.5 -56.5t-13.5 -68q0 -42 15 -76t35 -57q26 -29 15 -45q-10 -14 -45 -1zM64 262q0 43 15 80t41.5 65t63.5 44t82 16q21 0 46 -6t40 -14q2 -1 2.5 -0.5t-1.5 2.5q-25 25 -42 65t-17 85q0 43 16 80.5t44 65.5t65.5 44.5t80.5 16.5
t80.5 -16.5t65.5 -44.5t44 -65.5t16 -80.5q0 -45 -16.5 -84.5t-42.5 -65.5q-2 -2 -1.5 -2.5t2.5 0.5q15 8 40 14t46 6q45 0 82 -16t63.5 -44t41.5 -65t15 -80q0 -45 -15.5 -82t-42.5 -64t-64 -42t-79 -15q-59 0 -104 26t-70 61q-8 11 -11 18t-4 7t-2 -8.5t0 -19.5
q4 -60 28.5 -103.5t63.5 -78.5q8 -8 5.5 -14t-5.5 -6h-272q-3 0 -6 6t6 14q39 35 63.5 78.5t28.5 103.5q1 11 0 19.5t-2 8.5t-4 -7t-11 -18q-26 -37 -70.5 -62t-103.5 -25q-42 0 -79 15t-64 42t-42.5 64t-15.5 82z" />
    <glyph glyph-name="cid328" unicode="&#x2668;" horiz-adv-x="1000" 
d="M470 457q-20 41 -32 79.5t-12 67.5q0 58 21 105.5t82 87.5l20 -15q-38 -32 -55.5 -69t-17.5 -70q0 -32 12 -70t32 -80t32 -80t12 -68q0 -58 -21 -105t-82 -87l-20 14q38 32 55.5 69.5t17.5 70.5q0 32 -12 70t-32 80zM296 459q-19 36 -30 70.5t-11 60.5q0 25 4.5 47.5
t15.5 43.5t30 39.5t48 36.5l17 -17q-35 -27 -51.5 -57t-16.5 -59q0 -28 13 -62t32 -71q20 -36 30.5 -70t10.5 -60q0 -27 -4 -50t-15 -43t-29.5 -38.5t-48.5 -36.5l-17 17q35 27 51 57.5t16 58.5t-12.5 62.5t-32.5 70.5zM646 459q-19 36 -30 70.5t-11 60.5q0 25 4.5 47.5
t15.5 43.5t30 39.5t48 36.5l17 -16q-35 -27 -51.5 -57.5t-16.5 -59.5q0 -27 13 -61.5t32 -71.5q20 -36 30.5 -70t10.5 -60q0 -27 -4 -50t-15 -43t-29.5 -38.5t-48.5 -36.5l-17 17q35 27 51 58t16 58q0 28 -12.5 62.5t-32.5 70.5zM918 235q0 -51 -31 -95.5t-86.5 -78
t-132 -52.5t-168.5 -19t-168.5 19t-132 52.5t-86.5 78t-31 95.5q0 63 41 106t108 60l13 -23q-48 -16 -78 -47t-30 -79q0 -43 28 -79t77 -62.5t115.5 -41.5t143.5 -15t143.5 15t115.5 41.5t77 62.5t28 79q0 48 -30 79t-78 47l13 23q67 -17 108 -60t41 -106z" />
    <glyph glyph-name="cid329" unicode="&#x2669;" horiz-adv-x="1000" 
d="M558 840v-750q0 -39 -15 -70.5t-40.5 -53.5t-58.5 -34t-69 -12q-17 0 -34 4.5t-30 14t-21 23.5t-8 32q0 27 15.5 51.5t40 44t55.5 31t62 11.5q17 0 34.5 -3.5t28.5 -9.5v721h40z" />
    <glyph glyph-name="cid330" unicode="&#x266a;" horiz-adv-x="1000" 
d="M511 840q0 -36 9.5 -67.5t25.5 -58.5t37 -50.5t44 -43.5t46 -44.5t41.5 -53t30 -60.5t11.5 -67q0 -63 -24 -124.5t-60 -119.5h-26l19 41t20.5 51.5t16.5 57.5t7 60q0 43 -14 81.5t-38.5 69t-58 51t-72.5 29.5v-502q0 -39 -15 -70.5t-40.5 -53.5t-58.5 -34t-69 -12
q-17 0 -34 4.5t-30 14t-21 23.5t-8 32q0 27 15.5 51.5t40 44t55.5 31t62 11.5q17 0 34.5 -3.5t28.5 -9.5v721h25z" />
    <glyph glyph-name="cid331" unicode="&#x266c;" horiz-adv-x="1000" 
d="M845 855v-652q0 -39 -15 -70.5t-40.5 -53.5t-58.5 -34t-69 -12q-17 0 -34 4.5t-30 14t-21 23.5t-8 32q0 27 15.5 51.5t40 44t55.5 31t62 11.5q17 0 34.5 -3.5t28.5 -9.5v342l-505 -110v-389q0 -39 -15 -70.5t-40.5 -53.5t-58.5 -34t-69 -12q-17 0 -34 4.5t-30 14
t-21 23.5t-8 32q0 27 15.5 51.5t40 44t55.5 31t62 11.5q17 0 34.5 -3.5t28.5 -9.5v623zM805 746l-505 -110v-72l505 110v72z" />
    <glyph glyph-name="cid332" unicode="&#x266d;" horiz-adv-x="1000" 
d="M603 483q33 0 57.5 -10t41 -26.5t25 -38.5t8.5 -47q0 -51 -19 -90.5t-50 -71.5t-71 -59.5l-81.5 -55.5t-81 -58.5t-70.5 -69.5h-10v848h38v-468q17 31 40 57.5t51 46.5t59 31.5t63 11.5zM390 32q32 33 65.5 59l65 49l60 45t49.5 46t33.5 52.5t12.5 64.5q0 46 -25.5 68
t-63.5 22q-21 0 -46 -8.5t-51 -27.5t-52 -49t-48 -73v-248z" />
    <glyph glyph-name="cid333" unicode="&#x3000;" horiz-adv-x="1000" 
 />
    <glyph glyph-name="cid334" unicode="&#x3001;" horiz-adv-x="1000" 
d="M291 -43l-54.5 62.5t-57.5 60.5t-58.5 55t-56.5 47l25 24q55 -44 115 -103t116 -122z" />
    <glyph glyph-name="cid335" unicode="&#x3002;" horiz-adv-x="1000" 
d="M195 240q30 0 56 -11t45.5 -30.5t30.5 -45.5t11 -56t-11 -56t-30.5 -45.5t-45.5 -30.5t-56 -11q-29 0 -55 11t-45.5 30.5t-31 45.5t-11.5 56t11.5 56t31 45.5t45.5 30.5t55 11zM195 -16q24 0 44.5 9t35.5 24t24 35.5t9 44.5q0 23 -9 43.5t-24 36t-35.5 24.5t-44.5 9
q-23 0 -43.5 -9t-36 -24.5t-24.5 -36t-9 -43.5q0 -24 9 -44.5t24.5 -35.5t36 -24t43.5 -9z" />
    <glyph glyph-name="cid336" unicode="&#x3003;" horiz-adv-x="1000" 
d="M469 607l-184 -465l-23 8l158 475zM738 607l-184 -465l-23 8l158 475z" />
    <glyph glyph-name="cid337" unicode="&#x3008;" horiz-adv-x="1000" 
d="M950 -65l-27 -15l-308 460l308 460l27 -15l-298 -445z" />
    <glyph glyph-name="cid338" unicode="&#x3009;" horiz-adv-x="1000" 
d="M50 -65l298 445l-298 445l27 15l308 -460l-308 -460z" />
    <glyph glyph-name="cid339" unicode="&#x300a;" horiz-adv-x="1000" 
d="M812 -70l-25 -10l-246 460l246 460l25 -10l-241 -450zM955 -70l-25 -10l-246 460l246 460l25 -10l-241 -450z" />
    <glyph glyph-name="cid340" unicode="&#x300b;" horiz-adv-x="1000" 
d="M188 -70l241 450l-241 450l25 10l246 -460l-246 -460zM45 -70l241 450l-241 450l25 10l246 -460l-246 -460z" />
    <glyph glyph-name="cid341" unicode="&#x300c;" horiz-adv-x="1000" 
d="M660 840h300v-30h-270v-624h-30v654z" />
    <glyph glyph-name="cid342" unicode="&#x300d;" horiz-adv-x="1000" 
d="M340 -80h-300v30h270v624h30v-654z" />
    <glyph glyph-name="cid343" unicode="&#x300e;" horiz-adv-x="1000" 
d="M748 706v-530h-149v664h361v-134h-212zM621 818v-620h105v530h212v90h-317z" />
    <glyph glyph-name="cid344" unicode="&#x300f;" horiz-adv-x="1000" 
d="M252 54v530h149v-664h-361v134h212zM379 -58v620h-105v-530h-212v-90h317z" />
    <glyph glyph-name="cid345" unicode="&#x3010;" horiz-adv-x="1000" 
d="M960 840v-5q-41 -34 -77 -81.5t-63 -105.5t-42.5 -125.5t-15.5 -142.5t15.5 -142.5t42.5 -125.5t63 -105.5t77 -81.5v-5h-288v920h288z" />
    <glyph glyph-name="cid346" unicode="&#x3011;" horiz-adv-x="1000" 
d="M328 -80h-288v5q41 34 77 81.5t63 105.5t42.5 125.5t15.5 142.5t-15.5 142.5t-42.5 125.5t-63 105.5t-77 81.5v5h288v-920z" />
    <glyph glyph-name="cid347" unicode="&#x3013;" horiz-adv-x="1000" 
d="M900 480h-800v300h800v-300zM900 -20h-800v300h800v-300z" />
    <glyph glyph-name="cid348" unicode="&#x3014;" horiz-adv-x="1000" 
d="M732 38v684l198 129l18 -25l-185 -118v-656l185 -118l-18 -25z" />
    <glyph glyph-name="cid349" unicode="&#x3015;" horiz-adv-x="1000" 
d="M70 -91l-18 25l185 118v656l-185 118l18 25l198 -129v-684z" />
    <glyph glyph-name="cid350" unicode="&#x3131;" 
d="M729 603v-446h-33v416h-505v30h538z" />
    <glyph glyph-name="cid351" unicode="&#x3132;" 
d="M454 602v-446h-33v416h-252v30h285zM806 604v-446h-33v416h-259v30h292z" />
    <glyph glyph-name="cid352" unicode="&#x3133;" 
d="M155 600h258v-446h-33v416h-225v30zM660 437q0 -36 11 -75t31.5 -74t51 -65t69.5 -48l-21 -26q-62 31 -102 84.5t-57 115.5q-17 -62 -56.5 -115.5t-102.5 -84.5l-21 26q39 18 69.5 48t51 65t31.5 74t11 75v174h34v-174z" />
    <glyph glyph-name="cid353" unicode="&#x3134;" 
d="M752 188v-30h-551v445h33v-415h518z" />
    <glyph glyph-name="cid354" unicode="&#x3135;" 
d="M438 185q-58 -21 -111.5 -25.5t-98.5 -4.5h-34v457h33v-427h1q42 0 96 5t105 26zM626 443q0 -37 10 -76t30 -75t49.5 -66.5t68.5 -49.5l-21 -27q-60 32 -98.5 86.5t-55.5 117.5q-17 -63 -55.5 -117.5t-98.5 -86.5l-21 27q39 19 68.5 49.5t49.5 66.5t30 75t10 76v130h-139
v30h313v-30h-140v-130z" />
    <glyph glyph-name="cid355" unicode="&#x3136;" 
d="M228 183q42 0 96 5t105 26l9 -31q-58 -21 -111.5 -25.5t-98.5 -4.5h-34v432h33zM601 169q23 0 42.5 9.5t33.5 26t21.5 38.5t7.5 48q0 52 -29 87t-76 35q-48 0 -77 -35t-29 -87q0 -26 7.5 -48t21.5 -38.5t33.5 -26t43.5 -9.5zM601 442q28 0 53 -11t43 -31t28.5 -47.5
t10.5 -61.5t-10.5 -61.5t-28.5 -47t-43 -30.5t-53 -11q-29 0 -54 11t-43 30.5t-28.5 47t-10.5 61.5t10.5 61.5t28.5 47.5t43 31t54 11zM757 517v-30h-313v30h142v102h33v-102h138z" />
    <glyph glyph-name="cid356" unicode="&#x3137;" 
d="M737 186v-30h-536v449h527v-30h-494v-389h503z" />
    <glyph glyph-name="cid357" unicode="&#x3138;" 
d="M221 188q45 0 103.5 4.5t124.5 21.5l7 -30q-72 -17 -130 -21.5t-105 -4.5h-38v447h269v-30h-236v-387h5zM752 186v-30h-272v449h269v-30h-236v-389h239z" />
    <glyph glyph-name="cid358" unicode="&#x3139;" 
d="M752 173v-30h-559v252h510v192h-513v30h545v-251h-510v-193h527z" />
    <glyph glyph-name="cid359" unicode="&#x313a;" 
d="M224 181q54 0 124 4.5t156 21.5l6 -30q-91 -17 -160 -21.5t-126 -4.5h-45v247h244v181h-247v30h280v-240h-244v-188h12zM766 609v-454h-33v424h-244v30h277z" />
    <glyph glyph-name="cid360" unicode="&#x313b;" 
d="M219 183q45 0 105.5 3t141.5 17l4 -31q-84 -13 -144.5 -16t-106.5 -3h-40v246h237v179h-240v30h273v-239h-237v-186h7zM735 579h-214v-397h214v397zM767 608v-456h-278v456h278z" />
    <glyph glyph-name="cid361" unicode="&#x313c;" 
d="M221 182q48 0 112 4t142 20l6 -30q-82 -16 -145.5 -20t-114.5 -4h-42v247h237v179h-240v30h273v-239h-237v-187h9zM738 394h-212v-211h212v211zM771 609v-456h-278v456h33v-185h212v185h33z" />
    <glyph glyph-name="cid362" unicode="&#x313d;" 
d="M475 183q-75 -20 -138 -25t-116 -5h-41v246h237v179h-240v30h273v-239h-237v-186h7q51 0 115 5t133 25zM667 437q0 -37 11 -75.5t31.5 -74t51 -65t69.5 -47.5l-21 -26q-62 31 -102 84.5t-57 115.5q-17 -62 -56.5 -115.5t-102.5 -84.5l-21 26q39 18 69.5 47.5t51.5 65
t31.5 74t10.5 75.5v174h34v-174z" />
    <glyph glyph-name="cid363" unicode="&#x313e;" 
d="M220 184q51 0 115 5t133 25l7 -30q-75 -20 -138 -25t-116 -5h-41v244h237v179h-240v30h273v-239h-237v-184h7zM791 184v-30h-286v453h281v-30h-248v-176h237v-30h-237v-187h253z" />
    <glyph glyph-name="cid364" unicode="&#x313f;" 
d="M219 183q50 0 112.5 5t131.5 25l6 -31q-74 -19 -135.5 -24t-114.5 -5h-40v246h225v179h-228v30h261v-239h-225v-186h7zM578 183h107v395h-107v-395zM785 183v-30h-304v30h64v395h-59v30h291v-30h-59v-395h67z" />
    <glyph glyph-name="cid365" unicode="&#x3140;" 
d="M218 171q46 0 105.5 4.5t127.5 22.5l7 -31q-72 -17 -132 -21.5t-108 -4.5h-39v246h210v179h-213v30h246v-239h-210v-186h6zM607 165q47 0 76 33.5t29 83.5q0 24 -7.5 45t-21.5 37t-33.5 25t-42.5 9q-24 0 -43.5 -9t-33.5 -25t-21.5 -37t-7.5 -45q0 -50 29 -83.5t77 -33.5
zM607 427q28 0 53 -10.5t43 -29.5t28.5 -45.5t10.5 -59.5t-10.5 -59.5t-28.5 -45.5t-43 -29.5t-53 -10.5q-29 0 -54 10.5t-43 29.5t-28.5 45.5t-10.5 59.5t10.5 59.5t28.5 45.5t43 29.5t54 10.5zM763 502v-30h-313v30h142v113h33v-113h138z" />
    <glyph glyph-name="cid366" unicode="&#x3141;" 
d="M738 608v-456h-542v456h542zM229 578v-396h476v396h-476z" />
    <glyph glyph-name="cid367" unicode="&#x3142;" 
d="M231 612v-186h469v186h33v-463h-535v463h33zM231 179h469v217h-469v-217z" />
    <glyph glyph-name="cid368" unicode="&#x3143;" 
d="M219 608v-184h198v184h32v-455h-263v455h33zM219 183h198v211h-198v-211zM526 608v-184h198v184h32v-455h-263v455h33zM526 183h198v211h-198v-211z" />
    <glyph glyph-name="cid369" unicode="&#x3144;" 
d="M417 395h-198v-211h198v211zM417 609h32v-455h-263v455h33v-184h198v184zM667 437q0 -36 11 -74.5t31.5 -74t51 -65t69.5 -47.5l-21 -26q-62 31 -102 84.5t-57 115.5q-17 -62 -56.5 -115.5t-102.5 -84.5l-21 26q39 18 69.5 47.5t51.5 65t31.5 74t10.5 74.5v174h34v-174z
" />
    <glyph glyph-name="cid370" unicode="&#x3145;" 
d="M485 461q0 -63 26.5 -112t68 -86t92.5 -61t99 -37l-17 -28q-43 13 -87 33.5t-83 49.5t-69.5 67t-46.5 86q-15 -48 -45.5 -86t-69.5 -67t-83 -49.5t-87 -33.5l-17 28q48 13 99 37t92.5 61t68 86t26.5 112v155h33v-155z" />
    <glyph glyph-name="cid371" unicode="&#x3146;" 
d="M641 441q0 -32 10 -67.5t29.5 -69.5t49 -62.5t67.5 -46.5l-22 -26q-59 30 -96.5 81t-54.5 106q-8 -29 -22.5 -58.5t-34.5 -56.5t-46 -50t-57 -39q-32 17 -57.5 41t-46 52t-34.5 58t-23 59q-9 -27 -22.5 -54.5t-32 -53t-42.5 -48.5t-52 -39l-23 25q38 21 67.5 52.5
t49 66.5t29.5 69.5t10 60.5v168h33v-174q0 -26 9.5 -59t28 -66.5t45 -65.5t61.5 -54q34 21 61 51.5t45.5 64t28 67.5t9.5 62v174h33v-168z" />
    <glyph glyph-name="cid372" unicode="&#x3147;" 
d="M460 616q57 0 106.5 -17.5t86 -48.5t57 -74.5t20.5 -95.5t-20.5 -95.5t-57 -74.5t-86 -48.5t-106.5 -17.5t-106.5 17.5t-86 48.5t-57 74.5t-20.5 95.5t20.5 95.5t57 74.5t86 48.5t106.5 17.5zM460 586q-50 0 -93 -16t-74.5 -44t-50 -65.5t-18.5 -80.5t18.5 -80.5
t50 -65.5t74.5 -44t93 -16q49 0 92.5 16t75 44t50 65.5t18.5 80.5t-18.5 80.5t-50 65.5t-75 44t-92.5 16z" />
    <glyph glyph-name="cid373" unicode="&#x3148;" 
d="M489 484q0 -61 24 -111t62 -88t86 -65t96 -42l-19 -28q-41 14 -82.5 36t-77.5 52t-63.5 68.5t-42.5 85.5q-14 -47 -42 -85.5t-63.5 -68.5t-77 -52t-82.5 -36l-19 28q48 15 96 42t86 65t62 88t24 111v97h-249v30h528v-30h-246v-97z" />
    <glyph glyph-name="cid374" unicode="&#x3149;" 
d="M640 456q0 -36 9 -76t28 -77t47 -68.5t67 -51.5l-23 -25q-56 31 -91 83t-52 111q-16 -72 -55.5 -124.5t-105.5 -81.5q-66 29 -106 81.5t-55 125.5q-19 -60 -56 -112t-94 -83l-23 25q39 19 68.5 50t49.5 68t30 77t10 78v127h-128v30h286v-30h-125v-127q0 -97 35.5 -167.5
t107.5 -106.5q72 36 107.5 106.5t35.5 167.5v127h-126v30h286v-30h-127v-127z" />
    <glyph glyph-name="cid375" unicode="&#x314a;" 
d="M481 444q0 -60 23.5 -109t61 -87.5t84.5 -65.5t94 -42l-19 -27q-41 14 -81.5 36.5t-75.5 52.5t-62.5 68t-41.5 84q-14 -46 -41.5 -84t-62.5 -68t-75.5 -52.5t-81.5 -36.5l-19 27q47 15 94 42t84.5 65.5t61 87.5t23.5 109v43h-248v30h249v125h33v-125h246v-30h-246v-43z
" />
    <glyph glyph-name="cid376" unicode="&#x314b;" 
d="M731 617v-473h-33v232l-509 -30l-7 35l516 24v182h-501v30h534z" />
    <glyph glyph-name="cid377" unicode="&#x314c;" 
d="M748 184v-30h-546v453h538v-30h-505v-176h497v-30h-497v-187h513z" />
    <glyph glyph-name="cid378" unicode="&#x314d;" 
d="M361 185h211v391h-211v-391zM763 185v-30h-592v30h157v391h-143v30h564v-30h-144v-391h158z" />
    <glyph glyph-name="cid379" unicode="&#x314e;" 
d="M466 140q36 0 67.5 9.5t54 26t35.5 38.5t13 47t-13 46.5t-35.5 38t-54 26t-67.5 9.5t-66.5 -9.5t-53 -26t-35.5 -38t-13 -46.5t13 -47t35.5 -38.5t53 -26t66.5 -9.5zM466 410q44 0 81.5 -11t64.5 -31t42.5 -47t15.5 -60t-15.5 -60.5t-42.5 -47.5t-64.5 -31t-81.5 -11
t-81 11t-64 31t-42 47.5t-15 60.5t15 60t42 47t64 31t81 11zM761 520v-30h-587v30h276v129h33v-129h278z" />
    <glyph glyph-name="cid380" unicode="&#x314f;" 
d="M682 408h-230v-458h-33v860h33v-372h230v-30z" />
    <glyph glyph-name="cid381" unicode="&#x3150;" 
d="M596 810v-860h-33v463h-193v-432h-33v814h33v-352h193v367h33z" />
    <glyph glyph-name="cid382" unicode="&#x3151;" 
d="M419 489v-201h222v-30h-222v-308h-33v860h33v-291h222v-30h-222z" />
    <glyph glyph-name="cid383" unicode="&#x3152;" 
d="M562 305v195h-191v-195h191zM595 810v-860h-33v325h-191v-293h-33v815h33v-267h191v280h33z" />
    <glyph glyph-name="cid384" unicode="&#x3153;" 
d="M565 810v-860h-33v459h-230v30h230v371h33z" />
    <glyph glyph-name="cid385" unicode="&#x3154;" 
d="M434 799h33v-814h-33v432h-196v30h196v352zM628 810v-860h-33v860h33z" />
    <glyph glyph-name="cid386" unicode="&#x3155;" 
d="M567 810v-860h-33v344h-227v30h227v184h-227v30h227v272h33z" />
    <glyph glyph-name="cid387" unicode="&#x3156;" 
d="M434 800h33v-815h-33v317h-193v30h193v193h-193v30h193v245zM628 810v-860h-33v860h33z" />
    <glyph glyph-name="cid388" unicode="&#x3157;" 
d="M854 193v-30h-791v30h378v398h33v-398h380z" />
    <glyph glyph-name="cid389" unicode="&#x3158;" 
d="M373 228q66 3 130.5 7.5t124.5 12.5l3 -26q-68 -10 -139.5 -16.5t-142.5 -10t-137.5 -4.5t-123.5 -1l-8 32q58 0 124 1t136 4v311h33v-310zM860 410h-154v-460h-33v860h33v-370h154v-30z" />
    <glyph glyph-name="cid390" unicode="&#x3159;" 
d="M324 243q57 3 111.5 6.5t102.5 10.5l3 -27q-54 -8 -114.5 -13.5t-121.5 -8.5t-117.5 -4t-102.5 -1l-6 32q44 0 98.5 1t113.5 3v307h33v-306zM778 810v-859h-33v474h-137v-441h-33v815h33v-344h137v355h33z" />
    <glyph glyph-name="cid391" unicode="&#x315a;" 
d="M406 237q64 3 128 8t123 13l3 -27q-67 -11 -138 -17t-141 -9.5t-136 -4.5t-121 -1l-7 32q56 0 121.5 1t134.5 3v300h33v-298zM753 810v-860h-33v860h33z" />
    <glyph glyph-name="cid392" unicode="&#x315b;" 
d="M865 185v-30h-792v30h231v421h33v-421h265v421h33v-421h230z" />
    <glyph glyph-name="cid393" unicode="&#x315c;" 
d="M863 564h-380v-398h-33v398h-378v30h791v-30z" />
    <glyph glyph-name="cid394" unicode="&#x315d;" 
d="M687 411q-77 -9 -157.5 -15t-159.5 -9v-366h-33v365q-63 -2 -121 -3t-112 -1l-7 32q66 0 139 1t149 3.5t151.5 7t147.5 12.5zM794 810v-860h-33v280h-240v30h240v550h33z" />
    <glyph glyph-name="cid395" unicode="&#x315e;" 
d="M563 419q-52 -8 -110.5 -13l-118.5 -10v-375h-33v373q-57 -3 -108.5 -4.5t-96.5 -1.5l-6 32q49 0 109 1.5t123 4.5t124.5 8t113.5 12zM617 785h33v-815h-33v261h-188v30h188v524zM808 810v-860h-33v860h33z" />
    <glyph glyph-name="cid396" unicode="&#x315f;" 
d="M715 419q-70 -8 -142 -14t-144 -9v-376h-33v374q-74 -3 -144 -4t-133 -1l-6 32q67 0 141.5 1t151.5 3.5t154.5 7t151.5 12.5zM793 810v-860h-33v860h33z" />
    <glyph glyph-name="cid397" unicode="&#x3160;" 
d="M854 565h-240v-399h-33v399h-248v-399h-33v399h-238v30h792v-30z" />
    <glyph glyph-name="cid398" unicode="&#x3161;" 
d="M854 395v-30h-791v30h791z" />
    <glyph glyph-name="cid399" unicode="&#x3162;" 
d="M767 810v-860h-33v860h33zM88 300q65 0 138 1.5t149 4.5t152.5 8.5t148.5 15.5l3 -27q-74 -11 -150.5 -18t-152 -11t-146.5 -5t-134 -1z" />
    <glyph glyph-name="cid400" unicode="&#x3163;" 
d="M483 810v-860h-33v860h33z" />
    <glyph glyph-name="cid401" unicode="&#x318d;" 
d="M515 381q0 15 10 28t29 13q20 0 30 -13t10 -28t-10 -28.5t-30 -13.5q-19 0 -28.5 13.5t-10.5 28.5z" />
    <glyph glyph-name="cid402" unicode="&#x318e;" 
d="M576 813v-865h-33v865h33zM371 388q0 15 10 28t30 13q19 0 29.5 -13t10.5 -28t-10.5 -28.5t-29.5 -13.5q-20 0 -29.5 13.5t-10.5 28.5z" />
    <glyph glyph-name="cid403" unicode="&#x3200;" horiz-adv-x="1000" 
d="M723 587v-456h-34v425h-442v31h476zM164 -60q-66 97 -96.5 204t-30.5 236q0 128 30.5 235.5t96.5 204.5l25 -11q-63 -91 -90.5 -203t-27.5 -226q0 -115 27.5 -226.5t90.5 -202.5zM811 -49q63 91 90.5 202.5t27.5 226.5q0 114 -27.5 226t-90.5 203l25 11
q66 -97 96.5 -204.5t30.5 -235.5q0 -129 -30.5 -236t-96.5 -204z" />
    <glyph glyph-name="cid404" unicode="&#x3201;" horiz-adv-x="1000" 
d="M189 809q-63 -91 -90.5 -203t-27.5 -226q0 -115 27.5 -226.5t90.5 -202.5l-25 -11q-66 97 -96.5 204t-30.5 236q0 128 30.5 235.5t96.5 204.5zM330 204h425v-31h-459v448h34v-417zM836 820q66 -97 96.5 -204.5t30.5 -235.5q0 -129 -30.5 -236t-96.5 -204l-25 11
q63 91 90.5 202.5t27.5 226.5q0 114 -27.5 226t-90.5 203z" />
    <glyph glyph-name="cid405" unicode="&#x3202;" horiz-adv-x="1000" 
d="M189 809q-63 -91 -90.5 -203t-27.5 -226q0 -115 27.5 -226.5t90.5 -202.5l-25 -11q-66 97 -96.5 204t-30.5 236q0 128 30.5 235.5t96.5 204.5zM314 197h434v-31h-468v447h456v-31h-422v-385zM836 820q66 -97 96.5 -204.5t30.5 -235.5q0 -129 -30.5 -236t-96.5 -204
l-25 11q63 91 90.5 202.5t27.5 226.5q0 114 -27.5 226t-90.5 203z" />
    <glyph glyph-name="cid406" unicode="&#x3203;" horiz-adv-x="1000" 
d="M189 809q-63 -91 -90.5 -203t-27.5 -226q0 -115 27.5 -226.5t90.5 -202.5l-25 -11q-66 97 -96.5 204t-30.5 236q0 128 30.5 235.5t96.5 204.5zM303 168h440v-31h-473v260h423v195h-426v31h459v-257h-423v-198zM836 820q66 -97 96.5 -204.5t30.5 -235.5q0 -129 -30.5 -236
t-96.5 -204l-25 11q63 91 90.5 202.5t27.5 226.5q0 114 -27.5 226t-90.5 203z" />
    <glyph glyph-name="cid407" unicode="&#x3204;" horiz-adv-x="1000" 
d="M733 594v-430h-455v430h455zM312 563v-368h387v368h-387zM164 -60q-66 97 -96.5 204t-30.5 236q0 128 30.5 235.5t96.5 204.5l25 -11q-63 -91 -90.5 -203t-27.5 -226q0 -115 27.5 -226.5t90.5 -202.5zM811 -49q63 91 90.5 202.5t27.5 226.5q0 114 -27.5 226t-90.5 203
l25 11q66 -97 96.5 -204.5t30.5 -235.5q0 -129 -30.5 -236t-96.5 -204z" />
    <glyph glyph-name="cid408" unicode="&#x3205;" horiz-adv-x="1000" 
d="M310 624v-194h392v194h34v-482h-460v482h34zM310 173h392v226h-392v-226zM164 -60q-66 97 -96.5 204t-30.5 236q0 128 30.5 235.5t96.5 204.5l25 -11q-63 -91 -90.5 -203t-27.5 -226q0 -115 27.5 -226.5t90.5 -202.5zM811 -49q63 91 90.5 202.5t27.5 226.5
q0 114 -27.5 226t-90.5 203l25 11q66 -97 96.5 -204.5t30.5 -235.5q0 -129 -30.5 -236t-96.5 -204z" />
    <glyph glyph-name="cid409" unicode="&#x3206;" horiz-adv-x="1000" 
d="M189 809q-63 -91 -90.5 -203t-27.5 -226q0 -115 27.5 -226.5t90.5 -202.5l-25 -11q-66 97 -96.5 204t-30.5 236q0 128 30.5 235.5t96.5 204.5zM527 495q0 -55 19.5 -104t52.5 -88.5t76 -69.5t90 -47l-21 -29q-39 16 -76 40t-67.5 55t-54 69t-36.5 82q-13 -44 -36.5 -82
t-54 -69t-67.5 -55t-76 -40l-21 29q46 17 89 47t76 69.5t53 88.5t20 104v141h34v-141zM836 820q66 -97 96.5 -204.5t30.5 -235.5q0 -129 -30.5 -236t-96.5 -204l-25 11q63 91 90.5 202.5t27.5 226.5q0 114 -27.5 226t-90.5 203z" />
    <glyph glyph-name="cid410" unicode="&#x3207;" horiz-adv-x="1000" 
d="M505 600q52 0 96.5 -16t76 -44.5t49.5 -68.5t18 -88t-18 -88t-49.5 -68.5t-76 -44.5t-96.5 -16q-53 0 -97 16t-75.5 44.5t-49.5 68.5t-18 88t18 88t49.5 68.5t75.5 44.5t97 16zM505 569q-45 0 -83 -14.5t-65.5 -39.5t-43.5 -59t-16 -73t16 -73t43.5 -59t65.5 -39.5
t83 -14.5t83 14.5t65.5 39.5t43.5 59t16 73t-16 73t-43.5 59t-65.5 39.5t-83 14.5zM164 -60q-66 97 -96.5 204t-30.5 236q0 128 30.5 235.5t96.5 204.5l25 -11q-63 -91 -90.5 -203t-27.5 -226q0 -115 27.5 -226.5t90.5 -202.5zM811 -49q63 91 90.5 202.5t27.5 226.5
q0 114 -27.5 226t-90.5 203l25 11q66 -97 96.5 -204.5t30.5 -235.5q0 -129 -30.5 -236t-96.5 -204z" />
    <glyph glyph-name="cid411" unicode="&#x3208;" horiz-adv-x="1000" 
d="M189 809q-63 -91 -90.5 -203t-27.5 -226q0 -115 27.5 -226.5t90.5 -202.5l-25 -11q-66 97 -96.5 204t-30.5 236q0 128 30.5 235.5t96.5 204.5zM520 486q0 -53 21.5 -98t57 -81.5t80.5 -63t92 -41.5l-19 -29q-41 14 -79.5 35.5t-71.5 50t-58.5 63.5t-39.5 77
q-14 -41 -38.5 -76.5t-57 -64t-70.5 -50t-78 -35.5l-19 29q47 15 91 42t78.5 63.5t55.5 81.5t21 97v77h-223v31h482v-31h-225v-77zM836 820q66 -97 96.5 -204.5t30.5 -235.5q0 -129 -30.5 -236t-96.5 -204l-25 11q63 91 90.5 202.5t27.5 226.5q0 114 -27.5 226t-90.5 203z
" />
    <glyph glyph-name="cid412" unicode="&#x3209;" horiz-adv-x="1000" 
d="M189 809q-63 -91 -90.5 -203t-27.5 -226q0 -115 27.5 -226.5t90.5 -202.5l-25 -11q-66 97 -96.5 204t-30.5 236q0 128 30.5 235.5t96.5 204.5zM519 429q0 -44 19.5 -82.5t52.5 -70.5t75.5 -56t87.5 -37l-18 -29q-39 13 -75.5 32.5t-67.5 45t-54.5 56t-36.5 66.5
q-13 -36 -36.5 -66.5t-54.5 -56t-67.5 -45t-75.5 -32.5l-18 29q45 13 87.5 37t75.5 56t52.5 70.5t19.5 82.5v61h-223v31h223v131h34v-131h225v-31h-225v-61zM836 820q66 -97 96.5 -204.5t30.5 -235.5q0 -129 -30.5 -236t-96.5 -204l-25 11q63 91 90.5 202.5t27.5 226.5
q0 114 -27.5 226t-90.5 203z" />
    <glyph glyph-name="cid413" unicode="&#x320a;" horiz-adv-x="1000" 
d="M189 809q-63 -91 -90.5 -203t-27.5 -226q0 -115 27.5 -226.5t90.5 -202.5l-25 -11q-66 97 -96.5 204t-30.5 236q0 128 30.5 235.5t96.5 204.5zM270 603h460v-460h-34v230l-443 -27l-7 36l450 22v168h-426v31zM836 820q66 -97 96.5 -204.5t30.5 -235.5q0 -129 -30.5 -236
t-96.5 -204l-25 11q63 91 90.5 202.5t27.5 226.5q0 114 -27.5 226t-90.5 203z" />
    <glyph glyph-name="cid414" unicode="&#x320b;" horiz-adv-x="1000" 
d="M189 809q-63 -91 -90.5 -203t-27.5 -226q0 -115 27.5 -226.5t90.5 -202.5l-25 -11q-66 97 -96.5 204t-30.5 236q0 128 30.5 235.5t96.5 204.5zM311 190h434v-31h-468v446h452v-31h-418v-175h422v-31h-422v-178zM836 820q66 -97 96.5 -204.5t30.5 -235.5
q0 -129 -30.5 -236t-96.5 -204l-25 11q63 91 90.5 202.5t27.5 226.5q0 114 -27.5 226t-90.5 203z" />
    <glyph glyph-name="cid415" unicode="&#x320c;" horiz-adv-x="1000" 
d="M189 809q-63 -91 -90.5 -203t-27.5 -226q0 -115 27.5 -226.5t90.5 -202.5l-25 -11q-66 97 -96.5 204t-30.5 236q0 128 30.5 235.5t96.5 204.5zM412 221h204v330h-204v-330zM650 221h132v-31h-554v31h150v330h-125v31h506v-31h-109v-330zM836 820q66 -97 96.5 -204.5
t30.5 -235.5q0 -129 -30.5 -236t-96.5 -204l-25 11q63 91 90.5 202.5t27.5 226.5q0 114 -27.5 226t-90.5 203z" />
    <glyph glyph-name="cid416" unicode="&#x320d;" horiz-adv-x="1000" 
d="M189 809q-63 -91 -90.5 -203t-27.5 -226q0 -115 27.5 -226.5t90.5 -202.5l-25 -11q-66 97 -96.5 204t-30.5 236q0 128 30.5 235.5t96.5 204.5zM499 102q36 0 67.5 11.5t54.5 31.5t36 46t13 56t-13 56.5t-36 46.5t-54.5 31.5t-67.5 11.5t-67.5 -11.5t-54.5 -31.5
t-36 -46.5t-13 -56.5t13 -56t36 -46t54.5 -31.5t67.5 -11.5zM499 423q44 0 82 -13t65.5 -36.5t43 -55.5t15.5 -71t-15.5 -71t-43 -55.5t-65.5 -36.5t-82 -13t-82 13t-65.5 36.5t-43 55.5t-15.5 71t15.5 71t43 55.5t65.5 36.5t82 13zM515 530h271v-31h-573v31h268v132h34
v-132zM836 820q66 -97 96.5 -204.5t30.5 -235.5q0 -129 -30.5 -236t-96.5 -204l-25 11q63 91 90.5 202.5t27.5 226.5q0 114 -27.5 226t-90.5 203z" />
    <glyph glyph-name="cid417" unicode="&#x320e;" horiz-adv-x="1000" 
d="M189 809q-63 -91 -90.5 -203t-27.5 -226q0 -115 27.5 -226.5t90.5 -202.5l-25 -11q-66 97 -96.5 204t-30.5 236q0 128 30.5 235.5t96.5 204.5zM530 676q0 -78 -21.5 -155t-63 -148.5t-103 -135.5t-142.5 -115l-22 27q72 45 129.5 101t98 120t63.5 134t27 141h-293v31h327
zM730 403v-428h-34v810h34v-351h156v-31h-156zM836 820q66 -97 96.5 -204.5t30.5 -235.5q0 -129 -30.5 -236t-96.5 -204l-25 11q63 91 90.5 202.5t27.5 226.5q0 114 -27.5 226t-90.5 203z" />
    <glyph glyph-name="cid418" unicode="&#x320f;" horiz-adv-x="1000" 
d="M189 809q-63 -91 -90.5 -203t-27.5 -226q0 -115 27.5 -226.5t90.5 -202.5l-25 -11q-66 97 -96.5 204t-30.5 236q0 128 30.5 235.5t96.5 204.5zM257 217q90 0 180.5 7.5t193.5 30.5l6 -32q-106 -22 -197 -30t-183 -8h-58v517h34v-485h24zM730 413v-438h-34v810h34v-341
h156v-31h-156zM836 820q66 -97 96.5 -204.5t30.5 -235.5q0 -129 -30.5 -236t-96.5 -204l-25 11q63 91 90.5 202.5t27.5 226.5q0 114 -27.5 226t-90.5 203z" />
    <glyph glyph-name="cid419" unicode="&#x3210;" horiz-adv-x="1000" 
d="M189 809q-63 -91 -90.5 -203t-27.5 -226q0 -115 27.5 -226.5t90.5 -202.5l-25 -11q-66 97 -96.5 204t-30.5 236q0 128 30.5 235.5t96.5 204.5zM262 194q55 0 101 1t88.5 4t83.5 8.5t85 14.5l6 -31q-46 -9 -87.5 -14.5t-84.5 -9t-90 -4.5t-102 -1h-56v529h360v-31h-326
v-466h22zM740 413v-438h-34v810h34v-341h146v-31h-146zM836 820q66 -97 96.5 -204.5t30.5 -235.5q0 -129 -30.5 -236t-96.5 -204l-25 11q63 91 90.5 202.5t27.5 226.5q0 114 -27.5 226t-90.5 203z" />
    <glyph glyph-name="cid420" unicode="&#x3211;" horiz-adv-x="1000" 
d="M189 809q-63 -91 -90.5 -203t-27.5 -226q0 -115 27.5 -226.5t90.5 -202.5l-25 -11q-66 97 -96.5 204t-30.5 236q0 128 30.5 235.5t96.5 204.5zM265 196q54 0 100 1t88.5 4.5t83.5 9t86 14.5l3 -32q-45 -9 -86.5 -14.5t-84.5 -8.5t-89 -4t-101 -1h-55v288h287v207h-290v31
h323v-269h-287v-226h22zM744 413v-438h-34v810h34v-341h131v-31h-131zM836 820q66 -97 96.5 -204.5t30.5 -235.5q0 -129 -30.5 -236t-96.5 -204l-25 11q63 91 90.5 202.5t27.5 226.5q0 114 -27.5 226t-90.5 203z" />
    <glyph glyph-name="cid421" unicode="&#x3212;" horiz-adv-x="1000" 
d="M189 809q-63 -91 -90.5 -203t-27.5 -226q0 -115 27.5 -226.5t90.5 -202.5l-25 -11q-66 97 -96.5 204t-30.5 236q0 128 30.5 235.5t96.5 204.5zM234 213h252v437h-252v-437zM198 683h324v-503h-324v503zM730 408v-433h-34v810h34v-346h156v-31h-156zM836 820
q66 -97 96.5 -204.5t30.5 -235.5q0 -129 -30.5 -236t-96.5 -204l-25 11q63 91 90.5 202.5t27.5 226.5q0 114 -27.5 226t-90.5 203z" />
    <glyph glyph-name="cid422" unicode="&#x3213;" horiz-adv-x="1000" 
d="M189 809q-63 -91 -90.5 -203t-27.5 -226q0 -115 27.5 -226.5t90.5 -202.5l-25 -11q-66 97 -96.5 204t-30.5 236q0 128 30.5 235.5t96.5 204.5zM526 448h-268v-264h268v264zM526 701h33v-549h-335v549h34v-221h268v221zM740 403v-428h-34v810h34v-351h146v-31h-146z
M836 820q66 -97 96.5 -204.5t30.5 -235.5q0 -129 -30.5 -236t-96.5 -204l-25 11q63 91 90.5 202.5t27.5 226.5q0 114 -27.5 226t-90.5 203z" />
    <glyph glyph-name="cid423" unicode="&#x3214;" horiz-adv-x="1000" 
d="M189 809q-63 -91 -90.5 -203t-27.5 -226q0 -115 27.5 -226.5t90.5 -202.5l-25 -11q-66 97 -96.5 204t-30.5 236q0 128 30.5 235.5t96.5 204.5zM396 519q0 -58 16 -112.5t44 -100.5t66.5 -82.5t83.5 -58.5l-24 -27q-72 39 -125.5 108.5t-76.5 159.5q-23 -90 -76.5 -159.5
t-125.5 -108.5l-24 27q45 22 83.5 58.5t66.5 82.5t44 100.5t16 112.5v181h32v-181zM732 413v-438h-34v810h34v-341h146v-31h-146zM836 820q66 -97 96.5 -204.5t30.5 -235.5q0 -129 -30.5 -236t-96.5 -204l-25 11q63 91 90.5 202.5t27.5 226.5q0 114 -27.5 226t-90.5 203z
" />
    <glyph glyph-name="cid424" unicode="&#x3215;" horiz-adv-x="1000" 
d="M189 809q-63 -91 -90.5 -203t-27.5 -226q0 -115 27.5 -226.5t90.5 -202.5l-25 -11q-66 97 -96.5 204t-30.5 236q0 128 30.5 235.5t96.5 204.5zM362 195q33 0 59.5 17.5t45.5 49t29.5 74.5t10.5 94t-10.5 94t-29.5 74.5t-45.5 49t-59.5 17.5t-59.5 -17.5t-45.5 -49
t-29.5 -74.5t-10.5 -94t10.5 -94t29.5 -74.5t45.5 -49t59.5 -17.5zM362 696q41 0 74 -19t56.5 -53.5t36 -83.5t12.5 -110t-12.5 -110t-36 -83.5t-56.5 -53.5t-74 -19t-74 19t-56.5 53.5t-36 83.5t-12.5 110t12.5 110t36 83.5t56.5 53.5t74 19zM745 403v-428h-34v810h34v-351
h137v-31h-137zM836 820q66 -97 96.5 -204.5t30.5 -235.5q0 -129 -30.5 -236t-96.5 -204l-25 11q63 91 90.5 202.5t27.5 226.5q0 114 -27.5 226t-90.5 203z" />
    <glyph glyph-name="cid425" unicode="&#x3216;" horiz-adv-x="1000" 
d="M189 809q-63 -91 -90.5 -203t-27.5 -226q0 -115 27.5 -226.5t90.5 -202.5l-25 -11q-66 97 -96.5 204t-30.5 236q0 128 30.5 235.5t96.5 204.5zM408 513q0 -58 13.5 -114t39 -105t61 -88.5t79.5 -63.5l-24 -27q-69 42 -117 115t-68 164q-20 -91 -68 -164t-117 -115l-24 27
q44 24 79.5 63.5t61 88.5t39 105t13.5 114v136h-170v32h373v-32h-171v-136zM740 408v-433h-34v810h34v-346h146v-31h-146zM836 820q66 -97 96.5 -204.5t30.5 -235.5q0 -129 -30.5 -236t-96.5 -204l-25 11q63 91 90.5 202.5t27.5 226.5q0 114 -27.5 226t-90.5 203z" />
    <glyph glyph-name="cid426" unicode="&#x3217;" horiz-adv-x="1000" 
d="M189 809q-63 -91 -90.5 -203t-27.5 -226q0 -115 27.5 -226.5t90.5 -202.5l-25 -11q-66 97 -96.5 204t-30.5 236q0 128 30.5 235.5t96.5 204.5zM402 495q0 -54 16 -104t44.5 -93t67 -76.5t83.5 -53.5l-22 -28q-72 36 -127 101t-78 150q-23 -85 -78 -150t-127 -101l-22 28
q45 20 83.5 53.5t67 76.5t44.5 93t16 104v65h-190v31h189v148h34v-148h188v-31h-189v-65zM740 393v-418h-34v810h34v-361h146v-31h-146zM836 820q66 -97 96.5 -204.5t30.5 -235.5q0 -129 -30.5 -236t-96.5 -204l-25 11q63 91 90.5 202.5t27.5 226.5q0 114 -27.5 226
t-90.5 203z" />
    <glyph glyph-name="cid427" unicode="&#x3218;" horiz-adv-x="1000" 
d="M189 809q-63 -91 -90.5 -203t-27.5 -226q0 -115 27.5 -226.5t90.5 -202.5l-25 -11q-66 97 -96.5 204t-30.5 236q0 128 30.5 235.5t96.5 204.5zM543 678q0 -76 -18 -153t-56 -150t-97 -139t-141 -120l-28 24q101 63 167 145.5t101 175.5l-267 -27l-11 34l288 23
q25 76 28 156h-291v31h325zM729 401v-426h-34v810h34v-353h147v-31h-147zM836 820q66 -97 96.5 -204.5t30.5 -235.5q0 -129 -30.5 -236t-96.5 -204l-25 11q63 91 90.5 202.5t27.5 226.5q0 114 -27.5 226t-90.5 203z" />
    <glyph glyph-name="cid428" unicode="&#x3219;" horiz-adv-x="1000" 
d="M189 809q-63 -91 -90.5 -203t-27.5 -226q0 -115 27.5 -226.5t90.5 -202.5l-25 -11q-66 97 -96.5 204t-30.5 236q0 128 30.5 235.5t96.5 204.5zM262 196q55 0 102 1t89.5 4.5t84 9t85.5 14.5l5 -32q-46 -9 -88 -14.5t-85 -9t-90 -4.5t-103 -1h-56v520h356v-33h-322v-201
h300v-32h-300v-222h22zM744 402v-427h-34v810h34v-352h147v-31h-147zM836 820q66 -97 96.5 -204.5t30.5 -235.5q0 -129 -30.5 -236t-96.5 -204l-25 11q63 91 90.5 202.5t27.5 226.5q0 114 -27.5 226t-90.5 203z" />
    <glyph glyph-name="cid429" unicode="&#x321a;" horiz-adv-x="1000" 
d="M189 809q-63 -91 -90.5 -203t-27.5 -226q0 -115 27.5 -226.5t90.5 -202.5l-25 -11q-66 97 -96.5 204t-30.5 236q0 128 30.5 235.5t96.5 204.5zM310 206q83 2 166 6v428h-166v-434zM510 214q79 5 145 12l2 -28q-61 -8 -128 -13.5t-134 -8.5t-130 -4t-115 -1l-6 33h63t69 1
v435h-100v31h430v-31h-96v-426zM755 403v-428h-34v810h34v-351h139v-31h-139zM836 820q66 -97 96.5 -204.5t30.5 -235.5q0 -129 -30.5 -236t-96.5 -204l-25 11q63 91 90.5 202.5t27.5 226.5q0 114 -27.5 226t-90.5 203z" />
    <glyph glyph-name="cid430" unicode="&#x321b;" horiz-adv-x="1000" 
d="M189 809q-63 -91 -90.5 -203t-27.5 -226q0 -115 27.5 -226.5t90.5 -202.5l-25 -11q-66 97 -96.5 204t-30.5 236q0 128 30.5 235.5t96.5 204.5zM382 173q34 0 62.5 11.5t49.5 32t33 47.5t12 58t-12 58t-33 47.5t-49.5 32t-62.5 11.5t-62.5 -11.5t-49.5 -32t-33 -47.5
t-12 -58t12 -58t33 -47.5t49.5 -32t62.5 -11.5zM382 498q41 0 76 -12.5t60 -36t39 -56t14 -71.5t-14 -71.5t-39 -55.5t-60 -36t-76 -13t-76 13t-60 36t-39 55.5t-14 71.5t14 71.5t39 56t60 36t76 12.5zM403 613h217v-31h-473v31h222v148h34v-148zM750 403v-428h-34v810h34
v-351h132v-31h-132zM836 820q66 -97 96.5 -204.5t30.5 -235.5q0 -129 -30.5 -236t-96.5 -204l-25 11q63 91 90.5 202.5t27.5 226.5q0 114 -27.5 226t-90.5 203z" />
    <glyph glyph-name="cid431" unicode="&#x321c;" horiz-adv-x="1000" 
d="M494 695h-265v31h563v-31h-264v-17q0 -29 15 -55.5t40.5 -50.5t58.5 -44t68 -35.5t69.5 -26.5t64.5 -16l-14 -28q-43 9 -92 26.5t-93.5 42.5t-80.5 57.5t-53 70.5q-17 -38 -53 -70.5t-80.5 -57.5t-93.5 -42.5t-92 -26.5l-14 28q29 5 64 16t70 26.5t68 35.5t58.5 44
t40.5 50.5t15 55.5v17zM189 809q-63 -91 -90.5 -203t-27.5 -226q0 -115 27.5 -226.5t90.5 -202.5l-25 -11q-66 97 -96.5 204t-30.5 236q0 128 30.5 235.5t96.5 204.5zM528 313v-339h-34v339h-341v31h715v-31h-340zM836 820q66 -97 96.5 -204.5t30.5 -235.5
q0 -129 -30.5 -236t-96.5 -204l-25 11q63 91 90.5 202.5t27.5 226.5q0 114 -27.5 226t-90.5 203z" />
    <glyph glyph-name="cid432" unicode="&#x3260;" horiz-adv-x="1000" 
d="M698 554v-412h-34v381h-394v31h428zM960 380q0 -95 -36 -179t-98.5 -146.5t-146.5 -98.5t-179 -36t-179 36t-146.5 98.5t-98.5 146.5t-36 179t36 179t98.5 146.5t146.5 98.5t179 36t179 -36t146.5 -98.5t98.5 -146.5t36 -179zM500 814q-90 0 -169 -34t-138 -93t-93 -138
t-34 -169t34 -169t93 -138t138 -93t169 -34t169 34t138 93t93 138t34 169t-34 169t-93 138t-138 93t-169 34z" />
    <glyph glyph-name="cid433" unicode="&#x3261;" horiz-adv-x="1000" 
d="M353 227h382v-31h-416v402h34v-371zM500 -54q90 0 169 34t138 93t93 138t34 169t-34 169t-93 138t-138 93t-169 34t-169 -34t-138 -93t-93 -138t-34 -169t34 -169t93 -138t138 -93t169 -34zM500 840q95 0 179 -36t146.5 -98.5t98.5 -146.5t36 -179t-36 -179t-98.5 -146.5
t-146.5 -98.5t-179 -36t-179 36t-146.5 98.5t-98.5 146.5t-36 179t36 179t98.5 146.5t146.5 98.5t179 36z" />
    <glyph glyph-name="cid434" unicode="&#x3262;" horiz-adv-x="1000" 
d="M327 199h387v-31h-421v403h412v-31h-378v-341zM500 -54q90 0 169 34t138 93t93 138t34 169t-34 169t-93 138t-138 93t-169 34t-169 -34t-138 -93t-93 -138t-34 -169t34 -169t93 -138t138 -93t169 -34zM500 840q95 0 179 -36t146.5 -98.5t98.5 -146.5t36 -179t-36 -179
t-98.5 -146.5t-146.5 -98.5t-179 -36t-179 36t-146.5 98.5t-98.5 146.5t-36 179t36 179t98.5 146.5t146.5 98.5t179 36z" />
    <glyph glyph-name="cid435" unicode="&#x3263;" horiz-adv-x="1000" 
d="M326 192h407v-31h-440v234h379v173h-382v31h415v-235h-379v-172zM500 -54q90 0 169 34t138 93t93 138t34 169t-34 169t-93 138t-138 93t-169 34t-169 -34t-138 -93t-93 -138t-34 -169t34 -169t93 -138t138 -93t169 -34zM500 840q95 0 179 -36t146.5 -98.5t98.5 -146.5
t36 -179t-36 -179t-98.5 -146.5t-146.5 -98.5t-179 -36t-179 36t-146.5 98.5t-98.5 146.5t-36 179t36 179t98.5 146.5t146.5 98.5t179 36z" />
    <glyph glyph-name="cid436" unicode="&#x3264;" horiz-adv-x="1000" 
d="M704 553v-387h-412v387h412zM326 522v-325h344v325h-344zM960 380q0 -95 -36 -179t-98.5 -146.5t-146.5 -98.5t-179 -36t-179 36t-146.5 98.5t-98.5 146.5t-36 179t36 179t98.5 146.5t146.5 98.5t179 36t179 -36t146.5 -98.5t98.5 -146.5t36 -179zM500 814
q-90 0 -169 -34t-138 -93t-93 -138t-34 -169t34 -169t93 -138t138 -93t169 -34t169 34t138 93t93 138t34 169t-34 169t-93 138t-138 93t-169 34z" />
    <glyph glyph-name="cid437" unicode="&#x3265;" horiz-adv-x="1000" 
d="M321 581v-177h349v177h34v-435h-417v435h34zM321 177h349v196h-349v-196zM960 380q0 -95 -36 -179t-98.5 -146.5t-146.5 -98.5t-179 -36t-179 36t-146.5 98.5t-98.5 146.5t-36 179t36 179t98.5 146.5t146.5 98.5t179 36t179 -36t146.5 -98.5t98.5 -146.5t36 -179z
M500 814q-90 0 -169 -34t-138 -93t-93 -138t-34 -169t34 -169t93 -138t138 -93t169 -34t169 34t138 93t93 138t34 169t-34 169t-93 138t-138 93t-169 34z" />
    <glyph glyph-name="cid438" unicode="&#x3266;" horiz-adv-x="1000" 
d="M516 447q0 -39 19 -77t50.5 -71t72.5 -59t85 -41l-19 -28q-38 14 -73 34.5t-64.5 47t-52 57.5t-35.5 65q-12 -34 -33.5 -65.5t-50 -58t-63 -47.5t-71.5 -35l-20 29q44 15 84 41t70.5 59t48.5 71.5t18 77.5v141h34v-141zM500 -54q90 0 169 34t138 93t93 138t34 169
t-34 169t-93 138t-138 93t-169 34t-169 -34t-138 -93t-93 -138t-34 -169t34 -169t93 -138t138 -93t169 -34zM500 840q95 0 179 -36t146.5 -98.5t98.5 -146.5t36 -179t-36 -179t-98.5 -146.5t-146.5 -98.5t-179 -36t-179 36t-146.5 98.5t-98.5 146.5t-36 179t36 179
t98.5 146.5t146.5 98.5t179 36z" />
    <glyph glyph-name="cid439" unicode="&#x3267;" horiz-adv-x="1000" 
d="M498 559q48 0 88 -14t68.5 -40t44.5 -62t16 -79q0 -44 -16 -79.5t-44.5 -61.5t-68.5 -40t-88 -14t-88 14t-68.5 40t-44.5 61.5t-16 79.5q0 43 16 79t44.5 62t68.5 40t88 14zM498 532q-40 0 -74 -13t-58.5 -35.5t-38.5 -53.5t-14 -66t14 -65.5t38.5 -53t58.5 -35.5t74 -13
t73.5 13t58.5 35.5t39 53t14 65.5t-14 66t-39 53.5t-58.5 35.5t-73.5 13zM960 380q0 -95 -36 -179t-98.5 -146.5t-146.5 -98.5t-179 -36t-179 36t-146.5 98.5t-98.5 146.5t-36 179t36 179t98.5 146.5t146.5 98.5t179 36t179 -36t146.5 -98.5t98.5 -146.5t36 -179zM500 814
q-90 0 -169 -34t-138 -93t-93 -138t-34 -169t34 -169t93 -138t138 -93t169 -34t169 34t138 93t93 138t34 169t-34 169t-93 138t-138 93t-169 34z" />
    <glyph glyph-name="cid440" unicode="&#x3268;" horiz-adv-x="1000" 
d="M516 453q0 -40 18.5 -76.5t49 -67.5t71 -54.5t85.5 -36.5l-19 -29q-76 25 -136.5 74t-85.5 115q-25 -66 -85.5 -115t-136.5 -74l-19 29q45 13 85.5 36.5t71 54.5t49 67.5t18.5 76.5v68h-199v31h435v-31h-202v-68zM500 -54q90 0 169 34t138 93t93 138t34 169t-34 169
t-93 138t-138 93t-169 34t-169 -34t-138 -93t-93 -138t-34 -169t34 -169t93 -138t138 -93t169 -34zM500 840q95 0 179 -36t146.5 -98.5t98.5 -146.5t36 -179t-36 -179t-98.5 -146.5t-146.5 -98.5t-179 -36t-179 36t-146.5 98.5t-98.5 146.5t-36 179t36 179t98.5 146.5
t146.5 98.5t179 36z" />
    <glyph glyph-name="cid441" unicode="&#x3269;" horiz-adv-x="1000" 
d="M517 426q0 -36 17 -70t45.5 -63.5t67 -52t81.5 -35.5l-18 -29q-37 12 -70 30.5t-60 42t-47.5 51t-32.5 57.5q-12 -30 -32.5 -57.5t-47.5 -51t-60 -42t-70 -30.5l-18 29q43 13 81.5 35.5t67 52t45.5 63.5t17 70v40h-199v31h199v126h34v-126h202v-31h-202v-40zM500 -54
q90 0 169 34t138 93t93 138t34 169t-34 169t-93 138t-138 93t-169 34t-169 -34t-138 -93t-93 -138t-34 -169t34 -169t93 -138t138 -93t169 -34zM500 840q95 0 179 -36t146.5 -98.5t98.5 -146.5t36 -179t-36 -179t-98.5 -146.5t-146.5 -98.5t-179 -36t-179 36t-146.5 98.5
t-98.5 146.5t-36 179t36 179t98.5 146.5t146.5 98.5t179 36z" />
    <glyph glyph-name="cid442" unicode="&#x326a;" horiz-adv-x="1000" 
d="M293 560h416v-416h-34v205l-399 -25l-8 36l407 20v149h-382v31zM500 -54q90 0 169 34t138 93t93 138t34 169t-34 169t-93 138t-138 93t-169 34t-169 -34t-138 -93t-93 -138t-34 -169t34 -169t93 -138t138 -93t169 -34zM500 840q95 0 179 -36t146.5 -98.5t98.5 -146.5
t36 -179t-36 -179t-98.5 -146.5t-146.5 -98.5t-179 -36t-179 36t-146.5 98.5t-98.5 146.5t-36 179t36 179t98.5 146.5t146.5 98.5t179 36z" />
    <glyph glyph-name="cid443" unicode="&#x326b;" horiz-adv-x="1000" 
d="M327 191h387v-31h-421v404h412v-31h-378v-157h377v-31h-377v-154zM500 -54q90 0 169 34t138 93t93 138t34 169t-34 169t-93 138t-138 93t-169 34t-169 -34t-138 -93t-93 -138t-34 -169t34 -169t93 -138t138 -93t169 -34zM500 840q95 0 179 -36t146.5 -98.5t98.5 -146.5
t36 -179t-36 -179t-98.5 -146.5t-146.5 -98.5t-179 -36t-179 36t-146.5 98.5t-98.5 146.5t-36 179t36 179t98.5 146.5t146.5 98.5t179 36z" />
    <glyph glyph-name="cid444" unicode="&#x326c;" horiz-adv-x="1000" 
d="M404 218h186v293h-186v-293zM624 218h123v-31h-501v31h124v293h-100v31h454v-31h-100v-293zM500 -54q90 0 169 34t138 93t93 138t34 169t-34 169t-93 138t-138 93t-169 34t-169 -34t-138 -93t-93 -138t-34 -169t34 -169t93 -138t138 -93t169 -34zM500 840q95 0 179 -36
t146.5 -98.5t98.5 -146.5t36 -179t-36 -179t-98.5 -146.5t-146.5 -98.5t-179 -36t-179 36t-146.5 98.5t-98.5 146.5t-36 179t36 179t98.5 146.5t146.5 98.5t179 36z" />
    <glyph glyph-name="cid445" unicode="&#x326d;" horiz-adv-x="1000" 
d="M500 132q31 0 58 10t46.5 27.5t30.5 41t11 49.5t-11 49.5t-30.5 41t-46.5 27.5t-58 10t-58 -10t-46.5 -27.5t-30.5 -41t-11 -49.5t11 -49.5t30.5 -41t46.5 -27.5t58 -10zM500 418q38 0 71 -12t57.5 -33t38.5 -50t14 -63q0 -35 -14 -64t-38.5 -50t-57.5 -32.5t-71 -11.5
t-71 11.5t-57.5 32.5t-38.5 50t-14 64q0 34 14 63t38.5 50t57.5 33t71 12zM516 516h240v-31h-516v31h242v114h34v-114zM500 -54q90 0 169 34t138 93t93 138t34 169t-34 169t-93 138t-138 93t-169 34t-169 -34t-138 -93t-93 -138t-34 -169t34 -169t93 -138t138 -93t169 -34z
M500 840q95 0 179 -36t146.5 -98.5t98.5 -146.5t36 -179t-36 -179t-98.5 -146.5t-146.5 -98.5t-179 -36t-179 36t-146.5 98.5t-98.5 146.5t-36 179t36 179t98.5 146.5t146.5 98.5t179 36z" />
    <glyph glyph-name="cid446" unicode="&#x326e;" horiz-adv-x="1000" 
d="M500 636q0 -72 -20.5 -141t-59.5 -132t-94.5 -118.5t-124.5 -100.5l-23 27q62 39 113.5 87.5t89 104t59.5 116.5t26 126h-253v31h287zM842 434v-31h-140v-375h-34v715h34v-309h140zM500 -54q90 0 169 34t138 93t93 138t34 169t-34 169t-93 138t-138 93t-169 34t-169 -34
t-138 -93t-93 -138t-34 -169t34 -169t93 -138t138 -93t169 -34zM500 840q95 0 179 -36t146.5 -98.5t98.5 -146.5t36 -179t-36 -179t-98.5 -146.5t-146.5 -98.5t-179 -36t-179 36t-146.5 98.5t-98.5 146.5t-36 179t36 179t98.5 146.5t146.5 98.5t179 36z" />
    <glyph glyph-name="cid447" unicode="&#x326f;" horiz-adv-x="1000" 
d="M252 218q80 0 162.5 7t176.5 27l6 -32q-98 -20 -180.5 -27t-164.5 -7h-53v446h34v-414h19zM844 434v-31h-132v-375h-34v715h34v-309h132zM500 -54q90 0 169 34t138 93t93 138t34 169t-34 169t-93 138t-138 93t-169 34t-169 -34t-138 -93t-93 -138t-34 -169t34 -169
t93 -138t138 -93t169 -34zM500 840q95 0 179 -36t146.5 -98.5t98.5 -146.5t36 -179t-36 -179t-98.5 -146.5t-146.5 -98.5t-179 -36t-179 36t-146.5 98.5t-98.5 146.5t-36 179t36 179t98.5 146.5t146.5 98.5t179 36z" />
    <glyph glyph-name="cid448" unicode="&#x3270;" horiz-adv-x="1000" 
d="M250 224q52 0 96 1t84.5 4t80 8t81.5 14l6 -31q-44 -9 -84 -14.5t-81.5 -8.5t-86 -4t-96.5 -1h-54v439h340v-31h-306v-376h20zM842 404v-31h-133v-345h-34v715h34v-339h133zM500 -54q90 0 169 34t138 93t93 138t34 169t-34 169t-93 138t-138 93t-169 34t-169 -34
t-138 -93t-93 -138t-34 -169t34 -169t93 -138t138 -93t169 -34zM500 840q95 0 179 -36t146.5 -98.5t98.5 -146.5t36 -179t-36 -179t-98.5 -146.5t-146.5 -98.5t-179 -36t-179 36t-146.5 98.5t-98.5 146.5t-36 179t36 179t98.5 146.5t146.5 98.5t179 36z" />
    <glyph glyph-name="cid449" unicode="&#x3271;" horiz-adv-x="1000" 
d="M241 214q50 0 92.5 1t82 4t77.5 8t80 14l3 -31q-42 -8 -81 -13.5t-78.5 -8.5t-82.5 -4t-93 -1h-51v262h279v172h-282v31h315v-234h-279v-200h18zM842 434v-31h-140v-375h-34v715h34v-309h140zM500 -54q90 0 169 34t138 93t93 138t34 169t-34 169t-93 138t-138 93t-169 34
t-169 -34t-138 -93t-93 -138t-34 -169t34 -169t93 -138t138 -93t169 -34zM500 840q95 0 179 -36t146.5 -98.5t98.5 -146.5t36 -179t-36 -179t-98.5 -146.5t-146.5 -98.5t-179 -36t-179 36t-146.5 98.5t-98.5 146.5t-36 179t36 179t98.5 146.5t146.5 98.5t179 36z" />
    <glyph glyph-name="cid450" unicode="&#x3272;" horiz-adv-x="1000" 
d="M234 229h236v386h-236v-386zM198 648h308v-451h-308v451zM842 434v-31h-140v-375h-34v715h34v-309h140zM500 -54q90 0 169 34t138 93t93 138t34 169t-34 169t-93 138t-138 93t-169 34t-169 -34t-138 -93t-93 -138t-34 -169t34 -169t93 -138t138 -93t169 -34zM500 840
q95 0 179 -36t146.5 -98.5t98.5 -146.5t36 -179t-36 -179t-98.5 -146.5t-146.5 -98.5t-179 -36t-179 36t-146.5 98.5t-98.5 146.5t-36 179t36 179t98.5 146.5t146.5 98.5t179 36z" />
    <glyph glyph-name="cid451" unicode="&#x3273;" horiz-adv-x="1000" 
d="M479 436h-248v-234h248v234zM479 664h34v-494h-316v494h34v-196h248v196zM842 434v-31h-136v-375h-34v715h34v-309h136zM500 -54q90 0 169 34t138 93t93 138t34 169t-34 169t-93 138t-138 93t-169 34t-169 -34t-138 -93t-93 -138t-34 -169t34 -169t93 -138t138 -93
t169 -34zM500 840q95 0 179 -36t146.5 -98.5t98.5 -146.5t36 -179t-36 -179t-98.5 -146.5t-146.5 -98.5t-179 -36t-179 36t-146.5 98.5t-98.5 146.5t-36 179t36 179t98.5 146.5t146.5 98.5t179 36z" />
    <glyph glyph-name="cid452" unicode="&#x3274;" horiz-adv-x="1000" 
d="M376 565q0 -56 14.5 -109.5t40.5 -100.5t63 -84t81 -60l-24 -27q-69 39 -119 108.5t-72 156.5q-22 -87 -72 -156.5t-119 -108.5l-24 27q44 23 80.5 60t63 84t41 100.5t14.5 109.5v115h32v-115zM842 434v-31h-140v-375h-34v715h34v-309h140zM500 -54q90 0 169 34t138 93
t93 138t34 169t-34 169t-93 138t-138 93t-169 34t-169 -34t-138 -93t-93 -138t-34 -169t34 -169t93 -138t138 -93t169 -34zM500 840q95 0 179 -36t146.5 -98.5t98.5 -146.5t36 -179t-36 -179t-98.5 -146.5t-146.5 -98.5t-179 -36t-179 36t-146.5 98.5t-98.5 146.5t-36 179
t36 179t98.5 146.5t146.5 98.5t179 36z" />
    <glyph glyph-name="cid453" unicode="&#x3275;" horiz-adv-x="1000" 
d="M352 208q30 0 54.5 16t42 44.5t26.5 68t9 85.5t-9 85t-26.5 67.5t-42 45t-54.5 16.5t-54.5 -16.5t-42 -45t-26.5 -67.5t-9 -85t9 -85.5t26.5 -68t42 -44.5t54.5 -16zM352 666q38 0 68.5 -17t52.5 -49t33.5 -77t11.5 -101t-11.5 -101t-33.5 -77t-52.5 -49t-68.5 -17
t-68.5 17t-52.5 49t-33.5 77t-11.5 101t11.5 101t33.5 77t52.5 49t68.5 17zM832 434v-31h-140v-375h-34v715h34v-309h140zM500 -54q90 0 169 34t138 93t93 138t34 169t-34 169t-93 138t-138 93t-169 34t-169 -34t-138 -93t-93 -138t-34 -169t34 -169t93 -138t138 -93
t169 -34zM500 840q95 0 179 -36t146.5 -98.5t98.5 -146.5t36 -179t-36 -179t-98.5 -146.5t-146.5 -98.5t-179 -36t-179 36t-146.5 98.5t-98.5 146.5t-36 179t36 179t98.5 146.5t146.5 98.5t179 36z" />
    <glyph glyph-name="cid454" unicode="&#x3276;" horiz-adv-x="1000" 
d="M397 510q0 -43 13.5 -85.5t38.5 -81t60 -69t77 -49.5l-21 -26q-68 32 -116 91t-68 129q-20 -70 -68 -129t-116 -91l-21 27q42 18 77 49t60 69t38.5 80.5t13.5 85.5v106h-170v32h373v-32h-171v-106zM842 434v-31h-138v-375h-34v715h34v-309h138zM500 -54q90 0 169 34
t138 93t93 138t34 169t-34 169t-93 138t-138 93t-169 34t-169 -34t-138 -93t-93 -138t-34 -169t34 -169t93 -138t138 -93t169 -34zM500 840q95 0 179 -36t146.5 -98.5t98.5 -146.5t36 -179t-36 -179t-98.5 -146.5t-146.5 -98.5t-179 -36t-179 36t-146.5 98.5t-98.5 146.5
t-36 179t36 179t98.5 146.5t146.5 98.5t179 36z" />
    <glyph glyph-name="cid455" unicode="&#x3277;" horiz-adv-x="1000" 
d="M390 461q0 -37 13.5 -74.5t38.5 -71t59.5 -60.5t76.5 -43l-21 -29q-67 29 -115 81t-68 114q-21 -62 -68.5 -114t-115.5 -81l-20 29q42 16 76.5 43t59.5 60.5t38.5 71t13.5 74.5v70h-165v31h164v123h34v-123h156v-31h-157v-70zM842 434v-31h-140v-375h-34v715h34v-309h140
zM500 -54q90 0 169 34t138 93t93 138t34 169t-34 169t-93 138t-138 93t-169 34t-169 -34t-138 -93t-93 -138t-34 -169t34 -169t93 -138t138 -93t169 -34zM500 840q95 0 179 -36t146.5 -98.5t98.5 -146.5t36 -179t-36 -179t-98.5 -146.5t-146.5 -98.5t-179 -36t-179 36
t-146.5 98.5t-98.5 146.5t-36 179t36 179t98.5 146.5t146.5 98.5t179 36z" />
    <glyph glyph-name="cid456" unicode="&#x3278;" horiz-adv-x="1000" 
d="M526 638q0 -73 -18 -143t-56 -133.5t-96.5 -119.5t-139.5 -101l-26 24q98 51 162 119t98 146l-264 -26l-11 34l287 23q26 72 29 146h-268v31h303zM842 414v-31h-140v-355h-34v715h34v-329h140zM500 -54q90 0 169 34t138 93t93 138t34 169t-34 169t-93 138t-138 93
t-169 34t-169 -34t-138 -93t-93 -138t-34 -169t34 -169t93 -138t138 -93t169 -34zM500 840q95 0 179 -36t146.5 -98.5t98.5 -146.5t36 -179t-36 -179t-98.5 -146.5t-146.5 -98.5t-179 -36t-179 36t-146.5 98.5t-98.5 146.5t-36 179t36 179t98.5 146.5t146.5 98.5t179 36z
" />
    <glyph glyph-name="cid457" unicode="&#x3279;" horiz-adv-x="1000" 
d="M240 228q53 0 98 1t86.5 4t81.5 8.5t83 14.5l5 -32q-45 -9 -85.5 -14.5t-82.5 -8.5t-87 -4t-99 -1h-54v468h336v-33h-302v-178h277v-32h-277v-193h20zM842 434v-31h-140v-375h-34v715h34v-309h140zM500 -54q90 0 169 34t138 93t93 138t34 169t-34 169t-93 138t-138 93
t-169 34t-169 -34t-138 -93t-93 -138t-34 -169t34 -169t93 -138t138 -93t169 -34zM500 840q95 0 179 -36t146.5 -98.5t98.5 -146.5t36 -179t-36 -179t-98.5 -146.5t-146.5 -98.5t-179 -36t-179 36t-146.5 98.5t-98.5 146.5t-36 179t36 179t98.5 146.5t146.5 98.5t179 36z
" />
    <glyph glyph-name="cid458" unicode="&#x327a;" horiz-adv-x="1000" 
d="M299 226l72.5 2t73.5 3v371h-146v-376zM479 233q35 2 69 4.5t64 6.5l1 -27q-55 -8 -117.5 -13t-125 -8t-121 -4t-105.5 -1l-6 33h60t67 1v377h-95v31h402v-31h-93v-369zM847 434v-31h-135v-375h-34v715h34v-309h135zM500 -54q90 0 169 34t138 93t93 138t34 169t-34 169
t-93 138t-138 93t-169 34t-169 -34t-138 -93t-93 -138t-34 -169t34 -169t93 -138t138 -93t169 -34zM500 840q95 0 179 -36t146.5 -98.5t98.5 -146.5t36 -179t-36 -179t-98.5 -146.5t-146.5 -98.5t-179 -36t-179 36t-146.5 98.5t-98.5 146.5t-36 179t36 179t98.5 146.5
t146.5 98.5t179 36z" />
    <glyph glyph-name="cid459" unicode="&#x327b;" horiz-adv-x="1000" 
d="M382 206q28 0 52.5 9.5t42.5 26t28 38.5t10 47t-10 47.5t-28 39t-42.5 26t-52.5 9.5q-29 0 -53 -9.5t-42 -26t-28 -39t-10 -47.5t10 -47t28 -38.5t42 -26t53 -9.5zM382 476q35 0 65 -11t52 -30.5t34.5 -47t12.5 -60.5t-12.5 -60.5t-34.5 -47t-52 -30t-65 -10.5t-65 10.5
t-52 30t-34.5 47t-12.5 60.5t12.5 60.5t34.5 47t52 30.5t65 11zM403 578h194v-31h-430v31h202v113h34v-113zM845 434v-31h-133v-375h-34v715h34v-309h133zM500 -54q90 0 169 34t138 93t93 138t34 169t-34 169t-93 138t-138 93t-169 34t-169 -34t-138 -93t-93 -138t-34 -169
t34 -169t93 -138t138 -93t169 -34zM500 840q95 0 179 -36t146.5 -98.5t98.5 -146.5t36 -179t-36 -179t-98.5 -146.5t-146.5 -98.5t-179 -36t-179 36t-146.5 98.5t-98.5 146.5t-36 179t36 179t98.5 146.5t146.5 98.5t179 36z" />
    <glyph glyph-name="cid460" unicode="&#x327f;" horiz-adv-x="1000" 
d="M40 380q0 95 36 179t98.5 146.5t146.5 98.5t179 36q87 0 165 -30.5t138.5 -84t100.5 -126t51 -156.5h-26q-11 79 -49 146.5t-95 117.5t-130 78.5t-155 28.5q-89 0 -166.5 -33t-136 -90t-93.5 -133.5t-38 -163.5h177v-28h-203v14zM334 642h39v-282h2l270 282h46l-178 -189
l198 -322h-43l-181 295l-114 -117v-178h-39v511zM500 -80q-87 0 -165 30.5t-139 83.5t-100.5 126t-51.5 157h26q12 -79 49.5 -146.5t95 -117.5t130.5 -78.5t155 -28.5q88 0 165.5 32.5t136 89.5t93.5 133.5t38 164.5h-258v28h285v-14q0 -96 -36.5 -180t-99 -146t-146.5 -98
t-178 -36z" />
    <glyph glyph-name="cid461" unicode="&#x33c2;" horiz-adv-x="1000" 
d="M217 -13q-29 0 -55 8.5t-45.5 25.5t-30.5 44t-11 64q0 88 74.5 133.5t231.5 65.5q1 32 -4 64t-18.5 57.5t-37.5 41.5t-61 16q-23 0 -44.5 -6t-39.5 -15.5t-32.5 -21t-24.5 -21.5l-19 28q10 9 26.5 21t37.5 22.5t46 17.5t53 7q42 0 71 -16t47.5 -43t26.5 -63t8 -76v-341
h-30l-5 70h-2q-35 -36 -76.5 -59.5t-85.5 -23.5zM220 20q41 0 79.5 22t81.5 67v189q-75 -10 -126.5 -24.5t-83 -35t-45.5 -47.5t-14 -60q0 -30 8.5 -51.5t23.5 -34.5t34.5 -19t41.5 -6zM562 526h30l2 -64h4q18 36 40.5 56t57.5 20t51.5 -23t24.5 -59q18 38 41.5 60t56.5 22
q42 0 65 -34.5t23 -105.5v-398h-36v394q0 57 -15.5 84.5t-42.5 27.5t-46.5 -24.5t-39.5 -71.5v-410h-36v394q0 53 -12.5 82.5t-41.5 29.5q-26 0 -47.5 -24.5t-42.5 -71.5v-410h-36v526z" />
    <glyph glyph-name="cid462" unicode="&#x33c7;" horiz-adv-x="1000" 
d="M283 -12q-48 0 -88.5 24t-70.5 71t-47 117.5t-17 163.5q0 94 18 164t48.5 116.5t72 70t88.5 23.5q46 0 79 -23.5t55 -52.5l-26 -26q-20 30 -46.5 49t-61.5 19q-39 0 -73 -21t-59.5 -63.5t-40 -106.5t-14.5 -149q0 -86 14 -150t38.5 -106.5t58.5 -64t74 -21.5
q38 0 67.5 19.5t58.5 60.5l26 -22q-32 -44 -67.5 -68t-86.5 -24zM664 -12q-36 0 -67.5 17t-55.5 51t-37.5 85.5t-13.5 120.5q0 70 13.5 121.5t37.5 86t55.5 51.5t67.5 17t67.5 -17t55 -51.5t37.5 -86t14 -121.5q0 -69 -14 -120.5t-37.5 -85.5t-55 -51t-67.5 -17zM664 20
q28 0 53 16t43.5 47t29 76t10.5 103t-10.5 103t-29 76.5t-43.5 48t-53 16.5t-53 -16.5t-43.5 -48t-29 -76.5t-10.5 -103t10.5 -103t29 -76t43.5 -47t53 -16zM920 -12q-15 0 -27.5 10.5t-12.5 31.5t12.5 33.5t27.5 12.5t27.5 -12.5t12.5 -33.5t-12.5 -31.5t-27.5 -10.5z" />
    <glyph glyph-name="cid463" unicode="&#x33d8;" horiz-adv-x="1000" 
d="M562 526h30l2 -64h4q18 36 40.5 56t57.5 20t51.5 -23t24.5 -59q18 38 41.5 60t56.5 22q42 0 65 -34.5t23 -105.5v-398h-36v394q0 57 -15.5 84.5t-42.5 27.5t-46.5 -24.5t-39.5 -71.5v-410h-36v394q0 53 -12.5 82.5t-41.5 29.5q-26 0 -47.5 -24.5t-42.5 -71.5v-410h-36
v526zM124 90q18 -22 35.5 -35.5t33 -21t29.5 -10.5t26 -3q33 0 61 18.5t49 51.5t32.5 79t11.5 101q0 50 -7 93.5t-23.5 75t-43 49.5t-64.5 18q-32 0 -66.5 -21t-73.5 -71v-324zM88 526h30l6 -68h2q30 36 67 58t75 22q43 0 75.5 -19t54 -54t32 -84.5t10.5 -110.5
q0 -67 -15.5 -119.5t-42 -89t-61.5 -56t-75 -19.5q-29 0 -59.5 15t-62.5 51v-276h-36v750z" />
    <glyph glyph-name="cid464" unicode="&#xac00;" 
d="M504 717q0 -89 -25 -174.5t-75.5 -163.5t-127 -145t-180.5 -119l-18 28q93 46 164.5 106t121 130t76.5 148t31 160h-359v30h392zM884 406h-160v-473h-33v883h33v-380h160v-30z" />
    <glyph glyph-name="cid465" unicode="&#xac01;" 
d="M500 752q0 -79 -29.5 -147.5t-84 -124.5t-132 -99t-172.5 -71l-14 29q87 25 158 62.5t122.5 86t81.5 107.5t35 127h-362v30h397zM177 248h557v-315h-33v285h-524v30zM878 544h-144v-251h-33v522h33v-241h144v-30z" />
    <glyph glyph-name="cid466" unicode="&#xac04;" 
d="M500 745q0 -81 -31 -153t-86.5 -132t-132.5 -107t-168 -79l-14 29q82 28 152.5 69.5t123 94t84 115t36.5 133.5h-363v30h399zM237 -13h545v-30h-578v267h33v-237zM878 526v-30h-144v-339h-33v659h33v-290h144z" />
    <glyph glyph-name="cid467" unicode="&#xac07;" 
d="M501 752q0 -79 -29.5 -147.5t-84.5 -125t-132.5 -100t-173.5 -70.5l-13 28q87 25 158 63t123 86.5t81.5 108t34.5 127.5h-362v30h398zM231 -23h521v-30h-554v303h538v-30h-505v-243zM878 578v-30h-144v-241h-33v508h33v-237h144z" />
    <glyph glyph-name="cid468" unicode="&#xac08;" 
d="M498 762q0 -78 -30.5 -144.5t-85.5 -120.5t-131.5 -94t-168.5 -65l-15 29q85 22 155.5 57t122.5 81t82.5 103t34.5 124h-362v30h398zM232 -28h540v-30h-572v207h502v133h-505v30h537v-193h-502v-147zM878 595v-30h-144v-208h-33v459h33v-221h144z" />
    <glyph glyph-name="cid469" unicode="&#xac09;" 
d="M498 759q0 -78 -30.5 -145t-85 -121t-131.5 -95t-170 -66l-14 29q85 23 155.5 58.5t122.5 82t82 103.5t35 124h-359v30h395zM206 -26q42 0 78.5 0.5t71 3t69 6.5t72.5 11l5 -30q-39 -7 -74.5 -11.5t-70.5 -6.5t-71.5 -3t-79.5 -1h-46v196h245v121h-248v30h280v-180h-245
v-136h14zM476 290h258v-354h-33v324h-225v30zM879 560h-145v-227h-33v482h33v-225h145v-30z" />
    <glyph glyph-name="cid470" unicode="&#xac0a;" 
d="M498 759q0 -78 -30.5 -144.5t-85.5 -120.5t-131.5 -94t-168.5 -65l-15 29q85 22 155.5 57t122 81t82 103t35.5 124h-358v30h394zM187 -26q39 0 71 0.5t61 2t57 5t59 9.5l5 -30q-32 -6 -61 -9.5t-58.5 -5.5t-62 -2.5t-71.5 -0.5h-41v199h233v118h-236v30h268v-178h-233
v-138h9zM505 -32h197v293h-197v-293zM473 290h261v-351h-261v351zM878 558h-144v-225h-33v482h33v-227h144v-30z" />
    <glyph glyph-name="cid471" unicode="&#xac10;" 
d="M501 752q0 -79 -29.5 -147.5t-84.5 -125t-132.5 -100t-173.5 -70.5l-13 29q87 25 158 62.5t123 86t81.5 108t34.5 127.5h-362v30h398zM229 -22h472v251h-472v-251zM196 259h538v-311h-538v311zM878 548h-144v-241h-33v508h33v-237h144v-30z" />
    <glyph glyph-name="cid472" unicode="&#xac11;" 
d="M500 756q0 -78 -30 -145.5t-85 -122t-132 -95t-171 -65.5l-14 28q85 23 156 58.5t122.5 82.5t82 104.5t35.5 124.5h-364v30h400zM701 126h-473v-150h473v150zM701 293h33v-346h-539v346h33v-138h473v138zM878 558h-144v-219h-33v477h33v-228h144v-30z" />
    <glyph glyph-name="cid473" unicode="&#xac12;" 
d="M500 756q0 -78 -30 -145t-85 -121.5t-132.5 -95.5t-171.5 -66l-13 29q85 23 156 58.5t123 82t82.5 104t34.5 124.5h-360v30h396zM419 128h-220v-153h220v153zM419 289h33v-344h-286v344h33v-131h220v131zM675 218q0 -33 11 -70t32 -72t51.5 -65t69.5 -49l-20 -26
q-62 32 -102 86t-58 114q-17 -60 -58 -114t-103 -86l-20 26q39 18 69.5 47.5t51.5 64t32.5 71t11.5 70.5v81h32v-78zM878 592v-30h-144v-227h-33v481h33v-224h144z" />
    <glyph glyph-name="cid474" unicode="&#xac13;" 
d="M500 745q0 -80 -29.5 -150.5t-84 -129.5t-131 -105t-169.5 -76l-16 28q85 27 156 67.5t123 92t82 113t34 130.5h-362v30h397zM499 245q0 -58 31 -104.5t77.5 -81t100.5 -57.5t101 -33l-15 -27q-43 11 -90.5 30t-91 47.5t-78.5 66t-52 84.5q-17 -48 -51.5 -86.5t-79 -67
t-93 -47.5t-91.5 -30l-15 27q47 10 102 32.5t102 57.5t78.5 82.5t31.5 106.5v52h33v-52zM878 550v-30h-106v-293h-33v293h-14v30h14v268h33v-268h106z" />
    <glyph glyph-name="cid475" unicode="&#xac14;" 
d="M501 752q0 -79 -29.5 -147.5t-84 -125t-132.5 -100t-174 -70.5l-12 28q87 25 158 63t122.5 86.5t81.5 108t34 127.5h-362v30h398zM658 198q0 -34 15 -68.5t40.5 -65t60.5 -55t75 -38.5l-17 -27q-67 26 -118 75t-71 108q-9 -27 -24 -54.5t-35.5 -53t-47 -46.5t-57.5 -36
q-66 27 -108 77.5t-58 110.5q-11 -28 -29.5 -55t-43 -50.5t-53.5 -43t-62 -32.5l-17 27q40 15 74.5 40.5t60.5 56.5t41 64.5t15 65.5v86h31v-86q0 -33 10 -65.5t29 -62.5t46.5 -55.5t62.5 -42.5q35 19 62.5 47t47 59t29.5 62.5t10 57.5v86h31v-86zM878 572v-30h-144v-224
h-33v499h33v-245h144z" />
    <glyph glyph-name="cid476" unicode="&#xac15;" 
d="M501 743q0 -80 -30 -150.5t-85 -129t-132.5 -103.5t-171.5 -74l-14 29q85 27 156.5 66t123 89.5t82 111.5t35.5 131h-362v30h398zM467 -33q55 0 100 9.5t77.5 27t50 41.5t17.5 54t-17.5 54t-50 41.5t-77.5 27t-100 9.5t-100.5 -9.5t-77.5 -27t-50 -41.5t-18 -54t18 -54
t50 -41.5t77.5 -27t100.5 -9.5zM467 260q64 0 115.5 -11t87.5 -31.5t55 -50.5t19 -68t-19 -68t-55 -50.5t-87.5 -31.5t-115.5 -11q-129 0 -203.5 42.5t-74.5 118.5t74.5 118.5t203.5 42.5zM878 565v-30h-144v-264h-33v545h33v-251h144z" />
    <glyph glyph-name="cid477" unicode="&#xac16;" 
d="M500 752q0 -79 -29.5 -147.5t-84.5 -125.5t-132 -100t-173 -71l-13 29q87 25 158 62.5t123 86.5t81.5 108.5t34.5 127.5h-362v30h397zM488 204q0 -46 29.5 -86t74 -71.5t96 -53.5t95.5 -32l-15 -26q-41 10 -86.5 28t-87 44.5t-74.5 60t-49 73.5q-16 -41 -48.5 -74.5
t-74 -59.5t-86.5 -44t-86 -28l-16 26q44 10 95.5 31.5t96 53t74 71.5t29.5 87v11h-266v30h564v-30h-265v-11zM878 566v-30h-144v-241h-33v522h33v-251h144z" />
    <glyph glyph-name="cid478" unicode="&#xac17;" 
d="M498 751q0 -78 -29 -146t-83 -123.5t-130.5 -98t-171.5 -69.5l-16 29q88 24 159 61t122 85t80 106.5t33 125.5h-360v30h396zM486 203q0 -31 14 -59t37.5 -53t54 -46t63.5 -38t66.5 -29t62.5 -18l-16 -27q-41 10 -86.5 29t-87.5 45t-75.5 60t-49.5 74q-16 -40 -49.5 -74
t-75 -60t-87 -45t-85.5 -29l-17 27q29 6 62.5 18t66.5 29t63.5 38t54 46t37.5 53t14 59v3h-272v30h272v122h33v-122h273v-30h-273v-3zM878 590v-30h-144v-235h-33v490h33v-225h144z" />
    <glyph glyph-name="cid479" unicode="&#xac19;" 
d="M500 751q0 -78 -30 -146t-85 -123.5t-132 -97.5t-171 -68l-14 30q85 23 156 59.5t123 84t82 106t35 125.5h-365v30h401zM234 -23h527v-30h-560v342h539v-30h-506v-122h494v-30h-494v-130zM878 587v-30h-144v-223h-33v481h33v-228h144z" />
    <glyph glyph-name="cid480" unicode="&#xac1a;" 
d="M500 751q0 -79 -32.5 -147.5t-88.5 -124t-133 -97.5t-165 -68l-13 29q80 24 150.5 60.5t123.5 84.5t85 106.5t37 126.5h-361v30h397zM358 -17h234v248h-234v-248zM625 -17h149v-30h-596v30h147v248h-139v30h578v-30h-139v-248zM878 581v-30h-144v-240h-33v503h33v-233
h144z" />
    <glyph glyph-name="cid481" unicode="&#xac1b;" 
d="M501 755q0 -78 -30 -146t-85 -123.5t-132.5 -97.5t-171.5 -68l-14 30q85 23 156.5 59.5t123 84t82 105.5t34.5 126h-361v30h398zM482 -36q95 0 151 25t56 70q0 44 -56 69.5t-151 25.5q-96 0 -152.5 -25.5t-56.5 -69.5q0 -45 56.5 -70t152.5 -25zM482 182
q112 0 175.5 -31.5t63.5 -91.5t-63.5 -91.5t-175.5 -31.5q-113 0 -177 31.5t-64 91.5t64 91.5t177 31.5zM498 267h288v-30h-609v30h288v122h33v-122zM878 600v-30h-144v-227h-33v473h33v-216h144z" />
    <glyph glyph-name="cid482" unicode="&#xac1c;" 
d="M432 696q0 -77 -17.5 -155t-57 -151.5t-105 -140t-161.5 -119.5l-20 26q87 46 148 105t100 125.5t58 137.5t22 142h-305v30h338zM799 816v-883h-33v475h-163v-426h-33v810h33v-354h163v378h33z" />
    <glyph glyph-name="cid483" unicode="&#xac1d;" 
d="M445 746q0 -75 -24 -143t-68.5 -128t-109 -109.5t-145.5 -86.5l-20 26q74 33 133.5 76.5t102 96t67.5 112.5t29 126h-304v30h339zM222 244h572v-311h-33v281h-539v30zM794 815v-523h-33v253h-159v-246h-33v500h33v-224h159v240h33z" />
    <glyph glyph-name="cid484" unicode="&#xac20;" 
d="M602 190h-33v608h33v-272h159v288h33v-658h-33v340h-159v-306zM444 727q0 -74 -23.5 -142.5t-68.5 -128.5t-109.5 -110.5t-146.5 -87.5l-19 26q74 33 134 77t102.5 97t67.5 113t29 126h-305v30h339zM825 -3v-30h-587v273h33v-243h554z" />
    <glyph glyph-name="cid485" unicode="&#xac24;" 
d="M602 359h-33v439h33v-204h159v221h33v-463h-33v212h-159v-205zM445 760q0 -72 -24 -136.5t-69.5 -119.5t-110 -99t-145.5 -75l-18 26q74 28 133.5 66.5t102.5 85.5t68 103t29 119h-305v30h339zM833 -23v-30h-600v204h529v125h-532v30h564v-185h-529v-144h568z" />
    <glyph glyph-name="cid486" unicode="&#xac2c;" 
d="M445 746q0 -75 -24.5 -142.5t-69.5 -126t-109 -106.5t-144 -83l-21 26q73 31 132.5 73.5t103 93.5t68.5 110t29 125h-305v30h340zM267 -23h494v247h-494v-247zM234 254h560v-307h-560v307zM794 815v-509h-33v244h-159v-238h-33v487h33v-219h159v235h33z" />
    <glyph glyph-name="cid487" unicode="&#xac2d;" 
d="M445 750q0 -148 -91 -262t-257 -182l-19 27q75 30 134.5 70t102 89.5t67 106.5t28.5 121h-304v30h339zM762 129h-492v-152h492v152zM762 290h32v-343h-557v343h33v-131h492v131zM794 814v-481h-33v220h-159v-213h-33v458h33v-215h159v231h33z" />
    <glyph glyph-name="cid488" unicode="&#xac2f;" 
d="M602 317h-33v481h33v-234h159v250h33v-577h-33v297h-159v-217zM445 727q0 -149 -87.5 -272t-260.5 -199l-19 27q158 68 241 175t91 239h-300v30h335zM529 222q0 -35 15 -66t40.5 -58t58.5 -49t68 -39t70 -28.5t65 -17.5l-15 -27q-42 9 -91 28t-94 46.5t-81 64t-53 81.5
q-17 -45 -53 -81.5t-81 -64t-94 -46.5t-91 -28l-14 27q29 6 64 17.5t70 28.5t68 39t58.5 49t40.5 58t15 66v51h34v-51z" />
    <glyph glyph-name="cid489" unicode="&#xac30;" 
d="M602 304h-33v495h33v-224h159v240h33v-518h-33v248h-159v-241zM445 746q0 -74 -24.5 -141.5t-69.5 -126t-109 -106.5t-144 -84l-20 27q73 31 132.5 73t102.5 93t68 110.5t29 124.5h-303v30h338zM674 187q0 -34 14.5 -68.5t40.5 -65t60.5 -55t75.5 -39.5l-17 -27
q-68 26 -118.5 75.5t-70.5 108.5q-9 -27 -24 -54.5t-35.5 -53t-47 -46.5t-57.5 -36q-66 27 -108 77.5t-58 110.5q-23 -57 -72.5 -106t-115.5 -76l-17 27q40 15 74.5 40.5t60.5 56.5t41 65t15 66v78h31v-78q0 -33 10 -66t29 -63t46.5 -55.5t62.5 -42.5q34 19 62 47.5t47 59.5
t29.5 62.5t10.5 57.5v78h31v-78z" />
    <glyph glyph-name="cid490" unicode="&#xac31;" 
d="M602 294h-33v504h33v-238h159v255h33v-555h-33v270h-159v-236zM445 735q0 -74 -24.5 -142t-69.5 -126.5t-109 -106.5t-144 -84l-20 26q73 31 132.5 73.5t102.5 94t68 111t29 124.5h-304v30h339zM514 -34q58 0 106 9t82.5 25.5t53 40t18.5 52.5q0 28 -18.5 51.5t-53 40
t-82.5 25.5t-106 9q-59 0 -107 -9t-82 -25.5t-52.5 -40t-18.5 -51.5q0 -29 18.5 -52.5t52.5 -40t82 -25.5t107 -9zM514 248q138 0 215.5 -40.5t77.5 -114.5q0 -75 -77.5 -115.5t-215.5 -40.5t-215.5 40.5t-77.5 115.5q0 74 77.5 114.5t215.5 40.5z" />
    <glyph glyph-name="cid491" unicode="&#xac38;" 
d="M504 717q0 -89 -25 -174.5t-75.5 -163.5t-127 -145t-180.5 -119l-18 28q93 46 164.5 106t121 130t76.5 148t31 160h-359v30h392zM724 530v-236h158v-30h-158v-331h-33v883h33v-256h158v-30h-158z" />
    <glyph glyph-name="cid492" unicode="&#xac39;" 
d="M500 752q0 -79 -29.5 -147.5t-84 -125t-132 -99.5t-172.5 -70l-14 29q87 25 158 62.5t122.5 86t81.5 107.5t35 127h-362v30h397zM177 248h557v-315h-33v285h-524v30zM734 632v-160h144v-30h-144v-149h-33v522h33v-153h144v-30h-144z" />
    <glyph glyph-name="cid493" unicode="&#xac3c;" 
d="M500 745q0 -81 -31 -153t-86.5 -132t-132.5 -107.5t-168 -78.5l-14 28q82 28 152.5 69.5t123 94t84 115.5t36.5 134h-363v30h399zM237 -13h545v-30h-578v267h33v-237zM734 600v-190h144v-30h-144v-223h-33v659h33v-186h144v-30h-144z" />
    <glyph glyph-name="cid494" unicode="&#xac40;" 
d="M498 762q0 -78 -30.5 -144.5t-85.5 -120.5t-131.5 -94t-168.5 -65l-15 29q85 22 155.5 57t122.5 81t82.5 103t34.5 124h-362v30h398zM232 -28h540v-30h-572v207h502v133h-505v30h537v-193h-502v-147zM734 653v-146h144v-30h-144v-120h-33v459h33v-133h144v-30h-144z" />
    <glyph glyph-name="cid495" unicode="&#xac4b;" 
d="M500 745q0 -80 -29.5 -150.5t-84 -129.5t-131 -105t-169.5 -76l-16 28q85 27 156 67.5t123 92t82 113t34 130.5h-362v30h397zM499 243q0 -58 31 -104.5t78 -81t101 -57.5t101 -33l-17 -26q-43 11 -90.5 30t-91 47t-78 65.5t-51.5 85.5q-17 -49 -51.5 -87t-79 -66.5
t-93 -48t-91.5 -30.5l-15 27q47 10 102 32.5t102 57.5t78.5 82.5t31.5 106.5v52h33v-52zM734 615v-186h145v-30h-145v-174h-33v591h33v-171h145v-30h-145z" />
    <glyph glyph-name="cid496" unicode="&#xac4d;" 
d="M501 743q0 -80 -30 -150t-85 -128.5t-132.5 -103.5t-171.5 -75l-14 29q85 27 156.5 66.5t123 90t82 111.5t35.5 130h-362v30h398zM467 -33q55 0 100 9.5t77.5 27t50 41.5t17.5 54t-17.5 54t-50 41.5t-77.5 27t-100 9.5t-100.5 -9.5t-77.5 -27t-50 -41.5t-18 -54t18 -54
t50 -41.5t77.5 -27t100.5 -9.5zM467 260q64 0 115.5 -11t87.5 -31.5t55 -50.5t19 -68t-19 -68t-55 -50.5t-87.5 -31.5t-115.5 -11q-129 0 -203.5 42.5t-74.5 118.5t74.5 118.5t203.5 42.5zM734 625v-168h144v-30h-144v-156h-33v545h33v-161h144v-30h-144z" />
    <glyph glyph-name="cid497" unicode="&#xac54;" 
d="M432 696q0 -77 -17.5 -155t-57 -151.5t-105 -140t-161.5 -119.5l-20 26q87 46 148 105t100 125.5t58 137.5t22 142h-305v30h338zM766 317v221h-163v-221h163zM799 816v-883h-33v354h-163v-305h-33v810h33v-224h163v248h33z" />
    <glyph glyph-name="cid498" unicode="&#xac58;" 
d="M602 601v-189h159v189h-159zM602 189h-33v609h33v-167h159v183h33v-658h-33v226h-159v-193zM444 727q0 -75 -23.5 -143.5t-68.5 -128.5t-109.5 -110.5t-146.5 -87.5l-19 26q74 33 134 77t102.5 97t67.5 113.5t29 126.5h-305v30h339zM825 -3v-30h-587v272h33v-242h554z
" />
    <glyph glyph-name="cid499" unicode="&#xac5c;" 
d="M602 645v-139h159v139h-159zM602 358h-33v440h33v-123h159v140h33v-463h-33v124h-159v-118zM445 762q0 -73 -24 -138t-69 -120t-110 -100t-146 -77l-18 26q74 28 134 67.5t102.5 87.5t67.5 104.5t29 119.5h-305v30h339zM833 -32v-30h-600v203h529v131h-532v30h564v-191
h-529v-143h568z" />
    <glyph glyph-name="cid500" unicode="&#xac70;" 
d="M495 717q0 -88 -24 -173.5t-73.5 -162.5t-125.5 -144.5t-181 -119.5l-22 26q96 46 168 106.5t120.5 130.5t74.5 148t30 159h-358v30h391zM771 816v-883h-33v483h-242v30h242v370h33z" />
    <glyph glyph-name="cid501" unicode="&#xac71;" 
d="M509 752q0 -79 -30.5 -148t-85.5 -125.5t-132 -99.5t-170 -70l-17 28q85 25 156.5 63t124 86.5t83 108t35.5 127.5h-356v30h392zM195 249h577v-315h-33v285h-544v30zM772 814v-522h-33v245h-232v30h232v247h33z" />
    <glyph glyph-name="cid502" unicode="&#xac74;" 
d="M739 497h-231v30h231v288h33v-659h-33v341zM507 745q0 -81 -31 -153t-86 -132t-131 -107.5t-167 -79.5l-16 28q82 29 152.5 70.5t123 94.5t83.5 115.5t36 133.5h-353v30h389zM795 -13v-30h-559v267h33v-237h526z" />
    <glyph glyph-name="cid503" unicode="&#xac77;" 
d="M739 558v256h33v-508h-33v222h-232v30h232zM508 752q0 -79 -30.5 -148t-86 -125.5t-132.5 -99.5t-171 -70l-13 28q85 25 156.5 62.5t123.5 86.5t83 108.5t35 127.5h-356v30h391zM789 -23v-30h-572v301h557v-30h-524v-241h539z" />
    <glyph glyph-name="cid504" unicode="&#xac78;" 
d="M739 549h-230v30h230v237h33v-463h-33v196zM506 762q0 -78 -30.5 -144.5t-85.5 -120t-131.5 -93.5t-168.5 -65l-14 29q84 22 154.5 57t122.5 81t82.5 103t34.5 123h-352v30h388zM813 -28v-30h-590v207h517v130h-520v30h552v-189h-517v-148h558z" />
    <glyph glyph-name="cid505" unicode="&#xac7a;" 
d="M214 -22q40 0 73 0.5t63 2.5t58 5t60 9l5 -30q-33 -6 -62 -9.5t-59 -5.5t-63.5 -2.5t-74.5 -0.5h-41v197h237v121h-240v30h272v-181h-237v-136h9zM505 762q0 -78 -30.5 -145t-85.5 -121t-131.5 -94t-168.5 -65l-14 28q84 22 154.5 57t122.5 81.5t82.5 104t34.5 124.5
h-352v30h388zM540 -24h200v290h-200v-290zM508 295h264v-348h-264v348zM772 816v-477h-33v215h-233v30h233v232h33z" />
    <glyph glyph-name="cid506" unicode="&#xac80;" 
d="M509 752q0 -79 -30.5 -148t-85.5 -125t-132 -99t-170 -70l-16 28q85 25 156.5 62.5t124 86t83 108t34.5 127.5h-356v30h392zM248 -22h492v256h-492v-256zM216 263h556v-315h-556v315zM772 814v-512h-33v238h-232v30h232v244h33z" />
    <glyph glyph-name="cid507" unicode="&#xac81;" 
d="M508 756q0 -78 -30.5 -145t-85.5 -121.5t-132.5 -95.5t-170.5 -66l-14 29q85 23 156.5 58.5t123.5 82t82.5 104t34.5 124.5h-354v30h390zM739 126h-488v-150h488v150zM739 293h32v-346h-553v346h33v-138h488v138zM771 816v-473h-33v202h-229v30h229v241h33z" />
    <glyph glyph-name="cid508" unicode="&#xac83;" 
d="M739 521h-229v30h229v264h33v-609h-33v315zM509 743q0 -80 -31 -151t-86.5 -129.5t-131.5 -104.5t-166 -76l-16 28q82 27 152.5 67.5t123 91.5t84 112.5t36.5 131.5h-356v30h391zM517 242q0 -58 31 -104.5t78 -81t101 -57.5t101 -33l-16 -27q-43 11 -90.5 30t-91 47.5
t-78.5 66t-52 85.5q-17 -49 -51.5 -87t-79 -66.5t-93 -48t-91.5 -30.5l-15 27q47 10 102 32.5t102 57.5t78.5 82.5t31.5 106.5v51h33v-51z" />
    <glyph glyph-name="cid509" unicode="&#xac84;" 
d="M739 542h-229v30h229v242h33v-512h-33v240zM509 752q0 -79 -30.5 -148t-85.5 -125t-132 -99t-170 -70l-17 27q85 25 156.5 63t124 86.5t83 108t35.5 127.5h-350v30h386zM664 198q0 -34 14.5 -68.5t40.5 -64.5t60.5 -54.5t75.5 -39.5l-18 -27q-68 26 -118 74.5t-70 107.5
q-19 -55 -61 -107.5t-105 -81.5q-66 26 -108 76.5t-59 110.5q-11 -28 -29.5 -54.5t-42.5 -50t-53.5 -43t-62.5 -32.5l-17 27q40 15 74.5 41t60.5 56.5t41 64t15 65.5v86h31v-86q0 -33 10 -65.5t29.5 -62.5t47 -55.5t62.5 -42.5q35 19 63 47t47.5 58.5t30 62t10.5 58.5v86h31
v-86z" />
    <glyph glyph-name="cid510" unicode="&#xac85;" 
d="M739 544v271h33v-549h-33v248h-232v30h232zM510 743q0 -80 -31.5 -150.5t-87.5 -129t-132.5 -103.5t-166.5 -74l-17 29q82 26 153 65.5t124 90t85 111.5t37 131h-356v30h392zM491 -34q57 0 103.5 9.5t79.5 26.5t51.5 41t18.5 54t-18.5 54t-51.5 41t-79.5 26.5t-103.5 9.5
t-104 -9.5t-80 -26.5t-51.5 -41t-18.5 -54t18.5 -54t51.5 -41t80 -26.5t104 -9.5zM491 257q133 0 209 -42t76 -118t-76 -118t-209 -42q-134 0 -210 42t-76 118t76 118t210 42z" />
    <glyph glyph-name="cid511" unicode="&#xac86;" 
d="M739 566v248h33v-517h-33v239h-230v30h230zM524 752q0 -80 -31.5 -149t-87.5 -125.5t-135 -99.5t-173 -70l-15 29q86 24 158.5 61.5t126 86.5t85 108.5t36.5 128.5h-371v30h407zM522 204q0 -47 30 -87t74.5 -71.5t96.5 -53.5t96 -31l-15 -26q-42 10 -87.5 28t-87 44
t-74.5 59.5t-49 74.5q-16 -41 -49 -74.5t-74.5 -59.5t-87.5 -44t-87 -28l-17 26q44 9 96 30.5t97 53t75 72t30 87.5v11h-266v30h563v-30h-264v-11z" />
    <glyph glyph-name="cid512" unicode="&#xac89;" 
d="M739 541h-225v30h225v244h33v-490h-33v216zM508 751q0 -78 -30 -146t-85 -123.5t-132.5 -97t-171.5 -67.5l-15 29q86 23 157.5 59.5t123.5 84t82 105.5t35 126h-355v30h391zM794 -23v-30h-569v341h550v-30h-517v-122h507v-30h-507v-129h536z" />
    <glyph glyph-name="cid513" unicode="&#xac8a;" 
d="M739 568v246h33v-508h-33v232h-232v30h232zM509 751q0 -79 -31 -147t-86.5 -123.5t-132.5 -97.5t-169 -68l-14 28q84 24 155 60.5t123.5 84.5t83.5 106.5t35 126.5h-356v30h392zM378 -23h227v252h-227v-252zM791 -23v-30h-595v30h149v252h-142v30h577v-30h-142v-252h153z
" />
    <glyph glyph-name="cid514" unicode="&#xac8b;" 
d="M739 584v232h33v-473h-33v211h-233v30h233zM507 756q0 -79 -30 -146.5t-85 -123t-131.5 -97t-169.5 -67.5l-16 28q85 24 156 60t123 84t82 106t35 126h-353v30h389zM494 -35q96 0 152.5 25t56.5 70q0 44 -56.5 69.5t-152.5 25.5t-152 -25.5t-56 -69.5q0 -45 56 -70
t152 -25zM494 183q113 0 177 -31.5t64 -91.5t-64 -91.5t-177 -31.5t-176.5 31.5t-63.5 91.5t63.5 91.5t176.5 31.5zM799 266v-30h-609v30h289v116h33v-116h287z" />
    <glyph glyph-name="cid515" unicode="&#xac8c;" 
d="M585 789h33v-805h-33v419h-228q-43 -78 -108 -147.5t-156 -124.5l-22 26q76 46 135.5 104t101 124t64.5 137.5t27 143.5h-302v30h335q0 -66 -15 -133t-46 -130h214v356zM799 816v-883h-33v883h33z" />
    <glyph glyph-name="cid516" unicode="&#xac90;" 
d="M794 146h-33v668h33v-668zM378 487q-46 -71 -117 -129t-165 -100l-19 26q75 33 135.5 76.5t104 96.5t69 113.5t29.5 126.5h-310v30h344q0 -114 -54 -210h195v278h33v-622h-33v314h-212zM824 -13v-30h-587v273h33v-243h554z" />
    <glyph glyph-name="cid517" unicode="&#xac94;" 
d="M794 352h-33v463h33v-463zM391 553q-45 -73 -119.5 -129.5t-174.5 -95.5l-19 25q75 28 135.5 67t104 87t69 104.5t29.5 120.5h-310v30h344q0 -95 -43 -179h183v212h33v-436h-33v194h-199zM833 -23v-30h-600v200h529v125h-532v30h564v-185h-529v-140h568z" />
    <glyph glyph-name="cid518" unicode="&#xac9c;" 
d="M388 528q-45 -75 -119.5 -136t-171.5 -103l-20 26q74 31 134.5 73t104 93t69 110.5t30.5 124.5h-310v30h344q0 -51 -11.5 -97.5t-33.5 -90.5h186v237h33v-477h-33v210h-202zM266 -22h496v252h-496v-252zM234 259h560v-311h-560v311zM794 815v-509h-33v509h33z" />
    <glyph glyph-name="cid519" unicode="&#xac9d;" 
d="M387 531q-44 -73 -118 -130.5t-174 -99.5l-18 25q154 61 241.5 162t95.5 232h-308v30h342q0 -51 -11.5 -98.5t-33.5 -90.5h187v233h33v-458h-33v195h-203zM762 127h-492v-152h492v152zM762 288h32v-343h-557v343h33v-131h492v131zM794 814v-485h-33v485h33z" />
    </font>
</defs>
</svg>
