<svg id="Layer_1" data-name="Layer 1" xmlns="http://www.w3.org/2000/svg" width="100" height="100" viewBox="0 0 100 100"><path d="M39.82,20H26.61C23,20,20,22.69,20,26V36c0,3.31,3,6,6.61,6H39.82c3.6,0,6.6-2.69,6.6-6V26C46.42,22.69,43.46,20,39.82,20ZM34.31,36h-2.2a5.27,5.27,0,0,1-5.5-5,5.27,5.27,0,0,1,5.5-5h2.2a5.28,5.28,0,0,1,5.51,5A5.28,5.28,0,0,1,34.31,36Z" fill="#fff"/><path d="M59.63,42H72.84c3.61,0,6.61-2.69,6.61-6V26c0-3.31-3-6-6.61-6H59.6C56,20,53,22.69,53,26V36C53,39.31,56,42,59.63,42Zm5.51-16h2.2a5.27,5.27,0,0,1,5.5,5,5.27,5.27,0,0,1-5.5,5h-2.2a5.28,5.28,0,0,1-5.51-5A5.28,5.28,0,0,1,65.14,26Z" fill="#fff"/><path d="M39.82,48H26.61C23,48,20,50.69,20,54V64c0,3.31,3,6,6.61,6H39.82c3.6,0,6.6-2.69,6.6-6V54C46.42,50.69,43.46,48,39.82,48ZM34.31,64h-2.2a5,5,0,0,1,0-10h2.2a5,5,0,0,1,0,10Z" fill="#fff"/><path d="M79.78,67.63a1.15,1.15,0,0,0-.27-.27l-2.31-1.9a1.78,1.78,0,0,0-2.3,0L71,68.69c-.66.56-1.81.21-1.81-.63V49.4A1.6,1.6,0,0,0,67.57,48H64.28a1.65,1.65,0,0,0-1.65,1.4V68.06c0,.84-1.15,1.19-1.81.63L57,65.46a1.8,1.8,0,0,0-2.31,0l-2.27,1.9a1.15,1.15,0,0,0-.29,1.6,1.33,1.33,0,0,0,.29.29L64.77,79.58a1.78,1.78,0,0,0,2.3,0L79.51,69.25A1.17,1.17,0,0,0,79.78,67.63Z" fill="#fff"/></svg>