<?xml version="1.0" encoding="UTF-8"?><svg xmlns="http://www.w3.org/2000/svg" width="20" height="20" viewBox="0 0 20 20"><title>italic</title><path d="M13.509 12.003l1.726.25c-.545 1.562-1.341 2.745-2.385 3.545A5.64 5.64 0 019.333 17c-1.587 0-2.844-.502-3.776-1.505-.923-1.005-1.39-2.442-1.39-4.316 0-2.438.708-4.452 2.12-6.047C7.547 3.712 9.11 3 10.98 3c1.383 0 2.502.385 3.357 1.155.86.77 1.359 1.803 1.495 3.103l-1.63.157c-.172-.98-.528-1.708-1.068-2.188-.534-.49-1.225-.735-2.076-.735-1.596 0-2.887.735-3.873 2.205-.855 1.267-1.283 2.772-1.283 4.514 0 1.392.33 2.454.99 3.187.658.732 1.516 1.098 2.573 1.098.91 0 1.726-.303 2.45-.915.734-.607 1.259-1.47 1.597-2.585"/></svg>