<svg viewBox="0 0 24 24" xmlns="http://www.w3.org/2000/svg"><path d="M4.5 10C2.567 10 1 8.433 1 6.5C1 4.567 2.567 3 4.5 3C6.433 3 8 4.567 8 6.5C8 8.433 6.433 10 4.5 10ZM4.5 8C5.32843 8 6 7.32843 6 6.5C6 5.67157 5.32843 5 4.5 5C3.67157 5 3 5.67157 3 6.5C3 7.32843 3.67157 8 4.5 8ZM22 10H20C20 7.79086 18.2091 6 16 6C13.7909 6 12 7.79086 12 10V15C12 17.2091 13.7909 19 16 19C18.2091 19 20 17.2091 20 15H22C22 18.3137 19.3137 21 16 21C12.6863 21 10 18.3137 10 15V10C10 6.68629 12.6863 4 16 4C19.3137 4 22 6.68629 22 10Z"/></svg>