<?xml version="1.0" encoding="iso-8859-1"?>
<!-- Generator: Adobe Illustrator 19.0.0, SVG Export Plug-In . SVG Version: 6.00 Build 0)  -->
<svg version="1.1" id="Capa_1" xmlns="http://www.w3.org/2000/svg" xmlns:xlink="http://www.w3.org/1999/xlink" x="0px" y="0px"
	 viewBox="0 0 511.999 511.999" style="enable-background:new 0 0 511.999 511.999;" xml:space="preserve">
<path style="fill:#FD003A;" d="M458.217,276.92l49.389-49.389c5.858-5.858,5.858-15.354,0-21.211
	c-5.857-5.858-15.354-5.858-21.211,0l-49.39,49.39l-49.39-49.39c-5.857-5.858-15.354-5.858-21.211,0
	c-5.858,5.858-5.858,15.354,0,21.211l49.389,49.389l-49.389,49.389c-5.858,5.858-5.858,15.354,0,21.211
	c2.929,2.929,6.768,4.393,10.605,4.393c3.838,0,7.677-1.464,10.605-4.393l49.39-49.39l49.39,49.39
	c2.929,2.929,6.768,4.393,10.605,4.393c3.838,0,7.677-1.464,10.605-4.393c5.858-5.858,5.858-15.354,0-21.211L458.217,276.92z"/>
<path style="fill:#08469C;" d="M134.99,395.986H44.997C20.186,395.986,0,375.801,0,350.99V161.01
	c0-24.811,20.186-44.997,44.997-44.997h89.993c8.283,0,14.999,6.716,14.999,14.999s-6.715,14.999-14.999,14.999H44.997
	c-8.27,0-14.999,6.729-14.999,14.999v189.98c0,8.27,6.729,14.999,14.999,14.999h89.993c8.283,0,14.999,6.715,14.999,14.999
	S143.273,395.986,134.99,395.986z"/>
<path style="fill:#18A7FC;" d="M284.868,511.996c-10.266,0-20.382-3.571-28.695-10.498L125.388,392.509
	c-3.419-2.85-5.397-7.071-5.397-11.522V131.012c0-4.452,1.978-8.672,5.397-11.522L256.173,10.502
	c13.558-11.298,31.91-13.667,47.891-6.181c15.983,7.485,25.911,23.099,25.911,40.748V466.93c0,17.649-9.928,33.263-25.911,40.748
	C297.882,510.574,291.344,511.996,284.868,511.996z M149.989,373.962l125.388,104.49c6.799,5.667,13.938,3.01,15.964,2.061
	s8.637-4.733,8.637-13.582V45.069c0-8.849-6.611-12.634-8.637-13.583c-2.025-0.949-9.165-3.605-15.964,2.061l-125.388,104.49
	V373.962z"/>
<g>
</g>
<g>
</g>
<g>
</g>
<g>
</g>
<g>
</g>
<g>
</g>
<g>
</g>
<g>
</g>
<g>
</g>
<g>
</g>
<g>
</g>
<g>
</g>
<g>
</g>
<g>
</g>
<g>
</g>
</svg>
