<svg data-name="Layer 1" xmlns="http://www.w3.org/2000/svg" width="52" height="52" viewBox="0 0 52 52"><path d="M23.6,3.6A1.39,1.39,0,0,0,22.1,5V27.6A1.26,1.26,0,0,0,23.5,29h.1A1.31,1.31,0,0,0,25,27.6V4.9A1.29,1.29,0,0,0,23.6,3.6Z" fill="#fff"/><path d="M9.1,3.6H3.5A1.31,1.31,0,0,0,2.1,5V27.6A1.37,1.37,0,0,0,3.5,29H9.1a1.31,1.31,0,0,0,1.4-1.4V4.9A1.41,1.41,0,0,0,9.1,3.6Z" fill="#fff"/><path d="M16.9,3.6H15.5A1.31,1.31,0,0,0,14.1,5V27.6A1.26,1.26,0,0,0,15.5,29h1.4a1.31,1.31,0,0,0,1.4-1.4V4.9A1.24,1.24,0,0,0,16.9,3.6Z" fill="#fff"/><path d="M44.4,24.4v.2l.1.7c.2.1.3.2.5.3l.7-.5.6-.2.5-.2V4.9a1.31,1.31,0,0,0-1.4-1.4H42.6a1.31,1.31,0,0,0-1.4,1.4V20.7A4.67,4.67,0,0,1,44.4,24.4Z" fill="#fff"/><path d="M31.7,25l.5.2a3.33,3.33,0,0,1,.6-.3l.1-.6v-.2A4.9,4.9,0,0,1,37,20.3V4.9a1.34,1.34,0,0,0-1.4-1.3H30A1.31,1.31,0,0,0,28.6,5V24.9a4.3,4.3,0,0,1,1.2-.2A4.9,4.9,0,0,1,31.7,25Z" fill="#fff"/><path d="M47.4,37.8a11.14,11.14,0,0,0,.2-1.7,8.81,8.81,0,0,0-.2-1.7l1.9-1.6a1.8,1.8,0,0,0,.4-2.2l-.8-1.5a1.76,1.76,0,0,0-1.5-.8c-.2,0-.4.1-.6.1l-2.3.9a8.26,8.26,0,0,0-3-1.7l-.4-2.4A1.63,1.63,0,0,0,39.4,24H37.7A1.66,1.66,0,0,0,36,25.2l-.4,2.3a8.51,8.51,0,0,0-3.1,1.7l-2.2-.9a1.08,1.08,0,0,0-.6-.1,1.76,1.76,0,0,0-1.5.8l-.8,1.4a1.83,1.83,0,0,0,.4,2.2l1.9,1.6a11.14,11.14,0,0,0-.2,1.7,8.81,8.81,0,0,0,.2,1.7l-1.9,1.7a1.8,1.8,0,0,0-.4,2.2l.8,1.6a1.76,1.76,0,0,0,1.5.8c.2,0,.4-.1.6-.1l2.3-.9a8.26,8.26,0,0,0,3,1.7l.4,2.5a1.72,1.72,0,0,0,1.7,1.4h1.7a1.72,1.72,0,0,0,1.7-1.4l.4-2.5a8.77,8.77,0,0,0,3.2-1.9l2.2.9a1.27,1.27,0,0,0,.6.1,1.76,1.76,0,0,0,1.5-.8l.7-1.3a1.83,1.83,0,0,0-.4-2.2Zm-8.8,4.1a5.6,5.6,0,1,1,5.6-5.6A5.59,5.59,0,0,1,38.6,41.9Z" fill="#fff"/><path d="M38.5,33.1a3.1,3.1,0,1,0,3.1,3.1A3.1,3.1,0,0,0,38.5,33.1Z" fill="#fff"/></svg>