<svg viewBox="0 0 24 24" xmlns="http://www.w3.org/2000/svg"><path d="M16.0001 17.4724C17.0616 18.4224 18.4634 19.0001 20 19.0001H22V21.0001H20C18.5428 21.0001 17.1766 20.6105 15.9998 19.9298C14.8242 20.6103 13.4576 21.0001 12 21.0001C10.5428 21.0001 9.17657 20.6105 7.99984 19.9298C6.8242 20.6103 5.45763 21.0001 4 21.0001H2V19.0001H4C5.53713 19.0001 6.93925 18.4221 8.00013 17.4724C9.06163 18.4224 10.4634 19.0001 12 19.0001C13.5371 19.0001 14.9393 18.4221 16.0001 17.4724ZM12.5734 1.53216L12.6727 1.61162L23 11.0001H20V17.0001C19.2988 17.0001 18.6258 16.8798 18.0003 16.6588L18 9.1571L12 3.7021L6 9.1561L6.00125 16.6583C5.4648 16.848 4.89325 16.9636 4.29898 16.9928L4 17.0001V11.0001H1L11.3273 1.61162C11.677 1.29377 12.1956 1.26728 12.5734 1.53216Z"/></svg>