<svg xmlns="http://www.w3.org/2000/svg" height="52" width="52" viewBox="0 0 520 520" fill="#fff"><path d="M260 20C128 20 20 128 20 260s108 240 240 240 240-108 240-240S392 20 260 20zm190 216h-63c-2-57-15-106-34-144 53 30 89 82 97 144zM236 78v158h-55c4-75 28-134 55-158zm0 206v158c-27-23-51-82-55-158zm48 158V284h55c-4 75-28 134-55 158zm0-206V78c27 23 51 82 55 158zM167 92c-19 38-31 87-34 144H70c8-62 44-114 97-144zM70 284h63c2 57 15 106 34 144-53-30-89-82-97-144zm283 144c19-38 31-87 34-144h63c-8 62-44 114-97 144z"/></svg>