<svg height="100" viewBox="0 0 100 100" width="100" xmlns="http://www.w3.org/2000/svg"><g fill="#fff"><path d="m53.76 31.24a7.19 7.19 0 0 0 -.85-.7 4.13 4.13 0 0 0 -5.15 6.46l.82.82s0 0-.06 0l-13.52 13.48c-.3.28-.59.57-.8.79a6.85 6.85 0 0 0 -.86 8.15.25.25 0 0 1 0 .07 16 16 0 0 0 6.42 6.36 6.23 6.23 0 0 0 2.57.87 7.1 7.1 0 0 0 5.89-2.18l13.78-13.85a.46.46 0 0 0 .11-.16l.91.91a4.15 4.15 0 1 0 5.73-6z"/><path d="m78.09 28.45c-2.19-2.25-4.42-4.45-6.66-6.66a4.72 4.72 0 0 0 -4-1.38 4.77 4.77 0 0 0 -2.58 8.25c.69.68.31.36 1 1.07l-3.11 3a.83.83 0 0 0 0 1.19c.36.35 2.75 2.74 3.11 3.08a.85.85 0 0 0 1.19 0l3-3.07c.77.78.49.46 1.18 1.14a4.76 4.76 0 1 0 6.81-6.65z"/><path d="m31 66.23c-3.61 3.62-6.56 6.66-10.17 10.28a1.74 1.74 0 1 0 2.5 2.43c3.58-3.57 6.5-6.57 10.08-10.14.07-.07.13-.16.18-.21l-2.47-2.46z"/></g></svg>