<svg xmlns="http://www.w3.org/2000/svg" xmlns:xlink="http://www.w3.org/1999/xlink" viewBox="0 0 329.3 70.35"><defs><style>.cls-1{fill:#fff;}.cls-2{fill:url(#linear-gradient);}</style><linearGradient id="linear-gradient" x1="24.76" y1="66.82" x2="50.96" y2="40.62" gradientUnits="userSpaceOnUse"><stop offset="0" stop-color="#fff" stop-opacity="0.4"/><stop offset="1" stop-color="#fff"/></linearGradient></defs><title>Clover-icon-white-white</title><g id="Layer_2" data-name="Layer 2"><g id="White"><path class="cls-1" d="M138.43,61.55C134.82,63.92,129.1,65,123.12,65c-19,0-29.74-11.44-29.74-29.66,0-17.6,10.74-29.92,29.57-29.92,5.63,0,11.26,1.06,15.4,4v7.66c-4.14-2.64-8.71-4-15.4-4-13.55,0-21.65,9-21.65,22.26s8.36,22.09,22.09,22.09a32.46,32.46,0,0,0,15-3.52Z"/><path class="cls-1" d="M159.29,64.36c-7.22,0-11.79-3.43-11.79-11.53V1.71h7.57V52c0,4,2.64,5.37,5.9,5.37a19.17,19.17,0,0,0,2.2-.09V64A16.11,16.11,0,0,1,159.29,64.36Z"/><path class="cls-1" d="M167.38,42c0-13.2,7.74-22.79,20.94-22.79S209.09,28.81,209.09,42s-7.66,23-20.77,23S167.38,55.21,167.38,42Zm7.39,0c0,8.36,4.14,15.93,13.55,15.93S201.7,50.37,201.7,42s-4-15.75-13.37-15.75S174.77,33.65,174.77,42Z"/><path class="cls-1" d="M211.21,20.1h7.92l14.26,37.58L247.55,20.1h7.92l-17.07,44H228.28Z"/><path class="cls-1" d="M281.25,65c-16.46,0-23.67-9.5-23.67-23,0-13.29,7.39-22.79,20.77-22.79,13.55,0,19,9.42,19,22.79v3.43H265.24c1.06,7.48,5.9,12.32,16.28,12.32a39,39,0,0,0,13.38-2.38v7C291.29,64.27,285.74,65,281.25,65Zm-16.1-26H289.7c-.44-8.18-4.14-12.85-11.7-12.85C270,26.08,265.94,31.27,265.15,38.93Z"/><path class="cls-1" d="M306.33,20.1h7.39v7.74c2.55-5.19,7-8.89,15.58-8.36v7.39c-9.68-1-15.58,1.94-15.58,11.26v26h-7.39Z"/><path class="cls-1" d="M52.76,17.59h0a17.59,17.59,0,0,0-35.18,0,17.59,17.59,0,1,0,0,35.18L29.86,40.49c-1.79-1.79-4.42-2.72-7.82-2.72h0a2.6,2.6,0,1,1,0-5.19h0c6.8,0,10.54-3.74,10.54-10.54a2.6,2.6,0,0,1,5.19,0c0,3.4.94,6,2.72,7.82a8.18,8.18,0,0,0,1.67,1.27L55.48,17.82A17.63,17.63,0,0,0,52.76,17.59Z"/><path class="cls-2" d="M52.76,17.59h0L40.49,29.86c1.79,1.79,4.42,2.72,7.82,2.72h0a2.6,2.6,0,1,1,0,5.19h0c-6.8,0-10.54,3.74-10.54,10.54a2.6,2.6,0,1,1-5.19,0c0-3.4-.94-6-2.72-7.82L17.59,52.76a17.59,17.59,0,1,0,35.18,0,17.59,17.59,0,0,0,0-35.18Z"/></g></g></svg>