<svg xmlns="http://www.w3.org/2000/svg" viewBox="0 0 64 64" enable-background="new 0 0 64 64"><g fill-rule="evenodd"><path fill="#4e94b5" d="m18.28 45.14c.123.065.242.136.359.207.317.055.637.123.952.208 1.589.427 3.175.853 4.781 1.202.107.013.214.033.324.047.352.043.697.096 1.033.16 1.388-.267 2.787-.398 4.197-.344 2.676.099 5.351.192 7.985 1.142 1.75.628 3.5 1.264 5.251 1.899.549-.214 1.101-.409 1.644-.608.575-.058 1.148-.117 1.726-.176-.025-.021-.044-.049-.072-.07-.212-.167-.404-.409-.598-.633-1.014-1.163-1.99-2.419-2.672-4.176-.558-1.45-.855-3.053-.725-4.819.133-1.772.635-3.233 1.355-4.485 1.394-2.421 3.093-3.815 5.076-4.178.81-.149 1.608 0 2.343.67 1.055.964 1.45 2.586 1.476 4.488.013 1.044-.091 2.091-.144 3.164 1.093-1.159 2.112-2.489 2.791-4.414.759-2.15.769-4.311-.063-6.418-.595-1.517-1.436-2.567-2.38-3.386-2.127-1.847-4.424-2.437-6.781-2.577-1.591-.095-3.162.164-4.724.617-1.858.541-3.684 1.322-5.466 2.392-5.4 3.25-10.116 8.417-14.392 14.787-1.137 1.692-2.224 3.466-3.276 5.301m30.21-15.782c.016-.018.032-.038.052-.058.326.004.575.009.575.009l.487.246c-.38-.066-.753-.121-1.114-.197m-5.955-5.724c.446-.128.892-.291 1.342-.379 1.054-.206 2.113-.203 3.165-.014.855.152 1.697.362 2.522.681h-3.372l-.335.293c-.293-.111-.595-.183-.898-.228-.763-.114-1.531-.139-2.296-.204-.041-.002-.078-.012-.121-.018-.003-.042-.003-.087-.007-.131"/><path fill="#f1f1f1" d="m53.791 35.04c.04-.644.129-1.336.116-2.01-.023-1.386-.514-2.188-1.264-2.52-.483-.214-.994-.292-1.464-.425.075-.075.198-.183.311-.315.255-.3.248-.607-.028-.785-.327-.216-.679-.251-1.034-.223-.181.018-.36.041-.549.062.155-.163.315-.306.456-.477.341-.408.337-.827 0-1.165-.344-.344-.729-.494-1.129-.583-.469-.107-.943-.157-1.414-.232-.026-.003-.051-.012-.074-.018 0-.026 0-.053 0-.082.282-.059.564-.14.848-.173.66-.079 1.316-.028 1.96.136 1.307.332 2.564.877 3.634 2.156.286.346.546.797.751 1.28.368.853.374 1.829.105 2.843-.232.874-.884 2.195-1.225 2.535"/></g><path fill="#4490b3" d="m63.774 47.525v8.719c0 4.056-3.076 7.342-6.872 7.342h-50.03c-3.798 0-6.875-3.286-6.875-7.342v-8.719h63.774"/><g fill-rule="evenodd"><path fill="#66b1de" d="m.657 49.753c.929-.639 1.861-1.274 2.796-1.896.633-.42 1.302-.702 1.957-1.046 3.539-1.851 7.17-3.212 10.983-3.599 3.588-.361 7.172-.729 10.84.047 3.716.786 7.434 1.592 11.153 2.394.52.11 1.039.229 1.56.343.009-.052.001-.105.015-.155-.224-.147-.451-.291-.685-.445.386-.804.286-1.869-.473-2.322-.307-.185-.6-.471-.895-.731-1.544-1.365-3.05-2.86-4.242-5.077-.985-1.832-1.643-3.915-1.752-6.298-.109-2.389.323-4.432 1.079-6.233 1.463-3.488 3.505-5.665 6.094-6.515 1.055-.344 2.147-.294 3.234.465 1.563 1.088 2.355 3.179 2.695 5.712.188 1.389.22 2.805.322 4.249 1.271-1.75 2.413-3.712 3.01-6.407.661-3.01.326-5.89-1.125-8.552-1.038-1.909-2.333-3.156-3.725-4.073-3.138-2.073-6.293-2.434-9.464-2.186-2.137.169-4.194.806-6.201 1.7-2.393 1.064-4.703 2.442-6.902 4.202-6.677 5.332-12.13 13.09-16.797 22.386-1.456 2.897-2.809 5.935-4.078 9.07l.606 4.965m28.829-39.535c.576-.254 1.142-.555 1.727-.755 1.373-.469 2.785-.659 4.221-.604 2.905.111 5.794.696 8.577 2.933.752.602 1.476 1.442 2.107 2.374 1.116 1.643 1.528 3.718 1.358 5.988-.146 1.964-1 5.064-1.597 5.942-.166-1.385-.253-2.896-.543-4.33-.604-2.933-1.973-4.413-3.699-4.774-1.111-.233-2.223-.172-3.28-.242.129-.193.351-.475.537-.811.42-.751.278-1.4-.372-1.656-.783-.309-1.542-.226-2.29 0-.373.117-.745.249-1.137.379.271-.419.544-.792.78-1.224.559-1.017.384-1.908-.467-2.472-.866-.571-1.757-.718-2.628-.73-1.038-.012-2.067.099-3.099.156-.054.002-.109-.004-.166-.004-.009-.055-.018-.113-.029-.17"/><path fill="#f1f1f1" d="m45.834 26.1c-.17-1.385-.254-2.896-.548-4.33-.603-2.933-1.97-4.413-3.699-4.774-1.111-.233-2.223-.172-3.277-.242.131-.193.353-.475.539-.811.418-.751.277-1.4-.376-1.656-.778-.309-1.541-.226-2.29 0-.373.117-.745.249-1.136.379.269-.419.545-.792.778-1.224.559-1.017.386-1.908-.464-2.472-.869-.571-1.753-.718-2.635-.73-1.032-.012-2.063.099-3.096.156-.054.002-.112-.004-.164-.004-.007-.057-.02-.115-.032-.172.578-.254 1.146-.555 1.731-.755 1.375-.469 2.782-.659 4.22-.604 2.904.111 5.794.696 8.577 2.933.746.602 1.474 1.442 2.104 2.374 1.118 1.643 1.528 3.718 1.361 5.988-.143 1.966-1 5.066-1.593 5.944"/></g><g fill="#56a4c7"><path d="m.052 44.53c4.576-5.172 9.711-7.222 14.656-6.556 2.619.352 5.202 2.041 7.785 3.113 2.987 1.241 5.667.089 8.628-.771 2.587-.752 5.267-.472 7.826.753 2.991 1.431 5.78 3.992 8.862 3.517 2.665-.409 5.274-2.347 7.94-2.904 2.703-.57 5.418 1.87 8.04 3.35v5.229c-.075-.033-.146-.067-.206-.101-2.651-1.421-5.108-3.46-7.842-2.652-2.653.783-5.224 2.547-7.906 2.722-2.415.153-4.778-1.399-7.104-2.889-2.772-1.771-5.511-2.187-8.343-1.519-2.417.57-4.652 1.779-7.101 1.417-2.601-.385-5.167-2.087-7.736-3.13-5.165-2.098-10.864.091-15.615 5.907-.581.714-1.285.569-1.886-.071v-5.415"/><path d="m.016 47.787c4.582-5.173 9.716-7.222 14.656-6.556 2.621.352 5.202 2.04 7.789 3.113 2.983 1.243 5.665.089 8.627-.772 2.585-.752 5.264-.472 7.825.754 2.988 1.431 5.781 3.992 8.858 3.518 2.667-.411 5.275-2.347 7.939-2.907 2.707-.567 5.419 1.872 8.05 3.354v5.229c-.074-.031-.146-.067-.208-.102-2.652-1.418-5.106-3.456-7.841-2.651-2.652.781-5.226 2.546-7.907 2.722-2.417.153-4.776-1.4-7.104-2.891-2.77-1.771-5.507-2.187-8.341-1.516-2.419.57-4.65 1.778-7.099 1.415-2.603-.387-5.166-2.089-7.738-3.13-5.166-2.098-10.862.093-15.613 5.909-.581.712-1.288.567-1.891-.073v-5.416"/></g><path fill="#66b1de" d="m.052 50.85c4.576-5.173 9.711-7.224 14.656-6.554 2.619.353 5.202 2.039 7.785 3.112 2.987 1.241 5.667.09 8.628-.773 2.587-.753 5.267-.471 7.826.754 2.991 1.431 5.78 3.991 8.862 3.52 2.665-.412 5.274-2.351 7.94-2.91 2.703-.567 5.418 1.876 8.04 3.353v5.229c-.075-.031-.146-.067-.206-.102-2.651-1.419-5.108-3.456-7.842-2.651-2.653.78-5.224 2.55-7.906 2.722-2.415.154-4.778-1.399-7.104-2.891-2.772-1.771-5.511-2.185-8.343-1.516-2.417.57-4.652 1.779-7.101 1.415-2.601-.383-5.167-2.087-7.736-3.131-5.166-2.097-10.865.093-15.616 5.91-.581.712-1.285.569-1.886-.071v-5.416"/></svg>