<svg xmlns="http://www.w3.org/2000/svg" viewBox="0 0 64 64" enable-background="new 0 0 64 64"><g transform="translate(4)"><path d="m15.14 62.44c1.414-1.861-.528-3.279-2.686-4.917-.12-.087-.233-.174-.348-.26l18.03-23.729c.418-.546-.515-1.955-2.071-3.139-1.57-1.185-3.173-1.705-3.584-1.159l-18.03 23.726c-.055-.037-.11-.078-.165-.121-2.156-1.64-3.712-2.876-5.125-1.018-1.308 1.72-.872 4.262.909 5.935-.149 1.558.572 3.257 2.069 4.393 1.481 1.125 3.297 1.372 4.75.834 2.138 1.466 4.885 1.257 6.248-.545" fill="#f0ca94"/><path d="m8.804 61.21c-2.442 1.604-5.167-.313-4.864-2.948-1.602-2.37 3.842-4.628 4-4.515.097-.299.315-.634.63-1.103 1.763-2.688 13.677-18.01 17.829-23.25-.906-.413-1.65-.497-1.915-.154l-18.03 23.726-.165-.121c-2.156-1.64-3.712-2.876-5.125-1.018-1.308 1.72-.872 4.262.909 5.935-.149 1.558.572 3.257 2.069 4.393 1.481 1.125 3.297 1.372 4.75.834 1.114.762 2.393 1.06 3.557.92-1.808-1.447-3.517-2.783-3.646-2.696" fill="#d1ad83"/><path d="m28.21 42.73c9.403-.955 21.622-9.01 25.588-14.238 5.29-6.961 2.741-17.788-5.688-24.2-8.437-6.406-19.558-5.962-24.838.999-3.979 5.231-8.469 19.18-6.86 28.5-1.138-1.018-2.214-1.779-2.595-1.039-.625 1.215-.74 7.05.898 7.788 1.112.507 3.413.463 4.982.001.172.149.339.304.522.448.121.089.242.159.367.243-.001 1.629.564 3.848 1.344 4.78 1.155 1.378 6.735-.295 7.744-1.22.568-.532-.294-1.302-1.464-2.073" fill="#8a5f3d"/><path d="m23.86 35.69c1.346-.646 2.393-1.074 3.881-1.316-1.198.198.484-5.068.638-6.239 1.317-10.08 5.962-20.513 13.532-27.18-7.08-2.497-14.575-1.013-18.645 4.336-3.979 5.231-8.469 19.18-6.86 28.5-1.138-1.018-2.214-1.779-2.595-1.039-.625 1.215-.74 7.05.898 7.788 1.112.507 3.413.463 4.982.001.13.109.254.225.386.335.575-2.234 1.572-4.13 3.783-5.197" fill="#774f36"/></g></svg>