<svg xmlns="http://www.w3.org/2000/svg" viewBox="0 0 64 64" enable-background="new 0 0 64 64"><path fill="#58767d" d="m44.31 13.726c-1.795 5.065 9.61 17.282 13.171 18.551 3.57 1.275 3.069-10.04 3.579-16.289.517-6.444 1.39-12.923-2.185-14.205-3.56-1.261-12.757 6.877-14.565 11.943"/><path fill="#eea85a" d="m44.498 17.86c-1.564 4.386 8.354 14.995 11.442 16.11 3.083 1.097 2.658-8.718 3.103-14.159.448-5.59 1.188-11.215-1.896-12.32-3.106-1.104-11.08 5.957-12.649 10.37"/><path fill="#58767d" d="m20.458 13.726c1.8 5.065-9.606 17.282-13.174 18.551-3.563 1.275-3.067-10.04-3.563-16.289-.536-6.444-1.394-12.923 2.17-14.205 3.563-1.261 12.768 6.877 14.567 11.943"/><path fill="#eea85a" d="m20.264 17.86c1.573 4.386-8.331 14.995-11.418 16.11-3.102 1.096-2.674-8.719-3.118-14.159-.449-5.59-1.188-11.215 1.911-12.32 3.082-1.104 11.08 5.957 12.625 10.37"/><path fill="#7094a6" d="m62.747 37.887c0 17.762-12.363 26.06-30.13 26.06-17.769 0-30.13-8.299-30.13-26.06 0-17.767 12.364-30.13 30.13-30.13 17.764 0 30.13 12.365 30.13 30.13"/><path fill="#5e7d89" d="m15.634 12.396c-8.166 5.147-13.147 14.228-13.147 25.491 0 16.864 11.156 25.18 27.49 25.982-6.644-6.99-18.04-21.996-14.343-51.47"/><path fill="#fff" d="m48.53 31.945c0 5.485-2.972 9.928-6.627 9.928-3.662 0-6.634-4.443-6.634-9.928 0-5.486 2.972-9.926 6.634-9.926 3.656 0 6.627 4.439 6.627 9.926"/><path fill="#25333a" d="m46.19 31.949c0 2.874-1.914 5.194-4.278 5.194-2.376 0-4.295-2.32-4.295-5.194 0-2.878 1.919-5.203 4.295-5.203 2.364 0 4.278 2.325 4.278 5.203"/><g fill="#fff"><path d="m43.15 29.538c0 1.542-.56 2.797-1.247 2.797-.704 0-1.266-1.255-1.266-2.797 0-1.543.562-2.791 1.266-2.791.688 0 1.247 1.247 1.247 2.791"/><path d="m29.968 31.516c0 5.484-2.972 9.928-6.626 9.928-3.663 0-6.635-4.444-6.635-9.928 0-5.487 2.972-9.926 6.635-9.926 3.654 0 6.626 4.439 6.626 9.926"/></g><path fill="#25333a" d="m27.624 31.52c0 2.875-1.915 5.195-4.279 5.195-2.375 0-4.294-2.32-4.294-5.195 0-2.878 1.919-5.202 4.294-5.202 2.363 0 4.279 2.324 4.279 5.202"/><path fill="#fff" d="m24.592 29.11c0 1.542-.56 2.797-1.248 2.797-.703 0-1.265-1.255-1.265-2.797 0-1.543.562-2.791 1.265-2.791.688 0 1.248 1.248 1.248 2.791"/><path fill="#e7e6e6" d="m17.229 48.563c0-5.701 6.475-5.592 15.287-5.592 8.833 0 16.674-.109 16.674 5.592 0 5.697-7.147 10.31-15.986 10.31-8.816 0-15.975-4.612-15.975-10.31"/><path fill="#d1d2d3" d="m25.457 57.33c0-3.678 3.138-3.607 7.417-3.607 4.263 0 8.08-.07 8.08 3.607 0 3.7-3.481 6.693-7.748 6.693-4.275 0-7.751-2.993-7.751-6.693"/><path fill="#ed2e7c" d="m27.391 45.2c0-2.379 2.02-2.331 4.771-2.331 2.765 0 5.22-.048 5.22 2.331 0 2.386-2.24 4.316-4.998 4.316-2.756 0-4.993-1.93-4.993-4.316"/><g fill="#41555b"><path d="m21.571 47.67c-6.648-.04-13.03 1.742-18.954 4.684-1.144.567.278 1.827 1.184 1.379 5.648-2.804 11.661-4.507 17.996-4.47 1.332.008.944-1.586-.226-1.593"/><path d="m22.278 50.15c-5.884 2.072-12.155 3.262-17.14 7.243-.927.74.791 1.745 1.56 1.132 4.833-3.861 11.05-4.988 16.764-6.997 1.187-.418-.255-1.705-1.185-1.378"/><path d="m43.18 47.67c6.648-.04 13.02 1.742 18.955 4.684 1.146.567-.279 1.827-1.184 1.379-5.649-2.804-11.664-4.507-17.997-4.47-1.335.008-.944-1.586.226-1.593"/><path d="m42.471 50.15c5.884 2.072 12.155 3.262 17.14 7.243.927.74-.793 1.745-1.561 1.132-4.834-3.861-11.05-4.988-16.762-6.997-1.19-.418.254-1.705 1.184-1.378"/></g></svg>