<svg xmlns="http://www.w3.org/2000/svg" viewBox="0 0 64 64" enable-background="new 0 0 64 64"><circle fill="#fbb041" cx="32.33" cy="32.32" r="31.674"/><g opacity=".987"><path fill="#e79d3c" d="m14.935 5.764c-8.598 5.661-14.284 15.388-14.284 26.459 0 17.497 14.181 31.672 31.674 31.672.311 0 .616-.038.925-.045-7.259-6.113-27.12-27.512-18.315-58.09"/></g><path fill="#fff" d="m48.813 22.12c0 5.278-2.854 9.549-6.375 9.549-3.523 0-6.38-4.271-6.38-9.549 0-5.275 2.856-9.55 6.38-9.55 3.522 0 6.375 4.275 6.375 9.55"/><ellipse fill="#25333a" cx="42.44" cy="22.12" rx="4.127" ry="5"/><path fill="#fff" d="m28.592 22.12c0 5.278-2.854 9.549-6.375 9.549-3.523 0-6.38-4.271-6.38-9.549 0-5.275 2.856-9.55 6.38-9.55 3.521 0 6.375 4.275 6.375 9.55"/><ellipse fill="#25333a" cx="22.22" cy="22.12" rx="4.128" ry="5"/><path fill="#fff" d="m54 46.5c0 4.143-3.478 7.5-7.768 7.5h-27.964c-4.29 0-7.768-3.357-7.768-7.5l0 0c0-4.143 3.478-7.5 7.768-7.5h27.965c4.289 0 7.767 3.357 7.767 7.5l0 0"/><g fill="#ccc"><path d="m10 45h44v2h-44z"/><path d="m19 37h2v17h-2z"/><path d="m27 37h2v17h-2z"/><path d="m36 37h2v17h-2z"/><path d="m44 37h2v17h-2z"/></g><path fill="#a5692d" d="m46.23 55h-27.964c-5.111 0-9.268-4.04-9.268-9s4.157-9 9.268-9h27.965c5.11 0 9.268 4.04 9.268 9s-4.158 9-9.269 9m-27.964-15c-3.456 0-6.268 2.691-6.268 6s2.812 6 6.268 6h27.965c3.456 0 6.268-2.691 6.268-6s-2.812-6-6.268-6h-27.965"/></svg>