<svg xmlns="http://www.w3.org/2000/svg" viewBox="0 0 64 64" enable-background="new 0 0 64 64"><g transform="translate(.067 6.237)"><g fill="#895a37"><path d="m43.624 58.16v-17.533c0-3.377-5.27-6.112-11.771-6.112-6.506 0-11.78 2.735-11.78 6.112v17.533h23.551"/><path d="m59.38 31.76c0 15.05-12.195 23.274-27.24 23.274-15.05 0-27.24-8.229-27.24-23.274 0-15.04 12.195-32 27.24-32 15.04 0 27.24 16.957 27.24 32"/></g><g fill="#c1976b"><path d="m51.47 38.656c0 10.587-8.585 16.378-19.17 16.378-10.59 0-19.17-5.791-19.17-16.378 0-10.585 8.582-22.52 19.17-22.52 10.582 0 19.17 11.935 19.17 22.52"/><path d="m34.986 25.37c0 6.776-5.493 10.483-12.27 10.483-6.775 0-12.27-3.707-12.27-10.483 0-6.776 5.494-14.416 12.27-14.416 6.778 0 12.27 7.639 12.27 14.416"/><path d="m53.822 25.37c0 6.776-5.496 10.483-12.27 10.483-6.779 0-12.273-3.707-12.273-10.483 0-6.776 5.494-14.416 12.273-14.416 6.774 0 12.27 7.639 12.27 14.416"/></g><path d="m35.14 37.1c0 1.429-1.215 1.404-2.871 1.404-1.664 0-3.142.024-3.142-1.404 0-1.437 1.35-2.596 3.01-2.596 1.656 0 3 1.159 3 2.596" fill="#774e2b"/><path d="m43.867 42.796c0 5.188-5.18 9.389-11.565 9.389-6.383 0-11.573-4.201-11.573-9.389" fill="#633f1a"/><g fill="#7d5233"><path d="m62.988 58.09h-7.93c-.234-1.88-2.112-21.08-2.424-23.646-.625-5.186 6.521-5.993 10.699-5.817.271.011.501.339.466.821-1.532 20.568-.688 28.02-.811 28.642"/><path d="m.919 58.16h7.928c.236-1.88 2.114-21.08 2.426-23.646.624-5.186-6.522-5.993-10.7-5.817-.271.011-.501.339-.466.821 1.532 20.568.69 28.02.812 28.642"/></g><g><path d="m11.972 23.933c.074-.998.113-1.995.117-2.992.023-.516.013-1.03-.027-1.539-.027-.628-.066-1.256-.121-1.883-.012-.209-.037-.414-.059-.62-.066-.628-.14-1.256-.238-1.883-.016-.102-.09-.222-.184-.342-.126-.438-.277-.875-.464-1.311-.072-.175-.324-.409-.582-.58.064-.326.123-.652.168-.985.08-.067.086-.186.039-.324.222-2.044-1.229-3.239-2.809-3.257-.164-.002-.22.104-.22.236-.104 0-.166.051-.189.13-.34-.024-.703-.002-1.094.107-.149.041-.157.171-.106.32-.033.006-.066.006-.096.027-1.767 1.251-2.646 3.389-3.559 5.479-.078.183.008.437.164.67-1.432 3.913-2.327 8.381-1.189 12.437-.02 3.141.741 6.758 2.68 9.06.784 2.13 3.717 3.961 4.946 1.973 1.018-.208 1.974-.867 2.532-1.97.242-.48.238-.935.082-1.332 1.247-3.627.779-7.598.209-11.419" fill="#deb89c"/><path d="m13.06 18.284c.008-1.701-.195-3.724-1.206-5.03.031-.682.023-2.113-.008-2.279-.768-3.929-3.916-5.709-6.73-3.196-.216.191-.4.419-.595.638-1.252 1.131-2.087 3-2.668 4.897-.429 1.294-.747 2.678-.979 4.106-.71 3.817-1.092 8.441-.406 12.519.008.131.248 8.08 5.905 9.816 9.269 2.857 6.663-16.864 6.687-21.475m-4.514 19.724c-5.09 1.522-8.933-7.552-5.898-21.12 1.763-7.88 4.763-8.188 6.02-8.337.733.372 1.311 1.41 1.423 3.514-2.835-.705-4.724 3.731-5.086 6.472-.074.557 1.213 1.546 1.288.992.039-1.197.343-2.306.901-3.327.408-.905 3.323-4.988 4.345-1.591.616 2.04.226 4.978.289 7.12.14 4.696 1.638 14.806-3.277 16.274" fill="#5b3d2a"/></g><g><path d="m51.79 23.932c-.074-.998-.113-1.994-.117-2.991-.023-.517-.016-1.03.027-1.539.027-.629.066-1.257.121-1.883.012-.209.039-.414.059-.62.066-.629.14-1.257.237-1.883.016-.102.09-.222.184-.342.127-.439.279-.875.464-1.312.072-.175.324-.409.581-.58-.065-.326-.124-.653-.167-.984-.078-.067-.086-.187-.039-.324-.223-2.045 1.229-3.239 2.809-3.257.163-.002.222.104.222.234.102 0 .164.051.189.131.342-.023.702 0 1.094.107.15.042.156.17.105.32.033.006.066.006.096.026 1.768 1.251 2.646 3.389 3.56 5.479.08.183-.008.437-.164.669 1.432 3.914 2.329 8.382 1.189 12.439.02 3.14-.739 6.758-2.68 9.06-.785 2.129-3.717 3.96-4.945 1.971-1.019-.206-1.974-.866-2.532-1.969-.241-.48-.237-.935-.082-1.333-1.249-3.625-.78-7.596-.211-11.417" fill="#deb89c"/><path d="m57.39 39.76c5.657-1.741 5.896-9.686 5.903-9.817.687-4.078.304-8.702-.406-12.519-.229-1.428-.55-2.813-.977-4.107-.583-1.895-1.418-3.764-2.67-4.896-.193-.217-.379-.446-.593-.638-2.816-2.513-5.965-.733-6.732 3.197-.031.165-.039 1.595-.008 2.278-1.01 1.302-1.214 3.325-1.206 5.03.024 4.611-2.582 24.331 6.689 21.476m-5.452-18.03c.062-2.14-.328-5.079.288-7.119 1.021-3.396 3.939.685 4.346 1.59.558 1.023.861 2.131.902 3.328.072.556 1.359-.434 1.286-.992-.363-2.741-2.251-7.177-5.087-6.473.113-2.102.69-3.141 1.424-3.513 1.252.148 4.252.457 6.02 8.337 3.037 13.565-.808 22.64-5.897 21.12-4.915-1.467-3.417-11.577-3.277-16.275" fill="#5b3d2a"/></g><g fill="#633d19"><path d="m15.643 24.362c4.361-3.428 10.411-2.261 13.186 2.545.043.074.043.153.061.233.226.364.141.879-.339 1.049-.292.103-.585.207-.879.309-.045.015-.08.011-.121.018-.049.001-.094.021-.145.021-.087-.005-.162-.023-.234-.056-.016-.007-.029-.005-.049-.001-2.841-1.318-5.779-.806-7.943 1.486-1.159 1.229-.815 1.832-2.333 2.368-.621.221-1.108-.419-.886-.98 1.521-3.878 5.174-6 8.944-5.658-1.632-1.161-3.645-1.517-5.781-.893-1.625.473-1.632 1.167-3.212.86-.648-.122-.744-.92-.269-1.292"/><path d="m48.956 24.393c-4.363-3.427-10.413-2.259-13.185 2.546-.043.073-.043.153-.061.232-.226.365-.142.88.34 1.05.291.103.585.207.878.309.045.015.082.001.122.018.049.001.092.021.145.02.084-.004.162-.022.234-.055.014-.007.027-.006.047-.001 2.844-1.318 5.78-.806 7.943 1.486 1.162 1.229.817 1.832 2.335 2.368.62.22 1.105-.419.883-.98-1.519-3.879-5.176-6-8.941-5.658 1.632-1.162 3.645-1.518 5.78-.893 1.621.473 1.633 1.167 3.212.86.646-.122.744-.919.268-1.293"/></g></g></svg>