<svg xmlns="http://www.w3.org/2000/svg" viewBox="0 0 64 64" enable-background="new 0 0 64 64"><path d="m26.36 17.584c4.269.433 8.585.336 12.871.357 2.241.011 4.491.013 6.737.013.015-.044.038-.087.057-.132-.472-.16-.963-.25-1.474-.25h-18.307c.038.005.077.007.116.012" fill="#424243"/><path d="m50.03 24.19c-.374.385-.943.494-1.305-.027-.862-1.228-1.542-2.548-2.17-3.932-.693.052-1.355.111-1.921.111-2.031 0-4.063-.004-6.091-.02-3.617-.025-7.283.094-10.893-.235-3.424-.312-9.217-1.696-11.491 1.907-.292.945-.588 1.887-.951 2.807-.366.93-1.282.753-1.684.094l-12.679 22.872c0 3.478 2.371 7.348 5.294 7.348h51.661c2.928 0 5.299-3.87 5.299-7.348l-13.07-23.577" fill="#cd4e64"/><path d="m16.644 18.489c.741-.43 1.567-.717 2.44-.901-.893.061-1.723.381-2.44.901" fill="#424243"/><path d="m60.25 42.803c0 3.166-2.158 6.687-4.821 6.687h-47.01c-2.663 0-4.819-3.521-4.819-6.687l12.05-21.741c0-3.168 2.16-5.734 4.823-5.734h22.898c2.667 0 4.823 2.566 4.823 5.734l12.06 21.741" fill="#e45264"/><g fill="#a8a8a8"><path d="m42.42 25.328c-.27-1.724-1.541-3.03-3.069-3.03h-3.104l1.096 3.03h5.077"/><path d="m44 28.759h-5.412l1.672 4.628h6.304z"/><path d="m42.05 38.32l2.223 6.144h2.903c1.729 0 3.133-2.284 3.133-4.336l-1-1.808h-7.256"/><path d="m32.587 22.299h-1.517l-.628 3.03h2.768z"/><path d="m33.92 28.759h-4.187l-.956 4.628h6.103z"/><path d="m26.488 44.46h10.682l-1.273-6.14h-8.141z"/><path d="m26.305 25.328l1.096-3.03h-2.905c-1.529 0-2.8 1.306-3.068 3.03h4.877"/><path d="m25.06 28.759h-5.211l-2.562 4.628h6.103z"/><path d="m14.55 38.32l-.999 1.808c0 2.052 1.399 4.336 3.127 4.336h2.707l2.222-6.144h-7.06"/></g><g fill="#fff"><path d="m42.23 24.509c-.266-1.689-1.514-2.969-3.01-2.969h-3.045l1.072 2.969h4.984"/><path d="m43.77 27.876h-5.307l1.637 4.54h6.19z"/><path d="m41.854 37.25l2.179 6.03h2.851c1.692 0 3.068-2.245 3.068-4.258l-.981-1.772h-7.117"/><path d="m32.574 21.54h-1.494l-.61 2.969h2.72z"/><path d="m33.885 27.876h-4.114l-.935 4.54h5.984z"/><path d="m26.59 43.28h10.48l-1.247-6.03h-7.985z"/><path d="m26.411 24.509l1.076-2.969h-2.851c-1.497 0-2.745 1.279-3.01 2.969h4.785"/><path d="m25.19 27.876h-5.11l-2.516 4.54h5.989z"/><path d="m14.885 37.25l-.986 1.772c0 2.01 1.376 4.258 3.069 4.258h2.655l2.18-6.03h-6.918"/></g><path d="m62.25 22.11c1.186.746 1.802 2.784 1.381 4.546l-1.104 4.606c-.421 1.767-1.728 2.595-2.909 1.85l-5.933-3.738c-1.186-.745-1.806-2.78-1.381-4.546l1.099-4.609c.427-1.762 1.729-2.589 2.91-1.844l5.937 3.735" fill="#e45264"/><path d="m63.42 26.528c0 0 2.686-12.847-10.473-15.677-13.15-2.831-20.972-3.268-20.972-3.268v7.839l31.445 11.11" fill="#cd4e64"/><path d="m1.75 22.11c-1.189.746-1.805 2.784-1.383 4.546l1.103 4.606c.421 1.767 1.727 2.595 2.913 1.85l5.93-3.738c1.185-.745 1.805-2.78 1.38-4.546l-1.099-4.609c-.425-1.762-1.728-2.589-2.909-1.844l-5.935 3.735" fill="#e45264"/><path d="m.584 26.528c0 0-2.687-12.847 10.473-15.677 13.15-2.831 20.971-3.268 20.971-3.268v7.839l-31.444 11.11" fill="#cd4e64"/><g fill="#e45264"><path d="m26.469 19.491c0 .784-.534 1.423-1.197 1.423h-1.719c-.658 0-1.197-.64-1.197-1.423v-3.934c0-.786.539-1.423 1.197-1.423h1.719c.664 0 1.197.637 1.197 1.423v3.934"/><path d="m41.25 19.491c0 .784-.534 1.423-1.192 1.423h-1.724c-.662 0-1.197-.64-1.197-1.423v-3.934c0-.786.535-1.423 1.197-1.423h1.724c.658 0 1.192.637 1.192 1.423v3.934"/></g><path d="m2.545 52.96c0 0 28.318 18.1 59.24-.585 0 0-4.965-.238-5.421 0-.455.241-28.369-.105-28.369-.105l-25.448.69" fill="#cd4e64"/><path d="m11.06 49.4c0 0 20.555 13.146 43-.422 0 0-3.603-.175-3.934 0-.328.172-20.591-.078-20.591-.078l-18.477.5" fill="#e45264"/></svg>