<svg xmlns="http://www.w3.org/2000/svg" viewBox="0 0 64 64" enable-background="new 0 0 64 64"><path fill="#f6921e" d="M63.669,56.806c0,3.794-3.07,6.86-6.86,6.86H6.863C3.074,63.666,0,60.6,0,56.806V6.861    C0,3.066,3.074,0,6.863,0h49.946c3.79,0,6.86,3.066,6.86,6.861V56.806z"/><path fill="#d07929" d="M0,48.407v8.324C0,60.525,3.072,63.6,6.861,63.6h49.948c3.79,0,6.86-3.074,6.86-6.868V6.79    C52.799,46.284,13.713,48.787,0,48.407z"/><g fill="#fff"><path d="m24.75 37.784c2.787 2.779 1.154 8.916-3.634 13.708-4.788 4.789-10.926 6.42-13.708 3.631-2.783-2.776-1.156-8.918 3.634-13.699 4.788-4.794 10.93-6.425 13.708-3.64"/><path d="m38.687 25.53c-2.782-2.781-1.149-8.922 3.642-13.713 4.783-4.788 10.924-6.417 13.705-3.634 2.78 2.785 1.153 8.918-3.638 13.715-4.788 4.79-10.928 6.413-13.709 3.632"/><path d="m38.687 37.784c2.785-2.787 8.922-1.154 13.71 3.64 4.791 4.789 6.418 10.921 3.638 13.699-2.781 2.789-8.918 1.158-13.706-3.631-4.792-4.792-6.425-10.932-3.642-13.708"/><path d="m24.75 25.53c-2.781 2.781-8.92 1.158-13.708-3.632-4.79-4.797-6.417-10.93-3.634-13.715 2.781-2.777 8.92-1.15 13.708 3.638s6.42 10.928 3.634 13.709"/></g></svg>