<svg xmlns="http://www.w3.org/2000/svg" width="100" height="100" viewBox="0 0 100 100"><path d="M39,32h22c1.1,0,2-.9,2-2v-4c0-3.31-2.69-6-6-6h-14c-3.31,0-6,2.69-6,6v4c0,1.1,.9,2,2,2Z" fill="#fff"/><path d="M49.8,48.4v11.4h10.7c.18-2.93-.96-5.79-3.1-7.8-3.7-3.8-7.6-3.6-7.6-3.6Z" fill="#fff"/><path d="M72,25h-2c-.52-.03-.97,.36-1,.88,0,.04,0,.08,0,.12v4c0,4.42-3.58,8-8,8h-22c-4.42,0-8-3.58-8-8v-4c.03-.52-.36-.97-.88-1-.04,0-.08,0-.12,0h-2c-3.31,0-6,2.69-6,6v43c0,3.31,2.69,6,6,6h44c3.31,0,6-2.69,6-6V31c0-3.31-2.69-6-6-6Zm-7.1,34.3c-.06,8.23-6.77,14.85-15,14.8s-14.85-6.77-14.8-15c.06-8.23,6.77-14.85,15-14.8,8.22,.08,14.83,6.78,14.8,15Z" fill="#fff"/></svg>