<svg xmlns="http://www.w3.org/2000/svg" width="100" height="100" viewBox="0 0 100 100"><path d="M48.4,22.6c-1.5-1.6-3.6-2.5-5.8-2.5s-4.2.9-5.8,2.6h0l-.5.8c-.4.5-1.2.5-1.6,0l-.6-.8c-1.5-1.6-3.6-2.5-5.8-2.5s-4.3.9-5.8,2.5c-3.2,3.3-3.2,8.8,0,12.2,0,0,3.9,4.2,7.4,8h0c1.2,1.3,2.4,2.6,3.4,3.6,1.2,1.3,3.2,1.3,4.5,0,3.7-4,10.8-11.5,10.8-11.6,3.2-3.3,3.2-8.8,0-12.2h0l-.2-.1ZM42.8,35.4c0,.6-.5,1.2-1.2,1.2h-3.5v3.5c0,.6-.5,1.2-1.2,1.2h-2.9c-.6,0-1.2-.5-1.2-1.2v-3.5h-3.5c-.6,0-1.2-.5-1.2-1.2v-2.9c0-.6.5-1.2,1.2-1.2h3.5v-3.5c0-.6.5-1.2,1.2-1.2h2.9c.6,0,1.2.5,1.2,1.2v3.5h3.5c.6,0,1.2.5,1.2,1.2v2.9Z" fill="#fff"/><path d="M78.8,46.3c-.7-.7-1.7-1.1-2.7-1.1h-3.2v-1.3c0-.7-.3-1.3-.8-1.8s-1.1-.8-1.8-.8-1.3.3-1.8.8-.8,1.1-.8,1.8v1.3h-11.6v-1.3c0-.7-.3-1.3-.8-1.8s-1.1-.8-1.8-.8-1.3.3-1.8.8-.8,1.1-.8,1.8v1.3h-3.2c-1,0-2,.4-2.7,1.1s-1.1,1.7-1.1,2.7v1.3c0,.3,0,.7.4.9.2.2.6.4.9.4h33.5c.3,0,.7,0,.9-.4.2-.2.4-.6.4-.9v-1.3c0-1-.4-2-1.1-2.7h-.2.1Z" fill="#fff"/><path d="M66.4,63.1c-.6-.6-1.3-1.1-2.1-1.4-.8-.3-1.6-.5-2.5-.5-1.3,0-2.6.4-3.6,1.1-1.1.7-1.9,1.7-2.4,2.9-.5,1.2-.6,2.5-.4,3.8.3,1.3.9,2.4,1.8,3.3s2.1,1.5,3.3,1.8c1.3.3,2.6,0,3.8-.4s2.2-1.3,2.9-2.4c.7-1.1,1.1-2.3,1.1-3.6s-.2-1.7-.5-2.5-.8-1.5-1.4-2.1ZM64.2,69.9c-.6.6-1.4.9-2.3.9s-1.3-.2-1.8-.5-.9-.9-1.2-1.4c-.2-.6-.3-1.2-.2-1.9,0-.6.4-1.2.9-1.7s1-.8,1.7-.9c.6,0,1.3,0,1.9.2.6.2,1.1.7,1.4,1.2.4.5.5,1.2.5,1.8s-.3,1.7-.9,2.3Z" fill="#fff"/><path d="M78.6,55.5h-33.5c-.3,0-.7,0-.9.4-.2.2-.4.6-.4.9v19.3c0,1,.4,2,1.1,2.7s1.7,1.1,2.7,1.1h28.3c1,0,2-.4,2.7-1.1s1.1-1.7,1.1-2.7v-19.3c0-.3,0-.7-.4-.9-.2-.2-.6-.4-.9-.4h.2ZM68.7,74.5c-1.8,1.8-4.3,2.9-6.9,2.9s-3.8-.6-5.4-1.6c-1.6-1.1-2.9-2.6-3.6-4.4-.7-1.8-.9-3.7-.6-5.6s1.3-3.6,2.7-5,3.1-2.3,5-2.7,3.9-.2,5.6.6c1.8.7,3.3,2,4.4,3.6s1.6,3.5,1.6,5.4-1,5.1-2.9,6.9h0l.1-.1Z" fill="#fff"/></svg>