<svg id="a" xmlns="http://www.w3.org/2000/svg" width="100" height="100" viewBox="0 0 100 100"><path d="M23.78,24.92h-2.52c-.7,0-1.26.57-1.26,1.26v2.52c0,.7.56,1.26,1.26,1.26h2.52c.7,0,1.26-.57,1.26-1.26v-2.52c0-.7-.56-1.26-1.26-1.26Z" fill="#fff" stroke-width="0"/><path d="M65.65,24.92H29.7c-.7,0-1.26.57-1.26,1.26v2.52c0,.7.56,1.26,1.26,1.26h35.95c.7,0,1.26-.57,1.26-1.26v-2.52c0-.7-.56-1.26-1.26-1.26Z" fill="#fff" stroke-width="0"/><path d="M23.78,36.72h-2.52c-.7,0-1.26.56-1.26,1.26v2.52c0,.7.56,1.26,1.26,1.26h2.52c.7,0,1.26-.57,1.26-1.26v-2.52c0-.7-.56-1.26-1.26-1.26Z" fill="#fff" stroke-width="0"/><path d="M65.65,36.72H29.7c-.7,0-1.26.56-1.26,1.26v2.52c0,.7.56,1.26,1.26,1.26h35.95c.7,0,1.26-.57,1.26-1.26v-2.52c0-.7-.56-1.26-1.26-1.26Z" fill="#fff" stroke-width="0"/><path d="M23.78,48.53h-2.52c-.7,0-1.26.57-1.26,1.26v2.52c0,.7.56,1.26,1.26,1.26h2.52c.7,0,1.26-.57,1.26-1.26v-2.52c0-.7-.56-1.26-1.26-1.26Z" fill="#fff" stroke-width="0"/><path d="M23.78,60.34h-2.52c-.7,0-1.26.57-1.26,1.26v2.52c0,.7.56,1.26,1.26,1.26h2.52c.7,0,1.26-.57,1.26-1.26v-2.52c0-.7-.56-1.26-1.26-1.26Z" fill="#fff" stroke-width="0"/><path d="M55.24,49.42c.32-.35.69-.63,1.08-.88h-26.62c-.7,0-1.26.57-1.26,1.26v2.52c0,.7.56,1.26,1.26,1.26h23.65l.03-.28c.2-1.58.84-2.91,1.86-3.87Z" fill="#fff" stroke-width="0"/><path d="M50.41,60.34h-20.71c-.7,0-1.26.57-1.26,1.26v2.52c0,.7.56,1.26,1.26,1.26h22.01c-.89-1.14-1.39-2.55-1.39-4.01,0-.35.03-.7.09-1.04h0Z" fill="#fff" stroke-width="0"/><path d="M77.93,57.92l1.4,1.84c.43.53.67,1.2.67,1.88s-.24,1.35-.67,1.88l-1.14,1.4c-.61.7-1.05,1.66-1.14,2.62l-.09,1.84c-.09.7-.35,1.31-.87,1.84-.44.44-1.14.79-1.75.79l-2.19.17c-.7.09-1.31.35-1.84.79l-1.66,1.4c-.5.46-1.15.72-1.84.72s-1.33-.25-1.84-.72l-1.49-1.31c-.61-.61-1.4-.96-2.27-.96l-1.92-.17c-.7-.09-1.31-.44-1.75-.87s-.79-1.14-.79-1.84l-.17-2.19c0-.79-.26-1.49-.79-2.01l-1.31-1.75c-.43-.53-.67-1.2-.67-1.88s.24-1.35.67-1.88l1.22-1.49c.61-.7.96-1.49.96-2.45l.17-1.84c.09-.7.35-1.4.87-1.84.44-.52,1.05-.79,1.75-.87l2.01-.09c.79-.09,1.49-.44,2.1-.87l1.57-1.4c.5-.46,1.15-.72,1.84-.72s1.33.25,1.84.72l1.49,1.31c.61.61,1.4.96,2.27,1.05l1.92.09c.61.09,1.22.35,1.75.87.44.52.7,1.14.79,1.84l.17,2.27c0,.7.26,1.31.7,1.84ZM60.17,56.44c-.38.64-.55,1.38-.47,2.13s.4,1.43.91,1.99c.26.35.61.52.96.7s.79.26,1.22.26c.61,0,1.22-.26,1.75-.61s.96-.87,1.22-1.49.26-1.22.17-1.84c-.17-.7-.44-1.22-.87-1.66-.44-.52-1.05-.79-1.66-.96-.61-.17-1.22,0-1.84.26-.52.17-1.05.61-1.4,1.14,0,0,0,.09,0,.09ZM64.2,67.9l6.65-12.59v-.17l-.09-.17h-1.05l-.17.17-6.65,12.51v.26l.17.17h.96l.17-.17ZM73.64,66.58c.35-.52.52-1.14.52-1.84h-.09c.09-.79-.26-1.66-.87-2.27-.36-.39-.8-.69-1.31-.86s-1.05-.2-1.57-.09c-.52.1-1.01.34-1.41.69s-.7.8-.87,1.3c-.26.61-.35,1.31-.17,1.92.12.63.43,1.2.88,1.65.45.45,1.02.76,1.65.88.61.17,1.22.09,1.84-.17.52-.26,1.05-.7,1.4-1.22ZM62.8,56.44c-.35,0-.7.09-.96.35-.19.16-.35.34-.47.56-.11.22-.19.45-.21.7-.03.24,0,.49.07.73s.19.45.35.64c.24.27.54.45.89.53.35.08.71.04,1.03-.1.26-.17.52-.35.7-.7.16-.24.25-.52.28-.81.03-.29,0-.58-.1-.85l-.35-.52-.52-.44-.7-.09ZM70.93,63c-.35,0-.7.09-.96.35l-.61.79c-.11.33-.14.68-.06,1.02.07.34.24.66.5.9l.87.44c.35.09.61.09.96-.09.26-.17.52-.35.7-.7.15-.24.24-.5.26-.77.03-.27,0-.55-.09-.8l-.35-.61-.52-.35s-.7-.17-.7-.17Z" fill="#fff" stroke-width="0"/></svg>