<svg xmlns="http://www.w3.org/2000/svg" height="100" width="100" viewBox="0 0 1000 1000" fill="#fff"><path d="M285 685V345h-16a49 49 0 0 0-48 49v354a49 49 0 0 0 48 49h356a49 49 0 0 0 48-49v-14H333a49 49 0 0 1-48-49zm179-383h177a16 16 0 0 0 16-16v-33a49 49 0 0 0-48-49H496a48 48 0 0 0-48 49v33a16 16 0 0 0 16 16zm266-58h-16a7 7 0 0 0-8 8v33a66 66 0 0 1-65 66H464a66 66 0 0 1-65-66v-33a7 7 0 0 0-8-8h-16a48 48 0 0 0-48 49v353a49 49 0 0 0 48 49h355a48 48 0 0 0 48-49V294a49 49 0 0 0-48-50zM609 555a16 16 0 0 1-16 16H431a16 16 0 0 1-16-16v-16a16 16 0 0 1 16-16h162a16 16 0 0 1 16 16zm81-82a16 16 0 0 1-16 16H431a16 16 0 0 1-16-16v-16a16 16 0 0 1 16-16h243a16 16 0 0 1 16 16z"/></svg>