<?xml version="1.0" encoding="utf-8"?>
<!-- Generator: Adobe Illustrator 21.1.0, SVG Export Plug-In . SVG Version: 6.00 Build 0)  -->
<svg version="1.1" id="Layer_1" xmlns="http://www.w3.org/2000/svg" xmlns:xlink="http://www.w3.org/1999/xlink" x="0px" y="0px"
	 width="100px" height="100px" viewBox="0 0 100 100" enable-background="new 0 0 100 100" xml:space="preserve">
<path fill="#FFFFFF" d="M73.8,20H26.2c-3.4,0-6.2,2.8-6.2,6.2v47.6c0,3.4,2.8,6.2,6.2,6.2h47.6c3.4,0,6.2-2.8,6.2-6.2V26.2
	C80,22.8,77.2,20,73.8,20z M70.8,69.3h-0.1c0,0.8-0.8,1.4-1.6,1.4H30.4c-0.8,0-1.4-0.8-1.4-1.6V30.7c0-0.8,0.8-1.4,1.6-1.4h38.8
	c0.8,0,1.4,0.8,1.4,1.6V69.3z"/>
<path fill="#FFFFFF" d="M58.8,45.6c1.3,0,3.9-1.1,3.9-4.5c0-3.4-2.5-3.6-3.2-3.6c-1.5,0-3,1.1-4.3,3.4c-1.3,2.3-2.8,4.9-2.8,4.9
	l-0.1,0c-0.3-1.6-0.6-3-0.7-3.6c-0.3-1.4-1.9-4.5-5.3-4.5c-3.4,0-6.5,2-6.5,2l0,0c-0.6,0.4-1,1-1,1.8c0,1.1,0.9,2.1,2.1,2.1
	c0.3,0,0.6-0.1,0.9-0.2l0,0c0,0,2.6-1.4,3.1,0c0.2,0.4,0.3,0.9,0.5,1.4c0.7,2.2,1.3,4.9,1.8,7.3l-2.2,3.2c0,0-2.5-0.9-3.8-0.9
	s-3.9,1.1-3.9,4.5s2.5,3.6,3.2,3.6c1.5,0,3-1.1,4.3-3.4c1.3-2.3,2.8-4.9,2.8-4.9c0.4,2.1,0.8,3.8,1,4.5c0.9,2.4,2.8,3.9,5.4,3.9
	c0,0,2.7,0,5.8-1.8c0.8-0.3,1.3-1.1,1.3-1.9c0-1.1-0.9-2.1-2.1-2.1c-0.3,0-0.6,0.1-0.9,0.2l0,0c0,0-2.3,1.3-3,0.3
	c-0.6-1-1-2.4-1.4-4.2c-0.3-1.5-0.7-3.3-1.1-5.1l2.3-3.3C55,44.7,57.5,45.6,58.8,45.6z"/>
</svg>
