<?xml version="1.0" encoding="utf-8"?>
<!-- Generator: Adobe Illustrator 17.1.0, SVG Export Plug-In . SVG Version: 6.00 Build 0)  -->
<!DOCTYPE svg PUBLIC "-//W3C//DTD SVG 1.1//EN" "http://www.w3.org/Graphics/SVG/1.1/DTD/svg11.dtd">
<svg version="1.1" id="Layer_1" xmlns="http://www.w3.org/2000/svg" xmlns:xlink="http://www.w3.org/1999/xlink" x="0px" y="0px" width="100" height="100"
	 viewBox="0 0 100 100" style="enable-background:new 0 0 100 100;" xml:space="preserve">

<g>
	<path fill="#FFFFFF" d="M28.1,48C28,48.7,28,49.3,28,50h-6c0-0.7,0-1.3,0.1-2H28.1z"/>
</g>
<g>
	<g>
		<path fill="#FFFFFF" d="M51.5,36h-3c-0.8,0-1.5,0.7-1.5,1.5v13.1c0,0.4,0.2,0.8,0.4,1.1l8.4,8.4c0.6,0.6,1.5,0.6,2.1,0l2.1-2.1
			c0.6-0.6,0.6-1.5,0-2.1L53,48.8V37.5C53,36.7,52.3,36,51.5,36z"/>
	</g>
	<g>
		<path fill="#FFFFFF" d="M50,22c-14.8,0-26.9,11.5-27.9,26c0,0.3-0.1,0.7-0.1,1h-4.5c-1.3,0-2,1.5-1.2,2.4l7.5,9.1
			c0.6,0.7,1.7,0.7,2.3,0l7.5-9.1c0.8-1,0.1-2.4-1.2-2.4H28c0-0.3,0-0.7,0-1c1-11.2,10.5-20,21.9-20c13,0,23.3,11.3,21.9,24.5
			C70.8,62,61.8,71,52.2,71.9c-7.1,0.7-13.8-1.9-18.5-7c-0.6-0.7-1.4-1.1-2.2-0.1l-2.4,2.9c-0.5,0.6-0.1,1,0.4,1.5
			c5.4,5.7,12.8,8.9,20.8,8.8c14.4-0.2,26.5-11.6,27.5-26C79.1,35.7,66.1,22,50,22z"/>
	</g>
</g>
</svg>
