<svg id="a" xmlns="http://www.w3.org/2000/svg" width="52" height="52" viewBox="0 0 52 52"><path d="M9.31,18.74c-1.94,0-3.81.77-5.19,2.14-1.38,1.37-2.15,3.23-2.15,5.17s.77,3.8,2.15,5.17c1.38,1.37,3.24,2.14,5.19,2.14,1.5-.03,2.95-.52,4.14-1.42,1.2-.9,2.08-2.15,2.52-3.57h10.67c-.67,6.65-4.33,11.64-10.67,11.97-.52-1.35-1.43-2.52-2.62-3.35-1.19-.83-2.6-1.28-4.05-1.31-.94-.03-1.88.13-2.76.46-.88.34-1.69.84-2.37,1.49-.68.65-1.23,1.43-1.61,2.29-.38.86-.58,1.79-.59,2.73.02,1.93.8,3.79,2.17,5.15,1.37,1.37,3.23,2.14,5.17,2.16,1.45-.02,2.86-.48,4.05-1.31,1.19-.83,2.1-2,2.62-3.35,2.56-.07,5.05-.77,7.27-2.05,2.21-1.28,4.07-3.09,5.4-5.27,1.66-3.01,2.68-6.33,3-9.76h4.33v-4.66h-4.33c-.33-3.34-1.23-6.6-2.67-9.64-1.26-2.31-3.15-4.22-5.45-5.52-2.3-1.29-4.91-1.92-7.55-1.8-.52-1.35-1.43-2.52-2.62-3.35-1.19-.83-2.6-1.29-4.05-1.31-1.94.02-3.79.79-5.17,2.16-1.37,1.37-2.15,3.22-2.17,5.15.01.94.22,1.87.59,2.73.38.86.92,1.64,1.61,2.29s1.49,1.16,2.37,1.49c.88.34,1.82.49,2.76.46,1.45-.02,2.86-.48,4.05-1.31,1.19-.83,2.1-2,2.62-3.35,6.67,0,10,4.66,10.67,11.97h-10.67c-.46-1.4-1.35-2.63-2.55-3.5-1.2-.87-2.63-1.35-4.12-1.37ZM9.31,28.38c-.33.05-.67.02-1-.08-.32-.1-.62-.26-.87-.48-.25-.22-.46-.49-.6-.8-.14-.31-.21-.64-.21-.97s.07-.67.21-.97c.14-.31.34-.58.6-.8.25-.22.55-.38.87-.48.32-.1.66-.12,1-.08.62,0,1.21.25,1.65.68.44.44.68,1.03.68,1.65s-.25,1.21-.68,1.65c-.44.44-1.03.68-1.65.68ZM9.31,45.34c-.69-.05-1.34-.34-1.83-.83-.49-.49-.79-1.14-.83-1.83.06-.65.37-1.26.87-1.69s1.14-.66,1.8-.63c.3,0,.6.06.88.18.28.12.53.29.74.51.21.22.37.48.47.76.1.28.15.58.14.88.03.64-.18,1.27-.59,1.76-.41.49-.99.81-1.63.9ZM9.31,11.76c-.64.03-1.27-.18-1.76-.59-.49-.41-.82-.99-.9-1.62.05-.69.34-1.34.83-1.83.49-.49,1.14-.78,1.83-.83.64.09,1.22.41,1.63.9.41.49.62,1.12.59,1.76,0,.59-.23,1.15-.65,1.57-.42.42-.98.65-1.57.65Z" fill="#fff" stroke-width="0"/><path d="M48.61,25.04c.65.38.64,1.32-.02,1.68l-11.55,6.18c-.65.35-1.42-.13-1.41-.86l.19-12.7c.01-.73.8-1.18,1.44-.82l11.36,6.52Z" fill="#fff" stroke-width="0"/></svg>