<svg xmlns="http://www.w3.org/2000/svg" height="52" width="52" viewBox="0 0 520 520" fill="#fff"><path d="M88 90a236 236 0 0 0-68 166c0 14 11 24 24 24s24-11 24-24c-1-49 19-96 54-131s83-54 131-54c14 0 24-11 24-24 0-14-11-24-24-24A229 229 0 0 0 88 90zm29 166c0 14 10 24 24 24s24-11 24-24c0-23 9-46 26-62a91 91 0 0 1 62-26c14 0 24-11 24-24 0-14-10-24-24-24a140 140 0 0 0-97 39c-4 5-41 42-39 97zm338-104-23-28c-3-2-7-4-11-4s-8 1-10 4L310 224a62 62 0 0 0-87 87l-97 97c-3 3-5 7-5 11 0 5 2 10 6 13l27 20a214 214 0 0 0 301-300z"/></svg>