<svg xmlns="http://www.w3.org/2000/svg" width="56" height="64" viewBox="0 0 56 64"><path d="M5.15.006c-2.801 0-5.072 2.273-5.072 5.074v53.841c0 2.803 2.271 5.073 5.072 5.073h45.775c2.801 0 5.074-2.271 5.074-5.073v-38.605l-18.903-20.31h-31.946z" fill-rule="evenodd" clip-rule="evenodd" fill="#0C8FE8"/><g fill-rule="evenodd" clip-rule="evenodd"><path d="M55.977 20.352v1h-12.799s-6.312-1.26-6.129-6.707c0 0 .208 5.707 6.004 5.707h12.924z" fill="#0973E2"/><path d="M37.074 0v14.561c0 1.656 1.104 5.791 6.104 5.791h12.799l-18.903-20.352z" opacity=".5" fill="#fff"/></g><path d="M28.25 35.611c-2.074-2.097-5.448-2.097-7.545 0l-3.055 3.055c-2.073 2.073-2.073 5.447 0 7.545.479.479 1.253.479 1.734 0 .499-.479.499-1.255 0-1.732-1.118-1.14-1.118-2.94 0-4.079l3.076-3.055c1.117-1.117 2.94-1.117 4.056 0 1.117 1.116 1.117 2.939 0 4.057l-1.458 1.482c.363.979.502 2.006.41 3.053l2.781-2.781c2.097-2.096 2.097-5.471.001-7.545zm-7.704 5.951c-.479.479-.479 1.275 0 1.755 1.139 1.116 1.139 2.941 0 4.059l-3.055 3.053c-1.118 1.118-2.941 1.118-4.058 0-1.117-1.117-1.117-2.939 0-4.057l1.459-1.459c-.365-.979-.503-2.028-.411-3.077l-2.802 2.803c-2.075 2.075-2.075 5.447 0 7.546 2.094 2.074 5.47 2.074 7.544 0l3.076-3.077c2.075-2.075 2.075-5.449 0-7.545-.478-.481-1.276-.481-1.753-.001z" fill="#fff"/></svg>