<svg xmlns="http://www.w3.org/2000/svg" xmlns:xlink="http://www.w3.org/1999/xlink" viewBox="-5.5 -6 140 140"><defs><radialGradient id="A" cx="65.33" cy="63.5" r="57.35" fx="65.58" fy="64.69" xlink:href="#W"/><radialGradient id="B" cx="244.72" cy="222.16" r="183.91" fx="244.72" fy="222.16" xlink:href="#i"><stop offset="0" stop-color="#fff" stop-opacity=".7"/><stop offset=".8" stop-color="#9a0606" stop-opacity="0"/><stop offset="1" stop-color="#e23434"/></radialGradient><radialGradient id="C" cx="49.71" cy="222.16" r="183.91" fx="49.71" fy="222.16" gradientTransform="translate(-33.89 -78.63) scale(1.35394)" xlink:href="#T"/><radialGradient id="D" cx="69.94" cy="222.16" r="183.91" fx="69.94" fy="222.16" gradientTransform="translate(-33.89 -78.63) scale(1.35394)" xlink:href="#T"/><radialGradient id="E" cx="246.35" cy="226.88" r="154.36" fx="246.35" fy="226.88" gradientTransform="matrix(1 -.57734 .12401 .2148 -28.14 320.38)" xlink:href="#T"/><radialGradient id="F" cx="246.35" cy="226.88" r="154.36" fx="246.35" fy="226.88" gradientTransform="matrix(-.57734 -1 .2148 -.12401 339.85 501.37)" xlink:href="#T"/><radialGradient id="G" cx="156.5" cy="148.5" r="19.5" fx="156.5" fy="148.5" xlink:href="#S"/><radialGradient id="H" cx="31.34" cy="39.21" r="21.78" fx="31.34" fy="39.21" gradientTransform="matrix(1.25954 .66412 -.28483 .5402 5.6 1.06)" xlink:href="#S"/><radialGradient id="I" cx="31.34" cy="86.61" r="20.03" fx="31.34" fy="86.61" gradientTransform="matrix(2.12033 0 0 2.2744 -35.1 -110.37)" xlink:href="#U"/><radialGradient id="J" cx="31.34" cy="39.21" r="21.78" fx="31.34" fy="39.21" gradientTransform="matrix(-1.25954 .66412 .28483 .5402 122.33 1.06)" xlink:href="#S"/><radialGradient id="K" cx="31.34" cy="86.61" r="20.03" fx="31.34" fy="86.61" gradientTransform="matrix(-2.12033 0 0 2.2744 163.04 -110.37)" xlink:href="#U"/><radialGradient id="L" cx="64" cy="78.81" r="64" fx="64" fy="78.81" gradientTransform="matrix(1 0 0 1.05446 0 -4.64)" xlink:href="#V"/><radialGradient id="M" cx="41.46" cy="49.55" r="9.23" fx="41.46" fy="49.55" gradientTransform="matrix(1.71101 0 0 1.51793 -29.48 -25.07)" xlink:href="#T"/><radialGradient id="N" cx="64" cy="37.53" r="13.46" fx="64" fy="37.53" gradientTransform="matrix(7.1397 0 0 2.42095 -392.97 -52.39)" xlink:href="#S"/><radialGradient id="O" cx="63.52" cy="41.99" r="3.5" fx="63.52" fy="41.99" gradientTransform="matrix(10.06172 0 0 6.92598 -575.1 -225.38)" xlink:href="#U"/><radialGradient id="P" cx="185.18" cy="162.24" r="8.31" fx="185.18" fy="162.24" gradientTransform="matrix(1.76593 0 0 3.00478 -141.84 -325.26)" xlink:href="#R"/><radialGradient id="Q" cx="64.02" cy="32.37" r="11.16" fx="64.02" fy="32.37" gradientTransform="matrix(1.51668 0 0 .37757 -33.1 19.78)" xlink:href="#V"/><linearGradient id="R" xlink:href="#i"><stop offset="0" stop-color="#fff"/><stop offset="1" stop-color="#fff" stop-opacity="0"/></linearGradient><linearGradient id="S" xlink:href="#i"><stop offset="0" stop-color="#fff"/><stop offset=".35" stop-color="#fff" stop-opacity=".85"/><stop offset="1" stop-color="#fff" stop-opacity="0"/></linearGradient><linearGradient id="T" xlink:href="#i"><stop offset="0" stop-color="#fff"/><stop offset="1" stop-color="#fff" stop-opacity="0"/></linearGradient><linearGradient id="U" xlink:href="#i"><stop offset="0" stop-color="#3465a4"/><stop offset="1" stop-color="#3465a4" stop-opacity="0"/></linearGradient><linearGradient id="V" xlink:href="#i"><stop offset="0" stop-color="#569fed"/><stop offset="1" stop-color="#fff"/></linearGradient><linearGradient id="W" xlink:href="#i"><stop offset="0" stop-opacity=".7"/><stop offset=".4" stop-opacity=".35"/><stop offset="1" stop-opacity="0"/></linearGradient><linearGradient id="X" x1="60.81" x2="428.63" y1="222.16" y2="222.16" xlink:href="#i"><stop offset="0" stop-color="#e23434"/><stop offset="1" stop-color="#9a0606"/></linearGradient><linearGradient id="Y" x1="123.37" x2="298.38" y1="353.52" y2="50.41" xlink:href="#T"/><linearGradient id="Z" x1="372.91" x2="69.8" y1="106.98" y2="281.98" xlink:href="#T"/><linearGradient id="a" x1="112.09" x2="415.2" y1="345.23" y2="170.23" xlink:href="#T"/><linearGradient id="b" x1="361.62" x2="186.62" y1="92.69" y2="395.8" xlink:href="#T"/><linearGradient id="c" x1="2.09" x2="28.26" y1="68.4" y2="68.4" xlink:href="#S"/><linearGradient id="d" x1="125.85" x2="99.68" y1="68.4" y2="68.4" xlink:href="#S"/><linearGradient id="e" x1="50.55" x2="37.01" y1="67.74" y2="54.71" xlink:href="#V"/><linearGradient id="f" x1="50.14" x2="45.44" y1="57.79" y2="49.66" xlink:href="#U"/><linearGradient id="g" x1="62.91" x2="62.91" y1="44.77" y2="46.88" xlink:href="#W"/><linearGradient id="h" x1="185.18" x2="185.18" y1="178.87" y2="162.24" xlink:href="#R"/><linearGradient id="i" gradientUnits="userSpaceOnUse"/><path id="j" d="M63.5 45.8a.5 1.08 0 11-1 0 .5 1.08 0 111 0z"/><path id="k" d="M193.5 170.56a8.31 8.31 0 11-16.63 0 8.31 8.31 0 1116.63 0z"/><path id="l" d="M428.63 222.16a183.9 183.9 0 11-367.82 0 183.9 183.9 0 11367.82 0z"/><path id="m" d="M176 148.5a19.5 19.5 0 11-39 0 19.5 19.5 0 1139 0z"/><path id="n" d="M35.14 63.1c.83 2.73 3.05-1.42 3.05-1.42s0 3.94 1.87 2.76 2.2-4.34 2.2-4.34.52 2.57 2.9 1.2.68-4.93.68-4.93 1.2 3.74 2.72 1.97 3.4-2.56.68-5.9 2.38 1.38 5.1-.2c2.72-1.57-.6-3.23-3.74-4.73C40.46 42.64 34 59.4 35.14 63.08z"/><path id="o" d="M35.5 61.57c.76 2.48 2.77-1.3 2.77-1.3s0 3.58 1.7 2.5c1.7-1.06 2-3.93 2-3.93s.46 2.33 2.63 1.08c2.16-1.26.6-4.48.6-4.48s1.08 3.4 2.47 1.8c1.4-1.62 3.1-2.33.62-5.37-2.47-3.05 2.16 1.25 4.63-.18 2.47-1.44-.54-2.94-3.4-4.3-9.2-4.4-15.05 10.83-14.03 14.17z"/></defs><path fill="url(#A)" d="M122.68 63.5a57.35 57.35 0 11-114.7 0 57.35 57.35 0 11114.7 0z" transform="matrix(.80625 0 0 .2272 11.33 100.54)"/><g fill-rule="evenodd"><path fill="url(#L)" stroke="#3465a4" stroke-linejoin="round" stroke-width="2.5" d="M56.87 1.2c-4.76.86-6.27 5.13-8.7 7.37-5.07 3.08-10.84 4.63-16.62 6.16-3.66.96-7.33 1.92-10.82 3.24C11.45 23.7 6.24 36 5.17 46.17c-.42 3.18-1.25 11.12.03 13.76 2.57-1.5 5-1.47 5.04-1.3-6.06-.2-8.8 9.16-9.62 14.04-.53 8.4.8 16.37 6.2 22.53 7 7.94 24.72 10.04 31.02 15.77 1.67 1.52-5.07 3.75-7.07 6-.64.73-1.1 2.07-.85 2.9.26.9 1.44 1.9 2.37 2.22 1.03.36 2.4-.4 3.52-.16 1.18.23 2.3 1.73 3.4 1.54 1.88-.32 3.66-2.66 5.54-3.1.88-.2 1.82 1.37 2.7 1.23 1.48-.26-.2.1 4.4-2.42 18.2-12.57 5.48-12.57 24.32 0 4.36 2.9 2.9 2.16 4.38 2.42.87.14 1.8-1.43 2.7-1.23 1.88.43 3.66 2.77 5.54 3.1 1.1.18 2.2-1.32 3.4-1.55 1.13-.23 2.52.52 3.55.16.93-.33 2.08-1.33 2.34-2.22.25-.83-.2-2.17-.85-2.9-2-2.24-8.74-4.47-7.07-6 6.3-5.73 24.02-7.83 31-15.77 5.42-6.16 6.77-14.14 6.24-22.53-1.02-4.84-3.47-14.24-9.62-14.04.03-.18 2.6-.36 5 1.3 1.3-2.65.46-10.6.03-13.76-.47-10.14-6.67-22.58-15.54-28.2-8.73-3.9-19.46-3.87-27.4-9.4-2.45-2.25-4.42-6.54-8.75-7.38-4.4-.86-8.85-.98-14.23 0z"/><g transform="translate(-.18)"><path fill="url(#N)" d="M57.1 26.94c6.62-3.13 7.48-3 14-.4 2.6 1.08 5.2-1.66 7.82-2.5 2.06 13.2 1.03 15.08-1.44 16.1-2.72 1.14 7.1 9.22-13.8 9.22-19.55 0-10.2-8.23-12.55-9.47-2.73-1.42-3.66-3.07-1.85-15.43 2.6.83 5.37 3.9 7.82 2.48z"/><path fill="url(#O)" d="M63.1 40.3c-.3 0-.7.13-1.2.52-2.67 2.07-5.5 4.04-6.38 5.56-3.9 6.77 20.78 6.7 16.9 0-1.05-1.84-3.7-3.5-6.38-5.56-1.26-1-1.83-.47-2.08.32-.16-.47-.4-.84-.86-.84z"/></g></g><g fill="url(#g)"><use transform="matrix(1.23795 0 0 1.23795 -15.43 -13.4)" xlink:href="#j"/><use transform="matrix(1.23795 0 0 1.23795 -12.96 -13.4)" xlink:href="#j"/></g><path d="M58.5 35.37a2.13 2.13 0 10-4.26 0 2.13 2.13 0 104.26 0z"/><use fill="url(#h)" transform="matrix(.10108 0 0 -.04707 37.65 42.17)" xlink:href="#k"/><use fill="url(#P)" transform="matrix(.1596 0 0 -.08983 26.81 51.52)" xlink:href="#k"/><path d="M73.36 35.37a2.13 2.13 0 10-4.27 0 2.13 2.13 0 104.27 0z"/><use fill="url(#h)" transform="matrix(.10108 0 0 -.04707 52.5 42.17)" xlink:href="#k"/><use fill="url(#P)" transform="matrix(.1596 0 0 -.08983 41.67 51.52)" xlink:href="#k"/><g fill-rule="evenodd"><path fill="url(#Q)" d="M52.72 32.02c-1 .42-1.8 1.2-1.93 1.93-.13.75.78 3.05 1.13 2.52 2.42-3.64 4.94-.86 7.6-1.17 4.37 2.18 4.6 1.36 8.97 0 2.96.1 4.88-2.2 7.56 1.17.4.5 1.3-1.77 1.17-2.52-.13-.74-.93-1.5-1.94-1.93a6.9 6.9 0 00-4.08-.6c-1.7.33-4.6 2.25-6 2.56-1.12.57-1.27.5-2.4 0-1.4-.3-4.34-2.23-6.03-2.56-1.4-.32-2.72.14-4.05.6z" transform="translate(-.18)"/><path fill="url(#J)" d="M117.13 47.04l-.16-2.16-2 .17.5-1.5h-1.5v-1h-1.5l-1.32-1.82-.5.66-2-1.83v.5L107 38.9l.33.66-3.65-1.66.5.33-4.82-1.82 1 .83-4.5-.5-.33.66-4.65-1.33.16 1.67-3.82.83.5.83-4.5 1.16 1 .5-5 1.16.83 1.17-3.16 1.83 1 1.66h-1.33l-1.5 1.5-1.5 3.48 15.8 10.8V56.5l3.16 1.33-2-2.5 3.16 1L92.02 54l3.33 1-2.33-3 2.82 1.33L93.52 50l3.82 2.16L95.68 49l2.66 1.83-.83-3.33 2.32 2.5-.83-3.66 2.33 3.16-.17-2.83 1.5 2.83v-3.66l1.5 2.5v-2.5l1.82 1.66.34-2.5 1.33 1.84-.17-1.66 1.66 1.33-.16-1.17 1.5.67-.17-1.17 1.83 1.33v-1.5l1.16 1.84.33-1.17L114.8 47l.5-1.16 1.83 1.16z"/><path fill="url(#H)" d="M10.8 47.04l.17-2.16 2 .17-.5-1.5h1.5v-1h1.5l1.33-1.82.5.66 2-1.83v.5l1.66-1.16-.34.66 3.66-1.66-.5.33 4.82-1.82-1 .83 4.5-.5.33.66 4.65-1.33-.17 1.67 3.83.83-.5.83 4.5 1.16-1 .5 5 1.16-.83 1.17 3.15 1.83-1 1.66h1.34l1.5 1.5 1.5 3.48-15.8 10.8V56.5l-3.15 1.33 2-2.5-3.17 1 1.67-2.32-3.33 1 2.33-3-2.83 1.33 2.33-3.32-3.82 2.16 1.66-3.16-2.66 1.83.83-3.33-2.33 2.5.83-3.66-2.32 3.16.16-2.83-1.5 2.83v-3.66l-1.5 2.5v-2.5l-1.83 1.66-.33-2.5-1.33 1.84.17-1.66-1.67 1.33.17-1.17-1.5.67.17-1.17-1.83 1.33v-1.5l-1.16 1.84-.33-1.17-1.17 1.66-.5-1.16-1.82 1.16z"/><path fill="url(#I)" d="M33.4 63.83l1.67-2.32-2.5 1.5 1.33-2-2.66 1.16 1-2.16-2.16 1.33.66-2.16-2.82 1 .66-1.67-1.66 1v-1.16l-1.5.33.17-1.16-1.83.33-.33-1-1 .33-.66-1.16-1 .17-1.33-.83-3.66-.67 2.33 1.16-1.33.84 1.83-.34-1.5 2.16 2-1.33-.67 2.17 2-1.67-1.83 2.83 2.82-2.16-2 2.82 3-2-2 3 2.67-2-1.83 2.5 3.16-2.33L22.6 64l2.33-2.83-1.33 3.66 2.65-2.5L24.27 66l2.66-3.32-.83 3.16 1.5-2.33-.84 2.5 1.67-2.66-1.67 5.8 2-3.5-1.5 5.5 1.83-2.83-1.5 5.16-.66 4.15-.83-2.33.16 5.16-1.16-1.33 1 5.48-2-2.16 1.83 5-2.32-2.66 2 3.66-2.83-1.5 2.66 3.16-2.82-1.66 2 2.5-3-1.83 2 3-3.33-2 2.83 2.82-3.5-2.16 2.67 3.66-4-3 3.66 4.83-4.32-3.82 3.82 5.48-4.82-4.65 3.16 5.15-3.66-3.5 1.83 3.83-3.32-3.82 1 3.5-2.17-3v2.17l-2.16-1.66s.34 1.83 2.66 3c2.33 1.16 19.45 6.32 21.78 8.14 2.33 1.83 5.98 4.5 4.5 5.82-1.5 1.33-3 3.5-3 3.5l2.33-2-.66 2.33 2-1.67-.5 2 2.16-1-.17 1.83 1.83-.67.66 1.33 2.16-1.33.84 1.33 3.5-3.32-18-51.4z"/><path fill="url(#K)" d="M94.52 63.83l-1.66-2.32 2.5 1.5-1.33-2 2.66 1.16-1-2.16 2.16 1.33-.67-2.16 2.83 1-.66-1.67 1.66 1v-1.16l1.5.33-.17-1.16 1.83.33.33-1 1 .33.66-1.16 1 .17 1.33-.83 3.66-.67-2.33 1.16 1.33.84-1.83-.34 1.5 2.16-2-1.33.67 2.17-2-1.67 1.83 2.83-2.83-2.16 2 2.82-3-2 2 3-2.66-2 1.83 2.5-3.16-2.33 1.83 3.66-2.33-2.83 1.33 3.66-2.66-2.5 2 3.66-2.66-3.32.83 3.16-1.5-2.33.83 2.5-1.66-2.66 1.66 5.8-2-3.5 1.5 5.5-1.82-2.83 1.5 5.16.66 4.15.83-2.33-.17 5.16 1.17-1.33-1 5.48 2-2.16-1.84 5 2.33-2.66-2 3.66 2.83-1.5-2.66 3.16 2.83-1.66-2 2.5 3-1.83-2 3 3.33-2-2.83 2.82 3.5-2.16-2.67 3.66 4-3-3.67 4.83 4.33-3.82-3.83 5.48 4.82-4.65-3.15 5.15 3.65-3.5-1.83 3.83 3.33-3.82-1 3.5 2.16-3v2.17l2.16-1.66s-.33 1.83-2.66 3c-2.32 1.16-19.45 6.32-21.77 8.14-2.33 1.83-6 4.5-4.5 5.82 1.5 1.33 3 3.5 3 3.5l-2.33-2 .67 2.33-2-1.67.5 2-2.16-1 .17 1.83-1.83-.67-.67 1.33-2.16-1.33-.83 1.33-3.5-3.32L94.5 63.86z"/></g><path fill="#9a0606" stroke="#9a0606" stroke-linejoin="round" stroke-width="1.49" d="M64 48.16a36 36 0 110 72 36 36 0 010-72h0z"/><g transform="matrix(0 -.19575 .19575 0 20.52 132.06)"><use fill="url(#X)" xlink:href="#l"/><use fill="url(#B)" xlink:href="#l"/></g><use fill="url(#C)" transform="matrix(0 .14252 .14252 0 32.34 40.22)" xlink:href="#l"/><use fill="url(#D)" transform="matrix(0 -.11432 .1537 0 29.85 126.08)" xlink:href="#l"/><g transform="matrix(.19575 0 0 .19575 16.1 40.67)" fill-rule="evenodd" opacity=".5"><path fill="url(#Y)" d="M201.58 398.67S25.6 220.7 234.16 39.9c-235.8 180.15-32.03 357.83-32.58 358.78z"/><path fill="url(#Z)" d="M418.06 185.2S240.1 9.2 59.28 217.77c180.16-235.8 357.84-32.04 358.78-32.58z"/><path fill="url(#a)" d="M66.94 267.02s177.96 176 358.78-32.58c-180.16 235.8-357.84 32.04-358.78 32.58z"/><path fill="url(#b)" d="M283.42 47.54S459.4 225.5 250.84 406.32c235.8-180.15 32.03-357.84 32.58-358.78z"/><path fill="url(#E)" d="M92 316s170.42-72.47 308.7-178.23C239 206 91 316 92 316z"/><path fill="url(#F)" d="M335.47 381.24S263 210.82 157.24 72.53c68.23 161.7 178.23 309.7 178.23 308.7z"/></g><g fill="url(#G)"><use transform="matrix(.3664 0 0 .3664 7 30.8)" xlink:href="#m"/><use transform="matrix(.1556 0 0 .1556 58.2 43.5)" xlink:href="#m"/><use transform="matrix(.09536 0 0 .09536 74.87 56.16)" xlink:href="#m"/><use transform="matrix(.19575 0 0 .19575 22.16 35.97)" xlink:href="#m"/><use transform="matrix(.19575 0 0 .19575 53.88 43.8)" xlink:href="#m"/><use transform="matrix(.19575 0 0 .19575 44.68 75.51)" xlink:href="#m"/><use transform="matrix(.19575 0 0 .19575 12.18 68.27)" xlink:href="#m"/><use transform="matrix(.1556 0 0 .1556 57.22 79.91)" xlink:href="#m"/><use transform="matrix(.09536 0 0 .09536 62.15 94.92)" xlink:href="#m"/><use transform="matrix(.1556 0 0 .1556 21.2 80.7)" xlink:href="#m"/><use transform="matrix(.1556 0 0 .1556 21.2 44.28)" xlink:href="#m"/><use transform="matrix(.09536 0 0 .09536 23.59 85.92)" xlink:href="#m"/><use transform="matrix(.09536 0 0 .09536 35.13 46.18)" xlink:href="#m"/></g><g fill-rule="evenodd"><path fill="url(#c)" d="M11.8 58.35s-4.32 2.7-5.98 5.1-3.33 3.3-3.66 6.46c-.33 3.15.67 8.25.67 8.25l.33-2.7.16 2.4L4 75.9l.5 1.95 1-1.95.5 1.35.33-1.5.83 2.7.16-4.2.84 4.05.16-3 .83 2.7.5-2.7 1.33 3v-3.6l1.33 2.4.17-2.25 1.5 1.95v-2.4l1.5 1.65.17-2.1 2 3.3 1.82-2.85.33 3 1-3.15 1.83 2.1.16-3.6 1.33.9.67-3.9.5 2.1.83-2.4.83.6 1.33-2.86-1.33 1.66-.67-1.2-1 1.5-.16-1.8-2.33 2.1 1-2.1-2.16 1.5.67-2.26-2.17 1.8 1-2.25-2.5 1.5 1-2.7-2 2.1.5-2.25-1.33.9 1.16-1.95-3.32 1.8 3-3-3.67 2.4 3.16-3.6-4.32 2.85 2.33-3.75-4 3.15 2.83-4.05-4.32 2.85 4-3.75L8.8 61.8l3-3.45z"/><path fill="url(#d)" d="M116.13 58.35s4.33 2.7 6 5.1 3.32 3.3 3.66 6.46c.33 3.15-.67 8.25-.67 8.25l-.33-2.7-.17 2.4-.66-1.95-.5 1.95-1-1.95-.5 1.35-.33-1.5-.83 2.7-.17-4.2-.83 4.05-.16-3-.84 2.7-.5-2.7-1.32 3v-3.6l-1.33 2.4-.17-2.25-1.5 1.95v-2.4l-1.5 1.65-.16-2.1-2 3.3-1.82-2.85-.33 3-1-3.15-1.83 2.1-.17-3.6-1.33.9-.66-3.9-.5 2.1-.83-2.4-.83.6-1.33-2.86 1.33 1.66.66-1.2 1 1.5.17-1.8 2.32 2.1-1-2.1 2.17 1.5-.67-2.26 2.16 1.8-1-2.25 2.5 1.5-1-2.7 2 2.1-.5-2.25 1.33.9-1.17-1.95 3.33 1.8-3-3 3.66 2.4-3.15-3.6 4.32 2.85-2.33-3.75 4 3.15-2.83-4.05 4.33 2.85-4-3.75 4.83 3.15-3-3.45z"/><g fill="url(#e)"><use stroke="url(#f)" xlink:href="#n"/><use xlink:href="#n"/></g><use fill="url(#M)" xlink:href="#o"/><g transform="matrix(-1 0 0 1 127.92 0)"><g fill="url(#e)"><use stroke="url(#f)" xlink:href="#n"/><use xlink:href="#n"/></g><use fill="url(#M)" xlink:href="#o"/></g></g></svg>