<svg xmlns="http://www.w3.org/2000/svg" width="100" height="100" viewBox="0 0 100 100"><path d="M29.82,62.58v-31A5.84,5.84,0,0,0,24,37.39v36.8A5.82,5.82,0,0,0,29.82,80h29a5.82,5.82,0,0,0,5.81-5.81H41.44C35.05,74.19,29.82,74.19,29.82,62.58Z" fill="#fff"/><path d="M66.25,32.9h8.57A1.09,1.09,0,0,0,76,31.83a.06.06,0,0,0,0-.06,1,1,0,0,0-.33-.8L65,20.32a1,1,0,0,0-.85-.32A1.11,1.11,0,0,0,63,21.07v8.61A3.23,3.23,0,0,0,66.25,32.9Z" fill="#fff"/><polygon points="48.77 32.89 46.02 32.89 45.34 35.55 48.09 35.55 48.77 32.89" fill="#fff"/><path d="M74.36,37.74H63.05A4.87,4.87,0,0,1,58.2,32.9V21.61A1.62,1.62,0,0,0,56.6,20H40.46a4.87,4.87,0,0,0-4.84,4.84V63.55a4.87,4.87,0,0,0,4.84,4.84H71.14A4.87,4.87,0,0,0,76,63.55V39.35A1.63,1.63,0,0,0,74.36,37.74Zm-33.9-.41,0-.17.33-1.23a.51.51,0,0,1,.5-.38h1.61l.68-2.66H42.2a.51.51,0,0,1-.51-.51v-.13L42.05,31a.5.5,0,0,1,.5-.38h1.64l.7-2.65a.54.54,0,0,1,.51-.41h1.36a.51.51,0,0,1,.51.51v.16l-.63,2.42h2.78L50.08,28a.56.56,0,0,1,.52-.41h1.34a.51.51,0,0,1,.51.51v.13l-.63,2.42h1.32a.8.8,0,0,1,.4.14l.13.09v.28l-.35,1.28a.49.49,0,0,1-.51.41H51.2l-.7,2.67h1.37a.5.5,0,0,1,.5.49s0,0,0,0v.13L52,37.41a.49.49,0,0,1-.5.41H49.9l-.67,2.7a.49.49,0,0,1-.5.41H47.37a.49.49,0,0,1-.51-.49s0,0,0,0v-.13l.63-2.44H44.75l-.7,2.7a.49.49,0,0,1-.5.41H42.14a.51.51,0,0,1-.51-.51v-.13l.63-2.47H41a.51.51,0,0,1-.52-.51ZM64.67,59.52a1.62,1.62,0,0,1-1.62,1.61h-21a1.61,1.61,0,0,1-1.62-1.61V57.9a1.61,1.61,0,0,1,1.62-1.61h21a1.62,1.62,0,0,1,1.62,1.61Zm3.21-9.68a1.61,1.61,0,0,1-1.61,1.61H42.08a1.62,1.62,0,0,1-1.62-1.61V48.23a1.64,1.64,0,0,1,1.62-1.62H66.27a1.61,1.61,0,0,1,1.61,1.62Z" fill="#fff"/></svg>