<svg xmlns="http://www.w3.org/2000/svg" height="52" width="52" viewBox="0 0 520 520" fill="#fff"><path d="M410 160h78c4 0 7-5 4-9l-83-83c-4-3-9 0-9 4v78c0 6 4 10 10 10zm80 40H380c-11 0-20-9-20-20V70c0-6-4-10-10-10H215c-8 0-15 7-15 15v40c0 4 2 8 4 11l56 56c8 8 14 19 16 31 2 16-3 31-14 43l-16 14c-5 5-10 8-16 11 7 3 15 5 23 6 26 2 47 24 47 51v22a52 52 0 0 1-56 50l-32-5c-6-2-12 3-12 10v31c0 8 7 15 15 15h270c8 0 15-7 15-15V210c0-6-4-10-10-10zM260 359v-22c0-6-5-10-11-11-54-5-99-51-99-108v-12c0-6 8-10 12-5l40 40c4 4 11 4 15 0l15-15c4-4 4-11 0-15l-97-97c-4-4-11-4-15 0l-97 97c-4 4-4 11 0 15l15 15c4 4 11 5 15 1l42-40c5-5 14-1 14 5v19c0 72 63 138 139 144 7 0 12-5 12-11z"/></svg>