<?xml version="1.0" encoding="UTF-8" standalone="no"?>
<!-- Generator: Adobe Illustrator 16.0.0, SVG Export Plug-In . SVG Version: 6.00 Build 0)  -->

<svg
   xmlns:dc="http://purl.org/dc/elements/1.1/"
   xmlns:cc="http://creativecommons.org/ns#"
   xmlns:rdf="http://www.w3.org/1999/02/22-rdf-syntax-ns#"
   xmlns:svg="http://www.w3.org/2000/svg"
   xmlns="http://www.w3.org/2000/svg"
   xmlns:sodipodi="http://sodipodi.sourceforge.net/DTD/sodipodi-0.dtd"
   xmlns:inkscape="http://www.inkscape.org/namespaces/inkscape"
   version="1.1"
   id="Layer_1"
   x="0px"
   y="0px"
   width="64px"
   height="64px"
   viewBox="0 0 64 64"
   enable-background="new 0 0 64 64"
   xml:space="preserve"
   inkscape:version="0.48.5 r10040"
   sodipodi:docname="0034.svg"
   inkscape:export-filename="D:\TESTINGEMOJI\SVGTEST\0034.png"
   inkscape:export-xdpi="90"
   inkscape:export-ydpi="90"><metadata
   id="metadata4929"><rdf:RDF><cc:Work
       rdf:about=""><dc:format>image/svg+xml</dc:format><dc:type
         rdf:resource="http://purl.org/dc/dcmitype/StillImage" /><dc:title></dc:title></cc:Work></rdf:RDF></metadata><defs
   id="defs4927" /><sodipodi:namedview
   pagecolor="#ffffff"
   bordercolor="#666666"
   borderopacity="1"
   objecttolerance="10"
   gridtolerance="10"
   guidetolerance="10"
   inkscape:pageopacity="0"
   inkscape:pageshadow="2"
   inkscape:window-width="640"
   inkscape:window-height="480"
   id="namedview4925"
   showgrid="false"
   inkscape:zoom="3.6875"
   inkscape:cx="32"
   inkscape:cy="32"
   inkscape:window-x="545"
   inkscape:window-y="308"
   inkscape:window-maximized="0"
   inkscape:current-layer="Layer_1" />
<g
   id="g4915">
	<g
   id="g4917">
		<path
   fill="#1B75BB"
   d="M63.916,57.025c0,3.81-3.082,6.894-6.888,6.894H6.887C3.084,63.919,0,60.835,0,57.025V6.889    C0,3.086,3.084,0,6.887,0h50.141c3.806,0,6.888,3.086,6.888,6.889V57.025z"
   id="path4919" />
		<path
   fill="#0867A3"
   d="M0,48.67v8.355c0,3.81,3.084,6.894,6.887,6.894h50.141c3.806,0,6.888-3.084,6.888-6.894V6.889    C53.004,46.536,13.767,49.049,0,48.67z"
   id="path4921" />
	</g>
	<path
   fill="#FFFFFF"
   d="M34.556,49.379v-5.372H20.053c-1.832,0-3.204-0.416-4.115-1.244c-0.915-0.829-1.375-1.956-1.375-3.379   c0-0.367,0.069-0.738,0.205-1.113c0.133-0.377,0.335-0.77,0.606-1.184c0.271-0.415,0.55-0.815,0.836-1.2   c0.291-0.385,0.64-0.855,1.07-1.415l15.31-20.483c1.001-1.347,1.824-2.324,2.47-2.933c0.647-0.606,1.417-0.907,2.328-0.907   c2.925,0,4.39,1.674,4.39,5.024v22.362h1.244c1.48,0,2.666,0.202,3.565,0.606c0.896,0.404,1.343,1.292,1.343,2.658   c0,1.117-0.361,1.931-1.1,2.44c-0.729,0.513-1.829,0.768-3.294,0.768h-1.759v5.372c0,1.484-0.33,2.588-0.986,3.308   c-0.651,0.721-1.527,1.084-2.627,1.084c-1.076,0-1.948-0.371-2.615-1.113C34.886,51.915,34.556,50.822,34.556,49.379z    M22.13,37.534h12.425V20.75L22.13,37.534z"
   id="path4923" />
</g>
</svg>