<?xml version="1.0" encoding="UTF-8" standalone="no"?>
<!-- Generator: Adobe Illustrator 16.0.0, SVG Export Plug-In . SVG Version: 6.00 Build 0)  -->

<svg
   xmlns:dc="http://purl.org/dc/elements/1.1/"
   xmlns:cc="http://creativecommons.org/ns#"
   xmlns:rdf="http://www.w3.org/1999/02/22-rdf-syntax-ns#"
   xmlns:svg="http://www.w3.org/2000/svg"
   xmlns="http://www.w3.org/2000/svg"
   xmlns:sodipodi="http://sodipodi.sourceforge.net/DTD/sodipodi-0.dtd"
   xmlns:inkscape="http://www.inkscape.org/namespaces/inkscape"
   version="1.1"
   id="Layer_1"
   x="0px"
   y="0px"
   width="64px"
   height="64px"
   viewBox="0 0 64 64"
   enable-background="new 0 0 64 64"
   xml:space="preserve"
   inkscape:version="0.48.5 r10040"
   sodipodi:docname="1F34E.svg"
   inkscape:export-filename="D:\TESTINGEMOJI\SVGTEST\1F34E.png"
   inkscape:export-xdpi="90"
   inkscape:export-ydpi="90"><metadata
   id="metadata5011"><rdf:RDF><cc:Work
       rdf:about=""><dc:format>image/svg+xml</dc:format><dc:type
         rdf:resource="http://purl.org/dc/dcmitype/StillImage" /><dc:title></dc:title></cc:Work></rdf:RDF></metadata><defs
   id="defs5009" /><sodipodi:namedview
   pagecolor="#ffffff"
   bordercolor="#666666"
   borderopacity="1"
   objecttolerance="10"
   gridtolerance="10"
   guidetolerance="10"
   inkscape:pageopacity="0"
   inkscape:pageshadow="2"
   inkscape:window-width="640"
   inkscape:window-height="480"
   id="namedview5007"
   showgrid="false"
   inkscape:zoom="3.6875"
   inkscape:cx="32"
   inkscape:cy="32"
   inkscape:window-x="580"
   inkscape:window-y="373"
   inkscape:window-maximized="0"
   inkscape:current-layer="Layer_1" />
<g
   id="g4997"
   transform="translate(6,0)">
	<path
   d="m 32.025,11.791 c -2.168,0 -4.251,0.053 -6.205,0.238 -1.951,-0.185 -4.032,-0.238 -6.2,-0.238 C 8.78,11.791 0,13.056 0,25.843 c 0,12.783 8.78,37.786 19.621,37.786 2.165,0 4.249,-1.014 6.2,-2.719 1.949,1.705 4.036,2.719 6.205,2.719 10.836,0 19.616,-25.003 19.616,-37.786 0,-12.787 -8.781,-14.052 -19.617,-14.052 z"
   id="path4999"
   inkscape:connector-curvature="0"
   style="fill:#e45264" />
	<path
   d="M 34.032,60.713 C 30.158,59.665 27.207,57.279 23.179,59.419 21.822,60.142 19.786,60.812 18.241,60.327 12.667,58.577 11.324,52.973 9.886,47.786 7.497,39.164 3.39,24.783 5.877,13.959 2.253,15.861 0,19.373 0,25.843 c 0,12.783 8.78,37.786 19.621,37.786 2.165,0 4.249,-1.014 6.2,-2.719 1.949,1.705 4.036,2.719 6.205,2.719 2.02,0 3.968,-0.87 5.8,-2.365 -1.245,-0.058 -2.504,-0.202 -3.794,-0.551 z"
   id="path5001"
   inkscape:connector-curvature="0"
   style="fill:#cd4e64" />
	<path
   d="M 32.709,0.166 C 32.438,0.24 31.843,1.85 31.853,2.01 c 0.228,4.005 -5.449,11.765 -6.307,12.824 -1.986,2.453 -2.59,6.071 -1.064,6.408 1.468,0.325 6.239,-4.268 7.233,-5.151 2.432,-2.169 4.531,-5.41 5.542,-8.516 1.065,-3.277 -0.309,-8.58 -4.548,-7.409 z"
   id="path5003"
   inkscape:connector-curvature="0"
   style="fill:#2bb573" />
	<path
   d="M 45.659,8.689 C 43.375,6.266 33.431,9.1 31.724,10.702 c -1.705,1.606 4.664,4.527 7.965,6.568 3.399,2.103 6.727,4.403 8.429,2.801 1.704,-1.602 -0.181,-8.958 -2.459,-11.382 z"
   id="path5005"
   inkscape:connector-curvature="0"
   style="fill:#04a69c" />
</g>
</svg>