<?xml version="1.0" encoding="UTF-8" standalone="no"?>
<!-- Generator: Adobe Illustrator 16.0.0, SVG Export Plug-In . SVG Version: 6.00 Build 0)  -->

<svg
   xmlns:dc="http://purl.org/dc/elements/1.1/"
   xmlns:cc="http://creativecommons.org/ns#"
   xmlns:rdf="http://www.w3.org/1999/02/22-rdf-syntax-ns#"
   xmlns:svg="http://www.w3.org/2000/svg"
   xmlns="http://www.w3.org/2000/svg"
   xmlns:sodipodi="http://sodipodi.sourceforge.net/DTD/sodipodi-0.dtd"
   xmlns:inkscape="http://www.inkscape.org/namespaces/inkscape"
   version="1.1"
   id="Layer_1"
   x="0px"
   y="0px"
   width="64px"
   height="64px"
   viewBox="0 0 64 64"
   enable-background="new 0 0 64 64"
   xml:space="preserve"
   inkscape:version="0.48.5 r10040"
   sodipodi:docname="1F37C.svg"
   inkscape:export-filename="D:\TESTINGEMOJI\SVGTEST\1F37C.png"
   inkscape:export-xdpi="90"
   inkscape:export-ydpi="90"><metadata
   id="metadata5122"><rdf:RDF><cc:Work
       rdf:about=""><dc:format>image/svg+xml</dc:format><dc:type
         rdf:resource="http://purl.org/dc/dcmitype/StillImage" /><dc:title></dc:title></cc:Work></rdf:RDF></metadata><defs
   id="defs5120" /><sodipodi:namedview
   pagecolor="#ffffff"
   bordercolor="#666666"
   borderopacity="1"
   objecttolerance="10"
   gridtolerance="10"
   guidetolerance="10"
   inkscape:pageopacity="0"
   inkscape:pageshadow="2"
   inkscape:window-width="640"
   inkscape:window-height="480"
   id="namedview5118"
   showgrid="false"
   inkscape:zoom="3.6875"
   inkscape:cx="32"
   inkscape:cy="32"
   inkscape:window-x="400"
   inkscape:window-y="264"
   inkscape:window-maximized="0"
   inkscape:current-layer="Layer_1" />
<g
   id="g5094">
	<path
   fill="#C2C1C3"
   d="M61.185,33.946c3.418,2.949,3.596,8.332,0.407,12.034l-7.703,8.935c-3.19,3.698-8.552,4.308-11.965,1.362   L13.01,31.334c-3.412-2.947-3.596-8.335-0.403-12.033l7.705-8.934c3.193-3.698,8.546-4.308,11.961-1.362L61.185,33.946z"
   id="path5096" />
	<path
   fill="#D8D8D7"
   d="M58.11,35.374c2.706,2.331,2.85,6.59,0.323,9.515l-6.091,7.061c-2.522,2.925-6.758,3.405-9.458,1.078   l-22.857-19.72c-2.698-2.328-2.841-6.588-0.321-9.511l6.093-7.062c2.522-2.925,6.758-3.406,9.458-1.078L58.11,35.374z"
   id="path5098" />
	<path
   fill="#30B9D8"
   d="M34.38,9.132c0.888,0.761-1.209,4.641-4.68,8.664l-8.372,9.705c-3.469,4.021-6.999,6.662-7.885,5.898   l-7.496-6.465c-0.886-0.765,1.208-4.645,4.678-8.668l8.374-9.703c3.473-4.023,6.999-6.664,7.887-5.901L34.38,9.132z"
   id="path5100" />
	
		<ellipse
   transform="matrix(0.6532 -0.7572 0.7572 0.6532 -5.4906 18.9507)"
   fill="#1C90A3"
   cx="17.943"
   cy="15.469"
   rx="13.788"
   ry="3.314"
   id="ellipse5102" />
	<path
   fill="#EEA643"
   d="M19.946,7.013c-0.501-0.221-1.033-0.372-1.548-0.462c-1.843-0.325-4.06-0.026-5.795-0.81   c-1.421-0.643-2.489-2.083-3.569-3.162c-0.843-0.835-1.8-1.763-2.921-2.242l0,0V0.334c-0.25-0.104-0.505-0.19-0.767-0.248   C3.712-0.269,2.344,0.508,1.2,1.601C1.186,1.613,1.178,1.627,1.166,1.642c-0.01,0.017-0.024,0.024-0.035,0.041   C0.708,2.28,0.36,2.918,0.166,3.589l0,0c-0.223,0.769-0.241,1.579,0.074,2.416c0.53,1.401,1.849,2.419,3.008,3.283   c1.223,0.912,2.804,1.755,3.651,3.068c0.104,0.16,0.196,0.332,0.282,0.507l0.472,1.272c0.356,1.268,0.503,2.653,0.894,3.835   c0.063,0.194,0.143,0.395,0.229,0.591l0,0l0,0c0.127,0.299,0.282,0.593,0.458,0.872c-0.065,1.01,0.17,1.827,0.745,2.324   c1.743,1.497,5.923-0.491,9.339-4.455c3.417-3.96,4.778-8.39,3.035-9.891C21.777,6.915,20.938,6.804,19.946,7.013z"
   id="path5104" />
	<path
   fill="#D8913C"
   d="M13.959,17.313c-0.575-0.495-0.81-1.313-0.745-2.323c-0.178-0.278-0.329-0.573-0.458-0.867v-0.004l0,0   c-0.09-0.196-0.164-0.396-0.229-0.593c-0.393-1.18-0.538-2.564-0.894-3.829L11.159,8.42c-0.086-0.176-0.178-0.344-0.28-0.507   c-0.845-1.311-2.426-2.156-3.653-3.068C6.062,3.981,4.749,2.961,4.217,1.564c-0.18-0.487-0.25-0.965-0.233-1.432   c-1.016,0.186-1.912,0.79-2.698,1.542C1.274,1.687,1.262,1.701,1.251,1.715C1.239,1.728,1.229,1.74,1.215,1.756   C0.792,2.354,0.443,2.992,0.25,3.66l0,0c-0.223,0.769-0.24,1.581,0.08,2.418c0.528,1.401,1.845,2.419,3.002,3.283   c1.225,0.912,2.804,1.755,3.651,3.068c0.104,0.16,0.199,0.332,0.282,0.507l0.473,1.272c0.354,1.268,0.505,2.65,0.896,3.833   c0.065,0.194,0.143,0.393,0.225,0.591v0.002H8.86c0.131,0.299,0.278,0.593,0.454,0.872c-0.062,1.01,0.176,1.826,0.75,2.319   c1.741,1.505,5.921-0.491,9.339-4.451c0.679-0.79,1.278-1.595,1.785-2.397C18.312,17.473,15.35,18.516,13.959,17.313z"
   id="path5106" />
	<path
   fill="#323232"
   d="M30.498,28.734c0.391,0.339,0.548,0.81,0.339,1.047l-4.043,4.692c-0.207,0.239-0.695,0.155-1.09-0.184l0,0   c-0.395-0.344-0.548-0.814-0.339-1.052l4.043-4.692C29.614,28.309,30.101,28.391,30.498,28.734L30.498,28.734z"
   id="path5108" />
	<path
   fill="#323232"
   d="M35.557,33.097c0.396,0.34,0.55,0.812,0.343,1.052l-4.043,4.69c-0.207,0.237-0.699,0.159-1.092-0.187l0,0   c-0.399-0.34-0.548-0.81-0.342-1.049l4.043-4.69C34.675,32.674,35.161,32.758,35.557,33.097L35.557,33.097z"
   id="path5110" />
	<path
   fill="#323232"
   d="M40.684,37.523c0.401,0.34,0.553,0.812,0.344,1.051l-4.043,4.687c-0.207,0.241-0.694,0.157-1.093-0.183l0,0   c-0.396-0.339-0.546-0.812-0.34-1.051l4.044-4.688C39.803,37.1,40.289,37.182,40.684,37.523L40.684,37.523z"
   id="path5112" />
	<path
   fill="#323232"
   d="M45.646,41.802c0.399,0.342,0.553,0.812,0.346,1.054l-4.045,4.688c-0.207,0.241-0.698,0.159-1.093-0.185   l0,0c-0.395-0.342-0.546-0.812-0.339-1.054l4.043-4.688C44.767,41.379,45.253,41.463,45.646,41.802L45.646,41.802z"
   id="path5114" />
	<path
   fill="#323232"
   d="M24.767,30.387c0.184-0.215,1.047,0.225,1.92,0.981L43.83,46.154c0.875,0.759,1.434,1.543,1.254,1.758l0,0   c-0.187,0.212-1.046-0.226-1.925-0.982L26.021,32.142C25.146,31.389,24.583,30.602,24.767,30.387L24.767,30.387z"
   id="path5116" />
</g>
</svg>