<?xml version="1.0" encoding="utf-8"?>
<!-- Generator: Adobe Illustrator 16.0.0, SVG Export Plug-In . SVG Version: 6.00 Build 0)  -->
<!DOCTYPE svg PUBLIC "-//W3C//DTD SVG 1.1//EN" "http://www.w3.org/Graphics/SVG/1.1/DTD/svg11.dtd">
<svg version="1.1" id="Layer_1" xmlns="http://www.w3.org/2000/svg" xmlns:xlink="http://www.w3.org/1999/xlink" x="0px" y="0px"
	 width="64px" height="64px" viewBox="0 0 64 64" enable-background="new 0 0 64 64" xml:space="preserve">
<g>
	<g>
		<path fill="#243438" d="M50.093,23.322c-3.322-2.944-6.65-5.889-9.979-8.836c-1.192-1.055-3.074-0.944-4.128,0.25
			c-9.98,11.275-19.957,22.547-29.93,33.819c-1.061,1.194-0.944,3.074,0.249,4.131c1.24,1.098,2.479,2.192,3.719,3.295
			c0.113,0.096,0.23,0.167,0.343,0.246c0.848,0.714,2.036,0.919,3.195,0.013c12.067-9.426,24.131-18.848,36.197-28.274
			C51.235,26.809,51.615,24.667,50.093,23.322z"/>
		<path fill="#243438" d="M11.938,52.815c-0.888-0.785-1.773-1.57-2.663-2.355c-0.317-0.284-0.818-0.25-1.103,0.067
			c-2.66,3.007-5.318,6.01-7.981,9.017c-0.28,0.317-0.25,0.818,0.071,1.103c0.328,0.292,0.658,0.584,0.99,0.877
			c0.029,0.029,0.063,0.046,0.09,0.066c0.226,0.192,0.543,0.247,0.852,0.005c3.22-2.515,6.436-5.028,9.649-7.539
			C12.24,53.747,12.34,53.175,11.938,52.815z"/>
		<path fill="#374D52" d="M41.646,15.847c-6.468,7.922-12.262,16.659-18.028,24.723c-3.404,4.757-6.457,10.211-9.764,15.44
			c11.967-9.347,23.933-18.698,35.902-28.044c1.479-1.157,1.858-3.299,0.336-4.645C47.282,20.829,44.465,18.335,41.646,15.847z"/>
		<circle fill-rule="evenodd" clip-rule="evenodd" fill="#E7E6E6" cx="48.642" cy="15.365" r="15.29"/>
		<path fill-rule="evenodd" clip-rule="evenodd" fill="#BCBDBF" d="M46.587,0.229c-7.47,1.004-13.235,7.388-13.235,15.135
			c0,7.757,5.776,14.146,13.258,15.141C35.753,19.271,42.732,7.501,46.587,0.229z"/>
		<path fill="#BF1F5B" d="M22.268,29.929c1.261,1.211,2.522,2.422,3.786,3.633c0.8,0.769,1.605,1.541,2.408,2.306
			c0.052,0.054,0.113,0.075,0.133,0.054c0.491-0.514,0.981-1.023,1.475-1.541c0.28-0.292,0.566-0.589,0.848-0.881
			c0.017-0.021-0.008-0.079-0.059-0.13c-1.265-1.211-2.524-2.418-3.792-3.629c-0.802-0.773-1.608-1.537-2.406-2.31
			c-0.029-0.025-0.054-0.038-0.075-0.046l0,0c-0.006-0.004-0.006-0.004-0.006-0.004c-0.021-0.008-0.04-0.013-0.048,0
			c-0.497,0.514-0.985,1.027-1.48,1.541c-0.282,0.297-0.562,0.589-0.842,0.881C22.188,29.82,22.213,29.883,22.268,29.929z"/>
		<path fill="#057A70" d="M25.126,26.329c1.259,1.207,2.524,2.418,3.79,3.629c0.8,0.769,1.604,1.537,2.408,2.306
			c0.048,0.05,0.111,0.075,0.131,0.054c0.489-0.514,0.981-1.027,1.476-1.541c0.278-0.292,0.562-0.585,0.844-0.881
			c0.02-0.021-0.01-0.079-0.061-0.129c-1.261-1.211-2.522-2.418-3.784-3.629c-0.806-0.769-1.61-1.541-2.412-2.31
			c-0.027-0.025-0.05-0.042-0.073-0.05l-0.002,0.004c-0.002-0.004-0.002-0.004-0.002-0.004c-0.021-0.008-0.042-0.008-0.05,0
			c-0.493,0.514-0.986,1.027-1.479,1.541c-0.282,0.292-0.563,0.589-0.848,0.881C25.049,26.22,25.074,26.279,25.126,26.329z"/>
		<path fill="#DA1D5D" d="M21.583,28.785c1.261,1.211,2.522,2.422,3.788,3.629c0.798,0.772,1.606,1.541,2.406,2.31
			c0.054,0.05,0.115,0.075,0.134,0.05c0.488-0.51,0.983-1.023,1.476-1.537c0.278-0.292,0.566-0.589,0.846-0.885
			c0.019-0.017-0.008-0.079-0.059-0.125c-1.265-1.211-2.526-2.422-3.792-3.633c-0.8-0.769-1.604-1.537-2.403-2.306
			c-0.029-0.029-0.057-0.042-0.077-0.05l0,0c-0.004-0.004-0.004-0.004-0.004-0.004c-0.023-0.004-0.042-0.008-0.05,0
			c-0.493,0.518-0.985,1.027-1.478,1.545c-0.284,0.296-0.562,0.589-0.842,0.877C21.503,28.676,21.528,28.739,21.583,28.785z"/>
		<path fill="#04A69C" d="M25.126,25.339c1.259,1.211,2.524,2.418,3.79,3.629c0.8,0.769,1.604,1.541,2.408,2.306
			c0.048,0.05,0.111,0.075,0.131,0.054c0.489-0.51,0.981-1.027,1.476-1.541c0.278-0.292,0.562-0.585,0.844-0.881
			c0.02-0.017-0.01-0.08-0.061-0.129c-1.261-1.207-2.522-2.418-3.784-3.629c-0.806-0.769-1.61-1.541-2.412-2.305
			c-0.027-0.029-0.05-0.046-0.073-0.05h-0.002c-0.002-0.004-0.002-0.004-0.002-0.004c-0.021-0.009-0.042-0.009-0.05,0
			c-0.493,0.514-0.986,1.027-1.479,1.541c-0.282,0.296-0.563,0.589-0.848,0.881C25.049,25.23,25.074,25.289,25.126,25.339z"/>
	</g>
	<path fill="#FAAD40" d="M34.901,53.166c-2.654,1.433-3.675,5.195-0.33,6.478c0.846,0.359,1.721,0.631,2.623,0.819
		c3.783,0.668,7.162-0.61,8.985-4.144c3.381-6.549,3.22-14.25,6.112-20.982c0.116-0.279,0.442-0.388,0.693-0.188
		c4.798,3.871,8.72,7.479,5.895,13.966c-0.846,1.934-2.211,3.546-3.715,5.032c0.56-0.342,1.111-0.693,1.642-1.068
		c1.758-1.253,3.8-2.812,4.431-4.995c1.044-3.617-0.382-6.783-1.888-10.007c-1.521-3.249-2.848-6.59-4.272-9.877
		c-0.376-0.86-1.428-1.496-1.312-1.888c-0.079,0.276-0.162,0.551-0.242,0.832c-0.873,2.999-1.75,6.001-2.622,9.004
		c-1.7,5.826-3.396,11.652-5.096,17.475c-0.088,0.309-0.459,0.358-0.693,0.188C42.274,51.742,38.029,51.483,34.901,53.166z"/>
	<path fill="#FAAD40" d="M2.282,27.97c-1.13,2.305,0.033,5.417,2.984,4.648c0.764-0.171,1.505-0.417,2.222-0.735
		c2.953-1.412,4.661-3.98,4.17-7.329c-0.906-6.215-4.843-11.472-6.179-17.571c-0.054-0.249,0.115-0.486,0.389-0.47
		c5.246,0.298,9.751,0.854,11.015,6.749c0.374,1.756,0.228,3.554-0.077,5.328c0.219-0.514,0.421-1.032,0.605-1.555
		c0.597-1.742,1.236-3.836,0.593-5.657C16.93,8.355,14.37,6.87,11.73,5.381c-2.668-1.5-5.243-3.153-7.864-4.724
		C3.182,0.249,2.14,0.33,2.022,0c0.084,0.234,0.161,0.463,0.245,0.697c0.881,2.514,1.767,5.028,2.65,7.543
		c1.712,4.878,3.429,9.752,5.147,14.631c0.087,0.259-0.146,0.476-0.393,0.476C6.677,23.322,3.612,25.247,2.282,27.97z"/>
</g>
</svg>
