<?xml version="1.0" encoding="UTF-8" standalone="no"?>
<!-- Generator: Adobe Illustrator 16.0.0, SVG Export Plug-In . SVG Version: 6.00 Build 0)  -->

<svg
   xmlns:dc="http://purl.org/dc/elements/1.1/"
   xmlns:cc="http://creativecommons.org/ns#"
   xmlns:rdf="http://www.w3.org/1999/02/22-rdf-syntax-ns#"
   xmlns:svg="http://www.w3.org/2000/svg"
   xmlns="http://www.w3.org/2000/svg"
   xmlns:sodipodi="http://sodipodi.sourceforge.net/DTD/sodipodi-0.dtd"
   xmlns:inkscape="http://www.inkscape.org/namespaces/inkscape"
   version="1.1"
   id="Layer_1"
   x="0px"
   y="0px"
   width="64px"
   height="64px"
   viewBox="0 0 64 64"
   enable-background="new 0 0 64 64"
   xml:space="preserve"
   inkscape:version="0.48.5 r10040"
   sodipodi:docname="1F420.svg"
   inkscape:export-filename="D:\TESTINGEMOJI\SVGTEST\1F420.png"
   inkscape:export-xdpi="90"
   inkscape:export-ydpi="90"><metadata
   id="metadata4339"><rdf:RDF><cc:Work
       rdf:about=""><dc:format>image/svg+xml</dc:format><dc:type
         rdf:resource="http://purl.org/dc/dcmitype/StillImage" /><dc:title></dc:title></cc:Work></rdf:RDF></metadata><defs
   id="defs4337" /><sodipodi:namedview
   pagecolor="#ffffff"
   bordercolor="#666666"
   borderopacity="1"
   objecttolerance="10"
   gridtolerance="10"
   guidetolerance="10"
   inkscape:pageopacity="0"
   inkscape:pageshadow="2"
   inkscape:window-width="640"
   inkscape:window-height="480"
   id="namedview4335"
   showgrid="false"
   inkscape:zoom="3.6875"
   inkscape:cx="32"
   inkscape:cy="32"
   inkscape:window-x="393"
   inkscape:window-y="364"
   inkscape:window-maximized="0"
   inkscape:current-layer="Layer_1" />
<g
   id="g4305">
	<path
   fill="#BCAB33"
   d="M49.321,34.455c10.431-0.302,10.595,15.305,8.803,14.801C52.521,47.679,47.418,34.509,49.321,34.455z"
   id="path4307" />
	<path
   fill="#25333A"
   d="M18.224,49.066c10.43-0.302,10.594,15.305,8.802,14.801C21.423,62.29,16.32,49.12,18.224,49.066z"
   id="path4309" />
	<path
   fill="#25333A"
   d="M22.951,20.018C6.722,22.75,36.212-2.132,36.376,0.148C36.892,7.274,25.258,19.63,22.951,20.018z"
   id="path4311" />
	<path
   fill="#BCAB33"
   d="M49.67,36.797c-16.233,2.731,13.257-18.61,13.425-16.331C63.606,27.592,51.973,36.411,49.67,36.797z"
   id="path4313" />
	<path
   fill="#E0CF35"
   d="M34.864,10.112c-9.214,0-31.958,9.214-31.958,22.772c0,0.204,0.02,0.403,0.032,0.604   c-0.324,0.084-0.62,0.15-0.959,0.24c-2.24,0.6-2.596,3.959-0.488,5.698c1.083,0.893,2.371,1.452,3.707,1.811   c-0.02,1.062,0.404,2.207,1.38,3.011c0.956,0.79,2.083,1.31,3.251,1.67c7.467,6.912,19.077,11.506,25.035,11.506   c9.23,0,16.701-10.98,16.701-24.539C51.565,19.326,44.095,10.112,34.864,10.112z"
   id="path4315" />
	<path
   fill="#CEBA34"
   d="M34.353,55.647c-6.878-0.506-13.737-3.078-19.22-7.205c-3.255-2.453-6.851-8.416-10.85-9.992   c-1.64-0.646-1.715-2.789,0-3.409c5.991-2.163,5.075-9.636,8.946-13.473c2.516-2.494,5.255-4.509,8.619-5.779   c5.683-2.15,11.946-3.934,18.188-4.644c-1.627-0.667-3.363-1.034-5.171-1.034c-9.214,0-31.958,9.214-31.958,22.772   c0,0.204,0.02,0.403,0.032,0.604c-0.324,0.084-0.62,0.15-0.959,0.24c-2.24,0.6-2.596,3.959-0.488,5.698   c1.083,0.893,2.371,1.452,3.707,1.811c-0.02,1.062,0.404,2.207,1.38,3.011c0.956,0.79,2.083,1.31,3.251,1.67   c7.467,6.912,19.077,11.506,25.035,11.506c2.407,0,4.688-0.76,6.755-2.104C39.292,55.697,36.872,55.833,34.353,55.647z"
   id="path4317" />
	<path
   fill="#50B9D4"
   d="M44.163,30.646c1.344-3.771,2.795-7.502,4.427-11.164c-0.936-1.717-2.023-3.247-3.268-4.505   c-2.531,4.181-4.895,8.454-7.187,12.768C40.132,28.596,42.175,29.562,44.163,30.646z"
   id="path4319" />
	<path
   fill="#58C5E8"
   d="M51.505,34.921c0.036-0.672,0.061-1.35,0.061-2.037c0-3.54-0.536-6.755-1.452-9.612   c-1.172,2.733-2.228,5.511-3.243,8.3C48.529,32.602,50.09,33.722,51.505,34.921z"
   id="path4321" />
	<path
   fill="#50B9D4"
   d="M34.696,26.604c2.464-4.781,5.007-9.514,7.747-14.133c-1.244-0.814-2.572-1.424-3.96-1.794   c-3.203,3.921-9.694,13.257-10.085,13.781C30.545,25.081,32.648,25.807,34.696,26.604z"
   id="path4323" />
	<path
   fill="#58C5E8"
   d="M34.421,25.647c2.463-4.539,5.007-9.03,7.746-13.414c-1.244-0.771-2.571-1.35-3.959-1.704   c-3.203,3.721-9.694,12.583-10.086,13.08C30.27,24.201,32.373,24.891,34.421,25.647z"
   id="path4325" />
	<path
   fill="#58C5E8"
   d="M43.795,29.798c1.344-3.689,2.795-7.34,4.427-10.926c-0.936-1.682-2.023-3.177-3.268-4.411   c-2.531,4.093-4.895,8.276-7.187,12.498C39.764,27.794,41.807,28.738,43.795,29.798z"
   id="path4327" />
	<g
   id="g4329">
		<path
   fill="#FFFFFF"
   d="M27.434,28.667c0,5.447-2.944,9.856-6.579,9.856s-6.583-4.409-6.583-9.856    c0-5.443,2.947-9.854,6.583-9.854S27.434,23.223,27.434,28.667z"
   id="path4331" />
		<ellipse
   fill="#25333A"
   cx="20.855"
   cy="28.667"
   rx="4.259"
   ry="5.163"
   id="ellipse4333" />
	</g>
</g>
</svg>