<?xml version="1.0" encoding="UTF-8" standalone="no"?>
<!-- Generator: Adobe Illustrator 16.0.0, SVG Export Plug-In . SVG Version: 6.00 Build 0)  -->

<svg
   xmlns:dc="http://purl.org/dc/elements/1.1/"
   xmlns:cc="http://creativecommons.org/ns#"
   xmlns:rdf="http://www.w3.org/1999/02/22-rdf-syntax-ns#"
   xmlns:svg="http://www.w3.org/2000/svg"
   xmlns="http://www.w3.org/2000/svg"
   xmlns:sodipodi="http://sodipodi.sourceforge.net/DTD/sodipodi-0.dtd"
   xmlns:inkscape="http://www.inkscape.org/namespaces/inkscape"
   version="1.1"
   id="Layer_1"
   x="0px"
   y="0px"
   width="64px"
   height="64px"
   viewBox="0 0 64 64"
   enable-background="new 0 0 64 64"
   xml:space="preserve"
   inkscape:version="0.48.5 r10040"
   sodipodi:docname="1F440.svg"
   inkscape:export-filename="D:\TESTINGEMOJI\SVGTEST\1F440.png"
   inkscape:export-xdpi="90"
   inkscape:export-ydpi="90"><metadata
   id="metadata3301"><rdf:RDF><cc:Work
       rdf:about=""><dc:format>image/svg+xml</dc:format><dc:type
         rdf:resource="http://purl.org/dc/dcmitype/StillImage" /><dc:title></dc:title></cc:Work></rdf:RDF></metadata><defs
   id="defs3299" /><sodipodi:namedview
   pagecolor="#ffffff"
   bordercolor="#666666"
   borderopacity="1"
   objecttolerance="10"
   gridtolerance="10"
   guidetolerance="10"
   inkscape:pageopacity="0"
   inkscape:pageshadow="2"
   inkscape:window-width="640"
   inkscape:window-height="480"
   id="namedview3297"
   showgrid="false"
   inkscape:zoom="3.6875"
   inkscape:cx="32"
   inkscape:cy="32"
   inkscape:window-x="414"
   inkscape:window-y="314"
   inkscape:window-maximized="0"
   inkscape:current-layer="Layer_1" />
<g
   id="g3283">
	<path
   fill="#D1D2D3"
   d="M63.661,32.389c0,13.132-7.103,23.775-15.87,23.775c-8.771,0-15.885-10.643-15.885-23.775   c0-13.137,7.115-23.775,15.885-23.775S63.661,19.252,63.661,32.389z"
   id="path3285" />
	<path
   fill="#D1D2D3"
   d="M31.757,32.572c0,13.133-7.102,23.777-15.872,23.777C7.117,56.35,0,45.705,0,32.572   C0,19.436,7.117,8.798,15.885,8.798C24.656,8.798,31.757,19.436,31.757,32.572z"
   id="path3287" />
	<path
   fill="#E7E6E6"
   d="M63.732,30.091c0,13.132-7.102,23.774-15.869,23.774c-8.771,0-15.885-10.643-15.885-23.774   c0-13.137,7.115-23.775,15.885-23.775C56.632,6.316,63.732,16.955,63.732,30.091z"
   id="path3289" />
	<ellipse
   fill="#25333A"
   cx="42.621"
   cy="32.299"
   rx="7.426"
   ry="9.003"
   id="ellipse3291" />
	<path
   fill="#E7E6E6"
   d="M31.83,30.274c0,13.132-7.102,23.775-15.873,23.775c-8.768,0-15.885-10.643-15.885-23.775   C0.072,17.138,7.189,6.5,15.957,6.5C24.728,6.5,31.83,17.138,31.83,30.274z"
   id="path3293" />
	<ellipse
   fill="#25333A"
   cx="9.887"
   cy="32.482"
   rx="7.428"
   ry="9.003"
   id="ellipse3295" />
</g>
</svg>