<?xml version="1.0" encoding="UTF-8" standalone="no"?>
<!-- Generator: Adobe Illustrator 16.0.0, SVG Export Plug-In . SVG Version: 6.00 Build 0)  -->

<svg
   xmlns:dc="http://purl.org/dc/elements/1.1/"
   xmlns:cc="http://creativecommons.org/ns#"
   xmlns:rdf="http://www.w3.org/1999/02/22-rdf-syntax-ns#"
   xmlns:svg="http://www.w3.org/2000/svg"
   xmlns="http://www.w3.org/2000/svg"
   xmlns:sodipodi="http://sodipodi.sourceforge.net/DTD/sodipodi-0.dtd"
   xmlns:inkscape="http://www.inkscape.org/namespaces/inkscape"
   version="1.1"
   id="Layer_1"
   x="0px"
   y="0px"
   width="64px"
   height="64px"
   viewBox="0 0 64 64"
   enable-background="new 0 0 64 64"
   xml:space="preserve"
   inkscape:version="0.48.5 r10040"
   sodipodi:docname="1F4BE.svg"><metadata
   id="metadata34437"><rdf:RDF><cc:Work
       rdf:about=""><dc:format>image/svg+xml</dc:format><dc:type
         rdf:resource="http://purl.org/dc/dcmitype/StillImage" /></cc:Work></rdf:RDF></metadata><defs
   id="defs34435" /><sodipodi:namedview
   pagecolor="#ffffff"
   bordercolor="#666666"
   borderopacity="1"
   objecttolerance="10"
   gridtolerance="10"
   guidetolerance="10"
   inkscape:pageopacity="0"
   inkscape:pageshadow="2"
   inkscape:window-width="839"
   inkscape:window-height="752"
   id="namedview34433"
   showgrid="false"
   inkscape:zoom="6.390625"
   inkscape:cx="32"
   inkscape:cy="32"
   inkscape:window-x="535"
   inkscape:window-y="170"
   inkscape:window-maximized="0"
   inkscape:current-layer="Layer_1" />
<g
   id="g34413"
   transform="translate(0,1.2176039)">
	<path
   d="M 63.07,0 C 50.415,0 37.755,0 25.094,0 17.042,0 8.991,0 0.937,0 0.425,0 0,0.43 0,0.939 c 0,12.814 0,25.626 0,38.438 0,7.33 0,14.666 0,21.996 0,0.512 0.425,0.941 0.937,0.941 12.661,0 25.319,0 37.979,0 8.052,0 16.105,0 24.154,0 0.28,0 0.494,-0.104 0.641,-0.252 0.009,-0.011 0.014,-0.018 0.022,-0.024 0.013,-0.009 0.022,-0.02 0.026,-0.026 0.151,-0.151 0.249,-0.365 0.249,-0.639 0,-12.812 0,-25.626 0,-38.44 0,-7.328 0,-14.661 0,-21.994 C 64.009,0.43 63.582,0 63.07,0 z"
   id="path34415"
   inkscape:connector-curvature="0"
   style="fill:#25333a" />
	<path
   d="m 60.773,25.31 c -11.765,0 -23.53,0 -35.292,0 -7.482,0 -14.964,0 -22.45,0 -0.472,0 -0.87,0.253 -0.87,0.556 0,7.611 0,15.216 0,22.826 0,4.354 0,8.708 0,13.065 0,0.301 0.398,0.557 0.87,0.557 11.766,0 23.532,0 35.293,0 7.484,0 14.964,0 22.449,0 0.258,0 0.454,-0.064 0.592,-0.153 0.009,-0.003 0.014,-0.009 0.018,-0.014 0.009,-0.004 0.022,-0.009 0.027,-0.014 0.142,-0.089 0.235,-0.216 0.235,-0.376 0,-7.61 0,-15.222 0,-22.826 0,-4.357 0,-8.71 0,-13.065 10e-4,-0.303 -0.4,-0.556 -0.872,-0.556 z"
   id="path34417"
   inkscape:connector-curvature="0"
   style="fill:#3f565f" />
	<path
   d="m 60.773,2.453 c -11.765,0 -23.53,0 -35.292,0 -7.482,0 -14.964,0 -22.45,0 -0.472,0 -0.87,0.146 -0.87,0.322 0,4.42 0,8.844 0,13.266 0,2.53 0,5.061 0,7.589 0,0.178 0.398,0.322 0.87,0.322 11.766,0 23.532,0 35.293,0 7.484,0 14.964,0 22.449,0 0.258,0 0.454,-0.035 0.592,-0.084 0.009,-0.002 0.014,-0.004 0.018,-0.006 0.009,-0.007 0.022,-0.009 0.027,-0.011 0.142,-0.049 0.235,-0.125 0.235,-0.22 0,-4.42 0,-8.84 0,-13.264 0,-2.533 0,-5.061 0,-7.591 10e-4,-0.177 -0.4,-0.323 -0.872,-0.323 z"
   id="path34419"
   inkscape:connector-curvature="0"
   style="fill:#3f565f" />
	<path
   d="M 51.083,0 C 43.31,0 35.536,0 27.76,0 22.815,0 17.87,0 12.925,0 c -0.316,0 -0.579,0.156 -0.579,0.338 0,4.626 0,9.251 0,13.88 0,2.644 0,5.294 0,7.94 0,0.185 0.263,0.338 0.579,0.338 7.773,0 15.547,0 23.323,0 4.947,0 9.89,0 14.835,0 0.171,0 0.303,-0.036 0.392,-0.091 0,0 0.011,-0.004 0.016,-0.009 0,0 0.011,-0.004 0.016,-0.011 0.093,-0.051 0.155,-0.129 0.155,-0.227 0,-4.626 0,-9.251 0,-13.878 0,-2.646 0,-5.294 0,-7.942 C 51.661,0.156 51.398,0 51.083,0 z"
   id="path34421"
   inkscape:connector-curvature="0"
   style="fill:#e7e6e6" />
	<path
   d="m 44.402,3.333 c -2.179,0 -4.36,0 -6.539,0 -1.384,0 -2.771,0 -4.157,0 -0.089,0 -0.164,0.109 -0.164,0.238 0,3.253 0,6.512 0,9.768 0,1.86 0,3.723 0,5.586 0,0.126 0.075,0.238 0.164,0.238 2.179,0 4.362,0 6.539,0 1.384,0 2.774,0 4.157,0 0.049,0 0.084,-0.024 0.113,-0.064 0,0 0,0 0.002,-0.004 0,-0.004 0.005,-0.007 0.005,-0.009 0.026,-0.038 0.046,-0.091 0.046,-0.16 0,-3.254 0,-6.51 0,-9.766 0,-1.858 0,-3.725 0,-5.588 0,-0.129 -0.077,-0.239 -0.166,-0.239 z"
   id="path34423"
   inkscape:connector-curvature="0"
   style="fill:#25333a" />
	<path
   d="m 55.578,31.156 c -9.605,0 -19.21,0 -28.817,0 -6.109,0 -12.22,0 -18.326,0 -0.392,0 -0.712,0.211 -0.712,0.469 0,6.407 0,12.814 0,19.219 0,3.665 0,7.33 0,10.998 0,0.258 0.321,0.472 0.712,0.472 9.605,0 19.21,0 28.812,0 6.115,0 12.22,0 18.331,0 0.209,0 0.369,-0.056 0.486,-0.129 0.009,-0.005 0.014,-0.007 0.018,-0.009 0.005,-0.007 0.014,-0.012 0.022,-0.016 0.111,-0.076 0.187,-0.183 0.187,-0.318 0,-6.405 0,-12.814 0,-19.219 0,-3.666 0,-7.331 0,-10.999 0,-0.256 -0.324,-0.468 -0.713,-0.468 z"
   id="path34425"
   inkscape:connector-curvature="0"
   style="fill:#e7e6e6" />
	<path
   d="m 55.578,31.232 c -9.605,0 -19.21,0 -28.817,0 -6.109,0 -12.22,0 -18.326,0 -0.392,0 -0.712,0.033 -0.712,0.076 0,1.037 0,2.074 0,3.108 0,0.593 0,1.188 0,1.778 0,0.045 0.321,0.078 0.712,0.078 9.605,0 19.21,0 28.812,0 6.115,0 12.22,0 18.331,0 0.209,0 0.369,-0.007 0.486,-0.021 0,0 0.014,0 0.018,-0.004 0,0 0.014,0 0.022,-0.002 0.111,-0.01 0.187,-0.027 0.187,-0.052 0,-1.034 0,-2.071 0,-3.108 0,-0.592 0,-1.184 0,-1.778 0,-0.042 -0.324,-0.075 -0.713,-0.075 z"
   id="path34427"
   inkscape:connector-curvature="0"
   style="fill:#57c6e9" />
	<path
   d="m 55.578,46.734 c -9.605,0 -19.21,0 -28.817,0 -6.109,0 -12.22,0 -18.326,0 -0.392,0 -0.712,0.009 -0.712,0.02 0,0.265 0,0.53 0,0.795 0,0.153 0,0.303 0,0.456 0,0.011 0.321,0.018 0.712,0.018 9.605,0 19.21,0 28.812,0 6.115,0 12.22,0 18.331,0 0.209,0 0.369,0 0.486,-0.004 0,0 0.014,0 0.018,-0.003 0,0 0.014,0 0.022,0 0.111,0 0.187,-0.004 0.187,-0.011 0,-0.265 0,-0.529 0,-0.795 0,-0.151 0,-0.302 0,-0.456 0,-0.011 -0.324,-0.02 -0.713,-0.02 z"
   id="path34429"
   inkscape:connector-curvature="0"
   style="fill:#9d9ea4" />
	<path
   d="m 55.578,54.521 c -9.609,0 -19.212,0 -28.817,0 -6.111,0 -12.222,0 -18.329,0 -0.392,0 -0.714,0.01 -0.714,0.021 0,0.263 0,0.529 0,0.792 0,0.156 0,0.305 0,0.459 0,0.011 0.323,0.018 0.714,0.018 9.605,0 19.212,0 28.815,0 6.113,0 12.22,0 18.331,0 0.209,0 0.369,-0.002 0.486,-0.005 0,0 0.009,0 0.018,-0.002 H 56.1 c 0.116,0 0.188,-0.007 0.188,-0.011 0,-0.265 0,-0.53 0,-0.795 0,-0.149 0,-0.305 0,-0.456 -10e-4,-0.012 -0.321,-0.021 -0.71,-0.021 z"
   id="path34431"
   inkscape:connector-curvature="0"
   style="fill:#9d9ea4" />
</g>
</svg>