<?xml version="1.0" encoding="utf-8"?>
<!-- Generator: Adobe Illustrator 16.0.0, SVG Export Plug-In . SVG Version: 6.00 Build 0)  -->
<!DOCTYPE svg PUBLIC "-//W3C//DTD SVG 1.1//EN" "http://www.w3.org/Graphics/SVG/1.1/DTD/svg11.dtd">
<svg version="1.1" id="Layer_1" xmlns="http://www.w3.org/2000/svg" xmlns:xlink="http://www.w3.org/1999/xlink" x="0px" y="0px"
	 width="64px" height="64px" viewBox="0 0 64 64" enable-background="new 0 0 64 64" xml:space="preserve">
<g>
	<path fill="#AE92C4" d="M32.045,0C14.348,0,0,14.348,0,32.045c0,17.701,14.348,32.051,32.045,32.051
		c17.702,0,32.048-14.351,32.048-32.051C64.094,14.348,49.747,0,32.045,0z M32.045,42.808c-5.484,0-9.936-4.446-9.936-9.937
		c0-5.486,4.452-9.934,9.936-9.934c5.488,0,9.94,4.448,9.94,9.934C41.985,38.361,37.533,42.808,32.045,42.808z"/>
	<path fill="#8873A5" d="M41.985,32.871c0,2.532-0.979,4.816-2.536,6.571c5.587,4.62,11.247,9.058,16.982,13.37
		c4.766-5.595,7.662-12.836,7.662-20.767c0-4.201-0.833-8.207-2.302-11.884c-7.035,2.62-13.875,5.609-20.753,8.54
		C41.63,29.974,41.985,31.378,41.985,32.871z"/>
	<path fill="#8873A5" d="M22.109,32.871c0,2.532,0.977,4.816,2.537,6.571c-5.587,4.62-11.247,9.058-16.983,13.37
		C2.896,47.218,0,39.977,0,32.045c0-4.201,0.833-8.207,2.302-11.884c7.036,2.62,13.875,5.609,20.754,8.54
		C22.465,29.974,22.109,31.378,22.109,32.871z"/>
</g>
</svg>
