<?xml version="1.0" encoding="UTF-8" standalone="no"?>
<!-- Generator: Adobe Illustrator 16.0.0, SVG Export Plug-In . SVG Version: 6.00 Build 0)  -->

<svg
   xmlns:dc="http://purl.org/dc/elements/1.1/"
   xmlns:cc="http://creativecommons.org/ns#"
   xmlns:rdf="http://www.w3.org/1999/02/22-rdf-syntax-ns#"
   xmlns:svg="http://www.w3.org/2000/svg"
   xmlns="http://www.w3.org/2000/svg"
   xmlns:sodipodi="http://sodipodi.sourceforge.net/DTD/sodipodi-0.dtd"
   xmlns:inkscape="http://www.inkscape.org/namespaces/inkscape"
   version="1.1"
   id="Layer_1"
   x="0px"
   y="0px"
   width="64px"
   height="64px"
   viewBox="0 0 64 64"
   enable-background="new 0 0 64 64"
   xml:space="preserve"
   inkscape:version="0.48.5 r10040"
   sodipodi:docname="1F4ED.svg"
   inkscape:export-filename="D:\TESTINGEMOJI\SVGTEST\1F4ED.png"
   inkscape:export-xdpi="90"
   inkscape:export-ydpi="90"><metadata
   id="metadata4243"><rdf:RDF><cc:Work
       rdf:about=""><dc:format>image/svg+xml</dc:format><dc:type
         rdf:resource="http://purl.org/dc/dcmitype/StillImage" /><dc:title></dc:title></cc:Work></rdf:RDF></metadata><defs
   id="defs4241" /><sodipodi:namedview
   pagecolor="#ffffff"
   bordercolor="#666666"
   borderopacity="1"
   objecttolerance="10"
   gridtolerance="10"
   guidetolerance="10"
   inkscape:pageopacity="0"
   inkscape:pageshadow="2"
   inkscape:window-width="640"
   inkscape:window-height="480"
   id="namedview4239"
   showgrid="false"
   inkscape:zoom="3.6875"
   inkscape:cx="32"
   inkscape:cy="32"
   inkscape:window-x="637"
   inkscape:window-y="451"
   inkscape:window-maximized="0"
   inkscape:current-layer="Layer_1" />
<g
   id="g4219"
   transform="translate(0,12)">
	<path
   d="m 25.157,52.762 c 2.681,0 5.36,0 8.039,0 1.703,0 3.409,0 5.114,0 0.108,0 0.199,-0.289 0.199,-0.625 0,-8.535 0,-17.068 0,-25.61 0,-4.875 0,-9.765 0,-14.646 0,-0.338 -0.091,-0.625 -0.199,-0.625 -2.679,0 -5.358,0 -8.039,0 -1.706,0 -3.409,0 -5.114,0 -0.06,0 -0.104,0.065 -0.137,0.168 0,0 0,0.01 -0.002,0.021 0,0 -0.004,0.002 -0.006,0.021 -0.033,0.09 -0.053,0.236 -0.053,0.417 0,8.535 0,17.07 0,25.602 0,4.883 0,9.768 0,14.654 -0.001,0.334 0.089,0.623 0.198,0.623 z"
   id="path4221"
   inkscape:connector-curvature="0"
   style="fill:#dfad92" />
	<path
   d="m 31.11,52.762 c 1.486,0 2.972,0 4.457,0 0.942,0 1.888,0 2.832,0 0.062,0 0.111,-0.289 0.111,-0.625 0,-8.535 0,-17.068 0,-25.61 0,-4.875 0,-9.765 0,-14.646 0,-0.338 -0.05,-0.625 -0.111,-0.625 -1.483,0 -2.968,0 -4.454,0 -0.944,0 -1.888,0 -2.834,0 -0.033,0 -0.058,0.065 -0.074,0.168 0,0 0,0.01 -0.002,0.021 0,0 -0.002,0.002 -0.004,0.021 -0.019,0.09 -0.029,0.236 -0.029,0.417 0,8.535 0,17.07 0,25.602 0,4.883 0,9.768 0,14.654 -10e-4,0.334 0.048,0.623 0.108,0.623 z"
   id="path4223"
   inkscape:connector-curvature="0"
   style="fill:#a4806d" />
	<path
   d="m 25.157,35.397 c 2.677,0 5.362,0 8.041,0 1.701,0 3.403,0 5.11,0 0.11,0 0.201,-0.062 0.201,-0.135 0,-1.863 0,-3.727 0,-5.592 0,-1.066 0,-2.134 0,-3.2 0,-0.074 -0.091,-0.138 -0.201,-0.138 -2.677,0 -5.354,0 -8.039,0 -1.702,0 -3.403,0 -5.112,0 -0.06,0 -0.103,0.017 -0.133,0.037 l -0.006,0.004 c 0,0 0,0 -0.008,0.006 -0.029,0.019 -0.051,0.051 -0.051,0.09 0,1.863 0,3.729 0,5.592 0,1.066 0,2.133 0,3.2 -0.001,0.075 0.087,0.136 0.198,0.136 z"
   id="path4225"
   inkscape:connector-curvature="0"
   style="fill:#a4806d" />
	<g
   id="g4227">
		<path
   d="M 21.39,0 H 10.083 C 4.516,0 0,6.172 0,13.783 V 30.585 H 11.307 V 13.783 C 11.307,6.172 15.82,0 21.39,0 z"
   id="path4229"
   inkscape:connector-curvature="0"
   style="fill:#7c9c9f" />
		<path
   d="M 47.723,0 H 21.39 C 15.82,0 11.307,6.172 11.307,13.783 V 30.585 H 46.496 57.803 V 13.783 C 57.803,6.172 53.289,0 47.723,0 z"
   id="path4231"
   inkscape:connector-curvature="0"
   style="fill:#7c9c9f" />
	</g>
	<path
   d="m 23.249,0 h -6.237 -0.688 -6.24 C 4.516,0 0,6.172 0,13.783 v 16.802 h 16.323 0.688 16.321 V 13.783 C 33.332,6.172 28.818,0 23.249,0 z"
   id="path4233"
   inkscape:connector-curvature="0"
   style="fill:#627c7f" />
	<path
   d="m 63.903,17.278 c 0.004,0.006 0.028,0.008 0.028,0.014 0,0.031 0,0.065 0,0.101 0,1.068 0,2.136 0,3.208 0,0.701 0,1.402 0,2.105 0,0.666 0,1.331 0,2 0,1.548 0,3.093 0,4.649 0,0.056 -0.012,0.094 -0.028,0.123 0,0 -0.004,0 -0.004,0.002 0,0 0,0 -0.004,0.01 -0.013,0.025 -0.037,0.047 -0.065,0.047 -1.386,0 -2.771,0 -4.153,0 -0.795,0 -1.589,0 -2.378,0 -0.058,0 -0.103,-0.082 -0.103,-0.183 0,-2.185 0,-4.38 0,-6.567 -3.439,0 -6.875,0 -10.314,0 -3.173,0 -6.346,0 -9.522,0 -0.217,0 -0.405,-0.039 -0.405,-0.082 0,-1.105 0,-2.208 0,-3.311 0,-0.701 0,-1.402 0,-2.103 0,-0.047 0.188,-0.084 0.405,-0.084 5.55,0 11.093,0 16.647,0 1.095,0 2.193,0 3.292,0 1.386,0 2.768,0 4.153,0 0.692,0 1.381,0 2.07,0 0.103,0 0.205,0 0.308,0 0.03,10e-4 0.057,0.03 0.073,0.071 z"
   id="path4235"
   inkscape:connector-curvature="0"
   style="fill:#de374b" />
	<path
   d="M 22.293,1.958 H 16.455 15.811 9.97 c -5.21,0 -9.438,5.776 -9.438,12.901 v 15.726 h 15.279 0.644 15.277 V 14.859 C 31.733,7.734 27.508,1.958 22.293,1.958 z"
   id="path4237"
   inkscape:connector-curvature="0"
   style="fill:#495e5f" />
</g>
</svg>