<?xml version="1.0" encoding="UTF-8" standalone="no"?>
<!-- Generator: Adobe Illustrator 16.0.0, SVG Export Plug-In . SVG Version: 6.00 Build 0)  -->

<svg
   xmlns:dc="http://purl.org/dc/elements/1.1/"
   xmlns:cc="http://creativecommons.org/ns#"
   xmlns:rdf="http://www.w3.org/1999/02/22-rdf-syntax-ns#"
   xmlns:svg="http://www.w3.org/2000/svg"
   xmlns="http://www.w3.org/2000/svg"
   xmlns:sodipodi="http://sodipodi.sourceforge.net/DTD/sodipodi-0.dtd"
   xmlns:inkscape="http://www.inkscape.org/namespaces/inkscape"
   version="1.1"
   id="Layer_1"
   x="0px"
   y="0px"
   width="64px"
   height="64px"
   viewBox="0 0 64 64"
   enable-background="new 0 0 64 64"
   xml:space="preserve"
   inkscape:version="0.48.5 r10040"
   sodipodi:docname="1F50A.svg"
   inkscape:export-filename="D:\TESTINGEMOJI\SVGTEST\1F50A.png"
   inkscape:export-xdpi="90"
   inkscape:export-ydpi="90"><metadata
   id="metadata3237"><rdf:RDF><cc:Work
       rdf:about=""><dc:format>image/svg+xml</dc:format><dc:type
         rdf:resource="http://purl.org/dc/dcmitype/StillImage" /><dc:title></dc:title></cc:Work></rdf:RDF></metadata><defs
   id="defs3235" /><sodipodi:namedview
   pagecolor="#ffffff"
   bordercolor="#666666"
   borderopacity="1"
   objecttolerance="10"
   gridtolerance="10"
   guidetolerance="10"
   inkscape:pageopacity="0"
   inkscape:pageshadow="2"
   inkscape:window-width="640"
   inkscape:window-height="480"
   id="namedview3233"
   showgrid="false"
   inkscape:zoom="3.6875"
   inkscape:cx="32"
   inkscape:cy="32"
   inkscape:window-x="647"
   inkscape:window-y="331"
   inkscape:window-maximized="0"
   inkscape:current-layer="Layer_1" />
<g
   id="g3199">
	<g
   id="g3201">
		<path
   fill="#5FA6C9"
   d="M19.346,11.354C14.141,21.766,8.933,32.175,3.73,42.588c-0.473,0.947,0.224,2.607,1.234,2.94    C16.035,49.11,27.11,52.69,38.189,56.277c1.022,0.331,1.642-0.896,1.101-2.188c-2.932-6.995-5.872-14.005-8.806-20.998    c-2.935-7-5.87-14-8.807-21.002C21.134,10.8,19.825,10.379,19.346,11.354z"
   id="path3203" />
	</g>
	<g
   id="g3205">
		<path
   fill="#66B1DE"
   d="M19.492,10.962c-4.408,8.819-8.821,17.63-13.221,26.444c-0.399,0.801,0.189,2.206,1.043,2.486    c9.373,3.039,18.751,6.066,28.127,9.103c0.866,0.279,1.394-0.76,0.936-1.854c-2.485-5.922-4.971-11.853-7.452-17.773    c-2.488-5.925-4.974-11.854-7.458-17.778C21.008,10.495,19.898,10.145,19.492,10.962z"
   id="path3207" />
	</g>
	<g
   id="g3209">
		<path
   fill="#2B7F99"
   d="M0.039,35.341c1.529,3.646,3.055,7.288,4.587,10.934c0.972,2.323,1.945,4.638,2.916,6.957    c0.063,0.148,0.181,0.244,0.262,0.209c2.02-0.848,4.041-1.693,6.063-2.543c1.156-0.485,2.311-0.968,3.469-1.454    c0.081-0.033,0.096-0.183,0.036-0.335c-1.532-3.646-3.058-7.287-4.589-10.933c-0.971-2.319-1.943-4.638-2.916-6.956    c-0.031-0.081-0.077-0.134-0.118-0.171l-0.01-0.002c-0.004-0.004-0.004-0.004-0.004-0.004c-0.042-0.034-0.088-0.049-0.13-0.032    c-2.023,0.848-4.041,1.695-6.063,2.542c-1.156,0.483-2.312,0.97-3.469,1.456C-0.009,35.041-0.024,35.19,0.039,35.341z"
   id="path3211" />
	</g>
	<g
   id="g3213">
		<path
   fill="#5FA6C9"
   d="M58.588,37.373c-0.263-0.633-0.527-1.265-0.791-1.891c-0.041-0.099-0.037-0.181-0.057-0.274    c-0.026-0.1-0.06-0.198-0.062-0.313c-0.004-0.185,0.031-0.356,0.095-0.52c0.008-0.035,0.004-0.066,0.016-0.102    c2.533-6.424,1.043-12.824-4.271-17.293c-2.856-2.4-4.137-1.566-5.509-4.839c-0.56-1.336,0.781-2.483,2.05-2.069    c11.614,3.811,16.861,16.33,11.443,27.287C60.909,38.558,59.149,38.708,58.588,37.373z"
   id="path3215" />
	</g>
	<g
   id="g3217">
		<path
   fill="#5FA6C9"
   d="M49.56,38.326c-0.214-0.513-0.429-1.023-0.641-1.53c-0.034-0.079-0.026-0.148-0.044-0.224    c-0.02-0.082-0.052-0.156-0.05-0.249c-0.004-0.152,0.026-0.289,0.075-0.422c0.01-0.029,0.004-0.055,0.015-0.082    c2.049-5.2,0.844-10.375-3.459-13.991c-2.308-1.941-3.345-1.264-4.455-3.914c-0.452-1.081,0.634-2.009,1.66-1.669    c9.394,3.079,13.64,13.205,9.251,22.067C51.438,39.281,50.014,39.405,49.56,38.326z"
   id="path3219" />
	</g>
	<g
   id="g3221">
		<path
   fill="#5FA6C9"
   d="M41.471,38.802c-0.158-0.386-0.324-0.776-0.483-1.16c-0.025-0.061-0.02-0.112-0.033-0.167    c-0.012-0.063-0.037-0.122-0.037-0.191c-0.002-0.116,0.018-0.218,0.057-0.319c0.006-0.021,0.002-0.041,0.012-0.063    c1.547-3.933,0.638-7.853-2.619-10.586c-1.746-1.471-2.531-0.959-3.373-2.963c-0.343-0.819,0.479-1.522,1.255-1.264    c7.113,2.331,10.326,9.995,7.005,16.704C42.895,39.524,41.813,39.616,41.471,38.802z"
   id="path3223" />
	</g>
	<path
   fill="#2B7F99"
   d="M25.15,35.144C30.567,48.065,36.895,57.73,39.28,56.73c2.386-1.004-0.072-12.289-5.494-25.208   C28.366,18.598,22.042,8.934,19.655,9.934C17.27,10.936,19.729,22.222,25.15,35.144z"
   id="path3225" />
	<path
   fill="#5FA6C9"
   d="M26.5,34.75c4.656,11.095,9.784,19.521,11.457,18.817c1.672-0.7-0.746-10.262-5.397-21.357   c-4.654-11.099-9.78-19.522-11.454-18.822C19.433,14.092,21.851,23.651,26.5,34.75z"
   id="path3227" />
	<g
   id="g3229">
		<path
   fill="#72C1E8"
   d="M34.542,31.386c1.09,2.593,0.361,5.372-1.628,6.207s-4.49-0.591-5.579-3.186    c-1.087-2.59-0.351-5.366,1.642-6.201C30.967,27.372,33.459,28.793,34.542,31.386z"
   id="path3231" />
	</g>
</g>
</svg>