<?xml version="1.0" encoding="UTF-8" standalone="no"?>
<!-- Generator: Adobe Illustrator 16.0.0, SVG Export Plug-In . SVG Version: 6.00 Build 0)  -->

<svg
   xmlns:dc="http://purl.org/dc/elements/1.1/"
   xmlns:cc="http://creativecommons.org/ns#"
   xmlns:rdf="http://www.w3.org/1999/02/22-rdf-syntax-ns#"
   xmlns:svg="http://www.w3.org/2000/svg"
   xmlns="http://www.w3.org/2000/svg"
   xmlns:sodipodi="http://sodipodi.sourceforge.net/DTD/sodipodi-0.dtd"
   xmlns:inkscape="http://www.inkscape.org/namespaces/inkscape"
   version="1.1"
   id="Layer_1"
   x="0px"
   y="0px"
   width="64px"
   height="64px"
   viewBox="0 0 64 64"
   enable-background="new 0 0 64 64"
   xml:space="preserve"
   inkscape:version="0.48.5 r10040"
   sodipodi:docname="1F52F.svg"
   inkscape:export-filename="D:\TESTINGEMOJI\SVGTEST\1F52F.png"
   inkscape:export-xdpi="90"
   inkscape:export-ydpi="90"><metadata
   id="metadata4243"><rdf:RDF><cc:Work
       rdf:about=""><dc:format>image/svg+xml</dc:format><dc:type
         rdf:resource="http://purl.org/dc/dcmitype/StillImage" /><dc:title></dc:title></cc:Work></rdf:RDF></metadata><defs
   id="defs4241" /><sodipodi:namedview
   pagecolor="#ffffff"
   bordercolor="#666666"
   borderopacity="1"
   objecttolerance="10"
   gridtolerance="10"
   guidetolerance="10"
   inkscape:pageopacity="0"
   inkscape:pageshadow="2"
   inkscape:window-width="640"
   inkscape:window-height="480"
   id="namedview4239"
   showgrid="false"
   inkscape:zoom="3.6875"
   inkscape:cx="32"
   inkscape:cy="32"
   inkscape:window-x="561"
   inkscape:window-y="327"
   inkscape:window-maximized="0"
   inkscape:current-layer="Layer_1" />
<g
   id="g4229">
	<path
   fill="#724198"
   d="M63.79,56.914c0,3.802-3.074,6.88-6.874,6.88H6.874C3.078,63.794,0,60.716,0,56.914V6.875   C0,3.08,3.078,0,6.874,0h50.042c3.8,0,6.874,3.08,6.874,6.875V56.914z"
   id="path4231" />
	<path
   fill="#58327D"
   d="M0,48.575v8.339c0,3.802,3.078,6.88,6.874,6.88h50.042c3.8,0,6.874-3.078,6.874-6.88V6.875   C52.899,46.445,13.738,48.953,0,48.575z"
   id="path4233" />
	<path
   fill="#FFFFFF"
   d="M50.201,31.923l5.498-10.04c0.851-1.552,0.81-3.476-0.105-5.024c-0.878-1.478-2.381-2.357-4.024-2.357   H40.658l-4.647-8.486c-0.833-1.526-2.418-2.477-4.134-2.477c-1.712,0-3.298,0.951-4.13,2.475l-4.648,8.488H12.25   c-1.77,0-3.29,0.929-4.089,2.49c-0.894,1.489-0.911,3.313-0.043,4.891l5.471,9.985l-5.5,10.041   c-0.851,1.552-0.81,3.478,0.107,5.023c0.874,1.478,2.379,2.357,4.023,2.357h10.91l4.648,8.486c0.834,1.526,2.418,2.477,4.132,2.477   s3.297-0.95,4.13-2.475l4.648-8.488h10.849c1.768,0,3.288-0.931,4.088-2.49c0.894-1.491,0.911-3.308,0.045-4.891L50.201,31.923z    M51.569,18.736c0.191,0,0.329,0.196,0.38,0.282c0.121,0.208,0.199,0.537,0.037,0.829l-4.199,7.667l-4.809-8.778H51.569z    M45.373,31.923l-7.191,13.132H25.638l-7.223-13.187l7.191-13.132H38.15L45.373,31.923z M31.461,8.045   c0.098-0.18,0.239-0.271,0.416-0.271c0.18,0,0.321,0.09,0.419,0.274l3.535,6.453h-7.905L31.461,8.045z M11.831,19.845   c-0.19-0.349-0.122-0.542-0.027-0.689l0.118-0.216c0.086-0.178,0.149-0.204,0.329-0.204h8.527l-4.777,8.724L11.831,19.845z    M12.219,45.056c-0.192,0-0.329-0.198-0.38-0.282c-0.124-0.208-0.198-0.537-0.037-0.829l4.199-7.669l4.809,8.78H12.219z    M32.325,55.746c-0.194,0.359-0.635,0.361-0.833-0.004l-3.535-6.452h7.905L32.325,55.746z M51.984,44.637l-0.119,0.215   c-0.085,0.179-0.147,0.204-0.328,0.204h-8.529l4.779-8.724l4.17,7.614C52.148,44.291,52.078,44.491,51.984,44.637z"
   id="path4235" />
	<circle
   fill="#FFFFFF"
   cx="31.895"
   cy="31.898"
   r="4.184"
   id="circle4237" />
</g>
</svg>