<?xml version="1.0" encoding="UTF-8" standalone="no"?>
<!-- Generator: Adobe Illustrator 16.0.0, SVG Export Plug-In . SVG Version: 6.00 Build 0)  -->

<svg
   xmlns:dc="http://purl.org/dc/elements/1.1/"
   xmlns:cc="http://creativecommons.org/ns#"
   xmlns:rdf="http://www.w3.org/1999/02/22-rdf-syntax-ns#"
   xmlns:svg="http://www.w3.org/2000/svg"
   xmlns="http://www.w3.org/2000/svg"
   xmlns:sodipodi="http://sodipodi.sourceforge.net/DTD/sodipodi-0.dtd"
   xmlns:inkscape="http://www.inkscape.org/namespaces/inkscape"
   version="1.1"
   id="Layer_1"
   x="0px"
   y="0px"
   width="64px"
   height="64px"
   viewBox="0 0 64 64"
   enable-background="new 0 0 64 64"
   xml:space="preserve"
   inkscape:version="0.48.5 r10040"
   sodipodi:docname="1F52B.svg"
   inkscape:export-filename="D:\TESTINGEMOJI\SVGTEST\1F52B.png"
   inkscape:export-xdpi="90"
   inkscape:export-ydpi="90"><metadata
   id="metadata3959"><rdf:RDF><cc:Work
       rdf:about=""><dc:format>image/svg+xml</dc:format><dc:type
         rdf:resource="http://purl.org/dc/dcmitype/StillImage" /><dc:title></dc:title></cc:Work></rdf:RDF></metadata><defs
   id="defs3957" /><sodipodi:namedview
   pagecolor="#ffffff"
   bordercolor="#666666"
   borderopacity="1"
   objecttolerance="10"
   gridtolerance="10"
   guidetolerance="10"
   inkscape:pageopacity="0"
   inkscape:pageshadow="2"
   inkscape:window-width="640"
   inkscape:window-height="480"
   id="namedview3955"
   showgrid="false"
   inkscape:zoom="3.6875"
   inkscape:cx="32"
   inkscape:cy="32"
   inkscape:window-x="549"
   inkscape:window-y="249"
   inkscape:window-maximized="0"
   inkscape:current-layer="Layer_1" />
<g
   id="g3905">
	<path
   fill="#719198"
   d="M39.013,28.278c0,2.646-1.659,4.789-3.708,4.789H12.899c-2.049,0-1.967-2.143-1.967-4.789l0,0   c0-2.646-0.083-4.792,1.967-4.792h22.406C37.354,23.486,39.013,25.631,39.013,28.278L39.013,28.278z"
   id="path3907" />
</g>
<g
   id="g3909">
	<path
   fill="#6C888C"
   d="M38.744,30.047c0.168-0.551,0.269-1.144,0.269-1.77c0-2.646-1.659-4.792-3.708-4.792H12.899   c-2.049,0-1.967,2.145-1.967,4.792c0,0.625-0.003,1.219,0.017,1.77H38.744z"
   id="path3911" />
</g>
<g
   id="g3913">
	<path
   fill="#719198"
   d="M37.359,33.486c0.805,1.902-1.681,3.927-2.272,4.779c-1.636,2.347,0.759,2.19,0.813,2.183   c2.033-0.305,4.478-2.631,4.693-7.963c0.126-3.055-3.846-3.357-5.875-3.051c-0.135,0.02-0.267,0.053-0.399,0.095   C35.795,29.573,36.48,31.414,37.359,33.486z"
   id="path3915" />
</g>
<g
   id="g3917">
	<path
   fill="#719198"
   d="M48.173,20.335c1.556-0.932,0.092-3.752-0.105-4.69c-0.537-2.587,1.634-1.169,1.678-1.134   c1.772,1.33,3.076,4.341,1.029,8.313c-1.171,2.277-5.008,0.33-6.777-0.999c-0.114-0.09-0.224-0.185-0.328-0.287   C45.065,22.309,46.477,21.353,48.173,20.335z"
   id="path3919" />
</g>
<g
   id="g3921">
	<path
   fill="#354A54"
   d="M63.274,51.916c0.117-0.792,0.103-1.71-0.031-2.488c-0.29-1.697-4.606-8.807-6.025-10.783   c-1.1-1.539-2.008-3.158-1.874-5.051c-0.153-0.506-0.293-1.022-0.401-1.557c-0.213-1.042-0.303-2.095-0.315-3.149l1.573-2.324   c0.771-1.137,0.513-2.704-0.567-3.502c-0.438-0.322-0.943-0.428-1.443-0.415c-0.658-1.494-1.992-2.587-3.605-3.047   c-3.998,3.814-7.468,7.983-8.9,12.732c2.187,3.177,2.552,6.03,1.898,10.086c1.449,2.359,4.627,7.917,4.771,9.516   c0.434,4.838-0.657,6.363,2.158,5.903c0.522-0.082,9.496-1.82,9.496-1.82C64.817,55.095,63.604,52.478,63.274,51.916z"
   id="path3923" />
</g>
<g
   id="g3925">
	<path
   fill="#405866"
   d="M57.218,38.645c-1.1-1.539-2.008-3.158-1.874-5.051c-0.153-0.506-0.293-1.022-0.401-1.557   c-0.074-0.353-0.112-0.711-0.159-1.069c-8.076,7.304-6.938,21.1,4.243,25.238c0.598-0.114,0.98-0.188,0.98-0.188   c4.811-0.922,3.597-3.539,3.268-4.101c0.117-0.792,0.103-1.71-0.031-2.488C62.953,47.73,58.637,40.621,57.218,38.645z"
   id="path3927" />
</g>
<g
   id="g3929">
	<path
   fill="#719198"
   d="M35.391,21.998c0,3.017-2.445,5.464-5.463,5.464H4.071c-3.016,0-3.724-2.447-3.724-5.464l0,0   c0-3.018,0.708-5.466,3.724-5.466h25.856C32.946,16.532,35.391,18.98,35.391,21.998L35.391,21.998z"
   id="path3931" />
</g>
<g
   id="g3933">
	<g
   id="g3935">
		<path
   fill="#719198"
   d="M38.646,45.178h-6.51c-3.419,0-6.199-3.117-6.199-6.945c0-3.83,2.78-6.946,6.199-6.946h6.51    c3.419,0,6.201,3.116,6.201,6.946C44.847,42.061,42.064,45.178,38.646,45.178z M32.135,33.029c-2.458,0-4.459,2.334-4.459,5.203    s2.002,5.204,4.459,5.204h6.51c2.459,0,4.459-2.335,4.459-5.204s-2-5.203-4.459-5.203H32.135z"
   id="path3937" />
	</g>
</g>
<g
   id="g3939">
	<path
   fill="#80A0A6"
   d="M47.56,26.817c0,4.564-4.042,6.25-9.032,6.25h-6.274c-4.988,0-9.03-1.686-9.03-6.25v-6.04   c0-4.563,4.042-5.977,9.03-5.977h6.274c4.99,0,9.032,1.414,9.032,5.977V26.817z"
   id="path3941" />
</g>
<g
   id="g3943">
	<path
   fill="#465C61"
   d="M41.734,19.965c0,0.472-0.522,0.852-1.174,0.852H30.226c-0.65,0-1.18-0.38-1.18-0.852v-0.816   c0-0.472,0.529-0.851,1.18-0.851h10.334c0.651,0,1.174,0.379,1.174,0.851V19.965z"
   id="path3945" />
</g>
<g
   id="g3947">
	<path
   fill="#465C61"
   d="M41.734,25.155c0,0.468-0.522,0.85-1.174,0.85H30.226c-0.65,0-1.18-0.381-1.18-0.85v-0.817   c0-0.472,0.529-0.852,1.18-0.852h10.334c0.651,0,1.174,0.379,1.174,0.852V25.155z"
   id="path3949" />
</g>
<g
   id="g3951">
	<path
   fill="#465C61"
   d="M41.894,29.619c0,0.469-0.523,0.849-1.174,0.849H30.385c-0.651,0-1.18-0.379-1.18-0.849v-0.818   c0-0.472,0.529-0.85,1.18-0.85H40.72c0.65,0,1.174,0.378,1.174,0.85V29.619z"
   id="path3953" />
</g>
</svg>