<?xml version="1.0" encoding="UTF-8" standalone="no"?>
<!-- Generator: Adobe Illustrator 16.0.0, SVG Export Plug-In . SVG Version: 6.00 Build 0)  -->

<svg
   xmlns:dc="http://purl.org/dc/elements/1.1/"
   xmlns:cc="http://creativecommons.org/ns#"
   xmlns:rdf="http://www.w3.org/1999/02/22-rdf-syntax-ns#"
   xmlns:svg="http://www.w3.org/2000/svg"
   xmlns="http://www.w3.org/2000/svg"
   xmlns:sodipodi="http://sodipodi.sourceforge.net/DTD/sodipodi-0.dtd"
   xmlns:inkscape="http://www.inkscape.org/namespaces/inkscape"
   version="1.1"
   id="Layer_1"
   x="0px"
   y="0px"
   width="64px"
   height="64px"
   viewBox="0 0 64 64"
   enable-background="new 0 0 64 64"
   xml:space="preserve"
   inkscape:version="0.48.5 r10040"
   sodipodi:docname="1F558.svg"
   inkscape:export-filename="D:\TESTINGEMOJI\SVGTEST\1F558.png"
   inkscape:export-xdpi="90"
   inkscape:export-ydpi="90"><metadata
   id="metadata4160"><rdf:RDF><cc:Work
       rdf:about=""><dc:format>image/svg+xml</dc:format><dc:type
         rdf:resource="http://purl.org/dc/dcmitype/StillImage" /><dc:title></dc:title></cc:Work></rdf:RDF></metadata><defs
   id="defs4158" /><sodipodi:namedview
   pagecolor="#ffffff"
   bordercolor="#666666"
   borderopacity="1"
   objecttolerance="10"
   gridtolerance="10"
   guidetolerance="10"
   inkscape:pageopacity="0"
   inkscape:pageshadow="2"
   inkscape:window-width="640"
   inkscape:window-height="480"
   id="namedview4156"
   showgrid="false"
   inkscape:zoom="3.6875"
   inkscape:cx="32"
   inkscape:cy="32"
   inkscape:window-x="401"
   inkscape:window-y="299"
   inkscape:window-maximized="0"
   inkscape:current-layer="Layer_1" />
<g
   id="g4144">
	<path
   fill="#E0E7EC"
   d="M61.498,31.924c0,16.336-13.24,29.576-29.574,29.576C15.59,61.5,2.35,48.26,2.35,31.924   c0-16.332,13.24-29.572,29.574-29.572C48.258,2.352,61.498,15.592,61.498,31.924z"
   id="path4146" />
	<path
   fill="#D1D7DA"
   d="M52.176,47.06c-16.334,0-29.574-13.24-29.574-29.572c0-5.432,1.489-10.504,4.043-14.879   C12.896,5.152,2.475,17.181,2.475,31.667c0,16.335,13.24,29.576,29.574,29.576c10.901,0,20.401-5.918,25.53-14.697   C55.825,46.871,54.024,47.06,52.176,47.06z"
   id="path4148" />
	<path
   fill="#98A9B4"
   d="M31.926,0C14.322,0,0,14.321,0,31.926C0,49.529,14.322,63.85,31.926,63.85s31.922-14.32,31.922-31.924   C63.848,14.321,49.529,0,31.926,0z M31.926,57.637c-14.177,0-25.712-11.534-25.712-25.711s11.536-25.71,25.712-25.71   c14.175,0,25.709,11.534,25.709,25.71S46.101,57.637,31.926,57.637z"
   id="path4150" />
	<path
   fill="#85939C"
   d="M30.051,11.112c0-1.436,0.846-2.598,1.886-2.598l0,0c1.041,0,1.886,1.162,1.886,2.598v21.033   c0,1.438-0.846,2.598-1.886,2.598l0,0c-1.041,0-1.886-1.16-1.886-2.598V11.112z"
   id="path4152" />
	<path
   fill="#788288"
   d="M16.004,34.905c-1.436,0-2.598-0.846-2.598-1.884l0,0c0-1.041,1.166-1.887,2.6-1.887l15.223-0.005   c1.43,0,2.596,0.848,2.594,1.886l0,0c0.002,1.041-1.164,1.887-2.594,1.888L16.004,34.905z"
   id="path4154" />
</g>
</svg>