<?xml version="1.0" encoding="UTF-8" standalone="no"?>
<!-- Generator: Adobe Illustrator 16.0.0, SVG Export Plug-In . SVG Version: 6.00 Build 0)  -->

<svg
   xmlns:dc="http://purl.org/dc/elements/1.1/"
   xmlns:cc="http://creativecommons.org/ns#"
   xmlns:rdf="http://www.w3.org/1999/02/22-rdf-syntax-ns#"
   xmlns:svg="http://www.w3.org/2000/svg"
   xmlns="http://www.w3.org/2000/svg"
   xmlns:sodipodi="http://sodipodi.sourceforge.net/DTD/sodipodi-0.dtd"
   xmlns:inkscape="http://www.inkscape.org/namespaces/inkscape"
   version="1.1"
   id="Layer_1"
   x="0px"
   y="0px"
   width="64px"
   height="64px"
   viewBox="0 0 64 64"
   enable-background="new 0 0 64 64"
   xml:space="preserve"
   inkscape:version="0.48.5 r10040"
   sodipodi:docname="1F680.svg"
   inkscape:export-filename="D:\TESTINGEMOJI\SVGTEST\1F680.png"
   inkscape:export-xdpi="90"
   inkscape:export-ydpi="90"><metadata
   id="metadata3698"><rdf:RDF><cc:Work
       rdf:about=""><dc:format>image/svg+xml</dc:format><dc:type
         rdf:resource="http://purl.org/dc/dcmitype/StillImage" /><dc:title></dc:title></cc:Work></rdf:RDF></metadata><defs
   id="defs3696" /><sodipodi:namedview
   pagecolor="#ffffff"
   bordercolor="#666666"
   borderopacity="1"
   objecttolerance="10"
   gridtolerance="10"
   guidetolerance="10"
   inkscape:pageopacity="0"
   inkscape:pageshadow="2"
   inkscape:window-width="640"
   inkscape:window-height="480"
   id="namedview3694"
   showgrid="false"
   inkscape:zoom="3.6875"
   inkscape:cx="32"
   inkscape:cy="32"
   inkscape:window-x="708"
   inkscape:window-y="346"
   inkscape:window-maximized="0"
   inkscape:current-layer="Layer_1" />
<g
   id="g3674">
	<path
   opacity="0.62"
   fill="#FBED21"
   d="M39.106,49.043c6.447-6.442,5.87-17.448-1.276-24.599   c-7.15-7.149-18.154-7.724-24.599-1.279c-6.443,6.437-16.529,28.112-9.38,35.256C11.004,65.572,32.67,55.481,39.106,49.043z"
   id="path3676" />
	<path
   opacity="0.62"
   fill="#FBED21"
   d="M40.988,42.456c5.354-5.35,4.876-14.492-1.06-20.432c-5.94-5.938-15.08-6.415-20.432-1.062   c-5.348,5.346-13.729,23.349-7.791,29.283C17.646,56.186,35.646,47.804,40.988,42.456z"
   id="path3678" />
	<path
   fill="#D1D2D3"
   d="M27.819,36.044c6.091,6.091,11.024,12.517,14.546,18.616c0.492-3.073,2.555-7.911,8.781-18.063   C63.512,16.436,64.786,2.029,63.434,0.683c-0.04-0.043-0.083-0.085-0.127-0.126c-0.042-0.044-0.085-0.087-0.129-0.127   c-1.344-1.357-15.746-0.074-35.914,12.289c-10.149,6.226-14.992,8.285-18.061,8.779C15.3,25.019,21.73,29.953,27.819,36.044z"
   id="path3680" />
	<path
   fill="#86A7AC"
   d="M59.401,0.082c-5.729,0.485-17.372,3.584-32.138,12.637c-10.149,6.226-14.992,8.285-18.061,8.779   c6.097,3.521,12.527,8.456,18.616,14.546c0.256,0.256,0.492,0.516,0.75,0.771C26.693,19.706,45.534,8.356,59.401,0.082z"
   id="path3682" />
	<path
   fill="#DE374B"
   d="M33.577,52.628c3.112,3.114,5.635,6.396,7.436,9.516c0.249-1.572,1.303-4.046,4.484-9.234   c6.32-10.305,6.977-17.667,6.281-18.355c-0.02-0.021-0.046-0.042-0.065-0.063s-0.042-0.046-0.065-0.065   c-0.687-0.692-8.047-0.037-18.354,6.281c-5.187,3.182-7.663,4.235-9.236,4.486C27.179,46.991,30.465,49.516,33.577,52.628z"
   id="path3684" />
	<path
   fill="#C5344D"
   d="M41.699,44.091c-2.653,3.278-4.675,7.455-5.208,11.729c1.787,2.115,3.326,4.255,4.521,6.323   c0.249-1.572,1.303-4.046,4.484-9.234c5.146-8.39,6.534-14.828,6.5-17.302C48.581,38.459,44.549,40.562,41.699,44.091z"
   id="path3686" />
	<path
   fill="#DE374B"
   d="M9.52,28.46c3.112,3.114,5.634,6.397,7.435,9.516c0.249-1.572,1.302-4.046,4.487-9.234   c6.318-10.305,6.971-17.667,6.279-18.356c-0.02-0.022-0.044-0.042-0.066-0.063c-0.024-0.022-0.042-0.046-0.065-0.065   c-0.686-0.693-8.049-0.037-18.354,6.281C4.05,19.721,1.574,20.774,0,21.025C3.121,22.824,6.408,25.349,9.52,28.46z"
   id="path3688" />
	<path
   fill="#C5344D"
   d="M12.844,21.432c5.595-2.679,11.441-5.706,14.918-10.973c-0.016-0.022-0.026-0.057-0.026-0.057   c-0.035-0.037-0.059-0.057-0.081-0.079c-0.024-0.022-0.042-0.046-0.065-0.065c-0.686-0.693-8.049-0.037-18.354,6.281   C4.05,19.721,1.574,20.774,0,21.025c2.104,1.213,4.279,2.778,6.427,4.607C8.329,23.987,10.459,22.575,12.844,21.432z"
   id="path3690" />
	<path
   fill="#243438"
   d="M53.026,11.062c1.724,1.486,3.138,3.082,4.179,4.618c0.071-0.815,0.52-2.129,1.965-4.916   c2.869-5.534,2.928-9.347,2.546-9.673c-0.009-0.013-0.022-0.024-0.035-0.03c-0.009-0.011-0.024-0.024-0.035-0.033   c-0.38-0.33-4.14,0.28-9.21,3.912c-2.546,1.832-3.78,2.463-4.578,2.653C49.525,8.402,51.312,9.578,53.026,11.062z"
   id="path3692" />
</g>
</svg>