<?xml version="1.0" encoding="UTF-8" standalone="no"?>
<!-- Generator: Adobe Illustrator 16.0.0, SVG Export Plug-In . SVG Version: 6.00 Build 0)  -->

<svg
   xmlns:dc="http://purl.org/dc/elements/1.1/"
   xmlns:cc="http://creativecommons.org/ns#"
   xmlns:rdf="http://www.w3.org/1999/02/22-rdf-syntax-ns#"
   xmlns:svg="http://www.w3.org/2000/svg"
   xmlns="http://www.w3.org/2000/svg"
   xmlns:sodipodi="http://sodipodi.sourceforge.net/DTD/sodipodi-0.dtd"
   xmlns:inkscape="http://www.inkscape.org/namespaces/inkscape"
   version="1.1"
   id="Layer_1"
   x="0px"
   y="0px"
   width="64px"
   height="64px"
   viewBox="0 0 64 64"
   enable-background="new 0 0 64 64"
   xml:space="preserve"
   inkscape:version="0.48.5 r10040"
   sodipodi:docname="1F691.svg"
   inkscape:export-filename="D:\TESTINGEMOJI\SVGTEST\1F691.png"
   inkscape:export-xdpi="90"
   inkscape:export-ydpi="90"><metadata
   id="metadata3123"><rdf:RDF><cc:Work
       rdf:about=""><dc:format>image/svg+xml</dc:format><dc:type
         rdf:resource="http://purl.org/dc/dcmitype/StillImage" /><dc:title></dc:title></cc:Work></rdf:RDF></metadata><defs
   id="defs3121" /><sodipodi:namedview
   pagecolor="#ffffff"
   bordercolor="#666666"
   borderopacity="1"
   objecttolerance="10"
   gridtolerance="10"
   guidetolerance="10"
   inkscape:pageopacity="0"
   inkscape:pageshadow="2"
   inkscape:window-width="640"
   inkscape:window-height="480"
   id="namedview3119"
   showgrid="false"
   inkscape:zoom="3.6875"
   inkscape:cx="32"
   inkscape:cy="32"
   inkscape:window-x="740"
   inkscape:window-y="154"
   inkscape:window-maximized="0"
   inkscape:current-layer="Layer_1" />
<g
   id="g3077"
   transform="translate(0,4)">
	<path
   d="m 42.452,8.021 c -6.709,0 -12.153,3.43 -12.153,7.659 0,4.23 5.444,7.659 12.153,7.659 V 8.021 z"
   id="path3079"
   inkscape:connector-curvature="0"
   style="fill:#3f5aa1" />
	<path
   d="m 42.452,23.337 c 6.713,0 12.153,-3.43 12.153,-7.659 0,-4.23 -5.44,-7.658 -12.153,-7.658 v 15.317 z"
   id="path3081"
   inkscape:connector-curvature="0"
   style="fill:#ee4237" />
	<path
   d="m 61.777,32.976 c 0,1.284 -1.108,2.33 -2.48,2.33 H 9.438 c -1.372,0 -2.482,-1.044 -2.482,-2.33 l 13.548,-14.62 c 1.283,-1.417 2.856,-2.328 4.229,-2.328 L 58.9,15.045 c 1.369,0 2.479,1.044 2.479,2.33 l 0.398,15.601 z"
   id="path3083"
   inkscape:connector-curvature="0"
   style="fill:#d1d2d2" />
	<path
   d="m 33.309,17.771 -5.748,0.08 c -1.062,0 -3.167,0.636 -4.161,1.618 l -9.606,10.17 c 0,0.897 0.861,1.622 1.923,1.622 h 17.555 l 0.037,-13.49 z"
   id="path3085"
   inkscape:connector-curvature="0"
   style="fill:#a2c2ca" />
	<path
   d="m 62.258,40.187 c 0,4.747 -2.828,8.598 -6.32,8.598 H 8.172 c -3.49,0 -6.322,-3.852 -6.322,-8.598 l 0,0 c 0,-4.746 2.832,-8.595 6.322,-8.595 h 47.764 c 3.494,-10e-4 6.322,3.848 6.322,8.595 l 0,0 z"
   id="path3087"
   inkscape:connector-curvature="0"
   style="fill:#919396" />
	<path
   d="m 63.75,43.665 c 0,2.826 -2.988,5.119 -6.674,5.119 H 6.672 C 2.988,48.784 0,46.491 0,43.665 l 0,0 c 0,-2.828 2.988,-5.118 6.672,-5.118 h 50.404 c 3.686,0 6.674,2.29 6.674,5.118 l 0,0 z"
   id="path3089"
   inkscape:connector-curvature="0"
   style="fill:#d1d2d2" />
	<path
   d="M 56.895,35.25 H 6.492 c -1.516,0 -2.896,0.403 -4.012,1.059 -0.494,1.217 -0.802,2.593 -0.806,4.076 1.213,-0.977 2.918,-1.592 4.818,-1.592 h 50.4 c 2.096,0 3.939,0.754 5.164,1.911 0,-0.094 0.019,-0.179 0.019,-0.271 0,-1.356 -0.252,-2.622 -0.662,-3.763 -1.188,-0.863 -2.752,-1.42 -4.518,-1.42 z"
   id="path3091"
   inkscape:connector-curvature="0"
   style="fill:#df394c" />
	<path
   d="m 21.329,48.784 c 0,4.153 -3.375,7.529 -7.539,7.529 -4.155,0 -7.527,-3.376 -7.527,-7.529 0,-4.162 3.372,-7.531 7.527,-7.531 4.163,-0.002 7.539,3.369 7.539,7.531 z"
   id="path3093"
   inkscape:connector-curvature="0"
   style="fill:#ffffff" />
	<path
   d="m 57.518,48.7 c 0,4.156 -3.371,7.53 -7.537,7.53 -4.151,0 -7.527,-3.374 -7.527,-7.53 0,-4.16 3.376,-7.531 7.527,-7.531 4.165,0 7.537,3.371 7.537,7.531 z"
   id="path3095"
   inkscape:connector-curvature="0"
   style="fill:#ffffff" />
	<path
   d="m 19.992,48.784 c 0,3.416 -2.775,6.19 -6.198,6.19 -3.417,0 -6.191,-2.774 -6.191,-6.19 0,-3.422 2.775,-6.195 6.191,-6.195 3.422,0 6.198,2.773 6.198,6.195 z"
   id="path3097"
   inkscape:connector-curvature="0"
   style="fill:#243438" />
	<path
   d="m 17.81,48.698 c 0,2.217 -1.794,4.016 -4.016,4.016 -2.213,0 -4.015,-1.799 -4.015,-4.016 0,-2.216 1.802,-4.012 4.015,-4.012 2.221,10e-4 4.016,1.796 4.016,4.012 z"
   id="path3099"
   inkscape:connector-curvature="0"
   style="fill:#969796" />
	<path
   d="m 56.184,48.784 c 0,3.416 -2.773,6.19 -6.199,6.19 -3.416,0 -6.19,-2.774 -6.19,-6.19 0,-3.422 2.774,-6.195 6.19,-6.195 3.424,0 6.199,2.773 6.199,6.195 z"
   id="path3101"
   inkscape:connector-curvature="0"
   style="fill:#243438" />
	<path
   d="m 54.002,48.698 c 0,2.217 -1.798,4.016 -4.02,4.016 -2.209,0 -4.012,-1.799 -4.012,-4.016 0,-2.216 1.803,-4.012 4.012,-4.012 2.222,10e-4 4.02,1.796 4.02,4.012 z"
   id="path3103"
   inkscape:connector-curvature="0"
   style="fill:#969796" />
	<path
   d="m 3.907,38.021 c 0,2.238 -0.667,4.056 -1.492,4.056 l 0,0 c -0.822,0 -1.49,-1.817 -1.49,-4.056 V 37.93 c 0,-2.24 0.668,-4.054 1.49,-4.054 l 0,0 c 0.826,0 1.492,1.813 1.492,4.054 v 0.091 z"
   id="path3105"
   inkscape:connector-curvature="0"
   style="fill:#e3e4e3" />
	<path
   d="m 63.75,38.592 c 0,2.237 -0.669,4.052 -1.492,4.052 l 0,0 c -0.822,0 -1.492,-1.814 -1.492,-4.052 v -0.094 c 0,-2.242 0.67,-4.054 1.492,-4.054 l 0,0 c 0.823,0 1.492,1.812 1.492,4.054 v 0.094 z"
   id="path3107"
   inkscape:connector-curvature="0"
   style="fill:#df394c" />
	<path
   d="m 26.036,29.201 c 0.238,-4.322 2.068,-8.11 4.625,-11.413 l -3.156,0.043 c -1.062,0 -3.168,0.636 -4.161,1.618 l -9.608,10.17 c 0,0.897 0.861,1.622 1.922,1.622 h 10.407 c -0.046,-0.666 -0.066,-1.342 -0.029,-2.04 z"
   id="path3109"
   inkscape:connector-curvature="0"
   style="fill:#83afb7" />
	<g
   id="g3111">
		<path
   d="m 42.328,25.213 c 2.927,0 5.849,0 8.768,0 1.862,0 3.729,0 5.586,0 0.115,0 0.223,-0.021 0.223,-0.048 0,-0.686 0,-1.378 0,-2.066 0,-0.394 0,-0.785 0,-1.182 0,-0.027 -0.106,-0.048 -0.223,-0.048 -2.928,0 -5.85,0 -8.771,0 -1.862,0 -3.722,0 -5.583,0 -0.059,0 -0.108,0.003 -0.145,0.011 l -0.004,0.002 c -0.006,0 -0.006,0 -0.006,0 -0.031,0.01 -0.063,0.021 -0.063,0.035 0,0.69 0,1.378 0,2.064 0,0.399 0,0.791 0,1.184 0.003,0.027 0.102,0.048 0.218,0.048 z"
   id="path3113"
   inkscape:connector-curvature="0"
   style="fill:#df394c" />
		<path
   d="m 47.832,21.99 c 0,1.701 0,3.401 0,5.099 0,1.081 0,2.161 0,3.242 0,0.068 0.021,0.128 0.05,0.128 0.683,0 1.376,0 2.066,0 0.396,0 0.786,0 1.186,0 0.027,0 0.052,-0.06 0.052,-0.128 0,-1.702 0,-3.399 0,-5.099 0,-1.078 0,-2.159 0,-3.242 0,-0.035 -0.009,-0.063 -0.017,-0.082 V 21.906 21.9 c -0.017,-0.018 -0.026,-0.031 -0.026,-0.031 -0.701,0 -1.393,0 -2.078,0 -0.398,0 -0.791,0 -1.183,0 -0.028,0.001 -0.05,0.054 -0.05,0.121 z"
   id="path3115"
   inkscape:connector-curvature="0"
   style="fill:#df394c" />
		<path
   d="m 47.832,16.75 c 0,1.701 0,3.397 0,5.095 0,1.083 0,2.163 0,3.244 0,0.066 0.021,0.126 0.05,0.126 0.683,0 1.376,0 2.066,0 0.396,0 0.786,0 1.186,0 0.027,0 0.052,-0.06 0.052,-0.126 0,-1.704 0,-3.401 0,-5.099 0,-1.078 0,-2.161 0,-3.24 0,-0.037 -0.009,-0.066 -0.017,-0.085 v -0.003 -0.006 c -0.017,-0.015 -0.026,-0.031 -0.026,-0.031 -0.701,0 -1.393,0 -2.078,0 -0.398,0 -0.791,0 -1.183,0 -0.028,0 -0.05,0.055 -0.05,0.125 z"
   id="path3117"
   inkscape:connector-curvature="0"
   style="fill:#df394c" />
	</g>
</g>
</svg>