<?xml version="1.0" encoding="UTF-8" standalone="no"?>
<!-- Generator: Adobe Illustrator 16.0.0, SVG Export Plug-In . SVG Version: 6.00 Build 0)  -->

<svg
   xmlns:dc="http://purl.org/dc/elements/1.1/"
   xmlns:cc="http://creativecommons.org/ns#"
   xmlns:rdf="http://www.w3.org/1999/02/22-rdf-syntax-ns#"
   xmlns:svg="http://www.w3.org/2000/svg"
   xmlns="http://www.w3.org/2000/svg"
   xmlns:sodipodi="http://sodipodi.sourceforge.net/DTD/sodipodi-0.dtd"
   xmlns:inkscape="http://www.inkscape.org/namespaces/inkscape"
   version="1.1"
   id="Layer_1"
   x="0px"
   y="0px"
   width="64px"
   height="64px"
   viewBox="0 0 64 64"
   enable-background="new 0 0 64 64"
   xml:space="preserve"
   inkscape:version="0.48.5 r10040"
   sodipodi:docname="1F697.svg"
   inkscape:export-filename="D:\TESTINGEMOJI\SVGTEST\1F697.png"
   inkscape:export-xdpi="90"
   inkscape:export-ydpi="90"><metadata
   id="metadata3647"><rdf:RDF><cc:Work
       rdf:about=""><dc:format>image/svg+xml</dc:format><dc:type
         rdf:resource="http://purl.org/dc/dcmitype/StillImage" /><dc:title></dc:title></cc:Work></rdf:RDF></metadata><defs
   id="defs3645" /><sodipodi:namedview
   pagecolor="#ffffff"
   bordercolor="#666666"
   borderopacity="1"
   objecttolerance="10"
   gridtolerance="10"
   guidetolerance="10"
   inkscape:pageopacity="0"
   inkscape:pageshadow="2"
   inkscape:window-width="640"
   inkscape:window-height="480"
   id="namedview3643"
   showgrid="false"
   inkscape:zoom="3.6875"
   inkscape:cx="32"
   inkscape:cy="32"
   inkscape:window-x="862"
   inkscape:window-y="243"
   inkscape:window-maximized="0"
   inkscape:current-layer="Layer_1" />
<g
   id="g3613"
   transform="translate(0,26)">
	<path
   d="m 57.779,15.846 c 0,1.134 -0.982,2.058 -2.192,2.058 H 15.565 c -1.21,0 -2.192,-0.923 -2.192,-2.058 L 25.349,2.924 C 26.481,1.673 27.873,0.866 29.083,0.866 L 51.191,0 c 1.208,0 2.189,0.921 2.189,2.058 l 4.399,13.788 z"
   id="path3615"
   inkscape:connector-curvature="0"
   style="fill:#c5344d" />
	<path
   d="m 53.852,12.879 c 0,0.791 -0.76,1.433 -1.696,1.433 h -31.09 c -0.937,0 -1.698,-0.642 -1.698,-1.433 L 27.857,3.89 c 0.878,-0.869 2.739,-1.429 3.678,-1.429 l 17.3,-0.348 c 0.938,0 1.698,0.641 1.698,1.431 l 3.319,9.335 z"
   id="path3617"
   inkscape:connector-curvature="0"
   style="fill:#a2c2ca" />
	<path
   d="m 39.3,14.195 c 0.08,0.529 -0.285,1.019 -0.814,1.095 l 0,0 c -0.527,0.08 -1.021,-0.285 -1.097,-0.816 L 35.587,2.213 C 35.509,1.686 35.874,1.194 36.402,1.114 l 0,0 C 36.929,1.038 37.423,1.403 37.5,1.93 l 1.8,12.265 z"
   id="path3619"
   inkscape:connector-curvature="0"
   style="fill:#c5344d" />
	<path
   d="m 62.521,20.755 c 0,3.559 -2.887,6.446 -6.447,6.446 H 7.384 c -3.557,0 -6.441,-2.887 -6.441,-6.446 l 0,0 c 0,-3.558 2.885,-6.443 6.441,-6.443 h 48.689 c 3.561,0 6.448,2.885 6.448,6.443 l 0,0 z"
   id="path3621"
   inkscape:connector-curvature="0"
   style="fill:#df394c" />
	<path
   d="m 20.796,27.201 c 0,4.234 -3.439,7.675 -7.685,7.675 -4.232,0 -7.671,-3.441 -7.671,-7.675 0,-4.242 3.439,-7.677 7.671,-7.677 4.246,0 7.685,3.435 7.685,7.677 z"
   id="path3623"
   inkscape:connector-curvature="0"
   style="fill:#ffffff" />
	<path
   d="m 57.688,27.115 c 0,4.238 -3.441,7.675 -7.686,7.675 -4.231,0 -7.673,-3.437 -7.673,-7.675 0,-4.242 3.441,-7.675 7.673,-7.675 4.244,0 7.686,3.434 7.686,7.675 z"
   id="path3625"
   inkscape:connector-curvature="0"
   style="fill:#ffffff" />
	<path
   d="m 19.434,27.201 c 0,3.482 -2.829,6.311 -6.319,6.311 -3.48,0 -6.311,-2.828 -6.311,-6.311 0,-3.488 2.831,-6.315 6.311,-6.315 3.49,0 6.319,2.827 6.319,6.315 z"
   id="path3627"
   inkscape:connector-curvature="0"
   style="fill:#243438" />
	<path
   d="m 17.211,27.113 c 0,2.26 -1.831,4.093 -4.096,4.093 -2.252,0 -4.089,-1.833 -4.089,-4.093 0,-2.259 1.837,-4.089 4.089,-4.089 2.265,0 4.096,1.83 4.096,4.089 z"
   id="path3629"
   inkscape:connector-curvature="0"
   style="fill:#969796" />
	<path
   d="m 56.321,27.201 c 0,3.482 -2.825,6.311 -6.315,6.311 -3.48,0 -6.311,-2.828 -6.311,-6.311 0,-3.488 2.83,-6.315 6.311,-6.315 3.49,0 6.315,2.827 6.315,6.315 z"
   id="path3631"
   inkscape:connector-curvature="0"
   style="fill:#243438" />
	<path
   d="m 54.102,27.113 c 0,2.26 -1.829,4.093 -4.096,4.093 -2.252,0 -4.091,-1.833 -4.091,-4.093 0,-2.259 1.839,-4.089 4.091,-4.089 2.266,0 4.096,1.83 4.096,4.089 z"
   id="path3633"
   inkscape:connector-curvature="0"
   style="fill:#969796" />
	<path
   d="m 3.039,19.133 c 0,1.679 -0.681,3.04 -1.522,3.04 l 0,0 C 0.679,22.173 0,20.812 0,19.133 v -0.068 c 0,-1.681 0.679,-3.039 1.517,-3.039 l 0,0 c 0.841,0 1.522,1.358 1.522,3.039 v 0.068 z"
   id="path3635"
   inkscape:connector-curvature="0"
   style="fill:#e3e4e3" />
	<path
   d="m 64.037,19.559 c 0,1.677 -0.68,3.039 -1.517,3.039 l 0,0 c -0.844,0 -1.524,-1.362 -1.524,-3.039 v -0.07 c 0,-1.679 0.681,-3.04 1.524,-3.04 l 0,0 c 0.837,0 1.517,1.361 1.517,3.04 v 0.07 z"
   id="path3637"
   inkscape:connector-curvature="0"
   style="fill:#e3e4e3" />
	<path
   d="m 36.58,26.534 c -0.119,0.48 -0.63,0.763 -1.153,0.634 l 0,0 c -0.516,-0.127 -0.842,-0.619 -0.721,-1.095 l 2.743,-11.099 c 0.113,-0.476 0.63,-0.759 1.147,-0.632 l 0,0 c 0.521,0.127 0.846,0.619 0.729,1.097 L 36.58,26.534 z"
   id="path3639"
   inkscape:connector-curvature="0"
   style="fill:#c5344d" />
	<path
   d="M 30.234,12.51 C 30.447,8.688 32.065,5.341 34.326,2.422 l -2.792,0.039 c -0.939,0 -2.799,0.56 -3.678,1.429 l -8.489,8.989 c 0,0.791 0.761,1.433 1.698,1.433 h 9.196 c -0.04,-0.587 -0.058,-1.185 -0.027,-1.802 z"
   id="path3641"
   inkscape:connector-curvature="0"
   style="fill:#83afb7" />
</g>
</svg>