<?xml version="1.0" encoding="UTF-8" standalone="no"?>
<!-- Generator: Adobe Illustrator 16.0.0, SVG Export Plug-In . SVG Version: 6.00 Build 0)  -->

<svg
   xmlns:dc="http://purl.org/dc/elements/1.1/"
   xmlns:cc="http://creativecommons.org/ns#"
   xmlns:rdf="http://www.w3.org/1999/02/22-rdf-syntax-ns#"
   xmlns:svg="http://www.w3.org/2000/svg"
   xmlns="http://www.w3.org/2000/svg"
   xmlns:sodipodi="http://sodipodi.sourceforge.net/DTD/sodipodi-0.dtd"
   xmlns:inkscape="http://www.inkscape.org/namespaces/inkscape"
   version="1.1"
   id="Layer_1"
   x="0px"
   y="0px"
   width="64px"
   height="64px"
   viewBox="0 0 64 64"
   enable-background="new 0 0 64 64"
   xml:space="preserve"
   inkscape:version="0.48.5 r10040"
   sodipodi:docname="1F6B0.svg"
   inkscape:export-filename="D:\TESTINGEMOJI\SVGTEST\1F6B0.png"
   inkscape:export-xdpi="90"
   inkscape:export-ydpi="90"><metadata
   id="metadata6651"><rdf:RDF><cc:Work
       rdf:about=""><dc:format>image/svg+xml</dc:format><dc:type
         rdf:resource="http://purl.org/dc/dcmitype/StillImage" /><dc:title></dc:title></cc:Work></rdf:RDF></metadata><defs
   id="defs6649" /><sodipodi:namedview
   pagecolor="#ffffff"
   bordercolor="#666666"
   borderopacity="1"
   objecttolerance="10"
   gridtolerance="10"
   guidetolerance="10"
   inkscape:pageopacity="0"
   inkscape:pageshadow="2"
   inkscape:window-width="640"
   inkscape:window-height="480"
   id="namedview6647"
   showgrid="false"
   inkscape:zoom="3.6875"
   inkscape:cx="32"
   inkscape:cy="32"
   inkscape:window-x="701"
   inkscape:window-y="323"
   inkscape:window-maximized="0"
   inkscape:current-layer="Layer_1" />
<g
   id="g6593">
	<g
   id="g6595">
		<path
   fill="#1B75BB"
   d="M63.667,56.802c0,3.794-3.07,6.868-6.86,6.868H6.862C3.074,63.67,0,60.596,0,56.802V6.864    C0,3.074,3.074,0,6.862,0h49.944c3.79,0,6.86,3.074,6.86,6.864V56.802z"
   id="path6597" />
		<path
   fill="#0867A3"
   d="M0,48.479v8.323c0,3.794,3.074,6.868,6.862,6.868h49.944c3.79,0,6.86-3.074,6.86-6.868V6.864    C52.798,46.355,13.712,48.858,0,48.479z"
   id="path6599" />
	</g>
	<g
   id="g6601">
		<g
   id="g6603">
			<path
   fill-rule="evenodd"
   clip-rule="evenodd"
   fill="#FFFFFF"
   d="M15.848,30.833c0.413-3.027,2.304-5,5.307-5.614     c0.894-0.186,1.825-0.245,2.742-0.26c2.065-0.035,4.13,0.004,6.2-0.016c2.023-0.018,3.136-1.065,3.153-2.923     c0.005-0.436,0-0.867,0-1.32c2.718,0,5.283,0,7.907,0c0.043,1.295-0.442,2.818,0.966,3.532c1.162,0.585,2.605,0.69,4.009,1.029     c0,2.144,0,4.455,0,6.862c-0.512,0-0.942,0-1.376,0c-6.528,0-13.061,0-19.583,0c-1.67,0-1.668,0.002-1.717,1.593     c-0.007,0.194-0.069,0.384-0.106,0.603c-2.522,0-4.981,0-7.522,0C15.828,33.083,15.695,31.942,15.848,30.833z M16.198,33.212     c0.041,0.205,0.293,0.365,0.456,0.549c0.16-0.18,0.427-0.344,0.461-0.537c0.067-0.474,0.016-0.958,0.025-1.441     c0.063-3.08,1.872-5.09,5.176-5.378c2.522-0.227,5.077-0.119,7.616-0.197c0.689-0.018,1.407-0.071,2.058-0.272     c1.839-0.573,2.906-2.159,2.699-3.915c-0.03-0.227-0.315-0.428-0.479-0.642c-0.172,0.208-0.462,0.403-0.49,0.632     c-0.312,2.532-1.218,3.293-3.962,3.314c-2.431,0.016-4.881-0.102-7.283,0.153c-4.257,0.458-6.291,2.748-6.303,6.709     C16.173,32.531,16.114,32.885,16.198,33.212z M42.59,25.012c-1.135-0.381-1.901-1.162-1.812-2.419     c0.01-0.164,0.02-0.366-0.062-0.502c-0.137-0.25-0.348-0.473-0.527-0.7c-0.148,0.227-0.403,0.446-0.425,0.685     c-0.17,2.102,1.309,3.79,3.567,4.087c0.51,0.069,1.038,0.106,1.537,0.027c0.268-0.043,0.482-0.365,0.858-0.678     C44.377,25.309,43.435,25.292,42.59,25.012z"
   id="path6605" />
			<path
   fill-rule="evenodd"
   clip-rule="evenodd"
   fill="#FFFFFF"
   d="M13.412,9.719c4.643,0.004,9.285-0.014,13.932,0.029     c0.555,0.008,1.22,0.247,1.652,0.579c1.491,1.15,2.912,2.388,4.354,3.581c0.682-0.565,3.866-0.72,7.397-0.403     c0.446,1.881,0.896,3.808,1.363,5.779c-3.326,0-6.513,0-9.785,0c0.167-0.745,0.261-1.424,0.487-2.071     c0.237-0.686,0.057-1.128-0.53-1.588c-1.359-1.054-2.616-2.223-3.995-3.256c-0.49-0.366-1.214-0.651-1.834-0.663     c-4.314-0.057-8.63-0.068-12.936-0.004c-1.075,0.016-1.391-0.329-1.25-1.23c0.027-0.198,0.033-0.401,0.053-0.753     C12.758,9.719,13.083,9.719,13.412,9.719z M12.309,9.974c1.208,0.584,14.985,0.493,15.645,0     C22.804,9.974,17.698,9.974,12.309,9.974z M40.397,14.64c-0.08-0.297-0.476-0.522-0.722-0.782     c-0.133,0.072-0.258,0.146-0.391,0.215c0.352,1.484,0.672,2.98,1.083,4.449c0.047,0.172,0.56,0.234,1.095,0.44     C41.066,17.295,40.777,15.959,40.397,14.64z M34.101,18.367c0.39-1.404,0.701-2.835,1.042-4.257     c-0.105-0.08-0.205-0.154-0.312-0.234c-0.268,0.23-0.7,0.42-0.774,0.696c-0.39,1.345-0.686,2.714-1.015,4.077     c0.104,0.09,0.199,0.18,0.305,0.27C33.602,18.738,34.035,18.596,34.101,18.367z"
   id="path6607" />
			<path
   fill-rule="evenodd"
   clip-rule="evenodd"
   fill="#FFFFFF"
   d="M48.744,34.759c0.5,0,0.854,0,1.284,0c0-3.804,0-7.553,0-11.122     c-0.457-0.295-0.798-0.514-1.138-0.731c0.309-0.215,0.618-0.428,0.868-0.604c-0.211,0-0.56,0-0.97,0     c-0.055,1.003,0.066,2.062-1.236,2.511c-0.121,0.039-0.137,0.43-0.137,0.655c-0.014,2.057-0.014,4.108,0,6.162     c0,0.225,0.02,0.599,0.148,0.649C48.75,32.75,48.775,33.708,48.744,34.759z"
   id="path6609" />
			<path
   fill-rule="evenodd"
   clip-rule="evenodd"
   fill="#FFFFFF"
   d="M26.033,35.276c0,0.685,0,1.311,0,1.937     c-4.347,0-8.62,0-12.917,0c0-0.679,0-1.258,0-1.937C17.487,35.276,21.737,35.276,26.033,35.276z M14.008,37.049     c0.143-0.261,0.404-0.522,0.395-0.774c-0.012-0.239-0.311-0.464-0.481-0.694c-0.196,0.225-0.39,0.449-0.702,0.819     C13.567,36.683,13.787,36.868,14.008,37.049z"
   id="path6611" />
			<path
   fill-rule="evenodd"
   clip-rule="evenodd"
   fill="#FFFFFF"
   d="M51.218,32.017c0-2.354,0-4.628,0-6.936c1.185,0,2.304,0,3.48,0     c0,2.327,0,4.576,0,6.936C53.471,32.017,52.359,32.017,51.218,32.017z M52.419,26.223c0.402-0.024,0.825,0.051,1.212-0.03     c0.238-0.047,0.438-0.291,0.651-0.45c-0.197-0.135-0.39-0.379-0.604-0.397c-0.618-0.055-1.243-0.018-1.836-0.018     C51.569,25.972,51.719,26.264,52.419,26.223z"
   id="path6613" />
			<path
   fill-rule="evenodd"
   clip-rule="evenodd"
   fill="#FFFFFF"
   d="M22.756,39.933c-0.105,0.245-0.461,0.546-0.707,0.558     c-1.61,0.051-3.225,0.047-4.838,0.014c-0.256-0.004-0.651-0.207-0.729-0.406c-0.219-0.513-0.291-1.082-0.433-1.687     c2.418,0,4.683,0,7.058,0C22.973,39.016,22.938,39.503,22.756,39.933z M16.761,38.783c0.082,1.432,0.123,1.469,1.398,1.293     C17.936,39.345,18.083,38.372,16.761,38.783z"
   id="path6615" />
			<path
   fill-rule="evenodd"
   clip-rule="evenodd"
   fill="#FFFFFF"
   d="M23.106,41.499c-0.052,0.319-0.104,0.55-0.13,0.788     c-0.084,0.971-0.54,1.424-1.688,1.307c-1.082-0.113-2.19-0.094-3.278-0.012c-1.027,0.074-1.734-0.08-1.776-1.198     c-0.011-0.271-0.093-0.534-0.162-0.885C18.479,41.499,20.766,41.499,23.106,41.499z M16.826,41.811     c-0.095,1.332,0.091,1.533,1.303,1.291C17.936,42.444,18.177,41.474,16.826,41.811z"
   id="path6617" />
			<path
   fill-rule="evenodd"
   clip-rule="evenodd"
   fill="#FFFFFF"
   d="M17.572,44.562c0.222,0.536,0.43,1.043,0.736,1.782     c-0.59-0.094-1.157-0.041-1.258-0.222c-0.244-0.445-0.281-0.993-0.417-1.592c0.035,0-0.208,0-0.449,0     c-0.035,0.084-0.088,0.149-0.075,0.202c0.442,1.846,0.446,1.846,2.491,1.855c0.879,0.006,1.771-0.062,2.639,0.021     c1.073,0.1,1.676-0.223,1.736-1.268c0.014-0.232,0.08-0.467,0.141-0.78C21.214,44.562,19.366,44.562,17.572,44.562z"
   id="path6619" />
			<path
   fill-rule="evenodd"
   clip-rule="evenodd"
   fill="#FFFFFF"
   d="M35.42,12.529c1.221,0,2.332,0,3.511,0     c-0.123-0.907-0.687-1.337-1.574-1.406C36.326,11.045,35.737,11.538,35.42,12.529z"
   id="path6621" />
		</g>
		<path
   fill-rule="evenodd"
   clip-rule="evenodd"
   fill="#FFFFFF"
   d="M16.173,32.187c0,0.344-0.059,0.698,0.025,1.025    c0.041,0.205,0.293,0.365,0.456,0.549c0.16-0.18,0.427-0.344,0.461-0.537c0.067-0.474,0.016-0.958,0.025-1.441    c0.063-3.08,1.872-5.09,5.176-5.378c2.522-0.227,5.077-0.119,7.616-0.197c0.689-0.018,1.407-0.071,2.058-0.272    c1.839-0.573,2.906-2.159,2.699-3.915c-0.03-0.227-0.315-0.428-0.479-0.642c-0.172,0.208-0.462,0.403-0.49,0.632    c-0.312,2.532-1.218,3.293-3.962,3.314c-2.431,0.016-4.881-0.102-7.283,0.153C18.218,25.935,16.185,28.225,16.173,32.187z"
   id="path6623" />
		<path
   fill-rule="evenodd"
   clip-rule="evenodd"
   fill="#FFFFFF"
   d="M45.727,25.511c-1.35-0.202-2.292-0.219-3.137-0.499    c-1.135-0.381-1.901-1.162-1.812-2.419c0.01-0.164,0.02-0.366-0.062-0.502c-0.137-0.25-0.348-0.473-0.527-0.7    c-0.148,0.227-0.403,0.446-0.425,0.685c-0.17,2.102,1.309,3.79,3.567,4.087c0.51,0.069,1.038,0.106,1.537,0.027    C45.136,26.146,45.351,25.824,45.727,25.511z"
   id="path6625" />
		<path
   fill-rule="evenodd"
   clip-rule="evenodd"
   fill="#FFFFFF"
   d="M27.953,9.974c-5.149,0-10.255,0-15.645,0    C13.517,10.558,27.294,10.466,27.953,9.974z"
   id="path6627" />
		<path
   fill-rule="evenodd"
   clip-rule="evenodd"
   fill="#FFFFFF"
   d="M41.463,18.961c-0.396-1.666-0.686-3.002-1.065-4.322    c-0.08-0.297-0.476-0.522-0.722-0.782c-0.133,0.072-0.258,0.146-0.391,0.215c0.352,1.484,0.672,2.98,1.083,4.449    C40.415,18.693,40.928,18.756,41.463,18.961z"
   id="path6629" />
		<path
   fill-rule="evenodd"
   clip-rule="evenodd"
   fill="#FFFFFF"
   d="M33.347,18.918c0.255-0.18,0.688-0.323,0.754-0.552    c0.39-1.404,0.701-2.835,1.042-4.257c-0.105-0.08-0.205-0.154-0.312-0.234c-0.268,0.23-0.7,0.42-0.774,0.696    c-0.39,1.345-0.686,2.714-1.015,4.077C33.146,18.738,33.241,18.828,33.347,18.918z"
   id="path6631" />
		<path
   fill-rule="evenodd"
   clip-rule="evenodd"
   fill="#FFFFFF"
   d="M13.22,36.399c0.347,0.283,0.567,0.469,0.788,0.649    c0.143-0.261,0.404-0.522,0.395-0.774c-0.012-0.239-0.311-0.464-0.481-0.694C13.726,35.805,13.532,36.029,13.22,36.399z"
   id="path6633" />
		<path
   fill-rule="evenodd"
   clip-rule="evenodd"
   fill="#FFFFFF"
   d="M51.842,25.329c-0.272,0.644-0.123,0.935,0.577,0.894    c0.402-0.024,0.825,0.051,1.212-0.03c0.238-0.047,0.438-0.291,0.651-0.45c-0.197-0.135-0.39-0.379-0.604-0.397    C53.06,25.292,52.435,25.329,51.842,25.329z"
   id="path6635" />
		<path
   fill-rule="evenodd"
   clip-rule="evenodd"
   fill="#FFFFFF"
   d="M18.16,40.076c-0.224-0.731-0.077-1.704-1.398-1.293    C16.843,40.215,16.884,40.252,18.16,40.076z"
   id="path6637" />
		<path
   fill-rule="evenodd"
   clip-rule="evenodd"
   fill="#FFFFFF"
   d="M18.128,43.102c-0.193-0.657,0.049-1.628-1.303-1.291    C16.731,43.143,16.917,43.344,18.128,43.102z"
   id="path6639" />
	</g>
	<g
   id="g6641">
		<path
   fill="#FFFFFF"
   d="M17.151,55.417c0.053,1.633,1.187,2.922,2.53,2.877c1.345-0.045,2.392-1.406,2.339-3.039    c-0.059-1.631-1.28-5.622-2.623-5.581C18.054,49.719,17.096,53.784,17.151,55.417z"
   id="path6643" />
		<path
   fill="#FFFFFF"
   d="M19.298,49.68c-1.307,0.232-2.219,4.157-2.167,5.761c0.052,1.647,1.193,2.943,2.55,2.898    c0.616-0.02,1.161-0.322,1.58-0.796C19.269,55.561,18.562,52.52,19.298,49.68z"
   id="path6645" />
	</g>
</g>
</svg>