<?xml version="1.0" encoding="UTF-8" standalone="no"?>
<!-- Generator: Adobe Illustrator 16.0.0, SVG Export Plug-In . SVG Version: 6.00 Build 0)  -->

<svg
   xmlns:dc="http://purl.org/dc/elements/1.1/"
   xmlns:cc="http://creativecommons.org/ns#"
   xmlns:rdf="http://www.w3.org/1999/02/22-rdf-syntax-ns#"
   xmlns:svg="http://www.w3.org/2000/svg"
   xmlns="http://www.w3.org/2000/svg"
   xmlns:sodipodi="http://sodipodi.sourceforge.net/DTD/sodipodi-0.dtd"
   xmlns:inkscape="http://www.inkscape.org/namespaces/inkscape"
   version="1.1"
   id="Layer_1"
   x="0px"
   y="0px"
   width="64px"
   height="64px"
   viewBox="0 0 64 64"
   enable-background="new 0 0 64 64"
   xml:space="preserve"
   inkscape:version="0.48.5 r10040"
   sodipodi:docname="24C2.svg"
   inkscape:export-filename="D:\TESTINGEMOJI\SVGTEST\24C2.png"
   inkscape:export-xdpi="90"
   inkscape:export-ydpi="90"><metadata
   id="metadata3055"><rdf:RDF><cc:Work
       rdf:about=""><dc:format>image/svg+xml</dc:format><dc:type
         rdf:resource="http://purl.org/dc/dcmitype/StillImage" /><dc:title></dc:title></cc:Work></rdf:RDF></metadata><defs
   id="defs3053" /><sodipodi:namedview
   pagecolor="#ffffff"
   bordercolor="#666666"
   borderopacity="1"
   objecttolerance="10"
   gridtolerance="10"
   guidetolerance="10"
   inkscape:pageopacity="0"
   inkscape:pageshadow="2"
   inkscape:window-width="640"
   inkscape:window-height="480"
   id="namedview3051"
   showgrid="false"
   inkscape:zoom="3.6875"
   inkscape:cx="32"
   inkscape:cy="32"
   inkscape:window-x="668"
   inkscape:window-y="254"
   inkscape:window-maximized="0"
   inkscape:current-layer="Layer_1" />
<g
   id="g3041">
	<path
   fill="#1B75BB"
   d="M63.691,33.293c0,16.633-13.481,30.117-30.116,30.117H30.4c-16.635,0-30.117-13.484-30.117-30.117v-3.176   C0.284,13.484,13.766,0,30.4,0h3.175C50.21,0,63.691,13.484,63.691,30.117V33.293z"
   id="path3043" />
	<path
   fill="#155A80"
   d="M46.419,2.906c1.845,3.9,2.907,8.242,2.907,12.843v3.176c0,16.637-13.482,30.117-30.117,30.117h-3.174   c-4.603,0-8.944-1.06-12.845-2.906C8.013,56.338,18.368,63.41,30.4,63.41h3.175c16.635,0,30.116-13.484,30.116-30.117v-3.176   C63.691,18.084,56.619,7.729,46.419,2.906z"
   id="path3045" />
	<g
   id="g3047">
		<path
   fill="#FFFFFF"
   d="M26.135,46.805l-7.125-28.329v30.695c0,1.698-0.377,2.974-1.138,3.822    c-0.757,0.849-1.768,1.271-3.018,1.271c-1.212,0-2.206-0.419-2.973-1.256c-0.771-0.841-1.152-2.116-1.152-3.838V13.985    c0-1.944,0.505-3.251,1.516-3.932c1.009-0.677,2.376-1.013,4.098-1.013h2.789c1.678,0,2.896,0.149,3.653,0.454    c0.759,0.305,1.32,0.849,1.686,1.639c0.362,0.787,0.776,2.073,1.244,3.853l6.458,24.355l6.46-24.355    c0.466-1.78,0.88-3.066,1.244-3.853c0.363-0.79,0.927-1.334,1.684-1.639c0.759-0.305,1.978-0.454,3.656-0.454h2.789    c1.717,0,3.086,0.336,4.098,1.013c1.009,0.681,1.516,1.987,1.516,3.932v35.186c0,1.698-0.378,2.974-1.137,3.822    c-0.757,0.849-1.775,1.271-3.051,1.271c-1.191,0-2.173-0.423-2.939-1.271c-0.77-0.849-1.152-2.124-1.152-3.822V18.476    l-7.129,28.329c-0.466,1.839-0.846,3.192-1.139,4.049c-0.294,0.86-0.833,1.646-1.621,2.351c-0.789,0.708-1.886,1.061-3.278,1.061    c-1.051,0-1.94-0.228-2.668-0.681c-0.729-0.454-1.297-1.037-1.7-1.745c-0.407-0.704-0.724-1.49-0.955-2.351    C26.616,48.628,26.381,47.735,26.135,46.805z"
   id="path3049" />
	</g>
</g>
</svg>