<?xml version="1.0" encoding="UTF-8" standalone="no"?>
<!-- Generator: Adobe Illustrator 16.0.0, SVG Export Plug-In . SVG Version: 6.00 Build 0)  -->

<svg
   xmlns:dc="http://purl.org/dc/elements/1.1/"
   xmlns:cc="http://creativecommons.org/ns#"
   xmlns:rdf="http://www.w3.org/1999/02/22-rdf-syntax-ns#"
   xmlns:svg="http://www.w3.org/2000/svg"
   xmlns="http://www.w3.org/2000/svg"
   xmlns:sodipodi="http://sodipodi.sourceforge.net/DTD/sodipodi-0.dtd"
   xmlns:inkscape="http://www.inkscape.org/namespaces/inkscape"
   version="1.1"
   id="Layer_1"
   x="0px"
   y="0px"
   width="64px"
   height="64px"
   viewBox="0 0 64 64"
   enable-background="new 0 0 64 64"
   xml:space="preserve"
   inkscape:version="0.48.5 r10040"
   sodipodi:docname="2651.svg"
   inkscape:export-filename="D:\TESTINGEMOJI\SVGTEST\2651.png"
   inkscape:export-xdpi="90"
   inkscape:export-ydpi="90"><metadata
   id="metadata4295"><rdf:RDF><cc:Work
       rdf:about=""><dc:format>image/svg+xml</dc:format><dc:type
         rdf:resource="http://purl.org/dc/dcmitype/StillImage" /><dc:title></dc:title></cc:Work></rdf:RDF></metadata><defs
   id="defs4293" /><sodipodi:namedview
   pagecolor="#ffffff"
   bordercolor="#666666"
   borderopacity="1"
   objecttolerance="10"
   gridtolerance="10"
   guidetolerance="10"
   inkscape:pageopacity="0"
   inkscape:pageshadow="2"
   inkscape:window-width="640"
   inkscape:window-height="480"
   id="namedview4291"
   showgrid="false"
   inkscape:zoom="3.6875"
   inkscape:cx="32"
   inkscape:cy="32"
   inkscape:window-x="649"
   inkscape:window-y="219"
   inkscape:window-maximized="0"
   inkscape:current-layer="Layer_1" />
<g
   id="g4283">
	<path
   fill="#F6921E"
   d="M64.221,57.252c0,3.823-3.097,6.914-6.914,6.914H6.967c-3.818,0-6.917-3.091-6.917-6.914V6.915   C0.051,3.091,3.149,0,6.967,0h50.339c3.817,0,6.914,3.091,6.914,6.915V57.252z"
   id="path4285" />
	<path
   fill="#DC7F27"
   d="M0.051,48.688v8.389c0,3.824,3.097,6.918,6.915,6.918h50.339c3.821,0,6.916-3.094,6.916-6.918V6.739   C53.264,46.543,13.872,49.065,0.051,48.688z"
   id="path4287" />
	<path
   fill="#FFFFFF"
   d="M59.957,35.836c-0.66-1.961-1.812-3.648-3.422-5.015c-1.803-1.527-3.928-2.505-6.309-2.899   c-1.895-0.319-3.683-0.183-5.301,0.391c-1.924,0.684-3.587,1.758-4.967,3.205c-0.234-1.269-0.439-2.521-0.538-3.761l-0.081-0.989   c-0.057-0.656-0.112-1.34-0.157-2l-0.018-0.304c-0.119-1.81-0.237-3.68-0.326-5.517c-0.108-2.318-0.26-4.271-0.65-6.256   c-0.26-1.345-0.699-3.097-1.803-4.735c-0.724-1.072-1.577-1.823-2.618-2.296c-1.222-0.554-2.355-0.664-3.489-0.329   c-0.684,0.199-1.48,0.471-2.213,0.974c-0.637,0.432-1.187,0.85-1.683,1.279c-1.914,1.671-3.412,3.836-4.585,6.611   c-0.369,0.879-0.704,1.801-1.013,2.799c-0.569-2.167-1.263-3.952-2.158-5.588c-0.694-1.258-1.447-2.285-2.304-3.138   c-1.75-1.732-3.771-2.612-6.108-2.612h-0.006H9.873c-0.371,0-0.733,0.006-1.029,0.036c-0.855,0-1.677,0.27-2.397,0.798   C5.424,7.255,4.834,8.426,4.834,9.7c0,2.06,1.561,3.761,3.603,3.981l0.077,0.091l0.469-0.028c0.217-0.016,0.434-0.027,0.698-0.033   c0.691,0,1.279,0.26,1.845,0.816c0.406,0.396,0.761,0.877,1.086,1.476c1.297,2.371,2.123,4.837,2.454,7.329   c0.11,0.822,0.195,1.666,0.278,2.489l0.16,1.482c0.276,2.519,0.398,4.825,0.367,7.054l-0.006,0.485   c-0.006,0.682-0.016,1.376-0.01,1.969c-0.02,0.17-0.032,0.341-0.032,0.515c0,2.562,2.085,4.647,4.65,4.647   c2.56,0,4.646-2.085,4.646-4.647c0-0.195-0.012-0.383-0.033-0.596c-0.01-0.416-0.026-0.837-0.042-1.255   c-0.032-0.69-0.063-1.405-0.042-2.092c0.067-2.296,0.298-4.62,0.682-6.909c0.451-2.702,1.078-4.999,1.92-7.011   c0.654-1.579,1.474-3.01,2.44-4.258c0.134-0.173,0.274-0.339,0.422-0.495c0.515,1.729,0.828,3.378,0.956,5.028   c0.043,0.568,0.079,1.139,0.112,1.713l0.012,0.213c0.038,0.599,0.075,1.196,0.118,1.788c0.065,0.895,0.154,1.796,0.237,2.566   c0.126,1.202,0.238,2.202,0.353,3.14l0.097,0.771c0.126,1.078,0.262,2.192,0.441,3.292c0.108,0.672,0.244,1.348,0.408,2.17   c0.128,0.625,0.26,1.268,0.366,1.902c0.327,1.947,0.648,4.21,0.313,6.405c-0.277,1.821-0.854,3.337-1.754,4.634   c-0.704,1.018-1.656,1.741-2.825,2.146c-0.654,0.229-1.281,0.375-2.014,0.462c-1.961,0.252-3.441,1.934-3.441,3.912   c0,2.17,1.76,3.937,3.926,3.946l0.187,0.225l0.599-0.3c0.148-0.031,0.304-0.055,0.473-0.084c0.221-0.036,0.452-0.075,0.682-0.127   c3.773-0.823,6.663-2.925,8.592-6.242c0.682-1.169,1.226-2.435,1.659-3.869c0.203-0.672,0.379-1.364,0.526-2.067   c0.085,0.073,0.169,0.146,0.258,0.217c1.161,0.922,2.506,1.691,3.998,2.284c1.487,0.596,3.014,0.899,4.533,0.899   c1.736,0,3.479-0.395,5.176-1.175C59.693,46.158,61.391,40.086,59.957,35.836z M52.501,40.586   c-0.519,0.852-1.279,1.399-2.391,1.725c-0.33,0.095-0.688,0.143-1.189,0.215l-0.314,0.05c-1.36-0.085-2.531-0.522-3.576-1.339   c-0.691-0.542-1.092-1.141-1.266-1.888c-0.051-0.223-0.047-0.304-0.047-0.304c0.116-0.905,0.418-1.591,0.956-2.166   c1.098-1.181,2.261-1.73,3.654-1.73c0.132,0,0.273,0.006,0.406,0.016c1.109,0.08,2.093,0.424,2.927,1.011   C53.477,37.466,53.248,39.356,52.501,40.586z"
   id="path4289" />
</g>
</svg>