<svg xmlns="http://www.w3.org/2000/svg" height="52" width="52" viewBox="0 0 520 520" fill="#fff"><path d="M151 20a17 17 0 0 1 17 16v12a17 17 0 0 1-16 18h-52a34 34 0 0 0-34 32v322a34 34 0 0 0 32 34h322a34 34 0 0 0 34-32v-53a17 17 0 0 1 16-17h13a17 17 0 0 1 17 16v64a68 68 0 0 1-68 68H88a68 68 0 0 1-68-68V88a68 68 0 0 1 68-68h63zm230 190a22 22 0 1 0 23 22 22 22 0 0 0-23-22zm-106-82a22 22 0 1 0 22 22 22 22 0 0 0-22-22zm216 40.7-18.7-22.4a39.4 39.4 0 0 1-9.3-23.1l-2.2-28.6a36.6 36.6 0 0 0-33.5-34.1l-24.9-2a53 53 0 0 1-30-12.8l-18.9-16.6a36.8 36.8 0 0 0-47.9-.5L285 46a47.2 47.2 0 0 1-27 11l-26.7 1.8a36.9 36.9 0 0 0-34.2 33.6l-1.9 24.4a52.8 52.8 0 0 1-12.9 30L166 165.9a36.7 36.7 0 0 0 0 47.8l17.7 21.4a44.2 44.2 0 0 1 10 25.4l2 27.5a36.8 36.8 0 0 0 33.5 34.2l25 2.2a51.7 51.7 0 0 1 30 12.7l19 16.4a37 37 0 0 0 47.9 0l21.8-18.2a40.8 40.8 0 0 1 24.3-10l28.5-2.1A36.8 36.8 0 0 0 460 290l2-23.1a59.3 59.3 0 0 1 14.3-33.2l15.2-17.3a36.6 36.6 0 0 0-.5-47.7zM233.8 150a41.5 41.5 0 1 1 41.5 41.4 41.3 41.3 0 0 1-41.7-41.4zm60 122.2a3.9 3.9 0 0 1-2.5 1.7h-12.4a3.3 3.3 0 0 1-2.6-1.6 2.9 2.9 0 0 1 0-3.1L362.8 110a4 4 0 0 1 2.6-1.6h12.9a3.1 3.1 0 0 1 1.5 4.2zm129.4-40a41.5 41.5 0 1 1-41.7-41.2 41.3 41.3 0 0 1 41.2 41.5z"/></svg>