<svg xmlns="http://www.w3.org/2000/svg" viewBox="6.5 .4 187 187"><linearGradient id="a" x1="45.3%" x2="94.5%" y1="23.1%" y2="68.2%"><stop offset="0" stop-color="#5180d5"/><stop offset="1" stop-color="#477fdf"/></linearGradient><linearGradient id="b" x2="28.3%" y1="62.1%" y2="62.1%"><stop offset="0" stop-color="#fff"/><stop offset=".97" stop-color="#f4f4f4"/></linearGradient><linearGradient id="c" x2="28.3%" y1="62.1%" y2="62.1%"><stop offset="0" stop-color="#f3f3f3"/><stop offset="1" stop-color="#ededed"/></linearGradient><circle cx="100" cy="100" r="67" fill="#558dee"/><path fill="url(#a)" d="M81.7 164.5a55.3 55.3 0 01-.6-4l2-107.7 35.6-17.2 2.1.7 45.7 71.7a67 67 0 01-66.5 59 67 67 0 01-18.3-2.5z"/><path fill="#434343" d="M98 16v156H8l17-24h51V31.5L98 16zm4 0v156h90l-17-24h-51V31.5L102 16z"/><g fill="#b0b0b0"><path d="M32 138h44v10H25l7-10zm136 0l7 10h-51v-10h44z"/><path fill="#efefef" d="M85.4 69c-6.6 25-11 38.4-13.2 40-3.2 2.3-30.8 23.5-30.8 23.5L40 145l46 8 6-19h8V69H85.4zm29.2 0c6.6 25 11 38.4 13.2 40 3.2 2.3 30.8 23.5 30.8 23.5L160 145l-46 8-6-19h-8V69h14.6z"/><path fill="#e2e2e2" d="M88.5 145l-2.5 8-46-8h48.5zm23 0l2.5 8 46-8h-48.5z"/><path fill="#fff" d="M82.7 57.6C86.7 30.8 97 26 100 26v117H78.3c-1-39.5.4-58.6 4.4-85.4z"/><path fill="#f3f3f3" d="M117.3 57.6C113.3 30.8 103 26 100 26v117h21.7c1-39.5-.4-58.6-4.4-85.4z"/><path fill="#d8d8d8" stroke="#979797" d="M98.5 128.5h3v35h-3z"/><path d="M80 143h4v14h-4zm24 0h4v14h-4z"/><path fill="#bababa" d="M84 143h4v14h-4zm24 0h4v14h-4z"/><path d="M88 143h4v14h-4zm24 0h4v14h-4z"/></g><path fill="#9f9f9f" d="M92 143h4v14h-4zm24 0h4v14h-4z"/><path d="M88 55a12 12 0 0124 0c0-4.4-5.4-8-12-8s-12 3.6-12 8z"/><path fill="url(#b)" d="M100 143H88V55c0-4.4 5.4-8 12-8v96z"/><path fill="url(#c)" d="M112 143h-12V55c0-4.4 5.4-8 12-8v96z" transform="matrix(-1 0 0 1 212 0)"/><path fill="#aaa" d="M100 118c1.3 0 2 7.3 2 22v23h-4v-23c0-14.7.7-22 2-22z"/></svg>