<svg xmlns="http://www.w3.org/2000/svg" fill="#fff" viewBox="0 0 1280 1280"><linearGradient id="a" x1="640" x2="630" y1="796" y2="6" gradientUnits="userSpaceOnUse"><stop offset="0" stop-color="#38aab0"/><stop offset="1" stop-color="#0f5f68"/></linearGradient><path fill="url(#a)" d="M0-4h1280v1280H0z"/><path d="M367 294l41 46v544h-41z"/><path d="M373 303l41 46v535h-41V304z"/><path d="M256 895c76 5 106-20 120-72l41 9c14 28 24 57 103 63v20H254l3-20zm1-657l55 7 20 11 467 526 144 14-60-88-436-483-190-2z"/><path d="M257 238l55 7 20 11 467 526 144 14-60-88-436-483-190-2z"/><path d="M901 818h42V248h-43z"/><path d="M785 237c75-3 103 30 120 71l40-8c15-28 25-57 103-64v-19H782z"/><path fill="#000" d="M644 774c-244 0-468 41-644 108v398h1280V879a1855 1855 0 00-636-104z"/><path d="M251 841c73 2 102-30 117-72l41 8c14 28 24 57 101 64v20H248z"/><path d="M643 774c-244 0-467 40-643 108v6h9a1848 1848 0 01634-104c222 12 450 38 637 105v-10a1856 1856 0 00-637-105z"/></svg>