<svg id="a" xmlns="http://www.w3.org/2000/svg" width="100" height="100" viewBox="0 0 100 100"><path d="M78.8,47.19l-3.69-1.7c-.5-.3-1.2-.3-1.7,0l-10.96,5.29c1.8-.6,3.69-.9,5.59-.9,3.09,0,5.99.8,8.57,2.19l2.1-1c1.7-.9,1.7-3.09.1-3.89h-.01Z" fill="#fff" stroke-width="0"/><path d="M21.28,36.92l26.72,12.66c1.2.6,2.69.6,3.89,0l26.82-12.66c1.6-.8,1.6-2.89,0-3.69l-26.82-12.66c-1.2-.6-2.69-.6-3.89,0l-26.72,12.76c-1.7.7-1.7,2.89,0,3.59Z" fill="#fff" stroke-width="0"/><path d="M21.28,50.87l26.72,12.76c.7.4,1.5.5,2.29.4,1-4.79,3.89-8.77,7.87-11.36l-6.19,2.99c-1.2.6-2.69.6-3.89,0l-21.43-10.17c-.5-.3-1.2-.3-1.7,0l-3.69,1.7c-1.7.8-1.7,2.89,0,3.69h.01Z" fill="#fff" stroke-width="0"/><path d="M49.99,70.11c-.7,0-1.3-.2-1.9-.4l-21.53-10.27c-.5-.3-1.2-.3-1.7,0l-3.59,1.7c-1.6.8-1.6,2.89,0,3.69l26.72,12.76c1.2.6,2.69.6,3.89,0l.6-.3c-1.3-2.19-2.19-4.59-2.49-7.17Z" fill="#fff" stroke-width="0"/><path d="M68.13,56.16c-6.47,0-11.86,5.29-11.86,11.86s5.29,11.86,11.86,11.86,11.86-5.29,11.86-11.86-5.39-11.86-11.86-11.86ZM77.51,66.82h-3.09c-.1-2.79-.8-5.29-1.7-7.07,2.59,1.5,4.39,4.09,4.79,7.07ZM66.94,59.05v7.77h-2.69c.2-3.69,1.3-6.57,2.69-7.77ZM66.94,69.22v7.77c-1.3-1.1-2.49-4.09-2.69-7.77h2.69ZM69.32,76.99v-7.77h2.69c-.2,3.69-1.4,6.67-2.69,7.77ZM69.32,66.82v-7.77c1.3,1.1,2.49,4.09,2.69,7.77h-2.69ZM63.55,59.75c-1,1.9-1.5,4.29-1.7,7.07h-3.09c.3-2.99,2.19-5.59,4.79-7.07ZM58.76,69.22h3.09c.1,2.79.8,5.29,1.7,7.07-2.59-1.4-4.49-3.99-4.79-7.07ZM72.72,76.29c1-1.9,1.5-4.29,1.7-7.07h3.09c-.4,3.09-2.19,5.69-4.79,7.07Z" fill="#fff" stroke-width="0"/></svg>