<svg id="a" xmlns="http://www.w3.org/2000/svg" width="100" height="100" viewBox="0 0 100 100"><rect x="22.5" y="35" width="15" height="7.5" rx="1.8" ry="1.8" fill="#fff"/><rect x="42.4" y="72.5" width="15" height="7.5" rx="1.8" ry="1.8" fill="#fff"/><rect x="22.5" y="47.6" width="15" height="7.5" rx="1.8" ry="1.8" fill="#fff"/><rect x="22.5" y="72.5" width="15" height="7.5" rx="1.8" ry="1.8" fill="#fff"/><rect x="22.5" y="20" width="54.9" height="9.9" rx="1.8" ry="1.8" fill="#fff"/><rect x="22.5" y="59.9" width="15" height="7.5" rx="1.8" ry="1.8" fill="#fff"/><rect x="42.4" y="59.9" width="15" height="7.5" rx="1.8" ry="1.8" fill="#fff"/><rect x="42.4" y="47.6" width="15" height="7.5" rx="1.8" ry="1.8" fill="#fff"/><rect x="62.5" y="47.6" width="15" height="7.5" rx="1.8" ry="1.8" fill="#fff"/><rect x="62.5" y="35" width="15" height="7.5" rx="1.8" ry="1.8" fill="#fff"/><rect x="62.5" y="59.9" width="15" height="7.5" rx="1.8" ry="1.8" fill="#fff"/><rect x="62.5" y="72.5" width="15" height="7.5" rx="1.8" ry="1.8" fill="#fff"/><rect x="42.4" y="35" width="15" height="7.5" rx="1.8" ry="1.8" fill="#fff"/></svg>