<?xml version="1.0" encoding="UTF-8"?><svg xmlns="http://www.w3.org/2000/svg" width="20" height="20" viewBox="0 0 20 20"><title>
		cut
	</title><path d="M10 0c1.66 0 3 1.34 3 3v3l2.4-1.5a3.003 3.003 0 0 1 3 5.2 3.003 3.003 0 0 1-4.452-2.051l-.952.55v6.8h-2v-5.65l-4.01 2.32-.988-1.73 5-2.94v-1.17a2.996 2.996 0 0 1-4-2.829c0-1.66 1.34-3 3-3zM9 3a1 1 0 0 0 2 0 1 1 0 0 0-2 0zm7 4a1 1 0 0 0 2 0 1 1 0 0 0-2 0zM2.97 19h2v-2h-2V9h3V7h-3c-1.1 0-2 .895-2 2v8c0 1.1.895 2 2 2zm6 0h-2v-2h2zm4-2c0 1.1-.895 2-2 2v-2z"/></svg>
