<svg xmlns="http://www.w3.org/2000/svg" xmlns:xlink="http://www.w3.org/1999/xlink" viewBox="1 1 48 46"><defs><linearGradient id="a"><stop offset="0" stop-color="#fff" stop-opacity=".6"/><stop offset="1" stop-color="#4e9a06" stop-opacity="0"/></linearGradient><linearGradient id="b"><stop offset="0" stop-color="#41a100"/><stop offset="1" stop-color="#fff" stop-opacity="0"/></linearGradient><linearGradient id="d" x1="13" x2="40" y1="11" y2="19" xlink:href="#a" gradientUnits="userSpaceOnUse" gradientTransform="matrix(1.163 .33 -.33 1.163 325.63 407.16)"/><linearGradient id="c" x1="33" x2="4" y1="33" y2="5" xlink:href="#b" gradientUnits="userSpaceOnUse" gradientTransform="matrix(1.163 .33 -.33 1.163 327.75 406.926)"/></defs><g fill="#c5f199"><path d="M40.84 1.78c-5.5 3.06-27-.1-36.14 22.85-1.3 6.06-.62 14.4 5.24 14.8 1.2.06 2.3.9 2.87 1.82 3.76 6.1 9.15 5.57 11.38 2.65.43-.56 1.25-.4 1.83.05 6.76 5.2 11.28-3.02 13.6-9.46.9-2.83 5.52-24.9 3.7-27.26-.54-.7-2.9 1.33-4.97 3.5-16.52 17.33-27.47 4.38 1.9-8.54l.44-.53.3.12"/><path fill-rule="evenodd" d="M18.2 43.52l3.94-13.96m-13.42 7.5l2.3-8.13M29.65 43l2.3-8.15"/></g><g fill="#73d216"><path d="M41.55 10.84c-7 8.17-20.73 14.5-21.9 7.5-.57-3.45 3.5-8.16 10.52-12.83-8.08 2.3-22.72 9.43-23.9 20.7-1.68 4.34-.56 13.6 4.7 12.17 1.4-.38 3.1 1.23 3.48 2.66.8 3.04 6.58 3.86 8.27 2.53 1.24-.98 3.3-1.16 4.68-.4 6 3.32 8.9-5.18 9.84-8.58 5.43-11.97 3.14-19.06 4.3-23.73z"/><path fill-rule="evenodd" d="M29.65 43l2.3-8.15M18.2 43.52l3.94-13.96m-13.42 7.5l2.3-8.13"/></g><path fill="url(#c)" fill-rule="evenodd" d="M329.5 447.6c2.72-5.28 7.74-5.34 16.52-2.47 5.84 0 13.68-5.52 18.1-10.47 1 19.2-7.55 38.55-15.16 31.02-1.02-1-1.8.1-3.3.93-1.43.82-2.12.94-3.68.54-5.12.33-6.1-7.93-8.38-6.26-4.3 3.15-5.86-5.8-4.08-13.27z" transform="translate(-322.77 -423.39)"/><path fill="none" stroke="#c5f199" stroke-width="3.63" d="M11.77 38.9c-.33-2.88-.7-8.3 1.82-11.43m10.9 3.18c-2.9 7.57-1 8.85.4 12.96l-.2-.62" stroke-linecap="round"/><g fill="none" stroke="#204c00"><path d="M42.4 1.45c-5.6 1.04-31.84 4-37.7 23.5-1.7 6.6-.74 15.56 6.86 15.23.54-.02.6.16.78.6 3.13 7.4 10.82 6.07 12.56 3.17.24-.42-.38-.26 0 0 7.83 5.36 12.1-2.06 14.57-8.68 3.02-5.74 4.87-29.65 3.26-28.1-27.5 26.33-27.44 3.13-.32-5.72" stroke-linejoin="round"/><path d="M12.34 40.31c-1.97-8.98.34-10.56 1.24-12.97m11.22 16.4c-2.55-5.43-2.13-9.9-.3-13.24" stroke-linecap="round" stroke-linejoin="bevel"/></g><path fill="url(#d)" fill-rule="evenodd" d="M351.92 429.6c.2-2.3-22.6 7.32-22.32 18.16 3.97-5.15 7.83-5.58 14.15-3 4.62 4.3-9.18-3.55 8.17-15.17z" transform="translate(-322.77 -423.39)"/></svg>
