<svg color="var(--zonos-elements-blue-800)" fill="none" height="24" viewBox="0 0 24 24" width="24" xmlns="https://www.w3.org/2000/svg"><path clip-rule="evenodd" d="M2 12C2 6.477 6.477 2 12 2s10 4.477 10 10-4.477 10-10 10S2 17.523 2 12Z" data-is-secondary-color="true" fill="var(--zonos-elements-blue-100)" fill-rule="evenodd"></path><path clip-rule="evenodd" d="M15.707 9.293a1 1 0 0 1 0 1.414l-3.646 3.647a1.5 1.5 0 0 1-2.122 0l-1.646-1.647a1 1 0 1 1 1.414-1.414L11 12.586l3.293-3.293a1 1 0 0 1 1.414 0Z" fill="currentColor" fill-rule="evenodd"></path></svg>