<svg xmlns="http://www.w3.org/2000/svg" xmlns:xlink="http://www.w3.org/1999/xlink" viewBox="0 -15 535 535"><defs><linearGradient id="b"><stop offset="0" stop-color="#fff"/><stop offset="1" stop-color="#00140f"/></linearGradient><linearGradient id="a"><stop offset="0" stop-color="#fefefe"/><stop offset="1" stop-color="#016792"/></linearGradient><radialGradient id="d" cx="347.918" cy="287.936" r="160.156" fx="347.918" fy="287.936" xlink:href="#a" gradientUnits="userSpaceOnUse" gradientTransform="matrix(.345 1.048 -1.085 .34 540.447 -172.144)"/><radialGradient id="e" cx="-304.585" cy="117.192" r="210.5" fx="-304.585" fy="117.192" xlink:href="#b" gradientUnits="userSpaceOnUse" gradientTransform="matrix(.48 .545 -.6 .528 364.948 236.353)"/><filter id="f" color-interpolation-filters="sRGB"><feGaussianBlur stdDeviation="6.837"/></filter><filter id="c" color-interpolation-filters="sRGB"><feGaussianBlur stdDeviation="11.164"/></filter></defs><path fill-opacity=".392" d="M60.756 321.48c1.625-18.533 1.183-34.063 12.89-67.25 5.685-24.12 9.02-48.49 37.68-70.135 43.055-33.7 83.47-75.068 123.948-116.25 12.894-15.636 25.567-31.45 69.41-22.097 20.946.66 45.166 6.076 71.394 14.41 28.116.668 43.287 23.913 58.503 47.077 12.68 16.333 15.34 32.665 14.88 48.998-2.02 21.058-8.35 40.445 1.99 66.29 17.42 17.615 21.03 35.228 22.81 52.842l-20.83 19.215c3.99 23.715 6.46 46.327 0 62.448-16.2 82.913-79.44 125.137-169.56 144.11-74.38 1.658-131.86-30.805-174.51-93.19-13.54-37.786-11.72-49.98-16.85-73.017-25.87-15.07-22.26-9.73-31.73-13.45z" filter="url(#c)"/><path fill="url(#d)" stroke="#1c3666" stroke-opacity=".871" stroke-width="9.421" d="M570.297 334.772a155.446 148.515 0 1 1-310.89 0 155.446 148.515 0 1 1 310.89 0z" transform="matrix(1.183 0 0 1.215 -228.69 -102.34)" stroke-linecap="round" stroke-linejoin="round"/><path fill="#103070" d="M126.9 416.65c3.363 4.25 10.082-.448 16.81-5.173 8.082.936 15.75 2.7 21.553 8.19 5.75 3.454 11.573 7.053 15.086 6.034 3.09-1.75 6.05-3.58 6.89-6.46 1.5-3.52.64-7.83-1.3-12.5.93-3.09 1.04-6.45 8.62-7.33 1.54-1.19 5.92-5.56 3.45-9.05l-15.52-25c-5.44-10.89 1.75-13.75 8.62-16.81 6.18-3.57 13.84-6.01 5.6-20.69-14.69-15.15-26.58-31-27.59-49.57-2.02.86-15.15-3.83-23.28-6.03-8.91-2.02-17.98-7.54-30.17 9.05-1.55 9.99-3.21 12.95-8.62 25.43-3 8.76-3.03 16.03-3.88 23.71.54-1.67-.51 7.44-1.05 28.44-.13 4.84 1.14 11.37 1.04 16.83 2.08 9.53 8.53 22.1 15.51 29.31l.86 5.18c2.02 2.86 2.19 8.8 7.33 6.47zm265.332-54.336l35.743-39.76c7.49-10.118 1.265-12.852-4.82-15.662l-18.473-6.024c-2.617-7.577-7.253-12.462-17.67-9.64-5.907-9.126-2.505-20.114 0-30.923 3.154-3.898 6.23-8.054 6.826-20.482-5.572-8.872-8.002-18.373-9.237-28.112l-.4-23.29c-8.78-2.53-14.98-1.36-17.67 4.82-5.08 9.78-7.58 21.27-15.26 29.32l-26.91-5.22c.42-39.54-3.08-70-21.68-65.46-2.61 8.74-40.02-4.67-51.7 2.64-14.16 15.43-13.71 26.14-16.57 37.53-5.76 6.45-4.89 13.57-2.01 20.89 9.65 13.7 14.87 21.86 14.06 22.49-.5 9.12-1.58 19.57.4 22.89.31 6.63 3.07 10.55 12.05 7.63 15.14-1.55 36.95-6.81 44.98-4.41 2.59 17 15.86 33.18 7.63 51.01l-.4 8.03c14.68 16.59 24.39 35.38 21.99 42.64-4.33 6.68-3.98 14.54-5.12 22.02-2.83 10.33-6.31 14.69-10.87 18.3-2.75 4.88-4.24 12.37-3.51 17.25 3.57.94 6.54.39 8.36-3.01 16.44-12.02 28.68-18.78 38.15-22.09l32.13-33.33z"/><path fill="#fff" fill-opacity=".176" d="M433.4 246.624c-9.472 52.844-59.403 103.627-152.02 141.696-55.827 22.947-175.282 34.42-200.92-55.42.06-101.87 39.08-180.31 167.646-204.903 88.4-1.3 149.177 39.758 185.294 118.627z"/><path fill="none" stroke="#fff" stroke-opacity=".176" stroke-width="6.965" d="M-133.962 226.623a100 141.98 0 1 1-200 0 100 141.98 0 1 1 200 0z" transform="matrix(1.75 0 0 1.2 671.296 32.575)"/><path fill-opacity=".216" d="M339.205 28.25l54.75 11.18c19.968 13.413 25.106 31.018 38.972 51.315 7.636 12.637 2.61 25.148 3.27 48.973-8.988 34.68 5.52 52.795 12.665 67.358 7.71 18.862 9.3 24.866 6.16 42.904-26.234 23.098-17.312 20.355-28.647 28.747-11.327 5.68-17.655-3.766-28.982-18.635 8.62-9.344 8.786-3.458 11.44-13.644-20.757-17.397-32.74-47.265-50.21-66.284-.693 16.3 2.062 39.5-2.82 57.454-7.294 23.705-13.856 37.9-10.18 51.61-.802 15.31-16.386 18-26.94 26.894-14.552 2.34-21.663-6.695-26.076-12.692l-15.935-75.515c-21.814-35.973-12.913-21.43-30.693-23.157-14.44 9.884-27.49 16.858-50.64 25.02-14.38 8.983-23.46 22.144-25.77 33.68-36.88 20.187-37.79 37.73-60.15 57.917-10.63-.584-40.39-6.782-44.91-10.808-7.93-3.182-6.09-9.253-5.67-14.908l16.52-52.41c2.34-11.42 3.14-22.84 7.08-34.25 8.03-23.92 26.11-39.45 45.31-54.04l49.08-43.8c25.2-25.58 58.47-67.53 80.42-80.28 18.56-13.92 48.12-6.38 81.94-2.65z"/><path fill="#99a2b5" d="M72.5 179.25c.034-7.718-.53-15.386 7.25-23.75l12.75-15 7.75 7.5-27.75 31.25z"/><path fill="none" stroke="#1c3666" stroke-opacity=".871" stroke-width="9.421" d="M570.297 334.772a155.446 148.515 0 1 1-310.89 0 155.446 148.515 0 1 1 310.89 0z" transform="matrix(1.183 0 0 1.215 -227.926 -101.838)" stroke-linecap="round" stroke-linejoin="round"/><path fill="#fff" stroke="#737f98" stroke-width="10" d="M322.164 14.563l54.717 11.32c19.96 13.58 37.09 30.393 50.95 50.944 7.63 12.795 11.61 31.537 12.27 55.66-8.98 35.115-1.48 49.405 5.66 64.15 7.71 19.1 17.29 38.34 14.15 56.605-26.21 23.387-28.29 22.635-39.62 31.132-11.32 5.75-22.64-3.813-33.96-18.868 8.62-9.46 21.78-19.702 24.43-30.015-20.74-17.61-40.71-37.73-58.18-56.98-.69 16.51-1.93 33.92-6.81 52.1-7.29 24-2.73 37.07.95 50.95-.8 15.51-14.92 22.13-25.47 31.13-14.54 2.37-18.23-4.3-22.64-10.37l-17.93-89.62c-21.8-36.42-37.89-23.72-55.66-25.47-14.42 10.01-33.46 19.1-56.6 27.36-14.36 9.1-18.44 20.4-20.75 32.08-36.86 20.44-54.75 40.23-77.1 60.67-10.62-.59-18.37-2.81-22.89-6.89-7.92-3.22-6.09-9.37-5.66-15.09l16.51-53.06c2.34-11.56 3.14-23.12 7.07-34.68 8.03-24.22 26.1-39.94 45.29-54.72l49.06-44.34c25.18-25.9 58.44-68.37 80.37-81.28 18.55-14.09 48.1-6.46 81.89-2.68z" stroke-linecap="round" stroke-linejoin="round"/><path fill="#c2d4ee" d="M197 64c42.79-25.97 121.254-62.665 198 25 15.357 27.782 14.15 52.803 14 78 10.04 21.957.433 11.166 32 69 3.217 9.333-14.382 18.667-23 28-.043 9.376 2.082 16.585 10 18l33-29v-20l-26-60 3-40c7.378-11.173-1.89-32.333-7-51-8.295-13.873-17.395-28.08-57-55-19.574-8.3-63.05-13.183-100-19-28.63.888-53.69 23.2-77 56zm134.462 239c-7.538-30.525-5.113-65.578-1.538-101.154 1.72-2.638-1.386-10.104-5.77-18.846-49.198-61.578-43.795-59.26-46.922-66.923 26.033 24.763 58.557 56.608 52.308 46.154l5.385-60.38 23.462 56.93c-6.032 17.68-9.48 42.58-10.385 74.62-8.814 21.42-5.97 30.13-3.846 39.62l4.23 19.23-16.92 10.77z"/><path fill="url(#e)" d="M271 131c9.715 33.635 23.564 57.39 36 62 .47 42.686 2.202 78.96 8 103 4.15 8.062 9.19 12.577 16 10l13-21 7-110 5-75c8 10.667 13.103 1.05 24 32 7.14 74.72 14.495 57.934 24 83 12.594 9.333 15.68 18.667 15 28-12.908 15.348-17.686 24.598-20 32l16 6 45-29-4-36-19-44 2-47-4-40-54-62L252 8l-93 86-49 47-46 53-25 96 31 16 61-54 16-7 17-35c17.977-3.93 37.357-12.07 58-24 15.696-1.883 28.822-14.045 52 14-4.9-15.2-3.087-43.827-3-69z" opacity=".191" filter="url(#f)"/><path fill="#c2d5e0" d="M124.75 196.25s11.25-8 17-17.25l-6-12-23.5 23.25c1.32 5.456 2.123 11.54 12.5 6z"/><path fill="#99a2b5" d="M107 189.75c-1.146-2.25.998-4.5 4.5-6.75l7.75-11.25c2.664-2.348.754-2.3 16.5-11.5 3.694 2.175 7.67 1.81 10.75 9.5.04 6.68.6 13.19-1.25 20.5-3.388 2.715-6.438 3.576-8.5-1-.35-2.252-.52-4.95 1.75-13.75.678-2.115-.743-3.53-2-5-4.16 1.144-6.83 3.28-9 5.75-4.503 6.99-9.18 13.457-15 16.5-4.65 1.348-4.655-1.177-5.5-3z"/><path fill="#858cb1" d="M84.987 236.147l14.4 7.91c3.535.085 7.388.49 8.317-2.028 2.283-1.4 3.428-3.36 4.665-5.28-1.8-2.57-7.27-.85-12.17.2l-11.57-5.28-3.65 4.46z"/><path fill="#7c84ab" d="M63.77 225.6l7.55 2.027 4.946.406-.26 4.665-15.358.203 3.124-7.3z"/><path fill="#616472" d="M47.26 278.133l19.472 5.274c1.414 5.317-1.95 9.04-3.448 13.387 4.916.14 16.158-6.707 18.458-12.373 2.633-4.48 3.953-9.94 8.52-12.98 2.227.62 3.708 2.73 3.244 8.73-7.096 12.73-15.55 17.31-23.326 25.97L43 297.61l4.26-19.47z"/><path fill="none" stroke="#737f98" stroke-width="10" d="M324.164 12.44l54.717 11.32c19.96 13.58 37.09 30.392 50.95 50.943 7.63 12.795 11.61 31.537 12.27 55.66-8.98 35.115-1.48 49.405 5.66 64.15 7.71 19.1 17.29 38.34 14.15 56.605-26.21 23.387-28.29 22.635-39.62 31.132-11.32 5.75-22.64-3.813-33.96-18.868 8.62-9.46 21.78-19.702 24.43-30.015-20.74-17.614-40.71-37.732-58.18-56.988-.69 16.5-1.93 33.92-6.81 52.09-7.29 24-2.73 37.06.95 50.94-.8 15.5-14.92 22.12-25.47 31.13-14.54 2.37-18.23-4.31-22.64-10.38l-17.92-89.62c-21.8-36.43-37.89-23.73-55.66-25.47-14.42 10-33.46 19.09-56.6 27.35-14.36 9.09-18.44 20.39-20.75 32.07-36.86 20.44-54.75 40.22-77.1 60.66-10.62-.59-18.37-2.82-22.89-6.9-7.92-3.22-6.09-9.37-5.66-15.1l16.51-53.06c2.33-11.56 3.13-23.12 7.07-34.68 8.03-24.22 26.1-39.94 45.28-54.72l49.06-44.34c25.19-25.9 58.44-68.38 80.38-81.28C260.85 1 290.4 8.63 324.19 12.41z" stroke-linecap="round" stroke-linejoin="round"/><path fill="#fff" stroke="#737f98" stroke-width="10" d="M354.705 121.943c.535.59 2.056 2.223 1.943 3.222-.07.627-.507.344-.836.526-.077.05-.074.16-.112.24.005.72-.012 1.49.16 2.19.053.23.17.43.24.65.264.8.2.64.294 1.48.214.61.33 1.23.343 1.88.005.27-.043.53-.02.8.03.32.187.69.3.98.25.51-.037 1.05.023 1.57.02.19.283.84.35 1.02.376.58-.113 1.32.01 1.89.026.12.115.2.172.3.402.65.37 1.41.288 2.14-.015.13-.072.26-.05.39.013.09.097.15.146.23.565.91.255 2.03.215 3.03.16.72.43 1.43.5 2.17.07.69-.04 1.4-.09 2.08-.01.21.01.41-.02.61-.04.23-.13.45-.2.67-.06.23-.13.46-.18.69-.34 1.91.12-.27-.07 1.34-.02.23-.1.44-.15.66l-.14.69c-.02.25-.02.5-.07.75-.26 1.34-.14-.01-.35 1.26-.08.52-.05.89-.03 1.41-.2.57-.2 1.2-.38 1.77l-.21.44c-.15.4-.25.81-.39 1.21-.31.59-.12 1.03-.17 1.59-.03.4-.21.77-.28 1.17-.04.24-.05.48-.08.72 0 .27.02.54-.01.81-.02.22-.27 1.07-.32 1.31-.26 1.45.11-.18-.06 1.39-.02.23-.1.44-.16.66-.44 1.79.12-.6-.22 1.29l-.35 1.41c-.08.48-.04.77-.03 1.26.1 1.22.11 2.44.1 3.66h-.38c.01-1.22 0-2.43-.1-3.65-.01-.56-.05-.81.05-1.36l.34-1.36c.36-1.93-.19.39.24-1.34.05-.18.13-.37.15-.56.18-1.65-.19.07.08-1.48.08-.41.27-.8.31-1.21.03-.28.01-.56.01-.84.03-.25.05-.51.09-.77.06-.35.25-.68.28-1.04.02-.19-.04-.38-.04-.58.01-.47.1-.69.23-1.17.15-.41.26-.84.42-1.25l.18-.33c.17-.54.17-1.15.38-1.69-.01-.59-.05-.93.05-1.51.35-2.07-.03.76.35-1.2.05-.26.06-.53.08-.79l.15-.7c.05-.18.12-.37.14-.56.18-1.65-.27.51.08-1.43l.37-1.28c.04-.2.02-.41.03-.62.04-.65.15-1.33.09-1.98-.07-.76-.37-1.49-.5-2.24.04-.94.35-2-.18-2.85-.06-.14-.16-.28-.18-.44-.02-.12.04-.25.05-.37.08-.66.12-1.34-.25-1.93-.07-.16-.17-.32-.21-.49-.11-.56.34-1.17.02-1.72-.12-.33-.34-.84-.37-1.18-.05-.47.21-.95 0-1.41-.14-.38-.28-.71-.32-1.13-.03-.25.02-.5.02-.76-.01-.64-.14-1.25-.34-1.86-.08-.8-.02-.61-.27-1.39-.09-.25-.21-.48-.27-.73-.19-.8-.2-1.67-.08-2.47.13-.13.22-.3.37-.39.15-.09.5.12.51-.05.07-1.05-1.35-2.49-1.9-3.12l.33-.19zm-42.014 3.69c.46 1.088.25 2.49.95 3.493.27.38.32.215.65.5.11.087.18.204.27.306.08.193.19.378.25.578.06.204.07.42.12.627.18.767.48 1.635.93 2.284.11.16.28.26.42.38.55.47-.09-.16.31.72.04.08.15.1.22.15.1.17.24.33.31.51.44 1.25-.18.39.5 1.18.4.36.73.79.82 1.33.03.17-.04.36.01.52.05.13.18.19.27.29l.3.36c.35.55.69 1.11 1.14 1.59l.58.57c.33.37.6.79.9 1.19.41.62.76 1.28 1.28 1.81.11.11.26.17.35.3.17.26.24.59.39.86.33.71 1.14 1.01 1.53 1.69.73 1.28-.19.28.6 1.05l.3.5c.13.06.3.08.4.19.36.4.12.45.33.8l.19.21c.09.18.14.38.2.57.13.1.28.18.39.3.16.16.23.39.4.54.3.29.81.35 1.15.51.51.23.5.31.84.7.46.47.84 1.33 1.39 1.7.6.39.67-.16 1.08.65.14.64-.01.18.48.92.14.21.24.45.4.65.46.56 1.15.78 1.73 1.18.26.27.76.77.96 1.1.18.28.13.5.37.69.19.14.4.24.6.37.15.13.32.23.45.38.43.48.83 1.14 1.27 1.61.1.11.23.17.34.26l.4.45c.04.09.2.62.38.74l.41.16c.15.09.28.2.42.3.18.12.39.2.53.36.12.14.15.35.22.52.17.41-.06.86.23 1.22l.5.51c.97 1.27-.02.38 1.02 1.22.4.24.64.65 1 .93l.32.16c.36.29.83.8 1.11 1.15.7.46.69 1.37 1.12 2.03.09.13.23.22.35.34l.27.5c.49.19.81.67 1.02 1.14.08.16.07.36.16.51.08.14.23.22.34.34l.31.38c.4.29.95.63 1.15 1.11.05.1.3 1.38.32 1.43.07.22.19.42.28.64.86-.73 0 .74.28.81l-.03-.11c.1.15.22.28.3.44.22.39.28.64.42 1.06l.21.22c.09.15.13.31.2.46.12.25.47.88.57 1.07l-.34.18c-.33-.6-.58-1.27-1-1.8l-.17-.52c-.07-.18-.2-.33-.24-.52l.06-.19c-.08-.08-.23-.04-.33-.11-.24-.16.2-.9-.29-.82-.1-.24-.23-.47-.31-.72-.08-.25-.11-.52-.16-.78-.03-.16-.02-.34-.08-.5-.2-.47-.78-.8-1.15-1.09-.23-.29-.52-.54-.71-.86l-.11-.42c-.22-.5-.54-.9-1.03-1.16-.71-1.42.46.83-.62-.86-.41-.64-.38-1.5-1.06-1.94l-.71-.72-.29-.33-.41-.23c-.34-.27-.58-.67-.96-.9-1.21-1.01-.1.04-1.06-1.25-.17-.22-.42-.39-.58-.63-.27-.39-.11-.81-.23-1.23-.02-.1 0-.24-.07-.32-.57-.64-1.65-.64-1.81-1.61l-.35-.4c-.13-.11-.28-.2-.4-.33-.15-.15-.24-.34-.38-.5l-.43-.46-.4-.58c-.12-.13-.28-.23-.42-.35-.23-.15-.48-.26-.68-.44-.33-.29-.12-.28-.37-.69-.17-.27-.66-.78-.88-1.02-.63-.43-1.33-.68-1.83-1.29-.15-.19-.25-.42-.38-.63-.53-.83-.39-.4-.53-1.03.1-.23.09-.1-.31-.25-.22-.09-.48-.12-.68-.26-.56-.37-.94-1.24-1.4-1.71-.49-.62-.72-.51-1.44-.86-.82-.39-.38-.25-.91-.84-.15-.17-.33-.31-.5-.46-.29-.97.07.01-.39-.78a.978.978 0 0 1-.09-.29c-.03-.1.02-.23-.05-.3-1.18-1.28-.04.52-.79-.76-1.15-1.29.19.35-.61-1.07-.39-.7-1.25-1.01-1.57-1.75l-.19-.36c-.05-.13-.04-.29-.11-.4-.09-.14-.26-.22-.38-.34-.52-.54-.89-1.2-1.29-1.82-.29-.38-.54-.79-.86-1.15-.64-.72-1.31-1.27-1.74-2.18-.17-.2-.57-.65-.65-.89-.04-.12.03-.26.01-.4-.07-.5-.4-.87-.76-1.21-.81-1.09-.13 0-.53-1.22-.34-1.06-.11.2-.57-.83-.29-.67.61.24-.19-.46-.16-.16-.36-.29-.49-.48-.72-1.03-.86-2.28-1.25-3.42-.27-.37-.69-.49-.96-.88-.7-1.05-.53-2.48-.98-3.62l.38-.05z" stroke-linecap="round" stroke-linejoin="round"/></svg>