<svg xmlns="http://www.w3.org/2000/svg" width="52" height="52" viewBox="0 0 52 52"><path d="M49.69,4.64l-.06-.07-2.2-2.21a1.81,1.81,0,0,0-2.53.35L34.4,13.18l-2.29,2.29H9.21A2.13,2.13,0,0,0,7.08,17.6V34.4a2.13,2.13,0,0,0,2.13,2.13h1.84L2.68,44.9a2,2,0,0,0-.32,2.52l2.21,2.21A1.75,1.75,0,0,0,7,49.38l.06-.07L49.32,7.09A1.75,1.75,0,0,0,49.69,4.64Z" fill="#fff" fill-rule="evenodd"/><path d="M32.68,35.92a2.13,2.13,0,0,0,2.13-2.13V29.45l8.6,6.15A.87.87,0,0,0,44.9,35V17.82L26.81,35.92Z" fill="#fff" fill-rule="evenodd"/></svg>