<svg xmlns="http://www.w3.org/2000/svg" x="0px" y="0px"
	 width="52px" height="52px" viewBox="0 0 52 52" enable-background="new 0 0 52 52" xml:space="preserve">
<g>
	<path fill="#FFFFFF" d="M24.6,2.6L12,18H6c-2.2,0-4,1.8-4,4v8c0,2.2,1.8,4,4,4h6l12.6,15.4c1.3,1.3,3.4,0.4,3.4-1.4V4
		C28,2.2,25.8,1.3,24.6,2.6z"/>
	<path fill="#FFFFFF" d="M44.8,26l4.9-4.9c0.4-0.4,0.4-1,0-1.4l-1.4-1.4c-0.4-0.4-1-0.4-1.4,0L42,23.2l-4.9-4.9
		c-0.4-0.4-1-0.4-1.4,0l-1.4,1.4c-0.4,0.4-0.4,1,0,1.4l4.9,4.9l-4.9,4.9c-0.4,0.4-0.4,1,0,1.4l1.4,1.4c0.4,0.4,1,0.4,1.4,0l4.9-4.9
		l4.9,4.9c0.4,0.4,1,0.4,1.4,0l1.4-1.4c0.4-0.4,0.4-1,0-1.4L44.8,26z"/>
</g>
</svg>
