<svg color="var(--zonos-elements-blue-800)" fill="none" height="24" viewBox="0 0 24 24" width="24" xmlns="http://www.w3.org/2000/svg" style="display: block;">
  <path d="M12 4a8 8 0 1 0 0 16 8 8 0 0 0 0-16Z" data-is-secondary-color="true" fill="var(--zonos-elements-blue-400)"></path>
  <path d="M10.25 10.25a1.75 1.75 0 1 1 2.431 1.613c-.616.26-1.431.885-1.431 1.887a.75.75 0 0 0 1.5 0c0-.053.02-.128.108-.228.092-.104.236-.205.408-.278A3.25 3.25 0 1 0 8.75 10.25a.75.75 0 0 0 1.5 0Zm2.5 5.75a.75.75 0 0 0-1.5 0v.25a.75.75 0 0 0 1.5 0V16Z" fill="currentColor"></path>
</svg>