<svg xmlns="http://www.w3.org/2000/svg" width="24" height="24" viewBox="0 0 24 24"><path d="M3,3h18v18H3V3z M19.525,16.707c-0.131-0.821-0.666-1.511-2.252-2.155c-0.552-0.259-1.165-0.438-1.349-0.854	c-0.068-0.248-0.078-0.382-0.034-0.529c0.113-0.484,0.687-0.629,1.137-0.495c0.293,0.09,0.563,0.315,0.732,0.676	c0.775-0.507,0.775-0.507,1.316-0.844c-0.203-0.314-0.304-0.451-0.439-0.586c-0.473-0.528-1.103-0.798-2.126-0.775l-0.528,0.067	c-0.507,0.124-0.991,0.395-1.283,0.754c-0.855,0.968-0.608,2.655,0.427,3.354c1.023,0.765,2.521,0.933,2.712,1.653	c0.18,0.878-0.652,1.159-1.475,1.058c-0.607-0.136-0.945-0.439-1.316-1.002l-1.372,0.788c0.157,0.359,0.337,0.517,0.607,0.832	c1.305,1.316,4.568,1.249,5.153-0.754c0.021-0.067,0.18-0.528,0.056-1.237L19.525,16.707L19.525,16.707z M12.788,11.273h-1.686	c0,1.453-0.007,2.898-0.007,4.354c0,0.924,0.047,1.772-0.104,2.033c-0.247,0.517-0.886,0.451-1.175,0.359	c-0.297-0.146-0.448-0.349-0.623-0.641c-0.047-0.078-0.082-0.146-0.095-0.146L7.73,18.076c0.229,0.473,0.563,0.879,0.994,1.137	c0.641,0.383,1.502,0.507,2.404,0.305c0.588-0.17,1.095-0.519,1.358-1.059c0.384-0.697,0.302-1.553,0.299-2.509	c0.008-1.541,0-3.083,0-4.635L12.788,11.273L12.788,11.273z"/></svg>