<svg xmlns="http://www.w3.org/2000/svg" width="24" height="24" viewBox="0 0 24 24"><path d="M20.205,16.392c-2.469,3.289-7.741,2.179-11.122,2.338	c0,0-0.599,0.034-1.201,0.133c0,0,0.228-0.097,0.519-0.198c2.374-0.821,3.496-0.986,4.939-1.727c2.71-1.388,5.408-4.413,5.957-7.555	c-1.032,3.022-4.17,5.623-7.027,6.679c-1.955,0.722-5.492,1.424-5.493,1.424c0.002,0.002-0.141-0.074-0.143-0.076	c-2.405-1.17-2.475-6.38,1.894-8.059c1.916-0.736,3.747-0.332,5.818-0.825c2.208-0.525,4.766-2.18,5.805-4.344	C21.316,7.64,22.716,13.048,20.205,16.392z M20.247,3.112c-0.293,0.698-0.652,1.327-1.065,1.89	c-1.819-1.867-4.359-3.031-7.167-3.031C6.492,1.971,2,6.463,2,11.985c0,2.895,1.235,5.505,3.205,7.334l0.22,0.194	c-0.366-0.298-0.423-0.836-0.126-1.203c0.299-0.367,0.837-0.423,1.203-0.126c0.367,0.298,0.424,0.837,0.126,1.204	c-0.296,0.367-0.835,0.423-1.202,0.126l0.149,0.132C7.317,21.114,9.563,22,12.015,22c5.278,0,9.613-4.108,9.984-9.292	C22.273,10.169,21.523,6.945,20.247,3.112"/></svg>