<?xml version="1.0" encoding="UTF-8"?><svg xmlns="http://www.w3.org/2000/svg" width="20" height="20" viewBox="0 0 20 20"><title>
		italic
	</title><path d="M8 19q-1.254 0-2.225-.22C5.128 18.632 4.536 18.294 4 18v-2.36q.828.442 1.799.785.994.32 2.225.319a5.1 5.1 0 0 0 1.775-.294 2.84 2.84 0 0 0 1.325-.932q.498-.638.497-1.619c-.001-.981-.205-1.201-.615-1.643q-.615-.687-1.965-1.52-.851-.54-1.538-1.153a5.1 5.1 0 0 1-1.089-1.447q-.402-.834-.402-1.986 0-1.594.734-2.747A4.94 4.94 0 0 1 8.78 1.638Q10.06 1 11.645 1q1.326 0 2.367.294 1.041.27 1.988.785l-.947 2.134a9.3 9.3 0 0 0-1.61-.638 5.6 5.6 0 0 0-1.798-.294q-1.302 0-2.13.71-.828.712-.829 1.963 0 1.079.568 1.667.592.565 1.728 1.3.995.637 1.728 1.3.734.637 1.112 1.471.403.81.403 1.962 0 1.765-.805 2.967-.78 1.178-2.201 1.79Q9.823 19.001 8 19"/></svg>
