<svg xmlns="http://www.w3.org/2000/svg" width="24" height="24" viewBox="0 0 24 24"><path d="M21.45,8.74h0A2.23,2.23,0,0,1,21.64,7a3.51,3.51,0,0,0,.24-2.47,3.55,3.55,0,0,0-2.45-2.45A3.51,3.51,0,0,0,17,2.36a2.23,2.23,0,0,1-1.7.19,10.07,10.07,0,0,0-6.53,0A9.87,9.87,0,0,0,2.54,8.73a10.07,10.07,0,0,0,0,6.53A2.23,2.23,0,0,1,2.36,17a3.51,3.51,0,0,0-.24,2.47,3.55,3.55,0,0,0,2.45,2.45A3.51,3.51,0,0,0,7,21.64a2.23,2.23,0,0,1,1.7-.19A9.83,9.83,0,0,0,12,22a10.33,10.33,0,0,0,3.27-.54,9.87,9.87,0,0,0,6.19-6.19A10.07,10.07,0,0,0,21.45,8.74ZM12,7a5,5,0,0,0-5,5H5a7,7,0,0,1,7-7Z"/></svg>