<svg xmlns="http://www.w3.org/2000/svg" x="0px" y="0px"
	 width="52px" height="52px" viewBox="0 0 52 52" enable-background="new 0 0 52 52" xml:space="preserve">
<g>
	<path fill="#FFFFFF" d="M18.5,6.5c2,1.4,3.9,4.6,4.7,7.1c0.2,0.6,0.6,1,1.2,1c0.6,0.2,1,0.2,1.6,0.2c0.9,0,1.6,0,2.3-0.3
		c2-0.7,3.8-1.6,5.3-3.1c2.4-2.5,3.3-6,2.4-8.9c-2.9-0.9-6.4-0.1-8.8,2.4c-0.7,0.7-1.3,1.5-1.7,2.4c-1.3-2-2.8-3.8-4.5-4.9
		c-1.2-0.7-2.7-0.3-3.4,0.9C17,4.4,17.5,5.8,18.5,6.5z"/>
	<path fill="#FFFFFF" d="M42.7,18.2c-8.1-4.6-9.8,1.6-16.7,1.6s-8.6-6.2-16.7-1.6C1.5,22.7,3.8,37.4,6.9,43
		c2.8,4.9,7.9,9.9,18.4,5.1c0.4-0.2,0.9-0.2,1.3,0C37.1,52.9,42.3,47.8,45,43C48.2,37.4,50.5,22.7,42.7,18.2z"/>
</g>
</svg>
