<svg xmlns="http://www.w3.org/2000/svg" width="100" height="100" viewBox="0 0 100 100"><path d="M51.58,48.51l-.19-.13h0Z" fill="#fff"/><path d="M45.64,59l1.55-1.8a2,2,0,0,0,.46-1.08l.18-2.29a6.75,6.75,0,0,1,.48-1.93q-1-.61-2.07-1.17l0,0c-.84-.42-1.71-.83-2.59-1.25-3-1.26-3.45-2.53-3.45-3.8A5.18,5.18,0,0,1,42,42.11a9.53,9.53,0,0,0,2.65-6.91c0-5.18-3-9.67-8.29-9.67H35.8c-5.3,0-8.29,4.49-8.29,9.67a9.53,9.53,0,0,0,2.65,6.91A5,5,0,0,1,32,45.68c0,1.27-.35,2.54-3.46,3.8-4.37,2-8.4,3.92-8.63,8.07.23,2.88,2.18,5.06,4.72,5.06H44.05A6.64,6.64,0,0,1,45.64,59Z" fill="#fff"/><path d="M49.5,35.43a17,17,0,0,1-2.3,8.29,1.81,1.81,0,0,0,.7,2.54c1.12.64,2.33,1.32,3.49,2.12l0,0a6.67,6.67,0,0,1,2.63-.75l2.56-.17a1.29,1.29,0,0,0,.73-.32l2-1.64a6.64,6.64,0,0,1,2.45-1.29A22.55,22.55,0,0,0,57,41.42c-2.65-1.15-3.22-2.18-3.22-3.45a5.74,5.74,0,0,1,1.61-3.23,8,8,0,0,0,2.41-6.11C57.92,24,55.27,20,50.43,20a7.2,7.2,0,0,0-6.22,3.57C47.54,26.1,49.5,30.48,49.5,35.43Z" fill="#fff"/><path d="M69.74,66a2.35,2.35,0,1,0,2.35,2.35A2.35,2.35,0,0,0,69.74,66Z" fill="#fff"/><path d="M57.35,56.34a2.35,2.35,0,1,0,2.35,2.35A2.35,2.35,0,0,0,57.35,56.34Zm0,0a2.35,2.35,0,1,0,2.35,2.35A2.35,2.35,0,0,0,57.35,56.34Zm21.69,5L77.26,59.2A3.92,3.92,0,0,1,76.37,57l-.2-2.73A3.5,3.5,0,0,0,73,51l-2.37-.19a5.05,5.05,0,0,1-2.86-1.22L65.94,48a3.52,3.52,0,0,0-4.57,0l-2,1.65a4.59,4.59,0,0,1-2.58,1.06l-2.55.17A3.51,3.51,0,0,0,51,54.05l-.18,2.32a5.15,5.15,0,0,1-1.23,2.89l-1.56,1.81a3.5,3.5,0,0,0,0,4.55l1.7,2a4.25,4.25,0,0,1,1,2.42l.19,2.62A3.5,3.5,0,0,0,54.06,76l2.38.22a4.88,4.88,0,0,1,2.85,1.21L61.1,79a3.54,3.54,0,0,0,4.57,0l2.08-1.74a4.07,4.07,0,0,1,2.31-.93l2.72-.2A3.46,3.46,0,0,0,76,72.93l.21-2.2a5.42,5.42,0,0,1,1.36-3.16l1.45-1.66A3.48,3.48,0,0,0,79,61.33ZM52.87,58.69a4.48,4.48,0,1,1,4.48,4.48A4.49,4.49,0,0,1,52.87,58.69Zm6.51,14.43a.44.44,0,0,1-.3.19H57.65a.38.38,0,0,1-.33-.19.33.33,0,0,1,0-.38l10.32-18.9a.44.44,0,0,1,.3-.19h1.54a.39.39,0,0,1,.18.51Zm10.36-.32a4.48,4.48,0,1,1,4.48-4.48A4.49,4.49,0,0,1,69.74,72.8Zm-10-14.11A2.35,2.35,0,1,0,57.35,61,2.35,2.35,0,0,0,59.7,58.69Z" fill="#fff"/></svg>