<svg xmlns="http://www.w3.org/2000/svg" width="24" height="24" viewBox="0 0 24 24"><path d="M4.285,7.269c0.023-0.232-0.065-0.463-0.24-0.619l-1.77-2.133V4.197h5.498l4.25,9.32l3.736-9.32H21v0.319	l-1.515,1.451c-0.13,0.1-0.193,0.264-0.168,0.425v10.666c-0.025,0.162,0.038,0.325,0.168,0.425l1.479,1.451v0.319h-7.436v-0.319	l1.529-1.487c0.152-0.15,0.152-0.195,0.152-0.424V8.401l-4.259,10.817h-0.575L5.417,8.401v7.249	c-0.041,0.305,0.06,0.612,0.275,0.833l1.992,2.417v0.319H2.036v-0.319l1.992-2.417c0.212-0.221,0.308-0.53,0.257-0.833V7.269z"/></svg>