<?xml version="1.0" encoding="utf-8"?>
<!-- Generator: Adobe Illustrator 16.0.0, SVG Export Plug-In . SVG Version: 6.00 Build 0)  -->
<!DOCTYPE svg PUBLIC "-//W3C//DTD SVG 1.1//EN" "http://www.w3.org/Graphics/SVG/1.1/DTD/svg11.dtd">
<svg version="1.1"
	 id="Layer_1" xmlns:dc="http://purl.org/dc/elements/1.1/" xmlns:cc="http://creativecommons.org/ns#" xmlns:rdf="http://www.w3.org/1999/02/22-rdf-syntax-ns#" xmlns:svg="http://www.w3.org/2000/svg" xmlns:sodipodi="http://sodipodi.sourceforge.net/DTD/sodipodi-0.dtd" xmlns:inkscape="http://www.inkscape.org/namespaces/inkscape" inkscape:export-ydpi="90" inkscape:export-xdpi="90" inkscape:export-filename="D:\TESTINGEMOJI\SVGTEST\1F31B.png" sodipodi:docname="1F31B.svg" inkscape:version="0.48.5 r10040"
	 xmlns="http://www.w3.org/2000/svg" xmlns:xlink="http://www.w3.org/1999/xlink" x="0px" y="0px" width="64px" height="64px"
	 viewBox="0 0 64 64" enable-background="new 0 0 64 64" xml:space="preserve">
<sodipodi:namedview  inkscape:cy="32" inkscape:cx="32" inkscape:zoom="3.6875" showgrid="false" guidetolerance="10" gridtolerance="10" objecttolerance="10" bordercolor="#666666" pagecolor="#ffffff" borderopacity="1" id="namedview9245" inkscape:window-height="480" inkscape:window-width="640" inkscape:pageshadow="2" inkscape:pageopacity="0" inkscape:current-layer="Layer_1" inkscape:window-maximized="0" inkscape:window-y="278" inkscape:window-x="415">
	</sodipodi:namedview>
<g>
	<path fill="#F5EB35" d="M37.334,39.814c-1.572-2.188-2.712-4.743-0.66-7.053c0.879-0.992,2.465-1.476,3.64-1.971
		c0.761-0.319,1.499-0.749,2.206-1.247c1.84-4.96,2.788-10.245,1.887-15.433c-0.905-5.206-3.127-9.51-5.744-13.636
		c14.396,3.137,25.182,15.94,25.182,31.276c0,17.689-14.339,32.027-32.027,32.027c-5.881,0-11.377-1.612-16.115-4.38
		C24.367,54.52,32.028,48.181,37.334,39.814z"/>
	<path fill="#E0CF35" d="M56.745,40.264c0,1.407,1.138,2.545,2.548,2.545c1.405,0,2.545-1.138,2.545-2.545s-1.14-2.548-2.545-2.548
		C57.883,37.716,56.745,38.856,56.745,40.264z"/>
	<circle fill="#E0CF35" cx="32.27" cy="57.38" r="3.486"/>
	<path fill="#E0CF35" d="M47.667,12.575c0,1.145,0.927,2.071,2.072,2.071c1.141,0,2.067-0.927,2.067-2.071
		c0-1.142-0.927-2.069-2.067-2.069C48.594,10.506,47.667,11.433,47.667,12.575z"/>
	<path fill="#BFAD2B" d="M34.857,44.637c4.539,2.106,8.526,2.808,13.334,1.197c-0.044-0.414-0.105-0.827-0.188-1.237
		c-0.251-1.251,1.647-1.901,1.9-0.635c0.353,1.75,0.578,3.553,0.031,5.289c-0.384,1.22-2.354,0.824-1.964-0.414
		c0.095-0.3,0.153-0.604,0.198-0.907c-5.029,1.509-9.406,0.729-14.211-1.499C32.784,45.885,33.686,44.092,34.857,44.637z"/>
	<path fill="#BFAD2B" d="M55.027,31.68c-1.934-1.005-4.101-1.646-5.976-2.759c1.308-1.771,3.055-2.951,4.857-4.207
		c0.9-0.627-0.233-1.902-1.127-1.281c-1.918,1.336-3.729,2.617-5.12,4.5c-0.093-0.078-0.193-0.146-0.285-0.229
		c-0.804-0.732-2.093,0.384-1.282,1.125c2.32,2.116,5.259,2.851,7.982,4.267C55.045,33.601,56.002,32.188,55.027,31.68z"/>
	<path fill="#E0CF35" d="M41.608,37.145c-0.572-0.506-1.184-0.74-1.951-0.722c-0.39,0.012-0.806,0.396-1.069,0.643
		c-0.029,0.03-0.65,0.698-0.342,0.69c0.713-0.02,1.273,0.184,1.811,0.658C40.397,38.716,41.828,37.336,41.608,37.145z"/>
</g>
</svg>
