<?xml version="1.0" encoding="UTF-8" standalone="no"?>
<!-- Generator: Adobe Illustrator 16.0.0, SVG Export Plug-In . SVG Version: 6.00 Build 0)  -->

<svg
   xmlns:dc="http://purl.org/dc/elements/1.1/"
   xmlns:cc="http://creativecommons.org/ns#"
   xmlns:rdf="http://www.w3.org/1999/02/22-rdf-syntax-ns#"
   xmlns:svg="http://www.w3.org/2000/svg"
   xmlns="http://www.w3.org/2000/svg"
   xmlns:sodipodi="http://sodipodi.sourceforge.net/DTD/sodipodi-0.dtd"
   xmlns:inkscape="http://www.inkscape.org/namespaces/inkscape"
   version="1.1"
   id="Layer_1"
   x="0px"
   y="0px"
   width="64px"
   height="64px"
   viewBox="0 0 64 64"
   enable-background="new 0 0 64 64"
   xml:space="preserve"
   inkscape:version="0.48.5 r10040"
   sodipodi:docname="1F383.svg"
   inkscape:export-filename="D:\TESTINGEMOJI\SVGTEST\1F383.png"
   inkscape:export-xdpi="90"
   inkscape:export-ydpi="90"><metadata
   id="metadata3773"><rdf:RDF><cc:Work
       rdf:about=""><dc:format>image/svg+xml</dc:format><dc:type
         rdf:resource="http://purl.org/dc/dcmitype/StillImage" /><dc:title></dc:title></cc:Work></rdf:RDF></metadata><defs
   id="defs3771" /><sodipodi:namedview
   pagecolor="#ffffff"
   bordercolor="#666666"
   borderopacity="1"
   objecttolerance="10"
   gridtolerance="10"
   guidetolerance="10"
   inkscape:pageopacity="0"
   inkscape:pageshadow="2"
   inkscape:window-width="640"
   inkscape:window-height="480"
   id="namedview3769"
   showgrid="false"
   inkscape:zoom="3.6875"
   inkscape:cx="32"
   inkscape:cy="32"
   inkscape:window-x="315"
   inkscape:window-y="220"
   inkscape:window-maximized="0"
   inkscape:current-layer="Layer_1" />
<g
   id="g3739">
	<path
   fill="#F79420"
   d="M64.086,26.853c0,18.167-14.342,32.886-32.042,32.886C14.344,59.739,0,45.021,0,26.853   C0,8.686,14.344,6.885,32.043,6.885C49.744,6.885,64.086,8.686,64.086,26.853z"
   id="path3741" />
	<path
   fill="#CF7D29"
   d="M40.781,7.126c3.548,8.162,7.641,16.327,8.523,25.26c0.633,6.392,1.884,14.083,1.52,21.088   c8.029-5.973,13.262-15.662,13.262-26.622C64.086,11.797,54.228,7.989,40.781,7.126z"
   id="path3743" />
	<path
   fill="#CF7D29"
   d="M14.733,45.242c-6.794-11.178-6.182-24.516-1.9-36.449C5.054,11.096,0,16.091,0,26.853   c0,17.815,13.801,32.281,31.026,32.835C24.314,55.999,18.351,51.19,14.733,45.242z"
   id="path3745" />
	<path
   fill="#602E21"
   d="M8.062,27.866c0,2.636,4.071,4.766,9.095,4.766c5.023,0,9.091-2.129,9.091-4.766   c0-2.628-4.068-11.763-9.091-11.763C12.133,16.103,8.062,25.238,8.062,27.866z"
   id="path3747" />
	<path
   fill="#602E21"
   d="M26.249,38.557c0,1.833,2.83-2.323,6.325-2.323c3.491,0,6.32,4.156,6.32,2.323   c0-1.824-2.829-8.177-6.32-8.177C29.079,30.379,26.249,36.732,26.249,38.557z"
   id="path3749" />
	<path
   fill="#602E21"
   d="M57.081,27.866c0,2.636-4.069,4.766-9.095,4.766c-5.022,0-9.092-2.129-9.092-4.766   c0-2.628,4.069-11.763,9.092-11.763C53.012,16.103,57.081,25.238,57.081,27.866z"
   id="path3751" />
	<g
   id="g3753">
		<path
   fill="#0B7D70"
   d="M23.192-0.057c2.586-0.641,7.977,5.304,8.413,7.045c0.433,1.75-5.102,1.029-8.203,1.001    c-3.194-0.023-6.428,0.103-6.857-1.643C16.107,4.602,20.603,0.584,23.192-0.057z"
   id="path3755" />
		<path
   fill="#2BB573"
   d="M39.58,1.206c2.919-0.582,8.632,6.305,9.031,8.276c0.391,1.971-5.738,0.895-9.196,0.712    C35.852,10,32.242,9.984,31.844,8.013C31.45,6.046,36.665,1.791,39.58,1.206z"
   id="path3757" />
		<path
   fill="#04A69C"
   d="M22.479,4.431c1.999-1.302,8.3,2.129,9.182,3.479c0.878,1.346-4.011,2.371-6.635,3.257    c-2.709,0.918-5.403,1.983-6.277,0.633C17.866,10.451,20.482,5.733,22.479,4.431z"
   id="path3759" />
	</g>
	<path
   fill="#602E21"
   d="M43.282,41.113c-7.945,1.168-15.903,2.186-23.884,2.949c3.004,7.523,10.342,12.844,18.935,12.844   c10.546,0,19.219-7.999,20.283-18.263C53.515,39.515,48.406,40.361,43.282,41.113z"
   id="path3761" />
	<path
   fill="#F79420"
   d="M39.754,46.346c0,1.488-2.294,2.688-5.128,2.688c-2.83,0-5.124-1.199-5.124-2.688   c0-1.48,2.294-6.629,5.124-6.629C37.46,39.717,39.754,44.865,39.754,46.346z"
   id="path3763" />
	<path
   fill="#F79420"
   d="M55.24,40.995c0,1.488-2.292,2.688-5.127,2.688c-2.829,0-5.123-1.199-5.123-2.688   c0-1.48,2.294-6.63,5.123-6.63C52.948,34.365,55.24,39.515,55.24,40.995z"
   id="path3765" />
	<path
   fill="#F79420"
   d="M42.38,47.743c1.051-1.053,3.414-0.384,5.284,1.484c1.868,1.868,2.535,4.23,1.484,5.284   c-1.047,1.045-6.204,3.17-8.072,1.302S41.333,48.788,42.38,47.743z"
   id="path3767" />
</g>
</svg>