<?xml version="1.0" encoding="UTF-8" standalone="no"?>
<!-- Generator: Adobe Illustrator 16.0.0, SVG Export Plug-In . SVG Version: 6.00 Build 0)  -->

<svg
   xmlns:dc="http://purl.org/dc/elements/1.1/"
   xmlns:cc="http://creativecommons.org/ns#"
   xmlns:rdf="http://www.w3.org/1999/02/22-rdf-syntax-ns#"
   xmlns:svg="http://www.w3.org/2000/svg"
   xmlns="http://www.w3.org/2000/svg"
   xmlns:sodipodi="http://sodipodi.sourceforge.net/DTD/sodipodi-0.dtd"
   xmlns:inkscape="http://www.inkscape.org/namespaces/inkscape"
   version="1.1"
   id="Layer_1"
   x="0px"
   y="0px"
   width="64px"
   height="64px"
   viewBox="0 0 64 64"
   enable-background="new 0 0 64 64"
   xml:space="preserve"
   inkscape:version="0.48.5 r10040"
   sodipodi:docname="1F3E0.svg"
   inkscape:export-filename="D:\TESTINGEMOJI\SVGTEST\1F3E0.png"
   inkscape:export-xdpi="90"
   inkscape:export-ydpi="90"><metadata
   id="metadata9820"><rdf:RDF><cc:Work
       rdf:about=""><dc:format>image/svg+xml</dc:format><dc:type
         rdf:resource="http://purl.org/dc/dcmitype/StillImage" /><dc:title></dc:title></cc:Work></rdf:RDF></metadata><defs
   id="defs9818" /><sodipodi:namedview
   pagecolor="#ffffff"
   bordercolor="#666666"
   borderopacity="1"
   objecttolerance="10"
   gridtolerance="10"
   guidetolerance="10"
   inkscape:pageopacity="0"
   inkscape:pageshadow="2"
   inkscape:window-width="881"
   inkscape:window-height="683"
   id="namedview9816"
   showgrid="false"
   inkscape:zoom="7.75"
   inkscape:cx="32"
   inkscape:cy="32"
   inkscape:window-x="0"
   inkscape:window-y="0"
   inkscape:window-maximized="0"
   inkscape:current-layer="Layer_1" />
<g
   id="g9780"
   transform="translate(-0.01312192,8.8594861)">
	<rect
   x="6.073"
   y="48.652"
   width="52.014"
   height="4.0500002"
   id="rect9782"
   style="fill:#bbbcbe" />
	<rect
   x="13.508"
   y="2.711"
   width="6.7410002"
   height="11.669"
   id="rect9784"
   style="fill:#633d19" />
	<rect
   x="6.073"
   y="46.625999"
   width="52.014"
   height="4.0539999"
   id="rect9786"
   style="fill:#f0ca93" />
	<polygon
   points="9.574,19.021 6.428,19.954 3.805,22.124 1.205,25.229 8.505,25.229 "
   id="polygon9788"
   style="fill:#992c3e" />
	<polygon
   points="54.402,19.021 57.541,19.954 60.164,22.124 62.769,25.229 55.473,25.229 "
   id="polygon9790"
   style="fill:#992c3e" />
	<path
   d="m 40.067,47.442 c 0.573,0 1.041,0.541 1.041,1.206 l 0,0 c 0,0.674 -0.468,1.21 -1.041,1.21 H 23.76 c -0.575,0 -1.041,-0.536 -1.041,-1.21 l 0,0 c 0,-0.665 0.465,-1.206 1.041,-1.206 h 16.307 z"
   id="path9792"
   inkscape:connector-curvature="0"
   style="fill:#bbbcbe" />
	<path
   d="m 41.117,49.858 c 0.655,0 1.19,0.546 1.19,1.216 l 0,0 c 0,0.665 -0.535,1.21 -1.19,1.21 H 22.531 c -0.653,0 -1.185,-0.545 -1.185,-1.21 l 0,0 c 0,-0.67 0.532,-1.216 1.185,-1.216 h 18.586 z"
   id="path9794"
   inkscape:connector-curvature="0"
   style="fill:#999999" />
	<path
   d="m 42.291,52.284 c 0.731,0 1.323,0.546 1.323,1.211 l 0,0 c 0,0.665 -0.592,1.211 -1.323,1.211 H 21.57 c -0.729,0 -1.321,-0.546 -1.321,-1.211 l 0,0 c 0,-0.665 0.592,-1.211 1.321,-1.211 h 20.721 z"
   id="path9796"
   inkscape:connector-curvature="0"
   style="fill:#7c7d7e" />
	<polygon
   points="7.478,20.689 32.065,1.177 56.682,20.689 56.682,47.3 7.478,47.3 "
   id="polygon9798"
   style="fill:#e7e5e5" />
	<polygon
   points="16.469,47.3 7.478,47.3 7.478,20.057 31.43,1.177 32.597,1.831 16.469,20.378 "
   id="polygon9800"
   style="fill:#d1d2d2" />
	<path
   d="m 32.741,0.572 c 0.39,0.628 0.177,1.525 -0.461,2 L 2.058,24.939 c -0.64,0.477 -1.477,0.349 -1.864,-0.28 l 0,0 C -0.191,24.026 0.017,23.128 0.659,22.655 L 30.879,0.284 c 0.64,-0.471 1.477,-0.343 1.862,0.288 l 0,0 z"
   id="path9802"
   inkscape:connector-curvature="0"
   style="fill:#df394c" />
	<path
   d="m 31.269,0.572 c -0.385,0.628 -0.174,1.525 0.466,2 l 30.22,22.368 c 0.645,0.477 1.477,0.349 1.864,-0.28 l 0,0 c 0.388,-0.633 0.179,-1.531 -0.464,-2.004 L 33.134,0.285 c -0.645,-0.472 -1.48,-0.344 -1.865,0.287 l 0,0 z"
   id="path9804"
   inkscape:connector-curvature="0"
   style="fill:#df394c" />
	<path
   d="m 37.363,47.635 v -9.062 c 0,-3.215 -2.366,-5.811 -5.282,-5.811 -2.921,0 -5.283,2.596 -5.283,5.811 v 9.062 h 10.565 z"
   id="path9806"
   inkscape:connector-curvature="0"
   style="fill:#4e6b78" />
	<path
   d="m 33.78,33.075 c -0.537,-0.202 -1.108,-0.312 -1.699,-0.312 -2.921,0 -5.283,2.596 -5.283,5.811 v 9.062 h 3.396 v -9.062 c 0,-2.559 1.499,-4.724 3.586,-5.499 z"
   id="path9808"
   inkscape:connector-curvature="0"
   style="fill:#405967" />
	<path
   d="m 21.979,2.262 c 0,0.599 -0.571,1.084 -1.277,1.084 h -7.493 c -0.706,0 -1.277,-0.486 -1.277,-1.084 l 0,0 c 0,-0.599 0.571,-1.084 1.277,-1.084 h 7.493 c 0.706,-10e-4 1.277,0.485 1.277,1.084 l 0,0 z"
   id="path9810"
   inkscape:connector-curvature="0"
   style="fill:#df394c" />
	<path
   d="m 22.068,37.267 c 0,1.242 -1.068,2.251 -2.387,2.251 h -6.48 c -1.318,0 -2.389,-1.009 -2.389,-2.251 v -9.012 c 0,-1.243 1.071,-2.251 2.389,-2.251 h 6.48 c 1.318,0 2.387,1.009 2.387,2.251 v 9.012 z"
   id="path9812"
   inkscape:connector-curvature="0"
   style="fill:#28a6de" />
	<path
   d="m 53.173,36.835 c 0,1.243 -1.068,2.252 -2.389,2.252 h -6.479 c -1.321,0 -2.388,-1.009 -2.388,-2.252 v -9.011 c 0,-1.248 1.066,-2.252 2.388,-2.252 h 6.479 c 1.32,0 2.389,1.004 2.389,2.252 v 9.011 z"
   id="path9814"
   inkscape:connector-curvature="0"
   style="fill:#28a6de" />
</g>
</svg>