<?xml version="1.0" encoding="UTF-8" standalone="no"?>
<!-- Generator: Adobe Illustrator 16.0.0, SVG Export Plug-In . SVG Version: 6.00 Build 0)  -->

<svg
   xmlns:dc="http://purl.org/dc/elements/1.1/"
   xmlns:cc="http://creativecommons.org/ns#"
   xmlns:rdf="http://www.w3.org/1999/02/22-rdf-syntax-ns#"
   xmlns:svg="http://www.w3.org/2000/svg"
   xmlns="http://www.w3.org/2000/svg"
   xmlns:sodipodi="http://sodipodi.sourceforge.net/DTD/sodipodi-0.dtd"
   xmlns:inkscape="http://www.inkscape.org/namespaces/inkscape"
   version="1.1"
   id="Layer_1"
   x="0px"
   y="0px"
   width="64px"
   height="64px"
   viewBox="0 0 64 64"
   enable-background="new 0 0 64 64"
   xml:space="preserve"
   inkscape:version="0.48.5 r10040"
   sodipodi:docname="1F445.svg"
   inkscape:export-filename="D:\TESTINGEMOJI\SVGTEST\1F445.png"
   inkscape:export-xdpi="90"
   inkscape:export-ydpi="90"><metadata
   id="metadata3453"><rdf:RDF><cc:Work
       rdf:about=""><dc:format>image/svg+xml</dc:format><dc:type
         rdf:resource="http://purl.org/dc/dcmitype/StillImage" /><dc:title></dc:title></cc:Work></rdf:RDF></metadata><defs
   id="defs3451" /><sodipodi:namedview
   pagecolor="#ffffff"
   bordercolor="#666666"
   borderopacity="1"
   objecttolerance="10"
   gridtolerance="10"
   guidetolerance="10"
   inkscape:pageopacity="0"
   inkscape:pageshadow="2"
   inkscape:window-width="640"
   inkscape:window-height="480"
   id="namedview3449"
   showgrid="false"
   inkscape:zoom="3.6875"
   inkscape:cx="32"
   inkscape:cy="32"
   inkscape:window-x="723"
   inkscape:window-y="401"
   inkscape:window-maximized="0"
   inkscape:current-layer="Layer_1" />
<g
   id="g3429">
	<g
   id="g3431">
		<path
   fill="#25333A"
   d="M63.659,19.657c0,17.481-14.178,31.661-31.661,31.661c-17.473,0-31.658-14.18-31.658-31.661"
   id="path3433" />
	</g>
</g>
<g
   id="g3435">
	<g
   id="g3437">
		<path
   fill="#F45BA1"
   d="M49.049,51.747C49.049,58.517,41.414,64,32,64l0,0c-9.412,0-17.047-5.483-17.047-12.253l3.676-16.172    c0-6.763,3.959-10.205,13.371-10.205l0,0c9.414,0,13.373,3.442,13.373,10.205L49.049,51.747z"
   id="path3439" />
	</g>
</g>
<path
   fill="#DB5397"
   d="M32.931,60.104c0,0.221-0.417,0.4-0.931,0.4l0,0c-0.514,0-0.931-0.18-0.931-0.4V29.269  c0-0.224,0.417-0.403,0.931-0.403l0,0c0.514,0,0.931,0.179,0.931,0.403V60.104z"
   id="path3441" />
<g
   id="g3443">
	<g
   id="g3445">
		<path
   fill="#FFFFFF"
   d="M58.231,22.84c0,6.979-11.989,12.648-26.768,12.648c-14.771,0-26.76-5.669-26.76-12.648"
   id="path3447" />
	</g>
</g>
</svg>