<?xml version="1.0" encoding="UTF-8" standalone="no"?>
<!-- Generator: Adobe Illustrator 16.0.0, SVG Export Plug-In . SVG Version: 6.00 Build 0)  -->

<svg
   xmlns:dc="http://purl.org/dc/elements/1.1/"
   xmlns:cc="http://creativecommons.org/ns#"
   xmlns:rdf="http://www.w3.org/1999/02/22-rdf-syntax-ns#"
   xmlns:svg="http://www.w3.org/2000/svg"
   xmlns="http://www.w3.org/2000/svg"
   xmlns:sodipodi="http://sodipodi.sourceforge.net/DTD/sodipodi-0.dtd"
   xmlns:inkscape="http://www.inkscape.org/namespaces/inkscape"
   version="1.1"
   id="Layer_1"
   x="0px"
   y="0px"
   width="64px"
   height="64px"
   viewBox="0 0 64 64"
   enable-background="new 0 0 64 64"
   xml:space="preserve"
   inkscape:version="0.48.5 r10040"
   sodipodi:docname="1F477.svg"
   inkscape:export-filename="D:\TESTINGEMOJI\SVGTEST\1F477.png"
   inkscape:export-xdpi="90"
   inkscape:export-ydpi="90"><metadata
   id="metadata4289"><rdf:RDF><cc:Work
       rdf:about=""><dc:format>image/svg+xml</dc:format><dc:type
         rdf:resource="http://purl.org/dc/dcmitype/StillImage" /><dc:title></dc:title></cc:Work></rdf:RDF></metadata><defs
   id="defs4287" /><sodipodi:namedview
   pagecolor="#ffffff"
   bordercolor="#666666"
   borderopacity="1"
   objecttolerance="10"
   gridtolerance="10"
   guidetolerance="10"
   inkscape:pageopacity="0"
   inkscape:pageshadow="2"
   inkscape:window-width="640"
   inkscape:window-height="480"
   id="namedview4285"
   showgrid="false"
   inkscape:zoom="3.6875"
   inkscape:cx="32"
   inkscape:cy="32"
   inkscape:window-x="378"
   inkscape:window-y="206"
   inkscape:window-maximized="0"
   inkscape:current-layer="Layer_1" />
<g
   id="g4249"
   transform="translate(2,0)">
	<g
   id="g4251">
		<path
   d="m 7.893,29.419 c -2.525,0.003 -4.563,3.329 -4.556,8.437 0.006,5.108 2.053,8.431 4.578,8.428 2.521,-0.004 8.742,-3.336 8.736,-8.443 -0.008,-5.109 -6.233,-8.426 -8.758,-8.422 z"
   id="path4253"
   inkscape:connector-curvature="0"
   style="fill:#e8a041" />
		<path
   d="m 49.364,28.517 c 2.521,0.003 4.562,3.33 4.554,8.437 -0.004,5.107 -2.053,8.43 -4.577,8.428 -2.521,-0.004 -8.742,-3.337 -8.738,-8.444 0.007,-5.108 6.236,-8.425 8.761,-8.421 z"
   id="path4255"
   inkscape:connector-curvature="0"
   style="fill:#e8a041" />
		<path
   d="m 51.023,40.07 c 0,15.182 -9.953,22.776 -22.236,22.776 -12.285,0 -22.24,-7.595 -22.24,-22.776 0,-15.181 9.955,-32.201 22.24,-32.201 12.283,0 22.236,17.02 22.236,32.201 z"
   id="path4257"
   inkscape:connector-curvature="0"
   style="fill:#fbb042" />
		<path
   d="m 43.373,49.335 c 0,9.613 -6.526,14.426 -14.586,14.426 -8.059,0 -14.588,-4.812 -14.588,-14.426 0,-9.615 6.529,-20.395 14.588,-20.395 8.06,0 14.586,10.78 14.586,20.395 z"
   id="path4259"
   inkscape:connector-curvature="0"
   style="fill:#fbb042" />
		<path
   d="m 53.918,19.879 c -1.35,-3.929 -3.216,-4.567 -5.824,-6.268 0.433,-0.496 -0.516,-1.025 0.084,-1.948 0.258,-0.392 1.06,-1.403 0.306,-1.332 C 42.758,10.878 37.264,4.799 31.825,2.669 23.55,-0.572 15.583,3.874 14.926,4.49 11.005,8.137 4.55,17.178 3.42,23.206 c -0.274,1.455 -0.097,6.049 4.123,0.922 0.04,3.043 -0.659,6.539 -0.445,9.592 0.119,1.647 2.152,0 3.855,-8.807 1.445,-7.455 10.073,-3.717 13.792,-4.266 3.637,1.728 4.272,0.781 9.238,-0.881 9.33,-3.122 12.459,-0.212 15.198,8.603 -0.035,0.01 -0.06,0.05 -0.06,0.155 0,1.731 -0.175,4.5 1.14,5.849 0.719,0.739 1.191,-1.144 1.213,-1.551 0.058,-1.076 -0.229,-2.144 -0.392,-3.21 1.553,-0.293 3.586,-1.379 3.232,-1.713 -3.982,-3.77 -2.195,-3.563 -2.954,-7.106 0.549,0.375 2.952,0.242 2.558,-0.914 z"
   id="path4261"
   inkscape:connector-curvature="0"
   style="fill:#e0cf35" />
		<path
   d="m 25.154,33.943 c 0,4.344 -2.347,7.857 -5.246,7.857 -2.9,0 -5.251,-3.514 -5.251,-7.857 0,-4.34 2.351,-7.859 5.251,-7.859 2.9,0 5.246,3.52 5.246,7.859 z"
   id="path4263"
   inkscape:connector-curvature="0"
   style="fill:#ffffff" />
		<path
   d="m 42.913,33.943 c 0,4.344 -2.351,7.857 -5.249,7.857 -2.895,0 -5.249,-3.514 -5.249,-7.857 0,-4.34 2.354,-7.859 5.249,-7.859 2.898,0 5.249,3.52 5.249,7.859 z"
   id="path4265"
   inkscape:connector-curvature="0"
   style="fill:#ffffff" />
		<path
   d="m 23.304,33.943 c 0,2.271 -1.52,4.118 -3.396,4.118 -1.88,0 -3.398,-1.847 -3.398,-4.118 0,-2.273 1.519,-4.114 3.398,-4.114 1.877,0 3.396,1.841 3.396,4.114 z"
   id="path4267"
   inkscape:connector-curvature="0"
   style="fill:#25333a" />
		<path
   d="m 41.059,33.943 c 0,2.271 -1.517,4.118 -3.395,4.118 -1.874,0 -3.395,-1.847 -3.395,-4.118 0,-2.273 1.521,-4.114 3.395,-4.114 1.878,0 3.395,1.841 3.395,4.114 z"
   id="path4269"
   inkscape:connector-curvature="0"
   style="fill:#25333a" />
		<path
   d="m 25.559,42.312 c 0,-1.534 1.306,-5.412 3.089,-5.412 1.783,0 3.367,3.878 3.367,5.412 0,1.538 -1.445,2.783 -3.228,2.783 -1.783,10e-4 -3.228,-1.244 -3.228,-2.783 z"
   id="path4271"
   inkscape:connector-curvature="0"
   style="fill:#e8a041" />
		<path
   d="M 26.21,54.817 C 25.054,54.678 24.181,54.069 24.252,53.46 l 0,0 c 0.075,-0.618 1.076,-0.999 2.227,-0.857 l 4.879,0.595 c 1.159,0.146 2.029,0.755 1.957,1.364 l 0,0 c -0.079,0.613 -1.071,0.99 -2.223,0.85 L 26.21,54.817 z"
   id="path4273"
   inkscape:connector-curvature="0"
   style="fill:#cd8d3b" />
	</g>
	<g
   id="g4275">
		<path
   d="m 55.554,28.875 c 0.056,-0.702 0.092,-1.41 0.092,-2.127 C 55.646,11.975 43.671,0 28.898,0 14.126,0 2.15,11.975 2.15,26.748 c 0,0.717 0.038,1.425 0.091,2.127 h 53.313 z"
   id="path4277"
   inkscape:connector-curvature="0"
   style="fill:#e0cf35" />
		<path
   d="m 57.572,28.522 c 0,0.77 -0.625,1.395 -1.396,1.395 H 1.396 C 0.625,29.917 0,29.292 0,28.522 l 0,0 c 0,-0.771 0.625,-1.395 1.396,-1.395 h 54.781 c 0.77,0 1.395,0.624 1.395,1.395 l 0,0 z"
   id="path4279"
   inkscape:connector-curvature="0"
   style="fill:#b2a334" />
		<path
   d="m 32.392,22.869 c 0,2.156 -1.75,3.905 -3.906,3.905 l 0,0 c -2.156,0 -3.903,-1.749 -3.903,-3.905 V 6.007 c 0,-2.156 1.747,-3.904 3.903,-3.904 l 0,0 c 2.156,0 3.906,1.748 3.906,3.904 v 16.862 z"
   id="path4281"
   inkscape:connector-curvature="0"
   style="fill:#08a69b" />
		<path
   d="m 42.396,14.012 c 0,2.292 -1.857,4.149 -4.148,4.149 H 18.726 c -2.291,0 -4.149,-1.857 -4.149,-4.149 l 0,0 c 0,-2.291 1.858,-4.149 4.149,-4.149 h 19.522 c 2.291,0 4.148,1.858 4.148,4.149 l 0,0 z"
   id="path4283"
   inkscape:connector-curvature="0"
   style="fill:#08a69b" />
	</g>
</g>
</svg>