<?xml version="1.0" encoding="utf-8"?>
<!-- Generator: Adobe Illustrator 16.0.0, SVG Export Plug-In . SVG Version: 6.00 Build 0)  -->
<!DOCTYPE svg PUBLIC "-//W3C//DTD SVG 1.1//EN" "http://www.w3.org/Graphics/SVG/1.1/DTD/svg11.dtd">
<svg version="1.1"
	 id="Layer_1" xmlns:dc="http://purl.org/dc/elements/1.1/" xmlns:cc="http://creativecommons.org/ns#" xmlns:rdf="http://www.w3.org/1999/02/22-rdf-syntax-ns#" xmlns:svg="http://www.w3.org/2000/svg" xmlns:sodipodi="http://sodipodi.sourceforge.net/DTD/sodipodi-0.dtd" xmlns:inkscape="http://www.inkscape.org/namespaces/inkscape" inkscape:export-ydpi="90" inkscape:export-xdpi="90" inkscape:export-filename="D:\TESTINGEMOJI\SVGTEST\1F496.png" sodipodi:docname="1F496.svg" inkscape:version="0.48.5 r10040"
	 xmlns="http://www.w3.org/2000/svg" xmlns:xlink="http://www.w3.org/1999/xlink" x="0px" y="0px" width="64px" height="64px"
	 viewBox="0 0 64 64" enable-background="new 0 0 64 64" xml:space="preserve">
<sodipodi:namedview  inkscape:cy="32" inkscape:cx="32" inkscape:zoom="3.6875" showgrid="false" guidetolerance="10" gridtolerance="10" objecttolerance="10" bordercolor="#666666" pagecolor="#ffffff" borderopacity="1" id="namedview3873" inkscape:current-layer="Layer_1" inkscape:window-maximized="0" inkscape:window-y="272" inkscape:window-x="389" inkscape:window-height="480" inkscape:window-width="640" inkscape:pageshadow="2" inkscape:pageopacity="0">
	</sodipodi:namedview>
<g>
	<g>
		<path fill="#D13852" d="M27.088,59.213c1.129,0.989,2.104,1.812,3.083,2.629c0.613,0.503,1.219,1.014,1.831,1.512
			c0.575-0.471,1.194-0.985,1.814-1.502c0.995-0.827,1.971-1.653,2.936-2.479c12.659-11.688,26.826-24.767,27.025-41
			c-0.055-1.277-0.272-2.708-0.641-4.111c-0.375-1.441-0.922-2.885-1.618-4.271c-1.782-3.267-6.209-5.994-10.723-6.545
			c-8.581-1.012-12.601,1.192-16.646,6.975l-2.147,3.089l-2.151-3.089c-3.66-5.248-7.265-7.113-14.33-7.113
			c-0.739,0-1.508,0.046-2.315,0.138C8.698,3.998,4.267,6.725,2.438,10.07c-0.649,1.308-1.196,2.751-1.573,4.193
			c-0.369,1.392-0.584,2.833-0.643,4.256C0.432,34.606,14.587,47.686,27.088,59.213z"/>
		<path fill="#F1A5B1" d="M60.421,16.176c-0.055-1.049-0.25-2.01-0.566-2.89c-0.309-0.871-0.739-1.664-1.266-2.375
			c-3.142-4.251-9.682-5.573-15.049-4.251c-2.087,0.588-4.174,1.465-5.064,3.521c-0.298,0.875,0.891,1.465,1.488,1.17
			c3.874-0.588,8.197-0.365,11.701,1.17c0.878,0.389,1.698,0.856,2.457,1.411c2.54,1.815,3.728,4.748,4.325,7.679
			c1.192-0.289,1.79-1.754,1.892-3.044C60.453,17.768,60.495,16.959,60.421,16.176z"/>
	</g>
	<g>
		<polygon fill="#FAAA31" points="59.498,49.55 52.391,47.428 56.018,40.983 49.577,44.61 47.568,37.494 45.596,44.61 
			39.097,41.054 39.097,41.058 42.778,47.428 35.674,49.55 42.778,51.41 39.151,57.85 45.596,54.223 47.58,61.343 49.577,54.223 
			56.018,57.85 52.391,51.41 59.498,49.558 		"/>
	</g>
	<g>
		<polygon fill="#FAAA31" points="15.693,11.168 11.098,9.796 13.443,5.635 9.281,7.979 7.979,3.376 6.706,7.979 2.509,5.682 
			2.509,5.686 4.889,9.796 0.293,11.168 4.889,12.372 2.54,16.533 6.706,14.193 7.991,18.792 9.281,14.193 13.443,16.533 
			11.098,12.372 15.693,11.172 		"/>
	</g>
</g>
</svg>
