<?xml version="1.0" encoding="UTF-8" standalone="no"?>
<!-- Generator: Adobe Illustrator 16.0.0, SVG Export Plug-In . SVG Version: 6.00 Build 0)  -->

<svg
   xmlns:dc="http://purl.org/dc/elements/1.1/"
   xmlns:cc="http://creativecommons.org/ns#"
   xmlns:rdf="http://www.w3.org/1999/02/22-rdf-syntax-ns#"
   xmlns:svg="http://www.w3.org/2000/svg"
   xmlns="http://www.w3.org/2000/svg"
   xmlns:sodipodi="http://sodipodi.sourceforge.net/DTD/sodipodi-0.dtd"
   xmlns:inkscape="http://www.inkscape.org/namespaces/inkscape"
   version="1.1"
   id="Layer_1"
   x="0px"
   y="0px"
   width="64px"
   height="64px"
   viewBox="0 0 64 64"
   enable-background="new 0 0 64 64"
   xml:space="preserve"
   inkscape:version="0.48.5 r10040"
   sodipodi:docname="1F4C6.svg"
   inkscape:export-filename="D:\TESTINGEMOJI\SVGTEST\1F4C6.png"
   inkscape:export-xdpi="90"
   inkscape:export-ydpi="90"><metadata
   id="metadata34841"><rdf:RDF><cc:Work
       rdf:about=""><dc:format>image/svg+xml</dc:format><dc:type
         rdf:resource="http://purl.org/dc/dcmitype/StillImage" /><dc:title></dc:title></cc:Work></rdf:RDF></metadata><defs
   id="defs34839" /><sodipodi:namedview
   pagecolor="#ffffff"
   bordercolor="#666666"
   borderopacity="1"
   objecttolerance="10"
   gridtolerance="10"
   guidetolerance="10"
   inkscape:pageopacity="0"
   inkscape:pageshadow="2"
   inkscape:window-width="640"
   inkscape:window-height="637"
   id="namedview34837"
   showgrid="false"
   inkscape:zoom="7.03125"
   inkscape:cx="32"
   inkscape:cy="32"
   inkscape:window-x="727"
   inkscape:window-y="177"
   inkscape:window-maximized="0"
   inkscape:current-layer="Layer_1" />
<g
   id="g34821"
   transform="translate(0.85333333,-0.85333333)">
	<path
   d="m 62.09,56.201 c 0,4.098 -3.598,7.418 -8.043,7.418 h -46 C 3.603,63.619 0,60.299 0,56.201 V 20.938 c 0,-4.092 3.603,-7.416 8.047,-7.416 h 46 c 4.445,0 8.043,3.324 8.043,7.416 v 35.263 z"
   id="path34823"
   inkscape:connector-curvature="0"
   style="fill:#e0e0e0" />
	<path
   d="M 15.898,56.201 V 20.938 c 0,-4.092 3.601,-7.416 8.042,-7.416 H 8.047 C 3.603,13.521 0,16.846 0,20.938 V 56.202 C 0,60.3 3.603,63.62 8.047,63.62 H 23.94 c -4.441,-10e-4 -8.042,-3.321 -8.042,-7.419 z"
   id="path34825"
   inkscape:connector-curvature="0"
   style="fill:#d6d7d6" />
	<path
   d="m 62.09,23.973 c 0,1.696 -3.598,3.072 -8.043,3.072 h -46 C 3.603,27.044 0,25.668 0,23.973 V 9.36 C 0,7.663 3.603,6.288 8.047,6.288 h 46 c 4.445,0 8.043,1.375 8.043,3.072 v 14.613 z"
   id="path34827"
   inkscape:connector-curvature="0"
   style="fill:#be1e2d" />
	<path
   d="M 20.044,57.328 V 38.607 c -3.419,2.676 -5.719,4.014 -6.901,4.014 -0.566,0 -1.065,-0.23 -1.506,-0.691 -0.434,-0.459 -0.65,-0.99 -0.65,-1.597 0,-0.699 0.212,-1.212 0.643,-1.542 0.428,-0.327 1.19,-0.751 2.279,-1.276 1.629,-0.778 2.928,-1.601 3.9,-2.464 0.978,-0.864 1.841,-1.835 2.595,-2.9 0.753,-1.073 1.241,-1.731 1.471,-1.98 0.226,-0.247 0.659,-0.366 1.289,-0.366 0.715,0 1.287,0.279 1.718,0.841 0.428,0.562 0.646,1.334 0.646,2.324 v 23.557 c 0,2.756 -0.921,4.137 -2.767,4.137 -0.818,0 -1.475,-0.283 -1.974,-0.841 -0.498,-0.563 -0.743,-1.395 -0.743,-2.495 z"
   id="path34829"
   inkscape:connector-curvature="0"
   style="fill:#25333a" />
	<path
   d="M 34.008,30.042 H 47.44 c 1.287,0 2.221,0.206 2.803,0.618 0.578,0.408 0.865,1.089 0.865,2.037 0,0.572 -0.338,1.334 -1.019,2.284 -0.679,0.943 -1.451,1.988 -2.32,3.134 -0.862,1.146 -1.762,2.568 -2.679,4.271 -0.922,1.695 -1.767,3.776 -2.534,6.231 -0.324,1.086 -0.55,1.982 -0.684,2.698 -0.135,0.713 -0.28,1.633 -0.442,2.772 -0.164,1.144 -0.303,2.011 -0.429,2.613 -0.28,1.4 -0.675,2.37 -1.198,2.912 -0.515,0.543 -1.206,0.812 -2.067,0.812 -0.818,0 -1.477,-0.293 -1.97,-0.87 -0.506,-0.582 -0.752,-1.445 -0.752,-2.585 0,-0.877 0.178,-2.069 0.546,-3.579 0.363,-1.51 0.953,-3.316 1.773,-5.42 0.819,-2.105 1.844,-4.266 3.08,-6.482 1.227,-2.215 2.688,-4.42 4.386,-6.612 H 34.008 c -1.131,0 -1.976,-0.21 -2.534,-0.626 -0.562,-0.423 -0.836,-1.073 -0.836,-1.969 0,-0.948 0.295,-1.556 0.887,-1.831 0.588,-0.273 1.42,-0.408 2.483,-0.408 z"
   id="path34831"
   inkscape:connector-curvature="0"
   style="fill:#25333a" />
	<path
   d="m 19.978,14.006 c 0,2.583 -2.053,4.668 -4.577,4.668 l 0,0 c -2.53,0 -4.577,-2.085 -4.577,-4.668 V 4.67 C 10.823,2.089 12.871,0 15.4,0 l 0,0 c 2.524,0 4.577,2.089 4.577,4.67 v 9.336 z"
   id="path34833"
   inkscape:connector-curvature="0"
   style="fill:#d0d2d3" />
	<path
   d="m 49.536,14.006 c 0,2.583 -2.045,4.668 -4.575,4.668 l 0,0 c -2.526,0 -4.577,-2.085 -4.577,-4.668 V 4.67 C 40.384,2.089 42.435,0 44.961,0 l 0,0 c 2.53,0 4.575,2.089 4.575,4.67 v 9.336 z"
   id="path34835"
   inkscape:connector-curvature="0"
   style="fill:#d0d2d3" />
</g>
</svg>