<?xml version="1.0" encoding="UTF-8" standalone="no"?>
<!-- Generator: Adobe Illustrator 16.0.0, SVG Export Plug-In . SVG Version: 6.00 Build 0)  -->

<svg
   xmlns:dc="http://purl.org/dc/elements/1.1/"
   xmlns:cc="http://creativecommons.org/ns#"
   xmlns:rdf="http://www.w3.org/1999/02/22-rdf-syntax-ns#"
   xmlns:svg="http://www.w3.org/2000/svg"
   xmlns="http://www.w3.org/2000/svg"
   xmlns:sodipodi="http://sodipodi.sourceforge.net/DTD/sodipodi-0.dtd"
   xmlns:inkscape="http://www.inkscape.org/namespaces/inkscape"
   version="1.1"
   id="Layer_1"
   x="0px"
   y="0px"
   width="64px"
   height="64px"
   viewBox="0 0 64 64"
   enable-background="new 0 0 64 64"
   xml:space="preserve"
   inkscape:version="0.48.5 r10040"
   sodipodi:docname="1F4DC.svg"><metadata
   id="metadata42059"><rdf:RDF><cc:Work
       rdf:about=""><dc:format>image/svg+xml</dc:format><dc:type
         rdf:resource="http://purl.org/dc/dcmitype/StillImage" /></cc:Work></rdf:RDF></metadata><defs
   id="defs42057" /><sodipodi:namedview
   pagecolor="#ffffff"
   bordercolor="#666666"
   borderopacity="1"
   objecttolerance="10"
   gridtolerance="10"
   guidetolerance="10"
   inkscape:pageopacity="0"
   inkscape:pageshadow="2"
   inkscape:window-width="640"
   inkscape:window-height="480"
   id="namedview42055"
   showgrid="false"
   inkscape:zoom="3.6875"
   inkscape:cx="32"
   inkscape:cy="32"
   inkscape:window-x="390"
   inkscape:window-y="144"
   inkscape:window-maximized="0"
   inkscape:current-layer="Layer_1" />
<g
   id="g42017"
   transform="translate(4,0)">
	<g
   id="g42019">
		<path
   d="m 4.005,56.36 c 0,2.738 2.625,4.954 5.869,4.954 h 37.43 c 3.238,0 5.868,-2.216 5.868,-4.954 V 11.716 c 0,-2.736 -2.63,-4.953 -5.868,-4.953 H 9.874 c -3.243,0 -5.869,2.216 -5.869,4.953 V 56.36 z"
   id="path42021"
   inkscape:connector-curvature="0"
   style="fill:#ba9d93" />
		<path
   d="m 4.005,52.868 c 0,2.736 2.625,4.955 5.869,4.955 h 37.43 c 3.238,0 5.868,-2.219 5.868,-4.955 V 8.222 c 0,-2.736 -2.63,-4.953 -5.868,-4.953 H 9.874 c -3.243,0 -5.869,2.216 -5.869,4.953 v 44.646 z"
   id="path42023"
   inkscape:connector-curvature="0"
   style="fill:#e4c6b8" />
		<g
   id="g42025">
			<path
   d="m 45.771,15.268 c -11.104,0 -22.201,0 -33.298,0 -2.241,0 -2.241,-2.928 0,-2.928 11.097,0 22.193,0 33.298,0 2.234,-10e-4 2.234,2.928 0,2.928 l 0,0 z"
   id="path42027"
   inkscape:connector-curvature="0"
   style="fill:#35494d" />
		</g>
		<g
   id="g42029">
			<path
   d="m 45.771,21.211 c -11.104,0 -22.201,0 -33.298,0 -2.241,0 -2.241,-2.926 0,-2.926 11.097,0 22.193,0 33.298,0 2.234,0 2.234,2.926 0,2.926 l 0,0 z"
   id="path42031"
   inkscape:connector-curvature="0"
   style="fill:#35494d" />
		</g>
		<g
   id="g42033">
			<path
   d="m 45.771,27.287 c -11.104,0 -22.201,0 -33.298,0 -2.241,0 -2.241,-2.928 0,-2.928 11.097,0 22.193,0 33.298,0 2.234,-0.001 2.234,2.928 0,2.928 l 0,0 z"
   id="path42035"
   inkscape:connector-curvature="0"
   style="fill:#35494d" />
		</g>
		<g
   id="g42037">
			<path
   d="m 45.771,33.23 c -11.104,0 -22.201,0 -33.298,0 -2.241,0 -2.241,-2.928 0,-2.928 11.097,0 22.193,0 33.298,0 2.234,0 2.234,2.928 0,2.928 l 0,0 z"
   id="path42039"
   inkscape:connector-curvature="0"
   style="fill:#35494d" />
		</g>
		<g
   id="g42041">
			<path
   d="m 45.771,44.7 c -5.111,0 -10.216,0 -15.327,0 -2.235,0 -2.235,-2.928 0,-2.928 5.111,0 10.215,0 15.327,0 2.234,0 2.234,2.928 0,2.928 l 0,0 z"
   id="path42043"
   inkscape:connector-curvature="0"
   style="fill:#35494d" />
		</g>
	</g>
	<path
   d="m 54.109,1.078 c -10.312,0 -20.607,0 -30.919,0 -6.547,0 -13.106,0 -19.664,0 -0.423,0 -0.77,0.065 -0.77,0.138 0,1.862 0,3.721 0,5.583 0,1.06 0,5.804 0,6.868 0,0.073 0.347,0.136 0.77,0.136 10.299,0 44.021,-3.677 50.583,-3.677 0.229,0 0.404,-0.015 0.523,-0.038 0,0 0.008,-0.002 0.013,-0.006 0,0 0.017,0 0.024,-0.002 0.123,-0.019 0.201,-0.05 0.201,-0.09 0,-1.862 0,-3.721 0,-5.579 0,-1.066 0,-2.129 0,-3.195 0.001,-0.073 -0.346,-0.138 -0.761,-0.138 z"
   id="path42045"
   inkscape:connector-curvature="0"
   style="fill:#c6a599" />
	<path
   d="m 54.109,0.01 c -10.312,0 -20.607,0 -30.919,0 -6.547,0 -13.106,0 -19.664,0 -0.423,0 -0.77,0.064 -0.77,0.138 0,1.862 0,3.721 0,5.583 0,1.061 0,5.804 0,6.868 0,0.073 0.347,0.136 0.77,0.136 10.299,0 44.021,-3.677 50.583,-3.677 0.229,0 0.404,-0.015 0.523,-0.038 0,0 0.008,-0.002 0.013,-0.006 0,0 0.017,0 0.024,-0.002 0.123,-0.019 0.201,-0.05 0.201,-0.09 0,-1.861 0,-3.721 0,-5.578 0,-1.066 0,-2.129 0,-3.195 C 54.871,0.074 54.524,0.01 54.109,0.01 z"
   id="path42047"
   inkscape:connector-curvature="0"
   style="fill:#e4c6b8" />
	<path
   d="m 28.028,46.163 c 0,3.832 -3.209,6.938 -7.177,6.938 -3.961,0 -7.173,-3.105 -7.173,-6.938 0,-3.833 3.211,-6.938 7.173,-6.938 3.967,10e-4 7.177,3.106 7.177,6.938 z"
   id="path42049"
   inkscape:connector-curvature="0"
   style="fill:#de374b" />
	<path
   d="m 56.037,63.021 c -11.088,0 -22.166,0 -33.256,0 -7.042,0 -14.1,0 -21.153,0 -0.455,0 -0.827,-0.079 -0.827,-0.169 0,-2.312 0,-4.62 0,-6.933 0,-1.317 0,-7.209 0,-8.529 0,-0.092 0.372,-0.169 0.827,-0.169 11.082,0 47.354,4.568 54.409,4.568 0.246,0 0.437,0.017 0.565,0.046 0,0 0.007,0.002 0.013,0.006 0.017,0 0.017,0 0.027,0.004 0.132,0.021 0.217,0.062 0.217,0.111 0,2.312 0,4.62 0,6.926 0,1.325 0,2.645 0,3.97 0,0.09 -0.373,0.169 -0.822,0.169 z"
   id="path42051"
   inkscape:connector-curvature="0"
   style="fill:#c6a599" />
	<path
   d="m 55.238,64.069 c -11.091,0 -22.17,0 -33.258,0 -7.043,0 -14.1,0 -21.156,0 C 0.37,64.069 0,64 0,63.921 0,61.933 0,59.943 0,57.954 0,56.821 0,51.75 0,50.612 c 0,-0.079 0.37,-0.146 0.824,-0.146 11.082,0 47.355,3.932 54.414,3.932 0.246,0 0.434,0.017 0.563,0.042 0,0 0.008,0 0.012,0.004 0.018,0 0.018,0 0.029,0.002 0.128,0.021 0.216,0.055 0.216,0.098 0,1.989 0,3.977 0,5.963 0,1.14 0,2.277 0,3.414 10e-4,0.079 -0.375,0.148 -0.82,0.148 z"
   id="path42053"
   inkscape:connector-curvature="0"
   style="fill:#e4c6b8" />
</g>
</svg>