<?xml version="1.0" encoding="UTF-8" standalone="no"?>
<!-- Generator: Adobe Illustrator 16.0.0, SVG Export Plug-In . SVG Version: 6.00 Build 0)  -->

<svg
   xmlns:dc="http://purl.org/dc/elements/1.1/"
   xmlns:cc="http://creativecommons.org/ns#"
   xmlns:rdf="http://www.w3.org/1999/02/22-rdf-syntax-ns#"
   xmlns:svg="http://www.w3.org/2000/svg"
   xmlns="http://www.w3.org/2000/svg"
   xmlns:sodipodi="http://sodipodi.sourceforge.net/DTD/sodipodi-0.dtd"
   xmlns:inkscape="http://www.inkscape.org/namespaces/inkscape"
   version="1.1"
   id="Layer_1"
   x="0px"
   y="0px"
   width="64px"
   height="64px"
   viewBox="0 0 64 64"
   enable-background="new 0 0 64 64"
   xml:space="preserve"
   inkscape:version="0.48.5 r10040"
   sodipodi:docname="1F4F9.svg"
   inkscape:export-filename="D:\TESTINGEMOJI\SVGTEST\1F4F9.png"
   inkscape:export-xdpi="90"
   inkscape:export-ydpi="90"><metadata
   id="metadata4933"><rdf:RDF><cc:Work
       rdf:about=""><dc:format>image/svg+xml</dc:format><dc:type
         rdf:resource="http://purl.org/dc/dcmitype/StillImage" /><dc:title></dc:title></cc:Work></rdf:RDF></metadata><defs
   id="defs4931" /><sodipodi:namedview
   pagecolor="#ffffff"
   bordercolor="#666666"
   borderopacity="1"
   objecttolerance="10"
   gridtolerance="10"
   guidetolerance="10"
   inkscape:pageopacity="0"
   inkscape:pageshadow="2"
   inkscape:window-width="640"
   inkscape:window-height="480"
   id="namedview4929"
   showgrid="false"
   inkscape:zoom="3.6875"
   inkscape:cx="32"
   inkscape:cy="32"
   inkscape:window-x="461"
   inkscape:window-y="222"
   inkscape:window-maximized="0"
   inkscape:current-layer="Layer_1" />
<g
   id="g4903"
   transform="translate(0,10)">
	<path
   d="m 63.858,6.319 c 0,3.49 -3.304,6.315 -7.379,6.315 H 40.774 c -4.079,0 -7.384,-2.825 -7.384,-6.315 l 0,0 C 33.391,2.83 36.695,0 40.774,0 h 15.705 c 4.076,0 7.379,2.83 7.379,6.319 l 0,0 z"
   id="path4905"
   inkscape:connector-curvature="0"
   style="fill:#a7a8ac" />
	<path
   d="M 53.184,5.676 C 49.792,5.672 44.045,6.146 41.118,3.89 39.557,2.685 38.703,1.51 38.351,0.38 c -2.881,0.858 -4.96,3.181 -4.96,5.94 0,3.49 3.305,6.315 7.384,6.315 H 56.48 c 4.075,0 7.379,-2.825 7.379,-6.315 0,-0.318 -0.054,-0.619 -0.106,-0.924 -3.507,0.247 -7.018,0.28 -10.569,0.28 z"
   id="path4907"
   inkscape:connector-curvature="0"
   style="fill:#929497" />
	<path
   d="m 58.125,10.032 c -9.771,0 -19.543,0 -29.311,0 -6.214,0 -12.43,0 -18.645,0 -0.398,0 -0.728,0.231 -0.728,0.512 0,6.967 0,13.934 0,20.909 0,3.981 0,7.973 0,11.962 0,0.276 0.33,0.507 0.728,0.507 9.767,0 19.54,0 29.312,0 6.216,0 12.43,0 18.644,0 0.215,0 0.38,-0.054 0.496,-0.136 0,0 0.007,-0.009 0.016,-0.013 0,0 0.013,-0.013 0.021,-0.021 0.116,-0.078 0.193,-0.194 0.193,-0.338 0,-6.971 0,-13.938 0,-20.909 0,-3.989 0,-7.974 0,-11.962 0,-0.28 -0.33,-0.511 -0.726,-0.511 z"
   id="path4909"
   inkscape:connector-curvature="0"
   style="fill:#a7a8ac" />
	<path
   d="m 56.153,11.789 c -8.88,0 -17.765,0 -26.646,0 -5.647,0 -11.298,0 -16.947,0 -0.361,0 -0.662,0.206 -0.662,0.454 0,6.179 0,12.354 0,18.538 0,3.526 0,7.065 0,10.605 0,0.242 0.301,0.449 0.662,0.449 8.877,0 17.763,0 26.649,0 5.646,0 11.295,0 16.944,0 0.194,0 0.347,-0.046 0.446,-0.119 0,0 0.012,-0.013 0.016,-0.013 0.008,0 0.017,-0.012 0.021,-0.017 0.107,-0.07 0.178,-0.173 0.178,-0.301 0,-6.18 0,-12.359 0,-18.538 0,-3.535 0,-7.07 0,-10.605 -10e-4,-0.247 -0.305,-0.453 -0.661,-0.453 z"
   id="path4911"
   inkscape:connector-curvature="0"
   style="fill:#e7e6e6" />
	<path
   d="M 22.331,10.015 H 3.766 c -1.225,0 -2.359,0.302 -3.361,0.78 v 10.639 c 1.002,0.478 2.137,0.779 3.361,0.779 h 18.565 c 3.867,0 7.002,-2.731 7.002,-6.101 0,-3.366 -3.136,-6.097 -7.002,-6.097 z"
   id="path4913"
   inkscape:connector-curvature="0"
   style="fill:#e7e6e6" />
	<path
   d="m 46.941,22.394 c -6.29,0 -12.583,0 -18.874,0 -4.001,0 -8.004,0 -12.005,0 -0.256,0 -0.468,0.14 -0.468,0.31 0,4.174 0,8.349 0,12.531 0,2.389 0,4.777 0,7.169 0,0.165 0.212,0.306 0.468,0.306 6.29,0 12.581,0 18.873,0 4.003,0 8.005,0 12.006,0 0.139,0 0.243,-0.032 0.319,-0.082 0,0 0.005,-0.004 0.009,-0.008 0,0 0.011,-0.009 0.015,-0.013 0.073,-0.047 0.125,-0.116 0.125,-0.203 0,-4.178 0,-8.352 0,-12.531 0,-2.389 0,-4.781 0,-7.169 0,-0.17 -0.214,-0.31 -0.468,-0.31 z"
   id="path4915"
   inkscape:connector-curvature="0"
   style="fill:#a7a8ac" />
	<path
   d="m 44.61,23.627 c -5.341,0 -10.683,0 -16.024,0 -3.397,0 -6.796,0 -10.193,0 -0.216,0 -0.397,0.124 -0.397,0.268 0,3.65 0,7.31 0,10.968 0,2.087 0,4.183 0,6.274 0,0.145 0.181,0.264 0.397,0.264 5.343,0 10.682,0 16.026,0 3.397,0 6.796,0 10.191,0 0.118,0 0.208,-0.028 0.271,-0.07 0,0 0.005,-0.004 0.009,-0.008 0,0 0.008,-0.004 0.012,-0.009 0.062,-0.041 0.108,-0.102 0.108,-0.177 0,-3.654 0,-7.314 0,-10.968 0,-2.091 0,-4.183 0,-6.274 0,-0.144 -0.185,-0.268 -0.4,-0.268 z"
   id="path4917"
   inkscape:connector-curvature="0"
   style="fill:#243438" />
	<path
   d="m 26.769,27.687 c -1.013,0 -2.026,0 -3.04,0 -0.644,0 -1.29,0 -1.933,0 -0.041,0 -0.076,0.078 -0.076,0.173 0,2.384 0,4.765 0,7.152 0,1.362 0,2.723 0,4.088 0,0.096 0.035,0.174 0.076,0.174 1.013,0 2.025,0 3.04,0 0.644,0 1.289,0 1.933,0 0.022,0 0.039,-0.017 0.051,-0.045 0,0 0.002,0 0.002,-0.005 0,0 0.002,-0.004 0.002,-0.008 0.013,-0.024 0.021,-0.066 0.021,-0.116 0,-2.384 0,-4.764 0,-7.148 0,-1.361 0,-2.727 0,-4.092 0,-0.095 -0.035,-0.173 -0.076,-0.173 z"
   id="path4919"
   inkscape:connector-curvature="0"
   style="fill:#e7e6e6" />
	<path
   d="m 40.325,28.651 c -1.013,0 -2.025,0 -3.041,0 -0.644,0 -1.288,0 -1.932,0 -0.042,0 -0.076,0.045 -0.076,0.095 0,1.258 0,2.52 0,3.782 0,0.723 0,1.445 0,2.166 0,0.05 0.034,0.091 0.076,0.091 1.013,0 2.025,0 3.04,0 0.645,0 1.289,0 1.933,0 0.022,0 0.04,-0.008 0.052,-0.024 h 0.002 l 0.002,-0.005 c 0.013,-0.012 0.021,-0.036 0.021,-0.062 0,-1.263 0,-2.524 0,-3.782 0,-0.722 0,-1.443 0,-2.166 -10e-4,-0.049 -0.035,-0.095 -0.077,-0.095 z"
   id="path4921"
   inkscape:connector-curvature="0"
   style="fill:#e7e6e6" />
	<path
   d="m 48.519,7.796 c -1.429,0 -2.857,0 -4.289,0 -0.909,0 -1.82,0 -2.729,0 -0.058,0 -0.108,0.05 -0.108,0.099 0,1.357 0,2.718 0,4.076 0,0.775 0,1.551 0,2.33 0,0.054 0.051,0.099 0.108,0.099 1.429,0 2.857,0 4.29,0 0.908,0 1.819,0 2.728,0 0.032,0 0.057,-0.012 0.073,-0.029 h 0.004 l 0.002,-0.004 c 0.017,-0.017 0.029,-0.037 0.029,-0.066 0,-1.357 0,-2.718 0,-4.071 0,-0.78 0,-1.555 0,-2.335 0,-0.049 -0.05,-0.099 -0.108,-0.099 z"
   id="path4923"
   inkscape:connector-curvature="0"
   style="fill:#bb253f" />
	<path
   d="m 47.645,7.004 c -1.429,0 -2.858,0 -4.289,0 -0.91,0 -1.819,0 -2.729,0 -0.057,0 -0.106,0.049 -0.106,0.1 0,1.356 0,2.718 0,4.075 0,0.776 0,1.551 0,2.331 0,0.053 0.05,0.099 0.106,0.099 1.429,0 2.859,0 4.29,0 0.91,0 1.819,0 2.729,0 0.031,0 0.057,-0.013 0.072,-0.029 h 0.004 l 0.002,-0.004 c 0.017,-0.017 0.029,-0.038 0.029,-0.066 0,-1.358 0,-2.719 0,-4.072 0,-0.779 0,-1.555 0,-2.334 -10e-4,-0.051 -0.05,-0.1 -0.108,-0.1 z"
   id="path4925"
   inkscape:connector-curvature="0"
   style="fill:#df2c43" />
	<path
   d="m 3.785,25.966 c 0,-3.774 0,-7.552 0,-11.322 0,-2.401 0,-4.802 0,-7.202 0,-0.149 -0.027,-0.281 -0.058,-0.281 -0.777,0 -1.555,0 -2.334,0 -0.443,0 -0.891,0 -1.336,0 C 0.027,7.161 0,7.292 0,7.441 c 0,3.774 0,7.549 0,11.323 0,2.405 0,4.797 0,7.202 0,0.079 0.006,0.145 0.015,0.19 0,0 0.002,0 0.002,0.004 0,0.004 0.002,0.008 0.002,0.008 0.008,0.042 0.022,0.078 0.037,0.078 0.78,0 1.557,0 2.337,0 0.443,0 0.889,0 1.334,0 0.031,0.001 0.058,-0.131 0.058,-0.28 z"
   id="path4927"
   inkscape:connector-curvature="0"
   style="fill:#243438" />
</g>
</svg>