<?xml version="1.0" encoding="UTF-8" standalone="no"?>
<!-- Generator: Adobe Illustrator 16.0.0, SVG Export Plug-In . SVG Version: 6.00 Build 0)  -->

<svg
   xmlns:dc="http://purl.org/dc/elements/1.1/"
   xmlns:cc="http://creativecommons.org/ns#"
   xmlns:rdf="http://www.w3.org/1999/02/22-rdf-syntax-ns#"
   xmlns:svg="http://www.w3.org/2000/svg"
   xmlns="http://www.w3.org/2000/svg"
   xmlns:sodipodi="http://sodipodi.sourceforge.net/DTD/sodipodi-0.dtd"
   xmlns:inkscape="http://www.inkscape.org/namespaces/inkscape"
   version="1.1"
   id="Layer_1"
   x="0px"
   y="0px"
   width="64px"
   height="64px"
   viewBox="0 0 64 64"
   enable-background="new 0 0 64 64"
   xml:space="preserve"
   inkscape:version="0.48.5 r10040"
   sodipodi:docname="1F5FC.svg"
   inkscape:export-filename="D:\TESTINGEMOJI\SVGTEST\1F5FC.png"
   inkscape:export-xdpi="90"
   inkscape:export-ydpi="90"><metadata
   id="metadata5263"><rdf:RDF><cc:Work
       rdf:about=""><dc:format>image/svg+xml</dc:format><dc:type
         rdf:resource="http://purl.org/dc/dcmitype/StillImage" /><dc:title></dc:title></cc:Work></rdf:RDF></metadata><defs
   id="defs5261" /><sodipodi:namedview
   pagecolor="#ffffff"
   bordercolor="#666666"
   borderopacity="1"
   objecttolerance="10"
   gridtolerance="10"
   guidetolerance="10"
   inkscape:pageopacity="0"
   inkscape:pageshadow="2"
   inkscape:window-width="640"
   inkscape:window-height="480"
   id="namedview5259"
   showgrid="false"
   inkscape:zoom="3.6875"
   inkscape:cx="32"
   inkscape:cy="32"
   inkscape:window-x="453"
   inkscape:window-y="236"
   inkscape:window-maximized="0"
   inkscape:current-layer="Layer_1" />
<g
   id="g5235">
	<path
   fill="#8CC6EB"
   d="M64.166,57.248c0,3.823-3.097,6.922-6.916,6.922H6.914C3.096,64.17,0,61.071,0,57.248V6.918   C0,3.098,3.096,0,6.914,0H57.25c3.819,0,6.916,3.098,6.916,6.918V57.248z"
   id="path5237" />
	<path
   fill="#72A6C3"
   d="M0,48.859v8.389c0,3.823,3.096,6.922,6.914,6.922H57.25c3.819,0,6.916-3.099,6.916-6.922V6.918   C53.21,46.719,13.82,49.242,0,48.859z"
   id="path5239" />
	<g
   id="g5241">
		<path
   fill="#CB384F"
   d="M45.781,56.491c-0.976-3.037-6.8-5.243-13.846-5.243c-7.046,0-12.866,2.206-13.842,5.243l-0.298,0.926    h2.285l0.164-0.479c0.666-1.936,5.225-3.939,11.691-3.939c6.473,0,11.03,2.002,11.694,3.939l0.163,0.479h2.287L45.781,56.491z"
   id="path5243" />
		<path
   fill="#DE374B"
   d="M49.778,60.279c-0.274-0.503-0.542-1.001-0.811-1.498c-0.039-0.077-0.085-0.122-0.128-0.188    c-0.051-0.072-0.091-0.146-0.144-0.215c-0.099-0.11-0.191-0.196-0.286-0.262c-0.021-0.018-0.037-0.039-0.057-0.054    c-3.761-2.627-6.735-7.126-7.986-12.276c-0.673-2.764,0-2.868-1.407-5.456c-0.572-1.058-1.415-1.107-1.449-0.268    c-0.293,7.716,5.075,17.612,11.702,21.572C49.934,62.069,50.352,61.332,49.778,60.279z"
   id="path5245" />
		<path
   fill="#DE374B"
   d="M14.027,60.279c0.272-0.503,0.54-1.001,0.812-1.498c0.039-0.077,0.083-0.122,0.126-0.188    c0.047-0.072,0.091-0.146,0.146-0.215c0.095-0.11,0.187-0.196,0.284-0.262c0.021-0.018,0.038-0.039,0.057-0.054    c3.759-2.627,6.735-7.126,7.984-12.276c0.674-2.764,0.004-2.868,1.403-5.456c0.576-1.058,1.419-1.107,1.455-0.268    c0.292,7.716-5.077,17.612-11.702,21.572C13.872,62.069,13.452,61.332,14.027,60.279z"
   id="path5247" />
		<rect
   x="29.44"
   y="3.246"
   fill="#DE374B"
   width="4.995"
   height="58.582"
   id="rect5249" />
		<path
   fill="#DE374B"
   d="M40.4,41.748c0,0.432-1.349,0.785-3.01,0.785H26.483c-1.659,0-3.007-0.354-3.007-0.785v-2.467    c0-0.434,1.348-0.785,3.007-0.785h10.907c1.661,0,3.01,0.352,3.01,0.785V41.748z"
   id="path5251" />
		<path
   fill="#E7E6E6"
   d="M40.4,37.195c0,0.763-1.349,1.384-3.01,1.384H26.483c-1.659,0-3.007-0.621-3.007-1.384v-4.379    c0-0.763,1.348-1.38,3.007-1.38h10.907c1.661,0,3.01,0.617,3.01,1.38V37.195z"
   id="path5253" />
		<path
   fill="#E7E6E6"
   d="M36.813,19.63c0,0.438-0.776,0.798-1.734,0.798h-6.284c-0.956,0-1.732-0.36-1.732-0.798v-2.519    c0-0.439,0.776-0.8,1.732-0.8h6.284c0.958,0,1.734,0.361,1.734,0.8V19.63z"
   id="path5255" />
		<path
   fill="#E7E6E6"
   d="M36.813,10.586c0,0.439-0.776,0.796-1.734,0.796h-6.284c-0.956,0-1.732-0.357-1.732-0.796V8.061    c0-0.438,0.776-0.796,1.732-0.796h6.284c0.958,0,1.734,0.359,1.734,0.796V10.586z"
   id="path5257" />
	</g>
</g>
</svg>