<?xml version="1.0" encoding="UTF-8" standalone="no"?>
<!-- Generator: Adobe Illustrator 16.0.0, SVG Export Plug-In . SVG Version: 6.00 Build 0)  -->

<svg
   xmlns:dc="http://purl.org/dc/elements/1.1/"
   xmlns:cc="http://creativecommons.org/ns#"
   xmlns:rdf="http://www.w3.org/1999/02/22-rdf-syntax-ns#"
   xmlns:svg="http://www.w3.org/2000/svg"
   xmlns="http://www.w3.org/2000/svg"
   xmlns:sodipodi="http://sodipodi.sourceforge.net/DTD/sodipodi-0.dtd"
   xmlns:inkscape="http://www.inkscape.org/namespaces/inkscape"
   version="1.1"
   id="Layer_1"
   x="0px"
   y="0px"
   width="64px"
   height="64px"
   viewBox="0 0 64 64"
   enable-background="new 0 0 64 64"
   xml:space="preserve"
   inkscape:version="0.48.5 r10040"
   sodipodi:docname="1F610.svg"
   inkscape:export-filename="D:\TESTINGEMOJI\SVGTEST\1F610.png"
   inkscape:export-xdpi="90"
   inkscape:export-ydpi="90"><metadata
   id="metadata4308"><rdf:RDF><cc:Work
       rdf:about=""><dc:format>image/svg+xml</dc:format><dc:type
         rdf:resource="http://purl.org/dc/dcmitype/StillImage" /><dc:title></dc:title></cc:Work></rdf:RDF></metadata><defs
   id="defs4306" /><sodipodi:namedview
   pagecolor="#ffffff"
   bordercolor="#666666"
   borderopacity="1"
   objecttolerance="10"
   gridtolerance="10"
   guidetolerance="10"
   inkscape:pageopacity="0"
   inkscape:pageshadow="2"
   inkscape:window-width="640"
   inkscape:window-height="480"
   id="namedview4304"
   showgrid="false"
   inkscape:zoom="3.6875"
   inkscape:cx="32"
   inkscape:cy="32"
   inkscape:window-x="829"
   inkscape:window-y="322"
   inkscape:window-maximized="0"
   inkscape:current-layer="Layer_1" />
<g
   id="g4262">
	<g
   id="g4264">
		<g
   id="g4266">
			<path
   fill="#FBB041"
   d="M63.957,31.98c0,17.66-14.316,31.979-31.979,31.979C14.314,63.959,0,49.641,0,31.98     C0,14.316,14.314,0,31.979,0C49.641,0,63.957,14.316,63.957,31.98z"
   id="path4268" />
		</g>
	</g>
	<g
   id="g4270">
		<g
   id="g4272">
			<ellipse
   fill="#FFFFFF"
   cx="20.865"
   cy="28.481"
   rx="6.5"
   ry="9.737"
   id="ellipse4274" />
		</g>
	</g>
	<g
   id="g4276">
		<g
   id="g4278">
			<ellipse
   fill="#FFFFFF"
   cx="42.858"
   cy="28.481"
   rx="6.5"
   ry="9.737"
   id="ellipse4280" />
		</g>
	</g>
	<g
   id="g4282">
		<g
   id="g4284">
			<ellipse
   fill="#25333A"
   cx="20.866"
   cy="28.481"
   rx="4.206"
   ry="5.099"
   id="ellipse4286" />
		</g>
	</g>
	<g
   id="g4288">
		<g
   id="g4290">
			<ellipse
   fill="#25333A"
   cx="42.858"
   cy="28.481"
   rx="4.206"
   ry="5.099"
   id="ellipse4292" />
		</g>
	</g>
	<g
   opacity="0.9866"
   id="g4294">
		<g
   id="g4296">
			<g
   id="g4298">
				<path
   fill="#E79D3C"
   d="M15.219,41.251C9.551,29.093,9.298,16.007,14.421,5.186C5.739,10.904,0,20.727,0,31.901      C0,49.563,14.314,63.88,31.979,63.88c0.316,0,0.622-0.039,0.934-0.047C25.583,57.663,19.406,50.237,15.219,41.251z"
   id="path4300" />
			</g>
		</g>
	</g>
	<path
   fill="#633C17"
   d="M39.057,52.876c0,1.115-0.904,2.021-2.022,2.021H26.923c-1.118,0-2.022-0.906-2.022-2.021l0,0   c0-1.116,0.904-2.022,2.022-2.022h10.111C38.152,50.854,39.057,51.76,39.057,52.876L39.057,52.876z"
   id="path4302" />
</g>
</svg>