<?xml version="1.0" encoding="UTF-8" standalone="no"?>
<!-- Generator: Adobe Illustrator 16.0.0, SVG Export Plug-In . SVG Version: 6.00 Build 0)  -->

<svg
   xmlns:dc="http://purl.org/dc/elements/1.1/"
   xmlns:cc="http://creativecommons.org/ns#"
   xmlns:rdf="http://www.w3.org/1999/02/22-rdf-syntax-ns#"
   xmlns:svg="http://www.w3.org/2000/svg"
   xmlns="http://www.w3.org/2000/svg"
   xmlns:sodipodi="http://sodipodi.sourceforge.net/DTD/sodipodi-0.dtd"
   xmlns:inkscape="http://www.inkscape.org/namespaces/inkscape"
   version="1.1"
   id="Layer_1"
   x="0px"
   y="0px"
   width="64px"
   height="64px"
   viewBox="0 0 64 64"
   enable-background="new 0 0 64 64"
   xml:space="preserve"
   inkscape:version="0.48.5 r10040"
   sodipodi:docname="1F683.svg"
   inkscape:export-filename="D:\TESTINGEMOJI\SVGTEST\1F683.png"
   inkscape:export-xdpi="90"
   inkscape:export-ydpi="90"><metadata
   id="metadata4090"><rdf:RDF><cc:Work
       rdf:about=""><dc:format>image/svg+xml</dc:format><dc:type
         rdf:resource="http://purl.org/dc/dcmitype/StillImage" /><dc:title></dc:title></cc:Work></rdf:RDF></metadata><defs
   id="defs4088" /><sodipodi:namedview
   pagecolor="#ffffff"
   bordercolor="#666666"
   borderopacity="1"
   objecttolerance="10"
   gridtolerance="10"
   guidetolerance="10"
   inkscape:pageopacity="0"
   inkscape:pageshadow="2"
   inkscape:window-width="640"
   inkscape:window-height="480"
   id="namedview4086"
   showgrid="false"
   inkscape:zoom="3.6875"
   inkscape:cx="32"
   inkscape:cy="32"
   inkscape:window-x="357"
   inkscape:window-y="286"
   inkscape:window-maximized="0"
   inkscape:current-layer="Layer_1" />
<g
   id="g4028">
	<g
   id="g4030">
		<rect
   y="5.321"
   fill="#CDCCCB"
   width="63.988"
   height="1.674"
   id="rect4032" />
	</g>
	<path
   fill="#243438"
   d="M14.991,0L7.994,6.997l6.997,6.994l6.995-6.994L14.991,0z M14.991,11.218l-4.222-4.222l4.222-4.224   l4.223,4.224L14.991,11.218z"
   id="path4034" />
	<polygon
   fill="#CDCCCB"
   points="59.786,19.042 3.021,19.042 9.207,10.96 53.596,10.96  "
   id="polygon4036" />
	<polygon
   fill="#A7A8AC"
   points="57.599,17.373 5.454,17.373 11.14,12.47 51.905,12.47  "
   id="polygon4038" />
	<path
   fill="#E1AD81"
   d="M60.504,16.383c0-0.416-0.343-0.762-0.753-0.762c-18.863,0-37.714,0-56.576,0   c-0.412,0-0.751,0.346-0.751,0.762c0,9.348,0,18.697,0,28.044c0,0.414,0.34,0.758,0.751,0.758c18.862,0,37.713,0,56.576,0   c0.207,0,0.363-0.076,0.48-0.188c0.015-0.01,0.034-0.023,0.046-0.037c0.016-0.018,0.027-0.031,0.039-0.049   c0.109-0.119,0.188-0.275,0.188-0.484C60.504,35.08,60.504,25.73,60.504,16.383z"
   id="path4040" />
	<path
   fill="#F48020"
   d="M60.504,36.021c0-0.133-0.343-0.246-0.753-0.246c-18.859,0-37.714,0-56.576,0   c-0.41,0-0.751,0.113-0.751,0.246c0,2.975,0,5.95,0,8.924c0,0.131,0.342,0.24,0.751,0.24c18.862,0,37.717,0,56.576,0   c0.203,0,0.363-0.025,0.477-0.061c0,0,0.034-0.006,0.054-0.012c0.016-0.004,0.027-0.008,0.027-0.008   c0.117-0.047,0.195-0.096,0.195-0.16C60.504,41.971,60.504,38.995,60.504,36.021z"
   id="path4042" />
	<rect
   x="12.882"
   y="22.532"
   fill="#B3B2B3"
   width="47.287"
   height="13.374"
   id="rect4044" />
	<rect
   x="12.882"
   y="20.257"
   fill="#C2793E"
   width="47.287"
   height="13.374"
   id="rect4046" />
	<rect
   x="13.999"
   y="21.608"
   fill="#A2C3CB"
   width="42.229"
   height="10.872"
   id="rect4048" />
	<path
   fill="#E4E4E4"
   d="M20.682,46.981c-0.121-4.155-3.178-7.483-6.939-7.483c-3.763,0-6.82,3.328-6.947,7.483H20.682z"
   id="path4050" />
	<path
   fill="#E4E4E4"
   d="M20.443,43.162c-0.808-3.279-3.494-5.69-6.701-5.69c-3.202,0-5.897,2.411-6.705,5.69H20.443z"
   id="path4052" />
	<path
   fill="#E4E4E4"
   d="M53.713,46.981c-0.129-4.155-3.187-7.483-6.943-7.483c-3.765,0-6.823,3.328-6.952,7.483H53.713z"
   id="path4054" />
	<path
   fill="#E4E4E4"
   d="M53.471,43.162c-0.812-3.279-3.499-5.69-6.701-5.69s-5.894,2.411-6.702,5.69H53.471z"
   id="path4056" />
	<path
   fill="#243438"
   d="M19.655,47.429c0,3.638-2.649,6.584-5.914,6.584c-3.271,0-5.915-2.946-5.915-6.584   c0-3.637,2.644-6.583,5.915-6.583C17.006,40.846,19.655,43.792,19.655,47.429z"
   id="path4058" />
	<ellipse
   fill="#989897"
   cx="13.739"
   cy="47.341"
   rx="3.833"
   ry="4.267"
   id="ellipse4060" />
	<ellipse
   fill="#243438"
   cx="46.767"
   cy="47.429"
   rx="5.915"
   ry="6.584"
   id="ellipse4062" />
	<path
   fill="#989897"
   d="M50.601,47.429c0,2.358-1.715,4.271-3.831,4.271c-2.121,0-3.835-1.912-3.835-4.271   c0-2.355,1.714-4.267,3.835-4.267C48.886,43.162,50.601,45.073,50.601,47.429z"
   id="path4064" />
	<polygon
   fill="#9FD7F1"
   points="28.637,32.48 27.504,32.48 32.733,21.544 33.632,21.608  "
   id="polygon4066" />
	<polygon
   fill="#9FD7F1"
   points="47.543,32.412 46.418,32.412 51.647,21.476 52.545,21.542  "
   id="polygon4068" />
	<rect
   x="20.65"
   y="21.101"
   fill="#C2793E"
   width="1.691"
   height="11.886"
   id="rect4070" />
	<rect
   x="27.934"
   y="21.003"
   fill="#C2793E"
   width="1.691"
   height="11.884"
   id="rect4072" />
	<rect
   x="34.839"
   y="21.101"
   fill="#C2793E"
   width="1.687"
   height="11.886"
   id="rect4074" />
	<rect
   x="41.001"
   y="21.003"
   fill="#C2793E"
   width="1.688"
   height="11.884"
   id="rect4076" />
	<rect
   x="47.688"
   y="21.101"
   fill="#C2793E"
   width="1.687"
   height="11.886"
   id="rect4078" />
	<path
   fill="#C2793E"
   d="M4.274,20.458c0,2.648,0,5.286,0,7.936c0,1.68,0,3.361,0,5.042c0,0.104,0.055,0.195,0.119,0.195   c1.601,0,3.206,0,4.813,0c0.917,0,1.839,0,2.757,0c0.068,0,0.117-0.092,0.117-0.195c0-2.644,0-5.29,0-7.932   c0-1.685,0-3.361,0-5.046c0-0.059-0.01-0.105-0.029-0.137h-0.004l-0.002-0.006c-0.02-0.031-0.049-0.059-0.082-0.059   c-1.607,0-3.21,0-4.817,0c-0.922,0-1.836,0-2.753,0C4.329,20.257,4.274,20.349,4.274,20.458z"
   id="path4080" />
	<path
   fill="#A2C3CB"
   d="M4.853,21.864c0,2.111,0,4.22,0,6.334c0,1.344,0,2.685,0,4.03c0,0.082,0.043,0.154,0.102,0.154   c1.363,0,2.731,0,4.103,0c0.779,0,1.564,0,2.345,0c0.058,0,0.101-0.072,0.101-0.154c0-2.114,0-4.225,0-6.336   c0-1.344,0-2.681,0-4.029c0-0.044-0.008-0.083-0.027-0.109h-0.002v-0.004c-0.018-0.025-0.043-0.047-0.072-0.047   c-1.369,0-2.736,0-4.103,0c-0.783,0-1.566,0-2.345,0C4.896,21.704,4.853,21.78,4.853,21.864z"
   id="path4082" />
	<path
   fill="#F38F37"
   d="M60.504,35.219c0-0.025-0.343-0.045-0.753-0.045c-18.855,0-37.714,0-56.57,0   c-0.41,0-0.757,0.02-0.757,0.045c0,0.536,0,1.075,0,1.612c0,0.023,0.348,0.043,0.757,0.043c18.856,0,37.715,0,56.57,0   c0.203,0,0.363-0.002,0.48-0.01c0.015,0,0.034,0,0.046-0.002c0.016-0.002,0.031-0.002,0.031-0.002   c0.117-0.01,0.195-0.016,0.195-0.016C60.504,36.294,60.504,35.755,60.504,35.219z"
   id="path4084" />
</g>
</svg>