<?xml version="1.0" encoding="UTF-8" standalone="no"?>
<!-- Generator: Adobe Illustrator 16.0.0, SVG Export Plug-In . SVG Version: 6.00 Build 0)  -->

<svg
   xmlns:dc="http://purl.org/dc/elements/1.1/"
   xmlns:cc="http://creativecommons.org/ns#"
   xmlns:rdf="http://www.w3.org/1999/02/22-rdf-syntax-ns#"
   xmlns:svg="http://www.w3.org/2000/svg"
   xmlns="http://www.w3.org/2000/svg"
   xmlns:sodipodi="http://sodipodi.sourceforge.net/DTD/sodipodi-0.dtd"
   xmlns:inkscape="http://www.inkscape.org/namespaces/inkscape"
   version="1.1"
   id="Layer_1"
   x="0px"
   y="0px"
   width="64px"
   height="64px"
   viewBox="0 0 64 64"
   enable-background="new 0 0 64 64"
   xml:space="preserve"
   inkscape:version="0.48.5 r10040"
   sodipodi:docname="26BE.svg"
   inkscape:export-filename="D:\TESTINGEMOJI\SVGTEST\26BE.png"
   inkscape:export-xdpi="90"
   inkscape:export-ydpi="90"><metadata
   id="metadata3575"><rdf:RDF><cc:Work
       rdf:about=""><dc:format>image/svg+xml</dc:format><dc:type
         rdf:resource="http://purl.org/dc/dcmitype/StillImage" /><dc:title></dc:title></cc:Work></rdf:RDF></metadata><defs
   id="defs3573" /><sodipodi:namedview
   pagecolor="#ffffff"
   bordercolor="#666666"
   borderopacity="1"
   objecttolerance="10"
   gridtolerance="10"
   guidetolerance="10"
   inkscape:pageopacity="0"
   inkscape:pageshadow="2"
   inkscape:window-width="640"
   inkscape:window-height="480"
   id="namedview3571"
   showgrid="false"
   inkscape:zoom="3.6875"
   inkscape:cx="32"
   inkscape:cy="32"
   inkscape:window-x="599"
   inkscape:window-y="302"
   inkscape:window-maximized="0"
   inkscape:current-layer="Layer_1" />
<g
   id="g3539">
	<path
   fill="#E6E7E8"
   d="M58.356,13.975c9.997,14.554,6.304,34.45-8.25,44.444c-14.553,9.996-34.448,6.304-44.445-8.25   c-9.996-14.552-6.302-34.452,8.251-44.446C28.46-4.271,48.362-0.577,58.356,13.975z"
   id="path3541" />
	<path
   fill="#B7B7B7"
   d="M27.763,0.395C11.523,2.552-0.663,16.805,0.078,33.48C0.862,51.118,15.79,64.782,33.427,64.004   c11.497-0.511,21.302-7.033,26.52-16.398C13.916,50.374,3.591,19.883,27.763,0.395z"
   id="path3543" />
	<path
   fill="#808184"
   d="M45.753,60.934c0,0-15.262-34.011,0.995-57.232l1.364,0.752c0,0-17.032,23.333,0.875,54.736L45.753,60.934z   "
   id="path3545" />
	<path
   fill="#808184"
   d="M5.661,50.169c0,0,15.042-22.335,10.894-46.08l-1.852,1.273c0,0,8.117,6.626-10.2,43.118"
   id="path3547" />
	<path
   fill="#BE1E2D"
   d="M14.117,45.689c-0.233-0.157-8.149-5.493-9.366-6.309c-0.498-0.337-0.89,0.134-0.714,0.691   c1.602,5.104,6.248,8.236,10.129,6.821C14.595,46.746,14.615,46.025,14.117,45.689z"
   id="path3549" />
	<path
   fill="#BE1E2D"
   d="M20.028,34.533C19.69,34.431,8.371,30.85,6.635,30.3c-0.713-0.227-1.143,0.502-0.812,1.127   c3.022,5.692,9.669,7.797,14.484,4.577C20.84,35.658,20.733,34.762,20.028,34.533z"
   id="path3551" />
	<path
   fill="#BE1E2D"
   d="M7.986,24.759c0.345,0.055,12.068,1.943,13.866,2.233c0.737,0.118,1.052-0.666,0.635-1.233   c-3.817-5.192-10.703-6.304-14.996-2.412C7.016,23.767,7.251,24.639,7.986,24.759z"
   id="path3553" />
	<path
   fill="#BE1E2D"
   d="M32.2,29.199c0.388-0.06,13.64-1.977,15.672-2.27c0.831-0.119,0.91-1.07,0.268-1.541   c-5.858-4.3-13.639-3.174-16.949,2.455C30.82,28.454,31.363,29.317,32.2,29.199z"
   id="path3555" />
	<path
   fill="#BE1E2D"
   d="M47.541,34.584c-0.391,0.054-13.677,1.727-15.712,1.98c-0.835,0.104-0.931,1.053-0.3,1.535   c5.781,4.408,13.578,3.431,16.996-2.144C48.902,35.353,48.376,34.479,47.541,34.584z"
   id="path3557" />
	<path
   fill="#BE1E2D"
   d="M46.78,43.716c-0.267,0.099-9.297,3.363-10.682,3.864c-0.576,0.206-0.482,0.88,0.038,1.113   c4.76,2.157,10.06,0.244,11.554-4.176C47.857,44.037,47.352,43.511,46.78,43.716z"
   id="path3559" />
	<path
   fill="#BE1E2D"
   d="M48.093,52.273c-0.189,0.095-6.578,3.177-7.56,3.649c-0.403,0.195-0.362,0.767-0.008,0.951   c3.238,1.688,6.991-0.122,8.174-3.944C48.829,52.514,48.498,52.082,48.093,52.273z"
   id="path3561" />
	<path
   fill="#BE1E2D"
   d="M35.215,18.732c0.321-0.01,11.13-0.27,12.785-0.31c0.684-0.014,0.912-0.804,0.486-1.265   c-3.878-4.215-10.224-4.063-13.826,0.333C34.26,17.965,34.538,18.748,35.215,18.732z"
   id="path3563" />
	<path
   fill="#BE1E2D"
   d="M39.974,9.053c0.249,0.065,8.683,2.245,9.971,2.58c0.536,0.138,0.898-0.428,0.676-0.877   c-1.992-4.132-6.941-5.411-10.78-2.79C39.414,8.249,39.442,8.915,39.974,9.053z"
   id="path3565" />
	<path
   fill="#BE1E2D"
   d="M11.14,16.141c0.264,0.036,9.281,1.318,10.665,1.511c0.569,0.083,0.798-0.522,0.468-0.952   c-3.001-3.927-8.295-4.682-11.535-1.637C10.38,15.394,10.573,16.058,11.14,16.141z"
   id="path3567" />
	<path
   fill="#BE1E2D"
   d="M12.641,10.223c0.199-0.012,6.989-0.276,8.031-0.319c0.43-0.016,0.515-0.493,0.215-0.765   c-2.729-2.479-6.717-2.323-8.685,0.343C11.982,9.772,12.212,10.237,12.641,10.223z"
   id="path3569" />
</g>
</svg>