<?xml version="1.0" encoding="UTF-8" standalone="no"?>
<!-- Generator: Adobe Illustrator 16.0.0, SVG Export Plug-In . SVG Version: 6.00 Build 0)  -->

<svg
   xmlns:dc="http://purl.org/dc/elements/1.1/"
   xmlns:cc="http://creativecommons.org/ns#"
   xmlns:rdf="http://www.w3.org/1999/02/22-rdf-syntax-ns#"
   xmlns:svg="http://www.w3.org/2000/svg"
   xmlns="http://www.w3.org/2000/svg"
   xmlns:sodipodi="http://sodipodi.sourceforge.net/DTD/sodipodi-0.dtd"
   xmlns:inkscape="http://www.inkscape.org/namespaces/inkscape"
   version="1.1"
   id="Layer_1"
   x="0px"
   y="0px"
   width="64px"
   height="64px"
   viewBox="0 0 64 64"
   enable-background="new 0 0 64 64"
   xml:space="preserve"
   inkscape:version="0.48.5 r10040"
   sodipodi:docname="26C4.svg"
   inkscape:export-filename="D:\TESTINGEMOJI\SVGTEST\26C4.png"
   inkscape:export-xdpi="90"
   inkscape:export-ydpi="90"><metadata
   id="metadata3773"><rdf:RDF><cc:Work
       rdf:about=""><dc:format>image/svg+xml</dc:format><dc:type
         rdf:resource="http://purl.org/dc/dcmitype/StillImage" /><dc:title></dc:title></cc:Work></rdf:RDF></metadata><defs
   id="defs3771" /><sodipodi:namedview
   pagecolor="#ffffff"
   bordercolor="#666666"
   borderopacity="1"
   objecttolerance="10"
   gridtolerance="10"
   guidetolerance="10"
   inkscape:pageopacity="0"
   inkscape:pageshadow="2"
   inkscape:window-width="640"
   inkscape:window-height="480"
   id="namedview3769"
   showgrid="false"
   inkscape:zoom="3.6875"
   inkscape:cx="32"
   inkscape:cy="32"
   inkscape:window-x="499"
   inkscape:window-y="301"
   inkscape:window-maximized="0"
   inkscape:current-layer="Layer_1" />
<g
   id="g3677"
   transform="translate(-2,0)">
	<path
   d="m 54.827,33.992 2.814,-6.168 c 0.065,-0.149 -0.278,-0.456 -0.773,-0.68 -0.495,-0.228 -0.951,-0.289 -1.021,-0.138 l -3.054,6.696 -10.041,3.75 c -0.206,0.079 -0.222,0.554 -0.031,1.061 0.19,0.514 0.513,0.863 0.721,0.786 l 10.04,-3.752 6.697,3.055 c 0.151,0.064 0.453,-0.277 0.682,-0.774 0.224,-0.495 0.282,-0.95 0.138,-1.02 l -6.172,-2.816 z"
   id="path3679"
   inkscape:connector-curvature="0"
   style="fill:#633c17" />
</g>
<g
   id="g3681"
   transform="translate(-2,0)">
	<path
   d="M 15.175,33.992 12.36,27.824 c -0.065,-0.149 0.279,-0.456 0.772,-0.68 0.497,-0.228 0.953,-0.289 1.021,-0.138 l 3.053,6.696 10.043,3.75 c 0.208,0.079 0.22,0.554 0.031,1.061 -0.188,0.514 -0.515,0.863 -0.721,0.786 L 16.518,35.547 9.822,38.602 C 9.669,38.666 9.366,38.325 9.14,37.828 8.916,37.333 8.855,36.878 9.001,36.808 l 6.174,-2.816 z"
   id="path3683"
   inkscape:connector-curvature="0"
   style="fill:#633c17" />
</g>
<g
   id="g3685"
   transform="translate(-2,0)">
	<path
   d="m 19.654,53.769 c 0,5.652 6.747,10.231 15.073,10.231 8.326,0 15.068,-4.579 15.068,-10.231 0,-5.65 -6.742,-19.585 -15.068,-19.585 -8.326,0 -15.073,13.934 -15.073,19.585 z"
   id="path3687"
   inkscape:connector-curvature="0"
   style="fill:#d1d2d3" />
</g>
<g
   id="g3689"
   transform="translate(-2,0)">
	<path
   d="m 46.65,35.957 c 0,6.273 -5.338,11.361 -11.924,11.361 -6.589,0 -11.925,-5.088 -11.925,-11.361 0,-6.279 5.336,-11.369 11.925,-11.369 6.587,0 11.924,5.09 11.924,11.369 z"
   id="path3691"
   inkscape:connector-curvature="0"
   style="fill:#d1d2d3" />
</g>
<g
   id="g3693"
   transform="translate(-2,0)">
	<path
   d="m 37.583,38.741 c 0,1.544 -1.28,2.792 -2.856,2.792 -1.579,0 -2.856,-1.248 -2.856,-2.792 0,-1.54 1.277,-2.784 2.856,-2.784 1.576,0 2.856,1.244 2.856,2.784 z"
   id="path3695"
   inkscape:connector-curvature="0"
   style="fill:#243438" />
</g>
<g
   id="g3697"
   transform="translate(-2,0)">
	<path
   d="m 37.583,50.104 c 0,1.544 -1.28,2.792 -2.856,2.792 -1.579,0 -2.856,-1.248 -2.856,-2.792 0,-1.538 1.277,-2.786 2.856,-2.786 1.576,0 2.856,1.248 2.856,2.786 z"
   id="path3699"
   inkscape:connector-curvature="0"
   style="fill:#243438" />
</g>
<g
   id="g3701"
   transform="translate(-2,0)">
	<g
   id="g3703">
		<path
   d="m 47.104,18.645 c 0,6.515 -5.538,11.799 -12.377,11.799 -6.836,0 -12.377,-5.285 -12.377,-11.799 0,-6.517 5.541,-11.797 12.377,-11.797 6.838,0 12.377,5.28 12.377,11.797 z"
   id="path3705"
   inkscape:connector-curvature="0"
   style="fill:#d1d2d3" />
	</g>
	<g
   id="g3707">
		<path
   d="m 32.055,17.354 c 0,1.037 -0.735,1.882 -1.631,1.882 -0.896,0 -1.628,-0.845 -1.628,-1.882 0,-1.036 0.732,-1.882 1.628,-1.882 0.896,0 1.631,0.847 1.631,1.882 z"
   id="path3709"
   inkscape:connector-curvature="0"
   style="fill:#25333a" />
	</g>
	<g
   id="g3711">
		<path
   d="m 40.562,17.354 c 0,1.037 -0.723,1.882 -1.623,1.882 -0.899,0 -1.63,-0.845 -1.63,-1.882 0,-1.036 0.73,-1.882 1.63,-1.882 0.9,0 1.623,0.847 1.623,1.882 z"
   id="path3713"
   inkscape:connector-curvature="0"
   style="fill:#25333a" />
	</g>
	<g
   id="g3715"
   style="opacity:0.6">
		<path
   d="m 28.236,22.065 c -2.192,-4.487 -2.287,-9.314 -0.305,-13.302 -3.361,2.106 -5.582,5.729 -5.582,9.854 0,6.513 5.541,11.793 12.377,11.793 0.12,0 0.238,-0.01 0.361,-0.018 -2.837,-2.272 -5.225,-5.01 -6.851,-8.327 z"
   id="path3717"
   inkscape:connector-curvature="0"
   style="fill:#bcbdbf" />
	</g>
	<g
   id="g3719">
		<path
   d="m 42.571,21.221 c -1.597,3.558 -5.88,5.379 -9.762,5.475 -1.006,0.024 -1.01,1.515 0,1.489 4.377,-0.104 9.308,-2.187 11.111,-6.212 0.394,-0.876 -0.953,-1.635 -1.349,-0.752 z"
   id="path3721"
   inkscape:connector-curvature="0"
   style="fill:#243438" />
	</g>
</g>
<g
   id="g3723"
   transform="translate(-2,0)">
	<path
   d="m 35.273,22.651 c -2.906,-0.666 -2.833,-3.289 0.066,-2.619 2.907,0.67 5.243,1.801 5.222,2.522 -0.017,0.723 -2.388,0.769 -5.288,0.097 z"
   id="path3725"
   inkscape:connector-curvature="0"
   style="fill:#f79420" />
</g>
<g
   id="g3727"
   transform="translate(-2,0)">
	<path
   d="m 22.053,16.103 0.324,0.507 0.318,-0.128 c 0,0 -0.241,-0.538 -0.263,-0.546 -0.023,-0.008 -0.2,-0.016 -0.2,-0.016 l -0.179,0.183 z"
   id="path3729"
   inkscape:connector-curvature="0"
   style="fill:#323232" />
</g>
<g
   id="g3731"
   transform="translate(-2,0)">
	<g
   id="g3733">
		
			<ellipse
   transform="matrix(0.7509,-0.6604,0.6604,0.7509,-1.5521,20.4292)"
   cx="26.302999"
   cy="12.272"
   rx="7.5939999"
   ry="1.5140001"
   id="ellipse3735"
   sodipodi:cx="26.302999"
   sodipodi:cy="12.272"
   sodipodi:rx="7.5939999"
   sodipodi:ry="1.5140001"
   style="fill:#577482"
   d="m 33.896999,12.272 c 0,0.836159 -3.399949,1.514 -7.594,1.514 -4.19405,0 -7.593999,-0.677841 -7.593999,-1.514 0,-0.836159 3.399949,-1.514 7.593999,-1.514 4.194051,0 7.594,0.677841 7.594,1.514 z" />
	</g>
	<g
   id="g3737">
		
			<ellipse
   transform="matrix(0.7509,-0.6604,0.6604,0.7509,-1.7164,20.7353)"
   cx="26.631001"
   cy="12.643"
   rx="7.5949998"
   ry="1.515"
   id="ellipse3739"
   sodipodi:cx="26.631001"
   sodipodi:cy="12.643"
   sodipodi:rx="7.5949998"
   sodipodi:ry="1.515"
   style="fill:#3b525e"
   d="m 34.226,12.643 c 0,0.836711 -3.400397,1.515 -7.594999,1.515 -4.194603,0 -7.595,-0.678289 -7.595,-1.515 0,-0.836712 3.400397,-1.515 7.595,-1.515 4.194602,0 7.594999,0.678288 7.594999,1.515 z" />
	</g>
	<g
   id="g3741">
		<polygon
   points="22.303,15.783 30.645,8.783 23.311,0.109 18.393,4.191 14.694,7.69 "
   id="polygon3743"
   style="fill:#3b525e" />
	</g>
	<g
   id="g3745">
		<path
   d="m 29.149,10.036 c -0.01,-0.138 0.006,-0.279 0.067,-0.409 0.2,-0.448 0.395,-0.894 0.517,-1.369 0.033,-0.132 0.094,-0.248 0.171,-0.352 l -6.593,-7.797 -4.917,4.083 -1.003,0.948 3.583,-2.976 7.287,8.619 0.888,-0.747 z"
   id="path3747"
   inkscape:connector-curvature="0"
   style="fill:#243438" />
	</g>
	<g
   id="g3749">
		<polygon
   points="15.959,7.215 22.122,13.724 23.509,12.58 17.332,5.991 "
   id="polygon3751"
   style="fill:#7196a8" />
	</g>
	<g
   id="g3753">
		<path
   d="m 23.311,0.109 c 0.442,0.503 -1.13,2.605 -3.509,4.697 -2.38,2.094 -4.666,3.383 -5.108,2.884 -0.442,-0.507 1.129,-2.607 3.507,-4.699 2.381,-2.094 4.668,-3.385 5.11,-2.882 z"
   id="path3755"
   inkscape:connector-curvature="0"
   style="fill:#577482" />
	</g>
	<g
   id="g3757">
		
			<ellipse
   transform="matrix(0.7508,-0.6605,0.6605,0.7508,-1.2906,20.1642)"
   cx="26.077999"
   cy="11.792"
   rx="5.4749999"
   ry="1.0039999"
   id="ellipse3759"
   sodipodi:cx="26.077999"
   sodipodi:cy="11.792"
   sodipodi:rx="5.4749999"
   sodipodi:ry="1.0039999"
   style="fill:#fbb03b"
   d="m 31.552999,11.792 c 0,0.554494 -2.451241,1.004 -5.475,1.004 -3.023759,0 -5.475,-0.449506 -5.475,-1.004 0,-0.554494 2.451241,-1.004 5.475,-1.004 3.023759,0 5.475,0.449506 5.475,1.004 z" />
	</g>
	<g
   id="g3761">
		<path
   d="m 20.338,13.698 c 0,0 4.664,-1.627 8.291,-7.297 l 1.56,1.774 -3.304,3.446 -4.917,3.788 -1.63,-1.711 z"
   id="path3763"
   inkscape:connector-curvature="0"
   style="fill:#fbb03b" />
	</g>
	<g
   id="g3765">
		<path
   d="m 18.201,2.991 c -0.595,0.524 -1.142,1.051 -1.619,1.55 2.417,-1.906 5.081,-1.554 5.086,-1.552 1.265,-1.379 1.953,-2.527 1.643,-2.88 -0.442,-0.503 -2.729,0.788 -5.11,2.882 z"
   id="path3767"
   inkscape:connector-curvature="0"
   style="fill:#243438" />
	</g>
</g>
</svg>