<?xml version="1.0" encoding="UTF-8" standalone="no"?>
<!-- Generator: Adobe Illustrator 16.0.0, SVG Export Plug-In . SVG Version: 6.00 Build 0)  -->

<svg
   xmlns:dc="http://purl.org/dc/elements/1.1/"
   xmlns:cc="http://creativecommons.org/ns#"
   xmlns:rdf="http://www.w3.org/1999/02/22-rdf-syntax-ns#"
   xmlns:svg="http://www.w3.org/2000/svg"
   xmlns="http://www.w3.org/2000/svg"
   xmlns:sodipodi="http://sodipodi.sourceforge.net/DTD/sodipodi-0.dtd"
   xmlns:inkscape="http://www.inkscape.org/namespaces/inkscape"
   version="1.1"
   id="Layer_1"
   x="0px"
   y="0px"
   width="64px"
   height="64px"
   viewBox="0 0 64 64"
   enable-background="new 0 0 64 64"
   xml:space="preserve"
   inkscape:version="0.48.5 r10040"
   sodipodi:docname="2755.svg"
   inkscape:export-filename="D:\TESTINGEMOJI\SVGTEST\2755.png"
   inkscape:export-xdpi="90"
   inkscape:export-ydpi="90"><metadata
   id="metadata3411"><rdf:RDF><cc:Work
       rdf:about=""><dc:format>image/svg+xml</dc:format><dc:type
         rdf:resource="http://purl.org/dc/dcmitype/StillImage" /><dc:title></dc:title></cc:Work></rdf:RDF></metadata><defs
   id="defs3409" /><sodipodi:namedview
   pagecolor="#ffffff"
   bordercolor="#666666"
   borderopacity="1"
   objecttolerance="10"
   gridtolerance="10"
   guidetolerance="10"
   inkscape:pageopacity="0"
   inkscape:pageshadow="2"
   inkscape:window-width="640"
   inkscape:window-height="480"
   id="namedview3407"
   showgrid="false"
   inkscape:zoom="3.6875"
   inkscape:cx="32"
   inkscape:cy="32"
   inkscape:window-x="524"
   inkscape:window-y="260"
   inkscape:window-maximized="0"
   inkscape:current-layer="Layer_1" />
<g
   id="g3401">
	<path
   fill="#D1D2D2"
   d="M26.948,37.091c0.243,2.531,0.655,4.412,1.222,5.653c0.574,1.237,1.593,1.854,3.064,1.854   c0.275,0,0.521-0.043,0.765-0.093c0.25,0.05,0.495,0.093,0.772,0.093c1.467,0,2.489-0.617,3.06-1.854   c0.57-1.241,0.975-3.122,1.223-5.653l1.306-19.542c0.243-3.809,0.367-6.542,0.367-8.201c0-2.258-0.589-4.019-1.771-5.285   c-1.186-1.265-2.744-1.896-4.674-1.896c-0.103,0-0.18,0.023-0.281,0.027c-0.096-0.004-0.175-0.027-0.275-0.027   c-1.934,0-3.489,0.631-4.673,1.896c-1.183,1.267-1.776,3.027-1.776,5.286c0,1.659,0.121,4.392,0.368,8.201L26.948,37.091z"
   id="path3403" />
	<path
   fill="#D1D2D2"
   d="M32.046,51.74c-1.874,0-3.466,0.591-4.788,1.773c-1.321,1.183-1.983,2.619-1.983,4.305   c0,1.903,0.67,3.401,2.003,4.489c1.336,1.088,2.894,1.632,4.675,1.632c1.813,0,3.394-0.536,4.746-1.611   c1.35-1.072,2.025-2.578,2.025-4.508c0-1.686-0.646-3.122-1.938-4.305C35.494,52.331,33.915,51.74,32.046,51.74z"
   id="path3405" />
</g>
</svg>