<?xml version="1.0" encoding="UTF-8" standalone="no"?>
<!-- Generator: Adobe Illustrator 16.0.0, SVG Export Plug-In . SVG Version: 6.00 Build 0)  -->

<svg
   xmlns:dc="http://purl.org/dc/elements/1.1/"
   xmlns:cc="http://creativecommons.org/ns#"
   xmlns:rdf="http://www.w3.org/1999/02/22-rdf-syntax-ns#"
   xmlns:svg="http://www.w3.org/2000/svg"
   xmlns="http://www.w3.org/2000/svg"
   xmlns:sodipodi="http://sodipodi.sourceforge.net/DTD/sodipodi-0.dtd"
   xmlns:inkscape="http://www.inkscape.org/namespaces/inkscape"
   version="1.1"
   id="Layer_1"
   x="0px"
   y="0px"
   width="64px"
   height="64px"
   viewBox="0 0 64 64"
   enable-background="new 0 0 64 64"
   xml:space="preserve"
   inkscape:version="0.48.5 r10040"
   sodipodi:docname="2935.svg"
   inkscape:export-filename="D:\TESTINGEMOJI\SVGTEST\2935.png"
   inkscape:export-xdpi="90"
   inkscape:export-ydpi="90"><metadata
   id="metadata3708"><rdf:RDF><cc:Work
       rdf:about=""><dc:format>image/svg+xml</dc:format><dc:type
         rdf:resource="http://purl.org/dc/dcmitype/StillImage" /><dc:title></dc:title></cc:Work></rdf:RDF></metadata><defs
   id="defs3706" /><sodipodi:namedview
   pagecolor="#ffffff"
   bordercolor="#666666"
   borderopacity="1"
   objecttolerance="10"
   gridtolerance="10"
   guidetolerance="10"
   inkscape:pageopacity="0"
   inkscape:pageshadow="2"
   inkscape:window-width="640"
   inkscape:window-height="480"
   id="namedview3704"
   showgrid="false"
   inkscape:zoom="3.6875"
   inkscape:cx="32"
   inkscape:cy="32"
   inkscape:window-x="509"
   inkscape:window-y="360"
   inkscape:window-maximized="0"
   inkscape:current-layer="Layer_1" />
<g
   id="g3686">
	<g
   id="g3688">
		<path
   fill="#1B75BB"
   d="M63.998,56.913c0,3.802-3.076,6.882-6.876,6.882H7.081c-3.795,0-6.874-3.08-6.874-6.882V6.879    C0.207,3.08,3.285,0,7.081,0h50.042c3.8,0,6.876,3.08,6.876,6.879V56.913z"
   id="path3690" />
		<path
   fill="#0867A3"
   d="M0.207,48.574v8.339c0,3.802,3.078,6.882,6.874,6.882h50.042c3.8,0,6.876-3.08,6.876-6.882V6.879    C53.105,46.446,13.946,48.954,0.207,48.574z"
   id="path3692" />
	</g>
	<g
   id="g3694">
		<g
   id="g3696">
			<path
   fill="#FFFFFF"
   d="M18.939,7.597c0.655,2.83,0.899,5.724,0.966,8.731c5.412,0.204,9.293,1.84,11.596,4.95     c0.566,0.739,1.009,1.611,1.321,2.618c0.311,1.001,0.509,1.975,0.587,2.914c0.079,0.939,0.12,2.232,0.12,3.89v7.54h-0.035v9.952     h0.824c1.394,0,2.524-0.142,3.394-0.422c0.872-0.276,1.547-0.874,2.028-1.791c0.479-0.913,0.719-2.28,0.719-4.085V28.917     c0-2.251-0.129-4.283-0.382-6.076c-0.255-1.802-0.697-3.48-1.322-5.047c-0.625-1.565-1.458-3.004-2.498-4.322     c-1.349-1.677-2.883-3.045-4.597-4.121c-1.708-1.072-3.633-1.868-5.771-2.381c-1.891-0.455-3.991-0.676-6.239-0.729     C19.48,6.729,19.239,7.181,18.939,7.597z"
   id="path3698" />
			<path
   fill="#FFFFFF"
   d="M26.301,40.399c-0.897,0.598-1.542,1.719-1.648,3.045l12.303,14.153l12.219-14.144     c-0.105-1.334-0.748-2.457-1.649-3.055H26.301z"
   id="path3700" />
		</g>
		<circle
   fill="#FFFFFF"
   cx="20.143"
   cy="11.313"
   r="5.115"
   id="circle3702" />
	</g>
</g>
</svg>