<?xml version="1.0"?><svg xmlns="http://www.w3.org/2000/svg" width="52" height="52" viewBox="0 0 52 52"><path fill="#fff" d="m13 4h-6c-1.7 0-3 1.3-3 3v6c0 1.7 1.3 3 3 3h6c1.7 0 3-1.3 3-3v-6c0-1.7-1.3-3-3-3z m0 32h-6c-1.7 0-3 1.3-3 3v6c0 1.7 1.3 3 3 3h6c1.7 0 3-1.3 3-3v-6c0-1.7-1.3-3-3-3z m0-16h-6c-1.7 0-3 1.3-3 3v6c0 1.7 1.3 3 3 3h6c1.7 0 3-1.3 3-3v-6c0-1.7-1.3-3-3-3z m16-16h-6c-1.7 0-3 1.3-3 3v6c0 1.7 1.3 3 3 3h6c1.7 0 3-1.3 3-3v-6c0-1.7-1.3-3-3-3z m0 32h-6c-1.7 0-3 1.3-3 3v6c0 1.7 1.3 3 3 3h6c1.7 0 3-1.3 3-3v-6c0-1.7-1.3-3-3-3z m0-16h-6c-1.7 0-3 1.3-3 3v6c0 1.7 1.3 3 3 3h6c1.7 0 3-1.3 3-3v-6c0-1.7-1.3-3-3-3z m16-16h-6c-1.7 0-3 1.3-3 3v6c0 1.7 1.3 3 3 3h6c1.7 0 3-1.3 3-3v-6c0-1.7-1.3-3-3-3z m0 32h-6c-1.7 0-3 1.3-3 3v6c0 1.7 1.3 3 3 3h6c1.7 0 3-1.3 3-3v-6c0-1.7-1.3-3-3-3z m0-16h-6c-1.7 0-3 1.3-3 3v6c0 1.7 1.3 3 3 3h6c1.7 0 3-1.3 3-3v-6c0-1.7-1.3-3-3-3z"></path></svg>