<?xml version="1.0"?><svg xmlns="http://www.w3.org/2000/svg" width="52" height="52" viewBox="0 0 52 52"><g fill="#fff"><path d="m9 3.5c0-0.8-0.7-1.5-1.5-1.5h-4c-0.8 0-1.5 0.7-1.5 1.5v31c0 0.8 0.7 1.5 1.5 1.5h4c0.8 0 1.5-0.7 1.5-1.5v-31z m41 0c0-0.8-0.7-1.5-1.5-1.5h-4c-0.8 0-1.5 0.7-1.5 1.5v31c0 0.8 0.7 1.5 1.5 1.5h4c0.8 0 1.5-0.7 1.5-1.5v-31z m-12.5-1.5h-3c-0.8 0-1.5 0.8-1.5 1.6v12.4c0 0.4 0.2 0.7 0.6 0.9 1.7 0.9 3.2 2 4.5 3.3 0.3 0.3 0.9 0.1 0.9-0.3v-16.3c0-0.8-0.7-1.6-1.5-1.6z m-13.4 13.2c0.6-0.1 1.3-0.1 1.9-0.1s1.3 0 1.9 0.1 1.1-0.4 1.1-1v-10.6c0-0.8-0.7-1.6-1.5-1.6h-3c-0.8 0-1.5 0.8-1.5 1.6v10.6c0 0.6 0.5 1.1 1.1 1z m-10.2 5c1.3-1.4 2.9-2.5 4.6-3.3 0.3-0.2 0.5-0.5 0.5-0.9v-12.4c0-0.8-0.7-1.6-1.5-1.6h-3c-0.8 0-1.5 0.8-1.5 1.6v16.3c0 0.4 0.5 0.6 0.9 0.3z m12.1-1.1c-7.2 0-13 5.8-13 13 0 2.2 0.6 4.4 1.6 6.2l-7.1 7.1c-0.6 0.6-0.6 1.5 0 2.1l2.1 2.1c0.6 0.6 1.5 0.6 2.1 0l6.9-6.9c2.1 1.5 4.7 2.4 7.4 2.4 7.2 0 13-5.8 13-13s-5.8-13-13-13z m0 20c-3.9 0-7-3.1-7-7s3.1-7 7-7 7 3.1 7 7-3.1 7-7 7z"></path></g></svg>