<?xml version="1.0"?><svg xmlns="http://www.w3.org/2000/svg" width="52" height="52" viewBox="0 0 52 52"><g fill="#fff"><path d="m40.7 31.4c-1.7-0.4-3.3-0.2-4.7 0.3l-22.1-29.3c-0.3-0.4-1-0.5-1.4-0.2l-0.8 0.6c-1.7 1.3-2 3.8-0.7 5.6l10.6 14c0.4 0.5 0.4 1.3 0 1.8l-5.7 7.5c-1.4-0.5-3.1-0.6-4.7-0.3-3.7 0.8-6.6 3.8-7.1 7.5-0.8 5.9 4.4 11 10.5 10 3.6-0.6 6.5-3.4 7.3-6.9 0.5-2.5 0-4.8-1.2-6.5l4.2-5.6c0.6-0.8 1.8-0.8 2.4 0l4.2 5.6c-1.2 1.9-1.7 4.2-1.2 6.5 0.7 3.6 3.7 6.3 7.3 6.9 6.1 1 11.3-4.1 10.5-10-0.9-3.8-3.8-6.8-7.4-7.5z m-27.8 11.7c-1.7 0-3-1.3-3-3s1.3-3 3-3 3 1.3 3 3-1.3 3-3 3z m26 0c-1.7 0-3-1.3-3-3s1.3-3 3-3 3 1.3 3 3c-0.1 1.7-1.4 3-3 3z m-7.6-24.2c0.4 0.5 1.2 0.5 1.6 0l8-10.5c1.1-1.5 1-3.5-0.1-4.9l0.1-0.1-0.1 0.1c-0.2-0.3-1.5-1.3-1.5-1.3-0.4-0.3-1.1-0.2-1.4 0.2l-8.8 11.7c-0.4 0.5-0.4 1.3 0 1.8l2.2 3z"></path></g></svg>