<?xml version="1.0"?><svg xmlns="http://www.w3.org/2000/svg" width="52" height="52" viewBox="0 0 52 52"><path fill="#fff" d="m2 45.5c0 2.2 1.8 4 4 4h42.4c0.9 0 1.6-0.7 1.6-1.6v-2.8c0-0.9-0.7-1.6-1.6-1.6h-38.9c-0.8 0-1.5-0.7-1.5-1.5v-37.9c0-0.9-0.7-1.6-1.6-1.6h-2.8c-0.9 0-1.6 0.7-1.6 1.6v41.4z m47.7-31.4c0-1.7-1.3-3-3-3-0.9 0-1.6 0.4-2.2 0.9l-8.6 8.6-5.9-5.6-0.1-0.1-0.2-0.2c-0.1 0-0.1-0.1-0.2-0.1-0.1-0.1-0.2-0.1-0.3-0.2-0.1 0-0.1-0.1-0.2-0.1s-0.2-0.1-0.4-0.1c-0.1 0-0.1 0-0.2-0.1-0.2 0-0.4-0.1-0.6-0.1-0.2 0-0.4 0-0.6 0.1-0.1 0-0.1 0-0.2 0.1-0.1 0-0.3 0.1-0.4 0.1-0.1 0-0.1 0.1-0.2 0.1-0.1 0.1-0.2 0.1-0.3 0.2-0.1 0-0.1 0.1-0.2 0.2s-0.2 0.1-0.3 0.2l-11.4 11.5c-0.6 0.6-1 1.3-1 2.2 0 1.7 1.3 3 3 3 0.7 0 1.4-0.3 1.9-0.7l9.8-9.7 5.7 5.6c0.1 0.1 0.2 0.1 0.3 0.2l0.2 0.2c0.1 0.1 0.2 0.1 0.3 0.2 0.1 0 0.1 0.1 0.2 0.1 0.1 0.1 0.3 0.1 0.4 0.1 0.1 0 0.1 0 0.2 0.1 0.2 0 0.4 0.1 0.6 0.1 0.2 0 0.4 0 0.6-0.1h0.2c0.1 0 0.2-0.1 0.4-0.1 0.1 0 0.1-0.1 0.2-0.1s0.2-0.1 0.3-0.2c0.1 0 0.1-0.1 0.2-0.1l0.1-0.1 0.1-0.1 0.1-0.1 10.8-10.7c0.5-0.6 0.9-1.3 0.9-2.2z"></path></svg>