<svg id="a" xmlns="http://www.w3.org/2000/svg" width="52" height="52" viewBox="0 0 52 52"><path d="M48.8,21.4h-31.5c-.6,0-1.2.5-1.2,1.2v18.8c0,1.7,1.4,3.1,3.1,3.1h27.6c1.7,0,3.1-1.4,3.1-3.1v-18.8c0-.6-.5-1.2-1.2-1.2,0,0,.1,0,.1,0ZM27.7,38.3c0,.5-.3.8-.8.8h-3.1c-.5,0-.8-.3-.8-.8v-3.1c0-.5.3-.8.8-.8h3.1c.5,0,.8.3.8.8v3.1ZM27.7,30.6c0,.5-.3.8-.8.8h-3.1c-.5,0-.8-.3-.8-.8v-3.1c0-.5.3-.8.8-.8h3.1c.5,0,.8.3.8.8v3.1ZM35.4,38.3c0,.5-.3.8-.8.8h-3.1c-.5,0-.8-.3-.8-.8v-3.1c0-.5.3-.8.8-.8h3.1c.5,0,.8.3.8.8v3.1ZM35.4,30.6c0,.5-.3.8-.8.8h-3.1c-.5,0-.8-.3-.8-.8v-3.1c0-.5.3-.8.8-.8h3.1c.5,0,.8.3.8.8v3.1ZM43.1,38.3c0,.5-.3.8-.8.8h-3.1c-.5,0-.8-.3-.8-.8v-3.1c0-.5.3-.8.8-.8h3.1c.5,0,.8.3.8.8v3.1ZM43.1,30.6c0,.5-.3.8-.8.8h-3.1c-.5,0-.8-.3-.8-.8v-3.1c0-.5.3-.8.8-.8h3.1c.5,0,.8.3.8.8v3.1Z" fill="#fff"/><path d="M46.9,11.4h-3.8v-1.5c0-1.2-1-2.3-2.3-2.3s-2.3,1-2.3,2.3v1.5h-10.7v-1.5c0-1.2-1-2.3-2.3-2.3s-2.3,1-2.3,2.3v1.5h-3.8c-1.7,0-3.1,1.4-3.1,3.1v1.9c0,.6.5,1.2,1.2,1.2h31.5c.6,0,1.2-.5,1.2-1.2v-1.9c0-1.7-1.4-3.1-3.1-3.1h-.2Z" fill="#fff"/><path d="M12.8,28.6H2.4c-.2,0-.4.3-.4.7v1.5c0,.4.2.7.4.7h10.4c.2,0,.4-.3.4-.7v-1.5c0-.4-.2-.7-.4-.7Z" fill="#fff"/><path d="M12.8,22H2.4c-.2,0-.4.4-.4.7v1.5c0,.4.2.7.4.7h10.4c.2,0,.4-.3.4-.7v-1.5c0-.4-.2-.7-.4-.7Z" fill="#fff"/></svg>