<svg id="Layer_1" data-name="Layer 1" xmlns="http://www.w3.org/2000/svg" width="52" height="52" viewBox="0 0 52 52"><circle cx="16.35" cy="20.81" r="7.21" fill="#fff"/><path d="M16.35,29.62h-.17A10.76,10.76,0,0,0,5.85,40.5v2.58a1.29,1.29,0,0,0,1.29,1.29H25.6a1.27,1.27,0,0,0,1.26-1.25v-3A10.51,10.51,0,0,0,16.35,29.62Z" fill="#fff"/><path d="M31.34,27.77l-4.12,4.39a13.4,13.4,0,0,1,2.62,8v3a4.42,4.42,0,0,1-.21,1.25h.13a18.28,18.28,0,0,0,12.44-4.9L31.36,27.77Z" fill="#fff"/><path d="M41.12,11.54A18.36,18.36,0,0,0,19.19,11a10.2,10.2,0,0,1,3.94,17.44,14.64,14.64,0,0,1,2.08,1.5l4.67-5V17.29a1.5,1.5,0,0,1,1.5-1.5h6.09a1.5,1.5,0,0,1,1.5,1.5v4.19a1.5,1.5,0,0,1-1.5,1.5H32.88v2L44.24,37.3A18.35,18.35,0,0,0,41.12,11.54Z" fill="#fff"/></svg>