<svg width="24" height="24" viewBox="0 0 24 24" fill="none" xmlns="http://www.w3.org/2000/svg">
<path d="M13.8061 5L12.8151 3.00376C12.4817 2.33208 11.5183 2.33208 11.1849 3.00376L10.6894 4.00188M3.69875 12L2.27575 10.6219C1.73617 10.0994 2.03322 9.18848 2.77852 9.08017L3.88926 8.91875M7 8.46666L8.58737 8.23597L9.39062 6.61799M10.4279 19.5L12 18.678L13.2986 19.357M6.25259 16L6.47825 14.6918L5.78338 14.0188M5.67145 19.3689L5.48645 20.4414C5.35909 21.1798 6.1386 21.7428 6.80547 21.3941L7.65273 20.9511M15.011 7.42698L15.4126 8.23597L16.8648 8.44702M19.7693 8.86912L21.2215 9.08017C21.9668 9.18848 22.2638 10.0994 21.7243 10.6219L20.6736 11.6394M18.5724 13.6743L17.5217 14.6918L17.7697 16.1292M18.2656 19.004L18.5135 20.4414C18.6409 21.1798 17.8614 21.7428 17.1945 21.3941L15.8959 20.7151" stroke="currentColor" stroke-width="1.5" stroke-linecap="round" stroke-linejoin="round"/>
</svg>
