<svg xmlns="http://www.w3.org/2000/svg" viewBox="0 0 24 24">
    <g>
        <path fill="none" d="M0 0h24v24H0z"/>
        <path fill-rule="nonzero" d="M12 2c5.523 0 10 4.477 10 10s-4.477 10-10 10S2 17.523 2 12 6.477 2 12 2zm0 2a8 8 0 1 0 0 16 8 8 0 0 0 0-16zM9 8c1.105 0 2.105.448 2.829 1.173l-1.414 1.414a2 2 0 1 0-.001 2.828l1.414 1.413A4.001 4.001 0 0 1 5 12c0-2.208 1.792-4 4-4zm7 0c1.105 0 2.105.448 2.829 1.173l-1.414 1.414a2 2 0 1 0-.001 2.828l1.414 1.413A4.001 4.001 0 0 1 12 12c0-2.208 1.792-4 4-4z"/>
    </g>
</svg>
