<svg xmlns="http://www.w3.org/2000/svg" viewBox="0 0 512 512" class="ionicon"><path fill-rule="evenodd" d="M337.78 362.819c-4.246-8.453-11.074-15.687-12.601-17.31-3.05-3.241-7.535-7.397-13.589-11.505-12.228-8.299-30.57-16.191-55.59-16.191s-43.362 7.892-55.59 16.191c-6.054 4.108-10.539 8.264-13.589 11.505a63 63 0 0 0-3.548 4.097c-.422.535-4.307 4.76-9.053 13.213L256 442z" clip-rule="evenodd"/><path fill-rule="evenodd" d="M425.25 279.287s-7.995-10.229-15.703-18.928c-5.983-6.753-18.1-17.71-30.901-26.377-25.762-17.444-63.897-35.077-122.646-35.077s-96.884 17.633-122.646 35.077c-12.801 8.667-20.835 15.473-28.869 24.172S86.75 279.287 86.75 279.287l56.634 54.591 11.037-12.388.187-.201c.2-.211.549-.573 1.044-1.065a91 91 0 0 1 4.709-4.326c4.294-3.693 10.823-8.733 19.473-13.804C197.103 291.97 222.709 281.78 256 281.78s58.897 10.19 76.166 20.314c8.65 5.071 15.179 10.111 19.473 13.804a91 91 0 0 1 4.709 4.326c.495.492.844.854 1.044 1.065l.187.201.009.01 11.028 12.378z" clip-rule="evenodd"/><path fill-rule="evenodd" d="M512 195.36s-4.5-8.36-11.85-16.485c-4.391-4.855-6.219-7.406-11.155-12.511-9.868-10.207-24.703-23.648-44.901-37.04C403.583 102.463 341.778 76 256 76s-147.583 26.463-188.094 53.324c-20.198 13.392-35.033 26.833-44.9 37.04-4.937 5.105-8.639 9.411-11.156 12.511-1.259 1.55-1.784 2.241-2.898 3.7C5.254 187.42 0 195.36 0 195.36l58.06 55.873 11.004-13.001.002-.004.002-.002.08-.092q.133-.154.469-.529c.447-.499 1.163-1.282 2.144-2.309 1.962-2.056 4.979-5.083 9.02-8.76 8.092-7.361 20.236-17.28 36.189-27.221 31.891-19.872 78.774-39.709 139.03-39.709s107.139 19.837 139.03 39.709c15.953 9.941 28.097 19.86 36.189 27.221 4.041 3.677 7.058 6.704 9.02 8.76a100 100 0 0 1 2.144 2.309q.336.375.469.529l.036.042.044.051.002.001.002.004 11.004 13.001z" clip-rule="evenodd"/></svg>