<?xml version="1.0"?><svg xmlns="http://www.w3.org/2000/svg" width="52" height="52" viewBox="0 0 52 52"><g fill="#fff"><path d="m34.8 15.6h-17.6c-0.9 0-1.6 0.7-1.6 1.6v17.6c0 0.9 0.7 1.6 1.6 1.6h17.6c0.9 0 1.6-0.7 1.6-1.6v-17.6c0-0.9-0.7-1.6-1.6-1.6z m14-7.8c0.7-0.3 1.2-0.8 1.2-1.6v-2.6c0-0.9-0.7-1.6-1.6-1.6h-2.6c-0.7 0-1.3 0.5-1.5 1.2-0.5 1.6-2 2.8-3.8 2.8s-3.3-1.2-3.8-2.8c-0.4-0.7-0.9-1.2-1.7-1.2h-3.7c-0.7 0-1.3 0.5-1.5 1.2-0.4 1.6-2 2.8-3.8 2.8-1.8 0-3.3-1.2-3.8-2.8-0.3-0.7-0.8-1.2-1.6-1.2h-3.6c-0.7 0-1.3 0.5-1.5 1.2-0.5 1.6-2.1 2.8-3.9 2.8-1.8 0-3.3-1.2-3.8-2.8-0.3-0.7-0.8-1.2-1.6-1.2h-2.6c-0.9 0-1.6 0.7-1.6 1.6v2.6c0 0.8 0.5 1.3 1.2 1.6 1.6 0.4 2.8 2 2.8 3.8s-1.2 3.3-2.8 3.8c-0.7 0.3-1.2 0.8-1.2 1.6v3.7c0 0.7 0.5 1.3 1.2 1.5 1.6 0.4 2.8 2 2.8 3.8s-1.2 3.3-2.8 3.8c-0.7 0.3-1.2 0.8-1.2 1.6v3.6c0 0.7 0.5 1.3 1.2 1.5 1.6 0.5 2.8 2.1 2.8 3.9 0 1.8-1.2 3.3-2.8 3.8-0.7 0.3-1.2 0.8-1.2 1.6v2.6c0 0.9 0.7 1.6 1.6 1.6h2.6c0.7 0 1.3-0.5 1.5-1.2 0.5-1.6 2-2.8 3.8-2.8 1.8 0 3.3 1.2 3.8 2.8 0.2 0.7 0.8 1.2 1.5 1.2h3.7c0.7 0 1.3-0.5 1.5-1.2 0.5-1.6 2-2.8 3.8-2.8s3.3 1.2 3.8 2.8c0.2 0.7 0.8 1.2 1.5 1.2h3.9c0.7 0 1.3-0.5 1.5-1.2 0.5-1.6 2-2.8 3.8-2.8 1.8 0 3.3 1.2 3.8 2.8 0.2 0.7 0.8 1.2 1.5 1.2h2.6c0.9 0 1.6-0.7 1.6-1.6v-2.6c0-0.7-0.5-1.3-1.2-1.5-1.6-0.5-2.8-2-2.8-3.8s1.2-3.3 2.8-3.8c0.7-0.2 1.2-0.8 1.2-1.5v-3.7c0-0.7-0.5-1.3-1.2-1.5-1.6-0.5-2.8-2-2.8-3.8 0-1.8 1.2-3.3 2.8-3.8 0.7-0.2 1.2-0.8 1.2-1.5v-3.9c0-0.7-0.5-1.3-1.2-1.5-1.6-0.5-2.8-2-2.8-3.8s1.4-3.4 3-3.9z m-7.6 28.6c0 2.6-2.2 4.8-4.8 4.8h-20.8c-2.6 0-4.8-2.2-4.8-4.8v-20.8c0-2.6 2.2-4.8 4.8-4.8h20.8c2.6 0 4.8 2.2 4.8 4.8v20.8z"></path></g></svg>