<?xml version="1.0" encoding="UTF-8"?><svg xmlns="http://www.w3.org/2000/svg" width="64" height="39" viewBox="0 0 64 39"><title>angle-arrow-up-white</title><path fill="#FFF" d="M.655 34.187c-.427-.437-.64-.937-.64-1.503 0-.566.213-1.067.64-1.502L30.542.756c.427-.436.918-.653 1.474-.653.555 0 1.048.218 1.474.653l29.884 30.426c.428.435.642.936.642 1.502s-.213 1.066-.642 1.501l-3.206 3.265c-.427.436-.919.653-1.475.653-.555 0-1.047-.217-1.475-.653L32.016 11.79 6.81 37.45c-.427.436-.919.653-1.474.653-.556 0-1.048-.217-1.475-.653L.655 34.187z"/></svg>