<svg xmlns="http://www.w3.org/2000/svg" height="52" width="52" viewBox="0 0 520 520" fill="#fff"><path d="M164 100h32c5 0 8-3 8-8V68h112v24c0 5 3 8 8 8h32c5 0 8-3 8-8V68c0-26-22-48-48-48H204c-26 0-48 22-48 48v24c0 5 3 8 8 8zm288 48H68c-26 0-48 22-48 48v256c0 26 22 48 48 48h384c26 0 48-22 48-48V196c0-26-22-48-48-48zM260 436a112 112 0 1 1 0-224 112 112 0 0 1 0 224zm48-136h-24v-24c0-9-7-16-16-16h-16c-9 0-16 7-16 16v24h-24c-9 0-16 7-16 16v16c0 9 7 16 16 16h24v24c0 9 7 16 16 16h16c9 0 16-7 16-16v-24h24c9 0 16-7 16-16v-16c0-9-7-16-16-16z"/></svg>