<svg xmlns="http://www.w3.org/2000/svg" x="0px" y="0px"
	 width="52px" height="52px" viewBox="0 0 52 52" enable-background="new 0 0 52 52" xml:space="preserve">
<g>
	<g>
		<path fill="#FFFFFF" d="M41.8,41H10.2c-0.8,0-1.4,0.7-1.4,1.4v0.1c0,2.5,2,4.5,4.5,4.5h25.5c2.5,0,4.5-2,4.5-4.5v-0.1
			C43.2,41.7,42.6,41,41.8,41z"/>
	</g>
	<g>
		<path fill="#FFFFFF" d="M45.5,10.2c-2.5,0-4.5,2-4.5,4.5c0,1.4,0.6,2.6,1.6,3.4c-1.3,2.9-4.2,4.9-7.6,4.8c-4-0.2-7.2-3.4-7.4-7.4
			c0-0.7,0-1.3,0.1-1.9c1.7-0.7,2.9-2.2,2.9-4.2C30.5,7,28.5,5,26,5s-4.5,2-4.5,4.5c0,1.9,1.2,3.5,2.8,4.2c0.2,0.6,0.2,1.2,0.2,1.9
			c-0.2,4-3.4,7.2-7.4,7.4c-3.4,0.2-6.4-1.9-7.7-4.8c1-0.8,1.6-2.1,1.6-3.4c0-2.5-2-4.5-4.5-4.5S2,12.3,2,14.8s2,4.5,4.5,4.5l0,0
			l2.1,16c0.1,0.7,0.7,1.2,1.4,1.2H42c0.7,0,1.3-0.5,1.4-1.2l2.1-16l0,0c2.5,0,4.5-2,4.5-4.5S48,10.2,45.5,10.2z"/>
	</g>
</g>
</svg>
