<svg xmlns="http://www.w3.org/2000/svg" width="100" height="100" viewBox="0 0 100 100"><path d="M78,72V28c0-3.3-2.7-6-6-6H28c-3.3,0-6,2.7-6,6v44c0,3.3,2.7,6,6,6h44c3.3,0,6-2.7,6-6ZM34,38c-1.1,0-2-.9-2-2v-2c0-1.1.9-2,2-2h11c1.1,0,2,.9,2,2v2c0,1.1-.9,2-2,2h-11ZM34,48c-1.1,0-2-.9-2-2v-2c0-1.1.9-2,2-2h26c1.1,0,2,.9,2,2v2c0,1.1-.9,2-2,2h-26ZM34,58c-1.1,0-2-.9-2-2v-2c0-1.1.9-2,2-2h32c1.1,0,2,.9,2,2v2c0,1.1-.9,2-2,2h-32ZM34,68c-1.1,0-2-.9-2-2v-2c0-1.1.9-2,2-2h19c1.1,0,2,.9,2,2v2c0,1.1-.9,2-2,2h-19Z" fill="#fff" stroke-width="0"/></svg>