<svg xmlns="http://www.w3.org/2000/svg" height="52" width="52" viewBox="0 0 520 520" fill="#fff"><path d="M407 314a82 82 0 0 0-47 3L139 24a10 10 0 0 0-14-2l-8 6a40 40 0 0 0-7 56l106 140c4 5 4 13 0 18l-57 75a90 90 0 0 0-118 72 90 90 0 0 0 105 100 91 91 0 0 0 73-69c5-25 0-48-12-65l42-56c6-8 18-8 24 0l42 56a87 87 0 0 0-12 65 88 88 0 0 0 73 69 90 90 0 0 0 105-100 98 98 0 0 0-74-75zM129 431a30 30 0 0 1-30-30c0-17 13-30 30-30s30 13 30 30a30 30 0 0 1-30 30zm260 0a30 30 0 1 1 0-60 30 30 0 0 1 30 30c-1 17-14 30-30 30zm-76-242a10 10 0 0 0 16 0l80-105a40 40 0 0 0-1-49l1-1-1 1-15-13a10 10 0 0 0-14 2l-88 117c-4 5-4 13 0 18l22 30z"/></svg>