<svg xmlns="http://www.w3.org/2000/svg" height="52" width="52" viewBox="0 0 520 520" fill="#fff"><path d="M240 353a8 8 0 0 1 8 7v116a24 24 0 0 1-23 24H61a25 25 0 0 1-25-23V362a8 8 0 0 1 7-9h197zm236 0a8 8 0 0 1 8 7v116a24 24 0 0 1-23 24H297a24 24 0 0 1-25-23V362a8 8 0 0 1 8-9h196zm-299 34-1 1-46 50-21-20a6 6 0 0 0-8 0h-1l-9 8a5 5 0 0 0 0 7v1l30 28a13 13 0 0 0 9 4 12 12 0 0 0 9-4l55-58a6 6 0 0 0 1-7l-1-1-9-8a6 6 0 0 0-8-1zm236 0-1 1-46 50-22-20a6 6 0 0 0-7 0h-1l-9 8a5 5 0 0 0-1 7l1 1 30 28a13 13 0 0 0 9 4 11 11 0 0 0 8-4l56-59a7 7 0 0 0 0-7l-9-8a6 6 0 0 0-8-1zM225 272a24 24 0 0 1 23 23v26a8 8 0 0 1-7 8H28a8 8 0 0 1-8-7v-26a24 24 0 0 1 21-24h184zm252 0a24 24 0 0 1 23 23v26a8 8 0 0 1-7 8H279a8 8 0 0 1-7-7v-26a24 24 0 0 1 21-24h184zM357 102a8 8 0 0 1 8 7v115a24 24 0 0 1-23 24H179a25 25 0 0 1-25-23V110a8 8 0 0 1 7-8h197zm-63 34-47 51-21-20a6 6 0 0 0-8-1l-1 1-8 8a5 5 0 0 0-1 7h1l30 29a12 12 0 0 0 8 3 11 11 0 0 0 9-3l55-59a7 7 0 0 0 1-7l-1-1-8-7a6 6 0 0 0-8-2zm64-116a24 24 0 0 1 24 23v26a8 8 0 0 1-7 8H146a8 8 0 0 1-8-7V44a24 24 0 0 1 23-24z"/></svg>