<svg fill-rule="evenodd" viewBox="64 64 896 896" focusable="false"><path d="M805.33 112H218.67C159.76 112 112 159.76 112 218.67v586.66C112 864.24 159.76 912 218.67 912h586.66C864.24 912 912 864.24 912 805.33V218.67C912 159.76 864.24 112 805.33 112m-98.17 417.86a102.13 102.13 0 0028.1 52.46l2.13 2.06c.41.27.8.57 1.16.9l.55.64.2.02a7.96 7.96 0 01-.98 10.82 7.96 7.96 0 01-10.85-.18c-1.1-1.05-2.14-2.14-3.24-3.24a102.49 102.49 0 00-53.82-28.36l-2-.27c-.66-.12-1.34-.39-1.98-.39a33.27 33.27 0 1140.37-37.66c.17 1.09.36 2.16.36 3.2m-213.1 153.82a276.78 276.78 0 01-61.7.17 267.3 267.3 0 01-44.67-8.6l-68.44 34.4c-.33.24-.77.43-1.15.71h-.27a18.29 18.29 0 01-27.52-15.9c.03-.59.1-1.17.2-1.74.13-1.97.6-3.9 1.37-5.72l2.75-11.15 9.56-39.56a277.57 277.57 0 01-49.25-54.67A185.99 185.99 0 01223.1 478.1a182.42 182.42 0 0119.08-81.04 203.98 203.98 0 0137.19-52.32c38.91-39.94 93.26-65.52 153.1-72.03a278.25 278.25 0 0130.17-1.64c10.5.03 20.99.65 31.42 1.86 59.58 6.79 113.65 32.48 152.26 72.36a202.96 202.96 0 0137 52.48 182.3 182.3 0 0118.17 94.67c-.52-.57-1.02-1.2-1.57-1.76a33.26 33.26 0 00-40.84-4.8c.22-2.26.22-4.54.22-6.79a143.64 143.64 0 00-14.76-63.38 164.07 164.07 0 00-29.68-42.15c-31.78-32.76-76.47-53.95-125.89-59.55a234.37 234.37 0 00-51.67-.14c-49.61 5.41-94.6 26.45-126.57 59.26a163.63 163.63 0 00-29.82 41.95 143.44 143.44 0 00-15.12 63.93 147.16 147.16 0 0025.29 81.51 170.5 170.5 0 0024.93 29.4 172.31 172.31 0 0017.56 14.75 17.6 17.6 0 016.35 19.62l-6.49 24.67-1.86 7.14-1.62 6.45a2.85 2.85 0 002.77 2.88 3.99 3.99 0 001.93-.68l43.86-25.93 1.44-.78a23.2 23.2 0 0118.24-1.84 227.38 227.38 0 0033.87 7.12l5.22.69a227.26 227.26 0 0051.67-.14 226.58 226.58 0 0042.75-9.07 33.2 33.2 0 0022.72 34.76 269.27 269.27 0 01-60.37 14.12m89.07-24.87a33.33 33.33 0 01-33.76-18.75 33.32 33.32 0 016.64-38.03 33.16 33.16 0 0118.26-9.31c1.07-.14 2.19-.36 3.24-.36a102.37 102.37 0 0052.47-28.05l2.2-2.33a10.21 10.21 0 011.57-1.68v-.03a7.97 7.97 0 1110.64 11.81l-3.24 3.24a102.44 102.44 0 00-28.56 53.74c-.09.63-.28 1.35-.28 2l-.39 2.01a33.3 33.3 0 01-28.79 25.74m94.44 93.87a33.3 33.3 0 01-36.18-24.25 28 28 0 01-1.1-6.73 102.4 102.4 0 00-28.15-52.39l-2.3-2.25a7.2 7.2 0 01-1.11-.9l-.54-.6h-.03v.05a7.96 7.96 0 01.96-10.82 7.96 7.96 0 0110.85.18l3.22 3.24a102.29 102.29 0 0053.8 28.35l2 .28a33.27 33.27 0 11-1.42 65.84m113.67-103.34a32.84 32.84 0 01-18.28 9.31 26.36 26.36 0 01-3.24.36 102.32 102.32 0 00-52.44 28.1 49.57 49.57 0 00-3.14 3.41l-.68.56h.02l.09.05a7.94 7.94 0 11-10.6-11.81l3.23-3.24a102.05 102.05 0 0028.37-53.7 33.26 33.26 0 1162.4-12.1 33.21 33.21 0 01-5.73 39.06" /></svg>