<svg xmlns="http://www.w3.org/2000/svg" width="56" height="64" viewBox="0 0 56 64"><g fill-rule="evenodd" clip-rule="evenodd"><path d="M5.116.006c-2.801 0-5.072 2.272-5.072 5.074v53.841c0 2.803 2.271 5.074 5.072 5.074h45.775c2.801 0 5.074-2.271 5.074-5.074v-38.605l-18.903-20.31h-31.946z" fill="#9B64B2"/><path d="M55.977 20.352v1h-12.799s-6.312-1.26-6.129-6.707c0 0 .208 5.707 6.004 5.707h12.924z" fill="#824B9E"/><path d="M37.074 0v14.561c0 1.656 1.104 5.791 6.104 5.791h12.799l-18.903-20.352z" opacity=".5" fill="#fff"/></g><path d="M21.13 53.879c-.414 0-.738-.324-.738-.738v-9.254l-4.033 9.759c-.054.144-.198.233-.378.233-.144 0-.288-.09-.342-.233l-4.015-9.759v9.254c0 .414-.324.738-.756.738-.414 0-.738-.324-.738-.738v-10.263c0-.648.558-1.206 1.243-1.206.486 0 .99.288 1.188.756l3.439 8.372 3.457-8.372c.198-.468.684-.756 1.188-.756.684 0 1.243.558 1.243 1.206v10.263c-.002.414-.326.738-.758.738zm8.836-4.879h-3.331v4.141c0 .414-.324.738-.756.738-.414 0-.738-.324-.738-.738v-10.299c0-.594.486-1.081 1.081-1.081h3.745c2.413 0 3.763 1.657 3.763 3.619-.001 1.964-1.387 3.62-3.764 3.62zm-.18-5.906h-3.151v4.573h3.151c1.422 0 2.395-.936 2.395-2.287 0-1.349-.973-2.286-2.395-2.286zm13.915 7.635h-1.17v2.413c0 .414-.324.738-.757.738-.414 0-.738-.324-.738-.738v-2.413h-5.077c-.378 0-.738-.324-.738-.81 0-.162.053-.342.144-.486l4.807-7.22c.234-.342.648-.558 1.081-.558.684 0 1.278.594 1.278 1.26v6.5h1.17c.342 0 .63.288.63.667 0 .358-.289.647-.63.647zm-2.665-7.581l-4.213 6.266h4.213v-6.266z" fill="#fff"/></svg>