<?xml version="1.0" encoding="UTF-8"?><svg xmlns="http://www.w3.org/2000/svg" width="20" height="20" viewBox="0 0 20 20"><title>help</title><path fill="#fff" d="M0 10A10 10 0 1010 0 10 10 0 000 10zm9 4h2v2H9zM6.16 7.39a3.54 3.54 0 01.29-1.45 3.08 3.08 0 01.78-1.06 3.51 3.51 0 011.15-.65A4.44 4.44 0 019.82 4a4.59 4.59 0 011.66.29 3.88 3.88 0 011.28.83 3.56 3.56 0 01.8 1.29 4.74 4.74 0 01.28 1.68h-1.91a3 3 0 00-.5-1.82 1.77 1.77 0 00-1.53-.68 1.7 1.7 0 00-.5.1 1.71 1.71 0 00-1 .9 2.06 2.06 0 00-.17.86 2 2 0 00.11.72 1.83 1.83 0 00.3.55 3 3 0 00.43.44c.17.14.34.28.51.44a4 4 0 01.58.58 2.79 2.79 0 01.41.67 3.28 3.28 0 01.25.9 8.9 8.9 0 01.1 1.25H9.11A3.79 3.79 0 009 12a2.3 2.3 0 00-.31-.73 2.54 2.54 0 00-.47-.56c-.17-.17-.37-.34-.58-.52l-.54-.5a3.16 3.16 0 01-.48-.55 2.64 2.64 0 01-.33-.74 3.39 3.39 0 01-.13-1.01z"/></svg>