<svg xmlns="http://www.w3.org/2000/svg" width="52" height="52" viewBox="0 0 52 52"><path d="M34.32,9.82c-1.6,0-3.04.16-4.4.64,1.68,1.36,3.12,3.04,4.32,4.88h.08c5.6,0,10.16,4.56,10.16,10.16s-4.56,10.16-10.16,10.16c-1.36,0-2.8-.24-4-.8.72-1.04,1.36-2.16,1.84-3.2.16-.48.4-.8.48-1.28.48-1.44.72-3.12.72-4.8,0-8.64-7.04-15.68-15.68-15.68S2,16.86,2,25.5s7.04,15.68,15.68,15.68c1.6,0,3.04-.16,4.4-.64-1.68-1.36-3.12-3.04-4.32-4.88h-.08c-5.6,0-10.16-4.56-10.16-10.16s4.56-10.16,10.16-10.16c1.36,0,2.8.24,4.08.8-1.92,2.56-3.12,5.84-3.12,9.36,0,8.64,7.04,15.68,15.68,15.68s15.68-7.04,15.68-15.68-7.04-15.68-15.68-15.68Z" fill="#fff" stroke-width="0"/></svg>