<svg xmlns="http://www.w3.org/2000/svg" height="52" width="52" viewBox="0 0 520 520" fill="#fff"><path fill-rule="evenodd" d="M500 35c0-8-7-15-14-15H346c-7 0-14 7-14 15v105c0 8 7 15 14 15h140c7 0 14-7 14-15zM188 379c0-8-7-15-14-15H34c-7 0-14 7-14 15v107c0 7 7 14 14 14h140c7 0 14-7 14-15zm226-125a10 10 0 0 1 12 0l64 61c5 4 0 10-7 10h-40c0 67-55 119-127 119v-44c48 0 80-30 80-74h-38c-8 0-12-6-7-10zM94 266c4 2 8 2 11 0l64-61c5-5 0-10-7-10h-38c0-45 32-75 80-75V76c-72 0-128 52-128 118H37c-8 0-12 7-7 10l64 62zm142-6c0-13 10-23 23-23s23 10 23 23-10 23-23 23-23-10-23-23zm73 10 11 8c3 3 5 8 2 11l-4 8a10 10 0 0 1-8 4h-4l-12-5a40 40 0 0 1-18 10l-2 14a10 10 0 0 1-10 8h-8a10 10 0 0 1-10-8l-2-13a47 47 0 0 1-17-10l-13 5a10 10 0 0 1-11-4l-5-8a10 10 0 0 1 2-12l11-9a50 50 0 0 1 0-20l-10-8a9 9 0 0 1-3-12l5-8a10 10 0 0 1 8-5h3v1l13 5a53 53 0 0 1 17-10l3-13c0-5 4-7 9-7h10c4 0 8 2 8 7l3 13a40 40 0 0 1 16 10l14-5a10 10 0 0 1 10 4l5 8c3 4 2 10-2 12l-10 9a53 53 0 0 1 0 20z"/></svg>