<svg id="a" xmlns="http://www.w3.org/2000/svg" width="52" height="52" viewBox="0 0 52 52"><path d="M26,2C12.8,2,2,12.8,2,26s10.8,24,24,24,24-10.8,24-24S39.2,2,26,2ZM26,45.2c-10.63,0-19.2-8.57-19.2-19.2S15.37,6.8,26,6.8s19.2,8.57,19.2,19.2-8.57,19.2-19.2,19.2Z" fill="#fff"/><path d="M19.83,21.2c.34.17.69.34,1.03.34.51,0,1.03-.17,1.37-.69.51-.69.34-1.89-.34-2.4-2.57-1.89-6.34-1.89-8.91,0-.69.51-.86,1.71-.34,2.4s1.71.86,2.4.34c1.37-1.03,3.43-1.03,4.8,0Z" fill="#fff"/><path d="M39.03,18.46c-2.57-1.89-6.34-1.89-8.91,0-.69.51-.86,1.71-.34,2.4s1.71.86,2.4.34c1.37-1.03,3.43-1.03,4.8,0,.34.17.69.34,1.03.34.51,0,1.03-.17,1.37-.69.51-.69.34-1.89-.34-2.4Z" fill="#fff"/><path d="M26,39.2c5.31,0,9.77-3.26,11.66-8.06H14.34c1.89,4.63,6.34,8.06,11.66,8.06Z" fill="#fff"/></svg>