<svg xmlns="http://www.w3.org/2000/svg" width="52" height="52" viewBox="0 0 52 52"><path d="M44.4,21.8c-.1-.5-.6-.9-1.2-1.1-1.9-.6-3.5-1.9-4.5-3.5-.2-.4-.4-1-.6-1.5h0c-.1-.4-.2-.8-.4-1.1v-5.9s.1-.2.2-.2h.3c.1,0,.2,0,.3.1l1.9,1.9s.2.1.3.2h.6s.2-.1.3-.2l1.1-1.1s.1-.2.2-.2v-.6s-.1-.2-.2-.2l-6.1-5.9s-.2-.1-.3-.2h-.6s-.2.1-.3.2l-4.4,4.3-4.4-4.3s-.2-.1-.3-.2h-.6s-.2.1-.3.2l-4.4,4.3-4.4-4.3s-.2-.1-.3-.2h-.6s-.2.1-.3.2l-6.1,5.9s-.1.2-.2.2,0,.2,0,.3v.3c0,.1.1.2.2.2l1.1,1.1s.2.1.3.2h.6s.2-.1.3-.2l1.9-1.9s.2-.1.3-.1h.3c.1,0,.2.1.2.2v5.3c-.3.5-.5,1.1-.7,1.7s-.4,1.1-.6,1.5c-1,1.6-2.2,2.2-3.6,3h0c-.4.2-.9.5-1.3.7-1.7,1-.6,4.7,0,6.8.1.4.2.8.3,1,1.9,6.9,5.6,13.2,11.3,17.8,1.6,1.3,3.3,2.4,5.2,3.3,1.5.8,3.9-1.1,5.2-2.1h0c.2-.1.3-.2.4-.3,3.2-2.3,5.9-5.2,8-8.5,1.8-2.8,3.2-5.9,4.1-9.2h0c.4-1.3.7-2.6,1-4,0-.2,0-.4.1-.6.3-1.1.6-2.4.3-3.4l.4.1ZM27.8,8.9v-.3s.1-.2.2-.2h.3c.1,0,.2,0,.3.1l.6.5s0,.2.2.2l1.1,1.1s.2.1.3.2h.6s.2-.1.3-.2l1.1-1.1h0l.7-.7s.2-.1.3-.1h.3c.1,0,.2.1.2.2v4.3h-6.7v-4h.2ZM17.8,8.9v-.3s.1-.2.2-.2h.3c.1,0,.2,0,.3.1l1.9,1.9s.2.1.3.2h.3c.1,0,0,0,0,0h.3s.2-.1.3-.2l1.9-1.9s.2-.1.3-.1h.3c.1,0,.2.1.2.2v4.3h-6.8v-4h.2ZM40.8,23.7l-.2,1.3c-.7,4.2-2.3,8.1-4.6,11.7-2.3,3.5-5.3,6.6-8.9,8.9l-1,.6-1-.6c-3.6-2.3-6.6-5.3-8.9-8.8-2.3-3.5-3.9-7.5-4.6-11.7l-.2-1.3,1.1-.7c1.9-1.2,3.7-3.2,4.8-5.4l.5-1.1h16.7l.3.8c1.1,2.4,3,4.6,5.3,5.9l.8.4h-.1Z" fill="#fff"/><path d="M26.5,27.1c-1.9-.7-2.2-1.1-2.2-1.6s.4-.7,1.4-.7,1.6.4,2.7,1c.1,0,.4.1.5.1.3,0,.7-.2.9-.5l1-1c.1-.1.3-.4.2-.7,0-.3-.2-.6-.4-.7-.4-.3-1.6-.9-2.8-1.1v-1.6c0-.4-.4-.6-.7-.6h-2.3c-.3,0-.4.2-.4.6v1.7c-2.9.6-3.9,2.4-3.9,3.9,0,2.7,2.4,3.8,4.3,4.5,2.2.7,2.4,1.3,2.4,1.7s-.6.9-1.4.9-1.7-.3-2.9-1h0c-.1,0-.4-.1-.6-.1-.4,0-.7.1-.9.4l-.7,1.1c-.4.5-.2.9.2,1.3s1.8,1.1,3.5,1.4v1.9c0,.4,0,.6.4.6h2.3c.4,0,.7-.2.7-.6v-1.9c2.2-.6,3.7-2.2,3.7-4.1,0-2.7-2.7-4-5-4.8v-.1Z" fill="#fff"/></svg>