<svg xmlns="http://www.w3.org/2000/svg" height="52" width="52" viewBox="0 0 520 520" fill="#fff"><path d="M498 325a14 14 0 0 0-14-14H364a14 14 0 0 0-14 14v14a14 14 0 0 0 14 14h61L315 463a15 15 0 0 0 0 20l10 10a16 16 0 0 0 11 5 10 10 0 0 0 9-4l110-110v60a14 14 0 0 0 14 14h15a14 14 0 0 0 14-14zm-280-74h77l-39-57zm-50-126 3-3a14 14 0 0 1 18 3l42 60 15-21 3-3a14 14 0 0 1 18 3l60 86h39a105 105 0 0 1 17-4A290 290 0 0 0 208 23a10 10 0 0 0-11 0A290 290 0 0 0 23 250h58zm10 29-33 49-31 47h73l29-41zM21 322a16 16 0 0 0 5 11 329 329 0 0 0 160 54l16-25 11-20a6 6 0 0 0-3-10l-12-5-4-2a34 34 0 0 1-13-46l1-2H21zm215 37-14 28 25-3a156 156 0 0 1 65-108h-95l-11 16a7 7 0 0 0 4 10l11 5 4 1a34 34 0 0 1 13 47z"/></svg>