<svg xmlns="http://www.w3.org/2000/svg" height="52" width="52" viewBox="0 0 520 520" fill="#fff"><path d="M325 24a41 41 0 0 0-29 70 41 41 0 1 0 59-57 40 40 0 0 0-30-13zm-60 86a18 18 0 0 0-12 5L153 215a18 18 0 0 0-3 6 18 18 0 0 0-1 8 17 17 0 0 0 3 8 18 18 0 0 0 5 5l85 49v124a19 19 0 0 0 1 7 18 18 0 0 0 4 6 20 20 0 0 0 6 4 18 18 0 0 0 13 0 17 17 0 0 0 6-4 18 18 0 0 0 4-6 17 17 0 0 0 1-7V281a18 18 0 0 0-2-9 17 17 0 0 0-7-6l-53-30 67-67 37 37a17 17 0 0 0 12 5h74a19 19 0 0 0 7-1 17 17 0 0 0 6-4 18 18 0 0 0 4-6 18 18 0 0 0 2-6 19 19 0 0 0-2-7 17 17 0 0 0-4-6 18 18 0 0 0-5-4 19 19 0 0 0-7-1h-68l-60-60a18 18 0 0 0-6-4 18 18 0 0 0-6-2zM115 298a96 96 0 0 0-67 164 96 96 0 0 0 136 0 96 96 0 0 0 0-136 97 97 0 0 0-68-28zm288 0a96 96 0 0 0-68 164 96 96 0 1 0 136-136 97 97 0 0 0-68-28z"/></svg>