<?xml version="1.0" encoding="utf-8"?>
<!-- Generator: Adobe Illustrator 21.1.0, SVG Export Plug-In . SVG Version: 6.00 Build 0)  -->
<svg version="1.1" id="Layer_1" xmlns="http://www.w3.org/2000/svg" xmlns:xlink="http://www.w3.org/1999/xlink" x="0px" y="0px"
	 width="100px" height="100px" viewBox="0 0 100 100" enable-background="new 0 0 100 100" xml:space="preserve">
<path fill="#FFFFFF" d="M74,80H26c-3.3,0-6-2.7-6-6V26c0-3.3,2.7-6,6-6h48c3.3,0,6,2.7,6,6v48C80,77.3,77.3,80,74,80z M28.1,30v40
	c0,1.1,0.9,2,2,2H70c1.1,0,2-0.9,2-2V30c0-1.1-0.9-2-2-2H30.1C29,28,28.1,28.9,28.1,30z"/>
<path fill="#FFFFFF" d="M61.9,51.2c1,0,2,0.9,2,2v8.7c0,1.1-0.9,2-2,2h-9.2c-1.1,0-2-0.9-2-2c0-0.7,0.3-1.3,0.8-1.8
	c0.6-0.6,1.3-1.3,1.9-1.9c1.3-1.2,2.7-2.4,4-3.6c0.9-0.8,1.8-1.7,2.8-2.5c0.3-0.2,0.5-0.5,0.8-0.6C61.3,51.3,61.6,51.2,61.9,51.2z"
	/>
</svg>
