<svg xmlns="http://www.w3.org/2000/svg" width="17" height="17" viewBox="0 0 17 17"><path fill-rule="evenodd" d="M16.968 8.314l-1.03-6.318C15.758.531 13.942 0 12.742 0h-6.7a1.08 1.08 0 0 0-.563.149l-1.529.913H2.124C.998 1.062 0 2.06 0 3.186v4.247c0 1.125.998 2.145 2.124 2.124h2.123c.967 0 1.476.477 2.538 1.645.966 1.062.935 1.912.67 3.473-.086.53.063 1.061.445 1.507.414.5 1.04.818 1.657.818 1.943 0 3.185-3.95 3.185-5.33l-.021-1.041h2.166c1.232 0 2.07-.85 2.102-2.092 0-.064.022-.138-.02-.212v-.01zm-2.092 1.264h-2.113c-.743 0-1.093.297-1.093 1.03l.03 1.092c0 1.349-1.242 4.248-2.123 4.248-.531 0-1.147-.531-1.062-1.062.265-1.678.361-2.952-.945-4.396-1.083-1.2-1.88-1.996-3.324-1.996v-6.37L6.02 1.062h6.721c.775 0 2.07.329 2.124 1.062l.02.02 1.063 6.372c-.032.68-.404 1.062-1.062 1.062h-.01z"/></svg>