<svg viewBox="0 0 24 24" fill="currentColor" xmlns="http://www.w3.org/2000/svg"><path d="M2 6.00087C2 5.44811 2.45531 5 2.9918 5H21.0082C21.556 5 22 5.44463 22 6.00087V19.9991C22 20.5519 21.5447 21 21.0082 21H2.9918C2.44405 21 2 20.5554 2 19.9991V6.00087ZM4 7V19H20V7H4ZM14 16C15.6569 16 17 14.6569 17 13C17 11.3431 15.6569 10 14 10C12.3431 10 11 11.3431 11 13C11 14.6569 12.3431 16 14 16ZM14 18C11.2386 18 9 15.7614 9 13C9 10.2386 11.2386 8 14 8C16.7614 8 19 10.2386 19 13C19 15.7614 16.7614 18 14 18ZM4 2H10V4H4V2Z"/></svg>