<svg xmlns="http://www.w3.org/2000/svg" width="24" height="24" viewBox="0 0 24 24"><path d="M12,2C6.579,2,2,6.579,2,12s4.579,10,10,10s10-4.579,10-10S17.421,2,12,2z M14.113,15H9.986l-1.723-3.094L10.202,9h3.736 l1.871,3.062L14.113,15z M4,12c0-0.953,0.186-1.87,0.508-2.727L7.696,15H4.61C4.22,14.068,4,13.055,4,12z M16.283,9h3.106 C19.78,9.932,20,10.945,20,12c0,0.844-0.143,1.66-0.397,2.432L16.283,9z M18.188,7h-6.653l1.905-2.857 C15.326,4.502,17.002,5.546,18.188,7z M11.093,4.059L9.132,7H9v0.197L7.17,9.942L5.65,7.214C6.95,5.511,8.899,4.319,11.093,4.059z M5.812,17h7.147l-1.709,2.961C9.084,19.748,7.141,18.63,5.812,17z M13.64,19.82l3.357-5.815l1.544,2.526 C17.387,18.173,15.64,19.385,13.64,19.82z"/></svg>