<svg xmlns="http://www.w3.org/2000/svg" width="24" height="24" viewBox="0 0 24 24"><path d="M21.923,10.753c-0.272-2.188-1.285-4.257-2.852-5.824c-1.567-1.566-3.636-2.579-5.824-2.852 c-0.824-0.103-1.558,0.312-1.948,0.957C9.16,3.198,7.17,4.103,5.636,5.636C3.936,7.337,3,9.597,3,12s0.936,4.663,2.636,6.364 C7.337,20.064,9.597,21,12,21s4.663-0.936,6.364-2.636c1.534-1.535,2.438-3.525,2.602-5.665c0.172-0.104,0.335-0.226,0.471-0.38 C21.816,11.89,21.993,11.319,21.923,10.753z M17.657,6.343C18.91,7.597,19.72,9.251,19.933,11c0,0-0.001,0-0.002,0H13l-0.001-6.938 C14.749,4.28,16.403,5.09,17.657,6.343z M16.95,16.95C15.627,18.271,13.869,19,12,19s-3.627-0.729-4.95-2.05 C5.729,15.627,5,13.869,5,12s0.729-3.627,2.05-4.95C8.134,5.968,9.511,5.291,11,5.079V12c0,0.553,0.447,1,1,1h6.921 C18.709,14.489,18.032,15.866,16.95,16.95z"/></svg>