<svg xmlns="http://www.w3.org/2000/svg" width="24" height="24" viewBox="0 0 24 24"><path d="M12,2C6.486,2,2,6.486,2,12s4.486,10,10,10s10-4.486,10-10S17.514,2,12,2z M19.931,11H13V6V4.069 C16.611,4.522,19.478,7.389,19.931,11z M4,12c0-4.072,3.061-7.436,7-7.931V6v6c0,0.119,0.028,0.234,0.069,0.345 c0.013,0.032,0.026,0.062,0.042,0.093c0.015,0.03,0.022,0.063,0.041,0.093l4.202,6.723C14.332,19.728,13.198,20,12,20 C7.589,20,4,16.411,4,12z M17.052,18.196L13.805,13h6.126C19.669,15.087,18.605,16.928,17.052,18.196z"/></svg>