<svg xmlns="http://www.w3.org/2000/svg" x="0px" y="0px" width="100" height="100"
	 viewBox="0 0 100 100" style="enable-background:new 0 0 100 100;" xml:space="preserve">

<g>
	<path fill="#FFFFFF" d="M69.7,20H32.1c-3.3,0-6.1,3-6.1,6v2h-2c-2.2,0-4,1.8-4,4s1.8,4,4,4h2v10h-2c-2.2,0-4,1.8-4,4s1.8,4,4,4h2v10
		h-2c-2.2,0-4,1.8-4,4s1.8,4,4,4h2v2c0,3,2.8,6,6.1,6h37.6c3.3,0,6.3-3,6.3-6.3v-48C76,22.4,73,20,69.7,20z M66.1,60.3l-2.8,2.8
		c-0.6,0.6-1.5,1-2.3,0.9c-6.6-0.4-12.8-3.4-17.2-7.7c-4.4-4.4-7.4-10.6-7.7-17.2c0-0.9,0.3-1.7,0.9-2.3l2.8-2.8
		c1.3-1.3,3.5-1.2,4.6,0.3l2.6,3.2c0.9,1.1,0.9,2.6,0.1,3.8l-2.2,3.1c-0.3,0.4-0.3,1,0.1,1.3l4.6,5.1l5.1,4.6
		c0.4,0.4,0.9,0.4,1.3,0.1l3.1-2.2c1.1-0.8,2.7-0.8,3.8,0.1l3.2,2.6C67.3,56.8,67.4,59,66.1,60.3z"/>
</g>
</svg>
