<svg xmlns="http://www.w3.org/2000/svg" width="24" height="24" viewBox="0 0 24 24"><path d="M13.551,11.485c-1.315,0-2.328,1.069-2.328,2.332c0,1.314,1.013,2.313,2.441,2.313l-0.012,0.002	c1.192,0,2.193-0.983,2.193-2.28C15.846,12.503,14.844,11.485,13.551,11.485L13.551,11.485z"/><path d="M3,3v18h18V3H3z M18.52,18.605h-2.682v-1.058c-0.825,0.81-1.667,1.103-2.786,1.103c-1.142,0-2.124-0.371-2.947-1.114	c-1.086-0.956-1.648-2.227-1.648-3.701c0-1.351,0.524-2.561,1.507-3.506c0.878-0.859,1.946-1.298,3.139-1.298	c1.14,0,2.018,0.385,2.647,1.192V6.118l2.77-0.574V5.542l0.002,0.003h-0.002L18.52,18.605L18.52,18.605z"/></svg>