<svg xmlns="http://www.w3.org/2000/svg" width="24" height="24" viewBox="0 0 24 24"><path d="M18.75,3H5.25C4.007,3,3,4.007,3,5.25v13.5C3,19.992,4.007,21,5.25,21h13.5c1.242,0,2.25-1.008,2.25-2.25V5.25	C21,4.007,19.992,3,18.75,3z M10.83,16.635c0,0.596-0.484,1.08-1.08,1.08H6.42c-0.597,0-1.08-0.484-1.08-1.08V6.42	c0-0.597,0.483-1.08,1.08-1.08h3.33c0.596,0,1.08,0.483,1.08,1.08V16.635L10.83,16.635z M18.66,12.135c0,0.596-0.483,1.08-1.08,1.08	h-3.33c-0.596,0-1.08-0.484-1.08-1.08V6.42c0-0.597,0.484-1.08,1.08-1.08h3.33c0.597,0,1.08,0.483,1.08,1.08V12.135L18.66,12.135z"/></svg>