<svg xmlns="http://www.w3.org/2000/svg" height="52" width="52" viewBox="0 0 520 520" fill="#fff"><path d="M227 48A208 208 0 0 0 20 255a208 208 0 0 0 245 204 139 139 0 0 1-14-50A156 156 0 0 1 72 255c0-85 70-155 155-155s155 70 155 155h8c16 0 30 2 44 7v-7c0-113-93-207-207-207zm36 289c7-16 17-31 30-43l-37-37c-2-3-3-6-3-10v-82c0-7-6-13-13-13h-26c-7 0-13 6-13 13v104c0 4 2 7 4 10zm138-45 96 156c7 10 0 24-10 24H293c-10 0-16-14-10-24l96-156a12 12 0 0 1 22 0zm-24 133c1 7 6 13 13 13s13-6 13-13-6-13-13-13-13 6-13 13zm22-21a4 4 0 0 0 4-4v-55a4 4 0 0 0-4-4h-17a4 4 0 0 0-4 4v55a4 4 0 0 0 4 4z"/></svg>