<svg xmlns="http://www.w3.org/2000/svg" viewBox="0 0 64 64" enable-background="new 0 0 64 64"><g fill="#989897"><path d="m26.942 44.24h-8.308c-.73 0-1.327.673-1.327 1.504v8.904.539 5.196.542.747c0 .827.597 1.5 1.327 1.5h8.308c.731 0 1.328-.673 1.328-1.5v-.746-.542-3.935-.543-10.162c0-.831-.597-1.504-1.328-1.504"/><path d="m44.44 44.24h-8.306c-.733 0-1.332.673-1.332 1.504v8.904.539 5.196.542.747c0 .827.599 1.5 1.332 1.5h8.306c.731 0 1.328-.673 1.328-1.5v-.746-.542-3.935-.543-10.162c0-.831-.596-1.504-1.328-1.504"/></g><g fill="#b3b2b3"><path d="m32.984 45.19h-8.307c-.733 0-1.33.674-1.33 1.504v8.905.539 5.194.543.748c0 .828.597 1.5 1.33 1.5h8.307c.729 0 1.326-.672 1.326-1.5v-.748-.543-3.934-.54-10.164c0-.83-.597-1.504-1.326-1.504"/><path d="m52.83 45.19h-8.306c-.732 0-1.33.674-1.33 1.504v8.905.539 5.194.543.748c0 .828.598 1.5 1.33 1.5h8.306c.729 0 1.327-.672 1.327-1.5v-.748-.543-3.934-.54-10.164c0-.83-.597-1.504-1.327-1.504"/></g><path fill="#e5e5e5" d="m62.43 36.995c.089-.903.182-1.754.271-2.586.838-1.565.997-3.479.371-4.979.006-2.058-.299-3.805-1.297-5.239-.24-2.07-1.598-3.84-4.271-3.84-.619 0-1.174.12-1.694.295-1.512-.423-3.29-.776-5.456-1.035-.443-1.754-1.785-3.142-4.155-3.142-2.084 0-3.602 1.091-4.491 2.56-.186-.006-.388-.007-.573-.011-.628-1.33-1.885-2.289-3.854-2.289-1.171 0-2.146.37-2.95.932-.984-.563-2.179-.915-3.634-.915-2.181 0-3.948.767-5.332 1.932-1.356.428-2.372 1.373-3 2.532-7.304 2.708-12.161 7.899-12.161 15.785 0 2.25.401 4.346 1.134 6.278-1.291 2.562-.768 5.979 1.921 7 .792 2.646 2.901 4.704 6.543 4.704 1.095 0 2.072-.218 2.971-.556 3.952 1.723 8.579 2.675 13.544 2.675 11.205 0 19.867-2.437 23.86-11.341 2.984-1.518 3.889-5.774 2.169-8.129.026-.215.068-.416.088-.631"/><g fill="#cccecd"><path d="m62.43 36.995c.089-.903.182-1.754.271-2.586.838-1.565.997-3.479.371-4.979.006-2.058-.299-3.805-1.297-5.239-.24-2.07-1.598-3.84-4.271-3.84-.07 0-.131.016-.197.019 7.31 8.42 4.03 22.254-10.04 24.938-6.976 1.333-8.07 7.773-14.556 7.773-5.698 0-12.1-7.89-13.562-6.285-2.219 2.433-6.04-.892-8.251-2.348-.64 2.342.066 4.955 2.359 5.824.792 2.646 2.901 4.704 6.543 4.704 1.095 0 2.072-.218 2.971-.556 3.952 1.723 8.579 2.675 13.544 2.675 11.205 0 19.867-2.437 23.86-11.341 2.984-1.518 3.889-5.774 2.169-8.129.025-.214.067-.415.087-.63"/><path d="m29.23 28.18c-.194-3.305-6.195-5.61-13.401-5.157-7.21.454-12.924 7.802-12.732 11.11.2 3.299 6.538 8.925 13.75 8.472 7.208-.458 12.58-11.12 12.383-14.423"/></g><g fill="#e5e5e5"><path d="m24.293 30.21c2.706-3.132 1.502-8.78-2.683-12.624-4.19-3.844-9.772-4.423-12.48-1.291-2.702 3.132-5.978 13.965-1.79 17.811 4.19 3.844 14.249-.763 16.953-3.896"/><path d="m22.783 28.17c-.188-3.185-5.425-5.439-11.695-5.04-6.275.395-11.205 7.441-11.02 10.625.192 3.181 5.741 8.635 12.02 8.24 6.272-.399 10.887-10.638 10.697-13.822"/></g><path fill="#25333a" d="m14.352 28.11c.372 2.055-.642 3.973-2.252 4.295-1.62.317-3.227-1.084-3.6-3.139-.368-2.056.644-3.977 2.26-4.301 1.613-.314 3.225 1.089 3.592 3.145"/><path fill-rule="evenodd" fill="#764d2a" d="m38.494 25.309c-.934-3.499-3.421-5.604-5.859-6.399-1.264-.414-2.685-.606-4.231-.266-3.543.78-5.286 3.595-5.609 6.316-.171 1.418.033 3.159.979 4.761 1.646 2.799 4.739 4.092 7.59 3.147 1.678-.55 2.666-1.669 3.221-3.047.628-1.559.618-4.27-1.163-6.01-1.493-1.455-4.656-2.086-6.229.188-.572.827-.95 2.339-.184 3.731.655 1.19 2.095 1.826 3.225 1.277.828-.399 1.157-1.157.766-2.194-.112-.003-.072.343-.147.529-.079.19-.248.405-.452.529-1.168.729-2.236-.297-2.349-1.549-.096-1 .601-1.971 1.754-2.188 1.19-.231 2.427.421 3.066 1.489 1.2 2.02.349 4.579-1.657 5.518-2.182 1.016-4.549-.034-5.801-1.805-1.175-1.657-1.202-3.427-.853-4.864.488-2.02 2.171-4.01 4.985-4.276 2.69-.259 5.844 1.194 7.156 4.824.44 1.227.527 2.14.475 3.19-.094 1.869-.707 3.621-2.189 5.114-1.464 1.472-3.906 2.331-5.919 2.174-1.878-.151-3.683-.879-5.142-2.155-1.613-1.415-2.896-3.563-3.264-5.972-.306-1.973-.037-4.02.698-5.714.696-1.614 2.206-3.397 4.04-4.396l1.068-.49c4.37-1.353 8.267-.302 11.149 2.707 1.582 1.662 2.866 4.03 3.28 6.379.042.246-1.477 1-2.399-.546"/></svg>