<svg xmlns="http://www.w3.org/2000/svg" viewBox="0 0 64 64" enable-background="new 0 0 64 64"><g transform="translate(0 10)"><path d="m35.988 35.724c-1.446-1.999-3.327-3.555-5.623-4.661-.418.354-.825.729-1.167 1.167-.847 1.087-1.282 2.347-1.547 3.663 1.649.12 3.01.829 3.981 2.101 2.528 3.319 1.715 9.256 1.285 11.506.468.617 2.026 1.952 3.516 2.056.416.026 1.692.111 2.782-2.128.241-1.166.723-8.231-3.227-13.704" fill="#7094a6"/><path d="m33.12 48.25c-.07.48-.137.916-.203 1.251.468.617 2.026 1.952 3.516 2.056.416.026 1.692.111 2.782-2.128.091-.445.22-1.77.111-3.53-2.23.534-4.225 1.425-6.206 2.351" fill="#d1d2d3"/><path d="m38.582 28c-.452-.029-.912-.047-1.384-.064-1.856-.04-3.277.458-3.713 1.292-.414.812-.021 2.107 1.123 3.651 1.674 2.268 2.734 2.594 3.381 2.629.621.045 1.276-.166 2.034-.404.469-.151.953-.309 1.496-.423 2.564-.543 4.661.124 5.989 1.873 2.426 3.188 1.651 8.897 1.229 11.07.456.597 1.958 1.877 3.389 1.975.4.025 1.625.107 2.669-2.045.231-1.12.71-7.916-3.096-13.182-2.762-3.824-7.172-5.959-13.12-6.368" fill="#58767d"/><path d="m49.13 44.645c-.092 1.23-.262 2.318-.39 3.02.456.599 1.958 1.879 3.385 1.977.402.024 1.629.107 2.673-2.047.064-.305.145-1.051.153-2.062-1.836-.788-3.72-1.113-5.821-.887" fill="#bfbdbe"/><path d="m26 34.15c-.404-2.892-3.201-2.865-5.314-5.188-.563 1.015-.99 2.072-1.094 3.184-.108 1.194.741 3.598.804 3.99.646 3.951-3.389 9.263-4.769 10.982.12.735.841 2.575 2.059 3.329.34.218 1.384.859 3.319-.551.733-.876 5.875-9.307 4.995-15.746" fill="#58767d"/><path d="m15.909 46.76c-.091.12-.203.267-.277.36.12.735.841 2.575 2.059 3.329.34.218 1.384.859 3.319-.551.162-.193.539-.765 1.017-1.585-1.721-1.361-4-2.041-6.118-1.553" fill="#bfbdbe"/><g fill="#7094a6"><path d="m41.503 16.293c6.174-1.618 12.571.29 15.04 6.923 2.478 6.638 1.74 8.336-4.102 11.147-5.515 2.662-13.822 5.989-16.582.088-1.342 1.556-2.747 2.759-3.806 3.267-3.238 1.558-7.392-1.282-9.283-6.358-1.885-5.074-.8-10.443 2.436-12.01 2.392-1.154 8.331-.967 16.297-3.06"/><path d="m28.816 18.483c4.906.083 9.397 2.867 10.176 8.372.774 5.506-2.523 10.686-7.375 11.568-4.581.837-18.737-8.363-19.331-12.575-.595-4.212 1.104-8.02 3.793-8.511 1.981-.358 6.414 1.03 12.737 1.146"/></g><path d="m13.651 26.03c.754-.107 2.196-.269 2.407.068 1.991 3.11 5.324 5.828 9.902 7.421 9.754 3.39 13.878-9.853 7.07-15.706-6.8-.402-11.647-1.347-14.02-1.034-3.882.516-6.331 4.512-5.473 8.938.017.096.071.208.112.313" fill="#58767d"/><path d="m52.827 27.433c-3.858 1.779-6.791 4.116-8.743 7.01-4.218 6.24-2.622 13.07-2.158 14.164 1.67 1.962 3.257 1.6 3.771 1.478 1.854-.425 3.629-2.072 4.135-2.791-.85-2.113-2.677-7.767.029-11.58.887-1.243 2.217-2.105 3.836-2.652-.125-1.927-.378-3.816-.87-5.631" fill="#7094a6"/><path d="m47.975 44.32c-3.34-.017-5.04 1.317-6.152 3.987.037.112.074.236.104.305 1.67 1.962 3.257 1.6 3.771 1.478 1.854-.425 3.629-2.072 4.135-2.791-.273-.669-.628-1.717-.916-2.929-.316-.025-.629-.05-.942-.05" fill="#d1d2d3"/><path d="m53.984 25.343c-.387.18-.787.352-1.19.522-1.608.657-3.02.704-3.676.116-.638-.565-.729-1.833-.253-3.561.709-2.544 1.525-3.18 2.074-3.435.532-.244 1.171-.286 1.908-.327.46-.023.944-.052 1.448-.139 2.43-.385 4.03-1.666 4.609-3.642 1.044-3.603-1.559-8.326-2.644-10.08.19-.673 1.071-2.299 2.283-2.861.344-.16 1.379-.645 3.02.887.58.901 3.277 6.673 1.724 12.55-1.125 4.27-4.258 7.622-9.307 9.967" fill="#7094a6"/><path d="m57.57 7.207c-.48-1.01-.972-1.858-1.307-2.407.19-.673 1.071-2.299 2.283-2.861.344-.16 1.379-.645 3.02.887.236.36.812 1.531 1.313 3.169-1.602.945-3.485 1.411-5.313 1.212" fill="#d1d2d3"/><path d="m24 6.99c-1.04 2.933 5.564 10.01 7.624 10.742 2.067.737 1.779-5.813 2.076-9.431.298-3.731.802-7.483-1.268-8.225-2.059-.731-7.383 3.982-8.432 6.914" fill="#58767d"/><path d="m24.11 9.382c-.905 2.54 4.837 8.683 6.623 9.329 1.786.634 1.542-5.05 1.798-8.197.261-3.236.688-6.495-1.098-7.133-1.798-.64-6.413 3.449-7.323 6" fill="#eea85a"/><path d="m10.188 6.99c1.044 2.933-5.561 10.01-7.626 10.742-2.065.737-1.775-5.813-2.065-9.431-.311-3.731-.805-7.483 1.259-8.225 2.063-.731 7.391 3.982 8.432 6.914" fill="#58767d"/><path d="m10.08 9.382c.909 2.54-4.825 8.683-6.611 9.329-1.798.634-1.549-5.05-1.807-8.197-.259-3.237-.687-6.495 1.107-7.133 1.785-.64 6.414 3.449 7.311 6" fill="#eea85a"/><path d="m.973 25.14c0 6.221 8.02 8.04 16.578 8.04 8.572 0 16.592-1.815 16.592-8.04 0-6.211-8.02-24.757-16.592-24.757-8.561 0-16.578 18.546-16.578 24.757" fill="#7094a6"/><path d="m3.848 24.17c0-3.3 3.748-3.238 8.85-3.238 5.113 0 9.654-.062 9.654 3.238 0 3.298-4.139 5.969-9.256 5.969-5.105 0-9.248-2.671-9.248-5.969" fill="#e7e6e6"/><path d="m8.613 29.25c0-2.13 1.815-2.088 4.292-2.088 2.47 0 4.678-.042 4.678 2.088 0 2.142-2.01 3.876-4.485 3.876-2.475 0-4.485-1.734-4.485-3.876" fill="#d1d2d3"/><path d="m9.731 22.23c0-1.377 1.168-1.351 2.764-1.351 1.6 0 3.02-.027 3.02 1.351 0 1.382-1.297 2.499-2.892 2.499-1.598 0-2.893-1.118-2.893-2.499" fill="#ed2e7c"/><path d="m22.721 15.699c0 3.176-1.72 5.749-3.837 5.749-2.122 0-3.841-2.573-3.841-5.749 0-3.176 1.719-5.747 3.841-5.747 2.117 0 3.837 2.571 3.837 5.747" fill="#fff"/><g><path d="m20.16 15.699c0 1.664-1.108 3.01-2.478 3.01-1.375 0-2.486-1.345-2.486-3.01 0-1.666 1.111-3.01 2.486-3.01 1.37 0 2.478 1.346 2.478 3.01" fill="#25333a"/><path d="m18.401 14.303c0 .893-.325 1.62-.723 1.62-.406 0-.733-.728-.733-1.62 0-.893.327-1.616.733-1.616.398 0 .723.723.723 1.616" fill="#fff"/></g><path d="m13.573 15.276c0 3.176-1.72 5.747-3.841 5.747-2.117 0-3.836-2.571-3.836-5.747 0-3.178 1.719-5.749 3.836-5.749 2.121 0 3.841 2.571 3.841 5.749" fill="#fff"/><g><path d="m11 15.276c0 1.662-1.106 3.01-2.478 3.01-1.375 0-2.484-1.349-2.484-3.01 0-1.664 1.108-3.01 2.484-3.01 1.372 0 2.478 1.349 2.478 3.01" fill="#25333a"/><path d="m9.251 13.882c0 .893-.319 1.62-.725 1.62-.402 0-.729-.727-.729-1.62 0-.897.327-1.618.729-1.618.406 0 .725.721.725 1.618" fill="#fff"/></g></g></svg>