<svg xmlns="http://www.w3.org/2000/svg" viewBox="0 0 64 64" enable-background="new 0 0 64 64"><g transform="translate(0 .795)"><g><path d="m35.893 45.32c2.026-4.495 29.15-16 27.735-12.975-5.957 12.774-20.85 30.76-23.19 28.328-2.594-2.698-6.554-10.84-4.548-15.353" fill="#bcbdbf"/><path d="m36.611 45.3c1.891-4.2 27.23-14.953 25.917-12.12-5.565 11.939-19.484 28.746-21.668 26.477-2.423-2.528-6.124-10.134-4.249-14.354" fill="#e7e6e6"/><path d="m38.923 48.19c2.083-3.52 24.452-10.914 23.01-8.548-6.069 9.994-19.68 23.573-21.22 21.421-1.708-2.397-3.865-9.335-1.792-12.873" fill="#bcbdbf"/><path d="m36.3 50.26c2.902-2.883 26.412-4.396 24.423-2.47-8.395 8.144-24.989 17.854-25.936 15.376-1.05-2.746-1.385-10.01 1.513-12.906" fill="#a7a8ac"/></g><g><path d="m27.791 45.71c-2.029-4.495-29.14-16-27.738-12.975 5.957 12.775 20.85 30.76 23.19 28.328 2.595-2.699 6.554-10.84 4.55-15.353" fill="#bcbdbf"/><path d="m27.07 45.688c-1.891-4.2-27.24-14.952-25.917-12.12 5.566 11.94 19.483 28.747 21.666 26.478 2.426-2.528 6.126-10.135 4.251-14.355" fill="#e7e6e6"/><path d="m24.76 48.582c-2.083-3.52-24.453-10.913-23.01-8.548 6.071 9.994 19.682 23.573 21.22 21.421 1.708-2.397 3.863-9.335 1.792-12.873" fill="#bcbdbf"/><path d="m27.381 50.655c-2.903-2.884-26.413-4.396-24.423-2.471 8.395 8.144 24.99 17.854 25.936 15.376 1.049-2.746 1.384-10.01-1.513-12.905" fill="#a7a8ac"/></g><path d="m20.546 63.39c4.493 0 18.955 0 21.817 0 .174 0-.983-9.308-.983-10.553 0-.093-20.04-.174-20.04-.174 0 0-.975 10.727-.797 10.727" fill="#d1d2d3"/><path d="m44.27 42.731c-5.276 0-22.289 0-25.644 0-.209 0 1.15 10.936 1.15 12.405 0 .109 23.559.206 23.559.206 0 0 1.142-12.611.935-12.611" fill="#929497"/><path d="m9.57 32.13c0 8.823 9.789 15.962 21.885 15.962 12.09 0 21.877-7.14 21.877-15.962 0-8.808-9.791-30.545-21.877-30.545-12.1 0-21.885 21.738-21.885 30.545" fill="#fbb041"/><g fill="#25333a"><path d="m27.22 32.668c0 2.156-1.45 3.905-3.227 3.905-1.784 0-3.223-1.749-3.223-3.905 0-2.157 1.438-3.917 3.223-3.917 1.777 0 3.227 1.76 3.227 3.917"/><path d="m42.526 32.668c0 2.156-1.447 3.905-3.222 3.905-1.787 0-3.221-1.749-3.221-3.905 0-2.157 1.434-3.917 3.221-3.917 1.775 0 3.222 1.76 3.222 3.917"/></g><path d="m28.869 40.506c0-1.226 1.045-1.207 2.47-1.207 1.432 0 2.691-.019 2.691 1.207 0 1.232-1.151 2.226-2.579 2.226-1.423 0-2.582-.994-2.582-2.226" opacity=".6" fill="#c57929"/><g fill="#633c17"><path d="m10.75 9.953c-1.458 3.137 4.087 19.345 4.314 17.08.687-6.806 1.038-3.715 4.729-15.594 1.222-3.948 4.976-8.521 2.948-8.648-2.889-.176-10.51 4.02-11.991 7.162"/><path d="m22.76 16.297c1.495 3.122 20.1 8.435 18.329 6.865-5.31-4.728-2.347-3.13-9.537-13.446-2.395-3.424-3.223-9.327-5.02-7.726-2.555 2.285-5.256 11.158-3.777 14.307"/><path d="m33.11 19.955c3.403 3.39 27.19 3.835 24.34 2.463-8.562-4.123-4.357-3.114-18.11-13.566-4.576-3.472-8.767-10.538-9.892-7.955-1.601 3.692.268 15.633 3.663 19.06"/><path d="m39.01 15.211c3.34 1.315 21.674-8.486 19.19-8.389-7.454.288-25.794-8.21-26.1-5.615-.432 3.696 3.568 12.659 6.909 14"/><path d="m44.03 19.12c3.34 1.315 21.675-8.485 19.19-8.389-7.454.287-25.795-8.21-26.1-5.616-.431 3.697 3.569 12.659 6.91 14.01"/><path d="m16.819 3.774c-2.482 3.394 1.385 28.792 2.077 26.03 2.092-8.288.518-5.561 7.468-19.11 2.304-4.499 6.543-9.323 3.758-10.03-3.098-.783-10.804-.283-13.303 3.11"/></g><path d="m31.773-.007c-16.253 0-29.432 3.18-29.432 7.107 0 3.921 13.178 7.105 29.432 7.105 16.256 0 29.434-3.184 29.434-7.105 0-3.927-13.178-7.107-29.434-7.107m-.253 8.375c-9 0-16.298-1.761-16.298-3.933 0-2.176 7.297-3.937 16.298-3.937 9 0 16.298 1.761 16.298 3.937 0 2.172-7.297 3.933-16.298 3.933" fill="#f7ec35"/></g></svg>