<svg xmlns="http://www.w3.org/2000/svg" viewBox="0 0 64 64" enable-background="new 0 0 64 64"><circle fill="#fbb041" cx="31.843" cy="31.9" r="31.629"/><g opacity=".987"><path fill="#e79d3c" d="m15.266 41.05c-5.604-12.02-5.855-24.969-.79-35.67-8.585 5.654-14.262 15.37-14.262 26.422 0 17.471 14.16 31.629 31.629 31.629.31 0 .615-.039.925-.049-7.25-6.1-13.361-13.447-17.502-22.332"/></g><path fill="#633d19" d="m51.716 39.21c0 10.883-8.829 19.714-19.716 19.714-10.878 0-19.71-8.831-19.71-19.714"/><path fill="#fff" d="m48.34 41.19c0 4.347-7.465 7.876-16.668 7.876-9.195 0-16.662-3.529-16.662-7.876"/><g fill="#633d19"><path d="m22.575 13.858c-3.839 4.095-8.15 7.237-13.328 9.431-1.181.501-.267 2.26.901 1.765 5.329-2.258 9.799-5.507 13.75-9.721.869-.925-.451-2.404-1.323-1.475"/><path d="m9.738 25.886l0 0c-.828 0-1.579-.634-1.749-1.476-.159-.78.221-1.488.967-1.804 4.911-2.08 9.188-5.108 13.08-9.255.811-.863 2.268-.521 2.74.569.286.662.159 1.397-.333 1.921-4.148 4.425-8.727 7.661-14 9.897-.229.097-.465.148-.701.148m13.46-11.579c-4.116 4.361-8.557 7.504-13.661 9.667-.081.344.108.488.321.396 5.081-2.153 9.495-5.276 13.499-9.545.039-.043.129-.14.054-.313-.058-.134-.171-.205-.213-.205"/><path d="m42.01 13.858c3.839 4.095 8.15 7.237 13.328 9.431 1.181.501.268 2.26-.901 1.765-5.329-2.258-9.799-5.507-13.75-9.721-.87-.925.45-2.404 1.323-1.475"/><path d="m54.843 25.886c-.236 0-.473-.05-.7-.147-5.275-2.237-9.854-5.472-14-9.897-.491-.524-.619-1.26-.333-1.921.473-1.089 1.928-1.434 2.74-.569 3.889 4.146 8.165 7.175 13.08 9.255.747.315 1.127 1.024.968 1.804-.17.84-.921 1.475-1.749 1.475m-13.468-11.54c-.087 0-.162.066-.205.167-.075.174.016.271.054.313 4 4.269 8.418 7.392 13.499 9.545l.12.029c.139 0 .267-.151.294-.287-5.197-2.302-9.639-5.445-13.673-9.747-.031-.012-.06-.02-.089-.02"/><path d="m35.872 31.16c0 2.29 4.174-.275 7.859-.275 3.687 0 7.86 2.564 7.86.275 0-2.289-4.174-4.762-7.86-4.762-3.685 0-7.859 2.473-7.859 4.762"/><path d="m12.1 31.16c0 2.29 4.174-.275 7.86-.275s7.86 2.564 7.86.275c0-2.289-4.174-4.762-7.86-4.762s-7.86 2.473-7.86 4.762"/></g><path fill="#28a6de" d="m3.434 38.01c-2.616 3.796-2.206 8.614.917 10.771 3.123 2.151 7.774.824 10.391-2.973s6.537-14.896 3.414-17.05c-3.124-2.152-12.11 5.46-14.722 9.253"/><path fill="#58c5e8" d="m17.919 28.591c-3.348-1.656-12 5.705-14.574 9.436-2.639 3.823-2.225 8.68.921 10.852 1.432.986 3.185 1.215 4.919.84-1.192-7.842 2.314-15.919 8.734-21.13"/><path fill="#28a6de" d="m60.57 37.979c2.62 3.797 2.206 8.614-.917 10.771-3.123 2.151-7.771.824-10.392-2.973-2.616-3.796-6.536-14.895-3.413-17.05 3.124-2.151 12.11 5.462 14.722 9.253"/><path fill="#58c5e8" d="m46.09 28.564c3.344-1.656 12 5.705 14.574 9.435 2.636 3.823 2.222 8.681-.921 10.852-1.436.986-3.189 1.215-4.923.84 1.193-7.841-2.31-15.918-8.73-21.13"/></svg>