<svg xmlns="http://www.w3.org/2000/svg" viewBox="0 0 64 64" enable-background="new 0 0 64 64"><path fill="#79bcda" d="m39.675 39.486c-5.729-.625-11.455-1.25-17.18-1.877-.283-.029-.498-.449-.209-.701 1.531-1.334 3.059-2.666 4.588-3.994.912-.793 1.242-1.411 2.279-1.086 3.492 1.09 6.979 2.176 10.461 3.262.139.008.258.094.266.301.062 1.189.119 2.385.181 3.579.009.233-.134.545-.386.516"/><path fill="#ae92c4" d="m61.12 32.493c-1.43.02-2.637-.266-3.615-.857l.127-.572c.037-.17.055-.311.055-.422-.001-.312-.196-.57-.559-.771-.365-.201-.818-.299-1.359-.291-.547.008-1.061.113-1.551.305v2.754c.012-.004.021-.008.035-.012.023.094.049.188.068.285.559-.357 1.147-.54 1.764-.549l-.234 1.6c-.033.178.119.324.451.438.33.113.754.168 1.279.16 1.188-.016 2.273-.248 3.273-.697.996-.449 1.866-1.1 2.612-1.951-.666.373-1.447.567-2.346.58"/><g fill="#f18f21"><path d="m53.879 29.12c.02.006.037.012.059.02-.022-.008-.04-.015-.059-.02"/><path d="m53.938 43.09c-.021.006-.039.012-.039.012s.017-.006.039-.012"/><path d="m54.22 29.883v-.416c0-.137-.105-.25-.256-.312-.148.064-.248.18-.248.312v13.299c0 .133.1.248.248.313.15-.063.256-.179.256-.313v-10.129-2.754"/></g><path fill="#c1702a" d="m53.713 42.767v-13.3c0-.133.1-.248.248-.312l.004-.004-.027-.008c-.021-.008-.039-.014-.059-.02-.051-.013-.105-.023-.166-.023-.277 0-.504.164-.504.367v13.299c0 .201.227.365.504.365.061 0 .115-.001.168-.023 0 0 .035-.012.057-.018.008-.004.019-.006.027-.001l-.004-.002c-.148-.063-.248-.18-.248-.311"/><path fill="#e1ad81" d="m62.6 43.2c-19.366-3.293-38.73-6.584-58.09-9.875-.947-.162-2.093.832-1.394 1.813 3.641 5.131 7.282 10.264 10.926 15.398 2.172 3.063 2.635 5.101 6.355 5.101 12.516 0 25.04 0 37.552 0 .446.104.914-.041 1.155-.613 1.41-3.334 2.822-6.67 4.232-10.01.279-.661.137-1.664-.731-1.816"/><path fill="#c2793e" d="m3.047 34.02c-.184.324-.211.719.07 1.113 3.641 5.131 7.282 10.264 10.926 15.398 2.172 3.063 2.635 5.101 6.355 5.101h37.552c.446.104.914-.041 1.155-.613.836-1.978 1.672-3.956 2.509-5.933-10.116-.601-51.1-8.317-58.57-15.07"/><path fill="#4e9ec9" d="m0 50.697h64v13.286h-64z"/><path fill="#79bcda" d="m32.864 54.705c5.104.531 10.184 1.152 15.14 2.769 5.453 1.778 10.742 4.108 15.998 6.526v-13.614h-51.06c6.068 2.83 18.332 4.153 19.92 4.319"/></svg>