<?xml version="1.0" encoding="utf-8"?>
<svg xmlns="http://www.w3.org/2000/svg" width="24" height="24" viewBox="0 0 24 24">
    <g id="language">
        <path id="japanese" d="M17.533 9.81l.27-.59 1.042.407-.18.363c.66.27 1.1.468 1.312.59.33.21.618.513.86.904.21.393.316.846.316 1.358 0 .786-.302 1.48-.905 2.083-.604.634-1.66 1.057-3.17 1.268-.12-.36-.257-.68-.407-.95.966-.15 1.646-.333 2.038-.545.454-.21.785-.48.998-.813.21-.303.314-.663.314-1.087 0-.482-.136-.905-.407-1.27-.33-.33-.8-.588-1.402-.77-.332.635-.648 1.118-.95 1.45-.242.332-.694.906-1.358 1.72.09.394.18.71.272.952l-1.042.362-.09-.498c-.424.36-.802.617-1.134.77-.36.15-.664.226-.905.226-.303 0-.574-.136-.814-.407-.244-.3-.363-.68-.363-1.132 0-.603.136-1.146.407-1.63.24-.452.603-.89 1.086-1.312.272-.24.725-.528 1.36-.86 0-.27.03-.8.09-1.585-.515.03-.922.045-1.223.045-.393 0-.71-.015-.95-.045l-.047-1.04c.725.09 1.494.134 2.31.134 0-.15.075-.738.227-1.766l1.177.184c-.15.542-.256 1.04-.316 1.493.242-.03.543-.075.906-.136.362-.06.573-.09.634-.09s.648-.15 1.766-.453l.046 1.04c-.967.244-2.145.44-3.532.592-.062.662-.092 1.085-.092 1.265.663-.15 1.284-.225 1.857-.225zm-2.672 3.893c-.06-.48-.135-1.252-.226-2.31-.573.424-1.04.86-1.403 1.313-.302.423-.45.875-.45 1.358 0 .24.043.438.135.588.09.092.195.137.316.137.364 0 .908-.362 1.63-1.087zm.772-2.763c0 .483.03 1.088.09 1.81.604-.904 1.057-1.598 1.36-2.08-.575.06-1.06.15-1.45.27z"/>
        <path id="english" d="M9.497 15.98h1.85L8.265 7.033h-1.85l-3.08 8.95h1.85L5.74 14h3.21l.547 1.98zm-3.49-3.376L7.34 8.822l1.343 3.782H6.008z"/>
    </g>
</svg>
