<svg xmlns="http://www.w3.org/2000/svg" height="52" width="52" viewBox="0 0 520 520" fill="#fff"><path d="M69 337H37c-9 0-16 7-16 16v32c0 9 7 16 16 16h33c9-1 15-8 14-16v-32c1-9-6-16-15-16zm96-219h316c9 0 16-7 16-16V70c0-9-7-16-16-16H165c-9 0-16 7-16 16v32c0 9 7 16 16 16zm0 142h316c9 0 16-7 16-16v-32c0-9-7-16-16-16H165c-9 0-16 7-16 16v32c0 8 7 16 16 16zM69 54H37c-9 0-16 7-16 16v32c0 9 7 16 16 16h33c9-1 15-8 14-16V69c1-8-6-15-15-15zm0 141H37c-9 0-16 7-16 16v32c0 9 7 16 16 16h33c9-1 15-8 14-16v-32c1-8-6-16-15-16zm140 202c0-18 6-36 17-50v-11h-61c-9 0-16 7-16 16v32c0 9 7 16 16 16h44v-3zm143-83c8-8 19-13 32-13 17 0 31 9 39 22 6-2 14-5 22-5 29 0 54 25 54 53 0 29-25 53-54 53l-10-1c-6 12-20 20-34 20-6 0-12-2-17-4a45 45 0 0 1-41 27c-20 0-36-12-42-29l-9 1a41 41 0 0 1-42-41 40 40 0 0 1 21-36c-2-6-4-12-4-19 0-26 22-48 48-48a50 50 0 0 1 37 20z"/></svg>