<svg id="a" xmlns="http://www.w3.org/2000/svg" width="52" height="52" viewBox="0 0 52 52"><path d="M49.04,23.75l-2.95-1.36c-.4-.24-.96-.24-1.36,0l-8.77,4.23c1.44-.48,2.95-.72,4.47-.72,2.47,0,4.79.64,6.86,1.75l1.68-.8c1.36-.72,1.36-2.47.08-3.11Z" fill="#fff" stroke-width="0"/><path d="M3.02,15.53l21.38,10.13c.96.48,2.15.48,3.11,0l21.46-10.13c1.28-.64,1.28-2.31,0-2.95L27.51,2.45c-.96-.48-2.15-.48-3.11,0L3.02,12.66c-1.36.56-1.36,2.31,0,2.87Z" fill="#fff" stroke-width="0"/><path d="M3.02,26.7l21.38,10.21c.56.32,1.2.4,1.83.32.8-3.83,3.11-7.02,6.3-9.09l-4.95,2.39c-.96.48-2.15.48-3.11,0L7.32,22.39c-.4-.24-.96-.24-1.36,0l-2.95,1.36c-1.36.64-1.36,2.31,0,2.95Z" fill="#fff" stroke-width="0"/><path d="M25.99,42.09c-.56,0-1.04-.16-1.52-.32l-17.23-8.22c-.4-.24-.96-.24-1.36,0l-2.87,1.36c-1.28.64-1.28,2.31,0,2.95l21.38,10.21c.96.48,2.15.48,3.11,0l.48-.24c-1.04-1.75-1.75-3.67-1.99-5.74Z" fill="#fff" stroke-width="0"/><path d="M40.51,30.93c-5.18,0-9.49,4.23-9.49,9.49s4.23,9.49,9.49,9.49,9.49-4.23,9.49-9.49-4.31-9.49-9.49-9.49ZM48.01,39.46h-2.47c-.08-2.23-.64-4.23-1.36-5.66,2.07,1.2,3.51,3.27,3.83,5.66ZM39.55,33.24v6.22h-2.15c.16-2.95,1.04-5.26,2.15-6.22ZM39.55,41.38v6.22c-1.04-.88-1.99-3.27-2.15-6.22h2.15ZM41.46,47.6v-6.22h2.15c-.16,2.95-1.12,5.34-2.15,6.22ZM41.46,39.46v-6.22c1.04.88,1.99,3.27,2.15,6.22h-2.15ZM36.84,33.8c-.8,1.52-1.2,3.43-1.36,5.66h-2.47c.24-2.39,1.75-4.47,3.83-5.66ZM33.01,41.38h2.47c.08,2.23.64,4.23,1.36,5.66-2.07-1.12-3.59-3.19-3.83-5.66ZM44.18,47.04c.8-1.52,1.2-3.43,1.36-5.66h2.47c-.32,2.47-1.75,4.55-3.83,5.66Z" fill="#fff" stroke-width="0"/></svg>