<?xml version="1.0" encoding="UTF-8"?><svg id="a" xmlns="http://www.w3.org/2000/svg" width="100" height="100" viewBox="0 0 100 100"><path d="M25.69,64.77h48.6c.52,0,1.01-.2,1.38-.56.37-.36.57-.85.57-1.36v-31.09c0-1.53-.62-2.99-1.71-4.07-1.1-1.08-2.59-1.69-4.14-1.69H29.59c-1.55,0-3.04.53-4.14,1.61-1.1,1.08-1.71,2.62-1.71,4.15v31.09c0,1.06.88,1.92,1.95,1.92ZM29.36,33.46c0-1.06.88-1.92,1.95-1.92h37.35c.52,0,1.01.35,1.38.71.37.36.57.7.57,1.21v23.85c0,.51-.21,1-.57,1.36-.37.36-.86.56-1.38.56H31.31c-.52,0-1.01-.2-1.38-.56-.37-.36-.57-.85-.57-1.36v-23.85ZM80,70.68c0,2.48-2.18,3.32-4.97,3.32H24.97c-2.78,0-4.97-.84-4.97-3.32v-.53c0-.89.89-1.68,1.89-1.68h56.23c.99,0,1.89.8,1.89,1.68v.53h0Z" fill="#fff"/><path d="M51.33,53.1c-.75.78-1.97.78-2.72,0-2.25-2.41-6.55-7.01-6.55-7.05-1.93-2.03-1.93-5.38,0-7.42.94-1,2.18-1.53,3.52-1.53s2.59.53,3.52,1.53l.38.47c.25.31.75.31,1,0l.31-.41.06-.06c.97-1.03,2.22-1.56,3.52-1.56s2.59.53,3.53,1.53c1.93,2.03,1.93,5.39,0,7.42-.03.06-4.31,4.67-6.58,7.08,0,0,0,0,0,0Z" fill="#fff"/></svg>