<svg xmlns="http://www.w3.org/2000/svg" x="0px" y="0px"
	 width="52px" height="52px" viewBox="0 0 52 52" enable-background="new 0 0 52 52" xml:space="preserve">
<g>
	<path fill="#FFFFFF" d="M25,30.6c0.6,0.6,1.5,0.6,2.2,0L49.8,10c0.4-0.8,0.3-2-1.3-2H3.7c-1.2,0-2.2,1.2-1.3,2.1L25,30.6z"/>
	<path fill="#FFFFFF" d="M50,18.8c0-1-1.3-1.6-2-0.9L30.4,34c-1.2,1.1-2.7,1.7-4.3,1.7c-1.6,0-3.1-0.6-4.3-1.7L4.1,18
		c-0.8-0.7-2-0.2-2,0.9c0,6.2,0,20.4,0,20.4c0,2.6,2.2,4.7,4.8,4.7h38.4c2.6,0,4.8-2.1,4.8-4.7C50,39.3,50,25.1,50,18.8z"/>
</g>
</svg>
