<svg xmlns="http://www.w3.org/2000/svg" x="0px" y="0px"
	 width="52px" height="52px" viewBox="0 0 52 52" enable-background="new 0 0 52 52" xml:space="preserve">
<path fill="#FFFFFF" d="M34.2,29.3v-19c0-4.7-3.6-8.3-8.2-8.3h-0.1c-4.6,0-8.2,3.7-8.2,8.3v19C15.3,31.6,14,34.7,14,38
	c0,6.6,5.4,12,12,12s12-5.4,12-12C38,34.6,36.7,31.6,34.2,29.3z M32.3,38H19.7c-0.7,0-1.2-0.7-1.1-1.4c0.3-1.8,1.3-3.4,2.7-4.5
	c0.5-0.5,0.9-1.1,0.9-1.8v-20c0-2.2,1.6-3.8,3.7-3.8H26c2.1,0,3.7,1.7,3.7,3.8V11h-2.2c-1.3,0-2.2,1-2.2,2.2s1,2.2,2.2,2.2h2.2v3
	h-2.2c-1.3,0-2.2,1-2.2,2.2s1,2.2,2.2,2.2h2.2v3h-2.2c-1.3,0-2.2,1-2.2,2.2s1,2.2,2.2,2.2h2.2c0.1,0.7,0.4,1.2,0.9,1.7
	c1.4,1.1,2.4,2.8,2.7,4.5C33.5,37.3,33,38,32.3,38z"/>
</svg>
