<?xml version="1.0" encoding="utf-8"?>
<svg xmlns="http://www.w3.org/2000/svg" width="24" height="24" viewBox="0 0 24 24">
    <g id="special-character">
        <path id="omega" d="M12 6.708c-.794 0-1.368.103-1.894.31-.525.207-.944.496-1.255.867-.31.366-.53.808-.66 1.327-.124.513-.19 1.08-.19 1.7 0 .512.06 1 .176 1.46.122.46.31.87.568 1.23.63.862 1.156 1.138 2.012 1.362L11 18H6v-3h.604l.53 1.353.395.053.6.044.75.035.458.01H10l-.09-.895c-.63-.094-.812-.268-1.337-.522-.525-.26-.98-.59-1.365-.99-.38-.402-.675-.868-.89-1.4-.213-.536-.32-1.13-.32-1.778 0-.82.13-1.537.394-2.15.27-.62.656-1.133 1.163-1.54.507-.407 1.133-.71 1.878-.912.745-.206 1.6-.31 2.565-.31.96 0 1.81.103 2.556.31.75.2 1.38.504 1.887.912.51.407.896.92 1.158 1.54.27.614.403 1.33.403 2.15 0 .65-.107 1.242-.32 1.78-.215.53-.514.996-.9 1.397-.38.4-.83.732-1.355.99-.525.255-.707.43-1.336.523l-.093.894h.66l.447-.01.75-.034.606-.044.4-.053.533-1.354H18v3h-5l.246-3.04c1.066-.11 1.337-.695 2.002-1.362.263-.36.452-.77.568-1.23.122-.46.183-.947.183-1.46 0-.62-.067-1.186-.195-1.7-.128-.52-.348-.96-.66-1.326-.31-.372-.73-.66-1.255-.867-.524-.206-1.1-.31-1.893-.31"/>
    </g>
</svg>
