<svg xmlns="http://www.w3.org/2000/svg" viewBox="-0.1 -0.1 184.3 184.9"><path fill="#8d89f7" d="M107.3 0H76.82c-1.36 0-2.72.03-4.05.08l111.3 111.3c.03-1.14.05-2.28.05-3.44V76.82C184.12 31.08 153.04 0 107.3 0z"/><path fill="#706cf5" d="M76.82 184.76h30.48c44.6 0 75.24-29.53 76.76-73.38L72.76.08C29.26 1.8 0 31.45 0 75.82v33.12c0 45.74 31.08 75.82 76.82 75.82z"/><path fill="#fff" d="M118.8 132.96c-7.65 5.06-16.82 8-26.68 8-19 0-35.43-10.9-43.37-26.82-4-2.1-7.68-4.32-10.96-6.58 6.53 23.83 28.4 41.33 54.3 41.33 15.4 0 29.33-6.2 39.5-16.2-3.97.32-8.27.4-12.8.23zM44.73 102.6c-3.26-2-6.22-4.05-8.83-6.13-9.7-7.7-14.68-15.76-12.82-22.6 1.85-6.82 10.2-11.24 22.4-12.97 10.14-14.92 27.24-24.7 46.64-24.7 29.88 0 54.33 23.25 56.23 52.66 9.7 7.7 14.68 15.75 12.8 22.6-1.85 6.85-10.27 11.27-22.58 13-3.3.45-6.9.72-10.73.8-12.47.2-27.4-1.72-42.97-5.97-15.62-4.3-29.5-10.2-40.14-16.7zm89.36 14.12c4.02-7.03 6.4-15.2 6.4-23.88v-.3c0-26.75-21.67-48.43-48.4-48.43-17.8 0-33.33 9.6-41.76 23.9-4.23 7.2-6.67 15.58-6.68 24.5 10.1 6.8 25.34 13.4 42.98 18.2 18.2 5 35.22 6.96 47.43 6.05zm9.64-1.6c4.85-1.44 8-3.7 8.82-6.76.84-3.1-.8-6.7-4.38-10.48l-.1.75c-.6 5.8-2.12 11.34-4.36 16.48zM40.9 69l.4-.87c-5.72 1.4-9.38 3.8-10.3 7.14-.9 3.3 1 7.18 5.1 11.2.65-6.18 2.3-12.06 4.8-17.47z"/><g fill="#fff"><path d="M154.72 35.37l2.82 2.82-12.42 12.4-2.83-2.8 12.4-12.46z"/><path d="M160.58 41.22l-2.3 2.17-8.75-8.8 2.3-2.16 8.75 8.75zM143.5 24.14l1.98 2 .83.82 4.5 4.45-2.27 2.3-4.44-4.45-2.98 2.97 3.84 3.84-2.27 2.26-3.84-3.86-2.67 2.67 4.44 4.48-2.25 2.27-5.3-5.28-2-2 12.43-12.43zm20.04 20.06l1 .97v-.02l1.9 1.9-8.8 16.05-2.83-2.82 2.1-3.2-3.2-3.2-3.2 2.1-2.82-2.82 15.88-8.97zm-.85 3.83l-6.35 4.1 2.23 2.24 4.1-6.34zm-28.75-33.4l2.82 2.8 1.75 1.77c1.87 1.87 1.87 4.88 0 6.74-1.2 1.2-2.88 1.62-4.43 1.28.57 1.62.2 3.5-1.1 4.8-1.8 1.8-4.72 1.8-6.52 0l-2.15-2.16-2.83-2.8 12.43-12.44zm-6.1 14.3c.94.92 2.46.92 3.4 0 .94-.95.94-2.46 0-3.4l-1.3-1.3-3.38 3.4 1.26 1.28zm4.96-5.46c.85.84 2.2.84 3.07 0 .82-.84.82-2.2 0-3.04l-1.07-1.04-3.04 3 1.03 1.04z"/></g></svg>