<?xml version="1.0" encoding="utf-8"?>
<svg xmlns="http://www.w3.org/2000/svg" width="24" height="24" viewBox="0 0 24 24">
    <g id="bullet-list-ltr">
        <path id="bottom_dot" d="M5 10H4c-.552 0-1 .447-1 1v1c0 .553.448 1 1 1h1c.552 0 1-.447 1-1v-1c0-.553-.448-1-1-1z"/>
        <path id="middle_dot" d="M5 17H4c-.552 0-1 .447-1 1v1c0 .553.448 1 1 1h1c.552 0 1-.447 1-1v-1c0-.553-.448-1-1-1z"/>
        <path id="top_dot" d="M5 3H4c-.552 0-1 .447-1 1v1c0 .553.448 1 1 1h1c.552 0 1-.447 1-1V4c0-.553-.448-1-1-1z"/>
        <path id="bottom_line" d="M20 17H9c-.552 0-1 .447-1 1v1c0 .553.448 1 1 1h11c.552 0 1-.447 1-1v-1c0-.553-.448-1-1-1z"/>
        <path id="middle_line" d="M20 10H9c-.552 0-1 .447-1 1v1c0 .553.448 1 1 1h11c.552 0 1-.447 1-1v-1c0-.553-.448-1-1-1z"/>
        <path id="top_line" d="M20 3H9c-.552 0-1 .447-1 1v1c0 .553.448 1 1 1h11c.552 0 1-.447 1-1V4c0-.553-.448-1-1-1z"/>
    </g>
</svg>
