<svg xmlns="http://www.w3.org/2000/svg" width="24" height="24"><path d="M19.07 4.93A10 10 0 0 0 4.93 19.07 10 10 0 0 0 19.07 4.93zM6.34 6.34a8 8 0 0 1 8.78-1.71l-.29.3.71.71.52-.53a9.53 9.53 0 0 1 .84.57L5.68 16.9a9.53 9.53 0 0 1-.57-.84l.53-.52-.71-.71-.29.29a8 8 0 0 1 1.7-8.78zm11.32 11.32a8 8 0 0 1-8.78 1.71l.29-.3-.71-.71-.52.53a9.53 9.53 0 0 1-.84-.57L18.32 7.1a9.53 9.53 0 0 1 .57.84l-.53.52.71.71.29-.29a8 8 0 0 1-1.7 8.78zm-6.37-2.12.71.7-1.41 1.42-.71-.66zm2.83-2.83.71.7-1.42 1.42-.7-.71zM17 9.88l.71.71L16.24 12l-.7-.71zm-4.29-1.42-.71-.7 1.41-1.42.71.71zm-2.83 2.83-.71-.7 1.42-1.42.7.71zm-2.83 2.83-.71-.71L7.76 12l.7.71z"/></svg>