<svg xmlns="http://www.w3.org/2000/svg" width="24" height="24"><path d="M12 2C6.486 2 2 6.486 2 12s4.486 10 10 10 10-4.486 10-10S17.514 2 12 2zm0 2c3.213 0 5.982 1.908 7.254 4.648a7.8 7.8 0 0 1-.895-.498c-.409-.258-.873-.551-1.46-.772-.669-.255-1.4-.378-2.234-.378s-1.565.123-2.234.377c-.587.223-1.051.516-1.472.781-.378.237-.703.443-1.103.594C9.41 8.921 8.926 9 8.33 9c-.595 0-1.079-.079-1.524-.248-.4-.151-.728-.358-1.106-.598-.161-.101-.34-.208-.52-.313C6.587 5.542 9.113 4 12 4zm0 16c-4.411 0-8-3.589-8-8 0-.81.123-1.59.348-2.327.094.058.185.11.283.173.411.26.876.554 1.466.776.669.255 1.399.378 2.233.378.833 0 1.564-.123 2.235-.377.587-.223 1.051-.516 1.472-.781.378-.237.703-.443 1.103-.595.445-.168.929-.247 1.525-.247s1.08.079 1.525.248c.399.15.725.356 1.114.602.409.258.873.551 1.46.773.363.138.748.229 1.153.291.049.357.083.717.083 1.086 0 4.411-3.589 8-8 8z"/><circle cx="8.5" cy="13.5" r="1.5"/><circle cx="15.5" cy="13.5" r="1.5"/></svg>