<svg xmlns="http://www.w3.org/2000/svg" width="24" height="24"><path d="M20.787 9.023c-.125.027-1.803.418-3.953 1.774-.323-1.567-1.279-4.501-4.108-7.485L12 2.546l-.726.767C8.435 6.308 7.483 9.25 7.163 10.827 5.005 9.448 3.34 9.052 3.218 9.024L2 8.752V10c0 7.29 3.925 12 10 12 5.981 0 10-4.822 10-12V8.758l-1.213.265zM8.999 12.038c.002-.033.152-3.1 3.001-6.532C14.814 8.906 14.999 12 15 12v.125a18.933 18.933 0 0 0-3.01 3.154 19.877 19.877 0 0 0-2.991-3.113v-.128zM12 20c-5.316 0-7.549-4.196-7.937-8.564 1.655.718 4.616 2.426 7.107 6.123l.841 1.249.825-1.26c2.426-3.708 5.425-5.411 7.096-6.122C19.534 15.654 17.304 20 12 20z"/></svg>