<svg xmlns="http://www.w3.org/2000/svg" x="0px" y="0px"
	 width="52px" height="52px" viewBox="0 0 52 52" enable-background="new 0 0 52 52" xml:space="preserve">
<g>
	<path fill="#FFFFFF" d="M10.5,21h-5C4.7,21,4,21.7,4,22.5v23C4,46.3,4.7,47,5.5,47H8c2.2,0,4-1.8,4-4V22.5C12,21.7,11.3,21,10.5,21
		z"/>
	<path fill="#FFFFFF" d="M44,22h-6c-2.2,0-4-1.8-4-4V8c0-2.2-1.8-4-4-4h-2.5C26.7,4,26,4.7,26,5.5v6c0,5.3-3.7,10.5-8.5,10.5
		c-0.8,0-1.5,0.7-1.5,1.5v20c0,0.8,0.6,1.5,1.4,1.5c6.8,0.3,9.1,3,16.2,3c7.5,0,14.4-0.8,14.4-9.5v-5V26C48,23.8,46.2,22,44,22z"/>
</g>
</svg>
