<svg id="a" xmlns="http://www.w3.org/2000/svg" width="52" height="52" viewBox="0 0 52 52"><path d="M45.9,2H4.9c-.8,0-1.5.7-1.5,1.5v5c0,.8.7,1.5,1.5,1.5h41c.8,0,1.5-.7,1.5-1.5V3.5c0-.8-.7-1.5-1.5-1.5ZM13.9,14H4.9c-.8,0-1.5.7-1.5,1.5v3c0,.8.7,1.5,1.5,1.5h9c.8,0,1.5-.7,1.5-1.5v-3c0-.8-.7-1.5-1.5-1.5ZM29.9,14h-9c-.8,0-1.5.7-1.5,1.5v3c0,.8.7,1.5,1.5,1.5h9c.8,0,1.5-.7,1.5-1.5v-3c0-.8-.7-1.5-1.5-1.5ZM45.9,14h-9c-.8,0-1.5.7-1.5,1.5v3c0,.8.7,1.5,1.5,1.5h9c.8,0,1.5-.7,1.5-1.5v-3c0-.8-.7-1.5-1.5-1.5ZM45.9,24H4.9c-.8,0-1.5.7-1.5,1.5v3c0,.8.7,1.5,1.5,1.5h24.6c2.5-2.5,5.9-4,9.7-4s5.9,1,8.2,2.7v-3.2c0-.8-.7-1.5-1.5-1.5ZM20.9,34h5.8c-.8,1.8-1.3,3.7-1.3,5.8s0,.1,0,.2h-4.5c-.8,0-1.5-.7-1.5-1.5v-3c0-.8.7-1.5,1.5-1.5ZM20.9,44h5.1c.7,2.3,2.1,4.4,3.8,6h-9c-.8,0-1.5-.7-1.5-1.5v-3c0-.8.7-1.5,1.5-1.5h.1ZM13.9,34H4.9c-.8,0-1.5.7-1.5,1.5v3c0,.8.7,1.5,1.5,1.5h9c.8,0,1.5-.7,1.5-1.5v-3c0-.8-.7-1.5-1.5-1.5ZM13.9,44H4.9c-.8,0-1.5.7-1.5,1.5v3c0,.8.7,1.5,1.5,1.5h9c.8,0,1.5-.7,1.5-1.5v-3c0-.8-.7-1.5-1.5-1.5ZM36.4,39.8l-6.1-6.1c-.6-.6-.6-1.6,0-2.1l.7-.7c.5-.6,1.5-.6,2.1,0l6.1,6.1,6.1-6.1c.5-.6,1.5-.6,2.1,0l.7.7c.6.5.6,1.5,0,2.1l-6.1,6.1,6.1,6.1c.6.5.6,1.5,0,2.1l-.7.7c-.5.6-1.5.6-2.1,0l-6.1-6.1-6.1,6.1c-.5.6-1.5.6-2.1,0l-.7-.7c-.6-.5-.6-1.5,0-2.1l6.1-6.1Z" fill="#fff"/></svg>