<svg id="a" xmlns="http://www.w3.org/2000/svg" width="52" height="52" viewBox="0 0 52 52"><path d="M26,30.87c-4.51,0-8.66,2.35-11.19,6.14-.54.9-.18,1.98.54,2.53.9.54,1.98.18,2.53-.54,1.8-2.89,4.87-4.51,8.12-4.51s6.32,1.62,8.12,4.51c.36.54.9.9,1.62.9s.72,0,.9-.18c.9-.54,1.08-1.62.54-2.53-2.53-3.97-6.68-6.14-11.19-6.14v-.18Z" fill="#fff"/><path d="M26,2C12.65,2,2,12.83,2,26s10.83,24,24,24,24-10.83,24-24S39.35,2,26,2ZM26,45.31c-10.65,0-19.31-8.66-19.31-19.31S15.35,6.69,26,6.69s19.31,8.66,19.31,19.31-8.66,19.31-19.31,19.31Z" fill="#fff"/><path d="M19.5,22.03c.36.18.72.36,1.08.36.54,0,1.08-.18,1.44-.72.54-.72.36-1.98-.36-2.53-2.71-1.98-6.68-1.98-9.38,0-.72.54-.9,1.8-.36,2.53s1.8.9,2.53.36c1.44-1.08,3.61-1.08,5.05,0Z" fill="#fff"/><path d="M39.71,19.14c-2.71-1.98-6.68-1.98-9.38,0-.72.54-.9,1.8-.36,2.53s1.8.9,2.53.36c1.44-1.08,3.61-1.08,5.05,0s.72.36,1.08.36c.54,0,1.08-.18,1.44-.72.54-.72.36-1.98-.36-2.53Z" fill="#fff"/></svg>