<svg xmlns="http://www.w3.org/2000/svg" width="24" height="24" viewBox="0 0 24 24"><path d="M7 19c-1.1 0-2 .9-2 2h14c0-1.1-.9-2-2-2h-4v-2h3c1.1 0 2-.9 2-2h-8c-1.66 0-3-1.34-3-3a3 3 0 0 1 1.47-2.57c.41.59 1.06 1 1.83 1.06.7.06 1.36-.19 1.85-.62l.59 1.61.94-.34.34.94 1.88-.68-.34-.94.94-.34-2.74-7.52-.94.34-.34-.94-1.88.68.34.94-.94.35.56 1.55c-1.17-.04-2.19.75-2.48 1.86A5.01 5.01 0 0 0 5 12c0 2.76 2.24 5 5 5v2H7zm5.86-14.48 1.71 4.7-.94.34-1.71-4.7.94-.34zM10.5 7c.55 0 1 .45 1 1s-.45 1-1 1-1-.45-1-1 .45-1 1-1z"/></svg>