<svg xmlns="http://www.w3.org/2000/svg" width="24" height="24" viewBox="0 0 24 24"><circle cx="9" cy="13" r="1.25"/><path d="M17.5 10c.75 0 1.47-.09 2.17-.24.21.71.33 1.46.33 2.24 0 1.22-.28 2.37-.77 3.4l1.49 1.49A9.981 9.981 0 0 0 22 12c0-5.52-4.48-10-10-10-1.78 0-3.44.47-4.89 1.28l5.33 5.33c1.49.88 3.21 1.39 5.06 1.39zm-6.84-5.88c.43-.07.88-.12 1.34-.12 2.9 0 5.44 1.56 6.84 3.88-.43.07-.88.12-1.34.12-2.9 0-5.44-1.56-6.84-3.88zm-8.77-.4 2.19 2.19A9.958 9.958 0 0 0 2 12c0 5.52 4.48 10 10 10 2.29 0 4.4-.78 6.09-2.08l2.19 2.19 1.41-1.41L3.31 2.31 1.89 3.72zm14.77 14.77A7.91 7.91 0 0 1 12 20c-4.41 0-8-3.59-8-8 0-.05.01-.1 0-.14a9.946 9.946 0 0 0 3.64-2.39l9.02 9.02zM6.23 8.06c-.53.55-1.14 1.03-1.81 1.41.26-.77.63-1.48 1.09-2.13l.72.72z"/></svg>