<svg xmlns="http://www.w3.org/2000/svg" x="0px" y="0px"
	 width="52px" height="52px" viewBox="0 0 52 52" enable-background="new 0 0 52 52" xml:space="preserve">
<g>
	<path fill="#FFFFFF" d="M29.2,28.4l-1-1.7c-0.4-0.6-1-1-1.8-1c-0.2,0-0.5,0.1-0.7,0.2l-2.8,1c-1.1-1-2.3-1.6-3.7-2.1l-0.5-2.9
		c-0.2-1-1-1.5-2-1.5h-2c-1,0-1.8,0.6-2,1.6l-0.5,2.8C10.9,25.3,9.7,26,8.5,27l-2.8-1c-0.2-0.1-0.5-0.2-0.7-0.2
		c-0.7,0-1.4,0.4-1.8,1l-1,1.7c-0.5,0.9-0.3,1.9,0.5,2.6L5.1,33c-0.2,0.7-0.2,1.4-0.2,2.1c0,0.6,0.1,1.4,0.2,2.2l-2.3,1.9
		c-0.8,0.6-1,1.8-0.5,2.6l1,1.7c0.4,0.6,1,1,1.8,1c0.2,0,0.5-0.1,0.7-0.2l2.8-1c1.1,1,2.3,1.7,3.7,2.1l0.5,3c0.2,1,1,1.7,2,1.7h2
		c1,0,1.8-0.7,2-1.7l0.5-3c1.4-0.5,2.7-1.3,3.9-2.2l2.6,1c0.2,0.1,0.5,0.2,0.7,0.2c0.7,0,1.4-0.4,1.8-1l1-1.6c0.5-0.9,0.3-2-0.5-2.6
		l-2.3-1.9c0.2-0.7,0.2-1.4,0.2-2.1c0-0.7-0.1-1.4-0.2-2.2l2.3-1.9C29.4,30.3,29.6,29.2,29.2,28.4z M15.7,40.6c-3,0-5.5-2.4-5.5-5.5
		s2.4-5.5,5.5-5.5c3,0,5.5,2.4,5.5,5.5S18.6,40.6,15.7,40.6z"/>
	<path fill="#FFFFFF" d="M49.4,17.1l-1.8-1.5c0.1-0.6,0.2-1.1,0.2-1.7c0-0.6-0.1-1.2-0.2-1.7l1.8-1.5c0.6-0.5,0.8-1.4,0.4-2.1
		L49,7.2c-0.3-0.5-0.9-0.8-1.4-0.8c-0.2,0-0.4,0.1-0.6,0.1l-2.3,0.9c-0.9-0.8-1.9-1.4-3-1.7l-0.4-2.4C41.1,2.5,40.5,2,39.7,2h-1.6
		c-0.8,0-1.5,0.5-1.6,1.3l-0.4,2.3c-1.1,0.4-2.1,1-3,1.8l-2.3-1c-0.2-0.1-0.4-0.1-0.6-0.1c-0.6,0-1.1,0.3-1.4,0.8L28,8.4
		c-0.4,0.7-0.2,1.6,0.4,2.1l1.8,1.5c-0.1,0.6-0.2,1.1-0.2,1.7c0,0.6,0.1,1.2,0.2,1.7l-1.8,1.5c-0.6,0.5-0.8,1.4-0.4,2.1l0.8,1.4
		c0.3,0.5,0.9,0.8,1.4,0.8c0.2,0,0.4,0,0.6-0.1l2.3-0.9c0.9,0.8,1.9,1.4,3,1.7l0.4,2.3c0.2,0.8,0.8,1.4,1.6,1.4h1.6
		c0.8,0,1.5-0.6,1.6-1.4l0.4-2.4c1.1-0.4,2.2-1,3.1-1.8l2.2,0.9c0.2,0.1,0.4,0.1,0.6,0.1c0.6,0,1.1-0.3,1.4-0.8l0.8-1.3
		C50.2,18.5,50,17.7,49.4,17.1z M38.9,18.4c-2.4,0-4.4-2-4.4-4.4s2-4.4,4.4-4.4s4.4,2,4.4,4.4S41.4,18.4,38.9,18.4z"/>
</g>
</svg>
