<?xml version="1.0" encoding="UTF-8"?><svg xmlns="http://www.w3.org/2000/svg" width="20" height="20" viewBox="0 0 20 20"><g fill="#fff"><title>help</title><path d="M5.49.01A4.72 4.72 0 0 1 10 4.9H7.46v-.17a2.31 2.31 0 0 0-2.38-2.22h-.19a2.1 2.1 0 0 0-2.06 2.14c0 1.18.45 1.81 1.79 2.71a3.86 3.86 0 0 1 2 3.84v.81H4.11v-.68c0-1.18-.4-1.79-1.82-2.71A4.59 4.59 0 0 1 0 4.54C0 1.9 2 .01 4.94.01a5 5 0 0 1 .55 0zM7 16.26a1.88 1.88 0 0 1-2 1.75 1.22 1.22 0 0 1-.27 0 1.86 1.86 0 0 1-1.73-2 1.22 1.22 0 0 1 0-.27 1.87 1.87 0 0 1 2-1.73h.23a1.89 1.89 0 0 1 1.77 2 1 1 0 0 1 0 .25z"/></g></svg>