<?xml version="1.0" encoding="utf-8"?>
<!-- Generator: Adobe Illustrator 16.0.0, SVG Export Plug-In . SVG Version: 6.00 Build 0)  -->
<!DOCTYPE svg PUBLIC "-//W3C//DTD SVG 1.1//EN" "http://www.w3.org/Graphics/SVG/1.1/DTD/svg11.dtd">
<svg version="1.1" id="Layer_1" xmlns="http://www.w3.org/2000/svg" xmlns:xlink="http://www.w3.org/1999/xlink" x="0px" y="0px"
	 width="32px" height="32px" viewBox="-1.5 0 32 32" enable-background="new -1.5 0 32 32" xml:space="preserve">
<path d="M1.061,19.168V10.56c0-0.555,0.203-1.029,0.608-1.424c0.405-0.395,0.875-0.592,1.408-0.592c0.555,0,1.029,0.197,1.424,0.592
	c0.395,0.395,0.592,0.87,0.592,1.424v8.608c0,0.555-0.198,1.029-0.592,1.424s-0.869,0.592-1.424,0.592s-1.029-0.197-1.424-0.592
	C1.258,20.197,1.061,19.723,1.061,19.168z M6.597,22.368V8.992h18.368v13.376c0,0.555-0.197,1.029-0.592,1.424
	s-0.869,0.592-1.424,0.592H8.612c-0.554,0-1.029-0.197-1.424-0.592S6.597,22.923,6.597,22.368z M6.597,7.488h18.368
	c0-2.453-0.906-4.469-2.721-6.048c-1.812-1.579-3.968-2.368-6.463-2.368c-2.497,0-4.651,0.789-6.465,2.368
	C7.503,3.019,6.597,5.035,6.597,7.488z M9.829-2.624c0-0.171,0.075-0.256,0.224-0.256c0.064,0,0.139,0.021,0.224,0.064l1.568,2.848
	l-0.48,0.256C10.34-1.589,9.829-2.56,9.829-2.624z M10.309,23.2c0-0.576,0.203-1.056,0.608-1.44
	c0.405-0.384,0.907-0.576,1.504-0.576c0.534,0,1.003,0.203,1.408,0.608s0.608,0.874,0.608,1.408v6.464
	c0,0.598-0.203,1.082-0.608,1.456c-0.405,0.373-0.907,0.56-1.504,0.56c-0.555,0-1.029-0.197-1.424-0.592
	c-0.395-0.395-0.592-0.869-0.592-1.424V23.2z M10.469,3.36c0-0.341,0.128-0.634,0.384-0.88c0.256-0.245,0.555-0.368,0.896-0.368
	s0.635,0.123,0.88,0.368c0.246,0.246,0.368,0.539,0.368,0.88c0,0.363-0.123,0.667-0.368,0.912c-0.245,0.246-0.549,0.368-0.912,0.368
	c-0.341,0-0.634-0.128-0.88-0.384C10.591,4,10.469,3.701,10.469,3.36z M17.125,23.2c0-0.576,0.207-1.056,0.623-1.44
	c0.416-0.384,0.912-0.576,1.488-0.576c0.555,0,1.029,0.197,1.424,0.592c0.395,0.396,0.592,0.87,0.592,1.425v6.464
	c0,0.598-0.202,1.082-0.607,1.456c-0.405,0.373-0.906,0.56-1.504,0.56c-0.555,0-1.029-0.197-1.424-0.592s-0.592-0.869-0.592-1.424
	V23.2z M18.564,3.36c0-0.341,0.128-0.634,0.385-0.88c0.256-0.245,0.555-0.368,0.896-0.368s0.634,0.123,0.88,0.368
	c0.245,0.246,0.368,0.539,0.368,0.88c0,0.363-0.128,0.667-0.384,0.912c-0.256,0.246-0.555,0.368-0.896,0.368
	s-0.635-0.128-0.88-0.384C18.688,4,18.564,3.701,18.564,3.36z M19.717,0.032c0.043-0.064,0.191-0.368,0.447-0.912
	s0.508-1.014,0.752-1.408c0.246-0.395,0.443-0.592,0.593-0.592s0.224,0.096,0.224,0.288v0.064L20.197,0.32L19.717,0.032z
	 M26.469,19.168v-8.576c0-0.555,0.197-1.035,0.592-1.44s0.869-0.608,1.424-0.608s1.029,0.203,1.424,0.608s0.592,0.885,0.592,1.44
	v8.576c0,0.555-0.197,1.029-0.592,1.424s-0.869,0.592-1.424,0.592s-1.035-0.197-1.439-0.592
	C26.639,20.197,26.447,19.723,26.469,19.168z"/>
</svg>
