<?xml version="1.0" encoding="utf-8"?>
<!-- Generator: Adobe Illustrator 16.0.0, SVG Export Plug-In . SVG Version: 6.00 Build 0)  -->
<!DOCTYPE svg PUBLIC "-//W3C//DTD SVG 1.1//EN" "http://www.w3.org/Graphics/SVG/1.1/DTD/svg11.dtd">
<svg version="1.1" id="Layer_1" xmlns="http://www.w3.org/2000/svg" xmlns:xlink="http://www.w3.org/1999/xlink" x="0px" y="0px"
	 width="32px" height="32px" viewBox="2.5 0 32 32" enable-background="new 2.5 0 32 32" xml:space="preserve">
<path d="M-2.908,14.176c0-2.24,0.816-4.154,2.448-5.744c1.632-1.589,3.6-2.384,5.904-2.384c1.813,0,3.44,0.512,4.88,1.536
	s2.448,2.347,3.024,3.968l2.112-2.048l5.056,4.864L34.5,0.096v12.96l-8.545,6.592l1.089,1.151L15.428,32.096L5.316,22.271
	c-2.283-0.042-4.224-0.854-5.824-2.432S-2.908,16.374-2.908,14.176z M-1.724,14.176c0,1.92,0.693,3.553,2.08,4.896
	s3.061,2.016,5.024,2.016c0.704,0,1.397-0.096,2.08-0.288l7.04,6.24l18.72-14.72l0.032-9.664L14.756,21.729l-2.88-4.672
	c0.426-0.918,0.64-1.878,0.64-2.881c0-1.898-0.699-3.525-2.096-4.88C9.022,7.941,7.342,7.264,5.38,7.264
	c-1.963,0-3.637,0.677-5.024,2.032C-1.031,10.651-1.724,12.277-1.724,14.176z M-0.188,14.24c0-1.494,0.528-2.768,1.584-3.824
	C2.452,9.36,3.727,8.832,5.22,8.832S7.988,9.354,9.044,10.4c1.056,1.045,1.584,2.326,1.584,3.84c0,1.493-0.528,2.768-1.584,3.824
	c-1.056,1.056-2.331,1.584-3.824,1.584s-2.768-0.528-3.824-1.584C0.34,17.008-0.188,15.733-0.188,14.24z"/>
</svg>
