<?xml version="1.0" encoding="utf-8"?>
<!-- Generator: Adobe Illustrator 16.0.0, SVG Export Plug-In . SVG Version: 6.00 Build 0)  -->
<!DOCTYPE svg PUBLIC "-//W3C//DTD SVG 1.1//EN" "http://www.w3.org/Graphics/SVG/1.1/DTD/svg11.dtd">
<svg version="1.1" id="Layer_1" xmlns="http://www.w3.org/2000/svg" xmlns:xlink="http://www.w3.org/1999/xlink" x="0px" y="0px"
	 width="32px" height="32px" viewBox="-14.808 -7.832 32 32" enable-background="new -14.808 -7.832 32 32" xml:space="preserve">
<path d="M-2,26.266c0-1.855,0.95-3.51,2.851-4.963c1.899-1.451,4.195-2.178,6.885-2.178h1.73c-0.898-0.854-1.347-1.771-1.347-2.754
	c0-0.618,0.171-1.238,0.512-1.856c-0.213,0.021-0.522,0.033-0.929,0.033c-2.219,0-4.034-0.695-5.443-2.083
	c-1.409-1.387-2.114-3.095-2.114-5.125c0-1.943,0.875-3.639,2.625-5.091C4.523,0.796,6.52,0.071,8.761,0.071h9.927l-2.209,1.601
	h-3.137c1.003,0.384,1.789,1.111,2.353,2.179c0.566,1.066,0.85,2.252,0.85,3.555c0,1.985-0.939,3.714-2.819,5.188
	c-0.79,0.618-1.302,1.108-1.537,1.472s-0.353,0.812-0.353,1.345c0,0.405,0.29,0.919,0.865,1.538
	c0.577,0.618,1.153,1.142,1.729,1.567c1.301,0.918,2.205,1.859,2.707,2.818c0.502,0.963,0.751,2.168,0.751,3.619
	c0,1.922-0.875,3.592-2.625,5.012c-1.75,1.422-4.12,2.129-7.11,2.129c-2.839,0-5.242-0.531-7.205-1.6
	C-1.017,29.426-2,28.018-2,26.266z M1.586,25.209c0,1.475,0.625,2.729,1.874,3.764c1.249,1.037,2.802,1.553,4.659,1.553
	c2.542,0,4.382-0.471,5.524-1.408c1.144-0.939,1.714-2.188,1.714-3.746c0-0.406-0.042-0.748-0.128-1.025
	c-0.063-0.234-0.139-0.453-0.223-0.658c-0.087-0.201-0.215-0.404-0.386-0.607c-0.169-0.203-0.319-0.373-0.446-0.512
	c-0.129-0.139-0.337-0.314-0.626-0.529c-0.288-0.213-0.508-0.373-0.657-0.48c-0.149-0.105-0.415-0.293-0.801-0.561
	c-0.383-0.266-0.662-0.453-0.833-0.561c-0.833-0.256-1.654-0.383-2.465-0.383c-1.922-0.021-3.603,0.479-5.043,1.504
	C2.309,22.584,1.586,23.801,1.586,25.209z M3.701,7.309c0.235,1.686,0.881,3.137,1.938,4.355c1.058,1.216,2.227,1.835,3.507,1.857
	c1.26,0.042,2.264-0.512,3.011-1.666c0.747-1.153,1.014-2.572,0.799-4.259c-0.213-1.686-0.848-3.117-1.904-4.292
	C9.994,2.131,8.825,1.523,7.543,1.479C6.263,1.438,5.249,1.981,4.501,3.114C3.754,4.245,3.487,5.643,3.701,7.309z M21.475,8.078
	V6.476h6.404V0.071h1.602v6.405h6.438v1.602H29.48v6.437h-1.602V8.078H21.475z"/>
</svg>
