<?xml version="1.0" encoding="utf-8"?>
<!-- Generator: Adobe Illustrator 16.0.0, SVG Export Plug-In . SVG Version: 6.00 Build 0)  -->
<!DOCTYPE svg PUBLIC "-//W3C//DTD SVG 1.1//EN" "http://www.w3.org/Graphics/SVG/1.1/DTD/svg11.dtd">
<svg version="1.1" id="Layer_1" xmlns="http://www.w3.org/2000/svg" xmlns:xlink="http://www.w3.org/1999/xlink" x="0px" y="0px"
	 width="32px" height="32px" viewBox="-1 0 32 32" enable-background="new -1 0 32 32" xml:space="preserve">
<path d="M1,27.28c-0.064-0.758,0.011-1.392,0.224-1.904c0.832-2.987,1.813-5.536,2.944-7.647C6.6,13.12,9.938,9.365,14.184,6.464
	V6.016c-1.259,0.533-2.523,1.232-3.792,2.096c-1.27,0.864-2.357,1.728-3.264,2.592c-0.907,0.864-1.717,1.69-2.432,2.48
	c-0.714,0.789-1.253,1.429-1.616,1.92L2.536,15.84c-0.043-1.258,0.128-2.485,0.512-3.68c0.384-1.195,0.864-2.197,1.44-3.008
	c0.576-0.811,1.158-1.525,1.744-2.144C6.819,6.389,7.314,5.931,7.72,5.632l0.608-0.416C8.414,5.173,8.525,5.115,8.664,5.04
	s0.432-0.219,0.88-0.432c0.448-0.213,0.912-0.411,1.392-0.592c0.48-0.182,1.066-0.363,1.76-0.544
	c0.693-0.182,1.376-0.31,2.048-0.384c0.672-0.075,1.418-0.096,2.24-0.064c0.82,0.032,1.605,0.155,2.352,0.368
	c1.365-1.003,2.736-1.781,4.112-2.336s2.415-0.864,3.12-0.928l1.056-0.096c1.066-0.107,1.894,0.069,2.479,0.528
	c0.587,0.458,0.918,1.045,0.992,1.76c0.075,0.715,0.07,1.44-0.016,2.176c-0.086,0.736-0.213,1.371-0.385,1.904l-0.287,0.768
	l-0.16-0.16c0.447-1.216,0.666-2.213,0.656-2.992c-0.011-0.779-0.197-1.381-0.561-1.808c-0.362-0.427-0.752-0.736-1.168-0.928
	c-0.416-0.192-0.805-0.299-1.168-0.32l-0.512-0.064c-0.086,0-0.208,0.005-0.368,0.016s-0.501,0.064-1.024,0.16
	c-0.521,0.096-1.045,0.229-1.567,0.4c-0.522,0.17-1.168,0.437-1.937,0.8c-0.768,0.363-1.504,0.8-2.207,1.312
	c1.471,0.235,2.783,0.683,3.936,1.344c1.152,0.662,2.069,1.414,2.752,2.256s1.264,1.75,1.744,2.72
	c0.48,0.971,0.811,1.915,0.992,2.832c0.182,0.917,0.32,1.75,0.416,2.496s0.133,1.344,0.111,1.792l-0.031,0.705H12.488
	c-0.064,0.896,0.048,1.674,0.336,2.336c0.288,0.661,0.65,1.146,1.088,1.455c0.437,0.31,0.875,0.55,1.312,0.721
	c0.437,0.17,0.816,0.267,1.135,0.287l0.48,0.033c0.086,0,0.208-0.006,0.368-0.017s0.442-0.069,0.849-0.176
	c0.404-0.106,0.772-0.257,1.104-0.448c0.33-0.191,0.661-0.496,0.992-0.912c0.33-0.416,0.56-0.912,0.688-1.488h9.344
	c-0.341,1.26-0.842,2.4-1.504,3.424c-0.661,1.024-1.387,1.852-2.176,2.48s-1.621,1.174-2.496,1.633
	c-0.875,0.458-1.712,0.794-2.512,1.008c-0.801,0.213-1.525,0.384-2.176,0.512s-1.168,0.203-1.553,0.224H17.16
	c-1.664,0-2.806-0.063-3.424-0.192c-1.28,1.004-2.629,1.787-4.048,2.353s-2.522,0.88-3.312,0.944L5.224,32
	c-0.981,0-1.808-0.25-2.48-0.752c-0.672-0.502-1.115-1.099-1.328-1.792S1.064,28.037,1,27.28L1,27.28z M3.416,27.104
	c-0.011,0.513,0.016,0.966,0.08,1.36s0.149,0.698,0.256,0.912l0.128,0.288c0.085,0.064,0.203,0.149,0.352,0.256
	c0.149,0.107,0.507,0.251,1.072,0.432c0.565,0.182,1.173,0.268,1.824,0.256c0.651-0.01,1.525-0.186,2.624-0.527
	s2.246-0.875,3.44-1.6c-0.17-0.043-0.4-0.102-0.688-0.176c-0.288-0.075-0.827-0.268-1.616-0.576
	c-0.79-0.311-1.525-0.646-2.208-1.009s-1.392-0.869-2.128-1.52c-0.736-0.651-1.307-1.339-1.712-2.064
	c-0.469,0.726-0.821,1.44-1.056,2.145C3.549,25.984,3.427,26.592,3.416,27.104z M12.456,13.536h8.479
	c0.021-0.768-0.102-1.44-0.367-2.016c-0.268-0.576-0.608-0.992-1.024-1.248s-0.827-0.458-1.231-0.608
	c-0.406-0.149-0.758-0.235-1.057-0.256l-0.447-0.032c-0.129,0-0.289,0.011-0.48,0.032c-0.191,0.021-0.544,0.106-1.056,0.256
	s-0.96,0.352-1.344,0.608c-0.384,0.256-0.731,0.672-1.04,1.248C12.579,12.096,12.435,12.768,12.456,13.536z"/>
</svg>
