<?xml version="1.0" encoding="utf-8"?>
<!-- Generator: Adobe Illustrator 16.0.0, SVG Export Plug-In . SVG Version: 6.00 Build 0)  -->
<!DOCTYPE svg PUBLIC "-//W3C//DTD SVG 1.1//EN" "http://www.w3.org/Graphics/SVG/1.1/DTD/svg11.dtd">
<svg version="1.1" id="Layer_1" xmlns="http://www.w3.org/2000/svg" xmlns:xlink="http://www.w3.org/1999/xlink" x="0px" y="0px"
	 width="32px" height="32px" viewBox="-5.5 0 32 32" enable-background="new -5.5 0 32 32" xml:space="preserve">
<path d="M5.252,0.48h3.2l0.256,3.872h0.32l0.16-0.096C10.873,1.418,13.497,0,17.061,0c2.773,0,5.039,1.051,6.799,3.152
	C25.62,5.253,26.5,7.958,26.5,11.264c0,1.984-0.288,3.76-0.864,5.328c-0.575,1.568-1.349,2.821-2.319,3.76
	c-0.971,0.939-2.049,1.654-3.232,2.145s-2.427,0.736-3.729,0.736c-1.472,0-2.811-0.305-4.016-0.912
	c-1.205-0.608-2.128-1.456-2.768-2.545L9.508,19.68H9.156L9.06,19.904V32H5.444V7.648C5.444,5.771,5.38,3.381,5.252,0.48z
	 M9.06,13.696c0,0.662,0.064,1.248,0.192,1.76c0.405,1.493,1.195,2.698,2.368,3.616c1.173,0.917,2.517,1.376,4.032,1.376
	c2.154,0,3.883-0.816,5.184-2.448s1.952-3.813,1.952-6.544c0-2.539-0.651-4.608-1.952-6.208s-2.977-2.4-5.023-2.4
	c-1.537,0-2.902,0.485-4.097,1.456c-1.194,0.97-1.984,2.224-2.368,3.76C9.156,8.768,9.06,9.333,9.06,9.76V13.696z"/>
</svg>
