<?xml version="1.0" encoding="utf-8"?>
<!-- Generator: Adobe Illustrator 16.0.0, SVG Export Plug-In . SVG Version: 6.00 Build 0)  -->
<!DOCTYPE svg PUBLIC "-//W3C//DTD SVG 1.1//EN" "http://www.w3.org/Graphics/SVG/1.1/DTD/svg11.dtd">
<svg version="1.1" id="Layer_1" xmlns="http://www.w3.org/2000/svg" xmlns:xlink="http://www.w3.org/1999/xlink" x="0px" y="0px"
	 width="32px" height="32px" viewBox="-2 0 32 32" enable-background="new -2 0 32 32" xml:space="preserve">
<path d="M1.865,20.032c0,3.136,1.077,5.877,3.232,8.224s4.928,3.52,8.32,3.52c3.371,0,6.134-1.173,8.288-3.52
	c2.154-2.304,3.232-5.045,3.232-8.224c0-1.664-0.288-3.222-0.864-4.672c-0.854,0.534-1.76,0.896-2.72,1.088
	c0.469,1.088,0.703,2.304,0.703,3.647c0,1.621-0.383,3.137-1.151,4.545c-0.79,1.407-1.845,2.484-3.168,3.231
	c-1.323,0.769-2.763,1.151-4.32,1.151c-1.6,0-3.05-0.383-4.352-1.151c-1.344-0.79-2.39-1.866-3.136-3.231
	c-0.789-1.387-1.184-2.902-1.184-4.545c0-2.496,0.854-4.65,2.56-6.464c1.707-1.771,3.744-2.656,6.112-2.656
	c1.089,0,2.134,0.203,3.136,0.608c0.086-0.832,0.374-1.75,0.864-2.752c-1.216-0.448-2.55-0.672-4-0.672
	c-3.413,0-6.25,1.258-8.512,3.776C2.878,14.219,1.865,16.918,1.865,20.032z M10.825,28.128l1.792,0.128
	c1.579-1.002,2.906-2.165,3.984-3.488c1.077-1.322,1.85-2.645,2.32-3.968c0.469-1.322,0.799-2.667,0.991-4.032
	c0.128-0.874,0.192-1.728,0.192-2.56c0-0.448-0.021-0.875-0.064-1.28c-0.106-1.173-0.24-2.224-0.4-3.152
	c-0.159-0.928-0.324-1.659-0.496-2.192l-0.287-0.8c-0.47-1.451-0.934-2.72-1.393-3.808s-0.795-1.803-1.008-2.144l-0.352-0.544
	c0.832,0.427,1.504,0.938,2.016,1.536c0.49,0.619,0.789,1.184,0.896,1.696c0.085,0.427,0.127,0.843,0.127,1.248v0.224
	c-0.021,0.469-0.084,0.842-0.191,1.12l-0.16,0.416c0.086,1.237,0.139,2.432,0.16,3.584c0,1.109-0.053,2.198-0.16,3.264
	c-0.191,2.133-0.518,3.915-0.976,5.344c-0.459,1.43-0.987,2.726-1.584,3.888c-0.598,1.163-1.211,2.075-1.84,2.736
	c-0.629,0.662-1.21,1.211-1.744,1.648c-0.534,0.438-0.971,0.741-1.312,0.912L10.825,28.128z M19.625,7.744
	c0.086-0.854,0.331-1.536,0.736-2.048l0.576-0.8c0.256-0.299,0.672-0.582,1.248-0.848s1.088-0.464,1.535-0.592l0.672-0.192
	c0.769-0.171,1.479-0.544,2.129-1.12c0.65-0.576,1.114-1.12,1.392-1.632l0.416-0.736c0.875,1.216,1.397,2.592,1.568,4.128
	c0.085,0.683,0.117,1.291,0.096,1.824c0,0.725-0.063,1.354-0.192,1.888l-0.352,1.44c-0.256,0.704-0.613,1.344-1.072,1.92
	c-0.459,0.576-0.848,0.971-1.168,1.184l-0.48,0.352c-0.725,0.426-1.439,0.64-2.143,0.64l-3.488-1.696
	c1.236-0.683,2.314-1.376,3.231-2.08s1.595-1.317,2.032-1.84c0.438-0.523,0.789-0.998,1.057-1.424
	c0.266-0.426,0.42-0.757,0.463-0.992l0.064-0.32c-0.385,0.854-0.901,1.632-1.553,2.336c-0.65,0.704-1.312,1.259-1.983,1.664
	s-1.317,0.752-1.937,1.04c-0.618,0.288-1.119,0.485-1.504,0.592l-0.576,0.16c-0.533-0.938-0.799-1.781-0.799-2.528
	C19.594,7.958,19.604,7.851,19.625,7.744z"/>
</svg>
