<?xml version="1.0" encoding="utf-8"?>
<!-- Generator: Adobe Illustrator 16.0.0, SVG Export Plug-In . SVG Version: 6.00 Build 0)  -->
<!DOCTYPE svg PUBLIC "-//W3C//DTD SVG 1.1//EN" "http://www.w3.org/Graphics/SVG/1.1/DTD/svg11.dtd">
<svg version="1.1" id="Layer_1" xmlns="http://www.w3.org/2000/svg" xmlns:xlink="http://www.w3.org/1999/xlink" x="0px" y="0px"
	 width="32px" height="32px" viewBox="0 0 32 32" enable-background="new 0 0 32 32" xml:space="preserve">
<path d="M-2.672,8.704c1.173-1.387,2.347-2.624,3.52-3.712c1.173-1.088,2.192-1.915,3.056-2.48c0.864-0.565,1.637-1.024,2.32-1.376
	C6.907,0.784,7.419,0.555,7.76,0.448L8.304,0.32C8.56,0.277,8.816,0.256,9.072,0.256c0.405,0,0.778,0.064,1.12,0.192
	c0.555,0.213,1.008,0.581,1.36,1.104c0.352,0.523,0.661,1.109,0.928,1.76s0.496,1.418,0.688,2.304
	c0.192,0.885,0.352,1.712,0.48,2.48s0.272,1.616,0.432,2.544c0.16,0.928,0.315,1.68,0.464,2.256c0.683,2.667,1.232,4.56,1.647,5.68
	c0.416,1.119,0.859,1.68,1.328,1.68c0.514,0,1.223-0.592,2.129-1.775c0.906-1.185,1.904-2.799,2.992-4.849
	c0.555-1.024,0.832-1.995,0.832-2.912c0-0.277-0.021-0.521-0.063-0.736c-0.191-1.109-0.736-1.803-1.632-2.08
	c-0.235-0.085-0.491-0.128-0.77-0.128c-0.746,0-1.632,0.277-2.656,0.832c0.471-2.773,1.899-5.002,4.289-6.688
	C24.453,0.64,26.311,0,28.208,0c0.257,0,0.513,0.011,0.769,0.032c2.176,0.17,3.658,1.13,4.447,2.88C33.809,3.723,34,4.661,34,5.728
	c0,0.619-0.064,1.269-0.191,1.952c-0.385,2.176-1.125,4.395-2.225,6.656c-1.1,2.262-2.305,4.262-3.615,6
	c-1.312,1.738-2.727,3.393-4.24,4.96c-1.516,1.568-2.832,2.815-3.951,3.744c-1.12,0.928-2.086,1.659-2.896,2.192
	C15.984,31.744,15.147,32,14.368,32c-0.779,0-1.52-0.225-2.224-0.672c-0.704-0.448-1.301-0.96-1.792-1.536
	c-0.491-0.576-0.896-1.185-1.216-1.824c-0.384-0.811-1.424-3.995-3.12-9.552C4.32,12.858,3.291,9.867,2.928,9.44
	C2.907,9.397,2.864,9.354,2.8,9.312S2.592,9.221,2.368,9.168c-0.224-0.053-0.48-0.053-0.768,0C1.312,9.221,0.923,9.371,0.432,9.616
	c-0.491,0.245-1.024,0.592-1.6,1.04L-2.672,8.704z"/>
</svg>
