<?xml version="1.0" standalone="no"?> <!DOCTYPE svg PUBLIC "-//W3C//DTD SVG 1.0//EN" "http://www.w3.org/TR/2001/REC-SVG-20010904/DTD/svg10.dtd" > <svg xmlns="http://www.w3.org/2000/svg" width="100%" height="100%">
<defs >
<font id="MathJax_Main-Regular" horiz-adv-x="428" ><font-face
    font-family="MathJax_Main"
    units-per-em="1000"
    panose-1="0 0 0 0 0 0 0 0 0 0"
    ascent="1167"
    descent="-472"
    alphabetic="0" />
<missing-glyph horiz-adv-x="250" d="M50 0V533H200V0H50ZM100 50H150V483H100V50Z" />
<glyph unicode=" " glyph-name="space" horiz-adv-x="250" />
<glyph unicode="!" glyph-name="exclam" horiz-adv-x="278" d="M78 661Q78 682 96 699T138 716T180 700T199 661Q199 654 179 432T158 206Q156 198 139 198Q121 198 119 206Q118 209 98 431T78 661ZM79 61Q79 89 97 105T141 121Q164 119 181 104T198 61Q198 31
181 16T139 1Q114 1 97 16T79 61Z" />
<glyph unicode="&quot;" glyph-name="quotedbl" horiz-adv-x="500" d="M34 634Q34 659 50 676T93 694Q121 694 144 668T168 579Q168 525 146 476T101 403T73 379Q69 379 60 388T50 401Q50 404 62 417T88 448T116 500T131 572Q131 584 130 584T125 581T112 576T94
573Q69 573 52 590T34 634ZM238 634Q238 659 254 676T297 694Q325 694 348 668T372 579Q372 525 350 476T305 403T277 379Q273 379 264 388T254 401Q254 404 266 417T292 448T320 500T335 572Q335 584 334 584T329 581T316 576T298 573Q273 573 256 590T238 634Z"
/>
<glyph unicode="#" glyph-name="numbersign" horiz-adv-x="833" d="M56 347Q56 360 70 367H313L355 524Q394 676 401 686Q406 694 416 694Q434 694 436 676Q436 672 396 522Q355 374 355 369L354 367H543L585 524Q626 679 630 685Q636 694 646 694Q653 694 659
689T665 678Q665 668 626 522Q585 374 585 369L584 367H762Q777 359 777 347Q777 334 767 331T722 327H667H572L552 251L531 174Q531 173 647 173H720Q756 173 766 170T777 153T762 133H519L477 -24Q436 -179 432 -185Q426 -194 416 -194Q409 -194 403 -189T397
-177Q397 -167 436 -21Q477 125 477 131L478 133H289L247 -24Q206 -179 202 -185Q196 -194 186 -194Q179 -194 173 -189T167 -177Q167 -167 206 -21Q247 125 247 131L248 133H70Q56 140 56 153Q56 168 72 173H260L280 249L301 326Q301 327 186 327H72Q56 332 56
347ZM531 326Q531 327 437 327H342L322 251L301 174Q301 173 395 173H490L510 249L531 326Z" />
<glyph unicode="$" glyph-name="dollar" horiz-adv-x="500" d="M162 187Q162 164 146 149T109 133H103V130Q108 115 115 105Q122 92 131 82T150 64T170 52T190 44T206 40T220 37L227 36V313Q190 320 162 335Q116 358 86 404T55 508Q55 567 85 614T165 685Q186
696 225 704H227V750H273V704L286 703Q369 690 413 631Q441 588 444 531Q444 514 443 509Q439 490 425 479T391 468Q368 468 353 483T337 522Q337 546 353 560T390 575L394 576V578Q386 599 372 614T342 637T314 649T288 656L273 658V408L288 405Q329 394 355 376Q396
348 420 300T444 199Q444 130 408 76T313 1Q286 -9 276 -9H273V-56H227V-10H221Q202 -6 193 -4T155 11T108 41T74 94T55 176V182Q55 227 95 238Q103 240 108 240Q129 240 145 226T162 187ZM225 657Q219 657 204 651T169 632T135 594T121 538Q121 512 131 491T156
457T187 435T213 423T227 420V539Q227 657 225 657ZM378 169Q378 230 339 265T274 301Q273 301 273 169V37Q324 50 351 87T378 169Z" />
<glyph unicode="%" glyph-name="percent" horiz-adv-x="833" d="M465 605Q428 605 394 614T340 632T319 641Q332 608 332 548Q332 458 293 403T202 347Q145 347 101 402T56 548Q56 637 101 693T202 750Q241 750 272 719Q359 642 464 642Q580 642 650 732Q662 748
668 749Q670 750 673 750Q682 750 688 743T693 726Q178 -47 170 -52Q166 -56 160 -56Q147 -56 142 -45Q137 -36 142 -27Q143 -24 363 304Q469 462 525 546T581 630Q528 605 465 605ZM207 385Q235 385 263 427T292 548Q292 617 267 664T200 712Q193 712 186 709T167
698T147 668T134 615Q132 595 132 548V527Q132 436 165 403Q183 385 203 385H207ZM500 146Q500 234 544 290T647 347Q699 347 737 292T776 146T737 0T646 -56Q590 -56 545 0T500 146ZM651 -18Q679 -18 707 24T736 146Q736 215 711 262T644 309Q637 309 630 306T611
295T591 265T578 212Q577 200 577 146V124Q577 -18 647 -18H651Z" />
<glyph unicode="&amp;" glyph-name="ampersand" horiz-adv-x="778" d="M156 540Q156 620 201 668T302 716Q354 716 377 671T401 578Q401 505 287 386L274 373Q309 285 416 148L429 132L437 142Q474 191 543 309L562 341V349Q562 368 541 376T498 385H493V431H502L626
428Q709 428 721 431H727V385H712Q688 384 669 379T639 369T618 354T603 337T591 316T578 295Q537 223 506 176T464 117T454 104Q454 102 471 85T497 62Q543 24 585 24Q618 24 648 48T682 113V121H722V112Q721 94 714 75T692 32T646 -7T574 -22Q491 -19 414 42L402
51L391 42Q312 -22 224 -22Q144 -22 93 25T42 135Q42 153 46 169T55 197T74 225T96 249T125 278T156 308L195 347L190 360Q185 372 182 382T174 411T165 448T159 491T156 540ZM361 576Q361 613 348 646T305 679Q272 679 252 649T232 572Q232 497 255 426L259 411L267
420Q361 519 361 576ZM140 164Q140 103 167 64T240 24Q271 24 304 36T356 61T374 77Q295 156 235 262L220 292L210 310L193 293Q177 277 169 268T151 229T140 164Z" />
<glyph unicode="&apos;" glyph-name="quotesingle" horiz-adv-x="278" d="M78 634Q78 659 95 676T138 694Q166 694 189 668T212 579Q212 525 190 476T146 403T118 379Q114 379 105 388T95 401Q95 404 107 417T133 448T161 500T176 572Q176 584 175 584T170 581T157
576T139 573Q114 573 96 590T78 634Z" />
<glyph unicode="(" glyph-name="parenleft" horiz-adv-x="389" d="M94 250Q94 319 104 381T127 488T164 576T202 643T244 695T277 729T302 750H315H319Q333 750 333 741Q333 738 316 720T275 667T226 581T184 443T167 250T184 58T225 -81T274 -167T316 -220T333
-241Q333 -250 318 -250H315H302L274 -226Q180 -141 137 -14T94 250Z" />
<glyph unicode=")" glyph-name="parenright" horiz-adv-x="389" d="M60 749L64 750Q69 750 74 750H86L114 726Q208 641 251 514T294 250Q294 182 284 119T261 12T224 -76T186 -143T145 -194T113 -227T90 -246Q87 -249 86 -250H74Q66 -250 63 -250T58 -247T55 -238Q56
-237 66 -225Q221 -64 221 250T66 725Q56 737 55 738Q55 746 60 749Z" />
<glyph unicode="*" glyph-name="asterisk" horiz-adv-x="500" d="M215 721Q216 732 225 741T248 750Q263 750 273 742T284 721L270 571L327 613Q383 654 388 657T399 660Q412 660 423 650T435 624T424 600T376 575Q363 569 355 566L289 534L355 504L424 470Q435
462 435 447Q435 431 424 420T399 409Q393 409 388 412T327 456L270 498L277 423L284 348Q280 320 250 320T215 348L229 498L172 456Q116 415 111 412T100 409Q87 409 76 420T64 447Q64 461 75 470L144 504L210 534L144 566Q136 570 122 576Q83 593 74 600T64 624Q64
639 75 649T100 660Q106 660 111 657T172 613L229 571Q229 578 222 643T215 721Z" />
<glyph unicode="+" glyph-name="plus" horiz-adv-x="778" d="M56 237T56 250T70 270H369V420L370 570Q380 583 389 583Q402 583 409 568V270H707Q722 262 722 250T707 230H409V-68Q401 -82 391 -82H389H387Q375 -82 369 -68V230H70Q56 237 56 250Z" />
<glyph unicode="," glyph-name="comma" horiz-adv-x="278" d="M78 35T78 60T94 103T137 121Q165 121 187 96T210 8Q210 -27 201 -60T180 -117T154 -158T130 -185T117 -194Q113 -194 104 -185T95 -172Q95 -168 106 -156T131 -126T157 -76T173 -3V9L172 8Q170 7
167 6T161 3T152 1T140 0Q113 0 96 17Z" />
<glyph unicode="-" glyph-name="hyphen" horiz-adv-x="333" d="M11 179V252H277V179H11Z" />
<glyph unicode="." glyph-name="period" horiz-adv-x="278" d="M78 60Q78 84 95 102T138 120Q162 120 180 104T199 61Q199 36 182 18T139 0T96 17T78 60Z" />
<glyph unicode="/" glyph-name="slash" horiz-adv-x="500" d="M423 750Q432 750 438 744T444 730Q444 725 271 248T92 -240Q85 -250 75 -250Q68 -250 62 -245T56 -231Q56 -221 230 257T407 740Q411 750 423 750Z" />
<glyph unicode="0" glyph-name="zero" horiz-adv-x="500" d="M96 585Q152 666 249 666Q297 666 345 640T423 548Q460 465 460 320Q460 165 417 83Q397 41 362 16T301 -15T250 -22Q224 -22 198 -16T137 16T82 83Q39 165 39 320Q39 494 96 585ZM321 597Q291 629
250 629Q208 629 178 597Q153 571 145 525T137 333Q137 175 145 125T181 46Q209 16 250 16Q290 16 318 46Q347 76 354 130T362 333Q362 478 354 524T321 597Z" />
<glyph unicode="1" glyph-name="one" horiz-adv-x="500" d="M213 578L200 573Q186 568 160 563T102 556H83V602H102Q149 604 189 617T245 641T273 663Q275 666 285 666Q294 666 302 660V361L303 61Q310 54 315 52T339 48T401 46H427V0H416Q395 3 257 3Q121 3 100
0H88V46H114Q136 46 152 46T177 47T193 50T201 52T207 57T213 61V578Z" />
<glyph unicode="2" glyph-name="two" horiz-adv-x="500" d="M109 429Q82 429 66 447T50 491Q50 562 103 614T235 666Q326 666 387 610T449 465Q449 422 429 383T381 315T301 241Q265 210 201 149L142 93L218 92Q375 92 385 97Q392 99 409 186V189H449V186Q448
183 436 95T421 3V0H50V19V31Q50 38 56 46T86 81Q115 113 136 137Q145 147 170 174T204 211T233 244T261 278T284 308T305 340T320 369T333 401T340 431T343 464Q343 527 309 573T212 619Q179 619 154 602T119 569T109 550Q109 549 114 549Q132 549 151 535T170
489Q170 464 154 447T109 429Z" />
<glyph unicode="3" glyph-name="three" horiz-adv-x="500" d="M127 463Q100 463 85 480T69 524Q69 579 117 622T233 665Q268 665 277 664Q351 652 390 611T430 522Q430 470 396 421T302 350L299 348Q299 347 308 345T337 336T375 315Q457 262 457 175Q457 96 395
37T238 -22Q158 -22 100 21T42 130Q42 158 60 175T105 193Q133 193 151 175T169 130Q169 119 166 110T159 94T148 82T136 74T126 70T118 67L114 66Q165 21 238 21Q293 21 321 74Q338 107 338 175V195Q338 290 274 322Q259 328 213 329L171 330L168 332Q166 335
166 348Q166 366 174 366Q202 366 232 371Q266 376 294 413T322 525V533Q322 590 287 612Q265 626 240 626Q208 626 181 615T143 592T132 580H135Q138 579 143 578T153 573T165 566T175 555T183 540T186 520Q186 498 172 481T127 463Z" />
<glyph unicode="4" glyph-name="four" horiz-adv-x="500" d="M462 0Q444 3 333 3Q217 3 199 0H190V46H221Q241 46 248 46T265 48T279 53T286 61Q287 63 287 115V165H28V211L179 442Q332 674 334 675Q336 677 355 677H373L379 671V211H471V165H379V114Q379 73 379
66T385 54Q393 47 442 46H471V0H462ZM293 211V545L74 212L183 211H293Z" />
<glyph unicode="5" glyph-name="five" horiz-adv-x="500" d="M164 157Q164 133 148 117T109 101H102Q148 22 224 22Q294 22 326 82Q345 115 345 210Q345 313 318 349Q292 382 260 382H254Q176 382 136 314Q132 307 129 306T114 304Q97 304 95 310Q93 314 93 485V614Q93
664 98 664Q100 666 102 666Q103 666 123 658T178 642T253 634Q324 634 389 662Q397 666 402 666Q410 666 410 648V635Q328 538 205 538Q174 538 149 544L139 546V374Q158 388 169 396T205 412T256 420Q337 420 393 355T449 201Q449 109 385 44T229 -22Q148 -22
99 32T50 154Q50 178 61 192T84 210T107 214Q132 214 148 197T164 157Z" />
<glyph unicode="6" glyph-name="six" horiz-adv-x="500" d="M42 313Q42 476 123 571T303 666Q372 666 402 630T432 550Q432 525 418 510T379 495Q356 495 341 509T326 548Q326 592 373 601Q351 623 311 626Q240 626 194 566Q147 500 147 364L148 360Q153 366 156
373Q197 433 263 433H267Q313 433 348 414Q372 400 396 374T435 317Q456 268 456 210V192Q456 169 451 149Q440 90 387 34T253 -22Q225 -22 199 -14T143 16T92 75T56 172T42 313ZM257 397Q227 397 205 380T171 335T154 278T148 216Q148 133 160 97T198 39Q222 21
251 21Q302 21 329 59Q342 77 347 104T352 209Q352 289 347 316T329 361Q302 397 257 397Z" />
<glyph unicode="7" glyph-name="seven" horiz-adv-x="500" d="M55 458Q56 460 72 567L88 674Q88 676 108 676H128V672Q128 662 143 655T195 646T364 644H485V605L417 512Q408 500 387 472T360 435T339 403T319 367T305 330T292 284T284 230T278 162T275 80Q275
66 275 52T274 28V19Q270 2 255 -10T221 -22Q210 -22 200 -19T179 0T168 40Q168 198 265 368Q285 400 349 489L395 552H302Q128 552 119 546Q113 543 108 522T98 479L95 458V455H55V458Z" />
<glyph unicode="8" glyph-name="eight" horiz-adv-x="500" d="M70 417T70 494T124 618T248 666Q319 666 374 624T429 515Q429 485 418 459T392 417T361 389T335 371T324 363L338 354Q352 344 366 334T382 323Q457 264 457 174Q457 95 399 37T249 -22Q159 -22 101
29T43 155Q43 263 172 335L154 348Q133 361 127 368Q70 417 70 494ZM286 386L292 390Q298 394 301 396T311 403T323 413T334 425T345 438T355 454T364 471T369 491T371 513Q371 556 342 586T275 624Q268 625 242 625Q201 625 165 599T128 534Q128 511 141 492T167
463T217 431Q224 426 228 424L286 386ZM250 21Q308 21 350 55T392 137Q392 154 387 169T375 194T353 216T330 234T301 253T274 270Q260 279 244 289T218 306L210 311Q204 311 181 294T133 239T107 157Q107 98 150 60T250 21Z" />
<glyph unicode="9" glyph-name="nine" horiz-adv-x="500" d="M352 287Q304 211 232 211Q154 211 104 270T44 396Q42 412 42 436V444Q42 537 111 606Q171 666 243 666Q245 666 249 666T257 665H261Q273 665 286 663T323 651T370 619T413 560Q456 472 456 334Q456
194 396 97Q361 41 312 10T208 -22Q147 -22 108 7T68 93T121 149Q143 149 158 135T173 96Q173 78 164 65T148 49T135 44L131 43Q131 41 138 37T164 27T206 22H212Q272 22 313 86Q352 142 352 280V287ZM244 248Q292 248 321 297T351 430Q351 508 343 542Q341 552
337 562T323 588T293 615T246 625Q208 625 181 598Q160 576 154 546T147 441Q147 358 152 329T172 282Q197 248 244 248Z" />
<glyph unicode=":" glyph-name="colon" horiz-adv-x="278" d="M78 370Q78 394 95 412T138 430Q162 430 180 414T199 371Q199 346 182 328T139 310T96 327T78 370ZM78 60Q78 84 95 102T138 120Q162 120 180 104T199 61Q199 36 182 18T139 0T96 17T78 60Z" />
<glyph unicode=";" glyph-name="semicolon" horiz-adv-x="278" d="M78 370Q78 394 95 412T138 430Q162 430 180 414T199 371Q199 346 182 328T139 310T96 327T78 370ZM78 60Q78 85 94 103T137 121Q202 121 202 8Q202 -44 183 -94T144 -169T118 -194Q115 -194 106
-186T95 -174Q94 -171 107 -155T137 -107T160 -38Q161 -32 162 -22T165 -4T165 4Q165 5 161 4T142 0Q110 0 94 18T78 60Z" />
<glyph unicode="&lt;" glyph-name="less" horiz-adv-x="778" d="M694 -11T694 -19T688 -33T678 -40Q671 -40 524 29T234 166L90 235Q83 240 83 250Q83 261 91 266Q664 540 678 540Q681 540 687 534T694 519T687 505Q686 504 417 376L151 250L417 124Q686 -4 687
-5Q694 -11 694 -19Z" />
<glyph unicode="=" glyph-name="equal" horiz-adv-x="778" d="M56 347Q56 360 70 367H707Q722 359 722 347Q722 336 708 328L390 327H72Q56 332 56 347ZM56 153Q56 168 72 173H708Q722 163 722 153Q722 140 707 133H70Q56 140 56 153Z" />
<glyph unicode="&gt;" glyph-name="greater" horiz-adv-x="778" d="M84 520Q84 528 88 533T96 539L99 540Q106 540 253 471T544 334L687 265Q694 260 694 250T687 235Q685 233 395 96L107 -40H101Q83 -38 83 -20Q83 -19 83 -17Q82 -10 98 -1Q117 9 248 71Q326
108 378 132L626 250L378 368Q90 504 86 509Q84 513 84 520Z" />
<glyph unicode="?" glyph-name="question" horiz-adv-x="472" d="M226 668Q190 668 162 656T124 632L114 621Q116 621 119 620T130 616T145 607T157 591T162 567Q162 544 147 529T109 514T71 528T55 566Q55 625 100 661T199 704Q201 704 210 704T224 705H228Q281
705 320 692T378 656T407 612T416 567Q416 503 361 462Q267 395 247 303Q242 279 242 241V224Q242 205 239 202T222 198T205 201T202 218V249Q204 320 220 371T255 445T292 491T315 537Q317 546 317 574V587Q317 604 315 615T304 640T277 661T226 668ZM162 61Q162
89 180 105T224 121Q247 119 264 104T281 61Q281 31 264 16T222 1Q197 1 180 16T162 61Z" />
<glyph unicode="@" glyph-name="at" horiz-adv-x="778" d="M56 347Q56 429 86 498T164 612T270 680T386 705Q522 705 622 603T722 349Q722 126 608 126Q541 126 513 176Q512 177 512 179T510 182L509 183Q508 183 503 177T487 163T464 146T429 132T385 126Q311
126 251 186T190 347Q190 448 251 508T385 568Q426 568 460 548T509 511T531 479H555Q580 479 582 478Q586 477 587 468Q588 454 588 338V260Q588 200 593 182T619 163Q641 163 655 178T674 223T680 273T682 325V330Q682 426 647 500Q611 569 544 618T388 668Q271
668 184 577T96 347Q96 216 180 121T396 26Q421 26 446 28T493 34T535 43T573 52T605 63T629 72T647 80T657 84H716Q722 78 722 74Q722 65 675 45T547 7T392 -11Q255 -11 156 90T56 347ZM274 347Q274 266 308 214T390 162Q420 162 449 182T498 235L504 245V449L498
459Q453 532 387 532Q347 532 311 483T274 347Z" />
<glyph unicode="A" glyph-name="A" horiz-adv-x="750" d="M255 0Q240 3 140 3Q48 3 39 0H32V46H47Q119 49 139 88Q140 91 192 245T295 553T348 708Q351 716 366 716H376Q396 715 400 709Q402 707 508 390L617 67Q624 54 636 51T687 46H717V0H708Q699 3 581 3Q458
3 437 0H427V46H440Q510 46 510 64Q510 66 486 138L462 209H229L209 150Q189 91 189 85Q189 72 209 59T259 46H264V0H255ZM447 255L345 557L244 256Q244 255 345 255H447Z" />
<glyph unicode="B" glyph-name="B" horiz-adv-x="708" d="M131 622Q124 629 120 631T104 634T61 637H28V683H229H267H346Q423 683 459 678T531 651Q574 627 599 590T624 512Q624 461 583 419T476 360L466 357Q539 348 595 302T651 187Q651 119 600 67T469 3Q456
1 242 0H28V46H61Q103 47 112 49T131 61V622ZM511 513Q511 560 485 594T416 636Q415 636 403 636T371 636T333 637Q266 637 251 636T232 628Q229 624 229 499V374H312L396 375L406 377Q410 378 417 380T442 393T474 417T499 456T511 513ZM537 188Q537 239 509 282T430
336L329 337H229V200V116Q229 57 234 52Q240 47 334 47H383Q425 47 443 53Q486 67 511 104T537 188Z" />
<glyph unicode="C" glyph-name="C" horiz-adv-x="722" d="M56 342Q56 428 89 500T174 615T283 681T391 705Q394 705 400 705T408 704Q499 704 569 636L582 624L612 663Q639 700 643 704Q644 704 647 704T653 705H657Q660 705 666 699V419L660 413H626Q620 419
619 430Q610 512 571 572T476 651Q457 658 426 658Q322 658 252 588Q173 509 173 342Q173 221 211 151Q232 111 263 84T328 45T384 29T428 24Q517 24 571 93T626 244Q626 251 632 257H660L666 251V236Q661 133 590 56T403 -21Q262 -21 159 83T56 342Z" />
<glyph unicode="D" glyph-name="D" horiz-adv-x="764" d="M130 622Q123 629 119 631T103 634T60 637H27V683H228Q399 682 419 682T461 676Q504 667 546 641T626 573T685 470T708 336Q708 210 634 116T442 3Q429 1 228 0H27V46H60Q102 47 111 49T130 61V622ZM593
338Q593 439 571 501T493 602Q439 637 355 637H322H294Q238 637 234 628Q231 624 231 344Q231 62 232 59Q233 49 248 48T339 46H350Q456 46 515 95Q561 133 577 191T593 338Z" />
<glyph unicode="E" glyph-name="E" horiz-adv-x="681" d="M128 619Q121 626 117 628T101 631T58 634H25V680H597V676Q599 670 611 560T625 444V440H585V444Q584 447 582 465Q578 500 570 526T553 571T528 601T498 619T457 629T411 633T353 634Q266 634 251 633T233
622Q233 622 233 621Q232 619 232 497V376H286Q359 378 377 385Q413 401 416 469Q416 471 416 473V493H456V213H416V233Q415 268 408 288T383 317T349 328T297 330Q290 330 286 330H232V196V114Q232 57 237 52Q243 47 289 47H340H391Q428 47 452 50T505 62T552
92T584 146Q594 172 599 200T607 247T612 270V273H652V270Q651 267 632 137T610 3V0H25V46H58Q100 47 109 49T128 61V619Z" />
<glyph unicode="F" glyph-name="F" horiz-adv-x="653" d="M128 619Q121 626 117 628T101 631T58 634H25V680H582V676Q584 670 596 560T610 444V440H570V444Q563 493 561 501Q555 538 543 563T516 601T477 622T431 631T374 633H334H286Q252 633 244 631T233 621Q232
619 232 490V363H284Q287 363 303 363T327 364T349 367T372 373T389 385Q407 403 410 459V480H450V200H410V221Q407 276 389 296Q381 303 371 307T348 313T327 316T303 317T284 317H232V189L233 61Q240 54 245 52T270 48T333 46H360V0H348Q324 3 182 3Q51 3 36
0H25V46H58Q100 47 109 49T128 61V619Z" />
<glyph unicode="G" glyph-name="G" horiz-adv-x="785" d="M56 342Q56 428 89 500T174 615T283 681T391 705Q394 705 400 705T408 704Q499 704 569 636L582 624L612 663Q639 700 643 704Q644 704 647 704T653 705H657Q660 705 666 699V419L660 413H626Q620 419
619 430Q610 512 571 572T476 651Q457 658 426 658Q401 658 376 654T316 633T254 592T205 519T177 411Q173 369 173 335Q173 259 192 201T238 111T302 58T370 31T431 24Q478 24 513 45T559 100Q562 110 562 160V212Q561 213 557 216T551 220T542 223T526 225T502
226T463 227H437V273H449L609 270Q715 270 727 273H735V227H721Q674 227 668 215Q666 211 666 108V6Q660 0 657 0Q653 0 639 10Q617 25 600 42L587 54Q571 27 524 3T406 -22Q317 -22 238 22T108 151T56 342Z" />
<glyph unicode="H" glyph-name="H" horiz-adv-x="750" d="M128 622Q121 629 117 631T101 634T58 637H25V683H36Q57 680 180 680Q315 680 324 683H335V637H302Q262 636 251 634T233 622L232 500V378H517V622Q510 629 506 631T490 634T447 637H414V683H425Q446 680
569 680Q704 680 713 683H724V637H691Q651 636 640 634T622 622V61Q628 51 639 49T691 46H724V0H713Q692 3 569 3Q434 3 425 0H414V46H447Q489 47 498 49T517 61V332H232V197L233 61Q239 51 250 49T302 46H335V0H324Q303 3 180 3Q45 3 36 0H25V46H58Q100 47 109
49T128 61V622Z" />
<glyph unicode="I" glyph-name="I" horiz-adv-x="361" d="M328 0Q307 3 180 3T32 0H21V46H43Q92 46 106 49T126 60Q128 63 128 342Q128 620 126 623Q122 628 118 630T96 635T43 637H21V683H32Q53 680 180 680T328 683H339V637H317Q268 637 254 634T234 623Q232
620 232 342Q232 63 234 60Q238 55 242 53T264 48T317 46H339V0H328Z" />
<glyph unicode="J" glyph-name="J" horiz-adv-x="514" d="M89 177Q115 177 133 160T152 112Q152 88 137 72T102 52Q99 51 101 49Q106 43 129 29Q159 15 190 15Q232 15 256 48T286 126Q286 127 286 142T286 183T286 238T287 306T287 378Q287 403 287 429T287 479T287
524T286 563T286 593T286 614V621Q281 630 263 633T182 637H154V683H166Q187 680 332 680Q439 680 457 683H465V637H449Q422 637 401 634Q393 631 389 623Q388 621 388 376T387 123Q377 61 322 20T194 -22Q188 -22 177 -21T160 -20Q96 -9 61 29T25 110Q25 144 44
160T89 177Z" />
<glyph unicode="K" glyph-name="K" horiz-adv-x="778" d="M128 622Q121 629 117 631T101 634T58 637H25V683H36Q57 680 180 680Q315 680 324 683H335V637H313Q235 637 233 620Q232 618 232 462L233 307L379 449Q425 494 479 546Q518 584 524 591T531 607V608Q531
630 503 636Q501 636 498 636T493 637H489V683H499Q517 680 630 680Q704 680 716 683H722V637H708Q633 633 589 597Q584 592 495 506T406 419T515 254T631 80Q644 60 662 54T715 46H736V0H728Q719 3 615 3Q493 3 472 0H461V46H469Q515 46 515 72Q515 78 512 84L336
351Q332 348 278 296L232 251V156Q232 62 235 58Q243 47 302 46H335V0H324Q303 3 180 3Q45 3 36 0H25V46H58Q100 47 109 49T128 61V622Z" />
<glyph unicode="L" glyph-name="L" horiz-adv-x="625" d="M128 622Q121 629 117 631T101 634T58 637H25V683H36Q48 680 182 680Q324 680 348 683H360V637H333Q273 637 258 635T233 622L232 342V129Q232 57 237 52Q243 47 313 47Q384 47 410 53Q470 70 498 110T536
221Q536 226 537 238T540 261T542 272T562 273H582V268Q580 265 568 137T554 5V0H25V46H58Q100 47 109 49T128 61V622Z" />
<glyph unicode="M" glyph-name="M" horiz-adv-x="917" d="M132 622Q125 629 121 631T105 634T62 637H29V683H135Q221 683 232 682T249 675Q250 674 354 398L458 124L562 398Q666 674 668 675Q671 681 683 682T781 683H887V637H854Q814 636 803 634T785 622V61Q791
51 802 49T854 46H887V0H876Q855 3 736 3Q605 3 596 0H585V46H618Q660 47 669 49T688 61V347Q688 424 688 461T688 546T688 613L687 632Q454 14 450 7Q446 1 430 1T410 7Q409 9 292 316L176 624V606Q175 588 175 543T175 463T175 356L176 86Q187 50 261 46H278V0H269Q254
3 154 3Q52 3 37 0H29V46H46Q78 48 98 56T122 69T132 86V622Z" />
<glyph unicode="N" glyph-name="N" horiz-adv-x="750" d="M42 46Q74 48 94 56T118 69T128 86V634H124Q114 637 52 637H25V683H232L235 680Q237 679 322 554T493 303L578 178V598Q572 608 568 613T544 627T492 637H475V683H483Q498 680 600 680Q706 680 715 683H724V637H707Q634
633 622 598L621 302V6L614 0H600Q585 0 582 3T481 150T282 443T171 605V345L172 86Q183 50 257 46H274V0H265Q250 3 150 3Q48 3 33 0H25V46H42Z" />
<glyph unicode="O" glyph-name="O" horiz-adv-x="778" d="M56 340Q56 423 86 494T164 610T270 680T388 705Q521 705 621 601T722 341Q722 260 693 191T617 75T510 4T388 -22T267 3T160 74T85 189T56 340ZM467 647Q426 665 388 665Q360 665 331 654T269 620T213
549T179 439Q174 411 174 354Q174 144 277 61Q327 20 385 20H389H391Q474 20 537 99Q603 188 603 354Q603 411 598 439Q577 592 467 647Z" />
<glyph unicode="P" glyph-name="P" horiz-adv-x="681" d="M130 622Q123 629 119 631T103 634T60 637H27V683H214Q237 683 276 683T331 684Q419 684 471 671T567 616Q624 563 624 489Q624 421 573 372T451 307Q429 302 328 301H234V181Q234 62 237 58Q245 47 304
46H337V0H326Q305 3 182 3Q47 3 38 0H27V46H60Q102 47 111 49T130 61V622ZM507 488Q507 514 506 528T500 564T483 597T450 620T397 635Q385 637 307 637H286Q237 637 234 628Q231 624 231 483V342H302H339Q390 342 423 349T481 382Q507 411 507 488Z" />
<glyph unicode="Q" glyph-name="Q" horiz-adv-x="778" d="M56 341Q56 499 157 602T388 705Q521 705 621 601T722 341Q722 275 703 218T660 127T603 63T555 25T525 9Q524 8 524 8H523Q524 5 526 -1T537 -21T555 -47T581 -67T615 -76Q653 -76 678 -56T706 -3Q707
10 716 10Q721 10 728 5L727 -13Q727 -88 697 -140T606 -193Q563 -193 538 -166T498 -83Q483 -23 483 -8L471 -11Q459 -14 435 -18T388 -22Q254 -22 155 81T56 341ZM607 339Q607 429 586 496T531 598T461 649T390 665T318 649T248 598T192 496T170 339Q170 143
277 57Q301 39 305 39L304 42Q304 44 304 46Q301 53 301 68Q301 101 325 128T391 155Q454 155 495 70L501 58Q549 91 578 164Q607 234 607 339ZM385 18Q404 18 425 23T459 33T472 40Q471 47 468 57T449 88T412 115Q398 117 386 117Q367 117 353 102T338 67Q338
48 351 33T385 18Z" />
<glyph unicode="R" glyph-name="R" horiz-adv-x="736" d="M130 622Q123 629 119 631T103 634T60 637H27V683H202H236H300Q376 683 417 677T500 648Q595 600 609 517Q610 512 610 501Q610 468 594 439T556 392T511 361T472 343L456 338Q459 335 467 332Q497 316
516 298T545 254T559 211T568 155T578 94Q588 46 602 31T640 16H645Q660 16 674 32T692 87Q692 98 696 101T712 105T728 103T732 90Q732 59 716 27T672 -16Q656 -22 630 -22Q481 -16 458 90Q456 101 456 163T449 246Q430 304 373 320L363 322L297 323H231V192L232
61Q238 51 249 49T301 46H334V0H323Q302 3 181 3Q59 3 38 0H27V46H60Q102 47 111 49T130 61V622ZM491 499V509Q491 527 490 539T481 570T462 601T424 623T362 636Q360 636 340 636T304 637H283Q238 637 234 628Q231 624 231 492V360H289Q390 360 434 378T489 456Q491
467 491 499Z" />
<glyph unicode="S" glyph-name="S" horiz-adv-x="556" d="M55 507Q55 590 112 647T243 704H257Q342 704 405 641L426 672Q431 679 436 687T446 700L449 704Q450 704 453 704T459 705H463Q466 705 472 699V462L466 456H448Q437 456 435 459T430 479Q413 605 329
646Q292 662 254 662Q201 662 168 626T135 542Q135 508 152 480T200 435Q210 431 286 412T370 389Q427 367 463 314T500 191Q500 110 448 45T301 -21Q245 -21 201 -4T140 27L122 41Q118 36 107 21T87 -7T78 -21Q76 -22 68 -22H64Q61 -22 55 -16V101Q55 220 56 222Q58
227 76 227H89Q95 221 95 214Q95 182 105 151T139 90T205 42T305 24Q352 24 386 62T420 155Q420 198 398 233T340 281Q284 295 266 300Q261 301 239 306T206 314T174 325T141 343T112 367T85 402Q55 451 55 507Z" />
<glyph unicode="T" glyph-name="T" horiz-adv-x="722" d="M36 443Q37 448 46 558T55 671V677H666V671Q667 666 676 556T685 443V437H645V443Q645 445 642 478T631 544T610 593Q593 614 555 625Q534 630 478 630H451H443Q417 630 414 618Q413 616 413 339V63Q420
53 439 50T528 46H558V0H545L361 3Q186 1 177 0H164V46H194Q264 46 283 49T309 63V339V550Q309 620 304 625T271 630H244H224Q154 630 119 601Q101 585 93 554T81 486T76 443V437H36V443Z" />
<glyph unicode="U" glyph-name="U" horiz-adv-x="750" d="M128 622Q121 629 117 631T101 634T58 637H25V683H36Q57 680 180 680Q315 680 324 683H335V637H302Q262 636 251 634T233 622L232 418V291Q232 189 240 145T280 67Q325 24 389 24Q454 24 506 64T571 183Q575
206 575 410V598Q569 608 565 613T541 627T489 637H472V683H481Q496 680 598 680T715 683H724V637H707Q634 633 622 598L621 399Q620 194 617 180Q617 179 615 171Q595 83 531 31T389 -22Q304 -22 226 33T130 192Q129 201 128 412V622Z" />
<glyph unicode="V" glyph-name="V" horiz-adv-x="750" d="M114 620Q113 621 110 624T107 627T103 630T98 632T91 634T80 635T67 636T48 637H19V683H28Q46 680 152 680Q273 680 294 683H305V637H284Q223 634 223 620Q223 618 313 372T404 126L490 358Q575 588 575
597Q575 616 554 626T508 637H503V683H512Q527 680 627 680Q718 680 724 683H730V637H723Q648 637 627 596Q627 595 515 291T401 -14Q396 -22 382 -22H374H367Q353 -22 348 -14Q346 -12 231 303Q114 617 114 620Z" />
<glyph unicode="W" glyph-name="W" horiz-adv-x="1028" d="M792 683Q810 680 914 680Q991 680 1003 683H1009V637H996Q931 633 915 598Q912 591 863 438T766 135T716 -17Q711 -22 694 -22Q676 -22 673 -15Q671 -13 593 231L514 477L435 234Q416 174 391 92T358
-6T341 -22H331Q314 -21 310 -15Q309 -14 208 302T104 622Q98 632 87 633Q73 637 35 637H18V683H27Q69 681 154 681Q164 681 181 681T216 681T249 682T276 683H287H298V637H285Q213 637 213 620Q213 616 289 381L364 144L427 339Q490 535 492 546Q487 560 482 578T475
602T468 618T461 628T449 633T433 636T408 637H380V683H388Q397 680 508 680Q629 680 650 683H660V637H647Q576 637 576 619L727 146Q869 580 869 600Q869 605 863 612T839 627T794 637H783V683H792Z" />
<glyph unicode="X" glyph-name="X" horiz-adv-x="750" d="M270 0Q252 3 141 3Q46 3 31 0H23V46H40Q129 50 161 88Q165 94 244 216T324 339Q324 341 235 480T143 622Q133 631 119 634T57 637H37V683H46Q64 680 172 680Q297 680 318 683H329V637H324Q307 637 286
632T263 621Q263 618 322 525T384 431Q385 431 437 511T489 593Q490 595 490 599Q490 611 477 622T436 637H428V683H437Q455 680 566 680Q661 680 676 683H684V637H667Q585 634 551 599Q548 596 478 491Q412 388 412 387Q412 385 514 225T620 62Q628 53 642 50T695
46H726V0H717Q699 3 591 3Q466 3 445 0H434V46H440Q454 46 476 51T499 64Q499 67 463 124T390 238L353 295L350 292Q348 290 343 283T331 265T312 236T286 195Q219 88 218 84Q218 70 234 59T272 46H280V0H270Z" />
<glyph unicode="Y" glyph-name="Y" horiz-adv-x="750" d="M518 0Q497 3 374 3Q253 3 232 0H221V46H254Q313 47 321 58Q324 62 324 167V273L221 446Q117 620 114 623Q106 631 91 634T31 637H11V683H20Q29 680 148 680Q273 680 294 683H305V637H287Q239 636 236
621Q236 619 321 475L407 332L483 460Q502 492 527 534Q563 594 563 604Q563 632 517 637H508V683H517H525Q533 683 545 683T571 682T600 681T626 681Q695 681 731 683H738V637H723Q640 633 613 588Q612 587 517 427L425 273V169V95Q425 66 428 59T444 49Q459 46
506 46H528V0H518Z" />
<glyph unicode="Z" glyph-name="Z" horiz-adv-x="611" d="M69 443Q69 452 74 554T80 683H549Q555 677 555 664Q555 649 554 648Q552 645 366 348T179 50T192 49T263 49H275H302Q333 49 353 50T401 59T447 78T482 115T507 173Q513 200 520 273V282H560V274Q560
272 552 143T543 8V0H302L61 1L58 3Q55 8 55 21V35Q59 43 153 193T340 489T432 637H343Q259 637 214 625T141 573Q109 523 109 445Q109 443 89 443H69Z" />
<glyph unicode="[" glyph-name="bracketleft" horiz-adv-x="278" d="M118 -250V750H255V710H158V-210H255V-250H118Z" />
<glyph unicode="\" glyph-name="backslash" horiz-adv-x="500" d="M56 731Q56 740 62 745T75 750Q85 750 92 740Q96 733 270 255T444 -231Q444 -239 438 -244T424 -250Q414 -250 407 -240Q404 -236 230 242T56 731Z" />
<glyph unicode="]" glyph-name="bracketright" horiz-adv-x="278" d="M22 710V750H159V-250H22V-210H119V710H22Z" />
<glyph unicode="^" glyph-name="asciicircum" horiz-adv-x="500" d="M112 560L249 694L257 686Q387 562 387 560L361 531Q359 532 303 581L250 627L195 580Q182 569 169 557T148 538L140 532Q138 530 125 546L112 560Z" />
<glyph unicode="_" glyph-name="underscore" horiz-adv-x="500" d="M0 -62V-25H499V-62H0Z" />
<glyph unicode="`" glyph-name="grave" horiz-adv-x="500" d="M106 655Q106 671 119 685T150 699Q166 699 177 688Q190 671 222 629T275 561T295 533T282 519L267 505L196 563Q119 626 113 634Q106 643 106 655Z" />
<glyph unicode="a" glyph-name="a" horiz-adv-x="500" d="M137 305T115 305T78 320T63 359Q63 394 97 421T218 448Q291 448 336 416T396 340Q401 326 401 309T402 194V124Q402 76 407 58T428 40Q443 40 448 56T453 109V145H493V106Q492 66 490 59Q481 29 455 12T400
-6T353 12T329 54V58L327 55Q325 52 322 49T314 40T302 29T287 17T269 6T247 -2T221 -8T190 -11Q130 -11 82 20T34 107Q34 128 41 147T68 188T116 225T194 253T304 268H318V290Q318 324 312 340Q290 411 215 411Q197 411 181 410T156 406T148 403Q170 388 170 359Q170
334 154 320ZM126 106Q126 75 150 51T209 26Q247 26 276 49T315 109Q317 116 318 175Q318 233 317 233Q309 233 296 232T251 223T193 203T147 166T126 106Z" />
<glyph unicode="b" glyph-name="b" horiz-adv-x="556" d="M307 -11Q234 -11 168 55L158 37Q156 34 153 28T147 17T143 10L138 1L118 0H98V298Q98 599 97 603Q94 622 83 628T38 637H20V660Q20 683 22 683L32 684Q42 685 61 686T98 688Q115 689 135 690T165 693T176
694H179V543Q179 391 180 391L183 394Q186 397 192 401T207 411T228 421T254 431T286 439T323 442Q401 442 461 379T522 216Q522 115 458 52T307 -11ZM182 98Q182 97 187 90T196 79T206 67T218 55T233 44T250 35T271 29T295 26Q330 26 363 46T412 113Q424 148 424
212Q424 287 412 323Q385 405 300 405Q270 405 239 390T188 347L182 339V98Z" />
<glyph unicode="c" glyph-name="c" horiz-adv-x="444" d="M370 305T349 305T313 320T297 358Q297 381 312 396Q317 401 317 402T307 404Q281 408 258 408Q209 408 178 376Q131 329 131 219Q131 137 162 90Q203 29 272 29Q313 29 338 55T374 117Q376 125 379 127T395
129H409Q415 123 415 120Q415 116 411 104T395 71T366 33T318 2T249 -11Q163 -11 99 53T34 214Q34 318 99 383T250 448T370 421T404 357Q404 334 387 320Z" />
<glyph unicode="d" glyph-name="d" horiz-adv-x="556" d="M376 495Q376 511 376 535T377 568Q377 613 367 624T316 637H298V660Q298 683 300 683L310 684Q320 685 339 686T376 688Q393 689 413 690T443 693T454 694H457V390Q457 84 458 81Q461 61 472 55T517 46H535V0Q533
0 459 -5T380 -11H373V44L365 37Q307 -11 235 -11Q158 -11 96 50T34 215Q34 315 97 378T244 442Q319 442 376 393V495ZM373 342Q328 405 260 405Q211 405 173 369Q146 341 139 305T131 211Q131 155 138 120T173 59Q203 26 251 26Q322 26 373 103V342Z" />
<glyph unicode="e" glyph-name="e" horiz-adv-x="444" d="M28 218Q28 273 48 318T98 391T163 433T229 448Q282 448 320 430T378 380T406 316T415 245Q415 238 408 231H126V216Q126 68 226 36Q246 30 270 30Q312 30 342 62Q359 79 369 104L379 128Q382 131 395
131H398Q415 131 415 121Q415 117 412 108Q393 53 349 21T250 -11Q155 -11 92 58T28 218ZM333 275Q322 403 238 411H236Q228 411 220 410T195 402T166 381T143 340T127 274V267H333V275Z" />
<glyph unicode="f" glyph-name="f" horiz-adv-x="306" d="M273 0Q255 3 146 3Q43 3 34 0H26V46H42Q70 46 91 49Q99 52 103 60Q104 62 104 224V385H33V431H104V497L105 564L107 574Q126 639 171 668T266 704Q267 704 275 704T289 705Q330 702 351 679T372 627Q372
604 358 590T321 576T284 590T270 627Q270 647 288 667H284Q280 668 273 668Q245 668 223 647T189 592Q183 572 182 497V431H293V385H185V225Q185 63 186 61T189 57T194 54T199 51T206 49T213 48T222 47T231 47T241 46T251 46H282V0H273Z" />
<glyph unicode="g" glyph-name="g" horiz-adv-x="500" d="M329 409Q373 453 429 453Q459 453 472 434T485 396Q485 382 476 371T449 360Q416 360 412 390Q410 404 415 411Q415 412 416 414V415Q388 412 363 393Q355 388 355 386Q355 385 359 381T368 369T379 351T388
325T392 292Q392 230 343 187T222 143Q172 143 123 171Q112 153 112 133Q112 98 138 81Q147 75 155 75T227 73Q311 72 335 67Q396 58 431 26Q470 -13 470 -72Q470 -139 392 -175Q332 -206 250 -206Q167 -206 107 -175Q29 -140 29 -75Q29 -39 50 -15T92 18L103 24Q67
55 67 108Q67 155 96 193Q52 237 52 292Q52 355 102 398T223 442Q274 442 318 416L329 409ZM299 343Q294 371 273 387T221 404Q192 404 171 388T145 343Q142 326 142 292Q142 248 149 227T179 192Q196 182 222 182Q244 182 260 189T283 207T294 227T299 242Q302
258 302 292T299 343ZM403 -75Q403 -50 389 -34T348 -11T299 -2T245 0H218Q151 0 138 -6Q118 -15 107 -34T95 -74Q95 -84 101 -97T122 -127T170 -155T250 -167Q319 -167 361 -139T403 -75Z" />
<glyph unicode="h" glyph-name="h" horiz-adv-x="556" d="M41 46H55Q94 46 102 60V68Q102 77 102 91T102 124T102 167T103 217T103 272T103 329Q103 366 103 407T103 482T102 542T102 586T102 603Q99 622 88 628T43 637H25V660Q25 683 27 683L37 684Q47 685 66
686T103 688Q120 689 140 690T170 693T181 694H184V367Q244 442 328 442Q451 442 463 329Q464 322 464 190V104Q464 66 466 59T477 49Q498 46 526 46H542V0H534L510 1Q487 2 460 2T422 3Q319 3 310 0H302V46H318Q379 46 379 62Q380 64 380 200Q379 335 378 343Q372
371 358 385T334 402T308 404Q263 404 229 370Q202 343 195 315T187 232V168V108Q187 78 188 68T191 55T200 49Q221 46 249 46H265V0H257L234 1Q210 2 183 2T145 3Q42 3 33 0H25V46H41Z" />
<glyph unicode="i" glyph-name="i" horiz-adv-x="278" d="M69 609Q69 637 87 653T131 669Q154 667 171 652T188 609Q188 579 171 564T129 549Q104 549 87 564T69 609ZM247 0Q232 3 143 3Q132 3 106 3T56 1L34 0H26V46H42Q70 46 91 49Q100 53 102 60T104 102V205V293Q104
345 102 359T88 378Q74 385 41 385H30V408Q30 431 32 431L42 432Q52 433 70 434T106 436Q123 437 142 438T171 441T182 442H185V62Q190 52 197 50T232 46H255V0H247Z" />
<glyph unicode="j" glyph-name="j" horiz-adv-x="306" d="M98 609Q98 637 116 653T160 669Q183 667 200 652T217 609Q217 579 200 564T158 549Q133 549 116 564T98 609ZM28 -163Q58 -168 64 -168Q124 -168 135 -77Q137 -65 137 141T136 353Q132 371 120 377T72
385H52V408Q52 431 54 431L58 432Q62 432 70 432T87 433T108 434T133 436Q151 437 171 438T202 441T214 442H218V184Q217 -36 217 -59T211 -98Q195 -145 153 -175T58 -205Q9 -205 -23 -179T-55 -117Q-55 -94 -40 -79T-2 -64T36 -79T52 -118Q52 -143 28 -163Z" />
<glyph unicode="k" glyph-name="k" horiz-adv-x="528" d="M36 46H50Q89 46 97 60V68Q97 77 97 91T97 124T98 167T98 217T98 272T98 329Q98 366 98 407T98 482T98 542T97 586T97 603Q94 622 83 628T38 637H20V660Q20 683 22 683L32 684Q42 685 61 686T98 688Q115
689 135 690T165 693T176 694H179V463L180 233L240 287Q300 341 304 347Q310 356 310 364Q310 383 289 385H284V431H293Q308 428 412 428Q475 428 484 431H489V385H476Q407 380 360 341Q286 278 286 274Q286 273 349 181T420 79Q434 60 451 53T500 46H511V0H505Q496
3 418 3Q322 3 307 0H299V46H306Q330 48 330 65Q330 72 326 79Q323 84 276 153T228 222L176 176V120V84Q176 65 178 59T189 49Q210 46 238 46H254V0H246Q231 3 137 3T28 0H20V46H36Z" />
<glyph unicode="l" glyph-name="l" horiz-adv-x="278" d="M42 46H56Q95 46 103 60V68Q103 77 103 91T103 124T104 167T104 217T104 272T104 329Q104 366 104 407T104 482T104 542T103 586T103 603Q100 622 89 628T44 637H26V660Q26 683 28 683L38 684Q48 685 67
686T104 688Q121 689 141 690T171 693T182 694H185V379Q185 62 186 60Q190 52 198 49Q219 46 247 46H263V0H255L232 1Q209 2 183 2T145 3T107 3T57 1L34 0H26V46H42Z" />
<glyph unicode="m" glyph-name="m" horiz-adv-x="833" d="M41 46H55Q94 46 102 60V68Q102 77 102 91T102 122T103 161T103 203Q103 234 103 269T102 328V351Q99 370 88 376T43 385H25V408Q25 431 27 431L37 432Q47 433 65 434T102 436Q119 437 138 438T167 441T178
442H181V402Q181 364 182 364T187 369T199 384T218 402T247 421T285 437Q305 442 336 442Q351 442 364 440T387 434T406 426T421 417T432 406T441 395T448 384T452 374T455 366L457 361L460 365Q463 369 466 373T475 384T488 397T503 410T523 422T546 432T572 439T603
442Q729 442 740 329Q741 322 741 190V104Q741 66 743 59T754 49Q775 46 803 46H819V0H811L788 1Q764 2 737 2T699 3Q596 3 587 0H579V46H595Q656 46 656 62Q657 64 657 200Q656 335 655 343Q649 371 635 385T611 402T585 404Q540 404 506 370Q479 343 472 315T464
232V168V108Q464 78 465 68T468 55T477 49Q498 46 526 46H542V0H534L510 1Q487 2 460 2T422 3Q319 3 310 0H302V46H318Q379 46 379 62Q380 64 380 200Q379 335 378 343Q372 371 358 385T334 402T308 404Q263 404 229 370Q202 343 195 315T187 232V168V108Q187 78
188 68T191 55T200 49Q221 46 249 46H265V0H257L234 1Q210 2 183 2T145 3Q42 3 33 0H25V46H41Z" />
<glyph unicode="n" glyph-name="n" horiz-adv-x="556" d="M41 46H55Q94 46 102 60V68Q102 77 102 91T102 122T103 161T103 203Q103 234 103 269T102 328V351Q99 370 88 376T43 385H25V408Q25 431 27 431L37 432Q47 433 65 434T102 436Q119 437 138 438T167 441T178
442H181V402Q181 364 182 364T187 369T199 384T218 402T247 421T285 437Q305 442 336 442Q450 438 463 329Q464 322 464 190V104Q464 66 466 59T477 49Q498 46 526 46H542V0H534L510 1Q487 2 460 2T422 3Q319 3 310 0H302V46H318Q379 46 379 62Q380 64 380 200Q379
335 378 343Q372 371 358 385T334 402T308 404Q263 404 229 370Q202 343 195 315T187 232V168V108Q187 78 188 68T191 55T200 49Q221 46 249 46H265V0H257L234 1Q210 2 183 2T145 3Q42 3 33 0H25V46H41Z" />
<glyph unicode="o" glyph-name="o" horiz-adv-x="500" d="M28 214Q28 309 93 378T250 448Q340 448 405 380T471 215Q471 120 407 55T250 -10Q153 -10 91 57T28 214ZM250 30Q372 30 372 193V225V250Q372 272 371 288T364 326T348 362T317 390T268 410Q263 411 252
411Q222 411 195 399Q152 377 139 338T126 246V226Q126 130 145 91Q177 30 250 30Z" />
<glyph unicode="p" glyph-name="p" horiz-adv-x="556" d="M36 -148H50Q89 -148 97 -134V-126Q97 -119 97 -107T97 -77T98 -38T98 6T98 55T98 106Q98 140 98 177T98 243T98 296T97 335T97 351Q94 370 83 376T38 385H20V408Q20 431 22 431L32 432Q42 433 61 434T98
436Q115 437 135 438T165 441T176 442H179V416L180 390L188 397Q247 441 326 441Q407 441 464 377T522 216Q522 115 457 52T310 -11Q242 -11 190 33L182 40V-45V-101Q182 -128 184 -134T195 -145Q216 -148 244 -148H260V-194H252L228 -193Q205 -192 178 -192T140
-191Q37 -191 28 -194H20V-148H36ZM424 218Q424 292 390 347T305 402Q234 402 182 337V98Q222 26 294 26Q345 26 384 80T424 218Z" />
<glyph unicode="q" glyph-name="q" horiz-adv-x="528" d="M33 218Q33 308 95 374T236 441H246Q330 441 381 372L387 364Q388 364 404 403L420 442H457V156Q457 -132 458 -134Q462 -142 470 -145Q491 -148 519 -148H535V-194H527L504 -193Q480 -192 453 -192T415
-191Q312 -191 303 -194H295V-148H311Q339 -148 360 -145Q369 -141 371 -135T373 -106V-41V49Q313 -11 236 -11Q154 -11 94 53T33 218ZM376 300Q346 389 278 401Q275 401 269 401T261 402Q211 400 171 350T131 214Q131 137 165 82T253 27Q296 27 328 54T376 118V300Z"
/>
<glyph unicode="r" glyph-name="r" horiz-adv-x="392" d="M36 46H50Q89 46 97 60V68Q97 77 97 91T98 122T98 161T98 203Q98 234 98 269T98 328L97 351Q94 370 83 376T38 385H20V408Q20 431 22 431L32 432Q42 433 60 434T96 436Q112 437 131 438T160 441T171 442H174V373Q213
441 271 441H277Q322 441 343 419T364 373Q364 352 351 337T313 322Q288 322 276 338T263 372Q263 381 265 388T270 400T273 405Q271 407 250 401Q234 393 226 386Q179 341 179 207V154Q179 141 179 127T179 101T180 81T180 66V61Q181 59 183 57T188 54T193 51T200
49T207 48T216 47T225 47T235 46T245 46H276V0H267Q249 3 140 3Q37 3 28 0H20V46H36Z" />
<glyph unicode="s" glyph-name="s" horiz-adv-x="394" d="M295 316Q295 356 268 385T190 414Q154 414 128 401Q98 382 98 349Q97 344 98 336T114 312T157 287Q175 282 201 278T245 269T277 256Q294 248 310 236T342 195T359 133Q359 71 321 31T198 -10H190Q138
-10 94 26L86 19L77 10Q71 4 65 -1L54 -11H46H42Q39 -11 33 -5V74V132Q33 153 35 157T45 162H54Q66 162 70 158T75 146T82 119T101 77Q136 26 198 26Q295 26 295 104Q295 133 277 151Q257 175 194 187T111 210Q75 227 54 256T33 318Q33 357 50 384T93 424T143 442T187
447H198Q238 447 268 432L283 424L292 431Q302 440 314 448H322H326Q329 448 335 442V310L329 304H301Q295 310 295 316Z" />
<glyph unicode="t" glyph-name="t" horiz-adv-x="389" d="M27 422Q80 426 109 478T141 600V615H181V431H316V385H181V241Q182 116 182 100T189 68Q203 29 238 29Q282 29 292 100Q293 108 293 146V181H333V146V134Q333 57 291 17Q264 -10 221 -10Q187 -10 162 2T124
33T105 68T98 100Q97 107 97 248V385H18V422H27Z" />
<glyph unicode="u" glyph-name="u" horiz-adv-x="556" d="M383 58Q327 -10 256 -10H249Q124 -10 105 89Q104 96 103 226Q102 335 102 348T96 369Q86 385 36 385H25V408Q25 431 27 431L38 432Q48 433 67 434T105 436Q122 437 142 438T172 441T184 442H187V261Q188
77 190 64Q193 49 204 40Q224 26 264 26Q290 26 311 35T343 58T363 90T375 120T379 144Q379 145 379 161T380 201T380 248V315Q380 361 370 372T320 385H302V431Q304 431 378 436T457 442H464V264Q464 84 465 81Q468 61 479 55T524 46H542V0Q540 0 467 -5T390 -11H383V58Z"
/>
<glyph unicode="v" glyph-name="v" horiz-adv-x="528" d="M338 431Q344 429 422 429Q479 429 503 431H508V385H497Q439 381 423 345Q421 341 356 172T288 -2Q283 -11 263 -11Q244 -11 239 -2Q99 359 98 364Q93 378 82 381T43 385H19V431H25L33 430Q41 430 53 430T79
430T104 429T122 428Q217 428 232 431H240V385H226Q187 384 184 370Q184 366 235 234L286 102L377 341V349Q377 363 367 372T349 383T335 385H331V431H338Z" />
<glyph unicode="w" glyph-name="w" horiz-adv-x="722" d="M90 368Q84 378 76 380T40 385H18V431H24L43 430Q62 430 84 429T116 428Q206 428 221 431H229V385H215Q177 383 177 368Q177 367 221 239L265 113L339 328L333 345Q323 374 316 379Q308 384 278 385H258V431H264Q270
428 348 428Q439 428 454 431H461V385H452Q404 385 404 369Q404 366 418 324T449 234T481 143L496 100L537 219Q579 341 579 347Q579 363 564 373T530 385H522V431H529Q541 428 624 428Q692 428 698 431H703V385H697Q696 385 691 385T682 384Q635 377 619 334L559
161Q546 124 528 71Q508 12 503 1T487 -11H479Q460 -11 456 -4Q455 -3 407 133L361 267Q359 263 266 -4Q261 -11 243 -11H238Q225 -11 220 -3L90 368Z" />
<glyph unicode="x" glyph-name="x" horiz-adv-x="528" d="M201 0Q189 3 102 3Q26 3 17 0H11V46H25Q48 47 67 52T96 61T121 78T139 96T160 122T180 150L226 210L168 288Q159 301 149 315T133 336T122 351T113 363T107 370T100 376T94 379T88 381T80 383Q74 383
44 385H16V431H23Q59 429 126 429Q219 429 229 431H237V385Q201 381 201 369Q201 367 211 353T239 315T268 274L272 270L297 304Q329 345 329 358Q329 364 327 369T322 376T317 380T310 384L307 385H302V431H309Q324 428 408 428Q487 428 493 431H499V385H492Q443
385 411 368Q394 360 377 341T312 257L296 236L358 151Q424 61 429 57T446 50Q464 46 499 46H516V0H510H502Q494 1 482 1T457 2T432 2T414 3Q403 3 377 3T327 1L304 0H295V46H298Q309 46 320 51T331 63Q331 65 291 120L250 175Q249 174 219 133T185 88Q181 83 181
74Q181 63 188 55T206 46Q208 46 208 23V0H201Z" />
<glyph unicode="y" glyph-name="y" horiz-adv-x="528" d="M69 -66Q91 -66 104 -80T118 -116Q118 -134 109 -145T91 -160Q84 -163 97 -166Q104 -168 111 -168Q131 -168 148 -159T175 -138T197 -106T213 -75T225 -43L242 0L170 183Q150 233 125 297Q101 358 96 368T80
381Q79 382 78 382Q66 385 34 385H19V431H26L46 430Q65 430 88 429T122 428Q129 428 142 428T171 429T200 430T224 430L233 431H241V385H232Q183 385 185 366L286 112Q286 113 332 227L376 341V350Q376 365 366 373T348 383T334 385H331V431H337H344Q351 431 361
431T382 430T405 429T422 429Q477 429 503 431H508V385H497Q441 380 422 345Q420 343 378 235T289 9T227 -131Q180 -204 113 -204Q69 -204 44 -177T19 -116Q19 -89 35 -78T69 -66Z" />
<glyph unicode="z" glyph-name="z" horiz-adv-x="444" d="M42 263Q44 270 48 345T53 423V431H393Q399 425 399 415Q399 403 398 402L381 378Q364 355 331 309T265 220L134 41L182 40H206Q254 40 283 46T331 77Q352 105 359 185L361 201Q361 202 381 202H401V196Q401
195 393 103T384 6V0H209L34 1L31 3Q28 8 28 17Q28 30 29 31T160 210T294 394H236Q169 393 152 388Q127 382 113 367Q89 344 82 264V255H42V263Z" />
<glyph unicode="{" glyph-name="braceleft" horiz-adv-x="500" d="M434 -231Q434 -244 428 -250H410Q281 -250 230 -184Q225 -177 222 -172T217 -161T213 -148T211 -133T210 -111T209 -84T209 -47T209 0Q209 21 209 53Q208 142 204 153Q203 154 203 155Q189 191
153 211T82 231Q71 231 68 234T65 250T68 266T82 269Q116 269 152 289T203 345Q208 356 208 377T209 529V579Q209 634 215 656T244 698Q270 724 324 740Q361 748 377 749Q379 749 390 749T408 750H428Q434 744 434 732Q434 719 431 716Q429 713 415 713Q362 710
332 689T296 647Q291 634 291 499V417Q291 370 288 353T271 314Q240 271 184 255L170 250L184 245Q202 239 220 230T262 196T290 137Q291 131 291 1Q291 -134 296 -147Q306 -174 339 -192T415 -213Q429 -213 431 -216Q434 -219 434 -231Z" />
<glyph unicode="|" glyph-name="bar" horiz-adv-x="278" d="M139 -249H137Q125 -249 119 -235V251L120 737Q130 750 139 750Q152 750 159 735V-235Q151 -249 141 -249H139Z" />
<glyph unicode="}" glyph-name="braceright" horiz-adv-x="500" d="M65 731Q65 745 68 747T88 750Q171 750 216 725T279 670Q288 649 289 635T291 501Q292 362 293 357Q306 312 345 291T417 269Q428 269 431 266T434 250T431 234T417 231Q380 231 345 210T298
157Q293 143 292 121T291 -28V-79Q291 -134 285 -156T256 -198Q202 -250 89 -250Q71 -250 68 -247T65 -230Q65 -224 65 -223T66 -218T69 -214T77 -213Q91 -213 108 -210T146 -200T183 -177T207 -139Q208 -134 209 3L210 139Q223 196 280 230Q315 247 330 250Q305
257 280 270Q225 304 212 352L210 362L209 498Q208 635 207 640Q195 680 154 696T77 713Q68 713 67 716T65 731Z" />
<glyph unicode="~" glyph-name="asciitilde" horiz-adv-x="500" d="M179 251Q164 251 151 245T131 234T111 215L97 227L83 238Q83 239 95 253T121 283T142 304Q165 318 187 318T253 300T320 282Q335 282 348 288T368 299T388 318L402 306L416 295Q375 236 344
222Q330 215 313 215Q292 215 248 233T179 251Z" />
<glyph unicode="&#xa0;" glyph-name="uni00A0" horiz-adv-x="250" />
<glyph unicode="&#xa8;" glyph-name="dieresis" horiz-adv-x="500" d="M95 612Q95 633 112 651T153 669T193 652T210 612Q210 588 194 571T152 554L127 560Q95 577 95 612ZM289 611Q289 634 304 649T335 668Q336 668 340 668T346 669Q369 669 386 652T404 612T387
572T346 554Q323 554 306 570T289 611Z" />
<glyph unicode="&#xac;" glyph-name="logicalnot" horiz-adv-x="667" d="M56 323T56 336T70 356H596Q603 353 611 343V102Q598 89 591 89Q587 89 584 90T579 94T575 98T572 102L571 209V316H70Q56 323 56 336Z" />
<glyph unicode="&#xaf;" glyph-name="overscore" horiz-adv-x="500" d="M69 544V590H430V544H69Z" />
<glyph unicode="&#xb0;" glyph-name="degree" horiz-adv-x="500" d="M147 628Q147 669 179 692T244 715Q298 715 325 689T352 629Q352 592 323 567T249 542Q202 542 175 567T147 628ZM313 628Q313 660 300 669T259 678H253Q248 678 242 678T234 679Q217 679 207
674T192 659T188 644T187 629Q187 600 198 590Q210 579 250 579H265Q279 579 288 581T305 595T313 628Z" />
<glyph unicode="&#xb1;" glyph-name="plusminus" horiz-adv-x="778" d="M56 320T56 333T70 353H369V502Q369 651 371 655Q376 666 388 666Q402 666 405 654T409 596V500V353H707Q722 345 722 333Q722 320 707 313H409V40H707Q722 32 722 20T707 0H70Q56 7 56 20T70
40H369V313H70Q56 320 56 333Z" />
<glyph unicode="&#xb4;" glyph-name="acute" horiz-adv-x="500" d="M349 699Q367 699 380 686T393 656Q393 651 392 647T387 637T380 627T367 616T351 602T330 585T303 563L232 505L217 519Q203 533 204 533Q204 534 229 567T282 636T313 678L316 681Q318 684
321 686T328 692T337 697T349 699Z" />
<glyph unicode="&#xd7;" glyph-name="multiply" horiz-adv-x="778" d="M630 29Q630 9 609 9Q604 9 587 25T493 118L389 222L284 117Q178 13 175 11Q171 9 168 9Q160 9 154 15T147 29Q147 36 161 51T255 146L359 250L255 354Q174 435 161 449T147 471Q147 480 153
485T168 490Q173 490 175 489Q178 487 284 383L389 278L493 382Q570 459 587 475T609 491Q630 491 630 471Q630 464 620 453T522 355L418 250L522 145Q606 61 618 48T630 29Z" />
<glyph unicode="&#xf7;" glyph-name="divide" horiz-adv-x="778" d="M318 466Q318 500 339 518T386 537Q418 537 438 517T458 466Q458 438 440 417T388 396Q355 396 337 417T318 466ZM56 237T56 250T70 270H706Q721 262 721 250T706 230H70Q56 237 56 250ZM318
34Q318 68 339 86T386 105Q418 105 438 85T458 34Q458 6 440 -15T388 -36Q355 -36 337 -15T318 34Z" />
<glyph unicode="&#x131;" glyph-name="dotlessi" horiz-adv-x="278" d="M247 0Q232 3 143 3Q132 3 106 3T56 1L34 0H26V46H42Q70 46 91 49Q100 53 102 60T104 102V205V293Q104 345 102 359T88 378Q74 385 41 385H30V408Q30 431 32 431L42 432Q52 433 70 434T106
436Q123 437 142 438T171 441T182 442H185V62Q190 52 197 50T232 46H255V0H247Z" />
<glyph unicode="&#x237;" glyph-name="uni0237" horiz-adv-x="306" d="M28 -163Q58 -168 64 -168Q124 -168 135 -77Q137 -65 137 141T136 353Q132 371 120 377T72 385H52V408Q52 431 54 431L58 432Q62 432 70 432T87 433T108 434T133 436Q151 437 171 438T202
441T214 442H218V184Q217 -36 217 -59T211 -98Q195 -145 153 -175T58 -205Q9 -205 -23 -179T-55 -117Q-55 -94 -40 -79T-2 -64T36 -79T52 -118Q52 -143 28 -163Z" />
<glyph unicode="&#x2c6;" glyph-name="circumflex" horiz-adv-x="500" d="M112 560L249 694L257 686Q387 562 387 560L361 531Q359 532 303 581L250 627L195 580Q182 569 169 557T148 538L140 532Q138 530 125 546L112 560Z" />
<glyph unicode="&#x2c7;" glyph-name="caron" horiz-adv-x="500" d="M114 611L127 630L136 644Q138 644 193 612Q248 581 250 581L306 612Q361 644 363 644L385 611L318 562L249 513L114 611Z" />
<glyph unicode="&#x2c9;" glyph-name="uni02C9" horiz-adv-x="500" d="M69 544V590H430V544H69Z" />
<glyph unicode="&#x2ca;" glyph-name="uni02CA" horiz-adv-x="500" d="M349 699Q367 699 380 686T393 656Q393 651 392 647T387 637T380 627T367 616T351 602T330 585T303 563L232 505L217 519Q203 533 204 533Q204 534 229 567T282 636T313 678L316 681Q318 684
321 686T328 692T337 697T349 699Z" />
<glyph unicode="&#x2cb;" glyph-name="uni02CB" horiz-adv-x="500" d="M106 655Q106 671 119 685T150 699Q166 699 177 688Q190 671 222 629T275 561T295 533T282 519L267 505L196 563Q119 626 113 634Q106 643 106 655Z" />
<glyph unicode="&#x2d8;" glyph-name="breve" horiz-adv-x="500" d="M250 515Q179 515 138 565T92 683V694H129V689Q129 688 129 683T130 675Q137 631 169 599T248 567Q304 567 337 608T370 689V694H407V683Q403 617 361 566T250 515Z" />
<glyph unicode="&#x2d9;" glyph-name="dotaccent" horiz-adv-x="500" d="M190 609Q190 637 208 653T252 669Q275 667 292 652T309 609Q309 579 292 564T250 549Q225 549 208 564T190 609Z" />
<glyph unicode="&#x2da;" glyph-name="ring" horiz-adv-x="500" d="M147 628Q147 669 179 692T244 715Q298 715 325 689T352 629Q352 592 323 567T249 542Q202 542 175 567T147 628ZM313 628Q313 660 300 669T259 678H253Q248 678 242 678T234 679Q217 679 207
674T192 659T188 644T187 629Q187 600 198 590Q210 579 250 579H265Q279 579 288 581T305 595T313 628Z" />
<glyph unicode="&#x2dc;" glyph-name="tilde" horiz-adv-x="500" d="M179 601Q164 601 151 595T131 584T111 565L97 577L83 588Q83 589 95 603T121 633T142 654Q165 668 187 668T253 650T320 632Q335 632 348 638T368 649T388 668L402 656L416 645Q375 586 344
572Q330 565 313 565Q292 565 248 583T179 601Z" />
<glyph unicode="&#x300;" glyph-name="gravecomb" horiz-adv-x="0" d="M-394 655Q-394 671 -381 685T-350 699Q-334 699 -323 688Q-310 671 -278 629T-225 561T-205 533T-218 519L-233 505L-304 563Q-381 626 -387 634Q-394 643 -394 655Z" />
<glyph unicode="&#x301;" glyph-name="acutecomb" horiz-adv-x="0" d="M-151 699Q-133 699 -120 686T-107 656Q-107 651 -108 647T-113 637T-120 627T-133 616T-149 602T-170 585T-197 563L-268 505L-283 519Q-297 533 -296 533Q-296 534 -271 567T-218 636T-187
678L-184 681Q-182 684 -179 686T-172 692T-163 697T-151 699Z" />
<glyph unicode="&#x302;" glyph-name="uni0302" horiz-adv-x="0" d="M-388 560L-251 694L-243 686Q-113 562 -113 560L-139 531Q-141 532 -197 581L-250 627L-305 580Q-318 569 -331 557T-352 538L-360 532Q-362 530 -375 546L-388 560Z" />
<glyph unicode="&#x303;" glyph-name="tildecomb" horiz-adv-x="0" d="M-321 601Q-336 601 -349 595T-369 584T-389 565L-403 577L-417 588Q-417 589 -405 603T-379 633T-358 654Q-335 668 -313 668T-247 650T-180 632Q-165 632 -152 638T-132 649T-112 668L-98
656L-84 645Q-125 586 -156 572Q-170 565 -187 565Q-208 565 -252 583T-321 601Z" />
<glyph unicode="&#x304;" glyph-name="uni0304" horiz-adv-x="0" d="M-431 544V590H-70V544H-431Z" />
<glyph unicode="&#x306;" glyph-name="uni0306" horiz-adv-x="0" d="M-250 515Q-321 515 -362 565T-408 683V694H-371V689Q-371 688 -371 683T-370 675Q-363 631 -331 599T-252 567Q-196 567 -163 608T-130 689V694H-93V683Q-97 617 -139 566T-250 515Z" />
<glyph unicode="&#x307;" glyph-name="uni0307" horiz-adv-x="0" d="M-310 609Q-310 637 -292 653T-248 669Q-225 667 -208 652T-191 609Q-191 579 -208 564T-250 549Q-275 549 -292 564T-310 609Z" />
<glyph unicode="&#x308;" glyph-name="uni0308" horiz-adv-x="0" d="M-405 612Q-405 633 -388 651T-347 669T-307 652T-290 612Q-290 588 -306 571T-348 554L-373 560Q-405 577 -405 612ZM-211 611Q-211 634 -196 649T-165 668Q-164 668 -160 668T-154 669Q-131
669 -114 652T-96 612T-113 572T-154 554Q-177 554 -194 570T-211 611Z" />
<glyph unicode="&#x30a;" glyph-name="uni030A" horiz-adv-x="0" d="M-353 628Q-353 669 -321 692T-256 715Q-202 715 -175 689T-148 629Q-148 592 -177 567T-251 542Q-298 542 -325 567T-353 628ZM-187 628Q-187 660 -200 669T-241 678H-247Q-252 678 -258 678T-266
679Q-283 679 -293 674T-308 659T-312 644T-313 629Q-313 600 -302 590Q-290 579 -250 579H-235Q-221 579 -212 581T-195 595T-187 628Z" />
<glyph unicode="&#x30b;" glyph-name="uni030B" horiz-adv-x="0" d="M-292 701Q-278 701 -262 690T-246 658Q-246 649 -250 641Q-252 637 -297 574T-344 510L-378 528Q-378 530 -355 598T-327 676Q-316 701 -292 701ZM-126 701Q-112 701 -96 690T-80 658Q-80 649
-84 641Q-86 637 -131 574T-178 510L-212 528Q-212 530 -189 598T-161 676Q-150 701 -126 701Z" />
<glyph unicode="&#x30c;" glyph-name="uni030C" horiz-adv-x="0" d="M-386 611L-373 630L-364 644Q-362 644 -307 612Q-252 581 -250 581L-194 612Q-139 644 -137 644L-115 611L-182 562L-251 513L-386 611Z" />
<glyph unicode="&#x338;" glyph-name="uni0338" horiz-adv-x="0" d="M-612 -215T-619 -215T-631 -212T-637 -204T-639 -197Q-639 -190 -634 -183Q-621 -157 -400 274T-176 707Q-173 716 -160 716Q-153 716 -148 712T-142 703T-140 696Q-140 691 -372 241T-608
-212Q-612 -215 -619 -215Z" />
<glyph unicode="&#x393;" glyph-name="Gamma" horiz-adv-x="625" d="M128 619Q121 626 117 628T101 631T58 634H25V680H554V676Q556 670 568 560T582 444V440H542V444Q542 445 538 478T523 545T492 598Q454 634 349 634H334Q264 634 249 633T233 621Q232 618 232
339L233 61Q240 54 245 52T270 48T333 46H360V0H348Q324 3 182 3Q51 3 36 0H25V46H58Q100 47 109 49T128 61V619Z" />
<glyph unicode="&#x394;" glyph-name="increment" horiz-adv-x="833" d="M51 0Q46 4 46 7Q46 9 215 357T388 709Q391 716 416 716Q439 716 444 709Q447 705 616 357T786 7Q786 4 781 0H51ZM507 344L384 596L137 92L383 91H630Q630 93 507 344Z" />
<glyph unicode="&#x398;" glyph-name="Theta" horiz-adv-x="778" d="M56 340Q56 423 86 494T164 610T270 680T388 705Q521 705 621 601T722 341Q722 260 693 191T617 75T510 4T388 -22T267 3T160 74T85 189T56 340ZM610 339Q610 428 590 495T535 598T463 651T384
668Q332 668 289 638T221 566Q168 485 168 339Q168 274 176 235Q189 158 228 105T324 28Q356 16 388 16Q415 16 442 24T501 54T555 111T594 205T610 339ZM223 263V422H263V388H514V422H554V263H514V297H263V263H223Z" />
<glyph unicode="&#x39b;" glyph-name="Lambda" horiz-adv-x="694" d="M320 708Q326 716 340 716H348H355Q367 716 372 708Q374 706 423 547T523 226T575 62Q581 52 591 50T634 46H661V0H653Q644 3 532 3Q411 3 390 0H379V46H392Q464 46 464 65Q463 70 390 305T316
539L246 316Q177 95 177 84Q177 72 198 59T248 46H253V0H245Q230 3 130 3Q47 3 38 0H32V46H45Q112 51 127 91Q128 92 224 399T320 708Z" />
<glyph unicode="&#x39e;" glyph-name="Xi" horiz-adv-x="667" d="M47 509L55 676Q55 677 333 677T611 676L619 509Q619 508 599 508T579 510Q579 529 575 557T564 589Q550 594 333 594T102 589Q95 586 91 558T87 510Q87 508 67 508T47 509ZM139 260V445H179V394H487V445H527V260H487V311H179V260H139ZM50
0L42 180H62Q82 180 82 178Q82 133 89 105Q92 93 95 90T108 86Q137 83 333 83Q530 83 558 86Q568 87 571 90T577 105Q584 133 584 178Q584 180 604 180H624L616 0H50Z" />
<glyph unicode="&#x3a0;" glyph-name="Pi" horiz-adv-x="750" d="M128 619Q121 626 117 628T101 631T58 634H25V680H724V634H691Q651 633 640 631T622 619V61Q628 51 639 49T691 46H724V0H713Q692 3 569 3Q434 3 425 0H414V46H447Q489 47 498 49T517 61V634H232V348L233
61Q239 51 250 49T302 46H335V0H324Q303 3 180 3Q45 3 36 0H25V46H58Q100 47 109 49T128 61V619Z" />
<glyph unicode="&#x3a3;" glyph-name="Sigma" horiz-adv-x="722" d="M666 247Q664 244 652 126T638 4V0H351Q131 0 95 0T57 5V6Q54 12 57 17L73 36Q89 54 121 90T182 159L305 299L56 644L55 658Q55 677 60 681Q63 683 351 683H638V679Q640 674 652 564T666 447V443H626V447Q618
505 604 543T559 605Q529 626 478 631T333 637H294H189L293 494Q314 465 345 422Q400 346 400 340Q400 338 399 337L154 57Q407 57 428 58Q476 60 508 68T551 83T575 103Q595 125 608 162T624 225L626 251H666V247Z" />
<glyph unicode="&#x3a5;" glyph-name="Upsilon" horiz-adv-x="778" d="M55 551Q55 604 91 654T194 705Q240 705 277 681T334 624T367 556T385 498L389 474L392 488Q394 501 400 521T414 566T438 615T473 659T521 692T584 705Q620 705 648 689T691 647T714 597T722
551Q722 540 719 538T699 536Q680 536 677 541Q677 542 677 544T676 548Q676 576 650 596T588 616H582Q538 616 505 582Q466 543 454 477T441 318Q441 301 441 269T442 222V61Q448 55 452 53T478 48T542 46H569V0H557Q533 3 389 3T221 0H209V46H236Q256 46 270
46T295 47T311 48T322 51T328 54T332 57T337 61V209Q337 383 333 415Q313 616 189 616Q154 616 128 597T101 548Q101 540 97 538T78 536Q63 536 59 538T55 551Z" />
<glyph unicode="&#x3a6;" glyph-name="Phi" horiz-adv-x="722" d="M312 622Q310 623 307 625T303 629T297 631T286 634T270 635T246 636T211 637H184V683H196Q220 680 361 680T526 683H538V637H511Q468 637 447 635T422 631T411 622V533L425 531Q525 519 595 466T665
342Q665 301 642 267T583 209T506 172T425 152L411 150V61Q417 55 421 53T447 48T511 46H538V0H526Q502 3 361 3T196 0H184V46H211Q231 46 245 46T270 47T286 48T297 51T303 54T307 57T312 61V150H310Q309 151 289 153T232 166T160 195Q149 201 136 210T103 238T69
284T56 342Q56 414 128 467T294 530Q309 532 310 533H312V622ZM170 342Q170 207 307 188H312V495H309Q301 495 282 491T231 469T186 423Q170 389 170 342ZM415 188Q487 199 519 236T551 342Q551 384 539 414T507 459T470 481T434 491T415 495H410V188H415Z" />
<glyph unicode="&#x3a8;" glyph-name="Psi" horiz-adv-x="778" d="M340 622Q338 623 335 625T331 629T325 631T314 634T298 635T274 636T239 637H212V683H224Q248 680 389 680T554 683H566V637H539Q479 637 464 635T439 622L438 407Q438 192 439 192Q443 193 449
195T474 207T507 232T536 276T557 344Q560 365 562 417T573 493Q587 536 620 544Q627 546 671 546H715L722 540V515Q714 509 708 509Q680 505 671 476T658 392T644 307Q599 177 451 153L438 151V106L439 61Q446 54 451 52T476 48T539 46H566V0H554Q530 3 389 3T224
0H212V46H239Q259 46 273 46T298 47T314 48T325 51T331 54T335 57T340 61V151Q126 178 117 406Q115 503 69 509Q55 509 55 526Q55 541 59 543T86 546H107H120Q150 546 161 543T184 528Q198 514 204 493Q212 472 213 420T226 316T272 230Q287 216 303 207T330 194L339
192Q340 192 340 407V622Z" />
<glyph unicode="&#x3a9;" glyph-name="Omega" horiz-adv-x="722" d="M55 454Q55 503 75 546T127 617T197 665T272 695T337 704H352Q396 704 404 703Q527 687 596 615T666 454Q666 392 635 330T559 200T499 83V80H543Q589 81 600 83T617 93Q622 102 629 135T636
172L637 177H677V175L660 89Q645 3 644 2V0H552H488Q461 0 456 3T451 20Q451 89 499 235T548 455Q548 512 530 555T483 622T424 656T361 668Q332 668 303 658T243 626T193 560T174 456Q174 380 222 233T270 20Q270 7 263 0H77V2Q76 3 61 89L44 175V177H84L85 172Q85
171 88 155T96 119T104 93Q109 86 120 84T178 80H222V83Q206 132 162 199T87 329T55 454Z" />
<glyph unicode="&#x2002;" glyph-name="uni2002" horiz-adv-x="500" />
<glyph unicode="&#x2003;" glyph-name="uni2003" horiz-adv-x="999" />
<glyph unicode="&#x2004;" glyph-name="uni2004" horiz-adv-x="333" />
<glyph unicode="&#x2005;" glyph-name="uni2005" horiz-adv-x="250" />
<glyph unicode="&#x2006;" glyph-name="uni2006" horiz-adv-x="167" />
<glyph unicode="&#x2009;" glyph-name="uni2009" horiz-adv-x="167" />
<glyph unicode="&#x200a;" glyph-name="uni200A" horiz-adv-x="83" />
<glyph unicode="&#x2013;" glyph-name="endash" horiz-adv-x="500" d="M0 248V285H499V248H0Z" />
<glyph unicode="&#x2014;" glyph-name="emdash" horiz-adv-x="1000" d="M0 248V285H999V248H0Z" />
<glyph unicode="&#x2018;" glyph-name="quoteleft" horiz-adv-x="278" d="M64 494Q64 548 86 597T131 670T160 694Q163 694 172 685T182 672Q182 669 170 656T144 625T116 573T101 501Q101 489 102 489T107 491T120 497T138 500Q163 500 180 483T198 440T181 397T139
379Q110 379 87 405T64 494Z" />
<glyph unicode="&#x2019;" glyph-name="quoteright" horiz-adv-x="278" d="M78 634Q78 659 95 676T138 694Q166 694 189 668T212 579Q212 525 190 476T146 403T118 379Q114 379 105 388T95 401Q95 404 107 417T133 448T161 500T176 572Q176 584 175 584T170 581T157
576T139 573Q114 573 96 590T78 634Z" />
<glyph unicode="&#x201c;" glyph-name="quotedblleft" horiz-adv-x="500" d="M128 494Q128 528 137 560T158 616T185 658T209 685T223 694T236 685T245 670Q244 668 231 654T204 622T178 571T164 501Q164 489 165 489T170 491T183 497T201 500Q226 500 244 483T262
440T245 397T202 379Q173 379 151 405T128 494ZM332 494Q332 528 341 560T362 616T389 658T413 685T427 694T439 685T449 672Q449 669 437 656T411 625T383 573T368 501Q368 489 369 489T374 491T387 497T405 500Q430 500 448 483T466 440T449 397T406 379Q377
379 355 405T332 494Z" />
<glyph unicode="&#x201d;" glyph-name="quotedblright" horiz-adv-x="500" d="M34 634Q34 659 50 676T93 694Q121 694 144 668T168 579Q168 525 146 476T101 403T73 379Q69 379 60 388T50 401Q50 404 62 417T88 448T116 500T131 572Q131 584 130 584T125 581T112
576T94 573Q69 573 52 590T34 634ZM238 634Q238 659 254 676T297 694Q325 694 348 668T372 579Q372 525 350 476T305 403T277 379Q273 379 264 388T254 401Q254 404 266 417T292 448T320 500T335 572Q335 584 334 584T329 581T316 576T298 573Q273 573 256 590T238
634Z" />
<glyph unicode="&#x2020;" glyph-name="dagger" horiz-adv-x="444" d="M182 675Q195 705 222 705Q234 705 243 700T253 691T263 675L262 655Q262 620 252 549T240 454V449Q250 451 288 461T346 472T377 461T389 431Q389 417 379 404T346 390Q327 390 288 401T243
412H240V405Q245 367 250 339T258 301T261 274T263 225Q263 124 255 -41T239 -213Q236 -216 222 -216H217Q206 -216 204 -212T200 -186Q199 -175 199 -168Q181 38 181 225Q181 265 182 280T191 327T204 405V412H201Q196 412 157 401T98 390Q76 390 66 403T55 431T65
458T98 472Q116 472 155 462T205 449Q204 452 204 460T201 490T193 547Q182 619 182 655V675Z" />
<glyph unicode="&#x2021;" glyph-name="daggerdbl" horiz-adv-x="444" d="M181 658Q181 705 222 705T263 658Q263 633 252 572T240 497Q240 496 241 496Q243 496 285 507T345 519Q365 519 376 508T388 478Q388 466 384 458T375 447T361 438H344Q318 438 282 448T241
459Q240 458 240 456Q240 449 251 384T263 297Q263 278 255 267T238 253T222 250T206 252T190 266T181 297Q181 323 192 383T204 458Q204 459 203 459Q198 459 162 449T101 438H84Q74 443 70 446T61 457T56 478Q56 497 67 508T99 519Q117 519 159 508T203 496Q204
496 204 499Q204 507 193 572T181 658ZM181 202Q181 249 222 249T263 202Q263 185 259 161T249 103T240 48V41H243Q248 41 287 52T346 63T377 52T389 22Q389 8 379 -5T346 -19Q327 -19 288 -8T243 3H240V-4Q243 -24 249 -58T259 -117T263 -158Q263 -177 255 -188T238
-202T222 -205T206 -203T190 -189T181 -158Q181 -141 185 -117T195 -59T204 -4V3H201Q196 3 157 -8T98 -19Q76 -19 66 -6T55 22T65 49T98 63Q117 63 156 52T201 41H204V48Q201 68 195 102T185 161T181 202Z" />
<glyph unicode="&#x2026;" glyph-name="ellipsis" horiz-adv-x="1172" d="M78 60Q78 84 95 102T138 120Q162 120 180 104T199 61Q199 36 182 18T139 0T96 17T78 60ZM525 60Q525 84 542 102T585 120Q609 120 627 104T646 61Q646 36 629 18T586 0T543 17T525 60ZM972
60Q972 84 989 102T1032 120Q1056 120 1074 104T1093 61Q1093 36 1076 18T1033 0T990 17T972 60Z" />
<glyph unicode="&#x2032;" glyph-name="minute" horiz-adv-x="275" d="M79 43Q73 43 52 49T30 61Q30 68 85 293T146 528Q161 560 198 560Q218 560 240 545T262 501Q262 496 260 486Q259 479 173 263T84 45T79 43Z" />
<glyph unicode="&#x20d7;" glyph-name="uni20D7" horiz-adv-x="0" d="M-123 694Q-123 702 -118 708T-103 714Q-93 714 -88 706T-80 687T-67 660T-40 633Q-29 626 -29 615Q-29 606 -36 600T-53 590T-83 571T-121 531Q-135 516 -143 516T-157 522T-163 536T-152
559T-129 584T-116 595H-287L-458 596Q-459 597 -461 599T-466 602T-469 607T-471 615Q-471 622 -458 635H-99Q-123 673 -123 694Z" />
<glyph unicode="&#x210f;" glyph-name="uni210F" horiz-adv-x="540" d="M182 599Q182 611 174 615T133 619Q118 619 114 621T109 630Q109 636 114 656T122 681Q125 685 202 688Q272 695 286 695Q304 695 304 684Q304 682 295 644T282 597Q282 592 360 592H399Q430
592 445 587T460 563Q460 552 451 541L442 535H266L251 468Q247 453 243 436T236 409T233 399Q233 395 244 404Q295 441 357 441Q405 441 445 417T485 333Q485 284 449 178T412 58T426 44Q447 44 466 68Q485 87 500 130L509 152H531H543Q562 152 562 144Q562 128
546 93T494 23T415 -13Q385 -13 359 3T322 44Q318 52 318 77Q318 99 352 196T386 337Q386 386 346 386Q318 386 286 370Q267 361 245 338T211 292Q207 287 193 235T162 113T138 21Q128 7 122 4Q105 -12 83 -12Q66 -12 54 -2T42 26L166 530Q166 534 161 534T129
535Q127 535 122 535T112 534Q74 534 74 562Q74 570 77 576T84 585T96 589T109 591T124 592T138 592L182 595V599Z" />
<glyph unicode="&#x2111;" glyph-name="Ifraktur" horiz-adv-x="722" d="M55 507Q55 589 116 647T260 705Q395 705 526 541Q542 522 549 517T567 512Q595 512 621 521T647 550Q647 553 647 555T650 558T653 560T657 561T661 561T665 561T670 561Q681 561 685 561T691
558T693 548Q693 515 657 495T565 475Q518 475 481 495T418 543T371 599T320 647T259 667Q194 667 148 622T102 508Q102 468 119 436T164 385T220 357T273 347Q282 347 284 344T287 329Q287 317 285 314T272 310Q193 310 124 364T55 507ZM420 312Q420 367 464 399T564
431Q613 431 651 406T693 336Q693 325 689 323T667 320Q654 320 651 322T647 335Q645 360 622 376T566 393H563Q557 393 551 391T537 381T523 356T517 312Q517 287 535 265T574 229T613 190T631 132Q628 74 586 37T487 -9Q478 -10 417 -10H387Q344 -10 310 4T215
69Q130 142 71 146Q59 146 57 149T55 163Q55 177 58 180T75 183H108Q177 183 207 170T306 93Q346 56 368 40T420 13Q474 25 503 60T533 136Q533 160 516 182T477 219T438 257T420 304V312Z" />
<glyph unicode="&#x2113;" glyph-name="afii61289" horiz-adv-x="417" d="M345 104T349 104T361 95T369 80T352 59Q268 -20 206 -20Q170 -20 146 3T113 53T99 104L94 129Q94 130 79 116T48 86T28 70Q22 70 15 79T7 94Q7 98 12 103T58 147L91 179V185Q91 186 91
191T92 200Q92 282 128 400T223 612T336 705Q397 705 397 636V627Q397 453 194 233Q185 223 180 218T174 211T171 208T165 201L163 186Q159 142 159 123Q159 17 208 17Q228 17 253 30T293 56T335 94Q345 104 349 104ZM360 634Q360 655 354 661T336 668Q328 668
322 666T302 645T272 592Q252 547 229 467T192 330L179 273Q179 272 186 280T204 300T221 322Q327 453 355 590Q360 612 360 634Z" />
<glyph unicode="&#x2118;" glyph-name="weierstrass" horiz-adv-x="636" d="M300 74Q300 133 338 133Q350 133 356 126T363 109Q363 88 340 76Q340 71 342 62T358 39T393 26Q435 26 474 67T532 182T551 290Q551 325 535 349T484 373Q430 373 378 348T291 289T228
218T187 157T174 130Q254 30 265 10Q276 -15 276 -41Q276 -101 235 -158T142 -216Q112 -216 90 -195T67 -118Q67 -40 104 64L110 81Q81 118 81 174Q81 268 134 360T247 453Q252 453 255 451T258 447L259 445Q259 432 253 420Q251 416 242 416Q209 411 176 341T142
203Q142 193 143 184T146 170T149 165L158 180Q215 280 303 345T485 410Q548 410 586 368T625 255Q625 157 553 74T389 -10H383Q349 -10 325 14Q302 37 300 74ZM105 -123Q105 -134 106 -141T110 -158T122 -173T145 -178Q155 -178 160 -176Q184 -163 199 -132T214
-73Q214 -69 214 -66T213 -59T212 -53T209 -47T205 -41T199 -33T193 -25T184 -14T174 -1L165 10Q156 22 148 32L139 43Q138 43 130 15T113 -54T105 -123Z" />
<glyph unicode="&#x211c;" glyph-name="Rfraktur" horiz-adv-x="722" d="M300 614L306 620Q311 626 316 631T332 646T356 663T386 679T425 695T473 707T531 715Q534 715 543 715T557 716Q570 716 572 714Q574 713 644 580T715 444Q715 441 713 439Q712 438 677
419T602 379T549 354L550 348Q550 337 555 238T561 128Q561 122 560 115T559 101Q559 63 591 25L599 18L631 51Q665 85 671 85Q674 85 687 78T702 68Q704 63 702 59Q702 58 659 20T613 -21Q612 -22 598 -22Q556 -22 526 -8T484 27T466 66T461 101Q461 110 462 116T463
129Q463 135 458 232T452 331V338H343V280Q342 195 333 157Q316 64 267 12Q233 -22 193 -22Q155 -22 122 2T72 74Q72 76 70 76T67 74T60 74T48 82Q40 91 40 95Q40 100 42 102T57 109V113Q57 118 66 127T81 137Q88 137 93 123Q105 127 108 126Q111 124 118 117T127
107Q127 101 123 98T113 93T107 90Q107 86 115 71T143 37T189 15H192Q230 15 239 96Q244 135 244 334Q244 510 242 542Q236 584 233 596Q223 630 205 649T166 668Q136 668 118 642T100 584Q100 567 110 554T137 522T166 486Q194 446 194 401V389Q189 243 114 243Q91
243 77 260T59 294T55 322Q55 331 59 333T75 336T91 334T95 322Q95 280 113 280Q134 280 140 305T147 375V391Q147 417 139 435T101 487Q56 540 56 572V580Q56 630 86 667T169 704Q214 704 247 676T300 614ZM324 562Q326 555 330 539T336 515T340 484T343 427V384H424L505
385Q537 396 584 422L609 435Q610 435 594 465T550 550Q536 575 520 605T496 650L488 664L476 662Q348 633 324 562Z" />
<glyph unicode="&#x2135;" glyph-name="aleph" horiz-adv-x="611" d="M55 613Q55 643 61 663T74 688T85 694Q94 694 94 681Q98 632 134 588L412 285Q416 311 430 397T447 509V519L438 526Q407 554 398 571T388 617T394 664T407 688T418 694Q425 694 427 684Q429
675 454 635T488 586Q490 584 496 579T513 563T537 540Q555 516 555 487Q555 460 549 441T537 416T528 409Q519 409 517 415T513 435T503 463Q492 481 490 481Q454 264 454 246Q454 237 479 212T529 152T555 79Q555 32 538 9Q531 1 524 1Q516 1 516 13Q512 62 476
106Q468 115 337 258T195 412L193 406Q191 401 189 394T183 377T176 352T171 322T167 284T165 240Q165 224 166 220Q171 199 211 152T252 70Q252 45 235 29T203 8T175 1Q170 0 115 0H79Q60 0 58 3T55 20Q55 31 58 34Q60 37 76 37Q112 39 126 46T140 70Q140 96 112
148T83 236Q83 281 102 334T140 419T159 452Q55 556 55 613Z" />
<glyph unicode="&#x2190;" glyph-name="arrowleft" horiz-adv-x="1000" d="M944 261T944 250T929 230H165Q167 228 182 216T211 189T244 152T277 96T303 25Q308 7 308 0Q308 -11 288 -11Q281 -11 278 -11T272 -7T267 2T263 21Q245 94 195 151T73 236Q58 242 55
247Q55 254 59 257T73 264Q121 283 158 314T215 375T247 434T264 480L267 497Q269 503 270 505T275 509T288 511Q308 511 308 500Q308 493 303 475Q293 438 278 406T246 352T215 315T185 287T165 270H929Q944 261 944 250Z" />
<glyph unicode="&#x2191;" glyph-name="arrowup" horiz-adv-x="500" d="M27 414Q17 414 17 433Q17 437 17 439T17 444T19 447T20 450T22 452T26 453T30 454T36 456Q80 467 120 494T180 549Q227 607 238 678Q240 694 251 694Q259 694 261 684Q261 677 265 659T284
608T320 549Q340 525 363 507T405 479T440 463T467 455T479 451Q483 447 483 433Q483 413 472 413Q467 413 458 416Q342 448 277 545L270 555V-179Q262 -193 252 -193H250H248Q236 -193 230 -179V555L223 545Q192 499 146 467T70 424T27 414Z" />
<glyph unicode="&#x2192;" glyph-name="arrowright" horiz-adv-x="1000" d="M56 237T56 250T70 270H835Q719 357 692 493Q692 494 692 496T691 499Q691 511 708 511H711Q720 511 723 510T729 506T732 497T735 481T743 456Q765 389 816 336T935 261Q944 258 944
250Q944 244 939 241T915 231T877 212Q836 186 806 152T761 85T740 35T732 4Q730 -6 727 -8T711 -11Q691 -11 691 0Q691 7 696 25Q728 151 835 230H70Q56 237 56 250Z" />
<glyph unicode="&#x2193;" glyph-name="arrowdown" horiz-adv-x="500" d="M473 86Q483 86 483 67Q483 63 483 61T483 56T481 53T480 50T478 48T474 47T470 46T464 44Q428 35 391 14T316 -55T264 -168Q264 -170 263 -173T262 -180T261 -184Q259 -194 251 -194Q242
-194 238 -176T221 -121T180 -49Q169 -34 155 -21T125 2T95 20T67 33T44 42T27 47L21 49Q17 53 17 67Q17 87 28 87Q33 87 42 84Q158 52 223 -45L230 -55V312Q230 391 230 482T229 591Q229 662 231 676T243 693Q244 694 251 694Q264 692 270 679V-55L277 -45Q307
1 353 33T430 76T473 86Z" />
<glyph unicode="&#x2194;" glyph-name="arrowboth" horiz-adv-x="1000" d="M263 479Q267 501 271 506T288 511Q308 511 308 500Q308 493 303 475Q293 438 278 406T246 352T215 315T185 287T165 270H835Q729 349 696 475Q691 493 691 500Q691 511 711 511Q720 511
723 510T729 506T732 497T735 481T743 456Q765 389 816 336T935 261Q944 258 944 250Q944 244 939 241T915 231T877 212Q836 186 806 152T761 85T740 35T732 4Q730 -6 727 -8T711 -11Q691 -11 691 0Q691 7 696 25Q728 151 835 230H165Q167 228 182 216T211 189T244
152T277 96T303 25Q308 7 308 0Q308 -11 288 -11Q281 -11 278 -11T272 -7T267 2T263 21Q245 94 195 151T73 236Q58 242 55 247Q55 254 59 257T73 264Q144 292 194 349T263 479Z" />
<glyph unicode="&#x2195;" glyph-name="arrowupdn" horiz-adv-x="500" d="M27 492Q17 492 17 511Q17 515 17 517T17 522T19 525T20 528T22 530T26 531T30 532T36 534Q80 545 120 572T180 627Q210 664 223 701T238 755T250 772T261 762Q261 757 264 741T282 691T319
628Q352 589 390 566T454 536L479 529Q483 525 483 511Q483 491 472 491Q467 491 458 494Q342 526 277 623L270 633V-133L277 -123Q307 -77 353 -45T430 -2T473 8Q483 8 483 -11Q483 -15 483 -17T483 -22T481 -25T480 -28T478 -30T474 -31T470 -32T464 -34Q407
-49 364 -84T300 -157T270 -223T261 -262Q259 -272 250 -272Q242 -272 239 -255T223 -201T180 -127Q169 -112 155 -99T125 -76T95 -58T67 -45T44 -36T27 -31L21 -29Q17 -25 17 -11Q17 9 28 9Q33 9 42 6Q158 -26 223 -123L230 -133V633L223 623Q192 577 146 545T70
502T27 492Z" />
<glyph unicode="&#x2196;" glyph-name="uni2196" horiz-adv-x="1000" d="M204 662Q257 662 301 676T369 705T394 720Q398 720 407 711T417 697Q417 688 389 671T310 639T212 623Q176 623 153 628Q151 628 221 557T546 232Q942 -164 943 -168Q944 -170 944 -174Q944
-182 938 -188T924 -195Q922 -195 916 -193Q912 -191 517 204Q440 281 326 394T166 553L121 598Q126 589 126 541Q126 438 70 349Q59 332 52 332Q48 332 39 341T29 355Q29 358 38 372T57 407T77 464T86 545Q86 583 78 614T63 663T55 683Q55 693 65 693Q73 693 82
688Q136 662 204 662Z" />
<glyph unicode="&#x2197;" glyph-name="uni2197" horiz-adv-x="1000" d="M582 697Q582 701 591 710T605 720Q607 720 630 706T697 677T795 662Q830 662 863 670T914 686T934 694Q942 694 944 685Q944 680 936 663T921 615T913 545Q913 490 927 446T956 379T970
355Q970 351 961 342T947 332Q940 332 929 349Q874 436 874 541Q874 590 878 598L832 553Q787 508 673 395T482 204Q87 -191 83 -193Q77 -195 75 -195Q67 -195 61 -189T55 -174Q55 -170 56 -168Q58 -164 453 232Q707 487 777 557T847 628Q824 623 787 623Q689 623
599 679Q582 690 582 697Z" />
<glyph unicode="&#x2198;" glyph-name="uni2198" horiz-adv-x="1000" d="M55 675Q55 683 60 689T75 695Q77 695 83 693Q87 691 482 296Q532 246 605 174T717 62T799 -20T859 -80T878 -97Q874 -93 874 -41Q874 64 929 151Q940 168 947 168Q951 168 960 159T970
145Q970 143 956 121T928 54T913 -45Q913 -83 920 -114T936 -163T944 -185Q942 -194 934 -194Q932 -194 914 -186T864 -170T795 -162Q743 -162 698 -176T630 -205T605 -220Q601 -220 592 -211T582 -197Q582 -187 611 -170T691 -138T787 -123Q824 -123 847 -128Q848
-128 778 -57T453 268Q58 664 56 668Q55 670 55 675Z" />
<glyph unicode="&#x2199;" glyph-name="uni2199" horiz-adv-x="1000" d="M126 -41Q126 -92 121 -97Q121 -98 139 -80T200 -20T281 61T394 173T517 296Q909 690 916 693Q922 695 924 695Q932 695 938 689T944 674Q944 670 943 668Q942 664 546 268Q292 13 222 -57T153
-128Q176 -123 212 -123Q310 -123 400 -179Q417 -190 417 -197Q417 -201 408 -210T394 -220Q392 -220 369 -206T302 -177T204 -162Q131 -162 67 -194Q63 -195 59 -192T55 -183Q55 -180 62 -163T78 -115T86 -45Q86 10 72 54T44 120T29 145Q29 149 38 158T52 168Q59
168 70 151Q126 62 126 -41Z" />
<glyph unicode="&#x21a6;" glyph-name="uni21A6" horiz-adv-x="1000" d="M95 155V109Q95 83 92 73T75 63Q61 63 58 74T54 130Q54 140 54 180T55 250Q55 421 57 425Q61 437 75 437Q88 437 91 428T95 393V345V270H835Q719 357 692 493Q692 494 692 496T691 499Q691
511 708 511H711Q720 511 723 510T729 506T732 497T735 481T743 456Q765 389 816 336T935 261Q944 258 944 250Q944 244 939 241T915 231T877 212Q836 186 806 152T761 85T740 35T732 4Q730 -6 727 -8T711 -11Q691 -11 691 0Q691 7 696 25Q728 151 835 230H95V155Z"
/>
<glyph unicode="&#x21a9;" glyph-name="uni21A9" horiz-adv-x="1126" d="M903 424T903 444T929 464Q976 464 1023 434T1070 347Q1070 316 1055 292T1016 256T971 237T929 230H165Q167 228 182 216T211 189T244 152T277 96T303 25Q308 7 308 0Q308 -11 288 -11Q281
-11 278 -11T272 -7T267 2T263 21Q245 94 195 151T73 236Q58 242 55 247Q55 254 59 257T73 264Q121 283 158 314T215 375T247 434T264 480L267 497Q269 503 270 505T275 509T288 511Q308 511 308 500Q308 493 303 475Q293 438 278 406T246 352T215 315T185 287T165
270H926Q929 270 941 271T960 275T978 280T998 290T1015 307Q1030 325 1030 347Q1030 355 1027 364T1014 387T983 411T929 424H928Q903 424 903 444Z" />
<glyph unicode="&#x21aa;" glyph-name="uni21AA" horiz-adv-x="1126" d="M55 347Q55 380 72 404T113 441T159 458T197 464Q222 464 222 444Q222 429 204 426T157 417T110 387Q95 369 95 347Q95 339 98 330T111 307T142 283T196 270H961Q845 357 818 493Q818 494
818 496T817 499Q817 511 834 511H837Q846 511 849 510T855 506T858 497T861 481T869 456Q891 389 942 336T1061 261Q1070 258 1070 250Q1070 244 1065 241T1041 231T1003 212Q962 186 932 152T887 85T866 35T858 4Q856 -6 853 -8T837 -11Q817 -11 817 0Q817 7
822 25Q854 151 961 230H196Q149 230 102 260T55 347Z" />
<glyph unicode="&#x21bc;" glyph-name="uni21BC" horiz-adv-x="1000" d="M62 230Q56 236 55 244Q55 252 57 255T69 265Q114 292 151 326T208 391T243 448T265 491T273 509Q276 511 288 511Q304 511 306 505Q309 501 303 484Q293 456 279 430T251 383T223 344T196
313T173 291T156 276L148 270H929Q944 261 944 250T929 230H62Z" />
<glyph unicode="&#x21bd;" glyph-name="uni21BD" horiz-adv-x="1000" d="M55 256Q56 264 62 270H929Q944 261 944 250T929 230H148Q149 229 165 215T196 185T231 145T270 87T303 16Q309 -1 306 -5Q304 -11 288 -11Q279 -11 276 -10T269 -4T264 10T253 36T231 75Q172
173 69 235Q59 242 57 245T55 256Z" />
<glyph unicode="&#x21c0;" glyph-name="uni21C0" horiz-adv-x="1000" d="M691 500Q691 511 711 511Q720 511 723 510T730 504T735 490T746 464T768 425Q796 378 835 339T897 285T933 263Q941 258 942 256T944 245T937 230H70Q56 237 56 250T70 270H852Q802 308
762 364T707 455T691 500Z" />
<glyph unicode="&#x21c1;" glyph-name="uni21C1" horiz-adv-x="1000" d="M56 237T56 250T70 270H937Q944 263 944 256Q944 251 944 250T943 246T940 242T933 238Q794 153 734 7Q729 -7 726 -9T711 -11Q695 -11 693 -5Q690 -1 696 16Q721 84 763 139T852 230H70Q56
237 56 250Z" />
<glyph unicode="&#x21cc;" glyph-name="uni21CC" horiz-adv-x="1000" d="M691 660Q691 671 711 671Q720 671 723 670T730 664T735 650T746 624T768 585Q797 538 836 499T897 445T933 423Q941 418 942 416T944 405T937 390H70Q56 397 56 410T70 430H852Q802 468
762 524T707 615T691 660ZM55 256Q56 264 62 270H929Q944 261 944 250T929 230H148Q149 229 165 215T196 185T231 145T270 87T303 16Q309 -1 306 -5Q304 -11 288 -11Q279 -11 276 -10T269 -4T264 10T253 36T231 75Q172 173 69 235Q59 242 57 245T55 256Z" />
<glyph unicode="&#x21d0;" glyph-name="arrowdblleft" horiz-adv-x="1000" d="M944 153Q944 140 929 133H318L328 123Q379 69 414 0Q419 -13 419 -17Q419 -24 399 -24Q388 -24 385 -23T377 -12Q332 77 253 144T72 237Q62 240 59 242T56 250T59 257T70 262T89 268T119
278T160 296Q303 366 377 512Q382 522 385 523T401 525Q419 524 419 515Q419 510 414 500Q379 431 328 377L318 367H929Q944 359 944 347Q944 336 930 328L602 327H274L264 319Q225 289 147 250Q148 249 165 241T210 217T264 181L274 173H930Q931 172 933 171T936
169T938 167T941 164T942 162T943 158T944 153Z" />
<glyph unicode="&#x21d1;" glyph-name="arrowdblup" horiz-adv-x="611" d="M228 -179Q227 -180 226 -182T223 -186T221 -189T218 -192T214 -193T208 -194Q196 -194 189 -181L188 125V430L176 419Q122 369 59 338Q46 330 40 330Q38 330 31 337V350Q31 362 33 365T46
374Q60 381 77 390T128 426T190 484T247 567T292 677Q295 688 298 692Q302 694 305 694Q313 694 318 677Q334 619 363 568T420 485T481 427T532 391T564 374Q575 368 577 365T579 350V337Q572 330 570 330Q564 330 551 338Q487 370 435 419L423 430L422 125V-181Q409
-194 401 -194Q397 -194 394 -193T388 -189T385 -184T382 -180V-177V475L373 487Q331 541 305 602Q304 601 300 591T290 571T278 548T260 519T238 488L229 476L228 148V-179Z" />
<glyph unicode="&#x21d2;" glyph-name="arrowdblright" horiz-adv-x="1000" d="M580 514Q580 525 596 525Q601 525 604 525T609 525T613 524T615 523T617 520T619 517T622 512Q659 438 720 381T831 300T927 263Q944 258 944 250T935 239T898 228T840 204Q696 134
622 -12Q618 -21 615 -22T600 -24Q580 -24 580 -17Q580 -13 585 0Q620 69 671 123L681 133H70Q56 140 56 153Q56 168 72 173H725L735 181Q774 211 852 250Q851 251 834 259T789 283T735 319L725 327H72Q56 332 56 347Q56 360 70 367H681L671 377Q638 412 609 458T580
514Z" />
<glyph unicode="&#x21d3;" glyph-name="arrowdbldown" horiz-adv-x="611" d="M401 694Q412 694 422 681V375L423 70L435 81Q487 130 551 162Q564 170 570 170Q572 170 579 163V150Q579 138 577 135T564 126Q541 114 518 99T453 48T374 -46T318 -177Q313 -194 305
-194T293 -178T272 -119T225 -31Q158 70 46 126Q35 132 33 135T31 150V163Q38 170 40 170Q46 170 59 162Q122 131 176 81L188 70V375L189 681Q199 694 208 694Q219 694 228 680V352L229 25L238 12Q279 -42 305 -102Q344 -23 373 13L382 25V678Q387 692 401 694Z"
/>
<glyph unicode="&#x21d4;" glyph-name="arrowdblboth" horiz-adv-x="1000" d="M308 524Q318 526 323 526Q340 526 340 514Q340 507 336 499Q326 476 314 454T292 417T274 391T260 374L255 368Q255 367 500 367Q744 367 744 368L739 374Q734 379 726 390T707 416T685
453T663 499Q658 511 658 515Q658 525 680 525Q687 524 690 523T695 519T701 507Q766 359 902 287Q921 276 939 269T961 259T966 250Q966 246 965 244T960 240T949 236T930 228T902 213Q763 137 701 -7Q697 -16 695 -19T690 -23T680 -25Q658 -25 658 -15Q658 -11
663 1Q673 24 685 46T707 83T725 109T739 126L744 132Q744 133 500 133Q255 133 255 132L260 126Q265 121 273 110T292 84T314 47T336 1Q341 -11 341 -15Q341 -25 319 -25Q312 -24 309 -23T304 -19T298 -7Q233 141 97 213Q83 221 70 227T51 235T41 239T35 243T34
250T35 256T40 261T51 265T70 273T97 287Q235 363 299 509Q305 522 308 524ZM792 319L783 327H216Q183 294 120 256L110 250L120 244Q173 212 207 181L216 173H783L792 181Q826 212 879 244L889 250L879 256Q826 288 792 319Z" />
<glyph unicode="&#x21d5;" glyph-name="uni21D5" horiz-adv-x="611" d="M290 755Q298 772 305 772T318 757T343 706T393 633Q431 588 473 558T545 515T579 497V484Q579 464 570 464Q564 464 550 470Q485 497 423 550L422 400V100L423 -50Q485 3 550 30Q565 36
570 36Q579 36 579 16V3Q575 -1 549 -12T480 -53T393 -132Q361 -172 342 -208T318 -258T305 -272T293 -258T268 -208T217 -132Q170 -80 128 -51T61 -12T31 3V16Q31 36 40 36Q46 36 61 30Q86 19 109 6T146 -18T173 -38T188 -50V550Q186 549 173 539T147 519T110
495T61 470Q46 464 40 464Q31 464 31 484V497Q34 500 63 513T135 557T217 633Q267 692 290 755ZM374 598Q363 610 351 625T332 651T316 676T305 695L294 676Q282 657 267 636T236 598L228 589V-89L236 -98Q247 -110 259 -125T278 -151T294 -176T305 -195L316 -176Q328
-157 343 -136T374 -98L382 -89V589L374 598Z" />
<glyph unicode="&#x2200;" glyph-name="universal" horiz-adv-x="556" d="M0 673Q0 684 7 689T20 694Q32 694 38 680T82 567L126 451H430L473 566Q483 593 494 622T512 668T519 685Q524 694 538 694Q556 692 556 674Q556 670 426 329T293 -15Q288 -22 278 -22T263
-15Q260 -11 131 328T0 673ZM414 410Q414 411 278 411T142 410L278 55L414 410Z" />
<glyph unicode="&#x2202;" glyph-name="partialdiff" horiz-adv-x="531" d="M202 508Q179 508 169 520T158 547Q158 557 164 577T185 624T230 675T301 710L333 715H345Q378 715 384 714Q447 703 489 661T549 568T566 457Q566 362 519 240T402 53Q321 -22 223 -22Q123
-22 73 56Q42 102 42 148V159Q42 276 129 370T322 465Q383 465 414 434T455 367L458 378Q478 461 478 515Q478 603 437 639T344 676Q266 676 223 612Q264 606 264 572Q264 547 246 528T202 508ZM430 306Q430 372 401 400T333 428Q270 428 222 382Q197 354 183 323T150
221Q132 149 132 116Q132 21 232 21Q244 21 250 22Q327 35 374 112Q389 137 409 196T430 306Z" />
<glyph unicode="&#x2203;" glyph-name="existential" horiz-adv-x="556" d="M56 661T56 674T70 694H487Q497 686 500 679V15Q497 10 487 1L279 0H70Q56 7 56 20T70 40H460V327H84Q70 334 70 347T84 367H460V654H70Q56 661 56 674Z" />
<glyph unicode="&#x2205;" glyph-name="emptyset" horiz-adv-x="500" d="M331 696Q335 708 339 722T345 744T350 759T357 769T367 772Q374 772 381 767T388 754Q388 746 377 712L366 673L378 661Q460 575 460 344Q460 281 456 234T432 126T373 27Q319 -22 250
-22Q214 -22 180 -7Q168 -3 168 -4L159 -33Q148 -71 142 -75Q138 -78 132 -78Q124 -78 118 -72T111 -60Q111 -52 122 -18L133 21L125 29Q39 111 39 344Q39 596 137 675Q187 716 251 716Q265 716 278 714T296 710T315 703T331 696ZM276 676Q264 679 246 679Q196
679 159 631Q134 597 128 536T121 356Q121 234 127 174T151 80L234 366Q253 430 275 506T308 618L318 654Q318 656 294 669L276 676ZM181 42Q207 16 250 16Q291 16 324 47Q354 78 366 136T378 356Q378 470 372 528T349 616L348 613Q348 611 264 326L181 42Z" />
<glyph unicode="&#x2207;" glyph-name="gradient" horiz-adv-x="833" d="M46 676Q46 679 51 683H781Q786 679 786 676Q786 674 617 326T444 -26Q439 -33 416 -33T388 -26Q385 -22 216 326T46 676ZM697 596Q697 597 445 597T193 596Q195 591 319 336T445 80L697 596Z" />
<glyph unicode="&#x2208;" glyph-name="element" horiz-adv-x="667" d="M84 250Q84 372 166 450T360 539Q361 539 377 539T419 540T469 540H568Q583 532 583 520Q583 511 570 501L466 500Q355 499 329 494Q280 482 242 458T183 409T147 354T129 306T124 272V270H568Q583
262 583 250T568 230H124V228Q124 207 134 177T167 112T231 48T328 7Q355 1 466 0H570Q583 -10 583 -20Q583 -32 568 -40H471Q464 -40 446 -40T417 -41Q262 -41 172 45Q84 127 84 250Z" />
<glyph unicode="&#x2209;" glyph-name="notelement" horiz-adv-x="667" d="M196 25Q84 109 84 250Q84 372 166 450T360 539Q361 539 375 539T413 540T460 540L547 707Q550 716 563 716Q570 716 575 712T581 703T583 696T505 540H568Q583 532 583 520Q583 511 570
501L484 500L366 270H568Q583 262 583 250T568 230H346L247 38Q284 16 328 7Q355 1 466 0H570Q583 -10 583 -20Q583 -32 568 -40H471Q464 -40 447 -40T419 -41Q304 -41 228 3Q117 -211 115 -212Q111 -215 104 -215T92 -212T86 -204T84 -197Q84 -190 89 -183L196
25ZM214 61L301 230H124V228Q124 196 147 147T214 61ZM321 270L440 500Q353 499 329 494Q280 482 242 458T183 409T147 354T129 306T124 272V270H321Z" />
<glyph unicode="&#x220b;" glyph-name="suchthat" horiz-adv-x="667" d="M83 520Q83 532 98 540H195Q202 540 220 540T249 541Q404 541 494 455Q582 374 582 250Q582 165 539 99T434 0T304 -39Q297 -40 195 -40H98Q83 -32 83 -20Q83 -10 96 0H200Q311 1 337 6Q369
14 401 28Q422 39 445 55Q484 85 508 127T537 191T542 228V230H98Q84 237 84 250T98 270H542V272Q542 280 539 295T527 336T497 391T445 445Q422 461 401 472Q386 479 374 483T347 491T325 495T298 498T273 499T239 500T200 500L96 501Q83 511 83 520Z" />
<glyph unicode="&#x2212;" glyph-name="minus" horiz-adv-x="778" d="M84 237T84 250T98 270H679Q694 262 694 250T679 230H98Q84 237 84 250Z" />
<glyph unicode="&#x2213;" glyph-name="uni2213" horiz-adv-x="778" d="M56 467T56 480T70 500H707Q722 492 722 480T707 460H409V187H707Q722 179 722 167Q722 154 707 147H409V0V-93Q409 -144 406 -155T389 -166Q376 -166 372 -155T368 -105Q368 -96 368 -62T369
-2V147H70Q56 154 56 167T70 187H369V460H70Q56 467 56 480Z" />
<glyph unicode="&#x2215;" glyph-name="uni2215" horiz-adv-x="500" d="M423 750Q432 750 438 744T444 730Q444 725 271 248T92 -240Q85 -250 75 -250Q68 -250 62 -245T56 -231Q56 -221 230 257T407 740Q411 750 423 750Z" />
<glyph unicode="&#x2216;" glyph-name="uni2216" horiz-adv-x="500" d="M56 731Q56 740 62 745T75 750Q85 750 92 740Q96 733 270 255T444 -231Q444 -239 438 -244T424 -250Q414 -250 407 -240Q404 -236 230 242T56 731Z" />
<glyph unicode="&#x2217;" glyph-name="asteriskmath" horiz-adv-x="500" d="M229 286Q216 420 216 436Q216 454 240 464Q241 464 245 464T251 465Q263 464 273 456T283 436Q283 419 277 356T270 286L328 328Q384 369 389 372T399 375Q412 375 423 365T435 338Q435
325 425 315Q420 312 357 282T289 250L355 219L425 184Q434 175 434 161Q434 146 425 136T401 125Q393 125 383 131T328 171L270 213Q283 79 283 63Q283 53 276 44T250 35Q231 35 224 44T216 63Q216 80 222 143T229 213L171 171Q115 130 110 127Q106 124 100 124Q87
124 76 134T64 161Q64 166 64 169T67 175T72 181T81 188T94 195T113 204T138 215T170 230T210 250L74 315Q65 324 65 338Q65 353 74 363T98 374Q106 374 116 368T171 328L229 286Z" />
<glyph unicode="&#x2218;" glyph-name="uni2218" horiz-adv-x="500" d="M55 251Q55 328 112 386T249 444T386 388T444 249Q444 171 388 113T250 55Q170 55 113 112T55 251ZM245 403Q188 403 142 361T96 250Q96 183 141 140T250 96Q284 96 313 109T354 135T375
160Q403 197 403 250Q403 313 360 358T245 403Z" />
<glyph unicode="&#x2219;" glyph-name="uni2219" horiz-adv-x="500" d="M55 251Q55 328 112 386T249 444T386 388T444 249Q444 171 388 113T250 55Q170 55 113 112T55 251Z" />
<glyph unicode="&#x221a;" glyph-name="radical" horiz-adv-x="833" d="M95 178Q89 178 81 186T72 200T103 230T169 280T207 309Q209 311 212 311H213Q219 311 227 294T281 177Q300 134 312 108L397 -77Q398 -77 501 136T707 565T814 786Q820 800 834 800Q841
800 846 794T853 782V776L620 293L385 -193Q381 -200 366 -200Q357 -200 354 -197Q352 -195 256 15L160 225L144 214Q129 202 113 190T95 178Z" />
<glyph unicode="&#x221d;" glyph-name="proportional" horiz-adv-x="778" d="M56 124T56 216T107 375T238 442Q260 442 280 438T319 425T352 407T382 385T406 361T427 336T442 315T455 297T462 285L469 297Q555 442 679 442Q687 442 722 437V398H718Q710 400 694
400Q657 400 623 383T567 343T527 294T503 253T495 235Q495 231 520 192T554 143Q625 44 696 44Q717 44 719 46H722V-5Q695 -11 678 -11Q552 -11 457 141Q455 145 454 146L447 134Q362 -11 235 -11Q157 -11 107 56ZM93 213Q93 143 126 87T220 31Q258 31 292 48T349
88T389 137T413 178T421 196Q421 200 396 239T362 288Q322 345 288 366T213 387Q163 387 128 337T93 213Z" />
<glyph unicode="&#x221e;" glyph-name="infinity" horiz-adv-x="1000" d="M55 217Q55 305 111 373T254 442Q342 442 419 381Q457 350 493 303L507 284L514 294Q618 442 747 442Q833 442 888 374T944 214Q944 128 889 59T743 -11Q657 -11 580 50Q542 81 506 128L492
147L485 137Q381 -11 252 -11Q166 -11 111 57T55 217ZM907 217Q907 285 869 341T761 397Q740 397 720 392T682 378T648 359T619 335T594 310T574 285T559 263T548 246L543 238L574 198Q605 158 622 138T664 94T714 61T765 51Q827 51 867 100T907 217ZM92 214Q92
145 131 89T239 33Q357 33 456 193L425 233Q364 312 334 337Q285 380 233 380Q171 380 132 331T92 214Z" />
<glyph unicode="&#x2220;" glyph-name="angle" horiz-adv-x="722" d="M71 0L68 2Q65 3 63 5T58 11T55 20Q55 22 57 28Q67 43 346 361Q397 420 474 508Q595 648 616 671T647 694T661 688T666 674Q666 668 663 663Q662 662 627 622T524 503T390 350L120 41L386 40H653Q666
30 666 20Q666 8 651 0H71Z" />
<glyph unicode="&#x2223;" glyph-name="uni2223" horiz-adv-x="278" d="M139 -249H137Q125 -249 119 -235V251L120 737Q130 750 139 750Q152 750 159 735V-235Q151 -249 141 -249H139Z" />
<glyph unicode="&#x2225;" glyph-name="uni2225" horiz-adv-x="500" d="M133 736Q138 750 153 750Q164 750 170 739Q172 735 172 250T170 -239Q164 -250 152 -250Q144 -250 138 -244L137 -243Q133 -241 133 -179T132 250Q132 731 133 736ZM329 739Q334 750 346
750Q353 750 361 744L362 743Q366 741 366 679T367 250T367 -178T362 -243L361 -244Q355 -250 347 -250Q335 -250 329 -239Q327 -235 327 250T329 739Z" />
<glyph unicode="&#x2227;" glyph-name="logicaland" horiz-adv-x="667" d="M318 591Q325 598 333 598Q344 598 348 591Q349 590 414 445T545 151T611 -4Q609 -22 591 -22Q588 -22 586 -21T581 -20T577 -17T575 -13T572 -9T570 -4L333 528L96 -4Q87 -20 80 -21Q78
-22 75 -22Q57 -22 55 -4Q55 2 120 150T251 444T318 591Z" />
<glyph unicode="&#x2228;" glyph-name="logicalor" horiz-adv-x="667" d="M55 580Q56 587 61 592T75 598Q86 598 96 580L333 48L570 580Q579 596 586 597Q588 598 591 598Q609 598 611 580Q611 574 546 426T415 132T348 -15Q343 -22 333 -22T318 -15Q317 -14 252
131T121 425T55 580Z" />
<glyph unicode="&#x2229;" glyph-name="intersection" horiz-adv-x="667" d="M88 -21T75 -21T55 -7V200Q55 231 55 280Q56 414 60 428Q61 430 61 431Q77 500 152 549T332 598Q443 598 522 544T610 405Q611 399 611 194V-7Q604 -22 591 -22Q582 -22 572 -9L570
405Q563 433 556 449T529 485Q498 519 445 538T334 558Q251 558 179 518T96 401Q95 396 95 193V-7Q88 -21 75 -21Z" />
<glyph unicode="&#x222a;" glyph-name="union" horiz-adv-x="667" d="M591 598H592Q604 598 611 583V376Q611 345 611 296Q610 162 606 148Q605 146 605 145Q586 68 507 23T333 -22Q268 -22 209 -1T106 66T56 173Q55 180 55 384L56 585Q66 598 75 598Q85 598 95
585V378L96 172L98 162Q112 95 181 57T332 18Q415 18 487 58T570 175Q571 180 571 383V583Q579 598 591 598Z" />
<glyph unicode="&#x222b;" glyph-name="integral'" horiz-adv-x="417" d="M151 -112Q151 -150 106 -161Q106 -165 114 -172T134 -179Q155 -179 170 -146Q181 -120 188 -64T206 101T232 310Q256 472 277 567Q308 716 392 716Q434 716 453 681T472 613Q472 590 458
577T424 564Q404 564 390 578T376 612Q376 650 421 661Q421 663 418 667T407 675T393 679Q387 679 380 675Q360 665 350 619T326 438Q302 190 253 -57Q235 -147 201 -186Q174 -213 138 -216Q93 -216 74 -181T55 -113Q55 -91 69 -78T103 -64Q123 -64 137 -78T151
-112Z" />
<glyph unicode="&#x223c;" glyph-name="similar" horiz-adv-x="778" d="M55 166Q55 241 101 304T222 367Q260 367 296 349T362 304T421 252T484 208T554 189Q616 189 655 236T694 338Q694 350 698 358T708 367Q722 367 722 334Q722 260 677 197T562 134H554Q517
134 481 152T414 196T355 248T292 293T223 311Q179 311 145 286Q109 257 96 218T80 156T69 133Q55 133 55 166Z" />
<glyph unicode="&#x2240;" glyph-name="uni2240" horiz-adv-x="278" d="M55 569Q55 583 83 583Q122 583 151 565T194 519T215 464T222 411Q222 360 194 304T139 193T111 89Q111 38 134 -7T195 -55Q222 -57 222 -69Q222 -83 189 -83Q130 -83 93 -33T55 90Q55 130
72 174T110 252T148 328T166 411Q166 462 144 507T83 555Q55 556 55 569Z" />
<glyph unicode="&#x2243;" glyph-name="uni2243" horiz-adv-x="778" d="M55 283Q55 356 103 409T217 463Q262 463 297 447T395 382Q431 355 446 344T493 320T554 307H558Q613 307 652 344T694 433Q694 464 708 464T722 432Q722 356 673 304T564 251H554Q510 251
465 275T387 329T310 382T223 407H219Q164 407 122 367Q91 333 85 295T76 253T69 250Q55 250 55 283ZM56 56Q56 71 72 76H706Q722 70 722 56Q722 44 707 36H70Q56 43 56 56Z" />
<glyph unicode="&#x2245;" glyph-name="congruent" horiz-adv-x="1000" d="M55 388Q55 463 101 526T222 589Q260 589 296 571T362 526T421 474T484 430T554 411Q616 411 655 458T694 560Q694 572 698 580T708 589Q722 589 722 556Q722 482 677 419T562 356H554Q517
356 481 374T414 418T355 471T292 515T223 533Q179 533 145 508Q109 479 96 440T80 378T69 355Q55 355 55 388ZM56 236Q56 249 70 256H707Q722 248 722 236Q722 225 708 217L390 216H72Q56 221 56 236ZM56 42Q56 57 72 62H708Q722 52 722 42Q722 30 707 22H70Q56
29 56 42Z" />
<glyph unicode="&#x2248;" glyph-name="approxequal" horiz-adv-x="778" d="M55 319Q55 360 72 393T114 444T163 472T205 482Q207 482 213 482T223 483Q262 483 296 468T393 413L443 381Q502 346 553 346Q609 346 649 375T694 454Q694 465 698 474T708 483Q722
483 722 452Q722 386 675 338T555 289Q514 289 468 310T388 357T308 404T224 426Q164 426 125 393T83 318Q81 289 69 289Q55 289 55 319ZM55 85Q55 126 72 159T114 210T163 238T205 248Q207 248 213 248T223 249Q262 249 296 234T393 179L443 147Q502 112 553 112Q609
112 649 141T694 220Q694 249 708 249T722 217Q722 153 675 104T555 55Q514 55 468 76T388 123T308 170T224 192Q164 192 125 159T83 84Q80 55 69 55Q55 55 55 85Z" />
<glyph unicode="&#x224d;" glyph-name="uni224D" horiz-adv-x="778" d="M55 464Q55 471 60 477T74 484Q80 484 108 464T172 420T268 376T389 356Q436 356 483 368T566 399T630 436T675 467T695 482Q701 484 703 484Q711 484 716 478T722 464Q722 454 707 442Q550
316 389 316Q338 316 286 329T195 362T124 402T76 437T57 456Q55 462 55 464ZM57 45Q66 58 109 88T230 151T381 183Q438 183 494 168T587 135T658 94T703 61T720 45Q722 39 722 36Q722 28 717 22T703 16Q697 16 669 36T606 80T510 124T389 144Q341 144 294 132T211
101T147 64T102 33T82 18Q76 16 74 16Q66 16 61 22T55 36Q55 39 57 45Z" />
<glyph unicode="&#x2250;" glyph-name="uni2250" horiz-adv-x="778" d="M56 347Q56 360 70 367H707Q722 359 722 347Q722 336 708 328L390 327H72Q56 332 56 347ZM56 153Q56 168 72 173H708Q722 163 722 153Q722 140 707 133H70Q56 140 56 153ZM329 610Q329 634
346 652T389 670Q413 670 431 654T450 611Q450 586 433 568T390 550T347 567T329 610Z" />
<glyph unicode="&#x2260;" glyph-name="notequal" horiz-adv-x="778" d="M166 -215T159 -215T147 -212T141 -204T139 -197Q139 -190 144 -183L306 133H70Q56 140 56 153Q56 168 72 173H327L406 327H72Q56 332 56 347Q56 360 70 367H426Q597 702 602 707Q605 716
618 716Q625 716 630 712T636 703T638 696Q638 692 471 367H707Q722 359 722 347Q722 336 708 328L451 327L371 173H708Q722 163 722 153Q722 140 707 133H351Q175 -210 170 -212Q166 -215 159 -215Z" />
<glyph unicode="&#x2261;" glyph-name="equivalence" horiz-adv-x="778" d="M56 444Q56 457 70 464H707Q722 456 722 444Q722 430 706 424H72Q56 429 56 444ZM56 237T56 250T70 270H707Q722 262 722 250T707 230H70Q56 237 56 250ZM56 56Q56 71 72 76H706Q722
70 722 56Q722 44 707 36H70Q56 43 56 56Z" />
<glyph unicode="&#x2264;" glyph-name="lessequal" horiz-adv-x="778" d="M674 636Q682 636 688 630T694 615T687 601Q686 600 417 472L151 346L399 228Q687 92 691 87Q694 81 694 76Q694 58 676 56H670L382 192Q92 329 90 331Q83 336 83 348Q84 359 96 365Q104
369 382 500T665 634Q669 636 674 636ZM84 -118Q84 -108 99 -98H678Q694 -104 694 -118Q694 -130 679 -138H98Q84 -131 84 -118Z" />
<glyph unicode="&#x2265;" glyph-name="greaterequal" horiz-adv-x="778" d="M83 616Q83 624 89 630T99 636Q107 636 253 568T543 431T687 361Q694 356 694 346T687 331Q685 329 395 192L107 56H101Q83 58 83 76Q83 77 83 79Q82 86 98 95Q117 105 248 167Q326
204 378 228L626 346L360 472Q291 505 200 548Q112 589 98 597T83 616ZM84 -118Q84 -108 99 -98H678Q694 -104 694 -118Q694 -130 679 -138H98Q84 -131 84 -118Z" />
<glyph unicode="&#x226a;" glyph-name="uni226A" horiz-adv-x="1000" d="M639 -48Q639 -54 634 -60T619 -67H618Q612 -67 536 -26Q430 33 329 88Q61 235 59 239Q56 243 56 250T59 261Q62 266 336 415T615 567L619 568Q622 567 625 567Q639 562 639 548Q639 540
633 534Q632 532 374 391L117 250L374 109Q632 -32 633 -34Q639 -40 639 -48ZM944 -48Q944 -54 939 -60T924 -67H923Q917 -67 841 -26Q735 33 634 88Q366 235 364 239Q361 243 361 250T364 261Q367 266 641 415T920 567L924 568Q927 567 930 567Q944 562 944 548Q944
540 938 534Q937 532 679 391L422 250L679 109Q937 -32 938 -34Q944 -40 944 -48Z" />
<glyph unicode="&#x226b;" glyph-name="uni226B" horiz-adv-x="1000" d="M55 539T55 547T60 561T74 567Q81 567 207 498Q297 449 365 412Q633 265 636 261Q639 255 639 250Q639 241 626 232Q614 224 365 88Q83 -65 79 -66Q76 -67 73 -67Q65 -67 60 -61T55 -47Q55
-39 61 -33Q62 -33 95 -15T193 39T320 109L321 110H322L323 111H324L325 112L326 113H327L329 114H330L331 115H332L333 116L334 117H335L336 118H337L338 119H339L340 120L341 121H342L343 122H344L345 123H346L347 124L348 125H349L351 126H352L353 127H354L355
128L356 129H357L358 130H359L360 131H361L362 132L363 133H364L365 134H366L367 135H368L369 136H370L371 137L372 138H373L374 139H375L376 140L378 141L576 251Q63 530 62 533Q55 539 55 547ZM360 539T360 547T365 561T379 567Q386 567 512 498Q602 449 670
412Q938 265 941 261Q944 255 944 250Q944 241 931 232Q919 224 670 88Q388 -65 384 -66Q381 -67 378 -67Q370 -67 365 -61T360 -47Q360 -39 366 -33Q367 -33 400 -15T498 39T625 109L626 110H627L628 111H629L630 112L631 113H632L634 114H635L636 115H637L638
116L639 117H640L641 118H642L643 119H644L645 120L646 121H647L648 122H649L650 123H651L652 124L653 125H654L656 126H657L658 127H659L660 128L661 129H662L663 130H664L665 131H666L667 132L668 133H669L670 134H671L672 135H673L674 136H675L676 137L677 138H678L679
139H680L681 140L683 141L881 251Q368 530 367 533Q360 539 360 547Z" />
<glyph unicode="&#x227a;" glyph-name="uni227A" horiz-adv-x="778" d="M84 249Q84 262 91 266T117 270Q120 270 126 270T137 269Q388 273 512 333T653 512Q657 539 676 539Q685 538 689 532T694 520V515Q689 469 672 431T626 366T569 320T500 286T435 265T373
249Q379 248 404 242T440 233T477 221T533 199Q681 124 694 -17Q694 -41 674 -41Q658 -41 653 -17Q646 41 613 84T533 154T418 197T284 220T137 229H114Q104 229 98 230T88 235T84 249Z" />
<glyph unicode="&#x227b;" glyph-name="uni227B" horiz-adv-x="778" d="M84 517Q84 539 102 539Q115 539 119 529T125 503T137 459T171 404Q277 275 640 269H661Q694 269 694 249T661 229H640Q526 227 439 214T283 173T173 98T124 -17Q118 -41 103 -41Q83 -41
83 -17Q88 29 105 67T151 132T208 178T277 212T342 233T404 249Q401 250 380 254T345 263T302 276T245 299Q125 358 92 468Q84 502 84 517Z" />
<glyph unicode="&#x2282;" glyph-name="propersubset" horiz-adv-x="778" d="M84 250Q84 372 166 450T360 539Q361 539 370 539T395 539T430 540T475 540T524 540H679Q694 532 694 520Q694 511 681 501L522 500H470H441Q366 500 338 496T266 472Q244 461 224 446T179
404T139 337T124 250V245Q124 157 185 89Q244 25 328 7Q348 2 366 2T522 0H681Q694 -10 694 -20Q694 -32 679 -40H526Q510 -40 480 -40T434 -41Q350 -41 289 -25T172 45Q84 127 84 250Z" />
<glyph unicode="&#x2283;" glyph-name="propersuperset" horiz-adv-x="778" d="M83 520Q83 532 98 540H251Q267 540 297 540T343 541Q427 541 488 525T605 455Q693 374 693 250Q693 165 650 99T545 0T415 -39Q407 -40 251 -40H98Q83 -32 83 -20Q83 -10 96 0H255H308H337Q412
0 439 4T512 28Q533 39 553 54T599 96T639 163T654 250Q654 341 592 411Q557 449 512 472Q468 491 439 495T335 500H306H255L96 501Q83 511 83 520Z" />
<glyph unicode="&#x2286;" glyph-name="reflexsubset" horiz-adv-x="778" d="M84 346Q84 468 166 546T360 635Q361 635 370 635T395 635T430 636T475 636T524 636H679Q694 628 694 616Q694 607 681 597L522 596H470H441Q366 596 338 592T266 568Q244 557 224 542T179
500T139 433T124 346V341Q124 253 185 185Q244 121 328 103Q348 98 366 98T522 96H681Q694 86 694 76Q694 64 679 56H526Q510 56 480 56T434 55Q350 55 289 71T172 141Q84 223 84 346ZM104 -131T104 -118T118 -98H679Q694 -106 694 -118T679 -138H118Q104 -131
104 -118Z" />
<glyph unicode="&#x2287;" glyph-name="reflexsuperset" horiz-adv-x="778" d="M83 616Q83 628 98 636H251Q267 636 297 636T343 637Q427 637 488 621T605 551Q693 470 693 346Q693 261 650 195T545 96T415 57Q407 56 251 56H98Q83 64 83 76Q83 86 96 96H255H308H337Q412
96 439 100T512 124Q533 135 553 150T599 192T639 259T654 346Q654 437 592 507Q557 545 512 568Q468 587 439 591T335 596H306H255L96 597Q83 607 83 616ZM84 -131T84 -118T98 -98H659Q674 -106 674 -118T659 -138H98Q84 -131 84 -118Z" />
<glyph unicode="&#x228e;" glyph-name="uni228E" horiz-adv-x="667" d="M591 598H592Q604 598 611 583V376Q611 345 611 296Q610 162 606 148Q605 146 605 145Q586 68 507 23T333 -22Q268 -22 209 -1T106 66T56 173Q55 180 55 384L56 585Q66 598 75 598Q85 598
95 585V378L96 172L98 162Q112 95 181 57T332 18Q415 18 487 58T570 175Q571 180 571 383V583Q579 598 591 598ZM313 406Q313 417 313 435T312 459Q312 483 316 493T333 503T349 494T353 461V406V325H515Q516 325 519 323T527 316T531 305T527 294T520 287T515
285H353V204V152Q353 127 350 117T333 107T316 117T312 152Q312 158 312 175T313 204V285H151Q150 285 147 287T139 294T135 305T139 316T146 323T151 325H313V406Z" />
<glyph unicode="&#x2291;" glyph-name="uni2291" horiz-adv-x="778" d="M94 620Q98 632 110 636H699Q714 628 714 616T699 596H134V96H698Q714 90 714 76Q714 64 699 56H109Q104 59 95 69L94 344V620ZM84 -118Q84 -103 100 -98H698Q714 -104 714 -118Q714 -130
699 -138H98Q84 -131 84 -118Z" />
<glyph unicode="&#x2292;" glyph-name="uni2292" horiz-adv-x="778" d="M64 603T64 616T78 636H668Q675 633 683 623V69Q675 59 668 56H78Q64 63 64 76Q64 91 80 96H643V596H78Q64 603 64 616ZM64 -118Q64 -108 79 -98H678Q694 -104 694 -118Q694 -130 679 -138H78Q64
-131 64 -118Z" />
<glyph unicode="&#x2293;" glyph-name="uni2293" horiz-adv-x="667" d="M83 0Q79 0 76 1T71 3T67 6T65 9T63 13T61 16V301L62 585Q70 595 76 598H592Q602 590 605 583V15Q598 2 587 0Q583 0 580 1T575 3T571 6T569 9T567 13T565 16V558H101V15Q94 2 83 0Z" />
<glyph unicode="&#x2294;" glyph-name="uni2294" horiz-adv-x="667" d="M77 0Q65 4 61 16V301L62 585Q72 598 81 598Q94 598 101 583V40H565V583Q573 598 585 598Q598 598 605 583V15Q602 10 592 1L335 0H77Z" />
<glyph unicode="&#x2295;" glyph-name="circleplus" horiz-adv-x="778" d="M56 250Q56 394 156 488T384 583Q530 583 626 485T722 250Q722 110 625 14T390 -83Q249 -83 153 14T56 250ZM364 542Q308 539 251 509T148 418T96 278V270H369V542H364ZM681 278Q675 338
650 386T592 462T522 509T458 535T412 542H409V270H681V278ZM96 222Q104 150 139 95T219 12T302 -29T366 -42H369V230H96V222ZM681 222V230H409V-42H412Q429 -42 456 -36T521 -10T590 37T649 113T681 222Z" />
<glyph unicode="&#x2296;" glyph-name="uni2296" horiz-adv-x="778" d="M56 250Q56 394 156 488T384 583Q530 583 626 485T722 250Q722 110 625 14T390 -83Q249 -83 153 14T56 250ZM681 278Q669 385 591 463T381 542Q283 542 196 471T96 278V270H681V278ZM275
-42T388 -42T585 32T681 222V230H96V222Q108 107 191 33Z" />
<glyph unicode="&#x2297;" glyph-name="circlemultiply" horiz-adv-x="778" d="M56 250Q56 394 156 488T384 583Q530 583 626 485T722 250Q722 110 625 14T390 -83Q249 -83 153 14T56 250ZM582 471Q531 510 496 523Q446 542 381 542Q324 542 272 519T196 471L389
278L485 375L582 471ZM167 442Q95 362 95 250Q95 137 167 58L359 250L167 442ZM610 58Q682 138 682 250Q682 363 610 442L418 250L610 58ZM196 29Q209 16 230 2T295 -27T388 -42Q409 -42 429 -40T465 -33T496 -23T522 -11T544 1T561 13T574 22T582 29L388 222L196
29Z" />
<glyph unicode="&#x2298;" glyph-name="uni2298" horiz-adv-x="778" d="M56 250Q56 394 156 488T384 583Q530 583 626 485T722 250Q722 110 625 14T390 -83Q249 -83 153 14T56 250ZM582 471Q581 472 571 480T556 491T539 502T517 514T491 525T460 534T424 539T381
542Q272 542 184 460T95 251Q95 198 113 150T149 80L167 58L582 471ZM388 -42Q513 -42 597 44T682 250Q682 363 610 442L196 29Q209 16 229 2T295 -27T388 -42Z" />
<glyph unicode="&#x2299;" glyph-name="uni2299" horiz-adv-x="778" d="M56 250Q56 394 156 488T384 583Q530 583 626 485T722 250Q722 110 625 14T390 -83Q249 -83 153 14T56 250ZM682 250Q682 322 649 387T546 497T381 542Q272 542 184 459T95 250Q95 132 178
45T389 -42Q515 -42 598 45T682 250ZM311 250Q311 285 332 304T375 328Q376 328 382 328T392 329Q424 326 445 305T466 250Q466 217 445 195T389 172Q354 172 333 195T311 250Z" />
<glyph unicode="&#x22a2;" glyph-name="uni22A2" horiz-adv-x="611" d="M55 678Q55 679 56 681T58 684T61 688T65 691T70 693T77 694Q88 692 95 679V367H540Q555 359 555 347Q555 334 540 327H95V15Q88 2 77 0Q73 0 70 1T65 3T61 6T59 9T57 13T55 16V678Z" />
<glyph unicode="&#x22a3;" glyph-name="uni22A3" horiz-adv-x="611" d="M515 678Q515 679 516 681T518 684T521 688T525 691T530 693T537 694Q548 692 555 679V15Q548 2 537 0Q533 0 530 1T525 3T521 6T519 9T517 13T515 16V327H71Q70 327 67 329T59 336T55 347T59
358T66 365T71 367H515V678Z" />
<glyph unicode="&#x22a4;" glyph-name="uni22A4" horiz-adv-x="778" d="M55 642T55 648T59 659T66 666T71 668H708Q723 660 723 648T708 628H409V15Q402 2 391 0Q387 0 384 1T379 3T375 6T373 9T371 13T369 16V628H71Q70 628 67 630T59 637Z" />
<glyph unicode="&#x22a5;" glyph-name="perpendicular" horiz-adv-x="778" d="M369 652Q369 653 370 655T372 658T375 662T379 665T384 667T391 668Q402 666 409 653V40H708Q723 32 723 20T708 0H71Q70 0 67 2T59 9T55 20T59 31T66 38T71 40H369V652Z" />
<glyph unicode="&#x22a8;" glyph-name="uni22A8" horiz-adv-x="867" d="M139 -249H137Q125 -249 119 -235V251L120 737Q130 750 139 750Q152 750 159 735V367H796Q811 359 811 347Q811 336 797 328L479 327H161L159 328V172L161 173H797Q798 172 800 171T803 169T805
167T808 164T809 162T810 158T811 153Q811 140 796 133H159V-235Q151 -249 141 -249H139Z" />
<glyph unicode="&#x22c4;" glyph-name="uni22C4" horiz-adv-x="500" d="M242 486Q245 488 250 488Q256 488 258 486Q262 484 373 373T486 258T488 250T486 242T373 127T258 14Q256 12 250 12Q245 12 242 14Q237 16 127 126T14 242Q12 245 12 250T14 258Q16 263
126 373T242 486ZM439 250L250 439L61 250L250 61L439 250Z" />
<glyph unicode="&#x22c5;" glyph-name="dotmath" horiz-adv-x="278" d="M78 250Q78 274 95 292T138 310Q162 310 180 294T199 251Q199 226 182 208T139 190T96 207T78 250Z" />
<glyph unicode="&#x22c6;" glyph-name="uni22C6" horiz-adv-x="500" d="M210 282Q210 284 225 381T241 480Q241 484 245 484Q249 486 251 486Q258 486 260 477T272 406Q275 390 276 380Q290 286 290 282L388 299Q484 314 487 314H488Q497 314 497 302Q497 297
434 266Q416 257 404 251L315 206L361 118Q372 98 383 75T401 40L407 28Q407 16 395 16Q394 16 392 16L390 17L250 159L110 17L108 16Q106 16 105 16Q93 16 93 28L99 40Q105 52 116 75T139 118L185 206L96 251Q6 296 4 300Q3 301 3 302Q3 314 12 314H13Q16 314
112 299L210 282Z" />
<glyph unicode="&#x22c8;" glyph-name="uni22C8" horiz-adv-x="900" d="M833 50T833 250T832 450T659 351T487 250T658 150T832 50Q833 50 833 250ZM873 10Q866 -5 854 -5Q851 -5 845 -3L449 226L260 115Q51 -5 43 -5Q39 -5 35 -1T28 7L26 11V489Q33 505 43 505Q51
505 260 385L449 274L845 503Q851 505 853 505Q866 505 873 490V10ZM412 250L67 450Q66 450 66 250T67 50Q69 51 240 150T412 250Z" />
<glyph unicode="&#x22ee;" glyph-name="uni22EE" horiz-adv-x="278" d="M78 30Q78 54 95 72T138 90Q162 90 180 74T199 31Q199 6 182 -12T139 -30T96 -13T78 30ZM78 440Q78 464 95 482T138 500Q162 500 180 484T199 441Q199 416 182 398T139 380T96 397T78 440ZM78
840Q78 864 95 882T138 900Q162 900 180 884T199 841Q199 816 182 798T139 780T96 797T78 840Z" />
<glyph unicode="&#x22ef;" glyph-name="uni22EF" horiz-adv-x="1172" d="M78 250Q78 274 95 292T138 310Q162 310 180 294T199 251Q199 226 182 208T139 190T96 207T78 250ZM525 250Q525 274 542 292T585 310Q609 310 627 294T646 251Q646 226 629 208T586 190T543
207T525 250ZM972 250Q972 274 989 292T1032 310Q1056 310 1074 294T1093 251Q1093 226 1076 208T1033 190T990 207T972 250Z" />
<glyph unicode="&#x22f1;" glyph-name="uni22F1" horiz-adv-x="1282" d="M133 760Q133 784 150 802T193 820Q217 820 235 804T254 761Q254 736 237 718T194 700T151 717T133 760ZM580 460Q580 484 597 502T640 520Q664 520 682 504T701 461Q701 436 684 418T641
400T598 417T580 460ZM1027 160Q1027 184 1044 202T1087 220Q1111 220 1129 204T1148 161Q1148 136 1131 118T1088 100T1045 117T1027 160Z" />
<glyph unicode="&#x2308;" glyph-name="uni2308" horiz-adv-x="444" d="M174 734Q178 746 190 750H298H369Q400 750 411 747T422 730T411 713T372 709Q365 709 345 709T310 710H214V-235Q206 -248 196 -250Q192 -250 189 -249T184 -247T180 -244T178 -241T176
-237T174 -234V734Z" />
<glyph unicode="&#x2309;" glyph-name="uni2309" horiz-adv-x="444" d="M21 717T21 730T32 746T75 750H147H256Q266 742 269 735V-235Q262 -248 251 -250Q247 -250 244 -249T239 -247T235 -244T233 -241T231 -237T229 -234V710H133Q119 710 99 710T71 709Q43 709 32 713Z" />
<glyph unicode="&#x230a;" glyph-name="uni230A" horiz-adv-x="444" d="M174 734Q174 735 175 737T177 740T180 744T184 747T189 749T196 750Q206 748 214 735V-210H310H373Q401 -210 411 -213T422 -230T411 -247T369 -251Q362 -251 338 -251T298 -250H190Q178
-246 174 -234V734Z" />
<glyph unicode="&#x230b;" glyph-name="uni230B" horiz-adv-x="444" d="M229 734Q229 735 230 737T232 740T235 744T239 747T244 749T251 750Q262 748 269 735V-235Q266 -240 256 -249L147 -250H77Q43 -250 32 -247T21 -230T32 -213T72 -209Q79 -209 99 -209T133
-210H229V734Z" />
<glyph unicode="&#x2322;" glyph-name="uni2322" horiz-adv-x="1000" d="M55 141Q55 149 72 174T125 234T209 303T329 360T478 388H526Q649 383 765 319Q814 291 858 250T923 179T944 141Q944 133 938 128T924 122Q914 124 912 125T902 139Q766 328 500 328Q415
328 342 308T225 258T150 199T102 148T84 124Q81 122 75 122Q55 127 55 141Z" />
<glyph unicode="&#x2323;" glyph-name="uni2323" horiz-adv-x="1000" d="M923 378Q944 378 944 358Q944 345 912 311T859 259Q710 134 500 134Q288 134 140 259Q55 336 55 358Q55 366 61 372T75 378Q78 378 84 376Q86 376 101 356T147 310T221 257T339 212T500
193Q628 193 734 236Q841 282 903 363Q914 378 923 378Z" />
<glyph unicode="&#x23b0;" glyph-name="uni23B0" horiz-adv-x="412" d="M357 741V726Q357 720 349 715Q261 655 242 539Q240 526 240 454T239 315T239 247Q240 235 240 124V40Q240 -17 233 -53T201 -130Q155 -206 78 -244H69H64Q58 -244 57 -243T56 -234Q56 -232
56 -231V-225Q56 -218 63 -215Q153 -153 170 -39Q172 -25 173 119V219Q173 245 174 249Q173 258 173 376V460Q173 515 178 545T201 611Q244 695 327 741L334 744H354L357 741Z" />
<glyph unicode="&#x23b1;" glyph-name="uni23B1" horiz-adv-x="412" d="M78 744Q153 706 196 640T239 492V376Q239 341 239 314T238 271T238 253Q239 251 239 223V119V49Q239 -39 254 -85Q263 -111 275 -134T301 -172T326 -197T346 -213T356 -221T357 -232V-241L354
-244H334Q264 -209 222 -146T174 -12Q173 -6 173 95Q173 134 173 191T174 250Q173 258 173 382V451Q173 542 159 585Q145 626 120 658T75 706T56 723V731Q56 741 57 742T66 744H78Z" />
<glyph unicode="&#x25b3;" glyph-name="uni25B3" horiz-adv-x="889" d="M75 0L72 2Q69 3 67 5T62 11T59 20Q59 24 62 30Q65 37 245 370T428 707Q428 708 430 710T436 714T444 716Q451 716 455 712Q459 710 644 368L828 27V20Q828 7 814 0H75ZM610 347L444 653Q443
653 278 347T113 40H775Q775 42 610 347Z" />
<glyph unicode="&#x25b9;" glyph-name="uni25B9" horiz-adv-x="500" d="M26 489Q33 505 43 505Q51 505 260 385Q464 266 471 259Q473 257 473 250Q473 242 469 239Q459 231 260 115Q51 -5 43 -5Q39 -5 35 -1T28 7L26 11V489ZM412 250L67 450Q66 450 66 250T67
50Q69 51 240 150T412 250Z" />
<glyph unicode="&#x25bd;" glyph-name="uni25BD" horiz-adv-x="889" d="M59 480Q59 485 61 489T66 495T72 498L75 500H814Q828 493 828 480V474L644 132Q458 -210 455 -212Q451 -215 444 -215T433 -212Q429 -210 342 -49T164 282T64 466Q59 478 59 480ZM775 460H113Q113
459 278 153T444 -153T610 153T775 460Z" />
<glyph unicode="&#x25c3;" glyph-name="uni25C3" horiz-adv-x="500" d="M473 10Q466 -5 454 -5Q451 -5 445 -3Q444 -3 343 56T140 173T35 234Q26 239 26 250T35 266Q40 269 240 384T445 503Q451 505 453 505Q466 505 473 490V10ZM433 50T433 250T432 450T259 351T87
250T258 150T432 50Q433 50 433 250Z" />
<glyph unicode="&#x25ef;" glyph-name="uni25EF" horiz-adv-x="1000" d="M56 250Q56 353 95 442T196 589T335 681T491 715Q573 715 635 693Q694 673 747 635T846 543T917 412T944 250Q944 58 815 -78T500 -215Q457 -215 429 -210Q274 -183 165 -56T56 250ZM500
-176Q664 -176 784 -54T904 250Q904 418 799 536T543 674Q534 675 493 675Q425 675 357 647T229 567T133 432T96 250Q96 160 129 80T217 -56T346 -144T500 -176Z" />
<glyph unicode="&#x2660;" glyph-name="spade" horiz-adv-x="778" d="M181 -21Q134 -21 96 27T55 193Q55 224 58 247T82 317T143 410Q172 443 234 498Q282 543 314 598T360 687T380 725Q386 727 389 727Q395 727 398 725T406 716T413 702T423 677T439 641Q481
556 544 498Q633 420 678 353T723 204Q723 142 711 94T669 12T590 -21Q520 -21 490 8T459 66V70H409V62Q409 22 416 -17T430 -82T437 -112Q437 -131 407 -131Q403 -131 397 -131T389 -130T382 -130T372 -131Q341 -131 341 -111Q341 -107 348 -82T362 -18T369 62V70H319V66Q319
57 314 44T297 16T257 -10T191 -21H181Z" />
<glyph unicode="&#x2661;" glyph-name="uni2661" horiz-adv-x="778" d="M55 490Q55 557 71 604T114 674T167 706T222 716Q279 716 322 684T389 605Q391 610 395 617T414 643T447 677T494 704T555 716Q642 716 682 652T723 490Q723 455 718 426T684 342T602 227Q573
196 537 161T485 110T449 63T412 -8Q408 -22 404 -27T389 -33Q382 -33 379 -31T372 -23T366 -8T355 18T335 54Q319 81 298 104T239 163T176 227Q102 310 79 371T55 490ZM198 674Q143 664 119 613T95 491Q95 415 137 346Q174 282 265 194T384 48L389 39Q391 42 397
54T406 71T415 86T427 104T442 122T464 146T491 172Q571 249 613 303Q683 396 683 487Q683 581 649 631Q613 676 556 676Q495 676 457 634T410 538Q407 514 390 514Q386 514 380 517Q372 520 369 536T355 581T319 635Q277 675 223 675H217H208L204 674Q200 674
198 674Z" />
<glyph unicode="&#x2662;" glyph-name="uni2662" horiz-adv-x="778" d="M370 714Q370 717 375 722T388 727Q398 727 403 721T417 697Q420 692 421 689Q536 465 709 304Q723 291 723 282T709 260Q529 93 406 -153Q402 -162 390 -162H389Q379 -162 376 -158T357
-125Q247 89 89 241L64 265Q55 272 55 282Q55 287 57 290T64 300T77 312T98 331T127 361Q197 435 258 523T344 663L370 714ZM655 299Q568 384 508 470T389 662L376 638Q362 613 341 577T289 497T215 399T123 299L105 282L123 265Q210 180 270 94T389 -98L402 -74Q416
-49 437 -13T489 67T563 165T655 265L673 282L655 299Z" />
<glyph unicode="&#x2663;" glyph-name="club" horiz-adv-x="778" d="M213 532Q213 615 265 670T389 726Q461 726 513 671T565 532Q565 511 562 492T553 458T541 432T526 409T512 393T498 379L490 371L511 326Q512 326 516 330T528 341T546 353T572 363T606 368Q664
368 707 315T750 174Q750 87 699 33T579 -22Q567 -22 553 -20T517 -10T479 16T459 63V70H409V62Q409 22 416 -17T430 -82T437 -112Q437 -131 407 -131Q403 -131 397 -131T389 -130T382 -130T372 -131Q341 -131 341 -111Q341 -107 348 -82T362 -18T369 62V70H319V63Q315
25 281 2T197 -22Q132 -22 80 32T28 174Q28 255 69 311T175 368Q192 368 207 364T232 353T250 341T262 331T267 326L288 371L280 378Q272 385 267 391T253 407T238 430T226 457T217 492T213 532Z" />
<glyph unicode="&#x266d;" glyph-name="uni266D" horiz-adv-x="389" d="M200 467Q254 467 293 428T332 321Q332 147 104 -11L88 -22H75Q62 -22 56 -16L55 362V647Q55 743 60 748Q63 750 76 750H83Q87 750 95 744V434L104 440Q144 467 200 467ZM237 322Q237 360
225 388T183 417Q158 417 134 407T101 378Q96 370 96 349T95 197V34Q152 91 194 167T237 322Z" />
<glyph unicode="&#x266e;" glyph-name="uni266E" horiz-adv-x="389" d="M65 721Q78 734 94 734Q100 734 104 727V444L116 449Q129 454 157 465T208 486Q313 527 314 527Q318 527 324 521V-210Q306 -223 294 -223Q289 -223 284 -216V-13L270 -18Q257 -24 231 -34T180
-54Q77 -96 74 -96T65 -90V721ZM104 13Q282 84 283 85Q284 85 284 252Q284 418 283 418L230 396L140 360L104 346V13Z" />
<glyph unicode="&#x266f;" glyph-name="uni266F" horiz-adv-x="389" d="M101 -223Q94 -223 93 -217T91 -188V-151Q91 -88 90 -88Q87 -88 80 -92T68 -96Q62 -96 56 -90L55 -50V-22Q55 -8 58 -4T78 5L91 10V177Q91 343 90 343Q87 343 80 339T68 335Q62 335 56 341L55
381V409Q55 423 58 427T78 436L91 441V543V616Q91 643 93 648T106 656Q119 662 126 659Q130 657 130 645T131 554V456L257 503V607L258 710L260 712Q261 715 272 719T286 723Q293 723 295 715T297 671V617Q297 519 298 519Q301 519 307 522T319 526Q327 526 333
521V437L330 435Q328 432 312 427L297 421V254Q297 88 298 88Q301 88 307 91T319 95Q327 95 333 90V6L330 4Q328 1 312 -4L297 -10V-78V-122Q297 -145 295 -149T282 -156Q274 -160 268 -160Q257 -160 257 -130V-89V-25L131 -72V-210Q123 -215 116 -218T104 -222L101
-223ZM257 72V406L131 359V25L257 72Z" />
<glyph unicode="&#x27e8;" glyph-name="uni27E8" horiz-adv-x="389" d="M333 -232Q332 -239 327 -244T313 -250Q303 -250 296 -240Q293 -233 202 6T110 250T201 494T296 740Q299 745 306 749L309 750Q312 750 313 750Q331 750 333 732Q333 727 243 489Q152 252
152 250T243 11Q333 -227 333 -232Z" />
<glyph unicode="&#x27e9;" glyph-name="uni27E9" horiz-adv-x="389" d="M55 732Q56 739 61 744T75 750Q85 750 92 740Q95 733 186 494T278 250T187 6T92 -240Q85 -250 75 -250Q67 -250 62 -245T55 -232Q55 -227 145 11Q236 248 236 250T145 489Q55 727 55 732Z" />
<glyph unicode="&#x27ee;" glyph-name="uni27EE" horiz-adv-x="412" d="M357 741V726Q357 720 349 715Q261 655 242 539Q240 526 240 394V331Q240 259 239 250Q240 242 240 119V49Q240 -42 254 -85Q263 -111 275 -134T301 -172T326 -197T346 -213T356 -221T357
-232V-241L354 -244H334Q264 -209 222 -146T174 -12Q173 -6 173 95Q173 134 173 191T174 250Q173 260 173 376V460Q173 515 178 545T201 611Q244 695 327 741L334 744H354L357 741Z" />
<glyph unicode="&#x27ef;" glyph-name="uni27EF" horiz-adv-x="412" d="M78 744Q153 706 196 640T239 492V376Q239 339 239 311T238 269T238 252Q240 236 240 124V40Q240 -18 233 -53T202 -130Q156 -206 79 -244H70H65Q58 -244 57 -242T56 -231T57 -220T64 -215Q153
-154 170 -39Q173 -18 174 119V247Q173 249 173 382V451Q173 542 159 585Q145 626 120 658T75 706T56 723V731Q56 741 57 742T66 744H78Z" />
<glyph unicode="&#x27f5;" glyph-name="uni27F5" horiz-adv-x="1609" d="M165 270H1510Q1525 262 1525 250T1510 230H165Q167 228 182 216T211 189T244 152T277 96T303 25Q308 7 308 0Q308 -11 288 -11Q281 -11 278 -11T272 -7T267 2T263 21Q245 94 195 151T73
236Q58 242 55 247Q55 254 59 257T73 264Q121 283 158 314T215 375T247 434T264 480L267 497Q269 503 270 505T275 509T288 511Q308 511 308 500Q308 493 303 475Q293 438 278 406T246 352T215 315T185 287T165 270Z" />
<glyph unicode="&#x27f6;" glyph-name="uni27F6" horiz-adv-x="1638" d="M84 237T84 250T98 270H1444Q1328 357 1301 493Q1301 494 1301 496T1300 499Q1300 511 1317 511H1320Q1329 511 1332 510T1338 506T1341 497T1344 481T1352 456Q1374 389 1425 336T1544
261Q1553 258 1553 250Q1553 244 1548 241T1524 231T1486 212Q1445 186 1415 152T1370 85T1349 35T1341 4Q1339 -6 1336 -8T1320 -11Q1300 -11 1300 0Q1300 7 1305 25Q1337 151 1444 230H98Q84 237 84 250Z" />
<glyph unicode="&#x27f7;" glyph-name="uni27F7" horiz-adv-x="1859" d="M165 270H1694Q1578 357 1551 493Q1551 494 1551 496T1550 499Q1550 511 1567 511H1570Q1579 511 1582 510T1588 506T1591 497T1594 481T1602 456Q1624 389 1675 336T1794 261Q1803 258
1803 250Q1803 244 1798 241T1774 231T1736 212Q1695 186 1665 152T1620 85T1599 35T1591 4Q1589 -6 1586 -8T1570 -11Q1550 -11 1550 0Q1550 7 1555 25Q1587 151 1694 230H165Q167 228 182 216T211 189T244 152T277 96T303 25Q308 7 308 0Q308 -11 288 -11Q281
-11 278 -11T272 -7T267 2T263 21Q245 94 195 151T73 236Q58 242 55 247Q55 254 59 257T73 264Q121 283 158 314T215 375T247 434T264 480L267 497Q269 503 270 505T275 509T288 511Q308 511 308 500Q308 493 303 475Q293 438 278 406T246 352T215 315T185 287T165
270Z" />
<glyph unicode="&#x27f8;" glyph-name="uni27F8" horiz-adv-x="1609" d="M274 173H1539Q1540 172 1542 171T1545 169T1547 167T1550 164T1551 162T1552 158T1553 153Q1553 140 1538 133H318L328 123Q379 69 414 0Q419 -13 419 -17Q419 -24 399 -24Q388 -24 385
-23T377 -12Q332 77 253 144T72 237Q62 240 59 242T56 250T59 257T70 262T89 268T119 278T160 296Q303 366 377 512Q382 522 385 523T401 525Q419 524 419 515Q419 510 414 500Q379 431 328 377L318 367H1538Q1553 359 1553 347Q1553 336 1539 328L1221 327H903L900
328L602 327H274L264 319Q225 289 147 250Q148 249 165 241T210 217T264 181L274 173Z" />
<glyph unicode="&#x27f9;" glyph-name="uni27F9" horiz-adv-x="1638" d="M1218 514Q1218 525 1234 525Q1239 525 1242 525T1247 525T1251 524T1253 523T1255 520T1257 517T1260 512Q1297 438 1358 381T1469 300T1565 263Q1582 258 1582 250T1573 239T1536 228T1478
204Q1334 134 1260 -12Q1256 -21 1253 -22T1238 -24Q1218 -24 1218 -17Q1218 -13 1223 0Q1258 69 1309 123L1319 133H70Q56 140 56 153Q56 168 72 173H1363L1373 181Q1412 211 1490 250Q1489 251 1472 259T1427 283T1373 319L1363 327H710L707 328L390 327H72Q56
332 56 347Q56 360 70 367H1319L1309 377Q1276 412 1247 458T1218 514Z" />
<glyph unicode="&#x27fa;" glyph-name="uni27FA" horiz-adv-x="1858" d="M1438 514Q1438 525 1454 525Q1459 525 1462 525T1467 525T1471 524T1473 523T1475 520T1477 517T1480 512Q1517 438 1578 381T1689 300T1785 263Q1802 258 1802 250T1793 239T1756 228T1698
204Q1554 134 1480 -12Q1476 -21 1473 -22T1458 -24Q1438 -24 1438 -17Q1438 -13 1443 0Q1478 69 1529 123L1539 133H318L328 123Q379 69 414 0Q419 -13 419 -17Q419 -24 399 -24Q388 -24 385 -23T377 -12Q332 77 253 144T72 237Q62 240 59 242T56 250T59 257T70
262T89 268T119 278T160 296Q303 366 377 512Q382 522 385 523T401 525Q419 524 419 515Q419 510 414 500Q379 431 328 377L318 367H1539L1529 377Q1496 412 1467 458T1438 514ZM274 173H1583L1593 181Q1632 211 1710 250Q1709 251 1692 259T1647 283T1593 319L1583
327H930L927 328L602 327H274L264 319Q225 289 147 250Q148 249 165 241T210 217T264 181L274 173Z" />
<glyph unicode="&#x27fc;" glyph-name="uni27FC" horiz-adv-x="1638" d="M95 155V109Q95 83 92 73T75 63Q61 63 58 74T54 130Q54 140 54 180T55 250Q55 421 57 425Q61 437 75 437Q88 437 91 428T95 393V345V270H1444Q1328 357 1301 493Q1301 494 1301 496T1300
499Q1300 511 1317 511H1320Q1329 511 1332 510T1338 506T1341 497T1344 481T1352 456Q1374 389 1425 336T1544 261Q1553 258 1553 250Q1553 244 1548 241T1524 231T1486 212Q1445 186 1415 152T1370 85T1349 35T1341 4Q1339 -6 1336 -8T1320 -11Q1300 -11 1300
0Q1300 7 1305 25Q1337 151 1444 230H95V155Z" />
<glyph unicode="&#x2a3f;" glyph-name="uni2A3F" horiz-adv-x="750" d="M28 660Q28 676 31 679T46 683H50Q87 681 182 681Q217 681 247 681T294 682T315 682Q321 682 323 682T328 679T331 673T332 660Q332 643 328 640T304 637Q239 637 231 626Q229 620 229 334V46H520V334Q520
620 518 626Q510 637 445 637Q426 637 422 640T417 660Q417 675 420 678T432 682H435Q437 682 467 682T569 681T671 681T703 682Q714 682 717 679T721 660Q721 643 717 640T693 637Q628 637 620 626Q619 623 619 342Q619 60 620 57Q628 46 693 46Q714 46 717 43T721
23Q721 5 715 1Q713 0 374 0Q36 0 34 1Q28 5 28 23Q28 40 31 43T56 46Q121 46 129 57Q131 63 131 342Q131 620 129 626Q121 637 56 637Q35 637 32 640T28 660Z" />
<glyph unicode="&#x2aaf;" glyph-name="uni2AAF" horiz-adv-x="778" d="M84 346Q84 359 91 363T117 367Q120 367 126 367T137 366Q388 370 512 430T653 609Q657 636 676 636Q685 635 689 629T694 618V612Q689 566 672 528T626 463T569 417T500 383T435 362T373
346Q379 345 404 339T440 330T477 318T533 296Q592 266 630 223T681 145T694 78Q694 57 674 57Q662 57 657 67T652 92T640 135T606 191Q500 320 137 326H114Q104 326 98 327T88 332T84 346ZM84 -131T84 -118T98 -98H679Q694 -106 694 -118T679 -138H98Q84 -131
84 -118Z" />
<glyph unicode="&#x2ab0;" glyph-name="uni2AB0" horiz-adv-x="778" d="M84 614Q84 636 102 636Q115 636 119 626T125 600T137 556T171 501Q277 372 640 366H661Q694 366 694 346T661 326H640Q578 325 526 321T415 307T309 280T222 237T156 172T124 83Q122 66
118 62T103 57Q100 57 98 57T95 58T93 59T90 62T85 67Q83 71 83 80Q88 126 105 164T151 229T208 275T277 309T342 330T404 346Q401 347 380 351T345 360T302 373T245 396Q125 455 92 565Q84 599 84 614ZM84 -131T84 -118T98 -98H679Q694 -106 694 -118T679 -138H98Q84
-131 84 -118Z" />
<glyph unicode="&#xeffd;" glyph-name="uniEFFD" horiz-adv-x="300" d="M0 0V100H100V0H0ZM200 0V100H300V0H200Z" />
<glyph unicode="&#xeffe;" glyph-name="uniEFFE" horiz-adv-x="300" d="M0 0V100H100V0H0ZM200 0V100H300V0H200Z" />
<glyph unicode="&#xefff;" glyph-name="uniEFFF" horiz-adv-x="100" d="M0 0V100H100V0H0Z" />
</font>
</defs>
</svg>
