<svg viewBox="0 0 24 24" xmlns="http://www.w3.org/2000/svg"><path d="M12.5065 3.62344L11.4835 5.39519C8.57378 4.51647 5.96968 4.9455 5.07207 6.50019C3.89477 8.53934 5.86239 12.1526 9.75027 14.3973C13.6382 16.642 17.7512 16.5393 18.9285 14.5002C19.8261 12.9455 18.8956 10.4758 16.6797 8.39519L17.7026 6.62344C20.7847 9.33215 22.1654 12.8936 20.6605 15.5002C18.8003 18.7223 13.4717 18.8552 8.75027 16.1294C4.0289 13.4035 1.47976 8.72227 3.34002 5.50019C4.84492 2.89362 8.61964 2.30867 12.5065 3.62344ZM15.8842 1.77295L17.6163 2.77295L12.6163 11.4332L10.8842 10.4332L15.8842 1.77295ZM6.73233 20.0002H17.0003V22.0002H5.01761C4.94008 22.0016 4.86194 21.994 4.78481 21.977C4.77025 21.9737 4.7558 21.9702 4.74147 21.9664C4.6589 21.9442 4.57784 21.911 4.50028 21.8662C4.47106 21.8493 4.44301 21.8312 4.41616 21.812C4.30161 21.7294 4.20524 21.6232 4.1342 21.5004C4.06328 21.3774 4.01939 21.2406 4.00518 21.0999C4.00446 21.0926 4.00381 21.0852 4.00325 21.0779C3.98786 20.8832 4.02924 20.6821 4.13425 20.5002L6.38425 16.6031L8.1163 17.6031L6.73233 20.0002Z"/></svg>