<svg viewBox="0 0 24 24" fill="currentColor" xmlns="http://www.w3.org/2000/svg"><path d="M20.7134 7.12811L20.4668 7.69379C20.2864 8.10792 19.7136 8.10792 19.5331 7.69379L19.2866 7.12811C18.8471 6.11947 18.0555 5.31641 17.0677 4.87708L16.308 4.53922C15.8973 4.35653 15.8973 3.75881 16.308 3.57612L17.0252 3.25714C18.0384 2.80651 18.8442 1.97373 19.2761 0.930828L19.5293 0.319534C19.7058 -0.106511 20.2942 -0.106511 20.4706 0.319534L20.7238 0.930828C21.1558 1.97373 21.9616 2.80651 22.9748 3.25714L23.6919 3.57612C24.1027 3.75881 24.1027 4.35653 23.6919 4.53922L22.9323 4.87708C21.9445 5.31641 21.1529 6.11947 20.7134 7.12811ZM9 2C13.0675 2 16.426 5.03562 16.9337 8.96494L19.1842 12.5037C19.3324 12.7367 19.3025 13.0847 18.9593 13.2317L17 14.071V17C17 18.1046 16.1046 19 15 19H13.001L13 22H4L4.00025 18.3061C4.00033 17.1252 3.56351 16.0087 2.7555 15.0011C1.65707 13.6313 1 11.8924 1 10C1 5.58172 4.58172 2 9 2ZM21.1535 18.1024L19.4893 16.9929C20.4436 15.5642 21 13.8471 21 12.0001C21 11.489 20.9574 10.9878 20.8756 10.5L22.8186 10C22.9378 10.6486 23 11.317 23 12.0001C23 14.2576 22.32 16.3562 21.1535 18.1024Z"/></svg>