<svg id="a" xmlns="http://www.w3.org/2000/svg" width="52" height="52" viewBox="0 0 52 52"><path d="M50,42.6v-.4c0-2.4-.2-4.8-.2-7.2v-4.4c0-.9,0-1.8-.3-2.6-1-2.4-4.1-2.8-6.3-2.8s-2.3.1-3.5.4c-.8.2-1.6.5-2.3.9l.7,1.9c0,.4.2.7.3,1.1,1.5-.7,3-1.1,4.5-1.1,2.4,0,3.6,1,3.6,2.8v.9h-1.6c-3.1,0-5.4.4-6.9,1.3-1.7.8-2.5,2.4-2.5,4.7s.5,3.1,1.6,3.9c1,.9,2.4,1.4,4,1.4s2.5-.2,3.4-.6c.9-.4,1.6-1,2.2-1.9h0v.8c0,.3,0,.7.2,1.2h2.9v-.4h.2v.1ZM46.3,37.6c0,.3-.2.6-.4.8-.7,1-1.9,1.6-3.1,1.7h-2.2c-.7,0-1.1-.4-1.5-.9-.5-.8-.4-2.1,0-2.8.4-.4.9-.7,1.4-1,1.4-.4,3.1-.4,4.6-.4h1.3v1.5h0c0,.4,0,.8-.2,1.2h.1v-.1Z" fill="#fff"/><path d="M27.1,9.1c-.1-.4-.4-.7-.9-.7h-2.6c-.4,0-.8.3-1,.7l-7.5,20.6c-.2.4.1.9.5.9h2.9c.4,0,.8-.3,1-.7l1.9-5.4h7.4l2.2,5.4c.1.4.5.7,1,.7h2.9c.4,0,.7-.5.6-.9l-8.3-20.6h-.1ZM22.9,20.3l2.2-5.6,2.4,5.6h-4.6Z" fill="#fff"/><rect x="2" y="28.3" width="11" height="3.1" rx=".8" ry=".8" fill="#fff"/><path d="M12.2,21.4H2.8c-.4,0-.8.4-.8.8v1.5c0,.4.3.8.8.8h9.5c.4,0,.8-.3.8-.8v-1.5c0-.4-.3-.8-.8-.8h-.1Z" fill="#fff"/></svg>