<?xml version="1.0" standalone="no"?>
<!DOCTYPE svg PUBLIC "-//W3C//DTD SVG 1.1//EN" "http://www.w3.org/Graphics/SVG/1.1/DTD/svg11.dtd" >
<svg xmlns="http://www.w3.org/2000/svg">
<metadata>Generated by IcoMoon</metadata>
<defs>
<font id="icomoon" horiz-adv-x="1024">
<font-face units-per-em="1024" ascent="819.2" descent="-204.8" />
<missing-glyph horiz-adv-x="1024" />
<glyph unicode="&#x20;" horiz-adv-x="256" d="" />
<glyph unicode="&#xe001;" glyph-name="uniE001" d="M701.44 75.264q11.264-20.48 10.24-34.816 0-4.096-1.024-6.144 0-5.12-4.096-11.264-4.096-7.168-12.288-13.312-13.312-8.192-35.84-8.192h-292.864q-17.408 0-30.72 5.12-14.336 8.192-20.48 21.504-2.048 8.192-2.048 12.288-1.024 14.336 10.24 34.816l146.432 253.952q2.048 4.096 4.608 7.68t4.608 6.656q18.432 19.456 38.912 16.384h2.048q2.048-1.024 4.096-1.536t4.096-1.536 3.584-1.536 3.584-2.56q11.264-8.192 20.48-23.552zM809.984 597.504q24.576 0 42.496-17.408t17.92-43.008v-370.688q0-25.6-17.92-43.008t-42.496-17.408h-63.488q-2.048 4.096-3.072 5.12l-146.432 254.976q-31.744 54.272-84.992 54.272t-84.992-54.272l-146.432-254.976q-1.024-1.024-3.072-5.12h-63.488q-24.576 0-42.496 17.408t-17.92 43.008v370.688q0 25.6 17.92 43.008t42.496 17.408h595.968zM691.2 105.984l-136.192 235.52z" />
<glyph unicode="&#xe002;" glyph-name="uniE002" d="M181.248 44.544l87.040 326.656q3.072 12.288 12.288 20.48t19.968 11.264 22.528 0.512 20.992-11.776l239.616-239.616q9.216-9.216 11.776-20.992t-0.512-22.528-11.264-19.968-20.48-12.288l-326.656-87.040q-12.288-3.072-24.064 0t-19.968 11.264-11.264 19.968 0 24.064zM842.752 595.456l-87.040-326.656q-3.072-12.288-12.288-20.48t-19.968-11.264-22.528-0.512-20.992 11.776l-239.616 239.616q-9.216 9.216-11.776 20.992t0.512 22.528 11.264 19.968 20.48 12.288l326.656 87.040q12.288 3.072 24.064 0t19.968-11.264 11.264-19.968 0-24.064z" />
<glyph unicode="&#xe003;" glyph-name="uniE003" d="M465.92 12.8q-31.744 0-50.176 26.624l-180.224 316.416q-14.336 21.504-10.24 47.104t25.6 39.936q20.48 14.336 46.080 10.24t39.936-25.6l122.88-186.368 320.512 460.8q10.24 18.432 28.16 25.088t32.256-1.536q17.408-10.24 23.040-26.624t-5.632-35.84l-337.92-618.496q-8.192-14.336-21.504-22.528t-28.672-9.216h-4.096z" />
<glyph unicode="&#xe004;" glyph-name="uniE004" d="M510.976 667.136q1.024 18.432 8.704 34.304t19.968 28.16 28.16 18.944 34.304 6.656q36.864-1.024 62.976-27.136t26.112-62.976q0-20.48-8.192-37.888t-22.528-29.696q-6.144-6.144-14.848-13.824t-8.704-15.872q0-9.216 5.12-16.384t13.312-12.8 17.92-8.192 18.944-0.512l116.736 17.408 20.48-192.512q2.048-21.504-12.288-37.376t-35.84-15.872h-6.144q-31.744 0-51.2 22.528-25.6 30.72-67.584 30.72-19.456 0-36.352-7.68t-29.184-20.48-18.944-30.72-5.632-37.376q2.048-32.768 26.624-57.344t58.368-25.6q21.504-2.048 39.936 6.656t32.768 23.040q18.432 23.552 50.176 23.552h7.168q21.504 0 35.328-15.872t11.776-37.376l-19.456-167.936h-470.016q-1.024 0-1.024 1.024l18.432 152.576q1.024 11.264-2.048 23.552t-10.24 22.016-17.408 15.872-21.504 6.144-20.48-8.704-16.384-16.896q-25.6-27.648-65.536-27.648-36.864 0-63.488 26.112t-26.624 62.976q0 18.432 6.656 34.304t18.432 28.16 27.648 19.968 34.304 7.68q41.984 2.048 67.584-27.648 8.192-8.192 17.408-16.896t20.48-8.704h1.024q11.264 0 21.504 6.144t16.896 15.872 10.24 22.016 2.56 23.552l-19.456 178.176 174.080-19.456q8.192-1.024 17.92 1.536t17.408 7.68 12.8 12.8 5.12 16.896v1.024q0 8.192-8.704 15.872t-14.848 13.824q-30.72 25.6-30.72 69.632z" />
<glyph unicode="&#xe005;" glyph-name="uniE005" d="M176.128 166.4q41.984-7.168 71.168-36.352t36.352-71.168q3.072-11.264-5.12-19.456-6.144-8.192-18.432-8.192h-88.064q-10.24 0-16.896 6.656t-6.656 16.896v88.064q0 12.288 8.192 18.432 8.192 8.192 19.456 5.12zM172.032 279.040q46.080 0 87.040-17.408t71.68-48.128 48.128-71.68 17.408-87.040q0-12.288-8.192-20.48t-20.48-8.192q-11.264 0-19.456 8.192t-8.192 20.48q0 34.816-13.312 65.024t-36.352 53.248-53.248 36.352-65.024 13.312q-12.288 0-20.48 8.192t-8.192 20.48q0 11.264 8.192 19.456t20.48 8.192zM172.032 394.752q70.656 0 132.096-26.624t107.52-72.704 72.704-108.032 26.624-132.608q0-12.288-8.192-20.48t-19.456-8.192q-12.288 0-20.48 8.192t-8.192 20.48q0 58.368-22.528 109.568t-60.928 89.6-89.6 60.928-109.568 22.528q-12.288 0-20.48 8.704t-8.192 19.968 8.192 19.968 20.48 8.704zM779.264 572.928q33.792 0 57.344-23.552t23.552-57.344v-322.56q0-33.792-23.552-57.344t-57.344-23.552h-214.016q-6.144 71.68-36.352 135.168t-78.848 111.616-112.128 77.824-136.192 35.84v43.008q0 33.792 24.064 57.344t56.832 23.552h496.64z" />
<glyph unicode="&#xe006;" glyph-name="uniE006" d="M820.224 100.864q-16.384-12.288-35.84-19.456t-41.984-7.168h-460.8q-22.528 0-41.984 7.168t-35.84 19.456l218.112 189.44 41.984-35.84q19.456-18.432 48.128-18.432 27.648 0 48.128 18.432l41.984 35.84zM390.144 317.952l-215.040-187.392q-21.504 32.768-21.504 71.68v235.52q0 37.888 19.456 68.608zM200.704 537.088q33.792 28.672 80.896 28.672h460.8q47.104 0 80.896-28.672l-289.792-251.904q-9.216-8.192-21.504-8.192t-21.504 8.192zM633.856 317.952l217.088 188.416q19.456-30.72 19.456-68.608v-235.52q0-38.912-21.504-71.68z" />
<glyph unicode="&#xe007;" glyph-name="uniE007" d="M223.232 564.736q0 29.696 9.728 50.176t26.624 30.208 39.424 7.68 48.128-16.384l422.912-244.736q25.6-15.36 38.4-33.792t12.8-37.888-12.8-37.888-38.4-33.792l-422.912-244.736q-25.6-14.336-48.128-16.384t-39.424 7.68-26.624 30.208-9.728 50.176v489.472z" />
<glyph unicode="&#xe008;" glyph-name="uniE008" d="M340.992-7.68q-41.984 0-71.168 29.184t-29.184 72.192v452.608q0 43.008 29.184 72.192t71.168 29.184q43.008 0 72.192-29.184t29.184-72.192v-452.608q0-43.008-29.184-72.192t-72.192-29.184zM683.008-7.68q-43.008 0-72.192 29.184t-29.184 72.192v452.608q0 43.008 29.184 72.192t72.192 29.184q41.984 0 71.168-29.184t29.184-72.192v-452.608q0-43.008-29.184-72.192t-71.168-29.184z" />
<glyph unicode="&#xe009;" glyph-name="uniE009" d="M742.4 357.888q17.408 12.288 17.408 33.28t-17.408 33.28l-150.528 110.592q-9.216 6.144-18.944 1.536t-9.728-15.872v-71.68h-25.6q-62.464 0-114.688-23.552t-87.552-64.512-51.712-95.232-6.144-115.712q4.096-26.624 14.336-53.248 2.048-5.12 7.68-4.608t6.656 6.656q6.144 46.080 28.16 86.528t55.808 69.632 76.288 46.080 90.624 16.896h6.144v-60.416q0-11.264 9.728-15.872t18.944 1.536l150.528 114.688zM772.096 652.8q29.696 0 51.2-21.504t21.504-51.2v-520.192q0-29.696-21.504-51.2t-51.2-21.504h-520.192q-29.696 0-51.2 21.504t-21.504 51.2v520.192q0 29.696 21.504 51.2t51.2 21.504h520.192z" />
<glyph unicode="&#xe00a;" glyph-name="uniE00A" d="M637.952 392.704h-74.752v40.96q0 17.408 4.608 25.6t28.16 8.192h41.984v81.92h-66.56q-59.392 0-83.456-28.16t-24.064-79.36v-49.152h-49.152v-81.92h49.152v-239.616h99.328v239.616h66.56zM512 678.4q73.728 0 139.264-28.16t114.176-76.8 76.8-114.176 28.16-139.264-28.16-139.264-76.8-114.176-114.176-76.8-139.264-28.16-139.264 28.16-114.176 76.8-76.8 114.176-28.16 139.264 28.16 139.264 76.8 114.176 114.176 76.8 139.264 28.16z" />
<glyph unicode="&#xe00b;" glyph-name="uniE00B" d="M451.584 599.552q9.216 8.192 19.456 9.216t19.456-2.56 15.36-12.288 6.144-19.968v-507.904q0-11.264-6.144-19.968t-15.36-12.288-19.456-2.56-19.456 9.216l-136.192 124.928h-58.368q-31.744 0-59.904 12.288t-49.152 33.28-33.28 49.152-12.288 59.904 12.288 59.904 33.28 49.152 49.152 33.28 59.904 12.288h58.368l136.192 124.928z" />
<glyph unicode="&#xe00c;" glyph-name="uniE00C" d="M705.536 392.704q27.648 20.48 49.152 50.176-26.624-11.264-56.32-15.36 15.36 9.216 26.112 23.040t16.896 31.232q-29.696-17.408-61.44-24.576-28.672 30.72-70.656 30.72-20.48 0-37.888-7.68t-30.208-20.48-20.48-30.72-7.68-37.376v-11.264t2.048-11.264q-61.44 3.072-112.64 30.208t-87.040 71.168q-5.12-11.264-8.704-23.040t-3.584-26.112q0-24.576 11.264-45.568t31.744-34.304q-23.552 1.024-44.032 12.288v-1.024q0-35.84 22.016-61.952t54.784-33.28q-11.264-3.072-24.576-3.072h-9.728t-8.704 2.048q9.216-29.696 33.792-48.128t56.32-19.456q-24.576-19.456-55.296-30.208t-64.512-10.752h-11.776t-10.752 1.024q31.744-20.48 69.12-31.744t78.336-11.264q66.56 0 117.76 25.088t86.528 64.512 53.248 88.064 17.92 96.768q0 8.192-1.024 12.288zM512 678.4q74.752 0 139.776-28.16t113.664-76.8 76.8-114.176 28.16-139.264q0-74.752-28.16-139.776t-76.8-113.664-113.664-76.8-139.776-28.16q-73.728 0-139.264 28.16t-114.176 76.8-76.8 113.664-28.16 139.776q0 73.728 28.16 139.264t76.8 114.176 114.176 76.8 139.264 28.16z" />
<glyph unicode="&#xe00d;" glyph-name="uniE00D" d="M907.264 231.936q14.336-14.336 14.336-34.304t-14.336-34.304-33.792-14.336q-18.432 0-34.816 14.336l-88.064 88.064-88.064-88.064q-14.336-14.336-33.792-14.336-18.432 0-34.816 14.336-14.336 14.336-14.336 34.304t14.336 34.304l89.088 88.064-89.088 88.064q-14.336 14.336-14.336 34.304t14.336 34.304 34.304 14.336 34.304-14.336l88.064-88.064 88.064 88.064q14.336 14.336 34.304 14.336t34.304-14.336 14.336-34.304-14.336-34.304l-88.064-88.064zM451.584 599.552q9.216 8.192 19.456 9.216t19.456-2.56 15.36-12.288 6.144-19.968v-507.904q0-11.264-6.144-19.968t-15.36-12.288-19.456-2.56-19.456 9.216l-136.192 124.928h-58.368q-31.744 0-59.904 12.288t-49.152 33.28-33.28 49.152-12.288 59.904 12.288 59.904 33.28 49.152 49.152 33.28 59.904 12.288h58.368l136.192 124.928z" />
<glyph unicode="&#xe00e;" glyph-name="uniE00E" d="M733.184 446.976q19.456 19.456 19.456 46.592t-19.456 47.616q-21.504 19.456-47.104 19.456t-47.104-19.456l-58.368-59.392q-27.648-27.648-17.408-63.488l25.6 25.6q9.216 10.24 23.040 10.24t24.064-10.24 10.24-24.064-10.24-23.040l-25.6-25.6q35.84-10.24 63.488 17.408l59.392 58.368zM443.392 158.208q27.648 27.648 17.408 63.488l-25.6-25.6q-9.216-9.216-23.552-9.216-13.312 0-23.552 9.216-10.24 10.24-10.24 24.064t10.24 23.040l25.6 25.6q-5.12 1.024-8.704 1.536t-7.68 0.512q-28.672 0-47.104-19.456l-59.392-58.368q-19.456-19.456-19.456-46.592t19.456-47.616q20.48-19.456 47.616-19.456t46.592 19.456l58.368 59.392zM780.288 588.288q19.456-19.456 29.184-44.032t9.728-50.176-9.728-50.176-29.184-44.032l-59.392-59.392q-19.456-19.456-43.52-29.184t-50.688-9.728q-35.84 0-66.56 18.432l-48.128-48.128q22.528-37.888 17.408-82.944t-37.888-77.824l-59.392-59.392q-19.456-19.456-44.032-29.184t-50.176-9.728-50.176 9.728-44.032 29.184-29.184 44.032-9.728 50.176 9.728 50.176 29.184 44.032l59.392 59.392q32.768 32.768 77.824 37.888t82.944-17.408l48.128 48.128q-22.528 37.888-17.408 82.944t37.888 77.824l59.392 59.392q19.456 19.456 44.032 29.184t50.176 9.728 50.176-9.728 44.032-29.184z" />
<glyph unicode="&#xe00f;" glyph-name="uniE00F" d="M799.744 126.464q19.456-20.48 19.456-47.616t-19.456-46.592-47.104-19.456q-12.288 0-24.576 4.608t-22.528 14.848l-193.536 193.536-193.536-193.536q-10.24-10.24-22.528-14.848t-24.576-4.608q-27.648 0-47.104 19.456t-19.456 46.592 19.456 47.616l193.536 193.536-193.536 193.536q-19.456 20.48-19.456 47.616t19.456 46.592 46.592 19.456 47.616-19.456l193.536-193.536 193.536 193.536q20.48 19.456 47.616 19.456t46.592-19.456 19.456-46.592-19.456-47.616l-193.536-193.536z" />
<glyph unicode="&#xe010;" glyph-name="uniE010" d="M194.56 256.512q-27.648 0-47.104 19.456t-19.456 47.104q0 28.672 19.456 48.128t47.104 19.456q28.672 0 48.128-19.456t19.456-48.128q0-27.648-19.456-47.104t-48.128-19.456zM194.56 380.416q-23.552 0-39.936-16.896t-16.384-40.448 16.384-39.936 39.936-16.384 40.448 16.384 16.896 39.936-16.896 40.448-40.448 16.896zM178.176 344.576q0 7.168 7.168 4.096l36.864-20.48q6.144-5.12 0-9.216l-36.864-20.48q-7.168-4.096-7.168 4.096v41.984zM324.608 364.032q-4.096 2.048-7.168 2.048-9.216 0-9.216-10.24v-7.168h14.336v-16.384h-14.336v-56.32h-20.48v56.32h-11.264v16.384h11.264v8.192q0 25.6 25.6 25.6 8.192 0 11.264-2.048v-16.384zM352.256 275.968h-20.48v105.472h20.48v-105.472zM394.24 274.944q-16.384 0-26.112 10.24t-9.728 26.624q0 17.408 9.728 27.648t26.112 10.24q15.36 0 25.088-10.24t9.728-27.648q0-16.384-9.728-26.624t-25.088-10.24zM394.24 333.312q-8.192 0-11.776-6.144t-3.584-15.36q0-8.192 3.584-14.336t11.776-6.144 11.776 6.144 3.584 14.336q0 9.216-3.584 15.36t-11.776 6.144zM500.736 302.592l12.288 46.080h19.456l-21.504-72.704h-18.432l-12.288 44.032-11.264-44.032h-18.432l-22.528 72.704h20.48l12.288-46.080 12.288 46.080h15.36zM557.056 249.344h-19.456v99.328h19.456v-6.144q5.12 7.168 18.432 7.168 15.36 0 24.064-11.264t8.704-26.624-8.704-26.112-24.064-10.752q-13.312 0-18.432 7.168v-32.768zM557.056 300.544q3.072-8.192 13.312-8.192 17.408 0 17.408 19.456 0 20.48-17.408 20.48-10.24 0-13.312-8.192v-23.552zM634.88 275.968h-20.48v105.472h20.48v-105.472zM686.080 275.968v4.096q-2.048-2.048-7.168-3.584t-11.264-1.536q-11.264 0-18.944 6.144t-7.68 17.408q0 10.24 8.192 16.384t20.48 6.144q10.24 0 16.384-4.096v5.12q0 11.264-12.288 11.264-9.216 0-10.24-6.144h-19.456q2.048 10.24 10.24 16.384t20.48 6.144q29.696 0 29.696-27.648v-46.080h-18.432zM686.080 300.544q-4.096 7.168-13.312 7.168-5.12 0-9.216-2.048t-4.096-7.168 4.096-7.168 9.216-2.048q9.216 0 13.312 6.144v5.12zM722.944 249.344l11.264 26.624-27.648 72.704h20.48l17.408-48.128 16.384 48.128h19.456l-36.864-99.328h-20.48zM845.824 299.52q-5.12-24.576-32.768-24.576-15.36 0-25.088 10.24t-9.728 26.624q0 17.408 9.728 27.648t25.088 10.24q16.384 0 24.576-9.728t8.192-26.112v-6.144h-48.128q2.048-17.408 15.36-17.408 11.264 0 13.312 9.216h19.456zM797.696 320h28.672q0 13.312-13.312 13.312-12.288 0-15.36-13.312zM896 328.192q-5.12 3.072-10.24 3.072-11.264 0-13.312-10.24v-45.056h-20.48v72.704h20.48v-7.168q5.12 8.192 16.384 8.192 6.144 0 7.168-1.024v-20.48z" />
<glyph unicode="&#xe011;" glyph-name="uniE011" d="M313.344 370.176l283.648 283.648q22.528 22.528 54.784 24.576t55.808-20.48q12.288-11.264 17.92-25.6t5.632-29.696-5.632-29.696-16.896-26.624l-226.304-226.304 226.304-226.304q23.552-22.528 23.552-54.272t-23.552-55.296q-11.264-11.264-25.6-16.896t-28.672-5.632q-32.768 0-55.296 22.528l-285.696 286.72q-20.48 20.48-20.48 49.664t20.48 49.664z" />
<glyph unicode="&#xe012;" glyph-name="uniE012" d="M710.656 370.176q20.48-20.48 20.48-49.664t-20.48-49.664l-285.696-286.72q-22.528-22.528-55.296-22.528-14.336 0-28.672 5.632t-25.6 16.896q-23.552 23.552-23.552 55.296t23.552 54.272l226.304 226.304-226.304 226.304q-11.264 12.288-16.896 26.624t-5.632 29.696 5.632 29.696 17.92 25.6q23.552 22.528 55.808 20.48t54.784-24.576l283.648-283.648z" />
<glyph unicode="&#xe013;" glyph-name="_19" d="M819.2 320q0-63.488-24.064-119.808t-65.536-97.792-97.792-65.536-119.808-24.064-119.808 24.064-97.792 65.536-65.536 97.792-24.064 119.808 24.064 119.808 65.536 97.792 97.792 65.536 119.808 24.064 119.808-24.064 97.792-65.536 65.536-97.792 24.064-119.808z" />
<glyph unicode="&#xe014;" glyph-name="_20" d="M512-38.4q-73.728 0-139.264 28.16t-114.176 76.8-76.8 114.176-28.16 139.264 28.16 139.264 76.8 114.176 114.176 76.8 139.264 28.16 139.264-28.16 114.176-76.8 76.8-114.176 28.16-139.264-28.16-139.264-76.8-114.176-114.176-76.8-139.264-28.16zM512 629.248q-63.488 0-119.808-24.576t-98.304-66.56-66.56-98.304-24.576-119.808 24.576-119.808 66.56-98.304 98.304-66.56 119.808-24.576 119.808 24.576 98.304 66.56 66.56 98.304 24.576 119.808-24.576 119.808-66.56 98.304-98.304 66.56-119.808 24.576zM424.96 416.256q0 23.552 14.336 31.744t34.816-3.072l166.912-96.256q20.48-12.288 20.48-28.672t-20.48-28.672l-166.912-96.256q-20.48-11.264-34.816-3.072t-14.336 31.744v192.512z" />
<glyph unicode="&#xe015;" glyph-name="_21" d="M512-38.4q-73.728 0-139.264 28.16t-114.176 76.8-76.8 114.176-28.16 139.264 28.16 139.264 76.8 114.176 114.176 76.8 139.264 28.16 139.264-28.16 114.176-76.8 76.8-114.176 28.16-139.264-28.16-139.264-76.8-114.176-114.176-76.8-139.264-28.16zM512 629.248q-63.488 0-119.808-24.576t-98.304-66.56-66.56-98.304-24.576-119.808 24.576-119.808 66.56-98.304 98.304-66.56 119.808-24.576 119.808 24.576 98.304 66.56 66.56 98.304 24.576 119.808-24.576 119.808-66.56 98.304-98.304 66.56-119.808 24.576zM439.296 180.736q-17.408 0-30.208 12.288t-12.8 30.72v192.512q0 18.432 12.8 31.232t30.208 12.8 30.208-12.8 12.8-31.232v-192.512q0-18.432-12.8-30.72t-30.208-12.288zM584.704 180.736q-17.408 0-30.208 12.288t-12.8 30.72v192.512q0 18.432 12.8 31.232t30.208 12.8 30.208-12.8 12.8-31.232v-192.512q0-18.432-12.8-30.72t-30.208-12.288z" />
<glyph unicode="&#xe016;" glyph-name="_22" d="M521.216 382.464l82.944 311.296q3.072 12.288 11.776 19.968t19.456 10.752 21.504 0.512 19.968-11.776l228.352-228.352q9.216-9.216 11.776-19.968t-0.512-21.504-10.752-19.456-19.968-11.776l-311.296-82.944q-12.288-3.072-23.552 0t-18.944 10.752-10.752 18.944 0 23.552zM502.784 257.536l-82.944-311.296q-3.072-12.288-11.776-19.968t-19.456-10.752-21.504-0.512-19.968 11.776l-228.352 228.352q-9.216 9.216-11.776 19.968t0.512 21.504 10.752 19.456 19.968 11.776l311.296 82.944q12.288 3.072 23.552 0t18.944-10.752 10.752-18.944 0-23.552z" />
<glyph unicode="&#xe101;" glyph-name="uniE101" d="M746.496 3.584v0 0h-457.728l228.352 396.288 145.408-251.904zM870.4 595.456v-491.52h-119.808l-191.488 331.776-41.984 71.68-40.96-71.68-192.512-331.776h-130.048v491.52h716.8z" />
<glyph unicode="&#xe102;" glyph-name="uniE102" d="M179.2-12.8l121.856 452.608 330.752-330.752zM844.8 652.8l-121.856-452.608-330.752 330.752z" />
<glyph unicode="&#xe103;" glyph-name="uniE103" d="M447.488 12.8l-221.184 367.616 75.776 53.248 133.12-190.464 304.128 486.4 58.368-31.744z" />
<glyph unicode="&#xe104;" glyph-name="uniE104" d="M509.952 673.28q0 38.912 27.136 65.536t66.048 26.624 65.536-26.624 26.624-65.536q0-25.6-12.288-46.592t-32.768-33.28v-66.56h179.2v-217.088h-77.824q-12.288 20.48-32.768 32.768t-46.080 12.288q-38.912 0-66.048-27.136t-27.136-66.048 27.136-65.536 66.048-26.624q25.6 0 46.080 12.288t32.768 32.768h77.824v-217.088h-484.352v217.088h-60.416q-12.288-20.48-33.28-32.768t-46.592-12.288q-38.912 0-65.536 26.624t-26.624 65.536 26.624 66.048 65.536 27.136q25.6 0 46.592-12.288t33.28-32.768h60.416v217.088h209.92v66.56q-20.48 12.288-32.768 33.28t-12.288 46.592z" />
<glyph unicode="&#xe105;" glyph-name="uniE105" d="M149.504 153.088q24.576 0 45.568-9.216t37.376-25.6 25.6-37.888 9.216-46.080v-5.12h-123.904v123.904h6.144zM149.504 266.752q48.128 0 90.112-18.432t73.728-49.664 49.664-73.728 17.92-90.624v-5.12h-58.368v5.12q0 35.84-13.824 67.584t-37.376 55.296-54.784 37.376-67.072 13.824h-6.144v58.368h6.144zM149.504 385.536q72.704 0 136.192-27.648t111.104-75.264 75.264-111.616 27.648-136.704v-5.12h-58.368v5.12q0 60.416-23.040 113.664t-62.464 93.184-92.672 62.976-113.664 23.040h-6.144v58.368h6.144zM860.16 569.856v-499.712h-304.128q-6.144 74.752-37.888 139.776t-81.92 114.688-115.712 80.384-140.288 36.864v128h679.936z" />
<glyph unicode="&#xe106;" glyph-name="uniE106" d="M870.4 518.656v-401.408l-231.424 200.704zM854.016 74.24h-684.032l247.808 215.040 94.208-81.92 94.208 81.92zM860.16 565.76l-348.16-302.080-348.16 302.080h696.32zM153.6 117.248v401.408l231.424-200.704z" />
<glyph unicode="&#xe107;" glyph-name="uniE107" d="M809.984 320l-575.488-332.8v665.6z" />
<glyph unicode="&#xe108;" glyph-name="uniE108" d="M442.368-7.68h-201.728v655.36h201.728v-655.36zM783.36-7.68h-201.728v655.36h201.728v-655.36z" />
<glyph unicode="&#xe109;" glyph-name="uniE109" d="M787.456 391.68l-224.256 163.84v-106.496h-25.6q-62.464 0-114.688-23.552t-87.552-64.512-51.712-95.232-6.144-115.712q4.096-26.624 14.336-53.248 2.048-5.12 7.68-4.608t6.656 6.656q6.144 46.080 28.16 86.528t55.808 69.632 76.288 46.080 90.624 16.896h6.144v-96.256zM844.8 652.8v-665.6h-665.6v665.6h665.6z" />
<glyph unicode="&#xe10a;" glyph-name="uniE10A" d="M629.76 387.584h-70.656v37.888q0 15.36 5.12 23.040t25.6 7.68h38.912v76.8h-61.44q-55.296 0-77.312-26.112t-22.016-73.216v-46.080h-46.080v-75.776h46.080v-222.208h91.136v222.208h61.44zM844.8 652.8v-665.6h-665.6v665.6h665.6z" />
<glyph unicode="&#xe10b;" glyph-name="uniE10B" d="M286.72 472.576l194.56 178.176v-661.504l-194.56 178.176h-184.32v305.152h184.32z" />
<glyph unicode="&#xe10c;" glyph-name="uniE10C" d="M688.128 384.512q26.624 17.408 46.080 47.104-26.624-11.264-52.224-14.336 28.672 17.408 39.936 50.176-14.336-8.192-28.16-13.824t-30.208-8.704q-12.288 14.336-29.184 22.016t-36.352 7.68q-38.912 0-65.536-26.624t-26.624-64.512q0-5.12 0.512-10.752t1.536-10.752q-57.344 3.072-105.472 28.672t-81.92 66.56q-12.288-20.48-12.288-46.080 0-23.552 11.264-43.52t28.672-32.256q-22.528 2.048-40.96 12.288v-2.048q0-32.768 20.48-57.344t52.224-31.744q-11.264-3.072-23.552-3.072h-9.216t-8.192 2.048q8.192-27.648 31.744-45.568t53.248-17.92q-23.552-18.432-51.712-28.672t-60.928-10.24h-10.752t-10.752 1.024q61.44-40.96 139.264-40.96 62.464 0 111.104 23.552t81.92 60.928 50.176 83.456 16.896 91.136q0 8.192-1.024 12.288zM844.8 652.8v-665.6h-665.6v665.6h665.6z" />
<glyph unicode="&#xe10d;" glyph-name="uniE10D" d="M802.816 320l118.784-118.784-67.584-67.584-118.784 118.784-119.808-118.784-67.584 67.584 119.808 118.784-119.808 118.784 67.584 67.584 119.808-118.784 118.784 118.784 67.584-67.584zM286.72 472.576l194.56 178.176v-661.504l-194.56 178.176h-184.32v305.152h184.32z" />
<glyph unicode="&#xe10e;" glyph-name="uniE10E" d="M549.888 397.824l46.080 46.080 41.984-37.888-48.128-48.128 19.456-19.456 130.048 129.024-79.872 79.872-129.024-130.048zM474.112 242.176l-45.056-45.056-44.032 35.84 49.152 49.152-19.456 19.456-130.048-129.024 79.872-79.872 129.024 130.048zM549.888 317.952l-35.84-35.84 60.416-59.392-209.92-209.92-159.744 159.744 209.92 209.92 59.392-60.416 35.84 35.84-60.416 59.392 209.92 209.92 159.744-159.744-209.92-209.92z" />
<glyph unicode="&#xe10f;" glyph-name="uniE10F" d="M599.040 320l220.16-220.16-87.040-87.040-220.16 220.16-220.16-220.16-87.040 87.040 220.16 220.16-220.16 220.16 87.040 87.040 220.16-220.16 220.16 220.16 87.040-87.040z" />
<glyph unicode="&#xe110;" glyph-name="uniE110" d="M656.384 342.528q16.384-9.216 16.384-22.528t-16.384-22.528l-195.584-112.64q-15.36-9.216-26.624-2.56t-11.264 25.088v225.28q0 18.432 11.264 25.088t26.624-2.56l195.584-112.64zM512 13.824q63.488 0 119.296 24.064t97.28 65.536 65.536 97.28 24.064 119.296-24.064 119.296-65.536 97.28-97.28 65.536-119.296 24.064-119.296-24.064-97.28-65.536-65.536-97.28-24.064-119.296 24.064-119.296 65.536-97.28 97.28-65.536 119.296-24.064zM512 678.4q73.728 0 139.264-28.16t114.176-76.8 76.8-114.176 28.16-139.264-28.16-139.264-76.8-114.176-114.176-76.8-139.264-28.16-139.264 28.16-114.176 76.8-76.8 114.176-28.16 139.264 28.16 139.264 76.8 114.176 114.176 76.8 139.264 28.16z" />
<glyph unicode="&#xe111;" glyph-name="uniE111" d="M641.024 678.4l100.352-101.376-257.024-257.024 257.024-257.024-100.352-101.376-358.4 358.4z" />
<glyph unicode="&#xe112;" glyph-name="uniE112" d="M741.376 320l-358.4-358.4-100.352 101.376 257.024 257.024-257.024 257.024 100.352 101.376z" />
<glyph unicode="&#xe113;" glyph-name="_46" d="M768 64h-512v512h512v-512z" />
<glyph unicode="&#xe114;" glyph-name="_47" d="M512-38.4q-73.728 0-139.264 28.16t-114.176 76.8-76.8 114.176-28.16 139.264 28.16 139.264 76.8 114.176 114.176 76.8 139.264 28.16 139.264-28.16 114.176-76.8 76.8-114.176 28.16-139.264-28.16-139.264-76.8-114.176-114.176-76.8-139.264-28.16zM512 629.248q-63.488 0-119.808-24.576t-98.304-66.56-66.56-98.304-24.576-119.808 24.576-119.808 66.56-98.304 98.304-66.56 119.808-24.576 119.808 24.576 98.304 66.56 66.56 98.304 24.576 119.808-24.576 119.808-66.56 98.304-98.304 66.56-119.808 24.576zM680.96 320l-254.976-147.456v294.912z" />
<glyph unicode="&#xe115;" glyph-name="_48" d="M512-38.4q-73.728 0-139.264 28.16t-114.176 76.8-76.8 114.176-28.16 139.264 28.16 139.264 76.8 114.176 114.176 76.8 139.264 28.16 139.264-28.16 114.176-76.8 76.8-114.176 28.16-139.264-28.16-139.264-76.8-114.176-114.176-76.8-139.264-28.16zM512 629.248q-63.488 0-119.808-24.576t-98.304-66.56-66.56-98.304-24.576-119.808 24.576-119.808 66.56-98.304 98.304-66.56 119.808-24.576 119.808 24.576 98.304 66.56 66.56 98.304 24.576 119.808-24.576 119.808-66.56 98.304-98.304 66.56-119.808 24.576zM483.328 183.808h-83.968v272.384h83.968v-272.384zM624.64 183.808h-83.968v272.384h83.968v-272.384z" />
<glyph unicode="&#xe116;" glyph-name="_49" d="M521.216 329.216l115.712 432.128 316.416-316.416zM502.784 310.784l-115.712-432.128-316.416 316.416z" />
<glyph unicode="&#xe201;" glyph-name="uniE201" d="M661.504 54.784q0 1.024-0.512 1.536t-0.512 1.536l-147.456 253.952q0 1.024-1.024 2.048 0-1.024-0.512-1.024t-0.512-1.024l-147.456-253.952q0-2.048-1.024-3.072h299.008zM701.44 81.408q17.408-30.72 5.12-52.736t-48.128-22.016h-292.864q-35.84 0-48.128 22.016t5.12 52.736l146.432 253.952q18.432 30.72 43.008 30.72t43.008-30.72zM809.984 592.384q24.576 0 42.496-17.92t17.92-43.52v-370.688q0-24.576-17.92-42.496t-42.496-17.92h-63.488l-3.072 6.144-24.576 41.984h91.136q12.288 0 12.288 12.288v370.688q0 13.312-12.288 13.312h-595.968q-5.12 0-8.704-4.096t-3.584-9.216v-370.688q0-5.12 3.584-8.704t8.704-3.584h91.136l-24.576-41.984-3.072-6.144h-63.488q-24.576 0-42.496 17.92t-17.92 42.496v370.688q0 25.6 17.92 43.52t42.496 17.92h595.968z" />
<glyph unicode="&#xe202;" glyph-name="uniE202" d="M844.8 619.008v-2.048l-28.672-261.12q-2.048-12.288-10.752-20.48t-20.992-8.192h-4.096q-13.312 2.048-22.016 11.776t-6.656 24.064l18.432 168.96-185.344-185.344q-9.216-9.216-22.528-9.216t-23.552 9.216q-9.216 10.24-9.216 23.552t9.216 22.528l185.344 185.344-168.96-18.432q-14.336-2.048-24.064 6.656t-11.776 22.016q-2.048 14.336 6.144 24.064t22.528 11.776l262.144 28.672h7.168q1.024-1.024 4.096-1.024 1.024-1.024 2.048-1.024 2.048-1.024 2.56-1.024t2.56-1.024l1.024-1.024q2.048-1.024 3.072-2.048t3.072-2.048q1.024-2.048 4.096-5.12 0-1.024 1.024-2.048l2.048-4.096q0-2.048 1.024-3.072 0-2.048 1.024-4.096v-6.144zM468.992 80.384q14.336 2.048 24.064-6.656t11.776-22.016q2.048-14.336-6.144-24.064t-22.528-11.776l-261.12-28.672h-3.072q-14.336 0-23.552 9.216t-9.216 23.552v3.072l28.672 261.12q2.048 14.336 11.776 22.528t24.064 6.144q13.312-2.048 22.016-11.776t6.656-24.064l-18.432-168.96 185.344 185.344q9.216 9.216 22.528 9.216t23.552-9.216q9.216-9.216 9.216-23.040t-9.216-23.040l-185.344-185.344 168.96 18.432z" />
<glyph unicode="&#xe203;" glyph-name="uniE203" d="M826.368 693.76q6.144-20.48-4.096-38.912l-340.992-615.424q-13.312-24.576-40.96-26.624h-3.072q-25.6 0-40.96 21.504l-161.792 297.984q-11.264 17.408-8.192 37.888 5.12 21.504 21.504 31.744 16.384 13.312 36.864 8.192 20.48-3.072 32.768-20.48l114.688-220.16 302.080 533.504q11.264 18.432 30.72 24.576t37.888-4.096 23.552-29.696z" />
<glyph unicode="&#xe204;" glyph-name="uniE204" d="M791.552 190.976q1.024 12.288-7.168 24.576-10.24 10.24-23.552 10.24h-6.144q-22.528 0-37.888-17.408-30.72-35.84-78.848-32.768-35.84 2.048-62.464 28.16t-28.672 61.952q-3.072 43.008 25.6 73.728 14.336 14.336 32.768 22.528t38.912 8.192 39.936-8.192 33.792-24.576q14.336-17.408 36.864-17.408h6.144q14.336 0 23.552 11.264 8.192 8.192 8.192 23.552l-18.432 165.888-106.496-14.336q-12.288-2.048-25.6 2.048t-23.552 13.312q-17.408 14.336-17.408 33.792 0 11.264 7.68 19.968t15.872 14.848l3.072 3.072q23.552 20.48 23.552 53.248 0 28.672-19.968 49.152t-49.664 20.48h-1.024q-27.648 0-48.128-19.968t-21.504-47.616q-1.024-16.384 5.632-30.72t17.92-24.576l3.072-3.072q8.192-6.144 15.872-14.848t7.68-19.968v-1.024q0-19.456-16.384-33.792-10.24-9.216-23.552-13.824t-25.6-2.56l-133.12 16.384 15.36-149.504q3.072-32.768-19.456-57.344-17.408-20.48-41.984-20.48h-1.024q-13.312 0-23.552 8.704t-18.432 16.896l-2.048 2.048q-21.504 22.528-53.248 22.528-28.672-1.024-48.64-21.504t-19.968-50.176q1.024-28.672 21.504-49.152t49.152-20.48q30.72 0 51.2 22.528l2.048 2.048q8.192 8.192 18.432 16.896t23.552 8.704q24.576 0 43.008-20.48 11.264-11.264 16.384-27.136t3.072-30.208l-15.36-128h411.648l17.408 144.384zM760.832 262.656q30.72 0 51.2-22.528 19.456-24.576 16.384-53.248l-18.432-156.672q-1.024-9.216-7.68-15.36t-15.872-6.144h-439.296q-11.264 0-17.408 8.192-8.192 8.192-6.144 18.432l17.408 143.36q2.048 15.36-10.24 28.672-2.048 2.048-5.632 5.12t-8.704 3.072q-3.072-1.024-16.384-14.336l-2.048-2.048q-31.744-33.792-77.824-33.792-21.504 0-40.96 8.192t-34.304 23.040-23.552 34.304-8.704 40.96 7.68 40.96 22.016 34.304 33.792 23.552 40.96 9.728h3.072q46.080 0 77.824-33.792l2.048-2.048q13.312-13.312 16.384-14.336 5.12 0 8.704 3.072t5.632 5.12q12.288 13.312 10.24 28.672l-17.408 166.912q-2.048 10.24 7.168 19.456 6.144 6.144 16.384 6.144h3.072l149.504-18.432h2.048q9.216 0 18.432 7.168 3.072 3.072 3.072 5.12l-3.072 3.072t-6.144 5.12q-1.024 2.048-2.048 2.56t-2.048 1.536q-17.408 15.36-27.136 37.376t-9.728 46.592q1.024 21.504 9.728 40.448t23.040 33.28 33.792 22.528 40.96 8.192h2.048q21.504 0 40.96-8.704t33.792-23.552 22.528-34.304 8.192-40.96q0-49.152-35.84-81.92-2.048-1.024-4.096-3.072-8.192-7.168-9.216-8.192l4.096-4.096q6.144-6.144 17.408-6.144h2.048l120.832 16.384h3.072q9.216 0 14.336-4.096 7.168-6.144 9.216-16.384l19.456-180.224q3.072-30.72-17.408-53.248t-51.2-22.528h-6.144q-38.912 0-65.536 29.696-17.408 20.48-45.056 20.48-26.624 0-44.032-19.456-18.432-18.432-16.384-45.056 2.048-23.552 17.92-38.912t38.4-17.408h4.096q27.648 0 45.056 20.48 27.648 29.696 65.536 29.696h6.144z" />
<glyph unicode="&#xe205;" glyph-name="uniE205" d="M169.984 157.184q39.936-7.168 68.608-35.84t34.816-67.584q2.048-8.192-3.584-15.36t-13.824-7.168h-89.088q-8.192 0-13.312 5.632t-5.12 13.824v88.064q0 8.192 6.656 14.336t14.848 4.096zM165.888 270.848q46.080 0 86.016-17.408t70.144-47.616 47.616-70.144 17.408-86.016q0-9.216-6.656-15.872t-15.872-6.656q-10.24 0-16.896 6.656t-6.656 15.872q0 35.84-13.824 67.584t-37.376 55.808-55.296 37.888-68.608 13.824q-9.216 0-15.872 6.656t-6.656 15.872q0 10.24 6.656 16.896t15.872 6.656zM165.888 386.56q69.632 0 131.072-26.624t107.008-72.192 72.192-107.008 26.624-131.072q0-9.216-6.656-15.872t-15.872-6.656q-10.24 0-16.896 6.656t-6.656 15.872q0 60.416-23.040 113.152t-62.464 92.16-92.16 62.464-113.152 23.040q-9.216 0-15.872 6.656t-6.656 16.896q0 9.216 6.656 15.872t15.872 6.656zM778.24 571.904q33.792 0 57.856-23.552t24.064-58.368v-324.608q0-33.792-24.064-57.344t-57.856-23.552h-215.040q-2.048 23.552-6.144 45.056h221.184q15.36 0 25.6 10.752t10.24 25.088v324.608q0 15.36-10.24 26.112t-25.6 10.752h-499.712q-15.36 0-25.6-10.752t-10.24-26.112v-49.152q-23.552 4.096-46.080 6.144v43.008q0 34.816 24.064 58.368t57.856 23.552h499.712z" />
<glyph unicode="&#xe206;" glyph-name="uniE206" d="M784.384 117.248h4.096l-198.656 172.032-17.408-15.36q-25.6-22.528-60.416-22.528t-60.416 22.528l-17.408 15.36-198.656-172.032h548.864zM401.408 317.952l-202.752 176.128q-1.024-4.096-1.536-7.168t-0.512-7.168v-319.488q0-10.24 3.072-17.408zM239.616 522.752h-8.192l248.832-217.088q14.336-11.264 31.744-11.264t31.744 11.264l248.832 217.088h-552.96zM827.392 479.744q0 4.096-0.512 7.168t-1.536 7.168l-202.752-176.128 201.728-175.104q3.072 7.168 3.072 17.408v319.488zM784.384 565.76q17.408 0 33.28-6.656t27.648-18.432 18.432-27.136 6.656-33.792v-319.488q0-18.432-6.656-33.792t-18.432-27.136-27.648-18.432-33.28-6.656h-544.768q-17.408 0-33.28 6.656t-27.648 18.432-18.432 27.136-6.656 33.792v319.488q0 18.432 6.656 33.792t18.432 27.136 27.648 18.432 33.28 6.656h544.768z" />
<glyph unicode="&#xe207;" glyph-name="uniE207" d="M305.152-12.8q-22.528 0-39.936 10.24-44.032 25.6-44.032 92.16v460.8q0 66.56 44.032 92.16 43.008 25.6 101.376-8.192l399.36-230.4q57.344-33.792 57.344-83.968t-57.344-83.968l-399.36-230.4q-32.768-18.432-61.44-18.432zM305.152 614.912q-11.264 0-21.504-5.12-24.576-14.336-24.576-59.392v-460.8q0-21.504 6.144-36.864t18.432-22.528q25.6-14.336 63.488 8.192l399.36 230.4q38.912 21.504 38.912 51.2t-38.912 51.2l-399.36 230.4q-22.528 13.312-41.984 13.312z" />
<glyph unicode="&#xe208;" glyph-name="uniE208" d="M350.208-7.68q-23.552 0-44.032 8.704t-35.84 24.064-24.064 35.84-8.704 44.032v430.080q0 23.552 8.704 44.032t24.064 35.84 35.84 24.064 44.032 8.704q22.528 0 43.008-8.704t35.84-24.064 24.064-35.84 8.704-44.032v-430.080q0-23.552-8.704-44.032t-24.064-35.84-35.84-24.064-43.008-8.704zM350.208 614.912q-32.768 0-56.32-23.552t-23.552-56.32v-430.080q0-32.768 23.552-56.32t56.32-23.552q16.384 0 30.72 6.144t25.088 16.896 16.896 25.6 6.144 31.232v430.080q0 16.384-6.144 31.232t-16.896 25.6-25.088 16.896-30.72 6.144zM673.792-7.68q-23.552 0-43.52 8.704t-35.328 24.064-24.064 35.84-8.704 44.032v430.080q0 23.552 8.704 44.032t24.064 35.84 35.328 24.064 43.52 8.704 44.032-8.704 35.84-24.064 24.064-35.84 8.704-44.032v-430.080q0-23.552-8.704-44.032t-24.064-35.84-35.84-24.064-44.032-8.704zM673.792 614.912q-16.384 0-30.72-6.144t-25.088-16.896-16.896-25.6-6.144-31.232v-430.080q0-16.384 6.144-31.232t16.896-25.6 25.088-16.896 30.72-6.144q32.768 0 56.32 23.552t23.552 56.32v430.080q0 32.768-23.552 56.32t-56.32 23.552z" />
<glyph unicode="&#xe209;" glyph-name="uniE209" d="M799.744 583.168q0 10.24-7.168 17.408t-17.408 7.168h-526.336q-10.24 0-17.408-7.168t-7.168-17.408v-526.336q0-10.24 7.168-17.408t17.408-7.168h526.336q10.24 0 17.408 7.168t7.168 17.408v526.336zM775.168 652.8q28.672 0 49.152-20.48t20.48-49.152v-526.336q0-28.672-20.48-49.152t-49.152-20.48h-526.336q-28.672 0-49.152 20.48t-20.48 49.152v526.336q0 28.672 20.48 49.152t49.152 20.48h526.336zM739.328 418.304q9.216-6.144 9.216-17.408t-9.216-17.408l-175.104-139.264q-7.168-5.12-13.312-5.12-11.264 0-17.408 8.192t-5.12 17.408 8.192 14.336l124.928 99.328h-114.688q-33.792 0-69.632-10.24t-65.024-38.912-47.616-79.36-18.432-131.584q0-9.216-6.144-15.872t-16.384-6.656q-9.216 0-15.36 6.656t-6.144 15.872q0 146.432 63.488 225.792t181.248 79.36h114.688l-124.928 98.304q-7.168 6.144-8.192 15.36t5.12 16.384q5.12 8.192 14.336 8.704t16.384-4.608l175.104-139.264z" />
<glyph unicode="&#xe20a;" glyph-name="uniE20A" d="M545.792 401.92h71.68l-9.216-76.8h-62.464v-225.28h-92.16v225.28h-47.104v76.8h47.104v47.104q0 48.128 22.016 74.24t78.336 26.112h62.464v-77.824h-38.912q-21.504 0-26.624-7.68t-5.12-23.040v-38.912zM512 3.584q65.536 0 122.88 25.088t100.352 68.096 68.096 100.352 25.088 122.88-25.088 122.88-68.096 100.352-100.352 68.096-122.88 25.088-122.88-25.088-100.352-68.096-68.096-100.352-25.088-122.88 25.088-122.88 68.096-100.352 100.352-68.096 122.88-25.088zM512 678.4q73.728 0 139.264-28.16t114.176-76.8 76.8-114.176 28.16-139.264-28.16-139.264-76.8-114.176-114.176-76.8-139.264-28.16-139.264 28.16-114.176 76.8-76.8 114.176-28.16 139.264 28.16 139.264 76.8 114.176 114.176 76.8 139.264 28.16z" />
<glyph unicode="&#xe20b;" glyph-name="uniE20B" d="M518.144 570.88q0 8.192-4.096 12.288t-6.144 5.12-7.68 1.536-11.776-4.608l-145.408-129.024h-64.512q-28.672 0-54.272-10.24t-44.544-28.672-30.208-43.52-11.264-53.76 10.24-54.272 28.672-44.544 43.52-30.208 53.76-11.264l65.536-1.024 142.336-132.096q5.12-6.144 11.264-5.632t8.192 1.536 6.144 5.12 5.12 12.288zM522.24 620.032q14.336-6.144 23.040-19.456t8.704-29.696l-6.144-512q0-34.816-32.768-48.128-12.288-5.12-21.504-5.12-19.456 0-35.84 14.336l-132.096 123.904h-51.2q-35.84 0-67.584 14.336t-54.784 37.888-36.352 55.808-13.312 68.096 14.336 67.584 37.888 54.784 55.808 36.352 68.096 13.312h51.2l135.168 119.808q11.264 11.264 27.136 13.312t30.208-5.12z" />
<glyph unicode="&#xe20c;" glyph-name="uniE20C" d="M512 3.584q65.536 0 122.88 25.088t100.352 68.096 68.096 100.352 25.088 122.88-25.088 122.88-68.096 100.352-100.352 68.096-122.88 25.088-122.88-25.088-100.352-68.096-68.096-100.352-25.088-122.88 25.088-122.88 68.096-100.352 100.352-68.096 122.88-25.088zM512 678.4q73.728 0 139.264-28.16t114.176-76.8 76.8-114.176 28.16-139.264-28.16-139.264-76.8-114.176-114.176-76.8-139.264-28.16-139.264 28.16-114.176 76.8-76.8 114.176-28.16 139.264 28.16 139.264 76.8 114.176 114.176 76.8 139.264 28.16zM699.392 449.024q-10.24-29.696-34.816-44.032 24.576 3.072 46.080 12.288-8.192-11.264-18.432-22.016t-21.504-18.944v-10.24q0-38.912-14.848-78.336t-43.008-71.68-70.144-52.736-96.256-20.48q-65.536 0-119.808 34.816 5.12-1.024 9.216-1.024h9.216q55.296 0 97.28 33.792-25.6 0-45.568 15.36t-27.136 38.912q4.096-1.024 14.336-1.024 11.264 0 20.48 3.072-26.624 5.12-44.544 26.624t-17.92 50.176v1.024q14.336-8.192 34.816-10.24-15.36 11.264-25.088 28.16t-9.728 37.376q0 22.528 11.264 39.936 29.696-35.84 71.168-57.856t90.624-24.064q-2.048 10.24-2.048 17.408 0 32.768 23.040 55.808t55.808 23.040q34.816 0 57.344-24.576 14.336 2.048 26.624 7.168t23.552 12.288z" />
<glyph unicode="&#xe20d;" glyph-name="uniE20D" d="M913.408 200.192q5.12-5.12 5.12-12.8t-5.12-12.8-12.288-5.12q-6.144 0-13.312 5.12l-109.568 112.64-111.616-109.568q-7.168-5.12-13.312-5.12-5.12 0-12.288 5.12-5.12 5.12-4.608 12.8t5.632 12.8l111.616 109.568-109.568 111.616q-5.12 5.12-5.12 12.8t5.12 12.8 12.8 5.12 12.8-5.12l109.568-112.64 112.64 109.568q5.12 5.12 12.288 5.12t12.288-5.12 5.12-12.8-5.12-12.8l-112.64-109.568zM518.144 570.88q0 8.192-4.096 12.288t-6.144 5.12-7.68 1.536-11.776-4.608l-145.408-129.024h-64.512q-28.672 0-54.272-10.24t-44.544-28.672-30.208-43.52-11.264-53.76 10.24-54.272 28.672-44.544 43.52-30.208 53.76-11.264l65.536-1.024 142.336-132.096q5.12-6.144 11.264-5.632t8.192 1.536 6.144 5.12 5.12 12.288zM522.24 620.032q14.336-6.144 23.040-19.456t8.704-29.696l-6.144-512q0-34.816-32.768-48.128-12.288-5.12-21.504-5.12-19.456 0-35.84 14.336l-132.096 123.904h-51.2q-35.84 0-67.584 14.336t-54.784 37.888-36.352 55.808-13.312 68.096 14.336 67.584 37.888 54.784 55.808 36.352 68.096 13.312h51.2l135.168 119.808q11.264 11.264 27.136 13.312t30.208-5.12z" />
<glyph unicode="&#xe20e;" glyph-name="uniE20E" d="M749.568 443.904q11.264 11.264 16.896 26.112t5.632 30.208-5.632 30.208-16.896 27.136q-11.264 11.264-26.624 17.408t-30.72 6.144q-32.768 0-56.32-23.552l-61.44-61.44q-19.456-19.456-22.528-45.568t9.216-48.64l37.888 37.888q7.168 7.168 16.384 7.168t16.384-7.168q7.168-6.144 7.168-15.872t-7.168-16.896l-37.888-37.888q22.528-12.288 48.64-9.216t45.568 22.528l61.44 61.44zM449.536 143.872q19.456 19.456 22.528 45.568t-9.216 49.664l-37.888-38.912q-7.168-7.168-16.384-7.168-10.24 0-16.384 7.168-7.168 7.168-7.168 16.384t7.168 16.384l37.888 37.888q-16.384 10.24-37.888 10.24-32.768 0-56.32-23.552l-61.44-61.44q-11.264-11.264-17.408-26.112t-6.144-30.208 6.144-30.208 17.408-27.136q12.288-11.264 27.136-17.408t30.208-6.144 30.208 6.144 26.112 17.408l61.44 61.44zM782.336 590.336q18.432-18.432 27.648-41.984t9.216-47.616-9.216-47.616-27.648-41.984l-61.44-61.44q-18.432-18.432-41.984-27.648t-47.104-9.216q-39.936 0-71.68 22.528l-63.488-63.488q12.288-18.432 17.92-39.424t4.096-42.496-10.752-41.984-25.6-36.864l-61.44-61.44q-18.432-18.432-41.984-27.648t-47.104-9.216q-24.576 0-48.128 9.216t-41.984 27.648-27.648 41.984-9.216 47.616 9.216 47.616 27.648 41.984l61.44 61.44q16.384 16.384 36.864 25.6t41.984 10.752 42.496-4.096 39.424-17.92l63.488 63.488q-12.288 18.432-17.92 39.424t-4.096 42.496 10.752 41.984 25.6 36.864l61.44 61.44q18.432 18.432 41.984 27.648t47.616 9.216 47.616-9.216 41.984-27.648z" />
<glyph unicode="&#xe20f;" glyph-name="uniE20F" d="M811.008 62.976q8.192-8.192 8.192-20.48t-8.192-21.504q-10.24-8.192-21.504-8.192-12.288 0-20.48 8.192l-257.024 257.024-257.024-257.024q-8.192-8.192-20.48-8.192-11.264 0-21.504 8.192-8.192 9.216-8.192 21.504t8.192 20.48l257.024 257.024-257.024 257.024q-8.192 8.192-8.192 20.48t8.192 21.504q9.216 8.192 21.504 8.192t20.48-8.192l257.024-257.024 257.024 257.024q8.192 8.192 20.48 8.192t21.504-8.192q8.192-9.216 8.192-21.504t-8.192-20.48l-257.024-257.024z" />
<glyph unicode="&#xe210;" glyph-name="uniE210" d="M166.912 383.488q-6.144 2.048-10.24 2.048-12.288 0-12.288-13.312v-9.216h19.456v-21.504h-19.456v-74.752h-26.624v74.752h-15.36v21.504h15.36v11.264q0 16.384 9.216 25.088t24.576 8.704q7.168 0 15.36-2.048v-22.528zM202.752 266.752h-26.624v139.264h26.624v-139.264zM258.048 264.704q-20.48 0-33.792 13.824t-13.312 36.352 13.312 36.352 33.792 13.824 33.792-13.824 13.312-36.352-13.312-36.352-33.792-13.824zM258.048 342.528q-10.24 0-15.36-7.68t-5.12-19.968q0-11.264 5.12-19.456t15.36-8.192 15.36 8.192 5.12 19.456q0 12.288-5.12 19.968t-15.36 7.68zM398.336 301.568l17.408 61.44h25.6l-28.672-96.256h-24.576l-15.36 59.392-16.384-59.392h-24.576l-28.672 96.256h26.624l17.408-61.44 15.36 61.44h20.48zM474.112 231.936h-26.624v131.072h26.624v-8.192q3.072 4.096 9.216 7.168t14.336 3.072q20.48 0 32.256-14.848t11.776-35.328-11.776-35.328-32.256-14.848q-8.192 0-14.336 3.072t-9.216 7.168v-43.008zM474.112 299.52q5.12-11.264 17.408-11.264 11.264 0 16.896 7.68t5.632 18.944-5.632 18.944-16.896 7.68q-12.288 0-17.408-11.264v-30.72zM576.512 266.752h-26.624v139.264h26.624v-139.264zM644.096 266.752v5.12q-8.192-6.144-23.552-6.144-14.336 0-25.088 8.192t-10.752 22.528 10.752 22.528 26.112 8.192q14.336 0 22.528-6.144v7.168q0 6.144-4.096 10.752t-12.288 4.608q-9.216 0-13.312-9.216h-25.6q2.048 13.312 12.8 22.016t27.136 8.704q19.456 0 29.696-9.728t10.24-27.136v-61.44h-24.576zM644.096 300.544q-5.12 8.192-17.408 8.192-7.168 0-12.288-3.072t-5.12-9.216 5.12-8.704 12.288-2.56q12.288 0 17.408 8.192v7.168zM693.248 231.936l14.336 34.816-36.864 96.256h27.648l22.528-63.488 21.504 63.488h26.624l-50.176-131.072h-25.6zM855.040 298.496q-3.072-15.36-13.824-24.576t-29.184-9.216q-20.48 0-33.28 13.824t-12.8 36.352q0 21.504 12.8 35.84t33.28 14.336 31.744-13.312 11.264-34.816v-7.168h-63.488q2.048-23.552 20.48-23.552 15.36 0 18.432 12.288h24.576zM792.576 325.12h36.864q0 8.192-4.608 13.312t-12.8 5.12q-16.384 0-19.456-18.432zM921.6 336.384q-6.144 3.072-13.312 3.072-15.36 0-18.432-13.312v-59.392h-26.624v96.256h26.624v-9.216q7.168 11.264 21.504 11.264 8.192 0 10.24-2.048v-26.624z" />
<glyph unicode="&#xe211;" glyph-name="uniE211" d="M326.656 346.624l320.512 320.512q10.24 10.24 24.576 11.264t24.576-8.192q11.264-10.24 11.776-25.088t-10.752-25.088l-299.008-300.032 297.984-297.984q10.24-10.24 11.264-24.064t-8.192-24.064q-11.264-12.288-25.6-12.288-15.36 0-24.576 10.24l-322.56 321.536q-11.264 11.264-11.264 26.624t11.264 26.624z" />
<glyph unicode="&#xe212;" glyph-name="uniE212" d="M697.344 346.624q11.264-11.264 11.264-26.624t-11.264-26.624l-322.56-321.536q-9.216-10.24-24.576-10.24t-25.6 12.288q-9.216 10.24-8.192 24.064t11.264 24.064l297.984 297.984-299.008 300.032q-11.264 10.24-10.752 25.088t11.776 25.088q10.24 9.216 24.576 8.192t24.576-11.264l320.512-320.512z" />
<glyph unicode="&#xe213;" glyph-name="_73" d="M742.4 320q0-48.128-17.92-89.6t-49.664-73.216-73.728-49.664-89.088-17.92q-48.128 0-89.6 17.92t-73.216 49.664-49.664 73.216-17.92 89.6q0 47.104 17.92 89.088t49.664 73.728 73.216 49.664 89.6 17.92q47.104 0 89.088-17.92t73.728-49.664 49.664-73.728 17.92-89.088z" />
<glyph unicode="&#xe214;" glyph-name="_74" d="M451.584 180.736q-9.216 0-16.384 4.096-18.432 10.24-18.432 38.912v192.512q0 27.648 18.432 38.912 18.432 9.216 41.984-3.072l167.936-97.28q23.552-12.288 23.552-34.816 0-20.48-23.552-34.816l-167.936-97.28q-11.264-7.168-25.6-7.168zM451.584 443.904q-5.12 0-8.192-3.072-10.24-4.096-10.24-24.576v-192.512q0-20.48 10.24-24.576 10.24-7.168 26.624 3.072l166.912 96.256q16.384 10.24 16.384 21.504t-16.384 21.504l-166.912 96.256q-11.264 6.144-18.432 6.144zM512-38.4q-73.728 0-139.264 28.16t-114.176 76.8-76.8 114.176-28.16 139.264 28.16 139.264 76.8 114.176 114.176 76.8 139.264 28.16 139.264-28.16 114.176-76.8 76.8-114.176 28.16-139.264-28.16-139.264-76.8-114.176-114.176-76.8-139.264-28.16zM512 663.040q-70.656 0-133.12-27.136t-109.056-73.728-73.728-109.056-27.136-133.12 27.136-133.12 73.728-109.056 109.056-73.728 133.12-27.136 133.12 27.136 109.056 73.728 73.728 109.056 27.136 133.12-27.136 133.12-73.728 109.056-109.056 73.728-133.12 27.136z" />
<glyph unicode="&#xe215;" glyph-name="_75" d="M512-38.4q-73.728 0-139.264 28.16t-114.176 76.8-76.8 114.176-28.16 139.264 28.16 139.264 76.8 114.176 114.176 76.8 139.264 28.16 139.264-28.16 114.176-76.8 76.8-114.176 28.16-139.264-28.16-139.264-76.8-114.176-114.176-76.8-139.264-28.16zM512 663.040q-70.656 0-133.12-27.136t-109.056-73.728-73.728-109.056-27.136-133.12 27.136-133.12 73.728-109.056 109.056-73.728 133.12-27.136 133.12 27.136 109.056 73.728 73.728 109.056 27.136 133.12-27.136 133.12-73.728 109.056-109.056 73.728-133.12 27.136zM440.32 176.64q-20.48 0-34.816 14.848t-14.336 35.328v189.44q0 20.48 14.336 34.816t34.816 14.336 35.328-14.336 14.848-34.816v-189.44q0-20.48-14.848-35.328t-35.328-14.848zM440.32 451.072q-14.336 0-24.576-10.24t-10.24-24.576v-189.44q0-14.336 10.24-25.088t24.576-10.752 25.088 10.752 10.752 25.088v189.44q0 14.336-10.752 24.576t-25.088 10.24zM583.68 176.64q-20.48 0-35.328 14.848t-14.848 35.328v189.44q0 20.48 14.848 34.816t35.328 14.336 34.816-14.336 14.336-34.816v-189.44q0-20.48-14.336-35.328t-34.816-14.848zM583.68 451.072q-14.336 0-25.088-10.24t-10.752-24.576v-189.44q0-14.336 10.752-25.088t25.088-10.752 24.576 10.752 10.24 25.088v189.44q0 14.336-10.24 24.576t-24.576 10.24z" />
<glyph unicode="&#xe216;" glyph-name="_76" d="M504.832 279.040v-2.048l-28.672-261.12q-1.024-12.288-10.24-20.48t-21.504-8.192h-3.072q-14.336 2.048-22.528 11.776t-7.168 24.064l18.432 168.96-185.344-184.32q-9.216-10.24-22.528-10.24t-22.528 10.24q-10.24 9.216-10.24 22.528t10.24 22.528l184.32 185.344-168.96-18.432q-13.312-1.024-23.552 7.168t-12.288 22.528q-2.048 13.312 6.656 23.552t22.016 11.264l262.144 28.672h7.168q2.048 0 2.56-0.512t2.56-0.512l2.048-1.024q2.048 0 4.096-2.048 1.024 0 2.048-1.024 2.048-1.024 5.12-4.096 2.048-2.048 2.56-3.072t1.536-2.048 1.024-2.048l2.048-4.096q0-1.024 0.512-1.536t0.512-1.536 0.512-1.536 0.512-2.56v-6.144zM808.96 420.352q14.336 1.024 24.064-7.168t11.776-22.528q2.048-13.312-6.656-23.552t-22.016-11.264l-261.12-28.672h-4.096q-13.312 0-22.528 9.216t-9.216 22.528v4.096l28.672 261.12q1.024 13.312 11.264 22.016t23.552 6.656q14.336-2.048 23.040-11.776t6.656-24.064l-18.432-168.96 185.344 185.344q9.216 9.216 22.528 9.216t23.552-9.216q9.216-10.24 9.216-23.552t-9.216-22.528l-185.344-185.344 168.96 18.432z" />
<glyph unicode="&#xe301;" glyph-name="uniE301" d="M663.552 52.736l-146.432 252.928-145.408-252.928h291.84zM517.12 400.896l229.376-396.288h-457.728zM870.4 585.216v-492.544h-119.808l-27.648 48.128h99.328v396.288h-620.544v-396.288h110.592l-28.672-48.128h-130.048v492.544h716.8z" />
<glyph unicode="&#xe302;" glyph-name="uniE302" d="M844.8 648.704l-33.792-313.344-66.56 7.168 18.432 176.128-192.512-191.488-47.104 47.104 192.512 192.512-176.128-19.456-7.168 67.584zM500.736 256.512l-192.512-191.488 176.128 18.432 7.168-66.56-312.32-33.792 33.792 312.32 66.56-7.168-18.432-176.128 192.512 192.512z" />
<glyph unicode="&#xe303;" glyph-name="uniE303" d="M814.080 685.568l-391.168-676.864-212.992 337.92 77.824 47.104 126.976-204.8 316.416 546.816z" />
<glyph unicode="&#xe304;" glyph-name="uniE304" d="M791.552 498.176h-166.912v84.992l6.144 4.096q35.84 21.504 35.84 62.464 0 29.696-21.504 50.688t-51.2 20.992-50.688-20.992-20.992-50.688q0-41.984 34.816-62.464l7.168-4.096v-84.992h-196.608v-202.752h-78.848l-4.096 7.168q-9.216 17.408-25.6 26.112t-35.84 8.704q-29.696 0-51.2-20.992t-21.504-50.688 21.504-51.2 51.2-21.504q19.456 0 35.84 9.216t25.6 25.6l4.096 7.168h78.848v-202.752h423.936v175.104h-51.2q-14.336-20.48-35.84-31.232t-46.080-10.752q-41.984 0-71.168 29.184t-29.184 71.168 29.184 71.168 71.168 29.184q24.576 0 46.080-11.264t35.84-30.72h51.2v174.080zM829.44 536.064v-249.856h-109.568l-3.072 4.096-4.096 7.168q-8.192 14.336-22.528 22.528t-31.744 8.192q-25.6 0-44.032-18.432t-18.432-44.032q0-26.624 18.432-44.544t44.032-17.92q35.84 0 54.272 29.696l4.096 7.168 3.072 5.12h109.568v-250.88h-499.712v202.752h-20.48q-15.36-20.48-37.888-31.232t-48.128-10.752q-23.552 0-43.52 8.704t-34.816 23.552-23.552 34.816-8.704 43.52q0 22.528 8.704 42.496t23.552 35.328 34.816 24.064 43.52 8.704q25.6 0 48.128-11.264t37.888-31.744h20.48v202.752h195.584v26.624q-19.456 15.36-30.72 38.4t-11.264 48.64q0 22.528 8.704 42.496t24.064 34.816 35.328 23.552 42.496 8.704 43.008-8.704 35.328-23.552 23.552-34.816 8.704-42.496q0-25.6-10.752-48.64t-31.232-38.4v-26.624h166.912z" />
<glyph unicode="&#xe305;" glyph-name="uniE305" d="M143.36 138.752q23.552 0 44.032-9.216t35.84-24.576 24.576-35.84 9.216-44.032h-113.664v113.664zM143.36 253.44q47.104 0 88.576-17.92t72.704-49.152 49.152-72.704 17.92-88.576h-47.104q0 37.888-14.336 70.656t-38.912 57.344-57.856 38.912-70.144 14.336v47.104zM143.36 373.248q71.68 0 135.168-27.648t110.592-74.752 74.752-110.592 27.648-135.168h-47.104q0 62.464-23.552 117.248t-64.512 95.744-95.744 64.512-117.248 23.552v47.104zM860.16 564.736v-503.808h-306.176q-2.048 11.264-3.584 23.552t-3.584 23.552h266.24v409.6h-590.848v-88.064q-22.528 4.096-47.104 6.144v129.024h685.056z" />
<glyph unicode="&#xe306;" glyph-name="uniE306" d="M827.392 138.752v349.184l-200.704-175.104zM231.424 112.128h561.152l-198.656 173.056-81.92-71.68-81.92 71.68zM196.608 487.936v-349.184l200.704 174.080zM797.696 518.656h-571.392l285.696-248.832zM870.4 561.664v-492.544h-716.8v492.544h716.8z" />
<glyph unicode="&#xe307;" glyph-name="uniE307" d="M234.496-16.896v665.6l575.488-332.8zM266.24 593.408v-555.008l480.256 277.504z" />
<glyph unicode="&#xe308;" glyph-name="uniE308" d="M461.824-11.776h-224.256v655.36h224.256v-655.36zM270.336 20.992h158.72v589.824h-158.72v-589.824zM786.432-11.776h-224.256v655.36h224.256v-655.36zM594.944 20.992h158.72v589.824h-158.72v-589.824z" />
<glyph unicode="&#xe309;" glyph-name="uniE309" d="M795.648 599.552h-567.296v-568.32h567.296v568.32zM844.8 648.704v-665.6h-665.6v665.6h665.6zM537.6 379.392q-36.864 0-75.776-11.264t-70.656-42.496-51.712-86.528-19.968-143.36h-48.128q0 158.72 69.12 245.248t197.12 86.528h124.928l-136.192 107.52 30.72 38.912 214.016-171.008-214.016-169.984-29.696 37.888 135.168 108.544h-124.928z" />
<glyph unicode="&#xe30a;" glyph-name="uniE30A" d="M453.632 320h-47.104v77.824h47.104v46.080q0 48.128 22.016 74.752t78.336 26.624h62.464v-77.824h-38.912q-21.504 0-26.624-7.68t-5.12-23.040v-38.912h71.68l-9.216-77.824h-62.464v-224.256h-92.16v224.256zM828.416 631.296h-632.832v-631.808h632.832v631.808zM870.4 674.304v-716.8h-716.8v716.8h716.8z" />
<glyph unicode="&#xe30b;" glyph-name="uniE30B" d="M315.392 458.24h-177.152v-276.48h177.152l174.080-158.72v593.92zM302.080 494.080l222.208 203.776v-755.712l-222.208 203.776h-199.68v348.16h199.68z" />
<glyph unicode="&#xe30c;" glyph-name="uniE30C" d="M321.536 167.424q4.096-1.024 8.704-1.024h9.728q28.672 0 53.76 9.216t45.568 25.6q-26.624 0-46.592 15.872t-28.16 39.424q5.12-1.024 15.36-1.024h10.24t10.24 2.048q-27.648 6.144-45.568 27.648t-17.92 51.2v1.024q14.336-8.192 35.84-10.24-16.384 11.264-26.112 28.672t-9.728 37.888q0 22.528 11.264 39.936 29.696-35.84 72.192-58.368t92.672-24.576q-2.048 10.24-2.048 18.432 0 32.768 23.552 56.32t56.32 23.552q35.84 0 58.368-25.6 14.336 2.048 27.136 7.168t24.064 12.288q-9.216-28.672-35.84-44.032 25.6 3.072 47.104 12.288-8.192-11.264-18.432-22.016t-22.528-18.944q1.024-4.096 1.024-11.264 0-39.936-14.848-80.384t-44.032-73.216-71.68-53.248-97.792-20.48q-33.792 0-64.512 9.216t-57.344 26.624zM804.864 588.288h-585.728v-586.752h585.728v586.752zM844.8 628.224v-665.6h-665.6v665.6h665.6z" />
<glyph unicode="&#xe30d;" glyph-name="uniE30D" d="M795.648 320l125.952-125.952-24.576-25.6-126.976 126.976-125.952-126.976-24.576 25.6 125.952 125.952-125.952 125.952 24.576 25.6 125.952-126.976 126.976 126.976 24.576-25.6zM315.392 458.24h-177.152v-276.48h177.152l174.080-158.72v593.92zM302.080 494.080l222.208 203.776v-755.712l-222.208 203.776h-199.68v348.16h199.68z" />
<glyph unicode="&#xe30e;" glyph-name="uniE30E" d="M550.912 383.488l48.128 47.104 30.72-24.576-50.176-51.2 34.816-34.816 148.48 149.504-96.256 97.28-149.504-149.504zM472.064 248.32l-49.152-49.152-27.648 27.648 49.152 49.152-34.816 34.816-148.48-149.504 96.256-97.28 149.504 149.504zM551.936 327.168l-51.2-51.2 62.464-62.464-205.824-204.8-152.576 152.576 204.8 204.8 62.464-61.44 51.2 50.176-62.464 62.464 205.824 205.824 152.576-153.6-204.8-204.8z" />
<glyph unicode="&#xe30f;" glyph-name="uniE30F" d="M555.008 315.904l264.192-264.192-43.008-43.008-264.192 264.192-264.192-264.192-43.008 43.008 264.192 264.192-264.192 264.192 43.008 43.008 264.192-264.192 264.192 264.192 43.008-43.008z" />
<glyph unicode="&#xe310;" glyph-name="uniE310" d="M457.728 281.088q-14.336-8.192-24.064-2.56t-9.728 22.016v194.56q0 15.36 9.728 20.992t24.064-2.56l167.936-97.28q14.336-8.192 14.336-18.944t-14.336-18.944l-167.936-97.28zM500.736 660.992q-54.272 0-102.4-20.48t-83.968-56.32-56.32-83.968-20.48-102.4 20.48-102.4 56.32-83.968 83.968-56.832 102.4-20.992q55.296 0 103.424 20.992t83.968 56.832 56.32 83.968 20.48 102.4-20.48 102.4-56.32 83.968-83.968 56.32-103.424 20.48zM500.736 88.576q-63.488 0-119.808 24.064t-98.304 66.048-66.048 98.304-24.064 120.832q0 63.488 24.064 119.808t66.048 98.304 98.304 66.048 119.808 24.064q64.512 0 120.832-24.064t98.304-66.048 66.048-98.304 24.064-119.808q0-64.512-24.064-120.832t-66.048-98.304-98.304-66.048-120.832-24.064zM861.184 0.512q7.168 0 9.216-2.048v-22.528q-6.144 2.048-11.264 2.048-13.312 0-16.384-11.264v-52.224h-23.552v83.968h23.552v-8.192q7.168 10.24 18.432 10.24zM789.504-34.304q0 15.36-15.36 15.36-14.336 0-17.408-15.36h32.768zM774.144 0.512q18.432 0 28.16-11.776t9.728-30.208v-7.168h-55.296q2.048-19.456 18.432-19.456 12.288 0 15.36 10.24h21.504q-2.048-13.312-11.776-21.504t-25.088-8.192q-18.432 0-29.696 12.288t-11.264 31.744 11.264 31.744 28.672 12.288zM737.28-1.536l-44.032-114.688h-22.528l12.288 30.72-32.768 83.968h24.576l19.456-55.296 19.456 55.296h23.552zM626.688-56.832q-3.072 8.192-14.336 8.192-5.12 0-10.24-3.072t-5.12-8.192 5.12-7.68 10.24-2.56q11.264 0 14.336 8.192v5.12zM614.4 0.512q34.816 0 34.816-32.768v-53.248h-22.528v5.12q-4.096-6.144-19.456-6.144-13.312 0-22.528 6.656t-9.216 19.968q0 12.288 9.216 19.456t23.552 7.168q12.288 0 18.432-4.096v6.144q0 12.288-13.312 12.288-9.216 0-12.288-7.168h-21.504q2.048 11.264 11.264 18.944t23.552 7.68zM544.768 36.352h23.552v-121.856h-23.552v121.856zM494.592-67.072q9.216 0 14.336 6.656t5.12 16.896-5.12 16.896-14.336 6.656q-11.264 0-16.384-9.216v-27.648q5.12-10.24 16.384-10.24zM499.712 0.512q17.408 0 27.648-13.312t10.24-30.72-10.24-30.72-27.648-13.312q-7.168 0-12.8 3.072t-8.704 6.144v-37.888h-22.528v114.688h22.528v-7.168q7.168 9.216 21.504 9.216zM428.032-1.536h22.528l-25.6-83.968h-21.504l-13.312 51.2-14.336-51.2h-21.504l-24.576 83.968h22.528l15.36-53.248 13.312 53.248h18.432l13.312-53.248zM289.792-67.072q17.408 0 17.408 23.552 0 11.264-4.608 17.92t-12.8 6.656-13.312-6.656-5.12-17.92q0-23.552 18.432-23.552zM289.792 0.512q18.432 0 29.696-12.288t11.264-31.744-11.264-31.744-29.696-12.288-29.696 12.288-11.264 31.744 11.264 31.744 29.696 12.288zM218.112 36.352h23.552v-121.856h-23.552v121.856zM166.912 8.704q0 14.336 8.192 22.016t21.504 7.68q8.192 0 13.312-3.072v-19.456q-3.072 2.048-8.192 2.048-11.264 0-11.264-11.264v-8.192h17.408v-18.432h-17.408v-65.536h-23.552v65.536h-13.312v18.432h13.312v10.24z" />
<glyph unicode="&#xe311;" glyph-name="uniE311" d="M665.6 674.304l51.2-50.176-308.224-308.224 308.224-308.224-51.2-50.176-358.4 358.4z" />
<glyph unicode="&#xe312;" glyph-name="uniE312" d="M716.8 315.904l-358.4-358.4-51.2 50.176 308.224 308.224-308.224 308.224 51.2 50.176z" />
<glyph unicode="&#xe313;" glyph-name="_100" d="M716.8 111.104h-409.6v409.6h409.6v-409.6z" />
<glyph unicode="&#xe314;" glyph-name="_101" d="M418.816 155.136v322.56l279.552-160.768zM434.176 451.072v-268.288l232.448 134.144zM512-42.496q-73.728 0-139.264 28.16t-114.176 76.8-76.8 114.176-28.16 139.264 28.16 139.264 76.8 114.176 114.176 76.8 139.264 28.16 139.264-28.16 114.176-76.8 76.8-114.176 28.16-139.264-28.16-139.264-76.8-114.176-114.176-76.8-139.264-28.16zM512 657.92q-70.656 0-133.12-27.136t-109.056-73.216-73.728-108.544-27.136-133.12 27.136-133.12 73.728-109.056 109.056-73.728 133.12-27.136 133.12 27.136 109.056 73.728 73.728 109.056 27.136 133.12-27.136 133.12-73.728 108.544-109.056 73.216-133.12 27.136z" />
<glyph unicode="&#xe315;" glyph-name="_102" d="M512-42.496q-73.728 0-139.264 28.16t-114.176 76.8-76.8 114.176-28.16 139.264 28.16 139.264 76.8 114.176 114.176 76.8 139.264 28.16 139.264-28.16 114.176-76.8 76.8-114.176 28.16-139.264-28.16-139.264-76.8-114.176-114.176-76.8-139.264-28.16zM512 657.92q-70.656 0-133.12-27.136t-109.056-73.216-73.728-108.544-27.136-133.12 27.136-133.12 73.728-109.056 109.056-73.728 133.12-27.136 133.12 27.136 109.056 73.728 73.728 109.056 27.136 133.12-27.136 133.12-73.728 108.544-109.056 73.216-133.12 27.136zM490.496 171.52h-98.304v287.744h98.304v-287.744zM406.528 185.856h69.632v259.072h-69.632v-259.072zM631.808 171.52h-98.304v287.744h98.304v-287.744zM547.84 185.856h69.632v259.072h-69.632v-259.072z" />
<glyph unicode="&#xe316;" glyph-name="_103" d="M496.64 299.52l-32.768-312.32-64.512 7.168 18.432 176.128-187.392-192.512-46.080 48.128 186.368 192.512-171.008-19.456-6.144 66.56zM839.68 604.672l-187.392-191.488 171.008 18.432 7.168-66.56-303.104-33.792 32.768 312.32 64.512-7.168-18.432-176.128 187.392 192.512z" />
</font>
</defs>
</svg>
