<?xml version="1.0" encoding="UTF-8"?><svg xmlns="http://www.w3.org/2000/svg" width="38" height="64" viewBox="0 0 38 64"><title>angle-arrow</title><path  fill="#000" fill-rule="evenodd" d="M3.917.64L.653 3.845C.217 4.273 0 4.765 0 5.32s.217 1.047.653 1.475L26.313 32 .652 57.202c-.436.428-.653.92-.653 1.475 0 .556.217 1.048.653 1.476l3.265 3.205c.435.429.936.642 1.502.642.565 0 1.066-.214 1.5-.642l30.427-29.883c.436-.427.653-.92.653-1.475 0-.556-.217-1.047-.653-1.474L6.921.639C6.486.212 5.985 0 5.42 0c-.566 0-1.067.212-1.503.64z"/></svg>