<svg xmlns="http://www.w3.org/2000/svg" height="100" width="100" viewBox="0 0 1000 1000" fill="#fff"><path d="M770 585H565a16 16 0 0 0-17 16v16a17 17 0 0 0 17 17h205a17 17 0 0 0 16-17v-16a16 16 0 0 0-16-16Zm0 115H565a17 17 0 0 0-17 16v17a16 16 0 0 0 17 16h205a16 16 0 0 0 16-16v-17a16 16 0 0 0-16-16ZM436 585H230a17 17 0 0 0-16 16v16a17 17 0 0 0 16 17h206a17 17 0 0 0 16-17v-16a17 17 0 0 0-16-16Zm0 115H230a17 17 0 0 0-16 16v17a16 16 0 0 0 16 16h206a17 17 0 0 0 16-16v-17a17 17 0 0 0-16-16Zm231-449a130 130 0 1 0 130 130 130 130 0 0 0-130-130Zm65 139a8 8 0 0 1-8 7H611a8 8 0 0 1-8-7 113 113 0 0 1 0-18 8 8 0 0 1 8-7h113a8 8 0 0 1 8 7 113 113 0 0 1 0 18ZM425 289a130 130 0 0 0-184 184 130 130 0 0 0 184-184Zm-5 103a5 5 0 0 1-5 5h-60a6 6 0 0 0-6 6v60a6 6 0 0 1-5 5h-22a5 5 0 0 1-5-5v-60a5 5 0 0 0-5-6h-61a5 5 0 0 1-5-5v-22a6 6 0 0 1 5-5h60a5 5 0 0 0 6-5v-60a6 6 0 0 1 5-5h22a5 5 0 0 1 5 5v60a5 5 0 0 0 5 5h61a6 6 0 0 1 5 5Z"/></svg>