<svg id="a" xmlns="http://www.w3.org/2000/svg" width="52" height="52" viewBox="0 0 52 52"><path d="M25.9,36.9c-.5-1.6-1.3-4.3,0-5.1.3-.2.7-.4,1-.5,1.1-.6,2-1.1,2.7-2.2.2-.3.3-.7.4-1.1.3-1,.6-2,1.7-2h8.4V6.5c0-2.5-2.1-4.5-4.5-4.5h-15.7c-.8,0-1.5.7-1.5,1.5v10.6c0,2.4-1.5,4-4,4H3.8c-.8,0-1.5.7-1.5,1.5v23.2c0,2.5,2.1,4.5,4.5,4.5h24c-2.3-2.8-3.8-6.1-4.8-9.6,0-.2-.1-.5-.2-.8,0,0,.1,0,.1,0Z" fill="#fff"/><path d="M3.4,14.3h8c1.7,0,3.2-1.5,3.2-3.2V3c0-.6-.6-1-1.1-1s-.7,0-.8.3L2.6,12.3c-.2.2-.3.6-.3.8,0,.6.5,1.1,1,1.1h.1v.1Z" fill="#fff"/><path d="M43.9,35.5c-.3-.3-.6-.6-.9-1-.2-.3-.5-.7-.8-.9h0c-.4-.3-2.2-.3-3-.3s-.4.3-.4.7v10c0,1,1.5-.6,1.7-.7,1.5-1.6,2.7-3.5,3.4-5.7v-.3c.2-.6.4-1.1-.2-1.6l.2-.2Z" fill="#fff"/><path d="M49.6,33.7c0-.3-.4-.5-.7-.6h0c-1.1-.3-2-1.1-2.6-2,0-.2-.2-.6-.4-.9-.2-.8-.5-1.6-1.3-1.6h-11.4c-.8,0-1.1.8-1.3,1.6-.1.3-.2.7-.3.9-.6.9-1.3,1.3-2.1,1.7-.2,0-.5.3-.8.4-1,.6-.4,2.7,0,4,0,.2.1.4.2.6,1.1,4,3.2,7.7,6.5,10.3.9.8,1.9,1.4,3,1.9.9.4,2.2-.6,3-1.2,0,0,.2,0,.3-.2,1.9-1.3,3.4-3,4.6-4.9,1-1.6,1.8-3.4,2.4-5.3.2-.8.4-1.5.6-2.3v-.4c.2-.6.3-1.4.2-1.9h0l.1-.1ZM46.3,36.3v.2c0,.6-.3,1.1-.4,1.6-.4,1.3-1,2.6-1.7,3.8-.9,1.3-2,2.5-3.3,3.5h-.2c-.6.4-1.5,1.2-2.2.9-.8-.4-1.5-.8-2.1-1.4-2.3-1.8-3.8-4.5-4.6-7.3,0,0,0-.2-.1-.4-.3-.9-.7-2.4,0-2.8.2,0,.4-.2.5-.3.6-.3,1.1-.6,1.5-1.2,0-.2.2-.4.2-.6.2-.5.3-1.1.9-1.1h8.1c.6,0,.8.6.9,1.1,0,.2,0,.5.2.6.4.7,1.1,1.2,1.9,1.4h0c.2,0,.4.3.5.5,0,.4,0,.9-.1,1.4v.1Z" fill="#fff"/></svg>