<svg xmlns="http://www.w3.org/2000/svg" viewBox="0 0 64 64" enable-background="new 0 0 64 64"><g transform="translate(8)"><g fill="#e8a041"><path d="m4.766 28.489c-2.585.003-4.674 3.41-4.668 8.642.008 5.23 2.105 8.634 4.69 8.631 2.582-.004 8.955-3.417 8.947-8.647-.006-5.232-6.383-8.63-8.969-8.626"/><path d="m47.24 27.566c2.586.003 4.675 3.41 4.667 8.641-.006 5.23-2.103 8.634-4.688 8.631-2.583-.004-8.954-3.417-8.948-8.647.007-5.232 6.382-8.629 8.969-8.625"/></g><g fill="#fbb042"><path d="m48.941 39.4c0 15.549-10.196 23.327-22.777 23.327-12.581 0-22.776-7.778-22.776-23.327 0-15.548 10.196-32.98 22.777-32.98 12.581 0 22.776 17.432 22.776 32.98"/><path d="m41.1 48.887c0 9.846-6.688 14.774-14.941 14.774-8.251 0-14.939-4.929-14.939-14.774 0-9.848 6.688-20.888 14.939-20.888 8.254 0 14.941 11.04 14.941 20.888"/></g><path d="m55.824 18.603c-1.383-4.02-8.07-9.547-10.747-11.29.445-.507.9-1.164 1.512-2.108.266-.402.644-1.609-.129-1.537-5.866.561-11.612-.392-17.19-2.574-8.476-3.319-16.632 1.234-17.306 1.866-4.01 3.733-10.626 12.993-11.783 19.17-.281 1.491-.1 6.194 4.224.945.039 3.117-.676 6.697-.455 9.824.121 1.688 2.203 0 3.948-9.02 1.48-7.636 10.315-3.807 14.12-4.369 3.728 1.77 4.374.8 9.464-.903 9.556-3.195 12.76-.218 15.564 8.811-.035.001-.061.052-.061.158.002 1.773-.178 4.608 1.165 5.991.738.757 1.221-1.171 1.244-1.588.057-1.102-.232-2.196-.402-3.288 1.591-.301 3.673-1.413 3.312-1.755-4.079-3.86-2.249-3.649-3.02-7.278.56.386 6.941.133 6.536-1.051" fill="#25333a"/><g fill="#fff"><path d="m22.445 33.12c0 4.449-2.403 8.05-5.372 8.05-2.972 0-5.377-3.599-5.377-8.05 0-4.444 2.406-8.05 5.377-8.05 2.969 0 5.372 3.605 5.372 8.05"/><path d="m40.633 33.12c0 4.449-2.405 8.05-5.373 8.05-2.968 0-5.377-3.599-5.377-8.05 0-4.444 2.41-8.05 5.377-8.05 2.967 0 5.373 3.605 5.373 8.05"/></g><g fill="#25333a"><path d="m20.551 33.12c0 2.327-1.558 4.218-3.478 4.218-1.925 0-3.481-1.891-3.481-4.218 0-2.328 1.556-4.214 3.481-4.214 1.92 0 3.478 1.886 3.478 4.214"/><ellipse cx="35.26" cy="33.12" rx="3.478" ry="4.218"/><path d="m15.185 55.34c0-5.928 4.81-10.738 10.737-10.738 5.926 0 10.737 4.811 10.737 10.738"/></g><path d="m22.859 44.19c0-1.572 1.337-5.544 3.163-5.544 1.826 0 3.448 3.972 3.448 5.544 0 1.575-1.48 2.851-3.306 2.851-1.826 0-3.305-1.276-3.305-2.851" fill="#e8a041"/></g></svg>