<svg xmlns="http://www.w3.org/2000/svg" viewBox="0 0 64 64" enable-background="new 0 0 64 64"><g transform="translate(0 2)"><path d="m56.868 20.611c0-10.631-11.861-19.236-26.511-19.236-14.643 0-26.511 8.605-26.511 19.236 0 10.615 11.868 36.81 26.511 36.81 14.65 0 26.511-26.2 26.511-36.81" fill="#25333a"/><g fill="#de374b"><path d="m59.34 24.637c4.077-3.067 1.446-18.691-.707-21.56-2.155-2.868-7.68 6.336-11.349 11.02-3.775 4.82-7.844 9.494-5.69 12.359 2.151 2.867 13.673 1.244 17.746-1.815"/><path d="m2.453 23.469c-4.329-3.257-1.54-19.844.75-22.892 2.286-3.047 8.155 6.727 12.05 11.696 4.01 5.116 8.327 10.08 6.04 13.12-2.285 3.043-14.518 1.32-18.842-1.928"/><path d="m57.893 24.819c0-10.264-11.457-18.573-25.601-18.573-14.14 0-25.601 8.31-25.601 18.573-.0001 10.251 11.459 35.551 25.601 35.551 14.14 0 25.601-25.3 25.601-35.551"/></g><path d="m35.462 26.13c0 4.606-3.076 8.333-6.867 8.333-3.797 0-6.875-3.726-6.875-8.333 0-4.599 3.077-8.326 6.875-8.326 3.791.0001 6.867 3.727 6.867 8.326" fill="#f4f5f5"/><path d="m33.974 26.13c0 2.421-1.615 4.381-3.61 4.381-2 0-3.62-1.96-3.62-4.381 0-2.418 1.62-4.382 3.62-4.382 1.995 0 3.61 1.964 3.61 4.382" fill="#25333a"/><ellipse cx="45.666" cy="26.449" rx="6.871" ry="8.33" fill="#f4f5f5"/><path d="m50.2 26.662c0 2.422-1.618 4.382-3.613 4.382-1.994 0-3.618-1.96-3.618-4.382 0-2.418 1.624-4.382 3.618-4.382 1.995 0 3.613 1.964 3.613 4.382" fill="#25333a"/><path d="m62.951 35.96c-.214-.298-2.48-.294-2.672-.207-4.832 2.14-17.03-1.267-18.727-1.835-3.939-1.319-8.681-.384-8.391 1.653.282 1.958 8.147 5.72 9.705 6.537 3.793 1.991 8.761 3.075 13.05 2.89 4.537-.205 10.437-4.35 7.03-9.04" fill="#681624"/><g fill="#25333a"><path d="m20.646 47.01c-3.47-4.563-6.876-9.17-10.179-13.86-2.252 3.885-1.922 9.825 1.261 15.1 3.912 6.466 10.72 9.624 15.717 7.496-2.284-2.898-4.56-5.8-6.799-8.74"/><path d="m49.5 47.856c-1.015-1.974-1.78-2.25-3.595-3.452-2.392-1.577-5.546-2.793-8.87-3.314-4.04-.647-8.096-.146-11.122 1.059-2.734 1.085-4.745 2.811-5.858 4.875-.235.434-.399.914-.527 1.409 0 0 7.921-4.339 12.277-4.855 3.02-.363 5.919.174 8.116.993 2.613.973 5.642 3.59 8.147 5.672.309-.598 1.16-1.769 1.432-2.387" fill-rule="evenodd"/></g><g fill="#681624"><path d="m39.12 23.04c1.342-5.915 7.439-9.04 11.983-9.104 1.328-.018 1.63 2.55.284 2.568-3.825.053-9.162 1.989-10.312 7.07-.368 1.608-2.314 1.063-1.955-.53"/><path d="m36.628 22.1c-1.879-6.689-10.429-10.226-16.804-10.297-1.859-.021-2.286 2.884-.395 2.903 5.365.062 12.849 2.25 14.464 7.992.512 1.82 3.244 1.203 2.735-.598"/></g></g></svg>