<svg xmlns="http://www.w3.org/2000/svg" viewBox="0 0 64 64" enable-background="new 0 0 64 64"><g transform="translate(0 .643)"><path d="m52.57 33.22c0 11.238-9.121 20.355-20.359 20.355l0 0c-11.237 0-20.36-9.117-20.36-20.355v-10.872c0-11.238 9.123-20.356 20.36-20.356l0 0c11.238 0 20.359 9.118 20.359 20.356v10.872" fill="#633d19"/><g><path d="m20.658 63.41l.32-2.854c.725-6.445-1.303-11.962-4.528-12.329-3.221-.357-6.425 4.577-7.148 11.03l-.465 4.155h11.821" fill="#fbb042"/><path d="m20.66 63.41l.318-2.854c.725-6.445-1.303-11.962-4.528-12.329-3.221-.357-6.425 4.577-7.148 11.03l-.432 3.869c.105.088.229.189.346.287h11.444" fill="#ed307c"/></g><g><path d="m43.482 63.44l-.318-2.854c-.725-6.445 1.304-11.962 4.526-12.329 3.224-.357 6.428 4.577 7.15 11.03l.465 4.155h-11.823" fill="#fbb042"/><path d="m43.482 63.44l-.318-2.854c-.725-6.445 1.304-11.962 4.526-12.329 3.224-.357 6.428 4.577 7.15 11.03l.432 3.868c-.105.088-.229.189-.348.287h-11.442" fill="#ed307c"/></g><path d="m47.753 63.41v-5.103c0-7.658-6.956-13.872-15.54-13.872-8.588 0-15.552 6.214-15.552 13.872v5.103h31.09" fill="#ed307c"/><path d="m15.258 29.918c0 6.829 7.582 12.362 16.955 12.362 9.357 0 16.949-5.533 16.949-12.362 0-6.826-7.592-23.664-16.949-23.664-9.373 0-16.955 16.838-16.955 23.664" fill="#fbb042"/><path d="m23.758 49.45c3.481 0 14.687 0 16.898 0 .141 0-.762-7.2-.762-8.186 0-.068-15.519-.125-15.519-.125 0 0-.754 8.311-.617 8.311" fill="#cf2874"/><g fill="#25333a"><path d="m28.927 24.268c0 1.67-1.12 3.03-2.499 3.03-1.379 0-2.489-1.358-2.489-3.03 0-1.68 1.11-3.03 2.489-3.03 1.38 0 2.499 1.348 2.499 3.03"/><path d="m40.789 24.268c0 1.67-1.119 3.03-2.493 3.03-1.385 0-2.506-1.358-2.506-3.03 0-1.68 1.121-3.03 2.506-3.03 1.374 0 2.493 1.348 2.493 3.03"/></g><path d="m45.728 20.256c.025-4.255.043-8.488.092-12.821-7.702-7.496-18.725-6.305-26.626 1.326-.084 4.269-.172 8.441-.26 12.634 8.807-1.083 17.833-1.462 26.794-1.139" fill="#633d19"/><g><path d="m4.086 57.62c.016 1.9.916 4.435 2.174 5.671l8.189.217c2.083-1.209 3.491-3.449 3.464-6.03l-.463-44.922c-.035-3.819-3.169-6.88-6.984-6.843-3.817.039-6.882 3.163-6.843 6.982l.463 44.925" fill="#cf2874"/><path d="m5.398 7.339c-.298-1.024-.537-1.799-.601-2.104-.557-2.811 7.46-5.646 8.818-5.235.109.029 1.735 4.513 3.01 8.863.072-.164.137-.312.174-.383.844-1.57 5.816.236 6.31.973.066.102-2.963 8.462-4.347 9.654-.688.6-4.13 2.086-4.993 2.143-.586.035-5.165-.211-9.643-2.745-1.59-.905-3.608-9.889-3.532-9.987.386-.486 3.03-1.3 4.808-1.179" fill="#fbb042"/></g><g><path d="m60.33 57.62c-.014 1.9-.914 4.435-2.172 5.671l-8.191.217c-2.081-1.209-3.489-3.449-3.462-6.03l.461-44.922c.037-3.819 3.169-6.88 6.986-6.843 3.817.039 6.878 3.163 6.843 6.982l-.465 44.925" fill="#cf2874"/><path d="m59.02 7.339c.299-1.024.537-1.799.602-2.104.556-2.811-7.464-5.646-8.819-5.235-.111.029-1.736 4.513-3.01 8.863-.072-.164-.137-.312-.176-.383-.842-1.57-5.815.236-6.308.973-.066.102 2.964 8.462 4.347 9.654.688.6 4.13 2.086 4.993 2.143.586.035 5.165-.211 9.643-2.745 1.591-.905 3.606-9.889 3.532-9.987-.385-.486-3.03-1.3-4.807-1.179" fill="#fbb042"/></g><g><path d="m43.09 30.559c0 5.628-4.565 10.193-10.195 10.193-5.626 0-10.193-4.565-10.193-10.193" fill="#633f1a"/><path d="m41.34 31.583c0 2.249-3.86 4.073-8.619 4.073-4.757 0-8.617-1.824-8.617-4.073" fill="#fff"/></g></g></svg>