<svg viewBox="0 0 24 24" xmlns="http://www.w3.org/2000/svg"><path d="M21 11.6458V21C21 21.5523 20.5523 22 20 22H4C3.44772 22 3 21.5523 3 21V11.6458C2.37764 10.9407 2 10.0144 2 9V3C2 2.44772 2.44772 2 3 2H21C21.5523 2 22 2.44772 22 3V9C22 10.0144 21.6224 10.9407 21 11.6458ZM14 9C14 8.44772 14.4477 8 15 8C15.5523 8 16 8.44772 16 9C16 10.1046 16.8954 11 18 11C19.1046 11 20 10.1046 20 9V4H4V9C4 10.1046 4.89543 11 6 11C7.10457 11 8 10.1046 8 9C8 8.44772 8.44772 8 9 8C9.55228 8 10 8.44772 10 9C10 10.1046 10.8954 11 12 11C13.1046 11 14 10.1046 14 9Z"/></svg>