<svg xmlns="http://www.w3.org/2000/svg" height="100" width="100" viewBox="0 0 1000 1000" fill="#fff"><path d="M750 238H250a46 46 0 0 0-46 46v456a11 11 0 0 0 19 8l41-41a10 10 0 0 1 16 0l52 52a10 10 0 0 0 16 0l41-41a10 10 0 0 1 16 0l41 41a10 10 0 0 0 16 0l41-41a10 10 0 0 1 16 0l41 41a10 10 0 0 0 16 0l41-41a10 10 0 0 1 16 0l41 41a10 10 0 0 0 16 0l41-41a10 10 0 0 1 16 0l30 30a11 11 0 0 0 19-8V283a45 45 0 0 0-46-45zM530 504v11a55 55 0 0 1-31 10 56 56 0 1 1 56-60 45 45 0 0 0-25 39zm150 141a15 15 0 0 1-15 14h-90a14 14 0 0 1-14-14v-14a14 14 0 0 1 14-14h91a14 14 0 0 1 14 14zm0-63a15 15 0 0 1-15 14h-90a14 14 0 0 1-14-14v-14a14 14 0 0 1 14-14h91a14 14 0 0 1 14 14zm0-64a15 15 0 0 1-15 14h-90a14 14 0 0 1-14-14v-14a14 14 0 0 1 14-14h91a14 14 0 0 1 14 14zm1-57a34 34 0 0 0-14-2h-29v-30a40 40 0 0 1-40-40H400a40 40 0 0 1-40 40v84a40 40 0 0 1 40 40h132a34 34 0 0 0-2 14v14a66 66 0 0 0 3 15H353a34 34 0 0 1-34-34V381a34 34 0 0 1 34-34h294a34 34 0 0 1 34 34z"/></svg>