<svg xmlns="http://www.w3.org/2000/svg" height="52" width="52" viewBox="0 0 520 520" fill="#fff"><path d="m272 417-21-3-21-6c-4-1-9 0-12 3l-5 5a79 79 0 0 1-106 6 77 77 0 0 1-4-112l76-76c10-10 22-16 34-20a79 79 0 0 1 74 20l10 13c4 7 13 8 18 2l28-28c4-4 4-10 1-15l-14-16a128 128 0 0 0-71-37 143 143 0 0 0-124 37l-73 73a139 139 0 0 0-6 193 137 137 0 0 0 198 4l25-25c7-5 2-17-7-18zM456 58a139 139 0 0 0-193 6l-23 22c-7 7-2 19 7 20 14 1 28 4 42 8 4 1 9 0 12-3l5-5a79 79 0 0 1 106-6 77 77 0 0 1 4 112l-76 76a85 85 0 0 1-34 20 79 79 0 0 1-74-20l-10-13c-4-7-13-8-18-2l-28 28c-4 4-4 10-1 15l14 16a130 130 0 0 0 70 37 143 143 0 0 0 124-37l76-76a137 137 0 0 0-3-198z"/></svg>