<svg viewBox="0 0 24 24" xmlns="http://www.w3.org/2000/svg"><path d="M2.04932 13.0001H7.52725C7.70624 16.2689 8.7574 19.3054 10.452 21.881C5.98761 21.1872 2.5001 17.5403 2.04932 13.0001ZM2.04932 11.0001C2.5001 6.4598 5.98761 2.81288 10.452 2.11914C8.7574 4.69468 7.70624 7.73123 7.52725 11.0001H2.04932ZM21.9506 11.0001H16.4726C16.2936 7.73123 15.2425 4.69468 13.5479 2.11914C18.0123 2.81288 21.4998 6.4598 21.9506 11.0001ZM21.9506 13.0001C21.4998 17.5403 18.0123 21.1872 13.5479 21.881C15.2425 19.3054 16.2936 16.2689 16.4726 13.0001H21.9506ZM9.53068 13.0001H14.4692C14.2976 15.7829 13.4146 18.3733 11.9999 20.5916C10.5852 18.3733 9.70229 15.7829 9.53068 13.0001ZM9.53068 11.0001C9.70229 8.21722 10.5852 5.62684 11.9999 3.40853C13.4146 5.62684 14.2976 8.21722 14.4692 11.0001H9.53068Z"/></svg>