<?xml version="1.0" encoding="UTF-8"?>
<svg xmlns="http://www.w3.org/2000/svg" width="20" height="20" viewBox="0 0 20 20"><g fill="#fff">
	<title>
		italic
	</title>
	<path d="M10.5 19c-1.08 0-2.1-.22-2.93-.65a4.9 4.9 0 0 1-1.91-1.76 4.77 4.77 0 0 1-.66-2.5c0-.42.04-.82.11-1.2A4.53 4.53 0 0 1 5.4 12h2.3a5.92 5.92 0 0 0-.3 1.84 3.8 3.8 0 0 0 .32 1.56c.21.48.54.87.98 1.17.46.31 1.1.43 1.79.43.71 0 1.22-.12 1.67-.43a2.74 2.74 0 0 0 1-1.29c.23-.52.35-1.12.35-1.78 0-.7-.13-1.33-.39-1.89A2.7 2.7 0 0 0 12 10.4a3.05 3.05 0 0 0-1.77-.4H9V8h1.33a3.2 3.2 0 0 0 1.64-.47c.4-.25.7-.57.89-.94a2.8 2.8 0 0 0-.03-2.44 2.3 2.3 0 0 0-.84-.9S11.52 3 11 3V1c.96 0 1.47.19 2.2.56.73.36 1.3.85 1.7 1.47a3.49 3.49 0 0 1 .64 2.03c0 .96-.3 1.77-.88 2.43-.58.64-1.2 1.3-2.16 1.51.64.09 1.09.2 1.63.58.56.38 1.01.9 1.35 1.58.35.66.52 1.49.52 2.48a5.4 5.4 0 0 1-.7 2.81 4.63 4.63 0 0 1-1.94 1.87 5.7 5.7 0 0 1-2.86.68Z"/>
</g></svg>
