<?xml version="1.0" encoding="UTF-8"?>
<svg xmlns="http://www.w3.org/2000/svg" width="20" height="20" viewBox="0 0 20 20">
	<title>
		search regular expression
	</title><g fill="#36c">
	<path d="M17.6 2a14.5 14.5 0 0 1 0 16l-.9-.56c-.28-.18-.17-.49-.05-.7a13.97 13.97 0 0 0-.09-13.6c-.08-.18-.16-.44.17-.65zM2.4 2c-2.9 3.87-3.38 10.9.03 15.94l.91-.56c.28-.17.16-.5.04-.7C.57 11.65 1.49 6.55 3.43 3.1c.08-.18.12-.38-.2-.59zM12 4h1v2.41l-.1.35.35-.34 1.98-1.15.54.94-2.02 1.15-.43.13.43.12L15.8 8.8l-.54.94-1.98-1.14-.38-.35.1.43V11h-1V8.76l.12-.52-.34.34L9.8 9.72l-.54-.94 2-1.15.48-.14-.47-.13L9.2 6.2l.54-.94 1.97 1.14.38.37-.09-.41z"/>
	<circle cx="6.5" cy="13.5" r="1.5"/>
</g></svg>
