<?xml version="1.0" encoding="UTF-8"?>
<svg width="24px" height="24px" viewBox="0 0 24 24" version="1.1" xmlns="http://www.w3.org/2000/svg" xmlns:xlink="http://www.w3.org/1999/xlink">
    <!-- Generator: Sketch 48.1 (47250) - http://www.bohemiancoding.com/sketch -->
    <title>icon/20px/chevron-double-left</title>
    <desc>Created with Sketch.</desc>
    <defs>
        <path d="M17.281,6.295 L12.295,11.287 C11.902,11.681 11.902,12.32 12.295,12.713 L17.281,17.704 C17.47,17.894 17.716,17.993 17.964,18 L18.022,18 C18.27,17.993 18.515,17.894 18.705,17.704 C19.098,17.311 19.098,16.672 18.705,16.278 L14.432,12 L18.705,7.722 C19.098,7.327 19.098,6.689 18.705,6.295 C18.508,6.099 18.25,6 17.993,6 C17.735,6 17.477,6.099 17.281,6.295 Z M10.281,6.295 L5.295,11.287 C5.098,11.484 5,11.742 5,12 C5,12.258 5.098,12.516 5.295,12.713 L10.281,17.704 C10.47,17.894 10.716,17.993 10.964,18 L11.021,18 C11.27,17.993 11.516,17.894 11.705,17.704 C12.098,17.311 12.098,16.672 11.705,16.278 L7.431,12 L11.705,7.722 C12.098,7.327 12.098,6.689 11.705,6.295 C11.508,6.099 11.25,6 10.993,6 C10.735,6 10.477,6.099 10.281,6.295 Z" id="path-1"></path>
    </defs>
    <g id="Symbols" stroke="none" stroke-width="1" fill="none" fill-rule="evenodd">
        <g id="icon/20px/chevron-double-left">
            <mask id="mask-2" fill="white">
                <use xlink:href="#path-1"></use>
            </mask>
            <use id="chevron-double-left" fill="#505F79" xlink:href="#path-1"></use>
        </g>
    </g>
</svg>
