<?xml version="1.0" encoding="utf-8"?>
<svg xmlns="http://www.w3.org/2000/svg" width="24" height="24" viewBox="0 0 24 24"><g fill="#36c">
    <path id="puzzle-piece" d="M19.46 10.417c-.351-.404-1.641-.501-1.983-.162-.769.758-1.926 1.308-1.952.162.088-2.081.818-3.743.818-3.743a.46.46 0 0 0-.463-.456s-1.586-.111-3.59-.164l-1.25-.001c-.127.406.274 1.09.782 1.604.339.344.242 1.633-.162 1.984-.393.34-1.197.539-1.662.539-.445 0-1.222-.158-1.612-.479-.438-.356-.332-1.686.02-2.044.47-.476.838-1.185.721-1.606h-.483c-2.074.05-3.514.167-3.514.167a.46.46 0 0 0-.463.456s-.558 2.58-.558 5.348c0 2.762.558 5.331.558 5.331a.46.46 0 0 0 .463.457s2.615.19 5.493.19c2.723 0 5.258-.19 5.258-.19a.46.46 0 0 0 .463-.457s-.739-1.73-.824-3.869c.031-1.004 1.255-.506 1.958.188.356.353 1.688.458 2.045.021.318-.392.477-1.169.477-1.614 0-.465-.199-1.269-.54-1.662z"/>
</g></svg>
