<svg xmlns="http://www.w3.org/2000/svg" width="100" height="100" viewBox="0 0 100 100">
    <path d="M39.5,63.4a1.87,1.87,0,0,0,2.6,0L54.6,50.9a2.61,2.61,0,0,1,3.5,0,2.66,2.66,0,0,1,.1,3.7l-.1.1L42.7,69.8a8.81,8.81,0,0,1-12.4,0l-.1-.1a8.81,8.81,0,0,1,0-12.4L57.4,30.1a8.81,8.81,0,0,1,12.4,0l.1.1a8.81,8.81,0,0,1,0,12.4l-.1.1a1.82,1.82,0,0,0-.3,2.2,21.38,21.38,0,0,1,1.8,4.4,1.22,1.22,0,0,0,1.5.9l.6-.3c1-1,1.9-2,1.9-2a16.3,16.3,0,0,0,0-23.1H75a16.3,16.3,0,0,0-23.1,0l-27.1,27a16.3,16.3,0,0,0,0,23.1l.3.3a16.15,16.15,0,0,0,22.9.1l.1-.1L63.5,59.8A10.18,10.18,0,1,0,49.3,45.2l-.4.4L36.6,58a2.13,2.13,0,0,0,0,2.8Z" fill="#fff" />
</svg>