<svg xmlns="http://www.w3.org/2000/svg" viewBox="0 0 64 64" enable-background="new 0 0 64 64"><switch><g><path fill="#e6e7e8" d="m18.391 37l13.593 17 13.607-17z"/><path fill="#25333a" d="m54.4 26l8.463-10.573c-.23-.5-.487-.981-.787-1.427-1.647-2.443-4.345-4-8.07-4h-44c-3.727 0-6.424 1.557-8.07 4-.3.445-.557.927-.787 1.428l8.454 10.572h44.8"/><path fill="#4188dc" d="m18.391 37h27.2l8.809-11h-44.804z"/><path fill="#c32129" d="m62.858 15.427l-8.462 10.573-8.805 11-13.607 17h22.02c6.627 0 10-4.925 10-11v-22c0-2.037-.389-3.937-1.142-5.573"/><path fill="#c32129" d="M18.391,37L9.596,26L1.142,15.428C0.388,17.063,0,18.964,0,21v22c0,6.075,3.373,11,10,11h21.984L18.391,37
			z"/><path fill-rule="evenodd" fill="#fcd116" d="m46.1 25.12c-.095.003-.188.009-.281.009-9.07 0-18.14 0-27.21 0-.094 0-.188-.006-.281-.009-.034-.015-.032-.03.001-.044.768-.157 1.534-.313 2.3-.465 1.444-.288 2.886-.576 4.331-.866.03-.006.065.002.096-.063-1.934-1.293-3.869-2.59-5.804-3.881-.005-.098.05-.077.104-.053.916.182 1.835.357 2.748.539 1.312.262 2.618.523 3.926.783.036.008.067.005.11.005-.01-.106-.08-.171-.129-.245-1.187-1.777-2.37-3.551-3.557-5.325-.051-.078-.098-.159-.147-.237-.017-.03-.013-.057.015-.079.078.049.16.095.236.146 1.785 1.191 3.566 2.384 5.354 3.574.075.053.144.121.274.145-.461-2.316-.92-4.623-1.379-6.927.019-.009.033-.018.047-.022 1.31 1.947 2.608 3.904 3.955 5.91.471-2.356.929-4.654 1.387-6.951.01-.038.025-.04.043-.005.045.046.006.111.045.156.273 1.378.55 2.754.825 4.13.173.865.343 1.731.518 2.598.02.004.027.004.027.004.018-.004.025-.004.029-.012 1.276-1.902 2.551-3.805 3.826-5.707.018-.028.035-.06.055-.084.09-.005.069.046.052.098-.202 1.01-.4 2.02-.599 3.03-.228 1.143-.457 2.284-.684 3.427-.007.041-.007.085-.013.128-.013.072-.066.164.073.173.307-.201.612-.396.914-.6 1.501-1 2.999-2 4.499-3 .077-.052.159-.097.237-.147.058-.012.081.007.066.066-.043.072-.083.146-.129.22-1.18 1.761-2.36 3.524-3.535 5.29-.051.076-.121.145-.144.255.235-.006.455-.073.677-.117 2.01-.397 4.02-.802 6.04-1.201.033-.007.066-.009.102-.014.044-.012.102-.044.099.046-1.94 1.3-3.882 2.595-5.821 3.891.005.018.009.032.014.051.446.088.893.178 1.338.267 1.742.346 3.486.69 5.226 1.039.041.007.082.022.122.037.035.012.035.029.003.044"/></g></switch></svg>