<svg xmlns="http://www.w3.org/2000/svg" viewBox="0 0 64 64" enable-background="new 0 0 64 64"><switch><g><path fill="#137a08" d="m61 43c0 6.075-3.373 11-10 11h-41c-6.627 0-10-4.925-10-11v-22c0-6.075 3.373-11 10-11h41c6.627 0 10 4.925 10 11v22"/><path fill="#e6e7e8" d="m54 10h-22v44h22c6.627 0 10-4.925 10-11v-22c0-6.075-3.373-11-10-11"/><g><path fill-rule="evenodd" fill="#ec1c24" d="m43.45 39.14c-2.729 4.254-8.409 6.94-14.359 5.202-5.608-1.644-9.463-7.08-9.143-12.941.312-5.888 4.732-10.896 10.48-11.917 6.094-1.083 10.985 2.185 13.07 5.601-2.476-2.434-5.354-3.528-8.726-3.146-2.643.303-4.85 1.498-6.577 3.512-3.382 3.939-3.259 9.844.274 13.562 2.025 2.128 4.517 3.245 7.458 3.271 2.941.021 5.432-1.091 7.521-3.144"/><path fill="#ec1c24" d="m36.726 26.14l1.74 3.578 3.924.592-2.863 2.76.643 3.919-3.503-1.869-3.537 1.828.702-3.908-2.832-2.8 3.937-.548z"/></g></g></switch></svg>