<svg xmlns="http://www.w3.org/2000/svg" viewBox="0 0 64 64" enable-background="new 0 0 64 64"><switch><g><path fill="#128807" d="m64 43c0 6.075-3.373 11-10 11h-44c-6.627 0-10-4.925-10-11v-22c0-6.075 3.373-11 10-11h44c6.627 0 10 4.925 10 11v22"/><g><path fill="#f9cb38" d="M57.14 32.79 32.15 50.35 7.159 32.79 32.15 15.23z"/><g><path fill-rule="evenodd" fill="#002776" d="m42.01 35.848c-1.138 3.867-4.699 6.811-8.731 7.211-5.387.539-10.1-2.885-11.246-8.178-.343-1.574-.292-3.147.126-4.705.157-.17.374-.211.59-.241 1.579-.212 3.169-.295 4.757-.207 1.695.096 3.376.331 5.01.793 1.677.475 3.301 1.095 4.834 1.919 1.15.619 2.26 1.313 3.295 2.11.352.273.711.541 1.049.832.151.13.269.27.315.466"/><path fill-rule="evenodd" fill="#002776" d="m22.724 28.611c1.291-2.885 3.468-4.806 6.477-5.708 6.06-1.817 12.277 2.188 13.178 8.434.14.965.146 1.933-.002 2.9-.153.057-.267-.024-.372-.111-1.102-.9-2.27-1.701-3.503-2.402-.95-.538-1.935-1.01-2.952-1.408-.18-.071-.406-.108-.468-.349.065-.116.147-.217.245-.311.035-.036.086-.071.039-.131-.016-.019-.049-.019-.077-.016-.075.008-.065.06-.062.115.006.179-.098.294-.235.386-.243.055-.476-.018-.673-.123-.564-.296-1.188-.397-1.785-.562-.931-.253-1.887-.396-2.841-.545-.763-.12-1.53-.211-2.297-.262-.7-.049-1.413-.042-2.118.006-.769.054-1.54.108-2.305.2-.1.01-.192-.025-.249-.113"/><path fill-rule="evenodd" fill="#fefefe" d="m35.09 29.905c-.004.122.105.106.171.132 2.6 1.01 4.965 2.417 7.11 4.2-.065.549-.179 1.088-.362 1.611-1.251-1.038-2.532-2.027-3.949-2.835-4.479-2.551-9.275-3.562-14.402-3.02-.5.051-1 .119-1.5.18.129-.541.293-1.072.562-1.564 3.743-.505 7.421-.218 11.03.899.448.139.875.363 1.353.405l-.013-.011"/><path fill-rule="evenodd" fill="#d9dfea" d="m39.75 36.35c-.301-.032.026.337-.278.329-.265-.004-.279-.216-.409-.334.1-.104.277-.125.333-.287.038.171.199.207.354.292"/><path fill-rule="evenodd" fill="#e9ecf3" d="m28.394 38.2c-.283.033-.046.341-.283.346-.239.005-.362-.172-.41-.355-.017-.052.213-.168.326-.254.014.181.202.173.367.263"/><path fill-rule="evenodd" fill="#edeff5" d="m32.14 37.643c-.393.254-.076-.32-.307-.264.075-.12.287-.092.301-.276.1.104.185.224.344.246-.227-.031.02.473-.338.294"/><path fill-rule="evenodd" fill="#f0f2f6" d="m24.02 30.905c-.094.179-.165.379-.45.259-.146-.061.01-.261-.165-.28.107-.095.215-.19.324-.285.022.047.048.092.07.139.026.119.263-.039.221.167"/><path fill-rule="evenodd" fill="#eceff4" d="m24.927 35.25c-.149.047-.042.439-.362.268-.032-.016-.172.061-.146.016.084-.164-.104-.244-.075-.375.175.076.165-.244.344-.158.013.01.013.05.022.076.019.124.261-.031.217.173"/><path fill-rule="evenodd" fill="#d9dfea" d="m23.354 36.408c-.307.107-.078-.264-.254-.261.082-.069.174-.198.256-.193.098.005.188.126.278.195-.134.045.007.408-.28.259"/><path fill-rule="evenodd" fill="#d8deea" d="m35.22 39.947c-.325.148-.009-.289-.226-.232-.022-.167.249-.066.215-.242.1.079.195.156.293.235-.119.054 0 .394-.282.239"/><path fill-rule="evenodd" fill="#dce1ec" d="m37.3 39.706c-.269.112-.104-.25-.249-.286.098-.063.201-.13.297-.195.008.148.211.094.233.225-.151.009.006.335-.281.256"/><path fill-rule="evenodd" fill="#dce1ec" d="m39.17 38.36c-.306.155-.08-.252-.255-.235.035-.13.236-.081.248-.231.094.071.191.144.287.215-.175-.005.04.424-.28.251"/><path fill-rule="evenodd" fill="#d4dae7" d="m26.783 36.493c-.32.181-.111-.224-.259-.232.015-.149.241-.085.251-.243.03.146.224.104.266.235-.191-.028.081.431-.258.24"/><path fill-rule="evenodd" fill="#f2f4f7" d="m28.08 33.455c-.181-.012.051-.297-.171-.279.038-.16.209-.127.303-.21.048.101.184.124.191.269.016.265-.219.128-.323.22"/><path fill-rule="evenodd" fill="#e6e9f1" d="m33.35 35.567c-.277.159-.131-.196-.259-.235.087-.072.171-.145.259-.219.006.148.289.115.209.229-.048.068.107.379-.209.225"/><path fill-rule="evenodd" fill="#eaedf3" d="m32.11 34.676c-.316.032.01-.255-.195-.248.08-.075.157-.203.247-.211.078-.008.168.119.253.189-.111.107-.094.383-.305.27"/><path fill-rule="evenodd" fill="#e4e8f0" d="m39.782 37.01c.065.172.193.195.293.256-.102.115-.142.291-.354.291-.217.002-.07-.163-.119-.24-.121-.192.326-.03.18-.307"/><path fill-rule="evenodd" fill="#ced5e4" d="m37.518 40.494c-.076.113-.024.221-.226.225-.231.004-.157-.165-.167-.217-.019-.086.113-.168.189-.151.066.012.194.049.204.143"/><path fill-rule="evenodd" fill="#dae0eb" d="m26.714 37.29c-.165.019-.028.235-.237.228-.191-.006-.163-.135-.184-.213-.033-.109.128-.106.164-.188.076.053.153.106.257.173"/><path fill-rule="evenodd" fill="#d8dee9" d="m37.07 38.432c.071-.053.142-.102.217-.152.006.111.245.047.165.189-.033.057.048.213-.159.199-.186-.013-.142-.143-.223-.236"/><path fill-rule="evenodd" fill="#cbd2e3" d="m36.31 38.775c-.036.197-.148.229-.271.252-.209.035-.052-.122-.086-.182-.088-.15.134-.121.16-.219.058.076.191.074.197.149"/><path fill-rule="evenodd" fill="#d1d8e6" d="m35.14 32.29c-.07.033.023.2-.127.152-.114-.039-.254-.093-.244-.233.004-.054.14-.099.216-.146.013.101.229.068.155.227"/><path fill-rule="evenodd" fill="#dadfea" d="m40.799 36.676c-.188.074-.103-.081-.136-.126-.126-.171.123-.146.136-.248.077.051.227.109.221.153-.01.119-.104.213-.221.221"/><path fill-rule="evenodd" fill="#cad2e2" d="m31.13 35.15c0 .116.234.07.155.215-.032.059.036.217-.126.184-.123-.025-.247-.097-.251-.219 0-.057.142-.118.222-.18"/><path fill-rule="evenodd" fill="#d0d7e5" d="m34.33 38.768c-.092-.043-.096-.164-.09-.222.01-.077.113-.181.201-.139.054.026.207.011.17.151-.034.134-.168.153-.281.21"/><path fill-rule="evenodd" fill="#eff2f6" d="m38.2 38.592c.004-.001.074-.098.153-.1.057-.002.115.116.176.182-.082.023-.012.174-.174.172-.146-.003-.146-.069-.155-.254"/><path fill-rule="evenodd" fill="#ccd4e3" d="m31.766 36.06c-.027.108-.027.175-.123.173-.098-.002-.146-.038-.144-.138 0-.079.052-.134.111-.129.068.005.165.024.156.094"/><path fill-rule="evenodd" fill="#e0e5ee" d="m25.634 34.504c.048.052.103.093.124.146.018.044-.01.111-.072.118-.069.006-.143.004-.165-.082-.02-.084.053-.114.113-.182"/><path fill-rule="evenodd" fill="#7085b1" d="m24.927 35.25c-.027-.115-.205-.042-.217-.174.038.1.335-.123.217.174"/><path fill-rule="evenodd" fill="#5c75a7" d="m24.02 30.905c-.022-.123-.211-.026-.221-.167.053.084.321-.115.221.167"/><path fill-rule="evenodd" fill="#e7eaf2" d="m35.11 29.916c.019-.076.08-.2.056-.223-.326-.29.109-.339.174-.398.119-.115.1.37.414.063-.169.375-.395.483-.655.547l.011.011"/><path fill-rule="evenodd" fill="#15a24a" d="m25.471 29.605c-.318-.031-.035-.445-.104-.685-.086-.31.14-.306.36-.307.341-.002.534.142.534.502-.001.354-.165.494-.79.49"/><path fill-rule="evenodd" fill="#13a248" d="m37.621 31.603c-.07.214-.329.348-.373.612-.004.035-.104.028-.123-.074-.08-.478-.084-.477-.437-.221-.028.021-.077.04-.104.031-.052-.023-.073-.075-.042-.134.117-.228.227-.462.358-.683.088-.146.195-.024.281.018.189.093.422.146.44.451"/><path fill-rule="evenodd" fill="#11a147" d="m38.516 32.381c-.184.074-.273-.065-.391-.115-.08-.034-.155-.066-.209.023-.059.094 0 .148.081.19.062.031.128.055.174.104.081.085.335.062.232.243-.081.144-.217-.024-.307-.077-.155-.095-.462-.147-.429-.312.051-.265.202-.553.403-.735.161-.146.339.13.52.199.078.029.211.055.188.178-.022.127-.116.053-.188.036-.169-.039-.333-.325-.466-.127-.08.118.249.167.353.297.016.019.02.045.039.096"/><path fill-rule="evenodd" fill="#11a147" d="m40.671 33.795c.03.234-.065.393-.31.353-.254-.042-.447-.197-.491-.475-.004-.028.03-.085.058-.093.074-.021.142.026.151.094.032.191.132.276.333.28.039-.313-.526-.456-.201-.781.163-.163.362-.028.504.103.131.119.291.25.052.42-.034-.018-.08-.047-.105-.027-.051.034-.001.083.009.126"/><path fill-rule="evenodd" fill="#0fa046" d="m33.764 30.817c-.119-.067-.113-.131-.094-.201.038-.149-.039-.227-.175-.269-.136-.044-.241-.038-.278.132-.013.076-.053.129-.136.101-.096-.035-.048-.113-.03-.17.038-.131.072-.263.132-.388.054-.125.016-.354.213-.339.209.015.435.065.594.238.071.076.1.207.042.264-.169.174-.155.42-.268.632"/><path fill-rule="evenodd" fill="#0b9f43" d="m27.593 29.544c-.323.122-.578.051-.827.056-.113.003-.123-.082-.123-.168.008-.095.008-.191.008-.286.012-.527.199-.662.717-.515.058.016.113.026.117.091 0 .09-.065.106-.145.104-.011-.002-.024-.005-.038-.003-.155.038-.433-.137-.438.095-.006.178.297.052.452.112.022.009.046.029.08.054-.098.177-.261.078-.387.099-.075.012-.173-.021-.184.101-.014.144.086.137.184.147.167.02.348-.043.584.113"/><path fill-rule="evenodd" fill="#079d3f" d="m24.938 29.62c-.174-.038-.15-.138-.18-.208-.052-.129-.155-.129-.268-.12-.129.012-.199.062-.188.205.008.07.036.183-.094.167-.112-.014-.08-.123-.086-.197-.01-.121-.022-.245-.01-.365.016-.134-.112-.339.081-.387.199-.052.429-.089.636.01.09.043.161.148.128.233-.076.214-.016.431-.019.662"/><path fill-rule="evenodd" fill="#15a24a" d="m22.827 29.28c.032-.271.151-.491.448-.481.285.009.437.207.437.492 0 .283-.132.478-.433.476-.306-.002-.41-.224-.452-.487"/><path fill-rule="evenodd" fill="#11a147" d="m41.864 34.36c-.028.269-.161.472-.468.499-.283.023-.433-.139-.455-.405-.025-.269.239-.526.508-.524.236.002.409.173.415.43"/><path fill-rule="evenodd" fill="#0c9f43" d="m36.25 31.23c.226.182-.048.302-.058.455-.188-.087-.423-.052-.575-.217-.162-.176-.132-.375-.026-.569.117-.205.297-.293.518-.215.202.072.353.208.255.464-.155.028-.282-.176-.5-.039.145.067.319-.026.386.121"/><path fill-rule="evenodd" fill="#19a44d" d="m30.81 29.17c-.132.155-.229.095-.32.097-.088 0-.182-.073-.291.018.098.16.335.057.427.216-.013.023-.019.054-.036.07-.132.104-.343-.148-.425.06-.075.179.122.117.207.147.096.038.215.024.331.154-.269.118-.59.063-.701-.067-.175-.205-.052-.569.081-.751.157-.215.444-.005.727.056"/><path fill-rule="evenodd" fill="#0d9f44" d="m32.515 30.04c-.227-.024-.485-.184-.55.19-.002.012-.081.029-.105.013-.027-.015-.042-.071-.037-.103.059-.237.089-.491.194-.704.122-.24.329-.037.5-.014.204.027.317.151.295.366-.02.185-.16.235-.297.252"/><path fill-rule="evenodd" fill="#0fa046" d="m35.22 30.613c-.022.301-.17.509-.471.518-.269.01-.42-.179-.414-.447.008-.29.149-.5.462-.509.287-.01.398.183.423.438"/><path fill-rule="evenodd" fill="#0ea044" d="m28.479 29.527c-.033.071-.06.172-.155.149-.165-.039-.091-.198-.131-.302-.122-.119-.09.045-.128.075-.014.074.02.187-.08.202-.123.015-.094-.103-.091-.173.01-.146.012-.299.052-.439.035-.12-.092-.341.147-.343.211-.001.165.214.192.343.028.148.043.211.164.064.125-.033.151.058.18.146.016.128-.041.217-.15.278"/><path fill-rule="evenodd" fill="#10a146" d="m39.13 33.2c.074 0 .149.098.221.014.055-.063.006-.125-.043-.176-.036-.039-.074-.076-.108-.118-.102-.123-.245-.241-.104-.419.128-.163.277-.123.425-.02.027.052.018.102-.01.149-.109.171.094.275.09.421.031.137.051.275-.1.354-.188.1-.333.008-.471-.112-.015-.079.014-.118.1-.093"/><path fill-rule="evenodd" fill="#ecf7f0" d="m36.25 31.23c-.077.054-.232-.121-.227.011.01.234-.107.213-.216.144-.147-.091-.155-.247-.062-.391.09-.141.217-.223.371-.108.094.069.165.173.246.262-.036.027-.074.054-.112.082"/><path fill-rule="evenodd" fill="#17a34c" d="m28.545 29.29c-.028-.059-.061-.122-.096-.181.035-.089.067-.179.109-.265.038-.081.104-.126.197-.096.104.035.096.115.09.199-.022.245-.042.489-.061.734-.146.093-.183.008-.207-.118-.018-.091.029-.189-.032-.273"/><path fill-rule="evenodd" fill="#d7efe0" d="m39.604 33.05c-.09-.092-.186-.179-.27-.277-.098-.116-.06-.187.086-.206.211.047.34.149.278.391-.029.03-.061.062-.094.092"/><path fill-rule="evenodd" fill="#2bab5b" d="m39.698 32.958c-.097-.126-.123-.306-.278-.391.037-.03.071-.059.104-.087.168.119.475.187.174.478"/><path fill-rule="evenodd" fill="#e6f5ec" d="m40.671 33.795c-.013-.008-.03-.012-.036-.023-.08-.148-.345-.281-.255-.412.113-.158.231.029.293.164.028.057.062.113.094.172-.033.033-.066.066-.096.099"/><path fill-rule="evenodd" fill="#29aa59" d="m39.13 33.2c-.032.031-.063.063-.1.094-.042-.03-.1-.051-.127-.094-.051-.097-.197-.226-.028-.302.142-.068.142.113.188.201.019.037.043.068.067.101"/><path fill-rule="evenodd" fill="#ddf1e4" d="m28.545 29.29c.146.057.069.179.071.27.008.125.052.167.169.123-.244.236-.213-.079-.307-.149.025-.083.044-.164.067-.244"/><path fill-rule="evenodd" fill="#6fc690" d="m28.06 29.45c0-.104 0-.207 0-.322.138.044.142.141.128.247-.042.025-.086.049-.128.075"/><path fill-rule="evenodd" fill="#f5fbf7" d="m25.568 29.12c.014-.146-.056-.336.193-.32.182.011.314.084.324.292.01.224-.121.315-.328.33-.263.021-.156-.186-.189-.302"/><path fill-rule="evenodd" fill="#eff8f3" d="m37.1 31.32c.104.057.263.068.297.222.017.08-.052.133-.123.11-.132-.04-.307-.042-.325-.228-.005-.054.053-.122.151-.104"/><path fill-rule="evenodd" fill="#def2e5" d="m33.857 30.09c-.027.104-.1.14-.184.109-.113-.041-.295.004-.297-.194-.004-.103.066-.134.16-.103.124.04.274.035.321.188"/><path fill-rule="evenodd" fill="#f3faf5" d="m24.515 28.859c.098.012.253-.04.243.127-.01.146-.158.123-.264.125-.085.003-.207.047-.215-.106-.006-.182.136-.125.236-.146"/><path fill-rule="evenodd" fill="#f3faf6" d="m23.25 28.998c.181.012.271.12.278.29.01.152-.065.282-.221.296-.18.017-.261-.12-.271-.287-.01-.154.05-.266.214-.299"/><path fill-rule="evenodd" fill="#f9fcfa" d="m41.665 34.395c-.026.166-.126.283-.319.283-.155-.002-.213-.115-.197-.252.015-.186.126-.306.315-.303.149.004.207.111.201.272"/><path fill-rule="evenodd" fill="#e7f5ec" d="m32.28 29.548c.101.062.304-.002.333.198.009.076-.075.115-.142.1-.131-.029-.314.018-.33-.193-.003-.065.026-.135.139-.105"/><path fill-rule="evenodd" fill="#f5fbf7" d="m35.02 30.637c-.019.173-.104.294-.279.294-.172.002-.233-.118-.225-.276.014-.174.113-.29.282-.297.168-.006.222.128.222.279"/></g></g></g></switch></svg>