<svg xmlns="http://www.w3.org/2000/svg" viewBox="0 0 64 64" enable-background="new 0 0 64 64"><switch><g><path fill="#e6e7e8" d="m0 25h64v14h-64z"/><path fill="#ec1c24" d="m54 10h-44c-6.627 0-10 4.925-10 11v4h64v-4c0-6.075-3.373-11-10-11"/><path fill="#1b75bb" d="m0 43c0 6.075 3.373 11 10 11h44c6.627 0 10-4.925 10-11v-4h-64v4"/><g><path fill-rule="evenodd" fill="#fe0505" d="m40.55 35.821c.02 1.535-.394 2.953-1.132 4.287-.063.117-.12.232-.181.35-.313.391-.554.838-.93 1.18-.095.006-.108-.059-.115-.131.016-.178.131-.303.231-.438 1.236-1.609 1.846-3.422 1.837-5.455-.014-3.146-.003-6.291-.003-9.434 0-.123-.009-.244 0-.361.021-.285-.086-.436-.391-.404-.083.006-.167 0-.252 0-5.343 0-10.685 0-16.03 0-.073 0-.145 0-.218 0-.406.008-.42.018-.422.434-.005 2.363 0 4.73 0 7.096 0 .898.004 1.799-.003 2.699-.011 2.02.607 3.822 1.833 5.422.102.133.216.26.235.438-.007.072-.02.137-.113.131-.374-.34-.618-.785-.93-1.176-.558-.996-1-2.035-1.194-3.174-.086-.52-.131-1.045-.131-1.574-.002-3.475 0-6.953 0-10.428 0-.049.007-.1.009-.145.125-.074.258-.039.39-.039 5.701 0 11.402 0 17.11 0 .472 0 .421-.049.421.426.002 3.301.002 6.604 0 9.906.001.129.021.261-.021.39"/><path fill-rule="evenodd" fill="#fa0406" d="m24.901 41.634c.026-.027.051-.057.075-.084.216-.027.323.141.442.266 1.406 1.447 3.113 2.313 5.11 2.541 2.688.307 5.05-.447 7.03-2.313.2-.189.334-.48.669-.492.027.027.054.057.08.086-1.282 1.504-2.906 2.473-4.832 2.852-3.317.656-6.157-.293-8.496-2.736-.033-.034-.05-.079-.077-.12"/><path fill-rule="evenodd" fill="#fefdfe" d="m42.34 20.226c-.038.088-.065.154-.094.221-.623 1.412-1.254 2.822-1.861 4.244-.113.262-.225.248-.449.15-2.929-1.279-5.995-1.836-9.184-1.713-2.6.104-5.102.666-7.49 1.717-.237.105-.333.088-.442-.164-.603-1.41-1.225-2.811-1.85-4.209-.08-.18-.08-.318.031-.492.446-.693.887-1.395 1.303-2.107.131-.227.251-.219.456-.141.681.266 1.367.506 2.046.777.225.088.355.07.516-.125.474-.574.982-1.119 1.459-1.689.148-.182.258-.18.442-.07.641.381 1.294.732 1.93 1.115.194.115.316.123.496-.029.574-.492 1.172-.955 1.748-1.443.165-.143.26-.133.42.002.567.482 1.154.936 1.72 1.422.182.154.309.182.526.049.643-.393 1.31-.748 1.959-1.133.167-.098.258-.086.388.064.486.576.996 1.137 1.482 1.715.145.172.261.221.482.131.712-.281 1.437-.531 2.153-.807.164-.064.246-.047.34.111.454.748.919 1.486 1.381 2.232.036.056.065.121.092.172"/><path fill-rule="evenodd" fill="#fe2d2d" d="m40.55 35.821c-.007-.154-.022-.311-.022-.467-.002-3.277-.005-6.555.002-9.832.003-.281-.051-.396-.369-.396-5.835.012-11.67.008-17.505.012-.024-.023-.051-.045-.075-.064.202-.006.406-.01.609-.01 5.692 0 11.388 0 17.08 0 .12 0 .237.004.357.01-.075.146-.044.307-.044.459-.002 3.289-.002 6.574-.002 9.863 0 .142-.02.283-.031.425"/><path fill-rule="evenodd" fill="#fefefe" d="m38.23 41.552c-.972 1.035-2.083 1.861-3.413 2.389-3.275 1.297-7.07.479-9.504-2.066-.109-.111-.223-.217-.334-.324-.972-1.186-1.677-2.504-1.981-4.02-.117-.576-.185-1.162-.185-1.75.003-3.398.005-6.797-.004-10.193-.002-.271.069-.334.336-.334 5.642.008 11.285.008 16.929 0 .273 0 .331.072.331.338-.011 3.373-.009 6.746-.006 10.119.001 2.218-.766 4.145-2.169 5.839"/><path fill-rule="evenodd" fill="#0092dc" d="m26.451 23.569c-1.074.293-2.135.631-3.157 1.076-.189.082-.265.053-.345-.133-.592-1.363-1.192-2.723-1.797-4.078-.067-.152-.058-.264.028-.398.412-.648.818-1.299 1.21-1.959.109-.184.214-.205.4-.135.705.27 1.414.525 2.124.787.086.031.169.092.271.068.016.008.031.021.047.031.193.369.221.787.347 1.174.116.379.219.762.292 1.15.071.408.225.795.289 1.201.067.414.309.785.291 1.216"/><path fill-rule="evenodd" fill="#171795" d="m33.787 18.11c.725-.418 1.454-.834 2.177-1.256.154-.09.259-.119.394.041.55.648 1.112 1.285 1.671 1.93.06.066.066.152.051.234-.091.451-.207.9-.338 1.342-.022.084-.092.137-.146.197-.022.1-.045.197-.065.293.052.436-.053.834-.298 1.193-.077.113-.086.24-.08.375-.021.396-.028.799-.335 1.113-1.135-.248-2.282-.438-3.438-.566-.138-.186-.089-.393-.066-.596.063-.189.071-.385.051-.584-.009-.098.005-.195.024-.293.064-.188.063-.379.049-.572-.009-.1.005-.197.022-.293.064-.188.064-.381.049-.572-.009-.098.005-.195.024-.293.064-.184.063-.377.049-.568-.009-.098.003-.191.022-.287.064-.178.061-.363.058-.547.003-.113.019-.224.125-.291"/><path fill-rule="evenodd" fill="#0092dc" d="m33.696 18.942c-.005.096-.007.189-.012.283-.08.189.022.395-.062.58-.003.096-.007.191-.012.285-.077.188.024.395-.06.58-.005.096-.007.189-.012.285-.077.188.024.395-.06.58-.005.096-.009.191-.014.285-.077.188.024.395-.06.578-.009.205-.018.404-.029.605-1.09-.059-2.182-.059-3.271-.021-.394.107-.303-.236-.394-.414-.019-.084-.029-.164-.025-.248.005-.221.036-.439-.053-.65-.073-.338-.134-.68-.089-1.027.002-.039.002-.078.004-.119 0-.191.016-.385-.051-.568-.021-.078-.029-.156-.024-.234.011-.195.016-.389-.056-.576-.029-.316-.16-.629-.051-.953.02-.035.049-.066.082-.09.646-.533 1.301-1.059 1.941-1.598.157-.137.253-.143.418-.008.651.547 1.316 1.074 1.977 1.611-.009.084-.02.168-.031.256-.073.186.028.393-.056.578"/><path fill-rule="evenodd" fill="#0092dc" d="m37.595 20.597c.145-.592.289-1.184.434-1.773.775-.283 1.554-.563 2.328-.855.216-.082.347-.094.484.148.36.635.752 1.254 1.152 1.869.122.186.122.332.026.523-.16.322-.327.645-.432.988-.113.373-.28.355-.589.219-.999-.441-2.033-.787-3.089-1.063-.101-.029-.21-.037-.314-.056"/><path fill-rule="evenodd" fill="#0093dc" d="m36.816 23.571c.129-.367.129-.771.335-1.113.994.176 1.931.541 2.864.906.632.248.63.254.36.867-.227.516-.229.516-.747.293-.913-.388-1.867-.654-2.812-.953"/><path fill-rule="evenodd" fill="#171795" d="m29.8 22.325c.003.074.007.148.012.221.035.158.049.316-.007.469-1.13.105-2.246.301-3.352.555-.227-.363-.282-.779-.387-1.18.104-.131.256-.164.409-.203.932-.232 1.882-.354 2.833-.471.143-.018.289-.025.414.072.107.166-.018.369.078.537"/><path fill-rule="evenodd" fill="#171795" d="m29.451 18.1l-.031.006c-.071.166-.229.152-.367.168-1.139.119-2.266.307-3.382.564-.16.037-.327.086-.474-.049l-.012.006c.538-.615 1.086-1.219 1.605-1.846.172-.205.294-.197.505-.072.713.42 1.437.816 2.156 1.223"/><path fill-rule="evenodd" fill="#fd0101" d="m37.23 22.08c.101-.396.198-.795.298-1.193 1.206.307 2.378.707 3.521 1.193.205.09.218.166.131.336-.14.275-.195.684-.415.809-.231.129-.557-.174-.841-.281-.885-.329-1.775-.637-2.694-.864"/><path fill-rule="evenodd" fill="#3898d9" d="m29.805 23.02c.002-.154.004-.311.007-.469.133.123-.045.457.296.438-.099.054-.199.056-.303.031"/><path fill-rule="evenodd" fill="#fe0000" d="m40.04 25.628c.003 1.15 0 2.297.016 3.447.003.236-.113.236-.286.236-1.017-.006-2.033-.006-3.052-.006-.075-.416-.026-.834-.031-1.252-.011-.73-.002-1.461-.004-2.193 0-.139-.007-.264.195-.258 1.055.02 2.108-.031 3.162.026"/><path fill-rule="evenodd" fill="#fe0101" d="m26.558 29.31c1.105 0 2.211 0 3.315 0 .116.1.105.238.105.367.002.98.004 1.965 0 2.947-.003.398-.071.467-.461.469-.862.01-1.726.01-2.586 0-.383-.002-.407-.033-.407-.412-.002-1.031-.002-2.061 0-3.09 0-.094-.022-.193.034-.281"/><path fill-rule="evenodd" fill="#fe0000" d="m33.33 29.31c1.105 0 2.211 0 3.315.004.059.084.034.184.034.279.002 1.041-.005 2.082.006 3.125.003.256-.073.377-.34.377-.912 0-1.821.002-2.73 0-.273-.002-.39-.135-.39-.4-.002-1.029-.004-2.061.003-3.088 0-.112.009-.219.102-.297"/><path fill-rule="evenodd" fill="#fe0000" d="m40.03 33.06c.031 1.135.025 2.268-.004 3.402-.007.219-.082.283-.298.281-1.01-.012-2.01-.006-3.01-.006-.115-.098-.102-.234-.104-.367-.002-.98-.007-1.959.003-2.941 0-.381.03-.404.411-.404.907 0 1.816 0 2.727 0 .093-.001.193-.02.279.035"/><path fill-rule="evenodd" fill="#fe0000" d="m26.486 36.733c-.929 0-1.858 0-2.788.002-.509 0-.509 0-.538-.498-.056-1-.007-2.01-.024-3.02-.005-.164.082-.197.223-.197.984.002 1.968.006 2.95 0 .27-.002.278.174.283.359.006.527.002 1.055.002 1.582 0 .455.002.912-.002 1.367-.003.142.021.292-.106.403"/><path fill-rule="evenodd" fill="#fe0000" d="m33.26 44.01c-1.101.24-2.206.246-3.312.002-.082-.451-.024-.904-.031-1.357-.011-.65.005-1.297-.009-1.943-.002-.234.089-.33.312-.332.925-.006 1.848-.006 2.771.002.191 0 .313.063.312.295-.007 1.078 0 2.156-.004 3.234-.001.04-.024.068-.039.099"/><path fill-rule="evenodd" fill="#fe7f7f" d="m33.26 44.01c0-1.066-.007-2.135.007-3.199.002-.242-.054-.334-.316-.33-.898.016-1.796.016-2.694 0-.265-.004-.316.092-.313.332.013 1.068.006 2.133.006 3.199-.136-.098-.068-.242-.068-.361-.007-.947-.012-1.895.002-2.84.002-.242-.056-.33-.315-.326-.898.018-1.797.018-2.695 0-.261-.004-.32.084-.313.328.016.525.002 1.055 0 1.578 0 .012-.005.029-.012.031-.018.008-.037.006-.056.006-.211-.303-.124-.65-.131-.979-.022-.934.098-.82-.827-.832-.287-.002-.573.018-.858-.053-.096-.248.12-.139.185-.141.442-.012.888-.018 1.332-.002.235.008.307-.066.307-.303-.013-1.127-.007-2.258-.007-3.385 0-1.125-.004-2.252.005-3.377.002-.23-.06-.313-.3-.311-.886.014-1.772.016-2.66 0-.273-.004-.369.063-.364.357.016.941-.002 1.889-.007 2.834-.115-.52-.04-1.047-.056-1.572-.014-.453.011-.908-.007-1.363-.009-.256.082-.328.332-.324.909.012 1.818-.006 2.728.012.276.004.341-.08.336-.344-.013-1.111-.007-2.225-.007-3.34-.033-.031-.06-.068-.079-.107-.074-.172-.056-.354-.059-.533-.002-.838-.004-1.676.003-2.514 0-.281-.107-.381-.383-.377-.768.01-1.534.006-2.3 0-.265-.002-.359.105-.359.365.002.836.004 1.678 0 2.516 0 .18.018.359-.05.531-.02.041-.044.08-.075.111-.131-.066-.08-.188-.08-.285-.002-1.043.009-2.086-.007-3.127-.007-.281.098-.34.356-.336.92.014 1.843.016 2.766-.002.27-.004.35.08.345.348-.013 1.139-.007 2.277-.007 3.412 0 1.105.009 2.209-.004 3.314-.002.264.042.381.349.371.874-.021 1.753-.021 2.629 0 .303.01.349-.107.347-.371-.014-1.105-.005-2.209-.005-3.314 0-1.137.007-2.275-.009-3.414-.002-.273.085-.35.352-.346.923.016 1.846.016 2.769 0 .267-.004.354.072.35.344-.012 1.141-.005 2.279-.003 3.416-.002 1.117.005 2.236-.006 3.352-.005.236.044.338.311.332.898-.016 1.802-.016 2.7.002.269.004.311-.098.311-.334-.009-1.115-.002-2.234 0-3.348-.002-1.152-.004-2.303-.006-3.451 0-.166-.007-.311.233-.309 1.019.01 2.037.006 3.055.006.052 0 .092.021.111.07-1.021-.004-2.041-.002-3.06-.016-.242-.002-.273.109-.271.309.009 1.129.007 2.258.009 3.385-.002 1.129.003 2.254-.011 3.381-.002.23.064.307.303.305.887-.014 1.771-.008 2.659-.002.122.002.265-.066.364.07-1.01 0-2.02.004-3.02-.006-.233-.002-.309.066-.307.305.014 1.125.009 2.252.011 3.379-.002 1.125.005 2.252-.011 3.377-.005.266.1.322.336.313.442-.016.887-.006 1.329-.002.074.002.234-.059.158.135-.413.1-.834.043-1.252.057-.4.014-.416.027-.425.436-.004.287-.002.574 0 .863 0 .182-.033.355-.136.512-.142-.043-.071-.166-.071-.242-.011-.479-.015-.959-.002-1.438.007-.209-.068-.262-.267-.26-.909.008-1.821.012-2.73-.002-.252-.006-.329.064-.325.318.016.957.007 1.916.003 2.877-.004.11.054.241-.073.329"/><path fill-rule="evenodd" fill="#fe0000" d="m24.67 40.563c.352-.17.723-.061 1.083-.07.733-.021.733-.006.733.715 0 .404 0 .811 0 1.219-.735-.494-1.309-1.147-1.816-1.864"/><path fill-rule="evenodd" fill="#fe0202" d="m36.718 42.43c-.002-.551.003-1.1-.009-1.648-.004-.207.04-.313.273-.291.514.051 1.039-.084 1.548.072-.509.714-1.083 1.367-1.812 1.867"/><path fill-rule="evenodd" fill="#fe0101" d="m26.467 29.24c.005.021.011.043.02.064-1.101-.002-2.203-.004-3.302-.008.002-.018.005-.039.009-.057.116-.135.275-.135.432-.137.803-.008 1.607-.008 2.413 0 .154.003.313.003.428.138"/><path fill-rule="evenodd" fill="#fe0000" d="m25.2 18.792c.982-.178 1.952-.422 2.946-.533.427-.049.852-.1 1.276-.15.035.346.071.693.104 1.039.031.086.038.166-.009.246-.411.184-.863.15-1.294.217-.757.115-1.508.246-2.253.414-.158.035-.322.111-.48-.004-.133-.401-.263-.801-.29-1.229"/><path fill-rule="evenodd" fill="#171795" d="m25.488 20.02c1.316-.346 2.653-.57 4.01-.672.111.109-.005.268.08.383.004.074.009.146.014.219.077.189-.031.398.064.586-.005.018-.012.031-.022.045-.087.121-.221.129-.354.145-1.036.113-2.068.273-3.087.504-.14.031-.284.066-.413-.039-.098-.392-.196-.783-.294-1.171"/><path fill-rule="evenodd" fill="#fe0000" d="m25.782 21.19c1.271-.285 2.548-.541 3.854-.609.035.363.068.729.104 1.094.026.053.035.1-.022.137-1.163.086-2.306.283-3.44.551-.068.016-.14.02-.211.027-.094-.399-.192-.799-.285-1.2"/><path fill-rule="evenodd" fill="#f6f8f9" d="m23.676 23.05c-.333-.076-.627-.221-.805-.535-.024-.043-.174-.043-.069-.141.087-.08.109.039.165.064.136.064.24.201.413.176.252.049.501.057.75-.01.402-.156.698-.42.841-.838.093-.113-.021-.273.089-.385.033-.033.064-.049.03-.014-.002.002.019.033.027.055v.008c.064.199.044.402.011.605-.195.518-.512.906-1.09 1.016-.12.038-.242.038-.362-.001"/><path fill-rule="evenodd" fill="#c7b71c" d="m23.691 20.313c-.022.043-.047.082-.064.125-.04.096.016.254-.098.285-.143.039-.216-.107-.3-.201-.08-.08-.143-.168-.123-.289.009-.037.024-.07.047-.1.085-.082.183-.117.298-.084.11.061.2.139.24.264"/><path fill-rule="evenodd" fill="#e9d017" d="m23.691 20.313c-.14-.016-.227-.084-.24-.23-.018-.027-.021-.059-.013-.092.053-.084.11-.16.23-.117.096.086.254.127.228.305-.015.121-.116.121-.205.134"/><path fill-rule="evenodd" fill="#f0d416" d="m23.669 19.874c-.066.049-.135.098-.204.145-.026-.021-.049-.045-.061-.076-.013-.051-.011-.098.005-.146.031-.072.064-.145.08-.221.016-.029.038-.049.069-.059.07-.027.171-.117.213-.025.063.132-.031.263-.102.382"/><path fill-rule="evenodd" fill="#cdba19" d="m22.66 20.03c-.103-.074-.209-.152-.003-.229.107-.039.223-.061.296-.158.12.033.167.119.178.234-.024.125-.122.156-.227.184-.084.022-.16-.044-.244-.031"/><path fill-rule="evenodd" fill="#e0ca1a" d="m22.965 19.589c-.007-.094-.024-.225.073-.25.106-.025.178.09.244.172.107.051.134.145.134.252 0 .035-.005.066-.016.1-.145.117-.205-.01-.28-.096-.033-.077-.078-.143-.155-.178"/><path fill-rule="evenodd" fill="#eed316" d="m23.17 20.233c.018.096.037.191.056.289-.109.025-.216.049-.325.074-.111.051-.113-.029-.124-.102.06-.135.153-.24.295-.291.035-.003.069.007.098.03"/><path fill-rule="evenodd" fill="#d7be14" d="m23.17 20.233c-.024 0-.047-.002-.069-.004-.096-.002-.189.064-.284.006-.054-.066-.107-.135-.16-.201.071-.121.162-.037.244-.027.113.01.312-.143.275.146-.002.028-.004.053-.006.08"/><path fill-rule="evenodd" fill="#f0d516" d="m22.82 20.235c.093-.01.185-.227.284-.006-.054.129-.183.158-.282.223-.042-.021-.049-.049-.022-.086.007-.043.013-.086.02-.131"/><path fill-rule="evenodd" fill="#f2d717" d="m22.965 19.589c.188-.113.211.004.213.152.033.041.031.088.016.135-.026.02-.058.021-.089.006-.049-.08-.1-.158-.151-.234-.008-.024-.003-.042.011-.059"/><path fill-rule="evenodd" fill="#2e6e8e" d="m24.13 22.608c-.249.107-.498.115-.75.01.249-.006.501-.006.75-.01"/><path fill-rule="evenodd" fill="#2b6a89" d="m25.12 21.427c-.146.072-.024.262-.146.344 0-.176 0-.352 0-.541.155.013.137.115.146.197"/><path fill-rule="evenodd" fill="#2c6f90" d="m25.13 22.04c-.004-.201-.007-.4-.011-.604.112.198.109.401.011.604"/><path fill-rule="evenodd" fill="#a59310" d="m23.392 19.802c-.103-.07-.056-.199-.107-.291.092.002.183.004.274.006-.012.023-.021.043-.031.064-.025.088-.072.158-.136.221"/><path fill-rule="evenodd" fill="#0778b1" d="m23.676 23.05c.123 0 .242 0 .362.002-.12.091-.242.086-.362-.002"/><path fill-rule="evenodd" fill="#323713" d="m22.8 20.366c.007.027.016.057.022.086-.024.074.011.119.082.145-.044.033-.103.096-.143.027-.048-.08-.026-.178.039-.258"/><path fill-rule="evenodd" fill="#ddc415" d="m35.14 21.253c-.259.133-.231.436-.372.637-.077.057-.126.037-.146-.055.138-.213.216-.441.143-.701-.138.043-.129.18-.212.248-.068.012-.115.006-.073-.08.101-.25-.037-.479-.062-.717-.029-.15.102-.244.131-.373-.011-.018-.009-.037.004-.049.139-.064.189.07.28.115.063.045.132.078.193.125.111.105.022.199-.026.293-.031.053-.033.098.026.135.027.016.05.033.069.057.016.025.026.055.031.086.016.091.026.185.014.279"/><path fill-rule="evenodd" fill="#e1c715" d="m34.779 20.376c-.076-.07-.151-.143-.228-.213-.033-.156.087-.387-.23-.4-.099-.006-.054-.125-.019-.203.034-.07.13-.111.099-.211-.019-.063-.172-.102-.052-.186.073-.051.156.012.218.072.179-.002.365-.047.501.121.073.021.197.027.178.115-.016.07-.129.121-.225.051-.167.072-.031.217-.078.32-.106.165-.006.389-.164.534"/><path fill-rule="evenodd" fill="#f1d616" d="m36.13 21.644c-.009-.129-.082-.189-.209-.201-.075-.025-.169-.025-.209-.119-.033-.078-.049-.16-.046-.244.049-.223.235-.145.373-.174.002-.074-.026-.129-.073-.18-.056-.088-.145-.193-.033-.273.104-.076.244-.146.378-.027.022.027.035.055.049.086.04.119-.033.254.051.367.083.215.024.43.012.645-.071.072-.145.143-.218.215-.068.002-.119-.01-.075-.095"/><path fill-rule="evenodd" fill="#e0c715" d="m36.29 20.526c-.002-.023-.007-.049-.009-.07.016-.031.04-.053.073-.064.127-.008.253-.016.38-.02.316-.012.125.123.063.223-.153.102-.278.219-.227.43.071.201-.029.352-.145.498-.16-.199-.033-.43-.067-.645-.09-.104.019-.248-.068-.352"/><path fill-rule="evenodd" fill="#e0c715" d="m36.35 20.392c-.022.021-.049.043-.073.064-.136-.066-.221.059-.327.092.04.041.078.082.118.121.091.076-.089.219.066.281-.031.039.071.203-.094.111-.136-.076-.246-.148-.335.043-.045.105-.045.105-.167.006-.007-.016-.012-.033-.016-.049 0-.018 0-.037 0-.053.08-.23.145-.469.253-.689.192.022.408-.138.575.073"/><path fill-rule="evenodd" fill="#d7bf14" d="m35.06 20.954c0-.025 0-.049 0-.07-.101-.115-.026-.184.051-.266.111-.115.063-.293.136-.43.012-.01.024-.021.036-.035.117.027.23.053.349.08-.014.051-.051.092-.068.141.011.061.066.068.104.1.051.201-.109.359-.104.555l.002-.004c-.049.047-.098.039-.158.023-.042-.014-.051-.215-.148-.025-.038.072-.145-.004-.2-.069"/><path fill-rule="evenodd" fill="#9d0202" d="m35.05 19.02c.237-.145.451-.074.66.064.042.064.069.129.038.205-.007.061-.038.098-.101.111-.126-.035-.253-.07-.38-.105-.084-.082-.205-.135-.217-.275"/><path fill-rule="evenodd" fill="#ccb514" d="m34.779 20.376c.026-.195-.101-.43.138-.574.011.012.02.023.029.031.002.02.006.035.006.049.003-.018.005-.035.012-.057l.026-.025c.098.117.195.236.294.354l-.014.031c-.042.145-.162.205-.282.266-.071-.026-.14-.048-.209-.075"/><path fill-rule="evenodd" fill="#e22505" d="m35.05 19.02c.117.057.229.119.218.275-.064.031-.153-.014-.202.064-.178.008-.345-.035-.501-.121.149-.105.291-.22.485-.218"/><path fill-rule="evenodd" fill="#edd216" d="m35.06 20.954c.167.023.354-.08.505.07 0 .027 0 .053.002.076.024.207-.136.139-.235.158-.064-.002-.129-.004-.193-.006-.1-.079-.146-.173-.079-.298"/><path fill-rule="evenodd" fill="#edd216" d="m35.564 21.03c-.083-.186-.047-.352.073-.506-.024-.027-.036-.053-.033-.088.015-.068.049-.123.117-.148.027 0 .047.01.058.033.059.278-.059.496-.215.709"/><path fill-rule="evenodd" fill="#e2c915" d="m35.782 21.317c.049.041.096.084.142.125-.206.01-.302.186-.442.297-.058.008-.098.002-.062-.072.058-.107.084-.225.075-.346.094-.092.192-.082.287-.004"/><path fill-rule="evenodd" fill="#ceb713" d="m35.782 21.317c-.096.002-.189.002-.287.004-.049-.033-.129.014-.162-.061.058-.084.209-.029.235-.16.047.012.091.068.141.004.084.049.07.135.073.213"/><path fill-rule="evenodd" fill="#d3bb15" d="m36.13 21.644c.025.031.05.063.074.094-.071.102-.145.203-.216.307-.078.049-.147.057-.202-.031.115-.124.229-.245.344-.37"/><path fill-rule="evenodd" fill="#c7220c" d="m35.789 22.01c.066.012.133.021.202.031.02.146-.069.191-.188.205-.068.008-.117-.029-.135-.092-.028-.099.054-.115.121-.144"/><path fill-rule="evenodd" fill="#90020c" d="m35.908 19.44c.114.064.24.115.316.232.013.025.009.045-.014.063-.187.002-.32-.096-.44-.227.032-.052.099-.034.138-.068"/><path fill-rule="evenodd" fill="#a10106" d="m36.21 19.735c.005-.021.009-.043.014-.063.138.018.273.039.411.059-.147.073-.287.125-.425.004"/><path fill-rule="evenodd" fill="#870107" d="m36.07 19.233c.101.008.203.018.367.031-.188.139-.322.133-.465.047.014-.052.065-.052.098-.078"/><path fill-rule="evenodd" fill="#da2406" d="m34.479 21.624c.016.117-.058.139-.151.133-.06-.006-.126-.016-.122-.096.003-.07.076-.08.12-.111.069-.014.126-.004.153.074"/><path fill-rule="evenodd" fill="#c9260a" d="m34.621 21.835c.035.049.089.061.146.055.016.105-.031.158-.133.154-.064 0-.123-.023-.127-.094-.004-.068.063-.09.114-.115"/><path fill-rule="evenodd" fill="#dfc616" d="m36.569 21.02c-.104-.24 0-.369.227-.43-.1.132-.216.253-.227.43"/><path fill-rule="evenodd" fill="#c70000" d="m36.07 19.233c-.033.025-.066.053-.098.078-.064-.004-.129-.004-.193-.006l-.022.025-.028-.02c-.005-.076-.009-.152-.014-.23.118.052.235.105.355.153"/><path fill-rule="evenodd" fill="#e0c715" d="m35.722 20.286c-.026.055-.056.107-.082.164-.069-.037-.189.09-.218-.07.038-.094.113-.137.211-.146.029.017.06.035.089.052"/><path fill-rule="evenodd" fill="#447bc8" d="m33.696 18.942c.011-.193-.058-.396.06-.578-.002.194.054.393-.06.578"/><path fill-rule="evenodd" fill="#c92d0a" d="m35.36 21.913c-.02.168-.14.158-.231.092-.1-.068-.013-.113.058-.139.064-.01.131-.027.173.047"/><path fill-rule="evenodd" fill="#447ac8" d="m33.552 20.671c.011-.193-.058-.396.06-.58-.003.195.053.398-.06.58"/><path fill-rule="evenodd" fill="#447bc8" d="m33.48 21.536c.011-.193-.058-.395.06-.58-.002.195.052.398-.06.58"/><path fill-rule="evenodd" fill="#bea816" d="m34.479 21.624c-.051-.025-.102-.053-.153-.074.052-.084.103-.164.153-.248.024.025.049.053.073.08.015.092-.025.168-.073.242"/><path fill-rule="evenodd" fill="#447ac8" d="m33.623 19.806c.013-.193-.059-.395.062-.58-.002.199.051.398-.062.58"/><path fill-rule="evenodd" fill="#437bc8" d="m33.407 22.399c.011-.193-.056-.396.063-.578-.003.196.051.397-.063.578"/><path fill-rule="evenodd" fill="#f80000" d="m35.727 19.312c.018-.004.035-.004.051-.006.045.045.087.09.131.135-.018.074-.082.061-.135.068-.043-.035-.083-.076-.123-.111.024-.03.051-.059.076-.086"/><path fill-rule="evenodd" fill="#ccb514" d="m34.548 20.21c.014.145-.08.25-.131.373-.094-.174.058-.26.131-.373"/><path fill-rule="evenodd" fill="#c9b215" d="m35.36 21.913c-.058-.016-.115-.031-.174-.047.078-.066.156-.135.234-.199.02.023.042.047.062.072-.015.076-.035.147-.122.174"/><path fill-rule="evenodd" fill="#ccb514" d="m34.917 19.802c-.058-.127-.129-.262.104-.279-.071.084-.04.182-.031.277l-.024.025-.029.002-.018-.025h-.002"/><path fill-rule="evenodd" fill="#e9cf17" d="m31.879 19.417c.061-.17.005-.35.014-.521-.089-.174.026-.203.153-.225.265-.055.525-.047.785.018.08-.008.146.033.216.066.118.023.145.111.148.213.136.135-.03.26-.006.389-.169.223-.367.414-.59.58l-.022.012-.021-.008c-.071-.072-.158-.135-.113-.256.03-.035.06-.076.084-.115-.049.016-.031.072-.066.098-.191.211-.273-.02-.394-.096-.054-.063-.132-.094-.188-.155"/><path fill-rule="evenodd" fill="#e9d017" d="m31.07 21.675c-.249-.063-.009-.309-.155-.412.16-.104-.045-.176-.022-.266.053-.135.197-.047.275-.119.273-.053.547-.029.82-.018.165.053.379.072.256.34.096.166.014.318-.031.475-.209.119-.258.441-.566.432-.031-.002-.063-.006-.096-.008-.125-.105-.002-.186.038-.295-.114.047-.145.238-.305.156-.12-.063-.1-.223-.214-.285"/><path fill-rule="evenodd" fill="#ecd216" d="m30.02 19.411c-.024-.072.08-.16-.026-.219-.183-.098-.016-.15.024-.219-.013-.148.076-.209.196-.25.289-.094.582-.131.885-.07.054.016.104.031.155.055-.049.318.058.668-.206.941-.114.117-.212.262-.403.131-.002-.012-.004-.025-.009-.033-.035-.061.069-.129-.011-.172-.012-.006-.045.1-.085.146-.098.078-.204.047-.237-.045-.054-.144-.194-.171-.283-.265"/><path fill-rule="evenodd" fill="#c9b414" d="m30.02 19.411c.151.018.29.053.354.221.03.082.093.09.157.023.069-.027.104.012.129.068.249.029.521-.256.514-.541-.004-.154-.026-.311.067-.449.14-.021.115.059.084.139.116.344-.075.623-.223.891-.15.271-.731.232-.878-.043-.059-.114-.198-.168-.204-.309"/><path fill-rule="evenodd" fill="#7c7110" d="m32.82 18.778c-.233-.104-.487.055-.719-.059-.049-.043-.033-.109-.058-.16-.04-.125-.029-.221.136-.203.082.01.164.031.237-.031.123.045.243.082.374.059.066.014.134.023.2.037.032.162-.194.197-.17.357"/><path fill-rule="evenodd" fill="#b4a011" d="m31.07 21.675c.263-.115.087.301.305.238.098-.027.029-.109.038-.172.02-.125.111-.09.193-.082.064.006.145-.047.18.049.033.086-.031.131-.089.172-.082.053-.162.104-.146.219-.31.029-.472-.112-.481-.424"/><path fill-rule="evenodd" fill="#cfba17" d="m32.6 19.937c.141-.25.356-.424.59-.58-.07.326-.274.507-.59.58"/><path fill-rule="evenodd" fill="#e3ca16" d="m32.791 18.384c-.009.215-.174.105-.267.117-.125.012-.12-.086-.107-.176.174-.287.274-.111.374.059"/><path fill-rule="evenodd" fill="#cfba17" d="m32.467 19.655c.03.096.06.189.089.285-.205-.025-.398-.066-.496-.283-.092-.068-.078-.117.031-.148.127.047.191.252.378.148l-.002-.002"/><path fill-rule="evenodd" fill="#686416" d="m32.24 21.2c-.031-.107 0-.273-.202-.24-.064-.082-.202.004-.251-.113-.009-.033-.009-.066 0-.098.018-.031.04-.053.071-.07.115-.025.227-.094.347-.027.014.078-.146.178.002.229.265.091.078.206.033.319"/><path fill-rule="evenodd" fill="#a99611" d="m32.82 18.778c-.103-.195.122-.234.171-.357.044-.041.098-.082.153-.045.061.039.036.096.007.15-.033.059-.058.123-.087.186.021.037.014.063-.02.08-.075-.004-.15-.008-.224-.014"/><path fill-rule="evenodd" fill="#a39e23" d="m31.642 22.11c.148-.123.369-.174.409-.416.011-.072.1-.02.157-.016-.135.094-.098.293-.26.389-.111.067-.191.11-.306.043"/><path fill-rule="evenodd" fill="#f1d616" d="m30.449 18.345c.016-.02.033-.037.052-.055.138-.098.213.006.298.09.022.02.044.039.064.059-.092.256-.256.16-.418.092-.043-.063-.04-.126.004-.186"/><path fill-rule="evenodd" fill="#72650b" d="m30.452 18.503c.138-.02.289.059.411-.064.035-.016.071-.031.104-.047.075.037.164.006.237.049-.015.043-.028.086-.042.129-.022.029-.049.053-.082.07-.195.041-.4-.029-.596.041-.061-.006-.099-.039-.125-.092-.001-.061.015-.108.093-.086"/><path fill-rule="evenodd" fill="#d0bb17" d="m31.753 20.521c.02.023.04.047.06.074.049.043.049.092.007.145-.087.086-.185.104-.298.064-.033-.016-.061-.039-.08-.068-.005-.123.087-.182.167-.248.052-.012.101-.005.144.033"/><path fill-rule="evenodd" fill="#a8a324" d="m30.17 18.632c-.071-.074-.143-.154-.216-.236.132-.092.242-.014.354.033.056.057.003.115-.004.176-.016.025-.038.051-.064.068-.037.006-.059-.004-.07-.041"/><path fill-rule="evenodd" fill="#76690b" d="m31.18 20.659c.078.016.146-.008.207-.059.06.023.033.098.075.135l-.011.016c.018.016.026.033.022.053-.003.021-.007.029-.014.029-.078.063-.18.051-.269.074-.05-.018-.069-.061-.09-.102-.011-.023-.021-.047-.033-.07.013-.06.044-.097.113-.076"/><path fill-rule="evenodd" fill="#80730e" d="m30.17 18.632c.021.01.042.016.063.018.024.02.038.043.044.072-.004.027-.018.051-.04.068-.136-.014-.155.107-.218.184-.356-.293.133-.213.151-.342"/><path fill-rule="evenodd" fill="#a19314" d="m31.819 20.739c-.002-.051-.005-.1-.007-.145.127.039.229-.051.343-.064.122-.016.108.051.047.121-.127.03-.254.059-.383.088"/><path fill-rule="evenodd" fill="#3895d7" d="m29.718 21.812c.007-.043.014-.09.022-.137.12.209.04.436.06.65-.113-.156-.046-.344-.082-.513"/><path fill-rule="evenodd" fill="#d9c014" d="m31.2 18.44c-.098.076-.171.041-.237-.049.253-.105.253-.105.237.049"/><path fill-rule="evenodd" fill="#4184ca" d="m29.58 19.731c-.096-.113-.051-.256-.08-.383.009-.066.018-.133.024-.201.114.188.042.391.056.584"/><path fill-rule="evenodd" fill="#3997d9" d="m29.658 20.536c-.123-.182-.063-.387-.064-.586.124.186.04.393.064.586"/><path fill-rule="evenodd" fill="#2f513f" d="m31.1 18.579c.022-.002.043-.004.063-.01.031.111.394.053.16.303-.016-.053.009-.131-.084-.139-.047-.004-.094-.006-.139-.008-.04-.048-.046-.097 0-.146"/><path fill-rule="evenodd" fill="#135568" d="m32.04 18.56c.054.041.063.098.058.16-.138-.023-.231.008-.209.176-.214-.235.088-.231.151-.336"/><path fill-rule="evenodd" fill="#baa917" d="m30.799 18.38c-.098-.029-.2-.061-.298-.09.204-.32.222-.018.298.09"/><path fill-rule="evenodd" fill="#eed316" d="m31.461 20.735c-.077-.018-.058-.086-.075-.135.02-.027.04-.053.058-.08.054-.041.106-.043.16.002.001.106-.091.145-.143.213"/><path fill-rule="evenodd" fill="#908b1e" d="m31.18 20.659c-.038.025-.073.051-.111.076-.042-.061-.153-.131-.075-.195.092-.072.168.004.186.119"/><path fill-rule="evenodd" fill="#b9a411" d="m33.05 18.792c.004-.025.013-.053.018-.08.202.006.275.076.133.256-.051-.057-.102-.117-.151-.176"/><path fill-rule="evenodd" fill="#b5a314" d="m31.604 20.522c-.054 0-.106 0-.16-.002.103-.174.205-.221.31 0-.053.002-.102.002-.15.002"/><path fill-rule="evenodd" fill="#878019" d="m30.24 18.567c.021-.047.046-.094.068-.139.047-.029.098-.057.145-.084 0 .055.003.105.003.158-.022.023-.047.043-.071.066-.049.044-.099.054-.145-.001"/><path fill-rule="evenodd" fill="#274c42" d="m32.09 19.509c-.054.039-.052.094-.031.148-.141-.02-.111-.166-.181-.238.071.029.167-.002.212.09"/><path fill-rule="evenodd" fill="#3a431f" d="m31.1 20.806c.024.023.052.049.076.072.022.018.028.035.02.051-.011.016-.02.023-.026.023-.096.016-.189.029-.282.045-.033-.178.206-.057.212-.191"/><path fill-rule="evenodd" fill="#e4cb17" d="m40.04 20.02c-.083.123-.185.262-.225-.006-.031-.219-.169-.291-.334-.357-.029-.225.214-.023.245-.154.046-.01-.034-.029-.01.01.014.025.01.033-.018.029-.073-.014-.207.059-.164-.117.033-.064.16-.057.131-.168-.045-.168-.073-.328.185-.328.045.061.1.088.176.072.029.021.051.045.064.076.035.205-.075.416.024.621.017.115-.018.223-.074.322"/><path fill-rule="evenodd" fill="#e2c815" d="m40.472 19.14c.069.029.138.059.205.086-.078.105.12.109.07.203-.188.098-.146.268-.133.432.013.146-.047.16-.151.076-.127-.094-.24-.197-.265-.363 0-.059.009-.141.063-.145.251-.014-.063-.111.024-.143.023-.099.089-.146.187-.146"/><path fill-rule="evenodd" fill="#d2bd18" d="m40.472 19.14c-.054.059-.106.115-.158.174-.322.209-.188-.143-.275-.223-.002-.029-.007-.059-.009-.088.004-.01.007-.023.014-.029.106-.08.197-.266.324-.217.126.051.095.244.104.383"/><path fill-rule="evenodd" fill="#f4d817" d="m40.04 20.02c-.08-.096.026-.197-.01-.297.05-.039.104-.053.167-.039.113.066.122.15.047.25-.069.028-.136.057-.204.086"/><path fill-rule="evenodd" fill="#efd416" d="m40.25 19.937c.002-.084-.002-.166-.087-.215-.026-.08-.022-.143.087-.137.094.102.198.199.216.352-.073.029-.145.033-.216 0"/><path fill-rule="evenodd" fill="#a69411" d="m39.538 19.427c.02.113.138.064.197.117-.06.094-.216-.027-.251.115-.051-.008-.143.023-.138-.049.009-.095.109-.138.192-.183"/><path fill-rule="evenodd" fill="#687e3d" d="m39.854 18.931c-.216.021-.171.191-.185.328-.08-.127-.134-.266-.031-.389.042-.051.158-.014.216.061"/><path fill-rule="evenodd" fill="#d8c116" d="m40.747 19.429c-.058-.057-.135-.102-.07-.203.07-.002.15-.002.178.07.031.08-.034.117-.108.133"/><path fill-rule="evenodd" fill="#040000" d="m39.24 22.323c.013-.021.026-.039.04-.063-.052-.139-.158-.121-.27-.098-.238.014-.474.027-.716.043 0-.17.153-.074.197-.172-.182-.234-.478-.082-.798-.207.207-.039.32-.059.429-.082-.009-.248-.286-.188-.371-.355.225-.156.354-.135.581.074.275.252.68.395 1.082.406.465.014.856.283 1.304.355.064.01.146.059.122.143-.026.107-.124.107-.204.072-.183-.078-.36-.17-.548-.262-.073.201.103.256.16.371.038.078.165.199.007.268-.185.078-.06-.113-.108-.156-.181-.143-.369-.264-.612-.262-.11.023-.24.119-.295-.075"/><path fill-rule="evenodd" fill="#430000" d="m39.24 22.323c.077.102.197.049.295.076-.18.063-.359.143-.533-.027.078-.08.162-.043.238-.049"/><path fill-rule="evenodd" fill="#e7e7e7" d="m39.01 22.16c.129-.148.247-.035.367.014.058.025.075.049.004.072-.031.012-.068.01-.102.012-.092-.032-.18-.065-.269-.098"/><path fill-rule="evenodd" fill="#fe0000" d="m29.944 29.31c0-1.113.007-2.227-.006-3.34-.003-.256.051-.359.333-.355.888.018 1.772.018 2.659 0 .283-.006.334.102.332.354-.012 1.115-.005 2.229-.003 3.342-.138.143-.317.146-.498.146-.773.006-1.545.006-2.319 0-.179-.001-.359-.005-.498-.147"/><path fill-rule="evenodd" fill="#fefefe" d="m29.944 29.31c1.105 0 2.211 0 3.315 0-.002 1.125-.006 2.252.003 3.377 0 .227-.052.311-.296.309-.909-.014-1.821-.014-2.729 0-.245.002-.3-.082-.298-.309.01-1.125.005-2.252.005-3.377"/><path fill-rule="evenodd" fill="#fe0000" d="m36.646 36.737c-.002 1.102-.013 2.201 0 3.305.005.285-.053.396-.366.387-.86-.02-1.726-.016-2.586 0-.268.006-.379-.049-.374-.352.02-1.111.009-2.227.011-3.34.143-.143.325-.143.505-.143.77-.004 1.537-.004 2.307 0 .179.001.362.001.503.143"/><path fill-rule="evenodd" fill="#fefefe" d="m33.26 36.737c-.002 1.104-.013 2.209.005 3.314.005.307-.091.377-.385.371-.852-.02-1.705-.018-2.558 0-.291.006-.391-.064-.387-.371.021-1.105.009-2.211.009-3.314.143-.143.325-.143.505-.143.77-.004 1.537-.004 2.307 0 .18.001.362.001.504.143"/><path fill-rule="evenodd" fill="#fe0000" d="m29.873 36.737c0 1.113-.009 2.227.005 3.34.002.256-.051.359-.334.352-.885-.018-1.77-.018-2.654 0-.283.008-.338-.094-.336-.352.013-1.111.004-2.225.004-3.34.143-.143.325-.143.505-.143.77-.004 1.539-.004 2.307 0 .179.001.361.001.503.143"/><path fill-rule="evenodd" fill="#fefefe" d="m36.646 36.737c-1.104 0-2.21 0-3.315 0-.002-1.125.005-2.25-.006-3.375-.003-.227.053-.314.298-.311.909.012 1.818.016 2.729 0 .244-.004.295.086.295.311-.009 1.125-.002 2.25-.001 3.375"/><path fill-rule="evenodd" fill="#fe0000" d="m33.26 36.737c-1.104 0-2.21 0-3.315 0 0-1.107.012-2.209-.009-3.314-.004-.309.096-.379.387-.371.853.018 1.706.018 2.558 0 .291-.008.39.063.385.371-.019 1.105-.008 2.207-.006 3.314"/><path fill-rule="evenodd" fill="#fefefe" d="m29.873 36.737c-1.104 0-2.21 0-3.315 0 0-1.125.007-2.25-.002-3.375-.002-.225.051-.314.296-.311.909.016 1.819.012 2.729 0 .244-.004.298.084.296.311-.01 1.125-.004 2.25-.004 3.375"/><path fill-rule="evenodd" fill="#fe0000" d="m26.467 29.24c-1.09 0-2.182 0-3.273 0-.007-1.127-.009-2.254-.022-3.381 0-.191.076-.248.256-.246.937.006 1.873.006 2.807 0 .18-.002.26.055.258.246-.015 1.127-.017 2.254-.026 3.381"/><path fill-rule="evenodd" fill="#9e8c0f" d="m23.1 19.882c.022-.008.042-.014.064-.018.08.063.195.012.273.086.009.023.016.043.022.068-.005.02-.009.041-.014.064-.091.023-.182.047-.271.07-.033-.16-.164-.135-.275-.146.068-.04.137-.081.201-.124"/><path fill-rule="evenodd" fill="#f4d917" d="m23.392 19.802c-.007-.105-.002-.205.136-.221.126.123.011.168-.071.221-.024.035-.047.033-.066-.002l.001.002"/><path fill-rule="evenodd" fill="#af9b10" d="m23.39 19.8c.021.002.044.002.066.002-.005.051-.009.1-.014.148-.096-.012-.207.016-.273-.086.002-.039.007-.082.009-.123.073.012.095.203.212.059"/><path fill-rule="evenodd" fill="#efd416" d="m34.988 20.45c.028-.158.16-.207.282-.266.111.289-.049.494-.209.699h-.038-.035c-.082-.055-.067-.139-.069-.219 0-.079.156-.106.069-.214"/><path fill-rule="evenodd" fill="#d1b914" d="m34.919 20.665c.076.053.069.139.069.219-.04.057-.101.072-.143.018-.074-.106.006-.173.074-.237"/><path fill-rule="evenodd" fill="#baa511" d="m34.717 19.446c-.029.014-.058.027-.085.041-.011-.027-.021-.051-.033-.076.031-.01.061-.02.094-.025.003 0 .013.033.024.06"/><path fill-rule="evenodd" fill="#cfb813" d="m36.14 20.95c-.269-.037-.146-.162-.066-.281.097.076.061.184.066.281"/><path fill-rule="evenodd" fill="#d0b813" d="m36.29 20.526c.108.102.056.232.068.352-.046.01-.122.08-.117-.035.004-.108.031-.211.049-.317"/><path fill-rule="evenodd" fill="#f4d817" d="m35.422 20.38c.056.082.173-.047.218.07-.002.023-.002.045-.002.072-.083-.031-.263.086-.216-.142"/><path fill-rule="evenodd" fill="#f1d617" d="m34.919 19.802c.016.004.031.012.047.023.014.088.056.178-.009.268-.138-.084-.036-.194-.038-.291"/><path fill-rule="evenodd" fill="#bea812" d="m32.469 19.657c-.024-.072-.174-.09-.103-.197.061-.092.176-.057.265-.063.063-.002.106.063.094.129-.031.141-.149.129-.258.129l.002.002"/><path fill-rule="evenodd" fill="#907f0e" d="m32.833 19.08c-.021.049-.064.07-.113.063-.051-.008-.096-.041-.06-.09.02-.029.082-.039.124-.041.036-.002.07.019.049.068"/><path fill-rule="evenodd" fill="#af9b10" d="m31.544 21.394c-.141.016-.207-.059-.209-.152-.003-.148.159-.123.239-.156.111-.045.21.09.221.172.035.263-.261-.083-.251.136"/><path fill-rule="evenodd" fill="#6f630b" d="m31.17 20.952c.002-.025.005-.049.007-.074.089-.021.178-.045.267-.066.127.018.251-.096.376.002.073.047.146.096.218.146-.29-.002-.579-.006-.868-.008"/><path fill-rule="evenodd" fill="#8c7c0d" d="m31.1 18.579c0 .049 0 .098 0 .146-.289.023-.578.045-.867.064.003-.023.005-.051.005-.078.066-.039.122-.119.216-.064.206-.119.431-.05.646-.068"/><path fill-rule="evenodd" fill="#b7a211" d="m30.658 19.724c-.042-.023-.087-.047-.129-.068-.044-.092-.127-.205.045-.238.075-.016.188-.086.253.025.105.181-.113.185-.169.281"/><path fill-rule="evenodd" fill="#b4a011" d="m30.522 18.942c.125-.084.236-.07.327.057-.06.129-.178.064-.269.08-.059.023-.078-.012-.094-.061.003-.031.015-.056.036-.076"/><path fill-rule="evenodd" fill="#cfb813" d="m30.522 18.942c0 .023 0 .049 0 .074-.049.039-.098.033-.142-.006-.054-.037-.036-.076.004-.105.058-.039.105-.019.138.037"/><path fill-rule="evenodd" fill="#86770c" d="m30.381 19.01c.049.002.096.004.142.006.019.021.038.043.059.063-.126.142-.17.06-.201-.069"/><path fill-rule="evenodd" fill="#a4910f" d="m31.819 20.813c-.125-.064-.249.15-.376-.002.009-.018.009-.039.007-.061.122-.004.244-.008.369-.012 0 .025 0 .05 0 .075"/><path fill-rule="evenodd" fill="#b4a011" d="m30.454 18.647c-.071.023-.143.045-.216.064-.002-.02-.007-.039-.009-.063.002-.025.004-.053.007-.082.049 0 .096.002.145.002.024.029.049.054.073.079"/><path fill-rule="evenodd" fill="#a28f0f" d="m40.25 19.585c-.029.047-.058.092-.087.137-.042.002-.084.004-.127.004-.153-.211-.053-.422.005-.635.094.07.051.311.275.223.061.053.261.104-.006.15-.027.008-.039.08-.06.121"/></g></g></switch></svg>