<svg xmlns="http://www.w3.org/2000/svg" viewBox="0 0 64 64" enable-background="new 0 0 64 64"><switch><g><path fill="#e6e7e8" d="m54 10h-44c-2.029 0-3.749.466-5.164 1.28 8.245 5.146 27.987 17.462 31.957 19.95.303.189.469.608.365.962-.002.01-.004.095-.004.095-.098.34-.415.713-.77.713-1.677 0-20.29 0-20.388 0 .312 0 19.19 19.05 19.634 19.572.235.275.32.575.124.904-.14.242-.406.524-.687.524h18.933c6.627 0 10-4.925 10-11v-22c0-6.075-3.373-11-10-11"/><path fill="#003892" d="m35.754 53.48c.196-.329.111-.629-.124-.904-.448-.524-19.322-19.573-19.634-19.573.098 0 18.711 0 20.388 0 .355 0 .672-.373.771-.713 0 0 .002-.085.004-.095.104-.354-.063-.772-.365-.962-3.97-2.488-23.712-14.805-31.957-19.95-3.21 1.847-4.837 5.504-4.837 9.72v22c0 6.075 3.373 11 10 11h25.07c.281 0 .547-.282.687-.523"/><path fill="#db143c" d="m2 44c0 2.094 1.69 8 7.188 8 2.812 0 22.72 0 22.772 0 .01 0 .014-.034.025-.047-6.979-6.978-13.955-13.953-20.952-20.953 6.98 0 13.936 0 20.899 0 .002 0 .002-.186.009-.195-9.08-5.688-18.323-11.447-27.425-17.16-.834.856-2.516 2.946-2.516 6.477 0 3.703 0 22.874 0 23.875"/><path fill-rule="evenodd" fill="#fefefe" d="m12.15 35.623c-.044.368-.083.698-.121 1.028-.06.475-.115.947-.183 1.418-.019.124.047.095.117.086.77-.099 1.539-.194 2.309-.288.02-.005.045 0 .069 0 .023.054-.026.081-.052.114-.45.601-.903 1.205-1.361 1.804-.077.098-.069.135.049.18.679.285 1.356.572 2.033.859.052.024.117.036.17.095-.488.209-.975.412-1.458.617-.244.104-.488.215-.736.309-.125.047-.138.085-.054.195.454.586.896 1.183 1.344 1.776.028.038.074.068.077.14-.417-.053-.826-.102-1.235-.15-.39-.049-.775-.099-1.163-.15-.108-.015-.118.017-.102.114.099.755.189 1.509.281 2.26.006.041.006.079.009.122-.066.012-.095-.036-.136-.063-.587-.443-1.179-.884-1.759-1.336-.141-.105-.168-.063-.223.071-.275.668-.561 1.335-.846 1.999-.02.053-.045.102-.077.177-.034-.073-.062-.122-.082-.178-.288-.674-.579-1.35-.856-2.029-.055-.135-.096-.127-.199-.049-.581.447-1.172.888-1.761 1.331-.044.033-.077.083-.152.083.062-.496.124-.99.185-1.481.034-.293.066-.586.113-.877.021-.141-.022-.155-.15-.138-.778.101-1.56.196-2.345.294-.015-.065.035-.096.065-.133.447-.598.894-1.197 1.352-1.79.076-.104.065-.14-.05-.185-.681-.281-1.355-.572-2.034-.859-.054-.021-.11-.05-.187-.082.663-.28 1.305-.554 1.944-.823.051-.025.104-.048.155-.07.26-.112.26-.112.084-.343-.421-.553-.842-1.111-1.261-1.669-.027-.036-.072-.069-.077-.141.328.038.653.075.976.116.473.056.943.115 1.414.183.139.019.122-.045.113-.13-.102-.77-.195-1.539-.292-2.31 0-.022 0-.04 0-.071.091.026.146.086.207.135.564.425 1.133.849 1.694 1.283.121.087.152.075.213-.063.274-.671.561-1.336.844-2 .025-.056.049-.109.087-.193.339.8.664 1.572 1 2.356.681-.514 1.349-1.015 2.047-1.542"/><path fill-rule="evenodd" fill="#fefefe" d="m10.112 23.317c.343-.203.666-.391 1.026-.607-.053.351-.092.66-.139.975-.032.203-.036.207.164.179.319-.044.637-.09.988-.139-.181.308-.344.595-.522.876-.082.124-.068.164.086.196.317.068.633.16.984.249-.292.22-.557.424-.826.617-.1.073-.131.109-.004.197.374.274.37.281.748.016.926-.656 1.611-1.502 2.074-2.533.02-.049.041-.096.068-.156.056 2.607-2.051 5.428-5.352 5.604-3.451.184-5.99-2.618-5.978-5.582.055.025.053.084.072.124.508 1.14 1.287 2.045 2.338 2.721.086.056.155.074.238-.006.106-.104.32-.163.324-.291.002-.088-.208-.183-.324-.274-.175-.136-.351-.265-.529-.399-.006-.005-.006-.019-.015-.043.324-.086.644-.178.969-.248.152-.032.134-.076.07-.184-.177-.283-.342-.575-.526-.884.367.054.717.095 1.059.154.11.019.122-.01.105-.107-.053-.342-.096-.684-.15-1.062.358.213.685.404 1.025.607.1-.379.194-.746.299-1.153.245.327.472.632.718.954.23-.312.461-.615.713-.949.102.394.196.76.297 1.148"/></g></switch></svg>