<svg xmlns="http://www.w3.org/2000/svg" viewBox="0 0 64 64" enable-background="new 0 0 64 64"><switch><g><path fill="#25333a" d="m.305 18h63.39c-.955-4.615-4.204-8-9.695-8h-44c-5.491 0-8.74 3.385-9.695 8"/><path fill="#f9cb38" d="m0 21v4h64v-4c0-1.041-.106-2.045-.305-3h-63.39c-.199.955-.305 1.959-.305 3"/><path fill="#c32129" d="m0 25h64v7h-64z"/><path fill="#25333a" d="m0 32h64v7h-64z"/><path fill="#f9cb38" d="m0 43c0 1.041.106 2.045.305 3h63.39c.198-.955.304-1.959.304-3v-4h-64v4"/><path fill="#c32129" d="m63.695 46h-63.39c.955 4.615 4.204 8 9.695 8h44c5.491 0 8.74-3.385 9.695-8"/><path fill="#e6e7e8" d="m39.07 32.02c0 3.865-3.138 7.01-7.01 7.01-3.869 0-7.01-3.14-7.01-7.01 0-3.873 3.139-7.01 7.01-7.01 3.873 0 7.01 3.136 7.01 7.01"/><g><path fill-rule="evenodd" d="m33.31 33.721c.39-.012.786-.02 1.137.203.071-.099-.008-.17-.054-.243-.155-.274-.407-.468-.618-.696-.322-.267-.677-.464-1.084-.559-.236-.056-.451-.16-.639-.314-.483-.398-.61-1.172-.268-1.639.035-.094-.083-.068-.098-.125-.009-.107-.021-.213-.029-.317-.05-.632-.006-1.226.521-1.688.226-.195.338-.479.366-.781.01-.089.014-.166.124-.175.006-.037-.015-.064-.041-.087-.129-.107-.188-.245-.184-.412-.016-.035-.044-.054-.082-.054-.033 0-.072.011-.098-.004-.231-.106-.451-.235-.716-.249-.094-.004-.092-.098-.099-.173-.021-.163.041-.322.027-.487-.009-.025-.021-.045-.041-.065-.036-.015-.072-.009-.109.013-.019.018-.031.039-.038.063-.025.104-.028.211-.04.313-.018.24-.045.469-.315.566-.061.049-.047.139-.095.191-.142.158-.186.349-.141.543.036.139-.027.164-.128.195-.264.09-.549.14-.761.344.045.057.108.071.179.064.075-.008.136-.058.205-.077.07-.005.135-.008.208-.028-.075.028-.148.017-.213.037-.041.023-.104.025-.094.096.081.063.171.04.259.022.101-.012.198-.018.294-.032.082-.009.044.043.046.073-.005 0-.009.006-.013.019-.006.014-.004.025.011.041.035.011.066.002.099-.004.127-.031.212.03.244.145.039.125-.072.168-.161.206-.057.027-.127.032-.18.073-.005 0-.009.007-.011.021-.008.014 0 .027.011.042.063.11-.052.145-.098.193-.347.379-.638.793-.822 1.277-.293.771-.223 1.518.369 2.104.332.33.696.664 1.146.873.453.214.788.524.741 1.088-.011.08-.011.166 0 .245.031.217-.062.258-.264.239-.539-.048-1.084-.091-1.624.019-.645.13-.922.676-.669 1.311.07-.156.14-.303.213-.465.054.16.056.326.215.436.016-.123.022-.228.037-.328.018-.104.02-.215.095-.307.008.029.014.052.02.074.042.122.02.322.155.333.147.013.135-.192.183-.303.15-.347.28-.444.631-.409.274.028.543.047.813.042.1-.006.146.017.154.126.059.514.114 1.028.142 1.549.004.13-.038.161-.164.154-.391-.026-.775.011-1.144.142-.117.043-.248.082-.28.25.282.022.558-.036.839.055-.127.173-.281.31-.303.519-.006.057-.016.127.033.162.067.037.1-.041.137-.074.406-.345.872-.545 1.396-.627.305-.048.608-.016.939-.021-.226-.331-.551-.36-.866-.398-.081-.009-.166.008-.179-.112-.043-.51-.116-1.016-.101-1.525.005-.164.085-.24.242-.236.229.01.461.021.688.04.152.017.23-.065.277-.19.052-.131.025-.254-.059-.37-.154-.212-.287-.439-.364-.694-.019-.089-.069-.23.091-.233m-.575 1.198c-.12-.015-.323.095-.315-.169.004-.241.002-.484.002-.764.297.182.483.409.541.734.029.18-.102.215-.228.199"/><path fill-rule="evenodd" fill="#d80000" d="m34.895 35.715l-.007.007c.009-.14.135-.2.192-.308-.06.051-.117.116-.198.143-.095.027-.166.021-.137-.11.002-.024.029-.042.016-.071-.014.007-.028.014-.039.021-.025.013-.053.025-.081.039-.063.014-.123.04-.19.036-.115-.023-.027-.142-.081-.19-.012-.064.041-.097.077-.139-.017-.086.046-.092.103-.101.104-.03.123-.14.188-.204.098-.092.145-.209.152-.341l-.004-.014.012-.013c.105-.229-.014-.459.021-.687-.008.104-.005.208-.032.309-.032.083-.105.137-.129.224-.037.028-.066.083-.127.038-.013-.173-.045-.339-.108-.495-.021-.042-.036-.086-.055-.125-.032-.108-.087-.201-.157-.289-.166-.183-.345-.355-.522-.523-.08-.059-.152-.123-.248-.158-.021-.008-.04-.021-.053-.033-.041-.063-.118-.096-.142-.171.004-.021.017-.039.032-.053.051-.024.103-.028.158-.032.018 0 .05.008.056-.014.009-.027-.027-.041-.044-.065-.008-.02-.012-.041-.012-.062.035-.106.121-.1.204-.089.086.023.177.043.259.07.029-.005.09.061.081-.036-.031-.066-.086-.129-.025-.204.042-.028.088-.035.136-.022.13.046.247.119.367.184.026-.004.044.032.073.017-.013-.003-.025-.01-.043-.017s-.036-.018-.054-.029c-.035-.029-.058-.067-.063-.113-.01-.107-.101-.164-.16-.241-.043-.062-.129-.13.002-.194.035-.009.071-.008.107.002.186.066.354.167.538.232.123-.02.141.131.238.15.085.014.146.079.22.116.047.046.107.066.168.081l-.004-.004c.096.144.241.236.334.377.094.123.162.266.258.385l.005.012c.002.125.063.241.075.366.02.172.05.345.004.517.009.121-.042.229-.055.35-.092.258-.199.512-.325.754-.013.014-.026.025-.039.039-.043.094-.136.153-.165.257-.017.015-.03.033-.046.052-.117.094-.215.213-.337.305l.002-.004c-.117.082-.234.174-.372.221-.168-.026-.037-.097-.024-.153"/><path fill-rule="evenodd" fill="#9ba49b" d="m33.755 33.03c-.36-.276-.763-.462-1.201-.587-.738-.21-1.155-.905-1.016-1.653.028-.139.066-.293.24-.337.102-.058.177.002.254.058.032.002.069.005.101.006.054.056.123.083.186.121.084.027.165.06.229.118.075-.033.124.015.178.054.077.056.163.095.247.131.064.041.132.071.198.102.096.058.204.085.298.14.113.054.221.12.341.151.093.081.256.059.308.203-.021.061-.063.1-.114.136-.069.029-.14.011-.208-.009-.075-.023-.15-.052-.226-.077-.082-.031-.166-.059-.255-.059-.048-.006-.087-.028-.121-.05-.073-.063-.156-.109-.246-.146-.095-.054-.195-.081-.295-.125-.06-.027-.12-.048-.183-.065-.11-.038-.211-.034-.297.062-.012.016-.027.031-.039.048-.068.134-.081.259.055.361.07.056.147.1.211.163.073.091.171.139.283.16.033.008.063.019.093.034.105.111.183.241.325.31.049.023.097.047.13.093.04.063.063.135.102.197.06.056.141.088.185.163l-.006-.002c.122.029.197.138.305.193.013.02.022.04.018.065-.019.033-.037.061-.08.041"/><path fill-rule="evenodd" fill="#fada04" d="m32.381 26.857c-.048.059-.086.105-.171.033-.2-.164-.438-.243-.701-.229-.121.009-.136-.043-.125-.142.019-.201.034-.402.05-.606.171-.094.324-.021.487.027.083-.011.16.013.224.069l.007.004c.104-.004.19.049.274.107.058.041.121.078.187.107.01.009.012.016.005.024.082.063.125.14.066.232-.083.139-.142.298-.303.374"/><path fill-rule="evenodd" fill="#d50000" d="m31.34 25.919c-.013.22-.025.438-.045.657-.018.212-.239.182-.351.284-.159-.077-.163-.274-.293-.373v-.005c-.029-.079-.05-.164-.096-.238-.039-.066-.061-.132.021-.184l-.002.002c.088 0 .14-.087.228-.094.079-.026.158-.063.238-.076.103-.005.21-.06.3.027"/><path fill-rule="evenodd" fill="#d50000" d="m32.617 27.345c-.171-.104-.271-.234-.193-.444.027-.082.069-.16.118-.235.189-.287.217-.287.425.005l.005.013c.073.104.132.215.165.34.03.095.037.182-.083.221-.039.022-.077.042-.117.06-.105.031-.212.025-.32.04"/><path fill-rule="evenodd" fill="#d30000" d="m30.7 28.31c.07-.036.098-.179.213-.103.093.059.212.114.217.241.009.112-.071.189-.18.233-.08.033-.165.074-.255.037-.071-.015-.094-.09-.144-.136.002-.017.002-.032.002-.048.071-.062.065-.17.147-.224"/><path fill-rule="evenodd" fill="#868d85" d="m33.755 33.03c.016-.016.032-.031.052-.047.241.078.354.305.522.467.071.084.107.193.19.272.01.024.016.05.026.075.021.089.086.197-.091.173-.005-.007-.009-.018-.013-.029 0 0 .004-.012.006-.017-.135-.369-.437-.614-.692-.894"/><path fill-rule="evenodd" fill="#231010" d="m34.643 35.387c.018-.012.037-.024.054-.034.049.017.08.046.093.096-.016.055-.05.13.058.068.114-.068.222-.146.351-.202-.082.155-.178.293-.31.407-.032-.127-.262-.042-.241-.226-.031-.034-.031-.074-.005-.109"/><path fill-rule="evenodd" fill="#1b0a0a" d="m34.01 31.645c-.012-.065.002-.111.083-.104.042-.028.081-.022.123.002.035.006.077-.009.092.041.024.034.024.066-.005.099-.061.129.099.129.126.209.024.068.163.098.077.216-.168-.087-.284-.257-.476-.321-.052-.037-.038-.088-.02-.142"/><path fill-rule="evenodd" fill="#1b0202" d="m34.826 34.11c.014-.175.027-.346.042-.512.168.159.188.675.029.869.002-.035.002-.069.002-.103.05-.083-.014-.171.014-.255.011-.027-.001-.044 0-.013 0 .015-.017.025-.035.03-.023.006-.038-.003-.052-.016"/><path fill-rule="evenodd" fill="#1d0d07" d="m32.967 26.67c-.252-.205-.248-.205-.434.077-.032.053-.073.103-.109.153-.016-.014-.032-.029-.043-.043.07-.117.134-.237.215-.345.069-.089.075-.166.021-.26.185.084.288.235.35.418"/><path fill-rule="evenodd" fill="#100606" d="m34.455 33.97c.153.009.057-.116.091-.173.161.166.091.371.107.562-.053.014-.084.007-.064-.06.037-.145-.159-.188-.134-.329"/><path fill-rule="evenodd" fill="#241111" d="m35.875 34.996c.051-.262.207-.482.294-.732.02-.023.036-.025.054 0-.083.26-.151.529-.348.732"/><path fill-rule="evenodd" fill="#0a0303" d="m36.24 33.917c-.007-.196-.014-.393-.016-.589-.02-.05.002-.06.043-.051.041.211.096.424.017.64-.016.021-.029.021-.044 0"/><path fill-rule="evenodd" fill="#220e0d" d="m34.957 31.893c-.204-.018-.379-.115-.563-.192.008-.06.063-.071.102-.097.142.116.33.157.461.289"/><path fill-rule="evenodd" fill="#311a1a" d="m30.647 26.487c.189.056.173.267.293.373-.027.05-.038.116-.1.14.047-.212-.179-.321-.193-.513"/><path fill-rule="evenodd" fill="#2b2c2b" d="m34.21 31.542c-.042-.002-.084-.002-.123-.002-.095-.06-.192-.118-.29-.179-.027-.021-.021-.039.009-.06.139.069.316.076.404.241"/><path fill-rule="evenodd" fill="#352d2d" d="m36.17 32.998c-.158-.074-.186-.245-.277-.373.002-.018.015-.032.032-.034.131.107.198.25.245.407"/><path fill-rule="evenodd" fill="#231515" d="m34.895 35.715c.007.043-.09.119.036.123.039-.02.075-.026.114.004-.092.071-.194.111-.338.1.042-.112.061-.21.188-.227"/><path fill-rule="evenodd" fill="#201515" d="m35.926 32.591c-.01.015-.018.026-.032.034-.094-.137-.283-.197-.314-.389.143.096.267.202.346.355"/><path fill-rule="evenodd" fill="#190a0a" d="m34.402 35.3c.113.027-.027.122.046.161.019.013.023.022.019.037-.005.013-.007.022-.012.022-.063.05-.132.04-.199.032-.035-.104.079-.127.09-.196-.011-.049.008-.069.056-.056"/><path fill-rule="evenodd" fill="#313331" d="m33.809 31.3c-.002.022-.009.042-.009.06-.127-.039-.265-.06-.34-.189l-.006.002c.143-.024.241.067.355.127"/><path fill-rule="evenodd" fill="#211717" d="m35.29 35.648c.086-.132.174-.258.337-.305-.079.136-.171.264-.337.305"/><path fill-rule="evenodd" fill="#2c1f1f" d="m30.572 26.06c-.068.157.128.268.075.422-.084-.059-.096-.164-.15-.242-.068-.098-.02-.149.075-.18"/><path fill-rule="evenodd" fill="#4b4b4b" d="m30.1 28.14c.072.088.177.006.252.054-.156.067-.32.04-.484.034-.026-.127.095-.07.139-.109.032-.007.069-.013.093.021"/><path fill-rule="evenodd" fill="#2a1111" d="m34.89 34.497c.043.169-.021.285-.166.37l-.002-.008c.021-.136.113-.241.168-.362"/><path fill-rule="evenodd" fill="#322c05" d="m31.931 25.953c-.162-.013-.328-.027-.497-.04-.004-.013-.006-.028-.004-.042.106-.05.216-.031.327-.01.076-.023.123.033.178.064 0 .011-.004.019-.004.028"/><path fill-rule="evenodd" fill="#232323" d="m32.03 30.51c-.088-.018-.169-.039-.254-.058-.027-.037-.098-.037-.09-.104.104.075.291-.027.344.162"/><path fill-rule="evenodd" fill="#1b1d1b" d="m33.454 31.17l.006-.002c-.119.02-.211-.046-.297-.114-.017-.009-.024-.021-.017-.032.006-.011.013-.015.019-.015.097.055.231.04.289.163"/><path fill-rule="evenodd" fill="#311f1f" d="m36.26 33.28c-.013.016-.027.031-.043.051-.036-.104-.122-.202-.045-.318.055.079.081.172.088.267"/><path fill-rule="evenodd" fill="#2a0808" d="m35.05 35.842c-.039 0-.075-.002-.114-.004.119-.064.221-.166.359-.193-.036.12-.141.16-.245.197"/><path fill-rule="evenodd" fill="#3e3919" d="m32.426 26.15c-.093-.049-.185-.094-.274-.141.147-.099.226.039.328.097-.006.031-.034.036-.054.044"/><path fill-rule="evenodd" fill="#2c2020" d="m33.12 27c-.08-.092-.12-.2-.148-.317.144.061.162.194.189.321-.016.023-.027.021-.041-.004"/><path fill-rule="evenodd" fill="#0f0808" d="m33.12 27c.016.002.026.004.041.004.018.103.193.279-.107.239.094-.061.05-.159.066-.243"/><path fill-rule="evenodd" fill="#350d0d" d="m34.402 35.3c-.018.019-.035.039-.057.057-.043-.031-.125-.048-.102-.116.027-.084.115-.1.202-.094.003.053-.076.088-.043.153"/><path fill-rule="evenodd" fill="#080404" d="m36.24 33.917c.015 0 .027 0 .044 0 .018.121-.015.233-.058.347-.018 0-.034 0-.054 0 .022-.118.045-.235.068-.347"/><path fill-rule="evenodd" fill="#d0d0d0" d="m30 28.14c-.043.028-.088.061-.134.088-.083-.023-.046-.094-.06-.148.063.005.129.007.193.014.019.01.021.02.019.031-.007.009-.013.015-.018.015"/><path fill-rule="evenodd" fill="#1f0d0d" d="m34.589 34.3c.023.018.043.038.064.06.028-.024.054-.043.082-.069.03.024.032.045.01.074-.027.082-.094.128-.165.09-.079-.038-.018-.106.009-.155"/><path fill-rule="evenodd" fill="#2a1b1b" d="m30.7 28.31c-.047.075-.018.2-.146.226-.004-.125.062-.214.142-.298.003.024.004.045.004.072"/><path fill-rule="evenodd" fill="#9d9d9d" d="m34.882 34.11c.016-.022.04-.1.058-.015.018.09.023.187-.04.27-.029-.048.019-.117-.049-.15-.048-.052.011-.073.031-.105"/><path fill-rule="evenodd" fill="#371f1f" d="m30.991 25.926c-.066.025-.133.05-.199.075-.023-.003-.042-.017-.056-.041.075-.06.163-.085.255-.085.018.01.024.021.018.033-.005.012-.009.018-.018.018"/><path fill-rule="evenodd" fill="#372020" d="m35.671 35.29c-.033-.144.083-.191.165-.257 0 .121-.075.194-.165.257"/><path fill-rule="evenodd" fill="#383836" d="m31.757 25.861c-.111.004-.221.006-.327.01-.031.004-.062.004-.094.006-.004-.01-.011-.018-.015-.028.004-.009.011-.016.017-.025.141-.007.283-.023.419.037"/><path fill-rule="evenodd" fill="#1f201f" d="m32.547 30.755c-.089-.035-.179-.073-.264-.108-.008-.042 0-.069.05-.042.093.02.188.036.214.15"/><path fill-rule="evenodd" fill="#300707" d="m32.617 27.345c.098-.067.211-.06.319-.042-.075.076-.176.059-.266.083-.016-.013-.036-.028-.053-.041"/><path fill-rule="evenodd" fill="#401717" d="m35.391 32.18c-.066-.046-.131-.092-.195-.135.12-.075.17.05.247.089-.005.033-.033.038-.052.046"/><path fill-rule="evenodd" fill="#291e1e" d="m30.552 28.583c.092.002.104.084.144.136 0 .021 0 .04 0 .061-.094-.031-.144-.094-.144-.197"/><path fill-rule="evenodd" fill="#3a3c3a" d="m32.33 30.604c-.019.015-.034.027-.05.042-.067-.023-.146-.034-.15-.131.083-.01.146.029.2.089"/><path fill-rule="evenodd" fill="#010101" d="m32.968 30.945c-.103-.006-.187-.042-.243-.137.097-.002.17.047.242.105 0 .001 0 .021.001.032"/><path fill-rule="evenodd" fill="#0a0606" d="m30.991 25.926c0-.018 0-.035 0-.035.031-.021.061-.025.088-.031.087-.026.172-.02.259-.007l-.002.024c0 0 0 .027 0 .042-.114.001-.23.005-.345.007"/><path fill-rule="evenodd" fill="#050202" d="m34.496 31.604c-.034.031-.066.063-.102.097-.029-.008-.063-.015-.095-.019.003-.034.003-.066.005-.099.065.009.131.015.192.021"/><path fill-rule="evenodd" fill="#010000" d="m34.722 34.859l.002.008c-.022.094-.06.173-.175.175.034-.083.092-.145.173-.183"/><path fill-rule="evenodd" fill="#281616" d="m34.882 34.11c-.012.035-.02.068-.031.104-.036.05-.07.098-.105.146-.002-.022-.006-.048-.01-.074.032-.06.062-.119.091-.176.02 0 .037 0 .055 0"/><path fill-rule="evenodd" fill="#361717" d="m35.391 32.18c.018-.013.034-.027.052-.046.048.038.095.073.141.108-.086.055-.137-.021-.193-.062"/><path fill-rule="evenodd" fill="#0b0b0b" d="m32.968 30.945c-.001-.012-.001-.021-.001-.021.085-.017.133.055.198.087 0 .016-.002.032-.002.047-.075-.019-.15-.037-.195-.113"/><path fill-rule="evenodd" fill="#090202" d="m30.736 25.96c.018.014.038.028.056.041-.077.009-.124.125-.222.062.041-.058.099-.091.166-.103"/><path fill-rule="evenodd" fill="#040202" d="m34.455 35.517c-.001-.021-.005-.041-.007-.06.067-.025.13-.048.194-.07.002.035.002.07.004.109-.063.007-.126.011-.191.021"/><path fill-rule="evenodd" fill="#393519" d="m32.426 26.15c.018-.014.034-.028.054-.044.061.024.116.05.133.118-.087.04-.13-.036-.187-.074"/><path fill-rule="evenodd" fill="#0c0b03" d="m31.931 25.953c.006-.009.006-.018.004-.027.087-.013.185-.055.21.084-.069-.02-.141-.038-.214-.057"/><path fill-rule="evenodd" fill="#464545" d="m31.34 25.853c-.087.022-.172.028-.259.007.08-.057.171-.04.259-.036-.002.009-.002.022 0 .029"/><path fill-rule="evenodd" fill="#9ba59b" d="m30.519 31.649c-.595-.91.186-2.407.9-3.126-.182.765-.623 1.451-.176 2.173-.023.075-.068.057-.104.059s-.067.002-.103.002c-.04.088.043.159.016.248-.063.038-.294-.073-.169.167-.212-.054-.039.361-.302.248-.018.068-.038.136-.062.229"/><path fill-rule="evenodd" fill="#99a399" d="m31.883 27.06c.289.17.373.348.315.608-.071.313-.295.551-.541.574-.087.011-.166.009-.205-.084-.036-.089-.026-.179.059-.219.374-.172.414-.493.372-.879"/><path fill-rule="evenodd" fill="#97a097" d="m32.479 33.03c-.204-.042-.393-.038-.576.043-.092.042-.14.005-.159-.081-.06-.231-.051-.461.05-.718.207.292.447.518.685.756"/><path fill-rule="evenodd" fill="#f1f1f1" d="m31.23 27.738c-.079-.018-.123-.064-.115-.14.011-.075.06-.117.141-.104.068.01.098.06.096.121-.002.078-.052.115-.122.123"/><path fill-rule="evenodd" fill="#a4a4a4" d="m30.55 27.986c.1-.043.169-.067.244-.008-.065.085-.133.084-.244.008"/><path fill-rule="evenodd" fill="#f4f4f4" d="m30.2 28.05c.092-.024.183-.043.275-.063-.065.113-.177.099-.271.113-.013-.011-.017-.021-.017-.021.004-.026.009-.029.013-.029"/><path fill-rule="evenodd" fill="#f1f1f1" d="m30.2 28.05c0 .014 0 .032.004.049-.035.014-.066.027-.104.041-.032 0-.063 0-.099 0 0 0 0-.031 0-.047.067-.014.132-.032.199-.043"/><path fill-rule="evenodd" fill="#fdfdfd" d="m34.01 31.735c.217.05.376.189.496.371.019.021.032.039.05.062-.148.089-.229-.06-.345-.093-.12-.042-.246-.064-.362-.13.062.041.113.092.147.155.005.071.091.112.069.192-.021.016-.04.027-.064.029-.048-.004-.093-.012-.138-.016-.119-.06-.246-.074-.389-.072.02.059.06.104.088.152l-.003-.002c.022.022.022.045.003.064-.032.025-.068.033-.107.033-.087.002-.18.016-.229-.085-.054-.011-.054-.145-.145-.06-.095-.119-.218-.211-.305-.343-.032 0-.065-.002-.099-.004-.09-.077-.216-.105-.297-.196-.052-.072-.169-.063-.208-.156-.17-.133-.159-.281-.038-.438l-.006.004c.067-.108.175-.104.279-.1.081.021.168.027.248.072.088.057.192.078.284.137.092.047.198.066.281.135.008.039.039.051.073.057.084-.016.152.044.229.053.098.039.195.07.298.092.067.027.135.038.19.087"/><path fill-rule="evenodd" fill="#222020" d="m33.56 32.387c-.085-.059-.169-.114-.316-.215.271-.016.454.033.634.107-.038.041-.084.036-.13.014-.084-.005-.174-.024-.188.094"/><path fill-rule="evenodd" fill="#190a0a" d="m34.31 33.469c-.163-.168-.305-.356-.505-.486-.007-.014-.009-.022-.011-.037-.009-.009-.014-.02-.009-.029.007-.006.013-.01.015-.01.232.123.393.319.545.521.024.043 0 .047-.035.041"/><path fill-rule="evenodd" fill="#160b0b" d="m33.962 32.14c-.085-.061-.132-.168-.306-.222.258-.056.394.071.546.135.013.014.017.026.011.037-.006.013-.011.021-.015.021-.057-.008-.114-.013-.171-.021-.002.046-.02.064-.065.05"/><path fill-rule="evenodd" fill="#240e0e" d="m34.2 32.11c.002-.021.002-.038.004-.058.125.014.215.137.351.119.017.002.03.006.044.014.033.055-.002.079-.048.098-.116-.058-.235-.114-.351-.173"/><path fill-rule="evenodd" fill="#140202" d="m34.549 32.28c.017-.032.031-.066.048-.098.121-.006.16.079.209.194-.114-.005-.184-.053-.257-.096"/><path fill-rule="evenodd" fill="#2f1413" d="m33.802 32.906c.005.012 0 .028-.006.039-.107-.051-.199-.131-.286-.217.16-.043.215.084.292.178"/><path fill-rule="evenodd" fill="#0e0d0d" d="m33.22 32.397c.069.06.156.022.236.045.021.09-.08.044-.097.088.009.016.016.029.023.046-.023.025-.048.031-.077.008-.085-.036-.132-.09-.085-.187"/><path fill-rule="evenodd" fill="#291110" d="m34.31 33.469c.014-.014.025-.027.035-.041.088.081.151.174.173.294-.125-.036-.14-.168-.208-.253"/><path fill-rule="evenodd" fill="#1c0808" d="m34.789 35.448c-.03-.032-.062-.064-.093-.096.061-.027.109-.087.189-.057.011.083-.063.103-.096.153"/><path fill-rule="evenodd" fill="#282525" d="m33.36 32.53c-.019-.085.089-.029.097-.088.031-.002.063-.004.097-.009.022-.011.043-.019.054.007.018.046-.013.066-.051.08-.067.002-.13.008-.197.01"/><path fill-rule="evenodd" fill="#0c0505" d="m33.56 32.521c.013-.03.066-.062-.003-.087.003-.018.003-.031.003-.031.09-.045.161.018.152.086-.007.091-.098.033-.152.032"/><path fill-rule="evenodd" fill="#130101" d="m34.01 32.3c.014-.011.029-.016.043-.02.034 0 .068-.003.098.013.02.038.078.094.033.114-.046.023-.112-.018-.172-.026-.029-.025-.032-.054-.002-.081"/><path fill-rule="evenodd" fill="#361313" d="m34.15 32.29c-.033.007-.072.048-.098-.013-.027-.046-.055-.092-.086-.14.025-.014.045-.029.065-.05.041.071.078.136.119.203"/><path fill-rule="evenodd" fill="#371313" d="m34.01 32.3c0 .025.002.053.002.081-.088-.028-.185-.021-.26-.083.042-.005.085-.011.13-.014.042.003.085.009.128.016"/><path fill-rule="evenodd" fill="#201312" d="m33.31 32.584c.024-.002.052-.004.077-.008.075.023.138.059.129.154-.069-.047-.139-.095-.206-.146"/><path fill-rule="evenodd" fill="#1e1f1e" d="m32.774 31.995c.113.105.284.159.305.343-.112-.102-.289-.15-.305-.343"/><path fill-rule="evenodd" fill="#0e0e0e" d="m32.13 31.2c-.096.154-.068.297.038.438-.175-.006-.141-.15-.155-.251-.012-.08-.03-.195.117-.187"/><path fill-rule="evenodd" fill="#202020" d="m32.426 31.14c-.099.014-.21-.013-.299.063.058-.235.215-.145.356-.108-.005.029-.037.032-.057.045"/><path fill-rule="evenodd" fill="#363736" d="m32.379 31.795c.115.039.24.063.297.196-.121-.032-.257-.043-.297-.196"/><path fill-rule="evenodd" fill="#090909" d="m33.807 31.686c-.111.007-.202-.045-.293-.101-.009-.043.005-.064.053-.048.081.021.158.048.24.071.025.025.03.052 0 .078"/><path fill-rule="evenodd" fill="#2e302e" d="m32.921 31.34c-.089-.032-.183-.058-.256-.125-.014-.012-.018-.025-.014-.037.009-.013.012-.019.016-.019.114.02.215.063.303.138-.007.02-.026.035-.049.043"/><path fill-rule="evenodd" fill="#060606" d="m32.921 31.34c.018-.016.031-.03.049-.043.094.033.197.051.25.152-.113-.007-.211-.046-.299-.109"/><path fill-rule="evenodd" fill="#3e3f3e" d="m33.566 31.537c-.017.017-.035.035-.053.048-.079-.006-.154-.027-.221-.079.103-.089.187-.014.274.031"/><path fill-rule="evenodd" fill="#161616" d="m33.807 31.686c0-.025 0-.053 0-.077.066.011.131.024.2.036.056.032.003.062 0 .091-.068-.016-.134-.032-.2-.05"/><path fill-rule="evenodd" fill="#050505" d="m32.667 31.16c0 .019 0 .036-.002.056-.079-.025-.159-.05-.239-.073.018-.016.039-.029.058-.045.071-.007.128.021.183.062"/></g></g></switch></svg>