<svg xmlns="http://www.w3.org/2000/svg" viewBox="0 0 64 64" enable-background="new 0 0 64 64"><switch><g><path fill="#e6e7e8" d="m0 24h64v16h-64z"/><path fill="#1b75bb" d="m54 10h-44c-6.627 0-10 4.925-10 11v3h64v-3c0-6.075-3.373-11-10-11"/><path fill="#1b75bb" d="m0 43c0 6.075 3.373 11 10 11h44c6.627 0 10-4.925 10-11v-3h-64v3"/><g><path fill-rule="evenodd" fill="#fed100" d="m27.16 34.803c1.639-2.824 3.265-5.628 4.917-8.471 1.649 2.842 3.276 5.642 4.917 8.471-3.283 0-6.533 0-9.834 0"/><path fill-rule="evenodd" fill="#fbfbfb" d="m31.854 24.568c.018 0 .035 0 .049 0 .076.082.122.182.157.285.027.11.027.224.003.334-.025.097-.066.186-.16.236h.002c-.125.084-.263.053-.398.043-.101-.048-.115-.133-.105-.23.005-.188.01-.376-.01-.564.001-.031.013-.058.031-.084.139-.107.283-.095.431-.02"/><path fill-rule="evenodd" fill="#f6cb00" d="m29.29 38.4c.104-.24.203-.48.309-.718.024-.058-.015-.189.135-.108.09.047.115.092.072.184-.104.21-.202.422-.304.634-.06.05.036.245-.158.164h.004c-.051-.041-.117-.076-.058-.156"/><path fill-rule="evenodd" fill="#f3c801" d="m27.14 35.566c-.076.221-.149.44-.266.645-.018.114-.024.241-.187.246-.041-.008-.07-.028-.075-.072.103-.291.21-.58.313-.87.102-.111.167-.064.215.051"/><path fill-rule="evenodd" fill="#f7cb00" d="m34.68 25.424c-.018-.049-.037-.097-.057-.145-.035-.082-.148-.133-.101-.25.007-.054-.033-.131.063-.139.092-.004.142.044.15.134.032.094.027.199.082.286.007.03.018.058.023.089.033.093.029.197.082.286.086.136.165.272.022.422-.11.047-.055-.084-.108-.098v.004c-.044-.064-.001-.166-.085-.217-.007-.045-.013-.091-.021-.135-.034-.076-.015-.165-.051-.237"/><path fill-rule="evenodd" fill="#f0c601" d="m26.668 26.896c.039-.025.074-.054.113-.082.064-.032.078.018.095.062.223.172.34.476.665.531.07.011.05.106.007.153-.06.065-.133.087-.206.018-.191-.182-.379-.362-.564-.545-.022-.058-.165-.017-.11-.137"/><path fill-rule="evenodd" fill="#f3c901" d="m34.463 37.683c.219.112.412.281.674.295.115 0 .125.11.182.171.002.146-.035.181-.147.12-.22-.116-.435-.246-.651-.37-.069-.032-.148-.044-.214-.088l.002.004c-.023-.054-.091-.093-.057-.167v.003c.076-.047.149-.032.211.032"/><path fill-rule="evenodd" fill="#f1c701" d="m26.932 36.91c-.017-.02-.036-.036-.053-.057-.024-.054.003-.091.046-.121.13-.116.258-.236.388-.354 0-.051.035-.08.066-.115.027-.036.06-.071.095-.102.09-.008.188-.032.259.054.035.063-.016.074-.055.094-.211.192-.421.385-.631.58-.03.055-.071.043-.115.021"/><path fill-rule="evenodd" fill="#f8cc00" d="m38.688 34.11c.012.181-.139.231-.255.218-.123-.013-.236-.114-.226-.272.009-.156.153-.217.25-.201.106.015.265.071.231.255"/><path fill-rule="evenodd" fill="#f3c801" d="m26.718 28.367c-.228-.137-.42-.327-.663-.445-.077-.036-.192-.097-.046-.202.029-.024.063-.039.104-.034.121.036.21.125.312.191.048.035.104.057.153.089.093.091.202.163.307.235.005.079.028.161-.046.222-.062.029-.085-.033-.121-.056"/><path fill-rule="evenodd" fill="#eec503" d="m36.945 27.83c-.011-.018-.023-.033-.033-.048-.017-.046-.025-.089 0-.133.002-.099.139-.166.07-.283 0-.023.004-.047.018-.068.06-.092.101-.19.145-.291.018-.034.041-.063.071-.084.069-.059.136-.119.233-.063-.091.299-.228.581-.366.86-.048.031-.012.175-.138.11"/><path fill-rule="evenodd" fill="#f1c701" d="m37.411 35.1c.063-.065.084-.125.2-.013.164.16.393.256.591.379.04.063.187-.041.165.11-.069.128-.125.166-.266.041-.176-.154-.395-.255-.595-.381-.057-.028-.18-.008-.095-.136"/><path fill-rule="evenodd" fill="#f3c801" d="m27.374 37.31c-.112-.13.064-.117.097-.166.134-.217.299-.412.451-.614.043-.058.084-.044.127-.007.114.048.076.11.018.171-.028.034-.056.069-.082.104-.104.074-.13.21-.24.277-.053.067-.104.134-.153.202-.061.099-.123.169-.218.033"/><path fill-rule="evenodd" fill="#f3c801" d="m35.699 37.08c.156.178.296.365.413.571.036.048.167.007.12.13-.016.01-.029.021-.046.032-.091.069-.135-.023-.198-.057-.185-.212-.303-.477-.517-.668-.079-.072-.002-.103.049-.132.144-.079.133.066.179.124"/><path fill-rule="evenodd" fill="#f3c801" d="m28.382 38.08c-.143-.007-.171-.041-.089-.184.137-.226.249-.467.409-.676.041-.052.031-.184.159-.102l-.003-.005c.08.048.087.11.046.188-.062.084-.128.161-.166.258-.033.079-.109.125-.14.202-.039.067-.077.133-.118.198-.037.036.008.141-.098.121"/><path fill-rule="evenodd" fill="#efc504" d="m28.04 26.866c-.153-.19-.309-.38-.463-.57-.003-.087-.146-.087-.117-.193.037-.033.073-.064.109-.096.111-.029.067.08.108.115.151.236.357.427.54.636.031.039.027.078.004.119-.016.016-.035.03-.05.046-.065.028-.095-.02-.131-.057"/><path fill-rule="evenodd" fill="#f5ca01" d="m35.749 25.467c.079.051.134.089.055.205-.13.188-.226.402-.337.604-.069.031-.069.192-.202.109h.003c-.097-.061-.062-.119.002-.179.12-.208.24-.417.358-.624.06-.019.022-.14.121-.115"/><path fill-rule="evenodd" fill="#f0c601" d="m28.22 25.966c.114.154.144.388.388.422.017.002.039.033.041.053.007.043-.029.058-.067.058-.228.012-.383-.105-.474-.302-.086-.194-.159-.393.066-.553.057.102-.013.22.046.322"/><path fill-rule="evenodd" fill="#f0c601" d="m36.697 37.34c-.139-.159-.275-.316-.414-.477-.035-.093-.132-.143-.168-.236.003-.108.063-.155.17-.147.07.061.098.152.152.227.039.068.102.113.159.164.017.012.02.025.019.038 0 .015-.002.021-.002.021.027.113.113.181.195.251.039.038.152-.003.121.111-.034.032-.068.064-.103.098-.062.032-.095-.009-.129-.05"/><path fill-rule="evenodd" fill="#f5ca00" d="m38.1 27.679c.013.008.021.023.025.036.075.117-.064.102-.092.156-.084.054-.159.118-.255.153-.047.03-.126-.028-.162.044-.085.044-.169.092-.253.138-.053.024-.082.115-.16.043-.011-.012-.016-.025-.016-.045-.066-.13.051-.126.117-.159.221-.145.441-.289.665-.434.08-.05.097.024.131.068"/><path fill-rule="evenodd" fill="#f8f8f8" d="m34.11 37.918c.084.103-.085.117-.065.197-.002.055-.007.105-.053.145-.086.04-.181.04-.269.076-.094.005-.153-.052-.198-.125-.064-.106-.041-.206.027-.304.07-.066.173-.021.25-.066.032-.016.066-.02.105-.013.033.006.064.023.092.041.034.02.067.051.111.049"/><path fill-rule="evenodd" fill="#f7cc00" d="m25.908 30.18c-.219-.013-.422-.085-.629-.147-.058-.099-.219.015-.256-.125-.009-.039-.017-.075.021-.104.059-.051.123-.026.188-.018.075.015.149.039.226.056.114.026.225.059.306.156.103.004.21.002.31.015.081.012.04.055.014.089-.038.075-.086.13-.18.078"/><path fill-rule="evenodd" fill="#ecc302" d="m35.758 26.29c.098-.272.266-.388.525-.356.052.071-.002.096-.053.121-.123.125-.283.212-.34.392-.035.119.031.251-.041.364-.087-.031-.114-.094-.101-.179-.026-.114-.057-.229.01-.342"/><path fill-rule="evenodd" fill="#f4c901" d="m26.351 29.26c-.128.147-.276.106-.414.038-.138-.069-.263-.158-.396-.238-.036-.074-.236 0-.156-.178.011-.033.024-.067.038-.1.123-.059.098.1.172.116.217.087.378.316.648.268.033.033.133-.005.108.094"/><path fill-rule="evenodd" fill="#f8cc00" d="m31.422 39.08c0-.056 0-.114 0-.171-.027-.056-.014-.126-.074-.167-.033-.021-.057-.05-.076-.084-.049-.11-.076-.226-.08-.344.018-.063-.013-.128.016-.19-.002-.063.014-.106.09-.094.079.048.061.144.104.208.026.085.051.167.076.249.035.094.031.199.086.285-.043.104.103.167.062.271-.05.128-.125.098-.204.037"/><path fill-rule="evenodd" fill="#f2c800" d="m30.02 25.744c-.035-.046-.067-.094-.099-.14-.031-.08-.121-.056-.174-.102-.104-.079-.195-.176-.283-.272-.022-.033-.037-.067-.043-.105.011-.053-.037-.14.075-.14.278.208.477.507.762.71.061.044-.026.074-.055.108-.079.035-.137.011-.183-.059"/><path fill-rule="evenodd" fill="#f2c702" d="m26.02 35.607c.037-.031.074-.059.113-.087.047-.082.047-.184.115-.256.058-.064.128-.112.181-.181.075-.089.15-.181.285-.094.024.11-.075.154-.126.219-.161.212-.335.415-.501.623-.077.096-.087-.006-.118-.039-.052-.081.012-.129.051-.185"/><path fill-rule="evenodd" fill="#f6cb00" d="m33.559 37.925c.024.08-.05.161.004.238.053.132.076.272.104.414.096.06.015.191.102.257.003.009.006.018.008.025-.046.026-.095.053-.14.076-.095.041-.1-.025-.104-.086-.005-.067.014-.137-.024-.202v-.013c-.07-.084.034-.219-.084-.288-.008-.063-.019-.126-.028-.19-.005-.087-.068-.145-.104-.218.07-.009.141-.019.212-.026.019-.015.04-.009.055.013"/><path fill-rule="evenodd" fill="#f7f7f6" d="m26.884 28.2c-.169.024-.257-.086-.333-.212-.047-.095-.009-.171.058-.24.038-.025.082-.039.13-.041.114-.006.217.014.285.117.063.151.014.272-.099.376-.013 0-.028 0-.041 0"/><path fill-rule="evenodd" fill="#796b29" d="m38.26 29.322c-.121-.088-.225-.212-.4-.155-.049.013-.087-.023-.079-.08.007-.043.048-.037.082-.037.327-.002.657-.013.983 0 .143.007.061.078.004.12-.191.01-.234.268-.437.266-.015-.022-.024-.044-.026-.067-.002-.046.051-.109.029-.119-.065-.031-.1.052-.156.072"/><path fill-rule="evenodd" fill="#fcfcfc" d="m25.17 30.338c.07.034.059.1.061.157.029.024.064.035.094.055.029.026.048.056.06.093.008.067.011.132-.022.194-.046.101-.126.152-.235.147-.044-.004-.087-.015-.126-.039-.141-.135-.093-.282-.035-.434.019-.115.14-.108.203-.173"/><path fill-rule="evenodd" fill="#f5ca00" d="m30.2 37.934c-.085.093-.173.187-.224.306-.033.128-.041.256.005.383.011.013.02.025.026.041.039.013.059.041.045.078-.014.036-.045.048-.084.036-.067-.054-.15-.099-.151-.2-.03-.152-.044-.304.003-.453.039-.201.199-.265.365-.32.008.007.016.011.027.015.01.018.016.039.016.061-.005.016-.017.036-.028.053"/><path fill-rule="evenodd" fill="#edebde" d="m33.03 24.775c-.002.053-.009.104-.055.14-.015.056-.058.073-.109.082-.376-.009-.388-.02-.375-.347.015-.05.042-.089.087-.113.184.02.424-.072.452.238"/><path fill-rule="evenodd" fill="#f4c900" d="m32.43 38.72c-.061.092.052.138.063.212.053.043.119.084.041.162-.177-.054-.295-.162-.312-.355-.036-.12-.036-.24.002-.361-.009-.093.075-.127.126-.181.022-.024.043-.081.099-.035.067.055-.015.089-.015.132-.041.142-.032.283-.004.426"/><path fill-rule="evenodd" fill="#f3c901" d="m39.22 32.733c.194.117.005.141-.049.158-.282.097-.564.182-.849.272-.167-.046-.097-.139-.05-.227.099-.035.211.024.304-.041h-.005c.035-.034.076-.056.122-.064.034-.011.065-.023.099-.037.056-.024.113-.047.17-.061.087-.013.173-.031.258-.001"/><path fill-rule="evenodd" fill="#f5ca01" d="m38.421 29.423c.085-.082.171-.164.253-.249.062-.067.115-.108.176-.004-.21.23-.422.462-.634.693-.043.024-.068.092-.135.054-.015-.036-.029-.075-.043-.111-.027-.063.019-.082.062-.106.043-.038.087-.078.132-.117.064-.052.073-.172.189-.16"/><path fill-rule="evenodd" fill="#f5c900" d="m31.475 25.27c.002.048.004.099.008.146.023.043.105.078.026.141-.077-.009-.179.052-.218-.076 0-.087 0-.175 0-.261-.014-.144.025-.291-.027-.432-.003-.096-.044-.178-.1-.25.225-.079.263-.062.261.12v-.007c.067.202-.02.416.05.619"/><path fill-rule="evenodd" fill="#f9cd01" d="m25.482 33.971c-.014-.015-.027-.029-.044-.043-.029-.097-.038-.195.003-.292.018-.016.032-.03.047-.045.092-.029.181-.053.268.012.13.118.145.238.021.368-.097.032-.195.035-.295 0"/><path fill-rule="evenodd" fill="#f6ca00" d="m38.95 29.972c.049.065.2.046.161.171-.018.053-.104.053-.156-.002-.104-.087-.211-.048-.324-.023-.121.064-.232.146-.324.253-.125-.015-.064-.089-.05-.149.009-.171.162-.196.271-.264.142-.027.283-.051.422.014"/><path fill-rule="evenodd" fill="#eec503" d="m37.13 35.744c.056.061.128.029.195.034.089.064.2-.003.292.056l-.005-.002c.08.071.19-.006.271.057l-.005-.002c.051.082.203-.046.219.108-.029.038-.057.075-.086.114-.082.052-.126-.043-.194-.052-.063-.003-.13-.005-.191-.005-.076-.026-.153-.046-.235-.05-.036-.001-.07-.011-.104-.021-.101-.048-.207-.079-.296-.148-.012-.013-.021-.025-.023-.045.024-.125.086-.106.162-.044"/><path fill-rule="evenodd" fill="#f2c701" d="m25.02 30.918c.03.004.063.006.096.011.084.061.193-.033.277.045l-.003-.002c.071.082.199-.026.263.077.068.07.11-.003.159-.029.095.002.093.054.061.121l.002-.007c-.053.028-.014.145-.118.117-.051-.02-.113.013-.156-.036-.065-.111-.19-.01-.269-.079l.007.003c-.08-.07-.191.007-.273-.054l.007.002c-.134-.043-.33-.035-.216-.276l-.003.003c.097-.028.089.102.166.104"/><path fill-rule="evenodd" fill="#716427" d="m38.531 31.87c.307.104.61.113.923-.024.034.092.005.188-.007.362-.123-.197-.268-.154-.405-.163-.194-.013-.404.048-.575-.105.009-.036.03-.062.064-.07"/><path fill-rule="evenodd" fill="#f8f8f8" d="m28.694 37.544c.008-.118.104-.18.169-.263.113-.086.193-.027.266.063.002.01.002.021.002.029.038.053.049.105.031.169-.074.139-.189.187-.338.151-.066-.031-.14-.051-.13-.149"/><path fill-rule="evenodd" fill="#f6cb00" d="m32.589 24.562c-.017.017-.034.035-.052.05-.048.137-.004.277-.008.413-.018.053-.009.108-.014.161-.021.094-.098.188-.021.289v-.002c-.092.119-.156.117-.217-.011.002-.052.007-.102.008-.153.09-.089.073-.201.073-.312 0-.106.011-.212-.002-.315-.021-.179.065-.215.216-.188.037.016.041.038.017.068"/><path fill-rule="evenodd" fill="#f1c700" d="m37.518 28.782c-.135-.241.076-.397.14-.589.06-.021.032-.13.123-.115.066.033.094.087.089.156-.004.025-.018.049-.036.066-.119.124-.123.299-.21.436-.006.087-.047.091-.106.046"/><path fill-rule="evenodd" fill="#f7cc00" d="m31.902 25.424c.046-.07.025-.167.101-.222.052-.123.063-.244-.009-.361-.06-.082-.104-.166-.092-.272.142-.002.193.114.27.199.028.149.061.297-.014.441-.049.114-.076.256-.256.215"/><path fill-rule="evenodd" fill="#f7f6f6" d="m36.398 36.744c-.062-.08-.13-.156-.113-.268.018-.02.035-.038.052-.056.074-.058.159-.061.245-.053.074.022.121.07.154.14.022.069.01.133-.021.199-.011.023-.025.045-.044.066-.102.104-.189.041-.273-.028"/><path fill-rule="evenodd" fill="#face00" d="m38.575 31.398c-.031.021-.065.043-.095.063-.057-.053-.048-.106-.005-.162.032-.021.065-.041.1-.062.263-.066.541.031.806-.051h-.004c.123.073.123.146 0 .219h.004c-.267-.051-.538-.04-.806-.007"/><path fill-rule="evenodd" fill="#e9c001" d="m24.855 31.829c.195-.229.332-.212.534.063.054.104.001.147-.091.171-.123-.103-.271-.098-.418-.103-.049-.036-.066-.077-.025-.131"/><path fill-rule="evenodd" fill="#ebc202" d="m25.293 32.05c.059-.034.097-.082.097-.153.14-.096.284-.188.424-.284.087.022.106.059.035.124-.104.182-.29.269-.459.375-.033.023-.069.024-.104.004-.016-.024-.014-.046.007-.066"/><path fill-rule="evenodd" fill="#e6be02" d="m36.654 36.736c0-.015.006-.028.016-.038.055-.048.105-.061.148.015l.002.012c.087.108.227-.005.321.07l-.008-.002c.052.083.212-.045.22.117-.056.087-.143.032-.212.043-.084-.058-.188.01-.275-.048l.006.003c-.065-.065-.162-.003-.229-.057-.02-.038-.016-.078.011-.115"/><path fill-rule="evenodd" fill="#73672e" d="m26.718 34.99c-.15-.056-.182.094-.263.156-.084-.106-.185.029-.271-.021-.059-.037-.155-.031-.152-.137.228-.014.456-.147.686.002"/><path fill-rule="evenodd" fill="#e4bc03" d="m38.564 30.922c-.084.078-.209.089-.228-.02-.022-.138.153-.087.228-.141.095-.028.189-.061.285.003l-.004-.005c.03.036.027.077.006.118-.09.047-.198-.014-.287.045"/><path fill-rule="evenodd" fill="#f8cc00" d="m25.19 29.474c.004-.056.043-.084.094-.104.091-.025.182-.054.269.017.039.043.077.084.116.127.032.08-.025.097-.082.116-.115.007-.223-.02-.33-.056-.042-.021-.067-.053-.067-.1"/><path fill-rule="evenodd" fill="#7e7138" d="m28.23 36.631c.093.076.2.128.268.243.067.118-.01.168-.076.246-.003-.201-.135-.31-.263-.42-.011-.06.012-.082.071-.069"/><path fill-rule="evenodd" fill="#fccf00" d="m26.976 27.833c-.068-.065-.16-.063-.247-.065-.047-.048-.047-.099-.006-.149.088-.003.178-.003.267-.003.159.102.196.229.075.386-.085-.027-.007-.141-.089-.169"/><path fill-rule="evenodd" fill="#eaeae9" d="m26.19 35.07c.08.06.226-.132.267.074-.02.084-.123.084-.161.151-.052.046-.104.047-.155.006-.021-.058-.039-.114-.057-.171-.003-.083.052-.068.106-.06"/><path fill-rule="evenodd" fill="#7a6b23" d="m32.589 24.562c.005-.013.005-.027-.003-.041.068-.056.148-.021.222-.032.091.008.183-.018.271.021.068.106.06.195-.053.266-.054-.255-.307-.111-.437-.214"/><path fill-rule="evenodd" fill="#6b612f" d="m31.425 24.652c-.003-.219-.161-.112-.261-.12.193-.12.588-.101.689.036-.142.035-.311-.075-.428.084"/><path fill-rule="evenodd" fill="#f0c600" d="m29.13 37.529c.002-.053.004-.104.006-.156.281.091.158.238.057.385-.078.049-.165.018-.247.024-.027-.012-.043-.03-.043-.061.079-.06.2-.069.227-.192"/><path fill-rule="evenodd" fill="#706638" d="m32.912 38.14c-.134-.007-.269-.015-.403-.021.185-.146.399-.061.593-.116.024-.007.064.129-.01.192-.061-.014-.112-.07-.18-.055"/><path fill-rule="evenodd" fill="#897a35" d="m25.556 29.589c.056.002.102-.009.108-.075.143.138-.027.342.101.484-.104-.033-.204-.063-.306-.094 0-.114.073-.207.097-.315"/><path fill-rule="evenodd" fill="#6f622a" d="m32.28 25.462c.07.092.141.097.217.011.143 0 .284.002.426.004.003.012.006.022.009.033-.017.054-.08.034-.107.068-.183-.002-.368.014-.547-.01-.158-.019-.051-.072.002-.106"/><path fill-rule="evenodd" fill="#6b6237" d="m32.814 24.51c-.075.004-.151.006-.229.011-.152-.032-.222.02-.205.188.014.11-.002.223-.004.336-.008.025-.021.029-.041.008-.041-.188.071-.4-.114-.584.208 0 .392 0 .577 0 .021.002.03.011.029.022-.004.01-.008.019-.013.019"/><path fill-rule="evenodd" fill="#7c7244" d="m34.736 38.613c-.066.056-.139.091-.248.095.036-.106.129-.186.051-.294-.035-.047-.058-.136.002-.16.104-.041.082.085.121.13.02.024.018.067.026.1.013.042.056.075.048.129"/><path fill-rule="evenodd" fill="#edc301" d="m36.697 36.534c-.055-.021-.025-.11-.094-.12-.034-.061-.176.048-.156-.095.146-.144.25-.011.361.059.065.075.024.162.029.244-.119.081-.078-.085-.14-.088"/><path fill-rule="evenodd" fill="#f1f1f1" d="m37.19 27.03c-.002.125-.089.214-.135.32-.084-.095-.265-.136-.177-.324.017 0 .033 0 .048.001.088-.059.177-.07.264.003"/><path fill-rule="evenodd" fill="#877833" d="m26.344 36.04c.139-.099.203-.306.424-.288-.053.187-.229.25-.355.361-.032-.002-.051-.02-.066-.045-.001-.008-.003-.017-.003-.028"/><path fill-rule="evenodd" fill="#f9cd00" d="m37.833 28.3c.002-.018.002-.036.002-.056.126-.069.236-.177.396-.174.088.096.071.174-.037.236-.015.014-.031.024-.044.036-.064.085-.143.021-.214.019-.034-.021-.069-.039-.103-.061"/><path fill-rule="evenodd" fill="#6e632e" d="m26.19 35.07c-.04.018-.093.002-.106.061-.098.026-.181-.084-.278-.029-.066-.065-.135 0-.204-.014-.049-.061-.126-.128.039-.121.129.007.262.013.393.02.05.028.105.056.156.083"/><path fill-rule="evenodd" fill="#a48b16" d="m25.293 32.1c.031 0 .063.002.097.005.082.186.249.043.366.092.007.014.012.028.018.041-.011.031-.034.053-.062.065-.273.021-.545.094-.805-.052-.014-.03-.007-.057.019-.076.115-.058.242-.052.367-.075"/><path fill-rule="evenodd" fill="#706328" d="m32.498 25.05c.004-.146-.05-.301.039-.443-.039.263.052.393.332.336.027.063.032.11-.062.104-.085.002-.169.004-.253.004-.017.018-.036.018-.056-.001"/><path fill-rule="evenodd" fill="#71642b" d="m30.832 38.765c.067-.091.043-.255.217-.258.086.034.205.026.227.156-.041.066-.121.011-.171.052-.096-.011-.153.046-.203.117-.06.013-.088-.002-.07-.067"/><path fill-rule="evenodd" fill="#e1e0dc" d="m31.26 38.663c-.051-.081-.232.02-.215-.156 0-.019.002-.038.002-.058.069-.046.067-.195.205-.144.02.112.041.228.061.34-.01.027-.026.034-.053.018"/><path fill-rule="evenodd" fill="#9d8411" d="m29.453 25.15c.023.021.051.045.073.067.033.114.058.229.062.35-.004.026-.011.053-.025.074-.057.114-.055.237-.051.359-.028.026-.056.024-.082-.002-.018-.238-.004-.479-.008-.715.002-.046-.01-.095.031-.133"/><path fill-rule="evenodd" fill="#7c6f34" d="m36.874 27.02c.011.134.167.19.177.324-.023.007-.047.014-.068.02-.116-.068-.151-.253-.33-.234l.006.005c-.012-.198.128-.102.215-.115"/><path fill-rule="evenodd" fill="#908241" d="m27.924 27.08c-.005.182-.13.251-.292.333 0-.146.087-.212.144-.289.05-.012.074-.108.148-.044"/><path fill-rule="evenodd" fill="#ecc201" d="m26.24 27.431c.259-.133.422-.07.437.171-.054.055-.104.017-.155-.003-.022-.012-.039-.024-.059-.038-.055-.045-.126-.045-.188-.072-.023-.014-.033-.034-.035-.058"/><path fill-rule="evenodd" fill="#74682e" d="m39.21 30.596c.059-.142-.069-.27-.036-.429.225.154.141.366.147.554-.084 0-.095-.065-.111-.125"/><path fill-rule="evenodd" fill="#fcfcfc" d="m38.26 29.322c-.017-.266.182-.128.293-.169.008.117-.107.148-.132.23-.056.034-.111.034-.161-.012 0-.016 0-.033 0-.049"/><path fill-rule="evenodd" fill="#7c6f2e" d="m39.22 32.733c-.087.035-.172.079-.271.055.03-.118-.161-.11-.128-.229.014-.038.035-.065.08-.036.12.05.247.087.319.21"/><path fill-rule="evenodd" fill="#7d6f2d" d="m35.05 37.572c-.101-.061-.217-.112-.211-.132.032-.117.155-.119.257-.164.047.109-.054.174-.046.296"/><path fill-rule="evenodd" fill="#7e702f" d="m34.37 25.958c-.128-.038-.23-.055-.29-.156.195-.128.195-.128.29.156"/><path fill-rule="evenodd" fill="#746a3e" d="m26.513 28.681c.077.153.151.307-.058.422l.005.004c-.005-.119-.008-.238-.013-.356-.016-.061.011-.077.066-.07"/><path fill-rule="evenodd" fill="#85762d" d="m25.02 30.918c-.094.023-.109-.071-.167-.104-.005-.109-.011-.223.06-.319.029-.028.059-.026.09.001.001.141-.105.285.017.422"/><path fill-rule="evenodd" fill="#898471" d="m25.776 32.422c-.29-.002-.579-.005-.869-.005-.005-.015-.007-.03-.011-.045.017-.024.038-.041.069-.052.19-.021.378-.005.568-.009.073.004.149-.012.219.03.024.022.033.048.024.081"/><path fill-rule="evenodd" fill="#786c39" d="m37.4 36.424c-.051-.077-.162-.1-.171-.21.009-.033.028-.058.06-.074.063-.009.131-.018.195-.005.031.019.053.041.026.079-.028.067-.089.125-.049.207-.02.019-.039.019-.061.003"/><path fill-rule="evenodd" fill="#6f6431" d="m39.38 31.19c-.262.118-.538.031-.806.051.262-.105.539-.017.806-.051"/><path fill-rule="evenodd" fill="#85783a" d="m25.19 29.474c.018.02.036.038.057.058.061.107.032.212-.009.317-.063-.016-.126-.03-.188-.045.037-.116.043-.241.14-.33"/><path fill-rule="evenodd" fill="#675a20" d="m38.746 32.88c-.056.007-.115.012-.171.018-.006-.16.035-.31.081-.458 0-.005.012-.005.016-.003.007.005.014.014.021.02.036.057.063.117.062.188.006.08-.001.158-.009.235"/><path fill-rule="evenodd" fill="#6c6338" d="m38.26 30.22c.012.053-.015.117.05.149 0 .112.03.228-.047.337-.073-.157-.101-.317-.003-.486"/><path fill-rule="evenodd" fill="#827746" d="m38.525 32.361c-.07.002-.139.006-.199.056-.05-.095-.002-.186-.017-.289.13.01.147.123.219.174.011.017.014.026.011.04-.005.012-.009.019-.014.019"/><path fill-rule="evenodd" fill="#8a7d3f" d="m27.744 37.08c.061-.108.102-.236.24-.277-.135.113.01.21.017.315l.005-.004c-.096.057-.164-.092-.262-.034"/><path fill-rule="evenodd" fill="#6b612e" d="m30.832 38.765c.023.021.048.044.069.067.03.237-.098.237-.314.175.123-.069.196-.148.245-.242"/><path fill-rule="evenodd" fill="#6f6534" d="m38.575 31.398c.271-.074.539-.089.806.007-.27 0-.538-.005-.806-.007"/><path fill-rule="evenodd" fill="#706430" d="m38.531 31.87c-.021.024-.043.046-.064.069-.125-.103-.121-.235-.098-.377.027-.028.039-.08.096-.047.019.119-.027.249.066.355"/><path fill-rule="evenodd" fill="#7a6f3a" d="m26.668 36.432c.15 0 .113-.167.202-.221-.007.078.062.106.101.154.031-.022.055-.019.078.006-.094.069-.203.099-.32.108-.057.029-.065-.002-.061-.047"/><path fill-rule="evenodd" fill="#72693b" d="m31.535 25.522c-.02-.039-.034-.075-.053-.112.14.047.282-.009.422.014-.029.173-.171.086-.266.111-.033-.013-.074.028-.103-.013"/><path fill-rule="evenodd" fill="#68603b" d="m29.439 25.26c.003.249.003.5.003.751-.017.012-.034.012-.05-.002.004-.249.006-.497.011-.745.009-.027.023-.029.036-.004"/><path fill-rule="evenodd" fill="#98821e" d="m35.21 25.428c-.054-.091 0-.217-.108-.291.094-.075.146.024.215.031.043.052.048.102-.002.151-.032.041-.039.104-.107.104l.002.005"/><path fill-rule="evenodd" fill="#766b3d" d="m36.23 26.05c.018-.039.033-.08.053-.121.085.096.241-.046.33.104-.134.065-.262-.009-.383.017"/><path fill-rule="evenodd" fill="#796b2c" d="m31.26 38.31c-.097.007-.084.169-.205.144-.015-.142.08-.232.156-.329.027.059.064.116.049.185"/><path fill-rule="evenodd" fill="#746939" d="m24.855 30.811c-.056.194.11.211.216.276-.116-.03-.199.043-.354.152.095-.185.047-.32.138-.428"/><path fill-rule="evenodd" fill="#70642c" d="m25 30.495c-.031 0-.061 0-.09-.001-.038-.256.154-.132.256-.156.053.166-.148.065-.166.157"/><path fill-rule="evenodd" fill="#655d3a" d="m31.535 25.522c.034.002.075-.046.104.013-.123.089-.266.028-.397.05-.028.005-.08.005-.06-.048.014-.024.055-.041.082-.061.017-.028.032-.028.049 0 .058.089.145.046.222.046"/><path fill-rule="evenodd" fill="#86762b" d="m29.563 25.64c0-.016-.003-.033-.003-.048.044-.089.121-.117.214-.108.08 0 .141.026.15.121-.121.013-.241.024-.361.035"/><path fill-rule="evenodd" fill="#706844" d="m36.994 35.834c.103.023.217.009.301.101-.01.043-.046.064-.079.089-.023.02-.051.029-.082.034-.048-.075-.093-.15-.14-.224"/><path fill-rule="evenodd" fill="#8e7c27" d="m28.709 25.436c-.066.113-.176.018-.258.048-.066.029-.082-.004-.071-.06.098-.092.214-.053.325-.046.01.017.015.036.004.058"/><path fill-rule="evenodd" fill="#6e674a" d="m39.38 31.405c.086-.072.082-.146 0-.219 0-.007 0-.018.002-.026 0-.037.021-.089.045-.075.126.061.045.179.058.27.007.052.033.139-.05.152-.047.009-.053-.058-.055-.102"/><path fill-rule="evenodd" fill="#786d38" d="m37.988 27.818c.018-.071.129-.015.137-.104.1.034.12.118.141.207.025.051-.004.072-.045.087-.121-.007-.181-.096-.233-.19"/><path fill-rule="evenodd" fill="#6d6542" d="m36.08 26.962c.103-.052.205-.066.342.013-.143.075-.242.056-.342-.013"/><path fill-rule="evenodd" fill="#9e840a" d="m37.19 27.03c-.089 0-.176-.003-.264-.003.004-.195.204-.058.266-.152.041.015.064.043.06.089-.021.02-.04.044-.062.066"/><path fill-rule="evenodd" fill="#6b6135" d="m36.06 36.684c-.071.079-.03.159.04.255-.111.001-.157-.037-.2-.085-.011-.05-.064-.068-.078-.117.066-.064.156-.069.238-.084 0 .008 0 .019 0 .031"/><path fill-rule="evenodd" fill="#837639" d="m29.13 37.34c-.095.01-.164-.099-.266-.063.007-.056.031-.111-.005-.166.113.05.275.039.271.229"/><path fill-rule="evenodd" fill="#75682e" d="m33.667 38.577c-.069-.13-.101-.27-.104-.414.068.028.043.164.159.135.036.023.095.002.119.054-.094.047-.208.077-.174.225"/><path fill-rule="evenodd" fill="#82763f" d="m26.344 36.27c-.084-.067-.164-.139-.201-.246.082-.058.133.051.201.017l.016.02c.018.07.038.141-.016.209"/><path fill-rule="evenodd" fill="#71652c" d="m30.37 38.818c.055-.008.124-.084.155.005.031.094-.076.061-.117.084-.07.034-.152.034-.217-.026.041-.079.102-.092.179-.063"/><path fill-rule="evenodd" fill="#847739" d="m38.19 27.996c.024-.023.051-.05.079-.074.094.258.085.302-.071.386.043-.073.123-.143.008-.223-.03-.026-.033-.057-.016-.089"/><path fill-rule="evenodd" fill="#95811f" d="m26.528 27.558c.049.015.099.029.148.044.016.003.03.01.046.017.002.049.004.099.006.149-.031.003-.064.005-.098.01-.022.018-.049.021-.077.005-.049-.07-.098-.141-.025-.225"/><path fill-rule="evenodd" fill="#7f7234" d="m27.05 27.981c.123-.146.029-.255-.058-.366.26.085.188.254.106.425-.05.012-.07-.005-.048-.059"/><path fill-rule="evenodd" fill="#827953" d="m27.14 35.566c-.058-.074-.128-.098-.214-.052 0-.066 0-.132 0-.228.11.083.21.142.214.28"/><path fill-rule="evenodd" fill="#797253" d="m37.618 36.638c-.036.065-.027.173-.146.164-.031.024-.054.021-.077-.01.064-.058.071-.128.051-.204.018-.02.039-.031.063-.034.052.008.093.027.109.084"/><path fill-rule="evenodd" fill="#7b6f39" d="m28.694 37.544c.039.036.075.072.112.108.002.009.002.02.004.033.007.056-.002.111-.031.162-.01.009-.019.015-.026.021-.069-.01-.003-.217-.154-.106-.009-.093.044-.156.095-.218"/><path fill-rule="evenodd" fill="#a2870b" d="m25.935 30.541c.135.132-.044.253-.013.381-.108 0-.072-.067-.06-.126 0-.058.003-.116.005-.174-.027-.067.007-.086.068-.081"/><path fill-rule="evenodd" fill="#887931" d="m34.31 37.811c.102-.043.178-.023.214.088-.062.021-.055.076-.057.124l.007-.004c-.058-.068-.173-.089-.164-.208"/><path fill-rule="evenodd" fill="#6d653d" d="m33.971 38.22c-.005-.053.004-.099.07-.105.046.057.057.124.057.192.003.046.068.104.008.135-.073.034-.092-.057-.133-.091-.002-.044-.026-.087-.002-.131"/><path fill-rule="evenodd" fill="#766d48" d="m30.2 37.934c-.002-.021-.002-.045-.005-.067.065-.076.156-.045.234-.058.012-.002.023-.005.034-.007.077.005.162 0 .156.116l.002-.004c-.139.006-.28.013-.421.02"/><path fill-rule="evenodd" fill="#7c6f33" d="m37.515 36.21c-.024-.02-.046-.041-.067-.063-.025-.066-.064-.127-.045-.206.1-.01.192-.017.228.108-.04.054-.077.108-.116.161"/><path fill-rule="evenodd" fill="#7d754e" d="m33.776 38.859c-.002-.008-.003-.017-.008-.025.049-.086.134-.062.21-.065.064-.03.095.009.122.062-.102.069-.209.074-.324.028"/><path fill-rule="evenodd" fill="#786c34" d="m27.418 36.31c-.035.021-.07.046-.105.067-.036-.007-.07-.013-.107-.02-.03-.026-.032-.063-.045-.096.018-.126.121.012.162-.052.078-.013.111.02.095.101"/><path fill-rule="evenodd" fill="#86772c" d="m27.785 37.604c.106-.008.194-.044.264.023.027.031-.002.07-.034.082-.091.034-.163.006-.23-.105"/><path fill-rule="evenodd" fill="#796e39" d="m27.374 37.31c.085.075.148.018.217-.033-.043.072.058.122.025.213-.114-.017-.196-.068-.242-.18"/><path fill-rule="evenodd" fill="#7e702e" d="m28.18 37.23c-.003.091-.032.162-.142.188-.004-.087-.008-.169-.01-.249.061-.008.118-.003.152.061"/><path fill-rule="evenodd" fill="#665c2e" d="m25.756 32.2c.029-.047.062-.095.106-.164.066.158.051.29.005.422-.063-.069-.043-.175-.1-.248l-.011-.01"/><path fill-rule="evenodd" fill="#797047" d="m34.522 25.03c.063.071.134.141.101.25-.039-.008-.078-.015-.117-.024-.099 0-.061-.058-.043-.106 0-.05.016-.091.059-.12"/><path fill-rule="evenodd" fill="#665c2d" d="m32.92 25.477c.046-.049.091-.097.146-.153.067.112.046.199-.053.269-.038-.03-.07-.067-.093-.112v-.004"/><path fill-rule="evenodd" fill="#6c6336" d="m24.967 32.2c-.019.005-.039.007-.057.009-.021.018-.041.02-.064.007-.031-.05 0-.115-.036-.167-.007-.075-.03-.155.046-.216.004.047 0 .097.057.118.067.073.085.157.054.249"/><path fill-rule="evenodd" fill="#655c2f" d="m28.18 37.23c-.053-.021-.103-.041-.151-.061-.006-.021-.011-.039-.018-.059l-.005.004c.061 0 .121-.002.183-.002.041-.002.111-.049.109.039-.002.054-.062.077-.118.079"/><path fill-rule="evenodd" fill="#9d861b" d="m33.971 38.22c.015.044.075.087.002.131-.046 0-.089 0-.132 0-.048-.005-.092-.011-.119-.054.075-.048.157-.077.249-.077"/><path fill-rule="evenodd" fill="#a4890d" d="m35.826 36.736c.057.02.167 0 .078.117-.052.014-.104.03-.155.043-.034-.001-.055-.02-.061-.054.035-.05.07-.101.138-.106"/><path fill-rule="evenodd" fill="#7b6d2f" d="m34.18 38.71c.017-.079-.005-.174.109-.231.043.101.021.195.005.29-.057.017-.094-.004-.114-.059"/><path fill-rule="evenodd" fill="#534c30" d="m28.999 26.28c-.018-.12.023-.21.151-.308-.008.154-.056.241-.151.308"/><path fill-rule="evenodd" fill="#7a6e33" d="m27.05 27.981c.016.02.033.039.049.059-.029.082-.038.188-.171.161.025-.12.103-.235.051-.368.095.017.064.092.071.148"/><path fill-rule="evenodd" fill="#716b50" d="m33.509 38.647c.106.067-.013.236.128.288-.057.054-.129.085-.184.034-.058-.045.043-.073.05-.117.008-.066.005-.135.006-.205"/><path fill-rule="evenodd" fill="#7f7545" d="m34.18 38.71c.038.02.077.04.114.059-.046.089-.128.052-.196.062-.039-.021-.081-.041-.122-.062.053-.067.129-.062.204-.059"/><path fill-rule="evenodd" fill="#69613a" d="m27.924 27.08c-.048.016-.098.029-.148.044.029-.085-.068-.16-.014-.258.121.022.09.159.162.214"/><path fill-rule="evenodd" fill="#746c42" d="m33.559 37.925c-.02-.005-.039-.008-.056-.013.013-.165.136-.082.217-.102.029.03.087.011.107.056-.078.08-.181.044-.268.059"/><path fill-rule="evenodd" fill="#f2c700" d="m39.21 30.596c.036.041.075.082.111.125.02.141-.087.082-.15.093-.035-.032-.035-.068-.009-.106.012-.039 0-.089.048-.112"/><path fill-rule="evenodd" fill="#68603c" d="m32.873 39.04c.084-.051.168-.102.303-.185-.059.178-.138.234-.253.249-.033-.008-.04-.039-.05-.064"/><path fill-rule="evenodd" fill="#6f694b" d="m38.85 30.765c-.096 0-.19-.003-.285-.003.054-.023.109-.045.16-.074.09-.051.088-.053.125.077"/><path fill-rule="evenodd" fill="#736938" d="m25.393 30.974c-.094-.002-.195.031-.277-.045.097.009.171-.031.225-.11.051-.009.084.004.053.063-.001.032-.001.061-.001.092"/><path fill-rule="evenodd" fill="#888473" d="m25.849 31.731c.023-.052.019-.093-.035-.124.006-.05-.021-.107.036-.138.036-.018.074.015.068.049-.014.073.084.186-.069.213"/><path fill-rule="evenodd" fill="#837018" d="m24.81 32.05c.055.043.043.109.05.165.034.048.056.099.053.159-.005.018-.005.031-.005.048-.055.048-.109.087-.109-.03-.003-.115.006-.227.011-.342"/><path fill-rule="evenodd" fill="#675d2d" d="m38.686 32.666c.002-.071.005-.141.007-.21.063.041.162-.021.212.067-.021.02-.039.041-.059.063-.032.043-.059.097-.114.117-.027 0-.04-.014-.046-.037"/><path fill-rule="evenodd" fill="#625c3e" d="m38.32 32.938c-.092.078-.081.153.01.226-.023.026-.041.069-.071.077-.08.024-.061-.054-.051-.075.039-.082-.092-.242.112-.246v.018"/><path fill-rule="evenodd" fill="#82763d" d="m35.688 36.843c.02.018.041.036.061.054-.017.062-.032.122-.05.183-.055-.048-.085-.13-.179-.123.039-.064.094-.102.168-.114"/><path fill-rule="evenodd" fill="#6a6137" d="m29.339 38.559c.134.023.087-.13.158-.164-.017.098.046.169.109.262-.121.002-.198-.039-.267-.098"/><path fill-rule="evenodd" fill="#937d16" d="m32.808 25.05c.046-.021.06-.061.062-.104.037-.011.068-.022.103-.032.017.082.05.181-.036.231-.068.04-.095-.052-.129-.095"/><path fill-rule="evenodd" fill="#787150" d="m29.393 26.01c.018.002.033.002.05.002.024-.005.046-.01.069-.013.072.104-.008.111-.08.131-.037.012-.078.062-.099-.013-.014-.051.032-.075.06-.107"/><path fill-rule="evenodd" fill="#7e7650" d="m27.463 26.1c.021.075.141.092.117.193-.061-.085-.147-.067-.241-.033-.003-.117.067-.133.124-.16"/><path fill-rule="evenodd" fill="#7c744f" d="m36.955 26.28c-.105.069-.174.066-.229-.006-.011-.017-.009-.06.003-.065.083-.046.137.018.226.071"/><path fill-rule="evenodd" fill="#90823e" d="m35.27 26.386c.097.018.12-.102.202-.109-.019.124-.012.293-.202.109"/><path fill-rule="evenodd" fill="#7c713f" d="m38.26 29.372c.055.003.107.007.161.012 0 .013 0 .025 0 .039-.056.06-.099.14-.189.159.008-.07.016-.141.028-.21"/><path fill-rule="evenodd" fill="#786c37" d="m25.908 30.18c.069-.005.137-.013.18-.078.005.087.02.176-.057.256-.088-.027-.049-.145-.123-.178"/><path fill-rule="evenodd" fill="#bba126" d="m32.533 39.09c.03-.065-.035-.106-.041-.162.086.036.176.071.263.108-.027.146-.131.063-.205.064l-.017-.01"/><path fill-rule="evenodd" fill="#6f6740" d="m32.55 39.1c.072-.014.156.015.205-.064.04-.018.079.045.118 0 .015.023.033.045.05.064-.124.07-.25.063-.373 0"/><path fill-rule="evenodd" fill="#ae9005" d="m35.32 38.15c-.094-.026-.14-.096-.182-.171.132-.072.165-.043.182.171"/><path fill-rule="evenodd" fill="#726631" d="m32.16 25.21c.004-.147.009-.294.014-.441.07.149.112.296-.014.441"/><path fill-rule="evenodd" fill="#72631f" d="m25.693 28.3c.021-.086.064-.15.155-.246.006.128.014.205-.072.26-.03.017-.057.012-.083-.014"/><path fill-rule="evenodd" fill="#6b6135" d="m38.95 29.972c-.142-.007-.282-.011-.422-.015.142-.064.285-.101.422.015"/><path fill-rule="evenodd" fill="#6b612f" d="m31.26 24.782c.099.135.035.282.046.425-.014.028-.027.026-.038-.003-.001-.14-.003-.281-.008-.422"/><path fill-rule="evenodd" fill="#8a7c38" d="m38.465 31.516c-.032.015-.063.032-.096.047-.017-.108-.021-.212.106-.264 0 .056.003.109.005.162-.004.019-.011.034-.015.055"/><path fill-rule="evenodd" fill="#c5aa2a" d="m36.652 27.13c.006.038-.015.053-.046.058-.066.021-.113.11-.202.051-.015-.006-.023-.02-.026-.036-.019-.151.126-.067.174-.118.05-.017.077.017.106.051l-.006-.006"/><path fill-rule="evenodd" fill="#706329" d="m37.13 36.06c.024-.021.045-.044.067-.065.104.011.119.076.097.161-.021.02-.043.041-.064.061-.033-.052-.067-.106-.1-.157"/><path fill-rule="evenodd" fill="#796f42" d="m26.513 28.681c-.022.023-.044.044-.065.069-.051-.048-.146-.057-.145-.161.103-.043.16.015.21.092"/><path fill-rule="evenodd" fill="#e7bf03" d="m32.912 38.14c.095-.097.155-.086.18.055-.102.117-.128-.014-.18-.055"/><path fill-rule="evenodd" fill="#786f46" d="m30.845 38.02c-.019.075.036.198-.095.205-.084.007-.059-.087-.061-.145.056-.004.082-.091.156-.06"/><path fill-rule="evenodd" fill="#756d46" d="m25.756 31.25c.038-.039.077-.077.118-.117 0 .046.002.089-.002.13-.005.05.007.125-.065.119-.063-.006-.042-.084-.051-.132"/><path fill-rule="evenodd" fill="#827536" d="m25.935 30.541c-.024.028-.044.055-.067.081-.048-.048-.095-.099-.166-.174.115 0 .216-.064.233.093"/><path fill-rule="evenodd" fill="#ccb02f" d="m30.845 38.02c-.073-.033-.025.234-.155.061-.023-.04-.075-.067-.063-.126.078.001.185-.081.214.068l.004-.003"/><path fill-rule="evenodd" fill="#71683c" d="m29.82 38.12c0 .151-.002.301-.003.453-.085-.154-.081-.304.003-.453"/><path fill-rule="evenodd" fill="#76661a" d="m26.351 29.26c-.036-.029-.071-.063-.107-.094.073-.022.144-.042.217-.063l-.005-.004c.013.085.021.166-.105.161"/><path fill-rule="evenodd" fill="#70673a" d="m25.385 28.886c-.025.128.141.087.156.178-.084-.035-.162.02-.248.029-.007-.095.034-.154.092-.207"/><path fill-rule="evenodd" fill="#7d713c" d="m28.38 25.424c.024.019.048.041.071.06-.066.041-.143.16-.206.072-.056-.079.055-.12.135-.132"/><path fill-rule="evenodd" fill="#967d0c" d="m33.827 37.866c-.044-.004-.087-.007-.107-.056.077-.069.177-.045.266-.069.036.069 0 .106-.056.132-.035-.002-.069-.004-.103-.007"/><path fill-rule="evenodd" fill="#70642c" d="m28.913 26.395c-.021.053-.063.048-.104.043-.043-.004-.096-.023-.066-.075.012-.021.073-.025.111-.03.041-.006.06.021.059.062"/><path fill-rule="evenodd" fill="#776c39" d="m28.913 37.741c.093.006.183.011.274.017-.046.124-.264-.045-.264.156-.016.004-.029.009-.043.013-.083-.077-.091-.143.033-.186"/><path fill-rule="evenodd" fill="#766d45" d="m25.862 30.796c.01.048.007.1.06.126-.004.076.032.16-.05.219-.007-.048-.013-.095-.061-.121.008-.077-.012-.159.051-.224"/><path fill-rule="evenodd" fill="#9b851d" d="m35.31 37.436c-.118-.082-.15-.159-.024-.281.068.097.051.182.024.281"/><path fill-rule="evenodd" fill="#716944" d="m35.27 26.21c-.012.06-.045.118-.002.179-.09-.006-.154-.047-.214-.143.081-.014.147-.026.216-.036"/><path fill-rule="evenodd" fill="#796e3f" d="m32.43 38.72c-.073-.143-.073-.284.004-.427 0 .143-.004.284-.004.427"/><path fill-rule="evenodd" fill="#73693a" d="m30.37 38.818c-.06.021-.118.041-.179.063-.043.005-.087.005-.11-.041-.015-.063.011-.086.071-.072.077.009.157 0 .218.05"/><path fill-rule="evenodd" fill="#84783e" d="m28.23 36.631c-.025.023-.046.046-.071.069-.029 0-.061 0-.092-.002.015-.058.051-.119-.018-.171.1-.033.132.054.181.104"/><path fill-rule="evenodd" fill="#726630" d="m25.286 30.569c-.028-.017-.062-.03-.058-.074.089.003.181-.008.268.009.077.013.065.065.014.106-.082.007-.151-.026-.224-.041"/><path fill-rule="evenodd" fill="#c19f00" d="m25.768 32.21c.18.023.081.159.1.248-.05.038-.061-.024-.091-.034-.009-.02-.012-.039-.021-.059-.005-.037.002-.073.004-.112.005-.015.005-.028.008-.043"/><path fill-rule="evenodd" fill="#807334" d="m26.14 27.734c-.043-.005-.087-.011-.13-.015.038-.055.079-.111.118-.165.051-.025.072.009.089.047.005.064-.024.107-.077.133"/><path fill-rule="evenodd" fill="#968328" d="m39.16 30.707c.002.035.006.07.009.106-.05.023-.12.103-.15.014-.028-.085.069-.106.141-.12"/><path fill-rule="evenodd" fill="#716632" d="m25.393 30.881c-.016-.02-.033-.041-.053-.063-.006-.071-.011-.143-.018-.215.104-.043.092.048.114.098.007.066.019.131-.043.18"/><path fill-rule="evenodd" fill="#76661c" d="m38.1 27.679c-.043-.024-.087-.046-.13-.067.01-.046-.048-.133.005-.13.097.003.13.098.125.197"/><path fill-rule="evenodd" fill="#e2bb03" d="m25.437 30.701c-.039-.032-.075-.064-.114-.098-.014-.013-.023-.023-.036-.034.077-.005.164-.061.224.041-.027.03-.052.061-.074.091"/><path fill-rule="evenodd" fill="#7c6c22" d="m29.981 38.622c-.084-.127-.08-.254-.005-.383.003.128.003.256.005.383"/><path fill-rule="evenodd" fill="#7e7032" d="m28.861 37.12c-.087-.018-.111.061-.159.102.009-.065-.09-.134-.026-.18.067-.05.137.016.185.078"/><path fill-rule="evenodd" fill="#7f7b67" d="m29.439 25.26c-.012.002-.022.002-.036.004-.002-.087-.013-.173-.005-.258.01-.075.055-.075.101-.021-.064.041-.048.104-.046.163-.004.037-.009.075-.014.112"/><path fill-rule="evenodd" fill="#e0b901" d="m38.571 34.985c.052.07.103.138.022.22-.12.011-.086-.08-.096-.143.006-.045.013-.086.074-.077"/><path fill-rule="evenodd" fill="#72693f" d="m27.16 36.26c.015.033.029.063.045.096-.052.005-.104.008-.156.013-.025-.003-.051-.005-.078-.006 0-.152.122-.075.189-.103"/><path fill-rule="evenodd" fill="#786c36" d="m34.25 37.647c.021.058.038.11.057.167-.063-.059-.139-.059-.216-.054l.006.005c-.002-.111.076-.115.153-.118"/><path fill-rule="evenodd" fill="#776a2f" d="m38.52 35.03c.015.061-.019.144.074.174-.012.041-.014.093-.072.093-.046-.002-.053-.041-.051-.076.003-.063.01-.125.014-.186.01-.003.021-.005.035-.005"/><path fill-rule="evenodd" fill="#81784d" d="m35.1 25.524c0-.076.029-.117.108-.097l-.003-.004c.031.082.014.154-.046.22-.049-.025-.088-.055-.059-.119"/><path fill-rule="evenodd" fill="#645d39" d="m37.411 35.1c-.017.077.065.089.096.137-.063.015-.128.027-.2.045-.011-.089.032-.146.104-.182"/><path fill-rule="evenodd" fill="#6b6133" d="m26.14 35.3c.05-.003.104-.003.155-.006-.021.095-.105.149-.157.223 0-.074 0-.145.002-.217"/><path fill-rule="evenodd" fill="#605523" d="m37.4 36.792c.025.003.051.005.077.01-.041.036-.079.072-.118.108-.038-.104-.168-.034-.22-.117.087 0 .173 0 .261-.001"/><path fill-rule="evenodd" fill="#665d34" d="m28.973 38.18c.036.08.076.163.117.251-.091.019-.138-.024-.184-.073 0-.011 0-.021 0-.033-.002-.046.011-.087.039-.125.009-.007.02-.013.028-.02"/><path fill-rule="evenodd" fill="#80784e" d="m35.1 25.524c.021.039.039.078.06.119-.002.057-.03.13-.084.089-.074-.058-.03-.142.024-.208"/><path fill-rule="evenodd" fill="#665f3e" d="m30.02 25.744c.061.019.124.041.184.06-.063.052-.13.1-.22.08.01-.048.024-.095.036-.14"/><path fill-rule="evenodd" fill="#71693e" d="m36.447 36.32c.018.085.133.018.156.095-.089.002-.178.005-.267.007.001-.074.032-.117.111-.102"/><path fill-rule="evenodd" fill="#6e653b" d="m37.2 28.25c.064.031.1-.052.16-.043-.01.065-.018.13-.025.199-.091-.023-.108-.092-.135-.156"/><path fill-rule="evenodd" fill="#9a810f" d="m32.34 25.05c.016-.002.028-.005.041-.008-.013.095.068.22-.092.266.019-.087.033-.174.051-.258"/><path fill-rule="evenodd" fill="#776e3e" d="m35.85 26.807c.024-.12-.032-.25.041-.364-.049.119.127.262-.041.364"/><path fill-rule="evenodd" fill="#6d653b" d="m38.1 35.995c-.05-.087-.173-.016-.219-.108.061 0 .121-.003.184-.005.088-.002.088-.002.035.113"/><path fill-rule="evenodd" fill="#8d7b26" d="m38.37 35.575c-.053-.038-.107-.072-.165-.11.079.021.148-.104.217-.02.03.036.009.102-.052.13"/><path fill-rule="evenodd" fill="#7d6e28" d="m37.772 28.1c-.038.03-.076.061-.115.094 0-.048.034-.104-.041-.125.012-.089.084-.079.146-.087.047.034.045.075.01.118"/><path fill-rule="evenodd" fill="#89792d" d="m37.25 26.96c-.021-.03-.039-.062-.06-.089.087-.041.171-.128.262-.012-.091-.014-.148.039-.202.101"/><path fill-rule="evenodd" fill="#857b4b" d="m37.5 36.583c-.019.002-.037.002-.055.005-.063-.041-.056-.102-.041-.164.02 0 .041-.003.062-.003.032.036.063.073.098.108-.008.034-.042.039-.064.054"/><path fill-rule="evenodd" fill="#83742d" d="m29.29 38.4c.02.052.039.104.058.155-.095.012-.171-.046-.181-.121-.01-.06.082-.014.123-.034"/><path fill-rule="evenodd" fill="#8d7915" d="m36.06 36.684c0-.012 0-.022 0-.031.018-.009.033-.02.051-.028.074.065.172.117.168.236-.08-.05-.119-.153-.219-.177"/><path fill-rule="evenodd" fill="#615933" d="m34.736 38.613c-.053-.031-.053-.077-.048-.13.063.012.126.023.192.036-.027.08-.085.089-.144.094"/><path fill-rule="evenodd" fill="#7a724c" d="m31.384 38.713c.052.056.041.125.038.192-.041-.133-.176-.128-.27-.182.074-.049.155-.035.232-.01"/><path fill-rule="evenodd" fill="#766e46" d="m35.32 25.319c0-.05.002-.103.002-.151.053.036.164.01.154.106-.01.084-.104.022-.156.045"/><path fill-rule="evenodd" fill="#5e5529" d="m37.5 36.583c.021-.018.043-.034.063-.054.046.013.107-.057.133.005.022.043-.023.09-.078.104-.038-.018-.079-.038-.118-.055"/><path fill-rule="evenodd" fill="#766e46" d="m25.595 28.902c-.056-.038-.115-.077-.172-.116.191-.163.096.105.172.116"/><path fill-rule="evenodd" fill="#d7b518" d="m25.6 35.09c.074-.085.143-.095.204.014-.025.029-.079-.024-.092.031-.065.046-.077-.023-.112-.047v.002"/><path fill-rule="evenodd" fill="#685f3a" d="m26.718 28.367c.038.018.079.036.12.056-.011.051-.036.099-.096.133-.056-.058-.004-.131-.024-.189"/><path fill-rule="evenodd" fill="#6a6449" d="m25.693 28.3c.029.005.058.007.083.014-.004.087-.047.159-.136.125-.036-.012.005-.102.053-.139"/><path fill-rule="evenodd" fill="#716944" d="m27.681 26.12c-.036-.036-.071-.076-.108-.115.029-.043.06-.099.115-.061.078.055-.024.116-.007.176"/><path fill-rule="evenodd" fill="#6a6030" d="m37.3 28.05c-.043.053-.138.064-.117.159-.051-.041-.111-.104-.07-.156.022-.032.12-.004.187-.003"/><path fill-rule="evenodd" fill="#5f5630" d="m26.344 36.27c.007-.069.012-.141.016-.21.017.018.034.036.053.054.005.04.005.083.014.12.007.029.039.06-.005.079-.035.012-.063-.009-.078-.043"/><path fill-rule="evenodd" fill="#706845" d="m37.821 36.06c.079-.026.128.038.194.052-.141.263-.119-.07-.194-.052"/><path fill-rule="evenodd" fill="#6c6231" d="m27.418 36.31c-.031-.032-.066-.065-.096-.1.023-.091.093-.052.151-.05-.007.053.037.128-.055.15"/><path fill-rule="evenodd" fill="#887c47" d="m36.945 27.83c.082.008.085-.083.138-.11.01.069.034.149-.048.184-.049.021-.074-.031-.09-.074"/><path fill-rule="evenodd" fill="#736f5a" d="m26.668 36.432c.02.018.039.033.061.048-.047.041-.104.086-.155.033-.037-.038-.015-.097.035-.128.018.014.037.031.059.047"/><path fill-rule="evenodd" fill="#726630" d="m26.19 27.619c-.022-.021-.044-.042-.065-.064.037-.041.075-.082.113-.124.02.01.039.019.058.026.019.018.026.039.026.065-.019.068-.053.113-.132.097"/><path fill-rule="evenodd" fill="#847c55" d="m36.404 27.24c.067-.017.135-.036.202-.051-.061.041-.075.253-.202.051"/><path fill-rule="evenodd" fill="#6c6546" d="m36.552 27.09c-.044.058-.153.021-.174.118-.063-.054-.123-.108.025-.116.049-.005.098-.002.149-.002"/><path fill-rule="evenodd" fill="#94822d" d="m36.697 36.534c.07-.007.057.092.121.097.01.002.021.007.031.009-.011.024-.021.047-.031.073-.051-.005-.101-.01-.148-.015.01-.054.018-.11.027-.164"/><path fill-rule="evenodd" fill="#786d39" d="m28.04 26.866c.043.02.086.037.132.057-.03.058-.089.124-.14.101-.084-.034.019-.101.008-.158"/><path fill-rule="evenodd" fill="#847d5f" d="m37.518 28.782c.043.004.079-.007.105-.046.036.056.077.128-.007.158-.066.025-.085-.059-.098-.112"/><path fill-rule="evenodd" fill="#6d6438" d="m37.14 36.795c-.106-.023-.237.055-.321-.07.101.043.229-.022.321.07"/><path fill-rule="evenodd" fill="#6e6746" d="m35.758 26.29c-.004.115-.007.228-.009.342-.077-.116-.099-.232.009-.342"/><path fill-rule="evenodd" fill="#6e6125" d="m28.22 25.966c-.089-.097-.034-.214-.046-.322.113.092.024.216.046.322"/><path fill-rule="evenodd" fill="#786e3c" d="m36.697 37.34c.043.015.087.031.13.05-.035.049-.068.123-.137.088-.067-.035.013-.09.007-.138"/><path fill-rule="evenodd" fill="#bb9b03" d="m32.92 25.479c.052.02.1.045.093.112-.063.041-.13-.004-.193-.014.034-.03.068-.064.1-.098"/><path fill-rule="evenodd" fill="#8b804d" d="m34.924 25.686c-.093-.079-.095-.18-.082-.286.076.079.07.185.082.286"/><path fill-rule="evenodd" fill="#b79a15" d="m33.93 37.873c.018-.043.039-.086.056-.132.02-.031.036-.026.049.005.035.072.074.149-.047.181-.019-.017-.041-.036-.058-.054"/><path fill-rule="evenodd" fill="#81722d" d="m35.988 37.756c.068.02.133.039.198.057-.114.148-.177.127-.198-.057"/><path fill-rule="evenodd" fill="#6b6236" d="m35.749 25.467c-.063.013-.039.123-.121.116.063-.063-.098-.145.011-.195.049-.022.09.031.11.079"/><path fill-rule="evenodd" fill="#82794c" d="m33.29 37.938c.09.047.133.116.104.218-.034-.07-.131-.114-.104-.218"/><path fill-rule="evenodd" fill="#71652d" d="m28.382 38.08c.034-.039.065-.079.099-.12.024.062.05.12.079.193-.082.004-.134-.019-.178-.073"/><path fill-rule="evenodd" fill="#918653" d="m31.4 38.23c-.07-.05-.084-.13-.104-.208.142.019.068.139.104.208"/><path fill-rule="evenodd" fill="#7e764d" d="m34.463 25.15c.016.034.031.071.043.106.021.056 0 .132-.051.104-.103-.055-.042-.141.008-.21"/><path fill-rule="evenodd" fill="#8a7f4c" d="m34.818 25.311c-.094-.075-.096-.178-.082-.286.076.082.069.186.082.286"/><path fill-rule="evenodd" fill="#746a3b" d="m30.84 38.03c-.051-.087-.142-.051-.214-.068-.006-.016-.006-.03-.004-.046l-.002.004c.061.061.258-.15.22.11"/><path fill-rule="evenodd" fill="#716320" d="m38.631 30.12c.113-.059.226-.104.324.023-.107-.008-.215-.016-.324-.023"/><path fill-rule="evenodd" fill="#7f7962" d="m32.22 38.38c0 .121-.002.241-.002.361-.089-.12-.062-.24.002-.361"/><path fill-rule="evenodd" fill="#70642c" d="m25.02 29.907c.061.091.21.002.256.125-.065-.084-.269.114-.256-.125"/><path fill-rule="evenodd" fill="#8e824f" d="m31.563 38.769c-.095-.075-.098-.177-.086-.285.074.081.076.185.086.285"/><path fill-rule="evenodd" fill="#6e6950" d="m38.843 30.875c.003-.04.003-.079.003-.115.047.043.055.102.055.159 0 .036.017.096-.051.081-.022-.004-.041-.045-.061-.071.002-.034.035-.037.054-.054"/><path fill-rule="evenodd" fill="#665e38" d="m31.422 39.08c.07.012.15.063.202-.036.096.012.109.068.022.097-.065.021-.178.054-.224-.061"/><path fill-rule="evenodd" fill="#5a5335" d="m26.668 26.896c.035.045.072.091.109.137-.07-.007-.15.007-.195-.028-.028-.018.045-.078.086-.109"/><path fill-rule="evenodd" fill="#8b7f49" d="m34.68 25.424c.074.066.062.151.053.235-.068-.067-.075-.149-.053-.235"/><path fill-rule="evenodd" fill="#7b734e" d="m25.06 31.09c.094.008.197-.033.273.054-.092-.006-.194.03-.273-.054"/><path fill-rule="evenodd" fill="#6f611e" d="m36.23 37.78c-.043-.044-.081-.087-.12-.13.072 0 .151-.018.188.071.003.008-.045.04-.068.059"/><path fill-rule="evenodd" fill="#82701b" d="m38.843 30.875c-.016.017-.034.034-.054.054-.076-.003-.149-.005-.225-.007.082-.075.184-.045.279-.047"/><path fill-rule="evenodd" fill="#887f52" d="m37.937 28.362c.071-.007.14-.012.214-.019-.063.123-.138.075-.214.019"/><path fill-rule="evenodd" fill="#736d55" d="m30.19 37.804c.092-.08.185-.057.278-.002l-.005.011c-.086.042-.173.032-.261.006l-.012-.015"/><path fill-rule="evenodd" fill="#706636" d="m38.08 29.917c.044-.02.089-.036.135-.054-.02.051.009.128-.058.149-.072.02-.058-.055-.077-.095"/><path fill-rule="evenodd" fill="#6f684c" d="m33.987 37.927c.065-.048.061-.112.047-.181.022.006.041.012.063.02l-.006-.005c.006.052.011.104.015.157-.033.101-.074.074-.119.009"/><path fill-rule="evenodd" fill="#615728" d="m38.52 35.03c-.014 0-.024.002-.035.005 0-.056-.093-.115-.035-.151.072-.044.111.03.122.101-.019.016-.036.031-.052.045"/><path fill-rule="evenodd" fill="#70642d" d="m25.548 29.387c-.089-.005-.18-.01-.269-.017.094-.07.185-.099.269.017"/><path fill-rule="evenodd" fill="#716530" d="m36.66 36.848c.074.013.158-.018.212.061-.088.007-.175.012-.264.019-.002-.008-.005-.017-.012-.025-.003-.049.012-.075.064-.055"/><path fill-rule="evenodd" fill="#5f593c" d="m26.925 36.732c-.014.041-.031.082-.046.121-.046-.025-.106-.059-.087-.109.023-.067.087-.026.133-.012"/><path fill-rule="evenodd" fill="#6e6640" d="m28.794 38.14c-.069-.082-.036-.179-.041-.27l.001-.005c.13.031.107.125.094.219-.01.026-.028.044-.054.056"/><path fill-rule="evenodd" fill="#716940" d="m28.924 37.914c.075.078.039.177.049.266l-.007.007c-.169-.058-.107-.164-.053-.269l.011-.004"/><path fill-rule="evenodd" fill="#686245" d="m25.6 35.09c.037.016.076.032.112.047.007.04.048.108-.009.108-.084 0-.092-.089-.103-.155"/><path fill-rule="evenodd" fill="#5d5322" d="m26.932 36.91c.039-.007.076-.015.115-.021.008.054.079.092.035.162-.08-.013-.113-.08-.15-.141"/><path fill-rule="evenodd" fill="#988011" d="m32.494 25.475c-.092-.08-.063-.169-.008-.258.039.028.031.065.012.103 0 .051-.002.104-.004.155"/><path fill-rule="evenodd" fill="#888473" d="m31.27 25.2c.014.003.025.003.038.003 0 .091 0 .181.003.27h-.025-.023c0-.09.005-.181.007-.273"/><path fill-rule="evenodd" fill="#706a4a" d="m36.866 36.905c.093.01.193-.028.275.048-.094.003-.196.037-.275-.048"/><path fill-rule="evenodd" fill="#584e20" d="m27.678 36.31c.018-.032.036-.063.055-.094.074.016.144.067.104.132-.034.057-.101-.047-.159-.038"/><path fill-rule="evenodd" fill="#776820" d="m25.482 33.971c.1 0 .197 0 .294 0-.096.085-.194.085-.294 0"/><path fill-rule="evenodd" fill="#474229" d="m36.912 27.649c0 .044 0 .087 0 .133-.049-.053-.137-.072-.122-.167.041.011.082.025.122.034"/><path fill-rule="evenodd" fill="#787254" d="m34.463 37.683c-.068-.011-.143-.021-.212-.032.084-.083.161-.098.212.032"/><path fill-rule="evenodd" fill="#5c5538" d="m38.1 29.699c-.023.037-.041.071-.062.106-.054-.036-.089-.108-.061-.149.053-.069.075.041.123.043"/><path fill-rule="evenodd" fill="#746628" d="m36.85 36.64c-.011-.004-.021-.007-.031-.009-.005-.084-.007-.169-.01-.253.119.071.057.171.041.262"/><path fill-rule="evenodd" fill="#867422" d="m28.906 38.36c-.146-.017-.094-.139-.112-.219l.015-.007c.127.024.103.125.105.212l-.008.014"/><path fill-rule="evenodd" fill="#7d7034" d="m28.23 26.877c-.002-.039-.002-.078-.004-.119.036-.025.088-.086.113-.006.033.084-.059.093-.109.125"/><path fill-rule="evenodd" fill="#807c66" d="m32.498 25.319c-.004-.035-.009-.067-.012-.103.003-.051.008-.108.012-.162.02 0 .037 0 .057 0-.022.091 0 .184-.057.265"/><path fill-rule="evenodd" fill="#7b7450" d="m25.331 31.14c.093.018.208-.047.269.076-.085-.041-.196.016-.269-.076"/><path fill-rule="evenodd" fill="#796a27" d="m25.441 33.636c-.003.097-.003.195-.003.292-.088-.097-.084-.196.003-.292"/><path fill-rule="evenodd" fill="#7b7453" d="m25.756 33.603c-.087-.003-.178-.008-.268-.012.094-.068.186-.109.268.012"/><path fill-rule="evenodd" fill="#797357" d="m37.888 35.889c-.091-.007-.196.029-.271-.057.095 0 .192-.02.271.057"/><path fill-rule="evenodd" fill="#6e6330" d="m34.838 26.01c.037.032.072.064.108.098.005.039.011.107-.034.095-.094-.027-.073-.12-.074-.193"/><path fill-rule="evenodd" fill="#887c43" d="m33.424 38.35c.131.064.074.187.084.288-.074-.082-.046-.195-.084-.288"/><path fill-rule="evenodd" fill="#8b7f4b" d="m34.754 25.797c.118.034.085.133.085.217-.088-.05-.043-.15-.085-.217"/><path fill-rule="evenodd" fill="#7b7147" d="m25.652 31.05c-.082-.043-.195.024-.263-.077.093.012.205-.041.263.077"/><path fill-rule="evenodd" fill="#7e7239" d="m37.621 35.834c-.102.005-.205.016-.292-.056.099-.003.207-.031.292.056"/><path fill-rule="evenodd" fill="#edebde" d="m32.814 24.51c-.005-.016-.009-.028-.016-.041.096-.009.195-.037.28.041-.088 0-.175 0-.264 0"/><path fill-rule="evenodd" fill="#5d573c" d="m36.93 37.29c-.041-.037-.082-.073-.121-.111.067.04.152-.061.205.029.005.006-.053.053-.084.082"/><path fill-rule="evenodd" fill="#716c55" d="m37.13 35.744c-.063-.017-.125-.028-.163.045-.039-.023-.068-.073-.025-.098.066-.036.147-.043.188.053"/><path fill-rule="evenodd" fill="#53491e" d="m26.876 26.876c-.033-.021-.065-.041-.095-.062.002-.063.037-.136.093-.107.074.032-.013.109.002.169"/><path fill-rule="evenodd" fill="#80733a" d="m30.15 38.768c-.023.023-.048.046-.071.072-.044-.008-.094-.008-.112-.063.066-.02.062-.064.039-.114.062.013.109.047.144.105"/><path fill-rule="evenodd" fill="#9f8407" d="m31.384 38.713c-.077.002-.154.007-.231.011l-.026.003-.021-.012c.041-.061.104-.048.159-.052.019-.004.035-.011.053-.018.022.022.041.045.066.068"/><path fill-rule="evenodd" fill="#776826" d="m38.32 32.938v-.018c.088-.007.177-.016.264-.023-.077.087-.169.057-.264.041"/><path fill-rule="evenodd" fill="#716427" d="m26.02 35.607c-.018.063-.035.123-.051.186-.071-.087-.185-.184.051-.186"/><path fill-rule="evenodd" fill="#5f5525" d="m26.1 28.429c.006 0 .013-.001.015 0 .006.004.011.016.009.021-.011.021-.021.021-.032-.003-.004-.005.006-.011.008-.018"/><path fill-rule="evenodd" fill="#635a31" d="m35.11 37.705c.005-.014.011-.029.016-.043.008.01.017.019.025.024-.014.007-.027.014-.041.019"/><path fill-rule="evenodd" fill="#5e552e" d="m35.11 37.705c-.007.015-.014.027-.02.041-.006-.01-.015-.018-.024-.026.017-.005.031-.01.044-.015"/><path fill-rule="evenodd" fill="#5a512a" d="m26.23 28.49c-.001.004-.006.01-.009.015-.006-.005-.016-.011-.024-.018.007-.004.011-.009.019-.016.004.008.01.014.014.019"/><path fill-rule="evenodd" fill="#595024" d="m28.709 25.436c-.002-.021-.002-.038-.004-.058.012.005.023.009.037.013-.012.015-.022.028-.033.045"/><path fill-rule="evenodd" fill="#635824" d="m38.525 32.361c.003-.02.003-.039.003-.06.013.019.024.033.038.048-.013.005-.027.007-.041.012"/><path fill-rule="evenodd" fill="#615931" d="m34.47 38.08c0-.021 0-.041 0-.06l-.007.004c.016.013.028.027.041.044-.013.002-.025.003-.041.008l.007.004"/><path fill-rule="evenodd" fill="#5f562d" d="m34.463 38.07c-.002.014-.005.026-.007.041-.011-.004-.019-.011-.027-.018.014-.007.026-.012.041-.02l-.007-.003"/><path fill-rule="evenodd" fill="#5d552b" d="m34.36 25.531c-.012-.007-.028-.016-.043-.023.01-.005.02-.012.031-.016.002.016.004.03.009.043l.003-.004"/><path fill-rule="evenodd" fill="#645c35" d="m34.36 25.535c.012.002.025.005.039.005-.005.011-.01.019-.017.028-.007-.011-.012-.024-.02-.037l-.002.004"/><path fill-rule="evenodd" fill="#4363fe" d="m28.16 33.691c.058-.11.115-.222.171-.332.109-.01.208-.059.322-.053.164 0 .328-.018.492.017.349.067.703.019 1.056.033.301 0 .604 0 .905 0 .6 0 1.199 0 1.799 0 .321.003.643 0 .962 0 .281.003.563 0 .844 0 .157 0 .313.003.47 0 .115-.015.223.034.336.024.031 0 .061 0 .061 0s-.041-.003-.075-.003c-.228.013-.364-.178-.552-.25-.265-.122-.549-.215-.736-.455-.069-.089-.185-.195-.016-.307.357-.038.717-.094 1.064.047.401.679.799 1.357 1.197 2.037.062.102.035.146-.082.143-.046-.003-.092 0-.135 0-2.768 0-5.536 0-8.302 0-.313 0-.314-.003-.159-.269.11-.193.226-.382.337-.572.077-.056.148-.006.217.024.087.009.176 0 .265.005-.092-.005-.183.006-.271-.01-.048-.042-.124-.028-.17-.079"/><path fill-rule="evenodd" fill="#00fefe" d="m35.27 32.413c-.374 0-.75 0-1.124 0-.13.009-.135-.111-.185-.182-.061-.087-.08-.212-.208-.24-.116.069-.116.235-.246.294-.065.02-.122-.006-.169-.049-.074-.079-.112-.193-.232-.226-.097-.063-.188-.135-.241-.24-.021-.023-.028-.059-.06-.071.033.02.041.056.066.08.021.053.002.099-.025.145-.119.169-.131.402-.313.534-.072.026-.144.026-.214 0-.142-.089-.196-.22-.202-.381.072-.233.006-.472.034-.708-.011-.033-.052.014-.02-.002.034.185.007.371.017.557-.021.164-.14.041-.204.069-.174.11-.136.366-.323.465-.086.036-.178.033-.269.016-.137-.034-.175-.162-.237-.269-.055-.089-.073-.203-.188-.246-.053.006-.088.052-.133.073-.128.064-.171.238-.335.253-.11-.027-.133-.134-.188-.21-.045-.063-.094-.145-.187-.049-.094.162-.112.376-.324.451-.286.012-.578.101-.849-.064.377-.653.753-1.307 1.127-1.961.148-.146.347-.173.533-.216.429-.104.869-.146 1.309-.183.09-.009.178-.004.251.059.026.137.02.271.009.386.032-.106-.011-.242.018-.37.041-.055.102-.081.163-.071.436.067.896.03 1.312.221.018.145.106.085.181.059.126-.003.241.026.332.12.374.652.75 1.303 1.124 1.956"/><path fill-rule="evenodd" fill="#01fefd" d="m31.04 28.725c.342-.605.684-1.211 1.045-1.852.347.656.747 1.229 1.038 1.865-.324-.034-.636-.127-.951-.192-.096-.118-.051-.256-.046-.383-.023.063-.005.123-.011.181-.003.07.004.14-.045.193-.342.065-.677.182-1.03.188"/><path fill-rule="evenodd" fill="#fd0d01" d="m32.17 28.513c.33.019.655.057.951.226.077.073.164.143.174.263-.088.089-.197.063-.302.054-.585-.044-1.172-.05-1.758.007-.128.012-.288.075-.356-.118.053-.072.107-.146.159-.219.322-.15.664-.21 1.021-.212.036-.027.074-.027.111-.001"/><path fill-rule="evenodd" fill="#5001c0" d="m33.884 30c.039.063.077.124.116.187-.109.162-.258.064-.381.041-.52-.104-1.041-.19-1.57-.187-.514.004-1.018.085-1.52.191-.117.024-.257.11-.353-.051.046-.073.087-.149.13-.221.323-.205.699-.18 1.056-.228.733-.095 1.467-.034 2.189.115.125.026.246.049.333.153"/><path fill-rule="evenodd" fill="#0152d6" d="m33.884 30c-1.126-.279-2.257-.295-3.392-.057-.061.014-.123.012-.186.018.041-.075.077-.15.116-.228.314-.177.667-.2 1.01-.216.578-.024 1.154-.041 1.731.048.203.03.403.06.586.166.047.091.122.165.136.269"/><path fill-rule="evenodd" fill="#4363fd" d="m28.908 32.413c.302 0 .602 0 .902 0 .069.188-.063.308-.171.411-.301.29-.651.489-1.075.525-.069-.006-.142.026-.205-.02.183-.306.368-.61.549-.916"/><path fill-rule="evenodd" fill="#c054d6" d="m30.18 30.18c.27.059.518-.07.772-.118.972-.181 1.924-.087 2.875.125.06.013.117.052.176-.002.046.089.096.18.142.27-.12-.023-.241-.049-.362-.075-.03-.015-.068-.014-.095-.037-.494-.148-1-.194-1.511-.208-.02.017-.039.014-.057 0-.611-.008-1.211.08-1.799.248-.092.027-.188.047-.283.068.048-.091.096-.18.142-.271"/><path fill-rule="evenodd" fill="#fbfa02" d="m30.62 29.473c0-.089.082-.135.11-.209.28-.202.617-.14.928-.177.488-.059.977.027 1.464.059.118.006.225.056.324.118.06.063.151.118.057.224-.096.089-.214.075-.327.059-.229-.037-.462-.028-.691-.041-.525-.032-1.047-.007-1.568.048-.106.009-.215.009-.297-.081"/><path fill-rule="evenodd" fill="#fe5500" d="m33.446 29.26c-.379-.031-.757-.07-1.134-.092-.531-.031-1.057.031-1.582.092.027-.118.068-.229.152-.32.051.074.126.065.196.055.739-.103 1.479-.076 2.22.003.049.085.098.173.148.262"/><path fill-rule="evenodd" fill="#029e9e" d="m30.62 29.473c.222.052.437-.033.655-.046.744-.05 1.486-.016 2.228.061.143.021.198.13.246.244-.41-.024-.812-.131-1.227-.147-.706-.025-1.404.031-2.1.149.039-.106.105-.195.198-.261"/><path fill-rule="evenodd" fill="#152011" d="m28.359 33.33c.095-.015.187-.027.283-.041 0 .032-.01.059-.027.085-.094.028-.188.004-.281-.015 0-.017.01-.026.025-.029"/><path fill-rule="evenodd" fill="#30a1f5" d="m28.16 33.691c.06.007.123 0 .163.057.02.014.026.023.02.037-.007.013-.012.02-.012.02-.075-.018-.145-.034-.212-.053.014-.02.028-.041.041-.061"/><path fill-rule="evenodd" fill="#6f6430" d="m31.475 25.27c-.104-.2-.03-.412-.05-.619.091.2.042.412.05.619"/><path fill-rule="evenodd" fill="#736628" d="m31.994 24.841c.11.117.11.238.009.361-.003-.121-.007-.241-.009-.361"/><path fill-rule="evenodd" fill="#f8f8f7" d="m26.19 27.619c.04-.032.076-.066.112-.1.078-.084.143-.029.208.021l.016.017c.032.063.044.133.022.205.012.111-.045.164-.15.173-.086-.066-.173-.134-.262-.201.018-.039.037-.075.054-.115"/><path fill-rule="evenodd" fill="#89792d" d="m26.4 27.936c.049-.059.099-.117.15-.173.026.005.055.01.08.015-.025.072-.054.141-.08.212-.052-.007-.114.004-.15-.054"/><path fill-rule="evenodd" fill="#947e13" d="m36.66 36.848c-.022.017-.041.036-.063.056-.108-.002-.155-.077-.198-.159.084.017.174.118.256-.008.003.036.003.074.005.111"/><path fill-rule="evenodd" fill="#f4f4f3" d="m37.772 28.1c-.003-.038-.007-.079-.011-.118.076-.055.15-.108.227-.163.126-.008.159.087.198.178.003.03.01.059.016.089-.112.082-.196.218-.367.16.009-.061-.029-.102-.063-.146"/><path fill-rule="evenodd" fill="#fcfcfb" d="m25.23 29.849c-.112-.11.016-.212.009-.317.107.005.219-.01.313.058.083.141.077.253-.099.315-.073-.019-.147-.037-.223-.056"/><path fill-rule="evenodd" fill="#e5e5e5" d="m29.773 25.483c-.071.034-.142.072-.214.108-.106-.117-.037-.251-.033-.376.08.091.195.153.247.268"/><path fill-rule="evenodd" fill="#e8bf00" d="m30.2 37.818c.088-.002.175-.004.261-.006-.075.08-.174.037-.264.054 0-.014 0-.032.003-.048"/><path fill-rule="evenodd" fill="#f5f4f4" d="m38.725 32.683c.009-.07.025-.131.121-.097.002.084.262.035.106.202-.052.021-.091.075-.156.058-.069-.035-.096-.089-.071-.163"/><path fill-rule="evenodd" fill="#a2965b" d="m38.725 32.683c.004.064.016.122.071.163-.017.011-.035.024-.05.034-.087-.051-.072-.133-.061-.214.012.007.024.014.04.017"/><path fill-rule="evenodd" fill="#f3f3f2" d="m37.3 36.15c-.032-.055-.064-.107-.097-.161.005-.063.061-.045.094-.058.036.004.07.007.107.01.104.051.118.117.045.206-.05.05-.097.054-.149.003"/><path fill-rule="evenodd" fill="#7b6e31" d="m29.13 37.529c.004.145-.103.169-.212.192-.055.011-.111.024-.109-.063l.003-.007c.129.018.238-.013.318-.122"/><path fill-rule="evenodd" fill="#f0f0ef" d="m24.967 32.2c-.086-.066-.055-.16-.055-.249.159-.097.305-.136.381.098 0 .021 0 .037 0 .057-.066.181-.224.043-.326.094"/><path fill-rule="evenodd" fill="#eec401" d="m28.804 37.659c.021.047.069.051.109.063v.02c-.085.058-.05.118 0 .177.011.091-.024.191.053.269-.006.057.029.126-.052.157-.036-.07-.071-.14-.105-.212-.015-.09.029-.191-.055-.268.016-.07-.032-.155.05-.206"/><path fill-rule="evenodd" fill="#fed100" d="m25.76 32.25c.058.041.06.077-.004.112-.067 0-.135-.002-.202-.004-.214-.033-.43-.041-.644.004l.002.006c-.074-.034-.053-.102-.053-.159.015-.002.034-.005.051-.005.278.102.567.037.85.046"/><path fill-rule="evenodd" fill="#867735" d="m26.513 27.541c-.067-.031-.137-.043-.208-.021-.002-.021-.004-.041-.007-.063.085-.005.179-.034.215.084"/><path fill-rule="evenodd" fill="#c4a927" d="m24.91 32.363c.214-.084.428-.069.644-.004-.214 0-.43.002-.644.004"/><path fill-rule="evenodd" fill="#6da600" d="m28.615 33.374c.01-.028.018-.056.024-.085.496-.151.964-.342 1.171-.876.078-.16.156-.323.231-.484.104.004.132.086.156.159.162.526.525.83.993.944-.141-.065-.357-.111-.511-.275-.08-.084-.165-.164-.157-.294.022-.192.168-.329.225-.506.047-.031.097-.061.145-.092.028.034.055.072.062.115.111.645.569.926 1.145 1.082.062.02.125.034.187.049.114.038.222.087.332.128.048.031.104.053.095.125-.232.074-.468.053-.702.005-.055-.063-.139-.066-.199-.111-.004.077.208-.01.115.145-.279.006-.559 0-.836.002-.301 0-.602 0-.902 0-.364-.014-.725.027-1.085-.021-.164-.003-.325-.008-.489-.01"/><path fill-rule="evenodd" fill="#6ca401" d="m33.494 32.26c.098-.11.094-.286.239-.359.087.126.114.276.167.415.197.496.61.671 1.087.76.19.052.306.262.525.25.041.026.12.033.056.111-.113-.003-.229-.004-.344-.006-.148-.048-.301-.012-.449-.024-.144-.017-.265-.104-.409-.119-.063-.011-.123-.034-.176-.068-.065-.04-.129-.077-.199-.096-.249-.123-.536-.188-.678-.468-.008-.094.055-.162.08-.244.023-.062.062-.108.101-.152"/><path fill-rule="evenodd" fill="#f6b901" d="m34.987 33.07c-.351.1-.624-.114-.853-.295-.263-.2-.401-.525-.401-.88.148-.035.169.09.219.175.066.11.126.227.189.34.091.29.333.416.583.534.09.039.176.085.263.126"/><path fill-rule="evenodd" fill="#213300" d="m31.957 33.33c.251.053.5.106.749-.002.08-.063.145-.02.21.028.015.021.02.046.008.071-.605 0-1.213 0-1.822-.002 0-.014 0-.023-.002-.036.286-.051.58.063.859-.062l-.002.003"/><path fill-rule="evenodd" fill="#3e5f00" d="m32.924 33.426c-.001-.016-.006-.03-.006-.045.141-.12.312-.076.47-.065.132.011.036-.071.059-.102.19-.091.317.02.442.141.014.028.012.054-.01.08-.317-.003-.636-.006-.955-.009"/><path fill-rule="evenodd" fill="#3f6101" d="m33.879 33.435c0-.02 0-.037 0-.054.128-.115.287-.089.429-.065.198.034-.026-.096.044-.099.15 0 .271.065.385.157.027.026.025.048-.014.061-.281 0-.563 0-.844 0"/><path fill-rule="evenodd" fill="#25a8fe" d="m31.795 33.547c.167.003.34-.023.504.051-.168.041-.335.099-.501-.007-.019-.01-.026-.018-.021-.029.007-.01.011-.015.018-.015"/><path fill-rule="evenodd" fill="#1f2e49" d="m29.1 33.383c.364 0 .726.002 1.089.005.02.006.026.013.021.021-.004.014-.012.018-.012.018-.369-.005-.736.043-1.098-.044"/><path fill-rule="evenodd" fill="#19260a" d="m30.2 33.426c-.003-.014-.005-.025-.007-.038.303 0 .605 0 .908 0 .002.013.002.022.002.036-.3.002-.603.002-.903.002"/><path fill-rule="evenodd" fill="#25a7fe" d="m35.489 33.735c-.169.105-.343.217-.436-.133.142.148.279.194.436.133"/><path fill-rule="evenodd" fill="#23adfe" d="m34.684 33.964c-.195.019-.192.213-.279.33.007-.184.04-.345.279-.33"/><path fill-rule="evenodd" fill="#1dbafe" d="m31.74 33.971c-.181-.043-.342-.202-.549-.089.207-.116.396-.105.556.08l-.007.009"/><path fill-rule="evenodd" fill="#20b4fe" d="m28.963 34.478c-.195-.065-.394-.011-.583-.056.203-.037.405-.064.583.056"/><path fill-rule="evenodd" fill="#1dbbfe" d="m33.457 33.757c-.166.158-.351 0-.526-.007.173 0 .347 0 .521 0l.005.007"/><path fill-rule="evenodd" fill="#1cbdfe" d="m33.29 34.02c.154-.133.348.017.51-.07-.15.154-.339.031-.502.076l-.008-.006"/><path fill-rule="evenodd" fill="#26a5fe" d="m30.4 34.02c-.109 0-.222 0-.395 0 .173-.109.285-.171.406-.016l-.011.016"/><path fill-rule="evenodd" fill="#21b2fe" d="m33.845 34.22c-.112.023-.228.05-.339.076.104-.061.188-.184.339-.076"/><path fill-rule="evenodd" fill="#21b2fe" d="m33.3 34.02c-.02.128-.111.192-.277.295.094-.163.178-.234.27-.301l.007.006"/><path fill-rule="evenodd" fill="#172304" d="m34.723 33.435c.005-.022.007-.041.014-.061.16.036.331-.02.488.055-.169.002-.336.003-.502.006"/><path fill-rule="evenodd" fill="#16cbfe" d="m31.795 33.547c0 .015.003.028.003.044-.146 0-.29 0-.436 0 .144-.072.287-.048.433-.044"/><path fill-rule="evenodd" fill="#27a4fe" d="m29.26 33.728c.095-.12.171-.067.272 0-.101.036-.18.036-.272 0"/><path fill-rule="evenodd" fill="#1eb8fe" d="m28.326 33.805c0-.02 0-.036 0-.055.129-.002.259-.002.389-.002 0 .021 0 .037 0 .057-.13 0-.26 0-.389 0"/><path fill-rule="evenodd" fill="#19c4fe" d="m32.12 34.33c-.128-.021-.256-.045-.411-.071.162-.047.29-.036.411.03.018.011.024.02.018.029-.004.008-.012.012-.018.012"/><path fill-rule="evenodd" fill="#1fb6fe" d="m30.622 34.438c.13 0 .261 0 .392 0-.131.073-.26.081-.392 0"/><path fill-rule="evenodd" fill="#1bbefe" d="m29.951 33.534c-.128.024-.21.037-.351.061.129-.103.209-.13.351-.061"/><path fill-rule="evenodd" fill="#22affe" d="m34.33 33.682c-.085.02-.171.039-.287.064.092-.11.176-.126.287-.064"/><path fill-rule="evenodd" fill="#1dbbfe" d="m35.12 34.26c-.109.028-.181-.027-.274-.105.131-.018.197.064.274.105"/><path fill-rule="evenodd" fill="#20b3fe" d="m34.2 33.99c.021.115-.016.188-.164.258.074-.117.118-.185.164-.258"/><path fill-rule="evenodd" fill="#1fb6fe" d="m30.676 34.473c-.171-.039-.26-.058-.408-.092.178-.07.267-.005.408.092"/><path fill-rule="evenodd" fill="#1cbcfe" d="m30.622 34.13c.093 0 .187-.004.279-.025-.087.09-.179.116-.279.025"/><path fill-rule="evenodd" fill="#28a2fe" d="m28.334 34.18c-.082.057-.135.087-.209.063.045-.076.096-.119.209-.063"/><path fill-rule="evenodd" fill="#1eb9fe" d="m36.16 34.15c-.079.116-.146.093-.232 0 .085 0 .153 0 .232 0"/><path fill-rule="evenodd" fill="#22affe" d="m30.03 33.721c.103 0 .168 0 .265 0-.084.094-.149.105-.265 0"/><path fill-rule="evenodd" fill="#1fb5fe" d="m29.659 33.819c.091 0 .183 0 .316 0-.127.07-.218.034-.316 0"/><path fill-rule="evenodd" fill="#1fb7fe" d="m31.957 34.07c.089-.015.178-.029.335-.056-.147.095-.229.165-.335.056"/><path fill-rule="evenodd" fill="#16cbfe" d="m33.612 33.593c.077-.091.171-.053.267.002-.089 0-.178 0-.267 0v-.002"/><path fill-rule="evenodd" fill="#1eb9fe" d="m29.828 34.27c.018-.108.063-.147.134-.169.012.089-.048.122-.134.169"/><path fill-rule="evenodd" fill="#1cbdfe" d="m29.586 34.2c-.103.054-.144-.028-.262-.026.134-.077.184-.013.262.026"/><path fill-rule="evenodd" fill="#1eb9fe" d="m28.87 34.22c-.128.094-.2.06-.301.067.095-.095.171-.034.301-.067"/><path fill-rule="evenodd" fill="#16cbfe" d="m32.12 34.33c0-.012 0-.025 0-.041.093 0 .187 0 .326 0-.139.07-.233.046-.326.041"/><path fill-rule="evenodd" fill="#1dbbfe" d="m30.412 34.01c.076.031.161.043.21.117-.095.013-.171-.017-.222-.102l.012-.015"/><path fill-rule="evenodd" fill="#1ac0fe" d="m35.857 34.1c-.1-.048-.143-.069-.199-.095.086-.06.129-.02.199.095"/><path fill-rule="evenodd" fill="#1dbbfe" d="m31.747 33.962c.08.019.157.04.21.11-.094.012-.173-.008-.217-.102l.007-.008"/><path fill-rule="evenodd" fill="#1fb6fe" d="m33.451 33.75c.036-.068.086-.128.161-.157v.002c-.007.097-.061.151-.155.162l-.006-.007"/><path fill-rule="evenodd" fill="#192633" d="m35.568 33.435c-.018-.037-.036-.073-.056-.111.082.007.154.029.209.094-.047.043-.1.027-.153.017"/><path fill-rule="evenodd" fill="#6da600" d="m33.443 33.22c.06.044.118.09.213.164-.276 0-.509 0-.738 0-.071-.018-.14-.037-.212-.055-.043 0-.082-.008-.106-.047-.107-.033-.197-.128-.32-.113-.058-.002-.119.01-.162-.045-.153-.094-.324-.149-.481-.238-.081-.046-.181-.08-.183-.201.014-.124.102-.199.183-.281.096-.167.104-.383.282-.502.022.025.044.056.051.09.132.6.516.942 1.102 1.074.068.027.146.034.219.049.062.018.121.043.152.105"/><path fill-rule="evenodd" fill="#6da600" d="m33.443 33.22c-.052-.019-.104-.035-.157-.053-.062-.041-.139-.041-.202-.075-.258-.107-.555-.151-.682-.46-.003-.107.098-.153.143-.233.082-.173.128-.368.268-.515.011.009.02.018.027.023.011.015.022.031.027.046.125.623.521.974 1.111 1.14.069.033.146.038.217.074.051.018.104.034.156.053.061.044.116.09.212.164-.258 0-.472 0-.685 0-.143-.063-.266-.171-.435-.164"/><path fill-rule="evenodd" fill="#f5b901" d="m31.463 32.666c.109.173.311.206.469.303.066.044.178.036.186.152-.719-.108-1.246-.65-1.225-1.256.176-.007.185.149.246.254.06.096.109.194.163.294.074.074.194.115.161.253"/><path fill-rule="evenodd" fill="#f7ba01" d="m30.557 32.471c.142.382.539.427.813.635-.434-.112-.883-.189-1.092-.676-.071-.171-.155-.335-.235-.501.118-.115.2-.053.265.06.053.089.097.183.145.272.093.041.095.128.104.21"/><path fill-rule="evenodd" fill="#f7ba01" d="m32.434 32.634c.174.233.441.315.691.429.022.049.005.069-.046.056-.693-.125-1.178-.636-1.161-1.22.099-.045.131.056.193.086.047.018.023.069.045.098.029.123.091.227.161.331.085.047.099.136.117.22"/><path fill-rule="evenodd" fill="#e20b0b" d="m31.852 30.745c.244-.149.385-.044.491.152.046.085.11.178.032.267-.052.059-.137.024-.201 0-.104-.041-.178-.12-.185-.233-.01-.14-.003-.14-.137-.186"/><path fill-rule="evenodd" fill="#05f2ef" d="m33.494 32.26c.02.056-.02.097-.041.141-.037.079-.106.079-.181.072-.161-.039-.193-.191-.266-.309-.054-.094-.112-.182-.184-.263l-.011-.019c.017-.037.031-.073.05-.11l-.002.002c.109.043.202.108.257.216.104.038.162.12.215.208.055.022.11.04.163.062"/><path fill-rule="evenodd" fill="#09efea" d="m30.557 32.471c-.033-.068-.068-.138-.105-.21.133-.065.182-.22.297-.304-.004.194-.107.352-.192.514"/><path fill-rule="evenodd" fill="#91e56d" d="m33.29 31.14c.344 0 .689 0 1.035 0-.001.015-.001.031-.001.046-.342 0-.687 0-1.028 0-.018-.008-.021-.018-.018-.028.003-.011.008-.018.012-.018"/><path fill-rule="evenodd" fill="#3e5bd6" d="m31.463 32.666c-.068-.073-.14-.147-.161-.253.11-.004.222-.009.334-.013-.023.113-.072.207-.173.266"/><path fill-rule="evenodd" fill="#94e46a" d="m32.16 32.08c-.042-.02-.043-.058-.045-.098 0-.225 0-.454 0-.68.015 0 .03 0 .045 0 0 .26 0 .52 0 .778"/><path fill-rule="evenodd" fill="#4df0b1" d="m33.29 31.14c.003.015.004.031.006.046-.146.005-.297.043-.435-.041-.018-.011-.024-.021-.021-.032.007-.014.012-.019.012-.019.152.003.303-.046.438.046"/><path fill-rule="evenodd" fill="#49f1b5" d="m31 30.808c-.136.015-.271.024-.397-.048.13-.059.26-.084.392.002.017.008.022.018.019.029-.006.01-.009.017-.014.017"/><path fill-rule="evenodd" fill="#95e469" d="m31 30.808c-.002-.016-.005-.03-.006-.046.216 0 .435 0 .649 0 0 .016 0 .03.003.046-.215 0-.432 0-.646 0"/><path fill-rule="evenodd" fill="#3d57b8" d="m32.434 32.634c-.075-.053-.084-.145-.116-.221.077.009.153.015.228-.018.009.102-.069.163-.112.239"/><path fill-rule="evenodd" fill="#62ed9c" d="m31.508 31.346c.07-.147.142-.205.276-.268-.064.137-.14.193-.276.268"/><path fill-rule="evenodd" fill="#62ed9c" d="m31.12 31.671c.038-.097.098-.167.222-.201-.049.119-.13.169-.222.201"/><path fill-rule="evenodd" fill="#94e26c" d="m32.12 30.14c.018 0 .037 0 .057 0 0 .142 0 .279 0 .42-.02 0-.039 0-.057 0 0-.141 0-.281 0-.42"/><path fill-rule="evenodd" fill="#65ec99" d="m32.862 31.771c-.084-.055-.164-.11-.245-.275.147.104.252.142.243.279 0-.003.002-.004.002-.004"/><path fill-rule="evenodd" fill="#63ed9b" d="m33.33 32.2c-.072-.068-.144-.138-.215-.208.141-.004.21.071.215.208"/><path fill-rule="evenodd" fill="#97e367" d="m30.07 30.735c.157-.036.255-.029.395-.004-.141.043-.242.039-.395.004"/><path fill-rule="evenodd" fill="#7be883" d="m32.862 31.09c.002.017.002.033.002.051-.093 0-.185 0-.335 0 .144-.087.24-.046.333-.051"/><path fill-rule="evenodd" fill="#8ae674" d="m33.685 30.344c.03.012.063.026.095.037-.057.024-.107.046-.169.071-.028-.086.068-.062.074-.108"/><path fill-rule="evenodd" fill="#4df0b1" d="m32.17 28.513c-.037 0-.075 0-.111 0 .001-.07.005-.143.01-.213.054-.133-.018-.279.042-.409.107.198.025.415.059.622"/><path fill-rule="evenodd" fill="#63ed9b" d="m32.11 27.891c-.019.136.046.281-.042.409.015-.137-.062-.284.042-.409"/><path fill-rule="evenodd" fill="#416000" d="m32.28 33.17c.146-.074.225.041.32.111-.122.008-.215-.065-.32-.111"/><path fill-rule="evenodd" fill="#3e5e00" d="m31.959 33.33c-.088.014-.161-.02-.257-.095.13-.014.199.026.255.097l.002-.002"/><path fill-rule="evenodd" fill="#f8ba01" d="m32.823 31.899c.146-.036.169.087.217.171.063.113.123.229.183.343.091.048.101.137.119.221.176.233.441.318.692.429.019.049.003.069-.049.056-.692-.126-1.162-.62-1.162-1.22"/><path fill-rule="evenodd" fill="#3d57b8" d="m33.34 32.634c-.078-.053-.084-.145-.119-.221.076-.004.155-.009.23-.015.007.099-.067.16-.111.236"/><path fill-rule="evenodd" fill="#ac9d00" d="m33.985 33.12c.017-.017.033-.036.049-.056.062.021.122.043.161.102-.074-.002-.149.02-.21-.046"/><path fill-rule="evenodd" fill="#ac9d00" d="m33.08 33.12c.015-.017.029-.036.046-.056.061.02.123.041.161.102-.073-.002-.15.02-.207-.046"/></g></g></switch></svg>