<svg xmlns="http://www.w3.org/2000/svg" viewBox="0 0 64 64" enable-background="new 0 0 64 64"><circle fill="#f5eb35" cx="32.12" cy="32.372" r="31.63"/><path fill="#405866" d="m45.761 3.868c10.635 5.099 17.991 15.928 17.991 28.504 0 14.391-9.618 26.515-22.771 30.347 10.882-10.463 18.963-38.862 4.78-58.851"/><g fill="#e0cf35"><circle cx="29.46" cy="53.11" r="9.155"/><path d="m41.95 24.793c0 2.147-1.743 3.887-3.892 3.887-2.143 0-3.885-1.739-3.885-3.887 0-2.146 1.742-3.886 3.885-3.886 2.149 0 3.892 1.74 3.892 3.886"/><circle cx="6.289" cy="36.753" r="3.816"/><circle cx="6.633" cy="19.266" r="2.177"/><path d="m21.17 20c0 1.882-1.525 3.406-3.407 3.406-1.878 0-3.405-1.524-3.405-3.406s1.527-3.406 3.405-3.406c1.882 0 3.407 1.524 3.407 3.406"/><circle cx="42.934" cy="11.484" r="4.797"/></g></svg>