<svg xmlns="http://www.w3.org/2000/svg" viewBox="0 0 64 64" enable-background="new 0 0 64 64"><g transform="translate(4)"><path fill="#a7a7ab" d="m11.537 5.853h35.28l9.85 58.11h-57.04z"/><path d="m50.43 32.925c0 11.581-9.4 20.979-20.986 20.979l0 0c-11.579 0-20.981-9.398-20.981-20.979v-11.207c0-11.581 9.402-20.979 20.981-20.979l0 0c11.585 0 20.986 9.398 20.986 20.979v11.207" fill="#633d19"/><g fill="#d1d2d2"><path d="m17.543 64.03l.33-2.939c.747-6.645-1.343-12.33-4.667-12.708-3.32-.367-6.622 4.719-7.367 11.367l-.479 4.28h12.183"/><path d="m17.545 64.03l.328-2.939c.747-6.645-1.343-12.33-4.667-12.708-3.32-.367-6.622 4.719-7.367 11.367l-.445 3.986c.109.089.236.193.358.294h11.793"/></g><g fill="#d1d2d2"><path d="m39.615 64.03l-.328-2.939c-.747-6.645 1.343-12.33 4.667-12.708 3.32-.367 6.622 4.719 7.367 11.367l.479 4.28h-12.185"/><path d="m39.615 64.03l-.328-2.939c-.747-6.645 1.343-12.33 4.667-12.708 3.32-.367 6.622 4.719 7.367 11.367l.445 3.986c-.109.089-.236.193-.358.294h-11.793"/></g><path d="m45.47 64.03v-5.259c0-7.893-7.17-14.295-16.02-14.295-8.851 0-16.03 6.402-16.03 14.295v5.259h32.05" fill="#e7e5e5"/><path d="m20.738 49.651c3.588 0 15.14 0 17.418 0 .143 0-.785-7.421-.785-8.436 0-.072-15.997-.129-15.997-.129 0 0-.777 8.565-.636 8.565" fill="#d1d2d2"/><path d="m11.978 29.518c0 7.04 7.814 12.741 17.474 12.741 9.644 0 17.468-5.702 17.468-12.741 0-7.04-7.824-24.386-17.468-24.386-9.66 0-17.474 17.351-17.474 24.386" fill="#fbb042"/><g fill="#25333a"><path d="m26.07 23.695c0 1.724-1.156 3.121-2.575 3.121-1.421 0-2.565-1.397-2.565-3.121 0-1.731 1.144-3.121 2.565-3.121 1.42 0 2.575 1.39 2.575 3.121"/><path d="m38.29 23.695c0 1.724-1.154 3.121-2.569 3.121-1.428 0-2.583-1.397-2.583-3.121 0-1.731 1.155-3.121 2.583-3.121 1.415 0 2.569 1.39 2.569 3.121"/></g><path d="m43.38 19.56c.025-4.385.044-8.746.095-13.212-7.936-7.727-19.298-6.499-27.44 1.365-.087 4.401-.175 8.702-.268 13.02 9.07-1.115 18.378-1.505 27.613-1.175" fill="#633d19"/><path d="m8.813 11.756c.964-15.346 40.02-15.03 41.619-.382-14.877-1.881-26.903-4.317-41.619.382" fill="#e7e5e5"/><g><path d="m39.23 31.12c0 5.8-4.705 10.505-10.507 10.505-5.798 0-10.506-4.705-10.506-10.505" fill="#633f1a"/><path d="m37.427 32.17c0 2.317-3.979 4.197-8.883 4.197-4.902 0-8.881-1.88-8.881-4.197" fill="#fff"/></g><path opacity=".5" fill="#bcbcbe" d="m16.04 5.499h25.714l7.176 23.721h-41.565z"/></g></svg>