<svg xmlns="http://www.w3.org/2000/svg" viewBox="0 0 64 64" enable-background="new 0 0 64 64"><path fill="#e4c6b8" d="m.937 54.695c12.586 0 25.17 0 37.758 0 8 0 16.01 0 24.02 0 .517 0 .933-.271.933-.584 0-7.957 0-15.912 0-23.877 0-4.544 0-9.105 0-13.654 0-.315-.416-.583-.933-.583-12.583 0-25.17 0-37.758 0-8.01 0-16.01 0-24.01 0-.281 0-.494.061-.645.156 0 0-.007.009-.012.019 0 0-.019.002-.03.021-.152.083-.251.217-.251.387 0 7.958 0 15.915 0 23.87 0 4.552 0 9.106 0 13.663 0 .313.426.582.937.582"/><path fill="#d1b3aa" d="m7.604 52.07c11.248 0 22.49 0 33.744 0 7.149 0 14.31 0 21.459 0 .459 0 .836-.244.836-.524 0-7.11 0-14.219 0-21.337 0-4.062 0-8.138 0-12.205 0-.281-.377-.52-.836-.52-11.242 0-22.494 0-33.743 0-7.16 0-14.307 0-21.46 0-.253 0-.443.054-.578.139 0 0-.007.009-.009.017-.019 0-.019.002-.028.019-.134.073-.225.194-.225.345 0 7.113 0 14.225 0 21.334 0 4.066 0 8.137 0 12.208 0 .28.383.524.84.524"/><g fill="#f2ddd5"><path d="m3.333 38.982c2.898 0 5.795 0 8.695 0 1.844 0 3.687 0 5.531 0 .118 0 .216-.051.216-.11 0-1.492 0-2.988 0-4.487 0-.854 0-1.712 0-2.566 0-.06-.098-.11-.216-.11-2.897 0-5.797 0-8.695 0-1.844 0-3.688 0-5.531 0-.065 0-.114.013-.148.03l-.002.005c0 0-.004 0-.007.002-.035.017-.058.04-.058.073 0 1.494 0 2.992 0 4.488 0 .855 0 1.711 0 2.565 0 .062.097.11.215.11"/><path d="m43.05 41.624c3.238 0 6.482 0 9.726 0 2.061 0 4.121 0 6.186 0 .13 0 .241-.071.241-.155 0-2.085 0-4.178 0-6.273 0-1.192 0-2.391 0-3.586 0-.084-.111-.155-.241-.155-3.243 0-6.486 0-9.725 0-2.065 0-4.125 0-6.187 0-.073 0-.13.017-.167.042v.007c-.001 0-.001 0-.001.002-.041.022-.064.056-.064.104 0 2.09 0 4.181 0 6.272 0 1.197 0 2.392 0 3.587 0 .084.106.155.241.155"/></g><path fill="#34484c" d="m.937 29.06c12.586 0 25.17 0 37.758 0 8 0 16.01 0 24.02 0 .517 0 .933-.035.933-.074 0-1.019 0-2.034 0-3.052 0-.58 0-1.163 0-1.745 0-.04-.416-.074-.933-.074-12.583 0-25.17 0-37.758 0-8.01 0-16.01 0-24.01 0-.281 0-.494.007-.645.021 0 0-.007 0-.012.002 0 0-.019 0-.03.002-.152.008-.251.027-.251.048 0 1.016 0 2.034 0 3.051 0 .582 0 1.165 0 1.747 0 .038.426.074.937.074"/></svg>