<svg xmlns="http://www.w3.org/2000/svg" viewBox="0 0 64 64" enable-background="new 0 0 64 64"><path fill="#243438" d="m26.872 23.04c-4.03-4.639-8.06-9.279-12.09-13.92-2.567-2.952-5.131-5.902-7.692-8.854-.164-.189-.348-.304-.406-.253-1.403 1.219-2.807 2.444-4.214 3.662-.804.698-1.61 1.397-2.412 2.097-.056.047.032.244.196.431 4.03 4.639 8.06 9.281 12.09 13.922 2.566 2.953 5.125 5.902 7.689 8.853.09.103.167.172.232.209.002.006.006.006.006.006.008.008.008.008.012.006.065.043.123.06.152.037 1.407-1.223 2.812-2.441 4.218-3.666.804-.698 1.606-1.393 2.413-2.097.058-.045-.034-.244-.196-.433"/><path fill="#34484c" d="m23.454 26.01c-4.03-4.639-8.06-9.281-12.09-13.92-2.566-2.95-5.131-5.902-7.695-8.853-.162-.191-.32-.326-.347-.302-.704.614-1.41 1.221-2.112 1.833-.401.349-.804.697-1.206 1.048-.029.022.086.201.25.388 4.03 4.639 8.06 9.281 12.09 13.922 2.566 2.953 5.125 5.902 7.689 8.853.09.103.164.177.218.222.006.006.006.006.008.008.006.006.006.004.013.008.053.049.098.08.113.065.704-.613 1.405-1.223 2.111-1.832.398-.349.804-.702 1.204-1.05.028-.025-.084-.202-.248-.39"/><path fill="#e7e6e6" d="m24.635 22.877c-5.498 4.774-7.144 11.87-3.678 15.858 3.461 3.982 33.619 29.711 39.12 24.939 5.494-4.776-29.943-45.569-35.437-40.797"/><path fill="#bcbdbf" d="m60.02 63.711c.021-.012.041-.022.056-.036 5.494-4.776-29.943-45.57-35.437-40.798-2.314 2.01-3.939 4.438-4.792 6.867 8.74-8.582 29.13 15.9 40.17 33.967"/></svg>