<svg xmlns="http://www.w3.org/2000/svg" viewBox="0 0 64 64" enable-background="new 0 0 64 64"><path fill="#ec1c24" d="M64.044,57.138c0,3.815-3.089,6.906-6.902,6.906H6.903C3.092,64.044,0,60.953,0,57.138V6.903   C0,3.092,3.092,0,6.903,0h50.239c3.813,0,6.902,3.092,6.902,6.903V57.138z"/><path fill="#c32129" d="m0 48.766v8.372c0 3.815 3.092 6.906 6.903 6.906h50.24c3.813 0 6.902-3.091 6.902-6.906v-50.23c-10.936 39.724-50.25 42.24-64.04 41.863"/><g fill="#fff"><path d="m32.02 13.975c2.823 0 5.111-2.29 5.111-5.115 0-2.821-2.288-5.11-5.111-5.11-2.821 0-5.111 2.29-5.111 5.11 0 2.825 2.29 5.115 5.111 5.115"/><path d="m50.858 31.438l-14.376-14.377c-.411-.411-.933-.612-1.466-.692-.818-.561-1.802-.887-2.994-.887s-2.174.327-2.992.887c-.535.081-1.056.281-1.467.692l-14.377 14.377c-1.021 1.021-1.021 2.68 0 3.7 1.021 1.023 2.679 1.023 3.702 0l8.54-8.539-7.664 20.04c0 1.145.458 1.79 1.176 2.168 2.486-2.115 5.664-3.604 9.541-4.158v13.03c0 1.445 1.59 2.618 3.545 2.616 1.956 0 3.542-1.173 3.542-2.616v-12.992c3.768.586 6.931 2.058 9.498 4.113.741-.364 1.222-1 1.222-2.162l-7.666-20.03 8.537 8.535c1.022 1.023 2.681 1.023 3.7 0 1.022-1.021 1.022-2.68 0-3.701"/></g></svg>