<svg xmlns="http://www.w3.org/2000/svg" viewBox="0 0 64 64" enable-background="new 0 0 64 64"><path fill="#1b75bb" d="M63.998,56.913c0,3.802-3.076,6.882-6.876,6.882H7.081c-3.795,0-6.874-3.08-6.874-6.882V6.879    C0.207,3.08,3.285,0,7.081,0h50.042c3.8,0,6.876,3.08,6.876,6.879V56.913z"/><path fill="#0867a3" d="m.207 48.574v8.339c0 3.802 3.078 6.882 6.874 6.882h50.04c3.8 0 6.876-3.08 6.876-6.882v-50.03c-10.894 39.567-50.05 42.08-63.792 41.695"/><g fill="#fff"><path d="m18.939 7.597c.655 2.83.899 5.724.966 8.731 5.412.204 9.293 1.84 11.596 4.95.566.739 1.01 1.611 1.321 2.618.311 1 .509 1.975.587 2.914.079.939.12 2.232.12 3.89v7.54h-.035v9.952h.824c1.394 0 2.524-.142 3.394-.422.872-.276 1.547-.874 2.028-1.791.479-.913.719-2.28.719-4.085v-12.977c0-2.251-.129-4.283-.382-6.076-.255-1.802-.697-3.48-1.322-5.05-.625-1.565-1.458-3-2.498-4.322-1.349-1.677-2.883-3.045-4.597-4.121-1.708-1.072-3.633-1.868-5.771-2.381-1.891-.455-3.991-.676-6.239-.729-.17.488-.411.94-.711 1.356"/><path d="m26.301 40.4c-.897.598-1.542 1.719-1.648 3.045l12.303 14.15 12.219-14.14c-.105-1.334-.748-2.457-1.649-3.055h-21.23"/><circle cx="20.14" cy="11.313" r="5.115"/></g></svg>