<svg viewBox="0 0 24 24" xmlns="http://www.w3.org/2000/svg"><path d="M4.99958 12.9998C4.99958 7.91186 7.90222 3.56348 11.9996 1.81787C16.0969 3.56348 18.9996 7.91186 18.9996 12.9998C18.9996 13.8227 18.9236 14.6263 18.779 15.4026L20.7194 17.2352C20.8845 17.3911 20.9238 17.6388 20.815 17.8381L18.3196 22.4132C18.1873 22.6556 17.8836 22.7449 17.6412 22.6127C17.5993 22.5898 17.5608 22.5611 17.5271 22.5273L15.2925 20.2927C15.1049 20.1052 14.8506 19.9998 14.5854 19.9998H9.41379C9.14857 19.9998 8.89422 20.1052 8.70668 20.2927L6.47209 22.5273C6.27683 22.7226 5.96025 22.7226 5.76498 22.5273C5.73122 22.4935 5.70246 22.4551 5.67959 22.4132L3.18412 17.8381C3.07537 17.6388 3.11464 17.3911 3.27975 17.2352L5.22014 15.4026C5.07551 14.6263 4.99958 13.8227 4.99958 12.9998ZM6.47542 19.6955L7.29247 18.8785C7.85508 18.3159 8.61814 17.9998 9.41379 17.9998H14.5854C15.381 17.9998 16.1441 18.3159 16.7067 18.8785L17.5237 19.6955L18.5056 17.8954L17.4058 16.8566C16.9117 16.39 16.6884 15.7044 16.8128 15.0363C16.9366 14.3721 16.9996 13.691 16.9996 12.9998C16.9996 9.13025 15.0045 5.69953 11.9996 4.04021C8.99462 5.69953 6.99958 9.13025 6.99958 12.9998C6.99958 13.691 7.06255 14.3721 7.18631 15.0363C7.31078 15.7044 7.08746 16.39 6.59338 16.8566L5.49353 17.8954L6.47542 19.6955ZM11.9996 12.9998C10.895 12.9998 9.99958 12.1044 9.99958 10.9998C9.99958 9.89525 10.895 8.99982 11.9996 8.99982C13.1041 8.99982 13.9996 9.89525 13.9996 10.9998C13.9996 12.1044 13.1041 12.9998 11.9996 12.9998Z"/></svg>