<svg xmlns="http://www.w3.org/2000/svg" height="64" width="56" viewBox="0 0 5600 6400"><path fill="#1b96ff" d="M515 1A507 507 0 0 0 8 508v5384c0 280 227 507 507 507h4578c280 0 507-227 507-507V2032L3710 1z"/><path fill="#0b5cab" d="M5598 2035v100H4318s-631-126-613-671c0 0 21 571 600 571z"/><path fill="#aacbff" d="M3707 0v1456c0 166 111 579 611 579h1280z"/><path fill="#fff" d="M2825 3561c-207-210-545-210-755 0l-305 306c-207 207-207 545 0 755 48 48 125 48 174 0 50-48 50-126 0-173-112-114-112-294 0-408l308-306c112-112 294-112 406 0 112 117 118 294 0 406l-146 148c36 98 50 201 41 305l278-278c208-210 219-547 0-755zm-770 595c-48 48-48 128 0 176 114 112 114 294 0 406l-306 305c-112 112-294 112-406 0s-112-294 0-406l146-146c-37-98-50-203-41-308l-280 280c-208 208-208 545 0 755 209 207 547 207 754 0l308-308c208-208 208-545 0-755-48-48-128-48-175 0z"/></svg>