<?xml version="1.0" encoding="utf-8"?>
<!-- Generator: Adobe Illustrator 16.0.0, SVG Export Plug-In . SVG Version: 6.00 Build 0)  -->
<!DOCTYPE svg PUBLIC "-//W3C//DTD SVG 1.1//EN" "http://www.w3.org/Graphics/SVG/1.1/DTD/svg11.dtd">
<svg version="1.1" id="Layer_1" xmlns="http://www.w3.org/2000/svg" xmlns:xlink="http://www.w3.org/1999/xlink" x="0px" y="0px"
	 width="100px" height="100px" viewBox="0 0 100 100" enable-background="new 0 0 100 100" xml:space="preserve">
<g>
	<rect x="33" y="43" fill="#FFFFFF" width="34" height="14"/>
	<path fill="#FFFFFF" d="M82,41.3V36c0-3.3-2.7-6-6-6H24c-3.3,0-6,2.7-6,6v5.3c0,0.7,0.4,1.4,1,1.7c2.4,1.4,4,4,4,6.9
		c0,3-1.6,5.5-4,6.9c-0.6,0.4-1,1-1,1.7V64c0,3.3,2.7,6,6,6h52c3.3,0,6-2.7,6-6v-5.3c0-0.7-0.4-1.4-1-1.7c-2.4-1.4-4-4-4-6.9
		c0-3,1.6-5.5,4-6.9C81.6,42.7,82,42.1,82,41.3z M71,63H29c-1.1,0-2-0.9-2-2V39c0-1.1,0.9-2,2-2h42c1.1,0,2,0.9,2,2v22
		C73,62.1,72.1,63,71,63z"/>
</g>
</svg>
