<svg xmlns="http://www.w3.org/2000/svg" width="100" height="100" viewBox="0 0 100 100"><path d="M77.33,30H22.67A2.66,2.66,0,0,0,20,32.67V67.33A2.66,2.66,0,0,0,22.67,70H77.33A2.66,2.66,0,0,0,80,67.33V32.67A2.66,2.66,0,0,0,77.33,30ZM63.52,42.24v7a2.14,2.14,0,0,1-.31,1.13,1.31,1.31,0,0,1-1,.6,2.5,2.5,0,0,1-1.5-.4c-.34-.2-.65-.44-1-.66h-.15c-.61.85-1.2,1.72-1.8,2.58l-2.47,3.58-1.86,2.46a2.68,2.68,0,0,1-1.34,1.08,2.1,2.1,0,0,1-2.05-.4,2.86,2.86,0,0,1-.73-.89c-1-1.65-2-3.33-3-5-.12-.2-.26-.4-.38-.61s0,0-.09,0c-.4.5-.73,1.06-1.09,1.6l-2.92,4.37a2.55,2.55,0,0,1-1.55,1,5.21,5.21,0,0,1-.79,0,1.58,1.58,0,0,1-.61-.12,2.17,2.17,0,0,1-1.11-1.08,2.69,2.69,0,0,1,0-2.22,3.87,3.87,0,0,1,.38-.61l3.13-4.53,2.81-4a2.56,2.56,0,0,1,1.34-1,2.12,2.12,0,0,1,2.14.4,2.62,2.62,0,0,1,.62.82c.92,1.64,1.88,3.28,2.82,4.92.15.24.28.5.44.72s0,.08.11,0c.84-1.24,1.69-2.46,2.55-3.69l1.44-2.08v-.15l-1.88-1.33A1.6,1.6,0,0,1,53,44.39a1.35,1.35,0,0,1,.72-1.34,8.89,8.89,0,0,1,1-.46l2.67-1.23L60.17,40c.34-.16.68-.34,1-.48a1.89,1.89,0,0,1,1.26-.11,1.53,1.53,0,0,1,1.08,1,1.88,1.88,0,0,1,.08.52Z" fill="#fff"/></svg>