<?xml version="1.0" encoding="utf-8"?>
<svg xmlns="http://www.w3.org/2000/svg" width="24" height="24" viewBox="0 0 24 24">
    <g id="settings">
        <path id="gear" d="M20.869 13.476c.079-.482.131-.972.131-1.476s-.052-.994-.131-1.476l-2.463-.259c-.149-.556-.367-1.082-.648-1.57l1.558-1.924c-.576-.806-1.281-1.511-2.087-2.087l-1.924 1.558c-.488-.281-1.015-.499-1.57-.648l-.259-2.463c-.482-.079-.972-.131-1.476-.131s-.994.052-1.476.131l-.259 2.463c-.555.149-1.081.367-1.57.648l-1.924-1.557c-.805.576-1.51 1.281-2.086 2.086l1.558 1.924c-.281.488-.499 1.015-.648 1.57l-2.463.259c-.08.482-.132.972-.132 1.476s.052.994.131 1.476l2.463.259c.149.556.367 1.082.648 1.57l-1.558 1.924c.576.806 1.281 1.511 2.087 2.087l1.924-1.558c.488.281 1.015.499 1.57.648l.259 2.463c.482.079.972.131 1.476.131s.994-.052 1.476-.131l.259-2.463c.556-.149 1.082-.367 1.57-.648l1.924 1.558c.806-.576 1.511-1.281 2.087-2.087l-1.558-1.924c.281-.488.499-1.015.648-1.57l2.463-.259zm-8.869 2.522c-2.209 0-3.998-1.789-3.998-3.998s1.789-3.998 3.998-3.998 3.998 1.789 3.998 3.998-1.789 3.998-3.998 3.998z"/>
    </g>
</svg>
