<?xml version="1.0" encoding="UTF-8"?><svg xmlns="http://www.w3.org/2000/svg" width="20" height="20" viewBox="0 0 20 20"><title>
		Wikibooks logo
	</title><g fill="#fff"><path d="M14.222.03c-1.812 1.753-3.604 3.49-3.604 3.49l.644 1.31c.873-.864 1.75-1.625 2.587-2.472 1.762 3.869 2.963 6.987 4.44 11.109.483 1.339.384 1.399-.771 2.122-1.857.923-2.445 1.53-4.658 3.884h1.515c1.85-1.673 2.536-2.263 4.853-3.484.82-.473.932-1.07.596-2C18.74 10.977 16.39 4.484 14.222.03"/><path d="M9.498.071C8.172.966 7.149 2.254 5.996 3.358l.473 1.508c.903-.71 1.688-1.569 2.5-2.38l4.376 10.977c.252.743-.145 1.405-.944 2.125-.956.769-2.925 2.56-3.818 3.926h1.358c1.426-1.464 1.683-1.663 3.306-3.068 1.09-1.112 2.074-1.681 1.56-3.106z"/><path d="M5.023 0C4.67.12 4.376.347 4.1.588a880 880 0 0 0-3.889 3.75c-.196.182-.213.45-.21.718L.017 6.57S1.743 4.892 4.32 2.41c1.39 3.615 2.837 7.21 4.263 10.813.195.544-.272.99-.864 1.585-.818.798-2.53 2.44-4.281 4.635h1.756l4.22-4.629c.402-.552.9-1.091.69-1.591L5.024 0Z"/></g></svg>
