<svg xmlns="http://www.w3.org/2000/svg" x="0px" y="0px"
	 width="52px" height="52px" viewBox="0 0 52 52" enable-background="new 0 0 52 52" xml:space="preserve">
<g>
	<path fill="#FFFFFF" d="M48.5,42h-45C2.7,42,2,42.6,2,43.4v0.1c0,3.6,4.5,6.5,8,6.5h32c3.5,0,8-2.9,8-6.5v-0.1
		C50,42.6,49.3,42,48.5,42z"/>
	<path fill="#FFFFFF" d="M4.4,37.2h14.4c0.9,0,1.6-0.9,1.6-1.8V7.9c0-0.4-0.6-0.6-0.7-0.2l-16,28.2C3.4,36.5,3.8,37.2,4.4,37.2z"/>
	<path fill="#FFFFFF" d="M26.8,37.2h20c1,0,1.7-0.9,1.6-1.8c-0.7-5.8-1.7-23.7-22.1-33.3c-0.5-0.2-1.1,0.1-1.1,0.7v32.6
		C25.2,36.3,25.9,37.2,26.8,37.2z"/>
</g>
</svg>
