<svg width="24" height="24" stroke-width="1.5" viewBox="0 0 24 24" fill="none" xmlns="http://www.w3.org/2000/svg">
<path d="M8 8C4.68629 8 2 10.6863 2 14C2 17.3137 4.68629 20 8 20C11.3137 20 14 17.3137 14 14C14 10.6863 11.3137 8 8 8ZM8 8V3" stroke="currentColor" stroke-linecap="round" stroke-linejoin="round"/>
<path d="M16 8C12.6863 8 10 10.6863 10 14C10 17.3137 12.6863 20 16 20C19.3137 20 22 17.3137 22 14C22 10.6863 19.3137 8 16 8ZM16 8V3" stroke="currentColor" stroke-linecap="round" stroke-linejoin="round"/>
</svg>
