<svg xmlns="http://www.w3.org/2000/svg" width="100" height="100" viewBox="0 0 100 100"><path d="M36.37,20a2.09,2.09,0,0,1,2.14,2v1.53a2.09,2.09,0,0,1-2,2.14H30a4.26,4.26,0,0,0-4.28,4.06V70a4.28,4.28,0,0,0,4.07,4.28H70a4.26,4.26,0,0,0,4.27-4.07V63.63a2.1,2.1,0,0,1,2-2.14h1.52a2.09,2.09,0,0,1,2.14,2v7.94A8.54,8.54,0,0,1,71.48,80H28.54A8.53,8.53,0,0,1,20,71.48V28.54A8.53,8.53,0,0,1,28.52,20h7.85Z" fill="#fff" fill-rule="evenodd"/><path d="M65.14,43.78A2.79,2.79,0,1,0,68,46.58h0a2.8,2.8,0,0,0-2.78-2.8Z" fill="#fff"/><path d="M51.86,33.44a2.79,2.79,0,1,0,2.79,2.8,2.79,2.79,0,0,0-2.79-2.8Z" fill="#fff"/><path d="M78.87,38.59l-2.33-2.8a5,5,0,0,1-1.17-2.89l-.27-3.57a4.58,4.58,0,0,0-4.18-4.27l-3.12-.25a6.54,6.54,0,0,1-3.75-1.6l-2.37-2.08a4.59,4.59,0,0,0-6-.05l-2.57,2.17a5.92,5.92,0,0,1-3.38,1.37l-3.34.24a4.58,4.58,0,0,0-4.27,4.19L41.9,32.1a6.64,6.64,0,0,1-1.61,3.78l-2,2.36a4.58,4.58,0,0,0,0,6l2.22,2.68a5.55,5.55,0,0,1,1.27,3.18l.25,3.43a4.57,4.57,0,0,0,4.18,4.27l3.13.28A6.4,6.4,0,0,1,53,59.64l2.37,2a4.63,4.63,0,0,0,6,.05l2.72-2.28a5.23,5.23,0,0,1,3-1.21L70.67,58a4.58,4.58,0,0,0,4.26-4.19l.26-2.89A7.28,7.28,0,0,1,77,46.76l1.9-2.17A4.56,4.56,0,0,0,78.87,38.59ZM46.73,36.24a5.18,5.18,0,1,1,5.19,5.17h0a5.18,5.18,0,0,1-5.2-5.14v0Zm7.49,15.27a.41.41,0,0,1-.31.21H52.36a.4.4,0,0,1-.33-.2.37.37,0,0,1,0-.38L62.85,31.27a.47.47,0,0,1,.32-.19h1.62a.39.39,0,0,1,.19.52h0Zm16.19-4.94a5.19,5.19,0,1,1-5.23-5.16h0a5.16,5.16,0,0,1,5.15,5.18h0Z" fill="#fff"/></svg>