<svg xmlns="http://www.w3.org/2000/svg" enable-background="new 0 0 64 64" viewBox="0 0 64 64"><path d="M63.917,57.025c0,3.809-3.082,6.895-6.891,6.895H6.887C3.084,63.92,0,60.834,0,57.025V6.891    C0,3.086,3.084,0,6.887,0h50.139c3.809,0,6.891,3.086,6.891,6.891V57.025z" fill="#1b75bb"/><path d="m19.06 47.937l1.064-5.383c-2.65-.057-3.972-1.111-3.972-3.165 0-.96.33-1.743.991-2.348.662-.603 1.636-.905 2.923-.905h1.353l1.641-8.377h-2.993c-1.25 0-2.212-.311-2.892-.935-.684-.625-1.023-1.386-1.023-2.29 0-.958.33-1.731.991-2.316s1.636-.879 2.923-.879h4.288l1.353-6.589c.21-1.113.446-1.987.707-2.621.257-.634.613-1.113 1.064-1.439.449-.326 1.041-.491 1.769-.491 1.019 0 1.794.271 2.331.809.538.534.809 1.227.809 2.071 0 .192-.165 1.161-.491 2.908l-1.064 5.352h6.303l1.383-6.589c.192-1 .373-1.806.55-2.419.173-.614.482-1.131.935-1.555.447-.42 1.106-.634 1.971-.634.997 0 1.771.261 2.316.777.546.521.821 1.219.821 2.103 0 .4-.028.797-.071 1.178-.051.387-.109.754-.188 1.109-.074.355-.125.579-.146.677l-1.063 5.411c2.744.057 4.115 1.123 4.115 3.196 0 .958-.326 1.728-.979 2.301-.655.578-1.621.864-2.905.864h-1.473l-1.724 8.377h3.196c1.284 0 2.25.307 2.905.921.652.614.979 1.392.979 2.332 0 .938-.322 1.702-.963 2.287-.644.585-1.621.878-2.921.878h-4.433l-1.355 6.62c-.212 1.057-.4 1.873-.562 2.446-.16.577-.475 1.08-.935 1.512-.463.432-1.123.647-1.985.647-.96 0-1.72-.267-2.275-.805-.558-.538-.833-1.236-.833-2.101 0-.789.134-1.767.4-2.938l1.064-5.383h-6.361l-1.351 6.62c-.346 1.634-.707 2.808-1.082 3.526-.373.722-1.174 1.079-2.401 1.079-.979 0-1.747-.267-2.303-.805s-.834-1.236-.834-2.101c0-.443.053-.937.159-1.484.106-.542.196-1.025.274-1.449m16.838-20.18h-6.362l-1.698 8.377h6.422l1.638-8.377" fill="#fff"/></svg>