<svg xmlns="http://www.w3.org/2000/svg" enable-background="new 0 0 64 64" viewBox="0 0 64 64"><path d="m64 57.1c0 3.814-3.087 6.897-6.896 6.897h-50.21c-3.808 0-6.898-3.083-6.898-6.897v-50.21c0-3.815 3.09-6.897 6.898-6.897h50.21c3.809 0 6.896 3.082 6.896 6.897v50.21" fill="#f6921e"/><g fill="#fff"><path d="m11.02 19.2l7.563 22.393 7.585-22.552c.396-1.186.693-2.01.887-2.471.196-.464.525-.881.983-1.255.452-.37 1.078-.559 1.867-.559.577 0 1.111.146 1.607.435.495.291.879.671 1.161 1.149.281.48.424.962.424 1.45 0 .331-.048.692-.139 1.078-.093.39-.208.769-.342 1.139-.137.375-.272.757-.411 1.151l-8.09 21.826c-.29.835-.577 1.629-.865 2.379-.291.753-.625 1.412-1 1.98-.379.569-.886 1.041-1.515 1.403-.629.365-1.403.547-2.313.547-.909 0-1.68-.18-2.312-.537-.628-.356-1.138-.828-1.524-1.413-.388-.584-.727-1.249-1.014-1.992-.287-.744-.574-1.532-.868-2.367l-7.949-21.642c-.136-.396-.278-.783-.421-1.163-.144-.379-.266-.789-.366-1.231-.098-.438-.148-.812-.148-1.115 0-.773.311-1.479.935-2.119.622-.638 1.406-.958 2.347-.958 1.153 0 1.969.354 2.446 1.06.481.707.971 1.836 1.471 3.384"/><path d="m60.22 38.699c0 2.02-.523 3.832-1.562 5.443-1.039 1.609-2.563 2.87-4.564 3.781-2.01.912-4.383 1.367-7.133 1.367-3.293 0-6.01-.622-8.156-1.869-1.519-.894-2.753-2.091-3.698-3.586-.953-1.495-1.426-2.951-1.426-4.363 0-.82.283-1.522.852-2.107.574-.586 1.298-.877 2.178-.877.714 0 1.315.228 1.812.683.491.456.916 1.133 1.263 2.026.427 1.065.89 1.953 1.381 2.667.492.712 1.188 1.303 2.083 1.765.896.465 2.07.694 3.531.694 2 0 3.632-.464 4.885-1.4 1.253-.933 1.881-2.097 1.881-3.494 0-1.111-.341-2.01-1.013-2.7-.677-.693-1.551-1.22-2.621-1.584-1.072-.364-2.502-.754-4.296-1.163-2.396-.562-4.407-1.219-6.02-1.969-1.617-.753-2.903-1.778-3.85-3.075-.951-1.3-1.426-2.914-1.426-4.841 0-1.839.504-3.47 1.507-4.898.999-1.426 2.45-2.526 4.351-3.292 1.896-.769 4.131-1.152 6.696-1.152 2.05 0 3.824.255 5.319.767 1.495.505 2.738 1.182 3.726 2.024.986.844 1.708 1.727 2.16 2.653.457.929.685 1.833.685 2.713 0 .803-.283 1.529-.854 2.174-.57.647-1.278.97-2.133.97-.772 0-1.361-.194-1.763-.582-.403-.388-.838-1.021-1.31-1.902-.606-1.259-1.338-2.243-2.188-2.949-.85-.707-2.216-1.061-4.1-1.061-1.747 0-3.151.386-4.226 1.149-1.07.769-1.607 1.692-1.607 2.77 0 .667.183 1.243.549 1.731.366.486.863.903 1.503 1.253.636.349 1.282.622 1.936.82.653.197 1.731.484 3.236.868 1.883.439 3.586.925 5.112 1.456 1.527.533 2.829 1.176 3.896 1.936 1.074.761 1.904 1.719 2.506 2.882.6 1.162.901 2.587.901 4.272"/></g></svg>