<svg xmlns="http://www.w3.org/2000/svg" enable-background="new 0 0 64 64" viewBox="0 0 64 64"><path d="M63.79,56.914c0,3.802-3.074,6.88-6.874,6.88H6.874C3.078,63.794,0,60.716,0,56.914V6.875   C0,3.08,3.078,0,6.874,0h50.042c3.8,0,6.874,3.08,6.874,6.875V56.914z" fill="#724198"/><g fill="#fff"><path d="m5.02 49.09v-36.06c0-1.875.425-3.28 1.28-4.219.852-.935 1.958-1.403 3.31-1.403 1.395 0 2.523.464 3.384 1.391.866.925 1.299 2.338 1.299 4.23v36.06c0 1.896-.433 3.31-1.299 4.246-.86.936-1.989 1.405-3.384 1.405-1.333 0-2.432-.474-3.292-1.421-.867-.947-1.298-2.355-1.298-4.229"/><path d="m26.335 8.192h12.08c3.143 0 5.839.292 8.09.876 2.247.582 4.289 1.673 6.119 3.28 4.766 4.078 7.15 10.281 7.15 18.607 0 2.745-.239 5.253-.718 7.522-.479 2.27-1.219 4.315-2.218 6.136-.997 1.822-2.279 3.448-3.843 4.885-1.225 1.104-2.566 1.99-4.02 2.657-1.458.662-3.02 1.134-4.703 1.402-1.671.269-3.562.407-5.662.407h-12.08c-1.689 0-2.958-.256-3.809-.766-.854-.51-1.411-1.227-1.671-2.157-.261-.923-.39-2.124-.39-3.604v-33.562c0-1.999.447-3.445 1.34-4.338.899-.896 2.343-1.345 4.344-1.345m3.588 7.339v31.07h7.03c1.54 0 2.747-.043 3.619-.125.878-.083 1.783-.292 2.718-.625.937-.331 1.75-.802 2.434-1.403 3.102-2.624 4.654-7.141 4.654-13.552 0-4.517-.683-7.898-2.046-10.146-1.364-2.25-3.043-3.678-5.04-4.291-1.998-.615-4.414-.923-7.246-.923h-6.117"/></g></svg>