<svg xmlns="http://www.w3.org/2000/svg" viewBox="0 0 64 64" enable-background="new 0 0 64 64"><switch><g><path fill="#e6e7e8" d="m.855 16.11c-.563 1.476-.855 3.133-.855 4.894v22c0 1.815.308 3.523.907 5.03l25.584-15.947-25.636-15.98"/><path fill="#e6e7e8" d="m63.11 47.995c.589-1.5.893-3.194.893-4.995v-22c0-1.745-.288-3.39-.842-4.855l-25.574 15.941 25.523 15.909"/><path fill="#e6e7e8" d="m59.52 11.501c-1.48-.948-3.314-1.501-5.515-1.501h-44c-2.184 0-4.01.543-5.479 1.477l27.516 17.15 27.478-17.13"/><path fill="#e6e7e8" d="m4.654 52.612c1.45.882 3.23 1.388 5.346 1.388h44c2.135 0 3.926-.517 5.382-1.412l-27.345-17.05-27.383 17.07"/><path fill="#ec1c24" d="m63.11 47.995l-25.523-15.909 25.574-15.941c-.734-1.941-1.95-3.557-3.644-4.644l-27.477 17.13-27.516-17.15c-1.702 1.08-2.925 2.691-3.666 4.63l25.636 15.979-25.584 15.947c.766 1.928 2.02 3.525 3.747 4.579l27.383-17.07 27.345 17.05c1.723-1.061 2.966-2.661 3.725-4.593"/><g><path fill-rule="evenodd" fill="#e7112d" d="m30.31 25.13c-.711-.71-1.202-1.558-1.569-2.48-.183-.439-.322-.893-.381-1.368-.066-.099.051-.241-.078-.32-.008-.103-.014-.207-.026-.309-.064-.156.026-.322-.052-.479v.008c-.045-.125-.007-.256-.021-.383 0-.354 0-.709 0-1.066.014-.127-.024-.258.021-.389v.008c.078-.168-.013-.355.052-.525.013-.123.019-.244.026-.358.129-.087.006-.228.083-.324l-.005.006c.051-.032.024-.104.064-.144.045-.038.102-.038.153-.038.059 0 .117 0 .168.026.04.026.064.061.08.097.012.077-.016.136-.085.169-.02.026-.072 0-.064.049 0 .018.032.022.032.022.077.004.129.03.168.076.063.083.108.163.154.254-.014.129.064.191.168.231.046.024.078.064.108.104.036.052.072.103.149.118.091.044.183.073.28.106.056.031.097.091.159.111.064.026.137.02.201.032.032.006.072.019.104.038.017.014.036.032.053.059.023.053.036.104.01.163-.018.019-.036.04-.063.049-.163.032-.324.006-.485.016-.117 0-.22-.052-.337-.052-.181-.031-.284-.176-.395-.305-.063-.04-.127-.063-.207-.03-.037.017-.019.057-.011.089.006.02.011.044.011.064-.011.051.008.097.048.133.032.091.11.085.178.082.078.009.131.057.163.127-.053.149.072.031.097.064.059.021.116.025.171.066.042.039.063.113.141.13.188.01.367-.009.54-.047.028 0 .055 0 .081 0 .051.007.101.03.159.021.053-.014.104-.04.163-.032.113.006.231.019.316-.091.052-.099.097-.193.193-.262.08-.03.135-.091.207-.141.188-.162.42-.077.627-.142.129.026.246-.026.369-.046.02-.007.044-.007.07 0 .063.01.129 0 .186.014.112.038.177.123.268.182.05.027.103.052.153.059.026 0 .054.006.078.01.077.049.18.061.222.163.004.046-.01.083-.046.116-.2.079-.421.007-.621.066-.095.013-.186-.02-.277-.052-.059-.026-.117-.026-.136.052-.008.039-.034.071-.014.109.02.03.046.053.078.068.051.043.095.015.14 0 .086-.048.177-.088.273-.064.095.072.199.049.29-.01.071-.021.142-.04.222-.032.149 0 .309.106.436-.049.026-.122-.087-.218-.042-.342.006-.103.032-.192.141-.226.143-.019.292.059.436 0 .101-.013.205-.055.31-.071.026-.006.051 0 .085 0 .121.021.25.007.373.017.116.023.193.088.219.197 0 .105.021.212-.058.303-.019.021-.039.04-.071.054-.076.019-.159.046-.245.051-.064.008-.131-.005-.186-.024-.081-.021-.131-.021-.117.083.006.066.026.122.059.181.019.039.032.091.095.045.072-.059.129-.123.228-.135.077-.015.149.046.231.012.188-.063.329-.18.381-.379.036-.051.071-.106.036-.169-.023-.04-.036-.085-.036-.123.013-.079.009-.147-.052-.208-.03-.027-.071-.046-.107-.057-.092-.02-.177-.006-.268-.02-.167-.083-.349-.078-.53-.078-.076 0-.167.01-.219-.071-.026-.131.072-.179.156-.231.089-.059.18-.117.244-.214.04-.054.032-.112.014-.167-.025-.117-.114-.15-.205-.182-.08-.014-.145-.072-.222-.072-.04 0-.072 0-.104 0-.127-.006-.244.045-.367.064-.027.008-.052.008-.078.008-.121 0-.244.031-.367.031-.247 0-.485 0-.73 0-.123-.007-.258.033-.356-.077-.089-.129-.104-.266-.005-.399.083-.086.198-.072.303-.1.182 0 .368 0 .55 0 .026 0 .051 0 .078 0 .153.027.303.072.456.052h.01-.01c-.017-.006-.03-.012-.043-.015-.07-.037-.148-.037-.228-.037-.024 0-.042 0-.07 0-.076-.013-.147-.063-.233-.051-.038 0-.07 0-.103 0-.111-.012-.226-.021-.335 0-.021 0-.048 0-.066.006-.078.014-.146.045-.218.072-.104.032-.209.072-.233.201-.032.085-.04.166.044.232.04.07.117.097.193.108.077.015.159.053.24.073.195.048.381.042.576-.007.04 0 .078-.008.123-.008.122.021.231-.059.353-.052.099.02.183-.051.286-.051.15.032.296.07.459.044.046 0 .091.015.131.04.095.098.095.193.01.295-.042.048-.095.092-.165.092-.248 0-.493 0-.747 0-.204-.018-.403.047-.604.083-.176.046-.356.071-.53.097-.221-.036-.435-.025-.646-.025-.188 0-.368-.007-.55.025-.127 0-.237-.042-.328-.127-.079-.097-.138-.209-.189-.318-.006-.03-.006-.072-.006-.108.016-.07.078-.117.092-.182 0-.019 0-.036 0-.059-.008-.026-.027-.038-.054-.038-.022 0-.038 0-.064-.004-.081-.008-.167-.049-.252-.059-.103-.04-.205-.032-.305.006-.068.019-.133.045-.205.035-.072 0-.117.027-.103.104.012.091.076.157.116.231.037.08.064.171.123.24.019.072.032.137.064.203.019.049.032.101.004.155-.01.03-.042.063-.076.076-.089.04-.178.04-.25-.019-.338-.253-.681-.497-.766-.952-.02-.108-.038-.198-.159-.226-.02.006-.032.021-.046.036-.013.061-.04.108-.097.123-.066.021-.131.021-.195 0-.083-.024-.071-.105-.102-.165 0-.059-.032-.117.03-.155.071-.053.045-.147.1-.212.09-.145.251-.203.4-.262.362-.133.717-.276 1.098-.367.111 0 .222-.006.316-.05.026-.015.051-.015.071-.019.156.019.304-.018.453-.059.025-.006.052-.006.074 0 .091.006.171-.032.262-.04.038-.016.077-.016.115-.016.099.01.193 0 .298 0 .246 0 .485 0 .731 0 .108 0 .212.016.316 0 .024 0 .051 0 .078 0 .107.016.204.064.322.056.019-.006.045 0 .071 0 .091.009.179.059.277.041.064.008.131.021.186.044.109.048.228.042.345.064.453.074.872.25 1.279.443.108.057.218.104.271.228.019.026.037.042.051.068.059.091-.006.203.059.294v-.008c.059.077-.019.188.05.264v-.006c.067.104-.018.218.055.325v-.009c.063.115-.022.254.049.368v-.008c.066.157-.013.326.046.48.01.054.01.104.014.154.039.153.007.316.019.479 0 .272 0 .55 0 .82-.019.188.053.389-.068.563.036 0 .057.019.046.055-.072.123.011.262-.056.385v.003c-.063.106.01.236-.049.347v-.006c-.046.07-.014.159-.04.241-.07.074-.019.191-.064.276-.318 1.315-.885 2.5-1.829 3.483-.059.076-.131.146-.206.205-.042.039-.072.079-.11.117-.085.091-.155.193-.276.244-.203.298-.508.475-.79.674-.415.291-.421.271-.848-.039-.373-.272-.735-.57-1.065-.897-.055-.083-.131-.142-.197-.214"/><path fill-rule="evenodd" fill="#f8dc16" d="m30.06 15.897c-.498.173-1.021.282-1.473.582-.113.03-.071-.085-.117-.117v.006c-.064-.092.018-.219-.064-.31-.04-.064.032-.169-.072-.214-.186-.654-.381-1.301-.748-1.882-.137-.218-.228-.463-.417-.65.059-.139.144-.157.24-.032.213-.053.499.123.648.4.046.142.121.123.212.037.064-.037.131-.085.201-.127.153-.022.309-.053.467.027.049.022.095.055.146.09.059.137-.143.154-.143.27-.03.05-.071.103-.102.161-.046.123-.038.25 0 .374.102.176.2.355.401.443.032-.023.064-.027.104-.023.081.027.165.032.256.006.066-.01.138-.006.176-.07.245-.011.245-.25.349-.389.108-.127.014-.164-.091-.198-.059-.042-.131-.072-.155-.148-.026-.105-.059-.22.019-.323.038-.052.06-.129.129-.169.09-.022.181-.02.271 0 .326.149.395.364.163.595-.11.112-.059.153.008.235.155.18.373.237.591.204.273-.031.512-.147.552-.472.115-.161.115-.314 0-.479-.059-.25-.212-.399-.472-.443-.099-.139-.245-.034-.362-.08.064-.282.272-.432.512-.549.115-.068.264.055.373-.063 0-.059-.006-.112-.006-.163-.053-.153-.013-.31-.026-.472.026-.101.052-.209.078-.31.059-.046.032-.117.064-.163.193-.316.298-.311.492.027.023.039.052.09.068.136.032.097.054.199.078.304-.006.155.026.309-.02.464.014.072-.026.131-.049.195.127.078.284-.04.407.066.237.114.449.25.521.526-.115.054-.258-.064-.362.06-.244.069-.421.228-.518.458-.043.163-.043.324-.005.491.323.606.667.639 1.298.117-.309-.24-.309-.49.01-.686.107-.022.218-.022.326 0 .045.051.098.104.142.157.04.103.04.218.008.32-.02.085-.091.117-.149.163-.127.034-.187.091-.114.22.103.123.129.314.309.367.078.027.143.07.228.07.078.021.154.021.237 0 .021-.006.04-.006.066.018.204-.099.362-.241.439-.469.078-.125.097-.238-.021-.343-.006-.038-.006-.068-.012-.103-.021-.105-.111-.153-.171-.228-.051-.057-.073-.115.027-.155.032-.019.064-.041.099-.064.155-.026.309-.057.464.023.231.204.395.105.525-.131.064-.131.204-.137.309-.207.091-.047.208 0 .29-.074.059.021.142-.043.189.048-.209.331-.453.641-.616.985-.218.469-.413.951-.534 1.461-.006.048-.014.086-.055.112-.036.07-.023.149-.03.22-.078.103-.032.238-.078.351.014.048 0 .074-.051.097-.304-.064-.571-.24-.854-.358-.234-.089-.472-.127-.711-.198-.109-.072-.24-.098-.367-.084-.053-.008-.104-.014-.149-.021-.084-.124-.231 0-.322-.082l.006.008c-.118-.076-.26.01-.374-.054l-.022-.005-.018.005c-.098-.015-.2-.037-.305-.025-.252 0-.502 0-.749 0-.111.003-.232-.038-.323.071-.025 0-.06 0-.084 0-.109-.028-.22-.042-.329 0h.013c-.155.044-.316.038-.472.063-.02 0-.032 0-.052 0-.101.086-.23.061-.347.1"/><path fill-rule="evenodd" fill="#57242b" d="m28.21 18.716c0 .367 0 .729 0 1.098-.013.032-.026.032-.039 0 0-.368 0-.73 0-1.094 0 0 .026 0 .039-.004"/><path fill-rule="evenodd" fill="#7d1a27" d="m35.847 19.715c0-.282 0-.565 0-.846.019-.032.031-.024.039.008.024.278.024.556 0 .826-.008.038-.021.038-.039.012"/><path fill-rule="evenodd" fill="#6b6327" d="m31.614 13.724c.142.139.142.336 0 .479.071-.161.071-.314 0-.479"/><path fill-rule="evenodd" fill="#817a47" d="m35.01 13.659c-.101.186.182.222.144.383-.072-.079-.149-.147-.222-.228-.122-.123-.014-.133.078-.155"/><path fill-rule="evenodd" fill="#78703e" d="m34.749 14.956c-.02.004-.04.004-.059.015-.091.016-.173.021-.258-.006-.091.006-.155-.032-.215-.097.183.028.35.054.532.088"/><path fill-rule="evenodd" fill="#552f34" d="m35.847 19.715c.013-.006.026-.006.039-.012-.026.191.097.399-.089.563.062-.182.03-.371.05-.551"/><path fill-rule="evenodd" fill="#77703d" d="m29.779 14.868c-.019.092-.085.097-.155.097-.085.032-.176.021-.258.006-.04-.011-.085-.011-.123-.015.173-.082.368.004.536-.088"/><path fill-rule="evenodd" fill="#847c43" d="m28.943 13.978c-.045-.142.15-.155.143-.27.099-.027.104.031.059.082-.059.072-.129.123-.202.188"/><path fill-rule="evenodd" fill="#6b6327" d="m32.39 14.209c-.084-.167-.084-.328.005-.491 0 .163 0 .324-.005.491"/><path fill-rule="evenodd" fill="#602b32" d="m28.26 17.827c0 .176.053.357-.052.525.006-.172-.026-.355.052-.525"/><path fill-rule="evenodd" fill="#8d7f1a" d="m32.912 13.26c.097-.15.235-.06.362-.06-.104.151-.252-.026-.362.06"/><path fill-rule="evenodd" fill="#8d7f1a" d="m30.78 13.2c.123.014.278-.117.362.08-.11-.083-.259.033-.362-.08"/><path fill-rule="evenodd" fill="#552d32" d="m35.833 18.249c-.078-.154-.036-.314-.046-.48.086.157.046.32.046.48"/><path fill-rule="evenodd" fill="#5b5638" d="m32.395 12.412c0-.159 0-.322 0-.485.014-.022.027-.032.04-.006 0 .169.051.332-.04.491"/><path fill-rule="evenodd" fill="#5b5637" d="m31.659 11.927c0 .171 0 .33 0 .499-.089-.163-.045-.336-.039-.505.013-.026.026-.017.039.006"/><path fill-rule="evenodd" fill="#613238" d="m28.21 20.18c.104.146.052.316.052.479-.078-.151-.038-.316-.052-.479"/><path fill-rule="evenodd" fill="#592b31" d="m35.886 18.877c0 0-.026-.008-.039-.008 0-.153 0-.313 0-.466.091.15.031.317.039.474"/><path fill-rule="evenodd" fill="#671721" d="m33.21 25.608c.091-.081.18-.164.276-.244-.045.137-.129.226-.276.244"/><path fill-rule="evenodd" fill="#5c5738" d="m35.575 13.618c-.155-.01-.309-.018-.464-.023.156-.069.309-.108.464.023"/><path fill-rule="evenodd" fill="#5c5738" d="m28.94 13.618c-.158-.01-.313-.018-.467-.027.154-.065.317-.104.467.027"/><path fill-rule="evenodd" fill="#5a5636" d="m31.665 12.589c-.077.077-.077.077-.373.063.11-.109.256-.005.373-.063"/><path fill-rule="evenodd" fill="#5a5636" d="m32.753 12.674c-.131-.053-.286.042-.407-.066.127.039.296-.091.407.066"/><path fill-rule="evenodd" fill="#868477" d="m27.412 13.28c-.091-.047-.168-.042-.24.032-.004-.048-.055-.112.017-.123.082-.015.191-.053.223.091"/><path fill-rule="evenodd" fill="#716721" d="m35.17 14.14c.17.104.131.218.021.343.032-.116.05-.231-.021-.343"/><path fill-rule="evenodd" fill="#a9193b" d="m28.429 16.782c.039.038.071.078.107.118.032.038.082.073.055.138-.055 0-.113.008-.162.018-.052-.064-.032-.133-.006-.195 0-.027.006-.051.006-.079"/><path fill-rule="evenodd" fill="#7e721b" d="m28.27 13.718c0 .086-.077.097-.131.097-.081 0-.059-.091-.081-.134.059.083.122.101.212.037"/><path fill-rule="evenodd" fill="#6f6622" d="m28.842 14.513c-.078-.124-.092-.251 0-.374 0 .123 0 .25 0 .374"/><path fill-rule="evenodd" fill="#5b3f43" d="m28.17 19.813c0 0 .026 0 .039 0 0 .123 0 .244 0 .369-.066-.117-.045-.245-.039-.369"/><path fill-rule="evenodd" fill="#5a3e42" d="m28.21 18.716c-.013.004-.026.004-.026.004-.019-.131-.045-.258.026-.375 0 .123 0 .244 0 .371"/><path fill-rule="evenodd" fill="#5a3237" d="m35.787 20.706c.01-.123-.045-.268.056-.385-.01.131.03.268-.056.385"/><path fill-rule="evenodd" fill="#6f672d" d="m35.575 16.383c-.006-.106-.032-.212.053-.304l.006.025c-.006.098.026.2-.059.279"/><path fill-rule="evenodd" fill="#66393f" d="m35.787 17.776c-.081-.114-.049-.245-.049-.368.085.111.049.246.049.368"/><path fill-rule="evenodd" fill="#7f1724" d="m33.599 25.25c.049-.084.107-.159.206-.205-.027.113-.085.193-.206.205"/><path fill-rule="evenodd" fill="#791b28" d="m30.31 25.13c.109.032.176.099.194.215-.084-.052-.149-.124-.194-.215"/><path fill-rule="evenodd" fill="#5a552f" d="m34.02 13.641c-.108 0-.219 0-.326 0 .108-.082.218-.065.326 0"/><path fill-rule="evenodd" fill="#635f43" d="m29.9 13.81c-.005.111-.013.218-.019.323-.066-.112-.102-.22.019-.323"/><path fill-rule="evenodd" fill="#646043" d="m34.17 14.12c0-.103 0-.218-.008-.32.085.102.085.214.008.32"/><path fill-rule="evenodd" fill="#625c2e" d="m30.04 14.281c.059-.006.123-.024.15.04.022.063.022.132-.06.158.061-.099-.031-.139-.09-.198"/><path fill-rule="evenodd" fill="#625b2e" d="m33.909 14.501c-.091-.139-.099-.239.114-.22-.089.045-.134.117-.114.22"/><path fill-rule="evenodd" fill="#70672c" d="m28.429 16.08c.081.082.045.191.045.289-.085-.076-.045-.175-.051-.264l.006-.025"/><path fill-rule="evenodd" fill="#442d10" d="m28.474 16.362c.03.045.053.111.117.117-.045.042-.087.095-.132.147.009-.088.009-.179.015-.264"/><path fill-rule="evenodd" fill="#64363c" d="m35.738 21.05c0-.123-.032-.246.049-.347 0 .115.036.237-.049.347"/><path fill-rule="evenodd" fill="#6b4147" d="m28.29 20.962c.123.085.078.203.078.32-.086-.092-.027-.221-.078-.32"/><path fill-rule="evenodd" fill="#807845" d="m31.659 11.927c-.013 0-.026 0-.039-.006.026-.089.013-.198.091-.276.026.1-.008.191-.052.282"/><path fill-rule="evenodd" fill="#694347" d="m28.369 17.14c-.005.116.046.237-.083.324.059-.107-.014-.234.083-.324"/><path fill-rule="evenodd" fill="#684045" d="m35.738 17.417c-.078-.098-.059-.214-.055-.325.088.096.055.214.055.325"/><path fill-rule="evenodd" fill="#807947" d="m32.435 11.921c-.013.006-.026.006-.04.006-.049-.091-.075-.182-.059-.282.086.078.072.187.099.276"/><path fill-rule="evenodd" fill="#868477" d="m36.889 13.254c-.08 0-.157-.008-.235-.016-.009-.005-.019-.005-.03-.011.088-.021.192-.144.265.027"/><path fill-rule="evenodd" fill="#6d4449" d="m35.68 21.292c.004-.092-.006-.181.059-.251.004.097.017.199-.055.29-.01-.008-.018-.013-.018-.013s.008-.026.014-.026"/><path fill-rule="evenodd" fill="#633f44" d="m28.423 16.86c0 .063.006.131.006.195-.02.03-.04.063-.064.095.004-.094-.014-.203.058-.29"/><path fill-rule="evenodd" fill="#644145" d="m35.684 17.1c-.076-.076-.056-.175-.05-.264.082.077.046.173.05.264"/><path fill-rule="evenodd" fill="#6a494e" d="m35.634 16.842c-.077-.086-.059-.19-.059-.294.067.091.067.187.059.294"/><path fill-rule="evenodd" fill="#746f49" d="m35.634 16.1l-.006-.025c0-.091-.021-.189.056-.267.008.103.026.209-.05.292"/><path fill-rule="evenodd" fill="#746e46" d="m28.429 16.08l-.006.025c-.086-.072-.034-.182-.086-.26.122.046.086.15.092.235"/><path fill-rule="evenodd" fill="#5a552f" d="m30.3 13.641c-.091 0-.182 0-.271 0 .089-.065.18-.082.271 0"/><path fill-rule="evenodd" fill="#726d48" d="m36.623 13.228c.012.006.021.011.03.011-.068.074-.159.048-.244.042.059-.075.144-.048.214-.053"/><path fill-rule="evenodd" fill="#6f2d36" d="m35.68 21.292c0 .017 0 .026 0 .026 0 .091.026.176-.046.24-.006-.09-.027-.187.046-.266"/><path fill-rule="evenodd" fill="#f8dc16" d="m33.851 17.261c-.085.059-.177.039-.268.049-.113.042-.224.018-.341.022-.095-.005-.193.026-.29.05-.149.008-.303.008-.453-.046-.077-.017-.167.016-.244-.026-.078-.022-.149-.063-.228-.089-.078-.116-.108-.247-.063-.387.022-.163.191-.175.29-.264.077-.049.18.004.258-.049h.026c.123-.042.252-.032.379-.004.034.004.066.004.099.011.083.052.186-.019.264.046h-.006c.11.064.24-.013.351.053h-.01c.04.038.15-.007.131.103h.006c-.212.048-.419.048-.631 0h.006c-.215-.041-.433-.032-.646 0-.066.072-.161.048-.239.064-.104.091-.104.197-.006.292.092.091.199.059.31.07.276.026.55.053.82-.012.11-.053.233.012.336-.047h-.004c.14-.068.303.015.449-.052.013.014.026.014.045 0 .086.059.209-.024.286.066.076.07.205.084.245.193.091.103.039.213.019.316-.161.123-.305.271-.51.313-.014 0-.026 0-.032 0-.017 0-.034 0-.046.004 0 .006.012.012.029.027.081.075.186.031.276.043.186.063.371-.012.561.026.097 0 .195 0 .296 0 .149-.005.032.135.104.181.059.055.013.144.051.201 0 .039 0 .077.04.098.097.092-.04.141-.04.213.008.314-.218.405-.464.464-.104.091-.121-.117-.218-.063-.066.057-.126.108-.189.159-.05-.012-.092-.038-.108-.091-.032-.091-.117-.165-.104-.269.02-.06.05-.092.108-.104.059 0 .117 0 .176 0 .097.026.188.045.282 0h-.005c.117-.078.091-.187.059-.298-.006-.103-.131-.044-.167-.109-.131-.078-.272-.046-.413-.014h.006c-.097.059-.201.014-.306.026-.127.032-.25.032-.381 0-.04 0-.075 0-.117 0-.121.013-.193-.101-.304-.117-.064-.026-.123-.06-.193-.07-.097-.038-.193-.095-.311-.063-.063.009-.121.042-.167.097-.039.043-.083.068-.142.076-.072.024-.153.007-.226.051l.004-.006c-.135.078-.29-.014-.417.053-.118.038-.209.167-.364.044-.075-.059-.135.104-.226.123-.059.026-.117.026-.182.015-.022-.033-.05-.065-.04-.111-.019.032-.03-.038-.019-.014.026.046.019.1.059.131.013.036-.004.063-.044.082-.045.078-.091.157-.136.231-.097.178-.296.022-.414.123-.053.021-.104.047-.155.066-.075.045-.075-.118-.153-.058-.195.058-.389.012-.584.023-.064-.048-.136-.088-.206-.121-.054-.018-.103-.034-.153-.044-.021-.054-.066-.085-.112-.117-.07.013-.091-.06-.137-.091-.067-.027-.146-.037-.186-.108-.026-.046-.077-.091-.059-.163.04-.051-.006-.097-.014-.155 0-.036.021-.068.064-.085.08.017.171-.042.233.049.104.113.214.231.362.296.109.007.201.071.311.071.18-.013.356.033.53-.028v.008c.038-.091-.019-.155-.041-.233 0-.024.009-.045.022-.064.153-.098.063-.263.114-.385.033-.068.091-.113.098-.182.006-.026.012-.049.027-.066.043-.051.097-.104.129-.168.026-.038.063-.078.117-.086.101.008.146.112.212.177.078.059.159.104.256.117.195.05.389.011.584.026.226-.016.451.016.671-.022.137-.108.313-.01.445-.108.209-.066.427-.013.641-.024.271-.021.542.024.815-.026.032-.021.059-.04.085-.053.113-.068.113-.141 0-.213-.032 0-.066 0-.091-.006-.15-.103-.327.011-.482-.038"/><path fill-rule="evenodd" fill="#f8dc16" d="m32.362 19.813c-.035.013-.075.039-.115.045-.097.021-.233.014-.214.154.013.123.123.182.254.17.316.038.625.038.943 0h-.009c.099-.074.222.012.325-.053h-.006c.174-.038.349-.064.524.012.101.047.213.09.282.196.099.074.054.165.032.256-.129.08-.206.229-.359.271-.032.04-.143-.019-.11.097h-.008c.304.047.603.034.906.008.127 0 .127.131.199.195-.014.085 0 .153.045.217v-.005c.084.109-.077.214.006.318h-.006c.084.134-.089.129-.107.204-.068.064-.183.027-.235.103-.117.083-.224-.038-.341 0-.04.042-.078.072-.123.106-.08.012-.104-.055-.131-.106-.04-.063-.103-.113-.091-.204.019-.054.051-.092.104-.103.046.004.091.004.137.004.11.034.222.042.322-.004.032-.091.059-.183-.019-.266-.032-.034-.063-.059-.099-.091-.133-.074-.27-.047-.404-.016-.246.066-.49.016-.744.033-.154.015-.258-.124-.395-.146-.026-.01-.046-.02-.064-.042-.044-.042-.099-.067-.167-.057-.026.015-.059.026-.085.03-.064.023-.104.076-.155.113-.032.01-.064.027-.095.027-.08.026-.163.004-.235.049l.008-.008c-.11.072-.252-.011-.37.054-.165.077-.359.019-.522.123-.195.063-.177-.091-.199-.208-.02-.02-.032.039-.008.017.012-.01.021 0 .021 0 0 .121.06.228-.013.341-.059.092-.104.199-.201.258-.091.02-.193-.034-.278.046h.008c-.078.059-.15.026-.228 0-.032-.014-.063-.022-.09 0-.227.005-.472.14-.659-.091-.091-.006-.171-.027-.226-.092-.019-.091-.085-.102-.163-.117-.064-.049-.097-.147-.176-.191-.006-.026-.02-.047-.02-.072.027-.059-.022-.098-.045-.14-.004-.04.013-.072.045-.099.066 0 .137-.032.189.026.201.114.296.385.582.349.135-.032.264-.006.4-.014.063-.013.174.023.129-.109-.02-.047-.026-.095-.008-.148.137-.104.026-.293.131-.408.019-.031.045-.058.064-.082.085-.047.091-.131.123-.209.026-.035.049-.077.103-.096.038-.008.077.005.097.037.104.156.252.221.421.246.109-.033.218-.005.322-.019.267-.015.536.03.801-.019.046-.059.118-.059.183-.059.097-.059.218.009.322-.054h-.006c.142-.043.286-.032.427 0 .024 0 .051.008.083.008.169.032.33.032.498 0 .118-.008.245-.032.277-.142.019-.09-.082-.139-.179-.129-.105-.046-.216-.01-.326-.02-.102.01-.212-.026-.316.026h.008c-.212.074-.439-.022-.659.05-.044 0-.097 0-.15 0-.129-.057-.269.01-.392-.046-.125-.004-.199-.071-.266-.153-.032-.111-.051-.214.014-.316.095-.084.186-.175.309-.222.079-.038.171-.012.262-.019.081 0 .172 0 .263 0 .082.013.173-.033.258.025h-.005c.075.058.188-.013.265.052h-.009c.071.085.234-.07.267.104h.006c-.191.045-.387.032-.582.008-.051-.008-.104-.008-.153-.018-.131-.025-.27-.025-.399.015"/><path fill-rule="evenodd" fill="#f7dc16" d="m32.24 23.355c.127-.034.258-.061.381-.091.137-.046.264-.046.4-.006l-.006.006c.131.035.264.03.395 0 .024-.092.204 0 .182-.15-.078-.149-.214-.069-.322-.091-.117.014-.24-.026-.358.026h.006c-.264.046-.528.038-.794.006-.191.008-.276-.155-.276-.272 0-.173.174-.25.322-.313.182-.013.354-.059.53.027.053.059.127.022.193.036.013.144-.085.069-.148.077-.194.01-.386-.024-.581.02-.066.047-.199.059-.177.153.04.123.177.149.3.149.147-.032.29-.006.439-.01.095-.017.199.023.296-.026h-.006c.153-.053.316-.026.472-.015.336.149.349.318.059.589-.026.028-.104.032-.059.11l-.006-.008c.183.047.36.04.541.008.149-.051.13.099.182.163.051.059.013.14.064.196v-.005c.026.111-.046.202-.024.309-.054.091-.154.118-.239.177-.078.053-.149-.064-.228-.006l-.006-.006c-.071.018-.134.064-.198.012-.04-.038-.048-.092-.054-.137 0-.055.036-.084.086-.11.081-.003.172 0 .256 0 .117-.063.079-.142.034-.233-.014-.011-.034-.031-.046-.047-.145-.053-.276-.043-.421-.01h.014c-.118.057-.245.014-.362.032-.123.014-.201-.091-.309-.113-.027 0-.046-.017-.068-.022-.108-.054-.218-.108-.31.026-.043.044-.104.061-.159.069-.24 0-.466.08-.706.08-.205.006-.277.233-.398.373-.078-.155-.099.054-.163.021-.026.017-.059.037-.085.059-.215-.026-.427-.021-.641-.042-.032-.024-.063-.044-.095-.069-.078-.046-.15-.108-.215-.177-.005-.004-.013-.01-.026-.01-.019 0-.038 0-.059-.021-.032-.07-.14-.11-.101-.22-.006-.046-.013-.095.032-.137.135-.008.207.091.29.169.064.059.118.155.226.129.143-.044.3.026.433-.038.066-.032.026-.046-.006-.064-.03-.046-.026-.089 0-.144.077-.09.064-.205.104-.31.051-.064.071-.144.115-.199.047-.071.099-.149.193-.051.072.083.157.133.268.149.136.036.269.025.407-.035.14.012.289-.017.432.017"/><path fill-rule="evenodd" fill="#f7db16" d="m32.499 18.293c.032-.022.064-.051.097-.071l.014-.018c.059-.045.182.057.193-.089.123.011.254-.026.367.024.072.02.143.04.209.049.051.092.142.145.188.235.013.083-.02.175.026.256.006.131.205.189.135.353-.193.133-.415.068-.628.059-.051.01-.109.03-.166.042-.125.059-.239.026-.344-.05-.077.038-.149.072-.228.103-.057 0-.107-.026-.161-.053-.024-.019-.045-.042-.069-.068-.034-.042-.04-.085-.026-.136.013-.072.039-.137.123-.158.099-.032.172.048.263.054.228.032.453.053.679-.014 0-.022 0-.051 0-.077-.063-.096-.186 0-.258-.068h.006c-.07-.04-.146-.021-.218-.056-.07-.063-.137-.127-.201-.192-.041-.041-.033-.085-.001-.125"/><path fill-rule="evenodd" fill="#f7db16" d="m29.24 18.04c-.026-.019-.059-.038-.091-.059-.066-.083-.131-.159-.131-.276-.051-.091-.127-.161-.199-.231-.04-.042-.077-.068-.137-.068-.032-.019-.037-.049-.032-.091-.005-.101.241-.049.129-.212-.019-.02-.037-.032-.057-.06-.026-.024-.026-.055-.013-.091.083-.036.117-.097.083-.178.008-.04.019-.066.059-.078.22.038.245.22.298.387.109.391.439.584.713.821.049.045.113.039.172.035.182.133.241.308.15.516-.027 0-.054 0-.078 0-.059-.039-.149.006-.203-.066-.059-.039-.133-.051-.198-.081-.11.004-.215-.026-.298-.099-.062-.045-.089-.137-.167-.169"/><path fill-rule="evenodd" fill="#f6da16" d="m32.33 21.23c.02-.02.036-.039.058-.052.102-.059.22-.059.329-.085.072-.006.143-.032.207.026.155-.026.244.081.354.163.064.081-.006.191.053.28.097.179.201.351-.099.439-.075-.044-.159-.011-.244-.022-.072.016-.155-.049-.231.022-.032 0-.064.01-.104.01-.097.042-.188-.021-.286-.01-.036 0-.081.01-.121.016-.064.021-.129.021-.174-.038-.032-.059-.092-.106-.072-.176.026-.06.006-.135.091-.16.078.016.155.036.24.056.207.026.421.051.626-.014 0 0-.024-.036-.04-.059-.083-.114-.224-.022-.314-.091-.131-.01-.182-.121-.258-.191-.041-.034-.037-.078-.015-.114"/><path fill-rule="evenodd" fill="#f7db16" d="m29.402 20.97c-.178-.146-.226-.4-.417-.541-.064-.026-.091-.079-.059-.144.135-.046.081-.123.032-.193 0-.026.004-.053.012-.066.083-.046.037-.114.045-.18.012-.02.032-.032.059-.024.183-.021.201.123.233.244.108.373.362.608.685.794.077.059.168-.021.25.013.021.006.04.025.059.046.04.07.026.149.026.22 0 .072-.019.135-.019.207 0 .064-.046.077-.103.037-.059-.005-.123.014-.169-.051-.059-.072-.163-.066-.231-.109-.117.019-.202-.044-.286-.11-.026-.066-.058-.117-.117-.143"/><path fill-rule="evenodd" fill="#f2d715" d="m30.722 17.473c-.02.019-.03.046-.054.066-.107.123-.196.051-.288-.026-.015-.059.006-.123 0-.181 0-.013 0-.022 0-.022s0 .022 0 .032c0 .081.006.149-.098.165-.031 0-.072-.016-.082-.048-.021-.042.006-.081.019-.123-.013.042-.031.064-.039.104-.012.072-.07.091-.123.115-.027.016-.046.021-.07.027-.054-.07-.104-.143-.157-.205-.032-.104-.036-.209-.05-.305-.006-.09.05-.135.116-.173.069-.021.134-.05.2-.076.123-.022.245-.022.36 0 .117-.015.18.068.262.123.108-.015.095.06.089.126-.008.096-.072.174-.059.278 0 .04.006.09-.026.123"/><path fill-rule="evenodd" fill="#f2d716" d="m30.774 23.841c-.021.03-.034.063-.053.089-.059.011-.121.011-.167-.036-.046-.061-.104-.087-.169-.107-.206.025-.258-.181-.394-.256-.046-.066-.054-.148-.092-.221-.063-.059-.121-.123-.18-.189-.091-.097.072-.123.063-.197-.022-.026-.042-.053-.063-.079-.013-.019-.019-.038-.006-.061.036-.03.064-.063.046-.114 0-.049.032-.083.081-.083.183.103.104.347.247.47.071.092.162.163.212.266.04.061.085.117.155.149.099.064.235-.04.311.084.066.09-.005.193.009.285"/><path fill-rule="evenodd" fill="#f3d716" d="m32.759 23.68c.018 0 .032 0 .05 0 .045.073.117.132.176.204.006.02.014.046.006.064-.014.099.026.173.072.252.005.038.005.064.005.098-.102.176-.291.025-.413.111-.131.083-.265-.026-.394 0-.032.018-.072.038-.104.049-.059-.037-.129-.057-.161-.135-.008-.079.019-.134.091-.18.078.02.155.046.233.064.121.03.238.03.354 0 .03-.055.03-.123-.032-.109-.201.039-.279-.131-.406-.223.02-.051.038-.1.056-.152.158-.038.304-.11.467-.043"/><path fill-rule="evenodd" fill="#f3d816" d="m30.11 19.921c.024-.004.059-.004.091-.01.101-.025.205-.025.314 0 .032.006.066.006.104.01.049.05.135 0 .188.059.02.033.02.072.02.118-.02.117-.014.24-.052.347-.111.026-.22.229-.337.008-.02.109-.129.123-.195.182-.036.02-.068.014-.108.014-.045-.072-.097-.145-.142-.209-.038-.127-.072-.256-.064-.387.032-.082.115-.1.181-.132"/><path fill-rule="evenodd" fill="#f0d515" d="m31.12 22.9c-.009.08-.022.163-.041.241-.04.064-.099.077-.171.091-.097-.014-.218.005-.207-.149-.011.031.006-.012-.007.021-.046.129-.122.108-.205.051.014-.123-.117-.222-.078-.343.012-.135.148-.07.207-.129l-.006.006c.121-.038.245-.052.368 0h-.01c.055.026.113.045.127.111.005.032.014.07.023.1"/><path fill-rule="evenodd" fill="#d62519" d="m30.13 20.647c.014-.027.034-.038.046-.059.109-.06.226-.054.343-.033.141.059.038.169.046.251-.021.021-.04.032-.06.047-.091.052-.182 0-.276 0-.032 0-.064-.021-.085-.053-.006-.053-.014-.1-.014-.153"/><path fill-rule="evenodd" fill="#594f08" d="m30.19 18.45c-.008-.18-.099-.351-.15-.516.02-.022.032-.035.046-.055.036-.032.091-.036.14-.021.177.149.124.32.04.493 0 .019-.004.031-.012.045.031.053 0 .064-.045.064l-.019-.01"/><path fill-rule="evenodd" fill="#254b92" d="m34.437 18.929c.032.083.071.166.104.254-.022.029-.063.035-.104.009-.245.054-.146-.097-.122-.206.027-.057.059-.092.122-.057"/><path fill-rule="evenodd" fill="#633d0c" d="m33.33 21.563c-.085-.083-.045-.186-.053-.28.26.107.524.017.784.041-.168.106-.351.048-.53.054-.137.004-.221.037-.201.185"/><path fill-rule="evenodd" fill="#92750d" d="m30.722 23.05c-.02.145.109.059.161.104.026.04.026.078.015.114-.091.091-.189.064-.284.041-.117.008-.091-.098-.123-.155.11.04.173-.026.237-.104h-.006"/><path fill-rule="evenodd" fill="#e3c914" d="m29.992 20.02c0 .137 0 .272 0 .413-.127-.063-.014-.25-.154-.309-.032-.064-.064-.145.036-.177.054-.015.123-.015.118.073"/><path fill-rule="evenodd" fill="#662e0f" d="m33.23 20.18c-.318.084-.627.084-.943 0 .317 0 .625 0 .943 0"/><path fill-rule="evenodd" fill="#ae9010" d="m30.877 23.265c0-.038.006-.078.006-.11.066-.007.131-.013.197-.013.019.026.035.059.055.085-.186.019-.121.237-.252.296-.044-.02-.064-.059-.07-.104-.006-.064.026-.109.064-.154"/><path fill-rule="evenodd" fill="#9e0e1e" d="m35.02 18.04c-.193.036-.388.06-.583 0-.018 0-.03-.011-.023-.026 0-.012.006-.019.006-.019.198.013.406-.052.6.045"/><path fill-rule="evenodd" fill="#64300e" d="m34.808 20.97c-.304.071-.603.081-.906-.008.303 0 .602 0 .906.008"/><path fill-rule="evenodd" fill="#6e1f12" d="m29.592 21.862c.201.168.438.064.659.091-.188.117-.396.038-.595.042-.077 0-.072-.074-.064-.133"/><path fill-rule="evenodd" fill="#5a330c" d="m33.379 17.16c-.279.079-.558.071-.834 0 .272 0 .544-.006.814-.006l.02.006"/><path fill-rule="evenodd" fill="#55320b" d="m31.614 15.646c.278 0 .55 0 .826 0 0 0 .026.008.04.014-.014.006-.021.009-.03.026-.286 0-.567 0-.844 0-.01-.018-.019-.021-.032-.026.014-.007.027-.014.04-.014"/><path fill-rule="evenodd" fill="#5f270e" d="m34.34 17.571c-.26.109-.531.038-.795.038-.026 0-.032-.012-.026-.02.006-.013.014-.019.014-.019.27.001.539.001.807.001"/><path fill-rule="evenodd" fill="#d6ba13" d="m30.722 17.362c-.03-.142.059-.276-.004-.415 0 0 0-.032.004-.042.169-.063.182-.055.161.15l-.012.018c-.04.071-.064.13-.091.188 0 .026-.006.049-.014.075.008.046-.006.054-.044.026"/><path fill-rule="evenodd" fill="#673b0d" d="m32.362 20.706c-.265.101-.534.032-.807.041-.014-.009-.026-.015-.026-.015l.032-.022c.267-.004.537-.004.801-.004"/><path fill-rule="evenodd" fill="#4a4e6c" d="m32.09 24.14c.006.068-.04.117-.072.175-.019.038-.049.064-.095.038-.022-.014-.013-.038 0-.064-.045-.057-.053-.118.014-.171.054-.043.108-.037.153.022"/><path fill-rule="evenodd" fill="#783811" d="m32.12 23.06c.266-.006.53-.006.794-.006-.264.092-.528.078-.794.006"/><path fill-rule="evenodd" fill="#9a2b1a" d="m32.505 17.327c.149.009.29.015.439.024.064-.02.131-.042.188.011-.214.07-.428.07-.641 0-.005-.011-.019-.021-.032-.03.021 0 .032-.005.046-.005"/><path fill-rule="evenodd" fill="#2d3f90" d="m28.804 18.249c0 .031 0 .063 0 .096 0 .053-.014.079-.078.066-.053-.04-.167.013-.176-.059-.014-.11.099-.122.182-.148.026.012.058.012.072.045"/><path fill-rule="evenodd" fill="#5d2a0e" d="m30.509 19.07c.02-.016.038-.042.06-.042.077-.01.149-.244.238-.021.038-.02.076-.038.116-.061-.084.209-.274.109-.414.124"/><path fill-rule="evenodd" fill="#31477f" d="m28.943 20.285c-.022.057.01.103.042.144-.099-.017-.195-.031-.3-.053.032-.117.11-.129.201-.145.018.022.057.022.057.054"/><path fill-rule="evenodd" fill="#0f4aa5" d="m28.699 17.268c0 .042-.008.091-.014.133-.095.026-.159-.059-.25-.064.042-.115.127-.127.224-.127.027.005.054.018.04.058"/><path fill-rule="evenodd" fill="#1251a0" d="m28.849 18.606c.104-.023.122.064.159.127-.077.045-.159.077-.258.077-.037-.077.046-.131.027-.193.027-.028.045-.028.072-.011"/><path fill-rule="evenodd" fill="#5f3c0b" d="m29.571 19.03c.202.101.421.026.629.051-.222.114-.453.023-.681.046-.032-.061-.039-.107.052-.097"/><path fill-rule="evenodd" fill="#0f4ea6" d="m34.437 18.929c-.036.019-.082.039-.122.057-.037-.034-.129-.057-.051-.129.064-.068.137-.137.231-.032-.01.037-.01.084-.058.104"/><path fill-rule="evenodd" fill="#9a261a" d="m33.851 17.261c.161-.014.335-.137.485.039-.163-.021-.33.052-.485-.039"/><path fill-rule="evenodd" fill="#364a85" d="m34.07 21.809c.022.054.123.064.091.155-.013.048-.006.11-.085.099-.153-.009-.133-.109-.114-.214.019-.045.052-.078.108-.04"/><path fill-rule="evenodd" fill="#722a12" d="m30.24 24.367c.214.054.434-.083.641.042-.22.038-.427.012-.641-.042"/><path fill-rule="evenodd" fill="#7d2814" d="m29.05 17.673c.078.086.059.207.104.304-.085-.083-.271-.11-.163-.304.019-.026.038-.026.059 0"/><path fill-rule="evenodd" fill="#245593" d="m32.23 18.771c-.027.054-.052.112-.072.163-.032.018-.064.014-.091-.013-.024-.044-.159-.033-.078-.133.072-.082.157-.108.241-.017"/><path fill-rule="evenodd" fill="#71530d" d="m32.44 17.73c-.22.091-.453.034-.679.038-.011-.004-.019-.016-.032-.023.014-.008.026-.008.04-.015.226 0 .446 0 .671 0"/><path fill-rule="evenodd" fill="#64370d" d="m33.488 19.813c-.064-.104-.2-.01-.267-.104.149 0 .299 0 .476 0-.058.131-.144.095-.209.104"/><path fill-rule="evenodd" fill="#315782" d="m28.989 20c-.004.034-.019.057-.026.083.008.024-.004.04-.032.04-.063-.021-.127-.047-.205-.072.064-.131.161-.115.26-.072l.003.021"/><path fill-rule="evenodd" fill="#a14019" d="m33.706 18.417c.131 0 .268 0 .404 0 .036.007.043.019.004.045-.141.064-.284.04-.417-.006 0 0-.023-.021-.032-.032 0 0 .023 0 .041-.007"/><path fill-rule="evenodd" fill="#064eaf" d="m28.849 18.606c-.019.003-.045.003-.071.011-.06.015-.124.021-.187.03-.015-.113.058-.159.135-.197.032-.021.052-.015.07.012.018.053.034.095.053.144"/><path fill-rule="evenodd" fill="#d8c013" d="m29.896 16.9c-.021.047-.04.101-.066.146-.023.032-.046.084-.104.052 0-.064-.101-.103-.042-.175.063-.063.139-.023.212-.023"/><path fill-rule="evenodd" fill="#5c240e" d="m33.17 18.811c-.226.118-.451.083-.679.014.228-.001.453-.007.679-.014"/><path fill-rule="evenodd" fill="#66330e" d="m32.59 19.08c.137-.115.213.154.344.05-.117.032-.266.195-.344-.05"/><path fill-rule="evenodd" fill="#61330d" d="m33.1 19.09c.213-.032.427.03.628-.059-.194.186-.408.117-.628.059"/><path fill-rule="evenodd" fill="#2e488a" d="m32.03 21.809c.013.054.032.091.053.145-.021.026-.04.026-.064.005-.066.006-.161.027-.171.006-.041-.102.082-.135.104-.206.059-.026.099-.026.078.05"/><path fill-rule="evenodd" fill="#104da7" d="m28.75 16.942c-.005.031-.019.064-.024.096-.045 0-.091 0-.135 0-.041-.037-.144-.055-.055-.138.064 0 .123 0 .189-.008.039.008.046.019.025.05"/><path fill-rule="evenodd" fill="#0c50a7" d="m34.07 22.06c.026-.032.059-.067.085-.099.032.048.059.099.086.145-.046.063-.124.103-.189.076-.056-.024.008-.084.018-.122"/><path fill-rule="evenodd" fill="#56230d" d="m33.12 16.729c.212 0 .419 0 .631 0-.212.091-.419.091-.631 0"/><path fill-rule="evenodd" fill="#5c370c" d="m32.48 16.729c.22-.078.432-.083.646 0-.214 0-.432 0-.646 0"/><path fill-rule="evenodd" fill="#5d390b" d="m33.54 17.571c0 .012 0 .026.007.038-.222.005-.439.013-.661.013.209-.109.434-.039.654-.051"/><path fill-rule="evenodd" fill="#264399" d="m28.854 16.691c-.013.038-.024.07-.04.11-.024.019-.051.008-.083 0-.04-.04-.173.008-.123-.099.059-.105.163-.063.246-.011"/><path fill-rule="evenodd" fill="#f70118" d="m30.877 23.265c0 .053-.006.102-.014.153-.045.032-.097.059-.155.046-.045-.014-.063-.063-.089-.098-.006-.017-.006-.037-.006-.057.078-.082.173-.044.264-.044"/><path fill-rule="evenodd" fill="#0b4aa7" d="m34.437 19.19c.041-.006.071-.006.104-.009.06.015.046.067.06.105-.06.066-.148.111-.205.074-.06-.039.01-.116.041-.17"/><path fill-rule="evenodd" fill="#6a2511" d="m32.958 21.686c-.205.112-.419.085-.626.014.207-.005.413-.005.626-.014"/><path fill-rule="evenodd" fill="#6a310f" d="m32.674 20.388c.22-.066.439-.05.659-.05-.212.1-.439.022-.659.05"/><path fill-rule="evenodd" fill="#685c09" d="m31.04 21.649c0-.129 0-.254 0-.42.072.115.004.297.199.271-.064.053-.136.097-.199.149"/><path fill-rule="evenodd" fill="#2a4b92" d="m29.767 23.884c.013.072.049.092.115.097.057.014.064.046.006.072-.04.026-.082.026-.121-.006-.046-.007-.11.032-.131-.026-.02-.064.04-.104.085-.137.02-.027.03-.027.046 0"/><path fill-rule="evenodd" fill="#3a4888" d="m29.12 21.68c-.051 0-.115.026-.143.006-.063-.042.027-.095.02-.149.013-.01.021-.016.026-.03.091-.032.149-.006.155.099.001.038-.024.063-.058.074"/><path fill-rule="evenodd" fill="#1151a7" d="m32.24 19.08c.078-.009.095.05.121.103-.198.137-.212.137-.225-.003.019-.054.046-.092.104-.1"/><path fill-rule="evenodd" fill="#592a0d" d="m31.77 17.73c0 0-.008.028-.008.038-.191-.004-.387.059-.576-.042.195.001.388.001.584.004"/><path fill-rule="evenodd" fill="#1f479a" d="m32.03 21.809c-.026-.011-.052-.038-.078-.051-.036-.008-.104 0-.075-.052.039-.089.107-.153.212-.063-.019.056.006.128-.059.166"/><path fill-rule="evenodd" fill="#1549a2" d="m34.07 21.809c-.036.016-.068.026-.108.04-.077-.045-.051-.099 0-.143.052-.047.108-.089.167-.011-.006.049 0 .095-.059.114"/><path fill-rule="evenodd" fill="#134aaa" d="m32.02 21.958c.02-.005.038-.005.064-.005.07-.022.115.026.161.064-.064.053-.129.121-.22.083-.019-.015-.005-.098-.005-.142"/><path fill-rule="evenodd" fill="#622f0e" d="m32.912 19.821c.195 0 .391-.008.582-.008-.191.082-.387.082-.582.008"/><path fill-rule="evenodd" fill="#562f0b" d="m30.25 18.609c-.182.106-.383.038-.575.046-.02-.012-.025-.018-.025-.018.012-.021.02-.021.02-.021.197.001.392.001.58-.007"/><path fill-rule="evenodd" fill="#753411" d="m32.16 22.63c.195-.097.387-.038.589-.038l.02.011c0 .021-.01.027-.01.027-.2 0-.401 0-.599 0"/><path fill-rule="evenodd" fill="#7a4d0f" d="m34.02 23.581c-.181.064-.358.078-.541-.008.183.008.361.008.541.008"/><path fill-rule="evenodd" fill="#7a3a11" d="m32.7 22.497c-.177-.018-.349-.018-.53-.027.182-.065.353-.09.53.027"/><path fill-rule="evenodd" fill="#1b519f" d="m29.02 21.377c.012.019.02.038.032.059.026.059-.021.077-.053.101-.052-.016-.127.034-.153-.023-.027-.077.039-.117.102-.142.027-.027.051-.021.072.005"/><path fill-rule="evenodd" fill="#29429a" d="m29.07 19.821c-.013.019-.026.037-.039.064-.027.017-.05.009-.076.005-.038-.019-.091-.032-.117-.064-.02-.026.021-.059.053-.071.076-.04.14-.026.179.066"/><path fill-rule="evenodd" fill="#662610" d="m34.37 22c.117-.204.224.036.341 0-.117.099-.224.052-.341 0"/><path fill-rule="evenodd" fill="#49240a" d="m35.471 18.728c-.172-.11-.024-.154.04-.213.091.091.123.165-.04.213"/><path fill-rule="evenodd" fill="#6b320f" d="m29.992 20.02c-.032-.051-.078-.072-.124-.051-.063.038-.021.103-.03.155-.149-.368.167-.155.271-.209-.04.033-.08.073-.117.105"/><path fill-rule="evenodd" fill="#5d2d0d" d="m33.746 16.729c-.045-.032-.081-.064-.131-.103.104.012.215-.03.332.038-.051.087-.129.065-.201.065"/><path fill-rule="evenodd" fill="#553a0a" d="m30.728 20.452c.085-.114.026-.245.047-.375.097-.038.057.064.097.09-.021.112-.032.221-.053.33-.032-.006-.064-.006-.097-.011 0-.015 0-.021.006-.034"/><path fill-rule="evenodd" fill="#6e2711" d="m34.06 20.14c-.176 0-.351-.006-.524-.012.174-.078.349-.105.524.012"/><path fill-rule="evenodd" fill="#1f5a97" d="m32.06 18.921c.032.008.059.008.091.013.008.034.014.066.021.099-.039.101-.117.074-.195.063-.116-.128.059-.117.083-.175"/><path fill-rule="evenodd" fill="#5b2d0d" d="m35.06 21.695c-.113-.104-.051-.209-.006-.318.136.109.025.214.006.318"/><path fill-rule="evenodd" fill="#622c0e" d="m30.464 15.799c.155-.051.311-.077.472-.063-.156.063-.305.109-.472.063"/><path fill-rule="evenodd" fill="#57310c" d="m30.21 21.382c.18-.037-.032-.152.045-.214.018-.017.038-.017.063-.009.032.031.085.063.026.113.006.051.013.104.024.157-.019.017-.044.024-.07.006-.025-.013-.058-.039-.088-.053"/><path fill-rule="evenodd" fill="#ac0d21" d="m32.24 23.355c-.155.036-.309.026-.466.021-.024.016-.046.01-.052-.017.17-.068.342-.068.518-.004"/><path fill-rule="evenodd" fill="#874513" d="m29.9 23.31c.156.023.086.141.092.221-.064-.054-.163-.107-.092-.221"/><path fill-rule="evenodd" fill="#76540d" d="m33.869 20.602c-.168.077-.329.064-.498 0 .169 0 .33 0 .498 0"/><path fill-rule="evenodd" fill="#563417" d="m28.731 16.802c.032 0 .059 0 .083 0 .054.049.145.072.126.182-.06-.015-.126-.026-.19-.041-.005-.02-.011-.031-.024-.05.064-.019.013-.059.005-.091"/><path fill-rule="evenodd" fill="#970e1d" d="m30.25 21.532c-.155.03-.318.026-.472-.006.153-.08.316-.026.479-.032.02.012.02.019.02.019l-.027.019"/><path fill-rule="evenodd" fill="#7d3c12" d="m33.488 22.882c-.155.01-.318.015-.472.015.154-.08.317-.085.472-.015"/><path fill-rule="evenodd" fill="#7a4c10" d="m30.619 23.366c.03.02.057.035.089.052.052.046.052.097 0 .144-.077-.031-.18-.021-.252-.091.08-.007.157 0 .163-.105"/><path fill-rule="evenodd" fill="#672810" d="m29.986 17.583c.011-.02.024-.038.038-.052.059-.077.085-.013.123.024.013.042.021.08.013.117-.026.064-.064.096-.123.104-.064-.049-.051-.129-.051-.193"/><path fill-rule="evenodd" fill="#a1131e" d="m32.753 22.942c-.157.017-.313.017-.466-.01.153-.074.316-.026.476-.036.022.02.022.026.014.036l-.024.01"/><path fill-rule="evenodd" fill="#7b4710" d="m31.965 16.834c-.016.135.022.258.063.387-.122-.109-.18-.23-.063-.387"/><path fill-rule="evenodd" fill="#303f91" d="m31.919 24.292c.023.043.063.037.095.026.06.038.137.057.143.14-.078-.011-.161-.024-.237-.049-.086-.034-.037-.08-.001-.117"/><path fill-rule="evenodd" fill="#255499" d="m33.599 24.19c-.02.04-.042.071-.052.108-.013.021-.032.021-.053.005-.038-.019-.083-.038-.064-.091.026-.064.085-.074.149-.064.027 0 .03.016.02.042"/><path fill-rule="evenodd" fill="#6f3610" d="m34.24 24.24c.024-.101-.124-.218.024-.309.11.118-.013.209-.024.309"/><path fill-rule="evenodd" fill="#762014" d="m32.966 23.936c0 0-.008-.032-.008-.042.019-.026.04-.036.064-.018.137 0 .28.008.421.008-.137.097-.284.04-.435.057-.018.039-.031.035-.042-.005"/><path fill-rule="evenodd" fill="#865810" d="m32.654 24.409c.118-.117.298.012.413-.111-.09.214-.276.069-.413.111"/><path fill-rule="evenodd" fill="#67460c" d="m34.427 18.403c.141-.07.282-.101.413.014-.137-.006-.273-.006-.413-.014"/><path fill-rule="evenodd" fill="#763411" d="m32.23 17.09c-.162-.095-.157-.201.006-.292-.053.099-.053.197-.006.292"/><path fill-rule="evenodd" fill="#812d14" d="m33.488 23.581c-.072-.008-.155.014-.186-.11.089 0 .167 0 .244 0-.02.032-.038.07-.058.11"/><path fill-rule="evenodd" fill="#763811" d="m33.43 23.884c.145-.066.284-.098.421.01-.145 0-.277 0-.421-.01"/><path fill-rule="evenodd" fill="#a2101f" d="m30.728 23.994c-.127.117-.283.046-.433.038.143-.076.292-.025.433-.038"/><path fill-rule="evenodd" fill="#52360a" d="m29.725 17.1c.042-.02.072-.032.104-.052 0 .11 0 .222 0 .332-.056-.091-.088-.182-.104-.28"/><path fill-rule="evenodd" fill="#5a290d" d="m34.15 17.05c-.146.072-.304.046-.449.052.14-.097.295-.042.449-.052"/><path fill-rule="evenodd" fill="#52270c" d="m32.26 24.409c.129-.099.263.043.394 0-.132.089-.265.043-.394 0"/><path fill-rule="evenodd" fill="#794310" d="m34.427 17.306c.097-.032.108.03.113.111 0 .068-.017.128-.113.102.058-.069.051-.141 0-.213"/><path fill-rule="evenodd" fill="#74430f" d="m30.722 17.362c.019-.011.032-.021.045-.026.06.091.11.183.163.273-.071-.054-.144-.091-.208-.137 0-.039 0-.076 0-.11"/><path fill-rule="evenodd" fill="#52330a" d="m29.24 18.04c.167-.051.159.064.167.169-.084-.024-.153-.064-.167-.169"/><path fill-rule="evenodd" fill="#442509" d="m28.959 19.891c.026-.005.049-.005.076-.005.039.051.123.063.117.166-.059-.013-.11-.034-.163-.051l-.004-.021c-.009-.032-.014-.059-.026-.089"/><path fill-rule="evenodd" fill="#561d0e" d="m34.789 19.13c.129-.178.155.021.218.063-.112.096-.153-.009-.218-.063"/><path fill-rule="evenodd" fill="#6f3313" d="m28.931 20.12c.01-.021.013-.032.032-.04.064.046.123.099.091.183-.012.045-.068.019-.11.019-.017-.015-.039-.032-.057-.046.076-.013.116-.046.044-.116"/><path fill-rule="evenodd" fill="#5b3046" d="m31.981 19.09c.064-.004.143-.012.195-.063.024.018.044.036.064.051-.032.031-.071.066-.104.1-.05-.034-.103-.062-.155-.088"/><path fill-rule="evenodd" fill="#711a14" d="m33.29 20.594c-.141 0-.285 0-.427 0 .142-.073.279-.073.427 0"/><path fill-rule="evenodd" fill="#69560a" d="m28.796 18.462c-.019 0-.046-.012-.07-.012 0-.015 0-.026 0-.026.024-.04.052-.059.078-.079.064.008.14-.016.172.079-.055.012-.122.026-.18.038"/><path fill-rule="evenodd" fill="#733b10" d="m33.593 15.839c.141-.053.264-.026.367.084-.123-.026-.246-.058-.367-.084"/><path fill-rule="evenodd" fill="#074eb2" d="m29.02 21.18c0 .026 0 .057 0 .081-.013.044-.045.054-.085.048-.036-.021-.121.006-.121-.054-.006-.081.077-.081.144-.1.031-.017.049-.008.062.025"/><path fill-rule="evenodd" fill="#79460f" d="m35.05 21.382c-.089-.051-.176-.109-.045-.217.077.064.038.144.045.217"/><path fill-rule="evenodd" fill="#6c460d" d="m34.06 21.323c.135-.068.277-.094.404.016-.132-.008-.269-.008-.404-.016"/><path fill-rule="evenodd" fill="#62220f" d="m34.944 21.899c-.032-.102.089-.129.107-.204.183.186-.044.154-.107.204"/><path fill-rule="evenodd" fill="#6d2911" d="m30.561 21.953c.075-.124.167-.145.278-.046-.085.084-.19.032-.278.046"/><path fill-rule="evenodd" fill="#672a10" d="m32.368 22c.099-.089.189.01.286.01-.096.062-.195.081-.286-.01"/><path fill-rule="evenodd" fill="#294e92" d="m29.842 22.586c-.019.024-.036.051-.059.083-.004.025-.022.032-.042.02-.026-.038-.125-.038-.091-.097.044-.085.123-.063.192-.006"/><path fill-rule="evenodd" fill="#ab9210" d="m32.759 22.63c0 0-.006-.027-.006-.038.042-.021.108.005.141-.059.051 0 .109 0 .169 0 .045.063-.014.069-.046.097l.006.007c-.089.04-.179.032-.264 0v-.007"/><path fill-rule="evenodd" fill="#6e3829" d="m29.783 22.923c.137.114-.127.101-.063.197-.019-.006-.038-.012-.051-.017-.034-.04-.078-.066-.086-.116.073-.022.138-.045.2-.064"/><path fill-rule="evenodd" fill="#802315" d="m30.3 23.321c-.078-.084-.167-.153-.212-.266.101.059.193.139.212.266"/><path fill-rule="evenodd" fill="#5e2d0d" d="m31.874 18.45c.127-.098.276-.026.417-.053-.127.105-.284.045-.417.053"/><path fill-rule="evenodd" fill="#694b14" d="m28.699 17.268c-.014-.021-.026-.04-.04-.059.059-.013.131-.021.123-.111.09.007.086.091.072.13-.024.078-.104.019-.155.04"/><path fill-rule="evenodd" fill="#5e240e" d="m35.471 18.417c-.097-.04-.101-.098-.051-.175-.014-.012-.018-.021-.014-.026.006-.004.014-.012.023-.012.095.049.1.129.042.213"/><path fill-rule="evenodd" fill="#672810" d="m33.909 20.962c-.059-.006-.117.008-.144-.097.091 0 .168 0 .254 0-.032.032-.072.065-.11.097"/><path fill-rule="evenodd" fill="#672a0f" d="m32.13 20.342c.136-.004.263-.021.392.046-.129-.012-.269.041-.392-.046"/><path fill-rule="evenodd" fill="#194d9e" d="m33.494 24.303c.014 0 .032 0 .053-.005.052.021.036.069.06.111-.014.032-.032.049-.066.049-.176 0-.079-.083-.047-.155"/><path fill-rule="evenodd" fill="#841f16" d="m33.02 23.259c-.137.006-.264.006-.4.006.137-.071.264-.086.4-.006"/><path fill-rule="evenodd" fill="#652c0f" d="m31.762 21.377c.118-.095.245-.032.37-.054-.111.099-.249.04-.37.054"/><path fill-rule="evenodd" fill="#58380b" d="m33.706 18.417c-.005.013-.009.025-.009.039-.157.02-.082.15-.104.224-.085-.073-.04-.178-.053-.276.017-.026.039-.032.059-.006.04.005.072.013.107.019"/><path fill-rule="evenodd" fill="#6a320f" d="m30.15 20.801c.032 0 .071 0 .104 0 .031.038.027.071 0 .104-.091.013-.182.031-.259-.046.051-.012.123.013.155-.058"/><path fill-rule="evenodd" fill="#64260f" d="m33.379 17.16l-.02-.006c.103-.091.224-.046.342-.053-.095.086-.213.048-.322.059"/><path fill-rule="evenodd" fill="#732812" d="m29.933 24.12c.11.017.163.091.215.177-.124.005-.175-.069-.215-.177"/><path fill-rule="evenodd" fill="#8f3e15" d="m33.27 22.997c.123 0 .272-.074.318.117-.091-.077-.208-.064-.313-.083.001-.008-.005-.016-.005-.034"/><path fill-rule="evenodd" fill="#7d610d" d="m32.45 15.686c0-.018-.01-.026-.01-.04.099-.016.189-.019.272.045-.09.089-.173-.023-.262-.005"/><path fill-rule="evenodd" fill="#5a2d0d" d="m32.753 15.69c.121.004.256-.037.374.054-.124-.022-.26.036-.374-.054"/><path fill-rule="evenodd" fill="#743611" d="m33.27 22.997c0 .018 0 .026.006.034-.121.006-.245.014-.368.019.11-.085.241-.045.362-.053"/><path fill-rule="evenodd" fill="#733b10" d="m30.06 15.897c.104-.079.231-.066.349-.099-.091.125-.222.105-.349.099"/><path fill-rule="evenodd" fill="#ddc414" d="m30.871 20.17c-.032-.031-.064-.059-.097-.09 0-.033 0-.064 0-.098.057-.043.108-.063.155.021-.066.039-.046.108-.058.167"/><path fill-rule="evenodd" fill="#7f4511" d="m29.676 18.617c0 .015 0 .026 0 .026-.092-.006-.188-.006-.266-.077.103-.04.182.013.266.051"/><path fill-rule="evenodd" fill="#541c0d" d="m32.918 16.518c-.127.004-.256.004-.379.004.123-.075.252-.075.379-.004"/><path fill-rule="evenodd" fill="#1e519f" d="m29.767 23.884c-.016 0-.025 0-.046 0-.019-.043-.109-.033-.091-.098.021-.068.085-.06.149-.052-.006.052-.006.107-.012.15"/><path fill-rule="evenodd" fill="#7f4111" d="m32.604 21.536c.109.01.24-.057.314.091-.101-.05-.224-.004-.314-.091"/><path fill-rule="evenodd" fill="#703310" d="m34.427 17.99c0 .019.006.034.01.045-.114.026-.224-.005-.326-.059 0-.077.049-.068.107-.059l.014.017c.045.075.128.037.195.056"/><path fill-rule="evenodd" fill="#56250d" d="m33.23 17.31c.114 0 .231 0 .353 0-.113.08-.238.042-.361.042l-.023-.02.031-.022"/><path fill-rule="evenodd" fill="#795b0d" d="m30.456 16.824c-.115 0-.237 0-.36 0 .123-.068.245-.073.36 0"/><path fill-rule="evenodd" fill="#55240d" d="m30.883 17.06c.015-.133-.012-.209-.161-.15.038-.081.117-.09.169-.055.063.054.058.14-.008.205"/><path fill-rule="evenodd" fill="#6c3c0e" d="m34.741 17.622c-.006-.104-.012-.205-.019-.316.132.102.091.213.019.316"/><path fill-rule="evenodd" fill="#843614" d="m30.981 22.688c-.123 0-.247 0-.368 0 .121-.091.245-.078.368 0"/><path fill-rule="evenodd" fill="#80560f" d="m31.724 23.359c.014 0 .032.007.052.017-.123.055-.25.074-.373 0 .103-.01.211-.017.321-.017"/><path fill-rule="evenodd" fill="#833914" d="m29.05 17.673c-.021 0-.04 0-.059 0-.068-.051-.135-.117-.167-.204.118.016.163.129.226.204"/><path fill-rule="evenodd" fill="#742a12" d="m30.3 21.899c.104-.075.155.131.268.054-.046.049-.104.059-.163.059-.092.018-.079-.065-.105-.113"/><path fill-rule="evenodd" fill="#63420c" d="m32.362 19.813c.129-.059.268-.092.396-.01-.128.001-.267.001-.396.01"/><path fill-rule="evenodd" fill="#8b680f" d="m33.411 23.265c-.131.068-.264.068-.395 0 .131 0 .264 0 .395 0"/><path fill-rule="evenodd" fill="#5b1f0e" d="m29.806 21.22c.076.037.231-.09.231.109-.099.008-.169-.049-.231-.109"/><path fill-rule="evenodd" fill="#53290c" d="m29.571 19.03c-.02.032-.032.063-.052.097-.147.036-.039-.123-.109-.144.061.007.129-.056.161.047"/><path fill-rule="evenodd" fill="#bb9811" d="m30.04 17.776c.02-.039.046-.076.072-.108.097 0 .113.069.123.149-.01.02-.022.036-.032.057-.04.006-.081.006-.117.006-.014-.032-.032-.063-.046-.104"/><path fill-rule="evenodd" fill="#321a08" d="m28.931 21.313c.028-.014.059-.03.085-.048.038.018.078.027.117.044-.039.022-.079.042-.117.068-.026-.006-.053-.006-.072-.006-.004-.02-.013-.04-.013-.058"/><path fill-rule="evenodd" fill="#7d610d" d="m31.614 15.646c-.008.014-.008.022-.008.04-.091.009-.18.032-.271.051.067-.133.175-.099.279-.091"/><path fill-rule="evenodd" fill="#622c0e" d="m33.12 15.736c.109.018.244-.061.322.082-.104-.044-.231.007-.322-.082"/><path fill-rule="evenodd" fill="#69360e" d="m33.625 16.627c-.123.006-.246.038-.351-.053.118 0 .241-.018.351.053"/><path fill-rule="evenodd" fill="#751115" d="m34.13 16.574c.02.006.046.015.064.022-.019.016-.038.05-.064.063-.013.006-.053-.008-.059-.021-.018-.049.027-.049.059-.064"/><path fill-rule="evenodd" fill="#90131b" d="m33.647 20.289c.112-.004.222-.068.32.042-.111 0-.216 0-.326 0-.017-.016-.026-.025-.017-.033l.023-.009"/><path fill-rule="evenodd" fill="#6a300f" d="m32.867 20.594c-.104.08-.213.06-.322.054.097-.079.214-.046.322-.054"/><path fill-rule="evenodd" fill="#602b0e" d="m33.647 20.289c0 0-.006.026-.006.042-.102 0-.212.007-.316.007.105-.079.215-.053.322-.049"/><path fill-rule="evenodd" fill="#63360d" d="m35.01 18.526c.064.117.123.233-.059.298.065-.091.053-.192.059-.298"/><path fill-rule="evenodd" fill="#871b18" d="m31.562 20.71c-.006.015-.006.028-.006.028-.103.009-.213.009-.316.005.096-.077.213-.033.322-.033"/><path fill-rule="evenodd" fill="#3a2008" d="m30.2 19.08c.146-.254.078.103.153.058-.102.13-.102-.046-.153-.058"/><path fill-rule="evenodd" fill="#732612" d="m33.547 20.13c-.097.085-.214.045-.325.053.098-.08.214-.053.325-.053"/><path fill-rule="evenodd" fill="#6b390e" d="m30.93 20c-.053-.026-.104-.038-.155-.021-.057 0-.125 0-.155-.059.102.023.238-.068.31.08"/><path fill-rule="evenodd" fill="#803a12" d="m29.12 21.68c0 0 .034-.026.053-.036.014-.039.026-.039.046-.009.091 0 .155.024.149.136-.066-.076-.163-.076-.248-.091"/><path fill-rule="evenodd" fill="#69350e" d="m31.88 19.872c0 .103-.006.205-.014.316-.064-.111-.096-.213.014-.316"/><path fill-rule="evenodd" fill="#8a680f" d="m30.515 19.911c-.109 0-.214 0-.314 0 .1-.071.204-.081.314 0"/><path fill-rule="evenodd" fill="#6c480c" d="m34.586 21.695c-.101.087-.212.071-.322.004.11-.004.221-.004.322-.004"/><path fill-rule="evenodd" fill="#692c0f" d="m32.759 22c.036-.186.147.01.212-.044.02.021.027.027.027.027-.021.01-.027.017-.027.017-.077 0-.144 0-.212 0"/><path fill-rule="evenodd" fill="#533d09" d="m29.14 18.824c.137-.046.137.026.112.117-.067-.012-.183.019-.112-.117"/><path fill-rule="evenodd" fill="#651e10" d="m28.804 18.249c-.026-.019-.046-.033-.072-.045.11-.006.231-.064.316.066-.085-.028-.161-.048-.244-.021"/><path fill-rule="evenodd" fill="#69360e" d="m35.43 18.204c0 .012 0 .026-.01.038-.089-.038-.014-.171-.104-.207.195-.045.064.118.114.169"/><path fill-rule="evenodd" fill="#6c4b12" d="m29.741 22.688c0 0 .025-.012.042-.02.046.032.123.064.085.131-.026.044-.085-.026-.127-.026-.021 0-.026-.006-.026-.021.006-.012.006-.02.006-.02s.013-.031.02-.044"/><path fill-rule="evenodd" fill="#804312" d="m30.619 22.683c-.072.045-.137.085-.207.129-.047-.241.149-.071.207-.129"/><path fill-rule="evenodd" fill="#58290d" d="m34.11 18.462c0-.02 0-.032-.004-.045.107-.006.212-.006.322-.014-.09.085-.208.047-.318.059"/><path fill-rule="evenodd" fill="#75420f" d="m31.04 22.825c-.02-.046-.04-.092-.068-.137.081.013.176-.038.214.072-.051.013-.065.122-.146.065"/><path fill-rule="evenodd" fill="#1949a3" d="m29.725 22.733c0 .02.01.034.017.04-.007.026-.017.044-.021.07-.051-.006-.137.015-.129-.064 0-.078.084-.046.133-.046"/><path fill-rule="evenodd" fill="#e1c714" d="m31.04 22.825c.045-.033.072-.116.146-.064-.019.045-.038.098-.064.14-.023-.027-.059-.049-.082-.076"/><path fill-rule="evenodd" fill="#074dab" d="m29.584 22.987c.078.004.11.036.086.116-.046-.026-.199.025-.086-.116"/><path fill-rule="evenodd" fill="#4e2c0a" d="m29.402 20.97c.085.013.195 0 .117.142-.077-.019-.109-.071-.117-.142"/><path fill-rule="evenodd" fill="#453108" d="m30.21 18.462c.017-.02.03-.045.045-.064.05.078.114.149 0 .22-.028-.052-.061-.097-.045-.156"/><path fill-rule="evenodd" fill="#4f120e" d="m29.708 18.303c.075.004.166-.061.225.042-.013.026-.019.059-.051.066-.085 0-.115-.072-.174-.108"/><path fill-rule="evenodd" fill="#993618" d="m32.966 23.936c.019.005.032.005.051.005.014.092.032.177.046.26-.097-.063-.111-.154-.097-.265"/><path fill-rule="evenodd" fill="#214b92" d="m29.767 24.05c.045 0 .081.006.121.006.008.019.013.032.019.059-.041.042-.101.078-.155.052-.044-.026-.001-.079.015-.117"/><path fill-rule="evenodd" fill="#813314" d="m33.599 24.19c0 0-.016-.026-.02-.042.108 0 .219-.004.322-.004.02.004.026.02.02.03l-.012.016c-.104.031-.208.011-.31 0"/><path fill-rule="evenodd" fill="#633e0c" d="m30.968 24.351c.046-.08.091-.15.163-.021-.042.064-.105.053-.163.021"/><path fill-rule="evenodd" fill="#97770f" d="m32.674 24.21c-.116.057-.233.072-.354 0 .12 0 .238 0 .354 0"/><path fill-rule="evenodd" fill="#bfb025" d="m33.54 24.458c.017-.011.043-.031.066-.049.049-.034.107-.016.166 0-.039.038-.071.076-.107.106-.056.001-.091-.017-.125-.057"/><path fill-rule="evenodd" fill="#064eac" d="m33.54 24.458c.059-.011.099 0 .125.058-.04.055-.086.081-.145.049.001-.001.014-.067.02-.107"/><path fill-rule="evenodd" fill="#5a2d0d" d="m30.923 15.736c.109-.068.22-.083.329 0-.109 0-.22 0-.329 0"/><path fill-rule="evenodd" fill="#702312" d="m34.379 20.594c-.005-.083-.019-.174-.032-.256.116.068.104.159.032.256"/><path fill-rule="evenodd" fill="#731e13" d="m30.3 21.899c.032.04.064.08.104.112-.097.097-.104-.048-.154-.059.012-.013.031-.031.05-.053"/><path fill-rule="evenodd" fill="#612d0e" d="m29.02 21.18c-.021-.006-.045-.019-.063-.024.082-.048.173-.08.244.019-.058-.001-.123.005-.181.005"/><path fill-rule="evenodd" fill="#65360d" d="m32.912 18.665c.091.006.201-.048.258.068-.081-.033-.186.013-.258-.068"/><path fill-rule="evenodd" fill="#5c2f0c" d="m34.478 17.11c-.091-.026-.2.006-.286-.066.098.014.214-.051.286.066"/><path fill-rule="evenodd" fill="#5f310d" d="m29.882 18.411c.019-.02.032-.04.051-.066.032.091.145.032.177.105-.081.012-.156.026-.228-.039"/><path fill-rule="evenodd" fill="#60300d" d="m32.971 19.657c-.091 0-.176-.007-.267-.007-.018-.012-.03-.019-.023-.026.014-.012.02-.012.02-.012.094-.006.193-.026.27.045"/><path fill-rule="evenodd" fill="#5e290e" d="m33.28 16.574c-.091 0-.186.015-.264-.046.091 0 .196-.045.264.046"/><path fill-rule="evenodd" fill="#662610" d="m32.513 16.521c-.078.067-.167.059-.258.049.077-.087.167-.042.258-.049"/><path fill-rule="evenodd" fill="#7a3d11" d="m34.27 23.94c-.046-.057-.123-.107-.064-.196.098.042.058.127.064.196"/><path fill-rule="evenodd" fill="#4a1a0c" d="m30.386 23.786c.078 0 .175-.033.169.107-.078.001-.131-.048-.169-.107"/><path fill-rule="evenodd" fill="#b70e24" d="m32.759 22.637c.085 0 .175 0 .264 0-.089.064-.179.064-.264 0"/><path fill-rule="evenodd" fill="#70530c" d="m33.23 17.31c0 .018 0 .026-.009.042-.023.007-.063.011-.09.011-.064 0-.129-.004-.188-.011.092-.042.189-.046.287-.042"/><path fill-rule="evenodd" fill="#64290f" d="m32.505 17.327c0 0-.014.024-.014.035-.083-.011-.172.027-.236-.053.081-.009.167-.009.25.018"/><path fill-rule="evenodd" fill="#713b0f" d="m33.23 19.709c-.091 0-.189.032-.265-.052.092-.007.188-.012.265.052"/><path fill-rule="evenodd" fill="#863c13" d="m33.909 24.19c0 0 0-.026-.008-.046 0-.064 0-.137-.005-.203.11.081.083.166.013.249"/><path fill-rule="evenodd" fill="#a00f1f" d="m32.966 22c0-.011.005-.022.005-.044.097-.011.195-.064.264.044-.088 0-.178 0-.269 0"/><path fill-rule="evenodd" fill="#864212" d="m32.753 22.942c.006-.016.006-.026.01-.046.085 0 .176 0 .26 0-.085.069-.175.05-.27.046"/><path fill-rule="evenodd" fill="#5d470a" d="m32.499 18.293c0 .04 0 .084 0 .124-.077-.006-.14-.006-.212-.014.072-.038.14-.07.212-.11"/><path fill-rule="evenodd" fill="#794110" d="m32.7 18.609c.076-.021.153-.021.218.056-.083.009-.159.009-.218-.056"/><path fill-rule="evenodd" fill="#682810" d="m34.567 21.43c.13.083.096.175.019.266-.006-.092-.014-.175-.019-.266"/><path fill-rule="evenodd" fill="#53260c" d="m30.25 21.532c0-.012.008-.026.008-.026.01-.032.023-.052.036-.07.026 0 .046 0 .07-.006.059.147-.056.096-.114.102"/><path fill-rule="evenodd" fill="#702612" d="m32.44 19.65c-.081 0-.167 0-.252 0 .079-.064.171-.052.262-.044.03.018.03.033-.01.044"/><path fill-rule="evenodd" fill="#4f280b" d="m30.78 17.261c-.021-.084.006-.143.091-.175.006.077-.026.135-.091.175"/><path fill-rule="evenodd" fill="#5b3d0b" d="m34.953 18.824c-.091.091-.186.063-.282 0 .091 0 .187 0 .282 0"/><path fill-rule="evenodd" fill="#331e06" d="m33.778 24.415c.078-.112.149.026.228.006-.078.053-.155.013-.228-.006"/><path fill-rule="evenodd" fill="#7a490f" d="m33.02 22.63c.014-.033.024-.064.046-.097.037.005.104-.004.085.059-.016.058-.085.032-.131.038"/><path fill-rule="evenodd" fill="#6d4f0c" d="m32.44 19.65c0-.012.01-.026.01-.044.081.006.165.006.254.006 0 0 0 .026 0 .038-.089 0-.173 0-.264 0"/><path fill-rule="evenodd" fill="#61440a" d="m32.33 21.23c.004.035.004.079.014.115-.072-.006-.145-.014-.222-.014.053-.08.155-.038.208-.101"/><path fill-rule="evenodd" fill="#5e230f" d="m31.06 18.72c.012-.04.021-.072.03-.103.064 0 .131 0 .195 0-.077.038-.149.063-.225.103"/><path fill-rule="evenodd" fill="#b19d10" d="m34.433 14.965c.085 0 .167 0 .258.006-.091.058-.173.053-.258-.006"/><path fill-rule="evenodd" fill="#b19d10" d="m29.366 14.971c.082-.006.173-.006.258-.006-.085.059-.176.064-.258.006"/><path fill-rule="evenodd" fill="#1658a1" d="m30.2 17.874c0-.015 0-.026-.01-.037.061-.175.15-.124.247-.042.019.049.013.099-.014.144-.064.133.112.364-.161.414-.026-.165-.043-.318-.062-.479"/><path fill-rule="evenodd" fill="#d52417" d="m30.418 17.827c-.077-.09-.155-.097-.228.01-.063-.035-.057-.11-.081-.169 0-.026-.014-.054-.014-.07.02-.079.072-.085.137-.079.057 0 .108-.006.167.013.137.014.228.052.123.206v.027c.014.094-.04.094-.104.062"/><path fill-rule="evenodd" fill="#6a5e09" d="m30.522 17.737c-.008-.069 0-.16-.11-.166-.026-.026-.021-.053.006-.072.097-.076.163.057.25.04-.032.083-.032.188-.146.198"/><path fill-rule="evenodd" fill="#75680a" d="m32.759 18.15c.059.022.115.041.207.083-.145.022-.262.022-.37-.009.014-.096.104-.09.163-.122.036.022.036.033 0 .048"/><path fill-rule="evenodd" fill="#574d08" d="m32.759 18.15c0-.016.004-.032.004-.032.137-.016.278-.08.407.024-.135.001-.276.008-.411.008"/><path fill-rule="evenodd" fill="#89790c" d="m33.599 18.397c-.02 0-.042.006-.059.006-.07-.059-.161-.097-.161-.215.097.054.168.119.22.209"/><path fill-rule="evenodd" fill="#4e4507" d="m30.418 17.827c.046-.006.086-.025.104-.063.064.109-.026.129-.099.174.001-.039-.005-.072-.005-.111"/><path fill-rule="evenodd" fill="#4a3708" d="m34.22 17.918c-.035.021-.077.04-.107.059-.046-.006-.123-.059-.099-.077.056-.041.141-.046.206.018"/><path fill-rule="evenodd" fill="#5c5208" d="m31.09 18.617c-.089-.091-.049-.182 0-.278 0 .091 0 .182 0 .278"/><path fill-rule="evenodd" fill="#816b0c" d="m30.728 20.452c0 .013 0 .026-.006.034-.02.057-.03.115-.054.17-.041 0-.081-.009-.113-.036-.123-.059-.254-.026-.375-.031.103-.11.292-.16.238-.374-.006-.048.078-.099.143-.059.04.019.026.064 0 .083-.078.05-.137.121-.07.205.064.091.155 0 .237.008"/><path fill-rule="evenodd" fill="#0a53ad" d="m30.25 20.905c0-.033 0-.066 0-.104.108-.091.193-.058.258.053-.013.091-.032.188-.037.278-.016.078-.021.154-.131.141-.014-.032-.032-.055-.046-.089-.053-.083.014-.181-.044-.266v-.013"/><path fill-rule="evenodd" fill="#684218" d="m29.22 21.635c-.014 0-.032.009-.046.009-.006-.131-.091-.117-.176-.107.021-.036.04-.068.053-.101.149-.014.278-.006.169.199"/><path fill-rule="evenodd" fill="#f3d816" d="m30.555 20.62c.046-.026.076.014.113.036-.005.068-.041.118-.1.15-.091-.059-.021-.123-.013-.186"/><path fill-rule="evenodd" fill="#685c09" d="m32.753 21.17c-.123 0-.24 0-.363.01.045-.091.134-.104.214-.131.058.04.172-.006.149.121"/><path fill-rule="evenodd" fill="#dcc314" d="m32.753 21.17c-.053-.036-.099-.075-.149-.121.019-.006.038-.019.059-.026.074.053.173-.012.25.047.006.02.006.033.014.052-.06.018-.118.031-.174.048"/><path fill-rule="evenodd" fill="#776a0b" d="m32.912 21.07c-.085-.017-.182.025-.25-.047.083.001.182-.038.25.047"/><path fill-rule="evenodd" fill="#285c96" d="m30.708 23.562c0-.047 0-.091 0-.144.052-.077.104-.026.155 0 .008.032.014.072.02.104-.044.104.026.246-.108.318-.112-.071-.041-.181-.067-.278"/><path fill-rule="evenodd" fill="#7c6e0b" d="m32.759 23.68c-.163-.034-.305.097-.468.044.144-.135.299-.124.468-.044"/><path fill-rule="evenodd" fill="#a3910f" d="m33.02 23.876c-.02 0-.046.008-.07.018-.066-.061-.135-.117-.144-.214.091.044.158.115.214.196"/><path fill-rule="evenodd" fill="#b7a210" d="m31.28 23.968c-.059-.059-.051-.101.008-.161.038.06.038.109-.008.161"/><path fill-rule="evenodd" fill="#dcc619" d="m30.25 20.918c.096.078.031.183.044.266-.017 0-.032-.006-.044-.016 0-.081 0-.165 0-.25"/><path fill-rule="evenodd" fill="#6e610a" d="m30.26 17.55c-.057.014-.115.027-.167.048-.026-.026-.053-.048-.071-.066.218-.173.218-.226.005-.401.189-.025.222-.012.222.144.008.078-.045.149.008.226.004.008.01.02.01.02-.007.024-.007.029-.007.029"/><path fill-rule="evenodd" fill="#6b5f09" d="m30.359 17.306c-.032-.149.014-.228.188-.201 0 .104-.147.104-.147.201-.014.03-.027.03-.041 0"/><path fill-rule="evenodd" fill="#5a5008" d="m30.359 17.306c0 0 .026 0 .04 0 .006.063.013.127.019.193 0 .02-.006.046-.006.072-.053-.008-.104-.016-.149-.021 0-.019-.004-.031-.004-.051.095-.026.1-.109.1-.193"/><path fill-rule="evenodd" fill="#a4910e" d="m30.28 20.37c-.06-.064-.122-.117-.163-.176-.018-.032.041-.07.068-.059.063.026.146.059.153.144.007.027-.031.052-.058.091"/><path fill-rule="evenodd" fill="#9e8c0e" d="m30.728 23.05c-.036-.045-.114-.053-.127-.149.117.059.226.006.349 0-.04.131-.143.131-.228.149h.006"/></g></g></switch></svg>