<svg xmlns="http://www.w3.org/2000/svg" viewBox="0 0 64 64" enable-background="new 0 0 64 64"><switch><g><path fill="#27aae1" d="m54 10h-44c-6.627 0-10 4.925-10 11v11h64v-11c0-6.075-3.373-11-10-11"/><path fill="#128807" d="m0 43c0 6.075 3.373 11 10 11h44c6.627 0 10-4.925 10-11v-1h-64v1"/><g><path fill-rule="evenodd" fill="#e4bd01" d="m49.77 17.48c-.352-1.72-.703-3.436-1.054-5.151-.009-.045-.014-.089-.021-.132.014-.014.027-.014.036.002.556 1.683 1.114 3.365 1.671 5.05.009-.003.02-.005.033-.005.105-1.745.208-3.49.314-5.238.009-.026.02-.026.031 0 .053.815.103 1.627.153 2.441.056.916.107 1.83.161 2.745.018.005.033.01.049.012.537-1.615 1.076-3.23 1.611-4.847.074 0 .049.038.035.076-.172.862-.347 1.723-.525 2.585-.158.771-.324 1.544-.484 2.313-.038.056.02.136-.045.183-.082.051-.162.024-.24.002-.492-.151-.98-.138-1.473 0-.064.018-.134.04-.205.011-.018-.009-.037-.025-.047-.045"/><path fill-rule="evenodd" fill="#e4bd01" d="m48.622 21.493c-1.468.738-2.932 1.478-4.395 2.213-.052.026-.106.049-.159.071-.043.021-.045-.002-.038-.036 1.412-.931 2.823-1.86 4.237-2.792.002-.071-.039-.051-.079-.035-1.161.238-2.322.479-3.487.713-.546.114-1.094.223-1.641.334-.008-.009-.013-.018-.006-.022.004-.009.006-.011.006-.011 1.651-.546 3.304-1.092 4.951-1.638.043-.014.088-.022.13-.031.063-.031.094.016.136.049.068.089.078.199.109.302.063.211.152.405.269.589.04.063.08.13.076.21-.008.064-.058.077-.109.084"/><path fill-rule="evenodd" fill="#e4bd01" d="m53.29 18.88c.864-.183 1.73-.365 2.596-.544.716-.149 1.433-.295 2.147-.443.063-.013.125-.02.189-.028.045-.019.051.004.045.04-1.553.515-3.102 1.031-4.654 1.548-.044.014-.086.029-.129.043-.024.042.014.051.038.066 1.646.096 3.289.189 4.937.283.08.058.201-.056.266.064-1.627.094-3.253.186-4.879.28-.063.002-.128.002-.192 0-.106.031-.211.011-.318.016-.08-.045-.089-.124-.087-.197.011-.309-.031-.608-.118-.906-.016-.053-.021-.112.009-.168.03-.068.101-.032.15-.054"/><path fill-rule="evenodd" fill="#e4bd01" d="m44.11 16.01c.852.426 1.706.85 2.56 1.277.614.307 1.226.615 1.839.922.045.022.088.056.144.038.054-.026.103-.047.139.024-.107.257-.206.52-.431.702-.063.007-.113-.011-.144-.073-.011-.033.034-.063.011-.101-1.319-.871-2.639-1.74-3.956-2.611-.07-.045-.138-.094-.206-.141-.006-.035-.001-.06.044-.037"/><path fill-rule="evenodd" fill="#e4bd01" d="m50.47 22.786c-.014-.087-.027-.172-.049-.3-.555 1.679-1.102 3.316-1.646 4.954-.034.007-.057.002-.036-.043.172-.859.346-1.72.522-2.58.16-.773.32-1.544.476-2.317.014-.063.069-.132.009-.196-.011-.024-.004-.046.016-.06.226-.073.411.086.623.108.072.005.126.054.148.13.027.112.058.224-.063.304"/><path fill-rule="evenodd" fill="#e4bd01" d="m52.4 22.04c.487.972.967 1.94 1.45 2.906.265.532.53 1.067.794 1.6.021.046-.005.048-.038.046-.923-1.401-1.85-2.805-2.773-4.207-.004-.009-.006-.022-.011-.035-.04-.016-.063-.043-.063-.089.161-.209.38-.328.632-.391.07.052.049.11.009.17"/><path fill-rule="evenodd" fill="#e4bd01" d="m53.33 20.19c.106 0 .214.002.32.004-.082.014-.162.024-.278.047 1.677.558 3.322 1.105 4.968 1.651.009.036.003.056-.04.038-1.105-.227-2.206-.452-3.311-.678-.555-.113-1.105-.225-1.659-.336-.069-.027-.121.061-.19.026-.018-.011-.028-.026-.037-.044.026-.253.04-.51.227-.708"/><path fill-rule="evenodd" fill="#e4bd01" d="m52.4 17.771c.456-.361.869-.761 1.306-1.142.827-.73 1.653-1.466 2.481-2.196.038-.012.049.004.043.04-1.105 1.248-2.213 2.497-3.32 3.743.035.058.026.111-.021.158-.024.014-.054.022-.073.007-.2-.17-.418-.328-.545-.57.026-.072.069-.087.129-.04"/><path fill-rule="evenodd" fill="#e4bd01" d="m48.77 18.254c-.038.002-.078.033-.114-.005-.944-1.064-1.889-2.13-2.833-3.195-.206-.231-.404-.463-.611-.692.018-.022.038-.022.059-.01 1.095.974 2.191 1.944 3.283 2.915.189.168.379.325.566.488.067-.019.092.02.107.073-.098.202-.223.372-.457.426"/><path fill-rule="evenodd" fill="#e4bd01" d="m51.783 22.268c.014.027.027.054.04.081-.078.038-.031.101-.022.147.322 1.57.647 3.137.973 4.707.009.052.016.104.02.154.021.04-.004.049-.039.045-.516-1.553-1.032-3.105-1.547-4.656-.016-.043-.031-.085-.047-.128-.02-.064-.098-.082-.12-.147-.005-.02 0-.04.009-.058.194-.125.421-.136.635-.19.035-.01.076.01.098.045"/><path fill-rule="evenodd" fill="#e4bd01" d="m49.2 17.835c-.026-.026-.051-.054-.078-.08.019-.078-.033-.134-.063-.196-.717-1.431-1.436-2.863-2.154-4.292-.022-.047-.04-.094-.063-.142-.022-.04.002-.04.033-.038.914 1.386 1.822 2.771 2.735 4.153.052.08.107.158.161.24.016.002.031.002.045.004.002.007.009.014.006.018-.074.144-.458.344-.622.333"/><path fill-rule="evenodd" fill="#e4bd01" d="m49.742 22.26c0 .015-.002.03-.002.044-.054.087-.103.177-.156.261-.902 1.368-1.804 2.736-2.706 4.102-.033.012-.054.007-.033-.035.755-1.506 1.508-3.01 2.264-4.518.002-.012.009-.025.011-.036.029-.049-.021-.104.019-.149.011-.016.026-.027.044-.033.228.058.439.143.559.364"/><path fill-rule="evenodd" fill="#e4bd01" d="m52.4 17.771c-.037.009-.075.016-.113.022-.203.02-.484-.144-.533-.309 0-.055-.008-.11.033-.155.002.024.002.052.011.116.962-1.458 1.908-2.891 2.852-4.322.033-.007.052-.002.035.035-.726 1.457-1.455 2.912-2.184 4.366-.041.081-.101.153-.101.247"/><path fill-rule="evenodd" fill="#e4bd01" d="m52.866 18.376c.011-.053.024-.106.038-.16.092.02.163-.027.236-.065 1.404-.705 2.808-1.409 4.216-2.111.044-.027.094-.041.141-.061.038-.024.035 0 .035.026-1.196.792-2.397 1.585-3.595 2.374-.22.145-.439.291-.66.434-.05.031-.072.057.013.067-.035.029-.075.031-.118.033-.163-.058-.324-.335-.306-.537"/><path fill-rule="evenodd" fill="#e4bd01" d="m52.4 22.04c-.028-.049-.007-.101 0-.154.012-.177.247-.418.451-.463.056.02.092.051.052.118.529.6 1.061 1.201 1.59 1.804.592.669 1.181 1.338 1.772 2.01.018.02.014.038-.007.054-.918-.81-1.833-1.62-2.751-2.432-.314-.282-.63-.564-.947-.844-.043-.041-.079-.106-.16-.09"/><path fill-rule="evenodd" fill="#e4bd01" d="m49.16 21.912c-.002.014-.004.026-.004.04-.005.047-.041.064-.078.085-1.195 1.059-2.387 2.121-3.582 3.182-.068.061-.136.116-.205.174-.037.012-.048-.002-.037-.038 1.094-1.228 2.189-2.458 3.277-3.693.037-.041.149-.067.087-.168.024-.024.051-.047.073-.069.181.03.438.299.469.487"/><path fill-rule="evenodd" fill="#e4bd01" d="m48.23 20.339c-.029-.026-.056-.054-.085-.08-.114-.078-.245-.054-.368-.063-1.609-.1-3.218-.193-4.824-.287.031-.114.135-.016.191-.064 1.621-.092 3.239-.188 4.86-.283.161-.087.237-.009.276.145.011.154-.008.313.02.47.012.063-.007.124-.07.162"/><path fill-rule="evenodd" fill="#e4bd01" d="m52.904 21.54c-.005-.047-.031-.073-.078-.083-.035-.172.145-.477.313-.536.016-.003.029-.003.045-.005.056-.031.08.002.106.04 1.396.925 2.798 1.848 4.195 2.768.052.036.105.071.165.111-.089.031-.143-.028-.198-.06-1.452-.723-2.9-1.449-4.352-2.177-.06-.031-.116-.082-.196-.058"/><path fill-rule="evenodd" fill="#e4bd01" d="m48.23 18.88c.041.026.081.054.122.08.096.216-.016.395-.105.58-.079.028-.146.004-.211-.045-1.545-.517-3.092-1.029-4.638-1.544-.049-.016-.096-.033-.145-.052-.003-.035.007-.054.047-.035.558.112 1.118.22 1.677.333 1.056.213 2.109.428 3.166.645.027.015.069-.002.087.038"/><path fill-rule="evenodd" fill="#e4bd01" d="m51.04 22.458c.011.002.022.002.033.004.054.029.038.074.022.121-.094 1.626-.189 3.255-.283 4.882-.005.096-.019.19-.029.287-.014.026-.024.024-.033-.005-.096-1.606-.191-3.218-.285-4.826-.004-.045 0-.093 0-.135.004-.111.007-.222.012-.331.162-.106.407-.106.563.003"/><path fill-rule="evenodd" fill="#6bae75" d="m58.725 19.909c-.089-.022-.176-.045-.266-.064.163-.029.321.016.482.064-.071 0-.145 0-.216 0"/><path fill-rule="evenodd" fill="#b1b632" d="m43.14 19.845c-.066.022-.129.042-.191.064-.064 0-.131 0-.193 0-.028-.009-.031-.021-.006-.033.127-.029.259-.04.39-.031"/><path fill-rule="evenodd" fill="#3ca8a4" d="m48.04 19.495c.064-.014.116.071.188.026.07.076.084.148-.027.202.036-.18-.096-.155-.198-.162.013-.021.025-.046.037-.066"/><path fill-rule="evenodd" fill="#a8b63b" d="m56.23 14.473c-.016-.014-.029-.027-.043-.04.038-.065.092-.114.186-.154-.025.098-.081.149-.143.194"/><path fill-rule="evenodd" fill="#b9b82b" d="m54.607 26.591c.014-.014.024-.029.038-.046.062.081.112.164.091.273-.043-.076-.086-.152-.129-.227"/><path fill-rule="evenodd" fill="#bab829" d="m58.27 17.904c-.014-.014-.029-.027-.045-.04.071-.04.146-.054.234-.014-.062.018-.127.034-.189.054"/><path fill-rule="evenodd" fill="#bcb828" d="m44.11 16.01c-.016.014-.031.027-.045.038-.076-.042-.153-.085-.247-.141.136-.02.211.047.292.103"/><path fill-rule="evenodd" fill="#adb636" d="m44.03 23.741c.013.014.026.025.038.036-.069.064-.158.096-.263.092.077-.043.152-.083.225-.128"/><path fill-rule="evenodd" fill="#b6b82d" d="m52.754 27.402c.013-.016.026-.031.039-.045.047.067.049.141.008.226-.016-.062-.031-.12-.047-.181"/><path fill-rule="evenodd" fill="#abb639" d="m45.27 14.352c-.021.003-.038.007-.059.01-.063-.038-.104-.097-.145-.158.014-.018.026-.02.045-.002.051.052.102.101.159.15"/><path fill-rule="evenodd" fill="#6dae74" d="m43.06 21.928c-.002.011-.005.022-.005.033-.049.052-.104.052-.183.016.072-.018.131-.036.188-.049"/><path fill-rule="evenodd" fill="#aab639" d="m54.679 13.158c-.013-.011-.024-.024-.035-.035.013-.04.024-.085.081-.097.025.061-.011.097-.046.132"/><path fill-rule="evenodd" fill="#a9b63a" d="m58.3 21.928c.014-.014.027-.024.04-.038.052.014.103.026.152.04.009.036.004.052-.036.036-.056-.003-.111.002-.156-.038"/><path fill-rule="evenodd" fill="#55ab8a" d="m56.57 25.687c-.082-.038-.129-.061-.138-.125.076-.007.094.048.138.125"/><path fill-rule="evenodd" fill="#acb637" d="m48.733 27.397c.011.016.024.029.036.043-.014.051-.027.103-.041.153-.013.016-.024.019-.037.003 0-.069-.004-.138.042-.199"/><path fill-rule="evenodd" fill="#a8b63b" d="m52.791 12.432c-.011-.024-.021-.049-.035-.076.014-.04.024-.082.033-.12.02-.016.035-.014.051 0-.01.069 0 .138-.049.196"/><path fill-rule="evenodd" fill="#a0b543" d="m46.873 13.09c-.011.014-.021.027-.033.038-.042-.038-.066-.083-.071-.154.067.02.083.071.104.116"/><path fill-rule="evenodd" fill="#44a99b" d="m53.52 19.562c-.045.005-.104.031-.125-.021-.009-.029.049-.05.087-.045.012.022.025.044.038.066"/><path fill-rule="evenodd" fill="#6faf71" d="m42.75 19.876c.004.011.006.022.006.033-.058 0-.113 0-.188 0 .068-.049.123-.042.182-.033"/><path fill-rule="evenodd" fill="#9db445" d="m43.14 17.866c-.053-.014-.102-.026-.15-.04-.014-.005-.021-.014-.019-.022.005-.007.007-.014.007-.014.061 0 .118-.011.162.034.029.013.029.029 0 .042"/><path fill-rule="evenodd" fill="#5bac85" d="m58.52 17.817c.024-.061.071-.065.132-.059-.033.055-.073.068-.132.059"/><path fill-rule="evenodd" fill="#a1b541" d="m50.781 12h-.016-.015c-.01-.066-.016-.132.013-.205.029.071.034.136.018.205"/><path fill-rule="evenodd" fill="#dcbc09" d="m57.53 16c-.011-.009-.024-.018-.035-.026.04-.038.085-.067.147-.067-.018.06-.067.073-.112.093"/><path fill-rule="evenodd" fill="#a3b540" d="m45.26 25.354c.014.012.028.024.037.038-.025.043-.057.083-.129.087.005-.066.047-.095.092-.125"/><path fill-rule="evenodd" fill="#c2b922" d="m56.26 25.404c.002-.019.007-.038.007-.054.047.035.107.064.104.146-.059-.012-.087-.048-.111-.092"/><path fill-rule="evenodd" fill="#a2b541" d="m46.845 26.631c.011.014.022.024.033.035-.014.043-.024.085-.078.097-.025-.061.009-.097.045-.132"/><path fill-rule="evenodd" fill="#79b068" d="m48.731 12.199c-.012 0-.022-.002-.036-.002-.045-.035-.04-.082-.031-.144.052.049.067.093.067.146"/><path fill-rule="evenodd" fill="#68ae79" d="m45.11 14.201c-.016 0-.031.002-.045.002-.047-.013-.064-.049-.086-.098.073.016.106.049.131.096"/><path fill-rule="evenodd" fill="#66ad7a" d="m58.46 21.966c.012-.012.024-.024.036-.036.04.012.082.024.16.049-.093.034-.144.022-.196-.013"/><path fill-rule="evenodd" fill="#53ab8c" d="m42.985 17.79c0 .014.002.024.005.036-.041-.016-.083-.029-.133-.047.057-.04.097-.029.128.011"/><path fill-rule="evenodd" fill="#27a5b7" d="m48.23 18.88c-.029-.014-.058-.024-.087-.038.029-.014.056-.026.084-.04.033.011.073.018.07.064-.001.005-.043.009-.067.014"/><path fill-rule="evenodd" fill="#96b34c" d="m52.84 12.235c-.016 0-.031 0-.051 0 .014-.049.03-.099.043-.149.008-.021.021-.021.034-.008.002.057.011.112-.026.157"/><path fill-rule="evenodd" fill="#d2bb13" d="m43.14 17.866c0-.016 0-.029 0-.042.056.006.113 0 .163.04-.016.011-.031.022-.047.035-.038-.01-.076-.022-.116-.033"/><path fill-rule="evenodd" fill="#4caa93" d="m52.866 12.08c-.011.002-.022.004-.034.008.014-.041.029-.082.045-.131.043.059.029.094-.011.123"/><path fill-rule="evenodd" fill="#3ca8a4" d="m51.1 22.583c-.007-.043-.016-.083-.022-.121.061.031.085.09.087.156-.02-.011-.043-.024-.065-.035"/><path fill-rule="evenodd" fill="#44a99b" d="m53.29 20.956c-.038-.011-.071-.026-.106-.04.049-.066.1-.031.149-.002-.014.016-.029.031-.043.042"/><path fill-rule="evenodd" fill="#5aac87" d="m48.19 20.914c.045-.029.1-.059.14-.018.018.018-.031.044-.061.053-.026-.011-.052-.021-.079-.035"/><path fill-rule="evenodd" fill="#5bac85" d="m49.08 22.04c.026-.029.051-.059.078-.085.028.054 0 .092-.041.125-.011-.015-.024-.026-.037-.04"/><path fill-rule="evenodd" fill="#00a0dd" d="m48.2 19.724c.044-.063.044-.131.027-.202.004-.194.09-.373.129-.562.115-.247.251-.485.414-.706.143-.139.285-.279.428-.419.207-.118.414-.234.617-.351.644-.233 1.288-.209 1.934 0 .178.103.356.205.533.309.212.18.41.371.585.583.101.181.203.356.306.537.127.414.194.838.161 1.274-.043.247-.114.491-.194.733-.107.179-.21.358-.313.536-.143.144-.283.286-.425.428-.205.128-.41.257-.618.383-.244.065-.496.128-.743.19-.188 0-.376-.003-.563-.003-.252-.053-.495-.113-.734-.195-.193-.115-.385-.231-.578-.348-.156-.164-.313-.325-.469-.488-.227-.331-.385-.69-.469-1.085-.02-.202-.047-.408-.028-.614"/><path fill-rule="evenodd" fill="#e4bd01" d="m50.774 17.561c1.286 0 2.324 1.043 2.321 2.328 0 1.282-1.056 2.334-2.333 2.329-1.28-.005-2.329-1.059-2.327-2.335.003-1.282 1.049-2.324 2.339-2.322"/></g><path fill="#f9cb38" d="m0 30h64v12h-64z"/></g></switch></svg>