<svg xmlns="http://www.w3.org/2000/svg" viewBox="0 0 64 64" enable-background="new 0 0 64 64"><switch><g><path fill="#2b3990" d="M0,21v11h32V10H10C3.373,10,0,14.925,0,21z"/><path fill="#ec1c24" d="m54 10h-22v22h-32v11c0 6.075 3.373 11 10 11h44c6.627 0 10-4.925 10-11v-22c0-6.075-3.373-11-10-11"/><g><path fill-rule="evenodd" fill="#fefefe" d="m16.08 25.08c-2.239-.004-4.04-1.818-4.03-4.064.007-2.231 1.828-4.03 4.074-4.03 2.229.004 4.03 1.84 4.02 4.083-.009 2.22-1.831 4.02-4.06 4.01"/><path fill-rule="evenodd" fill="#fefefe" d="m14.591 16.691c-.528.192-1.075.491-1.575.939-.316-1.176-.625-2.323-.919-3.42.817.815 1.658 1.653 2.494 2.481"/><path fill-rule="evenodd" fill="#fefefe" d="m19.17 17.631c-.495-.448-1.047-.747-1.619-.953.847-.843 1.687-1.678 2.558-2.544-.313 1.174-.623 2.321-.939 3.497"/><path fill-rule="evenodd" fill="#fefefe" d="m9.176 25.05c.868-.878 1.709-1.724 2.556-2.58.207.589.513 1.131.956 1.636-1.181.316-2.334.623-3.512.944"/><path fill-rule="evenodd" fill="#fefefe" d="m19.503 24.11c.437-.502.746-1.037.947-1.619.832.845 1.662 1.687 2.513 2.549-1.146-.308-2.289-.614-3.46-.93"/><path fill-rule="evenodd" fill="#fefefe" d="m15.13 16.535c.317-1.186.624-2.341.933-3.495.019 0 .034 0 .054 0 .308 1.154.614 2.31.932 3.495-.644-.108-1.269-.108-1.919 0"/><path fill-rule="evenodd" fill="#fefefe" d="m16.06 29.02c-.308-1.154-.615-2.312-.932-3.5.646.137 1.271.135 1.925 0-.319 1.188-.622 2.343-.935 3.497-.018.001-.036.001-.058.003"/><path fill-rule="evenodd" fill="#fefefe" d="m24.11 21.05c-1.159.31-2.32.62-3.516.938.112-.637.126-1.264-.007-1.921 1.198.319 2.358.627 3.522.938.001.014.001.031.001.045"/><path fill-rule="evenodd" fill="#fefefe" d="m11.603 20.07c-.128.655-.127 1.277-.004 1.925-1.193-.321-2.352-.629-3.509-.937-.007-.017-.01-.031-.012-.047 1.164-.309 2.327-.621 3.525-.941"/><path fill-rule="evenodd" fill="#fefefe" d="m14.605 25.375c-.853.848-1.707 1.702-2.52 2.514.297-1.096.61-2.26.93-3.447.496.433 1.029.744 1.59.933"/><path fill-rule="evenodd" fill="#fefefe" d="m17.555 25.385c.592-.199 1.122-.514 1.617-.948.32 1.186.629 2.34.938 3.487-.851-.847-1.701-1.693-2.555-2.539"/><path fill-rule="evenodd" fill="#fefefe" d="m20.453 19.588c-.207-.599-.512-1.131-.95-1.634 1.188-.318 2.345-.631 3.513-.945-.86.865-1.706 1.72-2.563 2.579"/><path fill-rule="evenodd" fill="#fefefe" d="m9.11 16.995c1.201.323 2.372.636 3.577.959-.439.503-.752 1.042-.972 1.686-.868-.885-1.718-1.744-2.605-2.645"/></g></g></switch></svg>