<svg xmlns="http://www.w3.org/2000/svg" enable-background="new 0 0 64 64" viewBox="0 0 64 64"><path d="m64 56.95c0 3.803-3.079 6.883-6.883 6.883h-50.07c-3.798 0-6.88-3.08-6.88-6.883v-50.07c-.001-3.797 3.082-6.88 6.88-6.88h50.07c3.804 0 6.883 3.083 6.883 6.88v50.07" fill="#152228"/><g fill="#fff"><path d="m10.558 11.653c1.418 0 1.418-2.201 0-2.201-1.419 0-1.419 2.201 0 2.201"/><path d="m11.875 17.954c1.418 0 1.418-2.201 0-2.201s-1.417 2.201 0 2.201"/><path d="m22.722 16.486c1.414 0 1.414-2.195 0-2.195-1.42 0-1.42 2.195 0 2.195"/><path d="m32.535 11.357c1.418 0 1.418-2.195 0-2.195-1.42 0-1.42 2.195 0 2.195"/><path d="m51.881 11.213c1.416 0 1.416-2.197 0-2.197-1.42 0-1.42 2.197 0 2.197"/><path d="m41.914 14.729c1.42 0 1.42-2.199 0-2.199-1.418 0-1.418 2.199 0 2.199"/><path d="m25.07 7.695c1.414 0 1.414-2.195 0-2.195-1.418 0-1.418 2.195 0 2.195"/><path d="m18.47 10.773c1.418 0 1.418-2.201 0-2.201s-1.418 2.201 0 2.201"/><path d="m17.737 17.514c1.42 0 1.42-2.201 0-2.201-1.418 0-1.418 2.201 0 2.201"/><path d="m10.265 25.278c1.418 0 1.418-2.197 0-2.197s-1.418 2.197 0 2.197"/><path d="m31.951 17.07c1.42 0 1.42-2.199 0-2.199-1.418 0-1.418 2.199 0 2.199"/><path d="m7.186 44.913c1.418 0 1.418-2.197 0-2.197-1.416 0-1.416 2.197 0 2.197"/><path d="m45.727 9.02c1.414 0 1.414-2.199 0-2.199-1.418 0-1.418 2.199 0 2.199"/><path d="m57.15 32.17c1.418 0 1.418-2.199 0-2.199s-1.418 2.199 0 2.199"/><path d="m51.44 44.48c1.418 0 1.418-2.201 0-2.201s-1.418 2.201 0 2.201"/><path d="m39.716 50.628c1.418 0 1.418-2.197 0-2.197s-1.418 2.197 0 2.197"/><path d="m10.409 50.19c1.419 0 1.419-2.193 0-2.193-1.414 0-1.414 2.193 0 2.193"/><path d="m10.996 53.996c1.42 0 1.42-2.196 0-2.196-1.418 0-1.418 2.196 0 2.196"/><path d="m27.996 51.06c1.419 0 1.419-2.196 0-2.196-1.418 0-1.418 2.196 0 2.196"/><path d="m32.975 56.927c1.418 0 1.418-2.197 0-2.197-1.414 0-1.414 2.197 0 2.197"/><path d="m47.04 56.785c1.418 0 1.418-2.201 0-2.201s-1.418 2.201 0 2.201"/><path d="m45.87 44.913c1.42 0 1.42-2.197 0-2.197-1.418 0-1.418 2.197 0 2.197"/><path d="m55.54 41.25c1.418 0 1.418-2.197 0-2.197s-1.418 2.197 0 2.197"/><path d="m17.883 56.2c1.416 0 1.416-2.201 0-2.201-1.416 0-1.416 2.201 0 2.201"/></g><path d="m34.636 16.8l-17.795 7.51-6.367 9.98 1.586 11.72 10.492 1.861 9.415-.611 7.482-2.03 6.366-2.88 6.685-4.98 3.82-5.28 1.389-8.526-6.05-5.228-8.266-2.027z" fill="#152228"/><g fill="#45a7dd"><path d="m27.313 16.898c-14.591 4.637-24.28 15.12-21.646 23.412 2.631 8.29 16.597 11.26 31.19 6.622 14.59-4.639 24.284-15.12 21.647-23.408-2.634-8.294-16.594-11.26-31.19-6.626m10.927 27.913c-12.04 3.825-23.564 1.38-25.741-5.463-2.171-6.846 5.825-15.496 17.869-19.323 12.04-3.824 23.564-1.375 25.742 5.471 2.174 6.84-5.826 15.488-17.87 19.315"/><path d="m38.08 42.716c10.523-3.345 17.517-10.908 15.619-16.896-1.901-5.981-11.979-8.121-22.505-4.776-10.527 3.347-17.522 10.906-15.621 16.889 1.904 5.986 11.973 8.124 22.507 4.783m-7.89-20.14c8.69-2.761 17-.996 18.573 3.944 1.571 4.94-4.197 11.18-12.888 13.941-8.691 2.757-17.01.994-18.573-3.945-1.571-4.939 4.203-11.179 12.888-13.94"/><path d="m29.756 24.58c-6.77 2.151-11.271 7.02-10.04 10.862 1.219 3.847 7.699 5.227 14.467 3.074 6.772-2.151 11.269-7.02 10.04-10.862-1.221-3.847-7.7-5.222-14.468-3.074m5.068 12.954c-5.588 1.771-10.935.636-11.942-2.54-1.01-3.175 2.704-7.186 8.289-8.963 5.586-1.777 10.933-.637 11.945 2.538 1.01 3.176-2.705 7.187-8.292 8.965"/><path d="m34.675 36.08c4.403-1.398 7.336-4.565 6.537-7.07-.797-2.502-5.01-3.402-9.418-2-4.407 1.398-7.336 4.565-6.543 7.07.798 2.508 5.02 3.401 9.424 1.999m-3.303-8.429c3.638-1.156 7.12-.418 7.78 1.653.652 2.066-1.765 4.677-5.399 5.833-3.639 1.155-7.119.418-7.776-1.653-.658-2.066 1.76-4.681 5.395-5.833"/></g><path d="m34.764 30.695c-.267-.84-1.685-1.14-3.164-.67-.144.047-.284.095-.414.152l-.004.004c-.221.093-.432.201-.625.317l-.004.004c-.169.106-.326.223-.467.343-.158.138-.29.278-.402.424v.004c-.278.375-.391.769-.278 1.128.267.838 1.684 1.14 3.163.668 1.477-.466 2.46-1.529 2.195-2.374" fill="#fff"/></svg>