<svg xmlns="http://www.w3.org/2000/svg" viewBox="0 0 64 64" enable-background="new 0 0 64 64"><path fill="#f2abb9" d="m59.971 25.943c0 0-4.058-3.08-3.442-9.269.623-6.195-4-6.03-4-6.03l-11.587 8.691c2.306-6.287 5.03-15.02 3.413-17.537-2.612-4.057-8.664 0-8.664 0s-4.376 2.611-9.886-.286c-5.503-2.897-7.088 1.446-7.088 1.446l4.265 16.12c-5.092-4.04-11.653-8.664-14.347-8-4.687 1.15-2.81 8.193-2.81 8.193s1.046 4.984-3.479 9.253c-4.526 4.272-.929 7.177-.929 7.177l13.826.987c-4.908 4.25-10.629 9.813-10.48 12.576.261 4.813 7.533 4.28 7.533 4.28s5.092-.104 8.45 5.134c3.35 5.24 6.881 2.245 6.881 2.245l4.847-18.365c1.501 5.968 5.141 18.977 8.585 20.33 4.495 1.765 7.03-5.07 7.03-5.07s2.029-4.673 8.188-5.547c6.16-.869 4.9-5.32 4.9-5.32l-11.855-9.729c5.987-.364 12.482-1.229 13.906-3.252 2.787-3.939-3.249-8.03-3.249-8.03"/><g fill="#d293a0"><path d="m32.32 43.11c0 0 9.804 14.831 20.05 10.403 0 0-4.138 2.346-4.294 4.305 0 0-2.33 5.46-5.436 5.36 0 0-2.323.123-3.694-2.408-1.366-2.527-4.847-11.692-6.63-17.66"/><path d="m20.417 53.968c0 0-7.272.538-7.533-4.279-.147-2.765 5.568-8.326 10.474-12.572l-13.82-.991c0 0-3.603-2.907.926-7.176 4.528-4.269 3.481-9.255 3.481-9.255s-1.111-4.185.537-6.628c-2.438-1.426-4.581-2.3-5.852-1.989-4.687 1.15-2.81 8.193-2.81 8.193s1.046 4.984-3.479 9.253c-4.525 4.271-.928 7.176-.928 7.176l13.826.987c-4.908 4.25-10.629 9.813-10.48 12.576.261 4.813 7.533 4.28 7.533 4.28s5.092-.104 8.45 5.134c3.35 5.24 6.881 2.245 6.881 2.245l.686-2.606c-3.331-4.433-7.892-4.348-7.892-4.348"/><path d="m31.1 19.508l-4.264-16.12c0 0 .202-.553.711-1.128-.568-.194-1.15-.435-1.748-.747-5.503-2.897-7.088 1.446-7.088 1.446l2.598 9.808c2.994 1.564 6.673 4.254 9.791 6.737"/></g><path fill="#ffcb4d" d="m40.751 29.709c0 4.971-4.03 8.998-8.998 8.998-4.973 0-9-4.03-9-8.998 0-4.97 4.03-9 9-9 4.971 0 8.998 4.03 8.998 9"/><g fill="#e75a6f"><path d="m51.842 29.14c-.834-.553-1.663-1.109-2.46-1.707-1.351-1.017-3.75-.188-4.741 1.16-.514.7-.741 1.55-.611 2.333.143.893.662 1.407 1.361 1.936.788.602 1.62 1.16 2.447 1.712 1.422.942 3.71.247 4.749-1.163 1.14-1.546.678-3.327-.745-4.271"/><path d="m46.664 17.399c-.933.361-1.863.711-2.813 1.01-1.62.509-2.333 2.946-1.812 4.531.272.829.835 1.511 1.546 1.861.81.394 1.53.276 2.369.001.948-.296 1.881-.646 2.813-1 1.591-.613 2.354-2.878 1.806-4.542-.595-1.824-2.314-2.48-3.909-1.87"/><path d="m35.27 11.334c-.38.927-.771 1.846-1.199 2.745-.74 1.524.537 3.717 2.054 4.426.783.371 1.663.431 2.409.153.843-.315 1.246-.923 1.633-1.712.44-.894.824-1.811 1.204-2.733.65-1.575-.474-3.687-2.057-4.434-1.741-.82-3.398-.02-4.04 1.555"/><path d="m22.539 14.398c.507.864 1.01 1.728 1.456 2.612.764 1.51 3.288 1.822 4.769 1.052.774-.406 1.352-1.068 1.583-1.828.259-.862.02-1.554-.374-2.339-.445-.887-.95-1.751-1.448-2.615-.862-1.472-3.221-1.855-4.772-1.046-1.702.889-2.074 2.689-1.214 4.164"/><path d="m14.265 23.02c.843.539 1.677 1.082 2.484 1.663 1.368 1 3.756.129 4.722-1.232.505-.711.721-1.565.58-2.345-.165-.888-.686-1.391-1.399-1.91-.799-.592-1.638-1.134-2.477-1.673-1.434-.919-3.71-.182-4.722 1.244-1.116 1.563-.622 3.336.812 4.253"/><path d="m13.595 34.521c.987-.143 1.975-.271 2.966-.354 1.693-.133 2.931-2.349 2.778-4.01-.078-.87-.476-1.653-1.085-2.157-.706-.568-1.43-.613-2.312-.542-.983.078-1.977.211-2.964.351-1.687.237-2.937 2.281-2.774 4.02.174 1.914 1.698 2.941 3.391 2.698"/><path d="m19.212 43.475c.578-.819 1.16-1.629 1.785-2.404 1.062-1.316.313-3.74-.997-4.776-.684-.539-1.528-.796-2.318-.691-.896.119-1.422.611-1.975 1.299-.63.77-1.214 1.579-1.792 2.392-.985 1.388-.368 3.697 1 4.778 1.51 1.188 3.301.788 4.294-.598"/><path d="m29.457 47.24c.081-1 .165-1.994.308-2.976.241-1.679-1.647-3.382-3.301-3.599-.864-.108-1.718.1-2.345.594-.706.556-.907 1.254-1.037 2.125-.145.983-.227 1.981-.313 2.973-.137 1.698 1.577 3.371 3.311 3.593 1.903.253 3.239-1.01 3.377-2.71"/><path d="m41.2 45.27c-.459-.888-.909-1.78-1.309-2.689-.683-1.554-3.178-2.01-4.698-1.316-.796.36-1.413.987-1.689 1.731-.301.854-.109 1.55.241 2.359.399.912.851 1.802 1.303 2.689.776 1.517 3.115 2.033 4.706 1.312 1.75-.789 2.22-2.566 1.446-4.086"/><path d="m48.778 39.9c-.688-.734-1.36-1.465-1.991-2.235-1.075-1.307-3.603-1.062-4.882.016-.666.557-1.085 1.332-1.145 2.122-.064.903.31 1.524.87 2.202.631.773 1.307 1.509 1.982 2.239 1.16 1.244 3.551 1.106 4.887-.02 1.472-1.238 1.439-3.074.279-4.324"/></g><g fill="#fff"><path d="m30.07 41.02c.176-.854.353-1.707.572-2.557.374-1.45-.874-2.681-2.108-2.681-.647.006-1.325.282-1.852.767-.605.552-.84 1.169-1.033 1.92-.215.848-.399 1.702-.576 2.557-.302 1.455.819 2.68 2.116 2.674 1.423 0 2.583-1.224 2.881-2.68"/><path d="m23.21 38.09c.621-.617 1.248-1.219 1.9-1.807 1.121-.991.774-2.71-.253-3.396-.539-.36-1.256-.509-1.965-.399-.809.117-1.348.503-1.926 1.017-.656.582-1.283 1.189-1.904 1.801-1.06 1.036-.813 2.676.256 3.396 1.186.794 2.83.424 3.892-.612"/><path d="m20.656 32.27c.834-.26 1.669-.507 2.52-.73 1.45-.365 1.928-2.047 1.336-3.135-.31-.562-.877-1.021-1.56-1.252-.768-.267-1.426-.174-2.174.014-.851.217-1.689.468-2.52.725-1.42.435-1.959 2-1.34 3.134.689 1.249 2.32 1.679 3.738 1.244"/><path d="m20.44 25.658c.815.321 1.619.656 2.418 1.017 1.359.627 2.786-.38 3.01-1.595.105-.637-.042-1.348-.431-1.955-.431-.696-.995-1.037-1.697-1.356-.801-.37-1.614-.701-2.414-1.022-1.377-.559-2.778.325-3.01 1.599-.252 1.401.745 2.759 2.122 3.312"/><path d="m25.317 20.02c.343.799.676 1.61.978 2.433.514 1.403 2.238 1.708 3.252 1.01.533-.371.929-.978 1.097-1.677.186-.799.023-1.442-.245-2.167-.302-.825-.635-1.63-.972-2.433-.582-1.368-2.19-1.744-3.258-1.01-1.171.809-1.434 2.476-.852 3.844"/><path d="m32.75 18.391c-.231.84-.472 1.679-.75 2.514-.474 1.42.686 2.729 1.917 2.817.646.04 1.336-.188 1.9-.631.641-.509.917-1.111 1.163-1.841.278-.835.514-1.673.751-2.512.399-1.432-.627-2.729-1.914-2.819-1.423-.095-2.666 1.042-3.067 2.472"/><path d="m39.18 21.357c-.67.568-1.336 1.126-2.027 1.664-1.186.919-.954 2.651.018 3.407.514.4 1.215.592 1.93.537.813-.063 1.381-.41 1.992-.878.698-.539 1.364-1.101 2.026-1.669 1.128-.962 1-2.61-.02-3.405-1.127-.874-2.794-.622-3.919.344"/><path d="m43.43 27.562c-.874.016-1.748.016-2.621-.014-1.493-.055-2.434 1.42-2.167 2.625.141.631.554 1.234 1.136 1.647.666.474 1.324.574 2.091.604.88.034 1.753.029 2.623.02 1.485-.02 2.449-1.367 2.167-2.631-.302-1.391-1.745-2.265-3.229-2.251"/><path d="m37.411 39.546c-.341-.805-.672-1.614-.974-2.434-.514-1.406-2.235-1.718-3.259-1.017-.526.364-.926.978-1.089 1.68-.188.793-.031 1.436.231 2.16.302.829.637 1.635.976 2.434.572 1.371 2.188 1.748 3.254 1.017 1.171-.809 1.433-2.473.861-3.84"/><path d="m42.32 35.26c-.666-.568-1.328-1.141-1.965-1.738-1.091-1.026-2.769-.529-3.36.553-.313.568-.396 1.293-.227 1.988.191.796.621 1.299 1.184 1.832.641.602 1.303 1.17 1.963 1.737 1.132.962 2.74.578 3.361-.558.686-1.248.173-2.852-.956-3.814"/></g></svg>