<svg xmlns="http://www.w3.org/2000/svg" viewBox="0 0 64 64" enable-background="new 0 0 64 64"><path fill="#808285" d="m60.29 58.6c.63.705.288 2.031-.766 2.971-1.05.93-2.411 1.109-3.04.402l-21.916-24.725c-.625-.705-.283-2.031.768-2.963 1.054-.939 2.415-1.119 3.04-.408l21.914 24.723"/><path fill="#9d9ea4" d="m58.52 59.764c.628.701.564 1.785-.144 2.416-.709.627-1.788.561-2.415-.145l-21.917-24.726c-.625-.701-.561-1.785.143-2.408.711-.631 1.791-.568 2.418.145l21.915 24.718"/><path fill="#e6e6e6" d="m48.77 21.249c.899 12.09-8.513 22.644-21.03 23.576s-23.388-8.11-24.291-20.2c-.898-12.08 8.514-22.638 21.03-23.571 12.514-.934 23.388 8.11 24.29 20.19"/><path fill="#ff68b5" d="m43.06 25.687c.457-7.254-3.167-12.699-7.559-15.59-2.275-1.504-5.04-2.669-8.379-2.871-7.693-.473-13.1 3.979-15.582 9.05-1.298 2.633-2.043 6.106-1.203 9.717 1.453 6.312 6.84 10.529 13.24 10.299 3.768-.135 6.504-1.738 8.555-4.085 2.316-2.647 4.121-7.888 1.668-12.235-2.045-3.632-8.02-6.616-12.717-3.104-1.713 1.275-3.49 3.979-2.875 7.083.525 2.662 3.02 4.691 5.67 4.262 1.943-.31 3.121-1.592 3.01-3.801-.217-.076-.363.623-.647.937-.292.319-.772.639-1.265.768-2.855.755-4.326-1.821-3.723-4.289.48-1.992 2.537-3.467 5.02-3.244 2.561.225 4.627 2.159 5.2 4.583 1.075 4.551-2.364 9.02-7.04 9.708-5.094.741-9.18-2.605-10.527-6.71-1.262-3.849-.135-7.276 1.529-9.849 2.336-3.617 7.082-6.521 12.959-5.468 5.607 1 11.01 5.554 11.235 13.282.073 2.61-.37 4.428-1.179 6.421-1.438 3.552-3.844 6.575-7.85 8.636-3.949 2.02-9.464 2.316-13.424.883-3.703-1.33-6.867-3.734-8.956-7.02-2.323-3.617-3.474-8.474-2.616-13.319.707-3.984 2.626-7.766 5.246-10.629 2.484-2.721 6.738-5.322 11.1-6.22l2.498-.356c9.748-.174 16.92 4.02 20.731 11.433 2.095 4.083 3.103 9.37 2.368 14.12-.08.502-3.668 1.119-4.486-2.394"/></svg>