<svg xmlns="http://www.w3.org/2000/svg" viewBox="0 0 64 64" enable-background="new 0 0 64 64"><path fill="#e7e6e6" d="m31.891 46.26c17.615 0 31.895 3.846 31.895 8.588s-14.279 8.587-31.895 8.587c-17.611 0-31.891-3.845-31.891-8.587s14.28-8.588 31.891-8.588"/><ellipse fill="#bcbdbf" cx="31.895" cy="54.851" rx="25.512" ry="6.869"/><path fill="#e7e6e6" d="m58.3 28.65c0-9.28-11.819-2.983-26.41-2.983-14.595 0-26.415-6.297-26.415 2.983 0 9.271 11.819 27.543 26.414 27.543s26.411-18.272 26.411-27.543"/><path fill="#cfcfd0" d="m24.656 26.01c.078-.29.179-.512.276-.767-11.209-1.238-19.452-4.336-19.452 3.409 0 9.271 11.823 27.543 26.414 27.543 1.44 0 2.837-.222 4.215-.549-9.196-7.347-13.349-22.347-11.453-29.636"/><path fill="#bcbdbf" d="m58.15 27.679c0 5.682-11.754 10.291-26.25 10.291s-26.25-4.609-26.25-10.291c0-5.68 11.754-10.286 26.25-10.286s26.25 4.606 26.25 10.286"/><path fill="#04a69c" d="m31.895 19.19c14.14 0 25.601 4.203 25.601 9.387 0 5.186-11.461 9.39-25.601 9.39-14.13 0-25.597-4.204-25.597-9.39 0-5.184 11.461-9.387 25.597-9.387"/><path fill="#089083" d="m40.25 25.558c5.623.856 11.384 2.195 17.13 3.861.066-.276.112-.557.112-.841 0-5.184-11.461-9.387-25.597-9.387-12.944 0-23.616 3.526-25.332 8.101 10.139-4.448 26.434-2.839 33.689-1.734"/><g fill="#fff"><path d="m9.789 28.578c0 0 .697-5.314 12.248-6.02 0 0-8.313 4.264-8.224 6.855 0 .003-2.873 3.062-4.02-.838"/><path d="m54.729 30.577c0 0-.747 4.259-14.969 5.196 0 0 10.154-3.668 9.991-5.735 0 0 3.468-2.532 4.978.539"/><path d="m25.337 22.562c0 0 10.123-2.917 20.425 0l-3.211 1.018c0-.001-5.57-3.753-17.214-1.018"/></g><path fill="#405967" d="m27.04 36.899c-.276-.868-.981-2.188-2.079-2.052-1.078.135-1.443 1.897-1.63 2.725-.354 1.596-.304 3.336-.312 4.958-.008 1.935.121 3.869.284 5.796.066.755 1.257.763 1.191 0-.194-2.225-.308-4.449-.28-6.681.016-1.043.059-2.096.164-3.135.058-.596.214-1.168.413-1.729.354-1.031.926-.13 1.105.433.237.724 1.377.415 1.144-.315"/><path fill="#be1e2d" d="m23.16 56.46c-.899 1.366-2.915 1.635-4.491.592-1.584-1.039-2.137-2.995-1.234-4.363l4.394-4.787c.903-1.366 1.623-1.555 3.203-.514 1.58 1.041 1.529 1.394.63 2.762l-2.502 6.31"/><path fill="#e6e7e8" d="m44.772 18.247c-2.817-3.656-7.53-4.415-11.531-6.249-.382-.222-.728-.463-1.016-.731-.872-.806-1.261-1.858-.755-3.363.452-1.825 5.01-3.04 2.651-5.651-.199-.229-.444-.424-.725-.599-.824-.516-1.922-.823-2.868-1.182-.377-.141-.735-.295-1.039-.472 1.37 6.992-8.356 6.383-12.609 8.879-.576.235-1.082.486-1.499.737-4.554 2.713 2.125 5.278 9.247 6.655.467.103.938.207 1.409.312l.65.146c.331.072.661.148.992.222.335.076.666.152.996.229 1.273.45 2.639.45 3.732.983.447.16.868.331 1.253.504.503.226.931.45 1.27.666.369.233.642.456.836.687 1.413 1.512-2.428 3.059-5.44 4.09l-.043.014c-.688.269-1.191.477-1.638.677-1.899.856-2.674 1.586-2.514 2.36.031.294.163.589.401.877.233.294.58.582 1.023.858l2.708 1.697-.276-1.817c-.039-.276-.008-.555.105-.833.105-.265.28-.533.529-.802l.008-.012c.482-.636 1.409-1.276 2.825-1.965.409-.198.849-.397 1.343-.607.743-.3 1.537-.607 2.304-.905 3.176-1.224 6.43-2.479 7.465-3.911.343-.476.441-.972.206-1.494"/></svg>