<svg xmlns="http://www.w3.org/2000/svg" viewBox="0 0 64 64" enable-background="new 0 0 64 64"><g fill="#a0ece6"><path d="m28.28 37.32c-1.022-.789-2.263.781-1.242 1.568 2.405 1.857 3.734 4.264 4.431 6.916-2.759-.672-6.519.057-8.47 1.75-.454.393-.593 1.199-.023 1.584 2.563 1.734 6.292 1.539 9.08.227.303 4.03-.354 8.309-.766 11.984-.141 1.277 1.842 1.547 1.985.262.905-8.135 2.501-18.504-4.996-24.291"/><path d="m40.37 34.805c1.022-.789 2.262.781 1.242 1.568-2.406 1.855-3.734 4.264-4.431 6.916 2.759-.674 6.519.057 8.47 1.748.454.393.592 1.201.023 1.586-2.564 1.732-6.293 1.537-9.08.225-.302 4.03.355 8.309.766 11.984.142 1.279-1.841 1.547-1.984.262-.904-8.133-2.502-18.504 4.996-24.289"/></g><path fill="#47d3a7" d="m48.938 34.385c-1.869-2.334-4.904-3.133-7.619-1.615-4.155 2.32-6.071 6.436-6.949 11.01-1.33-4.084-3.889-7.205-8.636-7.418-7.833-.352-6.305 10.51-6.31 15.9-.002 1.936 1.514 2.113 1.514.178.003-3.586-.441-14.09 5.336-12.949 8.313 1.643 6.558 15.906 6.04 21.639-.174 1.924 2.826 1.844 3-.066.04-.438.08-.912.12-1.414.662-.107 1.256-.596 1.256-1.459-.021-5.412-.194-10.803 1.261-16.07.788-2.861 2.476-5.779 5.337-6.932 5.407-2.178 4.182 6.99 3.217 9.305-.736 1.766-.221 3.139.521 1.354 1.532-3.666 4.656-8.03 1.912-11.459"/><path fill="#dde4e9" d="m16.602 18l-2.699-3.03c0 0-.835-4.811 3.483-2.034l1.252 3.87-2.036 1.189"/><path fill="#c8d2d9" d="m18.69 16.884l-1.268-3.852c0 0 1.148-4.745 4-.477l-.395 4.047-2.341.282"/><g fill="#dde4e9"><path d="m19.703 16.448l1.744-3.924c0 0 4.28-2.902 3.481 2.476l-3.189 2.896-2.036-1.448"/><path d="m19.987 22.259l-.227 4.049c0 0-2.813 3.99-3.903-1.025l1.851-3.623 2.279.599"/><path d="m21.708 18.711l3.894 1.226c0 0 2.935 4.01-2.362 3.988l-2.911-2.883 1.379-2.331"/></g><path fill="#c8d2d9" d="m17.72 21.572l-1.826 3.623c0 0-4.169 2.539-3.169-2.496l3.142-2.586 1.853 1.459"/><path fill="#dde4e9" d="m16.507 21.13l-3.782 1.455c0 0-4.795-.922-.671-3.979l4.063.199.39 2.325"/><g fill="#c8d2d9"><path d="m16.11 19.535l-3.941-.949c0 0-3.42-3.48 1.71-3.656l3.231 2.467-1 2.138"/><path d="m20.402 17.779l3.991-2.441c0 0 5.633.047 1.59 4.377l-4.652.623-.929-2.559"/></g><circle fill="#f8ae1c" cx="18.589" cy="19.07" r="3.125"/><path fill="#ca8a2a" d="m17.902 19.681c-.88-.994-1.01-2.385-.437-3.496-.359.131-.695.324-.994.591-1.293 1.142-1.416 3.116-.275 4.411 1.143 1.293 3.121 1.414 4.41.271.306-.268.537-.576.712-.916-1.174.43-2.539.129-3.416-.861"/><path fill="#c8d2d9" d="m21.07 21.242l2.447 3.238c0 0 .438 4.861-3.64 1.744l-.932-3.961 2.125-1.021"/><path fill="#86cdec" d="m41.915 24.795l-2.699-3.02c0 0-.836-4.811 3.483-2.034l1.253 3.871-2.037 1.188"/><path fill="#8abdd8" d="m44.01 23.674l-1.271-3.851c0 0 1.15-4.746 4-.477l-.393 4.047-2.34.281"/><g fill="#86cdec"><path d="m45.02 23.24l1.744-3.924c0 0 4.279-2.902 3.479 2.477l-3.186 2.896-2.037-1.449"/><path d="m45.3 29.05l-.233 4.05c0 0-2.811 3.988-3.898-1.026l1.849-3.623 2.282.599"/><path d="m47.02 25.501l3.894 1.227c0 0 2.938 4.01-2.361 3.988l-2.913-2.883 1.38-2.332"/></g><path fill="#8abdd8" d="m43.03 28.363l-1.824 3.623c0 0-4.168 2.54-3.172-2.496l3.143-2.586 1.853 1.459"/><path fill="#dde4e9" d="m41.819 27.915l-3.783 1.456c0 0-4.793-.922-.668-3.979l4.063.198.388 2.325"/><g fill="#8abdd8"><path d="m41.42 26.326l-3.943-.95c0 0-3.42-3.48 1.711-3.655l3.23 2.467-.998 2.138"/><path d="m45.669 24.522l3.992-2.44c0 0 5.633.045 1.59 4.377l-4.653.621-.929-2.558"/></g><circle fill="#ecd4a9" cx="43.902" cy="25.864" r="3.126"/><path fill="#e7cb9f" d="m43.22 26.471c-.879-.993-1.01-2.385-.438-3.496-.355.132-.693.325-.994.591-1.293 1.143-1.414 3.117-.273 4.411 1.143 1.293 3.118 1.414 4.412.272.302-.268.533-.577.709-.916-1.176.429-2.54.129-3.416-.862"/><path fill="#8abdd8" d="m46.34 27.986l2.445 3.236c0 0 .436 4.864-3.641 1.745l-.932-3.961 2.128-1.02"/><path fill="#86cdec" d="m26.903 25.04l-2.699-3.02c0 0-.836-4.811 3.482-2.033l1.252 3.869-2.035 1.189"/><path fill="#8abdd8" d="m28.995 23.916l-1.271-3.852c0 0 1.147-4.744 4-.476l-.393 4.048-2.339.28"/><g fill="#86cdec"><path d="m30 23.48l1.743-3.924c0 0 4.282-2.902 3.482 2.476l-3.19 2.896-2.035-1.448"/><path d="m30.29 29.29l-.229 4.049c0 0-2.814 3.99-3.901-1.025l1.847-3.623 2.283.599"/><path d="m32.01 25.743l3.896 1.227c0 0 2.938 4.02-2.363 3.988l-2.911-2.883 1.378-2.332"/></g><path fill="#8abdd8" d="m28.02 28.604l-1.826 3.623c0 0-4.169 2.541-3.169-2.496l3.139-2.586 1.856 1.459"/><path fill="#dde4e9" d="m26.809 28.16l-3.782 1.456c0 0-4.796-.922-.672-3.978l4.064.197.39 2.325"/><g fill="#8abdd8"><path d="m26.411 26.568l-3.942-.951c0 0-3.421-3.48 1.708-3.655l3.23 2.467-.996 2.139"/><path d="m30.655 24.763l3.992-2.441c0 0 5.635.047 1.592 4.377l-4.654.623-.93-2.559"/></g><circle fill="#ecd4a9" cx="28.89" cy="26.11" r="3.125"/><path fill="#e7cb9f" d="m28.2 26.712c-.881-.993-1.01-2.385-.438-3.496-.354.131-.694.324-.991.592-1.295 1.143-1.417 3.115-.275 4.41 1.142 1.293 3.119 1.414 4.412.272.305-.268.535-.577.709-.916-1.175.429-2.541.131-3.417-.862"/><path fill="#8abdd8" d="m31.33 28.23l2.446 3.238c0 0 .436 4.862-3.641 1.745l-.932-3.961 2.127-1.022"/><path fill="#f46384" d="m31.605 29.778c0 0-2.02-.81-2.451-3.421-.438-2.612-2.318-2.026-2.318-2.026l-3.788 4.866c.24-2.84.382-6.73-.562-7.584-1.53-1.373-3.557.971-3.557.971s-1.507 1.563-4.093.988c-2.586-.573-2.75 1.388-2.75 1.388l3.557 6.142c-2.545-1.092-5.756-2.254-6.789-1.68-1.795.996-.238 3.68-.238 3.68s.99 1.928-.392 4.188c-1.377 2.262.423 3.051.423 3.051l5.79-1.143c-1.542 2.295-3.269 5.221-2.897 6.34.646 1.947 3.574.912 3.574.912s2.076-.613 4.04 1.164 3.076.15 3.076.15l-.063-8.08c1.287 2.279 4.234 7.217 5.803 7.385 2.042.223 2.315-2.865 2.315-2.865s.312-2.148 2.741-3.197c2.438-1.045 1.416-2.732 1.416-2.732l-5.957-2.668c2.416-.82 4.986-1.9 5.348-2.893.702-1.931-2.229-2.932-2.229-2.932"/><g fill="#d34d75"><path d="m22.17 39.922c0 0 5.688 4.994 9.401 2.029 0 0-1.437 1.426-1.282 2.248 0 0-.347 2.502-1.633 2.809 0 0-.938.313-1.783-.574-.846-.887-3.303-4.26-4.703-6.512"/><path d="m18.496 45.713c0 0-2.925 1.035-3.573-.91-.367-1.119 1.355-4.045 2.896-6.338l-5.788 1.141c0 0-1.807-.791-.425-3.049 1.381-2.262.396-4.192.396-4.192s-.923-1.596-.523-2.781c-1.16-.314-2.139-.434-2.625-.162-1.795.996-.238 3.68-.238 3.68s.99 1.928-.392 4.188c-1.377 2.262.423 3.051.423 3.051l5.79-1.143c-1.542 2.295-3.269 5.221-2.897 6.34.646 1.947 3.574.912 3.574.912s2.076-.613 4.04 1.164 3.076.15 3.076.15l-.007-1.146c-1.863-1.45-3.728-.905-3.728-.905"/><path d="m19.03 30.369l-3.555-6.143c0 0 .02-.25.162-.543-.252-.016-.518-.049-.797-.111-2.586-.573-2.75 1.388-2.75 1.388l2.168 3.737c1.401.306 3.215 1 4.772 1.672"/></g><circle fill="#ffc84d" cx="20.438" cy="34.484" r="3.832"/><g fill="#e45a6f"><path d="m28.62 32c-.402-.135-.806-.27-1.197-.426-.668-.266-1.565.344-1.82 1.01-.131.344-.131.719.009 1.025.159.35.434.502.778.643.391.158.797.295 1.197.43.689.229 1.551-.314 1.816-1.01.3-.763-.091-1.441-.783-1.67"/><path d="m25.18 27.759c-.343.252-.687.502-1.041.729-.609.393-.629 1.472-.238 2.064.204.311.513.526.845.592.373.07.656-.059.974-.262.354-.227.7-.477 1.045-.727.584-.43.646-1.444.233-2.066-.455-.683-1.233-.759-1.818-.33"/><path d="m19.823 26.545c-.053.423-.109.843-.186 1.261-.133.709.637 1.465 1.336 1.588.365.063.734-.01 1.01-.209.309-.224.407-.518.478-.885.084-.416.139-.836.19-1.257.089-.72-.605-1.46-1.341-1.591-.806-.14-1.397.374-1.486 1.093"/><path d="m14.941 29.23c.302.299.606.598.887.91.481.535 1.557.379 2.075-.102.275-.254.436-.59.45-.93.004-.383-.171-.639-.42-.918-.28-.314-.583-.613-.886-.911-.521-.509-1.533-.402-2.078.104-.597.556-.548 1.337-.028 1.847"/><path d="m12.507 33.695c.408.125.812.256 1.205.404.676.258 1.558-.367 1.803-1.035.126-.35.119-.724-.027-1.029-.168-.345-.438-.493-.785-.627-.394-.154-.8-.283-1.206-.41-.69-.218-1.544.341-1.799 1.04-.286.769.119 1.441.809 1.657"/><path d="m13.518 38.494c.39-.17.781-.334 1.178-.479.684-.244.941-1.293.692-1.959-.131-.348-.381-.625-.688-.764-.354-.154-.66-.092-1.01.035-.395.143-.788.309-1.179.477-.664.285-.952 1.266-.692 1.959.287.768 1.035 1.018 1.699.731"/><path d="m16.827 41.541c.146-.402.293-.799.467-1.189.286-.656-.293-1.568-.944-1.848-.345-.145-.721-.156-1.03-.025-.355.148-.518.412-.665.756-.175.387-.325.783-.469 1.182-.251.682.262 1.563.946 1.854.753.315 1.442-.048 1.695-.73"/><path d="m21.456 41.941c-.081-.418-.154-.838-.207-1.256-.091-.717-1.054-1.203-1.762-1.107-.363.053-.689.232-.896.506-.224.309-.228.617-.185.988.049.422.129.84.205 1.256.131.713 1.025 1.209 1.76 1.107.812-.111 1.22-.781 1.085-1.494"/><path d="m26.06 39.816c-.291-.313-.574-.629-.841-.957-.451-.563-1.526-.467-2.073-.014-.286.234-.469.561-.5.898-.028.385.126.648.361.941.266.33.551.645.836.959.488.535 1.509.486 2.079.014.633-.52.625-1.302.138-1.841"/><path d="m28.569 36.764c-.366-.227-.722-.451-1.066-.695-.591-.416-1.6-.033-2.01.553-.209.303-.293.668-.231 1 .073.377.302.59.606.807.345.246.705.475 1.063.697.618.381 1.584.059 2.01-.557.461-.673.244-1.423-.373-1.805"/></g><g fill="#fff"><path d="m21.01 39.32c-.026-.369-.045-.738-.048-1.111-.014-.639-.661-1-1.172-.865-.262.074-.511.264-.674.521-.186.293-.213.574-.208.904.008.371.026.744.054 1.111.039.633.633 1.01 1.163.861.588-.155.925-.788.885-1.421"/><path d="m17.866 38.879c.187-.322.373-.639.58-.955.348-.531.01-1.197-.485-1.363-.263-.09-.573-.07-.854.055-.315.139-.495.357-.673.633-.205.313-.397.633-.58.953-.322.543-.035 1.189.485 1.365.574.193 1.206-.145 1.527-.688"/><path d="m16.16 36.775c.317-.199.63-.395.955-.582.555-.313.562-1.057.198-1.438-.19-.195-.479-.32-.782-.338-.346-.023-.605.088-.893.248-.325.186-.637.381-.953.58-.535.338-.579 1.041-.197 1.438.422.436 1.139.432 1.672.092"/><path d="m15.337 34.09c.367.039.737.086 1.104.146.63.104 1.104-.469 1.063-.992-.026-.273-.169-.549-.398-.756-.253-.237-.523-.313-.85-.366-.369-.062-.738-.108-1.104-.149-.627-.076-1.104.444-1.058.993.052.604.618 1.05 1.243 1.124"/><path d="m16.71 31.23c.229.291.459.584.675.891.368.518 1.108.45 1.447.049.176-.213.271-.506.26-.813-.012-.349-.15-.594-.34-.862-.216-.306-.446-.599-.671-.892-.395-.496-1.094-.471-1.449-.047-.393.463-.315 1.176.078 1.674"/><path d="m19.578 29.724c0 .371-.004.742-.022 1.115-.038.637.582 1.045 1.1.943.271-.057.53-.227.709-.472.207-.282.251-.56.272-.888.019-.373.025-.744.027-1.115.004-.634-.563-1.051-1.102-.943-.593.122-.978.727-.984 1.36"/><path d="m22.55 30.22c-.209.309-.422.613-.646.91-.382.51-.095 1.195.388 1.397.258.107.566.107.853.006.33-.118.521-.324.724-.584.225-.301.435-.605.645-.914.355-.521.121-1.184-.392-1.395-.562-.232-1.219.059-1.572.58"/><path d="m24.987 32.3c-.354.104-.711.202-1.076.289-.62.145-.841.855-.597 1.32.13.242.368.445.654.549.326.119.605.086.925.014.361-.084.723-.184 1.078-.285.608-.176.852-.836.598-1.324-.281-.538-.971-.734-1.582-.563"/><path d="m23.863 37.889c-.229-.291-.46-.586-.673-.891-.371-.52-1.11-.455-1.452-.051-.173.209-.272.506-.265.813.014.344.15.592.341.859.217.307.442.6.673.891.388.498 1.096.473 1.45.053.39-.461.312-1.176-.074-1.674"/><path d="m25.398 35.58c-.341-.158-.674-.32-1-.494-.563-.301-1.194.092-1.319.604-.063.268-.015.576.13.842.168.307.401.465.694.619.332.176.664.336 1 .494.573.268 1.19-.068 1.318-.605.141-.589-.247-1.19-.818-1.46"/></g><path fill="#f46384" d="m32.396 30.859c0 0 2.02-.811 2.451-3.422.438-2.611 2.318-2.025 2.318-2.025l3.788 4.865c-.24-2.84-.382-6.73.562-7.584 1.53-1.373 3.557.971 3.557.971s1.507 1.563 4.093.988c2.586-.572 2.75 1.389 2.75 1.389l-3.557 6.141c2.545-1.092 5.756-2.254 6.789-1.68 1.795.996.238 3.68.238 3.68s-.99 1.928.392 4.188c1.377 2.262-.423 3.051-.423 3.051l-5.79-1.143c1.542 2.295 3.269 5.221 2.897 6.34-.646 1.947-3.574.912-3.574.912s-2.076-.613-4.04 1.164-3.076.15-3.076.15l.063-8.08c-1.287 2.279-4.234 7.217-5.803 7.385-2.042.223-2.315-2.865-2.315-2.865s-.312-2.148-2.741-3.197c-2.438-1.045-1.416-2.732-1.416-2.732l5.957-2.668c-2.416-.82-4.986-1.9-5.348-2.891-.702-1.933 2.229-2.933 2.229-2.933"/><g fill="#d34d75"><path d="m41.832 41c0 0-5.688 4.994-9.401 2.029 0 0 1.437 1.426 1.282 2.248 0 0 .347 2.502 1.633 2.809 0 0 .938.313 1.783-.574.846-.887 3.303-4.26 4.703-6.512"/><path d="m45.505 46.793c0 0 2.925 1.035 3.573-.91.367-1.119-1.355-4.045-2.896-6.338l5.788 1.141c0 0 1.807-.791.425-3.049-1.381-2.262-.396-4.191-.396-4.191s.923-1.596.523-2.782c1.16-.314 2.139-.434 2.625-.162 1.795.996.238 3.68.238 3.68s-.99 1.928.392 4.188c1.377 2.262-.423 3.051-.423 3.051l-5.79-1.143c1.542 2.295 3.269 5.221 2.897 6.34-.646 1.947-3.574.912-3.574.912s-2.076-.613-4.04 1.164-3.076.15-3.076.15l.007-1.146c1.863-1.45 3.728-.905 3.728-.905"/><path d="m44.975 31.449l3.555-6.143c0 0-.02-.25-.162-.543.252-.016.518-.049.797-.111 2.586-.572 2.75 1.389 2.75 1.389l-2.168 3.736c-1.401.306-3.215 1-4.772 1.672"/></g><circle fill="#ffc84d" cx="43.563" cy="35.564" r="3.832"/><g fill="#e45a6f"><path d="m35.38 33.08c.402-.135.806-.27 1.197-.426.668-.266 1.565.344 1.82 1.01.131.344.131.719-.009 1.025-.159.352-.434.502-.778.643-.391.16-.797.295-1.197.43-.689.229-1.551-.314-1.816-1.01-.3-.762.091-1.441.783-1.67"/><path d="m38.819 28.839c.343.252.687.502 1.041.729.609.393.629 1.473.238 2.064-.204.311-.513.527-.845.592-.373.07-.656-.059-.974-.262-.354-.227-.7-.477-1.045-.727-.584-.43-.646-1.443-.233-2.066.455-.683 1.233-.759 1.818-.33"/><path d="m44.18 27.626c.053.422.109.842.186 1.26.133.709-.637 1.465-1.336 1.588-.365.064-.734-.01-1.01-.209-.309-.223-.407-.518-.478-.885-.084-.416-.139-.836-.19-1.256-.089-.721.605-1.461 1.341-1.592.806-.14 1.397.374 1.486 1.094"/><path d="m49.06 30.31c-.302.299-.606.598-.887.91-.481.535-1.557.379-2.075-.102-.275-.254-.436-.59-.45-.93-.004-.383.171-.639.42-.918.28-.314.583-.613.886-.91.521-.51 1.533-.402 2.078.104.597.555.548 1.336.028 1.846"/><path d="m51.49 34.775c-.408.125-.812.256-1.205.404-.676.258-1.558-.367-1.803-1.035-.126-.348-.119-.723.027-1.027.168-.346.438-.494.785-.627.394-.154.8-.283 1.206-.41.69-.219 1.544.34 1.799 1.04.286.767-.119 1.439-.809 1.655"/><path d="m50.48 39.576c-.39-.172-.781-.336-1.178-.48-.684-.244-.941-1.293-.692-1.959.131-.348.381-.625.688-.764.354-.154.66-.092 1.01.035.395.143.788.309 1.179.477.664.287.952 1.266.692 1.959-.287.767-1.035 1.017-1.699.732"/><path d="m47.17 42.621c-.146-.402-.293-.799-.467-1.189-.286-.656.293-1.568.944-1.848.345-.145.721-.156 1.03-.025.355.148.518.412.665.756.175.387.325.783.469 1.182.251.682-.262 1.563-.946 1.854-.753.315-1.442-.048-1.695-.73"/><path d="m42.545 43.02c.081-.418.154-.838.207-1.256.091-.717 1.054-1.203 1.762-1.107.363.053.689.234.896.506.224.309.228.617.185.988-.049.424-.129.84-.205 1.256-.131.713-1.025 1.209-1.76 1.107-.812-.111-1.22-.781-1.085-1.494"/><path d="m37.943 40.896c.291-.313.574-.629.841-.957.451-.563 1.526-.467 2.073-.014.286.234.469.561.5.9.028.383-.126.646-.361.939-.266.33-.551.645-.836.959-.488.535-1.509.486-2.079.014-.633-.52-.625-1.301-.138-1.841"/><path d="m35.432 37.844c.366-.227.722-.451 1.066-.695.591-.416 1.6-.031 2.01.553.209.303.293.668.231 1-.073.377-.302.592-.606.807-.345.246-.705.475-1.063.697-.618.381-1.584.059-2.01-.557-.461-.672-.244-1.422.373-1.805"/></g><g fill="#fff"><path d="m42.987 40.4c.026-.369.045-.738.048-1.111.014-.639.661-1 1.172-.865.262.074.511.264.674.521.186.293.213.574.208.904-.008.371-.026.744-.054 1.111-.039.633-.633 1.01-1.163.861-.588-.155-.925-.788-.885-1.421"/><path d="m46.13 39.959c-.187-.322-.373-.639-.58-.955-.348-.531-.01-1.197.485-1.363.263-.09.573-.07.854.055.315.139.495.357.673.633.205.313.397.633.58.953.322.545.035 1.189-.485 1.365-.574.193-1.206-.145-1.527-.688"/><path d="m47.836 37.855c-.317-.199-.63-.395-.955-.582-.555-.311-.562-1.057-.198-1.438.19-.195.479-.32.782-.338.346-.023.605.088.893.248.325.186.637.381.953.582.535.336.579 1.039.197 1.436-.422.436-1.139.432-1.672.092"/><path d="m48.664 35.17c-.367.041-.737.088-1.104.146-.63.104-1.104-.469-1.063-.992.026-.273.169-.549.398-.756.253-.236.523-.313.85-.365.369-.063.738-.109 1.104-.15.627-.076 1.104.445 1.058.992-.053.605-.618 1.051-1.243 1.125"/><path d="m47.29 32.31c-.229.292-.459.584-.675.891-.368.518-1.108.449-1.447.049-.176-.213-.271-.506-.26-.813.012-.348.15-.594.34-.861.216-.307.446-.6.671-.893.395-.496 1.094-.471 1.449-.047.393.463.315 1.176-.078 1.674"/><path d="m44.42 30.804c0 .371.004.742.022 1.115.038.637-.582 1.045-1.1.944-.271-.057-.53-.227-.709-.471-.207-.283-.251-.561-.272-.889-.019-.373-.025-.744-.027-1.115-.004-.633.563-1.051 1.102-.943.593.121.978.726.984 1.359"/><path d="m41.45 31.3c.209.309.422.613.646.91.382.51.095 1.196-.388 1.397-.258.107-.566.107-.853.006-.33-.117-.521-.322-.724-.584-.225-.301-.435-.606-.645-.915-.355-.521-.121-1.184.392-1.395.562-.231 1.219.06 1.572.581"/><path d="m39.01 33.377c.354.104.711.201 1.076.287.62.145.841.855.597 1.32-.13.242-.368.445-.654.549-.326.119-.605.088-.925.014-.361-.084-.723-.184-1.078-.285-.608-.174-.852-.836-.598-1.324.281-.538.971-.733 1.582-.561"/><path d="m40.14 38.969c.229-.291.46-.586.673-.891.371-.52 1.11-.455 1.452-.051.173.209.272.506.265.813-.014.344-.15.592-.341.859-.217.307-.442.6-.673.891-.388.498-1.096.473-1.45.053-.39-.461-.312-1.176.074-1.674"/><path d="m38.603 36.66c.341-.158.674-.32 1.01-.494.563-.299 1.194.092 1.319.604.063.27.015.576-.13.842-.168.307-.401.465-.694.619-.332.176-.664.336-1 .494-.573.268-1.19-.068-1.318-.605-.141-.589.247-1.19.818-1.46"/></g><path fill="#efa8b6" d="m44.966 19.685c0 0-1.172-1.824-.019-4.207 1.154-2.385-.716-2.996-.716-2.996l-5.908 1.777c1.842-2.176 4.209-5.267 3.934-6.51-.448-2-3.461-1.27-3.461-1.27s-2.132.404-3.911-1.561c-1.778-1.965-3.046-.461-3.046-.461l-.656 7.06c-1.439-2.359-3.387-5.168-4.563-5.297-2.037-.228-2.318 2.861-2.318 2.861s-.314 2.145-2.748 3.19c-2.435 1.044-1.421 2.731-1.421 2.731l5.381 2.418c-2.584.979-5.686 2.366-6.03 3.492-.599 1.962 2.384 2.813 2.384 2.813s2.05.705 2.628 3.289c.57 2.586 2.421 1.906 2.421 1.906l4.624-6.63c-.271 2.604-.722 8.337.455 9.382 1.537 1.364 3.545-.996 3.545-.996s1.5-1.57 4.092-1.019c2.589.556 2.736-1.409 2.736-1.409l-3.313-5.625c2.444.73 5.166 1.338 6.04.738 1.688-1.162-.125-3.68-.125-3.68"/><g fill="#e295a8"><path d="m31.398 22.498c0 0 1.748 7.361 6.489 7.096 0 0-1.992.329-2.348 1.09 0 0-1.728 1.842-2.953 1.346 0 0-.946-.291-1.121-1.502-.177-1.212-.23-5.386-.067-8.03"/><path d="m25.05 25.09c0 0-2.985-.851-2.384-2.814.348-1.125 3.445-2.512 6.03-3.489l-5.379-2.42c0 0-1.017-1.69 1.421-2.731 2.436-1.043 2.744-3.191 2.744-3.191s.172-1.834 1.186-2.569c-.762-.925-1.492-1.59-2.049-1.651-2.037-.228-2.318 2.861-2.318 2.861s-.314 2.145-2.748 3.19c-2.435 1.044-1.421 2.731-1.421 2.731l5.381 2.418c-2.584.979-5.686 2.366-6.03 3.492-.599 1.962 2.384 2.813 2.384 2.813s2.05.705 2.628 3.289c.57 2.586 2.421 1.906 2.421 1.906l.655-.941c-.682-2.261-2.519-2.894-2.519-2.894"/><path d="m34.37 12.884l.655-7.06c0 0 .16-.192.447-.348-.199-.16-.394-.342-.589-.553-1.778-1.965-3.046-.461-3.046-.461l-.397 4.301c.97 1.063 2.046 2.678 2.93 4.125"/></g><circle fill="#ffc84d" cx="33.13" cy="17.06" r="3.831"/><g fill="#e45a6f"><path d="m41.25 19.771c-.254-.342-.506-.686-.734-1.041-.391-.604-1.471-.625-2.063-.23-.312.203-.522.51-.589.842-.075.379.06.66.261.973.23.357.479.701.73 1.043.43.584 1.446.643 2.068.23.68-.45.758-1.229.327-1.817"/><path d="m40.898 14.322c-.427.007-.854.01-1.274-.01-.722-.033-1.362.836-1.386 1.547-.014.371.111.727.345.97.265.274.57.335.943.351.422.021.849.018 1.274.012.726-.012 1.36-.805 1.386-1.551.031-.816-.562-1.33-1.288-1.319"/><path d="m37.23 10.228c-.286.314-.581.625-.882.922-.518.5-.331 1.564.173 2.07.258.262.602.416.938.414.388-.004.636-.188.907-.447.308-.291.593-.602.88-.914.488-.535.352-1.543-.173-2.074-.575-.58-1.353-.506-1.843.029"/><path d="m31.695 9.588c.079.421.152.839.198 1.257.085.717 1.048 1.211 1.753 1.121.371-.051.694-.23.902-.5.228-.307.235-.619.189-.99-.048-.42-.123-.838-.198-1.258-.128-.714-1.014-1.214-1.752-1.117-.808.107-1.22.773-1.092 1.487"/><path d="m27.12 11.822c.261.341.514.68.751 1.029.401.602 1.482.604 2.066.199.31-.21.519-.52.576-.852.065-.379-.07-.657-.278-.969-.232-.354-.492-.693-.746-1.033-.439-.575-1.457-.615-2.07-.192-.675.462-.736 1.243-.299 1.818"/><path d="m25.17 16.322c.42.087.836.181 1.238.291.699.195 1.522-.51 1.699-1.197.098-.357.055-.73-.119-1.021-.193-.33-.479-.453-.838-.555-.406-.113-.822-.203-1.238-.293-.707-.152-1.508.48-1.695 1.198-.211.792.248 1.426.953 1.577"/><path d="m26.11 20.722c.35-.242.703-.48 1.068-.699.613-.371.666-1.447.299-2.055-.192-.316-.5-.543-.826-.615-.373-.086-.66.035-.979.229-.366.215-.716.453-1.065.693-.598.41-.689 1.426-.302 2.059.432.694 1.206.797 1.805.388"/><path d="m29.65 23.73c.178-.389.357-.772.558-1.145.342-.637-.159-1.593-.792-1.923-.329-.168-.699-.212-1.022-.104-.363.117-.548.367-.726.696-.202.373-.38.759-.562 1.142-.302.66.133 1.58.797 1.92.726.383 1.444.072 1.747-.586"/><path d="m34.633 24.66c-.055-.422-.104-.846-.128-1.268-.049-.721-.979-1.266-1.688-1.213-.37.026-.711.188-.93.444-.247.298-.271.603-.247.979.022.422.075.844.125 1.266.089.719.95 1.268 1.687 1.212.819-.059 1.269-.699 1.181-1.42"/><path d="m38.447 23.625c-.168-.395-.328-.785-.467-1.186-.241-.68-1.29-.953-1.954-.709-.35.125-.63.375-.77.681-.158.353-.102.653.026 1.01.14.402.3.795.464 1.186.279.666 1.254.963 1.955.709.773-.28 1.027-1.02.746-1.688"/></g><g fill="#fff"><path d="m30.809 21.333c.192-.316.391-.631.604-.939.362-.523.04-1.199-.452-1.379-.26-.093-.57-.082-.854.037-.32.131-.505.342-.691.615-.213.307-.408.621-.606.938-.335.537-.065 1.19.455 1.377.566.209 1.209-.111 1.544-.649"/><path d="m28.496 19.15c.335-.156.673-.305 1.021-.442.594-.233.704-.971.397-1.394-.166-.225-.428-.389-.729-.448-.338-.071-.608.003-.911.125-.352.135-.69.286-1.031.44-.574.258-.714.951-.394 1.396.355.487 1.07.582 1.647.323"/><path d="m28.328 16.456c.371.019.743.04 1.113.075.63.068 1.07-.534.992-1.057-.044-.269-.203-.537-.442-.729-.267-.219-.54-.277-.871-.313-.369-.039-.74-.061-1.113-.08-.629-.035-1.076.514-.99 1.057.089.6.68 1.01 1.311 1.047"/><path d="m29.2 13.781c.282.248.558.5.822.761.447.45 1.169.256 1.438-.194.138-.24.18-.547.115-.846-.072-.342-.248-.561-.48-.79-.268-.265-.543-.517-.814-.763-.467-.426-1.16-.276-1.443.197-.306.523-.104 1.215.362 1.635"/><path d="m31.982 12.245c.019.37.031.743.035 1.116-.004.637.641 1.01 1.15.879.267-.068.514-.256.683-.51.189-.291.221-.572.221-.9 0-.375-.014-.744-.035-1.115-.029-.633-.616-1.018-1.151-.879-.583.15-.937.777-.903 1.409"/><path d="m35.19 12.679c-.212.303-.434.604-.664.896-.402.497-.13 1.19.352 1.407.251.109.561.121.853.024.332-.108.526-.31.735-.563.231-.295.45-.594.667-.895.367-.514.146-1.182-.354-1.408-.554-.244-1.219.027-1.589.539"/><path d="m37.32 14.808c-.35.129-.694.254-1.053.367-.606.193-.768.92-.49 1.365.145.234.396.414.689.497.336.094.611.039.929-.058.354-.113.703-.242 1.053-.373.593-.219.783-.896.49-1.362-.321-.516-1.022-.659-1.618-.436"/><path d="m38.12 17.909c-.353-.121-.699-.249-1.045-.39-.591-.24-1.181.213-1.251.732-.039.273.038.575.212.825.197.286.442.423.748.548.345.141.694.268 1.044.391.6.209 1.184-.188 1.251-.734.084-.6-.362-1.16-.959-1.372"/><path d="m33.956 21.818c-.019-.373-.033-.746-.033-1.115 0-.639-.642-1.014-1.153-.885-.263.068-.515.256-.679.513-.192.289-.225.569-.225.896-.003.375.013.748.032 1.117.028.633.619 1.018 1.15.883.589-.152.935-.78.908-1.409"/><path d="m36.545 20.822c-.184-.325-.363-.65-.528-.981-.286-.571-1.033-.618-1.426-.272-.209.182-.345.459-.383.762-.04.346.058.609.206.904.169.336.343.658.527.982.313.551 1.01.633 1.43.27.452-.4.483-1.114.174-1.665"/></g><path fill="#dde4e9" d="m33.382 35.02l-2.699-3.03c0 0-.835-4.811 3.485-2.034l1.252 3.871-2.038 1.189"/><path fill="#c8d2d9" d="m35.474 33.895l-1.271-3.852c0 0 1.15-4.745 4.01-.477l-.394 4.047-2.34.282"/><g fill="#dde4e9"><path d="m36.483 33.457l1.745-3.922c0 0 4.279-2.903 3.481 2.475l-3.188 2.897-2.038-1.45"/><path d="m36.771 39.27l-.23 4.049c0 0-2.813 3.99-3.899-1.025l1.847-3.623 2.282.599"/><path d="m38.487 35.721l3.895 1.227c0 0 2.938 4.01-2.36 3.988l-2.915-2.883 1.38-2.332"/></g><path fill="#c8d2d9" d="m34.501 38.582l-1.826 3.623c0 0-4.168 2.539-3.168-2.496l3.14-2.586 1.854 1.459"/><path fill="#dde4e9" d="m33.29 38.13l-3.781 1.455c0 0-4.797-.922-.671-3.979l4.063.199.389 2.325"/><g fill="#c8d2d9"><path d="m32.89 36.545l-3.942-.949c0 0-3.421-3.481 1.708-3.657l3.232 2.467-.998 2.139"/><path d="m37.18 34.789l3.992-2.442c0 0 5.634.047 1.591 4.377l-4.654.623-.929-2.558"/></g><circle fill="#f8ae1c" cx="35.37" cy="36.08" r="3.126"/><path fill="#ca8a2a" d="m34.683 36.691c-.878-.994-1.01-2.385-.437-3.496-.356.131-.693.324-.993.59-1.293 1.143-1.414 3.117-.274 4.412 1.142 1.293 3.119 1.414 4.411.271.305-.268.535-.576.709-.916-1.174.43-2.539.13-3.416-.861"/><path fill="#c8d2d9" d="m37.854 38.25l2.446 3.238c0 0 .435 4.861-3.643 1.744l-.931-3.961 2.128-1.021"/></svg>