<svg xmlns="http://www.w3.org/2000/svg" enable-background="new 0 0 64 64" viewBox="0 0 64 64"><path d="m60.64 47.44c0-12.211 0-24.422 0-36.633 0-.398-.275-.762-.662-.869-10.253-2.816-26.23-7.089-36.484-9.903-.315-.089-.579-.008-.772.151-.217.142-.371.376-.371.718.031 11.816.063 23.628.092 35.444-5.406-3.903-15.402-2.91-17.878 3.783-1.557 4.217-.469 9.07 2.846 12.05 3.528 3.175 9.103 3.114 13.34 1.719 3.981-1.313 7.206-4.815 7.817-8.981.307-2.094.066-4.362.066-6.465v-18.521c6.682 1.858 19.08 5.173 25.765 7.04.009 6.281.034 12.841.047 18.382-3.458-2.584-8.279-2.703-12.339-1.324-5.285 1.789-6.918 6.984-5.858 12.133 2.5 12.11 22.691 8.912 24.324-2.213.307-2.108.067-4.39.067-6.506" fill="#27aae1"/><g fill="#e7e6e6"><path d="m11.841 39.58c.505-.463.387-1.409-.264-2.114-.648-.706-1.585-.903-2.09-.438l-2.132 1.968c-.504.464-.38 1.411.269 2.118.646.705 1.581.9 2.085.435l2.132-1.969"/><path d="m44.3 48.838c.505-.465.386-1.411-.265-2.115-.649-.705-1.585-.902-2.089-.439l-2.133 1.971c-.504.461-.38 1.411.268 2.117.648.705 1.582.898 2.086.436l2.133-1.97"/></g></svg>