<svg xmlns="http://www.w3.org/2000/svg" viewBox="0 0 64 64" enable-background="new 0 0 64 64"><path fill="#a5233c" d="m44.896 15.453c0 0-7.477-7.143-25.19-.363l.29-9.699.726-1.721c0 0 10.581-8.04 24.862.032l.734 11.771-1.419-.02"/><path fill="#df394c" d="m25.34 18.223c-6.15-9.297-4.958-13.695-4.621-14.552-.006 0-.008.002-.01.004-.01.016-.028.031-.042.043-8.678 14.342-1.214 22.12-1.214 22.12l23.76 38.29 5.587-14.602-23.46-31.3"/><g fill="#bc2a3f"><path d="M25.292 37.484 16.08 49.07 21.243 63.825 31.781 47.882z"/><path d="m45.67 3.783c-.048-.038-.095-.077-.143-.116-.02-.004-.044-.013-.063-.021.373 1.537.833 6.458-5.04 14.805l-7.03 8.846 6.395 8.469 6.301-9.531c-.001 0 7.429-8.142-.422-22.452"/></g></svg>