<svg xmlns="http://www.w3.org/2000/svg" viewBox="0 0 64 64" enable-background="new 0 0 64 64"><path fill="#c2986b" d="m5.306 49.865c1.094 1.592 2.327 3.119 3.743 4.532 12.514 12.512 32.795 12.517 45.31 0 12.515-12.513 12.513-32.794-.002-45.31-12.512-12.507-32.793-12.512-45.31 0-5.144 5.142-8.135 11.599-9.05 18.288l14.247-2.61-8.941 25.1"/><path fill="#02897d" d="m29.875 13.75c0 3.529-2.865 6.394-6.396 6.394-3.529 0-6.394-2.865-6.394-6.394 0-3.533 2.865-6.398 6.394-6.398 3.532 0 6.396 2.865 6.396 6.398"/><circle fill="#e45264" cx="40.875" cy="17.808" r="6.394"/><circle fill="#405967" cx="49.981" cy="35.613" r="6.395"/><path fill="#ed2e7c" d="m44.06 52.73c0 3.533-2.864 6.394-6.396 6.394-3.528 0-6.393-2.86-6.393-6.394 0-3.534 2.865-6.395 6.393-6.395 3.532 0 6.396 2.861 6.396 6.395"/><path fill="#e7e6e6" d="m23.482 49.22c0 3.534-2.865 6.395-6.396 6.395-3.529 0-6.394-2.86-6.394-6.395 0-3.533 2.865-6.394 6.394-6.394 3.531 0 6.396 2.86 6.396 6.394"/></svg>