<svg xmlns="http://www.w3.org/2000/svg" viewBox="0 0 64 64" enable-background="new 0 0 64 64"><path fill="#f2a2e3" d="m59.32 44.966c-3.271-6.16-15.359-13.438-21.517-10.167-2.749 1.46-5.231 1.799-5.529 5.954-.408 5.685.09 14.156 1.9 17.564 3.269 6.157 8.56.625 14.715-2.644 6.159-3.27 13.702-4.553 10.431-10.707"/><path fill="#af69a5" d="m55.918 40.769c-5.03-4.703-13.345-8.505-18.11-5.97-.742.396-1.462.709-2.13 1.039 5.964 3.992 13.1 5.417 20.244 4.931"/><g fill="#e090d8"><path d="m46.13 6.967c0 6.974-7.264 19.07-14.236 19.07-6.971 0-14.236-12.1-14.236-19.07 0-6.971 7.265-4.566 14.236-4.566 6.972 0 14.236-2.404 14.236 4.566"/><path d="m5.158 44.966c3.271-6.16 15.359-13.438 21.517-10.167 2.75 1.46 5.228 1.799 5.529 5.954.408 5.685-.093 14.156-1.9 17.564-3.271 6.157-8.559.625-14.716-2.644-6.158-3.27-13.701-4.553-10.43-10.707"/></g><g fill="#ce86cb"><path d="m32.2 40.771c-.188-2.588-1.219-3.693-2.637-4.515 3.184 7.575 1.531 17.93-3.384 24.828 1.584.107 2.979-.599 4.12-2.75 1.808-3.407 2.308-11.879 1.901-17.563"/><path d="m32.27 40.771c.188-2.588 1.219-3.693 2.636-4.515-3.183 7.575-1.53 17.93 3.385 24.828-1.584.107-2.979-.599-4.12-2.75-1.811-3.407-2.309-11.879-1.901-17.563"/></g><path fill="#f29ce6" d="m60.878 37.607c-6.266 3.062-20.321 1.853-23.388-4.408-3.062-6.261 4.611-18.1 10.876-21.17 6.263-3.062 7.296 4.52 10.358 10.784 3.063 6.261 8.412 11.728 2.154 14.792"/><path fill="#af69a5" d="m9.525 39.939c5.03-4.702 13.345-8.504 18.11-5.969.745.396 1.463.709 2.13 1.039-5.963 3.993-13.1 5.417-20.244 4.93"/><path fill="#f29ce6" d="m2.906 37.607c6.265 3.062 20.322 1.853 23.384-4.408 3.065-6.261-4.611-18.1-10.873-21.17-6.265-3.062-7.295 4.52-10.36 10.784-3.062 6.261-8.412 11.728-2.151 14.792"/><path fill="#e6e7e8" d="m42.708 30.18c0 5.97-4.843 10.816-10.817 10.816-5.973 0-10.813-4.847-10.813-10.816 0-5.976 4.84-10.819 10.813-10.819 5.974 0 10.817 4.843 10.817 10.819"/></svg>