<svg xmlns="http://www.w3.org/2000/svg" viewBox="0 0 64 64" enable-background="new 0 0 64 64"><path fill="#465a5c" d="m19.764 19.18l.392 12.06c0 0 6.637 2.238 6.856 2.174.227-.066 13.313-1.79 13.313-1.79s13.884-8.724 14.205-9.09c.313-.368 2.479-4.389 2.479-4.389l-11.708 1.926-13.677-1.862-5.075-2.647-6.06-1.688-.723 5.308"/><path fill="#3a4e52" d="m3.314 8.148l4.377 15.553c0 0 4.092-2.175 4.679-2.438.589-.262 7-2.294 7-2.294s5.854.889 6.03.838c.184-.055.94-1.592.94-1.592l.697-9.317-1.204-4.284-6.211-2.134-7.322 1.161c0 0-5.466 1.842-5.838 2.218-.365.372-3.145 2.289-3.145 2.289"/><path fill="#324449" d="m49.996 17.755c-8.674 1.104-16.12-.094-22.323-3.599l.494-4.107c.145-1.21.184-2.212.121-2.999-.184-2.199-1.434-3.884-3.728-5.05-2.306-1.177-5.098-1.557-8.391-1.134-4.746.604-9.08 2.53-12.984 5.762.286.983.575 1.956.881 2.926 4.569-3.201 8.552-5.03 11.934-5.463 2.913-.374 5.356-.098 7.318.822 1.961.926 3.03 2.281 3.177 4.082.069.826.014 1.935-.162 3.312l-.758 5.807c-1.682-.967-3.82-1.289-6.428-.958-3.864.495-7.549 2.179-11.05 5.05.302 1.018.587 2.046.862 3.083 3.214-2.892 6.7-4.581 10.451-5.059l-.72 11.42c-.102 1.272.893 2.196 2.96 2.776 2.052.572 4.667.66 7.847.254 7.158-.91 13.658-3.283 19.496-7.116 5.839-3.833 10.823-8.99 14.954-15.488-3.877 3.093-8.528 4.989-13.951 5.678m-28.933 2.43c2.596.155 3.947.871 4.061 2.161.09 1.079-1.053 2.363-3.418 3.845-.239.137-.576.349-.995.628l.352-6.634m7.565 11.406c-2.49.319-4.385.297-5.686-.061-1.296-.36-1.993-1.057-2.083-2.089-.027-.354.11-.722.415-1.12.591-.394 1.043-.68 1.347-.868 2.392-1.458 3.661-2.678 3.802-3.657l.889-6.272c6.089 3.434 13.524 4.597 22.315 3.481.709-.094 1.895-.292 3.552-.613-6.534 6.212-14.718 9.943-24.551 11.199"/><path fill="#a6a8ab" d="m21.596 60.662c.235.846-.889 1.922-2.514 2.404-1.629.484-3.144.191-3.383-.654l-15.616-55.45c-.237-.842.893-1.922 2.52-2.404 1.627-.481 3.139-.187 3.377.658l15.616 55.45"/><path fill="#939292" d="m18.647 61.54l-15.611-55.45c-.161-.56.301-1.229 1.1-1.754-.47 0-.995.063-1.533.223-1.627.482-2.757 1.562-2.52 2.404l15.616 55.45c.239.846 1.754 1.139 3.383.654.537-.16 1.014-.389 1.41-.65-.948-.004-1.684-.312-1.845-.879"/></svg>