<svg xmlns="http://www.w3.org/2000/svg" viewBox="0 0 64 64" enable-background="new 0 0 64 64"><g fill="#5e4422"><path d="m11.575 40.801c0 0-1.746.935-3.527 2.749 0 0-.475.953-2.439 1.051l-.738 2.811c0 0 1.553 1.663 5.953.082 0 0 1.182-.482 2.353-.95.682-.269 1.351.117 1.988-.833-.481-.592-.52-1.386-.993-2.044-.473-.642-.113-1.117-.444-1.775-.269-.425-1.232-1.037-2.153-1.091"/><path d="m15.227 43.01c-.415-.76-.878-1.25-1.335-1.558.054.086.109.167.159.265 0 0 1.221 1.768-.506 3.286-.095.104-.191.175-.288.233-.483.288-.981.132-1.483.335-1.172.467-2.35.946-2.35.946-2.184.782-3.669.771-4.607.553l-.173.657c0 0 1.553 1.663 5.957.082 0 0 1.18-.479 2.35-.95.5-.198 1-.042 1.481-.327.097-.058.195-.132.286-.233 1.727-1.522.509-3.289.509-3.289"/><path d="m23.943 57.21c0 0 2.278-1.495.74-4.392 0 0-4.446-6.03 1.061-8.689 0 0 11.858-3.278 7.382 8.233 0 0-2.708 4.703-4.375 5.03l-4.808-.186"/></g><path fill="#a07f4a" d="m35.779 39.29c0 0 9.07-10.939 6.316-21.953-2.742-11.01 11.246-17.298 19.918-10.391 0 0 10.979 7.973-19.429 38.08l-6.797-5.303"/><path fill="#393534" d="m50.15 4.59c-1.861 2.503-2.973 5.35-3.624 8.312-.719 3.274-1.01 6.603-1.726 9.869-.774 3.555-2.262 6.825-4.202 9.994-1.472 2.402-3.075 4.738-4.519 7.155l1.55 1.207c.827-.919 1.695-1.814 2.4-2.822 1.164-1.667 1.972-3.527 2.855-5.322 1.686-3.43 3.658-6.84 4.485-10.539.874-3.909.829-7.946 1.821-11.832.609-2.387 1.826-4.493 3.345-6.463-.815.078-1.613.224-2.385.441"/><path fill="#e6e7e8" d="m40.47 41.13c5.244-5.444 8.437-12.229 11.349-18.882.701-1.608 1.379-3.228 2.149-4.808.731-1.507 1.519-2.998 2.14-4.54.602-1.495 1.072-3.048 1.109-4.637.029-1.351-.224-2.644-.691-3.885-1.351-.331-2.729-.44-4.076-.351-1.736 2.223-3.114 4.633-3.614 7.374-.699 3.815-.748 7.744-1.764 11.516-1 3.738-2.945 7.21-4.693 10.699-.843 1.682-1.616 3.367-2.71 4.929-.662.954-1.491 1.791-2.27 2.663l1.658 1.288c.489-.439.962-.895 1.413-1.366"/><path fill="#393534" d="m54.38 24.913c3.42-6.128 4.666-13.07 4.512-19.812-.812-.409-1.654-.499-2.501-.728.48 1.335.726 2.737.615 4.173-.248 3.146-1.861 6.02-3.243 8.876-1.552 3.2-2.843 6.498-4.374 9.706-2.669 5.569-5.877 11.11-10.598 15.444l.734.572c5.425-5.714 11.06-11.437 14.855-18.231"/><path fill="#a07f4a" d="m23.16 23.03c0 0 10.216-3.193 17.72 4.543 0 0 .265.288.682.814.416.533.99 1.296 1.613 2.254 3.66 3.559 5.408 8.861 4.768 13.638-.125.954-.345 1.889-.668 2.784-.678 2.355-2.299 4.263-4.403 5.641-.702.46-1.454.858-2.258 1.188-1.066.374-2.12.627-3.163.771-1.636.043-3.229-.089-4.801-.361-.786-.137-1.561-.308-2.335-.506-.86-.339-1.721-.67-2.576-1.01-1.824-.899-3.673-1.76-5.522-2.624-.615-.292-2.785-1.191-3.395-1.483-5.168-4.353-8.719-8.3-14.625-11.523 2.955-.806 6.177-1.347 9.458-1.741.639-.077 1.279-.147 1.921-.201 1.73-.266 2.936-.454 2.936-.454s3.253-6.819 3.317-7.193c.064-.377 1.331-4.538 1.331-4.538"/><path fill="#bc9762" d="m43.03 43.779c-1.616 1.456-3.498 2.814-5.35 3.508-6.295 2.354-16.11.354-22.24-1.464 1.125 1.01 2.289 2.044 3.547 3.106.613.288 2.781 1.195 3.398 1.483 1.847.86 3.699 1.725 5.522 2.624.858.335 1.715.67 2.578 1.01.771.202 1.547.373 2.334.506 1.57.272 3.165.405 4.798.362 1.048-.145 2.097-.394 3.163-.768.803-.331 1.56-.731 2.259-1.191 2.105-1.37 3.726-3.281 4.402-5.637.323-.896.366-1.658.495-2.616.021-.172.031-.572.049-.748-1.652-.477-3.257-.415-4.957-.17"/><g fill="#c19e61"><path d="m25.13 35.24c0 0 21.349-4.579 22.929 6.45 0 0-.537-5.15-1.856-7.01l-5.622-3.204-9.198-1.83-5.557 1.522-.696 4.07"/><path d="m3.01 28.3c0 0-8.271 6.864 3.272 11.158 2.184.81.576-.966.576-.966l-2.529-6.245-1.319-3.947"/></g><g fill="#393534"><path d="m22.896 24.917c0 0 9.118-3.282 19.734 4.03 0 0 1.454 1.935 2.024 2.896 0 0-7.625-1.199-7.759-1.359-.135-.16-7.354-3.897-7.354-3.897l-3.488-.502c0 0-1.809.125-1.997-.047-.186-.166-1.16-1.12-1.16-1.12"/><path d="m23.823 31.1c0 0 20.13-2.01 23.57 6.599 0 0-.748-4.503-3.194-5.587 0 0-8.05-4.173-8.725-4.248-.678-.078-9.09-.008-9.09-.008s-2.385.962-2.2 1.125c.181.172-.362 2.119-.362 2.119"/></g><path fill="#fff" d="m23.49 26.25l-.594 3.477c0 0 15.413-4.231 23.64 4.956-.734-1.55-1.562-2.918-2.319-4.02-4.528-3.489-11.745-7.02-20.727-4.408"/><path fill="#af8e5a" d="m10.465 16.78c0 0-2.647-3.06-3.06-3.897-.415-.839-2.038-3.325-2.453-1.055 0 0-.748 6.174.564 8.105 1.308 1.935 2.807-.506 2.807-.506l2.142-2.647"/><path fill="#896a3d" d="m5.583 11.707c0 0 .272 1.822.107 2.523 0 0 .095 1.16.539 1.88 0 0 .426 1.888-.023 2.262l-.808.21c0 .001-.905-5.602.185-6.875"/><g fill="#c19e61"><path d="m5.702 19.416c0 0 7.971-8.332 16.373.875 0 0 .199.53.504 1.324.304.791.705 1.846 1.107 2.904 1.133 2.223 1.639 4.648 1.604 7.07-.01.81-.082 1.615-.212 2.418-.1.613-.224 1.234-.374 1.849-.146.615-.323 1.227-.527 1.82-.249 1.045-.627 1.944-1.114 2.724-.479.774-1.066 1.429-1.734 1.966-.699.619-1.427 1.074-2.17 1.366-6.105.666-14.159-3.896-16.201-9.491-.173-.678-.382-1.601-.543-2.558-.32-1.923-.429-4.01.4-4.687 1.211-.985.44-1.514 1.024-1.358 0-.001.783-5.852 1.863-6.226"/><path d="m16.852 16.842c0 0 3.975-4.929 6.562-4.613 0 0 4.54-.132 1.034 7.786 0 0-1.962 2.893-1.61 6.05 0 0-1.277.93-1.746-.272 0 0-3.549-6.775-4.24-8.955"/></g><path fill="#a07f4a" d="m19.78 20.973c0 0-.391-5.895 2.542-7.787 0 0 4.499-1.347 2.587 4.5 0 0-3.527 3.917-3.228 5.283 0 0 .631 1.04.193 1.44.001.002-2.201-.715-2.094-3.436"/><path fill="#7f6339" d="m23.477 19.423c-.787-1.145-2.472-1.051-3.461-1.997-.358 1.884-.248 3.601-.248 3.601-.105 2.722 2.093 3.438 2.093 3.438.444-.401-.187-1.44-.187-1.44-.125-.561 1.15-2.632 1.803-3.602"/><path fill="#c19e61" d="m13.03 33.502c0 0-.909 9.05 9.1 8.08 0 0 13.574-7.881.31-13.58 0 0-4.944-1.573-6.55.39-1.61 1.962-2.858 5.112-2.858 5.112"/><path fill="#a07f4a" d="m22.684 28c0 0-4.993-1.51-6.772.288.609.133 1.01.253 1.01.253 11.187 4.582 4.169 10.578.993 12.75 1.189.327.156 2.332 1.954 2.165 0 0 17.202-9.542 2.817-15.456"/><path fill="#ded2ba" d="m6.983 26.08c-.091.128-3.062 4.205-4.25.993l.417-.701.401-.596.977-3.815c0 0 .588-.658.699-.611.107.047 1.584 1.468 1.715 1.701.128.234.041 3.03.041 3.03"/><path fill="#a07f4a" d="m2.543 25.364c0 0-.396 1.814.304 1.651 0 0 .729-.105 1.051.195 0 0 .956.354 1.156-1.729.199-2.079-.29-4.547-1.129-3.78 0 0-1.086 1.082-1.1 2.958-.014 1.88-.047.156-.047.156s-.109.565-.235.549"/><path fill="#393534" d="m3.822 22.343c0 0 1.47-.436.781 3.882 0 0-.989 1.02-1.4.06 0 0-.605-.399.045-2.938 0 .001.317-1.019.574-1"/><path fill="#fff" d="m3.648 24.547c.066.269.43.066.43.066.349-2.036-.596-1.85-.596-1.85-.132.304-.228.611-.228.611-.187.724-.284 1.3-.331 1.764l.228-.265c.091-.622.497-.326.497-.326"/><path fill="#8e6e40" d="m17.189 41.767c0 0-2.498 1.331-5.04 3.924 0 0-.674 1.363-3.484 1.499l-1.051 4.02c0 0 2.219 2.371 8.508.113 0 0 1.686-.682 3.36-1.354.967-.382 1.931.167 2.84-1.191-.689-.841-.751-1.981-1.417-2.916-.681-.915-.164-1.597-.632-2.538-.392-.605-1.764-1.481-3.082-1.555"/><path fill="#fff" d="m5.607 36.464l.422 1.581c0 0 1.497 1.623 3.475.385l.424-1.218-1.332-1.254-.839-.21-.705.124-.482.175-.963.417"/><g fill="#8d4e31"><path d="m5.206 36.666c-.707-.112-1.481-.654-2.32-1.627l.14-.349c1.328 1.544 2.48 1.972 3.42 1.279.839-.611 1.195-1.935 1.201-1.946l.189.108c-.016.063-.411 1.519-1.348 2.209-.399.288-.827.4-1.282.326"/><path d="m11.458 37.963c-1.337-.21-2.163-.802-2.668-1.417-.894-1.083-.925-2.359-.925-2.41l.263-.077c0 .008.037 1.172.854 2.152.923 1.109 2.961 2.138 7.436.729l.014.412c-2.165.685-3.777.797-4.974.611"/><path d="m6.57 36.16c0 0 .714 1.086 2.373.137l-.555-.725-.343-.81.091-1.083c0 0-.588-.03-.545.07.045.113.099.686.099.686l-.261.327-.109.41-.313.4-.208.257-.229.331"/></g><path fill="#ded2ba" d="m15.417 18.976c0 0 6.301 3.267 3.782 10.687 0 0-9.941 3.625-9.05-2.433l5.268-8.254"/><path fill="#a07f4a" d="m16 21.44c0 0-1.057.119-1.816 3.037-.234.903-.707 3.064.372 2.99 0 0 1.476-.016 2.174.374 0 0 2 .553 2.114-1.842.115-2.394-1.234-5.333-2.844-4.559"/><path fill="#393534" d="m15.891 22.17c0 0 2.943-.296 2.143 4.629 0 0-1.878 1.043-2.852-.128 0 0-1.287-.545-.321-3.411 0 0 .5-1.136 1.03-1.09"/><path fill="#fff" d="m15.554 25.03c.13.35.732.117.732.117.459-2.632-1.113-2.449-1.113-2.449-.288.354-.413.884-.413.884-.329 1.148-.259 1.553-.197 2.208l.385-.459c.115-.808.606-.301.606-.301"/><path fill="#a07f4a" d="m7.892 32.28c0 0 7.216-8.892 8.672-14 0 0 .207-1.942-1.479-2.496 0 0-4.884-.973-9.322 3.59 0 0-1.46 1.133-.639 3.278 0 0 .195 6.513 1.764 9.289"/><g fill="#aa8550"><path d="m15.08 15.783c0 0-1.277-.253-3.118.105.315.027.495.066.495.066 1.682.549 1.475 2.492 1.475 2.492-1.086 3.823-5.392 9.752-7.496 12.509.134.358.282.697.448.985l1 .343c0 0 7.216-8.892 8.67-14-.001 0 .208-1.943-1.478-2.496"/><path d="m8.509 30.542c-1.569-2.78-1.762-9.293-1.762-9.293-.826-2.149.634-3.274.634-3.274.021-.019.043-.042.062-.062-.559.409-1.125.897-1.682 1.472 0 0-1.46 1.129-.639 3.274 0 0 .195 6.513 1.764 9.289l1 .347c0 0 .479-.592 1.21-1.549l-.591-.204"/></g><g fill="#92278f"><path opacity=".1" d="m18.711 35.927c-1.871 1.09-3.973.966-4.693-.272-.722-1.242.208-3.135 2.081-4.224 1.869-1.09 3.971-.965 4.693.276.724 1.241-.206 3.129-2.081 4.22"/><ellipse transform="matrix(.8595-.5112.5112.8595-16.12 5.935)" opacity=".1" cx="2.735" cy="32.29" rx=".964" ry="2.16"/></g><path fill="#8d4e31" d="m9.366 31.06c-.81.374-1.912.604-2.76.191-.045-.031-.1-.055-.158-.066-.272-.109-.526.035-.646.25-.012.016-.02.039-.025.058-.005.008-.009.023-.013.031-.008.02-.016.039-.018.062-.004.012-.006.031-.01.047-.002.011-.006.023-.006.035-.15 1.639 1.283 2.991 2.926 2.57 1.129-.288 1.52-1.702 1.499-2.722-.007-.429-.433-.623-.789-.456"/><path fill="#8e6e40" d="m17.02 41.856c0 0 2.63-1.285 5.307 2.908l-.551 2.448c0 0-1.569-.312-1.974-.443-.403-.137-2.614-1.164-2.704-1.542-.09-.377-.078-3.371-.078-3.371"/><path fill="#8d4e31" d="m9.553 49.54c.121-.67.017-1.425-.399-2.27-.312-.748-.802-1.619-1.542-2.667-.16-.222-.308-.432-.452-.627-.195-.159-.393-.327-.576-.518.053.074.097.148.142.214-.654-.661-1.592-1.191-2.93-1.437 0 0-3.06 1.137-3.685 3.415-.025.085-.046.179-.064.276-.119.661-.023 1.421.403 2.266.308.743.8 1.623 1.54 2.663.159.229.307.436.449.63.199.16.392.327.574.515-.046-.074-.093-.145-.14-.211.654.662 1.592 1.191 2.93 1.438 0 0 3.058-1.142 3.685-3.411.028-.088.049-.182.065-.276"/><g fill="#753d28"><path d="m29.457 57.54c0 .525-1.511.949-3.377.949-1.861 0-3.374-.424-3.374-.949 0-.522 1.513-.95 3.374-.95 1.866 0 3.377.428 3.377.95"/><path d="m25.633 57.51c0 .377-.971.685-2.168.685-1.199 0-2.168-.308-2.168-.685 0-.382.969-.686 2.168-.686 1.197 0 2.168.304 2.168.686"/><path d="m25.31 57.865c.138.361-.677.883-1.824 1.16-1.145.276-2.186.21-2.324-.152-.14-.366.677-.88 1.822-1.16 1.146-.276 2.19-.21 2.326.152"/><path d="m27.13 57.07c.347.261-.046 1.032-.877 1.721-.826.689-1.775 1.036-2.12.771-.346-.261.049-1.032.88-1.717.826-.689 1.775-1.035 2.117-.775"/></g><path fill="#a07f4a" d="m2.993 23.445c0 0-.584 1.76-.547 2.546.037.787.212 0 .212 0s.195-.062.205-.167c.007-.103.007-.374.007-.374s0-.919.027-1.055c.025-.136.096-.95.096-.95"/><path fill="#8e6e40" d="m9.461 47.11c0 0-2.727-.307-2.852.339 0 0-2.494 3.57 2.09 4.976 0 0 1.322-.635 1.373-.685.053-.047.823-3.656.823-3.656l-1.434-.974"/><path fill="#826130" d="m22.408 44.912c-.596-1.086-1.251-1.787-1.906-2.23.076.124.152.249.23.381 0 0 1.742 2.527-.728 4.703-.137.141-.271.249-.411.331-.689.413-1.399.187-2.116.472-1.676.669-3.36 1.354-3.36 1.354-3.124 1.121-6.582 1.051-7.925.743l.707.856c0 0 2.606 2.508 8.896.245 0 0 1.684-.681 3.36-1.351.712-.284 1.427-.062 2.118-.471.138-.086.272-.195.409-.335 2.468-2.172.726-4.698.726-4.698"/><g fill="#a07f4a"><path d="m34.512 58.25c0 0 2.277-1.493.737-4.392 0 0-4.444-6.03 1.062-8.688 0 0 11.858-3.28 7.381 8.232 0 0-2.705 4.703-4.372 5.04l-4.808-.188"/><path d="m35.405 51.69c0 0 2.277-1.495.739-4.392 0 0-4.446-6.03 1.062-8.689 0 0 11.561 1.503 7.083 13.02 0 0-2.409-.078-4.076.253l-4.808-.187"/></g><g fill="#753d28"><path d="m40.02 58.59c0 .523-1.511.948-3.377.948-1.861 0-3.374-.425-3.374-.948 0-.521 1.513-.95 3.374-.95 1.867 0 3.377.428 3.377.95"/><ellipse cx="34.03" cy="58.55" rx="2.168" ry=".688"/><path d="m35.876 58.908c.139.36-.677.884-1.823 1.16-1.146.274-2.187.208-2.325-.154-.14-.363.677-.879 1.822-1.158 1.146-.278 2.19-.21 2.326.152"/><path d="m37.698 58.11c.347.261-.047 1.029-.878 1.721-.825.687-1.775 1.035-2.12.771-.347-.263.049-1.031.88-1.719.827-.69 1.775-1.035 2.118-.773"/></g></svg>