<svg xmlns="http://www.w3.org/2000/svg" viewBox="0 0 64 64" enable-background="new 0 0 64 64"><g fill="#633d19"><path d="m48.13 60.18c.186 1.613 4.361 1.438 8.824-.488 4.473-1.928 6.518-5.922 6.324-7.532-.18-1.617-6.834-19.675-11.301-17.748-4.466 1.924-4.03 24.15-3.847 25.768"/><path d="m58.891 28.896c0 7.911-12.1 14.333-27.02 14.333-14.912 0-27.02-6.422-27.02-14.333v-7.656c0-7.912 12.11-20.19 27.02-20.19 14.915 0 27.02 12.274 27.02 20.19v7.656"/></g><path fill="#ed307c" d="m58.53 36.629c.434 2.625-2.01 2.914-5.33 3.377-3.318.467-6.262.926-6.699-1.697-.436-2.625 1.906-5.127 5.227-5.594 3.322-.462 6.367 1.29 6.802 3.914"/><path fill="#633d19" d="m15.872 60.18c-.188 1.613-4.359 1.438-8.823-.488-4.472-1.928-6.519-5.922-6.327-7.532.182-1.617 6.835-19.675 11.304-17.748 4.466 1.924 4.03 24.15 3.846 25.768"/><path fill="#ed307c" d="m5.475 36.629c-.436 2.625 2.01 2.914 5.328 3.377 3.319.467 6.264.926 6.696-1.697.44-2.625-1.903-5.127-5.223-5.594-3.321-.462-6.369 1.29-6.801 3.914"/><path fill="#fbbf67" d="m7.313 35.1c0 9.754 10.823 17.646 24.2 17.646 13.36 0 24.19-7.894 24.19-17.646 0-9.739-10.821-33.771-24.18-33.771-13.373.003-24.2 24.03-24.2 33.771"/><g fill="#25333a"><path d="m26.825 35.697c0 2.381-1.604 4.318-3.564 4.318-1.975 0-3.56-1.938-3.56-4.318 0-2.383 1.585-4.332 3.56-4.332 1.959 0 3.564 1.949 3.564 4.332"/><path d="m43.746 35.697c0 2.381-1.598 4.318-3.561 4.318-1.978 0-3.563-1.938-3.563-4.318 0-2.383 1.586-4.332 3.563-4.332 1.963 0 3.561 1.949 3.561 4.332"/></g><path fill="#633d19" d="m52.703 27.805c.041-6.621.074-11.02.143-17.766-11.979-11.666-29.15-12.01-41.44-.126-.133 6.646-.266 13.14-.409 19.667 13.71-1.685 27.76-2.273 41.709-1.775"/><path fill="#633f1a" d="m40.15 43.45c0 4.774-3.873 8.651-8.654 8.651-4.773 0-8.648-3.877-8.648-8.651"/><path fill="#fff" d="m38.67 44.32c0 1.91-3.273 3.459-7.31 3.459-4.04 0-7.315-1.549-7.315-3.459"/><path fill="#ed307c" d="m15.09 14.393c.758-14.261 32.664-11.436 35.535-2.73-12.996-1.827-22.71-1.559-35.535 2.73"/><g opacity=".48"><path fill="#ed307c" d="m55.31 42.34c0 2.074-4.115 3.75-9.188 3.75-5.078 0-9.191-1.676-9.191-3.75 0-2.068 4.113-3.744 9.191-3.744 5.072 0 9.188 1.675 9.188 3.744"/></g><g opacity=".48"><path fill="#ed307c" d="m26.911 42.34c0 2.074-4.115 3.75-9.19 3.75-5.08 0-9.19-1.676-9.19-3.75 0-2.068 4.11-3.744 9.19-3.744 5.074 0 9.19 1.675 9.19 3.744"/></g></svg>