<svg xmlns="http://www.w3.org/2000/svg" viewBox="0 0 64 64" enable-background="new 0 0 64 64"><g transform="translate(2 .134)"><g><g fill="#eea63b"><path d="m7.893 29.419c-2.525.003-4.563 3.329-4.556 8.437.006 5.108 2.053 8.431 4.578 8.428 2.521-.004 8.742-3.336 8.736-8.443-.008-5.109-6.233-8.426-8.758-8.422"/><path d="m49.36 28.517c2.521.003 4.562 3.33 4.554 8.437-.004 5.107-2.053 8.43-4.577 8.428-2.521-.004-8.742-3.337-8.738-8.444.007-5.108 6.236-8.425 8.761-8.421"/></g><g fill="#fbbf67"><path d="m51.02 40.07c0 15.182-9.953 22.776-22.24 22.776-12.285 0-22.24-7.595-22.24-22.776 0-15.181 9.955-32.2 22.24-32.2 12.283 0 22.24 17.02 22.24 32.2"/><path d="m43.37 49.34c0 9.613-6.526 14.426-14.586 14.426-8.06 0-14.588-4.812-14.588-14.426 0-9.615 6.529-20.395 14.588-20.395 8.06 0 14.586 10.78 14.586 20.395"/></g><path d="m53.918 19.879c-1.35-3.929-3.216-4.567-5.824-6.268.433-.496-.516-1.025.084-1.948.258-.392 1.06-1.403.306-1.332-5.726.547-11.22-5.532-16.659-7.662-8.275-3.241-16.242 1.205-16.899 1.821-3.921 3.647-10.376 12.688-11.506 18.716-.274 1.455-.097 6.05 4.123.922.04 3.043-.659 6.539-.445 9.592.119 1.647 2.152 0 3.855-8.807 1.445-7.455 10.07-3.717 13.792-4.266 3.637 1.728 4.272.781 9.238-.881 9.33-3.122 12.459-.212 15.198 8.603-.035.001-.06.05-.06.155 0 1.731-.175 4.5 1.14 5.849.719.739 1.191-1.144 1.213-1.551.058-1.076-.229-2.144-.392-3.21 1.553-.293 3.586-1.379 3.232-1.713-3.982-3.77-2.195-3.563-2.954-7.106.549.375 2.952.242 2.558-.914" fill="#e0cf35"/><g fill="#fff"><path d="m25.15 33.943c0 4.344-2.347 7.857-5.246 7.857-2.9 0-5.251-3.514-5.251-7.857 0-4.34 2.351-7.859 5.251-7.859 2.9 0 5.246 3.52 5.246 7.859"/><path d="m42.913 33.943c0 4.344-2.351 7.857-5.249 7.857-2.895 0-5.249-3.514-5.249-7.857 0-4.34 2.354-7.859 5.249-7.859 2.898 0 5.249 3.52 5.249 7.859"/></g><g fill="#25333a"><path d="m23.304 33.943c0 2.271-1.52 4.118-3.396 4.118-1.88 0-3.398-1.847-3.398-4.118 0-2.273 1.519-4.114 3.398-4.114 1.877 0 3.396 1.841 3.396 4.114"/><path d="m41.06 33.943c0 2.271-1.517 4.118-3.395 4.118-1.874 0-3.395-1.847-3.395-4.118 0-2.273 1.521-4.114 3.395-4.114 1.878 0 3.395 1.841 3.395 4.114"/></g><path d="m25.559 42.31c0-1.534 1.306-5.412 3.089-5.412 1.783 0 3.367 3.878 3.367 5.412 0 1.538-1.445 2.783-3.228 2.783-1.783 0-3.228-1.244-3.228-2.783" fill="#e8a041"/><path d="m26.21 54.817c-1.156-.139-2.029-.748-1.958-1.357.075-.618 1.076-.999 2.227-.857l4.879.595c1.159.146 2.029.755 1.957 1.364-.079.613-1.071.99-2.223.85l-4.882-.595" fill="#cd8d3b"/></g><g><path d="m55.55 28.875c.056-.702.092-1.41.092-2.127 0-14.773-11.975-26.748-26.748-26.748-14.772 0-26.748 11.975-26.748 26.748 0 .717.038 1.425.091 2.127h53.31" fill="#e0cf35"/><path d="m57.57 28.522c0 .77-.625 1.395-1.396 1.395h-54.78c-.771 0-1.396-.625-1.396-1.395 0-.771.625-1.395 1.396-1.395h54.781c.77 0 1.395.624 1.395 1.395" fill="#b2a334"/><g fill="#08a69b"><path d="m32.392 22.869c0 2.156-1.75 3.905-3.906 3.905-2.156 0-3.903-1.749-3.903-3.905v-16.862c0-2.156 1.747-3.904 3.903-3.904 2.156 0 3.906 1.748 3.906 3.904v16.862"/><path d="m42.4 14.01c0 2.292-1.857 4.149-4.148 4.149h-19.522c-2.291 0-4.149-1.857-4.149-4.149 0-2.291 1.858-4.149 4.149-4.149h19.522c2.291 0 4.148 1.858 4.148 4.149"/></g></g></g></svg>