<svg xmlns="http://www.w3.org/2000/svg" viewBox="0 0 64 64" enable-background="new 0 0 64 64"><g transform="translate(4)"><path fill="#704c25" d="m40.4 6.04c-1.229-1.562-6.449-1.396-5.285 1.881.164.481 2.252-3.01 3.705.15.496 1.075-.342 3.943-8.668.335-3.948-1.711-7.59-4.077-11.444-6-4.317-2.158-9.14-3.718-13.761-1.612-1.829.83-3.912 2.729-4.379 4.672-2.685 11.132 4.855 11.01 7.08 11.136 1.58.094 3.144-.008 4.725-.08 2.886-.136 5.39.688 8.104 1.518 5.602 1.719 27.301-2.649 19.926-12"/><path fill="#5c3c1d" d="m40.4 6.04c-.356-.455-1.053-.756-1.828-.884.156.132.333.244.467.397 6.576 7.651-10.422 10.502-14.425 10.269-6.174-.361-21.247-1.59-20.816-10.572.125-2.639 1.693-4.328 3.844-5.254-.902.156-1.804.391-2.695.798-1.829.83-3.912 2.729-4.379 4.672-2.685 11.132 4.855 11.01 7.08 11.136 1.58.094 3.144-.008 4.725-.08 2.886-.136 5.39.688 8.104 1.518 5.602 1.719 27.301-2.649 19.926-12"/><g fill="#fbbf67"><path d="m23.738 32.378c.455-.148 1.865.614 2.39.554.289-.033 2.455.369 0-2.02-5.812-5.681-8.807-9.977-9.626-13.232-.931-2.114-4.45-.108-5.637-1.993 2.196-2.344 3.541-11.567-.8-10.482-9.347-1.587-5.39 7.392-3.02 9.989-12.44 3.502 3.78 20.667 11.467 19.19.736-3.03-3.173-3.03-4.913-4.428-3.542-2.85-3.193-5.982-5.056-8.77 8.344-.232 9.742 6.825 15.197 11.193"/><path d="m22.671 42.628c-2.062.758-2.769 5.317-.063 10.774 2.672 5.394 6.417-13.11.063-10.774"/></g><path fill="#de374b" d="m54.713 23.849c-1.49-2.689-5.122-3.335-8.08-2.473-4.255 1.241-4.504 4.269-.699 6.279 1.021.542-2.173-4.591 1.939-3.401 2.355.68 1.027 3.621.593 5.04-.562 1.847-1.688 3.182-3.159 4.137-.428.243-.867.479-1.313.719-1.416.645-3.039 1.033-4.73 1.242-4.078.493-7.943-.24-11.498-2.033-1.618-.813-3.171-1.569-4.96-2.026-2.01-.513-4.077-.736-5.783-1.909-.423-.74-.81-1.488-1.398-1.951-.429-2.057 1.155-4.552-.038-6.571-.945-1.593-4.285-2.549-6.164-2.293-2.118.283-3.179 1.4-2.864 3.381.224 1.402 1.189 2.75 1.751 4.059.74 1.717.579 3.519.191 5.282-.072.032-.127.072-.147.12-2.378 6.41.105 14.609 7.769 17.939 15.09 6.561 24.919-.423 28.545-3.199.842-.646 4.365-3.793 5.092-4.737 4.576-5.11 8.116-11.915 4.957-17.606"/><path fill="#bf3049" d="m54.713 23.849c-.156-.285-.343-.541-.547-.778.878 3.484-8.932 28.16-32.05 23.18-12.345-2.665-9.481-15.02-14.907-26.711-.584.571-.832 1.38-.66 2.454.224 1.402 1.189 2.75 1.751 4.059.74 1.717.579 3.519.191 5.282-.072.032-.127.072-.147.12-2.378 6.411.105 14.61 7.769 17.94 15.09 6.56 24.919-.424 28.545-3.199.842-.646 4.366-3.793 5.092-4.738 4.577-5.108 8.117-11.913 4.958-17.604"/><path fill="#fbbf67" d="m13.591 30.332c-3.514-2.832-7.445-11.478-10.802-11.478-2.294 6.102 9.502 17.1 15.718 15.906.739-3.02-3.174-3.03-4.916-4.428"/><g><path fill="#fbbf67" d="m22.917 52.3c-2.22.128-4.498 4.248-3.86 10.2.632 5.881 10.711-10.596 3.86-10.2"/><path fill="#de374b" d="m21.526 59.14c-.164.066-.6-1.875-.762-2.563-.531-.133-1.053-.279-1.594-.391-.319 1.9-.441 4.049-.213 6.418.375 3.922 3.698-.023 5.836-4.734-.297-.128-.61-.212-.912-.323-.699.65-1.465 1.218-2.355 1.593"/></g><g><path fill="#fbbf67" d="m20.367 43.845c-3.167-1.87-11.467.993-18.14 8.712-6.594 7.631 27.905-2.936 18.14-8.712"/><path fill="#de374b" d="m8.631 51.36c-.445-.191.269-2.876.857-3.56-.281-.363-.556-.729-.85-1.09-2.318 1.586-4.671 3.588-6.868 6.125-3.638 4.209 4.137 3.363 11.388.679-.292-.582-.608-1.156-.939-1.728-1.215.093-2.417.081-3.588-.426"/></g></g></svg>