<svg xmlns="http://www.w3.org/2000/svg" viewBox="0 0 64 64" enable-background="new 0 0 64 64"><path fill="#f1abb8" d="m63.56 19.295c-.245-3.822-1.064-6.928-3.726-10.125-5.332-6.397-17.588-7.461-23.08-1.304-.956.906-1.858 1.996-2.767 3.299l-2.051 2.947-2.053-2.947c-.909-1.303-1.813-2.393-2.77-3.299-5.484-6.157-17.739-5.093-23.07 1.304-2.665 3.197-3.484 6.303-3.729 10.125-.347 11.367 7.9 20.468 8.918 21.802 5.599 6.567 11.705 12.777 17.908 18.498 1.122.982 2.091 1.799 3.06 2.61.585.476 1.157.956 1.737 1.43.578-.474 1.151-.954 1.73-1.43.975-.812 1.943-1.628 3.062-2.61 6.203-5.721 12.312-11.931 17.909-18.498 1.018-1.334 9.268-10.435 8.918-21.802"/><path fill="#e65a70" d="m58.42 22.22c-.205-3.201-.892-5.802-3.12-8.479-4.466-5.356-14.729-6.248-19.325-1.092-.8.759-1.556 1.672-2.316 2.763l-1.717 2.469-1.72-2.469c-.761-1.091-1.519-2-2.319-2.763-4.594-5.157-14.857-4.265-19.322 1.091-2.232 2.678-2.919 5.278-3.123 8.479-.29 9.52 6.616 17.14 7.469 18.258 4.688 5.5 9.802 10.701 14.997 15.491.939.823 1.751 1.507 2.563 2.187.489.398.969.801 1.455 1.197.483-.396.964-.799 1.449-1.197.815-.68 1.627-1.363 2.563-2.187 5.194-4.79 10.311-9.991 14.998-15.491.853-1.117 7.762-8.738 7.468-18.257"/><path fill="#bc2133" d="m52.04 26.438c-.155-2.423-.675-4.391-2.361-6.417-3.379-4.053-11.146-4.728-14.623-.826-.605.574-1.178 1.266-1.753 2.091l-1.3 1.868-1.301-1.869c-.576-.825-1.149-1.517-1.755-2.091-3.477-3.901-11.243-3.227-14.621.826-1.688 2.026-2.208 3.994-2.363 6.417-.22 7.203 5.01 12.971 5.651 13.815 3.549 4.162 7.418 8.098 11.349 11.723.711.623 1.325 1.141 1.939 1.654.37.302.733.606 1.101.906.366-.3.73-.604 1.098-.906.616-.514 1.23-1.031 1.939-1.654 3.931-3.625 7.802-7.561 11.35-11.723.644-.844 5.873-6.611 5.65-13.814"/></svg>