<svg xmlns="http://www.w3.org/2000/svg" viewBox="0 0 64 64" enable-background="new 0 0 64 64"><g transform="translate(0 1.218)"><path d="m63.07 0c-12.655 0-25.315 0-37.976 0-8.05 0-16.1 0-24.16 0-.512 0-.937.43-.937.939 0 12.814 0 25.626 0 38.438 0 7.33 0 14.666 0 21.996 0 .512.425.941.937.941 12.661 0 25.319 0 37.979 0 8.05 0 16.11 0 24.15 0 .28 0 .494-.104.641-.252.009-.011.014-.018.022-.024.013-.009.022-.02.026-.026.151-.151.249-.365.249-.639 0-12.812 0-25.626 0-38.44 0-7.328 0-14.661 0-21.994 0-.509-.426-.939-.938-.939" fill="#25333a"/><g fill="#3f565f"><path d="m60.773 25.31c-11.765 0-23.53 0-35.29 0-7.482 0-14.964 0-22.45 0-.472 0-.87.253-.87.556 0 7.611 0 15.216 0 22.826 0 4.354 0 8.708 0 13.06 0 .301.398.557.87.557 11.766 0 23.532 0 35.29 0 7.484 0 14.964 0 22.449 0 .258 0 .454-.064.592-.153.009-.003.014-.009.018-.014.009-.004.022-.009.027-.014.142-.089.235-.216.235-.376 0-7.61 0-15.222 0-22.826 0-4.357 0-8.71 0-13.06 0-.303-.4-.556-.872-.556"/><path d="m60.773 2.453c-11.765 0-23.53 0-35.29 0-7.482 0-14.964 0-22.45 0-.472 0-.87.146-.87.322 0 4.42 0 8.844 0 13.266 0 2.53 0 5.061 0 7.589 0 .178.398.322.87.322 11.766 0 23.532 0 35.29 0 7.484 0 14.964 0 22.449 0 .258 0 .454-.035.592-.084.009-.002.014-.004.018-.006.009-.007.022-.009.027-.011.142-.049.235-.125.235-.22 0-4.42 0-8.84 0-13.264 0-2.533 0-5.061 0-7.591 0-.177-.4-.323-.872-.323"/></g><path d="m51.08 0c-7.773 0-15.547 0-23.323 0-4.945 0-9.89 0-14.835 0-.316 0-.579.156-.579.338 0 4.626 0 9.251 0 13.88 0 2.644 0 5.294 0 7.94 0 .185.263.338.579.338 7.773 0 15.547 0 23.323 0 4.947 0 9.89 0 14.835 0 .171 0 .303-.036.392-.091 0 0 .011-.004.016-.009 0 0 .011-.004.016-.011.093-.051.155-.129.155-.227 0-4.626 0-9.251 0-13.878 0-2.646 0-5.294 0-7.942 0-.182-.264-.338-.579-.338" fill="#e7e6e6"/><path d="m44.4 3.333c-2.179 0-4.36 0-6.539 0-1.384 0-2.771 0-4.157 0-.089 0-.164.109-.164.238 0 3.253 0 6.512 0 9.768 0 1.86 0 3.723 0 5.586 0 .126.075.238.164.238 2.179 0 4.362 0 6.539 0 1.384 0 2.774 0 4.157 0 .049 0 .084-.024.113-.064 0 0 0 0 .002-.004 0-.004.005-.007.005-.009.026-.038.046-.091.046-.16 0-3.254 0-6.51 0-9.766 0-1.858 0-3.725 0-5.588 0-.129-.077-.239-.166-.239" fill="#25333a"/><path d="m55.58 31.16c-9.605 0-19.21 0-28.817 0-6.109 0-12.22 0-18.326 0-.392 0-.712.211-.712.469 0 6.407 0 12.814 0 19.219 0 3.665 0 7.33 0 10.998 0 .258.321.472.712.472 9.605 0 19.21 0 28.812 0 6.115 0 12.22 0 18.331 0 .209 0 .369-.056.486-.129.009-.005.014-.007.018-.009.005-.007.014-.012.022-.016.111-.076.187-.183.187-.318 0-6.405 0-12.814 0-19.219 0-3.666 0-7.331 0-10.999 0-.256-.324-.468-.713-.468" fill="#e7e6e6"/><path d="m55.58 31.23c-9.605 0-19.21 0-28.817 0-6.109 0-12.22 0-18.326 0-.392 0-.712.033-.712.076 0 1.037 0 2.074 0 3.108 0 .593 0 1.188 0 1.778 0 .045.321.078.712.078 9.605 0 19.21 0 28.812 0 6.115 0 12.22 0 18.331 0 .209 0 .369-.007.486-.021 0 0 .014 0 .018-.004 0 0 .014 0 .022-.002.111-.001.187-.027.187-.052 0-1.034 0-2.071 0-3.108 0-.592 0-1.184 0-1.778 0-.042-.324-.075-.713-.075" fill="#57c6e9"/><g fill="#9d9ea4"><path d="m55.58 46.734c-9.605 0-19.21 0-28.817 0-6.109 0-12.22 0-18.326 0-.392 0-.712.009-.712.02 0 .265 0 .53 0 .795 0 .153 0 .303 0 .456 0 .011.321.018.712.018 9.605 0 19.21 0 28.812 0 6.115 0 12.22 0 18.331 0 .209 0 .369 0 .486-.004 0 0 .014 0 .018-.003 0 0 .014 0 .022 0 .111 0 .187-.004.187-.011 0-.265 0-.529 0-.795 0-.151 0-.302 0-.456 0-.011-.324-.02-.713-.02"/><path d="m55.58 54.52c-9.609 0-19.212 0-28.817 0-6.111 0-12.222 0-18.329 0-.392 0-.714 0-.714.021 0 .263 0 .529 0 .792 0 .156 0 .305 0 .459 0 .011.323.018.714.018 9.605 0 19.212 0 28.815 0 6.113 0 12.22 0 18.331 0 .209 0 .369-.002.486-.005 0 0 .009 0 .018-.002h.018c.116 0 .188-.007.188-.011 0-.265 0-.53 0-.795 0-.149 0-.305 0-.456 0-.012-.321-.021-.71-.021"/></g></g></svg>