<svg xmlns="http://www.w3.org/2000/svg" enable-background="new 0 0 64 64" viewBox="0 0 64 64"><g transform="matrix(.96707 0 0 .96707 6 .998)"><path d="m2.882 58.4c0 0 1.892 7.269 13.712 5.409l2.01-4.867-3.402-3.695-9.413-3.106-2.908 6.259" fill="#34484c"/><path d="m40.552 44.775c0 2.576-1.323 3.253-4.666 4.665l-28.547 12.05c-2.572 0-4.663-2.087-4.663-4.665v-40.11c0-2.576 1.515-3.431 4.663-4.663l28.547-12.05c2.578 0 4.666 2.087 4.666 4.666v40.11" fill="#ce8831"/><path d="m5.27 61c0 0 10.7 3.067 11.325 2.805.625-.265-.401-4.641-.401-4.641l-3.867-4.169-3.606-.168-.631.901-2.82 5.272" fill="#34484c"/><path d="m35.21 2.774l-31.665 13.306 1.484 8.529 4.715.471 15.732-2.534 9.78-5.126 7.201-9.86c-1.575-2.822-3.887-4.57-7.247-4.786" fill="#f4f5f5"/><path d="m11.939 19.03c0-.748.13-1.346.387-1.853-3.241-.303-6.301-1.241-8.536-3.253-.738.683-1.105 1.531-1.105 2.79v40.11c0 2.578 2.091 4.665 4.667 4.665l4.607-1.945c-.013-.134-.021-.271-.021-.406v-40.11z" fill="#34484c"/><path d="m50.628 48.729c0 2.576-1.321 3.251-4.663 4.663l-29.37 10.414c-2.576 0-4.666-2.089-4.666-4.665v-40.11c0-2.579 1.514-3.435 4.666-4.666l29.37-10.414c2.578 0 4.663 2.089 4.663 4.667v40.11" fill="#fbb041"/><g fill="#ad6e29"><path d="m38.469 16.195c.129.325-.037.691-.362.816l-15.62 6.02c-.325.125-.691-.034-.815-.36-.126-.327.035-.691.361-.816l15.62-6.02c.326-.123.692.039.816.362"/><path d="m38.469 19.07c.129.325-.037.691-.362.816l-15.62 6.02c-.325.125-.691-.036-.815-.361-.126-.326.035-.689.361-.816l15.62-6.02c.326-.126.692.036.816.361"/><path d="m33.16 24.09c.125.325.049.659-.174.744l-10.667 4.111c-.222.087-.503-.109-.629-.435-.124-.325-.046-.657.177-.744l10.667-4.112c.222-.084.503.111.626.436"/></g><g fill="#c6c7c7"><path d="m1.342 18.05c-1.944.701-1.448 2.597-.558 4.02 1.316 2.097 3.335 3.566 5.686 4.263 1.961.58 4.32.628 6.275.046 2.102-.622 2.382-3.109.817-4.457-.937-.802-2.253.59-1.312 1.396 1.319 1.134-.677 1.4-1.021 1.451-.575.085-1.164.083-1.738.077-1.03-.001-2.057-.222-3.041-.513-1.252-.372-2.274-1.208-3.153-2.142-.215-.23-1.727-2.184-1.389-2.305 1.155-.416.602-2.249-.566-1.831"/><path d="m1.342 25.34c-1.944.699-1.448 2.598-.558 4.02 1.316 2.097 3.335 3.566 5.686 4.262 1.961.581 4.32.63 6.275.048 2.102-.622 2.382-3.111.817-4.457-.937-.802-2.253.59-1.312 1.396 1.319 1.134-.677 1.398-1.021 1.451-.575.085-1.164.081-1.738.077-1.03-.001-2.057-.225-3.041-.516-1.252-.372-2.274-1.206-3.153-2.14-.215-.232-1.727-2.184-1.389-2.305 1.155-.415.602-2.25-.566-1.831"/><path d="m1.356 32.989c-1.946.701-1.449 2.599-.558 4.02 1.315 2.098 3.334 3.566 5.686 4.264 1.96.58 4.318.628 6.276.047 2.101-.623 2.381-3.112.814-4.458-.934-.802-2.251.59-1.312 1.396 1.321 1.134-.674 1.4-1.02 1.451-.571.084-1.159.082-1.736.076-1.026-.008-2.059-.222-3.043-.513-1.25-.372-2.272-1.209-3.15-2.14-.215-.232-1.729-2.187-1.391-2.308 1.158-.413.599-2.248-.566-1.83"/><path d="m1.356 40.621c-1.946.699-1.449 2.597-.558 4.02 1.315 2.098 3.336 3.566 5.686 4.264 1.96.58 4.318.626 6.276.046 2.101-.622 2.384-3.111.814-4.457-.934-.802-2.248.59-1.312 1.396 1.321 1.133-.674 1.398-1.02 1.45-.571.085-1.159.081-1.736.077-1.026-.001-2.059-.225-3.04-.516-1.253-.369-2.274-1.206-3.15-2.14-.218-.23-1.729-2.184-1.394-2.306 1.158-.413.599-2.247-.566-1.829"/><path d="m1.356 48.16c-1.946.701-1.449 2.598-.558 4.02 1.315 2.097 3.336 3.566 5.686 4.263 1.96.58 4.318.629 6.276.047 2.101-.622 2.384-3.109.814-4.457-.934-.803-2.248.59-1.312 1.396 1.321 1.134-.674 1.398-1.02 1.451-.571.085-1.159.081-1.736.077-1.026-.009-2.059-.223-3.04-.514-1.253-.372-2.274-1.206-3.15-2.14-.218-.232-1.729-2.187-1.394-2.308 1.158-.414.599-2.249-.566-1.83"/></g></g></svg>