<svg xmlns="http://www.w3.org/2000/svg" viewBox="0 0 64 64" enable-background="new 0 0 64 64"><path fill="#f79420" d="m63.54 2.425c-.037-1.139-.705-1.863-1.543-2.17-.825-.405-1.842-.377-2.692.434-.013.008-.025.019-.038.029-.008.008-.016.015-.024.023-.008.001-.017.019-.024.027-.042.038-.079.075-.116.116-12.02 12.02-24.04 24.04-36.06 36.06-7.441 7.442-14.883 14.883-22.325 22.325-1.553 1.556-.416 4.302 1.783 4.302 17.833 0 35.671 0 53.5 0 1.676 0 3.348 0 5.02 0 1.373 0 2.519-1.146 2.519-2.518 0-17.837 0-35.671 0-53.51 0-1.604 0-3.205 0-4.809.004-.105.004-.209-.005-.313m-10.688 24.296c0 7.952 0 15.905 0 23.86 0 .612-.51 1.123-1.122 1.123-.744 0-1.495 0-2.242 0-7.953 0-15.904 0-23.859 0-.978 0-1.485-1.227-.792-1.919 3.319-3.319 6.638-6.637 9.952-9.955 5.365-5.36 10.726-10.719 16.09-16.08.017-.019.033-.035.05-.052.004-.004.008-.008.013-.013 0-.004.008-.006.012-.001.002-.004.009-.001.013-.015.382-.361.834-.371 1.203-.193.373.139.672.461.688.967 0 .048 0 .096 0 .143-.002.715-.002 1.43-.002 2.144"/><path fill="#e88a24" d="m6.375 59.27c7.44-7.441 14.884-14.883 22.326-22.325 11.604-11.603 23.21-23.21 34.816-34.814-.139-.958-.73-1.595-1.489-1.873-.826-.405-1.843-.377-2.697.434-.008.008-.021.019-.033.029-.008.008-.017.015-.024.023-.009 0-.017.019-.025.027-.041.038-.078.075-.116.116-12.02 12.02-24.04 24.04-36.06 36.06-7.442 7.441-14.885 14.882-22.326 22.324-1.554 1.556-.417 4.302 1.782 4.302 1.875 0 3.752 0 5.628 0-2.2 0-3.337-2.747-1.783-4.302"/></svg>