<svg xmlns="http://www.w3.org/2000/svg" viewBox="0 0 64 64" enable-background="new 0 0 64 64"><g fill="#787878"><path d="m31.638 61.31c.101 1.351-1.094 2.544-2.673 2.663-1.575.119-2.94-.878-3.041-2.23-.101-1.352 1.094-2.543 2.671-2.664 1.577-.12 2.94.88 3.043 2.231"/><ellipse transform="matrix(.8042-.5944.5944.8042-19.889 39.585)" cx="50.13" cy="49.977" rx="2.865" ry="2.455"/><path d="m15.985 48.42c-.802 1.095-2.485 1.226-3.762.291-1.278-.931-1.666-2.576-.864-3.669.8-1.097 2.484-1.228 3.76-.293 1.278.931 1.664 2.577.866 3.671"/></g><g fill="#a7a6a7"><ellipse transform="matrix(.9971-.0756.0756.9971-2.374 2.374)" cx="30.19" cy="32.558" rx="3.541" ry="3.21"/><path d="m30.88 60.827c-.034.761-1.429 1.363-2.191 1.331-.763-.033-2.104-.665-2.071-1.428l1.962-27.892c.037-.761.683-1.351 1.446-1.318.759.032 1.349.678 1.316 1.439l-.462 27.868"/><path d="m51.42 48.24c.545.457-.327 1.971-.783 2.517-.459.545-1.496.886-2.044.43l-19.02-17.426c-.549-.456-.618-1.272-.162-1.815.457-.545 1.27-.618 1.813-.162l20.19 16.456"/><path d="m15.266 47.624c-.42.349-2.027-.614-2.376-1.038-.35-.422-.46-1.256-.039-1.607l15.665-12.576c.422-.351 1.05-.291 1.399.133.349.424.289 1.048-.135 1.399l-14.514 13.689"/></g><ellipse transform="matrix(.9972-.0752.0752.9972-2.215 2.391)" fill="#959595" cx="30.633" cy="30.605" rx="3.126" ry="2.834"/><path fill="#57c6e9" d="m60.948 35.912c1.355.747 1.91 2.336 1.24 3.552-.669 1.216-2.309 1.596-3.667.851-1.351-.747-1.906-2.337-1.24-3.554.671-1.212 2.311-1.594 3.667-.849"/><ellipse transform="matrix(.4825-.8759.8759.4825-4.124 9.779)" fill="#959595" cx="6.213" cy="8.38" rx="9.381" ry="4.858"/><path fill="#d1d2d3" d="m60.23 33.459c1.199.66 1.634 2.164.976 3.366l-2.02 3.658c-.658 1.197-2.165 1.636-3.364.976l-52.586-24.01c-1.2-.66-1.638-2.167-.976-3.364l6.597-11.978c.661-1.199 2.167-1.636 3.364-.975l48.01 32.33"/><path fill="#bec0c0" d="m60.783 37.485c-.658 1.197-2.165 1.636-3.364.976l-52.586-24.01c-1.048-.58-1.513-1.801-1.173-2.901l-1.401 2.546c-.662 1.197-.224 2.706.976 3.364l52.585 24.01c1.199.661 2.706.223 3.364-.975l2.02-3.659c.082-.151.147-.309.195-.469l-.614 1.117"/><path fill="#a7a6a7" d="m59.07 35.35l-2.34 4.253c-.412.749-1.08 1.256-1.808 1.456l.893.409c1.197.661 2.706.223 3.364-.975l2.02-3.659c.658-1.201.223-2.706-.975-3.366l-.968-.654c.312.769.275 1.708-.183 2.536"/><ellipse transform="matrix(.4823-.876.876.4823-3.854 9.621)" fill="#57c6e9" cx="6.213" cy="8.07" rx="8.128" ry="3.055"/><path fill="#a7a6a7" d="m32.33 22.781c1.193-2.165 2.031-4.357 2.52-6.413l-1.969-1.327c-.331 2.11-1.133 4.448-2.405 6.756-1.347 2.447-3.01 4.475-4.721 5.898l2.159.983c1.603-1.559 3.133-3.564 4.416-5.897"/></svg>