<svg xmlns="http://www.w3.org/2000/svg" enable-background="new 0 0 64 64" viewBox="0 0 64 64"><g transform="scale(.99878)"><circle r="29.68" cy="32.04" cx="32.04" fill="#e0e7ec"/><path d="m32.04 0c-17.666 0-32.04 14.372-32.04 32.04 0 17.666 14.374 32.04 32.04 32.04 17.666 0 32.04-14.372 32.04-32.04 0-17.668-14.372-32.04-32.04-32.04m0 57.843c-14.228 0-25.803-11.575-25.803-25.803 0-14.228 11.575-25.803 25.803-25.803 14.226 0 25.801 11.575 25.801 25.803 0 14.228-11.575 25.803-25.801 25.803z" fill="#98a9b4"/><path d="m33.92 53.02c0 1.44-.85 2.606-1.893 2.606-1.044 0-1.893-1.166-1.893-2.606v-21.11c0-1.443.849-2.609 1.893-2.609 1.043 0 1.893 1.166 1.893 2.609v21.11" fill="#85939c"/><path d="m43.45 20.08c1.143-.875 2.585-.919 3.221-.091.637.828.229 2.216-.912 3.091l-12.11 9.315c-1.139.876-2.583.916-3.218.087-.638-.826-.23-2.21.91-3.089l12.11-9.313" fill="#788288"/></g></svg>