<svg xmlns="http://www.w3.org/2000/svg" viewBox="0 0 64 64" enable-background="new 0 0 64 64"><path fill="#de374b" d="m21.14 50.794c-1.502-2.397-2.194-5.107-2.324-7.916-.03-.725-.496-1.066-1.036-1.116-.201-.234-.466-.424-.835-.49-1.516-.262-3.043-.02-4.57-.071-.275-.009-.501.062-.706.168-1.089-.196-2.269 1.16-1.367 2.285 2.969 3.724 2.974 7.951 3.82 12.381.496 2.577 2.505 5.355 5.452 5.01 3.02-.35 4.209-2.547 3.941-5.399-.165-1.741-1.482-3.436-2.375-4.856"/><path fill="#b5304d" d="m16.41 49.1c.818 3.255 1.552 7.643 5.728 8.07.46.047.904.021 1.354.021.058-.487.077-.997.024-1.543-.163-1.739-1.48-3.435-2.373-4.854-1.502-2.397-2.194-5.107-2.324-7.916-.03-.725-.496-1.066-1.036-1.116-.201-.234-.466-.424-.838-.49-1.298-.224-2.607-.086-3.917-.071 1.654 2.239 2.646 4.966 3.382 7.896"/><path fill="#d1d3d4" d="m55.22 52.49c-16.606-3.203-33.22-6.4-49.823-9.6-1.513-.295-1.758-2.09-.436-3.176 14.537-11.909 29.08-23.819 43.621-35.732 1.346-1.1 3.316-.73 3.506.664 1.034 7.55 2.067 15.11 3.104 22.668 1.037 7.562 2.07 15.13 3.102 22.682.194 1.395-1.536 2.8-3.074 2.494"/><path fill="#e6e7e8" d="m55.756 52.55c-14.06-2.718-28.12-5.422-42.18-8.131-1.271-.251-1.477-1.767-.367-2.688 12.31-10.09 24.619-20.17 36.932-30.25 1.136-.932 2.806-.623 2.972.557.873 6.395 1.747 12.808 2.621 19.19.876 6.392 1.75 12.798 2.624 19.2.165 1.184-1.304 2.372-2.6 2.121"/><path fill="#d1d3d4" d="m42.818 30.952c-1.847-13.533 1.827-25.95 8.214-27.736 6.389-1.786 10.239 7.737 12.09 21.268 1.847 13.525.995 25.942-5.391 27.728-6.386 1.785-13.06-7.735-14.917-21.26"/><path fill="#a7a9ac" d="m44.18 30.571c-1.635-11.943 1.609-22.894 7.246-24.467 5.637-1.58 8.704 6.822 10.339 18.756 1.635 11.943 1.213 22.896-4.421 24.479-5.64 1.574-11.532-6.83-13.164-18.768"/><path fill="#e6e7e8" d="m45.31 30.855c-.714-5.198.7-9.97 3.156-10.653 2.453-.689 5.02 2.969 5.73 8.167.711 5.201-.7 9.973-3.153 10.658-2.455.687-5.02-2.973-5.733-8.172"/><path fill="#de374b" d="m17.995 28.686c-4.606 3.773-9.212 7.547-13.82 11.323-1.323 1.086-1.078 2.881.436 3.173 5.16.995 10.322 1.99 15.482 2.985-1.528-5.656-2.161-11.508-2.098-17.481"/><path fill="#ce3650" d="m10.432 35.646c-1.698 1.395-3.396 2.787-5.094 4.176-1.323 1.086-1.08 2.881.436 3.176 1.935.372 3.87.744 5.805 1.119-.563-2.809-.968-5.643-1.147-8.471"/><path fill="#de374b" d="m.032 42.38c-.711-5.198 10.543-9.153 12.996-9.837 2.456-.689.824 2.152 1.535 7.351.714 5.201.59 4.231-6.535 7.335-2.337 1.016-7.285.349-7.996-4.849"/><path fill="#e53e5a" d="m18.273 37.934c-.499-3.279.002-6.417.212-9.658-.857-.452-1.877-.529-3.145-.154-.838.248-1.599.73-2.307 1.295-1.083 5.896-.499 13.743 4.608 17.469.551.4 1.309.496 1.654.325.144.02.306.028.501.014.276-.019.549-.038.824-.058.237-.017 1.783-.201 1.348-.794-2.032-2.765-3.16-4.939-3.695-8.439"/></svg>