<svg xmlns="http://www.w3.org/2000/svg" viewBox="0 0 64 64" enable-background="new 0 0 64 64"><path fill="#a8805a" d="m62.949 48.697c0 1.029-.918 1.865-2.047 1.865h-58.06c-1.131 0-2.046-.836-2.046-1.865 0-1.032.915-1.866 2.046-1.866h58.06c1.129 0 2.047.834 2.047 1.866"/><path fill="#c2986b" d="m60.08 40.01c-13.715.234-12.915-13.04-14.366-18.09-.104-.656-.264-1.295-.478-1.916-1.768-5.167-7.06-8.928-13.303-8.928-.008 0-.017 0-.017 0-.019 0-.025 0-.035 0-6.241 0-11.535 3.761-13.303 8.928-.212.621-.372 1.26-.479 1.916-1.449 5.05-.652 18.319-14.364 18.09 0 0-4.124 5.653-3.702 7.874h31.849l.025-.612.027.612h31.849c.422-2.221-3.703-7.874-3.703-7.874m-39.37-16.22c0-5.634 5.02-10.221 11.192-10.233 6.174.012 11.197 4.599 11.197 10.233 0 5.635-5.02 10.221-11.197 10.234-6.174-.012-11.192-4.599-11.192-10.234"/><path fill="#a8805a" d="m31.37 27.669c-.195-.639-.332-1.285-.415-1.93-.135-1.087-.112-2.177.056-3.244l.002-.004c.65-4.111 3.491-7.845 7.893-9.717-2.045-1.075-4.415-1.691-6.938-1.691-.008 0-.017 0-.025 0 0 0-.019 0-.027 0-4.975 0-9.345 2.391-11.811 5.979l-.002.002v.002c-.626.911-1.131 1.899-1.49 2.945-.213.621-.371 1.26-.479 1.916-1.449 5.05-.65 18.319-14.362 18.09 0 0-4.125 5.653-3.702 7.874h29.383c8.193-5.493 2.739-15.572 1.917-20.22"/><g fill="#fff"><path d="m31.904 15.437l-5.965 1.152c0 0-2.831 2.574-2.831 2.979 0 .404-1.279 3.64-1.326 3.881-.05.243.921 5.01.921 5.01l5.743 5.905 5.983.161 3.848-2.081 2.944-4.145.808-4.125-1.299-3.881-3.065-3.3-2.186-1.559h-3.575"/><path d="m19.86 25.14c0 6.644 5.4 12.05 12.04 12.05 6.643 0 12.05-5.404 12.05-12.05 0-6.643-5.404-12.05-12.05-12.05-6.643 0-12.04 5.404-12.04 12.05m2.344 0c0-5.35 4.352-9.7 9.7-9.7 5.35 0 9.703 4.35 9.703 9.7 0 5.351-4.353 9.701-9.703 9.701-5.348 0-9.7-4.35-9.7-9.701"/></g><path fill="#d1d7da" d="m38.873 30.34c-5.618 0-10.169-4.553-10.169-10.167 0-1.868.512-3.611 1.39-5.115-4.728.874-8.312 5.01-8.312 9.991 0 5.616 4.553 10.168 10.169 10.168 3.75 0 7.01-2.033 8.779-5.05-.604.112-1.224.176-1.857.176"/><path fill="#85939c" d="m32.554 17.892c0-.496-.291-.896-.65-.896-.355 0-.647.401-.647.896v7.231c0 .494.292.892.647.892.359 0 .65-.398.65-.892v-7.231"/><path fill="#788288" d="m37.38 26.07c.494 0 .895-.291.895-.649 0-.355-.4-.646-.895-.646l-5.236-.002c-.49 0-.893.291-.89.647-.002.357.4.649.89.649h5.236z"/><path fill="#98a9b4" d="m20.931 25.14c0 6.05 4.923 10.977 10.975 10.977 6.06 0 10.979-4.925 10.979-10.977 0-6.05-4.923-10.979-10.979-10.979-6.05.001-10.975 4.925-10.975 10.979m2.138 0c0-4.875 3.966-8.839 8.837-8.839 4.877 0 8.843 3.964 8.843 8.839 0 4.873-3.966 8.839-8.843 8.839-4.871.001-8.837-3.966-8.837-8.839"/></svg>