<svg xmlns="http://www.w3.org/2000/svg" enable-background="new 0 0 64 64" viewBox="0 0 64 64"><g fill="#7c7b7d"><path d="m20.12 37.795l-1.588-1.367-8.418 14.445c-1.103 1.892-2.421 3.787-3.979 4.555-.785.208-1.867.511-2.455.135-1.323-.867-1.455-3.883-.709-6.303l.102-.016.012-.166c.01-.09.033-.187.045-.285.232-.642.527-1.288.898-1.924l6.195-10.635c1.033-.951 2.409-1.709 3.172-1.221 1.09.714.791 3.415-.396 5.453l-4.818 8.27 1.051.689c.024.012.031.026.051.043l5.334-9.154c1.63-2.802 1.541-5.888-.221-7.04-1.249-.802-2.947-.371-4.414.939-.004-.002-.008-.012-.012-.014-.348.359-.728.69-1.01 1.105-.036.058-.08.093-.129.123-.024.035-.04.072-.072.104-.067.068-.142.131-.213.197l-6.717 11.531c-2.439 4.191-2.332 8.793.246 10.479l.027.018c1.275.815 2.924.775 4.646-.119 1.371-.707 2.665-1.899 3.721-3.402l.057-.043.055-.072c.124-.19.245-.379.363-.58l9.176-15.748"/><path d="m17.918 21.656c-.996-.024-2.054.206-3.123.689-2.096.947-4.01 2.76-5.371 5.109l-9.424 16.17 1.732 1.129 8.521-14.633c2.242-3.844 6.887-6.829 9.307-5.281 1.685 1.1 1.71 4.261.848 7.307l1.719 1.799c2.074-4.542 1.614-9.466-1.451-11.465-.825-.527-1.761-.804-2.758-.828"/></g><g fill="#f6921e"><path d="m44.39 38.19l-1.055 1.984c.805.905 1.485 1.846 1.768 2.832.084.842.209 2.01-.23 2.555-1.018 1.236-3.896.926-6.078-.201-.67-.395-1.526-.992-2.111-1.445l-9.16-7.969c-.998-1.303-1.264-2.739-.688-3.455.837-1.023 3.351-.309 5.107 1.213l7.125 6.199.805-.982c-2.382-2.261-5.245-4.653-7.834-6.906-2.412-2.096-5.353-2.462-6.703-.814-1.308 2.048-.295 4.648 1.465 6.402l9.932 8.643c3.614 3.136 7.99 3.706 9.967 1.293l.021-.021c.963-1.199 1.168-2.907.576-4.818-.762-1.869-1.696-3.246-2.906-4.508"/><path d="m21.555 21.05c-2.214-.171-4.225.504-5.512 2.074-1.242 1.546-1.602 3.695-1 6.05.587 2.302 2.027 4.544 4.049 6.303l13.934 12.12 1.326-1.623-12.607-10.961c-3.308-2.881-5.453-8.116-3.627-10.385 1.696-2.07 6.34-.686 9.508 1.682 3.76 3.261 7.918 6.845 11.779 10.203l.566-2.281-11.691-10.168c-2.093-1.82-4.509-2.838-6.723-3.01"/></g><path d="m40.01 38.517c-2.278 6.569-.47 13.35 4.081 15.14 2.234.854 4.759.386 7.113-1.322 2.3-1.671 4.178-4.34 5.276-7.515l7.582-21.866-2.35-.919-6.854 19.78c-1.804 5.196-6.699 9.967-9.975 8.717-2.998-1.179-3.409-7.353-2.115-12.164 2.434-7.06 5.26-15.291 7.438-21.572.885-2.553 2.031-5.17 3.732-6.487.893-.454 2.128-1.089 2.923-.785 1.792.705 2.653 4.308 2.317 7.406-.21.837-.425 2.225-.717 3.147l-4.982 14.378c-1.024 1.406-2.5 2.666-3.535 2.27-1.479-.58-1.746-3.906-.793-6.662l3.878-11.181-1.425-.562c-.028-.012-.043-.032-.072-.044l-4.292 12.377c-1.311 3.787-.486 7.479 1.905 8.418 1.687.646 3.633-.304 5.096-2.254.004.002.012.012.012.012.502-.785.929-1.479 1.362-2.203l5.409-15.583c1.961-5.67.76-11.183-2.738-12.555l-.032-.015c-1.73-.657-3.709-.189-5.572 1.321-1.484 1.203-2.766 2.963-3.688 5.04-3.13 8.425-6.02 17.14-8.984 25.683" fill="#ee4036"/><path d="m39.869 34.15l-.559 2.28 2.073 1.802c.697.607 1.565 1.513 2.167 2.19l.937-2.131c-1.305-1.417-3.13-2.847-4.617-4.141" fill="#f6921e"/><path d="m22.18 33.818l-1.709-1.87c-.506 1.712-1.239 3.258-2.022 4.612l1.62 1.314c.773-1.244 1.648-2.776 2.111-4.055" fill="#7c7b7d"/></svg>