<svg xmlns="http://www.w3.org/2000/svg" viewBox="0 0 64 64" enable-background="new 0 0 64 64"><path fill="#efb086" d="m57.07 42.537c-1.045-4.277-3.94-11.648-5.934-15.744-.474-.975-.373-1.612-.394-2.152.673-6.04-1.194-14.729-1.856-15.651-.928-1.294-2.077-1.879-3.725-1.686-1.585.185-2.191.811-2.106 2.162.045.684.202 1.417.356 2.123.054.233.093.414.129.591l.021.105c.131.64.296 1.293.457 1.929l.044.169c.382 1.525.551 1.954.891 3.463.4 1.772.494 3.803.477 5.491.006.196.01.412.012.636-.854.07-1.66.153-2.41.249-.116-9.163-3.836-21.01-4.91-22.22-1.568-1.764-3.375-2.402-5.816-1.756-2.349.616-3.176 1.696-2.862 3.72.159 1.028.493 2.103.823 3.14.11.341.192.606.273.868l.044.153c.286.941.622 1.893.95 2.823l.086.247c.78 2.228 1.093 2.841 1.808 5.05.843 2.597 1.259 5.65 1.462 8.213.053.436.127.868.212 1.292-.252.082-.503.165-.752.253-3.753-8.574-13.958-18.93-15.597-19.557-2.202-.846-4.102-.582-5.973 1.116-1.802 1.628-2.039 2.966-.828 4.62.612.84 1.407 1.638 2.173 2.409.257.251.453.449.644.644l.11.116c.685.705 1.422 1.395 2.14 2.069l.192.178c1.716 1.621 2.274 2.02 3.93 3.655 1.943 1.92 3.717 4.44 5.076 6.619.259.383.547.738.832 1.092-.351-.1-.701-.196-1.05-.298l-.417-.122c-1.6-.458-3.253-.936-4.913-1.188-3.162-.479-5.822.618-7.83 3.235-1.251 1.639-2.644 3.359-4.523 5.577-1.602 1.9-2.358 3.725-2.315 5.578.021.907.39 1.643 1.064 2.128.799.571 1.967.695 3.186.339 1.013-.306 2.155-1.068 2.973-1.986.725-.809 1.264-1.812 1.783-2.781l.125-.231c.137-.255.275-.516.416-.769 1.415-2.486 3.512-3.354 6.158-2.548 4.878 1.487 7.971 4.501 8.943 8.711.273 1.176.069 2.295-.585 3.236-.856 1.226-2.438 2.02-4.342 2.179-2.557.209-4.765-.25-6.794-1.42-1.119-.65-2.597-1.462-4.13-1.976-.673-.221-1.386-.332-2.118-.332-.5 0-1.01.054-1.499.159-1.514.324-2.896 1.125-3.894 2.252-.672.765-.962 1.517-.835 2.18.157.797.87 1.301 1.441 1.583.807.402 1.776.706 2.799.879 4.974.833 9.09 2.738 12.225 5.666 3.543 3.307 8.14 4.914 14.05 4.914.616 0 1.244-.017 1.887-.053 1.408-.075 2.786-.257 4.102-.538 6.132-1.315 10.712-4.818 12.899-9.866 1.656-3.816 2.066-7.498 1.219-10.94"/></svg>