<svg xmlns="http://www.w3.org/2000/svg" viewBox="0 0 64 64" enable-background="new 0 0 64 64"><g fill="#efb086"><path d="m34.659 40.982c-.013.023-.029.043-.042.065.033.011.062.027.092.038-.021-.033-.029-.068-.05-.103"/><path d="m44.12 36.32c2.502-.357 10.166 2.391 10.777-5.03.57-6.904-7.05-5.334-9.969-5.447-1.639-.154-9.855-.514-11.488-1-.18-.094-.358-.187-.53-.294.947-1.79 2.418-3.447 3.604-4.942.955-.89 1.663-2.059 2.124-3.527.565-1.339.951-2.744 1.169-4.251.307-2.111-.025-4.542-.9-6.702-.185-.525-.391-1.045-.639-1.555-.514-1.056-1.463-2.162-2.605-3.03-.344-.263-.689-.428-1.056-.498-.805-.157-1.758.109-3.092.858-1.04.576-1.203 1.386-1.178 2.987.008.5.08 1.052.216 1.731.807 3.95-.539 7.479-3.885 10.201-2.696 2.203-4.892 3.633-7.12 4.642-7.293 3.308-10.742 8.742-10.537 16.612.044 1.916.029 3.827.013 5.742l-.013 4.099c-.029 5.871 2.179 11.536 7.568 14.178 3.314 1.618 17.489 1 22.968 2.192 2.058.448 7.089 1.573 7.795-2.148.871-4.146-4.658-3.314-6.04-4.745 1.965-.58 9.797 3.176 10.356-3.428.524-6.176-6.7-5.533-7.947-6.308 2.347.268 9.703 1.242 10.03-3.671.343-5.129-4.164-6.04-9.616-6.663"/></g><path fill="#dda57f" d="m43.759 29.912c-.225-2.938-1.569-.616-1.438 1.112.637 8.353.702 18.501-3.19 26.19-.47.924.094 4.851.666 3.719 4.63-9.145 4.723-21.05 3.962-31.02"/></svg>