<svg xmlns="http://www.w3.org/2000/svg" viewBox="0 0 64 64" enable-background="new 0 0 64 64"><g fill="#d69661"><path d="m48.48 14c2.498 0 4.52 2.224 4.52 4.978v31.04c0 2.746-2.02 4.979-4.52 4.979h-40.964c-2.492 0-4.516-2.232-4.516-4.979v-31.749c0-2.754 2.02-4.272 4.516-4.272"/><path d="m18.26 8c.842 0 1.525.75 1.525 1.68l10 10.709c0 .926-.684 1.678-1.525 1.678h-23.738c-.84 0-1.521-.752-1.521-1.678v-10.709c0-.93.682-1.68 1.521-1.68z"/></g><path d="m56.41 22.944c2.496 0 4.518 2.224 4.518 4.978l-6.967 22.1c-.76 1.979-3.02 4.979-5.52 4.979h-40.925c-2.492 0-4.516-2.232-4.516-4.979l6.969-22.1c1.031-1.922 3.02-4.978 5.516-4.978" fill="#e5b687"/></svg>