<svg xmlns="http://www.w3.org/2000/svg" viewBox="0 0 64 64" enable-background="new 0 0 64 64"><g fill="#25333a"><path d="m30.22 58.7c-.338-1.605-1.674-3.698-3.41-3.729-.144.004-.288.014-.435.014-10.604 0-19.21-10.02-19.21-22.375 0-7.886 3.507-14.81 8.801-18.791l1.224 2.837c.785.379 1.965.41 3.173.025l9.174-12.79-16-3.069c-1.162.524-1.981 1.325-2.265 2.111l1.511 3.505c-7.597 5.361-12.678 15.07-12.678 26.17 0 16.449 11.14 29.863 25.11 30.568 2.124.001 5.604-1.607 5-4.477"/><path d="m33.781 5.301c.342 1.604 1.67 3.697 3.41 3.727.145-.002.287-.012.435-.012 10.607 0 19.21 10.02 19.21 22.375 0 7.887-3.511 14.81-8.805 18.792l-1.225-2.837c-.779-.379-1.961-.408-3.169-.025l-9.178 12.79 16.01 3.068c1.161-.524 1.977-1.324 2.264-2.111l-1.51-3.506c7.596-5.356 12.677-15.07 12.677-26.17 0-16.449-11.144-29.863-25.11-30.568-2.125-.002-5.608 1.606-5 4.477"/></g></svg>