<svg xmlns="http://www.w3.org/2000/svg" viewBox="0 0 64 64" enable-background="new 0 0 64 64"><path fill="#97d8ea" d="m63.23 30.07c-2.097-1.783-4.197-3.567-6.293-5.35-.059-.051-.106-.079-.161-.118.02-.059.039-.104.059-.172.442-1.611.885-3.223 1.33-4.834.399-1.459-.735-3.227-2.237-3.117-2.987.227-5.979.45-8.972.672-.012-.018-.016-.027-.027-.047-.521-.997-1.037-1.999-1.553-2.996-.755-1.455-1.506-2.91-2.261-4.363-.642-1.236-2.065-1.465-3.172-.884-2.664 1.396-5.323 2.794-7.987 4.191-2.664-1.396-5.323-2.794-7.991-4.191-1.106-.581-2.53-.35-3.172.884-.751 1.453-1.506 2.908-2.257 4.363-.52.998-1.036 1.999-1.557 2.996-.012.02-.02.029-.027.047-2.992-.223-5.984-.446-8.972-.672-1.506-.11-2.64 1.658-2.237 3.117.301 1.087.598 2.176.899 3.266.254.931.344 1.482.383 1.811-2.116 1.799-4.232 3.598-6.348 5.397-.911.778-.911 2.707 0 3.485 2.097 1.783 4.193 3.566 6.293 5.351.059.051.105.078.16.117-.02.059-.039.104-.059.17-.442 1.611-.884 3.223-1.33 4.832-.392 1.432.727 3.273 2.237 3.119 2.988-.305 5.977-.612 8.968-.915.012.018.02.031.031.053.521 1.03 1.037 2.062 1.557 3.094.751 1.502 1.506 3 2.257 4.502.626 1.243 2.077 1.459 3.172.884 2.667-1.396 5.327-2.793 7.991-4.188.884.463 1.764.927 2.648 1.388 1.779.936 3.559 1.866 5.339 2.801 1.106.583 2.53.352 3.172-.884.755-1.451 1.506-2.906 2.261-4.361.516-1 1.032-1.998 1.553-3 .012-.016.016-.027.027-.043 2.992.224 5.984.446 8.972.671 1.502.111 2.637-1.658 2.237-3.119-.301-1.085-.599-2.175-.899-3.262-.258-.931-.348-1.482-.383-1.811 2.111-1.8 4.228-3.599 6.348-5.397.912-.78.912-2.708.001-3.487"/><g fill="#fbb11c"><path d="m40.777 12.572l-19.321 15.301 12.527 8.157-12.206 16.692 21.864-18.267-9.561-8.114z"/><path d="m41.2 36.494c-5.03-2.784-10.02-5.657-14.772-8.841-.223-.152 5.859-6.903 8.565-10.5l-13.536 10.72 12.527 8.155-12.206 16.694 19.422-16.228"/></g></svg>