<svg xmlns="http://www.w3.org/2000/svg" enable-background="new 0 0 64 64" viewBox="0 0 64 64"><circle r="29.86" cy="29.861" cx="31.86" fill="#fbbf67"/><path d="m28.16 23.456c0 5.313-2.871 9.613-6.417 9.613-3.546 0-6.421-4.299-6.421-9.613 0-5.31 2.875-9.612 6.421-9.612 3.546 0 6.417 4.302 6.417 9.612" fill="#fff"/><ellipse ry="5.04" rx="4.155" cy="23.456" cx="21.742" fill="#25333a"/><path d="m48.52 23.456c0 5.313-2.871 9.613-6.418 9.613-3.546 0-6.421-4.299-6.421-9.613 0-5.31 2.875-9.612 6.421-9.612 3.547 0 6.418 4.302 6.418 9.612" fill="#fff"/><ellipse ry="5.04" rx="4.155" cy="23.456" cx="42.1" fill="#25333a"/><path d="m52.957 36.767c0 11.04-9.176 20-20.483 20-11.298 0-20.474-8.959-20.474-20" fill="#633d19"/><path d="m42.652 56.08c0 4.055-4.574 7.342-10.218 7.342-5.641 0-10.215-3.287-10.215-7.342l2.202-8.468c0-4.053 2.372-7.34 8.01-7.34 5.644 0 8.02 3.287 8.02 7.34l2.203 8.468" fill="#f45ba1"/><path d="m50.27 37.896c0 3.739-7.987 6.772-17.834 6.772-9.842 0-17.83-3.03-17.83-6.772" fill="#fff"/></svg>