<svg xmlns="http://www.w3.org/2000/svg" enable-background="new 0 0 64 64" viewBox="0 0 64 64"><g fill="#1c282b"><path d="m12.12 53.27c0 2.713-2.199 4.912-4.913 4.912-2.714 0-4.913-2.199-4.913-4.912v-8.158c0-2.713 2.199-4.912 4.913-4.912 2.714 0 4.913 2.199 4.913 4.912v8.158"/><path d="m61.63 53.27c0 2.713-2.199 4.912-4.913 4.912-2.714 0-4.912-2.199-4.912-4.912v-8.158c0-2.713 2.198-4.912 4.912-4.912 2.714 0 4.913 2.199 4.913 4.912v8.158"/></g><path d="m37.13 4c-3.303 0-6.601 0-9.901 0-2.099 0-4.197 0-6.298 0-.132 0-.246.05-.246.111 0 1.517 0 3.03 0 4.545 0 .865 0 1.733 0 2.601 0 .059.113.111.246.111 3.302 0 6.601 0 9.903 0 2.099 0 4.194 0 6.297 0 .069 0 .128-.013.167-.031l.003-.002.007-.004c.039-.015.063-.041.063-.074 0-1.515 0-3.03 0-4.547 0-.867 0-1.732 0-2.599 0-.061-.109-.111-.241-.111" fill="#ffd962"/><path d="m43.47 4c-2.188 0-4.382 0-6.574 0-1.391 0-2.782 0-4.18 0-.087 0-.16.05-.16.111 0 1.517 0 3.03 0 4.545 0 .865 0 1.733 0 2.601 0 .059.073.111.16.111 2.192 0 4.385 0 6.575 0 1.394 0 2.783 0 4.181 0 .045 0 .084-.013.112-.031v-.002l.004-.004c.026-.015.046-.041.046-.074 0-1.515 0-3.03 0-4.547 0-.867 0-1.732 0-2.599 0-.061-.078-.111-.164-.111" fill="#ffcf0d"/><path d="m59.31 30.21c0 7.167-6.965 5.714-15.556 5.714h-23.23c-8.591 0-15.557 1.453-15.557-5.714l2.225-7.259c0-7.163 6.965-12.971 15.556-12.971h18.776c8.591 0 15.557 5.808 15.557 12.971l2.224 7.259" fill="#e4e4e4"/><path d="m57.82 31.971c0 6.772-6.586 5.399-14.699 5.399h-21.955c-8.115 0-14.698 1.373-14.698-5.399l2.103-6.861c0-6.77 6.581-12.258 14.701-12.258h17.746c8.117 0 14.698 5.488 14.698 12.258l2.104 6.861" fill="#a2c3cb"/><path d="m35.35 28.566c-5.598-2.7-14.668-8.536-16.14-15.228-6.138 1.473-10.633 6.179-10.633 11.772l-2.103 6.861c0 6.772 6.583 5.399 14.698 5.399h21.955c6.604 0 12.189.907 14.04-2.401-7.597-1.258-15.04-3.135-21.815-6.403" fill="#8eb1b7"/><path d="m64.05 37.918c0 7.438-8.178 13.466-18.264 13.466h-27.28c-10.09 0-18.264-6.03-18.264-13.466 0-7.435 8.178-13.464 18.264-13.464h27.27c10.09 0 18.264 6.03 18.264 13.464" fill="#ffcf0d"/><path d="m4.895 28.964c-2.883 2.379-4.652 5.511-4.652 8.954 0 7.438 8.178 13.466 18.264 13.466h6.19c-1.806-4.756-6.69-20.499-19.802-22.42" fill="#f0c000"/><path d="m55.755 49.2c0 1.979-1.836 3.578-4.104 3.578h-40.33c-2.273 0-4.106-1.6-4.106-3.578 0-1.977 1.833-3.578 4.106-3.578h40.33c2.269 0 4.105 1.602 4.105 3.578" fill="#e4e4e4"/><path d="m7.752 47.45c-.334.518-.541 1.107-.541 1.744 0 1.979 1.833 3.578 4.106 3.578h40.33c1.589 0 2.953-.795 3.638-1.948-13.815.519-35.06 1.38-47.536-3.374" fill="#d1d2d3"/><g fill="#e4e4e4"><path d="m16.521 37.918c0 2.113-1.56 3.826-3.489 3.826h-5.215c-1.929 0-3.494-1.713-3.494-3.826 0-2.111 1.564-3.824 3.494-3.824h5.215c1.929 0 3.489 1.713 3.489 3.824"/><path d="m59.31 37.918c0 2.113-1.562 3.826-3.49 3.826h-5.217c-1.93 0-3.491-1.713-3.491-3.826 0-2.111 1.562-3.824 3.491-3.824h5.217c1.929 0 3.49 1.713 3.49 3.824"/></g></svg>