<svg xmlns="http://www.w3.org/2000/svg" viewBox="0 0 64 64" enable-background="new 0 0 64 64"><path d="m63.792 56.921c0 3.801-3.076 6.879-6.876 6.879h-50.04c-3.794 0-6.874-3.079-6.874-6.879v-50.04c0-3.795 3.08-6.875 6.874-6.875h50.04c3.8 0 6.876 3.08 6.876 6.875v50.04" fill="#1b75bb"/><g transform="matrix(.95953 0 0 .95953 1.119 2.096)" fill="#fff"><circle cx="32.589" cy="6.979" r="4.786"/><path d="m43.555 18.856c-.029-2.69-2.058-5.155-4.441-5.567-.473-.082-.955-.119-1.436-.121-1.521-.004-3.503 0-5.089 0-1.586 0-3.571-.004-5.09 0-.48.002-.965.039-1.436.121-2.383.412-4.41 2.877-4.441 5.567 0 0-3.828 9.181-3.486 9.892.339.711 8.43 5.643 8.43 5.643l.27-4.074c0 0-3.829-3.297-3.77-4.076.063-.78 2.361-6.633 2.361-6.633.33.037.67.033 1 0 .479-.047.633.207.609.691-.012.207 0 .414 0 .619v36.984c0 .369.002.742.023 1.113.052 1.022.65 1.896 1.514 2.227 1.518.586 3.055-.65 3.059-2.477.008-7 .004-14 .004-21 0-1.193.381-1.607.951-1.732h.004c.566.125.949.539.949 1.732 0 7-.003 14 .004 21 .006 1.825 1.542 3.063 3.06 2.477.863-.331 1.463-1.203 1.516-2.227.02-.371.021-.744.021-1.113v-36.984c0-.205.01-.412 0-.619-.021-.484.133-.738.608-.691.331.033.672.037.998 0 0 0 2.353 5.797 2.36 6.633.015.834-3.766 4.076-3.766 4.076l.27 4.074c0 0 8.195-4.774 8.431-5.643.229-.865-3.487-9.892-3.487-9.892"/></g></svg>