<svg xmlns="http://www.w3.org/2000/svg" viewBox="0 0 64 64" enable-background="new 0 0 64 64"><ellipse fill="#636666" cx="31.992" cy="57.33" rx="21.82" ry="6.18"/><path fill="#808184" d="m52.55 6.747c0-2.406-2.421-4.357-5.405-4.357h-30.3c-2.984 0-5.405 1.951-5.405 4.357v47.556c0 .196.023.389.056.578-.033.131-.056.262-.056.396 0 3.204 9.178 5.805 20.497 5.805s20.495-2.601 20.495-5.805c0-.016-.004-.032-.004-.046.079-.301.125-.609.125-.929v-47.555"/><path fill="#c4c4c5" d="m27.552 55.54c0-.116.018-.229.041-.342-.023-.163-.041-.327-.041-.497v-40.864c0-2.066 1.879-3.742 4.195-3.742h-9.829c-2.313 0-4.193 1.675-4.193 3.742v40.864c0 .17.018.334.041.497-.023.112-.041.226-.041.342 0 2.753 7.121 4.984 15.905 4.984 1.716 0 3.365-.085 4.915-.242-6.38-.648-10.993-2.527-10.993-4.742"/><ellipse fill="#636666" cx="31.991" cy="5.05" rx="22.473" ry="5.05"/><ellipse fill="#cdccd2" cx="32.03" cy="4.06" rx="20.318" ry="3.213"/><path fill="#b8b8ba" d="m22.796 4.58c0-1.318.755-2.529 2.02-3.489-7.657.461-13.1 1.631-13.1 3 0 1.307 4.937 2.431 12.02 2.934-.593-.74-.937-1.569-.937-2.448"/><ellipse fill="#243438" cx="39.671" cy="3.79" rx="5.07" ry="2.182"/><g fill="#a6a8ab"><path d="m31.993 21.436c-9.898 0-18.212-1.92-20.551-4.519-.43.477-.657.976-.657 1.49 0 3.317 9.494 6.01 21.21 6.01 11.711 0 21.21-2.689 21.21-6.01 0-.515-.228-1.014-.657-1.49-2.338 2.599-10.65 4.519-20.549 4.519"/><path d="m31.993 38.79c-9.898 0-18.212-1.922-20.551-4.519-.43.477-.657.974-.657 1.488 0 3.317 9.494 6.01 21.21 6.01 11.711 0 21.21-2.689 21.21-6.01 0-.515-.228-1.012-.657-1.488-2.338 2.597-10.65 4.519-20.549 4.519"/></g></svg>