<svg xmlns="http://www.w3.org/2000/svg" enable-background="new 0 0 64 64" viewBox="0 0 64 64"><path d="m38.16 20.981l-15.14 22.801c-2.949-.46-6.04.637-8.06 3.168-3.053 3.839-2.491 9.505 1.257 12.663 3.749 3.161 9.26 2.615 12.31-1.218 2.057-2.579 2.471-5.985 1.382-8.902l18.797-19.637c1.856.317 3.797.225 5.697-.346 3.479-1.042 6.492-3.535 8.127-6.874 1.724-3.521 1.889-7.625.49-11.312-.148-.392-.703-.53-.964-.167-1.313 1.82-4.251 5.677-5.564 7.504-.028.004-.048.016-.084.028-.237.08-.475.157-.711.237-.691.229-1.383.462-2.069.691-.896.301-1.796.598-2.691.9-1.435-1.211-2.869-2.419-4.307-3.628.116-1.017.229-2.037.349-3.057.085-.764.173-1.527.258-2.29.023-.207.048-.414.072-.619 1.475-1.688 4.58-5.412 6.06-7.099.188-.219.164-.462.04-.648-.068-.141-.197-.251-.39-.292-4.713-.852-9.679.908-12.688 4.757-2.72 3.473-3.7 8.167-2.455 12.48.089.296.182.579.281.86m18.389-2.344c.048-.03.059-.03 0 0" fill="#929497"/><path d="m45.03 12.187c.085-.759.169-1.522.257-2.288.024-.207.049-.416.072-.621 1.347-1.535 4.03-4.756 5.621-6.597.679.021 1.361.084 2.041.205.192.04.321.151.39.292.124.187.148.43-.04.648-1.479 1.688-4.584 5.412-6.06 7.099-.024.205-.049.412-.072.619-.085.763-.173 1.526-.258 2.29-.12 1.02-.232 2.041-.349 3.057-.651-.55-1.302-1.101-1.953-1.645.113-1.022.234-2.038.35-3.059" fill="#7f8081"/><path d="m45.41 9.214c1.362-1.559 3.997-4.717 5.564-6.533.679.021 1.361.083 2.041.207.196.034.325.145.39.287.128.185.152.43-.041.651-1.466 1.673-4.531 5.352-6.02 7.06-.655-.548-1.294-1.108-1.933-1.671" fill="#767676"/><path d="m26.575 56.744c2.053-2.574 2.467-5.981 1.382-8.898l18.797-19.637c1.856.315 3.797.229 5.697-.346 3.479-1.044 6.492-3.531 8.123-6.876 1.418-2.893 1.783-6.175 1.093-9.294.145-.193.273-.374.39-.534.261-.364.815-.225.964.167 1.398 3.686 1.233 7.79-.49 11.312-1.635 3.338-4.647 5.831-8.127 6.874-1.9.571-3.841.663-5.697.346l-18.797 19.635c1.089 2.917.675 6.323-1.382 8.902-3.049 3.833-8.561 4.379-12.31 1.218-.329-.277-.635-.579-.916-.896 3.668 2.286 8.493 1.523 11.273-1.973" fill="#7f8081"/><path d="m16.934 48.917c-1.651 2.074-1.346 5.144.683 6.852 2.025 1.711 5.01 1.412 6.665-.659 1.651-2.079 1.342-5.146-.683-6.854-2.029-1.712-5.02-1.414-6.665.661" fill="#f4f5f5"/><path d="m23.599 48.26c.208.177.401.369.574.572-1.977-1.163-4.523-.731-6 1.131-1.482 1.858-1.386 4.514.104 6.275-.229-.133-.446-.289-.659-.466-2.029-1.708-2.334-4.777-.683-6.852 1.651-2.074 4.637-2.372 6.666-.66" fill="#7f8081"/><path d="m29.938 49.55c-.623-.583-1.262-1.146-1.904-1.704l18.729-19.561c.072.016.149.02.229.032.582.558 1.177 1.106 1.796 1.627-.024-.004-.049-.006-.076-.012l-18.774 19.618" fill="#767676"/><path d="m59.56 53.24c1.567 1.695 1.298 4.576-.606 6.426-1.9 1.854-4.709 1.979-6.275.283l-34.787-37.55c-1.567-1.699-1.293-4.576.607-6.428 1.904-1.852 4.712-1.981 6.279-.281l34.782 37.55" fill="#8a5d3b"/><path d="m2.053 21.909c2.35-2.29 5.966-2.424 8.746-.558l5.998-5.841c11.55-11.422 20.48-13.383 24.864-13.519l.004-.004c.008.002.016.004.024.004.016-.002.04-.004.06-.004 0 .004 0 .008 0 .012 3.154.211.844.922.221 1.093-12.07 4.222-12.831 11.355-12.867 14.181.181.767.229 1.571.148 2.376v.002c-.181 1.776-.992 3.55-2.415 4.938l-6.966 6.793c-.02.018-.044.034-.064.054 1.237 2.814.791 6.112-1.366 8.222-2.784 2.71-7.344 2.411-10.188-.669l-6.086-6.594c-2.845-3.082-2.893-7.774-.113-10.486" fill="#929497"/><path d="m21.329 11.946c1.567 1.695 1.293 4.574-.606 6.426-1.904 1.854-4.713 1.979-6.279.281-.868-.952.234-3.292 1.953-4.89 1.719-1.598 4.02-2.7 4.932-1.817" fill="#8a5d3b"/><path d="m11.245 29.812c3.817 4.13 5.673 8.686 4.146 10.177-1.526 1.486-5.861-.657-9.674-4.793-3.816-4.13-5.673-8.688-4.142-10.176 1.527-1.488 5.853.658 9.67 4.792" fill="#767676"/></svg>