<svg xmlns="http://www.w3.org/2000/svg" viewBox="0 0 64 64" enable-background="new 0 0 64 64"><path fill="#003e84" d="m59.3 17.638c-.517-2.209-1.236-4.365-2.113-6.475-.305-.737-.629-1.465-.937-2.202-.126-.297-.243-.594-.354-.894-.047-.121-.088-.236-.127-.357-.045-.153-.053-.153-.039-.098-.53-1.423-2.793-2.328-4.094-1.048-1.959 1.919-4.293 2.752-7.211 3.272-1.781.322-7.422-.693-8.843-1.866-.208-.172-.417-.343-.614-.526-.054-.049-.107-.102-.158-.155-.129-.125-.252-.254-.369-.388l-.008-.007c-.111-.129-.242-.254-.398-.369-.1-.071-.21-.136-.33-.195-.376-.259-.871-.358-1.375-.337-.503-.021-1 .078-1.377.337-.117.059-.233.123-.329.195-.157.115-.287.24-.397.369l-.008.007c-.118.134-.244.262-.371.388-.052.053-.104.106-.157.155-.199.183-.408.354-.617.526-1.418 1.173-7.06 2.188-8.84 1.866-2.916-.52-5.252-1.353-7.212-3.272-1.299-1.28-3.561-.375-4.091 1.048.01-.055.004-.055-.041.098-.039.121-.08.236-.126.357-.111.3-.229.597-.354.894-.31.736-.633 1.464-.936 2.202-.879 2.11-1.6 4.266-2.115 6.475-1.473 6.287-2.124 18.741.446 24.697 4.384 10.19 13.158 13.47 24.57 18.787.592.407 1.276.598 1.954.545.678.053 1.361-.138 1.951-.545 11.412-5.317 20.19-8.597 24.57-18.787 2.571-5.956 1.92-18.41.45-24.697"/><g fill="#db374b"><path d="m60.27 23.831c-.232-2.345-.564-4.497-.961-6.192-.518-2.209-1.238-4.365-2.115-6.475-.305-.737-.629-1.465-.935-2.202-.126-.297-.245-.594-.356-.894-.047-.121-.088-.236-.127-.357-.043-.153-.051-.153-.037-.098-.53-1.423-2.793-2.328-4.094-1.048-1.961 1.919-4.295 2.752-7.213 3.272-1.781.322-7.421-.693-8.838-1.866-.212-.172-.421-.343-.619-.526-.054-.049-.106-.102-.156-.155-.129-.125-.254-.254-.371-.388l-.008-.007c-.111-.129-.24-.254-.397-.369-.099-.071-.21-.136-.329-.195-.378-.259-.872-.358-1.376-.337-.503-.021-1 .078-1.376.337-.118.059-.231.123-.331.195-.156.115-.286.24-.395.369l-.01.007c-.114.134-.241.262-.37.388-.052.053-.105.106-.156.155-.199.183-.41.354-.619.526-1.418 1.173-7.06 2.188-8.841 1.866-2.915-.52-5.251-1.353-7.209-3.272-1.3-1.28-3.564-.375-4.094 1.048.011-.055.005-.055-.04.097-.04.121-.082.237-.128.357-.11.3-.229.597-.355.894-.307.736-.632 1.464-.935 2.202-.879 2.11-1.598 4.266-2.115 6.475-.396 1.696-.729 3.848-.959 6.192l55.865.001"/><path d="m59.55 18.808c-.082-.409-.16-.801-.25-1.169-.517-2.209-1.236-4.365-2.113-6.475-.305-.737-.629-1.465-.937-2.202-.126-.297-.243-.594-.354-.894-.047-.121-.088-.236-.127-.357-.045-.153-.053-.153-.039-.098-.53-1.423-2.793-2.328-4.094-1.048-1.959 1.919-4.293 2.752-7.211 3.272-1.781.322-7.422-.693-8.843-1.866-.208-.172-.417-.343-.614-.526-.054-.049-.107-.102-.158-.155-.129-.125-.252-.254-.369-.388l-.008-.007c-.111-.129-.242-.254-.398-.369-.1-.071-.21-.136-.33-.195-.376-.259-.871-.358-1.375-.337-.503-.021-1 .078-1.377.337-.117.059-.233.123-.329.195-.157.115-.287.24-.397.369l-.008.007c-.118.134-.244.262-.371.388-.052.053-.104.106-.157.155-.199.183-.408.354-.617.526-1.418 1.173-7.06 2.188-8.84 1.866-2.916-.52-5.252-1.353-7.212-3.272-1.299-1.28-3.561-.375-4.091 1.048.011-.055.005-.055-.04.098-.039.121-.08.236-.126.357-.111.3-.229.597-.354.894-.31.736-.633 1.464-.936 2.202-.879 2.11-1.6 4.266-2.115 6.475-.086.368-.169.761-.25 1.169h54.44"/></g></svg>