<svg xmlns="http://www.w3.org/2000/svg" viewBox="0 0 64 64" enable-background="new 0 0 64 64"><g fill="#1c282b"><path d="m55.41 60.47c0 2.02-2.046 3.651-4.566 3.651-2.524 0-4.569-1.634-4.569-3.651v-6.07c0-2.02 2.045-3.655 4.569-3.655 2.521 0 4.566 1.64 4.566 3.655v6.07"/><path d="m18.09 60.34c0 2.02-2.047 3.651-4.574 3.651-2.524 0-4.565-1.634-4.565-3.651v-6.07c0-2.02 2.041-3.649 4.565-3.649 2.527 0 4.574 1.634 4.574 3.649v6.07"/></g><path fill="#be1e2d" d="m9.685 11.669c0 9.09 0 18.17 0 27.26 0 5.774 0 11.559 0 17.339 0 .374.308.675.686.675 9.279 0 18.57 0 27.86 0 5.317 0 10.633 0 15.948 0 .368 0 .681-.301.681-.675 0-9.09 0-18.17 0-27.26 0-5.786 0-11.567 0-17.338 0-.201-.07-.355-.18-.462 0-.017-.02-.017-.022-.025l-.023-.01c-.095-.103-.258-.185-.455-.185-9.293 0-18.577 0-27.868 0-5.316 0-10.63 0-15.94 0-.38 0-.687.308-.687.682"/><g fill="#aaadae"><path d="m56.953 25.746c-1.328 0-2.408.868-2.408 1.934v.74h-2.891c-.834 0-1.509.22-1.509.485 0 .267.675.481 1.509.481h2.891v2.519h-2.891c-.834 0-1.509.218-1.509.483 0 .268.675.483 1.509.483h2.891v.638c0 1.066 1.08 1.928 2.408 1.928 1.338 0 2.417-.861 2.417-1.928v-5.83c0-1.066-1.079-1.933-2.417-1.933"/><path d="m7.415 25.746c1.33 0 2.412.868 2.412 1.934v.74h2.889c.834 0 1.511.22 1.511.485 0 .267-.676.481-1.511.481h-2.889v2.519h2.889c.834 0 1.511.218 1.511.483 0 .268-.676.483-1.511.483h-2.889v.638c0 1.066-1.082 1.928-2.412 1.928-1.333.001-2.415-.861-2.415-1.927v-5.83c0-1.067 1.082-1.934 2.415-1.934"/></g><path fill="#d3293f" d="m11.571 18.482c0 7.429 0 14.858 0 22.291 0 4.724 0 9.452 0 14.178 0 .308.283.554.624.554 8.468 0 16.948 0 25.428 0 4.851 0 9.699 0 14.55 0 .34 0 .62-.246.62-.554 0-7.43 0-14.86 0-22.29 0-4.73 0-9.46 0-14.179 0-.163-.062-.291-.163-.378 0 0-.017-.012-.021-.018 0 0-.01-.002-.016-.008-.093-.086-.237-.151-.421-.151-8.476 0-16.951 0-25.431 0-4.85 0-9.701 0-14.546 0-.341-.001-.624.25-.624.555"/><path fill="#e4e4e4" d="m54.758 54.707c0 1.473-1.708 2.662-3.818 2.662h-37.509c-2.113 0-3.821-1.189-3.821-2.662 0-1.47 1.708-2.661 3.821-2.661h37.508c2.111 0 3.819 1.191 3.819 2.661"/><path fill="#d1d2d3" d="m10.113 53.41c-.308.385-.503.823-.503 1.296 0 1.473 1.708 2.662 3.821 2.662h37.508c1.479 0 2.748-.59 3.384-1.451-12.851.387-32.599 1.027-44.21-2.507"/><path fill="#6cb5c6" d="m12.694 20.08c0 3.486 0 6.963 0 10.453 0 2.213 0 4.426 0 6.643 0 .139.269.258.588.258 8 0 16.03 0 24.05 0 4.582 0 9.171 0 13.765 0 .33 0 .587-.119.587-.258 0-3.477 0-6.964 0-10.446 0-2.22 0-4.43 0-6.649 0-.072-.059-.136-.145-.176h-.03c0-.012-.004-.012-.004-.012-.097-.039-.233-.071-.408-.071-8.02 0-16.04 0-24.06 0-4.589 0-9.166 0-13.751 0-.319-.002-.588.117-.588.258"/><path fill="#62a7b1" d="m32.617 37.36c-6.636-2.938-15.763-7.171-19.946-12.799v12.618c0 .139.269.258.589.258h19.541c-.059-.027-.121-.047-.184-.077"/><g fill="#f1f1f1"><path d="m19 50.1c0 1.48-1.367 2.682-3.059 2.682h-4.565c-1.696 0-3.061-1.201-3.061-2.682 0-1.479 1.365-2.676 3.061-2.676h4.565c1.693 0 3.059 1.196 3.059 2.676"/><path d="m56.49 50.1c0 1.48-1.37 2.682-3.058 2.682h-4.569c-1.688 0-3.061-1.201-3.061-2.682 0-1.479 1.372-2.676 3.061-2.676h4.569c1.688 0 3.058 1.196 3.058 2.676"/></g><path fill="#d3293f" d="m33.06 41.44c0 .412-.494.746-1.097.746-.606 0-1.096-.334-1.096-.746v-22.422c0-.41.49-.745 1.096-.745.603 0 1.097.335 1.097.745v22.422"/><path fill="#de374b" d="m40.559 10.737h-16.781l1.864-6.539h13.05z"/><path fill="#c5344d" d="m25.451 4.874l-1.673 5.863h16.78l-.008-.033c-2.023-.341-13.146-3.9-15.1-5.83"/><path fill="#243438" d="m41.19 10.737c0 .365-.501.664-1.115.664h-16.223c-.616 0-1.115-.298-1.115-.664 0-.367.5-.663 1.115-.663h16.223c.614.001 1.115.297 1.115.663"/><path opacity=".29" fill="#eb8697" d="m31.968 3.363c-3.358 0-6.078 1.615-6.078 3.609 0 1.587 1.733 2.934 4.134 3.414.612.122 1.264.194 1.944.194.681 0 1.331-.072 1.941-.194 2.403-.48 4.133-1.827 4.133-3.414 0-1.994-2.718-3.609-6.074-3.609"/><path opacity=".6" fill="#ec6c80" d="m45.12 7.807c0-.601-3.34-1.107-8.08-1.322 3.154-2.171 4.943-3.962 4.227-4.392-.696-.412-3.579.588-7.119 2.371-.384-2.642-1.214-4.466-2.176-4.466-.967 0-1.801 1.825-2.185 4.47-3.535-1.786-6.416-2.786-7.123-2.375-.711.431 1.082 2.22 4.232 4.392-4.748.215-8.08.722-8.08 1.322 0 .574 3.104 1.072 7.571 1.302-2.831 2.01-4.394 3.627-3.725 4.03.707.413 3.563-.578 7.07-2.348.367 2.828 1.225 4.819 2.234 4.819s1.868-1.992 2.226-4.819c3.51 1.768 6.371 2.76 7.07 2.348.68-.409-.888-2.026-3.716-4.03 4.469-.23 7.569-.728 7.569-1.302"/></svg>