<svg xmlns="http://www.w3.org/2000/svg" enable-background="new 0 0 64 64" viewBox="0 0 64 64"><path d="m64 57.1c0 3.813-3.087 6.903-6.896 6.903h-50.21c-3.808 0-6.896-3.09-6.896-6.903v-50.2c0-3.809 3.088-6.899 6.896-6.899h50.21c3.81 0 6.896 3.09 6.896 6.899v50.2" fill="#1b75bb"/><g fill="#fff"><path d="m11.899 15.1c-2.313.157-4.245 1.168-5.091 2.553v27.618c.85 1.388 2.786 2.4 5.103 2.554l22.39-16.303-22.402-16.422"/><path d="m34.831 15.1c-2.313.157-4.245 1.168-5.09 2.553v27.618c.85 1.388 2.785 2.4 5.103 2.554l22.39-16.303-22.403-16.422"/></g></svg>