<?xml version="1.0"?><svg xmlns="http://www.w3.org/2000/svg" width="56" height="64" viewBox="0 0 56 64"><path d="m5.1 0c-2.8 0-5.1 2.2-5.1 5v53.9c0 2.8 2.3 5.1 5.1 5.1h45.8c2.8 0 5.1-2.3 5.1-5.1v-38.6l-18.9-20.3h-32z" fill-rule="evenodd" clip-rule="evenodd" fill="#FC7B24"></path><g fill-rule="evenodd" clip-rule="evenodd"><path d="m56 20.4v1h-12.8s-6.3-1.3-6.2-6.8c0 0 0.3 5.8 6.1 5.8h12.9z" fill="#FB5C1B"></path><path d="m37.1 0v14.6c0 1.6 1.1 5.8 6.1 5.8h12.8l-18.9-20.4z" opacity=".5" fill="#fff"></path></g><path d="m19.4 53.8c-0.2 0-0.4 0-0.6-0.2l-3.7-5-3.7 5c-0.2 0.2-0.4 0.2-0.6 0.2-0.4 0-0.7-0.3-0.7-0.7 0-0.1 0-0.3 0.1-0.4l3.9-5.1-3.6-4.9c-0.1-0.1-0.1-0.2-0.1-0.4 0-0.3 0.3-0.7 0.7-0.7 0.2 0 0.4 0.1 0.6 0.3l3.4 4.6 3.4-4.6c0.2-0.2 0.4-0.3 0.6-0.3 0.4 0 0.7 0.3 0.7 0.7 0 0.2 0 0.3-0.1 0.4l-3.6 4.8 3.9 5.2c0.1 0.1 0.1 0.3 0.1 0.4 0 0.4-0.3 0.7-0.7 0.7z m14.4 0c-0.4 0-0.7-0.3-0.7-0.7v-9.3l-4 9.8c-0.1 0.1-0.2 0.2-0.4 0.2-0.2 0-0.3-0.1-0.4-0.2l-4-9.8v9.3c0 0.4-0.3 0.7-0.7 0.7-0.5 0-0.8-0.3-0.8-0.7v-10.3c0-0.6 0.6-1.2 1.3-1.2 0.5 0 1 0.3 1.2 0.8l3.4 8.4 3.4-8.4c0.2-0.5 0.7-0.8 1.2-0.8 0.7 0 1.3 0.6 1.3 1.2v10.3c0 0.4-0.3 0.7-0.8 0.7z m10.6-0.1h-5.5c-0.6 0-1.1-0.5-1.1-1.1v-10.3c0-0.4 0.4-0.7 0.8-0.7 0.4 0 0.7 0.3 0.7 0.7v10.1h5.1c0.3 0 0.6 0.3 0.6 0.6 0 0.4-0.3 0.7-0.6 0.7z" fill="#fff"></path></svg>