<?xml version="1.0" encoding="UTF-8"?>
<svg xmlns="http://www.w3.org/2000/svg" xmlns:xlink="http://www.w3.org/1999/xlink" version="1.2" >
<font id="Overpass-BoldItalic">
<font-face  font-family="Overpass" units-per-em="1000" ascent="750" descent="-250" font-style="italic" font-weight="700" font-stretch="normal" slope="-10" cap-height="700" x-height="511" underline-position="-123" underline-thickness="20" />
<missing-glyph  horiz-adv-x="221" d="" />
<glyph glyph-name="eth" unicode="&#xf0;" horiz-adv-x="547" d="M316 589 Q296 597 274 601 Q252 605 230 606 L250 712 Q295 712 335.5 703.5 Q376 695 411 675 L478 736 L534 668 L479 618 Q516 574 536.5 507 Q557 440 557 343 Q557 268 539.5 203 Q522 138 487.5 90.5 Q453 43 401 15.5 Q349 -12 279 -12 Q233 -12 196.5 3 Q160 18 134 44.5 Q108 71 94 108.5 Q80 146 80 191 Q80 245 99.5 293.5 Q119 342 152.5 378 Q186 414 231.5 435 Q277 456 330 456 Q361 456 387.5 448 Q414 440 430 426 Q428 461 417 488.5 Q406 516 389 536 L322 475 L265 542 L316 589 Z M294 113 Q318 113 339.5 122.5 Q361 132 378 149 Q395 166 405 189.5 Q415 213 415 241 Q415 281 392 306 Q369 331 331 331 Q306 331 284 321.5 Q262 312 245.5 295 Q229 278 219.5 254.5 Q210 231 210 203 Q210 165 233.5 139 Q257 113 294 113 Z " />
<glyph glyph-name="Lslash" unicode="&#x141;" horiz-adv-x="552" d="M80 0 L116 209 L44 158 L74 309 L142 356 L203 700 L340 700 L298 463 L448 567 L418 417 L272 317 L239 128 L560 128 L537 0 L80 0 Z " />
<glyph glyph-name="lslash" unicode="&#x142;" horiz-adv-x="278" d="M71 296 L131 337 L191 679 L328 722 L278 437 L340 480 L317 351 L255 309 L200 0 L72 0 L108 207 L48 167 L71 296 Z " />
<glyph glyph-name="Scaron" unicode="&#x160;" horiz-adv-x="610" d="M494 510 Q487 542 462 564.5 Q437 587 392 587 Q344 587 319 566.5 Q294 546 294 517 Q294 492 316 475.5 Q338 459 371 444 Q404 429 442.5 412.5 Q481 396 514 370.5 Q547 345 569 306.5 Q591 268 591 211 Q591 161 571.5 119.5 Q552 78 516.5 49 Q481 20 431.5 4 Q382 -12 321 -12 Q272 -12 233 2.5 Q194 17 165 43 Q136 69 116 104 Q96 139 85 180 L210 226 Q226 177 255 147.5 Q284 118 340 118 Q387 118 417.5 139 Q448 160 448 198 Q448 229 426.5 249 Q405 269 372.5 285 Q340 301 302.5 317 Q265 333 232.5 357 Q200 381 178.5 417.5 Q157 454 157 510 Q157 553 173.5 590 Q190 627 221.5 654 Q253 681 298.5 696.5 Q344 712 401 712 Q454 712 492.5 697.5 Q531 683 557 660 Q583 637 597.5 608 Q612 579 617 550 L494 510 Z M495 766 L375 766 L267 922 L382 922 L451 853 L543 922 L658 922 L495 766 Z " />
<glyph glyph-name="scaron" unicode="&#x161;" horiz-adv-x="474" d="M392 370 Q381 385 360 400 Q339 415 304 415 Q275 415 257 403 Q239 391 239 371 Q239 357 255.5 346 Q272 335 296.5 323 Q321 311 349.5 297 Q378 283 402.5 264 Q427 245 443.5 219 Q460 193 460 157 Q460 78 403 33 Q346 -12 246 -12 Q215 -12 185.5 -5 Q156 2 130.5 14 Q105 26 85.5 43.5 Q66 61 55 82 L148 153 Q154 145 164 135.5 Q174 126 187.5 117.5 Q201 109 219 103.5 Q237 98 259 98 Q287 98 309.5 109 Q332 120 332 144 Q332 160 316 172 Q300 184 275.5 196.5 Q251 209 223 222.5 Q195 236 170.5 254.5 Q146 273 130 299 Q114 325 114 361 Q114 399 129.5 429 Q145 459 172 480 Q199 501 236.5 512 Q274 523 318 523 Q349 523 376 515.5 Q403 508 425 496 Q447 484 463.5 469.5 Q480 455 489 441 L392 370 Z M398 576 L278 576 L170 732 L285 732 L354 663 L446 732 L561 732 L398 576 Z " />
<glyph glyph-name="Yacute" unicode="&#xdd;" horiz-adv-x="684" d="M273 0 L323 282 L150 700 L292 700 L408 414 L624 700 L778 700 L459 279 L410 0 L273 0 Z M511 766 L390 766 L553 922 L714 922 L511 766 Z " />
<glyph glyph-name="yacute" unicode="&#xfd;" horiz-adv-x="547" d="M240 -194 L99 -194 L210 10 L114 511 L242 511 L297 216 Q299 205 301 192 Q303 179 304 169 Q309 182 314.5 193.5 Q320 205 326 216 L486 511 L625 511 L240 -194 Z M421 576 L300 576 L463 732 L624 732 L421 576 Z " />
<glyph glyph-name="Thorn" unicode="&#xde;" horiz-adv-x="641" d="M80 0 L203 700 L340 700 L319 577 L474 577 Q530 577 568 558.5 Q606 540 629 510.5 Q652 481 661.5 445.5 Q671 410 671 377 Q671 329 654 285 Q637 241 604 208 Q571 175 522.5 155 Q474 135 411 135 L240 135 L216 0 L80 0 Z M426 263 Q455 263 475.5 273.5 Q496 284 508.5 299 Q521 314 526.5 331.5 Q532 349 532 364 Q532 399 516 424 Q500 449 458 449 L296 449 L263 263 L426 263 Z " />
<glyph glyph-name="thorn" unicode="&#xfe;" horiz-adv-x="553" d="M311 -12 Q239 -12 207 37 L173 -157 L36 -200 L191 679 L328 722 L282 470 Q303 494 332 508.5 Q361 523 399 523 Q432 523 461.5 508.5 Q491 494 513 466.5 Q535 439 548 399 Q561 359 561 309 Q561 230 539.5 170 Q518 110 483 69.5 Q448 29 403 8.5 Q358 -12 311 -12 Z M305 113 Q364 113 398.5 163 Q433 213 433 295 Q433 341 413 369.5 Q393 398 351 398 Q326 398 300 384.5 Q274 371 261 351 L227 155 Q234 140 252 126.5 Q270 113 305 113 Z " />
<glyph glyph-name="Zcaron" unicode="&#x17d;" horiz-adv-x="638" d="M53 0 L71 103 L494 572 L175 572 L197 700 L699 700 L681 597 L255 128 L599 128 L576 0 L53 0 Z M523 766 L403 766 L295 922 L410 922 L479 853 L571 922 L686 922 L523 766 Z " />
<glyph glyph-name="zcaron" unicode="&#x17e;" horiz-adv-x="515" d="M50 0 L68 102 L363 395 L138 395 L158 511 L552 511 L535 412 L239 116 L481 116 L461 0 L50 0 Z M433 576 L313 576 L205 732 L320 732 L389 663 L481 732 L596 732 L433 576 Z " />
<glyph glyph-name="onehalf" unicode="&#xbd;" horiz-adv-x="759" d="M15 -12 L602 712 L726 712 L139 -12 L15 -12 Z M109 283 L164 593 L115 593 L129 676 Q161 676 177.5 683.5 Q194 691 205 705 L288 705 L214 283 L109 283 Z M467 304 Q493 360 538.5 394.5 Q584 429 643 429 Q700 429 731.5 399 Q763 369 763 321 Q763 286 752.5 261.5 Q742 237 724 219.5 Q706 202 682 188.5 Q658 175 630 161 Q604 147 585 133 Q566 119 555 102 L725 102 L707 0 L412 0 Q421 49 438.5 87.5 Q456 126 480 156 Q504 186 534 208.5 Q564 231 597 247 Q617 258 634 269.5 Q651 281 651 301 Q651 313 643.5 321 Q636 329 620 329 Q598 329 583 316 Q568 303 557 280 L467 304 Z " />
<glyph glyph-name="onequarter" unicode="&#xbc;" horiz-adv-x="719" d="M15 -12 L602 712 L726 712 L139 -12 L15 -12 Z M109 283 L164 593 L115 593 L129 676 Q161 676 177.5 683.5 Q194 691 205 705 L288 705 L214 283 L109 283 Z M530 0 L544 80 L347 80 L360 152 L605 422 L701 422 L657 172 L711 172 L695 80 L641 80 L627 0 L530 0 Z M560 172 L581 288 L475 172 L560 172 Z " />
<glyph glyph-name="onesuperior" unicode="&#xb9;" horiz-adv-x="215" d="M137 444 L192 754 L143 754 L158 837 Q190 837 206.5 844.5 Q223 852 234 866 L317 866 L242 444 L137 444 Z " />
<glyph glyph-name="threequarters" unicode="&#xbe;" horiz-adv-x="836" d="M132 -12 L719 712 L843 712 L256 -12 L132 -12 Z M133 612 Q160 660 202 686 Q244 712 293 712 Q347 712 374.5 682 Q402 652 402 611 Q402 571 381 543 Q360 515 334 502 Q357 492 370 472 Q383 452 383 424 Q383 393 371 366 Q359 339 337 319 Q315 299 283 287.5 Q251 276 212 276 Q155 276 122.5 308.5 Q90 341 82 399 L183 425 Q185 399 197.5 386.5 Q210 374 230 374 Q253 374 266 388 Q279 402 279 422 Q279 436 268.5 445 Q258 454 234 454 L197 454 L213 546 L249 546 Q274 546 284.5 558.5 Q295 571 295 586 Q295 598 287.5 606 Q280 614 266 614 Q247 614 236 604.5 Q225 595 215 578 L133 612 Z M647 0 L661 80 L464 80 L477 152 L722 422 L818 422 L774 172 L828 172 L812 80 L758 80 L744 0 L647 0 Z M677 172 L698 288 L592 172 L677 172 Z " />
<glyph glyph-name="threesuperior" unicode="&#xb3;" horiz-adv-x="341" d="M211 586 Q213 560 227 547.5 Q241 535 261 535 Q283 535 295 547 Q307 559 307 576 Q307 615 263 615 L225 615 L242 707 L276 707 Q300 707 311.5 720 Q323 733 323 747 Q323 759 315 767 Q307 775 293 775 Q278 775 265.5 765.5 Q253 756 243 739 L161 773 Q188 821 228 847 Q268 873 321 873 Q372 873 401.5 843 Q431 813 431 772 Q431 732 409.5 704 Q388 676 362 663 Q381 655 396.5 631.5 Q412 608 412 574 Q412 545 401 520.5 Q390 496 369.5 477 Q349 458 320 447.5 Q291 437 255 437 Q189 437 154.5 470 Q120 503 111 560 L211 586 Z " />
<glyph glyph-name="twosuperior" unicode="&#xb2;" horiz-adv-x="355" d="M101 444 Q109 487 121.5 521 Q134 555 155 584 Q176 613 208 638.5 Q240 664 286 691 Q306 702 323 715 Q340 728 340 743 Q340 757 332 765 Q324 773 308 773 Q290 773 274 760 Q258 747 247 724 L156 748 Q182 804 227.5 838.5 Q273 873 332 873 Q361 873 384 863 Q407 853 422.5 837 Q438 821 446 800 Q454 779 454 757 Q454 734 448.5 716 Q443 698 429.5 681 Q416 664 393.5 647 Q371 630 337 610 Q312 595 289.5 578.5 Q267 562 256 546 L414 546 L396 444 L101 444 Z " />
<glyph glyph-name="brokenbar" unicode="&#xa6;" horiz-adv-x="288" d="M147 369 L209 720 L333 720 L271 369 L147 369 Z M61 -120 L123 231 L181 231 L247 231 L185 -120 L61 -120 Z " />
<glyph glyph-name="minus" unicode="&#x2212;" horiz-adv-x="605" d="M145 406 L574 406 L574 280 L145 280 L145 406 Z " />
<glyph glyph-name="multiply" unicode="&#xd7;" horiz-adv-x="605" d="M361 251 L217 106 L123 201 L267 344 L124 488 L215 579 L359 436 L502 580 L597 486 L452 342 L596 199 L504 107 L361 251 Z " />
<glyph glyph-name="space" unicode="&#x20;" horiz-adv-x="221" d="" />
<glyph glyph-name="exclam" unicode="&#x21;" horiz-adv-x="288" d="M142 193 L167 486 L207 712 L331 712 L291 486 L213 193 L142 193 Z M146 -12 Q114 -12 95 8 Q76 28 76 57 Q76 99 102.5 126 Q129 153 165 153 Q200 153 219 133 Q238 113 238 84 Q238 42 212 15 Q186 -12 146 -12 Z " />
<glyph glyph-name="quotedbl" unicode="&#x22;" horiz-adv-x="430" d="M166 700 L316 700 L242 409 L138 409 L166 700 Z M360 700 L510 700 L436 409 L381 409 L332 409 L360 700 Z " />
<glyph glyph-name="numbersign" unicode="&#x23;" horiz-adv-x="672" d="M116 0 L173 176 L71 176 L107 288 L209 288 L255 429 L153 429 L187 541 L291 541 L341 700 L450 700 L399 541 L515 541 L567 700 L676 700 L625 541 L727 541 L692 429 L590 429 L544 288 L646 288 L610 176 L508 176 L451 0 L342 0 L399 176 L283 176 L226 0 L116 0 Z M319 288 L435 288 L480 429 L364 429 L319 288 Z " />
<glyph glyph-name="dollar" unicode="&#x24;" horiz-adv-x="577" d="M471 511 Q462 541 442 563.5 Q422 586 379 586 Q343 586 321.5 567 Q300 548 300 522 Q300 496 319.5 479 Q339 462 368 447 Q397 432 431 415.5 Q465 399 494 374 Q523 349 542.5 312 Q562 275 562 220 Q562 179 550 142 Q538 105 513 74.5 Q488 44 449.5 22 Q411 0 358 -9 L344 -92 L209 -92 L225 -2 Q190 8 165.5 27 Q141 46 124 70 Q107 94 97 122 Q87 150 83 179 L203 222 Q214 174 241 145 Q268 116 316 116 Q365 116 394.5 139.5 Q424 163 424 205 Q424 236 404.5 256.5 Q385 277 356 293.5 Q327 310 292.5 326 Q258 342 229 366 Q200 390 180.5 425 Q161 460 161 513 Q161 541 172 573 Q183 605 206.5 632.5 Q230 660 265.5 681 Q301 702 350 710 L363 785 L488 785 L474 702 Q504 692 525 675 Q546 658 560.5 637.5 Q575 617 583 594.5 Q591 572 595 552 L471 511 Z " />
<glyph glyph-name="percent" unicode="&#x25;" horiz-adv-x="810" d="M275 346 Q238 346 211 360 Q184 374 167 396.5 Q150 419 141.5 446 Q133 473 133 500 Q133 536 144.5 574 Q156 612 179.5 642.5 Q203 673 238.5 692.5 Q274 712 321 712 Q358 712 385 698 Q412 684 429.5 661.5 Q447 639 455 611.5 Q463 584 463 558 Q463 513 449 474.5 Q435 436 410.5 407.5 Q386 379 351.5 362.5 Q317 346 275 346 Z M285 450 Q301 450 314.5 459 Q328 468 337 482 Q346 496 351 514 Q356 532 356 550 Q356 576 344.5 592 Q333 608 310 608 Q293 608 280 599.5 Q267 591 258 576.5 Q249 562 244.5 544 Q240 526 240 508 Q240 487 249.5 468.5 Q259 450 285 450 Z M240 -12 L108 -12 L694 712 L826 712 L240 -12 Z M618 -12 Q581 -12 554 2 Q527 16 510 38.5 Q493 61 484.5 88 Q476 115 476 142 Q476 178 487.5 216 Q499 254 522.5 284.5 Q546 315 581.5 334.5 Q617 354 664 354 Q701 354 728 340 Q755 326 772.5 303.5 Q790 281 798 253.5 Q806 226 806 200 Q806 155 792 116.5 Q778 78 753.5 49.5 Q729 21 694.5 4.5 Q660 -12 618 -12 Z M628 92 Q644 92 657.5 101 Q671 110 680 124 Q689 138 694 156 Q699 174 699 192 Q699 218 687.5 234 Q676 250 653 250 Q636 250 623 241.5 Q610 233 601 218.5 Q592 204 587.5 186 Q583 168 583 150 Q583 129 592.5 110.5 Q602 92 628 92 Z " />
<glyph glyph-name="ampersand" unicode="&#x26;" horiz-adv-x="690" d="M506 0 L467 66 Q423 28 372 8 Q321 -12 260 -12 Q219 -12 187 1 Q155 14 132.5 36.5 Q110 59 98 90.5 Q86 122 86 160 Q86 206 100 242 Q114 278 138.5 306.5 Q163 335 196.5 357 Q230 379 268 397 Q247 430 238.5 460.5 Q230 491 230 526 Q230 570 246.5 604.5 Q263 639 289.5 663 Q316 687 349.5 699.5 Q383 712 418 712 Q494 712 535 672 Q576 632 576 567 Q576 534 565 505.5 Q554 477 534.5 453 Q515 429 489.5 408.5 Q464 388 436 372 L493 282 Q498 298 503.5 315.5 Q509 333 512 350 L635 350 Q625 302 605.5 253.5 Q586 205 563 170 L668 0 L506 0 Z M297 113 Q327 113 357.5 125.5 Q388 138 411 158 L322 306 Q220 253 220 186 Q220 153 239.5 133 Q259 113 297 113 Z M351 543 Q351 523 359.5 501.5 Q368 480 383 457 Q415 477 435.5 501.5 Q456 526 456 561 Q456 587 442.5 599.5 Q429 612 409 612 Q386 612 368.5 593.5 Q351 575 351 543 Z " />
<glyph glyph-name="quotesingle" unicode="&#x27;" horiz-adv-x="236" d="M166 700 L316 700 L242 409 L138 409 L166 700 Z " />
<glyph glyph-name="parenleft" unicode="&#x28;" horiz-adv-x="357" d="M163 -130 Q151 -109 140.5 -76.5 Q130 -44 121.5 -5 Q113 34 108 77 Q103 120 103 164 Q103 263 122.5 346.5 Q142 430 172.5 498.5 Q203 567 240.5 620.5 Q278 674 314 712 L445 712 Q422 687 385 639 Q348 591 313.5 522 Q279 453 254 364 Q229 275 229 167 Q229 119 235 72 Q241 25 249 -15 Q257 -55 266.5 -85 Q276 -115 284 -130 L163 -130 Z " />
<glyph glyph-name="parenright" unicode="&#x29;" horiz-adv-x="357" d="M296 712 Q308 691 318.5 658.5 Q329 626 337.5 587 Q346 548 351 504.5 Q356 461 356 418 Q356 319 336.5 235.5 Q317 152 286.5 83.5 Q256 15 218.5 -38.5 Q181 -92 145 -130 L14 -130 Q37 -105 74 -56.5 Q111 -8 145.5 62 Q180 132 205 221 Q230 310 230 415 Q230 463 224 510 Q218 557 210 597 Q202 637 192 667 Q182 697 175 712 L296 712 Z " />
<glyph glyph-name="asterisk" unicode="&#x2a;" horiz-adv-x="528" d="M346 379 L339 426 L320 379 L235 277 L148 352 L233 447 L283 469 L244 470 L134 511 L178 618 L289 578 L320 556 L310 597 L333 721 L451 721 L429 601 L404 556 L442 583 L553 617 L576 507 L459 470 L408 469 L442 449 L504 340 L403 275 L346 379 Z " />
<glyph glyph-name="plus" unicode="&#x2b;" horiz-adv-x="605" d="M425 280 L425 108 L295 108 L295 280 L137 280 L137 406 L295 406 L295 578 L425 578 L425 406 L583 406 L583 280 L425 280 Z " />
<glyph glyph-name="comma" unicode="&#x2c;" horiz-adv-x="237" d="M16 -100 Q23 -94 34 -83 Q45 -72 56.5 -59.5 Q68 -47 78.5 -33 Q89 -19 95 -7 Q76 0 64 16.5 Q52 33 52 57 Q52 79 59.5 96.5 Q67 114 79.5 126.5 Q92 139 108 146 Q124 153 141 153 Q174 153 195 133 Q216 113 216 77 Q216 45 203 13.5 Q190 -18 168 -46.5 Q146 -75 118.5 -99.5 Q91 -124 61 -141 L16 -100 Z " />
<glyph glyph-name="hyphen" unicode="&#x2d;" horiz-adv-x="396" d="M113 233 L135 358 L387 358 L365 233 L113 233 Z " />
<glyph glyph-name="period" unicode="&#x2e;" horiz-adv-x="231" d="M118 -12 Q86 -12 67 8 Q48 28 48 57 Q48 99 74.5 126 Q101 153 137 153 Q172 153 191 133 Q210 113 210 84 Q210 42 184 15 Q158 -12 118 -12 Z " />
<glyph glyph-name="slash" unicode="&#x2f;" horiz-adv-x="501" d="M-37 -130 L489 712 L621 712 L94 -130 L-37 -130 Z " />
<glyph glyph-name="zero" unicode="0" horiz-adv-x="639" d="M329 -13 Q276 -13 237.5 9 Q199 31 173.5 69 Q148 107 136 157.5 Q124 208 124 264 Q124 314 132 367 Q140 420 156 470 Q172 520 197 564.5 Q222 609 257 642 Q292 675 336 694.5 Q380 714 435 714 Q494 714 533.5 688 Q573 662 596.5 622.5 Q620 583 629.5 534.5 Q639 486 639 441 Q639 395 632 343.5 Q625 292 609.5 242 Q594 192 570 145.5 Q546 99 511.5 64 Q477 29 431.5 8 Q386 -13 329 -13 Z M343 116 Q387 116 418.5 150 Q450 184 470 233 Q490 282 499.5 335.5 Q509 389 509 428 Q509 458 504 486.5 Q499 515 488 536.5 Q477 558 459.5 571.5 Q442 585 417 585 Q387 585 363.5 568 Q340 551 322 523.5 Q304 496 291 461.5 Q278 427 270 392 Q262 357 258 325 Q254 293 254 271 Q254 241 259 213.5 Q264 186 274.5 164 Q285 142 302 129 Q319 116 343 116 Z " />
<glyph glyph-name="one" unicode="1" horiz-adv-x="400" d="M136 0 L227 518 L125 518 L144 625 Q192 625 228.5 641 Q265 657 285 700 L392 700 L269 0 L136 0 Z " />
<glyph glyph-name="two" unicode="2" horiz-adv-x="593" d="M62 0 Q76 83 103.5 142 Q131 201 168 244 Q205 287 250 318.5 Q295 350 345 380 Q367 393 392 406.5 Q417 420 437.5 436 Q458 452 471.5 472 Q485 492 485 518 Q485 550 466 570 Q447 590 406 590 Q318 590 278 505 L172 560 Q214 631 275 671.5 Q336 712 423 712 Q466 712 502.5 697.5 Q539 683 565 658 Q591 633 606 599.5 Q621 566 621 527 Q621 476 605.5 440.5 Q590 405 561 376.5 Q532 348 491.5 323.5 Q451 299 401 271 Q376 257 351.5 240.5 Q327 224 307 206 Q287 188 271.5 169 Q256 150 249 130 L551 130 L528 0 L62 0 Z " />
<glyph glyph-name="three" unicode="3" horiz-adv-x="582" d="M315 -12 Q217 -12 156 32.5 Q95 77 74 152 L199 201 Q213 153 244.5 133 Q276 113 315 113 Q336 113 356.5 120.5 Q377 128 392.5 142.5 Q408 157 418 177 Q428 197 428 223 Q428 255 406.5 278 Q385 301 337 301 L274 301 L296 426 L359 426 Q379 426 397 433.5 Q415 441 428.5 454 Q442 467 450 484 Q458 501 458 520 Q458 547 438.5 567.5 Q419 588 384 588 Q350 588 323.5 570 Q297 552 278 520 L169 567 Q205 633 265.5 672.5 Q326 712 401 712 Q442 712 477 700.5 Q512 689 538 667 Q564 645 579 614.5 Q594 584 594 546 Q594 482 559.5 436 Q525 390 470 366 Q497 355 515 337.5 Q533 320 544 299 Q555 278 559.5 256 Q564 234 564 213 Q564 164 545 123 Q526 82 492 52 Q458 22 412.5 5 Q367 -12 315 -12 Z " />
<glyph glyph-name="four" unicode="4" horiz-adv-x="632" d="M372 0 L397 140 L49 140 L67 243 L478 700 L628 700 L552 265 L634 265 L612 140 L530 140 L505 0 L372 0 Z M419 265 L463 517 L240 265 L419 265 Z " />
<glyph glyph-name="five" unicode="5" horiz-adv-x="586" d="M197 197 Q203 184 211.5 169.5 Q220 155 234.5 143 Q249 131 269.5 123.5 Q290 116 319 116 Q342 116 365 124 Q388 132 406.5 148 Q425 164 436.5 187.5 Q448 211 448 243 Q448 289 422 314.5 Q396 340 354 340 Q320 340 295.5 326 Q271 312 248 289 L138 348 L217 700 L605 700 L583 570 L315 570 L283 440 Q302 451 328.5 458 Q355 465 391 465 Q436 465 472 450 Q508 435 532.5 407.5 Q557 380 570.5 341 Q584 302 584 255 Q584 191 562.5 141 Q541 91 503.5 57 Q466 23 415 5.5 Q364 -12 305 -12 Q263 -12 225.5 0 Q188 12 158 33 Q128 54 107 83 Q86 112 76 147 L197 197 Z " />
<glyph glyph-name="six" unicode="6" horiz-adv-x="595" d="M322 -12 Q266 -12 224 5.5 Q182 23 153.5 54.5 Q125 86 110.5 129 Q96 172 96 223 Q96 272 108.5 326 Q121 380 147 432 Q173 484 212.5 532 Q252 580 306 618 Q360 656 429 681 Q498 706 582 712 L559 584 Q521 578 482 565.5 Q443 553 407.5 531.5 Q372 510 341.5 479.5 Q311 449 289 409 Q309 423 339 433.5 Q369 444 405 444 Q447 444 481 430 Q515 416 539 391 Q563 366 576 331.5 Q589 297 589 256 Q589 192 567 142 Q545 92 508.5 58 Q472 24 423.5 6 Q375 -12 322 -12 Z M329 113 Q354 113 377 120.5 Q400 128 418 143 Q436 158 446.5 179 Q457 200 457 227 Q457 264 433.5 290.5 Q410 317 365 317 Q339 317 316 309 Q293 301 275.5 286.5 Q258 272 247.5 251 Q237 230 237 203 Q237 163 261.5 138 Q286 113 329 113 Z " />
<glyph glyph-name="seven" unicode="7" horiz-adv-x="525" d="M159 0 Q191 172 258.5 312 Q326 452 427 570 L125 570 L147 700 L610 700 L589 581 Q526 518 476.5 442 Q427 366 391.5 287.5 Q356 209 333.5 134.5 Q311 60 301 0 L159 0 Z " />
<glyph glyph-name="eight" unicode="8" horiz-adv-x="610" d="M322 -12 Q272 -12 230.5 4 Q189 20 159 48 Q129 76 112 113 Q95 150 95 191 Q95 235 109 269 Q123 303 146.5 327.5 Q170 352 201.5 367.5 Q233 383 269 390 Q233 404 206 436 Q179 468 179 521 Q179 561 196.5 596 Q214 631 246 657 Q278 683 321.5 697.5 Q365 712 418 712 Q470 712 509 698.5 Q548 685 574.5 661.5 Q601 638 614 607 Q627 576 627 541 Q627 507 615 479.5 Q603 452 584 432 Q565 412 540.5 398.5 Q516 385 491 379 Q510 373 529.5 359.5 Q549 346 564 326 Q579 306 588.5 280 Q598 254 598 222 Q598 178 580.5 136 Q563 94 528.5 61 Q494 28 442.5 8 Q391 -12 322 -12 Z M334 110 Q392 110 425.5 140 Q459 170 459 221 Q459 238 452.5 255 Q446 272 433 285.5 Q420 299 400.5 307.5 Q381 316 355 316 Q326 316 303.5 307 Q281 298 265.5 282.5 Q250 267 242 247 Q234 227 234 205 Q234 164 260.5 137 Q287 110 334 110 Z M396 438 Q435 438 463 460.5 Q491 483 491 522 Q491 534 486 547 Q481 560 471 570 Q461 580 445.5 586.5 Q430 593 409 593 Q391 593 374.5 587.5 Q358 582 344.5 571 Q331 560 323 544.5 Q315 529 315 510 Q315 484 335 461 Q355 438 396 438 Z " />
<glyph glyph-name="nine" unicode="9" horiz-adv-x="595" d="M178 119 Q214 120 252 129 Q290 138 325 159 Q360 180 391.5 215 Q423 250 447 304 Q426 287 395 275.5 Q364 264 323 264 Q279 264 242.5 278 Q206 292 180 317.5 Q154 343 139.5 380 Q125 417 125 462 Q125 521 147 567.5 Q169 614 206.5 646 Q244 678 293 695 Q342 712 395 712 Q504 712 564 649 Q624 586 624 473 Q624 425 614 370.5 Q604 316 581.5 263 Q559 210 523 161 Q487 112 435 74 Q383 36 313.5 13 Q244 -10 155 -12 L178 119 Z M352 388 Q384 388 408.5 397.5 Q433 407 449.5 423 Q466 439 474.5 459.5 Q483 480 483 501 Q483 536 460.5 561 Q438 586 388 586 Q362 586 339 577 Q316 568 299 553 Q282 538 272 517.5 Q262 497 262 473 Q262 430 289 409 Q316 388 352 388 Z " />
<glyph glyph-name="colon" unicode="&#x3a;" horiz-adv-x="231" d="M118 -12 Q86 -12 67 8 Q48 28 48 57 Q48 99 74.5 126 Q101 153 137 153 Q172 153 191 133 Q210 113 210 84 Q210 42 184 15 Q158 -12 118 -12 Z M176 321 Q144 321 125 341 Q106 361 106 390 Q106 432 132.5 459 Q159 486 195 486 Q230 486 249 466 Q268 446 268 417 Q268 375 242 348 Q216 321 176 321 Z " />
<glyph glyph-name="semicolon" unicode="&#x3b;" horiz-adv-x="231" d="M176 321 Q144 321 125 341 Q106 361 106 390 Q106 432 132.5 459 Q159 486 195 486 Q230 486 249 466 Q268 446 268 417 Q268 375 242 348 Q216 321 176 321 Z M12 -100 Q19 -94 30 -83 Q41 -72 52.5 -59.5 Q64 -47 74.5 -33 Q85 -19 91 -7 Q72 0 60 16.5 Q48 33 48 57 Q48 79 55.5 96.5 Q63 114 75.5 126.5 Q88 139 104 146 Q120 153 137 153 Q170 153 191 133 Q212 113 212 77 Q212 45 199 13.5 Q186 -18 164 -46.5 Q142 -75 114.5 -99.5 Q87 -124 57 -141 L12 -100 Z " />
<glyph glyph-name="less" unicode="&#x3c;" horiz-adv-x="605" d="M591 98 L145 290 L145 396 L591 588 L591 452 L329 343 L591 233 L591 98 Z " />
<glyph glyph-name="equal" unicode="&#x3d;" horiz-adv-x="605" d="M137 169 L137 295 L583 295 L583 235 L583 169 L137 169 Z M137 391 L137 517 L583 517 L583 391 L137 391 Z " />
<glyph glyph-name="greater" unicode="&#x3e;" horiz-adv-x="605" d="M583 290 L137 98 L137 234 L399 343 L137 453 L137 588 L583 396 L583 290 Z " />
<glyph glyph-name="question" unicode="&#x3f;" horiz-adv-x="485" d="M205 189 L212 225 Q221 274 240 308 Q259 342 282 366.5 Q305 391 329 408.5 Q353 426 372.5 442.5 Q392 459 404.5 477 Q417 495 417 520 Q417 546 400.5 566.5 Q384 587 347 587 Q301 587 269 556.5 Q237 526 227 469 L102 469 Q112 527 136.5 572.5 Q161 618 196 649 Q231 680 275 696 Q319 712 369 712 Q411 712 443.5 698.5 Q476 685 498.5 661 Q521 637 533 605 Q545 573 545 536 Q545 493 531.5 463 Q518 433 496.5 410 Q475 387 450 368.5 Q425 350 401.5 329.5 Q378 309 360 284 Q342 259 336 224 L330 189 L205 189 Z M238 -12 Q206 -12 187 8 Q168 28 168 57 Q168 99 194.5 126 Q221 153 257 153 Q292 153 311 133 Q330 113 330 84 Q330 42 304 15 Q278 -12 238 -12 Z " />
<glyph glyph-name="at" unicode="&#x40;" horiz-adv-x="804" d="M422 -12 Q346 -12 287 9 Q228 30 188 69 Q148 108 127.5 163.5 Q107 219 107 287 Q107 368 136.5 445 Q166 522 221.5 582 Q277 642 356.5 678 Q436 714 536 714 Q605 714 658.5 693.5 Q712 673 748.5 638 Q785 603 804 556.5 Q823 510 823 458 Q823 393 803.5 338 Q784 283 750 243 Q716 203 671.5 180.5 Q627 158 576 158 Q550 158 527 170 Q504 182 501 210 Q480 181 451 169.5 Q422 158 397 158 Q345 158 314.5 194 Q284 230 284 297 Q284 345 301 388 Q318 431 347.5 464 Q377 497 415.5 516.5 Q454 536 498 536 Q527 536 546.5 524 Q566 512 574 492 L584 523 L682 523 L619 345 Q607 312 599 290.5 Q591 269 591 261 Q591 248 604 248 Q625 248 647 262 Q669 276 687 302 Q705 328 716.5 364 Q728 400 728 445 Q728 479 716.5 510 Q705 541 680.5 564 Q656 587 618.5 600.5 Q581 614 530 614 Q460 614 401.5 589 Q343 564 300.5 520.5 Q258 477 234.5 418 Q211 359 211 291 Q211 246 224.5 208.5 Q238 171 265 143.5 Q292 116 333 101 Q374 86 428 86 Q492 86 562 102 L516 -2 Q498 -6 475 -9 Q452 -12 422 -12 Z M425 256 Q447 256 466 268 Q485 280 499.5 299 Q514 318 522 341 Q530 364 530 386 Q530 409 519 423.5 Q508 438 488 438 Q467 438 448.5 427.5 Q430 417 415.5 399 Q401 381 392.5 358 Q384 335 384 310 Q384 287 394.5 271.5 Q405 256 425 256 Z " />
<glyph glyph-name="A" unicode="A" horiz-adv-x="712" d="M543 0 L517 145 L258 145 L180 0 L35 0 L415 700 L548 700 L682 0 L543 0 Z M461 463 Q460 468 459 475.5 Q458 483 456.5 491.5 Q455 500 453.5 507.5 Q452 515 452 519 Q448 510 439.5 492.5 Q431 475 426 465 L321 268 L496 268 L461 463 Z " />
<glyph glyph-name="B" unicode="B" horiz-adv-x="683" d="M203 700 L499 700 Q552 700 588.5 686 Q625 672 648 649.5 Q671 627 681.5 598.5 Q692 570 692 541 Q692 487 667 438 Q642 389 585 362 Q629 343 651 305 Q673 267 673 219 Q673 175 657.5 135.5 Q642 96 609 66 Q576 36 525 18 Q474 0 404 0 L80 0 L203 700 Z M403 126 Q462 126 495.5 149.5 Q529 173 529 218 Q529 253 509.5 276 Q490 299 441 299 L268 299 L237 126 L403 126 Z M438 425 Q501 425 529 450.5 Q557 476 557 508 Q557 518 553.5 530 Q550 542 542 551.5 Q534 561 519.5 567.5 Q505 574 483 574 L316 574 L290 425 L438 425 Z " />
<glyph glyph-name="C" unicode="C" horiz-adv-x="637" d="M360 -11 Q298 -11 252 12.5 Q206 36 176 76 Q146 116 131.5 169.5 Q117 223 117 283 Q117 366 140.5 443.5 Q164 521 208.5 580.5 Q253 640 317 675.5 Q381 711 461 711 Q510 711 548 697.5 Q586 684 613.5 661.5 Q641 639 659 610.5 Q677 582 686 553 L565 501 Q548 541 517.5 561 Q487 581 455 581 Q406 581 369 553.5 Q332 526 307 483.5 Q282 441 269.5 390 Q257 339 257 291 Q257 260 263.5 230 Q270 200 283.5 176 Q297 152 318.5 137 Q340 122 371 122 Q396 122 417.5 129.5 Q439 137 456.5 149.5 Q474 162 487 177.5 Q500 193 509 209 L628 158 Q527 -11 360 -11 Z " />
<glyph glyph-name="D" unicode="D" horiz-adv-x="700" d="M203 700 L420 700 Q493 700 546.5 674.5 Q600 649 635 605.5 Q670 562 687 504 Q704 446 704 381 Q704 315 683.5 247 Q663 179 618 124 Q573 69 502.5 34.5 Q432 0 333 0 L80 0 L203 700 Z M332 128 Q390 128 432.5 150 Q475 172 503 207 Q531 242 544.5 286.5 Q558 331 558 375 Q558 418 548.5 454 Q539 490 520 516.5 Q501 543 471.5 557.5 Q442 572 402 572 L313 572 L235 128 L332 128 Z " />
<glyph glyph-name="E" unicode="E" horiz-adv-x="607" d="M80 0 L203 700 L662 700 L640 572 L318 572 L292 425 L479 425 L456 297 L269 297 L240 128 L582 128 L559 0 L80 0 Z " />
<glyph glyph-name="F" unicode="F" horiz-adv-x="564" d="M80 0 L203 700 L654 700 L632 572 L318 572 L292 428 L490 428 L466 294 L269 294 L217 0 L80 0 Z " />
<glyph glyph-name="G" unicode="G" horiz-adv-x="675" d="M374 -12 Q304 -12 255 13.5 Q206 39 175.5 81.5 Q145 124 131 180.5 Q117 237 117 299 Q117 379 139.5 453.5 Q162 528 206 585.5 Q250 643 314 677.5 Q378 712 462 712 Q513 712 551 698 Q589 684 617 662 Q645 640 664 613 Q683 586 695 560 L575 495 Q558 530 528.5 556 Q499 582 451 582 Q403 582 365.5 558 Q328 534 302.5 494 Q277 454 264 403.5 Q251 353 251 300 Q251 262 258 228.5 Q265 195 280.5 170.5 Q296 146 321 132 Q346 118 381 118 Q436 118 473 148.5 Q510 179 523 229 L526 241 L403 241 L426 362 L692 362 L689 342 Q674 240 643 172 Q612 104 570 63 Q528 22 478 5 Q428 -12 374 -12 Z " />
<glyph glyph-name="H" unicode="H" horiz-adv-x="710" d="M80 0 L203 700 L340 700 L291 424 L568 424 L617 700 L754 700 L631 0 L494 0 L546 296 L269 296 L217 0 L80 0 Z " />
<glyph glyph-name="I" unicode="I" horiz-adv-x="296" d="M80 0 L203 700 L340 700 L217 0 L80 0 Z " />
<glyph glyph-name="J" unicode="J" horiz-adv-x="558" d="M278 -12 Q186 -12 127.5 29.5 Q69 71 49 142 L169 196 Q184 158 208 138.5 Q232 119 273 119 Q318 119 345.5 148.5 Q373 178 383 235 L465 700 L602 700 L515 205 Q503 136 475.5 93.5 Q448 51 414 27.5 Q380 4 343.5 -4 Q307 -12 278 -12 Z " />
<glyph glyph-name="K" unicode="K" horiz-adv-x="703" d="M515 0 L401 332 L247 171 L217 0 L80 0 L203 700 L340 700 L284 381 L589 700 L753 700 L503 438 L660 0 L515 0 Z " />
<glyph glyph-name="L" unicode="L" horiz-adv-x="552" d="M80 0 L203 700 L340 700 L239 128 L560 128 L537 0 L80 0 Z " />
<glyph glyph-name="M" unicode="M" horiz-adv-x="794" d="M579 0 L642 360 Q643 366 644.5 373.5 Q646 381 648 389 Q650 397 651.5 404 Q653 411 654 415 Q646 398 639 385 Q632 372 624 360 L395 -12 L296 360 Q294 372 291 385 Q288 398 286 415 Q286 411 285 404 Q284 397 283 389 Q282 381 280.5 373.5 Q279 366 278 360 L215 0 L80 0 L203 700 L341 700 L429 340 Q435 315 437 300.5 Q439 286 441 276 Q446 289 451.5 298.5 Q457 308 468 327 L702 700 L838 700 L715 0 L579 0 Z " />
<glyph glyph-name="N" unicode="N" horiz-adv-x="705" d="M506 0 L311 408 Q306 419 301 433.5 Q296 448 292 461 Q292 450 290 434.5 Q288 419 286 408 L214 0 L80 0 L203 700 L330 700 L519 297 Q524 287 529.5 272.5 Q535 258 538 244 Q539 258 540.5 272.5 Q542 287 544 297 L615 700 L749 700 L626 0 L506 0 Z " />
<glyph glyph-name="O" unicode="O" horiz-adv-x="717" d="M385 118 Q431 118 468.5 141 Q506 164 532 203 Q558 242 572.5 294.5 Q587 347 587 407 Q587 438 579.5 469.5 Q572 501 556 526 Q540 551 514 566.5 Q488 582 451 582 Q404 582 366.5 557.5 Q329 533 303.5 492.5 Q278 452 264.5 401 Q251 350 251 298 Q251 265 258 232.5 Q265 200 281 174.5 Q297 149 322.5 133.5 Q348 118 385 118 Z M386 -12 Q312 -12 261 14 Q210 40 178 83.5 Q146 127 131.5 183 Q117 239 117 298 Q117 380 140 455 Q163 530 206.5 587 Q250 644 314 678 Q378 712 460 712 Q527 712 576.5 686.5 Q626 661 658 618 Q690 575 705.5 520 Q721 465 721 407 Q721 321 697.5 245 Q674 169 630.5 112 Q587 55 525 21.5 Q463 -12 386 -12 Z " />
<glyph glyph-name="P" unicode="P" horiz-adv-x="641" d="M80 0 L203 700 L496 700 Q550 700 588 682 Q626 664 649 635.5 Q672 607 682.5 571 Q693 535 693 500 Q693 452 676 408 Q659 364 626 331 Q593 298 544.5 278 Q496 258 433 258 L262 258 L217 0 L80 0 Z M447 386 Q476 386 496.5 395.5 Q517 405 529.5 420 Q542 435 548 453 Q554 471 554 487 Q554 503 550.5 518.5 Q547 534 538.5 546 Q530 558 516 565 Q502 572 480 572 L318 572 L285 386 L447 386 Z " />
<glyph glyph-name="Q" unicode="Q" horiz-adv-x="717" d="M386 -12 Q312 -12 261 14 Q210 40 178 83.5 Q146 127 131.5 183 Q117 239 117 298 Q117 380 140 455 Q163 530 206.5 587 Q250 644 314 678 Q378 712 460 712 Q527 712 576.5 686.5 Q626 661 658 618 Q690 575 705.5 520 Q721 465 721 407 Q721 296 682.5 203.5 Q644 111 574 54 L612 -26 L499 -84 L461 -3 Q425 -12 386 -12 Z M385 118 Q390 118 394 118 Q398 118 403 119 L364 202 L479 259 L515 180 Q550 220 568.5 279 Q587 338 587 407 Q587 438 579.5 469.5 Q572 501 556 526 Q540 551 514 566.5 Q488 582 451 582 Q404 582 366.5 557.5 Q329 533 303.5 492.5 Q278 452 264.5 401 Q251 350 251 298 Q251 265 258 232.5 Q265 200 281 174.5 Q297 149 322.5 133.5 Q348 118 385 118 Z " />
<glyph glyph-name="R" unicode="R" horiz-adv-x="676" d="M713 492 Q713 463 705.5 429 Q698 395 678.5 364 Q659 333 626 307.5 Q593 282 543 270 L613 0 L466 0 L400 261 L263 261 L217 0 L80 0 L203 700 L511 700 Q568 700 606.5 682 Q645 664 668.5 634.5 Q692 605 702.5 567.5 Q713 530 713 492 Z M465 389 Q499 389 520.5 398.5 Q542 408 554 423 Q566 438 570 455 Q574 472 574 487 Q574 522 555.5 547 Q537 572 494 572 L317 572 L285 389 L465 389 Z " />
<glyph glyph-name="S" unicode="S" horiz-adv-x="610" d="M494 510 Q487 542 462 564.5 Q437 587 392 587 Q344 587 319 566.5 Q294 546 294 517 Q294 492 316 475.5 Q338 459 371 444 Q404 429 442.5 412.5 Q481 396 514 370.5 Q547 345 569 306.5 Q591 268 591 211 Q591 161 571.5 119.5 Q552 78 516.5 49 Q481 20 431.5 4 Q382 -12 321 -12 Q272 -12 233 2.5 Q194 17 165 43 Q136 69 116 104 Q96 139 85 180 L210 226 Q226 177 255 147.5 Q284 118 340 118 Q387 118 417.5 139 Q448 160 448 198 Q448 229 426.5 249 Q405 269 372.5 285 Q340 301 302.5 317 Q265 333 232.5 357 Q200 381 178.5 417.5 Q157 454 157 510 Q157 553 173.5 590 Q190 627 221.5 654 Q253 681 298.5 696.5 Q344 712 401 712 Q454 712 492.5 697.5 Q531 683 557 660 Q583 637 597.5 608 Q612 579 617 550 L494 510 Z " />
<glyph glyph-name="T" unicode="T" horiz-adv-x="600" d="M469 570 L368 0 L232 0 L333 570 L144 570 L166 700 L680 700 L658 570 L469 570 Z " />
<glyph glyph-name="U" unicode="U" horiz-adv-x="705" d="M366 -12 Q316 -12 272 1 Q228 14 195 41.5 Q162 69 143 111.5 Q124 154 124 212 Q124 229 125.5 250.5 Q127 272 135 316 L204 700 L339 700 L268 291 Q263 265 261.5 252 Q260 239 260 225 Q260 195 269.5 175 Q279 155 295 142.5 Q311 130 332 125 Q353 120 376 120 Q406 120 433 127 Q460 134 482 150.5 Q504 167 519 195.5 Q534 224 542 268 L618 700 L753 700 L675 256 Q661 175 632 123 Q603 71 562.5 41 Q522 11 472 -0.5 Q422 -12 366 -12 Z " />
<glyph glyph-name="V" unicode="V" horiz-adv-x="677" d="M416 0 L276 0 L161 700 L302 700 L364 281 Q365 270 366.5 256 Q368 242 369.5 228 Q371 214 371.5 202 Q372 190 372 183 Q377 197 386.5 223 Q396 249 410 276 L621 700 L767 700 L416 0 Z " />
<glyph glyph-name="W" unicode="W" horiz-adv-x="837" d="M922 700 L655 0 L531 0 L501 386 Q499 410 499 430.5 Q499 451 499 465 Q496 454 489.5 436.5 Q483 419 471 391 L308 0 L184 0 L163 700 L300 700 L301 306 Q301 288 300.5 276.5 Q300 265 300 254 Q303 265 307 276.5 Q311 288 319 307 L480 700 L596 700 L621 307 Q622 293 622 279 Q622 265 622 254 Q625 265 629 276.5 Q633 288 640 306 L781 700 L922 700 Z " />
<glyph glyph-name="X" unicode="X" horiz-adv-x="684" d="M484 0 L385 229 L207 0 L41 0 L326 367 L184 700 L336 700 L424 493 L586 700 L752 700 L483 355 L636 0 L484 0 Z " />
<glyph glyph-name="Y" unicode="Y" horiz-adv-x="684" d="M273 0 L323 282 L150 700 L292 700 L408 414 L624 700 L778 700 L459 279 L410 0 L273 0 Z " />
<glyph glyph-name="Z" unicode="Z" horiz-adv-x="638" d="M53 0 L71 103 L494 572 L175 572 L197 700 L699 700 L681 597 L255 128 L599 128 L576 0 L53 0 Z " />
<glyph glyph-name="bracketleft" unicode="&#x5b;" horiz-adv-x="374" d="M71 -130 L220 712 L462 712 L440 587 L326 587 L221 -5 L335 -5 L313 -130 L71 -130 Z " />
<glyph glyph-name="backslash" unicode="&#x5c;" horiz-adv-x="501" d="M340 -130 L112 712 L238 712 L467 -130 L340 -130 Z " />
<glyph glyph-name="bracketright" unicode="&#x5d;" horiz-adv-x="374" d="M16 -130 L38 -5 L152 -5 L257 587 L143 587 L165 712 L407 712 L258 -130 L16 -130 Z " />
<glyph glyph-name="asciicircum" unicode="&#x5e;" horiz-adv-x="605" d="M479 340 L363 543 L247 340 L119 340 L316 712 L410 712 L607 340 L479 340 Z " />
<glyph glyph-name="underscore" unicode="&#x5f;" horiz-adv-x="480" d="M-36 -177 L-19 -77 L471 -77 L454 -177 L-36 -177 Z " />
<glyph glyph-name="grave" unicode="&#x60;" horiz-adv-x="456" d="M363 576 L215 732 L376 732 L485 576 L363 576 Z " />
<glyph glyph-name="a" unicode="a" horiz-adv-x="536" d="M350 0 L358 40 Q338 19 301.5 3.5 Q265 -12 222 -12 Q189 -12 160.5 -2 Q132 8 110.5 27.5 Q89 47 76.5 74.5 Q64 102 64 137 Q64 181 80.5 216 Q97 251 127 275.5 Q157 300 199 313 Q241 326 292 326 Q323 326 352 317.5 Q381 309 402 296 L406 316 Q410 335 410 348 Q410 380 389 394.5 Q368 409 334 409 Q292 409 250.5 395 Q209 381 173 358 L154 463 Q193 488 242.5 505.5 Q292 523 355 523 Q380 523 411.5 516.5 Q443 510 471 492 Q499 474 518 443 Q537 412 537 364 Q537 353 535 337.5 Q533 322 530 304 L477 0 L350 0 Z M258 102 Q298 102 326 114.5 Q354 127 375 144 L385 198 Q368 206 344 211 Q320 216 290 216 Q272 216 254 212.5 Q236 209 222.5 200.5 Q209 192 200.5 179.5 Q192 167 192 149 Q192 128 209.5 115 Q227 102 258 102 Z " />
<glyph glyph-name="b" unicode="b" horiz-adv-x="553" d="M314 -12 Q276 -12 246 4.5 Q216 21 205 44 L197 0 L72 0 L191 679 L328 722 L284 474 Q304 496 333 509.5 Q362 523 397 523 Q431 523 461.5 508 Q492 493 514.5 464.5 Q537 436 550 394.5 Q563 353 563 301 Q563 222 542 163.5 Q521 105 486 66 Q451 27 406 7.5 Q361 -12 314 -12 Z M303 113 Q333 113 357 127 Q381 141 398 165 Q415 189 424 221 Q433 253 433 290 Q433 342 410 370 Q387 398 348 398 Q322 398 298 384.5 Q274 371 263 356 L227 153 Q249 113 303 113 Z " />
<glyph glyph-name="c" unicode="c" horiz-adv-x="525" d="M286 -12 Q238 -12 200.5 5 Q163 22 137.5 52.5 Q112 83 98.5 124.5 Q85 166 85 215 Q85 278 104 334 Q123 390 158 432 Q193 474 242.5 498.5 Q292 523 354 523 Q428 523 478 481 Q528 439 542 373 L416 332 Q410 361 391.5 379.5 Q373 398 338 398 Q312 398 290 384.5 Q268 371 251.5 348 Q235 325 225.5 293.5 Q216 262 216 225 Q216 179 235.5 146 Q255 113 294 113 Q320 113 347 129 Q374 145 391 187 L507 149 Q480 73 420.5 30.5 Q361 -12 286 -12 Z " />
<glyph glyph-name="d" unicode="d" horiz-adv-x="553" d="M249 -12 Q211 -12 180.5 3 Q150 18 129 46 Q108 74 97 112.5 Q86 151 86 198 Q86 276 107 336.5 Q128 397 163.5 438.5 Q199 480 244.5 501.5 Q290 523 339 523 Q382 523 405.5 507.5 Q429 492 440 474 L476 679 L613 722 L486 0 L360 0 L368 46 Q348 18 317 3 Q286 -12 249 -12 Z M294 113 Q320 113 345 124.5 Q370 136 385 155 L420 355 Q412 372 394 385 Q376 398 346 398 Q314 398 289.5 383.5 Q265 369 248 344 Q231 319 222.5 286 Q214 253 214 216 Q214 170 233 141.5 Q252 113 294 113 Z " />
<glyph glyph-name="e" unicode="e" horiz-adv-x="538" d="M289 -12 Q241 -12 202 2 Q163 16 135 43.5 Q107 71 91.5 111.5 Q76 152 76 206 Q76 265 95 322 Q114 379 150 423.5 Q186 468 239 495.5 Q292 523 361 523 Q456 523 504 469 Q552 415 552 318 Q552 259 533 205 L207 205 L207 195 Q207 172 215 155 Q223 138 236.5 126 Q250 114 268 108 Q286 102 305 102 Q336 102 367 117 Q398 132 420 155 L486 71 Q448 32 401.5 10 Q355 -12 289 -12 Z M342 409 Q298 409 268 386 Q238 363 226 315 L428 315 Q428 322 427.5 328 Q427 334 426 339 Q419 376 396.5 392.5 Q374 409 342 409 Z " />
<glyph glyph-name="f" unicode="f" horiz-adv-x="347" d="M298 397 L228 0 L100 0 L170 397 L104 397 L124 511 L190 511 L204 589 Q211 627 226.5 651 Q242 675 262.5 689 Q283 703 305.5 708.5 Q328 714 349 714 Q375 714 402.5 707 Q430 700 453 687 L434 581 Q408 592 393 595 Q378 598 367 598 Q334 598 327 563 L318 511 L417 511 L397 397 L298 397 Z " />
<glyph glyph-name="g" unicode="g" horiz-adv-x="553" d="M164 -92 Q256 -86 301.5 -61 Q347 -36 358 13 L363 37 Q344 14 315.5 1 Q287 -12 249 -12 Q211 -12 181 3 Q151 18 130 45.5 Q109 73 97.5 111.5 Q86 150 86 198 Q86 271 106 331 Q126 391 160.5 433.5 Q195 476 241 499.5 Q287 523 339 523 Q371 523 398 509.5 Q425 496 440 473 L446 511 L578 511 L491 28 Q480 -33 457 -74.5 Q434 -116 399 -142.5 Q364 -169 316.5 -182 Q269 -195 209 -200 L164 -92 Z M291 113 Q321 113 343.5 123.5 Q366 134 383 154 L419 356 Q411 369 392.5 383.5 Q374 398 341 398 Q311 398 287.5 384 Q264 370 247.5 346 Q231 322 222.5 288.5 Q214 255 214 216 Q214 196 218.5 177 Q223 158 232.5 144 Q242 130 256.5 121.5 Q271 113 291 113 Z " />
<glyph glyph-name="h" unicode="h" horiz-adv-x="567" d="M370 0 L420 282 Q422 292 423.5 305.5 Q425 319 425 331 Q425 401 360 401 Q344 401 327 395 Q310 389 295 376 Q280 363 268.5 342.5 Q257 322 252 294 L200 0 L72 0 L191 679 L328 722 L281 459 Q302 486 335 504.5 Q368 523 408 523 Q446 523 474 510.5 Q502 498 521 476 Q540 454 549 424.5 Q558 395 558 362 Q558 347 555.5 328 Q553 309 550 292 L498 0 L370 0 Z " />
<glyph glyph-name="i" unicode="i" horiz-adv-x="271" d="M72 0 L162 511 L291 511 L201 0 L72 0 Z M238 572 Q210 572 193 590 Q176 608 176 634 Q176 652 183 668 Q190 684 202 695.5 Q214 707 228.5 714 Q243 721 258 721 Q287 721 304.5 703 Q322 685 322 659 Q322 641 315 625 Q308 609 296 597.5 Q284 586 269 579 Q254 572 238 572 Z " />
<glyph glyph-name="j" unicode="j" horiz-adv-x="271" d="M-79 -113 Q-42 -107 -15.5 -98 Q11 -89 29.5 -74.5 Q48 -60 58.5 -39.5 Q69 -19 74 10 L162 511 L291 511 L204 23 Q195 -26 181.5 -65 Q168 -104 142 -134.5 Q116 -165 74 -186.5 Q32 -208 -34 -221 L-79 -113 Z M236 572 Q208 572 191 590 Q174 608 174 634 Q174 652 181 668 Q188 684 200 695.5 Q212 707 226.5 714 Q241 721 256 721 Q285 721 302.5 703 Q320 685 320 659 Q320 641 313 625 Q306 609 294 597.5 Q282 586 267 579 Q252 572 236 572 Z " />
<glyph glyph-name="k" unicode="k" horiz-adv-x="543" d="M399 354 L513 0 L378 0 L295 264 L238 214 L200 0 L72 0 L191 679 L328 722 L268 381 L414 511 L581 511 L399 354 Z " />
<glyph glyph-name="l" unicode="l" horiz-adv-x="278" d="M72 0 L191 679 L328 722 L200 0 L72 0 Z " />
<glyph glyph-name="m" unicode="m" horiz-adv-x="848" d="M646 0 L699 301 Q702 317 702 330 Q702 352 695 366 Q688 380 678.5 387.5 Q669 395 658.5 397.5 Q648 400 641 400 Q632 400 617.5 396.5 Q603 393 588.5 382.5 Q574 372 561.5 352.5 Q549 333 543 302 L490 0 L358 0 L411 301 Q414 317 414 330 Q414 352 407 366 Q400 380 390.5 387.5 Q381 395 370.5 397.5 Q360 400 353 400 Q344 400 329.5 396.5 Q315 393 300 382.5 Q285 372 272 352.5 Q259 333 253 302 L200 0 L72 0 L162 511 L288 511 L280 464 Q304 491 338 507 Q372 523 413 523 Q450 523 480 502.5 Q510 482 524 448 Q587 523 686 523 Q709 523 736 515 Q763 507 786 489 Q809 471 824 441.5 Q839 412 839 368 Q839 357 838 345.5 Q837 334 835 321 L778 0 L646 0 Z " />
<glyph glyph-name="n" unicode="n" horiz-adv-x="567" d="M370 0 L420 282 Q422 292 423.5 305.5 Q425 319 425 331 Q425 401 360 401 Q344 401 327 395 Q310 389 295 376 Q280 363 268.5 342.5 Q257 322 252 294 L200 0 L72 0 L162 511 L291 511 L282 460 Q303 487 335.5 505 Q368 523 408 523 Q446 523 474 510.5 Q502 498 521 476 Q540 454 549 424.5 Q558 395 558 362 Q558 347 555.5 328 Q553 309 550 292 L498 0 L370 0 Z " />
<glyph glyph-name="o" unicode="o" horiz-adv-x="547" d="M288 -12 Q187 -12 136.5 45.5 Q86 103 86 212 Q86 280 105.5 337 Q125 394 160.5 435.5 Q196 477 246 500 Q296 523 356 523 Q401 523 437.5 507 Q474 491 499 462.5 Q524 434 537.5 394 Q551 354 551 305 Q551 234 531.5 175.5 Q512 117 477 75.5 Q442 34 394 11 Q346 -12 288 -12 Z M299 114 Q326 114 348.5 126.5 Q371 139 387.5 161.5 Q404 184 413.5 215 Q423 246 423 283 Q423 338 402 368 Q381 398 337 398 Q311 398 288.5 385 Q266 372 249.5 349.5 Q233 327 223.5 296.5 Q214 266 214 231 Q214 114 299 114 Z " />
<glyph glyph-name="p" unicode="p" horiz-adv-x="553" d="M311 -12 Q239 -12 207 37 L173 -157 L36 -200 L161 511 L290 511 L282 470 Q303 494 332 508.5 Q361 523 399 523 Q432 523 461.5 508.5 Q491 494 513 466.5 Q535 439 548 399 Q561 359 561 309 Q561 230 539.5 170 Q518 110 483 69.5 Q448 29 403 8.5 Q358 -12 311 -12 Z M305 113 Q364 113 398.5 163 Q433 213 433 295 Q433 341 413 369.5 Q393 398 351 398 Q326 398 300 384.5 Q274 371 261 351 L227 155 Q234 140 252 126.5 Q270 113 305 113 Z " />
<glyph glyph-name="q" unicode="q" horiz-adv-x="553" d="M244 -12 Q209 -12 179.5 3.5 Q150 19 129 48 Q108 77 96 118 Q84 159 84 210 Q84 285 105.5 343.5 Q127 402 162 442 Q197 482 242.5 502.5 Q288 523 335 523 Q380 523 404.5 505.5 Q429 488 440 468 L447 511 L575 511 L458 -157 L321 -200 L363 37 Q343 15 314 1.5 Q285 -12 244 -12 Z M295 113 Q325 113 349 126.5 Q373 140 384 155 L419 355 Q414 372 395 385 Q376 398 350 398 Q320 398 295 384.5 Q270 371 252 347 Q234 323 224 290.5 Q214 258 214 221 Q214 170 234.5 141.5 Q255 113 295 113 Z " />
<glyph glyph-name="r" unicode="r" horiz-adv-x="412" d="M69 0 L159 511 L287 511 L278 463 Q292 487 320 505.5 Q348 524 384 524 Q410 524 433.5 512.5 Q457 501 473 484 L435 365 Q420 379 399 388 Q378 397 355 397 Q340 397 323.5 392 Q307 387 292 374 Q277 361 265 339.5 Q253 318 247 285 L197 0 L69 0 Z " />
<glyph glyph-name="s" unicode="s" horiz-adv-x="474" d="M392 370 Q381 385 360 400 Q339 415 304 415 Q275 415 257 403 Q239 391 239 371 Q239 357 255.5 346 Q272 335 296.5 323 Q321 311 349.5 297 Q378 283 402.5 264 Q427 245 443.5 219 Q460 193 460 157 Q460 78 403 33 Q346 -12 246 -12 Q215 -12 185.5 -5 Q156 2 130.5 14 Q105 26 85.5 43.5 Q66 61 55 82 L148 153 Q154 145 164 135.5 Q174 126 187.5 117.5 Q201 109 219 103.5 Q237 98 259 98 Q287 98 309.5 109 Q332 120 332 144 Q332 160 316 172 Q300 184 275.5 196.5 Q251 209 223 222.5 Q195 236 170.5 254.5 Q146 273 130 299 Q114 325 114 361 Q114 399 129.5 429 Q145 459 172 480 Q199 501 236.5 512 Q274 523 318 523 Q349 523 376 515.5 Q403 508 425 496 Q447 484 463.5 469.5 Q480 455 489 441 L392 370 Z " />
<glyph glyph-name="t" unicode="t" horiz-adv-x="377" d="M295 397 L255 170 Q252 153 250.5 144 Q249 135 249 129 Q249 100 284 100 Q304 100 320.5 105 Q337 110 360 120 L336 10 Q313 -1 283.5 -6.5 Q254 -12 225 -12 Q177 -12 147.5 14.5 Q118 41 118 86 Q118 99 120 120.5 Q122 142 126 162 L167 397 L88 397 L108 511 L187 511 L216 679 L352 722 L315 511 L423 511 L403 397 L295 397 Z " />
<glyph glyph-name="u" unicode="u" horiz-adv-x="567" d="M371 0 L379 48 Q352 19 315.5 3.5 Q279 -12 232 -12 Q207 -12 182.5 -2.5 Q158 7 138 26.5 Q118 46 105.5 76 Q93 106 93 147 Q93 159 94.5 172 Q96 185 98 199 L153 511 L282 511 L232 229 Q228 209 227 198.5 Q226 188 226 181 Q226 148 243 130.5 Q260 113 292 113 Q311 113 330 118 Q349 123 365 134.5 Q381 146 392 164.5 Q403 183 408 209 L461 511 L589 511 L499 0 L371 0 Z " />
<glyph glyph-name="v" unicode="v" horiz-adv-x="537" d="M343 0 L206 0 L114 511 L243 511 L292 208 Q294 197 295 185 Q296 173 297 161 Q302 173 307.5 185 Q313 197 319 208 L474 511 L608 511 L343 0 Z " />
<glyph glyph-name="w" unicode="w" horiz-adv-x="721" d="M564 0 L449 0 L424 255 Q422 269 421.5 291.5 Q421 314 421 331 Q415 314 406.5 291.5 Q398 269 392 255 L284 0 L170 0 L119 511 L242 511 L256 262 Q257 247 257 229 Q257 211 257 195 Q262 211 269.5 229 Q277 247 283 262 L388 511 L509 511 L529 262 Q531 247 531 226 Q531 205 531 195 Q537 211 543.5 229 Q550 247 556 262 L656 511 L782 511 L564 0 Z " />
<glyph glyph-name="x" unicode="x" horiz-adv-x="567" d="M256 268 L133 511 L272 511 L342 371 L459 511 L612 511 L400 257 L531 0 L392 0 L314 154 L186 0 L33 0 L256 268 Z " />
<glyph glyph-name="y" unicode="y" horiz-adv-x="547" d="M240 -194 L99 -194 L210 10 L114 511 L242 511 L297 216 Q299 205 301 192 Q303 179 304 169 Q309 182 314.5 193.5 Q320 205 326 216 L486 511 L625 511 L240 -194 Z " />
<glyph glyph-name="z" unicode="z" horiz-adv-x="515" d="M50 0 L68 102 L363 395 L138 395 L158 511 L552 511 L535 412 L239 116 L481 116 L461 0 L50 0 Z " />
<glyph glyph-name="braceleft" unicode="&#x7b;" horiz-adv-x="365" d="M303 -130 Q263 -127 229.5 -114.5 Q196 -102 172 -79 Q148 -56 134.5 -22.5 Q121 11 121 56 Q121 85 127 120 L136 170 Q137 175 137.5 180.5 Q138 186 138 191 Q138 210 130.5 221 Q123 232 108 232 L79 232 L100 350 L129 350 Q148 350 160.5 367 Q173 384 178 412 L193 500 Q210 598 276 655 Q342 712 452 712 L431 592 Q334 587 317 494 L304 422 Q296 377 283 351 Q270 325 254 312.5 Q238 300 219 296 Q200 292 179 291 L178 288 Q218 283 240 260 Q262 237 262 195 Q262 187 261 178.5 Q260 170 258 159 L244 80 Q243 75 242.5 69.5 Q242 64 242 59 Q242 27 262 8 Q282 -11 324 -13 L303 -130 Z " />
<glyph glyph-name="bar" unicode="&#x7c;" horiz-adv-x="288" d="M46 -205 L224 805 L352 805 L174 -205 L46 -205 Z " />
<glyph glyph-name="braceright" unicode="&#x7d;" horiz-adv-x="365" d="M37 -10 Q135 -5 150 89 L162 159 Q174 227 203.5 260.5 Q233 294 293 294 L294 297 Q253 305 231 332 Q209 359 209 401 Q209 407 209.5 413 Q210 419 211 425 L223 494 Q224 500 225 506.5 Q226 513 226 518 Q226 590 143 595 L164 712 Q251 710 300 666 Q349 622 349 536 Q349 508 343 477 L332 412 Q331 406 330.5 399.5 Q330 393 330 383 Q330 369 337.5 359.5 Q345 350 360 350 L388 350 L367 232 L342 232 Q319 232 307 215 Q295 198 290 170 L271 66 Q254 -26 190.5 -78 Q127 -130 15 -130 L37 -10 Z " />
<glyph glyph-name="asciitilde" unicode="&#x7e;" horiz-adv-x="605" d="M453 253 Q423 253 399 261.5 Q375 270 354.5 280 Q334 290 316 298.5 Q298 307 280 307 Q258 307 248.5 291.5 Q239 276 237 253 L139 253 Q139 289 146.5 321.5 Q154 354 170.5 379 Q187 404 212.5 419 Q238 434 274 434 Q304 434 327.5 425.5 Q351 417 371 407 Q391 397 409 388.5 Q427 380 447 380 Q469 380 478.5 395 Q488 410 490 434 L588 434 Q588 398 581 365.5 Q574 333 558 308 Q542 283 516 268 Q490 253 453 253 Z " />
<glyph glyph-name="Adieresis" unicode="&#xc4;" horiz-adv-x="712" d="M543 0 L517 145 L258 145 L180 0 L35 0 L415 700 L548 700 L682 0 L543 0 Z M461 463 Q460 468 459 475.5 Q458 483 456.5 491.5 Q455 500 453.5 507.5 Q452 515 452 519 Q448 510 439.5 492.5 Q431 475 426 465 L321 268 L496 268 L461 463 Z M403 771 Q375 771 358.5 788.5 Q342 806 342 832 Q342 850 349 865.5 Q356 881 367.5 892.5 Q379 904 393 910.5 Q407 917 422 917 Q451 917 468 899.5 Q485 882 485 856 Q485 838 478 822.5 Q471 807 459.5 795.5 Q448 784 433.5 777.5 Q419 771 403 771 Z M586 771 Q557 771 541 788.5 Q525 806 525 832 Q525 850 531.5 865.5 Q538 881 549.5 892.5 Q561 904 575.5 910.5 Q590 917 606 917 Q635 917 651.5 899.5 Q668 882 668 856 Q668 838 661 822.5 Q654 807 642.5 795.5 Q631 784 616 777.5 Q601 771 586 771 Z " />
<glyph glyph-name="Aring" unicode="&#xc5;" horiz-adv-x="712" d="M543 0 L517 145 L258 145 L180 0 L35 0 L383 642 Q371 656 359.5 677 Q348 698 348 729 Q348 751 356 775 Q364 799 381.5 819 Q399 839 426 852 Q453 865 491 865 Q517 865 539.5 856 Q562 847 578 832 Q594 817 603 797 Q612 777 612 755 Q612 723 597.5 695.5 Q583 668 558 647 L682 0 L543 0 Z M463 454 Q461 467 457.5 484 Q454 501 452 516 Q445 502 435.5 484.5 Q426 467 419 454 L321 268 L496 268 L463 454 Z M478 698 Q494 698 506 709.5 Q518 721 518 740 Q518 755 510 766.5 Q502 778 483 778 Q463 778 452.5 765.5 Q442 753 442 738 Q442 721 451 709.5 Q460 698 478 698 Z " />
<glyph glyph-name="Ccedilla" unicode="&#xc7;" horiz-adv-x="637" d="M297 -244 Q256 -244 233.5 -230.5 Q211 -217 199 -197 L261 -155 Q266 -163 274 -168.5 Q282 -174 296 -174 Q322 -174 336.5 -161.5 Q351 -149 351 -129 Q351 -114 340.5 -105 Q330 -96 310 -96 Q288 -96 266 -110 L245 -77 L313 -7 Q266 1 229.5 25.5 Q193 50 168 88 Q143 126 130 175.5 Q117 225 117 283 Q117 362 139.5 438.5 Q162 515 205.5 575.5 Q249 636 313 673.5 Q377 711 461 711 Q552 711 607.5 666.5 Q663 622 686 553 L565 501 Q552 531 524.5 556 Q497 581 455 581 Q406 581 369 553.5 Q332 526 307 484 Q282 442 269.5 390.5 Q257 339 257 291 Q257 257 264 226.5 Q271 196 285.5 172.5 Q300 149 321 135.5 Q342 122 369 122 Q415 122 451 145.5 Q487 169 509 209 L628 158 Q578 73 516 34 Q454 -5 381 -10 L354 -46 Q404 -46 426.5 -67.5 Q449 -89 449 -121 Q449 -173 408 -208.5 Q367 -244 297 -244 Z " />
<glyph glyph-name="Eacute" unicode="&#xc9;" horiz-adv-x="607" d="M80 0 L203 700 L662 700 L640 572 L318 572 L292 425 L479 425 L456 297 L269 297 L240 128 L582 128 L559 0 L80 0 Z M499 766 L378 766 L541 922 L702 922 L499 766 Z " />
<glyph glyph-name="Ntilde" unicode="&#xd1;" horiz-adv-x="705" d="M506 0 L311 408 Q306 419 301 433.5 Q296 448 292 461 Q292 450 290 434.5 Q288 419 286 408 L214 0 L80 0 L203 700 L330 700 L519 297 Q524 287 529.5 272.5 Q535 258 538 244 Q539 258 540.5 272.5 Q542 287 544 297 L615 700 L749 700 L626 0 L506 0 Z M567 773 Q541 773 521.5 780 Q502 787 484.5 796 Q467 805 451 812 Q435 819 417 819 Q399 819 384.5 809.5 Q370 800 365 777 L306 777 Q316 837 347.5 876 Q379 915 441 915 Q466 915 486 908 Q506 901 523.5 892 Q541 883 557 876 Q573 869 591 869 Q609 869 623.5 878.5 Q638 888 643 911 L702 911 Q697 881 687 855.5 Q677 830 660.5 812 Q644 794 621 783.5 Q598 773 567 773 Z " />
<glyph glyph-name="Odieresis" unicode="&#xd6;" horiz-adv-x="717" d="M385 118 Q431 118 468.5 141 Q506 164 532 203 Q558 242 572.5 294.5 Q587 347 587 407 Q587 438 579.5 469.5 Q572 501 556 526 Q540 551 514 566.5 Q488 582 451 582 Q404 582 366.5 557.5 Q329 533 303.5 492.5 Q278 452 264.5 401 Q251 350 251 298 Q251 265 258 232.5 Q265 200 281 174.5 Q297 149 322.5 133.5 Q348 118 385 118 Z M386 -12 Q312 -12 261 14 Q210 40 178 83.5 Q146 127 131.5 183 Q117 239 117 298 Q117 380 140 455 Q163 530 206.5 587 Q250 644 314 678 Q378 712 460 712 Q527 712 576.5 686.5 Q626 661 658 618 Q690 575 705.5 520 Q721 465 721 407 Q721 321 697.5 245 Q674 169 630.5 112 Q587 55 525 21.5 Q463 -12 386 -12 Z M401 771 Q373 771 356.5 788.5 Q340 806 340 832 Q340 850 347 865.5 Q354 881 365.5 892.5 Q377 904 391 910.5 Q405 917 420 917 Q449 917 466 899.5 Q483 882 483 856 Q483 838 476 822.5 Q469 807 457.5 795.5 Q446 784 431.5 777.5 Q417 771 401 771 Z M584 771 Q555 771 539 788.5 Q523 806 523 832 Q523 850 529.5 865.5 Q536 881 547.5 892.5 Q559 904 573.5 910.5 Q588 917 604 917 Q633 917 649.5 899.5 Q666 882 666 856 Q666 838 659 822.5 Q652 807 640.5 795.5 Q629 784 614 777.5 Q599 771 584 771 Z " />
<glyph glyph-name="Udieresis" unicode="&#xdc;" horiz-adv-x="705" d="M366 -12 Q316 -12 272 1 Q228 14 195 41.5 Q162 69 143 111.5 Q124 154 124 212 Q124 229 125.5 250.5 Q127 272 135 316 L204 700 L339 700 L268 291 Q263 265 261.5 252 Q260 239 260 225 Q260 195 269.5 175 Q279 155 295 142.5 Q311 130 332 125 Q353 120 376 120 Q406 120 433 127 Q460 134 482 150.5 Q504 167 519 195.5 Q534 224 542 268 L618 700 L753 700 L675 256 Q661 175 632 123 Q603 71 562.5 41 Q522 11 472 -0.5 Q422 -12 366 -12 Z M393 771 Q365 771 348.5 788.5 Q332 806 332 832 Q332 850 339 865.5 Q346 881 357.5 892.5 Q369 904 383 910.5 Q397 917 412 917 Q441 917 458 899.5 Q475 882 475 856 Q475 838 468 822.5 Q461 807 449.5 795.5 Q438 784 423.5 777.5 Q409 771 393 771 Z M576 771 Q547 771 531 788.5 Q515 806 515 832 Q515 850 521.5 865.5 Q528 881 539.5 892.5 Q551 904 565.5 910.5 Q580 917 596 917 Q625 917 641.5 899.5 Q658 882 658 856 Q658 838 651 822.5 Q644 807 632.5 795.5 Q621 784 606 777.5 Q591 771 576 771 Z " />
<glyph glyph-name="aacute" unicode="&#xe1;" horiz-adv-x="536" d="M350 0 L358 40 Q338 19 301.5 3.5 Q265 -12 222 -12 Q189 -12 160.5 -2 Q132 8 110.5 27.5 Q89 47 76.5 74.5 Q64 102 64 137 Q64 181 80.5 216 Q97 251 127 275.5 Q157 300 199 313 Q241 326 292 326 Q323 326 352 317.5 Q381 309 402 296 L406 316 Q410 335 410 348 Q410 380 389 394.5 Q368 409 334 409 Q292 409 250.5 395 Q209 381 173 358 L154 463 Q193 488 242.5 505.5 Q292 523 355 523 Q380 523 411.5 516.5 Q443 510 471 492 Q499 474 518 443 Q537 412 537 364 Q537 353 535 337.5 Q533 322 530 304 L477 0 L350 0 Z M258 102 Q298 102 326 114.5 Q354 127 375 144 L385 198 Q368 206 344 211 Q320 216 290 216 Q272 216 254 212.5 Q236 209 222.5 200.5 Q209 192 200.5 179.5 Q192 167 192 149 Q192 128 209.5 115 Q227 102 258 102 Z M419 576 L298 576 L461 732 L622 732 L419 576 Z " />
<glyph glyph-name="agrave" unicode="&#xe0;" horiz-adv-x="536" d="M350 0 L358 40 Q338 19 301.5 3.5 Q265 -12 222 -12 Q189 -12 160.5 -2 Q132 8 110.5 27.5 Q89 47 76.5 74.5 Q64 102 64 137 Q64 181 80.5 216 Q97 251 127 275.5 Q157 300 199 313 Q241 326 292 326 Q323 326 352 317.5 Q381 309 402 296 L406 316 Q410 335 410 348 Q410 380 389 394.5 Q368 409 334 409 Q292 409 250.5 395 Q209 381 173 358 L154 463 Q193 488 242.5 505.5 Q292 523 355 523 Q380 523 411.5 516.5 Q443 510 471 492 Q499 474 518 443 Q537 412 537 364 Q537 353 535 337.5 Q533 322 530 304 L477 0 L350 0 Z M258 102 Q298 102 326 114.5 Q354 127 375 144 L385 198 Q368 206 344 211 Q320 216 290 216 Q272 216 254 212.5 Q236 209 222.5 200.5 Q209 192 200.5 179.5 Q192 167 192 149 Q192 128 209.5 115 Q227 102 258 102 Z M395 576 L247 732 L408 732 L517 576 L395 576 Z " />
<glyph glyph-name="acircumflex" unicode="&#xe2;" horiz-adv-x="536" d="M350 0 L358 40 Q338 19 301.5 3.5 Q265 -12 222 -12 Q189 -12 160.5 -2 Q132 8 110.5 27.5 Q89 47 76.5 74.5 Q64 102 64 137 Q64 181 80.5 216 Q97 251 127 275.5 Q157 300 199 313 Q241 326 292 326 Q323 326 352 317.5 Q381 309 402 296 L406 316 Q410 335 410 348 Q410 380 389 394.5 Q368 409 334 409 Q292 409 250.5 395 Q209 381 173 358 L154 463 Q193 488 242.5 505.5 Q292 523 355 523 Q380 523 411.5 516.5 Q443 510 471 492 Q499 474 518 443 Q537 412 537 364 Q537 353 535 337.5 Q533 322 530 304 L477 0 L350 0 Z M258 102 Q298 102 326 114.5 Q354 127 375 144 L385 198 Q368 206 344 211 Q320 216 290 216 Q272 216 254 212.5 Q236 209 222.5 200.5 Q209 192 200.5 179.5 Q192 167 192 149 Q192 128 209.5 115 Q227 102 258 102 Z M461 576 L393 645 L300 576 L185 576 L348 732 L468 732 L576 576 L461 576 Z " />
<glyph glyph-name="adieresis" unicode="&#xe4;" horiz-adv-x="536" d="M350 0 L358 40 Q338 19 301.5 3.5 Q265 -12 222 -12 Q189 -12 160.5 -2 Q132 8 110.5 27.5 Q89 47 76.5 74.5 Q64 102 64 137 Q64 181 80.5 216 Q97 251 127 275.5 Q157 300 199 313 Q241 326 292 326 Q323 326 352 317.5 Q381 309 402 296 L406 316 Q410 335 410 348 Q410 380 389 394.5 Q368 409 334 409 Q292 409 250.5 395 Q209 381 173 358 L154 463 Q193 488 242.5 505.5 Q292 523 355 523 Q380 523 411.5 516.5 Q443 510 471 492 Q499 474 518 443 Q537 412 537 364 Q537 353 535 337.5 Q533 322 530 304 L477 0 L350 0 Z M258 102 Q298 102 326 114.5 Q354 127 375 144 L385 198 Q368 206 344 211 Q320 216 290 216 Q272 216 254 212.5 Q236 209 222.5 200.5 Q209 192 200.5 179.5 Q192 167 192 149 Q192 128 209.5 115 Q227 102 258 102 Z M292 581 Q264 581 247.5 598.5 Q231 616 231 642 Q231 660 238 675.5 Q245 691 256.5 702.5 Q268 714 282 720.5 Q296 727 311 727 Q340 727 357 709.5 Q374 692 374 666 Q374 648 367 632.5 Q360 617 348.5 605.5 Q337 594 322.5 587.5 Q308 581 292 581 Z M475 581 Q446 581 430 598.5 Q414 616 414 642 Q414 660 420.5 675.5 Q427 691 438.5 702.5 Q450 714 464.5 720.5 Q479 727 495 727 Q524 727 540.5 709.5 Q557 692 557 666 Q557 648 550 632.5 Q543 617 531.5 605.5 Q520 594 505 587.5 Q490 581 475 581 Z " />
<glyph glyph-name="atilde" unicode="&#xe3;" horiz-adv-x="536" d="M350 0 L358 40 Q338 19 301.5 3.5 Q265 -12 222 -12 Q189 -12 160.5 -2 Q132 8 110.5 27.5 Q89 47 76.5 74.5 Q64 102 64 137 Q64 181 80.5 216 Q97 251 127 275.5 Q157 300 199 313 Q241 326 292 326 Q323 326 352 317.5 Q381 309 402 296 L406 316 Q410 335 410 348 Q410 380 389 394.5 Q368 409 334 409 Q292 409 250.5 395 Q209 381 173 358 L154 463 Q193 488 242.5 505.5 Q292 523 355 523 Q380 523 411.5 516.5 Q443 510 471 492 Q499 474 518 443 Q537 412 537 364 Q537 353 535 337.5 Q533 322 530 304 L477 0 L350 0 Z M258 102 Q298 102 326 114.5 Q354 127 375 144 L385 198 Q368 206 344 211 Q320 216 290 216 Q272 216 254 212.5 Q236 209 222.5 200.5 Q209 192 200.5 179.5 Q192 167 192 149 Q192 128 209.5 115 Q227 102 258 102 Z M445 583 Q419 583 399.5 590 Q380 597 362.5 606 Q345 615 329 622 Q313 629 295 629 Q277 629 262.5 619.5 Q248 610 243 587 L184 587 Q194 647 225.5 686 Q257 725 319 725 Q344 725 364 718 Q384 711 401.5 702 Q419 693 435 686 Q451 679 469 679 Q487 679 501.5 688.5 Q516 698 521 721 L580 721 Q575 691 565 665.5 Q555 640 538.5 622 Q522 604 499 593.5 Q476 583 445 583 Z " />
<glyph glyph-name="aring" unicode="&#xe5;" horiz-adv-x="536" d="M350 0 L358 40 Q338 19 301.5 3.5 Q265 -12 222 -12 Q189 -12 160.5 -2 Q132 8 110.5 27.5 Q89 47 76.5 74.5 Q64 102 64 137 Q64 181 80.5 216 Q97 251 127 275.5 Q157 300 199 313 Q241 326 292 326 Q323 326 352 317.5 Q381 309 402 296 L406 316 Q410 335 410 348 Q410 380 389 394.5 Q368 409 334 409 Q292 409 250.5 395 Q209 381 173 358 L154 463 Q193 488 242.5 505.5 Q292 523 355 523 Q380 523 411.5 516.5 Q443 510 471 492 Q499 474 518 443 Q537 412 537 364 Q537 353 535 337.5 Q533 322 530 304 L477 0 L350 0 Z M258 102 Q298 102 326 114.5 Q354 127 375 144 L385 198 Q368 206 344 211 Q320 216 290 216 Q272 216 254 212.5 Q236 209 222.5 200.5 Q209 192 200.5 179.5 Q192 167 192 149 Q192 128 209.5 115 Q227 102 258 102 Z M392 560 Q369 560 349.5 568.5 Q330 577 316 592 Q302 607 294.5 626.5 Q287 646 287 669 Q287 700 299.5 727 Q312 754 333 774 Q354 794 381 805.5 Q408 817 437 817 Q459 817 478 808.5 Q497 800 511 785 Q525 770 532.5 750.5 Q540 731 540 709 Q540 678 527.5 651 Q515 624 494 603.5 Q473 583 446.5 571.5 Q420 560 392 560 Z M407 649 Q424 649 438 662.5 Q452 676 452 696 Q452 710 443.5 719.5 Q435 729 421 729 Q403 729 389.5 715.5 Q376 702 376 682 Q376 668 384.5 658.5 Q393 649 407 649 Z " />
<glyph glyph-name="ccedilla" unicode="&#xe7;" horiz-adv-x="525" d="M211 -244 Q171 -244 148 -230.5 Q125 -217 114 -197 L176 -155 Q180 -163 188.5 -168.5 Q197 -174 211 -174 Q237 -174 251 -161.5 Q265 -149 265 -128 Q265 -114 254.5 -105 Q244 -96 224 -96 Q201 -96 181 -110 L160 -77 L230 -5 Q163 12 124 70 Q85 128 85 211 Q85 278 104.5 335.5 Q124 393 159.5 434.5 Q195 476 244.5 499.5 Q294 523 354 523 Q392 523 423.5 512 Q455 501 479 481 Q503 461 519 433.5 Q535 406 542 373 L416 332 Q410 361 391.5 379.5 Q373 398 339 398 Q313 398 290.5 385 Q268 372 251.5 348.5 Q235 325 225.5 294 Q216 263 216 227 Q216 177 236 145 Q256 113 292 113 Q330 113 353 133 Q376 153 391 187 L507 149 Q490 102 464 71.5 Q438 41 409 22.5 Q380 4 350 -3.5 Q320 -11 295 -12 L268 -46 Q318 -46 340.5 -67.5 Q363 -89 363 -121 Q363 -173 322.5 -208.5 Q282 -244 211 -244 Z " />
<glyph glyph-name="eacute" unicode="&#xe9;" horiz-adv-x="538" d="M289 -12 Q241 -12 202 2 Q163 16 135 43.5 Q107 71 91.5 111.5 Q76 152 76 206 Q76 265 95 322 Q114 379 150 423.5 Q186 468 239 495.5 Q292 523 361 523 Q456 523 504 469 Q552 415 552 318 Q552 259 533 205 L207 205 L207 195 Q207 172 215 155 Q223 138 236.5 126 Q250 114 268 108 Q286 102 305 102 Q336 102 367 117 Q398 132 420 155 L486 71 Q448 32 401.5 10 Q355 -12 289 -12 Z M342 409 Q298 409 268 386 Q238 363 226 315 L428 315 Q428 322 427.5 328 Q427 334 426 339 Q419 376 396.5 392.5 Q374 409 342 409 Z M424 576 L303 576 L466 732 L627 732 L424 576 Z " />
<glyph glyph-name="egrave" unicode="&#xe8;" horiz-adv-x="538" d="M289 -12 Q241 -12 202 2 Q163 16 135 43.5 Q107 71 91.5 111.5 Q76 152 76 206 Q76 265 95 322 Q114 379 150 423.5 Q186 468 239 495.5 Q292 523 361 523 Q456 523 504 469 Q552 415 552 318 Q552 259 533 205 L207 205 L207 195 Q207 172 215 155 Q223 138 236.5 126 Q250 114 268 108 Q286 102 305 102 Q336 102 367 117 Q398 132 420 155 L486 71 Q448 32 401.5 10 Q355 -12 289 -12 Z M342 409 Q298 409 268 386 Q238 363 226 315 L428 315 Q428 322 427.5 328 Q427 334 426 339 Q419 376 396.5 392.5 Q374 409 342 409 Z M369 576 L221 732 L382 732 L491 576 L369 576 Z " />
<glyph glyph-name="ecircumflex" unicode="&#xea;" horiz-adv-x="538" d="M289 -12 Q241 -12 202 2 Q163 16 135 43.5 Q107 71 91.5 111.5 Q76 152 76 206 Q76 265 95 322 Q114 379 150 423.5 Q186 468 239 495.5 Q292 523 361 523 Q456 523 504 469 Q552 415 552 318 Q552 259 533 205 L207 205 L207 195 Q207 172 215 155 Q223 138 236.5 126 Q250 114 268 108 Q286 102 305 102 Q336 102 367 117 Q398 132 420 155 L486 71 Q448 32 401.5 10 Q355 -12 289 -12 Z M342 409 Q298 409 268 386 Q238 363 226 315 L428 315 Q428 322 427.5 328 Q427 334 426 339 Q419 376 396.5 392.5 Q374 409 342 409 Z M466 576 L398 645 L305 576 L190 576 L353 732 L473 732 L581 576 L466 576 Z " />
<glyph glyph-name="edieresis" unicode="&#xeb;" horiz-adv-x="538" d="M289 -12 Q241 -12 202 2 Q163 16 135 43.5 Q107 71 91.5 111.5 Q76 152 76 206 Q76 265 95 322 Q114 379 150 423.5 Q186 468 239 495.5 Q292 523 361 523 Q456 523 504 469 Q552 415 552 318 Q552 259 533 205 L207 205 L207 195 Q207 172 215 155 Q223 138 236.5 126 Q250 114 268 108 Q286 102 305 102 Q336 102 367 117 Q398 132 420 155 L486 71 Q448 32 401.5 10 Q355 -12 289 -12 Z M342 409 Q298 409 268 386 Q238 363 226 315 L428 315 Q428 322 427.5 328 Q427 334 426 339 Q419 376 396.5 392.5 Q374 409 342 409 Z M287 581 Q259 581 242.5 598.5 Q226 616 226 642 Q226 660 233 675.5 Q240 691 251.5 702.5 Q263 714 277 720.5 Q291 727 306 727 Q335 727 352 709.5 Q369 692 369 666 Q369 648 362 632.5 Q355 617 343.5 605.5 Q332 594 317.5 587.5 Q303 581 287 581 Z M470 581 Q441 581 425 598.5 Q409 616 409 642 Q409 660 415.5 675.5 Q422 691 433.5 702.5 Q445 714 459.5 720.5 Q474 727 490 727 Q519 727 535.5 709.5 Q552 692 552 666 Q552 648 545 632.5 Q538 617 526.5 605.5 Q515 594 500 587.5 Q485 581 470 581 Z " />
<glyph glyph-name="iacute" unicode="&#xed;" horiz-adv-x="271" d="M255 576 L134 576 L297 732 L458 732 L255 576 Z M72 0 L162 511 L291 511 L201 0 L72 0 Z " />
<glyph glyph-name="igrave" unicode="&#xec;" horiz-adv-x="271" d="M217 576 L69 732 L230 732 L339 576 L217 576 Z M72 0 L162 511 L291 511 L201 0 L72 0 Z " />
<glyph glyph-name="icircumflex" unicode="&#xee;" horiz-adv-x="271" d="M72 0 L162 511 L291 511 L201 0 L72 0 Z M312 576 L244 645 L151 576 L36 576 L199 732 L319 732 L427 576 L312 576 Z " />
<glyph glyph-name="idieresis" unicode="&#xef;" horiz-adv-x="271" d="M146 581 Q118 581 101.5 598.5 Q85 616 85 642 Q85 660 92 675.5 Q99 691 110.5 702.5 Q122 714 136 720.5 Q150 727 165 727 Q194 727 211 709.5 Q228 692 228 666 Q228 648 221 632.5 Q214 617 202.5 605.5 Q191 594 176.5 587.5 Q162 581 146 581 Z M329 581 Q300 581 284 598.5 Q268 616 268 642 Q268 660 274.5 675.5 Q281 691 292.5 702.5 Q304 714 318.5 720.5 Q333 727 349 727 Q378 727 394.5 709.5 Q411 692 411 666 Q411 648 404 632.5 Q397 617 385.5 605.5 Q374 594 359 587.5 Q344 581 329 581 Z M72 0 L162 511 L291 511 L201 0 L72 0 Z " />
<glyph glyph-name="ntilde" unicode="&#xf1;" horiz-adv-x="567" d="M370 0 L420 282 Q422 292 423.5 305.5 Q425 319 425 331 Q425 401 360 401 Q344 401 327 395 Q310 389 295 376 Q280 363 268.5 342.5 Q257 322 252 294 L200 0 L72 0 L162 511 L291 511 L282 460 Q303 487 335.5 505 Q368 523 408 523 Q446 523 474 510.5 Q502 498 521 476 Q540 454 549 424.5 Q558 395 558 362 Q558 347 555.5 328 Q553 309 550 292 L498 0 L370 0 Z M466 583 Q440 583 420.5 590 Q401 597 383.5 606 Q366 615 350 622 Q334 629 316 629 Q298 629 283.5 619.5 Q269 610 264 587 L205 587 Q215 647 246.5 686 Q278 725 340 725 Q365 725 385 718 Q405 711 422.5 702 Q440 693 456 686 Q472 679 490 679 Q508 679 522.5 688.5 Q537 698 542 721 L601 721 Q596 691 586 665.5 Q576 640 559.5 622 Q543 604 520 593.5 Q497 583 466 583 Z " />
<glyph glyph-name="oacute" unicode="&#xf3;" horiz-adv-x="547" d="M288 -12 Q187 -12 136.5 45.5 Q86 103 86 212 Q86 280 105.5 337 Q125 394 160.5 435.5 Q196 477 246 500 Q296 523 356 523 Q401 523 437.5 507 Q474 491 499 462.5 Q524 434 537.5 394 Q551 354 551 305 Q551 234 531.5 175.5 Q512 117 477 75.5 Q442 34 394 11 Q346 -12 288 -12 Z M299 114 Q326 114 348.5 126.5 Q371 139 387.5 161.5 Q404 184 413.5 215 Q423 246 423 283 Q423 338 402 368 Q381 398 337 398 Q311 398 288.5 385 Q266 372 249.5 349.5 Q233 327 223.5 296.5 Q214 266 214 231 Q214 114 299 114 Z M418 576 L297 576 L460 732 L621 732 L418 576 Z " />
<glyph glyph-name="ograve" unicode="&#xf2;" horiz-adv-x="547" d="M288 -12 Q187 -12 136.5 45.5 Q86 103 86 212 Q86 280 105.5 337 Q125 394 160.5 435.5 Q196 477 246 500 Q296 523 356 523 Q401 523 437.5 507 Q474 491 499 462.5 Q524 434 537.5 394 Q551 354 551 305 Q551 234 531.5 175.5 Q512 117 477 75.5 Q442 34 394 11 Q346 -12 288 -12 Z M299 114 Q326 114 348.5 126.5 Q371 139 387.5 161.5 Q404 184 413.5 215 Q423 246 423 283 Q423 338 402 368 Q381 398 337 398 Q311 398 288.5 385 Q266 372 249.5 349.5 Q233 327 223.5 296.5 Q214 266 214 231 Q214 114 299 114 Z M364 576 L216 732 L377 732 L486 576 L364 576 Z " />
<glyph glyph-name="ocircumflex" unicode="&#xf4;" horiz-adv-x="547" d="M288 -12 Q187 -12 136.5 45.5 Q86 103 86 212 Q86 280 105.5 337 Q125 394 160.5 435.5 Q196 477 246 500 Q296 523 356 523 Q401 523 437.5 507 Q474 491 499 462.5 Q524 434 537.5 394 Q551 354 551 305 Q551 234 531.5 175.5 Q512 117 477 75.5 Q442 34 394 11 Q346 -12 288 -12 Z M299 114 Q326 114 348.5 126.5 Q371 139 387.5 161.5 Q404 184 413.5 215 Q423 246 423 283 Q423 338 402 368 Q381 398 337 398 Q311 398 288.5 385 Q266 372 249.5 349.5 Q233 327 223.5 296.5 Q214 266 214 231 Q214 114 299 114 Z M450 576 L382 645 L289 576 L174 576 L337 732 L457 732 L565 576 L450 576 Z " />
<glyph glyph-name="odieresis" unicode="&#xf6;" horiz-adv-x="547" d="M288 -12 Q187 -12 136.5 45.5 Q86 103 86 212 Q86 280 105.5 337 Q125 394 160.5 435.5 Q196 477 246 500 Q296 523 356 523 Q401 523 437.5 507 Q474 491 499 462.5 Q524 434 537.5 394 Q551 354 551 305 Q551 234 531.5 175.5 Q512 117 477 75.5 Q442 34 394 11 Q346 -12 288 -12 Z M299 114 Q326 114 348.5 126.5 Q371 139 387.5 161.5 Q404 184 413.5 215 Q423 246 423 283 Q423 338 402 368 Q381 398 337 398 Q311 398 288.5 385 Q266 372 249.5 349.5 Q233 327 223.5 296.5 Q214 266 214 231 Q214 114 299 114 Z M281 581 Q253 581 236.5 598.5 Q220 616 220 642 Q220 660 227 675.5 Q234 691 245.5 702.5 Q257 714 271 720.5 Q285 727 300 727 Q329 727 346 709.5 Q363 692 363 666 Q363 648 356 632.5 Q349 617 337.5 605.5 Q326 594 311.5 587.5 Q297 581 281 581 Z M464 581 Q435 581 419 598.5 Q403 616 403 642 Q403 660 409.5 675.5 Q416 691 427.5 702.5 Q439 714 453.5 720.5 Q468 727 484 727 Q513 727 529.5 709.5 Q546 692 546 666 Q546 648 539 632.5 Q532 617 520.5 605.5 Q509 594 494 587.5 Q479 581 464 581 Z " />
<glyph glyph-name="otilde" unicode="&#xf5;" horiz-adv-x="547" d="M288 -12 Q187 -12 136.5 45.5 Q86 103 86 212 Q86 280 105.5 337 Q125 394 160.5 435.5 Q196 477 246 500 Q296 523 356 523 Q401 523 437.5 507 Q474 491 499 462.5 Q524 434 537.5 394 Q551 354 551 305 Q551 234 531.5 175.5 Q512 117 477 75.5 Q442 34 394 11 Q346 -12 288 -12 Z M299 114 Q326 114 348.5 126.5 Q371 139 387.5 161.5 Q404 184 413.5 215 Q423 246 423 283 Q423 338 402 368 Q381 398 337 398 Q311 398 288.5 385 Q266 372 249.5 349.5 Q233 327 223.5 296.5 Q214 266 214 231 Q214 114 299 114 Z M454 583 Q428 583 408.5 590 Q389 597 371.5 606 Q354 615 338 622 Q322 629 304 629 Q286 629 271.5 619.5 Q257 610 252 587 L193 587 Q203 647 234.5 686 Q266 725 328 725 Q353 725 373 718 Q393 711 410.5 702 Q428 693 444 686 Q460 679 478 679 Q496 679 510.5 688.5 Q525 698 530 721 L589 721 Q584 691 574 665.5 Q564 640 547.5 622 Q531 604 508 593.5 Q485 583 454 583 Z " />
<glyph glyph-name="uacute" unicode="&#xfa;" horiz-adv-x="567" d="M371 0 L379 48 Q352 19 315.5 3.5 Q279 -12 232 -12 Q207 -12 182.5 -2.5 Q158 7 138 26.5 Q118 46 105.5 76 Q93 106 93 147 Q93 159 94.5 172 Q96 185 98 199 L153 511 L282 511 L232 229 Q228 209 227 198.5 Q226 188 226 181 Q226 148 243 130.5 Q260 113 292 113 Q311 113 330 118 Q349 123 365 134.5 Q381 146 392 164.5 Q403 183 408 209 L461 511 L589 511 L499 0 L371 0 Z M424 576 L303 576 L466 732 L627 732 L424 576 Z " />
<glyph glyph-name="ugrave" unicode="&#xf9;" horiz-adv-x="567" d="M371 0 L379 48 Q352 19 315.5 3.5 Q279 -12 232 -12 Q207 -12 182.5 -2.5 Q158 7 138 26.5 Q118 46 105.5 76 Q93 106 93 147 Q93 159 94.5 172 Q96 185 98 199 L153 511 L282 511 L232 229 Q228 209 227 198.5 Q226 188 226 181 Q226 148 243 130.5 Q260 113 292 113 Q311 113 330 118 Q349 123 365 134.5 Q381 146 392 164.5 Q403 183 408 209 L461 511 L589 511 L499 0 L371 0 Z M380 576 L232 732 L393 732 L502 576 L380 576 Z " />
<glyph glyph-name="ucircumflex" unicode="&#xfb;" horiz-adv-x="567" d="M371 0 L379 48 Q352 19 315.5 3.5 Q279 -12 232 -12 Q207 -12 182.5 -2.5 Q158 7 138 26.5 Q118 46 105.5 76 Q93 106 93 147 Q93 159 94.5 172 Q96 185 98 199 L153 511 L282 511 L232 229 Q228 209 227 198.5 Q226 188 226 181 Q226 148 243 130.5 Q260 113 292 113 Q311 113 330 118 Q349 123 365 134.5 Q381 146 392 164.5 Q403 183 408 209 L461 511 L589 511 L499 0 L371 0 Z M456 576 L388 645 L295 576 L180 576 L343 732 L463 732 L571 576 L456 576 Z " />
<glyph glyph-name="udieresis" unicode="&#xfc;" horiz-adv-x="567" d="M371 0 L379 48 Q352 19 315.5 3.5 Q279 -12 232 -12 Q207 -12 182.5 -2.5 Q158 7 138 26.5 Q118 46 105.5 76 Q93 106 93 147 Q93 159 94.5 172 Q96 185 98 199 L153 511 L282 511 L232 229 Q228 209 227 198.5 Q226 188 226 181 Q226 148 243 130.5 Q260 113 292 113 Q311 113 330 118 Q349 123 365 134.5 Q381 146 392 164.5 Q403 183 408 209 L461 511 L589 511 L499 0 L371 0 Z M287 581 Q259 581 242.5 598.5 Q226 616 226 642 Q226 660 233 675.5 Q240 691 251.5 702.5 Q263 714 277 720.5 Q291 727 306 727 Q335 727 352 709.5 Q369 692 369 666 Q369 648 362 632.5 Q355 617 343.5 605.5 Q332 594 317.5 587.5 Q303 581 287 581 Z M470 581 Q441 581 425 598.5 Q409 616 409 642 Q409 660 415.5 675.5 Q422 691 433.5 702.5 Q445 714 459.5 720.5 Q474 727 490 727 Q519 727 535.5 709.5 Q552 692 552 666 Q552 648 545 632.5 Q538 617 526.5 605.5 Q515 594 500 587.5 Q485 581 470 581 Z " />
<glyph glyph-name="dagger" unicode="&#x2020;" horiz-adv-x="561" d="M410 424 L402 334 L288 -141 L223 -141 L277 334 L301 424 L202 411 L134 411 L157 536 L225 536 L318 522 L322 587 L344 712 L469 712 L447 587 L427 522 L526 536 L593 536 L570 411 L503 411 L410 424 Z " />
<glyph glyph-name="degree" unicode="&#xb0;" horiz-adv-x="396" d="M303 559 Q332 559 352.5 580 Q373 601 373 633 Q373 659 358.5 675.5 Q344 692 318 692 Q289 692 268.5 671 Q248 650 248 618 Q248 592 262.5 575.5 Q277 559 303 559 Z M303 439 Q261 439 228.5 452.5 Q196 466 173.5 490 Q151 514 139.5 546.5 Q128 579 128 618 Q128 660 143 696 Q158 732 184 757.5 Q210 783 244.5 797.5 Q279 812 318 812 Q360 812 392.5 798.5 Q425 785 447.5 761 Q470 737 481.5 704.5 Q493 672 493 633 Q493 591 478 555 Q463 519 437 493.5 Q411 468 376.5 453.5 Q342 439 303 439 Z " />
<glyph glyph-name="cent" unicode="&#xa2;" horiz-adv-x="525" d="M199 -12 L218 97 Q161 121 131.5 177.5 Q102 234 102 309 Q102 363 116.5 412.5 Q131 462 157.5 501.5 Q184 541 222 569 Q260 597 308 609 L327 712 L447 712 L428 609 Q479 595 513.5 557.5 Q548 520 559 467 L433 426 Q427 455 408.5 473.5 Q390 492 355 492 Q329 492 307 478.5 Q285 465 268.5 442 Q252 419 242.5 387.5 Q233 356 233 319 Q233 273 252.5 240 Q272 207 311 207 Q337 207 364 223 Q391 239 408 281 L522 244 Q499 177 449.5 136 Q400 95 336 85 L319 -12 L199 -12 Z " />
<glyph glyph-name="sterling" unicode="&#xa3;" horiz-adv-x="576" d="M76 0 L98 124 Q120 134 137.5 150.5 Q155 167 167.5 187.5 Q180 208 188.5 229 Q197 250 201 269 L119 269 L141 389 L197 389 Q196 401 190.5 426 Q185 451 185 480 Q185 524 200 565.5 Q215 607 247.5 639.5 Q280 672 331 692 Q382 712 453 712 Q516 712 568 690 Q620 668 655 638 L587 518 Q578 527 563.5 539 Q549 551 529 561.5 Q509 572 485 579.5 Q461 587 434 587 Q401 587 378.5 578.5 Q356 570 341.5 556 Q327 542 321 524 Q315 506 315 487 Q315 471 322 442.5 Q329 414 332 389 L495 389 L473 269 L332 269 Q324 231 304.5 195 Q285 159 256 127 L569 127 L547 0 L76 0 Z " />
<glyph glyph-name="section" unicode="&#xa7;" horiz-adv-x="509" d="M444 545 Q431 561 410 574 Q389 587 356 587 Q324 587 304 574 Q284 561 284 540 Q284 519 315 501 Q346 483 388 464 Q412 453 435 441 Q458 429 475.5 412 Q493 395 504 372 Q515 349 515 318 Q515 272 497.5 239.5 Q480 207 441 181 Q458 162 469 136.5 Q480 111 480 71 Q480 33 465.5 -1.5 Q451 -36 422.5 -62.5 Q394 -89 352 -104.5 Q310 -120 256 -120 Q184 -120 128 -88.5 Q72 -57 43 -3 L151 65 Q158 55 168 44.5 Q178 34 191.5 25 Q205 16 222 10.5 Q239 5 259 5 Q291 5 316 17.5 Q341 30 341 60 Q341 83 309.5 103 Q278 123 225 149 Q204 159 183 171.5 Q162 184 145.5 199.5 Q129 215 119 236 Q109 257 109 286 Q109 332 134 365.5 Q159 399 194 420 Q174 439 162 467.5 Q150 496 150 529 Q150 570 166.5 603.5 Q183 637 211.5 661 Q240 685 279.5 698.5 Q319 712 364 712 Q428 712 476.5 686 Q525 660 549 621 L444 545 Z M381 284 Q381 308 352 325 Q323 342 284 358 Q266 354 255.5 344 Q245 334 245 320 Q245 299 274 282 Q303 265 356 243 Q367 248 374 259.5 Q381 271 381 284 Z " />
<glyph glyph-name="bullet" unicode="&#x2022;" horiz-adv-x="404" d="M239 205 Q212 205 189.5 214.5 Q167 224 151 241 Q135 258 126 280 Q117 302 117 328 Q117 362 131 393 Q145 424 168.5 446.5 Q192 469 223 482.5 Q254 496 288 496 Q315 496 338 486 Q361 476 377 459 Q393 442 402 419.5 Q411 397 411 372 Q411 337 397 306.5 Q383 276 359 253.5 Q335 231 304 218 Q273 205 239 205 Z " />
<glyph glyph-name="paragraph" unicode="&#xb6;" horiz-adv-x="621" d="M404 -108 L524 575 L453 575 L327 -140 L190 -200 L273 274 Q230 276 197.5 292 Q165 308 143.5 333 Q122 358 111 390.5 Q100 423 100 459 Q100 496 113 538.5 Q126 581 156 617 Q186 653 235.5 676.5 Q285 700 357 700 L672 700 L540 -48 L404 -108 Z " />
<glyph glyph-name="germandbls" unicode="&#xdf;" horiz-adv-x="552" d="M146 476 Q158 542 182.5 587 Q207 632 240.5 660 Q274 688 314 700 Q354 712 395 712 Q434 712 467 700.5 Q500 689 524 668 Q548 647 561.5 617 Q575 587 575 549 Q575 498 544.5 452 Q514 406 454 382 Q499 366 527.5 325 Q556 284 556 221 Q556 168 536.5 125.5 Q517 83 484.5 52 Q452 21 410 4.5 Q368 -12 322 -12 Q280 -12 254 -6 Q228 0 212 11 L285 106 Q296 102 304 101 Q312 100 323 100 Q344 100 363 108.5 Q382 117 396.5 132.5 Q411 148 419.5 170.5 Q428 193 428 221 Q428 263 406 293.5 Q384 324 334 324 L299 324 L319 436 L354 436 Q373 436 390.5 443 Q408 450 421 462.5 Q434 475 442 492 Q450 509 450 529 Q450 560 432.5 580 Q415 600 383 600 Q342 600 312.5 571 Q283 542 270 471 L162 -139 L27 -200 L146 476 Z " />
<glyph glyph-name="registered" unicode="&#xae;" horiz-adv-x="810" d="M463 -12 Q386 -12 320 15.5 Q254 43 205 92 Q156 141 128.5 207 Q101 273 101 350 Q101 427 128.5 493 Q156 559 205 608 Q254 657 320 684.5 Q386 712 463 712 Q540 712 606 684.5 Q672 657 721 608 Q770 559 797.5 493 Q825 427 825 350 Q825 273 797.5 207 Q770 141 721 92 Q672 43 606 15.5 Q540 -12 463 -12 Z M463 74 Q522 74 571.5 95 Q621 116 657 153 Q693 190 713 240.5 Q733 291 733 350 Q733 409 713 459.5 Q693 510 657 547 Q621 584 571.5 605 Q522 626 463 626 Q404 626 354.5 605 Q305 584 269 547 Q233 510 213 459.5 Q193 409 193 350 Q193 291 213 240.5 Q233 190 269 153 Q305 116 354.5 95 Q404 74 463 74 Z M320 139 L320 561 L486 561 Q527 561 554 549.5 Q581 538 596.5 519.5 Q612 501 618.5 477.5 Q625 454 625 429 Q625 392 605 359 Q585 326 540 309 L623 139 L509 139 L434 297 L418 297 L418 139 L320 139 Z M486 390 Q509 390 518 402.5 Q527 415 527 429 Q527 441 518.5 454.5 Q510 468 486 468 L418 468 L418 390 L486 390 Z " />
<glyph glyph-name="copyright" unicode="&#xa9;" horiz-adv-x="810" d="M618 236 Q595 185 558 158.5 Q521 132 466 132 Q415 132 380 151 Q345 170 324 201 Q303 232 294 271 Q285 310 285 350 Q285 387 294.5 425.5 Q304 464 325.5 495.5 Q347 527 381.5 547.5 Q416 568 466 568 Q523 568 560 542.5 Q597 517 617 475 L526 432 Q515 451 501 460.5 Q487 470 466 470 Q445 470 430.5 458.5 Q416 447 407 429.5 Q398 412 394 391 Q390 370 390 350 Q390 329 394.5 307.5 Q399 286 408.5 269 Q418 252 432 241 Q446 230 466 230 Q486 230 500.5 240.5 Q515 251 526 268 L618 236 Z M463 -12 Q386 -12 320 15.5 Q254 43 205 92 Q156 141 128.5 207 Q101 273 101 350 Q101 427 128.5 493 Q156 559 205 608 Q254 657 320 684.5 Q386 712 463 712 Q540 712 606 684.5 Q672 657 721 608 Q770 559 797.5 493 Q825 427 825 350 Q825 273 797.5 207 Q770 141 721 92 Q672 43 606 15.5 Q540 -12 463 -12 Z M463 74 Q522 74 571.5 95 Q621 116 657 153 Q693 190 713 240.5 Q733 291 733 350 Q733 409 713 459.5 Q693 510 657 547 Q621 584 571.5 605 Q522 626 463 626 Q404 626 354.5 605 Q305 584 269 547 Q233 510 213 459.5 Q193 409 193 350 Q193 291 213 240.5 Q233 190 269 153 Q305 116 354.5 95 Q404 74 463 74 Z " />
<glyph glyph-name="trademark" unicode="&#x2122;" horiz-adv-x="811" d="M270 611 L270 278 L173 278 L173 611 L67 611 L67 700 L375 700 L375 611 L270 611 Z M725 278 L725 537 L716 510 L612 270 L507 510 L497 540 L497 278 L400 278 L400 700 L518 700 L602 506 L611 481 L620 506 L704 700 L822 700 L822 278 L725 278 Z " />
<glyph glyph-name="acute" unicode="&#xb4;" horiz-adv-x="456" d="M355 576 L234 576 L397 732 L558 732 L355 576 Z " />
<glyph glyph-name="dieresis" unicode="&#xa8;" horiz-adv-x="456" d="M264 581 Q236 581 219.5 598.5 Q203 616 203 642 Q203 660 210 675.5 Q217 691 228.5 702.5 Q240 714 254 720.5 Q268 727 283 727 Q312 727 329 709.5 Q346 692 346 666 Q346 648 339 632.5 Q332 617 320.5 605.5 Q309 594 294.5 587.5 Q280 581 264 581 Z M447 581 Q418 581 402 598.5 Q386 616 386 642 Q386 660 392.5 675.5 Q399 691 410.5 702.5 Q422 714 436.5 720.5 Q451 727 467 727 Q496 727 512.5 709.5 Q529 692 529 666 Q529 648 522 632.5 Q515 617 503.5 605.5 Q492 594 477 587.5 Q462 581 447 581 Z " />
<glyph glyph-name="notequal" unicode="&#x2260;" horiz-adv-x="605" d="M359 169 L327 95 L186 95 L218 169 L139 169 L139 295 L272 295 L314 391 L139 391 L139 517 L369 517 L406 603 L547 603 L510 517 L588 517 L588 391 L455 391 L414 295 L588 295 L588 169 L359 169 Z " />
<glyph glyph-name="AE" unicode="&#xc6;" horiz-adv-x="863" d="M374 0 L400 145 L227 145 L122 0 L-23 0 L489 700 L918 700 L896 572 L608 572 L582 425 L735 425 L712 297 L559 297 L530 128 L838 128 L815 0 L374 0 Z M421 268 L457 468 Q451 456 443 444 Q435 432 425 418 L317 268 L421 268 Z " />
<glyph glyph-name="Oslash" unicode="&#xd8;" horiz-adv-x="717" d="M56 -12 L159 113 Q137 153 127 200 Q117 247 117 298 Q117 380 140 455 Q163 530 206.5 587 Q250 644 314 678 Q378 712 460 712 Q508 712 546 699 Q584 686 613 663 L654 712 L785 712 L679 584 Q700 546 710.5 500.5 Q721 455 721 407 Q721 321 697.5 245 Q674 169 630.5 112 Q587 55 525 21.5 Q463 -12 386 -12 Q335 -12 295.5 0 Q256 12 226 35 L187 -12 L56 -12 Z M251 298 Q251 281 252.5 264.5 Q254 248 258 232 L526 558 Q496 582 451 582 Q404 582 366.5 557.5 Q329 533 303.5 492.5 Q278 452 264.5 401 Q251 350 251 298 Z M385 118 Q431 118 468.5 141 Q506 164 532 203 Q558 242 572.5 294.5 Q587 347 587 407 Q587 421 585 436 Q583 451 580 465 L312 140 Q342 118 385 118 Z " />
<glyph glyph-name="infinity" unicode="&#x221e;" horiz-adv-x="972" d="M732 110 Q693 110 661 119.5 Q629 129 603 145 Q577 161 558 182.5 Q539 204 526 228 Q482 177 424 143.5 Q366 110 291 110 Q249 110 212.5 126.5 Q176 143 148.5 171.5 Q121 200 105.5 238.5 Q90 277 90 321 Q90 382 113 430 Q136 478 173.5 511 Q211 544 259.5 561 Q308 578 360 578 Q401 578 434.5 567.5 Q468 557 493.5 540 Q519 523 537.5 502 Q556 481 567 460 Q586 486 611.5 507.5 Q637 529 665.5 545 Q694 561 725 569.5 Q756 578 786 578 Q829 578 868 564.5 Q907 551 937 524 Q967 497 985 457.5 Q1003 418 1003 367 Q1003 306 980.5 258.5 Q958 211 920.5 178 Q883 145 834 127.5 Q785 110 732 110 Z M744 235 Q770 235 794 243.5 Q818 252 836 267.5 Q854 283 865 304.5 Q876 326 876 353 Q876 400 848 426.5 Q820 453 776 453 Q725 453 682 421 Q639 389 604 344 Q614 321 626.5 301.5 Q639 282 656 267 Q673 252 695 243.5 Q717 235 744 235 Z M316 235 Q366 235 410 267 Q454 299 489 344 Q470 389 435.5 421 Q401 453 348 453 Q322 453 298.5 445 Q275 437 257 421 Q239 405 228 382.5 Q217 360 217 332 Q217 289 244 262 Q271 235 316 235 Z " />
<glyph glyph-name="plusminus" unicode="&#xb1;" horiz-adv-x="605" d="M426 337 L426 192 L296 192 L296 337 L138 337 L138 463 L296 463 L296 608 L426 608 L426 463 L584 463 L584 337 L426 337 Z M138 0 L138 126 L584 126 L584 0 L138 0 Z " />
<glyph glyph-name="lessequal" unicode="&#x2264;" horiz-adv-x="605" d="M587 156 L140 328 L140 431 L587 602 L587 476 L314 379 L587 282 L587 156 Z M140 0 L140 126 L586 126 L586 0 L140 0 Z " />
<glyph glyph-name="greaterequal" unicode="&#x2265;" horiz-adv-x="605" d="M136 156 L136 282 L409 379 L136 476 L136 602 L583 431 L583 328 L136 156 Z M136 0 L136 126 L582 126 L582 0 L136 0 Z " />
<glyph glyph-name="yen" unicode="&#xa5;" horiz-adv-x="584" d="M432 344 L545 344 L527 246 L398 246 L387 181 L516 181 L499 83 L370 83 L355 0 L228 0 L243 83 L115 83 L132 181 L260 181 L271 246 L143 246 L161 344 L273 344 L137 700 L277 700 L368 451 L542 700 L692 700 L432 344 Z " />
<glyph glyph-name="mu" unicode="&#xb5;" horiz-adv-x="572" d="M376 0 L384 48 Q366 22 337 5 Q308 -12 271 -12 Q246 -12 229 -3.5 Q212 5 203 15 L173 -157 L36 -200 L161 511 L287 511 L237 227 Q235 216 233.5 203 Q232 190 232 183 Q232 113 301 113 Q339 113 371 137 Q403 161 414 221 L466 511 L594 511 L504 0 L376 0 Z " />
<glyph glyph-name="partialdiff" unicode="&#x2202;" horiz-adv-x="572" d="M262 -12 Q212 -12 175 4 Q138 20 112.5 47 Q87 74 74.5 109.5 Q62 145 62 184 Q62 250 86 299 Q110 348 148 381 Q186 414 233 430 Q280 446 326 446 Q383 446 414.5 428 Q446 410 458 392 Q458 395 458.5 400 Q459 405 459 408 Q459 456 445 489.5 Q431 523 407 544.5 Q383 566 350 577.5 Q317 589 280 593 L330 712 Q396 700 445 676 Q494 652 526 613.5 Q558 575 573.5 520 Q589 465 589 392 Q589 323 568 251 Q547 179 506 120.5 Q465 62 404 25 Q343 -12 262 -12 Z M276 113 Q305 113 331 123 Q357 133 376 150 Q395 167 406 189.5 Q417 212 417 237 Q417 278 391.5 299.5 Q366 321 322 321 Q294 321 270 311 Q246 301 228 284 Q210 267 200 245 Q190 223 190 198 Q190 160 212.5 136.5 Q235 113 276 113 Z " />
<glyph glyph-name="summation" unicode="&#x2211;" horiz-adv-x="596" d="M18 -139 L40 -17 L311 291 L159 579 L181 701 L669 701 L647 576 L311 576 L467 286 L209 -14 L561 -14 L538 -139 L18 -139 Z " />
<glyph glyph-name="product" unicode="&#x220f;" horiz-adv-x="708" d="M470 -140 L596 575 L313 575 L187 -140 L60 -140 L208 700 L745 700 L597 -140 L470 -140 Z " />
<glyph glyph-name="pi" unicode="&#x3c0;" horiz-adv-x="639" d="M503 -12 Q453 -12 424 17.5 Q395 47 395 96 Q395 118 399 138 L441 376 L332 376 L329 358 Q317 293 303 235.5 Q289 178 266 130 Q243 82 208 43 Q173 4 121 -24 L30 63 Q54 76 79.5 95.5 Q105 115 127.5 144.5 Q150 174 168.5 216.5 Q187 259 198 320 L208 376 L126 376 L150 511 L697 511 L673 376 L566 376 L527 156 Q526 150 525.5 145.5 Q525 141 525 136 Q525 102 556 102 Q591 102 636 121 L603 11 Q579 0 553 -6 Q527 -12 503 -12 Z " />
<glyph glyph-name="integral" unicode="&#x222b;" horiz-adv-x="413" d="M123 -140 Q100 -140 71.5 -134.5 Q43 -129 18 -115 L36 -9 Q64 -20 79.5 -23 Q95 -26 105 -26 Q122 -26 133.5 -17.5 Q145 -9 148 9 L250 589 Q257 627 271.5 651 Q286 675 305.5 688.5 Q325 702 347.5 707 Q370 712 393 712 Q415 712 443 706.5 Q471 701 495 687 L476 581 Q450 592 435 595 Q420 598 409 598 Q393 598 382 589.5 Q371 581 368 563 L266 -17 Q259 -55 244 -79 Q229 -103 209.5 -116.5 Q190 -130 167.5 -135 Q145 -140 123 -140 Z " />
<glyph glyph-name="ordfeminine" unicode="&#xaa;" horiz-adv-x="423" d="M320 283 L325 313 Q313 299 289 286 Q265 273 230 273 Q206 273 184.5 281 Q163 289 146.5 304.5 Q130 320 120 343 Q110 366 110 397 Q110 436 124 465.5 Q138 495 161.5 514 Q185 533 214.5 542.5 Q244 552 275 552 Q304 552 327.5 546 Q351 540 364 532 L367 552 Q368 557 368.5 561 Q369 565 369 570 Q369 619 312 619 Q282 619 249.5 607 Q217 595 190 577 L174 663 Q206 683 248.5 697.5 Q291 712 340 712 Q363 712 387 705.5 Q411 699 430 684 Q449 669 461 645 Q473 621 473 586 Q473 566 469 547 L423 283 L320 283 Z M254 365 Q283 365 303.5 376 Q324 387 341 401 L349 446 Q336 452 318 457 Q300 462 277 462 Q248 462 226.5 448.5 Q205 435 205 407 Q205 389 218 377 Q231 365 254 365 Z " />
<glyph glyph-name="ordmasculine" unicode="&#xba;" horiz-adv-x="446" d="M277 273 Q206 273 162.5 321 Q119 369 119 452 Q119 511 135 559 Q151 607 180.5 641 Q210 675 251.5 693.5 Q293 712 345 712 Q379 712 408 699.5 Q437 687 457.5 663.5 Q478 640 489.5 606.5 Q501 573 501 532 Q501 473 485.5 425.5 Q470 378 440.5 344 Q411 310 369.5 291.5 Q328 273 277 273 Z M290 375 Q314 375 333.5 385.5 Q353 396 367 415 Q381 434 388.5 459 Q396 484 396 514 Q396 560 379.5 585 Q363 610 332 610 Q308 610 288 599 Q268 588 253.5 569.5 Q239 551 231.5 525.5 Q224 500 224 471 Q224 424 241 399.5 Q258 375 290 375 Z " />
<glyph glyph-name="ae" unicode="&#xe6;" horiz-adv-x="817" d="M568 -12 Q508 -12 464 9 Q420 30 397 70 Q350 25 302 6.5 Q254 -12 208 -12 Q180 -12 154 -2.5 Q128 7 108 25.5 Q88 44 76 72 Q64 100 64 137 Q64 186 82.5 222.5 Q101 259 131.5 282 Q162 305 201 316.5 Q240 328 282 328 Q311 328 339 320.5 Q367 313 383 304 L387 328 Q388 334 388.5 339 Q389 344 389 349 Q389 378 370.5 393.5 Q352 409 320 409 Q280 409 241.5 396 Q203 383 166 358 L149 463 Q187 488 235 505.5 Q283 523 343 523 Q379 523 414.5 506.5 Q450 490 472 461 Q498 487 540.5 505 Q583 523 643 523 Q684 523 718.5 511 Q753 499 778 474 Q803 449 817 411 Q831 373 831 321 Q831 289 826 260 Q821 231 812 205 L487 205 Q487 203 486.5 200.5 Q486 198 486 196 Q486 151 514.5 126.5 Q543 102 585 102 Q611 102 642 115 Q673 128 699 155 L765 71 Q685 -12 568 -12 Z M255 102 Q285 102 310 114.5 Q335 127 354 144 L364 199 Q349 207 328 211.5 Q307 216 286 216 Q267 216 249.5 212 Q232 208 219 200 Q206 192 198 179.5 Q190 167 190 149 Q190 128 206.5 115 Q223 102 255 102 Z M618 409 Q579 409 548 386.5 Q517 364 505 315 L707 315 Q707 318 707 322.5 Q707 327 706 333 Q701 372 677.5 390.5 Q654 409 618 409 Z " />
<glyph glyph-name="oslash" unicode="&#xf8;" horiz-adv-x="547" d="M519 433 Q551 380 551 305 Q551 234 531.5 175.5 Q512 117 477 75.5 Q442 34 394 11 Q346 -12 288 -12 Q223 -12 178 13 L158 -12 L45 -12 L116 75 Q86 129 86 212 Q86 280 105.5 337 Q125 394 160.5 435.5 Q196 477 246 500 Q296 523 356 523 Q414 523 458 496 L480 523 L592 523 L519 433 Z M214 231 Q214 222 214 214 Q214 206 216 198 L373 391 Q358 398 337 398 Q311 398 288.5 385 Q266 372 249.5 349.5 Q233 327 223.5 296.5 Q214 266 214 231 Z M299 114 Q326 114 348.5 126.5 Q371 139 387.5 161.5 Q404 184 413.5 215 Q423 246 423 283 Q423 291 422.5 298 Q422 305 421 312 L265 120 Q280 114 299 114 Z " />
<glyph glyph-name="questiondown" unicode="&#xbf;" horiz-adv-x="485" d="M207 -200 Q165 -200 132.5 -186.5 Q100 -173 77.5 -149 Q55 -125 43 -93 Q31 -61 31 -24 Q31 19 44.5 49 Q58 79 79.5 102 Q101 125 126 143.5 Q151 162 174.5 182.5 Q198 203 216 228 Q234 253 240 288 L246 323 L371 323 L364 287 Q355 238 336 204 Q317 170 294 145.5 Q271 121 247 103.5 Q223 86 203.5 69.5 Q184 53 171.5 35 Q159 17 159 -8 Q159 -34 175.5 -54.5 Q192 -75 229 -75 Q275 -75 307 -44.5 Q339 -14 349 43 L474 43 Q464 -16 439.5 -61 Q415 -106 380 -137 Q345 -168 300.5 -184 Q256 -200 207 -200 Z M319 359 Q284 359 265 379 Q246 399 246 428 Q246 470 272 497 Q298 524 338 524 Q370 524 389 504 Q408 484 408 455 Q408 413 381.5 386 Q355 359 319 359 Z " />
<glyph glyph-name="exclamdown" unicode="&#xa1;" horiz-adv-x="288" d="M48 -200 L88 26 L166 319 L237 319 L212 26 L172 -200 L48 -200 Z M214 359 Q179 359 160 379 Q141 399 141 428 Q141 470 167 497 Q193 524 233 524 Q265 524 284 504 Q303 484 303 455 Q303 413 276.5 386 Q250 359 214 359 Z " />
<glyph glyph-name="logicalnot" unicode="&#xac;" horiz-adv-x="605" d="M453 161 L453 354 L137 354 L137 480 L583 480 L583 161 L453 161 Z " />
<glyph glyph-name="radical" unicode="&#x221a;" horiz-adv-x="555" d="M649 700 L321 0 L224 0 L105 353 L237 353 L287 194 L516 700 L649 700 Z " />
<glyph glyph-name="florin" unicode="&#x192;" horiz-adv-x="371" d="M143 511 L209 511 L223 589 Q230 627 245 651 Q260 675 280 688.5 Q300 702 322.5 707 Q345 712 368 712 Q397 712 422.5 706.5 Q448 701 472 687 L453 581 Q427 592 412 595 Q397 598 386 598 Q351 598 345 563 L336 511 L441 511 L421 395 L315 395 L246 -2 Q236 -58 216.5 -98 Q197 -138 167 -166.5 Q137 -195 96.5 -213.5 Q56 -232 4 -244 L-41 -141 Q-4 -134 23.5 -124.5 Q51 -115 70 -100.5 Q89 -86 100 -66 Q111 -46 116 -19 L189 395 L123 395 L143 511 Z " />
<glyph glyph-name="approxequal" unicode="&#x2248;" horiz-adv-x="605" d="M455 367 Q423 367 397.5 375.5 Q372 384 350.5 394 Q329 404 310 412.5 Q291 421 273 421 Q250 421 240 406 Q230 391 227 367 L124 367 Q124 403 132 435.5 Q140 468 157 493 Q174 518 201 533 Q228 548 266 548 Q298 548 323 539.5 Q348 531 369 521 Q390 511 409 502.5 Q428 494 448 494 Q471 494 481.5 509 Q492 524 494 548 L597 548 Q597 512 589.5 479.5 Q582 447 565 422 Q548 397 521 382 Q494 367 455 367 Z M455 139 Q423 139 397.5 147.5 Q372 156 350.5 166 Q329 176 310 184.5 Q291 193 273 193 Q250 193 240 178 Q230 163 227 139 L124 139 Q124 175 132 207.5 Q140 240 157 265 Q174 290 201 305 Q228 320 266 320 Q298 320 323 311.5 Q348 303 369 293 Q390 283 409 274.5 Q428 266 448 266 Q471 266 481.5 281 Q492 296 494 320 L543 320 L597 320 Q597 284 589.5 251.5 Q582 219 565 194 Q548 169 521 154 Q494 139 455 139 Z " />
<glyph glyph-name="Delta" unicode="&#x2206;" horiz-adv-x="615" d="M9 0 L371 700 L492 700 L607 0 L9 0 Z M413 450 Q411 464 409 481 Q407 498 405 513 Q399 498 390.5 481 Q382 464 375 450 L212 127 L460 127 L413 450 Z " />
<glyph glyph-name="guillemotleft" unicode="&#xab;" horiz-adv-x="540" d="M175 0 L74 256 L265 511 L399 511 L205 250 L304 0 L175 0 Z M450 0 L391 0 L290 256 L481 511 L615 511 L421 250 L520 0 L450 0 Z " />
<glyph glyph-name="guillemotright" unicode="&#xbb;" horiz-adv-x="540" d="M225 0 L422 263 L327 511 L455 511 L556 256 L365 0 L225 0 Z M9 0 L206 263 L111 511 L239 511 L340 256 L149 0 L9 0 Z " />
<glyph glyph-name="ellipsis" unicode="&#x2026;" horiz-adv-x="1005" d="M165 -12 Q134 -12 115.5 8 Q97 28 97 57 Q97 77 105 94.5 Q113 112 126.5 125 Q140 138 157.5 145.5 Q175 153 194 153 Q225 153 244 132.5 Q263 112 263 83 Q263 63 255 45.5 Q247 28 233.5 15.5 Q220 3 202 -4.5 Q184 -12 165 -12 Z M500 -12 Q469 -12 450.5 8 Q432 28 432 57 Q432 77 440 94.5 Q448 112 461.5 125 Q475 138 492.5 145.5 Q510 153 529 153 Q560 153 579 132.5 Q598 112 598 83 Q598 63 590 45.5 Q582 28 568.5 15.5 Q555 3 537 -4.5 Q519 -12 500 -12 Z M835 -12 Q804 -12 785.5 8 Q767 28 767 57 Q767 77 775 94.5 Q783 112 796.5 125 Q810 138 827.5 145.5 Q845 153 864 153 Q895 153 914 132.5 Q933 112 933 83 Q933 63 925 45.5 Q917 28 903.5 15.5 Q890 3 872 -4.5 Q854 -12 835 -12 Z " />
<glyph glyph-name="Agrave" unicode="&#xc0;" horiz-adv-x="712" d="M543 0 L517 145 L258 145 L180 0 L35 0 L415 700 L548 700 L682 0 L543 0 Z M461 463 Q460 468 459 475.5 Q458 483 456.5 491.5 Q455 500 453.5 507.5 Q452 515 452 519 Q448 510 439.5 492.5 Q431 475 426 465 L321 268 L496 268 L461 463 Z M466 766 L318 922 L479 922 L588 766 L466 766 Z " />
<glyph glyph-name="Atilde" unicode="&#xc3;" horiz-adv-x="712" d="M543 0 L517 145 L258 145 L180 0 L35 0 L415 700 L548 700 L682 0 L543 0 Z M461 463 Q460 468 459 475.5 Q458 483 456.5 491.5 Q455 500 453.5 507.5 Q452 515 452 519 Q448 510 439.5 492.5 Q431 475 426 465 L321 268 L496 268 L461 463 Z M572 773 Q546 773 526.5 780 Q507 787 489.5 796 Q472 805 456 812 Q440 819 422 819 Q404 819 389.5 809.5 Q375 800 370 777 L311 777 Q321 837 352.5 876 Q384 915 446 915 Q471 915 491 908 Q511 901 528.5 892 Q546 883 562 876 Q578 869 596 869 Q614 869 628.5 878.5 Q643 888 648 911 L707 911 Q702 881 692 855.5 Q682 830 665.5 812 Q649 794 626 783.5 Q603 773 572 773 Z " />
<glyph glyph-name="Otilde" unicode="&#xd5;" horiz-adv-x="717" d="M385 118 Q431 118 468.5 141 Q506 164 532 203 Q558 242 572.5 294.5 Q587 347 587 407 Q587 438 579.5 469.5 Q572 501 556 526 Q540 551 514 566.5 Q488 582 451 582 Q404 582 366.5 557.5 Q329 533 303.5 492.5 Q278 452 264.5 401 Q251 350 251 298 Q251 265 258 232.5 Q265 200 281 174.5 Q297 149 322.5 133.5 Q348 118 385 118 Z M386 -12 Q312 -12 261 14 Q210 40 178 83.5 Q146 127 131.5 183 Q117 239 117 298 Q117 380 140 455 Q163 530 206.5 587 Q250 644 314 678 Q378 712 460 712 Q527 712 576.5 686.5 Q626 661 658 618 Q690 575 705.5 520 Q721 465 721 407 Q721 321 697.5 245 Q674 169 630.5 112 Q587 55 525 21.5 Q463 -12 386 -12 Z M573 773 Q547 773 527.5 780 Q508 787 490.5 796 Q473 805 457 812 Q441 819 423 819 Q405 819 390.5 809.5 Q376 800 371 777 L312 777 Q322 837 353.5 876 Q385 915 447 915 Q472 915 492 908 Q512 901 529.5 892 Q547 883 563 876 Q579 869 597 869 Q615 869 629.5 878.5 Q644 888 649 911 L708 911 Q703 881 693 855.5 Q683 830 666.5 812 Q650 794 627 783.5 Q604 773 573 773 Z " />
<glyph glyph-name="OE" unicode="&#x152;" horiz-adv-x="917" d="M466 0 Q444 -5 420 -8.5 Q396 -12 371 -12 Q299 -12 250.5 15 Q202 42 172 84.5 Q142 127 129.5 179.5 Q117 232 117 284 Q117 355 137.5 431 Q158 507 200.5 569.5 Q243 632 309 672 Q375 712 467 712 Q490 712 511.5 708.5 Q533 705 553 700 L972 700 L950 572 L659 572 L633 425 L788 425 L765 297 L610 297 L581 128 L892 128 L869 0 L466 0 Z M388 118 Q420 118 447 130 L524 560 Q493 582 452 582 Q404 582 367.5 557.5 Q331 533 305.5 492.5 Q280 452 267 401 Q254 350 254 298 Q254 265 261 232.5 Q268 200 284 174.5 Q300 149 325.5 133.5 Q351 118 388 118 Z " />
<glyph glyph-name="oe" unicode="&#x153;" horiz-adv-x="865" d="M536 195 Q536 172 544 155 Q552 138 565.5 126 Q579 114 597 108 Q615 102 634 102 Q665 102 696 117 Q727 132 749 155 L812 74 Q774 35 725 11.5 Q676 -12 607 -12 Q560 -12 522.5 6 Q485 24 459 57 Q424 24 379 6 Q334 -12 283 -12 Q186 -12 136 45 Q86 102 86 208 Q86 277 106.5 335 Q127 393 162.5 435 Q198 477 247 500 Q296 523 353 523 Q458 523 508 454 Q542 486 584 504.5 Q626 523 677 523 Q771 523 825 471.5 Q879 420 879 328 Q879 297 875.5 265 Q872 233 862 205 L536 205 L536 195 Z M294 113 Q322 113 346 126 Q370 139 387 161.5 Q404 184 413.5 215 Q423 246 423 283 Q423 338 402.5 368 Q382 398 344 398 Q315 398 291 385 Q267 372 250 349.5 Q233 327 223.5 296.5 Q214 266 214 231 Q214 113 294 113 Z M757 315 Q757 331 754 343 Q746 378 724 393.5 Q702 409 671 409 Q627 409 597 386 Q567 363 555 315 L757 315 Z " />
<glyph glyph-name="endash" unicode="&#x2013;" horiz-adv-x="475" d="M89 230 L109 344 L488 344 L468 230 L89 230 Z " />
<glyph glyph-name="emdash" unicode="&#x2014;" horiz-adv-x="552" d="M36 230 L56 344 L618 344 L598 230 L36 230 Z " />
<glyph glyph-name="quotedblleft" unicode="&#x201c;" horiz-adv-x="467" d="M322 671 Q314 665 303.5 654.5 Q293 644 281.5 631 Q270 618 259.5 604.5 Q249 591 243 579 Q262 572 274 555.5 Q286 539 286 515 Q286 494 278.5 476.5 Q271 459 258 446 Q245 433 227.5 425.5 Q210 418 191 418 Q162 418 142 438 Q122 458 122 494 Q122 526 135 557.5 Q148 589 170 617.5 Q192 646 219.5 670.5 Q247 695 277 712 L322 671 Z M551 671 Q543 665 532.5 654.5 Q522 644 510.5 631 Q499 618 489 604.5 Q479 591 473 579 Q491 572 503 555.5 Q515 539 515 515 Q515 493 506.5 475 Q498 457 484.5 444.5 Q471 432 454 425 Q437 418 419 418 Q390 418 370.5 438 Q351 458 351 494 Q351 526 364 557.5 Q377 589 399 617.5 Q421 646 449 670.5 Q477 695 506 712 L551 671 Z " />
<glyph glyph-name="quotedblright" unicode="&#x201d;" horiz-adv-x="467" d="M115 459 Q122 465 133 475.5 Q144 486 155.5 499 Q167 512 177.5 525.5 Q188 539 194 551 Q175 558 163 574.5 Q151 591 151 615 Q151 636 158.5 653.5 Q166 671 179 684 Q192 697 209.5 704.5 Q227 712 246 712 Q275 712 295 692 Q315 672 315 636 Q315 604 302 572.5 Q289 541 267 512.5 Q245 484 217.5 459.5 Q190 435 160 418 L115 459 Z M345 459 Q352 465 363 475.5 Q374 486 385.5 499 Q397 512 407.5 525.5 Q418 539 424 551 Q405 558 393 574.5 Q381 591 381 615 Q381 636 388.5 653.5 Q396 671 409 684 Q422 697 439.5 704.5 Q457 712 476 712 Q505 712 525 692 Q545 672 545 636 Q545 604 532 572.5 Q519 541 497 512.5 Q475 484 447.5 459.5 Q420 435 390 418 L345 459 Z " />
<glyph glyph-name="quoteleft" unicode="&#x2018;" horiz-adv-x="237" d="M322 671 Q314 665 303.5 654.5 Q293 644 281.5 631 Q270 618 259.5 604.5 Q249 591 243 579 Q262 572 274 555.5 Q286 539 286 515 Q286 494 278.5 476.5 Q271 459 258 446 Q245 433 227.5 425.5 Q210 418 191 418 Q162 418 142 438 Q122 458 122 494 Q122 526 135 557.5 Q148 589 170 617.5 Q192 646 219.5 670.5 Q247 695 277 712 L322 671 Z " />
<glyph glyph-name="quoteright" unicode="&#x2019;" horiz-adv-x="237" d="M115 459 Q122 465 133 475.5 Q144 486 155.5 499 Q167 512 177.5 525.5 Q188 539 194 551 Q175 558 163 574.5 Q151 591 151 615 Q151 636 158.5 653.5 Q166 671 179 684 Q192 697 209.5 704.5 Q227 712 246 712 Q275 712 295 692 Q315 672 315 636 Q315 604 302 572.5 Q289 541 267 512.5 Q245 484 217.5 459.5 Q190 435 160 418 L115 459 Z " />
<glyph glyph-name="divide" unicode="&#xf7;" horiz-adv-x="605" d="M137 280 L137 406 L583 406 L583 280 L137 280 Z M360 446 Q327 446 304.5 468 Q282 490 282 522 Q282 554 304.5 576 Q327 598 360 598 Q393 598 415.5 576 Q438 554 438 522 Q438 490 415.5 468 Q393 446 360 446 Z M360 88 Q327 88 304.5 110 Q282 132 282 164 Q282 196 304.5 218 Q327 240 360 240 Q393 240 415.5 218 Q438 196 438 164 Q438 132 415.5 110 Q393 88 360 88 Z " />
<glyph glyph-name="lozenge" unicode="&#x25ca;" horiz-adv-x="584" d="M245 -12 L115 350 L373 712 L463 712 L593 350 L335 -12 L245 -12 Z M394 540 L248 339 L313 163 L459 362 L394 540 Z " />
<glyph glyph-name="ydieresis" unicode="&#xff;" horiz-adv-x="547" d="M240 -194 L99 -194 L210 10 L114 511 L242 511 L297 216 Q299 205 301 192 Q303 179 304 169 Q309 182 314.5 193.5 Q320 205 326 216 L486 511 L625 511 L240 -194 Z M293 581 Q265 581 248.5 598.5 Q232 616 232 642 Q232 660 239 675.5 Q246 691 257.5 702.5 Q269 714 283 720.5 Q297 727 312 727 Q341 727 358 709.5 Q375 692 375 666 Q375 648 368 632.5 Q361 617 349.5 605.5 Q338 594 323.5 587.5 Q309 581 293 581 Z M476 581 Q447 581 431 598.5 Q415 616 415 642 Q415 660 421.5 675.5 Q428 691 439.5 702.5 Q451 714 465.5 720.5 Q480 727 496 727 Q525 727 541.5 709.5 Q558 692 558 666 Q558 648 551 632.5 Q544 617 532.5 605.5 Q521 594 506 587.5 Q491 581 476 581 Z " />
<glyph glyph-name="Ydieresis" unicode="&#x178;" horiz-adv-x="684" d="M273 0 L323 282 L150 700 L292 700 L408 414 L624 700 L778 700 L459 279 L410 0 L273 0 Z M383 771 Q355 771 338.5 788.5 Q322 806 322 832 Q322 850 329 865.5 Q336 881 347.5 892.5 Q359 904 373 910.5 Q387 917 402 917 Q431 917 448 899.5 Q465 882 465 856 Q465 838 458 822.5 Q451 807 439.5 795.5 Q428 784 413.5 777.5 Q399 771 383 771 Z M566 771 Q537 771 521 788.5 Q505 806 505 832 Q505 850 511.5 865.5 Q518 881 529.5 892.5 Q541 904 555.5 910.5 Q570 917 586 917 Q615 917 631.5 899.5 Q648 882 648 856 Q648 838 641 822.5 Q634 807 622.5 795.5 Q611 784 596 777.5 Q581 771 566 771 Z " />
<glyph glyph-name="fraction" unicode="&#x2044;" horiz-adv-x="348" d="M-119 -12 L468 712 L592 712 L5 -12 L-119 -12 Z " />
<glyph glyph-name="Euro" unicode="&#x20ac;" horiz-adv-x="613" d="M519 373 L308 373 Q300 340 297 313 L486 313 L431 215 L296 216 Q298 198 303 180 Q308 162 318.5 147 Q329 132 345.5 122.5 Q362 113 386 113 Q419 113 449.5 131.5 Q480 150 507 184 L596 120 Q551 56 499 22 Q447 -12 380 -12 Q335 -12 297.5 1 Q260 14 232 41.5 Q204 69 187 112.5 Q170 156 166 216 L75 217 L133 313 L168 313 Q171 341 177 373 L103 373 L161 470 L204 470 Q221 516 246.5 559.5 Q272 603 308.5 637 Q345 671 392.5 691.5 Q440 712 501 712 Q546 712 588 697.5 Q630 683 673 645 L608 530 Q585 555 555.5 571 Q526 587 487 587 Q462 587 440.5 578 Q419 569 400.5 553 Q382 537 367.5 516 Q353 495 341 470 L575 471 L519 373 Z " />
<glyph glyph-name="guilsinglleft" unicode="&#x2039;" horiz-adv-x="324" d="M175 0 L74 256 L265 511 L404 511 L209 253 L307 0 L175 0 Z " />
<glyph glyph-name="guilsinglright" unicode="&#x203a;" horiz-adv-x="324" d="M13 0 L208 260 L109 511 L239 511 L340 256 L149 0 L13 0 Z " />
<glyph glyph-name="fi" unicode="&#xfb01;" horiz-adv-x="572" d="M298 397 L228 0 L100 0 L170 397 L104 397 L124 511 L190 511 L204 589 Q211 627 226.5 651 Q242 675 262.5 689 Q283 703 305.5 708.5 Q328 714 349 714 Q375 714 402.5 707 Q430 700 453 687 L434 581 Q408 592 393 595 Q378 598 367 598 Q334 598 327 563 L318 511 L417 511 L397 397 L298 397 Z M373 0 L463 511 L592 511 L502 0 L373 0 Z M539 572 Q511 572 494 590 Q477 608 477 634 Q477 652 484 668 Q491 684 503 695.5 Q515 707 529.5 714 Q544 721 559 721 Q588 721 605.5 703 Q623 685 623 659 Q623 641 616 625 Q609 609 597 597.5 Q585 586 570 579 Q555 572 539 572 Z " />
<glyph glyph-name="fl" unicode="&#xfb02;" horiz-adv-x="579" d="M298 397 L228 0 L100 0 L170 397 L104 397 L124 511 L190 511 L204 589 Q211 627 226.5 651 Q242 675 262.5 689 Q283 703 305.5 708.5 Q328 714 349 714 Q375 714 402.5 707 Q430 700 453 687 L434 581 Q408 592 393 595 Q378 598 367 598 Q334 598 327 563 L318 511 L417 511 L397 397 L298 397 Z M373 0 L492 679 L629 722 L501 0 L373 0 Z " />
<glyph glyph-name="daggerdbl" unicode="&#x2021;" horiz-adv-x="561" d="M460 160 L527 160 L505 35 L438 35 L345 49 L341 -16 L319 -141 L192 -141 L214 -16 L234 49 L135 35 L67 35 L89 160 L157 160 L251 147 L259 237 L276 334 L300 424 L201 411 L133 411 L156 536 L224 536 L317 522 L321 587 L343 712 L470 712 L448 587 L428 522 L527 536 L594 536 L571 411 L504 411 L411 424 L403 334 L386 237 L362 147 L460 160 Z " />
<glyph glyph-name="periodcentered" unicode="&#xb7;" horiz-adv-x="231" d="M166 267 Q134 267 115 287 Q96 307 96 336 Q96 378 122.5 405 Q149 432 185 432 Q220 432 239 412 Q258 392 258 363 Q258 321 232 294 Q206 267 166 267 Z " />
<glyph glyph-name="quotesinglbase" unicode="&#x201a;" horiz-adv-x="237" d="M16 -100 Q23 -94 34 -83 Q45 -72 56.5 -59.5 Q68 -47 78.5 -33 Q89 -19 95 -7 Q76 0 64 16.5 Q52 33 52 57 Q52 79 59.5 96.5 Q67 114 79.5 126.5 Q92 139 108 146 Q124 153 141 153 Q174 153 195 133 Q216 113 216 77 Q216 45 203 13.5 Q190 -18 168 -46.5 Q146 -75 118.5 -99.5 Q91 -124 61 -141 L16 -100 Z " />
<glyph glyph-name="quotedblbase" unicode="&#x201e;" horiz-adv-x="467" d="M16 -100 Q23 -94 34 -83 Q45 -72 56.5 -59.5 Q68 -47 78.5 -33 Q89 -19 95 -7 Q76 0 64 16.5 Q52 33 52 57 Q52 79 59.5 96.5 Q67 114 79.5 126.5 Q92 139 108 146 Q124 153 141 153 Q174 153 195 133 Q216 113 216 77 Q216 45 203 13.5 Q190 -18 168 -46.5 Q146 -75 118.5 -99.5 Q91 -124 61 -141 L16 -100 Z M245 -100 Q252 -94 263 -83 Q274 -72 285.5 -59.5 Q297 -47 307.5 -33 Q318 -19 324 -7 Q305 0 293 16.5 Q281 33 281 57 Q281 79 288.5 96.5 Q296 114 308.5 126.5 Q321 139 337 146 Q353 153 370 153 Q403 153 424 133 Q445 113 445 77 Q445 45 432 13.5 Q419 -18 397 -46.5 Q375 -75 347.5 -99.5 Q320 -124 290 -141 L245 -100 Z " />
<glyph glyph-name="perthousand" unicode="&#x2030;" horiz-adv-x="1190" d="M267 346 Q230 346 204 359 Q178 372 162 393 Q146 414 139 440.5 Q132 467 132 493 Q132 527 143.5 566 Q155 605 179.5 637 Q204 669 242 690.5 Q280 712 332 712 Q369 712 395 699 Q421 686 437 665 Q453 644 460 617.5 Q467 591 467 565 Q467 530 455.5 491.5 Q444 453 420 421 Q396 389 358 367.5 Q320 346 267 346 Z M286 454 Q304 454 317.5 462 Q331 470 339.5 483.5 Q348 497 352.5 514 Q357 531 357 549 Q357 572 346.5 588 Q336 604 313 604 Q295 604 282 596 Q269 588 260 575 Q251 562 246.5 544.5 Q242 527 242 509 Q242 486 252.5 470 Q263 454 286 454 Z M236 -12 L112 -12 L698 712 L822 712 L236 -12 Z M602 -12 Q564 -12 538.5 1 Q513 14 497 35 Q481 56 474 82 Q467 108 467 134 Q467 169 478.5 207.5 Q490 246 514.5 278.5 Q539 311 576.5 332.5 Q614 354 666 354 Q703 354 729 341 Q755 328 771 307 Q787 286 794 259.5 Q801 233 801 207 Q801 173 790 134.5 Q779 96 755 63.5 Q731 31 693 9.5 Q655 -12 602 -12 Z M621 96 Q656 96 674 125 Q692 154 692 190 Q692 214 681 230 Q670 246 647 246 Q611 246 593.5 217 Q576 188 576 151 Q576 127 586.5 111.5 Q597 96 621 96 Z M982 -12 Q944 -12 918.5 1 Q893 14 877 35 Q861 56 854 82 Q847 108 847 134 Q847 169 858.5 207.5 Q870 246 894.5 278.5 Q919 311 956.5 332.5 Q994 354 1046 354 Q1083 354 1109 341 Q1135 328 1151 307 Q1167 286 1174 259.5 Q1181 233 1181 207 Q1181 173 1170 134.5 Q1159 96 1135 63.5 Q1111 31 1073 9.5 Q1035 -12 982 -12 Z M1001 96 Q1036 96 1054 125 Q1072 154 1072 190 Q1072 214 1061 230 Q1050 246 1027 246 Q992 246 974 217.5 Q956 189 956 151 Q956 128 967 112 Q978 96 1001 96 Z " />
<glyph glyph-name="Acircumflex" unicode="&#xc2;" horiz-adv-x="712" d="M543 0 L517 145 L258 145 L180 0 L35 0 L415 700 L548 700 L682 0 L543 0 Z M461 463 Q460 468 459 475.5 Q458 483 456.5 491.5 Q455 500 453.5 507.5 Q452 515 452 519 Q448 510 439.5 492.5 Q431 475 426 465 L321 268 L496 268 L461 463 Z M575 766 L507 835 L414 766 L299 766 L462 922 L582 922 L690 766 L575 766 Z " />
<glyph glyph-name="Ecircumflex" unicode="&#xca;" horiz-adv-x="607" d="M80 0 L203 700 L662 700 L640 572 L318 572 L292 425 L479 425 L456 297 L269 297 L240 128 L582 128 L559 0 L80 0 Z M538 766 L470 835 L377 766 L262 766 L425 922 L545 922 L653 766 L538 766 Z " />
<glyph glyph-name="Aacute" unicode="&#xc1;" horiz-adv-x="712" d="M543 0 L517 145 L258 145 L180 0 L35 0 L415 700 L548 700 L682 0 L543 0 Z M461 463 Q460 468 459 475.5 Q458 483 456.5 491.5 Q455 500 453.5 507.5 Q452 515 452 519 Q448 510 439.5 492.5 Q431 475 426 465 L321 268 L496 268 L461 463 Z M510 766 L389 766 L552 922 L713 922 L510 766 Z " />
<glyph glyph-name="Edieresis" unicode="&#xcb;" horiz-adv-x="607" d="M80 0 L203 700 L662 700 L640 572 L318 572 L292 425 L479 425 L456 297 L269 297 L240 128 L582 128 L559 0 L80 0 Z M373 771 Q345 771 328.5 788.5 Q312 806 312 832 Q312 850 319 865.5 Q326 881 337.5 892.5 Q349 904 363 910.5 Q377 917 392 917 Q421 917 438 899.5 Q455 882 455 856 Q455 838 448 822.5 Q441 807 429.5 795.5 Q418 784 403.5 777.5 Q389 771 373 771 Z M556 771 Q527 771 511 788.5 Q495 806 495 832 Q495 850 501.5 865.5 Q508 881 519.5 892.5 Q531 904 545.5 910.5 Q560 917 576 917 Q605 917 621.5 899.5 Q638 882 638 856 Q638 838 631 822.5 Q624 807 612.5 795.5 Q601 784 586 777.5 Q571 771 556 771 Z " />
<glyph glyph-name="Egrave" unicode="&#xc8;" horiz-adv-x="607" d="M80 0 L203 700 L662 700 L640 572 L318 572 L292 425 L479 425 L456 297 L269 297 L240 128 L582 128 L559 0 L80 0 Z M436 766 L288 922 L449 922 L558 766 L436 766 Z " />
<glyph glyph-name="Iacute" unicode="&#xcd;" horiz-adv-x="296" d="M80 0 L203 700 L340 700 L217 0 L80 0 Z M287 766 L166 766 L329 922 L490 922 L287 766 Z " />
<glyph glyph-name="Icircumflex" unicode="&#xce;" horiz-adv-x="296" d="M80 0 L203 700 L340 700 L217 0 L80 0 Z M362 766 L294 835 L201 766 L86 766 L249 922 L369 922 L477 766 L362 766 Z " />
<glyph glyph-name="Idieresis" unicode="&#xcf;" horiz-adv-x="296" d="M80 0 L203 700 L340 700 L217 0 L80 0 Z M193 771 Q165 771 148.5 788.5 Q132 806 132 832 Q132 850 139 865.5 Q146 881 157.5 892.5 Q169 904 183 910.5 Q197 917 212 917 Q241 917 258 899.5 Q275 882 275 856 Q275 838 268 822.5 Q261 807 249.5 795.5 Q238 784 223.5 777.5 Q209 771 193 771 Z M376 771 Q347 771 331 788.5 Q315 806 315 832 Q315 850 321.5 865.5 Q328 881 339.5 892.5 Q351 904 365.5 910.5 Q380 917 396 917 Q425 917 441.5 899.5 Q458 882 458 856 Q458 838 451 822.5 Q444 807 432.5 795.5 Q421 784 406 777.5 Q391 771 376 771 Z " />
<glyph glyph-name="Igrave" unicode="&#xcc;" horiz-adv-x="296" d="M80 0 L203 700 L340 700 L217 0 L80 0 Z M263 766 L115 922 L276 922 L385 766 L263 766 Z " />
<glyph glyph-name="Oacute" unicode="&#xd3;" horiz-adv-x="717" d="M385 118 Q431 118 468.5 141 Q506 164 532 203 Q558 242 572.5 294.5 Q587 347 587 407 Q587 438 579.5 469.5 Q572 501 556 526 Q540 551 514 566.5 Q488 582 451 582 Q404 582 366.5 557.5 Q329 533 303.5 492.5 Q278 452 264.5 401 Q251 350 251 298 Q251 265 258 232.5 Q265 200 281 174.5 Q297 149 322.5 133.5 Q348 118 385 118 Z M386 -12 Q312 -12 261 14 Q210 40 178 83.5 Q146 127 131.5 183 Q117 239 117 298 Q117 380 140 455 Q163 530 206.5 587 Q250 644 314 678 Q378 712 460 712 Q527 712 576.5 686.5 Q626 661 658 618 Q690 575 705.5 520 Q721 465 721 407 Q721 321 697.5 245 Q674 169 630.5 112 Q587 55 525 21.5 Q463 -12 386 -12 Z M498 766 L377 766 L540 922 L701 922 L498 766 Z " />
<glyph glyph-name="Ocircumflex" unicode="&#xd4;" horiz-adv-x="717" d="M385 118 Q431 118 468.5 141 Q506 164 532 203 Q558 242 572.5 294.5 Q587 347 587 407 Q587 438 579.5 469.5 Q572 501 556 526 Q540 551 514 566.5 Q488 582 451 582 Q404 582 366.5 557.5 Q329 533 303.5 492.5 Q278 452 264.5 401 Q251 350 251 298 Q251 265 258 232.5 Q265 200 281 174.5 Q297 149 322.5 133.5 Q348 118 385 118 Z M386 -12 Q312 -12 261 14 Q210 40 178 83.5 Q146 127 131.5 183 Q117 239 117 298 Q117 380 140 455 Q163 530 206.5 587 Q250 644 314 678 Q378 712 460 712 Q527 712 576.5 686.5 Q626 661 658 618 Q690 575 705.5 520 Q721 465 721 407 Q721 321 697.5 245 Q674 169 630.5 112 Q587 55 525 21.5 Q463 -12 386 -12 Z M570 766 L502 835 L409 766 L294 766 L457 922 L577 922 L685 766 L570 766 Z " />
<glyph glyph-name="Ograve" unicode="&#xd2;" horiz-adv-x="717" d="M385 118 Q431 118 468.5 141 Q506 164 532 203 Q558 242 572.5 294.5 Q587 347 587 407 Q587 438 579.5 469.5 Q572 501 556 526 Q540 551 514 566.5 Q488 582 451 582 Q404 582 366.5 557.5 Q329 533 303.5 492.5 Q278 452 264.5 401 Q251 350 251 298 Q251 265 258 232.5 Q265 200 281 174.5 Q297 149 322.5 133.5 Q348 118 385 118 Z M386 -12 Q312 -12 261 14 Q210 40 178 83.5 Q146 127 131.5 183 Q117 239 117 298 Q117 380 140 455 Q163 530 206.5 587 Q250 644 314 678 Q378 712 460 712 Q527 712 576.5 686.5 Q626 661 658 618 Q690 575 705.5 520 Q721 465 721 407 Q721 321 697.5 245 Q674 169 630.5 112 Q587 55 525 21.5 Q463 -12 386 -12 Z M484 766 L336 922 L497 922 L606 766 L484 766 Z " />
<glyph glyph-name="Uacute" unicode="&#xda;" horiz-adv-x="705" d="M366 -12 Q316 -12 272 1 Q228 14 195 41.5 Q162 69 143 111.5 Q124 154 124 212 Q124 229 125.5 250.5 Q127 272 135 316 L204 700 L339 700 L268 291 Q263 265 261.5 252 Q260 239 260 225 Q260 195 269.5 175 Q279 155 295 142.5 Q311 130 332 125 Q353 120 376 120 Q406 120 433 127 Q460 134 482 150.5 Q504 167 519 195.5 Q534 224 542 268 L618 700 L753 700 L675 256 Q661 175 632 123 Q603 71 562.5 41 Q522 11 472 -0.5 Q422 -12 366 -12 Z M507 766 L386 766 L549 922 L710 922 L507 766 Z " />
<glyph glyph-name="Ucircumflex" unicode="&#xdb;" horiz-adv-x="705" d="M366 -12 Q316 -12 272 1 Q228 14 195 41.5 Q162 69 143 111.5 Q124 154 124 212 Q124 229 125.5 250.5 Q127 272 135 316 L204 700 L339 700 L268 291 Q263 265 261.5 252 Q260 239 260 225 Q260 195 269.5 175 Q279 155 295 142.5 Q311 130 332 125 Q353 120 376 120 Q406 120 433 127 Q460 134 482 150.5 Q504 167 519 195.5 Q534 224 542 268 L618 700 L753 700 L675 256 Q661 175 632 123 Q603 71 562.5 41 Q522 11 472 -0.5 Q422 -12 366 -12 Z M567 766 L499 835 L406 766 L291 766 L454 922 L574 922 L682 766 L567 766 Z " />
<glyph glyph-name="Ugrave" unicode="&#xd9;" horiz-adv-x="705" d="M366 -12 Q316 -12 272 1 Q228 14 195 41.5 Q162 69 143 111.5 Q124 154 124 212 Q124 229 125.5 250.5 Q127 272 135 316 L204 700 L339 700 L268 291 Q263 265 261.5 252 Q260 239 260 225 Q260 195 269.5 175 Q279 155 295 142.5 Q311 130 332 125 Q353 120 376 120 Q406 120 433 127 Q460 134 482 150.5 Q504 167 519 195.5 Q534 224 542 268 L618 700 L753 700 L675 256 Q661 175 632 123 Q603 71 562.5 41 Q522 11 472 -0.5 Q422 -12 366 -12 Z M466 766 L318 922 L479 922 L588 766 L466 766 Z " />
<glyph glyph-name="dotlessi" unicode="&#x131;" horiz-adv-x="271" d="M72 0 L162 511 L291 511 L201 0 L72 0 Z " />
<glyph glyph-name="circumflex" unicode="&#x2c6;" horiz-adv-x="456" d="M443 576 L375 645 L282 576 L167 576 L330 732 L450 732 L558 576 L443 576 Z " />
<glyph glyph-name="tilde" unicode="&#x2dc;" horiz-adv-x="456" d="M437 583 Q411 583 391.5 590 Q372 597 354.5 606 Q337 615 321 622 Q305 629 287 629 Q269 629 254.5 619.5 Q240 610 235 587 L176 587 Q186 647 217.5 686 Q249 725 311 725 Q336 725 356 718 Q376 711 393.5 702 Q411 693 427 686 Q443 679 461 679 Q479 679 493.5 688.5 Q508 698 513 721 L572 721 Q567 691 557 665.5 Q547 640 530.5 622 Q514 604 491 593.5 Q468 583 437 583 Z " />
<glyph glyph-name="macron" unicode="&#xaf;" horiz-adv-x="456" d="M210 586 L228 692 L545 692 L527 586 L210 586 Z " />
<glyph glyph-name="breve" unicode="&#x2d8;" horiz-adv-x="456" d="M365 572 Q324 572 294.5 582.5 Q265 593 246 611.5 Q227 630 218 654.5 Q209 679 209 707 Q209 724 212 742 L308 742 Q307 737 307 727 Q307 703 323.5 684.5 Q340 666 381 666 Q427 666 452 689.5 Q477 713 482 742 L578 742 Q572 708 555.5 677.5 Q539 647 512.5 623.5 Q486 600 449 586 Q412 572 365 572 Z " />
<glyph glyph-name="dotaccent" unicode="&#x2d9;" horiz-adv-x="456" d="M365 581 Q339 581 322.5 598.5 Q306 616 306 642 Q306 660 313 675.5 Q320 691 332 702.5 Q344 714 359 720.5 Q374 727 391 727 Q417 727 433.5 709.5 Q450 692 450 666 Q450 648 443 632.5 Q436 617 424 605.5 Q412 594 396.5 587.5 Q381 581 365 581 Z " />
<glyph glyph-name="ring" unicode="&#x2da;" horiz-adv-x="456" d="M344 525 Q321 525 301.5 533.5 Q282 542 268 557 Q254 572 246.5 591.5 Q239 611 239 634 Q239 665 251.5 692 Q264 719 285 739 Q306 759 333 770.5 Q360 782 389 782 Q411 782 430 773.5 Q449 765 463 750 Q477 735 484.5 715.5 Q492 696 492 674 Q492 643 479.5 616 Q467 589 446 568.5 Q425 548 398.5 536.5 Q372 525 344 525 Z M359 614 Q376 614 390 627.5 Q404 641 404 661 Q404 675 395.5 684.5 Q387 694 373 694 Q355 694 341.5 680.5 Q328 667 328 647 Q328 633 336.5 623.5 Q345 614 359 614 Z " />
<glyph glyph-name="cedilla" unicode="&#xb8;" horiz-adv-x="456" d="M172 -244 Q131 -244 108.5 -230.5 Q86 -217 74 -197 L136 -155 Q141 -163 149.5 -168.5 Q158 -174 172 -174 Q197 -174 211.5 -161.5 Q226 -149 226 -129 Q226 -114 215.5 -105 Q205 -96 185 -96 Q163 -96 141 -110 L120 -77 L206 10 L273 10 L229 -46 Q279 -46 301.5 -67.5 Q324 -89 324 -121 Q324 -173 283.5 -208.5 Q243 -244 172 -244 Z " />
<glyph glyph-name="hungarumlaut" unicode="&#x2dd;" horiz-adv-x="456" d="M246 576 L125 576 L288 732 L444 732 L246 576 Z M457 576 L336 576 L499 732 L571 732 L655 732 L457 576 Z " />
<glyph glyph-name="ogonek" unicode="&#x2db;" horiz-adv-x="456" d="M187 -244 Q139 -244 112 -219.5 Q85 -195 85 -154 Q85 -97 128 -55 Q171 -13 245 10 L331 10 Q292 -5 265 -23.5 Q238 -42 221.5 -61.5 Q205 -81 197.5 -100.5 Q190 -120 190 -136 Q190 -153 198 -161 Q206 -169 220 -169 Q233 -169 243 -163.5 Q253 -158 261 -150 L311 -193 Q293 -210 263.5 -227 Q234 -244 187 -244 Z " />
<glyph glyph-name="caron" unicode="&#x2c7;" horiz-adv-x="456" d="M423 576 L303 576 L195 732 L310 732 L379 663 L471 732 L586 732 L423 576 Z " />
<glyph glyph-name="currency" unicode="&#xa4;" horiz-adv-x="624" d="M327 85 Q261 85 214 114 L136 44 L60 141 L143 214 Q139 228 137 248 Q135 268 135 282 Q135 334 149 374 Q163 414 187 452 L128 527 L234 621 L289 551 Q318 565 348.5 573 Q379 581 414 581 Q446 581 475 573.5 Q504 566 526 551 L604 621 L681 524 L598 451 Q601 437 603 415.5 Q605 394 605 377 Q605 335 593 293.5 Q581 252 554 211 L613 138 L506 44 L450 115 Q422 101 390.5 93 Q359 85 327 85 Z M349 212 Q376 212 399 223 Q422 234 439 253.5 Q456 273 466 299.5 Q476 326 476 357 Q476 399 454 426.5 Q432 454 392 454 Q366 454 342.5 443 Q319 432 302 412.5 Q285 393 275 366.5 Q265 340 265 309 Q265 267 287.5 239.5 Q310 212 349 212 Z " />
<glyph glyph-name="uni00AD" unicode="&#xad;" horiz-adv-x="396" d="M113 233 L135 358 L387 358 L365 233 L113 233 Z " />
<glyph glyph-name="Amacron" unicode="&#x100;" horiz-adv-x="712" d="M543 0 L517 145 L258 145 L180 0 L35 0 L415 700 L548 700 L682 0 L543 0 Z M461 463 Q460 468 459 475.5 Q458 483 456.5 491.5 Q455 500 453.5 507.5 Q452 515 452 519 Q448 510 439.5 492.5 Q431 475 426 465 L321 268 L496 268 L461 463 Z M339 776 L357 882 L674 882 L656 776 L339 776 Z " />
<glyph glyph-name="amacron" unicode="&#x101;" horiz-adv-x="536" d="M350 0 L358 40 Q338 19 301.5 3.5 Q265 -12 222 -12 Q189 -12 160.5 -2 Q132 8 110.5 27.5 Q89 47 76.5 74.5 Q64 102 64 137 Q64 181 80.5 216 Q97 251 127 275.5 Q157 300 199 313 Q241 326 292 326 Q323 326 352 317.5 Q381 309 402 296 L406 316 Q410 335 410 348 Q410 380 389 394.5 Q368 409 334 409 Q292 409 250.5 395 Q209 381 173 358 L154 463 Q193 488 242.5 505.5 Q292 523 355 523 Q380 523 411.5 516.5 Q443 510 471 492 Q499 474 518 443 Q537 412 537 364 Q537 353 535 337.5 Q533 322 530 304 L477 0 L350 0 Z M258 102 Q298 102 326 114.5 Q354 127 375 144 L385 198 Q368 206 344 211 Q320 216 290 216 Q272 216 254 212.5 Q236 209 222.5 200.5 Q209 192 200.5 179.5 Q192 167 192 149 Q192 128 209.5 115 Q227 102 258 102 Z M223 586 L241 692 L558 692 L540 586 L223 586 Z " />
<glyph glyph-name="Abreve" unicode="&#x102;" horiz-adv-x="712" d="M543 0 L517 145 L258 145 L180 0 L35 0 L415 700 L548 700 L682 0 L543 0 Z M461 463 Q460 468 459 475.5 Q458 483 456.5 491.5 Q455 500 453.5 507.5 Q452 515 452 519 Q448 510 439.5 492.5 Q431 475 426 465 L321 268 L496 268 L461 463 Z M504 762 Q463 762 433.5 772.5 Q404 783 385 801.5 Q366 820 357 844.5 Q348 869 348 897 Q348 914 351 932 L447 932 Q446 927 446 917 Q446 893 462.5 874.5 Q479 856 520 856 Q566 856 591 879.5 Q616 903 621 932 L717 932 Q711 898 694.5 867.5 Q678 837 651.5 813.5 Q625 790 588 776 Q551 762 504 762 Z " />
<glyph glyph-name="abreve" unicode="&#x103;" horiz-adv-x="536" d="M350 0 L358 40 Q338 19 301.5 3.5 Q265 -12 222 -12 Q189 -12 160.5 -2 Q132 8 110.5 27.5 Q89 47 76.5 74.5 Q64 102 64 137 Q64 181 80.5 216 Q97 251 127 275.5 Q157 300 199 313 Q241 326 292 326 Q323 326 352 317.5 Q381 309 402 296 L406 316 Q410 335 410 348 Q410 380 389 394.5 Q368 409 334 409 Q292 409 250.5 395 Q209 381 173 358 L154 463 Q193 488 242.5 505.5 Q292 523 355 523 Q380 523 411.5 516.5 Q443 510 471 492 Q499 474 518 443 Q537 412 537 364 Q537 353 535 337.5 Q533 322 530 304 L477 0 L350 0 Z M258 102 Q298 102 326 114.5 Q354 127 375 144 L385 198 Q368 206 344 211 Q320 216 290 216 Q272 216 254 212.5 Q236 209 222.5 200.5 Q209 192 200.5 179.5 Q192 167 192 149 Q192 128 209.5 115 Q227 102 258 102 Z M378 572 Q337 572 307.5 582.5 Q278 593 259 611.5 Q240 630 231 654.5 Q222 679 222 707 Q222 724 225 742 L321 742 Q320 737 320 727 Q320 703 336.5 684.5 Q353 666 394 666 Q440 666 465 689.5 Q490 713 495 742 L591 742 Q585 708 568.5 677.5 Q552 647 525.5 623.5 Q499 600 462 586 Q425 572 378 572 Z " />
<glyph glyph-name="Aogonek" unicode="&#x104;" horiz-adv-x="712" d="M513 -244 Q465 -244 438 -219.5 Q411 -195 411 -154 Q411 -103 446 -64.5 Q481 -26 543 0 L517 145 L258 145 L180 0 L35 0 L415 700 L548 700 L682 0 Q648 0 618 -12.5 Q588 -25 565.5 -44.5 Q543 -64 529.5 -88.5 Q516 -113 516 -136 Q516 -153 524 -161 Q532 -169 545 -169 Q559 -169 569 -163.5 Q579 -158 587 -150 L636 -193 Q619 -210 589 -227 Q559 -244 513 -244 Z M461 463 Q460 468 459 475.5 Q458 483 456.5 491.5 Q455 500 453.5 507.5 Q452 515 452 519 Q448 510 439.5 492.5 Q431 475 426 465 L321 268 L496 268 L461 463 Z " />
<glyph glyph-name="aogonek" unicode="&#x105;" horiz-adv-x="536" d="M319 -244 Q271 -244 244 -219.5 Q217 -195 217 -154 Q217 -102 252.5 -64 Q288 -26 350 0 L358 40 Q338 19 301.5 3.5 Q265 -12 222 -12 Q189 -12 160.5 -2 Q132 8 110.5 27.5 Q89 47 76.5 74.5 Q64 102 64 137 Q64 181 80.5 216 Q97 251 127 275.5 Q157 300 199 313 Q241 326 292 326 Q323 326 352 317.5 Q381 309 402 296 L406 316 Q410 335 410 348 Q410 380 389 394.5 Q368 409 334 409 Q292 409 250.5 395 Q209 381 173 358 L154 463 Q193 488 242.5 505.5 Q292 523 355 523 Q380 523 411.5 516.5 Q443 510 471 492 Q499 474 518 443 Q537 412 537 364 Q537 353 535 337.5 Q533 322 530 304 L477 0 Q451 -7 424 -19.5 Q397 -32 374 -49.5 Q351 -67 336.5 -89 Q322 -111 322 -136 Q322 -153 330 -161 Q338 -169 351 -169 Q364 -169 374.5 -163.5 Q385 -158 393 -150 L442 -193 Q425 -210 395 -227 Q365 -244 319 -244 Z M258 102 Q298 102 326 114.5 Q354 127 375 144 L385 198 Q368 206 344 211 Q320 216 290 216 Q272 216 254 212.5 Q236 209 222.5 200.5 Q209 192 200.5 179.5 Q192 167 192 149 Q192 128 209.5 115 Q227 102 258 102 Z " />
<glyph glyph-name="Cacute" unicode="&#x106;" horiz-adv-x="637" d="M360 -11 Q298 -11 252 12.5 Q206 36 176 76 Q146 116 131.5 169.5 Q117 223 117 283 Q117 366 140.5 443.5 Q164 521 208.5 580.5 Q253 640 317 675.5 Q381 711 461 711 Q510 711 548 697.5 Q586 684 613.5 661.5 Q641 639 659 610.5 Q677 582 686 553 L565 501 Q548 541 517.5 561 Q487 581 455 581 Q406 581 369 553.5 Q332 526 307 483.5 Q282 441 269.5 390 Q257 339 257 291 Q257 260 263.5 230 Q270 200 283.5 176 Q297 152 318.5 137 Q340 122 371 122 Q396 122 417.5 129.5 Q439 137 456.5 149.5 Q474 162 487 177.5 Q500 193 509 209 L628 158 Q527 -11 360 -11 Z M518 766 L397 766 L560 922 L721 922 L518 766 Z " />
<glyph glyph-name="cacute" unicode="&#x107;" horiz-adv-x="525" d="M286 -12 Q238 -12 200.5 5 Q163 22 137.5 52.5 Q112 83 98.5 124.5 Q85 166 85 215 Q85 278 104 334 Q123 390 158 432 Q193 474 242.5 498.5 Q292 523 354 523 Q428 523 478 481 Q528 439 542 373 L416 332 Q410 361 391.5 379.5 Q373 398 338 398 Q312 398 290 384.5 Q268 371 251.5 348 Q235 325 225.5 293.5 Q216 262 216 225 Q216 179 235.5 146 Q255 113 294 113 Q320 113 347 129 Q374 145 391 187 L507 149 Q480 73 420.5 30.5 Q361 -12 286 -12 Z M421 576 L300 576 L463 732 L624 732 L421 576 Z " />
<glyph glyph-name="Ccircumflex" unicode="&#x108;" horiz-adv-x="637" d="M360 -11 Q298 -11 252 12.5 Q206 36 176 76 Q146 116 131.5 169.5 Q117 223 117 283 Q117 366 140.5 443.5 Q164 521 208.5 580.5 Q253 640 317 675.5 Q381 711 461 711 Q510 711 548 697.5 Q586 684 613.5 661.5 Q641 639 659 610.5 Q677 582 686 553 L565 501 Q548 541 517.5 561 Q487 581 455 581 Q406 581 369 553.5 Q332 526 307 483.5 Q282 441 269.5 390 Q257 339 257 291 Q257 260 263.5 230 Q270 200 283.5 176 Q297 152 318.5 137 Q340 122 371 122 Q396 122 417.5 129.5 Q439 137 456.5 149.5 Q474 162 487 177.5 Q500 193 509 209 L628 158 Q527 -11 360 -11 Z M570 766 L502 835 L409 766 L294 766 L457 922 L577 922 L685 766 L570 766 Z " />
<glyph glyph-name="ccircumflex" unicode="&#x109;" horiz-adv-x="525" d="M286 -12 Q238 -12 200.5 5 Q163 22 137.5 52.5 Q112 83 98.5 124.5 Q85 166 85 215 Q85 278 104 334 Q123 390 158 432 Q193 474 242.5 498.5 Q292 523 354 523 Q428 523 478 481 Q528 439 542 373 L416 332 Q410 361 391.5 379.5 Q373 398 338 398 Q312 398 290 384.5 Q268 371 251.5 348 Q235 325 225.5 293.5 Q216 262 216 225 Q216 179 235.5 146 Q255 113 294 113 Q320 113 347 129 Q374 145 391 187 L507 149 Q480 73 420.5 30.5 Q361 -12 286 -12 Z M458 576 L390 645 L297 576 L182 576 L345 732 L465 732 L573 576 L458 576 Z " />
<glyph glyph-name="Cdotaccent" unicode="&#x10a;" horiz-adv-x="637" d="M360 -11 Q298 -11 252 12.5 Q206 36 176 76 Q146 116 131.5 169.5 Q117 223 117 283 Q117 366 140.5 443.5 Q164 521 208.5 580.5 Q253 640 317 675.5 Q381 711 461 711 Q510 711 548 697.5 Q586 684 613.5 661.5 Q641 639 659 610.5 Q677 582 686 553 L565 501 Q548 541 517.5 561 Q487 581 455 581 Q406 581 369 553.5 Q332 526 307 483.5 Q282 441 269.5 390 Q257 339 257 291 Q257 260 263.5 230 Q270 200 283.5 176 Q297 152 318.5 137 Q340 122 371 122 Q396 122 417.5 129.5 Q439 137 456.5 149.5 Q474 162 487 177.5 Q500 193 509 209 L628 158 Q527 -11 360 -11 Z M492 771 Q466 771 449.5 788.5 Q433 806 433 832 Q433 850 440 865.5 Q447 881 459 892.5 Q471 904 486 910.5 Q501 917 518 917 Q544 917 560.5 899.5 Q577 882 577 856 Q577 838 570 822.5 Q563 807 551 795.5 Q539 784 523.5 777.5 Q508 771 492 771 Z " />
<glyph glyph-name="cdotaccent" unicode="&#x10b;" horiz-adv-x="525" d="M286 -12 Q238 -12 200.5 5 Q163 22 137.5 52.5 Q112 83 98.5 124.5 Q85 166 85 215 Q85 278 104 334 Q123 390 158 432 Q193 474 242.5 498.5 Q292 523 354 523 Q428 523 478 481 Q528 439 542 373 L416 332 Q410 361 391.5 379.5 Q373 398 338 398 Q312 398 290 384.5 Q268 371 251.5 348 Q235 325 225.5 293.5 Q216 262 216 225 Q216 179 235.5 146 Q255 113 294 113 Q320 113 347 129 Q374 145 391 187 L507 149 Q480 73 420.5 30.5 Q361 -12 286 -12 Z M415 581 Q389 581 372.5 598.5 Q356 616 356 642 Q356 660 363 675.5 Q370 691 382 702.5 Q394 714 409 720.5 Q424 727 441 727 Q467 727 483.5 709.5 Q500 692 500 666 Q500 648 493 632.5 Q486 617 474 605.5 Q462 594 446.5 587.5 Q431 581 415 581 Z " />
<glyph glyph-name="Ccaron" unicode="&#x10c;" horiz-adv-x="637" d="M360 -11 Q298 -11 252 12.5 Q206 36 176 76 Q146 116 131.5 169.5 Q117 223 117 283 Q117 366 140.5 443.5 Q164 521 208.5 580.5 Q253 640 317 675.5 Q381 711 461 711 Q510 711 548 697.5 Q586 684 613.5 661.5 Q641 639 659 610.5 Q677 582 686 553 L565 501 Q548 541 517.5 561 Q487 581 455 581 Q406 581 369 553.5 Q332 526 307 483.5 Q282 441 269.5 390 Q257 339 257 291 Q257 260 263.5 230 Q270 200 283.5 176 Q297 152 318.5 137 Q340 122 371 122 Q396 122 417.5 129.5 Q439 137 456.5 149.5 Q474 162 487 177.5 Q500 193 509 209 L628 158 Q527 -11 360 -11 Z M550 766 L430 766 L322 922 L437 922 L506 853 L598 922 L713 922 L550 766 Z " />
<glyph glyph-name="ccaron" unicode="&#x10d;" horiz-adv-x="525" d="M286 -12 Q238 -12 200.5 5 Q163 22 137.5 52.5 Q112 83 98.5 124.5 Q85 166 85 215 Q85 278 104 334 Q123 390 158 432 Q193 474 242.5 498.5 Q292 523 354 523 Q428 523 478 481 Q528 439 542 373 L416 332 Q410 361 391.5 379.5 Q373 398 338 398 Q312 398 290 384.5 Q268 371 251.5 348 Q235 325 225.5 293.5 Q216 262 216 225 Q216 179 235.5 146 Q255 113 294 113 Q320 113 347 129 Q374 145 391 187 L507 149 Q480 73 420.5 30.5 Q361 -12 286 -12 Z M428 576 L308 576 L200 732 L315 732 L384 663 L476 732 L591 732 L428 576 Z " />
<glyph glyph-name="Dcaron" unicode="&#x10e;" horiz-adv-x="700" d="M203 700 L420 700 Q493 700 546.5 674.5 Q600 649 635 605.5 Q670 562 687 504 Q704 446 704 381 Q704 315 683.5 247 Q663 179 618 124 Q573 69 502.5 34.5 Q432 0 333 0 L80 0 L203 700 Z M332 128 Q390 128 432.5 150 Q475 172 503 207 Q531 242 544.5 286.5 Q558 331 558 375 Q558 418 548.5 454 Q539 490 520 516.5 Q501 543 471.5 557.5 Q442 572 402 572 L313 572 L235 128 L332 128 Z M512 766 L392 766 L284 922 L399 922 L468 853 L560 922 L675 922 L512 766 Z " />
<glyph glyph-name="dcaron" unicode="&#x10f;" horiz-adv-x="753" d="M249 -12 Q211 -12 180.5 3 Q150 18 129 46 Q108 74 97 112.5 Q86 151 86 198 Q86 276 107 336.5 Q128 397 163.5 438.5 Q199 480 244.5 501.5 Q290 523 339 523 Q382 523 405.5 507.5 Q429 492 440 474 L476 679 L613 722 L486 0 L360 0 L368 46 Q348 18 317 3 Q286 -12 249 -12 Z M294 113 Q320 113 345 124.5 Q370 136 385 155 L420 355 Q412 372 394 385 Q376 398 346 398 Q314 398 289.5 383.5 Q265 369 248 344 Q231 319 222.5 286 Q214 253 214 216 Q214 170 233 141.5 Q252 113 294 113 Z M844 712 L842 704 Q828 620 788 560.5 Q748 501 693 453 L659 485 Q668 499 677.5 522.5 Q687 546 696 576 Q705 606 713.5 641 Q722 676 728 712 L844 712 Z " />
<glyph glyph-name="Dcroat" unicode="&#x110;" horiz-adv-x="704" d="M135 287 L76 287 L98 413 L157 413 L207 700 L424 700 Q497 700 550.5 674.5 Q604 649 639 605.5 Q674 562 691 504 Q708 446 708 381 Q708 315 687.5 247 Q667 179 622 124 Q577 69 506.5 34.5 Q436 0 337 0 L84 0 L135 287 Z M336 128 Q394 128 436.5 150 Q479 172 507 207 Q535 242 548.5 286.5 Q562 331 562 375 Q562 418 552.5 454 Q543 490 524 516.5 Q505 543 475.5 557.5 Q446 572 406 572 L317 572 L289 413 L426 413 L404 287 L267 287 L239 128 L336 128 Z " />
<glyph glyph-name="dcroat" unicode="&#x111;" horiz-adv-x="553" d="M576 537 L481 0 L356 0 L363 37 Q343 14 314.5 1 Q286 -12 249 -12 Q171 -12 127.5 40.5 Q84 93 84 182 Q84 251 104.5 308 Q125 365 160 405.5 Q195 446 241 468.5 Q287 491 339 491 Q375 491 398.5 477.5 Q422 464 434 442 L451 537 L340 537 L357 637 L468 637 L473 663 L608 722 L593 637 L655 637 L638 537 L576 537 Z M291 113 Q321 113 343.5 123.5 Q366 134 383 154 L413 324 Q407 339 387.5 352.5 Q368 366 336 366 Q307 366 284.5 354 Q262 342 245.5 321.5 Q229 301 220.5 272.5 Q212 244 212 211 Q212 170 231.5 141.5 Q251 113 291 113 Z " />
<glyph glyph-name="Emacron" unicode="&#x112;" horiz-adv-x="607" d="M80 0 L203 700 L662 700 L640 572 L318 572 L292 425 L479 425 L456 297 L269 297 L240 128 L582 128 L559 0 L80 0 Z M309 776 L327 882 L644 882 L626 776 L309 776 Z " />
<glyph glyph-name="emacron" unicode="&#x113;" horiz-adv-x="538" d="M289 -12 Q241 -12 202 2 Q163 16 135 43.5 Q107 71 91.5 111.5 Q76 152 76 206 Q76 265 95 322 Q114 379 150 423.5 Q186 468 239 495.5 Q292 523 361 523 Q456 523 504 469 Q552 415 552 318 Q552 259 533 205 L207 205 L207 195 Q207 172 215 155 Q223 138 236.5 126 Q250 114 268 108 Q286 102 305 102 Q336 102 367 117 Q398 132 420 155 L486 71 Q448 32 401.5 10 Q355 -12 289 -12 Z M342 409 Q298 409 268 386 Q238 363 226 315 L428 315 Q428 322 427.5 328 Q427 334 426 339 Q419 376 396.5 392.5 Q374 409 342 409 Z M228 586 L246 692 L563 692 L545 586 L228 586 Z " />
<glyph glyph-name="Ebreve" unicode="&#x114;" horiz-adv-x="607" d="M80 0 L203 700 L662 700 L640 572 L318 572 L292 425 L479 425 L456 297 L269 297 L240 128 L582 128 L559 0 L80 0 Z M454 762 Q413 762 383.5 772.5 Q354 783 335 801.5 Q316 820 307 844.5 Q298 869 298 897 Q298 914 301 932 L397 932 Q396 927 396 917 Q396 893 412.5 874.5 Q429 856 470 856 Q516 856 541 879.5 Q566 903 571 932 L667 932 Q661 898 644.5 867.5 Q628 837 601.5 813.5 Q575 790 538 776 Q501 762 454 762 Z " />
<glyph glyph-name="ebreve" unicode="&#x115;" horiz-adv-x="538" d="M289 -12 Q241 -12 202 2 Q163 16 135 43.5 Q107 71 91.5 111.5 Q76 152 76 206 Q76 265 95 322 Q114 379 150 423.5 Q186 468 239 495.5 Q292 523 361 523 Q456 523 504 469 Q552 415 552 318 Q552 259 533 205 L207 205 L207 195 Q207 172 215 155 Q223 138 236.5 126 Q250 114 268 108 Q286 102 305 102 Q336 102 367 117 Q398 132 420 155 L486 71 Q448 32 401.5 10 Q355 -12 289 -12 Z M342 409 Q298 409 268 386 Q238 363 226 315 L428 315 Q428 322 427.5 328 Q427 334 426 339 Q419 376 396.5 392.5 Q374 409 342 409 Z M384 572 Q343 572 313.5 582.5 Q284 593 265 611.5 Q246 630 237 654.5 Q228 679 228 707 Q228 724 231 742 L327 742 Q326 737 326 727 Q326 703 342.5 684.5 Q359 666 400 666 Q446 666 471 689.5 Q496 713 501 742 L597 742 Q591 708 574.5 677.5 Q558 647 531.5 623.5 Q505 600 468 586 Q431 572 384 572 Z " />
<glyph glyph-name="Edotaccent" unicode="&#x116;" horiz-adv-x="607" d="M80 0 L203 700 L662 700 L640 572 L318 572 L292 425 L479 425 L456 297 L269 297 L240 128 L582 128 L559 0 L80 0 Z M474 771 Q448 771 431.5 788.5 Q415 806 415 832 Q415 850 422 865.5 Q429 881 441 892.5 Q453 904 468 910.5 Q483 917 500 917 Q526 917 542.5 899.5 Q559 882 559 856 Q559 838 552 822.5 Q545 807 533 795.5 Q521 784 505.5 777.5 Q490 771 474 771 Z " />
<glyph glyph-name="edotaccent" unicode="&#x117;" horiz-adv-x="538" d="M289 -12 Q241 -12 202 2 Q163 16 135 43.5 Q107 71 91.5 111.5 Q76 152 76 206 Q76 265 95 322 Q114 379 150 423.5 Q186 468 239 495.5 Q292 523 361 523 Q456 523 504 469 Q552 415 552 318 Q552 259 533 205 L207 205 L207 195 Q207 172 215 155 Q223 138 236.5 126 Q250 114 268 108 Q286 102 305 102 Q336 102 367 117 Q398 132 420 155 L486 71 Q448 32 401.5 10 Q355 -12 289 -12 Z M342 409 Q298 409 268 386 Q238 363 226 315 L428 315 Q428 322 427.5 328 Q427 334 426 339 Q419 376 396.5 392.5 Q374 409 342 409 Z M388 581 Q362 581 345.5 598.5 Q329 616 329 642 Q329 660 336 675.5 Q343 691 355 702.5 Q367 714 382 720.5 Q397 727 414 727 Q440 727 456.5 709.5 Q473 692 473 666 Q473 648 466 632.5 Q459 617 447 605.5 Q435 594 419.5 587.5 Q404 581 388 581 Z " />
<glyph glyph-name="Eogonek" unicode="&#x118;" horiz-adv-x="607" d="M537 0 Q504 0 474.5 -13 Q445 -26 423.5 -46.5 Q402 -67 389.5 -91 Q377 -115 377 -136 Q377 -153 385 -161 Q393 -169 407 -169 Q420 -169 430 -163.5 Q440 -158 448 -150 L498 -193 Q480 -210 450.5 -227 Q421 -244 374 -244 Q326 -244 299 -219.5 Q272 -195 272 -154 Q272 -103 307.5 -64 Q343 -25 404 0 L80 0 L203 700 L662 700 L640 572 L311 572 L285 425 L479 425 L456 297 L262 297 L233 128 L582 128 L559 0 L537 0 Z " />
<glyph glyph-name="eogonek" unicode="&#x119;" horiz-adv-x="538" d="M486 71 Q454 36 414 15.5 Q374 -5 339 -24.5 Q304 -44 280.5 -68.5 Q257 -93 257 -136 Q257 -153 265 -161 Q273 -169 286 -169 Q300 -169 310 -163.5 Q320 -158 328 -150 L377 -193 Q360 -210 330.5 -227 Q301 -244 254 -244 Q206 -244 179 -219.5 Q152 -195 152 -154 Q152 -109 180.5 -73 Q209 -37 264 -11 Q179 -4 127.5 51 Q76 106 76 206 Q76 265 95 322 Q114 379 150 423.5 Q186 468 239 495.5 Q292 523 361 523 Q456 523 504 469 Q552 415 552 318 Q552 259 533 205 L207 205 L207 196 Q207 173 215 155.5 Q223 138 236.5 126 Q250 114 268 108 Q286 102 305 102 Q336 102 367 117 Q398 132 420 155 L486 71 Z M342 409 Q298 409 268 386 Q238 363 226 315 L428 315 Q428 322 427.5 328 Q427 334 426 339 Q419 376 396.5 392.5 Q374 409 342 409 Z " />
<glyph glyph-name="Ecaron" unicode="&#x11a;" horiz-adv-x="607" d="M80 0 L203 700 L662 700 L640 572 L318 572 L292 425 L479 425 L456 297 L269 297 L240 128 L582 128 L559 0 L80 0 Z M532 766 L412 766 L304 922 L419 922 L488 853 L580 922 L695 922 L532 766 Z " />
<glyph glyph-name="ecaron" unicode="&#x11b;" horiz-adv-x="538" d="M289 -12 Q241 -12 202 2 Q163 16 135 43.5 Q107 71 91.5 111.5 Q76 152 76 206 Q76 265 95 322 Q114 379 150 423.5 Q186 468 239 495.5 Q292 523 361 523 Q456 523 504 469 Q552 415 552 318 Q552 259 533 205 L207 205 L207 195 Q207 172 215 155 Q223 138 236.5 126 Q250 114 268 108 Q286 102 305 102 Q336 102 367 117 Q398 132 420 155 L486 71 Q448 32 401.5 10 Q355 -12 289 -12 Z M342 409 Q298 409 268 386 Q238 363 226 315 L428 315 Q428 322 427.5 328 Q427 334 426 339 Q419 376 396.5 392.5 Q374 409 342 409 Z M441 576 L321 576 L213 732 L328 732 L397 663 L489 732 L604 732 L441 576 Z " />
<glyph glyph-name="Gcircumflex" unicode="&#x11c;" horiz-adv-x="675" d="M374 -12 Q304 -12 255 13.5 Q206 39 175.5 81.5 Q145 124 131 180.5 Q117 237 117 299 Q117 379 139.5 453.5 Q162 528 206 585.5 Q250 643 314 677.5 Q378 712 462 712 Q513 712 551 698 Q589 684 617 662 Q645 640 664 613 Q683 586 695 560 L575 495 Q558 530 528.5 556 Q499 582 451 582 Q403 582 365.5 558 Q328 534 302.5 494 Q277 454 264 403.5 Q251 353 251 300 Q251 262 258 228.5 Q265 195 280.5 170.5 Q296 146 321 132 Q346 118 381 118 Q436 118 473 148.5 Q510 179 523 229 L526 241 L403 241 L426 362 L692 362 L689 342 Q674 240 643 172 Q612 104 570 63 Q528 22 478 5 Q428 -12 374 -12 Z M580 766 L512 835 L419 766 L304 766 L467 922 L587 922 L695 766 L580 766 Z " />
<glyph glyph-name="gcircumflex" unicode="&#x11d;" horiz-adv-x="553" d="M164 -92 Q256 -86 301.5 -61 Q347 -36 358 13 L363 37 Q344 14 315.5 1 Q287 -12 249 -12 Q211 -12 181 3 Q151 18 130 45.5 Q109 73 97.5 111.5 Q86 150 86 198 Q86 271 106 331 Q126 391 160.5 433.5 Q195 476 241 499.5 Q287 523 339 523 Q371 523 398 509.5 Q425 496 440 473 L446 511 L578 511 L491 28 Q480 -33 457 -74.5 Q434 -116 399 -142.5 Q364 -169 316.5 -182 Q269 -195 209 -200 L164 -92 Z M291 113 Q321 113 343.5 123.5 Q366 134 383 154 L419 356 Q411 369 392.5 383.5 Q374 398 341 398 Q311 398 287.5 384 Q264 370 247.5 346 Q231 322 222.5 288.5 Q214 255 214 216 Q214 196 218.5 177 Q223 158 232.5 144 Q242 130 256.5 121.5 Q271 113 291 113 Z M468 576 L400 645 L307 576 L192 576 L355 732 L475 732 L583 576 L468 576 Z " />
<glyph glyph-name="Gbreve" unicode="&#x11e;" horiz-adv-x="675" d="M374 -12 Q304 -12 255 13.5 Q206 39 175.5 81.5 Q145 124 131 180.5 Q117 237 117 299 Q117 379 139.5 453.5 Q162 528 206 585.5 Q250 643 314 677.5 Q378 712 462 712 Q513 712 551 698 Q589 684 617 662 Q645 640 664 613 Q683 586 695 560 L575 495 Q558 530 528.5 556 Q499 582 451 582 Q403 582 365.5 558 Q328 534 302.5 494 Q277 454 264 403.5 Q251 353 251 300 Q251 262 258 228.5 Q265 195 280.5 170.5 Q296 146 321 132 Q346 118 381 118 Q436 118 473 148.5 Q510 179 523 229 L526 241 L403 241 L426 362 L692 362 L689 342 Q674 240 643 172 Q612 104 570 63 Q528 22 478 5 Q428 -12 374 -12 Z M482 762 Q441 762 411.5 772.5 Q382 783 363 801.5 Q344 820 335 844.5 Q326 869 326 897 Q326 914 329 932 L425 932 Q424 927 424 917 Q424 893 440.5 874.5 Q457 856 498 856 Q544 856 569 879.5 Q594 903 599 932 L695 932 Q689 898 672.5 867.5 Q656 837 629.5 813.5 Q603 790 566 776 Q529 762 482 762 Z " />
<glyph glyph-name="gbreve" unicode="&#x11f;" horiz-adv-x="553" d="M164 -92 Q256 -86 301.5 -61 Q347 -36 358 13 L363 37 Q344 14 315.5 1 Q287 -12 249 -12 Q211 -12 181 3 Q151 18 130 45.5 Q109 73 97.5 111.5 Q86 150 86 198 Q86 271 106 331 Q126 391 160.5 433.5 Q195 476 241 499.5 Q287 523 339 523 Q371 523 398 509.5 Q425 496 440 473 L446 511 L578 511 L491 28 Q480 -33 457 -74.5 Q434 -116 399 -142.5 Q364 -169 316.5 -182 Q269 -195 209 -200 L164 -92 Z M291 113 Q321 113 343.5 123.5 Q366 134 383 154 L419 356 Q411 369 392.5 383.5 Q374 398 341 398 Q311 398 287.5 384 Q264 370 247.5 346 Q231 322 222.5 288.5 Q214 255 214 216 Q214 196 218.5 177 Q223 158 232.5 144 Q242 130 256.5 121.5 Q271 113 291 113 Z M390 572 Q349 572 319.5 582.5 Q290 593 271 611.5 Q252 630 243 654.5 Q234 679 234 707 Q234 724 237 742 L333 742 Q332 737 332 727 Q332 703 348.5 684.5 Q365 666 406 666 Q452 666 477 689.5 Q502 713 507 742 L603 742 Q597 708 580.5 677.5 Q564 647 537.5 623.5 Q511 600 474 586 Q437 572 390 572 Z " />
<glyph glyph-name="Gdotaccent" unicode="&#x120;" horiz-adv-x="675" d="M374 -12 Q304 -12 255 13.5 Q206 39 175.5 81.5 Q145 124 131 180.5 Q117 237 117 299 Q117 379 139.5 453.5 Q162 528 206 585.5 Q250 643 314 677.5 Q378 712 462 712 Q513 712 551 698 Q589 684 617 662 Q645 640 664 613 Q683 586 695 560 L575 495 Q558 530 528.5 556 Q499 582 451 582 Q403 582 365.5 558 Q328 534 302.5 494 Q277 454 264 403.5 Q251 353 251 300 Q251 262 258 228.5 Q265 195 280.5 170.5 Q296 146 321 132 Q346 118 381 118 Q436 118 473 148.5 Q510 179 523 229 L526 241 L403 241 L426 362 L692 362 L689 342 Q674 240 643 172 Q612 104 570 63 Q528 22 478 5 Q428 -12 374 -12 Z M504 771 Q478 771 461.5 788.5 Q445 806 445 832 Q445 850 452 865.5 Q459 881 471 892.5 Q483 904 498 910.5 Q513 917 530 917 Q556 917 572.5 899.5 Q589 882 589 856 Q589 838 582 822.5 Q575 807 563 795.5 Q551 784 535.5 777.5 Q520 771 504 771 Z " />
<glyph glyph-name="gdotaccent" unicode="&#x121;" horiz-adv-x="553" d="M164 -92 Q256 -86 301.5 -61 Q347 -36 358 13 L363 37 Q344 14 315.5 1 Q287 -12 249 -12 Q211 -12 181 3 Q151 18 130 45.5 Q109 73 97.5 111.5 Q86 150 86 198 Q86 271 106 331 Q126 391 160.5 433.5 Q195 476 241 499.5 Q287 523 339 523 Q371 523 398 509.5 Q425 496 440 473 L446 511 L578 511 L491 28 Q480 -33 457 -74.5 Q434 -116 399 -142.5 Q364 -169 316.5 -182 Q269 -195 209 -200 L164 -92 Z M291 113 Q321 113 343.5 123.5 Q366 134 383 154 L419 356 Q411 369 392.5 383.5 Q374 398 341 398 Q311 398 287.5 384 Q264 370 247.5 346 Q231 322 222.5 288.5 Q214 255 214 216 Q214 196 218.5 177 Q223 158 232.5 144 Q242 130 256.5 121.5 Q271 113 291 113 Z M395 581 Q369 581 352.5 598.5 Q336 616 336 642 Q336 660 343 675.5 Q350 691 362 702.5 Q374 714 389 720.5 Q404 727 421 727 Q447 727 463.5 709.5 Q480 692 480 666 Q480 648 473 632.5 Q466 617 454 605.5 Q442 594 426.5 587.5 Q411 581 395 581 Z " />
<glyph glyph-name="Gcommaaccent" unicode="&#x122;" horiz-adv-x="675" d="M374 -12 Q304 -12 255 13.5 Q206 39 175.5 81.5 Q145 124 131 180.5 Q117 237 117 299 Q117 379 139.5 453.5 Q162 528 206 585.5 Q250 643 314 677.5 Q378 712 462 712 Q513 712 551 698 Q589 684 617 662 Q645 640 664 613 Q683 586 695 560 L575 495 Q558 530 528.5 556 Q499 582 451 582 Q403 582 365.5 558 Q328 534 302.5 494 Q277 454 264 403.5 Q251 353 251 300 Q251 262 258 228.5 Q265 195 280.5 170.5 Q296 146 321 132 Q346 118 381 118 Q436 118 473 148.5 Q510 179 523 229 L526 241 L403 241 L426 362 L692 362 L689 342 Q674 240 643 172 Q612 104 570 63 Q528 22 478 5 Q428 -12 374 -12 Z M264 -252 Q282 -235 298 -217.5 Q314 -200 325 -178 Q303 -175 288 -160 Q273 -145 273 -118 Q273 -83 295 -59 Q317 -35 349 -35 Q377 -35 398 -53 Q419 -71 419 -107 Q419 -152 392.5 -195 Q366 -238 301 -281 L264 -252 Z " />
<glyph glyph-name="gcommaaccent" unicode="&#x123;" horiz-adv-x="553" d="M164 -92 Q256 -86 301.5 -61 Q347 -36 358 13 L363 37 Q344 14 315.5 1 Q287 -12 249 -12 Q211 -12 181 3 Q151 18 130 45.5 Q109 73 97.5 111.5 Q86 150 86 198 Q86 271 106 331 Q126 391 160.5 433.5 Q195 476 241 499.5 Q287 523 339 523 Q371 523 398 509.5 Q425 496 440 473 L446 511 L578 511 L491 28 Q480 -33 457 -74.5 Q434 -116 399 -142.5 Q364 -169 316.5 -182 Q269 -195 209 -200 L164 -92 Z M291 113 Q321 113 343.5 123.5 Q366 134 383 154 L419 356 Q411 369 392.5 383.5 Q374 398 341 398 Q311 398 287.5 384 Q264 370 247.5 346 Q231 322 222.5 288.5 Q214 255 214 216 Q214 196 218.5 177 Q223 158 232.5 144 Q242 130 256.5 121.5 Q271 113 291 113 Z M482 798 Q464 781 448 763.5 Q432 746 421 724 Q443 721 458 706 Q473 691 473 664 Q473 629 451 605 Q429 581 397 581 Q369 581 348 599 Q327 617 327 653 Q327 698 353.5 741 Q380 784 445 827 L482 798 Z " />
<glyph glyph-name="Hcircumflex" unicode="&#x124;" horiz-adv-x="710" d="M80 0 L203 700 L340 700 L291 424 L568 424 L617 700 L754 700 L631 0 L494 0 L546 296 L269 296 L217 0 L80 0 Z M543 766 L475 835 L382 766 L267 766 L430 922 L550 922 L658 766 L543 766 Z " />
<glyph glyph-name="hcircumflex" unicode="&#x125;" horiz-adv-x="567" d="M370 0 L420 282 Q422 292 423.5 305.5 Q425 319 425 331 Q425 401 360 401 Q344 401 327 395 Q310 389 295 376 Q280 363 268.5 342.5 Q257 322 252 294 L200 0 L72 0 L191 679 L328 722 L281 459 Q302 486 335 504.5 Q368 523 408 523 Q446 523 474 510.5 Q502 498 521 476 Q540 454 549 424.5 Q558 395 558 362 Q558 347 555.5 328 Q553 309 550 292 L498 0 L370 0 Z M493 765 L425 834 L332 765 L217 765 L380 921 L500 921 L608 765 L493 765 Z " />
<glyph glyph-name="Hbar" unicode="&#x126;" horiz-adv-x="713" d="M495 0 L547 296 L270 296 L218 0 L81 0 L168 497 L92 497 L114 625 L191 625 L204 700 L341 700 L328 625 L605 625 L618 700 L755 700 L742 625 L819 625 L797 497 L720 497 L632 0 L495 0 Z M569 424 L582 497 L305 497 L292 424 L569 424 Z " />
<glyph glyph-name="hbar" unicode="&#x127;" horiz-adv-x="561" d="M370 0 L414 252 Q416 266 417.5 280 Q419 294 419 301 Q419 336 402 353.5 Q385 371 354 371 Q320 371 288.5 345 Q257 319 247 265 L200 0 L72 0 L166 537 L112 537 L129 637 L184 637 L191 679 L328 722 L313 637 L436 637 L419 537 L295 537 L276 430 Q299 459 331 476 Q363 493 402 493 Q434 493 461.5 482.5 Q489 472 509 451.5 Q529 431 540.5 401 Q552 371 552 333 Q552 323 550.5 307 Q549 291 544 262 L498 0 L370 0 Z " />
<glyph glyph-name="Itilde" unicode="&#x128;" horiz-adv-x="296" d="M80 0 L203 700 L340 700 L217 0 L80 0 Z M353 773 Q327 773 307.5 780 Q288 787 270.5 796 Q253 805 237 812 Q221 819 203 819 Q185 819 170.5 809.5 Q156 800 151 777 L92 777 Q102 837 133.5 876 Q165 915 227 915 Q252 915 272 908 Q292 901 309.5 892 Q327 883 343 876 Q359 869 377 869 Q395 869 409.5 878.5 Q424 888 429 911 L488 911 Q483 881 473 855.5 Q463 830 446.5 812 Q430 794 407 783.5 Q384 773 353 773 Z " />
<glyph glyph-name="itilde" unicode="&#x129;" horiz-adv-x="271" d="M311 583 Q285 583 265.5 590 Q246 597 228.5 606 Q211 615 195 622 Q179 629 161 629 Q143 629 128.5 619.5 Q114 610 109 587 L50 587 Q60 647 91.5 686 Q123 725 185 725 Q210 725 230 718 Q250 711 267.5 702 Q285 693 301 686 Q317 679 335 679 Q353 679 367.5 688.5 Q382 698 387 721 L446 721 Q441 691 431 665.5 Q421 640 404.5 622 Q388 604 365 593.5 Q342 583 311 583 Z M72 0 L162 511 L291 511 L201 0 L72 0 Z " />
<glyph glyph-name="Imacron" unicode="&#x12a;" horiz-adv-x="296" d="M80 0 L203 700 L340 700 L217 0 L80 0 Z M126 776 L144 882 L461 882 L443 776 L126 776 Z " />
<glyph glyph-name="imacron" unicode="&#x12b;" horiz-adv-x="271" d="M80 586 L98 692 L415 692 L397 586 L80 586 Z M72 0 L162 511 L291 511 L201 0 L72 0 Z " />
<glyph glyph-name="Ibreve" unicode="&#x12c;" horiz-adv-x="296" d="M80 0 L203 700 L340 700 L217 0 L80 0 Z M281 762 Q240 762 210.5 772.5 Q181 783 162 801.5 Q143 820 134 844.5 Q125 869 125 897 Q125 914 128 932 L224 932 Q223 927 223 917 Q223 893 239.5 874.5 Q256 856 297 856 Q343 856 368 879.5 Q393 903 398 932 L494 932 Q488 898 471.5 867.5 Q455 837 428.5 813.5 Q402 790 365 776 Q328 762 281 762 Z " />
<glyph glyph-name="ibreve" unicode="&#x12d;" horiz-adv-x="271" d="M236 572 Q195 572 165.5 582.5 Q136 593 117 611.5 Q98 630 89 654.5 Q80 679 80 707 Q80 724 83 742 L179 742 Q178 737 178 727 Q178 703 194.5 684.5 Q211 666 252 666 Q298 666 323 689.5 Q348 713 353 742 L449 742 Q443 708 426.5 677.5 Q410 647 383.5 623.5 Q357 600 320 586 Q283 572 236 572 Z M72 0 L162 511 L291 511 L201 0 L72 0 Z " />
<glyph glyph-name="Iogonek" unicode="&#x12e;" horiz-adv-x="296" d="M51 -244 Q3 -244 -24 -219.5 Q-51 -195 -51 -154 Q-51 -103 -16 -64 Q19 -25 80 0 L203 700 L340 700 L217 0 Q190 0 161 -11.5 Q132 -23 108 -42 Q84 -61 68.5 -85.5 Q53 -110 53 -135 Q53 -152 61.5 -160.5 Q70 -169 83 -169 Q96 -169 106.5 -163.5 Q117 -158 124 -150 L174 -193 Q157 -210 127 -227 Q97 -244 51 -244 Z " />
<glyph glyph-name="iogonek" unicode="&#x12f;" horiz-adv-x="271" d="M42 -244 Q-6 -244 -33 -219.5 Q-60 -195 -60 -154 Q-60 -103 -25 -64 Q10 -25 72 0 L162 511 L291 511 L201 0 Q159 -10 129 -26.5 Q99 -43 80 -61.5 Q61 -80 52.5 -99.5 Q44 -119 44 -135 Q44 -152 52.5 -160.5 Q61 -169 74 -169 Q87 -169 97.5 -163.5 Q108 -158 115 -150 L165 -193 Q148 -210 118 -227 Q88 -244 42 -244 Z M237 572 Q210 572 193 590.5 Q176 609 176 635 Q176 652 183 667.5 Q190 683 201.5 695 Q213 707 227.5 714 Q242 721 258 721 Q287 721 304.5 703 Q322 685 322 659 Q322 641 315 625 Q308 609 296.5 597.5 Q285 586 269.5 579 Q254 572 237 572 Z " />
<glyph glyph-name="Idotaccent" unicode="&#x130;" horiz-adv-x="296" d="M80 0 L203 700 L340 700 L217 0 L80 0 Z M282 771 Q256 771 239.5 788.5 Q223 806 223 832 Q223 850 230 865.5 Q237 881 249 892.5 Q261 904 276 910.5 Q291 917 308 917 Q334 917 350.5 899.5 Q367 882 367 856 Q367 838 360 822.5 Q353 807 341 795.5 Q329 784 313.5 777.5 Q298 771 282 771 Z " />
<glyph glyph-name="IJ" unicode="&#x132;" horiz-adv-x="854" d="M89 0 L212 700 L349 700 L226 0 L89 0 Z M570 -12 Q478 -12 419.5 29.5 Q361 71 341 142 L461 196 Q476 158 500 138.5 Q524 119 565 119 Q610 119 637.5 148.5 Q665 178 675 235 L757 700 L894 700 L807 205 Q795 136 767.5 93.5 Q740 51 706 27.5 Q672 4 635.5 -4 Q599 -12 570 -12 Z " />
<glyph glyph-name="ij" unicode="&#x133;" horiz-adv-x="522" d="M72 0 L162 511 L291 511 L201 0 L72 0 Z M238 572 Q210 572 193 590 Q176 608 176 634 Q176 652 183 668 Q190 684 202 695.5 Q214 707 228.5 714 Q243 721 258 721 Q287 721 304.5 703 Q322 685 322 659 Q322 641 315 625 Q308 609 296 597.5 Q284 586 269 579 Q254 572 238 572 Z M172 -113 Q209 -107 235.5 -98 Q262 -89 280.5 -74.5 Q299 -60 309.5 -39.5 Q320 -19 325 10 L413 511 L542 511 L455 23 Q446 -26 432.5 -65 Q419 -104 393 -134.5 Q367 -165 325 -186.5 Q283 -208 217 -221 L172 -113 Z M487 572 Q459 572 442 590 Q425 608 425 634 Q425 652 432 668 Q439 684 451 695.5 Q463 707 477.5 714 Q492 721 507 721 Q536 721 553.5 703 Q571 685 571 659 Q571 641 564 625 Q557 609 545 597.5 Q533 586 518 579 Q503 572 487 572 Z " />
<glyph glyph-name="Jcircumflex" unicode="&#x134;" horiz-adv-x="558" d="M278 -12 Q186 -12 127.5 29.5 Q69 71 49 142 L169 196 Q184 158 208 138.5 Q232 119 273 119 Q318 119 345.5 148.5 Q373 178 383 235 L465 700 L602 700 L515 205 Q503 136 475.5 93.5 Q448 51 414 27.5 Q380 4 343.5 -4 Q307 -12 278 -12 Z M623 766 L555 835 L462 766 L347 766 L510 922 L630 922 L738 766 L623 766 Z " />
<glyph glyph-name="jcircumflex" unicode="&#x135;" horiz-adv-x="271" d="M-79 -111 Q-40 -102 -12 -92.5 Q16 -83 34.5 -70.5 Q53 -58 63 -42 Q73 -26 77 -4 L168 511 L293 511 L206 17 Q189 -82 127.5 -137 Q66 -192 -34 -214 L-79 -111 Z M321 576 L253 645 L160 576 L45 576 L208 732 L328 732 L436 576 L321 576 Z " />
<glyph glyph-name="Kcommaaccent" unicode="&#x136;" horiz-adv-x="703" d="M515 0 L401 332 L247 171 L217 0 L80 0 L203 700 L340 700 L284 381 L589 700 L753 700 L503 438 L660 0 L515 0 Z M266 -252 Q284 -235 300 -217.5 Q316 -200 327 -178 Q305 -175 290 -160 Q275 -145 275 -118 Q275 -83 297 -59 Q319 -35 351 -35 Q379 -35 400 -53 Q421 -71 421 -107 Q421 -152 394.5 -195 Q368 -238 303 -281 L266 -252 Z " />
<glyph glyph-name="kcommaaccent" unicode="&#x137;" horiz-adv-x="543" d="M399 354 L513 0 L378 0 L295 264 L238 214 L200 0 L72 0 L191 679 L328 722 L268 381 L414 511 L581 511 L399 354 Z M178 -252 Q196 -235 212 -217.5 Q228 -200 239 -178 Q217 -175 202 -160 Q187 -145 187 -118 Q187 -83 209 -59 Q231 -35 263 -35 Q291 -35 312 -53 Q333 -71 333 -107 Q333 -152 306.5 -195 Q280 -238 215 -281 L178 -252 Z " />
<glyph glyph-name="kgreenlandic" unicode="&#x138;" horiz-adv-x="526" d="M360 0 L287 216 L224 151 L197 0 L72 0 L162 511 L287 511 L254 321 L433 511 L569 511 L386 320 L497 0 L360 0 Z " />
<glyph glyph-name="Lacute" unicode="&#x139;" horiz-adv-x="552" d="M80 0 L203 700 L340 700 L239 128 L560 128 L537 0 L80 0 Z M312 766 L191 766 L354 922 L515 922 L312 766 Z " />
<glyph glyph-name="lacute" unicode="&#x13a;" horiz-adv-x="278" d="M72 0 L191 679 L328 722 L200 0 L72 0 Z M282 756 L161 756 L324 912 L485 912 L282 756 Z " />
<glyph glyph-name="Lcommaaccent" unicode="&#x13b;" horiz-adv-x="552" d="M80 0 L203 700 L340 700 L239 128 L560 128 L537 0 L80 0 Z M214 -252 Q232 -235 248 -217.5 Q264 -200 275 -178 Q253 -175 238 -160 Q223 -145 223 -118 Q223 -83 245 -59 Q267 -35 299 -35 Q327 -35 348 -53 Q369 -71 369 -107 Q369 -152 342.5 -195 Q316 -238 251 -281 L214 -252 Z " />
<glyph glyph-name="lcommaaccent" unicode="&#x13c;" horiz-adv-x="278" d="M72 0 L191 679 L328 722 L200 0 L72 0 Z M44 -252 Q62 -235 78 -217.5 Q94 -200 105 -178 Q83 -175 68 -160 Q53 -145 53 -118 Q53 -83 75 -59 Q97 -35 129 -35 Q157 -35 178 -53 Q199 -71 199 -107 Q199 -152 172.5 -195 Q146 -238 81 -281 L44 -252 Z " />
<glyph glyph-name="Lcaron" unicode="&#x13d;" horiz-adv-x="552" d="M80 0 L203 700 L340 700 L239 128 L560 128 L537 0 L80 0 Z M343 766 L223 766 L115 922 L230 922 L299 853 L391 922 L506 922 L343 766 Z " />
<glyph glyph-name="lcaron" unicode="&#x13e;" horiz-adv-x="446" d="M72 0 L191 679 L328 722 L200 0 L72 0 Z M537 712 L535 704 Q521 620 481 560.5 Q441 501 386 453 L352 485 Q361 499 370.5 522.5 Q380 546 389 576 Q398 606 406.5 641 Q415 676 421 712 L537 712 Z " />
<glyph glyph-name="Ldot" unicode="&#x13f;" horiz-adv-x="552" d="M80 0 L203 700 L340 700 L239 128 L560 128 L537 0 L80 0 Z M470 276 Q444 276 427.5 293.5 Q411 311 411 337 Q411 355 418 370.5 Q425 386 437 397.5 Q449 409 464 415.5 Q479 422 496 422 Q522 422 538.5 404.5 Q555 387 555 361 Q555 343 548 327.5 Q541 312 529 300.5 Q517 289 501.5 282.5 Q486 276 470 276 Z " />
<glyph glyph-name="ldot" unicode="&#x140;" horiz-adv-x="538" d="M72 0 L191 679 L328 722 L200 0 L72 0 Z M448 242 Q422 242 405.5 259.5 Q389 277 389 303 Q389 321 396 336.5 Q403 352 415 363.5 Q427 375 442 381.5 Q457 388 474 388 Q500 388 516.5 370.5 Q533 353 533 327 Q533 309 526 293.5 Q519 278 507 266.5 Q495 255 479.5 248.5 Q464 242 448 242 Z " />
<glyph glyph-name="Nacute" unicode="&#x143;" horiz-adv-x="705" d="M506 0 L311 408 Q306 419 301 433.5 Q296 448 292 461 Q292 450 290 434.5 Q288 419 286 408 L214 0 L80 0 L203 700 L330 700 L519 297 Q524 287 529.5 272.5 Q535 258 538 244 Q539 258 540.5 272.5 Q542 287 544 297 L615 700 L749 700 L626 0 L506 0 Z M522 766 L401 766 L564 922 L725 922 L522 766 Z " />
<glyph glyph-name="nacute" unicode="&#x144;" horiz-adv-x="567" d="M370 0 L420 282 Q422 292 423.5 305.5 Q425 319 425 331 Q425 401 360 401 Q344 401 327 395 Q310 389 295 376 Q280 363 268.5 342.5 Q257 322 252 294 L200 0 L72 0 L162 511 L291 511 L282 460 Q303 487 335.5 505 Q368 523 408 523 Q446 523 474 510.5 Q502 498 521 476 Q540 454 549 424.5 Q558 395 558 362 Q558 347 555.5 328 Q553 309 550 292 L498 0 L370 0 Z M401 576 L280 576 L443 732 L604 732 L401 576 Z " />
<glyph glyph-name="Ncommaaccent" unicode="&#x145;" horiz-adv-x="705" d="M506 0 L311 408 Q306 419 301 433.5 Q296 448 292 461 Q292 450 290 434.5 Q288 419 286 408 L214 0 L80 0 L203 700 L330 700 L519 297 Q524 287 529.5 272.5 Q535 258 538 244 Q539 258 540.5 272.5 Q542 287 544 297 L615 700 L749 700 L626 0 L506 0 Z M261 -252 Q279 -235 295 -217.5 Q311 -200 322 -178 Q300 -175 285 -160 Q270 -145 270 -118 Q270 -83 292 -59 Q314 -35 346 -35 Q374 -35 395 -53 Q416 -71 416 -107 Q416 -152 389.5 -195 Q363 -238 298 -281 L261 -252 Z " />
<glyph glyph-name="ncommaaccent" unicode="&#x146;" horiz-adv-x="567" d="M370 0 L420 282 Q422 292 423.5 305.5 Q425 319 425 331 Q425 401 360 401 Q344 401 327 395 Q310 389 295 376 Q280 363 268.5 342.5 Q257 322 252 294 L200 0 L72 0 L162 511 L291 511 L282 460 Q303 487 335.5 505 Q368 523 408 523 Q446 523 474 510.5 Q502 498 521 476 Q540 454 549 424.5 Q558 395 558 362 Q558 347 555.5 328 Q553 309 550 292 L498 0 L370 0 Z M185 -252 Q203 -235 219 -217.5 Q235 -200 246 -178 Q224 -175 209 -160 Q194 -145 194 -118 Q194 -83 216 -59 Q238 -35 270 -35 Q298 -35 319 -53 Q340 -71 340 -107 Q340 -152 313.5 -195 Q287 -238 222 -281 L185 -252 Z " />
<glyph glyph-name="Ncaron" unicode="&#x147;" horiz-adv-x="705" d="M506 0 L311 408 Q306 419 301 433.5 Q296 448 292 461 Q292 450 290 434.5 Q288 419 286 408 L214 0 L80 0 L203 700 L330 700 L519 297 Q524 287 529.5 272.5 Q535 258 538 244 Q539 258 540.5 272.5 Q542 287 544 297 L615 700 L749 700 L626 0 L506 0 Z M534 766 L414 766 L306 922 L421 922 L490 853 L582 922 L697 922 L534 766 Z " />
<glyph glyph-name="ncaron" unicode="&#x148;" horiz-adv-x="567" d="M370 0 L420 282 Q422 292 423.5 305.5 Q425 319 425 331 Q425 401 360 401 Q344 401 327 395 Q310 389 295 376 Q280 363 268.5 342.5 Q257 322 252 294 L200 0 L72 0 L162 511 L291 511 L282 460 Q303 487 335.5 505 Q368 523 408 523 Q446 523 474 510.5 Q502 498 521 476 Q540 454 549 424.5 Q558 395 558 362 Q558 347 555.5 328 Q553 309 550 292 L498 0 L370 0 Z M437 576 L317 576 L209 732 L324 732 L393 663 L485 732 L600 732 L437 576 Z " />
<glyph glyph-name="napostrophe" unicode="&#x149;" horiz-adv-x="792" d="M571 0 L621 282 Q623 292 624.5 305.5 Q626 319 626 331 Q626 401 561 401 Q545 401 528 395 Q511 389 496 376 Q481 363 469.5 342.5 Q458 322 453 294 L401 0 L273 0 L363 511 L492 511 L483 460 Q504 487 536.5 505 Q569 523 609 523 Q647 523 675 510.5 Q703 498 722 476 Q741 454 750 424.5 Q759 395 759 362 Q759 347 756.5 328 Q754 309 751 292 L699 0 L571 0 Z M115 459 Q122 465 133 475.5 Q144 486 155.5 499 Q167 512 177.5 525.5 Q188 539 194 551 Q175 558 163 574.5 Q151 591 151 615 Q151 636 158.5 653.5 Q166 671 179 684 Q192 697 209.5 704.5 Q227 712 246 712 Q275 712 295 692 Q315 672 315 636 Q315 604 302 572.5 Q289 541 267 512.5 Q245 484 217.5 459.5 Q190 435 160 418 L115 459 Z " />
<glyph glyph-name="Eng" unicode="&#x14a;" horiz-adv-x="695" d="M321 -139 Q363 -130 392 -120 Q421 -110 439.5 -97.5 Q458 -85 468 -68 Q478 -51 482 -28 L491 21 L306 408 Q301 419 296 433.5 Q291 448 287 461 Q287 450 285 434.5 Q283 419 281 408 L209 0 L80 0 L203 700 L325 700 L514 297 Q519 287 524.5 272.5 Q530 258 533 244 Q534 258 535.5 272.5 Q537 287 539 297 L610 700 L739 700 L616 2 Q608 -43 591 -86.5 Q574 -130 538 -163 Q496 -201 452 -218 Q408 -235 368 -244 L321 -139 Z " />
<glyph glyph-name="eng" unicode="&#x14b;" horiz-adv-x="567" d="M215 -136 Q252 -130 279 -120.5 Q306 -111 324 -96.5 Q342 -82 352.5 -61.5 Q363 -41 368 -12 L420 282 Q422 296 423.5 307.5 Q425 319 425 331 Q425 371 406.5 386 Q388 401 360 401 Q324 401 292.5 374 Q261 347 252 295 L200 0 L72 0 L162 511 L291 511 L283 462 Q309 493 341 508 Q373 523 408 523 Q438 523 465 513.5 Q492 504 513 484.5 Q534 465 546 434.5 Q558 404 558 362 Q558 336 552 306 L498 0 Q487 -63 468 -105 Q449 -147 420 -174 Q391 -201 351.5 -217 Q312 -233 260 -244 L215 -136 Z " />
<glyph glyph-name="Omacron" unicode="&#x14c;" horiz-adv-x="717" d="M385 118 Q431 118 468.5 141 Q506 164 532 203 Q558 242 572.5 294.5 Q587 347 587 407 Q587 438 579.5 469.5 Q572 501 556 526 Q540 551 514 566.5 Q488 582 451 582 Q404 582 366.5 557.5 Q329 533 303.5 492.5 Q278 452 264.5 401 Q251 350 251 298 Q251 265 258 232.5 Q265 200 281 174.5 Q297 149 322.5 133.5 Q348 118 385 118 Z M386 -12 Q312 -12 261 14 Q210 40 178 83.5 Q146 127 131.5 183 Q117 239 117 298 Q117 380 140 455 Q163 530 206.5 587 Q250 644 314 678 Q378 712 460 712 Q527 712 576.5 686.5 Q626 661 658 618 Q690 575 705.5 520 Q721 465 721 407 Q721 321 697.5 245 Q674 169 630.5 112 Q587 55 525 21.5 Q463 -12 386 -12 Z M335 776 L353 882 L670 882 L652 776 L335 776 Z " />
<glyph glyph-name="omacron" unicode="&#x14d;" horiz-adv-x="547" d="M288 -12 Q187 -12 136.5 45.5 Q86 103 86 212 Q86 280 105.5 337 Q125 394 160.5 435.5 Q196 477 246 500 Q296 523 356 523 Q401 523 437.5 507 Q474 491 499 462.5 Q524 434 537.5 394 Q551 354 551 305 Q551 234 531.5 175.5 Q512 117 477 75.5 Q442 34 394 11 Q346 -12 288 -12 Z M299 114 Q326 114 348.5 126.5 Q371 139 387.5 161.5 Q404 184 413.5 215 Q423 246 423 283 Q423 338 402 368 Q381 398 337 398 Q311 398 288.5 385 Q266 372 249.5 349.5 Q233 327 223.5 296.5 Q214 266 214 231 Q214 114 299 114 Z M218 586 L236 692 L553 692 L535 586 L218 586 Z " />
<glyph glyph-name="Obreve" unicode="&#x14e;" horiz-adv-x="717" d="M385 118 Q431 118 468.5 141 Q506 164 532 203 Q558 242 572.5 294.5 Q587 347 587 407 Q587 438 579.5 469.5 Q572 501 556 526 Q540 551 514 566.5 Q488 582 451 582 Q404 582 366.5 557.5 Q329 533 303.5 492.5 Q278 452 264.5 401 Q251 350 251 298 Q251 265 258 232.5 Q265 200 281 174.5 Q297 149 322.5 133.5 Q348 118 385 118 Z M386 -12 Q312 -12 261 14 Q210 40 178 83.5 Q146 127 131.5 183 Q117 239 117 298 Q117 380 140 455 Q163 530 206.5 587 Q250 644 314 678 Q378 712 460 712 Q527 712 576.5 686.5 Q626 661 658 618 Q690 575 705.5 520 Q721 465 721 407 Q721 321 697.5 245 Q674 169 630.5 112 Q587 55 525 21.5 Q463 -12 386 -12 Z M492 762 Q451 762 421.5 772.5 Q392 783 373 801.5 Q354 820 345 844.5 Q336 869 336 897 Q336 914 339 932 L435 932 Q434 927 434 917 Q434 893 450.5 874.5 Q467 856 508 856 Q554 856 579 879.5 Q604 903 609 932 L705 932 Q699 898 682.5 867.5 Q666 837 639.5 813.5 Q613 790 576 776 Q539 762 492 762 Z " />
<glyph glyph-name="obreve" unicode="&#x14f;" horiz-adv-x="547" d="M288 -12 Q187 -12 136.5 45.5 Q86 103 86 212 Q86 280 105.5 337 Q125 394 160.5 435.5 Q196 477 246 500 Q296 523 356 523 Q401 523 437.5 507 Q474 491 499 462.5 Q524 434 537.5 394 Q551 354 551 305 Q551 234 531.5 175.5 Q512 117 477 75.5 Q442 34 394 11 Q346 -12 288 -12 Z M299 114 Q326 114 348.5 126.5 Q371 139 387.5 161.5 Q404 184 413.5 215 Q423 246 423 283 Q423 338 402 368 Q381 398 337 398 Q311 398 288.5 385 Q266 372 249.5 349.5 Q233 327 223.5 296.5 Q214 266 214 231 Q214 114 299 114 Z M372 572 Q331 572 301.5 582.5 Q272 593 253 611.5 Q234 630 225 654.5 Q216 679 216 707 Q216 724 219 742 L315 742 Q314 737 314 727 Q314 703 330.5 684.5 Q347 666 388 666 Q434 666 459 689.5 Q484 713 489 742 L585 742 Q579 708 562.5 677.5 Q546 647 519.5 623.5 Q493 600 456 586 Q419 572 372 572 Z " />
<glyph glyph-name="Ohungarumlaut" unicode="&#x150;" horiz-adv-x="717" d="M385 118 Q431 118 468.5 141 Q506 164 532 203 Q558 242 572.5 294.5 Q587 347 587 407 Q587 438 579.5 469.5 Q572 501 556 526 Q540 551 514 566.5 Q488 582 451 582 Q404 582 366.5 557.5 Q329 533 303.5 492.5 Q278 452 264.5 401 Q251 350 251 298 Q251 265 258 232.5 Q265 200 281 174.5 Q297 149 322.5 133.5 Q348 118 385 118 Z M386 -12 Q312 -12 261 14 Q210 40 178 83.5 Q146 127 131.5 183 Q117 239 117 298 Q117 380 140 455 Q163 530 206.5 587 Q250 644 314 678 Q378 712 460 712 Q527 712 576.5 686.5 Q626 661 658 618 Q690 575 705.5 520 Q721 465 721 407 Q721 321 697.5 245 Q674 169 630.5 112 Q587 55 525 21.5 Q463 -12 386 -12 Z M438 766 L317 766 L480 922 L636 922 L438 766 Z M649 766 L528 766 L691 922 L763 922 L847 922 L649 766 Z " />
<glyph glyph-name="ohungarumlaut" unicode="&#x151;" horiz-adv-x="547" d="M288 -12 Q187 -12 136.5 45.5 Q86 103 86 212 Q86 280 105.5 337 Q125 394 160.5 435.5 Q196 477 246 500 Q296 523 356 523 Q401 523 437.5 507 Q474 491 499 462.5 Q524 434 537.5 394 Q551 354 551 305 Q551 234 531.5 175.5 Q512 117 477 75.5 Q442 34 394 11 Q346 -12 288 -12 Z M299 114 Q326 114 348.5 126.5 Q371 139 387.5 161.5 Q404 184 413.5 215 Q423 246 423 283 Q423 338 402 368 Q381 398 337 398 Q311 398 288.5 385 Q266 372 249.5 349.5 Q233 327 223.5 296.5 Q214 266 214 231 Q214 114 299 114 Z M318 576 L197 576 L360 732 L516 732 L318 576 Z M529 576 L408 576 L571 732 L643 732 L727 732 L529 576 Z " />
<glyph glyph-name="Racute" unicode="&#x154;" horiz-adv-x="676" d="M713 492 Q713 463 705.5 429 Q698 395 678.5 364 Q659 333 626 307.5 Q593 282 543 270 L613 0 L466 0 L400 261 L263 261 L217 0 L80 0 L203 700 L511 700 Q568 700 606.5 682 Q645 664 668.5 634.5 Q692 605 702.5 567.5 Q713 530 713 492 Z M465 389 Q499 389 520.5 398.5 Q542 408 554 423 Q566 438 570 455 Q574 472 574 487 Q574 522 555.5 547 Q537 572 494 572 L317 572 L285 389 L465 389 Z M483 766 L362 766 L525 922 L686 922 L483 766 Z " />
<glyph glyph-name="racute" unicode="&#x155;" horiz-adv-x="412" d="M69 0 L159 511 L287 511 L278 463 Q292 487 320 505.5 Q348 524 384 524 Q410 524 433.5 512.5 Q457 501 473 484 L435 365 Q420 379 399 388 Q378 397 355 397 Q340 397 323.5 392 Q307 387 292 374 Q277 361 265 339.5 Q253 318 247 285 L197 0 L69 0 Z M358 576 L237 576 L400 732 L561 732 L358 576 Z " />
<glyph glyph-name="Rcommaaccent" unicode="&#x156;" horiz-adv-x="676" d="M713 492 Q713 463 705.5 429 Q698 395 678.5 364 Q659 333 626 307.5 Q593 282 543 270 L613 0 L466 0 L400 261 L263 261 L217 0 L80 0 L203 700 L511 700 Q568 700 606.5 682 Q645 664 668.5 634.5 Q692 605 702.5 567.5 Q713 530 713 492 Z M465 389 Q499 389 520.5 398.5 Q542 408 554 423 Q566 438 570 455 Q574 472 574 487 Q574 522 555.5 547 Q537 572 494 572 L317 572 L285 389 L465 389 Z M243 -252 Q261 -235 277 -217.5 Q293 -200 304 -178 Q282 -175 267 -160 Q252 -145 252 -118 Q252 -83 274 -59 Q296 -35 328 -35 Q356 -35 377 -53 Q398 -71 398 -107 Q398 -152 371.5 -195 Q345 -238 280 -281 L243 -252 Z " />
<glyph glyph-name="rcommaaccent" unicode="&#x157;" horiz-adv-x="412" d="M69 0 L159 511 L287 511 L278 463 Q292 487 320 505.5 Q348 524 384 524 Q410 524 433.5 512.5 Q457 501 473 484 L435 365 Q420 379 399 388 Q378 397 355 397 Q340 397 323.5 392 Q307 387 292 374 Q277 361 265 339.5 Q253 318 247 285 L197 0 L69 0 Z M26 -272 Q44 -255 60 -237.5 Q76 -220 87 -198 Q65 -195 50 -180 Q35 -165 35 -138 Q35 -103 57 -79 Q79 -55 111 -55 Q139 -55 160 -73 Q181 -91 181 -127 Q181 -172 154.5 -215 Q128 -258 63 -301 L26 -272 Z " />
<glyph glyph-name="Rcaron" unicode="&#x158;" horiz-adv-x="676" d="M713 492 Q713 463 705.5 429 Q698 395 678.5 364 Q659 333 626 307.5 Q593 282 543 270 L613 0 L466 0 L400 261 L263 261 L217 0 L80 0 L203 700 L511 700 Q568 700 606.5 682 Q645 664 668.5 634.5 Q692 605 702.5 567.5 Q713 530 713 492 Z M465 389 Q499 389 520.5 398.5 Q542 408 554 423 Q566 438 570 455 Q574 472 574 487 Q574 522 555.5 547 Q537 572 494 572 L317 572 L285 389 L465 389 Z M515 766 L395 766 L287 922 L402 922 L471 853 L563 922 L678 922 L515 766 Z " />
<glyph glyph-name="rcaron" unicode="&#x159;" horiz-adv-x="412" d="M69 0 L159 511 L287 511 L278 463 Q292 487 320 505.5 Q348 524 384 524 Q410 524 433.5 512.5 Q457 501 473 484 L435 365 Q420 379 399 388 Q378 397 355 397 Q340 397 323.5 392 Q307 387 292 374 Q277 361 265 339.5 Q253 318 247 285 L197 0 L69 0 Z M402 576 L282 576 L174 732 L289 732 L358 663 L450 732 L565 732 L402 576 Z " />
<glyph glyph-name="Sacute" unicode="&#x15a;" horiz-adv-x="610" d="M494 510 Q487 542 462 564.5 Q437 587 392 587 Q344 587 319 566.5 Q294 546 294 517 Q294 492 316 475.5 Q338 459 371 444 Q404 429 442.5 412.5 Q481 396 514 370.5 Q547 345 569 306.5 Q591 268 591 211 Q591 161 571.5 119.5 Q552 78 516.5 49 Q481 20 431.5 4 Q382 -12 321 -12 Q272 -12 233 2.5 Q194 17 165 43 Q136 69 116 104 Q96 139 85 180 L210 226 Q226 177 255 147.5 Q284 118 340 118 Q387 118 417.5 139 Q448 160 448 198 Q448 229 426.5 249 Q405 269 372.5 285 Q340 301 302.5 317 Q265 333 232.5 357 Q200 381 178.5 417.5 Q157 454 157 510 Q157 553 173.5 590 Q190 627 221.5 654 Q253 681 298.5 696.5 Q344 712 401 712 Q454 712 492.5 697.5 Q531 683 557 660 Q583 637 597.5 608 Q612 579 617 550 L494 510 Z M463 766 L342 766 L505 922 L666 922 L463 766 Z " />
<glyph glyph-name="sacute" unicode="&#x15b;" horiz-adv-x="474" d="M392 370 Q381 385 360 400 Q339 415 304 415 Q275 415 257 403 Q239 391 239 371 Q239 357 255.5 346 Q272 335 296.5 323 Q321 311 349.5 297 Q378 283 402.5 264 Q427 245 443.5 219 Q460 193 460 157 Q460 78 403 33 Q346 -12 246 -12 Q215 -12 185.5 -5 Q156 2 130.5 14 Q105 26 85.5 43.5 Q66 61 55 82 L148 153 Q154 145 164 135.5 Q174 126 187.5 117.5 Q201 109 219 103.5 Q237 98 259 98 Q287 98 309.5 109 Q332 120 332 144 Q332 160 316 172 Q300 184 275.5 196.5 Q251 209 223 222.5 Q195 236 170.5 254.5 Q146 273 130 299 Q114 325 114 361 Q114 399 129.5 429 Q145 459 172 480 Q199 501 236.5 512 Q274 523 318 523 Q349 523 376 515.5 Q403 508 425 496 Q447 484 463.5 469.5 Q480 455 489 441 L392 370 Z M363 576 L242 576 L405 732 L566 732 L363 576 Z " />
<glyph glyph-name="Scircumflex" unicode="&#x15c;" horiz-adv-x="610" d="M494 510 Q487 542 462 564.5 Q437 587 392 587 Q344 587 319 566.5 Q294 546 294 517 Q294 492 316 475.5 Q338 459 371 444 Q404 429 442.5 412.5 Q481 396 514 370.5 Q547 345 569 306.5 Q591 268 591 211 Q591 161 571.5 119.5 Q552 78 516.5 49 Q481 20 431.5 4 Q382 -12 321 -12 Q272 -12 233 2.5 Q194 17 165 43 Q136 69 116 104 Q96 139 85 180 L210 226 Q226 177 255 147.5 Q284 118 340 118 Q387 118 417.5 139 Q448 160 448 198 Q448 229 426.5 249 Q405 269 372.5 285 Q340 301 302.5 317 Q265 333 232.5 357 Q200 381 178.5 417.5 Q157 454 157 510 Q157 553 173.5 590 Q190 627 221.5 654 Q253 681 298.5 696.5 Q344 712 401 712 Q454 712 492.5 697.5 Q531 683 557 660 Q583 637 597.5 608 Q612 579 617 550 L494 510 Z M515 766 L447 835 L354 766 L239 766 L402 922 L522 922 L630 766 L515 766 Z " />
<glyph glyph-name="scircumflex" unicode="&#x15d;" horiz-adv-x="474" d="M392 370 Q381 385 360 400 Q339 415 304 415 Q275 415 257 403 Q239 391 239 371 Q239 357 255.5 346 Q272 335 296.5 323 Q321 311 349.5 297 Q378 283 402.5 264 Q427 245 443.5 219 Q460 193 460 157 Q460 78 403 33 Q346 -12 246 -12 Q215 -12 185.5 -5 Q156 2 130.5 14 Q105 26 85.5 43.5 Q66 61 55 82 L148 153 Q154 145 164 135.5 Q174 126 187.5 117.5 Q201 109 219 103.5 Q237 98 259 98 Q287 98 309.5 109 Q332 120 332 144 Q332 160 316 172 Q300 184 275.5 196.5 Q251 209 223 222.5 Q195 236 170.5 254.5 Q146 273 130 299 Q114 325 114 361 Q114 399 129.5 429 Q145 459 172 480 Q199 501 236.5 512 Q274 523 318 523 Q349 523 376 515.5 Q403 508 425 496 Q447 484 463.5 469.5 Q480 455 489 441 L392 370 Z M421 576 L353 645 L260 576 L145 576 L308 732 L428 732 L536 576 L421 576 Z " />
<glyph glyph-name="Scedilla" unicode="&#x15e;" horiz-adv-x="610" d="M276 -9 Q198 4 151.5 56 Q105 108 85 180 L210 226 Q226 177 255 147.5 Q284 118 340 118 Q387 118 417.5 139 Q448 160 448 198 Q448 229 426.5 249 Q405 269 372.5 285 Q340 301 302.5 317 Q265 333 232.5 357 Q200 381 178.5 417.5 Q157 454 157 510 Q157 553 173.5 590 Q190 627 221.5 654 Q253 681 298.5 696.5 Q344 712 401 712 Q454 712 492.5 697.5 Q531 683 557 660 Q583 637 597.5 608 Q612 579 617 550 L494 510 Q487 542 462 564.5 Q437 587 392 587 Q344 587 319 566.5 Q294 546 294 517 Q294 492 316 475.5 Q338 459 371 444 Q404 429 442.5 412.5 Q481 396 514 370.5 Q547 345 569 306.5 Q591 268 591 211 Q591 163 573.5 123.5 Q556 84 523.5 55 Q491 26 445.5 8.5 Q400 -9 345 -12 L318 -46 Q368 -46 390.5 -67.5 Q413 -89 413 -121 Q413 -173 372.5 -208.5 Q332 -244 261 -244 Q221 -244 197.5 -230.5 Q174 -217 163 -197 L225 -155 Q230 -163 238.5 -168.5 Q247 -174 261 -174 Q286 -174 300.5 -161.5 Q315 -149 315 -128 Q315 -114 304.5 -105 Q294 -96 274 -96 Q250 -96 230 -110 L209 -77 L276 -9 Z " />
<glyph glyph-name="scedilla" unicode="&#x15f;" horiz-adv-x="474" d="M196 -8 Q148 1 110 25 Q72 49 55 82 L148 153 Q154 145 164 135.5 Q174 126 187.5 117.5 Q201 109 219 103.5 Q237 98 259 98 Q287 98 309.5 109 Q332 120 332 144 Q332 160 316 172 Q300 184 275.5 196.5 Q251 209 223 222.5 Q195 236 170.5 254.5 Q146 273 130 299 Q114 325 114 361 Q114 399 129.5 429 Q145 459 172 480 Q199 501 236.5 512 Q274 523 318 523 Q349 523 376 515.5 Q403 508 425 496 Q447 484 463.5 469.5 Q480 455 489 441 L392 370 Q381 385 360 400 Q339 415 304 415 Q275 415 257 403 Q239 391 239 371 Q239 357 255.5 346 Q272 335 296.5 323 Q321 311 349.5 297 Q378 283 402.5 264 Q427 245 443.5 219 Q460 193 460 157 Q460 82 407.5 37.5 Q355 -7 263 -12 L236 -46 Q286 -46 308.5 -67.5 Q331 -89 331 -121 Q331 -173 290.5 -208.5 Q250 -244 179 -244 Q139 -244 115.5 -230.5 Q92 -217 81 -197 L143 -155 Q148 -163 156.5 -168.5 Q165 -174 179 -174 Q204 -174 218.5 -161.5 Q233 -149 233 -128 Q233 -114 222.5 -105 Q212 -96 192 -96 Q168 -96 148 -110 L127 -77 L196 -8 Z " />
<glyph glyph-name="uni0162" unicode="&#x162;" horiz-adv-x="600" d="M244 -244 Q203 -244 180.5 -230.5 Q158 -217 146 -197 L208 -155 Q213 -163 221.5 -168.5 Q230 -174 244 -174 Q269 -174 283.5 -161.5 Q298 -149 298 -129 Q298 -114 287.5 -105 Q277 -96 257 -96 Q235 -96 213 -110 L192 -77 L267 0 L232 0 L333 570 L144 570 L166 700 L680 700 L658 570 L469 570 L368 0 L336 0 L301 -46 Q351 -46 373.5 -67.5 Q396 -89 396 -121 Q396 -173 355.5 -208.5 Q315 -244 244 -244 Z " />
<glyph glyph-name="uni0163" unicode="&#x163;" horiz-adv-x="377" d="M168 -244 Q127 -244 104 -230.5 Q81 -217 70 -197 L132 -155 Q136 -163 144.5 -168.5 Q153 -174 167 -174 Q193 -174 207 -161.5 Q221 -149 221 -128 Q221 -114 210.5 -105 Q200 -96 180 -96 Q157 -96 137 -110 L116 -77 L186 -6 Q151 5 134.5 30 Q118 55 118 91 Q118 119 126 162 L167 397 L88 397 L108 511 L187 511 L216 679 L352 722 L315 511 L423 511 L403 397 L295 397 L255 170 Q252 155 250.5 144 Q249 133 249 129 Q249 109 261 104.5 Q273 100 284 100 Q304 100 320.5 105 Q337 110 360 120 L336 10 Q318 2 295.5 -3.5 Q273 -9 252 -11 L225 -46 Q274 -46 296.5 -67.5 Q319 -89 319 -121 Q319 -173 278.5 -208.5 Q238 -244 168 -244 Z " />
<glyph glyph-name="Tcaron" unicode="&#x164;" horiz-adv-x="600" d="M469 570 L368 0 L232 0 L333 570 L144 570 L166 700 L680 700 L658 570 L469 570 Z M494 766 L374 766 L266 922 L381 922 L450 853 L542 922 L657 922 L494 766 Z " />
<glyph glyph-name="tcaron" unicode="&#x165;" horiz-adv-x="476" d="M295 397 L255 170 Q252 153 250.5 144 Q249 135 249 129 Q249 100 284 100 Q304 100 320.5 105 Q337 110 360 120 L336 10 Q313 -1 283.5 -6.5 Q254 -12 225 -12 Q177 -12 147.5 14.5 Q118 41 118 86 Q118 99 120 120.5 Q122 142 126 162 L167 397 L88 397 L108 511 L187 511 L216 679 L352 722 L315 511 L423 511 L403 397 L295 397 Z M567 840 L565 832 Q551 748 511 688.5 Q471 629 416 581 L382 613 Q391 627 400.5 650.5 Q410 674 419 704 Q428 734 436.5 769 Q445 804 451 840 L567 840 Z " />
<glyph glyph-name="Tbar" unicode="&#x166;" horiz-adv-x="600" d="M469 570 L436 382 L545 382 L523 257 L414 257 L368 0 L232 0 L277 257 L168 257 L190 382 L299 382 L333 570 L144 570 L166 700 L680 700 L658 570 L469 570 Z " />
<glyph glyph-name="tbar" unicode="&#x167;" horiz-adv-x="397" d="M235 -12 Q187 -12 157.5 14.5 Q128 41 128 86 Q128 99 130 120.5 Q132 142 136 162 L142 195 L63 195 L83 309 L162 309 L177 397 L98 397 L118 511 L197 511 L226 679 L362 722 L325 511 L433 511 L413 397 L305 397 L289 309 L397 309 L377 195 L269 195 L265 170 Q262 153 260.5 144 Q259 135 259 129 Q259 100 294 100 Q314 100 330.5 105 Q347 110 370 120 L346 10 Q323 -1 293.5 -6.5 Q264 -12 235 -12 Z " />
<glyph glyph-name="Utilde" unicode="&#x168;" horiz-adv-x="705" d="M366 -12 Q316 -12 272 1 Q228 14 195 41.5 Q162 69 143 111.5 Q124 154 124 212 Q124 229 125.5 250.5 Q127 272 135 316 L204 700 L339 700 L268 291 Q263 265 261.5 252 Q260 239 260 225 Q260 195 269.5 175 Q279 155 295 142.5 Q311 130 332 125 Q353 120 376 120 Q406 120 433 127 Q460 134 482 150.5 Q504 167 519 195.5 Q534 224 542 268 L618 700 L753 700 L675 256 Q661 175 632 123 Q603 71 562.5 41 Q522 11 472 -0.5 Q422 -12 366 -12 Z M566 773 Q540 773 520.5 780 Q501 787 483.5 796 Q466 805 450 812 Q434 819 416 819 Q398 819 383.5 809.5 Q369 800 364 777 L305 777 Q315 837 346.5 876 Q378 915 440 915 Q465 915 485 908 Q505 901 522.5 892 Q540 883 556 876 Q572 869 590 869 Q608 869 622.5 878.5 Q637 888 642 911 L701 911 Q696 881 686 855.5 Q676 830 659.5 812 Q643 794 620 783.5 Q597 773 566 773 Z " />
<glyph glyph-name="utilde" unicode="&#x169;" horiz-adv-x="567" d="M371 0 L379 48 Q352 19 315.5 3.5 Q279 -12 232 -12 Q207 -12 182.5 -2.5 Q158 7 138 26.5 Q118 46 105.5 76 Q93 106 93 147 Q93 159 94.5 172 Q96 185 98 199 L153 511 L282 511 L232 229 Q228 209 227 198.5 Q226 188 226 181 Q226 148 243 130.5 Q260 113 292 113 Q311 113 330 118 Q349 123 365 134.5 Q381 146 392 164.5 Q403 183 408 209 L461 511 L589 511 L499 0 L371 0 Z M455 583 Q429 583 409.5 590 Q390 597 372.5 606 Q355 615 339 622 Q323 629 305 629 Q287 629 272.5 619.5 Q258 610 253 587 L194 587 Q204 647 235.5 686 Q267 725 329 725 Q354 725 374 718 Q394 711 411.5 702 Q429 693 445 686 Q461 679 479 679 Q497 679 511.5 688.5 Q526 698 531 721 L590 721 Q585 691 575 665.5 Q565 640 548.5 622 Q532 604 509 593.5 Q486 583 455 583 Z " />
<glyph glyph-name="Umacron" unicode="&#x16a;" horiz-adv-x="705" d="M366 -12 Q316 -12 272 1 Q228 14 195 41.5 Q162 69 143 111.5 Q124 154 124 212 Q124 229 125.5 250.5 Q127 272 135 316 L204 700 L339 700 L268 291 Q263 265 261.5 252 Q260 239 260 225 Q260 195 269.5 175 Q279 155 295 142.5 Q311 130 332 125 Q353 120 376 120 Q406 120 433 127 Q460 134 482 150.5 Q504 167 519 195.5 Q534 224 542 268 L618 700 L753 700 L675 256 Q661 175 632 123 Q603 71 562.5 41 Q522 11 472 -0.5 Q422 -12 366 -12 Z M322 776 L340 882 L657 882 L639 776 L322 776 Z " />
<glyph glyph-name="umacron" unicode="&#x16b;" horiz-adv-x="567" d="M371 0 L379 48 Q352 19 315.5 3.5 Q279 -12 232 -12 Q207 -12 182.5 -2.5 Q158 7 138 26.5 Q118 46 105.5 76 Q93 106 93 147 Q93 159 94.5 172 Q96 185 98 199 L153 511 L282 511 L232 229 Q228 209 227 198.5 Q226 188 226 181 Q226 148 243 130.5 Q260 113 292 113 Q311 113 330 118 Q349 123 365 134.5 Q381 146 392 164.5 Q403 183 408 209 L461 511 L589 511 L499 0 L371 0 Z M223 586 L241 692 L558 692 L540 586 L223 586 Z " />
<glyph glyph-name="Ubreve" unicode="&#x16c;" horiz-adv-x="705" d="M366 -12 Q316 -12 272 1 Q228 14 195 41.5 Q162 69 143 111.5 Q124 154 124 212 Q124 229 125.5 250.5 Q127 272 135 316 L204 700 L339 700 L268 291 Q263 265 261.5 252 Q260 239 260 225 Q260 195 269.5 175 Q279 155 295 142.5 Q311 130 332 125 Q353 120 376 120 Q406 120 433 127 Q460 134 482 150.5 Q504 167 519 195.5 Q534 224 542 268 L618 700 L753 700 L675 256 Q661 175 632 123 Q603 71 562.5 41 Q522 11 472 -0.5 Q422 -12 366 -12 Z M485 762 Q444 762 414.5 772.5 Q385 783 366 801.5 Q347 820 338 844.5 Q329 869 329 897 Q329 914 332 932 L428 932 Q427 927 427 917 Q427 893 443.5 874.5 Q460 856 501 856 Q547 856 572 879.5 Q597 903 602 932 L698 932 Q692 898 675.5 867.5 Q659 837 632.5 813.5 Q606 790 569 776 Q532 762 485 762 Z " />
<glyph glyph-name="ubreve" unicode="&#x16d;" horiz-adv-x="567" d="M371 0 L379 48 Q352 19 315.5 3.5 Q279 -12 232 -12 Q207 -12 182.5 -2.5 Q158 7 138 26.5 Q118 46 105.5 76 Q93 106 93 147 Q93 159 94.5 172 Q96 185 98 199 L153 511 L282 511 L232 229 Q228 209 227 198.5 Q226 188 226 181 Q226 148 243 130.5 Q260 113 292 113 Q311 113 330 118 Q349 123 365 134.5 Q381 146 392 164.5 Q403 183 408 209 L461 511 L589 511 L499 0 L371 0 Z M373 572 Q332 572 302.5 582.5 Q273 593 254 611.5 Q235 630 226 654.5 Q217 679 217 707 Q217 724 220 742 L316 742 Q315 737 315 727 Q315 703 331.5 684.5 Q348 666 389 666 Q435 666 460 689.5 Q485 713 490 742 L586 742 Q580 708 563.5 677.5 Q547 647 520.5 623.5 Q494 600 457 586 Q420 572 373 572 Z " />
<glyph glyph-name="Uring" unicode="&#x16e;" horiz-adv-x="705" d="M366 -12 Q316 -12 272 1 Q228 14 195 41.5 Q162 69 143 111.5 Q124 154 124 212 Q124 229 125.5 250.5 Q127 272 135 316 L204 700 L339 700 L268 291 Q263 265 261.5 252 Q260 239 260 225 Q260 195 269.5 175 Q279 155 295 142.5 Q311 130 332 125 Q353 120 376 120 Q406 120 433 127 Q460 134 482 150.5 Q504 167 519 195.5 Q534 224 542 268 L618 700 L753 700 L675 256 Q661 175 632 123 Q603 71 562.5 41 Q522 11 472 -0.5 Q422 -12 366 -12 Z M474 715 Q451 715 431.5 723.5 Q412 732 398 747 Q384 762 376.5 781.5 Q369 801 369 824 Q369 855 381.5 882 Q394 909 415 929 Q436 949 463 960.5 Q490 972 519 972 Q541 972 560 963.5 Q579 955 593 940 Q607 925 614.5 905.5 Q622 886 622 864 Q622 833 609.5 806 Q597 779 576 758.5 Q555 738 528.5 726.5 Q502 715 474 715 Z M489 804 Q506 804 520 817.5 Q534 831 534 851 Q534 865 525.5 874.5 Q517 884 503 884 Q485 884 471.5 870.5 Q458 857 458 837 Q458 823 466.5 813.5 Q475 804 489 804 Z " />
<glyph glyph-name="uring" unicode="&#x16f;" horiz-adv-x="567" d="M371 0 L379 48 Q352 19 315.5 3.5 Q279 -12 232 -12 Q207 -12 182.5 -2.5 Q158 7 138 26.5 Q118 46 105.5 76 Q93 106 93 147 Q93 159 94.5 172 Q96 185 98 199 L153 511 L282 511 L232 229 Q228 209 227 198.5 Q226 188 226 181 Q226 148 243 130.5 Q260 113 292 113 Q311 113 330 118 Q349 123 365 134.5 Q381 146 392 164.5 Q403 183 408 209 L461 511 L589 511 L499 0 L371 0 Z M372 525 Q349 525 329.5 533.5 Q310 542 296 557 Q282 572 274.5 591.5 Q267 611 267 634 Q267 665 279.5 692 Q292 719 313 739 Q334 759 361 770.5 Q388 782 417 782 Q439 782 458 773.5 Q477 765 491 750 Q505 735 512.5 715.5 Q520 696 520 674 Q520 643 507.5 616 Q495 589 474 568.5 Q453 548 426.5 536.5 Q400 525 372 525 Z M387 614 Q404 614 418 627.5 Q432 641 432 661 Q432 675 423.5 684.5 Q415 694 401 694 Q383 694 369.5 680.5 Q356 667 356 647 Q356 633 364.5 623.5 Q373 614 387 614 Z " />
<glyph glyph-name="Uhungarumlaut" unicode="&#x170;" horiz-adv-x="705" d="M366 -12 Q316 -12 272 1 Q228 14 195 41.5 Q162 69 143 111.5 Q124 154 124 212 Q124 229 125.5 250.5 Q127 272 135 316 L204 700 L339 700 L268 291 Q263 265 261.5 252 Q260 239 260 225 Q260 195 269.5 175 Q279 155 295 142.5 Q311 130 332 125 Q353 120 376 120 Q406 120 433 127 Q460 134 482 150.5 Q504 167 519 195.5 Q534 224 542 268 L618 700 L753 700 L675 256 Q661 175 632 123 Q603 71 562.5 41 Q522 11 472 -0.5 Q422 -12 366 -12 Z M431 766 L310 766 L473 922 L629 922 L431 766 Z M642 766 L521 766 L684 922 L756 922 L840 922 L642 766 Z " />
<glyph glyph-name="uhungarumlaut" unicode="&#x171;" horiz-adv-x="567" d="M371 0 L379 48 Q352 19 315.5 3.5 Q279 -12 232 -12 Q207 -12 182.5 -2.5 Q158 7 138 26.5 Q118 46 105.5 76 Q93 106 93 147 Q93 159 94.5 172 Q96 185 98 199 L153 511 L282 511 L232 229 Q228 209 227 198.5 Q226 188 226 181 Q226 148 243 130.5 Q260 113 292 113 Q311 113 330 118 Q349 123 365 134.5 Q381 146 392 164.5 Q403 183 408 209 L461 511 L589 511 L499 0 L371 0 Z M329 576 L208 576 L371 732 L527 732 L329 576 Z M540 576 L419 576 L582 732 L654 732 L738 732 L540 576 Z " />
<glyph glyph-name="Uogonek" unicode="&#x172;" horiz-adv-x="705" d="M329 -244 Q281 -244 253.5 -219 Q226 -194 226 -154 Q226 -107 256 -70.5 Q286 -34 338 -11 Q293 -8 254 7 Q215 22 186 49.5 Q157 77 140.5 117.5 Q124 158 124 212 Q124 229 125.5 250.5 Q127 272 135 316 L204 700 L339 700 L268 291 Q263 265 261.5 252 Q260 239 260 225 Q260 195 269.5 175 Q279 155 295 142.5 Q311 130 332 125 Q353 120 376 120 Q406 120 433 127 Q460 134 482 150.5 Q504 167 519 195.5 Q534 224 542 268 L618 700 L753 700 L675 256 Q663 188 641 141 Q619 94 588.5 63.5 Q558 33 520 16 Q482 -1 439 -7 Q410 -20 389.5 -36.5 Q369 -53 356 -70.5 Q343 -88 337 -104.5 Q331 -121 331 -135 Q331 -152 339.5 -160.5 Q348 -169 361 -169 Q374 -169 384 -163.5 Q394 -158 402 -150 L452 -193 Q435 -210 405 -227 Q375 -244 329 -244 Z " />
<glyph glyph-name="uogonek" unicode="&#x173;" horiz-adv-x="567" d="M499 0 Q457 -11 428 -27.5 Q399 -44 381 -62.5 Q363 -81 354.5 -100 Q346 -119 346 -136 Q346 -153 354 -161 Q362 -169 375 -169 Q388 -169 398.5 -163.5 Q409 -158 417 -150 L466 -193 Q449 -210 419 -227 Q389 -244 343 -244 Q295 -244 268 -219.5 Q241 -195 241 -154 Q241 -103 275 -64.5 Q309 -26 371 0 L379 48 Q352 19 315.5 3.5 Q279 -12 232 -12 Q207 -12 182.5 -2.5 Q158 7 138 26.5 Q118 46 105.5 76 Q93 106 93 147 Q93 159 94.5 172 Q96 185 98 199 L153 511 L282 511 L232 229 Q228 209 227 198.5 Q226 188 226 181 Q226 148 243 130.5 Q260 113 292 113 Q311 113 330 118 Q349 123 365 134.5 Q381 146 392 164.5 Q403 183 408 209 L461 511 L589 511 L499 0 Z " />
<glyph glyph-name="Wcircumflex" unicode="&#x174;" horiz-adv-x="837" d="M922 700 L655 0 L531 0 L501 386 Q499 410 499 430.5 Q499 451 499 465 Q496 454 489.5 436.5 Q483 419 471 391 L308 0 L184 0 L163 700 L300 700 L301 306 Q301 288 300.5 276.5 Q300 265 300 254 Q303 265 307 276.5 Q311 288 319 307 L480 700 L596 700 L621 307 Q622 293 622 279 Q622 265 622 254 Q625 265 629 276.5 Q633 288 640 306 L781 700 L922 700 Z M632 766 L564 835 L471 766 L356 766 L519 922 L639 922 L747 766 L632 766 Z " />
<glyph glyph-name="wcircumflex" unicode="&#x175;" horiz-adv-x="721" d="M564 0 L449 0 L424 255 Q422 269 421.5 291.5 Q421 314 421 331 Q415 314 406.5 291.5 Q398 269 392 255 L284 0 L170 0 L119 511 L242 511 L256 262 Q257 247 257 229 Q257 211 257 195 Q262 211 269.5 229 Q277 247 283 262 L388 511 L509 511 L529 262 Q531 247 531 226 Q531 205 531 195 Q537 211 543.5 229 Q550 247 556 262 L656 511 L782 511 L564 0 Z M556 576 L488 645 L395 576 L280 576 L443 732 L563 732 L671 576 L556 576 Z " />
<glyph glyph-name="Ycircumflex" unicode="&#x176;" horiz-adv-x="684" d="M273 0 L323 282 L150 700 L292 700 L408 414 L624 700 L778 700 L459 279 L410 0 L273 0 Z M552 766 L484 835 L391 766 L276 766 L439 922 L559 922 L667 766 L552 766 Z " />
<glyph glyph-name="ycircumflex" unicode="&#x177;" horiz-adv-x="547" d="M240 -194 L99 -194 L210 10 L114 511 L242 511 L297 216 Q299 205 301 192 Q303 179 304 169 Q309 182 314.5 193.5 Q320 205 326 216 L486 511 L625 511 L240 -194 Z M452 576 L384 645 L291 576 L176 576 L339 732 L459 732 L567 576 L452 576 Z " />
<glyph glyph-name="Zacute" unicode="&#x179;" horiz-adv-x="638" d="M53 0 L71 103 L494 572 L175 572 L197 700 L699 700 L681 597 L255 128 L599 128 L576 0 L53 0 Z M476 766 L355 766 L518 922 L679 922 L476 766 Z " />
<glyph glyph-name="zacute" unicode="&#x17a;" horiz-adv-x="515" d="M50 0 L68 102 L363 395 L138 395 L158 511 L552 511 L535 412 L239 116 L481 116 L461 0 L50 0 Z M407 576 L286 576 L449 732 L610 732 L407 576 Z " />
<glyph glyph-name="Zdotaccent" unicode="&#x17b;" horiz-adv-x="638" d="M53 0 L71 103 L494 572 L175 572 L197 700 L699 700 L681 597 L255 128 L599 128 L576 0 L53 0 Z M451 771 Q425 771 408.5 788.5 Q392 806 392 832 Q392 850 399 865.5 Q406 881 418 892.5 Q430 904 445 910.5 Q460 917 477 917 Q503 917 519.5 899.5 Q536 882 536 856 Q536 838 529 822.5 Q522 807 510 795.5 Q498 784 482.5 777.5 Q467 771 451 771 Z " />
<glyph glyph-name="zdotaccent" unicode="&#x17c;" horiz-adv-x="515" d="M50 0 L68 102 L363 395 L138 395 L158 511 L552 511 L535 412 L239 116 L481 116 L461 0 L50 0 Z M360 581 Q334 581 317.5 598.5 Q301 616 301 642 Q301 660 308 675.5 Q315 691 327 702.5 Q339 714 354 720.5 Q369 727 386 727 Q412 727 428.5 709.5 Q445 692 445 666 Q445 648 438 632.5 Q431 617 419 605.5 Q407 594 391.5 587.5 Q376 581 360 581 Z " />
<glyph glyph-name="longs" unicode="&#x17f;" horiz-adv-x="347" d="M100 0 L204 589 Q211 627 226.5 651 Q242 675 262.5 689 Q283 703 306 708.5 Q329 714 352 714 Q380 714 405.5 706 Q431 698 454 687 L434 581 Q408 592 392 595 Q376 598 365 598 Q349 598 339.5 588.5 Q330 579 327 563 L228 0 L100 0 Z " />
<glyph glyph-name="uni01CD" unicode="&#x1cd;" horiz-adv-x="712" d="M543 0 L517 145 L258 145 L180 0 L35 0 L415 700 L548 700 L682 0 L543 0 Z M461 463 Q460 468 459 475.5 Q458 483 456.5 491.5 Q455 500 453.5 507.5 Q452 515 452 519 Q448 510 439.5 492.5 Q431 475 426 465 L321 268 L496 268 L461 463 Z M547 766 L427 766 L319 922 L434 922 L503 853 L595 922 L710 922 L547 766 Z " />
<glyph glyph-name="uni01CE" unicode="&#x1ce;" horiz-adv-x="536" d="M350 0 L358 40 Q338 19 301.5 3.5 Q265 -12 222 -12 Q189 -12 160.5 -2 Q132 8 110.5 27.5 Q89 47 76.5 74.5 Q64 102 64 137 Q64 181 80.5 216 Q97 251 127 275.5 Q157 300 199 313 Q241 326 292 326 Q323 326 352 317.5 Q381 309 402 296 L406 316 Q410 335 410 348 Q410 380 389 394.5 Q368 409 334 409 Q292 409 250.5 395 Q209 381 173 358 L154 463 Q193 488 242.5 505.5 Q292 523 355 523 Q380 523 411.5 516.5 Q443 510 471 492 Q499 474 518 443 Q537 412 537 364 Q537 353 535 337.5 Q533 322 530 304 L477 0 L350 0 Z M258 102 Q298 102 326 114.5 Q354 127 375 144 L385 198 Q368 206 344 211 Q320 216 290 216 Q272 216 254 212.5 Q236 209 222.5 200.5 Q209 192 200.5 179.5 Q192 167 192 149 Q192 128 209.5 115 Q227 102 258 102 Z M441 576 L321 576 L213 732 L328 732 L397 663 L489 732 L604 732 L441 576 Z " />
<glyph glyph-name="uni01CF" unicode="&#x1cf;" horiz-adv-x="296" d="M80 0 L203 700 L340 700 L217 0 L80 0 Z M339 766 L219 766 L111 922 L226 922 L295 853 L387 922 L502 922 L339 766 Z " />
<glyph glyph-name="uni01D0" unicode="&#x1d0;" horiz-adv-x="271" d="M291 576 L171 576 L63 732 L178 732 L247 663 L339 732 L454 732 L291 576 Z M72 0 L162 511 L291 511 L201 0 L72 0 Z " />
<glyph glyph-name="uni01D1" unicode="&#x1d1;" horiz-adv-x="717" d="M385 118 Q431 118 468.5 141 Q506 164 532 203 Q558 242 572.5 294.5 Q587 347 587 407 Q587 438 579.5 469.5 Q572 501 556 526 Q540 551 514 566.5 Q488 582 451 582 Q404 582 366.5 557.5 Q329 533 303.5 492.5 Q278 452 264.5 401 Q251 350 251 298 Q251 265 258 232.5 Q265 200 281 174.5 Q297 149 322.5 133.5 Q348 118 385 118 Z M386 -12 Q312 -12 261 14 Q210 40 178 83.5 Q146 127 131.5 183 Q117 239 117 298 Q117 380 140 455 Q163 530 206.5 587 Q250 644 314 678 Q378 712 460 712 Q527 712 576.5 686.5 Q626 661 658 618 Q690 575 705.5 520 Q721 465 721 407 Q721 321 697.5 245 Q674 169 630.5 112 Q587 55 525 21.5 Q463 -12 386 -12 Z M550 766 L430 766 L322 922 L437 922 L506 853 L598 922 L713 922 L550 766 Z " />
<glyph glyph-name="uni01D2" unicode="&#x1d2;" horiz-adv-x="547" d="M288 -12 Q187 -12 136.5 45.5 Q86 103 86 212 Q86 280 105.5 337 Q125 394 160.5 435.5 Q196 477 246 500 Q296 523 356 523 Q401 523 437.5 507 Q474 491 499 462.5 Q524 434 537.5 394 Q551 354 551 305 Q551 234 531.5 175.5 Q512 117 477 75.5 Q442 34 394 11 Q346 -12 288 -12 Z M299 114 Q326 114 348.5 126.5 Q371 139 387.5 161.5 Q404 184 413.5 215 Q423 246 423 283 Q423 338 402 368 Q381 398 337 398 Q311 398 288.5 385 Q266 372 249.5 349.5 Q233 327 223.5 296.5 Q214 266 214 231 Q214 114 299 114 Z M430 576 L310 576 L202 732 L317 732 L386 663 L478 732 L593 732 L430 576 Z " />
<glyph glyph-name="uni01D3" unicode="&#x1d3;" horiz-adv-x="705" d="M366 -12 Q316 -12 272 1 Q228 14 195 41.5 Q162 69 143 111.5 Q124 154 124 212 Q124 229 125.5 250.5 Q127 272 135 316 L204 700 L339 700 L268 291 Q263 265 261.5 252 Q260 239 260 225 Q260 195 269.5 175 Q279 155 295 142.5 Q311 130 332 125 Q353 120 376 120 Q406 120 433 127 Q460 134 482 150.5 Q504 167 519 195.5 Q534 224 542 268 L618 700 L753 700 L675 256 Q661 175 632 123 Q603 71 562.5 41 Q522 11 472 -0.5 Q422 -12 366 -12 Z M542 766 L422 766 L314 922 L429 922 L498 853 L590 922 L705 922 L542 766 Z " />
<glyph glyph-name="uni01D4" unicode="&#x1d4;" horiz-adv-x="567" d="M371 0 L379 48 Q352 19 315.5 3.5 Q279 -12 232 -12 Q207 -12 182.5 -2.5 Q158 7 138 26.5 Q118 46 105.5 76 Q93 106 93 147 Q93 159 94.5 172 Q96 185 98 199 L153 511 L282 511 L232 229 Q228 209 227 198.5 Q226 188 226 181 Q226 148 243 130.5 Q260 113 292 113 Q311 113 330 118 Q349 123 365 134.5 Q381 146 392 164.5 Q403 183 408 209 L461 511 L589 511 L499 0 L371 0 Z M435 576 L315 576 L207 732 L322 732 L391 663 L483 732 L598 732 L435 576 Z " />
<glyph glyph-name="AEacute" unicode="&#x1fc;" horiz-adv-x="863" d="M374 0 L400 145 L227 145 L122 0 L-23 0 L489 700 L918 700 L896 572 L608 572 L582 425 L735 425 L712 297 L559 297 L530 128 L838 128 L815 0 L374 0 Z M421 268 L457 468 Q451 456 443 444 Q435 432 425 418 L317 268 L421 268 Z M702 766 L581 766 L744 922 L905 922 L702 766 Z " />
<glyph glyph-name="aeacute" unicode="&#x1fd;" horiz-adv-x="817" d="M568 -12 Q508 -12 464 9 Q420 30 397 70 Q350 25 302 6.5 Q254 -12 208 -12 Q180 -12 154 -2.5 Q128 7 108 25.5 Q88 44 76 72 Q64 100 64 137 Q64 186 82.5 222.5 Q101 259 131.5 282 Q162 305 201 316.5 Q240 328 282 328 Q311 328 339 320.5 Q367 313 383 304 L387 328 Q388 334 388.5 339 Q389 344 389 349 Q389 378 370.5 393.5 Q352 409 320 409 Q280 409 241.5 396 Q203 383 166 358 L149 463 Q187 488 235 505.5 Q283 523 343 523 Q379 523 414.5 506.5 Q450 490 472 461 Q498 487 540.5 505 Q583 523 643 523 Q684 523 718.5 511 Q753 499 778 474 Q803 449 817 411 Q831 373 831 321 Q831 289 826 260 Q821 231 812 205 L487 205 Q487 203 486.5 200.5 Q486 198 486 196 Q486 151 514.5 126.5 Q543 102 585 102 Q611 102 642 115 Q673 128 699 155 L765 71 Q685 -12 568 -12 Z M255 102 Q285 102 310 114.5 Q335 127 354 144 L364 199 Q349 207 328 211.5 Q307 216 286 216 Q267 216 249.5 212 Q232 208 219 200 Q206 192 198 179.5 Q190 167 190 149 Q190 128 206.5 115 Q223 102 255 102 Z M618 409 Q579 409 548 386.5 Q517 364 505 315 L707 315 Q707 318 707 322.5 Q707 327 706 333 Q701 372 677.5 390.5 Q654 409 618 409 Z M564 576 L443 576 L606 732 L767 732 L564 576 Z " />
<glyph glyph-name="Oslashacute" unicode="&#x1fe;" horiz-adv-x="717" d="M528 766 L407 766 L570 922 L731 922 L528 766 Z M56 -12 L159 113 Q137 153 127 200 Q117 247 117 298 Q117 380 140 455 Q163 530 206.5 587 Q250 644 314 678 Q378 712 460 712 Q508 712 546 699 Q584 686 613 663 L654 712 L785 712 L679 584 Q700 546 710.5 500.5 Q721 455 721 407 Q721 321 697.5 245 Q674 169 630.5 112 Q587 55 525 21.5 Q463 -12 386 -12 Q335 -12 295.5 0 Q256 12 226 35 L187 -12 L56 -12 Z M251 298 Q251 281 252.5 264.5 Q254 248 258 232 L526 558 Q496 582 451 582 Q404 582 366.5 557.5 Q329 533 303.5 492.5 Q278 452 264.5 401 Q251 350 251 298 Z M385 118 Q431 118 468.5 141 Q506 164 532 203 Q558 242 572.5 294.5 Q587 347 587 407 Q587 421 585 436 Q583 451 580 465 L312 140 Q342 118 385 118 Z " />
<glyph glyph-name="oslashacute" unicode="&#x1ff;" horiz-adv-x="547" d="M418 576 L297 576 L460 732 L621 732 L418 576 Z M519 433 Q551 380 551 305 Q551 234 531.5 175.5 Q512 117 477 75.5 Q442 34 394 11 Q346 -12 288 -12 Q223 -12 178 13 L158 -12 L45 -12 L116 75 Q86 129 86 212 Q86 280 105.5 337 Q125 394 160.5 435.5 Q196 477 246 500 Q296 523 356 523 Q414 523 458 496 L480 523 L592 523 L519 433 Z M214 231 Q214 222 214 214 Q214 206 216 198 L373 391 Q358 398 337 398 Q311 398 288.5 385 Q266 372 249.5 349.5 Q233 327 223.5 296.5 Q214 266 214 231 Z M299 114 Q326 114 348.5 126.5 Q371 139 387.5 161.5 Q404 184 413.5 215 Q423 246 423 283 Q423 291 422.5 298 Q422 305 421 312 L265 120 Q280 114 299 114 Z " />
<glyph glyph-name="uni0218" unicode="&#x218;" horiz-adv-x="610" d="M494 510 Q487 542 462 564.5 Q437 587 392 587 Q344 587 319 566.5 Q294 546 294 517 Q294 492 316 475.5 Q338 459 371 444 Q404 429 442.5 412.5 Q481 396 514 370.5 Q547 345 569 306.5 Q591 268 591 211 Q591 161 571.5 119.5 Q552 78 516.5 49 Q481 20 431.5 4 Q382 -12 321 -12 Q272 -12 233 2.5 Q194 17 165 43 Q136 69 116 104 Q96 139 85 180 L210 226 Q226 177 255 147.5 Q284 118 340 118 Q387 118 417.5 139 Q448 160 448 198 Q448 229 426.5 249 Q405 269 372.5 285 Q340 301 302.5 317 Q265 333 232.5 357 Q200 381 178.5 417.5 Q157 454 157 510 Q157 553 173.5 590 Q190 627 221.5 654 Q253 681 298.5 696.5 Q344 712 401 712 Q454 712 492.5 697.5 Q531 683 557 660 Q583 637 597.5 608 Q612 579 617 550 L494 510 Z M209 -252 Q227 -235 243 -217.5 Q259 -200 270 -178 Q248 -175 233 -160 Q218 -145 218 -118 Q218 -83 240 -59 Q262 -35 294 -35 Q322 -35 343 -53 Q364 -71 364 -107 Q364 -152 337.5 -195 Q311 -238 246 -281 L209 -252 Z " />
<glyph glyph-name="uni0219" unicode="&#x219;" horiz-adv-x="474" d="M392 370 Q381 385 360 400 Q339 415 304 415 Q275 415 257 403 Q239 391 239 371 Q239 357 255.5 346 Q272 335 296.5 323 Q321 311 349.5 297 Q378 283 402.5 264 Q427 245 443.5 219 Q460 193 460 157 Q460 78 403 33 Q346 -12 246 -12 Q215 -12 185.5 -5 Q156 2 130.5 14 Q105 26 85.5 43.5 Q66 61 55 82 L148 153 Q154 145 164 135.5 Q174 126 187.5 117.5 Q201 109 219 103.5 Q237 98 259 98 Q287 98 309.5 109 Q332 120 332 144 Q332 160 316 172 Q300 184 275.5 196.5 Q251 209 223 222.5 Q195 236 170.5 254.5 Q146 273 130 299 Q114 325 114 361 Q114 399 129.5 429 Q145 459 172 480 Q199 501 236.5 512 Q274 523 318 523 Q349 523 376 515.5 Q403 508 425 496 Q447 484 463.5 469.5 Q480 455 489 441 L392 370 Z M134 -252 Q152 -235 168 -217.5 Q184 -200 195 -178 Q173 -175 158 -160 Q143 -145 143 -118 Q143 -83 165 -59 Q187 -35 219 -35 Q247 -35 268 -53 Q289 -71 289 -107 Q289 -152 262.5 -195 Q236 -238 171 -281 L134 -252 Z " />
<glyph glyph-name="uni021A" unicode="&#x21a;" horiz-adv-x="600" d="M469 570 L368 0 L232 0 L333 570 L144 570 L166 700 L680 700 L658 570 L469 570 Z M202 -252 Q220 -235 236 -217.5 Q252 -200 263 -178 Q241 -175 226 -160 Q211 -145 211 -118 Q211 -83 233 -59 Q255 -35 287 -35 Q315 -35 336 -53 Q357 -71 357 -107 Q357 -152 330.5 -195 Q304 -238 239 -281 L202 -252 Z " />
<glyph glyph-name="uni021B" unicode="&#x21b;" horiz-adv-x="377" d="M295 397 L255 170 Q252 153 250.5 144 Q249 135 249 129 Q249 100 284 100 Q304 100 320.5 105 Q337 110 360 120 L336 10 Q313 -1 283.5 -6.5 Q254 -12 225 -12 Q177 -12 147.5 14.5 Q118 41 118 86 Q118 99 120 120.5 Q122 142 126 162 L167 397 L88 397 L108 511 L187 511 L216 679 L352 722 L315 511 L423 511 L403 397 L295 397 Z M107 -252 Q125 -235 141 -217.5 Q157 -200 168 -178 Q146 -175 131 -160 Q116 -145 116 -118 Q116 -83 138 -59 Q160 -35 192 -35 Q220 -35 241 -53 Q262 -71 262 -107 Q262 -152 235.5 -195 Q209 -238 144 -281 L107 -252 Z " />
<glyph glyph-name="&amp;#x237;" unicode="&#x237;" horiz-adv-x="271" d="M-79 -111 Q-40 -102 -12 -92.5 Q16 -83 34.5 -70.5 Q53 -58 63 -42 Q73 -26 77 -4 L168 511 L293 511 L206 17 Q189 -82 127.5 -137 Q66 -192 -34 -214 L-79 -111 Z " />
<glyph glyph-name="&amp;#xf6be;" unicode="&#xf6be;" horiz-adv-x="271" d="M-79 -111 Q-40 -102 -12 -92.5 Q16 -83 34.5 -70.5 Q53 -58 63 -42 Q73 -26 77 -4 L168 511 L293 511 L206 17 Q189 -82 127.5 -137 Q66 -192 -34 -214 L-79 -111 Z " />
<glyph glyph-name="firsttonechinese" unicode="&#x2c9;" horiz-adv-x="456" d="M210 586 L228 692 L545 692 L527 586 L210 586 Z " />
<glyph glyph-name="uni03BC" unicode="&#x3bc;" horiz-adv-x="572" d="M376 0 L384 48 Q366 22 337 5 Q308 -12 271 -12 Q246 -12 229 -3.5 Q212 5 203 15 L173 -157 L36 -200 L161 511 L287 511 L237 227 Q235 216 233.5 203 Q232 190 232 183 Q232 113 301 113 Q339 113 371 137 Q403 161 414 221 L466 511 L594 511 L504 0 L376 0 Z " />
<glyph glyph-name="Wgrave" unicode="&#x1e80;" horiz-adv-x="837" d="M922 700 L655 0 L531 0 L501 386 Q499 410 499 430.5 Q499 451 499 465 Q496 454 489.5 436.5 Q483 419 471 391 L308 0 L184 0 L163 700 L300 700 L301 306 Q301 288 300.5 276.5 Q300 265 300 254 Q303 265 307 276.5 Q311 288 319 307 L480 700 L596 700 L621 307 Q622 293 622 279 Q622 265 622 254 Q625 265 629 276.5 Q633 288 640 306 L781 700 L922 700 Z M536 766 L388 922 L549 922 L658 766 L536 766 Z " />
<glyph glyph-name="wgrave" unicode="&#x1e81;" horiz-adv-x="721" d="M564 0 L449 0 L424 255 Q422 269 421.5 291.5 Q421 314 421 331 Q415 314 406.5 291.5 Q398 269 392 255 L284 0 L170 0 L119 511 L242 511 L256 262 Q257 247 257 229 Q257 211 257 195 Q262 211 269.5 229 Q277 247 283 262 L388 511 L509 511 L529 262 Q531 247 531 226 Q531 205 531 195 Q537 211 543.5 229 Q550 247 556 262 L656 511 L782 511 L564 0 Z M460 576 L312 732 L473 732 L582 576 L460 576 Z " />
<glyph glyph-name="Wacute" unicode="&#x1e82;" horiz-adv-x="837" d="M922 700 L655 0 L531 0 L501 386 Q499 410 499 430.5 Q499 451 499 465 Q496 454 489.5 436.5 Q483 419 471 391 L308 0 L184 0 L163 700 L300 700 L301 306 Q301 288 300.5 276.5 Q300 265 300 254 Q303 265 307 276.5 Q311 288 319 307 L480 700 L596 700 L621 307 Q622 293 622 279 Q622 265 622 254 Q625 265 629 276.5 Q633 288 640 306 L781 700 L922 700 Z M570 766 L449 766 L612 922 L773 922 L570 766 Z " />
<glyph glyph-name="wacute" unicode="&#x1e83;" horiz-adv-x="721" d="M564 0 L449 0 L424 255 Q422 269 421.5 291.5 Q421 314 421 331 Q415 314 406.5 291.5 Q398 269 392 255 L284 0 L170 0 L119 511 L242 511 L256 262 Q257 247 257 229 Q257 211 257 195 Q262 211 269.5 229 Q277 247 283 262 L388 511 L509 511 L529 262 Q531 247 531 226 Q531 205 531 195 Q537 211 543.5 229 Q550 247 556 262 L656 511 L782 511 L564 0 Z M524 576 L403 576 L566 732 L727 732 L524 576 Z " />
<glyph glyph-name="Wdieresis" unicode="&#x1e84;" horiz-adv-x="837" d="M922 700 L655 0 L531 0 L501 386 Q499 410 499 430.5 Q499 451 499 465 Q496 454 489.5 436.5 Q483 419 471 391 L308 0 L184 0 L163 700 L300 700 L301 306 Q301 288 300.5 276.5 Q300 265 300 254 Q303 265 307 276.5 Q311 288 319 307 L480 700 L596 700 L621 307 Q622 293 622 279 Q622 265 622 254 Q625 265 629 276.5 Q633 288 640 306 L781 700 L922 700 Z M463 771 Q435 771 418.5 788.5 Q402 806 402 832 Q402 850 409 865.5 Q416 881 427.5 892.5 Q439 904 453 910.5 Q467 917 482 917 Q511 917 528 899.5 Q545 882 545 856 Q545 838 538 822.5 Q531 807 519.5 795.5 Q508 784 493.5 777.5 Q479 771 463 771 Z M646 771 Q617 771 601 788.5 Q585 806 585 832 Q585 850 591.5 865.5 Q598 881 609.5 892.5 Q621 904 635.5 910.5 Q650 917 666 917 Q695 917 711.5 899.5 Q728 882 728 856 Q728 838 721 822.5 Q714 807 702.5 795.5 Q691 784 676 777.5 Q661 771 646 771 Z " />
<glyph glyph-name="wdieresis" unicode="&#x1e85;" horiz-adv-x="721" d="M564 0 L449 0 L424 255 Q422 269 421.5 291.5 Q421 314 421 331 Q415 314 406.5 291.5 Q398 269 392 255 L284 0 L170 0 L119 511 L242 511 L256 262 Q257 247 257 229 Q257 211 257 195 Q262 211 269.5 229 Q277 247 283 262 L388 511 L509 511 L529 262 Q531 247 531 226 Q531 205 531 195 Q537 211 543.5 229 Q550 247 556 262 L656 511 L782 511 L564 0 Z M374 581 Q346 581 329.5 598.5 Q313 616 313 642 Q313 660 320 675.5 Q327 691 338.5 702.5 Q350 714 364 720.5 Q378 727 393 727 Q422 727 439 709.5 Q456 692 456 666 Q456 648 449 632.5 Q442 617 430.5 605.5 Q419 594 404.5 587.5 Q390 581 374 581 Z M557 581 Q528 581 512 598.5 Q496 616 496 642 Q496 660 502.5 675.5 Q509 691 520.5 702.5 Q532 714 546.5 720.5 Q561 727 577 727 Q606 727 622.5 709.5 Q639 692 639 666 Q639 648 632 632.5 Q625 617 613.5 605.5 Q602 594 587 587.5 Q572 581 557 581 Z " />
<glyph glyph-name="Ygrave" unicode="&#x1ef2;" horiz-adv-x="684" d="M273 0 L323 282 L150 700 L292 700 L408 414 L624 700 L778 700 L459 279 L410 0 L273 0 Z M446 766 L298 922 L459 922 L568 766 L446 766 Z " />
<glyph glyph-name="ygrave" unicode="&#x1ef3;" horiz-adv-x="547" d="M240 -194 L99 -194 L210 10 L114 511 L242 511 L297 216 Q299 205 301 192 Q303 179 304 169 Q309 182 314.5 193.5 Q320 205 326 216 L486 511 L625 511 L240 -194 Z M366 576 L218 732 L379 732 L488 576 L366 576 Z " />
<glyph glyph-name="afii00208" unicode="&#x2015;" horiz-adv-x="552" d="M36 230 L56 344 L618 344 L598 230 L36 230 Z " />
<glyph glyph-name="quotereversed" unicode="&#x201b;" horiz-adv-x="237" d="M225 418 Q188 445 164 492.5 Q140 540 140 589 Q140 650 170.5 681 Q201 712 241 712 Q269 712 288.5 693 Q308 674 308 642 Q308 606 287.5 583 Q267 560 238 551 Q240 539 245.5 525.5 Q251 512 258 499 Q265 486 272 475.5 Q279 465 285 459 L225 418 Z " />
<glyph glyph-name="minute" unicode="&#x2032;" horiz-adv-x="238" d="M182 730 L333 730 L213 397 L104 397 L182 730 Z " />
<glyph glyph-name="second" unicode="&#x2033;" horiz-adv-x="430" d="M182 730 L333 730 L213 397 L104 397 L182 730 Z M374 730 L525 730 L405 397 L353 397 L296 397 L374 730 Z " />
<glyph glyph-name="nsuperior" unicode="&#x207f;" horiz-adv-x="463" d="M354 283 L396 515 Q398 523 399 537.5 Q400 552 400 557 Q400 587 385 600 Q370 613 348 613 Q316 613 290.5 590.5 Q265 568 258 529 L214 283 L108 283 L183 704 L289 704 L282 662 Q322 714 390 714 Q412 714 433.5 706 Q455 698 472 682 Q489 666 499 641 Q509 616 509 582 Q509 575 508.5 563 Q508 551 506 544 L460 283 L354 283 Z " />
<glyph glyph-name="afii08941" unicode="&#x20a4;" horiz-adv-x="576" d="M76 0 L98 124 Q122 135 140.5 154 Q159 173 173 196 L107 196 L124 296 L203 296 L203 311 Q203 322 202.5 336.5 Q202 351 201 362 L136 362 L153 462 L186 462 Q186 464 185.5 470.5 Q185 477 185 478 Q185 521 199.5 563 Q214 605 246 638 Q278 671 329 691.5 Q380 712 453 712 Q508 712 560.5 692.5 Q613 673 655 638 L587 518 Q577 528 561.5 540 Q546 552 526.5 562.5 Q507 573 483.5 580 Q460 587 433 587 Q401 587 378.5 579 Q356 571 342 557 Q328 543 321.5 524.5 Q315 506 315 486 Q315 481 316 474 Q317 467 318 462 L507 462 L490 362 L336 362 Q337 352 337.5 345.5 Q338 339 338 331 Q338 322 337.5 313 Q337 304 336 296 L478 296 L461 196 L305 196 Q295 176 282.5 158.5 Q270 141 256 127 L569 127 L547 0 L76 0 Z " />
<glyph glyph-name="afii61248" unicode="&#x2105;" horiz-adv-x="1030" d="M280 272 Q208 272 168.5 318 Q129 364 129 442 Q129 503 146 553 Q163 603 193.5 638.5 Q224 674 266 693 Q308 712 358 712 Q421 712 458.5 682.5 Q496 653 504 589 L400 555 Q396 579 381 594.5 Q366 610 340 610 Q316 610 296.5 598.5 Q277 587 263 567 Q249 547 241.5 519.5 Q234 492 234 460 Q234 422 250 398 Q266 374 296 374 Q323 374 345 390 Q367 406 380 436 L472 405 Q413 272 280 272 Z M795 -12 Q723 -12 683 33.5 Q643 79 643 157 Q643 218 660 268 Q677 318 707.5 353.5 Q738 389 780 408 Q822 427 872 427 Q944 427 984 381 Q1024 335 1024 257 Q1024 195 1007 145.5 Q990 96 959.5 61 Q929 26 887 7 Q845 -12 795 -12 Z M813 90 Q861 90 890 131 Q919 172 919 239 Q919 277 902.5 301 Q886 325 854 325 Q806 325 776.5 283.5 Q747 242 747 176 Q747 137 764 113.5 Q781 90 813 90 Z M221 -12 L808 712 L918 712 L331 -12 L221 -12 Z " />
<glyph glyph-name="afii61289" unicode="&#x2113;" horiz-adv-x="478" d="M249 -12 Q201 -12 172 9.5 Q143 31 143 81 Q143 97 146 115 L161 200 Q153 196 142.5 191 Q132 186 124 184 L104 288 Q127 298 148 308.5 Q169 319 183 326 L215 503 Q225 562 243 602 Q261 642 285 666.5 Q309 691 339.5 701.5 Q370 712 406 712 Q465 712 501 680.5 Q537 649 537 589 Q537 528 513.5 479.5 Q490 431 455 393 Q420 355 378 325.5 Q336 296 299 273 L277 149 Q276 143 275.5 138 Q275 133 275 129 Q275 113 281.5 107.5 Q288 102 300 102 Q317 102 339 114 Q361 126 385 149 L407 56 Q373 24 332 6 Q291 -12 249 -12 Z M388 612 Q380 612 374 608 Q368 604 362.5 593 Q357 582 352 562 Q347 542 341 509 L323 406 Q357 434 383.5 475.5 Q410 517 410 573 Q410 590 404.5 601 Q399 612 388 612 Z " />
<glyph glyph-name="afii61352" unicode="&#x2116;" horiz-adv-x="1141" d="M507 0 L312 408 Q307 419 302 433.5 Q297 448 293 461 Q293 450 291 434.5 Q289 419 287 408 L215 0 L86 0 L209 700 L331 700 L520 297 Q525 287 530.5 272.5 Q536 258 539 244 Q540 258 541.5 272.5 Q543 287 545 297 L616 700 L745 700 L622 0 L507 0 Z M718 104 L737 210 L1106 210 L1087 104 L718 104 Z M933 273 Q861 273 821 318.5 Q781 364 781 442 Q781 503 798 553 Q815 603 845.5 638.5 Q876 674 918.5 693 Q961 712 1011 712 Q1083 712 1122 666 Q1161 620 1161 542 Q1161 481 1144 431.5 Q1127 382 1097 346.5 Q1067 311 1025 292 Q983 273 933 273 Z M951 376 Q999 376 1028.5 416 Q1058 456 1058 523 Q1058 562 1041 586 Q1024 610 993 610 Q944 610 915 568 Q886 526 886 460 Q886 422 902.5 399 Q919 376 951 376 Z " />
<glyph glyph-name="Ohm" unicode="&#x2126;" horiz-adv-x="715" d="M396 0 L415 107 Q505 179 547 255.5 Q589 332 589 409 Q589 445 582 477 Q575 509 559.5 532 Q544 555 519.5 568.5 Q495 582 459 582 Q406 582 369 559 Q332 536 309 500.5 Q286 465 275.5 422 Q265 379 265 340 Q265 276 287 214.5 Q309 153 342 107 L323 0 L67 0 L90 130 L199 130 Q186 147 173.5 171.5 Q161 196 151.5 226.5 Q142 257 136 291.5 Q130 326 130 363 Q130 417 149.5 478.5 Q169 540 209.5 592 Q250 644 311 678 Q372 712 456 712 Q533 712 585 686.5 Q637 661 668 622 Q699 583 712 537 Q725 491 725 450 Q725 396 713 349 Q701 302 679.5 261.5 Q658 221 629 188 Q600 155 567 130 L674 130 L651 0 L396 0 Z " />
<glyph glyph-name="estimated" unicode="&#x212e;" horiz-adv-x="749" d="M441 -12 Q370 -12 307.5 13.5 Q245 39 198 86 Q151 133 123.5 200 Q96 267 96 350 Q96 442 125 510.5 Q154 579 202.5 624.5 Q251 670 314 692.5 Q377 715 444 715 Q508 715 566.5 692 Q625 669 670 623 Q715 577 743.5 509 Q772 441 776 350 L253 350 L253 131 Q277 96 326 72 Q375 48 441 48 Q513 48 574 80.5 Q635 113 683 187 L734 156 Q708 118 679.5 87 Q651 56 615.5 34 Q580 12 537.5 0 Q495 -12 441 -12 Z M624 577 Q596 610 547 632.5 Q498 655 441 655 Q382 655 335 637 Q288 619 253 586 L253 408 L624 409 L624 577 Z " />
</font>
</svg>
