<svg xmlns="http://www.w3.org/2000/svg" height="52" width="52" viewBox="0 0 520 520" fill="#fff"><path d="M463 112a37 37 0 0 1 37 37v222a37 37 0 0 1-37 37H194a57 57 0 0 0 53-37h207a9 9 0 0 0 9-10V177a9 9 0 0 0-9-9H190a78 78 0 0 0-68-37h-4a37 37 0 0 1 32-19zm-341 47a53 53 0 0 1 53 52 42 42 0 0 1 0 5 54 54 0 0 1-18 41 29 29 0 0 0-11 21c0 8 3 15 18 22l11 5 7 3 7 4c18 10 33 21 34 39a29 29 0 0 1-26 30H49a29 29 0 0 1-29-30v-1c0-20 17-32 38-42l7-3 10-4c20-8 22-15 22-23a33 33 0 0 0-12-21 54 54 0 0 1-18-41 53 53 0 0 1 48-57 59 59 0 0 1 6 0z"/></svg>