<svg id="Layer_1" data-name="Layer 1" xmlns="http://www.w3.org/2000/svg" width="52" height="52" viewBox="0 0 52 52"><path d="M38.78,26.78c1.41,0,2.53,1.53,3.78,2.06s3.18.23,4.14,1.24.7,2.84,1.23,4.14S50,36.58,50,38s-1.53,2.54-2.07,3.78S47.69,45,46.7,45.92s-2.85.7-4.14,1.24-2.37,2.06-3.78,2.06S36.24,47.69,35,47.16s-3.18-.23-4.13-1.24-.72-2.84-1.24-4.14S27.55,39.42,27.55,38s1.53-2.54,2.07-3.78.23-3.19,1.24-4.14,2.83-.7,4.13-1.24S37.35,26.78,38.78,26.78Zm2.86-24a2.23,2.23,0,0,1,2.17,2.16h0V26.4l-.21-.09c-1.58-.67-3-2.64-4.82-2.64-1.35,0-2.5,1.1-3.64,1.93V17.79a.77.77,0,0,0-.21-.56.79.79,0,0,0-.57-.21H32.72a.68.68,0,0,0-.47.21.73.73,0,0,0-.21.56v9a12.29,12.29,0,0,0-2.25.45V17.79A.76.76,0,0,0,29,17h0a.78.78,0,0,0-.78.77h0V28.44a9.1,9.1,0,0,0-.77,3.21H11.23a.73.73,0,0,0-.48.21.69.69,0,0,0-.2.56v.87a.74.74,0,0,0,.2.47.82.82,0,0,0,.56.22H26.65c-.85,1.25-2.2,2.52-2.2,4,0,1.85,2,3.24,2.64,4.83a7,7,0,0,1,.41,1.63H15.78v2.25a2.22,2.22,0,0,1-2.17,2.17H11.14A2.22,2.22,0,0,1,9,46.71H9V44.58H4.17A2.21,2.21,0,0,1,2,42.41H2V4.94A2.21,2.21,0,0,1,4.17,2.78ZM43,34.31a.57.57,0,0,0-.81,0h0l-4.37,5-2-2a.56.56,0,0,0-.79,0h0l-.81.77a.52.52,0,0,0-.06.72l.06.06h0L37,41.63a1.21,1.21,0,0,0,.82.36,1,1,0,0,0,.81-.36l5.2-5.76a.63.63,0,0,0,0-.78h0ZM14.48,17H11.23a.73.73,0,0,0-.48.21.69.69,0,0,0-.2.56V29.5a.7.7,0,0,0,.76.68h3.11a.73.73,0,0,0,.77-.68v-.09h0V17.79a.72.72,0,0,0-.67-.77h0Zm4.62,0H17.4a.73.73,0,0,0-.48.21.7.7,0,0,0-.21.56V29.5a.82.82,0,0,0,.22.47.77.77,0,0,0,.56.21H19a.73.73,0,0,0,.6-.18.74.74,0,0,0,.22-.56h0V17.79a.74.74,0,0,0-.22-.56A.72.72,0,0,0,19,17Zm7,0H22.82a.73.73,0,0,0-.48.21.7.7,0,0,0-.21.56V29.5a.72.72,0,0,0,.76.68H26a.74.74,0,0,0,.78-.68v-.09h0V17.79a.74.74,0,0,0-.67-.79Zm8.52-3.87H11.23a.78.78,0,0,0-.48.21.71.71,0,0,0-.2.57v.85a.71.71,0,0,0,.73.69H34.52a.77.77,0,0,0,.56-.21.72.72,0,0,0,.21-.57h0v-.76a.72.72,0,0,0-.21-.57.77.77,0,0,0-.56-.21Z" fill="#fff"/></svg>