<?xml version="1.0" encoding="utf-8"?>
<!-- Generator: Adobe Illustrator 21.1.0, SVG Export Plug-In . SVG Version: 6.00 Build 0)  -->
<svg version="1.1" id="Layer_1" xmlns="http://www.w3.org/2000/svg" xmlns:xlink="http://www.w3.org/1999/xlink" x="0px" y="0px"
	 width="52px" height="52px" viewBox="0 0 52 52" enable-background="new 0 0 52 52" xml:space="preserve">
<path fill="#FFFFFF" d="M46.3,19.7H5.7c-0.9,0-1.6,0.7-1.6,1.6v23.5c0,2.6,2.1,4.7,4.7,4.7h34.4c2.6,0,4.7-2.1,4.7-4.7V21.3
	C47.9,20.4,47.2,19.7,46.3,19.7z M18.2,41.6c0,0.9-0.7,1.6-1.6,1.6h-3.1c-0.9,0-1.6-0.7-1.6-1.6v-3.1c0-0.9,0.7-1.6,1.6-1.6h3.1
	c0.9,0,1.6,0.7,1.6,1.6V41.6z M29.1,41.6c0,0.9-0.7,1.6-1.6,1.6h-3.1c-0.9,0-1.6-0.7-1.6-1.6v-3.1c0-0.9,0.7-1.6,1.6-1.6h3.1
	c0.9,0,1.6,0.7,1.6,1.6V41.6z M29.1,30.7c0,0.9-0.7,1.6-1.6,1.6h-3.1c-0.9,0-1.6-0.7-1.6-1.6v-3.1c0-0.9,0.7-1.6,1.6-1.6h3.1
	c0.9,0,1.6,0.7,1.6,1.6V30.7z M40.1,30.7c0,0.9-0.7,1.6-1.6,1.6h-3.1c-0.9,0-1.6-0.7-1.6-1.6v-3.1c0-0.9,0.7-1.6,1.6-1.6h3.1
	c0.9,0,1.6,0.7,1.6,1.6V30.7z M43.2,7.2h-3.9V5.6c0-1.7-1.4-3.1-3.1-3.1c-1.7,0-3.1,1.4-3.1,3.1v1.6H19V5.6c0-1.7-1.4-3.1-3.1-3.1
	s-3.1,1.4-3.1,3.1v1.6H8.8c-2.6,0-4.7,2.1-4.7,4.7v1.6c0,0.9,0.7,1.6,1.6,1.6h40.7c0.9,0,1.6-0.7,1.6-1.6v-1.6
	C47.9,9.3,45.8,7.2,43.2,7.2z"/>
</svg>
