<?xml version="1.0" encoding="utf-8"?>
<!-- Generator: Adobe Illustrator 21.1.0, SVG Export Plug-In . SVG Version: 6.00 Build 0)  -->
<svg version="1.1" id="Layer_1" xmlns="http://www.w3.org/2000/svg" xmlns:xlink="http://www.w3.org/1999/xlink" x="0px" y="0px"
	 width="52px" height="52px" viewBox="0 0 52 52" enable-background="new 0 0 52 52" xml:space="preserve">
<path fill="#FFFFFF" d="M40.9,23.6c-0.2,0-0.3,0-0.5,0c0-0.3,0-0.5,0-0.8c0-5-4.1-9.1-9.1-9.1c-2.4,0-4.5,0.9-6.1,2.4
	c-1.3-3.4-4.6-5.9-8.5-5.9c-5,0-9.1,4.1-9.1,9.1c0,1.7,0.5,3.2,1.2,4.6c-4,1-6.9,4.5-6.9,8.8c0,4.9,3.8,8.8,8.7,9v0h30.2
	c5,0,9.1-4.1,9.1-9.1S45.9,23.6,40.9,23.6z M16.3,24.4l7.8-3.7c0.3-0.2,0.8-0.2,1.1,0l7.8,3.7c0.5,0.2,0.5,0.8,0,1.1l-7.8,3.7
	c-0.3,0.2-0.8,0.2-1.1,0l-7.8-3.7C15.9,25.3,15.9,24.6,16.3,24.4z M33.1,33.6l-7.8,3.7c-0.3,0.2-0.8,0.2-1.1,0l-7.8-3.7
	c-0.5-0.2-0.5-0.8,0-1.1l1-0.5c0.1-0.1,0.3-0.1,0.5,0l6.3,3c0.3,0.2,0.8,0.2,1.1,0l6.2-3c0.1-0.1,0.3-0.1,0.5,0l1,0.5
	C33.5,32.7,33.5,33.4,33.1,33.6z M33.1,29.6l-7.8,3.7c-0.3,0.2-0.8,0.2-1.1,0l-7.8-3.7c-0.5-0.2-0.5-0.8,0-1.1l1.1-0.5
	c0.1-0.1,0.3-0.1,0.5,0l6.2,3c0.3,0.2,0.8,0.2,1.1,0l6.2-3c0.1-0.1,0.3-0.1,0.5,0l1.1,0.5C33.5,28.7,33.5,29.3,33.1,29.6z"/>
</svg>
