<svg viewBox="0 0 24 24" xmlns="http://www.w3.org/2000/svg"><path d="M17.0047 16.0029H19.0047V4.00293H9.00468V6.00293H17.0047V16.0029ZM17.0047 18.0029V21.0021C17.0047 21.5548 16.5547 22.0029 15.9978 22.0029H4.01154C3.45548 22.0029 3.00488 21.5583 3.00488 21.0021L3.00748 7.0038C3.00759 6.45104 3.45752 6.00293 4.0143 6.00293H7.00468V3.00293C7.00468 2.45064 7.4524 2.00293 8.00468 2.00293H20.0047C20.557 2.00293 21.0047 2.45064 21.0047 3.00293V17.0029C21.0047 17.5552 20.557 18.0029 20.0047 18.0029H17.0047ZM7.00468 16.0029V18.0029H9.00468V19.0029H11.0047V18.0029H11.5047C12.8854 18.0029 14.0047 16.8836 14.0047 15.5029C14.0047 14.1222 12.8854 13.0029 11.5047 13.0029H8.50468C8.22854 13.0029 8.00468 12.7791 8.00468 12.5029C8.00468 12.2268 8.22854 12.0029 8.50468 12.0029H13.0047V10.0029H11.0047V9.00293H9.00468V10.0029H8.50468C7.12397 10.0029 6.00468 11.1222 6.00468 12.5029C6.00468 13.8836 7.12397 15.0029 8.50468 15.0029H11.5047C11.7808 15.0029 12.0047 15.2268 12.0047 15.5029C12.0047 15.7791 11.7808 16.0029 11.5047 16.0029H7.00468Z"/></svg>