<svg viewBox="0 0 24 24" xmlns="http://www.w3.org/2000/svg"><path d="M12.0049 22.0029C6.48204 22.0029 2.00488 17.5258 2.00488 12.0029C2.00488 6.48008 6.48204 2.00293 12.0049 2.00293C17.5277 2.00293 22.0049 6.48008 22.0049 12.0029C22.0049 17.5258 17.5277 22.0029 12.0049 22.0029ZM10.0549 11.0029C10.2865 9.86181 11.2954 9.00293 12.5049 9.00293C13.1201 9.00293 13.6834 9.22515 14.1189 9.59369L15.8198 8.45969C14.9973 7.5642 13.8166 7.00293 12.5049 7.00293C10.1886 7.00293 8.28107 8.75295 8.03235 11.0029H7.00488V13.0029H8.03235C8.28107 15.2529 10.1886 17.0029 12.5049 17.0029C13.8166 17.0029 14.9973 16.4417 15.8198 15.5462L14.1188 14.4122C13.6833 14.7807 13.1201 15.0029 12.5049 15.0029C11.2954 15.0029 10.2865 14.144 10.0549 13.0029H15.0049V11.0029H10.0549Z"/></svg>