<?xml version="1.0" encoding="utf-8"?>
<!-- Generator: Adobe Illustrator 16.0.0, SVG Export Plug-In . SVG Version: 6.00 Build 0)  -->
<!DOCTYPE svg PUBLIC "-//W3C//DTD SVG 1.1//EN" "http://www.w3.org/Graphics/SVG/1.1/DTD/svg11.dtd">
<svg version="1.1" id="Layer_1" xmlns="http://www.w3.org/2000/svg" xmlns:xlink="http://www.w3.org/1999/xlink" x="0px" y="0px"
	 width="100px" height="100px" viewBox="0 0 100 100" enable-background="new 0 0 100 100" xml:space="preserve">
<g>
	<path fill="#FFFFFF" d="M78.1,70H21.9c-1,0-1.9,0.8-1.9,1.8V71.9c0,4.5,5.6,8.1,10,8.1h40c4.4,0,10-3.6,10-8.1V71.8
		C80,70.8,79.1,70,78.1,70z"/>
	<path fill="#FFFFFF" d="M23,64h18c1.1,0,2-1.1,2-2.2V27.4c0-0.5-0.7-0.7-0.9-0.2l-20,35.2C21.8,63.1,22.2,64,23,64z"/>
	<path fill="#FFFFFF" d="M51,64h25c1.2,0,2.1-1.1,2-2.3c-0.9-7.2-2.1-29.6-27.6-41.6C49.8,19.8,49,20.2,49,21v40.8
		C49,62.9,49.9,64,51,64z"/>
</g>
</svg>
