<svg xmlns="http://www.w3.org/2000/svg" height="52" width="52" viewBox="0 0 520 520" fill="#fff"><path d="M376 117a287 287 0 0 0-65 30 441 441 0 0 1-8 104l61 46 9 8 43-18 1-1a222 222 0 0 0 15-55c3-19 4-40 2-63l-58-51Zm-15-27-1-3a198 198 0 0 0-157-19v27a235 235 0 0 1 88 29 366 366 0 0 1 35-20 298 298 0 0 1 35-14ZM222 430a611 611 0 0 0 111-22 321 321 0 0 0 17-46l6-33-11-9a1307 1307 0 0 0-63-48 170 170 0 0 1-37 17c-11 3-28 6-52 8a247 247 0 0 0-17 45 402 402 0 0 0-7 44 195 195 0 0 0 22 23 269 269 0 0 0 31 20ZM94 374h46a248 248 0 0 1 23-83 431 431 0 0 1-30-37c-5-8-13-17-22-39a59 59 0 0 0-13 3 158 158 0 0 0-37 19 201 201 0 0 0 33 137Zm359-61a202 202 0 0 0 6-66 252 252 0 0 1-12 44l4 8a70 70 0 0 1 2 14ZM106 185l1-2a444 444 0 0 1 33-49c7-9 19-19 34-32a589 589 0 0 1-1-22A202 202 0 0 0 70 197l19-8a87 87 0 0 1 17-4Zm266 243c-17 6-40 12-69 20a603 603 0 0 1-77 11 200 200 0 0 0 146-31Zm128-167c0 133-108 241-240 241a241 241 0 0 1 0-482c132 0 240 108 240 241Z"/></svg>