<svg xmlns="http://www.w3.org/2000/svg" height="52" width="52" viewBox="0 0 520 520" fill="#fff"><path d="M452 149H68a48 48 0 0 0-48 47v256a49 49 0 0 0 48 48h384a49 49 0 0 0 48-48V196a48 48 0 0 0-48-47ZM174 298l14-14a10 10 0 0 1 14 0l24 24a6 6 0 0 0 9 0 6 6 0 0 0 2-5v-87a10 10 0 0 1 10-10h23a10 10 0 0 1 10 10v87a7 7 0 0 0 11 5l24-24a10 10 0 0 1 14 0l14 14a10 10 0 0 1 0 14l-78 76a10 10 0 0 1-14 0l-77-76a10 10 0 0 1 0-14Zm178 140a10 10 0 0 1-10 10H178a10 10 0 0 1-10-10v-21a10 10 0 0 1 10-10h164a10 10 0 0 1 10 10ZM157 100h32a7 7 0 0 0 8-7V68h127v24a7 7 0 0 0 7 8h33a7 7 0 0 0 8-7V68a49 49 0 0 0-48-48H197a48 48 0 0 0-48 48v24a7 7 0 0 0 7 8Z"/></svg>