<svg xmlns="http://www.w3.org/2000/svg" height="52" width="52" viewBox="0 0 520 520" fill="#fff"><path d="M309 24a14 14 0 0 0-20 0l-20 18a13 13 0 0 0 0 20l33 32a9 9 0 0 1-6 16H114a15 15 0 0 0-15 14v28a15 15 0 0 0 15 13h182a9 9 0 0 1 7 15l-34 33a13 13 0 0 0 0 19l20 20a14 14 0 0 0 20 0l108-105a13 13 0 0 0 0-19Zm-99 244a14 14 0 0 1 20 0l20 18a13 13 0 0 1 0 20l-34 32a9 9 0 0 0 7 16h182a15 15 0 0 1 15 14v27a15 15 0 0 1-15 14H224a9 9 0 0 0-7 15l34 33a13 13 0 0 1 0 20l-20 19a14 14 0 0 1-20 0L104 392a13 13 0 0 1 0-20Z"/></svg>