<?xml version="1.0"?><svg xmlns="http://www.w3.org/2000/svg" width="56" height="64" viewBox="0 0 56 64"><path fill="#003462" d="m51.5 15.5c2.5 0 4.5 2 4.5 4.5v31c0 2.5-2 4.5-4.5 4.5h-47c-2.5 0-4.5-2-4.5-4.5v-38c0-2.5 2-4.5 4.5-4.5h11.5c3.8 0 4.2 1.2 6.7 4.5 2.1 2.7 7.2 2.5 10.4 2.5h18.4z"></path><path fill="#87C8F2" d="m51.5 18.1h-42.3c-2.5 0-4.5 2-4.5 4.5v2.9l4.5-6.5h42.3l4.5 6.5v-2.9c0-2.5-2-4.5-4.5-4.5z"></path><path fill="#00A1E0" d="m4.6 55.5h46.9c2.5 0 4.5-2 4.5-4.5v-27.5c0-2.5-2-4.5-4.5-4.5h-42.2c-2.5-0.1-4.5 1.9-4.6 4.4v28.3c0 1.3-1 2.3-2.3 2.3-1.3 0-2.3-1-2.3-2.3 0.3 2.2 2.3 3.8 4.5 3.8z"></path><g fill="#fff"><path d="m25.5 37.8h3.6v11.5h-3.6z m6.1 0h3.6v11.5h-3.6z m14.8-6l-15-6.2c-0.4-0.2-0.7-0.3-1.1-0.3-0.1 0-0.5 0-1.1 0.3l-15 6.2c-0.3 0.2-0.5 0.5-0.5 0.8v0.9c0 0.5 0.4 0.9 0.9 0.9h2.9v14c0 0.5 0.4 0.9 0.9 0.9h4.5v-11.5h-1.8c-0.4 0-0.6-0.2-0.6-0.6v-1.2c0-0.4 0.2-0.6 0.6-0.6h18.3c0.4 0 0.6 0.2 0.6 0.6v1.2c0 0.4-0.2 0.6-0.6 0.6h-1.8v11.5h4.5c0.5 0 0.9-0.4 0.9-0.9v-14h2.9c0.5 0 0.9-0.4 0.9-0.9v-0.8c0.1-0.4-0.1-0.7-0.4-0.9z m-16.1 0.5c-1.1 0-1.9-0.9-1.9-1.9 0-1.1 0.9-1.9 1.9-1.9 1.1 0 1.9 0.9 1.9 1.9 0 1-0.8 1.9-1.9 1.9z"></path></g></svg>