<svg xmlns="http://www.w3.org/2000/svg" viewBox="0 0 24 24">
    <g>
        <path fill="none" d="M0 0h24v24H0z"/>
        <path d="M6.5 11.5a4.5 4.5 0 1 1 0-9 4.5 4.5 0 0 1 0 9zm.5 10a4.5 4.5 0 1 1 0-9 4.5 4.5 0 0 1 0 9zm10-10a4.5 4.5 0 1 1 0-9 4.5 4.5 0 0 1 0 9zm0 10a4.5 4.5 0 1 1 0-9 4.5 4.5 0 0 1 0 9zM6.5 9.5a2.5 2.5 0 1 0 0-5 2.5 2.5 0 0 0 0 5zm.5 10a2.5 2.5 0 1 0 0-5 2.5 2.5 0 0 0 0 5zm10-10a2.5 2.5 0 1 0 0-5 2.5 2.5 0 0 0 0 5zm0 10a2.5 2.5 0 1 0 0-5 2.5 2.5 0 0 0 0 5z"/>
    </g>
</svg>
