<svg id="a" xmlns="http://www.w3.org/2000/svg" width="100" height="100" viewBox="0 0 100 100"><path d="M78.87,59.31c-1.14-2.75-3.07-5.1-5.55-6.76-2.48-1.65-5.39-2.54-8.37-2.54-8.23,0-15.05,6.73-15.05,15.05,0,2.98.88,5.89,2.54,8.37,1.65,2.48,4.01,4.41,6.76,5.55s5.78,1.44,8.7.86,5.6-2.01,7.71-4.12,3.54-4.79,4.12-7.71.28-5.95-.86-8.7h.01ZM66.82,73.18c0,.73-.6,1.33-1.33,1.33h-1.13c-.73,0-1.33-.6-1.33-1.33v-8.96c0-.73.6-1.33,1.33-1.33h1.13c.73,0,1.33.6,1.33,1.33v8.96ZM66.3,59.95c-.37.37-.83.55-1.38.55s-1-.18-1.37-.55-.56-.81-.56-1.31.19-.95.56-1.32c.37-.37.83-.55,1.37-.55s1.01.18,1.38.55.55.81.55,1.32-.18.94-.55,1.31Z" fill="#fff" stroke-width="0"/><path d="M45.03,66.61c-.38-4.19.6-8.39,2.78-11.99,2.11-3.61,4.52-5.12,6.42-7.93,3.11-4.62,3.71-11.24,1.71-16.25-2.01-5.12-6.73-8.13-12.25-8.03-5.52.1-10.04,3.51-11.74,8.63-2.01,5.62-1.1,12.45,3.41,16.65,1.91,1.71,3.51,4.42,2.61,7.03-.2.5-.8,1.3-2.21,1.91-5.72,2.51-11.54,5.52-14.14,9.74-.5.8-1.51,2.81-1.61,5.62-.02,1.01.05,2.02.2,3.01.3,1.71,1.3,3.21,2.81,4.12.6.3,2.01.8,4.72.8h21.17c1,0,1.61-1.2,1-2.01-2.8-3.15-4.51-7.11-4.89-11.3h0Z" fill="#fff" stroke-width="0"/></svg>