<?xml version="1.0" standalone="no"?> 
<!DOCTYPE svg PUBLIC "-//W3C//DTD SVG 1.1//EN" "http://www.w3.org/Graphics/SVG/1.1/DTD/svg11.dtd" >
<svg xmlns="http://www.w3.org/2000/svg">
<metadata>(c) Stephen Hutchings 2012-2021</metadata>
<defs>
  <font id="Typicons" horiz-adv-x="24">
    <font-face font-family="typicons"
      units-per-em="1000" ascent="800"
      descent="200" />
    <missing-glyph horiz-adv-x="0" />
    <glyph glyph-name="adjust-brightness"
      unicode="&#xE000;"
      horiz-adv-x="1000" d=" M500 511.1L541.7 633.3C544.7 642.2 544.9 652.2 541.7 661.8C533.8 684.8 508.8 697.1 485.8 689.2C462.7 681.3 450.5 656.4 458.3 633.3L500 511.1zM166.7 341.7C157.8 344.7 147.8 344.9 138.3 341.7C115.2 333.8 102.9 308.8 110.8 285.8C118.7 262.8 143.6 250.5 166.7 258.3L288.9 300L166.7 341.7zM500 88.9L458.3 -33.3C455.3 -42.2 455.1 -52.2 458.3 -61.7C466.2 -84.8 491.2 -97.1 514.2 -89.2C537.3 -81.3 549.5 -56.4 541.7 -33.3L500 88.9zM889.2 314.3C881.4 337.3 856.4 349.6 833.3 341.8L711.1 300.1L833.3 258.4C842.2 255.4 852.2 255.2 861.7 258.4C884.7 266.3 897 291.3 889.2 314.3zM234.8 506.3L350.7 449.3L293.8 565.2C289.6 573.6 282.7 580.8 273.7 585.3C251.8 596 225.5 587 214.7 565.2C204 543.4 213 517 234.8 506.3zM214.7 73.7C204 51.9 213 25.5 234.8 14.8C256.6 4 283 13 293.7 34.8L350.7 150.7L234.8 93.8C226.4 89.6 219.2 82.8 214.7 73.7zM765.1 93.8L649.2 150.8L706.2 34.9C710.4 26.5 717.2 19.3 726.3 14.8C748.1 4.1 774.5 13.1 785.2 34.9S787 83.1 765.1 93.8zM785.2 526.4C795.9 548.3 786.9 574.6 765.1 585.4C743.3 596.1 716.9 587.1 706.2 565.3L649.2 449.3L765.1 506.3C773.5 510.5 780.7 517.3 785.2 526.4zM500 487.5C396.6 487.5 312.5 403.4 312.5 300S396.6 112.5 500 112.5S687.5 196.6 687.5 300S603.4 487.5 500 487.5z" />
    <glyph glyph-name="adjust-contrast"
      unicode="&#xE001;"
      horiz-adv-x="1000" d=" M500 633.3C315.9 633.3 166.7 484.1 166.7 300S315.9 -33.3 500 -33.3S833.3 115.9 833.3 300S684.1 633.3 500 633.3zM500 50C361.9 50 250 161.9 250 300S361.9 550 500 550S750 438.1 750 300S638.1 50 500 50zM500 508.3V91.7C614.9 91.7 708.3 185.1 708.3 300S614.9 508.3 500 508.3z" />
    <glyph glyph-name="anchor-outline"
      unicode="&#xE002;"
      horiz-adv-x="1000" d=" M458.3 550C458.3 527 477 508.3 500 508.3C523 508.3 541.7 527 541.7 550C541.7 573 523 591.7 500 591.7C477 591.7 458.3 573 458.3 550z M824.7 296C830.3 310.2 833.3 325.5 833.3 341.7C833.3 410.6 777.3 466.7 708.3 466.7H690.7C702.1 492.5 708.3 520.7 708.3 550C708.3 664.9 614.9 758.3 500 758.3S291.7 664.9 291.7 550C291.7 520.7 297.9 492.5 309.2 466.7H291.7C222.8 466.7 166.7 410.6 166.7 341.7C166.7 325.5 169.7 310.2 175.3 296C144.8 273.2 125 236.8 125 195.8C125 -11 293.2 -179.2 500 -179.2S875 -11 875 195.8C875 236.8 855.2 273.2 824.7 296zM500 -95.8C339.2 -95.8 208.3 35 208.3 195.8C208.3 218.9 227 237.5 250 237.5S291.7 218.9 291.7 195.8C291.7 95.3 363.4 11.1 458.3 -8.2V300H291.7C268.6 300 250 318.6 250 341.7S268.6 383.3 291.7 383.3H458.3V432.7C409.9 449.9 375 495.6 375 550C375 619 431 675 500 675S625 619 625 550C625 495.6 590.1 449.9 541.7 432.7V383.3H708.3C731.4 383.3 750 364.7 750 341.7S731.4 300 708.3 300H541.7V-8.2C636.6 11.1 708.3 95.3 708.3 195.8C708.3 218.9 727 237.5 750 237.5S791.7 218.9 791.7 195.8C791.7 35 660.8 -95.8 500 -95.8zM305 258.3H416.7V51.6C366.4 80.8 333.3 135.3 333.3 195.8C333.3 220.7 322.4 243 305 258.3zM695 258.3C677.6 243 666.7 220.7 666.7 195.8C666.7 135.3 633.6 80.8 583.3 51.6V258.3H695z M458.3 550C458.3 527 477 508.3 500 508.3C523 508.3 541.7 527 541.7 550C541.7 573 523 591.7 500 591.7C477 591.7 458.3 573 458.3 550z" />
    <glyph glyph-name="anchor"
      unicode="&#xE003;"
      horiz-adv-x="1000" d=" M750 237.5C727 237.5 708.3 218.9 708.3 195.8C708.3 95.3 636.6 11.1 541.7 -8.2V300H708.3C731.4 300 750 318.6 750 341.7S731.4 383.3 708.3 383.3H541.7V432.7C590.1 449.9 625 495.6 625 550C625 619 569 675 500 675S375 619 375 550C375 495.6 409.9 449.9 458.3 432.7V383.3H291.7C268.6 383.3 250 364.7 250 341.7S268.6 300 291.7 300H458.3V-8.2C363.4 11.1 291.7 95.3 291.7 195.8C291.7 218.9 273 237.5 250 237.5S208.3 218.9 208.3 195.8C208.3 35 339.2 -95.8 500 -95.8S791.7 35 791.7 195.8C791.7 218.9 773 237.5 750 237.5zM500 591.7C523 591.7 541.7 573 541.7 550S523 508.3 500 508.3S458.3 527 458.3 550S477 591.7 500 591.7z" />
    <glyph glyph-name="archive"
      unicode="&#xE004;"
      horiz-adv-x="1000" d=" M541.7 300H416.7C405.2 300 395.8 290.7 395.8 279.2S405.2 258.3 416.7 258.3H541.7C553.2 258.3 562.5 267.7 562.5 279.2S553.2 300 541.7 300zM833.3 591.7H125C102 591.7 83.3 573 83.3 550S102 508.3 125 508.3H833.3C856.4 508.3 875 527 875 550S856.4 591.7 833.3 591.7zM750 466.7H208.3C185.3 466.7 166.7 448 166.7 425V91.7C166.7 22.8 222.8 -33.3 291.7 -33.3H666.7C735.6 -33.3 791.7 22.8 791.7 91.7V425C791.7 448 773 466.7 750 466.7zM666.7 50H291.7C268.7 50 250 68.7 250 91.7V383.3H708.3V91.7C708.3 68.7 689.7 50 666.7 50z" />
    <glyph glyph-name="arrow-back-outline"
      unicode="&#xE005;"
      horiz-adv-x="1000" d=" M798.5 -14.5C730.1 89.7 645.6 122.4 541.7 130.7V70.8C541.7 48.6 533 27.7 517.3 11.9C485.8 -19.6 430.7 -19.4 399.6 11.7L137.4 270.3C129.5 278.2 125 288.8 125 300S129.5 321.9 137.4 329.7L399.4 588.2C430.8 619.6 485.8 619.7 517.3 588.1C533 572.4 541.7 551.5 541.7 529.2V458.2C734.1 419.3 875 250 875 50V8.4C875 -10 862.9 -26.3 845.3 -31.5C841.3 -32.7 837.3 -33.3 833.3 -33.3C819.5 -33.3 806.4 -26.4 798.5 -14.5zM501 216.2C592.9 213.9 694.2 199.8 782.5 127.8C750.5 261.8 637.7 365.4 495.3 381.2C474.3 383.5 458.3 383.3 458.3 383.3V529L226 300L458.3 70.9V216.7L501 216.2z" />
    <glyph glyph-name="arrow-back"
      unicode="&#xE006;"
      horiz-adv-x="1000" d=" M500 422.5V529.2C500 539.8 495.9 550.5 487.8 558.7C479.7 566.8 469 570.8 458.3 570.8S437 566.8 428.9 558.7L166.7 300L428.9 41.4C437 33.3 447.7 29.2 458.3 29.2S479.7 33.3 487.8 41.4S500 60.2 500 70.8V174.5C614.6 171.7 739.8 151 833.3 8.3V50C833.3 243 687.5 401.8 500 422.5z" />
    <glyph glyph-name="arrow-down-outline"
      unicode="&#xE007;"
      horiz-adv-x="1000" d=" M500 -88L203.3 208.7C154.5 257.5 154.5 336.8 203.3 385.5C248.9 431 327.4 432.9 375 390.2V591.7C375 660.6 431.1 716.7 500 716.7S625 660.6 625 591.7V390.2C672.6 432.9 751.1 431 796.7 385.5C845.5 336.7 845.5 257.5 796.7 208.7L500 -88zM291.7 338.8C280.5 338.8 270.1 334.4 262.2 326.5C245.9 310.3 245.9 283.9 262.2 267.6L500 29.8L737.8 267.6C754.1 283.9 754.1 310.3 737.8 326.5C722 342.3 694.7 342.3 678.9 326.5L541.7 189.3V591.7C541.7 614.6 523 633.3 500 633.3S458.3 614.6 458.3 591.7V189.3L321.1 326.5C313.3 334.4 302.8 338.8 291.7 338.8z" />
    <glyph glyph-name="arrow-down-thick"
      unicode="&#xE008;"
      horiz-adv-x="1000" d=" M767.3 356C734.7 388.5 682 388.5 649.4 356L583.3 289.9V591.7C583.3 637.7 546 675 500 675C454 675 416.7 637.7 416.7 591.7V289.9L350.6 356C318 388.5 265.3 388.5 232.8 356S200.2 270.7 232.8 238.2L500 -29.1L767.3 238.2C799.8 270.7 799.8 323.4 767.3 356z" />
    <glyph glyph-name="arrow-down"
      unicode="&#xE009;"
      horiz-adv-x="1000" d=" M696.1 246.1C679.8 262.4 653.5 262.4 637.2 246.1L541.7 150.6V466.7C541.7 489.7 523 508.3 500 508.3S458.3 489.7 458.3 466.7V150.6L362.8 246.1C346.5 262.4 320.2 262.4 303.9 246.1S287.6 203.5 303.9 187.2L500 -8.9L696.1 187.2C712.4 203.5 712.4 229.8 696.1 246.1z" />
    <glyph glyph-name="arrow-forward-outline"
      unicode="&#xE00A;"
      horiz-adv-x="1000" d=" M166.7 -33.3C162.7 -33.3 158.7 -32.7 154.8 -31.5C137.1 -26.3 125 -10 125 8.4V50C125 250 265.9 419.4 458.3 458.2V529.2C458.3 551.5 467 572.4 482.7 588.1C514.2 619.7 569.2 619.6 600.6 588.2L862.6 329.7C870.5 321.9 875 311.3 875 300S870.5 278.2 862.6 270.4L600.4 11.8C569.3 -19.3 514.3 -19.5 482.8 12C467 27.7 458.3 48.6 458.3 70.9V130.8C354.4 122.4 269.9 89.7 201.5 -14.4C193.6 -26.4 180.5 -33.3 166.7 -33.3zM500 216.3L541.7 216.7V70.9L774 300L541.7 529V383.3S525.7 383.5 504.5 381.2C362.2 365.4 249.3 261.8 217.4 127.8C305.7 199.8 407 213.9 500 216.3z" />
    <glyph glyph-name="arrow-forward"
      unicode="&#xE00B;"
      horiz-adv-x="1000" d=" M541.7 570.9C531 570.9 520.3 566.8 512.2 558.7C504.1 550.5 500 539.9 500 529.2V422.6C312.5 401.8 166.7 243 166.7 50V8.4C260.2 151 385.4 171.7 500 174.6V70.9C500 60.3 504.1 49.5 512.2 41.4S531 29.2 541.7 29.2S563 33.3 571.1 41.4L833.3 300L571.1 558.7C563 566.8 552.3 570.9 541.7 570.9z" />
    <glyph glyph-name="arrow-left-outline"
      unicode="&#xE00C;"
      horiz-adv-x="1000" d=" M455.3 -75C422 -75 390.5 -62 367 -38.4L70.3 258.3L367 555C414.2 602.3 496.5 602.3 543.7 555C567.3 531.5 580.3 500.2 580.3 466.8C580.3 435.7 569.1 406.3 548.5 383.3H750C818.9 383.3 875 327.3 875 258.3S818.9 133.3 750 133.3H548.5C569 110.5 580.3 81.2 580.3 50.1C580.4 16.7 567.3 -14.8 543.7 -38.4C520.1 -62 488.7 -75 455.3 -75zM188.1 258.3L425.9 20.5C441.7 4.8 469 4.8 484.8 20.5C492.7 28.4 497 38.9 497 50S492.7 71.6 484.9 79.4L347.6 216.7H750C773 216.7 791.7 235.4 791.7 258.3S773 300 750 300H347.6L484.8 437.2C492.7 445.1 497 455.6 497 466.7S492.7 488.2 484.8 496.1C469 511.9 441.7 511.9 425.9 496.1L188.1 258.3z" />
    <glyph glyph-name="arrow-left-thick"
      unicode="&#xE00D;"
      horiz-adv-x="1000" d=" M750 341.7H448.2L514.3 407.8C546.8 440.3 546.8 493.1 514.3 525.6C481.7 558.1 429 558.1 396.4 525.6L129.2 258.3L396.4 -8.9C412.7 -25.2 434 -33.3 455.3 -33.3S498 -25.2 514.3 -8.9C546.8 23.6 546.8 76.5 514.3 108.9L448.2 175H750C796 175 833.3 212.3 833.3 258.3C833.3 304.4 796 341.7 750 341.7z" />
    <glyph glyph-name="arrow-left"
      unicode="&#xE00E;"
      horiz-adv-x="1000" d=" M708.3 341.7H392.2L487.8 437.2C504.1 453.5 504.1 479.8 487.8 496.1S445.2 512.4 428.9 496.1L232.8 300L428.9 103.9C437 95.8 447.7 91.7 458.3 91.7S479.7 95.8 487.8 103.9C504.1 120.2 504.1 146.5 487.8 162.8L392.3 258.3H708.3C731.3 258.3 750 277 750 300S731.3 341.7 708.3 341.7z" />
    <glyph glyph-name="arrow-loop-outline"
      unicode="&#xE00F;"
      horiz-adv-x="1000" d=" M791.4 500.5L791.7 508.3C791.7 541.7 778.7 573.1 755 596.7C731.5 620.3 700 633.3 666.7 633.3S601.9 620.3 578.3 596.7L458.2 476.6C436 496.3 406.9 508.3 375 508.3H333.3C172.5 508.3 41.7 377.5 41.7 216.7S172.5 -75 333.3 -75H708.3C869.1 -75 1000 55.8 1000 216.7C1000 354.4 910.8 470.2 791.4 500.5zM708.3 8.3H333.3C218.5 8.3 125 101.8 125 216.7S218.5 425 333.3 425H375C398 425 416.7 406.3 416.7 383.3S398 341.7 375 341.7H333.3C264.4 341.7 208.3 285.6 208.3 216.7S264.4 91.7 333.3 91.7H708.3C777.3 91.7 833.3 147.8 833.3 216.7S786.6 341.7 729.2 341.7H642.3L696.1 287.8C712.4 271.5 712.4 245.2 696.1 228.9C688 220.8 677.3 216.7 666.7 216.7S645.3 220.8 637.2 228.9L482.7 383.3L637.2 537.8C645.3 545.9 656 550 666.7 550S688 545.9 696.1 537.8C712.4 521.5 712.4 495.2 696.1 478.9L642.3 425H729.2C832.5 425 916.7 331.5 916.7 216.7S823.2 8.3 708.3 8.3zM739.5 298.8C768.7 292 791.7 257.1 791.7 216.7C791.7 170.7 754.3 133.3 708.3 133.3H333.3C287.4 133.3 250 170.7 250 216.7S287.4 300 333.3 300H375C410.7 300 441.2 322.5 453 354.1L607.7 199.4C623.5 183.7 644.4 175 666.7 175S709.8 183.7 725.6 199.4S750 236.1 750 258.3C750 272.7 746.4 286.5 739.5 298.8z" />
    <glyph glyph-name="arrow-loop"
      unicode="&#xE010;"
      horiz-adv-x="1000" d=" M687.5 466.7H600.6L654.5 520.5C670.7 536.8 670.7 563.2 654.5 579.5S611.8 595.8 595.5 579.5L441.1 425L595.5 270.5C603.7 262.4 614.3 258.3 625 258.3S646.3 262.4 654.5 270.5C670.7 286.8 670.7 313.2 654.5 329.5L600.6 383.3H687.5C745 383.3 791.7 327.2 791.7 258.3S735.6 133.3 666.7 133.3H333.3C264.4 133.3 208.3 189.4 208.3 258.3S264.4 383.3 333.3 383.3C356.4 383.3 375 402 375 425S356.4 466.7 333.3 466.7C218.5 466.7 125 373.2 125 258.3S218.5 50 333.3 50H666.7C781.5 50 875 143.5 875 258.3S790.9 466.7 687.5 466.7z" />
    <glyph glyph-name="arrow-maximise-outline"
      unicode="&#xE011;"
      horiz-adv-x="1000" d=" M791.7 675H573.2C519 675 473.2 640.1 455.9 591.7H166.7V297.5L167.2 292.5C118.5 275.4 83.3 229.5 83.3 175V-116.7H375C429.6 -116.7 483 -82.2 500 -33.3H791.7V260.9L791.2 265.9C839.8 283 875 328.9 875 383.3V675H791.7zM708.3 50H500C477 50 458.3 68.7 458.3 91.7S477 133.3 500 133.3H625V260.9C625 283.9 643.6 302.5 666.7 302.5S708.3 283.9 708.3 260.9V50zM250 508.3H460.9C483.9 508.3 502.5 489.7 502.5 466.7S483.9 425 460.9 425H333.3V297.5C333.3 274.5 314.7 255.8 291.7 255.8C268.6 255.8 250 274.5 250 297.5V508.3zM791.7 383.3C791.7 360.3 773 341.7 750 341.7S708.3 360.3 708.3 383.3V449.4L571.1 312.2C563 304.1 552.3 300 541.7 300S520.3 304.1 512.2 312.2C495.9 328.5 495.9 354.8 512.2 371.1L649.4 508.3H583.3C560.3 508.3 541.7 527 541.7 550S560.3 591.7 583.3 591.7H791.7V383.3zM375 -33.3H166.7V175C166.7 198 185.3 216.7 208.3 216.7S250 198 250 175V108.9L387.2 246.1C395.3 254.3 406 258.3 416.7 258.3S438 254.3 446.1 246.1C462.4 229.8 462.4 203.5 446.1 187.2L308.9 50H375C398 50 416.7 31.3 416.7 8.3S398 -33.3 375 -33.3zM475.6 275.6C459.8 291.3 438.9 300 416.7 300C401.4 300 386.8 295.6 374 288L375 297.5V383.3H460.9L470.4 384.3C462.7 371.5 458.3 357 458.3 341.7C458.3 319.4 467 298.5 482.8 282.8S519.4 258.3 541.7 258.3C557 258.3 571.5 262.7 584.3 270.4L583.3 260.9V175H502.5C497.5 175 492.5 174.4 487.7 173.5C495.6 186.4 500 201.2 500 216.7C500 238.9 491.3 259.8 475.6 275.6z" />
    <glyph glyph-name="arrow-maximise"
      unicode="&#xE012;"
      horiz-adv-x="1000" d=" M625 633.3C602 633.3 583.3 614.7 583.3 591.7S602 550 625 550H691.1L553.9 412.8C537.6 396.5 537.6 370.2 553.9 353.9C562 345.8 572.7 341.7 583.3 341.7S604.7 345.8 612.8 353.9L750 491.1V425C750 402 768.6 383.3 791.7 383.3S833.3 402 833.3 425V633.3H625zM387.2 246.1L250 108.9V175C250 198 231.4 216.7 208.3 216.7S166.7 198 166.7 175V-33.3H208.2L375 -33.3C398 -33.3 416.7 -14.7 416.7 8.3S398 50 375 50H308.9L446.1 187.2C462.4 203.5 462.4 229.8 446.1 246.1S403.5 262.4 387.2 246.1zM291.7 300C314.7 300 333.3 318.7 333.3 341.7V466.7H458.3C481.4 466.7 500 485.3 500 508.3S481.4 550 458.3 550H250L250 341.7C250 318.7 268.6 300 291.7 300zM708.3 300C685.3 300 666.7 281.3 666.7 258.3V133.3H541.7C518.6 133.3 500 114.7 500 91.7S518.6 50 541.7 50H750V258.3C750 281.3 731.4 300 708.3 300z" />
    <glyph glyph-name="arrow-minimise-outline"
      unicode="&#xE013;"
      horiz-adv-x="1000" d=" M916.7 550C916.7 583.4 903.7 614.8 880 638.4C856.5 662 825 675 791.7 675S726.9 662 703.3 638.4L666.5 601.6C644.4 621.3 615.3 633.3 583.3 633.3C545 633.3 511.2 615.7 488.2 588.5C479.4 590.4 470.3 591.7 460.9 591.7H208.3V339.2C208.3 328.5 210.1 318.4 212.6 308.5C187.7 285.6 171.8 253.1 171.8 216.7C171.8 186 182.8 158 201.1 136.2L161.7 96.7C138 73.1 125 41.7 125 8.3S138 -56.5 161.6 -80C185.2 -103.7 216.6 -116.7 250 -116.7C272.5 -116.7 305.6 -110.3 335.9 -80L373.5 -41.7C395.8 -62.4 425.6 -75 458.3 -75C497.3 -75 531.6 -56.8 554.5 -28.9C564.6 -31.5 575 -33.3 585.9 -33.3H833.3V219.2C833.3 228.6 832.1 237.7 830.1 246.5C857.3 269.5 875 303.4 875 341.7C875 373.6 863 402.7 843.2 424.8L880 461.6C903.7 485.2 916.7 516.6 916.7 550zM291.7 508.3H458.3C481.4 508.3 500 489.7 500 466.7S481.4 425 458.3 425H375V341.7C375 318.7 356.3 300 333.3 300C310.3 300 291.7 318.7 291.7 341.7V508.3zM821.1 520.5L683.9 383.3H750C773 383.3 791.7 364.7 791.7 341.7S773 300 750 300H541.7V508.3C541.7 531.3 560.3 550 583.3 550S625 531.3 625 508.3V442.3L762.2 579.5C770.3 587.6 781 591.7 791.7 591.7S813 587.6 821.1 579.5C837.4 563.2 837.4 536.8 821.1 520.5zM500 50C500 27 481.4 8.3 458.3 8.3S416.7 27 416.7 50V121.1L276.9 -21.1C268.8 -29.2 260.7 -33.3 250 -33.3S228.7 -29.2 220.5 -21.1C204.3 -4.8 204.3 21.5 220.5 37.8L357.8 175H296.7C273.7 175 255 193.7 255 216.7S273.7 258.3 296.7 258.3H500V50zM500 300H405.1C412.3 312.3 416.7 326.4 416.7 341.7V383.3H460.9C475.1 383.3 488.3 387.3 500 393.5V300zM541.7 258.3H654.7C636.7 254.4 625 244.6 625 219.2V175H585.9C569.6 175 554.5 170.1 541.7 162V258.3zM544.2 91.7C544.2 114.7 562.8 133.3 585.9 133.3H666.7V216.7C666.7 239.7 685.3 258.3 708.3 258.3S750 239.7 750 216.7V50H585.9C562.8 50 544.2 68.7 544.2 91.7z" />
    <glyph glyph-name="arrow-minimise"
      unicode="&#xE014;"
      horiz-adv-x="1000" d=" M255 258.3C232 258.3 213.4 239.7 213.4 216.7S232 175 255 175H316.1L178.9 37.8C162.6 21.5 162.6 -4.8 178.9 -21.1C187 -29.2 197.7 -33.3 208.3 -33.3S229.7 -29.2 237.8 -21.1L380 121.1V50C380 27 398.7 8.3 421.7 8.3S458.3 27 458.3 50V258.3H255zM291.7 341.7C314.7 341.7 333.3 360.3 333.3 383.3V466.7H416.7C439.7 466.7 458.3 485.3 458.3 508.3S439.7 550 416.7 550H250L250 383.3C250 360.3 268.6 341.7 291.7 341.7zM708.3 258.3C685.3 258.3 666.7 239.7 666.7 216.7V133.3H583.3C560.3 133.3 541.7 114.7 541.7 91.7S560.3 50 583.3 50H750V216.7C750 239.7 731.4 258.3 708.3 258.3zM762.2 621.1L625 483.9V550C625 573 606.4 591.7 583.3 591.7S541.7 573 541.7 550V341.7H750C773 341.7 791.7 360.3 791.7 383.3S773 425 750 425H683.9L821.1 562.2C837.4 578.5 837.4 604.8 821.1 621.1S778.5 637.4 762.2 621.1z" />
    <glyph glyph-name="arrow-move-outline"
      unicode="&#xE015;"
      horiz-adv-x="1000" d=" M951.2 358.9L558.9 751.2C542.6 767.5 521.3 775.6 500 775.6S457.4 767.5 441.1 751.2L48.8 358.9C16.3 326.5 16.3 273.6 48.8 241.1L441.1 -151.2C457.4 -167.5 478.7 -175.6 500 -175.6S542.6 -167.5 558.9 -151.2L951.2 241.1C983.7 273.6 983.7 326.5 951.2 358.9zM708.3 133.3C697.7 133.3 687 137.4 678.9 145.5C662.6 161.8 662.6 188.2 678.9 204.5L732.7 258.3H541.7V67.3L595.5 121.1C603.7 129.2 614.3 133.3 625 133.3S646.3 129.2 654.5 121.1C670.7 104.8 670.7 78.5 654.5 62.2L500 -92.3L345.5 62.2C329.2 78.5 329.2 104.8 345.5 121.1C353.7 129.2 364.3 133.3 375 133.3S396.3 129.2 404.5 121.1L458.3 67.3V258.3H267.3L321.1 204.5C337.4 188.2 337.4 161.8 321.1 145.5C313 137.4 302.3 133.3 291.7 133.3S270.3 137.4 262.2 145.5L107.8 300L262.2 454.5C270.3 462.6 281 466.7 291.7 466.7S313 462.6 321.1 454.5C337.4 438.2 337.4 411.8 321.1 395.5L267.3 341.7H458.3V532.8L404.5 478.9C396.3 470.8 385.7 466.7 375 466.7S353.7 470.8 345.5 478.9C329.2 495.2 329.2 521.5 345.5 537.8L500 692.3L654.5 537.8C670.7 521.5 670.7 495.2 654.5 478.9C646.3 470.8 635.7 466.7 625 466.7S603.7 470.8 595.5 478.9L541.7 532.8V341.7H732.7L678.9 395.5C662.6 411.8 662.6 438.2 678.9 454.5C687 462.6 697.7 466.7 708.3 466.7S729.7 462.6 737.8 454.5L892.3 300L737.8 145.5C729.7 137.4 719 133.3 708.3 133.3zM636.2 216.7C628.9 204.1 625 189.9 625 175C610.1 175 595.9 171.1 583.3 163.8V216.7H636.2zM363.8 216.7H416.7V163.8C404.1 171.1 389.9 175 375 175C375 189.9 371.1 204.1 363.8 216.7zM363.8 383.3C371.1 395.9 375 410.1 375 425C389.9 425 404.1 428.9 416.7 436.2V383.3H363.8zM636.2 383.3H583.3V436.2C595.9 428.9 610.1 425 625 425C625 410.1 628.9 395.9 636.2 383.3z" />
    <glyph glyph-name="arrow-move"
      unicode="&#xE016;"
      horiz-adv-x="1000" d=" M737.8 454.5C721.5 470.8 695.2 470.8 678.9 454.5S662.6 411.8 678.9 395.5L732.7 341.7H541.7V532.8L595.5 478.9C603.7 470.8 614.3 466.7 625 466.7S646.3 470.8 654.5 478.9C670.7 495.2 670.7 521.5 654.5 537.8L500 692.3L345.5 537.8C329.2 521.5 329.2 495.2 345.5 478.9S388.2 462.6 404.5 478.9L458.3 532.8V341.7H267.2L321.1 395.5C337.4 411.8 337.4 438.2 321.1 454.5S278.5 470.8 262.2 454.5L107.7 300L262.2 145.5C270.3 137.4 281 133.3 291.7 133.3S313 137.4 321.1 145.5C337.4 161.8 337.4 188.2 321.1 204.5L267.2 258.3H458.3V67.3L404.5 121.1C388.2 137.4 361.8 137.4 345.5 121.1S329.2 78.5 345.5 62.2L500 -92.3L654.5 62.2C670.7 78.5 670.7 104.8 654.5 121.1S611.8 137.4 595.5 121.1L541.7 67.3V258.3H732.8L678.9 204.5C662.6 188.2 662.6 161.8 678.9 145.5C687 137.4 697.7 133.3 708.3 133.3S729.7 137.4 737.8 145.5L892.3 300L737.8 454.5z" />
    <glyph glyph-name="arrow-repeat-outline"
      unicode="&#xE017;"
      horiz-adv-x="1000" d=" M791.4 500.5L791.7 508.3C791.7 541.7 778.7 573.1 755 596.7C731.5 620.3 700 633.3 666.7 633.3S601.9 620.3 578.3 596.7L457.8 476.3C435.7 496 406.9 508.3 375 508.3H333.3C172.5 508.3 41.7 377.5 41.7 216.7C41.7 78.9 130.8 -36.8 250.2 -67.2L250 -75C250 -108.4 263 -139.8 286.6 -163.4C310.2 -187 341.6 -200 375 -200S439.8 -187 463.4 -163.4L583.9 -42.9C606 -62.6 634.7 -75 666.7 -75H708.3C869.1 -75 1000 55.8 1000 216.7C1000 354.4 910.8 470.2 791.4 500.5zM708.3 8.3H666.7C643.6 8.3 625 27 625 50S643.6 91.7 666.7 91.7H708.3C777.3 91.7 833.3 147.8 833.3 216.7S786.6 341.7 729.2 341.7H642.3L696.1 287.8C712.4 271.5 712.4 245.2 696.1 228.9C688 220.8 677.3 216.7 666.7 216.7S645.3 220.8 637.2 228.9L482.7 383.3L637.2 537.8C645.3 545.9 656 550 666.7 550S688 545.9 696.1 537.8C712.4 521.5 712.4 495.2 696.1 478.9L642.3 425H729.2C832.5 425 916.7 331.5 916.7 216.7S823.2 8.3 708.3 8.3zM739.5 298.8C768.7 292 791.7 257.1 791.7 216.7C791.7 170.7 754.3 133.3 708.3 133.3H666.7C631 133.3 600.7 110.7 588.8 79L433.9 233.9C418.2 249.7 397.2 258.3 375 258.3S331.8 249.7 316.1 233.9S291.7 197.3 291.7 175C291.7 160.6 295.3 146.8 302.1 134.5C273 141.4 250 176.2 250 216.7C250 262.6 287.4 300 333.3 300H375C410.7 300 441 322.7 452.8 354.3L607.8 199.4C623.5 183.7 644.4 175 666.7 175S709.8 183.7 725.6 199.4S750 236.1 750 258.3C750 272.7 746.4 286.5 739.5 298.8zM416.7 383.3C416.7 360.3 398 341.7 375 341.7H333.3C264.4 341.7 208.3 285.6 208.3 216.7S255 91.7 312.5 91.7H399.4L345.5 145.5C329.3 161.8 329.3 188.2 345.5 204.5C353.7 212.6 364.3 216.7 375 216.7S396.3 212.6 404.5 204.5L558.9 50L404.5 -104.5C396.3 -112.6 385.7 -116.7 375 -116.7S353.7 -112.6 345.5 -104.5C329.2 -88.2 329.2 -61.8 345.5 -45.5L399.4 8.3H312.5C209.1 8.3 125 101.8 125 216.7S218.5 425 333.3 425H375C398 425 416.7 406.3 416.7 383.3z" />
    <glyph glyph-name="arrow-repeat"
      unicode="&#xE018;"
      horiz-adv-x="1000" d=" M687.5 508.3H600.6L654.5 562.2C670.7 578.5 670.7 604.8 654.5 621.1S611.8 637.4 595.5 621.1L441.1 466.7L595.5 312.2C603.7 304.1 614.3 300 625 300S646.3 304.1 654.5 312.2C670.7 328.5 670.7 354.8 654.5 371.1L600.6 425H687.5C745 425 791.7 368.9 791.7 300S735.6 175 666.7 175C643.6 175 625 156.3 625 133.3S643.6 91.7 666.7 91.7C781.5 91.7 875 185.1 875 300S790.9 508.3 687.5 508.3zM345.5 287.8C329.2 271.5 329.2 245.2 345.5 228.9L399.4 175H312.5C255 175 208.3 231.1 208.3 300S264.4 425 333.3 425C356.4 425 375 443.7 375 466.7S356.4 508.3 333.3 508.3C218.5 508.3 125 414.9 125 300S209.1 91.7 312.5 91.7H399.4L345.5 37.8C329.2 21.5 329.2 -4.8 345.5 -21.1C353.7 -29.2 364.3 -33.3 375 -33.3S396.3 -29.2 404.5 -21.1L558.9 133.3L404.5 287.8C388.2 304.1 361.8 304.1 345.5 287.8z" />
    <glyph glyph-name="arrow-right-outline"
      unicode="&#xE019;"
      horiz-adv-x="1000" d=" M500 -75C466.6 -75 435.2 -62 411.6 -38.4S375 16.7 375 50.1C375 81.2 386.3 91.7 406.8 133.3H205.3C136.4 133.3 80.3 189.5 80.3 258.3C80.3 327.3 136.4 383.3 205.3 383.3H406.8C386.2 425 375 435.6 375 466.7C375 500.1 388 531.5 411.7 555.1C458.8 602.3 541.2 602.3 588.4 555L885.1 258.3L588.4 -38.4C564.8 -62 533.4 -75 500 -75zM205.3 300C182.3 300 163.7 281.3 163.7 258.3S182.3 216.7 205.3 216.7H607.7L470.5 79.5C462.7 71.6 458.3 61.2 458.3 50C458.3 38.8 462.7 28.4 470.5 20.5C486.3 4.8 513.7 4.8 529.5 20.5L767.2 258.3L529.5 496.1C513.7 511.9 486.3 511.9 470.5 496.1C462.7 488.3 458.3 477.8 458.3 466.7C458.3 455.5 462.7 445.1 470.5 437.2L607.7 300H205.3z" />
    <glyph glyph-name="arrow-right-thick"
      unicode="&#xE01A;"
      horiz-adv-x="1000" d=" M441.1 525.6C408.5 493.1 408.5 440.3 441.1 407.8L507.2 341.7H205.3C159.3 341.7 122 304.4 122 258.3C122 212.3 159.3 175 205.3 175H507.2L441.1 108.9C408.5 76.5 408.5 23.6 441.1 -8.9C457.4 -25.2 478.7 -33.3 500 -33.3S542.6 -25.2 558.9 -8.9L826.2 258.3L558.9 525.6C526.4 558.1 473.6 558.1 441.1 525.6z" />
    <glyph glyph-name="arrow-right"
      unicode="&#xE01B;"
      horiz-adv-x="1000" d=" M553.9 496.1C537.6 479.8 537.6 453.5 553.9 437.2L649.4 341.7H333.3C310.3 341.7 291.7 323 291.7 300S310.3 258.3 333.3 258.3H649.4L553.9 162.8C537.6 146.5 537.6 120.2 553.9 103.9C562 95.8 572.7 91.7 583.3 91.7S604.7 95.8 612.8 103.9L808.9 300L612.8 496.1C596.5 512.4 570.2 512.4 553.9 496.1z" />
    <glyph glyph-name="arrow-shuffle"
      unicode="&#xE01C;"
      horiz-adv-x="1000" d=" M166.7 425H312.5C343.2 425 370.5 408.7 389.6 383.3C403.2 408.5 420 431.8 439.2 452.5C405.8 486.8 361.5 508.3 312.5 508.3H166.7C143.6 508.3 125 489.7 125 466.7S143.6 425 166.7 425zM486.9 295.4C509.8 364.4 580.9 425 638.9 425H715.5L661.6 371.1C645.3 354.8 645.3 328.5 661.6 312.2C669.8 304.1 680.4 300 691.1 300S712.4 304.1 720.5 312.2L875 466.7L720.5 621.1C704.3 637.4 677.9 637.4 661.6 621.1S645.3 578.5 661.6 562.2L715.5 508.3H638.9C544.2 508.3 442.6 426.4 407.8 321.7L388.1 262.9C361.4 182.7 301.8 133.3 270.8 133.3H166.7C143.6 133.3 125 114.7 125 91.7S143.6 50 166.7 50H270.8C347.4 50 431.8 130.2 467.2 236.6L486.9 295.4zM661.6 246.1C645.3 229.8 645.3 203.5 661.6 187.2L715.5 133.3H618.1C565.2 133.3 521 170.5 506 221.2C495.3 189.9 479.8 158.7 460.5 130.1C497.5 81.7 554 50 618.1 50H715.5L661.6 -3.9C645.3 -20.2 645.3 -46.5 661.6 -62.8C669.8 -70.9 680.4 -75 691.1 -75S712.4 -70.9 720.5 -62.8L875 91.7L720.5 246.1C704.3 262.4 677.9 262.4 661.6 246.1z" />
    <glyph glyph-name="arrow-sorted-down"
      unicode="&#xE01D;"
      horiz-adv-x="1000" d=" M241.7 395.8L500 133.3L758.3 395.8C766.7 404.2 770.8 416.7 770.8 425S766.7 445.8 758.3 454.2C750 462.5 741.7 466.7 729.2 466.7H270.8C258.3 466.7 250 462.5 241.7 454.2C233.3 445.8 229.2 437.5 229.2 425S233.3 404.2 241.7 395.8z" />
    <glyph glyph-name="arrow-sorted-up"
      unicode="&#xE01E;"
      horiz-adv-x="1000" d=" M758.3 245.8L500 508.3L241.7 245.8C233.3 237.5 229.2 225 229.2 216.7S233.3 195.8 241.7 187.5C250 179.2 258.3 175 270.8 175H729.2C741.7 175 750 179.2 758.3 187.5C766.7 195.8 770.8 208.3 770.8 216.7S766.7 237.5 758.3 245.8z" />
    <glyph glyph-name="arrow-sync-outline"
      unicode="&#xE01F;"
      horiz-adv-x="1000" d=" M895.8 280.3C895.8 384.2 861.7 464.7 785.3 541.1C772.4 554 757.1 563.3 740.6 569.5L701.2 608.9L546.7 763.4C523.1 787 491.7 800 458.3 800S393.5 787 370 763.4C346.3 739.8 333.3 708.4 333.3 675C333.3 663.5 334.9 652.1 337.9 641.3C295 622.1 255.7 594.6 220.1 559C145.3 484.3 104.2 385 104.2 279.2C104.2 175.2 138.2 94.8 214.7 18.4C227.2 6 241.9 -3.3 257.8 -9.5L298.8 -50.6L453.3 -205C476.9 -228.7 508.3 -241.7 541.7 -241.7S606.5 -228.7 630 -205C653.7 -181.5 666.7 -150 666.7 -116.7C666.7 -104.7 665 -93.1 661.8 -81.9C704.7 -62.7 744.2 -35.2 779.8 0.4C854.7 75.1 895.8 174.5 895.8 280.3zM515.4 -31.5L571.1 -87.2C587.4 -103.5 587.4 -129.8 571.1 -146.1C563 -154.2 552.3 -158.3 541.7 -158.3S520.3 -154.2 512.2 -146.1L357.7 8.3L512.2 162.8C520.3 170.9 531 175 541.7 175S563 170.9 571.1 162.8C587.4 146.5 587.4 120.2 571.1 103.9L519.2 51.9C575.5 55.7 620.2 76.5 662 118.3C705.3 161.5 729.1 219.1 729.1 280.3C729.1 339.5 712.4 378.3 667.5 423.2C651.2 439.5 651.2 465.8 667.5 482.1C675.6 490.3 686.3 494.3 697 494.3C707.6 494.3 718.3 490.3 726.4 482.2C786.8 421.9 812.5 361.5 812.5 280.3C812.5 196.8 780 118.4 721 59.4C663 1.5 595.5 -28.1 515.4 -31.5zM483.5 590.9L428.9 645.5C412.6 661.8 412.6 688.2 428.9 704.5C437 712.6 447.7 716.7 458.3 716.7S479.7 712.6 487.8 704.5L642.3 550L487.8 395.5C479.7 387.4 469 383.3 458.3 383.3S437 387.4 428.9 395.5C412.6 411.8 412.6 438.2 428.9 454.5L482 507.6C425.1 504 380 483.3 338 441.2C294.7 397.9 270.8 340.4 270.8 279.2C270.8 219.9 287.5 181.2 332.5 136.3C348.8 120 348.8 93.7 332.5 77.3C324.4 69.2 313.7 65.1 303 65.1S281.7 69.2 273.5 77.3C213.3 137.6 187.5 198 187.5 279.2C187.5 362.7 220 441.1 279 500.1C336.6 557.8 403.7 587.3 483.5 590.9zM362 165.8C325 202.7 312.5 231.3 312.5 279.2C312.5 329.2 332 376.3 367.4 411.7L375.2 419.2C376.6 399.1 385 380.4 399.4 366.1C415.2 350.3 436.1 341.7 458.3 341.7S501.5 350.3 517.2 366.1L614.7 463.5C611.5 438.7 619 412.8 638 393.7C675 356.8 687.5 328.2 687.5 280.3C687.5 230.3 668 183.2 632.6 147.8L624.8 140.3C623.2 159.9 614.7 178.2 600.7 192.3C584.8 208 563.9 216.7 541.7 216.7S498.5 208 482.7 192.3L385.2 94.7C388.9 119.9 381.3 146.4 362 165.8z" />
    <glyph glyph-name="arrow-sync"
      unicode="&#xE020;"
      horiz-adv-x="1000" d=" M812.5 280.3C812.5 361.5 786.8 421.8 726.4 482.1C710.1 498.4 683.8 498.4 667.5 482.1C651.2 465.8 651.2 439.5 667.5 423.2C712.5 378.3 729.2 339.5 729.2 280.3C729.2 219.1 705.3 161.5 662 118.3C620.2 76.5 575.5 55.7 519.2 51.9L571.1 103.9C587.4 120.2 587.4 146.5 571.1 162.8S528.5 179.1 512.2 162.8L357.7 8.3L512.2 -146.1C520.3 -154.2 531 -158.3 541.7 -158.3S563 -154.2 571.1 -146.1C587.4 -129.8 587.4 -103.5 571.1 -87.2L515.4 -31.5C595.5 -28.1 663 1.5 721 59.3C780 118.3 812.5 196.8 812.5 280.3zM270.8 279.2C270.8 340.4 294.7 397.9 338 441.2C380 483.3 425.1 504 482 507.6L428.9 454.5C412.6 438.2 412.6 411.9 428.9 395.6C437 387.4 447.7 383.3 458.3 383.3S479.7 387.4 487.8 395.5L642.3 550L487.8 704.5C471.5 720.8 445.2 720.8 428.9 704.5S412.6 661.8 428.9 645.5L483.5 590.9C403.8 587.3 336.6 557.8 279 500.1C220 441.1 187.5 362.7 187.5 279.2C187.5 198 213.3 137.6 273.6 77.3C281.7 69.2 292.4 65.2 303 65.2S324.4 69.2 332.5 77.4C348.8 93.7 348.8 120 332.5 136.3C287.5 181.2 270.8 219.9 270.8 279.2z" />
    <glyph glyph-name="arrow-unsorted"
      unicode="&#xE021;"
      horiz-adv-x="1000" d=" M758.3 412.5L500 675L241.7 412.5C233.3 404.2 229.2 395.8 229.2 383.3S233.3 362.5 241.7 354.2C250 345.8 258.3 341.7 270.8 341.7H729.2C741.7 341.7 750 345.8 758.3 354.2C766.7 362.5 770.8 375 770.8 383.3S766.7 404.2 758.3 412.5zM241.7 187.5L500 -75L758.3 187.5C766.7 195.8 770.8 208.3 770.8 216.7S766.7 237.5 758.3 245.8C750 254.2 741.7 258.3 729.2 258.3H270.8C258.3 258.3 250 254.2 241.7 245.8C233.3 237.5 229.2 225 229.2 216.7S233.3 195.8 241.7 187.5z" />
    <glyph glyph-name="arrow-up-outline"
      unicode="&#xE022;"
      horiz-adv-x="1000" d=" M500 -75C431.1 -75 375 -18.9 375 50V248.5C327.4 205.8 249 207.7 203.3 253.3C154.5 302 154.5 381.3 203.3 430L500 726.8L796.7 430C845.5 381.3 845.5 302 796.7 253.3C751.1 207.7 672.6 205.8 625 248.5V50C625 -18.9 568.9 -75 500 -75zM458.3 449.4V50C458.3 27 477 8.3 500 8.3S541.7 27 541.7 50V449.4L678.9 312.2C694.7 296.5 722 296.5 737.8 312.2C754.1 328.5 754.1 354.8 737.8 371.1L500 608.9L262.2 371.1C245.9 354.8 245.9 328.5 262.2 312.2C278 296.5 305.3 296.5 321.1 312.2L458.3 449.4z" />
    <glyph glyph-name="arrow-up-thick"
      unicode="&#xE023;"
      horiz-adv-x="1000" d=" M500 667.8L232.8 400.6C200.2 368 200.2 315.3 232.8 282.8S318 250.2 350.6 282.8L416.7 348.8V47.1C416.7 1.1 454 -36.2 500 -36.2C546 -36.2 583.3 1.1 583.3 47.1V348.8L649.4 282.8C665.7 266.5 687 258.3 708.3 258.3S751 266.5 767.3 282.8C799.8 315.3 799.8 368 767.3 400.6L500 667.8z" />
    <glyph glyph-name="arrow-up"
      unicode="&#xE024;"
      horiz-adv-x="1000" d=" M541.7 567.3L345.5 371.1C329.2 354.8 329.2 328.5 345.5 312.2S388.2 295.9 404.5 312.2L500 407.8V91.7C500 68.7 518.6 50 541.7 50S583.3 68.7 583.3 91.7V407.8L678.9 312.2C687 304.1 697.7 300 708.3 300S729.7 304.1 737.8 312.2C754.1 328.5 754.1 354.8 737.8 371.1L541.7 567.3z" />
    <glyph glyph-name="at"
      unicode="&#xE025;"
      horiz-adv-x="1000" d=" M500 633.3C316.2 633.3 166.7 483.8 166.7 300S316.2 -33.3 500 -33.3C567.3 -33.3 632.2 -13.4 687.5 24.3C706.5 37.3 711.4 63.3 698.4 82.3C685.5 101.3 659.6 106.1 640.5 93.2C599.1 64.9 550.5 50 500 50C362.1 50 250 162.1 250 300S362.1 550 500 550S750 437.9 750 300V279.2C750 256.2 731.3 237.5 708.3 237.5S666.7 256.2 666.7 279.2V404.2C666.7 427.2 648 445.8 625 445.8C606.6 445.8 591.5 433.8 585.9 417.2C561.7 435 532.2 445.8 500 445.8C419.6 445.8 354.2 380.4 354.2 300S419.6 154.2 500 154.2C543.5 154.2 582.3 173.8 609 204.1C631.8 174 667.7 154.2 708.3 154.2C777.3 154.2 833.3 210.3 833.3 279.2V300C833.3 483.8 683.8 633.3 500 633.3zM500 237.5C465.5 237.5 437.5 265.5 437.5 300S465.5 362.5 500 362.5S562.5 334.5 562.5 300S534.5 237.5 500 237.5z" />
    <glyph glyph-name="attachment-outline"
      unicode="&#xE026;"
      horiz-adv-x="1000" d=" M647.3 613.9C689.9 613.9 732.7 597.7 765.1 565.2C830.2 500.2 830.2 394.5 765.1 329.5L470.5 34.9C438.1 2.4 395.3 -13.9 352.7 -13.9S267.3 2.4 234.8 34.9C169.8 99.8 169.8 205.6 234.8 270.5L268.5 304.2C268.3 270.6 278.9 240.7 297.7 215.6L293.8 211.6C261.3 179.2 261.3 126.3 293.8 93.8C310 77.5 331.3 69.5 352.7 69.5S395.3 77.6 411.6 93.8L517.2 199.4L706.2 388.5C738.7 420.9 738.7 473.8 706.2 506.3C689.9 522.5 668.6 530.6 647.2 530.6C625.9 530.6 604.6 522.5 588.3 506.3L399.4 317.2C394 312 393.3 305.8 393.3 302.5C393.3 299.3 394.1 293.1 399.4 287.8C403.5 283.7 408.9 281.7 414.2 281.7C419.5 281.7 424.8 283.7 428.9 287.8L517.3 376.1L576.2 435C592.5 418.7 600.6 397.5 600.6 376.1C600.6 354.8 592.5 333.6 576.3 317.4L487.8 228.8C467.5 208.5 440.8 198.5 414.1 198.5S360.8 208.6 340.4 228.8C320.7 248.6 310 274.7 310 302.5C310 330.5 320.8 356.6 340.5 376.3L529.4 565.3C561.8 597.7 604.6 613.9 647.2 613.9M647.2 697.3C580.4 697.3 517.7 671.3 470.5 624.1L176 329.4C128.7 282.3 102.7 219.5 102.7 152.7S128.7 23.1 176 -24.1C223.1 -71.3 285.9 -97.2 352.7 -97.2S482.2 -71.3 529.4 -24L824 270.6C871.3 317.7 897.3 380.5 897.3 447.3C897.3 514.1 871.3 576.9 824.1 624C776.9 671.3 714.1 697.2 647.3 697.2z" />
    <glyph glyph-name="attachment"
      unicode="&#xE027;"
      horiz-adv-x="1000" d=" M765.2 523.5C700.1 588.5 594.3 588.5 529.4 523.5L340.5 334.6C320.8 314.9 310 288.8 310 260.8C310 233 320.8 206.9 340.5 187.2C360.8 166.9 387.5 156.8 414.2 156.8C440.8 156.8 467.5 166.8 487.8 187.2L576.2 275.5C592.5 292 600.6 313.2 600.6 334.5C600.6 355.8 592.5 377.1 576.2 393.4L428.9 246.1C420.8 238 407.6 238 399.4 246.2C394.1 251.5 393.3 257.6 393.3 260.8C393.3 264.1 394.1 270.3 399.4 275.6L588.3 464.6C620.8 497.1 673.7 497.1 706.3 464.6C738.7 432.2 738.7 379.3 706.3 346.8L517.2 157.8L411.6 52.1C379.1 19.7 326.2 19.7 293.8 52.1C261.3 84.6 261.3 137.5 293.8 170L297.7 174C278.9 199 268.5 230.6 268.5 262.5L234.8 228.9C169.8 163.9 169.8 58.1 234.8 -6.8C267.3 -39.2 310 -55.5 352.7 -55.5S438 -39.3 470.5 -6.8L765.2 287.9C830.2 352.8 830.2 458.5 765.2 523.5z" />
    <glyph glyph-name="backspace-outline"
      unicode="&#xE028;"
      horiz-adv-x="1000" d=" M791.7 -75H375C315.2 -75 244 -38.3 209.3 10.3L100.2 163L50.7 232.3C40.4 246.6 40.3 269.5 50.3 284L100.5 354.2L209.2 506.4C244 555 315.2 591.7 375 591.7H791.7C860.6 591.7 916.7 535.6 916.7 466.7V50C916.7 -18.9 860.6 -75 791.7 -75zM134.5 258.4L168.1 211.5L277.2 58.7C296 32.3 342.6 8.3 375 8.3H791.7C814.7 8.3 833.4 27.1 833.4 50V466.7C833.4 489.6 814.7 508.3 791.7 508.3H375C342.7 508.3 296 484.3 277.1 458L168.4 305.8L134.5 258.4zM571.1 258.3L681.4 368.6C689.5 376.7 689.5 389.9 681.4 398C673.3 406.1 660 406.1 651.9 398L541.7 287.8L431.4 398C423.3 406.1 410 406.1 402 398C393.8 389.9 393.8 376.7 402 368.6L512.2 258.3L402 148.1C393.8 140 393.8 126.7 402 118.6C406 114.5 411.3 112.5 416.7 112.5S427.3 114.5 431.4 118.6L541.7 228.9L651.9 118.6C656 114.5 661.3 112.5 666.7 112.5S677.3 114.5 681.4 118.6C689.5 126.7 689.5 139.9 681.4 148L571.1 258.3z" />
    <glyph glyph-name="backspace"
      unicode="&#xE029;"
      horiz-adv-x="1000" d=" M812.5 591.7H395.8C343.1 591.7 277.8 558 247.1 515.1L138.3 362.9L88.4 293C83.3 285.7 83.3 272.5 88.5 265.3L138 196L247.1 43.2C277.7 0.3 343 -33.3 395.8 -33.3H812.5C870 -33.3 916.7 13.4 916.7 70.8V487.5C916.7 544.9 870 591.7 812.5 591.7zM717 183.6C733.2 167.3 733.2 141 717 124.7C708.8 116.6 698.2 112.5 687.5 112.5S666.2 116.6 658 124.7L562.5 220.3L467 124.7C458.8 116.6 448.2 112.5 437.5 112.5S416.2 116.6 408 124.7C391.7 141 391.7 167.3 408 183.6L503.6 279.2L408 374.7C391.7 391 391.7 417.3 408 433.6S450.7 449.9 467 433.6L562.5 338.1L658 433.6C674.3 449.9 700.7 449.9 717 433.6S733.2 391 717 374.7L621.4 279.2L717 183.6z" />
    <glyph glyph-name="battery-charge"
      unicode="&#xE02A;"
      horiz-adv-x="1000" d=" M208.3 383.3V133.3H666.7V383.3H208.3zM451.3 178.8L400.8 258.3L291.7 240.5L426 337.3L474.9 258.3L583.3 276.2L451.3 178.8zM791.7 383.3C791.7 452.3 735.6 508.3 666.7 508.3H208.3C139.4 508.3 83.3 452.3 83.3 383.3V133.3C83.3 64.4 139.4 8.3 208.3 8.3H666.7C735.6 8.3 791.7 64.4 791.7 133.3C837.7 133.3 875 170.7 875 216.7V300C875 346 837.7 383.3 791.7 383.3zM708.3 133.3C708.3 110.3 689.6 91.7 666.7 91.7H208.3C185.4 91.7 166.7 110.3 166.7 133.3V383.3C166.7 406.3 185.4 425 208.3 425H666.7C689.6 425 708.3 406.3 708.3 383.3V133.3z" />
    <glyph glyph-name="battery-full"
      unicode="&#xE02B;"
      horiz-adv-x="1000" d=" M375 133.3C352 133.3 333.3 152 333.3 175V341.7C333.3 364.7 352 383.3 375 383.3S416.7 364.7 416.7 341.7V175C416.7 152 398 133.3 375 133.3zM250 133.3C227 133.3 208.3 152 208.3 175V341.7C208.3 364.7 227 383.3 250 383.3S291.7 364.7 291.7 341.7V175C291.7 152 273 133.3 250 133.3zM625 133.3C602 133.3 583.3 152 583.3 175V341.7C583.3 364.7 602 383.3 625 383.3S666.7 364.7 666.7 341.7V175C666.7 152 648 133.3 625 133.3zM500 133.3C477 133.3 458.3 152 458.3 175V341.7C458.3 364.7 477 383.3 500 383.3S541.7 364.7 541.7 341.7V175C541.7 152 523 133.3 500 133.3zM791.7 383.3C791.7 452.3 735.6 508.3 666.7 508.3H208.3C139.4 508.3 83.3 452.3 83.3 383.3V133.3C83.3 64.4 139.4 8.3 208.3 8.3H666.7C735.6 8.3 791.7 64.4 791.7 133.3C837.7 133.3 875 170.7 875 216.7V300C875 346 837.7 383.3 791.7 383.3zM708.3 133.3C708.3 110.3 689.6 91.7 666.7 91.7H208.3C185.4 91.7 166.7 110.3 166.7 133.3V383.3C166.7 406.3 185.4 425 208.3 425H666.7C689.6 425 708.3 406.3 708.3 383.3V133.3z" />
    <glyph glyph-name="battery-high"
      unicode="&#xE02C;"
      horiz-adv-x="1000" d=" M375 133.3C352 133.3 333.3 152 333.3 175V341.7C333.3 364.7 352 383.3 375 383.3S416.7 364.7 416.7 341.7V175C416.7 152 398 133.3 375 133.3zM250 133.3C227 133.3 208.3 152 208.3 175V341.7C208.3 364.7 227 383.3 250 383.3S291.7 364.7 291.7 341.7V175C291.7 152 273 133.3 250 133.3zM500 133.3C477 133.3 458.3 152 458.3 175V341.7C458.3 364.7 477 383.3 500 383.3S541.7 364.7 541.7 341.7V175C541.7 152 523 133.3 500 133.3zM791.7 383.3C791.7 452.3 735.6 508.3 666.7 508.3H208.3C139.4 508.3 83.3 452.3 83.3 383.3V133.3C83.3 64.4 139.4 8.3 208.3 8.3H666.7C735.6 8.3 791.7 64.4 791.7 133.3C837.7 133.3 875 170.7 875 216.7V300C875 346 837.7 383.3 791.7 383.3zM708.3 133.3C708.3 110.3 689.6 91.7 666.7 91.7H208.3C185.4 91.7 166.7 110.3 166.7 133.3V383.3C166.7 406.3 185.4 425 208.3 425H666.7C689.6 425 708.3 406.3 708.3 383.3V133.3z" />
    <glyph glyph-name="battery-low"
      unicode="&#xE02D;"
      horiz-adv-x="1000" d=" M250 133.3C227 133.3 208.3 152 208.3 175V341.7C208.3 364.7 227 383.3 250 383.3S291.7 364.7 291.7 341.7V175C291.7 152 273 133.3 250 133.3zM791.7 383.3C791.7 452.3 735.6 508.3 666.7 508.3H208.3C139.4 508.3 83.3 452.3 83.3 383.3V133.3C83.3 64.4 139.4 8.3 208.3 8.3H666.7C735.6 8.3 791.7 64.4 791.7 133.3C837.7 133.3 875 170.7 875 216.7V300C875 346 837.7 383.3 791.7 383.3zM708.3 133.3C708.3 110.3 689.6 91.7 666.7 91.7H208.3C185.4 91.7 166.7 110.3 166.7 133.3V383.3C166.7 406.3 185.4 425 208.3 425H666.7C689.6 425 708.3 406.3 708.3 383.3V133.3z" />
    <glyph glyph-name="battery-mid"
      unicode="&#xE02E;"
      horiz-adv-x="1000" d=" M375 133.3C352 133.3 333.3 152 333.3 175V341.7C333.3 364.7 352 383.3 375 383.3S416.7 364.7 416.7 341.7V175C416.7 152 398 133.3 375 133.3zM250 133.3C227 133.3 208.3 152 208.3 175V341.7C208.3 364.7 227 383.3 250 383.3S291.7 364.7 291.7 341.7V175C291.7 152 273 133.3 250 133.3zM791.7 383.3C791.7 452.3 735.6 508.3 666.7 508.3H208.3C139.4 508.3 83.3 452.3 83.3 383.3V133.3C83.3 64.4 139.4 8.3 208.3 8.3H666.7C735.6 8.3 791.7 64.4 791.7 133.3C837.7 133.3 875 170.7 875 216.7V300C875 346 837.7 383.3 791.7 383.3zM708.3 133.3C708.3 110.3 689.6 91.7 666.7 91.7H208.3C185.4 91.7 166.7 110.3 166.7 133.3V383.3C166.7 406.3 185.4 425 208.3 425H666.7C689.6 425 708.3 406.3 708.3 383.3V133.3z" />
    <glyph glyph-name="beaker"
      unicode="&#xE02F;"
      horiz-adv-x="1000" d=" M810.2 99.6L700.2 508.3H750C773 508.3 791.7 527 791.7 550S773 591.7 750 591.7H250C227 591.7 208.3 573 208.3 550S227 508.3 250 508.3H297.3C296.8 501 295.3 491.6 292.2 480.4L189.8 99.6C180.7 65.9 186.7 32 206.2 6.7C225.6 -18.7 256.7 -33.3 291.7 -33.3H708.3C743.3 -33.3 774.4 -18.7 794 6.6C813.4 32 819.3 65.9 810.2 99.6zM613.8 508.3L670.2 299.3L666.7 300H333.3L329.8 299.3L372.7 458.7C376.2 471.7 379.9 489.7 380.7 508.3H613.8zM727.8 57.3C724.1 52.6 717.3 50 708.3 50H291.7C282.7 50 275.9 52.6 272.3 57.3C268.7 62 267.9 69.4 270.3 78L320.1 263.4C323.8 260.4 328.3 258.3 333.3 258.3H666.7C671.8 258.3 676.2 260.4 679.8 263.4L729.7 78C732.1 69.4 731.4 62 727.7 57.3z" />
    <glyph glyph-name="beer"
      unicode="&#xE030;"
      horiz-adv-x="1000" d=" M416.7 112.5C416.7 101 407.3 91.7 395.8 91.7S375 101 375 112.5V362.5C375 374 384.4 383.3 395.8 383.3S416.7 374 416.7 362.5V112.5zM500 112.5C500 101 490.6 91.7 479.2 91.7S458.3 101 458.3 112.5V362.5C458.3 374 467.7 383.3 479.2 383.3S500 374 500 362.5V112.5zM583.3 112.5C583.3 101 574 91.7 562.5 91.7S541.7 101 541.7 112.5V362.5C541.7 374 551 383.3 562.5 383.3S583.3 374 583.3 362.5V112.5zM770.8 550H750V591.7C750 637.7 712.7 675 666.7 675H291.7C245.7 675 208.3 637.7 208.3 591.7V50C208.3 -19 264.3 -75 333.3 -75H625C694 -75 750 -19 750 50H770.8C851.2 50 916.7 115.4 916.7 195.8V404.2C916.7 484.6 851.2 550 770.8 550zM291.7 591.7H666.7V550H481.5L476.6 536.2C469.8 517.1 449 505.8 430 509.2L415.5 511.6L408.3 498.8C397.2 479 376.5 466.7 354.2 466.7C319.7 466.7 291.7 494.7 291.7 529.2V591.7zM666.7 50C666.7 27 648 8.3 625 8.3H333.3C310.3 8.3 291.7 27 291.7 50V446.3C309.1 433 330.7 425 354.2 425C386.8 425 417.5 440.7 437 466.7C467.4 466.7 494.7 483 509.4 508.3H666.7V50zM833.3 195.8C833.3 161.4 805.3 133.3 770.8 133.3H708.3V466.7H770.8C805.3 466.7 833.3 438.6 833.3 404.2V195.8z" />
    <glyph glyph-name="bell"
      unicode="&#xE031;"
      horiz-adv-x="1000" d=" M821.5 79.1C820.8 79.9 749.9 156.4 749.4 342.5C749 451.1 679 543.5 581.9 577.5L583.3 591.7C583.3 637.6 546 675 500 675S416.7 637.6 416.7 591.7L418.1 577.6C320.8 543.6 250.6 451.1 250.6 342.3C250.6 156.4 179.3 80 178.9 79.6C167 67.7 163.3 49.8 169.8 34.1S191.5 8.3 208.3 8.3H339.3C357.9 -63.3 422.6 -116.7 500 -116.7S642.1 -63.3 660.7 8.3H791.7C808.3 8.3 823.2 18.5 829.8 33.8S833 67 821.5 79.1zM500 508.3C591.2 508.3 665.8 433.8 666 342.2C666.1 311.9 667.9 284 670.9 258.3H329.3C332.2 284 334 311.9 334 342.3C334 433.8 408.5 508.3 500 508.3zM500 -33.3C469.3 -33.3 442.7 -16.5 428.3 8.3H571.7C557.3 -16.5 530.7 -33.3 500 -33.3zM283.9 91.7C298.6 122.3 313.3 163.8 323 216.7H677.3C687 163.8 701.8 122.3 716.3 91.7H283.9z" />
    <glyph glyph-name="book"
      unicode="&#xE032;"
      horiz-adv-x="1000" d=" M750 675H291.7C280.6 675 270 670.6 262.2 662.8L137.2 537.8L134.8 535.2C129 528.3 125.5 519.7 125 510.2L125 508V50C125 -18.9 181.1 -75 250 -75H625C679.3 -75 725.7 -40.2 742.9 8.3H770.8C829.3 8.3 875 63.2 875 133.3V550C875 618.9 818.9 675 750 675zM250 8.3C227 8.3 208.3 27 208.3 50V466.7H291.7V8.3H250zM666.7 50C666.7 27 648 8.3 625 8.3H333.3V466.7H625C648 466.7 666.7 448 666.7 425V50zM791.7 133.3C791.7 107.5 778.2 91.7 770.8 91.7H750V425C750 493.9 693.9 550 625 550H267.3L308.9 591.7H750C773 591.7 791.7 573 791.7 550V133.3z" />
    <glyph glyph-name="bookmark"
      unicode="&#xE033;"
      horiz-adv-x="1000" d=" M708.3 716.7H375C306.1 716.7 250 660.6 250 591.7V8.3C250 -13.1 254.3 -31.1 262.8 -45.2C286.3 -84.2 338.5 -87.2 380 -45.5L512.2 86.6C527.8 102.2 555.5 102.2 571.1 86.6L703.3 -45.5C723.8 -66 745 -76.4 766.6 -76.4C799.8 -76.4 833.3 -50.2 833.3 8.3V591.7C833.3 660.6 777.3 716.7 708.3 716.7zM375 633.3H708.3C731.3 633.3 750 614.6 750 591.7V179L647.9 272.6C589.3 326.3 494 326.3 435.4 272.6L333.3 179V591.7C333.3 614.6 352 633.3 375 633.3zM630 145.5C606.5 169.1 575.1 182 541.7 182S476.8 169 453.3 145.5L333.3 25.6V122.4L463.6 241.8C506.6 281.3 576.7 281.3 619.7 241.8L750 122.4V25.6L630 145.5z" />
    <glyph glyph-name="briefcase"
      unicode="&#xE034;"
      horiz-adv-x="1000" d=" M750 508.3C750 577.3 693.9 633.3 625 633.3H375C306.1 633.3 250 577.3 250 508.3C181.1 508.3 125 452.3 125 383.3V91.7C125 22.8 181.1 -33.3 250 -33.3H750C818.9 -33.3 875 22.8 875 91.7V383.3C875 452.3 818.9 508.3 750 508.3zM375 550H625C648 550 666.7 531.3 666.7 508.3H333.3C333.3 531.3 352 550 375 550zM791.7 91.7C791.7 68.7 773 50 750 50H250C227 50 208.3 68.7 208.3 91.7V133.3H791.7V91.7zM208.3 175V383.3C208.3 406.3 227 425 250 425H750C773 425 791.7 406.3 791.7 383.3V175H208.3zM541.7 300H458.3C435.4 300 416.7 281.3 416.7 258.3S435.4 216.7 458.3 216.7H541.7C564.6 216.7 583.3 235.4 583.3 258.3S564.6 300 541.7 300z" />
    <glyph glyph-name="brush"
      unicode="&#xE035;"
      horiz-adv-x="1000" d=" M840.7 640.7C824.8 656.7 803.5 665.1 781.8 665.1C771.3 665.1 760.8 663.2 750.8 659.1C565.4 584.7 426.1 460.8 312.5 269.3C308.3 262.1 305.8 254.5 303.8 246.7C246.3 237.7 195.5 209 160.4 163.6C122.3 114.3 106.5 51.3 116 -13.6L125 -75L186.4 -84C198.6 -85.8 210.9 -86.7 223 -86.7C337.3 -86.7 429.3 -7.2 446.7 103.5C454.5 105.4 462.1 108.3 469.3 112.5C660.9 226.2 784.8 365.4 859.1 550.8C871.5 581.7 864.3 617.1 840.7 640.7zM223 -3.4C215 -3.4 206.8 -2.7 198.5 -1.5C185.6 86.1 242.4 157.2 323.5 166L366 123.5C358 50.1 299.1 -3.4 223 -3.4zM426.8 184.2L384.2 226.8C400.1 253.5 416.5 278.1 433.3 301.9C434.5 300.2 501.6 233 501.6 233C478 216.3 453.4 200 426.8 184.2zM535.5 258.1S459.6 333.1 457.2 334.1C546.6 450.1 651 529.3 781.8 581.7C729.5 451.4 650.8 347.4 535.5 258.1z" />
    <glyph glyph-name="business-card"
      unicode="&#xE036;"
      horiz-adv-x="1000" d=" M833.3 -33.3H166.7C97.8 -33.3 41.7 22.8 41.7 91.7V508.3C41.7 577.3 97.8 633.3 166.7 633.3H833.3C902.3 633.3 958.3 577.3 958.3 508.3V91.7C958.3 22.8 902.3 -33.3 833.3 -33.3zM166.7 550C143.7 550 125 531.3 125 508.3V91.7C125 68.7 143.7 50 166.7 50H833.3C856.3 50 875 68.7 875 91.7V508.3C875 531.3 856.3 550 833.3 550H166.7zM416.7 175H250C227 175 208.3 193.7 208.3 216.7S227 258.3 250 258.3H416.7C439.7 258.3 458.3 239.7 458.3 216.7S439.7 175 416.7 175zM416.7 341.7H250C227 341.7 208.3 360.3 208.3 383.3S227 425 250 425H416.7C439.7 425 458.3 406.3 458.3 383.3S439.7 341.7 416.7 341.7z M583.3 362.5C583.3 316.5 620.6 279.2 666.7 279.2C712.7 279.2 750 316.5 750 362.5C750 408.5 712.7 445.8 666.7 445.8C620.6 445.8 583.3 408.5 583.3 362.5z M666.7 243.5C601.6 243.5 562.5 213.7 562.5 184C562.5 169.1 601.6 154.2 666.7 154.2C727.8 154.2 770.8 169 770.8 184C770.8 213.7 730 243.5 666.7 243.5z" />
    <glyph glyph-name="calculator"
      unicode="&#xE037;"
      horiz-adv-x="1000" d=" M708.3 -75H375C304.2 -75 250 -20.8 250 50V550C250 620.8 304.2 675 375 675H708.3C779.2 675 833.3 620.8 833.3 550V50C833.3 -20.8 779.2 -75 708.3 -75zM375 591.7C350 591.7 333.3 575 333.3 550V50C333.3 25 350 8.3 375 8.3H708.3C733.3 8.3 750 25 750 50V550C750 575 733.3 591.7 708.3 591.7H375z M375 341.7C375 318.7 393.7 300 416.7 300C439.7 300 458.3 318.7 458.3 341.7C458.3 364.7 439.7 383.3 416.7 383.3C393.7 383.3 375 364.7 375 341.7z M500 341.7C500 318.7 518.7 300 541.7 300C564.7 300 583.3 318.7 583.3 341.7C583.3 364.7 564.7 383.3 541.7 383.3C518.7 383.3 500 364.7 500 341.7z M625 341.7C625 318.7 643.7 300 666.7 300C689.7 300 708.3 318.7 708.3 341.7C708.3 364.7 689.7 383.3 666.7 383.3C643.7 383.3 625 364.7 625 341.7z M375 216.7C375 193.7 393.7 175 416.7 175C439.7 175 458.3 193.7 458.3 216.7C458.3 239.7 439.7 258.3 416.7 258.3C393.7 258.3 375 239.7 375 216.7z M500 216.7C500 193.7 518.7 175 541.7 175C564.7 175 583.3 193.7 583.3 216.7C583.3 239.7 564.7 258.3 541.7 258.3C518.7 258.3 500 239.7 500 216.7z M625 216.7C625 193.7 643.7 175 666.7 175C689.7 175 708.3 193.7 708.3 216.7C708.3 239.7 689.7 258.3 666.7 258.3C643.7 258.3 625 239.7 625 216.7z M375 91.7C375 68.7 393.7 50 416.7 50C439.7 50 458.3 68.7 458.3 91.7C458.3 114.7 439.7 133.3 416.7 133.3C393.7 133.3 375 114.7 375 91.7z M500 91.7C500 68.7 518.7 50 541.7 50C564.7 50 583.3 68.7 583.3 91.7C583.3 114.7 564.7 133.3 541.7 133.3C518.7 133.3 500 114.7 500 91.7z M625 91.7C625 68.7 643.7 50 666.7 50C689.7 50 708.3 68.7 708.3 91.7C708.3 114.7 689.7 133.3 666.7 133.3C643.7 133.3 625 114.7 625 91.7z M666.7 508.3V466.7H416.7V508.3H666.7M708.3 550H375V425H708.3V550z" />
    <glyph glyph-name="calendar-outline"
      unicode="&#xE038;"
      horiz-adv-x="1000" d=" M791.7 542.3V550C791.7 619 735.7 675 666.7 675S541.7 619 541.7 550H458.3C458.3 619 402.4 675 333.3 675S208.3 619 208.3 550V542.3C160 525 125 479.3 125 425V50C125 -18.9 181.1 -75 250 -75H750C818.9 -75 875 -18.9 875 50V425C875 479.3 840 525 791.7 542.3zM625 550C625 573 643.6 591.7 666.7 591.7S708.3 573 708.3 550V466.7C708.3 443.7 689.7 425 666.7 425S625 443.7 625 466.7V550zM291.7 550C291.7 573 310.3 591.7 333.3 591.7S375 573 375 550V466.7C375 443.7 356.4 425 333.3 425S291.7 443.7 291.7 466.7V550zM791.7 50C791.7 27 773 8.3 750 8.3H250C227 8.3 208.3 27 208.3 50V300H791.7V50zM791.7 341.7H208.3V425C208.3 448 227 466.7 250 466.7C250 420.7 287.3 383.3 333.3 383.3S416.7 420.7 416.7 466.7H583.3C583.3 420.7 620.7 383.3 666.7 383.3S750 420.7 750 466.7C773 466.7 791.7 448 791.7 425V341.7z" />
    <glyph glyph-name="calendar"
      unicode="&#xE039;"
      horiz-adv-x="1000" d=" M791.7 542.3V550C791.7 619 735.7 675 666.7 675S541.7 619 541.7 550H458.3C458.3 619 402.4 675 333.3 675S208.3 619 208.3 550V542.3C160 525 125 479.3 125 425V50C125 -18.9 181.1 -75 250 -75H750C818.9 -75 875 -18.9 875 50V425C875 479.3 840 525 791.7 542.3zM625 550C625 573 643.6 591.7 666.7 591.7S708.3 573 708.3 550V466.7C708.3 443.7 689.7 425 666.7 425S625 443.7 625 466.7V550zM291.7 550C291.7 573 310.3 591.7 333.3 591.7S375 573 375 550V466.7C375 443.7 356.4 425 333.3 425S291.7 443.7 291.7 466.7V550zM791.7 50C791.7 27 773 8.3 750 8.3H250C227 8.3 208.3 27 208.3 50V300H791.7V50z" />
    <glyph glyph-name="camera-outline"
      unicode="&#xE03A;"
      horiz-adv-x="1000" d=" M791.7 -33.3H208.3C139.4 -33.3 83.3 22.8 83.3 91.7V425C83.3 493.9 139.4 550 208.3 550H274.4L316.1 591.7C340.2 615.8 382.6 633.3 416.7 633.3H583.3C617.4 633.3 659.8 615.8 683.9 591.7L725.6 550H791.7C860.6 550 916.7 493.9 916.7 425V91.7C916.7 22.8 860.6 -33.3 791.7 -33.3zM208.3 466.7C185.3 466.7 166.7 448 166.7 425V91.7C166.7 68.7 185.3 50 208.3 50H791.7C814.7 50 833.3 68.7 833.3 91.7V425C833.3 448 814.7 466.7 791.7 466.7H708.3C697.3 466.7 686.7 471 678.9 478.9L625 532.8C616.6 541.1 595.2 550 583.3 550H416.7C404.8 550 383.4 541.1 375 532.8L321.1 478.9C313.3 471 302.8 466.7 291.7 466.7H208.3zM500 383.3C557.5 383.3 604.2 336.6 604.2 279.2S557.5 175 500 175S395.8 221.7 395.8 279.2S442.5 383.3 500 383.3M500 425C419.4 425 354.2 359.8 354.2 279.2C354.2 198.7 419.4 133.3 500 133.3S645.8 198.7 645.8 279.2C645.8 359.8 580.6 425 500 425zM750 437.5C720 437.5 695.8 413.3 695.8 383.3S720 329.2 750 329.2S804.2 353.4 804.2 383.3S780 437.5 750 437.5z" />
    <glyph glyph-name="camera"
      unicode="&#xE03B;"
      horiz-adv-x="1000" d=" M791.7 550H725.6L683.9 591.7C659.8 615.8 617.5 633.3 583.3 633.3H416.7C382.5 633.3 340.2 615.8 316.1 591.7L274.4 550H208.3C139.4 550 83.3 493.9 83.3 425V91.7C83.3 22.8 139.4 -33.3 208.3 -33.3H791.7C860.6 -33.3 916.7 22.8 916.7 91.7V425C916.7 493.9 860.6 550 791.7 550zM500 133.3C419.5 133.3 354.2 198.7 354.2 279.2C354.2 359.8 419.5 425 500 425S645.8 359.8 645.8 279.2C645.8 198.7 580.5 133.3 500 133.3zM750 329.2C720 329.2 695.8 353.4 695.8 383.3S720 437.5 750 437.5S804.2 413.3 804.2 383.3S780 329.2 750 329.2z" />
    <glyph glyph-name="cancel-outline"
      unicode="&#xE03C;"
      horiz-adv-x="1000" d=" M500 -54.2C304.7 -54.2 145.8 104.7 145.8 300S304.7 654.2 499.9 654.2C695.3 654.2 854.2 495.3 854.2 300S695.3 -54.2 500 -54.2zM500 570.8C350.6 570.8 229.2 449.3 229.2 300S350.7 29.2 500 29.2S770.8 150.7 770.8 300S649.3 570.8 500 570.8zM500.1 445.8C580.5 445.8 645.8 380.4 645.8 300C645.8 291.4 645 282.8 643.5 274.4L474.4 443.5C482.9 445 491.4 445.8 500 445.8M500.1 487.5C463.4 487.5 429.5 476.6 400.5 458.5L658.4 200.6C676.6 229.5 687.5 263.5 687.5 300.1C687.5 403.4 603.6 487.5 500.1 487.5zM356.5 325.7L525.7 156.5C517.2 155 508.6 154.2 500 154.2C419.6 154.2 354.2 219.6 354.2 300.1C354.2 308.7 355 317.3 356.5 325.7M341.6 399.5C323.5 370.6 312.5 336.7 312.5 300.1C312.5 196.5 396.5 112.5 500 112.5C536.6 112.5 570.5 123.5 599.5 141.6L341.6 399.5z" />
    <glyph glyph-name="cancel"
      unicode="&#xE03D;"
      horiz-adv-x="1000" d=" M500 633.3C316.2 633.3 166.7 483.8 166.7 300S316.2 -33.3 500 -33.3S833.3 116.2 833.3 300S683.8 633.3 500 633.3zM291.7 300C291.7 334.7 301 366.8 316 395.6L595.6 116C566.8 101 534.7 91.7 500 91.7C385.1 91.7 291.7 185.1 291.7 300zM684 204.4L404.4 484C433.2 499 465.3 508.3 500 508.3C614.9 508.3 708.3 414.9 708.3 300C708.3 265.3 699 233.2 684 204.4z" />
    <glyph glyph-name="chart-area-outline"
      unicode="&#xE03E;"
      horiz-adv-x="1000" d=" M833.3 91.7H166.7C143.7 91.7 125 110.3 125 133.3V258.3C125 286.7 134.8 314.4 152.4 336.4L319.1 544.8C359.9 595.8 439.3 606 491.7 566.6L561.5 514.3L652.5 628C676.2 657.9 711.8 675 750 675C778.3 675 806 665.3 828.1 647.6C857.9 623.8 875 588.2 875 550V133.3C875 110.3 856.3 91.7 833.3 91.7zM208.3 175H791.7V550C791.7 562.8 786 574.6 776 582.5C766.6 590.1 756.7 591.7 750 591.7C737.3 591.7 725.4 586 717.5 576L601.3 430.8C587.2 413.2 561.7 410 543.7 423.5L441.7 500C424.1 513.2 397.7 509.7 384.1 492.7L217.5 284.3C209.9 274.8 208.3 265 208.3 258.3V175zM833.3 -75H166.7C143.7 -75 125 -56.4 125 -33.3S143.7 8.3 166.7 8.3H833.3C856.3 8.3 875 -10.3 875 -33.3S856.3 -75 833.3 -75z" />
    <glyph glyph-name="chart-area"
      unicode="&#xE03F;"
      horiz-adv-x="1000" d=" M833.3 550C833.3 574.5 822.6 598.6 802.1 615.1C766.1 643.8 713.7 638 684.9 602.1L568.7 456.8L466.7 533.3C430.7 560.3 379.7 553.9 351.6 518.7L184.9 310.4C172.7 295 166.7 276.6 166.7 258.3V133.3H833.3V550zM833.3 8.3H166.7C143.7 8.3 125 -10.3 125 -33.3S143.7 -75 166.7 -75H833.3C856.3 -75 875 -56.4 875 -33.3S856.3 8.3 833.3 8.3z" />
    <glyph glyph-name="chart-bar-outline"
      unicode="&#xE040;"
      horiz-adv-x="1000" d=" M708.3 591.7C676.2 591.7 647.2 579.1 625 559.2V633.3C625 702.3 568.9 758.3 500 758.3S375 702.3 375 633.3V434.2C352.8 454.1 323.8 466.7 291.7 466.7C222.8 466.7 166.7 410.6 166.7 341.7V91.7H833.3V466.7C833.3 535.6 777.3 591.7 708.3 591.7zM500 675C523 675 541.7 656.3 541.7 633.3V175H458.3V633.3C458.3 656.3 477 675 500 675zM333.3 175H250V341.7C250 364.7 268.7 383.3 291.7 383.3S333.3 364.7 333.3 341.7V175zM750 175H666.7V466.7C666.7 489.7 685.4 508.3 708.3 508.3S750 489.7 750 466.7V175zM791.7 -75H208.3C185.3 -75 166.7 -56.4 166.7 -33.3S185.3 8.3 208.3 8.3H791.7C814.7 8.3 833.3 -10.3 833.3 -33.3S814.7 -75 791.7 -75z" />
    <glyph glyph-name="chart-bar"
      unicode="&#xE041;"
      horiz-adv-x="1000" d=" M583.3 633.3C583.3 679.4 546 716.7 500 716.7S416.7 679.4 416.7 633.3V133.3H583.3V633.3zM791.7 466.7C791.7 512.7 754.3 550 708.3 550S625 512.7 625 466.7V133.3H791.7V466.7zM375 341.7C375 387.7 337.7 425 291.7 425S208.3 387.7 208.3 341.7V133.3H375V341.7zM791.7 8.3H208.3C185.3 8.3 166.7 -10.3 166.7 -33.3S185.3 -75 208.3 -75H791.7C814.7 -75 833.3 -56.4 833.3 -33.3S814.7 8.3 791.7 8.3z" />
    <glyph glyph-name="chart-line-outline"
      unicode="&#xE042;"
      horiz-adv-x="1000" d=" M250 91.7C221.7 91.7 194 101.4 171.9 119.1C145.8 140 129.5 169.7 125.8 202.9C122.1 236 131.5 268.7 152.4 294.8L319.1 503.1C359.8 554.2 439.2 564.4 491.7 524.9L561.5 472.7L652.5 586.4C676.3 616.2 711.8 633.3 750 633.3C778.3 633.3 806 623.7 828.1 606C854.2 585.1 870.6 555.3 874.2 522.1S868.4 456.3 847.5 430.3L680.9 221.9C640.2 170.8 560.8 160.6 508.3 200L438.5 252.3L347.5 138.6C323.7 108.8 288.2 91.7 250 91.7zM416.7 466.7C403.9 466.7 392 461 384.1 451.1L217.5 242.7C210.5 234 207.3 223.1 208.6 212.1C209.8 201 215.3 191.1 224 184.2C233.5 176.6 243.3 175 250 175C262.7 175 274.6 180.7 282.5 190.7L424 367.5L558.3 266.7C575.8 253.5 602.3 257 615.9 274L782.5 482.4C789.5 491 792.6 501.9 791.4 513C790.2 524 784.7 534 776 540.9C766.6 548.5 756.7 550 750 550C737.3 550 725.4 544.3 717.5 534.4L576 357.6L441.7 458.3C434.4 463.8 425.8 466.7 416.7 466.7zM791.7 -75H208.3C185.3 -75 166.7 -56.4 166.7 -33.3S185.3 8.3 208.3 8.3H791.7C814.7 8.3 833.3 -10.3 833.3 -33.3S814.7 -75 791.7 -75z" />
    <glyph glyph-name="chart-line"
      unicode="&#xE043;"
      horiz-adv-x="1000" d=" M197.9 151.6C213.3 139.4 231.7 133.3 249.9 133.3C274.4 133.3 298.6 144.1 315 164.7L431.2 309.9L533.3 233.3C569.3 206.3 620.3 212.8 648.4 248L815.1 456.3C843.8 492.2 838 544.7 802.1 573.5C766.1 602.2 713.7 596.4 684.9 560.5L568.7 415.2L466.7 491.7C430.7 518.7 379.7 512.3 351.6 477.1L184.9 268.8C156.2 232.8 162 180.4 197.9 151.6zM208.3 -75H791.7C814.7 -75 833.3 -56.4 833.3 -33.3S814.7 8.3 791.7 8.3H208.3C185.3 8.3 166.7 -10.3 166.7 -33.3S185.3 -75 208.3 -75z" />
    <glyph glyph-name="chart-pie-outline"
      unicode="&#xE044;"
      horiz-adv-x="1000" d=" M759.5 483L782.7 506.3C799.2 522.8 808 545.5 806.9 568.9C805.8 592.3 795 614.1 777 629C688.3 703 580.8 747.7 465.8 758.1L458.3 758.3C437.6 758.3 417.5 750.6 402.1 736.5C384.8 720.8 375 698.4 375 675V582.1C222.6 546.1 111.1 407.6 111.1 248.5C111.1 59.1 264.8 -95 453.8 -95C520.2 -95 583.4 -75 638.8 -38.9C650.4 -44.8 663.1 -48.3 676.3 -48.3L680.9 -48.2C704.6 -46.9 726.6 -35.5 741.4 -16.9C800.6 57.3 833.3 150.5 833.3 245.5C833.3 330.1 807.2 413.3 759.5 483zM453.8 -11.6C310.5 -11.6 194.5 104.8 194.5 248.5C194.5 379.3 291 487.3 416.7 505.4V238.4L608.7 40.3C565.5 7.8 512 -11.6 453.8 -11.6zM458.3 299V675C558.8 665.9 650.3 626.1 723.6 565L458.3 299zM467.3 246.1L676.4 455.6C722.4 397.9 750.1 324.7 750.1 245.5C750.1 165.7 722.4 92.7 676.4 35L467.3 246.1z" />
    <glyph glyph-name="chart-pie"
      unicode="&#xE045;"
      horiz-adv-x="1000" d=" M483.9 217.5L688.4 12.4C704.7 -3.9 729.7 -2.6 742 16.8C778.7 74.9 800 143.7 800 217.5C800 306.3 769.2 387.7 717.9 452.1L483.9 217.5zM375 200.2V506.6C233.7 486.3 125 364.8 125 217.5C125 56 255.6 -75 416.7 -75C482.2 -75 542.4 -53.1 591.1 -16.5L375 200.2zM680.5 541.1C696.7 557.4 695.7 582.8 676.8 595.8C624.5 632 564.5 657.5 499.6 669.4C477 673.5 458.3 656.4 458.3 633.3V318.3L680.5 541.1z" />
    <glyph glyph-name="chevron-left-outline"
      unicode="&#xE046;"
      horiz-adv-x="1000" d=" M541.7 -33.3C508.3 -33.3 476.9 -20.3 453.3 3.3L156.5 300L453.3 596.7C500.5 643.9 582.9 643.9 630.1 596.7C653.7 573.1 666.7 541.7 666.7 508.3S653.7 443.5 630 419.9L510.1 300L630 180C653.7 156.5 666.7 125 666.7 91.7S653.7 26.9 630 3.3C606.5 -20.3 575.1 -33.3 541.7 -33.3zM274.4 300L512.2 62.2C528 46.5 555.4 46.5 571.1 62.2C579 70.1 583.3 80.5 583.3 91.7S579 113.3 571.1 121.1L392.3 300L571.1 478.9C579 486.8 583.3 497.2 583.3 508.3S579 529.9 571.1 537.8C555.4 553.6 527.9 553.5 512.2 537.8L274.4 300z" />
    <glyph glyph-name="chevron-left"
      unicode="&#xE047;"
      horiz-adv-x="1000" d=" M600.6 567.3C568.1 599.8 515.3 599.8 482.8 567.3L215.5 300L482.8 32.8C499 16.5 520.3 8.3 541.7 8.3S584.3 16.5 600.6 32.8C633.1 65.3 633.1 118 600.6 150.6L451.2 300L600.6 449.4C633.1 482 633.1 534.7 600.6 567.2z" />
    <glyph glyph-name="chevron-right-outline"
      unicode="&#xE048;"
      horiz-adv-x="1000" d=" M416.7 -33.3C383.3 -33.3 351.9 -20.3 328.3 3.3C304.7 26.9 291.7 58.3 291.7 91.7S304.7 156.5 328.3 180.1L448.2 300L328.3 420C304.7 443.5 291.7 475 291.7 508.3S304.7 573.1 328.3 596.8C375.5 643.9 457.8 644 505.1 596.7L801.8 300L505 3.3C481.5 -20.3 450.1 -33.3 416.7 -33.3zM416.7 550C405.5 550 395.1 545.7 387.2 537.8C379.3 529.9 375 519.5 375 508.3S379.3 486.8 387.2 478.9L566 300L387.2 121.1C379.3 113.3 375 102.8 375 91.7S379.3 70.1 387.2 62.2C403 46.4 430.4 46.5 446.1 62.2L684 300L446.1 537.8C438.2 545.7 427.8 550 416.7 550z" />
    <glyph glyph-name="chevron-right"
      unicode="&#xE049;"
      horiz-adv-x="1000" d=" M357.8 567.3C325.2 534.7 325.2 482 357.8 449.4L507.1 300L357.7 150.6C325.2 118 325.2 65.3 357.7 32.8C374 16.5 395.3 8.3 416.7 8.3S459.3 16.5 475.6 32.8L742.9 300L475.6 567.2C443.1 599.8 390.2 599.8 357.7 567.2z" />
    <glyph glyph-name="clipboard"
      unicode="&#xE04A;"
      horiz-adv-x="1000" d=" M708.3 675H291.7C222.8 675 166.7 618.9 166.7 550V50C166.7 -18.9 222.8 -75 291.7 -75H708.3C777.3 -75 833.3 -18.9 833.3 50V550C833.3 618.9 777.3 675 708.3 675zM375 591.7H625V550C625 527 606.3 508.3 583.3 508.3H416.7C393.7 508.3 375 527 375 550V591.7zM750 50C750 27 731.3 8.3 708.3 8.3H291.7C268.7 8.3 250 27 250 50V550C250 573 268.7 591.7 291.7 591.7H333.3V550C333.3 504.2 370.8 466.7 416.7 466.7H583.3C629.2 466.7 666.7 504.2 666.7 550V591.7H708.3C731.3 591.7 750 573 750 550V50zM666.7 91.7H333.3C321.8 91.7 312.5 101 312.5 112.5S321.8 133.3 333.3 133.3H666.7C678.2 133.3 687.5 124 687.5 112.5S678.2 91.7 666.7 91.7zM666.7 216.7H333.3C321.8 216.7 312.5 226 312.5 237.5S321.8 258.3 333.3 258.3H666.7C678.2 258.3 687.5 249 687.5 237.5S678.2 216.7 666.7 216.7zM666.7 341.7H333.3C321.8 341.7 312.5 351 312.5 362.5S321.8 383.3 333.3 383.3H666.7C678.2 383.3 687.5 374 687.5 362.5S678.2 341.7 666.7 341.7z" />
    <glyph glyph-name="cloud-storage"
      unicode="&#xE04B;"
      horiz-adv-x="1000" d=" M708.3 425L693.7 424.4C659.3 523.4 566.1 591.7 458.3 591.7C320.5 591.7 208.3 479.5 208.3 341.7L208.4 336.4C136.5 317.9 83.3 252.5 83.3 175C83.3 83.1 158.1 8.3 250 8.3H458.3V199.4L404.5 145.5C396.3 137.4 385.7 133.3 375 133.3S353.7 137.4 345.5 145.5C329.2 161.8 329.2 188.2 345.5 204.5L470.5 329.4C474.4 333.3 479 336.3 484.1 338.5C494.3 342.7 505.7 342.7 515.9 338.5C521 336.3 525.6 333.3 529.5 329.4L654.5 204.5C670.7 188.2 670.7 161.8 654.5 145.5C646.3 137.4 635.7 133.3 625 133.3S603.7 137.4 595.5 145.5L541.7 199.4V8.3H708.3C823.2 8.3 916.7 101.8 916.7 216.7S823.2 425 708.3 425z" />
    <glyph glyph-name="cloud-storage-outline"
      unicode="&#xE054;"
      horiz-adv-x="1000" d=" M687.5 425L672.8 424.4C638.5 523.4 534.8 591.7 427.1 591.7C289.2 591.7 166.7 479.6 166.7 341.7V336.5C125 317.9 52.1 252.5 52.1 175C52.1 83.1 137.3 8.3 229.2 8.3H687.5C802.4 8.3 895.8 101.8 895.8 216.7S802.4 425 687.5 425zM687.5 91.7H500V249.8L589.4 160.3C593.5 156.2 598.8 154.3 604.2 154.3S614.8 156.3 618.9 160.3C627 168.4 627 181.7 618.9 189.8L494 314.8L487.2 319.3C482 321.4 476.3 321.4 471.2 319.3L464.5 314.8L339.5 189.8C331.4 181.7 331.4 168.4 339.5 160.3C343.6 156.2 348.9 154.3 354.2 154.3S364.9 156.3 369 160.3L458.3 249.8V91.7H229.2C183.2 91.7 145.8 129 145.8 175S183.2 258.3 225.3 258.5L284.6 257.9L274.2 308C272 319 270.8 330.3 270.8 341.7C270.8 433.6 345.6 508.3 437.5 508.3C518.8 508.3 587.7 449.9 601.2 369.4L609 323.5L653.7 336.2C666.7 340 677.5 341.7 687.6 341.7C756.5 341.7 812.6 285.6 812.6 216.7S756.4 91.7 687.5 91.7z" />
    <glyph glyph-name="code-outline"
      unicode="&#xE04C;"
      horiz-adv-x="1000" d=" M326.2 8.3C292.8 8.3 261.4 21.3 237.8 45L24.4 258.3L237.8 471.7C285 519 367.5 519 414.6 471.7C463.3 423 463.3 343.7 414.5 295L378 258.3L414.5 221.7C463.3 173 463.3 93.7 414.5 45C391 21.3 359.6 8.3 326.2 8.3zM142.3 258.3L296.7 103.9C312.5 88.1 340 88.2 355.6 103.8C371.9 120.1 371.9 146.5 355.6 162.8L260.1 258.3L355.6 353.9C371.9 370.1 371.9 396.5 355.6 412.8C339.9 428.6 312.5 428.5 296.7 412.8L142.3 258.3zM673.8 8.3C640.4 8.3 609 21.3 585.4 45C536.7 93.7 536.7 173 585.5 221.7L622 258.3L585.5 295C536.7 343.7 536.7 423 585.5 471.7C632.5 518.9 715 519 762.2 471.7L975.6 258.3L762.2 45C738.6 21.3 707.2 8.3 673.8 8.3zM673.8 425C662.7 425 652.2 420.7 644.4 412.8C628.1 396.5 628.1 370.1 644.4 353.9L739.9 258.3L644.4 162.8C628.1 146.5 628.1 120.1 644.4 103.9C660.1 88.1 687.5 88.1 703.3 103.9L857.7 258.3L703.3 412.8C695.4 420.7 684.9 425 673.8 425z" />
    <glyph glyph-name="code"
      unicode="&#xE04D;"
      horiz-adv-x="1000" d=" M340.5 50C319.1 50 297.8 58.1 281.5 74.4L97.6 258.3L281.5 442.2C314.1 474.8 366.9 474.8 399.4 442.2C431.9 409.7 431.9 357 399.4 324.4L333.3 258.3L399.4 192.3C431.9 159.7 431.9 107 399.4 74.4C383.1 58.1 361.8 50 340.5 50zM659.5 50C638.2 50 616.9 58.1 600.6 74.4C568.1 107 568.1 159.7 600.6 192.3L666.7 258.3L600.6 324.4C568.1 357 568.1 409.7 600.6 442.2C633.1 474.8 685.9 474.8 718.5 442.2L902.4 258.3L718.5 74.4C702.2 58.1 680.9 50 659.5 50z" />
    <glyph glyph-name="coffee"
      unicode="&#xE04E;"
      horiz-adv-x="1000" d=" M708.3 8.3H208.3C185.3 8.3 166.7 27 166.7 50S185.3 91.7 208.3 91.7H708.3C731.4 91.7 750 73 750 50S731.4 8.3 708.3 8.3zM729.2 591.7H208.3V216.7C208.3 170.8 245.8 133.3 291.7 133.3H625C670.8 133.3 708.3 170.8 708.3 216.7V300H729.2C809.6 300 875 365.4 875 445.8S809.6 591.7 729.2 591.7zM625 216.7H291.7V508.3H625V216.7zM729.2 383.3H666.7V508.3H729.2C763.6 508.3 791.7 480.3 791.7 445.8S763.6 383.3 729.2 383.3z" />
    <glyph glyph-name="cog-outline"
      unicode="&#xE04F;"
      horiz-adv-x="1000" d=" M541.7 591.7L577.3 449.2L718.5 489.6L781 381.3L675.4 279.3L781 177.1L718.5 68.8L577.3 109.3L541.7 -33.3H416.7L381 109.3L239.8 68.8L177.2 177.1L282.9 279.3L177.3 381.3L239.8 489.6L381 449.2L416.7 591.7H541.7M541.7 675H416.7C378.4 675 345.1 649 335.9 611.8L321.1 553L262.8 569.7C255.1 571.9 247.4 572.9 239.8 572.9C210.6 572.9 182.8 557.5 167.7 531.3L105.2 422.9C86 389.8 92 347.8 119.4 321.3L163 279.2L119.4 236.9C91.9 210.4 86 168.5 105.1 135.3L167.7 27C182.8 0.7 210.6 -14.7 239.8 -14.7C247.4 -14.7 255.1 -13.6 262.8 -11.5L321.1 5.2L335.8 -53.7C345.1 -90.6 378.4 -116.7 416.7 -116.7H541.7C579.9 -116.7 613.3 -90.6 622.5 -53.5L637.2 5.4L695.5 -11.2C703.2 -13.5 710.9 -14.5 718.5 -14.5C747.7 -14.5 775.5 1 790.6 27.2L853.1 135.5C872.3 168.7 866.3 210.5 838.9 237.1L795.3 279.3L838.9 321.5C866.4 348.1 872.3 390 853.1 423.1L790.6 531.5C775.4 557.8 747.7 573.1 718.5 573.1C710.8 573.1 703.1 572.1 695.5 570L637.2 553.3L622.4 612.1C613.3 649 579.9 675 541.7 675zM479.2 362.5C525.2 362.5 562.5 325.2 562.5 279.2C562.5 233.2 525.2 195.8 479.2 195.8S395.8 233.2 395.8 279.2C395.8 325.2 433.2 362.5 479.2 362.5M479.2 404.2C410.3 404.2 354.2 348.1 354.2 279.2S410.3 154.2 479.2 154.2S604.2 210.3 604.2 279.2S548.1 404.2 479.2 404.2z" />
    <glyph glyph-name="cog"
      unicode="&#xE050;"
      horiz-adv-x="1000" d=" M391.1 68.8L406.6 7.1C412.1 -15.1 435.4 -33.3 458.3 -33.3H500C522.9 -33.3 546.2 -15.1 551.8 7.1L567.2 68.8C572.8 91 595.3 104.1 617.3 97.8L678.5 80.3C700.5 74 728 85 739.4 104.9L760.2 141C771.6 160.9 767.6 190.1 751.1 206.1L705.3 250.3C688.8 266.3 688.8 292.3 705.4 308.2L751 352.4C767.5 368.3 771.6 397.6 760.2 417.5L739.3 453.6C727.9 473.5 700.5 484.5 678.5 478.2L617.3 460.7C595.3 454.4 572.8 467.4 567.2 489.6L551.8 551.3C546.2 573.5 522.9 591.7 500 591.7H458.3C435.4 591.7 412.1 573.5 406.6 551.3L391.2 489.6C385.6 467.4 363 454.3 341 460.6L279.9 478.1C257.8 484.5 230.4 473.4 219 453.5L198.1 417.4C186.7 397.5 190.7 368.3 207.3 352.3L253 308.2C269.4 292.3 269.4 266.2 253 250.3L207.2 206C190.7 190.1 186.6 160.8 198.1 141L219 104.8C230.4 85 257.8 73.9 279.9 80.2L341 97.7C363 104.1 385.6 91 391.1 68.8zM479.2 362.5C525.2 362.5 562.5 325.2 562.5 279.2C562.5 233.2 525.2 195.8 479.2 195.8S395.8 233.2 395.8 279.2C395.8 325.2 433.2 362.5 479.2 362.5z" />
    <glyph glyph-name="compass"
      unicode="&#xE051;"
      horiz-adv-x="1000" d=" M500 591.7C660.8 591.6 791.7 460.8 791.7 300C791.7 139.2 660.8 8.4 500 8.3C339.2 8.3 208.3 139.2 208.3 300S339.2 591.6 500 591.7M500 675C292.9 675 125 507.1 125 300C125 92.9 292.9 -75 500 -75C707.1 -75 875 92.9 875 300C875 507.1 707.1 675 500 675zM674.2 474.2C668.9 479.5 661.1 481.6 653.8 479.5L405.8 408.4C398.9 406.4 393.5 401 391.6 394.1L320.5 146.2C318.3 138.9 320.4 131 325.7 125.7C329.7 121.8 335 119.6 340.5 119.6L346.2 120.5L594.2 191.6C601 193.6 606.5 199 608.4 205.9L679.5 453.8C681.6 461 679.6 468.8 674.2 474.2zM370.8 170.8L428.5 371.5L571.5 228.4L370.8 170.8z" />
    <glyph glyph-name="contacts"
      unicode="&#xE052;"
      horiz-adv-x="1000" d=" M791.7 675H333.3C264.4 675 208.3 618.9 208.3 550V508.3H166.7C143.6 508.3 125 489.7 125 466.7S143.6 425 166.7 425H208.3V341.7H166.7C143.6 341.7 125 323 125 300S143.6 258.3 166.7 258.3H208.3V175H166.7C143.6 175 125 156.3 125 133.3S143.6 91.7 166.7 91.7H208.3V50C208.3 -18.9 264.4 -75 333.3 -75H791.7C860.6 -75 916.7 -18.9 916.7 50V550C916.7 618.9 860.6 675 791.7 675zM291.7 550C291.7 573 310.4 591.7 333.3 591.7V508.3H291.7V550zM291.7 425H333.3V341.7H291.7V425zM291.7 258.3H333.3V175H291.7V258.3zM291.7 50V91.7H333.3V8.3C310.4 8.3 291.7 27 291.7 50zM833.3 50C833.3 27 814.6 8.3 791.7 8.3H375V591.7H791.7C814.6 591.7 833.3 573 833.3 550V50z M500 362.5C500 316.5 537.3 279.2 583.3 279.2C629.4 279.2 666.7 316.5 666.7 362.5C666.7 408.5 629.4 445.8 583.3 445.8C537.3 445.8 500 408.5 500 362.5z M583.3 243.5C518.3 243.5 479.2 213.7 479.2 184C479.2 169.1 518.3 154.2 583.3 154.2C644.4 154.2 687.5 169 687.5 184C687.5 213.7 646.7 243.5 583.3 243.5z" />
    <glyph glyph-name="credit-card"
      unicode="&#xE053;"
      horiz-adv-x="1000" d=" M708.3 508.3H250C181.1 508.3 125 452.3 125 383.3V91.7C125 22.8 181.1 -33.3 250 -33.3H708.3C777.3 -33.3 833.3 22.8 833.3 91.7V383.3C833.3 452.3 777.3 508.3 708.3 508.3zM750 91.7C750 68.7 731.3 50 708.3 50H250C227 50 208.3 68.7 208.3 91.7V258.3H750V91.7zM750 341.7H208.3V383.3C208.3 406.3 227 425 250 425H708.3C731.3 425 750 406.3 750 383.3V341.7zM583.3 133.3H666.7C678.2 133.3 687.5 142.7 687.5 154.2S678.2 175 666.7 175H583.3C571.8 175 562.5 165.7 562.5 154.2S571.8 133.3 583.3 133.3z" />
    <glyph glyph-name="css3"
      unicode="&#xE055;"
      horiz-adv-x="1000" d=" M237.5 658.3L212.5 525H725L708.3 437.5H195.8L170.8 304.2H683.3L654.2 154.2L445.8 83.3L266.7 154.2L279.2 220.8H154.2L125 62.5L420.8 -58.3L762.5 62.5L808.3 304.2L816.7 354.2L875 658.3H237.5z" />
    <glyph glyph-name="database"
      unicode="&#xE056;"
      horiz-adv-x="1000" d=" M791 433.7C783.6 588 656.1 711.5 500 711.5S216.4 588 209 433.7L208.3 430.2V169.8C208.3 9 339.2 -121.9 500 -121.9S791.7 9 791.7 169.8V430.2L791 433.7zM500 65.6C407.5 65.6 327.8 120.8 291.7 199.9V216C344.6 161.9 418.4 128.1 500 128.1S655.4 161.9 708.3 216V199.9C672.2 120.8 592.5 65.6 500 65.6zM500 628.1C614.9 628.1 708.3 534.7 708.3 419.8S614.9 211.5 500 211.5S291.7 304.9 291.7 419.8S385.1 628.1 500 628.1zM500 -38.5C405.4 -38.5 326.2 25.3 300.9 111.8C350.4 58 421.2 24 500 24S649.6 58 699.1 111.8C673.8 25.3 594.6 -38.5 500 -38.5z" />
    <glyph glyph-name="delete-outline"
      unicode="&#xE057;"
      horiz-adv-x="1000" d=" M500 675C293.2 675 125 506.8 125 300S293.2 -75 500 -75S875 93.3 875 300S706.8 675 500 675zM500 8.3C339.2 8.3 208.3 139.2 208.3 300S339.2 591.7 500 591.7S791.7 460.8 791.7 300S660.8 8.3 500 8.3zM529.5 300L639.7 410.3C647.8 418.3 647.8 431.6 639.7 439.7C631.6 447.8 618.3 447.8 610.3 439.7L500 329.5L389.7 439.8C381.6 447.8 368.4 447.8 360.3 439.8C352.2 431.6 352.2 418.4 360.3 410.3L470.5 300L360.3 189.8C352.2 181.6 352.2 168.4 360.3 160.3C364.3 156.2 369.7 154.2 375 154.2S385.7 156.2 389.7 160.3L500 270.5L610.2 160.3C614.3 156.2 619.7 154.2 625 154.2S635.7 156.2 639.7 160.3C647.8 168.3 647.8 181.6 639.7 189.7L529.5 300z" />
    <glyph glyph-name="delete"
      unicode="&#xE058;"
      horiz-adv-x="1000" d=" M500 633.3C315.9 633.3 166.7 484.1 166.7 300S315.9 -33.3 500 -33.3S833.3 115.9 833.3 300S684.1 633.3 500 633.3zM654.5 204.5C670.7 188.2 670.7 161.8 654.5 145.5C646.3 137.4 635.7 133.3 625 133.3S603.7 137.4 595.5 145.5L500 241.1L404.5 145.5C396.3 137.4 385.7 133.3 375 133.3S353.7 137.4 345.5 145.5C329.2 161.8 329.2 188.2 345.5 204.5L441.1 300L345.5 395.5C329.2 411.8 329.2 438.2 345.5 454.5S388.2 470.8 404.5 454.5L500 358.9L595.5 454.5C611.8 470.8 638.2 470.8 654.5 454.5S670.7 411.8 654.5 395.5L558.9 300L654.5 204.5z" />
    <glyph glyph-name="device-desktop"
      unicode="&#xE059;"
      horiz-adv-x="1000" d=" M875 758.3H125C56.1 758.3 0 702.3 0 633.3V175C0 106.1 56.1 50 125 50H375V-33.3H250C227 -33.3 208.3 -52 208.3 -75S227 -116.7 250 -116.7H750C773 -116.7 791.7 -98 791.7 -75S773 -33.3 750 -33.3H625V50H875C943.9 50 1000 106.1 1000 175V633.3C1000 702.3 943.9 758.3 875 758.3zM583.3 -33.3H416.7V50H583.3V-33.3zM916.7 175C916.7 152 898 133.3 875 133.3H125C102 133.3 83.3 152 83.3 175V633.3C83.3 656.3 102 675 125 675H875C898 675 916.7 656.3 916.7 633.3V175zM833.3 633.3H166.7C143.8 633.3 125 614.6 125 591.7V258.3C125 235.4 143.8 216.7 166.7 216.7H833.3C856.3 216.7 875 235.4 875 258.3V591.7C875 614.6 856.3 633.3 833.3 633.3zM833.3 258.3H166.7V591.7H833.3V258.3z" />
    <glyph glyph-name="device-laptop"
      unicode="&#xE05A;"
      horiz-adv-x="1000" d=" M916.2 131.3C916.6 144.4 916.7 158.7 916.7 175V550C916.7 618.9 860.6 675 791.7 675H208.3C139.4 675 83.3 618.9 83.3 550V175C83.3 159 83.4 144.6 83.8 131.3C36.1 121.8 0 79.6 0 29.2C0 -28.2 46.8 -75 104.2 -75H895.8C953.3 -75 1000 -28.2 1000 29.2C1000 79.6 963.9 121.8 916.2 131.3zM166.7 550C166.7 573 185.4 591.7 208.3 591.7H791.7C814.6 591.7 833.3 573 833.3 550V175C833.3 158.8 833.1 144.8 832.8 133.3H791.7V508.3C791.7 531.3 772.9 550 750 550H250C227.1 550 208.3 531.3 208.3 508.3V133.3H167.5C167 144.3 166.7 158.3 166.7 175V550zM750 133.3H250V508.3H750V133.3zM895.8 8.3H104.2C92.9 8.3 83.3 17.9 83.3 29.2S92.9 50 104.2 50H895.8C907.1 50 916.7 40.5 916.7 29.2S907.1 8.3 895.8 8.3z" />
    <glyph glyph-name="device-phone"
      unicode="&#xE05B;"
      horiz-adv-x="1000" d=" M625 675H333.3C264.4 675 208.3 618.9 208.3 550V50C208.3 -18.9 264.4 -75 333.3 -75H625C693.9 -75 750 -18.9 750 50V550C750 618.9 693.9 675 625 675zM666.7 50C666.7 27 648 8.3 625 8.3H333.3C310.4 8.3 291.7 27 291.7 50V550C291.7 573 310.4 591.7 333.3 591.7H625C648 591.7 666.7 573 666.7 550V50zM583.3 550H375C352.1 550 333.3 531.3 333.3 508.3V133.3C333.3 110.4 352.1 91.7 375 91.7H437.5C437.5 68.6 456.2 50 479.2 50S520.8 68.6 520.8 91.7H583.3C606.3 91.7 625 110.4 625 133.3V508.3C625 531.3 606.3 550 583.3 550zM583.3 133.3H375V508.3H583.3V133.3z" />
    <glyph glyph-name="device-tablet"
      unicode="&#xE05C;"
      horiz-adv-x="1000" d=" M708.3 633.3H333.3C310.4 633.3 291.7 614.6 291.7 591.7V91.7C291.7 68.8 310.4 50 333.3 50H479.2C479.2 27 497.8 8.3 520.8 8.3S562.5 27 562.5 50H708.3C731.3 50 750 68.8 750 91.7V591.7C750 614.6 731.3 633.3 708.3 633.3zM708.3 91.7H333.3V591.7H708.3V91.7zM750 758.3H291.7C222.8 758.3 166.7 702.3 166.7 633.3V8.3C166.7 -60.6 222.8 -116.7 291.7 -116.7H750C818.9 -116.7 875 -60.6 875 8.3V633.3C875 702.3 818.9 758.3 750 758.3zM791.7 8.3C791.7 -14.6 773 -33.3 750 -33.3H291.7C268.7 -33.3 250 -14.6 250 8.3V633.3C250 656.3 268.7 675 291.7 675H750C773 675 791.7 656.3 791.7 633.3V8.3z" />
    <glyph glyph-name="directions"
      unicode="&#xE05D;"
      horiz-adv-x="1000" d=" M871.2 404.2L756.4 512.8C732.7 535.3 696.1 550 663.2 550H541.7V570.8C541.7 605.3 513.7 633.3 479.2 633.3S416.7 605.3 416.7 570.8V550H270.8C190.4 550 125 484.6 125 404.2C125 346 159.5 296 209 272.6L132.2 195.8L238.9 89.1C262.6 65.4 299.7 50 333.4 50H425L458.4 -116.7H500L533.4 50H645.9C726.3 50 791.7 115.4 791.7 195.8C791.7 233.4 777 267.4 753.6 293.3L756.6 295.6L871.2 404.2zM645.8 133.3H333.3C321.9 133.3 305.9 139.9 297.8 148.1L250 195.8L297.8 243.6C305.9 251.7 321.8 258.3 333.3 258.3H645.8C680.3 258.3 708.3 230.3 708.3 195.8S680.3 133.3 645.8 133.3zM699.1 356C690.8 348.1 674.7 341.7 663.2 341.7H270.8C236.3 341.7 208.3 369.7 208.3 404.2S236.3 466.7 270.8 466.7H663.2C674.7 466.7 690.8 460.3 699.1 452.3L750 404.2L699.1 356z" />
    <glyph glyph-name="divide-outline"
      unicode="&#xE05E;"
      horiz-adv-x="1000" d=" M500 445.8C431.1 445.8 375 501.9 375 570.8S431.1 695.8 500 695.8S625 639.8 625 570.8S568.9 445.8 500 445.8zM500 612.5C477 612.5 458.3 593.8 458.3 570.8S477 529.2 500 529.2S541.7 547.9 541.7 570.8S523 612.5 500 612.5zM500 -95.8C431.1 -95.8 375 -39.7 375 29.2S431.1 154.2 500 154.2S625 98.1 625 29.2S568.9 -95.8 500 -95.8zM500 70.8C477 70.8 458.3 52.1 458.3 29.2S477 -12.5 500 -12.5S541.7 6.2 541.7 29.2S523 70.8 500 70.8zM750 175H250C181.1 175 125 231.1 125 300S181.1 425 250 425H750C818.9 425 875 368.9 875 300S818.9 175 750 175zM250 341.7C227 341.7 208.3 323 208.3 300S227 258.3 250 258.3H750C773 258.3 791.7 277 791.7 300S773 341.7 750 341.7H250z" />
    <glyph glyph-name="divide"
      unicode="&#xE05F;"
      horiz-adv-x="1000" d=" M406.3 550C406.3 498.2 448.2 456.3 500 456.3C551.8 456.3 593.8 498.2 593.8 550C593.8 601.8 551.8 643.8 500 643.8C448.2 643.8 406.3 601.8 406.3 550z M406.3 50C406.3 -1.8 448.2 -43.7 500 -43.7C551.8 -43.7 593.8 -1.8 593.8 50C593.8 101.8 551.8 143.8 500 143.8C448.2 143.8 406.3 101.8 406.3 50z M750 383.3H250C204 383.3 166.7 346 166.7 300S204 216.7 250 216.7H750C796 216.7 833.3 254 833.3 300S796 383.3 750 383.3z" />
    <glyph glyph-name="document-add"
      unicode="&#xE060;"
      horiz-adv-x="1000" d=" M625 300H541.7V383.3C541.7 406.4 523 425 500 425S458.3 406.4 458.3 383.3V300H375C352 300 333.3 281.4 333.3 258.3S352 216.7 375 216.7H458.3V133.3C458.3 110.3 477 91.7 500 91.7S541.7 110.3 541.7 133.3V216.7H625C648 216.7 666.7 235.3 666.7 258.3S648 300 625 300zM821.1 496.1L654.5 662.8C646.7 670.6 636.1 675 625 675H291.7C222.8 675 166.7 618.9 166.7 550V50C166.7 -18.9 222.8 -75 291.7 -75H708.3C777.3 -75 833.3 -18.9 833.3 50V466.7C833.3 477.8 829 488.3 821.1 496.1zM732.8 466.7H687.5C653 466.7 625 494.7 625 529.2V574.4L732.8 466.7zM708.3 8.3H291.7C268.7 8.3 250 27 250 50V550C250 573 268.7 591.7 291.7 591.7H583.3V529.2C583.3 471.7 630 425 687.5 425H750V50C750 27 731.3 8.3 708.3 8.3z" />
    <glyph glyph-name="document-delete"
      unicode="&#xE061;"
      horiz-adv-x="1000" d=" M821.1 496.1L654.5 662.8C646.7 670.6 636.1 675 625 675H291.7C222.8 675 166.7 618.9 166.7 550V50C166.7 -18.9 222.8 -75 291.7 -75H708.3C777.3 -75 833.3 -18.9 833.3 50V466.7C833.3 477.8 829 488.3 821.1 496.1zM732.8 466.7H687.5C653 466.7 625 494.7 625 529.2V574.4L732.8 466.7zM708.3 8.3H291.7C268.7 8.3 250 27 250 50V550C250 573 268.7 591.7 291.7 591.7H583.3V529.2C583.3 471.7 630 425 687.5 425H750V50C750 27 731.3 8.3 708.3 8.3zM625 216.7H375C352 216.7 333.3 235.3 333.3 258.3S352 300 375 300H625C648 300 666.7 281.4 666.7 258.3S648 216.7 625 216.7z" />
    <glyph glyph-name="document-text"
      unicode="&#xE062;"
      horiz-adv-x="1000" d=" M708.3 -75H291.7C222.8 -75 166.7 -18.9 166.7 50V550C166.7 618.9 222.8 675 291.7 675H708.3C777.3 675 833.3 618.9 833.3 550V50C833.3 -18.9 777.3 -75 708.3 -75zM291.7 591.7C268.7 591.7 250 573 250 550V50C250 27 268.7 8.3 291.7 8.3H708.3C731.3 8.3 750 27 750 50V550C750 573 731.3 591.7 708.3 591.7H291.7zM666.7 341.7H333.3C321.8 341.7 312.5 351 312.5 362.5S321.8 383.3 333.3 383.3H666.7C678.2 383.3 687.5 374 687.5 362.5S678.2 341.7 666.7 341.7zM666.7 466.7H333.3C321.8 466.7 312.5 476 312.5 487.5S321.8 508.3 333.3 508.3H666.7C678.2 508.3 687.5 499 687.5 487.5S678.2 466.7 666.7 466.7zM666.7 216.7H333.3C321.8 216.7 312.5 226 312.5 237.5S321.8 258.3 333.3 258.3H666.7C678.2 258.3 687.5 249 687.5 237.5S678.2 216.7 666.7 216.7zM666.7 91.7H333.3C321.8 91.7 312.5 101 312.5 112.5S321.8 133.3 333.3 133.3H666.7C678.2 133.3 687.5 124 687.5 112.5S678.2 91.7 666.7 91.7z" />
    <glyph glyph-name="document"
      unicode="&#xE063;"
      horiz-adv-x="1000" d=" M821.1 496.1L654.5 662.8C646.7 670.6 636.1 675 625 675H291.7C222.8 675 166.7 618.9 166.7 550V50C166.7 -18.9 222.8 -75 291.7 -75H708.3C777.3 -75 833.3 -18.9 833.3 50V466.7C833.3 477.8 829 488.3 821.1 496.1zM732.8 466.7H687.5C653 466.7 625 494.7 625 529.2V574.4L732.8 466.7zM708.3 8.3H291.7C268.7 8.3 250 27 250 50V550C250 573 268.7 591.7 291.7 591.7H583.3V529.2C583.3 471.7 630 425 687.5 425H750V50C750 27 731.3 8.3 708.3 8.3z" />
    <glyph glyph-name="download-outline"
      unicode="&#xE064;"
      horiz-adv-x="1000" d=" M874.4 91.7C874.4 96 874.2 100.5 872.8 104.8L789.5 354.8C783.8 371.9 768 383.3 750 383.3H726.6L755 411.6C803.8 460.3 803.8 539.6 755 588.3C721.3 622.2 668.9 633.3 625 617.9V675C625 743.9 568.9 800 500 800S375 743.9 375 675V617.9C331.2 633.3 278.7 622.2 245 588.3C196.2 539.6 196.2 460.3 245 411.5L273.4 383.3H250C232 383.3 216.2 371.9 210.5 354.8L127.2 104.8C125.7 100.5 125.6 96 125.6 91.7C125 91.7 125 -116.7 125 -116.7C125 -139.7 143.6 -158.3 166.7 -158.3H833.3C856.4 -158.3 875 -139.7 875 -116.7C875 -116.7 875 91.7 874.4 91.7zM303.9 529.4C311.8 537.2 322.2 541.6 333.3 541.6S354.9 537.3 362.8 529.4L458.3 433.9V675C458.3 698 477 716.7 500 716.7S541.7 698 541.7 675V433.9L637.2 529.4C653 545.1 680.3 545.1 696.1 529.4C712.4 513.2 712.4 486.8 696.2 470.6L500 275.4L303.9 470.5C287.6 486.7 287.6 513.2 303.9 529.4zM280 300H357.2L500.1 157.9L642.9 300H720.1L789.5 91.7H210.6L280 300zM791.7 -75H208.3V50H791.7V-75z" />
    <glyph glyph-name="download"
      unicode="&#xE065;"
      horiz-adv-x="1000" d=" M696.1 491.5C688.3 499.3 677.5 503.3 666.7 503.3S645.1 499.3 637.2 491.5L541.7 396V675C541.7 698 523 716.7 500 716.7S458.3 698 458.3 675V396L362.8 491.5C354.9 499.3 344.5 503.7 333.3 503.7S311.8 499.3 303.9 491.5C287.6 475.3 287.6 448.8 303.9 432.6L500 237.5L696.2 432.7C712.4 448.8 712.4 475.3 696.1 491.5zM874.5 133.3C874.5 137.7 874.3 142.1 872.8 146.5L789.5 396.5C783.8 413.5 768 425 750 425H740.9C737 417.2 732.1 409.7 725.6 403.1L663.8 341.7H720L789.5 133.3H210.6L280 341.7H336.2L274.4 403.1C267.9 409.7 263 417.2 259.1 425H250C232 425 216.2 413.5 210.5 396.5L127.2 146.5C125.7 142.1 125.5 137.7 125.5 133.3C125 133.3 125 -75 125 -75C125 -98 143.6 -116.7 166.7 -116.7H833.3C856.4 -116.7 875 -98 875 -75C875 -75 875 133.3 874.5 133.3z" />
    <glyph glyph-name="dropbox"
      unicode="&#xE066;"
      horiz-adv-x="1000" d=" M125 262.5L345.8 116.7L500 245.8L279.2 383.3zM345.8 650L125 504.2L279.2 383.3L500 520.8zM875 504.2L654.2 650L500 520.8L720.8 383.3zM500 245.8L654.2 116.7L875 262.5L720.8 383.3zM500 195.8L345.8 66.7L279.2 112.5V62.5L500 -70.8L720.8 62.5V112.5L654.2 66.7z" />
    <glyph glyph-name="edit"
      unicode="&#xE067;"
      horiz-adv-x="1000" d=" M898.4 578.4L778.4 698.4C766.2 710.6 750.2 716.7 734.2 716.7C718.2 716.7 702.2 710.6 690 698.4L541.7 550H166.7C143.7 550 125 531.4 125 508.3V-33.3C125 -56.4 143.7 -75 166.7 -75H708.3C731.3 -75 750 -56.4 750 -33.3V341.7L898.4 490C910.6 502.3 916.7 518.3 916.7 534.3S910.6 566.2 898.4 578.4zM479.2 188.7L388.7 279.2L650.9 541.4L741.4 450.9L479.2 188.7zM372.5 244.5L445.6 172.5L375 175L372.5 244.5zM666.7 8.3H208.3V466.7H458.3L325.8 334.2C313.6 322 305.9 300.3 299.6 280.5C293 259.6 291.7 236.5 291.7 219.2V91.7H419.2C436.5 91.7 465.4 95.8 484.7 103.8C504 111.7 522 118.2 534.2 130.4L666.7 258.3V8.3zM770.8 480.3L680.3 570.8L734.2 624.7L824.7 534.2L770.8 480.3z" />
    <glyph glyph-name="eject-outline"
      unicode="&#xE068;"
      horiz-adv-x="1000" d=" M666.7 443.7V508.3C666.7 554.4 629.3 591.7 583.3 591.7H166.7V175C166.7 129 204 91.7 250 91.7H294.4C331.6 -28.6 446.3 -116.7 578.1 -116.7C738.9 -116.7 872.4 9 872.4 169.8C872.4 301.5 786.2 409 666.7 443.7zM333.3 366.1V231C333.3 208 314.7 189.3 291.7 189.3S250 208 250 231V508.3H527.3C550.3 508.3 569 489.7 569 466.7S550.3 425 527.3 425H392.2L592.2 225C608.6 208.8 608.6 182.3 592.3 166.1C584.4 158.3 574 153.9 562.8 153.9C551.6 153.9 541.2 158.3 533.3 166L333.3 366.1zM583.3 -34.6C468.5 -34.6 375 59.5 375 174.4C375 203.8 374.8 231.5 383.8 256.8L503.9 136.7C520.1 120.4 541.4 112.3 562.8 112.3S605.4 120.4 621.7 136.7C654.3 169.2 654.3 222 621.7 254.6L514.7 361.5C536.3 371 559.1 378.1 583.3 378.1C698.2 378.1 791.7 287.2 791.7 172.4C791.7 57.5 698.2 -34.6 583.3 -34.6z" />
    <glyph glyph-name="eject"
      unicode="&#xE069;"
      horiz-adv-x="1000" d=" M541.7 70.8C438.3 70.8 354.2 155 354.2 258.3C354.2 281.4 335.5 300 312.5 300S270.8 281.4 270.8 258.3C270.8 109 392.3 -12.5 541.7 -12.5S812.5 109 812.5 258.3S691 529.2 541.7 529.2C518.6 529.2 500 510.5 500 487.5S518.6 445.8 541.7 445.8C645 445.8 729.2 361.7 729.2 258.3S645 70.8 541.7 70.8zM444 633.3C467 633.3 485.7 614.7 485.7 591.7S467 550 444 550H308.9L380 478.9L550.6 308.4C566.9 292.1 566.9 265.7 550.6 249.4C542.8 241.6 532.3 237.3 521.1 237.3S499.5 241.6 491.7 249.4L321.1 420L250 491.1V356C250 333 231.3 314.3 208.3 314.3S166.7 333 166.7 356V633.3H444" />
    <glyph glyph-name="equals-outline"
      unicode="&#xE06A;"
      horiz-adv-x="1000" d=" M750 300H250C181.1 300 125 356.1 125 425S181.1 550 250 550H750C818.9 550 875 493.9 875 425S818.9 300 750 300zM250 466.7C227 466.7 208.3 448 208.3 425S227 383.3 250 383.3H750C773 383.3 791.7 402 791.7 425S773 466.7 750 466.7H250zM750 8.3H250C181.1 8.3 125 64.4 125 133.3S181.1 258.3 250 258.3H750C818.9 258.3 875 202.3 875 133.3S818.9 8.3 750 8.3zM250 175C227 175 208.3 156.3 208.3 133.3S227 91.7 250 91.7H750C773 91.7 791.7 110.4 791.7 133.3S773 175 750 175H250z" />
    <glyph glyph-name="equals"
      unicode="&#xE06B;"
      horiz-adv-x="1000" d=" M750 508.3H250C204 508.3 166.7 471 166.7 425S204 341.7 250 341.7H750C796 341.7 833.3 379 833.3 425S796 508.3 750 508.3zM750 216.7H250C204 216.7 166.7 179.3 166.7 133.3S204 50 250 50H750C796 50 833.3 87.3 833.3 133.3S796 216.7 750 216.7z" />
    <glyph glyph-name="export-outline"
      unicode="&#xE06C;"
      horiz-adv-x="1000" d=" M946.3 391.8C944.6 393.5 777.3 562.5 697 647.9C679.5 665.2 655.4 675 631 675C581.7 675 541.7 637.7 541.7 591.7H208.3C185.3 591.7 166.7 573 166.7 550V-33.3C166.7 -56.3 185.3 -75 208.3 -75H791.7C814.7 -75 833.3 -56.3 833.3 -33.3V218.5C893.1 279.4 945.3 332.3 946.3 333.2C962.4 349.4 962.4 375.6 946.3 391.8zM636.6 135.8L631 133.3L625 135V300H583.3C509.5 298.6 444.3 271.7 385.2 218.4C403.2 310.7 451.9 425 583.3 425H625V589.9L631 591.7L637.4 589.6C697.2 526 806.2 415.1 858.1 362.5C847.5 351.8 677.2 178.3 636.6 135.8zM250 8.3V508.3H583.3V466.7C389.2 466.7 333.3 263.7 333.3 112.5V91.7C403.8 199.1 483.3 256.4 583.3 258.3V133.3C583.3 110.4 604.7 91.7 631 91.7C646.1 91.7 659.1 98.3 667.8 108C690.2 131.5 719.5 161.8 750.1 193.1V8.3H250z" />
    <glyph glyph-name="export"
      unicode="&#xE06D;"
      horiz-adv-x="1000" d=" M333.3 112.5V91.7C403.8 199.1 483.3 256.4 583.3 258.3V133.3C583.3 110.4 604.6 91.7 631 91.7C646.1 91.7 659.1 98.3 667.8 108C748.3 192.5 916.7 362.5 916.7 362.5S748.3 532.6 667.7 618.2C659 626.7 646.1 633.3 631 633.3C604.6 633.3 583.3 614.7 583.3 591.7V466.7C389.2 466.7 333.3 263.7 333.3 112.5zM208.3 -75H791.7C814.7 -75 833.3 -56.3 833.3 -33.3V218.6C805.7 190.4 776.5 160.5 750 133.3V8.3H250V508.3H541.7V591.7H208.3C185.3 591.7 166.7 573 166.7 550V-33.3C166.7 -56.3 185.3 -75 208.3 -75z" />
    <glyph glyph-name="eye-outline"
      unicode="&#xE06E;"
      horiz-adv-x="1000" d=" M500 425C550.5 425 599.2 410.2 637.4 383.2C691.6 344.8 738.6 294.7 769.3 258.3C738.6 222 691.6 171.8 637.3 133.5C599.2 106.5 550.5 91.7 500 91.7S400.8 106.5 362.5 133.5C308.3 171.8 261.3 222 230.7 258.3C261.3 294.7 308.3 344.8 362.5 383.1C400.8 410.2 449.5 425 500 425M500 508.3C429.5 508.3 364.9 486.8 314.5 451.2C205.3 374 125 258.3 125 258.3S205.3 142.6 314.5 65.5C364.9 29.8 429.5 8.3 500 8.3S635.1 29.8 685.5 65.5C794.6 142.6 875 258.3 875 258.3S794.6 374 685.5 451.2C635.1 486.8 570.5 508.3 500 508.3zM500 300C477 300 458.3 281.4 458.3 258.3C458.3 235.4 477 216.7 500 216.7C523 216.7 541.7 235.4 541.7 258.3C541.7 281.4 523 300 500 300zM500 133.3C431.1 133.3 375 189.4 375 258.3S431.1 383.3 500 383.3S625 327.3 625 258.3S568.9 133.3 500 133.3zM500 341.7C454 341.7 416.7 304.3 416.7 258.3S454 175 500 175S583.3 212.3 583.3 258.3S546 341.7 500 341.7z" />
    <glyph glyph-name="eye"
      unicode="&#xE06F;"
      horiz-adv-x="1000" d=" M909.2 282.1C905.8 287 823.3 404.8 709.5 485.2C650.5 527 576.1 550 500 550C424 550 349.5 527 290.4 485.2C176.6 404.8 94.3 287 90.8 282.1C80.9 267.8 80.9 248.8 90.8 234.5C94.3 229.6 176.6 111.9 290.4 31.4C349.5 -10.3 424 -33.3 500 -33.3C576.1 -33.3 650.5 -10.3 709.5 31.5C823.3 111.9 905.8 229.6 909.2 234.6C919.2 248.8 919.2 267.8 909.2 282.1zM500 112.5C419.4 112.5 354.2 177.9 354.2 258.3C354.2 338.9 419.4 404.2 500 404.2C580.4 404.2 645.8 338.9 645.8 258.3C645.8 177.9 580.4 112.5 500 112.5zM583.3 258.3C583.3 212.4 545.9 175 500 175C454 175 416.7 212.4 416.7 258.3C416.7 304.4 454 341.7 500 341.7C545.9 341.7 583.3 304.4 583.3 258.3z" />
    <glyph glyph-name="feather"
      unicode="&#xE070;"
      horiz-adv-x="1000" d=" M486.7 757.6L479.2 759L471.7 757.7C270.8 720.8 125 545.8 125 341.7C125 149.3 254.5 -17.1 437.5 -66.5V-116.7C437.5 -139.7 456.2 -158.3 479.2 -158.3S520.8 -139.7 520.8 -116.7V-66.5C703.8 -17.1 833.3 149.3 833.3 341.7C833.3 545.8 687.5 720.8 486.7 757.6zM520.8 20.8V508.3C520.8 531.4 502.2 550 479.2 550S437.5 531.4 437.5 508.3V20.8C305 66.4 212.5 189.8 208.7 332.6L339.5 201.9C343.5 197.9 348.8 195.8 354.2 195.8S364.8 197.9 368.9 201.9C377 210 377 223.3 368.9 231.4L211.9 388.4C217.4 428.6 230 466.6 248.4 501.3L339.4 410.3C343.5 406.2 348.8 404.2 354.2 404.2S364.8 406.2 368.9 410.3C377 418.4 377 431.6 368.9 439.7L270.9 537.8C319.3 606.1 392.5 656.3 479.2 674.2C565.8 656.3 639 606.1 687.5 537.8L589.4 439.7C581.3 431.6 581.3 418.4 589.4 410.3C593.5 406.2 598.8 404.2 604.2 404.2S614.8 406.2 618.9 410.3L709.9 501.3C728.4 466.6 740.9 428.6 746.5 388.4L589.4 231.4C581.3 223.3 581.3 210 589.4 201.9C593.5 197.8 598.8 195.8 604.2 195.8S614.8 197.9 618.9 201.9L749.6 332.6C745.8 189.8 653.3 66.4 520.8 20.8z" />
    <glyph glyph-name="film"
      unicode="&#xE071;"
      horiz-adv-x="1000" d=" M333.3 466.7V175H666.7V466.7H333.3zM625 216.7H375V425H625V216.7zM708.3 716.7H583.3V633.3H416.7V716.7H291.7C222.8 716.7 166.7 660.6 166.7 591.7V50C166.7 -18.9 222.8 -75 291.7 -75H416.7V8.3H583.3V-75H708.3C777.3 -75 833.3 -18.9 833.3 50V591.7C833.3 660.6 777.3 716.7 708.3 716.7zM750 550C727 550 708.3 531.4 708.3 508.3S727 466.7 750 466.7V425C727 425 708.3 406.4 708.3 383.3S727 341.7 750 341.7V300C727 300 708.3 281.4 708.3 258.3S727 216.7 750 216.7V175C727 175 708.3 156.4 708.3 133.3S727 91.7 750 91.7V50C750 27 731.3 8.3 708.3 8.3H666.7V91.7H333.3V8.3H291.7C268.7 8.3 250 27 250 50V91.7C273 91.7 291.7 110.3 291.7 133.3S273 175 250 175V216.7C273 216.7 291.7 235.3 291.7 258.3S273 300 250 300V341.7C273 341.7 291.7 360.3 291.7 383.3S273 425 250 425V466.7C273 466.7 291.7 485.3 291.7 508.3S273 550 250 550V591.7C250 614.6 268.7 633.3 291.7 633.3H333.3V550H666.7V633.3H708.3C731.3 633.3 750 614.6 750 591.7V550z" />
    <glyph glyph-name="filter"
      unicode="&#xE072;"
      horiz-adv-x="1000" d=" M791.7 550H208.3C162.5 550 150 525 183.3 491.7L358.3 316.7C391.7 283.3 416.7 220.8 416.7 175V-33.3L583.3 50V195.8C583.3 229.2 608.3 283.3 641.7 316.7L816.7 491.7C850 525 837.5 550 791.7 550z" />
    <glyph glyph-name="flag-outline"
      unicode="&#xE073;"
      horiz-adv-x="1000" d=" M766 620.1C750.4 626.5 732.5 623 720.5 611C667.9 558.4 582.2 558.4 529.5 611C444.2 696.2 305.7 696.2 220.5 611C212.7 603.3 208.3 592.6 208.3 581.6V39.9C208.3 16.9 227 -1.7 250 -1.7S291.7 16.9 291.7 39.9V229.6C344.6 271.2 421.7 267.6 470.5 218.8C555.7 133.7 694.3 133.7 779.5 218.8C787.3 226.6 791.7 237.2 791.7 248.3V581.6C791.7 598.5 781.5 613.6 766 620.1zM470.5 552.1C534.7 488 629.2 472.2 708.3 504.7V408.4C648.1 370.3 567.2 377.2 514.7 429.7C454.4 490 364.8 502.3 291.7 468.3V563C344.6 604.5 421.7 601 470.5 552.1zM529.5 277.8C486.9 320.3 430.9 341.6 375 341.6C346.6 341.6 318.3 336.1 291.7 325.2V421.5C351.9 459.6 432.8 452.7 485.3 400.2C523.8 361.7 574.4 342.5 625 342.5C653.6 342.5 681.9 349.3 708.3 361.6V266.9C655.3 225.4 578.3 229 529.5 277.8z" />
    <glyph glyph-name="flag"
      unicode="&#xE074;"
      horiz-adv-x="1000" d=" M766 620.1C750.4 626.5 732.5 623 720.5 611C667.9 558.4 582.2 558.4 529.5 611C444.2 696.2 305.7 696.2 220.5 611C212.7 603.3 208.3 592.6 208.3 581.6V39.9C208.3 16.9 227 -1.7 250 -1.7S291.7 16.9 291.7 39.9V229.6C344.6 271.2 421.7 267.6 470.5 218.8C555.7 133.7 694.3 133.7 779.5 218.8C787.3 226.6 791.7 237.2 791.7 248.3V581.6C791.7 598.5 781.5 613.6 766 620.1z" />
    <glyph glyph-name="flash-outline"
      unicode="&#xE075;"
      horiz-adv-x="1000" d=" M604.2 633.3H604.4M604.2 633.3L500 383.3L708.3 262.6L395.8 -33.3L500 216.7L291.7 337.5L604.2 633.3M604.2 716.7C580.8 716.2 561.3 707.5 546.7 693.7L234.3 398.1C215.3 380 205.8 354 208.9 327.8C211.9 301.8 227.1 278.6 249.8 265.4L394.9 181.2L318.8 -1.3C303.8 -37.6 316.1 -79.6 348.5 -102C362.8 -111.8 379.3 -116.7 395.8 -116.7C416.5 -116.7 437.2 -109 453.1 -93.9L765.6 202C784.7 220.1 794.1 246.1 791 272.3C788 298.4 772.8 321.5 750.1 334.7L605 418.7L679.5 597.6C684.7 608.5 687.5 620.6 687.5 633.3C687.5 679.3 650.5 716.5 604.2 716.7z" />
    <glyph glyph-name="flash"
      unicode="&#xE076;"
      horiz-adv-x="1000" d=" M729.2 298.6L552.5 401L641.6 614.8C644.4 620.4 645.9 626.7 645.9 633.3C645.9 656.3 627.4 675 604.4 675C594 674.8 585.3 671.5 578.5 666.1L575.5 663.6L263 367.8C253.5 358.7 248.8 345.7 250.3 332.7C251.8 319.6 259.4 308 270.7 301.4L447.5 198.9L357.4 -17.3C349.7 -35.5 356 -56.5 372.1 -67.7C379.3 -72.6 387.6 -75 395.8 -75C406.2 -75 416.5 -71.1 424.5 -63.6L737 232.3C746.5 241.4 751.2 254.4 749.7 267.4C748.2 280.5 740.6 292 729.2 298.6z" />
    <glyph glyph-name="flow-children"
      unicode="&#xE077;"
      horiz-adv-x="1000" d=" M708.3 133.3C654 133.3 608.2 98.5 591 50H458.3C389.4 50 333.3 106.1 333.3 175V301C368.2 274.6 411.3 258.3 458.3 258.3H591C608.2 209.9 654 175 708.3 175C777.4 175 833.3 231 833.3 300S777.4 425 708.3 425C654 425 608.2 390.1 591 341.7H458.3C389.4 341.7 333.3 397.8 333.3 466.7V474.3C381.8 491.5 416.7 537.3 416.7 591.7C416.7 660.7 360.7 716.7 291.7 716.7S166.7 660.7 166.7 591.7C166.7 537.3 201.5 491.5 250 474.3V175C250 60.1 343.5 -33.3 458.3 -33.3H591C608.2 -81.8 654 -116.7 708.3 -116.7C777.4 -116.7 833.3 -60.7 833.3 8.3S777.4 133.3 708.3 133.3zM708.3 341.7C731.3 341.7 750 323 750 300S731.3 258.3 708.3 258.3S666.7 277 666.7 300S685.3 341.7 708.3 341.7zM291.7 633.3C314.7 633.3 333.3 614.6 333.3 591.7S314.7 550 291.7 550S250 568.7 250 591.7S268.7 633.3 291.7 633.3zM708.3 -33.3C685.3 -33.3 666.7 -14.6 666.7 8.3S685.3 50 708.3 50S750 31.3 750 8.3S731.3 -33.3 708.3 -33.3z" />
    <glyph glyph-name="flow-merge"
      unicode="&#xE078;"
      horiz-adv-x="1000" d=" M750 125.7V202.8C750 283.2 684.6 348.6 604.2 348.6C569.7 348.6 541.7 376.7 541.7 411.1V474.3C590 491.6 625 537.4 625 591.7C625 660.6 568.9 716.7 500 716.7S375 660.6 375 591.7C375 537.4 410 491.6 458.3 474.4V411.1C458.3 376.7 430.3 348.6 395.8 348.6C315.4 348.6 250 283.2 250 202.8V125.7C201.6 108.4 166.7 62.6 166.7 8.3C166.7 -60.6 222.8 -116.7 291.7 -116.7S416.7 -60.6 416.7 8.3C416.7 62.6 381.7 108.4 333.3 125.7V202.8C333.3 237.2 361.4 265.3 395.8 265.3C436.6 265.3 473.5 282.2 500 309.4C526.5 282.2 563.4 265.3 604.2 265.3C638.6 265.3 666.7 237.2 666.7 202.8V125.7C618.3 108.4 583.3 62.6 583.3 8.3C583.3 -60.6 639.4 -116.7 708.3 -116.7S833.3 -60.6 833.3 8.3C833.3 62.6 798.4 108.4 750 125.7zM291.7 -33.3C268.7 -33.3 250 -14.6 250 8.3S268.7 50 291.7 50S333.3 31.3 333.3 8.3S314.7 -33.3 291.7 -33.3zM500 633.3C523 633.3 541.7 614.6 541.7 591.7S523 550 500 550S458.3 568.7 458.3 591.7S477 633.3 500 633.3zM708.3 -33.3C685.3 -33.3 666.7 -14.6 666.7 8.3S685.3 50 708.3 50S750 31.3 750 8.3S731.3 -33.3 708.3 -33.3z" />
    <glyph glyph-name="flow-parallel"
      unicode="&#xE079;"
      horiz-adv-x="1000" d=" M750 125.7V474.3C798.4 491.6 833.3 537.4 833.3 591.7C833.3 660.6 777.3 716.7 708.3 716.7S583.3 660.6 583.3 591.7C583.3 537.4 618.3 491.6 666.7 474.4V125.7C618.3 108.4 583.3 62.6 583.3 8.3C583.3 -60.6 639.4 -116.7 708.3 -116.7S833.3 -60.6 833.3 8.3C833.3 62.6 798.4 108.4 750 125.7zM708.3 633.3C731.3 633.3 750 614.6 750 591.7S731.3 550 708.3 550S666.7 568.7 666.7 591.7S685.3 633.3 708.3 633.3zM708.3 -33.3C685.3 -33.3 666.7 -14.6 666.7 8.3S685.3 50 708.3 50S750 31.3 750 8.3S731.3 -33.3 708.3 -33.3zM416.7 591.7C416.7 660.6 360.6 716.7 291.7 716.7S166.7 660.6 166.7 591.7C166.7 537.4 201.6 491.6 250 474.4V125.7C201.6 108.4 166.7 62.6 166.7 8.3C166.7 -60.6 222.8 -116.7 291.7 -116.7S416.7 -60.6 416.7 8.3C416.7 62.6 381.7 108.4 333.3 125.7V474.3C381.7 491.6 416.7 537.4 416.7 591.7zM291.7 633.3C314.7 633.3 333.3 614.6 333.3 591.7S314.7 550 291.7 550S250 568.7 250 591.7S268.7 633.3 291.7 633.3zM291.7 -33.3C268.7 -33.3 250 -14.6 250 8.3S268.7 50 291.7 50S333.3 31.3 333.3 8.3S314.7 -33.3 291.7 -33.3z" />
    <glyph glyph-name="flow-switch"
      unicode="&#xE07A;"
      horiz-adv-x="1000" d=" M333.3 125.7V154.2C333.3 189.5 354.7 220.6 387 239.5C359.2 251.2 333.7 267.3 311 286.6C273.4 252.7 250 205.8 250 154.2V125.7C201.6 108.4 166.7 62.6 166.7 8.3C166.7 -60.6 222.7 -116.7 291.7 -116.7S416.7 -60.6 416.7 8.3C416.7 62.6 381.7 108.4 333.3 125.7zM291.7 -33.3C268.7 -33.3 250 -14.6 250 8.3S268.7 50 291.7 50S333.3 31.3 333.3 8.3S314.7 -33.3 291.7 -33.3zM666.7 474.4V459.8C666.7 418.7 644.4 382.6 610.6 361.4C638.3 350 663.9 334.5 686.6 315.6C725.6 352.2 750 403.2 750 459.7V474.3C798.4 491.6 833.3 537.4 833.3 591.7C833.3 660.6 777.2 716.7 708.3 716.7S583.3 660.6 583.3 591.7C583.3 537.4 618.3 491.6 666.7 474.4zM708.3 633.3C731.3 633.3 750 614.6 750 591.7S731.3 550 708.3 550S666.7 568.7 666.7 591.7S685.3 633.3 708.3 633.3zM747.3 126.5C730.2 247.9 626 341.7 500 341.7C419.3 341.7 352 399.2 336.7 475.4C383.3 493.5 416.7 538.7 416.7 591.7C416.7 660.6 360.6 716.7 291.7 716.7S166.7 660.6 166.7 591.7C166.7 536.4 202.9 490 252.7 473.5C269.8 352.1 374 258.3 500 258.3C580.7 258.3 648 200.8 663.3 124.6C616.7 106.5 583.3 61.3 583.3 8.3C583.3 -60.6 639.4 -116.7 708.3 -116.7S833.3 -60.6 833.3 8.3C833.3 63.6 797.1 110 747.3 126.5zM291.7 633.3C314.7 633.3 333.3 614.6 333.3 591.7S314.7 550 291.7 550S250 568.7 250 591.7S268.7 633.3 291.7 633.3zM708.3 -33.3C685.3 -33.3 666.7 -14.6 666.7 8.3S685.3 50 708.3 50S750 31.3 750 8.3S731.3 -33.3 708.3 -33.3z" />
    <glyph glyph-name="folder-add"
      unicode="&#xE07B;"
      horiz-adv-x="1000" d=" M750 550H500C500 596 462.7 633.3 416.7 633.3H250C181.1 633.3 125 577.3 125 508.3V91.7C125 22.8 181.1 -33.3 250 -33.3H750C818.9 -33.3 875 22.8 875 91.7V425C875 493.9 818.9 550 750 550zM750 50H250C227 50 208.3 68.7 208.3 91.7V383.3H375C386.5 383.3 395.8 392.7 395.8 404.2S386.5 425 375 425H208.3V508.3C208.3 531.3 227 550 250 550H416.7C416.7 504 454 466.7 500 466.7H750C773 466.7 791.7 448 791.7 425H625C613.5 425 604.2 415.6 604.2 404.2S613.5 383.3 625 383.3H791.7V91.7C791.7 68.7 773 50 750 50zM625 300H541.7V383.3C541.7 406.4 523 425 500 425S458.3 406.4 458.3 383.3V300H375C352 300 333.3 281.4 333.3 258.3S352 216.7 375 216.7H458.3V133.3C458.3 110.3 477 91.7 500 91.7S541.7 110.3 541.7 133.3V216.7H625C648 216.7 666.7 235.3 666.7 258.3S648 300 625 300z" />
    <glyph glyph-name="folder-delete"
      unicode="&#xE07C;"
      horiz-adv-x="1000" d=" M750 550H500C500 596 462.7 633.3 416.7 633.3H250C181.1 633.3 125 577.3 125 508.3V91.7C125 22.8 181.1 -33.3 250 -33.3H750C818.9 -33.3 875 22.8 875 91.7V425C875 493.9 818.9 550 750 550zM250 550H416.7C416.7 504 454 466.7 500 466.7H750C773 466.7 791.7 448 791.7 425H208.3V508.3C208.3 531.3 227 550 250 550zM750 50H250C227 50 208.3 68.7 208.3 91.7V383.3H791.7V91.7C791.7 68.7 773 50 750 50zM625 216.7H375C352 216.7 333.3 235.3 333.3 258.3S352 300 375 300H625C648 300 666.7 281.4 666.7 258.3S648 216.7 625 216.7z" />
    <glyph glyph-name="folder-open"
      unicode="&#xE07D;"
      horiz-adv-x="1000" d=" M929.2 466.7H829.2C812.5 516.7 766.7 550 712.5 550H462.5C462.5 595.8 425 633.3 379.2 633.3H208.3C137.5 633.3 83.3 579.2 83.3 508.3V91.7C83.3 20.8 137.5 -33.3 208.3 -33.3H708.3C779.2 -33.3 850 20.8 866.7 91.7L958.3 425C962.5 450 950 466.7 929.2 466.7zM166.7 425V508.3C166.7 533.3 183.3 550 208.3 550H375C375 504.2 412.5 466.7 458.3 466.7H708.3C733.3 466.7 750 450 750 425H287.5C262.5 425 241.7 408.3 233.3 383.3L166.7 120.8V425zM787.5 112.5C779.2 79.2 741.7 50 708.3 50H208.3S191.7 58.3 200 83.3L279.2 375C279.2 379.2 287.5 383.3 291.7 383.3H862.5L787.5 112.5z" />
    <glyph glyph-name="folder"
      unicode="&#xE07E;"
      horiz-adv-x="1000" d=" M750 550H500C500 596 462.7 633.3 416.7 633.3H250C181.1 633.3 125 577.3 125 508.3V91.7C125 22.8 181.1 -33.3 250 -33.3H750C818.9 -33.3 875 22.8 875 91.7V425C875 493.9 818.9 550 750 550zM250 550H416.7C416.7 504 454 466.7 500 466.7H750C773 466.7 791.7 448 791.7 425H208.3V508.3C208.3 531.3 227 550 250 550zM750 50H250C227 50 208.3 68.7 208.3 91.7V383.3H791.7V91.7C791.7 68.7 773 50 750 50z" />
    <glyph glyph-name="gift"
      unicode="&#xE07F;"
      horiz-adv-x="1000" d=" M791.7 466.7H693.7C702.8 485.7 708.3 506.7 708.3 529.2C708.3 609.6 642.9 675 562.5 675C521.7 675 484.8 658 458.3 630.9C431.8 658 395 675 354.2 675C273.8 675 208.3 609.6 208.3 529.2C208.3 506.7 213.9 485.7 223 466.7H125C102 466.7 83.3 448 83.3 425V258.3C83.3 235.3 102 216.7 125 216.7V8.3C125 -60.6 181.1 -116.7 250 -116.7H666.7C735.6 -116.7 791.7 -60.6 791.7 8.3V216.7C814.7 216.7 833.3 235.3 833.3 258.3V425C833.3 448 814.7 466.7 791.7 466.7zM750 300H541.7V383.3H750V300zM416.7 508.3H500V466.7H416.7V508.3zM500 383.3V300H416.7V383.3H500zM562.5 591.7C597 591.7 625 563.6 625 529.2S597 466.7 562.5 466.7C555.1 466.7 548.2 468.3 541.7 470.7V508.3C541.7 530 524.8 547.4 503.6 549.3C512 573.8 535.1 591.7 562.5 591.7zM291.7 529.2C291.7 563.6 319.7 591.7 354.2 591.7C381.5 591.7 404.6 573.8 413 549.3C391.8 547.4 375 530 375 508.3V470.7C368.5 468.3 361.5 466.7 354.2 466.7C319.7 466.7 291.7 494.7 291.7 529.2zM375 383.3V300H166.7V383.3H375zM250 -33.3C227 -33.3 208.3 -14.6 208.3 8.3V258.3H375V-33.3H250zM416.7 -33.3V258.3H500V-33.3H416.7zM666.7 -33.3H541.7V258.3H708.3V8.3C708.3 -14.6 689.6 -33.3 666.7 -33.3z" />
    </font>
</defs>
</svg>
