<svg xmlns="http://www.w3.org/2000/svg" viewBox="0 0 512 512" class="ionicon"><path d="M103.48 224a71.64 71.64 0 0 0 44.76-15.66l41.5 16.89 6.82-12.63a39 39 0 0 1 4.32-6.37l14.22-14.42-41.17-24.94A72 72 0 1 0 103.48 224m0-112a40 40 0 1 1-40 40 40 40 0 0 1 40-40"/><path d="m480 169-5.52-12.58c-4.48-10.42-14.74-16-32.78-17.85-10.12-1-26.95-1.24-49.69 3.81-20 4.45-122.14 28.2-164.95 58.62-20.25 14.39-24.06 33.67-27.06 49.16-2.78 14.14-5 25.31-18 35-15 11.14-27.27 16.38-33.58 18.6a71.74 71.74 0 1 0 24.79 38Zm-224.52 87a16 16 0 1 1 16-16 16 16 0 0 1-16 16m-152 144a40 40 0 1 1 40-40 40 40 0 0 1-40 40"/><path d="m343.79 259.87-83.74 48.18 27.63 13.08 3.62 1.74C310 331.92 359.74 356 410.53 359c3.89.23 7.47.34 10.78.34C442 359.31 453 354 459.75 350L480 336Z"/></svg>