<svg xmlns="http://www.w3.org/2000/svg" height="52" width="52" viewBox="0 0 520 520" fill="#fff"><path d="M464 207 425 87c-7-22-29-37-53-37H148c-24 0-46 15-54 37L56 207c-21 6-36 23-36 45v93c0 20 14 37 32 44v65c0 9 7 16 16 16h64c9 0 16-7 16-16v-62h224v62c0 9 7 16 16 16h64c9 0 16-7 16-16v-64c18-6 32-23 32-44v-93c0-23-15-40-36-46zM100 338c-22 0-40-17-40-39s18-39 40-39 40 17 40 39-18 39-40 39zm176-132H118c-6 0-10-5-8-10l30-93c1-3 4-5 7-5h224c3 0 6 2 7 5l30 94c2 5-2 10-8 10H276zm136 132c-22 0-40-17-40-39s18-39 40-39 40 17 40 39-18 39-40 39z"/></svg>