<svg xmlns="http://www.w3.org/2000/svg" height="100" width="100" viewBox="0 0 1000 1000" fill="#fff"><path d="M364 200a21 21 0 0 1 21 20v15a21 21 0 0 1-20 22h-65a43 43 0 0 0-43 40v403a43 43 0 0 0 41 43h402a43 43 0 0 0 43-41v-66a21 21 0 0 1 20-21h15a21 21 0 0 1 21 20v79a85 85 0 0 1-84 86H285a85 85 0 0 1-85-85V285a85 85 0 0 1 85-85zm287 238a28 28 0 1 0 1 0zM519 334a28 28 0 1 0 28 28 28 28 0 0 0-28-28zm270 52-24-28a50 50 0 0 1-11-29l-3-36a46 46 0 0 0-42-42l-31-3a65 65 0 0 1-37-16l-24-21a46 46 0 0 0-60 0l-26 22a59 59 0 0 1-34 13l-33 3a46 46 0 0 0-43 42l-2 30a66 66 0 0 1-16 38l-20 23a46 46 0 0 0 0 60l22 27a56 56 0 0 1 13 32l2 34a46 46 0 0 0 42 43l31 3a64 64 0 0 1 37 15l24 20a46 46 0 0 0 60 1l27-23a52 52 0 0 1 30-12l36-2a46 46 0 0 0 42-42l3-29a73 73 0 0 1 18-41l19-22a46 46 0 0 0 0-60zm-322-24a52 52 0 1 1 0 1zm75 153a4 4 0 0 1-3 2h-15a4 4 0 0 1-4-6l109-198a5 5 0 0 1 3-2h16a4 4 0 0 1 2 5zm162-49a52 52 0 1 1-52-52 52 52 0 0 1 51 52z"/></svg>