<svg xmlns="http://www.w3.org/2000/svg" height="100" width="100" viewBox="0 0 1000 1000" fill="#fff"><path d="M515.7 377h31.4c9 0 15.7 6 15.7 13.7v120c0 3.4-2 7-4 10L470.5 598a17 17 0 0 1-21.6 0l-21.6-19a12 12 0 0 1 0-19l73.7-65V391.4c-1-7 5-13.7 14-14.6h1zM699 491.6l-46.4-1a4 4 0 0 0-3 7l70 84c1.6 2 4.6 2 6.4 0l73-81.5c2.4-2.7.5-7-3-7l-41-.7v-2a256.7 256.7 0 0 0-270-240.6 256 256 0 0 0-176 85.4c-7 8-6 11 9 27l3.6 4c12 13 17 18 26 7.4a200 200 0 0 1 133.6-67 202 202 0 0 1 218 184v1.4zM301 509l46.4.7c3.6 0 5.6-4 3-7l-70.4-84c-1.6-2-4.6-2-6.4 0l-73 81.7a4 4 0 0 0 3 7l41 .6v2c9 140.7 130 248 270.6 240a256 256 0 0 0 175.7-86c7-8 6-11-9-27l-3.6-4c-12-13-17-17.7-26-7a200 200 0 0 1-133.5 67.4A202 202 0 0 1 301 510.6v-1.4z"/></svg>