<?xml version="1.0" encoding="UTF-8"?><svg xmlns="http://www.w3.org/2000/svg" width="20" height="20" viewBox="0 0 20 20"><title>bold</title><path d="M9.5 2a11.19 11.19 0 0 1 2.82.31 5.38 5.38 0 0 1 1.9.87 3.29 3.29 0 0 1 1.07 1.36 4.6 4.6 0 0 1 .34 1.79 3.52 3.52 0 0 1-.15 1 3 3 0 0 1-.48.97 3.76 3.76 0 0 1-.85.8 5.3 5.3 0 0 1-1.24.63A4.43 4.43 0 0 1 15.24 11a3.22 3.22 0 0 1 .76 2.18 4.58 4.58 0 0 1-.4 1.9 4.36 4.36 0 0 1-1.16 1.53 5.49 5.49 0 0 1-1.88 1A8.19 8.19 0 0 1 10 18H4V2zM7.71 4.78v4h1.55a6.35 6.35 0 0 0 1.11-.09 2.3 2.3 0 0 0 .84-.31 1.41 1.41 0 0 0 .53-.6 2.27 2.27 0 0 0 .18-1 2.72 2.72 0 0 0-.14-.95 1.36 1.36 0 0 0-.44-.61 1.85 1.85 0 0 0-.75-.33 5.16 5.16 0 0 0-1.08-.1zM9.94 15.2a3.28 3.28 0 0 0 1.2-.19 1.9 1.9 0 0 0 .73-.48 1.62 1.62 0 0 0 .36-.67 3 3 0 0 0 .1-.76 2.53 2.53 0 0 0-.12-.79 1.31 1.31 0 0 0-.4-.59 1.94 1.94 0 0 0-.74-.37 4.34 4.34 0 0 0-1.16-.13h-2.2v4z"/></svg>