<?xml version="1.0" encoding="UTF-8"?>
<svg height="100%" width="100%" xmlns="http://www.w3.org/2000/svg">
	<defs>
		<font horiz-adv-x="610" id="web">
			<font-face alphabetic="0" ascent="992" descent="-290" font-family="" panose-1="2 11 5 5 2 2 2 2 2 3"/>
			<missing-glyph d="M49 718H561V0H49ZM99 667V50H511V667ZM308 609Q363 609 397 573T432 478Q432 444 419 418T369 358Q344 335 334 321T322 290T320 234H274L272 251Q272 300 283 327T331 391Q358 417 369 434T381 474Q381 515 359 537T305 559Q272 559 250 536T223 464L173 472Q179 541 215 575T308 609ZM271 184H327V117H271Z"/>
			<glyph d="" horiz-adv-x="258" unicode=" "/>
			<glyph d="M119 708H205V396L197 218H127L119 396ZM162 103Q217 103 217 47Q217 22 204 7T162 -8Q132 -8 119 7T106 47Q106 103 162 103Z" horiz-adv-x="323" unicode="!"/>
			<glyph d="M83 708H153L146 461H83ZM250 708H320L313 461H250Z" horiz-adv-x="403" unicode="&quot;"/>
			<glyph d="M295 648H364L320 479H509L553 648H622L578 479H692V422H563L511 226H630V169H496L452 0H383L427 169H238L194 0H125L169 169H56V226H184L236 422H118V479H251ZM305 422L253 226H442L494 422Z" horiz-adv-x="748" unicode="#"/>
			<glyph d="M278 752H347V681Q451 675 532 618L494 565Q452 590 411 602T318 615Q253 615 216 590T180 516Q180 484 195 464T241 432T327 406Q432 382 484 338T537 213Q537 135 484 88T347 32V-44H278V31Q211 34 161 52T73 102L117 156Q158 126 199 112T294 99Q366 99 407 127T449 212Q449 250 432 272T382 308T288 337Q188 362 141 401T95 513Q95 584 145 628T278 680Z" unicode="$"/>
			<glyph d="M302 721Q366 721 414 692T488 616T514 510Q514 451 488 402T415 326T302 298Q236 298 187 326T113 402T88 510Q88 568 113 616T187 692T302 721ZM777 709H856L438 0H359ZM303 651Q239 651 205 610T172 510Q172 449 205 408T303 368Q366 368 398 408T431 510Q431 569 398 610T303 651ZM920 412Q984 412 1032 383T1106 307T1132 201Q1132 142 1106 93T1033 17T920 -11Q854 -11 805 17T731 93T706 201Q706 259 731 307T805 383T920 412ZM921 342Q857 342 823 301T790 201Q790 140 823 99T921 59Q984 59 1016 99T1049 201Q1049 260 1016 301T921 342Z" horiz-adv-x="1220" unicode="%"/>
			<glyph d="M289 725Q347 725 389 704T454 648T476 568Q476 502 435 457T311 374L503 189Q540 260 555 343L626 330Q613 228 558 136L656 42L604 -14L512 75Q469 31 415 8T287 -14Q216 -14 162 11T78 82T49 186Q49 252 82 300T190 386Q143 433 122 470T101 562Q101 635 154 680T289 725ZM290 658Q243 658 216 632T189 563Q189 522 204 492T261 422Q333 457 361 487T390 565Q390 606 363 632T290 658ZM241 336Q184 303 162 271T140 188Q140 130 179 96T287 62Q397 62 459 126Z" horiz-adv-x="669" unicode="&amp;"/>
			<glyph d="M83 708H153L146 461H83Z" horiz-adv-x="236" unicode="'"/>
			<glyph d="M248 831L303 796Q233 690 194 585T155 354Q155 227 194 122T303 -88L248 -123Q162 -9 113 103T64 354Q64 492 113 605T248 831Z" horiz-adv-x="368" unicode="("/>
			<glyph d="M120 831Q205 719 254 605T304 354Q304 216 255 103T120 -123L65 -88Q135 18 174 122T213 354Q213 481 174 585T65 796Z" horiz-adv-x="368" unicode=")"/>
			<glyph d="M172 708H241L233 594L340 637L361 572L251 544L325 456L269 414L207 511L145 414L89 456L163 544L53 572L74 637L181 594Z" horiz-adv-x="414" unicode="*"/>
			<glyph d="M268 487H342V322H505V253H342V87H268V253H105V322H268Z" unicode="+"/>
			<glyph d="M135 103Q164 103 179 85T194 33Q194 -22 171 -70T87 -177L54 -147Q94 -104 110 -70T129 0Q103 4 91 16T80 51Q80 73 94 88T135 103Z" horiz-adv-x="273" unicode=","/>
			<glyph d="M44 325H269V256H44Z" horiz-adv-x="313" unicode="-"/>
			<glyph d="M134 103Q189 103 189 47Q189 22 176 7T134 -8Q104 -8 91 7T78 47Q78 103 134 103Z" horiz-adv-x="267" unicode="."/>
			<glyph d="M342 786H415L192 -82H118Z" horiz-adv-x="534" unicode="/"/>
			<glyph d="M304 725Q435 725 501 628T567 354Q567 177 501 80T304 -17Q174 -17 108 80T43 354Q43 531 108 628T304 725ZM305 650Q212 650 171 575T131 354Q131 209 171 133T305 58Q397 58 437 133T478 354Q478 499 437 574T305 650Z" unicode="0"/>
			<glyph d="M307 708H385V74H539V0H105V73H297V617L106 518L71 582Z" unicode="1"/>
			<glyph d="M292 724Q367 724 421 696T504 623T532 522Q532 451 502 394T401 270T178 74H555V0H61V69Q234 218 307 287T411 407T442 514Q442 575 400 613T285 651Q229 651 186 630T101 567L48 613Q101 669 157 696T292 724Z" unicode="2"/>
			<glyph d="M289 725Q361 725 412 701T491 634T518 538Q518 463 480 424T387 373V371Q451 364 495 322T540 200Q540 136 509 87T419 10T277 -17Q195 -17 137 7T29 81L76 133Q122 92 167 74T277 57Q357 57 403 95T450 203Q450 270 410 301T301 333H191V405H285Q351 405 391 435T431 528Q431 587 392 619T281 652Q227 652 183 636T96 586L50 636Q103 682 160 703T289 725Z" unicode="3"/>
			<glyph d="M269 708H362L124 246H388V445H474V246H577V172H474V0H389V172H25V239Z" unicode="4"/>
			<glyph d="M98 708H517V634H182V412Q253 442 332 442Q433 442 494 383T555 225Q555 153 523 98T430 13T287 -17Q206 -17 148 7T40 81L90 133Q137 92 181 75T286 58Q370 58 417 102T465 223Q465 294 423 332T309 371Q264 371 228 362T158 336H98Z" unicode="5"/>
			<glyph d="M350 725Q400 725 438 713T514 678L482 617Q452 635 421 644T351 654Q254 654 199 581T136 379Q220 463 341 463Q407 463 458 436T539 358T568 241Q568 166 537 107T449 16T310 -17Q177 -17 111 72T46 313Q46 438 81 531T185 674T350 725ZM324 395Q212 395 135 298Q137 180 178 118T311 56Q392 56 435 104T479 238Q479 313 437 354T324 395Z" unicode="6"/>
			<glyph d="M36 708H578V638Q441 494 366 335T276 0H174Q201 181 273 337T471 633H36Z" unicode="7"/>
			<glyph d="M306 725Q369 725 421 704T505 642T536 547Q536 491 505 449T410 371Q497 339 533 297T569 182Q569 124 537 79T445 8T303 -17Q221 -17 162 8T72 79T41 181Q41 253 79 299T198 379Q132 408 103 445T75 544Q75 597 106 638T190 702T306 725ZM306 659Q245 659 203 627T162 541Q162 496 190 467T287 413L339 395Q397 428 422 461T448 541Q448 595 408 627T306 659ZM269 353Q196 327 164 287T132 189Q132 124 177 88T305 53Q387 53 433 89T479 187Q479 226 464 251T416 294T323 334Z" unicode="8"/>
			<glyph d="M304 725Q435 725 499 640T564 398Q564 269 514 176T366 35T129 -14V59Q285 59 374 131T474 332Q390 248 271 248Q206 248 154 275T72 353T42 475Q42 547 73 603T163 692T304 725ZM303 653Q220 653 175 605T131 478Q131 400 174 358T291 316Q348 316 394 341T475 410Q474 534 434 593T303 653Z" unicode="9"/>
			<glyph d="M134 103Q189 103 189 47Q189 22 176 7T134 -8Q104 -8 91 7T78 47Q78 103 134 103ZM135 469Q190 469 190 413Q190 388 177 373T135 358Q105 358 92 373T79 413Q79 469 135 469Z" horiz-adv-x="267" unicode=":"/>
			<glyph d="M141 469Q196 469 196 413Q196 388 183 373T141 358Q111 358 98 373T85 413Q85 469 141 469ZM135 103Q164 103 179 85T194 33Q194 -22 171 -70T87 -177L54 -147Q94 -104 110 -70T129 0Q103 4 91 16T80 51Q80 73 94 88T135 103Z" horiz-adv-x="276" unicode=";"/>
			<glyph d="M464 527L499 473L191 284L498 95L463 41L111 251V315Z" unicode="&lt;"/>
			<glyph d="M105 225H505V156H105ZM105 425H505V356H105Z" unicode="="/>
			<glyph d="M146 527L499 315V251L147 41L112 95L419 284L111 473Z" unicode="&gt;"/>
			<glyph d="M246 724Q310 724 358 699T433 632T460 537Q460 493 443 459T402 402T339 348Q296 315 276 292T256 240V218H175V252Q175 282 188 306T219 347T271 390Q319 427 344 457T369 533Q369 587 334 619T240 651Q183 651 143 629T67 567L13 613Q59 667 114 695T246 724ZM216 103Q271 103 271 47Q271 22 258 7T216 -8Q186 -8 173 7T160 47Q160 103 216 103Z" horiz-adv-x="503" unicode="?"/>
			<glyph d="M491 680Q615 680 701 637T830 520T873 349Q873 224 828 156T710 89Q656 89 625 118T588 190Q565 145 524 117T425 90Q356 90 316 135T276 256Q276 325 302 381T381 471T510 505Q557 505 599 491T672 456L641 251Q639 231 639 224Q639 185 658 165T708 145Q750 145 774 193T799 348Q799 471 724 544T490 617Q383 617 309 573T198 454T162 288Q162 135 247 50T490 -34Q547 -34 597 -25T683 -2L703 -59Q603 -97 487 -97Q365 -97 275 -50T136 82T88 287Q88 394 137 484T278 627T491 680ZM505 448Q428 448 389 392T351 255Q351 203 374 176T441 149Q494 149 529 191T574 294L595 426Q551 448 505 448Z" horiz-adv-x="960" unicode="@"/>
			<glyph d="M284 708H377L655 0H559L495 172H163L97 0H4ZM329 624L188 241H470Z" horiz-adv-x="660" unicode="A"/>
			<glyph d="M90 708H339Q435 708 493 667T552 535Q552 472 516 430T424 375V373Q497 364 540 318T583 196Q583 95 516 47T344 0H90ZM176 640V401H318Q384 401 423 432T463 525Q463 640 319 640ZM176 337V69H326Q401 69 446 101T492 205Q492 270 450 303T331 337Z" horiz-adv-x="627" unicode="B"/>
			<glyph d="M400 726Q471 726 533 703T640 639L588 582Q551 615 503 632T403 650Q273 650 207 569T141 355Q141 223 207 142T401 61Q458 61 509 82T598 141L652 82Q606 36 540 9T398 -17Q287 -17 208 30T89 161T49 355Q49 465 89 549T209 679T400 726Z" horiz-adv-x="674" unicode="C"/>
			<glyph d="M90 708H316Q492 708 587 620T683 355Q683 182 586 91T318 0H90ZM178 635V74H309Q447 74 519 143T592 355Q592 635 310 635Z" horiz-adv-x="732" unicode="D"/>
			<glyph d="M90 708H519V637H178V399H475V331H178V73H536V0H90Z" horiz-adv-x="563" unicode="E"/>
			<glyph d="M90 708H520V635H179V393H481V321H179V0H90Z" horiz-adv-x="538" unicode="F"/>
			<glyph d="M405 725Q475 725 537 702T644 638L594 581Q556 613 508 631T408 649Q277 649 208 568T140 355Q140 217 205 137T404 57Q456 57 497 67T582 97V290H418V359H664V49Q606 18 543 0T403 -17Q289 -17 209 29T89 160T49 355Q49 465 91 548T213 678T405 725Z" horiz-adv-x="745" unicode="G"/>
			<glyph d="M90 708H179V401H561V708H650V0H561V329H179V0H90Z" horiz-adv-x="739" unicode="H"/>
			<glyph d="M54 708H310V642H226V68H310V0H54V68H138V642H54Z" horiz-adv-x="364" unicode="I"/>
			<glyph d="M248 708H337V202Q337 106 286 44T133 -17Q62 -17 6 17L39 82Q57 72 80 66T128 60Q191 60 219 98T248 201Z" horiz-adv-x="418" unicode="J"/>
			<glyph d="M90 708H179V384L489 708H593L282 384L618 0H510L226 325L179 276V0H90Z" horiz-adv-x="619" unicode="K"/>
			<glyph d="M90 708H179V75H503V0H90Z" horiz-adv-x="506" unicode="L"/>
			<glyph d="M90 708H221L460 119H462L702 708H834V0H747L749 605H747L493 0H426L173 605H171L173 0H90Z" horiz-adv-x="923" unicode="M"/>
			<glyph d="M90 708H192L604 120H606L604 708H687V0H585L173 588H171L173 0H90Z" horiz-adv-x="776" unicode="N"/>
			<glyph d="M404 725Q515 725 595 678T717 548T759 354Q759 244 717 160T595 29T404 -17Q293 -17 213 29T91 160T49 354Q49 464 91 548T213 678T404 725ZM405 648Q276 648 208 568T140 354Q140 220 208 140T405 60Q533 60 601 140T669 354Q669 488 601 568T405 648Z" horiz-adv-x="809" unicode="O"/>
			<glyph d="M90 708H329Q440 708 511 652T582 478Q582 402 547 349T454 271T331 245H179V0H90ZM178 637V317H323Q394 317 442 358T491 477Q491 561 442 599T321 637Z" horiz-adv-x="611" unicode="P"/>
			<glyph d="M405 725Q516 725 596 678T718 548T760 354Q760 253 724 174T621 46T458 -14Q478 -50 505 -70T580 -101T707 -112V-185Q602 -185 536 -166T431 -111T366 -15Q267 -7 195 41T87 170T50 354Q50 464 92 548T214 678T405 725ZM405 648Q276 648 208 568T140 354Q140 220 208 140T405 60Q534 60 601 140T669 354Q669 488 601 568T405 648Z" horiz-adv-x="809" unicode="Q"/>
			<glyph d="M90 708H323Q392 708 448 682T538 605T571 480Q571 396 527 345T412 273L590 0H488L327 259H179V0H90ZM178 637V327H320Q389 327 434 366T480 480Q480 558 433 597T317 637Z" horiz-adv-x="629" unicode="R"/>
			<glyph d="M291 724Q356 724 408 707T506 657L466 599Q424 626 382 639T291 652Q224 652 183 623T142 541Q142 487 179 459T302 410Q409 382 464 334T519 192Q519 124 485 77T395 6T267 -17Q129 -17 30 66L75 122Q118 88 164 73T268 58Q340 58 384 91T429 189Q429 234 408 262T350 307T252 340Q153 366 104 410T55 535Q55 624 121 674T291 724Z" horiz-adv-x="559" unicode="S"/>
			<glyph d="M4 708H540V633H317V0H228V633H4Z" horiz-adv-x="545" unicode="T"/>
			<glyph d="M81 708H169V261Q169 162 216 111T367 60Q471 60 518 111T565 261V708H654V254Q654 124 580 53T367 -17Q227 -17 154 53T81 254Z" horiz-adv-x="735" unicode="U"/>
			<glyph d="M2 708H97L317 99H320L537 708H631L362 0H270Z" horiz-adv-x="634" unicode="V"/>
			<glyph d="M14 708H106L270 115H272L442 708H537L709 115H711L878 708H965L758 0H665L489 596H486L313 0H220Z" horiz-adv-x="980" unicode="W"/>
			<glyph d="M34 708H136L310 431L483 708H583L361 373L362 372L610 0H507L308 310V311L307 310L111 0H7L255 373L256 374Z" horiz-adv-x="617" unicode="X"/>
			<glyph d="M-11 708H90L283 377H285L476 708H573L324 304V0H236V306Z" horiz-adv-x="563" unicode="Y"/>
			<glyph d="M48 708H534V635L140 74H544V0H36V77L429 637H48Z" horiz-adv-x="589" unicode="Z"/>
			<glyph d="M78 811H288V744H159V-48H288V-114H78Z" horiz-adv-x="368" unicode="["/>
			<glyph d="M118 786H191L415 -82H341Z" horiz-adv-x="534" unicode="\"/>
			<glyph d="M80 811H290V-114H80V-48H209V744H80Z" horiz-adv-x="368" unicode="]"/>
			<glyph d="M271 708H339L496 513L454 480L305 652L155 480L114 513Z" unicode="^"/>
			<glyph d="M53 -105H557V-174H53Z" unicode="_"/>
			<glyph d="M72 753L233 622L199 576L30 691Z" horiz-adv-x="263" unicode="`"/>
			<glyph d="M261 523Q368 523 417 473T467 321V113Q467 58 474 0H396Q389 44 389 69H386Q358 28 315 7T206 -14Q132 -14 87 25T42 139Q42 238 113 276T329 315Q364 315 382 314V343Q382 400 351 428T256 456Q175 456 103 413L73 470Q159 523 261 523ZM337 255Q262 255 217 245T151 211T130 144Q130 100 156 76T228 53Q276 53 311 73T364 125T382 188V254Z" horiz-adv-x="546" unicode="a"/>
			<glyph d="M87 708H172V436H175Q200 477 244 500T348 523Q421 523 472 487T548 391T573 255Q573 179 545 118T462 21T331 -14Q235 -14 165 53L157 0H87ZM333 455Q286 455 249 433T192 373T172 290V121Q206 87 241 70T321 54Q400 54 443 109T486 255Q486 347 445 401T333 455Z" horiz-adv-x="622" unicode="b"/>
			<glyph d="M302 523Q350 523 393 508T471 468L437 409Q379 452 302 452Q220 452 178 398T136 255Q136 167 178 112T301 58Q370 58 438 101L469 41Q393 -14 295 -14Q209 -14 154 24T74 124T50 255Q50 377 117 450T302 523Z" horiz-adv-x="503" unicode="c"/>
			<glyph d="M451 708H536V113Q536 58 543 0H464Q457 44 457 76H455Q398 -14 273 -14Q165 -14 107 60T50 253Q50 329 78 390T160 487T285 523Q387 523 451 457ZM297 454Q223 454 180 398T138 253Q138 161 179 107T292 54Q364 54 407 100T451 219V379Q421 417 383 435T297 454Z" horiz-adv-x="621" unicode="d"/>
			<glyph d="M288 523Q399 523 457 451T516 260Q516 236 514 224H136Q141 146 183 100T303 54Q349 54 385 66T459 104L497 49Q454 18 405 2T298 -14Q181 -14 115 60T50 257Q50 336 78 396T159 489T288 523ZM287 458Q216 458 177 410T135 290H433Q431 366 394 412T287 458Z" horiz-adv-x="565" unicode="e"/>
			<glyph d="M275 722Q324 722 364 709L345 648Q313 655 283 654Q189 653 189 551V509H317V444H189V0H104V444H15V498L104 509V553Q104 634 147 677T275 722Z" horiz-adv-x="330" unicode="f"/>
			<glyph d="M262 522Q289 522 307 519T352 509H529V441L416 453Q440 436 455 405T470 331Q470 250 415 204T261 159Q211 159 182 146T154 110Q154 69 251 68Q392 66 455 30T519 -77Q519 -163 447 -210T247 -257Q135 -257 77 -217T20 -104Q20 -61 44 -26T125 36Q76 58 76 103Q76 130 95 151T150 182Q103 201 76 240T50 339Q50 424 106 473T262 522ZM260 459Q200 459 164 427T129 341Q129 284 161 252T260 220Q391 220 391 338Q391 393 358 426T260 459ZM188 4Q143 -16 123 -41T103 -100Q103 -193 250 -193Q341 -193 388 -165T435 -84Q435 -54 412 -35T336 -6T188 4Z" horiz-adv-x="552" unicode="g"/>
			<glyph d="M87 708H172V438H174Q199 476 242 499T348 523Q444 523 490 467T536 329V0H451V312Q451 373 421 412T324 452Q255 452 213 406T172 292V0H87Z" horiz-adv-x="615" unicode="h"/>
			<glyph d="M87 509H172V0H87ZM130 737Q185 737 185 683Q185 660 172 645T130 631Q100 631 87 645T74 683Q74 737 130 737Z" horiz-adv-x="258" unicode="i"/>
			<glyph d="M86 509H171V-89Q171 -258 21 -258Q-8 -258 -35 -250L-20 -187Q-7 -190 10 -190Q52 -190 69 -165T86 -90ZM130 737Q185 737 185 683Q185 660 172 645T130 631Q100 631 87 645T74 683Q74 737 130 737Z" horiz-adv-x="258" unicode="j"/>
			<glyph d="M87 708H172V294L403 509H505L280 299L527 0H421L221 244L172 198V0H87Z" horiz-adv-x="529" unicode="k"/>
			<glyph d="M87 708H172V0H87Z" horiz-adv-x="258" unicode="l"/>
			<glyph d="M337 523Q402 523 443 495T503 420H505Q531 468 576 495T684 523Q747 523 789 495T851 423T871 326V0H786V314Q786 373 757 413T666 453Q620 453 587 429T537 365T520 279V0H435V316Q435 374 406 413T315 453Q249 453 210 406T171 292V0H86V395Q86 451 79 509H160Q165 482 167 437H169Q193 475 236 499T337 523Z" horiz-adv-x="950" unicode="m"/>
			<glyph d="M346 523Q442 523 488 467T535 329V0H450V312Q450 373 420 412T323 452Q254 452 212 406T171 292V0H86V395Q86 451 79 509H160Q165 482 167 437H169Q194 476 239 499T346 523Z" horiz-adv-x="614" unicode="n"/>
			<glyph d="M305 523Q386 523 443 489T531 396T561 256Q561 177 530 115T442 20T305 -14Q226 -14 168 20T80 116T50 256Q50 378 117 450T305 523ZM305 455Q220 455 179 401T138 256Q138 165 179 109T305 54Q390 54 432 109T474 256Q474 347 432 401T305 455Z" horiz-adv-x="611" unicode="o"/>
			<glyph d="M349 523Q422 523 472 487T547 391T573 255Q573 179 545 118T463 21T338 -14Q241 -14 171 49V-244H86V395Q86 451 79 509H160Q165 476 167 431H169Q194 473 239 498T349 523ZM332 455Q285 455 248 433T191 373T171 290V121Q206 86 240 70T320 54Q400 54 442 109T485 255Q485 347 444 401T332 455Z" horiz-adv-x="622" unicode="p"/>
			<glyph d="M284 523Q388 523 457 452L467 509H536V-244H451V69H449Q422 30 378 8T278 -14Q166 -14 108 60T50 254Q50 329 79 390T161 487T284 523ZM297 454Q223 454 180 398T138 254Q138 161 179 107T292 54Q363 54 407 100T451 219V379Q421 416 383 435T297 454Z" horiz-adv-x="622" unicode="q"/>
			<glyph d="M329 523Q337 523 358 520L353 447Q343 449 322 449Q249 449 210 400T171 273V0H86V395Q86 451 79 509H160Q165 475 167 428H169Q213 523 329 523Z" horiz-adv-x="364" unicode="r"/>
			<glyph d="M225 523Q323 523 394 469L356 416Q297 457 228 457Q180 457 153 438T126 386Q126 361 137 345T174 318T250 295Q328 276 365 239T403 144Q403 69 347 27T209 -14Q99 -14 25 45L64 98Q98 75 131 64T206 53Q257 53 286 75T316 138Q316 165 305 181T268 209T192 233Q113 253 77 287T41 381Q41 446 91 484T225 523Z" horiz-adv-x="442" unicode="s"/>
			<glyph d="M190 664V509H325V444H190V137Q190 55 265 55Q292 55 315 62L328 -1Q294 -14 249 -14Q182 -14 143 23T105 130V444H15V499L104 509V634Z" horiz-adv-x="357" unicode="t"/>
			<glyph d="M79 509H165V209Q165 139 195 96T290 54Q360 54 402 106T444 237V509H529V113Q529 58 536 0H455Q450 32 448 81H446Q391 -14 270 -14Q175 -14 127 44T79 197Z" horiz-adv-x="615" unicode="u"/>
			<glyph d="M4 509H95L246 85H249L395 509H483L293 0H198Z" horiz-adv-x="488" unicode="v"/>
			<glyph d="M17 509H106L210 92H212L341 509H433L563 92H565L670 509H756L613 0H518L386 418H384L254 0H160Z" horiz-adv-x="774" unicode="w"/>
			<glyph d="M31 509H128L263 316L397 509H489L315 267L517 0H415L259 214L109 0H9L207 267Z" horiz-adv-x="526" unicode="x"/>
			<glyph d="M4 509H96L244 90H246L382 509H469L245 -124Q220 -193 183 -225T85 -257Q46 -257 14 -245L31 -182Q53 -188 74 -188Q111 -188 131 -167T167 -104L202 -3Z" horiz-adv-x="474" unicode="y"/>
			<glyph d="M46 509H402V444L134 67H414V0H33V69L300 444H46Z" horiz-adv-x="447" unicode="z"/>
			<glyph d="M313 811V743Q270 743 245 714T220 633V499Q220 449 211 420T182 376T122 350V348Q161 338 182 321T211 276T220 198V64Q220 11 245 -17T313 -46V-114Q234 -114 185 -68T137 73V242Q137 278 119 293T55 313V384Q100 388 118 404T137 455V624Q137 719 187 765T313 811Z" horiz-adv-x="368" unicode="{"/>
			<glyph d="M136 808H214V-100H136Z" horiz-adv-x="350" unicode="|"/>
			<glyph d="M55 811Q130 811 180 765T231 624V455Q231 420 249 404T313 384V313Q267 309 249 293T231 242V73Q231 -23 182 -68T55 -114V-46Q98 -46 123 -17T148 64V198Q148 248 156 276T186 321T246 348V350Q207 360 186 376T156 420T148 499V633Q148 686 123 714T55 743Z" horiz-adv-x="368" unicode="}"/>
			<glyph d="M222 342Q248 342 269 334T317 311Q339 298 355 291T390 285Q413 285 433 297T479 341L519 315Q470 228 390 228Q364 228 343 236T295 259Q269 273 254 279T222 285Q199 285 178 272T131 229L92 255Q143 342 222 342Z" unicode="~"/>
			<glyph d="" horiz-adv-x="258" unicode=" "/>
			<glyph d="M127 297H197L205 119V-193H119V119ZM162 523Q191 523 204 508T217 468Q217 412 162 412Q106 412 106 468Q106 493 119 508T162 523Z" horiz-adv-x="323" unicode="¡"/>
			<glyph d="M310 708H379V620Q457 612 516 568L482 509Q424 552 347 552Q265 552 223 498T181 355Q181 267 223 212T346 157Q415 157 483 200L514 141Q454 98 379 88V0H310V87Q199 97 147 174T95 355Q95 467 151 538T310 620Z" unicode="¢"/>
			<glyph d="M334 724Q457 724 537 637L482 589Q453 620 418 635T335 651Q276 651 244 620T212 531Q212 493 221 462T250 391H432V324H279Q292 285 292 245Q292 136 178 79V77H523V0H73V70Q136 104 168 145T201 244Q201 285 188 324H72V391H159Q141 430 131 462T122 533Q122 618 177 671T334 724Z" unicode="£"/>
			<glyph d="M143 523L214 427Q255 446 305 446Q355 446 396 427L468 523L520 484L443 392Q485 345 485 273Q485 201 442 153L520 60L468 22L396 118Q356 98 305 98Q254 98 214 117L143 22L91 60L167 152Q124 200 124 273Q124 347 167 393L91 485ZM305 393Q248 393 220 361T192 273Q192 216 220 183T305 151Q362 151 390 183T419 273Q419 330 390 361T305 393Z" unicode="¤"/>
			<glyph d="M24 708H120L302 376H304L483 708H576L370 354H488V295H341V237H488V178H341V0H256V178H111V237H256V295H111V354H228Z" horiz-adv-x="600" unicode="¥"/>
			<glyph d="M136 808H214V427H136ZM136 281H214V-100H136Z" horiz-adv-x="350" unicode="¦"/>
			<glyph d="M314 725Q366 725 409 712T490 671L452 618Q391 659 317 659Q275 659 249 642T224 595Q224 566 249 547T342 509Q428 482 462 451T497 364Q497 285 405 247Q452 228 474 200T497 130Q497 59 442 22T300 -14Q189 -14 113 45L152 98Q187 75 221 64T300 53Q352 53 381 71T410 124Q410 145 399 159T361 185T284 212Q200 236 164 266T129 352Q129 393 156 424T229 473Q183 493 161 522T139 591Q139 652 187 688T314 725ZM301 449Q212 422 212 359Q212 335 223 320T259 293T333 269Q374 285 393 307T412 359Q412 383 402 398T369 424T301 449Z" unicode="§"/>
			<glyph d="M81 710Q131 710 131 659Q131 609 81 609Q54 609 42 623T30 659Q30 682 42 696T81 710ZM266 710Q292 710 304 696T316 659Q316 637 304 623T266 609Q215 609 215 659Q215 710 266 710Z" horiz-adv-x="347" unicode="¨"/>
			<glyph d="M469 725Q588 725 674 677T804 545T848 354Q848 247 804 163T674 31T469 -17Q349 -17 263 31T133 163T89 354Q89 461 133 545T263 677T469 725ZM470 667Q365 667 294 626T189 515T155 354Q155 263 189 192T294 81T470 41Q575 41 645 81T749 192T784 354Q784 445 749 515T645 626T470 667ZM479 569Q559 569 617 526L590 479Q541 513 480 513Q413 513 378 471T344 357Q344 286 378 243T478 200Q534 200 590 234L615 187Q553 143 474 143Q371 143 322 205T274 357Q274 454 328 511T479 569Z" horiz-adv-x="938" unicode="©"/>
			<glyph d="M278 724Q381 724 429 676T477 529V328Q477 275 484 219H409Q402 262 402 286H399Q372 246 331 225T225 205Q154 205 110 243T67 353Q67 449 136 486T344 523Q378 523 395 522V550Q395 605 365 632T273 659Q195 659 125 618L97 673Q180 724 278 724ZM352 465Q279 465 236 455T172 423T152 358Q152 316 177 293T246 270Q293 270 326 290T377 340T395 401V464ZM82 72H510V3H82Z" horiz-adv-x="579" unicode="ª"/>
			<glyph d="M215 505L254 472L145 330L253 188L215 155L79 312V347ZM385 505L424 472L315 330L423 188L385 155L249 312V347Z" horiz-adv-x="504" unicode="«"/>
			<glyph d="M105 377H505V172H426V309H105Z" unicode="¬"/>
			<glyph d="M44 325H269V256H44Z" horiz-adv-x="313" unicode="­"/>
			<glyph d="M173 722Q232 722 265 688T298 600Q298 547 264 512T173 478Q114 478 80 512T47 600Q47 654 80 688T173 722ZM173 697Q124 697 99 670T75 600Q75 556 99 529T173 503Q221 503 245 529T270 600Q270 644 245 670T173 697ZM125 670H175Q199 670 213 659T227 626Q227 596 200 586L232 536H200L171 582H154V536H125ZM154 648V603H171Q200 603 200 626Q200 637 192 642T171 648Z" horiz-adv-x="345" unicode="®"/>
			<glyph d="M30 670H305V611H30Z" horiz-adv-x="335" unicode="¯"/>
			<glyph d="M182 725Q245 725 282 690T319 595Q319 534 282 498T182 463Q119 463 81 498T44 595Q44 657 81 691T182 725ZM181 674Q145 674 125 654T106 595Q106 554 126 534T181 515Q216 515 236 534T256 595Q256 635 236 654T181 674Z" horiz-adv-x="363" unicode="°"/>
			<glyph d="M268 577H342V412H505V343H342V177H268V343H105V412H268ZM105 72H505V3H105Z" unicode="±"/>
			<glyph d="M266 720Q324 720 365 699T427 644T448 568Q448 517 427 477T355 391T196 260H464V191H87V255Q215 361 267 408T342 489T364 560Q364 602 336 627T259 652Q218 652 186 637T124 592L75 635Q115 678 158 699T266 720Z" horiz-adv-x="540" unicode="²"/>
			<glyph d="M272 721Q357 721 404 682T452 582Q452 528 424 500T355 463V461Q403 456 436 426T469 338Q469 267 414 222T263 178Q198 178 153 196T70 252L114 300Q149 271 182 259T263 247Q318 247 351 271T384 342Q384 385 356 405T279 426H193V493H268Q316 493 342 512T369 572Q369 611 342 632T264 653Q224 653 192 641T128 606L86 653Q126 688 170 704T272 721Z" horiz-adv-x="540" unicode="³"/>
			<glyph d="M191 753L233 691L63 576L30 622Z" horiz-adv-x="263" unicode="´"/>
			<glyph d="M80 509H166V211Q166 140 196 97T291 55Q361 55 403 107T445 239V509H530V113Q530 58 537 0H456Q451 32 449 81H447Q421 37 379 11T285 -14Q202 -14 163 50H161V-135Q161 -195 152 -244H73Q80 -186 80 -131Z" unicode="µ"/>
			<glyph d="M250 708H364V-130H280V331H243Q146 331 88 380T31 519Q31 610 89 659T250 708ZM465 708H549V-130H465ZM243 639Q179 639 144 610T109 519Q109 458 144 429T243 400H280V639Z" horiz-adv-x="639" unicode="¶"/>
			<glyph d="M134 394Q189 394 189 338Q189 313 176 298T134 283Q104 283 91 298T78 338Q78 394 134 394Z" horiz-adv-x="267" unicode="·"/>
			<glyph d="M110 0H166L143 -64Q153 -62 171 -62Q207 -62 230 -83T254 -142Q254 -191 219 -215T133 -240Q73 -240 30 -216L51 -170Q87 -188 130 -188Q159 -188 174 -176T190 -143Q190 -105 146 -105Q127 -105 107 -110H67Z" horiz-adv-x="284" unicode="¸"/>
			<glyph d="M266 708H340V260H453V191H114V259H258V623L119 557L87 616Z" horiz-adv-x="540" unicode="¹"/>
			<glyph d="M314 724Q392 724 447 691T532 601T561 466Q561 390 531 330T446 238T314 205Q237 205 181 238T96 331T67 466Q67 584 132 654T314 724ZM314 659Q232 659 192 606T152 466Q152 378 192 324T314 271Q396 271 436 324T477 466Q477 554 436 606T314 659ZM109 72H537V3H109Z" horiz-adv-x="637" unicode="º"/>
			<glyph d="M118 505L254 347V312L119 155L80 188L188 330L79 472ZM288 505L424 347V312L289 155L250 188L358 330L249 472Z" horiz-adv-x="504" unicode="»"/>
			<glyph d="M219 708H293V260H406V191H67V259H211V623L72 557L40 616ZM780 709H859L441 0H362ZM912 517H999L827 187H1004V324H1084V187H1160V118H1084V0H1005V118H735V180Z" horiz-adv-x="1200" unicode="¼"/>
			<glyph d="M213 708H287V260H400V191H61V259H205V623L66 557L34 616ZM774 709H853L435 0H356ZM967 529Q1025 529 1066 508T1128 453T1149 377Q1149 326 1128 286T1056 200T897 69H1165V0H788V64Q916 170 968 217T1043 298T1065 369Q1065 411 1037 436T960 461Q919 461 887 446T825 401L776 444Q816 487 859 508T967 529Z" horiz-adv-x="1200" unicode="½"/>
			<glyph d="M233 721Q318 721 365 682T413 582Q413 528 385 500T316 463V461Q364 456 397 426T430 338Q430 267 375 222T224 178Q159 178 114 196T31 252L75 300Q110 271 143 259T224 247Q279 247 312 271T345 342Q345 385 317 405T240 426H154V493H229Q277 493 303 512T330 572Q330 611 303 632T225 653Q185 653 153 641T89 606L47 653Q87 688 131 704T233 721ZM788 709H867L449 0H370ZM920 517H1007L835 187H1012V324H1092V187H1168V118H1092V0H1013V118H743V180Z" horiz-adv-x="1200" unicode="¾"/>
			<glyph d="M247 297H328V263Q328 233 315 209T283 167T232 125Q184 88 159 57T134 -18Q134 -72 168 -104T263 -136Q320 -136 359 -114T436 -52L490 -98Q444 -152 388 -180T257 -209Q193 -209 144 -184T69 -117T43 -22Q43 22 60 56T101 113T164 167Q207 200 227 223T247 275ZM287 523Q317 523 330 508T343 468Q343 412 287 412Q232 412 232 468Q232 493 245 508T287 523Z" horiz-adv-x="503" unicode="¿"/>
			<glyph d="M284 708H377L655 0H559L495 172H163L97 0H4ZM329 624L188 241H470ZM253 931L424 819L396 773L216 867Z" horiz-adv-x="660" unicode="À"/>
			<glyph d="M284 708H377L655 0H559L495 172H163L97 0H4ZM329 624L188 241H470ZM408 931L444 867L265 773L236 819Z" horiz-adv-x="660" unicode="Á"/>
			<glyph d="M284 708H377L655 0H559L495 172H163L97 0H4ZM329 624L188 241H470ZM297 913H364L489 814L457 775L331 860L206 774L174 814Z" horiz-adv-x="660" unicode="Â"/>
			<glyph d="M284 708H377L655 0H559L495 172H163L97 0H4ZM329 624L188 241H470ZM275 888Q292 888 307 881T340 861Q343 859 352 853T370 844T385 841Q402 841 415 851T443 886L487 867Q470 825 445 804T386 784Q369 784 354 791T322 810Q307 820 297 825T276 830Q259 830 245 819T218 786L174 804Q211 888 275 888Z" horiz-adv-x="660" unicode="Ã"/>
			<glyph d="M284 708H377L655 0H559L495 172H163L97 0H4ZM329 624L188 241H470ZM242 903Q292 903 292 852Q292 802 242 802Q215 802 203 816T191 852Q191 875 203 889T242 903ZM427 903Q453 903 465 889T477 852Q477 830 465 816T427 802Q376 802 376 852Q376 903 427 903Z" horiz-adv-x="660" unicode="Ä"/>
			<glyph d="M331 869Q381 869 411 840T442 765Q442 736 428 712T390 675L655 0H559L495 172H163L97 0H4L271 676Q247 690 233 713T220 765Q220 812 250 840T331 869ZM331 822Q305 822 291 807T277 765Q277 738 291 723T331 709Q355 709 369 723T384 765Q384 793 370 807T331 822ZM329 624L188 241H470Z" horiz-adv-x="660" unicode="Å"/>
			<glyph d="M284 708H817V637H402L486 399H784V331H510L600 73H872V0H534L477 172H163L97 0H4ZM329 624L188 241H455Z" horiz-adv-x="891" unicode="Æ"/>
			<glyph d="M400 726Q471 726 533 703T640 639L588 582Q551 615 503 632T403 650Q273 650 207 569T141 355Q141 223 207 142T401 61Q458 61 509 82T598 141L652 82Q611 41 553 15T428 -16L411 -64Q421 -62 439 -62Q475 -62 498 -83T522 -142Q522 -191 487 -215T401 -240Q341 -240 298 -216L319 -170Q355 -188 398 -188Q427 -188 442 -176T458 -143Q458 -105 414 -105Q395 -105 375 -110H335L372 -16Q269 -11 196 37T86 168T49 355Q49 465 89 549T209 679T400 726Z" horiz-adv-x="674" unicode="Ç"/>
			<glyph d="M90 708H519V637H178V399H475V331H178V73H536V0H90ZM242 931L413 819L385 773L205 867Z" horiz-adv-x="563" unicode="È"/>
			<glyph d="M90 708H519V637H178V399H475V331H178V73H536V0H90ZM397 931L433 867L254 773L225 819Z" horiz-adv-x="563" unicode="É"/>
			<glyph d="M90 708H519V637H178V399H475V331H178V73H536V0H90ZM286 913H353L478 814L446 775L320 860L195 774L163 814Z" horiz-adv-x="563" unicode="Ê"/>
			<glyph d="M90 708H519V637H178V399H475V331H178V73H536V0H90ZM231 903Q281 903 281 852Q281 802 231 802Q204 802 192 816T180 852Q180 875 192 889T231 903ZM416 903Q442 903 454 889T466 852Q466 830 454 816T416 802Q365 802 365 852Q365 903 416 903Z" horiz-adv-x="563" unicode="Ë"/>
			<glyph d="M54 708H310V642H226V68H310V0H54V68H138V642H54ZM105 931L276 819L248 773L68 867Z" horiz-adv-x="364" unicode="Ì"/>
			<glyph d="M54 708H310V642H226V68H310V0H54V68H138V642H54ZM260 931L296 867L117 773L88 819Z" horiz-adv-x="364" unicode="Í"/>
			<glyph d="M54 708H310V642H226V68H310V0H54V68H138V642H54ZM149 913H216L341 814L309 775L183 860L58 774L26 814Z" horiz-adv-x="364" unicode="Î"/>
			<glyph d="M54 708H310V642H226V68H310V0H54V68H138V642H54ZM94 903Q144 903 144 852Q144 802 94 802Q67 802 55 816T43 852Q43 875 55 889T94 903ZM279 903Q305 903 317 889T329 852Q329 830 317 816T279 802Q228 802 228 852Q228 903 279 903Z" horiz-adv-x="364" unicode="Ï"/>
			<glyph d="M90 708H316Q492 708 587 620T683 355Q683 182 586 91T318 0H90V324H10V383H90ZM178 635V383H340V324H178V74H309Q447 74 519 143T592 355Q592 635 310 635Z" horiz-adv-x="732" unicode="Ð"/>
			<glyph d="M90 708H192L604 120H606L604 708H687V0H585L173 588H171L173 0H90ZM332 888Q349 888 364 881T397 861Q400 859 409 853T427 844T442 841Q459 841 472 851T500 886L544 867Q527 825 502 804T443 784Q426 784 411 791T379 810Q364 820 354 825T333 830Q316 830 302 819T275 786L231 804Q268 888 332 888Z" horiz-adv-x="776" unicode="Ñ"/>
			<glyph d="M404 725Q515 725 595 678T717 548T759 354Q759 244 717 160T595 29T404 -17Q293 -17 213 29T91 160T49 354Q49 464 91 548T213 678T404 725ZM405 648Q276 648 208 568T140 354Q140 220 208 140T405 60Q533 60 601 140T669 354Q669 488 601 568T405 648ZM327 931L498 819L470 773L290 867Z" horiz-adv-x="809" unicode="Ò"/>
			<glyph d="M404 725Q515 725 595 678T717 548T759 354Q759 244 717 160T595 29T404 -17Q293 -17 213 29T91 160T49 354Q49 464 91 548T213 678T404 725ZM405 648Q276 648 208 568T140 354Q140 220 208 140T405 60Q533 60 601 140T669 354Q669 488 601 568T405 648ZM482 931L518 867L339 773L310 819Z" horiz-adv-x="809" unicode="Ó"/>
			<glyph d="M404 725Q515 725 595 678T717 548T759 354Q759 244 717 160T595 29T404 -17Q293 -17 213 29T91 160T49 354Q49 464 91 548T213 678T404 725ZM405 648Q276 648 208 568T140 354Q140 220 208 140T405 60Q533 60 601 140T669 354Q669 488 601 568T405 648ZM371 913H438L563 814L531 775L405 860L280 774L248 814Z" horiz-adv-x="809" unicode="Ô"/>
			<glyph d="M404 725Q515 725 595 678T717 548T759 354Q759 244 717 160T595 29T404 -17Q293 -17 213 29T91 160T49 354Q49 464 91 548T213 678T404 725ZM405 648Q276 648 208 568T140 354Q140 220 208 140T405 60Q533 60 601 140T669 354Q669 488 601 568T405 648ZM349 888Q366 888 381 881T414 861Q417 859 426 853T444 844T459 841Q476 841 489 851T517 886L561 867Q544 825 519 804T460 784Q443 784 428 791T396 810Q381 820 371 825T350 830Q333 830 319 819T292 786L248 804Q285 888 349 888Z" horiz-adv-x="809" unicode="Õ"/>
			<glyph d="M404 725Q515 725 595 678T717 548T759 354Q759 244 717 160T595 29T404 -17Q293 -17 213 29T91 160T49 354Q49 464 91 548T213 678T404 725ZM405 648Q276 648 208 568T140 354Q140 220 208 140T405 60Q533 60 601 140T669 354Q669 488 601 568T405 648ZM316 903Q366 903 366 852Q366 802 316 802Q289 802 277 816T265 852Q265 875 277 889T316 903ZM501 903Q527 903 539 889T551 852Q551 830 539 816T501 802Q450 802 450 852Q450 903 501 903Z" horiz-adv-x="809" unicode="Ö"/>
			<glyph d="M187 452L305 335L422 452L471 404L353 286L470 169L422 121L305 238L188 121L139 169L256 286L139 403Z" unicode="×"/>
			<glyph d="M480 794L553 778L533 706Q641 670 700 577T759 354Q759 244 717 160T595 29T404 -17Q375 -17 348 -14L330 -90L256 -74L277 2Q168 37 108 129T49 354Q49 464 91 548T213 678T404 725Q438 725 463 721ZM405 648Q276 648 208 568T140 354Q140 247 180 175T301 76L447 646Q421 648 405 648ZM510 632L363 62Q389 60 405 60Q533 60 601 140T669 354Q669 460 629 532T510 632Z" horiz-adv-x="809" unicode="Ø"/>
			<glyph d="M81 708H169V261Q169 162 216 111T367 60Q471 60 518 111T565 261V708H654V254Q654 124 580 53T367 -17Q227 -17 154 53T81 254ZM290 931L461 819L433 773L253 867Z" horiz-adv-x="735" unicode="Ù"/>
			<glyph d="M81 708H169V261Q169 162 216 111T367 60Q471 60 518 111T565 261V708H654V254Q654 124 580 53T367 -17Q227 -17 154 53T81 254ZM445 931L481 867L302 773L273 819Z" horiz-adv-x="735" unicode="Ú"/>
			<glyph d="M81 708H169V261Q169 162 216 111T367 60Q471 60 518 111T565 261V708H654V254Q654 124 580 53T367 -17Q227 -17 154 53T81 254ZM334 913H401L526 814L494 775L368 860L243 774L211 814Z" horiz-adv-x="735" unicode="Û"/>
			<glyph d="M81 708H169V261Q169 162 216 111T367 60Q471 60 518 111T565 261V708H654V254Q654 124 580 53T367 -17Q227 -17 154 53T81 254ZM279 903Q329 903 329 852Q329 802 279 802Q252 802 240 816T228 852Q228 875 240 889T279 903ZM464 903Q490 903 502 889T514 852Q514 830 502 816T464 802Q413 802 413 852Q413 903 464 903Z" horiz-adv-x="735" unicode="Ü"/>
			<glyph d="M-11 708H90L283 377H285L476 708H573L324 304V0H236V306ZM359 931L395 867L216 773L187 819Z" horiz-adv-x="563" unicode="Ý"/>
			<glyph d="M90 708H179V595H329Q439 595 510 539T582 370Q582 296 547 244T454 167T330 142H179V0H90ZM179 524V214H323Q393 214 442 254T491 369Q491 450 442 487T322 524Z" horiz-adv-x="617" unicode="Þ"/>
			<glyph d="M288 722Q393 722 493 645L403 418Q479 398 532 347T585 201Q585 131 552 82T468 10T365 -14Q297 -14 245 12L270 73Q313 55 359 55Q418 55 458 94T499 202Q499 277 455 315T327 367V420L404 621Q355 657 293 657Q189 657 189 550V0H104V444H15V498L104 509V553Q104 634 151 678T288 722Z" horiz-adv-x="617" unicode="ß"/>
			<glyph d="M261 523Q368 523 417 473T467 321V113Q467 58 474 0H396Q389 44 389 69H386Q358 28 315 7T206 -14Q132 -14 87 25T42 139Q42 238 113 276T329 315Q364 315 382 314V343Q382 400 351 428T256 456Q175 456 103 413L73 470Q159 523 261 523ZM337 255Q262 255 217 245T151 211T130 144Q130 100 156 76T228 53Q276 53 311 73T364 125T382 188V254ZM204 753L365 622L331 576L162 691Z" horiz-adv-x="546" unicode="à"/>
			<glyph d="M261 523Q368 523 417 473T467 321V113Q467 58 474 0H396Q389 44 389 69H386Q358 28 315 7T206 -14Q132 -14 87 25T42 139Q42 238 113 276T329 315Q364 315 382 314V343Q382 400 351 428T256 456Q175 456 103 413L73 470Q159 523 261 523ZM337 255Q262 255 217 245T151 211T130 144Q130 100 156 76T228 53Q276 53 311 73T364 125T382 188V254ZM344 753L386 691L216 576L183 622Z" horiz-adv-x="546" unicode="á"/>
			<glyph d="M261 523Q368 523 417 473T467 321V113Q467 58 474 0H396Q389 44 389 69H386Q358 28 315 7T206 -14Q132 -14 87 25T42 139Q42 238 113 276T329 315Q364 315 382 314V343Q382 400 351 428T256 456Q175 456 103 413L73 470Q159 523 261 523ZM337 255Q262 255 217 245T151 211T130 144Q130 100 156 76T228 53Q276 53 311 73T364 125T382 188V254ZM240 736H308L434 613L400 578L274 680L148 576L114 613Z" horiz-adv-x="546" unicode="â"/>
			<glyph d="M261 523Q368 523 417 473T467 321V113Q467 58 474 0H396Q389 44 389 69H386Q358 28 315 7T206 -14Q132 -14 87 25T42 139Q42 238 113 276T329 315Q364 315 382 314V343Q382 400 351 428T256 456Q175 456 103 413L73 470Q159 523 261 523ZM337 255Q262 255 217 245T151 211T130 144Q130 100 156 76T228 53Q276 53 311 73T364 125T382 188V254ZM219 695Q236 695 251 688T284 668Q287 666 296 660T314 651T329 648Q346 648 359 658T387 693L431 674Q414 632 389 611T330 591Q313 591 298 598T266 617Q251 627 241 632T220 637Q203 637 189 626T162 593L118 611Q155 695 219 695Z" horiz-adv-x="546" unicode="ã"/>
			<glyph d="M261 523Q368 523 417 473T467 321V113Q467 58 474 0H396Q389 44 389 69H386Q358 28 315 7T206 -14Q132 -14 87 25T42 139Q42 238 113 276T329 315Q364 315 382 314V343Q382 400 351 428T256 456Q175 456 103 413L73 470Q159 523 261 523ZM337 255Q262 255 217 245T151 211T130 144Q130 100 156 76T228 53Q276 53 311 73T364 125T382 188V254ZM182 710Q232 710 232 659Q232 609 182 609Q155 609 143 623T131 659Q131 682 143 696T182 710ZM367 710Q393 710 405 696T417 659Q417 637 405 623T367 609Q316 609 316 659Q316 710 367 710Z" horiz-adv-x="546" unicode="ä"/>
			<glyph d="M261 523Q368 523 417 473T467 321V113Q467 58 474 0H396Q389 44 389 69H386Q358 28 315 7T206 -14Q132 -14 87 25T42 139Q42 238 113 276T329 315Q364 315 382 314V343Q382 400 351 428T256 456Q175 456 103 413L73 470Q159 523 261 523ZM337 255Q262 255 217 245T151 211T130 144Q130 100 156 76T228 53Q276 53 311 73T364 125T382 188V254ZM274 783Q324 783 354 754T385 679Q385 634 355 605T274 576Q223 576 193 605T163 679Q163 726 193 754T274 783ZM274 736Q248 736 234 721T220 679Q220 652 234 637T274 623Q298 623 312 637T327 679Q327 707 313 721T274 736Z" horiz-adv-x="546" unicode="å"/>
			<glyph d="M259 523Q323 523 362 499T423 423Q451 473 497 498T600 523Q703 523 760 450T817 261Q817 248 815 224H453Q458 147 499 100T612 54Q653 54 687 66T760 104L798 49Q709 -14 608 -14Q538 -14 486 17T408 101Q380 44 332 15T223 -14Q140 -14 91 25T42 139Q42 238 112 276T318 315Q350 315 367 314V343Q367 456 255 456Q176 456 103 413L73 470Q113 495 161 509T259 523ZM598 458Q531 458 492 410T452 290H734Q732 365 696 411T598 458ZM326 255Q222 255 176 230T130 144Q130 100 157 76T233 53Q275 53 305 73T351 125T367 188V254Z" horiz-adv-x="867" unicode="æ"/>
			<glyph d="M302 523Q350 523 393 508T471 468L437 409Q379 452 302 452Q220 452 178 398T136 255Q136 167 178 112T301 58Q370 58 438 101L469 41Q402 -7 316 -13L298 -64Q308 -62 326 -62Q362 -62 385 -83T409 -142Q409 -191 374 -215T288 -240Q228 -240 185 -216L206 -170Q242 -188 285 -188Q314 -188 329 -176T345 -143Q345 -105 301 -105Q282 -105 262 -110H222L260 -12Q152 -1 101 76T50 255Q50 377 117 450T302 523Z" horiz-adv-x="503" unicode="ç"/>
			<glyph d="M288 523Q399 523 457 451T516 260Q516 236 514 224H136Q141 146 183 100T303 54Q349 54 385 66T459 104L497 49Q454 18 405 2T298 -14Q181 -14 115 60T50 257Q50 336 78 396T159 489T288 523ZM287 458Q216 458 177 410T135 290H433Q431 366 394 412T287 458ZM222 753L383 622L349 576L180 691Z" horiz-adv-x="565" unicode="è"/>
			<glyph d="M288 523Q399 523 457 451T516 260Q516 236 514 224H136Q141 146 183 100T303 54Q349 54 385 66T459 104L497 49Q454 18 405 2T298 -14Q181 -14 115 60T50 257Q50 336 78 396T159 489T288 523ZM287 458Q216 458 177 410T135 290H433Q431 366 394 412T287 458ZM363 753L405 691L235 576L202 622Z" horiz-adv-x="565" unicode="é"/>
			<glyph d="M288 523Q399 523 457 451T516 260Q516 236 514 224H136Q141 146 183 100T303 54Q349 54 385 66T459 104L497 49Q454 18 405 2T298 -14Q181 -14 115 60T50 257Q50 336 78 396T159 489T288 523ZM287 458Q216 458 177 410T135 290H433Q431 366 394 412T287 458ZM258 736H326L452 613L418 578L292 680L166 576L132 613Z" horiz-adv-x="565" unicode="ê"/>
			<glyph d="M288 523Q399 523 457 451T516 260Q516 236 514 224H136Q141 146 183 100T303 54Q349 54 385 66T459 104L497 49Q454 18 405 2T298 -14Q181 -14 115 60T50 257Q50 336 78 396T159 489T288 523ZM287 458Q216 458 177 410T135 290H433Q431 366 394 412T287 458ZM200 710Q250 710 250 659Q250 609 200 609Q173 609 161 623T149 659Q149 682 161 696T200 710ZM385 710Q411 710 423 696T435 659Q435 637 423 623T385 609Q334 609 334 659Q334 710 385 710Z" horiz-adv-x="565" unicode="ë"/>
			<glyph d="M87 509H172V0H87ZM59 753L220 622L186 576L17 691Z" horiz-adv-x="258" unicode="ì"/>
			<glyph d="M87 509H172V0H87ZM200 753L242 691L72 576L39 622Z" horiz-adv-x="258" unicode="í"/>
			<glyph d="M87 509H172V0H87ZM95 736H163L289 613L255 578L129 680L3 576L-31 613Z" horiz-adv-x="258" unicode="î"/>
			<glyph d="M87 509H172V0H87ZM37 710Q87 710 87 659Q87 609 37 609Q10 609 -2 623T-14 659Q-14 682 -2 696T37 710ZM222 710Q248 710 260 696T272 659Q272 637 260 623T222 609Q171 609 171 659Q171 710 222 710Z" horiz-adv-x="258" unicode="ï"/>
			<glyph d="M226 725Q298 702 345 677L436 725L463 678L400 645Q481 594 526 511T572 319Q572 224 543 149T456 30T309 -14Q230 -14 171 17T81 104T50 235Q50 312 80 370T166 460T294 492Q353 492 398 471T481 409Q458 534 333 610L231 557L204 603L275 640Q237 655 193 669ZM300 424Q225 424 182 373T139 232Q139 150 183 104T308 59Q400 59 441 128T483 322Q445 372 402 398T300 424Z" horiz-adv-x="627" unicode="ð"/>
			<glyph d="M346 523Q442 523 488 467T535 329V0H450V312Q450 373 420 412T323 452Q254 452 212 406T171 292V0H86V395Q86 451 79 509H160Q165 482 167 437H169Q194 476 239 499T346 523ZM262 695Q279 695 294 688T327 668Q330 666 339 660T357 651T372 648Q389 648 402 658T430 693L474 674Q457 632 432 611T373 591Q356 591 341 598T309 617Q294 627 284 632T263 637Q246 637 232 626T205 593L161 611Q198 695 262 695Z" horiz-adv-x="614" unicode="ñ"/>
			<glyph d="M305 523Q386 523 443 489T531 396T561 256Q561 177 530 115T442 20T305 -14Q226 -14 168 20T80 116T50 256Q50 378 117 450T305 523ZM305 455Q220 455 179 401T138 256Q138 165 179 109T305 54Q390 54 432 109T474 256Q474 347 432 401T305 455ZM236 753L397 622L363 576L194 691Z" horiz-adv-x="611" unicode="ò"/>
			<glyph d="M305 523Q386 523 443 489T531 396T561 256Q561 177 530 115T442 20T305 -14Q226 -14 168 20T80 116T50 256Q50 378 117 450T305 523ZM305 455Q220 455 179 401T138 256Q138 165 179 109T305 54Q390 54 432 109T474 256Q474 347 432 401T305 455ZM376 753L418 691L248 576L215 622Z" horiz-adv-x="611" unicode="ó"/>
			<glyph d="M305 523Q386 523 443 489T531 396T561 256Q561 177 530 115T442 20T305 -14Q226 -14 168 20T80 116T50 256Q50 378 117 450T305 523ZM305 455Q220 455 179 401T138 256Q138 165 179 109T305 54Q390 54 432 109T474 256Q474 347 432 401T305 455ZM271 736H339L465 613L431 578L305 680L179 576L145 613Z" horiz-adv-x="611" unicode="ô"/>
			<glyph d="M305 523Q386 523 443 489T531 396T561 256Q561 177 530 115T442 20T305 -14Q226 -14 168 20T80 116T50 256Q50 378 117 450T305 523ZM305 455Q220 455 179 401T138 256Q138 165 179 109T305 54Q390 54 432 109T474 256Q474 347 432 401T305 455ZM251 695Q268 695 283 688T316 668Q319 666 328 660T346 651T361 648Q378 648 391 658T419 693L463 674Q446 632 421 611T362 591Q345 591 330 598T298 617Q283 627 273 632T252 637Q235 637 221 626T194 593L150 611Q187 695 251 695Z" horiz-adv-x="611" unicode="õ"/>
			<glyph d="M305 523Q386 523 443 489T531 396T561 256Q561 177 530 115T442 20T305 -14Q226 -14 168 20T80 116T50 256Q50 378 117 450T305 523ZM305 455Q220 455 179 401T138 256Q138 165 179 109T305 54Q390 54 432 109T474 256Q474 347 432 401T305 455ZM213 710Q263 710 263 659Q263 609 213 609Q186 609 174 623T162 659Q162 682 174 696T213 710ZM398 710Q424 710 436 696T448 659Q448 637 436 623T398 609Q347 609 347 659Q347 710 398 710Z" horiz-adv-x="611" unicode="ö"/>
			<glyph d="M105 325H505V256H105ZM306 130Q359 130 359 76Q359 52 346 37T306 23Q277 23 264 37T252 76Q252 130 306 130ZM306 551Q359 551 359 497Q359 473 346 458T306 444Q277 444 264 458T252 497Q252 551 306 551Z" unicode="÷"/>
			<glyph d="M356 598L429 583L408 506Q482 479 521 413T561 256Q561 177 530 115T442 20T305 -14Q284 -14 274 -13L255 -90L182 -74L204 3Q130 31 90 98T50 256Q50 378 117 450T305 523Q327 523 337 522ZM304 457Q219 457 177 402T136 256Q136 185 158 136T228 68L328 456Q321 457 304 457ZM384 442L283 54Q290 53 304 53Q390 53 432 108T475 256Q475 325 452 373T384 442Z" horiz-adv-x="611" unicode="ø"/>
			<glyph d="M79 509H165V209Q165 139 195 96T290 54Q360 54 402 106T444 237V509H529V113Q529 58 536 0H455Q450 32 448 81H446Q391 -14 270 -14Q175 -14 127 44T79 197ZM239 753L400 622L366 576L197 691Z" horiz-adv-x="615" unicode="ù"/>
			<glyph d="M79 509H165V209Q165 139 195 96T290 54Q360 54 402 106T444 237V509H529V113Q529 58 536 0H455Q450 32 448 81H446Q391 -14 270 -14Q175 -14 127 44T79 197ZM380 753L422 691L252 576L219 622Z" horiz-adv-x="615" unicode="ú"/>
			<glyph d="M79 509H165V209Q165 139 195 96T290 54Q360 54 402 106T444 237V509H529V113Q529 58 536 0H455Q450 32 448 81H446Q391 -14 270 -14Q175 -14 127 44T79 197ZM275 736H343L469 613L435 578L309 680L183 576L149 613Z" horiz-adv-x="615" unicode="û"/>
			<glyph d="M79 509H165V209Q165 139 195 96T290 54Q360 54 402 106T444 237V509H529V113Q529 58 536 0H455Q450 32 448 81H446Q391 -14 270 -14Q175 -14 127 44T79 197ZM217 710Q267 710 267 659Q267 609 217 609Q190 609 178 623T166 659Q166 682 178 696T217 710ZM402 710Q428 710 440 696T452 659Q452 637 440 623T402 609Q351 609 351 659Q351 710 402 710Z" horiz-adv-x="615" unicode="ü"/>
			<glyph d="M4 509H96L244 90H246L382 509H469L245 -124Q220 -193 183 -225T85 -257Q46 -257 14 -245L31 -182Q53 -188 74 -188Q111 -188 131 -167T167 -104L202 -3ZM308 753L350 691L180 576L147 622Z" horiz-adv-x="474" unicode="ý"/>
			<glyph d="M87 708H172V435H174Q197 475 241 499T350 523Q423 523 473 487T548 391T573 255Q573 179 545 118T464 21T339 -14Q242 -14 172 49V-244H87ZM333 455Q286 455 249 432T192 371T172 287V121Q207 86 241 70T321 54Q401 54 443 109T486 255Q486 347 445 401T333 455Z" horiz-adv-x="623" unicode="þ"/>
			<glyph d="M4 509H96L244 90H246L382 509H469L245 -124Q220 -193 183 -225T85 -257Q46 -257 14 -245L31 -182Q53 -188 74 -188Q111 -188 131 -167T167 -104L202 -3ZM145 710Q195 710 195 659Q195 609 145 609Q118 609 106 623T94 659Q94 682 106 696T145 710ZM330 710Q356 710 368 696T380 659Q380 637 368 623T330 609Q279 609 279 659Q279 710 330 710Z" horiz-adv-x="474" unicode="ÿ"/>
			<glyph d="M284 708H377L655 0H559L495 172H163L97 0H4ZM329 624L188 241H470ZM196 863H471V804H196Z" horiz-adv-x="660" unicode="Ā"/>
			<glyph d="M261 523Q368 523 417 473T467 321V113Q467 58 474 0H396Q389 44 389 69H386Q358 28 315 7T206 -14Q132 -14 87 25T42 139Q42 238 113 276T329 315Q364 315 382 314V343Q382 400 351 428T256 456Q175 456 103 413L73 470Q159 523 261 523ZM337 255Q262 255 217 245T151 211T130 144Q130 100 156 76T228 53Q276 53 311 73T364 125T382 188V254ZM136 670H411V611H136Z" horiz-adv-x="546" unicode="ā"/>
			<glyph d="M284 708H377L655 0H559L495 172H163L97 0H4ZM329 624L188 241H470ZM237 901Q246 869 270 851T330 833Q366 833 390 850T424 901L474 895Q465 838 427 805T330 773Q270 773 232 805T186 895Z" horiz-adv-x="660" unicode="Ă"/>
			<glyph d="M261 523Q368 523 417 473T467 321V113Q467 58 474 0H396Q389 44 389 69H386Q358 28 315 7T206 -14Q132 -14 87 25T42 139Q42 238 113 276T329 315Q364 315 382 314V343Q382 400 351 428T256 456Q175 456 103 413L73 470Q159 523 261 523ZM337 255Q262 255 217 245T151 211T130 144Q130 100 156 76T228 53Q276 53 311 73T364 125T382 188V254ZM178 723Q198 640 274 640Q350 640 370 723L422 717Q412 649 374 614T274 579Q211 579 173 614T126 717Z" horiz-adv-x="546" unicode="ă"/>
			<glyph d="M284 708H377L655 0H625Q572 -37 547 -68T522 -133Q522 -157 536 -169T575 -182Q606 -182 640 -165L658 -213Q617 -238 566 -238Q519 -238 488 -213T458 -144Q458 -103 484 -65T558 2L495 172H163L97 0H4ZM329 624L188 241H470Z" horiz-adv-x="660" unicode="Ą"/>
			<glyph d="M261 523Q368 523 417 473T467 321V113Q467 58 474 0H459Q406 -37 381 -68T356 -133Q356 -157 370 -169T409 -182Q440 -182 474 -165L492 -213Q451 -238 400 -238Q353 -238 322 -213T292 -144Q292 -102 319 -64T395 4Q389 52 389 69H386Q358 28 315 7T206 -14Q132 -14 87 25T42 139Q42 238 113 276T329 315Q364 315 382 314V343Q382 400 351 428T256 456Q175 456 103 413L73 470Q159 523 261 523ZM337 255Q262 255 217 245T151 211T130 144Q130 100 156 76T228 53Q276 53 311 73T364 125T382 188V254Z" horiz-adv-x="546" unicode="ą"/>
			<glyph d="M400 726Q471 726 533 703T640 639L588 582Q551 615 503 632T403 650Q273 650 207 569T141 355Q141 223 207 142T401 61Q458 61 509 82T598 141L652 82Q606 36 540 9T398 -17Q287 -17 208 30T89 161T49 355Q49 465 89 549T209 679T400 726ZM471 931L507 867L328 773L299 819Z" horiz-adv-x="674" unicode="Ć"/>
			<glyph d="M302 523Q350 523 393 508T471 468L437 409Q379 452 302 452Q220 452 178 398T136 255Q136 167 178 112T301 58Q370 58 438 101L469 41Q393 -14 295 -14Q209 -14 154 24T74 124T50 255Q50 377 117 450T302 523ZM368 753L410 691L240 576L207 622Z" horiz-adv-x="503" unicode="ć"/>
			<glyph d="M400 726Q471 726 533 703T640 639L588 582Q551 615 503 632T403 650Q273 650 207 569T141 355Q141 223 207 142T401 61Q458 61 509 82T598 141L652 82Q606 36 540 9T398 -17Q287 -17 208 30T89 161T49 355Q49 465 89 549T209 679T400 726ZM360 913H427L552 814L520 775L394 860L269 774L237 814Z" horiz-adv-x="674" unicode="Ĉ"/>
			<glyph d="M302 523Q350 523 393 508T471 468L437 409Q379 452 302 452Q220 452 178 398T136 255Q136 167 178 112T301 58Q370 58 438 101L469 41Q393 -14 295 -14Q209 -14 154 24T74 124T50 255Q50 377 117 450T302 523ZM263 736H331L457 613L423 578L297 680L171 576L137 613Z" horiz-adv-x="503" unicode="ĉ"/>
			<glyph d="M400 726Q471 726 533 703T640 639L588 582Q551 615 503 632T403 650Q273 650 207 569T141 355Q141 223 207 142T401 61Q458 61 509 82T598 141L652 82Q606 36 540 9T398 -17Q287 -17 208 30T89 161T49 355Q49 465 89 549T209 679T400 726ZM394 914Q449 914 449 860Q449 837 436 822T394 808Q364 808 351 822T338 860Q338 914 394 914Z" horiz-adv-x="674" unicode="Ċ"/>
			<glyph d="M302 523Q350 523 393 508T471 468L437 409Q379 452 302 452Q220 452 178 398T136 255Q136 167 178 112T301 58Q370 58 438 101L469 41Q393 -14 295 -14Q209 -14 154 24T74 124T50 255Q50 377 117 450T302 523ZM298 737Q353 737 353 683Q353 660 340 645T298 631Q268 631 255 645T242 683Q242 737 298 737Z" horiz-adv-x="503" unicode="ċ"/>
			<glyph d="M400 726Q471 726 533 703T640 639L588 582Q551 615 503 632T403 650Q273 650 207 569T141 355Q141 223 207 142T401 61Q458 61 509 82T598 141L652 82Q606 36 540 9T398 -17Q287 -17 208 30T89 161T49 355Q49 465 89 549T209 679T400 726ZM268 920L393 835L519 919L551 880L426 781H359L236 880Z" horiz-adv-x="674" unicode="Č"/>
			<glyph d="M302 523Q350 523 393 508T471 468L437 409Q379 452 302 452Q220 452 178 398T136 255Q136 167 178 112T301 58Q370 58 438 101L469 41Q393 -14 295 -14Q209 -14 154 24T74 124T50 255Q50 377 117 450T302 523ZM171 742L297 638L423 741L458 704L331 582H263L137 704Z" horiz-adv-x="503" unicode="č"/>
			<glyph d="M90 708H316Q492 708 587 620T683 355Q683 182 586 91T318 0H90ZM178 635V74H309Q447 74 519 143T592 355Q592 635 310 635ZM211 920L336 835L462 919L494 880L369 781H302L179 880Z" horiz-adv-x="732" unicode="Ď"/>
			<glyph d="M451 708H536V113Q536 58 543 0H464Q457 44 457 76H455Q398 -14 273 -14Q165 -14 107 60T50 253Q50 329 78 390T160 487T285 523Q387 523 451 457ZM297 454Q223 454 180 398T138 253Q138 161 179 107T292 54Q364 54 407 100T451 219V379Q421 417 383 435T297 454ZM616 725L687 705L639 544L587 557Z" horiz-adv-x="669" unicode="ď"/>
			<glyph d="M90 708H316Q492 708 587 620T683 355Q683 182 586 91T318 0H90V324H10V383H90ZM178 635V383H340V324H178V74H309Q447 74 519 143T592 355Q592 635 310 635Z" horiz-adv-x="732" unicode="Đ"/>
			<glyph d="M451 708H536V643H609V586H536V113Q536 58 543 0H464Q457 44 457 76H455Q398 -14 273 -14Q165 -14 107 60T50 253Q50 329 78 390T160 487T285 523Q387 523 451 457V586H292V643H451ZM297 454Q223 454 180 398T138 253Q138 161 179 107T292 54Q364 54 407 100T451 219V379Q421 417 383 435T297 454Z" horiz-adv-x="621" unicode="đ"/>
			<glyph d="M90 708H519V637H178V399H475V331H178V73H536V0H90ZM185 863H460V804H185Z" horiz-adv-x="563" unicode="Ē"/>
			<glyph d="M288 523Q399 523 457 451T516 260Q516 236 514 224H136Q141 146 183 100T303 54Q349 54 385 66T459 104L497 49Q454 18 405 2T298 -14Q181 -14 115 60T50 257Q50 336 78 396T159 489T288 523ZM287 458Q216 458 177 410T135 290H433Q431 366 394 412T287 458ZM155 670H430V611H155Z" horiz-adv-x="565" unicode="ē"/>
			<glyph d="M90 708H519V637H178V399H475V331H178V73H536V0H90ZM227 901Q236 869 260 851T320 833Q356 833 380 850T414 901L464 895Q455 838 417 805T320 773Q260 773 222 805T176 895Z" horiz-adv-x="563" unicode="Ĕ"/>
			<glyph d="M288 523Q399 523 457 451T516 260Q516 236 514 224H136Q141 146 183 100T303 54Q349 54 385 66T459 104L497 49Q454 18 405 2T298 -14Q181 -14 115 60T50 257Q50 336 78 396T159 489T288 523ZM287 458Q216 458 177 410T135 290H433Q431 366 394 412T287 458ZM196 723Q216 640 292 640Q368 640 388 723L440 717Q430 649 392 614T292 579Q229 579 191 614T144 717Z" horiz-adv-x="565" unicode="ĕ"/>
			<glyph d="M90 708H519V637H178V399H475V331H178V73H536V0H90ZM321 914Q376 914 376 860Q376 837 363 822T321 808Q291 808 278 822T265 860Q265 914 321 914Z" horiz-adv-x="563" unicode="Ė"/>
			<glyph d="M288 523Q399 523 457 451T516 260Q516 236 514 224H136Q141 146 183 100T303 54Q349 54 385 66T459 104L497 49Q454 18 405 2T298 -14Q181 -14 115 60T50 257Q50 336 78 396T159 489T288 523ZM287 458Q216 458 177 410T135 290H433Q431 366 394 412T287 458ZM293 737Q348 737 348 683Q348 660 335 645T293 631Q263 631 250 645T237 683Q237 737 293 737Z" horiz-adv-x="565" unicode="ė"/>
			<glyph d="M90 708H519V637H178V399H475V331H178V73H536V0H492Q439 -37 414 -68T389 -133Q389 -157 403 -169T442 -182Q473 -182 507 -165L525 -213Q484 -238 433 -238Q386 -238 355 -213T325 -144Q325 -104 350 -67T421 0H90Z" horiz-adv-x="563" unicode="Ę"/>
			<glyph d="M288 523Q399 523 457 451T516 260Q516 236 514 224H136Q141 146 183 100T303 54Q349 54 385 66T459 104L497 49Q461 24 419 7Q312 -70 312 -133Q312 -157 326 -169T365 -182Q396 -182 430 -165L448 -213Q407 -238 356 -238Q309 -238 278 -213T248 -144Q248 -71 331 -13Q320 -14 298 -14Q181 -14 115 60T50 257Q50 336 78 396T159 489T288 523ZM287 458Q216 458 177 410T135 290H433Q431 366 394 412T287 458Z" horiz-adv-x="565" unicode="ę"/>
			<glyph d="M90 708H519V637H178V399H475V331H178V73H536V0H90ZM195 920L320 835L446 919L478 880L353 781H286L163 880Z" horiz-adv-x="563" unicode="Ě"/>
			<glyph d="M288 523Q399 523 457 451T516 260Q516 236 514 224H136Q141 146 183 100T303 54Q349 54 385 66T459 104L497 49Q454 18 405 2T298 -14Q181 -14 115 60T50 257Q50 336 78 396T159 489T288 523ZM287 458Q216 458 177 410T135 290H433Q431 366 394 412T287 458ZM166 742L292 638L418 741L453 704L326 582H258L132 704Z" horiz-adv-x="565" unicode="ě"/>
			<glyph d="M405 725Q475 725 537 702T644 638L594 581Q556 613 508 631T408 649Q277 649 208 568T140 355Q140 217 205 137T404 57Q456 57 497 67T582 97V290H418V359H664V49Q606 18 543 0T403 -17Q289 -17 209 29T89 160T49 355Q49 465 91 548T213 678T405 725ZM368 913H435L560 814L528 775L402 860L277 774L245 814Z" horiz-adv-x="745" unicode="Ĝ"/>
			<glyph d="M262 522Q289 522 307 519T352 509H529V441L416 453Q440 436 455 405T470 331Q470 250 415 204T261 159Q211 159 182 146T154 110Q154 69 251 68Q392 66 455 30T519 -77Q519 -163 447 -210T247 -257Q135 -257 77 -217T20 -104Q20 -61 44 -26T125 36Q76 58 76 103Q76 130 95 151T150 182Q103 201 76 240T50 339Q50 424 106 473T262 522ZM260 459Q200 459 164 427T129 341Q129 284 161 252T260 220Q391 220 391 338Q391 393 358 426T260 459ZM188 4Q143 -16 123 -41T103 -100Q103 -193 250 -193Q341 -193 388 -165T435 -84Q435 -54 412 -35T336 -6T188 4ZM230 736H298L424 613L390 578L264 680L138 576L104 613Z" horiz-adv-x="552" unicode="ĝ"/>
			<glyph d="M405 725Q475 725 537 702T644 638L594 581Q556 613 508 631T408 649Q277 649 208 568T140 355Q140 217 205 137T404 57Q456 57 497 67T582 97V290H418V359H664V49Q606 18 543 0T403 -17Q289 -17 209 29T89 160T49 355Q49 465 91 548T213 678T405 725ZM308 901Q317 869 341 851T401 833Q437 833 461 850T495 901L545 895Q536 838 498 805T401 773Q341 773 303 805T257 895Z" horiz-adv-x="745" unicode="Ğ"/>
			<glyph d="M262 522Q289 522 307 519T352 509H529V441L416 453Q440 436 455 405T470 331Q470 250 415 204T261 159Q211 159 182 146T154 110Q154 69 251 68Q392 66 455 30T519 -77Q519 -163 447 -210T247 -257Q135 -257 77 -217T20 -104Q20 -61 44 -26T125 36Q76 58 76 103Q76 130 95 151T150 182Q103 201 76 240T50 339Q50 424 106 473T262 522ZM260 459Q200 459 164 427T129 341Q129 284 161 252T260 220Q391 220 391 338Q391 393 358 426T260 459ZM188 4Q143 -16 123 -41T103 -100Q103 -193 250 -193Q341 -193 388 -165T435 -84Q435 -54 412 -35T336 -6T188 4ZM169 723Q189 640 265 640Q341 640 361 723L413 717Q403 649 365 614T265 579Q202 579 164 614T117 717Z" horiz-adv-x="552" unicode="ğ"/>
			<glyph d="M405 725Q475 725 537 702T644 638L594 581Q556 613 508 631T408 649Q277 649 208 568T140 355Q140 217 205 137T404 57Q456 57 497 67T582 97V290H418V359H664V49Q606 18 543 0T403 -17Q289 -17 209 29T89 160T49 355Q49 465 91 548T213 678T405 725ZM402 914Q457 914 457 860Q457 837 444 822T402 808Q372 808 359 822T346 860Q346 914 402 914Z" horiz-adv-x="745" unicode="Ġ"/>
			<glyph d="M262 522Q289 522 307 519T352 509H529V441L416 453Q440 436 455 405T470 331Q470 250 415 204T261 159Q211 159 182 146T154 110Q154 69 251 68Q392 66 455 30T519 -77Q519 -163 447 -210T247 -257Q135 -257 77 -217T20 -104Q20 -61 44 -26T125 36Q76 58 76 103Q76 130 95 151T150 182Q103 201 76 240T50 339Q50 424 106 473T262 522ZM260 459Q200 459 164 427T129 341Q129 284 161 252T260 220Q391 220 391 338Q391 393 358 426T260 459ZM188 4Q143 -16 123 -41T103 -100Q103 -193 250 -193Q341 -193 388 -165T435 -84Q435 -54 412 -35T336 -6T188 4ZM265 737Q320 737 320 683Q320 660 307 645T265 631Q235 631 222 645T209 683Q209 737 265 737Z" horiz-adv-x="552" unicode="ġ"/>
			<glyph d="M405 725Q475 725 537 702T644 638L594 581Q556 613 508 631T408 649Q277 649 208 568T140 355Q140 217 205 137T404 57Q456 57 497 67T582 97V290H418V359H664V49Q606 18 543 0T403 -17Q289 -17 209 29T89 160T49 355Q49 465 91 548T213 678T405 725ZM413 -63Q464 -63 464 -111Q464 -144 447 -181T392 -267L355 -249Q389 -196 392 -149Q363 -142 363 -108Q363 -63 413 -63Z" horiz-adv-x="745" unicode="Ģ"/>
			<glyph d="M262 522Q289 522 307 519T352 509H529V441L416 453Q440 436 455 405T470 331Q470 250 415 204T261 159Q211 159 182 146T154 110Q154 69 251 68Q392 66 455 30T519 -77Q519 -163 447 -210T247 -257Q135 -257 77 -217T20 -104Q20 -61 44 -26T125 36Q76 58 76 103Q76 130 95 151T150 182Q103 201 76 240T50 339Q50 424 106 473T262 522ZM260 459Q200 459 164 427T129 341Q129 284 161 252T260 220Q391 220 391 338Q391 393 358 426T260 459ZM188 4Q143 -16 123 -41T103 -100Q103 -193 250 -193Q341 -193 388 -165T435 -84Q435 -54 412 -35T336 -6T188 4ZM284 819L321 801Q287 748 284 701Q313 694 313 660Q313 615 263 615Q212 615 212 663Q212 696 228 733T284 819Z" horiz-adv-x="552" unicode="ģ"/>
			<glyph d="M90 708H179V401H561V708H650V0H561V329H179V0H90ZM336 913H403L528 814L496 775L370 860L245 774L213 814Z" horiz-adv-x="739" unicode="Ĥ"/>
			<glyph d="M87 708H172V438H174Q199 476 242 499T348 523Q444 523 490 467T536 329V0H451V312Q451 373 421 412T324 452Q255 452 213 406T172 292V0H87ZM274 913H341L466 814L434 775L308 860L183 774L151 814Z" horiz-adv-x="615" unicode="ĥ"/>
			<glyph d="M90 708H179V599H561V708H650V599H736V540H650V0H561V329H179V0H90V540H8V599H90ZM179 540V401H561V540Z" horiz-adv-x="739" unicode="Ħ"/>
			<glyph d="M87 708H172V643H329V586H172V438H174Q199 476 242 499T348 523Q444 523 490 467T536 329V0H451V312Q451 373 421 412T324 452Q255 452 213 406T172 292V0H87V586H12V643H87Z" horiz-adv-x="615" unicode="ħ"/>
			<glyph d="M54 708H310V642H226V68H310V0H54V68H138V642H54ZM126 888Q143 888 158 881T191 861Q194 859 203 853T221 844T236 841Q253 841 266 851T294 886L338 867Q321 825 296 804T237 784Q220 784 205 791T173 810Q158 820 148 825T127 830Q110 830 96 819T69 786L25 804Q62 888 126 888Z" horiz-adv-x="364" unicode="Ĩ"/>
			<glyph d="M87 509H172V0H87ZM74 695Q91 695 106 688T139 668Q142 666 151 660T169 651T184 648Q201 648 214 658T242 693L286 674Q269 632 244 611T185 591Q168 591 153 598T121 617Q106 627 96 632T75 637Q58 637 44 626T17 593L-27 611Q10 695 74 695Z" horiz-adv-x="258" unicode="ĩ"/>
			<glyph d="M54 708H310V642H226V68H310V0H54V68H138V642H54ZM47 863H322V804H47Z" horiz-adv-x="364" unicode="Ī"/>
			<glyph d="M87 509H172V0H87ZM-9 670H266V611H-9Z" horiz-adv-x="258" unicode="ī"/>
			<glyph d="M54 708H310V642H226V68H310V0H54V68H138V642H54ZM89 901Q98 869 122 851T182 833Q218 833 242 850T276 901L326 895Q317 838 279 805T182 773Q122 773 84 805T38 895Z" horiz-adv-x="364" unicode="Ĭ"/>
			<glyph d="M87 509H172V0H87ZM33 723Q53 640 129 640Q205 640 225 723L277 717Q267 649 229 614T129 579Q66 579 28 614T-19 717Z" horiz-adv-x="258" unicode="ĭ"/>
			<glyph d="M54 708H310V642H226V68H310V0H213Q160 -37 135 -68T110 -133Q110 -157 124 -169T163 -182Q194 -182 228 -165L246 -213Q205 -238 154 -238Q107 -238 76 -213T46 -144Q46 -104 71 -67T142 0H54V68H138V642H54Z" horiz-adv-x="364" unicode="Į"/>
			<glyph d="M130 737Q185 737 185 683Q185 660 172 645T130 631Q100 631 87 645T74 683Q74 737 130 737ZM87 509H172V0H152Q99 -37 74 -68T49 -133Q49 -157 63 -169T102 -182Q133 -182 167 -165L185 -213Q144 -238 93 -238Q46 -238 15 -213T-15 -144Q-15 -103 12 -65T87 4Z" horiz-adv-x="258" unicode="į"/>
			<glyph d="M54 708H310V642H226V68H310V0H54V68H138V642H54ZM183 914Q238 914 238 860Q238 837 225 822T183 808Q153 808 140 822T127 860Q127 914 183 914Z" horiz-adv-x="364" unicode="İ"/>
			<glyph d="M87 509H172V0H87Z" horiz-adv-x="258" unicode="ı"/>
			<glyph d="M54 708H310V642H226V68H310V0H54V68H138V642H54ZM612 708H701V202Q701 106 650 44T497 -17Q426 -17 370 17L403 82Q421 72 444 66T492 60Q555 60 583 98T612 201Z" horiz-adv-x="782" unicode="Ĳ"/>
			<glyph d="M130 737Q185 737 185 683Q185 660 172 645T130 631Q100 631 87 645T74 683Q74 737 130 737ZM388 737Q443 737 443 683Q443 660 430 645T388 631Q358 631 345 645T332 683Q332 737 388 737ZM87 509H172V0H87ZM344 509H429V-89Q429 -258 279 -258Q250 -258 223 -250L238 -187Q252 -190 268 -190Q310 -190 327 -165T344 -90Z" horiz-adv-x="517" unicode="ĳ"/>
			<glyph d="M248 708H337V202Q337 106 286 44T133 -17Q62 -17 6 17L39 82Q57 72 80 66T128 60Q191 60 219 98T248 201ZM259 913H326L451 814L419 775L293 860L168 774L136 814Z" horiz-adv-x="418" unicode="Ĵ"/>
			<glyph d="M86 509H171V-89Q171 -258 21 -258Q-8 -258 -35 -250L-20 -187Q-7 -190 10 -190Q52 -190 69 -165T86 -90ZM95 736H163L289 613L255 578L129 680L3 576L-31 613Z" horiz-adv-x="258" unicode="ĵ"/>
			<glyph d="M90 708H179V384L489 708H593L282 384L618 0H510L226 325L179 276V0H90ZM335 -63Q386 -63 386 -111Q386 -144 369 -181T314 -267L277 -249Q311 -196 314 -149Q285 -142 285 -108Q285 -63 335 -63Z" horiz-adv-x="619" unicode="Ķ"/>
			<glyph d="M87 708H172V294L403 509H505L280 299L527 0H421L221 244L172 198V0H87ZM298 -63Q349 -63 349 -111Q349 -144 332 -181T277 -267L240 -249Q274 -196 277 -149Q248 -142 248 -108Q248 -63 298 -63Z" horiz-adv-x="529" unicode="ķ"/>
			<glyph d="M87 509H172V275L403 509H505L278 284L527 0H422L221 228L172 179V0H87Z" horiz-adv-x="529" unicode="ĸ"/>
			<glyph d="M90 708H179V75H503V0H90ZM212 931L248 867L69 773L40 819Z" horiz-adv-x="506" unicode="Ĺ"/>
			<glyph d="M87 708H172V0H87ZM207 931L243 867L64 773L35 819Z" horiz-adv-x="258" unicode="ĺ"/>
			<glyph d="M90 708H179V75H503V0H90ZM297 -63Q348 -63 348 -111Q348 -144 331 -181T276 -267L239 -249Q273 -196 276 -149Q247 -142 247 -108Q247 -63 297 -63Z" horiz-adv-x="506" unicode="Ļ"/>
			<glyph d="M87 708H172V0H87ZM129 -63Q180 -63 180 -111Q180 -144 163 -181T108 -267L71 -249Q105 -196 108 -149Q79 -142 79 -108Q79 -63 129 -63Z" horiz-adv-x="258" unicode="ļ"/>
			<glyph d="M90 708H179V75H503V0H90ZM287 725L358 705L310 544L258 557Z" horiz-adv-x="506" unicode="Ľ"/>
			<glyph d="M87 708H172V0H87ZM249 725L320 705L272 544L220 557Z" horiz-adv-x="301" unicode="ľ"/>
			<glyph d="M90 708H179V75H503V0H90ZM385 442Q440 442 440 388Q440 365 427 350T385 336Q355 336 342 350T329 388Q329 442 385 442Z" horiz-adv-x="506" unicode="Ŀ"/>
			<glyph d="M87 708H172V0H87ZM272 395Q327 395 327 341Q327 318 314 303T272 289Q242 289 229 303T216 341Q216 395 272 395Z" horiz-adv-x="285" unicode="ŀ"/>
			<glyph d="M90 708H179V377L375 481L403 427L179 308V75H503V0H90V261L89 260L48 238L19 292L90 330Z" horiz-adv-x="506" unicode="Ł"/>
			<glyph d="M92 708H177V387L237 419L263 364L177 318V0H92V272L32 240L6 294L92 341Z" horiz-adv-x="269" unicode="ł"/>
			<glyph d="M90 708H192L604 120H606L604 708H687V0H585L173 588H171L173 0H90ZM465 931L501 867L322 773L293 819Z" horiz-adv-x="776" unicode="Ń"/>
			<glyph d="M346 523Q442 523 488 467T535 329V0H450V312Q450 373 420 412T323 452Q254 452 212 406T171 292V0H86V395Q86 451 79 509H160Q165 482 167 437H169Q194 476 239 499T346 523ZM387 753L429 691L259 576L226 622Z" horiz-adv-x="614" unicode="ń"/>
			<glyph d="M90 708H192L604 120H606L604 708H687V0H585L173 588H171L173 0H90ZM389 -63Q440 -63 440 -111Q440 -144 423 -181T368 -267L331 -249Q365 -196 368 -149Q339 -142 339 -108Q339 -63 389 -63Z" horiz-adv-x="776" unicode="Ņ"/>
			<glyph d="M346 523Q442 523 488 467T535 329V0H450V312Q450 373 420 412T323 452Q254 452 212 406T171 292V0H86V395Q86 451 79 509H160Q165 482 167 437H169Q194 476 239 499T346 523ZM309 -63Q360 -63 360 -111Q360 -144 343 -181T288 -267L251 -249Q285 -196 288 -149Q259 -142 259 -108Q259 -63 309 -63Z" horiz-adv-x="614" unicode="ņ"/>
			<glyph d="M90 708H192L604 120H606L604 708H687V0H585L173 588H171L173 0H90ZM263 920L388 835L514 919L546 880L421 781H354L231 880Z" horiz-adv-x="776" unicode="Ň"/>
			<glyph d="M346 523Q442 523 488 467T535 329V0H450V312Q450 373 420 412T323 452Q254 452 212 406T171 292V0H86V395Q86 451 79 509H160Q165 482 167 437H169Q194 476 239 499T346 523ZM191 742L317 638L443 741L478 704L351 582H283L157 704Z" horiz-adv-x="614" unicode="ň"/>
			<glyph d="M346 523Q442 523 488 467T535 329V0H450V312Q450 373 420 412T323 452Q254 452 212 406T171 292V0H86V395Q86 451 79 509H160Q165 482 167 437H169Q194 476 239 499T346 523ZM92 766Q143 766 143 719Q143 686 127 649T72 563L35 581Q67 632 72 681Q42 688 42 721Q42 766 92 766Z" horiz-adv-x="614" unicode="ŉ"/>
			<glyph d="M90 708H192L604 120H606L604 708H687V0H686V-89Q686 -258 536 -258Q507 -258 480 -250L495 -187Q507 -190 525 -190Q567 -190 584 -165T601 -90V0H585L173 588H171L173 0H90Z" horiz-adv-x="776" unicode="Ŋ"/>
			<glyph d="M346 523Q442 523 488 467T535 329V-89Q535 -258 385 -258Q356 -258 329 -250L344 -187Q356 -190 374 -190Q416 -190 433 -165T450 -90V312Q450 373 420 412T323 452Q254 452 212 406T171 292V0H86V395Q86 451 79 509H160Q165 482 167 437H169Q194 476 239 499T346 523Z" horiz-adv-x="614" unicode="ŋ"/>
			<glyph d="M404 725Q515 725 595 678T717 548T759 354Q759 244 717 160T595 29T404 -17Q293 -17 213 29T91 160T49 354Q49 464 91 548T213 678T404 725ZM405 648Q276 648 208 568T140 354Q140 220 208 140T405 60Q533 60 601 140T669 354Q669 488 601 568T405 648ZM270 863H545V804H270Z" horiz-adv-x="809" unicode="Ō"/>
			<glyph d="M305 523Q386 523 443 489T531 396T561 256Q561 177 530 115T442 20T305 -14Q226 -14 168 20T80 116T50 256Q50 378 117 450T305 523ZM305 455Q220 455 179 401T138 256Q138 165 179 109T305 54Q390 54 432 109T474 256Q474 347 432 401T305 455ZM168 670H443V611H168Z" horiz-adv-x="611" unicode="ō"/>
			<glyph d="M404 725Q515 725 595 678T717 548T759 354Q759 244 717 160T595 29T404 -17Q293 -17 213 29T91 160T49 354Q49 464 91 548T213 678T404 725ZM405 648Q276 648 208 568T140 354Q140 220 208 140T405 60Q533 60 601 140T669 354Q669 488 601 568T405 648ZM311 901Q320 869 344 851T404 833Q440 833 464 850T498 901L548 895Q539 838 501 805T404 773Q344 773 306 805T260 895Z" horiz-adv-x="809" unicode="Ŏ"/>
			<glyph d="M305 523Q386 523 443 489T531 396T561 256Q561 177 530 115T442 20T305 -14Q226 -14 168 20T80 116T50 256Q50 378 117 450T305 523ZM305 455Q220 455 179 401T138 256Q138 165 179 109T305 54Q390 54 432 109T474 256Q474 347 432 401T305 455ZM210 723Q230 640 306 640Q382 640 402 723L454 717Q444 649 406 614T306 579Q243 579 205 614T158 717Z" horiz-adv-x="611" unicode="ŏ"/>
			<glyph d="M404 725Q515 725 595 678T717 548T759 354Q759 244 717 160T595 29T404 -17Q293 -17 213 29T91 160T49 354Q49 464 91 548T213 678T404 725ZM405 648Q276 648 208 568T140 354Q140 220 208 140T405 60Q533 60 601 140T669 354Q669 488 601 568T405 648ZM398 953L454 922L352 767L311 788ZM532 945L585 909L475 761L435 786Z" horiz-adv-x="809" unicode="Ő"/>
			<glyph d="M305 523Q386 523 443 489T531 396T561 256Q561 177 530 115T442 20T305 -14Q226 -14 168 20T80 116T50 256Q50 378 117 450T305 523ZM305 455Q220 455 179 401T138 256Q138 165 179 109T305 54Q390 54 432 109T474 256Q474 347 432 401T305 455ZM297 760L353 729L251 574L210 595ZM431 752L484 716L374 568L334 593Z" horiz-adv-x="611" unicode="ő"/>
			<glyph d="M393 725Q451 725 497 708H975V637H604Q650 597 678 536T714 399H931V331H715Q712 248 681 182T597 73H992V0H495Q450 -17 393 -17Q287 -17 209 29T90 160T49 354Q49 463 90 547T209 678T393 725ZM393 648Q272 648 206 567T140 354Q140 221 206 140T393 60Q506 60 566 140T626 354Q626 488 566 568T393 648Z" horiz-adv-x="1019" unicode="Œ"/>
			<glyph d="M297 523Q439 523 499 402Q560 523 691 523Q795 523 851 450T908 260Q908 248 906 224H544Q549 147 589 100T702 54Q743 54 778 66T851 104L888 49Q799 -14 698 -14Q561 -14 500 108Q438 -14 297 -14Q221 -14 165 20T80 116T50 256Q50 336 79 396T164 489T297 523ZM690 458Q623 458 584 410T543 290H824Q823 365 787 411T690 458ZM296 455Q217 455 177 400T137 256Q137 166 177 110T296 54Q376 54 416 110T457 256Q457 346 416 400T296 455Z" horiz-adv-x="956" unicode="œ"/>
			<glyph d="M90 708H323Q392 708 448 682T538 605T571 480Q571 396 527 345T412 273L590 0H488L327 259H179V0H90ZM178 637V327H320Q389 327 434 366T480 480Q480 558 433 597T317 637ZM382 931L418 867L239 773L210 819Z" horiz-adv-x="629" unicode="Ŕ"/>
			<glyph d="M329 523Q337 523 358 520L353 447Q343 449 322 449Q249 449 210 400T171 273V0H86V395Q86 451 79 509H160Q165 475 167 428H169Q213 523 329 523ZM284 753L326 691L156 576L123 622Z" horiz-adv-x="364" unicode="ŕ"/>
			<glyph d="M90 708H323Q392 708 448 682T538 605T571 480Q571 396 527 345T412 273L590 0H488L327 259H179V0H90ZM178 637V327H320Q389 327 434 366T480 480Q480 558 433 597T317 637ZM325 -63Q376 -63 376 -111Q376 -144 359 -181T304 -267L267 -249Q301 -196 304 -149Q275 -142 275 -108Q275 -63 325 -63Z" horiz-adv-x="629" unicode="Ŗ"/>
			<glyph d="M329 523Q337 523 358 520L353 447Q343 449 322 449Q249 449 210 400T171 273V0H86V395Q86 451 79 509H160Q165 475 167 428H169Q213 523 329 523ZM128 -63Q179 -63 179 -111Q179 -144 162 -181T107 -267L70 -249Q104 -196 107 -149Q78 -142 78 -108Q78 -63 128 -63Z" horiz-adv-x="364" unicode="ŗ"/>
			<glyph d="M90 708H323Q392 708 448 682T538 605T571 480Q571 396 527 345T412 273L590 0H488L327 259H179V0H90ZM178 637V327H320Q389 327 434 366T480 480Q480 558 433 597T317 637ZM179 920L304 835L430 919L462 880L337 781H270L147 880Z" horiz-adv-x="629" unicode="Ř"/>
			<glyph d="M329 523Q337 523 358 520L353 447Q343 449 322 449Q249 449 210 400T171 273V0H86V395Q86 451 79 509H160Q165 475 167 428H169Q213 523 329 523ZM88 742L214 638L340 741L375 704L248 582H180L54 704Z" horiz-adv-x="364" unicode="ř"/>
			<glyph d="M291 724Q356 724 408 707T506 657L466 599Q424 626 382 639T291 652Q224 652 183 623T142 541Q142 487 179 459T302 410Q409 382 464 334T519 192Q519 124 485 77T395 6T267 -17Q129 -17 30 66L75 122Q118 88 164 73T268 58Q340 58 384 91T429 189Q429 234 408 262T350 307T252 340Q153 366 104 410T55 535Q55 624 121 674T291 724ZM375 931L411 867L232 773L203 819Z" horiz-adv-x="559" unicode="Ś"/>
			<glyph d="M225 523Q323 523 394 469L356 416Q297 457 228 457Q180 457 153 438T126 386Q126 361 137 345T174 318T250 295Q328 276 365 239T403 144Q403 69 347 27T209 -14Q99 -14 25 45L64 98Q98 75 131 64T206 53Q257 53 286 75T316 138Q316 165 305 181T268 209T192 233Q113 253 77 287T41 381Q41 446 91 484T225 523ZM297 753L339 691L169 576L136 622Z" horiz-adv-x="442" unicode="ś"/>
			<glyph d="M291 724Q356 724 408 707T506 657L466 599Q424 626 382 639T291 652Q224 652 183 623T142 541Q142 487 179 459T302 410Q409 382 464 334T519 192Q519 124 485 77T395 6T267 -17Q129 -17 30 66L75 122Q118 88 164 73T268 58Q340 58 384 91T429 189Q429 234 408 262T350 307T252 340Q153 366 104 410T55 535Q55 624 121 674T291 724ZM264 913H331L456 814L424 775L298 860L173 774L141 814Z" horiz-adv-x="559" unicode="Ŝ"/>
			<glyph d="M225 523Q323 523 394 469L356 416Q297 457 228 457Q180 457 153 438T126 386Q126 361 137 345T174 318T250 295Q328 276 365 239T403 144Q403 69 347 27T209 -14Q99 -14 25 45L64 98Q98 75 131 64T206 53Q257 53 286 75T316 138Q316 165 305 181T268 209T192 233Q113 253 77 287T41 381Q41 446 91 484T225 523ZM192 736H260L386 613L352 578L226 680L100 576L66 613Z" horiz-adv-x="442" unicode="ŝ"/>
			<glyph d="M291 724Q356 724 408 707T506 657L466 599Q424 626 382 639T291 652Q224 652 183 623T142 541Q142 487 179 459T302 410Q409 382 464 334T519 192Q519 103 462 50T313 -14L295 -64Q305 -62 323 -62Q359 -62 382 -83T406 -142Q406 -191 371 -215T285 -240Q225 -240 182 -216L203 -170Q239 -188 282 -188Q311 -188 326 -176T342 -143Q342 -105 298 -105Q279 -105 259 -110H219L255 -17Q122 -13 30 66L75 122Q118 88 164 73T268 58Q340 58 384 91T429 189Q429 234 408 262T350 307T252 340Q153 366 104 410T55 535Q55 624 121 674T291 724Z" horiz-adv-x="559" unicode="Ş"/>
			<glyph d="M225 523Q323 523 394 469L356 416Q297 457 228 457Q180 457 153 438T126 386Q126 361 137 345T174 318T250 295Q328 276 365 239T403 144Q403 77 357 36T242 -12L223 -64Q233 -62 251 -62Q287 -62 310 -83T334 -142Q334 -191 299 -215T213 -240Q153 -240 110 -216L131 -170Q167 -188 210 -188Q239 -188 254 -176T270 -143Q270 -105 226 -105Q207 -105 187 -110H147L185 -13Q91 -7 25 45L64 98Q98 75 131 64T206 53Q257 53 286 75T316 138Q316 165 305 181T268 209T192 233Q113 253 77 287T41 381Q41 446 91 484T225 523Z" horiz-adv-x="442" unicode="ş"/>
			<glyph d="M291 724Q356 724 408 707T506 657L466 599Q424 626 382 639T291 652Q224 652 183 623T142 541Q142 487 179 459T302 410Q409 382 464 334T519 192Q519 124 485 77T395 6T267 -17Q129 -17 30 66L75 122Q118 88 164 73T268 58Q340 58 384 91T429 189Q429 234 408 262T350 307T252 340Q153 366 104 410T55 535Q55 624 121 674T291 724ZM172 920L297 835L423 919L455 880L330 781H263L140 880Z" horiz-adv-x="559" unicode="Š"/>
			<glyph d="M225 523Q323 523 394 469L356 416Q297 457 228 457Q180 457 153 438T126 386Q126 361 137 345T174 318T250 295Q328 276 365 239T403 144Q403 69 347 27T209 -14Q99 -14 25 45L64 98Q98 75 131 64T206 53Q257 53 286 75T316 138Q316 165 305 181T268 209T192 233Q113 253 77 287T41 381Q41 446 91 484T225 523ZM101 742L227 638L353 741L388 704L261 582H193L67 704Z" horiz-adv-x="442" unicode="š"/>
			<glyph d="M4 708H540V633H317V0H303L280 -64Q290 -62 308 -62Q344 -62 367 -83T391 -142Q391 -191 356 -215T270 -240Q210 -240 167 -216L188 -170Q224 -188 267 -188Q296 -188 311 -176T327 -143Q327 -105 283 -105Q264 -105 244 -110H204L247 0H228V633H4Z" horiz-adv-x="545" unicode="Ţ"/>
			<glyph d="M190 664V509H325V444H190V137Q190 55 265 55Q292 55 315 62L328 -1Q294 -14 251 -14L233 -64Q243 -62 261 -62Q297 -62 320 -83T344 -142Q344 -191 309 -215T223 -240Q163 -240 120 -216L141 -170Q177 -188 220 -188Q249 -188 264 -176T280 -143Q280 -105 236 -105Q217 -105 197 -110H157L197 -7Q153 5 129 40T105 130V444H15V499L104 509V634Z" horiz-adv-x="357" unicode="ţ"/>
			<glyph d="M4 708H540V633H317V0H228V633H4ZM147 920L272 835L398 919L430 880L305 781H238L115 880Z" horiz-adv-x="545" unicode="Ť"/>
			<glyph d="M190 664V509H325V444H190V137Q190 55 265 55Q292 55 315 62L328 -1Q294 -14 249 -14Q182 -14 143 23T105 130V444H15V499L104 509V634ZM290 725L361 705L313 544L261 557Z" horiz-adv-x="357" unicode="ť"/>
			<glyph d="M4 708H540V633H317V383H438V324H317V0H228V324H108V383H228V633H4Z" horiz-adv-x="545" unicode="Ŧ"/>
			<glyph d="M190 664V509H325V444H190V330H295V268H190V137Q190 55 265 55Q292 55 315 62L328 -1Q294 -14 249 -14Q182 -14 143 23T105 130V268H15V330H105V444H15V499L104 509V634Z" horiz-adv-x="357" unicode="ŧ"/>
			<glyph d="M81 708H169V261Q169 162 216 111T367 60Q471 60 518 111T565 261V708H654V254Q654 124 580 53T367 -17Q227 -17 154 53T81 254ZM312 888Q329 888 344 881T377 861Q380 859 389 853T407 844T422 841Q439 841 452 851T480 886L524 867Q507 825 482 804T423 784Q406 784 391 791T359 810Q344 820 334 825T313 830Q296 830 282 819T255 786L211 804Q248 888 312 888Z" horiz-adv-x="735" unicode="Ũ"/>
			<glyph d="M79 509H165V209Q165 139 195 96T290 54Q360 54 402 106T444 237V509H529V113Q529 58 536 0H455Q450 32 448 81H446Q391 -14 270 -14Q175 -14 127 44T79 197ZM254 695Q271 695 286 688T319 668Q322 666 331 660T349 651T364 648Q381 648 394 658T422 693L466 674Q449 632 424 611T365 591Q348 591 333 598T301 617Q286 627 276 632T255 637Q238 637 224 626T197 593L153 611Q190 695 254 695Z" horiz-adv-x="615" unicode="ũ"/>
			<glyph d="M81 708H169V261Q169 162 216 111T367 60Q471 60 518 111T565 261V708H654V254Q654 124 580 53T367 -17Q227 -17 154 53T81 254ZM233 863H508V804H233Z" horiz-adv-x="735" unicode="Ū"/>
			<glyph d="M79 509H165V209Q165 139 195 96T290 54Q360 54 402 106T444 237V509H529V113Q529 58 536 0H455Q450 32 448 81H446Q391 -14 270 -14Q175 -14 127 44T79 197ZM172 670H447V611H172Z" horiz-adv-x="615" unicode="ū"/>
			<glyph d="M81 708H169V261Q169 162 216 111T367 60Q471 60 518 111T565 261V708H654V254Q654 124 580 53T367 -17Q227 -17 154 53T81 254ZM275 901Q284 869 308 851T368 833Q404 833 428 850T462 901L512 895Q503 838 465 805T368 773Q308 773 270 805T224 895Z" horiz-adv-x="735" unicode="Ŭ"/>
			<glyph d="M79 509H165V209Q165 139 195 96T290 54Q360 54 402 106T444 237V509H529V113Q529 58 536 0H455Q450 32 448 81H446Q391 -14 270 -14Q175 -14 127 44T79 197ZM213 723Q233 640 309 640Q385 640 405 723L457 717Q447 649 409 614T309 579Q246 579 208 614T161 717Z" horiz-adv-x="615" unicode="ŭ"/>
			<glyph d="M81 708H169V261Q169 162 216 111T367 60Q471 60 518 111T565 261V708H654V254Q654 124 580 53T367 -17Q227 -17 154 53T81 254ZM369 976Q419 976 449 947T480 872Q480 827 450 798T369 769Q318 769 288 798T258 872Q258 919 288 947T369 976ZM369 929Q343 929 329 914T315 872Q315 845 329 830T369 816Q393 816 407 830T422 872Q422 900 408 914T369 929Z" horiz-adv-x="735" unicode="Ů"/>
			<glyph d="M79 509H165V209Q165 139 195 96T290 54Q360 54 402 106T444 237V509H529V113Q529 58 536 0H455Q450 32 448 81H446Q391 -14 270 -14Q175 -14 127 44T79 197ZM310 783Q360 783 390 754T421 679Q421 634 391 605T310 576Q259 576 229 605T199 679Q199 726 229 754T310 783ZM310 736Q284 736 270 721T256 679Q256 652 270 637T310 623Q334 623 348 637T363 679Q363 707 349 721T310 736Z" horiz-adv-x="615" unicode="ů"/>
			<glyph d="M81 708H169V261Q169 162 216 111T367 60Q471 60 518 111T565 261V708H654V254Q654 124 580 53T367 -17Q227 -17 154 53T81 254ZM362 953L418 922L316 767L275 788ZM496 945L549 909L439 761L399 786Z" horiz-adv-x="735" unicode="Ű"/>
			<glyph d="M79 509H165V209Q165 139 195 96T290 54Q360 54 402 106T444 237V509H529V113Q529 58 536 0H455Q450 32 448 81H446Q391 -14 270 -14Q175 -14 127 44T79 197ZM300 760L356 729L254 574L213 595ZM434 752L487 716L377 568L337 593Z" horiz-adv-x="615" unicode="ű"/>
			<glyph d="M81 708H169V261Q169 162 216 111T367 60Q471 60 518 111T565 261V708H654V254Q654 160 614 96T499 4Q396 -71 396 -133Q396 -157 410 -169T449 -182Q480 -182 514 -165L532 -213Q491 -238 440 -238Q393 -238 362 -213T332 -144Q332 -73 412 -15Q384 -17 367 -17Q227 -17 154 53T81 254Z" horiz-adv-x="735" unicode="Ų"/>
			<glyph d="M79 509H165V209Q165 139 195 96T290 54Q360 54 402 106T444 237V509H529V113Q529 58 536 0H521Q468 -37 443 -68T418 -133Q418 -157 432 -169T471 -182Q502 -182 536 -165L554 -213Q513 -238 462 -238Q415 -238 384 -213T354 -144Q354 -103 380 -65T455 3Q450 34 448 81H446Q391 -14 270 -14Q175 -14 127 44T79 197Z" horiz-adv-x="615" unicode="ų"/>
			<glyph d="M14 708H106L270 115H272L442 708H537L709 115H711L878 708H965L758 0H665L489 596H486L313 0H220ZM456 913H523L648 814L616 775L490 860L365 774L333 814Z" horiz-adv-x="980" unicode="Ŵ"/>
			<glyph d="M17 509H106L210 92H212L341 509H433L563 92H565L670 509H756L613 0H518L386 418H384L254 0H160ZM354 736H422L548 613L514 578L388 680L262 576L228 613Z" horiz-adv-x="774" unicode="ŵ"/>
			<glyph d="M-11 708H90L283 377H285L476 708H573L324 304V0H236V306ZM248 913H315L440 814L408 775L282 860L157 774L125 814Z" horiz-adv-x="563" unicode="Ŷ"/>
			<glyph d="M4 509H96L244 90H246L382 509H469L245 -124Q220 -193 183 -225T85 -257Q46 -257 14 -245L31 -182Q53 -188 74 -188Q111 -188 131 -167T167 -104L202 -3ZM203 736H271L397 613L363 578L237 680L111 576L77 613Z" horiz-adv-x="474" unicode="ŷ"/>
			<glyph d="M-11 708H90L283 377H285L476 708H573L324 304V0H236V306ZM193 903Q243 903 243 852Q243 802 193 802Q166 802 154 816T142 852Q142 875 154 889T193 903ZM378 903Q404 903 416 889T428 852Q428 830 416 816T378 802Q327 802 327 852Q327 903 378 903Z" horiz-adv-x="563" unicode="Ÿ"/>
			<glyph d="M48 708H534V635L140 74H544V0H36V77L429 637H48ZM373 931L409 867L230 773L201 819Z" horiz-adv-x="589" unicode="Ź"/>
			<glyph d="M46 509H402V444L134 67H414V0H33V69L300 444H46ZM298 753L340 691L170 576L137 622Z" horiz-adv-x="447" unicode="ź"/>
			<glyph d="M48 708H534V635L140 74H544V0H36V77L429 637H48ZM296 914Q351 914 351 860Q351 837 338 822T296 808Q266 808 253 822T240 860Q240 914 296 914Z" horiz-adv-x="589" unicode="Ż"/>
			<glyph d="M46 509H402V444L134 67H414V0H33V69L300 444H46ZM228 737Q283 737 283 683Q283 660 270 645T228 631Q198 631 185 645T172 683Q172 737 228 737Z" horiz-adv-x="447" unicode="ż"/>
			<glyph d="M48 708H534V635L140 74H544V0H36V77L429 637H48ZM170 920L295 835L421 919L453 880L328 781H261L138 880Z" horiz-adv-x="589" unicode="Ž"/>
			<glyph d="M46 509H402V444L134 67H414V0H33V69L300 444H46ZM102 742L228 638L354 741L389 704L262 582H194L68 704Z" horiz-adv-x="447" unicode="ž"/>
			<glyph d="M413 722Q462 722 502 709L483 648Q451 655 420 654Q327 653 327 551V509H455V446H327V-89Q327 -258 177 -258Q148 -258 121 -250L136 -187Q148 -190 166 -190Q208 -190 225 -165T242 -90V446H153V509H242V553Q242 634 285 677T413 722Z" unicode="ƒ"/>
			<glyph d="M291 724Q356 724 408 707T506 657L466 599Q424 626 382 639T291 652Q224 652 183 623T142 541Q142 487 179 459T302 410Q409 382 464 334T519 192Q519 124 485 77T395 6T267 -17Q129 -17 30 66L75 122Q118 88 164 73T268 58Q340 58 384 91T429 189Q429 234 408 262T350 307T252 340Q153 366 104 410T55 535Q55 624 121 674T291 724ZM288 -63Q339 -63 339 -111Q339 -144 322 -181T267 -267L230 -249Q264 -196 267 -149Q238 -142 238 -108Q238 -63 288 -63Z" horiz-adv-x="559" unicode="Ș"/>
			<glyph d="M225 523Q323 523 394 469L356 416Q297 457 228 457Q180 457 153 438T126 386Q126 361 137 345T174 318T250 295Q328 276 365 239T403 144Q403 69 347 27T209 -14Q99 -14 25 45L64 98Q98 75 131 64T206 53Q257 53 286 75T316 138Q316 165 305 181T268 209T192 233Q113 253 77 287T41 381Q41 446 91 484T225 523ZM217 -63Q268 -63 268 -111Q268 -144 251 -181T196 -267L159 -249Q193 -196 196 -149Q167 -142 167 -108Q167 -63 217 -63Z" horiz-adv-x="442" unicode="ș"/>
			<glyph d="M4 708H540V633H317V0H228V633H4ZM274 -63Q325 -63 325 -111Q325 -144 308 -181T253 -267L216 -249Q250 -196 253 -149Q224 -142 224 -108Q224 -63 274 -63Z" horiz-adv-x="545" unicode="Ț"/>
			<glyph d="M190 664V509H325V444H190V137Q190 55 265 55Q292 55 315 62L328 -1Q294 -14 249 -14Q182 -14 143 23T105 130V444H15V499L104 509V634ZM227 -63Q278 -63 278 -111Q278 -144 261 -181T206 -267L169 -249Q203 -196 206 -149Q177 -142 177 -108Q177 -63 227 -63Z" horiz-adv-x="357" unicode="ț"/>
			<glyph d="M86 509H171V-89Q171 -258 21 -258Q-8 -258 -35 -250L-20 -187Q-7 -190 10 -190Q52 -190 69 -165T86 -90Z" horiz-adv-x="258" unicode="ȷ"/>
			<glyph d="M156 736H224L350 613L316 578L190 680L64 576L30 613Z" horiz-adv-x="380" unicode="ˆ"/>
			<glyph d="M64 742L190 638L316 741L351 704L224 582H156L30 704Z" horiz-adv-x="381" unicode="ˇ"/>
			<glyph d="M30 670H305V611H30Z" horiz-adv-x="335" unicode="ˉ"/>
			<glyph d="M82 723Q102 640 178 640Q254 640 274 723L326 717Q316 649 278 614T178 579Q115 579 77 614T30 717Z" horiz-adv-x="356" unicode="˘"/>
			<glyph d="M86 737Q141 737 141 683Q141 660 128 645T86 631Q56 631 43 645T30 683Q30 737 86 737Z" horiz-adv-x="171" unicode="˙"/>
			<glyph d="M141 783Q191 783 221 754T252 679Q252 634 222 605T141 576Q90 576 60 605T30 679Q30 726 60 754T141 783ZM141 736Q115 736 101 721T87 679Q87 652 101 637T141 623Q165 623 179 637T194 679Q194 707 180 721T141 736Z" horiz-adv-x="281" unicode="˚"/>
			<glyph d="M139 8L197 0Q144 -37 119 -68T94 -133Q94 -157 108 -169T147 -182Q178 -182 212 -165L230 -213Q189 -238 138 -238Q91 -238 60 -213T30 -144Q30 -101 59 -62T139 8Z" horiz-adv-x="260" unicode="˛"/>
			<glyph d="M131 695Q148 695 163 688T196 668Q199 666 208 660T226 651T241 648Q258 648 271 658T299 693L343 674Q326 632 301 611T242 591Q225 591 210 598T178 617Q163 627 153 632T132 637Q115 637 101 626T74 593L30 611Q67 695 131 695Z" horiz-adv-x="373" unicode="˜"/>
			<glyph d="M117 760L173 729L71 574L30 595ZM251 752L304 716L194 568L154 593Z" horiz-adv-x="334" unicode="˝"/>
			<glyph d="M-71 819L-34 801Q-68 748 -71 701Q-42 694 -42 660Q-42 615 -92 615Q-143 615 -143 663Q-143 696 -126 733T-71 819Z" horiz-adv-x="0" unicode="̒"/>
			<glyph d="M-80 -63Q-29 -63 -29 -111Q-29 -144 -45 -181T-101 -267L-138 -249Q-104 -196 -101 -149Q-130 -142 -130 -108Q-130 -63 -80 -63Z" horiz-adv-x="0" unicode="̦"/>
			<glyph d="M284 708H377L655 0H4ZM329 624L123 70H533Z" horiz-adv-x="660" unicode="Δ"/>
			<glyph d="M394 725Q500 725 578 678T697 549T739 358Q739 259 700 187T593 74H740V0H465V73L464 74Q552 101 600 175T649 354Q649 487 582 567T394 648Q272 648 206 568T140 354Q140 249 188 175T324 74V0H49V74H196Q128 116 88 187T49 358Q49 466 90 549T210 678T394 725Z" horiz-adv-x="789" unicode="Ω"/>
			<glyph d="M80 509H166V211Q166 140 196 97T291 55Q361 55 403 107T445 239V509H530V113Q530 58 537 0H456Q451 32 449 81H447Q421 37 379 11T285 -14Q202 -14 163 50H161V-135Q161 -195 152 -244H73Q80 -186 80 -131Z" unicode="μ"/>
			<glyph d="M562 523L575 457Q533 442 481 441V130Q481 68 499 0H416Q406 31 400 61T395 130V441L179 440V0H94V440H6V509H464Q515 509 562 523Z" horiz-adv-x="585" unicode="π"/>
			<glyph d="M14 708H106L270 115H272L442 708H537L709 115H711L878 708H965L758 0H665L489 596H486L313 0H220ZM413 931L584 819L556 773L376 867Z" horiz-adv-x="980" unicode="Ẁ"/>
			<glyph d="M17 509H106L210 92H212L341 509H433L563 92H565L670 509H756L613 0H518L386 418H384L254 0H160ZM318 753L479 622L445 576L276 691Z" horiz-adv-x="774" unicode="ẁ"/>
			<glyph d="M14 708H106L270 115H272L442 708H537L709 115H711L878 708H965L758 0H665L489 596H486L313 0H220ZM568 931L604 867L425 773L396 819Z" horiz-adv-x="980" unicode="Ẃ"/>
			<glyph d="M17 509H106L210 92H212L341 509H433L563 92H565L670 509H756L613 0H518L386 418H384L254 0H160ZM458 753L500 691L330 576L297 622Z" horiz-adv-x="774" unicode="ẃ"/>
			<glyph d="M14 708H106L270 115H272L442 708H537L709 115H711L878 708H965L758 0H665L489 596H486L313 0H220ZM401 903Q451 903 451 852Q451 802 401 802Q374 802 362 816T350 852Q350 875 362 889T401 903ZM586 903Q612 903 624 889T636 852Q636 830 624 816T586 802Q535 802 535 852Q535 903 586 903Z" horiz-adv-x="980" unicode="Ẅ"/>
			<glyph d="M17 509H106L210 92H212L341 509H433L563 92H565L670 509H756L613 0H518L386 418H384L254 0H160ZM296 710Q346 710 346 659Q346 609 296 609Q269 609 257 623T245 659Q245 682 257 696T296 710ZM481 710Q507 710 519 696T531 659Q531 637 519 623T481 609Q430 609 430 659Q430 710 481 710Z" horiz-adv-x="774" unicode="ẅ"/>
			<glyph d="M321 724Q401 724 465 698T590 620L439 424Q545 404 604 351T663 201Q663 95 595 39T421 -17Q326 -17 252 23L284 86Q317 70 348 63T417 56Q490 56 531 92T572 202Q572 275 520 316T353 373V428L487 607Q408 652 327 652Q251 652 208 616T165 497V0H76L77 503Q77 614 144 669T321 724Z" horiz-adv-x="702" unicode="ẞ"/>
			<glyph d="M-11 708H90L283 377H285L476 708H573L324 304V0H236V306ZM204 931L375 819L347 773L167 867Z" horiz-adv-x="563" unicode="Ỳ"/>
			<glyph d="M4 509H96L244 90H246L382 509H469L245 -124Q220 -193 183 -225T85 -257Q46 -257 14 -245L31 -182Q53 -188 74 -188Q111 -188 131 -167T167 -104L202 -3ZM168 753L329 622L295 576L126 691Z" horiz-adv-x="474" unicode="ỳ"/>
			<glyph d="M105 325H505V256H105Z" unicode="–"/>
			<glyph d="M44 325H548V256H44Z" horiz-adv-x="591" unicode="—"/>
			<glyph d="M177 724L207 697Q171 658 155 628T138 564Q163 560 173 548T184 516Q184 496 170 482T133 469Q107 469 92 486T78 533Q78 585 99 628T177 724Z" horiz-adv-x="261" unicode="‘"/>
			<glyph d="M120 726Q146 726 160 709T175 662Q175 610 154 567T76 471L46 498Q82 537 97 566T115 631Q90 635 79 647T69 679Q69 699 82 712T120 726Z" horiz-adv-x="222" unicode="’"/>
			<glyph d="M128 95Q154 95 168 78T183 31Q183 -21 162 -64T84 -160L54 -133Q90 -94 105 -64T123 0Q98 4 87 16T77 48Q77 68 90 81T128 95Z" horiz-adv-x="261" unicode="‚"/>
			<glyph d="M342 724L372 697Q336 658 320 628T303 564Q328 560 338 548T349 516Q349 496 335 482T298 469Q272 469 257 486T243 533Q243 585 264 628T342 724ZM177 724L207 697Q171 658 155 628T138 564Q163 560 173 548T184 516Q184 496 170 482T133 469Q107 469 92 486T78 533Q78 585 99 628T177 724Z" horiz-adv-x="426" unicode="“"/>
			<glyph d="M293 725Q319 725 333 708T348 661Q348 609 327 566T249 470L219 497Q255 536 270 565T288 630Q263 634 252 646T242 678Q242 698 255 711T293 725ZM128 725Q154 725 168 708T183 661Q183 609 162 566T84 470L54 497Q90 536 105 565T123 630Q98 634 87 646T77 678Q77 698 90 711T128 725Z" horiz-adv-x="426" unicode="”"/>
			<glyph d="M128 95Q154 95 168 78T183 31Q183 -21 162 -64T84 -160L54 -133Q90 -94 105 -64T123 0Q98 4 87 16T77 48Q77 68 90 81T128 95ZM293 95Q319 95 333 78T348 31Q348 -21 327 -64T249 -160L219 -133Q255 -94 270 -64T288 0Q263 4 252 16T242 48Q242 68 255 81T293 95Z" horiz-adv-x="426" unicode="„"/>
			<glyph d="M244 708H329V540H500V471H329V0H244V471H73V540H244Z" horiz-adv-x="574" unicode="†"/>
			<glyph d="M244 708H329V540H500V471H329V318H500V249H329V0H244V249H73V318H244V471H73V540H244Z" horiz-adv-x="574" unicode="‡"/>
			<glyph d="M172 425Q266 425 266 331Q266 239 172 239Q78 239 78 331Q78 425 172 425Z" horiz-adv-x="344" unicode="•"/>
			<glyph d="M410 103Q465 103 465 47Q465 22 452 7T410 -8Q380 -8 367 7T354 47Q354 103 410 103ZM686 103Q741 103 741 47Q741 22 728 7T686 -8Q656 -8 643 7T630 47Q630 103 686 103ZM134 103Q189 103 189 47Q189 22 176 7T134 -8Q104 -8 91 7T78 47Q78 103 134 103Z" horiz-adv-x="819" unicode="…"/>
			<glyph d="M367 721Q431 721 479 692T553 616T579 510Q579 451 553 402T480 326T367 298Q301 298 252 326T178 402T153 510Q153 568 178 616T252 692T367 721ZM842 709H921L503 0H424ZM368 651Q304 651 270 610T237 510Q237 449 270 408T368 368Q431 368 463 408T496 510Q496 569 463 610T368 651ZM985 412Q1049 412 1097 383T1171 307T1197 201Q1197 142 1171 93T1098 17T985 -11Q919 -11 870 17T796 93T771 201Q771 259 796 307T870 383T985 412ZM1466 412Q1530 412 1578 383T1652 307T1678 201Q1678 142 1652 93T1579 17T1466 -11Q1400 -11 1351 17T1277 93T1252 201Q1252 259 1277 307T1351 383T1466 412ZM986 342Q922 342 888 301T855 201Q855 140 888 99T986 59Q1049 59 1081 99T1114 201Q1114 260 1081 301T986 342ZM1467 342Q1403 342 1369 301T1336 201Q1336 140 1369 99T1467 59Q1530 59 1562 99T1595 201Q1595 260 1562 301T1467 342Z" horiz-adv-x="1830" unicode="‰"/>
			<glyph d="M215 505L254 472L145 330L253 188L215 155L79 312V347Z" horiz-adv-x="334" unicode="‹"/>
			<glyph d="M118 505L254 347V312L119 155L80 188L188 330L79 472Z" horiz-adv-x="334" unicode="›"/>
			<glyph d="M287 709H366L-52 0H-131Z" horiz-adv-x="215" unicode="⁄"/>
			<glyph d="M270 721Q381 721 439 648T497 449Q497 322 439 250T270 178Q160 178 101 250T43 449Q43 576 101 648T270 721ZM271 651Q195 651 161 599T127 449Q127 352 161 300T271 248Q347 248 380 300T414 449Q414 547 380 599T271 651Z" horiz-adv-x="540" unicode="⁰"/>
			<glyph d="M234 708H321L149 378H326V515H406V378H482V309H406V191H327V309H57V371Z" horiz-adv-x="540" unicode="⁴"/>
			<glyph d="M114 708H441V639H193V498Q240 516 301 516Q378 516 425 472T472 356Q472 274 416 226T260 178Q197 178 152 196T69 252L115 300Q149 272 182 260T262 248Q320 248 353 276T387 354Q387 400 358 425T279 451Q246 451 220 445T169 427H114Z" horiz-adv-x="540" unicode="⁵"/>
			<glyph d="M306 721Q346 721 376 712T435 687L405 630Q363 655 308 655Q237 655 197 609T149 481Q179 506 215 518T301 531Q378 531 426 487T475 369Q475 284 422 231T274 178Q169 178 117 243T65 421Q65 559 128 640T306 721ZM284 469Q204 469 149 409Q150 327 179 286T275 246Q332 246 362 278T392 366Q392 416 363 442T284 469Z" horiz-adv-x="540" unicode="⁶"/>
			<glyph d="M80 708H461V643Q279 447 259 191H163Q183 323 231 433T360 638H80Z" horiz-adv-x="540" unicode="⁷"/>
			<glyph d="M271 721Q351 721 402 685T454 589Q454 551 431 520T361 463Q424 440 452 408T480 325Q480 283 454 249T380 197T268 178Q204 178 157 197T85 249T60 324Q60 374 89 407T177 466Q129 487 108 515T87 586Q87 646 139 683T271 721ZM271 660Q225 660 197 639T169 584Q169 554 190 534T259 497L295 485Q335 508 353 531T372 583Q372 619 344 639T271 660ZM243 442Q145 407 145 333Q145 289 178 266T270 243Q328 243 361 266T395 330Q395 366 370 385T282 428Z" horiz-adv-x="540" unicode="⁸"/>
			<glyph d="M269 721Q373 721 424 658T475 481Q475 338 386 259T130 181V249Q247 249 314 294T390 422Q361 396 325 383T240 370Q164 370 114 414T65 536Q65 589 89 631T159 697T269 721ZM269 654Q210 654 179 622T148 538Q148 487 178 460T260 433Q343 433 392 492Q391 576 363 615T269 654Z" horiz-adv-x="540" unicode="⁹"/>
			<glyph d="M236 631H304V517H420V453H304V338H236V453H120V517H236Z" horiz-adv-x="540" unicode="⁺"/>
			<glyph d="M120 517H420V453H120Z" horiz-adv-x="540" unicode="⁻"/>
			<glyph d="M120 600H420V537H120ZM120 444H420V381H120Z" horiz-adv-x="540" unicode="⁼"/>
			<glyph d="M317 803L367 771Q316 696 287 619T259 449Q259 356 287 280T367 128L317 96Q252 176 213 262T174 449Q174 551 212 637T317 803Z" horiz-adv-x="540" unicode="⁽"/>
			<glyph d="M224 803Q290 723 328 637T367 449Q367 348 328 262T224 96L174 128Q226 203 254 279T282 449Q282 543 253 620T174 771Z" horiz-adv-x="540" unicode="⁾"/>
			<glyph d="M270 400Q381 400 439 327T497 128Q497 1 439 -71T270 -143Q160 -143 101 -70T43 128Q43 255 101 327T270 400ZM271 330Q195 330 161 278T127 128Q127 31 161 -21T271 -73Q347 -73 380 -21T414 128Q414 226 380 278T271 330Z" horiz-adv-x="540" unicode="₀"/>
			<glyph d="M266 387H340V-61H453V-130H114V-62H258V302L119 236L87 295Z" horiz-adv-x="540" unicode="₁"/>
			<glyph d="M266 399Q324 399 365 378T427 323T448 247Q448 196 427 156T355 70T196 -61H464V-130H87V-66Q215 40 267 87T342 168T364 239Q364 281 336 306T259 331Q218 331 186 316T124 271L75 314Q115 357 158 378T266 399Z" horiz-adv-x="540" unicode="₂"/>
			<glyph d="M272 400Q357 400 404 361T452 261Q452 207 424 179T355 142V140Q403 135 436 105T469 17Q469 -54 414 -98T263 -143Q198 -143 153 -124T70 -69L114 -21Q149 -50 182 -62T263 -74Q318 -74 351 -49T384 21Q384 64 356 84T279 105H193V172H268Q316 172 342 191T369 251Q369 290 342 311T264 332Q224 332 192 320T128 285L86 332Q126 367 170 383T272 400Z" horiz-adv-x="540" unicode="₃"/>
			<glyph d="M234 387H321L149 57H326V194H406V57H482V-12H406V-130H327V-12H57V50Z" horiz-adv-x="540" unicode="₄"/>
			<glyph d="M114 387H441V318H193V177Q240 195 301 195Q378 195 425 151T472 35Q472 -47 416 -95T260 -143Q197 -143 152 -124T69 -69L115 -21Q149 -49 182 -61T262 -73Q320 -73 353 -45T387 33Q387 79 358 104T279 130Q246 130 220 124T169 106H114Z" horiz-adv-x="540" unicode="₅"/>
			<glyph d="M306 400Q346 400 376 391T435 366L405 309Q363 334 308 334Q237 334 197 288T149 160Q179 185 215 197T301 210Q378 210 426 166T475 48Q475 -37 422 -90T274 -143Q169 -143 117 -77T65 100Q65 238 128 319T306 400ZM284 148Q204 148 149 88Q150 6 179 -34T275 -75Q332 -75 362 -43T392 45Q392 95 363 121T284 148Z" horiz-adv-x="540" unicode="₆"/>
			<glyph d="M80 387H461V322Q279 126 259 -130H163Q183 2 231 112T360 317H80Z" horiz-adv-x="540" unicode="₇"/>
			<glyph d="M271 400Q351 400 402 364T454 268Q454 230 431 199T361 142Q424 119 452 87T480 4Q480 -38 454 -71T380 -124T268 -143Q204 -143 157 -124T85 -72T60 3Q60 53 89 86T177 145Q129 166 108 194T87 265Q87 325 139 362T271 400ZM271 339Q225 339 197 318T169 263Q169 233 190 213T259 176L295 164Q335 187 353 210T372 262Q372 298 344 318T271 339ZM243 121Q145 86 145 12Q145 -32 178 -55T270 -78Q328 -78 361 -54T395 9Q395 45 370 64T282 107Z" horiz-adv-x="540" unicode="₈"/>
			<glyph d="M269 400Q373 400 424 337T475 160Q475 17 386 -61T130 -140V-72Q247 -72 314 -26T390 101Q361 75 325 62T240 49Q164 49 114 93T65 215Q65 268 89 310T159 376T269 400ZM269 333Q210 333 179 301T148 217Q148 166 178 139T260 112Q343 112 392 171Q391 255 363 294T269 333Z" horiz-adv-x="540" unicode="₉"/>
			<glyph d="M236 290H304V176H420V112H304V-3H236V112H120V176H236Z" horiz-adv-x="540" unicode="₊"/>
			<glyph d="M120 176H420V112H120Z" horiz-adv-x="540" unicode="₋"/>
			<glyph d="M120 259H420V196H120ZM120 103H420V40H120Z" horiz-adv-x="540" unicode="₌"/>
			<glyph d="M317 482L367 450Q316 375 287 298T259 128Q259 35 287 -41T367 -193L317 -225Q252 -145 213 -59T174 128Q174 230 212 316T317 482Z" horiz-adv-x="540" unicode="₍"/>
			<glyph d="M224 482Q290 402 328 316T367 128Q367 27 328 -59T224 -225L174 -193Q226 -118 254 -41T282 128Q282 222 253 299T174 450Z" horiz-adv-x="540" unicode="₎"/>
			<glyph d="M383 727Q445 727 500 704T595 640L550 583Q516 616 473 633T385 651Q300 651 248 599T180 457H486V394H172Q171 382 171 356Q171 336 172 327H444V264H178Q193 167 244 114T384 62Q431 62 475 82T553 137L602 79Q561 35 504 9T381 -16Q259 -16 185 57T92 264H2V327H87Q86 336 86 356Q86 382 87 394H5V457H94Q116 583 190 655T383 727Z" unicode="€"/>
			<glyph d="M57 708H553V648H375Q431 616 453 562H553V502H466Q467 495 467 480Q467 396 423 345T308 273L486 0H384L223 259H57V327H216Q287 327 331 365T376 483Q376 496 375 502H57V562H360Q341 602 302 623T214 644H57Z" unicode="₹"/>
			<glyph d="M150 708H238V467L457 562L482 504L238 398V334L457 429L482 371L238 265V76Q332 76 385 95T461 153T483 252H564Q564 125 487 62T238 0H150V227L69 192L44 250L150 296V360L69 325L44 383L150 429Z" unicode="₺"/>
			<glyph d="M107 708H323Q431 708 497 655T563 498Q563 392 495 340T324 289H194V211H429V148H194V0H107V148H47V211H107V289H47V352H107ZM194 638V352H317Q387 352 430 387T474 497Q474 568 429 603T315 638Z" unicode="₽"/>
			<glyph d="M248 725Q308 725 341 690T374 600Q374 517 328 444T185 290V137Q185 55 260 55Q287 55 310 62L323 -1Q289 -14 244 -14Q177 -14 138 23T100 130V230L44 186L23 226Q84 271 100 285V567Q100 643 143 684T248 725ZM251 674Q220 674 202 651T185 581V358Q249 421 278 477T307 600Q307 636 292 655T251 674Z" horiz-adv-x="417" unicode="ℓ"/>
			<glyph d="M469 725Q588 725 674 677T804 545T848 354Q848 247 804 163T674 31T469 -17Q349 -17 263 31T133 163T89 354Q89 461 133 545T263 677T469 725ZM470 667Q365 667 294 626T189 515T155 354Q155 263 189 192T294 81T470 41Q575 41 645 81T749 192T784 354Q784 445 749 515T645 626T470 667ZM330 563H485Q561 563 605 529T650 425Q650 357 603 319T486 282H396V148H330ZM396 508V337H485Q530 337 556 358T583 425Q583 470 555 489T484 508Z" horiz-adv-x="938" unicode="℗"/>
			<glyph d="M218 718Q262 718 303 706T376 671L342 617Q288 653 222 653Q178 653 157 639T136 601Q136 582 144 570T176 550T246 531Q317 516 349 485T382 407Q382 342 332 306T202 271Q104 271 33 321L67 375Q98 355 127 346T196 337Q242 337 269 352T296 397Q296 418 287 430T257 450T191 469Q118 485 86 515T55 595Q55 653 97 685T218 718ZM448 708H568L687 386H689L810 708H931V283H850L853 619H852L719 283H654L523 619H522L524 283H448Z" horiz-adv-x="995" unicode="℠"/>
			<glyph d="M30 708H220V668H149V492H100V668H30ZM243 708H317L378 553H380L442 708H513V492H463L465 657H463L396 492H357L290 657H289L290 492H243Z" horiz-adv-x="572" unicode="™"/>
			<glyph d="M394 725Q500 725 578 678T697 549T739 358Q739 259 700 187T593 74H740V0H465V73L464 74Q552 101 600 175T649 354Q649 487 582 567T394 648Q272 648 206 568T140 354Q140 249 188 175T324 74V0H49V74H196Q128 116 88 187T49 358Q49 466 90 549T210 678T394 725Z" horiz-adv-x="789" unicode="Ω"/>
			<glyph d="M450 683Q588 683 673 631T795 500T832 330H215Q210 330 210 325V149Q210 129 217 121Q255 73 314 47T449 22Q525 22 584 50T698 130H765Q706 60 636 28T452 -3Q335 -3 248 42T115 164T70 332Q70 423 116 504T249 634T450 683ZM447 659Q387 659 327 635T219 562Q210 553 210 536V355Q210 350 215 350H687Q692 350 692 355V535Q692 548 682 560Q639 614 574 636T447 659Z" horiz-adv-x="902" unicode="℮"/>
			<glyph d="M191 725Q299 725 384 675T518 533T566 319Q566 167 500 76T304 -14Q180 -14 112 56T44 244Q44 322 74 377T160 462T288 492Q396 492 472 410Q454 525 377 593T183 659ZM294 424Q217 424 175 378T133 241Q133 155 176 107T303 59Q396 59 436 125T476 309V324Q438 373 395 398T294 424Z" unicode="∂"/>
			<glyph d="M284 708H377L655 0H4ZM329 624L123 70H533Z" horiz-adv-x="660" unicode="∆"/>
			<glyph d="M33 708H656V639H561V-120H477V639H212V-120H128V639H33Z" horiz-adv-x="689" unicode="∏"/>
			<glyph d="M61 708H547V637H164L375 316V286L145 -46H559V-120H51V-45L285 300L61 635Z" unicode="∑"/>
			<glyph d="M105 325H505V256H105Z" unicode="−"/>
			<glyph d="M287 709H366L-52 0H-131Z" horiz-adv-x="215" unicode="∕"/>
			<glyph d="M306 394Q361 394 361 338Q361 313 348 298T306 283Q276 283 263 298T250 338Q250 394 306 394Z" unicode="∙"/>
			<glyph d="M487 708H571L357 -120H248L115 234H38V305H178L300 -28Z" unicode="√"/>
			<glyph d="M257 517Q320 517 364 485T449 383Q486 451 531 484T644 517Q734 517 783 460T832 318Q832 231 783 174T643 118Q581 118 536 149T452 248Q416 182 369 150T256 118Q165 118 116 174T68 318Q68 374 90 419T154 490T257 517ZM264 452Q210 452 178 417T146 318Q146 254 178 219T264 184Q318 184 351 216T418 320Q391 380 355 416T264 452ZM636 452Q598 452 572 436T527 392T482 310Q509 251 545 217T636 183Q690 183 721 217T753 318Q753 384 721 418T636 452Z" horiz-adv-x="900" unicode="∞"/>
			<glyph d="M413 725Q441 725 468 717L453 654Q441 657 423 657Q381 657 364 632T347 557V-89Q347 -258 197 -258Q168 -258 141 -250L156 -187Q168 -190 186 -190Q228 -190 245 -165T262 -90V555Q262 725 413 725Z" unicode="∫"/>
			<glyph d="M227 427Q253 427 274 419T322 396Q344 383 360 376T395 370Q418 370 438 382T484 426L524 400Q475 313 395 313Q369 313 348 321T300 344Q274 358 259 364T227 370Q204 370 183 357T136 314L97 340Q148 427 227 427ZM227 257Q253 257 274 249T322 226Q344 213 360 206T395 200Q418 200 438 212T484 256L524 230Q475 143 395 143Q369 143 348 151T300 174Q274 188 259 194T227 200Q204 200 183 187T136 144L97 170Q148 257 227 257Z" unicode="≈"/>
			<glyph d="M448 571L504 539L432 425H509V356H388L305 225H509V156H262L160 -5L104 27L186 156H109V225H229L312 356H109V425H356Z" unicode="≠"/>
			<glyph d="M464 610L499 556L191 367L498 178L463 124L111 334V398ZM105 72H505V3H105Z" unicode="≤"/>
			<glyph d="M105 72H505V3H105ZM146 610L499 398V334L147 124L112 178L419 367L111 556Z" unicode="≥"/>
			<glyph d="M262 708H346L552 354L346 0H262L58 354ZM303 644L141 354L303 64L469 354Z" unicode="◊"/>
			<glyph d="M299 722Q389 722 471 680Q516 722 597 722Q646 722 686 709L667 648Q635 655 605 654Q511 653 511 551V509H639V444H511V0H426V444H189V0H104V444H15V498L104 509V553Q104 633 152 677T299 722ZM300 654Q241 654 215 628T189 551V509H426V553Q426 593 436 623Q367 654 300 654Z" horiz-adv-x="652" unicode="ﬀ"/>
			<glyph d="M299 722Q400 722 495 667L465 608Q384 654 300 654Q241 654 215 628T189 551V509H502V0H417V444H189V0H104V444H15V498L104 509V553Q104 633 152 677T299 722Z" horiz-adv-x="588" unicode="ﬁ"/>
			<glyph d="M309 722Q409 722 502 674V0H417V640Q363 655 304 654Q242 654 215 628T189 551V509H317V444H189V0H104V444H15V498L104 509V553Q104 633 154 677T309 722Z" horiz-adv-x="588" unicode="ﬂ"/>
			<glyph d="M299 722Q394 722 480 675Q530 722 629 722Q730 722 825 667L795 608Q714 654 630 654Q571 654 545 628T519 551V509H832V0H747V444H519V0H434V444H189V0H104V444H15V498L104 509V553Q104 633 152 677T299 722ZM300 654Q241 654 215 628T189 551V509H434V553Q434 590 444 619Q372 654 300 654Z" horiz-adv-x="919" unicode="ﬃ"/>
			<glyph d="M299 722Q394 722 481 675Q533 722 639 722Q739 722 832 674V0H747V640Q693 655 634 654Q572 654 545 628T519 551V509H647V444H519V0H434V444H189V0H104V444H15V498L104 509V553Q104 633 152 677T299 722ZM300 654Q241 654 215 628T189 551V509H434V553Q434 590 444 619Q372 654 300 654Z" horiz-adv-x="918" unicode="ﬄ"/>
		</font>
</defs>
</svg>
