<?xml version="1.0" encoding="utf-8"?>
<!-- Generator: Adobe Illustrator 18.1.1, SVG Export Plug-In . SVG Version: 6.00 Build 0)  -->
<svg version="1.1" id="Layer_1" xmlns="http://www.w3.org/2000/svg" xmlns:xlink="http://www.w3.org/1999/xlink" x="0px" y="0px"
	 width="52px" height="52px" viewBox="0 0 52 52" enable-background="new 0 0 52 52" xml:space="preserve">
<path fill="#FFFFFF" d="M37.2,2H14.8C12.2,2,10,4.2,10,6.8v38.4c0,2.6,2.2,4.8,4.8,4.8h22.4c2.6,0,4.8-2.2,4.8-4.8V6.8
	C42,4.2,39.8,2,37.2,2z M26,48.4c-1.4,0-2.4-1-2.4-2.4s1-2.4,2.4-2.4s2.4,1,2.4,2.4S27.4,48.4,26,48.4z M37.2,40.4
	c0,0.9-0.7,1.6-1.6,1.6H16.4c-0.9,0-1.6-0.7-1.6-1.6V10c0-0.9,0.7-1.6,1.6-1.6h19.2c0.9,0,1.6,0.7,1.6,1.6V40.4z"/>
</svg>
