<svg xmlns="http://www.w3.org/2000/svg" width="100" height="100" viewBox="0 0 100 100"><path d="M37.5,30h4a.94.94,0,0,0,1-1V26h14v3a.94.94,0,0,0,1,1h4a.94.94,0,0,0,1-1V26a6,6,0,0,0-6-6h-14a6,6,0,0,0-6,6v3A.94.94,0,0,0,37.5,30Z" fill="#fff"/><path d="M73.5,36h-48a6,6,0,0,0-6,6V74a6,6,0,0,0,6,6h48a6,6,0,0,0,6-6V42A6,6,0,0,0,73.5,36ZM46.19,58.63,38.5,66.54a1.19,1.19,0,0,1-1.35,0l-7.69-7.91c-.58-.48-.1-1.33.86-1.33H35a15,15,0,0,1,15.3-15.24v5.71c-4.81,0-9.53,4.77-9.53,9.53h4.52C46.29,57.3,46.77,58.06,46.19,58.63Zm24.25-.05H65.73A15.2,15.2,0,0,1,50.25,73.82V68.11C56,68.11,60,64.3,60,58.58H55.34c-1,0-1.44-.76-.86-1.33l7.69-7.9a1.16,1.16,0,0,1,1.35,0l7.79,7.9C71.89,57.73,71.41,58.58,70.44,58.58Z" fill="#fff"/></svg>