<svg height="52" viewBox="0 0 52 52" width="52" xmlns="http://www.w3.org/2000/svg"><path d="m23 14.91a6.55 6.55 0 1 1 -6.52 6.55 6.53 6.53 0 0 1 6.52-6.55zm20.7 15.72a.58.58 0 0 0 0-.84l-4.12-4.12a.59.59 0 0 0 -.42-.18.61.61 0 0 0 -.43.18l-11.34 11.38-1.7 5.69a.8.8 0 0 0 .79 1 .55.55 0 0 0 .18 0l5.69-1.74zm-1.45-7.75 4.15 4.12a.63.63 0 0 0 .43.18.59.59 0 0 0 .42-.18c.73-.73 2.06-1.94 2.06-1.94a2 2 0 0 0 0-2.91l-2.18-2.15a2 2 0 0 0 -1.41-.54 2.34 2.34 0 0 0 -1.5.54s-1.33 1.31-1.93 2a.58.58 0 0 0 0 .88zm-2.15-14.61h-34.1a4 4 0 0 0 -3.93 4v19.07a4 4 0 0 0 3.93 3.94h18.84l3.95-3.94h-18.25a4.53 4.53 0 0 0 -4.54-4.58v-9.88a4.53 4.53 0 0 0 4.56-4.57h25a4.53 4.53 0 0 0 4.56 4.57v3l3.88-3.97v-3.6a4 4 0 0 0 -3.9-4.04z" fill="#fff"/></svg>