<svg xmlns="http://www.w3.org/2000/svg" width="52" height="52" viewBox="0 0 52 52">
    <path d="M23.39,12.17c-2.05-.57-4.16-.84-6.29-.8-4.06-.16-8,1.37-10.9,4.22-2.85,2.94-4.37,6.92-4.21,11.01-.18,3.76,1.17,7.44,3.73,10.2,2.51,2.55,5.94,3.82,10.27,3.82,2.54,.08,5.07-.33,7.46-1.21,.39-.16,.64-.55,.64-1.34l-.05-3.07c0-.14-.03-.27-.09-.39-.23-.52-.83-.76-1.35-.53-1.7,.73-3.54,1.09-5.39,1.08-2.3,.09-4.54-.79-6.16-2.42-1.6-1.8-2.43-4.15-2.31-6.55-.13-2.5,.75-4.95,2.46-6.78,1.7-1.7,4.03-2.61,6.43-2.51,1.73-.02,3.44,.31,5.03,.97,.13,.06,.27,.08,.4,.09,.57,0,1.03-.45,1.03-1.02v-3.73c.02-.46-.26-.88-.7-1.03Z" fill="#fff" />
    <path d="M49.8,34.57c-.23-.52-.83-.76-1.35-.53-1.7,.73-3.54,1.09-5.39,1.08-2.3,.09-4.54-.79-6.16-2.42-1.6-1.8-2.43-4.15-2.31-6.55-.13-2.5,.75-4.94,2.44-6.78,1.7-1.7,4.04-2.61,6.44-2.51,1.73,0,3.45,.33,5.04,1.01,.13,.06,.27,.08,.4,.09,.57,0,1.03-.45,1.03-1.02v-3.73c.02-.46-.26-.88-.7-1.03-2.05-.57-4.16-.84-6.29-.8-4.06-.16-8,1.37-10.9,4.22-2.84,2.95-4.35,6.92-4.18,11.01-.18,3.76,1.17,7.44,3.73,10.2,2.51,2.55,5.94,3.82,10.27,3.82,2.54,.08,5.07-.33,7.45-1.21,.4-.16,.65-.55,.65-1.31l-.09-3.13c0-.14-.03-.27-.09-.39Z" fill="#fff" />
</svg>