<?xml version="1.0" encoding="UTF-8"?><svg xmlns="http://www.w3.org/2000/svg" width="64" height="64" viewBox="0 0 64 64"><title>icon-https</title><path fill="#719F2A" fill-rule="evenodd" d="M32 0c17.673 0 32 14.327 32 32 0 17.673-14.327 32-32 32C14.327 64 0 49.673 0 32 0 14.327 14.327 0 32 0zm0 1.208C14.994 1.208 1.208 14.994 1.208 32S14.994 62.792 32 62.792 62.792 49.006 62.792 32 49.006 1.208 32 1.208zm0 18.886a7.245 7.245 0 0 1 7.245 7.245v3.103h.52c.86 0 1.557.698 1.557 1.558v9.322c0 .86-.697 1.558-1.557 1.558h-15.53c-.86 0-1.557-.697-1.557-1.558V32c0-.86.697-1.558 1.557-1.558h.52V27.34A7.245 7.245 0 0 1 32 20.094zm0 3.103a4.142 4.142 0 0 0-4.142 4.142v3.103h8.284V27.34A4.142 4.142 0 0 0 32 23.197z"/></svg>