<?xml version="1.0"?><svg xmlns="http://www.w3.org/2000/svg" width="52" height="52" viewBox="0 0 52 52"><g fill="#fff"><path d="m41.1 1h-30.2c-2.7 0-4.9 2.3-4.9 4.9v0.1c0 0.9 0.7 1.7 1.7 1.7h36.7c0.8 0 1.6-0.8 1.6-1.7v-0.1c0-2.6-2.2-4.9-4.9-4.9z m-0.1 11.7h-30c-0.9 0-1.7 0.8-1.7 1.7v35c0 0.9 0.8 1.7 1.7 1.7h9.2c0.9 0 1.6-0.8 1.6-1.7v-6.7c0-0.9 0.8-1.7 1.7-1.7h4.8c0.9 0 1.8 0.8 1.8 1.7v6.7c0 0.9 0.7 1.7 1.6 1.7h9.3c0.9 0 1.7-0.8 1.7-1.7v-35c0-1-0.8-1.7-1.7-1.7z m-17.5 22.5c0 0.9-0.8 1.7-1.7 1.7h-3.3c-0.9 0-1.7-0.8-1.7-1.7v-3.3c0-0.9 0.8-1.7 1.7-1.7h3.3c0.9 0 1.7 0.8 1.7 1.7v3.3z m0-11.7c0 0.9-0.8 1.7-1.7 1.7h-3.3c-0.9 0-1.7-0.8-1.7-1.7v-3.3c0-0.9 0.8-1.7 1.7-1.7h3.3c0.9 0 1.7 0.8 1.7 1.7v3.3z m11.7 11.7c0 0.9-0.8 1.7-1.7 1.7h-3.3c-0.9 0-1.7-0.8-1.7-1.7v-3.3c0-0.9 0.8-1.7 1.7-1.7h3.3c0.9 0 1.7 0.8 1.7 1.7v3.3z m0-11.7c0 0.9-0.8 1.7-1.7 1.7h-3.3c-0.9 0-1.7-0.8-1.7-1.7v-3.3c0-0.9 0.8-1.7 1.7-1.7h3.3c0.9 0 1.7 0.8 1.7 1.7v3.3z"></path></g></svg>