<svg xmlns="http://www.w3.org/2000/svg" height="52" width="52" viewBox="0 0 520 520" fill="#fff"><path d="M409 236h-5v-8c0-50-41-91-91-91-24 0-45 9-61 24a91.5 91.5 0 0 0-85-59 91.3 91.3 0 0 0-79 137c-40 10-69 45-69 88 0 49 38 88 87 90h302c50 0 91-41 91-91s-40-90-90-90zm-246 8 78-37c3-2 8-2 11 0l78 37c5 2 5 8 0 11l-78 37c-3 2-8 2-11 0l-78-37c-4-2-4-9 0-11zm168 92-78 37c-3 2-8 2-11 0l-78-37c-5-2-5-8 0-11l10-5c1-1 3-1 5 0l63 30c3 2 8 2 11 0l62-30c1-1 3-1 5 0l10 5c5 2 5 9 1 11zm0-40-78 37c-3 2-8 2-11 0l-78-37c-5-2-5-8 0-11l11-5c1-1 3-1 5 0l62 30c3 2 8 2 11 0l62-30c1-1 3-1 5 0l11 5c4 2 4 8 0 11z"/></svg>