<svg xmlns="http://www.w3.org/2000/svg" width="24" height="24"><circle fill="none" cx="17.5" cy="18.5" r="1.5"/><circle fill="none" cx="5.5" cy="11.5" r="1.5"/><circle fill="none" cx="17.5" cy="5.5" r="1.5"/><path d="M5.5 15c.91 0 1.733-.358 2.357-.93l6.26 3.577A3.483 3.483 0 0 0 14 18.5c0 1.93 1.57 3.5 3.5 3.5s3.5-1.57 3.5-3.5-1.57-3.5-3.5-3.5c-.91 0-1.733.358-2.357.93l-6.26-3.577c.063-.247.103-.502.108-.768l6.151-3.515c.625.572 1.448.93 2.358.93C19.43 9 21 7.43 21 5.5S19.43 2 17.5 2 14 3.57 14 5.5c0 .296.048.578.117.853L8.433 9.602A3.496 3.496 0 0 0 5.5 8C3.57 8 2 9.57 2 11.5S3.57 15 5.5 15zm12 2c.827 0 1.5.673 1.5 1.5s-.673 1.5-1.5 1.5-1.5-.673-1.5-1.5.673-1.5 1.5-1.5zm0-13c.827 0 1.5.673 1.5 1.5S18.327 7 17.5 7 16 6.327 16 5.5 16.673 4 17.5 4zm-12 6c.827 0 1.5.673 1.5 1.5S6.327 13 5.5 13 4 12.327 4 11.5 4.673 10 5.5 10z"/></svg>