<?xml version="1.0" encoding="UTF-8" standalone="no"?>
<!-- Created with Inkscape (http://www.inkscape.org/) -->

<svg
   xmlns:dc="http://purl.org/dc/elements/1.1/"
   xmlns:cc="http://creativecommons.org/ns#"
   xmlns:rdf="http://www.w3.org/1999/02/22-rdf-syntax-ns#"
   xmlns:svg="http://www.w3.org/2000/svg"
   xmlns="http://www.w3.org/2000/svg"
   xmlns:xlink="http://www.w3.org/1999/xlink"
   xmlns:sodipodi="http://sodipodi.sourceforge.net/DTD/sodipodi-0.dtd"
   xmlns:inkscape="http://www.inkscape.org/namespaces/inkscape"
   width="300"
   height="300"
   id="svg2"
   version="1.1"
   inkscape:version="0.48+devel r13193 custom"
   viewBox="0 0 300 300"
   sodipodi:docname="icon.svg"
   inkscape:export-filename="/home/matteo/Sites/add-to-homescreen/imgs/icon-152x152.png"
   inkscape:export-xdpi="58.799999"
   inkscape:export-ydpi="58.799999">
  <defs
     id="defs4">
    <linearGradient
       inkscape:collect="always"
       id="linearGradient4091">
      <stop
         style="stop-color:#224e04;stop-opacity:1;"
         offset="0"
         id="stop4093" />
      <stop
         style="stop-color:#4fb409;stop-opacity:1"
         offset="1"
         id="stop4095" />
    </linearGradient>
    <linearGradient
       inkscape:collect="always"
       id="linearGradient4117">
      <stop
         style="stop-color:#3a8b02;stop-opacity:1"
         offset="0"
         id="stop4119" />
      <stop
         style="stop-color:#a9f608;stop-opacity:1"
         offset="1"
         id="stop4121" />
    </linearGradient>
    <linearGradient
       inkscape:collect="always"
       id="linearGradient4064">
      <stop
         style="stop-color:#eeeeee;stop-opacity:1"
         offset="0"
         id="stop4066" />
      <stop
         style="stop-color:#f9f9f9;stop-opacity:1"
         offset="1"
         id="stop4068" />
    </linearGradient>
    <linearGradient
       inkscape:collect="always"
       xlink:href="#linearGradient4064"
       id="linearGradient4070"
       x1="447.85715"
       y1="515.2193"
       x2="447.85715"
       y2="220.2193"
       gradientUnits="userSpaceOnUse"
       gradientTransform="translate(-230.7143,-185.71425)" />
    <linearGradient
       inkscape:collect="always"
       xlink:href="#linearGradient4117"
       id="linearGradient4123"
       x1="444.99994"
       y1="498.53314"
       x2="398.56287"
       y2="260.25818"
       gradientUnits="userSpaceOnUse"
       gradientTransform="matrix(0.93059911,0,0,0.93102148,-202.5138,-200.62118)" />
    <linearGradient
       inkscape:collect="always"
       xlink:href="#linearGradient4091"
       id="linearGradient4097"
       x1="195.00041"
       y1="303.00513"
       x2="191.42899"
       y2="208.71939"
       gradientUnits="userSpaceOnUse"
       gradientTransform="translate(0,-10)" />
  </defs>
  <sodipodi:namedview
     id="base"
     pagecolor="#ffffff"
     bordercolor="#666666"
     borderopacity="1.0"
     inkscape:pageopacity="0.0"
     inkscape:pageshadow="2"
     inkscape:zoom="0.7"
     inkscape:cx="106.40376"
     inkscape:cy="260.41876"
     inkscape:document-units="px"
     inkscape:current-layer="layer1"
     showgrid="false"
     inkscape:window-width="1345"
     inkscape:window-height="1080"
     inkscape:window-x="534"
     inkscape:window-y="99"
     inkscape:window-maximized="0"
     fit-margin-top="0"
     fit-margin-left="0"
     fit-margin-right="0"
     fit-margin-bottom="0" />
  <metadata
     id="metadata7">
    <rdf:RDF>
      <cc:Work
         rdf:about="">
        <dc:format>image/svg+xml</dc:format>
        <dc:type
           rdf:resource="http://purl.org/dc/dcmitype/StillImage" />
        <dc:title />
      </cc:Work>
    </rdf:RDF>
  </metadata>
  <g
     inkscape:label="Layer 1"
     inkscape:groupmode="layer"
     id="layer1"
     transform="translate(-40.000004,-32.362198)">
    <rect
       style="color:#000000;color-interpolation:sRGB;color-interpolation-filters:linearRGB;fill:url(#linearGradient4070);fill-opacity:1;fill-rule:nonzero;stroke:none;stroke-width:1;paint-order:normal;marker:none;visibility:visible;display:inline;overflow:visible;isolation:auto;mix-blend-mode:normal;enable-background:accumulate;clip-rule:nonzero;color-rendering:auto;image-rendering:auto;shape-rendering:auto;text-rendering:auto"
       id="rect3262"
       width="300"
       height="300"
       x="39.999996"
       y="32.362198"
       rx="0"
       ry="0" />
    <path
       sodipodi:type="inkscape:offset"
       inkscape:radius="8.4488764"
       inkscape:original="M 90.625 95.578125 C 87.310736 95.578125 84.642578 98.248686 84.642578 101.56445 L 84.642578 263.16211 C 84.642578 266.47788 87.310736 269.14844 90.625 269.14844 L 150.49414 269.14844 L 190 316.85938 L 229.50391 269.14844 L 289.375 269.14844 C 292.68925 269.14844 295.35742 266.47788 295.35742 263.16211 L 295.35742 101.56445 C 295.35742 98.248686 292.68925 95.578125 289.375 95.578125 L 90.625 95.578125 z "
       style="color:#000000;color-interpolation:sRGB;color-interpolation-filters:linearRGB;fill:#000000;fill-opacity:0.18232045;fill-rule:nonzero;stroke:none;stroke-width:2;paint-order:normal;marker:none;visibility:visible;display:inline;overflow:visible;isolation:auto;mix-blend-mode:normal;enable-background:accumulate;clip-rule:nonzero;color-rendering:auto;image-rendering:auto;shape-rendering:auto;text-rendering:auto"
       id="path4101"
       d="m 90.625,87.128906 c -7.852876,0 -14.431641,6.587306 -14.431641,14.435544 l 0,161.59766 c 0,7.84824 6.578766,14.43555 14.431641,14.43555 l 55.89648,0 36.97071,44.65039 a 8.4497213,8.4497213 0 0 0 13.01562,0 l 36.96875,-44.65039 55.89844,0 c 7.85288,0 14.43164,-6.58729 14.43164,-14.43555 l 0,-161.59766 c 0,-7.848258 -6.57876,-14.435544 -14.43164,-14.435544 l -198.75,0 z"
       transform="translate(0,-10)" />
    <path
       sodipodi:nodetypes="sssscccsssss"
       inkscape:connector-curvature="0"
       id="path3278"
       d="m 90.624913,85.578761 c -3.314264,0 -5.98164,2.670412 -5.98164,5.986179 l 0,161.59769 c 0,3.31577 2.667376,5.98618 5.98164,5.98618 l 59.869147,0 39.50503,47.71121 39.50502,-47.71121 59.87097,0 c 3.31425,0 5.98164,-2.67041 5.98164,-5.98618 l 0,-161.59769 c 0,-3.315767 -2.66739,-5.986179 -5.98164,-5.986179 z"
       style="color:#000000;color-interpolation:sRGB;color-interpolation-filters:linearRGB;fill:url(#linearGradient4097);fill-opacity:1;fill-rule:nonzero;stroke:none;stroke-width:2;paint-order:normal;marker:none;visibility:visible;display:inline;overflow:visible;isolation:auto;mix-blend-mode:normal;enable-background:accumulate;clip-rule:nonzero;color-rendering:auto;image-rendering:auto;shape-rendering:auto;text-rendering:auto" />
    <path
       style="color:#000000;color-interpolation:sRGB;color-interpolation-filters:linearRGB;fill:url(#linearGradient4123);fill-opacity:1;fill-rule:nonzero;stroke:none;stroke-width:2;paint-order:normal;marker:none;visibility:visible;display:inline;overflow:visible;isolation:auto;mix-blend-mode:normal;enable-background:accumulate;clip-rule:nonzero;color-rendering:auto;image-rendering:auto;shape-rendering:auto;text-rendering:auto"
       d="m 90.624913,69.578761 c -3.314264,0 -5.98164,2.670412 -5.98164,5.98618 l 0,161.597689 c 0,3.31577 2.667376,5.98618 5.98164,5.98618 l 59.869147,0 39.50503,45.71121 39.50502,-45.71121 59.87097,0 c 3.31425,0 5.98164,-2.67041 5.98164,-5.98618 l 0,-161.597689 c 0,-3.315768 -2.66739,-5.98618 -5.98164,-5.98618 z"
       id="rect4115"
       inkscape:connector-curvature="0"
       sodipodi:nodetypes="sssscccsssss" />
    <path
       sodipodi:nodetypes="caacssccccssssccccsccac"
       inkscape:connector-curvature="0"
       d="m 189.07976,109.00002 c -0.43511,-0.29358 -0.91236,-0.65348 -1.43694,-0.64269 -0.53484,0.009 -0.99987,0.40641 -1.43692,0.71499 -18.8181,13.28539 -49.72205,47.99818 -49.72205,47.99818 -0.40256,0.36834 -0.65657,0.90249 -0.65657,1.49139 0,1.12777 0.91323,2.03724 2.03733,2.03724 l 14.00338,0 0,9.63181 0,43.41485 23.62296,0 0,-30.85169 c 0,-1.14319 0.92488,-2.07262 2.06663,-2.07262 l 20.13596,0 c 1.14551,0 2.07347,0.92943 2.07347,2.07262 l 0,30.85784 23.64379,0 0,-43.41559 0,-9.69731 14.00332,-0.009 c 1.13249,-6.3e-4 2.0443,-0.91099 2.0443,-2.0372 0,-0.59191 -0.254,-1.12313 -0.45529,-1.30781 0,0 -30.8359,-35.28952 -49.92333,-48.18598 z"
       id="path4250"
       style="fill:#50a003;fill-opacity:1;stroke:none;display:inline;enable-background:new" />
    <path
       style="fill:#ffffff;fill-opacity:1;stroke:none;display:inline;enable-background:new"
       id="path22042"
       d="m 191.4369,110.91614 c -0.43511,-0.29357 -0.91236,-0.65348 -1.43694,-0.64269 -0.53484,0.009 -0.99987,0.4064 -1.43692,0.71498 -18.8181,13.28539 -49.72205,47.99819 -49.72205,47.99819 -0.40256,0.36834 -0.65657,0.90249 -0.65657,1.49138 0,1.12777 0.91323,2.03725 2.03733,2.03725 l 14.00338,0 0,9.63181 0,43.41485 23.62296,0 0,-30.85169 c 0,-1.14319 0.92488,-2.07262 2.06663,-2.07262 l 20.13596,0 c 1.14551,0 2.07347,0.92943 2.07347,2.07262 l 0,30.85784 23.64379,0 0,-43.41559 0,-9.69731 14.00332,-0.009 c 1.13249,-6.3e-4 2.0443,-0.91099 2.0443,-2.0372 0,-0.59191 -0.254,-1.12314 -0.45529,-1.30781 0,0 -30.8359,-35.28953 -49.92333,-48.18599 z"
       inkscape:connector-curvature="0"
       sodipodi:nodetypes="caacssccccssssccccsccac" />
    <path
       style="color:#000000;color-interpolation:sRGB;color-interpolation-filters:linearRGB;fill:#ffffff;fill-opacity:0.72375692;fill-rule:nonzero;stroke:none;stroke-width:2;paint-order:normal;marker:none;visibility:visible;display:inline;overflow:visible;isolation:auto;mix-blend-mode:normal;enable-background:accumulate;clip-rule:nonzero;color-rendering:auto;image-rendering:auto;shape-rendering:auto;text-rendering:auto"
       d="m 302.99805,86.914932 c 0.5146,1.466542 0.80859,3.029317 0.80859,4.650391 l 0,161.597657 c 0,7.84826 -6.57876,14.43555 -14.43164,14.43555 l -55.89844,0 -36.96875,44.65039 a 8.4497213,8.4497213 0 0 1 -13.01562,0 l -36.97071,-44.65039 -55.896476,0 c -3.670545,0 -7.050931,-1.4527 -9.623047,-3.78711 1.976796,5.63356 7.3922,9.78711 13.623047,9.78711 l 55.896476,0 36.97071,44.65039 a 8.4497213,8.4497213 0 0 0 13.01562,0 l 36.96875,-44.65039 55.89844,0 c 7.85288,0 14.43164,-6.58729 14.43164,-14.43555 l 0,-161.59766 c 0,-4.17987 -1.87785,-7.990489 -4.80859,-10.650388 z"
       id="path4108"
       inkscape:connector-curvature="0" />
  </g>
</svg>
