<svg id="a" xmlns="http://www.w3.org/2000/svg" width="52" height="52" viewBox="0 0 52 52"><path d="M41,23.65h-.5v-.8c0-5-4.1-9.1-9.1-9.1-2.4,0-4.5.9-6.1,2.4-1.3-3.4-4.6-5.9-8.5-5.9-5,0-9.1,4.1-9.1,9.1,0,1.7.5,3.2,1.2,4.6-4,1-6.9,4.5-6.9,8.8,0,4.9,3.8,8.8,8.7,9h30.2c5,0,9.1-4.1,9.1-9.1s-4-9-9-9ZM17.21,32.3c-1.26,0-2.23-.97-2.23-2.23s.97-2.23,2.23-2.23,2.23.97,2.23,2.23-.97,2.23-2.23,2.23ZM25.25,32.3c-1.26,0-2.23-.97-2.23-2.23s.97-2.23,2.23-2.23,2.23.97,2.23,2.23-.97,2.23-2.23,2.23ZM33.3,32.3c-1.26,0-2.23-.97-2.23-2.23s.97-2.23,2.23-2.23,2.23.97,2.23,2.23-.97,2.23-2.23,2.23Z" fill="#fff" stroke-width="0"/></svg>