<svg viewBox="0 0 1285 1008.0124" xmlns="http://www.w3.org/2000/svg"><path d="M500 381.012q33 0 62 17t46 46q17 29 17 62t-17 62q-17 29-46 46t-62 17q-33 0-62-17t-46-45.5q-17-28.5-17-62.5t17-62.5q17-28.5 46-45.5t62-17zm0 334q57 0 105-28t76-76q28-48 28-105t-28-105q-28-48-76-76t-105-28q-57 0-105 28t-76 76q-28 48-28 105t28 105q28 48 76 76t105 28zm0-521q103 0 196 40 90 39 158.5 110t104.5 162q-36 92-104.5 163t-158.5 110q-93 40-196 40t-196-40q-90-39-158.5-110t-104.5-163q36-91 104.5-162t158.5-110q93-40 196-40z"/></svg>