<?xml version="1.0" encoding="UTF-8"?><svg xmlns="http://www.w3.org/2000/svg" width="64" height="65" viewBox="0 0 64 65"><title>plus-alt</title><path fill="#565C65" fill-rule="evenodd" d="M36 .03c1.111 0 2.056.424 2.833 1.271.778.85 1.166 1.88 1.166 3.092v19.635h19.636c1.125 0 2.095.336 2.907 1.007l.184.16c.849.778 1.272 1.722 1.272 2.834v8c0 1.112-.425 2.056-1.272 2.833-.849.778-1.88 1.166-3.091 1.166H39.999v19.636c0 1.126-.335 2.095-1.006 2.907l-.16.184c-.778.849-1.722 1.273-2.833 1.273h-8.001c-1.111 0-2.056-.424-2.834-1.273-.778-.848-1.166-1.879-1.166-3.09V40.027H4.363c-1.125 0-2.094-.334-2.906-1.005l-.185-.161C.424 38.085 0 37.14 0 36.029v-8c0-1.112.424-2.056 1.272-2.834.849-.778 1.88-1.167 3.091-1.167H24V4.393c0-1.126.335-2.095 1.006-2.907l.16-.185C25.944.453 26.889.03 28 .03z"/></svg>