<svg data-name="Layer 1" xmlns="http://www.w3.org/2000/svg" width="100" height="100" viewBox="0 0 100 100"><path d="M37,20H26a6.07,6.07,0,0,0-6,6.14V36.38h0a6.07,6.07,0,0,0,6,6.14H37a6.07,6.07,0,0,0,6-6.14V26.13h0A6.07,6.07,0,0,0,37,20ZM32,36.38H31a5.13,5.13,0,0,1,0-10.25h1a5.13,5.13,0,1,1,0,10.25Z" fill="#fff"/><path d="M55,42.52H66a6.07,6.07,0,0,0,6-6.14V26.13h0A6.08,6.08,0,0,0,66,20H55a6.07,6.07,0,0,0-6,6.14V36.38h0A6.07,6.07,0,0,0,55,42.52Zm5-16.39h1a5.13,5.13,0,0,1,0,10.25H60a5.13,5.13,0,0,1,0-10.25Z" fill="#fff"/><path d="M37,48.66H26a6.08,6.08,0,0,0-6,6.15V65a6.09,6.09,0,0,0,6,6.16H37A6.09,6.09,0,0,0,43,65V54.81A6.08,6.08,0,0,0,37,48.66ZM32,65H31a5.12,5.12,0,0,1,0-10.19h1v0A5.12,5.12,0,0,1,32,65Z" fill="#fff"/><path d="M79.1,61.33c-.78-.13-1.56-.13-2.35-.26a.29.29,0,0,1-.26-.27,26.06,26.06,0,0,0-1-2.53v-.4c.39-.67,1-1.34,1.43-2a1,1,0,0,0-.13-1.33l-2.6-2.67a1,1,0,0,0-.65-.26,2.16,2.16,0,0,0-.65.26c-.66.4-1.31,1.07-2,1.47a.13.13,0,0,0-.13.13h-.13c-.91-.26-1.56-.8-2.47-1.06a.27.27,0,0,1-.26-.27c-.13-.8-.13-1.47-.26-2.27A1.1,1.1,0,0,0,67,48.8a.4.4,0,0,0-.26-.14H62.94a1.15,1.15,0,0,0-.65.14c-.26.26-.66.66-.66,1.06a13.38,13.38,0,0,1-.26,2.27.29.29,0,0,1-.26.27c-.91.26-1.56.8-2.47,1.06h-.13c-.13,0-.13,0-.26-.13-.64-.52-1.31-1-2-1.47a.76.76,0,0,0-.65-.26c-.39,0-.39.13-.78.26l-2.6,2.67a1,1,0,0,0-.13,1.33c.39.67,1,1.21,1.43,2a.25.25,0,0,1,0,.35l0,0c-.26.93-.78,1.6-1,2.53a.29.29,0,0,1-.26.27c-.79.13-1.44.13-2.22.26a1.11,1.11,0,0,0-1,.8v4.55a2.13,2.13,0,0,0,1,.8,12.69,12.69,0,0,1,2.22.26.28.28,0,0,1,.26.27c.26.93.78,1.6,1,2.53,0,.14.13.27,0,.4-.39.67-1,1.34-1.43,2a1,1,0,0,0,.13,1.34l2.6,2.66c.26.27.39.27.78.27a2,2,0,0,0,.65-.27,21.65,21.65,0,0,1,2-1.46c.13,0,.13-.14.26-.14h.13c.91.27,1.56.8,2.47,1.07a.27.27,0,0,1,.26.27c.13.8.13,1.6.26,2.4s.4.93,1,.93h3.78c.66,0,.92-.27,1-.93s.13-1.6.26-2.4A.27.27,0,0,1,68,76.4H68a25.57,25.57,0,0,0,2.47-1.07h.13a.13.13,0,0,1,.13.13h0c.65.4,1.3,1.06,2,1.46a1,1,0,0,0,.65.27c.26,0,.39-.13.78-.27l2.6-2.66a1.06,1.06,0,0,0,.13-1.34c-.39-.66-1-1.2-1.43-2a.25.25,0,0,1,0-.35.12.12,0,0,1,0,0c.26-.93.78-1.6,1-2.53a.28.28,0,0,1,.26-.27c.79-.13,1.57-.13,2.35-.26s.91-.4.91-1.07V62.67C80,61.73,79.75,61.47,79.1,61.33ZM64.63,70.41a5.84,5.84,0,0,1-5.86-5.8V64.4a5.87,5.87,0,0,1,11.73,0A6.18,6.18,0,0,1,64.63,70.41Z" fill="#fff"/></svg>