<?xml version="1.0" encoding="utf-8"?>
<!-- Generator: Adobe Illustrator 17.0.0, SVG Export Plug-In . SVG Version: 6.00 Build 0)  -->
<!DOCTYPE svg PUBLIC "-//W3C//DTD SVG 1.1//EN" "http://www.w3.org/Graphics/SVG/1.1/DTD/svg11.dtd">
<svg version="1.1" id="Layer_1" xmlns="http://www.w3.org/2000/svg" xmlns:xlink="http://www.w3.org/1999/xlink" x="0px" y="0px"
	 width="100px" height="100px" viewBox="0 0 100 100" enable-background="new 0 0 100 100" xml:space="preserve">
<g>
	<path d="M89.148,32.927c0.001-0.037,0.011-0.07,0.011-0.107c0-1.023-0.393-1.935-1.016-2.642l0.02-0.011L80.293,16.54
		c-0.276-1.111-1.281-1.916-2.468-1.914c-0.083,0-0.161,0.016-0.242,0.024v-0.024H22.219v0.004c-0.013,0-0.026-0.004-0.039-0.004
		c-0.96-0.001-1.759,0.529-2.17,1.315l-0.008-0.005L11.79,30.167l0.015,0.008c-0.596,0.707-0.963,1.619-0.963,2.642
		c0,0.047,0.012,0.091,0.014,0.138v48.211c-0.002,0.048-0.014,0.093-0.014,0.142c0,2.284,1.817,4.069,4.095,4.066
		c0.043,0,0.083-0.011,0.125-0.012h69.87c0.043,0.001,0.083,0.012,0.126,0.012c2.283,0,4.1-1.782,4.1-4.062
		c0-0.036-0.01-0.068-0.011-0.104V32.927z M63.413,57.492L51.022,74.922c-0.226,0.318-0.59,0.505-0.98,0.507c0,0,0,0-0.004,0
		c-0.386,0-0.751-0.187-0.977-0.503L36.59,57.494c-0.262-0.368-0.299-0.85-0.091-1.251c0.208-0.401,0.62-0.654,1.071-0.654h5.833
		l0.001-15.654c0-0.667,0.538-1.205,1.203-1.205h10.789c0.665,0,1.204,0.539,1.204,1.204v15.655h5.83
		c0.453,0,0.867,0.253,1.071,0.652C63.708,56.64,63.674,57.124,63.413,57.492z M18.376,28.733l5.263-9.119h52.67l5.266,9.119H18.376
		z"/>
</g>
</svg>
