<?xml version="1.0" encoding="utf-8"?>
<!-- Generator: Adobe Illustrator 17.0.0, SVG Export Plug-In . SVG Version: 6.00 Build 0)  -->
<!DOCTYPE svg PUBLIC "-//W3C//DTD SVG 1.1//EN" "http://www.w3.org/Graphics/SVG/1.1/DTD/svg11.dtd">
<svg version="1.1" id="Layer_1" xmlns="http://www.w3.org/2000/svg" xmlns:xlink="http://www.w3.org/1999/xlink" x="0px" y="0px"
	 width="100px" height="100px" viewBox="0 0 100 100" enable-background="new 0 0 100 100" xml:space="preserve">
<path d="M81.195,31.517c1.128,0,2.042-0.897,2.042-1.996V23.61c0-1.102-0.914-2-2.042-2h-4.586v-1.603
	c0-1.771-1.436-3.207-3.206-3.207H19.97c-1.771,0-3.206,1.435-3.206,3.207v59.986c0,1.766,1.436,3.206,3.206,3.206h53.432
	c1.77,0,3.206-1.44,3.206-3.206v-1.67h4.586c1.128,0,2.042-0.894,2.042-1.996v-5.912c0-1.102-0.914-2-2.042-2h-4.586v-5.699h4.586
	c1.128,0,2.042-0.894,2.042-1.991v-5.912c0-1.102-0.914-2-2.042-2h-4.586v-5.699h4.586c1.128,0,2.042-0.897,2.042-1.996v-5.912
	c0-1.098-0.914-1.996-2.042-1.996h-4.586v-5.695H81.195z M62.391,63.681c0,1.152-0.804,2.088-1.795,2.088H32.75
	c-0.992,0-1.795-0.935-1.795-2.088v-8.604c0-0.856,0.447-1.625,1.127-1.941l10.9-5.077c-2.583-1.557-4.351-4.689-4.351-8.304
	c0-5.168,3.599-9.356,8.041-9.356c4.443,0,8.042,4.188,8.042,9.356c0,3.562-1.708,6.655-4.226,8.238l10.789,5.148
	c0.674,0.325,1.115,1.085,1.115,1.937V63.681z"/>
</svg>
