<?xml version="1.0" encoding="utf-8"?>
<!-- Generator: Adobe Illustrator 17.0.0, SVG Export Plug-In . SVG Version: 6.00 Build 0)  -->
<!DOCTYPE svg PUBLIC "-//W3C//DTD SVG 1.1//EN" "http://www.w3.org/Graphics/SVG/1.1/DTD/svg11.dtd">
<svg version="1.1" id="Layer_1" xmlns="http://www.w3.org/2000/svg" xmlns:xlink="http://www.w3.org/1999/xlink" x="0px" y="0px"
	 width="100px" height="100px" viewBox="0 0 100 100" enable-background="new 0 0 100 100" xml:space="preserve">
<g>
	<path d="M95.582,41.448h-7.796V24.342h0l0-0.001c0-0.956-0.775-1.731-1.733-1.731H4.418c-0.957,0-1.732,0.775-1.732,1.731l0,0.001
		h0v51.316h0l0,0.001c0,0.957,0.775,1.731,1.732,1.731h81.635c0.957,0,1.732-0.775,1.732-1.731l0-0.001h0V57.039h7.796
		c0.957,0,1.732-0.775,1.732-1.732V43.18C97.314,42.223,96.539,41.448,95.582,41.448z M77.829,67.434H12.862V32.785h64.967V67.434z"
		/>
	<rect x="17.84" y="37.382" width="55.01" height="25.074"/>
</g>
</svg>
