<?xml version="1.0" encoding="utf-8"?>
<!-- Generator: Adobe Illustrator 17.0.0, SVG Export Plug-In . SVG Version: 6.00 Build 0)  -->
<!DOCTYPE svg PUBLIC "-//W3C//DTD SVG 1.1//EN" "http://www.w3.org/Graphics/SVG/1.1/DTD/svg11.dtd">
<svg version="1.1" id="Layer_1" xmlns="http://www.w3.org/2000/svg" xmlns:xlink="http://www.w3.org/1999/xlink" x="0px" y="0px"
	 width="100px" height="100px" viewBox="0 0 100 100" enable-background="new 0 0 100 100" xml:space="preserve">
<g>
	<circle fill="#231F20" cx="41.53" cy="19.773" r="7.152"/>
	<path fill="#231F20" d="M83.162,84.562l0.01-0.006l-20.92-36.234c0.359-0.495,0.577-1.098,0.577-1.756
		c0-1.263-0.782-2.339-1.887-2.783L54.907,40.3l-9.159-9.159c-1.311-1.614-3.31-2.647-5.552-2.647c-2.026,0-3.851,0.846-5.152,2.199
		L24.412,41.324l0.012,0.012c-0.169,0.134-0.285,0.332-0.285,0.564c0,0.056,0.02,0.104,0.032,0.156h-0.029v11.975
		c0,0.009-0.003,0.017-0.003,0.025c0,1.658,1.344,3.003,3.003,3.003s3.002-1.345,3.002-3.003c0-0.008-0.002-0.016-0.002-0.024
		v-10.01l3.649-3.649V59.18h0.001l-6.954,12.044l-8.891,8.891l0.033,0.033c-0.819,0.764-1.339,1.843-1.339,3.052
		c0,2.309,1.872,4.18,4.181,4.18c1.317,0,2.476-0.621,3.243-1.571l9.596-9.596l-0.037-0.037l8.096-14.024l7.104,7.104l9.232,15.99
		l0.036-0.021c0.715,1.278,2.066,2.153,3.635,2.153c2.309,0,4.181-1.871,4.181-4.18c0-0.915-0.302-1.754-0.8-2.443l-9.627-16.674
		l-0.012,0.007l-8.679-8.678V40.609l4.451,4.451l-0.001,0.002l0.007,0.004l0.025,0.025l0.007-0.007l6.847,3.954
		c0.054,0.037,0.113,0.064,0.169,0.098l0.028,0.016l0-0.001c0.443,0.258,0.952,0.417,1.502,0.417c0.189,0,0.372-0.022,0.552-0.056
		l20.816,36.054c0.013,0.032,0.034,0.057,0.05,0.087l0.007,0.012l0.001,0c0.189,0.351,0.552,0.598,0.982,0.598
		c0.621,0,1.125-0.496,1.125-1.109C83.359,84.932,83.276,84.736,83.162,84.562z"/>
</g>
</svg>
