<?xml version="1.0" encoding="utf-8"?>
<!-- Generator: Adobe Illustrator 17.0.0, SVG Export Plug-In . SVG Version: 6.00 Build 0)  -->
<!DOCTYPE svg PUBLIC "-//W3C//DTD SVG 1.1//EN" "http://www.w3.org/Graphics/SVG/1.1/DTD/svg11.dtd">
<svg version="1.1" id="Layer_1" xmlns="http://www.w3.org/2000/svg" xmlns:xlink="http://www.w3.org/1999/xlink" x="0px" y="0px"
	 width="100px" height="100px" viewBox="0 0 100 100" enable-background="new 0 0 100 100" xml:space="preserve">
<g id="g99">
	<path fill="#231F20" d="M49.805,38.076l-2.049,8.215c2.323,0.579,9.483,2.941,10.643-1.708
		C59.608,39.736,52.128,38.655,49.805,38.076z"/>
	<path fill="#231F20" d="M46.723,50.437l-2.26,9.058c2.789,0.693,11.392,3.455,12.664-1.655
		C58.456,52.512,49.512,51.133,46.723,50.437z"/>
	<path fill="#231F20" d="M59.067,13.621C38.981,8.612,18.633,20.84,13.626,40.932c-5.011,20.089,7.216,40.438,27.3,45.447
		c20.092,5.009,40.44-7.217,45.449-27.307C91.384,38.981,79.158,18.629,59.067,13.621z M66.529,44.658
		c-0.541,3.653-2.565,5.422-5.254,6.041c3.691,1.921,5.57,4.869,3.78,9.979c-2.22,6.345-7.497,6.881-14.512,5.553l-1.703,6.824
		l-4.115-1.025l1.68-6.733c-1.066-0.264-2.156-0.546-3.279-0.85l-1.686,6.764l-4.11-1.026l1.703-6.836
		c-0.961-0.246-1.937-0.508-2.933-0.757l-5.354-1.336l2.042-4.709c0,0,3.032,0.807,2.991,0.747c1.165,0.289,1.681-0.471,1.885-0.978
		l2.691-10.787c0.151,0.037,0.298,0.073,0.434,0.108c-0.164-0.065-0.313-0.108-0.427-0.137l1.919-7.701
		c0.05-0.874-0.251-1.976-1.917-2.392c0.065-0.044-2.988-0.743-2.988-0.743l1.095-4.395l5.675,1.417l-0.005,0.021
		c0.853,0.212,1.732,0.413,2.628,0.617l1.686-6.757l4.112,1.025l-1.652,6.625c1.104,0.252,2.215,0.506,3.297,0.775l1.641-6.581
		l4.114,1.025l-1.685,6.76C63.476,36.985,67.275,39.667,66.529,44.658z"/>
</g>
</svg>
