<?xml version="1.0" encoding="utf-8"?>
<!-- Generator: Adobe Illustrator 17.0.0, SVG Export Plug-In . SVG Version: 6.00 Build 0)  -->
<!DOCTYPE svg PUBLIC "-//W3C//DTD SVG 1.1//EN" "http://www.w3.org/Graphics/SVG/1.1/DTD/svg11.dtd">
<svg version="1.1" id="Layer_1" xmlns="http://www.w3.org/2000/svg" xmlns:xlink="http://www.w3.org/1999/xlink" x="0px" y="0px"
	 width="100px" height="100px" viewBox="0 0 100 100" enable-background="new 0 0 100 100" xml:space="preserve">
<g>
	<path d="M39.818,24.963L51.575,36.72c0.033,0.035,0.067,0.069,0.102,0.102l0.095,0.095l0.009-0.009
		c0.35,0.285,0.791,0.464,1.279,0.464c1.123,0,2.034-0.911,2.034-2.035c0-0.733-0.391-1.37-0.973-1.728l-11.7-11.699
		c-0.373-0.425-0.913-0.698-1.523-0.698c-1.123,0-2.034,0.911-2.034,2.034C38.864,23.971,39.246,24.604,39.818,24.963z"/>
	<path d="M53.059,65.729V40.69h-26.9c-0.147,0-0.29,0.037-0.432,0.091L14.76,34.45l-0.009,0.015
		c-0.354-0.183-0.749-0.296-1.175-0.296c-1.421,0-2.573,1.152-2.573,2.572c0,0.909,0.474,1.704,1.185,2.162l-0.019,0.033
		l11.112,6.416c-0.429,1.868-0.685,4.162-0.685,6.651c0,5.261,1.133,9.669,2.664,10.936L18.996,73.79
		c-0.464,0.595-0.751,1.333-0.751,2.146c0,1.939,1.572,3.512,3.512,3.512c1.134,0,2.132-0.547,2.774-1.382l0.06,0.035l7.327-12.691
		L39.245,78.1l0.06-0.034c0.642,0.835,1.64,1.382,2.774,1.382c1.94,0,3.512-1.572,3.512-3.512c0-0.812-0.287-1.551-0.751-2.146
		l-4.732-8.195c2.467,0.142,5.146,0.22,7.951,0.22C49.78,65.815,51.452,65.785,53.059,65.729z"/>
	<path d="M70.685,63.13c1.151-0.649,2.112-3.049,2.597-6.305L57.059,40.602v22.686L50.995,73.79
		c-0.464,0.595-0.751,1.333-0.751,2.146c0,1.939,1.572,3.512,3.512,3.512c1.134,0,2.132-0.547,2.774-1.382l0.06,0.035l7.327-12.691
		L71.245,78.1l0.06-0.034c0.642,0.835,1.64,1.382,2.774,1.382c1.94,0,3.512-1.572,3.512-3.512c0-0.812-0.287-1.551-0.751-2.146
		L70.685,63.13z"/>
	<path d="M88.997,41.676c0-0.83-0.409-1.56-1.031-2.015l-3.906-3.906V31.69c0-1.528-0.879-2.837-2.151-3.49l-5.054-2.918
		l-0.014,0.024c-0.425-0.252-0.898-0.426-1.406-0.503l-2.454-4.25l-5.098,8.83l-8.193,8.192l13.919,13.919
		c-0.016-1.062-0.069-2.091-0.17-3.058l2.746-2.746h7.875h2v-0.027l2.174-2.174l-0.01-0.01
		C88.698,43.023,88.997,42.386,88.997,41.676z"/>
</g>
</svg>
