<?xml version="1.0" encoding="utf-8"?>
<!-- Generator: Adobe Illustrator 17.0.0, SVG Export Plug-In . SVG Version: 6.00 Build 0)  -->
<!DOCTYPE svg PUBLIC "-//W3C//DTD SVG 1.1//EN" "http://www.w3.org/Graphics/SVG/1.1/DTD/svg11.dtd">
<svg version="1.1" id="Layer_1" xmlns="http://www.w3.org/2000/svg" xmlns:xlink="http://www.w3.org/1999/xlink" x="0px" y="0px"
	 width="100px" height="100px" viewBox="0 0 100 100" enable-background="new 0 0 100 100" xml:space="preserve">
<g>
	<path d="M27.328,28.507c-8.252,0-14.941,6.689-14.941,14.941s6.689,14.941,14.941,14.941c1.357,0,2.472-0.997,2.676-2.296h0.043
		V31.227C30.047,29.726,28.829,28.507,27.328,28.507z"/>
	<path d="M87.614,16.314c0-1.501-1.217-2.719-2.719-2.719c-0.623,0-1.19,0.218-1.648,0.57L59.321,27.979H37.753
		c-1.502,0-2.719,1.217-2.719,2.719v25.809h0.034c0.167,1.341,1.298,2.383,2.685,2.383h19.138l26.16,15.103
		c0.485,0.45,1.13,0.731,1.844,0.731c1.501,0,2.719-1.218,2.719-2.719c0-0.103-0.019-0.201-0.03-0.301h0.03v-4.604V21.074v-4.602
		h-0.016C87.601,16.419,87.614,16.369,87.614,16.314z"/>
	<path d="M56.212,79.572l-0.038-0.066c-0.013-0.024-0.019-0.049-0.033-0.073s-0.032-0.042-0.046-0.064L47.79,64.986l-0.031,0.018
		c-0.454-0.624-1.13-1.006-1.857-1.096v-0.03H38.68v0.018c-0.388,0.032-0.775,0.139-1.135,0.347
		c-1.301,0.75-1.746,2.414-0.995,3.714c0.064,0.11,0.142,0.206,0.219,0.303l-0.032,0.019l9.678,16.764
		c0.001,0.002,0.001,0.003,0.002,0.005c0.001,0.002,0.002,0.003,0.003,0.004l0.097,0.168l0.017-0.01
		c0.794,1.165,2.356,1.549,3.596,0.832c0.145-0.084,0.276-0.183,0.399-0.287l0.025,0.043l4.983-2.876l-0.023-0.04
		c0.965-0.797,1.264-2.165,0.691-3.306L56.212,79.572z"/>
</g>
</svg>
