<?xml version="1.0" encoding="utf-8"?>
<!-- Generator: Adobe Illustrator 17.0.0, SVG Export Plug-In . SVG Version: 6.00 Build 0)  -->
<!DOCTYPE svg PUBLIC "-//W3C//DTD SVG 1.1//EN" "http://www.w3.org/Graphics/SVG/1.1/DTD/svg11.dtd">
<svg version="1.1" id="Layer_1" xmlns="http://www.w3.org/2000/svg" xmlns:xlink="http://www.w3.org/1999/xlink" x="0px" y="0px"
	 width="100px" height="100px" viewBox="0 0 100 100" enable-background="new 0 0 100 100" xml:space="preserve">
<g>
	<path d="M89.307,12.5h-0.005V8.48c0-0.956-0.774-1.73-1.73-1.73h-2.45v0H56.431v0h-1.73L28.752,32.7v2.447v1.013v1.777h0.014
		c0.073,0.888,0.809,1.588,1.716,1.588h6.49h0c0.907,0,1.642-0.7,1.716-1.588h0.021V36.16h17.723c0.956,0,1.73-0.774,1.73-1.73
		V16.707H79.35l0,66.587H38.708v-3.012h-0.007c-0.001-0.954-0.775-1.728-1.73-1.728h-6.49h0c-0.955,0-1.729,0.773-1.73,1.728h0
		v8.792v2.447c0,0.956,0.774,1.73,1.73,1.73h1.582h53.925h1.582c0.956,0,1.73-0.774,1.73-1.73v-2.448h0.005L89.307,12.5z"/>
	<path d="M49.6,59.04c0-8.847-7.169-16.021-16.02-16.021c-8.851,0-16.02,7.174-16.02,16.021c0,2.99,0.834,5.78,2.26,8.175
		l-7.815,7.815l0.031,0.031c-0.831,0.795-1.344,1.919-1.344,3.194c0,2.463,1.962,4.39,4.423,4.39c1.257,0,2.379-0.506,3.181-1.324
		l0.022,0.022l8.024-8.024c2.176,1.105,4.63,1.741,7.238,1.741C42.431,75.059,49.6,67.887,49.6,59.04z M24.282,59.039
		c0-5.135,4.162-9.298,9.299-9.298c5.137,0,9.298,4.163,9.298,9.298c0,5.136-4.161,9.299-9.298,9.299
		C28.443,68.338,24.282,64.175,24.282,59.039z"/>
</g>
</svg>
