<?xml version="1.0" encoding="utf-8"?>
<!-- Generator: Adobe Illustrator 17.0.0, SVG Export Plug-In . SVG Version: 6.00 Build 0)  -->
<!DOCTYPE svg PUBLIC "-//W3C//DTD SVG 1.1//EN" "http://www.w3.org/Graphics/SVG/1.1/DTD/svg11.dtd">
<svg version="1.1" id="Layer_1" xmlns="http://www.w3.org/2000/svg" xmlns:xlink="http://www.w3.org/1999/xlink" x="0px" y="0px"
	 width="100px" height="100px" viewBox="0 0 100 100" enable-background="new 0 0 100 100" xml:space="preserve">
<g>
	<path fill-rule="evenodd" clip-rule="evenodd" fill="#231F20" d="M82.047,36.841c-4.124-5.139-9.91-8.112-15.372-8.112
		c-7.226,0-10.279,3.433-15.292,3.433c-5.167,0-9.096-3.428-15.346-3.428c-6.139,0-12.666,3.729-16.804,10.102
		c-5.823,8.962-4.837,25.824,4.605,40.193c3.377,5.138,7.887,10.916,13.784,10.971c5.241,0.048,6.724-3.343,13.835-3.383
		c7.112-0.039,8.457,3.42,13.697,3.371c5.897-0.056,10.655-6.454,14.03-11.593c2.419-3.681,3.32-5.541,5.199-9.702
		C70.732,63.535,68.537,44.246,82.047,36.841z"/>
	<path fill-rule="evenodd" clip-rule="evenodd" fill="#231F20" d="M61.194,22.988c2.625-3.368,4.619-8.126,3.895-12.988
		c-4.288,0.296-9.304,3.023-12.232,6.58c-2.658,3.228-4.853,8.015-3.999,12.668C53.539,29.393,58.383,26.596,61.194,22.988z"/>
</g>
</svg>
