<?xml version="1.0" encoding="utf-8"?>
<!-- Generator: Adobe Illustrator 17.0.0, SVG Export Plug-In . SVG Version: 6.00 Build 0)  -->
<!DOCTYPE svg PUBLIC "-//W3C//DTD SVG 1.1//EN" "http://www.w3.org/Graphics/SVG/1.1/DTD/svg11.dtd">
<svg version="1.1" id="Layer_1" xmlns="http://www.w3.org/2000/svg" xmlns:xlink="http://www.w3.org/1999/xlink" x="0px" y="0px"
	 width="100px" height="100px" viewBox="0 0 100 100" enable-background="new 0 0 100 100" xml:space="preserve">
<g>
	<path fill-rule="evenodd" clip-rule="evenodd" d="M74.121,14H25.88C19.351,14,14,19.351,14,25.88v48.24
		C14,80.65,19.351,86,25.88,86h48.241C80.65,86,86,80.65,86,74.12V25.88C86,19.351,80.65,14,74.121,14z M71.821,57.982
		c-0.044,7.649-6.264,13.913-13.928,13.913H41.886c-7.664,0-13.928-6.264-13.928-13.913V41.725c0-7.665,6.264-13.943,13.928-13.943
		h9.743c3.596,0.428,8.829,3.508,10.759,7.605c0.531,1.149,0.81,1.326,1.253,4.73c0.236,1.754,0.354,3.051,1.135,3.773
		c1.105,1.002,5.203,0.324,6.014,0.958l0.619,0.486l0.368,0.767l0.133,0.619L71.821,57.982z"/>
	<path fill-rule="evenodd" clip-rule="evenodd" d="M42.063,44.495h7.724c1.474,0,2.668-1.209,2.668-2.668
		c0-1.459-1.194-2.653-2.668-2.653h-7.724c-1.474,0-2.667,1.194-2.667,2.653C39.396,43.286,40.589,44.495,42.063,44.495z"/>
	<path fill-rule="evenodd" clip-rule="evenodd" d="M57.76,55.122H42.063c-1.474,0-2.667,1.193-2.667,2.653
		c0,1.443,1.194,2.652,2.667,2.652H57.76c1.459,0,2.653-1.209,2.653-2.652C60.414,56.315,59.219,55.122,57.76,55.122z"/>
</g>
</svg>
