<?xml version="1.0" encoding="utf-8"?>
<!-- Generator: Adobe Illustrator 17.0.0, SVG Export Plug-In . SVG Version: 6.00 Build 0)  -->
<!DOCTYPE svg PUBLIC "-//W3C//DTD SVG 1.1//EN" "http://www.w3.org/Graphics/SVG/1.1/DTD/svg11.dtd">
<svg version="1.1" id="Layer_1" xmlns="http://www.w3.org/2000/svg" xmlns:xlink="http://www.w3.org/1999/xlink" x="0px" y="0px"
	 width="100px" height="100px" viewBox="0 0 100 100" enable-background="new 0 0 100 100" xml:space="preserve">
<g>
	<path d="M23.851,26.072c0,0,0,0,0.005,0h7.331c0.42,0,0.758-0.342,0.759-0.758c0-0.004-0.089-6.286-0.089-8.033V17.26
		c0-1.436,0.301-2.686,0.826-3.735l0.25-0.471c-0.027,0.005-0.055,0.019-0.083,0.048L18.605,27.226
		c-0.028,0.022-0.045,0.052-0.054,0.083c0.295-0.147,0.698-0.345,0.755-0.37C20.546,26.379,22.051,26.072,23.851,26.072z"/>
	<path d="M80.894,24.535c-0.582-3.117-2.435-4.654-4.111-5.258c-1.808-0.653-5.474-1.33-10.08-1.873
		c-3.706-0.436-8.06-0.401-10.691-0.32c-0.316-2.162-1.833-4.138-3.53-4.822c-4.522-1.818-11.509-1.381-13.303-0.878
		c-1.425,0.398-3.003,1.216-3.881,2.474c-0.589,0.84-0.971,1.917-0.974,3.421c0,0.852,0.024,2.856,0.045,4.639
		c0.022,1.788,0.045,3.386,0.045,3.398c-0.001,1.591-1.291,2.887-2.889,2.889h-7.332c-1.564,0-2.759,0.264-3.672,0.678
		c-0.914,0.414-1.561,0.975-2.053,1.637c-0.979,1.312-1.15,2.936-1.145,4.592c0,0,0.014,1.352,0.34,3.971
		c0.271,2.026,2.468,16.182,4.555,20.485c0.809,1.674,1.349,2.372,2.938,3.109c3.542,1.518,11.633,3.205,15.424,3.688
		c3.785,0.484,6.161,1.503,7.577-1.467c0.004-0.006,0.283-0.738,0.667-1.81c1.229-3.724,1.4-7.03,1.4-9.42
		c0-0.243,0.356-0.255,0.356,0c0,1.689-0.323,7.662,4.191,9.265c1.781,0.632,5.478,1.195,9.233,1.635
		c3.396,0.391,5.86,1.729,5.86,10.439c0,5.301-1.113,6.027-6.933,6.027c-4.719,0-6.517,0.122-6.517-3.626
		c0-3.028,2.997-2.712,5.217-2.712c0.992,0,0.272-0.737,0.272-2.606c0-1.86,1.163-2.934,0.063-2.962
		c-7.678-0.211-12.196-0.01-12.196,9.594c0,8.717,3.336,10.337,14.234,10.337c8.544,0,11.556-0.28,15.084-11.227
		c0.698-2.162,2.386-8.756,3.409-19.829C83.144,51,81.89,29.869,80.894,24.535z M66,47.892c-1.056-0.037-2.07,0.028-3.018,0.182
		c0.268-2.153,1.155-4.793,4.301-4.682c3.483,0.119,3.972,3.411,3.984,5.642C69.798,48.378,67.98,47.961,66,47.892z"/>
</g>
</svg>
