<?xml version="1.0" encoding="utf-8"?>
<!-- Generator: Adobe Illustrator 17.0.0, SVG Export Plug-In . SVG Version: 6.00 Build 0)  -->
<!DOCTYPE svg PUBLIC "-//W3C//DTD SVG 1.1//EN" "http://www.w3.org/Graphics/SVG/1.1/DTD/svg11.dtd">
<svg version="1.1" id="Layer_1" xmlns="http://www.w3.org/2000/svg" xmlns:xlink="http://www.w3.org/1999/xlink" x="0px" y="0px"
	 width="100px" height="100px" viewBox="0 0 100 100" enable-background="new 0 0 100 100" xml:space="preserve">
<g>
	<g>
		<path fill="#231F20" d="M79.048,14H20.952C17.128,14,14,17.128,14,20.952v58.096C14,82.872,17.128,86,20.952,86h58.096
			C82.872,86,86,82.872,86,79.048V20.952C86,17.128,82.872,14,79.048,14z M74.41,36.852c-0.565,2.938-4.314,13.219-11.107,22.297
			c-2.97,3.836-6.442,7.604-10.897,10.206c-1.643,0.96-4.893,2.172-7.052,1.266c-1.512-0.629-2.672-1.955-3.601-3.617
			c-1.672-2.998-2.577-7.097-3.362-10.206c-0.725-2.851-1.405-5.558-2.291-8.036c-0.516-1.455-0.83-2.927-1.43-4.325
			c-0.003-0.005-0.006-0.01-0.009-0.014c0.003,0.004,0.005,0.009,0.007,0.014c-0.024-0.038-0.045-0.069-0.068-0.104
			c0.02,0.03,0.041,0.059,0.061,0.091c-0.168-0.39-0.352-0.773-0.577-1.148c-1.7-2.828-4.133-0.11-6.686-0.481
			c-0.689-0.1-1.211-0.595-1.549-1.121C25.655,41.373,26,41.062,25,40.81v-0.275c4-2.916,7.17-6.455,11.46-8.939
			c1.345-0.782,3.736-1.668,5.591-1.129c1.46,0.422,2.791,1.779,3.508,3.752c0.002,0,0.002,0,0.002,0
			c0.131,0,0.247,0.651,0.34,0.942c0.715,2.214,1.099,5.043,1.463,7.194c0.577,3.387,0.481,8.631,2.415,11.59h0.002
			c0.255,0,0.544,0.686,0.875,1.038c3.169,3.345,5.587-1.36,6.878-3.724c1.116-2.052,2.115-4.219,2.288-6.172
			c0.099-1.107,0.045-2.004-0.15-2.699c-0.553-1.973-2.255-2.446-4.921-2.355c-0.34,0.012-0.694,0.027-1.064,0.056
			c2.424-7.427,9.553-10.53,11.658-10.848c2.593-0.39,6.372-0.312,8.149,1.907c0.356,0.441,0.611,0.927,0.79,1.436
			C74.74,33.897,74.675,35.389,74.41,36.852z"/>
	</g>
</g>
</svg>
