<?xml version="1.0" encoding="utf-8"?>
<!-- Generator: Adobe Illustrator 17.0.0, SVG Export Plug-In . SVG Version: 6.00 Build 0)  -->
<!DOCTYPE svg PUBLIC "-//W3C//DTD SVG 1.1//EN" "http://www.w3.org/Graphics/SVG/1.1/DTD/svg11.dtd">
<svg version="1.1" id="Layer_1" xmlns="http://www.w3.org/2000/svg" xmlns:xlink="http://www.w3.org/1999/xlink" x="0px" y="0px"
	 width="100px" height="100px" viewBox="0 0 100 100" enable-background="new 0 0 100 100" xml:space="preserve">
<g>
	<path d="M80.161,60.442l-15.66-7.47l-6.622-3.159c0.166-0.105,0.324-0.224,0.487-0.335h8.695c1.346,0,2.438-1.091,2.438-2.438
		v-6.415h-0.022c-0.266-8.94-3.371-16.805-8.034-21.737c-2.459-2.773-5.646-4.657-9.211-5.22c-0.159-0.026-0.318-0.05-0.478-0.071
		c-0.184-0.023-0.367-0.046-0.553-0.061c-0.398-0.035-0.798-0.059-1.202-0.059h0h0c-0.001,0-0.001,0-0.002,0
		c-0.398,0-0.791,0.023-1.183,0.057c-0.188,0.016-0.374,0.039-0.56,0.062c-0.156,0.02-0.311,0.042-0.465,0.068
		c-3.536,0.553-6.701,2.408-9.153,5.141c-4.708,4.927-7.847,12.829-8.115,21.821H30.5v6.415c0,1.346,1.091,2.438,2.438,2.438h8.719
		c0.238,0.162,0.475,0.327,0.721,0.475l-6.342,2.953l-16.168,7.53c-1.405,0.658-2.327,2.242-2.327,4.011v15.062v2.703
		c0,2.381,1.659,4.311,3.708,4.311h57.504c2.049,0,3.708-1.93,3.708-4.311v-2.703V64.446C82.46,62.683,81.552,61.114,80.161,60.442z
		"/>
</g>
</svg>
