<?xml version="1.0" encoding="utf-8"?>
<!-- Generator: Adobe Illustrator 17.0.0, SVG Export Plug-In . SVG Version: 6.00 Build 0)  -->
<!DOCTYPE svg PUBLIC "-//W3C//DTD SVG 1.1//EN" "http://www.w3.org/Graphics/SVG/1.1/DTD/svg11.dtd">
<svg version="1.1" id="Layer_1" xmlns="http://www.w3.org/2000/svg" xmlns:xlink="http://www.w3.org/1999/xlink" x="0px" y="0px"
	 width="100px" height="100px" viewBox="0 0 100 100" enable-background="new 0 0 100 100" xml:space="preserve">
<g>
	<path fill="#231F20" d="M50,12.5c-20.712,0-37.5,16.793-37.5,37.502C12.5,70.712,29.288,87.5,50,87.5
		c20.712,0,37.5-16.788,37.5-37.498C87.5,29.293,70.712,12.5,50,12.5z M50,77.561c-15.199,0-27.56-12.362-27.56-27.559
		c0-15.195,12.362-27.562,27.56-27.562c15.198,0,27.56,12.367,27.56,27.562C77.56,65.198,65.198,77.561,50,77.561z"/>
	<circle fill="#231F20" cx="49.63" cy="32.546" r="4.723"/>
	<path fill="#231F20" d="M65.892,48.189l-8.973-8.974c-0.029-0.031-0.059-0.06-0.089-0.089l-0.061-0.061l-0.006,0.006
		c-0.391-0.342-0.897-0.556-1.457-0.556c-0.051,0-0.098,0.012-0.148,0.015H44.703c-0.003,0-0.005-0.001-0.008-0.001
		c-0.561,0-1.067,0.214-1.458,0.557l-0.005-0.005l-0.055,0.055c-0.035,0.032-0.068,0.065-0.1,0.1l-8.968,8.968l0.015,0.015
		c-0.361,0.359-0.584,0.856-0.584,1.406c0,1.097,0.889,1.986,1.986,1.986c0.549,0,1.046-0.223,1.406-0.583l0.003,0.003l6.673-6.673
		v0.004c0.115-0.118,0.275-0.192,0.452-0.192c0.35,0,0.634,0.284,0.634,0.635h0v6.032v6.1v12.334c0,1.282,1.04,2.322,2.323,2.322
		c1.282,0,2.322-1.04,2.322-2.322V56.935h0.017c0-0.356,0.288-0.644,0.643-0.644c0.355,0,0.643,0.288,0.643,0.644h0.017v12.334
		c0,1.282,1.04,2.322,2.322,2.322c1.283,0,2.323-1.04,2.323-2.322V56.935v-6.1v-5.96h0.02c-0.005-0.034-0.02-0.064-0.02-0.099
		c0-0.35,0.284-0.633,0.635-0.633c0.155,0,0.292,0.062,0.402,0.155v-0.007l0.021,0.021c0.015,0.014,0.029,0.027,0.042,0.042
		l6.66,6.661l0.003-0.003c0.36,0.36,0.857,0.583,1.406,0.583c1.097,0,1.986-0.889,1.986-1.986c0-0.549-0.223-1.046-0.584-1.406
		L65.892,48.189z"/>
</g>
</svg>
