<?xml version="1.0" encoding="utf-8"?>
<!-- Generator: Adobe Illustrator 17.0.0, SVG Export Plug-In . SVG Version: 6.00 Build 0)  -->
<!DOCTYPE svg PUBLIC "-//W3C//DTD SVG 1.1//EN" "http://www.w3.org/Graphics/SVG/1.1/DTD/svg11.dtd">
<svg version="1.1" id="Layer_1" xmlns="http://www.w3.org/2000/svg" xmlns:xlink="http://www.w3.org/1999/xlink" x="0px" y="0px"
	 width="100px" height="100px" viewBox="0 0 100 100" enable-background="new 0 0 100 100" xml:space="preserve">
<g>
	<path d="M64.603,35.504c-0.032-1.506-1.259-2.719-2.774-2.72c-0.047,0-0.091,0.012-0.138,0.014h-2.039V17.776h0l0-0.002
		c-0.001-0.929-0.755-1.683-1.684-1.684H41.765v0.03c-0.788,0.141-1.386,0.826-1.386,1.654c0,0.001,0,0.003,0,0.004l0,15.018h-2.052
		c-0.043-0.002-0.083-0.013-0.126-0.013c-1.515,0-2.742,1.213-2.774,2.72h-0.036l0,45.625h0.001c0,1.535,1.245,2.78,2.78,2.781
		c0.005,0,0.01-0.001,0.014-0.001l23.638,0c0.002,0,0.004,0,0.005,0c1.534,0,2.779-1.244,2.78-2.779h0V35.504H64.603z
		 M54.665,32.798l-9.329,0l0-11.72h9.329L54.665,32.798z"/>
	<rect x="47.506" y="27.933" width="4.988" height="2.072"/>
</g>
</svg>
