<?xml version="1.0" encoding="utf-8"?>
<!-- Generator: Adobe Illustrator 17.0.0, SVG Export Plug-In . SVG Version: 6.00 Build 0)  -->
<!DOCTYPE svg PUBLIC "-//W3C//DTD SVG 1.1//EN" "http://www.w3.org/Graphics/SVG/1.1/DTD/svg11.dtd">
<svg version="1.1" id="Layer_1" xmlns="http://www.w3.org/2000/svg" xmlns:xlink="http://www.w3.org/1999/xlink" x="0px" y="0px"
	 width="100px" height="100px" viewBox="0 0 100 100" enable-background="new 0 0 100 100" xml:space="preserve">
<g>
	<path d="M88.553,43.441l-10.276-1.013c-0.661-2.466-1.644-4.832-2.936-7.059l6.561-7.993c0.703-0.859,0.639-2.111-0.145-2.893
		l-6.24-6.243c-0.42-0.419-0.97-0.633-1.525-0.633c-0.485,0-0.97,0.162-1.369,0.491L64.63,24.66
		c-2.231-1.293-4.596-2.276-7.06-2.936l-1.011-10.278C56.45,10.342,55.522,9.5,54.412,9.5h-8.823c-1.11,0-2.038,0.842-2.148,1.946
		L42.43,21.727c-2.464,0.66-4.829,1.643-7.054,2.936l-7.998-6.564c-0.4-0.329-0.884-0.49-1.369-0.49
		c-0.555,0-1.105,0.212-1.525,0.633l-6.24,6.241c-0.784,0.782-0.848,2.037-0.145,2.893l6.566,7.996
		c-1.291,2.225-2.277,4.59-2.936,7.057l-10.281,1.013C10.343,43.547,9.5,44.477,9.5,45.587v8.825c0,1.11,0.843,2.04,1.947,2.146
		l10.281,1.013c0.659,2.466,1.644,4.829,2.936,7.054l-6.562,7.994c-0.708,0.858-0.648,2.111,0.14,2.895l6.24,6.242
		c0.42,0.418,0.97,0.631,1.525,0.631c0.485,0,0.97-0.162,1.369-0.489l7.993-6.562c2.231,1.293,4.59,2.276,7.06,2.938l1.011,10.279
		c0.109,1.104,1.038,1.946,2.148,1.946h8.823c1.11,0,2.039-0.842,2.148-1.946l1.011-10.278c2.469-0.66,4.829-1.643,7.06-2.939
		l7.993,6.562c0.4,0.327,0.884,0.489,1.369,0.489c0.555,0,1.105-0.213,1.525-0.631l6.24-6.242c0.788-0.783,0.848-2.037,0.14-2.895
		l-6.557-7.991c1.292-2.228,2.275-4.591,2.936-7.057l10.276-1.013c1.104-0.109,1.947-1.036,1.947-2.146v-8.825
		C90.5,44.477,89.657,43.55,88.553,43.441z M50.002,61.95c-6.603,0-11.953-5.351-11.953-11.95c0-6.602,5.351-11.951,11.953-11.951
		c6.598,0,11.948,5.349,11.948,11.951C61.951,56.599,56.6,61.95,50.002,61.95z"/>
</g>
</svg>
