<?xml version="1.0" encoding="utf-8"?>
<!-- Generator: Adobe Illustrator 17.0.0, SVG Export Plug-In . SVG Version: 6.00 Build 0)  -->
<!DOCTYPE svg PUBLIC "-//W3C//DTD SVG 1.1//EN" "http://www.w3.org/Graphics/SVG/1.1/DTD/svg11.dtd">
<svg version="1.1" id="Layer_1" xmlns="http://www.w3.org/2000/svg" xmlns:xlink="http://www.w3.org/1999/xlink" x="0px" y="0px"
	 width="100px" height="100px" viewBox="0 0 100 100" enable-background="new 0 0 100 100" xml:space="preserve">
<g>
	<g>
		<g>
			<path d="M56.774,10.391c-17.679,0-32,14.329-32,32c0,6.044,1.676,11.695,4.588,16.517L13.845,74.423l0.054,0.054
				c-1.656,1.585-2.673,3.835-2.673,6.378c-0.001,4.913,3.913,8.755,8.821,8.754c2.507-0.001,4.749-1.004,6.349-2.636l0.039,0.039
				l16.008-16.009c4.312,2.163,9.176,3.388,14.33,3.388c17.68,0,32-14.327,32-32C88.773,24.72,74.453,10.391,56.774,10.391z
				 M56.968,61.808c-11.05,0-20-8.954-20-20c0-11.044,8.951-20,20-20c11.05,0,20,8.955,20,20
				C76.968,52.854,68.018,61.808,56.968,61.808z"/>
			<path d="M68.739,37.099H45.197c-0.868,0-1.57,0.702-1.57,1.569h0v6.278c0,0.867,0.702,1.569,1.57,1.569h23.542
				c0.868,0,1.57-0.703,1.57-1.569v-6.278h0C70.308,37.802,69.606,37.099,68.739,37.099z"/>
		</g>
	</g>
</g>
</svg>
