<svg xmlns="http://www.w3.org/2000/svg" viewBox="0 0 64 64" enable-background="new 0 0 64 64"><g fill="#94989b"><path d="m32 62c-16.543 0-30-13.457-30-30 0-16.542 13.457-30 30-30 16.541 0 30 13.458 30 30 0 16.543-13.459 30-30 30m0-56c-14.336 0-26 11.663-26 26 0 14.338 11.664 26 26 26s26-11.662 26-26c0-14.337-11.664-26-26-26"/><path d="M48,27.301C48,20.519,42.797,15,36.4,15H20v22.646V39.6v8.607h4V39.6h11.1l4.271,9.4l3.656-1.584
		l-3.734-8.22C44.291,37.828,48,33.022,48,27.301z M36.4,35.693H24V18.906h12.4c4.189,0,7.6,3.766,7.6,8.395
		C44,31.928,40.59,35.693,36.4,35.693z"/></g></svg>