<svg xmlns="http://www.w3.org/2000/svg" viewBox="0 0 64 64" enable-background="new 0 0 64 64"><path fill="#ed4c5c" d="M47.971,6.61C43.346,3.694,37.871,2,32,2v4.61H47.971z"/><path fill="#fff" d="M32,11.22h21.625c-1.688-1.755-3.584-3.305-5.654-4.61H32V11.22z"/><path fill="#ed4c5c" d="M32,15.83h25.262c-1.061-1.655-2.279-3.198-3.637-4.61H32V15.83z"/><path fill="#fff" d="m32 20.439h27.688c-.674-1.614-1.49-3.153-2.426-4.61h-25.26v4.61"/><path fill="#ed4c5c" d="m32 25.05h29.18c-.377-1.588-.875-3.13-1.494-4.61h-27.688v4.61"/><path fill="#fff" d="m32 29.659h29.9c-.121-1.573-.363-3.113-.719-4.61h-29.18v4.61"/><path fill="#ed4c5c" d="m61.9 29.659h-29.9v2.341h-30c0 .764.037 1.52.094 2.27h59.812c.055-.75.094-1.506.094-2.27 0-.789-.041-1.567-.1-2.341"/><path fill="#fff" d="m2.801 38.879h58.4c.352-1.496.59-3.036.709-4.609h-59.812c.117 1.573.356 3.113.707 4.609"/><path fill="#ed4c5c" d="m4.284 43.488h55.43c.613-1.479 1.107-3.02 1.48-4.609h-58.4c.373 1.588.867 3.13 1.483 4.609"/><path fill="#fff" d="m6.692 48.1h50.617c.928-1.457 1.738-2.997 2.408-4.61h-55.43c.67 1.613 1.478 3.153 2.408 4.61"/><path fill="#ed4c5c" d="m10.305 52.709h43.39c1.35-1.413 2.561-2.956 3.615-4.61h-50.616c1.055 1.654 2.266 3.197 3.613 4.61"/><path fill="#fff" d="m15.917 57.32h32.17c2.053-1.308 3.936-2.857 5.609-4.609h-43.39c1.674 1.752 3.557 3.302 5.612 4.609"/><path fill="#ed4c5c" d="M32,62c5.92,0,11.434-1.722,16.084-4.682H15.917C20.564,60.278,26.08,62,32,62z"/><path fill="#428bc1" d="m16.03 6.61c-2.068 1.305-3.967 2.854-5.654 4.61-1.355 1.412-2.574 2.955-3.637 4.61-.934 1.457-1.75 2.996-2.426 4.61-.617 1.479-1.115 3.02-1.492 4.61-.355 1.497-.598 3.037-.719 4.61-.06.773-.1 1.551-.1 2.34h30v-2.341-4.61-4.61-4.61-4.61-4.609-4.61c-5.873 0-11.346 1.694-15.972 4.61"/><g fill="#fff"><path d="m25 3l.473 1.482h1.527l-1.236.98.476 1.514-1.24-.899-1.236.923.476-1.542-1.24-.976h1.527z"/><path d="m29 9l.473 1.482h1.527l-1.236.98.476 1.514-1.24-.896-1.236.92.476-1.542-1.24-.976h1.527z"/><path d="m21 9l.473 1.482h1.527l-1.236.98.476 1.514-1.24-.896-1.236.92.472-1.542-1.236-.976h1.527z"/><path d="m25 15l.473 1.482h1.527l-1.236.98.476 1.514-1.24-.896-1.236.92.476-1.542-1.24-.976h1.527z"/><path d="m17 15l.473 1.482h1.527l-1.236.98.473 1.514-1.237-.896-1.236.92.473-1.542-1.237-.976h1.528z"/><path d="m9 15l.473 1.482h1.527l-1.236.98.473 1.514-1.237-.896-1.236.92.473-1.542-1.237-.976h1.528z"/><path d="m29 21l.473 1.482h1.527l-1.236.98.476 1.514-1.24-.896-1.236.92.476-1.542-1.24-.976h1.527z"/><path d="m21 21l.473 1.482h1.527l-1.236.98.476 1.514-1.24-.896-1.236.92.472-1.542-1.236-.976h1.527z"/><path d="m13 21l.473 1.482h1.527l-1.236.98.473 1.514-1.237-.896-1.236.92.473-1.542-1.237-.976h1.528z"/><path d="m25 27l.473 1.482h1.527l-1.236.98.476 1.515-1.24-.897-1.236.92.476-1.541-1.24-.977h1.527z"/><path d="m17 27l.473 1.482h1.527l-1.236.98.473 1.515-1.237-.897-1.236.92.473-1.541-1.237-.977h1.528z"/><path d="m9 27l.473 1.482h1.527l-1.236.98.473 1.515-1.237-.897-1.236.92.473-1.541-1.237-.977h1.528z"/><path d="m11.764 13l1.236-.923 1.236.899-.473-1.514 1.237-.98h-1.527l-.473-1.482-.473 1.482h-1.422c-.016.016-.031.03-.047.046l1.178.931-.472 1.541"/><path d="m3.764 25l1.236-.923 1.236.899-.473-1.514 1.237-.98h-1.527l-.473-1.482-.473 1.482h-.976c-.039.115-.08.228-.117.343l.803.633-.473 1.542"/></g></svg>