<svg xmlns="http://www.w3.org/2000/svg" viewBox="0 0 64 64" enable-background="new 0 0 64 64"><path fill="#2a5f9e" d="m14 8v48l24-24z"/><path fill="#ffce31" d="m56 14c-5.473-7.286-14.186-12-24-12-6.754 0-12.985 2.233-18 6l24 24 18-18"/><path fill="#ed4c5c" d="M56,50c3.768-5.014,6-11.246,6-18c0-6.753-2.232-12.985-6-17.999L38.001,32L56,50z"/><path fill="#699635" d="m38 32l-24 24c5.01 3.768 11.246 6 18 6 9.814 0 18.527-4.713 24-12l-17.999-18"/><path fill="#2a5f9e" d="M6,17.041C3.46,21.445,2,26.55,2,32c0,5.45,1.46,10.555,4,14.959V17.041z"/><path fill="#fff" d="m6 17.04v29.918c1.13 1.961 2.472 3.781 4 5.43v-40.777c-1.528 1.648-2.87 3.469-4 5.429"/><path fill="#ed4c5c" d="M10,11.612v40.776c1.223,1.318,2.56,2.529,4,3.611V8C12.56,9.082,11.223,10.293,10,11.612z"/><circle fill="#fff" cx="38" cy="32" r="12"/></svg>