<svg xmlns="http://www.w3.org/2000/svg" viewBox="0 0 64 64" enable-background="new 0 0 64 64"><path fill="#ed4c5c" d="M52,22.547c0,11.347-8.844,24.368-19.753,24.368c-10.91,0-19.752-13.021-19.752-24.368
		C12.495,11.199,21.337,2,32.247,2C43.156,2,52,11.199,52,22.547z"/><g fill="#94989b"><path d="m31.546 49.14c-.006-.035-.015-.09-.021-.133.003.029.011.072.021.133"/><path d="m31.551 49.17c-.002-.014-.003-.02-.005-.031l.005.031"/></g><path fill="#b2c1c0" d="m33.03 49.17h-1.476c0 1.82-.361 3.934-1.862 5.176-2.138 1.768-4.89.718-7.378.643-3.02-.092-5.559 1.193-7.74 3.192-.758.693-1.602 1.708-2.291 2.476-.785.875.252 1.924 1.058.965 1.548-1.844 2.574-3.129 4.635-4.295 2.583-1.461 4.963-.732 7.763-.58 3.207.172 6.103-1.355 7.02-4.65.198-.723.275-2.035.275-2.927"/><path fill="#94989b" d="m31.524 49c-.013-.076-.009-.053 0 0"/><path fill="#b2c1c0" d="m30.801 48.04c.965 0 1.932 0 2.894 0 .933 0 .933-1.273 0-1.273-.962 0-1.929 0-2.894 0-.933 0-.933 1.273 0 1.273"/><path fill="#ed4c5c" d="m30.06 49.955c1.448 0 2.896 0 4.34 0 1.4 0 1.4-1.912 0-1.912-1.444 0-2.892 0-4.34 0-1.402 0-1.402 1.912 0 1.912"/></svg>