<svg xmlns="http://www.w3.org/2000/svg" viewBox="0 0 64 64" enable-background="new 0 0 64 64"><path fill="#3e4347" d="m0 0h64v64h-64z"/><path fill="#d0d0d0" d="m30.914 32h2.174v32h-2.174z"/><path fill="#ffdd7d" d="M32 3.2 34.967 22.869 48.928 8.7 39.768 26.357 59.39 23.1 41.6 32 59.39 40.898 39.768 37.643 48.928 55.3 34.967 41.13 32 60.799 29.03 41.13 15.07 55.3 24.23 37.643 4.61 40.898 22.401 32 4.61 23.1 24.23 26.357 15.07 8.7 29.03 22.869z"/><path fill="#ffce31" d="M25.326 52.54 27.768 37.824 14.526 44.695 25.15 34.23 10.401 32 25.15 29.774 14.526 19.304 27.768 26.17 25.326 11.457 32 24.799 38.676 11.456 36.23 26.17 49.48 19.304 38.848 29.774 53.6 32 38.848 34.23 49.48 44.695 36.23 37.824 38.676 52.54 32 39.2z"/><path fill="#fff" d="m41.521 18.893l-5.151 9.933 11.04-1.833-10.01 5.01 10.01 5.01-11.04-1.84 5.151 9.93-7.851-7.97-1.67 11.07-1.668-11.07-7.853 7.97 5.152-9.93-11.04 1.84 10.01-5.01-10.01-5.01 11.04 1.833-5.152-9.933 7.853 7.971 1.668-11.07 1.67 11.07z"/></svg>