<svg xmlns="http://www.w3.org/2000/svg" viewBox="0 0 64 64" enable-background="new 0 0 64 64"><path fill="#333" d="m12.889 2.692c0 7.5 0 57.34 0 58.62 0 3.59 5.563 3.59 5.563 0 0-7.5 0-57.34 0-58.62-.001-3.589-5.563-3.589-5.563 0"/><path fill="#6d7275" d="m4.79 43.18c2.754 0 19.01 0 21.759 0 2.613 0 4.791-2.473 4.791-5.437s-2.178-5.437-4.791-5.437c-2.752 0-19 0-21.759 0-2.61 0-4.79 2.473-4.79 5.437s2.179 5.437 4.79 5.437"/><path fill="#94989b" d="m5.1 40.607c2.682 0 18.458 0 21.14 0 2.544 0 4.665-1.889 4.665-4.149 0-2.262-2.121-4.148-4.665-4.148-2.681 0-18.458 0-21.14 0-2.543 0-4.665 1.887-4.665 4.148.001 2.261 2.122 4.149 4.665 4.149"/><g fill="#c7e755"><path d="m50.922 64h-13.192c-4.104 0-4.104-6.547 0-6.547h13.191c4.104 0 4.104 6.547.001 6.547"/><path d="m52.922 52.51h-15.192c-4.104 0-4.104-6.547 0-6.547h15.191c4.104 0 4.104 6.547.001 6.547"/><path d="m54.922 41.02h-17.192c-4.104 0-4.104-6.547 0-6.547h17.191c4.104 0 4.104 6.547.001 6.547"/></g><g fill="#5b636b"><path d="m56.922 29.529h-19.19c-4.104 0-4.104-6.548 0-6.548h19.19c4.104 0 4.104 6.548.001 6.548"/><path d="m58.922 18.04h-21.19c-4.104 0-4.104-6.547 0-6.547h21.19c4.104 0 4.104 6.547.001 6.547"/><path d="m60.922 6.548h-23.19c-4.104 0-4.104-6.547 0-6.547h23.19c4.104 0 4.104 6.547.001 6.547"/></g></svg>