<svg xmlns="http://www.w3.org/2000/svg" viewBox="0 0 64 64" enable-background="new 0 0 64 64"><path fill="#3e4347" d="m20.997 25.05v14.953c0 6.223 4.76 11 11 11 6.244 0 11-4.777 11-11v-14.953h-22.01"/><path fill="#94989b" d="M45,27v-1.953L43.003,25v7H45v-2h2v10.99c0,8.24-6.731,13.943-15,13.943S17,49.23,17,40.99V30h2v2h1.997
		v-6.953H19V27h-5v13.99C14,53.027,22.625,58,32,58s18-4.973,18-17.01V27H45z"/><g fill="#3e4347"><path d="m29 53h6v6h-6z"/><path d="m30 58h4v4h-4z"/></g><path fill="#d0d0d0" d="m32 0c-6.19 0-11 3.808-11 10v14.982l22.01.064v-15.05c0-6.192-4.812-10-11-10"/><g fill="#94989b"><path d="m27.865 15h-6.868v3h6.868c.762 0 1.378-.67 1.378-1.5 0-.826-.616-1.5-1.378-1.5"/><path d="m27.865 10h-6.868v3h6.868c.762 0 1.378-.672 1.378-1.5s-.616-1.5-1.378-1.5"/><path d="m36.13 15h6.869v3h-6.869c-.763 0-1.378-.67-1.378-1.5 0-.826.615-1.5 1.378-1.5"/><path d="m36.13 10h6.869v3h-6.869c-.763 0-1.378-.672-1.378-1.5s.615-1.5 1.378-1.5"/><path d="m27.865 20h-6.868v3h6.868c.762 0 1.378-.672 1.378-1.498 0-.829-.616-1.502-1.378-1.502"/><path d="m36.13 20h6.869v3h-6.869c-.763 0-1.378-.672-1.378-1.498 0-.829.615-1.502 1.378-1.502"/></g><path fill="#3e4347" d="m46 64h-28c0 0 6.297-3 14-3s14 3 14 3"/></svg>