<svg xmlns="http://www.w3.org/2000/svg" viewBox="0 0 64 64" enable-background="new 0 0 64 64"><path fill="#b4d7ee" d="m0 0h64v64h-64z"/><path fill="#f9f3d9" d="m64 27c0 0-11.877-2.999-16-2.999s-10.833 2.999-16 2.999c-4.271 0-11.727-3.999-15.999-3.999-4.751 0-16 .999-16 .999v24.997h64v-21.997"/><path fill="#ffdd7d" d="M0,34.657C0,34.657,16.001,29,32,29c8.016,0,32,7.543,32,7.543V64H0V34.657z"/><path fill="#dbb471" d="m0 47.822c0 0 6.877-2.822 11-2.822s16.888 6.859 21 6.588c4.261-.279 19.729-3.65 23.999-3.764 4.189-.109 8 .943 8 .943v15.233h-64v-16.178"/><g fill="#699635"><path d="m21.23 35.518c0 1.061.858 1.923 1.914 1.923 1.065 0 1.923-.862 1.923-1.923v-7.676c0-1.06-.857-1.918-1.923-1.918-1.056 0-1.914.858-1.914 1.918v7.676"/><path d="m15.466 33.6c-1.063 0-1.922.857-1.922 1.918 0 1.061.858 1.923 1.922 1.923h7.673c1.063 0 1.923-.862 1.923-1.923 0-1.061-.86-1.918-1.923-1.918h-7.673"/></g><path fill="#83bf4f" d="m15.848 17c-1.589 0-2.877 1.287-2.877 2.88v32.24c0 2.88 1.288 2.88 2.877 2.88s2.876 0 2.876-2.88v-32.24c0-1.593-1.287-2.88-2.876-2.88"/><g fill="#699635"><path d="m10.09 42.05c0 .795-.644 1.439-1.436 1.439-.798 0-1.441-.645-1.441-1.439v-5.756c0-.795.644-1.441 1.441-1.441.792 0 1.436.646 1.436 1.441v5.756"/><path d="m14.405 40.607c.799 0 1.442.643 1.442 1.438 0 .795-.644 1.439-1.442 1.439h-5.753c-.797 0-1.441-.645-1.441-1.439 0-.795.645-1.438 1.441-1.438h5.753"/></g><path fill="#f9f3d9" d="m3 52.5c0 1.104 1.343 1 3 1s3 .104 3-1-1.343-1.998-3-1.998-3 .895-3 1.998"/><path fill="#ffdd7d" d="m16.303 60.08c0 1.104 1.343 1 3 1s3 .104 3-1-1.343-1.998-3-1.998-3 .894-3 1.998"/><g fill="#89664c"><path d="m26 56.5c0 1.104 1.343 1 3 1s3 .104 3-1-1.343-1.998-3-1.998-3 .895-3 1.998"/><path d="m57.27 52.28c-2.708.754-5.443.303-8.153.455-.22-.601-.438-1.199-.656-1.801-.268-.733-1.401-.415-1.131.33.192.527.385 1.055.576 1.582-.431.058-.86.139-1.289.251-1.434.374-2.854.813-4.268 1.277 1.341-1.294 2.744-2.529 4.287-3.494.867-.545 1.988-.808 3.189-.926.047 0 .091-.007.137-.018.617-.055 1.253-.065 1.889-.061.484.692.969 1.383 1.451 2.073.443.635 1.463.02 1.014-.622-.328-.47-.659-.941-.988-1.412.986.045 1.93.108 2.729.13.758.02.755-1.213 0-1.232-1.49-.04-3.284-.192-5.04-.144.33-.48.66-.959.989-1.438.444-.646-.573-1.261-1.013-.623-.496.725-.995 1.446-1.492 2.171-1.113.126-2.172.368-3.07.835-1.769.922-3.363 2.333-4.852 3.797 1.013-1.975 2.217-3.929 3.933-4.982 3.281-2.01 6.658-3.106 10.394-2.416.738.136 1.055-1.052.311-1.189-3.738-.69-6.508.259-9.835 1.812.235-.438.47-.878.704-1.317.371-.695-.641-1.317-1.012-.622-.536 1-1.07 2-1.605 3-1.663 1.223-2.827 3.07-3.832 4.99.256-2.066.71-4.185 1.879-5.627 1.58-1.95 3.395-3.188 5.414-3.93.74.495 1.477.988 2.217 1.483.639.429 1.227-.639.59-1.066-.434-.289-.867-.579-1.301-.87 1.141-.27 2.336-.422 3.596-.448.756-.015.757-1.248 0-1.233-1.641.033-3.36 0-4.938.521-2.256.745-4.236 2.495-5.936 4.16-2.432 2.385-2.65 6.436-2.973 9.769-.258.088-.518.176-.776.266-.715.244-.41 1.436.312 1.188.412-.14.824-.273 1.237-.413 2.735 2.15 4.601 2.71 8.095 2.449 3.613-.27 5.736-.855 8.423-3.417.562-.533-.27-1.404-.829-.871-1.048.998-2.01 1.642-3.02 2.087-.381-.62-.761-1.239-1.141-1.858-.409-.666-1.424-.049-1.013.622.337.55.675 1.102 1.014 1.651-1.01.29-2.113.444-3.435.553-.612.05-1.249.117-1.885.138.355-.661.71-1.32 1.064-1.982.375-.693-.64-1.314-1.012-.623-.457.852-.916 1.703-1.373 2.555-.572-.07-1.128-.213-1.646-.491-.657-.351-1.281-.798-1.886-1.265 1.863-.621 3.729-1.224 5.616-1.747 3.487-.966 7.108.17 10.654-.819.731-.204.421-1.395-.311-1.189"/></g><path fill="#ffce31" d="m46 10.998c0 3.315 2.688 6 6 6s5.998-2.687 5.998-6c0-3.312-2.684-5.998-5.998-5.998s-6 2.686-6 5.998"/><g fill="#fff"><path d="m47.814 2.904c-2.531 1.357-4.165 3.581-4.549 6.619-.055.432.566.621.622.182.36-2.875 1.854-4.918 4.249-6.205.375-.197.046-.792-.322-.596"/><path d="m59.89 13.246c-.864 3.183-2.621 5.546-5.643 6.518-.397.127-.226.793.169.664 3.239-1.039 5.166-3.582 6.094-6.996.115-.43-.505-.611-.62-.186"/><path d="m44.16 12.998c.504 2.893 1.727 4.882 4.059 6.442.355.237.674-.36.326-.596-2.197-1.468-3.291-3.318-3.764-6.03-.078-.438-.697-.253-.621.183"/><path d="m58.6 6.146c-1.038-1.693-3.02-3.822-5.084-3.635-.411.038-.412.727 0 .689 1.818-.165 3.608 1.793 4.531 3.296.224.371.781.024.553-.35"/></g><g fill="#d6eef0"><path d="m50.827 21.312c-2.427-.037-4.457-.771-6.289-2.5-.312-.292-.769.195-.458.488 1.963 1.847 4.149 2.663 6.747 2.7.416.006.415-.684 0-.688"/><path d="m60.41 16.717c-.646 1.52-1.712 3.523-3.232 4.174-.38.16-.213.83.174.665 1.697-.726 2.885-2.781 3.613-4.491.168-.402-.385-.753-.555-.348"/><path d="m43.19 3.998c-2.339 2.255-1.914 7-.7 9.774.176.401.729.052.553-.349-1.09-2.495-1.5-6.912.604-8.938.307-.296-.148-.782-.457-.487"/><path d="m58.18 2.58c1.849 1.789 2.644 3.858 2.677 6.515.006.444.648.444.645 0-.037-2.83-.896-5.097-2.865-7-.31-.297-.765.188-.457.487"/></g></svg>