<svg xmlns="http://www.w3.org/2000/svg" viewBox="0 0 64 64" enable-background="new 0 0 64 64"><path fill="#231f20" d="M17.487,2C7.47,2,2.002,8.33,2.002,16.667v18.511h30.967V16.667c0-12.395-8.381-12.162-8.381-12.162
				S23.957,2,17.487,2z"/><path fill="#ffdd67" d="m6.444 23.642c0 0-2.23-.57-2.23-3.871 0-2.611 1.682-3.061 1.682-3.061 6.02 0 15.84-7.83 15.84-7.83s3.709 6.912 7.29 7.83c0 0 1.733.318 1.733 3.061 0 3.301-2.313 3.871-2.313 3.871-.031 4.979-6.83 10.984-10.959 10.984-4.13 0-11.04-6-11.04-10.984"/><path fill="#eba352" d="m20.252 25.916c0 1.086-2.25 1.398-2.766 1.398s-2.764-.385-2.764-1.469c.001 0 5.53-.472 5.53.071"/><path fill="#f5f5f5" d="m13.719 21.58c.652 0 .565-1.68.565-1.68-1.995-4.459-6.44-1.637-6.44-1.637-1.727.771.773 3.209 1.175 3.316 1.884.51 4.7.001 4.7.001"/><circle fill="#664e27" cx="11.12" cy="19.539" r="2.125"/><g fill="#231f20"><path d="m11.867 19.539c0 .416-.335.748-.749.748-.416 0-.751-.332-.751-.748 0-.414.335-.748.751-.748.414 0 .749.334.749.748"/><path d="m14.842 20.542c-.543-.662-1.082-1.301-1.705-1.787-.625-.48-1.326-.789-2.082-.836-.758-.074-1.551.088-2.373.244-.41.08-.836.158-1.278.184-.431.018-.946-.033-1.254-.363.404.16.802.076 1.188-.039.389-.111.774-.271 1.177-.406.796-.283 1.675-.516 2.608-.445.461.045.924.162 1.345.369.416.211.793.486 1.101.814.625.654 1.033 1.443 1.273 2.265"/></g><path fill="#f5f5f5" d="m21.252 21.58c-.65 0-.564-1.68-.564-1.68 1.994-4.459 6.439-1.637 6.439-1.637 1.729.771-.773 3.209-1.175 3.316-1.881.51-4.7.001-4.7.001"/><circle fill="#664e27" cx="23.855" cy="19.539" r="2.125"/><g fill="#231f20"><circle cx="23.856" cy="19.539" r=".75"/><path d="m20.13 20.542c.242-.822.65-1.611 1.273-2.266.309-.328.687-.604 1.102-.814.42-.207.885-.324 1.346-.369.932-.07 1.812.162 2.607.445.402.135.788.295 1.176.406.387.115.784.199 1.189.039-.307.33-.824.381-1.254.363-.443-.025-.867-.104-1.279-.184-.822-.156-1.615-.318-2.371-.244-.757.047-1.458.355-2.082.836-.625.488-1.162 1.126-1.707 1.788"/></g><path fill="#f09985" d="m19.45 28.576c-.4-.1-.988-.053-1.761.207-.069.02-.136.043-.202.064-.068-.021-.135-.045-.203-.064-.773-.26-1.359-.307-1.761-.207-1.198.291-3.01.148-3.01.148 1.32 1.32 1.948 3.121 4.978 3.121 3.03 0 3.656-1.801 4.977-3.121-.001 0-1.817.143-3.01-.148"/><path fill="#d47f6c" d="m19.45 28.576c-.4-.1-.988-.053-1.761.207-.069.02-.136.043-.202.064-.068-.021-.135-.045-.203-.064-.773-.26-1.359-.307-1.761-.207-1.177.285-3.02.148-3.01.148 1.992.359 2.241 1.377 4.978 1.377s2.983-1.018 4.977-1.377c.006 0-1.839.137-3.01-.148"/><path fill="#231f20" d="M46.52,2C36.502,2,31.034,8.33,31.034,16.667v18.511h30.968V16.667c0-12.395-8.383-12.162-8.383-12.162
				S52.988,2,46.52,2z"/><path fill="#ffdd67" d="m35.477 23.642c0 0-2.23-.57-2.23-3.871 0-2.611 1.68-3.061 1.68-3.061 6.02 0 15.842-7.83 15.842-7.83s3.709 6.912 7.289 7.83c0 0 1.734.318 1.734 3.061 0 3.301-2.313 3.871-2.313 3.871-.031 4.979-6.83 10.984-10.959 10.984-4.131 0-11.04-6-11.04-10.984"/><path fill="#eba352" d="m49.28 25.916c0 1.086-2.248 1.398-2.764 1.398-.518 0-2.766-.385-2.766-1.469.001 0 5.53-.472 5.53.071"/><path fill="#f5f5f5" d="m42.752 21.58c.65 0 .564-1.68.564-1.68-1.996-4.459-6.439-1.637-6.439-1.637-1.727.771.773 3.209 1.174 3.316 1.883.51 4.701.001 4.701.001"/><circle fill="#664e27" cx="40.15" cy="19.539" r="2.126"/><g fill="#231f20"><path d="m40.898 19.539c0 .416-.336.748-.75.748s-.75-.332-.75-.748c0-.414.336-.748.75-.748s.75.334.75.748"/><path d="m43.875 20.542c-.543-.662-1.082-1.301-1.707-1.787-.623-.48-1.326-.789-2.082-.836-.756-.074-1.549.088-2.371.244-.412.08-.836.158-1.279.184-.43.018-.947-.033-1.254-.363.404.16.803.076 1.189-.039.389-.111.773-.271 1.176-.406.797-.283 1.676-.516 2.609-.445.459.045.924.162 1.344.369.416.211.793.486 1.102.814.623.654 1.031 1.443 1.273 2.265"/></g><path fill="#f5f5f5" d="m50.28 21.58c-.65 0-.564-1.68-.564-1.68 1.996-4.459 6.441-1.637 6.441-1.637 1.729.771-.775 3.209-1.176 3.316-1.882.51-4.701.001-4.701.001"/><circle fill="#664e27" cx="52.888" cy="19.539" r="2.126"/><g fill="#231f20"><circle cx="52.887" cy="19.539" r=".75"/><path d="m49.16 20.542c.242-.822.648-1.611 1.273-2.266.309-.328.686-.604 1.102-.814.42-.207.883-.324 1.344-.369.934-.07 1.813.162 2.609.445.402.135.787.295 1.174.406.387.115.785.199 1.189.039-.307.33-.822.381-1.252.363-.443-.025-.869-.104-1.281-.184-.822-.156-1.613-.318-2.369-.244-.758.047-1.459.355-2.082.836-.625.488-1.162 1.126-1.707 1.788"/></g><path fill="#f09985" d="m48.48 28.576c-.402-.1-.988-.053-1.762.207-.068.02-.135.043-.201.064-.068-.021-.137-.045-.203-.064-.773-.26-1.361-.307-1.762-.207-1.197.291-3.01.148-3.01.148 1.32 1.32 1.947 3.121 4.979 3.121 3.03 0 3.656-1.801 4.977-3.121 0 0-1.816.143-3.01-.148"/><path fill="#d47f6c" d="m48.48 28.576c-.402-.1-.988-.053-1.762.207-.068.02-.135.043-.201.064-.068-.021-.137-.045-.203-.064-.773-.26-1.361-.307-1.762-.207-1.176.285-3.02.148-3.01.148 1.992.359 2.24 1.377 4.979 1.377 2.734 0 2.982-1.018 4.977-1.377.006 0-1.838.137-3.01-.148"/><path fill="#231f20" d="m32 32.966c8.517 0 13.761 4.775 13.761 10.708v3.982c0 4.684-3.705 4.684-3.703 4.684h-20.644c.001 0-3.177 0-3.177-4.684 0-2.207 0-3.982 0-3.982 0-5.933 5.527-10.708 13.763-10.708"/><path fill="#ffdd67" d="m44.47 48.7l-.516-5.65c0-3.611-5.666-.727-11.949-.727-6.284 0-11.951-2.885-11.951.727l-.513 5.65c-2.737 0-2.737 4.445 0 4.445 0 5.516 7.417 8.854 12.464 8.854 5.04 0 12.464-3.338 12.464-8.854 2.735.001 2.735-4.445.001-4.445"/><g opacity=".5" fill="#ff717f"><path d="m43.738 54.29c-.172-1.242-1.588-1.99-3.162-1.67-1.578.318-2.717 1.584-2.545 2.824.172 1.242 1.586 1.99 3.162 1.672 1.577-.32 2.715-1.584 2.545-2.826"/><path d="m23.427 52.624c-1.575-.32-2.991.428-3.161 1.67-.171 1.242.968 2.506 2.543 2.826 1.576.318 2.99-.43 3.162-1.672.17-1.24-.969-2.506-2.544-2.824"/></g><path fill="#574137" d="m28.475 55.27c-.066.076-.102.176-.102.295-.002.818 1.624 1.822 3.629 1.822 2 0 3.628-.996 3.628-1.814 0-.111-.031-.227-.086-.303 0 0-1.568.705-3.542.705-1.97 0-3.527-.705-3.527-.705"/><circle fill="#fff" cx="38.14" cy="49.21" r="3.629"/><ellipse fill="#664e27" cx="38.14" cy="49.21" rx="2.527" ry="2.498"/><ellipse fill="#231f20" cx="38.14" cy="49.21" rx=".851" ry=".84"/><circle fill="#fff" cx="25.865" cy="49.21" r="3.629"/><ellipse fill="#664e27" cx="25.864" cy="49.21" rx="2.527" ry="2.498"/><ellipse fill="#231f20" cx="25.864" cy="49.21" rx=".85" ry=".84"/></svg>