<svg xmlns="http://www.w3.org/2000/svg" viewBox="0 0 64 64" enable-background="new 0 0 64 64"><ellipse fill="#3e4347" cx="42.845" cy=".666" rx="9.06" ry=".667"/><path fill="#ed4c5c" d="m51.869.726c-.408.34-4.292.607-9.02.607-4.734 0-8.62-.267-9.02-.607l-.735 10.235c0 0 1.95 1.482 9.719 1.482 6.927 0 9.722-.741 9.722-.741l-.659-10.976"/><path fill="#c94747" d="m59.798 57.919c-11.467-6.666-10.35-20.875-10.35-26.516 0-3.503.548-12.21 1.042-19.358-1.553.194-4.05.398-7.686.398-3.934 0-6.374-.38-7.826-.755.453 5.953.904 13.516.904 20.01 0 7.111-3.418 8.598-1.818 13.48 1.14 3.479 3.589 3.843 5.765 4.8 3.01 1.321 4.563 1.842 7.801 11.05 1.674 4.758 16.363 2.369 16.363 2.369s.365-2.831-4.195-5.481"/><g fill="#3e4347"><path d="m39.829 49.979c-1.674-.736-3.511-1.123-4.787-2.846.57 5.358 1.82 16.867 1.82 16.867h2.702l.898-13.741c-.204-.092-.414-.184-.633-.28"/><ellipse cx="21.15" cy=".666" rx="9.06" ry=".667"/></g><path fill="#ed4c5c" d="m12.13.726c.408.34 4.291.607 9.02.607 4.734 0 8.621-.267 9.03-.607l.735 10.235c0 0-1.951 1.482-9.722 1.482-6.925 0-9.719-.741-9.719-.741l.658-10.976"/><path fill="#c94747" d="m4.201 57.919c11.469-6.666 10.352-20.875 10.352-26.516 0-3.503-.549-12.21-1.042-19.358 1.552.194 4.048.398 7.683.398 3.935 0 6.375-.38 7.827-.755-.452 5.953-.903 13.516-.903 20.01 0 7.111 3.418 8.598 1.818 13.48-1.141 3.479-3.589 3.843-5.766 4.8-3.01 1.321-4.563 1.842-7.801 11.05-1.673 4.758-16.362 2.369-16.362 2.369s-.366-2.831 4.194-5.481"/><path fill="#3e4347" d="m24.17 49.979c1.675-.736 3.512-1.123 4.786-2.846-.568 5.358-1.818 16.867-1.818 16.867h-2.703l-.897-13.741c.204-.092.414-.184.632-.28"/></svg>