<svg xmlns="http://www.w3.org/2000/svg" viewBox="0 0 64 64" enable-background="new 0 0 64 64"><g fill="#f46767"><path d="m61.07 18.17c.809 2.172 1.053 4.316.862 6.416l-16.487-16.487c6.097-.638 12.576 1.871 15.625 10.07"/><path d="m2.927 18.16c6.395-16.918 27.15-9.328 29.07-.879.94-3.206 4.117-6.115 8.093-7.791l20.435 20.434c-5.773 13.354-26.653 23.951-28.528 26.08-2.398-2.162-35.953-19.639-29.07-37.84"/></g><g fill="#dae4ea"><path d="m45.45 8.101l16.487 16.487c-.165 1.816-.654 3.6-1.404 5.336l-20.434-20.434c1.677-.708 3.494-1.195 5.351-1.389"/><path d="m55.921 21.525c0 0-4.983 4.52-3.994 11.506l-3.752-3.752-3.805 3.789c0 0 .796-8.279 7.809-15.291l3.742 3.748"/></g><path fill="#fff" d="m51.967 17.985c-1.394 1.394-1.264 4.232.288 6.312l1.242 1.664c1.552 2.076 3.392 2.682 4.088 1.344.698-1.34 2.363-3 3.702-3.702 1.339-.696.733-2.537-1.344-4.089l-1.664-1.242c-2.078-1.551-4.919-1.68-6.312-.287"/><path fill="#dae4ea" d="m52.25 17.686c-.415.498.355 1.225 1.508 1.819l.659.339c1.152.596 1.445.241.65-.782l-.453-.587c-.795-1.025-1.949-1.288-2.364-.789"/><path fill="#c4ced6" d="m56.991 27.01c0 .284-.314.271-.432.291-.354.054-1.017-.174-1.82-.979-.232-.231-.458-.495-.676-.787l-1.241-1.663c-.87-1.164-1.24-2.621-1.076-3.808 0 0 5.245 3.573 5.245 6.946"/><path fill="#dae4ea" d="m48.48 14.08c0 0-4.52 4.983-11.507 3.994l3.752 3.753-3.794 3.798c0 0 8.283-.79 15.296-7.803l-3.747-3.742"/><path fill="#fff" d="m52.01 18.03c-1.394 1.394-4.232 1.264-6.312-.288l-1.663-1.242c-2.078-1.552-2.682-3.392-1.345-4.088 1.341-.697 3.01-2.363 3.702-3.702.698-1.338 2.536-.733 4.089 1.344l1.241 1.664c1.552 2.078 1.681 4.919.288 6.312"/><path fill="#dae4ea" d="m52.31 17.747c-.498.415-1.225-.355-1.819-1.508l-.339-.659c-.595-1.151-.241-1.445.783-.65l.586.453c1.024.795 1.289 1.95.789 2.364"/><path fill="#c4ced6" d="m42.988 13.01c-.284 0-.271.314-.29.433-.055.353.174 1.017.978 1.82.231.23.496.458.787.675l1.663 1.242c1.164.869 2.621 1.239 3.809 1.075 0 0-3.574-5.245-6.947-5.245"/><path fill="#fff" d="m50.557 16.572c-.782 1.033-.88 2.424-.215 3.088.665.665 2.055.568 3.089-.214l.35-.265c1.035-.782 1.122-2.165.205-3.082l-.083-.083c-.917-.917-2.299-.829-3.082.205l-.264.351"/><path fill="#dae4ea" d="m51.676 18.326c.604.604 1.809.58 2.801-.02-.139.326-.369.627-.688.868l-.357.271c-1.034.782-2.424.879-3.089.214-.665-.664-.567-2.055.215-3.088l.271-.358c.241-.319.542-.549.867-.688-.6.994-.625 2.196-.02 2.801"/></svg>