<svg xmlns="http://www.w3.org/2000/svg" viewBox="0 0 64 64" enable-background="new 0 0 64 64"><path fill="#ffce31" d="M24.938,48h14.125c0.838-4.313,3.513-8.505,6.315-12.898C48.632,29.999,52,24.716,52,19.586
		C52,9.889,43.027,2,32,2S12,9.889,12,19.586c0,5.13,3.368,10.413,6.621,15.516C21.425,39.495,24.103,43.688,24.938,48z"/><g fill="#94989b"><path d="m26.449 33.595c.144.596.273 1.193.425 1.772.265 1.091.522 2.147.771 3.169.92 3.758 1.73 6.987 2.371 9.464h.594c-.526-2.513-1.244-5.799-2.105-9.628-.232-1.021-.473-2.086-.72-3.178-.131-.534-.244-1.076-.368-1.632.832-.183 2.653-.803 4.584-2.889 1.932 2.085 3.752 2.706 4.584 2.889-.124.556-.237 1.098-.368 1.632-.247 1.092-.487 2.156-.719 3.178-.862 3.829-1.58 7.115-2.106 9.628h.594c.642-2.477 1.451-5.706 2.372-9.464.246-1.021.505-2.078.771-3.169.149-.579.28-1.177.424-1.772.756-.051 1.479-.287 2.043-.804.578-.569.88-1.314.744-2.107-.061-.38-.345-.872-.896-1.041-.254-.083-.508-.101-.832-.018-.268.102-.464.251-.598.396-.533.592-.726 1.183-.945 1.769-.101.295-.186.589-.265.88 0 0-.85.066-2.668-1.157-1.01-.679-1.302-1.171-1.595-1.496.316-.351.619-.736.854-1.203.124-.26.23-.543.266-.862.034-.318-.023-.679-.205-.989-.183-.305-.444-.587-.866-.759-.182-.066-.385-.096-.588-.096s-.407.03-.588.096c-.422.171-.684.454-.866.759-.182.311-.24.671-.205.989.037.318.142.602.267.862.234.467.538.852.854 1.203-.293.325-.586.816-1.595 1.496-1.818 1.223-2.669 1.157-2.669 1.157-.078-.291-.163-.585-.264-.88-.22-.586-.411-1.177-.945-1.769-.134-.145-.33-.294-.598-.396-.324-.083-.578-.065-.832.018-.552.168-.836.66-.896 1.041-.136.793.166 1.538.744 2.107.564.517 1.285.753 2.04.804m11.54-1.544c.189-.527.43-1.099.758-1.443.077-.087.158-.123.198-.146 0 .003.098-.012.16.018.112.028.217.143.258.364.08.428-.122.98-.49 1.325-.258.246-.655.417-1.074.496.059-.206.12-.414.19-.614m-6.592-4.704c.164-.248.38-.388.603-.388s.438.141.604.388c.195.31.127.732-.064 1.145-.14.292-.333.57-.54.838-.208-.269-.4-.546-.539-.838-.191-.413-.26-.835-.064-1.145m-6.76 3.497c.041-.221.146-.336.259-.364.062-.03.16-.015.16-.018.039.023.12.059.195.146.33.344.57.917.76 1.443.07.2.13.408.189.613-.418-.078-.816-.25-1.073-.496-.368-.344-.57-.897-.49-1.324"/><path d="m24.852 49.958h14.338v1.84h-14.338z"/><path d="m25.852 53.638h12.338v1.84h-12.338z"/><path d="m39.19 49.958l-13.338 3.68v1.842l13.338-3.682z"/><path d="m26.852 57.32h10.338v1.84h-10.338z"/><path d="m38.19 53.638l-11.338 3.682v1.84l11.338-3.68z"/><path d="m28 58c0 2.209 1.791 4 4 4s4-1.791 4-4h-8"/></g></svg>