<svg xmlns="http://www.w3.org/2000/svg" viewBox="0 0 64 64" enable-background="new 0 0 64 64"><path fill="#fff" d="m0 0h64v64h-64z"/><path fill="#52c18e" d="m58.666 5.334h-5.566l-15.76 20.16-9.651-11.19-27.689 40.15v9.54h6.381l22.252-32.27 9.117 10.571 20.916-26.766z"/><path fill="#d0d5d8" d="m64 0h-64v50.705l2.969-4.305h-.836v-13.333h10.03l1.471-2.134h-11.5v-13.332h13.334v10.672l2.133-3.094v-7.578h5.226l1.471-2.133h-6.697v-13.334h13.333v12.666l2.417 2.8h7.456l1.667-2.133h-9.406v-13.333h13.333v8.31l2.134-2.73v-5.58h13.333v13.333h-1.067v.801l-1.04 1.333h2.106v13.333h-12.527l-2.939 3.761v11.705h-13.334v-6.266l-2.134-2.473v8.739h-9.824l-1.471 2.133h11.295v13.334h-13.332v-10.381l-2.133 3.094v7.287h-5.02l-1.471 2.133h55.03v-64m-48.533 15.467h-13.334v-13.333h13.334v13.333m30.932 46.4h-13.333v-13.334h13.333v13.334m15.467 0h-13.333v-13.334h13.333v13.334m0-15.467h-13.333v-13.333h13.333v13.333"/></svg>