<svg xmlns="http://www.w3.org/2000/svg" viewBox="0 0 64 64" enable-background="new 0 0 64 64" xmlns:xlink="http://www.w3.org/1999/xlink"><g fill="#42ade2"><path d="m51.43 7.386l-2.643 2.642c6.961 4.831 11.529 12.878 11.529 21.972 0 9.08-4.551 17.11-11.488 21.943l2.643 2.642c7.59-5.535 12.531-14.494 12.531-24.586 0-10.11-4.959-19.08-12.572-24.613"/><path d="m52.48 31.999c0 6.926-3.748 12.989-9.318 16.277l2.678 2.68c6.209-4.03 10.326-11.02 10.326-18.957 0-7.954-4.135-14.96-10.367-18.982l-2.682 2.681c5.596 3.282 9.363 9.36 9.363 16.301"/><path d="m44.807 31.999c0 4.84-3.078 8.973-7.381 10.545l2.799 2.798c4.896-2.447 8.27-7.507 8.27-13.343 0-5.853-3.393-10.928-8.314-13.365l-2.805 2.806c4.327 1.557 7.431 5.702 7.431 10.559"/></g><path fill="#8b979e" d="M11.128,44.999H3.783C1.694,44.999,0,43.416,0,41.462V22.537C0,20.583,1.694,19,3.783,19h7.346V44.999z" id="0"/><use xlink:href="#0"/><path fill="#b0bdc6" d="M29.836,2.247C31.142,0.941,11.128,19,11.128,19v26c0,0,10.271,7.855,18.708,16.753V2.247z"/><g fill="#333"><path d="m33 25.454v13.09c3.863 0 6.996-2.932 6.996-6.545 0-3.617-3.133-6.547-6.996-6.547"/><path d="m33 62.52c0 .817-.709 1.481-1.584 1.481-.874 0-1.583-.664-1.583-1.481v-61.04c-.001-.818.708-1.481 1.582-1.481.875 0 1.584.663 1.584 1.481v61.04"/></g><path fill="#8b979e" d="m11.128 40.18h-7.345c-2.089 0-3.783-.997-3.783-2.227v-11.914c0-1.23 1.693-2.227 3.782-2.227h7.346v16.368"/><path fill="#b0bdc6" d="m11.128 40.18h-7.345c-2.089 0-3.783-.997-3.783-2.227v-11.914c0-1.23 1.693-2.227 3.782-2.227h7.346v16.368"/><path fill="#dfe9ef" d="m29.836 13.269l-18.708 10.547v16.374l18.708 10.54z"/><path fill="#8b979e" d="m29.836 13.269h3.167v37.461h-3.167z"/><path fill="#333" d="m3.783 19h7.346v25.999h-7.346z"/></svg>