<svg xmlns="http://www.w3.org/2000/svg" viewBox="0 0 64 64" enable-background="new 0 0 64 64"><circle fill="#ffdd67" cx="32" cy="32" r="30"/><g fill="#664e27"><path d="m48 37.5c0 6.461-5.314 14-16 14-10.689 0-16-7.539-16-14 0 0 5.311 0 16 0 10.686 0 16 0 16 0"/><path d="m32 52.5c-11.04 0-17-7.729-17-15v-1h34v1c0 7.271-5.957 15-17 15m-14.955-14c.523 5.99 5.727 12 14.955 12s14.434-6.01 14.957-12h-29.912"/></g><path fill="#ff717f" d="m32 40h-10c0 0 0 2.787 0 5.92 0 10.703 4.477 16.08 9.998 16.08 5.523-.002 10-5.379 10-16.08 0-3.131 0-5.916 0-5.916h-10"/><path fill="#e2596c" d="M33.5 40 32 56.854 30.5 40z"/><path opacity=".33" d="m22 40h20v3.385h-20z"/><g fill="#664e27"><circle cx="20.502" cy="24" r="4.5"/><circle cx="43.502" cy="24" r="4.5"/></g></svg>