<svg xmlns="http://www.w3.org/2000/svg" viewBox="0 0 64 64" enable-background="new 0 0 64 64"><path fill="#428bc1" d="m45.29 36.749c-8.24-4.362-13.291-.465-13.291-.465s-5.05-3.897-13.291.465c-7.351 3.888-16.917 12.769-16.223 16.716 0 0 21.937 6.907 29.514 6.907 7.578 0 29.516-6.907 29.516-6.907.695-3.947-8.873-12.828-16.225-16.716"/><path fill="#fed0ac" d="m33.28 58.911c7.786-5.285 10.917-5.233 11.05-5.285.688 1.238 1.674 4.843 1.99 6.591-.004 0-.016.002-.016.002-.66 1.69-11.606 2.611-13.532.768-.394-.379-.523-1.377.506-2.076"/><path fill="#428bc1" d="m54.961 46.67c2.873-.614 8.885 2.818 6.486 8.04-2.1 4.578-14.811 5.481-15.12 5.504-.316-1.748-1.303-5.353-1.99-6.591 2.146-.822 8.242-6.444 10.625-6.956"/><path fill="#fed0ac" d="m30.716 58.911c-7.786-5.285-10.917-5.233-11.05-5.285-.688 1.238-1.674 4.843-1.99 6.591.004 0 .016.002.016.002.658 1.69 11.605 2.611 13.531.768.395-.379.523-1.377-.506-2.076"/><path fill="#428bc1" d="m9.04 46.67c-2.872-.614-8.884 2.818-6.486 8.04 2.101 4.578 14.812 5.481 15.12 5.504.316-1.748 1.302-5.353 1.99-6.591-2.149-.822-8.244-6.444-10.627-6.956"/><g fill="#2e6c93"><path d="m43.03 53.3c0 0 2.482 4.25 3.305 6.92.068-3.373-.447-5.186-.816-6.107 1.729-1.953 8.512-6.902 9.451-7.439-4.285 1.313-11.94 6.626-11.94 6.626"/><path d="m20.97 53.3c0 0-2.482 4.25-3.305 6.92-.068-3.373.447-5.186.816-6.107-1.729-1.953-8.512-6.902-9.451-7.439 4.285 1.313 11.94 6.626 11.94 6.626"/></g><path fill="#dbb471" d="m31.999 14c11.815 0 19.09 6.63 19.09 14.869v8.157c0 6.506-5.143 6.507-5.139 6.506h-28.643c.002.001-4.406 0-4.406-6.506 0-3.063 0-8.157 0-8.157-.001-8.239 7.667-14.869 19.09-14.869"/><path fill="#fed0ac" d="m49.29 38.495c0 0-.625-3.518-.715-4.703-.322-4.283-5.195 2.491-16.578 2.491-11.384 0-16.256-6.774-16.579-2.491-.089 1.186-.713 4.703-.713 4.703-3.796 0-3.796 5.288 0 5.288 0 6.558 10.292 9.522 17.292 9.522 7 0 17.293-2.965 17.293-9.522 3.795 0 3.795-5.288 0-5.288"/><g fill="#664e27"><path d="m44.07 42.979c-.121-.076-.27-.078-.391-.008-2.113 1.232-5.491 1.232-7.601 0-.121-.07-.27-.068-.39.008s-.191.213-.188.358c.041 1.73 1.966 3.088 4.379 3.088s4.337-1.357 4.378-3.088c.003-.146-.068-.282-.187-.358"/><path d="m27.921 42.971c-2.115 1.232-5.49 1.232-7.601 0-.122-.07-.272-.068-.39.008-.12.076-.191.213-.189.358.041 1.73 1.962 3.088 4.377 3.088 2.418 0 4.342-1.357 4.381-3.088.003-.147-.069-.284-.188-.358-.123-.077-.271-.079-.39-.008"/><path d="m29.03 50.03c.025.963 1.345 1.724 2.971 1.724 1.623 0 2.941-.761 2.967-1.724-.797.403-1.834.646-2.967.646-1.134.001-2.17-.242-2.971-.646"/></g><g fill="#42ade2"><path d="m35.973 2l3.566 10.472 4.941-8.828z"/><path d="m53.21 8.242l-4.72 8.928 9.88-1.277z"/><path d="m28.374 2l-3.566 10.472-5.291-8.828z"/><path d="m10.791 8.242l4.715 8.928-9.873-1.277z"/></g></svg>