<svg xmlns="http://www.w3.org/2000/svg" viewBox="0 0 64 64" enable-background="new 0 0 64 64"><path fill="#89664c" d="m46.11 8.257c1.352-.723 2.227-1.087 2.227-1.087-3.822-1.362-7.137-2.157-10.01-2.521 1.51-1.148 2.52-1.592 2.52-1.592-7.466-.442-13.271.799-17.727 2.685-4.877 1.783-9.02 5.03-11.886 9.439-.601.887-.874 1.446-.874 1.446l.004.006c-2.132 3.839-3.356 8.438-3.356 13.635 0 15.776 11.235 28.569 25.1 28.569 13.861 0 25.1-12.793 25.1-28.569 0-9.872-4.402-17.607-11.09-22.01"/><path fill="#e0ac7e" d="m55.42 33.517c0-6.634-5.551-12.01-12.398-12.01-4.715 0-8.818 2.553-10.912 6.309-2.097-3.756-6.195-6.309-10.913-6.309-6.848 0-12.398 5.378-12.398 12.01 0 6.04 4.609 11.03 10.603 11.872-.099 1.474.064 3.319.784 5.581 0 0 .142-.686.488-1.555 1.868 4.342 6.278 7.403 11.437 7.403s9.566-3.062 11.434-7.403c.346.869.49 1.555.49 1.555.72-2.262.883-4.107.784-5.581 5.991-.846 10.601-5.83 10.601-11.872"/><g fill="#89664c"><path d="m35.06 40.08c0 .82-.332 1.482-.74 1.482-.409 0-.742-.662-.742-1.482s.333-1.487.742-1.487c.407 0 .74.667.74 1.487"/><path d="m30.644 40.08c0 .82-.332 1.482-.74 1.482-.409 0-.742-.662-.742-1.482s.333-1.487.742-1.487c.408 0 .74.667.74 1.487"/><path d="m26.995 39.38c.359-1.057 1.242-1.793 2.108-2.36.891-.567 1.893-.944 2.941-1.078 1.044-.117 2.153.035 3.101.581.953.528 1.672 1.433 2.084 2.425-.693-.794-1.49-1.413-2.357-1.77-.87-.347-1.809-.438-2.736-.322-.93.104-1.85.402-2.732.804-.439.208-.876.437-1.286.713-.422.266-.818.574-1.123 1.01"/><path d="m50.32 45.08l-.893 15.916h12.865c-4.083-11-2.879-16.922-2.879-16.922l-9.09 1.01"/><path d="m13.473 45.27l.894 15.734h-12.867c4.083-11 2.879-16.834 2.879-16.834l9.09 1.1"/></g><g fill="#ffd6bb"><path d="m60.679 25.09c-2.244-5.05-6.303-9.283-8.02-7.12-1.597 2.01.12 2.284-.525 4.47-1.359 4.593 1.712 9.275.694 11.441-6.145 13.09 1.765 14.203 4.78 13.13 6.1-2.18 5.715-15.979 3.073-21.921"/><path d="m12.1 22.825c-.646-2.185 1.072-2.459-.527-4.466-1.718-2.165-5.774 2.071-8.02 7.121-2.644 5.936-3.03 19.742 3.073 21.918 3.02 1.075 10.925-.043 4.78-13.13-1.017-2.165 2.055-6.849.695-11.444"/></g><path fill="#3e4347" d="m42.704 42.857c0 4.316-4.741 7.998-10.592 7.998-5.85 0-10.592-3.682-10.592-7.998 0 0 5.04 1.265 10.592 1.265 5.549 0 10.592-1.265 10.592-1.265"/><path fill="#fff" d="m41.01 44.17c0 1.77-3.701 2.83-8.9 2.83s-8.9-1.061-8.9-2.83c0 0 3.969.852 8.9.852s8.9-.852 8.9-.852"/><path fill="#ff717f" d="m35.877 48.928c0 .922-1.683.814-3.765.814-2.081 0-3.766.107-3.766-.814 0-.918 1.685-1.38 3.766-1.38 2.082 0 3.765.462 3.765 1.38"/><g fill="#735540"><path d="m16.589 37.655c-.145 0-.287-.063-.386-.183l-.062-.076c-.134-.164-.15-.396-.04-.576.005-.008.052-.085.057-.093l.151-.213c.08-.105.156-.201.236-.292.15-.177.319-.344.495-.506.337-.309.726-.594 1.157-.853.822-.484 1.75-.821 2.762-1.01.95-.174 2-.229 2.832-.184-.539-.455-1.259-.98-2.096-1.387-.854-.416-1.748-.729-2.657-.931-.458-.102-.928-.18-1.396-.229-.469-.057-.946-.088-1.424-.093-.27-.004-.487-.221-.492-.49l-.002-.113c-.003-.201.114-.385.299-.466l.41-.155c.145-.049.283-.09.422-.126.274-.069.551-.12.831-.159.54-.072 1.115-.088 1.686-.047 1.123.088 2.248.397 3.258.896 1.01.494 1.939 1.192 2.694 2.02.396.437.732.889 1.01 1.346.146.243.278.49.395.748.058.122.114.257.165.393l.07.202c.004.01.041.112.043.123l.027.098c.061.216-.029.444-.221.562-.145.087-.299.154-.475.112-.41-.097-.819-.179-1.231-.238-.452-.067-.864-.108-1.258-.127-.857-.041-1.69.005-2.485.144-.779.131-1.57.36-2.353.683-.368.149-.736.324-1.1.52-.362.19-.71.396-1.047.617-.082.055-.177.081-.271.081"/><path d="m47.584 37.634c-.079 0-.155-.019-.22-.061-.336-.222-.685-.427-1.041-.614-.371-.198-.74-.373-1.103-.521-.785-.323-1.576-.553-2.353-.683-.799-.14-1.643-.185-2.487-.145-.396.018-.806.06-1.258.126-.409.061-.817.141-1.22.236-.18.047-.35-.025-.491-.112-.188-.117-.276-.345-.217-.559l.027-.098c.002-.008.035-.108.038-.116l.068-.196c.059-.15.113-.28.171-.408.116-.255.251-.502.395-.744.278-.465.616-.917 1.01-1.346.755-.825 1.686-1.522 2.695-2.02 1.012-.5 2.137-.809 3.256-.896.58-.04 1.151-.026 1.686.046.281.039.557.09.83.158.143.037.278.078.414.123l.42.159c.182.079.299.259.299.457v.113c0 .272-.219.495-.492.499-.479.005-.955.036-1.418.092-.475.051-.943.129-1.401.23-.907.202-1.801.515-2.657.931-.838.406-1.558.932-2.098 1.387.832-.045 1.883.01 2.834.184 1.012.185 1.939.522 2.758 1 .437.262.824.548 1.158.853.176.162.343.329.5.51.078.089.153.185.228.281l.104.147c.004.006.055.081.06.088.116.182.147.488.011.655-.113.139-.316.239-.501.239"/></g></svg>