<svg xmlns="http://www.w3.org/2000/svg" viewBox="0 0 64 64" enable-background="new 0 0 64 64"><g fill="#728084"><path d="m35.751 23.688h17.941c-.379-8.762-3.33-14.688-3.33-14.688s-5.566.795-9.535 0c-1.791-.359-3.58-1.196-5.076-2.063v16.751"/><path d="m28.25 23.688v-16.75c-1.497.867-3.282 1.703-5.075 2.062-3.969.795-9.535 0-9.535 0s-2.951 5.926-3.332 14.688h17.942"/><path d="m28.25 31.09h-17.614c.051.381.107.764.17 1.15 1.84 11.293 11.865 20.688 17.443 25.13v-26.28"/><path d="m35.751 31.09v26.28c5.578-4.445 15.605-13.838 17.445-25.13.063-.387.117-.77.168-1.15h-17.613"/></g><g opacity=".3" fill="#b0bdc6"><path d="m36.54 22.711h17.941c-.379-8.763-3.33-14.688-3.33-14.688s-5.566.796-9.535 0c-1.791-.359-3.58-1.195-5.076-2.062v16.75"/><path d="m27.459 22.711v-16.75c-1.496.866-3.283 1.702-5.076 2.062-3.969.796-9.533 0-9.533 0s-2.953 5.926-3.332 14.688h17.941"/><path d="m27.459 31.755h-17.613c.051.381.105.764.168 1.15 1.84 11.295 11.867 20.688 17.445 25.13v-26.28"/><path d="m36.54 31.755v26.28c5.578-4.445 15.605-13.838 17.445-25.13.063-.387.117-.77.168-1.15h-17.613z"/></g><path fill="#89969b" d="m28 3.793h8v57.24h-8z"/><path fill="#b0bdc6" d="m29 3.793h6v57.24h-6z"/><path fill="#89969b" d="m8.821 23.256h46.36v8h-46.36z"/><path fill="#b0bdc6" d="m8.821 24.26h46.36v6h-46.36z"/><g opacity=".2"><path d="m31.998 60.801c-.309 0-.617-.09-.889-.268-.754-.496-18.51-12.344-21.07-28.27-2.127-13.256 2.669-23.2 2.873-23.618.314-.638.998-.999 1.691-.901.023.003 2.301.327 4.854.327 1.467 0 2.729-.104 3.746-.311 3.758-.763 7.695-4.135 7.734-4.168.609-.527 1.51-.528 2.122.001.039.032 3.973 3.404 7.73 4.168 1.02.207 2.277.311 3.746.311 2.551 0 4.832-.324 4.855-.327.697-.102 1.377.263 1.691.901.205.417 5 10.361 2.871 23.618-2.557 15.923-20.313 27.771-21.07 28.27-.268.178-.575.268-.887.268m-16.606-49.623c-1.092 2.771-3.699 10.753-2.123 20.554 2.01 12.545 15.16 22.817 18.729 25.395 3.569-2.578 16.717-12.85 18.731-25.395 1.572-9.8-1.031-17.781-2.123-20.554-.99.1-2.469.213-4.068.213-1.684 0-3.158-.126-4.387-.376-3.314-.674-6.539-2.835-8.153-4.051-1.611 1.216-4.834 3.377-8.146 4.051-1.23.25-2.707.376-4.391.376-1.6 0-3.081-.114-4.069-.213"/></g><g fill="#b0bdc6"><path d="m31.998 64c-.344 0-.686-.1-.986-.297-.84-.553-20.564-13.715-23.408-31.407-2.364-14.73 2.964-25.779 3.188-26.24.352-.709 1.109-1.11 1.881-1 .025.003 2.559.364 5.396.364 1.629 0 3.03-.117 4.16-.346 4.174-.849 8.549-4.594 8.592-4.632.68-.586 1.678-.587 2.358.001.043.037 4.412 3.782 8.59 4.631 1.131.229 2.527.346 4.16.346 2.836 0 5.369-.36 5.395-.364.777-.114 1.531.292 1.881 1 .229.463 5.557 11.512 3.191 26.24-2.842 17.692-22.57 30.854-23.409 31.407-.3.197-.646.297-.989.297m-18.452-55.13c-1.213 3.079-4.107 11.947-2.357 22.837 2.236 13.939 16.848 25.351 20.811 28.22 3.963-2.865 18.573-14.277 20.811-28.21 1.748-10.89-1.146-19.757-2.359-22.837-1.1.111-2.742.237-4.52.237-1.869 0-3.51-.141-4.873-.418-3.684-.75-7.266-3.151-9.06-4.502-1.793 1.352-5.373 3.753-9.05 4.501-1.367.277-3.01.418-4.875.418-1.781 0-3.424-.126-4.524-.237"/><path d="m31.998 61.67c-.316 0-.635-.092-.916-.275-.775-.512-19.07-12.717-21.703-29.12-2.189-13.658 2.75-23.902 2.959-24.332.324-.657 1.027-1.029 1.744-.928.023.003 2.369.337 5 .337 1.512 0 2.811-.107 3.859-.321 3.869-.787 7.926-4.26 7.965-4.294.631-.543 1.557-.544 2.186.001.041.034 4.094 3.507 7.965 4.293 1.051.213 2.346.321 3.857.321 2.629 0 4.98-.333 5-.337.723-.105 1.42.271 1.744.928.211.43 5.152 10.674 2.959 24.332-2.635 16.403-20.928 28.608-21.706 29.12-.277.183-.595.275-.915.275m-17.11-51.12c-1.125 2.855-3.813 11.08-2.189 21.17 2.074 12.922 15.621 23.504 19.295 26.16 3.676-2.656 17.223-13.238 19.297-26.16 1.619-10.1-1.063-18.317-2.188-21.17-1.021.103-2.543.219-4.193.219-1.732 0-3.252-.13-4.518-.387-3.414-.694-6.736-2.921-8.399-4.174-1.662 1.253-4.979 3.479-8.395 4.174-1.268.257-2.787.387-4.521.387-1.646 0-3.171-.117-4.189-.219"/></g><path fill="#dfe9ef" d="m31.998 62.943c-.332 0-.662-.096-.955-.287-.811-.533-19.885-13.264-22.635-30.37-2.285-14.244 2.867-24.927 3.086-25.375.338-.686 1.072-1.073 1.818-.967.023.003 2.473.352 5.217.352 1.574 0 2.93-.113 4.02-.334 4.04-.821 8.268-4.443 8.309-4.479.658-.567 1.623-.567 2.28.001.043.035 4.27 3.657 8.307 4.478 1.094.222 2.445.334 4.02.334 2.742 0 5.193-.348 5.217-.352.752-.11 1.48.282 1.818.967.223.448 5.373 11.132 3.086 25.375-2.748 17.11-21.824 29.836-22.635 30.37-.289.192-.623.287-.955.287m-17.842-53.31c-1.172 2.978-3.973 11.553-2.281 22.08 2.164 13.477 16.291 24.512 20.12 27.28 3.833-2.771 17.959-13.807 20.12-27.28 1.691-10.529-1.107-19.1-2.281-22.08-1.063.107-2.65.229-4.371.229-1.809 0-3.393-.136-4.713-.404-3.561-.724-7.02-3.046-8.758-4.353-1.732 1.307-5.193 3.629-8.756 4.353-1.322.268-2.906.404-4.713.404-1.72 0-3.31-.122-4.374-.229"/><ellipse fill="#b0bdc6" cx="32" cy="3.127" rx="1.381" ry="1.402"/><ellipse fill="#dfe9ef" cx="32" cy="3.128" rx="1.055" ry="1.069"/><path fill="#89969b" d="m32 3.667c-.42 0-.797-.179-1.064-.464.054.555.501.994 1.064.994s1.01-.438 1.065-.994c-.269.285-.646.464-1.065.464"/><ellipse fill="#b0bdc6" cx="50.865" cy="8.03" rx="1.383" ry="1.402"/><ellipse fill="#dfe9ef" cx="50.865" cy="8.03" rx="1.055" ry="1.069"/><path fill="#89969b" d="m50.865 8.572c-.42 0-.797-.179-1.064-.464.057.556.504.994 1.064.994.563 0 1.01-.438 1.066-.994-.269.285-.646.464-1.066.464"/><ellipse fill="#b0bdc6" cx="54.32" cy="21.22" rx="1.381" ry="1.402"/><ellipse fill="#dfe9ef" cx="54.32" cy="21.22" rx="1.053" ry="1.069"/><path fill="#89969b" d="m54.32 21.76c-.42 0-.797-.179-1.066-.464.057.556.504.994 1.066.994.561 0 1.01-.438 1.064-.994-.267.285-.644.464-1.064.464"/><ellipse fill="#b0bdc6" cx="52.28" cy="37.652" rx="1.381" ry="1.402"/><ellipse fill="#dfe9ef" cx="52.28" cy="37.653" rx="1.053" ry="1.069"/><path fill="#89969b" d="m52.28 38.19c-.42 0-.797-.178-1.064-.463.055.555.502.994 1.064.994s1.01-.439 1.064-.994c-.267.286-.644.463-1.064.463"/><ellipse fill="#b0bdc6" cx="43.977" cy="50.49" rx="1.383" ry="1.402"/><ellipse fill="#dfe9ef" cx="43.977" cy="50.49" rx="1.055" ry="1.069"/><path fill="#89969b" d="m43.977 51.03c-.42 0-.797-.18-1.064-.465.055.557.502.994 1.064.994s1.01-.438 1.064-.992c-.268.286-.645.463-1.064.463"/><ellipse fill="#b0bdc6" cx="31.998" cy="60.734" rx="1.383" ry="1.4"/><ellipse fill="#dfe9ef" cx="31.998" cy="60.736" rx="1.055" ry="1.068"/><path fill="#89969b" d="m31.998 61.27c-.42 0-.797-.18-1.064-.465.057.555.504.994 1.064.994.563 0 1.01-.439 1.067-.994-.271.286-.648.465-1.067.465"/><ellipse fill="#b0bdc6" cx="20.02" cy="50.49" rx="1.381" ry="1.402"/><ellipse fill="#dfe9ef" cx="20.02" cy="50.49" rx="1.053" ry="1.069"/><path fill="#89969b" d="m20.02 51.03c-.42 0-.797-.18-1.066-.465.057.557.504.994 1.066.994.561 0 1.01-.438 1.064-.992-.269.286-.646.463-1.064.463"/><ellipse fill="#b0bdc6" cx="11.71" cy="37.653" rx="1.383" ry="1.401"/><ellipse fill="#dfe9ef" cx="11.71" cy="37.654" rx="1.055" ry="1.068"/><path fill="#89969b" d="m11.71 38.19c-.42 0-.797-.18-1.064-.465.057.555.504.994 1.064.994.563 0 1.01-.439 1.066-.994-.269.286-.646.465-1.066.465"/><ellipse fill="#b0bdc6" cx="9.681" cy="21.22" rx="1.381" ry="1.402"/><ellipse fill="#dfe9ef" cx="9.681" cy="21.22" rx="1.053" ry="1.069"/><path fill="#89969b" d="m9.681 21.76c-.42 0-.799-.179-1.066-.464.057.556.504.994 1.066.994.561 0 1.01-.438 1.064-.994-.267.285-.644.464-1.064.464"/><ellipse fill="#b0bdc6" cx="13.07" cy="8.03" rx="1.381" ry="1.402"/><ellipse fill="#dfe9ef" cx="13.07" cy="8.03" rx="1.053" ry="1.069"/><path fill="#89969b" d="m13.07 8.572c-.42 0-.797-.179-1.066-.464.057.556.504.994 1.066.994.561 0 1.01-.438 1.064-.994-.267.285-.644.464-1.064.464"/></svg>