<svg xmlns="http://www.w3.org/2000/svg" viewBox="0 0 64 64" enable-background="new 0 0 64 64"><g fill="#333"><path d="m24.23 55.962c0 2.229-1.802 4.04-4.02 4.04h-5.556c-2.223 0-4.02-1.809-4.02-4.04v-2.581h13.604v2.581"/><path d="m53.37 55.962c0 2.229-1.802 4.04-4.02 4.04h-5.556c-2.222 0-4.02-1.809-4.02-4.04v-2.581h13.604v2.581z"/></g><path fill="#676e72" d="m56.13 9.09c-4.596-3.03-13.688-5.094-24.16-5.093-12.05-.001-22.269 2.733-25.914 6.526-2.473 2.43-4.062 6.163-4.062 10.358 0 3.672 21.563 3.672 21.563 0 0-2.818-.721-5.426-1.941-7.575 3.194-.459 6.686-.716 10.354-.717 3.684 0 7.191.261 10.397.723-1.218 2.147-1.936 4.753-1.936 7.569 0 3.672 21.563 3.672 21.563-.001 0-5.142-2.387-9.591-5.867-11.79"/><g fill="#333"><path d="m17.916 10.897c1.357 2.382 5.246 8.501 2.814 10.926 5.255-.258.298-9.957-2.814-10.926"/><path d="m56.35 10.896c1.354 2.381 5.244 8.504 2.813 10.927 5.253-.258.296-9.956-2.813-10.927"/></g><path fill="#676e72" d="m57.55 51.711c0 2.23-1.802 4.04-4.02 4.04h-43.06c-2.223 0-4.02-1.809-4.02-4.04v-7.285h51.1v7.285"/><path fill="#333" d="m57.55 44.43h-51.1c0 0 4.754-11.326 11.267-11.326h28.57c6.513 0 11.268 11.326 11.268 11.326"/><path fill="#676e72" d="m52.15 39.911h-40.31c0 .002 3.749-18.04 8.888-18.04h22.533c5.138 0 8.887 18.04 8.887 18.04"/><path fill="#333" d="m40.761 8.08c-1.093.962-1.92 4.141-3.164 4.894-2.397 1.449-8.796 1.449-11.194 0-1.243-.752-2.071-3.932-3.164-4.894-.755-.665-3.473-.847-4.02 0-1.53 2.372 3.043 8.686 5.636 9.787 3.29 1.397 10.999 1.397 14.289 0 2.593-1.101 7.166-7.415 5.637-9.787-.548-.847-3.266-.664-4.02 0"/><path fill="#a59a7c" d="m46.811 25.13c1.807 6.513-4.68 13.159-14.954 13.159-10.276 0-16.585-6.646-14.605-13.159 1.576-5.184 8.123-8.669 14.894-8.669 6.77 0 13.225 3.485 14.665 8.669"/><path fill="#f9eeb6" d="m46.13 24.488c1.62 6.06-4.585 12.162-14.251 12.162s-15.708-6.103-13.928-12.162c1.435-4.88 7.686-8.192 14.198-8.192 6.511 0 12.675 3.312 13.981 8.192"/><path fill="#a59a7c" d="m38.01 24.632c.26 2.464-2.43 4.648-6.03 4.648-3.602 0-6.234-2.184-5.908-4.648.296-2.247 2.98-3.925 6.02-3.925 3.039 0 5.681 1.678 5.917 3.925"/><path fill="#d1c5b5" d="m37.751 24.375c.231 2.288-2.343 4.3-5.768 4.3-3.424 0-5.944-2.01-5.654-4.3.267-2.094 2.836-3.668 5.761-3.668 2.922 0 5.451 1.573 5.661 3.668"/><g fill="#a8a08d"><path d="m30.455 17.401c-.97.561-1.039 1.5-.11 2.1.954.618 2.55.618 3.521 0 .944-.601.898-1.54-.056-2.1-.929-.546-2.412-.546-3.355 0"/><path d="m35.866 20.02c.063.898 1.279 1.652 2.724 1.652 1.439 0 2.474-.753 2.313-1.652-.153-.864-1.366-1.54-2.709-1.54-1.347 0-2.387.677-2.328 1.54"/><path d="m36.532 29.652c.092 1.323 1.591 2.44 3.354 2.44 1.754 0 2.98-1.117 2.744-2.44-.227-1.262-1.714-2.242-3.327-2.242-1.619 0-2.858.98-2.771 2.242"/><path d="m29.585 34.04c1.253 1.083 3.374 1.083 4.653 0 1.237-1.046 1.16-2.663-.092-3.615-1.213-.922-3.137-.922-4.371 0-1.278.953-1.398 2.569-.19 3.615"/><path d="m21.311 29.652c-.271 1.32.923 2.44 2.681 2.44 1.759 0 3.292-1.12 3.417-2.44.12-1.262-1.094-2.242-2.711-2.242s-3.128.98-3.387 2.242"/><path d="m20.01 25.765c.928.801 2.749.801 4.01 0 1.223-.777 1.4-1.987.457-2.706-.917-.698-2.591-.698-3.797 0-1.242.718-1.567 1.928-.668 2.706"/><path d="m28.329 20.02c.084-.865-.941-1.541-2.285-1.541-1.346 0-2.573.676-2.75 1.541-.184.896.828 1.651 2.27 1.651 1.439-.001 2.681-.755 2.765-1.651"/></g><g fill="#fff"><path d="m30.469 17.568c-.959.565-1.029 1.513-.11 2.117.945.624 2.525.624 3.486 0 .934-.604.89-1.552-.053-2.117-.919-.549-2.389-.549-3.323 0"/><path d="m35.827 20.2c.061.907 1.268 1.667 2.698 1.667 1.424 0 2.448-.76 2.287-1.667-.152-.869-1.353-1.552-2.682-1.552-1.333 0-2.361.683-2.303 1.552"/><path d="m36.488 29.929c.09 1.336 1.577 2.464 3.323 2.464 1.741 0 2.955-1.128 2.72-2.464-.226-1.273-1.7-2.263-3.298-2.263-1.604 0-2.831.989-2.745 2.263"/><path d="m29.602 34.36c1.24 1.096 3.343 1.096 4.613 0 1.226-1.057 1.148-2.689-.093-3.653-1.2-.932-3.107-.932-4.332 0-1.267.964-1.386 2.597-.188 3.653"/><path d="m21.402 29.929c-.271 1.333.913 2.464 2.657 2.464 1.742 0 3.261-1.131 3.388-2.464.12-1.275-1.084-2.263-2.685-2.263-1.601 0-3.1.988-3.36 2.263"/><path d="m20.12 26c.918.809 2.722.809 3.972 0 1.211-.784 1.389-2 .455-2.73-.908-.704-2.566-.704-3.761 0-1.232.725-1.555 1.946-.666 2.73"/><path d="m28.363 20.21c.083-.872-.931-1.554-2.26-1.554-1.333 0-2.549.682-2.726 1.554-.183.904.819 1.665 2.247 1.665 1.427 0 2.655-.762 2.739-1.665"/></g><path fill="#a59a7c" d="m47.02 32.07l-2.353 1.07-3.397-7.853.13-.361 5.71 6.74z"/><path fill="#d1c5b5" d="m47.11 31.666l-2.335 1.043-3.375-7.783 1.31-.443z"/></svg>