<svg xmlns="http://www.w3.org/2000/svg" viewBox="0 0 64 64" enable-background="new 0 0 64 64"><circle fill="#3e4347" cx="32" cy="32" r="30"/><circle fill="#ffe62e" cx="32" cy="32" r="27"/><g fill="#3e4347"><circle cx="32" cy="32" r="5"/><path d="m8 28.759l17.12 2.221c.241-1.88 1.233-3.521 2.668-4.619l-10.485-13.717c-5 3.828-8.46 9.561-9.303 16.12"/><path d="m32 38.816c-.946 0-1.848-.189-2.669-.533l-6.639 15.939c2.865 1.194 6.01 1.856 9.308 1.856 3.299 0 6.441-.662 9.308-1.856l-6.639-15.939c-.821.344-1.723.533-2.669.533"/><path d="m38.88 30.98l17.12-2.221c-.843-6.555-4.303-12.287-9.304-16.12l-10.484 13.718c1.434 1.097 2.428 2.739 2.668 4.619"/></g></svg>