<svg xmlns="http://www.w3.org/2000/svg" viewBox="0 0 64 64" enable-background="new 0 0 64 64"><circle fill="#ffce31" cx="32" cy="32" r="30"/><path fill="#fff" stroke="#fff" stroke-miterlimit="10" d="m42.962 40.16c-.168.766-.412 1.508-.668 2.252-.252.707-.574 1.387-.967 2.033-1.16 2.105-4.607 1.336-4.555-1 .074-3.266 2.73-6.648 4.078-9.533 2.578-5.527 5.186-14.617-1.281-18.883-4.85-3.197-11.211-1.642-13.957 3.238-2.271 4.04-.367 9.431 1.514 14.199-3.057-.782-6.418.713-8.123 3.221-2.191 3.228-.561 7.387 2.635 9.326 3.291 2 7.5.625 9.633-2.152.094-.096.18-.201.252-.334.084-.123.139-.248.18-.367.795-1.656.922-3.388.436-4.958-.012-.091-.025-.181-.055-.278-1.725-5.645-9.75-20.566 1.916-20.566 7.162 0 7 5.761 6.15 10.297-.779 4.145-3.02 7.982-4.984 11.713-2.074 3.952-2.631 9.609 2.924 10.867 4.697 1.063 7.152-5.05 7.873-8.295.405-1.836-2.591-2.618-3-.776zm-21.274-3c2.455-4.494 9.568-.547 7.148 3.891-2.888 4.248-9.581.565-7.148-3.891z"/></svg>