<svg xmlns="http://www.w3.org/2000/svg" viewBox="0 0 64 64" enable-background="new 0 0 64 64"><g fill="#c28fef"><path d="m28.671 25.599c1.01-.393 2.135-.614 3.329-.614 1.193 0 2.319.222 3.329.615.512-6.581 1.312-17.15 1.469-21.696.076-2.157-2.149-3.904-4.799-3.904-2.648 0-4.873 1.746-4.797 3.903.161 4.544.957 15.12 1.469 21.696"/><path d="m24.979 32c.001-1.192.225-2.32.621-3.328-6.58-.519-17.15-1.313-21.698-1.471-2.155-.074-3.902 2.149-3.902 4.799-.001 2.65 1.747 4.873 3.902 4.799 4.548-.161 15.12-.958 21.699-1.471-.399-1.01-.621-2.136-.622-3.328"/><path d="m10.231 7.407l-2.826 2.825 16.856 16.854c.83-1.035 1.785-1.992 2.825-2.825l-16.855-16.854"/><path d="m39.742 36.912c-.833 1.033-1.79 1.999-2.83 2.827l16.856 16.855 2.825-2.825-16.851-16.857"/><path d="m60.1 27.2c-4.543.158-15.12.952-21.697 1.471.398 1.01.619 2.136.619 3.328 0 1.191-.223 2.32-.619 3.328 6.582.513 17.15 1.31 21.697 1.471 2.156.074 3.903-2.149 3.903-4.799.001-2.65-1.747-4.873-3.903-4.799"/><path d="m35.33 38.4c-1.01.396-2.135.618-3.327.618s-2.32-.222-3.328-.618c-.513 6.581-1.309 17.15-1.47 21.696-.076 2.154 2.149 3.904 4.799 3.904 2.648 0 4.873-1.75 4.797-3.903-.157-4.547-.957-15.12-1.471-21.697"/><path d="m39.741 27.09l16.854-16.856-2.826-2.826-16.856 16.854c1.041.834 1.994 1.792 2.828 2.828"/><path d="m24.26 36.912l-16.856 16.856 2.826 2.826 16.856-16.855c-1.035-.828-2-1.796-2.826-2.827"/><circle cx="31.999" cy="32" r="4.8"/></g></svg>