<svg xmlns="http://www.w3.org/2000/svg" x="0px" y="0px"
	 width="52px" height="52px" viewBox="0 0 52 52" enable-background="new 0 0 52 52" xml:space="preserve">
<path fill="#FFFFFF" d="M49.8,21.2C49.8,21.2,49.9,21.2,49.8,21.2c0.1-0.2,0.1-0.3,0.1-0.4c0-0.1,0-0.1,0-0.1c0-0.1,0-0.2,0-0.3
	v-0.1v-0.1c0-0.1,0-0.1,0-0.3c0-0.1,0-0.1,0-0.1s-0.1-0.1-0.1-0.2c0-0.1,0-0.1-0.1-0.1c0-0.1-0.1-0.1-0.1-0.2c0-0.1-0.1-0.1-0.1-0.1
	l0,0L40.8,6.9c-0.4-0.5-1-0.9-1.7-0.9H26H12.9c-0.7,0-1.4,0.4-1.8,0.9L2.3,19.1l0,0c0,0.1-0.1,0.1-0.1,0.1c-0.1,0.1-0.1,0.1-0.1,0.2
	c0,0.1,0,0.1-0.1,0.1c0,0.1-0.1,0.1-0.1,0.2s0,0.1,0,0.1c0,0.1,0,0.1,0,0.3v0.1v0.1c0,0.1,0,0.2,0,0.3c0,0.1,0,0.1,0,0.1
	c0,0.1,0.1,0.3,0.1,0.4v0.1c0.1,0.1,0.1,0.2,0.1,0.3c0,0.1,0.1,0.1,0.1,0.1c0.1,0.1,0.1,0.1,0.1,0.1l21.9,23.6l0,0l0.1,0.1l0,0l0,0
	l0.1,0.1l0.1,0.1c0,0,0.1,0,0.1,0.1l0,0c0.1,0,0.1,0.1,0.1,0.1c0,0,0.1,0,0.1,0.1c0,0,0.1,0,0.1,0.1c0,0,0.1,0,0.1,0.1H25h0.1l0,0
	c0.1,0,0.1,0,0.1,0h0.1c0,0,0,0,0.1,0c0,0,0,0,0.1,0s0.2,0,0.3,0l0,0l0,0l0,0l0,0c0.1,0,0.2,0,0.3,0c0,0,0,0,0.1,0c0,0,0,0,0.1,0
	h0.1c0.1,0,0.1,0,0.1,0l0,0h0.1c0,0,0.1,0,0.1-0.1c0,0,0.1,0,0.1-0.1c0,0,0.1,0,0.1-0.1c0,0,0.1,0,0.1-0.1c0.1,0,0.1-0.1,0.1-0.1
	l0,0c0,0,0.1,0,0.1-0.1l0.1-0.1l0.1-0.1l0,0l0,0l0.1-0.1l0,0l21.9-23.6c0.1-0.1,0.1-0.1,0.1-0.1c0-0.1,0.1-0.1,0.1-0.1
	C49.7,21.4,49.8,21.3,49.8,21.2z M26,18.2h-3.5l3.5-5.8l3.5,5.8H26z M26,22.5h4.4L26,36.6l-4.4-14.1H26z M29.8,10.3h5.5l-2,5.7
	L29.8,10.3z M18.8,16l-2-5.7h5.5L18.8,16z M17.1,22.5l4,13l-12-13H17.1z M34.9,22.5h8l-12,13L34.9,22.5z M43.6,18.2h-6.6l2.2-6.1
	L43.6,18.2z M12.7,12.1l2.2,6.1H8.4L12.7,12.1z"/>
</svg>
