<?xml version="1.0" encoding="UTF-8"?>
<svg height="100%" width="100%" xmlns="http://www.w3.org/2000/svg">
	<defs>
		<font horiz-adv-x="610" id="web">
			<font-face alphabetic="0" ascent="992" descent="-290" font-family="" panose-1="2 11 2 5 2 2 2 9 2 3"/>
			<missing-glyph d="M49 718H561V0H49ZM99 667V50H511V667ZM308 609Q363 609 397 573T432 478Q432 444 419 418T369 358Q344 335 334 321T322 290T320 234H274L272 251Q272 300 283 327T331 391Q358 417 369 434T381 474Q381 515 359 537T305 559Q272 559 250 536T223 464L173 472Q179 541 215 575T308 609ZM271 184H327V117H271Z"/>
			<glyph d="" horiz-adv-x="235" unicode=" "/>
			<glyph d="M204 708H226L171 357L144 200H126L149 357ZM116 43Q136 43 136 26Q136 -4 108 -4Q88 -4 88 13Q88 43 116 43Z" horiz-adv-x="283" unicode="!"/>
			<glyph d="M190 708H212L174 480H154ZM332 708H354L316 480H296Z" horiz-adv-x="398" unicode="&quot;"/>
			<glyph d="M307 648H327L278 462H516L565 648H585L536 462H654V444H532L470 206H601V186H465L416 0H396L445 186H207L158 0H138L187 186H70V206H192L254 444H123V462H258ZM274 444L212 206H450L512 444Z" horiz-adv-x="724" unicode="#"/>
			<glyph d="M383 752H403L392 681Q493 678 575 621L563 607Q487 661 386 661Q296 661 238 621T180 514Q180 462 216 434T332 386Q395 370 433 351T493 301T515 221Q515 167 485 125T405 60T290 34L277 -44H257L270 34Q206 35 158 54T70 108L84 122Q123 87 169 71T276 55Q370 55 431 99T493 220Q493 284 451 315T325 368Q238 390 198 421T158 513Q158 562 185 599T262 658T372 681Z" unicode="$"/>
			<glyph d="M340 721Q424 721 468 672T512 552Q512 486 482 430T399 341T280 308Q196 308 152 356T108 476Q108 542 138 598T221 688T340 721ZM813 709H839L311 0H285ZM340 702Q281 702 233 671T157 588T130 479Q130 415 167 371T280 327Q340 327 388 357T463 439T490 549Q490 613 452 657T340 702ZM864 402Q948 402 992 353T1036 233Q1036 167 1006 111T923 22T804 -11Q720 -11 676 37T632 157Q632 223 662 279T745 369T864 402ZM864 383Q805 383 757 352T681 269T654 160Q654 96 691 52T804 8Q864 8 912 38T987 120T1014 230Q1014 294 976 338T864 383Z" horiz-adv-x="1177" unicode="%"/>
			<glyph d="M348 722Q412 722 450 687T489 599Q489 543 459 503T383 435T263 377L479 122Q548 213 577 324L597 320Q580 259 552 204T491 108L583 -1L567 -14L477 93Q431 42 373 14T240 -14Q184 -14 139 8T70 69T46 159Q46 237 94 291T233 382Q195 429 178 463T161 543Q161 595 185 636T252 699T348 722ZM348 703Q272 703 227 658T182 543Q182 502 197 469T251 391Q324 421 368 447T440 509T468 597Q468 643 436 673T348 703ZM244 369Q154 327 111 280T68 159Q68 89 116 47T241 6Q376 6 465 107Z" horiz-adv-x="638" unicode="&amp;"/>
			<glyph d="M190 708H212L174 480H154Z" horiz-adv-x="256" unicode="'"/>
			<glyph d="M336 822L351 811Q253 699 192 592T111 354Q102 297 102 247Q102 152 129 68T205 -104L188 -114Q135 -22 107 61T80 242Q80 294 89 354Q111 492 172 599T336 822Z" horiz-adv-x="334" unicode="("/>
			<glyph d="M180 822Q233 730 260 647T288 466Q288 414 279 354Q257 216 196 109T32 -114L17 -103Q115 9 175 116T257 354Q266 411 266 461Q266 556 239 640T163 812Z" horiz-adv-x="334" unicode=")"/>
			<glyph d="M183 708H202L200 582L320 623L326 606L205 569L282 466L267 455L193 560L119 455L104 466L181 569L60 606L66 623L185 582Z" horiz-adv-x="386" unicode="*"/>
			<glyph d="M331 487H351L321 298H511L508 279H318L287 87H267L298 279H108L111 298H301Z" unicode="+"/>
			<glyph d="M83 43Q105 43 105 22Q105 15 103 5Q95 -36 74 -72T5 -156L-3 -148Q38 -104 55 -70T81 0Q70 0 63 5T57 18Q57 29 64 36T83 43Z" horiz-adv-x="235" unicode=","/>
			<glyph d="M56 303H257L254 284H53Z" horiz-adv-x="299" unicode="-"/>
			<glyph d="M86 43Q106 43 106 26Q106 -4 78 -4Q58 -4 58 13Q58 43 86 43Z" horiz-adv-x="235" unicode="."/>
			<glyph d="M439 779H462L112 -75H89Z" horiz-adv-x="518" unicode="/"/>
			<glyph d="M379 722Q484 722 535 653T586 464Q586 412 577 353Q551 183 473 84T265 -14Q160 -14 109 54T58 244Q58 297 67 355Q93 525 171 623T379 722ZM378 703Q258 703 186 608T89 353Q80 295 80 243Q80 130 125 67T266 5Q386 5 458 100T555 355Q564 414 564 465Q564 578 519 640T378 703Z" unicode="0"/>
			<glyph d="M400 708H418L310 20H471L468 0H89L92 19L288 20L392 682L163 563L155 581Z" unicode="1"/>
			<glyph d="M367 722Q458 722 507 676T556 563Q556 483 503 406T369 259T138 75L67 20H501L498 0H32L35 19L106 74Q261 192 344 263T480 410T534 563Q534 625 490 664T365 703Q299 703 246 681T138 614L125 628Q188 678 242 700T367 722Z" unicode="2"/>
			<glyph d="M362 722Q451 722 500 680T550 571Q550 495 506 443T386 376L383 374Q437 370 477 334T517 228Q517 155 483 100T387 16T246 -14Q170 -14 117 7T20 75L34 88Q79 43 128 24T247 5Q321 5 377 32T464 110T495 228Q495 298 448 331T327 364H222L225 383H316Q378 383 426 406T501 472T528 571Q528 632 484 667T362 703Q298 703 247 687T143 633L131 648Q187 687 239 704T362 722Z" unicode="3"/>
			<glyph d="M378 708H403L62 221H412L448 447H470L434 221H556L553 201H431L399 0H377L409 201H33L36 219Z" unicode="4"/>
			<glyph d="M184 708H579L576 689H203L155 389Q237 431 341 431Q435 431 486 385T537 260Q537 179 501 117T400 20T251 -14Q179 -14 128 7T33 75L47 87Q92 43 139 24T251 5Q329 5 389 38T483 129T516 260Q516 333 470 372T341 412Q284 412 241 402T150 369H130Z" unicode="5"/>
			<glyph d="M415 722Q464 722 500 710T570 676L558 661Q526 683 493 693T414 703Q288 703 207 603T96 330Q150 387 213 420T360 454Q452 454 504 407T556 279Q556 196 520 129T419 24T272 -14Q165 -14 114 47T63 216Q63 256 71 309Q102 504 190 613T415 722ZM358 435Q278 435 212 399T91 300Q84 255 84 209Q84 113 129 59T272 5Q350 5 409 41T501 139T534 279Q534 354 488 394T358 435Z" unicode="6"/>
			<glyph d="M124 707H642L639 688Q460 519 353 354T193 0H171Q225 187 329 352T611 688L121 687Z" unicode="7"/>
			<glyph d="M379 722Q460 722 514 683T568 575Q568 500 522 452T386 365Q472 334 509 297T547 204Q547 137 509 87T407 12T264 -14Q158 -14 100 30T42 149Q42 320 268 387Q200 413 169 448T138 532Q138 589 171 632T260 699T379 722ZM378 703Q319 703 269 682T189 622T160 532Q160 483 190 453T299 395L363 373Q454 413 500 458T546 575Q546 636 499 669T378 703ZM293 378Q182 345 123 292T64 149Q64 81 116 43T265 5Q337 5 396 29T490 98T525 204Q525 260 483 293T345 361Z" unicode="8"/>
			<glyph d="M374 722Q479 722 530 665T582 502Q582 455 573 399Q553 272 490 179T329 36T104 -14L105 6Q224 6 316 52T468 181T548 377Q503 322 438 288T290 254Q199 254 144 302T90 438Q90 521 125 585T224 686T374 722ZM373 703Q294 703 234 669T143 575T112 438Q112 359 159 316T291 273Q373 273 439 310T553 409Q560 457 560 503Q560 703 373 703Z" unicode="9"/>
			<glyph d="M87 43Q107 43 107 26Q107 -4 79 -4Q59 -4 59 13Q59 43 87 43ZM149 440Q169 440 169 423Q169 393 141 393Q121 393 121 410Q121 440 149 440Z" horiz-adv-x="236" unicode=":"/>
			<glyph d="M83 43Q105 43 105 22Q105 15 103 5Q95 -36 74 -72T5 -156L-3 -148Q38 -104 55 -70T81 0Q70 0 63 5T57 18Q57 29 64 36T83 43ZM148 440Q168 440 168 423Q168 393 140 393Q120 393 120 410Q120 440 148 440Z" horiz-adv-x="235" unicode=";"/>
			<glyph d="M532 512L539 494L142 283L473 72L460 56L116 274L120 294Z" unicode="&lt;"/>
			<glyph d="M134 393H523L520 374H131ZM102 193H491L488 174H99Z" unicode="="/>
			<glyph d="M162 512L506 294L502 274L90 56L83 74L480 285L149 496Z" unicode="&gt;"/>
			<glyph d="M302 722Q376 722 418 682T460 576Q460 525 440 487T393 424T322 367Q271 330 245 303T215 240L209 200H189L195 242T228 313T307 379Q350 410 376 433T420 492T438 574Q438 635 401 669T298 703Q234 703 185 679T93 614L79 627Q128 673 180 697T302 722ZM189 43Q209 43 209 26Q209 -4 181 -4Q161 -4 161 13Q161 43 189 43Z" horiz-adv-x="458" unicode="?"/>
			<glyph d="M488 677Q606 677 689 636T816 525T859 366Q859 231 816 165T708 100Q653 100 627 135T602 213Q580 164 535 133T431 102Q364 102 326 146T288 267Q288 373 345 438T505 504Q583 504 659 460L623 251Q620 235 620 219Q620 174 643 145T708 117Q763 117 800 178T838 365Q838 450 798 516T679 620T488 658Q377 658 294 608T166 475T122 292Q122 185 165 106T291 -15T487 -58Q546 -58 591 -48T681 -24L687 -41Q590 -77 486 -77Q369 -77 282 -32T148 96T101 292Q101 396 148 484T283 625T488 677ZM502 485Q407 485 358 422T309 268Q309 200 341 160T435 120Q483 120 519 144T578 206T608 283L637 450Q607 465 575 475T502 485Z" horiz-adv-x="960" unicode="@"/>
			<glyph d="M373 708H402L574 0H551L502 203H112L1 0H-24ZM386 694L123 222H498Z" horiz-adv-x="628" unicode="A"/>
			<glyph d="M176 708H386Q460 708 508 676T557 575Q557 500 512 445T393 377V375Q455 367 494 329T533 227Q533 158 502 106T415 27T287 0H64ZM195 689L147 383H323Q384 383 432 407T508 474T535 573Q535 634 494 661T384 689ZM144 364L89 19H280Q385 19 448 74T511 226Q511 292 465 328T339 364Z" horiz-adv-x="591" unicode="B"/>
			<glyph d="M468 722Q596 722 676 642L661 629Q585 703 465 703Q354 703 269 645T138 490T92 277Q92 153 159 79T355 6Q418 6 480 30T592 98L605 83Q552 36 487 11T352 -14Q263 -14 199 22T102 122T69 273Q69 398 118 500T259 662T468 722Z" horiz-adv-x="656" unicode="C"/>
			<glyph d="M176 708H373Q516 708 593 640T671 439Q671 306 623 207T483 54T261 0H64ZM195 689L89 19H259Q384 19 471 71T604 218T649 438Q649 565 576 627T365 689Z" horiz-adv-x="706" unicode="D"/>
			<glyph d="M176 708H570L567 689H194L145 377H476L473 358H142L88 19H477L474 0H64Z" horiz-adv-x="544" unicode="E"/>
			<glyph d="M176 708H572L569 689H195L146 377H484L481 358H143L86 0H64Z" horiz-adv-x="519" unicode="F"/>
			<glyph d="M473 722Q599 722 684 640L670 627Q591 703 472 703Q360 703 273 645T138 489T91 275Q91 150 159 77T359 5Q426 5 482 20T594 64L633 311H444L447 330H658L613 51Q549 19 491 2T356 -14Q217 -14 143 63T69 271Q69 396 119 499T261 662T473 722Z" horiz-adv-x="737" unicode="G"/>
			<glyph d="M176 708H198L146 376H606L658 708H680L568 0H546L602 356H142L86 0H64Z" horiz-adv-x="710" unicode="H"/>
			<glyph d="M135 708H330L327 689H241L135 19H221L218 0H23L26 19H113L219 689H132Z" horiz-adv-x="319" unicode="I"/>
			<glyph d="M355 708H377L295 187Q280 97 229 41T88 -14Q23 -14 -26 16L-16 31Q28 5 89 5Q168 5 214 55T273 188Z" horiz-adv-x="398" unicode="J"/>
			<glyph d="M176 708H198L140 339L550 708H580L222 386L486 0H461L207 373L135 308L86 0H64Z" horiz-adv-x="543" unicode="K"/>
			<glyph d="M176 708H198L89 20H434L431 0H64Z" horiz-adv-x="475" unicode="L"/>
			<glyph d="M176 708H212L406 32H408L815 708H853L741 0H719L827 683H825L412 0H394L196 683H194L86 0H64Z" horiz-adv-x="883" unicode="M"/>
			<glyph d="M176 708H204L596 28H598L705 708H727L615 0H587L196 681H194L86 0H64Z" horiz-adv-x="757" unicode="N"/>
			<glyph d="M469 722Q608 722 682 644T757 434Q757 310 707 207T567 45T357 -14Q218 -14 143 64T69 275Q69 398 119 500T260 662T469 722ZM468 703Q356 703 270 645T138 490T92 275Q92 149 160 77T358 5Q470 5 555 62T687 218T734 434Q734 560 666 631T468 703Z" horiz-adv-x="792" unicode="O"/>
			<glyph d="M176 708H379Q462 708 520 666T579 535Q579 457 545 396T452 302T316 268H128L86 0H64ZM195 689L131 287H320Q388 287 442 319T526 407T557 533Q557 615 506 652T379 689Z" horiz-adv-x="572" unicode="P"/>
			<glyph d="M469 722Q608 722 682 644T757 434Q757 310 707 208T568 47T360 -14Q362 -63 387 -94T470 -140T631 -155L625 -174Q519 -174 456 -155T367 -102T339 -14Q209 -8 139 69T69 275Q69 398 119 500T260 662T469 722ZM468 703Q356 703 270 645T138 490T92 275Q92 149 160 77T358 5Q470 5 555 62T687 218T734 434Q734 560 666 631T468 703Z" horiz-adv-x="794" unicode="Q"/>
			<glyph d="M176 708H382Q430 708 472 690T540 633T567 538Q567 470 538 416T459 328T343 289L492 0H468L320 288H132L86 0H64ZM195 689L135 307H319Q383 307 434 336T515 418T545 535Q545 612 497 650T380 689Z" horiz-adv-x="572" unicode="R"/>
			<glyph d="M347 722Q452 722 529 662L517 648Q479 676 438 689T344 703Q249 703 189 658T130 530Q130 478 166 447T281 388Q375 355 422 313T469 203Q469 137 437 88T349 12T221 -14Q92 -14 6 69L19 83Q62 43 110 24T223 6Q324 6 385 59T447 203Q447 266 405 302T277 369Q190 399 149 435T108 530Q108 621 174 671T347 722Z" horiz-adv-x="525" unicode="S"/>
			<glyph d="M78 708H572L569 688H333L224 0H202L311 688H75Z" horiz-adv-x="504" unicode="T"/>
			<glyph d="M167 708H189L117 253Q111 217 111 186Q111 98 161 52T319 6Q562 6 602 254L674 708H696L623 252Q582 -14 318 -14Q202 -14 145 37T89 186Q89 223 94 252Z" horiz-adv-x="716" unicode="U"/>
			<glyph d="M88 708H110L256 19H258L621 708H645L270 0H238Z" horiz-adv-x="587" unicode="V"/>
			<glyph d="M97 708H120L210 20H212L517 708H551L643 20H645L952 708H976L657 0H624L532 687H530L225 0H193Z" horiz-adv-x="927" unicode="W"/>
			<glyph d="M121 708H145L301 388L564 708H590L311 370L499 0H475L297 354L12 0H-15L287 373Z" horiz-adv-x="564" unicode="X"/>
			<glyph d="M73 708H97L260 330H262L545 708H571L270 308L221 0H199L248 310Z" horiz-adv-x="498" unicode="Y"/>
			<glyph d="M128 708H580L576 682L28 19H483L480 0H3L6 24L556 689H125Z" horiz-adv-x="570" unicode="Z"/>
			<glyph d="M168 799H340L336 779H185L48 -89H199L196 -109H24Z" horiz-adv-x="334" unicode="["/>
			<glyph d="M93 779H115L456 -75H434Z" horiz-adv-x="518" unicode="\"/>
			<glyph d="M170 799H342L198 -109H26L29 -89H180L317 779H166Z" horiz-adv-x="335" unicode="]"/>
			<glyph d="M295 708H317L480 508L466 497L306 690L145 497L131 508Z" unicode="^"/>
			<glyph d="M-5 -108H475L472 -127H-8Z" horiz-adv-x="588" unicode="_"/>
			<glyph d="M116 722L271 606L259 593L100 705Z" horiz-adv-x="215" unicode="`"/>
			<glyph d="M353 506Q400 506 438 494T517 455L463 105Q454 44 451 0H431Q433 48 445 120H443Q409 52 353 19T235 -14Q150 -14 103 40T56 187Q56 280 92 352T195 465T353 506ZM351 487Q268 487 206 448T112 342T79 191Q79 107 119 56T235 5Q324 5 385 68T461 232L493 446Q436 487 351 487Z" horiz-adv-x="577" unicode="a"/>
			<glyph d="M171 708H193L138 365H140Q174 429 233 467T357 506Q445 506 491 451T537 306Q537 280 532 245Q520 170 484 111T392 19T268 -14Q215 -14 162 0T64 35ZM355 487Q296 487 245 454T162 369T122 264L88 46Q134 27 177 16T271 5Q334 5 384 37T467 123T510 245Q515 278 515 303Q515 386 474 436T355 487Z" horiz-adv-x="592" unicode="b"/>
			<glyph d="M328 506Q371 506 410 492T478 455L465 441Q408 487 325 487Q250 487 193 446T107 336T78 188Q78 105 121 55T249 5Q324 5 402 52L413 36Q332 -14 246 -14Q154 -14 105 40T56 186Q56 274 89 347T183 463T328 506Z" horiz-adv-x="488" unicode="c"/>
			<glyph d="M545 708H567L472 105Q464 61 460 0H440Q442 48 454 120H452Q418 52 361 19T242 -14Q152 -14 103 40T55 187Q55 271 88 344T182 462T321 506Q380 506 422 485T501 428ZM319 487Q250 487 195 445T109 336T78 191Q78 107 120 56T242 5Q332 5 393 68T470 232L497 405Q461 445 418 466T319 487Z" horiz-adv-x="591" unicode="d"/>
			<glyph d="M342 506Q414 506 448 475T483 396Q483 328 431 291T297 241T79 219Q77 195 77 183Q77 104 117 55T240 6Q293 6 335 18T417 56L427 40Q343 -14 238 -14Q148 -14 101 39T55 183Q55 273 89 346T189 463T342 506ZM341 487Q268 487 212 454T123 364T81 237Q212 246 289 258T413 303T461 396Q461 438 432 462T341 487Z" horiz-adv-x="515" unicode="e"/>
			<glyph d="M324 722Q364 722 398 711L393 695Q360 704 325 704Q271 704 237 669T193 571L181 492H312L309 473H178L102 -4Q89 -91 70 -139T22 -212T-55 -257L-62 -239Q-17 -221 8 -197T51 -129T80 -4L156 473H61L63 487L159 492L171 570Q183 645 222 683T324 722Z" horiz-adv-x="290" unicode="f"/>
			<glyph d="M350 506Q398 506 437 494T517 455L446 -14Q429 -127 364 -192T190 -258Q144 -258 102 -244T33 -206L46 -192Q78 -217 113 -228T192 -239Q290 -239 349 -177T424 -14L445 120H443Q409 52 353 19T235 -14Q150 -14 103 40T56 187Q56 280 91 352T193 465T350 506ZM348 487Q266 487 205 448T111 342T79 191Q79 107 119 56T235 5Q324 5 385 68T461 232L493 446Q436 487 348 487Z" horiz-adv-x="575" unicode="g"/>
			<glyph d="M171 708H193L138 364H140Q168 429 222 467T352 506Q428 506 464 465T500 356Q500 330 496 307L447 0H425L473 305Q477 328 477 353Q477 415 446 451T349 487Q257 487 196 419T117 226L81 0H59Z" horiz-adv-x="574" unicode="h"/>
			<glyph d="M137 492H159L81 0H59ZM182 708Q203 708 203 691Q203 661 175 661Q154 661 154 678Q154 708 182 708Z" horiz-adv-x="218" unicode="i"/>
			<glyph d="M137 492H159L80 -4Q67 -91 48 -139T0 -212T-77 -257L-84 -239Q-39 -221 -13 -197T29 -129T58 -4ZM182 708Q203 708 203 691Q203 661 175 661Q154 661 154 678Q154 708 182 708Z" horiz-adv-x="218" unicode="j"/>
			<glyph d="M171 708H193L120 249L420 492H451L199 288L403 0H378L182 275L116 221L81 0H59Z" horiz-adv-x="447" unicode="k"/>
			<glyph d="M171 708H193L81 0H59Z" horiz-adv-x="218" unicode="l"/>
			<glyph d="M340 506Q412 506 446 464T480 354H482Q508 424 563 465T687 506Q758 506 792 465T827 356Q827 330 823 307L774 0H752L800 305Q804 329 804 356Q804 417 775 452T684 487Q602 487 544 422T465 239L427 0H405L453 305Q457 329 457 356Q457 417 428 452T337 487Q253 487 194 419T116 226L80 0H58L119 387Q127 431 131 492H150Q148 427 136 362H138Q165 427 219 466T340 506Z" horiz-adv-x="901" unicode="m"/>
			<glyph d="M351 506Q427 506 463 465T499 356Q499 330 495 307L446 0H424L472 305Q476 328 476 353Q476 415 445 451T348 487Q256 487 195 419T116 226L80 0H58L119 387Q127 431 131 492H150Q148 427 136 362H138Q166 428 221 467T351 506Z" horiz-adv-x="573" unicode="n"/>
			<glyph d="M326 506Q421 506 471 452T521 306Q521 218 488 145T394 29T251 -14Q156 -14 106 40T56 188Q56 276 89 348T183 463T326 506ZM326 487Q250 487 194 446T108 338T78 189Q78 105 121 55T250 5Q326 5 382 46T469 155T499 305Q499 389 455 438T326 487Z" horiz-adv-x="577" unicode="o"/>
			<glyph d="M356 506Q444 506 490 451T537 306Q537 221 504 147T410 30T268 -14Q208 -14 166 7T91 64L42 -244H20L120 385Q130 450 131 492H152Q152 485 149 447T139 365H141Q172 433 230 469T356 506ZM355 487Q262 487 199 418T117 226L95 87Q134 44 173 24T271 5Q343 5 399 46T485 156T515 302Q515 385 474 436T355 487Z" horiz-adv-x="593" unicode="p"/>
			<glyph d="M351 506Q398 506 437 494T517 455L401 -244H380L441 112H439Q408 49 352 17T235 -14Q150 -14 103 40T56 187Q56 280 91 352T193 465T351 506ZM349 487Q267 487 205 448T111 342T79 191Q79 107 119 56T235 5Q324 5 385 67T461 232L493 446Q434 487 349 487Z" horiz-adv-x="582" unicode="q"/>
			<glyph d="M324 506Q338 506 350 503L346 485Q334 487 321 487Q271 487 228 452T157 357T116 224L80 0H58L119 385Q128 444 131 492H150Q148 420 135 359H137Q166 430 218 468T324 506Z" horiz-adv-x="314" unicode="r"/>
			<glyph d="M235 506Q323 506 381 459L370 445Q340 467 307 477T232 487Q169 487 128 458T87 375Q87 338 115 314T212 271Q279 251 311 219T343 142Q343 68 293 27T160 -14Q67 -14 -2 42L9 57Q43 30 78 17T164 5Q234 5 277 40T321 141Q321 182 293 208T200 254Q128 275 96 303T65 374Q65 438 113 472T235 506Z" horiz-adv-x="412" unicode="s"/>
			<glyph d="M194 636L171 492H313L310 473H168L111 114Q107 89 107 74Q107 39 125 22T176 5Q203 5 235 15L238 -3Q208 -14 174 -14Q132 -14 108 8T85 72Q85 90 89 114L146 473H51L53 488L149 492L171 628Z" horiz-adv-x="306" unicode="t"/>
			<glyph d="M127 492H149L101 187Q97 164 97 139Q97 77 128 41T226 5Q318 5 377 69T455 254L493 492H515L454 105Q446 61 442 0H423Q425 60 437 123H435Q407 60 353 23T226 -14Q149 -14 111 27T74 138Q74 164 78 185Z" horiz-adv-x="573" unicode="u"/>
			<glyph d="M49 492H72L179 21H181L431 492H455L192 0H162Z" horiz-adv-x="426" unicode="v"/>
			<glyph d="M62 492H85L139 21H141L365 492H396L471 21H472L677 492H700L483 0H455L378 469H376L152 0H121Z" horiz-adv-x="684" unicode="w"/>
			<glyph d="M71 492H94L217 275L413 492H439L229 259L385 0H361L215 243L-2 0H-29L203 259Z" horiz-adv-x="437" unicode="x"/>
			<glyph d="M49 492H71L176 23H177L418 492H442L173 -26Q128 -112 102 -152T44 -215T-42 -258L-48 -240Q2 -223 34 -197T92 -131T155 -16L162 -2Z" horiz-adv-x="413" unicode="y"/>
			<glyph d="M94 492H399L396 470L28 19H335L332 0H1L5 21L371 473H91Z" horiz-adv-x="406" unicode="z"/>
			<glyph d="M367 799L363 778Q310 778 274 749T230 659L199 458Q183 360 88 346V344Q125 335 145 315T165 257Q165 248 162 228L134 47Q128 11 128 -4Q128 -45 154 -66T226 -88L223 -109Q172 -109 139 -81T107 -4Q107 15 112 47L140 227Q143 247 143 256Q143 290 122 309T67 333L71 357Q113 364 141 389T177 458L208 659Q219 732 261 765T367 799Z" horiz-adv-x="334" unicode="{"/>
			<glyph d="M150 808H172V-100H150Z" horiz-adv-x="322" unicode="|"/>
			<glyph d="M142 799Q193 799 225 771T258 694Q258 676 253 643L225 463Q222 450 222 434Q222 400 242 381T298 357L294 333Q252 326 223 301T188 232L157 31Q146 -42 103 -75T-2 -109L2 -88Q55 -88 90 -59T135 31L166 232Q182 330 277 344V346Q240 355 220 375T200 433Q200 449 203 462L231 643Q237 679 237 694Q237 735 211 756T139 778Z" horiz-adv-x="334" unicode="}"/>
			<glyph d="M235 320Q256 320 273 313T316 292Q339 279 356 272T392 265Q419 265 442 277T495 318L507 307Q478 275 450 260T391 246Q370 246 352 253T310 274Q287 287 270 294T234 301Q207 301 183 289T131 248L119 259Q148 291 176 305T235 320Z" unicode="~"/>
			<glyph d="" horiz-adv-x="235" unicode=" "/>
			<glyph d="M153 302H171L148 145L93 -206H71L126 145ZM189 506Q209 506 209 489Q209 459 181 459Q161 459 161 476Q161 506 189 506Z" horiz-adv-x="283" unicode="¡"/>
			<glyph d="M404 708H424L408 614Q451 612 487 597T549 558L536 544Q484 595 396 595Q319 595 262 554T174 444T144 295Q144 212 188 162T318 113Q357 113 394 126T473 164L482 148Q407 97 326 94L312 0H292L308 94Q218 97 170 151T122 296Q122 382 154 454T248 569T390 614Z" unicode="¢"/>
			<glyph d="M394 722Q506 722 573 635L557 624Q526 663 487 682T393 702Q335 702 291 677T225 611T202 520Q202 484 209 455T232 386L241 360H444L441 341H247Q258 299 258 265Q258 98 87 22V20H482L479 0H48L51 20Q145 64 191 118T237 261Q237 302 224 341H120L123 360H218L210 383Q196 423 188 452T181 520Q181 575 207 621T282 695T394 722Z" unicode="£"/>
			<glyph d="M129 506L202 412Q243 438 305 438Q367 438 408 412L481 506L497 494L424 401Q478 356 478 269Q478 182 423 137L497 44L481 32L408 126Q367 100 305 100Q243 100 202 126L129 32L113 44L187 137Q132 182 132 269Q132 357 187 402L113 495ZM305 419Q229 419 191 379T154 269Q154 200 192 159T305 119Q380 119 418 159T456 269Q456 339 418 379T305 419Z" unicode="¤"/>
			<glyph d="M119 708H143L312 327H314L601 708H627L334 325H477L474 308H321L308 228H461L458 211H306L272 0H250L283 211H130L133 228H286L299 308H146L149 325H292Z" horiz-adv-x="600" unicode="¥"/>
			<glyph d="M150 808H172V427H150ZM150 281H172V-100H150Z" horiz-adv-x="322" unicode="¦"/>
			<glyph d="M382 722Q430 722 469 709T544 671L532 657Q497 681 461 692T382 703Q314 703 272 674T231 604Q231 565 260 541T363 494Q441 470 472 443T504 367Q504 315 461 278T347 229Q409 208 435 184T461 116Q461 57 407 22T274 -13Q217 -13 177 0T99 41L111 55Q148 30 185 18T274 6Q345 6 392 36T440 116Q440 144 426 162T383 193T301 223Q225 246 193 273T161 348Q161 401 204 438T321 489Q260 510 235 536T210 604Q210 637 231 664T292 706T382 722ZM352 479Q276 471 229 434T183 348Q183 320 195 301T235 269T314 239H316Q391 248 436 283T482 367Q482 397 470 416T430 449T352 479Z" unicode="§"/>
			<glyph d="M123 684Q143 684 143 665Q143 637 116 637Q96 637 96 656Q96 684 123 684ZM280 684Q300 684 300 665Q300 637 273 637Q253 637 253 656Q253 684 280 684Z" horiz-adv-x="264" unicode="¨"/>
			<glyph d="M474 722Q594 722 678 674T805 544T848 354Q848 247 805 164T678 33T474 -14Q354 -14 269 33T142 164T100 354Q100 461 142 544T269 674T474 722ZM474 703Q359 703 279 657T160 533T121 354Q121 253 160 174T279 50T474 5Q589 5 668 50T787 174T827 354Q827 455 787 533T668 657T474 703ZM481 570Q560 570 617 526L607 512Q578 532 548 541T481 551Q396 551 351 497T306 355Q306 267 351 212T481 158Q548 158 605 198L615 184Q588 163 553 151T481 139Q388 139 336 198T285 355Q285 453 336 511T481 570Z" horiz-adv-x="948" unicode="©"/>
			<glyph d="M369 721Q415 721 452 709T530 671L477 328Q468 268 465 225H445Q447 272 459 343H457Q424 276 369 243T253 211Q170 211 124 264T78 408Q78 499 113 570T214 681T369 721ZM367 702Q286 702 225 664T132 560T100 412Q100 330 140 280T253 230Q341 230 400 291T475 452L506 662Q450 702 367 702ZM49 28H441L438 9H46Z" horiz-adv-x="548" unicode="ª"/>
			<glyph d="M244 506L256 493L128 351L211 209L196 200L104 345L106 361ZM386 506L398 493L270 351L353 209L338 200L246 345L248 361Z" horiz-adv-x="447" unicode="«"/>
			<glyph d="M113 353H513L486 190H466L490 334H110Z" horiz-adv-x="596" unicode="¬"/>
			<glyph d="M56 303H257L254 284H53Z" horiz-adv-x="299" unicode="­"/>
			<glyph d="M230 722Q290 722 322 688T355 600Q355 546 322 512T230 478Q171 478 138 512T106 600Q106 654 138 688T230 722ZM231 706Q178 706 151 676T124 600Q124 553 151 523T231 494Q283 494 310 523T338 600Q338 647 310 676T231 706ZM189 673H235Q257 673 270 662T284 630Q284 612 275 601T252 587L288 534H268L233 585H207V534H189ZM207 658V600H230Q267 600 267 630Q267 644 257 651T231 658Z" horiz-adv-x="349" unicode="®"/>
			<glyph d="M92 640H324L321 621H89Z" horiz-adv-x="292" unicode="¯"/>
			<glyph d="M233 722Q285 722 317 691T349 608Q349 556 317 525T233 494Q180 494 148 525T117 608Q117 660 148 691T233 722ZM233 703Q188 703 163 678T139 608Q139 563 163 538T233 513Q278 513 302 538T327 608Q327 653 302 678T233 703Z" horiz-adv-x="352" unicode="°"/>
			<glyph d="M346 577H366L337 393H526L523 374H334L302 177H282L314 374H123L126 393H317ZM70 28H470L467 9H67Z" unicode="±"/>
			<glyph d="M343 718Q410 718 445 684T481 600Q481 541 441 484T340 376T167 241L127 211H439L436 191H91L94 210L142 246Q256 331 318 383T419 489T459 600Q459 644 428 671T339 699Q289 699 250 683T171 634L158 648Q204 685 245 701T343 718Z" horiz-adv-x="540" unicode="²"/>
			<glyph d="M348 718Q415 718 451 688T488 609Q488 603 486 587Q477 531 443 502T366 465L364 464Q405 460 435 434T465 359Q465 352 463 334Q452 263 397 222T257 181Q197 181 158 196T89 246L104 259Q134 227 168 213T258 200Q334 200 382 236T440 335Q442 353 442 360Q442 409 408 431T319 454H239L242 473H311Q370 473 412 502T464 588Q466 602 466 609Q466 652 435 675T345 699Q297 699 259 687T181 647L170 660Q211 690 252 704T348 718Z" horiz-adv-x="540" unicode="³"/>
			<glyph d="M242 722L254 704L95 593L85 608Z" horiz-adv-x="210" unicode="´"/>
			<glyph d="M132 492H154L107 194Q103 173 103 146Q103 82 135 43T232 4Q289 4 337 35T416 120T457 236L498 492H520L459 105Q451 61 447 0H427Q431 56 443 129H441Q404 60 350 22T228 -15Q116 -15 91 86H89L54 -131Q41 -211 31 -244H10Q24 -194 32 -139Z" horiz-adv-x="578" unicode="µ"/>
			<glyph d="M310 708H415L412 688L282 -130H260L338 360H257Q175 360 129 396T83 500Q83 596 145 652T310 708ZM553 708H575L442 -130H420ZM309 688Q213 688 158 638T104 500Q104 380 258 380H341L390 688Z" horiz-adv-x="605" unicode="¶"/>
			<glyph d="M134 343Q154 343 154 326Q154 296 126 296Q106 296 106 313Q106 343 134 343Z" horiz-adv-x="235" unicode="·"/>
			<glyph d="M66 0H86L44 -85Q68 -79 87 -79Q118 -79 135 -94T152 -136Q152 -178 122 -202T44 -226Q-4 -226 -41 -204L-31 -189Q-13 -199 4 -203T44 -208Q84 -208 107 -189T130 -137Q130 -97 83 -97Q62 -97 34 -104H13Z" horiz-adv-x="243" unicode="¸"/>
			<glyph d="M358 708H376L297 211H418L415 191H126L129 210L275 211L350 682L180 598L173 615Z" horiz-adv-x="540" unicode="¹"/>
			<glyph d="M364 721Q458 721 507 668T556 525Q556 439 523 367T431 253T291 211Q198 211 149 264T100 409Q100 495 132 566T224 679T364 721ZM364 702Q290 702 235 662T150 556T121 410Q121 328 164 279T290 230Q364 230 419 270T504 377T534 524Q534 606 491 654T364 702ZM61 28H453L450 9H58Z" horiz-adv-x="592" unicode="º"/>
			<glyph d="M143 506L235 361L233 345L95 200L82 213L211 355L127 497ZM285 506L377 361L375 345L237 200L224 213L353 355L269 497Z" horiz-adv-x="447" unicode="»"/>
			<glyph d="M318 708H336L257 211H378L375 191H86L89 210L235 211L310 682L140 598L133 615ZM883 709H909L381 0H355ZM971 517H996L751 164H999L1025 326H1047L1021 164H1111L1108 144H1018L995 0H973L996 144H722L725 162Z" horiz-adv-x="1200" unicode="¼"/>
			<glyph d="M294 708H312L233 211H354L351 191H62L65 210L211 211L286 682L116 598L109 615ZM839 709H865L337 0H311ZM979 527Q1046 527 1081 493T1117 409Q1117 350 1077 293T976 185T803 50L763 20H1075L1072 0H727L730 19L778 55Q892 140 954 192T1055 298T1095 409Q1095 453 1064 480T975 508Q925 508 886 492T807 443L794 457Q840 494 881 510T979 527Z" horiz-adv-x="1200" unicode="½"/>
			<glyph d="M321 718Q388 718 424 688T461 609Q461 603 459 587Q450 531 416 502T339 465L337 464Q378 460 408 434T438 359Q438 352 436 334Q425 263 370 222T230 181Q170 181 131 196T62 246L77 259Q107 227 141 213T231 200Q307 200 355 236T413 335Q415 353 415 360Q415 409 381 431T292 454H212L215 473H284Q343 473 385 502T437 588Q439 602 439 609Q439 652 408 675T318 699Q270 699 232 687T154 647L143 660Q184 690 225 704T321 718ZM886 709H912L384 0H358ZM984 517H1009L764 164H1012L1038 326H1060L1034 164H1124L1121 144H1031L1008 0H986L1009 144H735L738 162Z" horiz-adv-x="1200" unicode="¾"/>
			<glyph d="M251 302H271L265 260T232 189T153 123Q110 92 84 68T40 10T22 -72Q22 -133 58 -167T162 -201Q226 -201 274 -177T367 -112L381 -125Q332 -171 280 -195T158 -220Q84 -220 42 -180T0 -74Q0 -23 19 15T66 78T138 135Q189 172 214 198T245 262ZM279 506Q299 506 299 489Q299 459 271 459Q251 459 251 476Q251 506 279 506Z" horiz-adv-x="458" unicode="¿"/>
			<glyph d="M373 708H402L574 0H551L502 203H112L1 0H-24ZM386 694L123 222H498ZM342 903L496 806L486 794L329 885Z" horiz-adv-x="628" unicode="À"/>
			<glyph d="M373 708H402L574 0H551L502 203H112L1 0H-24ZM386 694L123 222H498ZM489 903L498 884L329 794L323 808Z" horiz-adv-x="628" unicode="Á"/>
			<glyph d="M373 708H402L574 0H551L502 203H112L1 0H-24ZM386 694L123 222H498ZM413 900H435L542 805L531 793L423 882L286 793L276 805Z" horiz-adv-x="628" unicode="Â"/>
			<glyph d="M373 708H402L574 0H551L502 203H112L1 0H-24ZM386 694L123 222H498ZM354 863Q369 863 382 856T413 836Q442 814 457 814Q474 814 490 824T527 861L541 854Q501 795 457 795Q443 795 430 801T401 821Q386 832 375 838T354 844Q336 844 320 833T285 797L271 804Q312 863 354 863Z" horiz-adv-x="628" unicode="Ã"/>
			<glyph d="M373 708H402L574 0H551L502 203H112L1 0H-24ZM386 694L123 222H498ZM336 884Q356 884 356 865Q356 837 329 837Q309 837 309 856Q309 884 336 884ZM493 884Q513 884 513 865Q513 837 486 837Q466 837 466 856Q466 884 493 884Z" horiz-adv-x="628" unicode="Ä"/>
			<glyph d="M456 873Q490 873 512 852T534 800Q534 756 504 725T428 695Q416 695 404 698L574 0H551L502 203H112L1 0H-24L373 708H381Q366 718 358 734T350 770Q350 813 381 843T456 873ZM454 855Q417 855 393 831T370 771Q370 745 386 729T431 713Q467 713 490 737T514 799Q514 824 498 839T454 855ZM386 694L123 222H498Z" horiz-adv-x="628" unicode="Å"/>
			<glyph d="M372 708H855L852 689H406L460 377H784L781 358H463L522 19H814L811 0H502L468 203H112L0 0H-24ZM385 694L122 222H465Z" horiz-adv-x="872" unicode="Æ"/>
			<glyph d="M468 722Q596 722 676 642L661 629Q585 703 465 703Q354 703 269 645T138 490T92 277Q92 153 159 79T355 6Q418 6 480 30T592 98L605 83Q552 36 487 11T352 -14H338L303 -85Q327 -79 346 -79Q377 -79 394 -94T411 -136Q411 -178 381 -202T303 -226Q255 -226 218 -204L228 -189Q246 -199 263 -203T303 -208Q343 -208 366 -189T389 -137Q389 -97 342 -97Q321 -97 293 -104H272L319 -13Q200 -3 134 74T69 273Q69 398 118 500T259 662T468 722Z" horiz-adv-x="656" unicode="Ç"/>
			<glyph d="M176 708H570L567 689H194L145 377H476L473 358H142L88 19H477L474 0H64ZM316 903L470 806L460 794L303 885Z" horiz-adv-x="544" unicode="È"/>
			<glyph d="M176 708H570L567 689H194L145 377H476L473 358H142L88 19H477L474 0H64ZM463 903L472 884L303 794L297 808Z" horiz-adv-x="544" unicode="É"/>
			<glyph d="M176 708H570L567 689H194L145 377H476L473 358H142L88 19H477L474 0H64ZM387 900H409L516 805L505 793L397 882L260 793L250 805Z" horiz-adv-x="544" unicode="Ê"/>
			<glyph d="M176 708H570L567 689H194L145 377H476L473 358H142L88 19H477L474 0H64ZM310 884Q330 884 330 865Q330 837 303 837Q283 837 283 856Q283 884 310 884ZM467 884Q487 884 487 865Q487 837 460 837Q440 837 440 856Q440 884 467 884Z" horiz-adv-x="544" unicode="Ë"/>
			<glyph d="M135 708H330L327 689H241L135 19H221L218 0H23L26 19H113L219 689H132ZM187 903L341 806L331 794L174 885Z" horiz-adv-x="319" unicode="Ì"/>
			<glyph d="M135 708H330L327 689H241L135 19H221L218 0H23L26 19H113L219 689H132ZM334 903L343 884L174 794L168 808Z" horiz-adv-x="319" unicode="Í"/>
			<glyph d="M135 708H330L327 689H241L135 19H221L218 0H23L26 19H113L219 689H132ZM258 900H280L387 805L376 793L268 882L131 793L121 805Z" horiz-adv-x="319" unicode="Î"/>
			<glyph d="M135 708H330L327 689H241L135 19H221L218 0H23L26 19H113L219 689H132ZM181 884Q201 884 201 865Q201 837 174 837Q154 837 154 856Q154 884 181 884ZM338 884Q358 884 358 865Q358 837 331 837Q311 837 311 856Q311 884 338 884Z" horiz-adv-x="319" unicode="Ï"/>
			<glyph d="M176 708H373Q516 708 593 640T671 439Q671 306 623 207T483 54T261 0H64L118 343H31L34 362H121ZM195 689L143 362H312L309 343H140L89 19H259Q384 19 471 71T604 218T649 438Q649 565 576 627T365 689Z" horiz-adv-x="706" unicode="Ð"/>
			<glyph d="M176 708H204L596 28H598L705 708H727L615 0H587L196 681H194L86 0H64ZM419 863Q434 863 447 856T478 836Q507 814 522 814Q539 814 555 824T592 861L606 854Q566 795 522 795Q508 795 495 801T466 821Q451 832 440 838T419 844Q401 844 385 833T350 797L336 804Q377 863 419 863Z" horiz-adv-x="757" unicode="Ñ"/>
			<glyph d="M469 722Q608 722 682 644T757 434Q757 310 707 207T567 45T357 -14Q218 -14 143 64T69 275Q69 398 119 500T260 662T469 722ZM468 703Q356 703 270 645T138 490T92 275Q92 149 160 77T358 5Q470 5 555 62T687 218T734 434Q734 560 666 631T468 703ZM425 903L579 806L569 794L412 885Z" horiz-adv-x="792" unicode="Ò"/>
			<glyph d="M469 722Q608 722 682 644T757 434Q757 310 707 207T567 45T357 -14Q218 -14 143 64T69 275Q69 398 119 500T260 662T469 722ZM468 703Q356 703 270 645T138 490T92 275Q92 149 160 77T358 5Q470 5 555 62T687 218T734 434Q734 560 666 631T468 703ZM572 903L581 884L412 794L406 808Z" horiz-adv-x="792" unicode="Ó"/>
			<glyph d="M469 722Q608 722 682 644T757 434Q757 310 707 207T567 45T357 -14Q218 -14 143 64T69 275Q69 398 119 500T260 662T469 722ZM468 703Q356 703 270 645T138 490T92 275Q92 149 160 77T358 5Q470 5 555 62T687 218T734 434Q734 560 666 631T468 703ZM496 900H518L625 805L614 793L506 882L369 793L359 805Z" horiz-adv-x="792" unicode="Ô"/>
			<glyph d="M469 722Q608 722 682 644T757 434Q757 310 707 207T567 45T357 -14Q218 -14 143 64T69 275Q69 398 119 500T260 662T469 722ZM468 703Q356 703 270 645T138 490T92 275Q92 149 160 77T358 5Q470 5 555 62T687 218T734 434Q734 560 666 631T468 703ZM437 863Q452 863 465 856T496 836Q525 814 540 814Q557 814 573 824T610 861L624 854Q584 795 540 795Q526 795 513 801T484 821Q469 832 458 838T437 844Q419 844 403 833T368 797L354 804Q395 863 437 863Z" horiz-adv-x="792" unicode="Õ"/>
			<glyph d="M469 722Q608 722 682 644T757 434Q757 310 707 207T567 45T357 -14Q218 -14 143 64T69 275Q69 398 119 500T260 662T469 722ZM468 703Q356 703 270 645T138 490T92 275Q92 149 160 77T358 5Q470 5 555 62T687 218T734 434Q734 560 666 631T468 703ZM419 884Q439 884 439 865Q439 837 412 837Q392 837 392 856Q392 884 419 884ZM576 884Q596 884 596 865Q596 837 569 837Q549 837 549 856Q549 884 576 884Z" horiz-adv-x="792" unicode="Ö"/>
			<glyph d="M170 432L305 297L440 432L453 419L318 284L453 149L440 136L305 270L171 136L157 149L292 284L157 418Z" unicode="×"/>
			<glyph d="M577 781L598 777L569 709Q661 684 709 612T757 434Q757 310 707 207T567 45T357 -14Q316 -14 276 -6L247 -77L225 -73L257 -1Q165 24 117 96T69 275Q69 398 119 500T260 662T469 722Q511 722 549 714ZM468 703Q356 703 270 645T138 490T92 275Q92 174 136 107T264 17L543 696Q511 703 468 703ZM560 692L283 12Q315 5 358 5Q470 5 555 62T687 218T734 434Q734 535 690 602T560 692Z" horiz-adv-x="792" unicode="Ø"/>
			<glyph d="M167 708H189L117 253Q111 217 111 186Q111 98 161 52T319 6Q562 6 602 254L674 708H696L623 252Q582 -14 318 -14Q202 -14 145 37T89 186Q89 223 94 252ZM386 903L540 806L530 794L373 885Z" horiz-adv-x="716" unicode="Ù"/>
			<glyph d="M167 708H189L117 253Q111 217 111 186Q111 98 161 52T319 6Q562 6 602 254L674 708H696L623 252Q582 -14 318 -14Q202 -14 145 37T89 186Q89 223 94 252ZM533 903L542 884L373 794L367 808Z" horiz-adv-x="716" unicode="Ú"/>
			<glyph d="M167 708H189L117 253Q111 217 111 186Q111 98 161 52T319 6Q562 6 602 254L674 708H696L623 252Q582 -14 318 -14Q202 -14 145 37T89 186Q89 223 94 252ZM457 900H479L586 805L575 793L467 882L330 793L320 805Z" horiz-adv-x="716" unicode="Û"/>
			<glyph d="M167 708H189L117 253Q111 217 111 186Q111 98 161 52T319 6Q562 6 602 254L674 708H696L623 252Q582 -14 318 -14Q202 -14 145 37T89 186Q89 223 94 252ZM380 884Q400 884 400 865Q400 837 373 837Q353 837 353 856Q353 884 380 884ZM537 884Q557 884 557 865Q557 837 530 837Q510 837 510 856Q510 884 537 884Z" horiz-adv-x="716" unicode="Ü"/>
			<glyph d="M73 708H97L260 330H262L545 708H571L270 308L221 0H199L248 310ZM424 903L433 884L264 794L258 808Z" horiz-adv-x="498" unicode="Ý"/>
			<glyph d="M176 708H198L179 588H360Q445 588 503 547T561 417Q561 342 526 283T432 191T299 158H111L86 0H64ZM176 569L114 177H303Q369 177 423 208T508 294T539 417Q539 497 488 533T360 569Z" horiz-adv-x="578" unicode="Þ"/>
			<glyph d="M355 722Q444 722 514 652L380 410Q448 397 490 355T533 241Q533 170 501 111T414 19T292 -14Q231 -14 182 8L190 25Q235 5 291 5Q353 5 403 36T482 122T511 241Q511 309 471 345T358 396L360 412L491 650Q457 680 424 692T354 704Q281 704 242 667T193 569L102 -4Q89 -91 70 -139T22 -212T-55 -257L-62 -239Q-19 -221 7 -197T50 -129T80 -4L156 473H61L63 487L159 492L171 568Q183 643 230 682T355 722Z" horiz-adv-x="576" unicode="ß"/>
			<glyph d="M353 506Q400 506 438 494T517 455L463 105Q454 44 451 0H431Q433 48 445 120H443Q409 52 353 19T235 -14Q150 -14 103 40T56 187Q56 280 92 352T195 465T353 506ZM351 487Q268 487 206 448T112 342T79 191Q79 107 119 56T235 5Q324 5 385 68T461 232L493 446Q436 487 351 487ZM299 722L454 606L442 593L283 705Z" horiz-adv-x="577" unicode="à"/>
			<glyph d="M353 506Q400 506 438 494T517 455L463 105Q454 44 451 0H431Q433 48 445 120H443Q409 52 353 19T235 -14Q150 -14 103 40T56 187Q56 280 92 352T195 465T353 506ZM351 487Q268 487 206 448T112 342T79 191Q79 107 119 56T235 5Q324 5 385 68T461 232L493 446Q436 487 351 487ZM427 722L439 704L280 593L270 608Z" horiz-adv-x="577" unicode="á"/>
			<glyph d="M353 506Q400 506 438 494T517 455L463 105Q454 44 451 0H431Q433 48 445 120H443Q409 52 353 19T235 -14Q150 -14 103 40T56 187Q56 280 92 352T195 465T353 506ZM351 487Q268 487 206 448T112 342T79 191Q79 107 119 56T235 5Q324 5 385 68T461 232L493 446Q436 487 351 487ZM363 720H385L487 604L475 593L373 702L233 593L223 605Z" horiz-adv-x="577" unicode="â"/>
			<glyph d="M353 506Q400 506 438 494T517 455L463 105Q454 44 451 0H431Q433 48 445 120H443Q409 52 353 19T235 -14Q150 -14 103 40T56 187Q56 280 92 352T195 465T353 506ZM351 487Q268 487 206 448T112 342T79 191Q79 107 119 56T235 5Q324 5 385 68T461 232L493 446Q436 487 351 487ZM299 663Q314 663 327 656T358 636Q387 614 402 614Q419 614 435 624T472 661L486 654Q446 595 402 595Q388 595 375 601T346 621Q331 632 320 638T299 644Q281 644 265 633T230 597L216 604Q257 663 299 663Z" horiz-adv-x="577" unicode="ã"/>
			<glyph d="M353 506Q400 506 438 494T517 455L463 105Q454 44 451 0H431Q433 48 445 120H443Q409 52 353 19T235 -14Q150 -14 103 40T56 187Q56 280 92 352T195 465T353 506ZM351 487Q268 487 206 448T112 342T79 191Q79 107 119 56T235 5Q324 5 385 68T461 232L493 446Q436 487 351 487ZM281 684Q301 684 301 665Q301 637 274 637Q254 637 254 656Q254 684 281 684ZM438 684Q458 684 458 665Q458 637 431 637Q411 637 411 656Q411 684 438 684Z" horiz-adv-x="577" unicode="ä"/>
			<glyph d="M353 506Q400 506 438 494T517 455L463 105Q454 44 451 0H431Q433 48 445 120H443Q409 52 353 19T235 -14Q150 -14 103 40T56 187Q56 280 92 352T195 465T353 506ZM351 487Q268 487 206 448T112 342T79 191Q79 107 119 56T235 5Q324 5 385 68T461 232L493 446Q436 487 351 487ZM371 760Q405 760 427 739T449 687Q449 643 419 612T343 582Q307 582 286 603T265 657Q265 700 296 730T371 760ZM369 742Q332 742 308 718T285 658Q285 632 301 616T346 600Q382 600 405 624T429 686Q429 711 413 726T369 742Z" horiz-adv-x="577" unicode="å"/>
			<glyph d="M295 506Q365 506 397 467T425 359Q457 430 513 468T649 506Q715 506 751 474T788 396Q788 301 686 266T408 227Q406 199 406 183Q406 6 550 6Q645 6 722 56L732 40Q648 -14 548 -14Q475 -14 435 27T390 139Q361 62 305 24T184 -14Q114 -14 76 17T39 109Q39 183 83 223T205 277T397 292L403 328Q406 346 406 373Q406 487 294 487Q249 487 212 477T130 447L124 463Q214 506 295 506ZM646 487Q546 487 485 419T410 245Q576 249 670 280T765 396Q765 435 734 461T646 487ZM394 274Q290 274 219 262T105 215T62 110Q62 57 94 30T186 4Q241 4 282 31T347 96T377 168Z" horiz-adv-x="820" unicode="æ"/>
			<glyph d="M328 506Q371 506 410 492T478 455L465 441Q408 487 325 487Q250 487 193 446T107 336T78 188Q78 105 121 55T249 5Q324 5 402 52L413 36Q332 -14 246 -14H241L206 -85Q230 -79 249 -79Q280 -79 297 -94T314 -136Q314 -178 284 -202T206 -226Q158 -226 121 -204L131 -189Q149 -199 166 -203T206 -208Q246 -208 269 -189T292 -137Q292 -97 245 -97Q224 -97 196 -104H175L221 -13Q141 -6 98 47T56 186Q56 274 89 347T183 463T328 506Z" horiz-adv-x="488" unicode="ç"/>
			<glyph d="M342 506Q414 506 448 475T483 396Q483 328 431 291T297 241T79 219Q77 195 77 183Q77 104 117 55T240 6Q293 6 335 18T417 56L427 40Q343 -14 238 -14Q148 -14 101 39T55 183Q55 273 89 346T189 463T342 506ZM341 487Q268 487 212 454T123 364T81 237Q212 246 289 258T413 303T461 396Q461 438 432 462T341 487ZM287 722L442 606L430 593L271 705Z" horiz-adv-x="515" unicode="è"/>
			<glyph d="M342 506Q414 506 448 475T483 396Q483 328 431 291T297 241T79 219Q77 195 77 183Q77 104 117 55T240 6Q293 6 335 18T417 56L427 40Q343 -14 238 -14Q148 -14 101 39T55 183Q55 273 89 346T189 463T342 506ZM341 487Q268 487 212 454T123 364T81 237Q212 246 289 258T413 303T461 396Q461 438 432 462T341 487ZM415 722L427 704L268 593L258 608Z" horiz-adv-x="515" unicode="é"/>
			<glyph d="M342 506Q414 506 448 475T483 396Q483 328 431 291T297 241T79 219Q77 195 77 183Q77 104 117 55T240 6Q293 6 335 18T417 56L427 40Q343 -14 238 -14Q148 -14 101 39T55 183Q55 273 89 346T189 463T342 506ZM341 487Q268 487 212 454T123 364T81 237Q212 246 289 258T413 303T461 396Q461 438 432 462T341 487ZM351 720H373L475 604L463 593L361 702L221 593L211 605Z" horiz-adv-x="515" unicode="ê"/>
			<glyph d="M342 506Q414 506 448 475T483 396Q483 328 431 291T297 241T79 219Q77 195 77 183Q77 104 117 55T240 6Q293 6 335 18T417 56L427 40Q343 -14 238 -14Q148 -14 101 39T55 183Q55 273 89 346T189 463T342 506ZM341 487Q268 487 212 454T123 364T81 237Q212 246 289 258T413 303T461 396Q461 438 432 462T341 487ZM269 684Q289 684 289 665Q289 637 262 637Q242 637 242 656Q242 684 269 684ZM426 684Q446 684 446 665Q446 637 419 637Q399 637 399 656Q399 684 426 684Z" horiz-adv-x="515" unicode="ë"/>
			<glyph d="M137 492H159L81 0H59ZM118 722L273 606L261 593L102 705Z" horiz-adv-x="218" unicode="ì"/>
			<glyph d="M137 492H159L81 0H59ZM246 722L258 704L99 593L89 608Z" horiz-adv-x="218" unicode="í"/>
			<glyph d="M137 492H159L81 0H59ZM182 720H204L306 604L294 593L192 702L52 593L42 605Z" horiz-adv-x="218" unicode="î"/>
			<glyph d="M137 492H159L81 0H59ZM100 684Q120 684 120 665Q120 637 93 637Q73 637 73 656Q73 684 100 684ZM257 684Q277 684 277 665Q277 637 250 637Q230 637 230 656Q230 684 257 684Z" horiz-adv-x="218" unicode="ï"/>
			<glyph d="M307 722Q372 697 409 674L506 722L512 707L425 664Q487 622 519 561T551 411Q551 372 543 318Q519 168 448 77T257 -14Q163 -14 108 37T54 178Q54 263 88 334T185 448T330 491Q400 491 449 455T529 357Q531 393 531 410Q531 571 405 654L299 602L293 617L389 664Q346 688 296 705ZM327 472Q251 472 194 432T107 325T77 180Q77 97 123 51T255 5Q367 5 432 90T524 323Q494 395 446 433T327 472Z" horiz-adv-x="598" unicode="ð"/>
			<glyph d="M351 506Q427 506 463 465T499 356Q499 330 495 307L446 0H424L472 305Q476 328 476 353Q476 415 445 451T348 487Q256 487 195 419T116 226L80 0H58L119 387Q127 431 131 492H150Q148 427 136 362H138Q166 428 221 467T351 506ZM299 663Q314 663 327 656T358 636Q387 614 402 614Q419 614 435 624T472 661L486 654Q446 595 402 595Q388 595 375 601T346 621Q331 632 320 638T299 644Q281 644 265 633T230 597L216 604Q257 663 299 663Z" horiz-adv-x="573" unicode="ñ"/>
			<glyph d="M326 506Q421 506 471 452T521 306Q521 218 488 145T394 29T251 -14Q156 -14 106 40T56 188Q56 276 89 348T183 463T326 506ZM326 487Q250 487 194 446T108 338T78 189Q78 105 121 55T250 5Q326 5 382 46T469 155T499 305Q499 389 455 438T326 487ZM298 722L453 606L441 593L282 705Z" horiz-adv-x="577" unicode="ò"/>
			<glyph d="M326 506Q421 506 471 452T521 306Q521 218 488 145T394 29T251 -14Q156 -14 106 40T56 188Q56 276 89 348T183 463T326 506ZM326 487Q250 487 194 446T108 338T78 189Q78 105 121 55T250 5Q326 5 382 46T469 155T499 305Q499 389 455 438T326 487ZM426 722L438 704L279 593L269 608Z" horiz-adv-x="577" unicode="ó"/>
			<glyph d="M326 506Q421 506 471 452T521 306Q521 218 488 145T394 29T251 -14Q156 -14 106 40T56 188Q56 276 89 348T183 463T326 506ZM326 487Q250 487 194 446T108 338T78 189Q78 105 121 55T250 5Q326 5 382 46T469 155T499 305Q499 389 455 438T326 487ZM362 720H384L486 604L474 593L372 702L232 593L222 605Z" horiz-adv-x="577" unicode="ô"/>
			<glyph d="M326 506Q421 506 471 452T521 306Q521 218 488 145T394 29T251 -14Q156 -14 106 40T56 188Q56 276 89 348T183 463T326 506ZM326 487Q250 487 194 446T108 338T78 189Q78 105 121 55T250 5Q326 5 382 46T469 155T499 305Q499 389 455 438T326 487ZM298 663Q313 663 326 656T357 636Q386 614 401 614Q418 614 434 624T471 661L485 654Q445 595 401 595Q387 595 374 601T345 621Q330 632 319 638T298 644Q280 644 264 633T229 597L215 604Q256 663 298 663Z" horiz-adv-x="577" unicode="õ"/>
			<glyph d="M326 506Q421 506 471 452T521 306Q521 218 488 145T394 29T251 -14Q156 -14 106 40T56 188Q56 276 89 348T183 463T326 506ZM326 487Q250 487 194 446T108 338T78 189Q78 105 121 55T250 5Q326 5 382 46T469 155T499 305Q499 389 455 438T326 487ZM280 684Q300 684 300 665Q300 637 273 637Q253 637 253 656Q253 684 280 684ZM437 684Q457 684 457 665Q457 637 430 637Q410 637 410 656Q410 684 437 684Z" horiz-adv-x="577" unicode="ö"/>
			<glyph d="M339 507Q359 507 359 490Q359 460 331 460Q311 460 311 477Q311 507 339 507ZM105 303H505L502 284H102ZM275 107Q295 107 295 90Q295 60 267 60Q247 60 247 77Q247 107 275 107Z" horiz-adv-x="596" unicode="÷"/>
			<glyph d="M411 569L430 565L400 495Q459 476 490 427T521 306Q521 218 488 145T394 29T251 -14Q219 -14 193 -8L165 -77L146 -73L175 -3Q117 16 86 66T56 188Q56 276 89 348T183 463T326 506Q357 506 382 500ZM326 488Q250 488 194 447T108 338T78 189Q78 124 104 78T183 15L375 483Q350 488 326 488ZM393 478L199 10Q226 5 250 5Q326 5 382 46T469 155T499 305Q499 371 472 416T393 478Z" horiz-adv-x="577" unicode="ø"/>
			<glyph d="M127 492H149L101 187Q97 164 97 139Q97 77 128 41T226 5Q318 5 377 69T455 254L493 492H515L454 105Q446 61 442 0H423Q425 60 437 123H435Q407 60 353 23T226 -14Q149 -14 111 27T74 138Q74 164 78 185ZM294 722L449 606L437 593L278 705Z" horiz-adv-x="573" unicode="ù"/>
			<glyph d="M127 492H149L101 187Q97 164 97 139Q97 77 128 41T226 5Q318 5 377 69T455 254L493 492H515L454 105Q446 61 442 0H423Q425 60 437 123H435Q407 60 353 23T226 -14Q149 -14 111 27T74 138Q74 164 78 185ZM422 722L434 704L275 593L265 608Z" horiz-adv-x="573" unicode="ú"/>
			<glyph d="M127 492H149L101 187Q97 164 97 139Q97 77 128 41T226 5Q318 5 377 69T455 254L493 492H515L454 105Q446 61 442 0H423Q425 60 437 123H435Q407 60 353 23T226 -14Q149 -14 111 27T74 138Q74 164 78 185ZM358 720H380L482 604L470 593L368 702L228 593L218 605Z" horiz-adv-x="573" unicode="û"/>
			<glyph d="M127 492H149L101 187Q97 164 97 139Q97 77 128 41T226 5Q318 5 377 69T455 254L493 492H515L454 105Q446 61 442 0H423Q425 60 437 123H435Q407 60 353 23T226 -14Q149 -14 111 27T74 138Q74 164 78 185ZM276 684Q296 684 296 665Q296 637 269 637Q249 637 249 656Q249 684 276 684ZM433 684Q453 684 453 665Q453 637 426 637Q406 637 406 656Q406 684 433 684Z" horiz-adv-x="573" unicode="ü"/>
			<glyph d="M49 492H71L176 23H177L418 492H442L173 -26Q128 -112 102 -152T44 -215T-42 -258L-48 -240Q2 -223 34 -197T92 -131T155 -16L162 -2ZM344 722L356 704L197 593L187 608Z" horiz-adv-x="413" unicode="ý"/>
			<glyph d="M172 708H195L141 367H143Q173 435 230 470T356 506Q444 506 490 451T537 306Q537 221 504 147T410 30T268 -14Q208 -14 166 7T91 64L42 -244H20ZM355 487Q262 487 199 418T117 226L95 87Q134 44 173 24T271 5Q343 5 399 46T485 156T515 302Q515 385 474 436T355 487Z" horiz-adv-x="593" unicode="þ"/>
			<glyph d="M49 492H71L176 23H177L418 492H442L173 -26Q128 -112 102 -152T44 -215T-42 -258L-48 -240Q2 -223 34 -197T92 -131T155 -16L162 -2ZM198 684Q218 684 218 665Q218 637 191 637Q171 637 171 656Q171 684 198 684ZM355 684Q375 684 375 665Q375 637 348 637Q328 637 328 656Q328 684 355 684Z" horiz-adv-x="413" unicode="ÿ"/>
			<glyph d="M373 708H402L574 0H551L502 203H112L1 0H-24ZM386 694L123 222H498ZM292 840H524L521 821H289Z" horiz-adv-x="628" unicode="Ā"/>
			<glyph d="M353 506Q400 506 438 494T517 455L463 105Q454 44 451 0H431Q433 48 445 120H443Q409 52 353 19T235 -14Q150 -14 103 40T56 187Q56 280 92 352T195 465T353 506ZM351 487Q268 487 206 448T112 342T79 191Q79 107 119 56T235 5Q324 5 385 68T461 232L493 446Q436 487 351 487ZM236 640H468L465 621H233Z" horiz-adv-x="577" unicode="ā"/>
			<glyph d="M373 708H402L574 0H551L502 203H112L1 0H-24ZM386 694L123 222H498ZM302 883Q313 802 394 802Q474 802 511 883L529 880Q511 834 475 808T392 782Q344 782 317 807T285 880Z" horiz-adv-x="628" unicode="Ă"/>
			<glyph d="M353 506Q400 506 438 494T517 455L463 105Q454 44 451 0H431Q433 48 445 120H443Q409 52 353 19T235 -14Q150 -14 103 40T56 187Q56 280 92 352T195 465T353 506ZM351 487Q268 487 206 448T112 342T79 191Q79 107 119 56T235 5Q324 5 385 68T461 232L493 446Q436 487 351 487ZM258 698Q262 648 284 625T347 602Q388 602 417 624T466 698L484 695Q445 582 347 582Q298 582 270 610T240 695Z" horiz-adv-x="577" unicode="ă"/>
			<glyph d="M373 708H402L574 0Q515 -35 481 -71T447 -153Q447 -176 462 -190T504 -204Q540 -204 575 -185L583 -200Q544 -223 503 -223Q468 -223 446 -204T425 -153Q425 -107 463 -66T551 1L502 203H112L1 0H-24ZM386 694L123 222H498Z" horiz-adv-x="628" unicode="Ą"/>
			<glyph d="M353 506Q400 506 438 494T517 455L463 105Q454 44 451 0Q392 -35 358 -71T324 -153Q324 -176 339 -190T381 -204Q417 -204 452 -185L460 -200Q421 -223 380 -223Q345 -223 323 -204T302 -153Q302 -106 341 -64T431 3Q433 49 445 120H443Q409 52 353 19T235 -14Q150 -14 103 40T56 187Q56 280 92 352T195 465T353 506ZM351 487Q268 487 206 448T112 342T79 191Q79 107 119 56T235 5Q324 5 385 68T461 232L493 446Q436 487 351 487Z" horiz-adv-x="577" unicode="ą"/>
			<glyph d="M468 722Q596 722 676 642L661 629Q585 703 465 703Q354 703 269 645T138 490T92 277Q92 153 159 79T355 6Q418 6 480 30T592 98L605 83Q552 36 487 11T352 -14Q263 -14 199 22T102 122T69 273Q69 398 118 500T259 662T468 722ZM546 903L555 884L386 794L380 808Z" horiz-adv-x="656" unicode="Ć"/>
			<glyph d="M328 506Q371 506 410 492T478 455L465 441Q408 487 325 487Q250 487 193 446T107 336T78 188Q78 105 121 55T249 5Q324 5 402 52L413 36Q332 -14 246 -14Q154 -14 105 40T56 186Q56 274 89 347T183 463T328 506ZM414 722L426 704L267 593L257 608Z" horiz-adv-x="488" unicode="ć"/>
			<glyph d="M468 722Q596 722 676 642L661 629Q585 703 465 703Q354 703 269 645T138 490T92 277Q92 153 159 79T355 6Q418 6 480 30T592 98L605 83Q552 36 487 11T352 -14Q263 -14 199 22T102 122T69 273Q69 398 118 500T259 662T468 722ZM470 900H492L599 805L588 793L480 882L343 793L333 805Z" horiz-adv-x="656" unicode="Ĉ"/>
			<glyph d="M328 506Q371 506 410 492T478 455L465 441Q408 487 325 487Q250 487 193 446T107 336T78 188Q78 105 121 55T249 5Q324 5 402 52L413 36Q332 -14 246 -14Q154 -14 105 40T56 186Q56 274 89 347T183 463T328 506ZM350 720H372L474 604L462 593L360 702L220 593L210 605Z" horiz-adv-x="488" unicode="ĉ"/>
			<glyph d="M468 722Q596 722 676 642L661 629Q585 703 465 703Q354 703 269 645T138 490T92 277Q92 153 159 79T355 6Q418 6 480 30T592 98L605 83Q552 36 487 11T352 -14Q263 -14 199 22T102 122T69 273Q69 398 118 500T259 662T468 722ZM473 888Q494 888 494 871Q494 841 466 841Q445 841 445 858Q445 888 473 888Z" horiz-adv-x="656" unicode="Ċ"/>
			<glyph d="M328 506Q371 506 410 492T478 455L465 441Q408 487 325 487Q250 487 193 446T107 336T78 188Q78 105 121 55T249 5Q324 5 402 52L413 36Q332 -14 246 -14Q154 -14 105 40T56 186Q56 274 89 347T183 463T328 506ZM350 708Q371 708 371 691Q371 661 343 661Q322 661 322 678Q322 708 350 708Z" horiz-adv-x="488" unicode="ċ"/>
			<glyph d="M468 722Q596 722 676 642L661 629Q585 703 465 703Q354 703 269 645T138 490T92 277Q92 153 159 79T355 6Q418 6 480 30T592 98L605 83Q552 36 487 11T352 -14Q263 -14 199 22T102 122T69 273Q69 398 118 500T259 662T468 722ZM588 898L598 885L461 790H439L332 885L344 897L451 808Z" horiz-adv-x="656" unicode="Č"/>
			<glyph d="M328 506Q371 506 410 492T478 455L465 441Q408 487 325 487Q250 487 193 446T107 336T78 188Q78 105 121 55T249 5Q324 5 402 52L413 36Q332 -14 246 -14Q154 -14 105 40T56 186Q56 274 89 347T183 463T328 506ZM222 717L324 608L464 717L474 705L334 590H312L210 706Z" horiz-adv-x="488" unicode="č"/>
			<glyph d="M176 708H373Q516 708 593 640T671 439Q671 306 623 207T483 54T261 0H64ZM195 689L89 19H259Q384 19 471 71T604 218T649 438Q649 565 576 627T365 689ZM518 898L528 885L391 790H369L262 885L274 897L381 808Z" horiz-adv-x="706" unicode="Ď"/>
			<glyph d="M545 708H567L472 105Q464 61 460 0H440Q442 48 454 120H452Q418 52 361 19T242 -14Q152 -14 103 40T55 187Q55 271 88 344T182 462T321 506Q380 506 422 485T501 428ZM319 487Q250 487 195 445T109 336T78 191Q78 107 120 56T242 5Q332 5 393 68T470 232L497 405Q461 445 418 466T319 487ZM645 722L665 715L613 565L598 568Z" horiz-adv-x="621" unicode="ď"/>
			<glyph d="M176 708H373Q516 708 593 640T671 439Q671 306 623 207T483 54T261 0H64L118 343H31L34 362H121ZM195 689L143 362H312L309 343H140L89 19H259Q384 19 471 71T604 218T649 438Q649 565 576 627T365 689Z" horiz-adv-x="706" unicode="Đ"/>
			<glyph d="M545 708H567L554 625H639L636 606H551L472 105Q464 61 460 0H440Q442 48 454 120H452Q418 52 361 19T242 -14Q152 -14 103 40T55 187Q55 271 88 344T182 462T321 506Q380 506 422 485T501 428L529 606H369L372 625H532ZM319 487Q250 487 195 445T109 336T78 191Q78 107 120 56T242 5Q332 5 393 68T470 232L497 405Q461 445 418 466T319 487Z" horiz-adv-x="595" unicode="đ"/>
			<glyph d="M176 708H570L567 689H194L145 377H476L473 358H142L88 19H477L474 0H64ZM266 840H498L495 821H263Z" horiz-adv-x="544" unicode="Ē"/>
			<glyph d="M342 506Q414 506 448 475T483 396Q483 328 431 291T297 241T79 219Q77 195 77 183Q77 104 117 55T240 6Q293 6 335 18T417 56L427 40Q343 -14 238 -14Q148 -14 101 39T55 183Q55 273 89 346T189 463T342 506ZM341 487Q268 487 212 454T123 364T81 237Q212 246 289 258T413 303T461 396Q461 438 432 462T341 487ZM224 640H456L453 621H221Z" horiz-adv-x="515" unicode="ē"/>
			<glyph d="M176 708H570L567 689H194L145 377H476L473 358H142L88 19H477L474 0H64ZM276 883Q287 802 368 802Q448 802 485 883L503 880Q485 834 449 808T366 782Q318 782 291 807T259 880Z" horiz-adv-x="544" unicode="Ĕ"/>
			<glyph d="M342 506Q414 506 448 475T483 396Q483 328 431 291T297 241T79 219Q77 195 77 183Q77 104 117 55T240 6Q293 6 335 18T417 56L427 40Q343 -14 238 -14Q148 -14 101 39T55 183Q55 273 89 346T189 463T342 506ZM341 487Q268 487 212 454T123 364T81 237Q212 246 289 258T413 303T461 396Q461 438 432 462T341 487ZM246 698Q250 648 272 625T335 602Q376 602 405 624T454 698L472 695Q433 582 335 582Q286 582 258 610T228 695Z" horiz-adv-x="515" unicode="ĕ"/>
			<glyph d="M176 708H570L567 689H194L145 377H476L473 358H142L88 19H477L474 0H64ZM390 888Q411 888 411 871Q411 841 383 841Q362 841 362 858Q362 888 390 888Z" horiz-adv-x="544" unicode="Ė"/>
			<glyph d="M342 506Q414 506 448 475T483 396Q483 328 431 291T297 241T79 219Q77 195 77 183Q77 104 117 55T240 6Q293 6 335 18T417 56L427 40Q343 -14 238 -14Q148 -14 101 39T55 183Q55 273 89 346T189 463T342 506ZM341 487Q268 487 212 454T123 364T81 237Q212 246 289 258T413 303T461 396Q461 438 432 462T341 487ZM351 708Q372 708 372 691Q372 661 344 661Q323 661 323 678Q323 708 351 708Z" horiz-adv-x="515" unicode="ė"/>
			<glyph d="M176 708H570L567 689H194L145 377H476L473 358H142L88 19H477L474 0H443Q384 -35 350 -71T316 -153Q316 -176 331 -190T373 -204Q409 -204 444 -185L452 -200Q413 -223 372 -223Q337 -223 315 -204T294 -153Q294 -107 331 -66T417 0H64Z" horiz-adv-x="544" unicode="Ę"/>
			<glyph d="M342 506Q414 506 448 475T483 396Q483 328 431 291T297 241T79 219Q77 195 77 183Q77 104 117 55T240 6Q293 6 335 18T417 56L427 40Q388 16 350 3Q281 -36 244 -71T208 -153Q208 -176 223 -190T265 -204Q301 -204 336 -185L344 -200Q305 -223 264 -223Q229 -223 207 -204T186 -153Q186 -110 218 -73T305 -8Q274 -14 238 -14Q148 -14 101 39T55 183Q55 273 89 346T189 463T342 506ZM341 487Q268 487 212 454T123 364T81 237Q212 246 289 258T413 303T461 396Q461 438 432 462T341 487Z" horiz-adv-x="515" unicode="ę"/>
			<glyph d="M176 708H570L567 689H194L145 377H476L473 358H142L88 19H477L474 0H64ZM505 898L515 885L378 790H356L249 885L261 897L368 808Z" horiz-adv-x="544" unicode="Ě"/>
			<glyph d="M342 506Q414 506 448 475T483 396Q483 328 431 291T297 241T79 219Q77 195 77 183Q77 104 117 55T240 6Q293 6 335 18T417 56L427 40Q343 -14 238 -14Q148 -14 101 39T55 183Q55 273 89 346T189 463T342 506ZM341 487Q268 487 212 454T123 364T81 237Q212 246 289 258T413 303T461 396Q461 438 432 462T341 487ZM223 717L325 608L465 717L475 705L335 590H313L211 706Z" horiz-adv-x="515" unicode="ě"/>
			<glyph d="M473 722Q599 722 684 640L670 627Q591 703 472 703Q360 703 273 645T138 489T91 275Q91 150 159 77T359 5Q426 5 482 20T594 64L633 311H444L447 330H658L613 51Q549 19 491 2T356 -14Q217 -14 143 63T69 271Q69 396 119 499T261 662T473 722ZM478 900H500L607 805L596 793L488 882L351 793L341 805Z" horiz-adv-x="737" unicode="Ĝ"/>
			<glyph d="M350 506Q398 506 437 494T517 455L446 -14Q429 -127 364 -192T190 -258Q144 -258 102 -244T33 -206L46 -192Q78 -217 113 -228T192 -239Q290 -239 349 -177T424 -14L445 120H443Q409 52 353 19T235 -14Q150 -14 103 40T56 187Q56 280 91 352T193 465T350 506ZM348 487Q266 487 205 448T111 342T79 191Q79 107 119 56T235 5Q324 5 385 68T461 232L493 446Q436 487 348 487ZM362 720H384L486 604L474 593L372 702L232 593L222 605Z" horiz-adv-x="575" unicode="ĝ"/>
			<glyph d="M473 722Q599 722 684 640L670 627Q591 703 472 703Q360 703 273 645T138 489T91 275Q91 150 159 77T359 5Q426 5 482 20T594 64L633 311H444L447 330H658L613 51Q549 19 491 2T356 -14Q217 -14 143 63T69 271Q69 396 119 499T261 662T473 722ZM367 883Q378 802 459 802Q539 802 576 883L594 880Q576 834 540 808T457 782Q409 782 382 807T350 880Z" horiz-adv-x="737" unicode="Ğ"/>
			<glyph d="M350 506Q398 506 437 494T517 455L446 -14Q429 -127 364 -192T190 -258Q144 -258 102 -244T33 -206L46 -192Q78 -217 113 -228T192 -239Q290 -239 349 -177T424 -14L445 120H443Q409 52 353 19T235 -14Q150 -14 103 40T56 187Q56 280 91 352T193 465T350 506ZM348 487Q266 487 205 448T111 342T79 191Q79 107 119 56T235 5Q324 5 385 68T461 232L493 446Q436 487 348 487ZM257 698Q261 648 283 625T346 602Q387 602 416 624T465 698L483 695Q444 582 346 582Q297 582 269 610T239 695Z" horiz-adv-x="575" unicode="ğ"/>
			<glyph d="M473 722Q599 722 684 640L670 627Q591 703 472 703Q360 703 273 645T138 489T91 275Q91 150 159 77T359 5Q426 5 482 20T594 64L633 311H444L447 330H658L613 51Q549 19 491 2T356 -14Q217 -14 143 63T69 271Q69 396 119 499T261 662T473 722ZM481 888Q502 888 502 871Q502 841 474 841Q453 841 453 858Q453 888 481 888Z" horiz-adv-x="737" unicode="Ġ"/>
			<glyph d="M350 506Q398 506 437 494T517 455L446 -14Q429 -127 364 -192T190 -258Q144 -258 102 -244T33 -206L46 -192Q78 -217 113 -228T192 -239Q290 -239 349 -177T424 -14L445 120H443Q409 52 353 19T235 -14Q150 -14 103 40T56 187Q56 280 91 352T193 465T350 506ZM348 487Q266 487 205 448T111 342T79 191Q79 107 119 56T235 5Q324 5 385 68T461 232L493 446Q436 487 348 487ZM362 708Q383 708 383 691Q383 661 355 661Q334 661 334 678Q334 708 362 708Z" horiz-adv-x="575" unicode="ġ"/>
			<glyph d="M473 722Q599 722 684 640L670 627Q591 703 472 703Q360 703 273 645T138 489T91 275Q91 150 159 77T359 5Q426 5 482 20T594 64L633 311H444L447 330H658L613 51Q549 19 491 2T356 -14Q217 -14 143 63T69 271Q69 396 119 499T261 662T473 722ZM336 -71Q354 -71 354 -90Q354 -94 352 -104Q345 -139 333 -164T295 -231L284 -225Q308 -184 318 -160T333 -110Q312 -110 312 -93Q312 -83 318 -77T336 -71Z" horiz-adv-x="737" unicode="Ģ"/>
			<glyph d="M350 506Q398 506 437 494T517 455L446 -14Q429 -127 364 -192T190 -258Q144 -258 102 -244T33 -206L46 -192Q78 -217 113 -228T192 -239Q290 -239 349 -177T424 -14L445 120H443Q409 52 353 19T235 -14Q150 -14 103 40T56 187Q56 280 91 352T193 465T350 506ZM348 487Q266 487 205 448T111 342T79 191Q79 107 119 56T235 5Q324 5 385 68T461 232L493 446Q436 487 348 487ZM382 791L393 785Q369 744 358 720T344 670Q365 670 365 653Q365 643 358 637T341 631Q323 631 323 650Q323 653 325 664Q332 699 344 724T382 791Z" horiz-adv-x="575" unicode="ģ"/>
			<glyph d="M176 708H198L146 376H606L658 708H680L568 0H546L602 356H142L86 0H64ZM454 900H476L583 805L572 793L464 882L327 793L317 805Z" horiz-adv-x="710" unicode="Ĥ"/>
			<glyph d="M171 708H193L138 364H140Q168 429 222 467T352 506Q428 506 464 465T500 356Q500 330 496 307L447 0H425L473 305Q477 328 477 353Q477 415 446 451T349 487Q257 487 196 419T117 226L81 0H59ZM383 900H405L512 805L501 793L393 882L256 793L246 805Z" horiz-adv-x="574" unicode="ĥ"/>
			<glyph d="M176 708H198L178 582H638L658 708H680L660 582H756L753 563H657L568 0H546L602 356H142L86 0H64L153 563H57L60 582H156ZM175 563L146 376H606L635 563Z" horiz-adv-x="710" unicode="Ħ"/>
			<glyph d="M171 708H193L180 625H342L339 606H177L138 364H140Q168 429 222 467T352 506Q428 506 464 465T500 356Q500 330 496 307L447 0H425L473 305Q477 328 477 353Q477 415 446 451T349 487Q257 487 196 419T117 226L81 0H59L155 606H72L75 625H158Z" horiz-adv-x="574" unicode="ħ"/>
			<glyph d="M135 708H330L327 689H241L135 19H221L218 0H23L26 19H113L219 689H132ZM199 863Q214 863 227 856T258 836Q287 814 302 814Q319 814 335 824T372 861L386 854Q346 795 302 795Q288 795 275 801T246 821Q231 832 220 838T199 844Q181 844 165 833T130 797L116 804Q157 863 199 863Z" horiz-adv-x="319" unicode="Ĩ"/>
			<glyph d="M137 492H159L81 0H59ZM118 663Q133 663 146 656T177 636Q206 614 221 614Q238 614 254 624T291 661L305 654Q265 595 221 595Q207 595 194 601T165 621Q150 632 139 638T118 644Q100 644 84 633T49 597L35 604Q76 663 118 663Z" horiz-adv-x="218" unicode="ĩ"/>
			<glyph d="M135 708H330L327 689H241L135 19H221L218 0H23L26 19H113L219 689H132ZM137 840H369L366 821H134Z" horiz-adv-x="319" unicode="Ī"/>
			<glyph d="M137 492H159L81 0H59ZM55 640H287L284 621H52Z" horiz-adv-x="218" unicode="ī"/>
			<glyph d="M135 708H330L327 689H241L135 19H221L218 0H23L26 19H113L219 689H132ZM147 883Q158 802 239 802Q319 802 356 883L374 880Q356 834 320 808T237 782Q189 782 162 807T130 880Z" horiz-adv-x="319" unicode="Ĭ"/>
			<glyph d="M137 492H159L81 0H59ZM77 698Q81 648 103 625T166 602Q207 602 236 624T285 698L303 695Q264 582 166 582Q117 582 89 610T59 695Z" horiz-adv-x="218" unicode="ĭ"/>
			<glyph d="M135 708H330L327 689H241L135 19H221L218 0H131Q72 -35 38 -71T4 -153Q4 -176 19 -190T61 -204Q97 -204 132 -185L140 -200Q101 -223 60 -223Q25 -223 3 -204T-18 -153Q-18 -107 19 -66T105 0H23L26 19H113L219 689H132Z" horiz-adv-x="319" unicode="Į"/>
			<glyph d="M182 708Q203 708 203 691Q203 661 175 661Q154 661 154 678Q154 708 182 708ZM137 492H159L81 0Q22 -35 -12 -71T-46 -153Q-46 -176 -30 -190T11 -204Q47 -204 82 -185L90 -200Q51 -223 10 -223Q-25 -223 -46 -204T-68 -153Q-68 -107 -29 -65T59 2Z" horiz-adv-x="218" unicode="į"/>
			<glyph d="M135 708H330L327 689H241L135 19H221L218 0H23L26 19H113L219 689H132ZM261 888Q282 888 282 871Q282 841 254 841Q233 841 233 858Q233 888 261 888Z" horiz-adv-x="319" unicode="İ"/>
			<glyph d="M137 492H159L81 0H59Z" horiz-adv-x="218" unicode="ı"/>
			<glyph d="M135 708H330L327 689H241L135 19H221L218 0H23L26 19H113L219 689H132ZM674 708H696L614 187Q599 97 548 41T407 -14Q342 -14 293 16L303 31Q347 5 408 5Q487 5 533 55T592 188Z" horiz-adv-x="717" unicode="Ĳ"/>
			<glyph d="M182 708Q203 708 203 691Q203 661 175 661Q154 661 154 678Q154 708 182 708ZM400 708Q421 708 421 691Q421 661 393 661Q372 661 372 678Q372 708 400 708ZM137 492H159L81 0H59ZM355 492H377L298 -4Q285 -91 266 -139T218 -212T141 -257L134 -239Q179 -221 204 -197T247 -129T276 -4Z" horiz-adv-x="436" unicode="ĳ"/>
			<glyph d="M355 708H377L295 187Q280 97 229 41T88 -14Q23 -14 -26 16L-16 31Q28 5 89 5Q168 5 214 55T273 188ZM386 900H408L515 805L504 793L396 882L259 793L249 805Z" horiz-adv-x="398" unicode="Ĵ"/>
			<glyph d="M137 492H159L80 -4Q67 -91 48 -139T0 -212T-77 -257L-84 -239Q-39 -221 -13 -197T29 -129T58 -4ZM182 720H204L306 604L294 593L192 702L52 593L42 605Z" horiz-adv-x="218" unicode="ĵ"/>
			<glyph d="M176 708H198L140 339L550 708H580L222 386L486 0H461L207 373L135 308L86 0H64ZM231 -71Q249 -71 249 -90Q249 -94 247 -104Q240 -139 228 -164T190 -231L179 -225Q203 -184 213 -160T228 -110Q207 -110 207 -93Q207 -83 213 -77T231 -71Z" horiz-adv-x="543" unicode="Ķ"/>
			<glyph d="M171 708H193L120 249L420 492H451L199 288L403 0H378L182 275L116 221L81 0H59ZM210 -71Q228 -71 228 -90Q228 -94 226 -104Q219 -139 207 -164T169 -231L158 -225Q182 -184 192 -160T207 -110Q186 -110 186 -93Q186 -83 192 -77T210 -71Z" horiz-adv-x="447" unicode="ķ"/>
			<glyph d="M138 492H160L121 249L420 492H451L199 288L403 0H378L182 275L116 221L81 0H59Z" horiz-adv-x="463" unicode="ĸ"/>
			<glyph d="M176 708H198L89 20H434L431 0H64ZM289 903L298 884L129 794L123 808Z" horiz-adv-x="475" unicode="Ĺ"/>
			<glyph d="M171 708H193L81 0H59ZM284 903L293 884L124 794L118 808Z" horiz-adv-x="218" unicode="ĺ"/>
			<glyph d="M176 708H198L89 20H434L431 0H64ZM237 -71Q255 -71 255 -90Q255 -94 253 -104Q246 -139 234 -164T196 -231L185 -225Q209 -184 219 -160T234 -110Q213 -110 213 -93Q213 -83 219 -77T237 -71Z" horiz-adv-x="475" unicode="Ļ"/>
			<glyph d="M171 708H193L81 0H59ZM68 -71Q86 -71 86 -90Q86 -94 84 -104Q77 -139 65 -164T27 -231L16 -225Q40 -184 50 -160T65 -110Q44 -110 44 -93Q44 -83 50 -77T68 -71Z" horiz-adv-x="218" unicode="ļ"/>
			<glyph d="M176 708H198L89 20H434L431 0H64ZM323 722L343 715L291 565L276 568Z" horiz-adv-x="475" unicode="Ľ"/>
			<glyph d="M171 708H193L81 0H59ZM273 722L293 715L241 565L226 568Z" horiz-adv-x="249" unicode="ľ"/>
			<glyph d="M176 708H198L89 20H434L431 0H64ZM365 400Q386 400 386 383Q386 353 358 353Q337 353 337 370Q337 400 365 400Z" horiz-adv-x="475" unicode="Ŀ"/>
			<glyph d="M171 708H193L81 0H59ZM235 362Q256 362 256 345Q256 315 228 315Q207 315 207 332Q207 362 235 362Z" horiz-adv-x="218" unicode="ŀ"/>
			<glyph d="M176 708H198L138 332L388 459L395 442L135 310L89 20H434L431 0H64L111 298L40 261L34 279L115 320Z" horiz-adv-x="475" unicode="Ł"/>
			<glyph d="M174 708H196L137 337L220 379L226 363L134 317L84 0H62L110 305L28 262L22 278L113 325Z" horiz-adv-x="226" unicode="ł"/>
			<glyph d="M176 708H204L596 28H598L705 708H727L615 0H587L196 681H194L86 0H64ZM554 903L563 884L394 794L388 808Z" horiz-adv-x="757" unicode="Ń"/>
			<glyph d="M351 506Q427 506 463 465T499 356Q499 330 495 307L446 0H424L472 305Q476 328 476 353Q476 415 445 451T348 487Q256 487 195 419T116 226L80 0H58L119 387Q127 431 131 492H150Q148 427 136 362H138Q166 428 221 467T351 506ZM427 722L439 704L280 593L270 608Z" horiz-adv-x="573" unicode="ń"/>
			<glyph d="M176 708H204L596 28H598L705 708H727L615 0H587L196 681H194L86 0H64ZM338 -71Q356 -71 356 -90Q356 -94 354 -104Q347 -139 335 -164T297 -231L286 -225Q310 -184 320 -160T335 -110Q314 -110 314 -93Q314 -83 320 -77T338 -71Z" horiz-adv-x="757" unicode="Ņ"/>
			<glyph d="M351 506Q427 506 463 465T499 356Q499 330 495 307L446 0H424L472 305Q476 328 476 353Q476 415 445 451T348 487Q256 487 195 419T116 226L80 0H58L119 387Q127 431 131 492H150Q148 427 136 362H138Q166 428 221 467T351 506ZM244 -71Q262 -71 262 -90Q262 -94 260 -104Q253 -139 241 -164T203 -231L192 -225Q216 -184 226 -160T241 -110Q220 -110 220 -93Q220 -83 226 -77T244 -71Z" horiz-adv-x="573" unicode="ņ"/>
			<glyph d="M176 708H204L596 28H598L705 708H727L615 0H587L196 681H194L86 0H64ZM596 898L606 885L469 790H447L340 885L352 897L459 808Z" horiz-adv-x="757" unicode="Ň"/>
			<glyph d="M351 506Q427 506 463 465T499 356Q499 330 495 307L446 0H424L472 305Q476 328 476 353Q476 415 445 451T348 487Q256 487 195 419T116 226L80 0H58L119 387Q127 431 131 492H150Q148 427 136 362H138Q166 428 221 467T351 506ZM235 717L337 608L477 717L487 705L347 590H325L223 706Z" horiz-adv-x="573" unicode="ň"/>
			<glyph d="M351 506Q427 506 463 465T499 356Q499 330 495 307L446 0H424L472 305Q476 328 476 353Q476 415 445 451T348 487Q256 487 195 419T116 226L80 0H58L119 387Q127 431 131 492H150Q148 427 136 362H138Q166 428 221 467T351 506ZM204 758Q222 758 222 739Q222 736 220 725Q213 690 201 664T163 598L152 604Q176 645 186 668T201 719Q180 719 180 736Q180 746 186 752T204 758Z" horiz-adv-x="573" unicode="ŉ"/>
			<glyph d="M176 708H204L596 28H598L705 708H727L615 0Q601 -87 582 -136T534 -211T457 -257L450 -239Q496 -220 522 -194T565 -123T593 0H587L196 681H194L86 0H64Z" horiz-adv-x="757" unicode="Ŋ"/>
			<glyph d="M351 506Q427 506 463 465T499 356Q499 330 495 307L446 -3Q432 -90 413 -138T366 -211T289 -257L282 -239Q325 -221 351 -197T394 -128T424 -3L472 305Q476 328 476 353Q476 415 445 451T348 487Q256 487 195 419T116 226L80 0H58L119 387Q127 431 131 492H150Q148 427 136 362H138Q166 428 222 467T351 506Z" horiz-adv-x="573" unicode="ŋ"/>
			<glyph d="M469 722Q608 722 682 644T757 434Q757 310 707 207T567 45T357 -14Q218 -14 143 64T69 275Q69 398 119 500T260 662T469 722ZM468 703Q356 703 270 645T138 490T92 275Q92 149 160 77T358 5Q470 5 555 62T687 218T734 434Q734 560 666 631T468 703ZM375 840H607L604 821H372Z" horiz-adv-x="792" unicode="Ō"/>
			<glyph d="M326 506Q421 506 471 452T521 306Q521 218 488 145T394 29T251 -14Q156 -14 106 40T56 188Q56 276 89 348T183 463T326 506ZM326 487Q250 487 194 446T108 338T78 189Q78 105 121 55T250 5Q326 5 382 46T469 155T499 305Q499 389 455 438T326 487ZM235 640H467L464 621H232Z" horiz-adv-x="577" unicode="ō"/>
			<glyph d="M469 722Q608 722 682 644T757 434Q757 310 707 207T567 45T357 -14Q218 -14 143 64T69 275Q69 398 119 500T260 662T469 722ZM468 703Q356 703 270 645T138 490T92 275Q92 149 160 77T358 5Q470 5 555 62T687 218T734 434Q734 560 666 631T468 703ZM385 883Q396 802 477 802Q557 802 594 883L612 880Q594 834 558 808T475 782Q427 782 400 807T368 880Z" horiz-adv-x="792" unicode="Ŏ"/>
			<glyph d="M326 506Q421 506 471 452T521 306Q521 218 488 145T394 29T251 -14Q156 -14 106 40T56 188Q56 276 89 348T183 463T326 506ZM326 487Q250 487 194 446T108 338T78 189Q78 105 121 55T250 5Q326 5 382 46T469 155T499 305Q499 389 455 438T326 487ZM257 698Q261 648 283 625T346 602Q387 602 416 624T465 698L483 695Q444 582 346 582Q297 582 269 610T239 695Z" horiz-adv-x="577" unicode="ŏ"/>
			<glyph d="M469 722Q608 722 682 644T757 434Q757 310 707 207T567 45T357 -14Q218 -14 143 64T69 275Q69 398 119 500T260 662T469 722ZM468 703Q356 703 270 645T138 490T92 275Q92 149 160 77T358 5Q470 5 555 62T687 218T734 434Q734 560 666 631T468 703ZM485 933L504 923L393 783L381 791ZM587 925L605 915L491 778L477 787Z" horiz-adv-x="792" unicode="Ő"/>
			<glyph d="M326 506Q421 506 471 452T521 306Q521 218 488 145T394 29T251 -14Q156 -14 106 40T56 188Q56 276 89 348T183 463T326 506ZM326 487Q250 487 194 446T108 338T78 189Q78 105 121 55T250 5Q326 5 382 46T469 155T499 305Q499 389 455 438T326 487ZM346 733L365 723L254 583L242 591ZM448 725L466 715L352 578L338 587Z" horiz-adv-x="577" unicode="ő"/>
			<glyph d="M455 722Q506 722 553 708H1012L1009 689H587Q646 656 677 591T708 439Q708 409 705 377H918L915 358H702Q685 245 629 153T486 19H919L916 0H441Q391 -14 341 -14Q211 -14 140 63T69 272Q69 393 117 496T253 661T455 722ZM454 703Q347 703 264 644T137 488T92 276Q92 152 158 78T344 5Q447 5 525 65T644 226T686 439Q686 560 626 631T454 703Z" horiz-adv-x="986" unicode="Œ"/>
			<glyph d="M316 506Q399 506 445 458T497 326Q526 412 587 459T736 506Q802 506 838 474T875 396Q875 300 773 265T495 227Q493 199 493 183Q493 6 637 6Q732 6 809 56L819 40Q735 -14 635 -14Q554 -14 512 35T473 168Q443 84 382 35T241 -14Q153 -14 104 41T56 188Q56 275 88 348T180 463T316 506ZM316 487Q245 487 191 446T107 337T78 189Q78 105 120 55T240 5Q311 5 365 46T449 155T479 305Q479 388 437 437T316 487ZM733 487Q633 487 572 419T497 245Q663 249 757 280T852 396Q852 435 821 461T733 487Z" horiz-adv-x="907" unicode="œ"/>
			<glyph d="M176 708H382Q430 708 472 690T540 633T567 538Q567 470 538 416T459 328T343 289L492 0H468L320 288H132L86 0H64ZM195 689L135 307H319Q383 307 434 336T515 418T545 535Q545 612 497 650T380 689ZM441 903L450 884L281 794L275 808Z" horiz-adv-x="572" unicode="Ŕ"/>
			<glyph d="M324 506Q338 506 350 503L346 485Q334 487 321 487Q271 487 228 452T157 357T116 224L80 0H58L119 385Q128 444 131 492H150Q148 420 135 359H137Q166 430 218 468T324 506ZM323 722L335 704L176 593L166 608Z" horiz-adv-x="314" unicode="ŕ"/>
			<glyph d="M176 708H382Q430 708 472 690T540 633T567 538Q567 470 538 416T459 328T343 289L492 0H468L320 288H132L86 0H64ZM195 689L135 307H319Q383 307 434 336T515 418T545 535Q545 612 497 650T380 689ZM245 -71Q263 -71 263 -90Q263 -94 261 -104Q254 -139 242 -164T204 -231L193 -225Q217 -184 227 -160T242 -110Q221 -110 221 -93Q221 -83 227 -77T245 -71Z" horiz-adv-x="572" unicode="Ŗ"/>
			<glyph d="M324 506Q338 506 350 503L346 485Q334 487 321 487Q271 487 228 452T157 357T116 224L80 0H58L119 385Q128 444 131 492H150Q148 420 135 359H137Q166 430 218 468T324 506ZM67 -71Q85 -71 85 -90Q85 -94 83 -104Q76 -139 64 -164T26 -231L15 -225Q39 -184 49 -160T64 -110Q43 -110 43 -93Q43 -83 49 -77T67 -71Z" horiz-adv-x="314" unicode="ŗ"/>
			<glyph d="M176 708H382Q430 708 472 690T540 633T567 538Q567 470 538 416T459 328T343 289L492 0H468L320 288H132L86 0H64ZM195 689L135 307H319Q383 307 434 336T515 418T545 535Q545 612 497 650T380 689ZM483 898L493 885L356 790H334L227 885L239 897L346 808Z" horiz-adv-x="572" unicode="Ř"/>
			<glyph d="M324 506Q338 506 350 503L346 485Q334 487 321 487Q271 487 228 452T157 357T116 224L80 0H58L119 385Q128 444 131 492H150Q148 420 135 359H137Q166 430 218 468T324 506ZM131 717L233 608L373 717L383 705L243 590H221L119 706Z" horiz-adv-x="314" unicode="ř"/>
			<glyph d="M347 722Q452 722 529 662L517 648Q479 676 438 689T344 703Q249 703 189 658T130 530Q130 478 166 447T281 388Q375 355 422 313T469 203Q469 137 437 88T349 12T221 -14Q92 -14 6 69L19 83Q62 43 110 24T223 6Q324 6 385 59T447 203Q447 266 405 302T277 369Q190 399 149 435T108 530Q108 621 174 671T347 722ZM437 903L446 884L277 794L271 808Z" horiz-adv-x="525" unicode="Ś"/>
			<glyph d="M235 506Q323 506 381 459L370 445Q340 467 307 477T232 487Q169 487 128 458T87 375Q87 338 115 314T212 271Q279 251 311 219T343 142Q343 68 293 27T160 -14Q67 -14 -2 42L9 57Q43 30 78 17T164 5Q234 5 277 40T321 141Q321 182 293 208T200 254Q128 275 96 303T65 374Q65 438 113 472T235 506ZM338 722L350 704L191 593L181 608Z" horiz-adv-x="412" unicode="ś"/>
			<glyph d="M347 722Q452 722 529 662L517 648Q479 676 438 689T344 703Q249 703 189 658T130 530Q130 478 166 447T281 388Q375 355 422 313T469 203Q469 137 437 88T349 12T221 -14Q92 -14 6 69L19 83Q62 43 110 24T223 6Q324 6 385 59T447 203Q447 266 405 302T277 369Q190 399 149 435T108 530Q108 621 174 671T347 722ZM361 900H383L490 805L479 793L371 882L234 793L224 805Z" horiz-adv-x="525" unicode="Ŝ"/>
			<glyph d="M235 506Q323 506 381 459L370 445Q340 467 307 477T232 487Q169 487 128 458T87 375Q87 338 115 314T212 271Q279 251 311 219T343 142Q343 68 293 27T160 -14Q67 -14 -2 42L9 57Q43 30 78 17T164 5Q234 5 277 40T321 141Q321 182 293 208T200 254Q128 275 96 303T65 374Q65 438 113 472T235 506ZM274 720H296L398 604L386 593L284 702L144 593L134 605Z" horiz-adv-x="412" unicode="ŝ"/>
			<glyph d="M347 722Q452 722 529 662L517 648Q479 676 438 689T344 703Q249 703 189 658T130 530Q130 478 166 447T281 388Q375 355 422 313T469 203Q469 138 439 89T355 14T231 -14L196 -85Q220 -79 239 -79Q270 -79 287 -94T304 -136Q304 -178 274 -202T196 -226Q148 -226 111 -204L121 -189Q139 -199 156 -203T196 -208Q236 -208 259 -189T282 -137Q282 -97 235 -97Q214 -97 186 -104H165L211 -14Q90 -11 6 69L19 83Q62 43 110 24T223 6Q324 6 385 59T447 203Q447 266 405 302T277 369Q190 399 149 435T108 530Q108 621 174 671T347 722Z" horiz-adv-x="525" unicode="Ş"/>
			<glyph d="M235 506Q323 506 381 459L370 445Q340 467 307 477T232 487Q169 487 128 458T87 375Q87 338 115 314T212 271Q279 251 311 219T343 142Q343 69 295 28T165 -14L130 -85Q154 -79 173 -79Q204 -79 221 -94T238 -136Q238 -178 208 -202T130 -226Q82 -226 45 -204L55 -189Q73 -199 90 -203T130 -208Q170 -208 193 -189T216 -137Q216 -97 169 -97Q148 -97 120 -104H99L145 -14Q63 -10 -2 42L9 57Q43 30 78 17T164 5Q234 5 277 40T321 141Q321 182 293 208T200 254Q128 275 96 303T65 374Q65 438 113 472T235 506Z" horiz-adv-x="412" unicode="ş"/>
			<glyph d="M347 722Q452 722 529 662L517 648Q479 676 438 689T344 703Q249 703 189 658T130 530Q130 478 166 447T281 388Q375 355 422 313T469 203Q469 137 437 88T349 12T221 -14Q92 -14 6 69L19 83Q62 43 110 24T223 6Q324 6 385 59T447 203Q447 266 405 302T277 369Q190 399 149 435T108 530Q108 621 174 671T347 722ZM479 898L489 885L352 790H330L223 885L235 897L342 808Z" horiz-adv-x="525" unicode="Š"/>
			<glyph d="M235 506Q323 506 381 459L370 445Q340 467 307 477T232 487Q169 487 128 458T87 375Q87 338 115 314T212 271Q279 251 311 219T343 142Q343 68 293 27T160 -14Q67 -14 -2 42L9 57Q43 30 78 17T164 5Q234 5 277 40T321 141Q321 182 293 208T200 254Q128 275 96 303T65 374Q65 438 113 472T235 506ZM146 717L248 608L388 717L398 705L258 590H236L134 706Z" horiz-adv-x="412" unicode="š"/>
			<glyph d="M78 708H572L569 688H333L224 0H223L181 -85Q205 -79 224 -79Q255 -79 272 -94T289 -136Q289 -178 259 -202T181 -226Q133 -226 96 -204L106 -189Q124 -199 141 -203T181 -208Q221 -208 244 -189T267 -137Q267 -97 220 -97Q199 -97 171 -104H150L203 0H202L311 688H75Z" horiz-adv-x="504" unicode="Ţ"/>
			<glyph d="M194 636L171 492H313L310 473H168L111 114Q107 89 107 74Q107 39 125 22T176 5Q203 5 235 15L238 -3Q208 -14 174 -14H164L129 -85Q153 -79 172 -79Q203 -79 220 -94T237 -136Q237 -178 207 -202T129 -226Q81 -226 44 -204L54 -189Q72 -199 89 -203T129 -208Q169 -208 192 -189T215 -137Q215 -97 168 -97Q147 -97 119 -104H98L145 -11Q116 -4 100 17T85 72Q85 90 89 114L146 473H51L53 488L149 492L171 628Z" horiz-adv-x="306" unicode="ţ"/>
			<glyph d="M78 708H572L569 688H333L224 0H202L311 688H75ZM469 898L479 885L342 790H320L213 885L225 897L332 808Z" horiz-adv-x="504" unicode="Ť"/>
			<glyph d="M194 636L171 492H313L310 473H168L111 114Q107 89 107 74Q107 39 125 22T176 5Q203 5 235 15L238 -3Q208 -14 174 -14Q132 -14 108 8T85 72Q85 90 89 114L146 473H51L53 488L149 492L171 628ZM337 722L357 715L305 565L290 568Z" horiz-adv-x="306" unicode="ť"/>
			<glyph d="M78 708H572L569 688H333L282 364H411L408 345H279L224 0H202L257 345H130L133 364H260L311 688H75Z" horiz-adv-x="504" unicode="Ŧ"/>
			<glyph d="M194 636L171 492H313L310 473H168L145 330H262L259 311H142L111 114Q107 89 107 74Q107 39 125 22T176 5Q203 5 235 15L238 -3Q208 -14 174 -14Q132 -14 108 8T85 72Q85 90 89 114L120 311H25L28 330H123L146 473H51L53 488L149 492L171 628Z" horiz-adv-x="306" unicode="ŧ"/>
			<glyph d="M167 708H189L117 253Q111 217 111 186Q111 98 161 52T319 6Q562 6 602 254L674 708H696L623 252Q582 -14 318 -14Q202 -14 145 37T89 186Q89 223 94 252ZM398 863Q413 863 426 856T457 836Q486 814 501 814Q518 814 534 824T571 861L585 854Q545 795 501 795Q487 795 474 801T445 821Q430 832 419 838T398 844Q380 844 364 833T329 797L315 804Q356 863 398 863Z" horiz-adv-x="716" unicode="Ũ"/>
			<glyph d="M127 492H149L101 187Q97 164 97 139Q97 77 128 41T226 5Q318 5 377 69T455 254L493 492H515L454 105Q446 61 442 0H423Q425 60 437 123H435Q407 60 353 23T226 -14Q149 -14 111 27T74 138Q74 164 78 185ZM294 663Q309 663 322 656T353 636Q382 614 397 614Q414 614 430 624T467 661L481 654Q441 595 397 595Q383 595 370 601T341 621Q326 632 315 638T294 644Q276 644 260 633T225 597L211 604Q252 663 294 663Z" horiz-adv-x="573" unicode="ũ"/>
			<glyph d="M167 708H189L117 253Q111 217 111 186Q111 98 161 52T319 6Q562 6 602 254L674 708H696L623 252Q582 -14 318 -14Q202 -14 145 37T89 186Q89 223 94 252ZM336 840H568L565 821H333Z" horiz-adv-x="716" unicode="Ū"/>
			<glyph d="M127 492H149L101 187Q97 164 97 139Q97 77 128 41T226 5Q318 5 377 69T455 254L493 492H515L454 105Q446 61 442 0H423Q425 60 437 123H435Q407 60 353 23T226 -14Q149 -14 111 27T74 138Q74 164 78 185ZM231 640H463L460 621H228Z" horiz-adv-x="573" unicode="ū"/>
			<glyph d="M167 708H189L117 253Q111 217 111 186Q111 98 161 52T319 6Q562 6 602 254L674 708H696L623 252Q582 -14 318 -14Q202 -14 145 37T89 186Q89 223 94 252ZM346 883Q357 802 438 802Q518 802 555 883L573 880Q555 834 519 808T436 782Q388 782 361 807T329 880Z" horiz-adv-x="716" unicode="Ŭ"/>
			<glyph d="M127 492H149L101 187Q97 164 97 139Q97 77 128 41T226 5Q318 5 377 69T455 254L493 492H515L454 105Q446 61 442 0H423Q425 60 437 123H435Q407 60 353 23T226 -14Q149 -14 111 27T74 138Q74 164 78 185ZM253 698Q257 648 279 625T342 602Q383 602 412 624T461 698L479 695Q440 582 342 582Q293 582 265 610T235 695Z" horiz-adv-x="573" unicode="ŭ"/>
			<glyph d="M167 708H189L117 253Q111 217 111 186Q111 98 161 52T319 6Q562 6 602 254L674 708H696L623 252Q582 -14 318 -14Q202 -14 145 37T89 186Q89 223 94 252ZM471 960Q505 960 527 939T549 887Q549 843 519 812T443 782Q407 782 386 803T365 857Q365 900 396 930T471 960ZM469 942Q432 942 408 918T385 858Q385 832 401 816T446 800Q482 800 505 824T529 886Q529 911 513 926T469 942Z" horiz-adv-x="716" unicode="Ů"/>
			<glyph d="M127 492H149L101 187Q97 164 97 139Q97 77 128 41T226 5Q318 5 377 69T455 254L493 492H515L454 105Q446 61 442 0H423Q425 60 437 123H435Q407 60 353 23T226 -14Q149 -14 111 27T74 138Q74 164 78 185ZM366 760Q400 760 422 739T444 687Q444 643 414 612T338 582Q302 582 281 603T260 657Q260 700 291 730T366 760ZM364 742Q327 742 303 718T280 658Q280 632 296 616T341 600Q377 600 400 624T424 686Q424 711 408 726T364 742Z" horiz-adv-x="573" unicode="ů"/>
			<glyph d="M167 708H189L117 253Q111 217 111 186Q111 98 161 52T319 6Q562 6 602 254L674 708H696L623 252Q582 -14 318 -14Q202 -14 145 37T89 186Q89 223 94 252ZM446 933L465 923L354 783L342 791ZM548 925L566 915L452 778L438 787Z" horiz-adv-x="716" unicode="Ű"/>
			<glyph d="M127 492H149L101 187Q97 164 97 139Q97 77 128 41T226 5Q318 5 377 69T455 254L493 492H515L454 105Q446 61 442 0H423Q425 60 437 123H435Q407 60 353 23T226 -14Q149 -14 111 27T74 138Q74 164 78 185ZM342 733L361 723L250 583L238 591ZM444 725L462 715L348 578L334 587Z" horiz-adv-x="573" unicode="ű"/>
			<glyph d="M167 708H189L117 253Q111 217 111 186Q111 98 161 52T319 6Q562 6 602 254L674 708H696L623 252Q593 56 441 4Q371 -34 334 -70T297 -153Q297 -176 312 -190T354 -204Q390 -204 425 -185L433 -200Q394 -223 353 -223Q318 -223 296 -204T275 -153Q275 -73 395 -7Q363 -14 318 -14Q202 -14 145 37T89 186Q89 223 94 252Z" horiz-adv-x="716" unicode="Ų"/>
			<glyph d="M127 492H149L101 187Q97 164 97 139Q97 77 128 41T226 5Q318 5 377 69T455 254L493 492H515L454 105Q446 61 442 0Q383 -35 349 -71T315 -153Q315 -176 330 -190T372 -204Q408 -204 443 -185L451 -200Q412 -223 371 -223Q336 -223 314 -204T293 -153Q293 -105 332 -64T423 4Q425 62 437 123H435Q407 60 353 23T226 -14Q149 -14 111 27T74 138Q74 164 78 185Z" horiz-adv-x="573" unicode="ų"/>
			<glyph d="M97 708H120L210 20H212L517 708H551L643 20H645L952 708H976L657 0H624L532 687H530L225 0H193ZM563 900H585L692 805L681 793L573 882L436 793L426 805Z" horiz-adv-x="927" unicode="Ŵ"/>
			<glyph d="M62 492H85L139 21H141L365 492H396L471 21H472L677 492H700L483 0H455L378 469H376L152 0H121ZM415 720H437L539 604L527 593L425 702L285 593L275 605Z" horiz-adv-x="684" unicode="ŵ"/>
			<glyph d="M73 708H97L260 330H262L545 708H571L270 308L221 0H199L248 310ZM348 900H370L477 805L466 793L358 882L221 793L211 805Z" horiz-adv-x="498" unicode="Ŷ"/>
			<glyph d="M49 492H71L176 23H177L418 492H442L173 -26Q128 -112 102 -152T44 -215T-42 -258L-48 -240Q2 -223 34 -197T92 -131T155 -16L162 -2ZM280 720H302L404 604L392 593L290 702L150 593L140 605Z" horiz-adv-x="413" unicode="ŷ"/>
			<glyph d="M73 708H97L260 330H262L545 708H571L270 308L221 0H199L248 310ZM271 884Q291 884 291 865Q291 837 264 837Q244 837 244 856Q244 884 271 884ZM428 884Q448 884 448 865Q448 837 421 837Q401 837 401 856Q401 884 428 884Z" horiz-adv-x="498" unicode="Ÿ"/>
			<glyph d="M128 708H580L576 682L28 19H483L480 0H3L6 24L556 689H125ZM460 903L469 884L300 794L294 808Z" horiz-adv-x="570" unicode="Ź"/>
			<glyph d="M94 492H399L396 470L28 19H335L332 0H1L5 21L371 473H91ZM347 722L359 704L200 593L190 608Z" horiz-adv-x="406" unicode="ź"/>
			<glyph d="M128 708H580L576 682L28 19H483L480 0H3L6 24L556 689H125ZM387 888Q408 888 408 871Q408 841 380 841Q359 841 359 858Q359 888 387 888Z" horiz-adv-x="570" unicode="Ż"/>
			<glyph d="M94 492H399L396 470L28 19H335L332 0H1L5 21L371 473H91ZM283 708Q304 708 304 691Q304 661 276 661Q255 661 255 678Q255 708 283 708Z" horiz-adv-x="406" unicode="ż"/>
			<glyph d="M128 708H580L576 682L28 19H483L480 0H3L6 24L556 689H125ZM502 898L512 885L375 790H353L246 885L258 897L365 808Z" horiz-adv-x="570" unicode="Ž"/>
			<glyph d="M94 492H399L396 470L28 19H335L332 0H1L5 21L371 473H91ZM155 717L257 608L397 717L407 705L267 590H245L143 706Z" horiz-adv-x="406" unicode="ž"/>
			<glyph d="M459 722Q499 722 533 711L528 695Q495 704 460 704Q406 704 372 669T328 571L316 492H447L444 473H313L237 -4Q224 -91 205 -139T157 -212T80 -257L73 -239Q118 -221 143 -197T186 -129T215 -4L291 473H196L199 492H294L306 570Q318 645 357 683T459 722Z" unicode="ƒ"/>
			<glyph d="M347 722Q452 722 529 662L517 648Q479 676 438 689T344 703Q249 703 189 658T130 530Q130 478 166 447T281 388Q375 355 422 313T469 203Q469 137 437 88T349 12T221 -14Q92 -14 6 69L19 83Q62 43 110 24T223 6Q324 6 385 59T447 203Q447 266 405 302T277 369Q190 399 149 435T108 530Q108 621 174 671T347 722ZM226 -71Q244 -71 244 -90Q244 -94 242 -104Q235 -139 223 -164T185 -231L174 -225Q198 -184 208 -160T223 -110Q202 -110 202 -93Q202 -83 208 -77T226 -71Z" horiz-adv-x="525" unicode="Ș"/>
			<glyph d="M235 506Q323 506 381 459L370 445Q340 467 307 477T232 487Q169 487 128 458T87 375Q87 338 115 314T212 271Q279 251 311 219T343 142Q343 68 293 27T160 -14Q67 -14 -2 42L9 57Q43 30 78 17T164 5Q234 5 277 40T321 141Q321 182 293 208T200 254Q128 275 96 303T65 374Q65 438 113 472T235 506ZM160 -71Q178 -71 178 -90Q178 -94 176 -104Q169 -139 157 -164T119 -231L108 -225Q132 -184 142 -160T157 -110Q136 -110 136 -93Q136 -83 142 -77T160 -71Z" horiz-adv-x="412" unicode="ș"/>
			<glyph d="M78 708H572L569 688H333L224 0H202L311 688H75ZM211 -71Q229 -71 229 -90Q229 -94 227 -104Q220 -139 208 -164T170 -231L159 -225Q183 -184 193 -160T208 -110Q187 -110 187 -93Q187 -83 193 -77T211 -71Z" horiz-adv-x="504" unicode="Ț"/>
			<glyph d="M194 636L171 492H313L310 473H168L111 114Q107 89 107 74Q107 39 125 22T176 5Q203 5 235 15L238 -3Q208 -14 174 -14Q132 -14 108 8T85 72Q85 90 89 114L146 473H51L53 488L149 492L171 628ZM159 -71Q177 -71 177 -90Q177 -94 175 -104Q168 -139 156 -164T118 -231L107 -225Q131 -184 141 -160T156 -110Q135 -110 135 -93Q135 -83 141 -77T159 -71Z" horiz-adv-x="306" unicode="ț"/>
			<glyph d="M137 492H159L80 -4Q67 -91 48 -139T0 -212T-77 -257L-84 -239Q-39 -221 -13 -197T29 -129T58 -4Z" horiz-adv-x="218" unicode="ȷ"/>
			<glyph d="M227 720H249L351 604L339 593L237 702L97 593L87 605Z" horiz-adv-x="325" unicode="ˆ"/>
			<glyph d="M115 717L217 608L357 717L367 705L227 590H205L103 706Z" horiz-adv-x="324" unicode="ˇ"/>
			<glyph d="M92 640H324L321 621H89Z" horiz-adv-x="292" unicode="ˉ"/>
			<glyph d="M119 698Q123 648 145 625T208 602Q249 602 278 624T327 698L345 695Q306 582 208 582Q159 582 131 610T101 695Z" horiz-adv-x="304" unicode="˘"/>
			<glyph d="M127 708Q148 708 148 691Q148 661 120 661Q99 661 99 678Q99 708 127 708Z" horiz-adv-x="108" unicode="˙"/>
			<glyph d="M202 760Q236 760 258 739T280 687Q280 643 250 612T174 582Q138 582 117 603T96 657Q96 700 127 730T202 760ZM200 742Q163 742 139 718T116 658Q116 632 132 616T177 600Q213 600 236 624T260 686Q260 711 244 726T200 742Z" horiz-adv-x="242" unicode="˚"/>
			<glyph d="M98 4L116 0Q57 -35 23 -71T-11 -153Q-11 -176 4 -190T46 -204Q82 -204 117 -185L125 -200Q86 -223 45 -223Q10 -223 -11 -204T-33 -153Q-33 -105 7 -63T98 4Z" horiz-adv-x="226" unicode="˛"/>
			<glyph d="M170 663Q185 663 198 656T229 636Q258 614 273 614Q290 614 306 624T343 661L357 654Q317 595 273 595Q259 595 246 601T217 621Q202 632 191 638T170 644Q152 644 136 633T101 597L87 604Q128 663 170 663Z" horiz-adv-x="322" unicode="˜"/>
			<glyph d="M189 733L208 723L97 583L85 591ZM291 725L309 715L195 578L181 587Z" horiz-adv-x="265" unicode="˝"/>
			<glyph d="M35 791L46 785Q22 744 11 720T-3 670Q18 670 18 653Q18 643 11 637T-6 631Q-24 631 -24 650Q-24 653 -22 664Q-15 699 -3 724T35 791Z" horiz-adv-x="0" unicode="̒"/>
			<glyph d="M-104 -71Q-86 -71 -86 -90Q-86 -94 -88 -104Q-95 -139 -107 -164T-145 -231L-156 -225Q-132 -184 -121 -160T-107 -110Q-128 -110 -128 -93Q-128 -83 -121 -77T-104 -71Z" horiz-adv-x="0" unicode="̦"/>
			<glyph d="M377 708H408L586 0H-24ZM391 694L11 19H559Z" horiz-adv-x="640" unicode="Δ"/>
			<glyph d="M467 722Q558 722 621 686T718 585T751 433Q751 343 721 261T634 117T499 22H692L688 0H448L452 21L451 22Q536 50 598 111T694 255T728 433Q728 555 660 629T466 703Q357 703 272 645T139 491T92 283Q92 188 136 120T263 22L259 0H20L24 22H218Q147 57 108 124T70 283Q70 403 120 503T261 663T467 722Z" horiz-adv-x="785" unicode="Ω"/>
			<glyph d="M132 492H154L107 194Q103 173 103 146Q103 82 135 43T232 4Q289 4 337 35T416 120T457 236L498 492H520L459 105Q451 61 447 0H427Q431 56 443 129H441Q404 60 350 22T228 -15Q116 -15 91 86H89L54 -131Q41 -211 31 -244H10Q24 -194 32 -139Z" horiz-adv-x="578" unicode="μ"/>
			<glyph d="M562 506L564 488Q518 473 466 473L409 115Q404 77 404 58Q404 36 410 0H389Q382 32 382 58Q382 81 388 117L444 473H161L86 0H64L139 473H46L49 492H469Q515 492 562 506Z" horiz-adv-x="546" unicode="π"/>
			<glyph d="M97 708H120L210 20H212L517 708H551L643 20H645L952 708H976L657 0H624L532 687H530L225 0H193ZM492 903L646 806L636 794L479 885Z" horiz-adv-x="927" unicode="Ẁ"/>
			<glyph d="M62 492H85L139 21H141L365 492H396L471 21H472L677 492H700L483 0H455L378 469H376L152 0H121ZM351 722L506 606L494 593L335 705Z" horiz-adv-x="684" unicode="ẁ"/>
			<glyph d="M97 708H120L210 20H212L517 708H551L643 20H645L952 708H976L657 0H624L532 687H530L225 0H193ZM639 903L648 884L479 794L473 808Z" horiz-adv-x="927" unicode="Ẃ"/>
			<glyph d="M62 492H85L139 21H141L365 492H396L471 21H472L677 492H700L483 0H455L378 469H376L152 0H121ZM479 722L491 704L332 593L322 608Z" horiz-adv-x="684" unicode="ẃ"/>
			<glyph d="M97 708H120L210 20H212L517 708H551L643 20H645L952 708H976L657 0H624L532 687H530L225 0H193ZM486 884Q506 884 506 865Q506 837 479 837Q459 837 459 856Q459 884 486 884ZM643 884Q663 884 663 865Q663 837 636 837Q616 837 616 856Q616 884 643 884Z" horiz-adv-x="927" unicode="Ẅ"/>
			<glyph d="M62 492H85L139 21H141L365 492H396L471 21H472L677 492H700L483 0H455L378 469H376L152 0H121ZM333 684Q353 684 353 665Q353 637 326 637Q306 637 306 656Q306 684 333 684ZM490 684Q510 684 510 665Q510 637 483 637Q463 637 463 656Q463 684 490 684Z" horiz-adv-x="684" unicode="ẅ"/>
			<glyph d="M378 722Q444 722 496 696T593 619L406 411Q504 392 556 350T609 227Q609 156 578 101T490 16T358 -14Q270 -14 204 26L215 42Q277 6 360 6Q428 6 479 34T559 112T588 227Q588 302 536 340T381 398L383 413L566 618Q524 661 480 681T375 702Q290 702 228 656T153 519L70 0H48L132 520Q146 617 214 669T378 722Z" horiz-adv-x="662" unicode="ẞ"/>
			<glyph d="M73 708H97L260 330H262L545 708H571L270 308L221 0H199L248 310ZM277 903L431 806L421 794L264 885Z" horiz-adv-x="498" unicode="Ỳ"/>
			<glyph d="M49 492H71L176 23H177L418 492H442L173 -26Q128 -112 102 -152T44 -215T-42 -258L-48 -240Q2 -223 34 -197T92 -131T155 -16L162 -2ZM216 722L371 606L359 593L200 705Z" horiz-adv-x="413" unicode="ỳ"/>
			<glyph d="M105 303H497L494 284H102Z" horiz-adv-x="588" unicode="–"/>
			<glyph d="M56 303H536L533 284H53Z" horiz-adv-x="578" unicode="—"/>
			<glyph d="M219 722L227 715Q193 678 182 649T169 583Q183 583 189 578T196 561Q196 552 189 546T170 540Q148 540 148 571Q148 613 163 647T219 722Z" horiz-adv-x="213" unicode="‘"/>
			<glyph d="M167 726Q189 726 189 695Q189 653 173 619T118 544L110 551Q144 588 155 617T168 683Q154 683 147 688T141 705Q141 714 148 720T167 726Z" horiz-adv-x="184" unicode="’"/>
			<glyph d="M57 43Q79 43 79 12Q79 -30 63 -64T8 -139L0 -132Q34 -95 45 -66T58 0Q44 0 37 5T31 22Q31 31 38 37T57 43Z" horiz-adv-x="213" unicode="‚"/>
			<glyph d="M349 722L357 715Q323 678 312 649T299 583Q313 583 319 578T326 561Q326 552 319 546T300 540Q278 540 278 571Q278 613 293 647T349 722ZM219 722L227 715Q193 678 182 649T169 583Q183 583 189 578T196 561Q196 552 189 546T170 540Q148 540 148 571Q148 613 163 647T219 722Z" horiz-adv-x="342" unicode="“"/>
			<glyph d="M295 722Q317 722 317 691Q317 649 301 615T246 540L238 547Q272 584 283 613T296 679Q282 679 275 684T269 701Q269 710 276 716T295 722ZM165 722Q187 722 187 691Q187 649 171 615T116 540L108 547Q142 584 153 613T166 679Q152 679 145 684T139 701Q139 710 146 716T165 722Z" horiz-adv-x="343" unicode="”"/>
			<glyph d="M57 43Q79 43 79 12Q79 -30 63 -64T8 -139L0 -132Q34 -95 45 -66T58 0Q44 0 37 5T31 22Q31 31 38 37T57 43ZM187 43Q209 43 209 12Q209 -30 193 -64T138 -139L130 -132Q164 -95 175 -66T188 0Q174 0 167 5T161 22Q161 31 168 37T187 43Z" horiz-adv-x="343" unicode="„"/>
			<glyph d="M337 708H359L328 511H511L508 492H325L247 0H225L303 492H119L122 511H306Z" horiz-adv-x="549" unicode="†"/>
			<glyph d="M337 708H359L328 511H511L508 492H325L294 297H477L474 278H291L247 0H225L269 278H85L88 297H272L303 492H119L122 511H306Z" horiz-adv-x="549" unicode="‡"/>
			<glyph d="M155 367Q203 367 203 319Q203 273 155 273Q107 273 107 319Q107 367 155 367Z" horiz-adv-x="286" unicode="•"/>
			<glyph d="M320 43Q340 43 340 26Q340 -4 312 -4Q292 -4 292 13Q292 43 320 43ZM557 43Q577 43 577 26Q577 -4 549 -4Q529 -4 529 13Q529 43 557 43ZM86 43Q106 43 106 26Q106 -4 78 -4Q58 -4 58 13Q58 43 86 43Z" horiz-adv-x="706" unicode="…"/>
			<glyph d="M408 721Q492 721 536 672T580 552Q580 486 550 430T467 341T348 308Q264 308 220 356T176 476Q176 542 206 598T289 688T408 721ZM881 709H907L379 0H353ZM408 702Q349 702 301 671T225 588T198 479Q198 415 235 371T348 327Q408 327 456 357T531 439T558 549Q558 613 520 657T408 702ZM932 402Q1016 402 1060 353T1104 233Q1104 167 1074 111T991 22T872 -11Q788 -11 744 37T700 157Q700 223 730 279T813 369T932 402ZM1381 402Q1465 402 1509 353T1553 233Q1553 167 1523 111T1440 22T1321 -11Q1237 -11 1193 37T1149 157Q1149 223 1179 279T1262 369T1381 402ZM932 383Q873 383 825 352T749 269T722 160Q722 96 759 52T872 8Q932 8 980 38T1055 120T1082 230Q1082 294 1044 338T932 383ZM1381 383Q1322 383 1274 352T1198 269T1171 160Q1171 96 1208 52T1321 8Q1381 8 1429 38T1504 120T1531 230Q1531 294 1493 338T1381 383Z" horiz-adv-x="1763" unicode="‰"/>
			<glyph d="M244 506L256 493L128 351L211 209L196 200L104 345L106 361Z" horiz-adv-x="305" unicode="‹"/>
			<glyph d="M143 506L235 361L233 345L95 200L82 213L211 355L127 497Z" horiz-adv-x="305" unicode="›"/>
			<glyph d="M363 709H389L-139 0H-165Z" horiz-adv-x="191" unicode="⁄"/>
			<glyph d="M342 718Q430 718 472 666T515 524Q515 489 509 448Q489 324 427 252T260 181Q173 181 130 232T87 375Q87 411 93 450Q113 574 175 646T342 718ZM341 699Q247 699 190 631T115 448Q109 409 109 373Q109 291 146 245T260 200Q355 200 412 267T487 450Q493 491 493 525Q493 607 456 653T341 699Z" horiz-adv-x="540" unicode="⁰"/>
			<glyph d="M340 708H365L120 355H368L394 517H416L390 355H480L477 335H387L364 191H342L365 335H91L94 353Z" horiz-adv-x="540" unicode="⁴"/>
			<glyph d="M200 708H499L496 689H219L184 477Q246 507 321 507Q392 507 430 474T469 384Q469 324 442 278T366 206T255 181Q199 181 160 196T88 246L103 259Q136 227 171 213T257 200Q313 200 356 223T423 289T447 384Q447 434 413 461T319 488Q277 488 245 480T179 457H160Z" horiz-adv-x="540" unicode="⁵"/>
			<glyph d="M371 718Q409 718 435 709T488 683L477 669Q453 685 428 692T370 700Q278 700 216 629T133 438Q173 478 220 500T330 523Q399 523 439 489T479 394Q479 333 451 284T375 208T264 181Q181 181 141 226T102 352Q102 383 108 417Q130 558 198 638T371 718ZM328 505Q267 505 219 480T129 411Q124 374 124 348Q124 199 265 199Q322 199 365 224T432 294T456 394Q456 448 422 476T328 505Z" horiz-adv-x="540" unicode="⁶"/>
			<glyph d="M165 707H519L516 688Q393 568 319 449T209 191H185Q224 328 295 448T488 688L162 687Z" horiz-adv-x="540" unicode="⁷"/>
			<glyph d="M344 718Q409 718 450 690T492 611Q492 556 457 522T355 459Q419 437 448 408T478 338Q478 292 450 256T373 200T259 181Q176 181 130 213T84 302Q84 424 257 473Q205 493 181 518T157 581Q157 621 182 652T250 701T344 718ZM343 700Q273 700 226 667T179 581Q179 548 203 524T284 482L333 466Q401 495 435 527T470 611Q470 654 436 677T343 700ZM281 465Q198 441 152 403T106 303Q106 253 146 226T260 199Q348 199 402 237T457 338Q457 378 424 403T320 452Z" horiz-adv-x="540" unicode="⁸"/>
			<glyph d="M341 718Q501 718 501 555Q501 521 495 482Q473 341 379 261T139 181L140 200Q273 200 359 270T470 461Q436 422 388 399T278 376Q208 376 166 413T125 514Q125 574 152 620T229 692T341 718ZM339 699Q282 699 238 675T171 610T147 514Q147 457 182 425T281 394Q341 394 390 419T474 489Q480 539 480 559Q480 699 339 699Z" horiz-adv-x="540" unicode="⁹"/>
			<glyph d="M321 634H341L320 498H460L457 479H317L295 342H275L297 479H157L160 498H300Z" horiz-adv-x="540" unicode="⁺"/>
			<glyph d="M160 498H460L457 479H157Z" horiz-adv-x="540" unicode="⁻"/>
			<glyph d="M171 571H471L468 552H168ZM147 415H447L444 396H144Z" horiz-adv-x="540" unicode="⁼"/>
			<glyph d="M408 792L422 781Q333 681 287 582T242 370Q242 300 261 238T314 116L299 107Q260 174 239 235T218 368Q218 490 266 589T408 792Z" horiz-adv-x="529" unicode="⁽"/>
			<glyph d="M295 792Q334 725 355 664T376 531Q376 409 328 309T186 107L172 118Q261 218 306 316T352 529Q352 599 333 660T280 783Z" horiz-adv-x="529" unicode="⁾"/>
			<glyph d="M291 397Q379 397 421 345T464 203Q464 168 458 127Q438 3 376 -68T209 -140Q122 -140 79 -88T36 54Q36 90 42 129Q62 253 124 325T291 397ZM290 378Q196 378 139 310T64 127Q58 88 58 52Q58 -30 95 -75T209 -121Q304 -121 361 -53T436 129Q442 170 442 204Q442 286 405 332T290 378Z" horiz-adv-x="540" unicode="₀"/>
			<glyph d="M308 387H326L247 -110H368L365 -130H76L79 -111L225 -110L300 361L130 277L123 294Z" horiz-adv-x="540" unicode="₁"/>
			<glyph d="M292 397Q359 397 394 363T430 279Q430 220 390 163T289 55T116 -80L76 -110H388L385 -130H40L43 -111L91 -75Q205 10 267 62T368 168T408 279Q408 323 377 350T288 378Q238 378 199 362T120 313L107 327Q153 364 194 380T292 397Z" horiz-adv-x="540" unicode="₂"/>
			<glyph d="M297 397Q364 397 400 367T437 288Q437 282 435 266Q426 210 392 181T315 144L313 143Q354 139 384 113T414 38Q414 31 412 13Q401 -58 346 -99T206 -140Q146 -140 107 -124T38 -75L53 -62Q83 -94 117 -107T207 -121Q283 -121 331 -85T389 14Q391 32 391 39Q391 88 357 110T268 133H188L191 152H260Q319 152 361 181T413 267Q415 281 415 288Q415 331 384 354T294 378Q246 378 208 366T130 326L119 339Q160 369 201 383T297 397Z" horiz-adv-x="540" unicode="₃"/>
			<glyph d="M288 387H313L68 34H316L342 196H364L338 34H428L425 14H335L312 -130H290L313 14H39L42 32Z" horiz-adv-x="540" unicode="₄"/>
			<glyph d="M149 387H448L445 368H168L133 156Q195 186 270 186Q341 186 379 153T418 63Q418 3 391 -43T315 -114T204 -140Q148 -140 109 -124T37 -75L52 -62Q85 -94 120 -107T206 -121Q262 -121 305 -97T372 -32T396 63Q396 113 362 140T268 167Q226 167 194 159T128 136H109Z" horiz-adv-x="540" unicode="₅"/>
			<glyph d="M320 397Q358 397 384 388T437 362L426 348Q402 364 377 371T319 379Q227 379 165 308T82 117Q122 157 169 179T279 202Q348 202 388 168T428 73Q428 12 400 -36T324 -112T213 -140Q130 -140 90 -94T51 31Q51 62 57 96Q79 237 147 317T320 397ZM277 184Q216 184 168 159T78 90Q73 53 73 27Q73 -122 214 -122Q271 -122 314 -96T381 -26T405 73Q405 127 371 155T277 184Z" horiz-adv-x="540" unicode="₆"/>
			<glyph d="M114 386H468L465 367Q342 247 268 128T158 -130H134Q173 7 244 127T437 367L111 366Z" horiz-adv-x="540" unicode="₇"/>
			<glyph d="M293 397Q358 397 399 369T441 290Q441 235 406 201T304 138Q368 116 397 87T427 17Q427 -29 399 -65T322 -120T208 -140Q125 -140 79 -107T33 -19Q33 103 206 152Q154 172 130 197T106 260Q106 300 131 331T199 380T293 397ZM292 379Q222 379 175 346T128 260Q128 227 152 203T233 161L282 145Q350 174 384 206T419 290Q419 333 385 356T292 379ZM230 144Q147 120 101 82T55 -18Q55 -68 95 -95T209 -122Q297 -122 351 -83T406 17Q406 57 373 82T269 131Z" horiz-adv-x="540" unicode="₈"/>
			<glyph d="M290 397Q450 397 450 234Q450 200 444 161Q422 20 328 -60T88 -140L89 -121Q222 -121 308 -50T419 140Q385 101 337 78T227 55Q157 55 115 92T74 193Q74 253 101 299T178 371T290 397ZM288 378Q231 378 187 354T120 289T96 193Q96 136 131 104T230 73Q290 73 339 98T423 168Q429 218 429 238Q429 378 288 378Z" horiz-adv-x="540" unicode="₉"/>
			<glyph d="M267 293H287L266 157H406L403 138H263L241 1H221L243 138H103L106 157H246Z" horiz-adv-x="540" unicode="₊"/>
			<glyph d="M106 157H406L403 138H103Z" horiz-adv-x="540" unicode="₋"/>
			<glyph d="M117 230H417L414 211H114ZM93 74H393L390 55H90Z" horiz-adv-x="540" unicode="₌"/>
			<glyph d="M357 471L371 460Q282 360 236 261T191 49Q191 -21 210 -82T263 -205L248 -214Q209 -147 188 -86T167 47Q167 169 215 268T357 471Z" horiz-adv-x="529" unicode="₍"/>
			<glyph d="M244 471Q283 404 304 343T325 210Q325 88 277 -11T135 -214L121 -203Q210 -103 255 -4T301 208Q301 278 282 339T229 462Z" horiz-adv-x="529" unicode="₎"/>
			<glyph d="M458 723Q575 723 648 641L633 626Q564 704 457 704Q346 704 265 627T149 428H492L489 411H144Q131 360 127 311H453L451 294H126Q125 283 125 260Q125 141 181 74T344 7Q403 7 461 32T565 100L576 83Q526 36 466 11T343 -13Q227 -13 165 59T103 260Q103 283 104 294H15L17 311H105Q110 367 121 411H33L36 428H126Q163 559 250 641T458 723Z" unicode="€"/>
			<glyph d="M152 708H603L600 691H397Q440 676 467 643T500 560H580L577 543H501V538Q501 471 471 416T390 328T276 289L426 0H402L253 288H86L89 307H248Q313 307 366 336T449 419T479 537V543H126L129 560H478Q470 625 423 658T311 691H149Z" unicode="₹"/>
			<glyph d="M238 708H260L217 441L417 528L418 509L214 420L197 315L397 402L398 383L194 294L150 19Q280 19 359 46T475 123T525 246H545Q532 166 492 112T369 29T149 0H126L171 284L30 223L29 241L174 305L191 410L50 349L49 367L194 430Z" unicode="₺"/>
			<glyph d="M191 708H385Q469 708 525 668T582 545Q582 472 550 414T462 324T332 292H147L131 189H411L408 172H128L101 0H79L106 172H39L42 189H109L125 292H58L61 309H128ZM210 689L150 309H334Q399 309 450 339T531 424T560 545Q560 620 511 654T386 689Z" unicode="₽"/>
			<glyph d="M293 721Q337 721 360 696T384 630Q384 542 311 444T124 258L100 106Q97 87 97 74Q97 5 169 5Q199 5 228 14L232 -2Q199 -14 167 -14Q123 -14 99 8T75 74Q75 87 79 114L99 242L30 193L23 209Q58 232 103 267L152 574Q164 647 201 684T293 721ZM292 702Q248 702 216 669T174 572L129 287Q235 372 298 459T362 630Q362 663 343 682T292 702Z" horiz-adv-x="375" unicode="ℓ"/>
			<glyph d="M474 722Q594 722 678 674T805 544T848 354Q848 247 805 164T678 33T474 -14Q354 -14 269 33T142 164T100 354Q100 461 142 544T269 674T474 722ZM474 703Q359 703 279 657T160 533T121 354Q121 253 160 174T279 50T474 5Q589 5 668 50T787 174T827 354Q827 455 787 533T668 657T474 703ZM356 568H497Q564 568 604 536T644 435Q644 372 603 336T500 300H377V143H356ZM377 549V320H500Q554 320 588 349T623 435Q623 498 587 523T497 549Z" horiz-adv-x="948" unicode="℗"/>
			<glyph d="M211 718Q295 718 360 669L348 654Q287 699 211 699Q150 699 118 675T87 611Q87 574 115 550T221 508Q303 489 334 462T366 387Q366 334 321 302T204 271Q153 271 114 284T37 323L47 338Q86 313 120 301T205 290Q267 290 305 315T344 386Q344 416 333 433T293 464T208 491Q127 510 96 539T65 610Q65 660 103 689T211 718ZM452 708H485L666 313H668L846 708H879V283H858V683H857L675 283H657L474 683H473V283H452Z" horiz-adv-x="949" unicode="℠"/>
			<glyph d="M91 708H287V690H199V492H179V690H91ZM321 708H352L441 521H443L530 708H561V492H541V685H540L449 492H432L342 685H341V492H321Z" horiz-adv-x="580" unicode="™"/>
			<glyph d="M467 722Q558 722 621 686T718 585T751 433Q751 343 721 261T634 117T499 22H692L688 0H448L452 21L451 22Q536 50 598 111T694 255T728 433Q728 555 660 629T466 703Q357 703 272 645T139 491T92 283Q92 188 136 120T263 22L259 0H20L24 22H218Q147 57 108 124T70 283Q70 403 120 503T261 663T467 722Z" horiz-adv-x="785" unicode="Ω"/>
			<glyph d="M450 683Q588 683 673 631T795 500T832 330H215Q210 330 210 325V149Q210 129 217 121Q255 73 314 47T449 22Q525 22 584 50T698 130H765Q706 60 636 28T452 -3Q335 -3 248 42T115 164T70 332Q70 423 116 504T249 634T450 683ZM447 659Q387 659 327 635T219 562Q210 553 210 536V355Q210 350 215 350H687Q692 350 692 355V535Q692 548 682 560Q639 614 574 636T447 659Z" horiz-adv-x="902" unicode="℮"/>
			<glyph d="M286 722Q365 722 428 683T527 571T563 403Q563 359 556 317Q533 167 460 76T263 -14Q163 -14 111 38T60 181Q60 268 94 338T191 450T339 491Q412 491 460 456T540 359Q543 383 543 407Q543 492 510 559T419 665T283 703ZM338 472Q259 472 201 433T112 327T82 179Q82 96 127 50T264 5Q375 5 442 86T536 328Q504 398 457 435T338 472Z" unicode="∂"/>
			<glyph d="M377 708H408L586 0H-24ZM391 694L11 19H559Z" horiz-adv-x="640" unicode="∆"/>
			<glyph d="M40 708H602V689H507V-120H485V689H157V-120H135V689H40Z" horiz-adv-x="642" unicode="∏"/>
			<glyph d="M74 708H535V689H94L340 307V299L80 -103L548 -101V-120H62V-98L319 302L74 682Z" unicode="∑"/>
			<glyph d="M105 303H497L494 284H102Z" horiz-adv-x="588" unicode="−"/>
			<glyph d="M363 709H389L-139 0H-165Z" horiz-adv-x="191" unicode="∕"/>
			<glyph d="M314 343Q334 343 334 326Q334 296 306 296Q286 296 286 313Q286 343 314 343Z" horiz-adv-x="600" unicode="∙"/>
			<glyph d="M527 708H547L331 -120H302L155 265H62V285H170L316 -99Z" unicode="√"/>
			<glyph d="M290 504Q367 504 405 464T462 338Q511 425 559 464T681 504Q746 504 784 465T822 361Q822 300 799 250T734 171T635 142Q558 142 517 177T455 294Q411 216 362 179T244 142Q179 142 140 181T102 287Q102 345 126 395T193 474T290 504ZM679 486Q611 486 564 447T468 316Q484 257 504 224T555 176T636 161Q688 161 725 188T782 260T802 361Q802 422 769 454T679 486ZM289 485Q239 485 201 457T143 384T123 287Q123 229 156 194T245 160Q310 160 356 197T450 316Q436 379 418 415T369 468T289 485Z" horiz-adv-x="900" unicode="∞"/>
			<glyph d="M477 722Q494 722 509 719L505 701Q491 703 479 703Q431 703 405 675T370 590L257 -128Q246 -196 214 -227T127 -258Q109 -258 97 -255L101 -237Q113 -239 128 -239Q175 -239 200 -211T235 -126L349 592Q359 660 391 691T477 722Z" unicode="∫"/>
			<glyph d="M247 400Q268 400 285 393T328 372Q351 359 368 352T404 345Q431 345 454 357T507 398L519 387Q490 355 462 340T403 326Q382 326 364 333T322 354Q299 367 282 374T246 381Q219 381 195 369T143 328L131 339Q160 371 188 385T247 400ZM221 240Q242 240 259 233T302 212Q325 199 342 192T378 185Q405 185 428 197T481 238L493 227Q464 195 436 180T377 166Q356 166 338 173T296 194Q273 207 256 214T220 221Q193 221 169 209T117 168L105 179Q134 211 162 225T221 240Z" unicode="≈"/>
			<glyph d="M523 549L538 539L414 393H523L520 374H398L244 193H491L488 174H228L94 17L78 27L203 174H99L102 193H220L374 374H131L134 393H390Z" unicode="≠"/>
			<glyph d="M537 580L544 562L147 351L477 140L465 124L121 342L124 362ZM69 18H469L466 -1H66Z" horiz-adv-x="609" unicode="≤"/>
			<glyph d="M179 580L523 362L520 342L107 124L100 142L497 353L167 564ZM68 18H468L465 -1H65Z" unicode="≥"/>
			<glyph d="M290 708H320L530 354L320 0H290L80 354ZM305 694L104 354L305 14L506 354Z" unicode="◊"/>
			<glyph d="M356 722Q425 722 504 690Q542 722 599 722Q639 722 673 711L668 695Q635 704 600 704Q546 704 512 669T468 571L456 492H587L584 473H453L377 -4Q364 -91 345 -139T297 -212T220 -257L213 -239Q258 -221 283 -197T326 -129T355 -4L431 473H178L102 -4Q89 -91 70 -139T22 -212T-55 -257L-62 -239Q-17 -221 8 -197T51 -129T80 -4L156 473H59L61 487L159 492L171 570Q183 641 230 681T356 722ZM354 704Q284 704 243 668T193 571L181 492H434L446 570Q456 637 490 675Q420 704 354 704Z" horiz-adv-x="565" unicode="ﬀ"/>
			<glyph d="M366 722Q425 722 480 700L477 681Q421 704 364 704Q287 704 245 669T193 571L181 492H450L372 0H350L425 473H178L102 -4Q89 -91 70 -139T22 -212T-55 -257L-62 -239Q-17 -221 8 -197T51 -129T80 -4L156 473H59L61 487L159 492L171 570Q183 642 231 682T366 722Z" horiz-adv-x="509" unicode="ﬁ"/>
			<glyph d="M366 722Q425 722 480 700L370 0H348L456 689Q409 704 364 704Q287 704 245 669T193 571L181 492H325L322 473H178L102 -4Q89 -91 70 -139T22 -212T-55 -257L-62 -239Q-17 -221 8 -197T51 -129T80 -4L156 473H59L61 487L159 492L171 570Q183 642 231 682T366 722Z" horiz-adv-x="507" unicode="ﬂ"/>
			<glyph d="M356 722Q425 722 504 690Q551 722 627 722Q686 722 741 700L738 681Q682 704 625 704Q548 704 506 669T454 571L442 492H711L633 0H611L686 473H439L363 -4Q350 -91 331 -139T283 -212T206 -257L199 -239Q244 -221 269 -197T312 -129T341 -4L417 473H178L102 -4Q89 -91 70 -139T22 -212T-55 -257L-62 -239Q-17 -221 8 -197T51 -129T80 -4L156 473H59L61 487L159 492L171 570Q183 641 230 681T356 722ZM354 704Q284 704 243 668T193 571L181 492H420L432 570Q443 637 486 677Q417 704 354 704Z" horiz-adv-x="770" unicode="ﬃ"/>
			<glyph d="M356 722Q425 722 504 690Q551 722 627 722Q686 722 741 700L631 0H609L717 689Q670 704 625 704Q548 704 506 669T454 571L442 492H586L583 473H439L363 -4Q350 -91 331 -139T283 -212T206 -257L199 -239Q244 -221 269 -197T312 -129T341 -4L417 473H178L102 -4Q89 -91 70 -139T22 -212T-55 -257L-62 -239Q-17 -221 8 -197T51 -129T80 -4L156 473H59L61 487L159 492L171 570Q183 641 230 681T356 722ZM354 704Q284 704 243 668T193 571L181 492H420L432 570Q443 637 486 677Q417 704 354 704Z" horiz-adv-x="768" unicode="ﬄ"/>
		</font>
</defs>
</svg>
