<svg xmlns="http://www.w3.org/2000/svg" width="52" height="52" viewBox="0 0 52 52"><path d="M40.27,17.91a16.36,16.36,0,0,0-32.71,0A8.18,8.18,0,0,0,8.2,33.53,16.41,16.41,0,0,0,23.92,45.61a15.91,15.91,0,0,0,5.63-1l-.38-.45h0a9.17,9.17,0,0,1-1.75-2.69A12.27,12.27,0,0,1,24,42a12.63,12.63,0,0,1-12-8.63,17.35,17.35,0,0,0,8.45,2.37,1.24,1.24,0,0,0,1.28.82h4.53a1.38,1.38,0,0,0,.56-.12,1.25,1.25,0,0,0,.72-1.16V32.53a1.41,1.41,0,0,0-1.28-1.45H21.74a1.53,1.53,0,0,0-1.28.9c-5-.27-8.54-2.45-9.08-4.72a17.88,17.88,0,0,1,.82-4.09,19.09,19.09,0,0,0,2.62,0,17.65,17.65,0,0,0,13.73-6.72,13.89,13.89,0,0,0,6.63,5.45c.09.27.27.54.36.81a17.67,17.67,0,0,1,1.09,6.19v.37a8.31,8.31,0,0,1,3.29,1.29,8.34,8.34,0,0,1,4.69-1.44,1.61,1.61,0,0,1,.31,0,7.8,7.8,0,0,0,.81-3.52A8.17,8.17,0,0,0,40.27,17.91Z" fill="#fff"/><path d="M41.34,49.38a2,2,0,0,1-2.83,0l0,0c-2.39-2.56-7-7.43-7-7.47a5.77,5.77,0,0,1,0-7.86,5.15,5.15,0,0,1,7.28-.22l.22.22.4.5a.69.69,0,0,0,1,.09l.09-.09.33-.43.07-.07a5.09,5.09,0,0,1,7.19-.3l.3.3a5.77,5.77,0,0,1,0,7.86C48.31,42,43.77,46.82,41.34,49.38Z" fill="#fff"/></svg>