<svg width="24" stroke-width="1.5" height="24" viewBox="0 0 24 24" fill="none" xmlns="http://www.w3.org/2000/svg">
<path d="M21 13C21 17.9706 16.9706 22 12 22C7.02944 22 3 17.9706 3 13C3 8.02944 7.02944 4 12 4" stroke="currentColor"  stroke-linecap="round" stroke-linejoin="round"/>
<path d="M12 4H19.5M19.5 4L17.5 2M19.5 4L17.5 6" stroke="currentColor"  stroke-linecap="round" stroke-linejoin="round"/>
<path d="M9 9L9 16" stroke="currentColor"  stroke-linecap="round" stroke-linejoin="round"/>
<path d="M15 9L13 9C12.4477 9 12 9.44772 12 10L12 11.5C12 12.0523 12.4477 12.5 13 12.5L14 12.5C14.5523 12.5 15 12.9477 15 13.5L15 15C15 15.5523 14.5523 16 14 16L12 16" stroke="currentColor"  stroke-linecap="round" stroke-linejoin="round"/>
</svg>
