<svg xmlns="http://www.w3.org/2000/svg" viewBox="0 0 64 64" enable-background="new 0 0 64 64"><g fill="#c94747"><path d="M38,2.602V26h23.399C59.014,14.246,49.755,4.987,38,2.602z"/><path d="M26,61.398V38H2.602C4.988,49.754,14.246,59.013,26,61.398z"/></g><g fill="#2a5f9e"><path d="M38,38v23.398C49.755,59.013,59.014,49.754,61.399,38H38z"/><path d="M2.602,26H26V2.602C14.246,4.987,4.988,14.246,2.602,26z"/></g><path fill="#f9f9f9" d="m61.4 26h-23.399v-23.398c-1.938-.394-3.945-.602-6-.602-2.055 0-4.061.208-6 .602v23.398h-23.398c-.394 1.938-.602 3.945-.602 6s.208 4.062.601 6h23.399v23.398c1.939.395 3.946.602 6 .602 2.054 0 4.061-.207 6-.602v-23.398h23.399c.394-1.938.601-3.945.601-6s-.207-4.062-.601-6"/><path fill="#699635" d="m28.992 29.332c0 0-.419-.119-.753-.114l.012-.017c.264-.404.351-1.159.351-1.159s-.652.384-.918.785c-.139-.292-.392-.59-.392-.59s-.309.346-.262.683c.047.336.475.838.475.838s.635.185.964.09c.329-.095.523-.516.523-.516"/><path fill="#83bf4f" d="m28.387 30.3c0 0-.437-.008-.757.083l.007-.02c.149-.458.037-1.21.037-1.21s-.53.539-.683.994c-.21-.245-.533-.469-.533-.469s-.206.415-.073.727c.133.313.677.688.677.688s.661.014.954-.161c.294-.176.371-.632.371-.632"/><path fill="#699635" d="m28.05 31.385c0 0-.424.104-.709.276l.001-.021c.026-.481-.279-1.179-.279-1.179s-.372.656-.401 1.135c-.266-.183-.636-.316-.636-.316s-.092.454.118.72c.21.269.833.491.833.491s.644-.157.88-.402c.239-.242.193-.704.193-.704"/><path fill="#83bf4f" d="m28.02 32.521c0 0-.381.21-.613.449l-.004-.021c-.099-.471-.576-1.065-.576-1.065s-.188.729-.092 1.198c-.303-.108-.696-.142-.696-.142s.029.461.302.667c.272.204.933.259.933.259s.58-.316.745-.612c.165-.299.001-.733.001-.733"/><path fill="#699635" d="m28.28 33.629c0 0-.314.301-.475.59l-.01-.018c-.22-.43-.834-.882-.834-.882s.007.752.223 1.183c-.322-.027-.71.041-.71.041s.149.438.466.566c.317.128.968.011.968.011s.479-.454.561-.784c.081-.33-.189-.707-.189-.707"/><path fill="#83bf4f" d="m28.816 34.631c0 0-.224.371-.305.693l-.015-.016c-.325-.359-1.036-.637-1.036-.637s.203.725.524 1.084c-.318.057-.674.223-.674.223s.257.385.596.428c.34.042.939-.238.939-.238s.342-.563.336-.902c-.006-.34-.365-.635-.365-.635"/><path fill="#699635" d="m29.599 35.462c0 0-.119.415-.114.747l-.018-.012c-.406-.263-1.167-.35-1.167-.35s.386.648.79.913c-.292.138-.594.389-.594.389s.35.306.689.259c.338-.047.844-.471.844-.471s.186-.631.09-.958c-.096-.326-.52-.517-.52-.517"/><path fill="#83bf4f" d="m30.571 36.06c0 0-.007.433.085.751l-.02-.006c-.462-.148-1.219-.037-1.219-.037s.542.526 1 .679c-.248.208-.474.527-.474.527s.418.205.734.073c.315-.132.691-.672.691-.672s.015-.656-.162-.947-.635-.368-.635-.368"/><path fill="#699635" d="m35.09 29.332c0 0 .419-.119.753-.114l-.012-.017c-.265-.404-.352-1.159-.352-1.159s.652.384.918.785c.139-.292.393-.59.393-.59s.308.346.26.683c-.045.336-.475.838-.475.838s-.635.185-.963.09-.522-.516-.522-.516"/><path fill="#83bf4f" d="m35.695 30.3c0 0 .437-.008.757.083l-.007-.02c-.15-.458-.037-1.21-.037-1.21s.53.539.682.994c.211-.245.534-.469.534-.469s.206.415.073.727c-.133.313-.677.688-.677.688s-.661.014-.954-.161c-.295-.176-.371-.632-.371-.632"/><path fill="#699635" d="m36.03 31.385c0 0 .424.104.71.276l-.002-.021c-.024-.481.28-1.179.28-1.179s.372.656.4 1.135c.266-.183.636-.316.636-.316s.092.454-.118.72c-.21.269-.833.491-.833.491s-.644-.157-.88-.402c-.237-.242-.193-.704-.193-.704"/><path fill="#83bf4f" d="m36.07 32.521c0 0 .381.21.613.449l.004-.021c.1-.471.576-1.065.576-1.065s.188.729.092 1.198c.303-.108.697-.142.697-.142s-.03.461-.303.667c-.273.204-.934.259-.934.259s-.58-.316-.744-.612c-.165-.299-.001-.733-.001-.733"/><path fill="#699635" d="m35.805 33.629c0 0 .314.301.477.59l.01-.018c.22-.43.834-.882.834-.882s-.008.752-.223 1.183c.321-.027.709.041.709.041s-.148.438-.465.566c-.318.128-.969.011-.969.011s-.479-.454-.561-.784.188-.707.188-.707"/><path fill="#83bf4f" d="m35.27 34.631c0 0 .224.371.306.693l.014-.016c.324-.359 1.035-.637 1.035-.637s-.203.725-.524 1.084c.318.057.675.223.675.223s-.257.385-.596.428c-.342.042-.939-.238-.939-.238s-.343-.563-.336-.902c.004-.34.365-.635.365-.635"/><path fill="#699635" d="m34.482 35.462c0 0 .121.415.115.747l.018-.012c.406-.263 1.167-.35 1.167-.35s-.386.648-.789.913c.292.138.594.389.594.389s-.351.306-.688.259c-.339-.047-.844-.471-.844-.471s-.186-.631-.09-.958c.094-.326.517-.517.517-.517"/><path fill="#83bf4f" d="m33.512 36.06c0 0 .007.433-.086.751l.02-.006c.463-.148 1.221-.037 1.221-.037s-.543.526-1 .679c.247.208.473.527.473.527s-.417.205-.733.073c-.314-.132-.691-.672-.691-.672s-.015-.656.163-.947c.175-.291.635-.368.635-.368"/><path fill="#fff" d="m29.05 29.06c.008.052.004 4.389.004 4.837 0 .429.005.701.208.974.168.234.449.428.725.492.194.039.911.023 1.16.023.553-.025.619.098.829.371.237-.385.499-.391.988-.371.25 0 .783.02 1-.027.265-.063.472-.189.643-.401.28-.321.265-.723.265-1.144v-4.572c0-.207-.024-.155.081-.262l.689-.723-7.359.003.763.8"/><path fill="#002d62" d="m31.347 31.21v-2.95h-3.047l.76.79.01 2.16z"/><g fill="#ce1126"><path d="m32.566 31.21v-2.95h3.101l-.791.84v2.11z"/><path d="m31.347 32.432h-2.303l-.006 1.861c.104.813.705 1.09 1.245 1.088.365.004.489-.002 1.064-.007v-2.942"/></g><g fill="#002d62"><path d="m32.566 32.432h2.317l-.007 1.861c-.055.807-.706 1.09-1.245 1.088l-1.065-.007v-2.942"/><path d="m30.22 25.934c-.924-.016-1.857.195-2.634.676-.357.221-.44.295-.244.651l-.451.16c-.296.112-.599.226-.851.377-.154.092-.218.161-.335.283l.74-.057-.108.163c-.126.182-.205.327-.315.519.21-.142.399-.275.641-.393.53-.267 1.482-.274 1.873-.743.1-.119.039-.189-.044-.383.29-.096.398-.163.749-.243.85-.189 1.435.035 1.845-.065.128-.032.253-.103.262-.237l-.061-.429 1.379-.001c.002.242-.232.554.196.666.388.101 1.169-.121 1.846.067l.749.243-.072.18.026.195c.073.083.177.167.288.23.219.126.506.205.776.271.78.189.853.239 1.452.64-.039-.117-.324-.533-.42-.68l.737.058c-.126-.193-.515-.397-.739-.485l-.898-.328c.082-.156.15-.286.068-.416-.125-.189-.873-.557-1.063-.608-.324-.088-.664-.16-.982-.211-.32-.051-.935-.095-.935-.095-.044-.046.085-.29-.112-.46-.115-.092-.283-.124-.455-.142-.685-.065-1.617-.046-2.31 0-.2.012-.341.033-.455.142-.138.129-.156.209-.143.455"/></g><path fill="#ce1126" d="m28.98 36.785c-.372.122-.62.207-.976.416-.136-.204-.322-.507-.453-.682-.074-.095-.177-.197-.305-.262-.202-.094-.276-.065-.404.045l-.09-.172c-.181-.318-.371-.465-.573-.723l-.181-.213-.065-.064c.078.256.134.5.185.779-.111-.061-.214-.123-.33-.172-.087-.032-.309-.081-.417-.068l.131.117c.227.201.375.467.466.765.098.323.33.666.573.903.049.049.189.175.28.208.271.099.259-.005.358-.054.209.354.343.532.584.801.26.273.667.348 1.039.262.165-.041.268-.086.396-.159.482-.278.25-.495.193-.715.156-.049.77-.235.99-.276.776-.143 2.215-.162 3.136-.027.081.012 1.01.259 1.101.313-.066.153-.092.229-.082.398.016.156.15.238.27.308.127.073.23.118.396.159.161.037.333.045.498.021.347-.058.527-.257.676-.437.247-.281.323-.453.45-.65l.119.082.242-.029c.12-.044.194-.134.275-.212.256-.245.471-.563.574-.911.123-.408.293-.601.593-.865-.389.013-.522.118-.741.24l.082-.4c.024-.11.086-.273.099-.379-.177.188-.333.385-.49.559-.073.098-.156.18-.231.286-.155.24-.125.248-.186.327-.546-.304-.791.436-1.16.891-.687-.386-1.283-.507-2.09-.654-.18-.019-.342-.045-.49-.061-1.014-.119-2.13-.115-3.14.036-.521.065-.843.161-1.302.269"/><path fill="#eac102" d="m31.704 28.09v.657h-.664v.563h.664v2.364h.546v-2.364h.679v-.563h-.679v-.657z"/><path fill="#201b18" d="m29.917 32.19l2.676-1.564 1.467 2.107-2.83 1.819z"/><path fill="#c9c9c9" d="m30.24 31.666l2.259-1.315 1.233 1.779-2.384 1.531z"/></svg>