<svg xmlns="http://www.w3.org/2000/svg" viewBox="0 0 64 64" enable-background="new 0 0 64 64"><path fill="#c94747" d="M32,2C18.939,2,7.833,10.35,3.714,22h56.571C56.166,10.35,45.061,2,32,2z"/><path fill="#83bf4f" d="m32 62c13.06 0 24.17-8.35 28.28-20h-56.57c4.119 11.65 15.225 20 28.29 20"/><path fill="#ffce31" d="M3.714,22C2.607,25.129,2,28.493,2,32c0,3.507,0.607,6.871,1.714,10h56.571C61.393,38.871,62,35.508,62,32
		c0-3.508-0.607-6.871-1.715-10H3.714z"/><path fill="#ed1c24" d="m31.32 37.73h1.364v2.908h-1.364z"/><g fill="#ffe000"><path d="m30.24 37.986h1.364v2.908h-1.364z"/><path d="m32.394 37.986h1.364v2.908h-1.364z"/></g><g fill="#699635"><path d="m30 37.986h.862v3.651h-.862z"/><path d="m33.13 37.986h.861v3.651h-.861z"/><path d="m29.6 23.378c0 0-.331-.094-.593-.09l.01-.013c.208-.318.276-.912.276-.912s-.514.302-.723.617c-.109-.229-.307-.464-.307-.464s-.243.273-.206.538c.037.264.374.66.374.66s.5.145.759.07c.257-.074.41-.406.41-.406"/></g><path fill="#83bf4f" d="m29.12 24.14c0 0-.343-.007-.595.064l.005-.015c.118-.361.028-.953.028-.953s-.417.424-.536.782c-.166-.193-.42-.369-.42-.369s-.162.326-.058.572c.104.247.533.541.533.541s.521.012.751-.126c.232-.138.292-.496.292-.496"/><path fill="#699635" d="m28.862 24.995c0 0-.334.082-.558.217l.001-.016c.021-.379-.22-.929-.22-.929s-.293.517-.316.894c-.209-.144-.5-.249-.5-.249s-.072.356.092.567c.166.211.656.386.656.386s.506-.123.691-.316c.189-.191.154-.554.154-.554"/><path fill="#83bf4f" d="m28.832 25.889c0 0-.301.165-.483.354l-.004-.017c-.077-.371-.453-.838-.453-.838s-.147.573-.072.943c-.238-.085-.547-.111-.547-.111s.023.363.238.525c.214.161.734.204.734.204s.457-.249.586-.482c.129-.237.001-.578.001-.578"/><path fill="#699635" d="m29.04 26.76c0 0-.247.237-.374.465l-.009-.014c-.172-.338-.657-.694-.657-.694s.006.592.176.931c-.253-.021-.559.032-.559.032s.117.345.367.446c.25.101.762.008.762.008s.377-.358.442-.618c.064-.259-.148-.556-.148-.556"/><path fill="#83bf4f" d="m29.461 27.549c0 0-.176.292-.24.546l-.011-.012c-.256-.283-.816-.501-.816-.501s.16.571.414.854c-.25.044-.531.175-.531.175s.203.303.47.337c.267.033.738-.188.738-.188s.27-.443.265-.71c-.006-.269-.289-.501-.289-.501"/><path fill="#699635" d="m30.08 28.2c0 0-.094.327-.091.588l-.014-.009c-.32-.207-.918-.275-.918-.275s.303.51.621.718c-.23.109-.467.306-.467.306s.275.241.542.203c.267-.036.664-.37.664-.37s.146-.496.071-.754c-.075-.256-.408-.407-.408-.407"/><path fill="#83bf4f" d="m30.842 28.675c0 0-.005.341.067.591l-.015-.004c-.364-.117-.959-.029-.959-.029s.427.415.787.535c-.194.164-.372.415-.372.415s.329.161.578.058c.248-.104.545-.529.545-.529s.011-.516-.128-.746c-.14-.23-.503-.291-.503-.291"/><path fill="#699635" d="m34.4 23.378c0 0 .328-.094.592-.09l-.01-.013c-.207-.318-.275-.912-.275-.912s.512.302.721.617c.109-.229.311-.464.311-.464s.242.273.205.538c-.037.264-.375.66-.375.66s-.5.145-.758.07c-.258-.074-.411-.406-.411-.406"/><path fill="#83bf4f" d="m34.875 24.14c0 0 .344-.007.598.064l-.008-.015c-.117-.361-.027-.953-.027-.953s.418.424.535.782c.166-.193.422-.369.422-.369s.162.326.057.572c-.105.247-.533.541-.533.541s-.52.012-.75-.126c-.233-.138-.294-.496-.294-.496"/><path fill="#699635" d="m35.14 24.995c0 0 .334.082.559.217v-.016c-.021-.379.219-.929.219-.929s.295.517.314.894c.211-.144.502-.249.502-.249s.072.356-.094.567c-.164.211-.654.386-.654.386s-.506-.123-.693-.316c-.186-.191-.153-.554-.153-.554"/><path fill="#83bf4f" d="m35.17 25.889c0 0 .299.165.482.354l.002-.017c.08-.371.455-.838.455-.838s.148.573.072.943c.238-.085.549-.111.549-.111s-.023.363-.24.525c-.215.161-.732.204-.732.204s-.457-.249-.588-.482c-.129-.237 0-.578 0-.578"/><path fill="#699635" d="m34.963 26.76c0 0 .246.237.373.465l.008-.014c.174-.338.658-.694.658-.694s-.008.592-.178.931c.254-.021.559.032.559.032s-.117.345-.365.446c-.25.101-.764.008-.764.008s-.375-.358-.439-.618.148-.556.148-.556"/><path fill="#83bf4f" d="m34.539 27.549c0 0 .174.292.24.546l.01-.012c.256-.283.814-.501.814-.501s-.16.571-.412.854c.25.044.531.175.531.175s-.201.303-.469.337c-.27.033-.74-.188-.74-.188s-.27-.443-.264-.71.29-.501.29-.501"/><path fill="#699635" d="m33.922 28.2c0 0 .094.327.09.588l.014-.009c.32-.207.92-.275.92-.275s-.305.51-.621.718c.229.109.467.306.467.306s-.275.241-.543.203c-.266-.036-.664-.37-.664-.37s-.146-.496-.07-.754c.073-.256.407-.407.407-.407"/><path fill="#83bf4f" d="m33.16 28.675c0 0 .006.341-.066.591l.016-.004c.363-.117.959-.029.959-.029s-.428.415-.787.535c.193.164.371.415.371.415s-.328.161-.576.058c-.248-.104-.544-.529-.544-.529s-.012-.516.128-.746c.138-.23.499-.291.499-.291"/><path fill="#594640" d="m35.31 25.648c-1.035 0-2.207 1.182-3.309 1.182-1.103 0-2.273-1.182-3.308-1.182-1.032 0-4.961 1.182-4.961 1.182 5.514 0 8.27 2.953 8.27 2.953s2.756-2.953 8.27-2.953c-.001 0-3.931-1.182-4.962-1.182"/><circle fill="#fff" cx="32" cy="26.336" r=".689"/><path fill="#ffe000" d="m27.22 32.2l.596.493.28-.564.053-.346c-.042-.991-.02-1.965-.02-1.965l.175.128c-.194-.164-.425-.356-.67-.561l-.394-.324c0 0-.008 2.085-.02 3.139"/><path fill="#699635" d="m28.15 31.781l.592-1.471-.612-.494c0 0-.022.975.02 1.965"/><path fill="#d52b1e" d="m27.24 29.06l.394.324c-.718-.601-1.558-1.305-1.984-1.666-.08-.067-.098 1.436-.089 3.11l1.658 1.371c.013-1.055.021-3.139.021-3.139"/><path fill="#ffe000" d="m36.777 32.2l-.596.493-.281-.565-.053-.346c.043-.991.021-1.965.021-1.965l-.176.128c.193-.164.426-.356.67-.561l.395-.324c.001.001.007 2.086.02 3.14"/><path fill="#699635" d="m35.848 31.781l-.592-1.471.613-.494c0 0 .022.975-.021 1.965"/><g fill="#d52b1e"><path d="m36.756 29.06l-.393.324c.717-.601 1.557-1.305 1.982-1.666.08-.067.098 1.436.09 3.11l-1.658 1.371c-.013-1.055-.021-3.139-.021-3.139"/><path d="m27.763 38.04c-1.333-.702-1.551-2.845-1.531-3.138.021-.291.032-3.714.032-3.714l.395.325c-.718-.601-1.558-1.306-1.984-1.667-.137-.116-.039 4.483-.039 6.526 0 .957.715 4.335 4.905 2.635 0 0 2.094-.629 2.706-1.386-.143 0-.283-.008-.423-.022l-.203.08c-2.417 1.362-3.858.36-3.858.361"/></g><path fill="#ffe000" d="m26.23 34.9c-.021.293.197 2.436 1.531 3.137 0 0 1.442 1 3.858-.359-.73.252-1.327.306-1.717.209-1.169-.289-2.405-1.417-2.602-2.559-.198-1.143-.149-3.385-.149-3.385l.176.128c-.195-.163-.425-.355-.67-.56l-.395-.325c.001.001-.011 3.423-.032 3.714"/><path fill="#699635" d="m27.943 33.423c-.011-.104-.02-.472-.021-.873-.275-.231.053.052-.589-.485l-.179-.153v.073c-.005.311-.033 2.293.148 3.344.198 1.143 1.399 2.27 2.568 2.559.391.097 1.021.043 1.751-.209l.15-.086c-2.114-.253-3.572-1.9-3.828-4.17"/><path fill="#d52b1e" d="m36.24 38.12c1.334-.702 1.551-2.846 1.531-3.137-.021-.293-.033-3.715-.033-3.715l-.393.324c.717-.601 1.557-1.306 1.982-1.667.137-.115.039 4.483.039 6.526 0 .957-.715 4.336-4.906 2.635 0 0-2.093-.627-2.705-1.385.143 0 .284-.008.423-.023l.204.081c2.419 1.362 3.858.361 3.858.361"/><path fill="#ffe000" d="m37.768 34.979c.02.291-.197 2.435-1.531 3.137 0 0-1.441 1-3.858-.36.731.251 1.327.306 1.717.208 1.17-.289 2.404-1.416 2.602-2.559.197-1.142.148-3.384.148-3.384l-.176.128c.195-.164.426-.355.67-.56l.395-.324c-.001-.001.011 3.421.033 3.714"/><path fill="#699635" d="m36.06 33.5c.012-.104.02-.472.021-.874.275-.23-.053.052.59-.484l.178-.153v.073c.006.31.033 2.292-.146 3.342-.199 1.143-1.4 2.271-2.568 2.559-.391.098-1.021.044-1.752-.208l-.149-.086c2.111-.251 3.57-1.899 3.826-4.169"/><ellipse fill="#00a6de" cx="31.999" cy="33.28" rx="4.235" ry="4.907"/><path fill="#e8a30e" d="m35.457 33.435c0 2.265-6.915 2.265-6.915 0 0-2.264 1.548-4.099 3.458-4.099s3.457 1.834 3.457 4.099"/><ellipse fill="#d52b1e" cx="31.911" cy="31.632" rx="1.667" ry="1.429"/><path fill="#699635" d="m31.818 31.29c-1.039.023-3.276 2.19-3.276 2.19 0 2.105 1.548 3.813 3.458 3.813 1.91 0 3.457-1.707 3.457-3.813 0 0-2.527-2.214-3.639-2.19"/><path fill="#e8a30e" d="m32.33 35.02h.851v1.444h-.851z"/><path fill="#fff" d="m33.578 33.428h.457v2.772h-.457z"/></svg>