<svg xmlns="http://www.w3.org/2000/svg" viewBox="0 0 64 64" enable-background="new 0 0 64 64"><path fill="#3e4347" d="M2,32c0,16.568,13.432,30,30,30s30-13.432,30-30c0-3.508-0.607-6.871-1.714-10H3.714
			C2.608,25.129,2,28.492,2,32z"/><path fill="#2a5f9e" d="M32,2C18.939,2,7.833,10.35,3.714,22h56.572C56.167,10.35,45.062,2,32,2z"/><g fill="#ffce31"><path d="m30.898 5.164c-.961 1.585-1.076 2.854-.42 5.04.316 1.021.663 2.547.809 3.374.194 1.168.174 1.278.201 1.532.243 0 .795.002 1.05 0 .038-.404.067-.871.153-1.513.101-.748.398-2.313.719-3.399.641-2.172.599-3.504-.397-5.01-.365-.56-.851-1.022-1.069-1.022-.219.001-.715.428-1.046.998m4.721 4.485c-1.361.583-2.18 2.2-2.626 4.427-.083.418-.103.566-.145 1.038.295.001.411.003.697.001.063-.316.108-.484.246-.935.55-1.741 2.168-2.439 2.094-.81-.023.45-.213.701-.424.942.26-.065.814-.323 1.264-.579 2.504-1.506 1.518-5.203-1.106-4.084m-5.56 6.03c1.099.006 2.997.014 3.908.009.001-.234.004-.114.007-.304-.672-.006-3.241.004-3.909.004 0 .122-.002.181-.006.291m.323 1.287c-.396.428-1.015.747-1.015.747s.548.062 1.058.024.793-.102 1.095-.248c-.082.609-.087 1.197-.087 1.197.075.783.158.982.328 1.365.23.316.364.318.533-.018.183-.375.304-.762.342-1.352-.014-.441-.038-.645-.143-1.186.353.153.576.193 1.103.24.538.049 1.034.025 1.034.025s-.729-.366-1.049-.814c-.315-.443-.248-.367-.479-.938-.279-.014-1.696-.001-2.146-.001-.245.523-.27.631-.574.959m-2-7.321c1.36.584 2.179 2.2 2.626 4.428.082.418.103.565.144 1.037-.294.001-.41.003-.697.001-.063-.317-.108-.484-.246-.935-.55-1.74-2.167-2.439-2.094-.81.024.45.214.701.425.942-.261-.064-.815-.324-1.265-.579-2.504-1.507-1.517-5.203 1.107-4.084"/><path d="m13.568 13.581c.194 1.168.174 1.278.201 1.532.243 0 .795.002 1.05 0 .038-.404.067-.871.153-1.513.101-.748.398-2.313.719-3.399.43-1.457.543-2.533.276-3.541-1.214.77-2.372 1.619-3.459 2.551.065.313.144.639.251.996.317 1.022.664 2.547.809 3.374"/><path d="m16.248 15.69c.001-.234.004-.114.007-.304-.672-.006-3.241.004-3.909.004.001.122-.002.182-.006.291 1.098.007 2.997.014 3.908.009"/><path d="m9.556 13.733c.449.255 1 .515 1.265.579-.211-.241-.4-.492-.425-.942-.073-1.63 1.544-.931 2.094.81.138.45.184.617.246.935.287.002.403 0 .697-.001-.041-.472-.062-.619-.144-1.037-.353-1.754-.939-3.119-1.834-3.909-.96.904-1.855 1.873-2.689 2.896.21.249.47.477.79.669"/><path d="m15.862 16.951c-.315-.443-.248-.367-.479-.938-.279-.014-1.696-.001-2.146-.001-.246.521-.271.628-.575.956-.396.428-1.015.747-1.015.747s.548.062 1.058.024.793-.102 1.095-.248c-.082.609-.087 1.197-.087 1.197.075.783.158.982.328 1.365.23.316.364.318.533-.018.183-.375.304-.762.342-1.352-.014-.441-.038-.645-.143-1.186.353.153.576.193 1.103.24.538.049 1.034.025 1.034.025s-.727-.363-1.048-.811"/><path d="m17.9 9.649c-1.361.583-2.18 2.2-2.626 4.427-.083.418-.103.566-.145 1.038.295.001.411.003.697.001.063-.316.108-.484.246-.935.55-1.741 2.168-2.439 2.094-.81-.023.45-.213.701-.424.942.26-.065.814-.323 1.264-.579 2.504-1.506 1.518-5.203-1.106-4.084"/><path d="m48.17 15.11c.287.002.403 0 .697-.001-.041-.472-.062-.619-.144-1.037-.447-2.228-1.266-3.844-2.626-4.428-2.624-1.119-3.61 2.576-1.107 4.085.449.255 1 .515 1.265.579-.211-.241-.4-.492-.425-.942-.073-1.63 1.544-.931 2.094.81.137.45.183.617.246.934"/><path d="m48.2 10.207c.316 1.021.663 2.547.809 3.374.194 1.168.174 1.278.201 1.532.243 0 .795.002 1.05 0 .038-.404.067-.871.153-1.513.101-.748.398-2.313.719-3.399.114-.387.198-.738.268-1.077-1.079-.917-2.229-1.751-3.431-2.509-.296 1.031-.217 2.096.231 3.592"/><path d="m51.3 16.951c-.315-.443-.248-.367-.479-.938-.279-.014-1.696-.001-2.146-.001-.246.521-.271.628-.575.956-.396.428-1.015.747-1.015.747s.548.062 1.058.024.793-.102 1.095-.248c-.082.609-.087 1.197-.087 1.197.075.783.158.982.328 1.365.23.316.364.318.533-.018.183-.375.304-.762.342-1.352-.014-.441-.038-.645-.143-1.186.353.153.576.193 1.103.24.538.049 1.034.025 1.034.025s-.728-.363-1.048-.811"/><path d="m47.777 15.682c1.099.006 2.997.014 3.908.009.001-.234.004-.114.007-.304-.672-.006-3.241.004-3.909.004.001.122-.002.181-.006.291"/><path d="m50.712 14.08c-.083.418-.103.566-.145 1.038.295.001.411.003.697.001.063-.316.108-.484.246-.935.55-1.741 2.168-2.439 2.094-.81-.023.45-.213.701-.424.942.26-.065.814-.323 1.264-.579.32-.193.581-.422.791-.672-.834-1.021-1.729-1.991-2.689-2.895-.896.791-1.483 2.156-1.834 3.91"/></g><g fill="#83bf4f"><path d="m53.822 50.824l-.185.646-15.852-6.849.186-.641z"/><path d="m54.31 49.15l-.19.643-16.11-5.932.18-.641z"/><path d="m54.738 47.669l-.188.641-16.33-5.18.18-.64z"/><path transform="matrix(.2789-.9603.9603.2789-8.686 76.839)" d="m46.49 35.638h.672v17.13h-.672z"/><path d="m55.624 44.609l-.184.651-16.661-4.07.188-.647z"/><path d="m14.348 28.12l.399-.537 12.413 11.997-.395.53z"/><path d="m12.02 28.709l.397-.539 12.987 11.24-.404.537z"/><path d="m9.621 28.17l.399-.54 13.461 10.61-.401.535z"/><path transform="matrix(-.5981.8014-.8014-.5981 53.696 42.25)" d="m15.919 26.02h.673v17.13h-.673z"/><path d="m6.382 29.541l.403-.541 14.15 9.684-.404.546z"/><path d="m6.263 32.34l.063-.665 16.844 3.781-.06.664z"/><path d="m4.863 33.586l.064-.668 16.937 2.835-.062.669z"/><path d="m6.987 35.35l.063-.668 17.01 2.053-.061.665z"/><path transform="matrix(-.0943.9955-.9955-.0943 51.49 27.03)" d="m13.11 28.373h.673v17.13h-.673z"/><path d="m7.817 38.676l.066-.666 17.12.898-.06.67z"/></g><path fill="#ffce31" d="m33.27 50.629l.674.48c.967.676 1.499 1.611 1.446 2.58l-.036.799.317-.787c.348-.821.299-2.067-.111-2.988l-.239-.54.76.331c1.086.46 1.802 1.266 1.949 2.224l.132.788.146-.835c.169-.878-.136-2.086-.729-2.9l-.346-.478.811.165c1.158.222 2.024.862 2.368 1.769l.292.744-.029-.849c-.017-.892-.565-2.01-1.315-2.685l-.437-.395.829-.007c1.178-.024 2.157.421 2.684 1.235l.44.668-.207-.823c-.201-.87-.97-1.849-1.844-2.354l-.509-.295.809-.178c1.147-.269 2.198-.036 2.882.649l.568.562-.371-.762c-.379-.81-1.334-1.607-2.293-1.918l-.559-.184.754-.342c1.066-.502 2.142-.494 2.953.035l.674.43-.523-.668c-.537-.711-1.638-1.292-2.64-1.398l-.585-.061.666-.494c.938-.712 1.994-.928 2.896-.579l.748.281-.648-.546c-.675-.584-1.872-.924-2.875-.817l-.585.061.55-.621c.771-.891 1.756-1.323 2.713-1.169l.789.119-.747-.398c-.781-.432-2.02-.514-2.982-.202l-.559.181.409-.721c.568-1.033 1.443-1.661 2.41-1.709l.797-.048-.814-.233c-.854-.26-2.084-.082-2.957.422l-.511.295.25-.791c.343-1.129 1.067-1.924 2-2.174l.77-.213-.845-.059c-.889-.076-2.057.354-2.806 1.029l-.437.394.078-.825c.101-1.176.646-2.105 1.51-2.544l.707-.368-.838.118c-.885.11-1.938.774-2.53 1.591l-.347.477-.093-.824c-.146-1.17.193-2.193.946-2.802l.616-.508-.795.29c-.843.292-1.733 1.16-2.146 2.083l-.238.538-.262-.787c-.388-1.113-.268-2.186.344-2.936l.498-.626-.719.448c-.764.461-1.455 1.497-1.665 2.484l-.122.576-.42-.715c-.61-1.01-.714-2.082-.273-2.943l.356-.717-.609.59c-.65.609-1.112 1.767-1.112 2.775v.59l-.56-.613c-.806-.859-1.131-1.887-.879-2.822l.201-.773-.474.703c-.511.73-.723 1.959-.513 2.946l.121.575-.673-.481c-.967-.674-1.498-1.611-1.446-2.579l.036-.798-.317.786c-.348.821-.3 2.067.109 2.988l.24.539-.76-.332c-1.085-.457-1.801-1.264-1.949-2.221l-.132-.789-.146.836c-.169.877.137 2.084.729 2.9l.345.477-.811-.166c-1.156-.223-2.024-.861-2.368-1.768l-.292-.744.028.848c.018.893.567 2.01 1.316 2.687l.437.394-.828.006c-1.178.024-2.157-.42-2.683-1.234l-.44-.668.205.824c.201.869.973 1.848 1.845 2.353l.509.294-.809.179c-1.147.269-2.198.037-2.882-.649l-.569-.561.371.762c.379.809 1.335 1.605 2.294 1.918l.56.182-.754.344c-1.067.501-2.145.494-2.954-.036l-.673-.43.521.668c.537.712 1.638 1.294 2.641 1.398l.585.062-.667.493c-.939.712-1.993.929-2.896.579l-.748-.281.649.546c.674.584 1.87.925 2.873.819l.585-.063-.549.621c-.771.893-1.758 1.324-2.713 1.17l-.789-.118.747.397c.781.432 2.023.514 2.982.202l.559-.183-.408.723c-.569 1.031-1.445 1.66-2.411 1.709l-.798.047.816.234c.853.26 2.083.082 2.956-.422l.51-.295-.25.791c-.341 1.128-1.066 1.924-2 2.174l-.77.211.845.061c.89.076 2.056-.354 2.805-1.029l.438-.395-.08.826c-.101 1.174-.645 2.104-1.508 2.543l-.708.368.837-.119c.885-.11 1.939-.774 2.531-1.591l.347-.475.092.824c.146 1.17-.192 2.191-.946 2.8l-.616.51.795-.29c.844-.293 1.735-1.162 2.146-2.084l.239-.538.262.787c.387 1.114.267 2.184-.344 2.937l-.499.626.72-.45c.764-.461 1.455-1.497 1.664-2.484l.123-.574.419.714c.61 1.01.715 2.082.274 2.944l-.357.715.609-.588c.651-.61 1.113-1.768 1.113-2.777v-.589l.56.612c.806.861 1.131 1.888.878 2.824l-.199.773.474-.704c.51-.73.721-1.959.513-2.946l-.12-.575"/></svg>