<svg xmlns="http://www.w3.org/2000/svg" viewBox="0 0 64 64" enable-background="new 0 0 64 64"><g fill="#fff"><path d="m10.764 26h50.611c-.899-4.434-2.777-8.512-5.398-12h-45.21v12"/><path d="m10.764 38v12h45.21c2.621-3.488 4.499-7.566 5.398-12h-50.611"/></g><g fill="#ed4c5c"><path d="m61.38 26h-50.611v12h50.611c.394-1.939.602-3.945.602-6 0-2.054-.208-4.06-.602-6"/><path d="m10.764 14h45.21c-5.473-7.286-14.186-12-24-12-8.289 0-15.783 3.371-21.21 8.806v3.194"/><path d="m10.764 50v3.193c5.43 5.436 12.924 8.807 21.21 8.807 9.814 0 18.527-4.715 24-12h-45.21"/></g><path fill="#428bc1" d="m10.764 10.791c-5.43 5.429-8.787 12.929-8.787 21.21 0 8.284 3.357 15.784 8.787 21.21l21.21-21.21-21.21-21.21"/><path fill="#fff" d="m9.961 38l4.02-2.81 4.01 2.81-1.514-4.574 3.999-2.923h-4.956l-1.543-4.503-1.501 4.503h-5l3.998 2.923z"/></svg>