<svg xmlns="http://www.w3.org/2000/svg" viewBox="0 0 64 64" enable-background="new 0 0 64 64"><path fill="#42ade2" d="m0 0h64v64h-64z"/><path fill="#3e4347" d="m48 45.738c3.25 0 16 0 16 0v18.262h-20v-14.262c0-2.201 1.8-4 4-4"/><g fill="#d0d0d0"><path d="m60.8 49h.4c.439 0 .8.436.8.967v14.03h-2v-14.03c0-.531.36-.967.8-.967"/><path d="m55.8 49h.4c.439 0 .8.436.8.967v14.03h-2v-14.03c0-.531.36-.967.8-.967"/></g><g fill="#3e4347"><path d="m51.31 42.994h11.02v2.864h-11.02z"/><path d="m0 43.11h13.14v-5.222l-13.14 3z"/></g><path fill="#ffdd7d" d="m57.716 1.623c0 0 .523 6.943-3.33 11.08-3.857 4.136-10.636 3.895-10.636 3.895 4.183 3.604 10.698 3.174 14.554-.96 3.86-4.136 3.593-10.408-.588-14.01"/><path fill="#6adbc6" d="M10.556 14.334 8.89 11 7.222 14.334 3.89 16 7.222 17.666 8.89 21 10.556 17.666 13.89 16z"/><path transform="matrix(-.7071.7071-.7071-.7071 26.489 21.03)" fill="#fff" d="m7.122 14.232h3.536v3.536h-3.536z"/><path fill="#6adbc6" d="m34.25 8.666l-1.667-3.334-1.668 3.334-3.332 1.666 3.332 1.666 1.668 3.334 1.667-3.334 3.333-1.666z"/><path transform="matrix(-.7071.7071-.7071-.7071 62.929-5.402)" fill="#fff" d="m30.815 8.564h3.536v3.536h-3.536z"/><path fill="#6adbc6" d="M56.666 25.751 55 22.417 53.33 25.751 50 27.417 53.33 29.08 55 32.417 56.666 29.08 60 27.417z"/><path transform="matrix(-.7071.7071-.7071-.7071 113.28 7.913)" fill="#fff" d="m53.23 25.649h3.536v3.536h-3.536z"/><path fill="#3e4347" d="m0 43h13v21h-13z"/><g fill="#ed4c5c"><path d="m9.5 51c0 .549-.45 1-1 1h-3c-.55 0-1-.451-1-1v-2c0-.551.45-1 1-1h3c.55 0 1 .449 1 1v2"/><path d="m9.5 59c0 .549-.45 1-1 1h-3c-.55 0-1-.451-1-1v-2c0-.551.45-1 1-1h3c.55 0 1 .449 1 1v2"/></g><path fill="#121314" d="m23 19l-10 11.32v33.68h20v-33.68z"/><g fill="#ffdd7d"><path d="m30 43c0 .549-.45 1-1 1h-12c-.55 0-1-.451-1-1v-2c0-.551.45-1 1-1h12c.55 0 1 .449 1 1v2"/><path d="m30 59c0 .549-.45 1-1 1h-12c-.55 0-1-.451-1-1v-2c0-.551.45-1 1-1h12c.55 0 1 .449 1 1v2"/><path d="m30 35c0 .549-.45 1-1 1h-12c-.55 0-1-.451-1-1v-2c0-.551.45-1 1-1h12c.55 0 1 .449 1 1v2"/></g><path fill="#121314" d="m50 38v-4l-6-2v-11h-2v11l-6 2v4h-3v26h20v-26z"/><g fill="#6adbc6"><path d="m41.5 45c0 .549-.45 1-1 1h-3c-.55 0-1-.451-1-1v-2c0-.551.45-1 1-1h3c.55 0 1 .449 1 1v2"/><path d="m49.5 53c0 .549-.45 1-1 1h-3c-.55 0-1-.451-1-1v-2c0-.551.45-1 1-1h3c.55 0 1 .449 1 1v2"/><path d="m41.5 61c0 .549-.45 1-1 1h-3c-.55 0-1-.451-1-1v-2c0-.551.45-1 1-1h3c.55 0 1 .449 1 1v2"/><path d="m49.5 61c0 .549-.45 1-1 1h-3c-.55 0-1-.451-1-1v-2c0-.551.45-1 1-1h3c.55 0 1 .449 1 1v2"/></g><path fill="#ffdd7d" d="m30 51c0 .549-.45 1-1 1h-12c-.55 0-1-.451-1-1v-2c0-.551.45-1 1-1h12c.55 0 1 .449 1 1v2"/></svg>