<svg xmlns="http://www.w3.org/2000/svg" viewBox="0 0 64 64" enable-background="new 0 0 64 64"><path fill="#44618b" d="m33.22 15.185l18.31-3.934.99 5.264-18.822 2.605z"/><path fill="#86d0bf" d="m52.26 9.334l-.002-.015 2.109-.349c.494-.082.956.246 1.032.734.008.056-.005.107-.009.161 1.66-.088 3.815.281 4.196 3.318.064.513.422 3.355-2.909 3.814-4.907.666-4.907.666-5.395-3.196l-.325-2.601c-.111-.872.465-1.673 1.303-1.866"/><path fill="#44618b" d="m54.849 10.07c-.174.229-.299.392-.547.511-.228.119-.483.158-.735.196-.417.065-.834.132-1.252.201-.317.051-.24.552.079.5.429-.07.856-.136 1.281-.203.296-.048.592-.107.859-.246.305-.154.517-.397.72-.663.197-.255-.207-.551-.405-.296"/><path fill="#b6ef00" d="m62 56.37c0 7.099-9.275 7.1-9.275 0v-36.99c0-7.099 9.275-7.099 9.275.001v36.989"/><path fill="#3e4347" d="m55.863 36.669l.016-6.282-8.09.019-2.121-2.769-8.136 12.51v-.037l2.446 3.328c1.582 2.129 3.065 2.979 4.82 2.974 2.253-.006 10.207-.024 10.207-.024l.014-6.284-8.09.019-2.12-2.767-.704-.921c.498.172 1.01.262 1.547.261 2.253-.007 10.206-.027 10.206-.027"/><g fill="#86d0bf"><path d="m55.01 46.4c-.005 1.921 1.643 3.469 3.681 3.463h.018l.021-9.77-3.706.01-.014 6.296"/><path d="m55.01 36.624c-.003 1.921 1.645 3.469 3.683 3.465h.017l.02-9.77-3.704.009-.016 6.296"/></g><g fill="#44618b"><path d="m25.09 33.404l-11.693-4.598-2.209 4.86 11.674 4.604z"/><path d="m27.484 20.11l-6.633 11.785 2.01 6.375 9.488-16.15z"/></g><path fill="#86d0bf" d="m13.146 26.765l.005-.014-1.963-.862c-.46-.203-.986.001-1.176.455-.021.051-.02.105-.03.159-1.588-.498-3.768-.676-4.861 2.175-.185.481-1.209 3.149 1.912 4.422 4.601 1.864 4.601 1.864 5.994-1.76l.938-2.441c.315-.819-.052-1.738-.819-2.134"/><path fill="#44618b" d="m10.464 26.834c.113.266.197.454.409.631.192.171.431.274.667.374.389.167.777.335 1.165.505.297.129.103.595-.196.465-.397-.174-.798-.344-1.194-.514-.275-.121-.548-.252-.774-.453-.259-.224-.406-.513-.539-.821-.132-.296.33-.483.462-.187"/><path fill="#badede" d="M18.902 38.852 35.805 62 2 62z"/><path fill="#d6eef0" d="m18.902 38.852l4.796 6.568-4.796 6.563-4.792-6.563z"/><path fill="#badede" d="M35.411 45.16 47.706 62 23.12 62z"/><path fill="#d6eef0" d="m35.411 45.16l3.487 4.777-3.487 4.776-3.488-4.776z"/><path fill="#44618b" d="m47.706 27.406l-9.358 13.873-13.94-11.72c-.916-.938-1.09-2.125-.186-3.051l9.808-10.06c.901-.926 2.373-.917 3.287.021l10.389 10.937"/><path fill="#86d0bf" d="m45.07 31.31l-16.86 1.448-7.769-6.448 22.839-3.559 4.426 4.655z"/><path fill="#44618b" d="m32.927 24.26l-1.093 1.118 9.06 9.204 1.539-1.792z"/><path fill="#ffdd67" d="m17.886 26.845c-2.496-2.548.626-3.15.626-3.15-6.22-7.04-.894-5.244 3.378-9.604 4.275-4.364 2.516-9.799 9.417-3.453 0 0 .586-3.186 3.083-.636.955.974 1.383 2.133.268 3.441 3.356 4.456 1.637 7.837-2.043 11.593-3.678 3.754-6.986 5.505-11.355 2.081-1.282 1.139-2.418.703-3.374-.272"/><g fill="#594640"><path d="m25.609 24.2c1.123 1.146 3.448.691 5.157-1.053 1.708-1.743 2.154-4.118 1.032-5.264 0 0-1.546 1.781-2.996 3.26-1.448 1.48-3.193 3.057-3.193 3.057"/><path d="m28.861 14.896c.57.579 1.496.581 2.063.001.568-.581.568-1.527 0-2.108-.57-.583-1.493-.578-2.063.003-.567.579-.571 1.521 0 2.104"/><path d="m22.893 20.986c.569.581 1.494.584 2.065.002.567-.58.567-1.527-.002-2.107-.569-.583-1.494-.578-2.062.001-.569.582-.571 1.522-.001 2.104"/></g><path fill="#eba352" d="m27.6 18.996c.382.39.994.389 1.375 0 .381-.387.381-1.014 0-1.403l-1.375 1.403"/><path fill="#ffdc06" d="m18.04 3.427c1.837 1.886 1.857 4.925.041 6.787s-4.779 1.845-6.62-.042c-1.836-1.886-1.854-4.924-.04-6.789 1.816-1.86 4.781-1.843 6.619.044"/><path fill="#44618b" d="m31.19 6.801c4.542 4.634-3.02 4.43-7.563 9.06-4.542 4.635-4.341 12.354-8.882 7.719-4.542-4.635-4.542-12.15-.001-16.785 4.543-4.635 11.905-4.635 16.446.001"/><g fill="#86d0bf"><path d="m14.828 23.663c1-3.618 3.082-7.305 6.184-10.47 3.102-3.166 6.715-5.291 10.258-6.311-.026-.027-.047-.053-.074-.079-.957-.978-2.042-1.736-3.198-2.302-3.311 1.093-6.645 3.141-9.534 6.09-2.891 2.95-4.896 6.353-5.967 9.732.555 1.178 1.298 2.287 2.256 3.264.024.027.048.049.075.076"/><path d="m52.04 30.32h3.843v6.705h-3.843z"/><path d="m52.04 40.09h3.843v6.705h-3.843z"/></g><g fill="#44618b"><ellipse cx="54.81" cy="32.15" rx=".859" ry=".875"/><ellipse cx="54.81" cy="41.923" rx=".859" ry=".876"/><path d="m58.12 30.32h.606v19.533h-.606z"/><path d="m55.13 37.532l-.749-.394c0 0-.346-1.062.321-2.039l.913.219c-.687 1.148-.485 2.214-.485 2.214"/><path d="m55.8 38.779l-.792-.804c0 0-.192-.972.475-1.949l.913.219c-.688 1.148-.596 2.534-.596 2.534"/><path d="m55.13 47.39l-.749-.394c0 0-.346-1.062.321-2.041l.913.221c-.687 1.147-.485 2.214-.485 2.214"/><path d="m55.8 48.634l-.792-.803c0 0-.192-.972.475-1.95l.913.22c-.688 1.147-.596 2.533-.596 2.533"/></g></svg>