<svg xmlns="http://www.w3.org/2000/svg" viewBox="0 0 64 64" enable-background="new 0 0 64 64"><path fill="#3e4347" d="m23.345 36.924c-5.492-.373-12.11-1.699-18.502-3.168-1.888-.404-4.066 9.428-2.01 10.08 12.804 4.045 26.298 2.992 31.29 2.201 1.752-.273 3.145-2.41 3.157-2.434l7.971-13.412-4.638-2.85c-7.124 8.438-13.749 9.831-17.268 9.587"/><path fill="#ed4c5c" d="M56.473,2c0,0-14.149,23.311-15.86,25.338l4.638,2.85L62,2H56.473z"/><g fill="#3e4347"><ellipse cx="48.743" cy="57.02" rx="13.257" ry="4.98"/><ellipse cx="48.743" cy="51.08" rx="13.257" ry="4.979"/><path d="m35.485 51.08h26.515v5.943h-26.515z"/></g><ellipse opacity=".5" fill="#b2c1c0" cx="48.743" cy="51.08" rx="13.257" ry="4.979"/><path fill="#3e4347" d="m56.47 2h5.527"/><path fill="#e8e8e8" d="m9.131 34.609l-1.597 10.86c8.458 1.854 16.721 1.711 22.17 1.195l1.767-12c-3.344 1.799-6.178 2.199-8.09 2.086-4.283-.248-9.249-1.096-14.255-2.139"/><g fill="#b2c1c0"><path d="m9.239 45.807c.496.094.992.184 1.486.264l2.782-10.604c-.493-.094-.985-.182-1.483-.277l-2.785 10.617"/><path d="m24.15 46.98c.537-.014 1.068-.023 1.58-.049l3.618-11.293c-.608.242-1.198.449-1.757.602l-3.441 10.74"/><path d="m16.12 46.732c.51.045 1.015.084 1.516.111l.77-10.6c-.501-.068-1-.135-1.509-.209l-.777 10.698"/><path d="m22.14 36.65l-2.27 10.301c.518.02 1.035.039 1.539.045l2.256-10.242c-.092-.004-.193 0-.281-.006-.405-.023-.828-.06-1.244-.098"/></g></svg>