<svg xmlns="http://www.w3.org/2000/svg" viewBox="0 0 64 64" enable-background="new 0 0 64 64"><g fill="#555c60"><path d="m38.494 32.826c9.406-3.346 21.662 2.668 21.662 2.668s-5.436 12.307-14.838 15.65c-9.406 3.346-17.336 1.523-19.221-3.535-1.882-5.058 2.995-11.437 12.397-14.783"/><path d="m40.44 39.979c-1.086.441-7.582 3.145-9.318 4.49-5.213 4.045.494 14.04 1 16.08-.131-2.105-1.463-11.4-.127-12.789 1.922-2 10.465-4.1 10.465-4.1l-2.02-3.681"/><path d="m21.252 40.41c-.67.398-4.65 2.814-5.486 3.766-2.504 2.857 5.541 6.787 6.68 7.701-.875-1.01-5.311-5.332-4.799-6.236.734-1.305 6.506-3.768 6.506-3.768l-2.901-1.463"/><path d="m47.19 38.14c-1.084.443-7.582 3.145-9.318 4.492-5.213 4.045.496 14.04 1 16.08-.131-2.105-1.461-11.398-.127-12.787 1.924-2 10.465-4.1 10.465-4.1l-2.02-3.683"/><ellipse cx="22.618" cy="37.17" rx="8.47" ry="8.277"/></g><path fill="#6c767a" d="m43.631 43.3c0 0 3.967 4.523 14.623 1.154 2.477-.783-7.633 13.13-9.201 15.576 1.975-2.137 16.846-15.16 11.973-18.719-3.072-2.238-11.488.076-12.5-1.152l-4.895 3.141"/><path fill="#555c60" d="m43.18 43.04c0 0 5.439 3.141 14.08 1.023 2.521-.619-6.641 13.51-8.209 15.961 1.975-2.137 15.564-14.742 10.691-18.301-3.07-2.24-10.623-.92-11.635-2.148l-4.927 3.465"/><path fill="#6c767a" d="m36.863 45.27c0 0 3.969 4.521 14.623 1.154 2.477-.785-7.631 13.13-9.199 15.576 1.975-2.137 16.848-15.16 11.971-18.721-3.07-2.236-11.486.076-12.498-1.152l-4.897 3.143"/><g fill="#555c60"><path d="m36.416 45.01c0 0 5.439 3.143 14.08 1.025 2.521-.619-6.641 13.51-8.209 15.961 1.975-2.137 15.566-14.742 10.691-18.303-3.07-2.24-10.623-.92-11.635-2.148l-4.927 3.465"/><path d="m15.566 13.893c-1.652-1.971-2.955-4.227-4.584-6.119-.802-.946-1.681-1.819-2.642-2.415-.965-.603-1.971-.853-2.91-.705-.746.119-1.447-.375-1.57-1.104s.384-1.415 1.13-1.532c.082-.014.162-.018.242-.018l.104.004c1.668.037 3.203.816 4.254 1.785 1.082.973 1.846 2.1 2.514 3.229 1.334 2.269 2.187 4.658 3.462 6.875"/><path d="m17.369 13.893c1.275-2.217 2.127-4.605 3.463-6.875.668-1.129 1.43-2.256 2.508-3.229 1.053-.969 2.592-1.748 4.26-1.785l.095-.004c.754-.018 1.379.568 1.395 1.307.021.736-.578 1.348-1.332 1.365-.084.002-.172-.004-.252-.018-.941-.148-1.949.102-2.91.705-.963.596-1.842 1.469-2.646 2.414-1.628 1.893-2.929 4.149-4.581 6.12"/></g><g fill="#6c767a"><path d="m16.467 8.607c-7.07 0-12.805 5.604-12.805 12.514 0 8.184 12.852 16.689 12.848 16.688 0 .002 12.762-8.494 12.762-16.688-.001-6.91-5.735-12.514-12.805-12.514"/><ellipse cx="24.404" cy="20.93" rx="6.527" ry="6.379"/></g><ellipse fill="#fcfcfa" cx="24.404" cy="20.93" rx="5.658" ry="5.725"/><ellipse fill="#3e4347" cx="24.404" cy="20.93" rx="3.889" ry="3.938"/><ellipse fill="#6c767a" cx="8.528" cy="20.93" rx="6.528" ry="6.379"/><ellipse fill="#fcfcfa" cx="8.526" cy="20.93" rx="5.657" ry="5.725"/><path fill="#3e4347" d="m12.416 20.93c0 2.174-1.742 3.938-3.891 3.938-2.145 0-3.889-1.764-3.889-3.938 0-2.172 1.744-3.934 3.889-3.934 2.149 0 3.891 1.762 3.891 3.934"/><path fill="#6c767a" d="m29.844 35.721c1.016-.746 7.082-5.262 8.535-7.123 4.357-5.59-4.85-14.404-5.934-16.412.711 2.17 4.229 10.684 2.971 12.457-4.082 5.752-9.254 8.08-9.254 8.08l3.682 2.996"/><path fill="#555c60" d="m29.699 36.09c1.016-.744 6.199-5.299 7.65-7.16 4.359-5.588-3.82-14.732-4.904-16.74.711 2.17 4.115 11.719 3.096 13.521-1.471 2.6-9.842 7.01-9.842 7.01l4 3.367"/></svg>