<svg xmlns="http://www.w3.org/2000/svg" viewBox="0 0 64 64" enable-background="new 0 0 64 64"><g fill="#42ade2"><path d="m16.08 48.47c-.47-.096-.932-.231-1.388-.392-.452-.154-.896-.337-1.338-.541-.875-.406-1.718-.903-2.506-1.479-1.58-1.148-2.945-2.642-3.932-4.363-.987-1.723-1.576-3.666-1.71-5.608-.067-.974-.031-1.943.105-2.892.073-.474.165-.942.289-1.405.12-.46.264-.913.446-1.355l.126 1.403c.045.462.096.917.155 1.369.12.899.275 1.782.485 2.642.42 1.717 1.041 3.341 1.902 4.842.856 1.505 1.947 2.884 3.195 4.161.625.639 1.293 1.249 1.992 1.849.348.297.706.591 1.069.885l1.11.884"/><path d="m15.801 52.11c-.344.157-.695.275-1.054.376-.355.101-.725.179-1.094.238-.737.12-1.494.158-2.252.12-1.52-.075-3.053-.49-4.418-1.234-1.366-.741-2.555-1.804-3.413-3.059-.433-.624-.782-1.292-1.054-1.983-.128-.35-.242-.702-.332-1.062-.086-.356-.155-.718-.184-1.088.251.275.487.55.723.82.232.267.466.533.704.787.47.512.945.995 1.437 1.444.982.897 2.025 1.658 3.159 2.275 1.134.614 2.351 1.083 3.649 1.453.648.186 1.316.342 2 .487.344.073.691.14 1.049.21.351.069.71.135 1.077.216"/><path d="m38.35 3.518c.481.123.949.285 1.408.469.458.181.904.392 1.341.616.882.458 1.716 1 2.495 1.622 1.559 1.238 2.883 2.808 3.797 4.592.914 1.778 1.407 3.76 1.433 5.715.012.978-.081 1.948-.277 2.891-.102.474-.222.939-.375 1.393-.151.456-.326.901-.536 1.335l-.052-1.412c-.021-.466-.047-.928-.084-1.384-.067-.908-.179-1.801-.344-2.671-.331-1.746-.879-3.407-1.679-4.961-.794-1.555-1.831-2.995-3.042-4.346-.609-.675-1.26-1.324-1.945-1.962-.34-.32-.693-.633-1.052-.949l-1.088-.948"/><path d="m47.12 3.056c.354.099.696.229 1.034.378.334.145.658.314.979.499.635.37 1.225.808 1.772 1.307 1.091.997 1.975 2.249 2.518 3.638.554 1.388.756 2.903.587 4.354-.084.726-.253 1.431-.501 2.104-.126.334-.269.664-.438.981-.162.315-.349.624-.566.914-.012-.358-.008-.705-.01-1.047-.006-.344-.006-.681-.021-1.014-.021-.665-.063-1.313-.144-1.947-.155-1.266-.444-2.469-.898-3.62-.45-1.153-1.066-2.25-1.8-3.324-.369-.537-.767-1.066-1.19-1.6-.211-.264-.427-.529-.65-.797-.224-.27-.449-.541-.672-.826"/></g><g fill="#fed0ac"><path d="m10.01 17.956c-1.968.938-2.721 3.277-1.77 5.268l12.606 26.338 6.983-3.334-12.604-26.34c-.952-1.989-3.248-2.873-5.215-1.932"/><path d="m43.15 38.912l7.437-3.55-14.376-30.04c-.964-2.01-3.429-2.897-5.475-1.919l-.021.009c-2.045.978-2.904 3.448-1.911 5.521l14.346 29.982"/></g><path fill="#e0a372" d="m30.732 3.4l-.021.009c-.223.107-.425.237-.617.377 1.882-.517 3.93.373 4.788 2.167l14.376 30.04 1.324-.632-14.375-30.04c-.964-2.01-3.429-2.898-5.475-1.919"/><path fill="#fed0ac" d="m27.832 46.23l7.656-3.657-14.67-30.656c-1.025-2.141-3.567-3.061-5.679-2.053l-.012.006c-2.111 1.01-2.991 3.562-1.967 5.702l14.672 30.658"/><path fill="#e0a372" d="m15.14 9.862l-.012.006c-.224.108-.427.24-.624.381 1.947-.541 4.076.383 4.991 2.296l9.129 19.08 2.244 1.295-10.05-21c-1.025-2.141-3.567-3.061-5.678-2.053"/><path fill="#fed0ac" d="m34.3 40.08l7.661-3.658-14.672-30.656c-1.023-2.142-3.566-3.059-5.676-2.05l-.013.006c-2.111 1.01-2.995 3.561-1.972 5.702l14.672 30.656"/><g fill="#e0a372"><path d="m21.609 3.717l-.013.006c-.226.107-.43.238-.623.379 1.948-.542 4.073.383 4.99 2.297l10.321 21.566 2.242 1.293-11.241-23.491c-1.023-2.142-3.566-3.059-5.676-2.05"/><path d="m10.01 17.956c-.229.109-.436.238-.63.381 1.789-.464 3.678.426 4.519 2.183l7.493 15.66 2.246 1.29-8.411-17.582c-.954-1.989-3.25-2.873-5.217-1.932"/></g><path fill="#fed0ac" d="m60.761 15.03c-2.712-2.079-7.146.205-9.323 7.435-1.52 5.05-1.676 6.471-4.892 8l-1.767-3.688c0 0-28.366 13.7-27.3 15.934 0 0 3.432 10.578 9.181 15.515 8.565 7.351 28.652-.527 29.563-19.557.535-11.222 7.502-21.36 4.533-23.642"/><g fill="#e0a372"><path d="m60.761 15.03c-.516-.395-1.092-.628-1.702-.706.128.076.257.15.378.246 2.97 2.28-.083 7.624-1.821 12.394-1.4 3.839-2.551 7.722-2.366 11.506.804 16.494-15.817 24.425-25.838 21.45 9.796 4.146 28-3.745 27.16-20.988-.187-3.782.92-7.467 2.366-11.502 1.709-4.785 4.791-10.118 1.822-12.4"/><path d="m47.5 29.958c-6.171.681-15.346 9.556-8.921 19.296-4.673-9.763 3.01-16.424 7.881-18.749.584-.279 1.04-.547 1.04-.547"/></g></svg>