<svg xmlns="http://www.w3.org/2000/svg" viewBox="0 0 64 64" enable-background="new 0 0 64 64"><path fill="#594640" d="m5.563 29.703l2.728 4.983h47.42l2.064-5.323c0-19.08-4.439-27.17-25.552-27.361-21.332-.198-26.663 8.271-26.663 27.701"/><path fill="#ffe1bd" d="m55.808 29.377c-.165 1.102-.393 2.138-.703 2.723-.559 1.051-1.699 1.647-1.699 1.647s.307-2.129.197-5.11c-1.189-17.592-2.217-12.756-21.599-12.756-19.377 0-20.408-4.827-21.602 12.731-.111 2.995.195 5.135.195 5.135s-1.14-.597-1.699-1.647c-.311-.585-.536-1.621-.701-2.723-1.832-.48-4.195-.079-4.195 5.201 0 3.288 1.205 5.983 5.264 6.274 1.727 13.319 6.879 15.484 17.229 20.21 2.723 1.244 8.296 1.244 11.02 0 10.35-4.728 15.5-6.893 17.229-20.21 4.059-.291 5.262-2.986 5.262-6.274-.002-5.28-2.363-5.682-4.195-5.201"/><path fill="#574137" d="m42.44 48.533c0 3.415-4.571 6.281-10.212 6.281-5.639 0-10.209-2.866-10.209-6.281 0 0 5.429.305 10.212.305 4.778 0 10.209-.305 10.209-.305"/><path fill="#fff" d="m41.575 49.01c0 1.724-4.184 3.088-9.346 3.088-5.164 0-9.351-1.364-9.351-3.088 0 0 4.418.345 9.351.345 4.932-.001 9.346-.345 9.346-.345"/><path fill="#e6b796" d="m37.34 43.894c0 1.987-4.153 2.56-5.109 2.56-.953 0-5.104-.702-5.104-2.687.001 0 10.213-.861 10.213.127"/><path fill="#f5f5f5" d="m13.13 30.06c-.322 1.517-.708 5.321 6.475 5.188 7.443-.142 7.148.5 7.51-2.01.315-2.199-2.294-4.643-6.155-5.521s-7.369.176-7.83 2.347"/><ellipse fill="#664e27" cx="20.794" cy="31.18" rx="3.925" ry="3.888"/><path fill="#231f20" d="m22.09 31.18c0 .712-.584 1.288-1.299 1.288-.719 0-1.301-.575-1.301-1.288s.582-1.287 1.301-1.287c.715.001 1.299.575 1.299 1.287"/><path fill="#664e27" d="m12.994 31.538c-1.046-6.75 14.1-6.391 14.1.798-2.189-5.72-12.627-5.918-14.1-.798"/><path fill="#f5f5f5" d="m50.868 30.06c.322 1.517.708 5.321-6.475 5.188-7.443-.142-7.148.5-7.51-2.01-.315-2.199 2.294-4.643 6.155-5.521s7.369.176 7.83 2.347"/><ellipse fill="#664e27" cx="43.21" cy="31.18" rx="3.925" ry="3.888"/><ellipse fill="#231f20" cx="43.21" cy="31.18" rx="1.3" ry="1.288"/><path fill="#664e27" d="m51.01 31.538c1.046-6.75-14.1-6.391-14.1.798 2.189-5.72 12.626-5.918 14.1-.798"/></svg>