<svg xmlns="http://www.w3.org/2000/svg" viewBox="0 0 64 64" enable-background="new 0 0 64 64"><path fill="#ffe1bd" d="m2.131 42.22c-.926-6.793 3.287-17.744 5.251-32.465.352-2.636 14.03-5.406 20.39-5.406 1.65 0 3.02 7.47 2.609 10.07-.299 1.888-2.961 1.39-2.961 1.39-.9 2.509-3.561 1.534-3.561 1.534-.779 2.138-3.201 1.142-3.201 1.142-1 1.991-3.221 1.017-3.221 1.017-2 8.667 1.711 7.895 4.42 21.04 0 0 .76-.136 2.885-4.421 8.601-17.347 38.804-11.799 37.01 6.757-.4 4.146 3.953 10.897-12.285 15.969-12.885 4.02-28.729-3.692-28.729-3.692-5.402 1.66-15.88 1.551-16.189-2.443-.361-4.637-1.944-6.996-2.419-10.487"/><g fill="#e6b796"><path d="m61.753 42.869c.426-4.399-.906-7.96-3.26-10.648 1.426 2.385 2.146 5.285 1.818 8.685-.4 4.147 3.953 10.897-12.285 15.969-12.885 4.02-28.731-3.691-28.731-3.691-4.218 1.296-11.605 1.517-14.729-.355.411 3.877 10.827 3.96 16.17 2.318 0 0 15.845 7.716 28.729 3.692 16.239-5.072 11.886-11.823 12.286-15.97"/><path d="m16.263 19.379c-2.527 10.218 1.554 9.776 4.28 22.729l1.439-1.493c-1.998-12.953-5.445-11.392-4.602-21-.623-.019-1.117-.233-1.117-.233"/><path d="m29.22 48.49c8.312 3.105 20.812-.063 27.937-3.354-3.188 7.454-19.688 11.428-27.937 3.354"/><path d="m25.09 7.168c-.59-1.117-1.793-1.01-2.598-.667.102-1.167 3.053-2.066 2.598.667"/><path d="m31.17 11.492c-.251-2.199-1.01-4.376-2.349-6.158.714 1.866 1.072 3.857 1.078 5.854.002.896.211 4.091-1.377 3.674-.979-.256-1-1.094-1.282-1.956-.432-1.351-1.191-2.906-1.098-4.339-.373 1.405.072 3.094.236 4.518.095.828.71 3.065-.384 3.371-.603.172-1.302-.223-1.803-.513-.19-.111-.332-.926-.402-1.153-.43-1.399-1.202-3.01-1.103-4.476-.377 1.325-.011 2.92.108 4.277.074.84.53 2.665-.489 3.089-1.158.562-1.335-.802-1.549-1.515-.398-1.326-1.044-2.774-1.027-4.165-.403 1.692.07 3.675.149 5.409.04.862-1.903 1.64-2.628 1.099-1.136-.848-1.327-2.834-1.457-4.117.342.432.831.987 1.448.932-.527-.557-.751-1.515-1.103-2.191-.324-.557-.979-1.883-1.752-1.905.119.239.769 1.876.669 2.048-.313.543-.618 1.092-.968 1.611-.297.438-1.157 1.827-1.854 1.408-.752-.454-.996-1.708-1.223-2.476.059.974.029 2.522.999 3.106.919.555 1.965-.321 2.573-.945.209 2.04 1.066 4.699 3.618 4.528.538-.036 1.066-.206 1.554-.432.402-.187.856-.658 1.278-.531 1.068.321 2.218.115 2.983-.728.357-.393.261-.637.795-.505.568.127 1.156.153 1.721-.01.461-.122.876-.407 1.188-.763.18-.203.316-.433.424-.68.172-.395.368-.186.768-.201 2.592-.096 2.504-3.312 2.259-5.165"/><path d="m28.746 5.798c-.59-1.117-1.793-1.01-2.599-.668.103-1.166 3.053-2.067 2.599.668"/><path d="m22.18 8.68c-.59-1.117-1.793-1.01-2.599-.668.103-1.167 3.053-2.067 2.599.668"/><path d="m18.807 10.258c-.59-1.117-1.793-1.01-2.598-.668.102-1.167 3.052-2.067 2.598.668"/></g></svg>