<svg xmlns="http://www.w3.org/2000/svg" viewBox="0 0 64 64" enable-background="new 0 0 64 64"><path fill="#89664c" d="M24.894 39.03 24.894 51.36 0 64 0 47.47z"/><path fill="#b77e58" d="m24.894 39.03h39.11v12.331h-39.11z"/><path fill="#f2bc97" d="M24.894 51.36 0 64 53.47 64 64 51.36z"/><path fill="#d3976e" d="m35.412 47.47c0 0-.333 6.953-1.735 8.263-2.738 2.555-11.149 2.555-13.887 0-1.403-1.31-1.736-8.263-1.736-8.263h-18.05v16.527h53.47v-16.527h-18.05"/><path fill="#89664c" d="M64 51.36 53.47 64 53.47 47.47 64 39.03z"/><path fill="#5b7f38" d="M48.479,34l-5.615-2.203c0,0,2.723-10.172-4.635-20.131C31.457,2.5,22.957,0,22.957,0l-1.436,0.333
			c0,0,7.301,5.28,9.404,14.401c1.268,5.501,0.561,10.551,0.188,12.25l-4.801-1.901h-2.125l5.834,21.667h2.125L48.479,34z"/><path fill="#83bf4f" d="m21.521.333c0 0 5.02 4.849 8.03 13.714 2.467 7.276.438 13.25.438 13.25l-5.801-2.214 5.834 21.667 16.333-12.75-5.615-2.203c0 0 2.723-10.172-4.635-20.13-6.772-9.166-14.583-11.333-14.583-11.333"/></svg>