<svg xmlns="http://www.w3.org/2000/svg" viewBox="0 0 64 64" enable-background="new 0 0 64 64"><path fill="#ffdd67" d="m34.01 42.25l7.832 1.524 6.436-32.922c.432-2.207-.959-4.387-3.115-4.806l-.022-.003c-2.156-.42-4.264 1.078-4.707 3.35l-6.424 32.857"/><path fill="#eba352" d="m45.16 6.05l-.021-.004c-.235-.046-.469-.06-.7-.062 1.76.697 2.824 2.635 2.441 4.599l-6.436 32.923 1.395.271 6.436-32.922c.432-2.207-.959-4.386-3.115-4.805"/><path fill="#ffdd67" d="m26.04 43.34h9.427v-36.36c0-2.744-2.108-4.973-4.711-4.973-2.604 0-4.717 2.229-4.717 4.973v36.36"/><path fill="#eba352" d="m30.757 2c-.242 0-.479.037-.711.076 2.264.363 4 2.408 4 4.896v36.36h1.42v-36.36c.001-2.744-2.107-4.973-4.71-4.973"/><path fill="#ffdd67" d="m21.01 43.17l7.951-2.069-8.654-33.12c-.605-2.313-2.873-3.726-5.064-3.155l-.014.004c-2.193.57-3.479 2.908-2.875 5.222l8.656 33.12"/><path fill="#eba352" d="m15.242 4.826l-.014.004c-.232.061-.449.149-.66.248 1.955-.143 3.824 1.193 4.365 3.261l8.654 33.12 1.373-.356-8.654-33.12c-.605-2.313-2.873-3.725-5.064-3.155"/><path fill="#ffdd67" d="m4 13.403c-1.885.946-2.537 3.288-1.537 5.271l13.246 26.27 6.695-3.362-13.245-26.27c-1-1.983-3.274-2.857-5.159-1.91"/><path fill="#eba352" d="m4 13.403c-.221.11-.416.242-.602.385 1.729-.472 3.605.408 4.49 2.162l13.246 26.27 1.27-.639-13.245-26.27c-1-1.983-3.274-2.857-5.159-1.91"/><path fill="#ffdd67" d="m61.679 29.27c-1.561-3.066-6.59-2.914-11.717 2.711-3.582 3.93-4.344 5.154-7.936 5.15v-4.117c0 0-7.703-5.738-23.04-3.119 0 0-8.732 1.225-8.732 5.754 0 0-1.484 11.1 1.598 18.08 4.592 10.398 28.17 13.14 35.609-4.559 1.48-3.518 4.479-6.135 7.164-9.428 3.234-3.969 8.764-7.113 7.05-10.476"/><g fill="#eba352"><path d="m61.679 29.27c-.295-.582-.719-1.045-1.24-1.381.084.125.168.248.238.387 1.709 3.363-3.82 6.508-7.05 10.475-2.686 3.295-5.684 5.912-7.164 9.43-6.447 15.342-25.02 15.318-32.843 8.266 7.109 8.02 27.11 8.766 33.845-7.271 1.48-3.518 4.479-6.135 7.164-9.428 3.234-3.971 8.764-7.115 7.06-10.478"/><path d="m43.15 37.08c-6.53-2.402-18.05 2.01-16.451 13.65 0-10.898 9.897-13.602 15.328-13.602.652.001 1.123-.048 1.123-.048"/></g></svg>