<svg xmlns="http://www.w3.org/2000/svg" viewBox="0 0 64 64" enable-background="new 0 0 64 64"><g fill="#628441"><path d="m9.972 51.624c-.593-.107-1.582.4-2.265-.402-.678-.802-1.661-.121-1.886.609-.227.729-4.302.864-3.774 1.331.527.469 1.811 2.945 2.34 2.41s1.086-2.075 1.6-1.339.666 2.275-1.146 3.748c-1.811 1.473.906.602.527 2.342-.376 1.74 1.513 1.607 1.813 1.674.303.066 2.038-.937 2.341-1.605.303-.67 2.112-5.422 1.886-5.823-.225-.401-.83-1.406-1.583-1.204-.757.199 2.415-1.341.147-1.741"/><path d="m8.993 48.879c-.698.146-2.038.67-1.134 1.406.906.735 2.755-.938 3.567 0 .813.937 1.492-1.605 1.793-1 .301.603 2.415.074 3.926-.431 1.511-.507 3.094-1.646 4.606-1.243 1.51.402 2.716.795 1.886 1.401-.831.606-1.435 2.01-.756 2.213.68.201 1.662 1.741 2.568 1.405.906-.335 2.038-3.279 3.396-3.212 1.358.066.38-1.405-.527-1.538-.906-.136 1.132-2.545 1.661-1.407.527 1.138 3.473 2.01 4.15 1.606.681-.401 1.511-1.947 2.494-1.91.979.036-1.511 2.779 0 2.044 1.508-.736 1.432-3.346 2.642-2.543 1.208.803 1.509-2.409 1.659-1.07.152 1.337-.907 2.409 0 2.073.907-.334 3.02-2.542 2.567-3.881-.454-1.338-.754-3.414.681-4.15 1.434-.735-.455-5.822.905-5.822 1.358 0 1.358.619 1.435-.829.075-1.447.604-2.115 1.659-3.253 1.058-1.139-1.811-4.753-2.187-5.354-.379-.603.828-2.61-.606-3.278 0 0-1.357-1-1.661 0-.301 1 1.736 1.204 1.512 2.01-.227.804-2.267.938-2.343-.536-.073-1.471-.828-.134-.828.938s-2.416.135-1.661 1.406-1.282 2.743-.15 3.01c1.133.268-.378 5.353-1.132 5.889-.758.536-.228 1.539-1.587 1.941-1.36.401-2.794 3.346-4.604 3.815-1.813.469-2.267 1.337-2.491.469-.229-.871-1.588-.737-.378-1.34 1.207-.603 2.037-1.804.753-1.537-1.283.266-2.49 1.47-2.039 2.14.456.67.235 1.941-.788 2.61-1.024.67-2.606 1.605-1.853 2.275.755.67-.227 2.142-1.132 1.606-.907-.536-1.811-1.94-2.718-1.271-.907.668-3.32 1.204-4.605 1-1.282-.2-3.172-.803-3.396.067-.227.868-1.998 2.877-2.851 3.078-.85.202-1.475 1-2.433 1.204"/><path d="m20.393 49.27c-.639.117-1.965-.535-2.492.334-.53.871-1.209.352-1.585.887-.379.535-1.284-1-1.89 0-.603 1-2.112 2.075-1.282 2.677.83.603-.303 1.01.377 1.674.681.669 2.038.937 2.268 0 .225-.937 1.131-3.03 2.188-2.482 1.057.542 1.583.837 1.962.321s1.133-1.319 1.661-1.453c.527-.135.227-2.228-1.207-1.958"/><path d="m44.1 17.49c.66.684.981 1.272.454 1.406-.529.133-1.435-.804-1.813 0-.379.802-1.21 2.141-1.964 1.205-.757-.938 1.51-2.411.529-2.611-.981-.201-1.813-1.071-1.286-2.075.532-1 1.692-1.473 2.317-1.873.628-.402-.246-.804 0-1.407.252-.601.327-.601 1.461 0 1.131.604 2.338.972 2.338-.45s-1.282-2.093 0-2.494c1.286-.4.604-1.136 1.058-2.141.453-1 0-2.477-.527-3.414-.53-.936.904-2.676 2.265-.803 1.358 1.875 4.756 5.222 6.114 5.354 1.357.134 1.737.535 2.642.87.907.335 3.473-2.543 2.945-1.674-.528.871-1.661 2.275-1.059 2.812.605.535.907 1.271.53 1.606-.379.333 3.02-.669 1.51.268-1.51.937-2.189.803-2.567 1.405-.376.604-2.34.4-3.171-.067-.83-.468-2.265 1.942-2.718 2.678-.452.736.152 2.409-.452 1.808 0 0-1.661-.803-2.794-1.339-1.132-.536-2.489-1.808-3.548-1.339-1.059.468-1.9 1.533-2.113.87-.084-.263-.04-.686-.66-.92-.625-.234-1.453.301-1.642.853-.191.554.242.92.923 1.021.679.101 1.03.247 1.228.451"/></g></svg>