<svg xmlns="http://www.w3.org/2000/svg" viewBox="0 0 64 64" enable-background="new 0 0 64 64"><circle fill="#ffdd67" cx="31.999" cy="32" r="30"/><g fill="#664e27"><path d="m42.683 51.839c-1.801-1.059-3.541-1.701-5.322-2.127-1.775-.426-3.566-.609-5.361-.611-1.799.008-3.588.189-5.361.615-1.781.428-3.52 1.066-5.322 2.123.771-1.977 2.484-3.531 4.396-4.525 1.932-1 4.119-1.486 6.287-1.486 2.166.004 4.354.486 6.283 1.49 1.909.994 3.624 2.546 4.4 4.521"/><path d="m23.934 29.23c1.354 3.189.098 6.979-2.806 8.468-2.904 1.484-6.354.105-7.711-3.083-.859-2.026 9.657-7.411 10.517-5.385"/><path d="m29.1 28.911c-2.079.222-3.933.56-5.727 1.087-1.788.515-3.494 1.198-5.135 2.034-1.649.842-3.212 1.815-4.723 2.986-1.517 1.167-2.938 2.508-4.416 4.131.226-2.3 1.252-4.46 2.633-6.24 1.387-1.782 3.168-3.222 5.106-4.197 1.944-.989 4.077-1.54 6.211-1.562 2.126-.008 4.29.498 6.05 1.761"/><path d="m40.06 29.23c-1.355 3.191-.1 6.979 2.803 8.467 2.906 1.486 6.356.107 7.713-3.081.858-2.026-9.656-7.409-10.516-5.386"/><path d="m34.894 28.911c1.762-1.263 3.924-1.771 6.05-1.761 2.136.021 4.269.572 6.213 1.561 1.938.977 3.718 2.416 5.104 4.198 1.38 1.783 2.409 3.941 2.635 6.24-1.478-1.623-2.901-2.964-4.416-4.131-1.513-1.17-3.075-2.145-4.723-2.988-1.643-.834-3.349-1.518-5.137-2.032-1.792-.527-3.647-.865-5.724-1.087"/></g></svg>