<svg xmlns="http://www.w3.org/2000/svg" viewBox="0 0 64 64" enable-background="new 0 0 64 64"><g fill="#4aa9ff"><path d="m27.03 2l5 10 5-10z"/><path d="M44.854 3 44.18 14.16 53.51 8z"/><path d="M10.541 8 19.871 14.16 19.2 3z"/></g><path fill="#e0a372" d="M20.364,62H8.604V49.12l13.823,3.166C19.088,55.756,20.364,62,20.364,62z"/><g fill="#fed0ac"><path d="M19.251,62H6.095c0,0,0.189-6.401-2.022-11.86l16.46,2.367C18.708,57.401,19.251,62,19.251,62z"/><path d="m18.03 44.43h5v-22.26c0-1.489-1.119-2.731-2.495-2.731h-.014c-1.378 0-2.495 1.242-2.495 2.777v22.21"/><path d="m12.12 44.43h5.909v-24.13c0-1.822-1.32-3.301-2.952-3.301-1.632 0-2.957 1.479-2.957 3.301v24.13"/><path d="m6.97 44.43h5.152v-22.714c0-1.586-1.153-2.871-2.571-2.871h-.01c-1.42 0-2.571 1.285-2.571 2.871v22.714"/><path d="m4.62 22.248c-1.323 0-2.349 1.195-2.349 2.667v19.515h4.699v-19.515c0-1.472-1.026-2.667-2.35-2.667"/></g><g fill="#e0a372"><path d="m20.54 19.438h-.014c-.15 0-.296.02-.438.048 1.167.231 2.057 1.356 2.057 2.684v22.26h.891v-22.26c-.001-1.489-1.12-2.732-2.496-2.732"/><path d="m15.08 17c-.152 0-.3.025-.446.052 1.419.24 2.51 1.597 2.51 3.249v16.13l.889 1v-17.13c-.001-1.822-1.321-3.301-2.953-3.301"/><path d="m9.551 18.845h-.01c-.15 0-.297.021-.44.05 1.21.235 2.132 1.404 2.132 2.821v14.714l.89 1v-15.714c-.001-1.586-1.154-2.871-2.572-2.871"/><path d="m4.62 22.248c-.154 0-.301.02-.444.051 1.101.233 1.903 1.314 1.903 2.616v11.515l.891 1v-12.515c0-1.472-1.026-2.667-2.35-2.667"/></g><path fill="#fed0ac" d="m31.419 34.25c-1.499-1.739-4.522-.901-6.62 3.463-1.463 3.049-1.861 2.437-2.654 2.603v-2.732c0 0-19.921-1.256-19.921 1.749 0 0-.93 7.367 1 11.998 2.878 6.901 17.662 8.72 22.325-3.02.928-2.332 2.154-4.778 3.188-7.288 1.247-3.02 4.324-4.86 2.68-6.769"/><g fill="#e0a372"><path d="m30.417 33.542c3.214 2.396-2.698 6.979-5.494 14.1-4 10.195-15.687 10.165-20.591 5.484 4.456 5.322 16.997 6.308 21.22-4.826 2.742-7.229 9.504-12.68 4.866-14.76"/><path d="m23.04 40.19c-3.932-1.372-12.05 1.321-10.986 9.08 0-7.266 6.475-8.955 10.1-8.955.433 0 .89-.125.89-.125"/><path d="M43.636,62h11.761V49.12l-13.823,3.166C44.912,55.756,43.636,62,43.636,62z"/></g><g fill="#fed0ac"><path d="m44.749 62h13.155c0 0-.189-6.401 2.02-11.86l-16.46 2.367c1.826 4.894 1.283 9.493 1.283 9.493"/><path d="m45.969 44.43h-5v-22.26c0-1.489 1.119-2.731 2.495-2.731h.014c1.378 0 2.495 1.242 2.495 2.777v22.21"/><path d="m51.878 44.43h-5.909v-24.13c0-1.822 1.32-3.301 2.952-3.301 1.632 0 2.957 1.479 2.957 3.301v24.13"/><path d="m57.03 44.43h-5.152v-22.714c0-1.586 1.153-2.871 2.571-2.871h.01c1.42 0 2.571 1.285 2.571 2.871v22.714"/><path d="m59.38 22.248c1.323 0 2.349 1.195 2.349 2.667v19.515h-4.699v-19.515c0-1.472 1.026-2.667 2.35-2.667"/></g><g fill="#e0a372"><path d="m43.46 19.438h.014c.15 0 .296.02.438.048-1.167.231-2.057 1.356-2.057 2.684v22.26h-.891v-22.26c.001-1.489 1.12-2.732 2.496-2.732"/><path d="m48.921 17c.152 0 .3.025.446.052-1.419.24-2.51 1.597-2.51 3.249v16.13l-.889 1v-17.13c.001-1.822 1.321-3.301 2.953-3.301"/><path d="m54.45 18.845h.01c.15 0 .297.021.44.05-1.21.235-2.132 1.404-2.132 2.821v14.714l-.89 1v-15.714c.001-1.586 1.154-2.871 2.572-2.871"/><path d="m59.38 22.248c.153 0 .301.02.444.051-1.101.233-1.903 1.314-1.903 2.616v11.515l-.891 1v-12.515c0-1.472 1.026-2.667 2.35-2.667"/></g><path fill="#fed0ac" d="m32.581 34.25c1.499-1.739 4.522-.901 6.62 3.463 1.463 3.049 1.861 2.437 2.654 2.603v-2.732c0 0 19.921-1.256 19.921 1.749 0 0 .93 7.367-1 11.998-2.878 6.901-17.661 8.72-22.324-3.02-.928-2.332-2.154-4.778-3.188-7.288-1.247-3.02-4.323-4.86-2.68-6.769"/><g fill="#e0a372"><path d="m33.583 33.542c-3.214 2.396 2.698 6.979 5.494 14.1 4 10.195 15.687 10.165 20.591 5.484-4.456 5.322-16.997 6.308-21.22-4.826-2.742-7.229-9.504-12.68-4.866-14.76"/><path d="m40.965 40.19c3.932-1.372 12.05 1.321 10.986 9.08 0-7.266-6.475-8.955-10.1-8.955-.433 0-.89-.125-.89-.125"/></g></svg>