<svg xmlns="http://www.w3.org/2000/svg" viewBox="0 0 64 64" enable-background="new 0 0 64 64"><path fill="#ffbc00" d="M31.986,2C17.336,2,9.336,11.2,9.336,23.315v26.894h45.299V23.315c0-18.01-12.262-17.674-12.262-17.674
		S41.451,2,31.986,2z"/><g fill="#ffdd67"><path d="m31.2 3.181c0-.693-5.04-.613-6.541-.613-2.647 0-9.774 3.762-9.774 3.762s3.235 3.996 4.837 3.996c2.194 0 4.396-1.517 4.396-3.583 0-1.515 7.082-1.418 7.082-3.562"/><path d="m32.799 3.181c0-.693 5.04-.613 6.541-.613 2.647 0 9.773 3.762 9.773 3.762s-3.234 3.996-4.837 3.996c-2.194 0-4.396-1.517-4.396-3.583.001-1.515-7.081-1.418-7.081-3.562"/></g><path fill="#c28fef" d="m61.715 25.827c-1.297-5.15-7.154-12.13-12.523-20.426l-5.857 5.688c0 0 5.652 5.096 9.898 18.04-2.443 5.852-5.391 14.926-9.631 17.594-2.402-1.172-6.07-1.207-11.619-1.207-5.535 0-9.199.035-11.6 1.199-4.232-2.684-7.177-11.742-9.616-17.586 4.246-12.941 9.901-18.04 9.901-18.04l-5.86-5.688c-5.369 8.299-11.227 15.275-12.523 20.426-2.399 9.53 11.126 29.29 10.931 36.17h37.567c-.195-6.879 13.332-26.643 10.932-36.17"/><path fill="#ffdd67" d="m15.832 33.447c0 0-3.262-.828-3.262-5.623 0-3.796 2.459-4.449 2.459-4.449 8.811 0 23.17-11.375 23.17-11.375s5.428 10.04 10.664 11.375c0 0 2.537.465 2.537 4.449 0 4.795-3.385 5.623-3.385 5.623-.045 7.232-9.992 15.959-16.03 15.959-6.04 0-16.15-8.726-16.15-15.959"/><path fill="#eba352" d="m36.03 36.75c0 1.576-3.289 2.033-4.04 2.033-.756 0-4.047-.561-4.047-2.137 0 0 8.09-.683 8.09.104"/><path fill="#f5f5f5" d="m26.477 30.451c.951 0 .824-2.441.824-2.441-2.92-6.478-9.42-2.378-9.42-2.378-2.527 1.121 1.133 4.664 1.719 4.82 2.754.739 6.877-.001 6.877-.001"/><ellipse fill="#664e27" cx="22.669" cy="27.484" rx="3.108" ry="3.09"/><g fill="#231f20"><circle cx="22.668" cy="27.484" r="1"/><path d="m28.12 28.943c-.795-.963-1.582-1.891-2.496-2.595-.912-.703-1.938-1.146-3.045-1.215-1.107-.105-2.268.127-3.471.354-.602.117-1.223.23-1.871.268-.627.025-1.385-.047-1.832-.527.592.234 1.174.109 1.738-.059.568-.162 1.131-.395 1.721-.59 1.164-.41 2.451-.748 3.814-.646.676.066 1.354.236 1.969.535.607.311 1.16.709 1.611 1.186.913.946 1.509 2.094 1.862 3.289"/></g><path fill="#f5f5f5" d="m37.494 30.451c-.953 0-.826-2.441-.826-2.441 2.92-6.478 9.422-2.378 9.422-2.378 2.527 1.121-1.133 4.664-1.721 4.82-2.75.739-6.875-.001-6.875-.001"/><ellipse fill="#664e27" cx="41.3" cy="27.484" rx="3.109" ry="3.09"/><g fill="#231f20"><ellipse cx="41.3" cy="27.484" rx="1" ry=".994"/><path d="m35.854 28.943c.354-1.195.947-2.343 1.861-3.291.451-.477 1-.875 1.609-1.186.615-.299 1.295-.469 1.969-.535 1.363-.102 2.65.236 3.814.646.59.195 1.154.428 1.723.59.563.168 1.146.293 1.738.059-.449.48-1.205.553-1.834.527-.648-.037-1.27-.15-1.873-.268-1.199-.227-2.361-.459-3.467-.354-1.105.068-2.133.512-3.045 1.215-.913.707-1.701 1.634-2.495 2.597"/></g><path fill="#f09985" d="m34.857 40.615c-.588-.145-1.445-.076-2.576.301-.1.029-.199.061-.295.094-.1-.033-.197-.064-.297-.094-1.133-.377-1.988-.445-2.576-.301-1.752.424-4.408.217-4.408.217 1.932 1.916 2.85 4.533 7.281 4.533 4.43 0 5.348-2.617 7.277-4.533.001 0-2.656.207-4.406-.217"/><path fill="#d47f6c" d="m34.857 40.615c-.588-.145-1.445-.076-2.576.301-.1.029-.199.061-.295.094-.1-.033-.197-.064-.297-.094-1.133-.377-1.988-.445-2.576-.301-1.721.416-4.416.215-4.408.217 2.914.52 3.277 1.998 7.281 1.998 4 0 4.365-1.479 7.277-1.998.012-.002-2.687.199-4.406-.217"/></svg>