<svg xmlns="http://www.w3.org/2000/svg" viewBox="0 0 64 64" enable-background="new 0 0 64 64"><path fill="#94989b" d="m52.895 30.641c.017-.299.325-7.366-3.922-11.835-2.202-2.315-5.223-3.491-8.978-3.492-4.928 0-8.428-2.388-10.402-7.1-1.495-3.57-1.512-8.214-1.512-8.214h-.986c0 0 .146 16.301 12.9 16.301 3.475 0 6.254 1.072 8.262 3.185 3.958 4.164 3.657 11.04 3.651 11.1l.987.052"/><path fill="#d0d0d0" d="M64,53c0,1.656-1.344,3-3,3H3c-1.656,0-3-1.344-3-3V32c0-1.656,1.344-3,3-3h58c1.656,0,3,1.344,3,3V53z"/><g fill="#94989b"><path d="m6.5 38.801c0 .553-.447 1-1 1h-2c-.552 0-1-.447-1-1h4"/><path d="m11.5 38.801c0 .553-.447 1-1 1h-2c-.552 0-1-.447-1-1h4"/><path d="m16.5 38.801c0 .553-.447 1-1 1h-2c-.552 0-1-.447-1-1h4"/><path d="m21.5 38.801c0 .553-.447 1-1 1h-2c-.552 0-1-.447-1-1h4"/><path d="m26.5 38.801c0 .553-.447 1-1 1h-2c-.553 0-1-.447-1-1h4"/><path d="m31.5 38.801c0 .553-.447 1-1 1h-2c-.553 0-1-.447-1-1h4"/><path d="m36.5 38.801c0 .553-.447 1-1 1h-2c-.553 0-1-.447-1-1h4"/><path d="m41.5 38.801c0 .553-.447 1-1 1h-2c-.553 0-1-.447-1-1h4"/><path d="m46.5 38.801c0 .553-.447 1-1 1h-2c-.553 0-1-.447-1-1h4"/><path d="m51.5 38.801c0 .553-.447 1-1 1h-2c-.553 0-1-.447-1-1h4"/><path d="m61.5 38.801c0 .553-.447 1-1 1h-7c-.553 0-1-.447-1-1h9"/><path d="m11.5 48.801c0 .553-.447 1-1 1h-7c-.552 0-1-.447-1-1h9"/><path d="m16.5 48.801c0 .553-.447 1-1 1h-2c-.552 0-1-.447-1-1h4"/><path d="m21.5 48.801c0 .553-.447 1-1 1h-2c-.552 0-1-.447-1-1h4"/><path d="m26.5 48.801c0 .553-.447 1-1 1h-2c-.553 0-1-.447-1-1h4"/><path d="m31.5 48.801c0 .553-.447 1-1 1h-2c-.553 0-1-.447-1-1h4"/><path d="m36.5 48.801c0 .553-.447 1-1 1h-2c-.553 0-1-.447-1-1h4"/><path d="m41.5 48.801c0 .553-.447 1-1 1h-2c-.553 0-1-.447-1-1h4"/><path d="m46.5 48.801c0 .553-.447 1-1 1h-2c-.553 0-1-.447-1-1h4"/><path d="m51.5 48.801c0 .553-.447 1-1 1h-2c-.553 0-1-.447-1-1h4"/><path d="m61.5 48.801c0 .553-.447 1-1 1h-7c-.553 0-1-.447-1-1h9"/><path d="m9 43.801c0 .553-.447 1-1 1h-4.5c-.552 0-1-.447-1-1h6.5"/><path d="m14 43.801c0 .553-.447 1-1 1h-2c-.552 0-1-.447-1-1h4"/><path d="m19 43.801c0 .553-.447 1-1 1h-2c-.552 0-1-.447-1-1h4"/><path d="m24 43.801c0 .553-.447 1-1 1h-2c-.553 0-1-.447-1-1h4"/><path d="m29 43.801c0 .553-.447 1-1 1h-2c-.553 0-1-.447-1-1h4"/><path d="m34 43.801c0 .553-.447 1-1 1h-2c-.553 0-1-.447-1-1h4"/><path d="m39 43.801c0 .553-.447 1-1 1h-2c-.553 0-1-.447-1-1h4"/><path d="m44 43.801c0 .553-.447 1-1 1h-2c-.553 0-1-.447-1-1h4"/><path d="m49 43.801c0 .553-.447 1-1 1h-2c-.553 0-1-.447-1-1h4"/><path d="m54 43.801c0 .553-.447 1-1 1h-2c-.553 0-1-.447-1-1h4"/><path d="m61.5 43.801c0 .553-.447 1-1 1h-4.5c-.553 0-1-.447-1-1h6.5"/><path d="m9 53.801c0 .553-.447 1-1 1h-4.5c-.552 0-1-.447-1-1h6.5"/><path d="m14 53.801c0 .553-.447 1-1 1h-2c-.552 0-1-.447-1-1h4"/><path d="m19 53.801c0 .553-.447 1-1 1h-2c-.552 0-1-.447-1-1h4"/><path d="m44 53.801c0 .553-.447 1-1 1h-22c-.553 0-1-.447-1-1h24"/><path d="m49 53.801c0 .553-.447 1-1 1h-2c-.553 0-1-.447-1-1h4"/><path d="m57.9 51.34c0 .553-.426 1-.95 1h-1.9c-.524 0-.95-.447-.95-1h3.8"/><path d="m57.9 53.756c0 .553-.426 1-.951 1h-1.899c-.524 0-.95-.447-.95-1h3.8"/><path d="m53.588 53.756c0 .553-.426 1-.95 1h-1.9c-.524 0-.95-.447-.95-1h3.8"/><path d="m62.15 53.756c0 .553-.426 1-.95 1h-1.9c-.524 0-.95-.447-.95-1h3.8"/><path d="m6.5 33.801c0 .553-.447 1-1 1h-2c-.552 0-1-.447-1-1h4"/><path d="m11.5 33.801c0 .553-.447 1-1 1h-2c-.552 0-1-.447-1-1h4"/><path d="m16.5 33.801c0 .553-.447 1-1 1h-2c-.552 0-1-.447-1-1h4"/><path d="m21.5 33.801c0 .553-.447 1-1 1h-2c-.552 0-1-.447-1-1h4"/><path d="m26.5 33.801c0 .553-.447 1-1 1h-2c-.553 0-1-.447-1-1h4"/><path d="m31.5 33.801c0 .553-.447 1-1 1h-2c-.553 0-1-.447-1-1h4"/><path d="m36.5 33.801c0 .553-.447 1-1 1h-2c-.553 0-1-.447-1-1h4"/><path d="m41.5 33.801c0 .553-.447 1-1 1h-2c-.553 0-1-.447-1-1h4"/><path d="m46.5 33.801c0 .553-.447 1-1 1h-2c-.553 0-1-.447-1-1h4"/><path d="m51.5 33.801c0 .553-.447 1-1 1h-2c-.553 0-1-.447-1-1h4"/><path d="m56.5 33.801c0 .553-.447 1-1 1h-2c-.553 0-1-.447-1-1h4"/><path d="m61.5 33.801c0 .553-.447 1-1 1h-2c-.553 0-1-.447-1-1h4"/></g><g fill="#fff"><path d="m6.5 38.539c0 .553-.447 1-1 1h-2c-.552 0-1-.447-1-1v-2c0-.553.448-1 1-1h2c.553 0 1 .447 1 1v2"/><path d="m11.5 38.539c0 .553-.447 1-1 1h-2c-.552 0-1-.447-1-1v-2c0-.553.448-1 1-1h2c.553 0 1 .447 1 1v2"/><path d="m16.5 38.539c0 .553-.447 1-1 1h-2c-.552 0-1-.447-1-1v-2c0-.553.448-1 1-1h2c.553 0 1 .447 1 1v2"/><path d="m21.5 38.539c0 .553-.447 1-1 1h-2c-.552 0-1-.447-1-1v-2c0-.553.448-1 1-1h2c.553 0 1 .447 1 1v2"/><path d="m26.5 38.539c0 .553-.447 1-1 1h-2c-.553 0-1-.447-1-1v-2c0-.553.447-1 1-1h2c.553 0 1 .447 1 1v2"/><path d="m31.5 38.539c0 .553-.447 1-1 1h-2c-.553 0-1-.447-1-1v-2c0-.553.447-1 1-1h2c.553 0 1 .447 1 1v2"/><path d="m36.5 38.539c0 .553-.447 1-1 1h-2c-.553 0-1-.447-1-1v-2c0-.553.447-1 1-1h2c.553 0 1 .447 1 1v2"/><path d="m41.5 38.539c0 .553-.447 1-1 1h-2c-.553 0-1-.447-1-1v-2c0-.553.447-1 1-1h2c.553 0 1 .447 1 1v2"/><path d="m46.5 38.539c0 .553-.447 1-1 1h-2c-.553 0-1-.447-1-1v-2c0-.553.447-1 1-1h2c.553 0 1 .447 1 1v2"/><path d="m51.5 38.539c0 .553-.447 1-1 1h-2c-.553 0-1-.447-1-1v-2c0-.553.447-1 1-1h2c.553 0 1 .447 1 1v2"/><path d="m61.5 38.539c0 .553-.447 1-1 1h-7c-.553 0-1-.447-1-1v-2c0-.553.447-1 1-1h7c.553 0 1 .447 1 1v2"/><path d="m11.5 48.539c0 .553-.447 1-1 1h-7c-.552 0-1-.447-1-1v-2c0-.553.448-1 1-1h7c.553 0 1 .447 1 1v2"/><path d="m16.5 48.539c0 .553-.447 1-1 1h-2c-.552 0-1-.447-1-1v-2c0-.553.448-1 1-1h2c.553 0 1 .447 1 1v2"/><path d="m21.5 48.539c0 .553-.447 1-1 1h-2c-.552 0-1-.447-1-1v-2c0-.553.448-1 1-1h2c.553 0 1 .447 1 1v2"/><path d="m26.5 48.539c0 .553-.447 1-1 1h-2c-.553 0-1-.447-1-1v-2c0-.553.447-1 1-1h2c.553 0 1 .447 1 1v2"/><path d="m31.5 48.539c0 .553-.447 1-1 1h-2c-.553 0-1-.447-1-1v-2c0-.553.447-1 1-1h2c.553 0 1 .447 1 1v2"/><path d="m36.5 48.539c0 .553-.447 1-1 1h-2c-.553 0-1-.447-1-1v-2c0-.553.447-1 1-1h2c.553 0 1 .447 1 1v2"/><path d="m41.5 48.539c0 .553-.447 1-1 1h-2c-.553 0-1-.447-1-1v-2c0-.553.447-1 1-1h2c.553 0 1 .447 1 1v2"/><path d="m46.5 48.539c0 .553-.447 1-1 1h-2c-.553 0-1-.447-1-1v-2c0-.553.447-1 1-1h2c.553 0 1 .447 1 1v2"/><path d="m51.5 48.539c0 .553-.447 1-1 1h-2c-.553 0-1-.447-1-1v-2c0-.553.447-1 1-1h2c.553 0 1 .447 1 1v2"/><path d="m61.5 48.539c0 .553-.447 1-1 1h-7c-.553 0-1-.447-1-1v-2c0-.553.447-1 1-1h7c.553 0 1 .447 1 1v2"/><path d="m9 43.539c0 .553-.447 1-1 1h-4.5c-.552 0-1-.447-1-1v-2c0-.553.448-1 1-1h4.5c.553 0 1 .447 1 1v2"/><path d="m14 43.539c0 .553-.447 1-1 1h-2c-.552 0-1-.447-1-1v-2c0-.553.448-1 1-1h2c.553 0 1 .447 1 1v2"/><path d="m19 43.539c0 .553-.447 1-1 1h-2c-.552 0-1-.447-1-1v-2c0-.553.448-1 1-1h2c.553 0 1 .447 1 1v2"/><path d="m24 43.539c0 .553-.447 1-1 1h-2c-.553 0-1-.447-1-1v-2c0-.553.447-1 1-1h2c.553 0 1 .447 1 1v2"/><path d="m29 43.539c0 .553-.447 1-1 1h-2c-.553 0-1-.447-1-1v-2c0-.553.447-1 1-1h2c.553 0 1 .447 1 1v2"/><path d="m34 43.539c0 .553-.447 1-1 1h-2c-.553 0-1-.447-1-1v-2c0-.553.447-1 1-1h2c.553 0 1 .447 1 1v2"/><path d="m39 43.539c0 .553-.447 1-1 1h-2c-.553 0-1-.447-1-1v-2c0-.553.447-1 1-1h2c.553 0 1 .447 1 1v2"/><path d="m44 43.539c0 .553-.447 1-1 1h-2c-.553 0-1-.447-1-1v-2c0-.553.447-1 1-1h2c.553 0 1 .447 1 1v2"/><path d="m49 43.539c0 .553-.447 1-1 1h-2c-.553 0-1-.447-1-1v-2c0-.553.447-1 1-1h2c.553 0 1 .447 1 1v2"/><path d="m54 43.539c0 .553-.447 1-1 1h-2c-.553 0-1-.447-1-1v-2c0-.553.447-1 1-1h2c.553 0 1 .447 1 1v2"/><path d="m61.5 43.539c0 .553-.447 1-1 1h-4.5c-.553 0-1-.447-1-1v-2c0-.553.447-1 1-1h4.5c.553 0 1 .447 1 1v2"/><path d="m9 53.54c0 .553-.447 1-1 1h-4.5c-.552 0-1-.447-1-1v-2c0-.553.448-1 1-1h4.5c.553 0 1 .447 1 1v2"/><path d="m14 53.54c0 .553-.447 1-1 1h-2c-.552 0-1-.447-1-1v-2c0-.553.448-1 1-1h2c.553 0 1 .447 1 1v2"/><path d="m19 53.54c0 .553-.447 1-1 1h-2c-.552 0-1-.447-1-1v-2c0-.553.448-1 1-1h2c.553 0 1 .447 1 1v2"/><path d="m44 53.54c0 .553-.447 1-1 1h-22c-.553 0-1-.447-1-1v-2c0-.553.447-1 1-1h22c.553 0 1 .447 1 1v2"/><path d="m49 53.54c0 .553-.447 1-1 1h-2c-.553 0-1-.447-1-1v-2c0-.553.447-1 1-1h2c.553 0 1 .447 1 1v2"/><path d="m56.924 52.08h-1.848c-1.436 0-1.436-2.205 0-2.205h1.848c1.434 0 1.434 2.205 0 2.205"/><path d="m56.924 54.49h-1.848c-1.436 0-1.436-2.205 0-2.205h1.848c1.434 0 1.434 2.205 0 2.205"/><path d="m52.611 54.49h-1.848c-1.436 0-1.436-2.205 0-2.205h1.848c1.435 0 1.435 2.205 0 2.205"/><path d="m61.17 54.49h-1.848c-1.435 0-1.435-2.205 0-2.205h1.848c1.435 0 1.435 2.205 0 2.205"/><path d="m5.5 34.539h-2c-1.552 0-1.552-2.266 0-2.266h2c1.553 0 1.553 2.266 0 2.266"/><path d="m10.5 34.539h-2c-1.552 0-1.552-2.266 0-2.266h2c1.553 0 1.553 2.266 0 2.266"/><path d="m15.5 34.539h-2c-1.552 0-1.552-2.266 0-2.266h2c1.553 0 1.553 2.266 0 2.266"/><path d="m20.5 34.539h-2c-1.552 0-1.552-2.266 0-2.266h2c1.553 0 1.553 2.266 0 2.266"/><path d="m25.5 34.539h-2c-1.553 0-1.553-2.266 0-2.266h2c1.553 0 1.553 2.266 0 2.266"/><path d="m30.5 34.539h-2c-1.553 0-1.553-2.266 0-2.266h2c1.553 0 1.553 2.266 0 2.266"/><path d="m35.5 34.539h-2c-1.553 0-1.553-2.266 0-2.266h2c1.553 0 1.553 2.266 0 2.266"/><path d="m40.5 34.539h-2c-1.553 0-1.553-2.266 0-2.266h2c1.553 0 1.553 2.266 0 2.266"/><path d="m45.5 34.539h-2c-1.553 0-1.553-2.266 0-2.266h2c1.553 0 1.553 2.266 0 2.266"/><path d="m50.5 34.539h-2c-1.553 0-1.553-2.266 0-2.266h2c1.553 0 1.553 2.266 0 2.266"/><path d="m55.5 34.539h-2c-1.553 0-1.553-2.266 0-2.266h2c1.553 0 1.553 2.266 0 2.266"/><path d="m60.5 34.539h-2c-1.553 0-1.553-2.266 0-2.266h2c1.553 0 1.553 2.266 0 2.266"/></g></svg>