<svg xmlns="http://www.w3.org/2000/svg" viewBox="0 0 64 64" enable-background="new 0 0 64 64"><g fill="#3e4347"><path d="m12 52c0 2.2-1.8 3.999-4 3.999h-4c-2.2 0-4-1.799-4-3.999v-40c0-2.2 1.8-3.999 4-3.999h4c2.2 0 4 1.799 4 3.999v40"/><path d="m60.96 8.972c1.671-1.691 3.039-1.119 3.039 1.274v43.506c0 2.394-1.368 2.966-3.039 1.274l-19.708-19.95c-1.671-1.692-1.671-4.46 0-6.152l19.708-19.952"/><path d="m36.96 8.972c1.671-1.692 3.039-1.118 3.039 1.275v43.505c0 2.394-1.368 2.967-3.039 1.275l-19.707-19.951c-1.671-1.692-1.671-4.46 0-6.152l19.707-19.952"/></g></svg>