<svg xmlns="http://www.w3.org/2000/svg" viewBox="0 0 64 64" enable-background="new 0 0 64 64"><ellipse fill="#97b113" cx="32" cy="49.721" rx="30" ry="12.279"/><path opacity=".3" fill="#1e1e1e" d="m28 47c0 0 3-6.553 5.644-9.559l-.909.004c0 0-4.725 5.709-6.709 9.318l1.974.237"/><ellipse fill="#c7c7c7" cx="26.625" cy="50.34" rx="8.729" ry="3.665"/><path fill="#3d2905" d="m26.625 48.24c4.176 0 7.662 1.232 8.521 2.879.133-.254.207-.517.207-.787 0-2.024-3.908-3.666-8.729-3.666s-8.729 1.642-8.729 3.666c0 .271.074.533.206.787.86-1.646 4.346-2.879 8.524-2.879"/><path fill="#ed4c5c" d="m44.982 9.292c-.902-.467-15.808-8.169-17.982-9.292v20.729c2.172-1.122 17.07-8.82 17.982-9.292.741-.381.741-1.764 0-2.145"/><path opacity=".5" fill="#1e1e1e" d="m28 53.923c0 0-.898.077-2.439.077v-7.237h2.439v7.16"/><path fill="#d3976e" d="m25 0h2v54h-2z"/><path fill="#89664c" d="m25 52.17h2v1.832h-2z"/></svg>