<svg xmlns="http://www.w3.org/2000/svg" viewBox="0 0 64 64" enable-background="new 0 0 64 64"><path fill="#a9b5ae" d="m57.03 48.612c-4.523 8.166-15.741-3.055-30.778-12.578-2.793-1.77-3.932-4.436-1.263-7.168 0 0-.096-.256-.468-.744l5.654-2.54 26.855 23.03"/><path fill="#454749" d="m24.13 2.507c-4.36-3.739-10.922-3.238-14.661 1.123-3.738 4.359-3.234 10.922 1.126 14.66.474.408 1.81 1.24 1.901 1.291 8.223 4.427 11.07 7.283 12.03 8.541l5.654-2.54-1.86-1.594c0 0-6.167-2.815-6.778-4.08 1.385-.608 2.663-1.519 3.713-2.742 3.739-4.36 3.235-10.922-1.124-14.659m-3.265 3.809c2.253 1.932 2.513 5.328.579 7.582-1.933 2.254-5.328 2.516-7.582.583-2.256-1.935-2.516-5.329-.581-7.585 1.932-2.252 5.327-2.515 7.584-.58"/><path fill="#cedbd5" d="m57.03 15.389c-4.522-8.166-15.74 3.055-30.777 12.579-2.793 1.77-3.932 4.434-1.263 7.168 0 0-.096.256-.468.744l5.654 2.539 26.854-23.03"/><g fill="#454749"><path d="m25.25 46.833c-1.05-1.223-2.328-2.133-3.714-2.74.612-1.266 6.779-4.08 6.779-4.08l1.86-1.594-5.654-2.539c-.957 1.256-3.807 4.113-12.03 8.539-.092.051-1.428.883-1.901 1.291-4.36 3.738-4.864 10.301-1.126 14.66 3.738 4.361 10.301 4.863 14.661 1.123 4.359-3.736 4.863-10.299 1.124-14.66m-11.973 10.271c-1.935-2.256-1.675-5.65.581-7.586 2.254-1.932 5.648-1.672 7.582.584 1.934 2.254 1.674 5.65-.58 7.582-2.256 1.936-5.651 1.672-7.583-.58"/><path d="m31.07 33.749c-.967 1.18-2.704 1.348-3.881.381-1.176-.965-1.348-2.702-.381-3.879.966-1.176 2.703-1.348 3.88-.381 1.175.964 1.347 2.703.382 3.879"/></g></svg>