<?xml version="1.0" encoding="utf-8"?>
<!-- Generator: Adobe Illustrator 16.0.0, SVG Export Plug-In . SVG Version: 6.00 Build 0)  -->
<!DOCTYPE svg PUBLIC "-//W3C//DTD SVG 1.1//EN" "http://www.w3.org/Graphics/SVG/1.1/DTD/svg11.dtd">
<svg version="1.1" id="Layer_1" xmlns="http://www.w3.org/2000/svg" xmlns:xlink="http://www.w3.org/1999/xlink" x="0px" y="0px"
	 width="52px" height="52px" viewBox="0 0 52 52" enable-background="new 0 0 52 52" xml:space="preserve">
<path fill="#FFFFFF" d="M48,34.066c1.1,0,2-0.9,2-2v-26c0-1.1-0.9-2-2-2H4c-1.1,0-2,0.9-2,2v26c0,1.1,0.9,2,2,2H48z M6,30.066v-22
	h40v22H6z"/>
<path fill="#FFFFFF" d="M13.665,13.398c0,0.8-0.7,1.5-1.5,1.5h-0.998c-0.8,0-1.5-0.7-1.5-1.5V12.4c0-0.8,0.7-1.5,1.5-1.5h0.998
	c0.8,0,1.5,0.7,1.5,1.5V13.398z"/>
<path fill="#FFFFFF" d="M19.402,12.4c0-0.801-0.7-1.5-1.5-1.5h-0.998c-0.8,0-1.5,0.699-1.5,1.5v0.998c0,0.799,0.7,1.5,1.5,1.5h0.998
	c0.8,0,1.5-0.701,1.5-1.5V12.4z"/>
<path fill="#FFFFFF" d="M30.878,13.398c0,0.8-0.698,1.5-1.5,1.5H28.38c-0.799,0-1.5-0.7-1.5-1.5V12.4c0-0.8,0.701-1.5,1.5-1.5h0.998
	c0.802,0,1.5,0.7,1.5,1.5V13.398z"/>
<path fill="#FFFFFF" d="M25.14,13.398c0,0.8-0.699,1.5-1.5,1.5h-0.998c-0.799,0-1.5-0.7-1.5-1.5V12.4c0-0.8,0.701-1.5,1.5-1.5h0.998
	c0.801,0,1.5,0.7,1.5,1.5V13.398z"/>
<path fill="#FFFFFF" d="M42.354,12.4c0-0.801-0.699-1.5-1.5-1.5h-0.998c-0.799,0-1.5,0.699-1.5,1.5v0.998c0,0.799,0.701,1.5,1.5,1.5
	h0.998c0.801,0,1.5-0.701,1.5-1.5V12.4z"/>
<path fill="#FFFFFF" d="M36.615,12.4c0-0.801-0.699-1.5-1.5-1.5h-0.998c-0.799,0-1.5,0.699-1.5,1.5v0.998c0,0.799,0.701,1.5,1.5,1.5
	h0.998c0.801,0,1.5-0.701,1.5-1.5V12.4z"/>
<path fill="#FFFFFF" d="M13.665,19.402c0,0.8-0.7,1.5-1.5,1.5h-0.998c-0.8,0-1.5-0.7-1.5-1.5v-0.998c0-0.8,0.7-1.5,1.5-1.5h0.998
	c0.8,0,1.5,0.7,1.5,1.5V19.402z"/>
<path fill="#FFFFFF" d="M19.402,18.404c0-0.801-0.7-1.5-1.5-1.5h-0.998c-0.8,0-1.5,0.699-1.5,1.5v0.998c0,0.799,0.7,1.5,1.5,1.5
	h0.998c0.8,0,1.5-0.701,1.5-1.5V18.404z"/>
<path fill="#FFFFFF" d="M30.878,19.402c0,0.8-0.698,1.5-1.5,1.5H28.38c-0.799,0-1.5-0.7-1.5-1.5v-0.998c0-0.8,0.701-1.5,1.5-1.5
	h0.998c0.802,0,1.5,0.7,1.5,1.5V19.402z"/>
<path fill="#FFFFFF" d="M25.14,19.402c0,0.8-0.699,1.5-1.5,1.5h-0.998c-0.799,0-1.5-0.7-1.5-1.5v-0.998c0-0.8,0.701-1.5,1.5-1.5
	h0.998c0.801,0,1.5,0.7,1.5,1.5V19.402z"/>
<path fill="#FFFFFF" d="M42.354,18.404c0-0.801-0.699-1.5-1.5-1.5h-0.998c-0.799,0-1.5,0.699-1.5,1.5v0.998
	c0,0.799,0.701,1.5,1.5,1.5h0.998c0.801,0,1.5-0.701,1.5-1.5V18.404z"/>
<path fill="#FFFFFF" d="M36.615,18.404c0-0.801-0.699-1.5-1.5-1.5h-0.998c-0.799,0-1.5,0.699-1.5,1.5v0.998
	c0,0.799,0.701,1.5,1.5,1.5h0.998c0.801,0,1.5-0.701,1.5-1.5V18.404z"/>
<path fill="#FFFFFF" d="M13.665,25.408c0,0.801-0.7,1.5-1.5,1.5h-0.998c-0.8,0-1.5-0.7-1.5-1.5V24.41c0-0.8,0.7-1.5,1.5-1.5h0.998
	c0.8,0,1.5,0.7,1.5,1.5V25.408z"/>
<path fill="#FFFFFF" d="M36.615,24.41c0-0.801-0.7-1.5-1.5-1.5H16.904c-0.8,0-1.5,0.699-1.5,1.5v0.998c0,0.8,0.7,1.5,1.5,1.5h18.211
	c0.8,0,1.5-0.701,1.5-1.5V24.41z"/>
<path fill="#FFFFFF" d="M42.354,24.41c0-0.801-0.699-1.5-1.5-1.5h-0.998c-0.799,0-1.5,0.699-1.5,1.5v0.998c0,0.8,0.701,1.5,1.5,1.5
	h0.998c0.801,0,1.5-0.701,1.5-1.5V24.41z"/>
<path fill="#FFFFFF" d="M18.116,37.227h15.792c0.447,0,0.759,0.58,0.4,0.981l-7.718,9.457c-0.266,0.356-0.847,0.356-1.115,0
	l-7.807-9.457C17.357,37.807,17.625,37.227,18.116,37.227z"/>
</svg>
