<svg xmlns="http://www.w3.org/2000/svg" height="100" width="100" viewBox="0 0 100 100" fill="#fff"><path d="M50 41c-5 0-9 4-9 9s4 9 9 9 9-4 9-9-4-9-9-9zm0 14c-2.8 0-5-2.2-5-5s2.2-5 5-5 5 2.2 5 5-2.2 5-5 5z"/><path d="M50 20a30 30 0 1 0 0 60 30 30 0 0 0 0-60zm0 52.9a2 2 0 0 1-2.2 2A25.1 25.1 0 0 1 25 52.1c0-1.1.9-2.1 2.1-2.1h2c1 0 1.9.8 2 1.8.9 9 8.1 16.2 17.1 17.1a2 2 0 0 1 1.8 2v2zm0-7.9a15 15 0 1 1 0-30 15 15 0 0 1 0 30zm22.9-15h-2a2 2 0 0 1-2-1.8c-.9-9-8.1-16.2-17.1-17.1a2 2 0 0 1-1.8-2v-2a2 2 0 0 1 2.2-2A25.1 25.1 0 0 1 75 47.9c0 1.1-.9 2.1-2.1 2.1z"/></svg>