<svg xmlns="http://www.w3.org/2000/svg" height="100" width="100" viewBox="0 0 100 100" fill="#fff"><path d="M80 44H59a2 2 0 0 0-2 2v1a3 3 0 1 1-6 0v-1a2 2 0 0 0-2-2h-5 .1a17 17 0 0 0-13.8 8.6 9 9 0 1 0 0 16.8A17 17 0 0 0 44.1 78 17 17 0 0 0 62 61l-.1-1.8a2 2 0 0 1 1.6-2.2l16.9-3.7a2 2 0 0 0 1.6-2V46a2 2 0 0 0-2-2zM27 64c-1.7 0-3-1.3-3-3s1.3-3 3-3c.4 0 .9.1 1.2.3-.2 1.2-.2 2.5-.2 3.8l.2 1.6zm27-27a3 3 0 0 0 3-3v-9c0-1.7-1.3-3-3-3s-3 1.3-3 3v9a3 3 0 0 0 3 3zm-14.3 1c.6.7 1.4 1 2.3 1a3 3 0 0 0 2-.7 3 3 0 0 0 .3-4.2l-6-7a3 3 0 0 0-4.2-.3 3 3 0 0 0-.3 4.2zM66 39c.8 0 1.7-.4 2.3-1l6-7a3 3 0 0 0-4.5-3.9l-6 7a3 3 0 0 0 .3 4.2c.5.5 1.2.7 1.9.7z"/></svg>