<svg xmlns="http://www.w3.org/2000/svg" width="100" height="100" viewBox="0 0 100 100"><path d="M21.88,20.6h5a1.88,1.88,0,0,1,1.88,1.88V61.22a1.87,1.87,0,0,1-1.87,1.87h-5A1.87,1.87,0,0,1,20,61.22V22.47A1.87,1.87,0,0,1,21.88,20.6Z" fill="#fff"/><path d="M73.13,20.6h5A1.88,1.88,0,0,1,80,22.47V61.22a1.88,1.88,0,0,1-1.88,1.88h-5a1.87,1.87,0,0,1-1.87-1.87V22.47A1.88,1.88,0,0,1,73.13,20.6Z" fill="#fff"/><path d="M64.38,20.6H60.62a2,2,0,0,0-1.87,2V38.1a1.19,1.19,0,0,0,.75,1.12,23.32,23.32,0,0,1,5.62,4.13c.38.37,1.13.12,1.13-.38V22.6A2,2,0,0,0,64.38,20.6Z" fill="#fff"/><path d="M47.62,37.1A14.67,14.67,0,0,1,50,37a14.67,14.67,0,0,1,2.38.13,1.22,1.22,0,0,0,1.37-1.25V22.6a2,2,0,0,0-1.87-2H48.12a2,2,0,0,0-1.87,2V35.85A1.22,1.22,0,0,0,47.62,37.1Z" fill="#fff"/><path d="M34.88,43.35a18.67,18.67,0,0,1,5.74-4.13,1.3,1.3,0,0,0,.63-1.12V22.6a2,2,0,0,0-1.87-2H35.62a2,2,0,0,0-1.87,2V43C33.75,43.47,34.38,43.72,34.88,43.35Z" fill="#fff"/><path d="M50,43A15.86,15.86,0,0,0,34.16,58.79v0A15.84,15.84,0,1,0,50,43Zm8.93,12.27-10.05,11a2.07,2.07,0,0,1-1.58.67,2.22,2.22,0,0,1-1.59-.67L40.36,61l-.1-.12h0a1,1,0,0,1,.12-1.38L41.91,58a1.11,1.11,0,0,1,1.55,0l3.83,3.87,8.47-9.49,0,0a1.09,1.09,0,0,1,1.55,0l1.57,1.46A1.17,1.17,0,0,1,58.92,55.24Z" fill="#fff"/></svg>