<svg xmlns="http://www.w3.org/2000/svg" width="100" height="100" viewBox="0 0 100 100">
    <path d="M46.78,20.86c2-1.15,4.45-1.15,6.45,0l6.58,3.8c2,1.15,3.22,3.28,3.22,5.59v7.6c0,2.3-1.23,4.43-3.22,5.59l-6.58,3.8c-2,1.15-4.45,1.15-6.45,0l-6.58-3.8c-2-1.15-3.22-3.28-3.22-5.59v-7.6c0-2.3,1.23-4.43,3.22-5.59l6.58-3.8Zm-5.36,12.49c-.5,.51-.5,1.33,0,1.84l5.42,5.51c.5,.51,1.31,.51,1.81,0l9.94-10.1c.5-.51,.5-1.33,0-1.84l-1.36-1.38c-.5-.51-1.31-.51-1.81,0l-6.78,6.89c-.5,.51-1.31,.51-1.81,0l-2.26-2.3c-.5-.51-1.31-.51-1.81,0l-1.36,1.38Z" fill="#fff" fill-rule="evenodd" />
    <path d="M33.24,39.16h-6.89c-3.56,0-6.45,2.89-6.45,6.45v27.95c0,3.56,2.89,6.45,6.45,6.45h47.29c3.56,0,6.45-2.89,6.45-6.45v-15.05c0-3.56-2.89-6.45-6.45-6.45H29.58c-1.78,0-3.22-1.44-3.22-3.22s1.44-3.22,3.22-3.22h6.92l-.03-.02c-2-1.15-3.22-3.28-3.22-5.59v-.84Z" fill="#fff" />
    <path d="M63.2,45.61h10.45c0-3.56-2.89-6.45-6.45-6.45h-.44v.68c0,2.39-1.32,4.58-3.43,5.7l-.12,.06Z" fill="#fff" />
</svg>