<svg xmlns="http://www.w3.org/2000/svg" x="0px" y="0px" width="100" height="100"
	 viewBox="0 0 100 100" style="enable-background:new 0 0 100 100;" xml:space="preserve">

<g>
	<g>
		<circle fill="#FFFFFF" cx="50" cy="29" r="9"/>
	</g>
	<g>
		<path fill="#FFFFFF" d="M78,44H50H22c-2,0-2.8,2.5-1.1,3.6L35.5,57c0.7,0.5,1.1,1.4,0.8,2.2l-5.5,18.3c-0.6,2,2,3.4,3.5,1.9l14.2-15
			c0.8-0.9,2.2-0.9,3,0l14.2,15c1.4,1.5,4,0.1,3.5-1.9l-5.5-18.3c-0.2-0.8,0.1-1.7,0.8-2.2l14.6-9.4C80.8,46.5,80,44,78,44z"/>
	</g>
</g>
</svg>
