<?xml version="1.0" encoding="utf-8"?>
<svg xmlns="http://www.w3.org/2000/svg" width="24" height="24" viewBox="0 0 24 24"><style>* { fill: #FFFFFF }</style>
    <g id="help">
        <path id="circle" d="M12.001 2.085c-5.478 0-9.916 4.438-9.916 9.916 0 5.476 4.438 9.914 9.916 9.914 5.476 0 9.914-4.438 9.914-9.914 0-5.478-4.438-9.916-9.914-9.916zm.001 18c-4.465 0-8.084-3.619-8.084-8.083 0-4.465 3.619-8.084 8.084-8.084 4.464 0 8.083 3.619 8.083 8.084 0 4.464-3.619 8.083-8.083 8.083z"/>
        <g id="question-mark">
            <path id="top" d="M11.766 6.688c-2.5 0-3.219 2.188-3.219 2.188l1.411.854s.298-.791.901-1.229c.516-.375 1.625-.625 2.219.125.701.885-.17 1.587-1.078 2.719-.953 1.186-1 3.655-1 3.655h1.969s.135-2.318 1.041-3.381c.603-.707 1.443-1.338 1.443-2.494s-1.187-2.437-3.687-2.437z"/>
            <path id="bottom" d="M11 16h2v2h-2z"/>
        </g>
    </g>
</svg>
