<svg class="D-mail-svg" viewBox="0 0 1024 1024" fill="currentColor">
  <path
    d="M896 160H128a128 128 0 0 0-128 128v416a128 128 0 0 0 128 128h768a128 128 0 0 0 128-128V288a128 128 0 0 0-128-128zM64 328l223.968 168L64 664v-336zM960 704c0 35.328-28.736 64-64 64H128c-35.296 0-64-28.672-64-64l250.624-188 139.776 104.864a96 96 0 0 0 115.168 0l139.808-104.864L960 704z m0-40l-224-168 224-168v336z m-409.632-68.736a63.36 63.36 0 0 1-38.368 12.8 63.68 63.68 0 0 1-38.4-12.8L341.28 496l-26.656-20L64 288.032V288c0-35.296 28.704-64 64-64h768c35.264 0 64 28.704 64 64l-409.632 307.264z">
  </path>
</svg>
