<svg xmlns="http://www.w3.org/2000/svg" viewBox="0 0 512 512" class="ionicon"><path d="M346 110a34 34 0 0 0-68 0v34h34a34 34 0 0 0 34-34M234 110a34 34 0 1 0-34 34h34Z" class="ionicon-fill-none"/><path d="M234 144h44v112h164a22 22 0 0 0 22-22v-68a22 22 0 0 0-22-22h-59.82A77.95 77.95 0 0 0 256 55.79 78 78 0 0 0 129.81 144H70a22 22 0 0 0-22 22v68a22 22 0 0 0 22 22h164Zm44-34a34 34 0 1 1 34 34h-34Zm-112 0a34 34 0 1 1 68 0v34h-34a34 34 0 0 1-34-34M278 480h132a22 22 0 0 0 22-22V288H278ZM80 458a22 22 0 0 0 22 22h132V288H80Z"/></svg>