<svg xmlns="http://www.w3.org/2000/svg" viewBox="0 0 512 512" class="ionicon"><path d="M374.79 308.78 457.5 367a16 16 0 0 0 22.5-14.62V159.62A16 16 0 0 0 457.5 145l-82.71 58.22A16 16 0 0 0 368 216.3v79.4a16 16 0 0 0 6.79 13.08" stroke-linecap="round" stroke-linejoin="round" class="ionicon-fill-none ionicon-stroke-width"/><path d="M268 384H84a52.15 52.15 0 0 1-52-52V180a52.15 52.15 0 0 1 52-52h184.48A51.68 51.68 0 0 1 320 179.52V332a52.15 52.15 0 0 1-52 52Z" stroke-miterlimit="10" class="ionicon-fill-none ionicon-stroke-width"/></svg>