<svg viewBox="0 0 24 24" xmlns="http://www.w3.org/2000/svg"><path d="M10.9998 4.1226V1.99658H12.9998V4.1226C14.725 4.56664 15.9998 6.13274 15.9998 7.99658C15.9998 9.11427 15.5414 10.1249 14.8023 10.8507L20.8658 21.353L19.1338 22.353L13.0708 11.8516C12.7299 11.9461 12.3708 11.9966 11.9998 11.9966C11.6289 11.9966 11.2697 11.9461 10.9288 11.8516L4.86584 22.353L3.13379 21.353L9.1973 10.8507C8.45823 10.1249 7.99981 9.11427 7.99981 7.99658C7.99981 6.13274 9.27459 4.56664 10.9998 4.1226ZM11.9998 8.99658C12.5521 8.99658 12.9998 8.54887 12.9998 7.99658C12.9998 7.4443 12.5521 6.99658 11.9998 6.99658C11.4475 6.99658 10.9998 7.4443 10.9998 7.99658C10.9998 8.54887 11.4475 8.99658 11.9998 8.99658Z"/></svg>