<svg viewBox="0 0 24 24" xmlns="http://www.w3.org/2000/svg"><path d="M11 5.07089C7.93431 5.5094 5.5094 7.93431 5.07089 11H7V13H5.07089C5.5094 16.0657 7.93431 18.4906 11 18.9291V17H13V18.9291C16.0657 18.4906 18.4906 16.0657 18.9291 13H17V11H18.9291C18.4906 7.93431 16.0657 5.5094 13 5.07089V7H11V5.07089ZM3.05493 11C3.51608 6.82838 6.82838 3.51608 11 3.05493V1H13V3.05493C17.1716 3.51608 20.4839 6.82838 20.9451 11H23V13H20.9451C20.4839 17.1716 17.1716 20.4839 13 20.9451V23H11V20.9451C6.82838 20.4839 3.51608 17.1716 3.05493 13H1V11H3.05493ZM14 12C14 13.1046 13.1046 14 12 14C10.8954 14 10 13.1046 10 12C10 10.8954 10.8954 10 12 10C13.1046 10 14 10.8954 14 12Z"/></svg>