<svg class="D-config-svg D-svg" viewBox="0 0 16 16" fill="currentColor" width="16" height="16">
  <path
    d="M153.985882,160.627063c1.15774.000003,2.17477.768562,2.490824,1.882288h9.283294v1.411716h-9.283294c-.316062,1.113718-1.33309,1.882265-2.490824,1.882265s-2.174761-.768547-2.490824-1.882265h-1.735059v-1.411716h1.735059c.316053-1.113727,1.333083-1.882285,2.490824-1.882288Zm0,1.411716c-.649747,0-1.176471.526706-1.176471,1.17643s.526724,1.17643,1.176471,1.17643s1.176471-.526706,1.176471-1.17643-.526724-1.17643-1.176471-1.17643Zm7.529412-7.058582c1.15774.000003,2.17477.768562,2.490824,1.882288h1.753882v1.411716h-1.753882c-.316062,1.113718-1.33309,1.882265-2.490824,1.882265s-2.174761-.768547-2.490824-1.882265h-9.264471v-1.411716h9.264471c.316053-1.113727,1.333083-1.882285,2.490824-1.882288Zm0,1.411716c-.649747,0-1.176471.526706-1.176471,1.17643s.526724,1.17643,1.176471,1.17643s1.176471-.526706,1.176471-1.17643-.526724-1.17643-1.176471-1.17643Zm-7.529412-7.058582c1.15774.000003,2.17477.768562,2.490824,1.882288h9.283294v1.411716h-9.283294c-.316062,1.113718-1.33309,1.882265-2.490824,1.882265s-2.174761-.768547-2.490824-1.882265h-1.735059v-1.411716h1.735059c.316053-1.113727,1.333083-1.882285,2.490824-1.882288Zm0,1.411716c-.649747,0-1.176471.526706-1.176471,1.17643s.526724,1.17643,1.176471,1.17643s1.176471-.526706,1.176471-1.17643-.526724-1.17643-1.176471-1.17643Z"
    transform="translate(-149.76-149.333333)" />
</svg>
