<svg xmlns="http://www.w3.org/2000/svg" height="100" width="100" viewBox="0 0 1000 1000" fill="#fff"><path d="M672 289c-64 26-98 88-102 191h103a80 80 0 1 1 0 40H570c4 103 38 165 102 191a80 80 0 1 1 2 43c-91-28-139-107-144-234h-60a20 20 0 1 1 0-40h60c5-127 53-206 144-234a80 80 0 1 1-2 43Zm78 21a40 40 0 1 0 0-80 40 40 0 0 0 0 80Zm0 460a40 40 0 1 0 0-80 40 40 0 0 0 0 80Zm0-230a40 40 0 1 0 0-80 40 40 0 0 0 0 80ZM451 680H225c-26 0-45-24-45-51 1-40 43-61 86-80 30-13 34-24 34-37s-8-25-17-34a85 85 0 0 1-27-66c0-49 30-92 83-92 54 0 83 43 83 92 0 27-8 49-26 66-11 9-18 21-18 34 0 12 4 24 34 37 43 19 85 40 86 80-3 27-22 51-47 51Z"/></svg>