<?xml version="1.0" encoding="utf-8"?>
<!-- Generator: Adobe Illustrator 16.0.0, SVG Export Plug-In . SVG Version: 6.00 Build 0)  -->
<!DOCTYPE svg PUBLIC "-//W3C//DTD SVG 1.1//EN" "http://www.w3.org/Graphics/SVG/1.1/DTD/svg11.dtd">
<svg version="1.1" id="Layer_1" xmlns="http://www.w3.org/2000/svg" xmlns:xlink="http://www.w3.org/1999/xlink" x="0px" y="0px"
	 width="100px" height="100px" viewBox="0 0 100 100" enable-background="new 0 0 100 100" xml:space="preserve">
<g>
	<path fill="#FFFFFF" d="M78.3,55.3L63.7,40.7c-2.3-2.3-6-2.3-8.3,0L40.7,55.3c-2.3,2.3-2.3,6,0,8.3L55.3,78.2c2.3,2.3,6,2.3,8.3,0
		L78.2,63.6C80.6,61.4,80.6,57.6,78.3,55.3z M50.7,62c-1.4,1.4-3.6,1.4-4.9,0c-1.4-1.4-1.4-3.6,0-4.9c1.4-1.399,3.6-1.399,4.9,0
		C52,58.4,52,60.6,50.7,62z M62,73.3c-1.4,1.4-3.6,1.4-4.9,0C55.7,71.9,55.7,69.7,57.1,68.4c1.4-1.4,3.601-1.4,4.9,0
		C63.3,69.7,63.3,71.9,62,73.3z M62,50.7c-1.4,1.399-3.6,1.399-4.9,0c-1.399-1.4-1.399-3.6,0-4.9c1.4-1.4,3.601-1.4,4.9,0
		C63.3,47.1,63.3,49.3,62,50.7z M73.3,62c-1.399,1.4-3.6,1.4-4.899,0c-1.4-1.4-1.4-3.6,0-4.9C69.8,55.7,72,55.7,73.3,57.1
		C74.7,58.4,74.7,60.6,73.3,62z"/>
	<path fill="#FFFFFF" d="M53,33.5V26c0-3.3-2.7-6-6-6H26c-3.3,0-6,2.7-6,6v21c0,3.3,2.7,6,6,6h7.5c0.6,0,1.2-0.3,1.6-0.7
		c0.3-0.399,0.7-0.8,1.1-1.2L51,36.2c0.4-0.4,0.8-0.7,1.2-1.1C52.7,34.7,53,34.1,53,33.5z M28.5,48c-1.9,0-3.5-1.6-3.5-3.5
		s1.6-3.5,3.5-3.5s3.5,1.6,3.5,3.5S30.4,48,28.5,48z M36.5,40c-1.9,0-3.5-1.6-3.5-3.5s1.6-3.5,3.5-3.5s3.5,1.6,3.5,3.5
		S38.4,40,36.5,40z M44.5,32c-1.9,0-3.5-1.6-3.5-3.5s1.6-3.5,3.5-3.5s3.5,1.6,3.5,3.5S46.4,32,44.5,32z"/>
</g>
</svg>
