<?xml version="1.0" encoding="UTF-8" standalone="no"?>
<svg width="100px" height="100px" viewBox="0 0 100 100" version="1.1" xmlns="http://www.w3.org/2000/svg" xmlns:xlink="http://www.w3.org/1999/xlink">
    <g stroke="none" stroke-width="1" fill="none" fill-rule="evenodd">
        <path d="M61.7142856,20.2285714 L38.2857141,20.2285714 C36.6810199,20.1863609 35.1266176,20.7904639 33.9715675,21.9052215 C32.8165174,23.0199792 32.1576265,24.5519615 32.142857,26.1571429 L32.142857,73.6928571 C32.1742517,77.0608129 34.9176215,79.7722831 38.2857141,79.7642857 L61.7142856,79.7642857 C65.0823782,79.7722831 67.825748,77.0608129 67.8571427,73.6928571 L67.8571427,26.1571429 C67.8423732,24.5519615 67.1834823,23.0199792 66.0284322,21.9052215 C64.8733821,20.7904639 63.3189798,20.1863609 61.7142856,20.2285714 L61.7142856,20.2285714 Z M45.642857,23.6571429 L54.3571427,23.6571429 C54.6498429,23.6646517 54.8853482,23.900157 54.892857,24.1928571 C54.8612678,24.4746052 54.6388908,24.6969822 54.3571427,24.7285714 L45.642857,24.7285714 C45.3469902,24.7285714 45.1071427,24.488724 45.1071427,24.1928571 C45.1071427,23.8969903 45.3469902,23.6571429 45.642857,23.6571429 L45.642857,23.6571429 Z M53.392857,75.5142857 C53.3378278,75.8560437 53.0220671,76.0928642 52.6785713,76.05 L47.142857,76.05 C46.8501568,76.0424912 46.6146515,75.8069859 46.6071427,75.5142857 L46.6071427,73.0142857 C46.6071427,72.7642857 46.892857,72.3714286 47.142857,72.3714286 L52.7142856,72.3714286 C53.0824842,72.3695834 53.3917556,72.6479276 53.4285713,73.0142857 L53.4285713,75.5142857 L53.392857,75.5142857 Z M64.3214284,68.1571429 C64.3260497,68.335354 64.2547812,68.5071454 64.1253649,68.6297504 C63.9959485,68.7523553 63.8205584,68.8142406 63.642857,68.8 L36.3571427,68.8 C36.1736429,68.8253562 35.9883019,68.7684797 35.8506116,68.6445584 C35.7129213,68.5206371 35.6369033,68.3422905 35.642857,68.1571429 L35.642857,28.6571429 C35.6331561,28.4581722 35.703011,28.2635163 35.8370121,28.116115 C35.9710133,27.9687138 36.1581505,27.8806783 36.3571427,27.8714286 L63.6071427,27.8714286 C64.0073431,27.9091674 64.3066313,28.2557117 64.2857141,28.6571429 L64.2857141,68.1571429 L64.3214284,68.1571429 Z" id="defb4377-07b0-4e21-afaa-4347d5c8cfe7" fill="#FFFFFF"></path>
    </g>
</svg>