<?xml version="1.0" encoding="UTF-8"?><svg xmlns="http://www.w3.org/2000/svg" width="20" height="20" viewBox="0 0 20 20"><title>
		Wikisource logo
	</title><g fill="#fff" fill-rule="evenodd" clip-rule="evenodd"><path d="M9.937 0a9.993 9.993 0 0 0-8.08 4.197h16.287A9.989 9.989 0 0 0 10.002 0h-.065ZM1.28 5.11A9.945 9.945 0 0 0 0 10c0 5.52 4.482 10 10.002 10C15.521 20 20 15.52 20 10a9.944 9.944 0 0 0-1.277-4.89H1.279Zm.577-.913c-.209.293-.4.597-.578.912h17.445a9.696 9.696 0 0 0-.58-.912H1.858Z"/><path d="M14.272 1.122a.513.513 0 0 0-.133.023c-.446.678-.444 2.924-.439 3.41h.003c.66.14 1.533-.02 1.563-.622.05-.793.1-1.563-.34-2.057-.404.176-.328-.534-.491-.693a.206.206 0 0 0-.163-.061Z"/><path d="M14.139 1.145c-.235.068-.521.272-.662.337-.123.013-.352.004-.522.045-.365.09-.698.303-.89.637-.248-.687-.78.158-1.412.645-.35-.252-1.054-.752-1.7-1.075-.52.25-1.064 1.099-1.387 1.17-.336.06-.81.025-1.008.252-.327.323-.429.693-.492 1.04.77.259 1.576.267 2.344.167.437-.1.748.04 1.197.025 1.365.056 2.842-.103 4.093.167-.005-.486-.007-2.732.439-3.41Z"/><path d="M9.583 2.498c.164.47.306.94.252 1.411-.06.291.071.271.315.156.239-.124.365-.26.718-.371.273-.072.08-.263-.05-.395-.39-.351-.813-.573-1.235-.8Zm1.4 2.612c.287 3.62 2.85 4.064 4.463 3.332-.806-.757-.514-2.3.347-2.316 1.592-.037 1.139 2.784 1.139 4.153.87-.168.813-3.292.628-5.17h-6.577Z"/><path d="m2.739 5.11.093.934c.21.366.367.731.323 1.097.416-.098.664-.148.888.256.979.578 1.909.647 2.824.561.186 2.1.131 3.79.053 6.301.556.876 1.112 1.707 1.668 2.583.32.532.88.7 1.318.071l1.129-.484v.535c.578.138 1.15.348.887.919-.2.369-.087.533.482.287.502-.233.812.127 1.074.191-.374-.377-.052-1.12-.04-1.889.536-.046 1.149-.507 1.685-.554 1.103-1.015 1.293-1.393 1.29-2.704.111-.34.27-.43.19-1.021.062-.366.15-.845.212-1.21l.126-.706-.01.002c0-1.37.454-4.19-1.138-4.153-.86.017-1.153 1.56-.347 2.316a3.344 3.344 0 0 1-.594.205c.065.357-.207.724-.563.739-.355-.03-.878.304-1.21 1.072-.529 1.06-1.01.137-1.204-.147-.248-.313.056-.603-.624-.415-.449.132-1.018.219-1.154-.424C9.523 8.919 8.973 8.434 8.4 7.88c-.23-.259-.039-.472-.037-.563V7.31l-.002-.004a.045.045 0 0 0-.005-.01v-.003l-.002-.002a.107.107 0 0 0-.005-.004l-.006-.004-.003-.002-.01-.003c-.223-.134-.495.028-.79.144-.773.135-1.074.005-1.158-.382.005-.64-.375-.573-.995-.484-1.786.241-2.075-.359-2.596-1.446h-.052Z"/><path d="M2.79 5.11c.521 1.086.81 1.686 2.597 1.445.62-.09 1-.156.995.484.084.387.385.517 1.158.382.295-.116.567-.278.79-.144l.01.003.003.002.006.004a.096.096 0 0 1 .004.004l.002.002a.267.267 0 0 1 .006.013l.002.004v.009c-.002.091-.193.304.036.563.574.553 1.124 1.038 1.697 1.59.137.644.706.557 1.155.425.68-.188.376.102.624.415.193.284.675 1.206 1.204.147.332-.768.855-1.102 1.21-1.072.356-.015.628-.382.563-.739-1.583.382-3.616-.337-3.87-3.538H2.791Zm5.354 4.158c-.515.032-.247 1.665-.19 2.439.076.761.255.582.815.25.258.496.101.773-.264 1.094-.271.243-.427.607-.191 1.025.072.114.132.162.216.342.056.106.11.213.167.32a.5.5 0 0 1-.117.507c-.1.136-.12.274.011.65.071.219-.124.48.178.71.134.098.265.172.399.227-.117-.321-.12-.785-.063-1.183.038-.375.065-.608.426-.863.315-.153.227-.962.254-1.443l.011.007v-.007c.674-.135.299-.646.092-1.137L8.24 9.28a.311.311 0 0 0-.09-.012h-.006Z"/><path d="m8.24 9.28 1.648 2.926c.207.49.582 1.002-.092 1.137.06.342.507.64 1.003.6.516-.031.89.335 1.06.704a6.08 6.08 0 0 1 .18-1.211c.066-.197.444-.373.13-.636-1.27-1.327-2.495-2.37-3.869-3.5a.474.474 0 0 0-.06-.02Z"/><path d="M9.785 13.343c-.027.48.06 1.29-.254 1.443-.361.255-.388.488-.426.863-.057.399-.054.863.063 1.184.119.048.24.081.37.102.219.018.356.07.816-.01.403-.044.645-.231 1.105-.297.252-.047.422-.138.408-.502-.02-.497-.035-.99-.008-1.479-.17-.37-.545-.735-1.06-.704-.49.04-.933-.251-1.001-.588v-.003l-.013-.01Zm4.299-3.938c-.332.085-.733.423-1.005 1.053-.124.248-.245.388-.361.452.011 1.082.282 1.852.843 2.274-.166.626-.332 1.49-.03 2.012-.51-.153-.302.818-.453 1.227-.255.68-.478.65-.717.71.218.236.498.487.92.635v.003c0 .003.003.008.005.012.032.045.173.094.241.145.122.032.29.004.411-.172.168-.346.14-.634.592-.95.261-.18.57-.854.593-.888-.894-.476-1.317-1.385-1.173-2.26.042-.242.208-.513-.015-.903-.267-1.07-.097-2.315.149-3.35Z"/></g></svg>
