<svg xmlns="http://www.w3.org/2000/svg" height="100" width="100" viewBox="0 0 1000 1000" fill="#fff"><path d="M200 333.4a134.3 134.3 0 0 1 130-134.3h335.6a134.5 134.5 0 0 1 0 268.9H330a134.4 134.4 0 0 1-130-134.6Zm134.4 75.3a75.3 75.3 0 1 0-75.2-75.3 75.8 75.8 0 0 0 75.2 75.3ZM200 664.6A134.4 134.4 0 0 1 330 530h335.6a134.5 134.5 0 0 1 0 268.9H330a134.3 134.3 0 0 1-130-134.3ZM670.6 570H329.4a95.3 95.3 0 0 0 0 190h341.2a95.3 95.3 0 0 0 0-190Zm-5 160a65.3 65.3 0 1 1 65.2-65.2 65.8 65.8 0 0 1-65.2 65.2Z"/></svg>