<svg xmlns="http://www.w3.org/2000/svg" height="100" width="100" viewBox="0 0 1000 1000" fill="#fff"><path d="M770 200H230a30 30 0 0 0-30 30v119a30 30 0 0 0 30 30h540a30 30 0 0 0 30-30V230a30 30 0 0 0-30-30Zm-221 90a49 49 0 0 1-49 49 50 50 0 1 1 49-51Zm221 120H230a30 30 0 0 0-30 30v119a30 30 0 0 0 30 30h540a30 30 0 0 0 30-30V440a30 30 0 0 0-30-30Zm-301 89a48 48 0 0 1-49 50 50 50 0 1 1 49-51Zm150 0a48 48 0 0 1-49 50 50 50 0 1 1 49-51Zm151 121H230a30 30 0 0 0-30 30v120a30 30 0 0 0 30 30h540a30 30 0 0 0 30-30V650a30 30 0 0 0-30-30Zm-371 89a48 48 0 0 1-49 50 50 50 0 1 1 49-51Zm150 0a48 48 0 0 1-49 50 50 50 0 1 1 49-51Zm150 0a48 48 0 0 1-49 50 50 50 0 1 1 49-51Z"/></svg>