<?xml version="1.0" encoding="utf-8"?>
<!-- Generator: Adobe Illustrator 16.0.0, SVG Export Plug-In . SVG Version: 6.00 Build 0)  -->
<!DOCTYPE svg PUBLIC "-//W3C//DTD SVG 1.1//EN" "http://www.w3.org/Graphics/SVG/1.1/DTD/svg11.dtd">
<svg version="1.1" id="Layer_1" xmlns="http://www.w3.org/2000/svg" xmlns:xlink="http://www.w3.org/1999/xlink" x="0px" y="0px"
	 width="100px" height="100px" viewBox="0 0 100 100" enable-background="new 0 0 100 100" xml:space="preserve">
<g>
	<path fill="#FFFFFF" d="M72.1,67H21.9c-1,0-1.9,0.9-1.9,1.9V69c0,3.3,2.7,6,6,6h42c3.3,0,6-2.7,6-6v-0.1C74,67.9,73.1,67,72.1,67z"
		/>
	<path fill="#FFFFFF" d="M70,27h-2.1H57H22.1c-1,0-1.8,0.9-1.9,2c-0.3,2.7-0.3,7.5,0.1,10.4c1.3,9.3,6.3,17.2,13.2,21.4
		c0.3,0.2,0.7,0.3,1,0.3h20.9c0.399,0,0.699-0.1,1-0.3c3.899-2.399,7.3-6,9.6-10.4c1.2,0.4,2.5,0.6,3.9,0.6c6.6,0,12-5.4,12-12
		S76.6,27,70,27z M70,45c-0.5,0-1-0.1-1.5-0.2c1-3.2,1.5-6.6,1.5-10.2c0-0.4,0-1,0-1.6l0,0c3.3,0,6,2.7,6,6S73.3,45,70,45z"/>
</g>
</svg>
