<svg xmlns="http://www.w3.org/2000/svg" height="64" width="56" viewBox="0 0 5600 6400"><path fill="#056764" d="M511 1A507 507 0 0 0 4 509v5384c0 280 227 507 507 507h4578c280 0 507-227 507-507V2032L3706 1z"/><path fill="#024d4c" d="M5596 2038v100H4316s-631-126-613-671c0 0 21 571 601 571z"/><path fill="#acf3e4" d="M3706 3v1456c0 165 110 579 610 579h1280z"/><path fill="#fff" d="m2709 3933 211-210H1050s-37 2-37 40v135c0 19 18 35 38 35zm-732 727 210-210H1050s-37 1-37 40v135c0 19 19 35 38 35zm-506 730 27-210h-448s-37 2-37 40v135c0 19 19 35 38 35zm88-3s167-3 201-11 41-14 53-27l1311-1310s-50 42-159-69c-87-87-49-140-49-140L1617 5129c-24 26-25 40-27 51-3 10-31 207-31 207zm1515-1716-106 106c-9 12-18 23-10 58s68 136 166 163c0 0 29 11 54-13l109-110s20-17 4-62c-16-44-81-124-158-154-39-14-59 12-59 12z"/></svg>