<?xml version="1.0" encoding="utf-8"?>
<svg xmlns="http://www.w3.org/2000/svg" width="24" height="24" viewBox="0 0 24 24">
    <g id="indent-list-ltr">
        <path id="arrow" d="M5 15.079l4.794-3.527-4.704-3.599-.01 2.047h-2.08v3h2z"/>
        <path id="bottom_line" d="M20 17h-16c-.553 0-1 .447-1 1v1c0 .553.447 1 1 1h16c.553 0 1-.447 1-1v-1c0-.553-.447-1-1-1z"/>
        <path id="middle_line" d="M20 10h-7c-.553 0-1 .447-1 1v1c0 .553.447 1 1 1h7c.553 0 1-.447 1-1v-1c0-.553-.447-1-1-1z"/>
        <path id="top_line" d="M20 3h-16c-.553 0-1 .447-1 1v1c0 .553.447 1 1 1h16c.553 0 1-.447 1-1v-1c0-.553-.447-1-1-1z"/>
    </g>
</svg>
