<svg xmlns="http://www.w3.org/2000/svg" viewBox="0 0 512 512" class="ionicon"><path d="M352 128H160a32 32 0 0 0-32 32v192a32 32 0 0 0 32 32h192a32 32 0 0 0 32-32V160a32 32 0 0 0-32-32m0 216a8 8 0 0 1-8 8H168a8 8 0 0 1-8-8V168a8 8 0 0 1 8-8h176a8 8 0 0 1 8 8Z" fill="none"/><rect width="192" height="192" x="160" y="160" rx="8" ry="8"/><path d="M464 192a16 16 0 0 0 0-32h-16v-32a64.07 64.07 0 0 0-64-64h-32V48a16 16 0 0 0-32 0v16h-48V48a16 16 0 0 0-32 0v16h-48V48a16 16 0 0 0-32 0v16h-32a64.07 64.07 0 0 0-64 64v32H48a16 16 0 0 0 0 32h16v48H48a16 16 0 0 0 0 32h16v48H48a16 16 0 0 0 0 32h16v32a64.07 64.07 0 0 0 64 64h32v16a16 16 0 0 0 32 0v-16h48v16a16 16 0 0 0 32 0v-16h48v16a16 16 0 0 0 32 0v-16h32a64.07 64.07 0 0 0 64-64v-32h16a16 16 0 0 0 0-32h-16v-48h16a16 16 0 0 0 0-32h-16v-48Zm-80 160a32 32 0 0 1-32 32H160a32 32 0 0 1-32-32V160a32 32 0 0 1 32-32h192a32 32 0 0 1 32 32Z"/></svg>