<svg xmlns="http://www.w3.org/2000/svg" viewBox="0 0 512 512" class="ionicon"><path d="m447.88 313.27 19.25-10.64-21.28-38.51-19.25 10.64a133.4 133.4 0 0 0-38.54 32.1L300 256l88.07-50.86a133.4 133.4 0 0 0 38.54 32.1l19.25 10.64 21.28-38.51-19.25-10.64a89.3 89.3 0 0 1-20.93-16L480 152.05 458 114l-53 30.58a89 89 0 0 1-3.42-26.15l.41-22-44-.82-.41 22a133.6 133.6 0 0 0 8.49 49.39L278 217.89V116.18a133.5 133.5 0 0 0 47.06-17.33L343.9 87.5l-22.71-37.69-18.84 11.35A89.5 89.5 0 0 1 278 71.27V16h-44v55.27a89.5 89.5 0 0 1-24.35-10.11l-18.84-11.35L168.1 87.5l18.84 11.35A133.5 133.5 0 0 0 234 116.18v101.71L145.93 167a133.6 133.6 0 0 0 8.53-49.43l-.41-22-44 .82.41 22a89 89 0 0 1-3.42 26.15L54 114l-22 38.1 53.05 30.64a89.3 89.3 0 0 1-20.93 16l-19.25 10.63 21.28 38.51 19.25-10.64a133.4 133.4 0 0 0 38.54-32.1L212 256l-88.07 50.86a133.4 133.4 0 0 0-38.54-32.1l-19.24-10.64-21.28 38.51 19.25 10.64a89.3 89.3 0 0 1 20.93 16L32 360l22 38.1 53.05-30.63a89 89 0 0 1 3.42 26.15l-.41 22 44 .82.41-22a133.6 133.6 0 0 0-8.54-49.44L234 294.11v101.71a133.5 133.5 0 0 0-47.06 17.33L168.1 424.5l22.71 37.69 18.84-11.35A89.5 89.5 0 0 1 234 440.73V496h44v-55.27a89.5 89.5 0 0 1 24.35 10.11l18.84 11.35 22.71-37.69-18.84-11.35A133.5 133.5 0 0 0 278 395.82V294.11L366.07 345a133.6 133.6 0 0 0-8.53 49.43l.41 22 44-.82-.41-22a89 89 0 0 1 3.46-26.19l53 30.63L480 360l-53-30.69a89.3 89.3 0 0 1 20.88-16.04"/></svg>