<svg xmlns="http://www.w3.org/2000/svg" width="24" height="24" viewBox="0 0 24 24"><path d="M12,2C6.486,2,2,5.589,2,10c0,2.908,1.898,5.515,5,6.934V22l5.34-4.005C17.697,17.852,22,14.32,22,10 C22,5.589,17.514,2,12,2z M12,16h-0.333L9,18v-2.417l-0.641-0.247C5.67,14.301,4,12.256,4,10c0-3.309,3.589-6,8-6s8,2.691,8,6 S16.411,16,12,16z"/><path d="M8.503 11.589L8.503 12.987 9.901 12.987 13.771 9.123 12.372 7.725z"/><path transform="rotate(-134.999 14.264 7.232)" d="M13.275 6.478H15.253V7.987H13.275z"/></svg>