<svg width="24" height="24" viewBox="0 0 24 24" stroke-width="1.5" fill="none" xmlns="http://www.w3.org/2000/svg">
<path d="M6 4H9C9 4 9 7 12 7C15 7 15 4 15 4H18M18 11V19.4C18 19.7314 17.7314 20 17.4 20H6.6C6.26863 20 6 19.7314 6 19.4L6 11" stroke="currentColor" stroke-linecap="round" stroke-linejoin="round"/>
<path d="M18 4L22.4429 5.77717C22.7506 5.90023 22.9002 6.24942 22.7772 6.55709L21.1509 10.6228C21.0597 10.8506 20.8391 11 20.5938 11H18" stroke="currentColor" stroke-linecap="round" stroke-linejoin="round"/>
<path d="M5.99993 4L1.55701 5.77717C1.24934 5.90023 1.09969 6.24942 1.22276 6.55709L2.84906 10.6228C2.94018 10.8506 3.1608 11 3.40615 11H5.99993" stroke="currentColor" stroke-linecap="round" stroke-linejoin="round"/>
</svg>
