<?xml version="1.0" encoding="UTF-8"?><svg xmlns="http://www.w3.org/2000/svg" width="20" height="20" viewBox="0 0 20 20"><title>
		instance
	</title><path d="m11.414 18.154 4.062-5.803.1-.148L17.116 10l-1.542-2.203-.099-.148-2.914-4.164-1.148-1.64a2 2 0 0 1 2.783.496l4.559 6.512a2 2 0 0 1 0 2.294l-4.559 6.512a2 2 0 0 1-2.783.495Zm2.342-9.301L9.197 2.341a2 2 0 0 0-3.277 0L1.362 8.853a2 2 0 0 0 0 2.294l4.558 6.512a2 2 0 0 0 3.277 0l4.559-6.512a2 2 0 0 0 0-2.294M5.92 17.659l1.639-1.147L3 10l4.56-6.513 1.638-1.146L7.56 3.488 12.117 10 7.56 16.512 5.92 17.66Z"/></svg>
