<svg viewBox="0 0 24 24" xmlns="http://www.w3.org/2000/svg"><path d="M4.92893 2.92871L6.34315 4.34292C4.89543 5.79064 4 7.79064 4 9.99978C4 12.2089 4.89543 14.2089 6.34315 15.6566L4.92893 17.0708C3.11929 15.2612 2 12.7612 2 9.99978C2 7.23835 3.11929 4.73836 4.92893 2.92871ZM19.0711 2.92871C20.8807 4.73836 22 7.23835 22 9.99978C22 12.7612 20.8807 15.2612 19.0711 17.0708L17.6569 15.6566C19.1046 14.2089 20 12.2089 20 9.99978C20 7.79064 19.1046 5.79064 17.6569 4.34292L19.0711 2.92871ZM7.75736 5.75714L9.17157 7.17135C8.44771 7.89521 8 8.89521 8 9.99978C8 11.1043 8.44771 12.1043 9.17157 12.8282L7.75736 14.2424C6.67157 13.1566 6 11.6566 6 9.99978C6 8.34292 6.67157 6.84292 7.75736 5.75714ZM16.2426 5.75714C17.3284 6.84292 18 8.34292 18 9.99978C18 11.6566 17.3284 13.1566 16.2426 14.2424L14.8284 12.8282C15.5523 12.1043 16 11.1043 16 9.99978C16 8.89521 15.5523 7.89521 14.8284 7.17135L16.2426 5.75714ZM12 11.9998C10.8954 11.9998 10 11.1043 10 9.99978C10 8.89521 10.8954 7.99978 12 7.99978C13.1046 7.99978 14 8.89521 14 9.99978C14 11.1043 13.1046 11.9998 12 11.9998ZM11 13.9998H13V21.9998H11V13.9998Z"/></svg>