<svg xmlns="http://www.w3.org/2000/svg" width="24" height="24" viewBox="0 0 24 24"><path d="M19.616,6.48l0.014-0.017l-4-3.24l-1.26,1.554l2.067,1.674c-0.991,0.611-1.609,1.769-1.395,3.058 c0.149,0.899,0.766,1.676,1.565,2.112c0.897,0.49,1.685,0.446,2.384,0.197L18.976,18c0,0.137-0.026,0.268-0.078,0.391 c-0.05,0.117-0.123,0.225-0.217,0.318c-0.09,0.09-0.198,0.164-0.315,0.213c-0.246,0.104-0.532,0.104-0.78,0 c-0.116-0.049-0.225-0.123-0.318-0.217c-0.09-0.09-0.163-0.197-0.213-0.314c-0.052-0.123-0.078-0.254-0.078-0.391L17,16 c0-0.404-0.079-0.797-0.236-1.168c-0.151-0.357-0.368-0.68-0.641-0.951c-0.275-0.275-0.597-0.492-0.954-0.645 C14.798,13.08,14.405,13,14,13h-1v-2V9V5c0-1.103-0.897-2-2-2H4C2.897,3,2,3.897,2,5v14c0,1.103,0.897,2,2,2h7 c1.103,0,2-0.897,2-2v-4h1c0.136,0,0.267,0.027,0.391,0.078c0.116,0.051,0.225,0.123,0.318,0.217 c0.09,0.09,0.163,0.199,0.213,0.316C14.974,15.734,15,15.865,15,16l-0.024,2c0,0.406,0.079,0.799,0.236,1.168 c0.151,0.359,0.368,0.68,0.641,0.951c0.275,0.277,0.597,0.494,0.954,0.645C17.178,20.922,17.57,21,17.976,21 s0.798-0.078,1.168-0.236c0.358-0.15,0.68-0.367,0.951-0.641c0.276-0.275,0.493-0.596,0.645-0.953 c0.157-0.371,0.236-0.764,0.236-1.17L21,9C21,7.941,20.446,7.016,19.616,6.48z M4,5h7l0.001,4H4V5z M4,19v-8h7.001l0.001,8H4z M18,10c-0.552,0-1-0.448-1-1c0-0.551,0.448-1,1-1s1,0.449,1,1C19,9.552,18.552,10,18,10z"/></svg>