<svg xmlns="http://www.w3.org/2000/svg" width="24" height="24"><circle cx="9.67" cy="13" r="1.001"/><path d="M14.09 15.391A3.28 3.28 0 0 1 12 16a3.271 3.271 0 0 1-2.081-.63.27.27 0 0 0-.379.38c.71.535 1.582.809 2.471.77a3.811 3.811 0 0 0 2.469-.77v.04a.284.284 0 0 0 .006-.396.28.28 0 0 0-.396-.003zm.209-3.351a1 1 0 0 0 0 2l-.008.039c.016.002.033 0 .051 0a1 1 0 0 0 .958-1.038 1 1 0 0 0-1.001-1.001z"/><path d="M12 2C6.479 2 2 6.477 2 12c0 5.521 4.479 10 10 10s10-4.479 10-10c0-5.523-4.479-10-10-10zm5.859 11.33c.012.146.012.293 0 .439 0 2.24-2.609 4.062-5.83 4.062s-5.83-1.82-5.83-4.062a2.681 2.681 0 0 1 0-.439 1.46 1.46 0 0 1-.455-2.327 1.458 1.458 0 0 1 2.063-.063 7.145 7.145 0 0 1 3.899-1.23l.743-3.47v-.004A.313.313 0 0 1 12.82 6l2.449.49a1.001 1.001 0 1 1-.131.61L13 6.65l-.649 3.12a7.123 7.123 0 0 1 3.85 1.23 1.46 1.46 0 0 1 2.469 1c.01.563-.307 1.08-.811 1.33z"/></svg>