<svg xmlns="http://www.w3.org/2000/svg" x="0px" y="0px"
	 width="52px" height="52px" viewBox="0 0 52 52" enable-background="new 0 0 52 52" xml:space="preserve">
<g>
	<path fill="#FFFFFF" d="M45.5,10H32.9V6c0-2.2-1.8-4-4-4h-6c-2.2,0-4,1.8-4,4v4H6.4c-0.8,0-1.5,0.7-1.5,1.5v3
		c0,0.8,0.7,1.5,1.5,1.5h39c0.8,0,1.5-0.7,1.5-1.5v-3C46.9,10.7,46.3,10,45.5,10z M28.8,10h-5.9V7c0-0.6,0.4-1,1-1h4
		c0.6,0,1,0.4,1,1V10z"/>
	<path fill="#FFFFFF" d="M41.5,20h-31c-0.8,0-1.5,0.7-1.5,1.5V45c0,2.8,2.2,5,5,5h24c2.8,0,5-2.2,5-5V21.5
		C42.9,20.7,42.3,20,41.5,20z M23.2,44.9l-5,0.1c-0.2,0-2.1,0-3.4-2c-1.4-2.2-0.3-4,1.2-6.6l-1.4-1c-0.2-0.1-0.2-0.2-0.2-0.4
		c0-0.2,0.1-0.2,0.3-0.3l3.9-1l0.3-0.1c0.2,0,0.3,0,0.5,0.3l0.1,0.3l0.9,4c0,0.2,0,0.3-0.2,0.4c-0.2,0.1-0.3,0.1-0.5,0l-1.3-0.8
		c-1.4,2.3-1.6,3-1.2,3.6c0.4,0.6,1,0.7,1,0.7l5-0.1c0.5,0,1,0.2,1.2,0.6c0.2,0.2,0.2,0.5,0.2,0.7C24.7,44.2,24,44.9,23.2,44.9z
		 M26.8,30.3c0-0.2,0.1-0.3,0.2-0.4l1.4-0.6c-1.2-2.4-1.7-3-2.4-3c-0.8,0-1,0.4-1.1,0.5L22.3,31c-0.2,0.4-0.7,0.6-1.2,0.6
		c-0.2,0-0.5-0.1-0.7-0.2c-0.6-0.4-0.9-1.3-0.4-1.9l2.6-4.2c0.1-0.2,1.1-1.8,3.4-1.8c2.6,0,3.5,1.9,5,4.6l1.6-0.7
		c0.2-0.1,0.3,0,0.4,0.1c0.1,0.1,0.2,0.2,0.1,0.4L31.7,32c0,0.1-0.1,0.2-0.2,0.2c-0.2,0.1-0.3,0-0.3,0l-4.1-1.5
		C26.9,30.6,26.8,30.5,26.8,30.3z M37.3,42.6c-1.2,2.2-3.4,2.2-6.4,2.2l-0.1,1.8c0,0.2-0.1,0.3-0.2,0.3c-0.1,0-0.2,0.1-0.4-0.1
		l-3-3.1c-0.2-0.2,0-0.5,0-0.5l0.2-0.2l3.2-2.8c0.2-0.1,0.2-0.2,0.4-0.1c0.2,0.1,0.2,0.2,0.2,0.4L31.2,42c2.6,0,3.4-0.1,3.8-0.7
		c0.3-0.6,0.2-1.1,0.1-1.2l-2.5-4.3c-0.2-0.4-0.2-1,0-1.4c0.2-0.2,0.3-0.4,0.6-0.6c0.6-0.4,1.5-0.2,1.9,0.6l2.5,4.3
		C37.6,38.9,38.4,40.5,37.3,42.6z"/>
</g>
</svg>
