<svg xmlns="http://www.w3.org/2000/svg" viewBox="0 0 64 64" enable-background="new 0 0 64 64"><path fill="#1b75bb" d="M64.169,57.25c0,3.823-3.095,6.92-6.918,6.92H6.914C3.097,64.17,0,61.073,0,57.25V6.916    C0,3.099,3.097,0,6.914,0h50.337c3.823,0,6.918,3.099,6.918,6.916V57.25z"/><path fill="#0867a3" d="m0 48.861v8.389c0 3.823 3.097 6.92 6.914 6.92h50.34c3.823 0 6.918-3.097 6.918-6.92v-50.33c-10.959 39.803-50.35 42.33-64.17 41.945"/><path fill="#fff" d="m29.924 49.14v-26.393c-4.912 3.771-8.217 5.655-9.918 5.655-.814 0-1.534-.323-2.16-.972-.631-.646-.944-1.397-.944-2.247 0-.986.31-1.709.928-2.178.619-.461 1.711-1.06 3.278-1.795 2.34-1.102 4.212-2.261 5.611-3.479 1.401-1.218 2.645-2.582 3.728-4.09 1.084-1.51 1.786-2.438 2.115-2.785.329-.349.952-.521 1.859-.521 1.024 0 1.845.394 2.468 1.187.614.792.924 1.886.924 3.278v33.21c0 3.887-1.324 5.83-3.972 5.83-1.178 0-2.126-.398-2.842-1.19-.719-.793-1.075-1.963-1.075-3.509"/></svg>