<svg xmlns="http://www.w3.org/2000/svg" viewBox="0 0 64 64" enable-background="new 0 0 64 64"><circle fill="#405866" cx="32" cy="32" r="32"/><g fill="#4f6977"><circle cx="29.31" cy="52.982" r="9.262"/><path d="m41.943 24.333c0 2.172-1.765 3.932-3.937 3.932-2.17 0-3.932-1.76-3.932-3.932 0-2.171 1.762-3.931 3.932-3.931 2.173 0 3.937 1.759 3.937 3.931"/><circle cx="5.863" cy="36.434" r="3.86"/><circle cx="6.211" cy="18.742" r="2.204"/><circle cx="17.477" cy="19.481" r="3.446"/><path d="m47.792 10.867c0 2.681-2.173 4.853-4.854 4.853-2.678 0-4.853-2.172-4.853-4.853 0-2.681 2.175-4.854 4.853-4.854 2.681 0 4.854 2.173 4.854 4.854"/></g></svg>