<svg xmlns="http://www.w3.org/2000/svg" viewBox="0 0 64 64" enable-background="new 0 0 64 64"><path fill="#f05a28" d="m53.44 28.481c0 14.503-11.754 26.26-26.26 26.26s-26.26-11.755-26.26-26.26c0-14.507 11.753-15.945 26.26-15.945s26.26 1.438 26.26 15.945"/><path fill="#d14227" d="m15.84 28.481c0-12.643 7.191-15.359 16.773-15.848-1.752-.074-3.568-.098-5.43-.098-14.506 0-26.26 1.438-26.26 15.945 0 14.503 11.753 26.26 26.26 26.26 1.862 0 3.678-.199 5.43-.566-9.582-2.504-16.773-13.05-16.773-25.691"/><path fill="#04a69c" d="m12.534 8.776c-5.532 1.619-12.713 15.234-12.531 18.12.184 2.876 10.771-3.521 16.926-6.58 6.333-3.148 12.844-6.106 12.66-8.987-.184-2.884-11.525-4.169-17.05-2.556"/><g fill="#8a5d3b"><path d="m34.61 1.785c.07.195-.656 1.25-.756 1.315-2.542 1.584-4.834 8.385-5.11 9.364-.637 2.271-2.587 4.193-3.453 3.408-.827-.756-.08-5.642.031-6.63.279-2.417 1.354-5.09 2.813-7.04 1.54-2.064 5.366-3.504 6.475-.415"/><path d="m61.4 27.11c-.131-.055-.711.465-.742.535-.713 1.864-4.736 3.42-5.318 3.607-1.36.426-2.354 1.836-1.759 2.5.566.63 3.562.181 4.17.118 1.488-.153 3.056-.896 4.119-1.943 1.124-1.101 1.601-3.922-.47-4.817"/></g><path fill="#f05a28" d="m61.852 38.912c3.534 8.01-2.229 18.305-12.867 22.998-10.642 4.694-22.13 2.01-25.664-5.998-3.533-8.01 2.228-18.31 12.867-23 10.639-4.697 22.13-2.01 25.664 6"/><path fill="#d14227" d="m32.41 55.908c-3.533-8.01 2.228-18.31 12.867-23 1.964-.868 3.955-1.477 5.919-1.852-4.541-.946-9.87-.415-15.01 1.852-10.64 4.693-16.4 14.991-12.867 23 2.88 6.53 11.05 9.516 19.743 7.851-4.865-1.01-8.826-3.712-10.653-7.851"/><path fill="#faaf40" d="m57.723 33.534c2.065 4.683-4.229 11.994-14.06 16.328-9.824 4.334-19.467 4.057-21.533-.625-2.067-4.683 4.229-11.994 14.05-16.328 9.827-4.334 19.468-4.056 21.536.625"/><path fill="#8a5d3b" d="m48.689 36.02c.725 1.648-3.03 4.904-8.393 7.269-5.362 2.368-10.298 2.946-11.03 1.297-.727-1.648 3.03-4.904 8.394-7.272 5.365-2.366 10.301-2.944 11.03-1.294"/></svg>