<svg xmlns="http://www.w3.org/2000/svg" viewBox="0 0 64 64" enable-background="new 0 0 64 64"><g transform="translate(0 14)"><ellipse cx="31.969" cy="29.21" rx="28.921" ry="19.221" fill="#eea643"/><path d="m16.672 28.691c0-8.865 9.03-16.321 21.305-18.543-1.938-.272-3.947-.417-6.01-.417-15.973 0-28.921 8.604-28.921 19.221 0 10.615 12.948 19.219 28.921 19.219 2.635 0 5.189-.237 7.616-.678-13.09-1.838-22.913-9.555-22.913-18.802" fill="#c58231"/><ellipse cx="31.969" cy="19.404" rx="31.969" ry="19.404" fill="#61453f"/><path d="m39.776 16.04c0 1.86-3.496 3.365-7.808 3.365-4.313 0-7.807-1.505-7.807-3.365 0-1.854 3.494-3.359 7.807-3.359 4.312 0 7.808 1.505 7.808 3.359" fill="#eea643"/><g fill="#3d2725"><path d="m12.378 12.58c1.223.094 2.463-.654 2.562-1.998.138-1.834-1.392-3-3.122-2.52-1.01.28-1.848.966-2.39 1.838-.724.693-1.32 1.599-1.739 2.491-.715 1.513 1.537 2.837 2.251 1.316.078-.166.21-.433.372-.734.757.094 1.452-.058 2.066-.393"/><path d="m18.09 28.372c-1.378-.729-2.862-1.159-4.358-1.57-.382-.103-.762.006-1.065.222-.892-.61-2.413.537-1.844 1.827.968 2.208 3.603 3.597 5.957 3.521.943-.031 1.472-.925 1.225-1.716.835-.463 1.056-1.774.085-2.284"/><path d="m36.37 28.405c.937-.475.75-1.735 0-2.253-1.287-.892-2.783-1.167-4.23-1.7-.171-.06-.331-.082-.479-.078-.113-.36-.374-.678-.826-.833-1.219-.425-2.467-.789-3.616 0-.565.387-.878 1.159-.47 1.788 1.767 2.714 6.614 4.603 9.621 3.076"/><path d="m37.579 8.02c.105.171.261.321.476.415 2.496 1.081 5.191 2.216 7.969 2.01.983-.074 1.632-1.051 1.127-1.967-1.9-3.447-5.485-3.443-8.96-2.995-1.41.182-1.621 2.12-.612 2.541"/><path d="m61.17 18.664c0-.232-.049-.429-.134-.596 0-.019.006-.039.006-.058.068-.75-.645-1.25-1.305-1.307-2.186-.175-3.868 1.825-4.654 3.649-.313.728.036 1.406.553 1.756-.511.323-1 .621-1.389.91-1.106.83-.512 2.873 1.01 2.387 1.506-.479 2.826-1.453 3.831-2.695 1.192-1.043 2.091-2.293 2.087-4.046"/><path d="m27.496 9.924c.093-.091.167-.208.226-.331.964-.315 1.854-.845 2.645-1.496.981-.808.074-2.123-.923-2.229-1.055-.111-2.278.3-3.213.765-.3.15-.557.358-.767.598-.166.132-.321.278-.467.454-.609.75-.368 2.01.611 2.203.016.014.027.025.041.037.558.441 1.301.546 1.847 0"/><path d="m48.746 25.312c-.317-.298-.775-.458-1.243-.337-2.029.522-4.175 1.279-5.667 2.816-1.107 1.145.483 2.857 1.653 2.01.302.378.773.604 1.314.436.85-.263 1.592-.668 2.25-1.182.782-.485 1.532-1.022 2.245-1.634.859-.743.295-1.818-.552-2.107"/><path d="m40.717 34.899c-2.394.358-4.809.466-7.226.474-1.682.006-1.682 2.617 0 2.609.697 0 1.393-.016 2.09-.039.209.239.511.409.911.433 1.843.108 3.604-.207 5.231-1.093 1.402-.762.363-2.59-1.01-2.384"/><path d="m17.264 19.496c-.15-.251-.284-.512-.401-.789-.068-.167-.156-.319-.265-.452-.048-.152-.093-.302-.125-.461-.317-1.653-2.832-.952-2.52.695.195 1 .686 1.842 1.278 2.619.495.783 1.084 1.494 1.801 2.132 1.273 1.142 2.901-.557 1.846-1.844-.524-.639-1.131-1.234-1.614-1.9"/><path d="m7.909 21.846c-.46-.203-1.25-.583-.966-1.217.289-.652.195-1.398-.471-1.788-.454-.267-1.151-.216-1.558.16 0-.025-.011-.049-.013-.076-.072-.71-.542-1.307-1.307-1.307-.656 0-1.375.596-1.305 1.307.265 2.664 2.208 4.401 4.616 5.305 1.379.518 2.355-1.796 1-2.384"/><path d="m52.935 11.994c-.018.021-.037.037-.055.057-.006 0-.016 0-.016 0-1.232.175-2.426.611-3.452 1.309-1.097.746-.501 2.317.488 2.465.368.559 1.12.878 1.745.44 1.069-.753 2.261-1.433 3.135-2.424 1.109-1.257-.727-3.109-1.845-1.847"/></g></g></svg>