<svg xmlns="http://www.w3.org/2000/svg" viewBox="0 0 64 64" enable-background="new 0 0 64 64"><path fill="#bbbdbf" d="m46.85 37.688c4.144-1.34 5.561-6.989-.052-6.147-.044-3.159-1.38-6.858-4.12-9.07-3.686-2.832-6.404 1.372-5.214 4.831-.92-1.343-4.696-5.874-6.601-5.464-2.666.661-2.496 5.245-1.089 6.753-1.397-.605-4.503-1.574-5.304.591-.934 2.826 2.978 2.08 4.439 2.127-1.306 1.094.482 2.25 1.362 2.965 2.032 1.467 3.737 1.372 5.954 1.17-3.164 4.662 8.436 2.174 10.513 1.726"/><g fill="#b87d2b"><path d="m60.84 28.05c-1.716-2.887-11.05 3.082-11.05 3.082l4.468 13.792c10.69 3.517 8.306-13.984 6.586-16.874m-6.972 15.557l-3.562-10.997c0 0 7.445-4.755 8.811-2.457 1.374 2.302 3.27 16.259-5.249 13.454"/><path d="m62.925 49.931c.51 1.327-1.75 3.426-5.05 4.697l-9.743 3.756c-3.294 1.269-6.378 1.229-6.888-.097l.081-3.79c-.511-1.325 1.746-3.429 5.04-4.698l7.05-2.72c3.297-1.271 6.383-1.229 6.893.098l2.605 2.754"/><path d="m31.33 33c-.51-1.325 1.749-3.429 5.04-4.699l9.745-3.755c3.294-1.271 6.378-1.225 6.888.098l-.081 3.792c.509 1.323-1.746 3.429-5.04 4.698l-7.06 2.722c-3.294 1.27-6.379 1.224-6.892-.102l-2.605-2.754"/></g><path fill="#e6a42e" d="m59.52 44.733c1.148 2.97-.333 6.301-3.3 7.444l-8.781 3.384c-2.968 1.146-6.302-.329-7.447-3.299l-5.786-15.01c-1.143-2.967.338-6.299 3.306-7.445l8.779-3.384c2.968-1.145 6.302.333 7.445 3.301l5.784 15.01"/><g fill="#b87d2b"><path d="m43.764 46.15c.72 1.862 1.138 3.441.937 3.519l-.596.23c-.2.078-.951-1.372-1.67-3.236l-3.637-9.437c-.721-1.869-1.136-3.443-.936-3.523l.596-.227c.201-.081.948 1.37 1.668 3.236l3.638 9.438"/><path d="m48.34 44.38c.717 1.865 1.141 3.442.938 3.519l-.596.23c-.202.077-.95-1.372-1.67-3.238l-3.638-9.436c-.722-1.868-1.137-3.444-.937-3.52l.598-.231c.201-.078.946 1.372 1.667 3.238l3.638 9.438"/><path d="m53.25 42.491c.717 1.866 1.141 3.439.938 3.521l-.595.229c-.202.077-.95-1.372-1.672-3.239l-3.637-9.434c-.721-1.869-1.136-3.445-.936-3.522l.597-.23c.201-.077.946 1.373 1.664 3.24l3.641 9.435"/></g><path fill="#e6e7e8" d="m46.25 24.762c.008-4.357-4.924-7.451-5.86-1.853-3.02-.937-6.947-.811-9.905 1.11-3.837 2.628-.677 6.514 2.981 6.449-1.562.465-7.04 2.652-7.24 4.588-.193 2.742 4.216 4 6.08 3.12-1 1.146-2.881 3.801-1.074 5.234 2.398 1.758 2.896-2.191 3.396-3.567.639 1.583 2.291.235 3.241-.373 2.026-1.484 2.461-3.13 2.957-5.3 3.451 4.452 4.674-7.35 4.895-9.467"/><path fill="#fff" d="m37.13 37.919c-3.188.634-6.161-2.531-2.193-4.02-1.119-2.072-1.595-4.967-.614-7.408 1.372-3.184 4.67-1.433 5.145 1.254.114-1.208.931-5.532 2.323-5.958 1.972-.537 3.529 2.51 3.154 4.01.694-.905 2.362-2.66 3.674-1.544 1.634 1.505-1.189 2.435-2.12 2.997 1.248.239.503 1.639.194 2.428-.794 1.696-1.939 2.249-3.459 2.922 3.754 1.888-4.703 4.477-6.217 4.945"/><path fill="#bbbdbf" d="m20.252 39.449c-5.184-.333-8.474-6.441-1.743-7.118-.878-3.661-.418-8.322 2.092-11.69 3.428-4.353 7.803-.296 7.441 4.05.67-1.82 3.702-8.165 6.02-8.251 3.271-.019 4.423 5.325 3.236 7.48 1.437-1.108 4.745-3.137 6.305-.872 1.907 2.991-2.83 3.275-4.506 3.76 1.83.883.103 2.738-.697 3.825-1.925 2.291-3.914 2.686-6.539 3.1 5.02 4.456-9.105 4.986-11.636 5.084"/><g fill="#b87d2b"><path d="m13.82 49.984l1.114-17.249c0 0-12.538-4.152-13.673-.315-1.139 3.843 1.246 24.762 12.559 17.564m-9.953-15.636c.907-3.057 10.902.252 10.902.252l-.889 13.745c-9.02 5.743-10.92-10.937-10.01-13.997"/><path d="m5.279 58.31c-.201 1.679 3.02 3.445 7.205 3.945l12.357 1.478c4.176.5 7.729-.457 7.929-2.137l-1.205-4.353c.201-1.681-3.03-3.447-7.204-3.946l-8.951-1.07c-4.176-.5-7.731.456-7.931 2.134l-2.2 3.949"/><path d="m36.8 29.484c.2-1.682-3.03-3.446-7.207-3.945l-12.36-1.479c-4.178-.499-7.728.458-7.928 2.138l1.207 4.354c-.202 1.679 3.02 3.447 7.204 3.945l8.952 1.071c4.178.499 7.729-.46 7.928-2.136l2.204-3.948"/></g><path fill="#e6a42e" d="m7.684 51.31c-.449 3.766 2.236 7.18 6 7.631l11.136 1.33c3.764.452 7.183-2.231 7.632-5.999l2.28-19.03c.447-3.767-2.24-7.183-6.01-7.633l-11.136-1.331c-3.764-.45-7.179 2.235-7.628 5.999l-2.278 19.04"/><g fill="#b87d2b"><path d="m26.301 48.31c-.284 2.365-.308 4.312-.047 4.341l.755.091c.254.031.694-1.863.976-4.231l1.431-11.968c.285-2.368.304-4.31.049-4.342l-.755-.091c-.26-.031-.696 1.863-.98 4.23l-1.429 11.97"/><path d="m20.5 47.617c-.282 2.367-.305 4.313-.047 4.344l.753.091c.258.03.694-1.864.978-4.232l1.431-11.969c.285-2.368.306-4.31.048-4.341l-.753-.088c-.261-.034-.694 1.861-.979 4.231l-1.431 11.964"/><path d="m14.276 46.874c-.285 2.368-.31 4.311-.054 4.344l.761.089c.252.029.69-1.865.97-4.23l1.432-11.971c.283-2.366.307-4.31.055-4.34l-.761-.09c-.256-.032-.69 1.861-.974 4.231l-1.429 11.967"/></g><path fill="#e6e7e8" d="m17.14 24.343c-1.29-5.03 3.502-10.05 6.226-3.86 3.212-1.97 7.788-2.978 11.767-1.627 5.201 1.911 2.693 7.328-1.551 8.324 1.941.08 8.911.996 9.709 3.181 1.029 3.102-3.691 5.85-6.11 5.388 1.503 1.026 4.449 3.541 2.782 5.724-2.258 2.739-3.99-1.678-4.973-3.118-.27 2.02-2.575.945-3.854.518-2.772-1.118-3.76-2.888-4.967-5.254-2.682 6.153-7.56-7.116-8.435-9.494"/><path fill="#fff" d="m31.554 36.862c3.867-.205 6.372-4.734 1.354-5.292.684-2.723.378-6.203-1.465-8.734-2.521-3.273-5.817-.282-5.581 2.959-.487-1.364-2.697-6.118-4.428-6.201-2.439-.042-3.34 3.934-2.473 5.555-1.064-.839-3.51-2.378-4.693-.703-1.447 2.217 2.086 2.464 3.328 2.84-1.368.641-.101 2.044.494 2.856 1.411 1.725 2.894 2.031 4.848 2.364-3.784 3.284 6.745 3.794 8.634 3.884"/><g fill="#28a6de"><ellipse cx="34.778" cy="4.67" rx="2.442" ry="4.206"/><path d="m27.309 11.969c-.955.952-3.058.396-4.697-1.248-1.646-1.643-2.2-3.745-1.248-4.697.955-.954 3.058-.396 4.698 1.244 1.641 1.64 2.201 3.748 1.247 4.701"/></g><path fill="#58c5e8" d="m34.778 8.875c.35 0 .683-.135.98-.364-.859-.648-1.461-2.123-1.461-3.844 0-1.72.602-3.194 1.461-3.845-.298-.227-.631-.359-.98-.359-1.348 0-2.442 1.883-2.442 4.204 0 2.323 1.095 4.208 2.442 4.208"/><ellipse transform="matrix(-.7071.7071-.7071-.7071 83.56-16.62)" fill="#28a6de" cx="45.22" cy="8.996" rx="4.203" ry="2.442"/><g fill="#58c5e8"><path d="m44.585 12.234c-.136-.07-.264-.153-.372-.264-.954-.954-.396-3.058 1.247-4.702.74-.741 1.579-1.248 2.359-1.508-1.057-.542-2.868.057-4.323 1.508-1.639 1.645-2.197 3.748-1.242 4.702.52.521 1.39.576 2.331.264"/><path d="m26.934 12.229c-.786-.258-1.621-.767-2.364-1.51-1.641-1.642-2.201-3.744-1.244-4.698.108-.111.237-.193.373-.264-.945-.313-1.813-.257-2.335.263-.952.955-.398 3.056 1.248 4.698 1.451 1.453 3.261 2.053 4.322 1.511"/></g></svg>