<svg xmlns="http://www.w3.org/2000/svg" viewBox="0 0 64 64" enable-background="new 0 0 64 64"><g fill="#323232"><path d="m63.53 55.43v2.057l-2.048.963c0 0-.966-1.574-.942-1.992.028-.414.251-1.539.414-1.461.158.071 2.576.433 2.576.433"/><path d="m.86 55.15l-.032 2.5 1.392.281c0 0 .397-2.414.337-2.496-.059-.08-.651-.506-.651-.506l-1.046.221"/></g><ellipse fill="#577482" cx="32" cy="55.43" rx="31.534" ry="6.285"/><g fill="#3b525e"><ellipse cx="32" cy="57.49" rx="31.534" ry="6.285"/><path d="m8.374 9.3l1.516 46.1 45.21 1.06.92-47.16-26.52-.754z"/></g><path fill="#243438" d="m47.01 56.27c.336-.463.778-.848 1.326-1.1 1.85-.84 3.688-1.699 5.367-2.85.464-.316.971-.514 1.49-.619l.835-42.4-26.523-.754-5.729.203 19.337.551-.921 46.856 4.818.114"/><path fill="#7196a8" d="m21.259 11.239l-7.643.053 1.359 37.2 7.469.229z"/><path fill="#577482" d="m56.02 9.3c0 2.779-10.667 5.03-23.825 5.03s-23.824-2.247-23.824-5.03 10.666-5.03 23.824-5.03 23.825 2.248 23.825 5.03"/><g fill="#fbb03b"><path d="m55.34 53.32c0 2.301-10.181 4.166-22.735 4.166-12.558 0-22.735-1.865-22.735-4.166 0-2.307 10.177-4.172 22.735-4.172 12.554 0 22.735 1.866 22.735 4.172"/><path d="m9.498 43.514c0 0 18.984 7.721 45.845 0v9.807l-19.748 1.672-25.722-1.673-.375-9.806"/></g><path fill="#243438" d="m32.2 4.273c-3.299 0-6.443.143-9.304.398 12.765.686 20.09 9.09 20.11 9.109 7.726-.832 13.02-2.523 13.02-4.479 0-2.78-10.667-5.03-23.825-5.03"/></svg>