<svg xmlns="http://www.w3.org/2000/svg" viewBox="0 0 64 64" enable-background="new 0 0 64 64"><g transform="translate(11.735-.271)" fill-rule="evenodd"><path d="m42.572 60.37c0 2.226-1.806 4.03-4.03 4.03h-34.506c-2.229 0-4.03-1.807-4.03-4.03v-56.34c0-2.227 1.804-4.03 4.03-4.03h34.506c2.228 0 4.03 1.806 4.03 4.03v56.34" fill="#25333a"/><path d="m9.627 60.37v-56.34c0-2.227 1.806-4.03 4.03-4.03h-9.627c-2.229 0-4.03 1.806-4.03 4.03v56.34c0 2.226 1.804 4.03 4.03 4.03h9.627c-2.227 0-4.03-1.807-4.03-4.03" fill="#31444d"/><path d="m40.02 31.23v-23.808c0-1.96-1.59-3.55-3.549-3.55h-30.362c-1.961 0-3.548 1.589-3.548 3.55v33.771c6.174-6.109 30.19-28.2 37.459-9.963" fill="#be1e2d"/><path d="m13.37 7.418c0-1.96 1.587-3.55 3.548-3.55h-10.856c-1.961 0-3.548 1.589-3.548 3.55v33.771c2.06-2.04 6.109-5.856 10.857-9.363v-24.408" fill="#a31d2d"/><circle cx="14.342" cy="15.697" r="11.829" fill="#fff"/></g></svg>