<svg xmlns="http://www.w3.org/2000/svg" viewBox="0 0 64 64" enable-background="new 0 0 64 64"><path fill="#c37929" d="m49.29 39.75c-.016-.526-.254-1.932-1.01-1.932h-.29c-.289-.368-.634-.655-1.01-.896-1.554-1.356-3.816-1.855-5.652-.579-.172-.092-.321.021-.438.266-.23-.143-.501-.143-.7.181-.13.207-.208.438-.259.679 2.462 2.836 4.76 6.385 4.02 10.01-.45 2.188-.939 4.339-2.294 5.697-.228.399-1.938 1.417-2.169 1.816-.102.176.094 1.31.039 1.691-.254 1.154.818 1.271 1.723 1.329.673.041 1.319-.073 1.961-.204.622-.033 1.245-.131 1.879-.298.481-.125 2.039-1.912 2.267-4.084.051-.513 1.452-8.81 1.648-10.661.194-.969.319-1.964.288-3.02"/><g fill="#633d19"><path d="m43.42 43.09c.681 1.801.708 1.564.642 3.247 1.444-.045 2.912.043 4.38.247.263-1.664.396-2.476.442-2.924-2.199-.576-3.327-.644-5.464-.57"/><path d="m43.818 48.05c-.395 1.832-.885 3.58-1.934 4.814 1.812.034 3.633.37 5.398.928.023-.121.055-.236.066-.359.027-.265.411-2.604.807-5.058-1.474-.282-2.943-.419-4.337-.325"/></g><path fill="#f79421" d="m60.35 40.952c.74-2.564.528-5.371-.207-8.02.845-2.756.841-5.97.567-8.479-.259-2.367-1.476-4.57-2.635-6.588-.673-1.172-9.316-9.279-7.093-10.782 2.224-1.503 4.764-2.202 4.588-3.594-.705-5.527-5.081-4.04-7.962-.892-2.905 3.174-2.286 7.824.367 10.903 1.852 2.153 9.63 5.706 5.935 9.244-.329.313-.708.576-1.111.814-1.065-.329-5.496-.607-6.256-.582-1.565-.186-12.53-2.675-16.37-2.987-.18-.521-.431-.949-.724-1.072-5.02-2.127-10.331-.523-15.521.192-1.394.193-.403 3.417.274 3.936.466.29.861.652 1.292.979-.771.061-1.55.117-2.325.139-1.163.069-.509 2.958-.168 3.47.38.522.705 1.079 1.049 1.625-1.206-.284-2.357-.383-3.903-.184-1.03.133-2.298-.959-1.848.083-.599-.312 2.023 2.458 1.347 2.229-1.233-.415-1.503 8.309 4.251 10.359 2.729 4.611 1.092 7.326-.881 12.313-1.127.401-2.271 1.292-3.3 1.963-.994.65-.219 3.185.939 3.777.767.394 4.228.684 6.31.288.396-.074.662-1.119.669-1.125 2.161-1.627 3.01-4.371 3.187-7.332.646-2.865.61-5.94.039-8.279 0-.002 0-.004 0-.004 1.194.306 4.103.521 4.196.444.759.08 2.564-.006 3.308 1.701.266 2.078.846 4.22 1.139 6.329 0 0-1.354 3.034-3.621 3.954-1.159.472-.99 3.869.133 4.323 1.726.699 6.436.213 6.944.186 1.315-.076 2.975-.571 3.062-.984.02-.092.23-1.704.25-1.795.105-.299.294-1.405.278-1.675.493-4.03-.185-7.919-.904-11.941.094-.337.172-.675.258-1.016 1.746-.3 3.434-1.272 4.96-2.405 1.941-.562 6.075-1.196 6.134-1.228 1.898 2.366 3.888 4.525 6.769 5.602.047.072.098.135.148.185 1.437 1.289 2.165 2.665 2.403 4.202-.125 1.824.384 2.345-1.127 4.257-.062.025-.125.031-.196.105-.704.777-.92 1.407-.864 2.489.023.468-.126 2.856 1.248 2.748 1.233.043 5.43-.35 5.656-.361l1.883-.169c.372-.02.349-.759.438-1.744.514-5.581-.998-10.568-3.01-15.6"/><path fill="#e7e5e5" d="m52.873 5.967c1.55-.837 2.826-1.481 2.697-2.479-.705-5.527-5.081-4.04-7.962-.892-.619.676-1.046 1.429-1.358 2.21 2.215.207 4.431.617 6.623 1.161"/><g fill="#633d19"><path d="m56.36 15.886c-.517-.564-1.104-1.206-1.698-1.881-1.487.612-3.034 1.01-4.6 1.247.771.573 1.616 1.194 2.384 1.846 1.366-.154 2.666-.577 3.914-1.212"/><path d="m54.31 22.295c2.039 1.444 4.177 2.503 6.369 2.01-.29-2.308-1.473-4.462-2.604-6.438-.035-.061-.09-.139-.164-.233-1.241.513-2.525.879-3.841 1.104.873 1.144 1.183 2.35.24 3.561"/><path d="m28.705 47.519c2.654-.031 5.21.36 7.703 1.265-.203-1.623-.47-3.247-.763-4.896.07-.252.129-.505.191-.76-2.713-.184-5.695.407-8.08 1.506.235.221.45.491.61.857.088.669.209 1.346.342 2.028"/><path d="m29.472 51.883c2.56.543 5.05 1.742 7.113 3.402.121-1.335.125-2.658.047-3.974-1.648-1.107-3.425-1.961-5.523-2.096-.705-.046-1.39-.037-2.075-.018.176.876.349 1.751.47 2.622 0 0-.024.046-.032.064"/></g><path fill="#e7e5e5" d="m31.621 56.5c-2.086-.478-4.169-.542-6.212-.213-.579 1.086-.317 3.44.607 3.814 1.726.699 6.436.213 6.944.186.979-.057 2.149-.346 2.721-.661-1.167-1.382-2.53-2.438-4.06-3.126"/><g fill="#633d19"><path d="m48.42 40.896c.885.967 1.82 1.861 2.877 2.599 2.564-1.811 5.833-2.721 9.152-3.049.325-1.358.384-2.775.274-4.194-4.071-2.109-10.243.366-12.303 4.644"/><path d="m53.918 45.03c.893.8 1.483 1.642 1.879 2.526 2.044-.83 4.087-1.536 6.205-1.928-.349-1.138-.775-2.263-1.198-3.39-2.553.341-4.992 1.201-6.886 2.792"/><path d="m56.31 49.45c-.051 1.072.086 1.705-.211 2.514 1.189-.185 2.313-.278 3.241-.294 1.284-.023 2.626.047 3.973.188-.152-1.532-.462-3.02-.841-4.507-2.102.38-4.141 1.185-6.162 2.099"/><path d="m48.12 13.654c1.726-.131 3.413-.621 5.03-1.431-.489-.603-.959-1.206-1.346-1.775-1.848.268-3.813.239-5.626-.139.388 1.149.979 2.247 1.793 3.19.04.05.103.105.15.155"/></g><g fill="#c37929"><path d="m9.646 31.367c-.388-.131-.681.65-.721 1.84 6.314 2.979 14.405 4.196 17.259-3.742 1.268-3.535 2.353-7.164 2.333-10.876-4.749-1.582-9.72-.168-14.589.503-1.394.194-.403 3.417.274 3.936.466.29.861.652 1.292.979-.771.061-1.55.117-2.325.139-1.163.069-.509 2.958-.168 3.47.38.522.705 1.079 1.049 1.625-1.206-.284-2.357-.384-3.903-.184-1.03.133-2.298-.959-1.848.083-.599-.313 2.023 2.456 1.347 2.227"/><path d="m13.896 41.744c2.544 4.232.924 6.223-.893 10.809-1.965 2-2.259 2.779-3.288 3.45-.994.65-.219 3.185.939 3.777.767.394 4.228.684 6.31.288.396-.074.662-1.119.669-1.125 2.161-1.627 2.638-4.02 4.099-9.02.783-3.474 1.064-6.576-.873-6.572-2.242-.118-4.888-.967-6.963-1.606"/></g><g fill="#633d19"><path d="m22.273 45.02c-.129-1.022-.536-1.678-1.413-1.676-2.243-.117-4.889-.967-6.964-1.605.567.944.908 1.771 1.104 2.549 2.384.088 4.874.29 7.273.732"/><path d="m15.18 46.08c-.051.936-.301 1.848-.685 2.848 2.478.092 4.901.302 7.27.85.211-.961.375-1.881.474-2.721-2.24-.599-4.698-.862-7.06-.977"/><path d="m13.802 50.635c-.219.513-.446 1.053-.685 1.642 2.513.245 5.113.742 7.43 1.637.208-.648.419-1.37.654-2.165-2.396-.782-4.87-1.03-7.399-1.114"/></g><path fill="#f79421" d="m23.557 4.833c-3.472 1.399-5.715 4.435-7.645 7.484-1.108.122-2.306-.025-3.433-.133.239-1.893.591-3.709.239-5.699-.051-.302-.548-1.891-1.155-1.313-3.397 3.221-5.903 7.222-7.602 11.567-.102.258-.105.697-.047 1.17-.415.693-.83 1.384-1.245 2.075-1.064 1.435-2.141 2.967-2.141 4.637 0 4.918 2.455 5.461 3.069 5.985 2.498 1.525 4.122 1.946 5.672 1.946 3.515.002 5.668-.971 6.514-1.335 1.605-.327 2.623-.652 4.255-.754 2.822.542 4.142-.567 4.291-3.75.074-1.677-.157-3.304-.438-4.956-.599-3.515.689-10.56.681-10.761.2-.721.368-1.455.458-2.212.046-.377 1.651-5.209-1.473-3.951"/><g fill="#d1d2d2"><path d="m29.95 57.88c0-1.704 1.452-1.671 3.437-1.671 1.98 0 3.75-.033 3.75 1.671 0 1.715-1.617 3.104-3.594 3.104-1.984 0-3.593-1.389-3.593-3.104"/><path d="m22.312 57.31c0-1.705 1.452-1.672 3.437-1.672 1.98 0 3.75-.033 3.75 1.672 0 1.715-1.617 3.104-3.593 3.104-1.985 0-3.594-1.39-3.594-3.104"/></g><g fill="#25333a"><path d="m11.642 19.653c.051.229 1.605 2.083 2.337 2.176 1.19.149 3.797-3.572 3.856-3.789.367-1.409-6.314 1.055-6.193 1.613"/><path d="m7.101 19.467c-.094.137-1.55.984-2.02.869-.763-.188-1.312-3.271-1.288-3.429.168-1.017 3.535 2.22 3.308 2.56"/></g><path fill="#eda75a" d="m19.2 11.161c-.462.928 1.726 2.723 3.476 3.375.673.252 1.789-6.641 2.035-7.835.255-1.229-.086-.986-.971-.632-.673.267-4.078 4.158-4.54 5.092"/><g fill="#633d19"><path d="m34.25 30.13c-.043-.231-.478-8.451-.709-9.673-.09-.505 3.742.527 4.149.77 3.691 2.161.224 5.764-2.438 9.115-.294.372-.912.285-1-.212"/><path d="m41.631 30.02c-.027-.274-1.477-6.887-1.629-8.332-.055-.599 4.325.536 4.768.857 4.083 2.874 1.425 4.187-1.996 7.815-.38.404-1.088.247-1.143-.34"/><path d="m48.35 30.86c.497-5.412-.521-6.257-.673-7.702-.055-.599 4.994-.137 5.116.399 1.378 5.981.297 5.32-3.3 7.643-.461.3-1.193.248-1.143-.34"/></g><path fill="#e7e5e5" d="m25.483 57.88c0-1.704 1.452-1.671 3.437-1.671 1.984 0 3.75-.033 3.75 1.671 0 1.715-1.612 3.104-3.593 3.104-1.985 0-3.594-1.389-3.594-3.104"/><g fill="#d1d2d2"><path d="m56.929 57.59c0-1.705 1.452-1.672 3.437-1.672 1.98 0 3.75-.033 3.75 1.672 0 1.714-1.616 3.104-3.594 3.104-1.985 0-3.593-1.39-3.593-3.104"/><path d="m49.29 57.02c0-1.704 1.452-1.671 3.438-1.671 1.98 0 3.75-.033 3.75 1.671 0 1.715-1.617 3.104-3.594 3.104-1.985 0-3.594-1.39-3.594-3.104"/></g><path fill="#e7e5e5" d="m52.46 57.59c0-1.705 1.452-1.672 3.437-1.672 1.985 0 3.75-.033 3.75 1.672 0 1.714-1.612 3.104-3.593 3.104-1.986 0-3.594-1.39-3.594-3.104"/><g fill="#d1d2d2"><path d="m42.45 56.41c0-1.129.963-1.107 2.278-1.107s2.486-.021 2.486 1.107c0 1.138-1.069 2.06-2.38 2.06-1.318 0-2.384-.922-2.384-2.06"/><path d="m37.38 56.03c0-1.129.964-1.107 2.278-1.107 1.315 0 2.49-.021 2.49 1.107 0 1.138-1.073 2.06-2.384 2.06-1.315 0-2.384-.922-2.384-2.06"/></g><path fill="#e7e5e5" d="m39.489 56.41c0-1.129.963-1.107 2.278-1.107s2.485-.021 2.485 1.107c0 1.138-1.068 2.06-2.384 2.06s-2.379-.922-2.379-2.06"/><g fill="#d1d2d2"><path d="m12.53 58.32c0-1.462 1.116-1.435 2.634-1.435 1.519 0 2.874-.027 2.874 1.435 0 1.47-1.237 2.662-2.752 2.662-1.523 0-2.756-1.192-2.756-2.662"/><path d="m6.506 57.981c0-1.464 1.112-1.433 2.638-1.433 1.515 0 2.87-.031 2.87 1.433 0 1.473-1.237 2.662-2.756 2.662-1.519 0-2.752-1.189-2.752-2.662"/></g><path fill="#e7e5e5" d="m8.483 57.872c0-1.726 1.206-1.694 2.854-1.694 1.644 0 3.112-.031 3.112 1.694 0 1.736-1.343 3.144-2.983 3.144-1.649 0-2.983-1.408-2.983-3.144"/><g fill="#633d19"><path d="m8.835 12.498c.161.035 6.263-.006 7.07.174.336.068.364.56.098.781-2.388 2.098-6.294 2.619-7.586-.282-.142-.313.085-.74.414-.673"/><path d="m7.414 16.723c.105.023 4.149-.004 4.686.116.219.045.239.37.062.517-1.581 1.39-4.169 1.734-5.02-.186-.094-.208.059-.492.274-.447"/><path d="m18.273 24.19c.148-.027 4.983-.922 5.727-1.062.31-.057.481.274.333.521-1.315 2.245-4.149 2.77-6.181 1.145-.228-.173-.173-.545.121-.604"/><path d="m18.277 27.5c.148-.004 5.065-.133 5.821-.157.313-.008.435.344.247.565-1.644 2.01-4.529 2.088-6.283.167-.196-.205-.083-.563.215-.575"/></g><path fill="#e7e5e5" d="m0 25.599c0-3.139 3.437-3.077 8.123-3.077 4.689 0 8.858-.062 8.858 3.077 0 3.14-3.801 5.68-8.494 5.68-4.686 0-8.487-2.54-8.487-5.68"/><path fill="#25333a" d="m3.629 23.405c0-1.29 1.096-1.264 2.587-1.264 1.495 0 2.826-.026 2.826 1.264s-1.213 2.333-2.709 2.333c-1.491 0-2.704-1.043-2.704-2.333"/><path fill="#c37929" d="m11.947 33.869c.306.068 10.687-.989 12.256-.67 3.394.689 2.478 4.547 1.969 4.972-4.588 4.03-12.09 5.03-14.574-.542-.265-.602-.281-3.888.349-3.76"/><path fill="#d1d2d2" d="m3.629 31.448c0-2.173 1.848-2.13 4.376-2.13 2.525 0 4.776-.043 4.776 2.13 0 2.184-2.055 3.954-4.576 3.954-2.529 0-4.576-1.77-4.576-3.954"/></svg>