<svg xmlns="http://www.w3.org/2000/svg" viewBox="0 0 64 64" enable-background="new 0 0 64 64"><g transform="translate(.996.284)"><path d="m42.76 12.268c-1.879 5.272 9.99 17.986 13.702 19.308 3.709 1.319 3.19-10.452 3.721-16.963.54-6.7 1.436-13.438-2.274-14.76-3.71-1.32-13.272 7.143-15.15 12.415" fill="#424143"/><path d="m42.95 16.56c-1.632 4.577 8.675 15.618 11.894 16.767 3.22 1.146 2.776-9.08 3.233-14.731.466-5.816 1.245-11.669-1.975-12.816-3.22-1.148-11.524 6.205-13.152 10.78" fill="#929497"/><path d="m17.925 12.268c1.879 5.272-9.993 17.986-13.702 19.308-3.713 1.319-3.192-10.452-3.721-16.963-.542-6.7-1.438-13.438 2.273-14.76 3.711-1.32 13.273 7.143 15.15 12.415" fill="#424143"/><path d="m17.733 16.56c1.634 4.577-8.677 15.618-11.891 16.767-3.22 1.146-2.776-9.08-3.234-14.731-.467-5.816-1.243-11.669 1.975-12.816 3.22-1.148 11.524 6.205 13.15 10.78" fill="#929497"/><path d="m1.367 44.888c0 11.176 14.402 14.439 29.807 14.439 15.402 0 29.806-3.264 29.806-14.439 0-11.162-14.404-44.497-29.806-44.497-15.405 0-29.807 33.34-29.807 44.497" fill="#59595c"/><path d="m12.408 45.789c-5.751-12.395 3.897-32.628 13.06-43.965-13.08 6.532-24.1 33.28-24.1 43.04 0 9.684 10.811 13.418 23.716 14.247-5.214-2.585-9.628-6.762-12.673-13.326" fill="#424143"/><path d="m14.544 44.986c0-7.913 6.733-7.766 15.915-7.766 9.185 0 17.346-.147 17.346 7.766 0 7.924-7.45 14.341-16.631 14.341-9.182 0-16.63-6.417-16.63-14.341" fill="#e7e6e6"/><path d="m19.622 53.668c0-5.497 4.673-5.395 11.05-5.395 6.383 0 12.05-.103 12.05 5.395 0 5.502-5.176 9.959-11.555 9.959-6.373 0-11.544-4.457-11.544-9.959" fill="#d1d2d3"/><g fill="#25333a"><path d="m19.625 50.05c0-5.496 4.671-3.383 11.05-3.383 6.377 0 12.05-2.113 12.05 3.383 0 5.503-5.176 7.949-11.551 7.949-6.375 0-11.548-2.446-11.548-7.949"/><path d="m28.522 24.3c-.387-.108-.778-.218-1.17-.326-.057-.018-.09-.051-.143-.075-.057-.026-.112-.047-.165-.086-.086-.069-.155-.147-.208-.234-.014-.02-.03-.025-.042-.045-2.056-3.535-5.57-5.19-9.598-4.359-2.152.444-2.238 1.345-4.261.782-.823-.23-.864-1.276-.208-1.71 6.03-3.994 13.767-1.838 16.859 4.697.34.71-.237 1.586-1.064 1.356"/></g><path d="m26.95 26.288c-.829-.324-1.665-.625-2.505-.913.438.777.697 1.72.697 2.733 0 2.687-1.798 4.864-4.01 4.864-2.217 0-4.01-2.178-4.01-4.864 0-1.869.876-3.471 2.15-4.284-1.25-.322-2.511-.625-3.784-.876-.528 1.363-.848 2.924-.848 4.612 0 5.131 2.772 9.288 6.199 9.288 3.425 0 6.203-4.157 6.203-9.288 0-.436-.054-.852-.087-1.272" fill="#fff"/><g fill="#25333a"><path d="m17.12 28.11c0 2.687 1.795 4.864 4.01 4.864 2.215 0 4.01-2.178 4.01-4.864 0-1.013-.259-1.956-.697-2.733-1.701-.589-3.431-1.102-5.178-1.551-1.274.813-2.15 2.415-2.15 4.284"/><path d="m34.813 24.3c.389-.108.775-.218 1.168-.326.058-.018.095-.051.144-.075.062-.026.118-.047.171-.086.087-.069.153-.147.206-.234.012-.02.027-.025.041-.045 2.051-3.535 5.571-5.19 9.597-4.359 2.151.444 2.242 1.345 4.261.782.826-.23.867-1.276.21-1.71-6.03-3.994-13.765-1.838-16.859 4.697-.343.71.233 1.586 1.061 1.356"/></g><g><path d="m47.71 23.24c-1.201.239-2.396.518-3.573.821 1.319.795 2.236 2.431 2.236 4.341 0 2.686-1.795 4.861-4.01 4.861-2.217 0-4.01-2.175-4.01-4.861 0-1.078.297-2.066.788-2.873-.973.33-1.94.68-2.891 1.053-.039.42-.089.836-.089 1.271 0 5.133 2.778 9.287 6.205 9.287 3.419 0 6.197-4.154 6.197-9.287.002-1.688-.321-3.251-.849-4.613" fill="#fff"/><path d="m42.36 33.27c2.219 0 4.01-2.175 4.01-4.861 0-1.911-.917-3.546-2.236-4.341-1.687.43-3.358.913-4.999 1.468-.491.807-.788 1.795-.788 2.873 0 2.685 1.793 4.861 4.01 4.861" fill="#25333a"/></g><g fill="#fff"><ellipse cx="21.12" cy="26.678" rx="1.178" ry="2.613"/><ellipse cx="42.642" cy="26.678" rx="1.176" ry="2.613"/></g></g></svg>