<svg xmlns="http://www.w3.org/2000/svg" viewBox="0 0 64 64" enable-background="new 0 0 64 64"><g fill="#efb086"><path d="m22.05 31.1l1.205 1.664c.577.807 1.169 1.598 1.754 2.377l.14.188c.075-.051.149-.102.219-.155l3.781-2.25-1.132-2.048c-2.201-3.978-4.399-7.955-6.61-11.925-.23-.415-.472-.76-.749-1.061-.399-.441-.879-.741-1.419-.892-1.187-.33-2.495.116-3.411 1.165-1.064 1.212-1.085 2.736-.063 4.179 2.079 2.928 4.184 5.841 6.285 8.758"/><path d="m30.729 28.14l1.631 3.386.483-.172c.765-.319 1.521-.645 2.241-.963l1.354-.478-.634-2.161c-.677-2.326-1.347-4.622-2.068-6.9-.824-2.642-1.719-5.437-2.828-8.125-.375-.917-1.101-1.565-2.045-1.826-.838-.234-1.789-.146-2.682.25-.883.396-1.5 1.01-1.778 1.76-.274.748-.196 1.611.223 2.493 2.02 4.25 4.062 8.493 6.103 12.736"/><path d="m63.5 28.942c-.417-.768-1.427-1.183-2.635-1.067-2.685.26-4.644 1.583-5.813 3.944-.332.658-.624 1.328-.92 1.995-.416.943-.835 1.883-1.325 2.788-.545.979-1.316 1.91-2.232 2.701-.287.245-1.148.985-2.168.702-.747-.203-1.175-.847-1.435-1.314-.268-.476-.546-1-.68-1.603l-.084-.382c-.418-1.875-.834-3.754-1.25-5.632l-3.02.963c-5.816 1.843-12.504 4.326-17.997 8.771l-3.312 2.67c.251.28.507.559.762.835.452.506.809 1.142 1.047 1.848 1.222 3.523 2.766 7.212 5.67 10.237 2.261 2.354 4.678 3.438 7.57 3.388 2.183-.039 4.285-.702 7.03-2.207.363-.199 1.089-.53 1.896-.525 2.723 0 4.838-1.015 6.462-3.092 1.759-2.273 2.691-4.88 2.766-7.734.091-3.852 1.883-7.235 5.471-10.347l.719-.604c.729-.611 1.42-1.189 1.947-1.832.795-.979 1.356-1.948 1.621-2.804.2-.641.168-1.228-.089-1.699"/><path d="m21.1 36.441c-1.802-2.281-3.612-4.574-5.431-6.856-.145-.175-.417-.365-.608-.495-.371-.238-.717-.4-1.051-.493-.528-.146-1.023-.111-1.555.111-.967.404-1.499 1.09-1.678 2.166-.191 1.137.203 2.133 1.317 3.343l1.903 2.058c1.79 1.941 3.579 3.879 5.358 5.822l2.977-4.095-1.232-1.561"/><path d="m38.807 25.505c.315 1.094.762 2.672 1.1 3.746h.777 3.855c-.417-1.996-.834-3.904-1.235-5.838-.34-1.653-.628-3.339-.918-4.997-.199-1.146-.4-2.308-.618-3.455-.234-1.229-.845-2.092-1.868-2.619-.204-.107-.412-.191-.624-.248-.802-.224-1.628-.107-2.271.341-.594.413-.951 1.056-1.01 1.805-.044.565.008 1.172.144 1.702.862 3.183 1.754 6.378 2.668 9.563"/></g><g fill="#28a6de"><path d="m46.38 21.13c1.063-5.487-.107-10.748-3.884-14.945-.917-1.023.488-2.665 1.418-1.631 4.298 4.779 5.807 10.684 4.591 16.975-.265 1.367-2.386.971-2.125-.399"/><path d="m54.49 23.579c.899-7.461-1.169-14.404-6.643-19.677-1.327-1.282.399-3.62 1.749-2.322 6.224 6 8.811 13.779 7.785 22.336-.228 1.866-3.11 1.526-2.891-.337"/><path d="m15.176 42.69c-4.279-2.663-7.04-6.662-7.495-11.733-.115-1.235-2.06-1.312-1.951-.064.526 5.774 3.5 10.391 8.407 13.443 1.067.662 2.105-.979 1.039-1.646"/><path d="m11.819 49.552c-5.483-3.984-8.804-9.609-8.935-16.459-.029-1.664-2.635-1.956-2.604-.269.15 7.792 3.704 14.275 9.988 18.844 1.374.99 2.916-1.119 1.551-2.116"/></g></svg>