<svg xmlns="http://www.w3.org/2000/svg" viewBox="0 0 64 64" enable-background="new 0 0 64 64"><path fill="#c5344d" d="m52.08 20.905c1.484 6.594-1.676 12.93-7.05 14.14l0 0c-5.376 1.214-13.629 5.956-15.12-.642 0 0-6.261-26.857 8.297-29.625l0 0c5.38-1.214 10.951 3.152 12.436 9.75l1.44 6.378"/><path fill="#faad41" d="m42.51 36.982c-.666-1.566-1.535-2.482-3.646-3.348-1.163-.473-1.237-.227-1.245-1.516-.008-1.523 2.475-3.03 2.831-4.62.47-.909-1.029-3.07-2.048-2.404-2.467 1.621-6.28 4.984-5.63 8.211.724 3.579 4.577 5.705 7.952 5.968.509.039 2.173-1.382 1.786-2.291"/><path fill="#eda543" d="m45.756 33.878c.211-1.399.721-2.323 2.243-3.455.842-.626.955-.442.689-1.484-.306-1.229-2.623-1.931-3.238-3.14-.567-.638.196-2.69 1.155-2.365 2.321.795 6.1 2.717 6.241 5.458.164 3.035-2.502 5.553-5.177 6.465-.406.138-2.038-.665-1.913-1.479"/><path fill="#67308f" d="m48.884 40.22c.506 3.171-.113 4.879-3.668 5.438l0 0c-3.552.563-6.841-1.551-7.334-4.722 0 0 2.079-6.226 2.083-8.412 0-2.181-4.604-6.605 1.586-10.137l0 0c3.547-.56 7.04 2.901 8.477 6.328 1.445 3.418-1.144 11.505-1.144 11.505"/><path fill="#faad41" d="m48.892 58.2c-.481 3.563-2.31 6.261-4.095 6.02l0 0c-1.778-.238-2.837-3.324-2.357-6.887l1.781-13.254c.474-3.562 2.311-6.261 4.088-6.02l0 0c1.781.238 2.839 3.324 2.361 6.883l-1.778 13.258"/><path fill="#25333a" d="m49.23 58.803c-.811 3.328-2.639 5.658-4.436 5.419-1.786-.238-2.941-2.976-2.847-6.397l7.283.978"/><path fill="#cbb4d6" d="m41.492 27.522c2.427.282 5.09-.928 5.857-1.875.039-.047-.972-2.874-1.065-3.273-.004-.031-6.351 1.378-6.351 1.378s.548 3.872 1.559 3.77"/><path fill="#25333a" d="m34.667 50.647c-1.025 2.106 2.644-3.712 9.331-5.505 7.407-1.989 17.658-.725 15.532-1.147-7.338-1.449-6.179-7.592-16.222-5.951-7.525 1.229-6.268 7.728-8.641 12.603"/><path fill="#faad41" d="m52.792 30.27c2.615-2.463 5.739-3.406 6.973-2.095l0 0c1.229 1.308.11 4.369-2.51 6.837l-9.737 9.166c-2.615 2.467-5.736 3.407-6.97 2.099l0 0c-1.233-1.308-.105-4.369 2.506-6.836l9.738-9.171"/><path fill="#25333a" d="m53.58 29.14c2.619-1.993 5.403-2.624 6.597-1.359 1.187 1.265.392 4.01-1.754 6.509l-4.843-5.15"/><g fill="#faad41"><path d="m49.18 30.32c.062 1.801-.885 3.294-2.122 3.337s-4.318-2.585-4.382-4.39c-.059-1.797 2.925-2.091 4.158-2.138 1.233-.039 2.283 1.391 2.346 3.191"/><path d="m32.979 18.888c.857 3.816 5.787 5.944 11.02 4.765 5.227-1.178 8.767-5.219 7.901-9.03-.853-3.811-7.212-12.259-12.438-11.08-5.235 1.179-7.346 11.535-6.485 15.348"/></g><path fill="#c5344d" d="m48.771 9.656c-.517-2.376.524-3.034 0-5.458-6.594-2.502-12.804-2.874-16.257 2.38.485 2.393.967 4.734 1.441 7.087 4.784-1.711 9.776-3.058 14.816-4.01"/><path fill="#e4e4e4" d="m42.37 14.13c0 1.934-1.288 3.496-2.882 3.496s-2.882-1.562-2.882-3.496c0-1.931 1.288-3.497 2.882-3.497s2.882 1.567 2.882 3.497"/><path fill="#25333a" d="m41.719 13.23c0 1.12-.748 2.028-1.672 2.028s-1.672-.908-1.672-2.028c0-1.116.748-2.024 1.672-2.024s1.672.909 1.672 2.024"/><path fill="#e4e4e4" d="m49.62 12.953c0 1.934-1.288 3.497-2.882 3.497s-2.89-1.562-2.89-3.497c0-1.93 1.296-3.497 2.89-3.497s2.882 1.566 2.882 3.497"/><g fill="#25333a"><path d="m48.821 6.32c-5.172-2.498-12.482-1.3-15.63 3.826-.623 1.018 1.879.771 2.325.047 2.4-3.904 7.479-4.472 11.362-2.6.765.371 3.02-.752 1.943-1.273"/><path d="m33.669 3.955c1.522 2.578 1.844 5.204.721 5.865-1.132.669-6.171-1.617-7.694-4.193-1.523-2.576 1.045-4.464 2.177-5.133 1.123-.666 3.273.885 4.796 3.461"/></g><path fill="#3d4d53" d="m33.56 4.734c1.201 2.032 1.452 4.103.563 4.628-.889.528-4.863-1.276-6.069-3.309-1.202-2.032.826-3.524 1.715-4.053.893-.523 2.588.702 3.791 2.734"/><path fill="#25333a" d="m48.39 2.933c-1.159 1.958-1.401 3.947-.548 4.456.861.505 4.683-1.229 5.838-3.187 1.159-1.954-.795-3.387-1.648-3.896-.854-.505-2.487.673-3.642 2.627"/><path fill="#3d4d53" d="m49.19 3.266c-.877 1.488-1.062 2.999-.411 3.383.65.388 3.56-.932 4.437-2.42.877-1.484-.607-2.572-1.257-2.956-.646-.384-1.884.509-2.769 1.993"/><path fill="#25333a" d="m49.01 12.1c0 1.12-.748 2.028-1.672 2.028-.925 0-1.672-.909-1.672-2.028 0-1.116.747-2.024 1.672-2.024.924 0 1.672.908 1.672 2.024"/><path fill="#c5344d" d="m25.857 20.854c1.484 6.593-1.676 12.929-7.05 14.14l0 0c-5.375 1.214-13.629 5.956-15.12-.642 0 0-6.261-26.857 8.297-29.623l0 0c5.379-1.216 10.951 3.15 12.435 9.747l1.441 6.379"/><path fill="#faad41" d="m16.284 36.932c-.666-1.566-1.535-2.482-3.645-3.348-1.163-.475-1.237-.228-1.245-1.516-.008-1.523 2.475-3.03 2.831-4.621.47-.908-1.031-3.069-2.047-2.404-2.467 1.621-6.28 4.984-5.63 8.211.724 3.579 4.575 5.705 7.952 5.967.508.041 2.172-1.381 1.784-2.289"/><path fill="#eda543" d="m19.53 33.827c.211-1.399.72-2.323 2.244-3.455.842-.626.955-.443.689-1.484-.306-1.229-2.624-1.93-3.238-3.14-.567-.638.196-2.69 1.155-2.365 2.322.795 6.1 2.717 6.241 5.458.165 3.035-2.502 5.553-5.176 6.465-.407.137-2.04-.665-1.915-1.479"/><path fill="#67308f" d="m22.659 40.17c.505 3.171-.114 4.878-3.669 5.438l0 0c-3.551.563-6.84-1.551-7.333-4.723 0 0 2.079-6.225 2.083-8.411 0-2.181-4.604-6.605 1.586-10.137l0 0c3.547-.56 7.04 2.901 8.477 6.327 1.444 3.42-1.144 11.506-1.144 11.506"/><path fill="#faad41" d="m22.667 58.15c-.481 3.562-2.31 6.261-4.096 6.02l0 0c-1.777-.238-2.834-3.324-2.357-6.887l1.782-13.254c.474-3.563 2.31-6.261 4.087-6.02l0 0c1.782.238 2.839 3.324 2.361 6.883l-1.777 13.258"/><path fill="#25333a" d="m23.01 58.752c-.811 3.328-2.639 5.658-4.437 5.419-1.785-.238-2.94-2.976-2.846-6.397l7.283.978"/><path fill="#cbb4d6" d="m15.266 27.471c2.428.282 5.09-.928 5.858-1.875.039-.047-.971-2.874-1.065-3.273-.004-.031-6.351 1.378-6.351 1.378s.548 3.872 1.558 3.77"/><path fill="#25333a" d="m8.442 50.597c-1.026 2.106 2.643-3.712 9.328-5.505 7.41-1.989 17.661-.725 15.535-1.147-7.337-1.449-6.179-7.592-16.222-5.951-7.525 1.228-6.269 7.728-8.641 12.603"/><path fill="#faad41" d="m26.566 30.22c2.615-2.465 5.738-3.409 6.974-2.097l0 0c1.229 1.308.109 4.37-2.51 6.837l-9.738 9.166c-2.615 2.467-5.736 3.406-6.969 2.099l0 0c-1.233-1.308-.106-4.369 2.506-6.836l9.737-9.169"/><path fill="#25333a" d="m27.357 29.09c2.62-1.993 5.404-2.623 6.598-1.358 1.186 1.265.391 4.01-1.754 6.509l-4.844-5.151"/><g fill="#faad41"><path d="m22.956 30.27c.063 1.801-.885 3.294-2.122 3.337s-4.319-2.585-4.381-4.388c-.059-1.799 2.925-2.093 4.158-2.138 1.233-.041 2.283 1.387 2.345 3.189"/><path d="m6.754 18.837c.857 3.814 5.787 5.944 11.02 4.765 5.228-1.179 8.767-5.219 7.901-9.03-.854-3.814-7.212-12.259-12.439-11.08-5.234 1.179-7.344 11.536-6.483 15.349"/></g><path fill="#c5344d" d="m22.545 9.607c-.517-2.378.525-3.037 0-5.46-6.593-2.502-12.803-2.874-16.257 2.38.486 2.393.967 4.734 1.441 7.089 4.785-1.713 9.777-3.059 14.816-4.01"/><path fill="#e4e4e4" d="m16.14 14.08c0 1.935-1.289 3.497-2.882 3.497-1.594 0-2.882-1.562-2.882-3.497 0-1.93 1.288-3.496 2.882-3.496 1.593 0 2.882 1.566 2.882 3.496"/><ellipse fill="#25333a" cx="13.822" cy="13.182" rx="1.672" ry="2.026"/><path fill="#e4e4e4" d="m23.395 12.902c0 1.934-1.288 3.497-2.881 3.497-1.594 0-2.89-1.562-2.89-3.497 0-1.93 1.296-3.497 2.89-3.497 1.592 0 2.881 1.567 2.881 3.497"/><g fill="#25333a"><path d="m22.596 6.269c-5.172-2.498-12.482-1.3-15.63 3.825-.623 1.018 1.879.771 2.326.047 2.398-3.904 7.479-4.472 11.362-2.6.763.373 3.02-.751 1.942-1.272"/><path d="m7.443 3.904c1.523 2.576 1.845 5.204.721 5.866-1.131.669-6.17-1.617-7.693-4.193-1.524-2.577 1.045-4.465 2.176-5.134 1.124-.666 3.273.885 4.796 3.461"/></g><path fill="#3d4d53" d="m7.333 4.683c1.202 2.032 1.453 4.104.564 4.628-.888.529-4.862-1.274-6.068-3.308-1.203-2.032.826-3.524 1.714-4.053.894-.524 2.589.701 3.79 2.733"/><path fill="#25333a" d="m22.17 2.882c-1.159 1.958-1.402 3.947-.548 4.456.861.505 4.683-1.229 5.838-3.187 1.159-1.954-.795-3.387-1.648-3.896-.855-.505-2.488.673-3.642 2.627"/><path fill="#3d4d53" d="m22.964 3.215c-.877 1.488-1.061 3-.411 3.385.65.385 3.559-.934 4.437-2.422.877-1.484-.607-2.572-1.257-2.956-.647-.384-1.884.509-2.769 1.993"/><path fill="#25333a" d="m22.78 12.05c0 1.12-.748 2.028-1.672 2.028-.924 0-1.672-.908-1.672-2.028 0-1.116.748-2.024 1.672-2.024.924 0 1.672.908 1.672 2.024"/></svg>