<svg xmlns="http://www.w3.org/2000/svg" viewBox="0 0 64 64" enable-background="new 0 0 64 64"><g transform="translate(2)"><path d="M 61.361,21.857 C 61.361,9.778 47.634,0 30.681,0 13.729,0 0,9.778 0,21.857 0,33.924 13.729,63.689 30.681,63.689 47.634,63.688 61.361,33.924 61.361,21.857 z" fill="#93bbc5"/><path d="m29.08 59.2c-10.244-14.731-9.247-42.27.174-59.15-16.283.535-29.25 10.07-29.25 21.806 0 12.07 13.729 41.832 30.681 41.832.713 0 1.419-.071 2.122-.174-1.329-1.254-2.58-2.673-3.723-4.316" fill="#82a8b1"/><path d="m21.983 28.554c6.687 9.148 9.1 18.74 5.407 21.445-3.704 2.704-12.11-2.512-18.794-11.659-6.68-9.14-9.107-18.739-5.405-21.448 3.698-2.701 12.11 2.527 18.792 11.662" fill="#25333a"/><path d="m17.557 29.02c3.89 5.323 5.294 10.904 3.147 12.479-2.156 1.574-7.04-1.462-10.936-6.782-3.888-5.321-5.299-10.904-3.145-12.483 2.151-1.57 7.05 1.472 10.934 6.786" fill="#d1d2d2"/><path d="m39.21 28.554c-6.688 9.148-9.1 18.74-5.407 21.445 3.704 2.704 12.11-2.512 18.794-11.659 6.681-9.14 9.107-18.739 5.405-21.448-3.698-2.701-12.12 2.527-18.792 11.662" fill="#25333a"/><path d="m44.11 28.999c-3.89 5.321-5.295 10.904-3.146 12.478 2.154 1.572 7.04-1.461 10.937-6.786 3.886-5.316 5.299-10.902 3.145-12.478-2.152-1.571-7.05 1.469-10.936 6.786" fill="#d1d2d2"/></g></svg>