<svg xmlns="http://www.w3.org/2000/svg" viewBox="0 0 64 64" enable-background="new 0 0 64 64"><circle fill="#e0e7ec" cx="32.04" cy="32.04" r="29.68"/><path fill="#d1d7da" d="m52.36 47.23c-16.392 0-29.68-13.288-29.68-29.678 0-5.451 1.495-10.542 4.058-14.932-13.798 2.551-24.26 14.624-24.26 29.16 0 16.394 13.288 29.682 29.68 29.682 10.943 0 20.474-5.939 25.62-14.75-1.758.326-3.565.517-5.421.517"/><path fill="#98a9b4" d="m0 32.04c0 17.666 14.372 32.04 32.04 32.04s32.04-14.372 32.04-32.04c0-17.668-14.374-32.04-32.04-32.04s-32.04 14.372-32.04 32.04m6.237 0c0-14.228 11.575-25.803 25.801-25.803 14.228 0 25.803 11.575 25.803 25.803s-11.575 25.803-25.803 25.803c-14.226 0-25.801-11.575-25.801-25.803"/><path fill="#85939c" d="m33.922 10.89c0-1.443-.849-2.609-1.893-2.609l0 0c-1.042 0-1.893 1.166-1.893 2.609v21.11c0 1.443.851 2.609 1.893 2.609l0 0c1.044 0 1.893-1.166 1.893-2.609v-21.11"/><path fill="#788288" d="m48.02 34.769c1.438 0 2.608-.851 2.608-1.895l0 0c0-1.041-1.17-1.891-2.61-1.891l-15.276-.004c-1.438 0-2.607.851-2.605 1.891l0 0c-.002 1.044 1.167 1.895 2.601 1.895l15.282.004"/></svg>