<svg xmlns="http://www.w3.org/2000/svg" viewBox="0 0 64 64" enable-background="new 0 0 64 64"><path fill="#fbb041" d="M63.958,31.975c0,17.665-14.314,31.979-31.979,31.979C14.315,63.954,0,49.64,0,31.975     C0,14.315,14.315,0,31.979,0C49.644,0,63.958,14.315,63.958,31.975z"/><path fill="#fff" d="m54 35.12c.518-1.702.813-3.583.813-5.573 0-7.438-4.02-13.461-8.986-13.461-4.965 0-8.993 6.02-8.993 13.461 0 3.35.821 6.407 2.176 8.761 4.609-1.825 9.981-2.702 14.99-3.188"/><g opacity=".987"><path fill="#e79d3c" d="m15.219 41.33c-5.668-12.161-5.921-25.25-.798-36.07-8.682 5.72-14.421 15.54-14.421 26.718 0 17.661 14.315 31.979 31.979 31.979.316 0 .624-.039.936-.048-7.331-6.169-13.509-13.596-17.696-22.582"/></g><path fill="#25333a" d="m51.906 29.55c0 4.072-2.721 7.371-6.079 7.371-3.361 0-6.082-3.299-6.082-7.371s2.721-7.375 6.082-7.375c3.359 0 6.079 3.303 6.079 7.375"/><g fill="#633d19"><path d="m27.25 4.456c-.407.115-.818.229-1.225.344-.063.02-.099.055-.154.075-.06.027-.119.051-.174.091-.091.071-.162.158-.217.245-.016.02-.032.028-.043.051-2.153 3.705-5.838 5.436-10.06 4.566-2.26-.466-2.351-1.41-4.468-.818-.865.241-.908 1.339-.221 1.79 6.32 4.187 14.43 1.928 17.672-4.922.356-.747-.248-1.659-1.113-1.422"/><path d="m36.703 4.456c.411.115.817.229 1.225.344.063.02.103.055.154.075.059.027.118.051.178.091.091.071.162.158.217.245.012.02.027.028.044.051 2.148 3.705 5.838 5.436 10.05 4.566 2.263-.466 2.35-1.41 4.471-.818.865.241.909 1.339.218 1.79-6.316 4.187-14.426 1.928-17.669-4.922-.357-.747.244-1.659 1.109-1.422"/></g><path fill="#fff" d="m27.452 29.55c0 7.434-4.02 13.462-8.986 13.462-4.965 0-8.994-6.03-8.994-13.462 0-7.438 4.03-13.461 8.994-13.461 4.965 0 8.986 6.02 8.986 13.461"/><path fill="#25333a" d="m24.545 29.55c0 4.076-2.721 7.375-6.083 7.375-3.362 0-6.083-3.299-6.083-7.375 0-4.068 2.721-7.371 6.083-7.371 3.362 0 6.083 3.302 6.083 7.371"/><g fill="#fff"><path d="m24.411 34.609c0 2.662-1.777 4.819-3.974 4.819-2.196 0-3.978-2.157-3.978-4.819s1.782-4.823 3.978-4.823c2.196 0 3.974 2.161 3.974 4.823"/><path d="m21.13 28.13c0 1.789-1.193 3.235-2.67 3.235-1.474 0-2.67-1.446-2.67-3.235 0-1.79 1.197-3.239 2.67-3.239 1.477 0 2.67 1.449 2.67 3.239"/><path d="m51.21 33.09c0 2.662-1.777 4.819-3.974 4.819-2.195 0-3.978-2.157-3.978-4.819s1.782-4.823 3.978-4.823c2.197 0 3.974 2.161 3.974 4.823"/><path d="m47.929 26.611c0 1.79-1.192 3.235-2.67 3.235-1.474 0-2.67-1.446-2.67-3.235 0-1.789 1.196-3.239 2.67-3.239 1.477 0 2.67 1.45 2.67 3.239"/></g><path fill="#633d19" d="m22.361 52.3c-.628.719-.241 1.92.798 1.92 1.197 0 5.495-1.813 9.756-1.813 4.771 0 9.496 1.813 9.757 1.813 1.034 0 1.418-1.201.802-1.92-5.72-6.593-15.406-6.593-21.11 0"/><path fill="#28a6de" d="m11.585 54.684c0 4.704 3.136 8.516 7.01 8.516 3.871 0 7.01-3.812 7.01-8.516s-3.136-16.306-7.01-16.306c-3.874 0-7.01 11.601-7.01 16.306"/><path fill="#58c5e8" d="m18.3 38.38c-3.772.549-6.778 11.751-6.778 16.373 0 4.743 3.16 8.583 7.06 8.583 1.778 0 3.381-.825 4.622-2.141-5.547-5.897-7.281-14.714-4.903-22.815"/></svg>