<?xml version="1.0" encoding="utf-8"?>
<!-- Generator: Adobe Illustrator 16.0.0, SVG Export Plug-In . SVG Version: 6.00 Build 0)  -->
<!DOCTYPE svg PUBLIC "-//W3C//DTD SVG 1.1//EN" "http://www.w3.org/Graphics/SVG/1.1/DTD/svg11.dtd">
<svg version="1.1" id="Layer_1" xmlns="http://www.w3.org/2000/svg" xmlns:xlink="http://www.w3.org/1999/xlink" x="0px" y="0px"
	 width="100px" height="100px" viewBox="0 0 100 100" enable-background="new 0 0 100 100" xml:space="preserve">
<g>
	<path fill="#FFFFFF" d="M80,44H59c-1.1,0-2,0.9-2,2v1c0,1.6-1.3,3-3,3l0,0c-1.6,0-3-1.3-3-3v-1c0-1.1-0.9-2-2-2h-5h0.1
		c-5.9,0.3-11,3.7-13.8,8.6c-1-0.399-2.1-0.6-3.2-0.6c-5,0-9,4-9,9s4,9,9,9c1.1,0,2.2-0.2,3.2-0.6c2.8,4.899,8,8.3,13.8,8.6
		C53.9,78.5,62,70.7,62,61c0-0.6,0-1.2-0.1-1.8c-0.101-1,0.6-2,1.6-2.2l16.9-3.7c0.899-0.2,1.6-1,1.6-2V46C82,44.9,81.1,44,80,44z
		 M27,64c-1.7,0-3-1.3-3-3s1.3-3,3-3c0.4,0,0.9,0.1,1.2,0.3C28,59.5,28,60.8,28,62.1c0,0.601,0.1,1.101,0.2,1.601
		C27.8,63.9,27.4,64,27,64z"/>
	<path fill="#FFFFFF" d="M54,37c1.7,0,3-1.3,3-3v-9c0-1.7-1.3-3-3-3s-3,1.3-3,3v9C51,35.7,52.3,37,54,37z"/>
	<path fill="#FFFFFF" d="M39.7,38c0.6,0.7,1.4,1,2.3,1c0.7,0,1.4-0.2,2-0.7c1.3-1.1,1.4-3,0.3-4.2l-6-7c-1.1-1.3-3-1.4-4.2-0.3
		c-1.3,1.1-1.4,3-0.3,4.2L39.7,38z"/>
	<path fill="#FFFFFF" d="M66,39c0.8,0,1.7-0.4,2.3-1l6-7c1.101-1.3,0.9-3.2-0.3-4.2c-1.3-1.1-3.2-0.9-4.2,0.3l-6,7
		c-1.1,1.3-0.899,3.2,0.3,4.2C64.6,38.8,65.3,39,66,39z"/>
</g>
</svg>
