<svg viewBox="64 64 896 896" focusable="false"><defs><style /></defs><path d="M938.2 508.4L787.3 389c-3-2.4-7.3-.2-7.3 3.6V478H636V184h204v128c0 2.2 1.8 4 4 4h60c2.2 0 4-1.8 4-4V144c0-15.5-12.5-28-28-28H596c-15.5 0-28 12.5-28 28v736c0 15.5 12.5 28 28 28h284c15.5 0 28-12.5 28-28V712c0-2.2-1.8-4-4-4h-60c-2.2 0-4 1.8-4 4v128H636V546h144v85.4c0 3.8 4.4 6 7.3 3.6l150.9-119.4a4.5 4.5 0 000-7.2zM428 116H144c-15.5 0-28 12.5-28 28v168c0 2.2 1.8 4 4 4h60c2.2 0 4-1.8 4-4V184h204v294H244v-85.4c0-3.8-4.3-6-7.3-3.6l-151 119.4a4.52 4.52 0 000 7.1l151 119.5c2.9 2.3 7.3.2 7.3-3.6V546h144v294H184V712c0-2.2-1.8-4-4-4h-60c-2.2 0-4 1.8-4 4v168c0 15.5 12.5 28 28 28h284c15.5 0 28-12.5 28-28V144c0-15.5-12.5-28-28-28z" /></svg>