<svg xmlns="http://www.w3.org/2000/svg" width="100" height="100" viewBox="0 0 100 100"><path d="M37.1,23.1l-1.3-1.3c-.4-.4-.9-.4-1.3,0l-8.3,8.3-3.3-3.3c-.4-.4-.9-.4-1.3,0l-1.3,1.3c-.4.4-.4.9,0,1.3l4.6,4.6c.2.2.4.3.6.4h1.4c.2,0,.4-.2.6-.4l9.6-9.6c.3-.3.3-.9,0-1.3ZM56.1,32.1h-16.3c-.7,0-1.3-.6-1.3-1.3v-2.5c0-.7.6-1.3,1.3-1.3h16.3c.7,0,1.3.6,1.3,1.3v2.5c0,.7-.6,1.3-1.3,1.3ZM46.8,43.3h-10.7c-.7,0-1.3-.6-1.3-1.3v-2.5c0-.7.6-1.3,1.3-1.3h13.7l-3.1,5h0l.1.1ZM43,49.6h-6.9c-.7,0-1.3.6-1.3,1.3v2.5c0,.7.6,1.3,1.3,1.3h3.8l3.1-5h0v-.1ZM40.2,62l-7.1,11.5c-1.3,2.1,0,5,2.3,5h41.8c2.3,0,3.7-2.9,2.3-5l-20.9-33.8c-1-1.7-3.2-1.8-4.3-.3l-13.4,21.9c-.2.3-.4.6-.7.8h0v-.1ZM28.6,43.3h-2.5c-.7,0-1.3-.6-1.3-1.3v-2.5c0-.7.6-1.3,1.3-1.3h2.5c.7,0,1.3.6,1.3,1.3v2.5c0,.7-.6,1.3-1.3,1.3ZM28.6,54.5h-2.5c-.7,0-1.3-.6-1.3-1.3v-2.5c0-.7.6-1.3,1.3-1.3h2.5c.7,0,1.3.6,1.3,1.3v2.5c0,.7-.6,1.3-1.3,1.3ZM53.3,75l1.9-8.9c0-.3-.2-.6-.5-.6h-5.8c-.5,0-.9-.5-.7-1l4.2-12.3c.2-.5.7-.9,1.2-.9h8.9c.6,0,1,.7.7,1.2l-5,8.2c-.2.3,0,.8.5.8h5.7c.4,0,.7.5.4.9l-10.6,13.1c-.3.4-1,0-.9-.5Z" fill="#fff"/></svg>