<svg xmlns="http://www.w3.org/2000/svg" width="24" height="24" viewBox="0 0 24 24"><path d="M19.864,8.465C19.953,8.152,20,7.827,20,7.5c0-1.817-1.392-3.315-3.166-3.484C16.426,2.844,15.31,2,14,2 c-0.771,0-1.468,0.301-2,0.78C11.468,2.301,10.771,2,10,2C8.699,2,7.59,2.831,7.175,4.015C5.396,4.18,4,5.68,4,7.5 c0,0.327,0.047,0.652,0.136,0.965C2.861,9.143,2,10.495,2,12c0,1.075,0.428,2.086,1.172,2.832C3.059,15.208,3,15.603,3,16 c0,1.957,1.412,3.59,3.306,3.934C6.86,21.165,8.104,22,9.5,22c0.979,0,1.864-0.407,2.5-1.059C12.636,21.593,13.521,22,14.5,22 c1.394,0,2.635-0.831,3.19-2.06C19.568,19.612,21,17.97,21,16c0-0.397-0.059-0.792-0.172-1.168C21.572,14.086,22,13.075,22,12 C22,10.495,21.139,9.143,19.864,8.465z M9.5,20c-0.711,0-1.33-0.504-1.47-1.198L7.818,18H7c-1.103,0-2-0.897-2-2 c0-0.352,0.085-0.682,0.253-0.981l0.456-0.816l-0.784-0.51C4.346,13.315,4,12.683,4,12c0-0.977,0.723-1.824,1.682-1.972l1.693-0.26 L6.316,8.422C6.112,8.162,6,7.835,6,7.5C6,6.673,6.673,6,7.5,6c0.106,0,0.214,0.014,0.314,0.032L9,6.207V5c0-0.552,0.448-1,1-1 s1,0.448,1,1v13.5C11,19.327,10.327,20,9.5,20z M19.075,13.692l-0.784,0.51l0.456,0.816C18.915,15.318,19,15.648,19,16 c0,1.103-0.897,2-2.05,2h-0.818l-0.162,0.802C15.83,19.496,15.211,20,14.5,20c-0.827,0-1.5-0.673-1.5-1.5V5c0-0.552,0.448-1,1-1 s1,0.448,1,1.05v1.207l1.186-0.225C16.286,6.014,16.394,6,16.5,6C17.327,6,18,6.673,18,7.5c0,0.335-0.112,0.662-0.316,0.922 l-1.059,1.347l1.693,0.26C19.277,10.176,20,11.023,20,12C20,12.683,19.654,13.315,19.075,13.692z"/></svg>