<svg xmlns="http://www.w3.org/2000/svg" width="24" height="24" viewBox="0 0 24 24"><path d="M15.566,11.021C17.685,9.771,19,7.464,19,5V4h1V2h-1H5H4v2h1v1c0,2.464,1.315,4.771,3.434,6.021 C8.788,11.229,9,11.566,9,11.921v0.158c0,0.354-0.212,0.69-0.566,0.9C6.315,14.229,5,16.536,5,19v1H4v2h1h14h1v-2h-1v-1 c0-2.464-1.315-4.771-3.433-6.02C15.212,12.77,15,12.433,15,12.079v-0.158C15,11.566,15.212,11.229,15.566,11.021z M14.551,14.702 C16.062,15.594,17,17.24,17,19v1H7v-1c0-1.76,0.938-3.406,2.45-4.299c0.971-0.573,1.55-1.554,1.55-2.622v-0.158 c0-1.069-0.58-2.051-1.551-2.623C7.938,8.406,7,6.76,7,5V4h10v1c0,1.76-0.938,3.406-2.449,4.298C13.58,9.87,13,10.852,13,11.921 v0.158C13,13.147,13.579,14.128,14.551,14.702z"/></svg>