<svg viewBox="0 0 24 24" fill="currentColor" xmlns="http://www.w3.org/2000/svg"><path d="M7.38938 16.5386C5.33894 15.0901 4 12.7014 4 10C4 5.58172 7.58172 2 12 2C16.4183 2 20 5.58172 20 10C20 12.7014 18.6611 15.0901 16.6106 16.5386L18.6936 21.2996C18.8043 21.5526 18.6889 21.8474 18.4359 21.9581C18.3727 21.9857 18.3045 22 18.2355 22H5.76451C5.48837 22 5.26451 21.7761 5.26451 21.5C5.26451 21.431 5.27878 21.3628 5.30643 21.2996L7.38938 16.5386ZM14.1246 15.846L15.4567 14.905C17.041 13.7858 18 11.9752 18 10C18 6.68629 15.3137 4 12 4C8.68629 4 6 6.68629 6 10C6 11.9752 6.95901 13.7858 8.54335 14.905L9.87539 15.846L8.05803 20H15.942L14.1246 15.846ZM8.11851 10.9704L10.0593 10.4852C10.2761 11.3553 11.0628 12 12 12C12.9372 12 13.7239 11.3553 13.9407 10.4852L15.8815 10.9704C15.4478 12.7106 13.8745 14 12 14C10.1255 14 8.55217 12.7106 8.11851 10.9704Z"/></svg>