<svg xmlns="http://www.w3.org/2000/svg" fill="#fff" stroke-linejoin="round" viewBox="0 0 1196 1196"><path fill="#706cf5" d="M697 0c296 0 497 201 497 497v224c-10 284-208 476-497 476H500C203 1196 2 1002 2 705V491C2 204 192 12 473 1l27-1z"/><path d="M615 963a381 381 0 0040-2l-25-50-15 1a314 314 0 01-281-174 712 712 0 01-71-42 365 365 0 00352 267zm313-342h51v-47a365 365 0 00-666-181c-79 11-133 40-145 84-12 45 20 97 83 147 17 13 36 26 57 39 69 42 171 85 272 113l-22-66a959 959 0 01-257-112 312 312 0 0144-159 314 314 0 01584 159v2a348 348 0 01-1 21zM286 440l-3 6a363 363 0 00-31 113c-26-26-39-51-33-73 6-21 30-37 67-46zm305 228h53l89 248h-53zm183-5h55l-76 218-30-80zm117 132h60l76 120h-60zm80-9l24 37s35-19 35-53c0-54-17-106-98-106s-92 27-92 64v187h48V722s-5-13 51-13 47 67 32 77z"/></svg>