<svg viewBox="0 0 24 24" fill="currentColor" xmlns="http://www.w3.org/2000/svg"><path d="M12 3C12.5523 3 13 3.44771 13 4L13 10C13 10.5523 12.5523 11 12 11L4 11C3.44772 11 3 10.5523 3 10L3 4C3 3.44772 3.44772 3 4 3L12 3ZM20 3C20.5523 3 21 3.44771 21 4L21 10C21 10.5523 20.5523 11 20 11L16 11C15.4477 11 15 10.5523 15 10L15 4C15 3.44771 15.4477 3 16 3L20 3ZM20 13C20.5523 13 21 13.4477 21 14L21 20C21 20.5523 20.5523 21 20 21L12 21C11.4477 21 11 20.5523 11 20L11 14C11 13.4477 11.4477 13 12 13L20 13ZM3 14C3 13.4477 3.44772 13 4 13L8 13C8.55229 13 9 13.4477 9 14L9 20C9 20.5523 8.55229 21 8 21L4 21C3.44772 21 3 20.5523 3 20L3 14Z"/></svg>