<svg viewBox="0 0 24 24" fill="currentColor" xmlns="http://www.w3.org/2000/svg"><path d="M8 1.5C8 0.947715 7.55228 0.5 7 0.5C6.44772 0.5 6 0.947715 6 1.5V2.5C6 2.50686 6.00042 2.51285 6.00081 2.51843C6.00385 2.56193 6.00516 2.58063 5.79289 2.79289L5.77277 2.81298C5.50599 3.07912 5 3.58391 5 4.5V5.5C5 6.05228 5.44772 6.5 6 6.5C6.55228 6.5 7 6.05228 7 5.5V4.5C7 4.49314 6.99958 4.48715 6.99919 4.48157C6.99615 4.43807 6.99484 4.41937 7.20711 4.20711L7.22723 4.18702C7.49401 3.92088 8 3.41609 8 2.5V1.5ZM2 9C2 8.44771 2.44772 8 3 8H21C21.5523 8 22 8.44772 22 9V10C22 14.1006 19.5318 17.6248 16 19.1679V20C16 20.5523 15.5523 21 15 21H9C8.44772 21 8 20.5523 8 20V19.1679C4.46819 17.6248 2 14.1006 2 10V9ZM18 0.5C18.5523 0.5 19 0.947715 19 1.5V2.5C19 3.41609 18.494 3.92088 18.2272 4.18702L18.2071 4.20711C17.9948 4.41937 17.9962 4.43807 17.9992 4.48157C17.9996 4.48715 18 4.49314 18 4.5V5.5C18 6.05228 17.5523 6.5 17 6.5C16.4477 6.5 16 6.05228 16 5.5V4.5C16 3.58391 16.506 3.07912 16.7728 2.81298L16.7929 2.79289C17.0052 2.58063 17.0038 2.56193 17.0008 2.51843C17.0004 2.51285 17 2.50686 17 2.5V1.5C17 0.947715 17.4477 0.5 18 0.5ZM13.5 1.5C13.5 0.947715 13.0523 0.5 12.5 0.5C11.9477 0.5 11.5 0.947715 11.5 1.5V2.5C11.5 2.50686 11.5004 2.51285 11.5008 2.51843C11.5038 2.56193 11.5052 2.58063 11.2929 2.79289L11.2728 2.81298C11.006 3.07912 10.5 3.58391 10.5 4.5V5.5C10.5 6.05228 10.9477 6.5 11.5 6.5C12.0523 6.5 12.5 6.05228 12.5 5.5V4.5C12.5 4.49314 12.4996 4.48715 12.4992 4.48157C12.4962 4.43807 12.4948 4.41937 12.7071 4.20711L12.7272 4.18702C12.994 3.92088 13.5 3.41609 13.5 2.5V1.5Z"/></svg>