<svg xmlns="http://www.w3.org/2000/svg" width="16" height="16" fill="currentColor" class="bi bi-send-check-fill" viewBox="0 0 16 16">
  <path fill-rule="evenodd" d="M15.964.686a.5.5 0 0 0-.65-.65L.767 5.855H.766l-.452.18a.5.5 0 0 0-.082.887l.41.26.001.002 4.995 3.178 1.59 2.498C8 14 8 13 8 12.5a4.5 4.5 0 0 1 5.026-4.47L15.964.686Zm-1.833 1.89.471-1.178-1.178.471L5.93 9.363l.338.215a.5.5 0 0 1 .154.154l.215.338 7.494-7.494ZM16 12.5a3.5 3.5 0 1 1-7 0 3.5 3.5 0 0 1 7 0Zm-1.993-1.679a.5.5 0 0 1 .172.686l-1.335 2.226a.75.75 0 0 1-1.174.144l-.774-.773a.5.5 0 0 1 .708-.708l.547.548 1.17-1.951a.5.5 0 0 1 .686-.172Z"/>
</svg>