<svg xmlns="http://www.w3.org/2000/svg" width="64" height="64" viewBox="0 0 64 64"><path fill="#D0D0D0" d="M61.978 51.994c0 5.523-4.478 10-10 10h-40c-5.522 0-10-4.477-10-10v-40c0-5.523 4.478-10 10-10h40c5.522 0 10 4.477 10 10v40z"/><path fill="#FFF" d="M56.978 45.66a8.333 8.333 0 0 1-8.333 8.334H15.311a8.333 8.333 0 0 1-8.333-8.334V12.328a8.333 8.333 0 0 1 8.333-8.334h33.334a8.333 8.333 0 0 1 8.333 8.334V45.66z"/><g><path fill="#9AA0A5" d="M21.978 36.145l5.585-.707c.179 1.482.657 2.617 1.438 3.4s1.725 1.176 2.834 1.176c1.19 0 2.193-.471 3.009-1.41.814-.941 1.223-2.209 1.223-3.807 0-1.51-.391-2.707-1.172-3.59-.781-.885-1.731-1.324-2.854-1.324-.74 0-1.623.148-2.65.447l.637-4.895c1.561.043 2.752-.311 3.573-1.059s1.232-1.742 1.232-2.982c0-1.055-.301-1.896-.903-2.521-.603-.627-1.404-.941-2.403-.941-.985 0-1.827.355-2.525 1.068s-1.122 1.752-1.273 3.121l-5.317-.939c.369-1.896.928-3.41 1.674-4.543.745-1.133 1.785-2.023 3.121-2.672 1.334-.648 2.83-.973 4.486-.973 2.833 0 5.106.939 6.816 2.822 1.41 1.539 2.115 3.275 2.115 5.215 0 2.75-1.444 4.945-4.332 6.584 1.725.385 3.104 1.246 4.138 2.586 1.033 1.34 1.55 2.957 1.55 4.854 0 2.75-.965 5.094-2.895 7.031-1.932 1.938-4.334 2.908-7.208 2.908-2.724 0-4.983-.816-6.776-2.447-1.795-1.633-2.835-3.768-3.123-6.402z"/></g></svg>