<svg xmlns="http://www.w3.org/2000/svg" width="64" height="64" viewBox="0 0 64 64"><path fill="#D0D0D0" d="M62 52c0 5.523-4.478 10-10 10H12C6.478 62 2 57.523 2 52V12C2 6.477 6.478 2 12 2h40c5.522 0 10 4.477 10 10v40z"/><path fill="#FFF" d="M57 45.666A8.333 8.333 0 0 1 48.667 54H15.333A8.333 8.333 0 0 1 7 45.666V12.334A8.333 8.333 0 0 1 15.333 4h33.334A8.333 8.333 0 0 1 57 12.334v33.332z"/><g><path fill="#9AA0A5" d="M22.572 37.203l5.556-.641c.136 1.182.491 2.057 1.063 2.627s1.328.854 2.268.854c1.185 0 2.193-.568 3.023-1.709.83-1.139 1.36-3.502 1.593-7.092-1.443 1.752-3.247 2.627-5.413 2.627-2.357 0-4.391-.951-6.098-2.85C22.854 29.117 22 26.643 22 23.596c0-3.178.901-5.736 2.707-7.68C26.512 13.971 28.809 13 31.602 13c3.036 0 5.528 1.229 7.479 3.684C41.026 19.143 42 23.182 42 28.807c0 5.727-1.015 9.855-3.044 12.391C36.926 43.73 34.284 45 31.03 45c-2.343 0-4.236-.652-5.681-1.955-1.443-1.303-2.369-3.252-2.777-5.842zm12.994-13.117c0-1.938-.429-3.439-1.278-4.506-.853-1.068-1.836-1.604-2.952-1.604-1.063 0-1.943.439-2.645 1.314-.703.877-1.054 2.311-1.054 4.305 0 2.021.382 3.508 1.146 4.453.763.947 1.716 1.42 2.858 1.42 1.104 0 2.033-.453 2.79-1.365.757-.912 1.135-2.249 1.135-4.017z"/></g></svg>