<svg xmlns="http://www.w3.org/2000/svg" width="64" height="64" viewBox="0 0 64 64"><path fill="#EFEDED" d="M13 62.5A5.506 5.506 0 0 1 7.5 57V7c0-3.032 2.467-5.5 5.5-5.5h38c3.033 0 5.5 2.468 5.5 5.5v50c0 3.032-2.467 5.5-5.5 5.5H13z"/><path fill="#262626" d="M51 3a4 4 0 0 1 4 4v50a4 4 0 0 1-4 4H13a4 4 0 0 1-4-4V7a4 4 0 0 1 4-4h38m0-3H13C9.14 0 6 3.141 6 7v50c0 3.859 3.14 7 7 7h38c3.859 0 7-3.141 7-7V7c0-3.859-3.141-7-7-7z"/><g><path fill="#333" d="M43.648 55.167l-7.273-12.846c-1.174 1.299-2.719 4.247-4.414 4.247-1.651 0-3.163-2.91-4.325-4.154l-7.325 12.753 8.661-7.332-.89 7.332 3.945-7.704 3.853 7.704-.809-7.343 8.577 7.343z"/><path fill="#FED0AC" d="M39.309 26.891H24.681s-3.048 5.757 2.563 15.254c1.772 2.999 3.339 4.483 4.75 4.511 1.413-.027 2.981-1.512 4.752-4.511 5.608-9.498 2.563-15.254 2.563-15.254z"/><path fill="#333" d="M35.635 39.625s-.123.089-.334.228a8.714 8.714 0 0 1-.84.521c-.346.19-.74.375-1.158.5a4.387 4.387 0 0 1-.645.142c-.054.005-.109.017-.164.022-.054.002-.115.012-.164.014l-.072.004-.035.003h-.02l-.026.002-.188.004c-.47 0-.912-.062-1.333-.182a5.325 5.325 0 0 1-1.15-.491c-.341-.188-.626-.383-.828-.528s-.322-.238-.322-.238-.004.035 0 .101c.006.067.018.164.044.283.054.242.173.583.429.953.126.187.288.376.487.563.202.182.442.356.719.507.279.146.593.27.925.348.335.08.681.122 1.027.124h.038l.015-.002h.079l.108-.005h.028l.034-.005.072-.005.142-.016c.182-.019.349-.05.515-.092a3.767 3.767 0 0 0 1.635-.869c.197-.183.359-.374.486-.558a3.12 3.12 0 0 0 .293-.521 2.86 2.86 0 0 0 .148-.423c.059-.24.055-.384.055-.384zM30.252 33.401a1.093 1.093 0 0 0-.107-.198 1.62 1.62 0 0 0-.079-.118c-.028-.038-.064-.078-.1-.121s-.076-.083-.12-.127c-.046-.043-.092-.088-.147-.128-.053-.038-.105-.083-.171-.121a3.281 3.281 0 0 0-.192-.11 2.303 2.303 0 0 0-.464-.163l-.125-.024a1.873 1.873 0 0 0-.131-.015c-.086-.014-.176-.01-.265-.012a2.249 2.249 0 0 0-.956.244 2.179 2.179 0 0 0-.357.223 2.38 2.38 0 0 0-.271.243 2 2 0 0 0-.309.428c-.027.055-.044.101-.056.133-.015.029-.018.048-.018.048l.191-.081c.12-.051.284-.122.475-.199.098-.035.197-.074.305-.11a.858.858 0 0 0-.095.391c0 .536.489.974 1.094.974.602 0 1.092-.438 1.092-.974a.904.904 0 0 0-.114-.432c.013.005.023.011.037.015.054.015.101.038.15.058.051.019.1.038.145.061.093.04.183.077.26.118.079.034.151.067.206.094.059.028.109.049.142.066l.05.021s-.003-.018-.017-.048c-.011-.034-.026-.081-.053-.136zM37.588 33.534c-.012-.031-.027-.078-.057-.133a.954.954 0 0 0-.104-.198c-.023-.038-.051-.077-.08-.118-.029-.038-.064-.078-.1-.121s-.078-.083-.119-.127c-.047-.043-.092-.088-.148-.128-.053-.038-.105-.083-.17-.121a3.69 3.69 0 0 0-.193-.11 2.383 2.383 0 0 0-.463-.163l-.127-.024c-.043-.006-.084-.012-.131-.015-.088-.014-.174-.01-.262-.012-.174.009-.35.027-.508.074a2.168 2.168 0 0 0-.449.17 2.2 2.2 0 0 0-.629.466c-.154.163-.25.317-.309.428-.027.055-.045.101-.059.133-.01.029-.014.048-.014.048l.189-.081c.121-.051.285-.122.477-.199.096-.035.197-.074.303-.11a.882.882 0 0 0-.092.391c0 .536.488.974 1.09.974.604 0 1.092-.438 1.092-.974a.913.913 0 0 0-.111-.432c.01.005.023.011.035.015.055.015.102.038.152.058.049.019.1.038.143.061.094.04.184.077.26.118.078.034.152.067.207.094.057.028.109.049.139.066l.053.021s-.003-.021-.015-.051zM46.438 14.946C38.932 10.942 33.844 20.063 32 24.179c-1.847-4.115-6.933-13.236-14.438-9.232-2.429 1.296-4.692 3.78-4.692 3.78s10.454-1.283 11.237 9.962c2.158-1.389 4.843-4.1 7.734-4.1 3.027 0 5.878 2.588 8.085 4.1.676-11.483 11.203-9.962 11.203-9.962s-2.266-2.485-4.691-3.781z"/><path fill="#94989B" d="M39.252 26.494c-.451-1.783-2.525-9.255-7.258-15.834v-.1h-.07v.101c-5.415 7.531-7.354 16.23-7.354 16.23l.003-.002c-.392.999-.654 2.187-.719 3.6 0 0 1.151-3.598 4.389-3.598 3.233 0 3.752 3.598 3.752 3.598s.518-3.598 3.754-3.598c3.236 0 4.385 3.598 4.385 3.598-.071-1.605-.402-2.92-.882-3.995z"/><g><ellipse fill="#333" cx="31.981" cy="10.56" rx="1.942" ry="1.727"/><ellipse fill="#94989B" cx="12.871" cy="18.737" rx="1.944" ry="1.728"/><ellipse fill="#94989B" cx="51.131" cy="18.716" rx="1.945" ry="1.728"/></g></g></svg>