<svg xmlns="http://www.w3.org/2000/svg" width="64" height="64" viewBox="0 0 64 64"><path fill="#FF5A79" d="M62 52c0 5.523-4.477 10-10 10H12C6.477 62 2 57.523 2 52V12C2 6.477 6.477 2 12 2h40c5.523 0 10 4.477 10 10v40z"/><path fill="#FFF" d="M43 25.273c0-5.102-4.211-9.25-9.391-9.25L21 16v32l12.609-.023c5.18 0 9.391-4.148 9.391-9.25 0-2.648-1.137-5.039-2.956-6.727C41.863 30.313 43 27.922 43 25.273zm-9.391 17.659h-7.736v-8.408h7.736c2.354 0 4.268 1.885 4.268 4.203s-1.913 4.205-4.268 4.205zm0-13.455h-7.736v-8.408h7.736c2.354 0 4.268 1.887 4.268 4.205 0 2.316-1.913 4.203-4.268 4.203z"/></svg>