<svg xmlns="http://www.w3.org/2000/svg" width="64" height="64" viewBox="0 0 64 64"><path fill="#4FD1D9" d="M62 52c0 5.523-4.477 10-10 10H12C6.477 62 2 57.523 2 52V12C2 6.477 6.477 2 12 2h40c5.523 0 10 4.477 10 10v40z"/><path fill="#FFF" d="M44 42c-5.513 0-10-4.486-10-10.002C34 26.484 38.487 22 44 22c2.566 0 5.007.969 6.87 2.732l-2.29 2.42a6.643 6.643 0 0 0-4.58-1.82 6.673 6.673 0 0 0-6.666 6.666A6.674 6.674 0 0 0 44 38.666a6.676 6.676 0 0 0 6.455-4.998H44v-3.336h10v1.666C54 37.514 49.516 42 44 42zM26.667 22v14.309L12.356 22H10v20h3.334V27.688L27.644 42H30V22z"/></svg>