<svg xmlns="http://www.w3.org/2000/svg" width="64" height="64" viewBox="0 0 64 64"><path fill="#ED4C5C" d="M57.025 15.46h-8.484v-.001L15.459 48.541h.002v8.484h-.001A29.855 29.855 0 0 0 32 62c16.568 0 30-13.432 30-30a29.85 29.85 0 0 0-4.975-16.54z"/><path fill="#75A843" d="M32 2C15.432 2 2 15.432 2 32a29.851 29.851 0 0 0 4.975 16.541h8.485l33.082-33.082V6.975A29.86 29.86 0 0 0 32 2z"/><path fill="#FFE62E" d="M6.975 48.541a30.13 30.13 0 0 0 3.803 4.662l.02.02a30.03 30.03 0 0 0 4.664 3.803L57.025 15.46a30.147 30.147 0 0 0-8.484-8.485L6.975 48.541z"/></svg>