<svg xmlns="http://www.w3.org/2000/svg" width="64" height="64" viewBox="0 0 64 64"><path fill="#FFE62E" d="M32 2C21.181 2 11.702 7.729 6.425 16.316v19.061h-4.23C3.872 50.355 16.573 62 32 62c10.818 0 20.298-5.729 25.575-14.316V28.623h4.23C60.127 13.646 47.426 2 32 2z"/><path fill="#FFF" d="M2.716 25.492l58.568 13.016C61.748 36.412 62 34.236 62 32c0-1.143-.07-2.268-.194-3.377L6.425 16.316a29.787 29.787 0 0 0-3.709 9.176z"/><path fill="#3E4347" d="M61.284 38.508L2.716 25.492A30.079 30.079 0 0 0 2 32c0 1.143.069 2.268.194 3.377l55.381 12.307a29.812 29.812 0 0 0 3.709-9.176z"/><g fill="#ED4C5C"><path d="M22.018 33.289c0 5.645 4.446 10.221 9.931 10.221s9.932-4.576 9.932-10.221c0-2.146-.646-4.137-1.745-5.781a9.55 9.55 0 0 1 .916 4.078c0 4.207-2.693 7.766-6.403 8.949l-1.975-4.926v-7.857c.425.154 1.037.391 1.861.746 3.207 1.385 5.689-2.768 5.689-2.768s-2.275.318-4.138-1.49c-1.211-1.178-2.593-.645-3.413-.127v-1.151h1.551s.414-4.685-2.327-5.962v3.406h-1.5v2.556h.62v1.029c-.834-.468-2.093-.835-3.206.249-1.862 1.809-4.139 1.49-4.139 1.49s2.483 4.152 5.69 2.768a34.986 34.986 0 0 1 1.654-.67v7.682h-.04l-1.979 4.934c-3.578-1.264-6.153-4.746-6.153-8.857 0-1.463.335-2.844.917-4.078a10.374 10.374 0 0 0-1.743 5.78zM21.189 40.637V32.65c-3.207-1.703-3.207-4.152-3.207-4.152H15.5c0 4.472 2.482 5.111 2.482 5.111v7.027h3.207zM46.017 28.498s0 2.449-3.206 4.152v7.986h3.206v-7.027s2.483-.64 2.483-5.111h-2.483z"/><path d="M31.896 45.211c-3.56-.018-6.71-1.811-8.656-4.564l-2.981 4.566s2.689-.213 5.172 1.172c2.469 1.377 3.201.016 6.466.002 3.265.014 3.996 1.375 6.465-.002 2.483-1.385 5.173-1.172 5.173-1.172l-2.981-4.566c-1.948 2.753-5.099 4.546-8.658 4.564z"/></g></svg>