<svg xmlns="http://www.w3.org/2000/svg" width="64" height="64" viewBox="0 0 64 64"><path fill="#42ADE2" d="M59.496 44v-4H60.9a29.952 29.952 0 0 0 1.1-8C62 15.432 48.568 2 32 2S2 15.432 2 32c0 2.771.384 5.451 1.087 8h1.417v4a30.015 30.015 0 0 0 3.519 6h3.59v3.982C16.964 58.951 24.121 62 32 62c7.874 0 15.035-3.037 20.388-8v-4H56a29.92 29.92 0 0 0 3.496-6z"/><path fill="#FFE62E" d="M4.504 44h54.992a29.87 29.87 0 0 0 1.417-4H3.087a29.73 29.73 0 0 0 1.417 4zM8 50a30.255 30.255 0 0 0 3.612 4h40.775a30.255 30.255 0 0 0 3.612-4H8z"/><path fill="#FFF" d="M22 33.713l-3.73-9.982L8.286 20l9.983-3.73L22 6.287l3.73 9.982L35.714 20l-9.983 3.73L22 33.713z"/><path fill="#C94747" d="M19.823 17.824L22 12l2.177 5.824L30 20l-5.823 2.176L22 28l-2.177-5.824L14 20z"/></svg>