<svg xmlns="http://www.w3.org/2000/svg" width="64" height="64" viewBox="0 0 64 64"><path fill="#F5F5F5" d="M37.969 2.601H26.032C14.264 4.978 4.989 14.235 2.602 26v11.998c2.388 11.766 11.662 21.023 23.431 23.4H38c11.764-2.387 21.022-11.662 23.399-23.43V26C59.012 14.235 49.737 4.978 37.969 2.601z"/><path fill="#ED4C5C" d="M38 25.999V2.601c-1.938-.395-3.945-.602-6-.602s-4.061.207-6 .602v23.398H2.602a30.104 30.104 0 0 0-.602 6c0 2.056.208 4.062.602 6.001H26v23.398c1.939.395 3.945.602 6 .602s4.062-.207 6-.602V38h23.399c.394-1.939.601-3.945.601-6.001 0-2.055-.207-4.061-.601-6H38z"/><path fill="#FFCE31" d="M52 29.5H34.5V12L37 9.5H27l2.5 2.5v17.5H12L9.5 27v10l2.5-2.5h17.5V52L27 54.5h10L34.5 52V34.5H52l2.5 2.5V27z"/></svg>