<svg xmlns="http://www.w3.org/2000/svg" width="64" height="64" viewBox="0 0 64 64"><path fill="#42ADE2" d="M11.005 32v21.422C16.416 58.726 23.824 62 32 62c16.568 0 30-13.432 30-30H11.005z"/><path fill="#83BF4F" d="M11.005 32H62C62 15.432 48.568 2 32 2c-8.176 0-15.584 3.275-20.995 8.58V32z"/><path fill="#ED4C5C" d="M11.005 10.579C5.45 16.023 2 23.607 2 32s3.45 15.977 9.006 21.422L61.427 32 11.005 10.579z"/><g fill="#FFCE31"><path d="M16.981 23.413c1.243 0 2.253-1.161 2.253-2.597 0-1.432-1.01.809-2.253.809-1.244 0-2.255-2.24-2.255-.809.001 1.436 1.011 2.597 2.255 2.597z"/><path d="M26.956 35.51c.28-.728.482-1.494.604-2.288.843-.377 1.44-1.313 1.44-2.415.001-1.043-.535-.139-1.307.43a11.304 11.304 0 0 0-.319-2.393c.545-.683.702-1.707.314-2.662-.366-.91-.525-.031-.962.768a11.058 11.058 0 0 0-1.236-2.104c.175-.809-.071-1.737-.743-2.422-.647-.664-.514.1-.59.957a10.788 10.788 0 0 0-1.956-1.426c-.168-.78-.736-1.497-1.578-1.854-1.293-.549.346 1.261-.132 2.438-.476 1.18-2.888 1.273-1.589 1.823 1.019.433 2.122.198 2.778-.495.504.322.956.703 1.38 1.113-.999.277-2.293-.109-1.499.705.755.773 1.818 1.004 2.67.672.324.475.602.979.831 1.51-.989-.178-1.95-.943-1.537.082.388.959 1.216 1.572 2.08 1.654.112.533.187 1.078.203 1.639-.776-.569-1.316-1.482-1.317-.436.001.989.487 1.84 1.195 2.277a9.092 9.092 0 0 1-.4 1.521c-.439-.801-.599-1.689-.971-.776-.348.862-.252 1.78.171 2.454a9.064 9.064 0 0 1-.871 1.197c-.073-.846.05-1.586-.593-.93-.612.629-.878 1.463-.784 2.221a8.74 8.74 0 0 1-1.195.768c.248-.756.567-1.318-.232-.98a2.685 2.685 0 0 0-1.529 1.675c-.729.2-1.492.317-2.281.317a8.6 8.6 0 0 1-2.282-.317 2.683 2.683 0 0 0-1.528-1.675c-.8-.338-.48.225-.232.98a8.646 8.646 0 0 1-1.195-.768c.094-.758-.171-1.592-.784-2.221-.643-.656-.52.084-.593.932a8.994 8.994 0 0 1-.871-1.199c.423-.673.52-1.592.171-2.454-.371-.915-.53-.023-.972.777a8.879 8.879 0 0 1-.4-1.521c.709-.438 1.195-1.289 1.196-2.278-.001-1.048-.542-.133-1.319.437.017-.56.088-1.105.199-1.64.867-.079 1.697-.693 2.087-1.654.416-1.033-.562-.25-1.559-.08a8.98 8.98 0 0 1 .851-1.512c.854.332 1.917.101 2.671-.672.798-.818-.516-.422-1.518-.709a8.907 8.907 0 0 1 1.407-1.1c.658.686 1.756.916 2.771.485 1.297-.55-1.115-.644-1.591-1.823-.478-1.177 1.161-2.986-.132-2.438-.842.356-1.409 1.072-1.577 1.852-.712.404-1.367.879-1.957 1.418-.075-.854.055-1.609-.591-.947-.671.684-.917 1.611-.743 2.421a11.001 11.001 0 0 0-1.239 2.095c-.433-.795-.592-1.664-.959-.758-.387.953-.23 1.975.313 2.657a11.297 11.297 0 0 0-.317 2.396c-.774-.568-1.309-1.47-1.308-.427 0 1.102.598 2.037 1.439 2.414.121.795.322 1.562.603 2.289-.985-.181-1.937-.936-1.523.083.432 1.071 1.411 1.707 2.377 1.657.403.67.87 1.292 1.401 1.855-1.002.283-2.308-.109-1.51.705.833.854 2.035 1.045 2.922.551.606.453 1.258.844 1.949 1.16-.808.7-2.266.846-1.196 1.298 1.114.472 2.327.158 2.949-.687.128.033.252.073.382.102A2.899 2.899 0 0 0 14.188 44h5.623a2.9 2.9 0 0 0-.605-1.766c.13-.028.254-.068.382-.102.622.845 1.835 1.158 2.949.687 1.069-.452-.389-.598-1.196-1.298a10.69 10.69 0 0 0 1.949-1.16c.887.494 2.089.303 2.922-.551.798-.814-.51-.422-1.511-.705.531-.563.999-1.187 1.402-1.855.966.051 1.945-.586 2.378-1.657.414-1.019-.539-.264-1.525-.083z"/></g><path fill="#FFCE31" d="M16 25.875v16c0 1.29 2 1.29 2 0v-16c0-1.289-2-1.289-2 0z"/><path fill="#FFCE31" d="M20.998 34.002s-2.672-.07-3.43.688a1.94 1.94 0 0 0 2.744 2.742c.758-.758.686-3.43.686-3.43zM13.002 32.002s2.672-.07 3.43.688a1.94 1.94 0 0 1-2.744 2.742c-.758-.758-.686-3.43-.686-3.43zM13.002 27.002s2.672-.07 3.43.688a1.94 1.94 0 0 1-2.744 2.742c-.758-.758-.686-3.43-.686-3.43zM20.998 29.002s-2.672-.07-3.43.688a1.94 1.94 0 0 0 2.744 2.742c.758-.758.686-3.43.686-3.43zM18.999 26.002s-1.336-.036-1.715.343a.97.97 0 1 0 1.372 1.372c.379-.379.343-1.715.343-1.715z"/></svg>