<svg xmlns="http://www.w3.org/2000/svg" width="64" height="64" viewBox="0 0 64 64"><path fill="#FFF" d="M12.639 54.908l47.963-31.976C57.393 12.801 48.95 5.003 38.447 2.702L2.48 26.68A30.179 30.179 0 0 0 2 32c0 9.188 4.135 17.404 10.639 22.908z"/><path fill="#2A5F9E" d="M62 32c0-3.16-.492-6.206-1.398-9.067L12.639 54.908A29.869 29.869 0 0 0 32 62c16.568 0 30-13.432 30-30z"/><path fill="#FFCE31" d="M2.48 26.68L38.447 2.702A30.087 30.087 0 0 0 32 2C17.249 2 4.993 12.651 2.48 26.68z"/><path fill="#3E4347" d="M39.466 29.543l2.759-1.593-2.759-1.594c-.724-5.798-5.324-10.399-11.122-11.122l-1.594-2.76-1.593 2.76c-5.798.723-10.399 5.324-11.122 11.122l-2.759 1.594 2.759 1.593c.723 5.798 5.324 10.4 11.123 11.123l1.592 2.76 1.594-2.76c5.798-.723 10.398-5.324 11.122-11.123zM26.75 39.125c-6.162 0-11.174-5.012-11.174-11.174s5.012-11.176 11.174-11.176 11.176 5.013 11.176 11.176-5.014 11.174-11.176 11.174z"/><path fill="#ED4C5C" d="M31.167 27.95l2.208-3.825h-4.416L26.75 20.3l-2.208 3.825h-4.417l2.209 3.825-2.209 3.825h4.418L26.75 35.6l2.209-3.825h4.416z"/></svg>