<svg xmlns="http://www.w3.org/2000/svg" width="64" height="64" viewBox="0 0 64 64"><path fill="#C94747" d="M32 2C18.939 2 7.833 10.349 3.714 22h56.572C56.167 10.349 45.061 2 32 2z"/><path fill="#3E4347" d="M32 62c13.061 0 24.167-8.35 28.286-20H3.714C7.833 53.65 18.939 62 32 62z"/><path fill="#F9F9F9" d="M3.714 22A29.912 29.912 0 0 0 2 32c0 3.508.607 6.872 1.714 10h56.572A29.916 29.916 0 0 0 62 32c0-3.508-.607-6.871-1.714-10H3.714z"/><g><g fill="#699635"><path d="M44.724 26.572c-.178-.094-.377-.244-.444-.334-.099-.14-.041-.145.37-.033.735.199 1.211.122 1.683-.278l.415-.35.488.249c.271.136.557.23.638.209.212-.057.651-.62.637-.815-.017-.241.187-.181.285.084.194.518-.089 1.112-.592 1.243-.246.064-.473.041-.845-.089-.457-.16-.535-.157-.764.019-.514.394-1.23.431-1.871.095zM46.543 24.908c-.179-.228-.394-1.087-.323-1.299.061-.182.124-.22.29-.167.292.092.358.292.313.973-.032.555-.113.701-.28.493zM25.103 24.29c-.058.417.738 1.451 1.099 1.637-.245.11-.549.061-.772.184-1.255 1.255-5.833 5.718-6.67 6.785 2.477.049 5.224-.035 7.546-.14-.001-1.683 1.593-1.77 2.661-2.383.55.866 1.93.799 2.104 2.102l.002 5.603H9.916c-.373 1.645-1.856 2.898-3.924 2.383.639-.668 1.717-.898 2.102-1.82.325-2.023-.65-3.27-1.28-4.416 1.044-.381 1.201-.475 2.262-1.189-.744 2.262 1.934 2.014 3.923 1.963.066-.768.029-1.674-.562-1.785.761-.277.888-.373 2.104-1.403v3.047c4.726 0 9.826-.037 14.65-.037 0-.951.253-2.484-.501-2.484-.722 0-.033 1.96-.594 1.96H16.781c0-.422-.012-1.303-.012-1.938.481-.479.424-.438 3.7-3.714.325-.327 2.624-2.404 4.634-4.355zM53.385 24.209c.791.425 1.415 1.014 2.383 1.261-.112.4-.469.558-.562.981v8.544c1.08.238 1.309-.373 1.822-.699.14 1.367 1.011 2.707.98 3.781h-4.624l.001-13.868zM47.221 28.786s1.681-1.419 1.681-1.474v7.458l1.212-.002c0-2.841-.036-5.723-.036-8.364.489-.492 1.453-1.204 1.693-1.701v13.356c-3.412 0-9.779.004-10.62.004-.155-2.771-.183-5.643 3.048-5.027v-1.129c-.098-.193-.274.047-.316-.205.514-.514.688-.645 2.076-1.858 0 1.465.027 4.921.027 4.921l1.225.002c-.001-.001.01-5.791.01-5.981zm-3.988 5.907c.227.342 1.003.336.965-.238-.129-.475-1.146-.295-.965.238z"/><circle cx="12.489" cy="39.653" r=".649"/><path d="M32.503 24.223c.791.425 1.417 1.013 2.383 1.261-.111.399-.468.558-.562.979v8.546c1.08.238 1.307-.375 1.822-.701.14 1.369 1.011 2.709.98 3.783h-4.624l.001-13.868z"/></g></g></svg>