<svg xmlns="http://www.w3.org/2000/svg" width="64" height="64" viewBox="0 0 64 64"><circle fill="#3A7DCE" cx="32" cy="32" r="30"/><path fill="#FFF" d="M17.619 30.691l-.339-1.354-.299.006-.452.496-.095-1.349-.677-.507-.338.169-.069.271-.65-.294-.465-.653 1.184-1.015-2.03-1.523-1.016-3.722 7.445 5.245 4.568-1.185-.169-.676.846-.169.435-1.507-.097-.524.302-.396.184-.977-.149-.447.637-.623-.127-1.449 1.523-.676 1.352-1.353-.169-.678.994.492.751-.523.286-.815.38.645 4.336.185.889.858 3.463.691.748.681.506-.183.543 1.702.291-.055.391-.458 3.161 1.087.239.447.789-.186.845.847.946 4.901-.778 2.713 3.385 1.015.18 2.274-.698 1.729 1.026.734-.508 2.877-1.692 1.353.339 2.03-1.016.678-.507-.17v1.861h-.847l.338.678-1.691.675.466 1.075-1.142 1.126.338.338-.677-.169-3.204 1.892.158-.539-.95.18-.209-.477-.775.649-.341-.176-.491.662-3.629-.484-.448-.293-.601.277-1.37-.988.65-.592.85-1.854.039-1.134-.677-1.523-.835.741-4.677-1.204-.969.152-.873.502-2.29-.191v.338l-4.738-1.692v-1.014h-.845l-.17-2.877-.676.17-.846-2.031.169.508-1.692-1.862h1.015l-.328-2.014.833-1.316.511-.053"/></svg>