<svg xmlns="http://www.w3.org/2000/svg" width="64" height="64" viewBox="0 0 64 64"><path fill="#42ADE2" d="M32 62c13.062 0 24.168-8.35 28.287-20H3.715C7.834 53.65 18.939 62 32 62zM32 2C18.939 2 7.834 10.349 3.715 22h56.572C56.168 10.349 45.062 2 32 2z"/><path fill="#F9F9F9" d="M60.287 42A29.94 29.94 0 0 0 62 32a29.94 29.94 0 0 0-1.713-10H3.715A29.912 29.912 0 0 0 2 32c0 3.508.608 6.872 1.715 10h56.572z"/><path fill="#42ADE2" d="M32 33.592L33.854 35l-.7-2.29L35 31.292l-2.286-.008L32 29l-.713 2.284-2.287.008 1.847 1.418-.701 2.29zM22 28.592L23.854 30l-.7-2.29L25 26.292l-2.286-.008L22 24l-.713 2.284-2.287.008 1.847 1.418-.701 2.29zM42 28.592L43.854 30l-.7-2.29L45 26.292l-2.286-.008L42 24l-.713 2.284-2.287.008 1.847 1.418-.701 2.29zM22 38.592L23.854 40l-.7-2.289L25 36.291l-2.286-.008L22 34l-.713 2.283-2.287.008 1.847 1.42L20.146 40zM42 38.592L43.854 40l-.7-2.289L45 36.291l-2.286-.008L42 34l-.713 2.283-2.287.008 1.847 1.42L40.146 40z"/></svg>