<svg xmlns="http://www.w3.org/2000/svg" width="64" height="64" viewBox="0 0 64 64"><circle fill="#428BC1" cx="32" cy="32" r="30"/><g fill="#FFF"><path d="M32.777 21.619l2.406 1.825-.912-2.967 2.396-1.84-2.966-.009-.924-2.962-.923 2.962-2.965.009 2.394 1.84-.91 2.967zM32.777 42.381l2.406-1.825-.912 2.967 2.396 1.839-2.966.01-.924 2.961-.923-2.961-2.965-.01 2.394-1.839-.91-2.967zM21.889 29.937l2.404-1.826-.91 2.967 2.394 1.84-2.964.01-.924 2.961-.925-2.961-2.964-.01 2.394-1.84-.91-2.967zM42.111 29.937l-2.405-1.826.911 2.967-2.394 1.84 2.965.01.923 2.961.924-2.961 2.965-.01-2.395-1.84.911-2.967z"/></g></svg>