<svg xmlns="http://www.w3.org/2000/svg" width="64" height="64" viewBox="0 0 64 64"><path fill="#ED4C5C" d="M32 2v30h30C62 15.432 48.568 2 32 2z"/><path fill="#2A5F9E" d="M32 62V32H2c0 16.568 13.432 30 30 30z"/><path fill="#F9F9F9" d="M32 62V32h30c0 16.568-13.432 30-30 30zM32 2v30H2C2 15.432 15.432 2 32 2z"/><path fill="#2A5F9E" d="M17 20.654L20.09 23l-1.166-3.814L22 16.75h-3.812L17 13l-1.153 3.75H12l3.077 2.436L13.91 23z"/><path fill="#ED4C5C" d="M47 46.654L50.09 49l-1.166-3.814L52 42.75h-3.812L47 39l-1.153 3.75H42l3.077 2.436L43.91 49z"/></svg>