<svg xmlns="http://www.w3.org/2000/svg" width="64" height="64" viewBox="0 0 64 64"><circle fill="#699635" cx="32" cy="32" r="30"/><g fill-rule="evenodd" clip-rule="evenodd" fill="#FFF"><path d="M31.673 26.651c-.124-.853.38-1.751 1.345-1.611.693.101 1.494.795 1.076 1.545-.62 1.113-2.215 1.143-3.238 1.66.11.581 3.044-.119 3.496-.108.467.012 1.018.241.686.802-.341.573-1.312.612-1.89.691-.593.082-1.553.102-1.946.641-.563.77.553.914.984 1.149.969.528-.568.975-1.023.886-1.501-.295-1.774-1.137-2.725-2.116-.895 1.154-3.68 3.863-4.334 1.082-1.033.353-2.027.861-3.123.998.467-.745 1.533-1.027 2.266-1.419.955-.509 1.036-1.394 1.564-2.234.157.346.006.709.092 1.063.828-.407 1.805-1.204 1.385-2.218-.047-.113-1.215-2.471-.206-2.051.893.373.643 1.26.784 1.984.253 1.293-.313 2.02-1.271 2.759-.421.324-1.459 1.467-.172 1.454.9-.01 1.725-.963 2.203-1.633.586-.82.377-1.604.033-2.488-.252-.652-1.004-2.25-.076-2.706.713 1.114 1.036 2.437 1.251 3.726.185 1.104.431 2.17 1.632 2.536-.146-.812.412-1.364 1.09-1.688-.473-.445-3.316.15-2.235-1.416.363-.529 2.41-.884 2.352-1.288z"/><path d="M16.404 30.4c.452 1.36 2.217.937 3.178.474 1.602-.771 1.584-1.982 1.584-3.563-.572.291-.465 1.43-.742 1.937-.419.766-1.71 1.516-2.589 1.385-1.28-.191-1.932-2.398-.89-3.213.25.746-.285 2.16.888 2.293.865.099 2.671-.962 2.409-1.997-1.152.351-1.908.021-1.545-1.336.326-1.22 1.539-.342 1.969.302 1.902-1.076-1.524-5.268.463-6.393.408.7.976 1.615.475 2.316-.574.802.029 2.541.092 3.443 1.009-.861.24.694 1.008.792.545.069.709-1.245 1.02-1.212.065.256.123 1.217.594 1.058.561-.186-.104-.986.527-1.196.187.455.146 1.979-.645 1.864-.637-.094-.537-.502-1.187-.096-.553.346-.764-.048-1.218-.254-.141 1.21.268 2.537-.434 3.637-.591.928-1.757 1.357-2.789 1.556-2.623.505-3.348-2.082-2.369-4.168.364.604-.027 1.68.201 2.371.319.959-.238-.719 0 0zM40.754 30.912c.544 1.309 1.536-1.399 1.807-1.806.809-1.218 1.969 1.927 2.501-.085.334-1.261-.08-2.606-.181-3.87-.073-.929-.402-1.656-.962-2.391-.577-.759-1.212-1.475-.853-2.487.975.378.984 1.194 1.5 1.954.142-.597-.329-1.354.054-1.922.453-.671.88 1.186.925 1.387.118.535-.411.699-.094 1.456a6.808 6.808 0 0 0 1.016 1.688c-.081-.553-1.016-4.663.035-4.748.305-.024.572 1.167.62 1.359.157.634-.181 1.135-.218 1.771-.07 1.195.14 2.553.864 3.531.358.485 1.901 2.294 1.112 2.886-.559-.713-1.007-1.504-1.533-2.239 0 .758.186 1.652-.244 2.337-.392-.174-.168-1.474-.164-1.806.012-1.109-.712-2.048-1.318-2.904-.169 1.464.95 4.311-.356 5.435-.942.811-2.054-.963-2.416-.323-.281.494-.981 2.3-1.752 2.13-.97-.213-1.727-2.991-.608-3.332.041.658.004 1.358.265 1.979.476 1.147-.263-.625 0 0z"/><path d="M19.414 24.134c.697.098-.027-2.271.024-2.662.056-.409.419-.628.628-.182.271.58.312 1.297.365 1.927.047.533.074 1.082-.318 1.508-.596.646-1.395.256-1.67-.47-1.37 1.238.438 3.259-.773 4.52-.189-1.051.047-2.293-.396-3.288-.239-.537-1.146-.32-1.212-1.244-.029-.428.27-1.466-.074-1.799-.18.439-.389 3.469-1.436 2.639-.77-.61-.604-2.595-.297-3.406.619.336-.123 2.48.653 2.588.388.053.474-1.624.637-1.926.251-.462 1.302-1.884 1.101-.507-.093.633-.576 2.46.564 2.429-.068-1.01-.221-1.983-.363-2.98-.077-.533.151-1.521.619-.646.343.643.088.899.041 1.52-.053.688.188 1.352.254 2.029.565-.539-.18-2.387.324-3.197 1.155.503-.201 2.933 1.329 3.147zM32.35 24.3c-.535.681-1.368.065-1.791-.405-.492.642-1.49 1.579-2.293.804-.635-.612.146-1.664-.439-2.237-.261.531-.785 2.875-1.704 1.795-.511-.601-1.162-2.737-.147-3.167-.094.794-.266 1.745.229 2.449.524.744 1.015-1.137 1.179-1.466.338-.682 1.301-1.899 1.105-.378-.078.602-.299 1.974.311 2.387.371.253.92-.199 1.135-.47.434-.548.242-1.284.105-1.9-.111-.5-.264-1.105.043-1.571.42-.639.668.819.689 1.081.021.26.35 3.431 1.133 2.38.663-.892-1.201-2.862.055-3.404.453-.195 1.422 1.834.434 1.175.198.847.624 2.08-.044 2.927zM36.076 25.464c.098 1.312 1.24 4.913-.314 5.726-.213-.408.042-1.042.1-1.462.116-.85-.109-1.801-.215-2.644-.236-1.905-.382-3.338-1.714-4.81-.35-.387-.806-.734-.866-1.281-.023-.214-.105-1.118.342-.862.252.145 1.96 1.583 1.055 1.632.105.155.481.997.705.953-.031-.512-.556-1.965.007-2.317.535-.336 1.104 1.643.948 2.015-.198.474-.193.836-.02 1.451.225.795.663 1.501 1.085 2.202.591.984 1.837 2.411 1.456 3.656-.621-.316-.992-1.732-1.262-2.313-.221-.476-.44-.956-.715-1.403-.073-.118-.659-.888-.575-.355 0-.006-.004-.192-.017-.188.085 1.142.022-.006 0 0zM49.952 27.399c.061 2.14-.563 4.836-3.212 4.836-.04-.579 1.291-1.173 1.663-1.479.955-.788.887-2.269.815-3.372-.097-1.485-.22-3.011-.473-4.479-.146-.854-.584-2.158.219-2.826.45.384 1.229 1.451.865 1.889-.433.521.112 5.068.123 5.431z"/><path d="M37.16 31.939c2.648-1.494 1.809-4.691 1.566-7.196-.066-.688-.142-1.376-.201-2.065-.045-.52-.354-1.201-.171-1.701.491-1.349.902-.052 1.05.658.11.532-.257.552-.229.982.055.818.075 1.633.161 2.449.135 1.271.338 2.559.223 3.841-.175 1.946-1.187 3.985-3.464 3.592.115-.307.81-.417 1.065-.56.449-.253-.291.164 0 0zM41.378 26.889c.147 1.034.493 2.768-.049 3.719-.364.64-.444-.351-.456-.55-.051-.815-.061-1.635-.122-2.45-.16-2.158-.881-4.353-.872-6.517.011-2.715 2.314 1.545.994 1.314.118 1.496.296 2.997.505 4.484.036.253-.209-1.489 0 0zM25.104 21.758c.188.546-2.334 1.753-2.641 1.805-.064-.465 1.142-1.17 1.438-1.411.318-.259.497-.297.355-.664-.167-.431-.081-1.095.426-1.258 1.019-.325.287 1.137.422 1.528zM14.77 30.736c.043.763.26.406.709.219.213.435-.328 1.481-.841.995-.714-.677-.094-2.269.239-2.978.239.45-.137 1.272-.107 1.764.05.899-.036-.604 0 0zM43.014 24.518c.09-.377-.166-.823.094-1.168.368-.48.823.094.623.3-.229.235-.479-.196-.458.397.011.341.189.916-.136 1.177-.233-.121-1.118-1.403-.957-1.628.276-.385.735.784.834.922zM16.891 26.227c-.198.375-2.543 1.719-2.57 1.431-.038-.382 2.896-2.045 2.57-1.431zM33.903 31.325c-.311.866.951.101 1.259.034-.437.688-1.847 1.342-1.645-.039a48.6 48.6 0 0 0-.406.08c-.068-.175 1.134-1.029.792-.075zM44.82 30.987c.256-.018.828.855.492 1.081-.226.15-1.099.313-.588-.144.579-.513.031-.932.096-.937zM30.732 25.926a2.3 2.3 0 0 0 .152-.708c.965.792-1.584 2.148-1.123.2.18.195.152.494.389.649l.15-.69c.234.125.188.44.432.549zM42.434 27.194c-.272-.413 1.478-1.526 1.779-1.728.209.318-1.261 1.461-1.779 1.728zM47.965 23.152c-.153-.605-.765-1.803-.248-2.27.469.346.686 1.781.248 2.27zM37.083 21.214c-.111-.202-.407-.411-.364-.677.058-.361.35-.333.492-.106.275.441.476 1.473-.027 1.837-.023-.352.08-.723-.101-1.054-.159-.289.179.326 0 0zM24.869 23.854c.047.573-.996 1.213-1.117.417-.053-.333.35-1.361.65-1.113-.37.934-.407 1.203.467.696z"/><path d="M37.393 22.835c.439.984.157.142.564-.069.696 1.347-1.507.959-1.004.225l.23.394.21-.55zM43.785 27.375c-.455-.397.111-.85.423-.406.234.334.244 1.112-.187 1.313 0-.316.041-.676-.236-.907-.184-.161.317.265 0 0zM23.324 29.571c.032-.242-.127-1.697.188-1.518.429.247.273 1.357-.188 1.518zM19.086 20.216c.059.26.204.722.424.201.781.866-1.991.619-1.031-.276.037.107.226.639.607.075zM29.309 22.375c-.039-.443-.558-2.113-.15-2.063.624.079.566 1.548.15 2.063zM15.318 21.461c-.313-.09.193-.634.035-.954-.223.097-.408-.175-.182-.363.739-.614.457 1.405.147 1.317zM41.199 41.828l-.437-1.244-.437 1.244H18.534s.179 1.764 2.376 1.764h19.353v1.443h5.271v-3.207h-4.335zm3.417 2.355h-3.565v-.985h3.565v.985z"/></g></svg>