<svg xmlns="http://www.w3.org/2000/svg" width="64" height="64" viewBox="0 0 64 64"><path fill="#F9F9F9" d="M2 32c0 16.568 13.432 30 30 30V2C15.432 2 2 15.432 2 32z"/><path fill="#ED4C5C" d="M62 32C62 15.432 48.568 2 32 2v60c16.568 0 30-13.432 30-30zM8.63 17.042v5.656h5.656c0 .942.943 1.885 1.885 1.885v5.656h5.655v-5.656c.943 0 1.885-.942 1.885-1.885h5.656v-5.656h-5.656c0-.942-.942-1.885-1.885-1.885V9.501h-5.655v5.656c-.943 0-1.885.942-1.885 1.885H8.63z"/><path fill="#BCBCBC" d="M9.196 17.607v4.524h5.655c0 .943.943 1.886 1.885 1.886v5.655h4.524v-5.655c.942 0 1.886-.942 1.886-1.886H28.8v-4.524h-5.654c0-.942-.943-1.885-1.886-1.885v-5.656h-4.524v5.656c-.942 0-1.885.942-1.885 1.885H9.196z"/><path fill="#94989B" d="M16.383 15.655c.332.331.242.958-.2 1.4-.441.44-1.068.53-1.399.199-.332-.332-.242-.958.2-1.4.441-.441 1.068-.53 1.399-.199z"/><path fill="#D0D0D0" d="M14.717 16.654l.133-.134.533.268-.267-.533.133-.134.533 1.066-1.065-.533zM15.517 15.854l.133-.133.8.799-.133.134-.8-.8z"/><path fill="#94989B" d="M193.857 23.215c-.331-.331-.241-.958.2-1.399.441-.442 1.068-.532 1.399-.2s.242.958-.199 1.4c-.442.441-1.068.531-1.4.199z"/><path fill="#D0D0D0" d="M195.524 22.216l-.134.133-.533-.266.267.533-.133.133-.533-1.066 1.066.533zM194.723 23.016l-.133.133-.8-.799.133-.133.8.799z"/><g><path fill="#94989B" d="M189.496 187.029c.332.331.242.958-.2 1.399-.441.441-1.068.532-1.399.2-.332-.332-.242-.958.199-1.399.442-.442 1.069-.531 1.4-.2z"/><path fill="#D0D0D0" d="M187.83 188.029l.134-.134.533.267-.268-.534.134-.133.533 1.066-1.066-.532zM188.63 187.229l.133-.134.8.8-.133.134-.8-.8z"/></g><g><path fill="#94989B" d="M22.483 196.328c-.332-.331-.241-.958.2-1.399.441-.442 1.068-.532 1.399-.2.331.331.242.958-.2 1.4-.441.441-1.067.531-1.399.199z"/><path fill="#D0D0D0" d="M24.15 195.329l-.134.133-.533-.267.266.534-.132.133-.534-1.066 1.067.533zM23.35 196.129l-.133.133-.8-.8.133-.133.8.8z"/></g><g fill="#3E4347"><path d="M17.491 22.886l.188.189-.188.188-.189-.188.189-.189zM20.506 22.886l.189.189-.189.188-.188-.188.188-.189zM18.874 23.075v.196h-.251v.196h.251v.196l.235.017.016-.212h.251v-.197h-.251v-.196h-.251z"/></g><path fill="#94989B" d="M20.691 19.081c.328-.082.566.182.676.172.091.182.3.045.3.045s-.176-.146-.351-.287c-.144-.021-.43-.204-.605-.204-.099.146-.401.307-.401.307s-.137-.206-.229-.249c.043-.086-.095-.286-.215-.434.113-.102.204-.2.265-.272a.238.238 0 0 0 .134-.072s.077.018.089-.051c.013-.067.017-.11-.038-.223-.19-.011-.467-.124-.67-.102.041-.067.013-.167.013-.167s-.079.021-.168.089c-.054-.033-.128.001-.128.001l-.007.013c.001-.013.004-.025.004-.038a.411.411 0 0 0-.812-.091c-1.635-.36-2.44 1.18-1.994 1.646.144.15.539-.071.801-.225-.018.101-.021.181-.021.181l-.019.03c-.049-.016-.116-.032-.13-.015-.021.027.37.325.37.325l.29.249a.748.748 0 0 0-.334.454h-.001c-.208.056-.57-.27-.739-.145-.169.125-.09.434.022.587.11.149-.161.203-.234.292-.069.084.179.605.266.618-.031-.064.022-.243.022-.243s.151.011.189-.055S17 21.01 17 21.01s.187-.206.185-.365c-.002-.159-.34-.328-.216-.41.135-.09.369.226.571.092.118.276.462.479.683.52.044.148-.1.382-.058.471.034.07.188-.014.471.149-.034.053-.065.102-.099.138l-.327.039-.127.146-.402.031-.631-.012.408.312h3.22l.249-.197-.415-.224-.039-.013c.046-.014.084-.057.084-.057s.105.001.151-.047c.429.304.583-.049.583-.049s-.062-.016-.058-.076c-.046.021-.077-.063-.077-.063s-.008.199-.102.197c-.043-.001-.104-.044-.159-.091.16-.117.306-.362.306-.362l.083-.159.122-.025s.008-.08-.058-.077c-.001-.048-.043-.073-.102-.063.011-.028-.032-.051-.032-.051-.115.029-.121.318-.121.318s-.201.153-.274.191c-.003-.166-.28-.391-.223-.497.058-.106.238.165.396.114.109-.033.179-.143.215-.26.067.057.158.079.158.079s.003-.044-.022-.096c.042.022.137.007.137.007s-.051-.054-.093-.058c.022-.014.067-.048.067-.048s-.115.006-.146-.013c.029-.015.019-.061.019-.061s-.054-.007-.109-.005a3.164 3.164 0 0 0-.136-.248l-.103-.006-.089-.217s-.188.122-.185.229c.002.08.112.151.167.182-.073.038-.292-.1-.292-.1s.063.097.164.161a.198.198 0 0 1-.058-.008c-.01.108.127.088.179.09.025.078.102.121.102.121s.048.119-.076.107c-.124-.01-.271-.297-.446-.165-.187.14.083.396.083.396s-.04.021-.091.068a1.642 1.642 0 0 0-.099-.115c.019-.212.085-.642.317-.839-.121-.03-.347.173-.51.342-.121-.097-.29-.22-.344-.271a3.184 3.184 0 0 1-.089-.186.789.789 0 0 1 .095-.039c.308.034.565-.094.784-.152.078.063.124.056.217.044.303.161.306.508.382.294.077.265.281.229.281.229l-.223-.383s-.25-.194-.421-.338c-.165-.1-.465-.058-.465-.058s.32-.2.329-.492zm.198 1.32l.001-.013.012.006-.013.007zm-1.82-1.586v-.008m.953-.651c.01.002.017.001.026.002a2.42 2.42 0 0 1-.223.226c-.064-.077-.116-.132-.116-.132s.212-.019.313-.096zm-.915-.082l-.112.093-.001.046-.003-.001-.142-.074s.037-.017.057-.038c.043.019.122-.063.138-.092l.008-.003c.04.014.076.013.083-.01l.005-.025.04-.021-.073.125zm-.549-.34c.019.059.049.11.089.154a.86.86 0 0 1-.06.039s-.016-.007-.042-.014a.168.168 0 0 0-.065-.019 1.599 1.599 0 0 0-.119-.029.62.62 0 0 1 .197-.131zm-.903 1.613l-.094-.058c.018.003.075.043.092.03.02-.015-.004-.061-.014-.078-.01-.016-.07-.033-.084-.108-.015-.075.038-.179.038-.179s.083-.066.157-.152c.255-.118.362-.25.362-.25l.006.002c-.036.142-.013.312.09.394.013.168.152.502.267.551-.136.032-.28.063-.416.11l-.404-.262zm.824 1.705c.104-.049.206-.312.158-.392.126.157.031.39.091.437.069.053.166-.025.166-.025.174.046.484-.052.484-.052.137.077.083-.036.166-.031a.22.22 0 0 0 .091.108c-.13.022-.271.067-.442.102-.219-.118-.354-.014-.459.126-.116-.065-.215-.131-.255-.273zm1.282-.683a.141.141 0 0 0 .024.1c.026.035.148.041.154.021.017.024.056.044.1.059-.032.036-.057.064-.072.083-.24-.145-.549-.229-.888-.077.362-.039.37.16.37.16s.246-.012.197.165c.144-.021.147.134.147.134s.123-.056.14.052c.081-.043.14.05.167.105a.622.622 0 0 0-.297-.088 1.43 1.43 0 0 0-.304-.235c-.107.063-.418.073-.472.063-.061-.011-.022-.085-.051-.128.097-.093.048-.302-.007-.428a.57.57 0 0 0 .237-.063c.103-.046.193-.111.281-.174.081.098.178.183.274.251z"/></svg>