<svg xmlns="http://www.w3.org/2000/svg" width="64" height="64" viewBox="0 0 64 64"><path fill="#428BC1" d="M32 62c13.061 0 24.167-8.35 28.286-20H3.714C7.833 53.65 18.939 62 32 62z"/><path fill="#ED4C5C" d="M32 2C18.939 2 7.833 10.35 3.714 22h56.572C56.167 10.35 45.061 2 32 2z"/><path fill="#F9F9F9" d="M60.286 42C61.393 38.871 62 35.508 62 32s-.607-6.871-1.714-10H3.714C2.607 25.129 2 28.492 2 32s.607 6.871 1.714 10h56.572z"/><path fill="#3E4347" d="M32 41c-4.963 0-9-4.037-9-9s4.037-9 9-9 9 4.037 9 9-4.037 9-9 9zm0-17.709c-4.803 0-8.709 3.906-8.709 8.709s3.906 8.71 8.709 8.71 8.709-3.907 8.709-8.71-3.906-8.709-8.709-8.709z"/><path fill="#ED4C5C" d="M32 24.408A7.594 7.594 0 0 0 24.408 32c0 4.19 3.4 7.592 7.592 7.592A7.595 7.595 0 0 0 39.592 32 7.595 7.595 0 0 0 32 24.408zm0 13.286c-3.144 0-5.694-2.551-5.694-5.694s2.551-5.694 5.694-5.694 5.694 2.551 5.694 5.694-2.551 5.694-5.694 5.694z"/><path fill="#FFCE31" d="M26 32c0-3.313 2.688-6 6-6s6 2.688 6 6h1.313c0-4.037-3.276-7.313-7.313-7.313S24.687 27.963 24.687 32H26z"/><path fill="#428BC1" d="M34.867 31.651a2.858 2.858 0 1 1-5.716 0 2.858 2.858 0 0 1 5.716 0z"/><path fill="#FFCE31" d="M33.554 33.619l-1.551-1.072-1.551 1.072.581-1.715-1.356-1.072h1.744l.582-1.715.581 1.715h1.745l-1.357 1.072.582 1.715z"/><g><path fill="#699635" d="M29.412 29.485s-.356-.102-.641-.097c.004-.006.009-.009.012-.015.224-.343.297-.983.297-.983s-.552.325-.779.666a2.71 2.71 0 0 0-.332-.501s-.261.294-.222.579c.04.286.403.712.403.712s.538.156.818.076c.279-.08.444-.437.444-.437z"/><path fill="#83BF4F" d="M28.899 30.305s-.371-.007-.645.071c.003-.006.006-.012.007-.018.128-.388.032-1.026.032-1.026s-.45.456-.58.844c-.178-.209-.452-.399-.452-.399s-.175.353-.063.618c.112.265.575.584.575.584s.561.011.81-.138.316-.536.316-.536z"/><path fill="#699635" d="M28.616 31.229s-.358.088-.602.233l.001-.018c.021-.408-.237-1-.237-1s-.316.557-.34.963c-.227-.156-.54-.269-.54-.269s-.078.385.1.613c.178.227.708.415.708.415s.545-.132.746-.341c.202-.206.164-.596.164-.596z"/><path fill="#83BF4F" d="M28.584 32.192s-.323.179-.521.381l-.003-.018c-.085-.4-.489-.905-.489-.905s-.161.619-.078 1.018c-.259-.092-.592-.121-.592-.121s.024.392.257.566c.231.174.791.221.791.221s.492-.269.633-.521c.141-.252.002-.621.002-.621z"/><path fill="#699635" d="M28.805 33.132s-.266.256-.403.502l-.008-.016c-.187-.365-.71-.749-.71-.749s.008.639.191 1.004c-.273-.022-.603.035-.603.035s.126.371.396.479c.268.108.821.01.821.01s.405-.387.476-.666-.16-.599-.16-.599z"/><path fill="#83BF4F" d="M29.263 33.982s-.189.315-.259.589c-.004-.005-.006-.009-.012-.014-.276-.305-.88-.541-.88-.541s.173.616.445.92c-.271.049-.573.189-.573.189s.219.327.508.363c.288.035.796-.202.796-.202s.291-.478.286-.767c-.007-.287-.311-.537-.311-.537z"/><path fill="#699635" d="M29.927 34.688s-.101.354-.097.635a.143.143 0 0 1-.015-.011c-.345-.223-.991-.296-.991-.296s.328.55.671.774c-.249.116-.504.329-.504.329s.296.261.584.222c.287-.041.716-.4.716-.4s.158-.536.077-.813c-.081-.277-.441-.44-.441-.44z"/><path fill="#83BF4F" d="M30.752 35.197s-.006.368.072.638l-.018-.007c-.391-.125-1.033-.03-1.033-.03s.46.446.849.576c-.209.176-.401.447-.401.447s.354.174.622.063c.268-.112.589-.57.589-.57s.012-.558-.139-.805c-.15-.246-.541-.312-.541-.312z"/><path fill="#699635" d="M34.588 29.485s.356-.102.641-.097c-.004-.006-.009-.009-.012-.015-.224-.343-.297-.983-.297-.983s.552.325.779.666c.117-.248.332-.501.332-.501s.261.294.222.579c-.04.286-.403.712-.403.712s-.538.156-.818.076c-.28-.08-.444-.437-.444-.437z"/><path fill="#83BF4F" d="M35.101 30.305s.371-.007.644.071l-.006-.018c-.129-.388-.032-1.026-.032-1.026s.45.456.58.844c.178-.209.452-.399.452-.399s.175.353.063.618c-.112.265-.575.584-.575.584s-.561.011-.81-.138-.316-.536-.316-.536z"/><path fill="#699635" d="M35.384 31.229s.358.088.602.233l-.001-.018c-.021-.408.237-1 .237-1s.316.557.34.963c.226-.156.54-.269.54-.269s.078.385-.1.613c-.178.227-.708.415-.708.415s-.545-.132-.746-.341c-.202-.206-.164-.596-.164-.596z"/><path fill="#83BF4F" d="M35.416 32.192s.323.179.521.381l.003-.018c.085-.4.489-.905.489-.905s.161.619.078 1.018c.259-.092.592-.121.592-.121s-.024.392-.257.566c-.231.174-.791.221-.791.221s-.493-.269-.633-.521c-.141-.252-.002-.621-.002-.621z"/><path fill="#699635" d="M35.195 33.132s.266.256.403.502l.008-.016c.187-.365.71-.749.71-.749s-.008.639-.191 1.004c.273-.022.603.035.603.035s-.126.371-.396.479c-.268.108-.821.01-.821.01s-.405-.387-.476-.666.16-.599.16-.599z"/><path fill="#83BF4F" d="M34.737 33.982s.189.315.259.589c.004-.005.006-.009.012-.014.276-.305.88-.541.88-.541s-.173.616-.446.92c.271.049.574.189.574.189s-.219.327-.508.363c-.288.035-.796-.202-.796-.202s-.291-.478-.286-.767c.006-.287.311-.537.311-.537z"/><path fill="#699635" d="M34.073 34.688s.101.354.097.635a.143.143 0 0 0 .015-.011c.345-.223.991-.296.991-.296s-.328.55-.671.774c.249.116.504.329.504.329s-.296.261-.584.222c-.287-.041-.716-.4-.716-.4s-.158-.536-.077-.813c.081-.277.441-.44.441-.44z"/><path fill="#83BF4F" d="M33.248 35.197s.006.368-.072.638l.018-.007c.391-.125 1.033-.03 1.033-.03s-.46.446-.849.576c.209.176.401.447.401.447s-.354.174-.622.063c-.268-.112-.589-.57-.589-.57s-.012-.558.139-.805c.15-.246.541-.312.541-.312z"/></g></svg>