<svg xmlns="http://www.w3.org/2000/svg" width="64" height="64" viewBox="0 0 64 64"><path fill="#83BF4F" d="M32 62c13.061 0 24.167-8.35 28.286-20H3.714C7.833 53.65 18.939 62 32 62z"/><path fill="#2A5F9E" d="M32 2C18.939 2 7.833 10.35 3.714 22h56.572C56.167 10.35 45.061 2 32 2z"/><path fill="#ED4C5C" d="M60.286 42C61.393 38.871 62 35.508 62 32s-.607-6.871-1.714-10H3.714C2.607 25.129 2 28.492 2 32s.607 6.871 1.714 10h56.572z"/><g><circle fill="#FFE62E" cx="24" cy="32.001" r="17.7"/><path fill="#3E4347" d="M24 14c-9.926 0-18 8.074-18 18 0 9.928 8.074 18 18 18 9.928 0 18-8.072 18-18 0-9.926-8.072-18-18-18zM6.602 32c0-9.474 7.61-17.203 17.04-17.396v3.857c-1.085.481-1.948.912-2.12 1.867-.022.126-.052 1.445-.083 1.77 0 0 .185.023.626-.334.192-.157.781-.258 1.577-.746v2.013a2.396 2.396 0 0 0 0 4.739v.503c-.913-.049-1.716-.332-2.401-1.733-.383-.779-1.382-1.979-1.382-1.979s.472 1.347.542 2.699c.104 1.985 1.856 2.197 3.241 2.217v.363h-2.643v.721h2.643v.362c-1.154.108-2.04.738-2.04 1.498 0 .761.886 1.391 2.04 1.501v.359h-2.643v.721h2.643v.368c-2.038.084-3.024.906-3.136 2.075-.234 2.541-.705 4.518-.705 4.518s.754-.932 1.638-3.118c.41-1.004 1.304-1.64 2.203-1.775v.262c-.924.246-1.622 1.42-1.622 2.831 0 1.413.698 2.586 1.622 2.831v.824c-1.19.031-2.354.294-2.963.771-.823.65-2.831 2.642-3.558 3.393C10.938 45.308 6.602 39.15 6.602 32zm23.967 16.113c-.714-.762-2.528-2.67-3.566-3.526-.554-.453-1.563-.704-2.645-.761v-.834c.924-.245 1.624-1.418 1.624-2.831 0-1.411-.7-2.585-1.624-2.831v-.262c.899.136 1.798.771 2.204 1.775.883 2.187 1.64 3.118 1.64 3.118s-.471-1.977-.708-4.518c-.107-1.169-1.096-1.991-3.136-2.075V35h2.643v-.72h-2.643v-.359c1.157-.11 2.044-.74 2.044-1.501 0-.76-.887-1.39-2.044-1.498v-.362h2.643v-.721h-2.643v-.363c1.387-.02 3.14-.231 3.242-2.217.07-1.353.542-2.699.542-2.699s-.999 1.2-1.382 1.979c-.686 1.401-1.489 1.685-2.402 1.733v-.502a2.397 2.397 0 0 0 2.044-2.371 2.4 2.4 0 0 0-2.044-2.368V20.5c.703-.581 1.5-1.479 2.292-2.909.439-.785.23-1.134.231-1.134h-.001s.023.052-.302.333c-.712.616-1.489 1.019-2.221 1.353v-3.539c9.433.193 17.044 7.922 17.044 17.396 0 7.272-4.484 13.515-10.832 16.113z"/></g></svg>