<svg xmlns="http://www.w3.org/2000/svg" width="64" height="64" viewBox="0 0 64 64"><path fill="#ED4C5C" d="M45.58 32.997l16.341 1.072c.047-.684.079-1.373.079-2.069 0-5.393-1.43-10.448-3.921-14.821L43.811 25.25l-2.582-3.236L52.271 9.89a29.894 29.894 0 0 0-15.609-7.527L34.07 18.566h-4.14L27.338 2.362a29.9 29.9 0 0 0-15.613 7.53l11.046 12.123-2.582 3.236-14.272-8.066A29.857 29.857 0 0 0 2 32c0 .698.032 1.389.079 2.075l16.342-1.076.922 4.037-15.19 6.121A30.086 30.086 0 0 0 14.96 56.685l9.339-13.438 3.73 1.797-4.682 15.683A29.97 29.97 0 0 0 32 62c3.012 0 5.917-.448 8.658-1.274l-4.684-15.683 3.73-1.797 9.34 13.437a30.086 30.086 0 0 0 10.805-13.53l-15.19-6.118.921-4.038z"/><path fill="#FFCE31" d="M34.07 18.566l2.592-16.204a30.226 30.226 0 0 0-9.324 0l2.592 16.204h4.14zM43.811 25.25l14.269-8.071a30.09 30.09 0 0 0-5.808-7.289L41.229 22.014l2.582 3.236zM45.58 32.997l-.921 4.037 15.19 6.118a29.821 29.821 0 0 0 2.071-9.083l-16.34-1.072zM35.975 45.043l4.684 15.683a29.821 29.821 0 0 0 8.387-4.043l-9.34-13.437-3.731 1.797zM24.298 43.248l-9.339 13.438a29.852 29.852 0 0 0 8.388 4.042l4.682-15.683-3.731-1.797zM18.421 32.999L2.079 34.075a29.87 29.87 0 0 0 2.073 9.082l15.19-6.121-.921-4.037zM22.771 22.016L11.725 9.893a30.144 30.144 0 0 0-5.808 7.292l14.271 8.067 2.583-3.236z"/><circle fill="#FFCE31" cx="32" cy="32" r="9"/></svg>