<svg xmlns="http://www.w3.org/2000/svg" width="64" height="64" viewBox="0 0 64 64"><path fill="#83BF4F" d="M2 32c0 6.131 1.843 11.83 5 16.58V15.42A29.843 29.843 0 0 0 2 32zM32 2a29.85 29.85 0 0 0-15 4.023v51.953A29.841 29.841 0 0 0 32 62c16.568 0 30-13.432 30-30S48.568 2 32 2z"/><path fill="#ED4C5C" d="M7 15.42v33.16a30.141 30.141 0 0 0 10 9.396V6.023A30.145 30.145 0 0 0 7 15.42z"/><g fill="#FFF"><path d="M37.178 8.846a10.945 10.945 0 0 1 3.848 8.827c-.264 6.049-5.383 10.74-11.433 10.476a10.924 10.924 0 0 1-3.841-.874 10.917 10.917 0 0 0 7.105 2.615c6.055 0 10.965-4.91 10.965-10.965 0-4.52-2.737-8.402-6.644-10.079zM26.721 16.905l.473-1.46h1.536l-1.242-.902.474-1.461-1.242.903-1.242-.903.474 1.461-1.242.902h1.536zM26.246 9.806l.475 1.46.473-1.46h1.536l-1.242-.904.474-1.46-1.242.903-1.242-.903.474 1.46-1.242.904zM31.817 12.695l.475 1.461.474-1.461h1.537l-1.243-.902.473-1.461-1.242.903-1.242-.903.474 1.461-1.242.902zM21.916 17.292l.475-1.46-1.243.902-1.242-.902.475 1.46-1.242.903h1.535l.474 1.46.475-1.46h1.535zM26.721 22.546l.473-1.461h1.536l-1.242-.902.474-1.46-1.242.902-1.242-.902.474 1.46-1.242.902h1.536z"/></g><g fill="#FFE62E"><path d="M7 15.42v5.959l2.979-2.98zM17 21.379V15.42l-2.98 2.979z"/></g><g fill="#FFE62E"><path d="M7 29.89v5.959l2.979-2.98zM17 35.849V29.89l-2.98 2.979z"/></g><g fill="#FFE62E"><path d="M7 42.621v5.959l2.979-2.979zM17 48.58v-5.959l-2.98 2.98z"/></g><path fill="#83BF4F" d="M9.75 42.551L7.5 39.205l2.25-3.347h4.5l2.25 3.347-2.25 3.346z"/><path fill="#FFE62E" d="M9.75 28.847L7.5 25.501l2.25-3.347h4.5l2.25 3.347-2.25 3.346z"/><path fill="#ED4C5C" d="M10.367 27.929l-1.633-2.428 1.633-2.429h3.265l1.633 2.429-1.633 2.428z"/><path fill="#FFF" d="M11.346 26.473l-.654-.972.654-.973h1.307l.654.973-.654.972z"/><path fill="#83BF4F" d="M9.25 14.612l-.761-1.131 5.531-5.159L16 11.267l-2.25 3.345z"/><path fill="#ED4C5C" d="M9.867 13.694l-.74-1.099 4.005-3.757 1.633 2.429-1.633 2.427z"/><path fill="#FFE62E" d="M9.034 48.994l-.775 1.12 5.463 5.231 2.018-2.918-2.206-3.375z"/><path fill="#ED4C5C" d="M9.639 49.92l-.753 1.09 3.955 3.808 1.664-2.407-1.601-2.449zM10.367 41.633l-1.633-2.428 1.633-2.429h3.265l1.633 2.429-1.633 2.428z"/><path fill="#FFE62E" d="M11.292 40.177l-.653-.972.653-.973H12.6l.654.973-.654.972zM10.883 11.913l-.398-.592 1.564-1.467.795 1.087-.654.972z"/><path fill="#FFF" d="M10.439 51.709l-.397.592 1.564 1.468.795-1.088-.654-.972z"/></svg>