<svg xmlns="http://www.w3.org/2000/svg" width="64" height="64" viewBox="0 0 64 64"><path fill="#F9F9F9" d="M2 32a29.859 29.859 0 0 0 4.627 16h50.744C60.299 43.367 62 37.885 62 32s-1.701-11.369-4.629-16H6.627A29.854 29.854 0 0 0 2 32z"/><path fill="#428BC1" d="M57.371 16C52.057 7.59 42.684 2 32 2S11.943 7.59 6.627 16h50.744z"/><path fill="#83BF4F" d="M6.627 48C11.943 56.41 21.316 62 32 62s20.057-5.59 25.371-14H6.627z"/><path fill="#3E4347" d="M35.135 30.756c.871-1.127 1.41-2.727 1.41-4.533C36.545 22.732 34.549 20 32 20s-4.547 2.732-4.547 6.223c0 1.807.539 3.406 1.41 4.533L22 38.738S22 44 32 44s10-5.262 10-5.262l-6.865-7.982zm-.408-4.533c0 1.201-.311 2.311-.807 3.121l-1.467-1.705V26l1.365-.666-1.365-.668v-2.811c1.272.366 2.274 2.209 2.274 4.368zm-5.456 0c0-2.158 1.004-4.002 2.273-4.367v2.811l-1.363.668 1.364.665v1.639l-1.465 1.705c-.496-.811-.809-1.92-.809-3.121z"/></svg>