<svg xmlns="http://www.w3.org/2000/svg" width="64" height="64" viewBox="0 0 64 64"><circle fill="#F5F5F5" cx="32" cy="32" r="30"/><g fill="#FFCE31"><path d="M28.708 24.583c-.232.462-.574.705-.574.705s7.89.716 7.607-.005c-.283-.719-.939-1.224-.939-1.224s.639-.072.797-.278c-1.016-.49-1.594-1.517-1.594-1.517.287.087.733-.009.733-.009-1.116-1.565-.597-1.953-1.007-2.991-.41-1.036-1.113-1.243-1.285-1.339-.174-.096-1.336-.191-1.773.028-.438.221-.465.543-.516.543-.05 0-.404-.058-.542.312a.791.791 0 0 0-.04.146 5.552 5.552 0 0 0-.589.042c-1.071.129-.921 1.468-.921 1.468.084-.061.285-.475.661-.414.374.059.513-.035.749-.029.748.018.819.676.818.936-.039.019-.084.062-.15.155-.26.376-.301.635-.301.635-.246 1.167-.93 1.252-.93 1.252.35.191.52.135.554.118-.355.18-.854.818-.854.818-.342.519-.602.432-.602.432.35.346.698.216.698.216zM57.058 16.998c-.419-.771-1.705.134-3.228.555 0 0-3.558 1.121-5.689 1.557-.22.021-.436.08-.436.08-.008.003-.016.006-.022.006h-.001c-5.797 1.477-7.378 2.416-7.378 2.416-1.095.662-.828 2.261-.11 2.794a.518.518 0 0 1 .061.799c-.255.243-.579.021-.579.021-.965-.478-1.505-.071-1.505-.071s-.889 4.313.241 4.92l-.2 1.401s.849.691 1.56 0c0 0 .287.346.86.244.575-.101.671-.402.726-.574 0 0 .496.289.916.06.419-.229.419-.575.419-.575s.729.145 1.103-.35c.374-.494.146-.984-.055-1.042 0 0 .789.206 1.003-.47.183-.576-.228-.874-.228-.874s1.661-.009 2.343-.528c0 0 .564-.355.228-.729 0 0 1.495-.24 1.869-.835 0 0 .164-.164.109-.451 0 0-.01-.165-.174-.174 0 0 1.705-.263 2.197-.825 0 0 .237-.26.118-.604 0 0-.024-.093-.065-.152 0 0 1.552-.328 2.317-1.02 0 0 .442-.394.214-.922 0 0 2.594-.709 1.992-1.853 0 0 1.213-.394.829-1.488-.001-.001 1.002-.51.565-1.316zM19.257 28.768c.215.676 1.004.47 1.004.47-.201.058-.429.548-.055 1.042.373.494 1.103.35 1.103.35s0 .347.419.575c.42.229.916-.06.916-.06.055.172.15.474.726.574.573.102.861-.244.861-.244.711.691 1.559 0 1.559 0l-.2-1.401c1.13-.607.241-4.92.241-4.92s-.54-.406-1.504.071c0 0-.325.223-.58-.021a.518.518 0 0 1 .061-.799c.718-.533.984-2.132-.11-2.794 0 0-1.581-.939-7.378-2.416a.06.06 0 0 1-.023-.006s-.216-.06-.436-.08c-2.132-.436-5.689-1.557-5.689-1.557-1.522-.421-2.809-1.326-3.228-.555-.438.806.565 1.314.565 1.314-.382 1.095.83 1.488.83 1.488-.602 1.144 1.992 1.853 1.992 1.853-.229.528.214.922.214.922.766.691 2.317 1.02 2.317 1.02a.601.601 0 0 0-.066.152.633.633 0 0 0 .118.604c.492.563 2.197.825 2.197.825-.165.009-.173.174-.173.174a.518.518 0 0 0 .11.451c.374.595 1.869.835 1.869.835-.338.373.228.729.228.729.682.52 2.343.528 2.343.528s-.413.299-.231.876zM26.146 37.407s.154-.586 1.111-1.104c0 0 1.086-.409 1.059-.943-.028-.535-2.414-3.402-2.414-3.402s-.176.938-1.56 2.117c0 0-1.067.942-1.041 2.026.028 1.104-.19 1.229-.61 1.604 0 0 .105.007.26-.007-.256.352-.773.942-1.363.956 0 0-1.441-.176-1.85.202-.285.263-.574.479-.693 1.152-.118.672.229.815.31.844 0 0 .064.48.538.355 0 0 .027.499.867.26.838-.24 1.184-.164 1.348-.998.164-.836.316-.822.466-.922.2-.135.577-.263.856-.423.223-.128 1.003-.526 1.406-.643.012.091.031.186.062.278 0 0 .063-.241.401-.347-.001.003.609-.122.847-1.005zM44.265 38.857c-.408-.378-1.851-.202-1.851-.202-.589-.014-1.106-.604-1.362-.956.154.014.26.007.26.007-.42-.375-.639-.5-.611-1.604.027-1.084-1.041-2.026-1.041-2.026-1.383-1.18-1.559-2.117-1.559-2.117s-2.387 2.867-2.414 3.402c-.027.534 1.058.943 1.058.943.957.518 1.112 1.104 1.112 1.104.237.882.848 1.007.848 1.007.337.105.4.347.4.347.031-.093.051-.188.063-.278.402.116 1.184.515 1.406.643.279.16.656.288.856.423.149.1.301.086.465.922.164.834.511.758 1.349.998.84.239.866-.26.866-.26.475.125.538-.355.538-.355.082-.028.428-.172.311-.844-.12-.674-.41-.891-.694-1.154zM36.093 36.842c.014-.211-.11-.526-.521-.992-1-1.133-2.594 1.259-3.048 2-.142-.178-.323-.284-.522-.284-.2 0-.383.106-.523.284-.453-.741-2.047-3.133-3.047-2-.412.466-.535.781-.522.992-3.934 3.617-2.021 3.935-2.021 3.935 0 .932.829.712.829.712-.091.988.675.854.675.854-.009 1.114.811.922.811.922.146 1.19 1.049.71 1.049.71-.045 1.019.565 1.075.565 1.075.713.074 1.007-.661 1.087-.921.005.174.013.341.025.501.062.797.489 1.447 1.072 1.447.584 0 1.01-.65 1.072-1.447.014-.16.02-.327.025-.501.08.26.373.995 1.087.921 0 0 .61-.057.565-1.075 0 0 .902.48 1.048-.71 0 0 .82.192.812-.922 0 0 .766.135.674-.854 0 0 .83.22.83-.712-.001-.001 1.913-.317-2.022-3.935z"/></g><path fill="#0081C6" d="M47.288 33.862l.8.429-3.954 4.631.429.481 3.97-4.69.495.8 1.881-4.043z"/><path fill="#428BC1" d="M47.571 32.225l.655.66.968-4.383-3.017 3.189.871.228-2.797 5.331.867-3.742.794.46-.141-4.499-2.131 3.902.898-.016-1.288 5.47.546.392.058-.255.165.094zM43.384 42.301l-.373-.638.128-.522c-.002-.002-.004-.002-.005-.006l.338-.428a.42.42 0 0 0-.09-.282v-.002a.605.605 0 0 0-.285-.238c-.143-.06-.269-.059-.269-.059l-.507.981-.986-.003-.416.79-.265-.066-2.848 3.334 1.48.111.261 1.539 1.003-1.176-.253 1.07 1.357-.634.916 1.229 1.029-4.349-.368-.367.153-.284z"/><g fill="#83BF4F"><path d="M20.917 39.061s-.047-.324.568-.563.663-1.122.539-1.713c0 0-.32.562-.711.749 0 0-.635.33-.664.964 0 0-.006.23-.053.41-.027.099-.309-.79.225-1.454.551-.684.705-1.237.268-2.318 0 0-.041.655-.473 1.028-.431.376-.485.404-.478 1.298 0 0 .007.31-.157.41 0 0-.336-.489-.424-.814-.09-.323-.131-.46.252-.835 0 0 1.227-.792.342-2.527 0 0-.026.598-.451.951-.424.353-.389.59-.41 1.202-.02.612-.061.568-.108.655 0 0-.78-1.434-.179-2.195.602-.764.938-.923.273-2.341 0 0 .029.728-.501 1.087-.53.36-.408 1.203-.408 1.203s.034.316-.075.547c0 0-.75-1.465-.034-2.254.608-.669.65-1.138.321-2.088 0 0-.041.439-.375.678-.334.236-.602.474-.541 1.389 0 0 .028.641-.054.821 0 0-.314-.583-.403-.965s-.124-.604.109-.986 1.156-1.477.055-3.054c0 0-.034.511-.314.972s-.15 1.01-.089 1.426c.062.418-.144.821-.144.821s-.479-.878-.376-1.885c.103-1.01-.308-1.837-1.237-2.434 0 0-.677 1.568.246 2.367 0 0 .786.778.985 1.721 0 0-.595-.057-1.136-1.107-.54-1.052-1.661-.887-1.736-.894 0 0 .185 1.626 1.908 2.089 0 0 1.101.187 1.306.993 0 0 .184.554.26.849 0 0-.349-.137-.67-.611-.322-.476-.281-.533-1.368-.643 0 0-.438-.049-.669-.359 0 0 .457 1.723 1.633 1.708 0 0 1.074-.116 1.675 1.296 0 0-.116-.073-.274-.182-.158-.107-.554-.309-1.339-.215-.786.094-1.006-.036-1.204-.102 0 0 .793 1.455 1.914 1.022 1.122-.432 1.663 1.145 1.676 1.174 0 0-.151-.115-.349-.309-.198-.195-.61-.435-1.388-.188 0 0-.561.216-1.128.043 0 0 .546 1.058 1.825.879 1.278-.18 1.6.944 1.6.944s-.171-.102-.287-.194c-.116-.095-.547-.34-1.469-.065-.923.273-1.258-.044-1.258-.044s.513.936 1.497 1.044c0 0 .547-.007.779-.093.233-.087.848-.224 1.271.389 0 0-.115.021-.293-.059 0 0-.657-.237-1.156.18 0 0-.444.454-1.073.368 0 0 .813.792 2.105.122 0 0 .438-.317.759-.071.321.244 1.065-.237 1.065-.237zM20.775 41.048s-.021-.583.718-.626l2.175 3.023s-.082.194-1.067.173c0 0-.104-.001-.158.115-.085.176-1.668-2.685-1.668-2.685z"/></g><g><path fill="#FFF" d="M31.93 38.378s6.583-2.918 6.601-9.666H25.329c.018 6.748 6.601 9.666 6.601 9.666z"/><path fill="#ED4C5C" d="M26.346 28.712v4.313s.505.999 1.015 1.627v-5.939h-1.015v-.001zM28.376 28.712v7.108s.635.622 1.016.922v-8.03h-1.016zM30.407 28.712v8.786s.724.469 1.016.621v-9.407h-1.016zM37.515 28.712v4.313s-.504.999-1.016 1.627v-5.939h1.016zM35.483 28.712v7.108s-.635.622-1.016.922v-8.03h1.016zM33.452 28.712v8.786s-.724.469-1.014.621v-9.407h1.014z"/><path fill="#428BC1" d="M38.53 23.809s-3.23 1.688-6.601-.14c-3.37 1.828-6.601.14-6.601.14v4.903H38.53v-4.903z"/></g><g fill="#428BC1"><path d="M8.432 36.389c.319-.131.55-.257.549-.599 0-.081-.045-.261-.137-.54l-2.147-6.564a5.42 5.42 0 0 0-.269-.707c-.096-.186-.286-.26-.541-.367H8.618c-.297.141-.567.251-.564.566.001.119.034.289.104.508l1.646 5.151 1.644-5.151c.069-.219.105-.389.104-.508-.003-.323-.285-.439-.562-.566h2.646c-.241.098-.438.174-.54.367a5.647 5.647 0 0 0-.268.707L10.68 35.25a3.56 3.56 0 0 0-.137.547s-.099.415.55.592H8.432zM54.207 35.713V28.28a.569.569 0 0 0-.063-.296 1.193 1.193 0 0 0-.49-.373H56.115c-.264.088-.448.3-.49.37s-.064.17-.064.299v7.433c0 .134.022.234.066.306.044.07.225.243.488.37H53.653c.263-.12.447-.305.49-.373a.577.577 0 0 0 .064-.303z"/></g></svg>