<svg xmlns="http://www.w3.org/2000/svg" width="64" height="64" viewBox="0 0 64 64"><path fill="#F9F9F9" d="M62 32C62 15.432 48.568 2 32 2v60c16.568 0 30-13.432 30-30z"/><path fill="#FFE62E" d="M2 32c0 16.568 13.432 30 30 30V2C15.432 2 2 15.432 2 32z"/><g><path fill="#FFF" d="M49 21.328c0 2.943 0 3.807-3 3.807s-3-.863-3-3.807C43 18.387 44.343 16 46 16c1.656 0 3 2.387 3 5.328z"/><path fill="#DBB471" d="M47.5 17.791L46 16.583l-1.5 1.208-1.5-1.208.539 2.417h4.922L49 16.583zM47.5 20.609L46 19.218l-1.5 1.391-1.5-1.391V22h6v-2.782zM47.5 23.5L46 22l-1.5 1.5L43 22v3h6v-3z"/><ellipse fill="#DBB471" cx="46" cy="15.125" rx=".5" ry="1.458"/><ellipse fill="#FFF" cx="46" cy="25" rx="3" ry=".681"/><g><path fill="#FFF" d="M41.925 32.6c-1.404 0-2.462-2.064-2.616-2.774-.209-.963.281-2.012.801-3.123.255-.546.729-1.562.659-1.86-.121-.353-1.224-1.464-2.31-2.32l1.238-1.57c.815.643 2.741 2.264 3.017 3.43.231.975-.266 2.04-.793 3.167-.271.58-.724 1.55-.657 1.854.056.258.419.848.687 1.113.511-.544 1.294-2.919 1.674-5.259l1.975.32c-.402 2.478-1.386 6.682-3.449 7.006-.078.01-.152.016-.226.016zM50.075 32.6c-.074 0-.149-.006-.225-.018-2.063-.324-3.047-4.528-3.449-7.006l1.975-.32c.375 2.305 1.141 4.642 1.689 5.243.266-.272.616-.845.671-1.098.066-.304-.387-1.273-.657-1.854-.527-1.127-1.024-2.192-.793-3.167.275-1.166 2.201-2.787 3.017-3.43l1.238 1.57c-1.105.873-2.187 1.963-2.313 2.333-.066.286.407 1.302.662 1.848.52 1.111 1.01 2.16.801 3.123-.154.711-1.212 2.776-2.616 2.776z"/></g><g><path fill="#DBB471" d="M41.525 36.572c-1.407-.9-3.242-.707-4.451.607-1.432 1.559-1.432 4.09 0 5.648 1.434 1.561 3.757 1.561 5.192 0 1.208-1.313 1.385-3.311.557-4.844l9.582-10.162 1.297 1.412L55 27.824 52.405 25l-10.88 11.572z"/><path fill="#FFF" d="M40.256 39.414a.828.828 0 1 0-1.173 0 .828.828 0 1 0 0 1.172.83.83 0 1 0 1.173 0 .83.83 0 1 0 0-1.172z"/><path fill="#D0D0D0" d="M50.475 36.572c1.407-.9 3.242-.707 4.451.607 1.432 1.559 1.432 4.09 0 5.648-1.434 1.561-3.757 1.561-5.192 0-1.208-1.313-1.385-3.311-.557-4.844l-9.582-10.162-1.297 1.412L37 27.824 39.595 25l10.88 11.572z"/><path fill="#FFF" d="M51.744 39.418a.83.83 0 1 1 1.173 0 .828.828 0 1 1 0 1.172.828.828 0 1 1-1.172 1.174.828.828 0 0 1-.001-2.346z"/><path fill="#ED4C5C" d="M50.413 39.758c-2.919.43-5.907.428-8.826 0-.59-.086-.841.564-.249.652 3.088.451 6.236.453 9.324 0 .592-.088.341-.738-.249-.652z"/><path fill="#ED4C5C" d="M50.301 39.229a22.976 22.976 0 0 1-4.704-4.705c-.269-.36-.75-.147-.481.215a24.295 24.295 0 0 0 4.971 4.971c.362.268.574-.213.214-.481z"/><path fill="#ED4C5C" d="M46.403 34.523a22.926 22.926 0 0 1-4.705 4.704c-.359.269-.146.75.215.481a24.295 24.295 0 0 0 4.971-4.971c.269-.362-.211-.574-.481-.214z"/><path fill="#ED4C5C" d="M45.5 31h1v13h-1z"/><g fill="#ED4C5C"><path d="M46.54 35.08l-.706.707-2.374-2.373.708-.707z"/><path d="M47.833 32.706l.707.707-2.373 2.374-.707-.708z"/></g><path fill="#FF717F" d="M45.54 42.713a1 1 0 0 0-1 1v3h2v-3a1 1 0 0 0-1-1z"/><path fill="#FF717F" d="M46.54 41.776a1 1 0 0 0-1 1v3h2v-3a1 1 0 0 0-1-1z"/><g fill="#94989B"><circle cx="42.554" cy="37.115" r="1.21"/><circle cx="36.785" cy="42.883" r="1.211"/><g><circle cx="36.786" cy="37.115" r="1.21"/><circle cx="42.554" cy="42.883" r="1.211"/></g></g><g fill="#DBB471"><circle cx="55.213" cy="37.121" r="1.21"/><circle cx="49.444" cy="42.889" r="1.211"/><g><circle cx="49.445" cy="37.121" r="1.21"/><circle cx="55.213" cy="42.889" r="1.211"/></g></g></g><g fill="#DBB471"><path d="M38.141 20.93h1.969v2.182h-1.969zM51.891 20.93h1.969v2.182h-1.969z"/></g><g fill="#DBB471"><path d="M44.16 26.403l.596.163-.603 2.2-.596-.163z"/><path d="M43.56 26.79l1.519.418-.16.584-1.52-.418z"/><g><path d="M48.44 28.603l-.596.164-.602-2.2.596-.164z"/><path d="M48.601 27.373l-1.52.418-.16-.583 1.52-.418z"/></g></g><g fill="#FFF"><path d="M52.503 28.1l-1.721 1.457-1.129-3.036 1.77-.916zM39.497 28.1l1.721 1.457 1.129-3.036-1.77-.916z"/></g><g fill="#DBB471"><path d="M41.501 26.454l-.565-.163-.135.517-.438-.127-.152.583.438.127-.286 1.099.565.163.286-1.098.438.127.153-.583-.439-.127zM51.789 27.264l-.152-.583-.438.127-.135-.517-.565.163.135.518-.439.127.153.583.438-.127.286 1.098.565-.163-.286-1.099z"/></g></g></svg>