<svg xmlns="http://www.w3.org/2000/svg" width="64" height="64" viewBox="0 0 64 64"><circle fill="#83BF4F" cx="32" cy="32.003" r="30"/><path fill="#FFF" d="M37.45 30.385a7.025 7.025 0 0 0-1.978.919c.099-.59.153-1.214.153-1.861 0-3.562-3.582-7.439-3.582-7.439s-3.583 3.878-3.583 7.439c0 .674.058 1.322.164 1.934a6.936 6.936 0 0 0-2.075-.991C22.683 29.292 18 31.71 18 31.71s3.202 4.999 7.068 6.088c3.273.924 5.764-1.57 6.716-1.932a.818.818 0 0 1 .439.008c.958.381 3.446 2.844 6.708 1.924C42.798 36.709 46 31.71 46 31.71s-4.683-2.418-8.55-1.325zM24.744 48.004c2.151 1.271 4.623 2 7.256 2s5.104-.729 7.255-2H24.744zM20.301 44.004a15.797 15.797 0 0 0 1.801 2h19.796a15.797 15.797 0 0 0 1.801-2H20.301z"/><path fill="#FFE62E" d="M32 18.125l2.474 1.878-.936-3.052L36 15.058l-3.048-.01L32 12.003l-.953 3.045-3.047.01 2.461 1.893-.932 3.052zM24.652 19.343l1.849.233-1.402-1.307.712-1.721-1.587.91-1.409-1.296.419 1.867-1.581.92 1.846.244.432 1.866zM19.34 24.656l1.717-.723-1.867-.43-.245-1.845-.919 1.58-1.868-.419 1.297 1.409-.909 1.586 1.72-.711 1.307 1.4zM44.66 24.655l-.232 1.848 1.304-1.4 1.723.71-.909-1.587 1.296-1.408-1.869.42-.918-1.582-.245 1.845-1.867.432zM39.348 19.342l.722 1.717.43-1.864 1.848-.246-1.582-.92.418-1.868-1.408 1.297-1.587-.91.711 1.721-1.4 1.307z"/><path fill="#FFF" d="M46.317 40.004H35.566c-2.399 0-2.559-1.676-2.566-2h-2c0 .203-.072 2-2.566 2H17.683c.306.689.637 1.363 1.016 2h9.735c1.765 0 2.88-.641 3.566-1.436.687.795 1.802 1.436 3.566 1.436h9.735c.38-.637.711-1.311 1.016-2z"/></svg>