<svg xmlns="http://www.w3.org/2000/svg" width="64" height="64" viewBox="0 0 64 64"><path fill="#ED4C5C" d="M60 42c-5.523 0-10-4.477-10-10H10.787v21.213l-.001-.002C16.214 58.641 23.715 62 32 62c13.066 0 24.176-8.357 28.291-20.016-.098.004-.193.016-.291.016z"/><path fill="#699635" d="M60 22c.098 0 .193.012.291.014C56.176 10.355 45.066 2 32 2c-8.285 0-15.786 3.357-21.215 8.787h.001V32H50c0-5.523 4.477-10 10-10z"/><path fill="#F9F9F9" d="M60.285 22H10.787v20h49.499C61.392 38.871 62 35.508 62 32s-.608-6.871-1.715-10z"/><path fill="#3E4347" d="M10.787 10.787C5.357 16.215 2 23.715 2 32c0 8.283 3.358 15.783 8.787 21.213L22 42V22L10.787 10.787z"/></svg>