<svg xmlns="http://www.w3.org/2000/svg" width="64" height="64" viewBox="0 0 64 64"><path fill="#C94747" d="M32 2a29.849 29.849 0 0 0-14.516 3.746v52.51A29.87 29.87 0 0 0 32 62c16.568 0 30-13.432 30-30S48.568 2 32 2z"/><path opacity=".33" fill="#9450E0" d="M32 2a29.849 29.849 0 0 0-14.516 3.746v52.51A29.87 29.87 0 0 0 32 62c16.568 0 30-13.432 30-30S48.568 2 32 2z"/><path fill="#F9F9F9" d="M2 32c0 11.303 6.252 21.141 15.484 26.256L28 56l-10-3 10-3-10-3 10-3-10-3 10-3-10-3 10-3-10-3 10-3-10-3 10-3-10-3 10-3-10-3 10-3-10.516-2.254C8.252 10.861 2 20.699 2 32z"/></svg>