<svg xmlns="http://www.w3.org/2000/svg" width="64" height="64" viewBox="0 0 64 64"><path fill="#FFF" d="M25.789 9.307h-.021l-6.878.006-3.51.003-.002-2.192v-.097a30.13 30.13 0 0 0-6.915 6.384l2.763-.002.003 2.129.007 6.041H3.862A29.944 29.944 0 0 0 2 32c0 3.512.609 6.881 1.719 10.012h22.044V21.578h-10.37l-.006-5.974-.003-2.2 3.525-.003 6.859-.006h.024l-.003-4.088z"/><path fill="#0091C8" d="M32 2c-2.132 0-4.21.226-6.216.648v58.704A30.23 30.23 0 0 0 32 62c16.568 0 30-13.432 30-30C62 15.431 48.568 2 32 2z"/><path fill="#FFCE31" d="M61.467 32.35c.033-.158.259-.676.512-1.205a35.625 35.625 0 0 0-.035-.928c-.205.363-.39.717-.438.873-.229.648-.357.203-.434-1.551a22.234 22.234 0 0 1 .199-4.107 29.835 29.835 0 0 0-3.774-9.24c-.411.135-.726.23-.736.208-.017-.008.164-.272.445-.663-.085-.13-.165-.263-.251-.391-.598.752-1.203 1.469-1.314 1.512-.152.063-.903.331-1.653.61l-1.386.496 1.055-.991c.585-.534 1.692-1.564 2.455-2.29l.23-.211c-.083-.114-.162-.232-.246-.346l-1.46 1.371c-1.628 1.526-3.154 2.875-3.384 3.014-.229.14-.458.343-.521.458-.141.254.024.712.292.814.166.063.063.28-.51 1.068a15.098 15.098 0 0 0-1.958 3.726l-.356.954-.204-.7c-.331-1.119-.584-2.747-.584-3.816 0-.979 0-.979.66-1.92.802-1.145 2.685-3.103 3.729-3.892.42-.318 1.132-.75 1.59-.966 1.017-.471 1.271-.688 1.271-1.043 0-.42-.305-.624-.789-.522-.278.051-1.412-.127-3.345-.521-1.604-.318-2.939-.598-2.952-.598 0-.014.128-.56.306-1.221.204-.775.42-1.322.623-1.539.382-.407.395-.877.014-1.233-.637-.598-1.591-.076-1.45.789l.063.433-.841.089c-.458.051-1.552.28-2.417.521-1.755.484-3.129.56-4.032.242-.28-.102-.522-.191-.535-.191-.025 0-.037.14-.037.318 0 .547.342 1.03.902 1.31l.534.267-.355.09c-.191.05-.764.05-1.285.012s-.941-.038-.941 0c0 .267.623.979 1.03 1.183.891.458 2.748.293 4.809-.432 1.03-.356 2.366-.458 2.276-.178-.05.152-1.844 1.5-4.922 3.701-1.553 1.106-1.794 1.411-1.553 1.946.128.292.089.407-.292 1.043-.827 1.399-1.604 3.802-1.604 5.023 0 .61-.038.661-.878 1.551-1.718 1.807-5.075 6.016-5.801 7.273l-.229.396-.241-.307c-.484-.609-1.502-.268-1.502.51 0 .533.33.84.929.84.331 0 .993.252 2.138.838l1.666.828-.318.342c-.61.662-.737 1.184-.42 1.629.153.203.344.242 1.057.242.764 0 1.018.063 1.896.494.864.434 1.196.701 2.468 2.023 3.751 3.92 4.806 4.875 6.938 6.215.607.275 1.102.455 1.334.516.199-.111.605-.418.979-.832 1.746-2.014 3.122-1.506 6.321.348 1.569.93 2.165 1.107 2.386 1.125l.046-.17c.402-1.783.956-2.426 2.394-2.559a29.808 29.808 0 0 0 1.994-5.42c-.758.033-1.676.045-2.254.014l-1.297-.076.076-.395c.114-.609.508-1.322 1.082-1.934.278-.305.533-.559.559-.559.038 0 .445.23.916.521.411.252.86.551 1.288.848.23-1.127.389-2.279.488-3.449-.287-1.037-.474-1.982-.416-2.228zm-14.63-18.06c.279-1.17.61-2.302.674-2.302.052 0 1.082.204 2.315.458 2.672.547 2.723.56 2.227.7-.204.063-1.488.419-2.838.801l-2.467.687.089-.344zM36.112 35.197l-.406-.037c-.534-.064-4.326-1.807-4.326-1.998 0-.482 3.626-5.15 5.662-7.3l.763-.801.038.42c.025.242.128.788.216 1.22l.18.776-1.057 3.866-1.07 3.854zm3.957 1.971c-.115 0-.789-.342-1.501-.762-.7-.42-1.45-.814-1.666-.891l-.382-.139.954-3.486c.521-1.92.991-3.498 1.03-3.498.051 0 .203.306.355.675.229.533.28.914.28 1.971v1.297h.827l.024 1.119c.014.609.141 1.564.281 2.111.255 1.083.206 1.603-.202 1.603zm1.641-9.283l-.355 1.208-.866.037c-.482.025-.928-.012-1.004-.088-.179-.179.014-1.095.33-1.565.331-.496 1.247-.992 1.832-.992.229 0 .42.038.42.089-.001.064-.166.649-.357 1.311zm2.379 1.271h-1.158l.077-.355c.051-.191.179-.649.28-1.018l.19-.662.445.344c.255.19.648.598.891.903.242.317.433.622.433.674 0 .063-.522.114-1.158.114zm.293-13.875c-.534.14-1.374.381-1.857.521-.483.127-.84.216-.814.178.103-.089 4.224-3.103 4.262-3.103l-.025.152a68.16 68.16 0 0 1-.318 1.068l-.254.916-.994.268zm4.859 21.785c-1.057-.75-2.163-2.225-2.773-3.688-.382-.904-.407-1.043-.14-1.043.165 0 .19-.268.19-1.59v-1.59h-.382c-.33 0-.394-.063-.534-.546-.102-.318-.164-1.222-.164-2.251 0-1.882.178-2.67.99-4.49.434-.966.573-.929.586.14.014.737.33 2.2.712 3.332.255.75.294 1.018.191 1.45-.063.279-.178 1.145-.255 1.895-.241 2.429.153 4.744 1.197 6.892.317.625.597 1.285.648 1.451l.088.305-.354-.267zm3.232-2.543c-.038.09-.306.902-.611 1.818-.292.904-.585 1.705-.637 1.756-.05.064-.317 0-.597-.141-.42-.215-.521-.344-.661-.902-.152-.623-.152-.674.164-1.221.408-.688 1.006-1.158 1.68-1.324.687-.163.725-.163.662.014zm3.548 4.885c-.368-.039-1.246-.205-1.946-.344l-1.298-.268.306-.979c.165-.535.458-1.463.649-2.088.33-1.105.381-1.17.891-1.029.228.064.317.256.496 1.121.151.66.47 1.5.902 2.352l.661 1.311-.661-.076zm2.15-2.342c-.33.369-.686.93-.8 1.248-.116.316-.242.621-.293.674-.229.254-1.654-3.053-1.654-3.828 0-.268.471-.115 2.01.609l1.323.637-.586.66z"/><path fill="#3E4347" d="M56.636 47.588l-.046.17c-.221-.018-.816-.195-2.386-1.125-3.199-1.854-4.575-2.361-6.321-.348-.373.414-.779.721-.979.832-.232-.061-.727-.24-1.334-.516a16.11 16.11 0 0 1-.729-.35c-1.921-.994-3.314-1.297-4.388-.953-.656.209-1.161.648-1.49 1.287-.234.432-.429.67-.577.709-.524.139-2.182-.908-2.806-1.301-2.276-1.438-3.735-1.467-5.784-.121-.446.297-.801.525-.968.549-.144.02-.467-.088-.935-.25-.529-.191-.872-.396-.996-.494a.895.895 0 0 0-1.009-.451l-.12.057-.006.004v1.756l.006.004c.348.293.846.566 1.526.813 1.6.557 1.991.502 3.487-.49 1.353-.891 2.059-.986 3.843.139 1.949 1.229 3.135 1.801 4.214 1.52.864-.227 1.361-.967 1.706-1.604.15-.293.321-.379.453-.42.324-.102 1.146-.133 3.022.84.216.109 2.136 1.082 2.946 1.082.495 0 1.053-.361 1.497-.73a7.91 7.91 0 0 0 .761-.727c.789-.91.954-1.1 4.074.709 1.296.768 2.261 1.234 3.054 1.332.302-.42.593-.848.873-1.281l.164-.256c.403-.641.784-1.295 1.14-1.967l.086-.168c.14-.268.282-.535.414-.809-1.436.132-1.99.775-2.392 2.558zM25.543 33.955l.22.229.006.005v-.468l-.006.004zM23.095 33.955l1.301.346.331-.346-.331-.346zM24.789 33.281l.346.332.346-.332-.346-1.299zM25.769 37.201v-1.722l-.006-.012-.53-1.194h-.238l-1.258 2.928h.802l.456.674h.238l.432-.674h.098zM17.455 33.955l.331.346 1.3-.346-1.3-.346zM15.008 33.955l1.3.346.331-.346-.331-.346zM16.7 33.281l.347.332.347-.332-.347-1.299zM16.908 34.273l-1.259 2.928h.802l.457.674h.238l.432-.674h.867l-1.299-2.928zM9.362 33.955l.331.346 1.301-.346-1.301-.346zM8.546 33.955l-.331-.346-1.3.346 1.3.346zM8.607 33.281l.347.332.347-.332-.347-1.299zM8.815 34.273l-1.259 2.928h.801l.458.674h.239l.43-.674h.869l-1.299-2.928zM24.995 23.688h.238l.432-.675H25.769v-1.435h-1.415l-.617 1.435h.802zM16.908 23.688h.238l.432-.675h.867l-.636-1.435h-1.543l-.617 1.435h.802zM8.815 23.688h.239l.43-.675h.869l-.637-1.435H8.173l-.617 1.435h.801zM6.947 26.983l-1.3-.347-.331.347.331.347zM4.5 26.983l-.331-.347-1.3.347 1.3.347zM5.254 26.311l-.347-1.301-.345 1.301.345.33zM4.769 27.301L3.51 30.229h.801l.458.675h.238l.431-.675h.868l-1.299-2.928zM15.04 26.983l-1.3-.347-.332.347.332.347zM12.592 26.983l-.33-.347-1.301.347 1.301.347zM13.348 26.311l-.347-1.301-.347 1.301.347.33zM12.862 27.301l-1.259 2.928h.801l.458.675h.239l.43-.675h.867l-1.297-2.928zM23.133 26.983l-1.3-.347-.331.347.331.347zM20.686 26.983l-.332-.347-1.3.347 1.3.347zM21.44 26.311l-.346-1.301-.347 1.301.347.33zM20.954 27.301l-1.258 2.928h.801l.457.675h.238l.432-.675h.868l-1.3-2.928zM13.408 41.486l.332.346 1.3-.346-1.3-.345zM10.961 41.486l1.301.346.33-.346-.33-.345zM12.654 40.814l.347.331.347-.331-.347-1.3zM21.502 41.486l.331.346 1.3-.346-1.3-.345zM19.054 41.486l1.3.346.332-.346-.332-.345zM20.747 40.814l.347.331.346-.331-.346-1.3z"/><path fill="#ED4C5C" d="M22.724 21.565l-7.337-5.961.006 5.974H25.769l-1.413-.006zM18.891 9.313l6.878-.006h.015V3.713l-.015.013zM18.909 13.402l6.86 5.552.008.007.007 1.466v-7.031h-.015zM3.896 21.495l-.034.083h7.373l-.006-6.04z"/><path fill="#DC241F" d="M25.78 2.649l.004.46v-.461z"/><path fill="#699635" d="M25.784 20.427l-.007-1.466-.008-.007-6.86-5.552-3.525.003.003 2.199 7.337 5.961 1.632.007 1.413.006h.02l-.001-.243zM25.784 3.109l-.004-.46-.012.002a29.817 29.817 0 0 0-9.811 4.003c-.194.123-.39.245-.58.372v.098l.002 2.192 3.511-.003 6.878-5.588.016-.013.005-.004-.005-.599zM8.463 13.411a29.932 29.932 0 0 0-4.567 8.084l7.333-5.958-.003-2.129-2.763.003z"/><path fill="#FFF" d="M53.299 48.178c-3.12-1.809-3.285-1.619-4.074-.709a8.04 8.04 0 0 1-.761.727c-.444.369-1.002.73-1.497.73-.811 0-2.73-.973-2.946-1.082-1.877-.973-2.698-.941-3.022-.84-.132.041-.303.127-.453.42-.345.637-.842 1.377-1.706 1.604-1.079.281-2.265-.291-4.214-1.52-1.784-1.125-2.49-1.029-3.843-.139-1.496.992-1.888 1.047-3.487.49-.681-.246-1.179-.52-1.526-.813l-.006-.004v.547l.006.004c.322.396.918.76 1.802 1.078 1.601.559 1.992.504 3.488-.49 1.352-.889 2.059-.986 3.843.141 1.948 1.229 3.136 1.801 4.214 1.52.864-.227 1.361-.967 1.706-1.604.15-.293.321-.379.453-.422.323-.104 1.145-.131 3.022.84.216.111 2.135 1.084 2.946 1.084.707 0 1.546-.734 1.988-1.176.122-.121.22-.227.27-.281.789-.91.953-1.1 4.074.709.92.543 1.665.928 2.312 1.152.159-.209.313-.422.466-.635-.794-.097-1.759-.564-3.055-1.331zM32.67 51.689c.847-.111 1.411.029 2.541.668 2.164 1.25 3.073 1.334 4.517.443 1.725-1.027 2.415-1.223 3.764-.943 1.035.193 1.129.193.722-.168-.879-.805-2.604-.805-4.141 0-1.757.891-2.604.918-4.579.029-1.789-.807-2.446-.863-3.326-.279-.564.362-.502.389.502.25zM49.891 52.496c-1.443-.334-1.569-.111-.314.557 1.028.537 1.956.596 3.641.156.424-.424.831-.865 1.229-1.314-2.052.669-3.47.865-4.556.601zM47.443 55.887c-1.474 1.195-2.415 1.225-3.952.141-1.412-1-2.353-1.029-4.234-.141-1.066.502-1.286.695-.879.834.283.111.941-.027 1.475-.25 1.381-.639 2.07-.557 3.827.527.877.529 1.726.975 1.851.975s.814-.389 1.537-.834c1.415-.914 2.104-1.256 2.984-1.18.256-.193.508-.393.758-.596-1.628-.625-2.076-.521-3.367.524zM41.609 59.25c-1.192-.916-2.415-.916-4.234 0-1.663.834-2.228.75-4.298-.723-1.725-1.193-1.787-1.223-2.76-.807-.376.168-.848.529-1.035.834-.377.5-.346.529.22.279.783-.389 2.132-.389 2.384 0 .125.167.784.667 1.474 1.112 1.631 1.029 2.979 1.057 4.642.084 1.255-.723 2.103-.779 3.921-.25.438.137.377-.029-.314-.529z"/><path fill="#ED4C5C" d="M20.59 59.465c-.289-.102-.167-.387.033-.447.298-.094.621.193 1.376.154.187-.01.439-.041.439-.42 0-.549-.426-.945-1.779-.727-1.14.178-1.951.162-2.579.064-.02.197-.016.355.012.49.757.396 1.53.766 2.323 1.098.002-.075.05-.156.175-.212z"/><path fill="#ED4C5C" d="M3.719 42.012a29.718 29.718 0 0 0 2.46 5.256c.506.482 3.204 3.521 2.547 3.656a30.225 30.225 0 0 0 5.712 5.391c.232-.043 7.293 3.604 7.053 3.787 1.379.518 2.806.934 4.272 1.244V42.012H3.719z"/><g fill="#FFE62E"><path d="M23.499 48.553c-.092-.229-.155-.316-.488-.215-.809.25-3.025.107-3.73-.32 1.059.385 2.412-.43 2.412-1.105 0-.75-1.049-1.365-3.17-.957-2.124.406-4.71.234-4.71-.385 0-.623 1.854-.709 2.806-.578.951.127 1.634.215 3.416-.344-.439.148-1.855.191-2.977-.088-1.12-.277-3.881-.277-3.904 1.031-.024 1.307 2.936 1.188 5.491.855 1.487-.191 2.268-.063 2.268.367 0 .408-1.364.58-2.415.471-1.05-.105-2.134-.119-3.366.238-2.223.646-4.779.17-5.449-.768a.874.874 0 0 0 .08-.404v-.014c.158-.145.309-.418.374-.619.149-.467-.057-.48-.664-.266-.214-.184-.564-.295-1.157-.295-.594 0-.948.111-1.156.295-.616-.215-.821-.201-.67.266.064.203.221.486.379.621v.012c.004.723.896 1.785.879 1.826-.499-.041-1.062-.428-1.567-.91.455.77.945 1.514 1.465 2.236.114.158.225.32.342.477.239.32.488.633.74.943a4.613 4.613 0 0 0 1.961-.912c.389.01 3.106-.076 4.161-.646.701.707.813.627 1.427.732.637.107 1.024.107.602.42-.146.109-.757.057-1.234.074-1.062.039-1.55-.648-1.863-.291-.238.271-.032.402.41.41-.341 0-.716.018-.643.283.141.506.688-.094.898.109-.179-.035-.466.064-.477.215-.01.154.406.352.865.029.251-.178.56-.244.761-.244.748.006 2.435.342 2.988-.199.216-.211-.06-.387-.281-.578-.21-.189-.263-.447-.221-.871.628.098 1.439.115 2.579-.064 1.354-.217 1.779.18 1.779.727 0 .379-.253.412-.439.422-.755.039-1.078-.25-1.376-.156-.2.061-.322.348-.033.447-.236.107-.208.305-.087.379.124.076.436.008.651-.078-.276.109-.558.303-.398.51.1.125.349.229.582-.037.231-.266.666-.434.929-.455 1.13-.096 1.639-1.598 1.23-2.596zM23.499 57.186c-.092-.229-.155-.316-.488-.215-.809.25-3.025.107-3.73-.32 1.059.385 2.412-.43 2.412-1.104 0-.752-1.049-1.365-3.17-.959-2.124.408-4.71.236-4.71-.385s1.854-.709 2.806-.576c.951.127 1.634.215 3.416-.348-.439.15-1.855.195-2.977-.084-1.12-.277-3.881-.277-3.904 1.029-.024 1.307 2.936 1.189 5.491.857 1.487-.193 2.268-.063 2.268.367 0 .406-1.364.578-2.415.471-1.05-.105-2.134-.121-3.366.238a7.218 7.218 0 0 1-.693.156 30.258 30.258 0 0 0 3.654 2.266 1.68 1.68 0 0 1-.012-.49c.628.098 1.439.113 2.579-.064 1.354-.219 1.779.178 1.779.727 0 .379-.253.41-.439.42-.755.039-1.078-.248-1.376-.154-.2.061-.322.346-.033.447-.125.057-.173.137-.175.213.145.061.293.115.438.174l.074.029c.188.074.374.15.563.221.24-.184.563-.301.776-.318 1.132-.098 1.641-1.598 1.232-2.598z"/></g></svg>