<svg xmlns="http://www.w3.org/2000/svg" width="64" height="64" viewBox="0 0 64 64"><path fill="#699635" d="M2 32c0 9.814 4.714 18.527 12 24h36.001C57.286 50.527 62 41.814 62 32S57.286 13.475 50.001 8H14C6.714 13.475 2 22.186 2 32z"/><path fill="#ED4C5C" d="M14 8h36.001C44.986 4.234 38.754 2 32 2S19.014 4.234 14 8zM32 62a29.861 29.861 0 0 0 18.001-6H14a29.856 29.856 0 0 0 18 6z"/><path fill="#FFF" d="M43 49.641C34.63 47.971 28.334 40.707 28.334 32S34.63 16.029 43 14.361A18.764 18.764 0 0 0 39.334 14C29.207 14 21 22.061 21 32c0 9.941 8.207 18 18.334 18 1.253 0 2.482-.125 3.666-.359z"/></svg>