<svg xmlns="http://www.w3.org/2000/svg" width="64" height="64" viewBox="0 0 64 64"><path fill="#83BF4F" d="M16.999 6.01C6.347 12.16.903 23.857 2.189 35.349L49.813 7.854C40.505.993 27.652-.142 16.999 6.01z"/><path fill="#428BC1" d="M14.192 56.136c9.308 6.859 22.159 7.994 32.813 1.843 10.652-6.149 16.096-17.848 14.81-29.338L14.192 56.136z"/><path fill="#3E4347" d="M57.987 16.992a29.916 29.916 0 0 0-4.954-6.381L2.969 39.518a29.84 29.84 0 0 0 3.049 7.479 29.887 29.887 0 0 0 4.953 6.381l50.064-28.906a29.866 29.866 0 0 0-3.048-7.48z"/><g fill="#FFCE31"><path d="M61.503 26.511a29.884 29.884 0 0 0-.468-2.04L10.971 53.377c.498.49 1.004.973 1.532 1.424.548.469 1.113.91 1.689 1.335l47.622-27.495a29.777 29.777 0 0 0-.311-2.13zM51.501 9.188a29.75 29.75 0 0 0-1.688-1.334L2.189 35.349c.08.711.18 1.422.312 2.13.127.683.292 1.361.468 2.039l50.064-28.906a29.744 29.744 0 0 0-1.532-1.424z"/></g></svg>