<svg xmlns="http://www.w3.org/2000/svg" width="64" height="64" viewBox="0 0 64 64"><path fill="#ED4C5C" d="M56 14H32v6h27.496A29.92 29.92 0 0 0 56 14z"/><path fill="#F9F9F9" d="M61.398 38A30.03 30.03 0 0 0 62 32H2c0 2.055.207 4.061.602 6h58.796z"/><path fill="#ED4C5C" d="M32 2v6h18a29.856 29.856 0 0 0-18-6z"/><path fill="#F9F9F9" d="M32 14h24a30.186 30.186 0 0 0-6-6H32v6zM59.496 20H32v6h29.398a29.64 29.64 0 0 0-1.902-6z"/><path fill="#ED4C5C" d="M32 26v6h30a30.03 30.03 0 0 0-.602-6H32zM4.504 44h54.992a29.64 29.64 0 0 0 1.902-6H2.602a29.64 29.64 0 0 0 1.902 6z"/><path fill="#F9F9F9" d="M8 50h48a29.92 29.92 0 0 0 3.496-6H4.504A29.92 29.92 0 0 0 8 50z"/><path fill="#ED4C5C" d="M8 50a30.24 30.24 0 0 0 6 6h36a30.186 30.186 0 0 0 6-6H8z"/><path fill="#F9F9F9" d="M14 56c5.014 3.766 11.246 6 18 6s12.986-2.234 18-6H14z"/><path fill="#2A5F9E" d="M32 2C15.432 2 2 15.432 2 32h30V2z"/><path fill="#FFF" d="M20 22.244L25.563 26l-2.104-6.107L29 16.109l-6.859-.017L20 10l-2.141 6.092-6.859.017 5.537 3.784L14.438 26z"/></svg>