<svg xmlns="http://www.w3.org/2000/svg" width="64" height="64" viewBox="0 0 64 64"><path fill="#2A5F9E" d="M16.996 6.011C6.343 12.161.899 23.857 2.186 35.349L49.808 7.854C40.499.994 27.649-.14 16.996 6.011zm8.55 11.427l-3.183-.912.908 3.184-2.3-2.379-.805 3.211-.804-3.211-2.303 2.379.909-3.184-3.182.91 2.378-2.303-3.212-.801 3.212-.807-2.379-2.303 3.183.91-.909-3.182 2.302 2.379.804-3.213.805 3.213 2.303-2.379-.91 3.184 3.182-.91-2.378 2.301 3.212.803-3.212.805 2.379 2.305z"/><path fill="#83BF4F" d="M14.187 56.136c9.309 6.86 22.16 7.994 32.813 1.844 10.652-6.15 16.098-17.849 14.81-29.339L14.187 56.136z"/><path fill="#ED4C5C" d="M57.981 16.993a29.848 29.848 0 0 0-4.951-6.38L2.965 39.519a29.878 29.878 0 0 0 3.049 7.479 29.898 29.898 0 0 0 4.951 6.379L61.03 24.472a29.84 29.84 0 0 0-3.049-7.479z"/><g fill="#FFF"><path d="M61.498 26.511a29.857 29.857 0 0 0-.468-2.039L10.965 53.376c.499.491 1.005.975 1.533 1.426.548.468 1.112.91 1.688 1.334L61.81 28.641a30.36 30.36 0 0 0-.312-2.13zM51.498 9.188a29.81 29.81 0 0 0-1.69-1.335L2.186 35.349c.08.711.18 1.422.312 2.131.127.683.292 1.361.468 2.039L53.03 10.613a30.216 30.216 0 0 0-1.532-1.425z"/></g><path fill="#FFCE31" d="M23.167 13.526l2.378-2.3-3.182.91.91-3.184-2.302 2.379-.805-3.213-.804 3.213-2.301-2.379.909 3.182-3.183-.91 2.379 2.302-3.212.807 3.212.801-2.378 2.303 3.182-.911-.909 3.184 2.302-2.379.804 3.211.805-3.211 2.299 2.379-.908-3.184 3.183.912-2.379-2.304 3.212-.805z"/></svg>