<svg xmlns="http://www.w3.org/2000/svg" width="64" height="64" viewBox="0 0 64 64"><path fill="#ED4C5C" d="M17.628 39.004c6.852 0 6.852-1.988 13.702-1.988s6.85 1.988 13.698 1.988c6.847 0 6.847-1.988 13.693-1.988 1.105 0 2.024.054 2.827.142C61.84 35.48 62 33.76 62 32 62 15.432 48.568 2 32 2S2 15.432 2 32c0 1.724.153 3.411.433 5.055.465-.022.953-.039 1.498-.039 6.848 0 6.848 1.988 13.697 1.988z"/><path fill="#FFCE31" d="M44.299 33L48 31.326l-3.969-.869 3.27-2.402-4.065-.03L45.933 25l-3.982.811 2.004-3.518-3.725 1.617 1.225-3.855-3.305 2.351.393-4.023-2.742 2.984-.457-4.017-2.059 3.486L32 17l-1.285 3.836-2.061-3.486-.455 4.017-2.743-2.984.394 4.025-3.307-2.351 1.227 3.853-3.726-1.615 2.005 3.516L18.067 25l2.696 3.025-4.064.032 3.269 2.4-3.968.871L19.7 33 16 34.672l3.969.871-3.27 2.4 4.064.034L18.067 41l6.231-1.268-1.534-2.64-.654-2-.221-2.09.22-2.09.654-2 1.055-1.82 1.414-1.563 1.711-1.236 1.93-.855 2.07-.438h2.108l2.064.434 1.934.855 1.71 1.232 1.416 1.561 1.059 1.822.655 1.998.222 2.09-.218 2.092-.653 2-1.535 2.648 6.229 1.266-2.698-3.023 4.065-.032-3.27-2.4L48 34.672z"/><circle fill="#FFCE31" cx="32" cy="33" r="12"/><path fill="#F27A52" d="M32 43c-5.514 0-10-4.486-10-10s4.486-10 10-10 10 4.486 10 10-4.486 10-10 10zm0-18c-4.411 0-8 3.588-8 8 0 4.41 3.589 8 8 8s8-3.59 8-8c0-4.412-3.589-8-8-8z"/><path fill="#FFCE31" d="M43.1 9.287c-1.537 1.051-1.393 1.438-7.273 1.438-2.116 0-3.241.344-3.826.783-.585-.439-1.71-.783-3.826-.783-5.881 0-5.736-.387-7.273-1.438-2.041-1.398-.682 2.758 4.797 2.758 2.303 0 4.142.43 5.299.799-3.391.162-5.998 1.064-5.998 1.064S28.134 15 32 15s7-1.092 7-1.092-2.607-.902-5.996-1.064a17.566 17.566 0 0 1 5.299-.799c5.478 0 6.838-4.156 4.797-2.758z"/><path fill="#428BC1" d="M31.303 48.994c-6.848 0-6.848 1.99-13.694 1.99-5.403 0-6.557-1.234-10.162-1.757a30.158 30.158 0 0 0 4.544 5.119c1.387.361 3.003.657 5.638.657 6.852 0 6.852-1.988 13.702-1.988s6.85 1.988 13.698 1.988c3.894 0 5.577-.641 7.562-1.196a30.135 30.135 0 0 0 4.077-4.74c-4.884.352-5.579 1.917-11.667 1.917-6.85 0-6.85-1.99-13.698-1.99zM31.303 56.994c-6.406 0-6.847 1.734-12.481 1.959A29.867 29.867 0 0 0 32 62a29.86 29.86 0 0 0 13.121-3.018l-.121.002c-6.849 0-6.849-1.99-13.697-1.99zM58.703 40.994c-6.852 0-6.852 1.99-13.703 1.99-6.849 0-6.849-1.99-13.697-1.99-6.848 0-6.848 1.99-13.694 1.99-6.849 0-6.849-1.99-13.699-1.99-.185 0-.36.003-.535.007a29.75 29.75 0 0 0 1.602 4.041c5.794.196 6.181 1.962 12.651 1.962 6.852 0 6.852-1.988 13.702-1.988s6.85 1.988 13.698 1.988c6.847 0 6.847-1.988 13.693-1.988.11 0 .206.005.312.006a29.595 29.595 0 0 0 1.571-3.963 26.958 26.958 0 0 0-1.901-.065z"/><path fill="#FFF" d="M17.609 42.984c6.846 0 6.846-1.99 13.694-1.99 6.849 0 6.849 1.99 13.697 1.99 6.852 0 6.852-1.99 13.703-1.99a27 27 0 0 1 1.901.064c.401-1.266.714-2.569.944-3.901a25.778 25.778 0 0 0-2.827-.142c-6.847 0-6.847 1.988-13.693 1.988-6.849 0-6.849-1.988-13.698-1.988s-6.85 1.988-13.702 1.988c-6.849 0-6.849-1.988-13.698-1.988-.545 0-1.033.017-1.498.039.229 1.348.541 2.666.943 3.946.174-.004.35-.007.535-.007 6.85.001 6.85 1.991 13.699 1.991zM45.028 47.004c-6.849 0-6.849-1.988-13.698-1.988s-6.85 1.988-13.702 1.988c-6.47 0-6.857-1.766-12.651-1.962a29.972 29.972 0 0 0 2.47 4.186c3.605.522 4.759 1.757 10.162 1.757 6.846 0 6.846-1.99 13.694-1.99 6.849 0 6.849 1.99 13.697 1.99 6.088 0 6.783-1.565 11.667-1.917a29.816 29.816 0 0 0 2.366-4.046c-.105-.001-.201-.006-.312-.006-6.846 0-6.846 1.988-13.693 1.988zM31.33 53.016c-6.85 0-6.85 1.988-13.702 1.988-2.634 0-4.25-.296-5.638-.657a29.985 29.985 0 0 0 6.831 4.606c5.635-.225 6.075-1.959 12.481-1.959 6.849 0 6.849 1.99 13.697 1.99l.121-.002a30.047 30.047 0 0 0 7.469-5.175c-1.984.556-3.668 1.196-7.562 1.196-6.847.001-6.847-1.987-13.697-1.987z"/></svg>