<svg xmlns="http://www.w3.org/2000/svg" width="64" height="64" viewBox="0 0 64 64"><path fill="#FFCE31" d="M29.238 8H50a29.863 29.863 0 0 0-18-6 29.866 29.866 0 0 0-18.001 6h11.589v48H13.999A29.866 29.866 0 0 0 32 62a29.863 29.863 0 0 0 18-6H29.238V8z"/><path fill="#C94747" d="M62 32c0-9.814-4.714-18.526-12-24H29.238v48H50c7.286-5.474 12-14.186 12-24z"/><path fill="#FF8736" d="M25.588 8H13.999c-.14.104-.273.216-.411.323v47.354c.138.107.271.219.411.323h11.589V8z"/><path fill="#699635" d="M2 32c0 9.626 4.539 18.188 11.588 23.677V8.323C6.539 13.813 2 22.374 2 32z"/><g fill="#FFCE31"><path d="M34.414 49.588c-1.056.791-3.219.734-4.136 1.658-1.1 1.09.086 2.529.075 2.654l-.06.76s.74.01 1.054.059c.469.072.653.455 1.526.398 2.197-.143 2.109-2.123 2.233-3.816.111-.645.366-1.484.511-2.129.125-.551.151-1.43.152-1.432-.001.006-.645 1.313-1.355 1.848zM35.107 12.699c-.124-1.691-.036-3.672-2.233-3.816-.873-.057-1.058.326-1.526.398-.314.049-1.054.059-1.054.059l.06.76c.011.125-1.175 1.564-.075 2.654.917.924 3.08.867 4.136 1.658.71.535 1.354 1.844 1.356 1.848-.001-.004-.027-.881-.152-1.432-.145-.644-.4-1.484-.512-2.129zM61.809 28.656c-.769-.039-1.504-.074-2.179-.094.276.24-.758-3.48-.212-3.996.683-.646.215-4.211-.378-4.973.011-.117.046-.268.077-.412-.33-.695-.68-1.378-1.061-2.042-1.109-.365-2.048-1.126-2.435.526-.404-.523-1.516-1.6-2.201-1.27a6.36 6.36 0 0 1-.37 1.203c-.467.203-2.338-.82-3.273-.637.008 1.979-1.17 1.209-2.582 1.883-2.57 1.229-1.306-1.088-3.031-1.088-3.224 0 1.319 4.863 2.056 5.377.115-.191-.271-.643-.021-.822-.004.002 1.095.869 1.095.639.053-.291.141-.568.265-.834.324.51 2.644 3.162 2.089 3.688-.146.139-2.279-.051-2.332-.135.114-.207.223-.742.177-.791-.687-.738-2.023-.793-2.675-.582-.646.209-1.701 1.037-1.78 2.047.405-.094 1.837-.453 2.005-.297.093.088-.384.76-.43.908.584.006 1.848.311 2.084.291.126-.248.254-.494.385-.74.27.424.548.844.835 1.256.297.217.939-1.762 1.472-.398.179.459-4.893 5.262-5.177 7.064-.158 1.014.012 2.02.408 2.938-.914-1.002-3.339-3.707-3.857-3.432-1.491.793-.155 5.365.518 6.346.783 1.139 5.524 3.805 5.524.205 0-.217-.156-.543-.408-.928 1.119.742 2.471 1.266 3.062 1.957.702.822 1.292 3.039 1.168 4.168-.325 2.934-4.804.23-4.804 3.424 0-.4 4.391.15 4.715-.092.721-.537 2.86 1.182 2.471-1.193-.396-2.412 2.511-1.266 2.511-3.211 0-1.041-3.134.232-1.372-2.471.683-1.045.176-2.367.985-1.334 1.256 1.604 3.42.468 5.748-.698A30.057 30.057 0 0 0 62 32c0-1.131-.069-2.245-.191-3.344z"/><path d="M39.98 41.82c-.186.672-1.183-3.139-.969-3.342.37.074.745.104 1.123.082.278-.221-.683-.748-1.649-.973.834-.039 1.485-.258 1.485-.535 0-.232-.449-.428-1.083-.51.576-.088.982-.273.982-.492 0-.246-.512-.445-1.207-.518.744-.061 1.308-.268 1.308-.523 0-.199-.343-.363-.833-.461.596-.098 1.014-.314 1.014-.566 0-.213-.315-.395-.768-.506.467-.063.891-.17 1.196-.307 1.723-1.828-.513-2.957-.513-1.104 0 .773-2.242.455-2.557.295-.447-.229-.181-.428-.028-.689.435.182 2.173.455 2.287-2.104.051-1.135.107-16.334 1.463-16.264-5.918-.311-3.29 14.594-3.755 17.883-.431-.74-2.076.129-1.592 1.188.279.613.95.932 1.714 1.07-.526.107-.896.303-.896.537 0 .227.349.416.845.525-.602.086-1.025.277-1.025.502 0 .244.513.445 1.209.518-.746.059-1.31.266-1.31.523 0 .23.45.428 1.085.51-.578.088-.984.273-.984.492 0 .195.34.359.823.457-.353.068-.593.258-.593.637.426.182.834.395 1.229.633.041.818-.375 2.533-.725 3.33a1.073 1.073 0 0 0-.638-.518c-1.264.082.982 1.635.989 1.479-.025.506-.495.398-.672.709-.008-.008 1.568.992 1.562 1.156a46.125 46.125 0 0 0 1.57-1.154c-.211-.207-.677-.416-.725-.736-.026-.182 1.267-.48 1.397-.875.168-.493-.624-.839-.759-.349z"/></g></svg>