<svg xmlns="http://www.w3.org/2000/svg" width="64" height="64" viewBox="0 0 64 64"><path fill="#ED4C5C" d="M44.46 56.46L20 32h24L18.707 6.706h-2.829V6.7C7.534 12.028 2 21.366 2 32c0 16.568 13.432 30 30 30a29.88 29.88 0 0 0 12.46-2.712V56.46z"/><path fill="#F9F9F9" d="M32 2c-4.448 0-8.664.979-12.46 2.716v4.85l21.01 21.01H19.54v3.165l23.554 23.554h5.015C56.456 51.968 62 42.636 62 32 62 15.432 48.568 2 32 2z"/><path fill="#428BC1" d="M19.54 4.712a29.884 29.884 0 0 0-3.662 1.994L39.172 30h-24L44.46 59.288a29.884 29.884 0 0 0 3.662-1.994L24.828 34h24L19.54 4.712z"/><path fill="#FFF" d="M19.553 21.802A3.964 3.964 0 0 0 20 20a4 4 0 0 0-8 0c0 .651.171 1.259.447 1.802C10.502 21.044 9 20 9 20s1.5 6 7.001 6C21.625 26 23 20 23 20s-1.502 1.045-3.447 1.802zM16 39.563L17.608 38l.611 2.158 2.173-.551-.55 2.174 2.158.611L20.436 44 22 45.608l-2.158.61.55 2.175-2.173-.55L17.608 50 16 48.437 14.392 50l-.612-2.157-2.173.55.551-2.175-2.158-.61L11.563 44 10 42.392l2.158-.611-.551-2.174 2.173.551.612-2.158z"/></svg>