<svg xmlns="http://www.w3.org/2000/svg" width="64" height="64" viewBox="0 0 64 64"><path fill="#EDA454" d="M62 52c0 5.523-4.477 10-10 10H12C6.477 62 2 57.523 2 52V12C2 6.478 6.477 2 12 2h40c5.523 0 10 4.478 10 10v40z"/><path fill="#FFF" d="M19.98 24.204c-.766.731-1.494 1.424-2.262 2.003-.844-.81-2.684-2.271-3.719-3.003 3.221-2.118 6.248-5.622 7.938-9.203l4.445 1.31c-.422.925-.918 1.81-1.494 2.695h23.004v4.043h-3.605v4.928h4.984v4.081h-4.984v4.891h4.447v4.08H15.42v-4.08h4.561v-4.891h-5.137v-4.081h5.137v-2.773zm-5.519 24.025c1.688-1.617 3.41-4.582 4.293-7.393l4.41 1.078c-.844 2.926-2.492 6.084-4.371 8.086l-4.332-1.771zm9.547-21.253h2.758v-4.928h-2.758v4.928zm0 8.971h2.758v-4.891h-2.758v4.891zm5.863 5.737c.461 2.348.883 5.391.922 7.199l-4.449.654c0-1.846-.307-5.004-.729-7.354l4.256-.499zm3.527-14.708v-4.928H30.56v4.928h2.838zm-2.837 4.081v4.891h2.838v-4.891h-2.838zm6.941 10.472c.92 2.273 1.879 5.275 2.225 7.162l-4.563.885c-.232-1.85-1.111-4.967-1.955-7.316l4.293-.731zm2.607-19.481h-2.916v4.928h2.916v-4.928zm0 9.009h-2.916v4.891h2.916v-4.891zm5.061 9.627c1.725 2.348 3.873 5.58 4.83 7.699l-4.678 1.578c-.805-2.041-2.836-5.428-4.523-7.893l4.371-1.384z"/></svg>