<svg xmlns="http://www.w3.org/2000/svg" width="64" height="64" viewBox="0 0 64 64"><path fill="#C28FEF" d="M62 52c0 5.523-4.477 10-10 10H12C6.477 62 2 57.523 2 52V12C2 6.477 6.477 2 12 2h40c5.523 0 10 4.477 10 10v40z"/><path fill="#FFF" d="M30.142 21.859c-.697 6.589-2.827 10.756-12.663 12.939-.387-1.111-1.549-3.016-2.479-3.97 8.442-1.508 9.797-4.286 10.417-8.97h-5.344v4.604h-4.53v-8.891h14.018V14h4.725v3.572h14.367v8.216h-4.764v-3.929h-5.461v6.271c0 1.071.232 1.23 1.434 1.23h3.446c.968 0 1.161-.396 1.316-2.898.853.675 2.749 1.35 3.95 1.628-.465 4.167-1.704 5.279-4.802 5.279h-4.607c-4.338 0-5.268-1.271-5.268-5.199v-6.312h-3.755zM49 45.714V50H15.117v-4.286H29.56v-5.913H19.183v-4.248h26.526v4.248H34.285v5.913H49z"/></svg>