<svg xmlns="http://www.w3.org/2000/svg" width="64" height="64" viewBox="0 0 64 64"><g fill="#4FD1D9"><path d="M57.988 33.248c-.411-14.14-12.607-24.741-26.666-22.125C19.336 13.354 12.018 26.202 17.391 37.2c2.633 5.391 9.136 7.761 14.799 6.521 6.031-1.319 9.157-8.522 6.891-13.874-1.277-3.016-6.309-1.692-5.012 1.37 2.409 5.687-3.558 9.134-8.541 6.971-3.718-1.615-4.913-5.89-4.863-9.554.125-9.143 10.706-14.02 18.701-12.586 10.272 1.843 14.676 13.555 13.066 22.734-1.746 9.949-10.881 16.469-20.381 18.2-3.294.6-1.895 5.564 1.381 4.967 14.187-2.584 24.98-14.119 24.556-28.701z"/><path d="M46.625 25.513c-6.43-11.214-25.605-4.916-21.011 8.246 1.089 3.119 6.11 1.778 5.012-1.37-1.708-4.894 1.665-8.287 6.9-7.575 4.049.551 5.981 5.104 6.415 8.624 1.418 11.521-12.116 17.645-21.447 13.534-8.823-3.887-12.741-13.904-10.602-22.878 2.15-9.022 10.718-16.174 19.91-16.931 3.314-.273 3.342-5.428 0-5.152C18.013 3.147 7.114 14.385 6.064 28.028 5.021 41.582 16.813 54.124 30.518 53.641c13.969-.494 22.957-16.181 16.107-28.128z"/></g></svg>