<svg xmlns="http://www.w3.org/2000/svg" width="64" height="64" viewBox="0 0 64 64"><path fill="#42ADE2" d="M0 0h64v64H0z"/><path fill="#428BC1" d="M0 52h64v12H0z"/><path fill="#3E4347" d="M64 28.891v-2.004c-4.842-.541-9.094-3.023-12-6.635V10h-6v10.264C42.697 24.359 37.658 27 32 27c-5.66 0-10.699-2.641-14-6.736V10h-6v10.252c-2.908 3.611-7.158 6.094-12 6.635v2.004a19.841 19.841 0 0 0 5-1.174V34H0v6h9l1.199 6H12v6h6v-6h1.801L21 40h22l1.199 6H46v6h6v-6h1.801L55 40h9v-6h-5v-6.283a19.8 19.8 0 0 0 5 1.174zm-18-5.645V28a5.996 5.996 0 0 1-5 5.91v-7.066a20.081 20.081 0 0 0 5-3.598zm-23 3.598v7.066A5.997 5.997 0 0 1 18 28v-4.754a20.008 20.008 0 0 0 5 3.598zm-11-3.592V28a5.996 5.996 0 0 1-5 5.91v-7.07a20.11 20.11 0 0 0 5-3.588zM25 34v-6.275a19.86 19.86 0 0 0 6 1.244V34h-6zm8 0v-5.031a19.86 19.86 0 0 0 6-1.244V34h-6zm24-.09A5.997 5.997 0 0 1 52 28v-4.748a20.11 20.11 0 0 0 5 3.588v7.07z"/><circle fill="#FFF" cx="32" cy="12" r="8"/><circle fill="#D0D0D0" cx="35" cy="9" r="2"/><circle fill="#D0D0D0" cx="29" cy="15" r="2"/><circle fill="#D0D0D0" cx="29" cy="9" r="1"/><circle fill="#D0D0D0" cx="35" cy="15" r="1"/><path fill="#FFF" d="M40 53c0 .551-.451 1-1 1H25c-.551 0-1-.449-1-1 0-.549.449-1 1-1h14c.549 0 1 .451 1 1zM38 57c0 .551-.451 1-1 1H27c-.551 0-1-.449-1-1 0-.549.449-1 1-1h10c.549 0 1 .451 1 1zM36 61c0-.549-.451-1-1-1h-6c-.551 0-1 .451-1 1 0 .551.449 1 1 1h6c.549 0 1-.449 1-1zM2.666 4.998L3.667 4l1 1.003-1 .999zM6.09 14.635l1.001-.999 1 1.003-1 .999zM19.482 4.529l1.001-.999 1 1.002-1 1zM39 19.612l1-.999 1.001 1.002-1 1zM57.158 4.53l1.001-1 1 1.003-1 .999zM59.575 44.425l1.001-.998 1 1.002-1 .999zM36 47.999L37 47l1 1.002-1 1zM27 44.426l1-.999 1.001 1.002-1 1zM5.09 47.614l1-1 1 1.003-1 .999zM53.658 13l1.001-1 1 1.003-1 .999zM59.158 17.613l1.001-1 1 1.003-1 .999z"/></svg>