<svg xmlns="http://www.w3.org/2000/svg" width="64" height="64" viewBox="0 0 64 64"><path fill="#3F3261" d="M0 0h64v46H0z"/><path fill="#42ADE2" d="M0 46h64v10.016H0z"/><path fill="#296D8F" d="M0 34h64v1.016H0z"/><path fill="#3283AB" d="M0 37h64v2H0z"/><path fill="#3B9AC9" d="M0 40.982h64V44H0z"/><path fill="#3E4347" d="M0 55s5.775-3.779 8-4c2.836-.281 8.164 3.281 11 3 2.225-.221 5.789-3.668 8-4 1.504-.227 4.514 1.319 6 1 1.762-.378 4.197-3.974 6-4 2.357-.035 5.643 4.939 8 5 2.572.066 6.471-4.516 9-5 1.98-.379 8 1.036 8 1.036V64H0v-9z"/><g fill="#FFF"><path d="M7 23.5L8.5 22l1.499 1.5-1.5 1.5zM12 18.5l1.5-1.5 1.499 1.5-1.5 1.5zM18 21.5l1.499-1.5 1.5 1.5-1.5 1.5zM20 13.511l1.5-1.5 1.499 1.5-1.5 1.5zM24 18.5l1.499-1.5 1.5 1.5-1.5 1.5zM28 12.5l1.499-1.5 1.5 1.5-1.5 1.5zM30 20.5l1.499-1.5 1.5 1.5-1.5 1.5zM35 12.5l1.499-1.5 1.5 1.5-1.5 1.5zM41 9.5L42.498 8l1.5 1.5-1.5 1.5zM42 14.5l1.499-1.5 1.5 1.5-1.5 1.5zM48 14.5l1.499-1.5 1.5 1.5-1.5 1.5zM49 7.5L50.498 6l1.5 1.5-1.5 1.5zM57 3.5L58.498 2l1.5 1.5-1.5 1.5z"/></g><g fill="#C79CFF"><path d="M36.5 17.5l1-1 1 1-1 1zM45.583 11.313l1-1 1 1-1 1zM60.25 7.75l1-1 1 1-1 1zM25.75 26.75l1-1 1 1-1 1zM2.75 23.75l1-1 1 1-1 1zM4 15.5l1-1 1 1-1 1zM18.75 5.75l1-1 1 1-1 1zM48.25 21.25l1-1 1 1-1 1z"/></g><g fill="#FFABED"><path d="M45.25 6.25l1-1 1 1-1 1zM54.292 7.814l1-1 1 1-1 1zM55.293 12.25l1-1 1 1-1 1zM36.75 8l1-1 1 1-1 1zM31 15.5l1-1 1 1-1 1zM17.75 17.108l1-1 1 1-1 1zM13.75 27.25l1-1 1 1-1 1zM7.5 18.108l1-1 1 1-1 1zM3.25 28.25l1-1 1 1-1 1zM6.75 6.75l1-1 1 1-1 1zM45 29l1-1 1 1-1 1zM58.5 22.796l1-1 1 1-1 1zM30.5 2.5l1-1 1 1-1 1z"/></g></svg>