<svg xmlns="http://www.w3.org/2000/svg" width="64" height="64" viewBox="0 0 64 64"><path fill="#008DB3" d="M58.404 22.718l1.646 19.946C55.751 53.968 44.813 62 32 62 15.432 62 2 48.568 2 32S15.432 2 32 2a29.86 29.86 0 0 1 16.293 4.806l10.111 15.912z"/><g fill="#FFC942"><path d="M48.287 6.802c.346.957.617 2.14-.439 1.587-1.68-.881-3.922-1.939-3.201-1.25s1.004 1.532-.139 1.392c-1.143-.142-3.143-.382-4.023.898-.881 1.281-2.08 1.041-2.4 1.521-.32.479-.801 2.561-1.682 1.921-.879-.641-2.721-2.902-1.199-2.252 1.52.65 3.201-.069 1.84-1.67-1.361-1.602-2.801-1.041-3.361-1.921-.561-.881-2.641-2.001-4.082.24-1.441 2.24-2.744 5.124-3.533 5.724-.789.599-2.469 1.72-2.23 2.6.24.881.32 3.042 1.201 2.401s1.441-.88 1.762-.32c.32.561.24 1.841.881 1.761 0 0 1.439-1.04 1.52-1.921.08-.88-1.041-1.44-.16-2.721.881-1.281 2.563-3.769 2.162-2.524-.4 1.243-1.281 3.004-.641 3.805s4.082-.24 2.48.561c-1.6.8-2.4 1.36-2.721 2.4-.32 1.041-.561 1.842-1.361 1.441s-1.76-.24-2.24-.24-.641-1.841-1.281-1.44c-.641.399.24 1.73-.48 1.785-.721.056-.801.855-1.6 1.496-.801.641-1.922 1.761-2.643 1.921s1.121.961.801 1.841c-.32.881-1.92.801-2.48.881s-.08 1.28-.4 2.001c-.32.72.32 1.44 1.279 1.44.961 0 2.002-.24 2.082-1.121.08-.88 1.041-2.4 1.682-2.081.639.32 2.057-.56 2.389-.079.332.479 2.172 2.16 2.012 2.4s-1.119.721-.719.881c0 0 .254.504.521.397s.721-1.414.961-1.574.32-.854-.135-1.174c-.453-.32-2.16-1.521-1.787-2.081s1.334.693 1.707 1.12c.375.428.961.881.988 1.814s.561.881.641 1.334c.08.454.266.644.801.575.533-.068.746-1.242.453-1.535-.293-.294-.293-.935.266-.935.561 0 1.254-.479 1.281-.773.027-.293.561-2.107.961-2.107s.666.72.826 1.094c.16.373 1.174-.294 1.014-.667-.16-.374.08-.507.375-.507.293 0 .053.773.346 1.014.295.24 1.654 1.121 1.201 1.574s-1.201.187-1.707-.214c-.508-.399-1.814-.16-2.162.24-.346.4-.641.587-1.227.614-.588.026-.508 1.094 0 1.547.506.454 1.201.054 1.707.374.508.32 1.307-.427 1.441.08.133.507-.08 2.027-.588 2.081-.506.053-2.084.427-3.244-.107-1.158-.533-2.277-.746-2.385-.187-.107.561-.133.968-.934.471s-1.494-.791-2.002-.791c-.506 0-.533-.854-.426-1.601.105-.747-1.229-.48-2.002-.293-.773.187-2.4.747-3.361.747s-1.441.213-1.602.64-1.094.427-1.121 1.228c-.025.801.135 1.033-.719 1.37-.854.338-1.121 1.885-1.549 2.312-.426.428.428 1.441 0 1.975-.426.534-.832 1.921-.123 2.241.711.32 1.404 1.654 1.725 2.188.32.534 1.387.961 2.455.801 1.066-.16 3.148-.801 4.162-.32s2.24.374 1.654 1.388c-.588 1.014.266 2.295 1.014 3.042.746.747.48 2.454.105 3.041-.373.587-.266 1.601.107 2.135.373.533.641 1.654.641 2.135 0 .479.801 1.387.906 2.348.107.96-.586 2.081.32 2.081.908 0 3.203.106 3.363-.32s2.027-1.975 2.508-2.722 1.547-1.921 1.227-2.614c-.32-.694.053-1.281 1.068-1.654 1.014-.374.959-3.202.479-3.949-.479-.747.428-2.401 1.549-2.935 1.119-.533 3.734-5.069 2.881-4.695-.854.373-2.615.693-3.201.319-.588-.373-4.057-6.438-3.576-6.794s3.307 5.457 3.789 6.207c.482.751 5.23-2.134 5.764-2.828.533-.693-.32-1.44-.641-1.44s-1.387-.747-1.654-.32-2.348-2.882-1.602-2.562c.748.32 2.242 1.334 3.576 2.081s2.988-.533 3.949.961c.959 1.494 1.6.48 1.547 1.228s1.227 3.575 1.654 4.482c.426.906 1.334-.374 1.441-1.441.105-1.067 2.24-2.774 2.986-3.361.748-.587 2.135.267 2.35 1.494.213 1.227 1.227-.214 1.227.747 0 .96-.174 2.334.5 3.488A29.996 29.996 0 0 0 62 32c0-10.564-5.461-19.854-13.713-25.198zM16.393 10.63c-.561.155-1.199.88-2 .48-.801-.4-2.48.159-1.441 1.12 1.041.961.631 1.601 1.557 1.681s1.645-1.28 2.285-1.2.261-2.264-.401-2.081z"/><path d="M40.715 49.74c-.68.075-.535 1.494-1.281 1.654-.748.16-.111.8-.455 1.334-.346.533-.51 1.654 0 2.348.508.693.723.747 1.256-.373.533-1.121 1.919-5.123.48-4.963zM20.65 17.27c-.287-.018-.588.187-.908.24-.318.054-.506.453-.533.907-.025.453.801.641.48.934-.32.294-1.895.587-1.654 1.067s.533.934.213 1.44c-.318.507.32.561.881.374s.961-.881.908-1.334c-.055-.454.854-.561.613-.24s-.773 1.398-.508 1.673c.268.274-.826.781-.426.969.4.187 1.451-.801 2.107-.641s.826-.16.906-.721c.08-.56-.826-1.334-1.146-1.974-.319-.64-.052-2.641-.933-2.694z"/></g></svg>