<svg xmlns="http://www.w3.org/2000/svg" width="64" height="64" viewBox="0 0 64 64"><path opacity=".8" fill="#A1B8C7" d="M37.916 46.225L41 10.237c0-10.982-18-10.982-18 0l3.084 35.988A8.97 8.97 0 0 0 23 52.998C23 57.969 27.029 62 32 62c4.97 0 9-4.031 9-9.002a8.97 8.97 0 0 0-3.084-6.773zM32 59.75a6.752 6.752 0 0 1-6.749-6.752 6.744 6.744 0 0 1 3.251-5.768L26.6 10.007c0-6.366 10.801-6.366 10.801 0L35.498 47.23a6.746 6.746 0 0 1 3.252 5.768A6.752 6.752 0 0 1 32 59.75z"/><path fill="#ED4C5C" d="M28.399 21.375L29.75 48.91h4.499l1.352-27.535z"/><path fill="#ED4C5C" d="M37.625 52.998a5.625 5.625 0 0 1-11.25 0 5.625 5.625 0 1 1 11.25 0z"/><ellipse fill="#A5203C" cx="32" cy="21.375" rx="3.601" ry="1.206"/><path fill="#51575B" d="M30.877 28.17h-4.878l-.076-1.486h4.878zM30.909 32.39h-4.678l-.073-1.485h4.678zM30.914 36.611h-4.49l-.07-1.486h4.491zM30.944 40.83h-4.053l-.063-1.486h4.053zM30.979 45.049h-3.745l-.058-1.485h3.745z"/></svg>