<svg xmlns="http://www.w3.org/2000/svg" width="64" height="64" viewBox="0 0 64 64"><path fill="#75A843" d="M32.89 17.304L35.391 64H30.39z"/><path fill="#83BF4F" d="M27.063 45.323c6.841 3.661 5.327 10.11 5.327 10.11s-5.65 5.061-12.494 1.398c-4.714-2.521-8.783-12.369-8.783-12.369s11.233-1.66 15.95.861z"/><path fill="#947151" d="M40.933 48.36l-7.365-2.07-.035 4.026z"/><path fill="#871212" d="M25.587 22.186c3.718 9.54 5.245 14.456 11.711 14.456 6.469 0 16.32-16.617 6.899-21.992C34.966 9.384 35.257 2 35.257 2s-15.709 4.688-9.67 20.186z"/><path fill="#991D1D" d="M45.152 24.203c-4.79 9.134-5.243 14.457-11.711 14.457s-18.331-21.8-7.83-25.124c12.997-4.114 16.319-8.87 16.319-8.87s10.375 5.897 3.222 19.537z"/><path fill="#AD2727" d="M45.986 16.041c.031-3.912-17.045-7.177-19.998-13.253 0 0-8.25 5.912-5.066 11.961 1.771 3.361 24.961 14.454 25.064 1.292z"/><path fill="#CC3636" d="M36.823 19.463c10.4 12.962 4.817 20.751-3.688 20.751-8.502 0-17.806-8.205-15.396-17.774 2.422-9.621-1.016-17.774-1.016-17.774s12.152 4.889 20.1 14.797z"/><path fill="#E24B4B" d="M27.301 18.471c-11.835 11.896-2.059 21.743 6.447 21.743 8.504 0 15.397-7.957 15.397-17.774 0-9.816 2.635-15.832 2.635-15.832S35.731 9.996 27.301 18.471z"/><path fill="#75A843" d="M34.007 36.067c13.147-.177 7.391 4.961-1.115 4.961-20.92 0-19.994-18.258-19.994-18.258s9.44 13.456 21.109 13.297z"/><path fill="#83BF4F" d="M34.007 36.067c-3.533 1.441-12.719 3.476-4.41 5.127 16.424 3.261 23.291-17.783 23.291-17.783s-8.393 8.382-18.881 12.656z"/></svg>