<svg xmlns="http://www.w3.org/2000/svg" width="64" height="64" viewBox="0 0 64 64"><g fill="#64892F"><path d="M16.935 11.238c4.893 4.894 5.663 8.215 4.092 9.788-1.573 1.572-4.894.802-9.787-4.092C6.345 12.039 3.304 3.302 3.304 3.302s8.736 3.041 13.631 7.936z"/><path d="M23.71 14.118c2.924 6.273 2.512 9.657.496 10.597-2.015.94-4.872-.919-7.796-7.193C13.483 11.25 13.615 2 13.615 2s7.169 5.845 10.095 12.118z"/><path d="M29.632 21.245c-2.881 6.294-5.724 8.173-7.746 7.249-2.022-.925-2.458-4.306.422-10.6C25.188 11.6 32.315 5.703 32.315 5.703s.197 9.248-2.683 15.542z"/><path d="M26.912 17.956c-.398 6.91-2.365 9.694-4.587 9.565-2.22-.128-3.853-3.12-3.453-10.03.399-6.911 4.899-14.992 4.899-14.992s3.542 8.546 3.141 15.457z"/><path d="M33.202 23.979c-4.449 5.302-7.689 6.358-9.394 4.93-1.703-1.429-1.226-4.805 3.224-10.107S39.92 9.709 39.92 9.709s-2.268 8.968-6.718 14.27z"/><g><path d="M14.119 23.708c6.273 2.926 9.656 2.514 10.595.498.941-2.015-.918-4.872-7.19-7.797C11.25 13.483 2 13.614 2 13.614s5.847 7.169 12.119 10.094z"/><path d="M21.245 29.631c6.294-2.88 8.174-5.724 7.248-7.746-.924-2.022-4.307-2.457-10.6.423C11.6 25.188 5.704 32.316 5.704 32.316s9.247.196 15.541-2.685z"/><path d="M17.957 26.912c6.909-.398 9.693-2.366 9.564-4.587-.128-2.219-3.119-3.853-10.03-3.454S2.5 23.771 2.5 23.771s8.546 3.541 15.457 3.141z"/><path d="M23.98 33.201c5.302-4.448 6.358-7.689 4.929-9.393-1.429-1.704-4.805-1.225-10.105 3.224-5.303 4.449-9.095 12.888-9.095 12.888s8.969-2.269 14.271-6.719z"/></g></g><path fill="#B46137" d="M55.909 31.198c7.997 7.997 5.762 16.826-1.062 23.649-6.823 6.824-15.653 9.059-23.648 1.063-7.997-7.997-14.739-25.803-7.916-32.627 6.824-6.824 24.63-.082 32.626 7.915z"/><g fill="#E7A74F"><path d="M47.054 47.055c-.973.973-2.11 4.344-1.207 5.248.906.904 4.276-.233 5.25-1.207.972-.973 2.11-4.344 1.206-5.248s-4.277.234-5.249 1.207zM52.873 52.873c-.973.974-1.821 4.635-.916 5.539.904.904 7.359-5.552 6.455-6.455-.904-.905-4.566-.057-5.539.916zM34.833 34.832c-.974.973-2.11 4.344-1.208 5.248.905.904 4.275-.233 5.249-1.206.973-.974 2.111-4.345 1.207-5.249s-4.276.234-5.248 1.207zM40.941 40.941c-.973.973-2.111 4.344-1.207 5.248s4.276-.234 5.249-1.207 2.111-4.344 1.207-5.248-4.276.234-5.249 1.207zM28.975 28.973c-.973.973-2.11 4.345-1.207 5.249s4.275-.233 5.249-1.206c.972-.973 2.11-4.346 1.206-5.25s-4.277.234-5.248 1.207z"/><g><path d="M29.131 52.004c-1.383 1.383-1.008 5.797 3.589 6.958 1.219.308 3.497-7.446 2.593-8.351-1.676-1.675-5.292.502-6.182 1.393zM36.449 57.65c-3.495 3.496 2.351 5.733 4.706 3.377.891-.889 1.17-3.402.266-4.307-.903-.904-4.081.041-4.972.93zM38.147 48.996c-.973.973-2.101 5.096-1.196 6s5.218-.031 6.191-1.004c.973-.973 1.526-4.82.622-5.725-.904-.903-4.645-.244-5.617.729zM44.337 55.186c-.973.974-1.764 4.691-.859 5.596 1.676 1.678 4.855.346 5.827-.627.973-.973 1.532-4.924.628-5.828-.904-.905-4.622-.114-5.596.859zM32.211 43.06c-.974.973-2.355 4.841-1.451 5.745.903.904 5.111-.139 6.083-1.111.973-.973 1.772-4.686.868-5.59-.904-.904-4.527-.017-5.5.956zM20.572 31.266c-.972.973-1.421 3.656-.519 4.561.904.904 3.589.454 4.561-.519.973-.974 2.111-4.345 1.207-5.249s-4.275.234-5.249 1.207zM20.638 38.054c-.889.89.761 6.509 1.65 5.618.89-.889 2.447-4.68 1.543-5.584s-2.304-.924-3.193-.034zM24.321 45.344c-1.161 1.16-1.399 6.221 1.848 6.666 1.247.171 4.154-6.388 3.25-7.292-.904-.905-4.208-.265-5.098.626zM26.237 37.087c-.973.973-1.835 4.73-.931 5.636.903.904 4.772.152 5.746-.821.972-.973 1.614-4.731.71-5.636s-4.551-.153-5.525.821z"/><g><path d="M52.005 29.131c1.383-1.383 5.796-1.009 6.957 3.588.309 1.22-7.447 3.498-8.351 2.594-1.675-1.678.502-5.292 1.394-6.182zM57.65 36.449c3.495-3.496 5.733 2.35 3.378 4.707-.891.889-3.404 1.169-4.307.266-.905-.905.041-4.083.929-4.973zM48.996 38.146c.973-.973 5.097-2.101 6.001-1.196s-.032 5.218-1.006 6.192c-.973.973-4.819 1.525-5.724.621-.903-.904-.244-4.644.729-5.617zM55.187 44.336c.973-.973 4.689-1.764 5.595-.859 1.677 1.677.346 4.855-.627 5.828s-4.923 1.532-5.827.628c-.905-.904-.115-4.623.859-5.597zM43.061 32.21c.973-.974 4.841-2.356 5.744-1.451.904.904-.138 5.112-1.111 6.085s-4.685 1.771-5.588.866c-.905-.903-.018-4.527.955-5.5zM31.267 20.572c.973-.973 3.656-1.423 4.561-.519s.454 3.588-.519 4.561c-.974.973-4.344 2.111-5.249 1.207-.905-.904.234-4.277 1.207-5.249zM38.056 20.637c.888-.889 6.508.761 5.617 1.651-.889.889-4.68 2.447-5.584 1.542s-.924-2.303-.033-3.193zM45.343 24.32c1.163-1.161 6.223-1.399 6.667 1.848.172 1.246-6.388 4.154-7.291 3.25-.906-.904-.265-4.208.624-5.098zM37.088 26.237c.973-.973 4.73-1.836 5.635-.932s.153 4.773-.82 5.747c-.973.972-4.732 1.614-5.636.71-.905-.905-.153-4.552.821-5.525z"/></g></g></g><g fill="#84B234"><path d="M21.91 18.431c3.731 3.732 4.512 6.07 3.551 7.031-.96.96-3.298.179-7.029-3.552s-6.482-9.96-6.482-9.96 6.228 2.749 9.96 6.481z"/><path d="M25.719 31.508c3.302-2.652 3.783-4.798 2.672-6.076-1.11-1.278-3.392-1.206-6.695 1.447-3.302 2.652-5.267 8.159-5.267 8.159s5.986-.878 9.29-3.53z"/><path d="M21.385 24.163c4.657-.046 6.887 1.182 7.234 2.717.351 1.536-1.313 2.8-5.968 2.846-4.657.044-10.892-2.684-10.892-2.684s4.97-2.835 9.626-2.879z"/><path d="M20.91 20.394c4.774 1.292 6.702 3.031 6.62 4.51-.081 1.479-2.145 2.14-6.919.848-4.773-1.293-10.368-5.526-10.368-5.526s5.893-1.124 10.667.168z"/><g><path d="M31.509 25.717c-2.652 3.303-4.799 3.783-6.075 2.673-1.279-1.111-1.206-3.393 1.445-6.696 2.653-3.303 8.159-5.266 8.159-5.266s-.877 5.987-3.529 9.289z"/><path d="M24.163 21.385c-.046 4.656 1.182 6.885 2.718 7.234 1.535.35 2.801-1.313 2.846-5.969.044-4.657-2.684-10.892-2.684-10.892s-2.835 4.971-2.88 9.627z"/><path d="M20.396 20.909c1.291 4.775 3.029 6.703 4.51 6.621 1.479-.083 2.139-2.145.848-6.919-1.295-4.775-5.527-10.37-5.527-10.37s-1.123 5.894.169 10.668z"/></g></g><path fill="#8CC63E" d="M29.788 22.538c-1.119-2.154-3.348-3.82-3.348-3.82s-.758 1.684-1.186 3.634c-2.123-.919-5.643-2.74-5.643-2.74s1.82 3.521 2.741 5.643c-1.951.428-3.634 1.185-3.634 1.185s1.666 2.228 3.819 3.347c-1.649 2.323-2.462 5.478-2.462 5.478s6.226-1.841 9.785-5.402c3.562-3.562 5.403-9.787 5.403-9.787s-3.152.813-5.475 2.462z"/></svg>