<svg xmlns="http://www.w3.org/2000/svg" width="64" height="64" viewBox="0 0 64 64"><path fill="#CED74D" d="M47.574 27.752c-3.767-6.16-3.546-16.682-13.394-16.692-9.862-.01-8.874 10.532-12.615 16.692-2.73 4.499-8.233 10.616-8.224 17.23.028 22.69 42.52 22.69 42.492 0-.008-6.622-5.5-12.721-8.259-17.23z"/><path fill="#947151" d="M35.169 2.077c-.124-.271-1.145.245-1.046.526 1.666 4.72-.376 8.33-.863 8.816-.683.682.897 1.338 1.608.351.149-.205 2.455-4.986.301-9.693z"/><path fill-rule="evenodd" clip-rule="evenodd" fill="#8CC63E" d="M21.167 5.234C16.591 10.719 9 13.078 9 13.078s15.468 3.828 23.642-4.091c2.309-2.238 1.922-6.021 1.922-6.021S25.803-.32 21.167 5.234z"/><path fill="#7FB539" d="M34.563 2.966a17.6 17.6 0 0 0-3.305.363 18.78 18.78 0 0 0-3.409 1.105c-2.25.968-4.211 2.324-6.152 3.555-1.933 1.253-3.937 2.397-6.085 3.261-2.146.867-4.387 1.426-6.612 1.828a26.484 26.484 0 0 0 3.322-.443 26.687 26.687 0 0 0 3.406-.958c2.277-.799 4.422-2.008 6.387-3.268 1.969-1.267 3.841-2.576 5.918-3.578 2.071-1.009 4.331-1.589 6.53-1.865z"/></svg>