<svg xmlns="http://www.w3.org/2000/svg" width="64" height="64" viewBox="0 0 64 64"><path fill="#E6EDED" d="M57.111 36.222c1.203-4.322-3.473-10.586-6.02-12.143-.764-10.084-6.643-10.968-6.643-10.968-6.498-14.814-18.4-14.814-24.898 0 0 0-5.879.883-6.643 10.968-2.548 1.557-7.224 7.821-6.021 12.143-5.572 3.85-6.238 14.266-2.721 15.209-2.201 11.428 57.864 11.428 55.663 0 3.524-.944 2.858-11.36-2.717-15.209z"/><g fill="#D2D8D9"><path d="M50.381 34.977c-7.458-1.872-9.171 3.522-1.695 5.508 7.516 2.008 9.198-3.629 1.695-5.508zM54.841 47.024c-5.499-5.371-9.694-1.574-4.235 3.904 5.482 5.521 9.773 1.498 4.235-3.904zM42.629 24.808c-3.144 7.019 1.87 9.643 5.127 2.628 3.289-7.049-1.97-9.69-5.127-2.628zM37.013 17.134c-7.082-2.992-9.6 2.077-2.518 5.185 7.119 3.135 9.644-2.177 2.518-5.185zM30.099 6.611c-7.187 2.735-5.504 8.136 1.765 5.486 7.312-2.658 5.462-8.243-1.765-5.486zM22.236 19.767c-6.548-4.023-9.802.608-3.268 4.746 6.57 4.172 9.866-.703 3.268-4.746zM30.273 27.521c-7.392 2.119-6.166 7.646 1.299 5.617 7.507-2.034 6.137-7.754-1.299-5.617zM12.479 30.964c-6.847 3.5-4.584 8.686 2.348 5.262 6.981-3.438 4.539-8.789-2.348-5.262zM11.23 45.957c-7.359-2.229-9.327 3.075-1.957 5.419 7.41 2.368 9.362-3.184 1.957-5.419z"/></g><path fill="#334037" d="M47.001 59.847c0 2.871-30 2.871-30 0V36.001h30v23.846z"/><g fill="#3F4F44"><path d="M20.619 47.14l-.998 1.547.998 1.548 1-1.547zM32.001 47.14l-1 1.547 1 1.548 1-1.547zM43.384 47.14l-1 1.547 1 1.548.998-1.547zM20.619 37.796l-.998 1.547.998 1.551 1-1.549zM32.001 37.796l-1 1.547 1 1.551 1-1.549zM43.384 37.796l-1 1.547 1 1.551.998-1.549z"/><g><path d="M20.619 56.483l-.998 1.547.998 1.549 1-1.547zM32.001 56.483l-1 1.547 1 1.549 1-1.547zM43.384 56.483l-1 1.547 1 1.549.998-1.547z"/></g><g><path d="M37.692 51.812l-1 1.546 1 1.549 1-1.547zM26.31 51.812l-.998 1.546.998 1.549 1-1.547z"/></g><g><path d="M37.692 42.468l-1 1.547 1 1.548 1-1.546zM26.31 42.468l-.998 1.547.998 1.548 1-1.546z"/></g></g></svg>