<svg xmlns="http://www.w3.org/2000/svg" width="64" height="64" viewBox="0 0 64 64"><path fill="#62727A" d="M62 34.1c0 16.328-13.432 24.986-30 24.986-16.569 0-30-8.658-30-24.986 0-11.085 13.433-15.156 30-15.156 16.568 0 30 4.07 30 15.156z"/><path fill="#E6EDED" d="M57.292 26.089c2.937-7.174-2.901-4.941-1.593-7.406 2.051-3.861-4.571-9.232-6.943-8.642-.688-4.475-6.248-7.601-12.965-5.577-1.41-3.458-18.983-4.596-20.547 5.577-2.372-.591-8.994 4.78-6.944 8.642 1.311 2.465-4.527.232-1.592 7.406-1.749 1.787-2.08 9.12-1.333 9.934C9.983 41.049 21.041 44 32 44s22.016-2.951 26.625-7.979c.747-.812.416-8.145-1.333-9.932z"/><ellipse fill="#3E4347" cx="32" cy="57.576" rx="14.445" ry="4.424"/><path fill="#62727A" d="M59 26.303v5.462c0 7.528-12.088 10.852-27 10.852-14.91 0-27-3.322-27-10.852v-5.462c-1.92 2.081-3 4.655-3 7.796 0 16.328 13.431 24.986 30 24.986 16.568 0 30-8.658 30-24.986 0-3.141-1.078-5.715-3-7.796z"/><path fill="#D2D8D9" d="M51.698 28.316c-7.372-1.851-9.067 3.482-1.676 5.446 7.43 1.986 9.095-3.587 1.676-5.446zM44.049 33.205c-5.438-5.311-9.583-1.557-4.188 3.859 5.421 5.459 9.663 1.483 4.188-3.859zM46.932 18.155c-6.516 3.913-3.933 8.878 2.675 5.032 6.654-3.861 3.882-8.974-2.675-5.032zM42.386 8.495c-7.001-2.958-9.492 2.051-2.488 5.125 7.039 3.101 9.536-2.151 2.488-5.125zM25.192 4.897c-7.105 2.705-5.441 8.044 1.743 5.424 7.231-2.626 5.403-8.148-1.743-5.424zM17.374 16.61c-6.477-3.978-9.692.602-3.231 4.692 6.494 4.124 9.753-.694 3.231-4.692zM32.129 18.682c-7.309 2.095-6.099 7.558 1.281 5.552 7.424-2.01 6.067-7.667-1.281-5.552zM11.939 28.474c-6.768 3.459-4.532 8.586 2.324 5.202 6.901-3.398 4.486-8.687-2.324-5.202zM28.166 33.359c-7.273-2.203-9.221 3.041-1.935 5.359 7.328 2.341 9.258-3.146 1.935-5.359z"/></svg>