<svg xmlns="http://www.w3.org/2000/svg" width="64" height="64" viewBox="0 0 64 64"><path fill="#94989B" d="M57.977 36.58c0 8.516-11.628 15.42-25.976 15.42-14.352 0-25.975-6.904-25.975-15.42 0-8.508 11.623-15.414 25.975-15.414 14.348 0 25.976 6.906 25.976 15.414z"/><path fill="#C7D7D7" d="M62 30.861c0 10.422-13.43 18.864-30.001 18.864C15.431 49.725 2 41.283 2 30.861 2 20.446 15.431 12 31.999 12 48.57 12 62 20.446 62 30.861z"/><path fill="#BA5327" d="M56.702 29.25c0-6.927-11.059-12.553-24.701-12.553-13.641 0-24.699 5.626-24.699 12.553 0 3.924 3.54 7.428 9.083 9.731.312.346.589.996.107 2.168-.826 2.008 2.068 4.584 4.672 3.055s6.375-1.045 7.789 0 5.414 1.369 7.514 0 3.699-2.447 7.25-2.391 6.218-3.605 8.023-5.01l.003-.002c3.112-2.104 4.959-4.717 4.959-7.551z"/><path fill="#FBBF67" d="M52.426 27.963c-1.49-2.492-4.764 1.037-6.725.542-4.223-1.066-1.059 5.012.592 5.332 1.985.386 7.625-3.382 6.133-5.874zM37.537 33.83c-2.953-.088-3.395-.986-4.895.424-3.228 3.035 6.684 6.42 7.863 5.182 1.419-1.491-.016-5.52-2.968-5.606zM42.959 20.518c-3.479-.102-3.683-.676-5.448.984-3.802 3.575 1.202 7.458 2.591 6 1.67-1.754 6.334-6.882 2.857-6.984zM26.264 32.098c-2.773-.258-6.489 1.546-6.758 3.964-.266 2.416 1.423 4.178 3.381 3.588 1.954-.592 3.112-3.588 4.088-4.555.976-.968.963-2.843-.711-2.997z"/><path fill="#FFFBE9" d="M30.988 13.767c-1.323-.206-2.221 2.329-3.541 2.103-.857-.146-2.85-1.961-3.708-1.826-1.047.167-2.3 3.132-3.334 3.38-1.427.341-1.97-2.543-3.375-2.142-3.268.934-5.059 6.373-8.75 6.448-2.761.056-5.667 9.955-2.729 9.955 5.396 0 4.881 3.265 5.585 3.349.765.092.759-2.576 1.404-3.041.795-.571 3.065.472 3.781-.217.563-.539-.007-2.738.583-3.24.746-.635 2.883.68 3.75.278.508-.236.703-2.53 1.083-2.13 3.017 3.172 4.992 1.896 5.563.51.404-.981-1.367-3.538-.646-4.26.775-.777 2.707 2.68 3.667 2.222.371-.177.084-1.478.416-1.735.609-.472 2.516.963 2.959.3.348-.521-1.22-1.883-.875-2.407.418-.638 2.193.576 2.833.231.972-.524 2.037-3.673 1.815-4.848-.287-1.544-5.076-2.713-6.481-2.93z"/><path fill="#E8E1D6" d="M14.696 18.275c-1.16 1.677-1.626 3.467-1.045 3.992.583.527 1.993-.407 3.154-2.085 1.159-1.679 1.628-3.466 1.045-3.992-.581-.527-1.995.404-3.154 2.085zM18.575 27.26c-1.712-.925-3.384-1.074-3.729-.336-.348.74.76 2.088 2.472 3.015 1.713.924 3.383 1.076 3.729.336.348-.738-.757-2.09-2.472-3.015zM9.275 25.046c-1.5 1.235-2.319 2.771-1.834 3.431.222.3 1.391-.766 1.074 1.967-.204 1.76 2.1.013 3.498-1.346 3.252-3.158.76-6.939-2.738-4.052zM25.432 23.902c.82-.053-.381-2.297-1.846-3.583-1.465-1.287-3.373-1.892-3.459-1.072-.201 1.918-1.208 1.255-1.428 1.665-.399.73.536 2.255 2.081 3.401 1.546 1.147 3.123 1.484 3.519.751.127-.233-.654-1.047 1.133-1.162zM33.521 18.654c1.5-1.235 2.322-2.773 1.836-3.431-.484-.659-3.9 1.773-7.117.885-1.842-.509-3.472.553-3.485 1.382-.011.572.722 1.089 1.796 1.382-.52.871-.682 1.661-.343 2.052.533.619 2.099.014 3.499-1.349.041-.04 2.316.315 3.814-.921z"/><path fill="#699635" d="M16.848 24.443c-.595-1.886-2.366-3.179-2.366-3.179s.162 1.96.395 2.917c-1.956-.772-2.017-4.658-2.017-4.658s-1.313.874-1.193 2.355c-2.153-1.931-3.988-1.029-3.988-1.029s2.732 1.708 3.109 2.861c-1.534.132-2.429.721-2.951 2.093.002.012 3.032-1.603 5.275-.436-.885.804-.445 2.811-.445 2.811 3.585-4.223 5.939-.421 7.478-1.467-1.287-1.988-3.297-2.268-3.297-2.268zM37.598 14.26s-2.146 1.484-3.027 1.333c.512-1.258.483-2.188-.188-3.133-.009-.001-.156 3.005-1.769 4.317-.169-1.007-1.618-1.439-1.618-1.439 1.299 4.457-2.035 4.831-1.965 6.447 1.765-.241 2.723-1.713 2.723-1.713 1.432.264 2.942-.626 2.942-.626s-1.312-.634-2.011-.822c1.25-1.238 3.747.222 3.747.222s-.046-1.372-1.036-1.852c2.065-.944 2.202-2.734 2.202-2.734z"/></svg>