<svg xmlns="http://www.w3.org/2000/svg" width="64" height="64" viewBox="0 0 64 64"><g fill-rule="evenodd" clip-rule="evenodd"><path fill="#FFD170" d="M2 33.32C2 46.398 15.431 57 32 57c16.567 0 30-10.602 30-23.68C62 20.24 48.567 9.639 32 9.639 15.431 9.639 2 20.24 2 33.32zm18.925 2.188c0-3.8 4.958-6.881 11.075-6.881 6.114 0 11.073 3.081 11.073 6.881 0 3.799-4.959 6.881-11.073 6.881-6.117 0-11.075-3.082-11.075-6.881z"/><path fill="#FF4085" d="M2 26.932c0 1.914.234 3.735.693 5.449.604 2.257.979 6.232 2.346 8.089.68.922 2.162-.34 3.361-.34 2.233 0 2.616 4.857 5.272 4.857 3.984 0 2.102 3.338 7.616 3.338 2.947 0 4.227-2.732 5.745-2.732 3.817 0 3.628 5.092 7.255 5.092 3.802 0 3.604-6.021 7.063-6.021 3.375 0 4.079 3.104 6.732 3.104 2.812 0 2.106-9.201 5.226-9.201 3.593 0 5.601-1.424 6.354-2.748A17.78 17.78 0 0 0 62 26.932C62 16.35 48.566 7 32 7S2 16.35 2 26.932zm18.925.314c0-1.234 1.326-2.109 2.241-3.11.671-.733 1.186-2.647 2.227-3.182 1.915-.981 3.614 2.473 6.29 2.473 1.382 0 4.253-2.443 5.474-2.155 2.046.482 1.155 1.779 2.415 2.864 1.313 1.131 3.502 1.609 3.502 3.11 0 3.801-2.438 6.881-11.073 6.881-8.639 0-11.076-3.081-11.076-6.881z"/><path fill="#63B6E6" d="M40.511 38.859l-5.758 3.025c-.93.488-1.754-1.061-.824-1.549l5.758-3.023c.927-.49 1.751 1.059.824 1.547zM51.339 19.77l-6.148-2.14c-.992-.345-.422-2.003.57-1.657l6.15 2.14c.991.345.42 2.002-.572 1.657z"/><path fill="#9729CC" d="M17.485 33.111l-6.171 2.076c-.996.336-1.56-1.324-.564-1.658l6.171-2.077c.996-.335 1.56 1.325.564 1.659zM28.876 15.628l-6.048-2.41c-.976-.389-.333-2.018.644-1.63L29.52 14c.975.388.333 2.017-.644 1.628z"/><path fill="#FFF" d="M12.632 26.896l-5.848-2.863c-.942-.463-.177-2.039.766-1.576l5.848 2.863c.943.463.177 2.039-.766 1.576zM57.044 24.751l-6.172 2.075c-.996.334-1.56-1.324-.564-1.659l6.172-2.075c.996-.334 1.56 1.325.564 1.659z"/><path fill="#FFF080" d="M25.425 40.402l-6.508.281c-1.05.047-1.127-1.703-.078-1.75l6.508-.281c1.049-.047 1.127 1.703.078 1.75zM42.78 11.929l-6.26 1.8c-1.01.293-1.496-1.392-.487-1.683l6.26-1.802c1.011-.29 1.495 1.392.487 1.685z"/><path fill="#84E060" d="M46.587 32.824l6.49.297c1.047.047.955 1.801-.093 1.752l-6.489-.297c-1.047-.047-.955-1.801.092-1.752zM18.618 17.314l-6.297 1.652c-1.016.266-1.455-1.43-.438-1.697l6.297-1.652c1.015-.267 1.454 1.429.438 1.697z"/></g></svg>