<svg xmlns="http://www.w3.org/2000/svg" width="64" height="64" viewBox="0 0 64 64"><path fill="#F0154F" d="M18.711 13.51c0-1.828 1.658-1.828 1.658-3.655 0-1.829-.564-1.829-.564-3.657 0-.241-.008-.449-.018-.635a9.54 9.54 0 0 0-.715.51c-.442.352-.526 1.086-.933 1.473-.408.387-.638.899-1.008 1.318-.37.419-1.13.544-1.462.992-.33.447-.307 1.107-.596 1.581-.288.472-1.029.726-1.274 1.223-.243.494-.204 1.116-.402 1.633-.196.511-.672.958-.822 1.488-.147.525-.213 1.097-.313 1.639-.098.536-.208 1.098-.258 1.647-.049.539.529 1.11.529 1.663 0 .552-.183 1.09-.134 1.63.05.55-.226 1.143-.127 1.678.1.541.505 1.026.653 1.551.149.531.094 1.13.291 1.642.198.517.72.905.963 1.399.244.498 4.425 1.33 4.425-.497s1.501-1.827 1.501-3.655.207-1.828.207-3.656c0-1.826-1.279-1.826-1.279-3.654s-.322-1.83-.322-3.658z"/><path fill="#F27A52" d="M27.783 9.854c0-1.829-1.588-1.829-1.588-3.657 0-1.83 1.718-1.83 1.718-3.66a1.99 1.99 0 0 0-.036-.361c-.354.045-.704.09-1.039.176-.561.143-.977.709-1.516.896-.544.188-1.13.243-1.65.474-.523.232-.91.684-1.408.955-.499.275-1.295.108-1.766.423h-.003c-.23.153-.472.307-.708.463.01.186.018.394.018.635 0 1.828.564 1.828.564 3.657 0 1.827-1.658 1.827-1.658 3.655s.322 1.828.322 3.656 1.279 1.828 1.279 3.654c0 1.828-.207 1.828-.207 3.656s-1.501 1.828-1.501 3.655 7.679 1.827 7.679 0-.408-1.827-.408-3.655 1.353-1.828 1.353-3.656c0-1.826-.433-1.826-.433-3.654s1.102-1.828 1.102-3.656-.114-1.828-.114-3.656z"/><path fill="#FAD85C" d="M34.598 28.132c0-1.827.311-1.827.311-3.655s1.228-1.828 1.228-3.656c0-1.826-1.541-1.826-1.541-3.654s.817-1.828.817-3.656-.818-1.828-.818-3.655c0-1.829.543-1.829.543-3.657 0-1.83-.81-1.83-.81-3.66a5.57 5.57 0 0 0-.013-.377c-.189-.018-.381-.033-.574-.049C33.17 2.064 32.605 2 32.023 2s-1.139.143-1.709.188c-.479.04-.977-.113-1.455-.118-.1-.002-.201-.006-.3.011-.226.037-.454.065-.683.095.021.115.036.234.036.361 0 1.83-1.718 1.83-1.718 3.66 0 1.828 1.588 1.828 1.588 3.657 0 1.827.113 1.827.113 3.655s-1.102 1.828-1.102 3.656.433 1.828.433 3.654c0 1.828-1.353 1.828-1.353 3.656s.408 1.828.408 3.655 8.317 1.829 8.317.002z"/><path fill="#8CC63E" d="M42.672 28.132c0-1.827 1.031-1.827 1.031-3.655s-.473-1.828-.473-3.656c0-1.826.551-1.826.551-3.654s-1.4-1.828-1.4-3.656 1.293-1.828 1.293-3.655c0-1.829-.619-1.829-.619-3.657 0-.449-.015-.789-.037-1.072-.377-.201-.78-.363-1.158-.571-.498-.272-.906-.706-1.43-.938-.521-.23-1.034-.508-1.579-.695-.39-.135-.757-.377-1.144-.556a2.556 2.556 0 0 0-.453-.169c-.553-.141-1.233.188-1.805.094a13.354 13.354 0 0 0-1.135-.129c.008.119.013.243.013.377 0 1.83.81 1.83.81 3.66 0 1.828-.543 1.828-.543 3.657 0 1.827.818 1.827.818 3.655s-.817 1.828-.817 3.656 1.541 1.828 1.541 3.654c0 1.828-1.228 1.828-1.228 3.656s-.311 1.828-.311 3.655 8.075 1.826 8.075-.001z"/><path fill="#42ADE2" d="M51.635 19.1c-.05-.55.264-1.146.165-1.682-.101-.542-.419-1.051-.567-1.576-.149-.531-.2-1.103-.396-1.614-.197-.516-.73-.901-.975-1.396-.244-.497-.176-1.153-.463-1.626a19.05 19.05 0 0 0-.957-1.391c-.33-.448-.578-.99-.949-1.408-.369-.42-1.079-.564-1.486-.952-.373-.355-.717-.744-1.11-1.079-.034-.029-.065-.064-.103-.095-.44-.352-.945-.628-1.418-.943a4.246 4.246 0 0 0-.357-.212c.022.283.037.623.037 1.072 0 1.828.619 1.828.619 3.657 0 1.827-1.293 1.827-1.293 3.655s1.4 1.828 1.4 3.656-.551 1.828-.551 3.654c0 1.828.473 1.828.473 3.656s-1.031 1.828-1.031 3.655 6.961 1.001 7.206.503c.243-.494.847-.857 1.045-1.373.196-.512.141-1.117.29-1.649.148-.525.131-1.088.232-1.63.098-.535.28-1.063.33-1.612.048-.54.224-1.089.224-1.641s-.316-1.089-.365-1.629z"/><g><path fill="#E0E1E5" d="M13.872 30.553L32 62l18.128-31.447z"/><path fill="#C1C4CB" d="M52 29.668c0 .979-.834 1.771-1.865 1.771 0 0-9.125-.531-18.135-.531s-18.135.531-18.135.531c-1.03 0-1.865-.792-1.865-1.771 0-.979.834-1.771 1.865-1.771 0 0 9.125-.53 18.135-.53s18.135.53 18.135.53c1.031-.001 1.865.792 1.865 1.771z"/></g></svg>