<svg xmlns="http://www.w3.org/2000/svg" width="64" height="64" viewBox="0 0 64 64"><path fill-rule="evenodd" clip-rule="evenodd" fill="#B2C1C0" d="M62.001 32.071c.006 2.501-4.309 4.412-4.918 6.717-.633 2.39 2.148 6.185.943 8.274-1.223 2.121-5.91 1.615-7.631 3.335-1.719 1.719-1.213 6.407-3.334 7.631-2.09 1.204-5.885-1.576-8.271-.946-2.307.61-4.217 4.925-6.721 4.918-2.506-.007-4.4-4.332-6.715-4.958-2.391-.646-6.207 2.116-8.301.9-2.125-1.233-1.617-5.929-3.344-7.653-1.725-1.726-6.418-1.219-7.65-3.343-1.217-2.096 1.543-5.908.898-8.3-.623-2.313-4.951-4.21-4.957-6.717-.008-2.502 4.307-4.412 4.916-6.718.631-2.39-2.15-6.184-.945-8.273 1.223-2.121 5.91-1.616 7.631-3.335 1.719-1.72 1.213-6.408 3.334-7.63 2.09-1.205 5.885 1.575 8.273.943 2.308-.608 4.218-4.923 6.72-4.916 2.508.007 4.402 4.333 6.717 4.958 2.389.646 6.203-2.114 8.299-.898 2.125 1.232 1.617 5.928 3.344 7.653 1.727 1.725 6.418 1.219 7.652 3.342 1.217 2.095-1.545 5.91-.898 8.3.624 2.313 4.95 4.209 4.958 6.716z"/><path fill-rule="evenodd" clip-rule="evenodd" fill="#E2F0F2" d="M62.001 30.858c.006 2.401-4.309 4.234-4.918 6.446-.633 2.293 2.148 5.935.943 7.94-1.223 2.036-5.91 1.55-7.631 3.2-1.719 1.649-1.213 6.148-3.334 7.323-2.09 1.155-5.885-1.513-8.271-.907-2.307.585-4.217 4.726-6.721 4.719-2.506-.007-4.4-4.157-6.715-4.758-2.391-.619-6.207 2.03-8.301.863-2.125-1.184-1.617-5.688-3.344-7.344-1.725-1.656-6.418-1.17-7.65-3.208-1.217-2.011 1.543-5.671.898-7.966-.623-2.22-4.951-4.04-4.957-6.445-.008-2.402 4.307-4.234 4.916-6.447.631-2.292-2.15-5.934-.945-7.939 1.223-2.035 5.91-1.551 7.631-3.2 1.719-1.65 1.213-6.149 3.334-7.322 2.09-1.156 5.885 1.512 8.273.905 2.308-.584 4.218-4.724 6.72-4.718 2.508.007 4.402 4.158 6.717 4.758 2.389.62 6.203-2.028 8.299-.861 2.125 1.183 1.617 5.688 3.344 7.344s6.418 1.17 7.652 3.208c1.217 2.009-1.545 5.671-.898 7.964.624 2.22 4.95 4.04 4.958 6.445z"/><path fill="#FC97B2" d="M51.06 37.872a19.162 19.162 0 0 1-4.933 8.069c-2.325 2.288-5.328 3.983-8.59 4.799-6.504 1.681-14.005-.21-18.783-5.14-2.404-2.431-4-5.596-4.681-8.839-.685-3.258-.494-6.585.356-9.664a20.812 20.812 0 0 1 4.506-8.323 16.168 16.168 0 0 1 8.208-5.069c3.222-.815 6.807-.609 9.996.801 3.163 1.376 6.023 3.933 7.444 7.376 1.44 3.394 1.427 7.407-.127 10.837a13.215 13.215 0 0 1-3.294 4.526c-1.53 1.366-3.347 2.216-5.291 2.622-1.938.373-3.966.261-5.828-.371-1.859-.627-3.561-1.726-4.835-3.184a9.503 9.503 0 0 1-2.364-5.481 9.194 9.194 0 0 1 1.372-5.653 8.774 8.774 0 0 1 1.883-2.15 7.362 7.362 0 0 1 2.671-1.389c1.897-.55 3.952-.269 5.563.697.807.481 1.505 1.095 2.04 1.846.557.782.885 1.666.988 2.565.216 1.803-.584 3.582-1.892 4.548l-.354-.354c.875-1.177 1.046-2.671.614-3.856a3.574 3.574 0 0 0-.991-1.501 4.744 4.744 0 0 0-1.55-.93 4.46 4.46 0 0 0-3.323.146 3.858 3.858 0 0 0-1.24.917c-.415.459-.714.9-.949 1.412-.939 2.013-.415 4.479 1.072 5.819 1.618 1.535 3.941 2.163 6.041 1.672 1.039-.206 2.05-.739 2.816-1.376a9.165 9.165 0 0 0 2.155-2.73c1.066-2.083 1.259-4.653.47-6.937a9.225 9.225 0 0 0-1.869-3.156 13.415 13.415 0 0 0-2.977-2.444c-2.247-1.355-5.009-2.044-7.782-1.751-2.779.25-5.474 1.569-7.5 3.639-2.04 2.074-3.477 4.766-3.998 7.624-.542 2.855-.161 5.821.889 8.405 1.048 2.603 2.743 4.807 4.756 6.576 2.021 1.775 4.377 3.155 6.959 3.942 2.575.803 5.345 1.001 8.054.6a18.55 18.55 0 0 0 7.712-3.061c2.361-1.615 4.392-3.795 6.135-6.305l.451.226z"/></svg>