<svg xmlns="http://www.w3.org/2000/svg" width="64" height="64" viewBox="0 0 64 64"><path fill="#D3976E" d="M57.695 54.677L2 62V51.593l55.725-7.519zM57.757 33.184L2 40.906V29.931l55.787-7.935z"/><path fill="#FFF" d="M57.725 44.074L2 51.593V40.906l55.757-7.722z"/><path fill="#EF4D3C" d="M20.815 39.718c.188 4.39-3.544 8.441-8.327 9.092-4.774.649-8.864-2.327-9.146-6.691l17.473-2.401z"/><path fill="#FF717F" d="M18.567 40.025c.148 3.263-2.626 6.287-6.187 6.774-3.558.483-6.6-1.737-6.801-4.987l12.988-1.787z"/><path fill="#EF4D3C" d="M56.16 34.857c-.004 4.443-3.936 8.542-8.776 9.201-4.83.657-8.815-2.353-8.908-6.771l17.684-2.43z"/><path fill="#FF717F" d="M53.882 35.171c.006 3.302-2.912 6.362-6.518 6.853-3.602.493-6.564-1.757-6.622-5.046l13.14-1.807z"/><g><path fill="#EF4D3C" d="M21.192 47.624c-.184-4.35 3.589-8.452 8.441-9.118 4.857-.668 8.875 2.371 8.968 6.749l-17.409 2.369z"/><path fill="#FF717F" d="M23.423 47.32c-.128-3.231 2.68-6.271 6.275-6.763 3.601-.494 6.584 1.756 6.661 5.003l-12.936 1.76z"/></g><g><path fill="#C98659" d="M2.984 34.736l2.753 2.03 2.459-2.752-2.753-2.046zM20.764 34.223l2.708 2.035 2.523-2.758-2.712-2.046zM47.456 31.508l2.65 2.046 2.623-2.775-2.652-2.06zM25.616 30.615l2.162 1.638 2.033-2.222-2.165-1.645zM45.581 27.863l-2.08 2.234 2.129 1.639 2.079-2.224zM18.669 28.152l-2.01 2.232 2.183 1.637 2.009-2.221zM8.519 36.382l2.396 1.773 2.171-2.405-2.399-1.787zM14.341 31.305l-1.403 1.559 1.539 1.15 1.403-1.556zM30.765 32.351l1.513 1.151 1.438-1.56-1.514-1.155zM35.14 28.798l1.513 1.162 1.454-1.574-1.515-1.163zM39.686 32.094l1.502 1.15 1.457-1.56-1.504-1.154zM49.638 25.406l-1.505-1.174-1.48 1.589 1.504 1.168zM34.064 34.227l1.507 1.145 1.439-1.552-1.504-1.146zM16.084 36.711l1.528 1.139 1.403-1.545-1.528-1.14zM10.512 30.771l-1.55-1.158-1.395 1.568 1.548 1.154zM54.555 24.225l-1.493 1.587 1.496 1.168 1.49-1.583z"/></g><g><path fill="#C98659" d="M56.031 50.104l-2.584-1.965-2.569 2.66 2.58 1.951zM38.574 50.595l-2.623-1.961-2.509 2.656 2.621 1.948zM12.533 53.187l-2.679-1.948-2.415 2.637 2.675 1.937zM33.786 54.032l-2.092-1.552-1.983 2.102 2.091 1.54zM14.489 56.608l1.939-2.089-2.126-1.55-1.934 2.098zM40.472 56.342l2.007-2.092-2.077-1.551-2.006 2.099zM50.685 48.513l-2.283-1.73-2.244 2.341 2.28 1.721zM44.764 53.38l1.426-1.484-1.461-1.099-1.424 1.489zM28.78 52.386l-1.486-1.097-1.391 1.485 1.484 1.094zM24.555 55.739l-1.482-1.089-1.378 1.472 1.484 1.085zM20.084 52.631l-1.496-1.099-1.377 1.487 1.494 1.091zM10.687 58.887l1.495 1.075 1.352-1.459-1.493-1.079zM25.543 50.591l-1.493-1.102-1.389 1.493 1.491 1.099zM43.241 48.191l-1.472-1.107-1.426 1.502 1.47 1.104zM48.465 53.884l1.45 1.09 1.433-1.477-1.451-1.096zM6.039 59.971l1.343-1.46-1.502-1.078-1.341 1.461z"/></g><path fill="#8F6453" d="M62 21.577c0-4.271-17.843-8.744-21.735-8.226C23.579 15.57 2 29.931 2 29.931a25641.5 25641.5 0 0 1 52.973-6.842c1.516-.191 2.428.071 2.428 1.318 0 4.306-.02 30.311-.02 30.311L62 54.167v-32.59z"/><path fill="#724E41" d="M55.94 20.948c8.533-1.187-15.456-7.695-19.165-7.215C20.877 15.796 4.812 28.152 4.812 28.152s49.064-6.917 51.128-7.204z"/><path fill-rule="evenodd" clip-rule="evenodd" fill="#8CC63E" d="M42.283 10.009l1.924-2.692-4.399-.466-.506-4.072-2.906 1.781L32.917 2l-.972 10.994 13.103.234z"/><path fill-rule="evenodd" clip-rule="evenodd" fill="#EF4D3C" d="M39.776 18.502c-4.138 3.828-13.153 4.267-15.107 2.46-1.974-1.828-1.478-10.131 2.679-13.978 3.061-2.83 7.675-1.503 10.863 1.443 3.177 2.941 4.625 7.239 1.565 10.075z"/><g fill-rule="evenodd" clip-rule="evenodd" fill="#FFFFC4"><path d="M29.245 16.438l-.712.662.712.662.712-.662zM39.468 12.38l-.712.662.712.661.71-.661zM36.064 13.042l-.71.661.71.662.712-.662zM32.785 12.38l-.713.662.713.661.71-.661zM36.55 9.689l-.712.662.712.662.711-.662zM34.471 6.851l-.711.662.711.662.712-.662zM32.072 9.299l-.711.661.711.662.712-.662zM29.12 12.174l-.713.662.713.661.711-.661zM32.958 16.026l-.711.662.711.662.713-.662zM38.211 16.131l-.712.662.712.661.712-.661zM35.354 18.791l-.711.662.711.662.71-.662zM30.669 19.453l-.712.662.712.661.712-.661zM26.233 18.13l-.712.661.712.662.711-.662zM25.747 14.703l-.71.661.71.662.711-.662zM27.935 8.175l-.712.661.712.662.712-.662zM26.233 11.205l-.712.661.712.662.711-.662zM30.873 6.004l-.711.661.711.662.712-.662z"/></g></svg>