<svg xmlns="http://www.w3.org/2000/svg" width="64" height="64" viewBox="0 0 64 64"><path fill="#D2D8D9" d="M45.608 55.32h-27.22s.355 2.632 3.99 4.764c1.345.785 4.543 1.916 9.621 1.916 5.079 0 8.279-1.131 9.621-1.916 3.634-2.132 3.988-4.764 3.988-4.764z"/><path fill="#EFF6F7" d="M57 31.682H7s.651 11.137 7.328 20.147c2.468 3.334 8.344 8.118 17.672 8.118 9.332 0 15.206-4.784 17.673-8.118C56.349 42.818 57 31.682 57 31.682z"/><ellipse fill="#EFF6F7" cx="31.999" cy="31.732" rx="24.999" ry="9.732"/><path fill="#D2D8D9" d="M31.998 26.951c10.61 0 19.463 2.731 21.537 6.365.305-.528.463-1.074.463-1.636 0-4.418-9.849-7.999-22-7.999-12.152 0-22 3.581-22 7.999 0 .562.161 1.107.46 1.636 2.079-3.633 10.931-6.365 21.54-6.365z"/><path fill="#96B269" d="M31.998 39.682c10.61 0 19.463-2.731 21.537-6.365-2.074-3.634-10.927-6.365-21.537-6.365-10.609 0-19.461 2.731-21.54 6.365 2.079 3.633 10.931 6.365 21.54 6.365z"/><g><path fill="#4E6B20" d="M25.517 51.95l-4.29-5.627-6.16 3.487-1.32 6.443 10.449 2.141 1.321-6.444z"/><path fill="#8CC63E" d="M24.657 52.519l-3.42-6.196-6.603 2.547-2.249 6.18 10.023 3.648 2.249-6.179z"/><circle fill="#4E6B20" cx="20.361" cy="48.731" r="1.208"/><path fill="#B59267" d="M19.86 38.188h1v10h-1z"/></g><g opacity=".6" fill="#A6AEB0"><path d="M33.34 11.409C29.648 7.579 32.104 2 32.104 2s-7.752 7.374-2.855 12.458C34.914 20.341 32.104 24 32.104 24s7.023-6.583 1.236-12.591zM22.285 14.843C19.518 12.058 21.359 8 21.359 8s-5.815 5.363-2.143 9.061C23.465 21.339 21.359 24 21.359 24s5.266-4.788.926-9.157zM44.286 14.842C41.518 12.057 43.358 8 43.358 8s-5.813 5.363-2.142 9.061C45.466 21.338 43.358 24 43.358 24s5.266-4.789.928-9.158z"/></g></svg>