<svg xmlns="http://www.w3.org/2000/svg" width="64" height="64" viewBox="0 0 64 64"><path fill="#ED4C5C" d="M52 22.547c0 11.347-8.844 24.368-19.753 24.368-10.91 0-19.752-13.021-19.752-24.368C12.495 11.199 21.337 2 32.247 2 43.156 2 52 11.199 52 22.547z"/><path fill="#94989B" d="M31.546 49.137a4.834 4.834 0 0 1-.021-.133c.003.029.011.072.021.133zM31.551 49.168z"/><path fill="#B2C1C0" d="M33.026 49.168H31.55c0 1.82-.361 3.934-1.862 5.176-2.138 1.768-4.89.718-7.378.643-3.015-.092-5.559 1.193-7.74 3.192-.758.693-1.602 1.708-2.291 2.476-.785.875.252 1.924 1.058.965 1.548-1.844 2.574-3.129 4.635-4.295 2.583-1.461 4.963-.732 7.763-.58 3.207.172 6.103-1.355 7.016-4.65.198-.723.275-2.035.275-2.927z"/><path fill="#94989B" d="M31.524 49.004c-.013-.076-.009-.053 0 0z"/><g><path fill="#B2C1C0" d="M30.801 48.043h2.894a.64.64 0 0 0 0-1.273h-2.894a.64.64 0 0 0 0 1.273z"/></g><g><path fill="#ED4C5C" d="M30.059 49.955h4.34a.96.96 0 0 0 0-1.912h-4.34a.96.96 0 0 0 0 1.912z"/></g></svg>