<svg xmlns="http://www.w3.org/2000/svg" width="64" height="64" viewBox="0 0 64 64"><path fill="#333" d="M61.876 44.196l-4.392-22.105c-.965-5.144-5.388-9.037-10.715-9.087V13H17.337c-5.376-.002-9.854 3.914-10.824 9.093l-4.39 22.104c-.081.39-.129.79-.123 1.205C1.995 48.493 4.461 51 7.505 51c1.959 0 3.681-1.039 4.657-2.607l7.243-9.039a6.417 6.417 0 0 0 4.416 1.765c3.577-.002 6.48-2.949 6.48-6.591l3.5-.001c0 3.639 2.904 6.59 6.482 6.59a6.417 6.417 0 0 0 4.354-1.704l7.197 8.98C52.813 49.957 54.536 51 56.492 51c3.043 0 5.512-2.507 5.508-5.601a5.599 5.599 0 0 0-.124-1.203z"/><path fill="#94989B" d="M20.923 25.244c.701.715 1.503.505 1.781-.468l.004-3.126c-.282-.972-1.084-1.181-1.787-.465l-.718.729a1.865 1.865 0 0 0 .001 2.6l.719.73zM15.801 17.759c-.961.279-1.166 1.099-.46 1.813l.719.729a1.792 1.792 0 0 0 2.558 0l.714-.728c.705-.716.499-1.535-.455-1.817l-3.076.003zM13.753 21.186c-.703-.716-1.509-.507-1.784.466l-.004 3.126c.28.973 1.085 1.183 1.789.465l.716-.729a1.865 1.865 0 0 0 0-2.6l-.717-.728zM18.875 28.671c.954-.283 1.16-1.098.457-1.813l-.716-.73a1.794 1.794 0 0 0-2.558.001l-.718.729c-.706.717-.501 1.531.457 1.817l3.078-.004z"/><g fill="#F2B200"><path d="M49.462 23.216c-.999-.003-1.809.822-1.807 1.839-.002 1.016.807 1.839 1.805 1.838 1 .001 1.813-.822 1.813-1.841-.001-1.016-.813-1.838-1.811-1.836zM44.247 25.052c-1 0-1.81.824-1.808 1.841 0 1.015.809 1.841 1.808 1.841.998 0 1.812-.825 1.812-1.841-.003-1.017-.812-1.841-1.812-1.841zM49.293 21.374c.999 0 1.808-.825 1.81-1.839-.002-1.017-.81-1.84-1.81-1.839-1.004-.004-1.812.82-1.81 1.839 0 1.014.81 1.839 1.81 1.839zM44.078 23.211c1.001.005 1.81-.82 1.808-1.839 0-1.014-.808-1.837-1.805-1.839a1.827 1.827 0 0 0-1.813 1.841c.002 1.017.809 1.84 1.81 1.837z"/></g><g fill="#94989B"><ellipse cx="40.287" cy="34.526" rx="4.343" ry="4.416"/><path d="M23.821 30.11c-2.399 0-4.346 1.978-4.345 4.416 0 2.44 1.944 4.415 4.341 4.413 2.401.004 4.348-1.973 4.344-4.414 0-2.437-1.943-4.412-4.34-4.415z"/></g></svg>