<svg xmlns="http://www.w3.org/2000/svg" width="64" height="64" viewBox="0 0 64 64"><path fill="#287700" d="M50.407 33.36c-.523-.546-2.398.158-3.015-.283-.961-.686-.81-3.953-1.935-4.307-8.282-2.61-23.352 13.928-27.057 21.782-.468.992-.701 4.182.249 4.73l3.176-1.834-.538-.932 9.747-5.627.538.932 7.264-4.194-1.282-2.223 9.747-5.628 1.283 2.223 1.996-1.152c.325-.81.429-2.856-.173-3.487z"/><path fill="#3E4347" d="M21.825 53.452l-.538-.931 9.746-5.63.538.933zM38.835 43.625l-1.282-2.223 9.75-5.624L48.585 38z"/><path fill="#79C600" d="M44.657 24.471c-2.004-2.608-4.81-5.019-6.878-5.336-4.107-.631-13.093 5.339-13.668 9.454-.581 4.157-4.482 9.878-6.797 14.185l7.778 7.151c3.934-3.244 8.259-8.213 11.001-10.139 1.552-1.091 5.102-2.328 6.825-3.641-.384-3.778-.245-8.314 1.739-11.674z"/><path fill="#B6EF00" d="M16.497 44.387c-1.387 2.971-1.894 5.251-.78 6.612.85 1.037 3.385 2.129 4.679 1.777 1.389-.379 3.008-1.457 4.697-2.852l-7.778-7.151a31.245 31.245 0 0 0-.818 1.614zM47.13 29.277c-.207-1.341-1.173-3.115-2.473-4.806-1.984 3.36-2.123 7.896-1.738 11.675.158-.121.303-.242.427-.363 1.345-1.316 4.069-4.647 3.784-6.506zM26.481 2.389c-2.124 11.247-9.524 10.665-9.524 10.665-2.069 1.109-4.856 2.093-4.881 3.706-.025 1.618 9.091 12.535 11.184 13.699 1.378.768 12.101-1.285 13.708-2.856 1.57-1.536 2.654-6.276 2.382-8.456-.212-1.686-10.593-14.543-12.869-16.758z"/><path fill="#3E4347" d="M26.086 2.068c-.473-.149-1.142-.041-1.849.216-1.342.487-2.815 1.509-3.316 2.307-.661 1.054-.838 2.718-1.121 4.257-.192 1.047-.434 2.037-.908 2.738-.368.544-1.093 1.017-1.936 1.468 0 0 7.4.582 9.524-10.665-.193-.188-.328-.3-.394-.321z"/><g fill="#3E4347"><circle cx="34.017" cy="24.616" r="2.602"/><path d="M16.994 25.617l3.123 3.591 7.44-6.011-2.927-3.583zM12.462 20.293l3.122 3.592 7.442-6.011-2.927-3.583z"/></g><path fill="#287700" d="M23.806 13.539l.849 1.074-2.477 1.956-.848-1.074 2.476-1.956m.132-1.119l-3.727 2.943 1.835 2.323 3.727-2.942-1.835-2.324z"/><path fill="#60AA00" d="M22.37 13.405l2.081 2.636-3.25 2.566-2.081-2.636 3.25-2.566m.13-1.118l-4.499 3.553 3.068 3.886 4.5-3.554-3.069-3.885z"/><g><path fill="#287700" d="M28.282 18.836l.848 1.074-2.476 1.956-.849-1.074 2.477-1.956m.132-1.118l-3.727 2.942 1.835 2.323 3.727-2.942-1.835-2.323z"/><path fill="#60AA00" d="M26.845 18.703l2.081 2.636-3.25 2.566-2.081-2.636 3.25-2.566m.132-1.119l-4.5 3.553 3.068 3.886 4.5-3.553-3.068-3.886z"/></g><g><path fill="#287700" d="M19.458 36.454l7.562 5.137 2.132-3.316-7.329-5.21z"/><path fill="#B6EF00" d="M30.015 40.417l-.798 1.111-2.562-1.843.799-1.11 2.561 1.842m1.112-.181l-3.855-2.772-1.729 2.403 3.854 2.772 1.73-2.403z"/><path fill="#3E4347" d="M29.749 38.999l-1.961 2.727-3.362-2.418 1.962-2.727 3.361 2.418m1.111-.182l-4.654-3.348-2.892 4.02 4.654 3.349 2.892-4.021z"/></g><g><path fill="#287700" d="M16.224 41.517l6.766 4.595 1.909-2.966-6.559-4.661z"/><path fill="#B6EF00" d="M25.671 45.063l-.715.994-2.292-1.649.715-.993 2.292 1.648m.996-.163l-3.449-2.48-1.547 2.15 3.449 2.48 1.547-2.15z"/><path fill="#3E4347" d="M25.432 43.794l-1.755 2.439-3.008-2.164 1.755-2.439 3.008 2.164m.995-.162l-4.166-2.996-2.586 3.597 4.165 2.995 2.587-3.596z"/></g><path fill="#42ADE2" d="M13.91 57.52c-4.457 2.574-8.221-.151-10.347-2.143.142.935.455 1.857.957 2.726 1.766 3.058 5.831 5.271 10.377 2.646C18.07 58.918 63.94 32.67 63.94 32.67v-3.773L13.91 57.52z"/></svg>