<svg xmlns="http://www.w3.org/2000/svg" width="64" height="64" viewBox="0 0 64 64"><g fill="#F2B200"><path d="M14.08 45.563l1.827-1.786-10.108-9.879-1.828 1.784zM18.949 40.803l1.827-1.783-10.106-9.881-1.83 1.783zM13.707 26.164l10.112 9.881 1.826-1.783-10.109-9.881z"/></g><g fill="#F2B200"><path d="M32.728 58.432L18.871 44.889l-3.649 3.568L29.078 62zM37.595 53.672L23.74 40.129l-3.651 3.568 13.858 13.545zM42.464 48.918L28.608 35.375l-3.651 3.564 13.857 13.545z"/></g><g fill="#FFCE31"><path d="M18.871 44.889l-8.764-8.567-3.655 3.565 8.77 8.57zM15.012 31.598l-3.655 3.566 8.732 8.533 3.651-3.568zM19.838 26.803l-3.648 3.57 8.767 8.566 3.651-3.564z"/></g><path fill="#FFCE31" d="M7.771 34.039l-3.65 3.568L2 35.533l3.65-3.568zM12.642 29.281L8.988 32.85l-2.121-2.075 3.653-3.568zM17.511 24.527l-3.654 3.565-2.121-2.074 3.651-3.571z"/><g><path fill="#FFCE31" d="M39.324 47.984l-11.199 10.95c-3.786 3.699-9.943 3.699-13.729 0a9.348 9.348 0 0 1 .001-13.418l11.201-10.949c3.784-3.699 9.942-3.699 13.727 0a9.345 9.345 0 0 1-.001 13.417zm-21.776.61a5.06 5.06 0 0 0-.001 7.26c2.046 2.002 5.38 2.002 7.427-.002l11.202-10.949a5.054 5.054 0 0 0-.003-7.256c-2.047-2.002-5.376-2-7.423 0L17.548 48.594z"/></g><path fill="#FFCE31" d="M26.317 32.664L8.401 50.174c-1.744 1.705-1.65 3.176-1.65 3.176l2.663 2.602s1.502.09 3.245-1.613l17.916-17.512c10.182-9.953 30.675-3.439 30.675-3.439L29.807 3.02s6.693 19.691-3.49 29.644z"/><path fill="#F2B200" d="M9.165 54.057s1.782.309 3.527-1.396c2.601-2.539 10.42-9.746 18.155-17.309 10.184-9.953 30.335-3.496 30.335-3.496S44.958 19.072 30.444 33.26L9.165 54.057zM3.518 54.951l4.257 4.158c1.715-1.691 1.624-3.145 1.624-3.145l-2.66-2.605c-.001 0-1.491-.086-3.221 1.592z"/><g><path fill="#F2B200" d="M30.15 2.338c-1.913 1.871 3.589 10.279 12.289 18.781 8.698 8.506 17.302 13.883 19.213 12.016 1.915-1.869-4.318-9.566-13.02-18.068C39.934 6.564 32.063.471 30.15 2.338z"/><path fill="#333" d="M43.025 20.549c7.83 7.65 15.464 12.598 17.053 11.045 1.592-1.555-4.197-8.305-12.03-15.957C40.222 7.984 33.313 2.326 31.726 3.879c-1.593 1.555 3.469 9.016 11.299 16.67z"/></g></svg>