<svg xmlns="http://www.w3.org/2000/svg" width="64" height="64" viewBox="0 0 64 64"><path fill="#BADEDE" d="M18.902 38.785L35.805 62H2z"/><path fill="#D6EEF0" d="M18.902 38.785l4.796 6.584-4.796 6.586-4.794-6.586z"/><path fill="#BADEDE" d="M35.41 45.115L47.705 62h-24.59z"/><path fill="#D6EEF0" d="M35.41 45.115l3.488 4.787-3.487 4.789-3.489-4.789z"/><g><path fill="#44618B" d="M33.214 15.051l18.319-3.944.984 5.278-18.82 2.611z"/><path fill="#86D0BF" d="M52.263 9.184l-.001-.016 2.108-.349a.887.887 0 0 1 1.032.737c.009.055-.004.107-.009.161 1.661-.089 3.815.281 4.196 3.327.064.515.423 3.364-2.908 3.825-4.908.667-4.908.667-5.395-3.206l-.326-2.608a1.704 1.704 0 0 1 1.303-1.871z"/><path fill="#44618B" d="M54.848 9.921c-.174.229-.298.392-.546.511-.228.119-.483.159-.735.198-.418.064-.834.132-1.252.2-.317.052-.24.554.078.502.429-.07.857-.136 1.282-.203.295-.049.592-.108.859-.248.304-.153.517-.398.72-.665.196-.255-.207-.552-.406-.295z"/><path fill="#B6EF00" d="M62 56.354c0 7.117-9.276 7.119-9.275 0V19.258c0-7.119 9.275-7.119 9.275 0v37.096z"/><path fill="#3E4347" d="M55.863 36.598l.015-6.301-8.087.019-2.122-2.775-8.135 12.544v-.037l2.446 3.338c1.582 2.135 3.064 2.988 4.82 2.982l10.206-.025.015-6.303-8.087.02-2.12-2.775-.705-.922c.498.172 1.01.262 1.547.262 2.253-.008 10.207-.027 10.207-.027z"/><path fill="#86D0BF" d="M55.008 46.352c-.005 1.926 1.643 3.479 3.681 3.473l.018.002.019-9.799-3.705.01-.013 6.314zM55.007 36.553c-.003 1.926 1.646 3.479 3.684 3.473h.017l.02-9.796-3.704.01-.017 6.313z"/><path fill="#44618B" d="M25.088 33.322l-11.692-4.611-2.209 4.875 11.674 4.619z"/><path fill="#44618B" d="M27.483 19.985l-6.632 11.824 2.01 6.396 9.488-16.201z"/><path fill="#86D0BF" d="M13.146 26.665l.006-.014-1.963-.865a.88.88 0 0 0-1.177.457c-.022.051-.021.105-.03.159-1.59-.499-3.77-.678-4.861 2.181-.185.483-1.21 3.158 1.911 4.435 4.601 1.869 4.601 1.869 5.993-1.765l.939-2.449a1.72 1.72 0 0 0-.818-2.139z"/><path fill="#44618B" d="M10.463 26.734c.114.266.198.456.409.632.192.173.432.276.666.375.39.166.778.337 1.166.507.297.129.103.596-.195.467-.397-.175-.799-.346-1.194-.517-.275-.122-.549-.253-.774-.454-.259-.225-.407-.515-.539-.823-.132-.296.33-.484.461-.187zM47.705 27.308l-9.357 13.913-13.942-11.754c-.915-.941-1.09-2.133-.186-3.061l9.807-10.088c.903-.929 2.373-.919 3.289.021l10.389 10.969z"/><path fill="#86D0BF" d="M45.072 31.221l-16.861 1.453-7.77-6.466 22.842-3.568 4.422 4.668z"/><path fill="#44618B" d="M32.928 24.149l-1.094 1.126 9.057 9.229 1.536-1.797z"/><path fill="#86D0BF" d="M52.036 30.229h3.843v6.724h-3.843zM52.036 40.025h3.844v6.725h-3.844z"/><ellipse fill="#44618B" cx="54.81" cy="32.067" rx=".859" ry=".879"/><ellipse fill="#44618B" cx="54.81" cy="41.865" rx=".859" ry=".879"/><path fill="#44618B" d="M58.12 30.23h.605v19.59h-.605z"/><g fill="#44618B"><path d="M55.133 37.463l-.748-.395s-.347-1.064.321-2.045l.913.219c-.687 1.153-.486 2.221-.486 2.221z"/><path d="M55.799 38.713l-.791-.805s-.192-.975.475-1.957l.913.221c-.689 1.15-.597 2.541-.597 2.541z"/></g><g fill="#44618B"><path d="M55.133 47.348l-.748-.396s-.346-1.064.321-2.047l.913.221c-.687 1.149-.486 2.222-.486 2.222z"/><path d="M55.799 48.596l-.792-.805s-.191-.975.476-1.955l.913.221c-.689 1.15-.597 2.539-.597 2.539z"/></g><g><path fill="#FFDD67" d="M33.156 9.372c-6.901-6.364-6.99.207-11.266 4.582-4.272 4.374-10.875 4.323-4.654 11.383 0 0 2.74 2.824 4.022 1.681 4.368 3.435 7.677 1.68 11.355-2.087 3.68-3.767 5.399-7.157 2.043-11.627 1.115-1.311-1.5-3.932-1.5-3.932z"/><path fill="#594640" d="M26.735 24.113c.936.958 2.873.579 4.298-.88 1.424-1.456 1.795-3.441.861-4.398 0 0-1.289 1.489-2.499 2.725a70.146 70.146 0 0 1-2.66 2.553z"/><path fill="#86D0BF" d="M17.583 3.338c1.732 1.786 1.733 4.678-.002 6.461a4.356 4.356 0 0 1-6.283-.001c-1.731-1.785-1.731-4.677.001-6.462a4.36 4.36 0 0 1 6.284.002z"/><path fill="#44618B" d="M29.749 4.843c3.742 3.848-3.239 4.414-7.903 9.167-4.667 4.756-5.249 11.899-8.988 8.051-3.743-3.849-2.993-10.825 1.67-15.58 4.665-4.753 11.48-5.488 15.221-1.638z"/><path fill="#86D0BF" d="M32.283 8.499a81.84 81.84 0 0 0-15.922 15.963c-.887 1.193-4.701-1.077-3.711-2.407A88.635 88.635 0 0 1 29.882 4.778c1.329-.993 3.592 2.832 2.401 3.721z"/><path fill="#79C600" d="M29.183 8.799c-1.903 0-4.104 1.624-7.512 5.031s-5.031 5.609-5.031 7.512c0 2.38 2.954 4.98 5.218 4.98 1.684 0 6.188-4.487 4.539-6.136-.833-.833-1.7-1.461-.766-2.396s1.563-.067 2.396.765c1.648 1.649 6.136-2.855 6.136-4.538 0-2.264-2.6-5.218-4.98-5.218z"/><g fill="#3E4347"><path d="M15.874 24.181l.988-.987 2.446 2.448-.987.987zM31.203 9.19l.986-.986 2.45 2.447-.987.987z"/></g><path fill="#B6EF00" d="M21.671 13.83c-.469.468-.899.912-1.301 1.336v10.832c.504.205 1.011.325 1.487.325.174 0 .379-.05.604-.138V13.053c-.257.249-.519.505-.79.777zM29.183 8.799c-.497 0-1.018.114-1.572.339v8.991c.135.137.272.282.417.426.416.417 1.014.439 1.674.216V8.848a3.163 3.163 0 0 0-.519-.049z"/><path fill="#3E4347" d="M32.649 17.26c-1.507 1.506-3.701 2.829-4.929 1.602a20.686 20.686 0 0 1-.256-.262c-.389-.4-.756-.779-1.041-.781-.138-.001-.301.092-.487.278-.186.186-.278.35-.277.487.002.285.38.652.78 1.041.087.083.175.169.263.256 1.228 1.228-.096 3.422-1.602 4.928-.941.941-2.287 1.946-3.243 1.946-1.192 0-2.595-.64-3.752-1.712-1.206-1.12-1.898-2.469-1.898-3.7 0-1.94 1.397-4.059 5.158-7.819 3.76-3.76 5.878-5.157 7.818-5.158 1.23 0 2.58.692 3.699 1.898 1.072 1.157 1.713 2.56 1.713 3.752.001.957-1.005 2.302-1.946 3.244zm-7.324.224c.36-.36.722-.535 1.105-.531.646.005 1.136.509 1.654 1.043l.249.252c.689.69 2.385-.283 3.703-1.601 1.112-1.112 1.693-2.165 1.693-2.631 0-.965-.567-2.178-1.482-3.163-.942-1.016-2.087-1.622-3.065-1.622-1.656 0-3.677 1.375-7.206 4.904s-4.904 5.55-4.904 7.207c0 .978.606 2.123 1.622 3.065.985.915 2.198 1.482 3.163 1.482.467 0 1.52-.581 2.631-1.693 1.318-1.318 2.291-3.014 1.602-3.704l-.253-.249c-.534-.519-1.038-1.008-1.043-1.655-.004-.381.171-.743.531-1.104z"/></g></g></svg>