<svg xmlns="http://www.w3.org/2000/svg" width="64" height="64" viewBox="0 0 64 64"><path fill="#FFE1BD" d="M30.134 15.833l2.45-2.021 1.702 9.363-6.047 1.1z"/><path fill="#E6B796" d="M26.848 20.879c1.98.773 1.392 3.396 1.392 3.396 2.48-.45 3.321-5.617 2.778-8.603l-4.17 5.207z"/><path fill="#FFE1BD" d="M29.727 3.269L19.595 8.982c-.914 2.758.261 3.914.409 5.007.066.485-.748 1.541-1.182 2.095-.966 1.237 1.115 1.716 1.809 1.434.653.994-.585 1.862 2.51.651 0 0-3.046 2.009-.585 2.218.001 1.34.219 3.85 6.503.068 1.868-1.124 1.959-4.782 1.959-4.782l3.276-1.206-4.567-11.198z"/><path fill="#594640" d="M21.893 3.748c6.672-3.656 11.216-.677 12.189.837 2.59 4.025 1.926 9.156-.738 13.408 0 0-1.681-.376-2.326-2.32 0 0 1.905.472 2.007-3.4.085-3.291-3.57-4.307-4.452.314l-.452.082c-1.329-1.979-.118-5.015-2.781-5.395-2.348-.336-5.921 2.324-5.921 2.324-.955-1.244-.254-4.356 2.474-5.85z"/><path fill="#664E27" d="M22.701 13.526c.123.679-.163 1.301-.64 1.387-.477.087-.713-.439-.836-1.118-.124-.679-.088-1.255.389-1.341.477-.087.963.393 1.087 1.072z"/><path fill="#E6B796" d="M29.663 13.156c-.241-1.326.656-2.664 1.761-2.865 0 0-1.615 1.907-.743 3.946 0 0-.851-.162-1.018-1.081z"/><path fill="#664E27" d="M24.194 17.72s-1.148 1.23-1.563 1.539c-.878.658-1.096.386-.625-.149.378-.431 1.134-.941 1.134-.941l1.054-.449z"/><g><path fill="#D3976E" d="M51.38 53.455c-.39 1.967.916 3.869 2.913 4.254l1.672-8.459c.196-.98-.458-1.936-1.457-2.127l-1.808-.344-1.32 6.676zM16.13 57.453c-1.998-.385-3.936.898-4.323 2.865l8.595 1.648c.998.189 1.967-.451 2.161-1.438l.353-1.777-6.786-1.298z"/><path fill="#3B946F" d="M49.02 28.816l-3.324-6.847c-.397-.812-1.309-1.215-2.172-1.063v-.009l-7.521.27c-1.098.033-1.954.935-1.918 2.013.036 1.076.958 1.922 2.052 1.887l6.556-.235 2.749 5.659 3.578-1.675z"/><path fill="#FFE1BD" d="M47.099 29.162l-1.825.654c-.648.233-.982.94-.741 1.58l.321.865c.173.46.591.758 1.055.805.514 1.121 1.502 2.479 3.68 1.695.36-.133 2.354-.848 1.487-3.165-1.277-3.408-1.277-3.408-3.977-2.434z"/><path fill="#E6B796" d="M46.42 33.072c1.539-.625.722-2.179.332-3.302-.059-.167-.321-.094-.264.073.321.926 1.169 2.432-.141 2.963-.16.066-.091.333.073.266z"/><path fill="#3E4347" d="M43.246 44.967l-3.598-5.469v-.006h-12.67l-8.485 5.799-2.402 12.152 6.824 1.309 1.855-9.373 8.63-4.147 5.623 5.901 12.346 2.363 1.331-6.717z"/><g><path fill="#47B892" d="M39.645 39.492l-3.929-18.298-9.803 1.817a1.967 1.967 0 0 0-1.149.585l-4.456 4.727-6.008-2.098-1.319 3.676 7.268 2.538c.862.298 1.796-.048 2.295-.755l.009.007 3.568-3.785.857 11.586h12.667z"/><path fill="#FFE1BD" d="M14.09 28.318l.815-1.731a1.227 1.227 0 0 0-.612-1.636l-.85-.39a1.275 1.275 0 0 0-1.323.162c-1.17-.438-2.844-.712-3.814 1.36-.16.342-1.052 2.234 1.225 3.273 3.351 1.532 3.351 1.532 4.559-1.038z"/></g></g></svg>