<svg xmlns="http://www.w3.org/2000/svg" width="64" height="64" viewBox="0 0 64 64"><path fill="#231F20" d="M22.555 19.904l.975 1.781h16.937l.738-1.901c0-6.814-1.586-9.702-9.126-9.772-7.619-.07-9.524 2.954-9.524 9.892z"/><path fill="#B47D56" d="M40.501 19.789c-.061.394-.141.764-.252.974-.2.374-.606.587-.606.587s.109-.762.07-1.826c-.425-6.28-.792-3.263-7.715-3.263-6.92 0-7.289-3.017-7.715 3.255-.039 1.069.07 1.834.07 1.834s-.408-.213-.606-.587c-.111-.21-.192-.58-.251-.974-.654-.171-1.497-.027-1.497 1.858 0 1.172.43 2.136 1.879 2.24.51 3.927 5.764 6.549 8.12 6.549 2.354 0 7.61-2.622 8.12-6.549 1.45-.104 1.881-1.068 1.881-2.24 0-1.885-.845-2.029-1.498-1.858z"/><circle fill="#664E27" cx="28.446" cy="21.835" r="1.453"/><circle fill="#664E27" cx="35.55" cy="21.835" r="1.454"/><path fill="#664E27" d="M34.319 26.256c-1.495 1.162-3.155 1.155-4.643 0-.18-.139-.342.103-.219.325.453.83 1.368 1.57 2.539 1.57 1.172 0 2.089-.74 2.542-1.57.122-.223-.04-.464-.219-.325z"/><path fill="#B47D56" d="M30.38 29.87v.856c0 .519-.351.938-.819 1.074h-4.845l-.003 11.05s2.514 1.408 7.287 1.408c4.767 0 7.284-1.408 7.284-1.408l.002-11.049h-4.854a1.12 1.12 0 0 1-.82-1.074v-.857H30.38z"/><g fill="#B47D56"><path d="M49.234 9.403c-1.657-.486-2.328.599-2.653 1.482a.934.934 0 0 0-.744.666l-.197.677a.938.938 0 0 0 .63 1.167l.08.023-2.693 10.928 2.892.65 2.673-10.879c.6-.068.78-.683 1.276-2.381.526-1.809-.989-2.253-1.264-2.333zM17.729 13.396a.938.938 0 0 0 .63-1.167l-.197-.677a.935.935 0 0 0-.743-.666c-.326-.884-.995-1.969-2.652-1.482-.274.08-1.79.523-1.263 2.334.494 1.698.677 2.313 1.274 2.381l2.673 10.879 2.892-.65L17.65 13.42l.079-.024z"/></g><path fill="#94989B" d="M5.484 15.376v-1.789s8.771-4.491 26.507-4.491c17.739 0 26.515 4.491 26.515 4.491v1.789s-8.775-4.492-26.515-4.492c-17.736 0-26.507 4.492-26.507 4.492z"/><path fill="#B47D56" d="M46.868 11.4a.5.5 0 0 0-.345-.615.5.5 0 0 0-.604.367l-.305 1.16.949.247.305-1.159z"/><path fill="#935E3E" d="M46.582 11.149c.077.14.131.242.134.395.008.144-.03.281-.067.421-.063.229-.123.456-.184.686-.047.175.224.246.27.07.063-.234.127-.469.188-.703.044-.163.081-.327.071-.496-.007-.188-.082-.352-.17-.514-.084-.158-.326-.016-.242.141z"/><g><path fill="#B47D56" d="M17.13 11.4a.5.5 0 0 1 .345-.615.5.5 0 0 1 .604.367l.305 1.16-.949.247-.305-1.159z"/><path fill="#935E3E" d="M17.416 11.149c-.077.14-.131.242-.134.395-.008.144.031.281.067.421.063.229.123.456.184.686.047.175-.224.246-.27.07a182.72 182.72 0 0 1-.188-.703 1.551 1.551 0 0 1-.071-.496c.007-.188.082-.352.17-.514.084-.158.326-.016.242.141z"/></g><g><path fill="#428BC1" d="M24.713 42.421v1.556-1.556z"/></g><g><path fill="#3E4347" d="M56.888 21.975l-3.719-1.369L58.283 6.4 62 7.768z"/><path fill="#3E4347" d="M52.793 23.561l-5.145-1.896L54.727 2l5.147 1.894z"/><g><path fill="#3E4347" d="M7.114 21.975l3.719-1.369L5.719 6.4 2 7.768z"/><path fill="#3E4347" d="M11.207 23.561l5.147-1.896L9.274 2 4.128 3.894z"/></g></g><path fill="#47B892" d="M46.548 24.997l-2.756-1.24-5.627 8.044h-2.932c-.362 1.465-1.672 2.553-3.233 2.553s-2.875-1.088-3.235-2.553h-2.932l-5.627-8.044-2.756 1.24 7.266 10.348-.003 8.632s2.514 1.408 7.287 1.408c4.767 0 7.284-1.408 7.284-1.408l.002-8.635 7.262-10.345z"/><g><path fill="#D3976E" d="M20.197 59.287c-1.375 0-2.49 1.209-2.49 2.701V62h7.006v-2.713h-4.516zM43.801 59.287c1.377 0 2.49 1.209 2.49 2.701V62h-7.005v-2.713h4.515z"/><path fill="#F2B200" d="M24.713 41.898v1.67-1.67z"/><path fill="#3E4347" d="M41.651 48.285l-2.392-1.796h.026l-.002-2.921s-2.518 1.51-7.284 1.51c-4.773 0-7.287-1.51-7.287-1.51v2.921h.025l-2.39 1.796c-1.531 1.161-2.143 2.248-2.143 3.532v7.47h4.507v-5.918l3.817-3.009h.025a2.655 2.655 0 0 1 1.751-.668h3.385c.866 0 1.892.78 1.892.78l3.703 2.896v5.918h4.506v-7.47c.002-1.283-.609-2.37-2.139-3.531z"/></g></svg>