<svg xmlns="http://www.w3.org/2000/svg" width="64" height="64" viewBox="0 0 64 64"><path fill="#D6EEF0" d="M0 0h64v64H0z"/><path fill="#D0D0D0" d="M28 38c-.533-1.272-1.293-2.48-2.143-3.273L7.014 17.12c-1.598-1.493-4.213-1.493-5.811 0L0 18.244V38h28z"/><g fill="#83BF4F"><path d="M.019 32c.064 0-.065 0 0 0zM50.193 34.498l.006.029c-3.237-1.41-6.801-2.242-10.414-2.266-3.61-.025-6.801.76-9.393 2.129l-.012-.029c-5.623 2.498-12.98 2.449-19.789-.129l.008.03C7.363 32.852 3.608 32.023 0 32v32h64V36.254c-4.388.563-9.222-.02-13.807-1.756z"/></g><path fill="#F9F3D9" d="M0 52h16v12H0zM48 52h16v12H48z"/><path fill="#D0D0D0" d="M0 48h18v4H0zM46 48h18v4H46zM2 55h4v2H2zM10 57h4v2h-4zM54 60h4v2h-4zM58 54h4v2h-4z"/><path fill="#F9F3D9" d="M29.688 45.77c-9.999-3.465-8.414-8.271-7.746-9.592h-2.176c-1.825 1.504-5.958 5.294 4.544 11.617 11.775 7.09.376 16.205.376 16.205h17.006c-.001 0 4.796-12.408-12.004-18.23z"/><path fill="#3E4347" d="M14 28h2v20h-2zM48 28h2v20h-2z"/><circle fill="#699635" cx="4" cy="41" r="2"/><circle fill="#699635" cx="4" cy="39" r="1"/><circle fill="#699635" cx="10" cy="41" r="2"/><circle fill="#699635" cx="7" cy="40" r="3"/><path fill="#89664C" d="M56 38h2v6h-2z"/><path fill="#699635" d="M58.6 29.24c-.88-1.654-2.318-1.654-3.199 0l-3.061 5.753c-.881 1.653.01 3.007 1.977 3.007h5.365c1.968 0 2.858-1.354 1.978-3.007L58.6 29.24z"/><path fill="#75A843" d="M58.279 25.992c-.703-1.322-1.853-1.322-2.559 0l-2.449 4.604c-.703 1.322.008 2.404 1.583 2.404h4.291c1.576 0 2.288-1.082 1.584-2.404l-2.45-4.604z"/><path fill="#83BF4F" d="M57.958 22.744c-.526-.992-1.389-.992-1.916 0l-1.838 3.452c-.528.992.006 1.804 1.188 1.804h3.216c1.183 0 1.717-.813 1.188-1.804l-1.838-3.452z"/><circle fill="#FFE62E" cx="52" cy="12" r="7"/><path fill="#FFF" d="M22 7a2 2 0 0 1-2 2H10a2 2 0 0 1 0-4h10a2 2 0 0 1 2 2z"/><path fill="#FFF" d="M26 9a2 2 0 0 1-2 2h-4a2 2 0 0 1 0-4h4a2 2 0 0 1 2 2zM40 12a2 2 0 0 1-2 2h-4a2 2 0 0 1 0-4h4a2 2 0 0 1 2 2z"/><path fill="#89664C" d="M49 22H15a4 4 0 0 0 0 8h34a4 4 0 0 0 0-8z"/><circle fill="#F9F3D9" cx="15" cy="26" r="1"/><circle fill="#F9F3D9" cx="49" cy="26" r="1"/></svg>