<svg xmlns="http://www.w3.org/2000/svg" width="64" height="64" viewBox="0 0 64 64"><path fill="#3E4347" d="M23.345 36.924c-5.492-.373-12.108-1.699-18.502-3.168-1.888-.404-4.066 9.428-2.014 10.076 12.804 4.045 26.298 2.992 31.294 2.201 1.752-.273 3.145-2.41 3.157-2.434l7.971-13.412-4.638-2.85c-7.124 8.438-13.749 9.831-17.268 9.587z"/><path fill="#ED4C5C" d="M56.473 2s-14.149 23.311-15.86 25.338l4.638 2.85L62 2h-5.527z"/><g><ellipse fill="#3E4347" cx="48.743" cy="57.02" rx="13.257" ry="4.98"/><ellipse fill="#3E4347" cx="48.743" cy="51.076" rx="13.257" ry="4.979"/><path fill="#3E4347" d="M35.485 51.076H62v5.943H35.485z"/><ellipse opacity=".5" fill="#B2C1C0" cx="48.743" cy="51.076" rx="13.257" ry="4.979"/><g><path fill="#3E4347" d="M56.473 2H62"/><path fill="#E8E8E8" d="M9.131 34.609l-1.597 10.86c8.458 1.854 16.721 1.711 22.173 1.195l1.767-12.002c-3.344 1.799-6.178 2.199-8.088 2.086-4.283-.248-9.249-1.096-14.255-2.139z"/><path fill="#B2C1C0" d="M9.239 45.807c.496.094.992.184 1.486.264l2.782-10.604c-.493-.094-.985-.182-1.483-.277L9.239 45.807zM24.153 46.98c.537-.014 1.068-.023 1.58-.049l3.618-11.293c-.608.242-1.198.449-1.757.602l-3.441 10.74zM16.118 46.732c.51.045 1.015.084 1.516.111l.77-10.6c-.501-.068-1-.135-1.509-.209l-.777 10.698zM22.142 36.65l-2.27 10.301c.518.02 1.035.039 1.539.045l2.256-10.242c-.092-.004-.193 0-.281-.006a36.84 36.84 0 0 1-1.244-.098z"/></g></g></svg>