<svg xmlns="http://www.w3.org/2000/svg" width="64" height="64" viewBox="0 0 64 64"><path fill="#B4D7EE" d="M0 0h64v64H0z"/><path opacity=".33" fill="#62727A" d="M64 33.648l-13 2.567-9.001-4.715-29.749 4.891L0 33.437V63.5h64z"/><path opacity=".33" fill="#62727A" d="M0 43.648l10 3.567L22.001 41.5l36.749 5.891L64 43.437V63.5H0z"/><path fill="#62727A" d="M55.75 49.705L45 41.214 34 23l-6.25 9.101-8.75 6.02-4.5 9.349-4.5 2.235L0 64h64z"/><path fill="#FFF" d="M34 23l-1.666 7.537 4.5 6.02-5.5-.251 8 5.694-6 3.841-5.667 12.542 1.5-9.032-11.166-2.257 12.5-4.016-2.751-10.977zM51.037 45.983L45.5 52.11l-8 6.273L49 53.688l6.75-3.983zM14.5 47.47L10 49.705l8.001 6.42zM43.9 19.558a1.575 1.575 0 0 1-.324-.951c0-.888.732-1.606 1.636-1.606.817 0 1.49.591 1.612 1.361a3.9 3.9 0 0 1 1.479-.291c1.519 0 2.821.867 3.457 2.115a1.88 1.88 0 0 1 1.452-.687c.331 0 .636.091.906.238a3.268 3.268 0 0 1 2.852-1.667c1.343 0 2.493.796 2.998 1.932.09-.015.182-.027.275-.027.97 0 1.757.772 1.757 1.726s-.787 1.725-1.757 1.725c-.258 0-.5-.057-.72-.154a3.274 3.274 0 0 1-2.554 1.227c-.02 0-.039-.006-.061-.006a1.626 1.626 0 0 1-1.575 1.195c-.223 0-.437-.045-.63-.124A2.877 2.877 0 0 1 52.21 27a2.877 2.877 0 0 1-2.563-1.562c-.42.153-.87.249-1.345.249a3.88 3.88 0 0 1-3.115-1.56 2.474 2.474 0 0 1-.763.132c-1.34 0-2.425-1.066-2.425-2.381.001-1.137.815-2.084 1.901-2.32z"/><path fill="#B4D7EE" d="M59.779 22.147c-.245 0-.475-.048-.684-.13-.571.625-1.439 1.032-2.428 1.032-.02 0-.038-.005-.06-.005-.175.578-.774 1.007-1.495 1.007-.214 0-.416-.038-.599-.104-.473.72-1.352 1.211-2.373 1.211-1.068 0-1.984-.538-2.436-1.315-.399.129-.827.21-1.278.21-1.219 0-2.293-.521-2.962-1.313-.23.065-.471.111-.726.111-.457 0-.883-.119-1.24-.32a2.099 2.099 0 0 0 2.555 1.051 3.383 3.383 0 0 0 2.692 1.313c.409 0 .8-.08 1.162-.209A2.5 2.5 0 0 0 52.125 26c.928 0 1.727-.491 2.155-1.211.167.067.352.104.544.104a1.4 1.4 0 0 0 1.361-1.006c.02 0 .036.005.053.005.899 0 1.688-.408 2.207-1.033.189.082.399.13.621.13.668 0 1.229-.415 1.434-.989-.22.092-.461.147-.721.147z"/><path fill="#FFF" d="M28.339 8.581c.282-.374.455-.831.455-1.332C28.794 6.007 27.768 5 26.503 5a2.275 2.275 0 0 0-2.257 1.905 5.47 5.47 0 0 0-2.069-.406 5.424 5.424 0 0 0-4.841 2.961 2.631 2.631 0 0 0-2.032-.962c-.464 0-.891.128-1.27.334a4.573 4.573 0 0 0-3.992-2.333 4.583 4.583 0 0 0-4.197 2.703 2.575 2.575 0 0 0-.385-.038C4.102 9.164 3 10.246 3 11.58s1.102 2.415 2.46 2.415c.36 0 .699-.08 1.007-.216a4.586 4.586 0 0 0 3.575 1.717c.028 0 .056-.008.085-.009a2.28 2.28 0 0 0 2.206 1.674c.312 0 .61-.063.882-.174A4.024 4.024 0 0 0 16.706 19a4.027 4.027 0 0 0 3.587-2.187 5.474 5.474 0 0 0 1.884.349 5.435 5.435 0 0 0 4.361-2.184c.339.11.692.185 1.067.185 1.875 0 3.395-1.492 3.395-3.333 0-1.592-1.14-2.919-2.661-3.249z"/><path fill="#B4D7EE" d="M27.127 12.181a3.8 3.8 0 0 1-1.018-.152c-.94 1.088-2.443 1.803-4.153 1.803-.633 0-1.231-.11-1.793-.288-.634 1.066-1.916 1.806-3.416 1.806-1.432 0-2.663-.675-3.322-1.662a2.518 2.518 0 0 1-.842.144c-1.011 0-1.853-.589-2.099-1.383-.029.002-.054.008-.082.008-1.387 0-2.603-.562-3.404-1.417a2.702 2.702 0 0 1-.959.177A2.702 2.702 0 0 1 5 11c.073 1.04.981 1.866 2.104 1.866.309 0 .6-.064.865-.177a4.01 4.01 0 0 0 3.074 1.417c.024 0 .048-.007.073-.008.224.795.984 1.383 1.897 1.383.267 0 .524-.052.76-.143.595.988 1.709 1.662 3.002 1.662 1.353 0 2.513-.739 3.084-1.806a4.87 4.87 0 0 0 1.621.288c1.542 0 2.9-.715 3.75-1.803.291.09.597.152.919.152 1.398 0 2.564-.931 2.851-2.169a3.59 3.59 0 0 1-1.873.519z"/></svg>