<svg xmlns="http://www.w3.org/2000/svg" width="64" height="64" viewBox="0 0 64 64"><path fill="#FBBF67" d="M49 30H36c-1.775 0-3 .885-3 2.738V64h20V34c0-2.201-1.8-4-4-4z"/><path fill="#D3976E" d="M36.2 35h-.4c-.439 0-.8.436-.8.967V64h2V35.967c0-.531-.36-.967-.8-.967zM41.2 35h-.4c-.439 0-.8.436-.8.967V64h2V35.967c0-.531-.36-.967-.8-.967z"/><path fill="#6ADBC6" d="M13 34H4c-2.2 0-4 1.799-4 4v26h13V34z"/><path fill="#FFF" d="M9.5 42c0 .549-.45 1-1 1h-3c-.55 0-1-.451-1-1v-2c0-.551.45-1 1-1h3c.55 0 1 .449 1 1v2zM9.5 50c0 .549-.45 1-1 1h-3c-.55 0-1-.451-1-1v-2c0-.551.45-1 1-1h3c.55 0 1 .449 1 1v2zM9.5 58c0 .549-.45 1-1 1h-3c-.55 0-1-.451-1-1v-2c0-.551.45-1 1-1h3c.55 0 1 .449 1 1v2z"/><path fill="#D6EEF0" d="M15 11a5.985 5.985 0 0 0-4.863 2.496A4.974 4.974 0 0 0 8 13a5 5 0 0 0-4.899 4H3a3 3 0 0 0 0 6h12a6 6 0 0 0 0-12zM36 10c.382 0 .744.078 1.08.209C37.461 7.826 39.511 6 42 6a4.99 4.99 0 0 1 4.517 2.887A3.958 3.958 0 0 1 49 8a4 4 0 0 1 0 8H36a3 3 0 0 1 0-6z"/><g><path fill="#D3976E" d="M31.586 17.857l-7.172-7.266a1.985 1.985 0 0 0-2.828 0l-7.172 7.266c-.777.788-1.414 2.344-1.414 3.459V64h20V21.316c0-1.115-.637-2.671-1.414-3.459z"/><path fill="#FFDD7D" d="M30 34c0 .549-.45 1-1 1H17c-.55 0-1-.451-1-1v-2c0-.551.45-1 1-1h12c.55 0 1 .449 1 1v2zM30 42c0 .549-.45 1-1 1H17c-.55 0-1-.451-1-1v-2c0-.551.45-1 1-1h12c.55 0 1 .449 1 1v2zM30 50c0 .549-.45 1-1 1H17c-.55 0-1-.451-1-1v-2c0-.551.45-1 1-1h12c.55 0 1 .449 1 1v2zM30 58c0 .549-.45 1-1 1H17c-.55 0-1-.451-1-1v-2c0-.551.45-1 1-1h12c.55 0 1 .449 1 1v2zM30 26c0 .549-.45 1-1 1H17c-.55 0-1-.451-1-1v-2c0-.551.45-1 1-1h12c.55 0 1 .449 1 1v2z"/></g><g><path fill="#6ADBC6" d="M60 19v-5a2 2 0 0 0-2-2h-3V1a1 1 0 1 0-2 0v11h-3a2 2 0 0 0-2 2v5c-2.2 0-4 1.799-4 4v41h20V23c0-2.201-1.8-4-4-4z"/><path fill="#FFF" d="M52.5 25c0 .549-.45 1-1 1h-3c-.55 0-1-.451-1-1v-2c0-.551.45-1 1-1h3c.55 0 1 .449 1 1v2zM60.5 25c0 .549-.45 1-1 1h-3c-.55 0-1-.451-1-1v-2c0-.551.45-1 1-1h3c.55 0 1 .449 1 1v2zM52.5 32c0 .549-.45 1-1 1h-3c-.55 0-1-.451-1-1v-2c0-.551.45-1 1-1h3c.55 0 1 .449 1 1v2zM60.5 32c0 .549-.45 1-1 1h-3c-.55 0-1-.451-1-1v-2c0-.551.45-1 1-1h3c.55 0 1 .449 1 1v2zM52.5 39c0 .549-.45 1-1 1h-3c-.55 0-1-.451-1-1v-2c0-.551.45-1 1-1h3c.55 0 1 .449 1 1v2zM60.5 39c0 .549-.45 1-1 1h-3c-.55 0-1-.451-1-1v-2c0-.551.45-1 1-1h3c.55 0 1 .449 1 1v2zM52.5 46c0 .549-.45 1-1 1h-3c-.55 0-1-.451-1-1v-2c0-.551.45-1 1-1h3c.55 0 1 .449 1 1v2zM60.5 46c0 .549-.45 1-1 1h-3c-.55 0-1-.451-1-1v-2c0-.551.45-1 1-1h3c.55 0 1 .449 1 1v2zM52.5 53c0 .549-.45 1-1 1h-3c-.55 0-1-.451-1-1v-2c0-.551.45-1 1-1h3c.55 0 1 .449 1 1v2zM60.5 53c0 .549-.45 1-1 1h-3c-.55 0-1-.451-1-1v-2c0-.551.45-1 1-1h3c.55 0 1 .449 1 1v2zM52.5 60c0 .549-.45 1-1 1h-3c-.55 0-1-.451-1-1v-2c0-.551.45-1 1-1h3c.55 0 1 .449 1 1v2zM60.5 60c0 .549-.45 1-1 1h-3c-.55 0-1-.451-1-1v-2c0-.551.45-1 1-1h3c.55 0 1 .449 1 1v2z"/></g></svg>