<svg xmlns="http://www.w3.org/2000/svg" width="64" height="64" viewBox="0 0 64 64"><path fill="#ED4C5C" d="M55.324 8.659c-6.211-6.193-20.527-11.897-34.079 1.616-8.963 8.939-12.169 20.233 0 32.372 12.172 12.138 23.496 8.937 32.454 0 13.553-13.514 7.834-27.797 1.625-33.988z"/><path fill="#FED0AC" d="M30.811 49.293L14.579 33.107s3.413 7.929-2.432 13.76c0 0-4.938 4.924-10.147 9.433.586 1.167.362 1.336 2.545 3.511 1.774 1.77 1.904 1.634 2.876 2.189 4.555-5.254 9.596-10.277 9.596-10.277 5.84-5.83 13.794-2.43 13.794-2.43z"/><path opacity=".5" fill="#D3976E" d="M7.588 61.807c3.322-3.814 6.856-7.475 8.493-9.141l8.708-9.374-4.19-4.183-9.398 8.689C9.523 49.436 5.842 52.977 2 56.3c.586 1.167.362 1.336 2.545 3.511 1.762 1.758 1.904 1.639 2.852 2.18.054-.054.106-.097.161-.149l.03-.035z"/><path fill="#D3976E" d="M5.899 61.066c.6.49.883.572 1.498.924.054-.054.106-.097.161-.149l.03-.034c3.322-3.814 6.856-7.475 8.493-9.141l8.708-9.374-2.397 1.444-16.493 16.33z"/><g fill="#3E4347"><path d="M30.811 49.293l-6.021-6.001-8.081 8.698c1.628-1.595 6.447-5.306 14.102-2.697zM14.579 33.107l6.021 6.002-8.726 8.063c1.605-1.627 5.326-6.434 2.705-14.065z"/></g><g fill="#FF8736"><circle cx="54.138" cy="54.138" r="7.862"/><path d="M59.594 51.102c-.395.776-1.969.763-3.516-.023-1.549-.791-2.484-2.058-2.088-2.829.393-.776 1.967-.763 3.514.024 1.549.789 2.486 2.056 2.09 2.828z"/></g></svg>