<svg xmlns="http://www.w3.org/2000/svg" width="64" height="64" viewBox="0 0 64 64"><path fill="#C94747" d="M39.02 38l14.769 4.083H42.54L27.03 38z"/><path fill="#F9F3D9" d="M5.048 22H27.03v38H5.048z"/><path fill="#DBB471" d="M27.03 22h11.989v16H27.03z"/><path fill="#ED4C5C" d="M21.035 8L1.052 22H27.03z"/><path fill="#D0D0D0" d="M29.028 10h2.997v8h-2.997z"/><path fill="#94989B" d="M32.025 10h1.998v9h-1.998z"/><path fill="#C94747" d="M21.035 8l21.981 14H27.03z"/><path fill="#D0D0D0" d="M28.028 8h4.996v2h-4.996z"/><path fill="#94989B" d="M33.024 8h1.999v2h-1.999z"/><path fill="#D6EEF0" d="M12.841 27.8h6.395v6.4h-6.395z"/><path fill="#89664C" d="M12.043 27v8h7.992v-8h-7.992zm7.192.8v2.8h-2.798v-2.8h2.798zm-3.597 0v2.8h-2.797v-2.8h2.797zm-2.797 6.4v-2.8h2.797v2.8h-2.797zm3.597 0v-2.8h2.798v2.8h-2.798z"/><path fill="#D6EEF0" d="M30.625 27.4h4.797v7.199h-4.797z"/><path fill="#89664C" d="M30.226 27v8h5.596v-8h-5.596zm.8.8h1.597v2.8h-1.597v-2.8zm0 6.4v-2.8h1.597v2.8h-1.597zm3.997 0h-1.6v-2.8h1.6v2.8zm0-3.6h-1.6v-2.8h1.6v2.8zM13.695 49.063h6.245v10.938h-6.245zM19.161 47.5h1.562v1.563h-1.562z"/><path fill="#594640" d="M12.135 49.063h1.561v10.938h-1.561z"/><path fill="#DBB471" d="M11.355 47.5h7.806v1.563h-7.806z"/><circle fill="#F9F3D9" cx="18.575" cy="53.75" r=".586"/><path fill="#83BF4F" d="M.052 60h51.957v4H.052z"/><path fill="#DBB471" d="M39.881 42.083H49.2V60h-9.319z"/><path fill="#F9F3D9" d="M27.03 42.083h12.851V60H27.03z"/><path fill="#ED4C5C" d="M27.03 38H5.048L0 42.083h42.54z"/><g><path fill="#D6EEF0" d="M28.258 47.841h6.395v6.4h-6.395z"/><path fill="#89664C" d="M27.459 47.042v8h7.992v-8h-7.992zm7.193.799v2.801h-2.799v-2.801h2.799zm-3.597 0v2.801h-2.797v-2.801h2.797zm-2.797 6.4v-2.799h2.797v2.799h-2.797zm3.596 0v-2.799h2.799v2.799h-2.799z"/></g><g><path fill="#D6EEF0" d="M42.143 47.442h4.797v7.199h-4.797z"/><path fill="#89664C" d="M41.742 47.042v8h5.596v-8h-5.596zm.801.799h1.598v2.801h-1.598v-2.801zm0 6.4v-2.799h1.598v2.799h-1.598zm3.998 0h-1.6v-2.799h1.6v2.799zm0-3.599h-1.6v-2.801h1.6v2.801z"/></g><g><path fill="#699635" d="M51.9 60h11.99v4H51.9z"/><path fill="#D3976E" d="M52.24 34h3.997v26H52.24z"/><path fill="#89664C" d="M56.237 34H54.75c.014.172.029.339.029.543 0 2.28-.76 2.28-.76 4.561 0 2.275.76 2.275.76 4.55 0 2.276-.76 2.276-.76 4.551 0 2.273.76 2.273.76 4.55 0 2.271-.76 2.271-.76 4.544 0 1.427.207 1.952.421 2.702h1.797V34z"/><path fill="#83BF4F" d="M53.171 2.89c-1.903 2.728-4.237-2.17-7.247 2.043s-1.449 7.853-.522 10.603c1.844 5.465-1.851 7.235.572 11.812 2.423 4.575-1.058 6.78 3.505 9.33s2.311-2.933 6.99.317c4.681 3.25 5.336-2.247 4.825-4.186-.976-3.707 1.716-4.611 2.456-7.697 1.315-5.488-3.06-8.482-1.707-13.721 1.354-5.239-3.111-16.752-8.872-8.501z"/><path fill="#699635" d="M62.043 11.391C63.061 7.462 60.8.002 57.178 0c.002.002 2.438 3.16-.999 7.15-3.439 3.99 2.938 5.986 0 9.729-2.939 3.742 2.71 7.348.527 10.228-2.74 3.616-7.004 3.083-4.466 9.978.012.029.024.052.034.08 1.032-.629 1.075-2.336 4.194-.17 4.681 3.25 5.336-2.248 4.825-4.186-.976-3.707 1.716-4.611 2.456-7.697 1.316-5.489-3.059-8.483-1.706-13.721z"/><path fill="#83BF4F" d="M57.827 11.161c-.747 0 .365-.606.365-1.354s-1.112-1.354-.365-1.354a1.354 1.354 0 1 1 0 2.708zM59.565 23.26c-1.111 0 .633-.9.633-2.01s-1.744-2.01-.633-2.01a2.01 2.01 0 0 1 0 4.02zM57.811 33.5c-.83 0 0-.671 0-1.5s-.83-1.5 0-1.5a1.5 1.5 0 0 1 0 3zM49.336 12.104c.826 0-.25.671-.25 1.5s1.076 1.5.25 1.5a1.5 1.5 0 0 1 0-3zM52.558 6.421c1.119 0-.546.909-.546 2.031s1.665 2.031.546 2.031a2.031 2.031 0 1 1 0-4.062z"/><path fill="#699635" d="M51.663 21.637c1.657 0-.653 1.344-.653 3s2.311 3 .653 3a3 3 0 0 1 0-6zM52.598 16.129c.827 0 0 .671 0 1.5s.827 1.5 0 1.5a1.5 1.5 0 1 1 0-3z"/><g><path fill="#83BF4F" d="M58.141 57.011h.39V60h-.39z"/><path fill="#C94747" d="M57.166 53.891v2.34c0 .431.35.78.781.78h.778V55.45c.001-1.137-1.559-1.559-1.559-1.559z"/><path fill="#ED4C5C" d="M59.506 53.891v2.34a.78.78 0 0 1-.78.78h-.778V55.45c-.001-1.137 1.558-1.559 1.558-1.559z"/><path fill="#83BF4F" d="M62.527 54.67h.389V60h-.389z"/><path fill="#C94747" d="M61.552 51.55v2.341c0 .431.35.779.78.779h.779v-1.56c0-1.137-1.559-1.56-1.559-1.56z"/><path fill="#ED4C5C" d="M63.891 51.55v2.341a.779.779 0 0 1-.779.779h-.779v-1.56c-.001-1.137 1.558-1.56 1.558-1.56z"/><g><path fill="#F2B200" d="M58.74 50.25v2.34c0 .432.347.78.777.78h.779v-1.56c.001-1.137-1.556-1.56-1.556-1.56z"/><path fill="#FFCE31" d="M61.077 50.25v2.34a.78.78 0 0 1-.78.78h-.779v-1.56c0-1.137 1.559-1.56 1.559-1.56z"/><path fill="#83BF4F" d="M59.714 53.37h.389V60h-.389z"/></g><g><path fill="#F2B200" d="M55.459 51.42v2.34c0 .432.351.78.78.78h.778v-1.56c.001-1.137-1.558-1.56-1.558-1.56z"/><path fill="#FFCE31" d="M57.798 51.42v2.34c0 .432-.348.78-.78.78h-.778v-1.56c-.001-1.137 1.558-1.56 1.558-1.56z"/><path fill="#83BF4F" d="M56.436 54.54h.389V60h-.389z"/></g></g><g><path fill="#83BF4F" d="M49.006 57.011h.389V60h-.389z"/><path fill="#C94747" d="M48.03 53.891v2.34c0 .431.35.78.781.78h.778V55.45c.001-1.137-1.559-1.559-1.559-1.559z"/><path fill="#ED4C5C" d="M50.369 53.891v2.34a.78.78 0 0 1-.779.78h-.778V55.45c0-1.137 1.557-1.559 1.557-1.559z"/><path fill="#83BF4F" d="M53.393 54.67h.389V60h-.389z"/><path fill="#C94747" d="M52.416 51.55v2.341c0 .431.35.779.781.779h.777v-1.56c.001-1.137-1.558-1.56-1.558-1.56z"/><path fill="#ED4C5C" d="M54.756 51.55v2.341a.78.78 0 0 1-.781.779h-.777v-1.56c-.001-1.137 1.558-1.56 1.558-1.56z"/><g><path fill="#F2B200" d="M49.604 50.25v2.34c0 .432.35.78.779.78h.779v-1.56c0-1.137-1.558-1.56-1.558-1.56z"/><path fill="#FFCE31" d="M51.942 50.25v2.34a.78.78 0 0 1-.78.78h-.779v-1.56c0-1.137 1.559-1.56 1.559-1.56z"/><path fill="#83BF4F" d="M50.578 53.37h.389V60h-.389z"/></g><g><path fill="#C94747" d="M46.325 51.42v2.34c0 .432.347.78.778.78h.779v-1.56c.001-1.137-1.557-1.56-1.557-1.56z"/><path fill="#ED4C5C" d="M48.662 51.42v2.34c0 .432-.349.78-.779.78h-.779v-1.56c0-1.137 1.558-1.56 1.558-1.56z"/><path fill="#83BF4F" d="M47.298 54.54h.39V60h-.39z"/></g></g></g></svg>