<svg xmlns="http://www.w3.org/2000/svg" width="64" height="64" viewBox="0 0 64 64"><path fill="#44618B" d="M62 40c0 5.523-4.477 10-10 10H12C6.477 50 2 45.523 2 40V10C2 4.477 6.477 0 12 0h40c5.523 0 10 4.477 10 10v30z"/><path fill="#CAD5DD" d="M49.679 26.271a2.662 2.662 0 0 1-2.665 2.662H9.229a2.662 2.662 0 0 1-2.663-2.662v-18.1a2.662 2.662 0 0 1 2.663-2.662h37.785a2.662 2.662 0 0 1 2.665 2.662v18.1z"/><path fill="#FFF" d="M49.679 28.045a2.662 2.662 0 0 1-2.665 2.662H9.229a2.662 2.662 0 0 1-2.663-2.662V9.947a2.662 2.662 0 0 1 2.663-2.664h37.785a2.663 2.663 0 0 1 2.665 2.664v18.098z"/><path fill="#333" d="M20.391 26.219h1.954l-4.04-14.447H16.27l-4.04 14.447h1.955l1.311-4.691h3.582l1.313 4.691zm-4.39-6.496l1.286-4.604 1.286 4.604h-2.572zM20.898 11.771v1.807h4.114v12.641H26.9V13.578h4.114v-1.807zM34.264 26.219V16.07l2.715 10.149h2.514l2.716-10.149v10.149h1.805V11.771h-2.523l-3.255 12.163-3.255-12.163h-2.524v14.448z"/><g fill="#2B4666"><path d="M55.25 34.436a2 2 0 0 1 2-2H62v7h-4.75a2 2 0 0 1-2-2v-3zM55.25 24a2 2 0 0 1 2-2H62v7h-4.75a2 2 0 0 1-2-2v-3zM55.25 13.564a2 2 0 0 1 2-2H62v7h-4.75a2 2 0 0 1-2-2v-3z"/></g><g fill="#42ADE2"><path d="M55.25 33.436a2 2 0 0 1 2-2H62v7h-4.75a2 2 0 0 1-2-2v-3zM55.25 22.998a2 2 0 0 1 2-2H62v7h-4.75a2 2 0 0 1-2-2v-3zM55.25 12.563a2 2 0 0 1 2-2H62v7h-4.75a2 2 0 0 1-2-2v-3z"/></g><path fill="#333" d="M40.993 37.238a2.491 2.491 0 0 1-2.492 2.492H8.988a2.491 2.491 0 0 1-2.492-2.492v-.934a2.491 2.491 0 0 1 2.492-2.492h29.513a2.491 2.491 0 0 1 2.492 2.492v.934z"/><g><path fill="#83BF4F" d="M38.578 36l6.911 28.068H2L8.911 36z"/><path fill="#699635" d="M37.007 36l5.699 25.889H4.782L10.482 36z"/><path fill="#83BF4F" d="M35.96 36l4.964 24.48H6.565L11.529 36z"/><path fill="#699635" d="M22.241 40.664l-.267 11.484c-.029 1.268-1.279 2.326-2.79 2.326-1.512 0-2.64-1.059-2.521-2.326l1.064-11.484c.083-.885 1.133-1.584 2.349-1.584l.115-2c-2.747 0-5.19 1.555-5.473 3.584l-.56 4.031h-3.195l-.471 2.539h3.313l-.685 4.914c-.418 3.021 2.194 5.646 5.87 5.646 3.675 0 6.593-2.625 6.522-5.646l-.266-11.484c-.021-.885.948-1.584 2.164-1.584s2.267.699 2.349 1.584l1.064 11.484h.001c.117 1.268-1.01 2.326-2.522 2.326l.192 3.32c3.676 0 6.288-2.625 5.869-5.646l-.684-4.914h3.313l-.47-2.539H33.33l-.56-4.031c-.282-2.029-2.726-3.584-5.473-3.584s-5.01 1.555-5.056 3.584z"/></g></svg>