<svg xmlns="http://www.w3.org/2000/svg" width="64" height="64" viewBox="0 0 64 64"><path fill="#D0D0D0" d="M32.382 4.276h3.41v6.491h-3.41z"/><path fill="#94989B" d="M35.792 4.276h2.273v6.491h-2.273z"/><path fill="#D0D0D0" d="M31.244 2h5.685v2.276h-5.685z"/><path fill="#94989B" d="M36.929 2h2.274v2.276h-2.274z"/><path fill="#ED4C5C" d="M24.236 2L2.707 14.315h43.059z"/><path fill="#F9F3D9" d="M8.809 14.315h30.855V33.36H8.809z"/><path fill="#D6EEF0" d="M20.386 19.983h7.699v7.708h-7.699z"/><path fill="#89664C" d="M19.424 19.021v9.631h9.624v-9.631h-9.624zm8.66.962v3.371h-3.369v-3.371h3.369zm-4.331 0v3.371h-3.367v-3.371h3.367zm-3.367 7.708v-3.373h3.367v3.373h-3.367zm4.33 0v-3.373h3.369v3.373h-3.369z"/><path fill="#F9F3D9" d="M6.364 40.86H52.01v19.265H6.364z"/><path fill="#D6EEF0" d="M36.875 46.64h7.699v7.706h-7.699z"/><path fill="#89664C" d="M35.914 45.676v9.634h9.624v-9.634h-9.624zm8.66.964v3.37h-3.368v-3.37h3.368zm-4.332 0v3.37h-3.367v-3.37h3.367zm-3.367 7.706v-3.37h3.367v3.37h-3.367zm4.331 0v-3.37h3.368v3.37h-3.368z"/><g><path fill="#89664C" d="M18.421 48.324h8.422v11.801h-8.422z"/><path fill="#DBB471" d="M17.58 46.64h10.107v1.685H17.58z"/><circle fill="#F9F3D9" cx="25.369" cy="53.381" r=".632"/></g><path fill="#83BF4F" d="M2 60.125h60V62H2z"/><path fill="#ED4C5C" d="M49.64 33.36H8.734L2 40.86h54.375z"/><g><path fill="#83BF4F" d="M62 56.183a2.104 2.104 0 0 0-2.103-2.104c-.239 0-.466.048-.679.122a1.56 1.56 0 0 0-2.401-.563 1.578 1.578 0 0 0-1.535-1.925c-.776 0-1.419.563-1.551 1.301a1.043 1.043 0 0 0-.671-.25c-.58 0-1.051.471-1.051 1.054v6.308h8.413a1.577 1.577 0 0 0 1.135-2.668A2.07 2.07 0 0 0 62 56.183z"/><path fill="#699635" d="M62 58.549c0-.425-.169-.808-.441-1.092.273-.353.441-.793.441-1.274a2.104 2.104 0 0 0-2.103-2.104c-.239 0-.466.048-.679.122a1.583 1.583 0 0 0-.784-.772 1.576 1.576 0 0 0-.937 1.439c0 .153.029.3.07.441a1.054 1.054 0 0 0-.465-.114c-.58 0-1.051.473-1.051 1.054 0 .397.226.741.551.919-.238.31-.387.693-.387 1.117 0 1.005.808 1.819 1.808 1.838l-.001.002h2.4c.872 0 1.578-.707 1.578-1.576zM55.809 58.777c0 .582-.471-.229-1.053-.229-.58 0-1.051.811-1.051.229a1.052 1.052 0 0 1 2.104 0zM53.479 56.974c0 .291-.235 0-.526 0-.29 0-.525.291-.525 0a.526.526 0 0 1 1.051 0z"/><path fill="#83BF4F" d="M54.376 55.394c0 .291-.234-.088-.525-.088s-.525.379-.525.088.234-.525.525-.525.525.234.525.525zM58.766 58.023c0 .394-.318-.192-.713-.192-.393 0-.711.586-.711.192a.711.711 0 1 1 1.424 0zM60.805 56.057c0 .584-.474-.335-1.058-.335-.583 0-1.057.919-1.057.335a1.057 1.057 0 0 1 2.115 0zM60.838 58.552c0 .29-.234 0-.525 0s-.525.29-.525 0c0-.291.234-.525.525-.525s.525.234.525.525zM56.138 54.343c0 .394-.319-.192-.713-.192-.393 0-.712.586-.712.192a.713.713 0 1 1 1.425 0z"/></g><g><path fill="#83BF4F" d="M11.989 56.183a2.104 2.104 0 0 0-2.103-2.104c-.239 0-.465.048-.678.122a1.56 1.56 0 0 0-2.401-.563 1.578 1.578 0 0 0-1.536-1.925c-.776 0-1.418.563-1.55 1.301a1.045 1.045 0 0 0-.671-.25c-.579 0-1.05.47-1.05 1.053v6.308h8.413a1.577 1.577 0 0 0 1.136-2.668c.272-.353.44-.793.44-1.274z"/><path fill="#699635" d="M11.989 58.549c0-.425-.169-.808-.441-1.092.273-.354.441-.793.441-1.274a2.104 2.104 0 0 0-2.103-2.104c-.239 0-.465.048-.678.122a1.583 1.583 0 0 0-.784-.772 1.576 1.576 0 0 0-.937 1.439c0 .153.029.3.069.441a1.046 1.046 0 0 0-.464-.114 1.05 1.05 0 1 0-.5 1.973c-.239.31-.387.693-.387 1.117 0 1.005.808 1.819 1.808 1.838l-.001.002h2.399c.872 0 1.578-.707 1.578-1.576zM5.798 58.777c0 .582-.471-.229-1.052-.229-.581 0-1.051.811-1.051.229a1.05 1.05 0 1 1 2.103 0zM3.468 56.974c0 .291-.235 0-.526 0-.291 0-.526.291-.526 0a.526.526 0 0 1 1.052 0z"/><path fill="#83BF4F" d="M4.366 55.394c0 .291-.234-.088-.525-.088-.292 0-.526.379-.526.088s.234-.525.526-.525a.524.524 0 0 1 .525.525zM8.755 58.023c0 .394-.319-.192-.712-.192-.393 0-.711.586-.711.192a.712.712 0 1 1 1.423 0zM10.793 56.057c0 .584-.473-.335-1.057-.335-.583 0-1.057.919-1.057.335a1.057 1.057 0 0 1 2.114 0zM10.828 58.552c0 .29-.234 0-.526 0-.291 0-.525.29-.525 0 0-.291.234-.525.525-.525a.524.524 0 0 1 .526.525zM6.127 54.343c0 .394-.319-.192-.713-.192-.393 0-.712.586-.712.192a.713.713 0 0 1 1.425 0z"/></g></svg>