<svg xmlns="http://www.w3.org/2000/svg" width="64" height="64" viewBox="0 0 64 64"><path fill="#F29A2E" d="M18.932 46.044c-.73.238-1.46.574-2.161.975s-1.369.867-1.968 1.387c-.597.518-1.127 1.092-1.53 1.693-.404.605-.67 1.232-.754 1.846-.084.612.011 1.224.305 1.843.292.618.781 1.225 1.378 1.772.299.275.618.534.967.787a13.918 13.918 0 0 0 3.396 1.82c1.633.61 3.422.948 5.243 1.211 1.825.261 3.687.454 5.544.688 1.857.232 3.716.494 5.559.814 1.845.318 3.677.693 5.495 1.118a95.489 95.489 0 0 0-5.563-.583 113.948 113.948 0 0 0-5.576-.273c-1.861-.054-3.725-.068-5.613-.153-1.886-.089-3.819-.253-5.747-.764a16.168 16.168 0 0 1-2.823-1.03 16.64 16.64 0 0 1-1.338-.709 13.09 13.09 0 0 1-1.284-.852c-.834-.633-1.64-1.404-2.254-2.406a6.473 6.473 0 0 1-.723-1.65 6.258 6.258 0 0 1-.225-1.837c.017-.615.122-1.22.288-1.786a8.894 8.894 0 0 1 .659-1.604c.531-.998 1.198-1.865 1.931-2.641a16.416 16.416 0 0 1 2.395-2.074 16.057 16.057 0 0 1 2.786-1.6l1.613 4.008z"/><ellipse fill="#999A9C" cx="44.563" cy="12.37" rx="10.437" ry="10.371"/><ellipse fill="#FFC5D3" cx="44.488" cy="13.607" rx="7.733" ry="7.687"/><ellipse fill="#999A9C" cx="19.436" cy="12.37" rx="10.436" ry="10.371"/><ellipse fill="#FFC5D3" cx="19.51" cy="13.607" rx="7.733" ry="7.687"/><path fill="#999A9C" d="M50.291 45.933c0-10.155-3.98-19.497-5.304-22.32a49.819 49.819 0 0 0-.345-.791C42.938 19.003 38.898 10.624 32 10.624c-6.897 0-10.94 8.379-12.644 12.197-.117.263-.231.524-.344.788-1.321 2.819-5.305 12.165-5.305 22.323 0 8.441 2.697 10.639 6.902 10.98.237.924 1.107 1.612 2.15 1.612h1.537c1.121 0 2.041-.796 2.189-1.825 1.74-.147 3.591-.301 5.512-.301 1.849 0 3.632.143 5.315.285.141 1.037 1.063 1.841 2.191 1.841h1.537c1.037 0 1.902-.681 2.146-1.597 4.322-.288 7.105-2.42 7.105-10.994z"/><g fill="#FFC5D3"><ellipse cx="41.707" cy="33.771" rx="3.218" ry="2.228"/><ellipse cx="22.292" cy="33.771" rx="3.216" ry="2.228"/></g><path fill="#3E4347" d="M34.886 33.765c-.579-.609-2.355-.656-2.885-.656-.531 0-2.307.047-2.885.656-.411.434-.093 1.512 1.002 2.441.692.586 1.353.771 1.883.771s1.191-.186 1.882-.771c1.096-.93 1.414-2.008 1.003-2.441z"/><ellipse fill="#FFF" cx="25.155" cy="26.72" rx="4.61" ry="4.496"/><ellipse fill="#3E4347" cx="25.155" cy="26.72" rx="3.191" ry="3.113"/><ellipse fill="#FFF" cx="38.845" cy="26.72" rx="4.612" ry="4.496"/><ellipse fill="#3E4347" cx="38.845" cy="26.72" rx="3.192" ry="3.113"/><path fill="#3E4347" d="M31.002 39.288c.059-.312.274-.549.48-.731.211-.19.454-.329.708-.446.259-.104.531-.187.825-.2.275-.017.644.015.85.271-.288.034-.478.201-.707.297-.218.117-.445.218-.672.321-.232.093-.465.189-.711.263-.241.089-.504.117-.773.225z"/></svg>