<svg xmlns="http://www.w3.org/2000/svg" width="64" height="64" viewBox="0 0 64 64"><path fill="#8CC63E" d="M61.714 24.334a20.342 20.342 0 0 0-.45-2.634c-.352-1.433-.713-2.287-1.023-2.943a10.551 10.551 0 0 0-2.316-3.18c-.896-.834-1.721-1.375-2.534-1.853-1.623-.93-3.185-1.535-4.742-2.059-3.11-1.019-6.178-1.639-9.243-2.146-6.123-.997-12.23-1.404-18.299-1.857a51.21 51.21 0 0 1-4.513-.563c-.354-.062 2.008-.92 3.227-1.26 6.024-1.626 12.097-2.605 18.174-3.234-6.081-.582-12.167-.813-18.271-.387-7.716.54-9.544 2.813-9.193 6.34.088.886.293 1.112.408 1.387.106.216.196.358.274.468.157.225.276.347.397.472.898.84 1.634 1.158 2.418 1.562a28.22 28.22 0 0 0 2.297.967c1.527.576 3.047 1.042 4.568 1.508 6.056 1.785 12.077 3.518 18.043 5.812 2.978 1.15 5.945 2.418 8.826 4.017 1.06.591-19.564 14.115-25.587 14.848l.701 19.499c6.078-2.119 12.199-4.429 18.335-7.888a57.303 57.303 0 0 0 4.604-2.896 71.783 71.783 0 0 0 4.532-3.435c1.518-1.271 3.035-2.618 4.623-4.441.802-.951 1.604-1.932 2.544-3.609.473-.914.999-1.832 1.618-4.096.295-1.127.637-2.829.705-5.089a24.656 24.656 0 0 0-.123-3.31z"/><path fill="#FFD93B" d="M50.525 27.598c-2.901-2.291-6.093-3.982-9.351-5.462-3.264-1.471-6.604-2.702-9.961-3.864-3.359-1.165-6.742-2.243-10.112-3.439-1.68-.618-3.371-1.187-5.023-2.021-.818-.428-1.635-.915-2.36-1.634a4.307 4.307 0 0 1-.921-1.338c-.234-.538-.301-1.142-.303-1.754.033.612-.187 2.539 3.698 4.222 1.63.705 3.367 1.037 5.067 1.472 3.408.83 6.835 1.545 10.262 2.353 3.426.807 6.855 1.685 10.271 2.832 3.407 1.159 6.833 2.553 10.12 4.702l-1.387 3.931zM17.962 6.416c1.866-.708 3.654-1.135 5.49-1.585a89.011 89.011 0 0 1 5.495-1.103c3.671-.615 7.357-1.006 11.046-1.122-3.677.408-7.333 1.09-10.956 1.993-1.811.452-3.615.96-5.407 1.529-1.775.576-3.607 1.18-5.277 1.957l-.391-1.669z"/><path fill="#8CC63E" d="M46.023 33.583l-2.342-4.042c4.637-2.868 5.395-5.046 5.656-6.89.252-1.765-.27-3.34-1.469-4.438l2.35-5.177c2.723 2.491 3.983 6.542 3.372 10.836-.701 4.932-3.672 8.743-7.567 9.711zM22.92 9.449c-5.342-.498-6.216-1.114-6.233-4.403l1.239-.014c.009 1.769.012 2.189 5.075 2.66l-.081 1.757z"/><path fill="#FFD93B" d="M31.714 51.501l2.374-.563a73.451 73.451 0 0 0 2.318-.623 67.088 67.088 0 0 0 4.605-1.495c3.048-1.119 6.056-2.469 8.938-4.211 2.871-1.753 5.659-3.875 7.968-6.827 1.146-1.478 2.156-3.184 2.867-5.16.716-1.967 1.094-4.222 1.049-6.523a19.72 19.72 0 0 1-.331 6.941c-.518 2.271-1.399 4.371-2.451 6.24-2.125 3.748-4.84 6.68-7.653 9.219-7.955 7.99-19.143 8.27-19.143 8.27l-.541-5.268z"/><path fill="#E8F94B" d="M2.148 50.428c.307-1.227 1.53-2.313 2.634-2.035 1.104.276 1.67 1.811 1.363 3.038-.308 1.227-1.336 1.538-2.439 1.261-1.103-.277-1.865-1.038-1.558-2.264z"/><path fill="#252728" d="M2.893 50.69c.19-.759.947-1.431 1.63-1.259.683.17 1.033 1.12.843 1.879-.189.76-.826.951-1.509.781-.683-.171-1.154-.642-.964-1.401z"/><path fill="#4B662B" d="M2 50.42c.328-1.314 1.639-2.478 2.82-2.182 1.182.297 1.789 1.941 1.461 3.256C4.407 49.891 2 50.42 2 50.42z"/><path fill="#8CC63E" d="M3.141 54.546c-.449-9.823 13.033-15.076 21.478-15.462 8.447-.387 15.316-.227 15.765 9.597.449 9.823-6.384 11.14-14.768 12.233-8.845 1.153-22.026 3.455-22.475-6.368z"/><path fill="#4B662B" d="M7.998 55.167c-.285.933-.861 1.743-1.232 1.63-.37-.113-.395-1.109-.109-2.042.285-.932.744-1.354 1.114-1.239.37.113.512.718.227 1.651zM4.81 54.26c-.021.631-.241 1.234-.484 1.227-.243-.01-.417-.628-.395-1.258.023-.63.233-.971.476-.962s.426.364.403.993z"/><path fill="#E8F94B" d="M12.934 52.299c0-2.721 2.086-5.627 4.66-5.627 2.571 0 4.658 2.906 4.658 5.627 0 2.72-2.087 3.908-4.658 3.908-2.574 0-4.66-1.188-4.66-3.908z"/><path fill="#252728" d="M14.71 52.457c0-1.684 1.291-3.48 2.883-3.48s2.883 1.797 2.883 3.48-1.291 2.418-2.883 2.418-2.883-.734-2.883-2.418z"/><path fill="#4B662B" d="M12.602 52.359c0-2.914 2.234-6.026 4.992-6.026 2.754 0 4.99 3.112 4.99 6.026-4.991-2.365-9.982 0-9.982 0z"/><g fill="#4B662B"><path d="M39.313 32.291c5.287.823 12.227 2.759 14.97 6.3 0 0-1.965-7.213-8.249-10.724-.224.182-.461.367-.717.555a139.21 139.21 0 0 1-6.004 3.869zM44 44.677s-1.398-6.974-7.065-10.96c-2.404 1.408-4.836 2.734-7.005 3.775 5.157 1.21 11.641 3.573 14.07 7.185zM47.391 26.601c4.173-.645 10.219-.174 12.851.997 0 0-3.807-4.903-10.875-5.405-.001 0-.229 2.549-1.976 4.408zM59.352 17.255a10.551 10.551 0 0 0-1.45-1.682c-.36-.335-.707-.615-1.049-.87-5.407 1.554-7.074 5.762-7.074 5.762 2.281-1.867 6.541-1.454 10.463-1.661l-.023-.052a11.323 11.323 0 0 0-.867-1.497zM22.271 12.125c.565-1.597 2.61-3.123 4.496-4.19-1.123-.085-2.245-.168-3.364-.251-1.25 2.112-1.132 4.441-1.132 4.441zM16.375 10.209c1.105-1.302 3.852-2.158 6.081-2.611a53.219 53.219 0 0 1-2.318-.271l-.017.007c-.685-.124-1.152-.266-1.479-.441-1.718 1.46-2.267 3.316-2.267 3.316zM47.686 10.817c-2.257 3.965-2.517 7.931-2.517 7.931 1.222-2.464 4.116-4.647 7.33-6.395a36.201 36.201 0 0 0-1.874-.691 47.718 47.718 0 0 0-2.939-.845zM33.404 14.617c.733-2.073 3.446-4.049 5.878-5.396-1.416-.202-2.83-.384-4.244-.538-1.799 2.744-1.634 5.934-1.634 5.934zM40.32 9.367c-1.352 3.543-1.348 6.627-1.348 6.627.885-2.14 2.966-4.163 5.444-5.92a93.196 93.196 0 0 0-3.035-.558c-.354-.057-.707-.095-1.061-.149zM27.936 13.784c.71-2.003 3.263-3.915 5.626-5.256a238.487 238.487 0 0 0-4.18-.381c-1.6 2.671-1.446 5.637-1.446 5.637zM17.57 6.552s-1.878-1.229-4.345-1.409c-.53.74-.746 1.608-.754 2.584 1.761-.848 3.658-1.45 5.099-1.175zM18.879 5.61s-.155-1.361-.91-2.914a14.32 14.32 0 0 0-1.809.493c1.191.686 2.206 1.498 2.719 2.421zM30.478 2.876s.018-.332-.015-.851c-.133-.003-.267-.003-.4-.006.174.283.317.569.415.857zM25.73 3.878s.048-.766-.119-1.843c-.342.009-.685.02-1.026.033.524.584.936 1.193 1.145 1.81zM34.912 2.583s.008-.143.006-.373a11.459 11.459 0 0 0-.185-.01c.06.127.135.254.179.383zM22.054 2.196c-.118.008-.236.012-.354.02-.338.023-.65.055-.966.084.71.706 1.271 1.455 1.528 2.214 0 .001.061-.995-.208-2.318zM32.912 2.583s.012-.179.006-.478l-.212-.008c.081.161.15.323.206.486zM28.23 3.345s.03-.541-.058-1.345c-.231 0-.463.003-.695.005.336.438.6.887.753 1.34z"/></g></svg>