<svg xmlns="http://www.w3.org/2000/svg" width="64" height="64" viewBox="0 0 64 64"><path fill="#0DCCD1" d="M35.33 45.732c.56 3.739-.474 8.726-2.604 9.195-2.129.467-4.549-3.767-5.11-7.504-.562-3.737.946-5.566 3.075-6.036 2.13-.466 4.075.608 4.639 4.345z"/><path fill="#0DCCD1" d="M54.055 11.327c-3.759 0-6.81-4.319-7.271-2.252-.514 2.307 3.52 6.746 6.045 6.746 0 0-8.615 6.19-46.699 6.19-3.503 0-3.938 4.361-3.938 4.361 11.001 10.457 27.713 30.736 44.454 18.066 7.926-5.997 9.698-24.865 9.8-27.706C61.075 15.091 62 12.482 62 9.104c0-3.43-2.299 2.223-7.945 2.223z"/><path fill="#DAE5EF" d="M2.19 26.372s-.429 3.326 0 5.984c1.264 7.873 7.487 18.427 24.88 18.427 10.796 0 12.992-1.449 17.797-4.872a15.317 15.317 0 0 0 1.776-1.473c-15.155 4.036-26.608-7.421-26.608-16.577.001-1.57-11.872-2.095-17.845-1.489z"/><path fill="#FFF" d="M45.13 45.495c-3.209 1.443-6.794 2.134-10.358 1.919a22.693 22.693 0 0 1-10.174-3.113c-3.09-1.82-5.766-4.385-7.626-7.485-1.868-3.091-2.866-6.739-2.736-10.393l1.873.097c-.266 3.293.48 6.663 2.089 9.618 1.6 2.962 4.017 5.511 6.899 7.383a21.957 21.957 0 0 0 9.712 3.435c3.474.36 7.048-.158 10.321-1.461z"/><path fill="#FFF" d="M39.031 49.346c-3.557.32-7.179.235-10.712-.478-3.527-.699-6.963-2.049-9.952-4.114-2.99-2.055-5.499-4.837-7.181-8.075-1.683-3.233-2.555-6.913-2.377-10.604l1.872.127c-.313 3.337.33 6.778 1.77 9.872 1.44 3.098 3.689 5.842 6.472 7.937 2.778 2.105 6.06 3.571 9.5 4.41 3.444.85 7.041 1.093 10.608.925z"/><path fill="#FFF" d="M28.7 50.77c-3.183-.358-6.354-1.013-9.379-2.136-3.021-1.114-5.897-2.733-8.304-4.93a21.504 21.504 0 0 1-5.52-7.972c-1.223-3.018-1.779-6.318-1.792-9.535H5.58c-.139 3.091.229 6.147 1.237 9.056a20.314 20.314 0 0 0 4.854 7.787c2.196 2.211 4.908 3.926 7.828 5.165 2.92 1.25 6.039 2.054 9.201 2.565z"/><ellipse fill="#FFF" cx="29.28" cy="26.955" rx="2.209" ry="2.348"/><path fill="#3E4347" d="M30.825 26.955c0 .905-.692 1.645-1.546 1.645-.854 0-1.546-.739-1.546-1.645 0-.91.691-1.644 1.546-1.644.854.001 1.546.734 1.546 1.644z"/><path fill="#0DCCD1" d="M26.611 28.6c.145-.011 4.105 2.773 5.403-.554.708-1.81-5.403.554-5.403.554z"/><g fill="#3E4347"><path d="M29.341 28.547c.272.057.541.079.814.115.271.035.562.093.821.253.506.368.642.971.67 1.501-.101-.254-.2-.506-.321-.738-.122-.23-.268-.445-.479-.573-.2-.146-.461-.2-.725-.27a3.09 3.09 0 0 1-.78-.288z"/><path d="M2.19 26.372a46.462 46.462 0 0 1 7.304-.719 33.847 33.847 0 0 1 7.358.606 24.979 24.979 0 0 1 6.94 2.52c1.081.549 2.126 1.189 3.267 1.37 1.149.223 2.324-.281 3.367-.884-.918.765-2.092 1.414-3.416 1.333-1.305-.115-2.423-.718-3.534-1.182-2.204-.998-4.452-1.801-6.813-2.253-2.349-.488-4.759-.695-7.176-.804-2.421-.097-4.852-.043-7.297.013z"/></g><g><path fill="#0DCCD1" d="M46.998 44.195c.718 4.782-.604 11.16-3.327 11.759-2.726.599-5.819-4.813-6.536-9.596-.719-4.778 1.21-7.118 3.933-7.717 2.724-.596 5.211.777 5.93 5.554z"/></g></svg>