<svg xmlns="http://www.w3.org/2000/svg" width="64" height="64" viewBox="0 0 64 64"><path fill="#3E4347" d="M2.265 36.112a10.027 10.027 0 0 1-.242-2.936c.086-1.153.398-2.208.929-3.134a6.301 6.301 0 0 1 2.674-2.522c1.133-.567 2.502-.79 3.801-.622 1.186.146 2.367.6 3.411 1.308.888.6 1.689 1.38 2.385 2.324 1.096 1.503 1.856 3.277 2.329 5.424l.006.031c.018.086.031.174.043.264.151 1.309-.642 2.52-1.929 2.941a3.072 3.072 0 0 1-.633.133 2.98 2.98 0 0 1-2.135-.607 2.782 2.782 0 0 1-1.073-1.885c-.161-1.379-.533-2.596-1.079-3.52-.546-.936-1.33-1.599-2.1-1.774a1.813 1.813 0 0 0-.985.031c-.366.119-.678.356-.932.705-.264.361-.452.841-.546 1.384a6.163 6.163 0 0 0-.021 1.832c.151 1.213.592 2.561 1.306 4.004.302.613.673 1.275 1.104 1.963.419.668.893 1.285 1.338 1.85 1.051 1.303 2.099 2.326 3.204 3.129 1.254.91 2.564 1.494 3.893 1.738 1.335.248 2.812.154 4.266-.277 1.189-.35 1.939.094 2.132.65.18.514-.06 1.264-1.318 1.688l-.139.049c-1.791.586-3.653.762-5.381.504-1.744-.246-3.529-.955-5.165-2.049-1.362-.908-2.649-2.063-3.931-3.531a33.04 33.04 0 0 1-1.398-1.727l-.206-.268a25.995 25.995 0 0 1-1.483-2.141c-1.079-1.756-1.753-3.33-2.125-4.959z"/><g fill="#3E4347"><path d="M46.732 55.942c1.766 2.256 9.703.047 10.988-2.555 5.24-10.617-.006-15.207-.006-15.207l-10.982 1.471s-2.253 13.411 0 16.291zM31.818 55.942c-1.767 2.256-9.705.047-10.989-2.555-5.242-10.617.004-15.207.004-15.207l10.985 1.471s2.252 13.411 0 16.291z"/></g><g fill="#FFF"><path d="M34.541 55.204c-.096 1.051-2.6 1.699-5.596 1.445-2.996-.252-5.348-1.309-5.253-2.361.096-1.051 2.42.293 5.416.547 2.997.252 5.529-.684 5.433.369zM44.008 55.204c.094 1.051 2.6 1.699 5.596 1.445 2.996-.252 5.348-1.309 5.252-2.361-.094-1.051-2.42.293-5.416.547-2.997.252-5.528-.684-5.432.369z"/></g><path fill="#4C5359" d="M39.24 60.376c1.957 2.232 8.941 2.092 11.063 0 3.037-2.994 2.908-16.652 3.037-23.313L40.352 36.01c0 .001-3.606 21.52-1.112 24.366z"/><path fill="#4C5359" d="M39.309 60.376c-1.955 2.232-8.944 2.092-11.063 0-3.038-2.994-2.909-16.652-3.038-23.313l12.99-1.053c-.001.001 3.605 21.52 1.111 24.366z"/><path fill="#FFF" d="M33.979 43.749l5.294 11.125 5.297-11.125z"/><path fill="#4C5359" d="M59.904 2.199C57.49.771 45.105 7.27 42.613 11.692l17.91 10.592c2.387-4.234 1.659-18.738-.619-20.085z"/><path fill="#F7A4A4" d="M56.17 8.824c-.889-.526-8.205 2.777-9.582 5.219l9.961 5.89c1.318-2.337.437-10.628-.379-11.109z"/><path fill="#4C5359" d="M18.732 2.187c-2.415 1.428-3.113 15.665-.621 20.085L36.023 11.68C33.635 7.446 21.009.84 18.732 2.187z"/><path fill="#F7A4A4" d="M22.465 8.812c-.89.525-1.755 8.668-.379 11.11l9.96-5.891c-1.317-2.337-8.767-5.7-9.581-5.219z"/><path fill="#4C5359" d="M39.273 9.419c-20.773 0-22.725 14.531-22.725 22.728C16.548 35.509 26.725 46 39.273 46 51.822 45.999 62 35.509 62 32.146c0-8.196-1.951-22.727-22.727-22.727z"/><path fill="#BFFFAB" d="M33.467 28.546s-2.363 3.601-6.77 2.457c-4.406-1.145-4.594-5.406-4.594-5.406s2.361-3.599 6.769-2.456c4.407 1.144 4.595 5.405 4.595 5.405z"/><path fill="#93E67F" d="M33.016 26.702s-2.099 2.265-4.979 2.265c-3.124 0-4.979-4.425-4.979-4.425s2.056-2.352 5.815-1.403c3.445.867 4.143 3.563 4.143 3.563z"/><path fill="#4C5359" d="M29.813 26.649c0 4.926-2.434 4.926-2.434 0 0-4.928 2.434-4.928 2.434 0z"/><g><path fill="#BFFFAB" d="M45.082 28.546s2.361 3.601 6.77 2.457c4.406-1.145 4.594-5.406 4.594-5.406s-2.361-3.599-6.77-2.456c-4.406 1.144-4.594 5.405-4.594 5.405z"/><path fill="#93E67F" d="M45.533 26.702s2.1 2.265 4.977 2.265c3.125 0 4.98-4.425 4.98-4.425s-2.055-2.352-5.816-1.403c-3.444.867-4.141 3.563-4.141 3.563z"/><path fill="#4C5359" d="M48.734 26.649c0 4.926 2.436 4.926 2.436 0 0-4.928-2.436-4.928-2.436 0z"/></g><path fill="#FFF" d="M45.908 32.51c-1.98-1.504-4.17-6.486-6.635-6.486s-4.654 4.982-6.634 6.486c-3.137 2.384-11.497 5.085-11.497 5.085.001 0 8.922 7.619 18.131 7.619 9.211 0 18.133-7.619 18.133-7.619s-8.361-2.701-11.498-5.085z"/><path fill="#4C5359" d="M45.729 39.306a4.246 4.246 0 0 1-2.398.584c-.826-.059-1.607-.318-2.236-.814-.627-.477-1.09-1.158-1.225-1.91l-.592-3.332-.6 3.332c-.137.75-.596 1.434-1.227 1.91-.613.494-1.436.754-2.215.813-.863.039-1.672-.139-2.417-.582a3.793 3.793 0 0 1-1.663-2.02c.044.953.567 1.879 1.317 2.518.745.639 1.764 1.016 2.723 1.057a4.737 4.737 0 0 0 2.922-.822 4.328 4.328 0 0 0 1.154-1.203c.311.477.703.889 1.156 1.201a4.735 4.735 0 0 0 2.9.824 4.59 4.59 0 0 0 2.742-1.057c.75-.641 1.273-1.564 1.318-2.518a3.779 3.779 0 0 1-1.659 2.019z"/><g><path fill="#4C5359" d="M42.359 33.093c-.617-.738-2.518-.795-3.086-.795-.566 0-2.469.057-3.088.795-.439.529-.098 1.838 1.074 2.965.74.713 1.447.939 2.014.939.568 0 1.275-.227 2.016-.939 1.172-1.127 1.514-2.436 1.07-2.965z"/></g><path fill="#FFF" d="M38.959 59.616c0 1.055-2.313 1.91-5.164 1.91-2.853 0-5.165-.855-5.165-1.91 0-1.057 2.312.088 5.165.088 2.851 0 5.164-1.144 5.164-.088zM49.918 59.616c0 1.055-2.313 1.91-5.164 1.91-2.854 0-5.166-.855-5.166-1.91 0-1.057 2.313.088 5.166.088 2.851 0 5.164-1.144 5.164-.088z"/><g fill="#3E4347"><path d="M29.575 61.247l1.402-2.445-.424 2.767zM33.111 61.995l.516-3.295.518 3.295zM37.041 61.63l-.396-2.594 1.371 2.262z"/><g><path d="M47.996 61.569l-.426-2.767 1.403 2.445zM44.402 61.995l.516-3.295.518 3.295zM40.533 61.298l1.367-2.262-.392 2.594z"/></g></g></svg>