<svg xmlns="http://www.w3.org/2000/svg" width="64" height="64" viewBox="0 0 64 64"><path fill="#F29A2E" d="M7.648 20.376c1.77 2.883 3.775 3.278 5.198 1.611 2.22-2.606-.247-5.898-2.773-6.844C5.738 13.52 2 18.327 2 18.327s4.105-.465 5.648 2.049z"/><path fill="#E1EAF2" d="M42.832 10.189c-7.708 4.455-1.315 15.331-15.21 18.161l14.842 7.264c3.037 5.211 11.321 5.563 11.321 5.563s2.117-6.236.414-10.754c4.573 0 7.801-2.826 7.801-2.826s-2.554-9.164-10.493-9.231c7.801-3.214 9.182-9.762 9.182-9.762S53.712 3.9 42.832 10.189z"/><path fill="#F4BC58" d="M35.737 62H21.415c0-1.189 8.377-1.373 8.775-9.436 1.285 8.973 5.547 8.247 5.547 9.436z"/><path fill="#D1DCE6" d="M49.41 30.559c0 11.533-9.4 23.337-20.994 23.337-11.595 0-20.995-11.805-20.995-23.337 0-7.691 16.596-2.337 20.995-2.337 11.594 0 20.994-9.195 20.994 2.337z"/><path fill="#D1DCE6" d="M36.38 49.217c0 2.335-3.263 7.313-6.178 7.313-2.916 0-6.22-3.384-6.22-5.72 0-2.335 12.398-2.739 12.398-1.593z"/><path fill="#E1EAF2" d="M6.492 26.345c0 2.929.65 11.698.65 11.698l2.712-3.367 3.185 3.832.672-5.347 4.931 3.55-.896-5.206 5.916.615-2.713-3.191 4.091-2.724s-4.965 1.079-4.897-1.974c.068-3.054 2.591-11.901-.525-13.153-5.73-2.301-13.126 2.569-13.126 15.267z"/><ellipse fill="#3E4347" cx="6.492" cy="16.148" rx=".65" ry=".326"/><circle fill="#3E4347" cx="11.538" cy="16.675" r="1.5"/><path fill="#E24B4B" d="M7.781 23.554c.003 3.18-2.077.874-2.077.874-.65 0-3.59 2.156-2.606-1.457 1.317-4.838 6.289-8.035 6.289-8.035s-1.612 2.872-1.606 8.618z"/><path fill="#E24B4B" d="M20.837 10.614a7.283 7.283 0 0 0-.005-1.243c-.234-2.527 3.439-3.502 2.994-4.805-.578-1.689-5.305-.647-7.577 3.072-.27.443-.481.945-.63 1.465a7.301 7.301 0 0 0-.416-1.163c-1.058-2.309 2.244-4.398 1.234-5.521-1.335-1.487-5.222 1.133-6.136 5.392-.182.86-.155 1.83.072 2.696-.09-.077-.166-.154-.265-.232-1.677-1.296.03-4.046-1.23-4.555-1.795-.726-3.419 2.851-2.44 6.348.57 2.037 2.756 4.092 4.614 2.393.564-.515 1.966-1.326 2.818-1.553.635-.169 2.229-.103 3.229.586.92.637 1.596 1.753 2.938 1.808 5.685.235 8.824-5.302 6.716-6.547-1.289-.763-2.912 1.219-5.916 1.859z"/><path fill="#E1EAF2" d="M42.545 43.867c-.863-2.156-3.486-3.402-3.486-3.402 2.657-1.415 4.28-4.447 4.28-4.447-1.412-.614-6.835-1.011-6.835-1.011 1.243-1.246 2.21-2.897 2.21-2.897s-6.179-1.55-11.391 1.348c-6.777 3.768-4.813 12.803 2.934 13.847 8.419 1.133 12.288-3.438 12.288-3.438z"/></svg>