<svg xmlns="http://www.w3.org/2000/svg" width="64" height="64" viewBox="0 0 64 64"><path fill="#F29A2E" d="M9.704 23.391c1.602 2.673 3.418 3.041 4.706 1.493 2.01-2.417-.224-5.47-2.511-6.349-3.925-1.505-7.31 2.955-7.31 2.955s3.717-.432 5.115 1.901z"/><path fill="#E24B4B" d="M55.59 15.034c-9.147-5.504-19.768-1.202-21.923 9.3-.528 2.576-1.301 12.363 5.826 9.14.337.761.95 1.524 1.879 2.251 2.402 1.879 1.139 6.959 1.139 6.959s7.22-3.419 4.397-11.627c4.141 0 6.952 7.304 6.952 7.304s2.83-7.039.78-13.296c3.731-.377 7.162 4.99 7.162 4.99s1.919-10.129-6.212-15.021z"/><path fill="#F4BC58" d="M32.134 62H19.167c0-1.104 7.584-1.274 7.944-8.752 1.164 8.322 5.023 7.648 5.023 8.752zM19.263 58.07l-8.035-9.586c.575-.684 5.361 4.816 9.469.449-3.604 6.017-.86 8.454-1.434 9.137z"/><path fill="#947151" d="M41.398 33.393c0 10.39-7.142 18.812-15.95 18.812-8.81 0-15.951-8.422-15.951-18.812 0-6.93 1.274-21.959 6.21-21.959 15.342 0-3.896 19.852 9.741 19.852 8.809-.001 15.95-8.284 15.95 2.107z"/><path fill="#947151" d="M32.716 50.142c0 2.167-2.954 6.784-5.594 6.784s-5.631-3.14-5.631-5.307c.001-2.166 11.225-2.54 11.225-1.477z"/><path fill="#3E4347" d="M38.841 31.441c-.265 4.543-8.147 11.598-12.566 11.598-4.418 0-8.001-3.691-8.001-8.244 0-7.558 3.825-3.927 8.243-3.927 4.419 0 12.751-6.72 12.324.573z"/><path fill="#F4BC58" d="M8.657 28.927l.589 10.851 2.455-3.123 2.883 3.555.608-4.96 4.464 3.292-.811-4.828 5.356.57-2.456-2.959 3.703-2.527s-4.494 1.002-4.434-1.831c.062-2.833 2.983-10.968 1.097-13.364-1.888-2.397-10.126 0-10.126 0L8.657 28.927z"/><ellipse fill="#3E4347" cx="8.657" cy="19.469" rx=".589" ry=".302"/><ellipse fill="#E24B4B" cx="14.583" cy="19.945" rx="4.262" ry="4.164"/><ellipse fill="#3E4347" cx="14.321" cy="19.468" rx="2.052" ry="1.58"/><path fill="#E24B4B" d="M9.498 34.264c.304 3.923-2.456 5.695-4.64 5.498-3.412-.312-3.393-5.17-1.896-8.105 2.57-5.039 9.024-15.344 9.024-15.344S9.233 30.841 9.498 34.264z"/><path fill="#E24B4B" d="M23.249 13.102c.032-.52.04-1.069-.007-1.683-.266-3.424 3.388-6.51 3.388-6.51s-6-.877-8.57 4.161c-.306.6-.545 1.28-.711 1.985a11.22 11.22 0 0 0-.471-1.577C15.68 6.353 18.274 2 18.274 2s-5.906 1.536-6.938 7.304a9.648 9.648 0 0 0 .08 3.654c-.103-.104-.188-.211-.301-.315-1.897-1.758-1.391-6.172-1.391-6.172s-3.867 3.861-2.761 8.6c.646 2.76 3.116 5.543 5.219 3.241.636-.696 2.221-1.796 3.188-2.104.717-.229 2.521-.138 3.65.796 1.042.861 1.805 2.373 3.323 2.448 6.429.318 7.596-8.869 7.596-8.869s-3.293 1.652-6.69 2.519z"/></svg>