<svg xmlns="http://www.w3.org/2000/svg" width="64" height="64" viewBox="0 0 64 64"><path fill="#F29A2E" d="M22.089 9.282c0 5.572-3.492 10.19-7.793 10.086C1.664 19.062 6.868 2 6.868 2c4.306 0 15.221 1.716 15.221 7.282z"/><path fill="#BC600D" d="M17.313 10.389c0 2.971-1.861 5.435-4.159 5.378-6.735-.163-3.958-9.264-3.958-9.264 2.295 0 8.117.915 8.117 3.886z"/><path fill="#F29A2E" d="M41.91 9.282c0 5.572 3.491 10.19 7.793 10.086C62.333 19.062 57.13 2 57.13 2c-4.305 0-15.22 1.716-15.22 7.282z"/><path fill="#BC600D" d="M46.682 10.389c0 2.971 1.863 5.435 4.16 5.378 6.734-.163 3.962-9.264 3.962-9.264-2.3 0-8.122.915-8.122 3.886z"/><path fill="#F29A2E" d="M57.979 41.748c0 9.064-51.961 9.064-51.961 0C6.019 3.795 20.868 4.833 32 4.833c11.13 0 25.979-1.038 25.979 36.915z"/><path fill="#3E4347" d="M42.474 12.564c-2.293-8.698-18.686-8.864-20.948.057 4.541-3.922 16.409-3.918 20.948-.057z"/><path fill="#3E4347" d="M39.173 16.008c-1.549-5.861-12.816-5.985-14.346.038 3.735-3.219 10.611-3.211 14.346-.038z"/><path fill="#FFE8BB" d="M62 36.615c-.224-9.236-5.767-13.836-5.767-13.836s3.357 33.867-16.576 17.479H24.341C4.406 56.646 7.764 22.779 7.764 22.779S2.222 27.379 2 36.615l2.749-1.627s-2.847 6.092.216 13.559l2.881-3.377s.766 7.068 8.509 10.684l.353-3.088S22.553 57.358 32 57.358s15.289-4.592 15.289-4.592l.353 3.088c7.744-3.615 8.51-10.684 8.51-10.684l2.881 3.377c3.063-7.467.217-13.559.217-13.559L62 36.615z"/><g fill="#3E4347"><path d="M24.341 40.258S7.439 53.004 7.764 22.779c0 0-4.069 35.926 16.577 17.479zM39.657 40.258s16.904 12.746 16.576-17.479c0 0 4.069 35.926-16.576 17.479z"/></g><path fill="#F5F5F5" d="M37.61 29.411c2.996 8.156 2.035 10.847 2.035 10.847l-7.466 2.217-7.852-2.217s-.963-2.691 2.032-10.847c-13.179 21.931-.78 24.845-.78 24.845s-.563 3.578 3.197 6.625l.021-2.355s.838 2.178 3.188 3.475c2.351-1.297 3.189-3.475 3.189-3.475l.02 2.355c2.058-1.227 2.75-3.699 2.75-3.699l.939 1.781c2.953-4.281 1.924-7.287 1.037-8.707.041.051.063.084.063.084s10.809 1.002-2.373-20.929z"/><path fill="#3E4347" d="M32.025 50.143c-.29-.852-.987-5.438-.911-8.232h1.746c-.07 2.545.592 6.979.813 7.621l-1.648.611z"/><path fill="#3E4347" d="M25.58 54.256c6.843-6.809 11.745-8.906 14.403-3.916-4.079-3.151-8.761 2.648-14.403 3.916z"/><path fill="#947151" d="M39.435 39.797c-2.941-1.318-12.123-1.242-14.895 0-1.065.477 1.967 3.525 7.441 3.525 5.489 0 8.512-3.049 7.454-3.525z"/><g><path fill="#FFE8BB" d="M27.327 27.627c-2.241 13.93-18.296 10.477-18.296-1.768 0-6.492 0-6.492 10.06-8.723 10.174-2.257 9.084 5.214 8.236 10.491z"/><path fill="#3E4347" d="M25.679 28.324c-.955 9.858-15.603 8.295-14.66-1.559.365-3.84.421-4.17 7.727-3.393 7.308.778 7.299 1.115 6.933 4.952z"/><path fill="#FFF" d="M23.528 27.711c-.717 5.996-11.031 5.115-10.313-.883.258-2.172.298-2.358 5.436-1.92 5.141.443 5.135.633 4.877 2.803z"/><path fill="#3E4347" d="M22.698 26.545c0 1.389-1.07 2.514-2.395 2.514-1.322 0-2.394-1.125-2.394-2.514 0-1.39 1.07-2.227 2.393-2.227s2.396.837 2.396 2.227z"/><g><path fill="#FFE8BB" d="M36.644 27.627c2.242 13.929 18.297 10.476 18.297-1.769 0-6.492 0-6.492-10.061-8.723-10.172-2.256-9.082 5.215-8.236 10.492z"/><path fill="#3E4347" d="M38.294 28.324c.953 9.858 15.602 8.295 14.66-1.559-.366-3.84-.422-4.17-7.727-3.393-7.309.778-7.3 1.115-6.933 4.952z"/><path fill="#FFF" d="M40.444 27.711c.717 5.996 11.03 5.115 10.313-.883-.26-2.172-.299-2.358-5.438-1.92-5.138.443-5.134.633-4.875 2.803z"/><path fill="#3E4347" d="M45.187 26.545c0 1.389 1.07 2.514 2.395 2.514 1.322 0 2.395-1.125 2.395-2.514 0-1.39-1.07-2.227-2.394-2.227s-2.396.837-2.396 2.227z"/></g></g></svg>