<svg xmlns="http://www.w3.org/2000/svg" width="64" height="64" viewBox="0 0 64 64"><g fill="#E5BE7A"><path d="M12.645 19.666c-.645-7.106 3.736-7.976 6.121-7.469 2.385.506 4.349 6.39 1.712 13.026-3.631 9.127-10.542 10.65-10.542 10.65s3.553-6.889 2.709-16.207z"/><path d="M14.893 27.481c-.645-7.105 3.736-7.976 6.121-7.469 2.385.506 4.35 6.391 1.712 13.027-3.631 9.128-13.173 11.677-13.173 11.677s6.184-7.917 5.34-17.235z"/><path d="M16.481 37.437c-.644-7.105 3.736-7.975 6.123-7.468 2.385.507 4.347 6.39 1.709 13.027C20.685 52.124 8.658 55.69 8.658 55.69s8.667-8.935 7.823-18.253z"/></g><path fill="#E5BE7A" d="M53.813 19.893c-1.36-7.006-6.227-8.203-8.611-7.696-2.383.506-4.347 6.39-1.71 13.026 3.629 9.127 4.065 15.049 4.065 15.049s8.422-9.207 6.256-20.379z"/><path fill="#C1875D" d="M57.98 2.01c.16 5.134-.616 9.349-2.302 11.872-2.545 1.584-6.93 2.396-12.362 2.276-.159-5.134.614-9.352 2.302-11.874 2.546-1.583 6.93-2.396 12.362-2.274z"/><path fill="#3E4347" d="M54.746 5.131c.091 2.867-.344 5.224-1.285 6.635-1.423.887-3.876 1.339-6.912 1.272-.088-2.87.346-5.226 1.287-6.637 1.427-.887 3.875-1.339 6.91-1.27z"/><path fill="#C1875D" d="M20.817 16.152c-5.371.151-9.783-.59-12.423-2.201-1.66-2.435-2.507-6.623-2.379-11.815 5.369-.151 9.777.586 12.417 2.198 1.662 2.439 2.508 6.624 2.385 11.818z"/><path fill="#3E4347" d="M17.583 13.092c-3.023.084-5.509-.331-6.997-1.24-.937-1.372-1.413-3.731-1.343-6.659 3.028-.087 5.511.33 6.998 1.239.935 1.375 1.418 3.735 1.342 6.66z"/><path fill="#C1875D" d="M48.585 28.956c0 3.673-4.128 16.411-4.128 21.752 0 0-5.146.514-12.477.514-7.188 0-12.299-.246-12.299-.246 0-5.477-4.304-18.336-4.304-22.02 0-4.886-.53-10.083 4.589-16.834 1.201-1.585 1.538-3.644 12.014-3.644 10.39 0 11.147 1.664 12.233 3.014 5.013 6.215 4.372 11 4.372 17.464z"/><path fill="#FFE2B3" d="M44.771 54.88c0 4.885-2.998 7.119-12.787 7.119-9.792 0-12.788-2.234-12.788-7.119 0-4.887.271-10.57 12.788-10.57 12.518 0 12.787 5.683 12.787 10.57z"/><path fill="#3E4347" d="M48.98 26.744c0 2.209-1.458 4-3.25 4-1.797 0-3.25-1.791-3.25-4s1.453-4 3.25-4c1.792 0 3.25 1.79 3.25 4z"/><ellipse fill="#3E4347" cx="18.231" cy="26.744" rx="3.25" ry="4"/><path fill="#FFE2B3" d="M40.549 43.339c-2.143-1.385-5.175 1.119-6.774 5.592-1.6 4.482-1.155 9.236.993 10.621 2.146 1.391 5.181-1.113 6.774-5.59 1.595-4.477 1.151-9.234-.993-10.623zM23.42 43.339c-2.146 1.393-2.591 6.146-.992 10.625 1.597 4.475 4.629 6.979 6.774 5.59 2.144-1.387 2.589-6.141.989-10.619-1.59-4.477-4.625-6.983-6.771-5.596z"/><path fill="#FFF" d="M27.57 19.22c0-8.426 1.976-10.126 4.415-10.126s4.414 1.7 4.414 10.126c0 8.428-4.414 20.39-4.414 20.39S27.57 27.648 27.57 19.22z"/><g fill="#3E4347"><path d="M39.776 45.974c-1.57-1.016-3.79.82-4.964 4.098-1.173 3.281-.844 6.766.729 7.781 1.573 1.02 3.796-.816 4.965-4.096 1.168-3.281.843-6.766-.73-7.783zM24.196 45.974c-1.573 1.02-1.9 4.502-.729 7.783 1.169 3.279 3.391 5.115 4.963 4.096 1.57-1.016 1.896-4.5.726-7.779-1.169-3.28-3.39-5.116-4.96-4.1z"/></g><path fill="#E5BE7A" d="M45.73 9.555C38.439-.789 9.623 2.571 9.623 26.513c0 0 6.883-8.836 18.46-11.407 0 0-4.606 5.271-10.041 9.45 0 0 11.297-2.86 18.275-9.357 0 0 .815 4.672-8.524 7.768-.001-.001 26.894-.698 17.937-13.412z"/></svg>