<svg xmlns="http://www.w3.org/2000/svg" width="64" height="64" viewBox="0 0 64 64"><path fill="#947151" d="M43.683 56.855c3.047.506 6.607-.541 10.44-3.858 5.186-4.486 8.344-9.959 7.82-17.384-.201-2.854-1.285-4.793-2.608-6.039-.963-.907-7.061 1.204-7.061 7.828 0 12.631-8.591 19.453-8.591 19.453z"/><path fill="#231F20" d="M52.81 38.595c0-5.977 3.011-8.531 6.525-9.021-3.313-3.442-9.205 2.266-9.205 7.537 0 12.631-5.212 13.729-8.063 19.41 0 0 .508.306 1.615.334 3.64-3.019 9.128-8.631 9.128-18.26z"/><path fill="#FFE8BB" d="M51.219 37.514c0-5.986 3.463-8.604 7.099-8.686-3.848-2.338-9.363.953-9.363 7.335 0 10.271-6.887 14.942-6.887 14.942v5.416c1.57-1.259 9.151-7.744 9.151-19.007z"/><path fill="#5E4433" d="M10.626 38.122s-7.415.54-8.442-1.626c-1.432-3.022 5.857-4.593 8.442-3.404v5.03zM29.711 58.485s-10.836.518-10.836-.998c0-1.513 4.852-4.489 10.836-4.489v5.487z"/><path fill="#947151" d="M41.668 56.827c2.925-4.323 3.528-12.874 1.399-18.115-1.702-4.191-6.223-9.286-12.753-12.117-16.525-7.161-22.514 3.682-14.978 9.224 8.836 6.499 7.975 16.871 11.352 21.224-3.639.947-6.158 2.785-6.158 3.874 0 1.518 10.835.997 10.835.997 5.987 0 10.839-1.226 10.839-2.743 0-1.063-.191-1.808-.536-2.329v-.015z"/><path fill="#FFE8BB" d="M31.481 45.855c0-3.674 1.621-6.921 4.109-8.942-5.225.391-9.927 5.222-9.865 11.095.056 5.347 3.439 8.029 2.342 8.42-8.784 3.138 1.208.757 8.207 2.645 2.156.581-4.793-7.091-4.793-13.218z"/><path fill="#231F20" d="M46.11 41.166c0-6.887-9.621-14.972-15.655-16.93-2.225-.722-4.207-1.193-5.99-1.458.239.833.348 1.679.384 2.539 12.237 3.078 24.149 15.536 16.818 31.51 3.527-5.008 4.443-9.2 4.443-15.661z"/><path fill="#FFE8BB" d="M31.44 22.896c-2.679-.729-5.147-1.009-7.353-1.004.435.625.632 1.417.694 2.181 10.53 2.89 20.494 9.635 20.494 21.502 0 2.744-1.563 8.74-3.607 11.251 3.862-2.771 6.107-9.438 6.107-15.66 0-9.929-7.52-15.871-16.335-18.27z"/><path fill="#5E4433" d="M19.91 19.672l-5.623.569c-.261-3.104 2.335-5.904 2.335-5.904s3.025 2.231 3.288 5.335z"/><path fill="#947151" d="M22.432 20.184c.302-3.07-2.205-6.184-2.205-6.184s-3.17 2.233-3.59 5.265C11.26 19.42 5.25 26.718 5.764 32.551c.145 1.628 4.392 4.551 9.811 4.551s9.811-4.801 9.811-10.724c-.001-3.399-1.045-5.239-2.954-6.194z"/><path fill="#F4A19A" d="M21.455 21.279c-.484 4.278-1.412 4.053-2.565 3.897-1.155-.156-2.103-.185-1.616-4.464.26-2.308 2.563-3.895 2.563-3.895s1.88 2.155 1.618 4.462z"/><path fill="#FFE8BB" d="M15.993 27.386s-1.488 1.903-3.324 1.903c-1.835 0-2.6-1.903-2.6-1.903s.765-3.484 2.6-3.484c1.836-.001 3.324 3.484 3.324 3.484z"/><path fill="#231F20" d="M14.634 27.243s-.911 1.165-2.038 1.165c-1.125 0-1.594-1.165-1.594-1.165s.469-2.137 1.594-2.137c1.127 0 2.038 2.137 2.038 2.137z"/><path fill="#FFE8BB" d="M25.729 27.459c-1.825.624-4.525-.457-4.525-.457-2.396-2.993-3.69.997-3.69.997l1.066.409-1.965.881.528.497h-.958l.607.542-.444.346c-.654-.366-1.385-.593-2.17-.593-2.644 0-4.788 2.343-4.788 5.234s2.144 5.235 4.788 5.235c2.645 0 4.789-2.345 4.789-5.235 0-.089-.02-.173-.024-.261l1.771.459-.422-1.463h2.135l-.946-.813 2.97-2.286h-1.84l2.775-1.662h-2.087c1.142-.005 4.254-2.453 2.43-1.83z"/><path fill="#947151" d="M25.724 42.446c.064 2.299-5.4 9.021-13.272-1.329 0 0-7.415.54-8.441-1.626-1.432-3.022 7.073-4.775 9.278-3.404 5.223 3.248 12.168-2.992 12.435 6.359z"/></svg>