<svg xmlns="http://www.w3.org/2000/svg" width="64" height="64" viewBox="0 0 64 64"><path fill="#D6A57C" d="M35.307 12.646c-.418 4.445-3.977 5.928-5.736 6.447l-.832.24s-.572.498-1.473 1.131c-.014.074-.033.148-.049.223 0 0 7.752.465 10.305.113 2.822-.391 15.242-.387 18.287-.549 3.583-.189 6.194.459 6.194 4.504 0 4.092-3.172 5.342-6.194 5.092-4.166-.344-18.258-.563-18.258-.563 1.818.436 3.486 1.223 3.176 4.217-.355 3.428-1.684 4.076-3.814 4.232 2.883 1.682 2.668 3.961 2.311 5.377-.604 2.393-4.914 3.059-4.914 3.082 3.201.939 2.645 2.422 2.336 4.498-.189 1.268-1.484 2.748-3.688 3.279-2.207.533-3.836 2.174-21.049-.287-4.52-.646-6.746-4.592-7.775-10.547-.693-4.023-1.797-9.512-2.107-13.604a8.666 8.666 0 0 1-.01-1.092c-.119-2.268.848-4.549 2.766-5.959l12.191-8.949c.016-.01.031-.018.045-.029.584-.639 1.406-1.045 2.43-1.152a35.39 35.39 0 0 0 11.369-3.117c1.659-.764 4.782.335 4.489 3.413z"/><path fill="#B58360" d="M36.854 49.309c.57-3.816-5.295-3.523-2.828-2.736 2.585.825 2.828 2.736 2.828 2.736zM39.412 41.988c.535-5.209-5.271-4.67-2.885-3.67 2.422 1.014 2.885 3.67 2.885 3.67zM40.738 33.395c.533-5.211-5.654-4.672-3.268-3.672 2.423 1.015 3.268 3.672 3.268 3.672z"/><g fill="#B58360"><path d="M27.217 20.688s12.596-1.457 28.639-.748c2.335.104 5.938.113 6.13 4.266-1.473-4.663-17.386-2.497-34.769-3.518z"/><path d="M34.432 9.994c-.721-.186-1.469-.148-2.041.115a35.39 35.39 0 0 1-11.369 3.117c-1.023.107-1.846.514-2.43 1.152-.014.012-.029.02-.045.029l-12.192 8.95c-1.918 1.41-2.885 3.691-2.766 5.959-.018.359-.02.723.01 1.092.311 4.092 1.414 9.58 2.107 13.604.736 4.25 2.086 7.469 4.438 9.201-3.352-1.328-5.125-4.957-6.012-10.076-.693-4.023-1.797-9.512-2.107-13.604a8.666 8.666 0 0 1-.01-1.092c-.119-2.268.848-4.549 2.766-5.959l12.191-8.949c.016-.01.031-.018.045-.029.584-.639 1.406-1.045 2.43-1.152a35.39 35.39 0 0 0 11.369-3.117c1.032-.475 2.623-.231 3.616.759z"/></g><path fill="#B58360" d="M22.975 19.459s4.309-1.313 6.338-1.84c1.691-.438 4.76-2.014 5.955-4.633-.563 4.182-3.984 5.602-5.697 6.107l-.832.24s-.479.701-1.521 1.354c-.001.001-1.96-1.382-4.243-1.228zM36.418 29.803c-.578.209-1.026.486-1.487.793-.454.313-.927.641-1.466.928-.542.27-1.165.488-1.811.492a2.948 2.948 0 0 1-1.768-.523c.613-.051 1.158-.105 1.664-.25a7.657 7.657 0 0 0 1.46-.609c.491-.237.993-.535 1.576-.734.57-.207 1.248-.311 1.832-.097zM34.779 37.664c-.578.209-1.026.486-1.487.793-.454.313-.927.641-1.466.927-.542.271-1.165.487-1.811.491a2.948 2.948 0 0 1-1.768-.523c.613-.051 1.158-.105 1.664-.25a7.62 7.62 0 0 0 1.46-.607c.491-.238.993-.535 1.576-.734.572-.207 1.248-.311 1.832-.097zM32.385 46.244c-.578.209-1.026.486-1.487.793-.454.313-.926.641-1.465.926-.542.271-1.165.488-1.81.492a2.948 2.948 0 0 1-1.768-.523c.613-.051 1.158-.105 1.664-.25a7.704 7.704 0 0 0 1.459-.607c.49-.238.993-.535 1.576-.734.57-.207 1.247-.311 1.831-.097z"/></svg>