<svg xmlns="http://www.w3.org/2000/svg" width="64" height="64" viewBox="0 0 64 64"><path fill="#42ADE2" d="M16.08 48.471c-.47-.096-.932-.23-1.388-.391a14.128 14.128 0 0 1-1.338-.541 14.91 14.91 0 0 1-2.506-1.479 14.119 14.119 0 0 1-3.932-4.363 13.188 13.188 0 0 1-1.71-5.609 13.728 13.728 0 0 1 .105-2.891c.073-.474.165-.942.289-1.404.12-.46.264-.913.446-1.355l.126 1.403c.045.462.096.916.155 1.368.12.898.275 1.781.485 2.641.42 1.717 1.041 3.342 1.902 4.842.856 1.506 1.947 2.885 3.195 4.162a31.197 31.197 0 0 0 1.992 1.848c.348.297.706.592 1.069.885l1.11.884zM15.801 52.105a7.24 7.24 0 0 1-1.054.377c-.355.1-.725.178-1.094.238-.737.119-1.494.158-2.252.119a10.338 10.338 0 0 1-4.418-1.234 9.816 9.816 0 0 1-4.467-5.041c-.128-.35-.242-.703-.332-1.063A6.932 6.932 0 0 1 2 44.414c.251.275.487.549.723.82.232.266.466.533.704.787.47.512.945.994 1.437 1.443a16.002 16.002 0 0 0 3.159 2.275c1.134.615 2.351 1.084 3.649 1.453.648.186 1.316.342 2.003.488.344.072.691.139 1.049.209.351.07.71.136 1.077.216zM38.353 3.519c.481.123.949.285 1.408.469a15.347 15.347 0 0 1 3.836 2.238c1.559 1.238 2.883 2.808 3.797 4.592a12.964 12.964 0 0 1 1.156 8.606c-.102.474-.222.939-.375 1.393a10.97 10.97 0 0 1-.536 1.335l-.052-1.412a38.662 38.662 0 0 0-.084-1.384 23.707 23.707 0 0 0-.344-2.671c-.331-1.746-.879-3.407-1.679-4.961-.794-1.555-1.831-2.995-3.042-4.346a31.806 31.806 0 0 0-1.945-1.962c-.34-.32-.693-.633-1.052-.949l-1.088-.948zM47.12 3.057c.354.099.696.229 1.034.378.334.145.658.314.979.499.635.37 1.225.808 1.772 1.307a9.812 9.812 0 0 1 2.518 3.638 9.01 9.01 0 0 1 .587 4.354 9.107 9.107 0 0 1-.501 2.104 8.136 8.136 0 0 1-.438.982 6.44 6.44 0 0 1-.566.914c-.012-.358-.008-.705-.01-1.047-.006-.344-.006-.681-.021-1.014a20.461 20.461 0 0 0-.144-1.947 14.645 14.645 0 0 0-.898-3.62c-.45-1.153-1.066-2.25-1.8-3.324a29.379 29.379 0 0 0-1.19-1.6 52.066 52.066 0 0 0-.65-.797c-.224-.272-.449-.542-.672-.827z"/><path fill="#D6A57C" d="M10.012 17.956c-1.968.938-2.721 3.277-1.77 5.268l12.606 26.337 6.983-3.334-12.602-26.339c-.954-1.989-3.25-2.872-5.217-1.932zM43.146 38.912l7.437-3.551L36.207 5.319c-.964-2.013-3.429-2.897-5.475-1.919l-.021.009c-2.046.979-2.905 3.448-1.912 5.521l14.347 29.982z"/><path fill="#B58360" d="M30.732 3.4l-.021.009a3.94 3.94 0 0 0-.617.377c1.882-.517 3.93.373 4.788 2.167l14.376 30.041 1.324-.633L36.207 5.319c-.964-2.012-3.429-2.897-5.475-1.919z"/><path fill="#D6A57C" d="M27.832 46.227l7.656-3.656-14.67-30.655c-1.025-2.141-3.567-3.061-5.679-2.053l-.012.006c-2.111 1.01-2.991 3.562-1.967 5.702l14.672 30.656z"/><path fill="#B58360" d="M15.14 9.862l-.012.006c-.224.108-.427.24-.624.381a4.28 4.28 0 0 1 4.991 2.296l9.129 19.077 2.244 1.295-10.05-21.002c-1.025-2.141-3.567-3.061-5.678-2.053z"/><path fill="#D6A57C" d="M34.296 40.08l7.661-3.658L27.285 5.768c-1.023-2.142-3.566-3.059-5.676-2.05l-.013.006c-2.111 1.008-2.995 3.561-1.972 5.702L34.296 40.08z"/><path fill="#B58360" d="M21.609 3.718l-.013.006c-.226.107-.43.238-.623.379 1.948-.542 4.073.383 4.99 2.297l10.321 21.566 2.242 1.293L27.285 5.768c-1.023-2.142-3.566-3.059-5.676-2.05zM10.012 17.956a3.836 3.836 0 0 0-.63.381c1.789-.464 3.678.426 4.519 2.183l7.493 15.658 2.246 1.291-8.411-17.581c-.954-1.989-3.25-2.872-5.217-1.932z"/><path fill="#D6A57C" d="M60.761 15.025c-2.712-2.079-7.146.205-9.323 7.435-1.52 5.049-1.676 6.471-4.892 8.003l-1.767-3.688S16.413 40.473 17.484 42.708c0 0 3.432 10.578 9.181 15.516 8.565 7.35 28.652-.527 29.563-19.557.535-11.222 7.502-21.359 4.533-23.642z"/><g><path fill="#B58360" d="M60.761 15.025a3.503 3.503 0 0 0-1.702-.706c.128.076.257.15.378.246 2.97 2.28-.083 7.624-1.821 12.394-1.4 3.839-2.551 7.721-2.366 11.506.804 16.494-15.817 24.424-25.838 21.449 9.796 4.146 28.001-3.744 27.161-20.988-.187-3.781.92-7.466 2.366-11.501 1.709-4.784 4.791-10.117 1.822-12.4z"/></g><g><path fill="#B58360" d="M47.497 29.958c-6.171.681-15.346 9.556-8.921 19.296-4.673-9.764 3.011-16.424 7.881-18.748.584-.279 1.04-.548 1.04-.548z"/></g></svg>