<svg xmlns="http://www.w3.org/2000/svg" width="64" height="64" viewBox="0 0 64 64"><path fill="#FED0AC" d="M48.56 32.832l-6.587 4.672s-3.274-9.25-5.826-15.051c-1.049-2.383-4.231-3.23-5.706-6.559-2.57-5.803.451-10.82 3.525-7.199 3.542 4.174 8.707 7.27 9.752 9.654 1.747 3.979 4.842 14.483 4.842 14.483z"/><path fill="#FED0AC" d="M53.836 36.625c.462 3.16.063 8.135-2.7 13.949 0 0-5.711-6.84-6.375-9.963 0 0-1.633-11.922-3.251-19.52-.666-3.123-4.28-4.928-5.221-9.289-1.643-7.605 3.234-12.887 6.024-7.777 3.218 5.891 8.646 10.885 9.31 14.008 1.108 5.211 1.532 13.961 2.213 18.592z"/><path fill="#E0A372" d="M45.366 30.639s-.533-4.506-2.155-12.102c-.664-3.125-4.276-4.93-5.219-9.291-.563-2.619-.359-4.963.268-6.701-1.714 1.318-3.104 4.906-2.163 9.26.941 4.361 4.582 6.185 5.241 9.311a211.859 211.859 0 0 1 1.274 6.678l-5.011-1.87 7.765 4.715z"/><path fill="#FED0AC" d="M51.423 35.441c-6.64-6.041-14.011-9.697-18.794-12.047-7.098-3.488-5.23 1.313-17.337 4.484-1.599.418-3.501 1.584-2.048 4.619 1.403 2.922 12.832.705 14.607-1.045 0 0 4.783 5.85 9.563 5.713 0 0-.827 3.883.337 5.76 0 0-6.773 3.523-9.674 6.615l-8.05-5.389c-.59-8.336-2.105-10.803-6.205-10.408-3.823.367-3.392 3.953-3.308 6.906.15 5.314-1.259 6.176.04 8.285C15.522 57 21.758 62 33.362 62c4.345 0 7.104-.115 9.773-1.438 4.475-2.214 15.594-18.474 8.288-25.121z"/><path fill="#E0A372" d="M52.721 37.021c2.483 7.617-6.388 20.102-10.271 22.023-2.67 1.32-5.429 1.436-9.773 1.436-11.477 0-17.747-4.92-22.645-12.807.117.439.28.855.53 1.262C15.531 57 21.769 62 33.371 62c4.346 0 7.106-.115 9.775-1.438 4.152-2.054 14.017-16.201 9.575-23.541z"/><path fill="#E0A372" d="M18.619 44.412s7.485 4.803 9.304 5.068l-7.894-5.328c.321-8.416-2.147-11.096-6.207-10.408a8.58 8.58 0 0 0-.893.199c4.066-.412 6.02 2.258 5.69 10.469z"/><path fill="#E0A372" d="M27.872 31.453s4.785 5.85 9.563 5.713V36.08c-4.777.137-9.563-5.715-9.563-5.715-1.774 1.75-13.203 3.967-14.605 1.045a5.29 5.29 0 0 1-.461-1.381c-.132.641-.027 1.445.461 2.469 1.402 2.922 12.831.705 14.605-1.045z"/></svg>