<svg xmlns="http://www.w3.org/2000/svg" width="64" height="64" viewBox="0 0 64 64"><path fill="#A59872" d="M55.407 22.865c0 3.338-2.733 6.044-6.106 6.044H14.698c-3.372 0-6.106-2.706-6.106-6.044v-.881c0-3.338 2.735-6.045 6.106-6.045h34.603c3.373 0 6.106 2.707 6.106 6.045v.881z"/><path fill="#DBCDAA" d="M53.196 22.846c0 3.191-2.476 5.78-5.529 5.78H16.333c-3.053 0-5.529-2.588-5.529-5.78v-.843c0-3.192 2.476-5.78 5.529-5.78h31.334c3.054 0 5.529 2.588 5.529 5.78v.843z"/><path fill="#1A86B1" d="M12.735 20.062C6.89 25-.029 41.609 2.559 48.772c1.002 2.775 7.348 5.208 10.177 6.129 9.145 2.976 29.235 2.571 38.505 0 2.867-.796 9.174-3.354 10.177-6.129 2.587-7.163-3.907-24.312-10.177-28.711-2.644-1.854-36.393-1.782-38.506.001z"/><path fill="#144E73" d="M13.011 19.905c-.683 1.492-1.106 3.084-1.527 4.664a64.386 64.386 0 0 0-1.104 4.777c-.606 3.207-1.062 6.445-1.134 9.689-.088 3.234.186 6.507 1.237 9.546 1.02 3.039 3.163 5.713 6.125 7.192-1.551-.556-2.976-1.491-4.156-2.685-1.166-1.211-2.048-2.681-2.687-4.233-1.278-3.128-1.585-6.534-1.518-9.846.1-3.325.592-6.619 1.385-9.828.831-3.186 1.733-6.407 3.379-9.276z"/><path fill="#2BA5D6" d="M50.992 19.905c-.907-.966-10.27-1.384-18.99-1.269-8.721-.115-18.083.303-18.991 1.269 0 0-11.553 29.341 3.596 35.868 6.714 2.892 24.074 2.892 30.789 0 15.15-6.527 3.596-35.868 3.596-35.868z"/><path fill="#144E73" d="M50.992 19.905c1.646 2.869 2.549 6.089 3.38 9.276.793 3.209 1.285 6.503 1.386 9.828.067 3.312-.24 6.718-1.519 9.846-.639 1.552-1.521 3.022-2.687 4.233-1.181 1.193-2.605 2.129-4.156 2.685 2.962-1.479 5.105-4.153 6.125-7.192 1.051-3.039 1.324-6.312 1.237-9.546-.073-3.245-.529-6.482-1.135-9.689a64.893 64.893 0 0 0-1.104-4.777c-.42-1.579-.844-3.172-1.527-4.664z"/><ellipse fill="#1A86B1" cx="32.003" cy="31.51" rx="7.238" ry="7.411"/><g><ellipse fill="#A59872" cx="32.001" cy="30.807" rx="6.774" ry="6.706"/><ellipse fill="#DBCDAA" cx="32.002" cy="30.807" rx="5.807" ry="5.748"/><ellipse fill="#4C3F2E" cx="32.002" cy="30.807" rx="3.871" ry="3.831"/><ellipse fill="#A59872" cx="32.001" cy="30.806" rx="3.87" ry=".666"/><ellipse fill="#DBCDAA" cx="32.003" cy="30.807" rx=".672" ry="3.831"/></g><g><path fill="#A59872" d="M29.709 8.887a1.67 1.67 0 0 0-2.347 0l-3.986 3.936H18.17c-.913 0-2.141.267-2.141 1.668 0 .907.744 1.643 1.659 1.643h6.348a1.669 1.669 0 0 0 1.184-.481l4.489-4.444a1.632 1.632 0 0 0 0-2.322z"/><path fill="#DBCDAA" d="M28.627 9.61c-.542-.537-1.416-.645-1.959-.108l-3.292 3.321H18.17c-.765 0-1.267.686-1.267 1.445 0 1.071.909 1.399 1.675 1.399h5.307l.006-.001c.354.001.71-.132.983-.4l3.752-3.715a1.363 1.363 0 0 0 .001-1.941z"/><ellipse fill="#A59872" cx="28.651" cy="9.369" rx="3.463" ry="3.428"/><ellipse fill="#DBCDAA" cx="28.434" cy="9.082" rx="2.919" ry="2.89"/><g><path fill="#A59872" d="M34.291 8.887a1.67 1.67 0 0 1 2.346 0l3.985 3.936h5.207c.914 0 2.142.267 2.142 1.668 0 .907-.743 1.643-1.659 1.643h-6.349l-.005-.001a1.669 1.669 0 0 1-1.179-.48l-4.488-4.444a1.632 1.632 0 0 1 0-2.322z"/><path fill="#DBCDAA" d="M35.373 9.61c.542-.537 1.416-.645 1.959-.108l3.29 3.321h5.207c.766 0 1.268.686 1.268 1.445 0 1.071-.909 1.399-1.675 1.399h-5.308l-.006-.001a1.393 1.393 0 0 1-.983-.4l-3.752-3.715a1.364 1.364 0 0 1 0-1.941z"/><ellipse fill="#A59872" cx="35.349" cy="9.369" rx="3.463" ry="3.428"/><ellipse fill="#DBCDAA" cx="35.565" cy="9.082" rx="2.919" ry="2.89"/></g></g></svg>