<svg xmlns="http://www.w3.org/2000/svg" width="64" height="64" viewBox="0 0 64 64"><path fill="#6F2833" d="M50.049 19.81S61.696 15.439 59.904 4l3.404 2.479s0 10.061-10.285 16.637l-2.974-3.306z"/><path fill="#DB3557" d="M50.049 19.656S52.914 6.756 59.904 4l3.404 2.479s-7.22 4.055-10.285 16.637l-2.974-3.46z"/><path fill="#DB3557" d="M63.28 55.864c0 5.515-62.561 5.515-62.561 0C.719 23.28-1.439 13.31 32 13.31c33.438 0 31.28 9.97 31.28 42.554z"/><path fill="#6F2833" d="M1.885 31h60.229v7H1.885z"/><path fill="#F26B8C" d="M1.885 32h60.229v5H1.885z"/><path fill="#DB3557" d="M60.927 35.791H3.098l-.025-2.583h57.828z"/><path fill="#F26B8C" d="M3.626 29h3.463v1H3.626zM8.46 29h3.464v1H8.46zM13.295 29h3.464v1h-3.464zM18.129 29h3.464v1h-3.464zM22.965 29h3.463v1h-3.463zM27.799 29h3.463v1h-3.463zM32.634 29h3.464v1h-3.464zM37.469 29h3.463v1h-3.463zM42.304 29h3.465v1h-3.465zM47.139 29h3.462v1h-3.462zM51.973 29h3.465v1h-3.465zM56.808 29h3.463v1h-3.463z"/><g><path fill="#F26B8C" d="M3.626 39h3.463v1H3.626zM8.46 39h3.464v1H8.46zM13.295 39h3.464v1h-3.464zM18.129 39h3.464v1h-3.464zM22.965 39h3.463v1h-3.463zM27.799 39h3.463v1h-3.463zM32.634 39h3.464v1h-3.464zM37.469 39h3.463v1h-3.463zM42.304 39h3.465v1h-3.465zM47.139 39h3.462v1h-3.462zM51.973 39h3.465v1h-3.465zM56.808 39h3.463v1h-3.463z"/></g><g><path fill="#FFF" d="M62.596 57.267c-.49 0-.889-.438-.889-.978 0-1.482.005-2.913.011-4.295l.003-.86c.056-13.351.092-22.166-3.989-27.071-3.44-4.137-11.616-6.064-25.732-6.064-14.114 0-22.291 1.927-25.731 6.064-4.081 4.906-4.044 13.723-3.989 27.069l.002.636c.006 1.452.012 2.958.012 4.521 0 .539-.399.978-.889.978s-.889-.438-.889-.978c0-1.789-.007-3.503-.015-5.147-.057-13.809-.094-22.93 4.456-28.4 3.8-4.571 12.393-6.699 27.043-6.699 14.65 0 23.243 2.128 27.044 6.699 4.55 5.47 4.511 14.592 4.455 28.4l-.002.38c-.006 1.527-.013 3.115-.013 4.768 0 .538-.398.977-.888.977z"/><path fill="#C9C9C9" d="M32 16.543c13.862 0 22.818 1.89 26.671 6.522 4.432 5.328 4.396 14.378 4.339 28.074-.007 1.645-.015 3.359-.015 5.149 0 .265-.178.478-.399.478-.221 0-.399-.213-.399-.478 0-1.791.008-3.507.014-5.153.056-13.459.093-22.35-4.105-27.396-3.687-4.433-12.479-6.24-26.105-6.24-13.625 0-22.418 1.808-26.104 6.24-4.2 5.047-4.163 13.938-4.107 27.397.006 1.646.014 3.362.014 5.153 0 .265-.179.478-.399.478s-.399-.213-.399-.478c0-1.79-.007-3.505-.015-5.149C.934 37.443.897 28.394 5.329 23.065c3.853-4.632 12.81-6.522 26.671-6.522m0-1c-14.804 0-23.515 2.185-27.416 6.875C-.083 28.028-.045 37.225.013 51.144c.007 1.644.014 3.357.014 5.146 0 .814.618 1.478 1.378 1.478s1.378-.663 1.378-1.478c0-1.564-.006-3.072-.012-4.525l-.002-.632c-.055-13.236-.091-21.98 3.873-26.745C9.937 20.426 18.232 18.5 32 18.5c13.77 0 22.064 1.926 25.36 5.888 3.963 4.765 3.927 13.506 3.872 26.738l-.003.864a984.928 984.928 0 0 0-.011 4.3c0 .814.618 1.478 1.378 1.478s1.378-.663 1.378-1.478c0-1.649.007-3.235.013-4.761l.002-.385c.057-13.919.096-23.115-4.572-28.726-3.902-4.69-12.614-6.875-27.417-6.875z"/></g><g><ellipse fill="#FFF" cx="46.64" cy="34.806" rx="3.409" ry="2.783"/><path fill="#C9C9C9" d="M46.64 38.089c-2.149 0-3.898-1.473-3.898-3.283 0-1.812 1.749-3.285 3.898-3.285s3.898 1.474 3.898 3.285c0 1.81-1.749 3.283-3.898 3.283zm0-5.568c-1.61 0-2.92 1.025-2.92 2.285 0 1.259 1.31 2.283 2.92 2.283s2.92-1.024 2.92-2.283c0-1.26-1.31-2.285-2.92-2.285z"/></g><g><path fill="#C9C9C9" d="M45.819 33.627h4.193v2.356h-4.193z"/></g><g><path fill="#FFF" d="M49.785 44.062c.218 1.234-.35 2.42-1.307 2.42h-2.021c-.955 0-1.522-1.186-1.305-2.42l.892-5.077c.073-.405.491-.704.944-.704h.957c.453 0 .874.299.944.704l.896 5.077z"/><path fill="#C9C9C9" d="M48.479 46.981h-2.021c-.489 0-.942-.225-1.275-.631-.479-.587-.671-1.476-.512-2.378l.893-5.077c.114-.637.728-1.115 1.426-1.115h.957c.702 0 1.315.479 1.426 1.116l.895 5.076c.159.902-.032 1.791-.511 2.377-.335.408-.788.632-1.278.632zm-1.49-8.201c-.241 0-.438.155-.462.294l-.893 5.076c-.105.596.012 1.208.299 1.559.148.181.324.272.524.272h2.021c.201 0 .378-.092.526-.272.286-.352.403-.963.299-1.559l-.895-5.077c-.023-.139-.22-.293-.463-.293h-.956z"/></g><g><path fill="#9B9596" d="M47.021 33.208h.895v6.13h-.895z"/></g></svg>