<svg xmlns="http://www.w3.org/2000/svg" width="64" height="64" viewBox="0 0 64 64"><path fill="#FFB300" d="M17.01 2C7.3 2 2 8.332 2 16.672V35.18h30.017V16.672c0-12.398-8.126-12.166-8.126-12.166S23.279 2 17.01 2z"/><path fill="#01579B" d="M32.017 34.775v27.227H62V34.775c0-5.763-29.983-5.763-29.983 0z"/><path fill="#C2185B" d="M2 34.775v27.227h30.017V34.775c0-5.763-30.017-5.763-30.017 0z"/><path fill="#FFDD67" d="M6.441 23.645s-2.23-.57-2.23-3.869c0-2.613 1.683-3.063 1.683-3.063 6.023 0 15.838-7.83 15.838-7.83s3.71 6.912 7.289 7.83c0 0 1.736.318 1.736 3.063 0 3.299-2.314 3.869-2.314 3.869-.029 4.979-6.83 9.984-10.957 9.984-4.132 0-11.045-5.006-11.045-9.984z"/><circle fill="#937237" cx="12.114" cy="20.309" r="2.25"/><circle fill="#937237" cx="22.853" cy="20.309" r="2.25"/><path fill="#937237" d="M21.078 27.152c-2.315 1.801-4.886 1.789-7.189 0-.278-.215-.528.158-.339.504.702 1.285 2.12 2.434 3.934 2.434s3.232-1.148 3.935-2.434c.187-.345-.063-.718-.341-.504z"/><g><path fill="#FFB300" d="M31.894 17.322l1.509 2.756h26.225l1.143-2.943c0-10.553-2.454-15.025-14.131-15.133-11.797-.109-14.746 4.576-14.746 15.32z"/><path fill="#FFDD67" d="M59.681 17.143c-.093.609-.218 1.182-.39 1.506-.31.58-.939.91-.939.91s.17-1.178.109-2.826c-.657-9.727-1.227-5.055-11.945-5.055-10.715 0-11.286-4.668-11.945 5.041-.061 1.656.108 2.84.108 2.84s-.632-.33-.939-.91c-.172-.324-.297-.896-.388-1.506-1.013-.266-2.319-.043-2.319 2.877 0 1.816.666 3.307 2.91 3.469.789 6.08 8.924 10.141 12.573 10.141 3.646 0 11.783-4.061 12.573-10.141C61.334 23.326 62 21.836 62 20.02c0-2.92-1.307-3.143-2.319-2.877z"/><circle fill="#937237" cx="41.016" cy="20.309" r="2.25"/><circle fill="#937237" cx="52.016" cy="20.309" r="2.25"/><path fill="#937237" d="M50.109 27.152c-2.315 1.801-4.886 1.789-7.189 0-.277-.215-.527.158-.339.504.702 1.285 2.12 2.434 3.934 2.434s3.232-1.148 3.935-2.434c.188-.345-.063-.718-.341-.504z"/></g><g><path fill="#FFB300" d="M29.977 51.572h.939v-5.744c0-5.455-4.42-9.844-11.596-9.844-6.938 0-11.592 4.389-11.592 9.844v5.744h1.199c-1.498 1.727-2.725 5.4-1.432 7.676.525.922 5.896 4.152 6.424-1.609h11.063c.529 5.762 5.9 2.531 6.426 1.609 1.293-2.275.067-5.949-1.431-7.676z"/><path fill="#FF81AB" d="M19.32 37.816c-6.232 0-10.416 3.189-10.416 7.15v1.184c0-3.963 4.184-7.15 10.416-7.15 6.447 0 10.418 3.188 10.418 7.15v-1.184c0-3.96-3.97-7.15-10.418-7.15zM6.952 62.002h25.021c.001-8.438-25.021-8.438-25.021 0z"/><path fill="#FFDD67" d="M29.307 52.754s1.765.336 1.765-1.658c0-1.58-1.765-1.477-1.765-1.477v-1.75s-13.519-.639-16.629-5.674c.781 5.07-3.321 7.424-3.321 7.424s-1.785-.182-1.785 1.477c0 1.994 1.785 1.658 1.785 1.658 0 2.977 5.264 6.24 10.174 6.24 4.518 0 9.776-2.666 9.776-6.24z"/><path fill="#937237" d="M25.778 49.791c0 .967-.782 1.75-1.75 1.75-.97 0-1.75-.783-1.75-1.75a1.75 1.75 0 1 1 3.5 0z"/><circle fill="#937237" cx="14.874" cy="49.791" r="1.75"/><path fill="#937237" d="M22.598 54.361c-2.027 1.502-4.275 1.492-6.293 0-.242-.178-.461.133-.297.418.615 1.074 1.855 2.029 3.443 2.029 1.59 0 2.828-.955 3.443-2.029.165-.285-.054-.595-.296-.418z"/></g><g><path fill="#FFB300" d="M54.998 51.57h.939v-5.744c0-5.453-4.42-9.844-11.596-9.844-6.938 0-11.592 4.391-11.592 9.844v5.744h1.199c-1.498 1.727-2.725 5.4-1.432 7.676.525.922 5.896 4.152 6.424-1.609h11.063c.529 5.762 5.9 2.531 6.426 1.609 1.294-2.275.067-5.949-1.431-7.676z"/><path fill="#FF81AB" d="M44.342 37.816c-6.232 0-10.416 3.188-10.416 7.148v1.184c0-3.961 4.184-7.15 10.416-7.15 6.447 0 10.418 3.189 10.418 7.15v-1.184c0-3.96-3.971-7.148-10.418-7.148zM31.974 62h25.021c0-8.437-25.021-8.437-25.021 0z"/><path fill="#FFDD67" d="M54.328 52.752s1.765.336 1.765-1.658c0-1.58-1.765-1.477-1.765-1.477v-1.75s-13.519-.639-16.629-5.672c.781 5.068-3.321 7.422-3.321 7.422s-1.785-.182-1.785 1.477c0 1.994 1.785 1.658 1.785 1.658 0 2.977 5.264 6.24 10.174 6.24 4.518 0 9.776-2.666 9.776-6.24z"/><path fill="#937237" d="M50.8 49.789c0 .967-.782 1.75-1.75 1.75-.97 0-1.75-.783-1.75-1.75s.78-1.75 1.75-1.75c.968 0 1.75.783 1.75 1.75z"/><circle fill="#937237" cx="39.896" cy="49.789" r="1.75"/><path fill="#937237" d="M47.619 54.359c-2.027 1.502-4.275 1.492-6.293 0-.242-.178-.461.133-.297.418.615 1.074 1.855 2.029 3.443 2.029 1.59 0 2.828-.955 3.443-2.029.165-.285-.054-.595-.296-.418z"/></g></svg>