<svg xmlns="http://www.w3.org/2000/svg" width="64" height="64" viewBox="0 0 64 64"><path fill="#FFB300" d="M46.99 2c-6.27 0-6.881 2.506-6.881 2.506S32.346 4.291 32 15.869c-.346-11.578-8.109-11.363-8.109-11.363S23.279 2 17.01 2C7.3 2 2 8.332 2 16.672v18.506h60V16.672C62 8.332 56.7 2 46.99 2z"/><path fill="#C2185B" d="M32 34.674c-.357-5.66-30-5.629-30 .1V62h60V34.773c0-5.728-29.643-5.759-30-.099z"/><path fill="#FFDD67" d="M6.441 23.643s-2.23-.57-2.23-3.869c0-2.611 1.683-3.061 1.683-3.061 6.023 0 15.838-7.83 15.838-7.83s3.71 6.912 7.289 7.83c0 0 1.736.318 1.736 3.061 0 3.299-2.314 3.869-2.314 3.869-.029 4.979-6.83 9.984-10.957 9.984-4.132 0-11.045-5.006-11.045-9.984z"/><circle fill="#937237" cx="12.114" cy="20.307" r="2.25"/><circle fill="#937237" cx="22.853" cy="20.307" r="2.25"/><path fill="#937237" d="M21.078 27.15c-2.315 1.801-4.886 1.789-7.189 0-.278-.215-.528.158-.339.504.702 1.285 2.12 2.434 3.934 2.434s3.232-1.148 3.935-2.434c.187-.345-.063-.718-.341-.504z"/><g><path fill="#FFDD67" d="M57.559 23.643s2.23-.57 2.23-3.869c0-2.611-1.683-3.061-1.683-3.061-6.023 0-15.838-7.83-15.838-7.83s-3.71 6.912-7.289 7.83c0 0-1.736.318-1.736 3.061 0 3.299 2.314 3.869 2.314 3.869.029 4.979 6.83 9.984 10.957 9.984 4.132 0 11.045-5.006 11.045-9.984z"/><circle fill="#937237" cx="51.886" cy="20.307" r="2.25"/><circle fill="#937237" cx="41.147" cy="20.307" r="2.25"/><path fill="#937237" d="M42.922 27.15c2.315 1.801 4.886 1.789 7.189 0 .278-.215.528.158.339.504-.702 1.285-2.12 2.434-3.934 2.434s-3.232-1.148-3.935-2.434c-.187-.345.063-.718.341-.504z"/></g><g><path fill="#FFB300" d="M29.977 51.57h.939v-5.744c0-5.455-4.42-9.844-11.596-9.844-6.938 0-11.592 4.389-11.592 9.844v5.744h1.199c-1.498 1.727-2.725 5.4-1.432 7.676.525.922 5.896 4.152 6.424-1.609h11.063c.529 5.762 5.9 2.531 6.426 1.609 1.293-2.275.067-5.949-1.431-7.676z"/><path fill="#FF81AB" d="M19.32 37.814c-6.232 0-10.416 3.189-10.416 7.15v1.184c0-3.963 4.184-7.15 10.416-7.15 6.447 0 10.418 3.188 10.418 7.15v-1.184c0-3.96-3.97-7.15-10.418-7.15zM6.952 62h25.021c.001-8.437-25.021-8.437-25.021 0z"/><path fill="#FFDD67" d="M29.307 52.752s1.765.336 1.765-1.658c0-1.58-1.765-1.477-1.765-1.477v-1.75s-13.519-.639-16.629-5.674c.781 5.07-3.321 7.424-3.321 7.424s-1.785-.182-1.785 1.477c0 1.994 1.785 1.658 1.785 1.658 0 2.977 5.264 6.24 10.174 6.24 4.518 0 9.776-2.666 9.776-6.24z"/><path fill="#937237" d="M25.778 49.789c0 .967-.782 1.75-1.75 1.75-.97 0-1.75-.783-1.75-1.75a1.75 1.75 0 1 1 3.5 0z"/><circle fill="#937237" cx="14.874" cy="49.789" r="1.75"/><path fill="#937237" d="M22.598 54.359c-2.027 1.502-4.275 1.492-6.293 0-.242-.178-.461.133-.297.418.615 1.074 1.855 2.029 3.443 2.029 1.59 0 2.828-.955 3.443-2.029.165-.285-.054-.595-.296-.418z"/></g><g><path fill="#FFB300" d="M54.998 51.57h.939v-5.744c0-5.453-4.42-9.844-11.596-9.844-6.938 0-11.592 4.391-11.592 9.844v5.744h1.199c-1.498 1.727-2.725 5.4-1.432 7.676.525.922 5.896 4.152 6.424-1.609h11.063c.529 5.762 5.9 2.531 6.426 1.609 1.294-2.275.067-5.949-1.431-7.676z"/><path fill="#FF81AB" d="M44.342 37.816c-6.232 0-10.416 3.188-10.416 7.148v1.184c0-3.961 4.184-7.15 10.416-7.15 6.447 0 10.418 3.189 10.418 7.15v-1.184c0-3.96-3.971-7.148-10.418-7.148zM31.974 62h25.021c0-8.437-25.021-8.437-25.021 0z"/><path fill="#FFDD67" d="M54.328 52.752s1.765.336 1.765-1.658c0-1.58-1.765-1.477-1.765-1.477v-1.75s-13.519-.639-16.629-5.672c.781 5.068-3.321 7.422-3.321 7.422s-1.785-.182-1.785 1.477c0 1.994 1.785 1.658 1.785 1.658 0 2.977 5.264 6.24 10.174 6.24 4.518 0 9.776-2.666 9.776-6.24z"/><path fill="#937237" d="M50.8 49.789c0 .967-.782 1.75-1.75 1.75-.97 0-1.75-.783-1.75-1.75s.78-1.75 1.75-1.75c.968 0 1.75.783 1.75 1.75z"/><circle fill="#937237" cx="39.896" cy="49.789" r="1.75"/><path fill="#937237" d="M47.619 54.359c-2.027 1.502-4.275 1.492-6.293 0-.242-.178-.461.133-.297.418.615 1.074 1.855 2.029 3.443 2.029 1.59 0 2.828-.955 3.443-2.029.165-.285-.054-.595-.296-.418z"/></g></svg>