<svg xmlns="http://www.w3.org/2000/svg" width="64" height="64" viewBox="0 0 64 64"><path fill="#231F20" d="M32.002 2C13.89 2 4 13.449 4 28.528V62h56V28.528C60 6.114 44.84 6.531 44.84 6.531S43.699 2 32.002 2z"/><path fill="#B47D56" d="M10.369 40.668s-4.368-1.107-4.368-7.516c0-5.075 3.293-5.946 3.293-5.946C21.096 27.206 43 12 43 12s4.59 13.426 11.604 15.206c0 0 3.396.621 3.396 5.946 0 6.408-4.531 7.516-4.531 7.516C53.408 50.338 40.092 62 32.002 62S10.369 50.338 10.369 40.668z"/><path fill="#935E3E" d="M32 47c-4.18 0-6.27-3-4.18-3h8.359c2.092 0 .001 2.998-4.179 3z"/><path fill="#F5F5F5" d="M38.273 38.152c-1.455 0-1.262-1.814-1.262-1.814C39.25 24.919 52 31.001 52 31.001c1 1.999-2.322 6.931-3.221 7.151-4.207 1.053-10.506 0-10.506 0z"/><path fill="#664E27" d="M48.5 33.5a4.5 4.5 0 1 1-9 0 4.501 4.501 0 0 1 4.5-4.499c2.488 0 4.5 2.014 4.5 4.499z"/><circle fill="#2B2925" cx="44" cy="33.5" r="1.5"/><path fill="#3B3226" d="M37 36.338c2.25-13.703 13.5-4.567 18-6.522-4.5 4.237-13.5-4.897-18 6.522z"/><path fill="#F5F5F5" d="M25.729 38.152c1.455 0 1.262-1.814 1.262-1.814C24.75 24.919 12 31.001 12 31.001c-1 1.999 2.322 6.931 3.221 7.151 4.207 1.053 10.508 0 10.508 0z"/><circle fill="#664E27" cx="20" cy="33.5" r="4.5"/><path fill="#3B3226" d="M27 36.338c-2.25-13.703-13.5-4.567-18-6.522 4.5 4.237 13.5-4.897 18 6.522z"/><path fill="#935E3E" d="M32.002 52l-10-1.525C28 59 36 59 42 50.475L32.002 52z"/><path fill="#734C31" d="M35.945 50.115c-2.945-1.115-3.943.656-3.943.656S31 49 28.057 50.115c-2.303.871-6.068.355-6.055.359C26.004 51.338 26.502 53 32 53c5.5 0 5.998-1.662 10-2.525.014-.004-3.754.511-6.055-.36z"/><circle fill="#2B2925" cx="20" cy="33.5" r="1.5"/></svg>