<svg xmlns="http://www.w3.org/2000/svg" width="64" height="64" viewBox="0 0 64 64"><path fill="#01579B" d="M32 34.775c0-5.764-30-5.764-30 0v27.227h60V34.775c0-5.763-30-5.763-30 0z"/><path fill="#FFB300" d="M31.894 17.322l1.509 2.756h26.225l1.143-2.943c0-10.553-2.454-15.025-14.131-15.133-11.797-.109-14.746 4.576-14.746 15.32z"/><path fill="#FFDD67" d="M59.681 17.143c-.093.609-.218 1.182-.39 1.506-.31.58-.939.91-.939.91s.17-1.178.109-2.826c-.657-9.727-1.227-5.055-11.945-5.055-10.715 0-11.286-4.668-11.945 5.041-.061 1.656.108 2.84.108 2.84s-.632-.33-.939-.91c-.172-.324-.297-.896-.388-1.506-1.013-.266-2.319-.043-2.319 2.877 0 1.816.666 3.307 2.91 3.469.789 6.08 8.924 10.141 12.573 10.141 3.646 0 11.783-4.061 12.573-10.141C61.334 23.326 62 21.836 62 20.02c0-2.92-1.307-3.143-2.319-2.877z"/><circle fill="#937237" cx="41.016" cy="20.309" r="2.25"/><circle fill="#937237" cx="52.016" cy="20.309" r="2.25"/><path fill="#937237" d="M50.109 27.152c-2.315 1.801-4.886 1.789-7.189 0-.277-.215-.527.158-.339.504.702 1.285 2.12 2.434 3.934 2.434s3.232-1.148 3.935-2.434c.188-.345-.063-.718-.341-.504z"/><g><path fill="#FFB300" d="M32.106 17.322l-1.509 2.756H4.373L3.23 17.135C3.23 6.582 5.684 2.11 17.361 2.002c11.796-.109 14.745 4.576 14.745 15.32z"/><path fill="#FFDD67" d="M4.319 17.143c.093.609.218 1.182.39 1.506.31.58.939.91.939.91s-.17-1.178-.109-2.826c.657-9.727 1.227-5.055 11.945-5.055 10.715 0 11.286-4.668 11.945 5.041.061 1.656-.108 2.84-.108 2.84s.632-.33.939-.91c.172-.324.297-.896.388-1.506 1.013-.266 2.319-.043 2.319 2.877 0 1.816-.666 3.307-2.91 3.469-.789 6.08-8.924 10.141-12.573 10.141-3.646 0-11.783-4.061-12.573-10.141C2.666 23.326 2 21.836 2 20.02c0-2.92 1.307-3.143 2.319-2.877z"/><circle fill="#937237" cx="22.984" cy="20.309" r="2.25"/><circle fill="#937237" cx="11.984" cy="20.309" r="2.25"/><path fill="#937237" d="M13.891 27.152c2.315 1.801 4.886 1.789 7.189 0 .277-.215.527.158.339.504-.702 1.285-2.12 2.434-3.934 2.434s-3.232-1.148-3.935-2.434c-.188-.345.063-.718.341-.504z"/></g><g><path fill="#29B6F6" d="M44.533 62.002H19.469c0-8.438 25.064-8.438 25.064 0z"/><path fill="#FFB300" d="M32.002 35.984c-6.748 0-10.904 3.784-10.904 8.481v3.156c0 3.712 2.938 3.714 2.936 3.712h16.357c-.002.002 2.516 0 2.516-3.712v-3.156c-.001-4.696-4.38-8.481-10.905-8.481z"/><path fill="#FFDD67" d="M22.129 48.461l.406-4.479c0-2.859 4.49-.576 9.467-.576s9.467-2.283 9.467.576l.404 4.479c2.172 0 2.172 3.52 0 3.52 0 4.371-5.873 7.014-9.871 7.014s-9.873-2.643-9.873-7.014c-2.17-.001-2.17-3.52 0-3.52z"/><circle fill="#937237" cx="27.217" cy="49.791" r="1.75"/><circle fill="#937237" cx="36.787" cy="49.791" r="1.75"/><path fill="#937237" d="M28.855 54.361c2.027 1.5 4.275 1.49 6.291 0 .244-.18.463.131.297.42-.613 1.07-1.855 2.027-3.441 2.027-1.588 0-2.83-.957-3.443-2.027-.164-.289.054-.599.296-.42z"/></g></svg>