<svg xmlns="http://www.w3.org/2000/svg" width="64" height="64" viewBox="0 0 64 64"><path fill="#DBB471" d="M49.928 8.83C40.139-4.14 12.294 5.517 10.262 4.609c0 0-.329 1.893.844 3.124-1.526 1.009-3.228-.711-3.228-.711s-1.766 4.178.06 6.837c-2.929 3.848.7 24.141.7 24.141h45.904s5.548-15.85-.765-26.741c-1.407-2.431-2.739-.96-3.849-2.429z"/><path fill="#B47D56" d="M54.957 29.639c-.16 1.094-.38 2.119-.68 2.699-.537 1.041-1.639 1.633-1.639 1.633s.295-2.111.191-5.066C51.506 8.69 45.616 18.268 32 18.268c-13.619 0-19.507-9.581-20.829 10.648-.104 2.949.189 5.055.189 5.055s-1.099-.592-1.639-1.633c-.299-.58-.518-1.605-.677-2.699C7.279 29.164 5 29.561 5 34.795c0 3.259 1.162 5.93 5.075 6.218 1.667 13.202 4.665 15.349 14.646 20.034 2.625 1.232 4.264.918 7.279.918 3.018 0 4.656.314 7.281-.918 9.98-4.686 12.979-6.83 14.646-20.034C57.84 40.725 59 38.054 59 34.795c0-5.234-2.277-5.631-4.043-5.156z"/><path fill="#664E27" d="M41 48.857C41 52.286 36.5 54 32 54s-9-1.714-9-5.143c0 0 0-.857.9-.857h16.199c.901 0 .901.857.901.857z"/><path fill="#F5F5F5" d="M20 28.565c-5 0-7 1.805-7 3.608s0 4.393 6.609 4.393C26 36.566 27 35.781 27 33.075c0-1.803-2-4.51-7-4.51z"/><circle fill="#0A84A5" cx="20.5" cy="31.632" r="4.5"/><circle fill="#231F20" cx="20.5" cy="31.631" r="1.5"/><path fill="#664E27" d="M13 32.132c0-7 14-7 14 .999-2-5.999-12-5.999-14-.999z"/><path fill="#F5F5F5" d="M44 28.565c5 0 7 1.805 7 3.608s0 4.393-6.609 4.393C38 36.566 37 35.781 37 33.075c0-1.803 2-4.51 7-4.51z"/><circle fill="#0A84A5" cx="43.5" cy="31.632" r="4.5"/><path fill="#231F20" d="M42 31.631a1.501 1.501 0 0 0 3 0 1.501 1.501 0 0 0-3 0z"/><path fill="#664E27" d="M51 32.132c0-7-14-7-14 .999 2-5.999 12-5.999 14-.999z"/><path fill="#935E3E" d="M32 45c-4.18 0-6.27-3-4.18-3h8.359c2.089 0 .001 2.998-4.179 3z"/></svg>