<svg xmlns="http://www.w3.org/2000/svg" width="64" height="64" viewBox="0 0 64 64"><ellipse fill="#627A82" cx="32" cy="11.561" rx="15" ry="9.561"/><ellipse fill="#C28FEF" cx="32" cy="15.57" rx="15" ry="9.561"/><path fill="#8A6859" d="M57.32 28.893c-15.611-15.596-35.073-15.666-50.655 0l.096 17.311C6.761 53.74 14.169 62 32.478 62c17.342 0 24.858-6.752 24.858-15.797l-.016-17.31z"/><path fill="#454749" d="M39.289 51.744a.905.905 0 0 1 .211.611c.002 1.691-3.357 3.766-7.5 3.766s-7.5-2.061-7.5-3.752c0-.229.064-.467.178-.625 0 0 3.242 1.459 7.322 1.459 4.072 0 7.289-1.459 7.289-1.459z"/><path fill="#748A93" d="M31.993 9.111c-29.451 0-35.76 23.74-25.234 32.037 0 0 5.205-8.783 16.129-12.998C51.316 17.176 43.41 9.111 31.993 9.111z"/><path fill="#8B9FA5" d="M31.993 9.111c-11.418 0-19.326 8.064 9.105 19.039 10.924 4.215 16.146 12.998 16.146 12.998 10.527-8.296 4.201-32.037-25.251-32.037z"/><path fill="#454749" d="M42.891 54.381c-.576.003-1.125-.151-1.639-.368a5.732 5.732 0 0 1-1.434-.881c-.85-.727-1.551-1.762-1.594-2.919.775.828 1.459 1.505 2.24 2.157.766.662 1.581 1.258 2.427 2.011zM21.11 54.381c.846-.753 1.66-1.349 2.426-2.011.782-.652 1.465-1.329 2.24-2.157-.042 1.157-.744 2.192-1.594 2.919a5.761 5.761 0 0 1-1.434.881c-.513.216-1.062.371-1.638.368z"/><g><path fill="#454749" d="M17.75 40.985l-.334-2.982c.779-.086 1.863-.297 3.121-.539 5.881-1.138 15.726-3.039 26.365.611l-.973 2.838c-9.881-3.391-19.236-1.584-24.824-.504-1.317.255-2.458.475-3.355.576z"/><ellipse fill="#454749" cx="19.709" cy="39.584" rx="8.975" ry="9"/><ellipse fill="#B4D7EE" cx="19.708" cy="39.584" rx="5.984" ry="6"/><ellipse fill="#454749" cx="44.292" cy="39.584" rx="8.976" ry="9"/><g><ellipse fill="#B4D7EE" cx="44.292" cy="39.584" rx="5.983" ry="6"/></g></g></svg>