<svg xmlns="http://www.w3.org/2000/svg" width="64" height="64" viewBox="0 0 64 64"><path fill="#D6A57C" d="M57 27C57 10 45 2 32 2S7 10 7 27c-3.471 0-5 2.5-5 5s1.528 5 5 5c0 6.668 7 16 24.999 16C50 53 57 43.668 57 37c3.471 0 5-2.5 5-5s-1.529-5-5-5z"/><path fill="#594640" d="M33 15c-4-3-2-7-2-7s8 5 15 3c0 0-4-1-5-4 0 0 4 1 7 0-4-3-9-5-15.984-5C25 2 20 4 16 7c4 5 8 7.989 17 8z"/><path opacity=".5" fill="#FF717F" d="M55.965 37.379c-.357-2.404-3.316-3.854-6.611-3.236-3.293.615-5.674 3.07-5.318 5.477.359 2.404 3.316 3.857 6.613 3.238 3.294-.62 5.673-3.071 5.316-5.479zM14.645 34.143c-3.291-.617-6.253.832-6.61 3.236-.355 2.408 2.025 4.859 5.32 5.479 3.294.619 6.252-.834 6.61-3.238.358-2.407-2.026-4.858-5.32-5.477z"/><path fill="#FFF" d="M26 27.503A6.499 6.499 0 0 1 19.501 34 6.5 6.5 0 1 1 26 27.503z"/><circle fill="#664E27" cx="19.5" cy="27.5" r="4.5"/><path fill="#231F20" d="M21 27.502c0 .83-.674 1.498-1.499 1.498A1.5 1.5 0 1 1 21 27.502z"/><path fill="#FFF" d="M51 27.505C51 31.094 48.088 34 44.5 34S38 31.094 38 27.505C38 23.914 40.912 21 44.5 21s6.5 2.914 6.5 6.505z"/><circle fill="#664E27" cx="44.5" cy="27.5" r="4.5"/><circle fill="#231F20" cx="44.5" cy="27.502" r="1.5"/><path fill="#61C2FF" d="M46.998 43.766c0 8.363-6.715 12.234-15 12.234-8.282 0-15-3.871-15-12.234 0-8.359 6.756-4.766 15.039-4.766 8.285 0 14.961-3.594 14.961 4.766z"/><ellipse fill="#6235A8" cx="31.998" cy="47" rx="6" ry="5"/><path fill="#FBBF67" d="M31.999 46.025c-6.076 0-10.999-.693-10.999 5.237C21 57.193 25.923 62 31.999 62 38.074 62 43 57.193 43 51.262c0-5.93-4.926-5.237-11.001-5.237zm0 12.346c-4.319 0-8.31-2.891-8.31-7.109 0-4.217 3.99-3.189 8.31-3.189 4.322 0 8.312-1.027 8.312 3.189 0 4.218-3.991 7.109-8.312 7.109z"/><path fill="#42ADE2" d="M36 48.848c0 .636-.488 1.152-1.092 1.152H29.09c-.602 0-1.09-.516-1.09-1.152v-2.693c0-.637.488-1.155 1.09-1.155h5.818c.604 0 1.092.518 1.092 1.154v2.694z"/><path fill="#B58360" d="M32 38c-4.18 0-6.27-3-4.18-3h8.359c2.092 0 .001 2.998-4.179 3z"/></svg>