<svg xmlns="http://www.w3.org/2000/svg" width="64" height="64" viewBox="0 0 64 64"><path fill="#CBD8DE" d="M32.084 8.938h-.166C6.86 8.938 2 17.66 2 31.463l.855 9.417h58.289L62 31.463C62 17.66 57.141 8.938 32.084 8.938z"/><path fill="#8A6859" d="M58.518 36.805c-9.146-3.598-1.969-13.516-1.68-15.494 0 .002-2.143-19.309-24.836-19.311C9.308 1.996 7.164 21.313 7.164 21.311c.287 1.977 7.467 11.896-1.68 15.494 0 0-3.4-.449-3.4 3.65 0 4.936 3.498 4.102 3.498 4.102C5.582 52.074 12.988 62 32.002 62c19.01 0 26.42-9.926 26.42-17.443 0 0 3.496.834 3.496-4.102 0-4.1-3.4-3.65-3.4-3.65z"/><path fill="#CBD8DE" d="M40.725 52.855c.162 0 .252-.9.252-1.275 0-2.572-4.018-4.791-8.975-4.791s-8.977 2.283-8.977 4.857c0 .346.076 1.209.215 1.209h17.485zM17.585 9.768c2.34-.737 4.651-1.525 7.065-2.042A40.729 40.729 0 0 1 32 6.755c2.482-.068 4.984.08 7.426.57 2.438.476 4.822 1.258 6.992 2.442-2.438-.396-4.816-.722-7.203-.896a65.049 65.049 0 0 0-7.146-.119c-2.383.061-4.768.281-7.17.508-2.401.216-4.831.585-7.314.508zM14.474 13.98c2.869-.739 5.715-1.531 8.645-2.046A59.422 59.422 0 0 1 32 10.967c2.986-.068 5.988.076 8.941.563 2.951.472 5.859 1.247 8.586 2.449-2.949-.399-5.85-.724-8.758-.897a96.67 96.67 0 0 0-8.713-.117c-2.906.063-5.811.283-8.732.511-2.92.216-5.862.584-8.85.504z"/><path fill="#454749" d="M17.751 39.279l-.334-2.982c.778-.086 1.864-.297 3.122-.539 5.881-1.137 15.727-3.039 26.365.611l-.975 2.838c-9.881-3.391-19.234-1.584-24.822-.504-1.32.256-2.459.475-3.356.576z"/><ellipse fill="#454749" cx="19.71" cy="37.879" rx="8.976" ry="9"/><ellipse fill="#B4D7EE" cx="19.71" cy="37.879" rx="5.984" ry="6"/><ellipse fill="#454749" cx="44.293" cy="37.879" rx="8.975" ry="9"/><ellipse fill="#B4D7EE" cx="44.293" cy="37.879" rx="5.984" ry="6"/></svg>