<svg xmlns="http://www.w3.org/2000/svg" width="64" height="64" viewBox="0 0 64 64"><path fill="#CEDBD5" d="M50.002 10.779c-7.045-5.533-28.957-5.533-36.001 0C3.588 18.959 2 62 2 62h60s-1.59-43.041-11.998-51.221z"/><path fill="#231F20" d="M54.309 38.984a5.642 5.642 0 0 0 .465-2.248 5.586 5.586 0 0 0-1.482-3.818c1.393-.977 2.311-2.645 2.311-4.539 0-1.988-1.016-3.723-2.529-4.676a5.62 5.62 0 0 0 .904-3.074c0-.176-.002-.352-.006-.527l-1.381-3.67.285-2.688C50.574 7.164 44.416 2 32.001 2 19.598 2 13.437 7.154 11.132 13.725l.275 2.708-1.379 3.703a27.12 27.12 0 0 0-.005.494c0 1.141.336 2.199.905 3.074-1.514.953-2.53 2.688-2.53 4.676 0 1.895.92 3.563 2.313 4.539a5.584 5.584 0 0 0-1.485 3.818c0 .803.168 1.563.464 2.248C7.643 39.713 7 41.748 7 44.148c0 10.123 10.959 5.67 10.959 5.67h28.083s10.959 4.453 10.959-5.67c.001-2.4-.644-4.435-2.692-5.164z"/><path fill="#F2F1F0" d="M54.26 62c0-14.73-1.438-15.533-22.26-15.533-20.816 0-22.258.803-22.258 15.533H54.26zM32.002 6.631c-7.84 0-15.073 2.652-20.872 7.105-.709 2.023-1.049 4.182-1.096 6.365 5.551-5.814 13.345-9.443 21.968-9.443s16.414 3.629 21.965 9.443c-.047-2.184-.387-4.342-1.094-6.365-5.799-4.453-13.033-7.105-20.871-7.105z"/><path fill="#8A6859" d="M15.36 36.207S12 35.354 12 30.426c0-3.904 2.533-4.575 2.533-4.575 9.079 0 25.929-11.697 25.929-11.697s3.531 10.328 8.927 11.697c0 0 2.612.479 2.612 4.575 0 4.929-3.485 5.781-3.485 5.781-.047 7.438-10.291 16.409-16.515 16.409-6.222 0-16.641-8.971-16.641-16.409z"/><path fill="#705041" d="M32 41.077c-3.215 0-4.822-2.308-3.215-2.308h6.43c1.609.001 0 2.307-3.215 2.308z"/><path fill="#F5F5F5" d="M36.825 34.271c-1.119 0-.97-1.395-.97-1.395 1.722-8.784 11.529-4.105 11.529-4.105.77 1.538-1.785 5.331-2.477 5.5-3.235.81-8.082 0-8.082 0z"/><path fill="#664E27" d="M44.693 30.692a3.461 3.461 0 1 1-6.922 0 3.461 3.461 0 0 1 6.922 0z"/><circle fill="#2B2925" cx="41.231" cy="30.692" r="1.154"/><path fill="#3B3226" d="M35.847 32.876c1.73-10.542 10.385-3.514 13.847-5.018-3.463 3.26-10.385-3.766-13.847 5.018z"/><path fill="#F5F5F5" d="M27.176 34.271c1.119 0 .971-1.395.971-1.395-1.723-8.784-11.531-4.105-11.531-4.105-.77 1.538 1.786 5.331 2.477 5.5 3.236.81 8.083 0 8.083 0z"/><circle fill="#664E27" cx="22.769" cy="30.692" r="3.461"/><path fill="#3B3226" d="M28.154 32.876c-1.73-10.542-10.385-3.514-13.847-5.018 3.463 3.26 10.385-3.766 13.847 5.018z"/><path fill="#994360" d="M32.001 44.924l-7.692-1.174c4.615 6.559 10.769 6.559 15.385 0l-7.693 1.174z"/><path fill="#733449" d="M35.035 43.474c-2.266-.857-3.034.504-3.034.504s-.771-1.361-3.034-.504c-1.771.67-4.669.273-4.658.276 3.079.664 3.462 1.942 7.691 1.942 4.23 0 4.614-1.278 7.693-1.942.011-.003-2.888.394-4.658-.276z"/><circle fill="#2B2925" cx="22.769" cy="30.692" r="1.154"/><g><path fill="#428BC1" d="M39.854 62H23.252l-2.182-2.977h20.096z"/><path fill="#224863" d="M41.166 59.023c0 .44-4.499.796-10.05.796-5.546 0-10.046-.355-10.046-.796 0-.439 4.5-.796 10.046-.796 5.551.001 10.05.357 10.05.796z"/><g><path fill="#871212" d="M25.631 54.286l-1.988-2.207-1.58 2.453z"/><path fill="#991D1D" d="M22.953 54.896l2.073-2.922 2.331 1.448z"/><path fill="#AD2727" d="M22.105 53.002l-.296 1.729 4.602.25z"/><path fill="#CC3636" d="M25.397 54.97c2.901 1.362 2.597 3.185 1.123 3.907-1.473.722-3.78.091-4.175-1.771-.398-1.873-1.686-2.993-1.686-2.993s2.521-.184 4.738.857z"/><path fill="#E24B4B" d="M23.664 55.606c-1.041 3.066 1.489 3.939 2.963 3.219 1.473-.723 1.991-2.686 1.158-4.385-.834-1.701-1.554-2.543-1.554-2.543s-1.827 1.526-2.567 3.709z"/><path fill="#75A843" d="M26.319 58.085c2.263-1.146 1.702.231.229.953-3.624 1.776-5.013-1.465-5.013-1.465s2.776 1.53 4.784.512z"/><path fill="#83BF4F" d="M26.319 58.085c-.489.549-1.907 1.682-.328 1.262 3.121-.828 2.524-5.057 2.524-5.057s-.742 2.164-2.196 3.795z"/><g><path fill="#871212" d="M35.892 52.822l4.22 2.529-.092-3.413z"/><path fill="#991D1D" d="M39.769 57.276l-2.783-4.026h4.709z"/><path fill="#AD2727" d="M40.738 55.757l-2.615-4.579-2.178 1.846z"/><path fill="#CC3636" d="M38.602 55.522l-4.476-.259 1.991-4.633z"/><path fill="#E24B4B" d="M36.83 54.387c-3.5 1.165-2.554 4.064-.884 4.905 1.669.84 3.81-.041 4.779-1.969.972-1.926 2.083-2.847 2.083-2.847s-3.486-.92-5.978-.089z"/><path fill="#83BF4F" d="M36.407 58.504c-.835-.066-2.84-.575-1.372.57 2.902 2.263 6.33-1.188 6.33-1.188s-2.476.814-4.958.618z"/></g><g><path fill="#871212" d="M27.614 52.821l6.184-.277-2.994-2.719z"/><path fill="#991D1D" d="M34.981 51.767l-5.983 1.668 3.659-3.308z"/><path fill="#AD2727" d="M33.017 53.122l-4.531-2.573-.615 3.335z"/><path fill="#CC3636" d="M32.19 54.188v5.497c-2.168.48-4.771-1.085-4.697-3.66.074-2.59-1.262-4.474-1.262-4.474s3.373.559 5.959 2.637z"/><path fill="#E24B4B" d="M29.707 54.473c-2.346 3.7.703 5.658 2.871 5.178s3.476-2.897 2.921-5.399c-.554-2.502-.223-4.186-.223-4.186s-3.898 1.771-5.569 4.407z"/><path fill="#75A843" d="M32.41 58.579c3.341-.788 2.164.848-.004 1.327-5.332 1.183-6.128-3.524-6.128-3.524s3.167 2.896 6.132 2.197z"/><path fill="#83BF4F" d="M32.41 58.579c-.819.566-3.045 1.604-.834 1.556 4.371-.097 4.933-5.849 4.933-5.849s-1.667 2.61-4.099 4.293z"/></g></g></g></svg>