<svg xmlns="http://www.w3.org/2000/svg" width="64" height="64" viewBox="0 0 64 64"><path fill="#8A6859" d="M56.999 27c0-17-12-25-25-25C19 2 7 10 7 27c-3.471 0-5 2.5-5 5s1.528 5 5 5c0 6.668 7 16 25 16s25-9.332 25-16c3.471 0 5-2.5 5-5-.001-2.5-1.53-5-5.001-5z"/><path fill="#231F20" d="M32.999 15c-4-3-2-7-2-7s8 5 15 3c0 0-4-1-5-4 0 0 4 1 7 0-4-3-9-5-15.982-5C24.999 2 19.999 4 16 7c3.999 5 7.999 7.988 16.999 8z"/><path opacity=".5" fill="#FF717F" d="M55.964 37.379c-.357-2.404-3.314-3.854-6.609-3.236-3.295.615-5.674 3.07-5.32 5.477.359 2.404 3.318 3.857 6.615 3.238 3.292-.62 5.671-3.071 5.314-5.479zM14.645 34.143c-3.291-.617-6.253.832-6.61 3.236-.355 2.408 2.025 4.859 5.32 5.479 3.294.619 6.252-.834 6.609-3.238.359-2.407-2.025-4.858-5.319-5.477z"/><path fill="#FFF" d="M25.999 27.502A6.498 6.498 0 0 1 19.501 34 6.498 6.498 0 0 1 13 27.502a6.5 6.5 0 1 1 12.999 0z"/><circle fill="#664E27" cx="19.499" cy="27.5" r="4.5"/><path fill="#231F20" d="M20.999 27.501c0 .83-.673 1.498-1.498 1.498a1.5 1.5 0 1 1 1.498-1.498z"/><path fill="#FFF" d="M50.999 27.504a6.497 6.497 0 0 1-6.5 6.496 6.498 6.498 0 0 1-6.5-6.496 6.504 6.504 0 0 1 6.5-6.504c3.59 0 6.5 2.913 6.5 6.504z"/><circle fill="#664E27" cx="44.499" cy="27.5" r="4.5"/><circle fill="#231F20" cx="44.499" cy="27.501" r="1.5"/><path fill="#61C2FF" d="M46.999 43.766c0 8.363-6.715 12.234-15 12.234-8.283 0-15-3.871-15-12.234 0-8.359 6.756-4.766 15.039-4.766 8.285 0 14.961-3.594 14.961 4.766z"/><ellipse fill="#6235A8" cx="31.999" cy="47" rx="6" ry="5"/><path fill="#FBBF67" d="M31.999 46.025c-6.076 0-10.999-.693-10.999 5.237C21 57.193 25.923 62 31.999 62c6.074 0 11-4.807 11-10.738 0-5.93-4.926-5.237-11-5.237zm0 12.346c-4.319 0-8.31-2.891-8.31-7.109 0-4.217 3.99-3.189 8.31-3.189s8.311-1.027 8.311 3.189c0 4.218-3.991 7.109-8.311 7.109z"/><path fill="#42ADE2" d="M35.999 48.848c0 .637-.488 1.152-1.09 1.152h-5.818c-.604 0-1.092-.516-1.092-1.152v-2.693c0-.637.488-1.154 1.092-1.154h5.818c.602 0 1.09.518 1.09 1.154v2.693z"/><path fill="#705041" d="M32.001 38c-4.18 0-6.27-3-4.18-3h8.359c2.092 0 .001 2.998-4.179 3z"/></svg>