<svg xmlns="http://www.w3.org/2000/svg" width="64" height="64" viewBox="0 0 64 64"><path fill="#FFB300" d="M26.89 2c-14.424 0-22.3 9.03-22.3 20.924V60h44.597V22.924c0-17.679-12.071-17.35-12.071-17.35S36.208 2 26.89 2z"/><path fill="#B386E2" d="M36.799 49.054v-7.141H16.977v7.141C4.515 49.44 2 51.461 2 62h49.779c0-10.538-2.523-12.56-14.98-12.946z"/><path fill="#FFDD67" d="M46.816 62l-.892-19.261s10.332 1.896 15.038-3.261c4.272-4.679-5.684-.313-11.122-1.916-1.978-.583-7.202-1.826-8.558 1.609C39.82 42.882 38.772 62 38.772 62h8.044z"/><path fill="#CBA7F9" d="M47.336 62l-1.054-19.006-6.815-.132C39.4 49.382 37.858 62 37.858 62h9.478z"/><g><path fill="#FFDD67" d="M10.287 32.952s-3.345-.853-3.345-5.781c0-3.904 2.521-4.575 2.521-4.575 9.039 0 25.814-11.697 25.814-11.697s3.515 10.328 8.887 11.697c0 0 2.601.479 2.601 4.575 0 4.929-3.47 5.781-3.47 5.781-.046 7.438-10.245 16.409-16.441 16.409-6.194 0-16.567-8.971-16.567-16.409z"/><path fill="#EBA352" d="M26.853 37.822c-3.201 0-4.801-2.308-3.201-2.308h6.401c1.603.001.001 2.307-3.2 2.308z"/><path fill="#F5F5F5" d="M31.657 31.016c-1.114 0-.965-1.395-.965-1.395 1.714-8.784 11.479-4.105 11.479-4.105.766 1.538-1.778 5.331-2.466 5.5-3.223.81-8.048 0-8.048 0z"/><path fill="#664E27" d="M39.49 27.438a3.453 3.453 0 0 1-3.447 3.461c-1.9 0-3.446-1.55-3.446-3.461a3.455 3.455 0 0 1 3.446-3.461 3.452 3.452 0 0 1 3.447 3.461z"/><circle fill="#2B2925" cx="36.043" cy="27.438" r="1.148"/><path fill="#3B3226" d="M30.683 29.621c1.723-10.542 10.338-3.514 13.785-5.018-3.447 3.26-10.339-3.766-13.785 5.018z"/><path fill="#F5F5F5" d="M22.05 31.016c1.114 0 .966-1.395.966-1.395-1.715-8.784-11.479-4.105-11.479-4.105-.767 1.538 1.778 5.331 2.466 5.5 3.223.81 8.047 0 8.047 0z"/><ellipse fill="#664E27" cx="17.663" cy="27.438" rx="3.446" ry="3.461"/><path fill="#3B3226" d="M23.024 29.621c-1.723-10.542-10.339-3.514-13.785-5.018 3.447 3.26 10.34-3.766 13.785 5.018z"/><path fill="#F09985" d="M26.854 41.669l-7.658-1.174c4.595 6.559 10.721 6.559 15.317 0l-7.659 1.174z"/><path fill="#D47F6C" d="M29.875 40.219c-2.255-.857-3.021.504-3.021.504s-.767-1.361-3.021-.504c-1.763.67-4.647.273-4.637.276 3.065.664 3.446 1.942 7.657 1.942 4.212 0 4.594-1.278 7.66-1.942.009-.003-2.877.394-4.638-.276z"/><circle fill="#2B2925" cx="17.664" cy="27.438" r="1.149"/></g></svg>