<svg xmlns="http://www.w3.org/2000/svg" width="64" height="64" viewBox="0 0 64 64"><path fill="#DBB471" d="M60.313 24.747c-.934.333-3.563 1.234-5.89 1.457-.851.057-1.694.022-2.484-.142-.731-.212-1.284-.614-1.5-1.315l-.188.691c-1.446-.831-2.486-2.403-2.654-5.149C46.314-.697 36.055 5.579 36.055 5.579S35.166 2 26.058 2C11.959 2 4.261 11.041 4.261 22.947V53.28S55.316 62.001 62 24.01c0-.001-.655.33-1.687.737z"/><path fill="#A9B5AE" d="M50.438 24.746c.497 1.615 2.733 1.694 4.988 1.323-1.048-2.622-2.76-5.845-4.239-9.423-.617-1.485-1.828-2.227-3.43-1.115 0 0-1.451-.743-3.421-6.739-.017-.047-.304-.757-.461-1.016-1.442-2.385-4.644-3.087-7.148-1.568-2.503 1.518-3.366 4.683-1.925 7.07 1.439 2.385 4.641 3.086 7.145 1.568a5.543 5.543 0 0 0 1.703-1.62c.571.384 1.386 3.588 1.386 3.588l5.214 8.626.188-.694zm-9.749-11.987c-1.297.785-2.953.423-3.697-.81-.747-1.235-.301-2.872.996-3.657 1.297-.786 2.954-.422 3.697.811.747 1.233.299 2.873-.996 3.656z"/><path fill="#B386E2" d="M35.637 49.363v-6.969h-19.16v6.969C4.43 49.741 2 51.714 2 62h48.115c0-10.285-2.436-12.258-14.478-12.637z"/><path fill="#FED0AC" d="M10.145 33.586s-3.206-.813-3.206-5.516c0-3.726 2.417-4.366 2.417-4.366 8.663 0 24.742-11.162 24.742-11.162s3.369 9.855 8.517 11.162c0 0 2.493.457 2.493 4.366 0 4.703-3.326 5.516-3.326 5.516-.045 7.098-9.819 15.658-15.758 15.658-5.938 0-15.879-8.56-15.879-15.658z"/><path fill="#E0A372" d="M26.023 38.234c-3.068 0-4.604-2.203-3.068-2.203h6.136c1.535 0 0 2.201-3.068 2.203z"/><path fill="#F5F5F5" d="M30.627 31.738c-1.068 0-.926-1.33-.926-1.33 1.643-8.382 11.002-3.918 11.002-3.918.734 1.468-1.705 5.088-2.363 5.248-3.089.774-7.713 0-7.713 0z"/><circle fill="#664E27" cx="34.832" cy="28.324" r="3.303"/><circle fill="#2B2925" cx="34.831" cy="28.324" r="1.101"/><path fill="#3B3226" d="M29.693 30.408c1.65-10.06 9.908-3.354 13.212-4.788-3.303 3.11-9.909-3.594-13.212 4.788z"/><path fill="#F5F5F5" d="M21.419 31.738c1.067 0 .926-1.33.926-1.33-1.644-8.382-11.002-3.918-11.002-3.918-.734 1.468 1.705 5.088 2.364 5.248 3.088.774 7.712 0 7.712 0z"/><circle fill="#664E27" cx="17.215" cy="28.324" r="3.303"/><path fill="#3B3226" d="M22.354 30.408c-1.652-10.06-9.91-3.354-13.213-4.788 3.303 3.11 9.909-3.594 13.213 4.788z"/><path fill="#E08672" d="M26.023 41.904l-7.34-1.12c4.404 6.259 10.276 6.259 14.68 0l-7.34 1.12z"/><path fill="#B86E5D" d="M28.919 40.521c-2.161-.818-2.896.481-2.896.481s-.734-1.3-2.896-.481c-1.689.64-4.455.261-4.445.264 2.938.634 3.303 1.854 7.34 1.854 4.035 0 4.402-1.22 7.34-1.854.011-.004-2.755.375-4.443-.264z"/><circle fill="#2B2925" cx="17.215" cy="28.324" r="1.101"/><path fill="#CEDBD5" d="M61.817 8.671c.754-2.762-.897-5.497-3.69-6.109-2.791-.613-5.664 1.128-6.416 3.889-.082.301-.172 1.077-.174 1.126-.318 6.386-1.509 7.583-1.509 7.583-1.818-.524-2.784.589-2.979 2.213-1.067 8.743-3.729 16.215.959 16.286l4.959-18.185s-.059-3.331.383-3.891c.576.46 1.268.804 2.051.977 2.792.611 5.663-1.13 6.416-3.889zm-2.438-.536c-.39 1.427-1.877 2.328-3.319 2.01a2.52 2.52 0 0 1-1.909-3.159c.39-1.428 1.875-2.328 3.321-2.013a2.525 2.525 0 0 1 1.907 3.162z"/><path fill="#231F20" d="M50.633 18.582a1.292 1.292 0 0 0-.979-1.618 1.461 1.461 0 0 0-1.703 1.031 1.29 1.29 0 0 0 .979 1.619 1.46 1.46 0 0 0 1.703-1.032z"/></svg>