<svg xmlns="http://www.w3.org/2000/svg" width="64" height="64" viewBox="0 0 64 64"><path fill="#FFE1BD" d="M52.387 43.893c-3.164-1.201-2.059-6.799-2.059-6.799H13.672s1.107 5.598-2.059 6.799c0 0-2.614-.333-2.614 2.704 0 3.66 2.69 3.04 2.69 3.04 0 5.572 5.693 11.448 20.311 11.448 14.617 0 20.312-5.876 20.312-11.448 0 0 2.688.62 2.688-3.04 0-3.037-2.613-2.704-2.613-2.704z"/><path fill="#454749" d="M50.463 38.635v10.901c0 5.048-5.16 10.37-18.4 10.37-13.24 0-18.4-5.322-18.4-10.37V38.635h-1.91v11.919C11.752 56.125 17.448 62 32.063 62c14.617 0 20.312-5.875 20.312-11.446V38.635h-1.912z"/><ellipse fill="#FFF" cx="41.45" cy="45.958" rx="5.29" ry="5.314"/><ellipse fill="#FFF" cx="22.55" cy="45.958" rx="5.29" ry="5.314"/><path fill="#664E27" d="M26.475 53.913a.697.697 0 0 0-.162.471c-.002 1.305 2.574 2.903 5.75 2.903 3.175 0 5.75-1.588 5.75-2.894a.852.852 0 0 0-.137-.48s-2.484 1.124-5.613 1.124c-3.123 0-5.588-1.124-5.588-1.124z"/><circle fill="#664E27" cx="41.45" cy="45.959" r="3.751"/><path fill="#231F20" d="M42.699 45.959a1.25 1.25 0 1 1-2.5 0 1.25 1.25 0 1 1 2.5 0z"/><g><circle fill="#664E27" cx="22.549" cy="45.959" r="3.75"/><circle fill="#231F20" cx="22.549" cy="45.959" r="1.25"/></g><path fill="#454749" d="M57.305 36.813C59.889 36.657 62 34.756 62 34.756c-1.422-.547-2.715-2.603-3.908-3.106 1.326-.22 2.361-2.098 3.688-2.918-.652-.206-3.184-1.925-3.971-2.134 1.344-.553 2.566-1.609 3.76-2.835-1.055-.053-2.848-2.169-3.381-2.217 2.184-.982 3.191-2.887 3.191-2.887-.963.064-2.33-1.674-3.498-1.829 2.406-1.518 2.197-4.3 2.197-4.3-1.449.857-3.494.201-4.143.433 1.158-1.939.654-4.365.654-4.365-.986 1.256-2.361.759-3.119 1.171.289-.924-.641-2.656-.326-3.765-1.008 1.004-2.857.878-3.561 2.147.236-1.23-.66-2.916-.83-4.322-.654.846-2.416 2.192-2.762 2.844-.148-1.013-1.354-2.413-1.797-3.451-.287.739-1.988 2.585-2.268 3.075-.195-1.726-.547-1.883-1.199-3.096-.232.816-1.939 1.672-2.373 3.054-.373-1.959-1.432-3.057-1.869-3.869-.289 1.009-2.016 2.441-2.236 3.091C33.818 4.14 32 2 32 2s-1.82 2.14-2.25 3.477c-.222-.649-1.948-2.082-2.236-3.091-.439.813-1.498 1.91-1.869 3.869-.435-1.382-2.141-2.237-2.375-3.054-.65 1.213-1.004 1.37-1.197 3.096-.279-.49-1.982-2.336-2.269-3.075-.442 1.038-1.648 2.438-1.796 3.451-.346-.651-2.107-1.998-2.762-2.844-.169 1.406-1.066 3.092-.83 4.322-.704-1.27-2.552-1.144-3.561-2.147.315 1.108-.615 2.841-.326 3.765-.757-.413-2.132.085-3.119-1.171 0 0-.504 2.426.654 4.365-.648-.231-2.692.425-4.142-.433 0 0-.21 2.782 2.197 4.3-1.167.155-2.536 1.894-3.499 1.829 0 0 1.008 1.904 3.193 2.887-.533.048-2.327 2.164-3.382 2.217 1.195 1.226 2.417 2.282 3.76 2.835-.787.209-3.318 1.928-3.97 2.134 1.326.82 2.361 2.698 3.687 2.918-1.194.503-2.486 2.559-3.908 3.106 0 0 2.111 1.901 4.695 2.058-1.051.435-.495 2.505-3.245 4.531 3.309-.564 3.75.508 6.743-.967 0 0 .504 2.285-.851 3.352 0 0 4.475 1.819 7.374-3.985-.176 1.223 1.917 1.781 2.453 4.134 2.678-2.635 3.094-5.106 3.094-5.106.43 2.921 4.068 4.031 3.99 5.229 1.163-.898 3.036-2.202 3.277-4.112 1.781 2 1.188 5.031 1.188 5.031s3.781-1.313 4.908-4.955c.242 1.91.959 3.138 2.123 4.036-.078-1.197 3.561-2.308 3.99-5.229 0 0 .414 2.472 3.094 5.106.535-2.353 2.627-2.911 2.451-4.134 2.9 5.805 7.375 3.985 7.375 3.985-1.355-1.066-.852-3.352-.852-3.352 2.994 1.475 3.436.402 6.744.967-2.75-2.026-2.196-4.096-3.246-4.532z"/></svg>