<svg xmlns="http://www.w3.org/2000/svg" width="64" height="64" viewBox="0 0 64 64"><path fill="#FF7190" d="M27.859 53.791c-2.481.271-5.093.084-7.482-.575a19.077 19.077 0 0 1-6.563-3.23 17.747 17.747 0 0 1-4.674-5.329 16.552 16.552 0 0 1-2.079-6.52 15.932 15.932 0 0 0 3.106 5.809 15.918 15.918 0 0 0 10.889 5.582 15.88 15.88 0 0 0 5.909-.655 2.517 2.517 0 0 1 3.139 1.675 2.517 2.517 0 0 1-2.121 3.232l-.124.011zM56.355 31.637c.828 2.389 1.176 5.028.965 7.517a18.364 18.364 0 0 1-2.045 7.046c-2.24 4.298-6.117 7.458-10.396 8.869 3.955-2.182 6.879-5.823 8.09-9.836a15.21 15.21 0 0 0 .602-6.07 14.097 14.097 0 0 0-1.816-5.566c-.691-1.205-.275-2.742.93-3.435a2.514 2.514 0 0 1 3.625 1.343l.045.132zM33.301 8.239c2.414-.636 5.023-.838 7.484-.54a19.048 19.048 0 0 1 6.969 2.22 17.737 17.737 0 0 1 5.416 4.575 16.511 16.511 0 0 1 3.021 6.139 15.878 15.878 0 0 0-3.934-5.282 15.93 15.93 0 0 0-11.596-3.903c-2.029.146-3.93.66-5.748 1.524a2.516 2.516 0 1 1-1.735-4.701l.123-.032zM15.007 30.55c-1.07-2.289-1.685-4.88-1.729-7.376a18.346 18.346 0 0 1 1.313-7.219c1.787-4.505 5.321-8.046 9.434-9.888-3.711 2.575-6.247 6.496-7.041 10.612a15.199 15.199 0 0 0 .022 6.1 14.126 14.126 0 0 0 2.376 5.353 2.516 2.516 0 1 1-4.316 2.546l-.059-.128z"/><path fill="#FF5A79" d="M31.427 41.889c-1.812-4.565-13.015-7.209-15.624 1.678-2.904 9.9 15.893 17.121 17.306 18.433 1.197-1.223 18.52-11.705 14.023-20.87-4.177-8.522-15.036-3.712-15.705.759zM61.17 24.857c-3.344-4.656-9.287-.783-9.229 1.932-1.541-2.538-8.447-3.045-9.092 2.466-.717 6.144 11.158 8.648 12.129 9.291.585-.837 9.786-8.683 6.192-13.689zM36.844 6.41c.359-2.563-4.151-6.527-7.699-3.036-3.952 3.886 2.88 11.834 3.191 12.789.879-.274 11.682-.912 12.002-6.27.299-4.978-6.01-5.395-7.494-3.483zM25.471 25.854c-.41-6.973-9.257-6.58-11.005-3.689.071-3.624-6.861-8.443-11.218-3.04-4.853 6.021 5.974 16.025 6.566 17.307 1.175-.521 16.098-3.075 15.657-10.578z"/></svg>