<svg xmlns="http://www.w3.org/2000/svg" width="64" height="64" viewBox="0 0 64 64"><path fill="#616466" d="M28 58a4 4 0 0 0 8 0h-8z"/><path fill="#FFCE31" d="M24.938 48h14.125c.838-4.313 3.513-8.504 6.315-12.898C48.632 30 52 24.717 52 19.586 52 9.889 43.027 2 32 2S12 9.889 12 19.586c0 5.131 3.368 10.414 6.621 15.516 2.804 4.394 5.482 8.586 6.317 12.898z"/><path fill="#C79127" d="M26.449 33.595c.144.596.273 1.194.425 1.772l.771 3.17c.92 3.758 1.73 6.986 2.371 9.463h.594a693.507 693.507 0 0 0-2.105-9.628l-.72-3.178c-.131-.534-.244-1.075-.368-1.632.832-.183 2.653-.803 4.584-2.889 1.932 2.086 3.752 2.706 4.584 2.889-.124.557-.237 1.098-.368 1.632l-.719 3.178A681.113 681.113 0 0 0 33.392 48h.594a769.07 769.07 0 0 0 2.372-9.463c.246-1.022.505-2.078.771-3.17.149-.578.28-1.177.424-1.772.756-.051 1.479-.286 2.043-.804.578-.569.88-1.314.744-2.107-.061-.381-.345-.872-.896-1.041a1.421 1.421 0 0 0-.832-.018 1.58 1.58 0 0 0-.598.396c-.533.592-.726 1.183-.945 1.769a14.35 14.35 0 0 0-.265.88s-.85.066-2.668-1.156c-1.01-.68-1.302-1.172-1.595-1.496.316-.352.619-.736.854-1.203.124-.26.23-.543.266-.861a1.637 1.637 0 0 0-.205-.99 1.752 1.752 0 0 0-.866-.758c-.182-.066-.385-.096-.588-.096s-.407.029-.588.096a1.748 1.748 0 0 0-.866.758c-.182.311-.24.672-.205.99.037.318.142.602.267.861.234.467.538.852.854 1.203-.293.324-.586.816-1.595 1.496-1.818 1.223-2.669 1.156-2.669 1.156a13.666 13.666 0 0 0-.264-.88c-.22-.586-.411-1.177-.945-1.769a1.558 1.558 0 0 0-.598-.396 1.421 1.421 0 0 0-.832.018c-.552.169-.836.66-.896 1.041-.136.793.166 1.538.744 2.107.564.518 1.285.753 2.04.804zm11.54-1.543c.189-.526.43-1.099.758-1.443.077-.087.158-.122.198-.146 0 .002.098-.012.16.018.112.027.217.143.258.363.08.428-.122.98-.49 1.325-.258.246-.655.417-1.074.495.059-.205.12-.412.19-.612zm-6.592-4.704c.164-.248.38-.389.603-.389s.438.141.604.389c.195.31.127.731-.064 1.145-.14.292-.333.57-.54.837a4.637 4.637 0 0 1-.539-.838c-.191-.413-.26-.835-.064-1.144zm-6.76 3.496c.041-.221.146-.336.259-.363.062-.029.16-.016.16-.018.039.023.12.059.195.146.33.345.57.917.76 1.443.07.2.13.407.189.612-.418-.078-.816-.249-1.073-.495-.368-.345-.57-.898-.49-1.325z"/><path fill="#94989B" d="M24.852 49.959H39.19v1.84H24.852zM25.852 53.639H38.19v1.84H25.852z"/><path fill="#616466" d="M25.852 51.799H38.19v1.84H25.852z"/><path fill="#94989B" d="M39.189 49.959l-13.337 3.68v1.84l13.337-3.68zM26.852 57.318H37.19v1.84H26.852z"/><path fill="#616466" d="M26.852 55.479H37.19v1.84H26.852z"/><path fill="#94989B" d="M38.189 53.639l-11.337 3.679v1.84l11.337-3.679z"/></svg>