<svg xmlns="http://www.w3.org/2000/svg" width="64" height="64" viewBox="0 0 64 64"><path fill="#AFCDDB" d="M62.467 22.338c1.689 1.69 2.04 4.245.766 5.727L33.696 62.404c-1.793 2.084-4.93 2.141-6.978.093L1.503 37.281c-2.048-2.047-1.991-5.186.093-6.978L35.935.767c1.481-1.274 4.037-.924 5.727.766l20.805 20.805z"/><path fill="#333" d="M50.841 10.712L12.627 48.406l-8.899-8.9L43.497 3.369z"/><path fill="#FFF" d="M49.432 18.333l-26.88 27.435 7.202 7.203 25.951-28.365z"/><path fill="#4F5B60" d="M34.087 43.318c-1.513-1.396-.613-4.012-.063-5.439.854-2.208 1.753 2.032 1.799 2.688a20.968 20.968 0 0 1-.564 6.416 15.809 15.809 0 0 1-1.263 3.383 5.079 5.079 0 0 1-1.388 1.713c-1.451.876-2.373.023-2.748-2.547.167-.82.53-1.517 1.087-2.088 1.894-2.352 4.89-3.541 7.083-5.369.217-.18-.13-.521-.343-.344-2.623 2.18-8.011 3.98-8.345 8.289-.221 2.849 2.668 3.459 4.218 1.875 2.015-2.062 2.53-5.817 2.704-8.63.101-1.638.517-6.171-1.89-6.721-.106-.024-.198.007-.25.097-.953 1.675-2.315 5.186-.344 7.006.233.214.54-.114.307-.329z"/><path fill="#4F5B60" d="M37.353 41.695c2.147 1.192 2.693-3.549 2.411-4.844-.042-.193-.271-.207-.379-.121-1.132.904-1.332 3.286-.37 4.671.104.152.312.171.392.015.651-1.281 1.117-2.62 1.571-3.975.192-.574.687-.441 1.078-.838.799-.808 1.572-1.63 2.352-2.432.985-1.016 1.324-2.36 2.233-3.38 1.161-1.304 2.277-1.933 2.857-3.725.133-.41.143-1.36-.562-1.414-1.36-.105-2.552 2.77-.739 2.494 2.219-.338 4.207-2.919 5.647-4.293.171-.164-.145-.478-.314-.315a60.416 60.416 0 0 1-2.215 2.017 22.331 22.331 0 0 1-1.9 1.474c-.335.231-2.872 1.351-1.261-.532l.857.667c-.094.24-.199.471-.32.696-.21.422-.482.812-.759 1.185-.531.722-1.373 1.145-1.975 1.819-.765.856-1.064 2.083-1.883 2.977-.361.395-2.335 2.918-3.037 2.621-.088-.036-.21.012-.24.096-.227.652-.448 1.31-.673 1.969-.082.241-1.02 2.119-.992 2.183-.411-.981-.27-2.231.073-3.091.27.547.312 1.076.122 1.592-.158 1.169-.752 1.867-1.78 2.086-.268-.151-.465.249-.194.398z"/></svg>