<svg xmlns="http://www.w3.org/2000/svg" width="64" height="64" viewBox="0 0 64 64"><path fill="#428BC1" d="M0 46.5h64v9H0z"/><path fill="#42ADE2" d="M0 8.5h64v38H0z"/><path fill="#94989B" d="M24 46.5h16v9H24z"/><path fill="#428BC1" d="M4 12.5h56v30H4z"/><path fill="#42ADE2" d="M7 15.5h50v24H7z"/><circle fill="#428BC1" cx="45" cy="27.5" r="8"/><path fill="#D0D0D0" d="M24 8.5h16v38H24z"/><path fill="#FFF" d="M19.338 33.5a6.064 6.064 0 0 1-5.238-3h6.674v-2h-7.402c-.055-.326-.09-.658-.09-1s.035-.674.09-1h7.402v-2H14.1a6.068 6.068 0 0 1 5.238-3c.408 0 .814.04 1.211.119L21 19.664a8.477 8.477 0 0 0-1.662-.164c-3.434 0-6.375 2.072-7.594 5H9v2h2.211c-.041.328-.07.66-.07 1s.029.672.07 1H9v2h2.744c1.219 2.927 4.16 5 7.594 5A8.47 8.47 0 0 0 21 35.336l-.451-1.955a6.286 6.286 0 0 1-1.211.119z"/></svg>