<svg xmlns="http://www.w3.org/2000/svg" width="64" height="64" viewBox="0 0 64 64"><path fill="#962C2C" d="M49.252.172L26.961 8.724s-.801-1.97-1.543-3.149c-1.731-2.75-4.691-1.905-4.691-1.905L3.726 9.773S1.378 10.859.42 13.738c-.945 2.838 0 6.298 0 6.298L10.242 64l39.01-37.551s1.305-16.757 2.086-24.524C51.613-.81 49.252.172 49.252.172z"/><path fill="#FF8736" d="M10.242 64l42.693-33.353S63.57 9.209 63.932 7.676c.435-1.833-1.386-1.222-1.386-1.222L39.753 17.106s-1.354 6.026-4.094 7.606c-2.989 1.725-17.001 9.342-17.001 9.342s-1.997 1.311-3.148 3.421C14.408 39.496 10.242 64 10.242 64z"/></svg>