<svg xmlns="http://www.w3.org/2000/svg" width="64" height="64" viewBox="0 0 64 64"><path fill="#D9E3E8" d="M0 0c17.302 17.046 6.697 46.953 24 64 12.729-8.352 27.271-16.648 40-25-7.652-7.539-8.296-18.363-10-28-7.939-3.025-16.6-6.951-29-11H0z"/><g fill="#7D8B91"><path d="M13.042 9.016c.418.813.8 1.641 1.146 2.48l16.229-2.962a28.51 28.51 0 0 0-.995-2.157l-16.38 2.639zM16.39 18.801l15.941-3.916a43.27 43.27 0 0 0-.556-2.313L15.75 16.14c.237.88.449 1.766.64 2.661zM17.587 26.46l31.571-9.834a76.775 76.775 0 0 0-.259-2.04l-31.663 9.113c.129.917.243 1.837.351 2.761z"/></g><path opacity=".5" fill="#333" d="M25 0c4.854 4.784 2.92 17.885 4 24 7.046-1.857 17.954-11.144 25-13-7.939-3.025-16.6-6.951-29-11z"/><path fill="#7D8B91" d="M22.112 51.324c.354.838.743 1.664 1.17 2.475l15.041-8.49a28.246 28.246 0 0 1-1.017-2.15l-15.194 8.165z"/><path fill="#D9E3E8" d="M25 0c4.854 4.784 6.6 10.571 7.68 16.686C39.726 14.829 46.954 12.856 54 11 46.061 7.975 37.4 4.049 25 0z"/></svg>