<svg xmlns="http://www.w3.org/2000/svg" width="64" height="64" viewBox="0 0 64 64"><path fill="#676E72" d="M58.42 2.51C55.859-.955 35.663 14.292 38.223 17.757c1.965 2.659 4.457 4.61 7.098 5.773-2.673 2.693-5.765 5.404-9.197 7.998-3.451 2.604-6.916 4.838-10.242 6.67-.356-2.887-1.499-5.854-3.462-8.51C19.86 26.223-.335 41.471 2.225 44.935c3.583 4.852 8.919 7.361 13.712 6.974 6.416-.392 16.37-4.872 26.176-12.276C53.39 31.12 61.054 21.32 61.833 15.165c.624-4.045-.488-8.696-3.413-12.655z"/><g fill="#373E42"><path d="M8.032 47.161c.023.017.048.03.072.046-.255-.182-.598-.424-.072-.046z"/><path d="M8.032 47.161c-1.784-1.284-4.402-2.653-3.81-5.117-4.263 4.251 7.072 9.158 10.25 8.319a23.533 23.533 0 0 1-6.368-3.156c.21.15.361.26-.072-.046zM47.055 21.818c-2.322-1.153-7.608-3.729-6.834-6.953-4.264 4.252 7.07 9.159 10.25 8.319a24.307 24.307 0 0 1-3.416-1.366z"/></g><path fill="#373E42" d="M51.779 42.515c.608-.819 1.473-1.614 2.547-2.323a.928.928 0 0 0 .258-1.283.918.918 0 0 0-1.275-.27c-1.404.929-2.506 1.984-3.255 3.102a6.372 6.372 0 0 0-1.692-.305c-1.483-.055-2.832.503-3.896 1.612-.621.643-1.091 1.577-1.377 2.626a5.416 5.416 0 0 0-3.555 1.436c-.854.789-1.398 1.823-1.723 2.89-1.838-.054-3.361.843-4.127 1.397a6.303 6.303 0 0 0-1.338-.867c-1.344-.633-2.803-.648-4.219-.047-.822.348-1.621 1.023-2.295 1.876-1.244-.487-2.588-.522-3.834-.073-1.094.391-2.002 1.128-2.718 1.982-2.398-1.107-5.628-1.373-8.746-.648-2.848.662-6-.904-6.584-2.653-.484-1.449 1.214-2.476 2.269-2.96.462-.211.667-.76.458-1.228s-.755-.675-1.215-.462c-3.917 1.793-3.578 4.265-3.251 5.244.94 2.814 5.186 4.694 8.737 3.869 2.571-.6 5.276-.427 7.276.398-.621 1.145-.935 2.26-.936 2.89 0 1.793.921 2.591 1.47 2.905.31.18.651.295 1.006.346a3.11 3.11 0 0 0 2.034-.406c.809-.486 1.282-1.309 1.267-2.2-.029-1.599-.774-3.02-2.155-4.11-.008-.005-.016-.013-.024-.019.479-.518 1.055-.958 1.728-1.198a3.5 3.5 0 0 1 2.206-.066c-.781 1.589-1.099 3.408-.54 4.875.495 1.299 1.816 2.005 3.213 1.711 1.404-.293 2.348-1.473 2.292-2.871-.063-1.631-.948-3.271-2.337-4.385.436-.506.918-.902 1.393-1.104.953-.404 1.848-.397 2.732.018.277.131.537.293.781.477a5.706 5.706 0 0 0-.689.948c-.701 1.218-.844 2.595-.402 3.88.604 1.746 2.068 2.147 3.169 1.776 1.396-.466 2.462-2.169 1.829-4.208-.18-.582-.587-1.41-1.192-2.225l-.128-.139c.602-.433 1.455-.86 2.514-.873-.123 1.296.025 2.445.271 3.025.703 1.649 1.863 2.021 2.492 2.097.355.043.715.015 1.061-.077a3.125 3.125 0 0 0 1.713-1.172c.553-.765.666-1.706.301-2.521-.654-1.458-1.896-2.474-3.594-2.935l-.031-.008c.238-.664.596-1.296 1.119-1.781a3.512 3.512 0 0 1 2.004-.926c-.096 1.768.326 3.566 1.415 4.695.966 1.002 2.458 1.133 3.628.314 1.176-.82 1.58-2.275.98-3.539-.698-1.477-2.154-2.638-3.869-3.117.201-.637.49-1.19.848-1.563.719-.744 1.544-1.09 2.521-1.055.305.012.609.059.904.131a5.787 5.787 0 0 0-.262 1.143c-.168 1.396.242 2.719 1.152 3.728 1.24 1.37 2.744 1.165 3.611.392 1.102-.977 1.414-2.961.031-4.59-.395-.464-1.094-1.065-1.971-1.576zM21.226 59.396c.007.285-.196.466-.366.568-.367.22-.857.236-1.193.045-.447-.257-.542-.844-.541-1.292-.001-.292.232-1.095.698-1.966.912.738 1.384 1.628 1.402 2.645zm6.72-1.638c.03.762-.684.948-.826.979-.142.031-.861.143-1.128-.561-.352-.921-.105-2.178.441-3.314.893.773 1.473 1.864 1.513 2.896zm5.907-.227c-.476.157-.728-.254-.857-.627-.268-.773-.179-1.58.254-2.332.109-.188.238-.369.386-.545.46.635.76 1.256.869 1.612.341 1.105-.219 1.747-.652 1.892zm7.759-3.577c.118.261.003.506-.114.667-.251.346-.696.555-1.08.51-.512-.062-.83-.564-1.005-.977-.114-.269-.216-1.098-.128-2.082 1.129.321 1.912.953 2.327 1.882zm5.539-4.143c.326.688-.257 1.141-.376 1.225s-.736.469-1.258-.072c-.685-.71-.951-1.964-.895-3.223 1.126.36 2.089 1.136 2.529 2.07zm5.345-2.526c-.377.332-.77.053-1.035-.24-.55-.607-.785-1.383-.682-2.244.027-.216.074-.434.141-.652.673.403 1.191.856 1.434 1.142.747.881.484 1.69.142 1.994z"/></svg>