<svg xmlns="http://www.w3.org/2000/svg" width="64" height="64" viewBox="0 0 64 64"><path fill="#3E4347" d="M41.196 3.44l-26.125 7.455-4.124 1.177c-3.038.867-3.241 2.592-2.403 5.628l11.338 41.09c.838 3.037 1.641 3.486 4.678 2.619l4.125-1.177 26.125-7.455c3.038-.867 4.821-4.031 3.984-7.069L48.214 7.37a5.653 5.653 0 0 0-7.018-3.93z"/><path fill="#D0D0D0" d="M39.011 2.844l-25.804 8.533-4.074 1.347c-3.001.992-3.135 2.725-2.176 5.724l12.976 40.584c.958 3 1.779 3.415 4.779 2.423l4.074-1.347 25.805-8.533c3-.991 4.654-4.228 3.695-7.227L46.18 6.479a5.646 5.646 0 0 0-7.169-3.635z"/><path fill="#42ADE2" d="M37.124 2.357l-25.498 9.438L28.86 59.947l25.498-9.438c2.964-1.097 4.507-4.389 3.447-7.354L44.413 5.737c-1.06-2.964-4.324-4.477-7.289-3.38z"/><path fill="#3E4347" d="M7.601 13.285c-2.964 1.098-3.039 2.833-1.979 5.797l14.353 40.102c1.062 2.965 1.896 3.352 4.859 2.254l4.026-1.49-17.234-48.154-4.025 1.491z"/><path fill="#FFF" d="M41.501 21.444l-15.795 5.848-2.242-6.266 15.795-5.846z"/></svg>