<svg xmlns="http://www.w3.org/2000/svg" width="64" height="64" viewBox="0 0 64 64"><path fill="#D9E3E8" d="M62 60.125C62 61.161 61.16 62 60.125 62H3.875A1.874 1.874 0 0 1 2 60.125V17c0-1.036.839-1.875 1.875-1.875h56.25C61.16 15.125 62 15.964 62 17v43.125z"/><path fill="#FF5A79" d="M59.188 57.313c0 1.036-.84 1.875-1.875 1.875H6.688a1.874 1.874 0 0 1-1.875-1.875v-37.5c0-1.036.839-1.875 1.875-1.875h50.625c1.035 0 1.875.839 1.875 1.875v37.5z"/><g fill="#FFF"><path d="M8.709 30.07V19.743h2.144v3.937h4.015v-3.937h2.143V30.07h-2.143v-4.611h-4.015v4.611H8.709zM26.723 21.571h-5.465v2.193h5.017v1.794h-5.017v2.655h5.717v1.857H19.15V19.743h7.573v1.828zM28.656 19.743h2.158v8.47h5.158v1.857h-7.316V19.743zM37.423 19.743h2.157v8.47h5.156v1.857h-7.313V19.743zM54.14 29.153c-.779.804-1.908 1.205-3.385 1.205-1.476 0-2.604-.401-3.383-1.205-1.047-.985-1.571-2.406-1.571-4.26 0-1.892.524-3.312 1.571-4.26.778-.804 1.907-1.206 3.383-1.206 1.477 0 2.605.402 3.385 1.206 1.042.948 1.563 2.368 1.563 4.26-.001 1.854-.521 3.274-1.563 4.26zm-1.349-1.57c.502-.632.753-1.528.753-2.691 0-1.159-.251-2.054-.753-2.688-.502-.632-1.182-.949-2.036-.949-.854 0-1.536.316-2.046.947-.508.631-.764 1.527-.764 2.69s.256 2.059.764 2.691c.51.63 1.192.945 2.046.945.854 0 1.534-.315 2.036-.945z"/></g><path fill="#8B979E" d="M36.688 15.156c0 1.019-.795 1.844-1.774 1.844h-5.826c-.979 0-1.774-.825-1.774-1.844V4.708c0-1.018.795-1.844 1.774-1.844h5.826c.979 0 1.774.826 1.774 1.844v10.448z"/><path fill="#B0BDC6" d="M36.688 14.292c0 1.018-.795 1.844-1.774 1.844h-5.826c-.979 0-1.774-.826-1.774-1.844V3.844C27.313 2.826 28.107 2 29.087 2h5.826c.979 0 1.774.826 1.774 1.844v10.448z"/><path fill="#FFF" d="M56.375 54.5c0 1.036-.84 1.875-1.875 1.875h-45A1.874 1.874 0 0 1 7.625 54.5V33.875C7.625 32.84 8.464 32 9.5 32h45c1.035 0 1.875.84 1.875 1.875V54.5z"/><g fill="#FF5A79"><path d="M16.161 33.85H17.5v4.449h-.867v-3.01l.003-.363c.002-.157.002-.276.002-.36l-.842 3.733h-.904l-.837-3.733.003.36.003.363v3.01h-.867V33.85h1.353l.81 3.497.804-3.497zM18.42 38.929l.109.007c.084.004.165 0 .242-.009a.448.448 0 0 0 .193-.069.47.47 0 0 0 .14-.215c.043-.109.062-.176.056-.199l-1.208-3.435h.957l.718 2.426.679-2.426h.916l-1.129 3.235c-.218.624-.39 1.011-.518 1.16-.126.15-.381.226-.762.226-.076 0-.138 0-.185-.002a2.55 2.55 0 0 1-.208-.011v-.688zM26.1 35.197c.215.178.323.473.323.886v2.216h-.882v-2.001a.916.916 0 0 0-.069-.399c-.084-.169-.244-.253-.479-.253-.29 0-.489.123-.596.372-.056.13-.084.297-.084.5v1.781h-.86v-3.285h.833v.48c.11-.169.213-.29.313-.365.176-.133.399-.199.67-.199.338 0 .615.09.831.267zM28.525 36.298c.16-.021.276-.046.344-.077.123-.052.185-.132.185-.244 0-.133-.047-.227-.143-.277-.094-.052-.233-.077-.417-.077-.206 0-.352.049-.438.149a.627.627 0 0 0-.123.303h-.83c.018-.287.098-.525.242-.711.229-.289.621-.434 1.177-.434.361 0 .683.071.964.214.281.144.422.412.422.81v1.509c0 .104.001.232.006.381a.468.468 0 0 0 .051.229c.028.04.07.072.127.101v.126h-.937a1.013 1.013 0 0 1-.054-.187 1.963 1.963 0 0 1-.024-.2c-.12.129-.257.238-.414.33a1.25 1.25 0 0 1-.631.159c-.3 0-.547-.084-.742-.255-.196-.17-.294-.412-.294-.723 0-.405.157-.698.472-.879.172-.1.425-.169.76-.211l.297-.036zm.527.4a.812.812 0 0 1-.167.083 1.513 1.513 0 0 1-.231.061l-.196.034a1.275 1.275 0 0 0-.396.119.391.391 0 0 0-.204.364c0 .146.042.255.125.318.083.066.184.1.302.1a.912.912 0 0 0 .52-.163c.158-.11.24-.308.246-.596v-.32zM34.767 35.021a.926.926 0 0 1 .383.295.942.942 0 0 1 .188.423c.021.109.03.272.03.485l-.006 2.074h-.882v-2.095a.673.673 0 0 0-.061-.308c-.076-.154-.217-.23-.422-.23-.238 0-.402.099-.493.297a.93.93 0 0 0-.068.377v1.959h-.867V36.34c0-.196-.02-.337-.06-.425-.072-.159-.215-.24-.425-.24-.247 0-.411.081-.497.24-.045.09-.068.225-.068.404v1.979h-.873v-3.285h.836v.48c.107-.171.207-.293.302-.365.167-.128.383-.193.649-.193.251 0 .454.055.61.166a.956.956 0 0 1 .283.396 1.12 1.12 0 0 1 .42-.427c.178-.09.374-.135.591-.135.145.001.289.03.43.086zM38.303 35.074c.229.103.418.266.568.487.135.196.223.423.262.681.023.15.033.368.028.652h-2.396c.014.331.128.563.344.695.132.081.29.123.476.123.195 0 .354-.05.478-.15a.753.753 0 0 0 .177-.227h.878c-.022.193-.129.394-.319.595-.294.318-.707.479-1.237.479-.438 0-.824-.135-1.159-.404-.335-.271-.502-.709-.502-1.318 0-.569.151-1.007.454-1.311.301-.305.693-.456 1.177-.456.282.001.54.052.771.154zm-1.287.743a.895.895 0 0 0-.229.51h1.482c-.016-.228-.093-.401-.229-.521a.763.763 0 0 0-.51-.178c-.221.001-.393.065-.514.189zM42.198 34.616h-.872v-.794h.872v.794zm-.872.393h.872v3.29h-.872v-3.29zM43.698 37.248c.019.153.058.262.119.326.107.115.305.172.595.172.17 0 .304-.024.404-.075.1-.052.15-.126.15-.228 0-.097-.04-.17-.121-.22-.08-.051-.381-.137-.9-.26-.374-.093-.638-.207-.791-.348-.152-.136-.229-.333-.229-.592 0-.304.12-.563.359-.781.238-.22.574-.328 1.009-.328.411 0 .746.081 1.005.245.259.165.408.447.447.85h-.861a.526.526 0 0 0-.093-.262c-.096-.117-.257-.176-.484-.176-.188 0-.321.029-.402.088-.078.059-.119.127-.119.205 0 .099.042.17.128.215.084.045.383.126.897.239.343.081.6.201.771.364a.83.83 0 0 1 .253.619 1 1 0 0 1-.364.799c-.243.206-.618.309-1.127.309-.518 0-.9-.109-1.147-.327a1.06 1.06 0 0 1-.37-.835h.871zM46.454 37.396h.916v.902h-.916v-.902zM48.173 37.396h.915v.902h-.915v-.902zM49.891 37.396h.914v.902h-.914v-.902z"/></g></svg>