<svg xmlns="http://www.w3.org/2000/svg" width="64" height="64" viewBox="0 0 64 64"><path fill="#89664C" d="M31.999 64l-32-19.211V19.177l32 19.21z"/><path fill="#FED0AC" d="M31.999 38.387V64l32-19.211V19.177z"/><path fill="#D3976E" d="M-.001 19.177l32 19.21 32-19.176L31.999 0z"/><path fill="#89664C" d="M50.947 27.031L18.962 7.813l-5.967 3.576L44.98 30.607z"/><path fill="#D0D0D0" d="M39.322 6.754L32.25 2.412l-5.967 3.576 7.072 4.341z"/><path fill="#D3976E" d="M50.832 27.1l-5.669 3.398v9.213l5.669-3.404z"/><path fill="#FFF" d="M62.457 22.1l-5.669 3.398v9.212l5.669-3.403zM41.614 43.466l-7.733 4.636v12.567l7.733-4.643z"/><path fill="#D3976E" d="M45.163 56.096l5.669-3.403v-9.227l-5.669 3.403z"/></svg>