<svg xmlns="http://www.w3.org/2000/svg" width="64" height="64" viewBox="0 0 64 64"><path fill="#C94747" d="M56.66.016V0H9.727v.015C9.683.014 9.643 0 9.599 0c-4.712 0-9.6 6.954-9.6 26.001V64h4.267v-5.996h38.399V64h4.268l3.072-1.449v-5.988l6.655-3.119v3.947h4.267l3.072-1.449V20.001C63.999 9.058 61.292.18 56.66.016z"/><path fill="#ED4C5C" d="M9.727 0h46.934v32.002H9.727z"/><path fill="#881A0E" d="M56.66 50.753h4.267v6.638H56.66z"/><path fill="#ED4C5C" d="M17.065 20.001l-17.066 6C-.001 6.954 4.887 0 9.599 0s7.466 8.955 7.466 20.001z"/><path fill="#ED4C5C" d="M17.065 50.003L-.001 58.004V26.001l17.066-6z"/><path fill="#C94747" d="M63.999 50.003l-17.066 8.001V26.001l17.066-6z"/><path fill="#C94747" d="M50.005 62.551L46.933 64v-6l3.072-1.449zM63.999 55.941l-3.072 1.45v-6l3.072-1.451z"/><path fill="#ED4C5C" d="M-.001 26.001V64h4.267v-5.996h38.399V64h4.268V26.001z"/><path fill="#C94747" d="M42.665 32.911c0-2.2-1.919-4-4.266-4H8.532c-2.347 0-4.267 1.8-4.267 4v18.183c0 2.2 1.92 4 4.267 4h29.867c2.347 0 4.266-1.8 4.266-4V32.911z"/><path fill="#ED4C5C" d="M41.449 34.195c0-2.2-1.92-4-4.267-4H9.749c-2.347 0-4.267 1.8-4.267 4V49.81c0 2.2 1.92 4 4.267 4h27.434c2.347 0 4.267-1.8 4.267-4V34.195z"/><g fill="#FFF"><path d="M14.599 37.684h2.77v8.638h-1.793v-5.843c0-.168.002-.402.006-.705.004-.303.006-.537.006-.701l-1.746 7.249h-1.871l-1.733-7.249c0 .164.002.398.006.701.004.303.006.537.006.705v5.843H8.456v-8.638h2.801l1.677 6.791 1.665-6.791zM21.784 37.684h2.178l3.26 8.638h-2.088l-.607-1.776h-3.393l-.625 1.776h-2.013l3.288-8.638zm-.127 5.373h2.359l-1.164-3.398-1.195 3.398zM30.149 46.321h-1.912v-8.638h1.912v8.638zM31.95 37.684h1.925v7.085h4.601v1.553H31.95v-8.638z"/></g><path fill="#881A0E" d="M43.665 19.111H18.361l-12.458 3.38h37.762z"/><path fill="#AF2B2B" d="M12.911 3.511h39.538v15.6H12.911z"/><path fill="#ED4C5C" d="M59.732 20.001l-17.067 6C42.665 6.954 47.554 0 52.266 0s7.466 8.955 7.466 20.001z"/><path fill="#C94747" d="M18.361 19.111l-12.458 3.38c0-13.904 3.567-18.98 7.008-18.98 3.44 0 5.45 7.536 5.45 15.6zM63.999 20.001l-17.066 6C46.933 6.954 51.819 0 56.532 0s7.467 8.955 7.467 20.001z"/></svg>