<svg xmlns="http://www.w3.org/2000/svg" width="64" height="64" viewBox="0 0 64 64"><path fill="#94989B" d="M30.025 63.054s19.724-25.311 33.974-33.143C57.586 17.378 25.781 4.942 25.781 4.942L5.675 31.161 25.3 62.819c1.084 1.47 3.212 1.59 4.725.235z"/><path fill="#D0D0D0" d="M26.025 57.911S64.308 31.227 59.52 15.828C48.837 16.804 28.271 2.211 26.762 0 20.74 8.772 8.118 15.515 2.414 23.077c-2.309 3.061-3.462 5.338-1.167 8.838L25.3 62.819c-1.056-1.431-.72-3.615.725-4.908z"/><path fill="#94989B" d="M47.274 32.383l-28.33-22.197.739-.661 28.601 21.954zM17.946 31.161L7.66 20.526c4.886-5.649 8.922-8.226 8.922-8.226l11.596 9.702-10.232 9.159zM24.656 52.63L2.774 25.811c.56-2.369 2.592-3.47 2.592-3.47l23.33 26.673-4.04 3.616zM30.809 24.203l-3.516 3.146 12.711 11.543 4.039-3.616zM23.778 30.496l-3.514 3.146 11.664 12.48 4.037-3.615z"/><g fill="#94989B"><path d="M28.321 4.37l1.116.705-1.664 4.69 3.762-3.366 1.066.673-5.458 4.886-1.074-.784 1.715-4.811-3.732 3.341-.931-.679 5.2-4.655zM37.075 11.458L33.92 9.416l-1.189 1.064 2.852 1.904-1.002.897-2.821-1.931-1.438 1.289 3.176 2.257-1.042.933-4.245-3.094 5.527-4.948 4.364 2.754-1.027.917zM40.159 11.84l-2.55 3.604-.77.979 1.119-.708 4.209-2.608 1.516.957-2.7 3.694-.778 1.026 1.162-.704 4.553-2.605 1.574.994-8.303 4.271-1.34-.977 2.774-3.767.938-1.211-1.412.895-4.316 2.614-1.212-.883 4.113-6.467 1.423.896zM45.133 21.819c-.248.299-.375.564-.38.796-.008.424.304.863.944 1.319.387.276.738.47 1.055.579.605.208 1.1.144 1.479-.195.221-.198.274-.432.163-.701-.114-.266-.376-.611-.783-1.034l-.684-.717c-.66-.695-1.047-1.22-1.168-1.583-.206-.605.005-1.187.633-1.75.573-.513 1.299-.779 2.184-.798.894-.018 1.847.289 2.869.93.868.545 1.433 1.185 1.686 1.917.257.741.042 1.446-.648 2.111l-1.66-1.094c.372-.379.438-.777.198-1.191-.159-.274-.438-.539-.834-.795-.438-.282-.856-.442-1.256-.482-.397-.04-.721.053-.974.279-.231.208-.28.445-.146.713.086.175.339.485.765.931l1.12 1.179c.5.526.808.988.918 1.385.174.619-.043 1.202-.648 1.744-.62.556-1.422.812-2.397.77-.965-.042-1.944-.43-2.931-1.152-.988-.722-1.56-1.454-1.727-2.198-.166-.736.085-1.399.75-1.994l1.472 1.031z"/></g></svg>