<svg xmlns="http://www.w3.org/2000/svg" width="64" height="64" viewBox="0 0 64 64"><circle fill="#FF5A79" cx="32" cy="31.999" r="30"/><circle fill="#333" cx="32" cy="31.999" r="24"/><path fill="#FFF" d="M37.766 14.996H26.233c-2.123 0-3.844 1.691-3.844 3.779v26.448c0 2.088 1.721 3.779 3.844 3.779h11.532c2.124 0 3.845-1.691 3.845-3.779V18.775c0-2.087-1.72-3.779-3.844-3.779zm-7.647 1.379h3.761c.266 0 .481.213.481.473a.477.477 0 0 1-.481.473h-3.761a.475.475 0 0 1-.48-.473c0-.26.215-.473.48-.473zM32 47.101c-.637 0-1.153-.508-1.153-1.133s.517-1.133 1.153-1.133c.638 0 1.153.508 1.153 1.133s-.515 1.133-1.153 1.133zm7.688-4.143H24.312V18.775h15.377v24.183z"/><path fill="#FF5A79" d="M50.515 54.758L9.24 13.485l4.243-4.243 41.274 41.273z"/></svg>