<svg xmlns="http://www.w3.org/2000/svg" width="64" height="64" viewBox="0 0 64 64"><circle fill="#FF5A79" cx="32" cy="32" r="30"/><circle fill="#333" cx="32" cy="32" r="24"/><path fill="#FFF" d="M41.476 28.113V13.879c0-.485-.424-.879-.946-.879s-.945.394-.945.879v.455L25.44 24.281h-6.17c-1.247 0-2.259.939-2.259 2.1V37.617c0 1.161 1.012 2.102 2.259 2.102h6.17l14.145 9.947v.455c0 .484.423.879.945.879s.946-.395.946-.879V35.886c2.309 0 4.18-1.739 4.18-3.886-.001-2.147-1.872-3.887-4.18-3.887z"/><path fill="#FF5A79" d="M50.515 54.758L9.243 13.486l4.242-4.242 41.272 41.273z"/></svg>