<svg xmlns="http://www.w3.org/2000/svg" width="64" height="64" viewBox="0 0 64 64"><path fill="#FFCE31" d="M2 28.262v31.433C2 62.072 3.919 64 6.285 64h51.43C60.081 64 62 62.072 62 59.694V28.262H2z"/><path fill="#FF8736" d="M62 23.956c0-2.378-1.919-4.306-4.285-4.306H6.285C3.919 19.65 2 21.578 2 23.956v4.306h60v-4.306z"/><g fill="#3E4347"><ellipse cx="12.367" cy="23.528" rx="5.92" ry="2.503"/><ellipse cx="51.633" cy="23.528" rx="5.92" ry="2.503"/></g><path fill="#3E4347" d="M36.609 56.4l-1.913-12.262a4.58 4.58 0 0 0 1.866-3.693c0-2.531-2.044-4.584-4.563-4.584s-4.562 2.053-4.562 4.584c0 1.518.736 2.859 1.866 3.693L27.391 56.4h9.218z"/><g><path fill="#DFE9EF" d="M32 0a23.238 23.238 0 0 0-14.755 5.275l2.902 2.902C23.447 5.483 27.55 3.874 32 3.874c10.365 0 18.88 8.682 19.634 19.653h.001v1.419c2.204 0 3.784-.636 3.784-1.419C55.419 10.555 44.912 0 32 0z"/><path fill="#B0BDC6" d="M51.634 23.528C50.88 12.557 42.365 3.875 32 3.875c-4.449 0-8.553 1.608-11.853 4.303l2.825 2.825c2.428-1.831 5.475-3 9.027-3 9.547 0 15.455 8.423 15.455 15.525 0 .783 1.973 1.419 4.18 1.419v-1.419z"/></g></svg>