<svg xmlns="http://www.w3.org/2000/svg" width="64" height="64" viewBox="0 0 64 64"><path fill="#EDA454" d="M57 7.024c-6.666-6.699-17.475-6.7-24.142.001-5.458 5.486-6.439 13.761-2.961 20.258-.011.01-.026.011-.036.021L5.476 51.98 2 60.376 3.604 62l6.285-.586 26.836-27.157c.013-.013.015-.032.025-.045 6.479 3.56 14.764 2.594 20.25-2.92 6.667-6.701 6.667-17.565 0-24.268zm-4.755 12.135a5.154 5.154 0 0 1-7.315 0 5.218 5.218 0 0 1 0-7.353 5.151 5.151 0 0 1 7.314 0 5.218 5.218 0 0 1 .001 7.353z"/><path fill="#CC7F2B" d="M15.756 57.457l1.48-1.498.005-1.992-7.352 7.447 4.411-.497 1.45-1.468zM26.052 47.031l1.479-1.499.006-1.991-8.825 8.936h1.962l1.472-1.491h1.959l1.961-1.984z"/><g fill="#CC7F2B"><path d="M30.515 31.586c.519-.524.231-.68-.04-.953-.269-.273-.422-.564-.939-.04L7.891 52.514c-.517.523-.23.682.04.953.269.273.425.563.941.04l21.643-21.921zM33.457 34.565c.518-.524.23-.68-.041-.952-.269-.272-.422-.564-.939-.041l-21.645 21.92c-.517.523-.229.68.039.954.27.272.426.563.942.04l21.644-21.921z"/></g><path fill="#CC7F2B" d="M56.045 8.002c-6.102-6.134-15.996-6.134-22.098 0-4.59 4.613-5.724 11.381-3.41 17.063-2.063-5.368-.948-11.686 3.36-16.016 5.827-5.858 15.277-5.858 21.105 0 5.828 5.859 5.828 15.358.001 21.216-4.309 4.33-10.594 5.45-15.933 3.377a15.565 15.565 0 0 0 16.974-3.428c6.103-6.133 6.102-16.079.001-22.212z"/></svg>