<svg xmlns="http://www.w3.org/2000/svg" width="64" height="64" viewBox="0 0 64 64"><path fill="#3E4347" d="M28.792 21.93l-5.582 5.755-5.548-5.723 5.58-5.755z"/><path fill="#94989B" d="M16.716 5.068L6.863 15.231a.973.973 0 0 0 0 1.347l3.664 3.78.043.046 3.666 3.78a.903.903 0 0 0 1.305 0l9.855-10.165a.976.976 0 0 0 0-1.346l-7.375-7.605a.903.903 0 0 0-1.305 0zM.271 22.03a.973.973 0 0 0 0 1.347l7.375 7.606a.902.902 0 0 0 1.305 0s2.033-2.122 2.076-2.177L2.38 19.887A628.06 628.06 0 0 0 .271 22.03z"/><path fill="#3E4347" d="M10.527 20.358l-3.664-3.78s1.205 2.11-1.959 2.49c-1.273.153-2.07.441-2.523.819l8.646 8.919c.367-.468.646-1.289.793-2.604.371-3.265 2.416-2.019 2.416-2.019l-3.666-3.78-.043-.045zM39.573 4.288C29.513-6.007 18.412 5.471 18.412 5.471l6.543 6.746s6.289-8.465 14.242-6.124c.924.272 1.746.74 1.98.501.316-.326-.895-1.579-1.604-2.306z"/><path fill="#F2B200" d="M26 24.807l-3.607 3.724s1.863 3 5.063 6.297c3.529 3.642 8.193 5.684 12.851 10.488 7.006 7.227 12.836 14.985 14.949 17.898.797 1.099.924.996 1.898-.01l3.039-3.133L26 24.807z"/><path fill="#FFCE31" d="M26 24.807l3.611-3.723s2.908 1.923 6.105 5.222c3.531 3.64 5.512 8.452 10.17 13.256C52.892 46.789 60.415 52.8 63.24 54.979c1.064.823.965.953-.01 1.96l-3.037 3.133L26 24.807z"/></svg>