<svg xmlns="http://www.w3.org/2000/svg" width="64" height="64" viewBox="0 0 64 64"><path fill="#B6C0C6" d="M58.737 63.999L64 64v-3.36zM63.54 54.192l-45.13-45.1-9.34 9.337 44.441 44.412-1.371-1.372z"/><path fill="#7A8891" d="M64 54.638l-.451-.451-.009.005.46.461zM53.511 62.841L54.671 64z"/><path fill="#7A8891" d="M58.737 63.999L64 60.64v-5.987l-.46-.461-11.4 7.277 1.371 1.372L54.671 64zM55.304 45.968l-11.403 7.283 4.112 4.109 11.408-7.279zM47.066 37.746l-11.408 7.28 4.118 4.118 11.406-7.286zM30.614 21.278l-11.41 7.28 4.118 4.114 11.406-7.282zM38.836 29.51l-11.405 7.285 4.115 4.114 11.409-7.282zM22.384 13.039l-11.406 7.285 4.114 4.114 11.413-7.281z"/><g><path fill="#4F585B" d="M7.053 17.863L0 24.91l10.974 10.965 7.049-7.044z"/><path fill="#8B979E" d="M17.88 7.04L7.053 17.863l10.97 10.968 10.828-10.824z"/><path fill="#CEDAE0" d="M24.925 0L17.88 7.04l10.971 10.967 7.046-7.043z"/></g><g><path fill="#4F585B" d="M28.329 39.135l-7.048 7.044 10.975 10.966 7.045-7.041z"/><path fill="#8B979E" d="M39.157 28.313L28.329 39.135l10.972 10.969 10.828-10.823z"/><path fill="#CEDAE0" d="M46.207 21.269l-7.05 7.044 10.972 10.968 7.05-7.045z"/></g></svg>