<svg xmlns="http://www.w3.org/2000/svg" width="64" height="64" viewBox="0 0 64 64"><path fill="#FF9D33" d="M56.963 26.168s-3.04 2.77-8.117 6.074C47.458 24.16 43.617 14.184 36.005 2c0 0-2.487 13.068-10.774 25.436-3.617-5.598-5.168-9.992-5.168-9.992C-6.015 43.521 15.601 62 29.177 62c17.424 0 32.758-8.361 27.786-35.832z"/><path fill="#FFCE31" d="M46.724 49.432c1.51-3.322 2.554-7.572 2.796-12.994 0 0-2.127 1.848-5.682 4.051-.972-5.389-3.66-12.041-8.988-20.166 0 0-1.742 8.715-7.542 16.961-2.531-3.732-3.617-6.662-3.617-6.662-4.333 6.824-6.025 12.232-6.123 16.459-2.396-.875-3.865-1.631-3.865-1.631 4.095 12.227 12.572 14.883 16.368 14.883 6.783 0 13.689-2.01 20.534-11.707-.001-.001-1.504.415-3.881.806z"/><path fill="#FFDF85" d="M21.932 43.854s2.794 3.826 4.922 2.902c0 0 4.041-6.301 9.839-9.803 0 0-1.191 9.605.177 11.303 1.817 2.258 6.737-2.504 6.737-2.504 0 5.676-6.212 12.828-11.766 12.828-5.514 0-13.335-6.156-9.909-14.726z"/><path fill="#FF9D33" d="M49.778 18.119a45.884 45.884 0 0 0 3.518-6.158c3.512 5.777 1.44 9.288-.104 10.436-2.07 1.542-5.83-.763-3.414-4.278zM11.566 17.132c-2.05-3.525-2.28-7.919-2.28-7.919-5.006 7.549-3.05 11.657-1.384 12.901 2.234 1.67 6.03-.909 3.664-4.982zM23.213 9.291c.256-2.369-.734-4.826-.734-4.826 4.747 3.064 4.691 5.732 4.071 6.771-.834 1.395-3.632.791-3.337-1.945z"/></svg>