<svg xmlns="http://www.w3.org/2000/svg" width="64" height="64" viewBox="0 0 64 64"><path fill="#94989B" d="M24.646 54.319a8275.439 8275.439 0 0 0-4.795-4.789c-6.094-6.088-2.166-10.355-2.166-10.355l-4.583-4.578S5.497 43.38 14.17 52.042l6.378 6.37 4.098-4.093zM33.664 43.984h7.198c4.828-10.917-1.59-24.591-1.729-24.867l-5.767 2.916c.03.055 4.723 13.667.298 21.951z"/><path fill="#333" d="M44.583 46.974l-.007-.021c-1.478-4.68-5.865-8.076-11.056-8.113-5.189.037-9.58 3.434-11.059 8.113l-.006.021L17.227 62h32.584l-5.228-15.026zM19.176 27.056L43.753 6.177l6.332 7.353-24.574 20.877z"/><path fill="#94989B" d="M24.347 33.06l-4.008-4.657-1.914 2.475 3.17 3.676zM51.381 10.092l-4.009-4.655-2.458 2.088 4.012 4.656z"/><path fill="#333" d="M52.544 11.441L46.21 4.087 48.669 2 55 9.352z"/><path fill="#D0D0D0" d="M43.342 25.806c-1.187 3.352-4.885 5.102-8.261 3.911-3.378-1.192-5.153-4.874-3.968-8.225 1.185-3.349 4.881-5.103 8.26-3.91 3.376 1.19 5.152 4.876 3.969 8.224z"/><ellipse fill="#D0D0D0" cx="33.52" cy="50.421" rx="6.484" ry="6.434"/><g fill="#333"><path d="M36.152 26.687c1.688.594 3.54-.284 4.133-1.959.594-1.675-.298-3.516-1.985-4.112-1.688-.595-3.538.279-4.132 1.955-.591 1.674.297 3.518 1.984 4.116z"/><ellipse cx="33.521" cy="50.42" rx="3.244" ry="3.218"/></g><path fill="#333" d="M10.138 30.546L21.656 42.05l-1.138 1.139L9 31.685z"/><path fill="#29ABE2" d="M11.277 29.409l11.518 11.503-1.138 1.14-11.518-11.504z"/></svg>