<svg xmlns="http://www.w3.org/2000/svg" width="64" height="64" viewBox="0 0 64 64"><path fill="#D6DFE3" d="M30.556 24.272S54.559 46.124 62 61.998c0 0-20.091.633-43.281-22.467 0 0 7.645-8.097 6.145-9.59l5.692-5.669z"/><path fill="#AEBABF" d="M20.927 37.044c-1.205 1.423-2.208 2.487-2.208 2.487C41.909 62.631 62 61.998 62 61.998a44.391 44.391 0 0 0-1.596-3.067c-6.677-.891-22.191-4.815-39.477-21.887z"/><path fill="#333" d="M30.81 23.514L9.211 2 2.249 8.934s-.493.47-.092.87c.896.894 1.546.545 2.354.724 1.107.246 2.362 1.494 2.362 1.494l17.989 17.92 5.945-5.922a.353.353 0 0 0 .003-.506z"/><path fill="#D0D0D0" d="M9.104 8.068a.88.88 0 0 1-1.241-.001.87.87 0 0 1 0-1.235.88.88 0 0 1 1.241-.001.873.873 0 0 1 0 1.237z"/></svg>