<svg xmlns="http://www.w3.org/2000/svg" width="64" height="64" viewBox="0 0 64 64"><ellipse fill="#A29B95" cx="32.001" cy="55.132" rx="17.886" ry="6.866"/><ellipse fill="#DDDAD5" cx="32" cy="53.551" rx="16.498" ry="5.285"/><ellipse fill="#A29B95" cx="32" cy="51.215" rx="10.5" ry="4.221"/><ellipse fill="#DDDAD5" cx="32" cy="50.604" rx="9.848" ry="3.008"/><ellipse fill="#A29B95" cx="32" cy="42.534" rx="10.5" ry="8.628"/><ellipse fill="#DDDAD5" cx="32" cy="40.833" rx="8.923" ry="6.927"/><g><ellipse fill="#A29B95" cx="32" cy="36.275" rx="11.454" ry="4.42"/><ellipse fill="#DDDAD5" cx="32" cy="35.38" rx="10.164" ry="3.479"/></g><g><ellipse fill="#A29B95" cx="32" cy="29.431" rx="21" ry="6.866"/><ellipse fill="#DDDAD5" cx="32" cy="27.85" rx="19.37" ry="5.285"/></g><g><ellipse fill="#DFCEA3" cx="32" cy="26.689" rx="12.409" ry="3.474"/><path fill="#DFCEA3" d="M19.591 12.139h24.818v14.55H19.591z"/><ellipse fill="#FFF6D7" cx="32" cy="12.139" rx="12.409" ry="3.474"/><ellipse fill="#EFD8B1" cx="32.001" cy="12.936" rx="9.418" ry="2.637"/><path fill="#ED4C5C" d="M31.536 12.498c-2 0-3.872-1.003-1.735-4.792 2.136-3.79 2.819-4.632 2.819-5.708-.001 0 6.357 10.5-1.084 10.5z"/><path fill="#8F9496" d="M32.062 10.814c.16.62.226 1.254.367 1.875.077.328.095.618-.039.939-.054.143-.212.553-.421.52-.16-.024-.333-.527-.371-.643-.115-.372-.005-.661.045-1.024.031-.211.197-1.704.419-1.667z"/><path fill="#FFCE31" d="M31.702 12.482c-1.277 0-2.476-.642-1.107-3.065 1.365-2.422 1.803-2.961 1.803-3.651-.001 0 4.062 6.716-.696 6.716z"/><path fill="#3E4347" d="M31.642 12.482s.144-1.697.358-1.697c.257 0 .38 1.643.38 1.643s-.344.054-.738.054z"/></g></svg>