<svg xmlns="http://www.w3.org/2000/svg" width="64" height="64" viewBox="0 0 64 64"><path fill="#FED0AC" d="M31.144 43.48l7.657 1.829 7.604-32.687c.51-2.189-.777-4.424-2.883-4.928l-.023-.006c-2.107-.502-4.24.914-4.766 3.17L31.144 43.48z"/><path fill="#FED0AC" d="M22.099 41.318l9.045 2.162 8.243-35.434c.623-2.674-.896-5.33-3.394-5.926-2.496-.598-5.029 1.09-5.651 3.764l-8.243 35.434z"/><path fill="#FED0AC" d="M20.303 42.781l8.446-2.201-9.812-33.012c-.685-2.309-3.128-3.684-5.456-3.076l-.014.004a4.18 4.18 0 0 0-2.976 5.273l9.812 33.012z"/><path fill="#FED0AC" d="M6.869 11.545c-2.167.564-3.333 2.738-2.696 4.881l8.43 28.362 7.7-2.007-8.43-28.363c-.636-2.141-2.834-3.439-5.004-2.873z"/><path fill="#E0A372" d="M43.521 7.695l-.023-.006a3.928 3.928 0 0 0-.686-.088c1.707.768 2.686 2.746 2.23 4.697l-7.604 32.683 1.361.328 7.604-32.687c.511-2.188-.776-4.423-2.882-4.927zM35.993 2.121a4.068 4.068 0 0 0-.698-.09c2.09.873 3.293 3.266 2.73 5.689l-4.682 20.13.862 2.469 5.182-22.272c.623-2.674-.897-5.33-3.394-5.926zM13.48 4.492l-.014.004a4.24 4.24 0 0 0-.701.258c2.085-.174 4.1 1.133 4.712 3.193l5.747 19.34 2.134 1.886-6.421-21.605c-.685-2.308-3.128-3.683-5.457-3.076zM6.869 11.545a3.857 3.857 0 0 0-.706.262c1.904-.129 3.689 1.098 4.251 2.99l4.04 13.596 2.067 1.666-4.648-15.64c-.636-2.142-2.834-3.44-5.004-2.874z"/><path fill="#FED0AC" d="M59.684 29.232c-1.537-3.07-6.496-2.918-11.553 2.713-3.529 3.936-5.062 5.267-8.604 5.263l.767-4.494-30.927 1.189s-1.848 12.83 1.19 19.818c4.527 10.41 27.774 13.154 35.108-4.563 1.459-3.523 4.414-6.142 7.063-9.438 3.19-3.974 8.639-7.12 6.956-10.488z"/><path fill="#E0A372" d="M59.684 29.232a3.504 3.504 0 0 0-1.223-1.383c.082.125.164.248.234.387 1.684 3.367-3.766 6.516-6.955 10.486-2.648 3.299-5.604 5.919-7.061 9.44-6.359 15.359-24.671 15.336-32.382 8.275 7.008 8.027 26.722 8.775 33.368-7.279 1.459-3.523 4.414-6.142 7.063-9.438 3.19-3.974 8.639-7.12 6.956-10.488z"/><g><path fill="#E0A372" d="M40.711 37.097c-6.53-2.403-17.951 2.074-16.351 13.713 0-10.898 10.078-13.605 15.509-13.605.652-.001.842-.108.842-.108z"/></g></svg>