<svg xmlns="http://www.w3.org/2000/svg" width="64" height="64" viewBox="0 0 64 64"><path fill="#8A6859" d="M13.454 31.509c0-2.604 2.381-4.717 5.313-4.717h.098c2.936 0 6.281 2.112 6.281 4.717l-2.588-25.08C22.558 3.983 25.646 2 29.452 2h.064c3.807 0 6.891 1.983 6.891 4.429l-1.072 24.56c0-2.604 2.376-4.717 5.31-4.717h.1c2.934 0 5.311 2.112 5.311 4.717v2.736c.516-1.858 2.424-3.243 4.588-2.664 4.457 1.194 3.635 4.799 4.064 8.701.525 4.76 1.721 7.932 1.273 9.609-.98 3.666-3.691 3.227-5.123 4.23-1.424.998-1.795 2.59-2.861 3.551-2.229 2.01-6.242 1.625-9.798 2.488-3.133.762-5.898 2.594-8.275 2.334-2.688-.297-3.449-2.646-6.418-4.047-3.016-1.422-7.111-.682-8.277-3.111-2.322-4.843-1.775-23.307-1.775-23.307z"/><path fill="#705041" d="M13.454 31.509c0-1.408.709-2.659 1.813-3.523-1.869 2.394-.646 19.362 1.674 24.206 1.164 2.43 5.258 1.688 8.275 3.111 2.971 1.4 3.73 3.752 6.418 4.047 2.377.26 5.165-1.355 8.298-2.117 3.555-.863 6.068-.6 8.299-2.609 1.066-.961 1.641-2.469 3.844-3.154 1.621-.506 2.719-.955 3.93-2.232-.01.045-.01.088-.023.135-.98 3.666-3.691 3.227-5.123 4.23-1.424.998-1.795 2.59-2.861 3.551-2.229 2.01-6.242 1.625-9.798 2.488-3.133.762-5.898 2.594-8.275 2.334-2.688-.297-3.449-2.646-6.418-4.047-3.016-1.422-7.111-.682-8.277-3.111-2.323-4.845-1.776-23.309-1.776-23.309z"/><path fill="#705041" d="M22.636 5.286c-.941 3.824 2.51 38.425 2.51 38.425 0 2.486 1.33 1.469 1.33-1.021 0 0-3.613-32.472-2.596-37.343.424-2.025 1.844-2.628 4.154-3.252 0 0-4.668.228-5.398 3.191zM36.996 42.27V29.28c0-.701.141-1.368.455-1.968-1.269.861-2.116 2.221-2.116 3.748v12.988c0 2.606 1.661.825 1.661-1.778zM47.406 43.576V33.197c0-.633.129-1.234.41-1.777-1.146.778-1.914 2.006-1.914 3.385v10.379c0 2.355 1.504.746 1.504-1.608z"/><path fill="#705041" d="M34.403 10.762c.756-5.315-1.715-5.532-4.799-5.532-3.086 0-5.557.217-4.801 5.532.285 1.984 2.359 2.664 4.801 2.664s4.518-.679 4.799-2.664z"/><path fill="#FFE8DC" d="M34.522 9.852c.797-5.603-1.744-5.833-4.92-5.833-3.174 0-5.713.23-4.916 5.833.297 2.082 2.42 2.792 4.916 2.792 2.501 0 4.624-.71 4.92-2.792z"/><path fill="#705041" d="M15.251 53.611c-3.59-4.227-8.326-6.395-7.146-9.506 1.016-2.998 3.109-2.936 5.836-6.32l1.31 15.826z"/></svg>