<svg xmlns="http://www.w3.org/2000/svg" width="64" height="64" viewBox="0 0 64 64"><path fill="#93A2AA" d="M60 58.25c0 2.071-1.727 3.75-3.861 3.75H10.753c-2.133 0-3.861-1.679-3.861-3.75V13.87c0-2.071 1.728-3.75 3.861-3.75h45.386c2.135 0 3.861 1.679 3.861 3.75v44.38z"/><path fill="#ED4C5C" d="M57.112 13.87c0-2.071-1.732-3.75-3.864-3.75H7.862C5.729 10.119 4 11.798 4 13.87v21.257h53.112V13.87z"/><path fill="#D9E3E8" d="M4 35.127V58.25C4 60.321 5.729 62 7.862 62h45.386c2.132 0 3.864-1.679 3.864-3.75V35.127H4z"/><g fill="#3E4347"><ellipse cx="13.073" cy="16.998" rx="2.897" ry="2.813"/><ellipse cx="24.773" cy="16.998" rx="2.897" ry="2.813"/><ellipse cx="36.335" cy="16.998" rx="2.897" ry="2.813"/><ellipse cx="47.898" cy="16.998" rx="2.896" ry="2.813"/></g><g fill="#3E4347"><path d="M40.567 4.605c-.624-1.226-1.677-2.545-3.577-2.604-1.832-.058-1.856 2.092-.088 2.217.003.002.007.002.012.003-.05.007.409.31.268.164.424.43.642.867.851 1.353.604 1.407.773 2.906.785 4.38h2.889c-.014-1.847-.261-3.778-1.14-5.513zm-3.626-.384l.048.011-.053-.011h.005zM29.005 4.605c-.621-1.226-1.676-2.545-3.575-2.604-1.835-.058-1.857 2.092-.09 2.217.002.002.009.002.011.003-.049.007.41.31.268.164.424.43.643.867.852 1.353.604 1.407.772 2.906.781 4.38h2.893c-.013-1.847-.263-3.778-1.14-5.513zm-3.626-.384a.453.453 0 0 0 .046.011l-.049-.011h.003zM17.445 4.605c-.621-1.226-1.68-2.545-3.579-2.604-1.832-.058-1.854 2.092-.088 2.217l.013.003c-.049.007.41.31.266.164.424.43.643.867.854 1.353.603 1.407.771 2.906.781 4.38h2.891c-.015-1.847-.262-3.778-1.138-5.513zm-3.627-.384a.53.53 0 0 0 .046.011l-.051-.011h.005zM52.131 4.605c-.621-1.226-1.68-2.545-3.577-2.604-1.833-.058-1.856 2.092-.087 2.217.002.002.007.002.008.003-.05.007.411.31.27.164.422.43.643.867.851 1.353.604 1.407.772 2.906.782 4.38h2.891c-.012-1.847-.26-3.778-1.138-5.513zm-3.628-.384a.376.376 0 0 0 .049.011l-.053-.011h.004z"/></g><path fill="#94989B" d="M36.335 16.014c-.333-.01.329.064.003-.007.337.073.08.022-.024-.026.36.168-.338-.302-.169-.128-.423-.431-.641-.866-.85-1.354-.604-1.407-.772-2.906-.783-4.38-.01-1.48.207-2.963.783-4.38.191-.468.409-.841.77-1.265.051-.057.127-.129.365-.289-.256.169-.002.021.068-.007-.192.059-.213.07-.066.034-.228.016-.258.019-.097.013 1.858-.058 1.864-2.282 0-2.224-1.922.059-2.921 1.381-3.576 2.604-.914 1.709-1.127 3.686-1.139 5.514-.012 1.841.265 3.789 1.139 5.515.622 1.226 1.678 2.546 3.576 2.605 1.864.057 1.858-2.167 0-2.225zM24.774 16.014c-.336-.01.328.064.001-.007.337.073.081.022-.022-.026.356.168-.342-.302-.17-.128-.424-.431-.643-.866-.851-1.354-.606-1.407-.775-2.906-.783-4.38-.009-1.48.205-2.963.783-4.38a4.27 4.27 0 0 1 .77-1.265c.048-.057.126-.129.365-.289-.256.169-.003.021.069-.007-.191.059-.215.07-.065.034-.226.016-.26.019-.097.013 1.858-.058 1.863-2.282 0-2.224-1.924.059-2.924 1.381-3.576 2.604-.916 1.709-1.127 3.686-1.14 5.514-.012 1.841.266 3.789 1.14 5.515.621 1.226 1.676 2.546 3.576 2.605 1.863.057 1.858-2.167 0-2.225zM13.211 16.014c-.335-.01.329.064.003-.007.338.073.081.022-.022-.026.358.168-.341-.302-.17-.128-.424-.431-.641-.866-.852-1.354-.605-1.407-.772-2.906-.783-4.38-.011-1.48.208-2.963.783-4.38.191-.468.408-.841.773-1.265.048-.057.124-.129.362-.289-.254.169-.001.021.069-.007-.191.059-.212.07-.063.034-.226.016-.261.019-.1.013 1.857-.058 1.865-2.282 0-2.224-1.923.059-2.921 1.381-3.575 2.604-.913 1.709-1.126 3.686-1.138 5.514-.013 1.841.267 3.789 1.139 5.515.622 1.226 1.677 2.546 3.575 2.605 1.864.057 1.856-2.167-.001-2.225zM47.897 16.014c-.333-.01.33.064.003-.007.338.073.081.022-.022-.026.356.168-.343-.302-.17-.128-.424-.431-.643-.866-.851-1.354-.605-1.407-.774-2.906-.785-4.38-.008-1.48.209-2.963.785-4.38a4.27 4.27 0 0 1 .77-1.265c.05-.057.129-.129.363-.289-.254.169-.002.021.071-.007-.192.059-.216.07-.066.034-.226.016-.259.019-.098.013 1.858-.058 1.864-2.282 0-2.224-1.922.059-2.922 1.381-3.575 2.604-.912 1.709-1.126 3.686-1.139 5.514-.014 1.841.265 3.789 1.139 5.515.622 1.226 1.678 2.546 3.575 2.605 1.865.057 1.859-2.167 0-2.225z"/><g><path fill="#D0D0D0" d="M33.5 10.119c.013-1.549.214-3.103.817-4.587.271-.664.882-2.051 2.018-2.085.559-.017.561-.685 0-.667-1.396.043-2.134 1.166-2.599 2.033-.882 1.65-1.093 3.542-1.103 5.307-.004.43.864.43.867-.001zM21.937 10.119c.01-1.549.215-3.103.82-4.587.269-.664.879-2.051 2.017-2.085.558-.017.56-.685 0-.667-1.396.043-2.135 1.166-2.603 2.033-.881 1.65-1.09 3.542-1.102 5.307 0 .43.865.43.868-.001zM10.376 10.119c.01-1.549.215-3.103.818-4.587.271-.664.88-2.051 2.017-2.085.557-.017.56-.685 0-.667-1.396.043-2.136 1.166-2.6 2.033-.882 1.65-1.09 3.542-1.103 5.307-.002.43.865.43.868-.001zM45.061 10.119c.012-1.549.216-3.103.821-4.587.269-.664.88-2.051 2.016-2.085.556-.017.56-.685 0-.667-1.394.043-2.134 1.166-2.598 2.033-.884 1.65-1.093 3.542-1.104 5.307-.007.43.862.43.865-.001z"/></g><g><g fill="#FFF"><path d="M19.123 28.434v.236c.019.793.102 1.351.252 1.673.15.322.473.483.966.483.49 0 .812-.176.97-.529.093-.208.14-.561.14-1.057v-7.173h2.208v7.138c0 .872-.152 1.563-.456 2.073-.515.863-1.44 1.294-2.781 1.294-1.341 0-2.24-.35-2.698-1.047-.457-.698-.687-1.65-.687-2.856v-.236h2.086zM25.994 22.068h2.244v6.298c0 .705.085 1.22.256 1.543.267.575.848.862 1.743.862.889 0 1.469-.288 1.735-.862.171-.324.257-.839.257-1.543v-6.298h2.243v6.303c0 1.09-.175 1.939-.521 2.546-.65 1.113-1.889 1.67-3.715 1.67s-3.068-.557-3.72-1.67c-.348-.607-.523-1.456-.523-2.546v-6.303zM36.593 22.068h2.205v8.412h5.274v1.844h-7.479V22.068z"/></g><g fill="#333"><path d="M16.072 44.496v-2.761c1.252-.056 2.128-.141 2.629-.256.797-.18 1.448-.54 1.947-1.08.344-.37.602-.863.778-1.479.104-.369.154-.645.154-.826h3.319v20.625h-4.071V44.496h-4.756zM45.037 41.536c-.594.599-1.426 1.663-2.485 3.193a28.127 28.127 0 0 0-2.668 4.744c-.57 1.28-1.083 2.846-1.538 4.693-.456 1.85-.685 3.367-.685 4.552h-4.129c.122-3.697 1.311-7.543 3.572-11.535 1.464-2.475 2.687-4.201 3.674-5.178H30.702l.056-3.641h14.279v3.172z"/></g></g></svg>