<svg xmlns="http://www.w3.org/2000/svg" width="64" height="64" viewBox="0 0 64 64"><circle fill="#FFDD67" cx="32" cy="32" r="30"/><g fill="#917524"><path d="M53.203 25.727a14.228 14.228 0 0 0-11.691-3.133c-.582.113-1.09-2.021-.387-2.156a16.42 16.42 0 0 1 13.492 3.615c.539.468-.969 2.06-1.414 1.674zM22.488 22.443c-4.168-.748-8.455.4-11.694 3.133-.443.389-1.951-1.205-1.412-1.674a16.425 16.425 0 0 1 13.493-3.615c.703.135.191 2.27-.387 2.156z"/></g><g fill="#664E27"><path d="M35.914 32.209c4.213 7.953 12.695 7.951 16.91 0 .207-.4-.34-.58-1.01-1.035-4.225 3.32-11.059 3.014-14.893.002-.667.453-1.214.633-1.007 1.033zM11.175 32.209c4.215 7.953 12.698 7.951 16.912 0 .207-.4-.34-.58-1.01-1.035-4.225 3.32-11.059 3.014-14.891.002-.669.453-1.217.633-1.011 1.033z"/></g><path fill="#664E27" d="M38.013 50H25.985c-1.313 0-1.313-4 0-4h12.027c1.317 0 1.317 4 .001 4z"/></svg>