<svg xmlns="http://www.w3.org/2000/svg" width="64" height="64" viewBox="0 0 64 64"><circle fill="#FFDD67" cx="32" cy="32" r="30"/><g fill="#917524"><path d="M38.424 11.24a14.228 14.228 0 0 0 11.691 3.133c.58-.113 1.09 2.021.387 2.156a16.417 16.417 0 0 1-13.492-3.615c-.541-.469.969-2.06 1.414-1.674zM13.887 14.221c4.168.748 8.455-.4 11.693-3.133.443-.389 1.953 1.205 1.412 1.674A16.422 16.422 0 0 1 13.5 16.377c-.703-.135-.191-2.27.387-2.156z"/></g><path fill="#664E27" d="M32 32c-8.838-.064-15.945 5.437-16 12.284-.033 3.789 1.33 9.467 5.57 9.498 3.076.023 6.483-3.809 10.43-3.783 3.9.029 7.121 3.982 10.172 4 3.75.027 5.799-5.654 5.828-9.482.058-6.844-7.166-12.451-16-12.517z"/><path fill="#4C3526" d="M39 43.196c0-3.082-3.013-4.9-4.848-4.947-.677-.016-1.717.564-1.335 2.105.19.775 1.389 1.715 1.389 2.967 0 2.547-4.41 2.547-4.41 0 0-1.252 1.198-2.191 1.389-2.967.38-1.541-.659-2.121-1.337-2.105-1.834.047-4.848 1.865-4.848 4.947 0 1.92.966 3.402 2.482 4.553h9.037C38.034 46.599 39 45.116 39 43.196z"/><path fill="#FF717F" d="M32 45.999c-6 0-8 5-8 5s4-3 8-3 8 3 8 3-2-5-8-5z"/><path fill="#FFF" d="M41.75 37.038c-2.467-1.883-5.651-3.039-9.75-3.039-4.098 0-7.283 1.156-9.75 3.039-.396.303-.352.961.348.961h18.804c.699 0 .744-.658.348-.961z"/><g fill="#664E27"><path d="M51.67 21.095a.584.584 0 0 1-.167 1.094c-2.693.403-5.547.861-8.256 2.361 4.021.667 7.25 2.729 9.002 4.829.396.474-.1 1.116-.542.955-4.772-1.732-9.679-2.67-15.847-2.036-.486.05-.903-.231-.801-.678 1.647-7.204 10.913-9.923 16.611-6.525zM12.33 21.095a.584.584 0 0 0 .167 1.094c2.693.403 5.548.861 8.256 2.361-4.021.667-7.25 2.729-9.002 4.829-.396.474.1 1.116.542.955 4.772-1.732 9.679-2.67 15.847-2.036.486.05.903-.231.801-.678-1.647-7.204-10.913-9.923-16.611-6.525z"/></g></svg>