<svg xmlns="http://www.w3.org/2000/svg" width="64" height="64" viewBox="0 0 64 64"><path fill="#DADEE0" d="M60.861 2c1.797 13.43 1.51 24.232-1.166 31.131L34.888 14.676C39.815 9.584 49.818 3.459 60.861 2z"/><path fill="#F7A4A4" d="M57.738 32.176L47.483 18.924s1.938-7.285 11.616-12.438c2.901 11.655-1.361 25.69-1.361 25.69z"/><path fill="#F78D8D" d="M53.835 29.16l-6.352-8.209s2.574-5.023 8.568-8.215c-3.497 7.563-2.216 16.424-2.216 16.424z"/><path fill="#DADEE0" d="M3.139 2c-1.797 13.43-1.51 24.232 1.166 31.131l24.808-18.455C24.185 9.584 14.182 3.459 3.139 2z"/><path fill="#F7A4A4" d="M6.262 32.176l10.255-13.252S14.579 11.639 4.901 6.486C2 18.141 6.262 32.176 6.262 32.176z"/><path fill="#F78D8D" d="M10.165 29.16l6.352-8.209s-2.574-5.023-8.568-8.215c3.497 7.563 2.216 16.424 2.216 16.424z"/><path fill="#DADEE0" d="M58.195 50.754c.845-.881 1.415-1.633 1.661-2.162C61.486 45.949 62 43.25 62 43.25l-2.002.424s2.318-2.463 1.691-7.793l-1.945 2.102s1.945-5.41.254-10.4l-2.152 1.588s.654-2.031.053-3.422l-.932.729s1.689-4.666.154-6.625c-.855 2.826-1.871 2.783-1.871 2.783s1.242-2.115.273-3.002c-.986 1.594-1.807.557-1.768.078.055-.637-.193-1.533 2.703-1.957-2.314-1.414-5.055-.43-5.055-.43s.098-1.488 2.123-1.43c-1.871-1.592-4.48-.648-4.48-.648l.006.018c-4.111-3.111-9.646-4.902-17.053-4.902-7.408 0-12.942 1.791-17.053 4.902l.006-.018s-2.609-.943-4.48.648c2.027-.059 2.125 1.43 2.125 1.43s-2.742-.984-5.057.43c2.898.424 2.65 1.32 2.703 1.957.039.479-.779 1.516-1.768-.078-.967.887.275 3.002.275 3.002s-1.016.043-1.871-2.783c-1.537 1.959.154 6.625.154 6.625l-.932-.729c-.602 1.391.053 3.422.053 3.422L4 27.583c-1.691 4.99.254 10.4.254 10.4l-1.945-2.102C1.684 41.211 4 43.674 4 43.674l-2-.424s.513 2.693 2.141 5.338c.249.535.833 1.305 1.698 2.203.023.023.044.049.067.072v-.004C9.972 55.041 20.119 62 32 62c11.882 0 22.03-6.961 26.095-11.143l.001.006.099-.109z"/><g fill="#94989B"><path d="M37.686 10.762c-1.762-.258-3.65-.4-5.686-.4s-3.926.143-5.689.4c.736 3.857 2.75 6.584 5.688 11.586 2.98-5.08 4.964-7.756 5.687-11.586zM46.813 13.785c-1.908-1.092-4.072-1.945-6.523-2.523.59 2.289 1.857 3.92 3.627 6.934 1.237-2.11 2.216-2.663 2.896-4.411zM23.709 11.262c-2.451.58-4.615 1.432-6.521 2.523.686 1.764 1.666 2.322 2.891 4.41 1.794-3.056 3.048-4.664 3.63-6.933z"/></g><path fill="#4C5359" d="M36.041 38.766c-.811-.945-3.299-1.018-4.043-1.018-.742 0-3.232.072-4.043 1.018-.576.674-.131 2.344 1.406 3.785.969.91 1.895 1.197 2.637 1.197.744 0 1.67-.287 2.639-1.197 1.535-1.442 1.982-3.112 1.404-3.785z"/><path fill="#FFF" d="M24.299 30.84s-.484-3.57-4.509-5.035c-4.539-1.65-7.636 1.387-8.477 3.695-1.24 3.406.316 7.133.778 7.992.306.566 3.659 3.24 11.22.709.001 0 1.882-3.789.988-7.361z"/><path fill="#B2B6B8" d="M24.299 30.84s-5.917-4.811-6.273-4.824c-1.451-.041-2.832-.422-3.896.6-1.061 1.008-1.938 2.328-2.29 3.713-.383 1.406-.313 2.951.021 4.434.16.744.392 1.488.688 2.174l.113.242c-.032-.053.014.023.017.027.002 0 0-.006-.002-.006l.055.063c.098.102.231.209.37.311.282.203.602.385.94.533 1.365.594 2.949.791 4.519.75 1.585-.006 3.168-.309 4.751-.654a18.397 18.397 0 0 1-4.691 1.387c-1.634.219-3.361.197-5.012-.395a6.573 6.573 0 0 1-1.207-.574 3.87 3.87 0 0 1-.575-.441 2.474 2.474 0 0 1-.151-.16l-.097-.123-.063-.102-.156-.299a13.097 13.097 0 0 1-.879-2.4c-.415-1.645-.529-3.424-.09-5.15.491-1.74 1.491-3.207 2.792-4.381 1.304-1.15 3.121-.924 4.921-.711.445.048 6.195 5.986 6.195 5.986z"/><g><path fill="#FFF" d="M39.698 30.84s.484-3.568 4.509-5.035c4.539-1.65 7.636 1.387 8.477 3.695 1.24 3.406-.316 7.133-.778 7.992-.306.566-3.659 3.24-11.22.709 0 0-1.882-3.789-.988-7.361z"/><path fill="#B2B6B8" d="M39.698 30.84s5.75-5.938 6.197-5.988c1.8-.213 3.616-.439 4.92.711 1.301 1.174 2.301 2.641 2.792 4.381.438 1.729.325 3.506-.089 5.15a13.105 13.105 0 0 1-.881 2.4l-.155.299-.063.102-.097.123c-.06.068-.102.111-.151.16a3.76 3.76 0 0 1-.576.441c-.392.24-.795.426-1.206.574-1.65.592-3.378.613-5.013.395a18.378 18.378 0 0 1-4.69-1.387c1.583.346 3.166.648 4.751.654 1.569.041 3.152-.156 4.519-.75.339-.148.658-.33.94-.533a2.95 2.95 0 0 0 .37-.311l.055-.063c-.002 0-.004.006-.002.006.003-.004.049-.08.017-.027l.113-.242c.297-.686.528-1.43.688-2.174.334-1.482.404-3.027.021-4.434-.353-1.385-1.229-2.705-2.29-3.713-1.064-1.021-2.445-.641-3.896-.6-.357.015-6.274 4.826-6.274 4.826z"/></g><ellipse fill="#4C5359" cx="44" cy="32.5" rx="4" ry="4.5"/><ellipse fill="#4C5359" cx="20" cy="32.5" rx="4" ry="4.5"/><g><path fill="#4C5359" d="M55.893 24.525c-1.871.182-3.539.459-5.154.891a27.468 27.468 0 0 0-4.621 1.668 27.106 27.106 0 0 0-4.25 2.447c-1.365.957-2.645 2.057-3.975 3.387.203-1.885 1.127-3.656 2.369-5.115 1.248-1.461 2.852-2.641 4.596-3.441a13.653 13.653 0 0 1 5.59-1.279c1.911-.009 3.859.407 5.445 1.442zM8.104 24.525c1.586-1.035 3.531-1.451 5.443-1.443 1.922.018 3.842.469 5.592 1.279 1.744.801 3.346 1.98 4.594 3.441 1.242 1.461 2.168 3.23 2.371 5.115-1.33-1.33-2.611-2.43-3.975-3.387a27.462 27.462 0 0 0-4.25-2.449 27.757 27.757 0 0 0-4.623-1.666c-1.613-.431-3.283-.708-5.152-.89z"/></g><path fill="#4C5359" d="M23.012 54.183c5.793-4.801 12.219-4.771 17.977 0 .693.573 1.318-.422.848-1.34-1.754-3.434-5.299-6.491-9.836-6.491-4.539 0-8.082 3.058-9.836 6.491-.472.918.153 1.913.847 1.34z"/></svg>