<svg xmlns="http://www.w3.org/2000/svg" width="64" height="64" viewBox="0 0 64 64"><path fill="#FFDD67" d="M62 32c0 16.566-10.766 30-30 30C15.432 62 2 48.566 2 32 2 15.432 15.432 2 32 2s30 13.432 30 30z"/><path fill="#467591" d="M26.824 21.283c-.213-.404-.686-.557-1.059-.348l-2.002 1.162.668-4.975a.91.91 0 0 0-.098-.539l-.637-1.207a.841.841 0 0 0-.471-.406.698.698 0 0 0-.588.061l-4.941 2.865a.774.774 0 0 0-.359.488.927.927 0 0 0 .08.637l.672 1.27c.215.406.686.559 1.057.348l1.867-1.082-.66 4.881a.92.92 0 0 0 .098.541l.67 1.268c.182.342.547.508.881.42a.709.709 0 0 0 .176-.074l5.035-2.914a.79.79 0 0 0 .359-.49.887.887 0 0 0-.078-.635l-.67-1.271zM40.5 8.066a.802.802 0 0 0-.488-.371l-7.869-1.979c-.416-.105-.824.168-.91.611l-.379 1.947a.869.869 0 0 0 .109.619c.113.189.289.32.49.371l3.613.91-5.471 4.732a.803.803 0 0 0-.26.453l-.379 1.947a.889.889 0 0 0 .113.623.797.797 0 0 0 .488.367l8.016 2.018a.727.727 0 0 0 .58-.101.783.783 0 0 0 .33-.512l.377-1.943c.086-.441-.184-.887-.6-.992l-3.832-.963 5.563-4.82a.787.787 0 0 0 .258-.455l.361-1.842a.871.871 0 0 0-.11-.62zM54.977 22.416a.761.761 0 0 0 .428-.389l1.154-2.461a.755.755 0 0 0-.365-1.008l-5.834-2.756 10.125-5.033a.747.747 0 0 0 .348-.354l1.096-2.338a.754.754 0 0 0-.363-1.006l-10.582-5a.755.755 0 0 0-1.006.361L48.818 4.9a.755.755 0 0 0 .363 1.008l5.543 2.619-9.971 4.945a.752.752 0 0 0-.346.354l-1.156 2.457a.762.762 0 0 0 .366 1.007l10.781 5.094a.752.752 0 0 0 .579.032z"/><path fill="#664E27" d="M49.969 45.17c.789 1.223 1.057 3.629-.643 4.725-1.383.889-3.65.65-5.416 1.787-1.787 1.154-2.533 3.309-3.928 4.207-1.918 1.238-3.723-.162-4.506-1.371-1.41-2.189.689-6.055 4.691-8.637 4.003-2.58 8.392-2.899 9.802-.711z"/><g fill="#664E27"><path d="M38.323 33.634c7.18 5.428 14.866 1.84 15.326-7.147.021-.45-.553-.382-1.353-.511-2.426 4.794-8.749 7.405-13.495 6.295-.414.693-.834 1.087-.478 1.363zM15.903 44.089c7.181 5.426 14.867 1.84 15.327-7.147.019-.45-.554-.383-1.353-.512-2.426 4.795-8.749 7.404-13.495 6.296-.415.692-.836 1.087-.479 1.363z"/></g></svg>