<svg xmlns="http://www.w3.org/2000/svg" width="64" height="64" viewBox="0 0 64 64"><path fill="#F2C19B" d="M21.386 29.007c-3.843 14.679-5.539 27.738 2.79 27.738 8.754 0 7.947-13.042 7.947-27.957S32.517 2 27.957 2c-4.897 0-2.821 12.686-6.571 27.007z"/><path fill="#E0A372" d="M21.512 47.307c9.607 0 9.855-4.724 9.855-19.64 0-11.631.292-21.392-1.92-25.125 3.258 2.476 2.85 13.168 2.85 26.214 0 14.915 3.486 27.989-6.122 27.989-2.102 0-6.175-9.438-4.663-9.438z"/><path fill="#F2C19B" d="M36.043 2c-4.56 0-4.166 11.873-4.166 26.788s-.807 27.957 7.947 27.957c8.328 0 6.633-13.06 2.789-27.738C38.863 14.686 40.939 2 36.043 2z"/><path fill="#E0A372" d="M37.824 56.745c-9.607 0-6.121-13.074-6.121-27.989 0-13.046-.41-23.738 2.849-26.214-2.212 3.733-1.921 13.494-1.921 25.125 0 14.916.249 19.64 9.857 19.64 1.512 0-2.56 9.438-4.664 9.438z"/><path fill="#F2C19B" d="M13.107 47.73l7.579 13.225 8.609-4.458-10.343-16.508s-2.564 6.454-5.845 7.741z"/><path fill="#FED0AC" d="M20.92 38.188c-1.001 1.646-1.406 8.865-6.089 10.833l5.471 11.158s6.062-1.505 8.489-2.994c6.694-4.105-.937-9.038 2.976-18.111 2.187-5.072-1.816-17.111-6.6-17.111-4.793 0-2.563 6.89-3.027 8.682-.568 2.195-.343 4.837-1.22 7.543z"/><path fill="#E0A372" d="M28.527 56.374c6.694-4.105-1.603-8.966 2.31-18.04 1.745-4.046-.453-12.521-3.841-15.786 3.897 2.461 6.899 11.933 4.866 16.547-3.981 9.039 4.5 13.764-2.404 18.021-.514.316-4.283 1.966-8.732 3.915l-.664-1.332c4.818-1.353 8.069-3.083 8.465-3.325z"/><path fill="#F2C19B" d="M45.047 39.989L34.703 56.497l8.611 4.458 7.578-13.225c-3.281-1.287-5.845-7.741-5.845-7.741z"/><path fill="#FED0AC" d="M41.859 30.644c-.463-1.792 1.768-8.682-3.025-8.682-4.783 0-8.787 12.039-6.601 17.111 3.912 9.073-3.718 14.006 2.976 18.111 2.428 1.489 8.49 2.994 8.49 2.994L49.17 49.02c-4.684-1.968-5.09-9.187-6.09-10.833-.877-2.705-.652-5.347-1.221-7.543z"/><path fill="#E0A372" d="M43.938 59.698l-.664 1.332c-4.447-1.949-8.219-3.599-8.73-3.915-6.905-4.257 1.576-8.981-2.406-18.021-2.032-4.614.97-14.086 4.867-16.547-3.389 3.265-5.585 11.74-3.84 15.786 3.912 9.074-4.385 13.935 2.309 18.04.393.243 3.645 1.973 8.464 3.325z"/><path fill="#47B892" d="M2 55.307V62h22.202c2.474-4.821-11.641-15.607-11.641-15.607L2 55.307zM51.439 46.393S37.324 57.179 39.798 62H62v-6.693l-10.561-8.914z"/></svg>