<svg xmlns="http://www.w3.org/2000/svg" width="64" height="64" viewBox="0 0 64 64"><path fill="#FFB300" d="M32 2C17.512 2 9.602 11.031 9.602 22.924V60h44.795V22.924c0-17.678-12.125-17.35-12.125-17.35S41.359 2 32 2z"/><path fill="#B386E2" d="M41.953 49.053v-7.139h-19.91v7.139C9.525 49.44 7 51.461 7 62h50c0-10.537-2.534-12.559-15.047-12.947z"/><path fill="#FFDD67" d="M15.323 32.952s-3.359-.853-3.359-5.781c0-3.904 2.533-4.575 2.533-4.575 9.078 0 25.928-11.697 25.928-11.697s3.531 10.328 8.926 11.697c0 0 2.613.479 2.613 4.575 0 4.929-3.486 5.781-3.486 5.781-.046 7.438-10.289 16.409-16.514 16.409-6.222 0-16.641-8.971-16.641-16.409z"/><path fill="#EBA352" d="M31.964 37.822c-3.215 0-4.823-2.308-3.215-2.308h6.43c1.609.001 0 2.307-3.215 2.308z"/><path fill="#F5F5F5" d="M36.788 31.016c-1.119 0-.97-1.395-.97-1.395 1.722-8.784 11.53-4.105 11.53-4.105.77 1.538-1.787 5.331-2.478 5.5-3.235.81-8.082 0-8.082 0z"/><circle fill="#664E27" cx="41.195" cy="27.438" r="3.461"/><circle fill="#2B2925" cx="41.194" cy="27.438" r="1.154"/><path fill="#3B3226" d="M35.81 29.621c1.73-10.542 10.385-3.514 13.847-5.018-3.463 3.26-10.386-3.766-13.847 5.018z"/><path fill="#F5F5F5" d="M27.14 31.016c1.119 0 .97-1.395.97-1.395-1.723-8.784-11.53-4.105-11.53-4.105-.77 1.538 1.787 5.331 2.478 5.5 3.235.81 8.082 0 8.082 0z"/><circle fill="#664E27" cx="22.733" cy="27.438" r="3.461"/><path fill="#3B3226" d="M28.118 29.621c-1.731-10.542-10.385-3.514-13.847-5.018 3.462 3.26 10.385-3.766 13.847 5.018z"/><circle fill="#2B2925" cx="22.733" cy="27.438" r="1.154"/><circle fill="#937237" cx="32" cy="43.5" r="3"/></svg>