<svg xmlns="http://www.w3.org/2000/svg" width="64" height="64" viewBox="0 0 64 64"><path fill="#DBB471" d="M31.986 2c-14.65 0-22.65 9.199-22.65 21.314v26.895h45.298V23.314c0-18.01-12.262-17.674-12.262-17.674S41.451 2 31.986 2z"/><path fill="#FED0AC" d="M31.202 3.18c0-.693-5.042-.613-6.542-.613-2.646 0-9.773 3.762-9.773 3.762s3.235 3.996 4.838 3.996c2.194 0 4.395-1.517 4.395-3.583-.001-1.515 7.082-1.418 7.082-3.562zM32.799 3.18c0-.693 5.042-.613 6.542-.613 2.647 0 9.773 3.762 9.773 3.762s-3.235 3.996-4.837 3.996c-2.195 0-4.396-1.517-4.396-3.583 0-1.515-7.082-1.418-7.082-3.562z"/><path fill="#C28FEF" d="M61.715 25.826c-1.297-5.15-7.154-12.127-12.522-20.426l-5.858 5.688s5.653 5.096 9.899 18.038c-2.443 5.85-5.392 14.924-9.632 17.594-2.401-1.174-6.07-1.207-11.619-1.207-5.534 0-9.199.033-11.599 1.197-4.233-2.682-7.177-11.74-9.617-17.584 4.246-12.942 9.901-18.038 9.901-18.038L14.808 5.4C9.44 13.699 3.582 20.675 2.286 25.826-.113 35.357 13.412 55.121 13.216 62h37.568c-.195-6.879 13.331-26.643 10.931-36.174z"/><g><path fill="#FED0AC" d="M15.345 33.525s-3.359-.854-3.359-5.781c0-3.905 2.532-4.576 2.532-4.576 9.08 0 25.929-11.697 25.929-11.697s3.531 10.328 8.926 11.697c0 0 2.613.479 2.613 4.576 0 4.928-3.486 5.781-3.486 5.781-.047 7.438-10.291 16.408-16.514 16.408s-16.641-8.97-16.641-16.408z"/><path fill="#E0A372" d="M31.986 38.395c-3.217 0-4.824-2.307-3.217-2.307h6.432c1.608 0 0 2.307-3.215 2.307z"/><path fill="#F5F5F5" d="M36.811 31.588c-1.119 0-.971-1.395-.971-1.395 1.723-8.784 11.529-4.105 11.529-4.105.77 1.539-1.785 5.332-2.477 5.5-3.236.81-8.081 0-8.081 0z"/><circle fill="#664E27" cx="41.217" cy="28.01" r="3.461"/><circle fill="#2B2925" cx="41.216" cy="28.01" r="1.153"/><path fill="#3B3226" d="M35.832 30.193c1.73-10.542 10.385-3.513 13.846-5.017-3.461 3.26-10.385-3.766-13.846 5.017z"/><path fill="#F5F5F5" d="M27.16 31.588c1.119 0 .971-1.395.971-1.395-1.723-8.784-11.53-4.105-11.53-4.105-.77 1.539 1.786 5.332 2.477 5.5 3.236.81 8.082 0 8.082 0z"/><path fill="#664E27" d="M19.293 28.01a3.463 3.463 0 0 0 6.924 0 3.462 3.462 0 0 0-6.924 0z"/><path fill="#3B3226" d="M28.139 30.193c-1.73-10.542-10.383-3.513-13.845-5.017 3.461 3.26 10.384-3.766 13.845 5.017z"/><path fill="#E08672" d="M31.986 42.242l-7.693-1.174c4.615 6.559 10.77 6.559 15.385 0l-7.692 1.174z"/><path fill="#B86E5D" d="M35.021 40.791c-2.266-.857-3.035.504-3.035.504s-.77-1.361-3.035-.504c-1.77.67-4.668.273-4.658.277 3.08.664 3.463 1.941 7.693 1.941 4.229 0 4.613-1.277 7.691-1.941.012-.004-2.886.393-4.656-.277z"/><circle fill="#2B2925" cx="22.755" cy="28.01" r="1.153"/></g></svg>