<svg xmlns="http://www.w3.org/2000/svg" width="64" height="64" viewBox="0 0 64 64"><ellipse fill="#89664C" cx="53.75" cy="32.968" rx="8.25" ry="8.231"/><ellipse fill="#FFC5D3" cx="53.75" cy="32.968" rx="5.371" ry="5.36"/><ellipse fill="#89664C" cx="10.25" cy="32.968" rx="8.25" ry="8.231"/><ellipse fill="#FFC5D3" cx="10.25" cy="32.968" rx="5.373" ry="5.36"/><path fill="#89664C" d="M43.375 10.781a24.032 24.032 0 0 1 1.887-.908c-3.238-1.138-6.047-1.803-8.477-2.105 1.277-.962 2.133-1.329 2.133-1.329C18.5 3.561 8.78 15.395 8.78 25.896l46.438.002c-.697-7.313-4.78-12.316-11.843-15.117z"/><g><path fill="#89664C" d="M55.324 27.567C55.324 17.86 44.881 9.994 32 9.994c-12.883 0-23.324 7.867-23.324 17.574 0 2.271.592 4.436 1.633 6.429-1.041 1.993-1.633 4.155-1.633 6.429C8.676 50.132 19.117 58 32 58c12.881 0 23.324-7.868 23.324-17.574 0-2.271-.592-4.436-1.633-6.429 1.041-1.994 1.633-4.158 1.633-6.43z"/></g><path fill="#E0AC7E" d="M52.021 28.205C52.021 11.271 32 22.059 32 22.059s-20.021-10.788-20.021 6.146c0 4.738 2.917 8.961 7.473 11.718-1.328 1.657-2.105 3.592-2.105 5.666 0 6.082 6.561 11.01 14.654 11.01 8.092 0 14.652-4.928 14.652-11.01 0-2.074-.777-4.009-2.105-5.666 4.556-2.757 7.473-6.98 7.473-11.718z"/><g fill="#3B302A"><path d="M35.146 38.745c0 1.138-.447 2.057-1 2.057s-1-.919-1-2.057c0-1.133.447-2.059 1-2.059s1 .926 1 2.059zM30.854 38.745c0 1.138-.446 2.057-1 2.057s-1-.919-1-2.057c0-1.133.446-2.059 1-2.059s1 .926 1 2.059z"/></g><ellipse transform="rotate(-16.096 36.992 48.04)" fill="#3B302A" cx="37.001" cy="48.045" rx="4.5" ry="2.719"/><g><path fill="#89664C" d="M9.326 32.592L2 62h11.949c-1.561-7.721 4.002-21.006 4.002-21.006l-8.625-8.402z"/><path fill="#FFD6BB" d="M15.654 24.931s4.879-4.489 9.492-3.944c2.279.27-7.082 7.579-7.082 7.579s9.713-8.23 11.723-5.646c1.824 2.347-8.926 9.819-8.926 9.819s9.957-8.056 9.65-4.555c-.34 3.864-7.879 12.861-12.484 13.777-6.641 1.324-11.789-2.908-8.314-17.504 1.74-7.313 3.529.856 5.941.474z"/><g><path fill="#89664C" d="M54.676 32.592L62 62H50.051c1.563-7.721-4-21.006-4-21.006l8.625-8.402z"/><path fill="#FFD6BB" d="M48.348 24.931s-4.881-4.489-9.494-3.944c-2.277.27 7.082 7.579 7.082 7.579s-9.711-8.23-11.721-5.646c-1.824 2.347 8.926 9.819 8.926 9.819s-9.957-8.056-9.65-4.555c.338 3.864 7.877 12.861 12.482 13.777 6.641 1.324 11.791-2.908 8.314-17.504-1.74-7.313-3.529.856-5.939.474z"/></g></g></svg>