<svg xmlns="http://www.w3.org/2000/svg" width="64" height="64" viewBox="0 0 64 64"><path fill="#594640" d="M32.001 2C17.513 2 9.603 11.028 9.603 22.919v37.067h44.794V22.919c0-17.674-12.125-17.345-12.125-17.345S41.36 2 32.001 2z"/><path fill="#D6A57C" d="M15.325 33.346s-3.36-.853-3.36-5.78c0-3.903 2.533-4.574 2.533-4.574 9.079 0 25.929-11.694 25.929-11.694s3.531 10.326 8.926 11.694c0 0 2.613.479 2.613 4.574 0 4.928-3.486 5.78-3.486 5.78-.047 7.436-10.29 16.405-16.514 16.405-6.223 0-16.641-8.97-16.641-16.405z"/><path fill="#B58360" d="M31.966 38.215c-3.216 0-4.824-2.308-3.216-2.308h6.431c1.608 0 0 2.307-3.215 2.308z"/><path fill="#F5F5F5" d="M36.79 31.409c-1.119 0-.971-1.394-.971-1.394 1.723-8.782 11.53-4.104 11.53-4.104.77 1.538-1.786 5.33-2.478 5.499-3.235.81-8.081-.001-8.081-.001z"/><circle fill="#664E27" cx="41.196" cy="27.832" r="3.461"/><circle fill="#2B2925" cx="41.196" cy="27.832" r="1.154"/><path fill="#3B3226" d="M35.812 30.015c1.73-10.54 10.385-3.513 13.846-5.017-3.462 3.26-10.386-3.765-13.846 5.017z"/><path fill="#F5F5F5" d="M27.141 31.409c1.119 0 .97-1.394.97-1.394-1.723-8.782-11.529-4.104-11.529-4.104-.77 1.538 1.786 5.33 2.477 5.499 3.235.81 8.082-.001 8.082-.001z"/><path fill="#664E27" d="M19.272 27.832a3.463 3.463 0 0 0 6.924 0 3.462 3.462 0 0 0-6.924 0z"/><path fill="#3B3226" d="M28.119 30.015c-1.731-10.54-10.384-3.513-13.846-5.017 3.462 3.26 10.384-3.765 13.846 5.017z"/><circle fill="#2B2925" cx="22.734" cy="27.832" r="1.153"/><g><path fill="#B386E2" d="M52.399 61.972c0-14.997-1.389-15.168-20.4-15.168-19.018 0-20.395.171-20.395 15.168h40.795z"/><path fill="#CC9B76" d="M4.223 20.201c.821.649 13.871 11.206 13.871 11.206l-3.201 6.135c-4.308-2.57-6.224-7.231-12.492-14.381-1.161-1.323.436-4.053 1.822-2.96zM59.778 20.201c-.821.649-13.871 11.206-13.871 11.206l3.201 6.135c4.308-2.57 6.225-7.231 12.492-14.381 1.161-1.323-.437-4.053-1.822-2.96z"/><path fill="#C99FF7" d="M42.808 44.377c4.414-3.541 7.43-6.206 7.43-6.206l-3.484-7.885c-2.979 2.749-8.627 5.664-14.752 8.685-6.125-3.021-11.773-5.937-14.752-8.685l-3.484 7.885s3.016 2.665 7.43 6.206C10.897 49.803 3.038 55.438 9.108 60.961c3.719 3.386 13.696-2.047 22.893-8.454 9.197 6.407 19.174 11.84 22.895 8.454 6.067-5.523-1.792-11.157-12.088-16.584z"/><path fill="#B386E2" d="M23.12 58.125l19.688-13.748-14.447 13.596zM21.194 44.377l10.807-5.406-11.783 4.619z"/></g></svg>