<svg xmlns="http://www.w3.org/2000/svg" width="64" height="64" viewBox="0 0 64 64"><path fill="#428BC1" d="M45.291 36.749c-8.241-4.362-13.292-.465-13.292-.465s-5.05-3.897-13.29.465C11.357 40.637 1.791 49.518 2.484 53.465c0 0 21.938 6.907 29.515 6.907 7.578 0 29.517-6.907 29.517-6.907.695-3.947-8.873-12.828-16.225-16.716z"/><path fill="#FFDD67" d="M33.283 58.911c7.787-5.285 10.918-5.233 11.053-5.285.688 1.238 1.674 4.843 1.99 6.591l-.016.002c-.66 1.69-11.607 2.611-13.532.768-.395-.379-.522-1.377.505-2.076z"/><path fill="#428BC1" d="M54.961 46.67c2.873-.614 8.885 2.818 6.486 8.043-2.1 4.578-14.811 5.481-15.121 5.504-.316-1.748-1.303-5.353-1.99-6.591 2.146-.822 8.242-6.444 10.625-6.956z"/><path fill="#FFDD67" d="M30.717 58.911c-7.787-5.285-10.918-5.233-11.052-5.285-.688 1.238-1.674 4.843-1.99 6.591l.016.002c.659 1.69 11.606 2.611 13.531.768.395-.379.522-1.377-.505-2.076z"/><path fill="#428BC1" d="M9.039 46.67c-2.872-.614-8.885 2.818-6.486 8.043 2.1 4.578 14.811 5.481 15.122 5.504.316-1.748 1.302-5.353 1.99-6.591-2.147-.822-8.243-6.444-10.626-6.956z"/><g fill="#2E6C93"><path d="M43.03 53.297s2.483 4.25 3.305 6.92c.069-3.373-.446-5.186-.817-6.107 1.73-1.953 8.513-6.902 9.452-7.439-4.284 1.313-11.94 6.626-11.94 6.626zM20.97 53.297s-2.483 4.25-3.305 6.92c-.069-3.373.446-5.186.817-6.107-1.73-1.953-8.513-6.902-9.452-7.439 4.284 1.313 11.94 6.626 11.94 6.626z"/></g><path fill="#FFB300" d="M31.998 14c11.816 0 19.096 6.63 19.096 14.869v8.157c0 6.506-5.143 6.507-5.139 6.506H17.312c.002.001-4.407 0-4.407-6.506v-8.157C12.904 20.63 20.573 14 31.998 14z"/><path fill="#FFDD67" d="M49.293 38.495s-.625-3.518-.715-4.703c-.322-4.283-5.195 2.491-16.578 2.491-11.385 0-16.257-6.774-16.58-2.491-.089 1.186-.713 4.703-.713 4.703-3.796 0-3.796 5.288 0 5.288 0 6.558 10.293 9.522 17.293 9.522s17.293-2.965 17.293-9.522c3.795 0 3.795-5.288 0-5.288z"/><g fill="#42ADE2"><path d="M35.973 2l3.566 10.472 4.943-8.828zM53.209 8.242l-4.715 8.925 9.873-1.274zM28.373 2l-3.566 10.472-5.291-8.828zM10.79 8.242l4.716 8.925-9.873-1.274z"/></g><path fill="#937237" d="M34.784 49.777c-1.794 1.396-3.786 1.387-5.571 0-.215-.166-.409.123-.263.391.544.996 1.643 1.885 3.048 1.885 1.406 0 2.506-.889 3.05-1.885.145-.268-.049-.557-.264-.391z"/><g><g fill="#937237"><path d="M34.25 43.264c2.422 4.545 7.301 4.545 9.724 0 .12-.229-.195-.331-.581-.592-2.429 1.898-6.358 1.724-8.563.001-.385.26-.699.362-.58.591zM20.025 43.264c2.424 4.545 7.301 4.545 9.725 0 .119-.229-.195-.331-.581-.592-2.429 1.898-6.359 1.724-8.563.001-.385.26-.7.362-.581.591z"/></g></g></svg>