<svg xmlns="http://www.w3.org/2000/svg" width="64" height="64" viewBox="0 0 64 64"><path fill="#DBB471" d="M32.001 1.993c-14.489 0-22.399 9.03-22.399 20.924v37.076h44.796V22.917c0-17.679-12.125-17.35-12.125-17.35s-.912-3.574-10.272-3.574z"/><path fill="#FED0AC" d="M15.325 33.346s-3.36-.853-3.36-5.781c0-3.904 2.533-4.575 2.533-4.575 9.079 0 25.928-11.697 25.928-11.697s3.531 10.328 8.926 11.697c0 0 2.613.479 2.613 4.575 0 4.929-3.486 5.781-3.486 5.781-.045 7.438-10.289 16.409-16.513 16.409-6.222 0-16.641-8.972-16.641-16.409z"/><path fill="#E0A372" d="M31.964 38.216c-3.215 0-4.822-2.308-3.215-2.308h6.43c1.61 0 .001 2.307-3.215 2.308z"/><path fill="#F5F5F5" d="M36.789 31.409c-1.119 0-.969-1.395-.969-1.395 1.721-8.784 11.529-4.105 11.529-4.105.77 1.538-1.787 5.331-2.477 5.5-3.235.811-8.083 0-8.083 0z"/><path fill="#664E27" d="M44.658 27.831a3.461 3.461 0 1 1-6.923 0 3.461 3.461 0 0 1 6.923 0z"/><circle fill="#2B2925" cx="41.195" cy="27.831" r="1.154"/><path fill="#3B3226" d="M35.811 30.015c1.73-10.542 10.385-3.514 13.848-5.018-3.464 3.26-10.386-3.767-13.848 5.018z"/><path fill="#F5F5F5" d="M27.14 31.409c1.119 0 .971-1.395.971-1.395-1.723-8.784-11.53-4.105-11.53-4.105-.77 1.538 1.786 5.331 2.478 5.5 3.235.811 8.081 0 8.081 0z"/><circle fill="#664E27" cx="22.734" cy="27.831" r="3.461"/><path fill="#3B3226" d="M28.119 30.015c-1.73-10.542-10.384-3.514-13.846-5.018 3.461 3.26 10.385-3.767 13.846 5.018z"/><circle fill="#2B2925" cx="22.734" cy="27.831" r="1.154"/><g><path fill="#B386E2" d="M52.398 61.979c0-15-1.389-15.171-20.4-15.171-19.018 0-20.395.171-20.395 15.171h40.795z"/><path fill="#F2C4A5" d="M4.222 20.198c.821.649 13.871 11.209 13.871 11.209l-3.201 6.136c-4.308-2.57-6.224-7.232-12.492-14.384-1.16-1.323.437-4.054 1.822-2.961zM59.777 20.198a9908.21 9908.21 0 0 0-13.869 11.209l3.199 6.136c4.309-2.57 6.225-7.232 12.492-14.384 1.161-1.323-.435-4.054-1.822-2.961z"/><path fill="#C99FF7" d="M42.807 44.38c4.414-3.542 7.43-6.208 7.43-6.208l-3.484-7.887C43.775 33.034 38.125 35.95 32 38.973c-6.125-3.022-11.774-5.938-14.752-8.688l-3.484 7.887s3.016 2.666 7.429 6.208C10.897 49.807 3.038 55.444 9.108 60.968 12.827 64.354 22.804 58.92 32 52.512c9.197 6.408 19.175 11.843 22.894 8.456 6.069-5.524-1.79-11.16-12.087-16.588z"/><path fill="#B386E2" d="M23.121 58.131L42.807 44.38 28.361 57.979zM21.193 44.38L32 38.973l-11.782 4.62z"/></g></svg>