<svg xmlns="http://www.w3.org/2000/svg" width="64" height="64" viewBox="0 0 64 64"><path fill="#94989B" d="M2 56.213h60V62H2z"/><path fill="#3E4347" d="M49.526 51.512c0 3.391 2.518 6.141 5.625 6.141 3.106 0 5.625-2.75 5.625-6.141h-11.25z"/><path fill="#94989B" d="M57.026 51.512c0 1.129-.843 2.047-1.875 2.047-1.035 0-1.875-.918-1.875-2.047h-1.875c0 2.256 1.681 4.094 3.75 4.094 2.066 0 3.75-1.838 3.75-4.094h-1.875z"/><path fill="#3E4347" d="M37.495 51.512c0 3.391 2.518 6.141 5.625 6.141s5.625-2.75 5.625-6.141h-11.25z"/><path fill="#94989B" d="M44.995 51.512c0 1.129-.843 2.047-1.875 2.047-1.034 0-1.875-.918-1.875-2.047H39.37c0 2.256 1.681 4.094 3.75 4.094 2.067 0 3.75-1.838 3.75-4.094h-1.875z"/><g><path fill="#3E4347" d="M25.464 51.512c0 3.391 2.518 6.141 5.625 6.141s5.625-2.75 5.625-6.141h-11.25z"/><path fill="#94989B" d="M32.964 51.512c0 1.129-.842 2.047-1.875 2.047-1.034 0-1.875-.918-1.875-2.047h-1.875c0 2.256 1.681 4.094 3.75 4.094 2.067 0 3.75-1.838 3.75-4.094h-1.875z"/></g><g><path fill="#52575B" d="M26.897 52.182H62v-5.235l-32.966-.883z"/><path fill="#42ADE2" d="M8.575 50.713l-2.78 9.506h14.238c7.211 0 14.054-11.797 14.054-11.797L8.575 50.713z"/><path fill="#C5D0D8" d="M32.899 12.329l-7.656 11.504S7.488 30.726 5.262 39.943c-1.396 5.777 3.681 9.498 8.225 11.797 7.85.166 20.601-3.318 20.601-3.318H62V13.915s-19.218-2.866-29.101-1.586z"/><path fill="#DFECF4" d="M5.261 39.943C7.488 30.726 48.6 16.709 56.623 17.147c0 0-5.484-2.263-13.641-3.783l-18.503 6.321c-.258.526-.409.866-.409.866S4.437 30.837 2.233 39.242c-.279 1.066-.341 3.633 0 4.645 1.015 3 5.064 6.365 7.079 7.189 1.056.434 2.506.629 4.174.664-4.544-2.299-9.621-6.019-8.225-11.797z"/><path fill="#3E4347" d="M42.982 13.364c-.022-.002-.047-.008-.069-.013l-6.008-.833a48.201 48.201 0 0 0-5.154-.182c-.665.091-1.217.208-1.604.362-2.488.987-4.77 5.163-5.668 6.986l18.515-1.557-.012-4.763z"/><path fill="#42ADE2" d="M62 41.99H32.877c0-11.774 16.631-11.774 16.631-11.774H62V41.99z"/><path fill="#AAB5BC" d="M20.886 40.184c0 .82-.403 1.484-.896 1.484h-9.336c-.494 0-.895-.664-.895-1.484s.401-1.484.895-1.484h9.336c.492-.001.896.663.896 1.484z"/><path fill="#3E4347" d="M20.853 51.66c-1.344.184-2.397 1.715-2.397 3.596 0 1.883 1.053 3.412 2.397 3.598V51.66z"/><path fill="#FFF" d="M20.853 53.1c-.806.109-1.438 1.027-1.438 2.156 0 1.131.633 2.049 1.438 2.16V53.1zM20.054 38.984c-.448.063-.799.57-.799 1.199 0 .627.352 1.137.799 1.199v-2.398z"/><path fill="#3E4347" d="M14.382 52.764c-1.054.146-1.878 1.344-1.878 2.82 0 1.475.825 2.676 1.878 2.82v-5.64z"/><path fill="#FFF" d="M14.382 53.891c-.631.088-1.127.807-1.127 1.693 0 .885.496 1.604 1.127 1.691v-3.384z"/><path fill="#3E4347" d="M9.758 53.244c-.752.105-1.34.961-1.34 2.012 0 1.053.588 1.908 1.34 2.014v-4.026z"/><path fill="#FFF" d="M9.758 54.051c-.451.061-.804.574-.804 1.205 0 .633.354 1.146.804 1.209v-2.414z"/><path fill="#3E4347" d="M43.735 13.508v4.532l12.296-1.211s-6.686-2.5-12.296-3.321z"/><path fill="#FFF" d="M5.073 41.002c-.125-1.362.556-2.687 1.357-3.768.817-1.102 1.815-2.043 2.847-2.924 2.094-1.733 4.384-3.188 6.735-4.505 4.707-2.638 9.669-4.733 14.693-6.615 5.043-1.835 10.168-3.433 15.383-4.692a99.832 99.832 0 0 1 7.886-1.605c2.648-.371 5.348-.782 8.026-.481-2.668.145-5.253.809-7.829 1.444-2.576.646-5.129 1.39-7.674 2.149-5.08 1.551-10.127 3.214-15.101 5.062-4.981 1.823-9.904 3.812-14.661 6.115-2.365 1.173-4.705 2.41-6.865 3.905-1.083.74-2.116 1.557-3.017 2.501-.874.941-1.685 2.059-1.78 3.414z"/></g></svg>