<svg xmlns="http://www.w3.org/2000/svg" width="64" height="64" viewBox="0 0 64 64"><path fill="#83BF4F" d="M62 62H2v-4.803l60-14.666z"/><path fill="#94989B" d="M2 44.295l60-4.053v1.418L2 52.779z"/><path fill="#3E4347" d="M2 41.656l60-3.674v1.981L2 44.295zM2 49.541l60-8.398v1.035L2 55.014z"/><path fill="#C5D0D8" d="M2 53.613l60-11.75v.668L2 59.088z"/><path fill="#DFECF4" d="M47.353 11.934c-.943-.556-3.129-.815-4.168-.633-1.358.241-5.019 2.674-5.019 2.674s-1.99-2.509-3.954-4.093c-.076.054-.15.108-.213.155-3.006 2.277-8.804 7.908-11.877 10.051-1.12.781-3.742 2.588-5.038 2.588H7.818c-.424 0-.763-.625-.783-1.134-.084-2.073 3.171-7.852 5.94-12.374-2.704 2.765-4.751 6.128-6.29 9.542-1.496 3.319-2.516 6.681-3.205 9.571a62.288 62.288 0 0 0-1.148 6.159l-.141 1.17a26.23 26.23 0 0 0-.079.826l36.094.484L62 37.406V21.441c-2.855-1.879-12.849-8.448-14.647-9.507z"/><path fill="#42ADE2" d="M42.254 6.1c-1.237-.634-3.85-1.509-5.18-1.75-.762-.138-1.73-.235-2.834-.292 2.627 1.068 5.06 2.576 5.06 2.576s-3.636 2.203-5.088 3.248c1.964 1.584 3.954 4.093 3.954 4.093s3.66-2.433 5.019-2.674c1.039-.183 3.225.077 4.168.633 1.799 1.06 11.792 7.628 14.647 9.508V20.1S47.524 8.805 42.254 6.1z"/><path fill="#3E4347" d="M34.24 4.058a52.953 52.953 0 0 0-3.792-.043c-5.596.122-10.892.578-14.065 2.357-1.502.842-2.491 1.859-3.407 2.795-2.77 4.522-6.024 10.301-5.94 12.374.021.509.359 1.134.783 1.134h9.266c1.296 0 3.918-1.807 5.038-2.588 3.073-2.144 8.871-7.774 11.877-10.051.063-.047.137-.101.213-.155C35.664 8.837 39.3 6.634 39.3 6.634s-2.433-1.508-5.06-2.576zM52.652 20.192v7.082c.712.216 1.448.445 2.186.679v-6.675a92.096 92.096 0 0 0-2.186-1.086zM55.87 21.812v6.472c.576.186 1.145.372 1.699.555v-6.123c-.554-.299-1.123-.602-1.699-.904z"/><path fill="#42ADE2" d="M30.073 32.01c3.777-1.274 10.932-5.514 14.811-6.222.722-.132 2.192.06 2.913.194.94.175 2.308.539 3.845.99V19.72c-1.471-.671-2.786-1.195-3.724-1.418-.654-.157-2.029-.227-2.67 0-4.429 1.57-11.671 9.063-15.903 11.279-3.259 1.706-10.081 4.859-13.637 4.859H2.332a50.17 50.17 0 0 0-.141 1.17h13.922c3.57-.001 10.525-2.44 13.96-3.6z"/><path fill="#3E4347" d="M60.634 24.409v5.459c.513.175.973.332 1.366.469v-5.151a184.23 184.23 0 0 0-1.366-.777zM58.358 23.145v5.956c.554.185 1.082.363 1.578.531v-5.614c-.495-.278-1.024-.571-1.578-.873zM2.112 36.436s1.252 4.414 5.045 4.23L62 38.926v-1.52l-59.888-.97z"/><path fill="#62727A" d="M5.927 40.555s2.402 1.605.542 3.275c-1.009.906.264 2.631 4.212 2.254C23.521 44.857 62 40.906 62 40.906v-1.98L5.927 40.555z"/><path fill="#FFF" d="M24.235 28.698c-1.623 1.636-3.745 2.15-4.742 1.146-.995-1.003-.486-3.142 1.139-4.778 1.623-1.636 3.745-2.15 4.742-1.147.995 1.003.486 3.143-1.139 4.779zM4.499 29.11c.69-.04 1.18-1.25 1.097-2.703-.063-1.108-.441-2.032-.923-2.393a59.222 59.222 0 0 0-1.177 4.206c.262.56.62.913 1.003.89z"/></svg>