<svg xmlns="http://www.w3.org/2000/svg" width="64" height="64" viewBox="0 0 64 64"><path fill="#FFCE31" d="M2 38.363h60v16.522H2z"/><path fill="#3E4347" d="M2 54.885h60v1.775H2zM13.752 44.065H62v1.017H13.752zM13.752 38.844H62v1.015H13.752z"/><path fill="#63686B" d="M49.586 46.754c-4.57 0-8.277 3.639-8.277 8.132 0 .608.07 1.204.2 1.775l16.155-.001a8.119 8.119 0 0 0 .197-1.774c0-4.493-3.705-8.132-8.275-8.132zM18.551 46.754c-4.57 0-8.275 3.639-8.275 8.132a8 8 0 0 0 .198 1.775l16.156-.001c.13-.572.198-1.166.198-1.774 0-4.493-3.706-8.132-8.277-8.132z"/><path fill="#FFCE31" d="M59.931 16H4.259c-1.148 0-1.968.945-2.259 2.026v20.337h60v-20.33C62 16.916 61.068 16 59.931 16z"/><ellipse fill="#3E4347" cx="49.586" cy="54.884" rx="7.242" ry="7.116"/><ellipse fill="#94989B" cx="49.586" cy="54.885" rx="3.62" ry="3.558"/><ellipse fill="#3E4347" cx="18.551" cy="54.884" rx="7.24" ry="7.116"/><path fill="#94989B" d="M18.551 51.327c-1.996 0-3.62 1.594-3.62 3.559 0 1.964 1.625 3.558 3.62 3.558 1.998 0 3.622-1.594 3.622-3.558 0-1.965-1.624-3.559-3.622-3.559z"/><path fill="#3E4347" d="M2 20.941h3.125v17.422H2z"/><path fill="#F5F5F5" d="M4.659 53.712c-.267.213-1.504.75-1.504.75v-3.629s1.238.538 1.504.751c.801.642.801 1.485 0 2.128z"/><path fill="#ED4C5C" d="M4.105 41.763c-.168.161-.951.563-.951.563v-2.723s.782.402.951.564c.506.481.506 1.115 0 1.596z"/><path fill="#63686B" d="M14.898 20.941h7.5v4.538h-7.5z"/><path fill="#3E4347" d="M14.898 27.295h7.5v4.538h-7.5z"/><path fill="#63686B" d="M24.144 20.941h7.5v4.538h-7.5z"/><path fill="#3E4347" d="M24.144 27.295h7.5v4.538h-7.5z"/><path fill="#63686B" d="M33.518 20.941h7.5v4.538h-7.5z"/><path fill="#3E4347" d="M33.518 27.295h7.5v4.538h-7.5z"/><path fill="#63686B" d="M42.893 20.941h7.5v4.538h-7.5z"/><path fill="#3E4347" d="M42.893 27.295h7.5v4.538h-7.5z"/><path fill="#63686B" d="M51.688 20.941h7.5v4.538h-7.5z"/><path fill="#3E4347" d="M51.688 27.295h7.5v4.538h-7.5zM2 33.621h60v1.017H2z"/><g><path fill="#F5F5F5" d="M18.526 43.81l-3.295-3.191v-4.511l3.295-3.19h4.66l3.295 3.19v4.511l-3.295 3.191z"/><path fill="#ED4C5C" d="M19.108 42.448l-2.47-2.391v-3.385l2.47-2.392h3.496l2.471 2.392v3.385l-2.471 2.391z"/><path fill="#94989B" d="M13.284 36.478h1.948v3.773h-1.948z"/></g><path fill="#94989B" d="M4.032 23.489h2.657v12.328H4.032z"/><path fill="#3E4347" d="M6.688 20.941h6.334v10.891H6.688zM2 43.618h4.688v6.352H2z"/><g fill="#63686B"><path d="M2 44.525h3.75v.908H2zM2 46.34h3.75v.907H2zM2 48.155h3.75v.907H2z"/></g></svg>