<svg xmlns="http://www.w3.org/2000/svg" width="64" height="64" viewBox="0 0 64 64"><path fill="#83BF4F" d="M4.813 22.625h54.375V43.25H4.813z"/><path fill="#FFCE31" d="M4.813 43.25h54.375V47H4.813z"/><path fill="#3E4347" d="M55.438 18.875H8.563a3.761 3.761 0 0 0-3.75 3.75h54.375a3.762 3.762 0 0 0-3.75-3.75zM25.438 15.125h13.125v3.75H25.438zM2 2h60v1.875H2zM23.563 39.793h-9.375v-11.25c0-3.28 9.375-3.28 9.375 0v11.25z"/><path fill="#B4D7EE" d="M21.688 30.066c0-2.344-5.625-2.344-5.625 0v7.5h5.625v-7.5z"/><path fill="#3E4347" d="M12.313 41.668h-7.5V25.146s7.5.194 7.5 4.335v12.187z"/><path fill="#B4D7EE" d="M10.438 31.004c0-3.672-5.625-3.633-5.625-3.633v12.07h5.625v-8.437z"/><path fill="#3E4347" d="M34.813 39.793h-9.375v-11.25c0-3.28 9.375-3.28 9.375 0v11.25z"/><path fill="#B4D7EE" d="M32.938 30.066c0-2.344-5.625-2.344-5.625 0v7.5h5.625v-7.5z"/><path fill="#3E4347" d="M46.063 39.793h-9.375v-11.25c0-3.28 9.375-3.28 9.375 0v11.25z"/><path fill="#B4D7EE" d="M44.188 30.066c0-2.344-5.625-2.344-5.625 0v7.5h5.625v-7.5z"/><path fill="#3E4347" d="M57.313 39.793h-9.375v-11.25c0-3.28 9.375-3.28 9.375 0v11.25z"/><path fill="#B4D7EE" d="M55.438 30.066c0-2.344-5.625-2.344-5.625 0v7.5h5.625v-7.5z"/><path fill="#3E4347" d="M5.81 15.516h3.203v5.625H5.81zM13.524 17.469h9.102v3.672h-9.102zM43.855 17.04h9.102v3.671h-9.102z"/><path fill="#94989B" d="M2 56.375h60V62H2z"/><path fill="#E6E6E6" d="M2 57.313h60v.938H2z"/><path fill="#3E4347" d="M35.32 7.151l.732.45-5.368 8.733-.733-.45zM40.809 8.41l1.431.882-5.374 8.73-1.431-.882z"/><path fill="#3E4347" d="M31.753 3.466l.678-.53 7.238 9.268-.678.53zM35.307 3.33l1.414-1.105L42.24 9.28l-1.414 1.106z"/><path fill="#699635" d="M4.813 47S2.92 47 2.92 49.813V53.564h56.268V47H4.813z"/><path fill="#3E4347" d="M2.919 51.961h56.268v1.602H2.919z"/><g><path fill="#63686B" d="M18.875 49.813H9.5l-2.812 3.75h15z"/><circle fill="#3E4347" cx="10.906" cy="53.563" r="2.813"/><circle fill="#94989B" cx="10.906" cy="53.563" r=".938"/><circle fill="#3E4347" cx="17.469" cy="53.563" r="2.813"/><circle fill="#94989B" cx="17.469" cy="53.563" r=".938"/><g><path fill="#63686B" d="M54.5 49.813h-9.375l-2.812 3.75h15z"/><g fill="#3E4347"><circle cx="46.531" cy="53.563" r="2.813"/><circle cx="53.094" cy="53.563" r="2.813"/></g><circle fill="#94989B" cx="46.531" cy="53.563" r=".938"/><circle fill="#94989B" cx="53.094" cy="53.563" r=".938"/></g></g></svg>