<svg xmlns="http://www.w3.org/2000/svg" width="64" height="64" viewBox="0 0 64 64"><path fill="#B3BDC4" d="M29.188 12.781h9.375v4.688h-9.375z"/><path fill="#E1E8ED" d="M4.591 34.421c-.489.577-.716 3.204-.716 3.204v15h54.871S62 43.273 62 22.625c0-7.342-4.574-7.5-20.625-7.5s-20.002 1.513-23.438 4.688c-3.162 2.923-9.596 10.194-13.346 14.608z"/><path fill="#3E4347" d="M19.514 20.75L7.795 32.937h19.517V17.634c-3.579 0-6.386 1.705-7.798 3.116z"/><path fill="#B3BDC4" d="M62 54.5a1.88 1.88 0 0 1-1.875 1.875H3.875A1.88 1.88 0 0 1 2 54.5a1.88 1.88 0 0 1 1.875-1.875h56.25A1.88 1.88 0 0 1 62 54.5z"/><path fill="#F15744" d="M33.875 6.688c-1.555 0-2.598 1.274-2.813 2.813-.119.845-.938 3.281-.938 3.281h7.5s-.82-2.436-.938-3.281c-.214-1.539-1.258-2.813-2.811-2.813z"/><path fill="#FFC7CE" d="M32 9.5c0 1.036.839 1.875 1.875 1.875v-3.75A1.874 1.874 0 0 0 32 9.5z"/><path fill="#F15744" d="M40.04 2l-2.884 4.688 4.688-3.282zM27.708 2l2.886 4.688-4.688-3.282zM38.563 8.563l4.687-1.875.938 1.875zM29.188 8.563L24.5 6.688l-.937 1.875z"/><path fill="#62727A" d="M6.375 46.688V39.5A1.88 1.88 0 0 0 4.5 37.625h-.625V48.563H4.5a1.88 1.88 0 0 0 1.875-1.875z"/><path fill="#F15744" d="M61.441 36.607H32.938l-3.77 3.83H6.375v3.75h24.688l3.691-3.672H61.05c.14-1.206.272-2.507.391-3.908zM52.625 25.906a.941.941 0 0 0-.938-.938h-3.281a.94.94 0 0 1-.938-.938v-3.28a.941.941 0 0 0-.938-.938h-.938a.94.94 0 0 0-.938.938v3.281a.941.941 0 0 1-.938.938h-3.281a.94.94 0 0 0-.938.938v.938a.94.94 0 0 0 .938.937h3.281c.515 0 .938.423.938.938V32a.94.94 0 0 0 .938.938h.938a.94.94 0 0 0 .938-.938v-3.281a.94.94 0 0 1 .938-.938h3.281a.94.94 0 0 0 .938-.937v-.938z"/><g><path fill="#3E4347" d="M56.375 54.498A7.5 7.5 0 1 0 48.874 62a7.505 7.505 0 0 0 7.501-7.502z"/><path fill="#DAE3EA" d="M48.874 50.213a4.287 4.287 0 0 1 0 8.572 4.287 4.287 0 0 1 0-8.572z"/><circle fill="#3E4347" cx="48.874" cy="50.214" r="1.071"/><circle fill="#3E4347" cx="45.162" cy="52.356" r="1.071"/><circle fill="#3E4347" cx="45.162" cy="56.643" r="1.07"/><circle fill="#3E4347" cx="48.874" cy="58.785" r="1.072"/><circle fill="#3E4347" cx="52.588" cy="56.642" r="1.071"/><path fill="#3E4347" d="M53.123 53.283a1.07 1.07 0 1 1-1.071-1.854c.513-.297 1.168-.123 1.463.391s.116 1.168-.392 1.463z"/><circle fill="#62727A" cx="48.874" cy="54.498" r="2.143"/><g><path fill="#3E4347" d="M22.625 54.498c0-4.143-3.361-7.5-7.5-7.5a7.502 7.502 0 0 0 0 15.002c4.139 0 7.5-3.361 7.5-7.502z"/><path fill="#DAE3EA" d="M19.41 54.498a4.287 4.287 0 1 0-4.285 4.287 4.288 4.288 0 0 0 4.285-4.287z"/><circle fill="#3E4347" cx="15.125" cy="50.213" r="1.072"/><circle fill="#3E4347" cx="11.413" cy="52.356" r="1.071"/><path fill="#3E4347" d="M10.875 55.715a1.076 1.076 0 0 1 1.468.393 1.07 1.07 0 0 1-.395 1.463 1.071 1.071 0 1 1-1.073-1.856z"/><circle fill="#3E4347" cx="15.125" cy="58.786" r="1.071"/><circle fill="#3E4347" cx="18.839" cy="56.643" r="1.072"/><circle fill="#3E4347" cx="18.839" cy="52.355" r="1.07"/><circle fill="#62727A" cx="15.125" cy="54.498" r="2.143"/></g></g></svg>