<svg xmlns="http://www.w3.org/2000/svg" width="64" height="64" viewBox="0 0 64 64"><path fill="#F15744" d="M58.181 37.875l-3.394-1.584c-1.055-.318-2.107-1.381-2.344-2.363L50.26 23.86c-.237-.983-1.337-1.86-2.45-1.86H25.852c-1.115 0-2.434.962-2.93 1.86 0 0-3.274 6.489-4.336 8.359-.507.893-2.722 2.772-3.759 3.142-2.116.754-6.427 3.426-6.427 3.426-1.055.319-2.231 1.769-2.48 2.748l.558 1.931-1.58 1.79-1.022 3.721h56.25v-8.372c-.001-1.005-.891-2.412-1.945-2.73z"/><path fill="#B2C1C0" d="M62 51.165c0-1.403-.482-2.188-1.526-2.188H3.526c-1.044 0-1.526.785-1.526 2.188 0 .306.145 2.02.204 2.317.238 1.194 1.228 1.072 2.271 1.072h55.051c1.043 0 2.032.122 2.271-1.072.058-.297.203-2.011.203-2.317z"/><path fill="#3E4347" d="M37.625 33.989c0 .569.408 1.034.908 1.034h9.599c.499 0 .825-.455.725-1.012l-1.32-8.208c-.097-.558-.586-1.014-1.085-1.014h-7.918c-.5 0-.908.465-.908 1.034v8.166zM34.813 25.825c0-.569-.418-1.034-.929-1.034h-6.978c-.51 0-1.125.411-1.364.912l-3.753 8.418c-.246.496-.032.903.478.903h11.617c.511 0 .929-.465.929-1.034v-8.165z"/><path fill="#FFF" d="M4.897 45.256h2.834c.451 0 .955-.419 1.119-.931l.598-1.86c.164-.512-.071-.93-.523-.93H5.919l-1.022 3.721z"/><path fill="#FFE62E" d="M60.125 41.535h-2.309c-.368 0-.778.418-.912.93l-.487 1.86c-.134.512.059.931.427.931h3.281v-3.721z"/><ellipse fill="#3E4347" cx="16.063" cy="53.628" rx="8.438" ry="8.372"/><path fill="#E8E8E8" d="M20.884 53.628c0 2.642-2.159 4.785-4.821 4.785-2.663 0-4.822-2.144-4.822-4.785 0-2.64 2.159-4.784 4.822-4.784 2.662 0 4.821 2.144 4.821 4.784z"/><path fill="#3E4347" d="M17.201 51.272c-.204.638-.717 1.16-1.139 1.16s-.935-.522-1.139-1.16l-.021-.072c-.205-.638.318-1.159 1.161-1.159s1.366.521 1.161 1.159l-.023.072zM14.575 51.472c.454.495.654 1.197.443 1.559-.21.362-.921.542-1.58.4l-.075-.019c-.659-.144-.853-.853-.431-1.578.421-.725 1.137-.911 1.591-.417l.052.055zM13.438 53.827c.659-.141 1.37.039 1.58.4.211.361.011 1.063-.44 1.559l-.054.055c-.455.495-1.17.306-1.591-.418-.422-.726-.229-1.434.431-1.577l.074-.019zM14.923 55.984c.207-.638.718-1.159 1.139-1.159s.935.521 1.139 1.159l.022.073c.205.638-.318 1.158-1.161 1.158s-1.366-.521-1.161-1.158l.022-.073zM17.55 55.785c-.454-.495-.654-1.196-.443-1.559.209-.362.921-.542 1.58-.4l.076.018c.659.144.852.854.43 1.579-.421.724-1.137.912-1.591.416l-.052-.054zM18.688 53.429c-.659.143-1.371-.037-1.58-.399-.211-.362-.014-1.063.44-1.559l.055-.054c.454-.496 1.17-.308 1.591.417.421.726.229 1.434-.43 1.578l-.076.017z"/><path fill="#E8E8E8" d="M18.695 56.954l-1.046.599-4.219-7.25 1.046-.6z"/><path fill="#E8E8E8" d="M11.844 53.03h8.438v1.196h-8.438z"/><path fill="#E8E8E8" d="M17.649 49.703l1.046.6-4.219 7.25-1.046-.599z"/><g><ellipse fill="#3E4347" cx="47.938" cy="53.628" rx="8.438" ry="8.372"/><path fill="#E8E8E8" d="M52.759 53.628c0 2.642-2.159 4.785-4.821 4.785s-4.821-2.144-4.821-4.785c0-2.64 2.159-4.784 4.821-4.784s4.821 2.144 4.821 4.784z"/><path fill="#3E4347" d="M49.076 51.272c-.204.638-.718 1.16-1.139 1.16s-.935-.522-1.139-1.16l-.022-.072c-.205-.638.319-1.159 1.161-1.159.842 0 1.366.521 1.161 1.159l-.022.072zM46.45 51.472c.454.495.654 1.197.441 1.559-.208.362-.92.542-1.579.4l-.076-.019c-.659-.144-.852-.853-.43-1.578.421-.725 1.137-.911 1.591-.417l.053.055zM45.313 53.827c.659-.141 1.371.039 1.579.4.213.361.013 1.063-.439 1.559l-.055.055c-.454.495-1.17.306-1.591-.418-.422-.726-.229-1.434.43-1.577l.076-.019zM46.799 55.984c.207-.638.718-1.159 1.139-1.159s.935.521 1.139 1.159l.022.073c.205.638-.319 1.158-1.161 1.158-.842 0-1.366-.521-1.161-1.158l.022-.073zM49.425 55.785c-.454-.495-.654-1.196-.441-1.559.208-.362.92-.542 1.579-.4l.076.018c.659.144.852.854.43 1.579-.421.724-1.137.912-1.591.416l-.053-.054zM50.563 53.429c-.659.143-1.371-.037-1.579-.399-.213-.362-.015-1.063.439-1.559l.055-.054c.454-.496 1.17-.308 1.591.417.422.726.229 1.434-.43 1.578l-.076.017z"/><path fill="#E8E8E8" d="M50.569 56.954l-1.045.599-4.218-7.25 1.045-.6z"/><path fill="#E8E8E8" d="M43.719 53.03h8.438v1.196h-8.438z"/><path fill="#E8E8E8" d="M49.524 49.703l1.045.6-4.218 7.25-1.045-.599z"/></g></svg>