<svg xmlns="http://www.w3.org/2000/svg" width="64" height="64" viewBox="0 0 64 64"><path fill="#FFE62E" d="M58.181 38.1l-5.269-1.568c-1.055-.316-2.107-1.369-2.344-2.342l-2.184-9.052c-.236-.974-1.337-1.843-2.45-1.843H27.727c-1.115 0-2.434.953-2.93 1.843l-5.273 9.203c-.497.891-1.767 1.875-2.822 2.191L8.4 39.005c-1.055.316-2.231 1.75-2.48 2.721l.558 1.914-1.58 1.773-1.022 3.686h56.25v-8.295c-.001-.995-.891-2.388-1.945-2.704z"/><path fill="#B2C1C0" d="M62 51.266c0-1.391-.482-2.168-1.526-2.168H3.526c-1.044 0-1.526.777-1.526 2.168 0 .303.145 2.002.204 2.297.238 1.182 1.228 1.061 2.271 1.061h55.051c1.043 0 2.032.121 2.271-1.061.058-.295.203-1.995.203-2.297z"/><path fill="#3E4347" d="M35.75 34.25c0 .564.408 1.023.908 1.023h7.724c.499 0 .825-.449.725-1.002l-1.32-7.209c-.097-.552-.586-1.004-1.085-1.004h-6.043c-.5 0-.908.461-.908 1.024v7.168zM33.875 27.083c0-.563-.418-1.024-.928-1.024h-5.103c-.51 0-1.125.407-1.364.903l-3.753 7.419c-.246.49-.032.893.478.893h9.742c.51 0 .928-.459.928-1.023v-7.168z"/><path fill="#FFF" d="M4.897 45.412h2.834c.451 0 .955-.414 1.119-.922l.598-1.844c.164-.506-.071-.922-.523-.922H5.919l-1.022 3.688z"/><path fill="#F15744" d="M60.125 41.725h-2.309c-.368 0-.778.416-.912.922l-.487 1.844c-.134.508.059.922.427.922h3.281v-3.688z"/><g fill="#3E4347"><path d="M24.969 42.186c0 .254-.21.461-.469.461h-1.875a.466.466 0 0 1-.469-.461v-1.844c0-.252.21-.459.469-.459H24.5c.258 0 .469.207.469.459v1.844zM27.781 44.951c0 .252-.21.461-.469.461h-1.875a.467.467 0 0 1-.469-.461v-1.844c0-.254.21-.461.469-.461h1.875c.258 0 .469.207.469.461v1.844zM30.594 42.186c0 .254-.21.461-.469.461H28.25a.466.466 0 0 1-.469-.461v-1.844c0-.252.21-.459.469-.459h1.875c.258 0 .469.207.469.459v1.844zM33.406 44.951a.467.467 0 0 1-.469.461h-1.875a.467.467 0 0 1-.469-.461v-1.844c0-.254.21-.461.469-.461h1.875c.258 0 .469.207.469.461v1.844zM36.219 42.186a.466.466 0 0 1-.469.461h-1.875a.466.466 0 0 1-.469-.461v-1.844c0-.252.211-.459.469-.459h1.875c.258 0 .469.207.469.459v1.844zM39.031 44.951a.467.467 0 0 1-.469.461h-1.875a.467.467 0 0 1-.469-.461v-1.844c0-.254.211-.461.469-.461h1.875c.258 0 .469.207.469.461v1.844zM41.844 42.186a.466.466 0 0 1-.469.461H39.5a.466.466 0 0 1-.469-.461v-1.844c0-.252.211-.459.469-.459h1.875c.258 0 .469.207.469.459v1.844z"/></g><path fill="#F15744" d="M34.178 16.697c-.213-.859-1.086-.773-1.943-.773s-1.73-.086-1.944.773l-.785 4.754h5.457l-.785-4.754z"/><path fill="#3E4347" d="M35.508 21.451h-2.182l-.314-5.546c-.085-1.002-.435-.901-.777-.901-.343 0-.692-.101-.777.901l-.314 5.546H28.96c-.6 0-1.091.415-1.091.921v.922h8.73v-.922c.001-.507-.491-.921-1.091-.921z"/><ellipse fill="#3E4347" cx="16.063" cy="53.705" rx="8.438" ry="8.295"/><ellipse fill="#E8E8E8" cx="16.062" cy="53.705" rx="4.822" ry="4.74"/><path fill="#3E4347" d="M17.201 51.371c-.204.633-.718 1.15-1.139 1.15s-.935-.518-1.139-1.15l-.022-.07c-.205-.631.319-1.148 1.161-1.148.842 0 1.366.518 1.161 1.148l-.022.07zM14.575 51.57c.454.49.655 1.186.442 1.543-.209.359-.92.537-1.58.396l-.075-.018c-.659-.143-.853-.846-.431-1.563.421-.719 1.137-.904 1.591-.414l.053.056zM13.438 53.904c.659-.141 1.371.037 1.58.396.212.357.012 1.053-.439 1.543l-.055.055c-.454.49-1.169.303-1.591-.414-.422-.719-.229-1.42.431-1.563l.074-.017zM14.924 56.041c.207-.633.718-1.148 1.139-1.148s.935.516 1.139 1.148l.022.072c.205.631-.319 1.146-1.161 1.146-.842 0-1.366-.516-1.161-1.146l.022-.072zM17.55 55.842c-.454-.49-.655-1.184-.442-1.543.209-.359.92-.537 1.58-.396l.076.018c.659.143.852.846.43 1.564-.421.717-1.137.904-1.591.412l-.053-.055zM18.688 53.508c-.659.143-1.371-.037-1.58-.395-.212-.359-.015-1.055.439-1.545l.055-.053c.454-.492 1.17-.305 1.591.414.421.717.229 1.418-.43 1.563l-.075.016z"/><path fill="#E8E8E8" d="M18.695 57.002l-1.046.592-4.219-7.184 1.046-.592z"/><path fill="#E8E8E8" d="M11.844 53.113h8.438v1.186h-8.438z"/><path fill="#E8E8E8" d="M17.649 49.818l1.046.592-4.219 7.184-1.046-.592z"/><g><ellipse fill="#3E4347" cx="47.938" cy="53.705" rx="8.438" ry="8.295"/><ellipse fill="#E8E8E8" cx="47.938" cy="53.705" rx="4.821" ry="4.74"/><path fill="#3E4347" d="M49.076 51.371c-.204.633-.718 1.15-1.139 1.15s-.935-.518-1.139-1.15l-.022-.07c-.205-.631.319-1.148 1.161-1.148.842 0 1.366.518 1.161 1.148l-.022.07zM46.45 51.57c.454.49.654 1.186.441 1.543-.208.359-.92.537-1.579.396l-.076-.018c-.659-.143-.852-.846-.43-1.563.421-.719 1.137-.904 1.591-.414l.053.056zM45.313 53.904c.659-.141 1.371.037 1.579.396.213.357.013 1.053-.439 1.543l-.055.055c-.454.49-1.17.303-1.591-.414-.422-.719-.229-1.42.43-1.563l.076-.017zM46.799 56.041c.207-.633.718-1.148 1.139-1.148s.935.516 1.139 1.148l.022.072c.205.631-.319 1.146-1.161 1.146-.842 0-1.366-.516-1.161-1.146l.022-.072zM49.425 55.842c-.454-.49-.654-1.184-.441-1.543.208-.359.92-.537 1.579-.396l.076.018c.659.143.852.846.43 1.564-.421.717-1.137.904-1.591.412l-.053-.055zM50.563 53.508c-.659.143-1.371-.037-1.579-.395-.213-.359-.015-1.055.439-1.545l.055-.053c.454-.492 1.17-.305 1.591.414.422.717.229 1.418-.43 1.563l-.076.016z"/><path fill="#E8E8E8" d="M50.569 57.002l-1.045.592-4.218-7.184 1.045-.592z"/><path fill="#E8E8E8" d="M43.719 53.113h8.438v1.186h-8.438z"/><path fill="#E8E8E8" d="M49.524 49.818l1.045.592-4.218 7.184-1.045-.592z"/></g></svg>