<svg xmlns="http://www.w3.org/2000/svg" width="64" height="64" viewBox="0 0 64 64"><path fill="#FFB300" d="M36.816 23.153c-.135.957-2.291-.439-1.305-2.396C36.902 17.998 40.34 18 40.34 18s-3.152 2.504-3.524 5.153z"/><path fill="#FFB300" d="M38.637 22.523c-.322.857-2.027-.881-.709-2.485 1.857-2.259 5.031-1.544 5.031-1.544s-3.432 1.66-4.322 4.029z"/><path fill="#FFB300" d="M40.229 22.306c-.518.697-1.617-1.335.002-2.453 2.287-1.575 4.994-.09 4.994-.09s-3.563.613-4.996 2.543z"/><path fill="#FFDD67" d="M41.263 27.786l1.643-.919v5.643h-3.644z"/><path fill="#EBA352" d="M38.811 30.381c1.073.662.451 2.128.451 2.128 1.495 0 2.533-2.924 2.533-4.724l-2.984 2.596z"/><path fill="#FFDD67" d="M42.357 20.414l-6.517 2.258c-.825 1.512-.263 2.311-.292 2.964-.013.29-.6.82-.911 1.097-.694.62.468 1.119.902 1.028.275.649-.538 1.024 1.395.646 0 0-1.989.849-.576 1.232-.142.782-.28 2.269 3.787.729 1.209-.458 1.649-2.582 1.649-2.582l2.04-.356-1.477-7.016z"/><path fill="#FFB300" d="M37.736 19.862c4.28-1.425 6.615.795 7.021 1.781 1.084 2.623.153 5.545-1.852 7.744 0 0-.94-.398-1.111-1.601 0 0 1.062.478 1.531-1.771.399-1.911-1.626-2.891-2.63-.288h-.274c-.564-1.296.465-2.938-1.049-3.443-1.334-.444-3.7.728-3.7.728-.424-.826.315-2.568 2.064-3.15z"/><path fill="#937237" d="M37.171 25.652c0 .408-.232.741-.52.741-.288 0-.37-.333-.37-.741 0-.41.082-.741.37-.741.287 0 .52.332.52.741z"/><path fill="#EBA352" d="M41.272 26.174c0-.799.665-1.485 1.33-1.485 0 0-1.144.941-.852 2.224.001 0-.478-.184-.478-.739z"/><path fill="#937237" d="M37.597 28.257s-.8.596-1.074.732c-.581.292-.68.109-.349-.153.267-.211.761-.429.761-.429l.662-.15z"/><path fill="#47B892" d="M43.327 39.521l-5.46-.539s.435-4.525 1.127-6.252c.644-1.607 3.912-.712 3.912-.712l.421 7.503z"/><g><path fill="#3B946F" d="M41.695 33.385a.819.819 0 0 0-1.154.008l-2.107 2.201 1.191 1.137 2.107-2.2a.806.806 0 0 0-.037-1.146z"/><path fill="#3B946F" d="M39.949 36.041a.82.82 0 0 0-.848-.779l-3.156.061.066 1.627 3.158-.063c.45-.01.8-.396.78-.846z"/><path fill="#FFDD67" d="M36.299 36.312l.043-.795a.528.528 0 0 0-.488-.55l-.383-.03a.505.505 0 0 0-.477.255c-.514-.002-1.191.135-1.24 1.085-.008.156-.055 1.024.973 1.1 1.511.11 1.511.11 1.572-1.065z"/></g><path fill="#42ADE2" d="M2 41.978h60V62H2z"/><path fill="#C94747" d="M2 32.82h23.754l7.357 7.119z"/><g><path fill="#DAE3EA" d="M2 32.82s6.76 13.922 26.199 18.984h30.469L62 41.68 2 32.82z"/><path fill="#F15744" d="M28.715 48.838h27.098l-27.174-4.613 28.346.574-46.666-7.826c3.599 4.17 9.477 9.14 18.396 11.865z"/></g><path fill="#6ADBC6" d="M34.645 28.167s-1.533 0-4.444 1.589c-2.992 1.631-4.446 3.065-4.446 3.065l4.277 4.139 4.613.699v-9.492z"/><g><path fill="#FFF" d="M32.383 30.313c-1.278.415-2.484 1.137-3.557 1.98-.963.756-.028 2.496.946 1.729.941-.739 1.985-1.413 3.108-1.778 1.154-.375.663-2.307-.497-1.931z"/></g><path fill="#428BC1" d="M34.645 51.805s5.452-2.085 7.146-1.607c.375.105 0 .805 0 .805s4.309-3.637 6.563-3.236c1.574.279 0 3.07 0 3.07s3.987-6.385 7.734-6.016c2.164.213.896 4.004.896 4.004L62 38.805v13H34.645z"/><path fill="#42ADE2" d="M34.645 51.805s5.452-1.717 7.146-1.322c.375.087 0 .66 0 .66s4.309-2.991 6.563-2.662c1.574.23 0 2.527 0 2.527s3.987-5.254 7.734-4.95c2.164.175.896 3.294.896 3.294L62 41.105v10.699H34.645z"/><path fill="#BBECFF" d="M40.132 51.805s6.778-2.766 7.929-2.652c1.729.172.758 2.043.758 2.043s2.811-2.754 4.281-2.451c1.027.212 0 2.326 0 2.326s2.602-4.838 5.044-4.559c1.412.162.586 3.034.586 3.034L62 47.408v4.396H40.132z"/></svg>