<svg xmlns="http://www.w3.org/2000/svg" width="64" height="64" viewBox="0 0 64 64"><circle fill="#FF5A79" cx="32" cy="32" r="30"/><circle fill="#333" cx="32" cy="32" r="24"/><path fill="#EDA454" d="M12 32h15.437v8H12z"/><path fill="#FFF" d="M27.438 32h20.188v8H27.438z"/><g fill="#FFCE31"><ellipse cx="13.28" cy="35.998" rx=".686" ry=".863"/><path d="M13.966 33.436c0 .477-.308.863-.686.863-.38 0-.687-.387-.687-.863 0-.48.307-.865.687-.865.379-.001.686.384.686.865z"/><ellipse cx="13.28" cy="38.563" rx=".686" ry=".864"/><ellipse cx="15.198" cy="37.107" rx=".685" ry=".863"/><ellipse cx="15.197" cy="34.889" rx=".686" ry=".865"/><ellipse cx="17.115" cy="35.998" rx=".686" ry=".863"/><path d="M17.801 33.436c0 .477-.307.863-.687.863-.378 0-.685-.387-.685-.863 0-.48.307-.865.685-.865.38-.001.687.384.687.865z"/><ellipse cx="17.115" cy="38.563" rx=".686" ry=".865"/><path d="M15.198 38.564c-.378-.002-.686.385-.686.863h1.37c.001-.478-.307-.864-.684-.863zM15.198 33.436c.377 0 .685-.389.685-.865h-1.37c0 .476.306.865.685.865z"/><ellipse cx="18.896" cy="37.107" rx=".684" ry=".863"/><ellipse cx="18.896" cy="34.889" rx=".685" ry=".863"/><path d="M18.896 38.563c-.378 0-.685.387-.685.865h1.369c0-.479-.307-.865-.684-.865zM18.896 33.436c.377 0 .684-.389.684-.865h-1.368c-.001.476.306.865.684.865z"/><ellipse cx="20.54" cy="35.998" rx=".685" ry=".863"/><path d="M21.225 33.436c0 .477-.306.863-.684.863s-.686-.387-.685-.863c-.001-.48.307-.865.685-.865.377-.001.684.384.684.865z"/><ellipse cx="20.541" cy="38.563" rx=".684" ry=".865"/><ellipse cx="22.458" cy="37.107" rx=".685" ry=".863"/><ellipse cx="22.458" cy="34.889" rx=".685" ry=".863"/><ellipse cx="24.376" cy="35.998" rx=".685" ry=".863"/><path d="M25.061 33.436c.001.477-.307.863-.685.863s-.685-.387-.685-.863c0-.48.307-.865.685-.865s.686.384.685.865z"/><ellipse cx="24.376" cy="38.563" rx=".685" ry=".864"/><path d="M22.458 38.563c-.378 0-.686.387-.686.865h1.37c.003-.479-.305-.865-.684-.865zM22.457 33.436c.38 0 .688-.389.686-.865h-1.37c-.001.476.307.865.684.865zM26.843 37.107c0 .479-.307.863-.685.863-.381 0-.686-.385-.685-.863 0-.477.304-.865.685-.863.378 0 .685.387.685.863z"/><ellipse cx="26.158" cy="34.889" rx=".685" ry=".865"/><path d="M26.157 38.563c-.38 0-.685.387-.685.865h1.37c.001-.479-.305-.865-.685-.865zM26.158 33.436c.378 0 .685-.389.686-.865h-1.371c0 .476.304.865.685.865z"/></g><path fill="#FF8736" d="M47.625 32H50v8h-2.375z"/><path fill="#FF5A79" d="M50.515 54.758L9.243 13.486l4.242-4.242 41.272 41.273z"/><path fill="#ABC2C6" d="M30.646 11.865c-3.15 11.799 6.436-4.316 18.847 19.143-6.58-8.725-27.886-2.367-36.845-12.041C.222 5.551 35.852-7.631 30.646 11.865z"/></svg>