<svg xmlns="http://www.w3.org/2000/svg" width="64" height="64" viewBox="0 0 64 64"><path fill="#94989B" d="M32 2c-8.25 0-15 6.751-15 15v30c0 8.251 6.75 15 15 15s15-6.749 15-15V17c0-8.249-6.75-15-15-15z"/><path fill="#3E4347" d="M32 3.875c-7.238 0-13.125 5.889-13.125 13.125v30c0 7.238 5.887 13.125 13.125 13.125S45.125 54.238 45.125 47V17c0-7.236-5.887-13.125-13.125-13.125z"/><circle fill="#FFE62E" cx="32" cy="32" r="7.5"/><circle fill="#ED4C5C" cx="32" cy="13.25" r="7.5"/><circle fill="#83BF4F" cx="32" cy="50.75" r="7.5"/></svg>