<svg xmlns="http://www.w3.org/2000/svg" width="64" height="64" viewBox="0 0 64 64"><path fill="#3E4347" d="M9.339 52.533v4.233C9.339 59.104 19.484 61 32 61c12.516 0 22.661-1.896 22.661-4.233v-4.233H9.339z"/><path fill="#62696D" d="M12.78 52.533v4.233C12.78 59.104 21.384 61 32 61s19.221-1.896 19.221-4.233v-4.233H12.78z"/><path fill="#C94747" d="M54.66 52.533H9.339l4.957-25.148h35.407z"/><ellipse fill="#B23838" cx="32" cy="52.533" rx="22.66" ry="4.233"/><path opacity=".3" fill="#FFC7CE" d="M51.174 52.25l-4.158-24.865H16.984L12.828 52.25a.96.96 0 0 0-.048.283c0 2.338 8.604 4.233 19.22 4.233s19.221-1.896 19.221-4.233c0-.095-.02-.189-.047-.283z"/><ellipse fill="#ED4C5C" cx="32" cy="27.385" rx="17.703" ry="4.232"/><path fill="#C94747" d="M17.208 27.847c-.013-.707.639-1.195 1.18-1.536.574-.353 1.192-.621 1.818-.854 1.262-.439 2.562-.741 3.868-.984 2.618-.482 5.272-.646 7.929-.664 2.645.017 5.307.18 7.922.662 1.307.244 2.606.546 3.869.984.626.233 1.243.502 1.817.855.541.34 1.192.829 1.18 1.536-.103-.679-.756-1.022-1.307-1.303-.584-.273-1.206-.464-1.836-.62-1.254-.332-2.543-.545-3.838-.692a67.88 67.88 0 0 0-7.814-.423 67.908 67.908 0 0 0-7.808.421c-1.295.147-2.583.361-3.838.693-.63.156-1.252.347-1.836.62-.55.282-1.203.625-1.306 1.305z" opacity=".5"/><ellipse opacity=".3" fill="#FFC7CE" cx="32" cy="40.205" rx="13.455" ry="13.408"/><path fill="#FFE6EA" d="M44.746 40.205l-7.881-1.964 4.34-7.21-7.234 4.326L32 27.504l-1.971 7.855-7.235-4.328 4.341 7.211-7.882 1.963 7.882 1.964-4.341 7.21 7.235-4.326L32 52.907l1.971-7.854 7.234 4.326-4.34-7.209z"/><g fill="#F15744"><path d="M56.875 8.029L48.951 19.86l12.873-6.986zM7.126 8.029l7.922 11.831-12.873-6.986zM0 23.146l11.986 4.002L0 28.814zM64 23.146l-11.986 4.002L64 28.814z"/><g><path d="M17.244 4.009l8.058 14.233L23.695 3zM46.756 4.009l-8.057 14.233L40.305 3z"/></g></g></svg>