<svg xmlns="http://www.w3.org/2000/svg" width="64" height="64" viewBox="0 0 64 64"><path fill="#D6A57C" d="M32.578 16.148l2.773-1.551v9.518h-6.147z"/><path fill="#B58360" d="M28.442 20.525c1.811 1.115.762 3.59.762 3.59 2.521 0 4.272-4.933 4.272-7.967l-5.034 4.377z"/><path fill="#D6A57C" d="M34.425 3.713l-10.99 3.809c-1.393 2.55-.443 3.897-.493 4.999-.021.489-1.012 1.383-1.538 1.85-1.171 1.045.791 1.888 1.523 1.734.465 1.095-.908 1.727 2.354 1.09 0 0-3.356 1.431-.973 2.077-.238 1.318-.473 3.826 6.385 1.23 2.039-.771 2.784-4.354 2.784-4.354l3.438-.601-2.49-11.834z"/><path fill="#594640" d="M26.632 2.783C33.851.38 37.788 4.124 38.476 5.787c1.827 4.424.256 9.354-3.125 13.061 0 0-1.588-.671-1.874-2.699 0 0 1.79.805 2.582-2.987.673-3.223-2.741-4.875-4.437-.486h-.459c-.953-2.186.78-4.955-1.771-5.806-2.25-.75-6.241 1.228-6.241 1.228-.716-1.396.53-4.333 3.481-5.315z"/><path fill="#664E27" d="M25.678 12.548c0 .689-.394 1.25-.877 1.25-.485 0-.623-.561-.623-1.25 0-.69.138-1.25.623-1.25.483 0 .877.56.877 1.25z"/><path fill="#B58360" d="M32.594 13.429c0-1.348 1.122-2.504 2.245-2.504 0 0-1.93 1.588-1.438 3.75 0 0-.807-.311-.807-1.246z"/><path fill="#664E27" d="M26.397 16.942s-1.352 1.005-1.813 1.234c-.982.491-1.148.184-.59-.259.449-.355 1.285-.723 1.285-.723l1.118-.252z"/><g><path fill="#D3976E" d="M21.577 58.801C19.7 58.803 18.004 60.234 18 62l8.073-.008c.936 0 1.906-.719 1.908-1.604V58.8h-6.404zM39.699 56.715c-1.423 1.156-1.729 3.291-.519 4.633l6.127-4.977c.71-.576.955-1.719.35-2.393l-1.098-1.211-4.86 3.948z"/><path fill="#3B946F" d="M32.435 24.629L36.601 36.9l3.702-.207-4.813-14.351z"/><path fill="#D6A57C" d="M38.384 35.977l-1.744.338c-.621.121-1.025.699-.898 1.291l.166.797c.09.426.426.744.838.848.303 1.049 1.004 2.367 3.086 1.963.346-.068 2.254-.436 1.803-2.58-.665-3.157-.665-3.157-3.251-2.657z"/><path fill="#B58360" d="M37.233 39.334c1.483-.354.955-1.854.765-2.889-.032-.176-.31-.1-.278.074.16.865.696 2.244-.563 2.545-.179.045-.104.313.076.27z"/><path fill="#47B892" d="M36.648 38.676H25.046s-.766-8.542 2.166-13.93c2.221-4.084 8.278-2.403 8.278-2.403l1.158 16.333z"/><path fill="#3E4347" d="M36.603 46.871l.048-8.195H25.046L22.2 47.832l-.623 10.969h6.404l1.053-9.662.95-2.059.324 3.197 9.624 6.248 4.628-3.757z"/><g><path fill="#3B946F" d="M33.31 26.162c.196-1.031-.537-2.019-1.636-2.2-1.097-.186-2.146.507-2.339 1.537l-1.102 6.05-5.629 3.799 2.355 3.104 6.345-4.281c.343-.232.581-.553.71-.906h.002l.005-.027c.06-.17.088-.348.095-.526l1.194-6.55z"/><path fill="#D6A57C" d="M24.675 36.818l-1-1.615c-.356-.572-1.137-.77-1.74-.438l-.818.447c-.436.24-.664.686-.624 1.131-1.046.672-2.246 1.832-1.05 3.762.197.318 1.29 2.086 3.482.879 3.228-1.771 3.228-1.771 1.75-4.166z"/></g></g></svg>