<svg xmlns="http://www.w3.org/2000/svg" width="64" height="64" viewBox="0 0 64 64"><g fill="#C6BBB3"><path d="M13.075 57.476c0 2.499-.893 4.524-2.878 4.524-1.989 0-3.385-2.181-2.52-4.524 1.32-3.572 4.49-5.491 6.478-5.491 1.987-.001-1.08 2.992-1.08 5.491zM50.926 57.476c0 2.499.893 4.524 2.879 4.524s3.385-2.181 2.52-4.524c-1.318-3.572-4.49-5.491-6.477-5.491-1.989-.001 1.078 2.992 1.078 5.491z"/></g><path fill="#E2D8C7" d="M59.096 40.098c0 18.416-12.029 18.789-26.865 18.789-14.836 0-26.865-.373-26.865-18.789h53.73z"/><path fill="#C6BBB3" d="M5.366 40.962h53.73v1.19H5.366z"/><path fill="#DDD3CA" d="M59.397 41.395H5.086c-4.115 0-4.115-4.753 0-4.753h54.311c3.47 0 3.47 4.753 0 4.753z"/><g opacity=".6" fill="#A6AEB0"><path d="M33.817 14.831C28.809 9.608 32.141 2 32.141 2S21.62 12.056 28.264 18.988C35.954 27.01 32.141 32 32.141 32s9.531-8.977 1.676-17.169zM18.816 19.513c-3.757-3.797-1.258-9.331-1.258-9.331s-7.891 7.313-2.908 12.355C20.417 28.371 17.558 32 17.558 32s7.147-6.53 1.258-12.487zM48.673 19.511c-3.757-3.798-1.257-9.329-1.257-9.329s-7.893 7.313-2.908 12.355C50.273 28.369 47.416 32 47.416 32s7.146-6.531 1.257-12.489z"/></g></svg>