<svg xmlns="http://www.w3.org/2000/svg" width="64" height="64" viewBox="0 0 64 64"><path fill="#3E4347" d="M30.608 26.304c.656 1.01.545 2.255-.254 2.779-.801.526-1.98.135-2.639-.875-.66-1.01-.548-2.256.25-2.78.799-.527 1.979-.135 2.643.876z"/><path fill="#42ADE2" d="M30.708 17.295s-1.406-2.149-2.537-3.881c-1.129-1.732-.978-2.875.343-2.542 1.317.333 3.978 1.719 5.909 3.075.873.617 3.507 2.469 3.507 2.469 1.932 1.355 1.667 2.086-.584 1.619l-6.638-.74z"/><path fill="#3E4347" d="M34.474 26.663c.658 1.011.545 2.256-.254 2.78-.799.526-1.981.133-2.639-.875-.659-1.011-.547-2.256.252-2.779.797-.527 1.979-.136 2.641.874zM55.534 29.188c.656 1.01.545 2.256-.254 2.78-.8.526-1.981.135-2.638-.875-.66-1.009-.548-2.256.25-2.78.798-.526 1.98-.137 2.642.875z"/><path fill="#94989B" d="M54.949 30.05l-.524-6.646c-.091-1.119-1.816-.936-1.729.177.174 2.215.35 4.431.526 6.646.088 1.12 1.816.937 1.727-.177z"/><path fill="#DAE3EA" d="M3.775 12.262s-2.713-1.324-3.423-.005c-1.76 3.269.846 11.939 61.12 15.181 3.577.193 3.21-2.268-.177-4.98-10.221-8.194 4.271-4.854-57.52-10.196z"/><path fill="#3E4347" d="M57.5 20.297c-.714.365-3.98.805-3.98.805s.005.928 1.38 1.333c1.188.354 2.793.003 4.031-.715L57.5 20.297z"/><path fill="#42ADE2" d="M16.779 13.388S8.694 4.159 6.116.994C4.491-1.003 2.019.626 2.019.626S-.112 12.332.42 12.377l15.862 1.638c.531.05.755-.235.497-.627z"/><path fill="#3E4347" d="M38.339 27.024c.658 1.008.547 2.256-.252 2.778-.799.526-1.982.133-2.639-.873-.661-1.011-.549-2.258.251-2.782.798-.527 1.978-.134 2.64.877z"/><path fill="#94989B" d="M37.158 27.613c-1.92-1.742-3.843-3.484-5.763-5.227-.207-.189-.561-.078-.668.166-.654 1.511-1.311 3.021-1.966 4.532a.418.418 0 0 0-.02.263.357.357 0 0 0 .348.335l7.728.696a.436.436 0 0 0 .341-.765z"/><path fill="#C5D0D8" d="M25.217 29.479s-8.472-4.405-17.452-2.315c-.514.12-1.687.553-.951 1.678 1.623 1.795 5.891 5.107 15.884 6.277l2.519-5.64z"/><path fill="#94989B" d="M22.957 35.109c-.821-.189-1.06-1.642-.536-3.226.526-1.589 1.619-2.729 2.441-2.537.822.195 1.063 1.637.536 3.225-.524 1.592-1.618 2.732-2.441 2.538z"/><path fill="#3E4347" d="M23.473 32.792c.38-1.142.356-2.205.01-2.783-.423.456-.806 1.11-1.062 1.875-.38 1.142-.354 2.208-.008 2.788.423-.457.809-1.111 1.06-1.88z"/><path fill="#42ADE2" d="M28.997 20.747c-2.498-.361-3.688-.472-5.879.606L7.583 28.391c-2.193 1.08-1.986 2.466.457 3.085 2.446.62 6.355.512 8.691-.232l22.203-7.088c2.335-.744 2.202-1.651-.299-2.013l-9.638-1.396z"/><g fill="#3E4347"><circle cx="19.29" cy="17.419" r=".868"/><path d="M23.068 16.857a.87.87 0 0 0-.938.794.869.869 0 1 0 .938-.794z"/><circle cx="26.707" cy="18.024" r=".868"/><circle cx="30.414" cy="18.328" r=".868"/><circle cx="34.125" cy="18.63" r=".868"/><circle cx="37.831" cy="18.933" r=".868"/><path d="M41.61 18.369a.869.869 0 1 0 0 0z"/><circle cx="45.248" cy="19.538" r=".867"/></g><ellipse fill="#94989B" cx="31.3" cy="61.499" rx="24.553" ry="2.501"/></svg>