<svg xmlns="http://www.w3.org/2000/svg" width="64" height="64" viewBox="0 0 64 64"><path fill="#13618D" d="M62 38.095C62 57.476 48.567 61 31.999 61S2 57.476 2 38.095C2 18.712 15.431 3 31.999 3S62 18.712 62 38.095z"/><path fill="#055672" d="M59.049 46.057c0 4.563-5.216 13.495-27.049 13.495S4.951 50.62 4.951 46.057c0-2.109 7.88 7.669 27.048 7.669s27.05-9.779 27.05-7.669z"/><ellipse fill="#428BC1" cx="32" cy="27.337" rx="22.479" ry="22.815"/><g fill="#F5F5F5"><ellipse transform="scale(-1) rotate(30.018 163.939 -83.56)" cx="22.405" cy="43.958" rx="1.289" ry="1.309"/><ellipse transform="rotate(-149.986 41.596 10.715)" cx="41.596" cy="10.716" rx="1.289" ry="1.307"/><ellipse transform="rotate(-120 15.38 36.933)" cx="15.379" cy="36.932" rx="1.289" ry="1.309"/><ellipse transform="scale(-1) rotate(59.979 30.742 -84.254)" cx="48.621" cy="17.741" rx="1.289" ry="1.308"/><ellipse cx="12.808" cy="27.337" rx="1.309" ry="1.289"/><ellipse cx="51.192" cy="27.337" rx="1.308" ry="1.289"/><g><ellipse transform="rotate(-59.987 15.38 17.741)" cx="15.379" cy="17.741" rx="1.289" ry="1.309"/><ellipse transform="rotate(-59.979 48.622 36.933)" cx="48.621" cy="36.932" rx="1.289" ry="1.308"/></g><g><ellipse transform="rotate(-30.006 22.405 10.715)" cx="22.405" cy="10.716" rx="1.289" ry="1.309"/><path d="M42.712 43.313a1.297 1.297 0 0 1-.461 1.776 1.298 1.298 0 0 1-1.771-.486 1.3 1.3 0 0 1 .462-1.779 1.298 1.298 0 0 1 1.77.489z"/></g><g><ellipse cx="32.001" cy="8.145" rx="1.289" ry="1.309"/><ellipse cx="32.001" cy="46.528" rx="1.289" ry="1.309"/></g></g><circle fill="#B0BCC1" cx="32" cy="27.337" r="16"/><circle fill="#F5F5F5" cx="32" cy="25.854" r="14.518"/><path fill="#B0BCC1" d="M37.667 33.261c0 7.261-11.334 7.261-11.334 0 0-7.262 2.537-21.239 5.668-21.239 3.129-.001 5.666 13.977 5.666 21.239z"/><path fill="#E4E7EA" d="M36.925 31.796c0 6.994-9.85 6.994-9.85 0 0-6.996 2.205-20.459 4.926-20.459 2.719-.001 4.924 13.463 4.924 20.459z"/><path fill="#FFF" d="M36.146 29.101c0 6.057-8.291 6.057-8.291 0s1.855-17.719 4.146-17.719c2.289 0 4.145 11.662 4.145 17.719z"/></svg>