<svg xmlns="http://www.w3.org/2000/svg" width="64" height="64" viewBox="0 0 64 64"><path fill="#89664C" d="M52.198 32.154l-2.093 4.409-4.466 2.434.445 1.6 5.052-2.759 2.406-5.068z"/><path fill="#13618D" d="M55.176 34.069c-1.271.41-4.642-1.036-4.999-2.291-1.417-4.913 9.535.837 4.999 2.291z"/><path fill="#428BC1" d="M57.457 23.212c-5.08-1.658-4.159 5.89-5.429 3.341-.828-1.665-2.325-1.682-1.976 1.162.345 2.791 3.384 5.185 6.084 4.183 2.647-.982 5.529-7.313 1.321-8.686z"/><path fill="#89664C" d="M12.864 32.154l2.094 4.409 4.467 2.433-.446 1.601-5.052-2.757-2.405-5.07z"/><path fill="#13618D" d="M9.886 34.069c1.271.41 4.642-1.036 5-2.292 1.393-4.787-9.905.711-5 2.292z"/><path fill="#428BC1" d="M7.606 23.212c5.08-1.658 4.158 5.89 5.428 3.341.83-1.665 2.326-1.682 1.975 1.162-.344 2.791-3.383 5.185-6.082 4.182-2.649-.981-5.53-7.312-1.321-8.685z"/><circle fill="#D0D0D0" cx="32.532" cy="45" r="17"/><path fill="#FFF" d="M32.532 30c-8.273 0-15 6.729-15 15s6.727 15 15 15c8.271 0 15-6.729 15-15s-6.728-15-15-15z"/><circle fill="#D0D0D0" cx="32.532" cy="25.531" r="13"/><path fill="#FFF" d="M32.532 14.531c-6.066 0-11.002 4.936-11.002 11 0 6.065 4.936 11.001 11.002 11.001 6.064 0 10.998-4.936 10.998-11.001 0-6.065-4.933-11-10.998-11z"/><circle fill="#FF8736" cx="32.532" cy="26.439" r="2.5"/><circle fill="#3E4347" cx="27.116" cy="21.814" r="2"/><circle fill="#3E4347" cx="37.946" cy="21.814" r="2"/><path fill="#3E4347" d="M30.876 46.314l-1.051-3.23 2.748-1.996 2.748 1.996-1.049 3.23zM30.876 56.107l-1.051-3.23 2.748-1.996 2.748 1.996-1.049 3.23z"/><g><path fill="#3E4347" d="M32.532 33.951a11.105 11.105 0 0 1-8.145-3.592c-1.187-1.286.286-2.639 1.473-1.354a9.097 9.097 0 0 0 6.672 2.945 9.096 9.096 0 0 0 6.67-2.945c1.225-1.326 2.697.027 1.473 1.354a11.097 11.097 0 0 1-8.143 3.592z"/></g><path fill="#A2CBDB" d="M12.057 9.124l2.185-3.366-3.367 2.183L10 2l-.877 5.943-3.367-2.185 2.183 3.365L2 10l5.943.877-2.187 3.365 3.364-2.186L10 18l.876-5.944 3.366 2.186-2.187-3.366L18 10zM56.057 48.124l2.184-3.367-3.367 2.185L54 41l-.878 5.942-3.366-2.185 2.182 3.365L46 49l5.942.878-2.186 3.365 3.364-2.187L54 57l.876-5.944 3.365 2.187-2.187-3.367L62 49zM57.541 7.343l1.64-2.526-2.526 1.639L56 2l-.656 4.457-2.528-1.64 1.638 2.524L50 8l4.457.659-1.641 2.523 2.524-1.639L56 14l.656-4.457 2.525 1.639-1.64-2.526L62 8zM10.799 54.232l1.913-2.945-2.946 1.912L9 48l-.767 5.199-2.946-1.912 1.91 2.944L2 55l5.202.769-1.915 2.943L8.231 56.8 9 62l.768-5.2 2.944 1.912-1.915-2.945L16 55z"/><g><path fill="#ED4C5C" d="M20.294 16.529s0-5.473 4.816-6.416c0 0-.332-4.797 12.676-7.554 5.719-1.212 6.85-1.342 8.203 9.077.521 4.023 5.502 7.193 1.686 8.434-1.258.409-27.381-3.541-27.381-3.541z"/><ellipse fill="#C4CCCE" cx="49.021" cy="19.655" rx="3.703" ry="3.64"/><ellipse fill="#F5F5F5" cx="49.021" cy="18.96" rx="2.998" ry="2.947"/><path fill="#F5F5F5" d="M34.349 14.87c-8.299-1.474-15.566.261-16.232 3.877-.26 1.414.061 3.168 1.615 4.549-.589-3.438 7.164-5.533 13.92-4.334 6.756 1.202 12.907 4.67 11.663 8.589 1.947-.761 2.598-2.048 2.858-3.462.664-3.618-5.524-7.745-13.824-9.219z"/><path fill="#C4CCCE" d="M33.651 17.892c-8.301-1.474-16.782 2.43-13.92 5.403 1.11-3.144 7.01-4.98 13.764-3.781 6.756 1.203 11.546 4.808 11.819 8.037 4.19-2.461-3.364-8.185-11.663-9.659z"/></g><path fill="#CC2E45" d="M21.202 31.908c-1.533-1.056-3.57 3.277-2.821 3.668 11.399 5.953 20.993 1.479 28.382.121.889.029-1.448-4.193-2.943-3.713-12.974 4.174-17.543 3.416-22.618-.076z"/><path fill="#ED4C5C" d="M43.795 48.868c-2.567-1.017-7.032 1.321-6.376 0 1.669-3.378 3.508-12.593.787-15.251-1.086-1.062 4.231-2.578 5.358-1.551 3.149 2.862 1.938 17.48.231 16.802z"/></svg>