<svg xmlns="http://www.w3.org/2000/svg" width="64" height="64" viewBox="0 0 64 64"><g fill="#EDA454"><path d="M38.431 25.251a11.009 11.009 0 0 0 3.057-3.543c-2.688-1.888-5.959-2.997-9.487-2.997s-6.8 1.108-9.488 2.997a11.02 11.02 0 0 0 3.057 3.543c1.857-1.194 4.063-1.889 6.432-1.889s4.572.695 6.429 1.889zM48.535 34.109a10.903 10.903 0 0 0-4.587.979c.002.096.007.191.007.289a12.02 12.02 0 0 1-6.269 10.572c.15 1.572.639 3.105 1.436 4.482a16.674 16.674 0 0 0 9.413-16.322zM20.045 35.377c0-.111.005-.221.008-.332a10.939 10.939 0 0 0-4.589-.936c-.031.418-.047.842-.047 1.268 0 6.672 3.9 12.426 9.534 15.09a11.068 11.068 0 0 0 1.451-4.473 12.018 12.018 0 0 1-6.357-10.617z"/><g><path d="M8.815 34.031c5.918-3.435 13.38-1.702 17.127 3.82l2.31-1.342a3.93 3.93 0 0 1 2.88-4.967v-2.645c-6.675-.453-11.951-6.1-11.953-13 .001-5.297 3.11-9.855 7.574-11.894l-.034.012.034-.015a16.87 16.87 0 0 0-11.54 16.03v.003c0 2.256.441 4.409 1.241 6.376a16.68 16.68 0 0 0-6.059 2.099C3.953 32.249.91 39.629 2.353 46.57a13.06 13.06 0 0 1 6.462-12.539zM61.999 43.301c.058-5.889-2.959-11.636-8.395-14.792a16.692 16.692 0 0 0-6.059-2.099c.8-1.967 1.241-4.12 1.241-6.376v-.001-.002a16.87 16.87 0 0 0-11.54-16.03l.034.016c-.012-.003-.023-.008-.034-.012 4.464 2.038 7.573 6.597 7.573 11.894-.001 6.9-5.277 12.547-11.953 13v2.645a3.929 3.929 0 0 1 3.046 3.834c0 .416-.064.816-.183 1.191l2.296 1.332c3.737-5.555 11.224-7.309 17.158-3.865a13.061 13.061 0 0 1 6.462 12.535v-.004.008c.228-1.087.343-2.182.354-3.274zM42.363 56.348a13.065 13.065 0 0 1-6.523-11.256 12.757 12.757 0 0 1 1.313-5.684l-2.304-1.336a3.893 3.893 0 0 1-2.85 1.238 3.892 3.892 0 0 1-2.892-1.283l-2.287 1.328c3.012 6.053.791 13.525-5.186 16.992a12.917 12.917 0 0 1-14.036-.645c5.259 4.727 13.141 5.768 19.583 2.029a16.761 16.761 0 0 0 4.815-4.193 16.783 16.783 0 0 0 4.819 4.199c6.441 3.736 14.324 2.695 19.583-2.031-.009.008-.018.012-.025.018l.025-.021a12.917 12.917 0 0 1-14.035.645z"/></g></g></svg>