<svg xmlns="http://www.w3.org/2000/svg" width="64" height="64" viewBox="0 0 64 64"><g fill="#C28FEF"><path d="M40.594 58.25c-14.207 0-25.729-11.752-25.729-26.249S26.387 5.75 40.594 5.75c2.211 0 4.357.285 6.406.821A28.823 28.823 0 0 0 31.406 2C15.165 2 2 15.432 2 32.001 2 48.569 15.165 62 31.406 62A28.831 28.831 0 0 0 47 57.43c-2.049.535-4.195.82-6.406.82z"/><path d="M49.813 37.973l7.533 5.277-2.846-8.583 7.5-5.322-9.291-.027-2.896-8.567-2.897 8.567-9.291.027 7.502 5.322-2.848 8.583z"/></g></svg>