<svg xmlns="http://www.w3.org/2000/svg" width="64" height="64" viewBox="0 0 64 64"><circle fill="#4FD1D9" cx="32" cy="32" r="30"/><path fill="#FFF" d="M48.657 42.998l-2.48 2.656-5.932-9.181h-7.254v-4.118h7.983v-4.119h-7.983V20H29v20.592h9.109L45.482 52 51 46.402z"/><circle fill="#FFF" cx="31" cy="13" r="4"/><path fill="#FFF" d="M29.375 48.883c-4.549 0-8.248-3.695-8.248-8.236a8.235 8.235 0 0 1 4.123-7.129V29C20.45 30.699 17 35.277 17 40.646 17 47.459 22.552 53 29.375 53A12.36 12.36 0 0 0 39 48.396l-2.459-3.682a8.254 8.254 0 0 1-7.166 4.169z"/></svg>