<svg xmlns="http://www.w3.org/2000/svg" width="64" height="64" viewBox="0 0 64 64"><path opacity=".5" fill="#A1D8F2" d="M60.484 26.884L62 24.217S42.199 12.085 35.247 10.558l.034.032a18.553 18.553 0 0 0-4.567-.59C20.307 10 11.87 18.577 11.87 29.158c0 10.58 8.437 19.157 18.844 19.157s18.843-8.577 18.843-19.157c0-2.1-.344-4.114-.957-6.005l.016.015 11.868 3.716z"/><path fill="#BD80FF" d="M14.563 29c0 9.067 7.232 16.579 16.151 16.579S46.865 38.067 46.865 29H14.563z"/><path fill="#94989B" d="M15.46 34.632h-3.589L2 62h1.794zM45.969 34.632h3.588L59.428 62h-1.795zM31.611 62h-1.795l-.896-27.368h3.588z"/><path fill="#C5CCD6" d="M9.179 36.456c0 1.004.807 1.824 1.794 1.824h39.482c.986 0 1.794-.82 1.794-1.824 0-1.003-.808-1.824-1.794-1.824H10.973c-.988 0-1.794.821-1.794 1.824z"/></svg>