<svg xmlns="http://www.w3.org/2000/svg" width="64" height="64" viewBox="0 0 64 64"><path fill="#3E4347" d="M14.31 18.326c1.056.234 1.565 1.287 1.129 2.338l-3.166 7.641c-.435 1.051-1.538 1.438-2.45.855l-6.777-4.309c-.912-.581-1.304-1.916-.868-2.966l1.582-3.821c.436-1.049 1.656-1.718 2.712-1.481l7.838 1.743zM9.822 34.84c.913-.582 2.016-.196 2.452.854l3.165 7.643c.435 1.051-.073 2.104-1.129 2.339l-7.838 1.743c-1.057.235-2.276-.433-2.712-1.481l-1.582-3.821c-.436-1.052-.044-2.387.868-2.967l6.776-4.31zM18.325 49.689c.235-1.056 1.287-1.563 2.338-1.129l7.643 3.165c1.051.437 1.436 1.538.855 2.452l-4.311 6.775c-.581.913-1.914 1.304-2.965.869l-3.82-1.584c-1.05-.434-1.72-1.655-1.483-2.71l1.743-7.838zM34.839 54.178c-.58-.912-.195-2.016.855-2.452l7.643-3.165c1.051-.435 2.103.074 2.338 1.129l1.743 7.839c.234 1.055-.432 2.276-1.482 2.712l-3.821 1.582c-1.051.435-2.386.044-2.966-.869l-4.31-6.776zM49.688 45.675c-1.055-.234-1.563-1.288-1.128-2.339l3.165-7.643c.437-1.05 1.539-1.434 2.452-.854l6.776 4.311c.911.578 1.304 1.913.867 2.965l-1.582 3.821c-.435 1.049-1.656 1.717-2.712 1.481l-7.838-1.742zM54.177 29.162c-.912.581-2.015.196-2.451-.855l-3.165-7.643c-.436-1.051.073-2.102 1.128-2.338l7.839-1.743c1.056-.234 2.277.432 2.712 1.483l1.582 3.822c.437 1.049.044 2.384-.867 2.964l-6.778 4.31zM45.675 14.311c-.234 1.057-1.287 1.564-2.338 1.13l-7.643-3.166c-1.051-.436-1.435-1.538-.855-2.452l4.311-6.775c.58-.914 1.915-1.306 2.966-.868l3.821 1.582c1.05.434 1.716 1.655 1.481 2.71l-1.743 7.839zM29.161 9.823c.58.914.196 2.016-.855 2.452l-7.643 3.166c-1.05.434-2.102-.075-2.338-1.13l-1.742-7.837c-.235-1.057.432-2.278 1.482-2.712l3.821-1.584c1.051-.436 2.384-.044 2.964.87l4.311 6.775z"/><path fill="#3E4347" d="M32.001 6.688C18.021 6.688 6.688 18.022 6.688 32c0 13.978 11.333 25.312 25.313 25.312 13.979 0 25.313-11.334 25.313-25.312C57.313 18.022 45.98 6.688 32.001 6.688zm0 41.25c-8.802 0-15.938-7.136-15.938-15.937 0-8.802 7.136-15.938 15.938-15.938 8.8 0 15.938 7.136 15.938 15.938-.001 8.801-7.138 15.937-15.938 15.937z"/><path fill="#94989B" d="M32.001 12.313c-10.873 0-19.688 8.814-19.688 19.688 0 10.873 8.814 19.687 19.688 19.687S51.688 42.873 51.688 32s-8.814-19.687-19.687-19.687zm0 27.187a7.5 7.5 0 1 1 0-15 7.5 7.5 0 0 1 0 15z"/><path fill="#3E4347" d="M32.001 17c-8.284 0-15 6.716-15 15s6.716 15 15 15c8.283 0 15-6.716 15-15s-6.717-15-15-15zm0 22.5a7.5 7.5 0 1 1 0-15 7.5 7.5 0 0 1 0 15z"/></svg>