<svg xmlns="http://www.w3.org/2000/svg" width="64" height="64" viewBox="0 0 64 64"><path fill="#0071BC" d="M57.872 31.999c.157-.213.318-.426.468-.64 3.891-5.556 4.711-10.714 2.312-14.524-2.217-3.521-6.98-5.46-13.416-5.46-1.123 0-2.287.066-3.477.183C40.866 5.65 36.702 2 32 2s-8.866 3.65-11.758 9.558a35.97 35.97 0 0 0-3.476-.183c-6.435 0-11.199 1.939-13.416 5.46-2.4 3.811-1.58 8.969 2.311 14.524.15.214.31.427.467.64-.157.213-.317.426-.467.64C1.771 38.195.95 43.355 3.35 47.165c2.217 3.519 6.982 5.46 13.417 5.46h.002c1.122 0 2.285-.066 3.474-.183C23.134 58.349 27.298 62 32 62c4.703 0 8.867-3.65 11.759-9.558 1.189.116 2.354.183 3.477.183 6.436 0 11.199-1.939 13.416-5.46 2.399-3.811 1.579-8.971-2.312-14.526-.15-.214-.311-.427-.468-.64zM47.235 13.095c5.736 0 9.924 1.633 11.792 4.6 2.031 3.226 1.228 7.749-2.266 12.736l-.057.075c-2.53-3.049-5.826-5.983-9.667-8.627-.588-3.181-1.447-6.099-2.529-8.666a33.615 33.615 0 0 1 2.727-.118zM39.826 44.43A62.042 62.042 0 0 1 32 47.889a62.042 62.042 0 0 1-7.826-3.459 61.788 61.788 0 0 1-5.466-3.265c-.497-2.875-.771-5.956-.771-9.165s.274-6.291.771-9.166a61.782 61.782 0 0 1 5.466-3.264A62.042 62.042 0 0 1 32 16.111a62.042 62.042 0 0 1 7.826 3.459 61.685 61.685 0 0 1 5.466 3.264c.497 2.875.771 5.957.771 9.166s-.273 6.29-.771 9.166a62.417 62.417 0 0 1-5.466 3.264zm4.983-.842c-.579 2.548-1.342 4.894-2.255 6.97-2.553-.341-5.223-.948-7.938-1.79a64.15 64.15 0 0 0 6.147-2.85 65.088 65.088 0 0 0 4.046-2.33zm-15.427 5.181c-2.714.842-5.384 1.448-7.936 1.79-.914-2.076-1.676-4.422-2.255-6.971a64.75 64.75 0 0 0 10.191 5.181zM16.569 39.67c-3.239-2.392-5.994-4.992-8.136-7.67 2.142-2.678 4.897-5.279 8.136-7.671A57.35 57.35 0 0 0 16.063 32c0 2.66.176 5.229.506 7.67zm2.622-19.258c.579-2.548 1.341-4.895 2.255-6.97 2.552.341 5.222.947 7.936 1.789a64.144 64.144 0 0 0-6.146 2.851 65.353 65.353 0 0 0-4.045 2.33zm15.427-5.181c2.714-.841 5.384-1.448 7.936-1.789.914 2.075 1.676 4.421 2.255 6.97a64.635 64.635 0 0 0-10.191-5.181zm12.813 9.098c3.239 2.392 5.994 4.993 8.137 7.671-2.142 2.677-4.896 5.278-8.137 7.67.331-2.44.507-5.01.507-7.67 0-2.661-.176-5.23-.507-7.671zM32 3.875c3.793 0 7.239 3.023 9.77 7.924-3.143.46-6.447 1.294-9.77 2.455-3.322-1.162-6.626-1.995-9.77-2.456 2.533-4.9 5.977-7.923 9.77-7.923zM7.237 30.431C3.745 25.443 2.94 20.92 4.973 17.694c1.868-2.967 6.057-4.6 11.793-4.6.884 0 1.795.042 2.726.118-1.082 2.567-1.942 5.485-2.529 8.666-3.841 2.645-7.137 5.579-9.667 8.628-.019-.025-.041-.05-.059-.075zm9.531 20.474h-.002c-5.737 0-9.925-1.633-11.793-4.6-2.031-3.226-1.228-7.749 2.265-12.736l.058-.076c2.53 3.049 5.826 5.983 9.667 8.628.587 3.181 1.447 6.099 2.529 8.666-.93.076-1.841.118-2.724.118zM32 60.125c-3.792 0-7.237-3.024-9.769-7.924 3.142-.461 6.445-1.295 9.767-2.456 3.323 1.162 6.628 1.996 9.771 2.456-2.532 4.9-5.976 7.924-9.769 7.924zm27.028-13.819c-1.868 2.967-6.056 4.6-11.793 4.6-.885 0-1.796-.042-2.727-.118 1.082-2.567 1.941-5.486 2.529-8.667 3.84-2.644 7.136-5.578 9.666-8.627.019.025.041.051.059.076 3.493 4.987 4.298 9.51 2.266 12.736z"/><circle fill="#ED4C5C" cx="32" cy="32" r="5.625"/></svg>