<svg xmlns="http://www.w3.org/2000/svg" width="64" height="64" viewBox="0 0 64 64"><path fill="#D0D0D0" d="M19.199 64v-5.285c0-2.677-2.123-4.856-4.73-4.856-2.61.004-4.734 2.183-4.735 4.86l-.002 5.279L5.003 64l.001-5.281c-.001-5.358 4.245-9.717 9.466-9.715 5.215-.002 9.46 4.356 9.462 9.713v5.281L19.199 64zM23.934 27.143v9.717c0 5.355-4.246 9.714-9.464 9.716-5.221 0-9.467-4.358-9.467-9.718L5 27.141c.002-5.355 4.249-9.713 9.466-9.716 5.222 0 9.468 4.358 9.468 9.718zM9.735 36.857c-.001 2.678 2.125 4.859 4.734 4.859 2.607 0 4.729-2.182 4.732-4.859l-.002-9.715c.003-2.678-2.123-4.858-4.732-4.856-2.607 0-4.729 2.178-4.731 4.856v9.715zM23.933 0l-.002 5.281c0 5.358-4.245 9.714-9.465 9.714-5.216.003-9.462-4.355-9.464-9.712V0h4.733l.002 5.283c-.002 2.678 2.122 4.858 4.731 4.856 2.608-.002 4.73-2.18 4.732-4.856l.001-5.281L23.933 0z"/><path fill="#94989B" d="M16.833 53.86c.003-4.049 0-8.1.001-12.144 0-3.134-4.734-3.134-4.736-.003.003 4.051.003 8.098.002 12.145 0 3.133 4.734 3.136 4.733.002zM16.836 22.287c-.003-4.051-.002-8.098 0-12.145 0-3.133-4.735-3.135-4.735-.004v12.144c.002 3.135 4.735 3.135 4.735.005z"/><g><path fill="#D0D0D0" d="M59 43.009v9.786c0 5.392-4.246 9.781-9.465 9.783-5.221 0-9.467-4.39-9.467-9.785l-.002-9.787c.002-5.393 4.248-9.782 9.465-9.784 5.223 0 9.469 4.389 9.469 9.787zm-14.198 9.784c-.002 2.696 2.124 4.893 4.733 4.893 2.607 0 4.729-2.196 4.73-4.893l-.002-9.784c.005-2.697-2.121-4.894-4.73-4.891-2.607 0-4.729 2.193-4.731 4.891v9.784zM58.998 11.208l-.003 9.784c0 5.397-4.243 9.784-9.464 9.784-5.217.002-9.461-4.387-9.463-9.782v-9.786c0-5.396 4.246-9.786 9.465-9.784 5.221.002 9.469 4.391 9.465 9.784zm-14.194 9.786c-.002 2.697 2.122 4.893 4.731 4.891 2.607-.002 4.729-2.196 4.73-4.891l.003-9.783c-.005-2.702-2.124-4.894-4.733-4.894-2.613-.002-4.735 2.191-4.733 4.891l.002 9.786z"/><path fill="#94989B" d="M51.902 38.118c-.005-4.081-.002-8.156 0-12.232 0-3.155-4.735-3.157-4.735-.004v12.231c.002 3.158 4.735 3.158 4.735.005z"/><g><path fill="#94989B" d="M51.9 64v-6.647c0-3.155-4.733-3.155-4.735-.004.004 4.08.002 6.649.002 6.649L51.9 64zM47.167 0l-.002 6.648c0 3.155 4.732 3.155 4.735.003-.003-4.08-.003-6.649-.003-6.649L47.167 0z"/></g></g></svg>