<svg xmlns="http://www.w3.org/2000/svg" width="64" height="64" viewBox="0 0 64 64"><path fill="#8A6859" d="M10.324 9.906c-2.192 0-3.893 1.799-3.893 4.019v29.403h7.788V13.925c.001-2.22-1.699-4.019-3.895-4.019zM31.3 43.328h8.292V9.791c0-2.247-1.854-4.12-4.136-4.12h-.021c-2.284 0-4.135 1.873-4.135 4.187v33.47z"/><path fill="#705041" d="M35.456 5.671h-.021c-.249 0-.49.031-.726.074 1.934.348 3.406 2.045 3.406 4.046v33.537h1.477V9.791c0-2.247-1.854-4.12-4.136-4.12z"/><path fill="#8A6859" d="M14.22 43.328h8.538V9.105c0-2.39-1.908-4.327-4.262-4.327h-.014c-2.354 0-4.263 1.938-4.263 4.327v34.223z"/><path fill="#705041" d="M18.496 4.778h-.014a4.09 4.09 0 0 0-.731.074c2.003.354 3.533 2.117 3.533 4.253v21.298l1.474 2.147V9.105c0-2.389-1.908-4.327-4.262-4.327z"/><path fill="#8A6859" d="M22.758 40.549H31.3V6.327C31.3 3.937 29.39 2 27.036 2h-.014c-2.354 0-4.265 1.937-4.265 4.327v34.222z"/><path fill="#705041" d="M27.036 2h-.014c-.25 0-.493.031-.73.074 2.004.354 3.533 2.116 3.533 4.253v24.076L31.3 32.55V6.327C31.3 3.937 29.39 2 27.036 2zM10.324 9.906c-.254 0-.498.029-.736.074 1.825.354 3.154 1.982 3.154 3.944v17.479l1.478 2.147V13.925c0-2.22-1.7-4.019-3.896-4.019z"/><path fill="#8A6859" d="M57.662 29.265c-1.558-3.066-6.575-2.914-11.69 2.71-3.572 3.929-4.332 5.153-7.917 5.149v-4.116s-31.699.139-31.699 2.634c0 0-1.479 11.102 1.596 18.081 4.58 10.396 26.235 11.953 35.327-4.943 5.361-9.965 16.087-16.153 14.383-19.515z"/><g><path fill="#705041" d="M57.662 29.265a3.52 3.52 0 0 0-1.239-1.381c.084.125.168.248.238.387 1.705 3.362-3.388 6.893-7.038 10.473-2.939 2.881-5.669 5.911-7.146 9.428-6.434 15.338-24.966 15.333-32.77 8.281 7.092 8.019 27.044 8.746 33.771-7.288 1.475-3.518 4.08-6.385 7.145-9.426 3.63-3.603 8.743-7.112 7.039-10.474z"/></g><g><path fill="#705041" d="M39.139 37.079c-5.897-2.059-18.081 2.024-16.48 13.662 0-10.898 9.866-13.617 15.297-13.617.65 0 1.183-.045 1.183-.045z"/></g></svg>