<svg xmlns="http://www.w3.org/2000/svg" width="64" height="64" viewBox="0 0 64 64"><path fill="#FFDD67" d="M37.329 31.895c-.524 2.239.927 4.477 3.237 4.996l.038.01c2.313.518 4.613-.875 5.137-3.114l6.125-26.191c.523-2.239-.93-4.478-3.241-4.996l-.037-.01c-2.312-.519-4.61.875-5.136 3.115l-6.123 26.19z"/><path fill="#EBA352" d="M38.897 35.551l.045.01c2.309.519 4.601-.908 5.126-3.15l6.121-26.189a3.97 3.97 0 0 0-.691-3.327c2.059.938 2.832 2.716 2.375 4.674l-6.123 26.19c-.522 2.24-2.818 3.664-5.131 3.146l-.037-.01a4.295 4.295 0 0 1-2.522-1.625c.261.119.543.214.837.281z"/><path fill="#FFDD67" d="M45.229 34.508s-8.671-8.585-24.108-4.274c0 0-9.129 1.601-8.634 6.196 0 0-.296 11.429 3.638 18.181 5.851 10.055 28.645 11.74 34.319-7.021 1.127-3.729.248-13.73-5.215-13.082z"/><path fill="#FFDD67" d="M29.704 33.356c.429 2.259 2.67 3.745 5 3.317l.036-.006c2.333-.428 3.88-2.605 3.451-4.862L33.17 5.392c-.429-2.259-2.669-3.745-5.003-3.32l-.037.009c-2.332.425-3.874 2.603-3.444 4.861l5.018 26.414z"/><path fill="#EBA352" d="M32.628 36.096l.043-.006c2.331-.428 3.853-2.631 3.423-4.892L31.073 4.784C30.84 3.557 29.998 2.587 28.972 2c2.214 0 3.818 1.389 4.192 3.361l5.019 26.414c.43 2.261-1.096 4.465-3.43 4.89l-.034.007a4.368 4.368 0 0 1-2.974-.504c.288.008.586-.018.883-.072z"/><path fill="#FFDD67" d="M12.025 32.099c-.255-2.338 1.442-4.431 3.796-4.678l.071-.008c2.349-.247 4.458 1.446 4.712 3.784l.71 6.538a4.245 4.245 0 0 1-3.793 4.678l-.069.008c-2.354.249-4.464-1.448-4.717-3.782l-.71-6.54z"/><path fill="#FFDD67" d="M20.092 27.413c-.252-2.334 1.445-4.429 3.795-4.676l.069-.008c2.35-.247 4.464 1.446 4.72 3.782l.708 6.541c.256 2.336-1.445 4.433-3.796 4.68l-.068.006c-2.351.249-4.463-1.446-4.719-3.784l-.709-6.541z"/><path fill="#EBA352" d="M16.073 40.979l.058-.006c2.348-.246 3.991-2.309 3.735-4.645l-.71-6.544c-.071-.631-.426-1.345-.729-1.856 1.467.73 2.031 1.945 2.181 3.318l.715 6.544c.251 2.334-1.387 4.369-3.738 4.616l-.05.006a4.29 4.29 0 0 1-4.138-2.046 4.291 4.291 0 0 0 2.676.613zM24.121 36.297l.055-.006c2.349-.246 4.015-2.281 3.761-4.619l-.712-6.544c-.067-.629-.432-1.377-.739-1.889 1.439.75 2.048 1.979 2.198 3.351l.71 6.544c.255 2.336-1.415 4.344-3.764 4.591l-.053.006a4.282 4.282 0 0 1-4.134-2.046 4.294 4.294 0 0 0 2.678.612z"/><g><path fill="#EBA352" d="M41.398 40.822c-4.804-2.338-15.659 1.65-13.538 11.674 0-10.416 9.391-12.168 13.538-11.674z"/></g><g><path fill="#EBA352" d="M39.571 30.51c-3.451-2.056-4.14 1.186-10.007 1.359-2.569.075-3.713 5.396.177 7.324 5.416 2.682 5.841-1.115 7.157.365 1.403 1.572 2.726 1.88 3.909 3.703.86 1.321 7.576-.719 8.285-3.434 1.366-5.209-4.044-6.054-9.521-9.317z"/><path fill="#FFDD67" d="M40.015 31.418c-3.586-2.139-4.302 1.233-10.409 1.415-2.674.077-3.862 5.613.189 7.618 5.632 2.79 6.071-1.16 7.442.38 1.463 1.637 2.836 1.956 4.064 3.853.895 1.377-1.486 6.579-1.486 6.579s6.904 4.867 8.313 2.093c2.617-5.15 1.874-9.211 1.793-12.241-.191-6.986-4.205-6.303-9.906-9.697z"/><path fill="#EBA352" d="M46.949 34.879c3.833 1.76 3.649 11.699.794 16.487-7.107 11.908-22.664 11.713-30.043 5.337 6.84 7.315 23.408 8.038 31.129-4.306 3.094-4.941 4.06-16.266-1.88-17.518z"/><path fill="#EBA352" d="M40.517 44.819c.276.425.241 1.218.06 2.109.41-1.357.684-2.77.278-3.396-1.23-1.896-1.929-2.286-3.385-3.922-1.376-1.541-1.814 2.409-7.448-.379-2.081-1.031-2.772-2.994-2.594-4.672-.789 1.815-.396 4.643 2.259 5.959 5.632 2.787 6.072-1.162 7.444.379 1.461 1.636 2.158 2.027 3.386 3.922z"/></g></svg>