<svg xmlns="http://www.w3.org/2000/svg" width="64" height="64" viewBox="0 0 64 64"><path fill="#EBA352" d="M20.645 54.984c1.041 1.092 7.857 1.012 9.146.236 2.461-1.48 19.938-22.352 4.764-28.516-11.482-4.666-14.033 5.908-15.232 6.815-2.29 1.733-.665 19.381 1.322 21.465z"/><path fill="#FFDD67" d="M57.645 54.305c-17.361.102-8.898 2.594-22.834 2.594-5.527 0-10.16-3.621-10.238-8.627l.002-.086c8.588-5.736-5.842-3.213-3.615-16.725.742-4.5 5.484-4.848 11.758-5.373 5.326-.451 23.203 6.322 23.203 6.322 6.44 2.262 8.884 21.856 1.724 21.895z"/><path fill="#FFDD67" d="M20.098 23.191c2.813-1.949 15.955 3.168 15.955 3.168l-8.119 20.432s-28.557-.814-19.275-8.588c7.806-6.537 7.571-12.334 11.439-15.012z"/><path fill="#EBA352" d="M7.756 39.064c-2.227 5.471 17.859 6.424 20.637 6.529l-.477 1.197c0 .001-26.391-.755-20.16-7.726zM27.551 35.076c3.408 5.193 4.912 6.256 4.912 6.256s-3.436-.777-5.691-4.201l.779-2.055z"/><path fill="#EBA352" d="M27.352 33.973c1.488-.002.037 7.344 1.701 9.318-.412 1.287-3.008.547-3.008.547s.832-8.959.674-9.471l.633-.394z"/><path fill="#EBA352" d="M19.627 40.51l1.531 1.521s13.678-12.614 17.461-15.139l-4.453-1.045L19.627 40.51z"/><path fill="#428BC1" d="M8.535 44.488l4.332 4.303 34.682-34.444-4.332-4.303z"/><path fill="#574137" d="M43.945 10.767l2.875 2.858 3.793-3.768L47.738 7zM37.799 14.085l5.603 5.565.95-.942-5.604-5.566zM28.834 21.507l.744.743 9.17-9.108-.748-.74z"/><path fill="#A9B5AE" d="M12.867 48.791l-9.744 5.375 5.412-9.678z"/><path fill="#574137" d="M2 54.58l.705.701 2.004-1.99-.705-.701z"/><g><path fill="#FFDD67" d="M39.434 51.43a7.26 7.26 0 0 0 .371-1.68 5.94 5.94 0 0 0 .309-.977c.959-4.26-15.334-7.096-15.334-7.096l-1.236-.303c-2.627-.609-8.289-1.344-12.49 3.51-2.908 3.357.082 6.779 2.789 7.033 7.309.701 12.699 2.496 16.773 4.223 3.644 1.542 7.282-.355 8.818-4.71z"/><path fill="#EBA352" d="M23.545 42.947c-2.613-.852-6.814-3.189-12.16 1.566 5.041-6.121 13.082-2.992 13.398-2.947 7.563 1.004 12.602-2.018 12.602-2.018-1.578 3.843-10.135 4.604-13.84 3.399zM35.344 55.639c13.934 0 5.473-2.492 22.832-2.592 1.547-.01 2.734-1.465 3.439-2.926-.516 2.68-1.963 4.174-3.914 4.184C40.342 54.406 48.742 57 34.809 57c-5.529 0-10.699-2.779-15.117-4.232-.221-.073 10.425 2.871 15.652 2.871z"/></g></svg>