<svg xmlns="http://www.w3.org/2000/svg" width="64" height="64" viewBox="0 0 64 64"><path fill="#94989B" d="M43.786 51.7l7.912-7.913 10.057 6.101s-.695 6.359 2.244 12.53l-9.976-9.977a1.697 1.697 0 0 0-.486-1.279 1.683 1.683 0 0 0-2.377 0 1.683 1.683 0 0 0 .002 2.375c.351.351.819.51 1.28.485L62.42 64c-6.174-2.939-12.532-2.245-12.532-2.245L43.786 51.7z"/><path fill="#3E4347" d="M2.457 2.457c3.278-3.276 8.592-3.276 11.867 0l4.675 4.674s4.996 1.828 14.092 10.926c9.101 9.101 10.927 14.094 10.927 14.094l9.663 9.659L41.81 53.681l-9.66-9.661s-4.992-1.828-14.092-10.928c-9.1-9.1-10.93-14.093-10.93-14.093l-4.672-4.671a8.4 8.4 0 0 1 .001-11.871z"/><path fill="#94989B" d="M17.416 5.549l1.582 1.582L7.133 18.999 5.55 17.417zM44.012 32.143l1.586 1.582-11.852 11.882-1.586-1.581z"/></svg>