<svg xmlns="http://www.w3.org/2000/svg" width="64" height="64" viewBox="0 0 64 64"><path fill="#C28FEF" d="M55 23.354s-1.729-1.47-4.23-2.286c-.693-2.335-2.416-3.987-4.432-3.987-.865 0-1.677.305-2.377.84.803.61 1.453 1.521 1.872 2.613H35.037V10.51c1.177.389 2.158.995 2.815 1.739.576-.65.904-1.403.904-2.209 0-1.87-1.78-3.469-4.294-4.112C33.582 3.606 31.999 2 31.999 2s-1.582 1.606-2.464 3.928c-2.514.644-4.293 2.242-4.293 4.112 0 .806.328 1.559.904 2.209.657-.744 1.639-1.351 2.816-1.739v10.023H18.166c.418-1.093 1.07-2.003 1.871-2.613-.699-.535-1.51-.84-2.377-.84-2.016 0-3.736 1.652-4.432 3.987C10.729 21.884 9 23.354 9 23.354s1.729 1.469 4.229 2.287c.695 2.333 2.416 3.986 4.432 3.986.867 0 1.678-.306 2.377-.839-.801-.612-1.453-1.521-1.871-2.616h10.797V53.49c-1.178-.387-2.159-.994-2.816-1.736-.576.649-.904 1.402-.904 2.206 0 1.871 1.779 3.47 4.293 4.112.88 2.324 2.462 3.928 2.462 3.928s1.583-1.604 2.464-3.928c2.514-.643 4.294-2.241 4.294-4.112 0-.804-.328-1.557-.904-2.206-.657.742-1.639 1.35-2.815 1.736V26.172h10.796c-.419 1.095-1.069 2.004-1.872 2.616.7.533 1.512.839 2.377.839 2.016 0 3.738-1.653 4.432-3.986 2.5-.819 4.229-2.287 4.229-2.287z"/></svg>