<svg xmlns="http://www.w3.org/2000/svg" width="64" height="64" viewBox="0 0 64 64"><circle fill="#FF5A79" cx="32" cy="32" r="30"/><g fill="#FFF"><path d="M25.842 37.545c-.318-.656-.794-1.639-1.375-2.623V50h-4.389V36.508c-1.162 3.004-2.483 5.68-3.963 7.592-.371-1.42-1.375-3.551-2.115-4.861 1.956-2.35 3.858-6.336 5.128-10.106h-4.547v-4.589h5.497v-4.097a73.322 73.322 0 0 1-4.439.655c-.212-1.093-.793-2.732-1.375-3.823 4.071-.602 8.723-1.64 11.419-3.005l3.226 3.715c-1.323.601-2.854 1.092-4.441 1.529v5.025h3.699v4.589h-3.699v.326c.898.875 3.014 3.168 3.912 4.262.422-2.022.688-4.262.845-6.336l3.543.873c-.317 4.426-.952 9.452-2.749 12.51l-3.383-1.803c.633-1.201 1.162-2.678 1.531-4.314l-2.325 2.895z"/><path d="M45.612 39.566c-.105-2.404-.846-5.736-1.85-8.797-1.745 3.881-3.807 7.323-6.239 10.327v2.459c0 1.529.159 1.748 1.217 1.748h3.172c1.004 0 1.216-.766 1.375-5.682.95.766 2.695 1.529 3.963 1.803-.422 6.445-1.585 8.193-4.861 8.193h-4.283c-3.331 0-4.599-.928-4.916-3.934a47.188 47.188 0 0 1-4.123 3.225c-.688-.93-2.539-2.732-3.543-3.553 2.855-1.746 5.393-3.822 7.561-6.281v-16.77h4.439v10.598c2.802-4.809 4.76-10.49 6.081-16.936l4.651.874c-.847 3.771-1.851 7.267-3.066 10.49l1.639-.437c1.639 3.55 2.908 8.248 3.172 11.363l-4.389 1.31z"/><path d="M39.111 23.177c-1.482-1.802-4.652-4.369-7.402-6.009L34.723 14c2.696 1.475 5.974 3.823 7.561 5.682l-3.173 3.495z"/></g></svg>