<?xml version="1.0" encoding="utf-8"?>
<svg xmlns="http://www.w3.org/2000/svg" width="24" height="24" viewBox="0 0 24 24">
    <path d="M17.6 20h-5.4v-.5c.2 0 .5-.1.9-.1.3-.1.5-.2.5-.3V19s0-.1-.1-.2l-.8-2H9.3c-.1.2-.2.4-.3.7-.1.3-.2.5-.2.7-.1.3-.1.4-.2.6v.2c0 .1.1.3.3.4.2.1.6.2 1.1.2v.4H6v-.5c.2 0 .3 0 .5-.1.2 0 .3-.1.5-.2s.4-.2.5-.4l.3-.6c.5-1.3 1.1-2.6 1.6-3.9.5-1.3 1.1-2.7 1.8-4.3h1.4c.9 2.2 1.6 4 2.1 5.3.5 1.3 1 2.4 1.3 3.2.1.1.1.3.2.4.1.1.2.2.4.3.1.1.3.1.5.2s.3.1.5.1v.5zm-5.2-4L11 12.4 9.6 16h2.8z"/>
</svg>
