<?xml version="1.0" encoding="utf-8"?>
<svg xmlns="http://www.w3.org/2000/svg" width="24" height="24" viewBox="0 0 24 24"><g fill="#36c">
    <g id="special-character">
        <path id="omega" d="M12 6.708c-.794 0-1.368.103-1.894.31-.525.207-.944.496-1.255.867-.31.366-.53.808-.66 1.327a7.232 7.232 0 0 0-.19 1.7c0 .512.06 1 .18 1.46.12.46.31.87.567 1.23.63.862 1.156 1.138 2.012 1.362L11 18H6v-3h.604l.53 1.353.395.053.6.044.75.035.455.01H10l-.09-.895c-.63-.094-.812-.268-1.337-.522-.525-.26-.98-.59-1.365-.99a4.428 4.428 0 0 1-.89-1.4 4.78 4.78 0 0 1-.32-1.778c0-.82.13-1.537.394-2.15a3.97 3.97 0 0 1 1.163-1.54c.507-.407 1.133-.71 1.878-.912.745-.206 1.6-.31 2.565-.31.96 0 1.81.103 2.556.31.75.2 1.38.504 1.887.912.51.407.9.92 1.16 1.54.27.614.404 1.33.404 2.15a4.79 4.79 0 0 1-.32 1.78 4.35 4.35 0 0 1-.9 1.397c-.38.4-.83.732-1.355.99-.526.255-.708.43-1.337.523l-.092.894h.66l.448-.01.75-.034.606-.044.4-.053.534-1.354H18v3h-5l.246-3.04c1.066-.11 1.337-.698 2.002-1.365.263-.36.452-.77.568-1.23.122-.46.183-.947.183-1.46 0-.62-.07-1.186-.198-1.7a3.175 3.175 0 0 0-.66-1.326c-.31-.37-.73-.66-1.255-.867-.525-.206-1.1-.31-1.894-.31"/>
    </g>
</g></svg>
