<svg xmlns="http://www.w3.org/2000/svg" width="100" height="100" viewBox="0 0 100 100"><path d="M72.1,46.7h0c-3-13.8-17.7-23.9-20.6-25.9-.1-.1-.2-.1-.4-.2a3.31,3.31,0,0,0-2.4,0c-.1,0-.1.1-.2.1-2.9,1.9-17.5,12-20.6,25.8a22.18,22.18,0,0,0,4.4,19.1,24.46,24.46,0,0,0,14.7,9l-1.5,2.6a2.48,2.48,0,0,0,0,1.7,1.72,1.72,0,0,0,1.5.9h6.1a2,2,0,0,0,1.5-.9,2.48,2.48,0,0,0,0-1.7l-1.5-2.6a24,24,0,0,0,14.7-9A22.33,22.33,0,0,0,72.1,46.7ZM63.8,62.4c-.5.6-1.1,1.2-1.7,1.9a13,13,0,0,0-12-8h-.4a12.29,12.29,0,0,0-11.7,8c-.6-.6-1.1-1.2-1.7-1.9a17.38,17.38,0,0,1-3.5-14.7C35.2,37.1,46.1,28.5,50,25.9c3.9,2.7,14.8,11.3,17.2,21.9h0A16.56,16.56,0,0,1,63.8,62.4Z" fill="#fff"/><circle cx="50" cy="46.3" r="8.4" fill="#fff"/></svg>