<svg xmlns="http://www.w3.org/2000/svg" width="100" height="100" viewBox="0 0 100 100"><path d="M64.73,49.35a1.63,1.63,0,0,0,1-1.48V24.73a4.83,4.83,0,0,0-4.83-4.83H29.81A4.82,4.82,0,0,0,25,24.73V65.3a4.82,4.82,0,0,0,4.82,4.83h15.8a1.61,1.61,0,0,0,1.45-.92A10.82,10.82,0,0,1,48.73,67l12-14.25A11.34,11.34,0,0,1,64.73,49.35ZM30.21,33.67a1.52,1.52,0,0,1,1.52-1.52h3.05v-3a1.52,1.52,0,0,1,1.52-1.48h1.52a1.53,1.53,0,0,1,1.52,1.53v2.95h3a1.55,1.55,0,0,1,1.53,1.53v1.52a1.56,1.56,0,0,1-1.53,1.53h-3v3.07a1.52,1.52,0,0,1-1.52,1.52H36.29a1.52,1.52,0,0,1-1.51-1.52v-3H31.73a1.52,1.52,0,0,1-1.52-1.52ZM49.32,58.18a1.61,1.61,0,0,1-1.61,1.61l-15.89,0a1.61,1.61,0,0,1-1.61-1.61V56.41a1.61,1.61,0,0,1,1.61-1.6H47.71a1.61,1.61,0,0,1,1.61,1.6Zm8.1-9.81A1.61,1.61,0,0,1,55.81,50h-24a1.61,1.61,0,0,1-1.61-1.61V46.63A1.61,1.61,0,0,1,31.82,45h24a1.61,1.61,0,0,1,1.61,1.61Z" fill="#fff"/><path d="M73.38,53.77a6.72,6.72,0,0,0-9.4.54,2.43,2.43,0,0,0-.2.25l-5,5.88,10,8.51,0,0,0,0,5-5.88A6.59,6.59,0,0,0,73.38,53.77Z" fill="#fff"/><path d="M56.66,63.1l0,0-5,5.88a6.62,6.62,0,0,0,9.93,8.76l.21-.25,5-5.88-10-8.51Z" fill="#fff"/></svg>