<svg xmlns="http://www.w3.org/2000/svg" x="0px" y="0px"
	 width="100px" height="100px" viewBox="0 0 100 100" enable-background="new 0 0 100 100" xml:space="preserve">
<path fill="#FFFFFF" d="M74,80H26c-3.3,0-6-2.7-6-6V26c0-3.3,2.7-6,6-6h48c3.3,0,6,2.7,6,6v48C80,77.3,77.3,80,74,80z M28.1,30v40
	c0,1.1,0.9,2,2,2H70c1.1,0,2-0.9,2-2V30c0-1.1-0.9-2-2-2H30.1C29,28,28.1,28.9,28.1,30z"/>
<path fill="#FFFFFF" d="M63,42.8h-3.7l1.6-6.1v-0.1c0-0.2-0.2-0.5-0.5-0.5h-2.9c-0.2,0-0.4,0.2-0.5,0.4l-1.6,6.3h-7.4l1.6-6.1v-0.1
	c0-0.2-0.2-0.5-0.5-0.5h-2.9c-0.2,0-0.4,0.2-0.5,0.4l-1.6,6.3H40c-0.2,0-0.4,0.1-0.5,0.3l-0.7,2.8v0.1c0,0.2,0.2,0.5,0.5,0.5h3.9
	l-1.8,7.1h-4c-0.2,0-0.4,0.1-0.5,0.3l-0.7,2.8v0.1c0,0.2,0.2,0.5,0.5,0.5h3.7l-1.6,6.2v0.1c0,0.2,0.2,0.5,0.5,0.5h2.9
	c0.2,0,0.4-0.1,0.5-0.4l1.6-6.4h7.3L50,63.3v0.1c0,0.2,0.2,0.5,0.5,0.5h2.9c0.2,0,0.4-0.1,0.5-0.4l1.6-6.4h4.1
	c0.2,0,0.4-0.1,0.5-0.4l0.7-2.8v-0.1c0-0.2-0.2-0.5-0.5-0.5h-3.8l1.8-7.1h3.9c0.2,0,0.4-0.1,0.5-0.4l0.7-2.8V43
	C63.5,42.9,63.3,42.8,63,42.8L63,42.8z M52.7,53.6h-7.4l1.8-7.1h7.3L52.7,53.6z"/>
</svg>
