<svg xmlns="http://www.w3.org/2000/svg" viewBox="0 0 64 64" enable-background="new 0 0 64 64"><switch><g><path fill="#f9cb38" d="m63.973 20.21l-55.46 33.665c-.001.01-.001.02-.002.03.476.059.969.094 1.487.094h3.825l50.17-30.457v-2.543c0-.267-.015-.527-.027-.789"/><path fill="#f9cb38" d="m.031 44c0 0-.002-.094-.002-.103l55.53-33.749c-.5-.064-1.015-.148-1.56-.148h-3.757l-50.24 30.5v2.5c0 .285.011 1 .027 1 .002 0 .003 0 .004 0"/><path fill="#25333a" d="m63.973 20.21v-.01.01"/><path fill="#25333a" d="m64 20.21c0 0 0-.005 0-.008 0-.301-.055-.598-.086-.891-.004-.037-.016-.075-.02-.112-.034-.284-.078-.564-.128-.841-.007-.038-.016-.076-.022-.113-.054-.281-.114-.559-.184-.83-.004-.016-.01-.032-.014-.048-.381-1.47-1.01-2.796-1.879-3.904l-.003-.003c-.167-.213-.344-.415-.528-.611-.017-.017-.032-.034-.049-.052-.183-.19-.374-.372-.574-.546-.016-.015-.033-.028-.049-.043-1.287-1.101-2.922-1.844-4.903-2.1l-55.53 33.71c.016.308.042.61.076.909.003.03.006.06.009.09.034.286.077.568.128.848.007.039.014.077.021.115.053.277.112.551.182.819.007.027.015.054.021.081.386 1.459 1.014 2.777 1.884 3.878l.003.005c.164.207.339.404.521.597.021.022.042.046.063.067.178.184.363.359.557.527.026.022.053.045.08.067.198.168.404.329.619.479.016.01.031.02.046.03 1.173.81 2.601 1.356 4.255 1.563l55.51-33.683"/><path fill="#009e49" d="M10,10C3.373,10,0,14.925,0,21v19.5L50.243,10H10z"/><path fill="#ec1c24" d="M54,54c6.627,0,10-4.925,10-11V23.543L13.825,54H54z"/><path fill="#eaeaea" d="m21.05 37.425l-2.797 1.705-2.578-2.307.848 3.357-2.796 1.69 3.313.34.825 3.355 1.215-3.125 3.337.361-2.584-2.282z"/><path fill="#eaeaea" d="m48.629 20.372l-2.796 1.708-2.573-2.31.84 3.36-2.79 1.688 3.308.342.832 3.351 1.211-3.128 3.337.365-2.588-2.284z"/></g></switch></svg>