<svg xmlns="http://www.w3.org/2000/svg" viewBox="0 0 64 64" enable-background="new 0 0 64 64"><switch><g><path fill="#e6e7e8" d="m64 43c0 6.075-3.373 11-10 11h-44c-6.627 0-10-4.925-10-11v-22c0-6.075 3.373-11 10-11h44c6.627 0 10 4.925 10 11v22"/><g><path fill="#ec1c24" d="m34.525 28.646c1.103-.485 2.235-.509 3.399-.074 1.221.459 2.059 1.185 2.512 2.182.455.999.509 2.233.165 3.704.807-2.577.714-4.958-.281-7.141-.992-2.18-2.68-3.72-5.065-4.611-2.325-.874-4.642-.793-6.949.231-2.308 1.026-3.891 2.688-4.751 4.979-.464 1.245-.448 2.444.058 3.597.504 1.154 1.358 1.955 2.561 2.406 1.165.435 2.298.412 3.404-.065 1.107-.48 1.909-1.296 2.409-2.457l.123-.291c.507-1.155 1.313-1.976 2.415-2.46"/><path fill="#1b75bb" d="m29.631 33.729c-1.104.486-2.237.51-3.397.076-1.222-.458-2.061-1.186-2.514-2.184-.453-.997-.508-2.231-.167-3.701-.805 2.575-.71 4.955.283 7.137.994 2.184 2.681 3.72 5.064 4.613 2.326.871 4.643.791 6.952-.23 2.305-1.027 3.89-2.687 4.747-4.979.468-1.245.452-2.445-.054-3.596-.506-1.154-1.36-1.956-2.565-2.407-1.161-.436-2.294-.413-3.4.065-1.106.479-1.909 1.298-2.409 2.455l-.124.292c-.506 1.152-1.314 1.974-2.416 2.459"/><path fill="#231f20" d="m24.04 15.451c.133.136.133.353 0 .488l-6.098 6.096c-.133.137-.352.137-.487.004-.135-.137-.135-.355 0-.489l6.097-6.098c.137-.136.351-.136.488-.001"/><path fill="#231f20" d="m25.14 16.55c.135.135.135.353 0 .487l-6.094 6.097c-.138.134-.355.134-.488 0-.137-.135-.137-.354 0-.488l6.097-6.096c.131-.134.352-.134.485 0"/><path fill="#231f20" d="m26.28 17.691c.137.135.137.353 0 .488l-6.098 6.098c-.133.135-.351.135-.485 0-.135-.137-.135-.353 0-.489l6.096-6.097c.136-.135.352-.135.487 0"/><path fill="#231f20" d="m43.01 18.646c.144-.113.28-.236.418-.358l-2.836-2.837c-.135-.135-.354-.135-.488 0s-.135.353 0 .488l2.815 2.814c.022-.038.049-.074.091-.107"/><path fill="#231f20" d="m46.69 21.549l-2.753-2.754c-.171.153-.345.306-.526.448l2.791 2.791c.133.135.352.135.488 0 .135-.134.135-.352 0-.485"/><path fill="#231f20" d="m45.591 23.13c-.136.134-.353.134-.487 0l-6.098-6.097c-.135-.135-.135-.353 0-.487.137-.135.354-.135.488 0l6.097 6.096c.135.135.135.354 0 .488"/><path fill="#231f20" d="m40.641 20.924c.178-.138.327-.304.465-.483l-2.751-2.75c-.135-.136-.353-.136-.487 0-.135.135-.135.352 0 .488l2.763 2.761c-.001-.001.004-.008.01-.016"/><path fill="#231f20" d="m44.45 23.788l-2.834-2.834c-.146.18-.309.343-.483.49l2.83 2.832c.135.137.351.137.487 0 .135-.138.135-.354 0-.488"/><path fill="#231f20" d="m42.958 43.678l-2.736 2.738c-.134.135-.134.352 0 .487.136.135.354.135.487 0l2.717-2.719c-.155-.17-.31-.338-.468-.506"/><path fill="#231f20" d="m46.807 40.32c-.137-.133-.354-.133-.489.003l-2.849 2.847c.157.171.313.338.469.506l2.869-2.867c.132-.136.132-.352 0-.489"/><path fill="#231f20" d="m41.889 42.553l-2.767 2.764c-.133.135-.133.354 0 .488.135.135.355.135.49 0l2.752-2.754c-.16-.168-.315-.336-.475-.498"/><path fill="#231f20" d="m45.706 39.22c-.133-.135-.352-.135-.484 0l-2.822 2.82c.162.164.316.331.477.498l2.83-2.831c.136-.135.136-.353-.001-.487"/><path fill="#231f20" d="m40.7 41.459l-2.72 2.717c-.132.135-.132.354 0 .488.135.135.356.135.49 0l2.738-2.742c-.168-.154-.33-.318-.508-.463"/><path fill="#231f20" d="m41.724 41.41l2.841-2.845c.138-.136.138-.352 0-.488-.132-.135-.351-.135-.485 0l-2.867 2.867c.179.149.341.31.511.466"/><path fill="#231f20" d="m21.248 43.708c-.144.112-.279.236-.419.358l2.838 2.837c.135.135.354.135.486 0 .136-.135.136-.353 0-.487l-2.813-2.816c-.025.039-.051.076-.092.108"/><path fill="#231f20" d="m17.571 40.805l2.752 2.754c.172-.152.343-.306.525-.447l-2.791-2.792c-.135-.134-.351-.134-.486 0-.134.134-.134.353 0 .485"/><path fill="#231f20" d="m25.25 45.32l-2.779-2.779c-.153.141-.304.286-.464.418-.021.018-.042.025-.061.036l2.815 2.813c.132.135.351.135.488 0 .134-.134.134-.353.001-.488"/><path fill="#231f20" d="m21.481 42.463c.166-.141.322-.289.482-.437l-2.808-2.806c-.135-.135-.351-.135-.488 0-.135.135-.135.353 0 .487l2.788 2.788c.012-.011.015-.02.026-.032"/><path fill="#231f20" d="m19.812 38.08c.135-.137.353-.137.486 0l6.098 6.096c.134.137.134.354 0 .488-.137.136-.354.136-.488 0l-6.096-6.098c-.137-.134-.137-.351 0-.486"/><path fill="#231f20" d="m17.556 40.31c.134-.135.352-.135.488 0l6.095 6.096c.136.137.136.354 0 .488-.134.135-.351.135-.488 0l-6.095-6.096c-.136-.135-.136-.354 0-.488"/><path fill="#231f20" d="m23.62 41.43c-.178.139-.327.302-.465.484l2.75 2.75c.135.136.354.136.488 0 .135-.135.135-.352 0-.488l-2.763-2.761c-.002.004-.005.007-.01.015"/><path fill="#231f20" d="m19.812 38.566l2.831 2.834c.147-.18.308-.342.485-.49l-2.83-2.83c-.135-.137-.354-.137-.486 0-.137.136-.137.352 0 .486"/></g></g></switch></svg>