<svg xmlns="http://www.w3.org/2000/svg" enable-background="new 0 0 64 64" viewBox="0 0 64 64"><path d="M63.969,57.072c0,3.812-3.088,6.893-6.894,6.893H6.895C3.089,63.965,0,60.885,0,57.072V6.893    C0,3.081,3.089,0,6.895,0h50.18c3.806,0,6.894,3.081,6.894,6.893V57.072z" fill="#ec1c24"/><g fill="#fff"><path d="m60.725 22.496c-.944-.443-1.885-.895-2.819-1.356-5.152-2.547-10.197-5.37-14.884-8.71-2.684-1.915-7.622-6.34-7.622-6.34-1.444-1.187-1.953-1.271-3.687-1.272-.007 0-.012 0-.02 0-.006 0-.012 0-.018 0-1.735 0-2.242.085-3.687 1.272 0 0-4.938 4.425-7.623 6.339-4.685 3.34-9.73 6.163-14.884 8.71-.935.461-1.875.913-2.818 1.356-.186.087-.238.355-.137.52.884 1.446 1.767 2.893 2.65 4.338.118.19.329.223.521.137 9.383-4.233 18.05-9.929 25.602-16.929l.393-.42.393.42c7.55 7 16.219 12.695 25.603 16.929.192.086.403.053.521-.137.883-1.446 1.766-2.892 2.649-4.338.103-.164.052-.432-.133-.519"/><path d="m51.92 35.438c0-.11-.043-.196-.104-.257-.003-.004-.007-.007-.001-.011-.003-.003-.007-.007-.011-.001-.061-.062-.146-.102-.259-.102h-40.968c-.207 0-.38.172-.38.379v9.323 10.913c0 .112.041.196.103.259.003.003.006.006.009.011.004.003.007.006.001.009.062.061.146.102.258.102h40.969c.209 0 .381-.173.381-.38v-9.32h.002v-10.916m-5.581 15.276h-30.569v-4.36-5.956h30.569v4.363 5.953"/><path d="m24.292 30.33c6.354 0 12.711 0 19.06 0 2.01 0 4.01 0 6.01 0 .207 0 .381-.172.381-.38 0-1.606 0-3.213 0-4.819 0-.208-.174-.381-.381-.381-3.771 0-7.541 0-11.312 0-6.354 0-12.71 0-19.07 0-2 0-4.01 0-6.01 0-.112 0-.197.041-.257.102-.004.003-.007.007-.001.001-.004.003-.008.007-.011.001-.061.062-.102.146-.102.259 0 1.606 0 3.212 0 4.819 0 .208.173.38.38.38 3.771 0 7.542 0 11.313 0"/></g></svg>