<svg xmlns="http://www.w3.org/2000/svg" viewBox="0 0 64 64" enable-background="new 0 0 64 64"><g fill-rule="evenodd"><path fill="#829d9e" d="m45.1 36.63c-1.753-1.869-3.494-3.754-5.223-5.648-2.951-3.232-2.733-5.435.726-7.372.336-.186.662-.41 1.024-.52 2.365-.73 4.761-1.366 7.097-2.179.166-.062.33-.109.5-.149 0 0-.771-.337-2.052-.899-1.282-.564-3.076-1.349-5.127-2.249-9.302-3.391-25.503-16.601-27.18.297-.3 3.259.508 7 2.771 10.03 1.317 1.935 2.256 3.02 4 4.274 1.095.886 2.19 1.752 3.292 2.614 3.302 2.578 6.642 5.098 9.948 7.678 1.062.831 2.102 1.729 3.062 2.709.741.755.851 1.593-.029 2.307-1.409 1.144-2.918 2.194-4.124 3.569-1.286 1.462-2.887 2.836-2.764 5.335.156 3.136 1.929 5.291 4.02 7.143.854.758 2.074.031 2.26-1.237.076-.554-.029-1.179-.139-1.763-.267-1.443.113-2.404 1.338-2.899 1.502-.607 3.03-1.178 4.459-1.948 5.535-2.975 7.92-12.924 2.134-19.09"/><path fill="#637f7f" d="m38.01 57.966c-.117-.491-.209-.995-.238-1.541-.123-2.499 1.478-3.877 2.764-5.336 1.208-1.376 2.717-2.427 4.124-3.57.878-.714.771-1.552.029-2.305-.96-.979-2-1.878-3.062-2.709-3.306-2.58-6.647-5.102-9.948-7.678-1.103-.863-2.197-1.729-3.294-2.616-1.743-1.25-2.682-2.339-3.999-4.273-2.264-3.02-3.072-6.771-2.771-10.03.439-4.412 1.872-6.757 3.909-7.776-5.389-1.584-9.825-.635-10.658 7.776-.3 3.259.508 7 2.771 10.03 1.317 1.934 2.256 3.02 4 4.273 1.095.886 2.19 1.752 3.292 2.616 3.302 2.576 6.642 5.098 9.948 7.678 1.062.831 2.102 1.729 3.062 2.709.741.753.851 1.591-.029 2.305-1.409 1.144-2.918 2.194-4.124 3.57-1.286 1.459-2.887 2.837-2.764 5.336.156 3.134 1.929 5.289 4.02 7.143.854.756 2.074.031 2.26-1.237.076-.556-.029-1.183-.139-1.765-.224-1.209.041-2.061.842-2.6"/><g fill="#8faaaa"><path d="m37.35 25.525c5.297.774 8.908 2.322 8.908 4.105 0 2.559-7.438 4.634-16.604 4.634-9.175 0-16.607-2.076-16.607-4.634 0-1.5 2.555-2.833 6.511-3.679-6.087 1-10.176 2.851-10.176 4.968 0 3.185 9.253 5.765 20.663 5.765 11.415 0 20.668-2.58 20.668-5.765 0-2.466-5.554-4.571-13.363-5.394"/><path d="m36.716 19.01c5.295.774 8.907 2.321 8.907 4.105 0 2.559-7.439 4.633-16.605 4.633-9.173 0-16.605-2.075-16.605-4.633 0-1.5 2.553-2.833 6.511-3.679-6.089 1-10.176 2.852-10.176 4.968 0 3.184 9.251 5.766 20.659 5.766 11.417 0 20.67-2.582 20.67-5.766 0-2.466-5.555-4.571-13.361-5.394"/><path d="m44.35 39.41c2.828.414 4.759 1.239 4.759 2.192 0 1.368-3.974 2.477-8.871 2.477-4.9 0-8.87-1.108-8.87-2.477 0-.801 1.362-1.511 3.478-1.964-3.253.535-5.437 1.522-5.437 2.654 0 1.702 4.941 3.08 11.04 3.08s11.04-1.378 11.04-3.08c-.001-1.318-2.972-2.442-7.141-2.882"/><path d="m44.28 35.19c3.203.469 5.387 1.403 5.387 2.483 0 1.547-4.498 2.804-10.04 2.804-5.551 0-10.05-1.257-10.05-2.804 0-.908 1.544-1.712 3.939-2.226-3.686.607-6.158 1.726-6.158 3.01 0 1.926 5.598 3.489 12.499 3.489 6.904 0 12.504-1.563 12.504-3.489 0-1.492-3.358-2.765-8.08-3.263"/><path d="m34.752 24.352c3.654.535 6.145 1.603 6.145 2.832 0 1.766-5.131 3.199-11.457 3.199-6.332 0-11.46-1.433-11.46-3.199 0-1.036 1.762-1.954 4.495-2.539-4.204.692-7.02 1.969-7.02 3.429 0 2.198 6.384 3.98 14.259 3.98 7.877 0 14.266-1.783 14.266-3.98-.001-1.702-3.835-3.154-9.224-3.722"/></g><g fill="#829d9e"><path d="m43.04 50.18c2.303.338 3.872 1.01 3.872 1.786 0 1.114-3.233 2.02-7.219 2.02-3.991 0-7.224-.901-7.224-2.02 0-.652 1.11-1.231 2.832-1.599-2.648.436-4.427 1.239-4.427 2.16 0 1.384 4.02 2.509 8.988 2.509 4.965 0 8.989-1.125 8.989-2.509.002-1.073-2.416-1.988-5.811-2.347"/><path d="m45.39 45.33c2.397.35 4.03 1.052 4.03 1.855 0 1.16-3.364 2.099-7.512 2.099-4.151 0-7.515-.938-7.515-2.099 0-.677 1.154-1.28 2.945-1.662-2.756.452-4.605 1.29-4.605 2.248 0 1.44 4.188 2.609 9.353 2.609s9.351-1.169 9.351-2.609c0-1.116-2.514-2.068-6.05-2.441"/></g><path fill="#d0d2d3" d="m12.149 13.225c-.958-5.04.962-8.854 5.33-11.197 5.838-3.131 11.48-2.433 16.929 1.689 2.928-3.309 6.486-4.763 10.667-2.586 3.618 1.883 4.736 5.201 4.253 9.27.921.083 1.752.124 2.576.25 5.884.891 9.104 8.09 5.81 13.15-.411.631-1.468 1.172-2.221 1.175-15.867.067-31.737.036-47.6.083-1.452.004-2.081-.645-2.518-1.885-.871-2.461-.236-5.206 1.997-7.03 1.357-1.113 3.01-1.859 4.777-2.916"/></g></svg>