<svg xmlns="http://www.w3.org/2000/svg" enable-background="new 0 0 64 64" viewBox="0 0 64 64"><path d="m57.55 14.45c9.695 14.11 6.113 33.402-8 43.1-14.11 9.695-33.402 6.112-43.1-8-9.694-14.11-6.111-33.412 8-43.1 14.11-9.692 33.412-6.109 43.1 8" fill="#db7c27"/><g transform="matrix(.97354 0 0 .97355.996.999)" fill="#404041"><path d="m45.533 60.59c0 0-15.202-33.877.993-57.01l1.357.75c0 0-16.966 23.24.872 54.52l-3.222 1.736"/><path d="m5.598 49.869c0 0 14.984-22.248 10.85-45.899l-1.843 1.268c0 0 8.09 6.601-10.161 42.95"/><path d="m34.475.146c0 0-18.525 23.2-14.719 61.22 0 0 2.752.816 3.641 1.131.887.313-5.91-34.441 13.871-62.03l-2.793-.322"/><path d="m.703 26.681c0 0 24.08 17.369 61.871 11.708 0 0 .68-2.789.95-3.691.271-.903-34.11 7.588-62.64-10.821l-.184 2.804"/></g></svg>