<svg xmlns="http://www.w3.org/2000/svg" viewBox="0 0 64 64" enable-background="new 0 0 64 64"><g transform="translate(4.712)"><g fill="#f79423"><path d="m11.03 3.768c3.782-1.228 14.508 3.125 15.882 4.691 1.365 1.558-7.546 2.202-12.384 2.919-4.992.751-9.971 1.648-11.332.077-1.36-1.549 4.057-6.451 7.834-7.687"/><path d="m37.06 1.038c4.322-1.262 15.912 3.928 17.312 5.696 1.386 1.79-8.58 2.236-14.02 2.893-5.631.674-11.271 1.52-12.658-.262-1.396-1.768 5.059-7.078 9.369-8.327"/><path d="m11.692 8.207c2.597-1.708 13.774.039 15.658 1.112 1.902 1.064-5.305 3.219-9.05 4.691-3.851 1.523-7.624 3.193-9.521 2.103-1.909-1.06.327-6.181 2.915-7.906"/><path d="m22.17.09c3.781.339 7.76 6.953 7.391 8.52-.356 1.558-7.348-.85-11.465-1.901-4.24-1.078-8.614-2.031-8.236-3.589.365-1.575 8.52-3.365 12.31-3.03"/><path d="m35.12 7.485c3.795.326 7.77 6.945 7.4 8.507-.369 1.567-7.357-.846-11.474-1.893-4.228-1.073-8.615-2.039-8.237-3.601.358-1.562 8.53-3.343 12.311-3.01"/><path d="m0 51.636c0 9.431 13.478 12.178 27.896 12.178 14.417 0 27.9-2.747 27.9-12.178 0-9.413-13.482-37.532-27.9-37.532-14.418 0-27.896 28.12-27.896 37.532"/></g><path d="m36.549 15.263c0 1.974-1.597 3.571-3.571 3.571h-10.165c-1.97 0-3.571-1.597-3.571-3.571 0-1.97 1.601-3.571 3.571-3.571h10.164c1.975 0 3.572 1.601 3.572 3.571" fill="#845939"/><g fill="#25333a"><path d="m34.476 40.966c-1.107-1.181-2.635-1.971-4.086-2.627-1.511-.688-3.7-1.249-4.662-2.73-.807-1.24.305-2.541 1.438-2.919 1.824-.613 4.074.125 5.675 1.026.798.446 1.64.009 1.944-.79.335-.884.67-1.769 1-2.652.202-.537-.124-1.224-.604-1.494-1.455-.807-2.971-1.249-4.572-1.459 0-.901 0-1.803 0-2.704 0-.721-.601-1.322-1.322-1.322-.833 0-1.661 0-2.494 0-.717 0-1.322.601-1.322 1.322 0 1.01 0 2.01 0 3.02-2.468.712-4.717 2.301-5.593 4.825-.974 2.794-.382 5.687 1.691 7.803 1.112 1.138 2.614 1.885 4.04 2.532 1.609.726 3.588 1.249 4.627 2.799 1.112 1.657-.326 3.292-1.88 3.761-2.086.626-4.614-.313-6.366-1.404-.768-.48-1.661.013-1.94.79-.322.897-.644 1.794-.966 2.691-.206.575.137 1.185.609 1.493 1.653 1.082 3.55 1.618 5.494 1.842 0 .948 0 1.897 0 2.846 0 .387.142.683.352.893.013.014.026.026.034.039.013.013.026.025.039.034.21.215.506.356.893.356.85 0 1.691 0 2.537 0 .721 0 1.318-.601 1.318-1.322 0-1.047 0-2.095 0-3.142 2.743-.79 4.863-2.562 5.932-5.314 1.096-2.807.164-6.074-1.823-8.194"/><path d="m34.476 39.14c-1.107-1.176-2.635-1.966-4.086-2.622-1.511-.688-3.7-1.249-4.662-2.734-.807-1.232.305-2.537 1.438-2.919 1.824-.609 4.074.125 5.675 1.026.798.451 1.64.008 1.944-.79.335-.884.67-1.764 1-2.648.202-.541-.124-1.228-.604-1.494-1.455-.811-2.971-1.249-4.572-1.463 0-.897 0-1.803 0-2.704 0-.717-.601-1.318-1.322-1.318-.833 0-1.661 0-2.494 0-.717 0-1.322.601-1.322 1.318 0 1.01 0 2.02 0 3.02-2.468.713-4.717 2.305-5.593 4.829-.974 2.794-.382 5.687 1.691 7.799 1.112 1.138 2.614 1.889 4.04 2.532 1.609.726 3.588 1.249 4.627 2.799 1.112 1.656-.326 3.292-1.88 3.764-2.086.627-4.614-.312-6.366-1.407-.768-.477-1.661.017-1.94.79-.322.901-.644 1.798-.966 2.695-.206.57.137 1.185.609 1.493 1.653 1.078 3.55 1.618 5.494 1.842 0 .948 0 1.893 0 2.846 0 .382.142.679.352.893.013.014.026.026.034.039.013.009.026.021.039.034.21.21.506.352.893.352.85 0 1.691 0 2.537 0 .721 0 1.318-.601 1.318-1.317 0-1.052 0-2.099 0-3.146 2.743-.789 4.863-2.558 5.932-5.313 1.096-2.806.164-6.077-1.823-8.197"/></g></g></svg>