<svg xmlns="http://www.w3.org/2000/svg" viewBox="0 0 64 64" enable-background="new 0 0 64 64"><g transform="translate(16)"><g fill="#243438"><path d="m2.354 63.39c1.554.746 3.037.886 3.314.308l15.972-33.1c.277-.577-.753-1.654-2.31-2.405-1.551-.747-3.041-.889-3.316-.308l-15.969 33.09c-.277.577.758 1.658 2.309 2.408"/><path d="m1.271 21.704c0 11.996 9.724 21.704 21.706 21.704 11.984 0 21.706-9.708 21.706-21.704 0-11.996-9.722-21.704-21.706-21.704-11.982 0-21.706 9.708-21.706 21.704"/></g><path d="m3.476 21.704c0 10.772 8.737 19.497 19.5 19.497 10.766 0 19.498-8.725 19.498-19.497 0-10.776-8.732-19.496-19.498-19.496-10.763 0-19.5 8.719-19.5 19.496" fill="#30434a"/><path d="m5.62 21.704c0 9.588 7.773 17.355 17.357 17.355 9.58 0 17.355-7.767 17.355-17.355 0-9.59-7.775-17.355-17.355-17.355-9.584 0-17.357 7.764-17.357 17.355" fill="#1e75bb"/><g><circle cx="22.977" cy="21.704" r="15.214" fill="#57c6e9"/><path d="m31.34 8.961c4.125 2.713 6.855 7.392 6.855 12.709 0 8.4-6.811 15.214-15.214 15.214-.148 0-.297-.021-.445-.024 14.924-7.397 11.238-22.756 8.804-27.899" fill="#27a8e0"/></g></g></svg>