<svg xmlns="http://www.w3.org/2000/svg" viewBox="0 0 64 64" enable-background="new 0 0 64 64"><g fill="#5fa6c9"><path d="m3.781 39.25c-4.506-9.104-.146-19.503 9.505-22.664 1.051-.35 2.166.603 1.704 1.714-1.144 2.72-2.208 2.024-4.578 4.02-4.418 3.707-5.652 9.03-3.553 14.364.014.029.008.056.016.085.053.138.08.275.077.433 0 .095-.035.175-.051.26-.016.074-.01.144-.045.229-.215.517-.44 1.048-.655 1.57-.461 1.106-1.931.979-2.42-.011"/><path d="m33.06 3.02c-3.985 9.5-7.968 18.997-11.951 28.494-3.98 9.49-7.969 19-11.946 28.492-.735 1.752.106 3.415 1.491 2.97 15.03-4.869 30.06-9.726 45.08-14.587 1.369-.451 2.316-2.704 1.674-3.988-7.06-14.13-14.13-28.25-21.19-42.38-.651-1.324-2.425-.753-3.161.998"/></g><path fill="#66b1de" d="m33.34 2.342c-3.369 8.04-6.739 16.08-10.118 24.12-3.365 8.03-6.74 16.08-10.11 24.11-.621 1.483.095 2.893 1.268 2.516 12.724-4.121 25.448-8.227 38.16-12.351 1.159-.382 1.958-2.287 1.417-3.372-5.971-11.96-11.96-23.915-17.941-35.882-.549-1.11-2.054-.633-2.681.851"/><g fill="#2b7f99"><path d="m62.37 34.12c-1.571-.658-3.14-1.318-4.708-1.977-2.743-1.149-5.482-2.298-8.226-3.45-.059-.021-.12 0-.176.045 0 0 0 0-.005.005l-.016.003c-.056.05-.117.122-.159.233-1.322 3.145-2.641 6.292-3.96 9.437-2.075 4.948-4.145 9.887-6.225 14.836-.08.204-.059.408.05.454 1.571.658 3.14 1.313 4.708 1.974 2.741 1.152 5.484 2.298 8.226 3.45.109.048.269-.085.355-.284 1.316-3.147 2.638-6.289 3.957-9.438 2.078-4.949 4.147-9.893 6.223-14.839.086-.205.067-.406-.044-.449"/><path d="m35.803.097c-3.239-1.359-11.82 11.755-19.17 29.29-7.356 17.53-10.691 32.842-7.454 34.2 3.235 1.356 11.822-11.761 19.17-29.29 7.353-17.532 10.692-32.846 7.455-34.2"/></g><path fill="#5fa6c9" d="m33.834 4.783c-2.27-.95-9.227 10.479-15.543 25.538-6.308 15.05-9.59 28.03-7.321 28.978 2.269.955 9.227-10.479 15.545-25.533 6.307-15.06 9.589-28.03 7.319-28.983"/><path fill="#72c1e8" d="m23.15 24.887c2.707 1.133 3.704 4.898 2.229 8.414-1.476 3.521-4.87 5.456-7.568 4.323s-3.688-4.904-2.21-8.423c1.469-3.518 4.85-5.445 7.549-4.314"/></svg>