<svg xmlns="http://www.w3.org/2000/svg" viewBox="0 0 64 64" enable-background="new 0 0 64 64"><path fill="#25333a" d="m54.45 0c-8.842 0-17.687 0-26.532 0-5.624 0-11.25 0-16.876 0-.357 0-.655.44-.655.962 0 13.13 0 26.26 0 39.38 0 7.511 0 15.03 0 22.535 0 .525.298.966.655.966 8.844 0 17.688 0 26.534 0 5.624 0 11.25 0 16.874 0 .196 0 .344-.107.445-.257.008-.013.012-.019.017-.026.01-.009.016-.021.019-.027.107-.155.174-.374.174-.655 0-13.12 0-26.25 0-39.38 0-7.509 0-15.02 0-22.535-.001-.523-.298-.963-.655-.963"/><path fill="#3f565f" d="m52.845 25.931c-8.219 0-16.439 0-24.654 0-5.229 0-10.455 0-15.685 0-.329 0-.608.261-.608.57 0 7.798 0 15.588 0 23.387 0 4.459 0 8.922 0 13.387 0 .307.279.569.608.569 8.221 0 16.439 0 24.657 0 5.228 0 10.454 0 15.683 0 .18 0 .316-.066.414-.157.006-.002.01-.009.01-.009.009-.01.017-.016.022-.019.098-.091.162-.223.162-.385 0-7.798 0-15.597 0-23.388 0-4.465 0-8.924 0-13.386-.001-.309-.28-.569-.609-.569"/><g fill="#799999"><path d="m22.659 28.3c-1.38 0-2.763 0-4.145 0-.876 0-1.757 0-2.634 0-.057 0-.104.044-.104.096 0 1.309 0 2.619 0 3.932 0 .75 0 1.499 0 2.249 0 .052.046.097.104.097 1.38 0 2.761 0 4.143 0 .878 0 1.757 0 2.635 0 .031 0 .055-.011.07-.026l.001-.002c.002-.001.004-.001.004-.001.017-.017.028-.039.028-.067 0-1.309 0-2.62 0-3.932 0-.749 0-1.498 0-2.249.001-.053-.047-.097-.102-.097"/><path d="m31.21 28.3c-1.381 0-2.763 0-4.145 0-.878 0-1.757 0-2.635 0-.055 0-.102.044-.102.096 0 1.309 0 2.619 0 3.932 0 .75 0 1.499 0 2.249 0 .052.046.097.102.097 1.381 0 2.763 0 4.145 0 .878 0 1.757 0 2.635 0 .032 0 .056-.011.07-.026l.002-.002c.002-.001.004-.001.004-.001.017-.017.028-.039.028-.067 0-1.309 0-2.62 0-3.932 0-.749 0-1.498 0-2.249 0-.053-.048-.097-.104-.097"/><path d="m39.586 28.24c-1.379 0-2.763 0-4.143 0-.878 0-1.757 0-2.635 0-.056 0-.104.044-.104.097 0 1.309 0 2.619 0 3.932 0 .749 0 1.498 0 2.249 0 .052.048.096.104.096 1.379 0 2.761 0 4.145 0 .878 0 1.757 0 2.633 0 .032 0 .056-.011.07-.025l.004-.002.002-.002c.017-.017.027-.039.027-.066 0-1.31 0-2.621 0-3.932 0-.749 0-1.498 0-2.249 0-.053-.045-.098-.103-.098"/><path d="m47.99 28.24c-1.38 0-2.764 0-4.143 0-.879 0-1.757 0-2.636 0-.056 0-.104.044-.104.097 0 1.309 0 2.619 0 3.932 0 .749 0 1.498 0 2.249 0 .052.048.096.104.096 1.38 0 2.761 0 4.145 0 .879 0 1.757 0 2.634 0 .031 0 .056-.011.07-.025l.004-.002.002-.002c.016-.017.027-.039.027-.066 0-1.31 0-2.621 0-3.932 0-.749 0-1.498 0-2.249.001-.053-.045-.098-.103-.098"/><path d="m22.659 37.416c-1.38 0-2.763 0-4.145 0-.876 0-1.757 0-2.634 0-.057 0-.104.044-.104.096 0 1.31 0 2.619 0 3.932 0 .749 0 1.498 0 2.249 0 .052.046.097.104.097 1.38 0 2.761 0 4.143 0 .878 0 1.757 0 2.635 0 .031 0 .055-.012.07-.026l.001-.002c.002-.002.004-.002.004-.002.017-.017.028-.038.028-.066 0-1.31 0-2.62 0-3.932 0-.749 0-1.498 0-2.249.001-.053-.047-.097-.102-.097"/><path d="m31.21 37.416c-1.381 0-2.763 0-4.145 0-.878 0-1.757 0-2.635 0-.055 0-.102.044-.102.096 0 1.31 0 2.619 0 3.932 0 .749 0 1.498 0 2.249 0 .052.046.097.102.097 1.381 0 2.763 0 4.145 0 .878 0 1.757 0 2.635 0 .032 0 .056-.012.07-.026l.002-.002c.002-.002.004-.002.004-.002.017-.017.028-.038.028-.066 0-1.31 0-2.62 0-3.932 0-.749 0-1.498 0-2.249 0-.053-.048-.097-.104-.097"/><path d="m39.586 37.416c-1.379 0-2.763 0-4.143 0-.878 0-1.757 0-2.635 0-.056 0-.104.044-.104.096 0 1.31 0 2.619 0 3.932 0 .749 0 1.498 0 2.249 0 .052.048.097.104.097 1.379 0 2.761 0 4.145 0 .878 0 1.757 0 2.633 0 .032 0 .056-.012.07-.026l.004-.002.002-.002c.017-.017.027-.038.027-.066 0-1.31 0-2.62 0-3.932 0-.749 0-1.498 0-2.249 0-.053-.045-.097-.103-.097"/><path d="m47.99 37.416c-1.38 0-2.764 0-4.143 0-.879 0-1.757 0-2.636 0-.056 0-.104.044-.104.096 0 1.31 0 2.619 0 3.932 0 .749 0 1.498 0 2.249 0 .052.048.097.104.097 1.38 0 2.761 0 4.145 0 .879 0 1.757 0 2.634 0 .031 0 .056-.012.07-.026l.004-.002.002-.002c.016-.017.027-.038.027-.066 0-1.31 0-2.62 0-3.932 0-.749 0-1.498 0-2.249.001-.053-.045-.097-.103-.097"/><path d="m22.659 46.12c-1.38 0-2.763 0-4.145 0-.876 0-1.757 0-2.634 0-.057 0-.104.044-.104.096 0 1.31 0 2.619 0 3.933 0 .749 0 1.498 0 2.249 0 .052.046.096.104.096 1.38 0 2.761 0 4.143 0 .878 0 1.757 0 2.635 0 .031 0 .055-.011.07-.025l.001-.002c.002-.002.004-.002.004-.002.017-.017.028-.039.028-.066 0-1.31 0-2.621 0-3.933 0-.749 0-1.498 0-2.249.001-.053-.047-.097-.102-.097"/><path d="m31.21 46.12c-1.381 0-2.763 0-4.145 0-.878 0-1.757 0-2.635 0-.055 0-.102.044-.102.096 0 1.31 0 2.619 0 3.933 0 .749 0 1.498 0 2.249 0 .052.046.096.102.096 1.381 0 2.763 0 4.145 0 .878 0 1.757 0 2.635 0 .032 0 .056-.011.07-.025l.002-.002c.002-.002.004-.002.004-.002.017-.017.028-.039.028-.066 0-1.31 0-2.621 0-3.933 0-.749 0-1.498 0-2.249 0-.053-.048-.097-.104-.097"/><path d="m39.586 46.12c-1.379 0-2.763 0-4.143 0-.878 0-1.757 0-2.635 0-.056 0-.104.044-.104.096 0 1.31 0 2.619 0 3.933 0 .749 0 1.498 0 2.249 0 .052.048.096.104.096 1.379 0 2.761 0 4.145 0 .878 0 1.757 0 2.633 0 .032 0 .056-.011.07-.025l.004-.002c0-.002.002-.002.002-.002.017-.017.027-.039.027-.066 0-1.31 0-2.621 0-3.933 0-.749 0-1.498 0-2.249 0-.053-.045-.097-.103-.097"/><path d="m47.99 46.12c-1.38 0-2.764 0-4.143 0-.879 0-1.757 0-2.636 0-.056 0-.104.044-.104.096 0 1.31 0 2.619 0 3.933 0 .749 0 1.498 0 2.249 0 .052.048.096.104.096 1.38 0 2.761 0 4.145 0 .879 0 1.757 0 2.634 0 .031 0 .056-.011.07-.025l.004-.002c0-.002.002-.002.002-.002.016-.017.027-.039.027-.066 0-1.31 0-2.621 0-3.933 0-.749 0-1.498 0-2.249.001-.053-.045-.097-.103-.097"/><path d="m22.659 54.638c-1.38 0-2.763 0-4.145 0-.876 0-1.757 0-2.634 0-.057 0-.104.044-.104.096 0 1.31 0 2.619 0 3.932 0 .749 0 1.498 0 2.249 0 .052.046.097.104.097 1.38 0 2.761 0 4.143 0 .878 0 1.757 0 2.635 0 .031 0 .055-.012.07-.026l.001-.002c.002-.002.004-.002.004-.002.017-.017.028-.038.028-.066 0-1.31 0-2.62 0-3.932 0-.749 0-1.498 0-2.249.001-.053-.047-.097-.102-.097"/><path d="m31.21 54.638c-1.381 0-2.763 0-4.145 0-.878 0-1.757 0-2.635 0-.055 0-.102.044-.102.096 0 1.31 0 2.619 0 3.932 0 .749 0 1.498 0 2.249 0 .052.046.097.102.097 1.381 0 2.763 0 4.145 0 .878 0 1.757 0 2.635 0 .032 0 .056-.012.07-.026l.002-.002c.002-.002.004-.002.004-.002.017-.017.028-.038.028-.066 0-1.31 0-2.62 0-3.932 0-.749 0-1.498 0-2.249 0-.053-.048-.097-.104-.097"/><path d="m39.586 54.638c-1.379 0-2.763 0-4.143 0-.878 0-1.757 0-2.635 0-.056 0-.104.044-.104.096 0 1.31 0 2.619 0 3.932 0 .749 0 1.498 0 2.249 0 .052.048.097.104.097 1.379 0 2.761 0 4.145 0 .878 0 1.757 0 2.633 0 .032 0 .056-.012.07-.026l.004-.002c0-.002.002-.002.002-.002.017-.017.027-.038.027-.066 0-1.31 0-2.62 0-3.932 0-.749 0-1.498 0-2.249 0-.053-.045-.097-.103-.097"/></g><path fill="#ee4237" d="m47.99 54.638c-1.38 0-2.764 0-4.143 0-.879 0-1.757 0-2.636 0-.056 0-.104.044-.104.096 0 1.31 0 2.619 0 3.932 0 .749 0 1.498 0 2.249 0 .052.048.097.104.097 1.38 0 2.761 0 4.145 0 .879 0 1.757 0 2.634 0 .031 0 .056-.012.07-.026l.004-.002c0-.002.002-.002.002-.002.016-.017.027-.038.027-.066 0-1.31 0-2.62 0-3.932 0-.749 0-1.498 0-2.249.001-.053-.045-.097-.103-.097"/><path fill="#5f9999" d="m50.765 6.347c-7.372 0-14.744 0-22.11 0-4.688 0-9.376 0-14.07 0-.294 0-.545.102-.545.22 0 3.02 0 6.04 0 9.05 0 1.728 0 3.453 0 5.182 0 .117.251.22.545.22 7.374 0 14.744 0 22.11 0 4.688 0 9.375 0 14.06 0 .16 0 .282-.026.369-.061.006 0 .01-.004.01-.004.009-.003.015-.005.021-.005.087-.035.146-.087.146-.15 0-3.02 0-6.04 0-9.05 0-1.728 0-3.455 0-5.182-.001-.118-.252-.22-.546-.22"/></svg>