<svg xmlns="http://www.w3.org/2000/svg" viewBox="0 0 64 64" enable-background="new 0 0 64 64"><path fill="#25333a" d="m62.823 63.13c-12.617 0-25.24 0-37.86 0-8.03 0-16.05 0-24.08 0-.51 0-.934-.428-.934-.937 0-12.774 0-25.547 0-38.32 0-7.308 0-14.62 0-21.928 0-.51.424-.938.934-.938 12.622 0 25.24 0 37.862 0 8.03 0 16.06 0 24.08 0 .279 0 .49.104.637.25.011.011.015.018.021.024.014.009.022.02.027.027.152.151.248.364.248.637 0 12.772 0 25.547 0 38.32 0 7.306 0 14.616 0 21.926.001.509-.425.937-.933.937"/><path fill="#3f565f" d="m60.53 63.13c-11.728 0-23.457 0-35.18 0-7.458 0-14.917 0-22.381 0-.47 0-.867-.41-.867-.903 0-12.372 0-24.759 0-37.14 0-7.084 0-14.168 0-21.243 0-.499.397-.905.867-.905 11.73 0 23.459 0 35.19 0 7.461 0 14.918 0 22.379 0 .257 0 .452.102.592.237.009.007.014.011.016.018.012.021.022.024.029.031.14.14.232.349.232.619 0 12.371 0 24.744 0 37.13 0 7.088 0 14.166 0 21.249 0 .493-.399.903-.869.903"/><path fill="#e7e6e6" d="m50.871 63.13c-7.749 0-15.499 0-23.25 0-4.93 0-9.859 0-14.789 0-.315 0-.577-.155-.577-.337 0-4.612 0-9.223 0-13.838 0-2.635 0-5.277 0-7.915 0-.185.262-.338.577-.338 7.75 0 15.499 0 23.25 0 4.933 0 9.859 0 14.789 0 .171 0 .302.036.391.091 0 0 .011.005.016.01 0 0 .011.004.016.011.093.051.155.129.155.227 0 4.612 0 9.223 0 13.835 0 2.638 0 5.277 0 7.918-.001.181-.262.336-.578.336"/><path fill="#25333a" d="m44.21 59.803c-2.172 0-4.346 0-6.518 0-1.38 0-2.763 0-4.145 0-.089 0-.164-.108-.164-.237 0-3.244 0-6.491 0-9.737 0-1.854 0-3.712 0-5.568 0-.127.075-.238.164-.238 2.172 0 4.349 0 6.519 0 1.38 0 2.766 0 4.144 0 .049 0 .085.025.113.064 0 0 0 0 .002.005l.005.009c.026.038.047.091.047.16 0 3.243 0 6.489 0 9.734 0 1.853 0 3.714 0 5.571 0 .128-.078.237-.167.237"/><circle fill="#e7e6e6" cx="31.852" cy="27.502" r="9.793"/><circle fill="#25333a" cx="31.75" cy="27.5" r="3.531"/></svg>