<svg xmlns="http://www.w3.org/2000/svg" enable-background="new 0 0 64 64" viewBox="0 0 64 64"><path d="M63.957,31.98c0,17.662-14.314,31.979-31.979,31.979S0,49.643,0,31.98C0,14.316,14.314,0,31.979,0     S63.957,14.316,63.957,31.98z" fill="#fbbf67"/><g fill="#633d19"><path d="m10.76 25.309c1.927-4.28 5.152-5.953 9.351-6.484 2.251-.286 2.631.294 4.414-.63.733-.375.425-1.086-.357-1.197-7.197-1.043-14.03 2.486-14.887 7.69-.099.568.385 1.711 1.479.621"/><path d="m9.936 26.774c-.466 0-.895-.203-1.205-.573-.374-.444-.549-1.106-.446-1.687.817-4.961 6.559-8.711 13.349-8.711.893 0 1.793.065 2.678.193.848.121 1.499.688 1.62 1.412.091.535-.11 1.258-.946 1.687-1.069.553-1.776.666-2.567.666l-.909-.014c-.348 0-.754.016-1.27.081-4.388.555-6.946 2.318-8.558 5.895l-.209.302c-.498.496-1.015.749-1.537.749m3.786-6.742c-1.071.711-1.943 1.568-2.552 2.528.723-1 1.568-1.843 2.552-2.528"/><path d="m52.48 25.309c-1.928-4.28-5.152-5.953-9.352-6.484-2.251-.286-2.631.294-4.414-.63-.732-.375-.425-1.086.357-1.197 7.197-1.043 14.03 2.486 14.888 7.69.099.568-.386 1.711-1.479.621"/><path d="m53.3 26.774c-.521 0-1.038-.253-1.536-.749l-.209-.302c-1.612-3.577-4.17-5.34-8.556-5.895-.518-.065-.925-.081-1.272-.081l-.908.014c-.792 0-1.499-.112-2.573-.667-.829-.426-1.031-1.149-.94-1.685.121-.725.772-1.292 1.622-1.412.883-.128 1.783-.193 2.676-.193 6.79 0 12.531 3.75 13.351 8.721.101.571-.075 1.232-.448 1.677-.313.369-.74.572-1.207.572m-3.36-6.428c.664.515 1.261 1.108 1.796 1.779-.482-.653-1.089-1.25-1.796-1.779"/><path d="m23.496 48.34c.225 0 4.333 1.578 8.482 1.578 3.703 0 7.441-1.578 8.479-1.578.9 0 1.236 1.045.691 1.669-4.961 5.726-13.378 5.726-18.344 0-.54-.624-.204-1.669.692-1.669"/><path d="m53.815 31.04c-.234 0-4.526 1.394-8.859 1.394-3.869 0-7.775-1.394-8.857-1.394-.942 0-1.292.922-.724 1.475 5.183 5.056 13.978 5.056 19.16 0 .566-.552.216-1.475-.723-1.475"/><path d="m27.813 31.04c-.235 0-4.527 1.394-8.86 1.394-3.869 0-7.775-1.394-8.857-1.394-.942 0-1.292.922-.723 1.475 5.183 5.056 13.977 5.056 19.16 0 .565-.552.215-1.475-.723-1.475"/></g></svg>