<svg xmlns="http://www.w3.org/2000/svg" enable-background="new 0 0 64 64" viewBox="0 0 64 64"><circle r="31.812" cy="31.814" cx="31.812" fill="#fbbf67"/><g fill="#633c17"><path d="m44.909 48.47c0 1.169-1.674 2.117-3.743 2.117h-18.709c-2.069 0-3.743-.948-3.743-2.117 0-1.17 1.674-2.12 3.743-2.12h18.709c2.069 0 3.743.95 3.743 2.12"/><path d="m25.541 27.29c0 1.169-1.171 2.12-2.621 2.12h-13.1c-1.448 0-2.621-.951-2.621-2.12 0-1.169 1.173-2.118 2.621-2.118h13.1c1.45 0 2.621.949 2.621 2.118"/><path d="m55.778 27.29c0 1.169-1.171 2.12-2.621 2.12h-13.1c-1.448 0-2.621-.951-2.621-2.12 0-1.169 1.173-2.118 2.621-2.118h13.1c1.449 0 2.62.949 2.62 2.118"/></g></svg>