<svg xmlns="http://www.w3.org/2000/svg" enable-background="new 0 0 64 64" viewBox="0 0 64 64"><path d="M63.614,31.811c0,17.566-14.239,31.809-31.809,31.809C14.235,63.62,0,49.377,0,31.811     C0,14.241,14.235,0,31.805,0C49.375,0,63.614,14.241,63.614,31.811z" fill="#fbbf67"/><path d="m45.729 45.45c-.62-1.451-1.949-2.19-3.949-2.19-1.56 0-3.252.45-4.49.776l-.723.187c-.318.078-1.969 1.01-1.859 1.904l.193.722h.668c.109 0 .228-.016.365-.049l.602-.15c1.355-.341 2.632-.66 3.964-.662.781 0 1.454.302 1.988.899.439.483.369.771.35.864-.122.49-.884 1.078-1.909 1.468-.017.006-1.584.651-1.654 1.565l.051.62.416.236c2.311 1.324 2.264 2.181 1.965 2.781-.33.656-1.269.799-2 .799-1.01 0-2.109-.272-2.75-.539l-.425-.081c-.803 0-2.095.966-2.236 1.666l-.07.708.569.238c.986.415 2.035.624 3.116.624 1.886 0 3.811-.659 5.414-1.855 1.422-1.062 1.701-2.17 1.689-2.913-.02-.934-.503-1.872-1.383-2.714 2.216-1.326 2.924-2.968 2.098-4.904" fill="#633d19"/><ellipse ry="9.684" rx="6.465" cy="28.33" cx="23.287" fill="#fff"/><ellipse ry="5.072" rx="4.184" cy="28.33" cx="23.289" fill="#25333a"/><ellipse ry="9.684" rx="6.465" cy="28.33" cx="45.16" fill="#fff"/><ellipse ry="5.072" rx="4.184" cy="28.33" cx="45.17" fill="#25333a"/></svg>