<svg xmlns="http://www.w3.org/2000/svg" enable-background="new 0 0 64 64" viewBox="0 0 64 64"><path d="m63.839 31.999c0 17.676-14.287 32-31.92 32-17.63 0-31.919-14.325-31.919-32 0-17.673 14.289-31.999 31.919-31.999 17.633 0 31.92 14.326 31.92 31.999" fill="#fbbf67"/><g fill="#633d19"><path d="m23.22 15.486c-5.525 1.13-11.205 2.763-14.523 7.693-1.236 1.835 1.524 3.871 2.76 2.035 2.809-4.172 7.668-5.389 12.323-6.337 2.159-.439 1.612-3.835-.56-3.391"/><path d="m43.489 13.769c5.525 1.128 11.206 2.76 14.522 7.693 1.236 1.834-1.524 3.872-2.76 2.036-2.809-4.173-7.668-5.387-12.322-6.337-2.158-.443-1.613-3.835.56-3.392"/><path d="m41.32 51.583c-.224 0-4.325-1.577-8.464-1.577-3.698 0-7.428 1.577-8.465 1.577-.899 0-1.234-1.044-.689-1.668 4.951-5.731 13.354-5.731 18.309 0 .541.624.205 1.668-.691 1.668"/></g><g fill="#fff"><path d="m35.25 29.406c.485 5.271 4.857 9.414 10.243 9.414 5.387 0 9.758-4.143 10.243-9.414h-20.486"/><path d="m9.02 29.406c.487 5.271 4.859 9.414 10.245 9.414s9.758-4.143 10.245-9.414h-20.49"/></g><g fill="#25333a"><path d="m18.1 29.378c.272 2.937 2.706 5.24 5.704 5.24 2.999 0 5.431-2.304 5.703-5.24h-11.407"/><path d="m44.33 29.378c.272 2.937 2.705 5.24 5.703 5.24 2.999 0 5.431-2.304 5.703-5.24h-11.406"/></g></svg>