<svg xmlns="http://www.w3.org/2000/svg" enable-background="new 0 0 64 64" viewBox="0 0 64 64"><path d="M63.958,31.98c0,17.665-14.313,31.979-31.979,31.979C14.315,63.959,0,49.645,0,31.98    C0,14.315,14.315,0,31.979,0C49.645,0,63.958,14.315,63.958,31.98z" fill="#fbbf67"/><g fill="#25333a"><ellipse ry="5.099" rx="4.205" cy="25.305" cx="42.859"/><path d="m25.07 25.305c0 2.816-1.882 5.099-4.203 5.099-2.327 0-4.21-2.283-4.21-5.099 0-2.817 1.884-5.101 4.21-5.101 2.321 0 4.203 2.283 4.203 5.101"/></g><path d="m42.794 54.57c-.288 0-5.524-1.672-10.815-1.672-4.72 0-9.488 1.672-10.809 1.672-1.149 0-1.576-2.174-.881-3.473 6.324-11.914 17.06-11.914 23.389 0 .685 1.299.26 3.473-.884 3.473" fill="#633d19"/><g fill="#fff"><ellipse ry="9.732" rx="6.5" cy="25.305" cx="20.984"/><ellipse ry="9.732" rx="6.5" cy="25.305" cx="42.979"/></g><g fill="#25333a"><ellipse ry="5.099" rx="4.205" cy="25.305" cx="20.984"/><path d="m47.18 25.305c0 2.816-1.881 5.099-4.205 5.099s-4.205-2.283-4.205-5.099c0-2.817 1.881-5.101 4.205-5.101s4.205 2.283 4.205 5.101"/></g><g fill="#633d19"><path d="m22.821 3.772c-3.918 4.179-8.318 7.386-13.604 9.626-1.205.511-.272 2.307.92 1.801 5.439-2.305 10-5.621 14.03-9.922.888-.944-.459-2.453-1.35-1.505"/><path d="m9.719 16.05c-.845 0-1.611-.648-1.785-1.507-.162-.796.225-1.519.987-1.841 5.01-2.123 9.377-5.214 13.347-9.446.828-.881 2.314-.531 2.796.581.292.675.162 1.426-.339 1.961-4.234 4.517-8.907 7.819-14.291 10.1-.233.099-.474.15-.715.15m13.738-11.819c-4.201 4.452-8.733 7.659-13.943 9.867-.083.352.11.498.328.405 5.187-2.198 9.691-5.386 13.777-9.743.04-.043.132-.142.056-.32-.06-.135-.175-.209-.218-.209"/><path d="m42.654 3.772c3.918 4.179 8.318 7.386 13.604 9.626 1.204.511.271 2.307-.921 1.801-5.438-2.305-10-5.621-14.03-9.922-.887-.944.461-2.453 1.351-1.505"/><path d="m55.756 16.05c-.24 0-.48-.051-.715-.15-5.384-2.283-10.06-5.585-14.291-10.1-.502-.535-.632-1.286-.34-1.961.482-1.112 1.967-1.463 2.797-.581 3.971 4.232 8.334 7.323 13.348 9.446.762.322 1.148 1.045.986 1.841-.174.859-.939 1.507-1.785 1.507m-13.746-11.779c-.089 0-.166.067-.209.17-.076.178.016.276.055.32 4.088 4.357 8.592 7.544 13.778 9.743l.122.029c.143 0 .271-.154.301-.292-5.306-2.35-9.838-5.558-13.955-9.948-.034-.014-.062-.022-.092-.022"/></g></svg>