<svg xmlns="http://www.w3.org/2000/svg" viewBox="0 0 64 64" enable-background="new 0 0 64 64"><path fill="#ec1c24" d="m12.983 42.3c13.405-5.953 26.807-11.905 40.21-17.857 2.607-1.158 2.607-4.183 0-5.341-13.405-5.952-26.807-11.904-40.21-17.856-2.637-1.171-6.05.317-6.05 2.671 0 5.951 0 11.904 0 17.855 0 5.951 0 11.904 0 17.855 0 2.357 3.413 3.844 6.05 2.673"/><path fill="#f28f20" d="m12.926 62.02c0 .914-1.547 1.655-3.465 1.655-1.907 0-3.461-.741-3.461-1.655v-60.34c0-.923 1.554-1.671 3.461-1.671 1.918 0 3.465.748 3.465 1.671v60.34"/><path fill="#c37029" d="m9.461 62.02v-60.34c0-.618.713-1.148 1.739-1.439-.503-.135-1.103-.232-1.739-.232-1.907 0-3.461.748-3.461 1.671v60.34c0 .914 1.554 1.655 3.461 1.655.636 0 1.236-.079 1.739-.233-1.026-.275-1.739-.816-1.739-1.422"/></svg>