<svg xmlns="http://www.w3.org/2000/svg" enable-background="new 0 0 64 64" viewBox="0 0 64 64"><path d="M63.873,56.802c0,3.794-3.07,6.868-6.862,6.868H7.067c-3.788,0-6.86-3.074-6.86-6.868V6.864    C0.207,3.074,3.279,0,7.067,0h49.943c3.792,0,6.862,3.074,6.862,6.864V56.802z" fill="#1b75bb"/><path d="m16.264 40.451l-2.192-24.21 24.2 1.263c1.705 1.917 1.964 4.541.519 6.05l-2.452 2.556 11.997 11.506c2.02 1.94 2.087 5.147.15 7.166l-4.552 4.743c-1.938 2.02-5.145 2.084-7.165.146l-11.994-11.507-2.45 2.554c-1.444 1.502-4.068 1.359-6.06-.262" fill="#fff"/></svg>