<svg xmlns="http://www.w3.org/2000/svg" enable-background="new 0 0 64 64" viewBox="0 0 64 64"><path d="m64 57.1c0 3.811-3.089 6.9-6.898 6.9h-50.21c-3.806 0-6.894-3.089-6.894-6.9v-50.2c0-3.808 3.088-6.898 6.894-6.898h50.21c3.81 0 6.898 3.09 6.898 6.898v50.2" fill="#b45ecb"/><path d="m59.4 52.57l-9.205-7.564v5.05c-.237-.066-.487-.104-.744-.104 0 0-.038.002-.059.002-.136-.009-.268-.022-.396-.045-.428-.106-.807-.232-1.146-.382-3.152-1.668-3.488-7.67-3.484-10.27l.02-.002c.02-1.579.033-3.156.045-4.738.021-2.46.043-4.917.063-7.378v-.18c0-.763.004-1.222.06-1.613v-6.142c-.024.04-.052.077-.079.116.004-.13.008-.258.012-.39.017-.708.037-1.44.033-2.162v-.277c-.005-1.322-.005-2.689-.088-4.04-.041-.695-.188-1.454-.455-2.331-.433-1.42-1.41-2.595-2.91-3.49-1.479-.883-3.095-.948-4.67-.181-.473.23-.906.496-1.299.797-1.568 1.198-2.693 2.526-3.433 4.04-.183-.665-.433-1.302-.748-1.9-.559-1.061-1.22-1.865-2.03-2.461-1.186-.872-2.534-1.18-3.997-.903-.981.183-1.865.612-2.786 1.346-.704.557-1.337 1.217-1.941 2.01-.574.761-1.1 1.585-1.587 2.506 0-.008-.002-.018-.004-.023l-.061-.212c-.273-.935-.549-1.898-1.088-2.803-.689-1.143-1.619-1.933-2.782-2.35-1.418-.508-2.903-.545-4.375-.103l-.224.063c-.987.271-1.711 1.174-1.711 2.25 0 1.287 1.043 2.331 2.333 2.331.162 0 .315-.014.464-.045.553-.021.952.212 1.255.744.096.173.165.386.238.612l.051.153c.187.565.187 1.17.187 1.812v29.783c.012-.019.03-.031.03-.031.173 1.752 1.658 3.136 3.464 3.136 1.843 0 3.348-1.443 3.455-3.263 0 0 .001.004.018.004.006-1.131.012-2.262.018-3.391.012-3.062.024-6.223.067-9.333.036-2.347.122-4.859.287-8.144.067-1.354.288-2.742.651-4.124.647-2.427 1.741-4.371 3.354-5.942.34-.331.74-.62 1.163-.923.025-.018.051-.039.077-.055 0 .073 0 .148 0 .223-.006.088-.001.175-.001.264-.018 7.217-.042 14.433-.063 21.648-.008 2.225-.021 4.658-.045 7.658-.004.479-.012.964-.018 1.445-.014.121-.023.254-.023.384 0 1.962 1.587 3.549 3.546 3.549 1.9 0 3.447-1.495 3.539-3.373l.008-.004c.038-1.11.073-2.239.09-3.362.001-.972.026-1.943.034-2.915.039-3.592.083-7.306.248-10.951.094-2.107.208-3.874.476-5.64.25-1.657.674-3.124 1.289-4.483.809-1.794 1.992-3.299 3.514-4.485.002.035.002.071.002.104.001 3.35.018 6.7.022 10.05l.017 3.763c.002 1.257.002.659.002 1.914-.002 2.827 0 5.715.047 8.604.009.415.015.832.027 1.258.016.848.029 1.705.063 2.561.001.288.022.574.037.857.104 1.858.301 3.774.772 5.602.094.365.2.727.318 1.083.096.331.206.655.332.979.126.319.268.635.423.94 1.726 3.476 5.558 5.798 9.364 5.711.255-.002.505-.039.74-.106v4.823l9.206-7.567" fill="#fff"/></svg>