<svg xmlns="http://www.w3.org/2000/svg" enable-background="new 0 0 64 64" viewBox="0 0 64 64"><path d="m63.919 57.03c0 3.811-3.084 6.889-6.889 6.889h-50.14c-3.803 0-6.89-3.078-6.89-6.889v-50.14c0-3.809 3.086-6.888 6.89-6.888h50.14c3.804 0 6.888 3.079 6.888 6.888v50.14" fill="#b45ecb"/><g fill="#fff"><path d="m49.3 9.852l-38.942 38.942c-1.455 1.455-1.451 3.819.004 5.272 1.451 1.451 3.815 1.455 5.27 0l38.941-38.94c1.455-1.455 1.455-3.821.002-5.274-1.455-1.455-3.82-1.455-5.275 0"/><path d="m10.944 34.439l19.04 19.04c1.455 1.455 3.819 1.453 5.274-.002 1.452-1.453 1.454-3.816 0-5.271l-19.04-19.04c-1.455-1.455-3.821-1.455-5.272-.004-1.455 1.455-1.455 3.82 0 5.275"/><path d="m31.04 16.218h20.893c2.061-.002 3.729-1.673 3.729-3.73 0-2.054-1.669-3.727-3.728-3.727l-20.892-.002c-2.058-.002-3.732 1.675-3.732 3.729 0 2.055 1.674 3.728 3.73 3.73"/><path d="m48.2 33.378v-20.893c.002-2.06 1.673-3.729 3.73-3.727 2.053 0 3.727 1.667 3.727 3.725l.002 20.895c.002 2.056-1.674 3.729-3.729 3.729-2.055-.002-3.728-1.673-3.73-3.729"/></g></svg>