<svg xmlns="http://www.w3.org/2000/svg" viewBox="0 0 64 64" enable-background="new 0 0 64 64"><g transform="translate(1.356)"><path d="m61.725 44.42l-8.08-8.477-8.08 8.477h4.623c-3.084 6.963-8.778 11.923-15.239 13.412 0-.049.018-.097.018-.146v-23.477h7.64c1.23 0 2.228-1.132 2.228-2.526 0-1.396-.997-2.527-2.228-2.527h-7.64v-3.62c6.239-1.544 10.833-6.566 10.833-12.519 0-7.179-6.673-13.02-14.87-13.02-8.2 0-14.869 5.842-14.869 13.02 0 5.953 4.592 10.977 10.836 12.519v3.62h-7.639c-1.23 0-2.231 1.131-2.231 2.527 0 1.394 1 2.526 2.231 2.526h7.639v23.477c0 .052.016.099.016.149-6.436-1.487-12.11-6.451-15.171-13.416h4.417l-8.08-8.477-8.08 8.478h4.985c4.292 11.574 14.466 19.238 25.894 19.27h.066c11.445 0 21.676-7.674 26.01-19.27h4.773m-30.791-39.1c4.845 0 8.784 3.45 8.784 7.693 0 4.239-3.939 7.689-8.784 7.689-4.845 0-8.786-3.45-8.786-7.689 0-4.243 3.941-7.693 8.786-7.693m.011 57.921v.004-.004" fill="#1b75bb"/><g fill="#085078"><path d="m51.99 44.42h-1.799c-2.79 6.301-7.723 10.955-13.424 12.887v.38c0 .049-.016.097-.02.146 6.468-1.49 12.159-6.45 15.243-13.413"/><path d="m31.833 20.671c.292.027.592.039.899.039 4.843 0 8.782-3.45 8.782-7.689 0-4.243-3.939-7.693-8.782-7.693-.308 0-.607.016-.899.041 4.424.395 7.885 3.676 7.885 7.652 0 3.974-3.461 7.257-7.885 7.65"/><path d="m21.06 29.16h-1.795c-1.23 0-2.231 1.131-2.231 2.527 0 1.394 1 2.526 2.231 2.526h1.795c-1.232 0-2.228-1.132-2.228-2.526 0-1.396.996-2.527 2.228-2.527"/><path d="m28.698 57.69v-23.477h-1.797v23.1c.596.204 1.201.386 1.814.529-.005-.051-.017-.098-.017-.15"/><path d="m54.54 36.89l-.894-.943-8.08 8.473h1.792z"/><path d="m26.901 25.54v3.62h1.797v-3.62c-6.243-1.542-10.836-6.566-10.836-12.519 0-6.915 6.19-12.569 13.971-12.98-.3-.016-.598-.041-.899-.041-8.2 0-14.869 5.842-14.869 13.02 0 5.953 4.591 10.977 10.836 12.519"/><path d="m6.784 44.42h-1.799c4.292 11.574 14.466 19.238 25.894 19.27h.066c.296 0 .596-.027.892-.039-11.08-.394-20.866-7.945-25.05-19.231"/><path d="m0 44.42h1.799l7.183-7.53-.902-.943z"/></g></g></svg>