<svg xmlns="http://www.w3.org/2000/svg" viewBox="0 0 64 64" enable-background="new 0 0 64 64"><path fill="#d13852" d="m63.841 18.646c-.246-3.85-1.072-6.977-3.752-10.198-5.369-6.439-17.71-7.511-23.23-1.312-.963.912-1.872 2.01-2.785 3.322l-2.066 2.969-2.067-2.969c-.916-1.312-1.827-2.411-2.79-3.322-5.524-6.199-17.864-5.128-23.23 1.312-2.684 3.221-3.509 6.348-3.755 10.198-.35 11.446 7.956 20.611 8.981 21.954 5.637 6.613 11.786 12.866 18.03 18.627 1.13.989 2.106 1.812 3.082 2.628.587.479 1.166.964 1.749 1.44.582-.477 1.159-.961 1.743-1.44.98-.816 1.956-1.639 3.082-2.628 6.247-5.761 12.397-12.01 18.04-18.627 1.025-1.343 9.332-10.508 8.979-21.954"/><path fill="#f1a5b1" d="m60.39 16.604c-.018-1.051-.174-2.02-.457-2.909-.275-.882-.671-1.69-1.169-2.42-2.973-4.369-9.451-5.943-14.863-4.837-2.111.508-4.225 1.302-5.197 3.318-.331.865.365 1.281 1.44 1.228 3.894-.435 8.202-.043 11.645 1.63.858.42 1.661.918 2.395 1.503 2.47 1.913 3.537 4.887 4.02 7.837 1.201-.242 1.854-1.683 2.01-2.965.143-.793.217-1.599.177-2.385"/></svg>