<?xml version="1.0" encoding="utf-8"?>
<!-- Generator: Adobe Illustrator 18.1.1, SVG Export Plug-In . SVG Version: 6.00 Build 0)  -->
<svg version="1.1" id="Layer_1" xmlns="http://www.w3.org/2000/svg" xmlns:xlink="http://www.w3.org/1999/xlink" x="0px" y="0px"
	 width="52px" height="52px" viewBox="0 0 52 52" enable-background="new 0 0 52 52" xml:space="preserve">
<path fill="#FFFFFF" d="M26,2C12.7,2,2,12.7,2,26s10.7,24,24,24s24-10.7,24-24S39.3,2,26,2z M30.9,26.8l7.8,7.8c0.4,0.4,0.4,1,0,1.4
	l-2.8,2.8c-0.4,0.4-1,0.4-1.4,0L26.7,31c-0.4-0.4-1-0.4-1.4,0l-7.8,7.8c-0.4,0.4-1,0.4-1.4,0L13.3,36c-0.4-0.4-0.4-1,0-1.4l7.8-7.8
	c0.4-0.4,0.4-1,0-1.4l-7.9-7.9c-0.4-0.4-0.4-1,0-1.4l2.8-2.8c0.4-0.4,1-0.4,1.4,0l7.9,7.9c0.4,0.4,1,0.4,1.4,0l7.8-7.8
	c0.4-0.4,1-0.4,1.4,0l2.8,2.8c0.4,0.4,0.4,1,0,1.4l-7.8,7.8C30.6,25.8,30.6,26.4,30.9,26.8z"/>
</svg>
