<?xml version="1.0" encoding="utf-8"?>
<!-- Generator: Adobe Illustrator 18.1.1, SVG Export Plug-In . SVG Version: 6.00 Build 0)  -->
<svg version="1.1" id="Layer_1" xmlns="http://www.w3.org/2000/svg" xmlns:xlink="http://www.w3.org/1999/xlink" x="0px" y="0px"
	 width="52px" height="52px" viewBox="0 0 52 52" enable-background="new 0 0 52 52" xml:space="preserve">
<g>
	<path fill="#FFFFFF" d="M49,27h-5v22c0,0.6-0.4,1-1,1H33c-0.6,0-1-0.4-1-1V32H20v17c0,0.6-0.4,1-1,1H9c-0.6,0-1-0.4-1-1V27H3
		c-0.4,0-0.8-0.2-0.9-0.6C1.9,26,2,25.6,2.3,25.3l23-23c0.4-0.4,1.1-0.4,1.4,0l23,23c0.3,0.3,0.3,0.7,0.2,1.1S49.4,27,49,27z"/>
</g>
</svg>
