<?xml version="1.0" encoding="utf-8"?>
<!-- Generator: Adobe Illustrator 21.0.2, SVG Export Plug-In . SVG Version: 6.00 Build 0)  -->
<svg version="1.1" id="Layer_1" xmlns="http://www.w3.org/2000/svg" xmlns:xlink="http://www.w3.org/1999/xlink" x="0px" y="0px"
	 width="52px" height="52px" viewBox="0 0 52 52" enable-background="new 0 0 52 52" xml:space="preserve">
<path fill-rule="evenodd" clip-rule="evenodd" fill="#FFFFFF" d="M2.3,37.9c0,0.1,0,0.1,0,0.2c0,0.8,0.6,1.4,1.4,1.4
	c0.4,0,0.7-0.1,1-0.4c0,0,10.1-10.9,22.5-7.6v11c0,0.8,0.6,1.4,1.4,1.4c0.3,0,0.5-0.1,0.7-0.2l20.1-17.1c0.3-0.3,0.5-0.7,0.5-1.1
	c0-0.4-0.2-0.8-0.4-1L29.4,8.2C29.2,8.1,28.9,8,28.6,8c-0.8,0-1.4,0.6-1.4,1.4v10.3C27.1,19.7,7.3,16.7,2.3,37.9z"/>
</svg>
