<svg id="Layer_1" data-name="Layer 1" xmlns="http://www.w3.org/2000/svg" width="52" height="52" viewBox="0 0 52 52"><path d="M21.5,40.6,7.9,27.1a1.57,1.57,0,0,1,0-2.2L21.5,11.4a1.57,1.57,0,0,1,2.2,0l2.2,2.2a1.57,1.57,0,0,1,0,2.2l-9.4,9.1a1.57,1.57,0,0,0,0,2.2l9.3,9.1a1.57,1.57,0,0,1,0,2.2l-2.2,2.2A1.66,1.66,0,0,1,21.5,40.6Z" fill="#fff"/><path d="M39.6,40.6,25.8,27.1a1.57,1.57,0,0,1,0-2.2L39.6,11.4a1.57,1.57,0,0,1,2.2,0L44,13.6a1.57,1.57,0,0,1,0,2.2l-9.4,9.1a1.57,1.57,0,0,0,0,2.2l9.3,9.1a1.57,1.57,0,0,1,0,2.2l-2.2,2.2A1.66,1.66,0,0,1,39.6,40.6Z" fill="#fff"/></svg>