<svg id="Layer_1" data-name="Layer 1" xmlns="http://www.w3.org/2000/svg" width="52" height="52" viewBox="0 0 52 52"><path d="M6.51,12a.77.77,0,0,1,1.41.48h0v.41c0,9,7.09,16.27,15.74,16.27h.71a1.53,1.53,0,0,1,1.57,1.06h0l4.41,12.69a2.13,2.13,0,0,1-.08,1.22h0l-2.36,5.45a.77.77,0,0,1-1,.41h0l-5.35-2.52a.84.84,0,0,1-.48-1h0l.63-2.52a.82.82,0,0,0-.39-1.06h0l-1.81-.81a.9.9,0,0,1-.39-1h0l.7-2.52a.82.82,0,0,0-.39-1.06h0l-1.26-.57a.79.79,0,0,1-.39-1h0l.79-2.36a.82.82,0,0,0-.4-1.06h0l-2.36-1.06A.8.8,0,0,1,15.4,31h0l-.55-1.54a11.11,11.11,0,0,1-5.43-2.12A11.74,11.74,0,0,1,5.25,14.79,10.21,10.21,0,0,1,6.51,12Zm5.55,2.54A11.28,11.28,0,0,1,23.8,2a11.38,11.38,0,0,1,10,7.6A10.64,10.64,0,0,1,34,16.09h0l12.7,13.27a1.4,1.4,0,0,1,.48,1.2h0V36.4a.76.76,0,0,1-.8.8h-6a.78.78,0,0,1-.8-.64h0L39.21,34a.75.75,0,0,0-.79-.8h-2a.78.78,0,0,1-.8-.64h0L35.22,30a.76.76,0,0,0-.8-.8H33.07a.79.79,0,0,1-.8-.72h0L32,26a.76.76,0,0,0-.8-.8H28.51A.73.73,0,0,1,28,25h0l-1.11-1.19a11.17,11.17,0,0,1-14.78-9.28ZM21.6,7.6a4,4,0,0,0,0,8,4,4,0,0,0,4-4A4,4,0,0,0,21.6,7.6Z" fill="#fff"/></svg>