<?xml version="1.0" encoding="utf-8"?>
<!-- Generator: Adobe Illustrator 21.0.2, SVG Export Plug-In . SVG Version: 6.00 Build 0)  -->
<svg version="1.1" id="Layer_1" xmlns="http://www.w3.org/2000/svg" xmlns:xlink="http://www.w3.org/1999/xlink" x="0px" y="0px"
	 width="52px" height="52px" viewBox="0 0 52 52" enable-background="new 0 0 52 52" xml:space="preserve">
<path fill="#FFFFFF" d="M39,14.8c-6.1,0-11.2,5-11.2,11.2c0,2.2,0.7,4.3,1.8,6.1h-7.2c1.2-1.8,1.8-3.8,1.8-6.1
	c0-6.1-5-11.2-11.2-11.2c-6.1,0-11.2,5-11.2,11.2c0,6.1,5,11.2,11.2,11.2l0,0h25.9l0,0l0,0c6.1,0,11.2-5,11.2-11.2
	C50.2,19.8,45.2,14.8,39,14.8z M7.2,25.9c0-3.3,2.7-6,5.9-6c3.3,0,5.9,2.7,5.9,6s-2.7,6-5.9,6S7.2,29.3,7.2,25.9z M39,32
	c-3.3,0-5.9-2.7-5.9-6s2.7-6,5.9-6c3.3,0,5.9,2.7,5.9,6C45,29.3,42.3,32,39,32z"/>
</svg>
