<svg xmlns="http://www.w3.org/2000/svg" height="52" width="52" viewBox="0 0 520 520" fill="#fff"><path d="M228 457v10c0 12-9 21-21 21H41c-12 0-21-9-21-21v-10c0-25 30-41 57-53l3-2h7a70 70 0 0 0 76 0h6l3 2c27 13 56 28 56 53zM348 32c-85 0-153 65-153 145 0 25 7 50 20 72l2 8-17 46c-2 6 2 11 7 13h6l45-16c3-1 6-1 8 1 24 14 52 22 80 22 85 0 153-66 153-146 1-80-68-145-151-145zm-11 57h30v70l-3 46h-24l-2-46V89zm15 173c-14 0-18-8-18-18s4-18 18-18 18 8 18 18c1 10-4 18-18 18z"/><ellipse cx="124" cy="337" rx="52" ry="57"/></svg>