<svg xmlns="http://www.w3.org/2000/svg" height="100" width="100" viewBox="0 0 1000 1000" fill="#fff"><path d="M620 200H380a9 9 0 0 0-9 9v29a9 9 0 0 0 9 9h240a9 9 0 0 0 9-9v-29a9 9 0 0 0-9-9Zm-187 70h-53a9 9 0 0 0-9 9v17a9 9 0 0 0 9 9h53a9 9 0 0 0 8-9v-17a9 9 0 0 0-8-9Zm93 0h-52a9 9 0 0 0-9 9v17a9 9 0 0 0 9 9h52a9 9 0 0 0 9-9v-17a9 9 0 0 0-9-9Zm94 0h-53a9 9 0 0 0-9 9v17a9 9 0 0 0 9 9h53a9 9 0 0 0 9-9v-17a9 9 0 0 0-9-9Zm-187 58h-53a9 9 0 0 0-9 9v18a9 9 0 0 0 9 8h53a9 9 0 0 0 8-8v-18a9 9 0 0 0-8-9Zm93 0h-52a9 9 0 0 0-9 9v18a9 9 0 0 0 9 8h52a9 9 0 0 0 9-8v-18a9 9 0 0 0-9-9Zm94 0h-53a9 9 0 0 0-9 9v18a9 9 0 0 0 9 8h53a9 9 0 0 0 9-8v-18a9 9 0 0 0-9-9Zm-187 59h-53a9 9 0 0 0-9 8v18a9 9 0 0 0 9 9h53a9 9 0 0 0 8-9v-18a9 9 0 0 0-8-8Zm93 0h-52a9 9 0 0 0-9 8v18a9 9 0 0 0 9 9h52a9 9 0 0 0 9-9v-18a9 9 0 0 0-9-8Zm94 0h-53a9 9 0 0 0-9 8v18a9 9 0 0 0 9 9h53a9 9 0 0 0 9-9v-18a9 9 0 0 0-9-8Zm-187 58h-53a9 9 0 0 0-9 9v17a9 9 0 0 0 9 9h53a9 9 0 0 0 8-9v-17a9 9 0 0 0-8-9Zm93 0h-52a9 9 0 0 0-9 9v17a9 9 0 0 0 9 9h52a9 9 0 0 0 9-9v-17a9 9 0 0 0-9-9Zm94 0h-53a9 9 0 0 0-9 9v17a9 9 0 0 0 9 9h53a9 9 0 0 0 9-9v-17a9 9 0 0 0-9-9Zm131 130H515v-54a15 15 0 1 0-30 0v54H249a15 15 0 0 0-15 15v78a15 15 0 0 0 30 0v-63h221v51a15 15 0 0 0 30 0v-51h221v63a15 15 0 0 0 30 0v-78a15 15 0 0 0-15-15Z"/><circle cx="249" cy="747" r="49"/><circle cx="498" cy="747" r="49"/><circle cx="751" cy="747" r="49"/></svg>