<?xml version="1.0" encoding="UTF-8"?><svg id="a" xmlns="http://www.w3.org/2000/svg" width="100" height="100" viewBox="0 0 100 100"><path d="M37.45,20c2.28,0,4.15,1.75,4.35,3.98,2.59-.82,5.34-1.25,8.2-1.25,2.86,0,5.61.44,8.2,1.26.19-2.23,2.06-3.98,4.35-3.98h13.09c2.41,0,4.36,1.95,4.36,4.36v13.09c0,2.28-1.75,4.15-3.99,4.35.82,2.59,1.26,5.34,1.26,8.2s-.44,5.61-1.26,8.2c-.01,0-.03,0-.04,0,2.25.17,4.03,2.05,4.03,4.35v13.09c0,2.41-1.95,4.36-4.36,4.36h-13.09c-2.3,0-4.18-1.78-4.35-4.04,0,.02,0,.04,0,.05-2.59.82-5.34,1.26-8.2,1.26s-5.61-.44-8.2-1.26c-.19,2.23-2.06,3.99-4.35,3.99h-13.09c-2.41,0-4.36-1.95-4.36-4.36v-13.09c0-2.3,1.78-4.18,4.03-4.35-.02,0-.03,0-.05,0-.82-2.59-1.26-5.34-1.26-8.2,0-2.86.44-5.61,1.26-8.2.02,0,.03,0,.05,0-2.26-.17-4.03-2.05-4.03-4.35v-13.09c0-2.41,1.95-4.36,4.36-4.36h13.09ZM24.36,61.45c-.6,0-1.09.49-1.09,1.1v13.09c0,.6.49,1.09,1.09,1.09h13.09c.6,0,1.09-.49,1.09-1.09v-13.09c0-.6-.49-1.09-1.09-1.1h-13.09ZM62.55,61.45c-.6,0-1.1.49-1.1,1.1v13.09c0,.6.49,1.09,1.1,1.09h13.09c.6,0,1.09-.49,1.09-1.09v-13.09c0-.6-.49-1.09-1.09-1.1h-13.09ZM50,26c-2.87,0-5.63.51-8.18,1.43v10.02c0,2.41-1.95,4.36-4.36,4.36h-10.02c-.93,2.55-1.43,5.31-1.43,8.18s.51,5.63,1.43,8.18h10.02c2.41,0,4.36,1.95,4.36,4.36v10.02c2.55.93,5.31,1.43,8.18,1.43,2.87,0,5.63-.51,8.18-1.43v-10.02c0-2.41,1.95-4.36,4.36-4.36h10.02c.93-2.55,1.43-5.31,1.43-8.18,0-2.87-.51-5.63-1.43-8.18h-10.02c-2.41,0-4.36-1.95-4.36-4.36v-10.02c-2.55-.93-5.31-1.43-8.18-1.43ZM24.36,23.27c-.6,0-1.09.49-1.09,1.09v13.09c0,.6.49,1.09,1.09,1.09h13.09c.6,0,1.09-.49,1.09-1.09v-13.09c0-.6-.49-1.09-1.09-1.09h-13.09Z" fill="#fff" fill-rule="evenodd"/></svg>