<?xml version="1.0" encoding="UTF-8"?><svg id="a" xmlns="http://www.w3.org/2000/svg" width="100" height="100" viewBox="0 0 100 100"><g id="b"><path d="M75.3,42H24.6c-1.1,0-1.9.9-1.9,2v30c0,3.2,2.7,6,5.8,6h42.9c3.2,0,5.8-2.7,5.8-6v-30c0-1.1-.9-2-1.9-2ZM43.5,52.4v20c0,1-.7,1.7-1.6,1.8-.9,0-1.6-.8-1.6-1.8v-20c-.5-.6-.9-1.3-.9-2,0-1.4,1.2-2.6,2.6-2.5,1.4,0,2.5,1.2,2.4,2.6,0,.7-.3,1.4-.9,1.8v.1ZM63.5,64.9h0c0,.3-.2.6-.4.7-6.5,3.7-10-2.2-15.9-.3-.5.2-.9,0-1.1-.6v-11.6c0-.3.2-.6.5-.8,6.2-2.4,9.7,3.8,16.3.2.2,0,.5,0,.5.2v12.1l.1.1Z" fill="#fff"/><path d="M71.5,26h-4.9v-2c0-2.2-1.7-4-3.9-4s-3.9,1.7-3.9,4v2h-17.5v-2c0-2.2-1.7-4-3.9-4s-3.9,1.7-3.9,4v2h-4.9c-3.2,0-5.8,2.7-5.8,6v2c0,1.1.9,2,1.9,2h50.7c1.1,0,1.9-.9,1.9-2v-2c0-3.2-2.7-6-5.8-6Z" fill="#fff"/></g></svg>