<svg id="a" xmlns="http://www.w3.org/2000/svg" width="100" height="100" viewBox="0 0 100 100"><path d="M22.1,33h39.9c.8,0,1.2-.5,1.2-1.2v-1.8c0-2.6-1.6-4.7-4.7-4.7h-3.8v-1.7c0-.8-.3-1.6-.9-2.2-.6-.6-1.3-.9-2.2-.9s-1.6.3-2.2.9c-.6.6-.9,1.4-.9,2.2v1.6h-13.2v-1.6c0-.8-.4-1.5-1-2s-1.3-.8-2.1-.8-1.5.3-2.1.8-.9,1.3-1,2v1.6h-3.9c-2.8,0-4.6,2.1-4.6,4.7v1.7c0,.8.5,1.4,1.4,1.4h.1Z" fill="#fff"/><path d="M63.3,39.2c0-.9-.5-1.6-1.5-1.6H22.1c-.7,0-1.4.5-1.4,1.6v22.8c0,1.2.5,2.4,1.4,3.3s2,1.4,3.3,1.4h22.9c.5-4.2,2.2-8.1,4.9-11.3,2.6-3.1,6.1-5.4,10-6.6v-9.7h0l.1.1ZM34.3,59.6c0,.6-.5,1.2-1.2,1.2h-4c-.6,0-1.2-.5-1.2-1.2v-4c0-.6.5-1.2,1.2-1.2h4c.6,0,1.2.5,1.2,1.2v4ZM34.3,48.8c0,.7-.7,1.2-1.2,1.2h-4c-.6,0-1.2-.5-1.2-1.2v-4c0-.6.4-1.2,1-1.2h4.3c.7,0,1.1.6,1.1,1.2,0,0,0,4,0,4ZM44.7,59.6c0,.6-.5,1.2-1.2,1.2h-4c-.6,0-1.2-.5-1.2-1.2v-4c0-.6.5-1.2,1.2-1.2h4c.6,0,1.2.5,1.2,1.2v4ZM44.7,48.8c0,.6-.5,1.2-1.2,1.2h-4c-.6,0-1.2-.5-1.2-1.2v-4c0-.6.5-1.2,1.2-1.2h4c.6,0,1.2.5,1.2,1.2v4ZM55.8,48.8c0,.6-.5,1.2-1.2,1.2h-4c-.6,0-1.2-.5-1.2-1.2v-4c0-.6.5-1.2,1.2-1.2h4c.6,0,1.2.5,1.2,1.2v4Z" fill="#fff"/><path d="M79.7,58c0-.5-.2-.9-.5-1.3-.3-.3-.8-.5-1.2-.6h-15c-.6,0-.9.2-1.1.4s-.4.6-.4,1v2.1c0,.5.2.9.5,1.3.3.3.8.5,1.2.5h7.7l-13.7,13.8c-.3.3-.5.8-.5,1.3s.2.9.5,1.3l1.2,1.2c.3.3.8.4,1.4.4s.9,0,1.1-.3l13.7-13.8v8.3c0,.2,0,.5.3.7s.5.3.7.3h3.3c.2,0,.4,0,.6-.3s.3-.5.3-.7v-15.5h-.1v-.1Z" fill="#fff"/></svg>