<?xml version="1.0" encoding="utf-8"?>
<!DOCTYPE svg PUBLIC "-//W3C//DTD SVG 1.1//EN" "http://www.w3.org/Graphics/SVG/1.1/DTD/svg11.dtd">
<svg version="1.1" id="Icon" xmlns="http://www.w3.org/2000/svg" xmlns:xlink="http://www.w3.org/1999/xlink" x="0px" y="0px" viewBox="456 256 48 48" enable-background="new 456 256 48 48" xml:space="preserve">
<linearGradient id="SVGID_1_" gradientUnits="userSpaceOnUse" x1="351.3662" y1="312.875" x2="351.3662" y2="301.375" gradientTransform="matrix(4.1667 0 0 -4.1667 -983.9935 1559.6541)">
	<stop  offset="0" style="stop-color:#FFFFFF"/>
	<stop  offset="1" style="stop-color:#E4E4E4"/>
</linearGradient>
<path fill="url(#SVGID_1_)" d="M504,297.928c0,3.307-2.683,5.989-5.989,5.989h-35.938c-3.308,0-5.99-2.683-5.99-5.989V261.99
	c0-3.307,2.682-5.99,5.99-5.99h35.938c3.307,0,5.989,2.683,5.989,5.99V297.928z"/>
<g id="uHaK1w.tif_1_">
	<g>
		<path fill-rule="evenodd" clip-rule="evenodd" fill="#E4E4E4" d="M494.83,286.151c-0.751,1.11-1.352,2.149-2.103,3.082
			c-2.626,3.257-6.063,5.306-10.38,5.919c-2.791,0.396-5.499,0.044-8.088-1.029c-0.18-0.074-0.395-0.329-0.395-0.499
			c0.006-2.425,0.047-4.851,0.082-7.274c0.001-0.052,0.028-0.104,0.055-0.198C480.864,286.151,487.729,286.151,494.83,286.151z"/>
		<path fill-rule="evenodd" clip-rule="evenodd" fill="#E4E4E4" d="M478.682,269.505c-4.755,4.09-9.514,8.184-14.363,12.355
			c-0.088-0.521-0.187-0.929-0.222-1.341c-0.35-4.167,0.512-8.062,2.991-11.571c1.333-1.887,3.011-3.452,5.049-4.663
			c0.243-0.144,0.432-0.26,0.713-0.01c1.896,1.688,3.81,3.36,5.715,5.039C478.605,269.349,478.623,269.407,478.682,269.505z"/>
		<path fill-rule="evenodd" clip-rule="evenodd" fill="#E4E4E4" d="M490.602,283.963c0-6.032,0-11.978,0-18.058
			c0.585,0.584,1.147,1.087,1.635,1.647c2.461,2.823,3.804,6.067,4.119,9.715c0.182,2.109-0.056,4.164-0.608,6.202
			c-0.096,0.353-0.248,0.511-0.675,0.503C493.627,283.944,492.183,283.963,490.602,283.963z"/>
		<path fill-rule="evenodd" clip-rule="evenodd" fill="#E4E4E4" d="M475.076,262.803c1.212-0.242,2.244-0.524,3.295-0.644
			c3.26-0.368,6.347,0.195,9.218,1.719c0.181,0.097,0.383,0.342,0.389,0.525c0.104,3.106,0.18,6.213,0.259,9.32
			c0.002,0.086-0.013,0.174-0.024,0.38C483.834,270.337,479.534,266.64,475.076,262.803z"/>
		<path fill-rule="evenodd" clip-rule="evenodd" fill="#E4E4E4" d="M470.854,292.327c-0.693-0.613-1.372-1.162-1.987-1.768
			c-1.634-1.606-2.848-3.469-3.653-5.562c-0.072-0.19-0.037-0.536,0.1-0.663c1.763-1.626,3.553-3.229,5.337-4.835
			c0.025-0.022,0.068-0.024,0.203-0.07C470.854,283.703,470.854,287.943,470.854,292.327z"/>
	</g>
</g>
<g id="uHaK1w.tif">
	<g>
		<path fill-rule="evenodd" clip-rule="evenodd" fill="#2D961E" d="M494.83,288.123c-0.751,1.11-1.352,2.149-2.103,3.082
			c-2.626,3.257-6.063,5.306-10.38,5.919c-2.791,0.396-5.499,0.045-8.088-1.029c-0.18-0.074-0.395-0.329-0.395-0.499
			c0.006-2.424,0.047-4.851,0.082-7.274c0.001-0.052,0.028-0.103,0.055-0.198C480.864,288.123,487.729,288.123,494.83,288.123z"/>
		<path fill-rule="evenodd" clip-rule="evenodd" fill="#854C9E" d="M478.682,271.477c-4.755,4.09-9.514,8.183-14.363,12.355
			c-0.088-0.521-0.187-0.929-0.222-1.341c-0.35-4.167,0.512-8.062,2.991-11.571c1.333-1.886,3.011-3.451,5.049-4.662
			c0.243-0.144,0.432-0.26,0.713-0.01c1.896,1.688,3.81,3.359,5.715,5.039C478.605,271.321,478.623,271.379,478.682,271.477z"/>
		<path fill-rule="evenodd" clip-rule="evenodd" fill="#FB670D" d="M490.602,285.935c0-6.032,0-11.978,0-18.057
			c0.585,0.584,1.147,1.087,1.635,1.647c2.461,2.823,3.804,6.066,4.119,9.715c0.182,2.11-0.056,4.165-0.608,6.202
			c-0.096,0.353-0.248,0.512-0.675,0.504C493.627,285.916,492.183,285.935,490.602,285.935z"/>
		<path fill-rule="evenodd" clip-rule="evenodd" fill="#F41B2B" d="M475.076,264.775c1.212-0.242,2.244-0.524,3.295-0.644
			c3.26-0.369,6.347,0.195,9.218,1.719c0.181,0.097,0.383,0.342,0.389,0.524c0.104,3.106,0.18,6.214,0.259,9.32
			c0.002,0.087-0.013,0.174-0.024,0.38C483.834,272.31,479.534,268.611,475.076,264.775z"/>
		<path fill-rule="evenodd" clip-rule="evenodd" fill="#184395" d="M470.854,294.299c-0.693-0.613-1.372-1.162-1.987-1.768
			c-1.634-1.606-2.848-3.469-3.653-5.562c-0.072-0.189-0.037-0.535,0.1-0.663c1.763-1.626,3.553-3.229,5.337-4.835
			c0.025-0.022,0.068-0.024,0.203-0.07C470.854,285.676,470.854,289.915,470.854,294.299z"/>
	</g>
</g>
</svg>
