<?xml version="1.0" encoding="utf-8"?>
<!DOCTYPE svg PUBLIC "-//W3C//DTD SVG 1.1//EN" "http://www.w3.org/Graphics/SVG/1.1/DTD/svg11.dtd">
<svg version="1.1" id="Icon" xmlns="http://www.w3.org/2000/svg" xmlns:xlink="http://www.w3.org/1999/xlink" x="0px" y="0px" viewBox="0 0 48 48" enable-background="new 0 0 48 48" xml:space="preserve">
<linearGradient id="SVGID_1_" gradientUnits="userSpaceOnUse" x1="23.9995" y1="0" x2="23.9995" y2="48.0005">
	<stop  offset="0" style="stop-color:#FFFFFF"/>
	<stop  offset="1" style="stop-color:#EAEAEA"/>
</linearGradient>
<path fill-rule="evenodd" clip-rule="evenodd" fill="url(#SVGID_1_)" d="M48,42c0,3.313-2.687,6-6,6H6c-3.313,0-6-2.687-6-6V6
	c0-3.313,2.687-6,6-6h36c3.313,0,6,2.687,6,6V42z"/>
<linearGradient id="SVGID_2_" gradientUnits="userSpaceOnUse" x1="24.4995" y1="23" x2="24.4995" y2="42.0005">
	<stop  offset="0" style="stop-color:#E16D35"/>
	<stop  offset="1" style="stop-color:#C93D1D"/>
</linearGradient>
<path fill-rule="evenodd" clip-rule="evenodd" fill="url(#SVGID_2_)" d="M38,39.718C38,40.979,36.979,42,35.718,42H13.282
	C12.022,42,11,40.979,11,39.718V25.282C11,24.021,12.022,23,13.282,23h22.436C36.979,23,38,24.021,38,25.282V39.718z"/>
<g>
	<g>
		<path fill="#C93D1D" d="M13.656,28.017h2.057v9.642h1.509v-9.642h2.057V25.83h-5.624V28.017z M23.221,33.583
			c0,0.872-0.083,1.499-0.25,1.88s-0.436,0.571-0.808,0.571c-0.327,0-0.554-0.174-0.682-0.521c-0.128-0.348-0.192-0.875-0.192-1.582
			v-4.838h-1.365v5.269c0,0.53,0.027,1.014,0.082,1.449c0.055,0.437,0.149,0.807,0.284,1.11c0.135,0.304,0.319,0.538,0.553,0.704
			c0.234,0.165,0.534,0.248,0.899,0.248c0.289,0,0.57-0.11,0.846-0.331c0.275-0.221,0.5-0.58,0.673-1.077h0.029v1.193h1.298v-8.565
			h-1.365V33.583z M29.974,29.938c-0.195-0.365-0.415-0.636-0.658-0.812c-0.244-0.176-0.49-0.265-0.74-0.265
			c-0.308,0-0.604,0.103-0.89,0.307s-0.511,0.527-0.678,0.969h-0.019V25.83h-1.365v11.828h1.298v-1.094h0.019
			c0.147,0.475,0.366,0.812,0.654,1.011c0.288,0.198,0.615,0.298,0.98,0.298c0.25,0,0.496-0.088,0.74-0.265
			c0.243-0.177,0.463-0.447,0.658-0.812c0.195-0.365,0.354-0.831,0.476-1.4c0.122-0.568,0.183-1.245,0.183-2.029
			s-0.061-1.46-0.183-2.029C30.328,30.77,30.169,30.303,29.974,29.938z M29.2,34.411c-0.045,0.331-0.115,0.624-0.212,0.878
			c-0.096,0.254-0.216,0.455-0.36,0.604s-0.319,0.224-0.523,0.224c-0.199,0-0.372-0.074-0.52-0.224s-0.27-0.351-0.365-0.604
			c-0.097-0.254-0.167-0.547-0.212-0.878s-0.067-0.674-0.067-1.027c0-0.364,0.022-0.712,0.067-1.044
			c0.045-0.331,0.115-0.623,0.212-0.878c0.096-0.254,0.218-0.455,0.365-0.604s0.32-0.224,0.52-0.224
			c0.204,0,0.379,0.074,0.523,0.224s0.265,0.351,0.36,0.604c0.097,0.255,0.167,0.547,0.212,0.878
			c0.045,0.332,0.067,0.68,0.067,1.044C29.268,33.737,29.245,34.08,29.2,34.411z M34.555,35.761
			c-0.199,0.238-0.437,0.356-0.712,0.356c-0.385,0-0.68-0.171-0.884-0.514c-0.206-0.342-0.317-0.895-0.337-1.656h3.586
			c0.025-0.663-0.007-1.298-0.097-1.905s-0.235-1.148-0.438-1.623c-0.201-0.476-0.459-0.854-0.773-1.135
			c-0.314-0.282-0.683-0.423-1.105-0.423c-0.378,0-0.723,0.116-1.033,0.348c-0.312,0.232-0.579,0.55-0.803,0.953
			c-0.225,0.403-0.397,0.881-0.52,1.433c-0.122,0.553-0.183,1.148-0.183,1.789c0,0.663,0.06,1.271,0.178,1.822
			c0.119,0.553,0.287,1.027,0.505,1.425s0.484,0.704,0.798,0.919c0.314,0.216,0.667,0.323,1.058,0.323
			c0.563,0,1.045-0.221,1.442-0.662c0.396-0.442,0.691-1.177,0.884-2.203H34.92C34.875,35.272,34.753,35.523,34.555,35.761z
			 M32.685,31.893c0.035-0.209,0.097-0.408,0.183-0.596c0.087-0.188,0.202-0.346,0.346-0.473c0.145-0.127,0.325-0.19,0.544-0.19
			c0.333,0,0.581,0.155,0.745,0.464c0.163,0.31,0.276,0.762,0.341,1.358h-2.221C32.629,32.291,32.649,32.103,32.685,31.893z"/>
	</g>
</g>
<g>
	<g>
		<path fill="#FFFFFF" d="M19.009,14.792l-2.098-5.745h-1.108l2.706,7.13v4.934h0.932v-4.934l2.677-7.13h-1.059L19.009,14.792z
			 M26.784,13.499c-0.209-0.411-0.466-0.735-0.77-0.972c-0.304-0.236-0.658-0.354-1.063-0.354c-0.399,0-0.752,0.118-1.059,0.354
			c-0.307,0.237-0.565,0.561-0.774,0.972c-0.209,0.411-0.366,0.896-0.471,1.453s-0.157,1.157-0.157,1.799s0.052,1.239,0.157,1.791
			c0.104,0.552,0.261,1.034,0.471,1.445c0.209,0.411,0.467,0.732,0.774,0.963s0.66,0.346,1.059,0.346
			c0.405,0,0.76-0.115,1.063-0.346s0.561-0.552,0.77-0.963s0.366-0.893,0.471-1.445c0.104-0.552,0.157-1.149,0.157-1.791
			s-0.053-1.242-0.157-1.799S26.993,13.91,26.784,13.499z M26.407,18.162c-0.082,0.412-0.194,0.755-0.339,1.031
			c-0.144,0.276-0.312,0.487-0.505,0.634c-0.192,0.146-0.396,0.22-0.612,0.22s-0.42-0.073-0.613-0.22
			c-0.193-0.146-0.361-0.357-0.505-0.634c-0.144-0.276-0.257-0.619-0.338-1.031c-0.082-0.411-0.123-0.881-0.123-1.411
			c0-0.529,0.041-1,0.123-1.411c0.082-0.411,0.194-0.757,0.338-1.039c0.144-0.282,0.312-0.496,0.505-0.642
			c0.192-0.146,0.397-0.22,0.613-0.22s0.42,0.073,0.612,0.22c0.193,0.146,0.361,0.36,0.505,0.642
			c0.145,0.282,0.257,0.628,0.339,1.039c0.081,0.411,0.122,0.881,0.122,1.411C26.529,17.281,26.488,17.751,26.407,18.162z
			 M31.756,12.375v4.934c0,0.395-0.031,0.758-0.094,1.09c-0.062,0.333-0.155,0.623-0.279,0.87c-0.124,0.248-0.279,0.439-0.466,0.575
			c-0.187,0.135-0.407,0.203-0.662,0.203c-0.32,0-0.571-0.158-0.755-0.473c-0.183-0.315-0.274-0.744-0.274-1.284v-5.914h-0.833
			v5.745c0,0.473,0.027,0.904,0.083,1.292s0.152,0.724,0.289,1.005c0.138,0.282,0.317,0.499,0.54,0.65
			c0.222,0.152,0.5,0.228,0.833,0.228c0.372,0,0.696-0.126,0.971-0.38s0.5-0.65,0.677-1.191h0.02v1.386h0.784v-8.735H31.756z"/>
	</g>
</g>
<g>
	<g>
		<path fill="#FFFFFF" d="M13.656,29.017h2.057v9.642h1.509v-9.642h2.057V26.83h-5.624V29.017z M23.221,34.583
			c0,0.872-0.083,1.499-0.25,1.88s-0.436,0.571-0.808,0.571c-0.327,0-0.554-0.174-0.682-0.521c-0.128-0.348-0.192-0.875-0.192-1.582
			v-4.838h-1.365v5.269c0,0.53,0.027,1.014,0.082,1.449c0.055,0.437,0.149,0.807,0.284,1.11c0.135,0.304,0.319,0.538,0.553,0.704
			c0.234,0.165,0.534,0.248,0.899,0.248c0.289,0,0.57-0.11,0.846-0.331c0.275-0.221,0.5-0.58,0.673-1.077h0.029v1.193h1.298v-8.565
			h-1.365V34.583z M29.974,30.938c-0.195-0.365-0.415-0.636-0.658-0.812c-0.244-0.176-0.49-0.265-0.74-0.265
			c-0.308,0-0.604,0.103-0.89,0.307s-0.511,0.527-0.678,0.969h-0.019V26.83h-1.365v11.828h1.298v-1.094h0.019
			c0.147,0.475,0.366,0.812,0.654,1.011c0.288,0.198,0.615,0.298,0.98,0.298c0.25,0,0.496-0.088,0.74-0.265
			c0.243-0.177,0.463-0.447,0.658-0.812c0.195-0.365,0.354-0.831,0.476-1.4c0.122-0.568,0.183-1.245,0.183-2.029
			s-0.061-1.46-0.183-2.029C30.328,31.77,30.169,31.303,29.974,30.938z M29.2,35.411c-0.045,0.331-0.115,0.624-0.212,0.878
			c-0.096,0.254-0.216,0.455-0.36,0.604s-0.319,0.224-0.523,0.224c-0.199,0-0.372-0.074-0.52-0.224s-0.27-0.351-0.365-0.604
			c-0.097-0.254-0.167-0.547-0.212-0.878s-0.067-0.674-0.067-1.027c0-0.364,0.022-0.712,0.067-1.044
			c0.045-0.331,0.115-0.623,0.212-0.878c0.096-0.254,0.218-0.455,0.365-0.604s0.32-0.224,0.52-0.224
			c0.204,0,0.379,0.074,0.523,0.224s0.265,0.351,0.36,0.604c0.097,0.255,0.167,0.547,0.212,0.878
			c0.045,0.332,0.067,0.68,0.067,1.044C29.268,34.737,29.245,35.08,29.2,35.411z M34.555,36.761
			c-0.199,0.238-0.437,0.356-0.712,0.356c-0.385,0-0.68-0.171-0.884-0.514c-0.206-0.342-0.317-0.895-0.337-1.656h3.586
			c0.025-0.663-0.007-1.298-0.097-1.905s-0.235-1.148-0.438-1.623c-0.201-0.476-0.459-0.854-0.773-1.135
			c-0.314-0.282-0.683-0.423-1.105-0.423c-0.378,0-0.723,0.116-1.033,0.348c-0.312,0.232-0.579,0.55-0.803,0.953
			c-0.225,0.403-0.397,0.881-0.52,1.433c-0.122,0.553-0.183,1.148-0.183,1.789c0,0.663,0.06,1.271,0.178,1.822
			c0.119,0.553,0.287,1.027,0.505,1.425s0.484,0.704,0.798,0.919c0.314,0.216,0.667,0.323,1.058,0.323
			c0.563,0,1.045-0.221,1.442-0.662c0.396-0.442,0.691-1.177,0.884-2.203H34.92C34.875,36.272,34.753,36.523,34.555,36.761z
			 M32.685,32.893c0.035-0.209,0.097-0.408,0.183-0.596c0.087-0.188,0.202-0.346,0.346-0.473c0.145-0.127,0.325-0.19,0.544-0.19
			c0.333,0,0.581,0.155,0.745,0.464c0.163,0.31,0.276,0.762,0.341,1.358h-2.221C32.629,33.291,32.649,33.103,32.685,32.893z"/>
	</g>
</g>
<g>
	<g>
		<path fill="#4C4C4C" d="M19.009,13.977l-2.098-5.745h-1.108l2.706,7.13v4.934h0.932v-4.934l2.677-7.13h-1.059L19.009,13.977z
			 M26.784,12.685c-0.209-0.411-0.466-0.735-0.77-0.972c-0.304-0.236-0.658-0.354-1.063-0.354c-0.399,0-0.752,0.118-1.059,0.354
			c-0.307,0.237-0.565,0.561-0.774,0.972c-0.209,0.411-0.366,0.896-0.471,1.453s-0.157,1.157-0.157,1.799s0.052,1.239,0.157,1.791
			c0.104,0.552,0.261,1.034,0.471,1.445c0.209,0.411,0.467,0.732,0.774,0.963s0.66,0.346,1.059,0.346
			c0.405,0,0.76-0.115,1.063-0.346s0.561-0.552,0.77-0.963s0.366-0.893,0.471-1.445c0.104-0.552,0.157-1.149,0.157-1.791
			s-0.053-1.242-0.157-1.799S26.993,13.096,26.784,12.685z M26.407,17.348c-0.082,0.412-0.194,0.755-0.339,1.031
			c-0.144,0.276-0.312,0.487-0.505,0.634c-0.192,0.146-0.396,0.22-0.612,0.22s-0.42-0.073-0.613-0.22
			c-0.193-0.146-0.361-0.357-0.505-0.634c-0.144-0.276-0.257-0.619-0.338-1.031c-0.082-0.411-0.123-0.881-0.123-1.411
			c0-0.529,0.041-1,0.123-1.411c0.082-0.411,0.194-0.757,0.338-1.039c0.144-0.282,0.312-0.496,0.505-0.642
			c0.192-0.146,0.397-0.22,0.613-0.22s0.42,0.073,0.612,0.22c0.193,0.146,0.361,0.36,0.505,0.642
			c0.145,0.282,0.257,0.628,0.339,1.039c0.081,0.411,0.122,0.881,0.122,1.411C26.529,16.467,26.488,16.937,26.407,17.348z
			 M31.756,11.561v4.934c0,0.395-0.031,0.758-0.094,1.09c-0.062,0.333-0.155,0.623-0.279,0.87c-0.124,0.248-0.279,0.439-0.466,0.575
			c-0.187,0.135-0.407,0.203-0.662,0.203c-0.32,0-0.571-0.158-0.755-0.473c-0.183-0.315-0.274-0.744-0.274-1.284v-5.914h-0.833
			v5.745c0,0.473,0.027,0.904,0.083,1.292s0.152,0.724,0.289,1.005c0.138,0.282,0.317,0.499,0.54,0.65
			c0.222,0.152,0.5,0.228,0.833,0.228c0.372,0,0.696-0.126,0.971-0.38s0.5-0.65,0.677-1.191h0.02v1.386h0.784v-8.735H31.756z"/>
	</g>
</g>
</svg>
