<?xml version="1.0" encoding="utf-8"?>
<!DOCTYPE svg PUBLIC "-//W3C//DTD SVG 1.1//EN" "http://www.w3.org/Graphics/SVG/1.1/DTD/svg11.dtd">
<svg version="1.1" id="Icon" xmlns="http://www.w3.org/2000/svg" xmlns:xlink="http://www.w3.org/1999/xlink" x="0px" y="0px" viewBox="176 76 48 48" enable-background="new 176 76 48 48" xml:space="preserve">
<linearGradient id="SVGID_1_" gradientUnits="userSpaceOnUse" x1="71.3662" y1="132.875" x2="71.3662" y2="121.375" gradientTransform="matrix(4.1667 0 0 -4.1667 -97.3177 629.646)">
	<stop  offset="0" style="stop-color:#FFFFFF"/>
	<stop  offset="1" style="stop-color:#EAEAEA"/>
</linearGradient>
<path fill="url(#SVGID_1_)" d="M224,117.928c0,3.307-2.683,5.989-5.989,5.989h-35.938c-3.308,0-5.99-2.683-5.99-5.989V81.99
	c0-3.307,2.682-5.99,5.99-5.99h35.938c3.307,0,5.989,2.683,5.989,5.99V117.928z"/>
<linearGradient id="SVGID_2_" gradientUnits="userSpaceOnUse" x1="199.3481" y1="86.7681" x2="199.3481" y2="108.6245">
	<stop  offset="0" style="stop-color:#238FB8"/>
	<stop  offset="0.3316" style="stop-color:#1E87AF"/>
	<stop  offset="0.86" style="stop-color:#107398"/>
	<stop  offset="1" style="stop-color:#0B6C91"/>
</linearGradient>
<path fill="url(#SVGID_2_)" d="M209.323,90.082c0,0-2.876,0.387-1.828,3.739s3.003,3.143,2.234,7.332
	c-0.769,4.19-2.44,7.472-2.44,7.472l-4.751-14.663h1.954v-0.838h-8.309v0.908h2.375l1.885,6.075l-3.422,8.519l-5.027-14.663h1.746
	v-0.838l-4.947-0.026c0,0,3.533-6.398,11.58-6.328C206.081,86.818,209.323,90.082,209.323,90.082z"/>
<linearGradient id="SVGID_3_" gradientUnits="userSpaceOnUse" x1="190.4126" y1="94.4268" x2="190.4126" y2="112.8159">
	<stop  offset="0" style="stop-color:#238FB8"/>
	<stop  offset="0.1034" style="stop-color:#208AB3"/>
	<stop  offset="0.6599" style="stop-color:#11749A"/>
	<stop  offset="1" style="stop-color:#0B6C91"/>
</linearGradient>
<path fill="url(#SVGID_3_)" d="M188.039,94.427l6.153,18.389C194.192,112.815,182.723,107.113,188.039,94.427z"/>
<linearGradient id="SVGID_4_" gradientUnits="userSpaceOnUse" x1="200.9424" y1="102.4795" x2="200.9424" y2="114.3184">
	<stop  offset="0" style="stop-color:#187FA6"/>
	<stop  offset="0.5305" style="stop-color:#0F7298"/>
	<stop  offset="1" style="stop-color:#0B6C91"/>
</linearGradient>
<path fill="url(#SVGID_4_)" d="M201.054,102.479l-4.248,11.333c0,0,4.075,1.349,8.272-0.357L201.054,102.479z"/>
<linearGradient id="SVGID_5_" gradientUnits="userSpaceOnUse" x1="211.0615" y1="95.375" x2="211.0615" y2="111.9448">
	<stop  offset="0" style="stop-color:#238FB8"/>
	<stop  offset="0.1034" style="stop-color:#208AB3"/>
	<stop  offset="0.6599" style="stop-color:#11749A"/>
	<stop  offset="1" style="stop-color:#0B6C91"/>
</linearGradient>
<path fill="url(#SVGID_5_)" d="M213.131,95.375c0,0,0.072,0.977-1.027,4.748c-1.1,3.771-4.059,11.822-4.059,11.822
	S216.936,106.443,213.131,95.375z"/>
<linearGradient id="SVGID_6_" gradientUnits="userSpaceOnUse" x1="200.3638" y1="84.8594" x2="200.3638" y2="116.019">
	<stop  offset="0" style="stop-color:#238FB8"/>
	<stop  offset="0.3316" style="stop-color:#1E87AF"/>
	<stop  offset="0.86" style="stop-color:#107398"/>
	<stop  offset="1" style="stop-color:#0B6C91"/>
</linearGradient>
<path fill="url(#SVGID_6_)" d="M200.364,85.691c8.119,0,14.699,6.604,14.699,14.749c0,8.146-6.58,14.748-14.699,14.748
	c-8.118,0-14.698-6.602-14.698-14.748C185.666,92.294,192.246,85.691,200.364,85.691 M200.364,84.859
	c-8.563,0-15.53,6.989-15.53,15.58c0,8.59,6.967,15.579,15.53,15.579s15.53-6.989,15.53-15.579
	C215.894,91.849,208.927,84.859,200.364,84.859L200.364,84.859z"/>
</svg>
