<?xml version="1.0" encoding="utf-8"?>
<!DOCTYPE svg PUBLIC "-//W3C//DTD SVG 1.1//EN" "http://www.w3.org/Graphics/SVG/1.1/DTD/svg11.dtd">
<svg version="1.1" id="Icon" xmlns="http://www.w3.org/2000/svg" xmlns:xlink="http://www.w3.org/1999/xlink" x="0px" y="0px"
	 viewBox="-14 -14 48 48" enable-background="new -14 -14 48 48" xml:space="preserve">
<linearGradient id="SVGID_1_" gradientUnits="userSpaceOnUse" x1="90.0527" y1="-99.7603" x2="90.0527" y2="-106.3809" gradientTransform="matrix(7.2338 0 0 -7.2338 -641.4998 -735.5619)">
	<stop  offset="0" style="stop-color:#4B71B8"/>
	<stop  offset="1" style="stop-color:#293F7E"/>
</linearGradient>
<path fill="url(#SVGID_1_)" d="M33.931,27.993c0,3.304-2.689,5.983-6.002,5.983H-8.082c-3.315,0-6.001-2.683-6.001-5.983V-7.928
	c0-3.308,2.687-5.988,6.001-5.988h36.011c3.312,0,6.002,2.681,6.002,5.988V27.993z"/>
<path fill="#FFFFFF" d="M25.613-4.557c0,0-3.707,0-6.166,0c-3.662,0-7.732,1.535-7.732,6.835c0.019,1.845,0,3.613,0,5.603H7.481
	v6.728h4.366v19.37h8.021V14.48h5.295l0.479-6.618h-5.913c0,0,0.016-2.946,0-3.8c0-2.093,2.184-1.974,2.312-1.974
	c1.042,0,3.059,0.003,3.578,0v-6.646H25.613z"/>
</svg>
