<?xml version="1.0" encoding="utf-8"?>
<!DOCTYPE svg PUBLIC "-//W3C//DTD SVG 1.1//EN" "http://www.w3.org/Graphics/SVG/1.1/DTD/svg11.dtd">
<svg version="1.1" id="Icon" xmlns="http://www.w3.org/2000/svg" xmlns:xlink="http://www.w3.org/1999/xlink" x="0px" y="0px" viewBox="0 0 48 48" enable-background="new 0 0 48 48" xml:space="preserve">
<linearGradient id="SVGID_1_" gradientUnits="userSpaceOnUse" x1="23.9995" y1="0" x2="23.9995" y2="48.0005">
	<stop  offset="0" style="stop-color:#C7C7C7"/>
	<stop  offset="1" style="stop-color:#9B9B9B"/>
</linearGradient>
<path fill-rule="evenodd" clip-rule="evenodd" fill="url(#SVGID_1_)" d="M48,42c0,3.313-2.687,6-6,6H6c-3.313,0-6-2.687-6-6V6
	c0-3.313,2.687-6,6-6h36c3.313,0,6,2.687,6,6V42z"/>
<path fill="#D1D1D1" d="M35.536,36.227l-23.148-0.025c-2.039-0.376-5.894-2.498-5.894-7.832c0-4.468,2.417-6.41,4.339-7.039
	c0.559-1.903,2.189-4.318,5.772-4.318c0.728,0,1.511,0.104,2.341,0.31c1.086-1.673,3.56-4.55,7.72-4.55
	c1.25,0,2.557,0.271,3.884,0.804c5.405,2.17,6.641,5.962,6.505,8.598c2.337,0.684,5.166,2.612,5.166,6.837
	C42.221,34.719,37.849,36.227,35.536,36.227z M12.821,33.227h22.715c0.615,0,3.685-0.203,3.685-4.215
	c0-3.774-3.578-4.114-3.986-4.141l-1.941-0.126l0.615-1.845c0.129-0.418,1.144-4.283-4.476-6.539
	c-0.971-0.39-1.901-0.588-2.767-0.588c-3.781,0-5.566,3.787-5.641,3.948l-0.569,1.237l-1.289-0.44
	c-0.965-0.335-1.827-0.505-2.562-0.505c-2.58,0-2.957,2.27-3.006,2.725l-0.135,1.249l-1.254,0.1
	c-0.435,0.044-2.716,0.468-2.716,4.283C9.494,32.186,12.219,33.076,12.821,33.227z"/>
<path fill="#282828" d="M35.536,35.227l-23.148-0.025c-2.039-0.376-5.894-2.498-5.894-7.832c0-4.468,2.417-6.41,4.339-7.039
	c0.559-1.903,2.189-4.318,5.772-4.318c0.728,0,1.511,0.104,2.341,0.31c1.086-1.673,3.56-4.55,7.72-4.55
	c1.25,0,2.557,0.271,3.884,0.804c5.405,2.17,6.641,5.962,6.505,8.598c2.337,0.684,5.166,2.611,5.166,6.837
	C42.221,33.719,37.849,35.227,35.536,35.227z M12.821,32.227h22.715c0.615,0,3.685-0.203,3.685-4.215
	c0-3.775-3.578-4.114-3.986-4.141l-1.941-0.125l0.615-1.846c0.129-0.418,1.144-4.283-4.476-6.539
	c-0.971-0.39-1.901-0.588-2.767-0.588c-3.781,0-5.566,3.787-5.641,3.948l-0.569,1.237l-1.289-0.44
	c-0.965-0.335-1.827-0.505-2.562-0.505c-2.58,0-2.957,2.27-3.006,2.725l-0.135,1.249l-1.254,0.1
	c-0.435,0.044-2.716,0.468-2.716,4.283C9.494,31.186,12.219,32.076,12.821,32.227z"/>
</svg>
