<?xml version="1.0" encoding="utf-8"?>
<!DOCTYPE svg PUBLIC "-//W3C//DTD SVG 1.1//EN" "http://www.w3.org/Graphics/SVG/1.1/DTD/svg11.dtd">
<svg version="1.1" id="Icon" xmlns="http://www.w3.org/2000/svg" xmlns:xlink="http://www.w3.org/1999/xlink" x="0px" y="0px" viewBox="0 0 44 44" enable-background="new 0 0 44 44" xml:space="preserve">
<linearGradient id="SVGID_1_" gradientUnits="userSpaceOnUse" x1="333.7725" y1="-362.9536" x2="333.7725" y2="-410.9536" gradientTransform="matrix(0.9167 0 0 -0.9167 -283.9583 -332.7083)">
	<stop  offset="0" style="stop-color:#62BC46"/>
	<stop  offset="1" style="stop-color:#53A037"/>
</linearGradient>
<path fill="url(#SVGID_1_)" d="M44,38.5c0,3.037-2.463,5.5-5.5,5.5h-33C2.463,44,0,41.537,0,38.5v-33C0,2.463,2.463,0,5.5,0h33
	C41.537,0,44,2.463,44,5.5V38.5z"/>
<path fill="#53A037" d="M6.511,20.373c0,0,5.69-10.541,17.705-7.306c0,0-0.243-2.737,3.491-3.652c0,0,0.788,2.795-2.401,4.048
	c0,0,4.739,1.592,6.327,7.266c1.586,5.673-3.01,9.832-5.63,10.698c-2.624,0.865-5.543,0.611-7.384-1.56
	c-1.843-2.172-0.786-4.608,0.067-5.344c0.582-0.501,1.005-0.583,1.315-0.391c0.38,0.237,0.345,0.695,0.113,1.548
	c-0.23,0.851,0.16,2.688,1.907,3.291c1.746,0.603,4.854-0.498,5.47-2.96c0.614-2.459-0.033-5.923-3.982-7.023
	c-3.949-1.101-8.292,0.547-10.199,4.368c-1.906,3.821-0.331,10.662,4.74,12.341c5.072,1.677,7.665,0.687,8.845,0.242
	c1.179-0.441,5.114-1.812,7.97-6.014c2.854-4.204,3.227-9.029,2.069-13.09c-1.156-4.062-4.619-8.669-10.332-10.493
	C20.887,4.52,15.136,6.669,12.282,9.09C9.429,11.511,6.928,14.862,6.511,20.373z"/>
<path fill="#FFFFFF" d="M6.511,22.373c0,0,5.69-10.541,17.705-7.306c0,0-0.243-2.737,3.491-3.652c0,0,0.788,2.795-2.401,4.048
	c0,0,4.739,1.592,6.327,7.266c1.586,5.673-3.01,9.832-5.63,10.698c-2.624,0.865-5.543,0.611-7.384-1.56
	c-1.843-2.172-0.786-4.608,0.067-5.344c0.582-0.501,1.005-0.583,1.315-0.391c0.38,0.237,0.345,0.695,0.113,1.548
	c-0.23,0.851,0.16,2.688,1.907,3.291c1.746,0.603,4.854-0.498,5.47-2.96c0.614-2.459-0.033-5.923-3.982-7.023
	c-3.949-1.101-8.292,0.547-10.199,4.368c-1.906,3.821-0.331,10.662,4.74,12.341c5.072,1.677,7.665,0.687,8.845,0.242
	c1.179-0.441,5.114-1.812,7.97-6.014c2.854-4.204,3.227-9.029,2.069-13.09c-1.156-4.062-4.619-8.669-10.332-10.493
	C20.887,6.52,15.136,8.669,12.282,11.09C9.429,13.511,6.928,16.862,6.511,22.373z"/>
</svg>
