<?xml version="1.0" encoding="UTF-8"?><svg xmlns="http://www.w3.org/2000/svg" width="20" height="20" viewBox="0 0 20 20"><title>
		user temporary
	</title><path d="M18 16c0-2-2.083-5-8-5q-.534 0-1.026.032l.276 1.986Q9.609 13 10 13v4H6v2h2v-2h2v2h8zm-8-6a4.5 4.5 0 1 0-.878-8.914l.388 1.962Q9.745 3.001 10 3v5q-.255 0-.49-.048l-.388 1.962Q9.548 10 10 10m-2.933 1.29c-.69.149-1.3.35-1.834.59l1.051 1.713c.351-.14.755-.263 1.218-.36zM4 19v-2H2v2zm-1.84-4h2.228c.124-.18.284-.37.49-.557L3.64 12.866c-.78.66-1.254 1.416-1.48 2.134M7.5 1.758 8.613 3.42c-.274.183-.51.419-.693.693L6.258 3c.329-.49.751-.913 1.242-1.242M5.586 4.622l1.962.388a2.5 2.5 0 0 0 0 .98l-1.962.388a4.5 4.5 0 0 1 0-1.756M6.258 8 7.92 6.887c.183.274.419.51.693.693L7.5 9.242A4.5 4.5 0 0 1 6.258 8"/></svg>
