<svg xmlns="http://www.w3.org/2000/svg" height="52" width="52" viewBox="0 0 520 520" fill="#fff"><path d="M164 104h188a17 17 0 0 0 18-17V52a52 52 0 0 0-52-52H198a52 52 0 0 0-52 52v35a19 19 0 0 0 17 17zM86 43a8 8 0 0 1 8 9v35a69 69 0 0 0 69 69h189a69 69 0 0 0 68-69V52a8 8 0 0 1 9-9h17a52 52 0 0 1 52 52v373a52 52 0 0 1-52 52H68a52 52 0 0 1-51-52V95a52 52 0 0 1 51-52h17zm270 200H164a8 8 0 0 0-7 12l85 99a20 20 0 0 1 4 11v62a8 8 0 0 0 7 7h13a7 7 0 0 0 6-7v-62a14 14 0 0 1 5-11l85-99a7 7 0 0 0-6-12z"/></svg>