<svg xmlns="http://www.w3.org/2000/svg" height="52" width="52" viewBox="0 0 520 520" fill="#fff"><path d="M425.7 112.3H62a42.4 42.4 0 0 0-42 42.1v204c0 23 19 42 42 42h272a113 113 0 0 1-23.7-42H110.5c0-27.7-22-49-48.6-49V204a48.4 48.4 0 0 0 48.6-49h266.7c0 27.7 22 49 48.6 49v10.3a110 110 0 0 1 42 11.7v-71a42.7 42.7 0 0 0-42-43M313 253c0 38.6-31 70-69.6 70s-69.6-31-69.6-70 31-70 69.6-70 69.6 31 69.6 70zm108.7 64c0 1.6.6 3 1.5 4.4l21 19.7a6 6 0 0 1 0 8l-8 8c-.4.5-1.1.9-1.7 1.2s-1.3.4-2 .4-1.4-.2-2-.4-1.2-.7-1.7-1.2l-27-27c-1-1-1-3-1.5-4.4v-44c0-1.4.4-3 1.4-4s2-2 3.7-2h11c1.4 0 2.7 1 3.7 2s1.4 2.5 1.4 4v35zm52.3-59a88.8 88.8 0 0 0-62.3-25.7c-11.5 0-23 2.5-33.5 7-10.6 4.4-20 11-28.3 19a88 88 0 0 0-25 62.3c0 23.3 9.6 45.5 26 62s39 25.4 62.3 25a87 87 0 0 0 61.6-26A87.6 87.6 0 0 0 500 320a89.7 89.7 0 0 0-26-62zm-1.3 87.5c-3.3 8-8 15.3-14 21.4s-13.3 11-21.4 14-16.6 5-25.3 5c-13 0-26-4-36.6-11a65 65 0 0 1-24-29.4c-5-12-6.3-25.3-3.7-38a65 65 0 0 1 51.7-51.7c12.7-2.5 26-1 38 3.7s22.3 13.4 29.5 24a66.6 66.6 0 0 1 6 62z"/></svg>