<svg xmlns="http://www.w3.org/2000/svg" x="0px" y="0px"
	 width="100px" height="100px" viewBox="0 0 100 100" enable-background="new 0 0 100 100" xml:space="preserve">
<path fill="#FFFFFF" d="M49.5,21.9c-16.7,0-30,12.3-30,27.4c0,4.8,1.4,9.3,3.6,13.3c0.4,0.6,0.5,1.4,0.3,2.1l-3.9,10.7
	c-0.4,1,0.6,1.9,1.6,1.6L32,72.9c0.6-0.3,1.4-0.1,2.1,0.3c4.5,2.5,9.9,4,15.7,4C66.2,77,79.6,64.9,79.6,49.6
	C79.5,34.1,66.1,21.9,49.5,21.9z M61.2,62.4l-1.4,1.4c-0.6,0.6-1.3,0.9-2.1,0.9c-0.8,0-1.5-0.3-2.1-0.9L46,54.2
	c-0.7-0.6-1.2-1.7-1.2-2.8v-14c0-1.7,1.3-3,3-3h2c1.7,0,3,1.3,3,3v12.4l8.4,8.4c0.6,0.6,0.9,1.3,0.9,2.1
	C62.1,61.1,61.8,61.8,61.2,62.4z"/>
</svg>
