<?xml version="1.0" encoding="utf-8"?>
<svg xmlns="http://www.w3.org/2000/svg" width="12" height="12" viewBox="0 0 12 12">
    <g id="search">
        <path id="path3051" d="M1.63 9.474L4.006 7.1l.17-.1c-.404-.566-.644-1.26-.644-2.01.002-1.92 1.56-3.476 3.478-3.476 1.92 0 3.478 1.557 3.478 3.478 0 1.92-1.557 3.477-3.478 3.477-.75 0-1.442-.24-2.01-.647l-.098.17-2.375 2.373c-.19.188-.543.142-.79-.105s-.293-.6-.104-.79zm5.378-2.27c1.22 0 2.213-.99 2.213-2.213 0-1.22-.99-2.21-2.21-2.21S4.8 3.77 4.8 4.995 5.79 7.207 7.01 7.207z"/>
    </g>
</svg>
