<svg xmlns="http://www.w3.org/2000/svg" x="0px" y="0px"
	 width="100px" height="100px" viewBox="0 0 100 100" enable-background="new 0 0 100 100" xml:space="preserve">
<g>
	<path fill="#FFFFFF" d="M38,47.7c0-0.8-1-1.3-1.6-0.8l-14,10.8C20.9,58.8,20,60.6,20,62.5v4.1c0,0.7,0.7,1.2,1.3,0.9l15.4-5.8
		c0.8-0.3,1.3-1,1.3-1.9V47.7z"/>
	<path fill="#FFFFFF" d="M60.1,75.7L56,73v-4V59V41v-5v-8.4c0-2.7-2.9-5.7-4.8-7.2c-0.7-0.6-1.8-0.6-2.5,0c-1.8,1.5-4.8,4.5-4.8,7.2
		V36v5v18v10v4l-4.6,3c-0.8,0.6-1.4,1.5-1.4,2.5v0.6c0,0.5,0.4,0.9,0.9,0.9H50h10.9c0.5,0,1.1-0.4,1.1-0.9l0,0
		C62,77.7,61.2,76.5,60.1,75.7z"/>
	<path fill="#FFFFFF" d="M77.6,57.7l-14-10.8c-0.699-0.5-1.6,0-1.6,0.8v12.2c0,0.8,0.5,1.6,1.3,1.899l15.4,5.8
		C79.4,67.8,80,67.4,80,66.7V62.6C80,60.6,79.1,58.8,77.6,57.7z"/>
</g>
</svg>
