<svg xmlns="http://www.w3.org/2000/svg" height="100" width="100" viewBox="0 0 100 100" fill="#fff"><path d="M73 21H27a6 6 0 0 0-6 6v46a6 6 0 0 0 6 6h46a6 6 0 0 0 6-6V27a6 6 0 0 0-6-6zm-2 52H29a2 2 0 0 1-2-2V29c0-1.1.9-2 2-2h42a2 2 0 0 1 2 2v42a2 2 0 0 1-2 2zM45 33H35a2 2 0 0 0-2 2v10c0 1.1.9 2 2 2h10a2 2 0 0 0 2-2V35a2 2 0 0 0-2-2zm20 0H55a2 2 0 0 0-2 2v10c0 1.1.9 2 2 2h10a2 2 0 0 0 2-2V35a2 2 0 0 0-2-2zM45 53H35a2 2 0 0 0-2 2v10c0 1.1.9 2 2 2h10a2 2 0 0 0 2-2V55a2 2 0 0 0-2-2zm20 0H55a2 2 0 0 0-2 2v10c0 1.1.9 2 2 2h10a2 2 0 0 0 2-2V55a2 2 0 0 0-2-2z"/></svg>