<svg width="24" height="24" stroke-width="1.5" viewBox="0 0 24 24" fill="none" xmlns="http://www.w3.org/2000/svg">
<path d="M20.5 20.5L22 22" stroke="currentColor" stroke-linecap="round" stroke-linejoin="round"/>
<path d="M15 18C15 19.6569 16.3431 21 18 21C18.8299 21 19.581 20.663 20.1241 20.1185C20.6654 19.5758 21 18.827 21 18C21 16.3431 19.6569 15 18 15C16.3431 15 15 16.3431 15 18Z" stroke="currentColor" stroke-linecap="round" stroke-linejoin="round"/>
<path d="M20 12V5.74853C20 5.5894 19.9368 5.43679 19.8243 5.32426L16.6757 2.17574C16.5632 2.06321 16.4106 2 16.2515 2H4.6C4.26863 2 4 2.26863 4 2.6V21.4C4 21.7314 4.26863 22 4.6 22H11" stroke="currentColor" stroke-linecap="round" stroke-linejoin="round"/>
<path d="M16 5.4V2.35355C16 2.15829 16.1583 2 16.3536 2C16.4473 2 16.5372 2.03725 16.6036 2.10355L19.8964 5.39645C19.9628 5.46275 20 5.55268 20 5.64645C20 5.84171 19.8417 6 19.6464 6H16.6C16.2686 6 16 5.73137 16 5.4Z" fill="currentColor" stroke="currentColor" stroke-linecap="round" stroke-linejoin="round"/>
</svg>
