<svg xmlns="http://www.w3.org/2000/svg" height="52" width="52" viewBox="0 0 520 520" fill="#fff"><path d="M448 495H72a47 47 0 0 1-47-47V72c0-26 21-47 47-47h376c26 0 47 21 47 47v376c0 25-21 47-47 47zM89 103v313c0 9 7 16 16 16h312c9 0 16-7 16-16V103c0-9-7-16-16-16H104c-8 1-15 8-15 16zm299 135-9-30c-3-8-11-13-20-10l-68 22v-67c0-9-7-16-16-16h-31c-9 0-16 7-16 16v67l-66-22c-8-3-17 2-20 10l-9 30c-3 8 2 17 10 20l62 20-45 61c-5 7-3 17 4 22l26 18c7 5 17 3 22-4l49-68 49 68c5 7 15 9 22 4l26-18c7-5 9-15 4-22l-45-62 61-20c8-2 12-10 10-19z"/></svg>