<svg xmlns="http://www.w3.org/2000/svg" height="52" width="52" viewBox="0 0 520 520" fill="#fff"><path d="m241 367-94 133-24-64H59l82-111c16 10 33 11 45 14l11 2 8 6c9 6 21 15 36 20zm152-42c-16 10-33 11-45 14l-12 2-8 6c-9 6-20 16-35 21l94 132 24-64h64zM267 116a56 56 0 1 0 0 112 56 56 0 0 0 0-112zm152 56c0 19-21 34-28 51-7 18-3 43-17 56-13 13-38 10-56 17-17 7-32 28-51 28s-34-21-51-28c-18-7-43-3-56-17-13-13-10-38-17-56-7-17-28-32-28-51s21-34 28-51c7-18 3-43 17-56 13-13 38-10 56-17 17-7 32-28 51-28s34 21 51 28c18 7 43 3 56 17 13 13 10 38 17 56 7 17 28 32 28 51zm-48 0c0-58-46-104-104-104s-104 46-104 104 46 104 104 104 104-46 104-104z"/></svg>