<svg xmlns="http://www.w3.org/2000/svg" fill="#fff" viewBox="-190 -190 5180 5180"><linearGradient id="a" x1="2149" x2="4207" y1="4638" y2="1076" gradientUnits="userSpaceOnUse"><stop offset="0" stop-color="#fcc934"/><stop offset="1" stop-color="#fbbc04"/></linearGradient><linearGradient id="b" x1="2823" x2="-214" y1="4031" y2="2278" gradientUnits="userSpaceOnUse"><stop offset="0" stop-color="#1e8e3e"/><stop offset="1" stop-color="#34a853"/></linearGradient><linearGradient id="c" x1="371" x2="4429" y1="1501" y2="1501" gradientUnits="userSpaceOnUse"><stop offset="0" stop-color="#d93025"/><stop offset="1" stop-color="#ea4335"/></linearGradient><path fill="#202124" d="M4400 3676c-45 80-93 157-145 228l541-228z"/><path d="M2399 3600a1200 1200 0 1 0-1 0z"/><path fill="url(#a)" d="M3440 3001 2402 4800a2394 2394 0 0 0 2398-2400c0-421-112-835-323-1200H2400l-2 1a1198 1198 0 0 1 1041 1800z"/><path fill="url(#b)" d="M1360 3001 322 1202a2398 2398 0 0 0 2078 3598l1038-1799v-1a1199 1199 0 0 1-2078 2z"/><path fill="#1a73e8" d="M2399 3351a950 950 0 1 0 0-1900 950 950 0 0 0 0 1900z"/><path fill="url(#c)" d="M2399 1200h2076a2396 2396 0 0 0-4153 2l1038 1800h2a1200 1200 0 0 1 1037-1802z"/><path fill="#3c4043" d="M1575 2250c0-40 33-74 75-74h3149v1500H1649a75 75 0 0 1-74-75z"/><path d="M2442 2883a199 199 0 0 0 115-185c1-44-10-87-34-124a244 244 0 0 0-94-86c-38-20-81-30-125-30h-317v880h334c46 1 90-10 131-32a250 250 0 0 0 135-220 216 216 0 0 0-145-203zm-40 325c-23 14-50 22-76 21h-226v-286h222c28 0 55 6 79 20a146 146 0 0 1 70 123c0 24-6 47-17 68-13 22-30 41-53 54zm25-444a140 140 0 0 1-124 70h-203v-267h209c25 0 50 7 71 20a140 140 0 0 1 65 113c0 22-6 44-18 63zm733-40a296 296 0 0 0-160-42 292 292 0 0 0-264 171 389 389 0 0 0 3 340 300 300 0 0 0 270 164 300 300 0 0 0 276-167l3-5-96-48-3 5c-40 72-100 110-176 110a192 192 0 0 1-168-95 240 240 0 0 1-32-112h481l1-4a377 377 0 0 0-32-200 277 277 0 0 0-103-117zm-160 64c35-1 70 8 100 26 25 15 45 37 59 64 10 22 18 45 20 70h-360c10-44 31-84 63-114s74-47 118-46zm657 462a76 76 0 0 1-62-25c-12-15-18-40-18-73v-340h150v-105h-150v-175h-114v175h-108v105h108v364c0 27 3 53 12 78a160 160 0 0 0 94 90c23 10 47 14 71 13 17 0 33 0 50-3 12-3 25-7 37-13l4-1v-115l-9 5c-20 13-42 20-65 20zm656-500a283 283 0 0 0-200-68c-50 0-100 10-144 33-40 20-76 51-101 90l-3 4 86 66 3-5c17-26 40-47 67-61 28-15 60-22 92-22 43-2 85 13 118 40a142 142 0 0 1 46 108v29a418 418 0 0 0-170-36c-75 0-139 19-189 56s-75 92-75 160a205 205 0 0 0 114 186 268 268 0 0 0 245-5c30-17 56-41 76-70v83h108v-401c0-78-25-141-73-186zm-224 504c-34 2-67-10-94-30a96 96 0 0 1-36-79 108 108 0 0 1 40-88c28-22 70-34 124-34a315 315 0 0 1 155 42 198 198 0 0 1-95 164c-28 17-60 26-94 25z"/></svg>