<svg xmlns="http://www.w3.org/2000/svg" width="24" height="24" viewBox="0 0 24 24"><path d="M8.999,20.133c1.336,0,2.592-0.521,3.536-1.465l7.134-7.133c1.949-1.95,1.949-5.123-0.001-7.072 C18.723,3.52,17.467,3,16.132,3s-2.591,0.52-3.534,1.464l-7.134,7.134c-1.948,1.949-1.949,5.121,0,7.072 C6.408,19.613,7.664,20.133,8.999,20.133z M14.012,5.878C14.578,5.312,15.331,5,16.132,5c0.802,0,1.556,0.313,2.122,0.878 c1.17,1.17,1.17,3.073,0.001,4.243l-2.893,2.892L11.12,8.77L14.012,5.878z M6.878,13.012l2.828-2.828l4.242,4.243l-2.827,2.827 c-1.133,1.133-3.11,1.132-4.243,0.001C5.709,16.085,5.709,14.182,6.878,13.012z"/></svg>