<svg data-name="Layer 1" xmlns="http://www.w3.org/2000/svg" width="52" height="52" viewBox="0 0 52 52"><path d="M38.67,27.35A11.33,11.33,0,1,1,27.35,38.67h0A11.34,11.34,0,0,1,38.67,27.35ZM20.36,37.63a4,4,0,1,1-4,4v0A4,4,0,0,1,20.36,37.63ZM42.8,34.07l-6.06,6.79L34,38.09a.79.79,0,0,0-1.11,0l0,0-1.11,1.07a.7.7,0,0,0-.07,1l.07.08L35.6,44a1.62,1.62,0,0,0,1.14.48A1.47,1.47,0,0,0,37.87,44l7.19-7.87a.83.83,0,0,0,0-1l-1.12-1.05a.79.79,0,0,0-1.11,0ZM8.2,2a2.42,2.42,0,0,1,2.25,1.7h0l.62,2.16H46.36A1.5,1.5,0,0,1,47.9,7.31a1.24,1.24,0,0,1-.06.47h0L43.66,22.43a1.42,1.42,0,0,1-.52.82,16.42,16.42,0,0,0-4.47-.64,16,16,0,0,0-5.47,1H19.36a2.2,2.2,0,0,0-2.22,2.18,2.11,2.11,0,0,0,.13.75h0v.08a2.26,2.26,0,0,0,2.17,1.62h7.1a16,16,0,0,0-2.77,4.61H16a2.32,2.32,0,0,1-2.25-1.7h0L6.5,6.62H4.33A2.37,2.37,0,0,1,2,4.22V4.16A2.46,2.46,0,0,1,4.48,2H8.2Z" fill="#fff"/></svg>