<?xml version="1.0" encoding="utf-8"?>
<svg xmlns="http://www.w3.org/2000/svg" width="24" height="24" viewBox="0 0 24 24"><style>* { fill: #FFFFFF }</style>
    <g id="Layer_1">
        <g>
            <circle cx="11.5" cy="8.5" r="2.5"/>
            <path d="M16.3 8.7L17 8l-.8-.8.4-.8-1.1-.5.1-.9-1.2-.2-.1-.9-1.2.2-.4-.8-1.1.5L11 3l-.8.8-.9-.4-.5 1.1-.9-.2-.2 1.2-.9.2.2 1.2-.9.4.5 1.1L6 9l.8.8-.4.8 1.1.5-.1.9 1.2.2.1.9 1.2-.2.4.8 1.1-.5.6.8.8-.8.8.4.5-1.1.9.1.2-1.2.9-.1-.2-1.2.8-.4-.4-1zM11.5 12C9.6 12 8 10.4 8 8.5S9.6 5 11.5 5 15 6.6 15 8.5 13.4 12 11.5 12zm.5 3l-.7-.7-1.1.6-.4-.7-.8.3V23l2.5-3 2.5 3v-8.5l-1-.5z"/>
        </g>
    </g>
</svg>
