<?xml version="1.0" encoding="UTF-8"?><svg xmlns="http://www.w3.org/2000/svg" width="20" height="20" viewBox="0 0 20 20"><title>link</title><g fill="#36c"><path d="M4.83 15h2.91a4.88 4.88 0 01-1.55-2H5a3 3 0 110-6h3a3 3 0 012.82 4h2.1a4.82 4.82 0 00.08-.83v-.34A4.83 4.83 0 008.17 5H4.83A4.83 4.83 0 000 9.83v.34A4.83 4.83 0 004.83 15z"/><path d="M15.17 5h-2.91a4.88 4.88 0 011.55 2H15a3 3 0 110 6h-3a3 3 0 01-2.82-4h-2.1a4.82 4.82 0 00-.08.83v.34A4.83 4.83 0 0011.83 15h3.34A4.83 4.83 0 0020 10.17v-.34A4.83 4.83 0 0015.17 5z"/></g></svg>