<?xml version="1.0" encoding="utf-8"?>
<!-- Generator: Adobe Illustrator 21.1.0, SVG Export Plug-In . SVG Version: 6.00 Build 0)  -->
<svg version="1.1" id="Layer_1" xmlns="http://www.w3.org/2000/svg" xmlns:xlink="http://www.w3.org/1999/xlink" x="0px" y="0px"
	 width="52px" height="52px" viewBox="0 0 52 52" enable-background="new 0 0 52 52" xml:space="preserve">
<g>
	<path fill="#FFFFFF" d="M48,22.8C48,22.8,48,22.8,48,22.8c0-4.9-1.8-9.6-5-13.2c0,0,0,0,0,0c-0.1-0.1-0.3-0.3-0.4-0.4
		C38.6,4.8,32.6,2,26,2C19.7,2,13.9,4.6,9.9,8.6c0,0,0,0-0.1,0C6.1,12.4,4,17.5,4,22.8C4,28.1,6.1,33.2,9.9,37c0.8,0.8,2,0.8,2.8,0
		s0.8-2.1,0-2.9c-2.9-2.9-4.6-7-4.6-11.2c0-3.7,1.3-7.1,3.4-9.9c0.4-0.5,0.7-0.9,1.2-1.3c0.1-0.1,0.2-0.2,0.2-0.3
		C16.2,8,20.9,6,26,6c9.8,0,17.8,7.6,17.9,16.9c0,4.2-1.7,8.3-4.7,11.2c-0.8,0.8-0.8,2.1,0,2.9s2.1,0.8,2.9,0
		C45.9,33.2,48,28.2,48,22.8L48,22.8C48,22.8,48,22.8,48,22.8z"/>
	<path fill="#FFFFFF" d="M39.6,22.9C39.6,22.8,39.6,22.8,39.6,22.9C39.6,22.8,39.6,22.8,39.6,22.9C39.6,22.8,39.6,22.8,39.6,22.9
		c0-7.2-6.1-13-13.6-13c-6.2,0-11.4,3.9-13.1,9.2c-0.4,1.2-0.6,2.4-0.6,3.7c0,3.1,1.2,6.1,3.4,8.3c0.8,0.8,2.1,0.8,2.9,0
		c0.8-0.8,0.8-2.1,0-2.9c-1.4-1.4-2.2-3.3-2.2-5.3c0-4.9,4.5-8.8,9.6-8.8s9.6,4,9.6,8.8c0,2-0.8,3.9-2.2,5.3c-0.8,0.8-0.8,2.1,0,2.9
		c0.8,0.8,2,0.8,2.8,0C38.4,28.9,39.6,26,39.6,22.9L39.6,22.9z"/>
	<path fill="#FFFFFF" d="M28.2,32.4h-4.4c-1.7,0-3.2,1.4-3.2,3.2v11.3c0,1.7,1.4,3.2,3.2,3.2h4.4c1.7,0,3.2-1.4,3.2-3.2V35.5
		C31.4,33.8,29.9,32.4,28.2,32.4z"/>
	<circle fill="#FFFFFF" cx="26" cy="23.2" r="5.4"/>
</g>
</svg>
