<svg viewBox="0 0 24 24" xmlns="http://www.w3.org/2000/svg"><path d="M11.0049 20.9995C11.0049 20.1711 10.3333 19.4995 9.50488 19.4995C8.67646 19.4995 8.00488 20.1711 8.00488 20.9995H3.00488C2.4526 20.9995 2.00488 20.5518 2.00488 19.9995V3.99951C2.00488 3.44723 2.4526 2.99951 3.00488 2.99951H8.00488C8.00488 3.82794 8.67646 4.49951 9.50488 4.49951C10.3333 4.49951 11.0049 3.82794 11.0049 2.99951H21.0049C21.5572 2.99951 22.0049 3.44723 22.0049 3.99951V9.49951C20.6242 9.49951 19.5049 10.6188 19.5049 11.9995C19.5049 13.3802 20.6242 14.4995 22.0049 14.4995V19.9995C22.0049 20.5518 21.5572 20.9995 21.0049 20.9995H11.0049ZM9.50488 10.4995C10.3333 10.4995 11.0049 9.82794 11.0049 8.99951C11.0049 8.17108 10.3333 7.49951 9.50488 7.49951C8.67646 7.49951 8.00488 8.17108 8.00488 8.99951C8.00488 9.82794 8.67646 10.4995 9.50488 10.4995ZM9.50488 16.4995C10.3333 16.4995 11.0049 15.8279 11.0049 14.9995C11.0049 14.1711 10.3333 13.4995 9.50488 13.4995C8.67646 13.4995 8.00488 14.1711 8.00488 14.9995C8.00488 15.8279 8.67646 16.4995 9.50488 16.4995Z"/></svg>