<svg viewBox="0 0 24 24" xmlns="http://www.w3.org/2000/svg"><path d="M12.0049 22.0029C6.48204 22.0029 2.00488 17.5258 2.00488 12.0029C2.00488 6.48008 6.48204 2.00293 12.0049 2.00293C17.5277 2.00293 22.0049 6.48008 22.0049 12.0029C22.0049 17.5258 17.5277 22.0029 12.0049 22.0029ZM12.0049 20.0029C16.4232 20.0029 20.0049 16.4212 20.0049 12.0029C20.0049 7.58465 16.4232 4.00293 12.0049 4.00293C7.5866 4.00293 4.00488 7.58465 4.00488 12.0029C4.00488 16.4212 7.5866 20.0029 12.0049 20.0029ZM7.00488 13.0029H16.0049V15.0029H12.0049V18.0029L7.00488 13.0029ZM12.0049 9.00293V6.00293L17.0049 11.0029H8.00488V9.00293H12.0049Z"/></svg>