<svg viewBox="0 0 24 24" xmlns="http://www.w3.org/2000/svg"><path d="M5.37833 4.51353C7.14264 2.95131 9.46301 2.00293 12.0049 2.00293C17.5277 2.00293 22.0049 6.48008 22.0049 12.0029C22.0049 14.1279 21.3421 16.098 20.212 17.7179L17.5049 12.0029H20.0049C20.0049 7.58465 16.4232 4.00293 12.0049 4.00293C9.76058 4.00293 7.73213 4.92709 6.27932 6.41563L5.37833 4.51353ZM18.6314 19.4923C16.8671 21.0545 14.5468 22.0029 12.0049 22.0029C6.48204 22.0029 2.00488 17.5258 2.00488 12.0029C2.00488 9.87798 2.66767 7.90784 3.79778 6.28794L6.50488 12.0029H4.00488C4.00488 16.4212 7.5866 20.0029 12.0049 20.0029C14.2492 20.0029 16.2776 19.0788 17.7304 17.5902L18.6314 19.4923ZM13.0049 13.5385H16.0049V15.5385H13.0049V17.5385H11.0049V15.5385H8.00488V13.5385H11.0049V12.5385H8.00488V10.5385H10.5907L8.46935 8.41714L9.88356 7.00293L12.0049 9.12425L14.1262 7.00293L15.5404 8.41714L13.4191 10.5385H16.0049V12.5385H13.0049V13.5385Z"/></svg>