<svg viewBox="0 0 24 24" xmlns="http://www.w3.org/2000/svg"><path d="M5.00488 9.00293C5.55717 9.00293 6.00488 9.45064 6.00488 10.0029C7.63965 10.0029 9.14352 10.5633 10.3349 11.5025L12.5049 11.5029C13.8375 11.5029 15.0348 12.0822 15.8588 13.0027L19.0049 13.0029C20.9972 13.0029 22.7173 14.1682 23.521 15.8543C21.1562 18.975 17.3268 21.0029 13.0049 21.0029C10.2142 21.0029 7.85466 20.3997 5.944 19.345C5.80557 19.7285 5.43727 20.0029 5.00488 20.0029H2.00488C1.4526 20.0029 1.00488 19.5552 1.00488 19.0029V10.0029C1.00488 9.45064 1.4526 9.00293 2.00488 9.00293H5.00488ZM6.00589 12.0029L6.00488 17.0249L6.05024 17.0574C7.84406 18.3178 10.183 19.0029 13.0049 19.0029C16.0089 19.0029 18.8035 17.8473 20.84 15.8735L20.9729 15.7399L20.8537 15.6395C20.3897 15.2765 19.8205 15.0513 19.2099 15.0099L19.0049 15.0029L16.8934 15.003C16.9664 15.3246 17.0049 15.6593 17.0049 16.0029V17.0029H8.00488V15.0029L14.7949 15.0019L14.7605 14.9235C14.38 14.1299 13.593 13.5682 12.6693 13.5082L12.5049 13.5029L9.57547 13.5028C8.66823 12.5774 7.40412 12.0032 6.00589 12.0029ZM4.00488 11.0029H3.00488V18.0029H4.00488V11.0029ZM18.0049 5.00293C19.6617 5.00293 21.0049 6.34608 21.0049 8.00293C21.0049 9.65978 19.6617 11.0029 18.0049 11.0029C16.348 11.0029 15.0049 9.65978 15.0049 8.00293C15.0049 6.34608 16.348 5.00293 18.0049 5.00293ZM18.0049 7.00293C17.4526 7.00293 17.0049 7.45064 17.0049 8.00293C17.0049 8.55521 17.4526 9.00293 18.0049 9.00293C18.5572 9.00293 19.0049 8.55521 19.0049 8.00293C19.0049 7.45064 18.5572 7.00293 18.0049 7.00293ZM11.0049 2.00293C12.6617 2.00293 14.0049 3.34608 14.0049 5.00293C14.0049 6.65978 12.6617 8.00293 11.0049 8.00293C9.34803 8.00293 8.00488 6.65978 8.00488 5.00293C8.00488 3.34608 9.34803 2.00293 11.0049 2.00293ZM11.0049 4.00293C10.4526 4.00293 10.0049 4.45064 10.0049 5.00293C10.0049 5.55521 10.4526 6.00293 11.0049 6.00293C11.5572 6.00293 12.0049 5.55521 12.0049 5.00293C12.0049 4.45064 11.5572 4.00293 11.0049 4.00293Z"/></svg>