<?xml version="1.0" encoding="utf-8"?>
<svg xmlns="http://www.w3.org/2000/svg" width="24" height="24" viewBox="0 0 24 24">
    <g id="g3226">
        <path d="M18.1 8.65c.2-.1.5-.2.6-.5.1-.3.2-.5.2-.9v-.7c-1 .2-1.5.2-2.6.6-.7.4-1.2.9-1.7 1.4-.5.5-1.9 2.6-1.9 5.8v3.1h4.7c.9 0 1.6-.7 1.6-1.6v-4.7h-3.1s.1-.7.6-1.4c.5-.5 1-.9 1.6-1.1zm-11.2-.1c-.5.5-1.9 2.9-1.9 6v2.9h4.7c.9 0 1.6-.7 1.6-1.6v-4.7H8.2s.1-.7.6-1.4c.5-.5 1-.9 1.6-1.2.2-.1.5-.2.6-.5.1-.3.2-.5.2-.9v-.6c-1 .2-1.5.2-2.6.6-.6.4-1.2.9-1.7 1.4z" id="path3228"/>
    </g>
</svg>
