<svg id="Layer_1" data-name="Layer 1" xmlns="http://www.w3.org/2000/svg" width="100" height="100" viewBox="0 0 100 100"><path d="M39.79,20H26.61A6.36,6.36,0,0,0,20,26.11V36.25a6.37,6.37,0,0,0,6.59,6.09H39.79a6.36,6.36,0,0,0,6.58-6.09V26.11A6.35,6.35,0,0,0,39.79,20Zm-5.5,16.23H32.1a5.29,5.29,0,0,1-5.49-5.08,5.28,5.28,0,0,1,5.49-5.06h2.19a5.29,5.29,0,0,1,5.5,5.06A5.3,5.3,0,0,1,34.29,36.25Z" fill="#fff"/><path d="M59.54,42.34H72.72a6.37,6.37,0,0,0,6.59-6.09V26.11A6.36,6.36,0,0,0,72.72,20H59.54A6.35,6.35,0,0,0,53,26.11V36.25A6.35,6.35,0,0,0,59.54,42.34ZM65,26.11h2.2a5.28,5.28,0,0,1,5.49,5.06,5.29,5.29,0,0,1-5.49,5.08H65a5.3,5.3,0,0,1-5.49-5.08A5.28,5.28,0,0,1,65,26.11Z" fill="#fff"/><path d="M39.79,48.42H26.61A6.35,6.35,0,0,0,20,54.51V64.64a6.35,6.35,0,0,0,6.59,6.09H39.79a6.35,6.35,0,0,0,6.58-6.09V54.51A6.35,6.35,0,0,0,39.79,48.42Zm-5.5,16.22H32.1a4.51,4.51,0,0,1-.9,0,5.08,5.08,0,1,1,.9-10.13h2.19a4.51,4.51,0,0,1,.9,0,5.08,5.08,0,1,1-.9,10.13Z" fill="#fff"/><path d="M66.47,48.42C59,48.42,53,54,53,61c0,8.68,9.67,16.62,12.66,18.72a1.46,1.46,0,0,0,1.77,0C70.43,77.55,80,69.72,80,61,80,54,74,48.42,66.47,48.42Zm0,17.73a5.27,5.27,0,1,1,5.69-5.25A5.5,5.5,0,0,1,66.47,66.15Z" fill="#fff"/></svg>