<?xml version="1.0" encoding="UTF-8"?><svg id="a" xmlns="http://www.w3.org/2000/svg" width="52" height="52" viewBox="0 0 52 52"><path d="M17.27,28.4c2.41,0,4.36,1.95,4.36,4.36v10.91c0,2.41-1.95,4.36-4.36,4.36H6.36c-2.41,0-4.36-1.95-4.36-4.36v-10.91c0-2.41,1.95-4.36,4.36-4.36h10.91Z" fill="#fff"/><path d="M45.64,28.4c2.41,0,4.36,1.95,4.36,4.36v10.91c0,2.41-1.95,4.36-4.36,4.36h-10.91c-2.41,0-4.36-1.95-4.36-4.36v-10.91c0-2.41,1.95-4.36,4.36-4.36h10.91Z" fill="#fff"/><path d="M26,3.96c9.63,0,17.57,7.25,18.65,16.59.14,1.2-.85,2.18-2.06,2.18h-.87c-1.2,0-2.16-.98-2.36-2.17-1.04-6.44-6.63-11.36-13.36-11.36-6.74,0-12.32,4.92-13.36,11.36-.19,1.19-1.15,2.17-2.36,2.17h-.87c-1.2,0-2.2-.98-2.06-2.18C8.43,11.22,16.37,3.96,26,3.96Z" fill="#fff"/></svg>