<svg xmlns="http://www.w3.org/2000/svg" width="52" height="52" viewBox="0 0 52 52"><path d="M45.2,8.6H6.8c-2.64,0-4.8,2.16-4.8,4.8v27.2c0,2.64,2.16,4.8,4.8,4.8h38.4c2.64,0,4.8-2.16,4.8-4.8V13.4c0-2.64-2.16-4.8-4.8-4.8ZM45.2,13.4v4.8H6.8v-4.8h38.4ZM6.8,40.6v-14.4h38.4v14.4H6.8Z" fill="#fff" stroke-width="0"/><path d="M20.48,30.2h0c-1.12,0-2.08.56-2.64,1.44-.08.16-.32.16-.4,0-.56-.88-1.52-1.44-2.64-1.44h0c-1.76,0-3.2,1.44-3.2,3.2h0c0,1.76,1.44,3.2,3.2,3.2h0c1.12,0,2.08-.56,2.64-1.44.08-.16.32-.16.4,0,.56.88,1.52,1.44,2.64,1.44h.08c1.68,0,3.12-1.36,3.12-3.12v-.16c-.08-1.76-1.44-3.12-3.2-3.12Z" fill="#fff" stroke-width="0"/><path d="M38.8,31h-9.6c-.88,0-1.6.72-1.6,1.6v1.6c0,.88.72,1.6,1.6,1.6h9.6c.88,0,1.6-.72,1.6-1.6v-1.6c0-.88-.72-1.6-1.6-1.6Z" fill="#fff" stroke-width="0"/></svg>