<svg id="a" xmlns="http://www.w3.org/2000/svg" width="52" height="52" viewBox="0 0 52 52"><path d="M2,22.1C3.6,11.9,11.9,3.6,22.1,2c1-.2,1.8.6,1.8,1.6v9.1c0,.7-.5,1.4-1.2,1.5-4.1,1.1-7.4,4.3-8.5,8.5-.2.7-.8,1.2-1.5,1.2H3.6c-1,0-1.8-.9-1.6-1.8ZM14.3,29.2c1.1,4.1,4.3,7.4,8.5,8.5.7.2,1.2.8,1.2,1.5v9.1c0,1-.9,1.8-1.8,1.6-10.3-1.7-18.5-9.8-20.1-20.1-.2-1,.6-1.8,1.6-1.8h9.1c.7,0,1.4.5,1.5,1.2ZM37.7,29.2c-1.1,4.2-4.4,7.4-8.5,8.5-.7.2-1.2.8-1.2,1.5v9.2c0,1,.9,1.8,1.8,1.6,10.2-1.6,18.4-9.8,20.1-20.1.2-1-.6-1.8-1.6-1.8h-9c-.7,0-1.4.4-1.6,1.1ZM28,12.8V3.6c0-1,.9-1.8,1.9-1.6,10.3,1.7,18.5,9.8,20.1,20.1.2,1-.6,1.8-1.6,1.8h-9.2c-.7,0-1.4-.5-1.5-1.2-1.1-4.1-4.3-7.4-8.5-8.5-.7-.2-1.2-.8-1.2-1.5h0v.1Z" fill="#fff"/></svg>