<?xml version="1.0" encoding="UTF-8"?><svg id="a" xmlns="http://www.w3.org/2000/svg" width="52" height="52" viewBox="0 0 52 52"><path d="M16.4,15.99c2.8-.99,4.8-3.66,4.8-6.79,0-3.98-3.22-7.2-7.2-7.2s-7.2,3.22-7.2,7.2c0,3.13,2,5.8,4.8,6.79v31.61c0,.44.36.8.8.8h3.2c.44,0,.8-.36.8-.8V15.99ZM16.4,9.2c0,1.33-1.07,2.4-2.4,2.4s-2.4-1.07-2.4-2.4,1.07-2.4,2.4-2.4,2.4,1.07,2.4,2.4Z" fill="#fff" fill-rule="evenodd"/><path d="M40.4,36.01v-17.21c0-6.63-5.37-12-12-12h-1.6c-.44,0-.8.36-.8.8v3.2c0,.44.36.8.8.8h1.6c3.98,0,7.2,3.22,7.2,7.2v17.21c-2.8.99-4.8,3.66-4.8,6.79,0,3.98,3.22,7.2,7.2,7.2s7.2-3.22,7.2-7.2c0-3.13-2-5.8-4.8-6.79ZM38,40.4c-1.33,0-2.4,1.07-2.4,2.4s1.07,2.4,2.4,2.4,2.4-1.07,2.4-2.4-1.07-2.4-2.4-2.4Z" fill="#fff" fill-rule="evenodd"/></svg>