<svg xmlns="http://www.w3.org/2000/svg" width="52" height="52" viewBox="0 0 52 52"><path d="M28.4,19.3c0-.1-.4-.3-.8-.3h-1.5c-.4,0-.8.1-.8.3v2.3h-2.3c-.1,0-.3.4-.3.8v1.5c0,.4.1.8.3.8h2.3v2.3c0,.1.4.3.8.3h1.5c.4,0,.8-.1.8-.3v-2.3h2.3c.1,0,.3-.4.3-.8v-1.5c0-.4-.1-.8-.3-.8h-2.3v-2.3Z" fill="#fff"/><path d="M44.3,7c-.8,0-1.7.2-2.4.6-.8.4-1.4.9-2,1.6-.5.7-.9,1.4-1.1,2.3-.2.8-.2,1.7,0,2.5l-5.3,3.5c-1.5-1.8-3.6-2.9-5.9-3.2-2.3-.2-4.6.4-6.4,1.9l-8.7-6c.6-2.3-.6-4.9-2.9-5.9-2.6-1.2-5.7,0-6.9,2.5-1.2,2.5,0,5.7,2.5,6.9,1.4.6,2.9.6,4.2,0l9,6.3c-.4,1-.6,2.1-.6,3.2l.2,1.8-5.5,2c-.7-.8-1.7-1.4-2.9-1.7-1.5-.4-3.1-.2-4.5.6-1.4.8-2.4,2.1-2.8,3.6-.4,1.5-.2,3.1.6,4.5.8,1.4,2.1,2.4,3.6,2.8,3.1.9,6.4-1,7.2-4.1l.2-1,6.3-2.2c1.7,1.7,4,2.9,6.5,2.9h.7l.9,4.5c-1.2,1-2,2.3-2.3,3.8s0,3.1.7,4.4c.7,1.3,1.9,2.4,3.3,3s3,.6,4.5.1,2.7-1.4,3.5-2.7,1.2-2.8,1-4.4c-.2-1.5-.9-2.9-2-4s-2.6-1.7-4.1-1.8l-1-4.7c2.2-1.6,3.7-4.3,3.7-7.2v-1.4l6.2-4.1c.8.4,1.7.6,2.5.6,3.1,0,5.6-2.5,5.6-5.6s-2.6-5.6-5.7-5.6l.1-.3ZM26.6,29c-3.2,0-5.7-2.5-5.7-5.7s2.5-5.7,5.7-5.7,5.7,2.5,5.7,5.7-2.5,5.7-5.7,5.7Z" fill="#fff"/></svg>