<svg id="a" xmlns="http://www.w3.org/2000/svg" width="52" height="52" viewBox="0 0 52 52"><path d="M30,28.4c-1.7-.7-2-1.4-2-2.1s.5-1.4,1-1.9c1-1,1.5-2.2,1.5-3.7,0-2.8-1.7-5.2-4.7-5.2s-4.7,2.4-4.7,5.2.6,2.8,1.5,3.7c.6.6,1,1.2,1,1.9s-.2,1.4-2,2.1c-2.5,1-4.8,2.2-4.9,4.5,0,1.5,1.1,2.7,2.6,2.7h13.1c1.4,0,2.6-1.2,2.6-2.7,0-2.2-2.5-3.4-5-4.5Z" fill="#fff"/><path d="M45.69,21.11c-.62-2.55-1.66-4.92-2.99-7.01.5-.6.9-1.3,1-2,.1-.8,0-1.6-.3-2.3-.3-.7-.8-1.3-1.5-1.8-.7-.4-1.4-.7-2.2-.7-1,0-2,.4-2.7,1.1-2.2-1.4-4.5-2.4-7.1-3,0-2.2-1.8-4-4-4s-4,1.8-4,4c-2.6.6-5.1,1.6-7.3,3.1-.7-.8-1.8-1.2-2.8-1.2s-2.1.4-2.8,1.2c-.4.4-.7.8-.9,1.3-.2.5-.3,1-.3,1.5s0,1.1.3,1.5c.2.5.5.9.9,1.3-1.5,2.1-2.5,4.6-3.1,7.2-2.2,0-3.9,1.9-3.9,4s1.8,4,3.9,4c.5,2.6,1.5,5.1,3,7.1h-.2c-.4.5-.7.9-.9,1.4s-.3,1-.3,1.5,0,1,.3,1.5c.2.5.5.9.9,1.3.8.8,1.9,1.2,2.8,1.2s2.1-.4,2.8-1.2c2.2,1.4,4.7,2.5,7.5,3,0,2.2,1.8,4,4,4s4-1.8,4-4c2.7-.6,5.1-1.6,7.2-3,.8.8,1.8,1.2,2.8,1.2s2.1-.4,2.8-1.2c1.6-1.6,1.6-4.1,0-5.7,1.4-2.2,2.5-4.7,3-7.3,2.2,0,4-1.8,4-4s-1.75-3.94-3.91-3.99ZM38.6,10.4v-.1l.4-.2c.2-.2.5-.2.7-.2.4,0,.8.2,1.1.5.5.5.6,1.3.2,1.9l-.2.4c-.3.3-.7.5-1.1.5s-.8-.2-1.1-.5c-.7-.7-.7-1.7,0-2.3ZM24.1,5.2c.2-.7.8-1.3,1.6-1.3s1.4.6,1.6,1.3v.3c0,.9-.7,1.6-1.6,1.6s-1.6-.7-1.6-1.6v-.3ZM10.57,10.24c.28-.25.56-.35.93-.44.4,0,.7,0,1.1.2l.2.2c.6.6.6,1.6,0,2.2s-.7.5-1.1.5-.8-.2-1.1-.5l-.2-.2c-.39-.59-.39-1.37.17-1.96ZM5.8,27.2h-.4c-.7-.2-1.2-.9-1.2-1.6s.6-1.4,1.2-1.5h.4c.9,0,1.6.6,1.6,1.5s-.8,1.6-1.6,1.6ZM12.5,40.7l-.2.2c-.2.2-.6.3-1,.3s-.8-.2-1.1-.5-.5-.7-.5-1.1.2-.7.3-1v-.2c.4-.3.8-.5,1.2-.5s.8.2,1.1.5c.7.6.7,1.6,0,2.2l.2.1ZM27.3,45.9c-.2.7-.8,1.3-1.6,1.3s-1.4-.6-1.6-1.3v-.3c0-.9.7-1.6,1.6-1.6s1.6.7,1.6,1.6v.3ZM40.5,35.7h-.6c-1,0-2.1.3-2.8,1.1-.5.5-.8,1-1,1.6-.2.6-.2,1.3-.2,1.9-2,1.4-4.3,2.4-6.9,2.9-.7-1-1.9-1.7-3.3-1.7s-2.6.6-3.3,1.7c-2.6-.5-5.1-1.5-7.1-3,0-.6,0-1.1-.1-1.7-.1-.6-.4-1.1-.8-1.5-.4-.4-.8-.8-1.4-1s-1.1-.4-1.6-.4h-.5c-1.4-1.9-2.4-4.2-2.9-6.8,1-.7,1.8-1.9,1.8-3.3s-.7-2.6-1.8-3.3c.5-2.5,1.4-4.8,2.9-6.9h.6c1,0,2.1-.3,2.8-1.1,1-1,1.3-2.2,1.1-3.5,2.1-1.4,4.4-2.4,7-2.9.4.5.9.9,1.5,1.2.6.3,1.2.4,1.8.4s1.3-.1,1.8-.4,1.1-.7,1.5-1.2c2.4.5,4.7,1.4,6.7,2.7-.2,1.3,0,2.6,1.1,3.6.8.8,1.8,1.2,2.8,1.2h.8c1.4,2,2.4,4.3,2.9,6.9-1,.7-1.7,1.9-1.7,3.2s.7,2.5,1.8,3.3c-.5,2.6-1.4,4.9-2.9,7ZM46,27.2h-.2c-.9,0-1.6-.7-1.6-1.6s.7-1.6,1.6-1.6h.2c.7.2,1.4.8,1.4,1.6s-.6,1.4-1.4,1.6Z" fill="#fff"/></svg>