<svg xmlns="http://www.w3.org/2000/svg" height="52" width="52" viewBox="0 0 520 520" fill="#fff"><path d="m494 220-8-23-185 66-4 11a40 40 0 0 1-77-14 46 46 0 0 1 12-30l5-7V19l-30 6a235 235 0 0 0-130 81 241 241 0 0 0-56 153 240 240 0 0 0 480 0 143 143 0 0 0-7-39zm-98 176a190 190 0 0 1-136 56 191 191 0 0 1-147-314 195 195 0 0 1 76-55v126a93 93 0 0 0-16 52 87 87 0 0 0 26 62 90 90 0 0 0 62 26c19 0 37-6 52-17a84 84 0 0 0 26-30l113-40a193 193 0 0 1-56 134zm-90-186 158-56c4-1 7-6 6-10a8 8 0 0 0-2-3l-2-4A241 241 0 0 0 298 24c-7-1-13 4-14 11v167a16 16 0 0 0 21 8z"/></svg>