<?xml version="1.0" encoding="utf-8"?>
<!-- Generator: Adobe Illustrator 16.0.0, SVG Export Plug-In . SVG Version: 6.00 Build 0)  -->
<!DOCTYPE svg PUBLIC "-//W3C//DTD SVG 1.1//EN" "http://www.w3.org/Graphics/SVG/1.1/DTD/svg11.dtd">
<svg version="1.1" id="Layer_1" xmlns="http://www.w3.org/2000/svg" xmlns:xlink="http://www.w3.org/1999/xlink" x="0px" y="0px"
	 width="52px" height="52px" viewBox="0 0 52 52" enable-background="new 0 0 52 52" xml:space="preserve">
<path fill="#FFFFFF" d="M36.001,20c0-2.2-1.799-4-4-4H6c-2.199,0-4,1.8-4,4v26c0,2.2,1.801,4,4,4h26.001c2.201,0,4-1.8,4-4V20z
	 M11,35c-0.5,0-1-0.5-1-1v-2c0-0.5,0.5-1,1-1h16.001c0.5,0,1,0.5,1,1v2c0,0.5-0.5,1-1,1H11z M43.001,42h-3v-6h3c0.6,0,1-0.4,1-1V9
	c0-0.6-0.4-1-1-1H17c-0.6,0-1,0.4-1,1v3h-6V9c0-3.9,3.102-7,7-7h26.001c3.9,0,7,3.1,7,7v26C50.001,38.9,46.901,42,43.001,42z"/>
</svg>
