<svg id="a" xmlns="http://www.w3.org/2000/svg" width="100" height="100" viewBox="0 0 100 100"><path d="M73.4,41.1h-4.5l1.9-7.4v-.2c0-.3-.2-.6-.6-.6h-3.6c-.3,0-.5.2-.6.5l-1.9,7.7h-9l1.9-7.4v-.2c0-.3-.2-.6-.6-.6h-3.6c-.3,0-.5.2-.6.5l-2,7.7h-4.2c-.3,0-.5.2-.6.4l-.9,3.4h0c0,.4.2.7.6.7h3.9l-2.2,8.7h-4.1c-.3,0-.5.2-.6.4l-.9,3.4h0c0,.4.2.7.6.7h3.8l-1.9,7.6h0c0,.4.2.7.6.7h3.6c.3,0,.5-.2.6-.5l2-7.8h9l-1.9,7.6h0c0,.4.2.7.6.7h3.6c.3,0,.5-.2.6-.5l2-7.8h5c.3,0,.5-.2.6-.5l.9-3.4h0c0-.4-.2-.7-.6-.7h-4.7l2.2-8.7h4.8c.3,0,.5-.2.6-.5l.9-3.4h0c0-.2-.3-.4-.6-.4l-.1-.1ZM60.7,54.4h-9l2.2-8.7h9l-2.2,8.7Z" fill="#fff"/><rect x="26" y="43.8" width="12.1" height="4" rx=".8" ry=".8" fill="#fff"/><rect x="26" y="52.7" width="12.1" height="4" rx=".8" ry=".8" fill="#fff"/></svg>