<svg xmlns="http://www.w3.org/2000/svg" width="14" height="16" viewBox="0 0 14 16"><path d="M4.75 4.95C5.3 5.59 6.09 6 7 6c.91 0 1.7-.41 2.25-1.05A1.993 1.993 0 0 0 13 4c0-1.11-.89-2-2-2-.41 0-.77.13-1.08.33A3.01 3.01 0 0 0 7 0C5.58 0 4.39 1 4.08 2.33 3.77 2.13 3.41 2 3 2c-1.11 0-2 .89-2 2a1.993 1.993 0 0 0 3.75.95zm5.2-1.52c.2-.38.59-.64 1.05-.64.66 0 1.2.55 1.2 1.2 0 .65-.55 1.2-1.2 1.2-.65 0-1.17-.53-1.19-1.17.06-.19.11-.39.14-.59zM7 .98c1.11 0 2.02.91 2.02 2.02 0 1.11-.91 2.02-2.02 2.02-1.11 0-2.02-.91-2.02-2.02C4.98 1.89 5.89.98 7 .98zM3 5.2c-.66 0-1.2-.55-1.2-1.2 0-.65.55-1.2 1.2-1.2.45 0 .84.27 1.05.64.03.2.08.41.14.59C4.17 4.67 3.66 5.2 3 5.2zM13 6H1c-.55 0-1 .45-1 1v3c0 .55.45 1 1 1v2c0 .55.45 1 1 1h1c.55 0 1-.45 1-1v-1h1v3c0 .55.45 1 1 1h2c.55 0 1-.45 1-1v-3h1v1c0 .55.45 1 1 1h1c.55 0 1-.45 1-1v-2c.55 0 1-.45 1-1V7c0-.55-.45-1-1-1zM3 13H2v-3H1V7h2v6zm7-2H9V9H8v6H6V9H5v2H4V7h6v4zm3-1h-1v3h-1V7h2v3z"/></svg>