<svg xmlns="http://www.w3.org/2000/svg" viewBox="0 0 64 64" enable-background="new 0 0 64 64"><g transform="translate(10)" fill-rule="evenodd"><g fill="#28316b"><path d="m35.445.511l2.927 10.01 2.74 51.668c0 0-5.665 3.281-13.161 1.084-1.256-.369-2.176-.659-2.834-.889.002-.012.002-.025.006-.035.039-.292-.006-.572-.102-.839l-2.37-40.714c0 0-2.925-1.264-3.84 0v-20.288h16.634"/><path d="m5.667.511l-2.927 10.01-2.74 51.668c0 0 5.665 3.281 13.161 1.084 1.256-.369 2.176-.659 2.833-.889 0-.012 0-.025-.004-.035-.036-.292.004-.572.102-.839l2.37-40.714c0 0 2.924-1.264 3.84 0v-20.287h-16.635"/></g><g fill="#5e70b4"><path d="m3.328 62.19l2.743-51.67 2.922-10.01h-1.737l-2.922 10.01-2.742 51.67c0 0 3.571 2.063 8.791 1.818-4.258-.2-7.05-1.818-7.05-1.818"/><path d="m37.666 62.19l-2.742-51.67-2.924-10.01h1.737l2.925 10.01 2.742 51.67c0 0-3.571 2.063-8.793 1.818 4.258-.201 7.05-1.819 7.05-1.819"/><path d="m23.05.511c0 0 .739 9.55-.739 11.267l-.462-.429c0 0 1.307-3.26.652-10.467l.549-.371"/></g></g></svg>