<svg xmlns="http://www.w3.org/2000/svg" viewBox="0 0 64 64" enable-background="new 0 0 64 64"><g transform="translate(6)"><g fill="#e8a041"><path d="m4.794 28.658c-2.601.004-4.702 3.429-4.696 8.693.008 5.26 2.117 8.685 4.718 8.681 2.596-.004 9.01-3.437 8.999-8.698-.006-5.263-6.421-8.68-9.02-8.676"/><path d="m47.52 27.729c2.601.002 4.702 3.431 4.694 8.691-.006 5.264-2.115 8.685-4.716 8.683-2.599-.004-9.01-3.438-9-8.699.008-5.262 6.42-8.679 9.02-8.675"/></g><g fill="#fbb042"><path d="m49.23 39.631c0 15.64-10.256 23.465-22.911 23.465-12.654 0-22.911-7.825-22.911-23.465 0-15.64 10.256-33.17 22.911-33.17 12.655 0 22.911 17.534 22.911 33.17"/><path d="m41.35 49.17c0 9.905-6.727 14.862-15.03 14.862-8.3 0-15.03-4.957-15.03-14.862 0-9.904 6.727-21.01 15.03-21.01 8.302 0 15.03 11.11 15.03 21.01"/></g><path d="m56.15 18.712c-1.391-4.047-8.122-9.603-10.811-11.356.447-.511.905-1.171 1.521-2.121.267-.405.647-1.619-.13-1.546-5.9.563-11.681-.395-17.286-2.59-8.526-3.339-16.73 1.242-17.408 1.877-4.04 3.757-10.687 13.07-11.852 19.281-.283 1.5-.1 6.232 4.248.95.04 3.135-.679 6.735-.458 9.882.122 1.696 2.215 0 3.972-9.07 1.488-7.681 10.376-3.829 14.206-4.395 3.75 1.78 4.402.804 9.52-.909 9.612-3.215 12.835-.219 15.655 8.863-.035.001-.061.053-.061.159.002 1.783-.179 4.635 1.173 6.03.742.763 1.228-1.178 1.251-1.596.059-1.11-.234-2.21-.405-3.31 1.602-.301 3.694-1.418 3.331-1.764-4.103-3.883-2.262-3.671-3.042-7.321.564.39 6.983.136 6.576-1.056" fill="#e0cf35"/><g fill="#fff"><path d="m22.576 33.32c0 4.476-2.417 8.096-5.403 8.096-2.989 0-5.409-3.62-5.409-8.096 0-4.47 2.42-8.096 5.409-8.096 2.986 0 5.403 3.626 5.403 8.096"/><path d="m40.871 33.32c0 4.476-2.419 8.096-5.404 8.096-2.986 0-5.409-3.62-5.409-8.096 0-4.47 2.423-8.096 5.409-8.096 2.985 0 5.404 3.626 5.404 8.096"/></g><g fill="#25333a"><path d="m20.671 33.32c0 2.341-1.567 4.242-3.498 4.242-1.937 0-3.502-1.901-3.502-4.242 0-2.341 1.565-4.239 3.502-4.239 1.931 0 3.498 1.898 3.498 4.239"/><ellipse cx="35.465" cy="33.32" rx="3.498" ry="4.242"/></g><path d="m22.995 41.94c0-1.581 1.343-5.576 3.182-5.576 1.836 0 3.469 3.995 3.469 5.576 0 1.585-1.489 2.867-3.327 2.867-1.836 0-3.324-1.282-3.324-2.867" fill="#e8a041"/><g><path d="m41.728 46.88c0 8.183-6.948 14.821-15.518 14.821-8.56 0-15.51-6.639-15.51-14.821" fill="#633f1a"/><path d="m39.07 48.37c0 3.268-5.874 5.921-13.12 5.921-7.24 0-13.11-2.653-13.11-5.921" fill="#fff"/></g></g></svg>