<svg xmlns="http://www.w3.org/2000/svg" viewBox="0 0 64 64" enable-background="new 0 0 64 64"><path fill="#dd973a" d="m31.22 14.931c10.469 7.294 20.946 14.584 31.415 21.878.952.668.952 2.401 0 3.064-10.469 7.296-20.945 14.585-31.415 21.879-.968.676-2.21-.183-2.21-1.526 0-7.289 0-14.591 0-21.883 0-7.298 0-14.596 0-21.889 0-1.348 1.242-2.207 2.21-1.523"/><path fill="#faad40" d="m30.881 14.895c8.864 6.179 17.729 12.349 26.594 18.524.803.561.803 2.026 0 2.592-8.864 6.179-17.729 12.35-26.594 18.524-.818.569-1.873-.154-1.873-1.294 0-6.175 0-12.358 0-18.528 0-6.171 0-12.354 0-18.528 0-1.14 1.055-1.864 1.873-1.29"/><g fill="#e29b40"><path d="m63.34 29.01c0 3.801 0 7.599 0 11.396 0 2.418 0 4.837 0 7.255 0 .154-.086.281-.191.281-2.597 0-5.197 0-7.798 0-1.486 0-2.972 0-4.462 0-.101 0-.191-.127-.191-.281 0-3.803 0-7.6 0-11.397 0-2.418 0-4.836 0-7.253 0-.082.025-.143.053-.191l.009-.004c0-.008 0-.008.004-.012.029-.041.073-.073.126-.073 2.605 0 5.198 0 7.8 0 1.484 0 2.974 0 4.46 0 .104-.002.19.129.19.279"/><path d="m58.07 47.13c0 2.157 0 4.306 0 6.459 0 1.373 0 2.74 0 4.112 0 .089-.036.158-.081.158-1.123 0-2.251 0-3.378 0-.644 0-1.286 0-1.93 0-.045 0-.082-.069-.082-.158 0-2.153 0-4.307 0-6.459 0-1.372 0-2.74 0-4.112 0-.045.009-.08.021-.109h.005c0-.004 0-.004.004-.009.013-.023.032-.04.053-.04 1.128 0 2.251 0 3.374 0 .647 0 1.29 0 1.934 0 .044 0 .08.074.08.158"/><path d="m37.34 38.34c0 13.06-3.479 23.648-7.773 23.648s-7.774-10.586-7.774-23.648c0-13.06 3.48-23.644 7.774-23.644s7.773 10.587 7.773 23.644"/></g><path fill="#c2853a" d="m36.428 38.34c0 11.524-3.068 20.864-6.857 20.864-3.79 0-6.862-9.34-6.862-20.864 0-11.527 3.073-20.868 6.862-20.868 3.788 0 6.857 9.341 6.857 20.868"/><g fill="#faad40"><circle cx="27.527" cy="38.97" r="4.819"/><path d="m8.442 58.74c0-.933 0-1.86 0-2.784 0-.143-.037-.244-.049-.37-.012-.139-.017-.281-.049-.42-.057-.239-.134-.432-.231-.602-.021-.042-.024-.082-.045-.122-3.903-6.705-4.799-15.485-2.227-23.857 1.38-4.498 2.601-4.124 2.601-8.935 0-1.965-1.364-2.698-2.182-1.51-7.477 10.852-7.477 29.25 0 40.1.818 1.191 2.182.458 2.182-1.504"/><path d="m19.814 55.45c0-.758 0-1.526 0-2.279 0-.122-.024-.2-.037-.31-.008-.11-.013-.232-.041-.346-.045-.192-.11-.35-.191-.492-.016-.033-.021-.07-.037-.103-3.215-5.515-3.944-12.741-1.828-19.63 1.135-3.697 2.133-3.396 2.133-7.352 0-1.62-1.119-2.223-1.791-1.245-6.154 8.935-6.154 24.07 0 33.01.673.977 1.792.371 1.792-1.249"/></g></svg>