<svg xmlns="http://www.w3.org/2000/svg" viewBox="0 0 64 64" enable-background="new 0 0 64 64"><path fill="#1b75bb" d="M64.166,57.248c0,3.823-3.095,6.922-6.918,6.922H6.914C3.096,64.17,0,61.071,0,57.248V6.918    C0,3.098,3.096,0,6.914,0h50.334c3.823,0,6.918,3.098,6.918,6.918V57.248z"/><path fill="#0867a3" d="m0 48.859v8.389c0 3.823 3.096 6.922 6.914 6.922h50.33c3.823 0 6.918-3.099 6.918-6.922v-50.33c-10.958 39.801-50.35 42.32-64.17 41.941"/><g fill="#fff"><path d="m48.48 52.25c-.156 2.317-1.171 4.253-2.557 5.101h-27.674c-1.39-.852-2.405-2.791-2.559-5.112l16.337-22.434 16.453 22.445"/><path d="m48.48 29.27c-.156 2.318-1.171 4.253-2.557 5.101h-27.674c-1.39-.852-2.405-2.791-2.559-5.112l16.338-22.435 16.452 22.446"/></g></svg>