<svg id="Layer_1" data-name="Layer 1" xmlns="http://www.w3.org/2000/svg" viewBox="0 0 65.3 75.17798">
  <path d="M15.5,70c1.4-.6,2.6-2.3,3.4-5.4a9.36271,9.36271,0,0,0,.4-1.6c.1-1-1.5-2.5-2.1-3.5-2.2-3-3.9-1.5-4.3-1.8-.7-.6-1.4-1.3-2.8-2.5-.9-.8-3-2.3-3.2-.7S9.7,58.4,9.3,59l-.1.1c-.4,0-1.1,0-1.3.5l-.2,1a.95919.95919,0,0,0,.2.9.30417.30417,0,0,1,0,.4h0c-.3.1-.4.4-.4.8v1.1a.89069.89069,0,0,0,.5.8.48093.48093,0,0,1,.2.6,1.26833,1.26833,0,0,0-.1.6,2.01582,2.01582,0,0,0,.3,1.1,8.94285,8.94285,0,0,0,4.4,3" style="fill: #fdd5a6"/>
  <path d="M12.9,57.7c-.7-.6-1.4-1.3-2.8-2.5-.9-.8-3-2.3-3.2-.7S9.7,58.4,9.3,59l-.1.1h1.2v-.3A7.956,7.956,0,0,1,12.9,57.7Z" style="fill: #fbbf88"/>
  <path d="M18.1,70a5.70374,5.70374,0,0,0,0-2.6s-2.5-.6-2.8-2.8c-.5-4.3-1.3-3.3-1.9-3.4a6.28235,6.28235,0,0,1,.2,3.6A3.04808,3.04808,0,0,1,12.4,67c-.9.6-2.4.4-3.7.3.4.8,2.2,1.9,3.9,2.7" style="fill: #fbbf88"/>
  <path d="M21.1,70l2-4.6s3.5-4.9,2.2-4.2c-2.4,2.1-6.1.8-6.1.8s.8,5.3-6.9,8" style="fill: #815a37"/>
  <path d="M10.6,59c-.3-.6.1,1.5,1.3,2.1a3.63016,3.63016,0,0,0,2.3.1A4.38706,4.38706,0,0,1,10.6,59Z" style="fill: #dcad84"/>
  <path d="M39.1,70.8c.3-5.9.4-12.1.4-12.1l-12.4,2A40.99046,40.99046,0,0,0,22.3,70s6,0,11.2.1l5.6.7" style="fill: #163860"/>
  <path d="M22,70l3.2-6.9,1.6-2.3.3.7A64.23,64.23,0,0,0,23.4,70" style="fill: #0c233b"/>
  <path d="M31.6,66.8h0l-.1.2h0l.1-.2Z" style="fill: #0c233b"/>
  <path d="M32.1,66.3l-.2.2h0l.2-.2Z" style="fill: #0c233b"/>
  <path d="M30.6,67.9h0l-.1.1h0l.1-.1Z" style="fill: #0c233b"/>
  <path d="M34.6,63.9l-.2.1h0l.2-.1Z" style="fill: #0c233b"/>
  <path d="M33,65.3h0l-.1.2h0l.1-.2Z" style="fill: #0c233b"/>
  <path d="M32.6,65.8l-.2.2h0l.2-.2Z" style="fill: #0c233b"/>
  <path d="M28.7,66.7h0l.1.2h0Z" style="fill: #0c233b"/>
  <path d="M29.1,67.3h0l.1.2h0Z" style="fill: #0c233b"/>
  <path d="M28.6,66.4h0l.1.2h0Z" style="fill: #0c233b"/>
  <path d="M28.9,67h0l.1.2h0Z" style="fill: #0c233b"/>
  <path d="M28.2,65.4h0l.1.2h0Z" style="fill: #0c233b"/>
  <path d="M28,65.1h0l.1.2h0Z" style="fill: #0c233b"/>
  <path d="M27.9,64.8h0l.1.2h0Z" style="fill: #0c233b"/>
  <path d="M28.3,65.8h0l.1.2h0Z" style="fill: #0c233b"/>
  <path d="M28.4,66.1h0l.1.2h0Z" style="fill: #0c233b"/>
  <path d="M34.9,61.9l-4.3,4.7-1.7-2s-.7-3.5,0-5.2l.4-.8,5.9.7Z" style="fill: #dadad9"/>
  <path d="M38.3,56.2h1.8l-.2,1.7-4.4,7.7-2.9-5.5-.7-.5-4.4,5a13.21107,13.21107,0,0,1-.6-4.8c.1-1,0-1.8.7-2.2C27.7,57.6,34,61.8,38.3,56.2Z" style="fill: #fff"/>
  <path d="M31.4,60.3l-2.6,3.9A5.94869,5.94869,0,0,0,30,67.3s2-2.2,2.8-3.1V60.3Z" style="fill: #159ad6"/>
  <path d="M31.1,60.8a1.51411,1.51411,0,0,0,1.7.2v-.5l-1.4-.1Z" style="fill: #1580af"/>
  <path d="M21.1,70c1.2-3.5,3.6-8.8,6-11.2l.6.9A64.315,64.315,0,0,0,22.9,70Z" style="fill: #815a37"/>
  <polygon points="32.8 60.4 33 64 32.8 64.2 32.8 60.4" style="fill: #c1c0bd"/>
  <path d="M40,55.9s7-2,7.3-1.8a67.32894,67.32894,0,0,0,3,16.7H38.8C39.3,63.9,40,55.9,40,55.9Z" style="fill: #815a37"/>
  <path d="M40,57.5l1.5-.2a12.307,12.307,0,0,0,2.2,6.4s-3.6,1.4-4.4,2.7l3.4-.4A36.10936,36.10936,0,0,1,41,70.6H38.9Z" style="fill: #472a16"/>
  <path d="M39.3,57.4l1.3-1A13.8959,13.8959,0,0,0,42.4,63s-2.7,1.8-3.1,3.4l3.8-.6a47.39288,47.39288,0,0,0-2.6,5H38.6Z" style="fill: #693521"/>
  <path d="M28.7,63.5a25.14185,25.14185,0,0,0,1.7-2.3l-1.8,2A.774.774,0,0,1,28.7,63.5Z" style="fill: #c1c0bd"/>
  <polygon points="39.2 59.5 35.5 65.6 39.1 59.3 39.2 59.5" style="fill: #0c233b"/>
  <path d="M28.8,64.2l.1-.2A8.065,8.065,0,0,0,30,67.3,5.13483,5.13483,0,0,1,28.8,64.2Z" style="fill: #1580af"/>
  <path d="M28.7,63.5c-.3.3-.9.8-1.2,1.1l1.2-1.4Z" style="fill: #0c233b"/>
  <path d="M33.7,59.7c0,.6-.7,1-1.6,1s-1.6-.5-1.6-1c0-.9.7-1,1.6-1S33.7,58.8,33.7,59.7Z" style="fill: #159ad6"/>
  <path d="M43.6,75.1c-1,.2-2-1.9-2-1.9L44.3,72C44.4,72,44.6,74.9,43.6,75.1Z" style="fill: #5b4026"/>
  <path d="M38.7,66.4c-3.9.3-10,1.6-10.3,4.3h0c-.2,2.7,14.8,2,14.8,2a11.69654,11.69654,0,0,0,.5-2C43.8,68.8,43.2,66.1,38.7,66.4Z" style="fill: #fcd7a9"/>
  <path d="M39.2,66.4s2.8.3,3.5,1.7a3.44051,3.44051,0,0,1,.5,2.6c-.6,1.7-3.3,2-5.1,2-3.3,0-8.3-1.1-9.7-2h0c-.2,1.5,5.2,3.6,9.5,3.9,2.8.2,3-1.8,6.8-1.2a8.4226,8.4226,0,0,0,.4-2.7C45,68.6,44,65.9,39.2,66.4Z" style="fill: #dbac83"/>
  <path d="M44.1,70.8a7.04556,7.04556,0,0,1-.7,4.3c3.8.6,10.5-2.4,11.9-4.3a.75814.75814,0,0,0,.2-.4c.6-2-.8-6.2-2.7-10.1a15.92968,15.92968,0,0,0-5.6-6.2L45.5,64.7c-5,.6-6.2,1.7-6.2,1.7C42.6,66.2,43.9,68.5,44.1,70.8Z" style="fill: #815a37"/>
  <path d="M46.7,59.7s-.8,3.8-.9,5c0,0-2.2-.4-6.5,1.7a12.32368,12.32368,0,0,1,6.1-2.3A31.91441,31.91441,0,0,1,46.7,59.7Z" style="fill: #5b4026"/>
  <path d="M38.3,54.2l.2,2.4A7.51578,7.51578,0,0,1,31.8,60c-1.8-.1-4.2-.8-4.4-1.8a4.875,4.875,0,0,1,0-2.4Z" style="fill: #fdd5a6"/>
  <path d="M37.6,57.7a19.45912,19.45912,0,0,1-10.7-.1l.1-1.5,10.8-1.6Z" style="fill: #cdad87"/>
  <ellipse cx="36.6" cy="55" rx="10.5" ry="3.9" style="fill: #5b4026"/>
  <path d="M19.1,50.1c-2.1-3.3-7.2,1-8.6,2.2s.5-3.4,2.3-4c0,0-4.1-.2-4.7,2.7A5.562,5.562,0,0,1,10,45.9s-4.1,3.4-5,4.8a15.74976,15.74976,0,0,1,.4-2l-3.1.5s-.8-7.9,4.6-9.4-.4-.7-.4-.7S4.9,36.2.1,37.4c0,0,2.1-16.4,12-17.6,0,0-.9-3.5-4.4-2.8,0,0,.5-1.8,2-1.8L6.9,13.8s8.5-4.9,15.4,2.6c0,0,2.4-11,2.4-12.4s.1-3-.4-3.8c0,0,3.3.6,3.3,2.1a1.70983,1.70983,0,0,0-.5-2s5.6,2.3,5.1,5L32.6,3s1.7.9,1.8,1.9.4-2.4.4-2.4,5.7,2.2,6,10.5c0,0,14.7-5.5,19.6,9.4l-3.7-.7s2.9,1.2,3.3,3.1c0,0,4.5,1.2,4.5,12.4,0,0-1.1-4.6-4.5-5.2,0,0,5,2.1,5.3,12.6a11.25814,11.25814,0,0,0-3.5-2.1s3.7,2.3,2.3,8.2c0,0-.6-1.5-3.5-1.8L61,50l-2.2-1.1s-7.1.6-8.9,2.7c0,0-.3-2.8-2.5-1.4Z" style="fill: #f6f7f7"/>
  <path d="M51.9,45.2c-.5,6.2-4.6,12.6-13.1,12.3-1.8,0-3.5.4-5.4.3-7.5-.6-14.8.4-15.7-10.3,0-.2-.1-.3-.2-.5a11.41408,11.41408,0,0,1-.6-4.5c.6-7.7,9.3-13.5,19-12.7a23.00769,23.00769,0,0,1,5.1,1C47.9,33.1,52.4,38.9,51.9,45.2Z" style="fill: #fcd4a9"/>
  <path d="M28.3,30.5a21.66745,21.66745,0,0,1,7.6-.8,23.00769,23.00769,0,0,1,5.1,1c7,2.4,11.5,8.2,11,14.4-.2,2.8-2.2,12-12.4,12.4,0,0,13.8-9.3,2-19.5A43.83116,43.83116,0,0,0,28.3,30.5Z" style="fill: #fbc18d"/>
  <path d="M26.3,43.9s.4-2.9-1.6-2.6a.99227.99227,0,0,1,.5,1.3s-1.1-3.3-5.4,0c0,0,1.4-.5,1.9-.2,0,0-1.9.2-2,1.2,0,0,.8-.2,1.1.1,0,0-1.2,1,.5,2.3C21.3,45.9,24.1,43.4,26.3,43.9Z" style="fill: #e8e7e6"/>
  <ellipse cx="24.6126" cy="47.88918" rx="2.10002" ry="1.40001" transform="translate(-25.01271 68.78133) rotate(-85.63012)" style="fill: #232221"/>
  <ellipse cx="38.4327" cy="47.70535" rx="2.10001" ry="1.40001" transform="translate(-12.06234 82.39142) rotate(-85.63012)" style="fill: #232221"/>
  <path d="M38.1,44.8s3.2,0,4.7,1.6c0,0,2.2-1-.2-2.2a1.67241,1.67241,0,0,1,1.2.1s0-1.5-2.4-1.4a1.80991,1.80991,0,0,1,1.6-.1s-2.2-2.3-3.7-.2a1.72221,1.72221,0,0,1,1-1.2c-.8,0-3.4-.2-3.1,3.2Z" style="fill: #e8e7e6"/>
  <path d="M44.1,70.8a7.04556,7.04556,0,0,1-.7,4.3c3.8.6,10.5-2.4,11.9-4.3a.75814.75814,0,0,0,.2-.4,31.5457,31.5457,0,0,1-6.1,1.3A24.50028,24.50028,0,0,1,44.1,70.8Z" style="fill: #744e31"/>
  <path d="M21.7,70a72.95551,72.95551,0,0,1,5.6-9.8.96667.96667,0,0,0,0-1.4s-4.6,3.5-4.7,3.6l-.1,1.5-1.1.9s-.6,2.7-1,5.2" style="fill: #693521"/>
  <path d="M28.8,51.9c-2-1.6-8.2-2.8-7.5,7.2,0,0,.4-1.6,1.4-1.5,0,0-.4,2.5.9,3,0,0,.6-2.5,1.6-1.9,0,0,1.8,3,3.5,3.2,0,0-.4-2.1.7-2.2l1.7,2.5,1.6-2.8s1.1,1.3.4,1.8A1.85828,1.85828,0,0,0,35,59.6s1.9.7,1.5,2.3a3.18885,3.18885,0,0,0,1.4-2.7l1.6,2,.4-3.3s2.6,1,2.6,2.1A5.09012,5.09012,0,0,0,41,55.2l2.6.5s-5.7-6.6-10.4-3.1C32.4,53.2,31.5,54,28.8,51.9Z" style="fill: #e8e7e6"/>
  <path d="M35.7,55s6.5.1,6.8,4.9C42.4,59.9,40,55.5,35.7,55Z" style="fill: #dadbd9"/>
  <path d="M28.7,61.9s-.1-4.7,1.8-5.9C30.5,56,26.6,57.3,28.7,61.9Z" style="fill: #dadbd9"/>
  <path d="M36.4,62s1.1-3.2-.7-4.3C35.7,57.7,39,58.6,36.4,62Z" style="fill: #dadbd9"/>
  <path d="M31.1,62.2s1.6-3.5,1.3-5.1a2.21977,2.21977,0,0,1,.5,1.1C33,59.1,32.8,60.5,31.1,62.2Z" style="fill: #dadbd9"/>
  <path d="M31.9,55.6s1.6,3.2.6,4l.1.5a.96886.96886,0,0,1,.7.8C33.3,61,34.4,58.3,31.9,55.6Z" style="fill: #dadbd9"/>
  <path d="M28.7,61.8s-2.8-4.3-.5-6.2c0,0-4,3.3.6,6.4" style="fill: #dadbd9"/>
  <path d="M23.6,60.6s1-3.4,2.6-3.5C26.2,57.1,22.5,56.2,23.6,60.6Z" style="fill: #dadbd9"/>
  <path d="M21.4,59.1a2.83532,2.83532,0,0,1,2.8-1.7L25,57C24.9,57.1,21.8,55.8,21.4,59.1Z" style="fill: #dadbd9"/>
  <path d="M30.2,54.2s-6.4-6-8.3,1.5c0,0,1.4-2.9,3.3-2.6,0,0-1,.4-1,1.3C24.3,54.4,26.1,52.4,30.2,54.2Z" style="fill: #dadbd9"/>
  <path d="M32.6,53.8s4.7-3,8.2.4C40.7,54.2,38.2,52.5,32.6,53.8Z" style="fill: #dadbd9"/>
  <path d="M19,50.1s-.2-10.2,2.3-10.2c0,0,1.1,1.8,1.9,1.9.2,0,0-5.2,2.9-6.4,0,0,9.2,5.1,10.6,3-.3-.2-3.6-2-3.2-3.5.2-.8,7.4,0,9.8,7.7.5.4,1.7-1.1,2.2-3.1.8-3.7,2.1,6.9,2.1,7.1s1-.2,1.8-1.1-.4,5.7-.7,6.4c1.8-1.2,3.1-1.2,3.8-6.4.6-4.7-2.9-11-6.8-13.6-3.2-2.1-10.5-3.8-19.6-1.1C15.2,34,16.6,43.5,16.7,45,16.9,47.6,18.9,49.3,19,50.1Z" style="fill: #f6f7f7"/>
  <path d="M19,48.4s-2.4-2.6-6.5.7c0,0,5.8-1.1,6.5,1Z" style="fill: #e8e7e6"/>
  <path d="M8.5,45.1c4.3-2.6,6.6-1.2,6.6-1.2-4.6-.2-5.3,3.5-5.3,3.5A10.31021,10.31021,0,0,1,19.1,46l.1-1.4h0l.2-1.4C12.5,39.8,8.5,45.1,8.5,45.1Z" style="fill: #e8e7e6"/>
  <path d="M6.6,37.2s8.9-4.5,14.6,2.7A18.30144,18.30144,0,0,0,6.6,37.2Z" style="fill: #e8e7e6"/>
  <path d="M42.7,15.1S55,11.7,60.3,22.2C60.3,22.2,53.9,13.5,42.7,15.1Z" style="fill: #e8e7e6"/>
  <path d="M64.4,37.2s-.3-10.4-5.2-11a6.83987,6.83987,0,0,0-2.5-4.6s2.7,1.1,3.1,3C59.9,24.6,65.2,25.9,64.4,37.2Z" style="fill: #e8e7e6"/>
  <path d="M41.1,15.9S38.8,5.3,34.8,2.4c0,0,6,2.2,6,10.5Z" style="fill: #e8e7e6"/>
  <path d="M10,13.6S20.8,10.3,26.6,25A23.69,23.69,0,0,0,10,13.6Z" style="fill: #e8e7e6"/>
  <path d="M10,16.4s3.8-.5,5.1,4.4C15,20.8,15.7,14.1,10,16.4Z" style="fill: #e8e7e6"/>
  <path d="M0,37.2S4.7,22.7,12,19.8C12,19.8,2.6,19.9,0,37.2Z" style="fill: #e8e7e6"/>
  <path d="M25.5,35.3c-3.2-1.2-10.9-5.1-9.3-10,0,0-3.5,5.1,3.5,8,0,0-4.1-1.1-5.7.1,0,0,6.7,1,10.7,3.2a3.49114,3.49114,0,0,1,1.5-1.2C26.1,35.4,25.6,35.4,25.5,35.3Z" style="fill: #e8e7e6"/>
  <path d="M36.7,38.4S24.1,31.7,32.2,31C32.2,31,17.8,29.1,36.7,38.4Z" style="fill: #e8e7e6"/>
  <path d="M36.7,38.4s-.7,2.3-9.2-2.2C27.5,36.2,34.1,38.8,36.7,38.4Z" style="fill: #e8e7e6"/>
  <path d="M24.2,0s1.3,2.5-2,16.3C22.2,16.3,30.1,4.2,24.2,0Z" style="fill: #e8e7e6"/>
  <path d="M38.7,25.4s4.7-4.6,8.7-2.9a7.03446,7.03446,0,0,0-7.6-1.1,11.81483,11.81483,0,0,1,2.9-1.6s-2.7-.1-3.6.6c0,0-1.7-4.7-11-2.5C28.1,17.8,38.1,17,38.7,25.4Z" style="fill: #e8e7e6"/>
  <path d="M53.6,32.6A10.68229,10.68229,0,0,0,55.3,28c.8-5-4.8-3.5-4.8-3.5s4.3-.4,3.8,3.2-6.7,7-6.7,7c.5-2.2.5-4.7-1.7-5.9,0,0,1.6,4-1.1,10.8-.6-12-8-11.4-8-11.4C43,29.7,44,40.1,44,41.3a8.26486,8.26486,0,0,1-.7,1.3s1,1.2,2.5-3.7l.7,1.8c4.5-9.8,14.8-6.1,14.8-6.1C59.8,31.6,55.1,32.2,53.6,32.6Z" style="fill: #e8e7e6"/>
  <path d="M37.4,16.3c-2.2-2.1-4.6-4.7-5-6.7A14.47271,14.47271,0,0,1,32.3,6C32.6,3,31,1.3,26.9.1c0,0,3.4,1.7,3.5,8.5A10.76576,10.76576,0,0,0,28,6.8c2.2,1.6,1.5,3.5,2.3,4.7S37.4,16.3,37.4,16.3Z" style="fill: #e8e7e6"/>
  <path d="M63,35c.7.2,2.1,4.9,2.2,9.4a11.25814,11.25814,0,0,0-3.5-2.1s3.7,2.3,2.3,8.2c0,0-.6-1.5-3.5-1.8l.4,1.1-2.2-1.1S50.4,50,48.5,52.2c0,0,1.2-6.9.8-6.5-1.2,1.2-1.7,1-1.7,1s-.2-1.7-1-6C46.4,39.1,51.5,31,63,35Z" style="fill: #ebecec"/>
  <path d="M55.4,47.7a5.04345,5.04345,0,0,1,5.5,1c.2.2.1,1.2.1,1.2l-2.2-1.1s-8.1,2-10.3,3.5A15.58575,15.58575,0,0,1,55.4,47.7Z" style="fill: #e8e7e6"/>
  <path d="M52.8,45.1a4.8026,4.8026,0,0,0,4.5-3.7,15.94978,15.94978,0,0,0,.7-3.8s1.2,5.3.2,6.3a6.96188,6.96188,0,0,1,5.9,6.7s-3.3-5-11.4-4.3a16.65376,16.65376,0,0,0-3.2.8V45.8Z" style="fill: #e8e7e6"/>
  <path d="M65.2,44.5s-2-6.9-4.7-6.8C60.5,37.7,64.5,36,65.2,44.5Z" style="fill: #e8e7e6"/>
  <path d="M54.7,64.9A15.42715,15.42715,0,0,0,52,70.7a9.85551,9.85551,0,0,0,.1,2.4,8.31526,8.31526,0,0,0,3.3-2.4h0c.1-.1.1-.3.2-.4C56.2,68.6,54.7,64.9,54.7,64.9Z" style="fill: #45413e"/>
</svg>
