<svg xmlns="http://www.w3.org/2000/svg" viewBox="117 265 239 235"><g fill-rule="evenodd"><path fill="#0080f5" d="M116.38 262.2h239.97v240H116.38v-240z"/><path fill="#fff" d="M255.1 423.03a71.96 71.96 0 0 0-36.54 1.43v-36.04h36.56v34.6zm18.75 6.95v-60.26H199.8v63.6l-.2.14h-36.36V332.18H273.5s36.9.17 36.9 35.65v65.6l-30.78.04c-1.87-1.25-3.8-2.42-5.77-3.5"/><path fill="#a6d3fc" d="M125.75 491.55v-33.3c4.5-1.93 9.34-3.16 14.4-3.58v.07c.87-.12 1.8-.18 2.78-.22l1.14-.03c1.23 0 2.45 0 3.65.1 3.16.2 6.5.8 9.65 1.7-.28 1.2.08 0 .08 0l-.08-.05.07-.25c-1-1.6-3.42-3.83-6.3-5.67 7.14-7.7 17.32-12.5 28.64-12.5 3.9 0 7.65.57 11.2 1.63-2 3.9-3.6 8.75-3.78 12.7l.15.14h-.02s1.02.9.02 0c4.03-5.37 6.65-8.16 9.46-10.56l.1.02c.7-.6 1.3-1.2 2-1.77 1-.8 2.1-1.6 3.3-2.5 10.6-7.65 23.5-12.17 37.5-12.17 15.7 0 30.1 5.65 41.3 15.03-1.36 2.4-2.24 5.52-2.8 8.02l.23.3-.07.05s.68.84.07-.05c2.3-1.74 4.85-3.03 7.1-4.1 3.8-1.6 7.96-2.46 12.33-2.46 12.6 0 23.47 7.3 28.64 17.9l.5 1.1.13.35c.87 2.04 1.6 4.45 2.1 7.46-1.23.2.05.1.05.1l-.02-.1h.26c1.3-2.07 2.5-5.84 2.8-9.3 4.5-2.47 9.5-4.2 14.8-5.07v36.8H125.8z"/></g></svg>