<?xml version="1.0" encoding="utf-8"?>
<!-- Generator: Adobe Illustrator 21.1.0, SVG Export Plug-In . SVG Version: 6.00 Build 0)  -->
<svg version="1.1" id="Layer_1" xmlns="http://www.w3.org/2000/svg" xmlns:xlink="http://www.w3.org/1999/xlink" x="0px" y="0px"
	 width="52px" height="52px" viewBox="0 0 52 52" enable-background="new 0 0 52 52" xml:space="preserve">
<g id="drag_1_">
	<path id="Combined-Shape_5_" fill="#FFFFFF" d="M20,4c2.2,0,4,1.8,4,4s-1.8,4-4,4s-4-1.8-4-4S17.8,4,20,4z M32,4c2.2,0,4,1.8,4,4
		s-1.8,4-4,4s-4-1.8-4-4S29.8,4,32,4z M20,16c2.2,0,4,1.8,4,4s-1.8,4-4,4s-4-1.8-4-4S17.8,16,20,16z M32,16c2.2,0,4,1.8,4,4
		s-1.8,4-4,4s-4-1.8-4-4S29.8,16,32,16z M20,28c2.2,0,4,1.8,4,4s-1.8,4-4,4s-4-1.8-4-4S17.8,28,20,28z M32,28c2.2,0,4,1.8,4,4
		s-1.8,4-4,4s-4-1.8-4-4S29.8,28,32,28z M20,40c2.2,0,4,1.8,4,4s-1.8,4-4,4s-4-1.8-4-4S17.8,40,20,40z M32,40c2.2,0,4,1.8,4,4
		s-1.8,4-4,4s-4-1.8-4-4S29.8,40,32,40z"/>
</g>
</svg>
