<?xml version="1.0" encoding="utf-8"?>
<!-- Generator: Adobe Illustrator 21.1.0, SVG Export Plug-In . SVG Version: 6.00 Build 0)  -->
<svg version="1.1" id="Layer_1" xmlns="http://www.w3.org/2000/svg" xmlns:xlink="http://www.w3.org/1999/xlink" x="0px" y="0px"
	 width="52px" height="52px" viewBox="0 0 52 52" enable-background="new 0 0 52 52" xml:space="preserve">
<g>
	<g>
		<path fill="#FFFFFF" d="M18.1,36.9l9.4-9.5l0.7-0.7l8.4-8.4l3.7-3.7l4.1-4.1c0.7-0.6,0.8-1.5,0.3-2l-1.8-1.8
			c-0.4-0.4-1.1-0.4-1.7-0.1L6.7,40.9L6.7,41c-0.6,0.6-0.7,1.5-0.3,2l1.8,1.8c0.5,0.5,1.4,0.4,2-0.3l4-4
			C14.2,40.6,18.1,36.9,18.1,36.9z"/>
	</g>
	<path fill="#FFFFFF" d="M18.4,23.1c-0.5,0-0.8,0.4-1,0.8c-0.1,0.6-0.1,1.2-0.1,1.8c0,0.4,0,0.8,0.1,1.2l3.8-3.8H18.4z"/>
	<path fill="#FFFFFF" d="M8.3,36l4-4c-2.8-0.6-5-3-5.2-5.8c-0.3-3.8,2.8-6.9,6.5-6.9h9.1c0.7,0,1.4,0.1,2.1,0.4l3.9-3.9
		c-0.9-0.5-1.8-1-2.7-1.2c-1-0.3-2.2-0.5-3.2-0.5h-8.7C7.5,14,2.1,18.9,1.9,25.2C1.7,29.9,4.3,34,8.3,36z"/>
	<path fill="#FFFFFF" d="M43.1,15.3l-4,4c2.9,0.5,5.2,2.9,5.4,5.9c0.3,3.8-2.8,6.9-6.5,6.9H29c-0.8,0-1.6-0.2-2.3-0.4l-3.9,3.9
		c0.9,0.6,1.8,1,2.8,1.3c1,0.3,2.2,0.5,3.2,0.5H38c6.6,0.1,11.9-5.4,11.7-12C49.5,20.8,46.8,17.1,43.1,15.3z"/>
	<path fill="#FFFFFF" d="M30.1,28.3h3c0.5,0,0.8-0.4,1-0.8c0.1-0.6,0.1-1.2,0.1-1.8c0-0.5,0-0.9-0.1-1.4L30.1,28.3z"/>
</g>
</svg>
