<?xml version="1.0" encoding="UTF-8"?><svg xmlns="http://www.w3.org/2000/svg" width="20" height="20" viewBox="0 0 20 20"><title>
		user temporary
	</title><path d="M2 16c0-2 2.083-5 8-5 .356 0 .698.01 1.026.032l-.276 1.986A15.24 15.24 0 0 0 10 13v4h4v2h-2v-2h-2v2H2v-3Zm8-6a4.5 4.5 0 1 1 .878-8.914l-.388 1.962A2.521 2.521 0 0 0 10 3v5c.17 0 .333-.017.49-.048l.388 1.962A4.52 4.52 0 0 1 10 10Zm2.933 1.29c.69.149 1.3.35 1.834.59l-1.051 1.713a7.336 7.336 0 0 0-1.218-.36l.435-1.944ZM16 19v-2h2v2h-2Zm1.84-4h-2.228a3.204 3.204 0 0 0-.49-.557l1.238-1.577c.78.66 1.254 1.416 1.48 2.134ZM12.5 1.758 11.387 3.42c.274.183.51.419.693.693L13.742 3A4.525 4.525 0 0 0 12.5 1.758Zm1.914 2.864-1.962.388a2.524 2.524 0 0 1 0 .98l1.962.388a4.521 4.521 0 0 0 0-1.756ZM13.742 8 12.08 6.887c-.183.274-.419.51-.693.693L12.5 9.242c.49-.329.913-.751 1.242-1.242Z"/></svg>
