<?xml version="1.0"?><svg xmlns="http://www.w3.org/2000/svg" width="100" height="100" viewBox="0 0 100 100"><path fill="#fff" d="m67 46c-1.7 0-3.1-1.4-3-3.2 0.1-1.6 1.5-2.8 3.2-2.8h8.6c0.4 0 0.7-0.2 0.9-0.5 0.8-1.4 1.4-2.8 1.9-4.1 0.2-0.7-0.2-1.4-0.9-1.4h-6.4c-1.6 0-3.1-1.2-3.2-2.8-0.1-1.7 1.3-3.2 3-3.2h8c0.6 0 1-0.4 1-1v-3c0-1.1-0.9-2-2-2h-10.7c-3 0-5.4 2.4-5.4 5.4v0.1c0 5.6-3.7 10.6-9 12v-8.3c2.1-1.2 3.4-3.5 3-6.2-0.4-2.6-2.6-4.7-5.2-5-3.6-0.4-6.7 2.4-6.7 6 0 2.2 1.2 4.1 3 5.2v8.4c-5.3-1.4-9-6.4-9-12v-0.1c0-3-2.4-5.4-5.4-5.4h-10.7c-1.1 0-2 0.9-2 2v3c0 0.6 0.4 1 1 1h7.8c1.6 0 3.1 1.2 3.2 2.8 0.1 1.7-1.3 3.2-3 3.2h-6.5c-0.7 0-1.2 0.7-0.9 1.4 0.5 1.3 1.1 2.7 1.9 4.1 0.2 0.3 0.5 0.5 0.9 0.5h8.6c1.6 0 3.1 1.2 3.2 2.8 0.1 1.7-1.3 3.2-3 3.2h-2.4c-0.9 0-1.4 1.2-0.6 1.8 4.2 3.6 9.8 6.2 17 6.2v22.8c0 1.6 1.2 3.1 2.8 3.2 1.7 0.1 3.2-1.3 3.2-3v-23.1c7.2 0 12.8-2.6 17-6.2 0.7-0.6 0.3-1.8-0.6-1.8h-2.6z"></path></svg>