<?xml version="1.0"?><svg xmlns="http://www.w3.org/2000/svg" width="100" height="100" viewBox="0 0 100 100"><g fill="#fff"><path d="m79.9 35.1c0.2-3.2 0-6.4-0.5-9.5-0.4-2.6-2.4-4.6-5-5-3.2-0.5-6.3-0.7-9.5-0.5-0.9 0-1.3 1.1-0.7 1.7l14 14c0.6 0.6 1.7 0.1 1.7-0.7z m-23.6-12.8c-0.5-0.5-1.3-0.7-1.9-0.5-7.5 2.1-14.7 6.1-20.6 12.1-5.8 5.8-9.7 12.7-11.9 20-0.2 0.7 0 1.5 0.5 2l21.8 21.8c0.5 0.5 1.3 0.7 2 0.5 7.3-2.2 14.2-6.1 20-11.9 5.9-5.9 10-13 12.1-20.6 0.2-0.7 0-1.4-0.5-1.9l-21.5-21.5z m-8.4 39.3c-1.2 1.2-3.1 1.2-4.2 0l-5.6-5.6c-1.2-1.2-1.2-3.1 0-4.2 1.2-1.2 3.1-1.2 4.2 0l5.6 5.6c1.2 1.1 1.2 3 0 4.2z m7-7c-1.2 1.2-3.1 1.2-4.2 0l-5.6-5.6c-1.2-1.2-1.2-3.1 0-4.2 1.2-1.2 3.1-1.2 4.2 0l5.6 5.6c1.2 1.1 1.2 3 0 4.2z m7-7.1c-1.2 1.2-3.1 1.2-4.2 0l-5.6-5.6c-1.2-1.2-1.2-3.1 0-4.2 1.2-1.2 3.1-1.2 4.2 0l5.6 5.6c1.2 1.2 1.2 3.1 0 4.2z m-41.8 16.8c-0.2 3.4-0.1 6.8 0.5 10.2 0.4 2.6 2.4 4.6 5 5 3.4 0.5 6.8 0.7 10.2 0.5 0.9-0.1 1.3-1.1 0.7-1.7l-14.7-14.7c-0.6-0.6-1.7-0.2-1.7 0.7z"></path></g></svg>