<?xml version="1.0"?><svg xmlns="http://www.w3.org/2000/svg" width="100" height="100" viewBox="0 0 100 100"><path fill="#fff" d="m81.7 43.2s0.1 0 0 0c0.1-0.3 0.2-0.4 0.2-0.6v-1.4c0-0.1-0.1-0.2-0.1-0.3s0-0.1-0.1-0.2c0-0.1-0.1-0.2-0.2-0.3 0-0.1-0.1-0.1-0.1-0.2l-12-17c-0.5-0.7-1.4-1.2-2.4-1.2h-36c-1 0-1.9 0.5-2.5 1.3l-12 17c0 0.1-0.1 0.1-0.1 0.2-0.1 0.1-0.1 0.2-0.2 0.3 0 0.1 0 0.1-0.1 0.2 0 0.1-0.1 0.2-0.1 0.3v1.4c0 0.2 0.1 0.4 0.2 0.5v0.1c0.1 0.1 0.1 0.3 0.2 0.4 0 0.1 0.1 0.1 0.1 0.2l0.2 0.2 30 33 0.1 0.1 0.1 0.1 0.1 0.1s0.1 0 0.1 0.1c0.1 0 0.1 0.1 0.2 0.1 0 0 0.1 0 0.1 0.1 0 0 0.1 0 0.1 0.1 0 0 0.1 0 0.1 0.1h2.1s0.1 0 0.1-0.1c0 0 0.1 0 0.1-0.1 0 0 0.1 0 0.1-0.1 0 0 0.1 0 0.1-0.1 0.1 0 0.1-0.1 0.2-0.1 0 0 0.1 0 0.1-0.1l0.1-0.1 0.1-0.1 0.1-0.1 30-33 0.2-0.2c0-0.1 0.1-0.1 0.1-0.2 0.6-0.1 0.7-0.2 0.7-0.4z m-32.7-4.2h-4.8l4.8-8.1 4.8 8.1h-4.8z m0 6h6l-6 19.7-6-19.7h6z m5.2-17h7.5l-2.8 8-4.7-8z m-15.1 8l-2.8-8h7.5l-4.7 8z m-2.3 9l5.5 18.1-16.5-18.1h11z m24.4 0h11l-16.5 18.1 5.5-18.1z m12-6h-9l3-8.5 6 8.5z m-42.4-8.5l3 8.5h-9l6-8.5z"></path></svg>