<?xml version="1.0"?><svg xmlns="http://www.w3.org/2000/svg" width="100" height="100" viewBox="0 0 100 100"><g fill="#fff"><path d="m56 73h-10c-1.1 0-2 0.9-2 2v3c0 1.1 0.9 2 2 2h10c1.1 0 2-0.9 2-2v-3c0-1.1-0.9-2-2-2z m-5-53c-12.2 0-22 9.4-22 21 0 7.5 4.1 14.1 10.4 17.8 2.4 1.4 4 3.8 4.5 6.5 0.2 0.9 1 1.6 2 1.6h10.4c1 0 1.8-0.7 2-1.6 0.5-2.7 2.1-5.1 4.5-6.5 6.1-3.7 10.2-10.3 10.2-17.8 0-11.6-9.8-21-22-21z m-6.8 9.4c-2 3.8-3.1 8.3-3.2 11.9 0 3.7 0.7 7.3 2 10.8 0.4 0.9-0.5 1.7-1.4 1.3-9.2-4.7-8.6-22 1.4-25.4 0.8-0.3 1.6 0.6 1.2 1.4z m7.7 23.8c-0.3 0.8-1.5 0.8-1.8 0-1.6-3.9-2-8.5-2.1-12.7 0.1-4.2 0.5-8.8 2.1-12.7 0.3-0.8 1.5-0.8 1.8 0 1.6 3.9 2 8.5 2.1 12.7-0.1 4.2-0.5 8.8-2.1 12.7z m8.1 0.2c-0.8 0.4-1.7-0.4-1.4-1.3 1.4-3.6 2-7.6 2.1-11.4-0.1-3.2-1.2-7.6-3.2-11.3-0.4-0.8 0.4-1.7 1.2-1.4 10 3.4 10.6 20.7 1.3 25.4z"></path></g></svg>