<?xml version="1.0"?><svg xmlns="http://www.w3.org/2000/svg" width="100" height="100" viewBox="0 0 100 100"><path fill="#fff" d="m75.5 43.2l-4.9-15.4c-0.9-2.9-3.6-4.8-6.6-4.8h-28c-3 0-5.7 1.9-6.7 4.8l-4.8 15.4c-2.6 0.7-4.5 3-4.5 5.8v12c0 2.6 1.7 4.8 4 5.7v8.3c0 1.1 0.9 2 2 2h8c1.1 0 2-0.9 2-2v-8h28v8c0 1.1 0.9 2 2 2h8c1.1 0 2-0.9 2-2v-8.3c2.3-0.8 4-3 4-5.7v-12c0-2.8-1.9-5.1-4.5-5.8z m-45.5 16.8c-2.8 0-5-2.2-5-5s2.2-5 5-5 5 2.2 5 5-2.2 5-5 5z m22-17h-19.8c-0.7 0-1.2-0.7-1-1.3l3.8-12c0.1-0.4 0.5-0.7 0.9-0.7h28c0.4 0 0.8 0.3 0.9 0.6l3.8 12.1c0.2 0.6-0.3 1.3-1 1.3h-15.6z m17 17c-2.8 0-5-2.2-5-5s2.2-5 5-5 5 2.2 5 5-2.2 5-5 5z"></path></svg>