<svg xmlns="http://www.w3.org/2000/svg" enable-background="new 0 0 64 64" viewBox="0 0 64 64"><path d="M63.792,56.914c0,3.802-3.076,6.88-6.876,6.88H6.874C3.078,63.794,0,60.716,0,56.914V6.875    C0,3.08,3.078,0,6.874,0h50.042c3.8,0,6.876,3.08,6.876,6.875V56.914z" fill="#1b75bb"/><path d="m25.7 29.937c1.307-1.56 2.729-2.712 4.27-3.46 1.536-.75 3.257-1.125 5.161-1.125 1.824 0 3.514.341 5.058 1.022 1.55.684 2.904 1.654 4.067 2.912 1.162 1.258 2.06 2.745 2.694 4.456.633 1.708.952 3.497.952 5.36 0 2.714-.619 5.173-1.859 7.384-1.238 2.21-2.969 3.935-5.19 5.175s-4.736 1.859-7.54 1.859c-3.229 0-6.02-.788-8.363-2.363-2.343-1.575-4.134-3.909-5.375-6.993-1.24-3.086-1.861-6.856-1.861-11.318 0-3.631.376-6.879 1.125-9.744.75-2.865 1.828-5.236 3.227-7.121 1.407-1.885 3.108-3.308 5.106-4.268 1.999-.96 4.275-1.442 6.83-1.442 2.466 0 4.629.482 6.502 1.442 1.877.96 3.29 2.152 4.24 3.574.95 1.423 1.427 2.789 1.427 4.095 0 .788-.296 1.505-.894 2.147-.596.645-1.354.966-2.279.966-.805 0-1.554-.255-2.247-.766-.694-.506-1.199-1.211-1.528-2.116-.439-1.154-1.141-2.081-2.104-2.783-.958-.701-2.077-1.054-3.343-1.054-1.019 0-2.032.294-3.043.88-1.01.588-1.859 1.381-2.551 2.381-1.404 2.037-2.233 5.67-2.482 10.9m7.785 17.905c1.941 0 3.548-.791 4.816-2.379 1.268-1.587 1.902-3.668 1.902-6.242 0-1.748-.3-3.253-.896-4.515-.594-1.258-1.413-2.218-2.447-2.882-1.041-.665-2.183-.994-3.435-.994-1.192 0-2.33.317-3.417.948-1.086.635-1.959 1.556-2.622 2.755-.66 1.201-.991 2.61-.991 4.225 0 2.595.672 4.758 2.01 6.486 1.349 1.73 3.04 2.598 5.078 2.598" fill="#fff"/></svg>