<svg xmlns="http://www.w3.org/2000/svg" enable-background="new 0 0 64 64" viewBox="0 0 64 64"><path d="M63.917,57.025c0,3.81-3.082,6.894-6.89,6.894H6.887C3.084,63.919,0,60.835,0,57.025V6.889   C0,3.086,3.084,0,6.887,0h50.14c3.808,0,6.89,3.086,6.89,6.889V57.025z" fill="#1b75bb"/><g fill="#fff"><path d="m13.368 25.806h-7.408v4.749h6.192c.573 0 1 .129 1.284.385.283.257.424.601.424 1.033 0 .432-.143.773-.43 1.025-.287.253-.712.381-1.278.381h-6.192v6.115c0 .778-.177 1.354-.526 1.729-.35.375-.801.563-1.347.563-.56 0-1.013-.19-1.362-.569-.352-.381-.526-.954-.526-1.723v-14.284c0-.54.081-.981.242-1.325.159-.341.41-.589.754-.746.342-.155.779-.233 1.31-.233h8.864c.599 0 1.044.133 1.335.4.291.265.438.613.438 1.042 0 .44-.147.793-.438 1.058-.291.268-.737.4-1.336.4"/><path d="m21.14 33.529h-1.317v5.964c0 .786-.171 1.363-.518 1.734-.346.371-.799.558-1.355.558-.599 0-1.064-.194-1.392-.583-.33-.388-.495-.959-.495-1.709v-14.283c0-.811.183-1.397.544-1.759.363-.365.95-.546 1.761-.546h6.116c.844 0 1.564.035 2.166.108.599.071 1.139.216 1.62.438.583.243 1.098.593 1.545 1.048.448.458.788.987 1.019 1.59.232.604.35 1.243.35 1.918 0 1.384-.393 2.489-1.172 3.318-.781.827-1.965 1.414-3.553 1.759.667.354 1.305.88 1.912 1.571.61.692 1.15 1.429 1.627 2.211.477.779.85 1.483 1.115 2.114.267.628.398 1.062.398 1.298 0 .243-.079.486-.235.728-.153.24-.367.429-.638.57-.271.139-.583.208-.937.208-.422 0-.777-.099-1.064-.297-.287-.2-.534-.449-.74-.754-.208-.305-.487-.752-.842-1.341l-1.508-2.509c-.54-.921-1.023-1.62-1.449-2.104-.426-.479-.858-.809-1.298-.987-.439-.173-.993-.263-1.66-.263m2.151-7.8h-3.469v5.104h3.369c.903 0 1.663-.079 2.277-.235.619-.155 1.09-.422 1.412-.797.328-.375.489-.893.489-1.553 0-.513-.129-.966-.393-1.359-.261-.395-.624-.687-1.089-.881-.438-.185-1.304-.279-2.596-.279"/><path d="m45.12 25.806h-8.472v4.559h7.801c.573 0 1 .129 1.286.387.282.257.422.595.422 1.017 0 .422-.138.768-.416 1.033-.279.265-.709.4-1.292.4h-7.801v5.279h8.763c.591 0 1.036.138 1.337.412.299.275.449.639.449 1.094 0 .439-.15.795-.449 1.07-.301.274-.746.412-1.337.412h-10.217c-.821 0-1.408-.183-1.768-.544-.357-.363-.54-.95-.54-1.761v-13.954c0-.54.081-.981.242-1.325.161-.341.412-.589.754-.746.342-.155.779-.233 1.312-.233h9.926c.601 0 1.045.133 1.335.4.293.265.438.613.438 1.042 0 .44-.146.793-.438 1.058-.29.268-.734.4-1.335.4"/><path d="m60.57 25.806h-8.472v4.559h7.801c.575 0 1 .129 1.285.387.283.257.425.595.425 1.017 0 .422-.14.768-.418 1.033-.279.265-.709.4-1.292.4h-7.801v5.279h8.763c.591 0 1.036.138 1.337.412.298.275.449.639.449 1.094 0 .439-.151.795-.449 1.07-.301.274-.746.412-1.337.412h-10.216c-.821 0-1.408-.183-1.768-.544-.357-.363-.538-.95-.538-1.761v-13.954c0-.54.079-.981.242-1.325.158-.341.41-.589.752-.746.341-.155.779-.233 1.312-.233h9.926c.601 0 1.045.133 1.335.4.293.265.438.613.438 1.042 0 .44-.146.793-.438 1.058-.291.268-.735.4-1.336.4"/></g></svg>