<svg xmlns="http://www.w3.org/2000/svg" viewBox="0 0 64 64" enable-background="new 0 0 64 64"><switch><g><path fill="#f9cb38" d="m19 10h26v44h-26z"/><path fill="#00209f" d="M10,10C3.373,10,0,14.925,0,21v22c0,6.075,3.373,11,10,11h9V10H10z"/><path fill="#009e60" d="m54 10h-9v44h9c6.627 0 10-4.925 10-11v-22c0-6.075-3.373-11-10-11"/><g><path fill-rule="evenodd" fill="#009e60" d="m32.27 31.688c.351.521.688 1.018 1.018 1.514 1.271 1.91 2.543 3.82 3.821 5.725.116.176.151.311.02.502-1.566 2.346-3.128 4.695-4.692 7.04-.037.059-.088.111-.156.197-.077-.097-.143-.174-.201-.258-1.559-2.334-3.119-4.67-4.684-7.01-.101-.149-.145-.269-.023-.444 1.579-2.346 3.152-4.703 4.728-7.05.041-.067.097-.127.169-.217"/><path fill-rule="evenodd" fill="#009e60" d="m26.21 22.626c.191.284.354.526.515.772 1.437 2.151 2.87 4.308 4.312 6.457.141.207.146.346.007.557-1.546 2.311-3.077 4.625-4.616 6.941-.057.081-.121.162-.204.279-.081-.11-.147-.189-.2-.273-1.551-2.318-3.1-4.637-4.657-6.949-.147-.219-.144-.367.002-.581 1.56-2.314 3.106-4.636 4.655-6.95.047-.068.098-.132.186-.253"/><path fill-rule="evenodd" fill="#009e60" d="m38.37 22.652c.308.457.59.875.869 1.293 1.311 1.968 2.622 3.941 3.939 5.903.141.212.163.36.01.585-1.547 2.314-3.083 4.643-4.623 6.966-.053.075-.111.146-.189.251-.094-.135-.176-.242-.25-.354-1.543-2.306-3.082-4.618-4.631-6.921-.104-.158-.137-.273-.022-.451 1.573-2.342 3.135-4.684 4.701-7.03.046-.071.103-.13.196-.245"/></g></g></switch></svg>