<svg xmlns="http://www.w3.org/2000/svg" viewBox="0 0 64 64" enable-background="new 0 0 64 64"><g fill-rule="evenodd"><path fill="#bbbdbf" d="m9.03 21.15c-.293-3.895-.586-7.789-.884-11.682-.015-.211-.036-.432-.126-.628-.05-.113-.242-.26-.369-.256-.151.005-.343.126-.424.242-.086.129-.081.31-.086.468-.02.445-.035.89-.035 1.336-.01 2.999-.02 5.999-.025 8.998 0 .264-.111.387-.394.389-.273.003-.415-.115-.435-.341-.005-.124-.015-.249-.02-.374-.116-3.133-.228-6.267-.349-9.402-.015-.348-.066-.694-.121-1.037-.03-.192-.202-.299-.429-.295-.232.008-.374.122-.409.315-.025.158-.056.318-.056.477.01 3.09.025 6.182.035 9.271.005.347.015.696 0 1.043-.005.203-.146.331-.409.332-.252.001-.399-.111-.424-.321-.016-.115-.016-.231-.021-.347-.111-3.197-.227-6.393-.343-9.59-.01-.284-.066-.567-.101-.851-.025-.22-.196-.342-.444-.351-.252-.01-.379.146-.419.336-.03.156-.045.318-.045.479.005 2.833.015 5.664.025 8.498 0 .587 0 1.177-.01 1.763 0 .213-.116.37-.394.369-.283 0-.434-.129-.449-.365-.01-.097-.015-.195-.015-.294-.116-3.081-.222-6.162-.344-9.243-.016-.41-.066-.818-.122-1.225-.025-.212-.197-.34-.449-.353-.258-.013-.354.148-.394.323-.051.226-.091.456-.101.687-.045.898-.086 1.795-.116 2.694-.111 3.125-.227 6.25-.324 9.373-.02.647.192 1.237.626 1.755v.002c.096.11.197.218.313.322.273.249.541.508.773.784.995 1.174 1.419 2.487 1.348 3.913-.035.837-.086 1.673-.126 2.508-.177 3.505-.349 7.01-.525 10.515-.187 3.861-.379 7.723-.576 11.584-.01.265.065.492.257.697.177.191.354.381.523.578.209.242.498.363.846.379.435.02.869.007 1.303.032.732.038 1.354-.093 1.707-.694.036-.061.101-.113.157-.166.298-.283.406-.611.358-.988-.015-.141-.015-.285-.02-.427-.237-4.083-.47-8.166-.702-12.252-.207-3.609-.409-7.218-.621-10.824v-.001c-.005-.076-.01-.151-.015-.227-.081-1.328.167-2.6.964-3.754.273-.39.616-.742.96-1.097.085-.086.171-.174.252-.263.288-.299.606-.58.909-.869-.025-.016-.045-.032-.071-.046.371-.599.436-1.243.386-1.899"/><path fill="#a4a5a7" d="m5.172 54.621c-.349-.016-.631-.137-.843-.379-.167-.197-.344-.387-.521-.578-.192-.205-.268-.433-.258-.697.197-3.861.389-7.723.576-11.584.177-3.505.348-7.01.525-10.515.04-.835.085-1.671.126-2.508.071-1.426-.354-2.739-1.349-3.913-.232-.276-.5-.535-.772-.784-.116-.104-.217-.212-.313-.322v-.002c-.434-.518-.646-1.107-.626-1.755.03-1.027.065-2.052.101-3.079-.101-2.807-.202-5.615-.313-8.422-.015-.408-.065-.816-.121-1.223-.025-.212-.197-.34-.449-.353-.258-.013-.354.148-.394.323-.051.226-.091.456-.101.687-.045.898-.086 1.795-.116 2.694-.111 3.125-.227 6.25-.324 9.373-.02.647.192 1.237.626 1.755v.002c.096.11.197.218.313.322.273.249.541.508.773.784.995 1.174 1.419 2.487 1.348 3.913-.035.837-.086 1.673-.126 2.508-.177 3.505-.349 7.01-.525 10.515-.187 3.861-.379 7.723-.576 11.584-.01.265.065.492.257.697.177.191.354.381.523.578.209.242.498.363.846.379.435.02.869.007 1.303.032.232.013.459.008.667-.025-.085-.002-.171-.002-.257-.007"/><path fill="#bbbdbf" d="m64.11 53.27c-.076-1.493-.142-2.987-.207-4.482-.086-2.025-.172-4.054-.263-6.078l-.384-9.138c-.01-.231-.021-.463-.03-.693-.005-.106.086-.246.197-.322.489-.332.51-.724.07-1.082-.142-.115-.258-.281-.272-.431-.167-1.643-.313-3.284-.455-4.928-.298-3.471-.177-6.947-.126-10.421.03-1.754.191-3.508.298-5.263.04-.738-.565-1.328-1.642-1.587-.808-.196-1.984.074-2.419.634-.288.371-.409.812-.616 1.241.021.025.07.081.116.136-.091.064-.167.121-.248.178.062.069.106.125.152.182-.03 0-.061 0-.086 0-.021.121-.035.242-.056.366.025.004.051.008.075.013-.075.047-.151.093-.231.14.04.007.075.014.116.022-.056.244-.111.489-.178.771.299.1-.027.188-.161.299.253.12.247.24-.016.357.283.155.152.265-.067.365.306.133.189.24-.054.34.283.154.202.269-.101.361.344.142.242.255-.03.357.293.166.207.287-.065.379.08.06.139.104.212.157-.102.063-.185.114-.272.167.065.083.126.154.191.236-.096.044-.177.083-.277.133.086.074.156.135.222.195-.091.066-.172.122-.258.18.081.068.146.124.218.182-.091.063-.172.116-.258.174.081.071.142.127.207.187-.091.061-.177.113-.263.169.081.069.146.127.212.186-.086.062-.166.116-.252.178.086.068.151.121.228.182-.092.063-.167.12-.253.183.081.066.146.119.217.18-.091.064-.172.12-.257.182.08.068.146.122.217.181-.091.064-.167.12-.253.18.076.07.142.125.202.181-.081.064-.146.119-.222.179.075.064.141.12.202.174-.086.071-.162.13-.232.187.075.072.136.129.202.189-.092.057-.167.104-.248.155.081.074.146.136.212.201-.086.063-.156.116-.227.168.08.073.146.135.212.197-.091.062-.167.11-.237.159.081.078.146.14.217.203-.091.059-.167.106-.237.154.081.081.146.145.207.206-.086.063-.151.115-.217.163.075.073.136.131.196.189-.075.068-.141.123-.207.179.076.067.142.124.202.179-.086.064-.166.12-.247.181.096.072.172.127.242.184-.091.068-.172.123-.258.186.097.065.167.116.243.168-.081.069-.152.128-.228.189.075.07.136.126.217.196-.323.114-.166.236-.025.346-.075.068-.141.124-.202.175.076.072.137.13.202.191-.086.059-.156.11-.232.164.086.073.157.134.228.193-.081.064-.151.117-.228.177.086.068.157.126.232.184-.086.066-.156.119-.232.177.081.066.146.123.223.188-.07.056-.137.107-.212.167.081.07.151.131.217.192-.081.065-.146.12-.212.175.086.063.151.116.232.177-.081.067-.156.125-.237.189.091.063.161.115.247.177-.086.061-.151.112-.232.17.086.07.157.13.232.191-.081.062-.151.116-.228.177.086.067.162.124.238.181-.081.069-.146.124-.218.184.081.068.157.127.223.186-.081.068-.142.123-.218.182.091.063.167.115.253.175-.086.058-.156.106-.24.162.089.073.164.136.24.202-.076.059-.146.111-.223.17.089.069.162.127.237.184-.07.07-.126.128-.187.186.076.066.142.123.202.176-.07.067-.131.124-.197.188.086.061.157.111.232.166-.075.072-.146.134-.212.197.086.063.161.115.237.169-.07.065-.131.124-.202.188.081.063.157.119.228.174-.07.072-.132.131-.188.187.081.065.146.117.213.173-.071.071-.132.129-.197.191.091.065.167.121.272.195-.379.119-.156.23-.01.33-.07.071-.126.131-.192.196.092.064.172.117.248.17-.076.07-.137.124-.207.188.091.062.166.112.242.163-.076.074-.137.139-.207.212.091.056.167.102.253.149-.076.076-.142.141-.207.207.091.052.161.092.182.101-.041.196-.046.337-.097.465-.207.475.213.919.92.968.575.04.575.043.575.437.011 1.753.021 3.504.03 5.254.011 1.679.025 3.356.03 5.04.011 1.899.006 3.803.006 5.707.005 1.576.005 3.151.01 4.728 0 .099 0 .217.075.288.546.502 1.062 1.038 2.152.898.419-.053.863-.061 1.293-.05.333.01.58-.084.812-.232.965-.623.979-.656.934-1.555"/><path fill="#a4a5a7" d="m60.81 54.21c-.076-.071-.076-.189-.076-.288-.01-1.576-.01-3.151-.01-4.728 0-1.904.005-3.808-.005-5.707-.006-1.679-.021-3.356-.03-5.03-.011-1.75-.025-3.501-.03-5.254-.006-.394 0-.396-.576-.437-.712-.049-1.126-.493-.924-.968.055-.128.061-.269.101-.465-.021-.009-.091-.049-.182-.101.065-.066.131-.131.202-.207-.081-.048-.157-.094-.253-.149.076-.073.137-.138.212-.212-.075-.051-.151-.102-.242-.163.07-.064.132-.118.207-.188-.075-.053-.156-.106-.247-.17.065-.064.121-.125.191-.196-.146-.1-.368-.21.011-.33-.106-.074-.183-.13-.273-.195.066-.062.127-.12.197-.191-.065-.056-.137-.107-.212-.173.056-.056.116-.115.187-.187-.07-.056-.146-.111-.228-.174.066-.064.132-.123.202-.188-.08-.054-.151-.106-.237-.169.065-.063.137-.125.212-.197-.075-.054-.146-.104-.232-.166.066-.064.127-.121.197-.188-.061-.053-.126-.11-.202-.176.061-.058.116-.116.188-.186-.076-.057-.146-.115-.237-.184.075-.06.144-.111.222-.17-.081-.066-.151-.129-.242-.202.086-.056.156-.104.242-.162-.086-.061-.161-.112-.252-.175.075-.06.136-.114.217-.182-.065-.058-.142-.117-.223-.186.068-.061.132-.115.213-.184-.071-.057-.149-.114-.232-.181.075-.061.146-.115.227-.177-.075-.061-.146-.121-.231-.191.075-.058.146-.11.231-.17-.085-.062-.156-.113-.247-.177.081-.064.156-.123.237-.189-.081-.061-.151-.113-.232-.177.065-.056.132-.11.212-.175-.065-.061-.136-.122-.22-.192.073-.06.145-.111.215-.167-.075-.065-.142-.122-.222-.188.075-.058.146-.111.227-.177-.07-.058-.141-.116-.227-.184.075-.06.146-.112.227-.177-.07-.06-.141-.12-.232-.193.081-.054.152-.105.232-.164-.061-.061-.121-.119-.196-.191.061-.052.121-.107.202-.175-.142-.11-.299-.232.024-.346-.08-.069-.144-.126-.222-.196.076-.061.151-.12.232-.189-.076-.052-.149-.103-.242-.168.086-.063.161-.118.257-.186-.07-.057-.146-.112-.242-.184.081-.061.156-.116.247-.181-.065-.055-.126-.114-.201-.179.065-.057.126-.111.207-.179-.061-.058-.121-.116-.197-.189.065-.048.131-.1.217-.163-.061-.061-.126-.125-.207-.206.071-.048.146-.096.232-.154-.065-.063-.131-.125-.217-.203.075-.049.146-.097.242-.159-.065-.062-.131-.124-.212-.197.07-.052.142-.105.228-.168-.066-.064-.132-.126-.213-.201.081-.052.157-.099.248-.155-.065-.061-.127-.118-.202-.189.07-.057.142-.116.232-.187-.065-.054-.126-.11-.202-.174.07-.061.142-.115.223-.179-.066-.056-.127-.111-.202-.181.086-.061.161-.116.252-.18-.073-.059-.136-.112-.222-.181.091-.062.166-.118.263-.182-.076-.061-.137-.114-.218-.18.086-.063.162-.12.253-.183-.076-.061-.146-.114-.228-.182.086-.062.167-.116.253-.178-.071-.058-.132-.116-.213-.186.086-.056.167-.108.263-.169-.065-.06-.126-.116-.207-.187.086-.058.167-.111.258-.174-.07-.058-.137-.114-.217-.182.086-.058.166-.114.257-.18-.065-.061-.136-.121-.222-.195.101-.049.182-.088.272-.133-.061-.082-.121-.153-.187-.236.091-.054.172-.104.272-.167-.075-.053-.134-.097-.212-.157.272-.092.358-.213.065-.379.272-.102.374-.216.03-.357.303-.092.384-.207.096-.361.248-.1.364-.207.056-.34.223-.1.354-.209.071-.365.263-.117.268-.237.015-.357.132-.111.46-.199.162-.299.065-.283.121-.528.177-.771-.041-.009-.076-.015-.116-.022.075-.047.156-.093.232-.14-.025-.005-.051-.009-.076-.013.018-.124.035-.245.056-.366.025 0 .056 0 .086 0-.051-.057-.096-.112-.151-.182.081-.057.156-.114.247-.178-.045-.056-.096-.111-.116-.136.207-.43.328-.87.616-1.241.182-.236.5-.419.858-.541-.101-.034-.212-.066-.328-.093-.808-.196-1.984.074-2.419.634-.288.371-.409.812-.616 1.241.021.025.07.081.116.136-.091.064-.167.121-.248.178.062.069.106.125.152.182-.03 0-.061 0-.086 0-.021.121-.035.242-.056.366.025.004.051.008.075.013-.075.047-.151.093-.231.14.04.007.075.014.116.022-.056.244-.111.489-.178.771.299.1-.027.188-.161.299.253.12.247.24-.016.357.283.155.152.265-.067.365.306.133.189.24-.054.34.283.154.202.269-.101.361.344.142.242.255-.03.357.293.166.207.287-.065.379.08.06.139.104.212.157-.102.063-.185.114-.272.167.065.083.126.154.191.236-.096.044-.177.083-.277.133.086.074.156.135.222.195-.091.066-.172.122-.258.18.081.068.146.124.218.182-.091.063-.172.116-.258.174.081.071.142.127.207.187-.091.061-.177.113-.263.169.081.069.146.127.212.186-.086.062-.166.116-.252.178.086.068.151.121.228.182-.092.063-.167.12-.253.183.081.066.146.119.217.18-.091.064-.172.12-.257.182.08.068.146.122.217.181-.091.064-.167.12-.253.18.076.07.142.125.202.181-.081.064-.146.119-.222.179.075.064.141.12.202.174-.086.071-.162.13-.232.187.075.072.136.129.202.189-.092.057-.167.104-.248.155.081.074.146.136.212.201-.086.063-.156.116-.227.168.08.073.146.135.212.197-.091.062-.167.11-.237.159.081.078.146.14.217.203-.091.059-.167.106-.237.154.081.081.146.145.207.206-.086.063-.151.115-.217.163.075.073.136.131.196.189-.075.068-.141.123-.207.179.076.065.142.124.202.179-.086.064-.166.12-.247.181.096.072.172.127.242.184-.091.068-.172.123-.258.186.097.065.167.116.243.168-.081.069-.152.128-.228.189.075.07.136.126.217.196-.323.114-.166.236-.025.346-.075.068-.141.124-.202.175.076.072.137.13.202.191-.086.059-.156.11-.232.164.086.073.157.134.228.193-.081.064-.151.117-.228.177.086.068.157.126.232.184-.086.066-.156.119-.232.177.081.066.146.123.223.188-.07.056-.137.107-.212.167.081.07.151.131.217.192-.081.065-.146.12-.212.175.086.063.151.116.232.177-.081.067-.156.125-.237.189.091.063.161.115.247.177-.086.061-.151.112-.232.17.086.07.157.13.232.191-.081.062-.151.116-.228.177.086.067.162.124.238.181-.081.069-.146.124-.218.184.081.068.157.127.223.186-.081.068-.142.123-.218.182.091.063.167.115.253.175-.086.058-.156.106-.24.162.089.073.164.136.24.202-.076.059-.146.111-.223.17.089.069.162.127.237.184-.07.07-.126.128-.187.186.076.066.142.123.202.176-.07.067-.131.124-.197.188.086.061.157.111.232.166-.075.072-.146.134-.212.197.086.063.161.115.237.169-.07.065-.131.124-.202.188.081.063.157.119.228.174-.07.072-.132.131-.188.187.081.065.146.117.213.173-.071.071-.132.129-.197.191.091.065.167.121.272.195-.379.119-.156.23-.01.33-.07.071-.126.131-.192.196.092.064.172.117.248.17-.076.07-.137.124-.207.188.091.062.166.112.242.163-.076.074-.137.139-.207.212.091.056.167.102.253.149-.076.076-.142.141-.207.207.091.052.161.092.182.101-.041.196-.046.337-.097.465-.207.475.213.919.92.968.575.04.575.043.575.437.011 1.753.021 3.504.03 5.254.011 1.679.025 3.356.03 5.03.011 1.899.006 3.803.006 5.707.005 1.576.005 3.151.01 4.728 0 .099 0 .217.075.288.546.502 1.062 1.038 2.152.898.323-.04.661-.053.994-.05-.528-.154-.887-.507-1.255-.848"/></g><circle fill="#d0d2d3" cx="32.14" cy="31.959" r="21.71"/><circle fill="#e6e7e8" cx="32.14" cy="31.959" r="15.545"/><path fill="#dbdbda" d="m22.314 31.959c0-7.609 5.465-13.938 12.687-15.279-.93-.173-1.884-.265-2.864-.265-8.586 0-15.545 6.959-15.545 15.544 0 8.583 6.959 15.543 15.545 15.543.98 0 1.934-.091 2.864-.266-7.222-1.34-12.687-7.671-12.687-15.277"/></svg>