<svg xmlns="http://www.w3.org/2000/svg" enable-background="new 0 0 64 64" viewBox="0 0 64 64"><g fill="#bac4c9" fill-opacity=".627"><ellipse ry="4.058" rx="15.08" cy="59.55" cx="33.33" opacity=".67"/><path d="m34.745 58.24c0 .719-.582 1.308-1.306 1.308-.72 0-1.305-.589-1.305-1.308v-25.22c0-.719.585-1.307 1.305-1.307.724 0 1.306.588 1.306 1.307v25.22" opacity=".67"/><path d="m33.33 13.08h21.78l-10.89 12.434-10.89 12.429-10.884-12.429-10.892-12.434z" opacity=".67"/></g><ellipse ry="3.42" rx="21.779" cy="13.08" cx="33.33" fill="#93b5cc"/><ellipse ry="2.859" rx="18.209" cy="13.641" cx="33.33" fill="#f79420"/><path d="m29.25 30.416c-.232.233-.607.233-.838 0-.232-.235-.232-.609 0-.839l28.346-28.348c.231-.233.604-.233.838 0 .233.234.233.609 0 .838l-28.346 28.349" fill="#e7e6e6"/><path d="m46.45 18.202c0 3.076-2.495 5.572-5.574 5.572s-5.573-2.497-5.573-5.572c0-3.081 2.494-5.577 5.573-5.577s5.574 2.497 5.574 5.577" fill="#2bb573"/><circle r="2.848" cy="17.632" cx="38.98" fill="#ee4237"/><path d="m33.442 15.04h18.748l-9.377 10.708-9.371 10.698-9.372-10.698-9.375-10.708z" fill="#f79420" opacity=".36"/></svg>