<svg xmlns="http://www.w3.org/2000/svg" viewBox="0 0 64 64" enable-background="new 0 0 64 64"><path fill="#1c689b" d="m25.82 36.984c0 4.723-2.923 8.553-7.648 8.553s-7.647-3.83-7.647-8.553c0-4.723 2.923-8.551 7.647-8.551 4.724 0 7.648 3.828 7.648 8.551"/><path fill="#288de0" d="m4.595 56.873c0-4.207 5.902-12.678 13.577-12.678 7.688 0 14.245 8.471 14.245 12.678 0 4.215-6.238 5.623-13.913 5.623-7.678 0-13.909-1.408-13.909-5.623"/><path fill="#fbb042" d="m25.2 19.609c0-2.83-3.141-5.122-7.02-5.122-3.876 0-7.02 2.292-7.02 5.122 0 2.828 3.145 9.803 7.02 9.803 3.883 0 7.02-6.975 7.02-9.803"/><path fill="#1d292d" d="m13.11 15.619c0 2.041 2.266.81 5.066.81 2.796 0 5.064 1.231 5.064-.81 0-2.039-2.269-4.186-5.064-4.186-2.8 0-5.066 2.147-5.066 4.186"/><g fill="#fbb042"><path d="m12.408 40.09c-1.82-.881-4.054-.025-4.993 1.914-.937 1.938-.224 4.223 1.597 5.104 1.819.879 7.06 1.48 8-.455.939-1.942-2.788-5.682-4.607-6.563"/><path d="m22.928 40.09c-1.819.881-5.546 4.621-4.606 6.563.938 1.936 6.184 1.334 8 .455 1.82-.881 2.534-3.166 1.597-5.104-.941-1.94-3.174-2.795-4.994-1.914"/></g><path fill="#1d292d" d="m22.309 9.543c0-1.667-1.851-3.02-4.137-3.02-2.284 0-4.136 1.35-4.136 3.02 0 1.666 1.853 5.774 4.136 5.774 2.286 0 4.137-4.108 4.137-5.774"/><g fill="#25333a"><path d="m13.666 21.21c-.224.031-.444.157-.617.299-.049.04-.282.286-.06.255 1.014-.142 1.891.008 2.738.598.238.166.933-.453.867-.5-.91-.634-1.838-.804-2.928-.652"/><path d="m22.657 21.21c.224.031.444.157.617.299.049.04.282.286.059.255-1.014-.142-1.89.008-2.738.598-.237.166-.933-.453-.867-.5.911-.634 1.839-.804 2.929-.652"/></g><path fill="#c48653" d="m16.32 25.387c.092 0 3.225 0 3.705 0 .195 0 .271.229.153.366-1.085 1.251-2.926 1.251-4.01 0-.118-.136-.046-.366.151-.366"/><path fill="#25333a" d="m25.308 19.337c-.199-2.91-3.31-5.223-7.138-5.223-3.821 0-6.936 2.313-7.134 5.223h14.272"/><path fill="#ffdd15" d="m25.2 32.787c0-2.83-3.141 2.879-7.02 2.879-3.876 0-7.02-5.708-7.02-2.879 0 2.828 3.145 9.803 7.02 9.803 3.883 0 7.02-6.975 7.02-9.803"/><g fill="#288de0"><path d="m13.914 40.12c-.944-1.377-2.238-1.998-2.421-3.707-.004-.033 1.278-4.327.584-6.113.042-.054-.192-.423-.303-.586-.161-.235-1.468-.278-2.251.099-8.84 2.141-8.05 15.649-7.548 22.715.003.051.04.078.094.094-.009.068-.028.135-.034.203-.03.301 1.61-.314 1.659-.795.479-4.762 5.763-7.984 9.241-11.02.514-.235 1.104-.701.979-.885"/><path d="m23.506 41.1c3.479 3.043 8.763 6.264 9.242 11.02.048.48 1.689 1.096 1.658.795-.006-.068-.025-.135-.034-.203.054-.016.091-.043.095-.094.502-7.07 1.291-20.575-7.549-22.715-.784-.377-2.09-.334-2.25-.099-.112.163-.346.532-.304.586-.694 1.786.588 6.08.584 6.113-.183 1.709-1.477 2.33-2.42 3.707-.127.183.463.65.978.885"/></g><path fill="#be202e" d="m53.786 34.828c0 4.721-2.923 8.551-7.647 8.551s-7.648-3.83-7.648-8.551c0-4.724 2.924-8.553 7.648-8.553 4.722 0 7.647 3.829 7.647 8.553"/><path fill="#de374b" d="m32.561 54.715c0-4.205 5.902-12.678 13.578-12.678 7.688 0 14.244 8.473 14.244 12.678 0 4.215-6.238 7.623-13.912 7.623-7.68 0-13.91-3.408-13.91-7.623"/><g fill="#fbb042"><path d="m40.37 37.934c-1.82-.881-4.053-.025-4.992 1.916-.938 1.936-.225 4.221 1.596 5.102 1.819.881 7.07 1.48 8-.455.939-1.94-2.789-5.683-4.608-6.563"/><path d="m50.894 37.934c-1.819.881-5.546 4.623-4.606 6.563.938 1.936 6.184 1.336 8 .455 1.82-.881 2.534-3.166 1.597-5.102-.941-1.942-3.174-2.797-4.994-1.916"/></g><path fill="#a991ce" d="m53.16 30.629c0-2.829-3.141 2.878-7.02 2.878-3.877 0-7.02-5.708-7.02-2.878 0 2.828 3.145 9.804 7.02 9.804 3.883 0 7.02-6.976 7.02-9.804"/><g fill="#de374b"><path d="m41.88 37.963c-.944-1.375-2.238-1.998-2.422-3.705-.003-.035 1.278-4.328.585-6.114.042-.055-.192-.423-.305-.586-.16-.236-1.467-.279-2.25.099-8.84 2.141-8.05 15.648-7.548 22.714.003.051.04.08.094.094-.009.068-.027.135-.035.205-.03.301 1.611-.316 1.66-.797.479-4.762 5.763-7.982 9.242-11.02.513-.235 1.104-.702.979-.885"/><path d="m51.47 38.941c3.479 3.043 8.763 6.264 9.241 11.03.049.479 1.689 1.096 1.66.795-.008-.07-.025-.137-.035-.205.055-.014.09-.043.094-.094.503-7.07 1.291-20.574-7.549-22.714-.783-.378-2.09-.335-2.25-.099-.111.163-.346.531-.304.586-.694 1.786.588 6.079.584 6.114-.183 1.707-1.478 2.33-2.421 3.705-.125.184.465.651.98.885"/></g><g fill="#25333a"><path d="m36.15 19.08c.852 2.146 3.957 7.129 6.902 5.96 2.94-1.165 4.603-8.04 3.751-10.185-.851-2.145-4.131-3.455-7.07-2.29-2.945 1.169-4.431 4.37-3.582 6.515"/><path d="m56.794 19.224c.851-2.145-.637-5.347-3.582-6.516-2.94-1.165-6.22.146-7.07 2.29-.852 2.146.811 9.02 3.751 10.185 2.945 1.169 6.05-3.812 6.902-5.959"/></g><path fill="#fbb042" d="m53.609 19.21c0-2.561-3.268-4.637-7.307-4.637-4.03 0-7.305 2.076-7.305 4.637 0 2.56 3.271 8.873 7.305 8.873 4.04 0 7.307-6.314 7.307-8.873"/><g fill="#25333a"><path d="m50.44 9.543c0-1.667-1.852-3.02-4.138-3.02-2.284 0-4.136 1.35-4.136 3.02 0 1.666 1.852 5.774 4.136 5.774 2.287 0 4.138-4.108 4.138-5.774"/><path d="m36.997 18.421c.458 1.266 2.313-.268 4.946-1.221 2.629-.951 5.04-.959 4.58-2.226-.457-1.265-3.072-1.824-5.701-.873-2.634.954-4.283 3.056-3.825 4.32"/><path d="m55.5 18.421c.457-1.265-1.191-3.366-3.826-4.319-2.629-.951-5.244-.392-5.701.873-.458 1.267 1.951 1.274 4.58 2.226 2.634.953 4.488 2.486 4.947 1.22"/><path d="m44.44 20.945c-.072 0-2.559 0-2.939 0-.156 0-.215-.182-.12-.291.86-.992 2.319-.992 3.179 0 .095.109.037.291-.12.291"/><path d="m51.11 20.945c-.073 0-2.558 0-2.939 0-.155 0-.215-.182-.12-.291.86-.992 2.318-.992 3.18 0 .093.109.036.291-.121.291"/></g><path fill="#ed2e7c" d="m44.487 24.591c.093 0 3.225 0 3.705 0 .194 0 .271.229.153.366-1.086 1.251-2.926 1.251-4.01 0-.117-.137-.045-.366.152-.366"/><path fill="#f0ca93" d="m0 56.25h64v7.746h-64z"/></svg>