<svg xmlns="http://www.w3.org/2000/svg" viewBox="0 0 64 64" enable-background="new 0 0 64 64"><path fill="#81d4ea" d="m63.999 56.889c0 3.873-3.194 7.111-7.02 7.111h-50.09c-3.812 0-6.898-2.76-6.898-6.633v-50.998c0-3.87 3.085-6.369 6.898-6.369h50.09c3.818 0 7.02 3.048 7.02 6.096v50.793"/><path fill="#e9c61c" d="m42.12 31.05c0 11.193-9.01 20.271-20.12 20.271-11.11 0-20.12-9.08-20.12-20.271 0-11.2 9.01-20.273 20.12-20.273 11.11-.001 20.12 9.07 20.12 20.273"/><path fill="#fff" d="m36.13 31.06c0 7.873-6.337 14.255-14.15 14.255-7.811 0-14.15-6.383-14.15-14.255 0-7.872 6.336-14.256 14.15-14.256 7.809 0 14.15 6.383 14.15 14.256"/><path fill="#c17c2a" d="m13.09 40.643c-.148-.677-1.072-1.104-1.466-1.057-.072-.398-.32-.74-.72-.766-.199-.33-.563-.537-1.045-.355-.221.083-.421.169-.62.294-.014.009-.021.021-.033.029-.023-.653-.651-1.035-1.203-.935-.577-.059-1.176.348-1.109 1-.109-.02-.218-.047-.335-.055-.135-.008-.24.031-.345.07-.031-.012-.051-.031-.086-.039-.731-.156-1.326-.534-2.085-.611-.709-.072-1.296.942-.844 1.512.092.115.184.234.275.355-.281.214-.395.577-.361.92-.107.025-.212.053-.325.076-.71.148-.835.812-.597 1.327-.01.008-.016.019-.023.026-.552.559-.225 1.287.317 1.563.213.581 1.068.854 1.628.385.266.438.866.548 1.314.341.296.215.716.24 1.055.094.123.123.256.234.419.348.538.367 1.047.098 1.281-.354.509.429 1.115.184 1.407-.267.113.043.236.076.381.076h.167c.363 0 .608-.161.765-.388.133.035.263.074.397.109.982.26 1.467-.877 1.021-1.533.203-.246.219-.511.162-.756.143-.195.172-.414.154-.633.072-.013.454-.217.454-.778"/><path fill="#e8b872" d="m.012 56.99v-13.01c0 0 7.938-2.344 11.362-3.401 8.364-2.595 9.873-7.169 33.76-3.06 7.185 1.237 15.11 2.317 15.11 2.317h3.739v15.09l-63.974 2.059"/><path fill="#e8a436" d="m23.23 49.623c0 0 7.807-12.675 40.756-6.186v13.483l-34.06.896-6.692-8.193"/><path fill="#00a79d" d="m59.9 32.08c.048-2.581-3.945-2.521-3.992.047-.018.955-.213 1.522-.688 2.02v-5.809c0-2.583-3.992-2.526-3.992.043v9.247c-.81-.095-1.502-.339-2.01-.826-.524-.499-.681-1.528-.649-2.559.078-2.581-3.916-2.519-3.991.045-.062 2.026.489 3.909 1.887 5.405 1.215 1.299 3.038 1.787 4.769 1.924v5.73c0 2.582 3.992 2.525 3.992-.047v-8.625c1.041-.425 2.02-.957 2.865-1.742 1.334-1.231 1.782-3.107 1.812-4.854"/><path fill="#e8b872" d="m28.433 52.28c.374 0 24.04-8.963 35.555-5.871v10.513l-13.998 3.088-19.946-3.862-1.61-3.262"/><path fill="#d8a861" d="m6.899 64h50.09c3.818 0 7.02-3.238 7.02-7.111v-1.25c-1.079.394-13.241 4.454-30.27-5.134-17.12-9.641-32.514 1.918-33.733 2.869v3.993c0 3.873 3.086 6.633 6.898 6.633"/><path fill="#e8b872" d="m43.671 58.14c0 0-21.354-4.154-24.885-4.834-10.497-2.02-18.774 3.906-18.774 3.906v.156c0 3.873 3.086 6.633 6.898 6.633h50.09c3.673 0 6.761-2.998 6.99-6.673v-.921c-.861 2.593-20.315 1.733-20.315 1.733"/><path fill="#c1813d" d="m19.969 53.951c-.218-.999-1.581-1.626-2.16-1.559-.105-.584-.472-1.093-1.061-1.127-.292-.492-.83-.791-1.54-.525-.325.119-.62.249-.916.433-.02.013-.027.031-.049.043-.033-.964-.956-1.524-1.772-1.377-.848-.084-1.731.513-1.632 1.478-.166-.025-.323-.066-.495-.076-.201-.014-.353.043-.509.099-.047-.014-.078-.044-.129-.056-1.076-.227-1.953-.788-3.07-.901-1.047-.106-1.913 1.39-1.246 2.228.137.172.271.349.405.523-.413.316-.581.854-.53 1.359-.158.035-.312.076-.479.109-1.045.219-1.23 1.199-.881 1.957-.012.012-.021.026-.035.039-.813.825-.332 1.897.47 2.305.313.861 1.575 1.263 2.401.568.391.646 1.277.807 1.935.504.438.314 1.055.353 1.556.135.18.185.376.345.618.512.793.542 1.542.145 1.887-.52.749.631 1.646.267 2.075-.394.165.065.349.112.562.112h.247c.532 0 .896-.241 1.125-.572.195.055.39.109.585.16 1.448.386 2.164-1.289 1.509-2.258.299-.363.32-.752.238-1.115.208-.287.253-.61.228-.93.097-.025.663-.326.663-1.154"/></svg>