<svg xmlns="http://www.w3.org/2000/svg" viewBox="0 0 64 64" enable-background="new 0 0 64 64"><g fill="#f79420"><path d="m25.772 60.8c0 1.768-.836 3.2-1.866 3.2-1.031 0-1.866-1.433-1.866-3.2v-7.393c0-1.768.835-3.2 1.866-3.2 1.03 0 1.866 1.433 1.866 3.2v7.393"/><path d="m39.586 60.8c0 1.768-.836 3.2-1.866 3.2-1.03 0-1.866-1.433-1.866-3.2v-7.393c0-1.768.836-3.2 1.866-3.2 1.03 0 1.866 1.433 1.866 3.2v7.393"/></g><g fill="#58767d"><path d="m.267 40.94c0-4.198 6.1-2.936 10.968-2.936 4.872 0 9.199-.078 9.199 4.118 0 4.204-3.95 7.607-8.818 7.607-4.872 0-11.349-4.586-11.349-8.789"/><path d="m63.734 40.94c0-4.198-6.1-2.936-10.973-2.936-4.871 0-9.198-.078-9.198 4.118 0 4.204 3.95 7.607 8.821 7.607 4.869 0 11.35-4.586 11.35-8.789"/></g><path fill="#7094a6" d="m8.03 38.13c0 9.657 10.778 17.479 24.09 17.479 13.309 0 24.09-7.821 24.09-17.479 0-9.648-10.781-33.452-24.09-33.452-13.312 0-24.09 23.804-24.09 33.452"/><ellipse fill="#f4f5f5" cx="22.255" cy="21.395" rx="4.932" ry="5.98"/><path fill="#25333a" d="m25.527 21.625c0 2.192-1.466 3.968-3.27 3.968-1.808 0-3.274-1.775-3.274-3.968 0-2.189 1.466-3.968 3.274-3.968 1.804 0 3.27 1.779 3.27 3.968"/><ellipse fill="#f4f5f5" cx="42.02" cy="21.395" rx="4.932" ry="5.98"/><ellipse fill="#25333a" cx="42.02" cy="21.625" rx="3.271" ry="3.968"/><path fill="#f05a2a" d="m26.03 27.692c0-2.895 2.725-.708 6.085-.708 3.362 0 6.084-2.187 6.084.708 0 2.9-2.723 8.378-6.084 8.378-3.36 0-6.085-5.478-6.085-8.378"/><path fill="#f79420" d="m26.03 25.718c0-2.895 2.726-.709 6.084-.709s6.084-2.185 6.084.709c0 2.899-2.726 8.377-6.084 8.377s-6.084-5.478-6.084-8.377"/></svg>