<svg xmlns="http://www.w3.org/2000/svg" viewBox="0 0 64 64" enable-background="new 0 0 64 64"><path d="m34.17 28.841c0 9.144-6.774 16.563-15.12 16.563-8.345 0-15.12-7.42-15.12-16.563v-8.847c0-9.145 6.774-16.563 15.12-16.563 8.342 0 15.12 7.42 15.12 16.563v8.847" fill="#593212"/><path d="m33.957 64.03v-18.02c0-4.504-6.902-8.153-15.426-8.153-8.529 0-15.441 3.653-15.441 8.153v18.02h30.867v-.001" fill="#ed307c"/><path d="m29.824 28.841c0 9.144 6.774 16.563 15.12 16.563 8.35 0 15.12-7.42 15.12-16.563v-8.847c0-9.145-6.77-16.563-15.12-16.563-8.342 0-15.12 7.42-15.12 16.563v8.847" fill="#ceb81d"/><path d="m60.913 64.03v-18.02c0-4.504-6.914-8.153-15.443-8.153-8.522 0-15.425 3.653-15.425 8.153v18.02h30.868v-.001" fill="#ac10d6"/><path d="m25.461 33.576h-6.84-.196-6.841c-.139 1.529-.935 5.979-.506 6.268.388.262 5.354.67 7.442.67 2.093 0 7.06-.408 7.446-.67.43-.289-.367-4.739-.505-6.268" fill="#cb2874"/><path d="m23.621 5.684c-1.506 1.445-3.146 2.776-4.807 4.089-3.277 2.591-7.104 4.521-9.521 7.959-2.896 4.116-4.553 8.357-4.059 13.361.361 3.653 3.063 6.05 4.053 9.431.924 3.153-.373 8.735-5.189 6.317-1.371-.688-.639 2.983 3.229 2.976 4.428-.02 6.078-3.938 5.16-7.488-.921-3.549-3.506-4.887-4.609-8.229-.879-2.657-1.438-7.04-.588-9.682 2.598-7.46 7.172-10.22 8.934-11.769.727-.638 6.447-4.369 7.404-6.759.001-.069-.005-.137-.007-.206" fill="#593212"/><g transform="translate(.016)"><path d="m30.32 20.719c1.438 2.062.781 7.29.834 8.652.057 1.358-.992 4.854-1.885 6.25-.365.576.006 1.287.477 1.396 4.256-6.02 5.365-16.13.113-20.409-3.39-2.761-7.98-3.625-11.02-6.423 1.232 2.118 3.057 3.615 5.701 5.349 2.531 1.66 4.175 2.878 5.785 5.185" fill="#593212"/></g><path d="m40.38 5.684c1.506 1.445 3.145 2.776 4.809 4.089 3.275 2.591 7.104 4.521 9.521 7.959 2.895 4.116 4.553 8.357 4.059 13.361-.361 3.653-3.063 6.05-4.053 9.431-.924 3.153.373 8.735 5.188 6.317 1.371-.688.64 2.983-3.229 2.976-4.428-.02-6.075-3.938-5.157-7.488.92-3.549 3.504-4.887 4.608-8.229.877-2.657 1.437-7.04.588-9.682-2.6-7.46-7.172-10.22-8.936-11.769-.724-.638-6.444-4.369-7.401-6.759-.004-.069.002-.137.003-.206" fill="#ceb81d"/><g transform="translate(-.019)"><path d="m33.684 20.719c-1.438 2.062-.781 7.29-.836 8.652-.057 1.358.992 4.854 1.887 6.25.365.576-.008 1.287-.477 1.396-4.257-6.02-5.366-16.13-.113-20.412 3.392-2.76 7.98-3.623 11.02-6.422-1.232 2.118-3.055 3.615-5.699 5.348-2.533 1.663-4.18 2.881-5.787 5.188" fill="#ceb81d"/></g><path d="m52.42 33.518h-6.842-.197-6.84c-.139 1.528-.934 5.978-.506 6.267.387.262 5.354.67 7.443.67 2.092 0 7.06-.408 7.445-.67.428-.291-.369-4.738-.503-6.267" fill="#9413bf"/><g transform="translate(.016)"><path d="m25.953 28.325c0 1.928-3.309 3.492-7.385 3.492-4.074 0-7.379-1.564-7.379-3.492" fill="#fff"/></g><path d="m4.416 25.362c0 5.898 6.547 10.675 14.641 10.675 8.09 0 14.645-4.777 14.645-10.675 0-5.896-6.557-14.635-14.645-14.635-8.094 0-14.641 8.738-14.641 14.635" fill="#fbbf67"/><g fill="#25333a"><path d="m16.221 21.381c0 1.439-.967 2.614-2.152 2.614-1.191 0-2.15-1.175-2.15-2.614 0-1.451.959-2.617 2.15-2.617 1.185.002 2.152 1.166 2.152 2.617"/><path d="m26.467 21.381c0 1.439-.965 2.614-2.15 2.614-1.195 0-2.162-1.175-2.162-2.614 0-1.451.967-2.617 2.162-2.617 1.185.002 2.15 1.166 2.15 2.617"/></g><path d="m19.06 30.473c.992 0 1.797.803 1.797 1.795 0 .992-.805 1.798-1.797 1.798-.994 0-1.797-.808-1.797-1.798 0-.994.801-1.795 1.797-1.795" fill="#633f1a"/><g transform="translate(.016)"><path d="m25.709 28.12c0 3.799-3.082 6.88-6.881 6.88-3.797 0-6.882-3.082-6.882-6.88" fill="#633f1a"/><path d="m24.533 28.811c0 1.518-2.604 2.748-5.816 2.748-3.211 0-5.816-1.23-5.816-2.748" fill="#fff"/></g><path d="m23.637 5.862c.168-2.547-3.33-3.912-5.223-4.17-1.89-.26-3.201.151-4.717.711-4.347 1.607-7.244 5.384-9.33 9.209-2.881 4.22-4.914 8.715-4.217 14.04.405 3.104 1.833 6.02 3.444 8.718 1.021 1.709 2.222 3.314 3.204 5.05.637 1.119-.145 5.05-2.18 5.209-2.035.162-2 5.178 2.721 5.16 4.427-.018 6.06-3.939 5.146-7.49-.921-3.549-4.865-5.111-5.439-8.229-.506-2.751-.604-7.03.242-9.681.69-2.426 2.317-6.404 4.146-8.154 2.453-2.35 2.965-2.43 4.597-4.111 2.588-2.672 8.06-2.526 7.606-6.26" fill="#7c4622"/><path d="m23.621 5.653c-1.506 1.445-3.146 2.777-4.807 4.09-3.277 2.59-7.104 4.521-9.521 7.959-2.895 4.115-4.551 8.357-4.057 13.361.36 3.652 3.063 6.05 4.053 9.429.924 3.154-.373 8.736-5.19 6.318-1.371-.689-.638 2.982 3.229 2.975 4.428-.018 6.078-3.938 5.16-7.488-.922-3.549-3.507-4.887-4.609-8.229-.879-2.656-1.438-7.03-.588-9.679 2.597-7.461 7.172-10.221 8.933-11.77.726-.637 6.448-4.368 7.405-6.758 0-.071-.006-.138-.008-.208" fill="#593212"/><path d="m1.822 30.809c-.621-4.367.293-8.791 2.469-12.701 2.146-3.844 4.658-7.06 8.492-9.547 2.229-1.445 5.95-3.545 8.31-6.03-.931-.457-1.935-.738-2.687-.842-1.892-.26-3.203.152-4.722.713-4.347 1.604-7.239 5.383-9.33 9.207-2.881 4.221-4.911 8.715-4.217 14.04.256 1.953.916 3.834 1.771 5.631-.025-.157-.064-.319-.086-.473" fill="#864f28"/><g transform="translate(.016)"><path d="m34.06 13.666c-1.546-5.763-5.627-11.527-10.396-10.267-3.211.851-5.14 5.146-4.868 6.342.497 2.222 4.713 2.988 6.905 5.486 1.91 2.174 3.56 3.719 5.166 6.02 1.438 2.063.229 6.729.28 8.089.056 1.359-.993 4.855-1.885 6.25-.508.799.399 1.869 1.021 1.229 5.627-5.854 5.998-14.883 3.777-23.15" fill="#7c4622"/><path d="m30.15 14.11c2.528 2.496 3.987 5.328 4.764 8.688.154.668.266 1.379.326 2.117.291-3.666-.178-7.532-1.176-11.247-1.546-5.761-5.627-11.527-10.396-10.265-2.256.598-3.758 2.881-4.442 4.611 2.662 2.869 8.151 3.358 10.924 6.096" fill="#864f28"/><path d="m30.32 20.688c1.438 2.061.781 7.291.834 8.652.057 1.359-.992 4.854-1.885 6.25-.365.576.006 1.287.477 1.396 4.256-6.02 5.365-16.13.113-20.408-3.39-2.76-7.98-3.624-11.02-6.422 1.232 2.117 3.057 3.615 5.701 5.348 2.531 1.659 4.175 2.877 5.785 5.184" fill="#593212"/></g><g transform="translate(-.019)"><path d="m54.02 27.448c0 4.816-3.914 8.731-8.734 8.731-4.822 0-8.729-3.913-8.729-8.731" fill="#633f1a"/><path d="m52.813 28.325c0 1.928-3.307 3.492-7.379 3.492-4.076 0-7.385-1.564-7.385-3.492" fill="#fff"/></g><path d="m59.58 25.362c0 5.898-6.545 10.675-14.641 10.675-8.09 0-14.645-4.777-14.645-10.675 0-5.896 6.559-14.635 14.645-14.635 8.096 0 14.641 8.738 14.641 14.635" fill="#fbbf67"/><g fill="#25333a"><path d="m47.776 21.381c0 1.439.967 2.614 2.154 2.614 1.191 0 2.15-1.175 2.15-2.614 0-1.451-.959-2.617-2.15-2.617-1.187.002-2.154 1.166-2.154 2.617"/><path d="m37.532 21.381c0 1.439.965 2.614 2.15 2.614 1.195 0 2.164-1.175 2.164-2.614 0-1.451-.969-2.617-2.164-2.617-1.185.002-2.15 1.166-2.15 2.617"/></g><path d="m44.94 30.473c-.988 0-1.795.803-1.795 1.795 0 .992.807 1.798 1.795 1.798.994 0 1.799-.808 1.799-1.798 0-.994-.805-1.795-1.799-1.795" fill="#633f1a"/><g transform="translate(-.019)"><path d="m38.29 28.12c0 3.799 3.082 6.88 6.883 6.88 3.799 0 6.883-3.082 6.883-6.88" fill="#633f1a"/><path d="m39.471 28.811c0 1.518 2.604 2.748 5.814 2.748 3.21 0 5.816-1.23 5.816-2.748" fill="#fff"/></g><path d="m47.967 12.12c1.631 1.683 2.143 1.763 4.596 4.113 1.826 1.75 3.455 5.729 4.146 8.154.848 2.646.748 6.93.242 9.68-.574 3.117-4.521 4.682-5.439 8.229-.918 3.551.721 7.475 5.146 7.488 4.725.02 4.756-4.998 2.721-5.158-2.033-.162-2.816-4.09-2.185-5.209.981-1.73 2.185-3.34 3.203-5.05 1.612-2.691 3.039-5.613 3.444-8.718.695-5.322-1.334-9.816-4.217-14.04-2.086-3.826-4.983-7.603-9.332-9.209-1.518-.561-2.826-.973-4.717-.713-1.896.26-5.395 1.623-5.229 4.17-.435 3.739 5.03 3.593 7.621 6.261" fill="#e2d642"/><path d="m40.38 5.653c1.506 1.445 3.145 2.777 4.807 4.09 3.277 2.59 7.105 4.521 9.521 7.959 2.896 4.115 4.553 8.357 4.061 13.361-.361 3.652-3.063 6.05-4.055 9.429-.924 3.154.373 8.736 5.19 6.318 1.371-.689.638 2.982-3.229 2.975-4.428-.018-6.076-3.938-5.156-7.488.92-3.549 3.504-4.887 4.607-8.229.877-2.656 1.438-7.03.588-9.679-2.599-7.461-7.172-10.221-8.935-11.77-.724-.637-6.446-4.368-7.403-6.758-.003-.071.003-.138.004-.208" fill="#ceb81d"/><path d="m62.18 30.809c.621-4.367-.291-8.791-2.469-12.701-2.146-3.844-4.656-7.06-8.49-9.547-2.229-1.445-5.953-3.545-8.309-6.03.928-.457 1.934-.738 2.684-.842 1.891-.26 3.203.152 4.719.713 4.352 1.605 7.244 5.384 9.332 9.209 2.881 4.22 4.912 8.715 4.215 14.04-.256 1.955-.916 3.834-1.77 5.631.03-.157.067-.319.088-.473" fill="#f4e345"/><g transform="translate(-.019)"><path d="m29.937 13.666c1.549-5.764 5.627-11.527 10.395-10.268 3.211.851 5.141 5.146 4.871 6.342-.498 2.222-4.711 2.988-6.906 5.486-1.91 2.174-3.557 3.719-5.168 6.02-1.438 2.063-.229 6.729-.279 8.089-.057 1.359.992 4.854 1.887 6.25.509.8-.397 1.869-1.021 1.228-5.632-5.852-6-14.881-3.779-23.15" fill="#e2d642"/><path d="m33.852 14.11c-2.527 2.496-3.986 5.328-4.764 8.688-.152.668-.262 1.379-.324 2.117-.291-3.666.178-7.532 1.176-11.247 1.544-5.761 5.623-11.527 10.39-10.265 2.258.598 3.766 2.881 4.445 4.611-2.662 2.869-8.154 3.358-10.923 6.096" fill="#f4e345"/><path d="m33.684 20.688c-1.438 2.061-.781 7.291-.836 8.652-.057 1.359.992 4.854 1.887 6.25.365.576-.008 1.287-.477 1.396-4.257-6.02-5.366-16.13-.113-20.41 3.39-2.76 7.98-3.623 11.02-6.422-1.232 2.119-3.055 3.615-5.699 5.349-2.533 1.66-4.18 2.878-5.787 5.185" fill="#ceb81d"/></g><g transform="translate(-.019)"><path d="m45.945 26c0 .557-.473.547-1.119.547-.646 0-1.221.012-1.221-.547 0-.561.524-1.01 1.17-1.01.645 0 1.17.448 1.17 1.01" opacity=".6" fill="#c07929"/></g><g fill="#c07929"><path d="m19.902 26.01c0 .557-.474.547-1.119.547-.648 0-1.222.012-1.222-.547 0-.561.524-1.01 1.17-1.01.646 0 1.171.448 1.171 1.01" opacity=".6"/><path d="m45.926 26.01c0 .557-.473.547-1.119.547-.648 0-1.221.012-1.221-.547 0-.561.522-1.01 1.17-1.01.645 0 1.17.448 1.17 1.01" opacity=".6"/></g><g fill="#e8b3c7"><path d="m24.756 56.48c-2.978 0-12.583 0-14.48 0-.115 0 .653 6.175.653 7.01 0 .06 13.302.116 13.302.116s.645-7.123.525-7.123"/><path d="m11.303 64.15c2.537 0 10.707 0 12.32 0 .104 0-.494-1.254-.494-1.957 0-.053-11.322-.104-11.322-.104s-.604 2.061-.504 2.061"/></g><g fill="#633d19"><path d="m25.26 62.95c.09.778 2.107.692 4.264-.236 2.161-.932 3.148-2.86 3.056-3.64-.087-.781-3.303-9.506-5.46-8.575-2.159.931-1.952 11.672-1.86 12.451"/><path d="m30.455 47.834c0 3.821-5.848 6.924-13.05 6.924-7.205 0-13.05-3.103-13.05-6.924v-3.698c0-3.823 5.85-9.754 13.05-9.754 7.204 0 13.05 5.931 13.05 9.754v3.698"/></g><path fill="#ea307c" d="m30.28 51.568c.209 1.27-.969 1.408-2.574 1.633-1.604.226-3.02.447-3.237-.82-.21-1.268.922-2.477 2.524-2.701 1.606-.224 3.078.622 3.287 1.888"/><path fill="#633d19" d="m9.672 62.95c-.092.778-2.106.692-4.264-.236-2.16-.932-3.148-2.86-3.057-3.64.088-.781 3.303-9.506 5.459-8.575 2.162.931 1.952 11.672 1.862 12.451"/><path fill="#ea307c" d="m4.646 51.568c-.209 1.27.972 1.408 2.576 1.633 1.604.226 3.03.447 3.234-.82.213-1.268-.919-2.477-2.524-2.701-1.604-.224-3.075.622-3.286 1.888"/><path fill="#fbbf67" d="m5.537 50.834c0 4.712 5.228 8.523 11.688 8.523 6.456 0 11.686-3.813 11.686-8.523 0-4.706-5.229-16.314-11.686-16.314-6.46 0-11.688 11.608-11.688 16.314"/><g fill="#25333a"><path d="m14.963 51.12c0 1.149-.775 2.086-1.721 2.086-.955 0-1.721-.938-1.721-2.086 0-1.152.766-2.095 1.721-2.095.946 0 1.721.943 1.721 2.095"/><path d="m23.14 51.12c0 1.149-.774 2.086-1.723 2.086-.955 0-1.723-.938-1.723-2.086 0-1.152.768-2.095 1.723-2.095.948 0 1.723.943 1.723 2.095"/></g><path fill="#633d19" d="m27.465 47.31c.021-3.199.037-5.322.07-8.582-5.787-5.638-14.08-5.805-20.02-.063-.064 3.211-.128 6.349-.197 9.502 6.623-.814 13.412-1.1 20.15-.857"/><path fill="#633f1a" d="m21.403 54.864c0 2.307-1.872 4.18-4.182 4.18-2.307 0-4.179-1.873-4.179-4.18"/><path fill="#fff" d="m20.686 55.28c0 .923-1.581 1.67-3.531 1.67-1.951 0-3.534-.747-3.534-1.67"/><path fill="#ea307c" d="m9.297 40.826c.363-6.891 15.779-5.524 17.17-1.318-6.279-.883-10.974-.753-17.17 1.318"/><g fill="#e8b3c7"><path d="m53.829 56.861c-2.978 0-12.583 0-14.479 0-.115 0 .652 6.174.652 7.01 0 .06 13.303.115 13.303.115s.644-7.121.524-7.121"/><path d="m40.38 64.53c2.537 0 10.707 0 12.319 0 .104 0-.493-1.252-.493-1.957 0-.053-11.322-.104-11.322-.104s-.605 2.061-.504 2.061"/></g><g fill="#633d19"><path d="m54.33 63.33c.09.779 2.106.693 4.264-.236 2.161-.932 3.148-2.861 3.056-3.64-.086-.781-3.303-9.507-5.459-8.575-2.161.932-1.954 11.672-1.861 12.451"/><path d="m59.53 48.21c0 3.821-5.848 6.924-13.05 6.924-7.205 0-13.06-3.103-13.06-6.924v-3.698c0-3.822 5.853-9.754 13.06-9.754 7.203 0 13.05 5.932 13.05 9.754v3.698"/></g><path fill="#ea307c" d="m59.35 51.945c.209 1.269-.97 1.408-2.574 1.632-1.604.226-3.02.446-3.235-.82-.21-1.268.922-2.477 2.522-2.702 1.604-.223 3.078.623 3.287 1.89"/><path fill="#633d19" d="m38.745 63.33c-.093.779-2.106.693-4.265-.236-2.162-.932-3.147-2.861-3.059-3.64.088-.781 3.305-9.507 5.459-8.575 2.165.932 1.955 11.672 1.865 12.451"/><path fill="#ea307c" d="m33.721 51.945c-.209 1.269.971 1.408 2.575 1.632 1.604.226 3.02.446 3.233-.82.214-1.268-.918-2.477-2.523-2.702-1.606-.223-3.074.623-3.285 1.89"/><path fill="#fbbf67" d="m34.609 51.21c0 4.712 5.229 8.524 11.688 8.524 6.456 0 11.688-3.813 11.688-8.524 0-4.706-5.229-16.315-11.688-16.315s-11.688 11.609-11.688 16.315"/><g fill="#25333a"><path d="m44.04 51.5c0 1.148-.774 2.086-1.722 2.086-.955 0-1.723-.938-1.723-2.086 0-1.152.768-2.094 1.723-2.094.948 0 1.722.942 1.722 2.094"/><path d="m52.21 51.5c0 1.148-.774 2.086-1.723 2.086-.955 0-1.724-.938-1.724-2.086 0-1.152.769-2.094 1.724-2.094.948 0 1.723.942 1.723 2.094"/></g><path fill="#633d19" d="m56.54 47.682c.021-3.197.037-5.322.069-8.582-5.787-5.637-14.08-5.804-20.02-.062-.063 3.211-.128 6.349-.196 9.502 6.623-.813 13.411-1.099 20.15-.858"/><path fill="#633f1a" d="m50.48 55.24c0 2.307-1.871 4.18-4.182 4.18-2.307 0-4.179-1.873-4.179-4.18"/><path fill="#fff" d="m49.759 55.66c0 .923-1.581 1.67-3.53 1.67-1.951 0-3.535-.747-3.535-1.67"/><path fill="#ea307c" d="m38.37 41.2c.362-6.89 15.778-5.524 17.17-1.318-6.279-.883-10.974-.753-17.17 1.318"/><g fill="#c07929"><path d="m18.06 53.52c0 .334-.284.328-.671.328-.389 0-.733.007-.733-.328 0-.337.314-.605.702-.605.388 0 .703.269.703.605" opacity=".6"/><path d="m47.12 54.02c0 .334-.284.328-.671.328-.389 0-.733.007-.733-.328 0-.337.314-.605.702-.605.388 0 .703.269.703.605" opacity=".6"/></g></svg>