<svg xmlns="http://www.w3.org/2000/svg" viewBox="0 0 64 64" enable-background="new 0 0 64 64"><g transform="translate(0-.127)"><path d="m34.416 27.563c0 8.721-6.462 15.796-14.417 15.796-7.958 0-14.419-7.07-14.419-15.796v-8.437c0-8.721 6.461-15.795 14.419-15.795 7.955 0 14.417 7.07 14.417 15.795v8.437" fill="#593212"/><path d="m.536 51.52c.246-.269 38.968.021 38.968.021v12.461h-39.05c0 .001-.164-12.214.083-12.482" fill="#ea2e7c"/><g fill="#2bb273"><path d="m24.785 51.54c0 0 38.41.354 38.703.582.302.229-.094 11.883-.094 11.883h-38.609v-12.465"/><path d="m52.43 52.19h11.08l-.432-3.043c-.674-4.779-3.676-8.442-6.697-8.174-3.02.271-4.92 4.359-4.252 9.144l.299 2.073"/><path d="m52.43 52.19h10.795c.088-.063.187-.117.267-.17l-.402-2.873c-.676-4.779-3.68-8.442-6.7-8.174-3.02.271-4.916 4.359-4.246 9.144l.286 2.073"/><path d="m56.44 52.19v-4.729c0-7.188-6.523-13.01-14.568-13.01-8.05 0-14.577 5.824-14.577 13.01v4.729h29.14"/></g><g fill="#ea2e7c"><path d="m10.196 52.26l.266-2.354c.6-5.316-1.072-9.861-3.732-10.166-2.656-.293-5.297 3.774-5.894 9.09l-.383 3.426h9.743"/><path d="m10.196 52.26l.266-2.354c.6-5.316-1.072-9.861-3.732-10.166-2.656-.293-5.297 3.774-5.894 9.09l-.354 3.188c.088.069.187.151.285.235l9.429.003"/><path d="m32.533 64v-15.951c0-6.313-5.735-11.438-12.81-11.438-7.08 0-12.824 5.121-12.824 11.438v15.951z"/><path d="m12.753 40.752c2.871 0 12.1 0 13.931 0 .113 0-.627-5.938-.627-6.75 0-.059-12.795-.104-12.795-.104 0 0-.623 6.854-.509 6.854"/></g><path d="m27.11 33.857h-6.841-.198-6.84c-.138 1.528-.934 5.978-.506 6.267.387.262 5.354.67 7.444.67 2.093 0 7.06-.408 7.446-.67.428-.289-.369-4.737-.505-6.267" fill="#cb2874"/><path d="m50.906 34.445h-6.84-.199-6.84c-.137 1.529-.935 5.978-.506 6.267.389.263 5.354.67 7.444.67 2.09 0 7.06-.407 7.445-.67.43-.289-.367-4.737-.504-6.267" fill="#249260"/><path d="m28.444 25.19c-.312 6.402 6.533 11.922 15.306 12.351 8.766.432 16.12-4.397 16.434-10.799.314-6.391-6.02-22.5-14.787-22.926-8.774-.432-16.644 14.989-16.953 21.374" fill="#fbbf67"/><path d="m63.29 11.44c-.891-2.598-2.256-3.715-4.146-4.914.336-.304.693-.703 1.172-1.283.197-.238.517-.99-.055-.974-4.299.142-7.729-4.128-13.498-3.931-3.758.134-11.188 1.875-11.701 2.254-3.051 2.222-4.939 5.924-5.978 9.787-.252.936 1.077.3 1.332.084.096-.084.206-.154.305-.229-.063 1.978-.476 3.911-.404 5.904.033 1.069 1.927-.636 2.096-1.069.479-1.208 1-2.302 1.617-3.422.104-.198.129-.314.115-.415.104-.087.18-.183.229-.269 1.033-2.183 2.449-3.971 4.218-5.42 2.573.392 4.377 3.041 8.155 2.146 7.313-1.738 9.646 3.157 11.05 10.134.188.975 1.798-.383 1.99-.832 1.146-2.574.896-4.453.438-6.777.396.27.783.561 1.131.92.597.443 2.197-.927 1.935-1.694" fill="#633c17"/><g fill="#25333a"><path d="m41.5 20.529c-.078 1.563-1.189 2.779-2.48 2.72-1.291-.066-2.27-1.386-2.192-2.947.075-1.563 1.18-2.787 2.475-2.725 1.287.065 2.273 1.384 2.197 2.952"/><path d="m52.602 21.07c-.078 1.566-1.188 2.783-2.475 2.719-1.293-.063-2.279-1.381-2.203-2.949.078-1.562 1.186-2.785 2.48-2.724 1.285.065 2.274 1.385 2.198 2.954"/></g><path d="m42.44 25.929c0-.891.765-.871 1.793-.871 1.037 0 1.951-.02 1.951.871 0 .896-.84 1.615-1.873 1.615-1.032-.001-1.871-.72-1.871-1.615" opacity=".6" fill="#c27929"/><path d="m4.862 25.17c0 6.02 6.679 10.883 14.935 10.883 8.236 0 14.918-4.868 14.918-10.883 0-6.02-6.682-20.836-14.918-20.836-8.255.001-14.935 14.821-14.935 20.836" fill="#fbbf67"/><g><path d="m50.33 30.28c0 3.324-2.695 6.02-6.02 6.02-3.32 0-6.02-2.693-6.02-6.02" fill="#633f1a"/><path d="m49.3 30.883c0 1.326-2.279 2.404-5.088 2.404-2.807 0-5.084-1.078-5.084-2.404" fill="#fff"/></g><g><path d="m26.21 26.917c0 3.549-2.878 6.428-6.428 6.428-3.547 0-6.426-2.879-6.426-6.428" fill="#633f1a"/><path d="m25.12 27.562c0 1.419-2.436 2.566-5.438 2.566-2.998 0-5.432-1.147-5.432-2.566" fill="#fff"/></g><g fill="#25333a"><path d="m17.293 20.478c0 1.376-.921 2.494-2.055 2.494-1.137 0-2.051-1.118-2.051-2.494 0-1.383.914-2.493 2.051-2.493 1.136-.001 2.055 1.107 2.055 2.493"/><path d="m27.06 20.478c0 1.376-.918 2.494-2.051 2.494-1.141 0-2.063-1.118-2.063-2.494 0-1.383.923-2.493 2.063-2.493 1.133-.001 2.051 1.107 2.051 2.493"/></g><circle cx="19.999" cy="30.861" r="1.713" fill="#633f1a"/><g><path d="m26.36 26.906c0 3.622-2.939 6.563-6.563 6.563-3.622 0-6.563-2.938-6.563-6.563" fill="#633f1a"/><path d="m25.23 27.563c0 1.449-2.482 2.624-5.545 2.624-3.063 0-5.549-1.174-5.549-2.624" fill="#fff"/></g><path d="m24.368 5.677c.158-2.43-3.178-3.729-4.979-3.979-1.804-.248-3.056.145-4.498.68-4.146 1.533-6.91 5.135-8.898 8.783-2.75 4.02-4.688 8.312-4.02 13.385.389 2.963 1.749 5.75 3.285 8.317.977 1.63 2.12 3.16 3.057 4.813.606 1.07-.14 4.813-2.08 4.971-1.939.152-1.912 4.935 2.595 4.92 4.222-.018 5.784-3.758 4.907-7.145-.877-3.385-4.64-4.877-5.187-7.852-.481-2.625-.58-6.708.229-9.231.658-2.313 2.213-6.109 3.955-7.777 2.34-2.243 2.828-2.318 4.381-3.922 2.471-2.541 7.684-2.402 7.256-5.963" fill="#7c4622"/><path d="m24.354 5.479c-1.438 1.379-3 2.646-4.586 3.898-3.125 2.47-6.772 4.312-9.08 7.59-2.762 3.927-4.342 7.971-3.873 12.742.347 3.484 2.926 5.771 3.867 8.996.879 3.01-.354 8.332-4.953 6.02-1.305-.652-.605 2.852 3.082 2.838 4.224-.017 5.795-3.758 4.92-7.144-.877-3.385-3.342-4.659-4.396-7.853-.837-2.535-1.371-6.708-.562-9.23 2.477-7.115 6.84-9.747 8.52-11.223.689-.607 6.148-4.166 7.06-6.445.004-.063-.002-.126-.002-.192" fill="#593212"/><path d="m3.561 29.467c-.592-4.164.276-8.385 2.354-12.11 2.046-3.667 4.44-6.736 8.101-9.105 2.127-1.377 5.676-3.381 7.924-5.75-.887-.435-1.848-.703-2.563-.802-1.802-.248-3.055.146-4.5.681-4.146 1.533-6.906 5.134-8.898 8.783-2.746 4.02-4.686 8.311-4.02 13.385.244 1.865.873 3.658 1.688 5.373-.026-.15-.063-.303-.085-.454" fill="#864f28"/><g><path d="m34.33 13.12c-1.479-5.494-5.366-10.992-9.914-9.789-3.063.81-4.9 4.907-4.646 6.05.478 2.119 4.496 2.85 6.588 5.231 1.822 2.074 3.393 3.546 4.928 5.747 1.368 1.966.217 6.417.271 7.713.051 1.301-.949 4.628-1.801 5.963-.482.761.382 1.781.975 1.169 5.365-5.581 5.716-14.198 3.599-22.08" fill="#7c4622"/><path d="m30.594 13.541c2.41 2.379 3.8 5.082 4.542 8.286.146.636.247 1.313.311 2.02.275-3.497-.17-7.184-1.121-10.728-1.478-5.493-5.366-10.992-9.913-9.788-2.152.569-3.586 2.747-4.238 4.396 2.537 2.737 7.776 3.201 10.419 5.815" fill="#864f28"/><path d="m30.754 19.816c1.372 1.965.743 6.954.797 8.252.051 1.299-.949 4.627-1.8 5.959-.349.555.007 1.229.453 1.334 4.062-5.737 5.116-15.38.108-19.464-3.232-2.633-7.612-3.456-10.517-6.125 1.179 2.02 2.912 3.447 5.437 5.1 2.419 1.585 3.987 2.747 5.522 4.944" fill="#593212"/></g><path d="m20.967 25.02c0 .557-.474.547-1.119.547-.648 0-1.221.012-1.221-.547 0-.561.524-1.01 1.17-1.01.645 0 1.17.448 1.17 1.01" opacity=".6" fill="#c07929"/><g fill="#e8b3c7"><path d="m24.756 56.48c-2.978 0-12.583 0-14.48 0-.115 0 .653 6.175.653 7.01 0 .06 13.302.116 13.302.116 0 0 .645-7.123.525-7.123"/><path d="m11.303 64.15c2.537 0 10.707 0 12.32 0 .104 0-.494-1.254-.494-1.957 0-.053-11.322-.104-11.322-.104 0 0-.604 2.061-.504 2.061"/></g><g><g fill="#633d19"><path d="m25.26 62.95c.09.778 2.107.692 4.264-.236 2.161-.932 3.148-2.86 3.056-3.64-.087-.781-3.303-9.506-5.46-8.575-2.159.931-1.952 11.672-1.86 12.451"/><path d="m30.455 47.834c0 3.821-5.848 6.924-13.05 6.924-7.205 0-13.05-3.103-13.05-6.924v-3.698c0-3.823 5.85-9.754 13.05-9.754 7.204 0 13.05 5.931 13.05 9.754v3.698"/></g><path d="m30.28 51.568c.209 1.27-.969 1.408-2.574 1.633-1.604.226-3.02.447-3.237-.82-.21-1.268.922-2.477 2.524-2.701 1.606-.224 3.078.622 3.287 1.888" fill="#ea307c"/><path d="m9.672 62.95c-.092.778-2.106.692-4.264-.236-2.16-.932-3.148-2.86-3.057-3.64.088-.781 3.303-9.506 5.459-8.575 2.162.931 1.952 11.672 1.862 12.451" fill="#633d19"/><path d="m4.646 51.568c-.209 1.27.972 1.408 2.576 1.633 1.604.226 3.03.447 3.234-.82.213-1.268-.919-2.477-2.524-2.701-1.604-.224-3.075.622-3.286 1.888" fill="#ea307c"/><path d="m5.537 50.834c0 4.712 5.228 8.523 11.688 8.523 6.456 0 11.686-3.813 11.686-8.523 0-4.706-5.229-16.314-11.686-16.314-6.46 0-11.688 11.608-11.688 16.314" fill="#fbbf67"/><g fill="#25333a"><path d="m14.963 51.12c0 1.149-.775 2.086-1.721 2.086-.955 0-1.721-.938-1.721-2.086 0-1.152.766-2.095 1.721-2.095.946 0 1.721.943 1.721 2.095"/><path d="m23.14 51.12c0 1.149-.774 2.086-1.723 2.086-.955 0-1.723-.938-1.723-2.086 0-1.152.768-2.095 1.723-2.095.948 0 1.723.943 1.723 2.095"/></g><path d="m27.465 47.31c.021-3.199.037-5.322.07-8.582-5.787-5.638-14.08-5.805-20.02-.063-.064 3.211-.128 6.349-.197 9.502 6.623-.814 13.412-1.1 20.15-.857" fill="#633d19"/><g><path d="m21.403 54.864c0 2.307-1.872 4.18-4.182 4.18-2.307 0-4.179-1.873-4.179-4.18" fill="#633f1a"/><path d="m20.686 55.28c0 .923-1.581 1.67-3.531 1.67-1.951 0-3.534-.747-3.534-1.67" fill="#fff"/></g><path d="m9.297 40.826c.363-6.891 15.779-5.524 17.17-1.318-6.279-.883-10.974-.753-17.17 1.318" fill="#ea307c"/></g><g fill="#e8b3c7"><path d="m53.829 56.861c-2.978 0-12.583 0-14.479 0-.115 0 .652 6.174.652 7.01 0 .06 13.303.115 13.303.115 0 0 .644-7.121.524-7.121"/><path d="m40.38 64.53c2.537 0 10.707 0 12.319 0 .104 0-.493-1.252-.493-1.957 0-.053-11.322-.104-11.322-.104 0 0-.605 2.061-.504 2.061"/></g><g><g fill="#633d19"><path d="m54.33 63.33c.09.779 2.106.693 4.264-.236 2.161-.932 3.148-2.861 3.056-3.64-.086-.781-3.303-9.507-5.459-8.575-2.161.932-1.954 11.672-1.861 12.451"/><path d="m59.53 48.21c0 3.821-5.848 6.924-13.05 6.924-7.205 0-13.06-3.103-13.06-6.924v-3.698c0-3.822 5.853-9.754 13.06-9.754 7.203 0 13.05 5.932 13.05 9.754v3.698"/></g><path d="m59.35 51.945c.209 1.269-.97 1.408-2.574 1.632-1.604.226-3.02.446-3.235-.82-.21-1.268.922-2.477 2.522-2.702 1.604-.223 3.078.623 3.287 1.89" fill="#ea307c"/><path d="m38.745 63.33c-.093.779-2.106.693-4.265-.236-2.162-.932-3.147-2.861-3.059-3.64.088-.781 3.305-9.507 5.459-8.575 2.165.932 1.955 11.672 1.865 12.451" fill="#633d19"/><path d="m33.721 51.945c-.209 1.269.971 1.408 2.575 1.632 1.604.226 3.02.446 3.233-.82.214-1.268-.918-2.477-2.523-2.702-1.606-.223-3.074.623-3.285 1.89" fill="#ea307c"/><path d="m34.609 51.21c0 4.712 5.229 8.524 11.688 8.524 6.456 0 11.688-3.813 11.688-8.524 0-4.706-5.229-16.315-11.688-16.315-6.459 0-11.688 11.609-11.688 16.315" fill="#fbbf67"/><g fill="#25333a"><path d="m44.04 51.5c0 1.148-.774 2.086-1.722 2.086-.955 0-1.723-.938-1.723-2.086 0-1.152.768-2.094 1.723-2.094.948 0 1.722.942 1.722 2.094"/><path d="m52.21 51.5c0 1.148-.774 2.086-1.723 2.086-.955 0-1.724-.938-1.724-2.086 0-1.152.769-2.094 1.724-2.094.948 0 1.723.942 1.723 2.094"/></g><path d="m56.54 47.682c.021-3.197.037-5.322.069-8.582-5.787-5.637-14.08-5.804-20.02-.062-.063 3.211-.128 6.349-.196 9.502 6.623-.813 13.411-1.099 20.15-.858" fill="#633d19"/><g><path d="m50.48 55.24c0 2.307-1.871 4.18-4.182 4.18-2.307 0-4.179-1.873-4.179-4.18" fill="#633f1a"/><path d="m49.759 55.66c0 .923-1.581 1.67-3.53 1.67-1.951 0-3.535-.747-3.535-1.67" fill="#fff"/></g><path d="m38.37 41.2c.362-6.89 15.778-5.524 17.17-1.318-6.279-.883-10.974-.753-17.17 1.318" fill="#ea307c"/></g></g><g fill="#c07929"><path d="m18.02 53.13c0 .334-.284.328-.671.328-.389 0-.733.007-.733-.328 0-.337.314-.605.702-.605.387 0 .702.269.702.605" opacity=".6"/><path d="m47.09 53.623c0 .334-.284.328-.671.328-.389 0-.733.007-.733-.328 0-.337.314-.605.702-.605.387 0 .702.269.702.605" opacity=".6"/></g></svg>