<svg xmlns="http://www.w3.org/2000/svg" enable-background="new 0 0 64 64" viewBox="0 0 64 64" xmlns:xlink="http://www.w3.org/1999/xlink"><g fill="#fbb041"><path d="m14.188 50.626c0 7.39 7.345 13.374 18.632 13.374 11.283 0 18.629-5.984 18.629-13.374 0-7.381-7.347-25.593-18.629-25.593-11.287 0-18.632 18.212-18.632 25.593"/><path d="m9.07 40.76c0 9.741 10.817 17.627 24.17 17.627 13.354 0 24.17-7.886 24.17-17.627 0-9.734-10.819-33.743-24.17-33.743-13.356 0-24.17 24.01-24.17 33.743"/><path d="m56.43 33.519c0 15.09-10.382 27.329-23.19 27.329-12.807 0-23.19-12.234-23.19-27.329 0-15.1 10.38-22.696 23.19-22.696 12.808 0 23.19 7.599 23.19 22.696"/></g><path d="m28.06 62.32c-2.946-1.331-8.761-4.688-7.908-8.88 1.284-6.324-4.542-6.441-5.706-11.311-2.479-10.378.954-19.57 6.077-28.14-6.262 3.53-10.421 10.02-10.421 19.543 0 .263.027.515.031.776-.657 2.47-1.016 4.701-1.016 6.465 0 4.115 1.949 7.893 5.187 10.893.636 6.773 7.537 12.12 17.943 12.329-1.378-.495-2.771-1.041-4.187-1.677" fill="#cd7c04"/><g fill="#fff"><ellipse ry="6.122" rx="5.368" cy="37.06" cx="24.16"/><path d="m47.692 37.06c0 3.383-2.401 6.122-5.364 6.122-2.968 0-5.375-2.739-5.375-6.122 0-3.382 2.407-6.121 5.375-6.121 2.963 0 5.364 2.739 5.364 6.121"/></g><g fill="#25333a"><ellipse ry="3.207" rx="3.476" cy="37.06" cx="24.16"/><path d="m45.798 37.06c0 1.77-1.553 3.207-3.47 3.207-1.922 0-3.48-1.438-3.48-3.207 0-1.771 1.559-3.207 3.48-3.207 1.917 0 3.47 1.436 3.47 3.207"/></g><g opacity=".7"><path d="m29.82 46.834c0-1.568 1.338-1.541 3.162-1.541 1.824 0 3.445-.027 3.445 1.541 0 1.576-1.48 2.85-3.303 2.85-1.824 0-3.304-1.274-3.304-2.85" fill="#d98415"/></g><path d="m30.738 58.12c-.653-.047-1.145-.538-1.104-1.087.047-.544.613-.946 1.26-.888l2.762.221c.654.053 1.146.54 1.103 1.087-.043.544-.61.946-1.26.894l-2.761-.227" fill="#a66604"/><path d="m33.02.716c-13.03 0-23.586 9.716-23.586 14.245v10.07 3.445 4.01c4.539-5.481 15.362-8.429 21.84-9.759.579-.018 1.157-.039 1.746-.039 13.02 0 23.583 10.313 23.583 5.786v-13.518c0-4.529-10.56-14.245-23.583-14.245" fill="#a7a8ac"/><path d="m10.05 31.804c0 0 .053-.041.07-.057 4.865-5 36.25-19.18 46.21-18.17l.268 1.387c0-4.529-10.56-14.245-23.583-14.245-13.03 0-23.586 9.716-23.586 14.245v10.07 3.445 4.01c.189-.228.406-.447.614-.667l.004-.02" fill="#d1d2d3"/><path d="m28.556 1.102c-10.891 1.832-19.12 9.86-19.12 13.859v17.529c.189-.228.406-.447.614-.667l.004-.02c0 0 .053-.041.07-.057 1.795-1.845 7.202-4.941 13.809-8.06-4.937-5.845-.684-18.14 4.626-22.583" fill="#bcbdbf"/><path d="m37.2 16.674c-5.926-2.569-12.04-4.651-18.278-6.325-1.814-.487-3.677-1.03-5.563-1.557-2.331 2.265-3.701 4.548-3.701 6.169v17.529c.189-.228.406-.447.615-.667l.004-.02c0 0 .053-.041.07-.057 3.053-3.141 16.55-9.894 28.643-14.239-.597-.275-1.187-.572-1.79-.833" fill="#dbdcdd"/><g transform="translate(0 .271)"><path d="m29.51 37.15c0 4.449-2.403 8.05-5.372 8.05-2.972 0-5.377-3.599-5.377-8.05 0-4.444 2.406-8.05 5.377-8.05 2.969 0 5.372 3.605 5.372 8.05" fill="#fff" id="0"/><path d="m27.616 37.15c0 2.327-1.558 4.218-3.478 4.218-1.925 0-3.481-1.891-3.481-4.218 0-2.328 1.556-4.214 3.481-4.214 1.92 0 3.478 1.886 3.478 4.214" id="1"/></g><g transform="translate(18.239.271)"><use xlink:href="#0"/><use xlink:href="#1"/></g></svg>