<svg xmlns="http://www.w3.org/2000/svg" viewBox="0 0 64 64" enable-background="new 0 0 64 64"><path fill="#aeaeae" d="m4.516 61.56c-1.652 1.683-3.155 2.89-4.132 1.903-.979-.987.193-2.521 1.847-4.202l31.507-36.01c1.647-1.685 5.04-.988 6.02-.004.977.983 1.687 4.417.037 6.102l-35.27 32.21"/><path fill="#7c7b7d" d="m3.188 60.35l31.501-36c1.438-1.47 4.195-1.13 5.532-.364-.149-.298-.303-.561-.474-.732-.973-.981-4.362-1.678-6.01.009l-31.505 36.01c-1.654 1.681-2.826 3.214-1.852 4.202.187.187.393.271.614.313-.048-.936.923-2.133 2.196-3.433"/><g fill="#be202e"><path d="m46.672 63.03c-3.718 3.742-16.961-3.674-29.577-16.568-12.618-12.895-19.836-26.383-16.12-30.12 3.718-3.745 16.959 3.674 29.58 16.571 12.616 12.893 19.832 26.378 16.11 30.12"/><path d="m38.682 32.09c6.838-6.887 15.869-8.902 20.17-4.5l-22.846-23.351c4.301 4.395 2.245 13.547-4.595 20.429-6.836 6.884-15.87 8.905-20.17 4.505l22.848 23.346c-4.303-4.397-2.248-13.544 4.591-20.429"/></g><path fill="#a51e2d" d="m34.926 28.396c6.838-6.884 8.894-16.03 4.586-20.432l18.451 18.852c.313.23.615.486.894.773l-22.846-23.349c4.301 4.395 2.245 13.547-4.595 20.429-6.836 6.884-15.87 8.905-20.17 4.505l4.402 4.497c4.568 3.341 12.883 1.163 19.281-5.275"/><path fill="#be202e" d="m62.51 30.75c-2.41 2.426-10.982-2.377-19.16-10.73-8.168-8.352-12.844-17.09-10.438-19.509 2.405-2.423 10.985 2.382 19.16 10.732 8.169 8.35 12.84 17.09 10.437 19.507"/><path fill="#a51e2d" d="m56.6 24.713c-1.441 1.455-6.593-1.433-11.501-6.448-4.91-5.02-7.715-10.261-6.271-11.718 1.448-1.453 6.593 1.435 11.505 6.446 4.91 5.02 7.717 10.261 6.267 11.72"/></svg>