<svg xmlns="http://www.w3.org/2000/svg" enable-background="new 0 0 64 64" viewBox="0 0 64 64"><g transform="matrix(.97041 0 0 .97041 6 .999)"><path d="m.209 58.2c0 0 1.884 7.242 13.664 5.388l2.01-4.849-3.389-3.682-9.383-3.097-2.898 6.24" fill="#34484c"/><path d="m37.752 44.627c0 2.566-1.321 3.241-4.649 4.648l-28.45 12.01c-2.568 0-4.653-2.081-4.653-4.649v-39.976c0-2.569 1.511-3.421 4.653-4.649l28.45-12.01c2.568 0 4.649 2.084 4.649 4.651v39.976" fill="#78111f"/><path d="m2.588 60.798c0 0 10.663 3.056 11.285 2.793.622-.263-.398-4.621-.398-4.621l-3.857-4.158-3.588-.166-.632.898-2.81 5.254" fill="#34484c"/><path d="m32.432 2.767l-31.558 13.259 1.48 8.499 4.698.468 15.679-2.522 9.746-5.11 7.174-9.826c-1.568-2.811-3.871-4.554-7.219-4.768" fill="#f4f5f5"/><path d="m9.234 18.967c0-.741.132-1.339.384-1.846-3.227-.301-6.277-1.236-8.502-3.242-.737.681-1.103 1.525-1.103 2.783v39.976c0 2.568 2.083 4.649 4.651 4.649l4.59-1.939c-.012-.133-.021-.269-.021-.403v-39.978" fill="#34484c"/><path d="m47.798 48.566c0 2.567-1.321 3.24-4.649 4.647l-29.28 10.378c-2.567 0-4.648-2.08-4.648-4.646v-39.978c0-2.567 1.509-3.421 4.648-4.647l29.28-10.38c2.566 0 4.649 2.082 4.649 4.649v39.977" fill="#be202e"/><g fill="#78111f"><path d="m35.676 16.14c.125.323-.037.689-.362.814l-15.566 6c-.325.127-.687-.034-.814-.359-.125-.323.038-.687.362-.812l15.568-6c.326-.126.688.036.812.359"/><path d="m35.676 19c.125.323-.037.689-.362.814l-15.566 6c-.325.127-.687-.036-.814-.359-.125-.323.038-.687.362-.814l15.568-6c.326-.128.688.036.812.359"/><path d="m30.384 24.01c.125.323.048.654-.173.739l-10.632 4.1c-.221.085-.503-.109-.627-.432-.123-.323-.046-.658.174-.743l10.633-4.098c.222-.085.5.107.625.434"/></g></g></svg>