<svg xmlns="http://www.w3.org/2000/svg" viewBox="0 0 64 64" enable-background="new 0 0 64 64"><circle fill="#e0e7ec" cx="32.05" cy="32.05" r="29.694"/><path fill="#98a9b4" d="m0 32.05c0 17.673 14.379 32.05 32.05 32.05 17.673 0 32.05-14.381 32.05-32.05 0-17.675-14.378-32.06-32.05-32.06s-32.05 14.38-32.05 32.05m6.24 0c0-14.232 11.581-25.813 25.813-25.813 14.234 0 25.815 11.581 25.815 25.813 0 14.234-11.581 25.815-25.815 25.815-14.232 0-25.813-11.581-25.813-25.815"/><path fill="#85939c" d="m30.17 53.05c0 1.441.85 2.609 1.894 2.609 1.045 0 1.895-1.168 1.895-2.609v-21.12c0-1.442-.85-2.608-1.895-2.608-1.044 0-1.894 1.167-1.894 2.608v21.12"/><path fill="#788288" d="m26.82 16.17c-.64-1.292-1.919-1.961-2.855-1.497-.937.463-1.178 1.886-.54 3.176l6.784 13.698c.639 1.29 1.919 1.959 2.855 1.495.936-.463 1.179-1.886.539-3.176l-6.783-13.696"/></svg>