<svg xmlns="http://www.w3.org/2000/svg" viewBox="0 0 64 64" enable-background="new 0 0 64 64"><circle fill="#e0e7ec" cx="31.801" cy="31.799" r="29.458"/><path fill="#98a9b4" d="M0,31.801C0,49.335,14.265,63.6,31.799,63.6C49.333,63.6,63.6,49.335,63.6,31.801
		C63.6,14.265,49.333,0,31.799,0C14.265,0,0,14.265,0,31.801z M6.191,31.801c0-14.122,11.488-25.61,25.608-25.61
		c14.121,0,25.61,11.488,25.61,25.61c0,14.121-11.489,25.609-25.61,25.609C17.679,57.41,6.191,45.922,6.191,31.801z"/><path fill="#85939c" d="m29.933 52.629c0 1.432.842 2.588 1.879 2.588 1.036 0 1.879-1.156 1.879-2.588v-20.951c0-1.432-.846-2.589-1.879-2.589-1.037 0-1.879 1.157-1.879 2.589v20.951"/><path fill="#788288" d="m15.942 28.929c-1.429 0-2.589.842-2.589 1.879 0 1.035 1.161 1.877 2.591 1.877l15.16.006c1.426 0 2.587-.844 2.585-1.879.002-1.037-1.159-1.879-2.583-1.881l-15.166-.002"/></svg>