<svg xmlns="http://www.w3.org/2000/svg" viewBox="0 0 64 64" enable-background="new 0 0 64 64"><path fill="#cccbcb" d="m54.795 40.16c-.631-.61-1.398-1.097-2.143-1.553-.813-.506-2.218-.938-2.565-1.887-.225-.602.19-1.604.182-2.25-.015-.828-.514-1.681-1.354-1.896-4.566-1.17-4.512 6.578-6.43 8.727-.059.061-.103.119-.141.188-.754-.195-1.725.721-1.262 1.679.839 1.74 2.693 1.336 4.192.866 1.956-.614 3.47-.107 5.342.526 1.41.476 3.488 1.117 4.783.046 1.599-1.32.601-3.28-.604-4.446"/><path fill="#aaa" d="m54.16 39.621c.013.612-.211 1.212-.825 1.715-1.296 1.077-3.373.436-4.782-.04-1.872-.631-3.39-1.143-5.343-.526-.139.04-.274.084-.415.124-.095.153-.199.291-.309.413-.055.062-.099.121-.141.188-.752-.19-1.721.724-1.26 1.684.843 1.737 2.698 1.331 4.19.863 1.958-.616 3.47-.106 5.344.53 1.41.468 3.488 1.113 4.781.038 1.604-1.318.605-3.278-.602-4.442-.201-.194-.411-.373-.638-.547"/><path fill="#cccbcb" d="m9.614 55.951c.626.607 1.398 1.092 2.145 1.549.813.505 2.216.943 2.562 1.887.222.604-.188 1.61-.183 2.256.017.823.514 1.677 1.354 1.891 4.565 1.176 4.509-6.574 6.431-8.723.055-.059.101-.121.138-.192.755.194 1.723-.718 1.264-1.678-.84-1.739-2.698-1.329-4.194-.863-1.954.614-3.47.104-5.341-.528-1.411-.478-3.486-1.115-4.786-.044-1.593 1.319-.597 3.279.61 4.445"/><path fill="#aaa" d="m10.245 56.49c-.013-.614.214-1.212.828-1.72 1.297-1.07 3.375-.43 4.784.047 1.872.631 3.387 1.143 5.343.523.134-.037.274-.081.413-.125.096-.151.199-.288.306-.411.055-.061.101-.124.143-.188.755.192 1.721-.726 1.26-1.684-.843-1.735-2.694-1.331-4.19-.863-1.958.62-3.47.106-5.344-.526-1.409-.474-3.486-1.115-4.786-.042-1.593 1.32-.602 3.278.61 4.441.197.192.411.371.633.548"/><path fill="#cccbcb" d="m42.03 40.698c1.113-.549 2.459-.096 3.01 1.013.55 1.117.095 2.461-1.017 3.01l-21.11 10.428c-1.113.547-2.459.09-3.01-1.019-.551-1.111-.094-2.459 1.015-3.01l21.11-10.429"/><path fill="#90a2a5" d="m33.13 0c-8.618 0-15.604 6.079-15.604 13.573 0 4.39 2.396 8.289 6.108 10.771v5.792c0 2.056 1.568 3.744 3.576 3.938 0-.008-.004-.015-.004-.024v-1.56c0-.327.268-.593.593-.593.327 0 .595.266.595.593v1.56c0 .017-.006.031-.006.046h1.981c0-.015-.006-.029-.006-.046v-1.56c0-.327.266-.593.595-.593.325 0 .596.266.596.593v1.56c0 .017-.006.031-.006.046h2.574c0-.015-.006-.029-.006-.046v-1.56c0-.327.268-.593.598-.593.322 0 .593.266.593.593v1.56c0 .017-.006.031-.006.046h1.98c-.002-.015-.006-.029-.006-.046v-1.56c0-.327.264-.593.598-.593.322 0 .591.266.591.593v1.56c0 .017-.007.031-.007.046h.206c2.185 0 3.958-1.773 3.958-3.96v-5.792c3.714-2.482 6.108-6.381 6.108-10.771 0-7.494-6.984-13.573-15.599-13.573m-5.725 21.419c-1.333 0-2.413-1.08-2.413-2.406 0-1.332 1.08-2.409 2.413-2.409 1.329 0 2.406 1.077 2.406 2.409.001 1.327-1.077 2.406-2.406 2.406m8.146 6.998c-.035.01-.071.01-.104.002-1.769 0-3.537 0-5.304 0-.255 0-.381-.264-.276-.474.895-1.792 1.79-3.585 2.689-5.375.103-.209.44-.209.545 0 .897 1.79 1.792 3.583 2.689 5.375.036.075.04.146.027.209-.018.131-.104.248-.266.263m2.767-6.998c-1.329 0-2.406-1.08-2.406-2.406 0-1.332 1.077-2.409 2.406-2.409 1.333 0 2.41 1.077 2.41 2.409.001 1.327-1.077 2.406-2.41 2.406"/><path fill="#cccbcb" d="m9.878 40.03c.631-.61 1.398-1.097 2.142-1.554.813-.505 2.218-.937 2.566-1.884.222-.604-.193-1.606-.182-2.252.015-.828.511-1.679 1.352-1.897 4.565-1.169 4.513 6.578 6.429 8.727.061.062.103.119.143.188.754-.193 1.723.721 1.262 1.681-.84 1.74-2.694 1.334-4.192.864-1.956-.614-3.469-.107-5.343.528-1.409.474-3.486 1.115-4.782.044-1.598-1.319-.602-3.277.605-4.445"/><path fill="#aaa" d="m10.514 39.491c-.015.612.211 1.212.826 1.715 1.295 1.077 3.373.436 4.782-.038 1.87-.633 3.387-1.143 5.341-.528.14.04.276.084.415.124.096.153.199.291.308.413.057.062.098.121.14.188.755-.19 1.723.724 1.26 1.684-.84 1.737-2.695 1.331-4.188.863-1.96-.616-3.472-.104-5.343.53-1.411.468-3.49 1.113-4.784.038-1.602-1.318-.604-3.276.604-4.44.2-.194.412-.375.639-.549"/><path fill="#cccbcb" d="m55.06 55.823c-.627.605-1.398 1.092-2.145 1.547-.813.505-2.216.943-2.562 1.887-.222.604.188 1.61.183 2.256-.017.825-.514 1.677-1.356 1.891-4.565 1.176-4.509-6.574-6.432-8.723-.052-.059-.101-.122-.136-.192-.755.194-1.726-.718-1.264-1.678.84-1.739 2.697-1.329 4.192-.863 1.955.614 3.471.104 5.343-.528 1.411-.478 3.484-1.115 4.786-.044 1.592 1.319.599 3.279-.609 4.447"/><path fill="#aaa" d="m54.43 56.36c.015-.614-.214-1.212-.826-1.72-1.298-1.07-3.377-.428-4.783.047-1.874.631-3.388 1.143-5.344.523-.136-.035-.274-.082-.413-.126-.096-.15-.199-.287-.306-.41-.057-.062-.103-.124-.143-.188-.755.192-1.721-.726-1.26-1.682.841-1.738 2.693-1.333 4.188-.863 1.958.618 3.471.104 5.345-.528 1.409-.474 3.486-1.115 4.784-.042 1.595 1.32.602 3.278-.608 4.441-.196.194-.41.374-.634.548"/><path fill="#cccbcb" d="m22.645 40.568c-1.113-.549-2.459-.094-3.01 1.015-.549 1.115-.095 2.459 1.014 3.01l21.11 10.429c1.112.547 2.458.09 3.01-1.019.549-1.111.092-2.457-1.015-3l-21.11-10.432"/></svg>