<svg xmlns="http://www.w3.org/2000/svg" viewBox="0 0 64 64" enable-background="new 0 0 64 64"><path fill="#bcbec0" d="m54.23 12.566c-2.113-1.57-5.02-2.599-7.201-3.312-4.219-1.378-10.541-2.101-15.03-2.247v-.007c-.025 0-.053.004-.077.004-.025 0-.052-.004-.078-.004v.008c-4.487.146-10.81.869-15.03 2.247-2.18.713-5.09 1.742-7.202 3.312-4.693.246-9.187 6.23-9.583 8.947-.421 2.905 3.308 5.779 8.341 6.423 5.02.639 9.438-1.199 9.863-4.104.169-1.162-.222-3.086-1.062-5.02 4.631-1.94 10.244-2.915 14.749-3.102 4.503.187 10.116 1.162 14.749 3.102-.841 1.932-1.23 3.856-1.063 5.02.425 2.905 4.84 4.743 9.865 4.104 5.03-.645 8.763-3.518 8.34-6.423-.395-2.717-4.888-8.702-9.584-8.948"/><path fill="#d1d3d4" d="m58.758 55.609v-15.657l-15.308-18.37v-6.123h-5.1v3.681h-12.996v-3.681h-5.102v6.123l-15.31 18.37v15.657z"/><g fill="#e7e6e6"><path d="m26.76 31.25c0 1.061-.743 1.917-1.651 1.917h-2.83c-.912 0-1.651-.855-1.651-1.917v-2.367c0-1.055.739-1.91 1.651-1.91h2.83c.908 0 1.651.855 1.651 1.91v2.367"/><path d="m34.91 31.25c0 1.061-.738 1.917-1.648 1.917h-2.829c-.912 0-1.651-.855-1.651-1.917v-2.367c0-1.055.739-1.91 1.651-1.91h2.829c.91 0 1.648.855 1.648 1.91v2.367"/><path d="m42.881 31.25c0 1.061-.743 1.917-1.653 1.917h-2.828c-.912 0-1.651-.855-1.651-1.917v-2.367c0-1.055.739-1.91 1.651-1.91h2.828c.91 0 1.653.855 1.653 1.91v2.367"/><path d="m26.854 39.34c0 1.058-.743 1.913-1.651 1.913h-2.831c-.912 0-1.651-.855-1.651-1.913v-2.369c0-1.053.739-1.909 1.651-1.909h2.831c.908 0 1.651.856 1.651 1.909v2.369"/><path d="m35.01 39.34c0 1.058-.737 1.913-1.649 1.913h-2.828c-.912 0-1.651-.855-1.651-1.913v-2.369c0-1.053.739-1.909 1.651-1.909h2.828c.912 0 1.649.856 1.649 1.909v2.369"/><path d="m42.975 39.34c0 1.058-.742 1.913-1.652 1.913h-2.829c-.911 0-1.65-.855-1.65-1.913v-2.369c0-1.053.739-1.909 1.65-1.909h2.829c.91 0 1.652.856 1.652 1.909v2.369"/><path d="m26.948 47.672c0 1.056-.743 1.913-1.651 1.913h-2.831c-.912 0-1.651-.857-1.651-1.913v-2.368c0-1.054.739-1.91 1.651-1.91h2.831c.908 0 1.651.856 1.651 1.91v2.368"/><path d="m35.1 47.672c0 1.056-.741 1.913-1.651 1.913h-2.829c-.912 0-1.651-.857-1.651-1.913v-2.368c0-1.054.739-1.91 1.651-1.91h2.829c.91 0 1.651.856 1.651 1.91v2.368"/><path d="m43.07 47.672c0 1.056-.741 1.913-1.651 1.913h-2.828c-.914 0-1.651-.857-1.651-1.913v-2.368c0-1.054.737-1.91 1.651-1.91h2.828c.91 0 1.651.856 1.651 1.91v2.368"/></g></svg>