<svg xmlns="http://www.w3.org/2000/svg" viewBox="0 0 64 64" enable-background="new 0 0 64 64"><path fill="#f1f2f2" d="m0 7.688h64v48h-64z"/><path fill="#bcbec0" d="M0 55.688 32.06 20.94 64 55.688z"/><path fill="#e7e6e6" d="M.127 55.688 32.06 23.68 64 55.688z"/><path fill="#bcbec0" d="M64 7.688 31.938 44.25 0 7.688z"/><path fill="#e7e6e6" d="M63.873 7.688 31.938 39.696 0 7.688z"/><path fill="#c13a51" d="m33.02 42.718c.051.023.1.061.152.08 1.678.633 3.615 1.066 5.098-.27 1.072-.965 1.494-2.283 1.369-3.639 2.076-1 4.088-2.877 2.9-5.396-.484-1.029-1.266-1.654-2.176-2.037.113-.34.207-.68.215-1.051.043-1.854-1.049-3.199-2.664-3.369-.764-.951-1.709-1.748-2.834-2.289-1.525-.736-3.518-.211-4.697 1.012-.037-.082-.051-.168-.094-.248-1.461-2.691-5.488-2.408-6.092.777-.256 1.354.178 2.686.902 3.826-.139.539-.201 1.105-.256 1.591.18-1.599-2.148.807-2.633 1.414-1.699 2.128-1.203 5.534 1.414 6.679.395.156.805.25 1.229.273.242.029.43.049.578.059.184.877.482 1.662 1.184 2.404 1.623 1.721 4.521 2.592 6.254.455.067-.08.091-.185.151-.271"/><circle fill="#ce3a4c" cx="32.14" cy="33.965" r="8.07"/><circle fill="#dd4e66" cx="32.14" cy="33.965" r="6.917"/></svg>