<svg xmlns="http://www.w3.org/2000/svg" viewBox="0 0 64 64" enable-background="new 0 0 64 64"><path fill="#fff" d="m9.501 7.616h45.49v48.52h-45.49z"/><path fill="#405967" d="m63.716 6.962c0-1.656 0-2.609 0-2.609 0-2.242-1.792-4.074-4.055-4.214-.006 0-.01 0-.018 0-.082-.004-.165-.006-.251-.006h-6.847c-.321 0-.631.037-.933.099-.079 0-.157 0-.241 0-.208.059-.359.066-.545.109-1.618.551-2.873 2.765-4.228 2.765-1.545 0-2.994-2.341-4.695-2.716-.307-.041-.616-.08-.982-.158 0 0-1.906 0-4.133 0-.282.14-.43.171-.628.243-1.541.907-2.798 2.995-4.248 2.874-1.45-.125-2.8-2.212-4.354-3.02-.23-.021-.473-.046-.744-.093-1.938 0-4.158 0-4.158 0-.366.078-.677.117-.981.158-1.703.375-3.152 2.716-4.697 2.716-1.354 0-2.609-2.214-4.228-2.765-.185-.042-.338-.05-.544-.109-.035 0-.068 0-.105 0-.299-.062-.611-.099-.93-.099h-6.85c-2.387 0-4.321 1.891-4.321 4.222 0 0 0 .175 0 .508 0 .44 0 1.154 0 2.1.043.264.053.455.085.694.43 2.059 2.171 3.654 2.171 5.376 0 1.969-1.836 3.81-2.132 5.977-.035.387-.062.782-.124 1.251 0 0 0 2.424 0 5.253.113.364.136.548.192.799.712 1.963 2.354 3.561 2.255 5.403-.093 1.844-1.736 3.569-2.374 5.543-.018.298-.038.599-.073.949 0 2.466 0 5.287 0 5.287.062.469.089.863.125 1.255.296 2.161 2.132 4 2.132 5.971 0 1.721-1.741 3.321-2.171 5.376-.033.241-.043.432-.086.701 0 1.651 0 2.604 0 2.604 0 2.24 1.792 4.081 4.055 4.213.004 0 .01 0 .014 0 .088.006.167.01.253.01h6.849c.436 0 .856-.068 1.255-.181.109-.021.21-.035.325-.061 1.619-.551 2.874-2.763 4.228-2.763 1.545 0 2.995 2.335 4.697 2.714.305.037.615.08.982.155 0 0 1.905 0 4.131 0 .282-.14.43-.173.628-.245 1.543-.902 2.798-2.994 4.248-2.871 1.45.122 2.799 2.214 4.354 3.02.231.023.471.047.745.093 1.937 0 4.158 0 4.158 0 .366-.075.678-.118.982-.155 1.701-.379 3.15-2.714 4.695-2.714 1.354 0 2.609 2.212 4.228 2.763.186.039.337.053.545.106.031 0 .061 0 .094 0 .345.086.706.135 1.08.135h6.847c2.39 0 4.323-1.892 4.323-4.223 0 0 0-.179 0-.508 0-.439 0-1.155 0-2.097-.045-.269-.053-.46-.086-.701-.434-2.055-2.169-3.655-2.169-5.376 0-1.967 1.833-3.81 2.131-5.971.03-.392.062-.786.124-1.255 0 0 0-2.423 0-5.254-.114-.361-.136-.549-.192-.8-.712-1.961-2.356-3.559-2.257-5.401.097-1.845 1.737-3.567 2.375-5.542.018-.3.039-.603.074-.948 0-2.471 0-5.29 0-5.29-.062-.469-.094-.864-.124-1.251-.298-2.167-2.131-4.01-2.131-5.977 0-1.722 1.735-3.317 2.169-5.376.033-.237.041-.427.086-.692m-10.826 47.573h-42.06v-45.48h42.06v45.48"/><path fill="#f7941e" d="m23.611 29.595c0 .928-.751 1.681-1.677 1.681h-7.02c-.932 0-1.681-.753-1.681-1.681v-16.02c0-.926.75-1.677 1.681-1.677h7.02c.926 0 1.677.751 1.677 1.677v16.02"/><path fill="#bcbec0" d="m50.41 51.01c0 .929-1.068 1.682-2.384 1.682h-9.976c-1.325 0-2.387-.753-2.387-1.682v-16.02c0-.927 1.062-1.678 2.387-1.678h9.976c1.315 0 2.384.751 2.384 1.678v16.02"/><path fill="#da1c5c" d="m31.818 33.31c.975 0 1.765 1.396 1.765 3.113v13.04c0 1.732-.79 3.121-1.765 3.121h-16.82c-.973 0-1.763-1.389-1.763-3.121v-13.03c0-1.718.79-3.113 1.763-3.113h16.82z"/><path fill="#27aae1" d="m48.26 11.895c1.188 0 2.153 1.405 2.153 3.135v13.11c0 1.74-.965 3.141-2.153 3.141h-20.522c-1.187 0-2.148-1.401-2.148-3.141v-13.11c0-1.73.961-3.135 2.148-3.135h20.522"/></svg>