<svg xmlns="http://www.w3.org/2000/svg" enable-background="new 0 0 64 64" viewBox="0 0 64 64"><path d="m64 57.1c0 3.813-3.089 6.904-6.898 6.904h-50.21c-3.808 0-6.896-3.091-6.896-6.904v-50.2c0-3.81 3.088-6.9 6.896-6.9h50.21c3.809 0 6.898 3.09 6.898 6.9v50.2" fill="#8cc6eb"/><path d="m45.663 56.34c-.973-3.03-6.782-5.229-13.81-5.229-7.03 0-12.833 2.2-13.806 5.229l-.297.924h2.279l.164-.478c.664-1.931 5.211-3.929 11.661-3.929 6.456 0 11 1.995 11.664 3.929l.163.478h2.281l-.297-.924" fill="#cb384f"/><g transform="scale(.99741.99735)" fill="#de374b"><path d="m49.778 60.28c-.274-.503-.542-1-.811-1.498-.039-.077-.085-.122-.128-.188-.051-.072-.091-.146-.144-.215-.099-.11-.191-.196-.286-.262-.021-.018-.037-.039-.057-.054-3.761-2.627-6.735-7.126-7.986-12.276-.673-2.764 0-2.868-1.407-5.456-.572-1.058-1.415-1.107-1.449-.268-.293 7.716 5.075 17.612 11.702 21.572.722.435 1.14-.302.566-1.355"/><path d="m14.03 60.28c.272-.503.54-1 .812-1.498.039-.077.083-.122.126-.188.047-.072.091-.146.146-.215.095-.11.187-.196.284-.262.021-.018.038-.039.057-.054 3.759-2.627 6.735-7.126 7.984-12.276.674-2.764.004-2.868 1.403-5.456.576-1.058 1.419-1.107 1.455-.268.292 7.716-5.077 17.612-11.702 21.572-.72.435-1.14-.302-.565-1.355"/><path d="m29.44 3.246h4.995v58.58h-4.995z"/><path d="m40.4 41.748c0 .432-1.349.785-3.01.785h-10.907c-1.659 0-3.01-.354-3.01-.785v-2.467c0-.434 1.348-.785 3.01-.785h10.907c1.661 0 3.01.352 3.01.785v2.467"/></g><g transform="scale(.99741.99735)" fill="#e7e6e6"><path d="m40.4 37.2c0 .763-1.349 1.384-3.01 1.384h-10.907c-1.659 0-3.01-.621-3.01-1.384v-4.379c0-.763 1.348-1.38 3.01-1.38h10.907c1.661 0 3.01.617 3.01 1.38v4.379"/><path d="m36.813 19.63c0 .438-.776.798-1.734.798h-6.284c-.956 0-1.732-.36-1.732-.798v-2.519c0-.439.776-.8 1.732-.8h6.284c.958 0 1.734.361 1.734.8v2.519"/><path d="m36.813 10.586c0 .439-.776.796-1.734.796h-6.284c-.956 0-1.732-.357-1.732-.796v-2.525c0-.438.776-.796 1.732-.796h6.284c.958 0 1.734.359 1.734.796v2.525"/></g></svg>