<svg xmlns="http://www.w3.org/2000/svg" enable-background="new 0 0 64 64" viewBox="0 0 64 64"><circle r="31.376" cy="31.749" cx="31.991" fill="#fbbf67"/><g fill="#633d19"><path d="m44.23 39.04c-.612 0-1.225 0-1.837 0-.093 0-.158.035-.244.048-.093.016-.182.018-.274.057-.159.061-.287.151-.399.258-.023.023-.055.025-.077.05-4.426 4.313-10.224 5.298-15.746 2.457-2.965-1.522-2.721-2.869-5.895-2.869-1.298 0-1.783 1.506-1 2.406 7.162 8.265 19.307 8.265 26.468 0 .783-.901.302-2.407-.996-2.407"/><path d="m29.11 24.969c-1.356-3.705-4.435-7.251-8.685-7.167-3.964.076-6.354 4.269-7.644 7.444-.806 1.982 2.403 2.833 3.199.88.829-2.039 2.052-4.288 4.294-4.972 2.567-.785 4.919 2.742 5.636 4.697.73 1.991 3.937 1.131 3.2-.882"/><path d="m34.872 24.932c1.356-3.705 4.434-7.25 8.685-7.169 3.965.077 6.352 4.271 7.642 7.446.809 1.982-2.402 2.835-3.196.882-.83-2.039-2.055-4.29-4.294-4.972-2.569-.787-4.922 2.74-5.637 4.697-.731 1.989-3.936 1.127-3.2-.884"/></g><path d="m31.991.374c-17.668 0-31.991 3.457-31.991 7.722 0 4.265 14.323 7.723 31.991 7.723s31.991-3.458 31.991-7.723c0-4.265-14.324-7.722-31.991-7.722m-.279 9.101c-9.782 0-17.714-1.915-17.714-4.274 0-2.364 7.933-4.276 17.714-4.276 9.785 0 17.718 1.913 17.718 4.276 0 2.36-7.933 4.274-17.718 4.274" fill="#28a6de"/></svg>