<svg xmlns="http://www.w3.org/2000/svg" enable-background="new 0 0 64 64" viewBox="0 0 64 64"><path d="m63.29 31.941c0 17.476-14.167 31.645-31.645 31.645-17.48 0-31.649-14.169-31.649-31.645 0-17.48 14.169-31.649 31.649-31.649 17.478 0 31.645 14.169 31.645 31.649" fill="#fbbf67"/><ellipse ry="9.631" rx="6.432" cy="27.514" cx="42.16" fill="#fff"/><path d="m37.998 27.514c0 2.787 1.86 5.05 4.16 5.05 2.301 0 4.161-2.259 4.161-5.05 0-2.787-1.86-5.05-4.161-5.05-2.3 0-4.16 2.26-4.16 5.05" fill="#25333a"/><ellipse ry="9.631" rx="6.432" cy="27.19" cx="20.649" fill="#fff"/><ellipse ry="5.05" rx="4.161" cy="27.19" cx="20.649" fill="#25333a"/><path d="m45.04 42.849c-10.166-1.612-21.15 1.373-30.25 5.839-2.02.993-.592 4.192 1.442 3.195 8.56-4.201 18.866-7.07 28.44-5.55 2.234.355 2.591-3.131.366-3.484" fill="#633d19"/></svg>