<svg xmlns="http://www.w3.org/2000/svg" viewBox="0 0 64 64" enable-background="new 0 0 64 64"><circle cx="32" cy="31.968" r="31.932" fill="#fbbf67"/><g fill="#633d19"><path d="m36.1 30.686c0-3.153 4.254.379 8.01.379s8.01-3.532 8.01-.379c0 3.151-4.254 6.555-8.01 6.555s-8.01-3.404-8.01-6.555"/><path d="m11.873 30.686c0-3.153 4.254.379 8.01.379s8.01-3.532 8.01-.379c0 3.151-4.253 6.555-8.01 6.555s-8.01-3.404-8.01-6.555"/></g><path fill="#58c5e8" d="m55.743 44.729c3.471 3.171 4.163 8.05 1.557 10.907-2.611 2.852-7.529 2.598-11-.573-3.467-3.172-9.903-13.296-7.294-16.15 2.608-2.852 13.275 2.65 16.738 5.817"/><g fill="#633d19"><path d="m42.799 56.963c-.288 0-5.518-1.668-10.799-1.668-4.713 0-9.474 1.668-10.795 1.668-1.148 0-1.574-2.169-.879-3.467 6.314-11.896 17.03-11.896 23.353 0 .686 1.298.259 3.467-.88 3.467"/><path d="m26.512 12.994c-4.808 4.293-11.07 6.542-16.95 8.939-1.209.493-.278 2.286.919 1.799 6.06-2.467 12.432-4.814 17.38-9.235.974-.87-.381-2.368-1.349-1.503"/><path d="m10.07 24.32c-.737 0-1.404-.568-1.554-1.317-.13-.67.205-1.272.852-1.536l1.822-.736c5.277-2.122 10.734-4.318 14.984-8.113.783-.702 2.061-.31 2.427.651.221.58.069 1.179-.408 1.605-4.591 4.102-10.373 6.437-15.965 8.696l-1.559.63c-.197.08-.398.12-.599.12m17.08-11.08c-.103 0-.203.043-.304.132-4.38 3.913-9.919 6.141-15.277 8.296l-1.816.734c-.205.083-.28.211-.243.406.047.243.276.503.562.503.071 0 .142-.016.217-.045l1.562-.633c5.514-2.225 11.213-4.528 15.674-8.511.162-.146.205-.308.134-.493-.083-.217-.306-.389-.509-.389"/><path d="m38.05 13.01c4.808 4.291 11.07 6.54 16.949 8.937 1.209.493.278 2.288-.919 1.799-6.06-2.465-12.432-4.812-17.38-9.233-.974-.872.381-2.37 1.35-1.503"/><path d="m53.892 24.22l-1.558-.631c-5.593-2.26-11.375-4.595-15.966-8.697-.478-.426-.629-1.025-.408-1.605.367-.958 1.645-1.353 2.428-.65 4.25 3.794 9.706 5.991 14.983 8.113l1.822.737c.646.264.982.864.852 1.535-.149.749-.816 1.317-1.554 1.317-.201 0-.402-.04-.599-.119m-16.988-10.574c-.07.186-.027.347.135.493 4.46 3.983 10.159 6.287 15.674 8.511l1.562.635c.075.027.146.043.217.043.286 0 .515-.261.562-.501.038-.197-.037-.324-.242-.406l-1.816-.734c-5.357-2.157-10.897-4.386-15.277-8.298-.101-.087-.201-.13-.304-.13-.205 0-.428.17-.511.387"/></g></svg>