<svg xmlns="http://www.w3.org/2000/svg" viewBox="0 0 64 64" enable-background="new 0 0 64 64"><path d="m63.982 32c0 17.666-14.313 31.979-31.979 31.979-17.664 0-31.983-14.313-31.983-31.979 0-17.66 14.319-31.979 31.983-31.979 17.663 0 31.979 14.319 31.979 31.979" fill="#8ae2f9"/><g transform="translate(.02.022)" fill="#fff"><path d="m27.365 28.483c0 5.376-2.903 9.732-6.494 9.732-3.59 0-6.5-4.355-6.5-9.732 0-5.378 2.909-9.733 6.5-9.733 3.591 0 6.494 4.355 6.494 9.733"/><path d="m49.36 28.483c0 5.376-2.905 9.732-6.496 9.732-3.596 0-6.5-4.355-6.5-9.732 0-5.378 2.904-9.733 6.5-9.733 3.591 0 6.496 4.355 6.496 9.733"/></g><g transform="translate(.02.022)" fill="#25333a"><path d="m25.07 28.483c0 2.816-1.884 5.098-4.203 5.098-2.327 0-4.208-2.281-4.208-5.098 0-2.817 1.882-5.1 4.208-5.1 2.319 0 4.203 2.284 4.203 5.1"/><path d="m47.07 28.483c0 2.816-1.879 5.098-4.201 5.098-2.326 0-4.207-2.281-4.207-5.098 0-2.817 1.881-5.1 4.207-5.1 2.323 0 4.201 2.284 4.201 5.1"/><path d="m27.25 7.639c-.413.113-.818.227-1.227.344-.063.016-.101.051-.152.075-.06.027-.123.049-.174.091-.095.071-.162.154-.221.245-.012.02-.032.028-.043.047-2.153 3.705-5.834 5.439-10.05 4.57-2.262-.466-2.348-1.41-4.465-.82-.869.243-.913 1.337-.221 1.792 6.32 4.187 14.425 1.928 17.672-4.922.351-.746-.249-1.663-1.114-1.422"/><path d="m36.707 7.639c.406.113.816.227 1.223.344.063.016.104.051.156.075.059.027.116.049.174.091.096.071.162.154.221.245.008.02.025.028.045.047 2.147 3.705 5.834 5.439 10.05 4.57 2.267-.466 2.354-1.41 4.471-.82.867.243.909 1.337.223 1.792-6.32 4.187-14.427 1.928-17.674-4.922-.361-.746.247-1.663 1.112-1.422"/></g><path d="m.84 52.624c0 4.707 3.136 8.52 7.01 8.52 3.875 0 7.01-3.813 7.01-8.52 0-4.703-3.138-16.302-7.01-16.302-3.871 0-7.01 11.596-7.01 16.302" fill="#3fc1ef"/><path d="m43.03 56.18c-.289 0-5.523-1.671-10.815-1.671-4.72 0-9.488 1.671-10.809 1.671-1.149 0-1.576-2.173-.881-3.474 6.324-11.912 17.06-11.912 23.388 0 .686 1.301.259 3.474-.883 3.474" fill="#25333a"/></svg>