<svg xmlns="http://www.w3.org/2000/svg" viewBox="0 0 64 64" enable-background="new 0 0 64 64"><path fill="#405967" d="m12.353 19.796c.727 0 1.315.702 1.315 1.568v9.885c0 .867-.588 1.569-1.315 1.569-.728 0-1.316-.703-1.316-1.569v-9.885c0-.865.588-1.568 1.316-1.568"/><path fill="#354c56" d="m12.04 31.25v-9.886c0-.655.337-1.215.815-1.451-.154-.074-.321-.117-.499-.117-.728 0-1.316.702-1.316 1.568v9.885c0 .867.588 1.569 1.316 1.569.178 0 .345-.041.5-.119-.478-.233-.816-.794-.816-1.449"/><path fill="#405967" d="m18.656 22.401c1.152 0 2.084.561 2.084 1.255v7.909c0 .694-.932 1.256-2.084 1.256-1.149 0-2.083-.562-2.083-1.256v-7.91c0-.694.934-1.254 2.083-1.254"/><path fill="#354c56" d="m17.778 31.563v-7.909c0-.566.624-1.039 1.48-1.196-.19-.036-.39-.059-.602-.059-1.151 0-2.083.561-2.083 1.255v7.909c0 .694.932 1.255 2.083 1.255.211 0 .412-.023.602-.059-.857-.155-1.48-.629-1.48-1.196"/><path fill="#405967" d="m25.369 22.401c1.151 0 2.084.561 2.084 1.255v7.909c0 .694-.933 1.256-2.084 1.256-1.151 0-2.084-.562-2.084-1.256v-7.91c0-.694.933-1.254 2.084-1.254"/><path fill="#354c56" d="m24.489 31.563v-7.909c0-.566.625-1.039 1.482-1.196-.192-.036-.39-.059-.602-.059-1.151 0-2.084.561-2.084 1.255v7.909c0 .694.934 1.255 2.084 1.255.211 0 .41-.023.602-.059-.857-.155-1.482-.629-1.482-1.196"/><path fill="#405967" d="m49.555 35.3c0 4.246-2.373 7.689-5.304 7.689h-33.42c-2.931 0-5.303-3.443-5.303-7.689 0-4.247 2.372-7.691 5.303-7.691h33.42c2.931 0 5.304 3.444 5.304 7.691"/><g fill="#354c56"><path d="m44.25 39.855h-33.42c-2.559 0-4.696-2.629-5.194-6.123-.072.506-.109 1.029-.109 1.566 0 4.246 2.372 7.689 5.303 7.689h33.42c2.931 0 5.304-3.443 5.304-7.689 0-.537-.037-1.061-.109-1.566-.499 3.494-2.635 6.123-5.195 6.123"/><path d="m55.667 35.591c0 4.083-2.284 7.397-5.104 7.397h-7.539c-2.817 0-5.104-3.313-5.104-7.397v-.584c0-4.086 2.286-7.399 5.104-7.399h7.539c2.82 0 5.104 3.313 5.104 7.399v.584"/></g><path fill="#405967" d="m58.35 48.36c0 2.971-2.285 5.377-5.104 5.377h-51.38c-2.819 0-1.278-2.357-.096-5.377 1.402-3.277 3.198-5.373 6.02-5.373h45.45c2.82 0 5.105 2.406 5.105 5.373"/><ellipse fill="#f6921e" cx="20.715" cy="51.2" rx="3.815" ry="4.282"/><path fill="#f1f1f2" d="m23.716 51.2c0 1.857-1.343 3.369-3 3.369-1.659 0-3-1.512-3-3.369 0-1.862 1.345-3.373 3-3.373 1.658 0 3 1.511 3 3.373"/><ellipse fill="#f6921e" cx="5.483" cy="52.589" rx="2.653" ry="2.979"/><ellipse fill="#f1f1f2" cx="5.483" cy="52.588" rx="1.931" ry="2.168"/><g fill="#f6921e"><ellipse cx="39.955" cy="51.2" rx="3.814" ry="4.282"/><ellipse cx="49.872" cy="51.2" rx="3.815" ry="4.282"/><ellipse cx="30.2" cy="51.2" rx="3.814" ry="4.282"/></g><g fill="#f1f1f2"><path d="m33.2 51.2c0 1.857-1.345 3.369-3 3.369-1.657 0-3-1.512-3-3.369 0-1.862 1.343-3.373 3-3.373 1.658 0 3 1.511 3 3.373"/><path d="m42.958 51.2c0 1.857-1.344 3.369-3 3.369-1.657 0-3-1.512-3-3.369 0-1.862 1.347-3.373 3-3.373 1.658 0 3 1.511 3 3.373"/><path d="m52.875 51.2c0 1.857-1.345 3.369-3 3.369-1.657 0-3-1.512-3-3.369 0-1.862 1.347-3.373 3-3.373 1.659 0 3 1.511 3 3.373"/></g><g fill="#a2a2a3"><path d="m40.979 54.31c-.065.284-.264.471-.442.42l-18.487-5.504c-.179-.053-.269-.328-.202-.613.067-.283.267-.472.447-.42l18.484 5.506c.179.05.268.325.2.611"/><path d="m49.23 48.4c0 .339-.086.616-.189.616l-10.785-.025c-.104 0-.188-.275-.188-.617 0-.338.086-.617.188-.617l10.787.027c.103 0 .187.276.187.616"/></g><path fill="#ad2f4a" d="m58.35 40.19c0 1.629-.91 2.949-2.033 2.949h-10.723c-1.121 0-2.033-1.319-2.033-2.949v-12.907c0-1.627.912-2.949 2.033-2.949h10.723c1.123 0 2.033 1.321 2.033 2.949v12.907"/><path fill="#c5344d" d="m60.47 40.19c0 1.629-.91 2.949-2.035 2.949h-10.721c-1.123 0-2.035-1.319-2.035-2.949v-12.907c0-1.627.912-2.949 2.035-2.949h10.721c1.125 0 2.035 1.321 2.035 2.949v12.907"/><g fill="#fff"><path d="m49.32 32.56c0 .419-.231.757-.521.757h-2.752c-.287 0-.521-.337-.521-.757v-3.311c0-.417.234-.756.521-.756h2.752c.289 0 .521.339.521.756v3.311"/><path d="m55.667 32.56c0 .419-.233.757-.521.757h-2.754c-.287 0-.521-.337-.521-.757v-3.311c0-.417.233-.756.521-.756h2.754c.287 0 .521.339.521.756v3.311"/></g><path fill="#de374b" d="m64.28 26.863c0 .639-1.314 1.159-2.932 1.159h-15.451c-1.619 0-2.934-.52-2.934-1.159v-5.064c0-.637 1.313-1.155 2.934-1.155h12.387c1.617 0 2.93.518 2.93 1.155l3.066 5.064"/></svg>