<svg xmlns="http://www.w3.org/2000/svg" viewBox="0 0 64 64" enable-background="new 0 0 64 64"><g transform="translate(14)"><path d="m21.239 35.549c0 1.523-.893 2.758-1.992 2.758h-3.361c-1.099 0-1.992-1.234-1.992-2.758v-6.08c0-1.52.893-2.758 1.992-2.758h3.361c1.099 0 1.992 1.238 1.992 2.758v6.08" fill="#25333a"/><path d="m22.457 44.883c0 1.555-1.187 2.813-2.651 2.813h-4.48c-1.464 0-2.651-1.259-2.651-2.813v-6.207c0-1.556 1.187-2.813 2.651-2.813h4.48c1.464 0 2.651 1.258 2.651 2.813v6.207" fill="#d1d2d2"/><path d="m16.897 44.883v-6.207c0-1.556 1.187-2.813 2.651-2.813h-4.223c-1.464 0-2.651 1.258-2.651 2.813v6.207c0 1.555 1.187 2.813 2.651 2.813h4.223c-1.464 0-2.651-1.258-2.651-2.813" fill="#bfc0bf"/><path d="m24.894 57.779c0 2.33-1.778 4.219-3.972 4.219h-6.71c-2.191 0-3.973-1.889-3.973-4.219v-9.29c0-2.329 1.782-4.218 3.973-4.218h6.71c2.194 0 3.972 1.889 3.972 4.218v9.29" fill="#a7a7ab"/><path d="m14.703 57.779v-9.29c0-2.329 1.778-4.218 3.973-4.218h-4.464c-2.191 0-3.973 1.889-3.973 4.218v9.29c0 2.33 1.782 4.219 3.973 4.219h4.464c-2.196 0-3.973-1.889-3.973-4.219" fill="#929191"/><circle cx="17.566" cy="16.357" r="16.356" fill="#4493cc"/><path d="m12.374 16.357c0-7.07 4.492-13.09 10.774-15.381-1.743-.631-3.62-.976-5.58-.976-9.04 0-16.358 7.322-16.358 16.357 0 9.03 7.322 16.358 16.357 16.358 1.96 0 3.837-.349 5.58-.98-6.281-2.282-10.773-8.306-10.773-15.378" fill="#3982ad"/><path d="m35.14 16.461c0 1.44-7.865 2.603-17.568 2.603-9.703 0-17.568-1.163-17.568-2.603 0-1.44 7.865-2.611 17.568-2.611 9.703 0 17.568 1.171 17.568 2.611" fill="#f3f4f5"/><path d="m17.568 19.06c-7.405 0-13.734-.679-16.322-1.639.552 8.536 7.647 15.29 16.322 15.29 8.671 0 15.766-6.754 16.318-15.29-2.588.96-8.917 1.639-16.318 1.639" fill="#c62a46"/><path d="m22.21 58.72c2.326 0 4.214.611 4.214 1.365v2.302c0 .754-1.889 1.365-4.214 1.365h-9.294c-2.329 0-4.218-.611-4.218-1.365v-2.302c0-.754 1.889-1.365 4.218-1.365h9.294" fill="#25333a"/><path d="m17.624 19.06c-1.722 0-3.381-.036-4.949-.103.945 5.909 5.06 10.766 10.544 12.766 5.957-2.17 10.294-7.703 10.719-14.302-2.584.96-8.914 1.639-16.314 1.639" fill="#e03a4d"/></g></svg>