<svg xmlns="http://www.w3.org/2000/svg" viewBox="0 0 64 64" enable-background="new 0 0 64 64"><g transform="translate(0 2)"><path d="m42.818 22.32c.035 1.068-.543 1.961-1.291 1.996l-9.437.431c-.745.035-1.38-.803-1.411-1.873-.035-1.068.542-1.962 1.286-1.996l9.382-.877c.751-.033 1.436 1.247 1.471 2.319" fill="#df394c"/><path d="m36.917 22.754c-.004-.844.06-1.621.172-2.356l-5.122.479c-.744.033-1.321.928-1.286 1.996.031 1.07.667 1.908 1.411 1.873l4.997-.228c-.103-.557-.164-1.143-.172-1.764" fill="#3f5aa1"/><path d="m53.19 39.22c0 1.01-.873 1.832-1.953 1.832h-35.63c-1.08 0-1.953-.822-1.953-1.832l10.66-11.505c1.01-1.115 2.249-1.833 3.325-1.833l19.679-.77c1.08 0 1.953.822 1.953 1.832l3.919 12.276" fill="#c2c2c2"/><path d="m49.689 36.572c0 .705-.679 1.279-1.513 1.279h-27.676c-.834 0-1.512-.574-1.512-1.279l7.558-8c.784-.772 2.44-1.273 3.274-1.273l15.405-.307c.834 0 1.512.571 1.512 1.274l2.952 8.308" fill="#3f5aa1"/><path d="m36.734 37.746c.068.473-.254.906-.727.975-.472.07-.908-.255-.979-.725l-1.6-10.919c-.07-.468.252-.908.725-.976.472-.068.908.255.979.725l1.602 10.92" fill="#bbbaba"/><path d="m28.666 36.24c.187-3.401 1.625-6.383 3.641-8.981l-2.487.033c-.834 0-2.491.501-3.274 1.273l-7.558 8c0 .705.678 1.279 1.512 1.279h8.189c-.039-.526-.055-1.057-.023-1.606" fill="#5978ba"/><path d="m62.14 43.861c0 3.51-2.845 6.357-6.356 6.357h-48.04c-3.51 0-6.357-2.849-6.357-6.357 0-3.512 2.847-6.357 6.357-6.357h48.03c3.514 0 6.359 2.846 6.359 6.357" fill="#e3e4e3"/><path d="m63.52 46.1c0 2.332-2.975 4.227-6.649 4.227h-50.23c-3.672 0-6.648-1.895-6.648-4.227 0-2.338 2.976-4.229 6.648-4.229h50.23c3.676 0 6.649 1.891 6.649 4.229" fill="#243438"/><g fill="#fff"><path d="m20.975 50.22c0 4.18-3.394 7.573-7.58 7.573-4.179 0-7.57-3.396-7.57-7.573 0-4.185 3.391-7.574 7.57-7.574 4.186 0 7.58 3.389 7.58 7.574"/><path d="m57.37 50.13c0 4.182-3.393 7.573-7.581 7.573-4.175 0-7.57-3.394-7.57-7.573 0-4.184 3.396-7.572 7.57-7.572 4.191 0 7.581 3.388 7.581 7.572"/></g><path d="m19.63 50.22c0 3.436-2.79 6.227-6.231 6.227-3.436 0-6.227-2.791-6.227-6.227 0-3.439 2.791-6.229 6.227-6.229 3.441 0 6.231 2.789 6.231 6.229" fill="#243438"/><path d="m17.437 50.13c0 2.229-1.805 4.04-4.04 4.04-2.226 0-4.04-1.81-4.04-4.04 0-2.228 1.812-4.03 4.04-4.03 2.233 0 4.04 1.804 4.04 4.03" fill="#969796"/><path d="m56.03 50.22c0 3.436-2.791 6.227-6.235 6.227-3.435 0-6.226-2.791-6.226-6.227 0-3.439 2.791-6.229 6.226-6.229 3.444 0 6.235 2.789 6.235 6.229" fill="#243438"/><path d="m53.834 50.13c0 2.229-1.809 4.04-4.04 4.04-2.222 0-4.03-1.81-4.03-4.04 0-2.228 1.812-4.03 4.03-4.03 2.233 0 4.04 1.804 4.04 4.03" fill="#969796"/><path d="m3.456 42.26c0 1.657-.67 3-1.501 3-.826 0-1.499-1.343-1.499-3v-.065c0-1.658.672-3 1.499-3 .831 0 1.501 1.342 1.501 3v.065" fill="#e3e4e3"/><path d="m63.64 42.68c0 1.655-.671 2.998-1.501 2.998-.825 0-1.5-1.343-1.5-2.998v-.07c0-1.655.675-2.996 1.5-2.996.83 0 1.501 1.341 1.501 2.996v.07" fill="#df394c"/><path d="m36.488 41.852l-1.793 7.254c-.117.473.207.957.718 1.082.51.127 1.021-.151 1.134-.625l1.906-7.709h-1.965v-.002" fill="#fff"/></g></svg>