<svg xmlns="http://www.w3.org/2000/svg" viewBox="0 0 64 64" enable-background="new 0 0 64 64"><g fill="#945a32"><path d="m50.785 36.07c-1.352.563-2.904-.074-3.473-1.424-.563-1.354.078-2.906 1.426-3.471l8.822-3.686c1.346-.566 2.897.07 3.467 1.422.563 1.354-.07 2.904-1.426 3.469l-8.816 3.69"/><path d="m35.08 40.885l17.746-7.418c2.809-1.18 4.914-2.559 4.691-3.084-.224-.525-2.679.002-5.488 1.178l-17.742 7.416c.281.65.545 1.293.793 1.908"/></g><path fill="#fbbf67" d="m38.68 36.691c1.105 1.648 2.672 2.539 3.496 1.984.824-.553.594-2.34-.512-3.984l-4.109-6.145c-1.109-1.65-2.672-2.537-3.496-1.988-.824.557-.598 2.344.508 3.996l4.113 6.137"/><g fill="#2bb573"><path d="m39.441 31.366c-.354.047-3.168.174-4.211.18l-.664-.988c-1.105-1.652-1.332-3.439-.508-3.996.821-.549 2.387.338 3.496 1.988l1.887 2.816"/><path d="m27.02 34.11c-.738 1.771.07 3.795 1.805 4.518 1.734.725 3.742-.127 4.48-1.896l2.742-6.585c.74-1.771-.07-3.795-1.801-4.518-1.738-.723-3.742.125-4.48 1.898l-2.746 6.583"/></g><path fill="#249560" d="m26.902 36.451c-.223-.742-.211-1.563.113-2.342l2.746-6.586c.398-.957 1.174-1.635 2.068-1.949 2.032 3.251-1.112 9.114-4.927 10.877"/><path fill="#1d427c" d="m34.02 40.32c-1.542 0-3.01 0-4.555 0-.982 0-1.965 0-2.945 0-.062 0 .336-4.205.336-4.777 0-.037 3.203-.066 4.744-.066.982 0 2.146-.002 2.146-.002s.336 4.845.274 4.845"/><path fill="#193d6b" d="m33.426 35.473c.191 0 .32 0 .32 0s.332 4.846.27 4.846h-2.715c1.183-1.331 1.738-3.042 2.125-4.846"/><path fill="#249560" d="m35.33 27.743c-.701-.287-2.977-1.207-3.428-1.387-.027-.012.941-1.879 1.047-2.141.008-.02 3.164 1.238 3.164 1.238s-.75 2.298-.783 2.29"/><path fill="#fbbf67" d="m35.508 17.521c2.055-.643 3.105-1.115 4.156.939.824 1.602 1.563 3.523 1.299 5.379-.27 1.975-2.969 2.627-4.6 2.553-1.9-.084-3.926-1.098-4.168-3.182-.285-2.493.53-4.817 3.313-5.689"/><path fill="#633c17" d="m31.658 17.962c-.262-.066-.477-.188-.365-.395.525-.988 1.711-1.5 2.797-1.576.629-.047 1.338.145 1.938-.066.746-.26 3.138-.646 3.313-.564 1.402.654 3.578 2.592 3.187 4.34-.088.412-1.363-.109-1.394-.133 0 0 .009.012.013.021 0 0-.691 3.01-1.361-.062-.139-.641-.518-1.207-.906-1.705-.188-.039-.379-.068-.564-.092-.244.055-.49.053-.715-.023-.344.027-.643.119-.844.314-.396.375-.445 1.182-.529 1.676-.024.15-.244.215-.498.209-.928.422-2.535 1.783-2.901 1.662-1.309-.43-2.453-.746-2.525-1.193-.206-1.229.614-1.704 1.354-2.413"/><path fill="#e1ad81" d="m62.6 43.2c-19.356-3.293-38.727-6.584-58.09-9.875-.947-.162-2.09.832-1.395 1.813 3.637 5.131 7.277 10.264 10.926 15.398 2.172 3.062 2.635 5.1 6.352 5.1 12.523 0 25.04 0 37.555 0 .442.105.907-.041 1.151-.613 1.412-3.334 2.824-6.67 4.234-10.01.279-.66.133-1.664-.738-1.815"/><path fill="#c2793e" d="m3.049 34.02c-.188.322-.211.719.07 1.111 3.637 5.133 7.277 10.266 10.926 15.398 2.172 3.062 2.635 5.1 6.352 5.1h37.555c.444.104.909-.041 1.153-.611.836-1.979 1.674-3.955 2.511-5.934-10.118-.599-51.1-8.315-58.57-15.06"/><path fill="#4e9ec9" d="m0 50.697h64v13.285h-64z"/><path fill="#79bcda" d="m32.861 54.705c5.104.531 10.188 1.15 15.14 2.768 5.455 1.779 10.742 4.109 16 6.527v-13.615h-51.05c6.069 2.83 18.332 4.154 19.916 4.32"/><g fill="#aa6a3a"><path d="m27.16 50.09c.861-1.182 2.521-1.441 3.707-.582 1.184.865 1.441 2.525.582 3.707l-5.633 7.725c-.859 1.186-2.521 1.445-3.703.584-1.189-.863-1.443-2.521-.578-3.707l5.625-7.727"/><path d="m38.1 37.832l-11.328 15.545c-1.791 2.467-2.875 4.734-2.414 5.07.461.334 2.289-1.393 4.084-3.855l11.322-15.539c-.576-.412-1.139-.823-1.664-1.221"/></g><path fill="#fbbf67" d="m35.504 37.842c1.277 1.9 3.082 2.926 4.03 2.287.949-.635.688-2.693-.59-4.596l-4.738-7.08c-1.275-1.902-3.08-2.926-4.03-2.291-.949.639-.686 2.699.586 4.604l4.742 7.07"/><path fill="#2bb573" d="m36.38 31.704c-.406.053-3.648.197-4.857.207l-.764-1.141c-1.271-1.904-1.535-3.965-.586-4.604.951-.635 2.756.389 4.03 2.291l2.176 3.247"/></svg>