<svg xmlns="http://www.w3.org/2000/svg" viewBox="0 0 64 64" enable-background="new 0 0 64 64"><path d="m46.594 50.28c0 7.577-6.625 13.723-14.797 13.723-8.171 0-14.796-6.146-14.796-13.723v-36.556c0-7.577 6.625-13.721 14.795-13.721 8.172 0 14.797 6.144 14.797 13.721v36.556z" fill="#bfc7cb"/><path d="m44.46 48.716c0 6.938-5.624 12.562-12.564 12.562-6.938 0-12.564-5.624-12.564-12.562v-33.47c0-6.938 5.626-12.564 12.564-12.564 6.94 0 12.564 5.626 12.564 12.564v33.47" fill="#1f2e35"/><path d="m26.849 48.714v-33.468c0-5.631 3.706-10.395 8.806-11.993-1.185-.371-2.449-.572-3.758-.572-6.938 0-12.564 5.626-12.564 12.564v33.468c0 6.94 5.626 12.564 12.564 12.564 1.309 0 2.572-.2 3.758-.573-5.1-1.595-8.806-6.361-8.806-11.99" fill="#152228"/><circle cx="31.897" cy="13.656" r="8.121" fill="#ec1c24"/><circle cx="31.897" cy="31.979" r="8.121" fill="#ffdd15"/><circle cx="31.897" cy="50.26" r="8.121" fill="#4fba80"/></svg>