<svg xmlns="http://www.w3.org/2000/svg" viewBox="0 0 64 64" enable-background="new 0 0 64 64"><g fill="#d0d1d2"><path d="m11.435 62.744c8.431 0 16.86 0 25.29 0 5.364 0 10.725 0 16.09 0 .339 0 .628-.438.628-.94 0-12.756 0-25.519 0-38.29 0-7.283 0-14.598 0-21.894 0-.508-.289-.936-.628-.936-8.431 0-16.862 0-25.29 0-5.364 0-10.728 0-16.09 0-.188 0-.327.099-.426.256 0 0 0 .012-.014.022 0 0-.012.017-.023.035-.099.142-.165.343-.165.623 0 12.758 0 25.517 0 38.28 0 7.294 0 14.606 0 21.903 0 .504.289.941.628.941"/><path d="m.273 60.19h63.45v3.966h-63.45z"/></g><path fill="#3c9662" d="m13.707 64.15c7.521 0 15.04 0 22.561 0 4.783 0 9.566 0 14.352 0 .302 0 .56-.438.56-.941 0-12.753 0-25.519 0-38.28 0-7.284 0-14.599 0-21.894 0-.508-.258-.938-.56-.938-7.521 0-15.04 0-22.562 0-4.785 0-9.568 0-14.351 0-.167 0-.292.1-.379.256 0 0-.001.012-.014.024 0 0-.008.018-.02.037-.089.137-.147.341-.147.621 0 12.757 0 25.515 0 38.28 0 7.293 0 14.605 0 21.901 0 .504.257.941.56.941"/><path fill="#41a56e" d="m15.798 64.19c6.771 0 13.54 0 20.31 0 4.303 0 8.609 0 12.916 0 .272 0 .503-.424.503-.913 0-12.38 0-24.766 0-37.16 0-7.07 0-14.169 0-21.25 0-.493-.23-.91-.503-.91-6.769 0-13.54 0-20.31 0-4.305 0-8.611 0-12.916 0-.149 0-.263.098-.341.25 0 0-.001.011-.012.022 0 0-.008.019-.019.036-.08.135-.132.333-.132.602 0 12.383 0 24.767 0 37.15 0 7.078 0 14.177 0 21.257 0 .49.231.913.504.913"/><g fill="#3c9662"><path d="m18.259 28.512c2.759 0 5.517 0 8.274 0 1.754 0 3.507 0 5.259 0 .114 0 .207-.144.207-.314 0-4.287 0-8.577 0-12.869 0-2.45 0-4.908 0-7.36 0-.171-.093-.314-.207-.314-2.754 0-5.515 0-8.271 0-1.752 0-3.511 0-5.263 0-.06 0-.107.033-.138.085 0 0-.004.002-.004.007 0 0-.004.006-.008.012-.035.047-.054.115-.054.21 0 4.289 0 8.577 0 12.866 0 2.451 0 4.912 0 7.363.002.171.095.314.205.314"/><path d="m17.585 60.76c2.758 0 5.515 0 8.272 0 1.753 0 3.505 0 5.26 0 .116 0 .207-.153.207-.333 0-4.503 0-9.01 0-13.513 0-2.571 0-5.153 0-7.729 0-.178-.091-.333-.207-.333-2.754 0-5.515 0-8.271 0-1.752 0-3.509 0-5.262 0-.06 0-.108.035-.139.093 0 0-.004.004-.004.008 0 0-.004.004-.008.012-.035.051-.054.12-.054.221 0 4.504 0 9.01 0 13.511 0 2.575 0 5.156 0 7.73 0 .179.094.333.206.333"/></g><path fill="#55c688" d="m18.937 56.27c2.208 0 4.413 0 6.621 0 1.402 0 2.806 0 4.208 0 .093 0 .167-.116.167-.245 0-3.341 0-6.681 0-10.02 0-1.907 0-3.822 0-5.731 0-.134-.074-.246-.167-.246-2.204 0-4.413 0-6.619 0-1.402 0-2.808 0-4.209 0-.049 0-.087.025-.112.067 0 0-.002.004-.002.008 0 0-.004.002-.006.008-.029.035-.044.089-.044.163 0 3.34 0 6.681 0 10.02 0 1.911 0 3.824 0 5.736-.002.127.074.244.163.244"/><path fill="#3c9662" d="m34.25 60.76c2.758 0 5.515 0 8.272 0 1.753 0 3.505 0 5.26 0 .116 0 .207-.153.207-.333 0-4.503 0-9.01 0-13.513 0-2.571 0-5.153 0-7.729 0-.178-.091-.333-.207-.333-2.754 0-5.516 0-8.271 0-1.753 0-3.509 0-5.262 0-.06 0-.108.035-.14.093 0 0-.004.004-.004.008 0 0-.004.004-.008.012-.034.051-.054.12-.054.221 0 4.504 0 9.01 0 13.511 0 2.575 0 5.156 0 7.73.002.179.095.333.207.333"/><path fill="#55c688" d="m35.6 56.27c2.208 0 4.413 0 6.621 0 1.401 0 2.806 0 4.208 0 .093 0 .166-.116.166-.245 0-3.341 0-6.681 0-10.02 0-1.907 0-3.822 0-5.731 0-.134-.073-.246-.166-.246-2.204 0-4.413 0-6.619 0-1.402 0-2.808 0-4.21 0-.048 0-.087.025-.112.067 0 0-.002.004-.002.008 0 0-.004.002-.006.008-.028.035-.044.089-.044.163 0 3.34 0 6.681 0 10.02 0 1.911 0 3.824 0 5.736 0 .127.075.244.164.244"/><ellipse fill="#dbc926" cx="21.05" cy="33.12" rx="3.979" ry="3.892"/><ellipse fill="#fbed21" cx="21.05" cy="33.12" rx="3.112" ry="3.044"/><path fill="#55c688" d="m19.27 25.826c2.349 0 4.694 0 7.04 0 1.493 0 2.984 0 4.475 0 .097 0 .176-.124.176-.269 0-3.648 0-7.296 0-10.949 0-2.083 0-4.175 0-6.26 0-.146-.079-.268-.176-.268-2.343 0-4.692 0-7.04 0-1.491 0-2.988 0-4.479 0-.05 0-.091.026-.116.072 0 0-.004.003-.004.008 0 0-.002.004-.006.011-.031.037-.046.097-.046.177 0 3.646 0 7.295 0 10.946 0 2.085 0 4.178 0 6.263 0 .145.079.269.172.269"/><path fill="#3c9662" d="m34.25 28.512c2.76 0 5.517 0 8.274 0 1.755 0 3.507 0 5.26 0 .114 0 .207-.144.207-.314 0-4.287 0-8.577 0-12.869 0-2.45 0-4.908 0-7.36 0-.171-.093-.314-.207-.314-2.754 0-5.516 0-8.271 0-1.753 0-3.511 0-5.264 0-.06 0-.106.033-.138.085 0 0-.004.002-.004.007 0 0-.004.006-.008.012-.034.047-.054.115-.054.21 0 4.289 0 8.577 0 12.866 0 2.451 0 4.912 0 7.363.002.171.095.314.205.314"/><path fill="#55c688" d="m35.26 25.826c2.35 0 4.694 0 7.04 0 1.493 0 2.984 0 4.476 0 .097 0 .176-.124.176-.269 0-3.648 0-7.296 0-10.949 0-2.083 0-4.175 0-6.26 0-.146-.079-.268-.176-.268-2.344 0-4.692 0-7.04 0-1.491 0-2.988 0-4.479 0-.05 0-.091.026-.116.072 0 0-.004.003-.004.008 0 0-.002.004-.006.011-.03.037-.046.097-.046.177 0 3.646 0 7.295 0 10.946 0 2.085 0 4.178 0 6.263 0 .145.078.269.171.269"/></svg>