<svg xmlns="http://www.w3.org/2000/svg" enable-background="new 0 0 64 64" viewBox="0 0 64 64"><path d="m63.792 56.808c0 3.802-3.076 6.88-6.876 6.88h-50.04c-3.794 0-6.874-3.079-6.874-6.88v-50.04c0-3.795 3.08-6.875 6.874-6.875h50.04c3.8 0 6.876 3.08 6.876 6.875v50.04" fill="#1b75bb"/><g transform="matrix(1.01 0 0 1.01-58.58-57.666)" fill="#fff"><circle r="4.565" cy="65.23" cx="89.58"/><path d="m100.03 76.34c-.027-2.565-1.959-4.916-4.232-5.308-.451-.078-.913-.115-1.367-.117-1.45-.004-3.345.001-4.857.001-1.513 0-3.405-.004-4.853-.001-.458.002-.918.039-1.368.117-2.272.392-4.206 2.743-4.235 5.308-.049 4.843-.025 9.687-.028 14.531 0 .175.011.355.032.529.102.781.618 1.335 1.342 1.452.59.095 1.271-.36 1.492-1.067.106-.342.137-.73.137-1.096.011-4.294.012-8.586 0-12.878-.004-.546.127-.816.654-.754.313.035.637.032.953 0 .454-.044.602.197.581.659-.011.197 0 .394 0 .59 0 11.756 0 23.51 0 35.27 0 .353.002.708.021 1.062.049.975.62 1.808 1.445 2.123 1.446.558 2.912-.62 2.915-2.362.007-6.676.004-13.352.004-20.03 0-1.138.363-1.533.907-1.653.545.12.906.515.906 1.653.002 6.675 0 13.351.004 20.03.004 1.742 1.474 2.919 2.919 2.362.823-.316 1.393-1.148 1.446-2.123.019-.354.019-.709.019-1.062.004-11.756.002-23.511.002-35.27 0-.197.009-.393 0-.59-.023-.462.126-.703.581-.659.313.032.638.035.952 0 .528-.062.655.208.655.754-.014 4.292-.011 8.584-.004 12.878.002.367.033.754.139 1.096.22.708.902 1.162 1.492 1.067.724-.118 1.242-.671 1.339-1.452.025-.173.035-.353.035-.529-.003-4.845.025-9.689-.029-14.531"/></g></svg>