<svg xmlns="http://www.w3.org/2000/svg" viewBox="0 0 64 64" enable-background="new 0 0 64 64"><path fill="#405967" d="m59.969 42.862l-24.423.388-1.875-40.01 30.05 7.267z"/><path fill="#39515b" d="m60.22 42.31l-3.378.628 2.188-33.561 4.69 1.135z"/><path fill="#405967" d="m3.201 30.07l7.15-1.688 45.835 5.34 4.04 2.235-7.135 7.079c0 0-19.779 10.385-20.336 10.546-.556.157-9.05-.051-8.999 0 .059.052-14.969-13.429-14.969-13.429l-5.582-10.08"/><path fill="#939598" d="m5.57 22.596l30.983-8.08 22.477 13.12-11.08 7.758-13.379 6.726-5.241.92-6.161-4.391-18.01-14.409z"/><g fill="#bbbdbf"><path d="m2.739 30.485l.139.118 25.58 21.332v7.375l-25.719-23.07v-5.576"/><path d="m1.944 31.28c5.461 4.552 10.922 9.109 16.387 13.662 3.11 2.597 6.223 5.189 9.333 7.783-.11-.259-.216-.523-.326-.791 0 2.458 0 4.916 0 7.374.637-.264 1.274-.528 1.912-.792-5.26-4.718-10.523-9.437-15.783-14.157-3.311-2.971-6.625-5.941-9.937-8.91.11.263.22.53.33.794 0-1.86 0-3.717 0-5.579 0-1.446-2.245-1.446-2.245 0 0 1.803 0 3.602 0 5.4 0 .889.721 1.321 1.322 1.86 2.765 2.479 5.531 4.959 8.296 7.438 5.468 4.908 10.94 9.813 16.409 14.717.007.008.014.016.021.023.711.637 1.916.223 1.916-.795 0-1.817 0-3.641 0-5.462 0-.637 0-1.274 0-1.912 0-.526-.301-.769-.645-1.055-2.465-2.056-4.927-4.11-7.392-6.165-5.919-4.937-11.838-9.871-17.76-14.808-.084-.073-.168-.144-.253-.213-1.101-.917-2.698.662-1.585 1.588"/></g><g fill="#929497"><path d="m28.781 52.1l31.439-15.597-.9 5.877-30.539 17.24z"/><path d="m29.345 53.07c6.282-3.117 12.56-6.231 18.841-9.344 4.201-2.084 8.398-4.168 12.601-6.252-.55-.422-1.1-.843-1.649-1.265-.296 1.96-.597 3.92-.897 5.879.173-.223.345-.446.518-.67-6.125 3.457-12.249 6.915-18.377 10.374-4.054 2.284-8.108 4.578-12.167 6.867.564.322 1.124.644 1.688.967 0-2.51 0-5.02 0-7.523 0-1.447-2.242-1.447-2.242 0 0 2.506 0 5.01 0 7.523 0 .856.949 1.385 1.685.967 6.128-3.457 12.252-6.915 18.376-10.373 3.453-1.949 6.907-3.897 10.366-5.851.596-.337 1.197-.677 1.798-1.015.688-.388.647-1.52.75-2.197.176-1.142.349-2.289.524-3.436.047-.303.095-.611.14-.919.149-.979-.708-1.729-1.645-1.264-6.282 3.113-12.56 6.23-18.842 9.344-4.201 2.084-8.398 4.168-12.599 6.249-1.294.646-.158 2.581 1.131 1.939"/></g><g fill="#26a9e0"><path d="m5.604 23.351l.127.102 23.519 17.847v6.17l-23.646-19.3v-4.666"/><path d="m4.871 24.02c5.03 3.81 10.04 7.623 15.06 11.432 2.86 2.171 5.721 4.343 8.582 6.512-.099-.22-.201-.439-.3-.663 0 2.058 0 4.113 0 6.172.586-.22 1.172-.443 1.758-.663-4.834-3.948-9.673-7.897-14.512-11.846-3.044-2.482-6.087-4.971-9.135-7.457.103.224.202.443.304.663 0-1.553 0-3.11 0-4.663 0-1.212-2.062-1.212-2.062 0 0 1.505 0 3.01 0 4.516 0 .744.663 1.106 1.216 1.557 2.542 2.077 5.083 4.149 7.626 6.227 5.03 4.103 10.06 8.208 15.08 12.313.007.004.015.007.022.016.656.534 1.758.187 1.758-.663 0-1.523 0-3.048 0-4.571 0-.531 0-1.066 0-1.601 0-.439-.274-.646-.589-.883-2.267-1.719-4.531-3.439-6.794-5.157-5.442-4.131-10.885-8.259-16.328-12.391-.077-.059-.154-.117-.234-.179-1.013-.766-2.477.552-1.459 1.329"/></g><g fill="#a7a9ac"><path d="m29.542 41.44l28.908-13.05-.83 4.923-28.08 14.419z"/><path d="m30.06 42.25c5.772-2.608 11.544-5.216 17.321-7.821 3.86-1.743 7.717-3.486 11.577-5.229-.502-.352-1.01-.704-1.513-1.059-.274 1.642-.55 3.282-.823 4.919.157-.187.314-.374.472-.561-5.629 2.895-11.259 5.787-16.889 8.678-3.728 1.915-7.457 3.831-11.186 5.746.517.271 1.033.539 1.549.809 0-2.095 0-4.196 0-6.292 0-1.212-2.058-1.212-2.058 0 0 2.096 0 4.197 0 6.292 0 .719.872 1.158 1.549.811 5.629-2.891 11.259-5.783 16.892-8.678 3.176-1.633 6.351-3.263 9.526-4.893.554-.282 1.104-.567 1.655-.85.635-.326.594-1.271.689-1.839.161-.96.322-1.916.482-2.875.041-.256.085-.513.129-.77.136-.817-.652-1.447-1.516-1.059-5.772 2.608-11.546 5.212-17.318 7.82-3.86 1.743-7.721 3.486-11.581 5.23-1.188.536-.144 2.155 1.043 1.621"/></g><path fill="#3a61a0" d="m31.3 52.704c4.346-2.856 8.242-5.519 11.876-9.297.995-1.033 1.891-2.132 2.764-3.244.774-1.064 1.576-2.11 2.402-3.138.039-.144.112-.251.207-.346l-.143-.037c-.601-.146-.534-1.828.14-1.841.523-.027 1.047.013 1.571.024.373-.451.75-.9 1.141-1.341-.374-1.01-.771-1.507-.771-1.507-3.691-4.17-25.07-15.376-25.07-15.376-11.591 1.657-24.835 5.854-24.835 5.854-1.326.337 0 7.392 0 7.392 5.187 6.513 28.66 24.92 28.66 24.92.557-.202 1.126-.429 1.705-.67-.105-.489.071-1.21.348-1.393"/><path fill="#285493" d="m.585 29.83c5.19 6.512 28.661 24.914 28.661 24.914 9.233-3.34 22.06-20.398 22.06-20.398-.163-2.289-.15-1.377-.663-2.161-5.268 3.341-21.497 11.658-21.497 11.658-2.75-.978-23.408-17.274-28.592-21.386-1.266.454.03 7.373.03 7.373"/><path fill="#e6e7e8" d="m44.12 12.458c1.483.692.05 2.068-.759 3.8l-.578 1.25c-.808 1.733-.678 3.168-2.16 2.473l-8.707-3.406c-1.481-.692-.046-2.066.76-3.8l.578-1.252c.811-1.734.678-3.168 2.158-2.471l8.708 3.406"/><g fill="#d1d3d4"><path d="m37.806 14.14c.003-.439 2.881-1.23 3.697-1.129.589.075.496.554.098.671-.789.234-2.121 1.121-2.49 1.282.028.033.683.923.846 1.342.095.249.406.979.153 1.167-.254.183-1.197-.872-1.293-.992-1.26-1.572-1.024-1.016-1.01-2.341"/><path d="m38 14.509c.144-.363-1.949-2.999-2.712-3.509-.548-.365-.695.064-.4.437.581.744 1.332 2.369 1.581 2.76-.042.004-1.035.203-1.374.403-.2.117-.819.448-.685.769.135.324 2.19.064 2.322.025 1.455-.413.934-.043 1.268-.885"/></g><path fill="#e6e7e8" d="m58.06 18.516c1.656.773.057 2.306-.844 4.238l-.646 1.396c-.898 1.93-.755 3.531-2.41 2.758l-9.708-3.8c-1.654-.773-.051-2.306.847-4.238l.646-1.397c.901-1.934.757-3.535 2.407-2.756l9.708 3.799"/><g fill="#d1d3d4"><path d="m51.02 20.395c.004-.489 3.212-1.372 4.124-1.26.656.084.554.619.108.748-.881.263-2.366 1.25-2.777 1.432.032.036.761 1.029.941 1.496.108.279.456 1.094.171 1.3-.282.208-1.333-.97-1.438-1.104-1.408-1.753-1.144-1.132-1.129-2.612"/><path d="m51.24 20.805c.162-.407-2.174-3.346-3.02-3.916-.609-.406-.772.072-.444.487.647.832 1.484 2.641 1.761 3.079-.046.005-1.153.227-1.53.449-.226.132-.914.502-.763.861.15.358 2.44.069 2.588.026 1.623-.462 1.041-.048 1.413-.986"/></g><path fill="#446daa" d="m50.87 31.806c-5.263 3.339-21.661 11.938-21.677 11.945-.483 3.568-.463 7.474.057 11.02 9.582-4.04 23.13-14.12 22.8-17.285-.326-3.166-.667-4.894-1.18-5.676"/><path fill="#5987c9" d="m29.25 15.886c.59.088 24.07 14.552 24.07 14.552s2.088 3.728 1.904 10.9c0 0-11.307 8.329-13.164 8.244 0 0-1.527-.952-1.143-1.687 0 0 .648-10.956-1.241-11.781l-23.13-17.875c0 0 12.11-2.441 12.699-2.353"/><path fill="#4b7cad" d="m39.789 36.21c1.744 1.236 1.128 11.686 1.128 11.686-.385.734 1.143 1.688 1.143 1.688 1.857.085 13.164-8.246 13.164-8.246.157-6.141-1.344-9.733-1.78-10.647-4.506 1.917-9.08 3.737-13.655 5.519"/></svg>