<svg xmlns="http://www.w3.org/2000/svg" viewBox="0 0 64 64" enable-background="new 0 0 64 64"><g fill="#e6e7e8"><path d="m63.3 6.877c.01.01.012.021.02.032-.008-.01-.01-.022-.02-.032"/><path d="m63.59 7.385c-2.07.719-4.141 1.308-6.188 2.107-.22.086-.591.253-1.018.436-.826-1.055-1.569-2.01-2.363-3.103-.428.115-.843.166-1.291.349-6.04 2.475-13.346 5.21-19.646 8.456-10.07 5.189-17.906 9.845-17.906 9.845s-6.829-4.377-10.303-4.806c-2.621-.318-4.397.232-4.682 1.698-.283 1.466 6.05 7.587 10.424 11.359 4.372 3.776 9.405 1.776 14.05-.554 12.643-6.342 28.47-14.01 34.936-18.507 3.086-2.149 4.734-5.481 3.986-7.28"/></g><path fill="#2c8ccb" d="m57.4 9.492c2.048-.799 4.118-1.388 6.188-2.107.004-.002.008-.003.014-.005-.052-.167-.162-.32-.282-.471-.008-.011-.01-.022-.02-.032-1.092-1.303-4.682-1.873-9.292-.069.004.006.008.011.011.017.794 1.09 1.537 2.048 2.363 3.103.428-.183.799-.35 1.018-.436"/><path fill="#27aae1" d="m15.297 25.457c-1.143-.715-7.314-4.501-10.515-4.894-2.672-.324-4.479.234-4.774 1.731-.228 1.179 4.067 5.601 7.941 9.177 2.427-2.075 7.411-5.973 7.348-6.01"/><g fill="#364c56"><path d="m50.761 12.775c-.673.301-1.494-.061-1.817-.804-.327-.743-.04-1.584.639-1.885.671-.299 1.494.059 1.816.803.327.746.042 1.586-.638 1.886"/><path d="m45.915 14.906c-.679.301-1.489-.057-1.82-.799-.325-.744-.039-1.592.637-1.887.677-.3 1.493.065 1.82.8.325.745.04 1.585-.637 1.886"/><path d="m41.18 16.991c-.678.291-1.491-.063-1.819-.806-.326-.741-.041-1.587.639-1.886.678-.295 1.491.064 1.819.805.325.744.04 1.584-.639 1.887"/><path d="m36.944 19.1c-.677.301-1.493-.059-1.82-.805-.321-.735-.041-1.578.638-1.878.679-.303 1.492.059 1.819.805.329.735.04 1.582-.637 1.878"/><path d="m32.31 21.596c-.68.299-1.489-.061-1.823-.8-.325-.744-.038-1.585.644-1.884.676-.3 1.49.063 1.817.798.329.747.04 1.591-.638 1.886"/><path d="m27.329 24.21c-.68.305-1.493-.061-1.819-.802-.326-.746-.04-1.587.634-1.89.68-.294 1.497.067 1.824.804.324.753.04 1.59-.639 1.888"/><path d="m22.288 26.724c-.676.299-1.485-.066-1.815-.801-.33-.747-.043-1.589.633-1.886.68-.298 1.495.061 1.823.802.325.738.038 1.587-.641 1.885"/><path d="m17.14 29.419c-.676.295-1.489-.059-1.815-.81-.328-.734-.043-1.583.633-1.878.678-.298 1.497.06 1.819.802.326.743.045 1.588-.637 1.886"/></g><path fill="#d3d3d3" d="m43.1 18.704c.425-.896-28.65-8.531-30.1-3.507-.375 1.299 17.05 10.486 17.913 10.623.863.138 11.767-6.224 12.191-7.116"/><path fill="#a7a9ac" d="m42.43 19.18c.426-.894-25.913-7.703-27.366-2.68-.375 1.299 14.258 9.396 15.12 9.533.86.137 11.819-5.958 12.244-6.853"/><path fill="#e6e7e8" d="m31.659 16.17c.76 1.185-.68 3.465-3.214 5.092-2.538 1.629-5.21 1.987-5.971.804-.76-1.185.678-3.463 3.218-5.092 2.535-1.627 5.207-1.989 5.967-.804"/><ellipse transform="matrix(.8413-.5406.5406.8413-4.28 19.08)" fill="#d1d3d4" cx="30.351" cy="16.828" rx="1.319" ry="1.12"/><path fill="#e6e7e8" d="m37.06 18.59c.594.927-.528 2.703-2.507 3.973-1.977 1.269-4.061 1.552-4.654.625-.593-.921.53-2.7 2.507-3.969 1.978-1.271 4.062-1.548 4.654-.629"/><ellipse fill="#34484c" cx="31.35" cy="57.52" rx="30.18" ry="1.677"/><ellipse transform="matrix(.8419-.5396.5396.8419-4.646 22.472)" fill="#d1d3d4" cx="36.03" cy="19.17" rx="1.103" ry=".937"/><path fill-rule="evenodd" fill="#fd7d23" d="m7.938 25.749c.165.083.381-.015.463-.2.096-.214.042-.506-.118-.697-.337-.398-.829-.366-1.131-.142-.435.318-.515.914-.216 1.452.387.699 1.127.853 1.737.573.652-.294.958-1.029.758-1.803-.287-1.124-1.477-1.768-2.503-1.352-1.214.487-1.54 1.921-.898 3.073.461.829 1.159 1.257 2.055 1.309.226.012.413.208.417.448.002.138-.01.153-.142.157-.556.016-1.09-.11-1.593-.389-.923-.515-1.438-1.312-1.595-2.361-.112-.743.047-1.395.45-1.973.674-.958 2.147-1.411 3.389-.499 1.124.825 1.304 2.238.762 3.19-.534.936-1.786 1.222-2.707.609-.845-.562-1.156-1.761-.617-2.562.399-.597 1.261-.899 1.995-.365.58.421.756 1.199.422 1.729-.33.519-.919.558-1.308.283-.336-.239-.452-.711-.244-1.043.151-.246.548-.267.752-.045.159.169.123.459-.066.566-.019.011-.039.027-.062.042"/></svg>