<svg xmlns="http://www.w3.org/2000/svg" enable-background="new 0 0 64 64" viewBox="0 0 64 64"><path d="m63.947 57.05c0 3.812-3.088 6.896-6.891 6.896h-50.16c-3.804-.001-6.892-3.087-6.892-6.896v-50.16c0-3.811 3.088-6.895 6.892-6.895h50.16c3.805 0 6.891 3.084 6.891 6.895v50.16" fill="#b45ecb"/><path d="m52.15 55.721c0-1.851-1.51-3.361-3.362-3.361-.468 0-.923.102-1.354.289l-.013-.004-.22.114c-1.184.585-2.274.958-3.336 1.14-1.127.185-2.104-.023-3.03-.651-1.149-.782-1.856-1.808-2.163-3.154-.186-.813-.204-1.67-.063-2.629.166-1.124.486-2.291 1.017-3.677.599-1.575 1.349-3.197 2.426-5.26 1.579-3.01 2.962-6.192 4.228-9.728.935-2.608 2.043-6.078 2.31-9.821.095-1.332.022-2.691-.218-4.16-.446-2.679-1.651-5.103-3.596-7.188-2.896-3.131-6.346-4.715-10.243-4.715-1.154 0-2.36.142-3.59.421-2.668.604-5.04 1.928-7.262 4.05-1.554 1.481-2.642 3.327-3.235 5.483-.656 2.377-.76 4.923-.33 8.02.259 1.858.723 3.819 1.418 5.991-1.563-.357-3.18-.357-4.753-.012-6.093 1.351-9.933 7.02-8.933 13.183.899 5.56 5.649 9.595 11.292 9.591 1.059 0 2.119-.144 3.152-.433 4.479-1.263 7.728-5.062 8.281-9.688.198-1.677.102-3.483-.283-5.373-.373-1.823-.94-3.576-1.496-5.197-.994-2.895-1.554-5.162-1.819-7.338-.26-2.118-.228-3.854.098-5.465.306-1.512.872-2.73 1.736-3.728 1.426-1.65 3.261-2.443 5.455-2.365 1.122.043 2.245.306 3.34.801 1.733.774 2.856 2.02 3.434 3.803.427 1.32.578 2.734.466 4.336-.151 2.102-.617 4.345-1.421 6.863-.854 2.675-2.02 5.456-3.659 8.751-.856 1.713-1.823 3.666-2.719 5.634-1.158 2.562-1.861 4.922-2.148 7.221-.313 2.506.043 4.871 1.053 7.02 1.901 4.04 5.717 6.545 9.961 6.545.904 0 1.83-.112 2.746-.336 1.92-.469 3.651-1.297 4.771-1.866.141-.06.281-.13.438-.226.113-.059.229-.133.354-.22l.104-.079-.002-.029c.745-.641 1.168-1.563 1.168-2.553m-27.731-17.305c.018 1.289-.55 2.648-1.518 3.63-.684.69-1.888 1.517-3.73 1.517h-.114c-1.497-.026-2.797-.573-3.755-1.578-.971-1.01-1.526-2.444-1.491-3.842.061-2.551 2.061-5.187 5.29-5.187l.102.004c1.906.031 3.122.907 3.803 1.634.954 1.021 1.485 2.428 1.418 3.76l-.004.039v.023" fill="#fff"/><g fill="#d0d2d3"><path d="m21.477 26.709c.318.043.639.094.955.169-.695-2.172-1.159-4.133-1.418-5.991-.432-3.095-.326-5.641.326-8.02.595-2.157 1.686-4 3.237-5.483 2.219-2.122 4.596-3.446 7.264-4.05 1.084-.244 2.146-.377 3.177-.405-.164-.008-.324-.016-.49-.016-1.153 0-2.359.142-3.589.421-2.668.604-5.04 1.928-7.262 4.05-1.554 1.481-2.642 3.327-3.239 5.483-.652 2.377-.756 4.923-.326 8.02.249 1.808.7 3.721 1.365 5.822"/><path d="m44.764 53.896c1.061-.181 2.151-.554 3.336-1.139l.221-.113.011.004c.292-.131.595-.213.907-.252-.15-.02-.301-.039-.454-.039-.468 0-.927.103-1.354.291l-.013-.004-.22.113c-1.184.585-2.274.958-3.336 1.139-.109.013-.217.028-.323.041.389.04.797.032 1.225-.041"/><path d="m19.64 43.543c.104.004.209.016.317.02h.114c1.842 0 3.046-.824 3.728-1.517.97-.981 1.538-2.341 1.52-3.63v-.023-.039c.071-1.332-.459-2.737-1.414-3.76-.684-.728-1.897-1.603-3.803-1.634l-.102-.004c-.149 0-.292.008-.436.021 1.697.129 2.801.938 3.438 1.618.954 1.021 1.485 2.427 1.418 3.761l-.004.037v.024c.018 1.289-.55 2.647-1.518 3.63-.624.627-1.681 1.37-3.258 1.496"/><path d="m33.505 54.49c-1.013-2.152-1.367-4.519-1.052-7.02.287-2.299.99-4.658 2.148-7.221.893-1.969 1.862-3.92 2.719-5.633 1.641-3.296 2.806-6.077 3.66-8.752.803-2.518 1.269-4.761 1.418-6.863.113-1.603-.037-3.02-.465-4.336-.58-1.784-1.703-3.03-3.434-3.803-1.094-.495-2.217-.758-3.339-.801-.257-.012-.507-.008-.752.008 1.067.059 2.144.326 3.188.793 1.733.774 2.856 2.02 3.434 3.803.427 1.32.578 2.734.466 4.336-.151 2.102-.617 4.345-1.421 6.863-.854 2.675-2.02 5.456-3.659 8.752-.856 1.713-1.824 3.664-2.72 5.633-1.157 2.563-1.86 4.922-2.147 7.221-.312 2.506.043 4.871 1.054 7.02 1.901 4.03 5.717 6.545 9.961 6.545.136 0 .271-.008.408-.012-4.04-.184-7.64-2.651-9.467-6.533"/><path d="m8.743 40.05c-.998-6.164 2.842-11.832 8.935-13.183.628-.134 1.265-.216 1.901-.248-.937-.036-1.877.047-2.805.248-6.093 1.351-9.933 7.02-8.933 13.183.899 5.56 5.649 9.595 11.292 9.591.153 0 .304-.005.456-.009-5.443-.204-9.968-4.169-10.846-9.582"/></g></svg>