<svg xmlns="http://www.w3.org/2000/svg" enable-background="new 0 0 64 64" viewBox="0 0 64 64"><path d="M63.666,56.802c0,3.794-3.07,6.868-6.862,6.868H6.86C3.072,63.67,0,60.596,0,56.802V6.864    C0,3.074,3.072,0,6.86,0h49.943c3.792,0,6.862,3.074,6.862,6.864V56.802z" fill="#1b75bb"/><path d="m35.719 15.915l18.428 15.858-18.25 15.936c-2.56-.189-4.57-1.893-4.582-3.979l-.018-3.541-16.625.09c-2.796.012-5.079-2.243-5.096-5.04l-.031-6.572c-.014-2.798 2.243-5.077 5.04-5.092l16.622-.086-.02-3.54c-.009-2.087 1.974-3.809 4.53-4.03" fill="#fff"/></svg>