<svg xmlns="http://www.w3.org/2000/svg" enable-background="new 0 0 64 64" viewBox="0 0 64 64"><path d="M63.792,56.913c0,3.802-3.076,6.882-6.878,6.882H6.874C3.078,63.795,0,60.715,0,56.913V6.877    C0,3.08,3.078,0,6.874,0h50.041c3.802,0,6.878,3.08,6.878,6.877V56.913z" fill="#1b75bb"/><path d="m28.04 47.85l-18.462-15.892 18.285-15.965c2.563.188 4.582 1.897 4.589 3.986l.018 3.55 16.654-.09c2.806-.012 5.094 2.246 5.11 5.05l.031 6.583c.012 2.807-2.246 5.087-5.05 5.103l-16.656.087.018 3.546c.014 2.087-1.973 3.816-4.535 4.04" fill="#fff"/></svg>