<?xml version="1.0" encoding="utf-8"?>
<!-- Generator: Adobe Illustrator 16.0.0, SVG Export Plug-In . SVG Version: 6.00 Build 0)  -->
<!DOCTYPE svg PUBLIC "-//W3C//DTD SVG 1.1//EN" "http://www.w3.org/Graphics/SVG/1.1/DTD/svg11.dtd">
<svg version="1.1" id="Layer_1" xmlns="http://www.w3.org/2000/svg" xmlns:xlink="http://www.w3.org/1999/xlink" x="0px" y="0px"
	 width="100px" height="100px" viewBox="0 0 100 100" enable-background="new 0 0 100 100" xml:space="preserve">
<g>
	<path fill="#FFFFFF" d="M53,52.6V77c0,0.8,0.8,1.2,1.5,0.9c4.8-2.7,19.4-11,19.4-11C75.8,65.8,77,63.8,77,61.6V39.7
		c0-0.8-0.8-1.2-1.5-0.9L54,50.9C53.4,51.3,53,51.9,53,52.6z"/>
	<path fill="#FFFFFF" d="M51,45.8l21.6-12.1c0.7-0.4,0.7-1.3,0-1.7c-4.8-2.7-19.5-11.1-19.5-11.1c-1.899-1.1-4.3-1.1-6.2,0
		c0,0-14.7,8.3-19.5,11.1c-0.7,0.4-0.7,1.3,0,1.7L49,45.8C49.6,46.1,50.4,46.1,51,45.8z"/>
	<path fill="#FFFFFF" d="M46,50.9L24.5,38.8c-0.7-0.4-1.5,0.1-1.5,0.9v21.8c0,2.2,1.2,4.2,3.1,5.3c0,0,14.6,8.3,19.4,11
		c0.7,0.4,1.5-0.1,1.5-0.899V52.6C47,51.9,46.6,51.3,46,50.9z"/>
</g>
</svg>
