<?xml version="1.0" encoding="utf-8"?>
<!-- Generator: Adobe Illustrator 17.1.0, SVG Export Plug-In . SVG Version: 6.00 Build 0)  -->
<!DOCTYPE svg PUBLIC "-//W3C//DTD SVG 1.1//EN" "http://www.w3.org/Graphics/SVG/1.1/DTD/svg11.dtd">
<svg version="1.1" id="Layer_1" xmlns="http://www.w3.org/2000/svg" xmlns:xlink="http://www.w3.org/1999/xlink" x="0px" y="0px" width="100" height="100"
	 viewBox="0 0 100 100" style="enable-background:new 0 0 100 100;" xml:space="preserve">

<g>
	<g>
		<path fill="#FFFFFF" d="M38,30h4c0.6,0,1-0.4,1-1v-3h14v3c0,0.6,0.4,1,1,1h4c0.6,0,1-0.4,1-1v-3c0-3.3-2.7-6-6-6H43c-3.3,0-6,2.7-6,6
			v3C37,29.6,37.4,30,38,30z"/>
	</g>
	<g>
		<path fill="#FFFFFF" d="M74,36H26c-3.3,0-6,2.7-6,6v32c0,3.3,2.7,6,6,6h48c3.3,0,6-2.7,6-6V42C80,38.7,77.3,36,74,36z M58.5,58.1
			L48,70.7c-0.6,0.6-1.6,0.1-1.4-0.7l2.6-9h-6.9c-0.8,0-1.4-0.8-1.1-1.6l4.2-10.8c0.4-0.9,1.2-1.5,2.2-1.5h6.8h1.5
			c0.9,0,1.5,0.9,1,1.7L52.4,56h5.2C58.6,56,59.2,57.3,58.5,58.1z"/>
	</g>
</g>
</svg>
