<svg xmlns="http://www.w3.org/2000/svg" height="100" width="100" viewBox="0 0 1000 1000" fill="#fff"><path d="M670 460c-17 0-31-14-30-32 1-16 15-28 32-28h86c4 0 7-2 9-5 8-14 14-28 19-41 2-7-2-14-9-14h-64c-16 0-31-12-32-28-1-17 13-32 30-32h80c6 0 10-4 10-10v-30c0-11-9-20-20-20H674c-30 0-54 24-54 54v1c0 56-37 106-90 120v-83a60 60 0 1 0-89-52c0 22 12 41 30 52v84c-53-14-90-64-90-120v-1c0-30-24-54-54-54H220c-11 0-20 9-20 20v30c0 6 4 10 10 10h78c16 0 31 12 32 28 1 17-13 32-30 32h-65c-7 0-12 7-9 14 5 13 11 27 19 41 2 3 5 5 9 5h86c16 0 31 12 32 28 1 17-13 32-30 32h-24c-9 0-14 12-6 18 42 36 98 62 170 62v228c0 16 12 31 28 32 17 1 32-13 32-30V540c72 0 128-26 170-62 7-6 3-18-6-18h-26z"/></svg>