<svg xmlns="http://www.w3.org/2000/svg" width="269" height="40" viewBox="0 0 269 40" preserveAspectRatio="xMidYMid meet">
  <g id="legaldatabase" fill="currentColor">
    <!-- CC -->
    <path fill-rule="evenodd" clip-rule="evenodd" d="M5.9329 5.79915C9.6688 2.02463 14.5032 0 19.997 0C25.4907 0 30.4352 2.02463 34.2806 5.85397C38.0715 9.62912 40.049 14.553 40.049 19.969C40.049 25.4399 38.0715 30.309 34.3356 33.9745C30.3802 37.8586 25.2705 39.9375 19.997 39.9375C14.7234 39.9375 9.72385 37.8586 5.87848 34.0293C2.03247 30.1993 0 25.2754 0 19.969C0 14.7169 2.08752 9.68395 5.9329 5.79915ZM31.6989 8.42556C28.5673 5.30701 24.5567 3.61132 20.052 3.61132C15.5473 3.61132 11.5912 5.25282 8.51462 8.37074C5.38302 11.5441 3.62517 15.6469 3.62517 19.969C3.62517 24.2363 5.38302 28.3392 8.51462 31.4583C11.6456 34.5769 15.7112 36.2726 20.0514 36.2726C24.3365 36.2726 28.5116 34.5763 31.7533 31.4035C34.8298 28.394 36.4232 24.455 36.4232 19.969C36.4232 15.5379 34.7748 11.4893 31.6989 8.42556ZM19.7932 16.6507C18.6605 14.594 16.728 13.7754 14.4849 13.7754C11.2197 13.7754 8.62093 16.0754 8.62093 19.969C8.62093 23.9282 11.0641 26.1627 14.5962 26.1627C16.8622 26.1627 18.794 24.9238 19.8603 23.0441L17.3722 21.7832C16.8166 23.1103 15.9731 23.5085 14.9069 23.5085C13.063 23.5085 12.2195 21.9823 12.2195 19.9697C12.2195 17.957 12.9301 16.4302 14.9069 16.4302C15.4397 16.4302 16.5059 16.7182 17.128 18.0446L19.7932 16.6507ZM26.0532 13.7754C28.2964 13.7754 30.2283 14.594 31.3616 16.6507L28.6963 18.0446C28.0737 16.7182 27.0075 16.4302 26.4747 16.4302C24.4979 16.4302 23.7866 17.957 23.7866 19.9697C23.7866 21.9823 24.6314 23.5085 26.4747 23.5085C27.5409 23.5085 28.385 23.1103 28.94 21.7832L31.428 23.0441C30.3618 24.9238 28.4299 26.1627 26.164 26.1627C22.6325 26.1627 20.1887 23.9282 20.1887 19.969C20.1887 16.0754 22.7881 13.7754 26.0532 13.7754Z"/>

    <!-- Legal -->
    <path d="M50.548 29V4.99597H45.346V29H50.548Z"/>
    <path d="M71.0157 21.214C70.9817 20.364 71.0497 16.692 69.0437 13.938C66.8337 10.844 63.2977 10.708 62.1077 10.708C58.2317 10.708 56.3617 12.306 55.2737 13.53C53.0637 16.08 52.9957 19.378 52.9957 20.466C52.9957 24.478 54.8317 27.946 58.7757 29.17C60.1697 29.612 61.4277 29.646 61.9717 29.646C63.2977 29.646 66.6977 29.408 69.3157 26.518C69.7237 26.042 70.0977 25.566 70.8117 24.512L66.8677 22.472C66.6297 22.914 65.8477 24.716 64.0797 25.328C63.3657 25.6 62.6857 25.634 62.3797 25.634C60.2717 25.634 58.8097 24.342 58.4017 22.268C58.2997 21.792 58.3337 21.384 58.3337 21.214H71.0157ZM65.6097 17.95H58.3677C58.5037 17.27 58.6397 16.896 58.7757 16.59C59.0477 15.978 59.9997 14.448 62.0737 14.448C62.3797 14.448 62.9577 14.448 63.6717 14.788C65.4397 15.57 65.5417 17.372 65.6097 17.95Z"/>
    <path d="M89.648 28.286V11.252H84.718V12.884C84.378 12.544 84.14 12.306 83.732 12.034C83.12 11.626 81.862 10.946 79.992 10.946C78.462 10.946 77.306 11.32 76.762 11.558C74.96 12.374 72.444 14.856 72.444 19.616C72.444 26.518 76.898 28.184 79.788 28.184C81.42 28.184 82.746 27.64 83.256 27.402C83.834 27.096 84.242 26.79 84.446 26.654L84.48 28.592C84.48 29.544 84.48 30.496 83.698 31.176C82.916 31.89 81.522 31.89 81.352 31.89C79.958 31.89 79.21 31.414 78.802 30.938C78.224 30.326 78.19 29.816 78.122 29H72.716C72.716 29.544 72.614 31.176 73.6 32.604C73.736 32.808 73.974 33.114 74.382 33.454C75.402 34.304 77.578 35.358 80.842 35.358C81.352 35.358 84.854 35.358 87.132 33.896C89.206 32.536 89.478 30.598 89.58 29.714C89.614 29.238 89.648 28.762 89.648 28.286ZM84.446 19.582C84.446 20.874 84.31 22.574 83.256 23.526C82.916 23.832 82.304 24.206 81.182 24.206C78.326 24.206 78.02 21.792 77.918 20.908C77.884 20.5 77.85 20.058 77.85 19.616C77.85 19.48 77.714 16.488 79.346 15.332C79.958 14.924 80.74 14.856 80.944 14.856C82.644 14.788 83.528 15.672 83.868 16.25C84.344 17.1 84.446 18.698 84.446 19.582Z"/>
    <path d="M107.754 29C107.312 28.354 107.244 27.776 107.244 26.246V15.876C107.244 14.856 107.074 14.38 106.87 13.904C105.68 11.354 102.314 10.776 99.8315 10.776C99.4235 10.776 98.5735 10.776 97.5535 10.912C96.9415 11.014 95.0035 11.286 93.5415 12.714C92.2155 14.04 92.1815 15.57 92.1135 16.284H97.3495C97.4175 15.91 97.5195 15.638 97.5875 15.502C97.8595 14.924 98.5735 14.21 100.104 14.21C102.008 14.21 102.11 15.74 102.11 16.352V17.338C98.7435 17.95 96.3295 18.426 95.0035 19.004C94.2215 19.344 91.3655 20.874 91.3655 24.07C91.3655 24.92 91.5695 25.804 91.9435 26.552C92.5215 27.742 93.9835 29.476 97.1795 29.476C99.3895 29.476 100.886 28.592 101.532 28.15C101.906 27.912 102.246 27.674 102.62 27.402V29H107.754ZM102.11 20.5C102.11 22.166 102.042 23.832 100.512 24.92C100.274 25.09 99.4575 25.634 98.5055 25.634C97.4175 25.634 96.9075 24.988 96.7035 24.648C96.5335 24.308 96.4995 23.934 96.4995 23.832C96.4995 23.152 96.8395 22.404 98.1315 21.86C98.3355 21.758 98.5395 21.69 98.7435 21.622L102.11 20.5Z"/>
    <path d="M115.2 29V4.99597H109.998V29H115.2Z"/>

    <!-- Database -->
    <path d="M143.691 29V4.99597H138.591V12.578C137.911 12.034 136.415 10.776 133.933 10.776C131.859 10.776 130.499 11.626 129.887 12.102C126.521 14.584 126.521 19.208 126.521 20.228C126.521 23.424 127.337 25.124 128.187 26.348C130.125 29.102 132.913 29.442 134.103 29.476C134.817 29.476 136.347 29.374 137.877 28.252C138.285 27.946 138.557 27.674 138.897 27.334L138.931 29H143.691ZM138.727 20.126C138.727 20.568 138.829 23.526 137.027 24.954C136.517 25.362 135.803 25.6 135.191 25.6C134.647 25.6 133.593 25.464 132.811 24.308C131.791 22.812 131.825 20.466 131.825 20.126C131.825 18.868 132.029 17.27 132.743 16.216C133.287 15.4 134.069 14.856 135.055 14.72C136.653 14.516 137.537 15.57 137.843 16.046C138.829 17.542 138.727 19.684 138.727 20.126Z"/>
    <path d="M162.851 29C162.409 28.354 162.341 27.776 162.341 26.246V15.876C162.341 14.856 162.171 14.38 161.967 13.904C160.777 11.354 157.411 10.776 154.929 10.776C154.521 10.776 153.671 10.776 152.651 10.912C152.039 11.014 150.101 11.286 148.639 12.714C147.313 14.04 147.279 15.57 147.211 16.284H152.447C152.515 15.91 152.617 15.638 152.685 15.502C152.957 14.924 153.671 14.21 155.201 14.21C157.105 14.21 157.207 15.74 157.207 16.352V17.338C153.841 17.95 151.427 18.426 150.101 19.004C149.319 19.344 146.463 20.874 146.463 24.07C146.463 24.92 146.667 25.804 147.041 26.552C147.619 27.742 149.081 29.476 152.277 29.476C154.487 29.476 155.983 28.592 156.629 28.15C157.003 27.912 157.343 27.674 157.717 27.402V29H162.851ZM157.207 20.5C157.207 22.166 157.139 23.832 155.609 24.92C155.371 25.09 154.555 25.634 153.603 25.634C152.515 25.634 152.005 24.988 151.801 24.648C151.631 24.308 151.597 23.934 151.597 23.832C151.597 23.152 151.937 22.404 153.229 21.86C153.433 21.758 153.637 21.69 153.841 21.622L157.207 20.5Z"/>
    <path d="M175.363 14.89V11.694H171.895V6.11797H166.727V11.66H164.143V14.856H166.727V23.39C166.727 25.022 166.659 26.824 168.019 28.014C169.209 29.102 170.773 29.068 171.249 29.102C171.589 29.136 171.963 29.136 172.337 29.136C173.527 29.136 174.751 28.932 175.091 28.864V24.818C174.479 24.818 173.867 24.852 173.255 24.852C173.153 24.852 172.337 24.852 172.031 24.274C171.861 23.968 171.895 23.56 171.895 22.846V14.89H175.363Z"/>
    <path d="M192.653 29C192.211 28.354 192.143 27.776 192.143 26.246V15.876C192.143 14.856 191.973 14.38 191.769 13.904C190.579 11.354 187.213 10.776 184.731 10.776C184.323 10.776 183.473 10.776 182.453 10.912C181.841 11.014 179.903 11.286 178.441 12.714C177.115 14.04 177.081 15.57 177.013 16.284H182.249C182.317 15.91 182.419 15.638 182.487 15.502C182.759 14.924 183.473 14.21 185.003 14.21C186.907 14.21 187.009 15.74 187.009 16.352V17.338C183.643 17.95 181.229 18.426 179.903 19.004C179.121 19.344 176.265 20.874 176.265 24.07C176.265 24.92 176.469 25.804 176.843 26.552C177.421 27.742 178.883 29.476 182.079 29.476C184.289 29.476 185.785 28.592 186.431 28.15C186.805 27.912 187.145 27.674 187.519 27.402V29H192.653ZM187.009 20.5C187.009 22.166 186.941 23.832 185.411 24.92C185.173 25.09 184.357 25.634 183.405 25.634C182.317 25.634 181.807 24.988 181.603 24.648C181.433 24.308 181.399 23.934 181.399 23.832C181.399 23.152 181.739 22.404 183.031 21.86C183.235 21.758 183.439 21.69 183.643 21.622L187.009 20.5Z"/>
    <path d="M213.631 19.786C213.631 15.706 212.203 13.7 210.809 12.51C208.939 10.878 207.035 10.742 206.083 10.742C203.941 10.742 202.683 11.456 201.969 12C201.595 12.272 201.561 12.306 201.017 12.884V4.99597H195.917V29H200.779L200.745 27.13C201.051 27.504 201.357 27.844 201.765 28.15C203.363 29.408 205.199 29.476 205.913 29.476C209.993 29.476 211.931 26.552 212.543 25.294C213.019 24.342 213.631 22.438 213.631 19.786ZM208.531 19.922C208.531 20.126 208.531 22.71 207.579 24.104C207.273 24.58 206.389 25.6 204.791 25.6C204.417 25.6 203.533 25.532 202.683 24.954C202.071 24.512 201.799 24.104 201.663 23.832C200.881 22.472 200.881 20.16 200.881 19.99C200.881 16.012 202.683 14.686 204.723 14.584C207.443 14.414 208.021 16.726 208.225 17.508C208.497 18.596 208.531 19.48 208.531 19.922Z"/>
    <path d="M231.685 29C231.243 28.354 231.175 27.776 231.175 26.246V15.876C231.175 14.856 231.005 14.38 230.801 13.904C229.611 11.354 226.245 10.776 223.763 10.776C223.355 10.776 222.505 10.776 221.485 10.912C220.873 11.014 218.935 11.286 217.473 12.714C216.147 14.04 216.113 15.57 216.045 16.284H221.281C221.349 15.91 221.451 15.638 221.519 15.502C221.791 14.924 222.505 14.21 224.035 14.21C225.939 14.21 226.041 15.74 226.041 16.352V17.338C222.675 17.95 220.261 18.426 218.935 19.004C218.153 19.344 215.297 20.874 215.297 24.07C215.297 24.92 215.501 25.804 215.875 26.552C216.453 27.742 217.915 29.476 221.111 29.476C223.321 29.476 224.817 28.592 225.463 28.15C225.837 27.912 226.177 27.674 226.551 27.402V29H231.685ZM226.041 20.5C226.041 22.166 225.973 23.832 224.443 24.92C224.205 25.09 223.389 25.634 222.437 25.634C221.349 25.634 220.839 24.988 220.635 24.648C220.465 24.308 220.431 23.934 220.431 23.832C220.431 23.152 220.771 22.404 222.063 21.86C222.267 21.758 222.471 21.69 222.675 21.622L226.041 20.5Z"/>
    <path d="M249.501 23.254C249.501 19.956 247.053 18.528 244.231 17.916L241.885 17.406C241.307 17.27 240.015 17.1 239.505 16.76C239.233 16.556 239.029 16.25 239.029 15.91C239.029 15.604 239.199 15.162 239.845 14.856C240.083 14.754 240.763 14.55 241.511 14.55C242.633 14.55 244.061 15.06 245.013 15.638C245.353 15.842 245.659 16.08 245.965 16.318L249.195 13.326C248.719 12.986 248.243 12.68 247.733 12.374C245.047 10.844 242.429 10.674 241.307 10.674C237.363 10.674 235.357 12.51 234.541 13.972C233.895 15.094 233.793 16.148 233.793 16.624C233.793 17.032 233.861 17.882 234.337 18.834C235.255 20.602 236.955 21.452 240.661 22.064C242.565 22.37 244.129 22.506 244.163 23.73C244.163 24.716 243.109 25.158 242.327 25.328C241.749 25.464 241.273 25.498 241.035 25.498C239.573 25.498 237.975 24.818 236.819 23.9C236.479 23.662 236.173 23.356 235.867 23.05L232.535 26.042C232.875 26.348 233.589 27.062 234.643 27.708C237.227 29.306 240.185 29.476 241.137 29.476C243.823 29.476 247.087 28.558 248.651 26.212C248.957 25.77 249.501 24.716 249.501 23.254Z"/>
    <path d="M268.422 21.214C268.388 20.364 268.456 16.692 266.45 13.938C264.24 10.844 260.704 10.708 259.514 10.708C255.638 10.708 253.768 12.306 252.68 13.53C250.47 16.08 250.402 19.378 250.402 20.466C250.402 24.478 252.238 27.946 256.182 29.17C257.576 29.612 258.834 29.646 259.378 29.646C260.704 29.646 264.104 29.408 266.722 26.518C267.13 26.042 267.504 25.566 268.218 24.512L264.274 22.472C264.036 22.914 263.254 24.716 261.486 25.328C260.772 25.6 260.092 25.634 259.786 25.634C257.678 25.634 256.216 24.342 255.808 22.268C255.706 21.792 255.74 21.384 255.74 21.214H268.422ZM263.016 17.95H255.774C255.91 17.27 256.046 16.896 256.182 16.59C256.454 15.978 257.406 14.448 259.48 14.448C259.786 14.448 260.364 14.448 261.078 14.788C262.846 15.57 262.948 17.372 263.016 17.95Z"/>
  </g>
</svg>
