<svg xmlns="http://www.w3.org/2000/svg" height="52" width="52" viewBox="0 0 520 520" fill="#fff"><path d="M360 239c-1-28-28-45-57-58-20-9-24-17-24-26s6-17 12-24c13-11 19-27 19-46 0-35-20-65-57-65-22 0-37 11-47 27 25 19 40 52 40 90 0 22-6 43-17 61-4 6-2 15 5 19 21 11 45 25 59 49 2 4 6 5 11 5h27c17-1 29-13 29-32zm-163 2c-23-10-26-19-26-29s6-20 14-27c13-13 20-31 20-52 0-39-23-73-63-73h-3c-40 0-63 34-63 73 0 21 7 39 20 52 8 7 14 17 14 27s-3 19-26 29c-33 15-64 30-65 61 1 22 16 38 35 38h174c19 0 34-16 34-37-1-32-33-47-65-62zm288 99h-45v-45c0-8-7-15-15-15h-30c-8 0-15 7-15 15v45h-45c-8 0-15 7-15 15v30c0 8 7 15 15 15h45v45c0 8 7 15 15 15h30c8 0 15-7 15-15v-45h45c8 0 15-7 15-15v-30c0-8-7-15-15-15z"/></svg>