<svg xmlns="http://www.w3.org/2000/svg" viewBox="0 0 64 64" enable-background="new 0 0 64 64"><switch><g><g><path fill="#e6e7e8" d="m0 24h64v14h-64z"/><path fill="#f93" d="M54,9H10C3.373,9,0,13.925,0,20v4h64v-4C64,13.925,60.627,9,54,9z"/><path fill="#128807" d="m0 42c0 6.075 3.373 11 10 11h44c6.627 0 10-4.925 10-11v-4h-64v4"/></g><g><path fill-rule="evenodd" fill="#010088" d="m32.31 24.583c3.567 0 6.463 2.893 6.459 6.463-.003 3.557-2.883 6.452-6.459 6.452-3.59 0-6.462-2.914-6.458-6.467.003-3.559 2.895-6.448 6.458-6.448m-4.305 2.795c.111.126.131.261.057.374-.034.051-.075.091-.137.112-.095.034-.182.02-.267-.034-.175.252-.328.513-.457.786.151.099.201.223.151.36-.024.062-.062.11-.118.143-.079.046-.162.053-.245.025-.072.144-.231.752-.233.88.065.014.125.046.168.101.046.056.067.118.064.188-.019.188-.135.268-.312.275-.028.181-.025.787.003.906.188.02.287.102.303.245.022.154-.052.254-.232.324.054.297.131.589.232.875.077-.018.145-.022.215.007.067.029.12.079.148.148.025.054.03.11.017.169-.019.094-.077.157-.161.202.134.278.282.54.457.786.156-.077.292-.059.384.051.042.048.063.103.065.164.005.095-.03.172-.104.236.2.234.413.448.645.645.131-.115.267-.133.384-.051.053.037.09.086.107.146.024.088.011.17-.042.252.253.174.514.324.787.454.106-.149.227-.199.358-.149.056.02.106.057.142.107.05.08.057.168.028.262.288.102.578.18.878.233.059-.169.161-.248.297-.238.063.005.12.024.17.067.07.064.103.145.097.245.308.022.609.024.908 0 .022-.193.099-.29.254-.312.061-.009.113.004.17.034.077.046.125.112.142.204.302-.056.595-.133.878-.234-.025-.189.021-.302.148-.361.047-.021.098-.027.147-.023.052.004.099.02.137.054.037.031.068.069.104.108.271-.129.532-.277.782-.451-.102-.16-.042-.313.041-.381.05-.041.107-.066.17-.068.094-.004.176.031.238.103.231-.198.448-.413.642-.644-.113-.129-.135-.265-.052-.382.034-.052.083-.09.145-.108.089-.025.174-.016.255.039.175-.252.327-.513.457-.787-.146-.098-.199-.213-.155-.344.018-.058.048-.108.1-.145.083-.059.176-.066.27-.04.065-.141.227-.735.236-.879-.07-.015-.129-.046-.176-.104-.046-.057-.07-.123-.061-.198.006-.065.028-.122.074-.169.063-.065.144-.096.236-.09.025-.307.025-.608 0-.909-.191-.019-.282-.093-.307-.244-.014-.059 0-.115.024-.168.044-.083.115-.134.209-.153-.054-.301-.13-.594-.233-.878-.185.031-.299-.019-.36-.147-.024-.056-.032-.115-.021-.175.019-.094.076-.16.164-.204-.134-.279-.282-.541-.457-.787-.161.077-.292.059-.384-.051-.041-.049-.064-.105-.064-.168-.001-.093.031-.169.104-.231-.201-.234-.413-.448-.643-.645-.138.118-.272.133-.386.051-.053-.037-.09-.086-.107-.146-.024-.088-.011-.173.042-.249-.254-.176-.514-.328-.787-.457-.103.148-.219.197-.35.153-.059-.02-.107-.053-.145-.104-.056-.082-.063-.172-.034-.269-.288-.102-.579-.183-.878-.233-.057.162-.16.246-.293.238-.061-.003-.119-.022-.17-.064-.074-.064-.107-.147-.101-.248-.309-.025-.609-.026-.908.001-.021.18-.099.283-.232.305-.061.012-.119.006-.177-.022-.085-.044-.138-.115-.156-.211-.303.056-.595.133-.879.235.032.177-.018.293-.14.356-.053.027-.109.038-.171.027-.1-.016-.172-.073-.213-.163-.171.064-.715.379-.787.458.074.148.057.279-.045.373-.045.039-.095.064-.156.07-.1.01-.186-.024-.255-.102-.232.199-.445.411-.643.643"/><path fill-rule="evenodd" fill="#010088" d="m35.08 35.827c-.012-.013-.024-.022-.033-.036-.581-.887-1.164-1.777-1.749-2.663-.013-.025-.028-.05-.04-.078-.136-.317-.269-.634-.408-.95-.004-.015-.01-.029-.019-.047-.056.021-.107.045-.167.068.007.018.012.033.02.051.125.307.245.615.372.922.034.082.048.168.066.254.098.459.19.92.289 1.38.112.548.226 1.095.338 1.643.003.008.003.015-.003.024-.003-.01-.01-.023-.014-.035-.274-.839-.555-1.677-.83-2.516-.055-.164-.104-.326-.164-.49-.028-.082-.037-.166-.05-.251-.035-.238-.065-.478-.104-.716-.005-.057-.014-.113-.022-.168-.002-.022-.006-.043-.011-.068-.06.006-.115.014-.175.021 0 .024.002.049.004.074.035.293.065.587.107.879.022.16.011.317.002.477-.006.135-.015.27-.021.406-.018.274-.032.547-.051.82-.01.188-.02.377-.03.564-.017.32-.037.639-.054.957-.008.09-.01.182-.019.27-.009-.101-.015-.202-.024-.303-.01-.22-.021-.439-.031-.656-.012-.195-.024-.391-.036-.585-.01-.2-.023-.399-.034-.599-.009-.131-.014-.262-.022-.391-.011-.207-.024-.414-.034-.619-.009-.109-.008-.219.008-.328.021-.148.037-.299.055-.449.02-.148.037-.297.055-.443.002-.023.002-.047.005-.074-.057-.008-.112-.014-.175-.023-.005.04-.014.079-.021.119-.036.263-.074.528-.112.793-.008.042-.014.084-.016.123-.012.119-.059.229-.099.34-.308.938-.617 1.877-.929 2.814-.007.017-.01.033-.023.049 0-.012 0-.021.005-.032.129-.632.259-1.265.393-1.897.086-.42.175-.839.26-1.258.007-.023.016-.047.024-.069.129-.317.253-.637.385-.954.004-.018.011-.035.02-.054-.056-.024-.109-.046-.166-.069-.007.018-.018.033-.024.051-.138.318-.273.637-.411.955-.008.024-.02.047-.032.069-.59.894-1.178 1.788-1.765 2.685-.007.013-.018.024-.031.035.005-.016.014-.029.02-.043.481-.955.964-1.912 1.446-2.867.012-.025.028-.051.046-.073.205-.276.413-.554.618-.829.013-.014.021-.027.033-.042-.051-.037-.092-.071-.143-.11-.011.013-.021.024-.03.037-.216.271-.429.544-.64.814-.024.025-.046.051-.073.074-.788.705-1.576 1.406-2.367 2.112-.016.013-.032.027-.052.036.009-.009.014-.02.02-.027.649-.725 1.293-1.449 1.939-2.174.037-.04.074-.08.109-.123.074-.086.157-.162.247-.23.239-.188.478-.377.718-.565.016-.012.028-.025.046-.037-.036-.048-.071-.094-.11-.141-.016.01-.029.02-.044.031-.275.206-.551.41-.826.617-.03.023-.063.043-.098.061-.939.474-1.883.948-2.824 1.422-.018.008-.035.018-.056.018.012-.008.027-.018.038-.027.586-.384 1.171-.767 1.756-1.15.306-.201.613-.402.917-.604.026-.015.053-.028.076-.04.319-.135.637-.271.953-.407.015-.006.03-.012.048-.021-.021-.054-.044-.108-.067-.165-.019.005-.031.01-.046.015-.324.129-.645.26-.971.388-.067.025-.14.037-.211.052-.729.151-1.457.303-2.185.454-.275.059-.555.117-.831.174-.012.002-.021.002-.033-.004.076-.024.152-.051.227-.076.944-.311 1.887-.621 2.828-.934.074-.025.153-.032.228-.044.304-.042.607-.086.908-.129.018-.003.035-.007.055-.012-.006-.058-.015-.116-.02-.176-.052.006-.098.01-.146.016-.201.025-.403.049-.604.073-.113.015-.225.027-.336.041-.027.003-.053.004-.079.003-.212-.013-.424-.025-.636-.037-.127-.007-.253-.015-.376-.021-.218-.012-.432-.026-.648-.038-.314-.018-.631-.035-.945-.052-.228-.012-.45-.027-.677-.043.036-.003.076-.009.115-.009.258-.015.518-.029.775-.044.343-.019.684-.038 1.024-.058.281-.016.563-.032.848-.048.176-.011.354-.021.532-.032.021-.001.046.002.067.004.203.025.409.049.61.073.146.018.288.035.432.052.014.001.026 0 .044 0 .005-.057.014-.111.02-.173-.037-.008-.079-.014-.116-.021-.267-.037-.532-.076-.799-.115-.055-.006-.111-.014-.166-.022-.028-.004-.062-.011-.09-.021-.795-.261-1.585-.524-2.379-.785-.223-.073-.442-.146-.662-.22-.019-.006-.038-.013-.053-.025.045.01.091.019.139.028.566.118 1.132.235 1.697.353.454.095.915.189 1.369.285.027.006.053.014.08.025.32.126.637.256.96.384.014.005.03.011.048.019.022-.055.046-.108.07-.165-.015-.009-.033-.018-.051-.025-.318-.134-.635-.271-.952-.408-.025-.01-.048-.023-.072-.037-.897-.587-1.79-1.177-2.688-1.765-.013-.008-.019-.014-.027-.029.01.006.023.012.036.02.894.45 1.789.9 2.685 1.349.148.074.292.163.424.264.218.169.44.331.662.497.015.011.028.021.044.031.036-.046.071-.091.11-.139-.013-.012-.026-.023-.039-.034-.271-.212-.541-.426-.813-.639-.028-.022-.05-.045-.074-.069-.708-.793-1.417-1.587-2.123-2.38-.009-.008-.017-.016-.023-.031.021.002.029.016.038.025.429.38.854.76 1.28 1.14.367.327.734.655 1.102.982.02.018.039.04.057.06.21.267.42.534.631.802.016.018.028.037.046.061.049-.038.094-.072.145-.111-.009-.014-.021-.025-.028-.038-.206-.275-.411-.551-.619-.825-.021-.032-.041-.065-.059-.1-.48-.945-.956-1.894-1.433-2.84-.009-.018-.018-.032-.02-.051.009.01.018.019.024.028.34.521.682 1.041 1.022 1.562.241.366.481.733.723 1.1.025.042.053.086.069.132.135.308.265.617.396.925.009.014.015.029.024.047.055-.023.106-.044.166-.069-.007-.014-.012-.03-.018-.042-.125-.312-.247-.624-.374-.934-.035-.079-.048-.161-.065-.243-.109-.521-.214-1.043-.323-1.565-.107-.502-.209-1-.314-1.504-.002-.003 0-.007.004-.017.031.094.06.179.088.267.314.943.625 1.888.933 2.833.026.074.035.155.046.232.037.262.074.526.116.79.007.05.01.1.02.155.062-.008.113-.014.174-.022 0-.021 0-.044 0-.066-.025-.209-.052-.419-.076-.627-.015-.122-.026-.241-.043-.36-.012-.08-.008-.161 0-.241.007-.136.017-.271.023-.406.016-.273.033-.543.049-.815.009-.146.012-.294.021-.44.013-.19.023-.383.034-.574.009-.14.016-.281.022-.42.008-.165.021-.329.035-.493.004.045.006.091.008.139.014.201.024.402.036.604.017.306.034.61.052.916.011.171.02.343.031.514.016.297.03.595.047.892.005.045.007.087.01.131.013.116-.01.231-.02.346-.021.175-.043.348-.064.524-.01.099-.025.198-.037.298-.002.024-.002.05-.009.079.062.009.118.015.18.023.009-.043.013-.083.02-.125.048-.325.094-.65.14-.977.004-.024.014-.049.02-.074.326-.978.646-1.957.97-2.937.016-.045.028-.088.053-.131-.003.023-.006.045-.011.068-.146.708-.298 1.414-.443 2.12-.065.331-.134.663-.203.994-.005.028-.014.055-.026.079-.129.321-.258.644-.386.965-.007.014-.012.029-.019.047.06.023.109.046.167.069.009-.018.015-.033.023-.048.135-.315.268-.631.403-.947.016-.032.028-.063.049-.089.581-.887 1.164-1.775 1.745-2.662.011-.014.02-.028.037-.038-.007.014-.012.028-.021.042-.479.951-.956 1.9-1.435 2.85-.015.027-.03.054-.048.078-.208.277-.417.554-.622.829-.009.015-.02.029-.033.045.051.039.092.072.142.111.012-.013.022-.025.031-.038.212-.27.423-.541.638-.811.023-.03.05-.058.079-.084.79-.706 1.581-1.411 2.372-2.115.013-.011.022-.022.043-.028-.009.01-.018.022-.026.032-.323.365-.646.728-.974 1.091-.39.435-.775.869-1.162 1.304-.02.022-.044.041-.065.059-.271.213-.542.426-.813.639-.013.011-.026.021-.04.032.038.048.072.094.112.142.015-.011.027-.02.043-.032.277-.208.553-.415.833-.624.021-.015.043-.029.066-.042.96-.482 1.914-.962 2.868-1.444.016-.007.029-.013.046-.013-.044.029-.085.057-.129.084-.863.567-1.726 1.134-2.592 1.701-.024.014-.046.028-.072.039-.319.138-.641.274-.957.411-.018.006-.032.013-.051.02.027.056.046.109.07.165.018-.005.031-.01.046-.015.321-.127.64-.26.964-.383.08-.032.168-.046.255-.064.49-.102.981-.203 1.473-.306.458-.094.912-.19 1.371-.285.042-.009.081-.018.125-.026.011 0 .021-.002.037.004-.049.016-.095.031-.14.046-.977.323-1.951.645-2.928.964-.074.026-.156.033-.233.045-.219.033-.435.062-.648.093-.078.011-.155.023-.233.033-.021.003-.038.007-.057.01.006.059.015.114.019.178.053-.006.102-.01.151-.016.179-.021.358-.043.54-.064.135-.017.276-.036.417-.049.063-.005.127.001.192.004.137.006.274.018.417.024.269.016.537.032.808.048.12.007.24.012.364.02.271.015.549.031.824.047.195.012.396.021.59.033.048.003.098.007.144.013-.05.004-.099.008-.146.012-.201.011-.404.022-.605.033-.247.014-.501.03-.749.044-.186.01-.376.02-.565.03-.26.016-.525.031-.787.048-.144.006-.292.02-.437.021-.083.002-.17-.014-.251-.023-.178-.021-.355-.042-.533-.064-.115-.014-.227-.027-.341-.041-.009-.001-.019 0-.033 0-.004.058-.013.115-.019.176.069.011.135.021.203.029.284.042.567.083.855.124.104.013.195.054.293.085.948.312 1.896.625 2.844.939.018.004.035.011.051.023-.024-.004-.047-.008-.071-.01-.822-.172-1.646-.344-2.47-.515-.216-.046-.435-.09-.652-.136-.021-.006-.049-.014-.072-.025-.321-.127-.643-.257-.966-.386-.013-.005-.026-.01-.043-.015-.022.052-.046.105-.073.163.021.009.036.017.053.025.319.136.636.271.953.408.025.011.05.024.076.042.886.581 1.773 1.162 2.662 1.744.013.01.03.022.041.041-.013-.008-.028-.013-.039-.021-.465-.233-.923-.464-1.387-.696-.484-.246-.972-.49-1.461-.736-.03-.016-.06-.033-.087-.057-.275-.205-.553-.411-.828-.618-.012-.01-.024-.019-.039-.028-.038.046-.072.091-.112.139.014.011.027.021.038.03.268.214.541.428.81.641.033.023.059.049.083.076.708.791 1.413 1.581 2.119 2.371.009.012.013.021.02.039-.011-.012-.026-.02-.037-.029-.795-.711-1.591-1.418-2.388-2.128-.018-.017-.035-.034-.048-.054-.217-.275-.433-.551-.648-.826-.009-.013-.02-.025-.031-.038-.046.038-.091.072-.137.112.004.012.013.025.021.037.21.279.419.559.629.838.018.023.033.05.048.077.477.946.953 1.894 1.429 2.841.009.014.012.027.015.042h-.003z"/><path fill-rule="evenodd" fill="#010088" d="m35.07 35.827c.01.01.016.021.024.03-.005.002-.005.005-.011.006-.002-.014-.009-.023-.011-.036h-.002"/></g></g></switch></svg>