<svg xmlns="http://www.w3.org/2000/svg" viewBox="0 0 64 64" enable-background="new 0 0 64 64"><switch><g><path fill="#e6e7e8" d="m0 25h64v14h-64z"/><path fill="#74acdf" d="m54 10h-44c-6.627 0-10 4.925-10 11v4h64v-4c0-6.075-3.373-11-10-11"/><path fill="#74acdf" d="m0 43c0 6.075 3.373 11 10 11h44c6.627 0 10-4.925 10-11v-4h-64v4"/><g><path fill-rule="evenodd" fill="#7b4022" d="m32.678 27.898c.31-.386.342-.771.35-1.178.009-.345.06-.692.122-1.038.023-.129.114-.257.204-.355.058-.06.184-.091.262-.074.049.013.095.147.091.226-.007.137-.071.273-.08.41-.02.289-.02.573-.021.859-.004.289-.002.575-.002.897.206-.428.402-.84.604-1.249.109-.226.219-.453.354-.661.051-.071.182-.091.274-.133.035.095.124.2.104.28-.119.423-.263.84-.404 1.257-.126.382-.261.757-.419 1.201.404-.226.581-.531.739-.866.173-.368.375-.727.604-1.062.109-.157.312-.352.524-.172.055.046-.046.35-.143.481-.226.306-.363.63-.462.999-.084.315-.303.596-.448.863.053-.042.146-.12.231-.2.411-.368.819-.741 1.232-1.108.113-.101.235-.195.368-.259.063-.031.186-.006.242.038.045.031.051.162.021.217-.082.147-.184.289-.295.415-.475.533-.954 1.06-1.477 1.635.501-.069.817-.314 1.12-.613.238-.235.515-.438.784-.643.077-.057.188-.103.277-.099.135.004.268.061.398.099-.072.107-.116.259-.217.318-.402.228-.719.522-.986.905-.151.224-.434.352-.701.559.579-.207 1.114-.398 1.651-.582.208-.071.423-.13.638-.166.065-.011.189.053.211.111.021.062-.019.189-.073.232-.142.109-.3.2-.464.275-.621.302-1.244.594-1.914.912.541.162.965-.031 1.406-.195.34-.125.713-.171 1.076-.205.107-.01.234.137.348.213-.103.082-.202.228-.317.238-.472.051-.874.24-1.285.467-.271.15-.623.156-.941.23.75.042 1.5.084 2.251.13.009 0 .02-.002.03.003.137.079.271.155.408.233-.13.08-.259.224-.397.233-.679.063-1.365.091-2.045.133-.104.004-.207.013-.377.027.486.358.966.329 1.461.344.355.006.716.13 1.062.242.089.027.135.193.198.295-.111.04-.224.109-.333.109-.147 0-.295-.062-.444-.087-.127-.022-.262-.063-.383-.04-.519.095-1.03.169-1.527-.124-.002.025-.009.051-.015.076.563.265 1.122.53 1.681.798.162.078.33.158.472.266.071.055.093.179.135.273-.093.038-.189.12-.274.109-.195-.027-.389-.095-.578-.16-.603-.206-1.205-.421-1.833-.645.16.393.464.588 1.068.824.284.109.547.293.787.48.154.121.382.326.211.526-.181.215-.384-.025-.537-.144-.284-.219-.597-.339-.943-.434-.331-.093-.624-.322-.919-.489.388.43.797.881 1.201 1.333.126.144.261.285.354.449.051.084.02.217.023.326-.111-.008-.255.023-.331-.035-.301-.232-.583-.491-.87-.744-.35-.308-.694-.621-1.082-.969.078.566.388.91.754 1.22.306.261.543.572.617.973.023.118-.049.251-.08.377-.109-.065-.268-.101-.322-.198-.24-.408-.537-.73-.938-.998-.217-.147-.345-.428-.535-.676.089.266.169.51.254.754.137.388.277.773.412 1.162.036.104.069.218.062.322-.007.085-.06.213-.12.232-.072.021-.196-.034-.249-.102-.101-.122-.171-.271-.239-.412-.302-.622-.599-1.249-.921-1.928-.146.459-.036.826.111 1.196.12.306.231.619.295.941.036.175-.022.377-.063.559-.015.055-.119.122-.181.12-.06 0-.169-.078-.173-.127-.046-.63-.348-1.158-.61-1.71-.095-.196-.063-.448-.133-.676-.029.606-.06 1.209-.091 1.815-.008.181-.004.366-.055.539-.033.113-.147.211-.226.312-.075-.104-.21-.204-.219-.315-.059-.67-.091-1.342-.128-2.01-.007-.147 0-.295-.041-.449-.223.272-.339.575-.336.921 0 .328.029.665-.016.989-.029.22-.145.435-.257.633-.04.071-.181.084-.278.121-.033-.086-.077-.17-.099-.261-.011-.055.013-.118.027-.177.102-.392.151-.773.042-1.186-.064-.246-.01-.524-.01-.809-.226.47-.451.937-.677 1.4-.084.173-.166.35-.275.501-.055.071-.182.089-.274.129-.039-.093-.115-.194-.105-.282.03-.196.096-.388.163-.577.21-.604.425-1.205.661-1.877-.461.249-.623.624-.796 1-.147.324-.335.636-.548.924-.113.156-.316.348-.526.171-.055-.042.048-.35.147-.486.223-.306.359-.628.457-.998.084-.316.307-.594.465-.881-.457.409-.924.837-1.4 1.258-.135.118-.277.231-.434.32-.061.035-.191.024-.242-.02-.044-.044-.059-.177-.027-.237.073-.144.173-.272.277-.393.475-.53.955-1.055 1.475-1.632-.554.069-.861.386-1.18.71-.229.231-.501.423-.781.594-.168.107-.439.233-.566.008-.145-.261.164-.35.329-.443.317-.192.552-.445.771-.742.188-.254.482-.432.737-.648-.542.189-1.085.379-1.63.568-.152.055-.302.129-.457.144-.125.017-.258-.042-.386-.067.065-.12.104-.295.204-.35.51-.271 1.043-.516 1.567-.771.206-.1.412-.2.632-.308-.4-.151-.708-.1-1.264.143-.262.116-.544.194-.828.251-.149.032-.322.007-.474-.036-.087-.024-.146-.137-.217-.208.071-.067.139-.186.219-.193.528-.062.994-.26 1.455-.529.234-.137.559-.124.914-.193-.685-.034-1.3-.062-1.912-.093-.202-.011-.404-.023-.599-.071-.088-.021-.148-.138-.223-.209.074-.069.139-.183.226-.206.195-.047.397-.057.598-.067.639-.034 1.274-.063 1.995-.097-.468-.342-.912-.382-1.376-.32-.404.053-.785-.029-1.129-.236-.101-.063-.146-.213-.215-.324.122-.035.259-.124.364-.099.435.103.854.128 1.307.057.354-.055.738.082 1.113.137-.545-.259-1.104-.522-1.657-.794-.206-.099-.413-.206-.603-.335-.064-.044-.117-.183-.095-.25.02-.06.158-.125.236-.112.206.032.408.093.606.162.606.207 1.207.424 1.834.646-.155-.385-.463-.576-1.065-.825-.324-.137-.604-.379-.893-.583-.067-.049-.114-.146-.138-.229-.019-.067-.012-.175.03-.218.042-.042.143-.029.217-.037.011 0 .022.004.029.01.571.626 1.554.489 2.134 1.125-.036-.053-.072-.109-.116-.156-.411-.454-.823-.909-1.231-1.366-.087-.097-.174-.204-.222-.318-.031-.08-.034-.223.013-.268.053-.048.198-.046.271-.006.131.067.248.168.36.27.522.466 1.042.938 1.613 1.451-.051-.495-.322-.784-.599-1.087-.257-.282-.465-.61-.69-.927-.029-.046-.055-.118-.046-.171.017-.119.059-.235.09-.354.105.057.255.091.308.179.249.424.548.773.969 1.049.206.14.32.422.497.666-.023-.091-.031-.162-.057-.228-.177-.504-.358-1-.535-1.506-.042-.111-.105-.228-.105-.341-.002-.146.049-.291.076-.438.122.08.297.135.355.251.322.612.611 1.244.912 1.868.049.097.098.191.164.324.156-.499-.004-.897-.168-1.309-.118-.295-.189-.608-.248-.92-.027-.139.014-.301.063-.442.023-.061.127-.126.198-.133.053-.002.16.085.164.135.06.604.318 1.127.597 1.655.107.202.077.48.139.723.042-.741.088-1.48.131-2.222.002-.042-.007-.089.01-.118.072-.111.147-.219.224-.324.08.111.226.217.233.333.062.749.093 1.503.135 2.258.007.053.016.102.031.222m-5.471 3.047c.283.025.576.025.854.095.257.063.495.209.75.293.124.045.268.029.402.042-.407-.197-.801-.383-1.214-.478-.245-.056-.527.028-.792.048-.395-.093-.79-.188-1.184-.282.35.302.762.318 1.184.282m9.54 3.593c.273.198.552.391.817.601.059.044.073.151.107.229.042-.051.061-.12.033-.158-.226-.359-.526-.614-.969-.665-.383-.224-.811-.384-1.08-.775-.095-.139-.234-.25-.369-.352-.097-.071-.223-.103-.337-.153.226.288.504.484.729.73.292.324.641.501 1.069.543m-8.831-5.589c-.439-.158-.781-.432-1.031-.801-.089.306.598.855 1.04.794.04.049.08.102.128.142.289.221.586.434.872.659.147.118.272.266.426.377.078.057.193.063.292.088-.203-.239-.456-.399-.644-.612-.295-.337-.645-.558-1.083-.647m-.688 3.955c.484-.196.989-.224 1.504-.196.157.007.319-.033.472-.075.053-.015.088-.095.149-.169-.522.029-.996.021-1.455.098-.236.039-.442.229-.666.35-.366.063-.732.128-1.099.191.006.025.01.051.015.075.384.017.759-.008 1.08-.274m6.564 1.675c-.065-.03-.13-.056-.196-.083-.022.015-.044.032-.066.049.394.945.785 1.894 1.177 2.841.021-.006.04-.015.063-.021-.329-.934-.655-1.866-.983-2.795.21.288.481.55.616.872.215.51.668.714 1.066 1-.282-.33-.637-.612-.872-.969-.242-.362-.306-.84-.714-1.18-.04.126-.064.206-.091.284m-2.483-6.05c-.229-.45-.461-.903-.686-1.358-.192-.387-.375-.779-.563-1.166-.023.008-.045.019-.068.031.398.954.795 1.912 1.192 2.868.038-.008.078-.017.12-.025 0-.12 0-.237 0-.355.072.091.144.181.191.24 0-.377.007-.756-.002-1.134-.004-.157 0-.343-.078-.465-.301-.472-.419-.99-.467-1.531 0-.011-.029-.017-.146-.084.08.364.08.688.215.939.364.655.353 1.339.292 2.04m-3.444 7.875c.036-.046.065-.097.109-.135.713-.646 1.431-1.291 2.139-1.942.071-.066.09-.193.135-.294-.098.042-.22.055-.287.122-.656.661-1.308 1.331-1.956 2-.064.066-.093.164-.14.246-.204-.149-.053-.255.049-.36.617-.63 1.238-1.26 1.857-1.891.1-.102.186-.215.304-.354-.329.025-2.354 2.234-2.407 2.58.067.007.133.017.197.025m5.411-1.417c.239.472.479.941.716 1.417.2.406.392.817.59 1.226.021-.008.042-.021.065-.029-.417-1-.83-1.999-1.245-2.997-.04.004-.08.009-.12.017 0 .127 0 .251-.002.375-.067-.088-.135-.179-.244-.322.027.552-.013 1.041.093 1.498.137.587.392 1.144.585 1.685.049-.268.007-.586-.155-.859-.373-.636-.344-1.32-.283-2.01m1.87-4.752c-.029.084-.059.171-.089.255.055.002.118.021.162.005.958-.404 1.915-.813 2.871-1.22-.005-.019-.015-.036-.02-.055-.979.341-1.956.683-2.934 1.025.286-.206.577-.413.861-.623.213-.158.474-.289.622-.497.217-.302.452-.552.779-.729.119-.063.219-.162.328-.247-.249.095-.475.217-.676.362-.171.12-.352.244-.473.408-.225.313-.501.522-.861.668-.305.122-.581.32-.867.484.011.038.021.078.033.118.092.017.176.032.264.046m-5.667 3.01c-.297.215-.566.484-.891.637-.453.21-.687.572-.901.973.313-.266.577-.598.919-.811.355-.224.793-.318 1.12-.689-.104-.042-.179-.073-.253-.103.015-.087.033-.171.067-.322-1.067.455-2.058.88-3.052 1.304.011.021.017.04.025.061.988-.351 1.978-.702 2.966-1.05m2.154 1.087c.715.224.715.224 1.309.009-.045.086-.078.155-.122.235 1.366-.132 2.473-1.581 2.36-3.049-.122-1.586-1.479-2.751-3.11-2.673-1.513.076-2.719 1.409-2.691 2.974.027 1.426 1.238 2.766 2.506 2.768-.072-.075-.145-.15-.252-.264m3.444-1.362c-.015.035-.03.071-.045.107.147.211 2.553 1.135 3.103 1.16-1.02-.423-2.041-.844-3.058-1.267m-2.696 5.14c.015.002.031.002.045.004.055-1.038.109-2.078.148-3.116.005-.067-.079-.14-.124-.211-.024.013-.046.021-.069.031 0 1.098 0 2.195 0 3.292m-.006-9.386c.217-.149.217-.149.141-1.651-.027-.556-.065-1.114-.099-1.672-.013.002-.029.002-.042.004 0 1.093 0 2.186 0 3.319m2.209-2.694c-.021-.013-.04-.021-.061-.029-.091.185-.184.37-.272.558-.303.636-.61 1.266-.903 1.906-.067.137-.177.301.063.472.4-.986.785-1.949 1.173-2.907m-2.382 8.713c-.224.223-.179 2.655 0 3.367 0-1.094 0-2.198 0-3.367m3.105-3.164c.013.032.025.063.04.096 1.089 0 2.178 0 3.269 0-1.01-.107-2.02-.167-3.02-.213-.094-.005-.191.078-.285.117m3.341.287c-1.104 0-2.209 0-3.313 0 0 .053.002.105.002.158 1.104.023 2.206-.097 3.311-.158m-12.705-.072c0 .03 0 .058-.003.087.484.027.969.059 1.456.084.52.029 1.04.063 1.561.076.088.002.179-.085.268-.131-.08-.038-.162-.107-.24-.109-1.014-.009-2.027-.007-3.042-.007m6.257-6.396c-.015.004-.027.006-.04.009-.055 1.01-.111 2.02-.16 3.03-.002.089.073.186.111.28.029-.011.059-.021.089-.029 0-1.097 0-2.195 0-3.292m-6.149 6.236c.991 0 2.08 0 3.238 0-.246-.192-2.717-.13-3.238 0m10.625-4.385c-.014-.015-.025-.027-.043-.044-.736.674-1.474 1.349-2.211 2.02-.038.033-.074.077-.086.122-.011.05.004.107.008.159.053-.012.116-.01.152-.039.092-.076.17-.169.254-.253.641-.654 1.283-1.312 1.926-1.967m-3.762 1.498c.053.019.105.04.156.061.044-.084.101-.164.126-.252.086-.346.164-.695.246-1.043.032-.135.112-.284.082-.406-.132-.554-.077-1.093.078-1.628.009-.038-.04-.091-.069-.151-.051.244-.104.441-.131.642-.038.264-.099.537-.071.796.042.373-.007.708-.149 1.052-.122.295-.182.615-.268.929m-1.622 5.867c-.044-.006-.091-.011-.135-.013-.368.916-.737 1.835-1.104 2.751.021.008.044.021.069.029.39-.821.783-1.643 1.165-2.471.039-.079.005-.196.005-.296m-2.618 2.49c0 .034 0 .067 0 .102.087-.032.213-.034.26-.097.208-.274.444-.548.579-.859.189-.43.381-.834.763-1.134.162-.128.292-.303.416-.47.047-.066.034-.177.047-.265-.289.255-.531.51-.734.79-.18.246-.389.503-.455.785-.107.463-.44.758-.688 1.118-.025.034-.122.024-.188.03m-.768-9.914c-.016.02-.036.04-.053.062.242.229.486.459.722.692.487.482.967.969 1.458 1.447.05.048.143.053.217.078-.025-.076-.032-.165-.074-.23-.051-.075-.131-.126-.195-.188-.552-.501-1.104-.998-1.658-1.495-.135-.121-.276-.243-.417-.366m8.767 9.13c.02-.019.034-.038.051-.062-.714-.714-1.435-1.43-2.156-2.142-.055-.057-.16-.063-.238-.091.029.087.038.196.099.255.264.26.542.508.815.757.477.433.955.856 1.429 1.283m-8.877-8.885c-.004.002-.008.005-.013.007.167.185.331.37.5.556.478.526.953 1.058 1.438 1.577.07.074.188.102.283.152.008-.025.019-.051.027-.076-.744-.74-1.492-1.479-2.235-2.216m-1.302 1.847c.999.408 1.997.818 3.059 1.255-.118-.309-2.262-1.165-3.059-1.255m8.03.381c.038.04.078.08.12.12.79-.756 1.473-1.613 2.22-2.409.021.019.04.038.058.059-.802.743-1.598 1.484-2.398 2.23m.711 1.293c.015.027.027.055.04.082.377-.025.757-.025 1.129-.082.278-.04.548-.149.821-.233.257-.078.506-.169.763-.242.151-.042.31-.058.468-.082-.013-.045-.023-.089-.034-.133-.312.08-.642.12-.933.244-.44.191-.874.348-1.365.288-.166-.021-.343-.019-.512.009-.13.021-.252.096-.377.149m-1.435-1.857c.039.019.08.038.117.057.116-.155.213-.332.352-.467.437-.418.746-.885.91-1.487.097-.344.366-.67.723-.878-.102.015-.234.031-.289.107-.197.259-.408.521-.537.818-.183.418-.355.828-.736 1.114-.133.102-.256.229-.358.367-.08.108-.124.245-.182.369m-3.985-3.143c-.021.011-.04.018-.063.025.346.961.689 1.921 1.045 2.877.023.063.127.095.189.146.023-.021.047-.042.067-.062-.413-.996-.825-1.99-1.238-2.986m-.407 4.811c.004-.044.011-.086.017-.131-.949-.39-1.897-.781-2.846-1.173.837.479 1.702.894 2.57 1.298.074.035.172.006.259.006m.396 6.979c.027-.113.051-.259.105-.394.335-.849.678-1.693 1.018-2.542.035-.093.057-.189.104-.339-.334.209-1.313 2.987-1.227 3.275m8.363-8.276c-.015-.023-.029-.045-.042-.065-.992.425-1.981.849-2.976 1.274.025.055.051.107.073.164 1-.413 1.962-.921 2.945-1.373m-.162 4.559c.007-.018.015-.038.021-.056-.859-.41-1.717-.82-2.576-1.223-.082-.038-.193-.007-.291-.007-.006.034-.014.069-.021.102.957.396 1.911.793 2.867 1.184m-4.452-5.063c.27-.088 1.226-2.582 1.253-3.123-.434 1.084-.844 2.101-1.253 3.123m-7.01 5.01c.013.021.027.046.042.067.943-.402 1.888-.809 2.831-1.213-.023-.049-.047-.1-.065-.152-.963.373-1.865.883-2.808 1.298m8.824-1.835c.004.018.006.034.011.051.402.147.798.316 1.209.44.193.057.417.059.619.031.55-.071 1.04.071 1.531.312-.058-.084-.12-.189-.204-.213-.314-.084-.641-.206-.957-.191-.505.02-.977-.002-1.426-.255-.149-.08-.315-.13-.479-.17-.097-.026-.202-.005-.304-.005m1.155 3.557c-.006.011-.013.021-.021.029-.564-.619-1.124-1.242-1.693-1.859-.055-.06-.153-.076-.231-.114-.006.018-.013.029-.017.045.651.634 1.309 1.267 1.962 1.899m1.484-2.915c-.499 0-.958.053-1.4-.017-.446-.069-.838-.409-1.369-.327.043.083.063.171.096.173.87.087 1.7.595 2.673.171m-8.717-1.659c.02-.047.04-.095.062-.142-.105-.051-.204-.118-.316-.146-.251-.059-.528-.048-.76-.149-.513-.228-1-.135-1.515.06.914-.34 1.679.297 2.529.377m-.189-4.181c-.025.017-.047.035-.069.053.164.168.308.357.493.497.275.202.461.452.592.772.103.257.244.501.387.739.038.062.152.076.23.109-.02-.088-.016-.195-.062-.261-.486-.668-.83-1.45-1.571-1.909m2.51 7.77c-.356.204-.575 1.876-.35 2.559.019-.419-.038-.854.033-1.262.079-.424.372-.798.317-1.297m3.205-1.236c-.038.044-.073.088-.111.135.343.263.667.562 1.038.783.386.231.817.388 1.23.577.019-.04.035-.078.055-.12-.144-.063-.278-.16-.426-.188-.436-.078-.769-.306-1.07-.623-.204-.218-.473-.38-.716-.564m-1.36 3.953c-.036-.14-.038-.354-.141-.497-.325-.453-.375-.954-.36-1.489.004-.226-.076-.451-.129-.741-.099.097-.153.126-.149.146.189.893.12 1.86.779 2.581m-2.209.593c.029.006.059.01.086.019.057-.315.182-.634.156-.941-.051-.57.008-1.095.284-1.599.065-.12.103-.263.13-.397.018-.091-.012-.192-.019-.289-.204.48-.459.948-.484 1.431-.031.583.015 1.168-.179 1.737-.003.007.019.027.026.039m-.112-11.981c.034.135.034.368.146.526.318.459.369.96.355 1.493-.004.226.076.45.119.674.041.013.082.021.119.031.018-.037.047-.077.04-.111-.175-.916-.162-1.886-.779-2.613m-3.564 2.628c.175.063.358.111.524.194.287.147.571.301.841.481.229.156.426.362.648.531.061.044.171.031.257.044-.057-.082-.097-.183-.173-.237-.145-.104-.341-.152-.457-.276-.443-.47-.982-.733-1.64-.737m7.743 2.558c.011.049.02.1.031.148.912-.178 1.879-.133 2.646-.79-.164.046-.381.063-.535.168-.41.291-.853.358-1.339.35-.268-.005-.538.079-.803.124m-1.266-1.981c.049.036.102.069.147.105.377-.79 1.253-1.293 1.213-2.347-.069.162-.166.298-.189.447-.073.452-.315.787-.638 1.097-.209.201-.358.465-.533.698m-7.418 3.656c.123-.036.32-.044.457-.139.426-.297.885-.382 1.393-.367.259.009.524-.086.787-.135-.015-.048-.022-.093-.035-.141-.902.203-1.877.123-2.602.782m3.898 1.35c-.048-.031-.099-.065-.149-.097-.36.79-1.238 1.289-1.198 2.34.067-.151.156-.271.177-.4.071-.492.341-.856.69-1.191.194-.186.322-.432.48-.652m-.13-4.922c.03-.022.06-.048.091-.073-.481-.497-.423-1.342-1.105-1.685.162.275.348.564.508.865.103.193.157.411.259.604.055.11.161.194.247.289m2.228-.659c.051.016.105.027.16.045.011-.681.606-1.232.419-1.87-.115.335-.257.736-.386 1.139-.073.225-.128.456-.193.686m-4.45 5.914c.325-.164.668-.335 1.01-.51.171-.086.344-.164.504-.268.061-.037.091-.126.133-.191-.02-.019-.038-.038-.059-.057-.453.487-1.258.428-1.589 1.026m6.546-4.756c.029.041.059.08.088.118.449-.49 1.247-.436 1.576-.987-.373.173-.803.366-1.222.577-.158.077-.297.193-.442.292m.435 6.06c-.16-.274-.319-.533-.459-.805-.107-.204-.172-.43-.277-.632-.053-.099-.16-.171-.24-.255-.025.021-.051.042-.076.063.478.466.421 1.264 1.052 1.629m-7.118-1.053c-.394.225-.703.532-1.151.57.262.162.768-.084 1.151-.57m7.553 1.343c-.025.014-.051.03-.078.045.133.231.263.461.394.695.031-.021.063-.038.095-.06-.138-.225-.274-.455-.411-.68m-6.908-9.612c-.031.019-.062.04-.093.057.135.236.271.468.404.701.027-.013.055-.029.08-.042-.131-.24-.26-.477-.391-.716"/><path fill-rule="evenodd" fill="#fdd12e" d="m31.633 34.33c.107.114.18.189.251.264-1.268-.002-2.479-1.342-2.506-2.768-.027-1.564 1.179-2.897 2.691-2.974 1.632-.078 2.988 1.087 3.11 2.673.112 1.468-.994 2.917-2.36 3.049.044-.08.077-.149.122-.235-.593.215-.593.215-1.308-.009m1.22-2.27c-.011.029-.022.062-.036.091.025.013.056.023.072.042.063.074.122.147.182.224-.089.017-.182.04-.274.053-.051.008-.126-.021-.155.004-.268.246-.508.166-.752.019-.12-.017-.24-.035-.36-.055.065-.107.133-.215.228-.37-.118.033-.258.036-.329.105-.063.059-.097.223-.057.29.055.095.181.164.291.207.082.031.181.006.273.006.007.027.013.057.019.084-.113.034-.229.1-.341.095-.169-.006-.331 0-.331.2.002.169.125.282.322.282.466-.004.932-.002 1.396-.004.038 0 .095.006.116-.017.073-.091.162-.186.191-.291.007-.038-.139-.144-.228-.171-.158-.044-.324-.055-.486-.077 0-.027 0-.055.002-.085.098-.008.2.003.293-.024.113-.036.261-.078.32-.165.046-.075.027-.25-.034-.324-.066-.077-.21-.083-.322-.119m-2.304-1.459c.933-.26 1.313-.2 1.348.213-.482-.2-.943-.271-1.362.17.425.435.896.356 1.382.198-.329.299-.721.286-1.129.264.179.084.368.159.554.153.189-.006.375-.099.59-.16 0 .211 0 .396 0 .621.183-.305.229-1.246.086-1.493-.029-.053-.069-.099-.118-.135-.317-.255-1.094-.265-1.351.169m3.502.382c-.421-.446-.889-.362-1.406-.16.086-.392.383-.377.615-.379.246 0 .492.082.807.142-.336-.327-.668-.386-1.043-.3-.386.089-.522.232-.531.617-.008.31.018.624.036.934.005.065.049.131.076.195.021-.004.044-.008.067-.013 0-.193 0-.385 0-.604.398.184.762.308 1.198-.033-.48.093-.87.093-1.198-.2.486.169.949.231 1.379-.199m-2.233 2.879c.338 0 .628 0 .969 0-.135-.064-.235-.115-.334-.164 0-.025-.003-.051-.005-.073.171 0 .339-.015.506.002.215.027.288-.005.35-.177-.668 0-1.344 0-2.02 0 .107.082.24.147.377.166.176.021.354.004.531.004 0 .025 0 .053-.004.078-.113.049-.226.102-.368.164"/><path fill-rule="evenodd" fill="#fdd12e" d="m29.479 33.24c-.987.35-1.978.701-2.965 1.051-.009-.021-.015-.04-.025-.061.994-.424 1.984-.849 3.052-1.304-.034.151-.053.235-.067.322l.005-.008"/><path fill-rule="evenodd" fill="#fdd12e" d="m35.08 32.97c1.017.423 2.038.845 3.058 1.268-.55-.025-2.955-.949-3.103-1.16.015-.037.031-.073.045-.108"/><path fill-rule="evenodd" fill="#fdd12e" d="m35.15 30.23c-.089-.015-.173-.029-.262-.044-.012-.04-.022-.08-.033-.118.286-.164.563-.362.867-.484.36-.146.637-.355.861-.668.121-.164.302-.288.473-.408.201-.146.427-.268.676-.362-.109.085-.209.184-.328.247-.327.177-.563.427-.779.729-.148.208-.409.339-.622.497-.284.21-.575.417-.861.623l.008-.012"/><path fill-rule="evenodd" fill="#fdd12e" d="m35.14 30.24c.978-.343 1.954-.685 2.934-1.025.005.019.015.036.02.055-.956.406-1.913.815-2.871 1.22-.044.017-.107-.003-.162-.005.03-.084.06-.171.089-.255l-.01.01"/><path fill-rule="evenodd" fill="#fdd12e" d="m32.381 38.11c0-1.098 0-2.194 0-3.292.023-.01.045-.019.069-.031.045.071.129.144.124.211-.039 1.038-.094 2.078-.148 3.116-.014-.002-.03-.002-.045-.004"/><path fill-rule="evenodd" fill="#fdd12e" d="m32.375 28.724c0-1.133 0-2.226 0-3.319.013-.002.029-.002.042-.004.033.558.071 1.116.099 1.672.076 1.501.076 1.501-.141 1.651"/><path fill-rule="evenodd" fill="#fdd12e" d="m34.584 26.03c-.388.958-.773 1.921-1.173 2.906-.24-.171-.131-.335-.063-.472.293-.641.601-1.271.903-1.906.089-.188.182-.373.272-.558.021.009.04.018.061.03"/><path fill-rule="evenodd" fill="#fdd12e" d="m32.2 34.743c0 1.169 0 2.272 0 3.367-.179-.712-.223-3.144 0-3.367"/><path fill-rule="evenodd" fill="#fdd12e" d="m35.31 31.579c.095-.039.191-.122.284-.117 1.01.046 2.02.105 3.02.213-1.091 0-2.18 0-3.269 0-.014-.032-.027-.064-.039-.096"/><path fill-rule="evenodd" fill="#fdd12e" d="m38.648 31.866c-1.105.061-2.207.181-3.311.158 0-.053-.002-.105-.002-.158 1.104 0 2.21 0 3.313 0"/><path fill-rule="evenodd" fill="#fdd12e" d="m25.943 31.794c1.015 0 2.027-.002 3.041.007.078.002.16.071.24.109-.089.046-.18.133-.268.131-.521-.013-1.041-.047-1.561-.076-.487-.025-.972-.057-1.456-.084.004-.029.004-.057.004-.087"/><path fill-rule="evenodd" fill="#fdd12e" d="m32.2 25.398c0 1.097 0 2.194 0 3.292-.03.008-.06.019-.089.029-.038-.095-.113-.191-.111-.28.049-1.013.105-2.024.16-3.03.013-.003.026-.005.04-.009"/><path fill-rule="evenodd" fill="#fdd12e" d="m26.05 31.634c.521-.13 2.992-.191 3.238 0-1.158 0-2.247 0-3.238 0"/><path fill-rule="evenodd" fill="#fdd12e" d="m36.676 27.25c-.643.655-1.285 1.313-1.926 1.968-.084.084-.162.177-.254.253-.036.029-.1.027-.152.039-.004-.052-.019-.109-.008-.159.012-.045.048-.089.086-.122.737-.674 1.475-1.349 2.211-2.02.017.016.029.028.043.043"/><path fill-rule="evenodd" fill="#fdd12e" d="m33.28 34.993c0-.126 0-.25 0-.377.04-.008.08-.013.12-.017.415.998.828 1.997 1.245 2.997-.023.008-.044.021-.065.029-.198-.408-.39-.819-.59-1.226-.236-.476-.477-.945-.716-1.417l.006.011"/><path fill-rule="evenodd" fill="#fdd12e" d="m27.865 36.402c.047-.084.076-.183.14-.248.648-.672 1.3-1.342 1.956-2 .067-.067.189-.08.287-.122-.045.101-.063.228-.135.294-.708.651-1.426 1.296-2.139 1.942-.044.038-.073.089-.109.135v.002"/><path fill-rule="evenodd" fill="#fdd12e" d="m32.914 28.747c.086-.314.146-.634.268-.931.143-.344.191-.679.149-1.052-.027-.259.033-.532.071-.796.027-.2.08-.397.131-.642.029.061.078.113.069.151-.155.535-.21 1.074-.078 1.628.03.122-.05.271-.082.406-.082.348-.16.697-.246 1.043-.025.088-.082.168-.126.252-.05-.019-.103-.04-.156-.059"/><path fill-rule="evenodd" fill="#fdd12e" d="m31.3 28.518c0 .12 0 .237 0 .357-.042.009-.082.018-.12.025-.397-.956-.794-1.914-1.192-2.868.023-.013.045-.023.068-.031.188.387.37.779.563 1.166.225.455.457.908.686 1.358l-.005-.007"/><path fill-rule="evenodd" fill="#fdd12e" d="m27.865 36.4c-.064-.009-.13-.019-.197-.025.053-.346 2.078-2.555 2.407-2.58-.118.14-.204.253-.304.354-.619.631-1.24 1.261-1.857 1.891-.102.105-.253.211-.049.362v-.002"/><path fill-rule="evenodd" fill="#fdd12e" d="m31.29 34.614c0 .1.034.217-.004.297-.382.828-.775 1.649-1.165 2.471-.025-.009-.048-.021-.069-.029.366-.916.735-1.835 1.104-2.751.043.002.09.006.134.012"/><path fill-rule="evenodd" fill="#fdd12e" d="m28.674 37.1c.066-.006.163.005.188-.029.247-.36.58-.655.688-1.118.066-.282.275-.539.455-.785.203-.28.445-.535.734-.79-.013.088 0 .198-.047.265-.124.167-.254.342-.416.47-.382.3-.573.704-.763 1.134-.135.312-.371.585-.579.859-.047.063-.173.064-.26.097 0-.036 0-.069 0-.103"/><path fill-rule="evenodd" fill="#fdd12e" d="m27.906 27.19c.141.122.281.244.416.366.555.497 1.106.994 1.658 1.495.064.062.145.112.195.188.042.065.049.154.074.23-.074-.025-.167-.03-.217-.078-.491-.479-.971-.965-1.458-1.447-.235-.233-.479-.463-.722-.692.018-.022.039-.042.054-.062"/><path fill-rule="evenodd" fill="#fdd12e" d="m36.673 36.32c-.474-.428-.952-.851-1.43-1.282-.273-.249-.552-.497-.815-.757-.061-.059-.069-.168-.099-.255.078.027.184.034.238.091.722.712 1.442 1.428 2.156 2.142-.016.023-.031.043-.05.061"/><path fill-rule="evenodd" fill="#fdd12e" d="m27.796 27.435c.743.737 1.491 1.477 2.235 2.216-.009.025-.02.051-.027.076-.096-.051-.213-.078-.283-.152-.484-.52-.96-1.051-1.438-1.577-.169-.186-.333-.371-.5-.556.005-.003.009-.005.013-.007"/><path fill-rule="evenodd" fill="#fdd12e" d="m26.494 29.28c.797.09 2.94.945 3.059 1.255-1.062-.436-2.06-.847-3.059-1.255"/><path fill-rule="evenodd" fill="#fdd12e" d="m34.521 29.663c.801-.746 1.597-1.487 2.397-2.23-.018-.021-.036-.04-.058-.059-.747.796-1.43 1.653-2.22 2.409-.041-.04-.081-.08-.119-.12"/><path fill-rule="evenodd" fill="#fdd12e" d="m35.23 30.956c.125-.053.246-.128.377-.149.169-.027.346-.029.512-.009.491.06.925-.097 1.365-.288.291-.124.621-.164.933-.244.011.044.021.088.034.133-.158.024-.316.04-.468.082-.257.073-.506.164-.763.242-.273.084-.543.193-.821.233-.372.057-.752.057-1.129.082-.012-.027-.025-.055-.04-.082"/><path fill-rule="evenodd" fill="#fdd12e" d="m33.797 29.1c.059-.124.103-.261.181-.368.103-.138.226-.266.358-.367.381-.286.554-.696.736-1.114.129-.297.34-.56.537-.818.055-.076.188-.093.289-.107-.356.208-.626.534-.723.878-.164.603-.474 1.069-.91 1.487-.139.135-.235.312-.352.467-.036-.02-.077-.04-.116-.058"/><path fill-rule="evenodd" fill="#fdd12e" d="m29.812 25.956c.413.996.825 1.99 1.238 2.986-.021.02-.044.04-.067.062-.063-.051-.166-.082-.189-.146-.355-.956-.699-1.916-1.045-2.877.022-.007.042-.014.063-.025"/><path fill-rule="evenodd" fill="#fdd12e" d="m29.405 30.767c-.087 0-.186.029-.259-.006-.868-.404-1.733-.819-2.57-1.298.948.392 1.896.783 2.846 1.173-.006.045-.013.087-.017.131"/><path fill-rule="evenodd" fill="#fdd12e" d="m29.801 37.746c-.086-.288.894-3.066 1.227-3.274-.047.149-.068.246-.104.339-.34.849-.683 1.693-1.018 2.542-.054.134-.078.28-.105.393"/><path fill-rule="evenodd" fill="#fdd12e" d="m38.16 29.47c-.983.452-1.943.96-2.944 1.373-.022-.057-.048-.109-.073-.164.994-.426 1.983-.85 2.976-1.274.012.02.026.041.041.065"/><path fill-rule="evenodd" fill="#fdd12e" d="m31.31 28.525c.062-.701.072-1.386-.29-2.04-.135-.251-.135-.575-.215-.939.116.067.146.073.146.084.048.541.166 1.06.467 1.531.078.122.074.308.078.465.009.378.002.757.002 1.134-.048-.06-.119-.149-.191-.24-.001-.002.003.005.003.005"/><path fill-rule="evenodd" fill="#fdd12e" d="m33.28 34.983c-.062.69-.091 1.375.282 2.01.162.273.204.592.155.859-.193-.541-.448-1.098-.585-1.685-.105-.457-.065-.946-.093-1.498.109.144.177.234.244.322.003.003-.003-.007-.003-.007"/><path fill-rule="evenodd" fill="#fdd12e" d="m33.786 34.568c.328.931.654 1.863.983 2.797-.023.006-.042.015-.063.021-.392-.947-.783-1.896-1.177-2.841.022-.017.044-.034.066-.049.066.027.131.053.196.083l-.005-.011"/><path fill-rule="evenodd" fill="#fdd12e" d="m38 34.03c-.956-.392-1.91-.788-2.866-1.184.007-.032.015-.067.021-.102.098 0 .209-.031.291.007.859.402 1.717.813 2.576 1.223-.007.018-.015.039-.022.056"/><path fill-rule="evenodd" fill="#fdd12e" d="m33.55 28.966c.409-1.021.819-2.039 1.253-3.123-.028.541-.984 3.035-1.253 3.123"/><path fill-rule="evenodd" fill="#fdd12e" d="m33.792 34.579c.027-.078.051-.158.091-.283.408.34.472.817.714 1.18.235.356.59.639.872.969-.398-.288-.852-.492-1.066-1-.135-.322-.406-.584-.616-.872-.001-.003.005.008.005.008"/><path fill-rule="evenodd" fill="#fdd12e" d="m26.541 33.977c.943-.415 1.845-.925 2.808-1.298.019.053.042.104.065.152-.943.404-1.888.811-2.831 1.213-.015-.022-.029-.047-.042-.067"/><path fill-rule="evenodd" fill="#fdd12e" d="m35.37 32.14c.102 0 .207-.021.304.005.164.04.33.09.479.17.449.253.921.274 1.426.255.316-.015.643.107.957.191.084.023.146.129.204.213-.491-.24-.981-.383-1.531-.312-.202.027-.426.025-.619-.031-.411-.124-.807-.293-1.209-.44-.005-.017-.007-.034-.011-.051"/><path fill-rule="evenodd" fill="#fdd12e" d="m36.52 35.699c-.652-.632-1.311-1.266-1.963-1.899.004-.016.011-.027.017-.045.078.038.177.055.231.114.569.617 1.129 1.24 1.693 1.859.009-.008.016-.018.022-.029"/><path fill-rule="evenodd" fill="#fdd12e" d="m38 32.784c-.973.424-1.803-.084-2.674-.171-.032-.002-.053-.09-.096-.173.531-.082.923.258 1.369.327.443.07.902.017 1.401.017"/><path fill-rule="evenodd" fill="#fdd12e" d="m29.29 31.13c-.851-.08-1.615-.717-2.529-.377.51-.194 1-.287 1.515-.06.231.102.509.091.76.149.112.027.211.095.316.146-.022.047-.042.095-.062.142"/><path fill-rule="evenodd" fill="#fdd12e" d="m29.473 33.25c.074.029.149.061.253.103-.327.371-.765.466-1.12.689-.342.213-.605.545-.919.811.215-.4.448-.763.901-.973.324-.152.594-.422.891-.639l-.006.009"/><path fill-rule="evenodd" fill="#fdd12e" d="m29.1 26.944c.741.459 1.085 1.24 1.571 1.91.046.065.042.173.062.261-.078-.033-.192-.048-.23-.109-.143-.238-.284-.482-.387-.739-.131-.32-.316-.57-.592-.772-.186-.14-.329-.329-.493-.497.022-.019.043-.037.069-.054"/><path fill-rule="evenodd" fill="#fdd12e" d="m31.608 34.714c.055.499-.238.873-.316 1.297-.071.408-.015.843-.033 1.262-.226-.683-.007-2.355.349-2.559"/><path fill-rule="evenodd" fill="#fdd12e" d="m34.813 33.478c.242.185.512.347.716.564.302.317.635.545 1.07.623.147.027.282.124.426.188-.02.042-.036.08-.055.12-.413-.189-.845-.346-1.23-.577-.371-.222-.695-.521-1.038-.783.038-.048.073-.092.111-.135"/><path fill-rule="evenodd" fill="#fdd12e" d="m33.453 37.431c-.659-.721-.59-1.688-.779-2.582-.004-.02.051-.049.149-.146.053.29.133.516.129.741-.015.535.035 1.036.36 1.489.103.143.105.358.141.498"/><path fill-rule="evenodd" fill="#fdd12e" d="m31.24 38.02c-.007-.013-.029-.032-.025-.04.193-.569.147-1.154.179-1.737.025-.482.28-.95.484-1.431.007.097.036.198.019.289-.027.135-.064.277-.13.397-.276.504-.335 1.028-.284 1.599.025.308-.1.626-.156.941-.028-.008-.058-.012-.087-.018"/><path fill-rule="evenodd" fill="#fdd12e" d="m31.13 26.04c.617.727.604 1.697.779 2.613.007.034-.022.074-.04.111-.037-.01-.078-.019-.119-.031-.043-.224-.123-.448-.119-.674.014-.533-.037-1.034-.355-1.493-.112-.158-.112-.391-.146-.526"/><path fill-rule="evenodd" fill="#fdd12e" d="m27.568 28.671c.657.004 1.196.268 1.641.737.116.124.313.173.457.276.076.055.116.155.173.237-.086-.013-.196 0-.257-.044-.223-.169-.419-.375-.648-.531-.27-.181-.554-.334-.841-.481-.166-.083-.35-.131-.525-.194"/><path fill-rule="evenodd" fill="#fdd12e" d="m27.23 32.911c.224-.121.43-.311.666-.35.459-.076.933-.068 1.455-.098-.062.074-.097.154-.149.169-.152.042-.314.082-.472.075-.515-.027-1.02 0-1.504.196l.004.008"/><path fill-rule="evenodd" fill="#fdd12e" d="m35.31 31.23c.266-.046.535-.13.803-.124.486.009.929-.059 1.339-.35.154-.105.371-.122.535-.168-.767.657-1.733.612-2.646.79-.012-.048-.021-.099-.031-.148"/><path fill-rule="evenodd" fill="#fdd12e" d="m34.05 29.25c.175-.233.324-.497.533-.697.322-.31.564-.645.638-1.097.023-.149.12-.285.189-.447.04 1.054-.836 1.557-1.213 2.347-.046-.037-.098-.07-.147-.106"/><path fill-rule="evenodd" fill="#fdd12e" d="m26.627 32.904c.725-.659 1.7-.579 2.602-.781.013.048.021.093.035.141-.263.049-.528.144-.787.135-.508-.015-.967.07-1.393.367-.137.094-.334.102-.457.138"/><path fill-rule="evenodd" fill="#fdd12e" d="m30.525 34.25c-.158.22-.286.466-.48.651-.35.335-.619.699-.69 1.191-.021.129-.109.249-.177.4-.04-1.051.838-1.55 1.198-2.34.051.032.102.067.149.098"/><path fill-rule="evenodd" fill="#fdd12e" d="m27.92 28.945c.435.093.784.313 1.079.65.188.213.44.373.644.612-.099-.024-.214-.031-.292-.088-.153-.111-.278-.259-.426-.377-.286-.226-.583-.438-.872-.659-.048-.04-.088-.093-.128-.142l-.005.004"/><path fill-rule="evenodd" fill="#fdd12e" d="m36.745 34.538c-.426-.042-.775-.219-1.065-.543-.226-.246-.504-.442-.729-.73.114.051.24.082.337.153.135.102.274.213.369.352.27.392.697.552 1.08.775l.008-.007"/><path fill-rule="evenodd" fill="#fdd12e" d="m30.395 29.332c-.086-.095-.191-.179-.248-.288-.102-.193-.156-.411-.259-.604-.16-.301-.346-.59-.508-.865.683.343.624 1.188 1.105 1.685-.031.024-.06.05-.09.072"/><path fill-rule="evenodd" fill="#fdd12e" d="m32.623 28.673c.065-.229.12-.461.193-.687.129-.402.271-.804.386-1.139.188.638-.408 1.189-.419 1.87-.054-.017-.109-.029-.16-.044"/><path fill-rule="evenodd" fill="#fdd12e" d="m28.17 34.587c.331-.598 1.136-.539 1.589-1.025.021.019.039.038.059.057-.042.065-.072.154-.133.191-.16.104-.333.182-.504.268-.343.174-.686.345-1.01.509"/><path fill-rule="evenodd" fill="#fdd12e" d="m27.21 30.945c.263-.021.545-.104.791-.048.413.095.807.28 1.214.478-.135-.013-.278.003-.402-.042-.255-.084-.493-.229-.75-.293-.278-.069-.571-.069-.854-.095h.001"/><path fill-rule="evenodd" fill="#fdd12e" d="m34.719 29.831c.146-.099.284-.215.442-.292.419-.211.849-.404 1.222-.577-.329.552-1.127.497-1.576.987-.03-.038-.059-.077-.088-.118"/><path fill-rule="evenodd" fill="#fdd12e" d="m35.15 35.889c-.631-.364-.574-1.163-1.053-1.628.025-.021.051-.042.076-.063.08.084.188.156.24.255.105.202.17.428.277.632.141.27.3.529.46.804"/><path fill-rule="evenodd" fill="#fdd12e" d="m27.925 28.942c-.442.062-1.129-.488-1.04-.794.25.369.592.643 1.033.799.002-.002.007-.005.007-.005"/><path fill-rule="evenodd" fill="#fdd12e" d="m28.04 34.836c-.383.486-.889.732-1.151.574.448-.042.758-.349 1.151-.574"/><path fill-rule="evenodd" fill="#fdd12e" d="m36.736 34.545c.442.051.743.306.969.665.027.038.009.107-.033.158-.034-.078-.049-.186-.107-.229-.266-.21-.544-.402-.817-.601l-.012.007"/><path fill-rule="evenodd" fill="#fdd12e" d="m27.23 32.904c-.32.266-.695.291-1.08.273-.005-.024-.009-.05-.015-.075.366-.063.732-.129 1.099-.191l-.004-.007"/><path fill-rule="evenodd" fill="#fdd12e" d="m27.21 30.945c-.422.036-.834.02-1.184-.282.394.095.79.19 1.184.282"/><path fill-rule="evenodd" fill="#fdd12e" d="m35.589 36.18c.137.226.273.455.41.681-.031.021-.063.038-.095.06-.131-.234-.261-.464-.394-.695.028-.016.053-.033.079-.046"/><path fill-rule="evenodd" fill="#fdd12e" d="m28.681 26.567c.131.238.261.476.392.716-.025.013-.053.029-.08.042-.133-.233-.27-.465-.404-.701.03-.017.06-.038.092-.057"/><path fill-rule="evenodd" fill="#7b4022" d="m32.853 32.06c.112.036.257.043.322.118.062.074.08.249.034.324-.06.087-.207.129-.32.165-.093.027-.195.017-.293.024-.002.03-.002.058-.002.085.162.022.328.033.486.077.089.027.234.133.228.171-.029.105-.118.2-.191.291-.021.022-.078.017-.116.017-.465.002-.931 0-1.396.004-.197 0-.32-.113-.322-.282 0-.2.162-.206.331-.2.111.005.228-.061.341-.095-.006-.027-.012-.057-.019-.084-.093 0-.191.025-.273-.006-.11-.043-.236-.112-.291-.207-.04-.067-.007-.231.057-.29.071-.069.211-.072.329-.105-.095.155-.162.263-.228.37.12.02.24.038.36.055.244.147.484.228.752-.019.029-.025.104.004.155-.004.093-.013.186-.036.274-.053-.06-.076-.118-.149-.182-.224-.017-.019-.047-.029-.072-.042.013-.029.025-.061.036-.09m-.971.91c0 .029 0 .059 0 .089.278 0 .552 0 .828 0 0-.03 0-.06 0-.089-.276 0-.552 0-.828 0"/><path fill-rule="evenodd" fill="#7b4022" d="m30.549 30.603c.257-.434 1.034-.424 1.35-.169.049.036.089.082.118.135.144.247.097 1.188-.086 1.493 0-.225 0-.41 0-.621-.215.062-.4.154-.59.16-.186.006-.375-.069-.554-.153.408.022.8.035 1.129-.264-.486.158-.957.236-1.382-.198.419-.441.88-.37 1.362-.17-.035-.414-.415-.473-1.347-.213m.972.376c-.113-.082-.191-.18-.24-.164-.073.021-.128.115-.189.179.063.053.125.137.189.142.062.004.129-.078.24-.157"/><path fill-rule="evenodd" fill="#7b4022" d="m34.05 30.985c-.43.43-.893.367-1.379.198.328.293.718.293 1.198.2-.437.341-.8.217-1.198.033 0 .22 0 .411 0 .604-.023.005-.047.009-.067.013-.027-.064-.071-.13-.076-.195-.019-.31-.044-.624-.036-.934.009-.385.146-.528.531-.617.375-.086.707-.027 1.043.3-.314-.06-.561-.142-.807-.142-.232.002-.529-.013-.615.379.517-.201.985-.285 1.406.161m-.822.257c.044-.024.089-.048.133-.071.04-.067.124-.143.114-.2-.016-.063-.109-.111-.169-.166-.059.065-.153.124-.166.198-.012.073.055.16.088.239"/><path fill-rule="evenodd" fill="#7b4022" d="m31.818 33.864c.142-.063.255-.115.367-.164.004-.025.004-.053.004-.078-.177 0-.355.018-.531-.004-.137-.019-.27-.084-.377-.166.679 0 1.354 0 2.02 0-.062.172-.135.204-.35.177-.167-.017-.335-.002-.506-.002.002.022.005.048.005.073.099.049.199.1.334.164-.34 0-.63 0-.968 0"/><path fill-rule="evenodd" fill="#fdd12e" d="m31.882 32.972c.276 0 .552 0 .828 0 0 .029 0 .059 0 .089-.276 0-.55 0-.828 0 0-.031 0-.06 0-.089"/><path fill-rule="evenodd" fill="#fdd12e" d="m31.521 30.979c-.111.078-.179.16-.24.156-.064-.005-.126-.089-.189-.142.062-.063.116-.158.189-.179.049-.014.127.083.24.165"/><path fill-rule="evenodd" fill="#fdd12e" d="m33.23 31.24c-.033-.079-.101-.166-.088-.239.013-.074.107-.133.166-.198.06.055.153.103.169.166.01.058-.074.133-.114.2-.044.023-.089.047-.133.071"/></g></g></switch></svg>