<svg xmlns="http://www.w3.org/2000/svg" viewBox="0 0 64 64" enable-background="new 0 0 64 64"><switch><g><path fill="#00785e" d="M22,54h32c6.627,0,10-4.925,10-11V33H22V54z"/><path fill="#f9cb38" d="m54 10h-32v23h42v-1-11c0-6.075-3.373-11-10-11"/><path fill="#ec1c24" d="M22,10H10C3.373,10,0,14.925,0,21v11v1v10c0,6.075,3.373,11,10,11h12V33V10z"/><path fill="#25333a" d="m19.06 29.357l-6.303.016-1.95-6.379-1.945 6.379-6.308-.016 5.109 3.883-1.976 6.334 5.124-3.936 5.132 3.936-1.982-6.334z"/></g></switch></svg>