<svg xmlns="http://www.w3.org/2000/svg" viewBox="0 0 64 64" enable-background="new 0 0 64 64"><switch><g><path fill="#fed100" d="m22 10h20v44h-20z"/><path fill="#2b3990" d="M10,10C3.373,10,0,14.925,0,21v22c0,6.075,3.373,11,10,11h12V10H10z"/><path fill="#cb0000" d="m54 10h-12v44h12c6.627 0 10-4.925 10-11v-22c0-6.075-3.373-11-10-11"/><g><path fill-rule="evenodd" d="m30.14 36.809c-.229.163-.402.385-.618.557-.493.393-.8.931-1.181 1.412-.1.129-.17.272-.231.422-.071.167-.002.27.124.359.129.091.343.107.385.26.034.133-.045.301-.078.453-.063.289-.063.291-.328.146-.141-.077-.336-.127-.404-.248-.067-.122.043-.306.073-.463.01-.045.017-.089-.007-.136-.096 0-.141.082-.203.133-.231.193-.33.186-.53-.051-.086-.104-.188-.201-.251-.316-.051-.096-.166-.023-.216-.129-.098-.211-.073-.484.114-.681.076-.079.121-.12.004-.21-.09-.068-.054-.176.013-.262.01-.086-.04-.059-.085-.045-.17.201-.304.432-.498.615-.114.105-.229.27-.369.27-.24 0-.239.2-.326.316-.25.33-.49.664-.843.926.131-.848.067-1.676.079-2.504.017-1.171.004-2.344.01-3.516 0-.133-.023-.197-.177-.233-.298-.071-.483-.3-.652-.544.086-.055.169-.063.262-.083-.042-.108-.157-.169-.183-.296.217-.035.426-.007.626.058.104.034.118.001.124-.092.007-.191-.089-.342-.166-.506-.084.028-.07.091-.075.146-.005.136-.071.224-.212.229-.098.003-.176-.055-.195-.156-.028-.143.06-.213.185-.253.035-.011.076-.012.106-.078-.502-.033-.707-.376-.844-.81.15-.039.277.04.468.063-.204-.268-.216-.547-.177-.853.225.091.391.235.559.404.075-.114.065-.259.151-.367.09.035.09.151.169.204.053-.063.025-.138.025-.202-.004-1.47-.004-2.94-.018-4.41-.002-.29.07-.548.218-.791.353-.586.829-1.055 1.384-1.453.099-.071.158-.034.236.02.413.285.758.646 1.13.977.021.018.037.042.058.053.295.134.311.368.229.638-.021.062-.03.127-.03.191-.004.155-.044.327.009.462.057.151.26.07.393.123.186.075.37.155.538.267.312.209.643.382.997.508.007.077-.06.079-.104.104-.152.022-.29-.022-.424-.086-.104-.093-.24-.118-.359-.18-.028-.017-.067-.05-.103-.012-.018.02-.01.049 0 .073.017.037.038.068.086.062.076-.01.149-.042.225 0 .025.016.042.038.048.067-.096.261-.406.456-.595.129-.068-.115-.135-.085-.219-.014-.235.213-.316.205-.522-.049-.058-.069-.109-.144-.163-.216-.055-.071-.087-.16-.19-.228-.148.355-.072.712-.083 1.085.109-.029.197-.123.303-.055.045.035.07.081.078.136-.008.278-.196.438-.396.586-.078.059-.171.031-.255-.022-.144-.09-.145-.085-.152.086-.002.045 0 .09 0 .136 0 2.169 0 4.338-.004 6.506 0 .232.077.459.013.703.042-.074.082-.146.148-.167.231-.078.265-.282.319-.472.037-.13.069-.264.115-.391.057-.16.115-.166.236-.035.028.071.02.146.024.221-.058.325-.165.637-.252.952-.015.059-.015.114-.005.173.011.08.033.12.136.109.167-.016.23.041.23.205-.002.365-.143.674-.407.902.058-.014.148-.032.211.023.111.104.154.041.211-.053.076-.127.162-.248.244-.371.072-.107.158-.207.109-.352-.004-.018-.001-.041.008-.058.141-.242.21-.528.441-.714.08-.018.135.016.182.078.063.169-.061.278-.132.42.062.041.147.061.183.143.024.057.072.066.129.061.09-.014.166.021.211.102.05.085.094.063.148.007.118-.118.219-.257.389-.312.102.024.218.034.166.194"/><path fill-rule="evenodd" d="m34.16 27.336c.345-.118.663-.28.968-.48.271-.179.556-.332.891-.348.109-.005.1-.076.104-.147.012-.294-.026-.582-.078-.869-.011-.061-.038-.125.033-.173.444-.306.785-.733 1.219-1.051.426-.314.277-.296.668-.002.478.36.88.798 1.183 1.321.127.224.186.458.186.72-.008 2.291-.008 4.581-.008 6.872 0 .069-.041.153.039.211.033-.013.051.006.07.031.041.109-.021.199-.064.29-.121.261-.262.512-.388.771.136-.098.118-.328.319-.368.03.013.049.03.03.063-.002.738-.01 1.475-.01 2.213 0 .912.003 1.824.008 2.737 0 .334-.031.672.126 1.019-.222-.104-.348-.261-.479-.406-.205-.227-.382-.473-.539-.734-.035-.057-.042-.146-.16-.08-.031.019-.127-.067-.191-.113-.257-.184-.442-.432-.625-.682-.049-.018-.059.004-.047.047-.019.127-.107.183-.242.215.157.145.281.303.293.512.01.155.026.299-.193.378-.133.048-.217.229-.314.358-.1.134-.206.24-.39.176-.091-.031-.082.063-.124.092-.071.046.005.074.03.098.062.063.045.111-.021.156-.15.102-.298.203-.447.309-.084.059-.098.013-.1-.063-.002-.154-.006-.31-.008-.465 0-.099-.015-.212.146-.164.044.012.059-.012.063-.049.005-.094.08-.119.117-.133-.569-1.098-1.348-2.033-2.3-2.828.01-.145.116-.145.22-.149.155.054.223.204.338.306.072.066.123.116.18-.013.022-.054.072-.108.132-.095.124.03.168-.063.25-.115.126-.083.119-.142.042-.246-.052-.074-.075-.162-.035-.256.054-.078.124-.1.211-.057.193.197.372.451.398.695.055.498.44.777.643 1.17.075.145.406.084.53-.027.174-.16.124-.301.042-.477-.308-.666-.53-1.361-.688-2.078-.008-.045-.031-.084-.041-.13.021-.138-.018-.29.105-.401.126.016.139.123.163.212.126.442.238.889.431 1.308.035.076.058.156.139.246 0-2.678 0-5.328 0-7.969-.073-.041-.098.011-.135.031-.108.064-.209.05-.301-.034-.117-.103-.229-.212-.332-.327-.068-.158-.047-.292.104-.392.092-.038.149.055.229.071.057-.294.001-.584.007-.873.005-.058-.003-.132-.067-.148-.066-.018-.088.061-.119.104-.097.139-.201.27-.313.394-.138.15-.227.154-.379.019-.171-.151-.171-.151-.322.001-.144.146-.222.157-.385.035-.093-.068-.204-.12-.247-.239.065-.147.184-.088.278-.058.126.042.18.011.184-.169-.157.147-.363.09-.498.227-.126.09-.265.123-.418.103-.046-.025-.112-.025-.111-.103"/><path fill-rule="evenodd" d="m30.893 40.35c-.287.438-.585.869-.899 1.287-.103.14-.178.182-.352.082-.44-.253-.905-.463-1.389-.678.654-.348 1.062-.907 1.45-1.479.509-.756.942-1.558 1.304-2.395.101-.093.178-.044.248.041.033.091.012.179-.025.263-.43.992-.911 1.959-1.553 2.837-.145.198-.296.394-.477.561-.103.093-.05.124.04.153.137.045.27.094.401.148.116.049.194.02.267-.076.629-.83 1.199-1.688 1.495-2.701.017-.055.031-.111.059-.164.026-.053.05-.113.124-.104.064.01.095.066.107.125.024.129.021.26.008.389-.115.98-.347 1.933-.775 2.83-.12.25-.121.25.124.381.309.165.603.355.876.573.081.065.148.091.236.011.285-.258.623-.443.954-.631.124-.07.142-.137.08-.263-.415-.856-.659-1.766-.788-2.708-.025-.172-.012-.348-.008-.523.004-.071.008-.16.09-.175.096-.019.126.073.153.144.096.234.161.478.255.712.301.769.779 1.428 1.266 2.085.083.113.178.151.316.085.15-.071.31-.128.5-.188-.21-.215-.396-.416-.556-.639-.494-.686-.906-1.417-1.259-2.184-.096-.21-.204-.419-.29-.635-.039-.096-.083-.191-.033-.299.057-.072.124-.125.222-.057.493 1.048 1.023 2.075 1.749 2.986.278.353.586.675 1.01.881-.096.088-.218.115-.324.169-.376.188-.756.366-1.125.562-.105.056-.149.039-.217-.047-.353-.447-.667-.92-1-1.422-.031.129.019.211.047.294.167.444.4.854.648 1.255.076.119.078.172-.055.246-.479.271-.938.571-1.346.947-.15.141-.285.297-.402.471-.442-.63-1.071-1.017-1.707-1.392-.156-.093-.181-.147-.08-.31.268-.434.531-.872.672-1.369.016-.037.038-.081-.036-.079"/><path fill-rule="evenodd" fill="#f4d302" d="m31.24 37.25c-.072-.034-.137-.1-.229-.08-.224-.179-.502-.248-.755-.373-.027-.015-.073.009-.109.015-.002-.128-.125-.098-.188-.145-.077.016-.152.024-.227-.012-.169-.087-.348-.158-.521-.236-.084-.04-.148-.098-.183-.186-.048-.033-.093-.071-.155-.076-.083.023-.153-.008-.221-.046-.22-.122-.424-.266-.603-.446-.093-.094-.169-.192-.183-.328-.008-.088-.012-.177-.02-.265-.091-.188-.074-.39-.074-.589 0-1.879.004-3.757-.007-5.634-.003-.23.072-.446.069-.671-.026-.058-.048-.116-.072-.174-.043-.01-.095-.008-.128-.041-.074-.078-.181-.162-.157-.271.027-.127.166-.087.266-.098.252-.027.51.004.76.014.466.019.932-.066 1.392.013.729-.001 1.461-.027 2.19-.024.665.003 1.332.011 1.995.024.097.002.194.004.292-.011.237-.019.477-.048.711.025.068.022.127-.003.188-.022.055-.018.115-.023.174-.018.3.032.601.001.901.001.092 0 .22-.023.25.093.029.112-.055.206-.149.271-.026.02-.058.025-.091.032-.092.096-.116.212-.095.34.065.13.081.268.078.413 0 1.934 0 3.867-.002 5.801 0 .125.039.264-.079.365-.014.141-.025.282-.041.423-.004.136-.061.245-.163.334-.244.216-.488.429-.811.521-.077-.053-.12.018-.174.045-.099.191-.306.221-.472.313-.139.076-.281.165-.455.12-.077.029-.156.047-.22.105-.299.097-.578.244-.856.389-.079.008-.141.049-.205.086-.025.068-.07.121-.135.156-.185.105-.354.232-.506.381-.137.138-.212.135-.34.002-.131-.133-.281-.243-.442-.342-.076-.048-.169-.089-.198-.194"/><path fill-rule="evenodd" d="m30.11 27.405c.576-.371.765-.954.848-1.583.06-.443.088-.889-.031-1.329-.105-.379-.355-.616-.716-.758-.097-.038-.125-.02-.124.084 0 .142-.005.283-.01.425.023.046-.005.057-.043.06-.08-.045-.078-.122-.078-.199 0-.127-.005-.254 0-.38.004-.083-.021-.148-.078-.204-.01-.022-.014-.045-.016-.067.084-.228.101-.462.098-.702-.004-.122.072-.196.198-.184.129.013.276-.061.379.078.014.042.009.071-.047.061-.018-.001-.039-.001-.058-.001-.391-.013-.391-.013-.322.404.148-.074.305-.092.467-.096.098-.002.2-.023.244-.129.081-.202.256-.24.443-.254.362-.028.723.013 1.066.153.43.174.844.386 1.324.512-.063.024-.097.037-.13.049-.194.078-.194.084-.027.222.074.06.157.112.19.222-.025.008-.049.022-.071.024-.138.008-.188.055-.098.185.026.041.036.097.042.149.011.07.012.141.018.22-.099.004-.138-.103-.238-.096.008.099.012.199.02.299.007.104.011.215-.051.301-.303.421-.222.875-.113 1.326.119.495.335.938.8 1.211 0 0 .018 0 .028-.001.117.042.26.048.298.208-.009.027-.026.042-.057.041-.38-.013-.769.004-1.094-.268.017.053.048.087.059.131.022.096.006.149-.112.137-.26-.028-.516-.067-.709-.267-.076-.077-.124-.079-.194.018-.132.184-.207.184-.34.008-.067-.084-.112-.082-.188-.021-.201.163-.426.265-.695.244-.04-.002-.072-.016-.092-.053-.028-.055 0-.11.003-.185-.311.25-.675.236-1.032.258-.039-.008-.098.023-.114-.038-.012-.049.024-.088.062-.11.064-.04.131-.077.207-.095.027-.008.056-.01.084-.01"/><path fill-rule="evenodd" fill="#080600" d="m40.649 31.683c-.039.038-.108.049-.044.139.255.354.251.359-.11.617-.185.129-.33.288-.366.523-.03.008-.052-.008-.07-.03-.061-.185.027-.326.146-.449.1-.103.215-.184.329-.266.101-.072.103-.136.006-.209-.034-.038-.087-.048-.13-.073-.078-.079-.19-.055-.283-.09-.026-.01-.047-.025-.068-.042-.091-.083-.124-.025-.133.06-.011.115 0 .231-.004.347-.013.253-.118.417-.305.472-.016-.006-.03-.017-.04-.034.169-.177.191-.397.184-.627-.005-.083-.005-.167-.015-.25-.017-.129.045-.175.166-.168.031.002.063 0 .096 0 .136-.003.314.065.288-.189-.002-.014.036-.033.054-.049.016-.004.033-.007.051-.008.055.098.061.237.21.258.022.016.035.04.038.068"/><path fill-rule="evenodd" fill="#0c0b00" d="m39.577 32.646c.018.002.034.003.053.005.04.051.091.003.136.016.023.007.043.021.059.039.029.031.053.027.073-.008.03-.049.062-.095.125-.104.029.003.05.018.063.042.039.094-.113.192.01.284.01.014.021.026.033.042-.168.063-.189.276-.352.349-.017.011-.031.011-.045-.004-.064-.066.053-.186-.04-.216-.072-.024-.081.111-.148.146-.019.009-.036.017-.055.02-.019 0-.034-.008-.048-.02.044-.198.091-.394.136-.591"/><path fill-rule="evenodd" fill="#1a1600" d="m30.489 22.708c.016-.012.032-.024.047-.036.001-.04.106-.113-.031-.107-.109.004-.219.001-.329.003-.059 0-.116-.001-.161-.047-.126-.124-.067-.547.091-.648.03.004.056.017.042.056-.073.158-.1.332-.021.481.049.096.418-.009.559-.148.109.205.107.405.003.609-.071-.06-.135-.112-.2-.163"/><path fill-rule="evenodd" fill="#060500" d="m40.649 31.683c-.017-.011-.032-.022-.048-.032-.014-.128-.109-.2-.191-.281-.021-.002-.041-.004-.061-.007.031-.285.287-.351.486-.512.025.317.047.602-.186.832"/><path fill-rule="evenodd" fill="#0e0c00" d="m29.911 23.469c.001.018.003.037.006.055.039.263.104.526-.04.779-.098-.024-.058-.103-.058-.158-.004-.417-.003-.836-.004-1.253 0-.062.022-.129-.022-.187-.152.006-.309-.025-.455.041-.056.002-.059-.029-.047-.071.109-.103.464-.152.576-.08.068.043.088.111.086.185 0 .181.014.362-.039.54-.014.047-.033.097-.003.149"/><path fill-rule="evenodd" fill="#252000" d="m29.341 22.388c.426.124.464.095.462-.348.02-.04.047-.057.088-.032.112.144.063.303.038.458-.003.03-.03.053-.058.071-.117.077-.485.026-.583-.081-.009-.041-.005-.073.053-.068"/><path fill-rule="evenodd" fill="#322a00" d="m29.793 22.705c.068.055.045.131.045.199.003.394 0 .789.003 1.184 0 .069-.015.143.028.207.066.109.002.153-.09.183-.024-.002-.042-.011-.059-.026.046-.063.082-.126.082-.209-.004-.514-.004-1.026-.009-1.538"/><path fill-rule="evenodd" fill="#241e00" d="m39.732 33.31c.014.001.03.003.045.003-.151.289-.3.578-.45.867-.013-.016-.026-.031-.036-.048-.058-.202.238-.751.441-.822"/><path fill-rule="evenodd" fill="#272000" d="m29.341 22.388c-.017.012-.031.023-.048.035-.005.096-.005.192.002.289.015.011.029.021.043.033-.037.042-.072.083-.111.128-.124-.212-.124-.389-.002-.607.039.042.076.082.116.122"/><path fill-rule="evenodd" fill="#201b00" d="m29.846 21.987c-.014.018-.029.037-.043.054-.021-.084-.093-.134-.162-.212.162-.09.326-.082.489-.055.039.007.102.012.108.063.005.049-.055.063-.091.09-.009-.014-.021-.027-.034-.041-.092.021-.194.027-.267.101"/><path fill-rule="evenodd" fill="#221c00" d="m29.721 24.451c.02.002.039.004.061.007.104.033.206.091.324.045.025.011.047.025.041.059-.064.078-.129.155-.203.245-.072-.104-.13-.216-.248-.279-.057-.031-.003-.056.025-.077"/><path fill-rule="evenodd" fill="#3b2e0b" d="m30.11 27.405c-.013.012-.024.025-.04.037-.088-.034-.22.099-.274-.071.039-.014.079-.026.117-.039.071.013.141.026.197.073"/><path fill-rule="evenodd" fill="#050400" d="m39.441 33.24c.014 0 .027 0 .043 0 .055.102.041.174-.086.193-.014-.014-.025-.027-.039-.04.016-.057.037-.112.082-.153"/><path fill-rule="evenodd" fill="#020200" d="m30.04 24.295c.014-.017.027-.034.039-.05.029.067.037.146.093.202-.017.017-.035.028-.06.028-.097-.031-.136-.083-.072-.18"/><path fill-rule="evenodd" fill="#3c3200" d="m30.11 24.45c.019-.001.038-.002.057-.003.089.061.089.061-.022.115-.017-.012-.031-.024-.047-.037-.015-.029-.014-.054.012-.075"/><path fill-rule="evenodd" fill="#3a2e09" d="m34.16 27.336c.04.013.079.025.118.038-.076.157-.184.048-.281.031l.003.002c.036-.059.105-.05.16-.071"/><path fill-rule="evenodd" fill="#997e00" d="m26.723 38.01c.052-.039.106-.032.17-.032-.014.052-.054.06-.085.077-.014-.037-.057-.032-.085-.045"/><path fill-rule="evenodd" fill="#b89800" d="m37.41 38.18c-.023-.044-.048-.088-.025-.141.045.016.06.052.072.094-.017.015-.031.031-.047.047"/><path fill-rule="evenodd" fill="#ad8f00" d="m30.893 40.35c.01-.027.033-.076.051-.06.047.042.02.095-.014.14-.012-.028-.026-.053-.037-.08"/><path fill-rule="evenodd" fill="#af7e55" d="m27.832 28.18c.052.098.012.203.012.303.004 2.05.004 4.099 0 6.148 0 .147.03.297 0 .443-.025-.026-.042-.103-.07.003-.079.287-.161.572-.249.856-.017.052-.007.19-.13.062-.047-.049-.078.025-.102.053-.095.104-.181.215-.269.324 0-2.646 0-5.285 0-7.958.098.087.18.163.265.236.033.028.055.078.109.066.1-.019.421-.421.434-.536"/><path fill-rule="evenodd" fill="#af7e54" d="m26.61 34.455c-.018-.07-.031-.125-.045-.182-.089-.306-.089-.306-.324-.132-.259-.167-.201-.425-.201-.667-.001-1.606-.001-3.213-.001-4.818 0-.07 0-.141 0-.239.13.052.2.146.276.224.073.075.128.086.202.002.072-.081.157-.15.238-.225.066.059.041.121.041.175 0 1.852 0 3.705.004 5.556.001.144-.042.238-.19.306"/><path fill-rule="evenodd" fill="#af7e55" d="m25.11 28.431c.118.099.222.252.337.265.121.013.205-.174.321-.255.007-.006.021-.003.048-.007 0 1.376 0 2.749 0 4.116-.108-.163-.108-.163-.347.067-.091-.214-.124-.459-.362-.58-.036-.019-.027-.069-.027-.108 0-1.151 0-2.303.003-3.454 0-.011.013-.021.027-.044"/><path fill-rule="evenodd" fill="#af7e55" d="m26.518 26.2c-.121-.184-.233-.342-.334-.507-.085-.135-.059-.271.018-.401.019-.032.078-.071.002-.108-.051-.025-.086-.002-.111.043-.021.045-.064.092-.064.139 0 .288-.239.409-.395.591-.049.059-.082.042-.111-.021-.045-.106-.096-.211-.146-.316-.033-.065-.003-.111.035-.158.276-.354.603-.655.955-.932.064-.05.109-.046.169.006.338.292.661.6 1.052.824.063.037.063.094.063.152.005.272.005.544.01.815 0 .138-.059.122-.14.062-.185-.139-.325-.315-.454-.502-.059-.087-.035-.185 0-.278.018-.04.084-.089-.009-.119-.085-.027-.114.049-.118.094-.028.276-.258.402-.422.616"/><path fill-rule="evenodd" fill="#af7e55" d="m25.608 36.85c.011.115.076.189.126.27.152.246.148.262-.102.375.037.109.206.115.199.264-.011.237.026.477-.109.698-.168.269-.343.524-.598.721-.059-.053-.041-.107-.041-.155-.001-1.028 0-2.057-.003-3.084 0-.158.027-.201.174-.107.122.078.267.107.41.09.144-.016.174.047.169.176-.012.176-.014.351 0 .524.016.168-.013.277-.225.228"/><path fill-rule="evenodd" fill="#fed100" d="m27.863 35.33c.266.36.63.598 1.01.82-.119.26-.263.503-.419.744.031.063.129-.005.136.057.004.041-.043.092-.068.133-.188.277-.377.555-.567.835-.081-.242-.165-.278-.381-.168-.062.031-.124.078-.209.026.017-.069.082-.088.131-.121.311-.223.472-.521.474-.905.002-.2-.01-.209-.188-.132-.046.018-.094.041-.144.063-.138-.493.143-.907.229-1.352"/><path fill-rule="evenodd" fill="#d00429" d="m27.644 38.895c.038-.175.186-.243.22-.4-.283.074-.574.042-.817.219-.043.031-.092.055-.136-.004-.038-.057-.012-.104.027-.137.178-.153.358-.305.62-.254.216.043.359-.031.477-.23.202-.352.436-.687.659-1.025.037-.059.062-.129.136-.156.061.021.045.076.052.113.021.169.082.223.225.093.104-.097.135-.034.147.072.011.083-.043.132-.082.188-.298.407-.597.813-.897 1.218-.104.142-.203.282-.253.454-.008.033-.003.09-.056.088-.064 0-.098-.06-.093-.105.011-.164-.047-.219-.229-.134"/><path fill-rule="evenodd" fill="#ae7e54" d="m29.795 27.371c.082.065.195-.002.274.071-.095.058-.189.116-.303.183.049.009.08.014.11.019 0 .01 0 .018 0 .027-.786 0-1.57 0-2.381 0 .1.126.182.229.264.331-.095.076-.188.152-.285.229-.103-.415-.032-1.182.139-1.418.16.231.304.465.489.669.089.094.162.181.248 0 .017-.034.051-.059.078-.085.188-.174.188-.173.319.035.133.213.153.217.34.066.053-.044.112-.088.165-.131.017-.043.038-.083.093-.083.01 0 .017 0 .026-.001.144.029.284.059.424.088"/><path fill-rule="evenodd" fill="#af7e54" d="m29.02 36.23c.31.145.62.289.931.434-.139.146-.273.291-.412.434-.033.034-.107.114-.12.01-.034-.266-.148-.285-.364-.109.006-.253-.07-.371-.354-.227.139-.211.26-.361.319-.542"/><path fill-rule="evenodd" fill="#ad7d53" d="m25.08 27.09c.046-.447-.072-.865.095-1.283.348.465.32.973-.095 1.283"/><path fill-rule="evenodd" fill="#ab7c53" d="m26.01 25.924c.473.546.475.939 0 1.197 0-.395 0-.784 0-1.197"/><path fill-rule="evenodd" fill="#097553" d="m26.998 37.467c-.338.148-.91-.029-1.084-.332-.068-.119.027-.097.084-.097.324-.003.608.099.853.312.05.043.101.081.149.121l-.002-.004"/><path fill-rule="evenodd" fill="#097553" d="m27.24 37.22c-.246-.348-.229-.652.025-.945.071-.086.109-.072.143.022.082.249.198.501-.058.728-.048.042-.07.119-.11.195"/><path fill-rule="evenodd" fill="#af7e54" d="m25.872 27.12c-.48-.229-.495-.802 0-1.112 0 .194 0 .371 0 .548 0 .182 0 .362 0 .564"/><path fill-rule="evenodd" fill="#ad7d54" d="m26.971 27.18c0-.366 0-.705 0-1.083.161.205.285.407.478.544.053.037.007.083-.021.116-.127.153-.251.309-.457.423"/><path fill-rule="evenodd" fill="#ac7c53" d="m26.744 37.09c-.205-.068-.396-.129-.592-.169-.104-.021-.176-.253-.092-.288.19-.076.227-.226.235-.403.02-.001.036-.003.053-.003.132.288.262.575.396.863"/><path fill-rule="evenodd" fill="#ac7c53" d="m26.824 27.12c-.437-.251-.498-.632 0-.969 0 .325 0 .639 0 .969"/><path fill-rule="evenodd" fill="#097553" d="m26.735 34.596c.094.349.082.65-.137.918-.024.032-.053.082-.102.072-.056-.009-.049-.07-.061-.109-.078-.339.04-.616.3-.881"/><path fill-rule="evenodd" fill="#eece02" d="m27 37.471c-.178-.4-.356-.799-.53-1.201-.049-.117-.085-.24-.134-.383.145.102.967 1.865 1.01 2.141-.179-.168-.216-.393-.346-.561l.002.004"/><path fill-rule="evenodd" fill="#ae7d54" d="m28.762 26.968c-.178.13-.375.208-.509.366-.031.035-.059.017-.081-.009-.02-.019-.035-.04-.048-.062-.066-.13-.21-.299-.147-.395.074-.111.283-.055.436-.034.114.015.231.055.349.134"/><path fill-rule="evenodd" fill="#af7e54" d="m25.529 28.23c-.005-.035-.01-.064-.01-.094 0-.282 0-.563 0-.852.461.234.51.669.01.946"/><path fill-rule="evenodd" fill="#ae7d54" d="m26.497 28.25c0-.334 0-.641 0-.948.457.196.47.562 0 .948"/><path fill-rule="evenodd" fill="#a87951" d="m25.387 27.27c0 .334 0 .641 0 .979-.13-.106-.283-.159-.303-.334-.04-.362-.004-.437.303-.645"/><path fill-rule="evenodd" fill="#ad7d54" d="m26.339 27.27c0 .324 0 .629 0 .94-.412-.205-.53-.606 0-.94"/><path fill-rule="evenodd" fill="#097553" d="m25.66 32.72c.215.368.184.663-.089.944-.194-.246-.161-.625.089-.944"/><path fill-rule="evenodd" fill="#ae7d54" d="m25.501 34.37c.109.239.219.479.351.768-.248-.145-.458-.205-.689-.18-.112.012-.078-.083-.075-.136 0-.046-.034-.147.055-.13.273.059.301-.115.312-.314.015-.002.029-.006.046-.008"/><path fill-rule="evenodd" fill="#f1d002" d="m28.467 39.947c-.003.012-.007.025-.012.037-.074.374-.07.365-.4.186-.138-.074-.09-.164-.068-.258.062-.292.066-.294.326-.145.068.04.19.046.154.18"/><path fill-rule="evenodd" fill="#ae7e54" d="m27.306 27.311c0 .301 0 .601 0 .949-.146-.169-.341-.231-.352-.488-.011-.262.241-.297.311-.48.012.006.028.013.041.019"/><path fill-rule="evenodd" fill="#097552" d="m26.09 35.742c-.375.162-.684.121-.922-.113.309-.17.619-.135.922.113"/><path fill-rule="evenodd" fill="#097553" d="m25.941 37.547c.318-.016.59-.018.848.115.045.023.107.048.107.103-.004.063-.079.061-.124.073-.317.08-.583-.003-.831-.291"/><path fill-rule="evenodd" fill="#097653" d="m26.296 35.19c-.267-.244-.25-.666.013-.861.057-.04.083-.023.104.025.063.149.091.303.009.449-.068.118-.131.235-.126.387"/><path fill-rule="evenodd" fill="#097452" d="m25.947 35.494c-.132-.053-.267-.093-.413-.084-.119.007-.325-.178-.348-.292-.023-.114.067-.091.122-.089.302.018.513.188.684.418.009.038-.003.058-.045.047"/><path fill-rule="evenodd" fill="#097452" d="m27.826 36.721c-.025.309-.053.563-.297.727-.042.027-.093.06-.141.031-.055-.03-.04-.094-.033-.141.029-.278.214-.438.471-.617"/><path fill-rule="evenodd" fill="#097452" d="m24.408 31.551c.02.144-.045.111-.109.08-.191-.093-.324-.352-.298-.564.015-.11.069-.085.134-.051.219.122.268.33.273.535"/><path fill-rule="evenodd" fill="#a67850" d="m26.501 38.01c-.155.146-.293.274-.461.433 0-.199-.003-.379.003-.559.001-.082.062-.039.096-.025.112.044.224.093.362.151"/><path fill-rule="evenodd" fill="#097452" d="m23.797 31.667c.275.019.467.104.563.334.018.039.054.084.017.124-.033.04-.084.025-.128.011-.22-.074-.336-.246-.452-.469"/><path fill-rule="evenodd" fill="#097351" d="m25.01 33.794c-.409.017-.576-.055-.728-.299.276-.067.571.05.728.299"/><path fill-rule="evenodd" fill="#097251" d="m24.978 33.407c-.314-.007-.569-.088-.753-.331.244-.086.545.041.753.331"/><path fill-rule="evenodd" fill="#097452" d="m24.688 31.874c-.165-.248-.186-.537-.058-.79.197.197.218.464.058.79"/><path fill-rule="evenodd" fill="#a97a52" d="m29.21 27.324c-.03.008-.063.012-.093.023-.248.1-.254.097-.297-.169-.012-.056-.02-.112-.031-.206.212.109.413.176.581.312l.001.004c-.047.039-.109.017-.161.036"/><path fill-rule="evenodd" fill="#ebcb02" d="m25.629 34.27c.198.368.405.733.54 1.134-.025.012-.05.025-.075.036-.18-.376-.357-.753-.538-1.13.026-.014.049-.028.073-.04"/><path fill-rule="evenodd" fill="#c90428" d="m27.67 39.23c.066.02.119.07.073.137-.085.128-.209.226-.34.301-.069.039-.122-.015-.129-.092-.004-.066.322-.349.396-.346"/><path fill-rule="evenodd" fill="#c50427" d="m27.434 39.03c.162.03.186.104.063.217-.072.065-.146.131-.222.189-.124.095-.188.055-.194-.097.056-.17.17-.279.353-.309"/><path fill-rule="evenodd" fill="#cc0428" d="m27.03 39.29c-.146-.041-.153-.119-.055-.219.068-.067.143-.128.219-.188.124-.096.17-.07.195.101-.097.128-.195.255-.359.306"/><path fill-rule="evenodd" fill="#097250" d="m25.309 33.21c-.157-.271-.188-.496-.043-.761.159.249.123.479.043.761"/><path fill-rule="evenodd" fill="#ac7c53" d="m25.08 34.13c.009-.112-.044-.261.126-.253.149.006.172.174.178.271.011.127-.146.165-.242.165-.132-.002-.022-.133-.062-.183"/><path fill-rule="evenodd" fill="#ebcb02" d="m24.763 32.514c.11.008.132.076.159.128.101.2.201.403.298.604.013.027.026.064-.002.089-.033.028-.064.006-.081-.022-.155-.247-.277-.509-.374-.799"/><path fill-rule="evenodd" fill="#a0734d" d="m26.786 35.511c.021.235-.036.335-.197.362-.046.008-.092.011-.114-.044-.02-.048.022-.065.05-.09.081-.071.163-.142.261-.228"/><path fill-rule="evenodd" fill="#a2754e" d="m25.832 33.629c0 .132 0 .215 0 .299 0 .062-.011.114-.086.127-.049.01-.083-.003-.109-.051-.026-.056-.038-.104.011-.155.055-.058.105-.124.184-.22"/><path fill-rule="evenodd" fill="#a0744d" d="m26.04 36.04c.006-.069-.021-.155.088-.163.1-.008.12.084.123.142.008.096-.082.153-.161.155-.089.004-.03-.09-.05-.134"/><path fill-rule="evenodd" fill="#9b704b" d="m26.574 36.05c.237.071.25.225.215.42-.105-.123-.141-.264-.215-.42"/><path fill-rule="evenodd" fill="#a77851" d="m25.1 35.19c.087.095.148.164.225.247-.084.018-.171.096-.214.053-.064-.067-.03-.177-.011-.3"/><path fill-rule="evenodd" fill="#e9c000" d="m27.826 38.09c-.189.161-.292.122-.347-.122.104.076.199.149.347.122"/><path fill-rule="evenodd" fill="#200106" d="m27.03 39.29c.119-.102.239-.204.359-.306.015.015.028.029.045.044-.12.104-.235.207-.354.31-.016-.017-.032-.032-.05-.048"/><path fill-rule="evenodd" fill="#ba0424" d="m27.02 38.893c.005-.102.058-.148.167-.17-.019.113-.096.14-.167.17"/><path fill-rule="evenodd" fill="#e1b900" d="m27.17 38.27c-.014-.097-.033-.157 0-.238.033.079.111.135 0 .238"/><path fill-rule="evenodd" fill="#745438" d="m25.763 34.26c.073.024.076.06.062.109-.046-.018-.052-.053-.062-.109"/><path fill-rule="evenodd" fill="#06543b" d="m25.947 35.494c.015-.016.031-.032.045-.047.03.022.081.051.048.086-.024.028-.065-.012-.093-.039"/><path fill-rule="evenodd" fill="#302317" d="m29.21 27.324c.046-.043.104-.034.161-.037-.039.027-.078.053-.12.08-.015-.014-.026-.029-.041-.043"/><path fill-rule="evenodd" fill="#af7f55" d="m36.26 34.908c-.002-1.158-.007-2.316-.007-3.475 0-1.035.005-2.069.01-3.104.015.01.033.02.045.032.124.114.231.282.376.328.152.048.222-.196.385-.26 0 2.831 0 5.65 0 8.489-.145-.101-.201-.245-.266-.378-.209-.445-.338-.921-.471-1.394-.019-.08-.048-.158-.072-.238"/><path fill-rule="evenodd" fill="#af7f55" d="m37.539 36.969c-.062.066-.129.123-.23.163 0-2.901 0-5.795 0-8.701.083.018.136.08.179.136.131.175.247.153.371-.007.039-.05.093-.088.141-.13.066.025.042.079.042.118.001 2.441.001 4.88 0 7.322 0 .051-.006.103-.012.154-.007.062.003.124-.028.186-.114.229-.25.445-.361.675-.023.04-.057.066-.102.084"/><path fill-rule="evenodd" fill="#af7e55" d="m38.27 35.25c-.002-.051-.009-.102-.009-.153 0-2.169 0-4.338 0-6.506 0-.051.004-.101.009-.193.104.096.194.167.271.249.07.074.12.068.187-.003.074-.08.158-.149.239-.222.063.048.037.104.037.151.002 1.787 0 3.573.005 5.361 0 .236-.146.409-.24.603-.107.216-.326.368-.362.629-.005.034-.066.059-.1.086-.012.025-.024.025-.037-.002"/><path fill-rule="evenodd" fill="#fed100" d="m35.24 36.19c.092-.153.265-.195.398-.289.227-.156.429-.332.575-.565.143.468.285.936.432 1.401.112.35.265.685.422 1.016.043.084.066.131-.058.16-.148.036-.157.166-.137.314-.12-.05-.219-.072-.32-.05-.188.044-.295-.035-.396-.192-.211-.346-.442-.682-.678-1.037.057-.01.105-.02.162-.03-.144-.242-.299-.471-.4-.728"/><path fill-rule="evenodd" fill="#af7e55" d="m38.542 35.722c.147-.136.214-.331.35-.472.083-.083-.017-.205.101-.297 0 1.42 0 2.816 0 4.219-.057.021-.086-.034-.118-.066-.385-.377-.675-.783-.62-1.375.045-.495.019-.996.023-1.494.013-.21.09-.387.264-.515"/><path fill-rule="evenodd" fill="#af7e55" d="m38.516 26.03c-.167-.233-.459-.341-.455-.666 0-.041-.034-.083-.055-.122-.027-.046-.053-.095-.119-.06-.086.045-.012.087.01.122.088.157.088.306-.029.45-.014.015-.021.033-.033.047-.097.117-.139.276-.277.36-.137-.164-.36-.262-.383-.512-.004-.049-.039-.095-.063-.139-.026-.046-.067-.031-.105-.014-.045.021-.02.053-.003.077.115.178.034.316-.083.453-.111.127-.215.26-.352.359-.068.048-.133.083-.131-.05.002-.285.007-.57.004-.854-.002-.066.024-.104.082-.139.367-.214.678-.498.99-.777.09-.082.15-.089.245-.011.313.254.6.53.866.833.1.116.121.212.038.341-.055.085-.089.183-.147.302"/><path fill-rule="evenodd" fill="#d00429" d="m34.877 37.05c.044.026.077.046.108.067.175.116.177.114.219-.097.006-.039-.019-.103.05-.107.051-.002.074.046.099.083.239.369.487.732.711 1.11.112.184.245.258.447.215.253-.053.434.081.609.227.053.043.101.098.05.166-.052.07-.109.02-.15-.012-.236-.172-.525-.115-.799-.221.027.164.17.238.219.366-.081.077-.144-.028-.214-.01-.033.099.043.271-.083.289-.124.019-.079-.17-.141-.251-.063-.083-.112-.174-.174-.257-.301-.413-.6-.827-.907-1.234-.079-.104-.112-.198-.044-.334"/><path fill-rule="evenodd" fill="#af7e54" d="m33.992 27.405c.096 0 .193.018.281-.031.141-.029.281-.058.421-.087.024.003.034.024.05.037.104.042.197.107.268.189.138.165.215.074.308-.046.052-.067.054-.208.151-.199.096.008.188.1.238.185.109.192.19.132.301 0 .166-.196.307-.413.46-.636.106.121.177.237.173.401-.01.334-.004.669-.046 1.033-.082-.087-.161-.174-.243-.262.037-.121.158-.179.231-.317-.75 0-1.476 0-2.202 0-.023-.024-.054-.044-.074-.072-.121-.042-.226-.106-.317-.195"/><path fill-rule="evenodd" fill="#f3d202" d="m38.24 36.19c-.148.287-.293.576-.443.859-.056.103-.06.209-.059.32.004.143-.003.288-.109.4-.093.102-.205.16-.344.094-.145-.068-.181-.19-.154-.34.024-.137.113-.227.216-.308.081-.062.187-.099.229-.202.104-.346.303-.641.487-.946.071-.144.146-.286.222-.429.026-.051.055-.111.123-.102.079.01.102.069.094.143-.063.184-.139.361-.262.511"/><path fill-rule="evenodd" fill="#af7e54" d="m34.14 36.664c.309-.145.618-.289.927-.434.056.18.17.328.279.48-.066.035-.12.015-.171-.004-.078-.027-.119.003-.119.074-.002.261-.13.16-.25.092-.01-.007-.022-.01-.043-.018-.081.085-.055.219-.135.322-.177-.155-.339-.326-.488-.512"/><path fill-rule="evenodd" fill="#f1d002" d="m39.4 33.43c.048-.055.076-.119.086-.193.023-.051.049-.102.069-.156.023-.063.045-.123.126-.124.062-.001.116.019.147.077.038.069.004.122-.036.177-.022.031-.04.065-.059.098-.183.256-.308.542-.441.822-.072.138-.14.276-.215.413-.035.065-.065.155-.172.096-.092-.053-.044-.122-.013-.186.157-.311.316-.621.474-.934.016-.028.023-.06.034-.09"/><path fill-rule="evenodd" fill="#ae7e54" d="m38.02 38.442c-.17-.173-.32-.326-.477-.487.241-.16.295-.4.274-.672-.015-.187.106-.325.202-.527.001.585.001 1.12.001 1.686"/><path fill-rule="evenodd" fill="#ae7e54" d="m38.906 25.839c.111.2.152.776.08 1.226-.384-.235-.425-.833-.08-1.226"/><path fill-rule="evenodd" fill="#ae7e54" d="m38.09 27.13c-.556-.342-.406-.756-.022-1.171.03.022.021.057.021.085.001.353.001.706.001 1.086"/><path fill-rule="evenodd" fill="#ad7d54" d="m38.23 27.13c0-.378 0-.734 0-1.096.416.232.537.77 0 1.096"/><path fill-rule="evenodd" fill="#ae7e54" d="m37.11 26.11c0 .381 0 .712 0 1.063-.217-.105-.341-.275-.473-.438-.035-.046-.025-.076.02-.11.174-.126.291-.306.453-.515"/><path fill-rule="evenodd" fill="#aa7b52" d="m36.78 27.28c.48.468.48.607 0 .958 0-.319 0-.629 0-.958"/><path fill-rule="evenodd" fill="#ab7c53" d="m38.57 27.25c0 .345 0 .652 0 1.013-.141-.157-.314-.216-.355-.417-.059-.295.137-.429.355-.596"/><path fill-rule="evenodd" fill="#ad7d54" d="m35.32 26.97c.237-.144.474-.164.715-.147.087.006.119.036.079.121-.006.011-.01.024-.015.036-.05.118-.078.274-.182.334-.141.082-.185-.125-.298-.166-.1-.036-.187-.109-.299-.178"/><path fill-rule="evenodd" fill="#ad7d53" d="m37.743 27.27c.502.305.444.706 0 .958 0-.316 0-.627 0-.958"/><path fill-rule="evenodd" fill="#ad7d54" d="m37.59 28.23c-.417-.231-.518-.626 0-.955 0 .326 0 .639 0 .955"/><path fill-rule="evenodd" fill="#ae7e54" d="m37.26 27.14c0-.337 0-.643 0-.95.457.196.466.563 0 .95"/><path fill-rule="evenodd" fill="#af7e54" d="m38.699 27.27c.441.206.414.791.014.956-.007-.018-.014-.035-.014-.051 0-.296 0-.592 0-.905"/><path fill-rule="evenodd" fill="#edcd02" d="m35.981 40.38c0-.165.001-.293-.003-.42-.001-.081.035-.107.106-.088.062.017.124.035.177.066.158.092.158.132.009.236-.082.061-.168.12-.289.206"/><path fill-rule="evenodd" fill="#ac7c53" d="m34.744 27.324c-.016-.012-.033-.024-.05-.037.174-.122.372-.201.563-.293.045.068.02.132.011.191-.04.243-.062.251-.294.167-.07-.025-.144-.097-.23-.028"/><path fill-rule="evenodd" fill="#c40426" d="m37.18 39.19c-.017.071-.068.132-.145.08-.117-.078-.225-.174-.318-.277-.065-.07-.016-.135.066-.153.067-.018.394.268.397.35"/><path fill-rule="evenodd" fill="#c50427" d="m37 39.39c-.015.065-.063.127-.13.082-.122-.082-.233-.182-.335-.287-.055-.058-.014-.125.058-.148.071-.023.409.269.407.353"/><path fill-rule="evenodd" fill="#cb0428" d="m36.428 39.23c.062-.002.381.276.385.337.003.043-.018.074-.052.098-.038.024-.076.019-.106-.008-.098-.084-.198-.17-.293-.256-.033-.027-.041-.066-.024-.106.016-.038.049-.058.09-.065"/><path fill-rule="evenodd" fill="#eece02" d="m36.94 38.14c0-.106.048-.161.141-.164.124-.006.216.052.232.18.017.106-.064.154-.157.152-.112-.004-.193-.062-.216-.168"/><path fill-rule="evenodd" fill="#eece02" d="m38.863 35.13c-.004.089-.058.122-.129.116-.114-.009-.217-.057-.239-.182-.015-.091.054-.129.135-.12.114.014.204.067.233.186"/><path fill-rule="evenodd" fill="#1b1606" d="m38.06 36.07c-.154.319-.307.64-.487.946-.013-.016-.025-.031-.039-.047.156-.319.308-.642.49-.946.012.016.025.032.036.047"/><path fill-rule="evenodd" fill="#e6c702" d="m38.689 35.412c-.004.073-.054.09-.107.086-.096-.006-.18-.042-.197-.148-.01-.066.046-.09.102-.084.095.007.169.052.202.146"/><path fill-rule="evenodd" fill="#e5c602" d="m38.973 34.826c.017.099-.066.1-.098.102-.094.002-.176-.043-.2-.144-.017-.068.043-.086.098-.085.097.002.171.045.2.127"/><path fill-rule="evenodd" fill="#211b04" d="m38.24 36.19c.085-.17.174-.34.262-.51.012.014.024.027.038.04-.071.181-.157.353-.265.515-.011-.014-.023-.03-.035-.045"/><path fill-rule="evenodd" fill="#e0c202" d="m36.433 39.785c.007.059-.031.076-.071.076-.081 0-.15-.033-.186-.111-.021-.047.012-.076.057-.078.09-.004.158.035.2.113"/><path fill-rule="evenodd" fill="#a60320" d="m36.961 38.729c.042.039.12.059.121.141.003.025-.028.044-.055.025-.055-.033-.111-.063-.123-.13-.008-.027.016-.045.057-.036"/><path fill-rule="evenodd" fill="#a3764e" d="m38.27 35.25c.013 0 .024 0 .036 0 0 .068 0 .137 0 .248-.066-.106-.031-.18-.036-.248"/><path fill-rule="evenodd" fill="#af7e55" d="m31.24 37.25c.275.12.523.276.716.511.08.098.122.07.189-.006.196-.227.444-.387.718-.508.581 1.353 1.201 2.681 2.269 3.758-.266.101-.532.205-.802.306-.096.035-.123-.052-.165-.104-.681-.872-1.28-1.788-1.583-2.87-.017-.057-.013-.13-.093-.176-.048.412.015.806.088 1.195.157.791.386 1.558.76 2.274.054.101.028.144-.062.192-.412.219-.816.448-1.162.77-.048.043-.078.048-.129.002-.342-.316-.737-.549-1.145-.761-.126-.065-.125-.118-.066-.234.469-.936.735-1.931.845-2.97.012-.121.005-.245.005-.368 0-.031 0-.065-.053-.097-.047.139-.095.274-.138.41-.31 1-.896 1.846-1.526 2.662-.047.059-.087.1-.178.063-.25-.105-.506-.196-.783-.299.355-.314.637-.672.889-1.053.563-.849 1-1.762 1.406-2.697"/><path fill-rule="evenodd" fill="#d00429" d="m28.06 32.11c-.001-1.209-.003-2.419-.005-3.629 0-.186.02-.376-.078-.546.076-.052.149-.032.219-.032 2.567 0 5.137 0 7.706-.003.154 0 .243.002.16.199-.036.096-.027.216-.027.326.003 1.145.005 2.291.008 3.436 0 .083-.008.167-.011.251-.014.016-.027.025-.048.03-.362-.041-.661-.237-.954-.434-.235-.157-.229-.157-.451-.006-.312.21-.631.396-1.026.387-.104-.114-.036-.188.062-.248.121-.075.252-.131.376-.204.8-.465 1.284-1.717.348-2.702-.241-.253-.514-.471-.797-.69.045.36.226.664.338.992.149.433.203.871.045 1.31-.121.337-.364.542-.726.591-.041.006-.081.008-.112.03-.174.125-.338.099-.497-.028-.096-.076-.186-.033-.268.027-.191.146-.379.144-.566-.011-.093-.079-.188-.078-.28 0-.139.113-.281.113-.431.03-.03-.016-.061-.031-.091-.04-.624-.167-.885-.504-.882-1.153 0-.383.122-.736.272-1.082.091-.208.176-.417.207-.662-.396.308-.766.618-1.052 1.025-.417.593-.253 1.568.197 2.01.219.217.457.397.74.521.181.08.192.143.092.285-.42-.01-.764-.214-1.086-.453-.111-.083-.18-.077-.285-.001-.32.229-.643.455-1.052.501-.015-.005-.033-.016-.045-.031"/><path fill-rule="evenodd" fill="#0b45ba" d="m35.997 32.11c.013.005.021.005.032 0 .001.976.001 1.954.003 2.93 0 .177-.104.303-.222.418-.256.263-.573.437-.901.589-.669.311-1.341.612-2.01.92-.28.129-.562.26-.792.475-.039.031-.059.059-.112.014-.517-.439-1.164-.633-1.764-.916-.461-.217-.931-.418-1.379-.66-.167-.09-.321-.195-.468-.313-.223-.188-.345-.406-.339-.721.021-.911.011-1.825.012-2.737.011.002.021.002.03.002.236.006.427.136.622.248.157.091.314.181.46.29.096.074.164.076.266-.014.225-.204.483-.366.756-.501.092-.046.188-.093.292-.025.07.135-.021.234-.076.338-.064.116-.069.195.091.209.024.001-.006-.002.019.003.562.131.929.336.962 1.197-.044.117.015.26-.092.359-.104.008-.099-.082-.123-.143-.07-.176-.28-.29-.461-.252-.112.024-.075.107-.061.168.104.422.134.85.129 1.283-.001.106-.049.218.016.322.011.016.016.032.023.051.008.061-.025.11-.048.164-.086.197-.05.316.148.411.218.106.409.242.597.392.245.197.677.181.93-.041.148-.128.312-.228.484-.317.284-.152.309-.218.178-.516-.004-.018-.009-.036-.012-.056-.002-.03.008-.059.02-.085.019-.36.006-.722.05-1.081.021-.18.049-.357.097-.533.033-.122-.006-.165-.13-.164-.274.002-.358.078-.417.354-.038.195.03.399-.051.592-.021.024-.045.041-.08.037-.053-.028-.077-.074-.077-.127 0-.393-.022-.785.051-1.176.096-.503.445-.725.902-.838.202-.052.2-.052.116-.234-.04-.082-.094-.156-.097-.25.057-.171.183-.116.283-.069.29.136.57.302.807.521.098.089.162.092.262.014.241-.184.52-.312.778-.464.094-.057.194-.067.296-.068"/><path fill-rule="evenodd" fill="#af7e54" d="m34.31 27.6c.041.006.066.03.074.072-1.501-.001-3-.001-4.506-.001 0-.009 0-.017 0-.027.428-.046.838-.146 1.195-.467-.003.172-.104.263-.153.376-.009.089.048.061.096.055.277-.039.513-.169.712-.365.078-.08.113-.083.156.025.039.088.091.168.144.258.132-.098.157-.25.245-.374.248.279.555.44.942.483-.069-.149-.173-.264-.217-.421.096.004.15.066.207.11.296.213.638.278.988.312.04.003.091.021.117-.036"/><path fill-rule="evenodd" fill="#af7e55" d="m31.866 23.287c.362-.088.612.17.909.295-.197-.227-.404-.439-.73-.418-.263.015-.514.021-.757-.103-.083-.041-.192-.022-.288-.033-.043-.005-.098.003-.109-.057-.008-.05.025-.085.06-.115.062-.051.14-.069.218-.077.426-.042.839-.01 1.232.179.237.115.482.218.723.327.029.013.057.031.084.046-.162.238.163.202.188.335.003.006.003.013.006.027-.03.015-.063.031-.096.047-.084.04-.119.078-.017.144.068.047.118.117.114.211-.088.037-.158-.054-.243-.026-.024.045-.005.088.003.131.045.304.057.591-.121.877-.19.306-.077.656-.037.987.049.429.274.789.492 1.162-.412-.142-.813-.571-.761-.922.038-.279.007-.569.006-.854-.002-.052.031-.134-.058-.139-.107-.006-.072.089-.072.144-.002.317 0 .634 0 .952 0 .287.124.54.226.797.032.083.072.163.11.253-.407-.143-.626-.444-.626-.849 0-.389 0-.777-.003-1.165 0-.051.031-.137-.063-.133-.086.004-.058.087-.058.138 0 .479 0 .958.003 1.438 0 .012.005.025.005.038.001.124-.064.244-.17.243-.082-.002-.147-.122-.144-.243.003-.486.006-.971.003-1.457 0-.055.042-.152-.052-.156-.104-.005-.064.094-.064.149-.005.389-.002.777-.002 1.166 0 .373-.217.67-.622.822.063-.158.117-.299.179-.435.112-.253.155-.516.146-.792-.014-.266-.002-.532-.005-.797 0-.046.021-.117-.062-.115-.084.002-.058.072-.058.118-.002.272-.019.544.004.815.024.321-.113.549-.347.739-.123.102-.247.204-.436.283.043-.075.066-.121.093-.165.5-.811.553-1.694.417-2.606-.017-.1-.064-.196-.1-.292-.027-.074-.058-.152.007-.218.062-.062.144-.054.22-.037.129.03.224.125.356.189.008-.098-.034-.168-.096-.218-.132-.103-.136-.207-.028-.325-.005-.1.124-.083.141-.164.033-.163.181-.103.28-.141"/><path fill-rule="evenodd" fill="#f2d102" d="m29.846 21.987c.025-.052-.105-.099-.021-.136.093-.043.202-.056.289.036-.153.166-.075.368-.084.556-.003.036.03.055.067.054.146-.004.296.02.442-.026.045-.014.09-.1.128-.035.048.077.046.184.002.261-.034.064-.084-.032-.133-.025-.017-.006-.036-.016-.055-.02-.416-.084-.47-.053-.45.363.007.174-.112.296-.12.455-.07-.218-.03-.442-.027-.662 0-.148-.048-.19-.186-.175-.139.015-.286-.022-.403.08-.125.023-.085-.084-.076-.122.013-.056-.073-.17.074-.167.16.125.346.063.521.074.048.003.067-.034.064-.076-.011-.145.036-.295-.032-.435"/><path fill-rule="evenodd" fill="#e9ca02" d="m30.11 24.45c-.005.025-.007.05-.013.076-.172.157-.172.157-.318-.067.051-.043.086-.094.088-.164.002-.189.008-.379.008-.57 0-.07.003-.139.04-.201.064-.03.114-.052.112.062-.006.237.004.473.008.71-.002.064.031.112.075.154"/><path fill-rule="evenodd" fill="#f9cd00" d="m30.29 23.395c.224.009.42.061.592.191.033.026.084.053.069.104-.017.058-.073.042-.112.034-.228-.042-.456-.09-.683-.134-.055-.012-.071-.048-.069-.099.003-.052.027-.085.081-.089.046-.004.091-.006.122-.007"/><path fill-rule="evenodd" fill="#c6092e" d="m30.614 23.37c-.179-.066-.364-.044-.576-.046.156-.174.341-.145.515-.157.162-.01.315-.006.409.16l-.005-.003c.017.11.133.186.118.322-.098-.071-.187-.136-.275-.202-.039-.081-.11-.086-.186-.074"/><path fill-rule="evenodd" fill="#aa7b52" d="m31.32 23.328c-.123.258-.24.055-.359-.004l.005.003c.01-.069-.038-.177.079-.187.135-.011.28-.011.354.145.001.061-.034.066-.079.043"/><path fill-rule="evenodd" fill="#e1c302" d="m31.32 23.328c.031-.003.064-.006.079-.043.05.001.1.001.148.002.082.043.132.101.085.199-.037.077-.124.069-.184.108-.133-.044-.139-.15-.128-.266"/><path fill-rule="evenodd" fill="#be0425" d="m30.988 23.801c-.162.249-.172.249-.4.003.134-.032.253.006.4-.003"/><path fill-rule="evenodd" fill="#020101" d="m31.629 23.486c-.003-.077-.031-.143-.085-.199.108 0 .216 0 .322 0-.148.035-.148.035-.237.199"/><path fill-rule="evenodd" fill="#34020c" d="m30.614 23.37c.043-.02.034-.108.107-.083.076.026.078.093.078.157-.061-.024-.123-.049-.185-.074"/><path fill-rule="evenodd" fill="#291d14" d="m31.02 27.607c-.043.03-.096.047-.134.015-.023-.018.01-.054.038-.069.031.017.061.036.096.054"/><path fill-rule="evenodd" fill="#f2d102" d="m40.03 32.614c-.033.063-.063.128-.098.189-.021.037-.021.109-.1.083-.101-.032-.059-.093-.041-.151.017-.048-.007-.104.021-.15.117-.198.154-.42.186-.644.015-.095.06-.135.148-.139.121-.009.27-.108.309.109.087.044.109.125.048.187-.168.163-.277.38-.473.516"/><path fill-rule="evenodd" fill="#e5c602" d="m39.756 32.693c-.032.024-.031.105-.103.065-.048-.026-.052-.064-.023-.106.17-.109.22-.279.229-.462.005-.104-.007-.207-.007-.309 0-.061-.039-.148.035-.174.081-.029.184-.036.261.01.039.024-.031.032-.048.05-.12.121-.08.287-.115.431-.046.18-.096.355-.229.495"/><path fill-rule="evenodd" fill="#e9ca02" d="m40.1 32.92c-.089.033-.154.038-.107-.091.022-.058.05-.114.072-.171.021-.134.114-.226.196-.318.109-.125.25-.227.306-.393.216.188.213.199-.021.352-.229.147-.465.293-.446.621"/><path fill-rule="evenodd" fill="#e8c902" d="m40.41 31.37c.091-.012.178-.018.236.077.05.083.014.145-.045.204-.092.025-.175.014-.232-.076-.054-.082-.009-.144.041-.205"/><path fill-rule="evenodd" fill="#201c00" d="m39.756 32.693c.138-.236.209-.489.227-.76.006-.078.012-.157.117-.167.015.012.031.024.045.036-.064.039-.084.102-.093.176-.029.272-.089.535-.263.757-.01-.014-.021-.028-.033-.042"/><path fill-rule="evenodd" fill="#201b00" d="m40.563 31.947c0 .112-.033.202-.131.276-.15.12-.268.271-.371.435-.01-.014-.022-.029-.033-.043.073-.189.215-.327.364-.455.087-.076.104-.15.062-.248.047-.027.085-.011.109.035"/><path fill-rule="evenodd" fill="#e6c702" d="m40.753 31.04c0 .113 0 .208 0 .325-.095-.046-.176-.086-.269-.134.083-.086.165-.14.269-.191"/><path fill-rule="evenodd" d="m33.602 32.15c.1.172.198.344.304.53-.176.04-.333.068-.486.108-.413.111-.638.385-.705.805-.064.396-.04.797-.033 1.195.045.034.058.092.088.137.028.038.038.082.041.129-.017.172.073.289.19.398.078.07.192.111.221.231.231.241.203.45-.09.601-.204.104-.39.225-.563.376-.264.237-.775.239-1.041.007-.173-.156-.359-.293-.577-.385-.314-.136-.276-.49-.048-.629.008-.073.063-.107.114-.146.192-.136.296-.318.292-.557.004-.041.004-.084.027-.122.038-.337.088-.673.062-1.013-.03-.708-.233-.903-1.192-1.133.051-.207.23-.356.257-.572.003-.023.016-.038.038-.043.098-.075.069-.117-.033-.153-.298-.105-.553-.278-.778-.497-.555-.533-.817-1.662-.053-2.475.304-.321.668-.569 1-.892.04.245-.043.44-.116.636-.137.356-.303.701-.353 1.085-.036.269-.015.53.093.781.123.29.338.469.652.516.033.005.068.003.095.02.179.125.335.116.493-.049.088-.091.188-.031.279.035.242.179.287.184.525.002.136-.103.246-.098.359.016.1.098.2.135.326.037.043-.034.104-.046.162-.057.447-.087.705-.371.768-.829.056-.419-.048-.808-.201-1.192-.086-.216-.186-.427-.243-.653-.027-.106-.038-.212-.017-.34.305.267.604.511.887.775 1.066 1 .578 2.573-.647 3.057-.062.024-.239.005-.124.174.029.022.014.058.027.086"/><path fill-rule="evenodd" fill="#010000" d="m32.05 28.11c.082.23.147.403.205.58.031.098.074.115.166.065.162-.087.331-.163.551-.268-.103.22-.178.389-.26.552-.05.092-.033.135.066.168.176.056.35.125.569.205-.184.066-.326.128-.474.166-.176.047-.236.116-.127.29.081.129.134.275.219.458-.186-.085-.338-.139-.471-.222-.164-.104-.23-.048-.276.12-.038.147-.1.289-.169.483-.078-.22-.141-.386-.197-.556-.033-.102-.081-.131-.184-.078-.157.084-.322.154-.533.253.096-.206.164-.369.248-.526.055-.103.052-.156-.074-.191-.172-.049-.338-.119-.555-.196.217-.081.387-.151.563-.204.113-.034.121-.082.07-.177-.08-.158-.153-.321-.252-.538.215.103.381.172.535.255.1.053.146.039.18-.069.052-.172.117-.341.2-.57"/><path fill-rule="evenodd" fill="#010100" d="m33.602 32.15c-.009-.028-.019-.058-.027-.085.413-.126.82-.267 1.14-.58.043-.043.076-.06.128-.015.341.297.743.481 1.155.644-.384.222-.789.407-1.146.68-.078.06-.111.005-.157-.039-.286-.268-.631-.448-.979-.617-.04-.02-.083-.051-.114.012"/><path fill-rule="evenodd" fill="#010100" d="m30.5 32.06c-.012.014-.025.029-.038.043-.381.146-.733.348-1.038.623-.086.079-.136.103-.235.026-.341-.26-.729-.438-1.101-.646.417-.161.819-.35 1.164-.645.039-.035.072-.044.112 0 .312.328.729.453 1.136.599"/><path fill-rule="evenodd" fill="#010101" d="m30.28 34.893c.21.236.238.441.098.618-.146.179-.357.188-.636.024-.078.152-.173.287-.365.306-.277.026-.486-.192-.432-.479.023-.119-.003-.149-.112-.178-.202-.05-.321-.23-.304-.416.021-.192.166-.35.37-.362.112-.008.131-.039.124-.146-.017-.225.109-.386.309-.431.191-.044.376.059.465.262.022.05.009.112.109.077.286-.102.463-.049.564.15.103.199.04.387-.19.575"/><path fill-rule="evenodd" fill="#010101" d="m35.34 34.606c-.836-.04-1.145.355-.977 1.22-.363-.043-.701-.43-.741-.847-.034-.354.196-.691.559-.813.414-.138.911.045 1.159.44"/><path fill-rule="evenodd" fill="#010201" d="m32.752 35.06c-.013-.033-.026-.066-.04-.102-.007-.068.019-.138.002-.207.005-.199-.007-.397.028-.598.051-.297.075-.326.362-.388.396-.085.397-.085.305.292-.12.48-.138.967-.095 1.459.004.047.056.121-.053.126-.271-.104-.458-.282-.509-.582"/><path fill-rule="evenodd" fill="#010101" d="m31.391 34.871c0 .039 0 .077-.002.117-.053.059-.053.141-.082.209-.094.215-.244.367-.47.439-.028-.006-.089.032-.079-.037.048-.32.055-.64.023-.963-.031-.314-.105-.617-.19-.922.535-.024.701.082.768.486.072.222.011.448.032.671"/><path fill-rule="evenodd" fill="#030405" d="m30.889 33.654c-.039.002-.324-.279-.324-.319.002-.027.281-.313.31-.316.036-.005.327.269.331.31.003.038-.274.324-.317.325"/><path fill-rule="evenodd" fill="#020303" d="m33.21 33.02c.041.003.315.294.313.328-.005.036-.281.308-.314.309s-.324-.286-.324-.32.294-.32.325-.317"/><path fill-rule="evenodd" fill="#083288" d="m31.391 34.871c-.074-.221-.012-.447-.032-.67.07-.124.009-.263.039-.391.053.354.054.708-.007 1.061"/><path fill-rule="evenodd" fill="#08348d" d="m32.752 35.06c.091.264.272.447.51.583-.015.013-.026.025-.041.039-.174-.108-.354-.207-.438-.409-.027-.068-.078-.134-.031-.213"/><path fill-rule="evenodd" fill="#093898" d="m30.837 35.637c.238-.141.43-.316.496-.602.007-.02.037-.031.056-.047-.047.305-.201.531-.486.66-.022-.003-.044-.007-.066-.011"/><path fill-rule="evenodd" fill="#06276a" d="m32.714 34.748c.038.07.059.14-.002.207-.041-.051-.043-.109-.031-.172.01-.012.024-.023.033-.035"/><path fill-rule="evenodd" fill="#1f1b00" d="m31.455 23.368c.035-.001.058.019.064.053.004.034-.013.059-.048.063-.035.005-.063-.013-.065-.048-.004-.034.018-.055.049-.068"/><path fill-rule="evenodd" fill="#fed100" d="m33.692 28.453c.472.386.89.8.999 1.417.132.749-.301 1.472-1.051 1.834-.116.056-.308.05-.332.179-.02.105.089.234.138.354.048.105.094.211.143.325-.144.047-.28.086-.413.132-.321.114-.507.345-.577.673-.124.57-.095 1.146-.067 1.723.009.238.126.43.345.55.071.04.146.087.208.142.135.115.14.272-.016.354-.254.137-.497.299-.751.436-.204.111-.451.098-.645-.049-.178-.133-.368-.236-.565-.334-.258-.127-.273-.323-.02-.457.386-.204.5-.525.495-.931-.005-.427.007-.853-.056-1.279-.072-.507-.358-.804-.849-.901-.159-.031-.186-.079-.109-.218.088-.165.235-.355.209-.51-.026-.165-.3-.161-.454-.253-.715-.424-1.071-1.133-.914-1.852.098-.438.535-1.021 1-1.328.004.12-.058.212-.099.31-.19.445-.406.881-.364 1.39.043.522.316.926.74 1.031.167.042.338.055.491.157.096.063.192-.007.264-.07.119-.103.214-.1.34-.001.191.15.325.146.529-.005.114-.09.209-.1.321.001.12.108.25.125.386.019.062-.049.135-.068.217-.073.356-.024.604-.213.757-.527.191-.398.202-.813.06-1.226-.09-.256-.203-.503-.305-.756-.029-.079-.084-.149-.058-.257"/><path fill-rule="evenodd" fill="#fdd100" d="m32.831 29.403c-.017.016-.024.028-.034.034-.111.064-.302.049-.33.16-.025.098.087.231.156.399-.119-.057-.202-.092-.28-.138-.106-.062-.162-.043-.188.081-.019.086-.061.167-.083.224-.036.035-.04.03-.05.014-.06-.117-.043-.314-.163-.345-.104-.024-.239.089-.38.149.038-.156.195-.288.139-.395-.051-.092-.23-.114-.379-.177.152-.058.281-.106.418-.158-.063-.131-.121-.258-.191-.418.158.071.284.128.418.188.051-.133.101-.259.148-.389.079.037.079.118.096.178.042.171.108.252.28.122.049-.038.115-.055.175-.082.006.013.02.025.017.033-.031.129-.187.26-.128.361.05.093.23.11.359.159"/><path fill-rule="evenodd" fill="#fdd100" d="m34.05 32.09c.263-.105.495-.215.676-.404.048-.048.081-.045.129-.003.212.195.469.312.742.438-.264.158-.527.289-.755.477-.033.027-.062.042-.098.005-.195-.207-.435-.356-.694-.513"/><path fill-rule="evenodd" fill="#fdd100" d="m28.486 32.13c.278-.127.544-.248.762-.449.04-.041.074-.032.113.007.184.187.413.304.684.406-.237.179-.464.345-.687.515-.048.036-.079.018-.12-.008-.245-.154-.491-.31-.752-.471"/><path fill-rule="evenodd" fill="#fccf00" d="m29.874 34.855c-.005.168-.146.298-.319.292-.166-.007-.302-.151-.291-.317.011-.162.142-.281.309-.28.17.001.305.138.301.305"/><path fill-rule="evenodd" fill="#face00" d="m29.18 34.512c-.104-.285-.017-.492.226-.516.145-.016.253.047.314.177.074.152.031.233-.136.214-.16-.018-.257.139-.41.118l.006.007"/><path fill-rule="evenodd" fill="#fbce00" d="m29.402 35.681c-.229.007-.375-.157-.352-.354.021-.174.1-.212.237-.112.07.049.147.08.233.087.162.013.19.07.114.212-.056.105-.146.16-.232.167"/><path fill-rule="evenodd" fill="#fccf00" d="m30.03 34.24c.141-.006.239.062.293.182.054.118.039.239-.054.342-.122.131-.208.115-.265-.05-.021-.068-.066-.123-.101-.184-.033-.06-.179-.044-.116-.159.053-.09.139-.133.243-.131"/><path fill-rule="evenodd" fill="#fdd000" d="m29.17 34.505c.006.18-.123.353-.027.543.033.065-.064.065-.104.071-.174.025-.332-.115-.339-.295-.007-.189.14-.338.326-.329.052.001.097.041.15.017l-.006-.007"/><path fill-rule="evenodd" fill="#fbcf00" d="m30.31 35.18c-.002.166-.066.268-.2.322-.131.055-.24.02-.335-.074-.063-.06-.099-.123.019-.174.085-.038.136-.113.186-.191.033-.053.005-.164.112-.146.087.013.148.076.186.155.017.039.026.084.032.108"/><path fill-rule="evenodd" fill="#fdd000" d="m34.904 34.429c-.52.173-.8.499-.805 1.033-.289-.196-.381-.565-.217-.849.179-.31.598-.392 1.022-.184"/><path fill-rule="evenodd" fill="#fdd000" d="m33.3 33.897c-.126.463-.137.926-.157 1.414-.184-.122-.267-.273-.275-.46-.008-.193-.008-.389 0-.58.013-.306.079-.366.432-.374"/><path fill-rule="evenodd" fill="#fccf00" d="m30.936 35.32c0-.485-.018-.922-.123-1.35-.008-.033-.021-.09.041-.082.127.02.292-.006.331.168.075.311.08.625.013.938-.03.129-.115.226-.262.326"/><path fill-rule="evenodd" fill="#f3c800" d="m30.879 33.504c-.06-.053-.152-.099-.146-.172.009-.064.081-.151.162-.14.066.009.149.077.14.154-.01.07-.085.125-.156.158"/><path fill-rule="evenodd" fill="#f2c700" d="m33.376 33.32c-.04.08-.096.162-.162.168-.079.006-.158-.086-.164-.155-.003-.062.086-.153.152-.149.06.003.116.087.174.136"/><path fill-rule="evenodd" fill="#060500" d="m31.44 35.858c.086-.003.207-.003.216.135.003.153-.121.155-.236.151-.046-.002-.092 0-.132-.014-.091-.027-.246-.005-.235-.138.01-.116.154-.108.252-.124.037-.005.078-.005.135-.01"/><path fill-rule="evenodd" fill="#050400" d="m32.708 36.15c-.143-.002-.272.008-.267-.15.004-.157.137-.141.244-.133.083.006.165.018.245.036.058.014.122.04.119.108-.007.063-.071.088-.129.1-.077.018-.16.031-.212.039"/></g></g></switch></svg>