<svg xmlns="http://www.w3.org/2000/svg" viewBox="0 0 64 64" enable-background="new 0 0 64 64"><g transform="translate(0 6)"><path d="m63.845 9.09c0 0 .245 8.118-1.19 12.937 0 0-23.396 30.27-29.657 35.3 0 0-8.619-10.671-8.514-11.184.101-.515 6.976-17.548 6.976-17.548 0 0 27.665-20.94 32.385-19.503" fill="#fbeb9c"/><path d="m31.28 55.55c.722.874 1.284 1.544 1.536 1.852.225-.079.443-.157.665-.244 6.922-5.896 29.14-33.596 29.14-33.596.325-1.049.565-2.265.741-3.512-3.273 3.881-24.07 28.463-32.08 35.5" fill="#ab7851"/><path d="m63.778 13.952c0 0-34.49 23.08-34.983 27.524-.113 1 1.256 5.731 1.256 5.731 0 0 29.14-25.453 33.466-30.26l.261-2.995" fill="#d8204b"/><g fill="#f391aa"><path d="m1.427 16.677c.402 2.149 2.402 3.587 4.143 4.665 2.402 1.495 4.934 2.769 7.552 3.843 5.683 2.327 11.771 3.435 17.87 3.916.383.033.381-.568 0-.594-5.763-.459-11.478-1.5-16.89-3.575-2.632-1.01-5.104-2.289-7.542-3.699-1.828-1.053-4.13-2.472-4.557-4.712-.073-.382-.647-.219-.576.156"/><path d="m1.427 16.598c-1.106 4.071-1.495 8.299-1.417 12.511.039 2.104.209 4.204.463 6.292.126 1.02.28 2.037.451 3.049.158.958.292 1.981.69 2.873.158.351.674.043.519-.308-.404-.896-.509-1.975-.672-2.935-.172-1.033-.317-2.07-.442-3.111-.24-2.02-.376-4.046-.416-6.077-.073-4.085.328-8.187 1.4-12.134.101-.377-.475-.533-.576-.16"/><path d="m32.22 50.34c.027.954.093 1.889.04 2.843-.053.878-.113 1.751-.073 2.631.024.534.069 1.227.465 1.633.189-.063.373-.125.56-.191-.002-.065-.029-.133-.093-.189-.42-.381-.343-1.277-.349-1.788-.006-.824.063-1.646.106-2.469.049-.977-.045-1.952-.071-2.923-.035-1.376-.042-2.758-.073-4.131-.123-5.613-1.108-11.168-1.122-16.795 0-.387-.599-.387-.599 0 .012 5.779 1.021 11.485 1.135 17.255.029 1.375.035 2.75.074 4.124"/><path d="m1.506 41.41c.867 2.422 2.873 4.141 4.904 5.604 1.112.804 2.275 1.533 3.421 2.291 1.083.716 2.082 1.51 3.113 2.295 2.524 1.925 5.468 3.167 8.518 4.01 3.104.863 6.256 1.134 9.423 1.622.375.058.759.103 1.146.115.383.006.381-.592 0-.604-.731-.012-1.457-.158-2.179-.235-.789-.09-1.577-.185-2.362-.299-1.593-.222-3.176-.507-4.742-.886-3.092-.737-6.103-1.875-8.733-3.678-1.063-.729-2.031-1.597-3.1-2.332-1.116-.768-2.264-1.483-3.386-2.25-2.177-1.477-4.525-3.245-5.45-5.814-.125-.36-.703-.204-.573.16"/></g><path d="m1.68 16.683c0 0 41.46-10.363 62.16-7.597 0 0 .673.266 0 .868 0 0-28.951 15.792-32.835 19.83 0 0-8.674 2.547-9.248 2.547-.576 0-10.642-2.887-11.503-3.543-.866-.653-6.426-5.05-6.903-5.951-.481-.898-1.676-6.154-1.676-6.154" fill="#be5674"/><g fill="#e1809c"><path d="m31.27 57.23l1.043-1.351v-8.112l-.205-7.583-.834-8.41-.018-2.845-2.124-.502-4.57-.704h-1.84l-5.347-1.061c0 0-2.116-1-2.295-1-.175 0-3.878-1.469-3.878-1.469l-3.056-1.493-3.291-2.273-2.354-1.996-.824-1.12-.6 1.293-.526 2.088v3.438l-.286 4.541c0 0-.114 2.281 0 2.457.12.175.68 4.231.68 4.231l.132 2.821.732 3.961c0 0 10.77 14.964 29.07 15.09.132 0 .26.003.388.003"/><path d="m32.32 57.56c.306-.093.609-.193.909-.306-.217 0-.439-.004-.678-.008-.402-.005-.83-.005-1.279-.009l-.264.34c0 0 .527-.004 1.312-.017"/></g><path d="m2 33.936l.038.824c1.207-1.688 2.549-3.228 4.182-4.549 1.786-1.447 3.808-2.573 5.951-3.407.428-.164.864-.321 1.299-.463-.14-.057-.24-.093-.266-.093-.142 0-3.076-1.165-3.076-1.165l-2.423-1.181-2.609-1.8-1.863-1.585-.655-.887-.475 1.029-.416 1.65v2.729l-.227 3.599c0 0-.097 1.806 0 1.946.095.139.54 3.353.54 3.353" fill="#eea2bb"/><path d="m32.01 47.49l-.205-7.587-.667-6.739c-1.286 1.057-2.61 2.066-4 2.982-5.158 3.418-11.379 5.595-17.57 3.981-3.232-.846-6.138-2.394-8.885-4.231l.095 2.01.733 3.959c0 0 10.768 14.966 29.07 15.09.132.002.266.002.393.002l1.043-1.353v-8.112" fill="#d27996"/><path d="m26.583 12.978c-1.29-.647-2.431-.391-3.504.504-.347.29-.607.586-.905.757-.357.205-.736.404-1.012.716-.875 1.018-.408 2.441.284 3.427.864 1.227 2.325 1.625 3.63.812 1.106-.686.38-2.693-.925-2.187-1.593.621-3.143 2.185-2.502 4.046.3.862 1 1.439 1.913 1.516.921.073 1.761-.509 2.356-1.147.915-.972-.258-2.606-1.449-1.879-.909.56-1.646 1.482-1.593 2.601.053 1.254 1.181 2.194 2.366 2.362 2.24.312 4.109-1.388 5.584-2.857-.629-.483-1.256-.966-1.881-1.449-.32.651-.578 1.449-.278 2.161.29.702.86 1.219 1.627 1.345 1.593.258 2.979-.672 3.551-2.131.424-1.071-.918-1.761-1.755-1.354-.826.408-1.597 1.218-1.293 2.216.245.798 1.053 1.242 1.822 1.394.833.16 1.692.096 2.445-.302.948-.501 1.205-1.536 1.049-2.514-.083-.519-.666-.881-1.151-.881-.7 0-1.14.55-1.201 1.197-.234 2.484 2.999 2.648 4.657 2.24 1.018-.25 1.962-.779 2.573-1.639.735-1.041.286-2.293-.43-3.181-.18.667-.356 1.333-.53 2 1.611-.526 3.37-.767 4.719-1.873.824-.678 1.088-1.597.938-2.628-.205-1.396-1.94-1.763-3.049-1.353.308.729.613 1.459.921 2.188 1.605-1.041 2.301-2.817 1.503-4.602-.799-1.791-2.952-1.934-4.523-1.242.588.456 1.175.907 1.757 1.354.168-1.12-.269-2.135-1.439-2.435-.99-.256-2.102.043-3.044.363-1.085.369-2.136.875-3.105 1.481-.789.497-1.718 1.144-2.14 2.01.623-.081 1.252-.162 1.879-.241-.905-1.161-2.542-1.607-3.934-1.769-1.5-.167-3.145.296-3.983 1.63.548-.142 1.094-.284 1.639-.428-1.24-.576-2.654-.846-3.867-.036-1.088.726-1.625 2.01-1.889 3.242-.185.84.556 1.772 1.469 1.471.706-.227 1.179-.704 1.469-1.38-.741-.201-1.483-.404-2.23-.604-.067.783.002 1.558.515 2.185.439.542 1.157.629 1.798.493 1.22-.268 2.228-1.508 2.936-2.451.769-1.027-.67-2.159-1.636-1.639-2.287 1.234-4.206 3.63-5.33 5.941-.584 1.175.887 2.471 1.877 1.447.763-.791 1.335-1.731 1.924-2.658-.745-.197-1.491-.402-2.234-.603-.001.781-.126 1.554-.073 2.338.051.773.724 1.368 1.514 1.155 1.601-.432 2.942-1.398 4.437-2.082-.6-.345-1.203-.69-1.802-1.035-.02.463-.335.893-.574 1.286-.357.597-.702 1.195-.892 1.867-.147.517.089 1.084.55 1.353.505.296 1.021.15 1.449-.187 1.508-1.185 2.913-2.546 3.958-4.167.485-.748-.146-1.842-1.029-1.8-1.493.069-2.959 1.09-3.941 2.159-.761.83-.172 1.924.846 2.044 2.066.249 4.174-.006 6.217-.349 2.142-.359 4.303-.87 6.02-2.266-.666-.387-1.333-.777-2-1.164-.276.712-.455 1.504-.767 2.153-.021.045-.265.444-.141.286-.103.1-.095.104.023.012-.167.128-.023.063-.24.126-.469.138-.968.13-1.436.284-1.459.477-.836 2.788.637 2.309 1.449-.473 2.923-.779 4.149-1.741.846-.665.12-2.066-.849-2.043-3.651.091-7.275.812-10.941.602.4.402.798.796 1.203 1.197.108-1.499 1.031-2.967 2.053-4.05 1.191-1.262 2.806-1.769 4.421-2.295.84-.274 1.719-.53 2.595-.643.621-.081 1.275-.178 1.999-.016.265.063.416.125.546.254-.074-.071-.092-.112-.076-.215-.03.18-.067.245-.133.375-.31.6-.808 1.077-1.226 1.593-.348.424-.481.955-.188 1.453.312.535 1.096.795 1.637.428 1.604-1.086 3.01-2.382 4.125-3.975-.687-.402-1.379-.805-2.064-1.207-.274.501-.448 1.037-.592 1.589-.114.426-.18.962-.462 1.325-.571.716-1.776.595-2.593.641.385.505.77 1.012 1.151 1.517-.116.297-.031.09.139-.051-.139.118.252-.184.317-.229.42-.31.778-.615 1.059-1.059.625-.974.257-2.266-.672-2.867-.744-.479-1.799-.424-2.639-.313-.903.12-1.769.313-2.601.676-1.037.454-.58 1.887.286 2.189 1.029.354 2.082-.121 2.559-1.079.282-.56.176-1.325-.428-1.641-2.514-1.29-5.566.132-7.873 1.242-1.031.499-2.057 1.126-3.094 1.534-1.325.522-2.849.931-3.841 2.02.566.564 1.128 1.127 1.694 1.693.173-.211.394-.351.603-.528-.666-.179-1.334-.353-1.997-.528.095.296.185.593.268.893.055.197.103.396.142.596.043.229.025-.038-.004.229.055-.201.108-.4.162-.601-.059.14-.158.205-.343.356-.292.239-.521.529-.645.886-.146.414-.112.984.164 1.343.648.85 1.581.816 2.545.686 1.599-.213 3.122-.872 4.651-1.349 1.187-.369 2.384-.674 3.562-1.081.763-.264 1.521-.588 2.307-.773.838-.193 1.717-.184 2.56-.367 1.419-.313 2.647-1.373 3.499-2.502.882-1.169 1.116-2.666.866-4.085-.11-.639-.888-.994-1.471-.834-.671.188-.949.832-.837 1.473.18 1-.297 1.93-.987 2.634-.933.942-2.068 1.083-3.322 1.228-1.567.191-3.02.86-4.514 1.343-.905.296-1.835.499-2.739.801-.741.247-1.477.501-2.222.726-.382.116-.765.219-1.153.315-.177.042-.355.081-.534.116-.101.016-.201.034-.3.047.31-.047.014-.004-.045-.002-.128.008-.256.006-.382-.002.207.032.248.036.126.008-.162-.035.272.18.3.199.331.254.288.801.065 1.055.182-.201.422-.343.605-.546.87-.966.339-2.346-.018-3.429-.293-.894-1.303-1.126-2-.529-.18.158-.428.322-.604.529-.414.5-.491 1.201 0 1.693.446.444 1.254.479 1.694 0 .692-.757 1.946-1.068 2.93-1.461 1.025-.402 1.983-.946 2.963-1.441 1.061-.534 2.139-1.025 3.279-1.374.562-.172 1.075-.284 1.598-.315.138-.006.271-.004.408 0-.007-.002.414.049.2.016.257.042.442.116.529.162-.146-.548-.29-1.092-.431-1.637-.078.15-.103.197-.076.146.132-.152.565-.049.217-.169.097.729.191 1.457.29 2.188-.348.15-.081.038-.008.001.126-.045.254-.084.38-.12.31-.093.625-.162.948-.217.267-.055.464-.075.843-.091.161-.008.325 0 .486.012-.248-.018.146.036.201.053-.079-.023-.144-.104-.079-.041-.128-.128-.165-.229-.138-.393-.045.134-.043.144.002.014-.075.114-.081.121-.001.014-.029.037-.353.301-.197.185-.67.503-1.23.907-1.548 1.708-.282.712.43 1.56 1.153 1.519 1.383-.079 2.794-.101 3.928-1.01.6-.487.95-1.142 1.201-1.865.211-.613.274-1.292.582-1.867.743-1.373-1.191-2.461-2.064-1.207-.87 1.24-2.02 2.271-3.27 3.116.485.627.966 1.252 1.451 1.879 1.126-1.38 3.233-3.662 1.244-5.31-1.712-1.419-4.381-.844-6.298-.329-2.2.58-4.523 1.37-6.207 2.952-1.643 1.54-2.835 3.738-3 5.99-.053.676.582 1.163 1.193 1.199 3.666.205 7.29-.511 10.941-.605-.277-.68-.56-1.362-.842-2.044-.84.657-2.111.806-3.096 1.128.213.769.424 1.538.637 2.309.561-.183 1.166-.167 1.724-.384.605-.233 1.035-.645 1.372-1.189.559-.903.76-1.983 1.136-2.959.188-.495-.122-1.101-.554-1.353-.499-.296-1.025-.156-1.447.185-1.343 1.092-3.312 1.362-4.965 1.654-1.83.315-3.732.483-5.582.262.28.682.564 1.36.844 2.043.31-.335.651-.625 1.021-.879.375-.256.935-.568 1.23-.582-.347-.599-.692-1.201-1.033-1.798-.937 1.437-2.248 2.624-3.589 3.677.665.39 1.335.781 2 1.163.167-.582.532-1.084.84-1.601.402-.678.676-1.392.712-2.187.043-.986-1.031-1.382-1.798-1.031-1.299.591-2.47 1.467-3.862 1.838.502.386 1 .771 1.51 1.155-.051-.785.063-1.558.077-2.338.022-1.227-1.611-1.582-2.23-.604-.477.753-.925 1.526-1.546 2.173.625.485 1.252.966 1.877 1.451.962-1.964 2.52-4.03 4.476-5.079-.546-.55-1.092-1.094-1.637-1.641.123-.158-.16.195-.187.231-.136.154-.282.308-.428.453-.119.115-.239.231-.365.341-.111.091-.121.099-.034.03-.087.069-.178.128-.27.187-.065.043-.444.197-.144.087-.134.036-.106.036.083.008-.195.028.219.069.276.095.093.059.177.126.236.225.18.284-.002-.124.03.104-.034-.254-.001-.519.014-.777.101-1.151-1.763-1.69-2.232-.605-.081.191-.294.363-.038.28.491.493.982.982 1.469 1.473.167-.755.375-1.402.848-1.847-.122.114.199-.117.252-.14-.227.112.345-.038.103-.016.375-.036.668.055 1.041.23.607.276 1.264.162 1.637-.43.065-.101.101-.142.197-.209.014-.004.343-.168.132-.081.11-.045.225-.081.345-.11.256-.067.925-.091 1.195-.055.274.04.538.104.805.179.246.067.453.15.572.201.219.101.424.231.623.371-.189-.138.071.075.088.095.075.069.138.15.199.227.459.589 1.568.396 1.881-.241.049-.103.108-.195.173-.286-.215.299.123-.113.195-.178.114-.11.239-.213.361-.313-.213.171.064-.045.093-.061.089-.065.177-.13.27-.191.357-.238.733-.454 1.116-.655.182-.096.367-.187.553-.276.229-.11.407-.187.498-.223.393-.158.797-.296 1.201-.408.172-.043.341-.085.511-.12.057-.012.385-.063.063-.016.086-.014.179-.02.266-.027.13-.006.265-.004.398.001-.351-.03-.14-.016-.048.006.229.059-.264-.132-.062-.027.077.041-.205-.225-.166-.156-.155-.28-.057 0-.087-.316.006.087-.029.316.024-.023-.16 1.079.741 1.8 1.755 1.347.396-.173.601-.134.871-.051-.246-.075.327.252.122.081.028.02.245.28.095.081.065.085.112.18.162.272-.135-.256.061.438.033.132.001.112.004.227 0 .337.001-.252-.037.1-.047.138-.03.099-.075.169-.211.375.092-.142-.201.189-.176.166-.11.106-.114.094-.245.181-1.086.704-.407 2.678.923 2.187-.023.008.379-.108.294-.104.227-.016.093.051-.124-.116-.008-.006-.085-.108-.085-.108-.002-.152-.138.276 0 .008-.138.268.158-.154-.057.081-.05.053-.101.101-.158.144.095-.065.083-.06-.033.025-.245.167-.515.298-.781.42-.792.357-1.989.58-2.938.887-.915.3-1.099 1.295-.526 2-.15-.181.095.182.132.249-.168-.335.006.371-.025-.081.021.328.075-.221-.016.089.091-.302.053-.128.002-.034-.129.219.183-.209.014-.014-.054.067-.381.329-.101.126-.114.083-.238.154-.359.221-.053.021-.103.053-.155.079-.274.134.244-.09-.048.02-.169.067-.351.118-.528.166-.151.04-.31.069-.463.099-.135.021-.122.02.039-.004-.093.001-.186.016-.273.02-.15.001-.3.001-.45.006-.089-.002-.176-.001-.26-.02.341.036.07.006-.002-.006-.127-.026-.245-.063-.363-.106.317.116.112.045.033 0-.207-.119.218.191.04.035-.174-.15.035.087.075.186-.04-.095-.046-.296-.009.071-.001-.071 0-.142.007-.211-.783.108-1.57.215-2.353.319-.046-.293-.016-.029-.018.038.031-.187.033-.215.002-.091.082-.169.097-.197.035-.086-.11.217.191-.201.018-.028-.128.134.234-.136-.047.012.392-.209-.499.067-.06.016-.106.012-.213.016-.321.016-.077 0-.454-.045-.077.001-.173-.025-.341-.073-.506-.132.323.114.128.055.047.008-.264-.14.144.138.02.02.217.215.271.728.146.931-.21.347.145-.045-.11.132.112-.081.241-.144.367-.205-.588-.448-1.171-.899-1.757-1.349.091-.235-.221.292-.042.073-.049.053-.101.108-.152.162-.241.229.171-.108-.106.071-.057.033-.12.065-.186.096.128-.053.128-.057-.002-.012-.065.018-.13.036-.197.049.284-.065.006-.012-.062-.012-.211.004.199.071-.118-.026.178.054.106.008.213.168.059.167.067.187.028.061.018.171.02.188.018.045 0 .205.04-.136.077-.209.576-1.189-.879-2.451-1.883-1.447-.787.785-1.652 1.682-2.717 2.074-.387.146-.807.258-1.138-.032.029.026-.071-.197-.03-.049.023.081-.03.252.04.008-.04.15.106-.14.04-.059.108-.13.215-.207.354-.292-.487-.625-.968-1.252-1.451-1.877-.164.168-.276.284-.382.353-.038.028-.357.169-.097.073-.081.029-.351.049-.025.021-.272.023.258.071.008.004.306.079-.026-.051.213.134-.071-.055-.18-.237-.002.021-.15-.219.081.258-.001.006-.03-.079-.049-.333-.018-.012-.006-.085-.002-.175.008-.262-.025.31.012.02.03-.049.091-.3-.11.201.045-.087.012-.021.215-.29.069-.118.077-.091.167-.171.26-.249-.136.118.217-.13.197-.118.063-.043.195-.11.264-.134-.31-.729-.615-1.457-.921-2.185-.236.148-.154.167-.323.065-.188-.112-.312-.485-.398-.667-.053-.108-.075-.242-.103-.357.028.115.004.201-.053.31-.12.247.097-.029-.097.104.091-.063.188-.114.282-.166.519-.295.948-.645 1.384-1.057.343-.325.487-.485.814-.319 1.378.692 2.592-1.374 1.212-2.07" fill="#f1f1f2"/><g><path d="m22.14 9.02c.262-1.108 3.577-2 4.328-1.822.747.177-.611 2.145-1.225 3.314-.633 1.212-1.219 2.469-1.964 2.289-.753-.173-1.403-2.672-1.139-3.781" fill="#0b7d70"/><path d="m34.953.871c4.62 3.057 8.558 11.921 6.172 15.524-2.382 3.602-12.395 3.924-17.02.872-4.616-3.057.578-6.568 2.959-10.168 2.389-3.603 3.266-9.282 7.886-6.228" fill="#be202e"/><path d="m40.16 15.736c-3.537-.14-7.126-.422-10.633-.946-2.68-.402-4.669-1.711-5.766-3.561-1.63 2.125-2.479 4.17.347 6.04 4.622 3.052 14.635 2.73 17.02-.872.126-.191.23-.402.323-.623-.433-.004-.864-.022-1.288-.036" fill="#991b2b"/><g fill="#2bb573"><path d="m21.557 2.934c.088-.023.538.322.564.367.637 1.156 3.584 2.321 4.01 2.465.982.333 1.789 1.236 1.418 1.597-.353.347-2.489-.093-2.918-.167-1.055-.178-2.21-.706-3.039-1.396-.869-.727-1.421-2.448-.035-2.866"/><path d="m25.824 3.02c.349-1.221 4.087-2.044 4.916-1.812.828.235-.781 2.358-1.526 3.64-.774 1.314-1.485 2.686-2.314 2.449-.824-.235-1.425-3.05-1.076-4.277"/></g><g fill="#e7e6e6"><path d="m36.03 4.854c.777.369.868 3.042.607 3.587-.256.55-1.482-.787-2.248-1.439-.784-.667-1.614-1.303-1.358-1.854.261-.544 2.225-.663 2.999-.294"/><path d="m37.763 12.246c.857-.084 2.309 2.157 2.374 2.757.056.607-1.68.093-2.67-.071-1.021-.167-2.059-.284-2.121-.883-.056-.606 1.559-1.718 2.417-1.803"/><path d="m29.11 13.256c.855-.083 2.312 2.159 2.374 2.76.061.605-1.676.091-2.668-.071-1.021-.167-2.057-.284-2.118-.885-.061-.607 1.558-1.719 2.412-1.804"/><path d="m29.04 8.985c.256.826 2.893 1.288 3.472 1.106.574-.184-.58-1.578-1.116-2.429-.548-.87-1.067-1.783-1.643-1.601-.577.183-.968 2.108-.713 2.924"/></g><path d="m23.706 10.168c-.104-1.017 2.435-2.745 3.12-2.815.686-.071.118 1.991-.06 3.161-.179 1.212-.299 2.445-.986 2.514-.684.07-1.968-1.846-2.074-2.86" fill="#04a69c"/></g></g></svg>