<svg xmlns="http://www.w3.org/2000/svg" viewBox="0 0 64 64" enable-background="new 0 0 64 64"><g transform="translate(0 6)"><g fill="#b63148"><path d="m30.689 7.428c-6.946 4.293-11.622 13.191-13.363 20.05-1.856 7.308-3.097 15.06-8.624 20.725-.794.811-.282 1.451.727 1.01 2.94-1.279 5.543-2.94 8.01-4.896.983 2.98.066 6.218-.667 9.22-.333 1.365 1.976-.06 2.306-.336 7.294-6.04 6.396-14.845 9.284-23.2 7.653-22.11 7.246-25.614 2.33-22.574"/><path d="m36.496 30.938c2.891 8.355 1.992 17.16 9.286 23.2.33.274 2.638 1.699 2.304.335-.729-3-1.651-6.237-.664-9.218 2.464 1.955 5.065 3.617 8.01 4.896 1.01.438 1.52-.198.725-1.01-5.526-5.664-6.771-13.417-8.621-20.725-1.743-6.858-6.421-15.755-13.365-20.05-4.917-3.043-5.321.462 2.327 22.575"/><path d="m 10.265,0 c 6.83,0 21.71,4.858 21.71,10.853 0,5.991 -14.88,10.849 -21.71,10.849 C 3.435,21.702 0,16.844 0,10.853 0,4.858 3.435,0 10.265,0 z"/><path d="m53.685 0c-6.829 0-21.71 4.858-21.71 10.853 0 5.991 14.881 10.849 21.71 10.849 6.83 0 10.265-4.858 10.265-10.849 0-5.995-3.435-10.853-10.265-10.853"/></g><path d="m44.559 9.61c0 4.634-3.761 8.393-8.395 8.393h-8.381c-4.638 0-8.393-3.759-8.393-8.393 0-4.634 3.755-8.393 8.393-8.393h8.381c4.634 0 8.395 3.759 8.395 8.393" fill="#de374b"/></g></svg>