<svg xmlns="http://www.w3.org/2000/svg" viewBox="0 0 64 64" enable-background="new 0 0 64 64"><g fill="#749498"><path d="m31.18 40.02h-11.308c-.997 0-1.81.825-1.81 1.841v10.908.662 6.364.664.913c0 1.014.813 1.841 1.81 1.841h11.308c.997 0 1.81-.827 1.81-1.841v-.913-.664-4.82-.664-12.45c0-1.016-.813-1.841-1.81-1.841"/><path d="m52.07 40.02h-11.308c-.997 0-1.81.825-1.81 1.841v10.908.662 6.364.664.913c0 1.014.812 1.841 1.81 1.841h11.308c.996 0 1.81-.827 1.81-1.841v-.913-.664-4.82-.664-12.45c0-1.016-.814-1.841-1.81-1.841"/></g><g fill="#7fa3ac"><path d="m61.44 27.899c-1.312 15.763-10.649 23.713-23.789 23.713-13.14 0-23.789-10.616-23.789-23.713 0-13.1 10.652-23.716 23.789-23.716 27.308 0 24.894 10.465 23.789 23.716"/><path d="m54.939 40.02h-10.04c-.888 0-1.606.825-1.606 1.841v10.908.662 6.364.664.913c0 1.014.719 1.841 1.606 1.841h10.04c.883 0 1.604-.827 1.604-1.841v-.913-.664-4.82-.664-12.45c0-1.016-.721-1.841-1.604-1.841"/><path d="m62.66 29.1c-.141-2.529-.625-10.112-.625-10.112l-1.356 1.931c-.552 0 .447 3.1-.164 6.97-.155.981-.343 2.02-.45 2.488l-.484.129-.285.788c-.296.817-.339 2.416-.086 3.226.266.86.58 1.703.895 2.535.679 1.798 1.319 3.495 1.446 5.422.031.465.485 5.682-.867 5.056-1.419-3.795-1.067-4.849-1.717-4.942-1.273-.184-.834 5.334.694 6.989.463.5 2.729 2.032 4.103-2.092.858-2.579-1.038-17.2-1.104-18.388"/><path d="m35.467 40.02h-11.306c-1 0-1.812.825-1.812 1.841v10.908.662 6.364.664.913c0 1.014.811 1.841 1.812 1.841h11.306c.995 0 1.811-.827 1.811-1.841v-.913-.664-4.82-.664-12.45c0-1.016-.816-1.841-1.811-1.841"/></g><path d="m15.767 28.27c-.447.672-5.797 1.202-7.573-1.528l1.446 11.03c0 .035-.014.068-.016.105.352.545.68 1.134.944 1.829 1.253 3.277 1.298 7.204-.158 10.212 3.717-1.231 6.401-5.934 6.553-11.635l.014-.535-.07-.335c-.104-.827-.579-4.625-1.14-9.145" fill="#749498"/><g fill="#7fa3ac"><path d="m8.776 47.652v.002z"/><path d="m12.562 16.673c-.377-2.393-2.312-3.976-4.306-3.522-1.996.448-3.315 2.762-2.936 5.154l3.418 21.698c-.045.679-.465 1.329-.956 1.495l-.209-.438c-1.548-2.59-3.293-2.639-4.2-2.432-1.317.295-3.1 1.879-3.01 3.815.145 2.396 1.116 4.544 2.73 6.05 1.698 1.577 3.895 2.217 6.02 1.753l.062-.008c3.896-.879 6.723-4.913 6.884-9.807l.012-.444-.071-.279c-.287-1.918-3.434-23.01-3.439-23.03m-3.786 30.979v.002"/></g><path d="m16.285 23.408c-3.104 3.458-2.748 28.12-1.01 26.23 3.67-3.987 5.634-10.758 6.592-15.683.813-4.193-1.255-15.369-5.586-10.547" fill="#edcba2"/><path d="m41.724 16.833c-1.046 11.183-8.475 16.83-18.931 16.83-10.456 0-18.931-7.536-18.931-16.83 0-9.297 8.475-16.833 18.931-16.833 21.728 0 19.806 7.425 18.931 16.833" fill="#749498"/><path d="m39.665 16.833c-1.043 11.183-8.474 16.83-18.928 16.83-10.456 0-18.931-7.536-18.931-16.83 0-9.297 8.475-16.833 18.931-16.833 21.727 0 19.806 7.425 18.928 16.833" fill="#7fa3ac"/><path d="m49.775 26.799c-4.319 4.245-9.834 3.651-14.893-.492-5.058-4.142-6.586-10.636-3.416-14.506 3.168-3.87 9.836-3.647 14.893.497 10.509 8.606 7.05 10.936 3.416 14.501" fill="#648082"/><path d="m20.893 13.681c.374 1.985-.637 3.84-2.24 4.151-1.614.307-3.215-1.047-3.583-3.03-.369-1.986.639-3.842 2.248-4.155 1.609-.305 3.212 1.049 3.575 3.037" fill="#25333a"/><path d="m47.774 24.798c-4.319 4.245-9.835 3.651-14.893-.493-5.058-4.142-6.587-10.636-3.417-14.506 3.168-3.87 9.836-3.647 14.893.497 10.51 8.607 7.05 10.937 3.417 14.502" fill="#7fa3ac"/></svg>