<svg xmlns="http://www.w3.org/2000/svg" viewBox="0 0 64 64" enable-background="new 0 0 64 64"><g transform="translate(0 22)" fill-rule="evenodd"><path d="m34.825 19.17c-.046-3.743-.353-7.197-.891-10.591-.063-.001-.126-.021-.186-.034-.16.39-.316.78-.479 1.166-.188.449-.439.764-.796.51-.117-.081-.206-.392-.235-.619-.075-.596.208-.875.497-1.112.06-.047.145-.008.214-.047.419-.25.495-.726.194-1.254-.228-.397-.475-.77-.788-1.274-.241.597-.425 1.167-.683 1.634-.154.275-.429.524-.657.528-.148.004-.453-.493-.425-.67.058-.38.273-.966.449-.989.516-.065.639-.611.777-1.116-.36-.449-.726-.91-1.179-1.476-.204.561-.394 1.171-.647 1.713-.104.22-.34.36-.526.399-.099.022-.315-.257-.317-.405-.004-.35.02-.801.158-1.037.194-.334.511-.5.764-.762.257-.263.289-.526-.016-.797-.128-.115-.22-.327-.334-.485-.526-.718-.797-.613-1.084.39-.154.538-.327 1.147-.805.898-.166-.085-.376-.587-.338-.809.058-.346.301-.631.483-.916.192-.303.603-.724.57-.833-.145-.455-.39-.878-.665-1.167-.087-.095-.39.211-.57.403-1.29 1.417-2.562 2.876-3.864 4.27-.688.732-1.389 1.466-2.146 2-.851.605-1.776.963-2.661 1.476-1.5.87-3.062.945-4.625.775-.788-.085-1.571-.447-2.346-.736-.738-.275-1.474-.584-2.194-.95-.666-.336-1.306-.773-1.96-1.156-.524-.307-1.047-.644-1.585-.895-.779-.364-1.571-.688-2.362-.987-.407-.155-.687-.024-.716.789-.022.582-.103 1.259-.321 1.699-.528 1.057.175 1.338.455 1.678.902 1.098 1.905 1.996 2.811 3.088 1.243 1.5 2.463 3.056 3.634 4.682 1.219 1.689 2.376 3.482 3.542 5.254.322.491.633.819 1.116.851 1.167.075 2.334.277 3.501.36.224.02.495-.214.685-.443 1.537-1.84 3.061-3.703 4.582-5.571.677-.831 1.391-.348 2.097-.174.101.024.192.15.297.17.908.174 1.826.289 2.728.522.708.178 1.4.511 2.103.756.425.15.856.281 1.288.404.649.182 1.3.34 1.949.526.222.063.438.198.661.249.302.068.611.084.846.111" fill="#60401c"/><g fill="#9e6a36"><path d="m35.3 11.596c.087.649.146 1.104.214 1.555.031.202.097.396.11.597.107 1.725.202 3.454.309 5.184.026.439.071.874.129 1.302.081.605-.103 1.021-.515.926-.793-.186-1.58-.471-2.368-.72-.502-.158-.997-.356-1.503-.475-1.286-.301-2.576-.546-3.857-.847-.968-.225-1.929-.486-2.889-.768-.833-.241-1.476.261-2.085.974-.964 1.127-1.935 2.243-2.896 3.367-.17.198-.333.412-.594.74.4.158.695.312 1 .388 1.133.281 2.267.542 3.4.803.671.154 1.354.242 2.01.471.924.316 1.83.744 2.746 1.112.392.154.789.261 1.183.419 1.052.419 2.104.834 3.147 1.293.775.34 1.529.784 2.303 1.116.445.194.91.289 1.371.38.86.17 1.729.404 2.6.436 1.757.071 3.521.119 5.276-.004 1.438-.103 2.87-.459 4.307-.705.018-.004.035-.008.035-.008 1.07-.162 2.129-.289 3.178-.495.949-.182 1.892-.447 2.839-.677.071-.016.143-.035.214-.047 1.034-.146 2.071-.257 3.1-.443 1.296-.238 2.586-.534 3.878-.815.093-.02.218-.106.259-.217.25-.653-.075-2.797-.514-3.296-.171-.194-.402-.372-.611-.384-2.349-.119-4.701-.218-7.05-.301-.83-.028-1.665-.004-2.504.079.247 0 .492 0 .737 0 0 .032 0 .055 0 .087-.753 0-1.509 0-2.265 0-.002-.004-.002-.016-.002-.02.178-.02.359-.036.54-.056 0-.043 0-.091.002-.134-1.122 0-2.243-.048-3.359.012-.945.051-1.628-.768-2.343-1.389-1.736-1.504-3.456-3.062-5.121-4.721-1.332-1.321-2.576-2.817-3.864-4.233-.122-.134-.26-.232-.543-.486"/><path d="m1.569 8.525c-.139 1.225-.198 2.235-.368 3.198-.512 2.873-.206 5.793-.289 8.685-.02.724.145.95.623.954 1.195 0 2.388.083 3.583.162 1.553.107 3.104.229 4.655.372.576.055 1.149.206 1.727.289.17.027.342-.024.576-.044-3.165-5.183-6.59-9.71-10.507-13.616"/><path d="m43.16 19.794c0 0 2.833 1.796 3.452 1.828.623.036 15.322-1.413 15.427 2.192.107 3.608-1.996 1.437-1.996 1.437 0 0-3.66.744-4.212.649-.552-.099-5.801-.202-6.04-.167-.243.032-1.657-.138-2-.103-.346.031-4.629-5.698-4.629-5.698"/></g><path d="m62.934 25.718c-.002-.008-.006-.012-.008-.02 0 0-.016.004-.021.008-2.659-1.045-9.542 1.638-9.542 1.638 0 0-8.275 1.982-13.656 1.943-.954-.008-1.533-.004-1.917-.02-.268-.056-.534-.115-.802-.174-.486-.329-.928-1.234-8.208-3.798-3.142-1.104-5.931-1.824-8.341-2.283-.075-.023-.152-.04-.224-.059-.123-.032-.243-.079-.37-.135-.601-.079-1.199-.178-1.798-.281-.001 0-.02.004-.031.004-.574-.043-1.147-.111-1.719-.182-.999-.087-1.999-.17-2.996-.261-.123-.012-.247-.02-.37-.032-.184.024-.331.052-.475.032-.273-.04-.544-.095-.819-.146-.154-.016-.309-.031-.461-.043-6.07-1.183-8.629-1.139-9.71-.906-.17.008-.332.059-.482.15-.283.13-.305.253-.305.253-.408.446-.679 1.218-.679 2.096v5.239c0 1.381.665 2.5 1.49 2.5h15.936c.823 0 1.49-1.12 1.49-2.5v-1.769c2.081.582 8.131 2.307 13.916 4.325.33.126.658.245.987.372.953.356 1.911.705 2.87 1.037.02.012.038.02.06.028 0 0 .041.016.127.04.079.028.158.06.237.087.134.044.272.067.411.079.556.123 1.421.258 2.627.312l.002.017c.754 0 1.514.039 2.268-.009.056-.004.108-.008.166-.012 1.019-.047 2.179-.146 3.49-.324.914-.115 1.824-.289 2.731-.479 1.217-.257 2.432-.526 3.648-.835.817-.21 1.634-.495 2.453-.748.034-.008.071-.012.107-.02.979-.174 1.962-.312 2.936-.53.893-.202 1.776-.491 2.663-.736.106-.032.215-.048.322-.063.77-.139 1.535-.269 2.301-.419.191-.036.35-.316.434-.665.567-1.528.17-2.344-.738-2.711" fill="#25333a"/></g></svg>