<svg xmlns="http://www.w3.org/2000/svg" viewBox="0 0 64 64" enable-background="new 0 0 64 64"><g transform="translate(2)"><g fill="#243438"><path d="m42.52 63.35c-1.553.746-3.034.886-3.312.308l-15.962-33.08c-.277-.576.753-1.652 2.308-2.403 1.551-.747 3.039-.888 3.314-.308l15.96 33.08c.276.575-.758 1.656-2.308 2.406"/><path d="m43.603 21.691c0 11.989-9.718 21.691-21.693 21.691-11.977 0-21.693-9.702-21.693-21.691 0-11.989 9.716-21.691 21.693-21.691 11.975 0 21.693 9.702 21.693 21.691"/></g><path d="m41.4 21.691c0 10.766-8.731 19.485-19.489 19.485-10.759 0-19.487-8.719-19.487-19.485 0-10.77 8.728-19.485 19.487-19.485 10.758 0 19.489 8.715 19.489 19.485" fill="#30434a"/><path d="m39.26 21.691c0 9.583-7.769 17.344-17.347 17.344-9.574 0-17.345-7.762-17.345-17.344 0-9.585 7.771-17.345 17.345-17.345 9.578 0 17.347 7.76 17.347 17.345" fill="#1e75bb"/><g><circle cx="21.91" cy="21.691" r="15.205" fill="#57c6e9"/><path d="m13.557 8.956c-4.123 2.711-6.852 7.387-6.852 12.702 0 8.396 6.807 15.205 15.205 15.205.148 0 .297-.02.445-.024-14.915-7.393-11.231-22.744-8.798-27.883" fill="#27a8e0"/></g></g></svg>