<svg xmlns="http://www.w3.org/2000/svg" viewBox="0 0 64 64" enable-background="new 0 0 64 64"><path fill="#bcbdbf" d="m23.21 26.92c1.641 1.641 1.641 4.301 0 5.94-1.643 1.641-4.299 1.641-5.939 0l-15.948-15.947c-1.643-1.643-1.643-4.299 0-5.939 1.641-1.638 4.297-1.638 5.938 0l15.949 15.946"/><path fill="#a7a8ac" d="m.924 11.458c-1.216 1.643-1.092 3.964.397 5.455l15.947 15.947c1.489 1.491 3.811 1.612 5.455.395l-21.799-21.797"/><path fill="#bcbdbf" d="m15.941 1.078c-1.641-1.641-4.297-1.641-5.938 0-1.643 1.639-1.643 4.297 0 5.936l15.947 15.952c1.641 1.638 4.297 1.638 5.938 0 1.643-1.643 1.643-4.301 0-5.939l-15.947-15.949"/><path fill="#a7a8ac" d="m31.406 23.355c-1.645 1.218-3.966 1.095-5.455-.39l-15.947-15.951c-1.491-1.49-1.615-3.813-.397-5.455l21.799 21.796"/><path fill="#243438" d="m37.34 13.493c-3.243-3.243-8.587 1.677-14.921 8.01-6.336 6.341-11.252 11.683-8.01 14.925 2.479 2.483 10.789 4.745 17.381 2.799 4.695 4.698 9.392 9.394 14.09 14.09 3.038 3.036 6.078 6.078 9.114 9.116.196.194.414.297.482.23 1.72-1.718 3.433-3.435 5.151-5.154.977-.979 1.962-1.965 2.943-2.944.068-.064-.034-.281-.23-.478-4.775-4.779-9.552-9.559-14.333-14.333-2.957-2.961-5.914-5.918-8.871-8.875 1.944-6.594-.313-14.9-2.8-17.385"/><g fill="#34484c"><path d="m31.795 39.22c0 0 2.552-1.621 3.687-2.59l-3.03-3.03c-4.472 2.163-9.21 3.64-14.05 1.765-2.059-.803-3.659-2.085-4.429-3.667-.832 1.852-.828 3.45.444 4.723 2.482 2.48 10.79 4.744 17.38 2.798"/><path d="m33.12 40.547l21.883 21.885c.194.192.416.297.482.23l3.01-3.02-21.869-21.87c-1.109.993-2.271 1.925-3.506 2.77"/></g><path fill="#243438" d="m37.03 12.595c2.046 2.046-1.56 8.975-8.05 15.465-6.494 6.499-13.419 10.1-15.467 8.05-2.046-2.05 1.558-8.971 8.05-15.467 6.494-6.494 13.419-10.1 15.469-8.05"/><path fill="#34484c" d="m35.891 15.368c1.599 1.591-1.502 7.279-6.912 12.692-5.415 5.413-11.1 8.508-12.692 6.906-1.6-1.594 1.494-7.277 6.906-12.696 5.412-5.411 11.1-8.502 12.698-6.902"/><path fill="#243438" d="m30.871 40.732c3.164 3.166 6.327 6.33 9.493 9.496 2.02 2.01 4.02 4.02 6.04 6.04.128.131.312.158.401.068 2.278-2.276 4.555-4.555 6.833-6.831 1.302-1.304 2.607-2.604 3.906-3.908.092-.092.062-.273-.068-.401-3.163-3.166-6.327-6.33-9.495-9.491-2.01-2.02-4.02-4.03-6.04-6.04-.07-.068-.139-.107-.202-.118h-.011c-.005-.004-.005-.002-.013 0-.062-.011-.126-.002-.176.049-2.276 2.276-4.557 4.555-6.831 6.829-1.301 1.301-2.605 2.606-3.908 3.91-.089.089-.059.274.069.402"/><path fill="#34484c" d="m30.871 40.732c3.164 3.166 6.327 6.33 9.493 9.496 2.02 2.01 4.02 4.02 6.04 6.04.128.131.312.158.401.068 2.278-2.276-9.82-22.19-12.09-19.913-1.301 1.301-2.605 2.606-3.908 3.91-.089.089-.059.274.069.402"/></svg>