<svg xmlns="http://www.w3.org/2000/svg" viewBox="0 0 64 64" enable-background="new 0 0 64 64"><g fill="#405866"><path d="m13.828 34.449l-13.867-11.644 13.737-11.7c1.923.137 3.442 1.39 3.449 2.92l.011 2.604 39.04-.07c2.106-.011 3.827 1.646 3.838 3.707l.026 4.824c.008 2.058-1.691 3.723-3.797 3.734l-39.04.066.013 2.6c.011 1.529-1.484 2.798-3.408 2.959"/><path d="m2.162 37.16h8.382c1.398 0 2.47.347 3.217 1.04.749.691 1.124 1.548 1.124 2.568 0 .857-.268 1.594-.802 2.207-.355.406-.875.73-1.562.967 1.042.252 1.808.682 2.299 1.292.49.606.736 1.374.736 2.296 0 .751-.175 1.429-.525 2.028-.349.6-.827 1.075-1.433 1.421-.376.218-.943.378-1.7.476-1.01.132-1.678.198-2.01.198h-7.73v-14.493m4.517 5.686h1.948c.698 0 1.185-.12 1.458-.361.274-.24.411-.588.411-1.042 0-.424-.137-.753-.411-.99-.272-.236-.75-.354-1.428-.354h-1.978v2.747m0 5.693h2.284c.772 0 1.314-.138 1.631-.41.316-.272.475-.641.475-1.104 0-.428-.156-.771-.469-1.03-.313-.261-.862-.391-1.646-.391h-2.275v2.935"/><path d="m26.462 49.26h-5.085l-.707 2.394h-4.572l5.448-14.493h4.885l5.444 14.493h-4.688l-.725-2.394m-.93-3.132l-1.599-5.208-1.582 5.208h3.181"/><path d="m42.581 45.726l3.925 1.187c-.265 1.101-.68 2.02-1.245 2.757-.568.738-1.271 1.296-2.111 1.671-.841.373-1.908.564-3.207.564-1.576 0-2.862-.231-3.859-.688-.999-.457-1.861-1.262-2.587-2.415-.724-1.152-1.087-2.627-1.087-4.426 0-2.396.639-4.237 1.912-5.525 1.276-1.287 3.079-1.932 5.414-1.932 1.825 0 3.26.368 4.305 1.106 1.043.738 1.82 1.873 2.327 3.401l-3.954.878c-.139-.439-.283-.764-.436-.967-.25-.345-.557-.607-.917-.791-.363-.187-.771-.278-1.218-.278-1.015 0-1.792.408-2.332 1.227-.41.604-.613 1.554-.613 2.851 0 1.606.243 2.708.731 3.304.487.598 1.174.894 2.055.894.858 0 1.506-.241 1.943-.722.438-.483.756-1.182.954-2.096"/><path d="m48.703 37.16h4.477v5.478l4.689-5.478h5.957l-5.289 5.473 5.525 9.02h-5.517l-3.053-5.96-2.312 2.423v3.536h-4.477v-14.493"/></g></svg>