<svg xmlns="http://www.w3.org/2000/svg" viewBox="0 0 64 64" enable-background="new 0 0 64 64"><path fill="#fbb041" d="m63.29 31.941c0 17.476-14.167 31.645-31.645 31.645-17.48 0-31.649-14.169-31.649-31.645 0-17.48 14.169-31.649 31.649-31.649 17.478 0 31.645 14.169 31.645 31.649"/><ellipse fill="#fff" cx="42.16" cy="27.514" rx="6.432" ry="9.631"/><path fill="#25333a" d="m37.998 27.514c0 2.787 1.86 5.05 4.16 5.05 2.301 0 4.161-2.259 4.161-5.05 0-2.787-1.86-5.05-4.161-5.05-2.3 0-4.16 2.26-4.16 5.05"/><g opacity=".987"><path fill="#e79d3c" d="m15.06 41.1c-5.608-12.03-5.86-24.985-.789-35.69-8.591 5.659-14.274 15.381-14.274 26.438 0 17.476 14.169 31.645 31.649 31.645.312 0 .614-.039.924-.047-7.252-6.105-13.365-13.454-17.51-22.346"/></g><ellipse fill="#fff" cx="20.649" cy="27.19" rx="6.432" ry="9.631"/><ellipse fill="#25333a" cx="20.649" cy="27.19" rx="4.161" ry="5.05"/><path fill="#633d19" d="m45.04 42.849c-10.166-1.612-21.15 1.373-30.25 5.839-2.02.993-.592 4.192 1.442 3.195 8.56-4.201 18.866-7.07 28.44-5.55 2.234.355 2.591-3.131.366-3.484"/></svg>