<svg xmlns="http://www.w3.org/2000/svg" viewBox="0 0 64 64" enable-background="new 0 0 64 64"><path fill="#633d19" d="m52.3 31.752c0 11.43-9.276 20.7-20.707 20.7-11.422 0-20.699-9.27-20.699-20.7v-11.05c0-11.43 9.277-20.699 20.699-20.699 11.431 0 20.707 9.269 20.707 20.699v11.05"/><path fill="#ed307c" d="m47.4 62.45v-5.188c0-7.787-7.08-14.11-15.805-14.11-8.732 0-15.811 6.321-15.811 14.11v5.188h31.616"/><path fill="#fbb042" d="m14.357 28.395c0 6.945 7.708 12.571 17.239 12.571 9.516 0 17.235-5.626 17.235-12.571 0-6.941-7.72-24.06-17.235-24.06-9.532 0-17.239 17.12-17.239 24.06"/><path fill="#cf2874" d="m22.998 48.26c3.54 0 14.935 0 17.188 0 .139 0-.774-7.322-.774-8.323 0-.067-15.785-.127-15.785-.127s-.768 8.45-.629 8.45"/><g fill="#25333a"><path d="m28.25 27.18c0 1.697-1.14 3.079-2.539 3.079-1.402 0-2.531-1.382-2.531-3.079 0-1.708 1.128-3.079 2.531-3.079 1.399 0 2.539 1.371 2.539 3.079"/><path d="m40.32 27.18c0 1.697-1.138 3.079-2.534 3.079-1.411 0-2.547-1.382-2.547-3.079 0-1.708 1.136-3.079 2.547-3.079 1.397 0 2.534 1.371 2.534 3.079"/></g><path fill="#633d19" d="m45.34 21.49c.027-4.327.043-8.634.095-13.04-7.831-7.62-19.04-6.409-27.08 1.351-.083 4.341-.171 8.582-.262 12.845 8.955-1.101 18.13-1.486 27.24-1.156"/><path fill="#cf2874" d="m61.894 33.16c-1.819-2.164-9.06.653-12.816 4.987-1.617 1.868-13.945 14.633-22.61 16.381-.34.071-3.322 1.836-3.282 2.285.163 1.958 1.235 3.31 2.789 4.191 4.108 2.324 11.74 1.318 16.213-1.108 5.845-3.179 11.192-8.09 14.02-12.952 1.01-1.715 5.776-9.146 5.975-12.512.031-.536-.049-.984-.287-1.272"/><path fill="#fbb042" d="m61.29 17.62c1.71-.286 2.94 2.586 2.186 5.09-.33 1.077-1.355 8.538.17 11.641.95 1.931-1.979 2.499-2.972 2.407-2.61-.254-4.866-2.594-5.292-4.612-.564-2.639 5.682-14.486 5.908-14.526"/><path fill="#cf2874" d="m1.938 33.01c1.815-2.161 9.06.655 12.812 4.99 1.617 1.867 13.949 14.633 22.61 16.381.342.067 3.321 1.831 3.282 2.28-.159 1.959-1.231 3.31-2.785 4.195-4.108 2.324-11.745 1.315-16.214-1.112-5.844-3.175-11.196-8.089-14.03-12.952-1-1.712-5.773-9.146-5.967-12.507-.036-.54.044-.989.287-1.275"/><path fill="#fbb042" d="m2.541 17.465c-1.708-.286-2.94 2.59-2.181 5.089.326 1.077 1.351 8.538-.175 11.645-.945 1.928 1.979 2.495 2.976 2.404 2.606-.255 4.863-2.591 5.292-4.613.56-2.634-5.685-14.485-5.912-14.525"/><g fill="#633d19"><path d="m21.484 22.69c.183.067.37.135.556.205.028.001.052.002.08.006.032.004.06.012.091.004.06-.008.111-.034.163-.067.012-.008.024-.006.036-.012 2.042-1.412 3.957-1.198 5.161.676.647 1 .354 1.573 1.315 1.927.389.145.783-.465.691-.952-.814-4.454-4.482-5.811-8-2.962-.381.309-.484 1.028-.091 1.175"/><path d="m41.695 22.69c-.183.067-.37.135-.553.205-.027.001-.052.002-.083.006-.028.004-.056.012-.092.004-.06-.008-.111-.034-.162-.067-.013-.008-.019-.006-.032-.012-2.046-1.412-3.957-1.198-5.165.676-.647 1-.354 1.573-1.311 1.927-.39.145-.787-.465-.695-.952.814-4.454 4.485-5.811 8-2.962.386.309.486 1.028.092 1.175"/></g><path fill="#633f1a" d="m37.4 38.41c-.306 0-.612 0-.918 0-.044 0-.079-.016-.123-.024-.044-.008-.092-.008-.135-.027-.08-.03-.144-.075-.203-.129-.012-.001-.023-.014-.039-.026-2.205-2.153-5.102-2.646-7.863-1.226-1.478.763-1.359 1.433-2.944 1.433-.647 0-.89-.751-.497-1.202 3.576-4.126 9.643-4.126 13.218 0 .394.45.152 1.201-.496 1.201"/></svg>