<svg xmlns="http://www.w3.org/2000/svg" viewBox="0 0 64 64" enable-background="new 0 0 64 64"><g transform="translate(0 10)"><path fill="#e1ad81" d="m0 38.733h64v16.959h-64z"/><path fill="#63797b" d="m0 55.692l8.04-18.502h31.805l8.04 18.502z"/><path fill="#3d4d4c" d="m4.398 55.692l6.567-15.1h25.958l6.566 15.1z"/><path d="m44.43 22.18c0 11.68-4.621 21.15-10.32 21.15h-20.324c-5.701 0-10.322-9.469-10.322-21.15 0-11.678 4.621-21.15 10.322-21.15h20.323c5.7 0 10.321 9.47 10.321 21.15" fill="#d1d2d3"/><path d="m21 27.86c-5.954-4.283-12.11-9.361-16.356-15.504-.752 2.938-1.184 6.277-1.184 9.824 0 11.68 4.621 21.15 10.322 21.15h20.323c2.613 0 4.996-2.01 6.816-5.295-7.04-2.436-13.757-5.74-19.921-10.173" fill="#bcbdbf"/><path d="m39.802 16.985c0 8.199-3.578 14.849-7.988 14.849h-15.736c-4.414 0-7.988-6.65-7.988-14.849 0-8.201 3.574-14.852 7.988-14.852h15.735c4.411 0 7.989 6.651 7.989 14.852" fill="#c12f49"/><path d="m39.802 15.618c0 8.201-3.578 14.85-7.988 14.85h-15.736c-4.414 0-7.988-6.648-7.988-14.85 0-8.203 3.574-14.852 7.988-14.852h15.735c4.411 0 7.989 6.649 7.989 14.852" fill="#243438"/><path d="m31.88 30.458c3.449-.047 6.371-3.539 7.461-8.398-9.801-4.02-18.566-9.5-24.07-16.732-1.352.217-2.602.98-3.664 2.127 2.416 9.702 9.766 19.06 20.278 23" fill="#a3d5e1"/><g fill="#fbed21"><path d="m14.633 35.657c-.85 1.426-2.594 1.955-3.898 1.178l-3.523-2.102c-1.305-.775-1.672-2.565-.822-3.994.852-1.424 2.598-1.951 3.898-1.174l3.527 2.102c1.304.777 1.667 2.562.818 3.99"/><path d="m33.61 35.657c.852 1.426 2.594 1.955 3.898 1.178l3.523-2.102c1.305-.775 1.672-2.565.82-3.994-.852-1.424-2.602-1.951-3.902-1.174l-3.52 2.102c-1.303.777-1.671 2.562-.819 3.99"/></g><g fill="#243438"><path d="m58.97 18.255c0 2.168-1.758 3.926-3.926 3.926-2.172 0-3.926-1.758-3.926-3.926v-14.52c0-2.168 1.754-3.926 3.926-3.926 2.168 0 3.926 1.758 3.926 3.926v14.52"/><path d="m53.825 17.462c0 6.369 0 12.736 0 19.11 0 4.049 0 8.105 0 12.156 0 .262.02.473.039.473.5 0 1 0 1.5 0 .285 0 .57 0 .859 0 .02 0 .031-.211.031-.473 0-6.369 0-12.74 0-19.11 0-4.057 0-8.109 0-12.154 0-.141-.004-.25-.008-.324v-.001c0 0 0-.008 0-.014-.004-.072-.012-.131-.012-.131-.512 0-1.012 0-1.516 0-.285 0-.57 0-.855 0-.018 0-.038.217-.038.479"/></g></g></svg>