<svg xmlns="http://www.w3.org/2000/svg" viewBox="0 0 64 64" enable-background="new 0 0 64 64"><path fill="#1b75bb" d="M64.041,57.137c0,3.816-3.088,6.908-6.902,6.908H6.9c-3.81,0-6.9-3.092-6.9-6.908V6.904    C0,3.094,3.09,0,6.9,0h50.238c3.814,0,6.902,3.094,6.902,6.904V57.137z"/><path fill="#0867a3" d="m0 48.765v8.372c0 3.816 3.09 6.908 6.9 6.908h50.24c3.814 0 6.902-3.092 6.902-6.908v-50.23c-10.936 39.724-50.25 42.24-64.04 41.861"/><g fill="#fff"><path d="m44.793 52.729c0 1.945-1.965 3.519-4.385 3.519h-16.624c-2.419 0-4.385-1.573-4.385-3.519v-22.666c0-1.941 1.965-3.521 4.385-3.521h16.624c2.42 0 4.385 1.58 4.385 3.521v22.666"/><path d="m51.44 53.34c0 1.607-1.024 2.907-2.289 2.907h-8.695c-1.265 0-2.289-1.3-2.289-2.907v-18.723c0-1.605 1.024-2.906 2.289-2.906h8.695c1.265 0 2.289 1.3 2.289 2.906v18.723"/><path d="m25.911 53.34c0 1.607-1.023 2.907-2.295 2.907h-8.716c-1.267 0-2.296-1.3-2.296-2.907v-18.723c0-1.605 1.029-2.906 2.296-2.906h8.716c1.272 0 2.295 1.3 2.295 2.906v18.723"/><path d="m32.02 17.37c-4.75 0-8.602 4.839-8.602 10.803 0 5.964 3.852 10.8 8.602 10.8 4.753 0 8.604-4.836 8.604-10.8 0-5.965-3.852-10.803-8.604-10.803m0 19.745c-3.934 0-7.125-4-7.125-8.942 0-4.939 3.191-8.944 7.125-8.944 3.935 0 7.125 4 7.125 8.944 0 4.941-3.191 8.942-7.125 8.942"/><path d="m21.868 18.278l-12.28-6.915 12.2-6.991c1.706.079 3.049.822 3.053 1.735l.008 1.548 23.18-.057c1.869-.001 3.39.974 3.397 2.197l.012 2.874c.008 1.224-1.499 2.223-3.369 2.233l-23.18.058.006 1.548c.007.913-1.318 1.668-3.03 1.77"/></g></svg>