<svg xmlns="http://www.w3.org/2000/svg" viewBox="0 0 64 64" enable-background="new 0 0 64 64"><path fill="#1b75bb" d="M63.915,57.025c0,3.809-3.082,6.895-6.887,6.895H6.886C3.083,63.92,0,60.834,0,57.025V6.891    C0,3.086,3.083,0,6.886,0h50.142c3.805,0,6.887,3.086,6.887,6.891V57.025z"/><path fill="#0867a3" d="m0 48.669v8.356c0 3.809 3.083 6.895 6.886 6.895h50.14c3.805 0 6.887-3.086 6.887-6.895v-50.13c-10.912 39.646-50.15 42.16-63.915 41.778"/><path fill="#fff" d="m25.2 17.929l24.308-2.201-1.269 24.292c-1.924 1.712-4.559 1.971-6.07.52l-2.568-2.462-11.553 12.04c-1.946 2.024-5.166 2.095-7.193.151l-4.759-4.57c-2.028-1.946-2.093-5.166-.149-7.193l11.554-12.04-2.566-2.46c-1.508-1.449-1.363-4.084.261-6.08"/></svg>