<svg xmlns="http://www.w3.org/2000/svg" viewBox="0 0 64 64" enable-background="new 0 0 64 64"><path fill="#ec1c24" d="m58.34 13.876c9.999 14.56 6.303 34.463-8.254 44.46-14.561 10-34.465 6.307-44.46-8.254-9.997-14.558-6.303-34.466 8.256-44.46 14.556-9.999 34.465-6.303 44.46 8.254"/><path fill="#be1e2d" d="m27.731.291c-16.245 2.158-28.433 16.417-27.695 33.1.783 17.645 15.717 31.31 33.364 30.535 11.5-.509 21.309-7.04 26.53-16.405-46.05 2.768-56.38-27.734-32.2-47.23"/><g fill="#fff"><path d="m25.17 40.07c.134.17.396.087.498-.064.802-1.205 1.605-2.408 2.408-3.612.082-.123.042-.283-.049-.385-2.348-2.632-5.02-4.948-7.829-7.07 1.941-3.02 3.566-6.23 5.02-9.509.198-.446.393-.896.583-1.345.068-.156.109-.266.109-.428 0-.384 0-.77 0-1.155 0-.78 0-1.561 0-2.341 0-.173-.145-.317-.317-.317-1.861 0-3.721 0-5.583 0-.653-2.262-1.566-4.44-2.774-6.466-.069-.12-.222-.189-.357-.146-1.271.4-2.542.802-3.814 1.204-.186.059-.306.288-.189.464 1.01 1.527 1.751 3.191 2.264 4.943-2.068 0-4.136 0-6.205 0-.093 0-.165.034-.214.084-.005.003-.007.005-.001.009 0 .003-.004.006-.007.007-.05.052-.085.123-.085.216 0 1.205 0 2.408 0 3.612 0 .172.146.317.317.317 3.921 0 7.843 0 11.764 0-2.977 6.907-7.106 13.654-13.329 18.07-.132.093-.22.283-.114.433.803 1.138 1.605 2.276 2.409 3.413.096.135.28.213.434.113 2.058-1.335 3.789-3.11 5.343-4.999 0 3.67 0 7.343 0 11.01 0 2.654 0 5.308 0 7.963 0 .172.144.316.316.316 1.271 0 2.542 0 3.813 0 .174 0 .316-.145.316-.316 0-3.886 0-7.772 0-11.657 0-2.815 0-5.627 0-8.441 1.875 1.924 3.631 3.957 5.281 6.074"/><path d="m54.98 44.958c-1.204-.401-2.408-.803-3.612-1.205-.205-.067-.392.111-.401.307-.061 1.111-.127 2.227-.278 3.328-.07.493-.1 1.246-.479 1.617-.596.586-1.826.545-2.586.558-.784.012-1.859-.068-2.165-.939-.157-.448-.08-1.057-.08-1.524 0-.977 0-1.956 0-2.932 0-4.279 0-8.558 0-12.835 1.7 0 3.401 0 5.103 0 .173 0 .316-.146.316-.318 0-3.894 0-7.787 0-11.68 0-2.998 0-5.994 0-8.992 0-.172-.144-.316-.316-.316-3.776 0-7.556 0-11.333 0-3.581 0-7.163 0-10.744 0-.094 0-.165.034-.214.084-.004.003-.008.006-.009.009-.003.003-.005.005-.008.009-.051.051-.085.122-.085.215 0 3.894 0 7.786 0 11.68 0 2.998 0 5.994 0 8.991 0 .172.144.318.317.318 1.558 0 3.113 0 4.671 0-.375 3.903-1.29 7.796-3.163 11.265-1.703 3.152-4.216 5.771-7.288 7.612-.139.082-.216.292-.115.433.871 1.204 1.74 2.408 2.609 3.612.098.137.277.212.434.114 3.02-1.891 5.539-4.438 7.417-7.464 2.082-3.357 3.305-7.192 3.991-11.06.265-1.49.442-2.999.564-4.508 1.135 0 2.27 0 3.405 0 0 3.973 0 7.947 0 11.919 0 1.907 0 3.813 0 5.718 0 1.081.062 2.194.613 3.153.804 1.398 2.698 1.532 4.133 1.633 1.634.114 3.316.097 4.938-.125.953-.13 2.05-.32 2.786-.999.67-.616.938-1.766 1.146-2.61.384-1.551.544-3.165.664-4.759.013-.143-.104-.263-.231-.305m-22.446-30.687c4.106 0 8.211 0 12.316 0 .5 0 1 0 1.502 0 0 4.058 0 8.115 0 12.173 0 .214 0 .427 0 .64-4.107 0-8.213 0-12.316 0-.501 0-1 0-1.502 0 0-4.057 0-8.115 0-12.172 0-.214 0-.427 0-.641"/></g></svg>