<svg width="24" height="24" viewBox="0 0 24 24" fill="none" xmlns="http://www.w3.org/2000/svg">
<path d="M4 6C4 6 4 3 11 3C18 3 18 6 18 6M4 6C4 6 4 9 11 9C18 9 18 6 18 6M4 6V12M18 6V12M11 21C4 21 4 18 4 18V12M4 12C4 12 4 15 11 15C11.6273 15 12.1984 14.9759 12.7183 14.932" stroke="black" stroke-width="1.5" stroke-linecap="round" stroke-linejoin="round"/>
<path d="M22.6664 17.6667C22.0476 16.097 20.6345 15 18.9901 15C17.2318 15 15.7377 16.2545 15.1968 18M22.6664 17.6667H20.9951M22.6664 17.6667V17.6667C22.8507 17.6667 23 17.5173 23 17.333V15.4444" stroke="black" stroke-width="1.5" stroke-linecap="round" stroke-linejoin="round"/>
<path d="M15.3336 20.3333C15.9524 21.903 17.3655 23 19.0099 23C20.7682 23 22.2623 21.7455 22.8032 20M15.3336 20.3333H17.0049M15.3336 20.3333V20.3333C15.1493 20.3333 15 20.4827 15 20.667V22.5556" stroke="black" stroke-width="1.5" stroke-linecap="round" stroke-linejoin="round"/>
</svg>
