<svg xmlns="http://www.w3.org/2000/svg" viewBox="0 0 64 64" enable-background="new 0 0 64 64"><switch><g><path fill="#e6e7e8" d="m0 24h64v16h-64z"/><path fill="#1b75bb" d="m54 10h-44c-6.627 0-10 4.925-10 11v3h64v-3c0-6.075-3.373-11-10-11"/><path fill="#1b75bb" d="m0 43c0 6.075 3.373 11 10 11h44c6.627 0 10-4.925 10-11v-3h-64v3"/><g><path fill="#1b75bb" d="m43.33 27.663l-1.94.002-.609-1.961-.591 1.961-1.95-.002 1.575 1.196-.605 1.949 1.574-1.212 1.576 1.212-.605-1.949z"/><path fill="#1b75bb" d="m43.33 34.541l-1.94.004-.609-1.962-.591 1.962-1.95-.004 1.575 1.197-.605 1.95 1.574-1.211 1.576 1.211-.605-1.95z"/><path fill="#1b75bb" d="m25.974 27.663l-1.944.002-.597-1.961-.6 1.961-1.941-.002 1.572 1.196-.607 1.949 1.578-1.212 1.575 1.212-.607-1.949z"/><path fill="#1b75bb" d="m34.606 31.33h-1.939l-.607-1.958-.594 1.958h-1.942l1.576 1.197-.61 1.95 1.58-1.207 1.576 1.207-.606-1.95z"/><path fill="#1b75bb" d="m25.974 34.541l-1.944.004-.597-1.962-.6 1.962-1.941-.004 1.572 1.197-.607 1.95 1.578-1.211 1.575 1.211-.607-1.95z"/></g></g></switch></svg>