<svg xmlns="http://www.w3.org/2000/svg" viewBox="0 0 64 64" enable-background="new 0 0 64 64"><path fill="#306177" d="m63.889 57.35c0 3.8-3.076 6.88-6.874 6.88h-50.03c-3.795 0-6.872-3.08-6.872-6.88v-50.02c0-3.796 3.077-6.876 6.872-6.876h50.03c3.798 0 6.874 3.08 6.874 6.876v50.02"/><path fill="#1d5568" d="m.112 49.01v8.338c0 3.8 3.077 6.88 6.872 6.88h50.03c3.798 0 6.874-3.08 6.874-6.88v-50.02c-10.891 39.559-50.04 42.07-63.777 41.686"/><g fill="#f4f5f5"><ellipse cx="6.171" cy="9.958" rx=".709" ry="3.861"/><ellipse cx="6.171" cy="9.958" rx="3.863" ry=".709"/><ellipse cx="5.464" cy="32.458" rx=".709" ry="3.861"/><ellipse cx="5.463" cy="32.458" rx="3.861" ry=".709"/><ellipse cx="59.11" cy="33.554" rx=".709" ry="3.861"/><path d="m59.11 34.26c2.132 0 3.863-.315 3.863-.709s-1.731-.709-3.863-.709c-2.131 0-3.863.315-3.863.709s1.732.709 3.863.709"/><ellipse cx="12.804" cy="19.17" rx=".496" ry="2.699"/><ellipse cx="12.806" cy="19.17" rx="2.7" ry=".498"/><ellipse cx="38.04" cy="14.688" rx=".247" ry="1.348"/><ellipse cx="38.04" cy="14.689" rx="1.352" ry=".249"/><ellipse cx="34.709" cy="30.775" rx=".247" ry="1.348"/><ellipse cx="34.709" cy="30.775" rx="1.352" ry=".249"/><path d="m51.972 12.386c.709 5.295-7.164 10.727-1.871 10.01 5.296-.713 9.01-5.585 8.301-10.88-.713-5.293-5.587-9.01-10.88-8.298-5.294.71 3.737 3.869 4.45 9.164"/></g><path fill="#25333a" d="m26.26 47.47c0 3.344 0 6.686 0 10.03 0 2.128 0 4.255 0 6.383 0 .135.076.247.163.247 2.251 0 4.5 0 6.751 0 1.285 0 2.571 0 3.858 0 .091 0 .165-.112.165-.247 0-3.342 0-6.688 0-10.03 0-2.125 0-4.253 0-6.378 0-.073-.016-.132-.047-.169l-.004-.006v-.004c-.027-.043-.066-.07-.114-.07-2.248 0-4.498 0-6.746 0-1.289 0-2.574 0-3.863 0-.087 0-.163.113-.163.249"/><g fill="#6cb5c6"><path d="m26.969 60.726c1.904 0 3.811 0 5.712 0 1.207 0 2.415 0 3.626 0 .074 0 .153-.025.153-.049 0-.65 0-1.307 0-1.955 0-.376 0-.748 0-1.124 0-.027-.079-.048-.153-.048-1.908 0-3.808 0-5.712 0-1.207 0-2.427 0-3.626 0-.037 0-.084.004-.104.016v.005c-.02.008-.04.016-.04.027 0 .654 0 1.305 0 1.963 0 .372 0 .742 0 1.116 0 .023.06.049.144.049"/><path d="m27.05 56.48c1.904 0 3.812 0 5.714 0 1.207 0 2.414 0 3.627 0 .073 0 .147-.023.147-.047 0-.652 0-1.305 0-1.955 0-.376 0-.748 0-1.124 0-.027-.074-.048-.147-.048-1.909 0-3.81 0-5.714 0-1.207 0-2.427 0-3.628 0-.036 0-.083.004-.102.016v.005c-.02.008-.039.016-.039.027 0 .652 0 1.305 0 1.963 0 .37 0 .742 0 1.116 0 .024.059.047.142.047"/><path d="m27.05 52.05c1.904 0 3.812 0 5.714 0 1.207 0 2.414 0 3.627 0 .073 0 .147-.025.147-.052 0-.65 0-1.305 0-1.955 0-.376 0-.744 0-1.12 0-.027-.074-.047-.147-.047-1.909 0-3.81 0-5.714 0-1.207 0-2.427 0-3.628 0-.036 0-.083.004-.102.014v.002c-.02.012-.039.018-.039.031 0 .65 0 1.303 0 1.959 0 .374 0 .744 0 1.116 0 .026.059.052.142.052"/></g><g opacity=".6"><path fill="#25333a" d="m26.26 48.39c0 3.059 0 6.112 0 9.168 0 1.943 0 3.887 0 5.834 0 .124.057.226.127.226 1.7 0 3.4 0 5.107 0 .97 0 1.943 0 2.917 0 .067 0 .126-.102.126-.226 0-3.058 0-6.111 0-9.17 0-1.943 0-3.887 0-5.832 0-.066-.012-.117-.035-.152l-.002-.005-.004-.006c-.023-.037-.047-.063-.085-.063-1.7 0-3.404 0-5.101 0-.979 0-1.951 0-2.923 0-.07 0-.127.105-.127.226"/></g><path fill="#25333a" d="m54.56 47.47c0 3.344 0 6.686 0 10.03 0 2.128 0 4.255 0 6.383 0 .135-.074.247-.162.247-2.251 0-4.5 0-6.749 0-1.285 0-2.574 0-3.859 0-.09 0-.164-.112-.164-.247 0-3.342 0-6.688 0-10.03 0-2.125 0-4.253 0-6.378 0-.073.016-.132.045-.169l.004-.006v-.004c.029-.043.068-.07.115-.07 2.249 0 4.498 0 6.745 0 1.289 0 2.576 0 3.863 0 .088 0 .162.113.162.249"/><g fill="#6cb5c6"><path d="m53.856 60.726c-1.904 0-3.809 0-5.713 0-1.206 0-2.413 0-3.626 0-.074 0-.15-.025-.15-.049 0-.65 0-1.307 0-1.955 0-.376 0-.748 0-1.124 0-.027.076-.048.15-.048 1.91 0 3.811 0 5.713 0 1.207 0 2.427 0 3.626 0 .039 0 .086.004.105.016v.005c.02.008.039.016.039.027 0 .654 0 1.305 0 1.963 0 .372 0 .742 0 1.116 0 .023-.058.049-.144.049"/><path d="m53.774 56.48c-1.906 0-3.813 0-5.717 0-1.206 0-2.413 0-3.628 0-.072 0-.146-.023-.146-.047 0-.652 0-1.305 0-1.955 0-.376 0-.748 0-1.124 0-.027.074-.048.146-.048 1.912 0 3.813 0 5.717 0 1.204 0 2.425 0 3.628 0 .035 0 .082.004.102.016v.005c.02.008.039.016.039.027 0 .652 0 1.305 0 1.963 0 .37 0 .742 0 1.116 0 .024-.059.047-.141.047"/><path d="m53.774 52.05c-1.906 0-3.813 0-5.717 0-1.206 0-2.413 0-3.628 0-.072 0-.146-.025-.146-.052 0-.65 0-1.305 0-1.955 0-.376 0-.744 0-1.12 0-.027.074-.047.146-.047 1.912 0 3.813 0 5.717 0 1.204 0 2.425 0 3.628 0 .035 0 .082.004.102.014v.002c.02.012.039.018.039.031 0 .65 0 1.303 0 1.959 0 .374 0 .744 0 1.116 0 .026-.059.052-.141.052"/></g><g opacity=".6"><path fill="#25333a" d="m54.56 48.39c0 3.059 0 6.112 0 9.168 0 1.943 0 3.887 0 5.834 0 .124-.057.226-.125.226-1.7 0-3.403 0-5.109 0-.968 0-1.943 0-2.915 0-.068 0-.125-.102-.125-.226 0-3.058 0-6.111 0-9.17 0-1.943 0-3.887 0-5.832 0-.066.012-.117.033-.152l.002-.004.004-.006c.023-.037.047-.063.086-.063 1.698 0 3.403 0 5.102 0 .978 0 1.951 0 2.923 0 .068 0 .124.104.124.225"/></g><path fill="#25333a" d="m58.45 25.496c0 7.764 0 15.522 0 23.278 0 4.937 0 9.873 0 14.812 0 .313-.117.574-.255.574-3.538 0-7.07 0-10.611 0-2.02 0-4.046 0-6.069 0-.139 0-.257-.261-.257-.574 0-7.76 0-15.521 0-23.285 0-4.936 0-9.871 0-14.805 0-.169.023-.304.071-.391l.008-.016v-.007c.045-.102.105-.162.178-.162 3.536 0 7.07 0 10.606 0 2.025 0 4.049 0 6.074 0 .138 0 .255.263.255.576"/><g fill="#6cb5c6"><path d="m57.33 56.27c-2.992 0-5.991 0-8.98 0-1.898 0-3.797 0-5.702 0-.118 0-.237-.06-.237-.11 0-1.512 0-3.036 0-4.543 0-.871 0-1.733 0-2.605 0-.064.119-.107.237-.107 3 0 5.988 0 8.979 0 1.898 0 3.818 0 5.703 0 .059 0 .131.008.166.031v.008c.027.02.059.039.059.068 0 1.515 0 3.02 0 4.551 0 .866 0 1.727 0 2.598 0 .049-.094.109-.225.109"/><path d="m57.2 46.43c-2.997 0-5.992 0-8.983 0-1.898 0-3.795 0-5.705 0-.113 0-.23-.055-.23-.109 0-1.516 0-3.03 0-4.541 0-.874 0-1.731 0-2.605 0-.063.117-.109.23-.109 3 0 5.991 0 8.984 0 1.896 0 3.815 0 5.704 0 .055 0 .13.011.161.035v.006c.029.023.061.039.061.068 0 1.512 0 3.03 0 4.551 0 .863 0 1.727 0 2.596 0 .053-.092.108-.222.108"/><path d="m57.2 36.14c-2.997 0-5.992 0-8.983 0-1.898 0-3.795 0-5.705 0-.113 0-.23-.06-.23-.117 0-1.511 0-3.03 0-4.538 0-.873 0-1.732 0-2.605 0-.063.117-.108.23-.108 3 0 5.991 0 8.984 0 1.896 0 3.815 0 5.704 0 .055 0 .13.009.161.033v.006c.029.024.061.041.061.069 0 1.516 0 3.03 0 4.552 0 .866 0 1.725 0 2.591 0 .057-.092.117-.222.117"/></g><g opacity=".6"><path fill="#25333a" d="m58.45 27.641c0 7.096 0 14.183 0 21.278 0 4.51 0 9.02 0 13.536 0 .29-.09.525-.2.525-2.672 0-5.348 0-8.03 0-1.524 0-3.057 0-4.586 0-.108 0-.196-.235-.196-.525 0-7.095 0-14.181 0-21.28 0-4.511 0-9.02 0-13.534 0-.155.018-.275.053-.355l.004-.012.006-.013c.037-.089.073-.146.134-.146 2.67 0 5.35 0 8.02 0 1.536 0 3.064 0 4.592 0 .109 0 .199.241.199.526"/></g><path fill="#25333a" d="m6.146 37.08c0 5.458 0 10.913 0 16.367 0 3.473 0 6.942 0 10.416 0 .219.123.403.266.403 3.673 0 7.342 0 11.02 0 2.098 0 4.2 0 6.3 0 .145 0 .267-.185.267-.403 0-5.458 0-10.916 0-16.373 0-3.471 0-6.942 0-10.41 0-.12-.025-.215-.075-.275l-.006-.011v-.005c-.049-.072-.111-.114-.186-.114-3.671 0-7.342 0-11.01 0-2.104 0-4.204 0-6.306 0-.144 0-.267.184-.267.405"/><g fill="#6cb5c6"><path d="m7.303 58.714c3.107 0 6.218 0 9.323 0 1.969 0 3.939 0 5.918 0 .122 0 .247-.043.247-.078 0-1.063 0-2.136 0-3.195 0-.613 0-1.217 0-1.832 0-.045-.125-.076-.247-.076-3.115 0-6.216 0-9.321 0-1.971 0-3.965 0-5.92 0-.061 0-.137.006-.172.023v.006c-.03.014-.063.027-.063.047 0 1.066 0 2.128 0 3.201 0 .607 0 1.213 0 1.826 0 .035.098.078.235.078"/><path d="m7.438 51.793c3.111 0 6.222 0 9.327 0 1.971 0 3.941 0 5.922 0 .12 0 .241-.041.241-.076 0-1.066 0-2.132 0-3.193 0-.615 0-1.219 0-1.834 0-.043-.121-.076-.241-.076-3.117 0-6.22 0-9.327 0-1.967 0-3.961 0-5.922 0-.057 0-.135.006-.167.025v.004c-.029.016-.063.027-.063.047 0 1.063 0 2.128 0 3.201 0 .607 0 1.215 0 1.826 0 .035.095.076.23.076"/><path d="m7.438 44.56c3.111 0 6.222 0 9.327 0 1.971 0 3.941 0 5.922 0 .12 0 .241-.041.241-.082 0-1.063 0-2.131 0-3.19 0-.613 0-1.218 0-1.832 0-.045-.121-.076-.241-.076-3.117 0-6.22 0-9.327 0-1.967 0-3.961 0-5.922 0-.057 0-.135.006-.167.023v.003c-.029.018-.063.029-.063.05 0 1.064 0 2.128 0 3.2 0 .609 0 1.214 0 1.822 0 .041.095.082.23.082"/></g><g opacity=".6"><path fill="#25333a" d="m6.146 38.582c0 4.99 0 9.973 0 14.96 0 3.174 0 6.348 0 9.521 0 .204.094.368.208.368 2.776 0 5.552 0 8.335 0 1.581 0 3.171 0 4.76 0 .11 0 .204-.164.204-.368 0-4.989 0-9.971 0-14.965 0-3.171 0-6.342 0-9.516 0-.108-.02-.193-.055-.249l-.004-.008h-.008c-.039-.063-.077-.103-.137-.103-2.774 0-5.556 0-8.328 0-1.595 0-3.183 0-4.768 0-.114 0-.207.171-.207.37"/></g><path fill="#25333a" d="m32 38.08c0 5.229 0 10.452 0 15.679 0 3.326 0 6.648 0 9.975 0 .212.12.389.257.389 3.517 0 7.03 0 10.549 0 2.01 0 4.02 0 6.04 0 .141 0 .256-.177.256-.389 0-5.227 0-10.453 0-15.68 0-3.325 0-6.649 0-9.974 0-.114-.025-.204-.07-.265l-.008-.008v-.006c-.045-.068-.105-.109-.178-.109-3.517 0-7.03 0-10.548 0-2.01 0-4.02 0-6.04 0-.137 0-.257.176-.257.388"/><g fill="#6cb5c6"><path d="m33.11 58.812c2.98 0 5.96 0 8.934 0 1.887 0 3.774 0 5.671 0 .115 0 .233-.043.233-.078 0-1.019 0-2.041 0-3.056 0-.588 0-1.168 0-1.756 0-.043-.118-.074-.233-.074-2.985 0-5.957 0-8.933 0-1.885 0-3.797 0-5.672 0-.057 0-.129.008-.162.023v.004c-.027.016-.059.027-.059.047 0 1.019 0 2.038 0 3.064 0 .584 0 1.163 0 1.747 0 .036.093.079.221.079"/><path d="m33.24 52.18c2.981 0 5.961 0 8.937 0 1.887 0 3.771 0 5.672 0 .115 0 .23-.039.23-.074 0-1.022 0-2.046 0-3.061 0-.587 0-1.167 0-1.755 0-.043-.115-.074-.23-.074-2.986 0-5.96 0-8.936 0-1.885 0-3.794 0-5.673 0-.055 0-.128.008-.159.023v.008c-.029.012-.059.023-.059.043 0 1.019 0 2.037 0 3.063 0 .584 0 1.164 0 1.752 0 .036.09.075.218.075"/><path d="m33.24 45.25c2.981 0 5.961 0 8.937 0 1.887 0 3.771 0 5.672 0 .115 0 .23-.039.23-.078 0-1.018 0-2.042 0-3.057 0-.588 0-1.167 0-1.755 0-.043-.115-.074-.23-.074-2.986 0-5.96 0-8.936 0-1.885 0-3.794 0-5.673 0-.055 0-.128.008-.159.023v.004c-.029.016-.059.027-.059.047 0 1.019 0 2.037 0 3.063 0 .584 0 1.164 0 1.748 0 .04.09.079.218.079"/></g><g opacity=".6"><path fill="#25333a" d="m33.885 43.08c0 4.225 0 8.444 0 12.668 0 2.688 0 5.371 0 8.06 0 .172.09.313.199.313 2.657 0 5.317 0 7.983 0 1.514 0 3.038 0 4.561 0 .105 0 .195-.142.195-.313 0-4.224 0-8.443 0-12.671 0-2.684 0-5.371 0-8.06 0-.092-.02-.164-.053-.214 0 0-.004-.004-.004-.006l-.008-.008c-.035-.053-.074-.086-.131-.086-2.658 0-5.322 0-7.978 0-1.527 0-3.048 0-4.566 0-.108 0-.198.144-.198.314"/></g><path fill="#25333a" d="m8.101 10.688c0 10.725 0 21.449 0 32.17 0 6.82 0 13.642 0 20.467 0 .435.146.796.317.796 4.317 0 8.637 0 12.958 0 2.468 0 4.938 0 7.409 0 .172 0 .315-.361.315-.796 0-10.724 0-21.448 0-32.18 0-6.823 0-13.642 0-20.463 0-.235-.031-.417-.082-.545 0 0-.006 0 0-.016 0 0-.006-.014-.014-.021-.045-.129-.118-.215-.21-.215-4.317 0-8.635 0-12.955 0-2.472 0-4.942 0-7.413 0-.169 0-.315.361-.315.796"/><g fill="#6cb5c6"><path d="m9.46 33.554c3.661 0 7.321 0 10.974 0 2.315 0 4.633 0 6.966 0 .141 0 .284-.045.284-.086 0-1.141 0-2.289 0-3.427 0-.658 0-1.309 0-1.967 0-.047-.143-.082-.284-.082-3.669 0-7.323 0-10.974 0-2.312 0-4.663 0-6.966 0-.069 0-.157.008-.198.025 0 0 0 0 0 .006-.036.016-.073.029-.073.051 0 1.142 0 2.284 0 3.434 0 .654 0 1.303 0 1.959 0 .042.114.087.271.087"/><path d="m9.625 26.12c3.659 0 7.321 0 10.974 0 2.315 0 4.633 0 6.964 0 .143 0 .286-.043.286-.084 0-1.142 0-2.288 0-3.426 0-.66 0-1.309 0-1.967 0-.047-.143-.084-.286-.084-3.667 0-7.321 0-10.972 0-2.312 0-4.663 0-6.966 0-.069 0-.157.001-.198.027v.006c-.036.016-.073.03-.073.051 0 1.14 0 2.284 0 3.434 0 .652 0 1.303 0 1.959 0 .041.114.084.271.084"/><path d="m9.625 18.36c3.659 0 7.321 0 10.974 0 2.315 0 4.633 0 6.964 0 .143 0 .286-.043.286-.086 0-1.14 0-2.288 0-3.426 0-.658 0-1.309 0-1.967 0-.047-.143-.082-.286-.082-3.667 0-7.321 0-10.972 0-2.312 0-4.663 0-6.966 0-.069 0-.157.008-.198.025v.006c-.036.016-.073.029-.073.051 0 1.142 0 2.284 0 3.434 0 .654 0 1.305 0 1.959 0 .042.114.086.271.086"/><path d="m9.626 41.491c3.657 0 7.319 0 10.972 0 2.315 0 4.635 0 6.964 0 .145 0 .286-.043.286-.084 0-1.145 0-2.288 0-3.427 0-.66 0-1.311 0-1.967 0-.049-.141-.084-.286-.084-3.667 0-7.321 0-10.97 0-2.314 0-4.663 0-6.966 0-.071 0-.159 0-.2.027v.004c-.036.016-.071.031-.071.053 0 1.141 0 2.282 0 3.431 0 .656 0 1.307 0 1.963 0 .041.113.084.271.084"/><path d="m9.626 50.568c3.657 0 7.319 0 10.972 0 2.315 0 4.635 0 6.964 0 .145 0 .286-.043.286-.082 0-1.145 0-2.288 0-3.429 0-.658 0-1.308 0-1.966 0-.047-.141-.084-.286-.084-3.667 0-7.321 0-10.97 0-2.314 0-4.663 0-6.966 0-.071 0-.159 0-.2.027v.006c-.036.016-.071.029-.071.051 0 1.14 0 2.283 0 3.436 0 .65 0 1.301 0 1.959 0 .039.113.082.271.082"/></g><g opacity=".6"><path fill="#25333a" d="m8.101 14.806c0 9.899 0 19.795 0 29.694 0 6.296 0 12.592 0 18.888 0 .404.125.737.274.737 3.734 0 7.47 0 11.208 0 2.133 0 4.271 0 6.404 0 .151 0 .274-.333.274-.737 0-9.896 0-19.792 0-29.695 0-6.298 0-12.592 0-18.886 0-.217-.025-.386-.071-.503 0-.006-.008 0-.008 0-.002-.016-.004-.018-.004-.018-.051-.125-.111-.206-.192-.206-3.734 0-7.466 0-11.201 0-2.136 0-4.273 0-6.41 0-.149 0-.274.335-.274.736"/></g></svg>