<svg xmlns="http://www.w3.org/2000/svg" viewBox="0 0 64 64" enable-background="new 0 0 64 64"><g transform="translate(6)"><path d="m44.34 55.38c.849-.625 2.038-.453 2.663.392l.653.879c.626.842.453 2.033-.39 2.663l-2.975 2.206c-.843.627-2.034.452-2.659-.392l-.657-.879c-.621-.845-.447-2.036.396-2.665l2.969-2.204" fill="#a4792b"/><path d="m49.981 42.26c3.635 4.892 2.62 11.803-2.27 15.434l-5.098 3.785c-4.888 3.637-11.796 2.618-15.432-2.271l-12.803-17.23c-3.633-4.889-2.614-11.798 2.275-15.435l5.09-3.783c4.89-3.635 11.801-2.618 15.432 2.273l12.806 17.227" fill="#e8af3b"/><g fill="#c0902e"><path d="m24.867 29.381c.794-2.764 1.265-5.605 1.236-8.563-1.537.311-3.02.942-4.36 1.94l-5.09 3.783c-.505.374-.956.793-1.374 1.234 3.15.758 6.367 1.178 9.588 1.606"/><path d="m32.918 29.373c.863-2.056 1.665-4.13 2.397-6.237-2.164-2.092-5.121-3.03-8.01-2.691.042 2.732-.396 5.336-1.128 7.873.792.108 1.585.213 2.375.333 1.459.217 2.91.468 4.363.722"/><path d="m35.06 30.23c2.482.684 4.963 1.374 7.449 1.981l-5.34-7.185c-.15-.203-.305-.404-.467-.599-.488 1.966-1.043 3.894-1.642 5.803"/><path d="m22.831 30.603c-2.876-.375-5.746-.768-8.549-1.48-1.267 1.602-1.969 3.544-2.034 5.531 2.754.644 5.533 1.191 8.299 1.788.87-1.921 1.661-3.86 2.284-5.839"/><path d="m29.62 38.969c1.153-2.458 2.273-4.924 3.329-7.416-2.029-.353-4.057-.694-6.097-.968-.461-.065-.922-.125-1.378-.187-.737 2.34-1.674 4.629-2.701 6.901 1.148.249 2.295.514 3.44.791 1.138.276 2.275.575 3.407.879"/><path d="m41.64 41.22c1.165-1.942 2.217-3.936 3.096-6.02l-1.257-1.691c-2.697-.371-5.379-.866-8.06-1.354-.901 2.159-1.859 4.297-2.85 6.424 2.967.828 5.908 1.729 8.871 2.59.064.018.137.031.202.052"/><path d="m49.38 41.45l-4.01-5.396c-.544 1.89-1.222 3.682-2 5.413 1.733.751 3.471 1.455 5.21 2.149.266-.722.534-1.441.802-2.166"/><path d="m48.959 44.24c.81.194 1.619.39 2.434.576-.35-.885-.809-1.743-1.398-2.541-.35.656-.695 1.309-1.036 1.965"/><path d="m20.507 38.748c-2.844-.854-5.689-1.691-8.519-2.606.246 1.991 1.041 4.02 2.389 5.835l3.207 4.312c.934-2.53 1.979-5.02 2.923-7.541"/><path d="m29.19 39.75c-1.409-.377-2.825-.738-4.25-1.055-.601-.139-1.206-.258-1.814-.388-1.145 2.476-2.383 4.938-3.516 7.433 2.036.446 4.074.858 6.113 1.258 1.155-2.415 2.324-4.828 3.467-7.248"/><path d="m39.31 43.4c-2.896-.834-5.786-1.707-8.697-2.5-1.063 2.257-2.149 4.504-3.227 6.755 2.687.523 5.387.99 8.09 1.429 1.338-1.867 2.638-3.749 3.838-5.684"/><path d="m46.639 50.687c1.703.241 3.41.471 5.121.674.48-1.608.499-3.346.024-4.993-.856-.197-1.718-.41-2.58-.615-.85 1.645-1.703 3.291-2.565 4.934"/><path d="m47.576 44.877c-2.029-.48-4.062-.98-6.083-1.555-1.416 2.296-2.948 4.532-4.521 6.753 2.423.386 4.847.745 7.278 1.078 1.116-2.087 2.227-4.181 3.326-6.276"/><path d="m34.583 51.908c-2.832-.459-5.653-.948-8.468-1.496-.712 1.502-1.423 3-2.113 4.516l3.314 4.457c.354.476.745.897 1.159 1.287 1.908-2.976 4.02-5.86 6.108-8.764"/><path d="m36.73 63.817c.874-1.321 1.711-2.675 2.476-4.083 1.108-2.042 2.182-4.1 3.241-6.164-2.196-.355-4.384-.729-6.574-1.129-2.099 3.02-4.239 6.02-6.164 9.138 2.024 1.647 4.555 2.419 7.02 2.238"/><path d="m40.949 60.37c-.563.905-1.158 1.788-1.77 2.659 1.293-.318 2.565-.901 3.723-1.764l4.481-3.331c1.491-1.109 2.596-2.526 3.284-4.065-1.857-.125-3.713-.275-5.569-.438-1.354 2.328-2.728 4.646-4.149 6.939"/><path d="m24.897 48.867c-2.125-.42-4.252-.844-6.371-1.309l4.285 5.764c.684-1.489 1.384-2.972 2.086-4.455"/></g><g fill="#00a551"><path d="m15.182 29.671c-1.823-.615-3.698-1.388-4.981-2.878-.187.637-.367 1.272-.552 1.912.438-.213.885-.42 1.332-.633 1.039-.489 1-1.772.035-2.313-2.066-1.149-4.333-1.598-6.568-2.308.223.548.44 1.094.662 1.642.818-2.084-.692-4.404-1.577-6.227-.341.56-.686 1.126-1.031 1.692.351-.014.698-.053 1.039-.114.944.051 1.674-.753 1.35-1.692-.651-1.867-1.946-3.457-2.381-5.405-.475.457-.95.916-1.425 1.375.465.122.934.188 1.409.209.725.063 1.265-.363 1.423-1.058.611-2.675.367-5.429.788-8.131-.668.27-1.338.536-2.01.804.999.739 1.845 1.64 2.847 2.377.55.41 1.317.329 1.754-.217 1.603-1.996 1.473-4.649 2.94-6.676-.491.121-.988.251-1.477.377 1.402.739 1.983 2.348 2.815 3.59.412.611 1.188.591 1.752.26 1.5-.885 2.243-2.807 3.848-3.454-.487-.142-.972-.282-1.456-.422.851 1.067.853 2.533 1.405 3.753.41.911 1.498 1.031 2.153.316.842-.923 1.512-1.983 2.29-2.959-.717-.108-1.433-.211-2.149-.317 1.208 2.931.483 6.182 1.088 9.237.185.905 1.181 1.474 1.993.867 1.508-1.128 2.459-2.746 3.882-3.964-.639-.187-1.274-.365-1.912-.552 1.291 2.645-.505 5.906-.719 8.654-.081 1.076 1.049 1.839 1.983 1.181.278-.165.554-.327.833-.491-.562-.345-1.125-.688-1.693-1.031.174 1.315.167 2.63.244 3.954.051.962 1.26 1.406 1.989.862.15-.111.307-.225.463-.341-.664-.288-1.325-.577-1.989-.865.057 1.147.211 2.521-.954 3.15-1.043.558-2.267.808-3.353 1.271-2.482 1.052-4.64 2.882-6.781 4.483-1.291.966.201 2.976 1.494 2 1.457-1.09 2.902-2.196 4.435-3.187 1.602-1.047 3.377-1.485 5.106-2.245 2.401-1.053 2.645-3.412 2.537-5.754-.044-.966-1.264-1.402-1.989-.865-.154.114-.309.228-.459.343.66.286 1.321.576 1.989.864-.079-1.319-.073-2.636-.248-3.952-.102-.763-.94-1.372-1.693-1.029-.552.253-.923.469-1.421.822.662.396 1.319.79 1.981 1.186.252-3.278 2.137-6.718.575-9.921-.335-.682-1.249-1.119-1.91-.55-1.417 1.21-2.391 2.846-3.887 3.962.666.288 1.332.579 1.989.867-.658-3.29.067-6.698-1.247-9.868-.361-.881-1.548-1.071-2.149-.316-.784.98-1.445 2.038-2.292 2.961.718.106 1.433.211 2.153.315-.674-1.482-.69-3.03-1.735-4.337-.345-.43-.926-.633-1.453-.422-1.963.798-2.679 2.748-4.435 3.781.583.083 1.165.173 1.746.258-1.173-1.755-1.912-3.381-3.844-4.4-.473-.25-1.163-.042-1.471.382-1.472 2.04-1.384 4.739-2.943 6.68.584-.071 1.171-.145 1.755-.213-.997-.741-1.847-1.642-2.85-2.383-.749-.554-1.853-.142-1.999.805-.417 2.702-.179 5.456-.786 8.133.469-.353.946-.704 1.417-1.055-.477-.021-.948-.087-1.408-.209-.735-.146-1.6.603-1.429 1.374.489 2.192 1.807 3.939 2.535 6.04.446-.562.897-1.125 1.348-1.687-.584-.034-1.1.061-1.676.104-.761.053-1.376.977-1.031 1.693.481.986 2.044 3.237 1.611 4.346-.227.584-.008 1.427.662 1.638 2.223.71 4.506 1.163 6.564 2.308.016-.771.026-1.541.039-2.313-.444.209-.887.418-1.329.629-.682.321-1.112 1.254-.55 1.91 1.587 1.847 3.725 2.922 6.01 3.688 1.515.507 2.51-1.784.98-2.302"/><path d="m3.152 11.701c-.059 1.443.016 2.84.235 4.271.672-.374 1.344-.747 2.01-1.123-.329-.223-.633-.473-.919-.755-.802-.708-2.176.083-2.01 1.123.307 1.971 1.658 3.893 1.563 5.892.749-.187 1.492-.375 2.243-.564-.288-.386-.572-.771-.865-1.155-.964-1.301-2.9.16-2 1.49 1.195 1.768 2.01 3.621 3.525 5.159 1.088 1.096 2.397-.629 1.776-1.735-.451-.799-.952-1.569-1.402-2.371-.498.635-.995 1.267-1.492 1.896 1.717.773 3.165 2 4.831 2.878.964.503 2.072-.649 1.658-1.602-.093-.227-.195-.453-.314-.666-.725.398-1.447.8-2.167 1.197.909 1.307 1.697 2.688 2.606 3.992.591-.58 1.183-1.155 1.772-1.729-.457-.286-.824-.649-1.114-1.094-.5.631-1 1.263-1.494 1.894 4.76 1.364 8.01-1.468 11.933-3.741 1.692-.982 2.269-2.119 1.676-3.966-.453-1.405-.923-2.261-.885-3.83.048-1.683.666-3.17 1.213-4.733-.765-.325-1.532-.656-2.301-.982-1.196 3.556-3.02 7.917.458 10.767.909.745 2.513-.309 1.934-1.437-1.62-3.16-3.383-6.241-4.771-9.513-.658-1.542-.972-3.148-1.39-4.762-.384-1.496-1.658-1.585-2.584-2.645-.355-.41-.919-.653-1.453-.418-.747.32-1.319.741-1.883 1.337-.453.483-.991 1.589-1.569.469-.262-.491-.38-1.076-.524-1.609-.284-1.04-1.989-1.036-2.32-.035-.788 2.389-1.492 4.936-4.404 5.25-.883.1-1.222.93-1.031 1.695 1.388 5.574 3.31 10.721 6.588 15.468.589-.576 1.179-1.153 1.774-1.729-3.958-3.891-7.965-12.11-1.074-15.235 1.453-.666 3.037-1.078 4.571-1.514 1.853-.524 2.545-.649 3.093 1.256.505 1.794.966 3.485 1.743 5.198 1.01 2.223 2.198 4.333 2.712 6.741.672-.374 1.341-.747 2.01-1.123-2.139-1.737-3.873-4.151-5.127-6.601-1-1.948-.635-4.268-2.61-5.667-2.817-1.993-7.725.542-9.852 2.549-5.565 5.273.788 14.14 5.265 17.729 1.256 1.01 2.797-.962 1.538-1.971-3.367-2.699-9.295-9.984-4.932-14.11 1.106-1.045 2.657-1.656 4.083-2.104.818-.26 2.147-.481 2.817.246.615.667.705 2.074.934 2.89.954 3.426 3.617 6.789 6.346 9.01.786.635 2.245-.041 2.01-1.125-.566-2.626-1.726-4.954-2.866-7.372-1.025-2.167-1.167-4.851-2.399-6.874-2.03-3.333-7.601-.564-10.246.505-9.109 3.698-4.739 14.445.442 19.535 1.04 1.027 2.539-.619 1.772-1.729-3.154-4.564-4.932-9.533-6.263-14.879-.343.564-.686 1.128-1.027 1.692 3.905-.422 5.304-3.334 6.43-6.759-.77-.012-1.541-.022-2.316-.034.372 1.37.986 3.377 2.616 3.706 2.295.46 2.805-1.701 4.601-2.476-.487-.142-.976-.28-1.457-.422.588.676 1.916 1.244 2.259 2.06.623 1.47.783 3.235 1.384 4.762 1.303 3.294 3.16 6.361 4.776 9.509.645-.479 1.291-.958 1.934-1.439-2.316-1.896-.461-5.529.304-7.812.514-1.512-1.766-2.511-2.301-.982-1.317 3.775-1.821 6.686-.357 10.448.325.831-2.983 2.271-3.858 2.86-2.02 1.364-3.959 2.354-6.442 1.642-1.104-.314-2.322.822-1.492 1.898.481.621.956 1.108 1.585 1.573 1.143.853 2.58-.572 1.77-1.729-.907-1.309-1.697-2.689-2.606-3.994-.796-1.141-2.809-.075-2.17 1.198.118.217.223.438.314.667.552-.534 1.102-1.072 1.656-1.605-1.67-.874-3.101-2.094-4.83-2.874-1.246-.564-2.054.895-1.492 1.894.449.804.95 1.571 1.402 2.371.587-.576 1.181-1.15 1.772-1.731-1.323-1.34-2.02-3.132-3.067-4.674-.666.493-1.335.995-2 1.49.288.384.572.771.858 1.155.603.812 2.19.57 2.241-.562.109-2.377-1.191-4.242-1.555-6.529-.67.375-1.337.751-2.01 1.122.284.278.588.534.917.759.836.607 2.188-.014 2.01-1.126-.193-1.22-.302-2.397-.248-3.633.065-1.595-2.409-1.977-2.474-.365"/><path d="m2.931 8.585c.264 1.599.264 3.223.528 4.82.262 1.587 2.748 1.315 2.488-.274-.27-1.6-.266-3.221-.532-4.82-.262-1.585-2.748-1.317-2.484.274"/><path d="m4.546 20.16c.572 2.044 1.682 3.725 3.46 4.902.757.503 1.877.188 2.01-.802.248-1.867-.197-3.818-.459-5.659-.191-1.388-1.264-6.05.422-6.858-.532-.24-1.076-.477-1.612-.712 1.67 4.471.601 9.945 4.447 13.479 3.621 3.329 7.14 2.458 10.848-.235 1.086-.786.286-2.253-.879-2.245-1.352.001-2.616.43-3.939.655-2.056.343-2.88-1.751-3.588-3.264-1.313-2.797-3.146-6.517-2.898-9.661-.475.349-.946.701-1.418 1.052 2.441.53 5.058.501 7.4 1.406 1.565.607 2.486 2.072 3.097 3.55.442 1.082-.298 1.715-.97 2.466-2.992 3.394-7.917 5.823-7.381 11.02.801-.197 1.603-.394 2.403-.591-1.092-4.376-2.194-8.969-1.047-13.446-.745.187-1.492.377-2.241.562 1.733 3.01 2.45 6.469 3.948 9.594.729-.402 1.447-.802 2.169-1.202-2.131-3.217-3.606-6.756-4.751-10.428-.723.398-1.445.796-2.17 1.196 1.348 1.42 2.517 2.981 3.968 4.294.958.869 2.338-.339 1.93-1.435-.871-2.391-1.965-4.688-2.761-7.112-.647.479-1.295.96-1.936 1.439 1.553 1.305 2.322 3.195 4.246 4.047 1.043.465 1.962-.609 1.652-1.602-.351-1.118-.777-2.21-1.031-3.357-.749.3-1.5.591-2.253.887 2.281 2.444 3.978 5.306 5.827 8.07.667-.495 1.337-.995 2-1.492-.944-1.279-1.867-2.562-2.722-3.909-.765-1.208-2.693-.087-2.169 1.202.629 1.524 1.319 3.01 1.798 4.591.646-.477 1.291-.958 1.937-1.439-1.953-1.788-3.495-3.952-5.249-5.927-.901-1.01-2.726-.181-2.168 1.202 1.194 2.965 3.207 5.401 5 8.02.67-.499 1.336-.997 2-1.492-1.441-1.967-2.833-3.927-4.593-5.628-.977-.936-2.255.378-1.935 1.441.66 2.194 1.983 4.087 2.684 6.27.645-.479 1.291-.958 1.936-1.439-2.028-1.269-3.759-2.959-6.04-3.793-.688-.256-1.687.122-1.727.968-.071 1.821.655 3.312 1.181 5.02.723-.4 1.447-.799 2.166-1.195-1.339-2.105-2.46-4.292-3.355-6.619-.723.4-1.445.795-2.166 1.2 2.267 2.559 4.54 6.184 7.775 7.662.623.282 1.263.225 1.766-.258.359-.345.907-.396 1.301-.684.844-.604-.15-.822.52.106.52.724 1.859.664 2.153-.256.264-.814.412-1.66.676-2.476-.773-.001-1.546-.026-2.318-.037.136.258.266.518.404.779.643-.481 1.289-.96 1.93-1.437-.611-.68-1.063-1.447-1.352-2.302-.604-1.496-2.933-.588-2.328.903.54 1.332 1.134 2.354 2.145 3.367.861.869 2.482-.365 1.935-1.439-.134-.258-.266-.518-.402-.779-.445-.861-1.942-1.198-2.316-.037-.262.818-.412 1.66-.672 2.476.714-.085 1.435-.167 2.151-.251-.556-.775-1.145-1.591-2.178-1.607-.917-.012-1.555.848-2.365 1.175-.335.138-.643.368-.901.611.952.015 1.09-.144.414-.475-.437-.305-.861-.625-1.279-.958-1.963-1.524-3.422-3.729-5.056-5.576-.905-1.025-2.702-.185-2.172 1.196.979 2.533 2.22 4.916 3.682 7.203.804 1.256 2.563.079 2.168-1.195-.37-1.206-1.086-2.468-1.031-3.753-.579.318-1.157.639-1.729.964 2.07.757 3.633 2.31 5.476 3.469 1.043.651 2.33-.207 1.932-1.441-.698-2.184-2.023-4.074-2.681-6.27-.647.479-1.289.958-1.938 1.439 1.593 1.532 2.823 3.365 4.128 5.145.956 1.301 2.915-.17 2-1.492-1.664-2.428-3.568-4.678-4.676-7.433-.725.4-1.449.8-2.171 1.2 1.91 2.145 3.598 4.459 5.715 6.407.99.905 2.267-.359 1.936-1.437-.477-1.581-1.171-3.066-1.798-4.597-.721.399-1.445.799-2.166 1.199.851 1.346 1.774 2.626 2.724 3.907.964 1.303 2.896-.161 2-1.492-1.845-2.769-3.54-5.628-5.817-8.07-.743-.793-2.551-.471-2.247.883.304 1.36.769 2.655 1.189 3.984.548-.534 1.1-1.067 1.65-1.604-1.546-.684-2.395-2.638-3.684-3.718-.997-.836-2.302.319-1.935 1.437.8 2.419 1.892 4.719 2.769 7.11.644-.481 1.287-.958 1.934-1.437-1.285-1.167-2.312-2.562-3.499-3.818-.956-1.01-2.608-.207-2.167 1.202 1.208 3.887 2.825 7.613 5.078 11.02.773 1.169 2.778.073 2.166-1.197-1.604-3.333-2.413-6.958-4.271-10.177-.611-1.057-2.01-.349-2.241.562-1.258 4.897-.008 9.935 1.191 14.717.351 1.411 2.547.773 2.407-.589-.363-3.542 3.176-5.459 5.397-7.611 1.246-1.202 3.248-2.994 3.136-4.924-.4-6.948-7.784-7.02-12.795-8.106-.631-.137-1.363.409-1.418 1.054-.318 4.09 1.847 8.928 3.802 12.444.775 1.398 1.786 2.931 3.491 3.25 2.023.385 3.871-.556 5.882-.573-.294-.747-.59-1.494-.883-2.245-1.4 1.021-2.955 2.178-4.788 2.054-2.044-.134-3.729-2.344-4.5-4.03-1.435-3.134-.97-6.913-2.19-10.17-.229-.599-1.01-1-1.618-.712-4.989 2.382-1.01 10.486-1.534 14.481.669-.268 1.337-.538 2.01-.802-1.441-.956-2.21-2.204-2.671-3.838-.438-1.555-2.762-.631-2.33.905"/><path d="m7.311 13.966c.901 3.02 2.318 5.825 3.452 8.758.587 1.504 2.915.595 2.332-.905-1.132-2.931-2.553-5.736-3.45-8.756-.463-1.549-2.789-.627-2.334.903"/></g><g fill="#006838"><path d="m18.555 31.665c2.832-1.924 5.703-3.765 8.216-6.105 1.167-1.092-.311-3.107-1.488-2.01-2.513 2.344-5.386 4.185-8.222 6.113-1.335.902.162 2.905 1.494 2"/><path d="m27.03 25.33c.536-1.616.339-3.223.451-4.892.049-.68-.341-1.313-1.055-1.419-.633-.093-1.37.375-1.415 1.054-.098 1.396.166 2.929-.28 4.278-.213.647-.004 1.358.658 1.64.592.248 1.424-.012 1.641-.661"/><path d="m23.899 23.14c-1.391 1.031-2.777 2.062-4.167 3.095-1.295.962.199 2.969 1.49 2.01 1.386-1.033 2.778-2.064 4.169-3.1 1.293-.961-.203-2.966-1.492-2"/><path d="m16.401 29.708c-.635-.102-1.261-.284-1.9-.382-.676-.105-1.319.384-1.418 1.051-.1.678.379 1.313 1.051 1.419.641.102 1.262.284 1.904.383.674.108 1.315-.383 1.42-1.053.098-.679-.383-1.313-1.057-1.418"/><path d="m17.688 3.02c.509.962.901 1.975 1.313 2.978.615 1.49 2.949.586 2.332-.905-.412-1-.808-2.02-1.315-2.973-.319-.603-.928-.984-1.62-.714-.578.224-1.031 1.013-.71 1.614"/><path d="m14.875 3.909c1.084 1.883 2.454 3.558 3.755 5.291.97 1.291 2.975-.199 2.01-1.49-1.303-1.733-2.673-3.408-3.757-5.293-.797-1.396-2.795.11-2 1.492"/><path d="m22.717 14.38c.534 1.244.856 2.567 1.395 3.814.637 1.479 2.965.574 2.33-.905-.536-1.244-.858-2.565-1.395-3.812-.635-1.482-2.969-.577-2.33.903"/><path d="m3.917 22.292c2.166 2.509 4.999 4.418 8.11 5.545 1.506.548 2.499-1.748.98-2.299-2.689-.972-5.206-2.56-7.08-4.733-1.046-1.215-3.059.267-2.01 1.487"/><path d="m1.461 11.725c.833 1.352 1.772 2.63 2.718 3.905.964 1.297 2.967-.197 2.01-1.49-.952-1.277-1.89-2.556-2.724-3.907-.85-1.37-2.851.132-2 1.492"/><path d="m13.978 11.402c2.583 3.067 4.773 6.288 6.253 10.04.593 1.498 2.923.591 2.334-.907-1.567-3.943-3.853-7.386-6.58-10.617-1.035-1.228-3.047.255-2.01 1.487"/><path d="m11.865 20.17c1.132 1.524 2.291 3.01 3.647 4.35 1.145 1.128 2.673-.851 1.537-1.973-1.189-1.173-2.184-2.533-3.181-3.868-.96-1.296-2.967.198-2 1.491"/><path d="m8.703 12.448c-.974-1.311-1.953-2.622-2.925-3.936-.962-1.293-2.967.197-2.01 1.492.974 1.312 1.952 2.625 2.927 3.938.962 1.292 2.965-.199 2-1.494"/><path d="m10.73 20.536c2.562.773 5.166 1.389 7.725 2.164 1.524.467 2.525-1.829.977-2.298-2.558-.777-5.16-1.394-7.719-2.169-1.526-.463-2.527 1.832-.983 2.303"/><path d="m17.424 24.23c-2.131-1.074-3.814-2.819-5.787-4.132-1.332-.891-2.884 1.076-1.539 1.969 2.16 1.443 4.01 3.286 6.347 4.461 1.442.722 2.418-1.578.979-2.298"/><path d="m14.589 26.822c-.102.089-.207.168-.323.248.221-.146-.229.044.035-.016-.024.002-.396.03-.152.039-.124-.004-.238-.029-.357-.049.228.042-.136-.049-.154-.059-.116-.041-.229-.097-.339-.154-.347-.174.181.126-.146-.091-.134-.087-.26-.188-.388-.288-1.26-1.01-2.797.96-1.539 1.971 1.391 1.114 3.363 1.683 4.861.406.518-.443.682-1.173.256-1.75-.388-.517-1.235-.702-1.754-.257"/><path d="m11.725 5.709c1.534 2.369 2.653 4.964 4.063 7.404.802 1.395 2.801-.113 2-1.487-1.404-2.446-2.522-5.04-4.063-7.406-.876-1.352-2.878.146-2 1.489"/><path d="m24.664 19.726c1.378-2.446 1.451-5.277 1.934-7.975.282-1.589-2.188-1.95-2.472-.363-.446 2.497-.483 5.097-1.764 7.357-.793 1.399 1.514 2.369 2.302.981"/><path d="m10.588 14.82c.229.312.461.619.69.93.406.544 1.2.662 1.748.256.546-.406.662-1.204.258-1.748-.229-.311-.461-.617-.69-.928-.406-.546-1.202-.664-1.751-.258-.545.407-.665 1.204-.255 1.748"/><path d="m5.814 23.11c.867.437 1.729.873 2.594 1.311.603.307 1.386-.065 1.642-.662.276-.655-.055-1.332-.662-1.642-.864-.436-1.729-.869-2.594-1.309-.607-.306-1.388.069-1.638.662-.277.658.048 1.332.658 1.64"/><path d="m2.864 6.365c.462.617.919 1.232 1.376 1.853.964 1.295 2.969-.199 2.01-1.494-.461-.615-.919-1.23-1.38-1.849-.96-1.297-2.965.195-2 1.49"/><path d="m2.18 18.425c2.214 1.871 4.887 3.03 7.25 4.68 1.315.916 2.864-1.047 1.54-1.971-2.36-1.652-5.04-2.811-7.25-4.676-1.232-1.039-2.768.93-1.54 1.967"/><path d="m12.08 28.25c-1.928-.191-3.83-.562-5.736-.948-1.581-.318-1.934 2.156-.359 2.474 1.898.384 3.802.757 5.736.946 1.597.162 1.969-2.312.359-2.472"/><path d="m20.542 12.208c.104.597.148 1.197.25 1.792.116.67.674 1.181 1.384 1.104.645-.071 1.218-.708 1.1-1.378-.101-.595-.15-1.198-.25-1.79-.114-.672-.676-1.184-1.38-1.108-.647.073-1.222.713-1.104 1.38"/><path d="m18 15.776c-1.025-1.427-1.733-3-2.409-4.622-.625-1.488-2.953-.583-2.334.907.759 1.814 1.587 3.603 2.738 5.208.943 1.306 2.944-.184 2-1.493"/><path d="m10.911 12.221c-.627 3.324.516 6.316 2.446 8.987.944 1.305 2.951-.185 2.01-1.492-1.565-2.16-2.488-4.435-1.983-7.128.301-1.589-2.177-1.946-2.472-.367"/></g><g fill="#37b34a"><path d="m21.315 16.194c.428.597.714 1.24.952 1.935.521 1.528 2.845.617 2.328-.905-.302-.891-.723-1.751-1.278-2.521-.942-1.307-2.944.187-2 1.491"/><path d="m19.519 14.946c.321 1.66.956 3.166 1.703 4.678.708 1.437 3.042.54 2.33-.907-.637-1.299-1.271-2.616-1.551-4.045-.304-1.575-2.789-1.307-2.482.274"/><path d="m12.157 19.998c1.029.942 1.967 1.971 2.898 3.01 1.06 1.191 3.079-.292 2-1.492-1.074-1.204-2.169-2.391-3.363-3.485-1.187-1.086-2.717.891-1.536 1.969"/><path d="m11.01 25.709c.714.453 1.319 1.039 1.922 1.622.499.475 1.37.278 1.757-.215.455-.58.274-1.285-.215-1.755-.609-.584-1.212-1.169-1.928-1.624-.572-.368-1.303-.357-1.754.217-.389.499-.356 1.39.218 1.755"/><path d="m12.429 28.618c2.476 1 5.176.759 7.78.526 1.611-.142 1.327-2.625-.274-2.48-2.16.188-4.467.489-6.527-.345-1.49-.606-2.479 1.692-.979 2.299"/><path d="m3.02 16.491c2.364 2.833 5.212 5.03 8.313 6.998 1.348.853 2.9-1.108 1.539-1.973-2.906-1.839-5.628-3.858-7.842-6.517-1.028-1.234-3.041.251-2.01 1.492"/><path d="m18.09 10.09c.581 1.524 1.021 3.089 1.481 4.652.459 1.549 2.785.627 2.33-.907-.463-1.559-.895-3.127-1.478-4.648-.578-1.51-2.905-.599-2.333.903"/><path d="m8.958 11.902c1.654 2.01 3.199 4.088 4.644 6.253.895 1.339 2.896-.159 2.01-1.494-1.447-2.164-2.988-4.244-4.648-6.251-1.02-1.238-3.03.25-2 1.492"/><path d="m3.945 26.789c2.036.532 3.862 1.636 5.829 2.365 1.5.56 2.493-1.733.977-2.3-2.176-.806-4.181-1.946-6.44-2.537-1.561-.402-1.91 2.075-.366 2.472"/><path d="m9.04 5.01c1.792 3.03 2.728 6.464 4.04 9.708.601 1.496 2.931.586 2.328-.907-1.402-3.467-2.45-7.05-4.361-10.29-.819-1.389-2.818.119-2.01 1.489"/></g></g></svg>