<svg xmlns="http://www.w3.org/2000/svg" viewBox="0 0 64 64" enable-background="new 0 0 64 64"><path fill="#d07929" d="m57.3 16c-9.164-4.518-18.329-9.04-27.49-13.558-.624-.307-1.282-.733-2.01-.514-.449.137-.89.464-1.292.692-2.11 1.204-4.223 2.405-6.334 3.611-5.596 3.195-11.193 6.387-16.794 9.582-.722.414-1.447.823-2.171 1.237-.213.062-.404.182-.57.333-.796.527-.798 1.424-.384 2.078.117.232.302.445.558.621 8.696 5.872 17.391 11.741 26.09 17.615.609.41 1.219.823 1.826 1.235.435.291 1.198.271 1.619-.039 8.411-6.268 16.827-12.538 25.24-18.809.593-.439 1.183-.878 1.771-1.317.907-.673 1.1-2.191-.061-2.767"/><path fill="#f6921e" d="m30.935 37.29c-.201-.667-.888-1.03-1.43-1.401-8.868-6.05-17.736-12.09-26.604-18.15-.207-.312-.515-.481-.851-.534-.841-.351-1.59.218-1.861.987-.144.302-.205.652-.128 1.046.901 4.859 1.808 9.722 2.711 14.582.537 2.885 1.073 5.773 1.611 8.66.222 1.179.23 2.224 1.225 3 7.754 6.05 15.508 12.1 23.26 18.15 1.056.823 2.741.308 2.706-1.194-.117-5.04-.234-10.08-.351-15.12-.064-2.777-.131-5.552-.191-8.33-.013-.538.057-1.186-.097-1.706"/><path fill="#9a5524" d="m.946 23.839c.32-.175.701-.23 1.104-.062.335.055.644.225.851.535 8.868 6.05 17.736 12.1 26.604 18.15.542.371 1.229.733 1.43 1.4.154.523.084 1.167.098 1.705.061 2.778.127 5.556.191 8.334.07 3.02.138 6.03.208 9.05.088-.199.148-.418.143-.68-.117-5.04-.234-10.08-.351-15.12-.064-2.777-.131-5.556-.191-8.334-.014-.535.057-1.183-.098-1.705-.201-.665-.888-1.03-1.43-1.4-8.868-6.05-17.736-12.09-26.604-18.15-.207-.31-.515-.48-.851-.535-.841-.349-1.59.221-1.861.989-.144.302-.205.651-.128 1.045.292 1.593.588 3.185.885 4.778"/><path fill="#d07929" d="m55.75 16.14c-8.246 6.104-16.491 12.212-24.739 18.317-.552.406-1.104.817-1.652 1.224-.057.041-.1.08-.146.119-.363.263-.609.69-.597 1.285.199 8.469.394 16.943.591 25.413.035 1.502 1.699 1.939 2.686 1.069 7.251-6.375 14.506-12.75 21.763-19.12.815-.718.761-2.657.911-3.641.462-2.995.918-5.989 1.377-8.984.714-4.645 1.426-9.282 2.136-13.924.194-1.258-1.114-2.654-2.33-1.753"/><path fill="#9a5524" d="m29.21 41.979c.046-.035.091-.074.146-.113.546-.391 1.1-.788 1.652-1.175 8.246-5.88 16.493-11.758 24.741-17.631.526-.378 1.069-.322 1.5-.055.275-1.726.552-3.457.825-5.185.197-1.209-1.111-2.553-2.325-1.689-8.248 5.876-16.495 11.755-24.741 17.631-.552.393-1.106.786-1.652 1.177-.055.039-.1.078-.146.115-.361.253-.607.665-.595 1.236.051 2.073.1 4.148.15 6.224.106-.22.256-.403.445-.535"/><g fill="#be202e"><path d="m37.507 6.244l-27.931 15.876 9 6.14 26.08-18.488z"/><path d="m19.427 6.663l28.19 15.265-10.18 7.252-24.706-18.693z"/></g><g fill="#cc2f42"><path d="m18.581 28.26l1.225 28.31-8.108-6.33-2.122-28.12"/><path d="m37.433 29.18v29.52l9.242-8.119.938-28.653"/><path d="m26.06 6.03c-3.531 2.928-5.442 8.232-5.879 12.176-.468 4.208-.554 8.615-3.191 12.188-.378.513-.043.829.488.507 1.531-.938 2.848-2.062 4.067-3.339.778 1.58.521 3.451.345 5.177-.082.784 1.086-.185 1.258-.364 3.58-3.919 2.405-8.749 3.365-13.616 2.543-12.883 2.044-14.797-.453-12.729"/><path d="m31.1 18.654c2.255 4.417 2.435 9.385 6.954 12.177.207.125 1.6.739 1.308.008-.635-1.613-1.399-3.342-1.079-5.072 1.518.899 3.092 1.621 4.826 2.103.601.164.827-.226.323-.62-3.507-2.72-4.795-6.933-6.391-10.854-1.502-3.677-4.783-8.263-8.981-10.11-2.967-1.309-2.92.667 3.04 12.367"/><path d="m14.12 3.485c3.798-.53 12.446 1.024 12.91 4.354.462 3.328-7.434 7.179-11.229 7.709-3.796.527-6.081-1.912-6.544-5.24-.468-3.333 1.069-6.296 4.863-6.823"/><path d="m38.27.126c-3.8.532-11.695 4.383-11.23 7.713.462 3.328 9.114 4.879 12.902 4.354 3.804-.53 5.333-3.496 4.869-6.826-.461-3.337-2.744-5.767-6.541-5.241"/></g><path fill="#ef556c" d="m33.935 6.175c.357 2.577-1.441 4.957-4.02 5.312l-4.655.649c-2.579.359-4.958-1.439-5.317-4.01-.357-2.575 1.441-4.953 4.02-5.316l4.662-.649c2.574-.355 4.954 1.442 5.315 4.02"/></svg>