<svg xmlns="http://www.w3.org/2000/svg" viewBox="0 0 64 64" enable-background="new 0 0 64 64"><path fill="#d1d2d3" d="m43.799 34.903c0 0 1.716 8.46.449 10.828 0 0-12.503 7.709-12.251 4.263l7.967-6.449c0 0-2.574-7.741-2.858-8.713 0 0-.478-6.985 6.693.071"/><path fill="#25333a" d="m31.3 50.603c-.744.6-1.045 1.424-1.22 2.109-.474 1.822 1.263 1.725 1.263 1.725 1.204-.006 2.641.035 1.969-3.749-.109-.596-1.293-.674-2.01-.085"/><path fill="#0b8777" d="m33.16.995c0 12.685 0 25.364 0 38.06 0 8.06 0 16.14 0 24.2 0 .524.031.941.072.941.962 0 1.927 0 2.892 0 .557 0 1.104 0 1.659 0 .037 0 .07-.417.07-.941 0-12.686 0-25.368 0-38.06 0-8.07 0-16.14 0-24.2 0-.28-.008-.5-.021-.646 0-.018 0-.018 0-.031 0 0-.002-.006-.002-.016 0-.146-.027-.258-.047-.258-.966 0-1.931 0-2.896 0-.55 0-1.104 0-1.654 0-.042 0-.073.426-.073.951"/><path fill="#08695a" d="m35.833.952c0 12.685 0 25.364 0 38.06 0 8.06 0 16.14 0 24.2 0 .524.018.941.035.941.483 0 .963 0 1.446 0 .278 0 .555 0 .83 0 0 0 .036-.417.036-.941 0-12.686 0-25.368 0-38.06 0-8.07 0-16.14 0-24.2 0-.28-.006-.5-.001-.646 0 0 0-.018 0-.032 0 0-.002-.006-.002-.016-.006-.146-.014-.258-.014-.258-.493 0-.977 0-1.456 0-.276 0-.552 0-.83 0-.017 0-.035.427-.035.952"/><path fill="#25333a" d="m51.04 16.616c-1.068-.352-1.678-.209-1.934.271-.349.646.283 1.592 1.623 3.499 1.051 1.48 2.633 3.726 2.347 4.589-.585 1.774-4.924 5.096-6.535 6.23l.674.873c.409-.219 9.997-5.462 9.635-10.39-.16-2.141-2.111-3.844-5.81-5.072"/><g fill="#d1d2d3"><path d="m6.872 20.04c-7.694 3.02.278-11.751 1.049-10.704 2.422 3.27.041 10.281-1.049 10.704"/><path d="m37.27 23.457c6.508-1.12 12.883.958 14.741 7.087 1.854 6.138.922 7.638-5.368 9.856-5.946 2.104-14.831 4.65-17.06-.834-1.546 1.329-3.113 2.34-4.252 2.741-3.491 1.233-7.461-1.564-8.881-6.262-1.417-4.688.257-9.485 3.744-10.721 2.578-.907 8.663-.41 17.07-1.867"/><path d="m19.1 35.428c0 0-4.959.356-10.378 5.917 0 0-.353 1.123 1.214 3l6.484 6.06c0 0 2.156-.678.954-2.901l-4.785-4.732 6.715-2.02 1.367-4.205-1.571-1.119"/><path d="m22.621 38.711c0 0-3.932 8.07-3.313 10.57 0 0 5.609 5.331 7.994 7.248 0 0 3.08.738 2.898-1.396l-6.113-7.417c0 0 4.587-7.252 5.122-8.164 0 0 2.326-6.793-6.588-.841"/><path d="m49.849 36.01c0 0 6.084 6.604 6.213 9.175 0 0-3.842 6.722-5.578 9.239 0 0-2.739 1.59-3.176-.505l3.726-8.857c0 0-6.484-5.629-7.252-6.35 0 0-4.175-5.838 6.067-2.702"/><path d="m9.678 13.194c-2.52 1.236-5.956 2.387-5.557 4.628.233 1.308.686 2.675 1.263 4.049 4.345 2.708 8.721 12.413 8.721 12.413 3.986 6.426 2.923 2.318 3.565 2.118 3.01-.934 9.06-4.767 9.116-8.01.041-3.234-14.675-16.385-17.11-15.195"/><path d="m4.963 29.454c3.489-1.513 5.84-4.587 7.53-7.26 4.511-7.123-1.521-9.178-1.576-9.176-4.03-1.694-7.03-2.575-10.813 14.52-.604 2.719 1.488 3.377 4.859 1.916"/></g><g fill="#25333a"><path d="m18.639 48.802c-.556-.47-1.288-.571-1.899-.603-1.627-.075-1.502 1.214-1.502 1.214.027.904.02 1.99 3.36.912.53-.171.571-1.073.041-1.523"/><path d="m30.76 55.5c-.809-.421-1.725-.358-2.471-.247-1.976.308-1.419 1.795-1.419 1.795.327 1.062.66 2.342 4.327.255.585-.329.346-1.402-.437-1.803"/><path d="m47.46 53.953c-.58.934-.598 2.042-.531 2.954.177 2.41 2.034 1.878 2.048 1.876 1.291-.284 2.86-.566.703-5.187-.349-.736-1.661-.549-2.22.357"/><path d="m16.644 23.708c-1.79-2.461-6.369-.801-8.27 1.425-1.149-2.187-3.126-3.601-5.803-4.192-.554-.122-2.144.39-.953.654 3.136.689 5.04 2.841 5.732 5.933.127.587 1.985.438 1.888 0-.063-.288-.153-.548-.235-.819.241-.041.447-.123.494-.264.554-1.447 4.049-4.299 5.321-2.537.332.458 2.12.203 1.826-.2"/></g><g fill="#c5344d"><path d="m42.522 23.653c-.388-.689-.85-1.329-1.392-1.842-.619-.585-1.327-.775-2.17-.722-.926.059-1.415.759-1.719 1.558-.004.004.002.006.002.006-2.461.615-4.916.654-7.367.897-.151-.241-.315-.468-.507-.642-.452-.415-1.108-.525-1.703-.433-.85.133-1.218.691-1.516 1.455-.062.156-.062.603.127.683.094.217 1.077.088 1.431.027.139.025.284.053.427.079.57 1.114.963 2.238 1.149 3.532.157 1.049-.245 2.42.272 3.397.762 1.445 2.044 2.128 3.679 2.142.271.002.561-.006.852-.012.717.074 1.475.016 2.254-.142 2.6-.27 5.403-.971 7.01-2.602 1.542-1.572.823-5.411-.826-7.381"/><path d="m24.32 18.946c.339-1.784-8.243-10.892-18.519-8.939-.623.115-1.212 1.306-1.065 2.199.178 1.09.358 2.181.539 3.273.19 1.171 1.102 1.269 1.764.746 4.554-3.336 10.639 1.428 10.976 1.892 1.057 1.48 2.028 2.876 2.897 4.593.323.634 1.261.552 1.717-.165.683-1.061 1.435-2.265 1.691-3.599"/></g><path fill="#d1d2d3" d="m9.595 19.4c-8.199 1.506 3.188-11.516 3.675-10.339 1.529 3.681-2.512 10.134-3.675 10.339"/></svg>