<svg xmlns="http://www.w3.org/2000/svg" viewBox="0 0 64 64" enable-background="new 0 0 64 64"><g transform="translate(10)"><g fill="#c26c29"><path d="m.54 63.06c0 0-2.377-5.118 3.44-11.01 5.815-5.89 5.302 1.031 5.302 1.031l.955 2.725-4.49 3.753-5.207 3.499"/><path d="m45.15.299c0 0-7.678-1.656-12.645 9.455-4.966 11.11 3.732 7.673 3.732 7.673l3.943.41 2.814-8.275 2.156-9.263"/></g><path d="m9.07 2.077c0 0 8.134 6.06 25.395 0l-1.727 9.192-9.122 9.528-10.11-2.801-3.207-8.522-1.229-7.397" fill="#26799e"/><g fill="#45a7dd"><path d="m41.537 24.15c-9.06-.847-1.856-20.15-1.856-20.15-1.191-1.628-3.657-1.962-5.605-1.938-1.689-.018-3.073.255-3.073.255-.081.188-.163.375-.247.555-.143 5.486-4.391 9.906-9.67 10.07-5.28-.167-9.526-4.586-9.671-10.07-.082-.18-.165-.366-.245-.555 0 0-1.386-.272-3.075-.255-1.948-.024-4.415.31-5.607 1.938 0 0 7.205 19.304-1.856 20.15 0 0-1.421 2.687 0 5.08 0 0 1.888 9.445 1.323 19.21.031.012.059.023.086.037-.051.792-.118 1.59-.204 2.386.004.014.853 4.537 3.943 5.504 1.556.271 3.418.559 5.441.813.004.012.008.021.014.033 2.528.313 5.317.566 8.114.639.059.002.116.002.17.004.077.002.151.002.228.004.239.004.48.008.719 0 .151.002.302 0 .453 0 .055 0 .11 0 .165 0 .057 0 .109 0 .168 0 .149 0 .298.002.449 0 .241-.002.48-.006.719 0 .075-.002.151-.002.226-.004.059-.002.116-.002.172-.004 3.918-.102 7.822-.555 11.01-1.037 0-.014.004-.025.004-.037.913-.137 1.771-.276 2.552-.411 3.091-.967 3.941-5.49 3.943-5.504-.047-.455-.09-.907-.129-1.362.023-.014.053-.029.078-.045-.765-10.113 1.257-20.225 1.257-20.225 1.422-2.393 0-5.08 0-5.08"/><path d="m23.642 45.726c-.137-.523-.284-1.047-.433-1.566-.037-.121-.079-.241-.104-.323-.249-.771-.476-1.555-.696-2.334-.431-1.545-.829-3.096-1.162-4.663-.923-4.314-1.548-8.634-1.882-13.02-.28-3.675-.304-7.399-.025-11.1-4.441-.962-7.799-4.988-7.926-9.855-.082-.18-.165-.366-.245-.555 0 0-1.386-.272-3.075-.255-1.947-.024-4.414.31-5.606 1.938 0 0 7.205 19.304-1.856 20.15 0 0-1.421 2.687 0 5.08 0 0 1.888 9.445 1.323 19.21.031.012.059.023.086.037-.051.792-.118 1.59-.204 2.386.004.014.853 4.537 3.943 5.504 1.556.271 3.418.559 5.441.813.004.012.008.021.014.033 2.528.313 5.317.566 8.114.639.059.002.116.002.17.004.077.002.151.002.228.004.239.004.48.008.719.001.151.002.302 0 .453 0 .055 0 .11 0 .165 0 .057 0 .109 0 .168 0 .149 0 .298.002.449 0 .241-.002.48-.006.719-.001.075-.002.151-.002.226-.004.059-.002.116-.002.172-.004 1.229-.033 2.456-.1 3.659-.19-.971-3.996-1.792-8.03-2.835-11.933"/></g><path d="m45.72.389c-.747-.525-1.835-.508-3.191-.014-.043 6.07-6.423 19.467-16.379 33.576-9.958 14.11-20.444 24.612-26.15 26.682-.001 1.448.339 2.478 1.083 3 3.877 2.737 17.01-9.204 29.337-26.67 12.325-17.464 19.17-33.843 15.299-36.577" fill="#f69220"/></g></svg>