<svg xmlns="http://www.w3.org/2000/svg" viewBox="0 0 64 64" enable-background="new 0 0 64 64"><path fill="#fff" d="m60.887 19.576c-.033-.371-.232-.58-.482-.683-.041-.114-.088-.231-.129-.352-1.699-4.915-7.07-9.337-12.441-8.846-3.162-1-6.338-.807-9.713-.474-2.514.249-1.682 4.064.814 3.817 1.586-.156 3.096-.265 4.561-.188.029.622.293 1.257.766 1.846-.15.223-.232.46-.256.711-1.078 1.137.086 2.878 1.432 3.141 3.994.771 7.582.489 10.617 3.594.184.19.395.317.613.42.014.064.016.125.049.194.916 2 1.652 4.087 1.617 6.313.016 1.242 1.936 1.401 1.957.137-.044-3.238.88-6.383.595-9.63"/><g transform="translate(0 7.664)"><path d="m.083 56.33c1.01-.721 3.11-1.447 4.314-2.145.809-.472 1.551-.78 2.394-1.16 4.557-2.051 9.708 3.593 14.679 3.295 4.671-.285 11.375-5.473 16.188-4.406 4.887 1.087 7.18-.012 12.07 1.087.684.154.461-.424 1.146-.266.471-.938.307-2.206-.701-2.774-.41-.229-.807-.582-1.205-.903-2.064-1.685-4.084-3.517-5.723-6.195-1.35-2.213-2.285-4.709-2.512-7.538-.23-2.836.26-5.239 1.184-7.35 1.785-4.076 4.377-6.57 7.73-7.473 1.365-.363 2.789-.261 4.242.684 2.078 1.356 3.189 3.865 3.725 6.884.297 1.654.389 3.335.576 5.05 1.594-2.023 3.02-4.303 3.693-7.474.756-3.536.215-6.968-1.773-10.184-1.43-2.307-3.162-3.841-5.01-4.985-4.172-2.586-8.315-3.145-12.442-2.978-2.787.11-5.449.782-8.04 1.759-3.089 1.165-6.06 2.706-8.873 4.7-8.53 6.05-15.12 15.03-20.896 25.856-1.797 3.377-3.75 6.924-4.758 10.594v5.922zm36.731-45.709c.744-.278 1.473-.61 2.232-.825 1.773-.5 3.613-.667 5.49-.542 3.799.251 7.596 1.063 11.314 3.831 1 .743 1.977 1.768 2.836 2.901 1.518 1.992 2.127 4.472 1.988 7.156-.117 2.323-1.131 5.964-1.871 6.978-.268-1.648-.432-3.441-.869-5.154-.893-3.504-2.732-5.313-5-5.815-1.461-.32-2.914-.293-4.293-.418.16-.226.439-.547.674-.939.518-.873.311-1.646-.549-1.979-1.033-.397-2.027-.331-2.992-.093-.482.122-.967.267-1.473.404.338-.487.684-.917.975-1.418.693-1.183.438-2.247-.699-2.953-1.152-.713-2.316-.922-3.459-.972-1.357-.057-2.695.03-4.04.056-.074 0-.145-.006-.215 0-.014-.067-.03-.14-.046-.208" fill="#66b1de" fill-rule="evenodd"/><path d="m33.93 26.694c9.75 9.795 14.953 21.261 11.619 25.604-3.334 4.347-13.938-.072-23.685-9.871-9.75-9.795-14.955-21.262-11.621-25.604 3.336-4.348 13.936.073 23.687 9.871" fill="#9fbfcc"/><path d="m31 25.487c7.979 8.02 12.237 17.406 9.508 20.96-2.729 3.559-11.41-.058-19.385-8.08-7.979-8.02-12.237-17.407-9.512-20.958 2.729-3.559 11.41.057 19.389 8.07" fill="#9974b2"/><g fill-rule="evenodd"><path d="m24.831 7.082c-1.042.501 1 2.926 1 2.926.085.31.645.169 1.181-.052l.011.025c.077-.048.158-.089.23-.139.418-.187.775-.396.82-.422 4.795-2.065 6.125 4.467 6.125 4.467.541 2.248 1.668.803 1.668.803.494-1.181-1.979-5.761-1.979-5.761-.869-2.01-4.829-2.133-6.902-2.061-.725-.144-2.158.214-2.158.214" fill="#8960a8"/><path d="m33.76 12.878c.859-.72 1.992-.757 2.537-.074.541.678.289 1.817-.563 2.539-.852.719-1.988.753-2.534.076-.539-.685-.287-1.816.56-2.541" fill="#fbb042"/></g><path d="m21.94 26.417c0 0 1.058 1.325.169 1.85l-4.561-.004c0 0-1.288-.973.073-1.743l2.66-.695 1.659.592" fill="#fbb042" fill-rule="evenodd"/><g fill="#445a62"><path d="m27 12.823c0 0-5.73 2.734-6.703 4.531 0 0-.211 6.07-.126 8.442 0 0 .973 2.039 1.958.681l1.027-7.563c0 0 5.607-1.905 6.293-2.167 0 0 4.393-2.809-2.449-3.924"/><path d="m20.952 8.173c0 0 4.499-3.374 8.428.593 0 0 7.757 4.171 5.499 8.833l-5.02-1.624c0 0-.06-1.908-1.584-1.984 0 0-9.981 1.06-7.325-5.818"/></g><path d="m33.66 34.03c0 0 1.943.429 1.385 1.722l-4.599 3.905c0 0-1.936.125-1.066-1.817l2.216-2.985 2.064-.825" fill="#fbb042" fill-rule="evenodd"/><path d="m29.861 15.975c0 0-3.984 7.673-3.792 10.328 0 0 3.763 6.3 5.404 8.619 0 0 2.313 1.217 2.418-.992l-3.917-8.515c0 0 4.411-6.732 4.928-7.587 0 0 2.592-6.605-5.04-1.853" fill="#445a62"/><g fill-rule="evenodd"><path d="m23.05 5.287c.468 2.247-.452 4.426-2.05 4.859-1.606.441-3.285-1.027-3.752-3.273-.467-2.248.453-4.426 2.055-4.86 1.602-.433 3.28 1.032 3.747 3.274" fill="#fbb042"/><path d="m28.25 9.835c.061-1.246-3.227-.076-3.227-.076-.333-.054-.483.376-.544 1.376h-.034c.004 0 .004-.024.008.075-.031.493-.02.83-.02.894-.495 5.643-7.235 4.091-7.235 4.091-2.365-.424-1.587 1.286-1.587 1.286.847 1 6.358.57 6.358.57 2.307 0 4.418-3.917 5.388-5.917h.003c.502-.999.89-2.299.89-2.299" fill="#8960a8"/><path d="m18.35 16.15c.241 1.156-.295 2.3-1.204 2.545-.904.25-1.836-.492-2.078-1.65-.241-1.158.299-2.298 1.204-2.545.909-.247 1.84.495 2.078 1.65" fill="#fbb042"/></g><path d="m25.643 1.736c-.942-.209-1.874-.407-2.821-.528.276-.281.472-.622.609-1.122.169-.608-3.116 1.143-4.112 1.361.034-.177.64-1.262.483-1.241-1.396.18-1.706.416-1.924.675-1.05 1.228-1.12 2.739-.836 4.416.069.397 2.089-.439 2.253-.555.445-.302.847-.66 1.257-1.026.475-.428.9-.232 1.341-.085-.045.209-.088.422-.11.652-.046.434.781.5 1.268 1.01.165.173-.487-1.92 2.081-2.804.231-.08 1.282-.578.511-.749" fill="#405967"/></g></svg>