<svg xmlns="http://www.w3.org/2000/svg" viewBox="0 0 64 64" enable-background="new 0 0 64 64"><path fill="#ba3652" d="m48.32 12.761c4.03-.69 7.871 1.383 9.787 3.678 1.986 2.375 2.734 5.099 2.222 8.098-.398 2.304-1.505 4.376-3.132 6.02.574.226 1.188.377 1.83.449.49-.551.938-1.143 1.338-1.77 1.705-2.659 2.257-6.594 1.342-9.575-.876-2.854-2.637-5.03-5.361-6.665-1.318-.792-2.621-1.379-4.699-1.679-1.065-.151-2.127-.173-3.16-.059-.789.584-.789.914-.789.916.003.064.134.291.622.591"/><g fill="#b23650"><path d="m26.02 49.08c-.89-3.02-3.185-5.339-6.826-6.906-.198-.086-.406-.165-.607-.247-1.029.797-1.503 1.857-.253 3.352.527.636 1.705 1.392 4.568 4.242 1.895 1.885-.939 5.957-1.676 7.228.151.474.81 1.614 1.686 1.989.247.106.996.433 2.132-.692.392-.656 2.197-4.814.976-8.966"/><path d="m51.838 50.28c-.893-3.01-3.186-5.338-6.827-6.905-.196-.086-.401-.16-.606-.247-1.027.796-1.504 1.861-.254 3.355.533.631 4.152.748 4.57 4.24.322 2.649-.938 5.953-1.679 7.229.153.474.813 1.613 1.688 1.99.248.103.998.428 2.131-.693.395-.654 2.202-4.816.977-8.969"/></g><path fill="#d13852" d="m20.693 27.944c0 0 35.675-4.92 38.507-2.966 2.829 1.958 4.438 15.523-.201 18.35-4.644 2.824-32.976 6.398-38.718 3.585-5.733-2.808-2.579-17.395-2.579-17.395"/><g fill="#ba3652"><path d="m24.287 38.859c4.688-2.584 6.128-7.191 4.449-11.958-4.703.583-8.04 1.042-8.04 1.042l-2.991 1.574c0 0-1.129 5.262-.794 10.07 2.368.696 5.249.445 7.378-.731"/><path d="m32.93 34.11c8.125-5.789 17.891-7.841 27.662-7.03-.402-.994-.876-1.743-1.392-2.099-1.736-1.198-15.822.189-26.46 1.442.692 2.567.765 5.235.19 7.687"/></g><g fill="#d13852"><path d="m55.04 39.21c-.388-.051-5.067-.286-5.474-.321-1.592-.129-2.978 3.073-3.394 3.771-.399.678-.127 1.814.774 3.201 1.33 2.039 3.878 2.363 4.543 2.199.412-.105.837-.215 1.311-.287 2.234-.336 4 .35 5.057 1.926 1.92 2.873.947 7.748.478 9.591.358.541 1.584 1.722 2.806 1.878.348.046 1.396.18 2.409-1.615.263-.955 1.025-6.781-1.973-11.512-2.175-3.438-1.448-8.177-6.537-8.831"/><path d="m33.705 50.755c-.674-3-2.569-7.185-4.809-9.411-1.944-1.939-8.56.616-6.773 2.479.996 1.039 2.234 1.756 3.296 2.725.239.215.455.441.654.669 1.642.052 2.958.726 3.806 1.992 1.923 2.877.949 7.752.479 9.595-.208 1.709 3.126 1.912 3.378 1.868.694-3.02.31-8.377-.031-9.917"/></g><g fill="#84283c"><path d="m24.88 57.21c-.525-.764-1.352-1.076-2.048-1.27-1.855-.502-2.01 1.234-2.01 1.25-.177 1.191-.434 2.623 3.659 2.025.65-.092.905-1.275.397-2"/><path d="m50.836 57.938c-.527-.76-1.348-1.076-2.049-1.272-1.857-.502-2.01 1.237-2.01 1.254-.174 1.19-.436 2.622 3.66 2.02.648-.094.909-1.274.397-2"/><path d="m63.5 58.61c-.66-.945-1.689-1.342-2.556-1.584-2.324-.631-2.513 1.543-2.509 1.561-.224 1.484-.541 3.279 4.569 2.527.806-.118 1.129-1.592.496-2.504"/><path d="m34.06 58.945c-.498-.791-1.281-1.125-1.942-1.323-1.77-.522-1.92 1.301-1.92 1.319-.17 1.254-.417 2.764 3.479 2.121.617-.101.864-1.347.383-2.117"/></g><g fill="#e5d1ca"><path d="m4.059 8.519c.643-1.742 2.688 1.325 4.01 3.03 1.328 1.697 2.535 3.185 1.07 4.327-1.463 1.144-1.915 6.171-3.243 4.472-1.329-1.697-2.559-9.873-1.842-11.824"/><path d="m27.11 8.519c-.641-1.742-2.688 1.325-4.01 3.03-1.329 1.697-2.534 3.185-1.07 4.327 1.461 1.144 1.914 6.171 3.237 4.472 1.329-1.697 2.564-9.873 1.846-11.824"/></g><g fill="#d13852"><path d="m3.35 26.516c0 4.937 5.506 8.931 12.311 8.931 6.8 0 12.311-3.995 12.311-8.931 0-4.931-5.511-17.09-12.311-17.09-6.805 0-12.311 12.164-12.311 17.09"/><path d="m27.338 20.608c-1.73.266-3.298-.649-3.514-2.046-.214-1.397 1.01-2.742 2.736-3.01 1.724-.265 6.154.211 6.37 1.609.215 1.397-3.866 3.18-5.592 3.445"/><path d="m4.108 20.18c1.284.198 2.452-.482 2.612-1.521.157-1.036-.749-2.035-2.036-2.233-1.284-.198-4.572.157-4.733 1.195-.159 1.039 2.871 2.363 4.157 2.559"/></g><path fill="#84283c" d="m46.751 9.449c1.741.177 3.03 1.456 2.886 2.863-.143 1.405-1.66 2.401-3.404 2.223-1.733-.175-5.902-1.748-5.76-3.155.143-1.406 4.541-2.109 6.278-1.931"/><path fill="#d08565" d="m3.342 27.657c0-4.304 4.913-4.223 11.611-4.223 6.705 0 12.656-.081 12.656 4.223 0 4.303-5.435 7.792-12.13 7.792-6.699-.002-12.135-3.489-12.135-7.792"/><g fill="#784e3d"><ellipse cx="7.896" cy="28.758" rx="2.261" ry="2.739"/><path d="m25.06 28.738c0 1.517-1.01 2.742-2.259 2.742-1.249 0-2.263-1.225-2.263-2.742 0-1.511 1.015-2.738 2.263-2.738 1.248 0 2.259 1.228 2.259 2.738"/></g><g fill="#25333a"><ellipse cx="11.899" cy="20.929" rx="1.832" ry="2.218"/><ellipse cx="19.42" cy="20.929" rx="1.831" ry="2.218"/></g><path fill="#84283c" d="m22.452 15.808c-.341 0-.68 0-1.019 0-.051 0-.088.02-.135.028-.051.008-.104.001-.155.031-.086.034-.159.083-.22.143-.016.014-.032.014-.047.025-2.452 2.397-5.671 2.939-8.736 1.366-1.646-.848-1.511-1.593-3.273-1.593-.717 0-.987.837-.553 1.337 3.974 4.585 10.714 4.585 14.69 0 .436-.5.167-1.337-.552-1.337"/></svg>