<svg xmlns="http://www.w3.org/2000/svg" viewBox="0 0 64 64" enable-background="new 0 0 64 64"><path fill="#7f5736" d="m25.965.878c-.221-.998-2.127-.376-2.559.229-4.058 5.642-7.877 11.393-4.523 17.526.302.559 8.09 2.482 8.426.958 1.505-6.727.574-10.06-1.344-18.713"/><path fill="#7c5331" d="m16.277 34.35c9.479 6.213 13.814 20.415 8.572 29.645h39.18c.104-19.768-13.651-36.74-26.604-51.976-.729-.855-6.199-.194-7.238.343-.386 0-.754.055-1.051.192-7.858 3.581-13.591 13.12-15.15 20.297-.198.908 1.033 1.445 2.293 1.499"/><path fill="#68452b" d="m16.277 34.35c6.02 3.945 9.952 11.11 10.687 18.18 3.932-2.356 7.672-4.952 10.96-7.827 2.819-2.467 8.628-6.448 8.08-10.7-.688-5.357-4.01-12.18-8.771-15.207-2.396-1.521-2.95-4.432-2.401-7.175-1.827.06-4.02.417-4.647.738-.386 0-.754.055-1.051.192-7.858 3.581-13.591 13.12-15.15 20.297-.197.908 1.034 1.445 2.294 1.499"/><path fill="#8c6239" d="m40.32 15.681c-3.892-7.843-18.17-11.08-22.469-3.43-4.298 7.65-15.808 28.93-16.313 31.538-.504 2.606 1.795 3.878 3.188 4.75 1.84 1.396 5.495 2.738 6.512 2.773 1.018.037 1.664-.192 3.377-1.613 1.714-1.421 4.563-5.764 5.474-6.869 2.705-2.752 5.437-5.175 9.122-6.813 2.621-1.165 5.993-1.819 8.207-3.776 5.04-4.452 5.824-10.674 2.902-16.56"/><path fill="#7f5736" d="m5.635 49.14c2-4.84 4.517-9.403 6.873-14.1 2.46-4.901 4.884-9.857 8.215-14.247 3.963-5.223 7.941-9.146 13.186-11.08-5.729-2.817-13.16-2.625-16.06 2.539-4.298 7.65-15.808 28.93-16.313 31.538-.504 2.606 1.795 3.878 3.188 4.75.268.201.579.403.91.601"/><g fill="#c2986b"><path d="m.862 45.2c0-3.894 3.313-3.821 7.829-3.821 4.521 0 8.535-.072 8.535 3.821 0 3.896-3.665 7.05-8.184 7.05-4.516 0-8.18-3.158-8.18-7.05"/><path d="m10.705 44.45c0-2.044 1.74-2.01 4.111-2.01 2.373 0 4.479-.039 4.479 2.01 0 2.047-1.921 3.703-4.294 3.703-2.373 0-4.296-1.656-4.296-3.703"/></g><path fill="#604832" d="m10.08 45.632c0-1.331 1.134-1.306 2.679-1.306s2.917-.025 2.917 1.306c0 1.333-1.252 2.415-2.797 2.415-1.547 0-2.799-1.082-2.799-2.415"/><path fill="#fff" d="m32.716 21.686c0 2.936-2.158 5.309-4.822 5.309s-4.828-2.373-4.828-5.309c0-2.934 2.164-5.309 4.828-5.309s4.822 2.375 4.822 5.309"/><path fill="#25333a" d="m31.02 21.686c0 1.535-1.4 2.782-3.122 2.782-1.726 0-3.124-1.247-3.124-2.782 0-1.536 1.398-2.783 3.124-2.783 1.722 0 3.122 1.247 3.122 2.783"/><path fill="#604832" d="m63.36 48.3c.089-.113.14-.249.085-.427-.187-.61-.391-1.208-.606-1.798.498-1.847-.423-3.619-1.602-5.205.341-.078.604-.286.537-.687-.615-3.554-2.581-6.249-4.589-9.06.486.157 1.737.051 1.413-.636-1.905-4.01-4-6.01-7.086-8.608.031-.082.018-.172-.033-.275.988-.215 1.952-.471 2.954-.873.888-.358-.093-1.123-.597-1.179-3.134-.339-5.675-2.381-7.567-4.779.764.132 1.515.316 2.245.593.451.142 1.771-.122 1.222-.841-3.129-4.103-7.245-5.275-11.875-5.985.356-.103.713-.206 1.07-.309.736-.099 1.091-.729.354-1.164-2.991-1.77-5.171-.304-8.114-.498-.733-.186-1.481-.314-2.263-.311-.033 0-.052.02-.083.023.117-.349-.131-.785-.817-.854-2.934-.303-5.609-.495-8.332.787-.862.407.07 1.108.595 1.179.047.006.089.004.134.009-2.045.632-3.856 1.482-4.858 3.839-.311.731.89 1.057 1.394.876.876-.312 1.702-.737 2.526-1.155-.599 1.324-.734 2.887-.797 4.544-.031.847 1.582 1.016 1.945.365 1.101-1.986 2.705-3.564 4.608-4.655.173-.031.341-.08.51-.118.2.101.427.168.66.144.184-.02.36-.062.541-.087-.398.366-.785.752-1.156 1.194-.638.762.704 1.181 1.275 1.021 1.088-.3 2.125-.7 3.112-1.2-.099.277-.205.537-.292.828-.233.768 1.286.857 1.755.553.418.056.882.014 1.074-.125.818-.583 1.411-1.18 1.708-1.91 1.846.656 3.572 1.416 5.184 2.4 1.109.683 2.137 1.489 3.083 2.398.144.169.262.357.402.527-.479-.018-.985.173-1.08.467-.352.175-.516.481-.094.855 3.785 3.368 6.523 7.59 9.319 11.767 5.02 7.973 9.265 16.6 11.01 25.704.14.722 1.568 1.942 1.555 1.123-.04-2.509.084-6.06-.432-8.455"/><path fill="#8c6239" d="m44.47 4.067c.056-1.021-1.944-.935-2.524-.469-5.427 4.344-10.652 8.854-9.07 15.663.144.619 7.122 4.566 7.86 3.189 3.258-6.073 3.258-9.532 3.738-18.383"/></svg>