<svg xmlns="http://www.w3.org/2000/svg" viewBox="0 0 64 64" enable-background="new 0 0 64 64"><circle fill="#e0e7ec" cx="32.05" cy="32.05" r="29.694"/><path fill="#d1d7da" d="m52.39 47.25c-16.399 0-29.693-13.294-29.693-29.694 0-5.453 1.495-10.547 4.06-14.939-13.806 2.553-24.27 14.633-24.27 29.18 0 16.399 13.294 29.693 29.694 29.693 10.948 0 20.485-5.94 25.635-14.756-1.761.327-3.57.519-5.426.519"/><path fill="#98a9b4" d="m0 32.05c0 17.674 14.378 32.05 32.05 32.05 17.674 0 32.06-14.379 32.06-32.05 0-17.677-14.38-32.06-32.06-32.06-17.675 0-32.05 14.378-32.05 32.05m6.24 0c0-14.236 11.581-25.816 25.813-25.816 14.234 0 25.814 11.58 25.814 25.816 0 14.232-11.58 25.812-25.814 25.812-14.232 0-25.813-11.58-25.813-25.812"/><path fill="#85939c" d="m30.17 53.05c0 1.439.849 2.605 1.894 2.605 1.043 0 1.895-1.166 1.895-2.605v-21.12c0-1.441-.852-2.61-1.895-2.61-1.045 0-1.894 1.168-1.894 2.61v21.12"/><path fill="#788288" d="m17.77 38.925c-1.166.844-1.613 2.215-1 3.062.614.844 2.06.846 3.224 0l12.376-8.966c1.163-.844 1.613-2.221.998-3.062-.612-.847-2.056-.849-3.22-.008l-12.377 8.974"/></svg>