<svg xmlns="http://www.w3.org/2000/svg" viewBox="0 0 64 64" enable-background="new 0 0 64 64"><path fill="#fbb041" d="M63.957,31.98c0,17.66-14.316,31.979-31.979,31.979C14.314,63.959,0,49.641,0,31.98     C0,14.316,14.314,0,31.979,0C49.641,0,63.957,14.316,63.957,31.98z"/><g fill="#fff"><ellipse cx="20.865" cy="28.481" rx="6.5" ry="9.737"/><ellipse cx="42.858" cy="28.481" rx="6.5" ry="9.737"/></g><g fill="#25333a"><ellipse cx="20.866" cy="28.481" rx="4.206" ry="5.099"/><ellipse cx="42.858" cy="28.481" rx="4.206" ry="5.099"/></g><g opacity=".987"><path fill="#e79d3c" d="m15.219 41.25c-5.668-12.158-5.921-25.24-.798-36.06-8.682 5.718-14.421 15.541-14.421 26.715 0 17.662 14.314 31.979 31.979 31.979.316 0 .622-.039.934-.047-7.33-6.17-13.507-13.596-17.694-22.582"/></g><path fill="#633c17" d="m39.06 52.876c0 1.115-.904 2.02-2.02 2.02h-10.112c-1.118 0-2.02-.906-2.02-2.02 0-1.116.904-2.02 2.02-2.02h10.111c1.118 0 2.023.906 2.023 2.02"/></svg>