<svg xmlns="http://www.w3.org/2000/svg" viewBox="0 0 64 64" enable-background="new 0 0 64 64"><path fill="#86a7ac" d="m60.03 63.999h-56.07l9.415-21.659h37.24z"/><path fill="#d1d2d3" d="m55.984 24.762c0 13.675-5.411 24.761-12.09 24.761h-23.796c-6.674 0-12.09-11.09-12.09-24.761 0-13.676 5.411-24.762 12.09-24.762h23.797c6.674 0 12.09 11.09 12.09 24.762"/><path fill="#bcbdbf" d="m9.404 13.257c-.885 3.439-1.389 7.35-1.389 11.505 0 13.675 5.412 24.761 12.09 24.761h23.797c3.06 0 5.85-2.352 7.979-6.198-8.237-2.856-32.872-1.18-42.473-30.07"/><g fill="#f0f1f2"><path d="m56.44 25.749c0 14.178-5.159 18.857-12.08 18.857h-7.02c9.772-13.489 19.1-21.06 19.1-18.857"/><path d="m7.567 25.749c0 14.178 5.16 18.857 12.08 18.857h7.02c-9.775-13.489-19.1-21.06-19.1-18.857"/></g><g fill="#66b1de"><path d="m13.465 10.77c.74-.904 14.954-1.808 15.449 0 .494 1.808 2.055 12.162 0 12.654-2.056.494-14.462-2.466-15.449-4.765-.985-2.302-.738-6.986 0-7.889"/><path d="m50.52 10.77c-.74-.904-14.954-1.808-15.448 0s-2.056 12.162 0 12.654c2.056.494 14.462-2.466 15.448-4.765.986-2.302.74-6.986 0-7.889"/></g><path fill="#63797b" d="m54.888 63.999h-45.774l7.687-17.679h30.399z"/><g fill="#86a7ac"><path d="m11.03 50.55h40.988v4.611h-40.988z"/><path d="m60.03 63.999h-56.07l1.824-4.194h52.42z"/></g><g fill="#1181a8"><path d="m55.58 28.601c0 13.675-4.977 18.19-11.651 18.19h-6.769c9.426-13.01 18.42-20.308 18.42-18.19"/><path d="m8.45 28.601c0 13.675 4.978 18.19 11.652 18.19h6.769c-9.427-13.01-18.421-20.308-18.421-18.19"/></g><g fill="#29abe2"><path d="m8.45 31.391c0 13.676 4.978 18.19 11.652 18.19h6.769c-9.427-13.01-18.421-20.31-18.421-18.19"/><path d="m55.58 31.391c0 13.676-4.977 18.19-11.651 18.19h-6.769c9.426-13.01 18.42-20.31 18.42-18.19"/></g><path fill="#1181a8" d="m50.3 49.02c0 3.606-11.11 10.489-18.303 10.489-7.195 0-18.299-6.883-18.299-10.489s11.1-4.908 18.299-4.908c7.195 0 18.303 1.302 18.303 4.908"/><path fill="#29abe2" d="m49.719 48.28c0 3.492-10.754 10.159-17.719 10.159-6.967 0-17.716-6.667-17.716-10.159 0-3.49 10.75-4.749 17.716-4.749 6.965 0 17.719 1.259 17.719 4.749"/><g fill="#fbed21"><path d="m52.895 41.532c0 1.608-.955 3.074-2.136 3.074h-4.269c-1.181 0-2.136-1.466-2.136-3.074 0-1.613.955-3.074 2.136-3.074h4.269c1.18 0 2.136 1.461 2.136 3.074"/><path d="m19.569 41.532c0 1.608-.955 3.074-2.135 3.074h-4.269c-1.181 0-2.136-1.466-2.136-3.074 0-1.613.955-3.074 2.136-3.074h4.269c1.181 0 2.135 1.461 2.135 3.074"/></g></svg>