<svg xmlns="http://www.w3.org/2000/svg" viewBox="0 0 64 64" enable-background="new 0 0 64 64"><g transform="translate(0 6)"><path d="m60.882 32.29c0 1.123-.971 2.035-2.168 2.035h-43.571c-1.195 0-2.167-.912-2.167-2.035l11.84-12.776c1.121-1.238 2.496-2.035 3.693-2.035l29.857-.857c1.196 0 2.168.912 2.168 2.035l.348 13.633" fill="#39538d"/><path d="m56.999 29.356c0 .784-.75 1.418-1.679 1.418h-34.739c-.926 0-1.68-.634-1.68-1.418l8.395-8.887c.869-.859 2.709-1.414 3.637-1.414l25.11-.342c.926 0 1.68.633 1.68 1.414l-.72 9.229" fill="#a2c2ca"/><path d="m29.649 28.992c.207-3.778 1.807-7.088 4.04-9.973l-2.759.038c-.928 0-2.768.554-3.637 1.414l-8.395 8.885c0 .784.754 1.418 1.68 1.418h9.09c-.043-.581-.058-1.172-.025-1.782" fill="#83afb7"/><path d="m35.54 31.441c-.195.519-.753.789-1.245.604-.496-.184-.74-.756-.546-1.274l4.496-12.02c.19-.518.752-.789 1.246-.605.495.186.737.756.544 1.273l-4.495 12.02" fill="#39538d"/><path d="m62.745 38.605c0 3.518-2.853 6.371-6.372 6.371h-48.14c-3.52 0-6.371-2.854-6.371-6.371 0-3.521 2.852-6.372 6.371-6.372h48.14c3.522 0 6.372 2.852 6.372 6.372" fill="#3f5aa1"/><path d="m64.25 41.18c0 2.096-3.01 3.795-6.726 3.795h-50.799c-3.714 0-6.724-1.7-6.724-3.795 0-2.097 3.01-3.793 6.725-3.793h50.8c3.711 0 6.724 1.696 6.724 3.793" fill="#39538d"/><g fill="#fff"><path d="m21.495 44.977c0 4.188-3.4 7.589-7.598 7.589-4.185 0-7.586-3.402-7.586-7.589 0-4.193 3.401-7.59 7.586-7.59 4.197 0 7.598 3.396 7.598 7.59"/><path d="m57.97 44.893c0 4.188-3.401 7.589-7.598 7.589-4.187 0-7.586-3.4-7.586-7.589 0-4.194 3.399-7.59 7.586-7.59 4.196 0 7.598 3.395 7.598 7.59"/></g><path d="m20.15 44.977c0 3.442-2.795 6.239-6.247 6.239-3.441 0-6.238-2.796-6.238-6.239 0-3.447 2.797-6.244 6.238-6.244 3.452 0 6.247 2.796 6.247 6.244" fill="#243438"/><path d="m17.949 44.891c0 2.233-1.811 4.047-4.049 4.047-2.229 0-4.04-1.813-4.04-4.047 0-2.232 1.816-4.04 4.04-4.04 2.239 0 4.049 1.81 4.049 4.04" fill="#969796"/><path d="m56.624 44.977c0 3.442-2.797 6.239-6.248 6.239-3.444 0-6.241-2.796-6.241-6.239 0-3.447 2.797-6.244 6.241-6.244 3.451 0 6.248 2.796 6.248 6.244" fill="#243438"/><path d="m54.42 44.891c0 2.233-1.811 4.047-4.049 4.047-2.229 0-4.046-1.813-4.046-4.047 0-2.232 1.816-4.04 4.046-4.04 2.238 0 4.049 1.81 4.049 4.04" fill="#969796"/><g fill="#e3e4e3"><path d="m3.936 36.999c0 1.66-.672 3.01-1.502 3.01-.831 0-1.502-1.346-1.502-3.01v-.067c0-1.662.672-3.01 1.502-3.01.83 0 1.502 1.344 1.502 3.01v.067"/><path d="m64.25 37.421c0 1.658-.672 3.01-1.504 3.01-.828 0-1.502-1.347-1.502-3.01v-.069c0-1.662.674-3 1.502-3 .832 0 1.504 1.342 1.504 3v.069"/></g><path d="m37.1 44.32c-.113.475-.625.754-1.138.627-.512-.125-.835-.611-.717-1.084l2.709-10.973c.119-.474.629-.752 1.142-.627.512.127.83.613.717 1.086l-2.713 10.971" fill="#39538d"/></g></svg>