<svg xmlns="http://www.w3.org/2000/svg" viewBox="0 0 64 64" enable-background="new 0 0 64 64"><path fill="#de374b" d="m61.46 49.826h-57.882l6.432-37.983h45.01z"/><path fill="#c5344d" d="m9.342 15.771l-5.764 34.05h57.878l-.032-.193c-6.983-1.972-45.35-22.651-52.08-33.862"/><path fill="#243438" d="m63.65 49.834c0 2.124-1.724 3.848-3.85 3.848h-55.948c-2.126 0-3.847-1.724-3.847-3.848 0-2.124 1.721-3.848 3.847-3.848h55.948c2.126 0 3.85 1.724 3.85 3.848"/><path opacity=".29" fill="#eb8697" d="m31.821 7c-11.58 0-20.96 9.382-20.96 20.958 0 9.228 5.971 17.05 14.256 19.845 2.105.711 4.356 1.113 6.704 1.113 2.348 0 4.596-.402 6.705-1.113 8.285-2.799 14.255-10.617 14.255-19.845 0-11.576-9.381-20.958-20.96-20.958"/><path opacity=".9" fill="#ec6c80" d="m53.12 27.96c0-1.59-5.26-2.935-12.725-3.507 4.963-5.759 7.787-10.509 6.658-11.637-1.1-1.102-5.641 1.552-11.205 6.278-.609-7-1.92-11.846-3.438-11.846-1.523 0-2.831 4.845-3.446 11.851-5.56-4.733-10.1-7.393-11.207-6.287-1.134 1.135 1.699 5.882 6.662 11.641-7.47.57-12.728 1.917-12.728 3.507 0 1.529 4.883 2.837 11.922 3.442-4.458 5.333-6.917 9.636-5.849 10.704 1.096 1.097 5.596-1.53 11.127-6.221.574 7.499 1.931 12.785 3.519 12.785 1.587 0 2.938-5.288 3.507-12.791 5.526 4.691 10.03 7.325 11.132 6.227 1.075-1.071-1.393-5.373-5.857-10.703 7.04-.606 11.928-1.914 11.928-3.443"/></svg>