<svg xmlns="http://www.w3.org/2000/svg" viewBox="0 0 64 64" enable-background="new 0 0 64 64"><path transform="matrix(.8024-.5968.5968.8024-12.917 21.16)" fill="#ee4237" d="m16.325 3.01h18.344v54.15h-18.344z"/><g fill="#da4241"><path transform="matrix(.8023-.5969.5969.8023-16 19.01)" d="m17.508 6.583h6.371v54.15h-6.371z"/><path transform="matrix(.8026-.5965.5965.8026-9.516 23.529)" d="m28.23-.93h5.13v54.15h-5.13z"/></g><path fill="#e58732" d="m41.655 51.81l7.355-5.47.788 8.75.798 8.738-8.146-3.278-8.15-3.27z"/><path fill="#ea97bd" d="m15.784 1.668c1.32 1.768.81 4.376-1.137 5.824l-7.673 5.706c-1.945 1.452-4.588 1.185-5.906-.583-1.32-1.772-.809-4.38 1.137-5.824l7.673-5.71c1.945-1.447 4.59-1.185 5.906.587"/><path transform="matrix(.8025-.5967.5967.8025-4.04 8.495)" fill="#bcbdbf" d="m1.64 9.413h18.339v1.87h-18.339z"/><g fill="#e7e6e6"><path d="M19.843 7.122 5.128 18.07 4.01 16.569 18.726 5.626z"/><path transform="matrix(.8024-.5968.5968.8024-3.363 7.534)" d="m.523 7.91h18.343v1.87h-18.343z"/></g><path fill="#f79420" d="m47.4 57.61l-.842.63-7.148-4.76 5.49-4.08z"/><path fill="#424143" d="m42.05 60.39l.4.16 8.15 3.273-.794-8.743-.042-.427z"/></svg>