<svg width="24" height="24" viewBox="0 0 24 24" fill="none" xmlns="http://www.w3.org/2000/svg">
<path d="M9 21H15M9 21V15.5M9 21H3.6C3.26863 21 3 20.7314 3 20.4V16.1C3 15.7686 3.26863 15.5 3.6 15.5H9M15 21H20.4C20.7314 21 21 20.7314 21 20.4V18.1C21 17.7686 20.7314 17.5 20.4 17.5H15M15 21V17.5M9 15.5V12.6C9 12.2686 9.26863 12 9.6 12H14.4C14.7314 12 15 12.2686 15 12.6V17.5" stroke="black" stroke-width="1.5" stroke-linecap="round" stroke-linejoin="round"/>
<path d="M10.8056 5.11325L11.7147 3.1856C11.8314 2.93813 12.1686 2.93813 12.2853 3.1856L13.1944 5.11325L15.2275 5.42427C15.4884 5.46418 15.5923 5.79977 15.4035 5.99229L13.9326 7.4917L14.2797 9.60999C14.3243 9.88202 14.0515 10.0895 13.8181 9.96099L12 8.96031L10.1819 9.96099C9.94851 10.0895 9.67568 9.88202 9.72026 9.60999L10.0674 7.4917L8.59651 5.99229C8.40766 5.79977 8.51163 5.46418 8.77248 5.42427L10.8056 5.11325Z" stroke="black" stroke-width="1.5" stroke-linecap="round" stroke-linejoin="round"/>
</svg>
