<svg width="24" height="24" viewBox="0 0 24 24" fill="none" xmlns="http://www.w3.org/2000/svg">
<path d="M8 3H5C3.89543 3 3 3.89543 3 5V6.5M8 3H16M8 3V8.4C8 8.73137 8.26863 9 8.6 9H15.4C15.7314 9 16 8.73137 16 8.4V3M16 3H16.1716C16.702 3 17.2107 3.21071 17.5858 3.58579L20.4142 6.41421C20.7893 6.78929 21 7.29799 21 7.82843V19C21 20.1046 20.1046 21 19 21H18M6 21H5C3.89543 21 3 20.1046 3 19V17.5M6 21H18M6 21V17.5M18 21V13.6C18 13.2686 17.7314 13 17.4 13H15" stroke="black" stroke-width="1.5" stroke-linecap="round" stroke-linejoin="round"/>
<path d="M12 12H1M1 12L4 9M1 12L4 15" stroke="black" stroke-width="1.5" stroke-linecap="round" stroke-linejoin="round"/>
</svg>
