<svg width="24" height="24" viewBox="0 0 24 24" fill="none" xmlns="http://www.w3.org/2000/svg">
<path d="M8 9C8 9 9 8 12 8C15 8 16 9 16 9" stroke="currentColor" stroke-width="1.5" stroke-linecap="round" stroke-linejoin="round"/>
<path d="M12 14C12.5523 14 13 13.5523 13 13C13 12.4477 12.5523 12 12 12C11.4477 12 11 12.4477 11 13C11 13.5523 11.4477 14 12 14Z" fill="currentColor" stroke="currentColor" stroke-width="1.5" stroke-linecap="round" stroke-linejoin="round"/>
<path d="M5 18L3.13036 4.91253C3.05646 4.39524 3.39389 3.91247 3.90398 3.79912L11.5661 2.09641C11.8519 2.03291 12.1481 2.03291 12.4339 2.09641L20.096 3.79912C20.6061 3.91247 20.9435 4.39524 20.8696 4.91252L19 18C18.9293 18.495 18.5 21.5 12 21.5C5.5 21.5 5.07071 18.495 5 18Z" stroke="currentColor" stroke-width="1.5" stroke-linecap="round" stroke-linejoin="round"/>
</svg>
