<svg width="24" height="24" viewBox="0 0 24 24" fill="none" xmlns="http://www.w3.org/2000/svg">
<path d="M22 6.99999C19 6.99999 13.5 6.99999 11.5 12.5C9.5 18 5 18 2 18M22 6.99999C21.219 6.21894 20 4.99999 20 4.99999M22 6.99999C21.219 7.78104 20 8.99999 20 8.99999" stroke="currentColor" stroke-width="1.5" stroke-linecap="round" stroke-linejoin="round"/>
<path d="M22 18C19 18 13.5 18 11.5 12.5C9.5 6.99999 5 7.00001 2 7M22 18C21.219 18.7811 20 20 20 20M22 18C21.219 17.219 20 16 20 16" stroke="currentColor" stroke-width="1.5" stroke-linecap="round" stroke-linejoin="round"/>
</svg>
