<svg xmlns="http://www.w3.org/2000/svg" height="64" width="56" viewBox="0 0 560 640"><path fill="#9050e9" d="M0 51v537c0 29 23 52 51 52h457c28 0 51-23 51-51V210L370 0H51A51 51 0 0 0 0 51z"/><path fill="#ece1f9" d="m370 0 190 210H421a52 52 0 0 1-52-52l1-158z"/><path fill="#5a1ba9" d="M370 159v10c0 28 23 52 52 52h138v-10H421a53 53 0 0 1-51-52z"/><path fill="#fff" d="M235 467h-69c-4 0-8 3-8 8s3 8 8 8h69c4 0 8-3 8-8s-4-8-8-8zm-70-54h69c4 0 8-3 8-8 0-4-3-8-8-8h-69c-4 0-8 3-8 8 1 5 4 8 8 8zm-23 19c-4 0-8 3-8 8 0 4 3 8 8 8h115c4 0 8-3 8-8 0-4-3-8-8-8H142zm126-65a100 100 0 0 0-139 2 100 100 0 0 0-2 139c19 20 45 32 73 32h92c4 0 8-3 8-8v-92c0-28-11-54-32-73zm-68 158a86 86 0 0 1-62-27 84 84 0 0 1 56-142h5c47 0 85 38 85 85v84h-84z"/></svg>