<svg xmlns="http://www.w3.org/2000/svg" x="0px" y="0px"
	 width="52px" height="52px" viewBox="0 0 52 52" enable-background="new 0 0 52 52" xml:space="preserve">
<path fill="#FFFFFF" d="M49.5,15.4L36,1.9c-1.4-1.4-3.6-1.4-5,0s-1.4,3.6,0,5l0.7,0.7L15.5,18.3L15,17.8c-1.4-1.4-3.6-1.4-5,0
	s-1.4,3.6,0,5l7.2,7.2L2.4,44.8c-1.4,1.4-1.4,3.7,0,5.1c1.4,1.4,3.7,1.4,5.1,0L22.3,35l6.3,6.3c1.4,1.4,3.6,1.4,5,0
	c1.4-1.4,1.4-3.6,0-5l-0.5-0.5l10.6-16.3l0.7,0.7c1.4,1.4,3.6,1.4,5,0h0C50.8,19,50.8,16.8,49.5,15.4z"/>
</svg>
