<?xml version="1.0" encoding="utf-8"?>
<!-- Generator: Adobe Illustrator 16.0.4, SVG Export Plug-In . SVG Version: 6.00 Build 0)  -->
<!DOCTYPE svg PUBLIC "-//W3C//DTD SVG 1.1 Tiny//EN" "http://www.w3.org/Graphics/SVG/1.1/DTD/svg11-tiny.dtd" [
	<!ENTITY ns_flows "http://ns.adobe.com/Flows/1.0/">
	<!ENTITY ns_extend "http://ns.adobe.com/Extensibility/1.0/">
	<!ENTITY ns_ai "http://ns.adobe.com/AdobeIllustrator/10.0/">
	<!ENTITY ns_graphs "http://ns.adobe.com/Graphs/1.0/">
]>
<svg version="1.1" baseProfile="tiny" id="Layer_1" xmlns:x="&ns_extend;" xmlns:i="&ns_ai;" xmlns:graph="&ns_graphs;"
	 xmlns="http://www.w3.org/2000/svg" xmlns:xlink="http://www.w3.org/1999/xlink" xmlns:a="http://ns.adobe.com/AdobeSVGViewerExtensions/3.0/"
	 x="0px" y="0px" width="42px" height="42px" viewBox="0 0 42 42" xml:space="preserve">
<path d="M19.47,20.151c0,0.84,0.689,1.53,1.529,1.53s1.529-0.69,1.529-1.53s-0.689-1.528-1.529-1.528S19.47,19.312,19.47,20.151z
	 M23.41,32.36c6.739-1.47,17.09-10.33,17.09-10.33s-7.7-11.989-18-13.27c-0.58-0.07-2.61-0.091-3-0.06
	c-9.96,0.959-18,13.699-18,13.699s8.74,8.569,16.96,9.938C19.419,32.551,22.41,32.551,23.41,32.36z M11.12,20.651
	c0-5.17,4.42-9.359,9.88-9.359s9.88,4.189,9.88,9.359s-4.42,9.36-9.88,9.36S11.12,25.82,11.12,20.651z"/>
</svg>
