<?xml version="1.0" encoding="utf-8"?>
<svg xmlns="http://www.w3.org/2000/svg" width="24" height="24" viewBox="0 0 24 24">
    <path d="M20 14.5v-2.9l-1.8-.3c-.1-.4-.3-.8-.6-1.4l1.1-1.5-2.1-2.1-1.5 1.1c-.5-.3-1-.5-1.4-.6l-.2-1.8h-2.9l-.3 1.8c-.5.1-.9.3-1.4.6l-1.5-1.1-2.1 2.1 1 1.5c-.3.5-.4.9-.6 1.4l-1.7.2v2.9l1.8.3c.1.5.3.9.6 1.4l-1 1.5 2.1 2.1 1.5-1c.4.2.9.4 1.4.6l.3 1.8h3l.3-1.8c.5-.1.9-.3 1.4-.6l1.5 1.1 2.1-2.1-1.1-1.5c.3-.5.5-1 .6-1.4l1.5-.3zm-8 1.5c-1.7 0-3-1.3-3-3s1.3-3 3-3 3 1.3 3 3-1.3 3-3 3z"/>
</svg>
