<svg xmlns="http://www.w3.org/2000/svg" viewBox="-26 -26 701 701"><g transform="translate(5274.528 -627.79)"><ellipse cx="-4949.5" cy="952.8" fill="#cee5fd" style="isolation:auto;mix-blend-mode:normal" rx="325" ry="325" color="#000" solid-color="#000"/><path fill="#7ebaff" d="M-4950 627.8c-41.2 0-80.3 7.8-116.4 21.5-2.6 2.4-6 4.3-8.7 4-.5 0-1-.3-1.2-.4-17.8 7.4-34.7 16.5-50.8 26.8 2 3.4 2.7 7-1.5 9-.8.3-9.3 1.4-12.4 1.4-45.5 33-81.4 77-104.7 129l2.5-.3c3.5-.2 6 1 9.4 1.6 3.2.7 5.7 2.8 8.4 3 7.7.6 9.6-5.4 16-8.8 6.4 1 10.7-1 16.6-.4 4 .4 7 4.7 10 5 2.6.2 5-2.5 7.5-2 2.4.2 6.7 5.6 7 8.6.6 3.8-2.7 7-1.6 11.3 4 4 11.2 4.8 16.8 7 3.6-3 .5-8.5 0-13 0-1.8.2-3.5 0-5.3-.4-3-1.6-5.7-1.7-8.3 0-11.8 9.7-17.4 17.7-22 3.4-2 6.2-5.7 9.2-7.2 4-2 7.2-2.6 10.7-4.6 6.4-3.6 11.8-6.5 16.7-10.5 2.3-5.3.3-12.6.4-18 2.3-1.3 4.3.7 6.7.5 3.8-.7 4.2-6 6.3-8.3 1.3-1.2 4.7-2 6.3-3.3 4-3 5.2-7.5 8.5-8.7 1.2-.5 4-.4 5.8-1 2.5-.5 6-3.5 10-4.8 2.6-1 8.6-1.2 9.6-2.2 1.2-1.3 0-4.8.4-6.7 2-9.3 16.2-11.3 24.6-14.4 6-2.3 12-6.3 18.4-5-1.3 4.4-7.3 2.8-6.3 8.2 1.5 7.6 11.6-2 14.3-3.2 5-2.2 13.8-3.5 20.5-6 6-2 16.4-5.3 10.8-12-4.6-.3-6.8 5.4-10.8 7-2.7.5-2.2-2.2-4.6-2.4-2.2-.3-3.5 2-5.8 1.7-2.3-.5-5.5-4-6-6.8-.8-7 6-9.8 9-15-2-6.3-10.7-1.3-16-3.8.5-3.7 4.4-6.3 8.8-7 3.6-.6 11.6-.3 13.8 1.6 1.2 1 0 3.7 2 5.5 2.2 2 4.8 1.7 7.6 1.2 1-4.7-6.2-3.5-5.4-6.7 5.6-3.6 14.8-.6 21.7-1.6 4-.6 8-3.4 11.6-5.4 3.3-2 7.7-5.2 11.2-2 1 3.3-3 4.4-5 6-6.3 5.8-13 12.3-18 19 3.2 2.8 8.7 1.4 14 2 2 .2 4.4.8 6.6 1.2 2.5.5 5 .3 7 .8 3.6 1 4.5 4.6 8 4.6 5.7 0 5.8-6 2.5-10 1-4 2.5-6 1.2-8.7-2.6-5.2-12-.4-12.5-6.8-.3-4 3.4-4 5-7-.7-8 6.6-8.6 5.8-15.8-.4-3-3-3-5-6-1-1.3-1.6-4-2.8-5.2-9.8-.8-19.6-1.4-29.6-1.4zm-168 65.5c1.8.3 4.2 2.4 6.5 2.6 2.2 0 4-1.4 5.4-1 3.4 1 5 6.2 1.6 8.8-2.7.3-3.8-1.2-5.8-1-5.7 1-8 12.2-12 11.8-4-.3-6.3-10-2.2-13 .2-2.5-2-3-1.7-5.4 1-1.5 4.5-3.2 7.8-3zm-19 1.3c1.2 0 2 .3 2.6.8-.6 4.5-4 4.2-7.5 6.3-6 3.5-9.3 9-11.2 16.6-.5 2.3-6.4 8-9.2 7.6-6.6-1.5 1.8-13.7 3.3-15.6 1.6-2 4-3.8 5.8-6.2 2-2.3 3.2-5.4 5-6.6 2-1.4 7.8-3 11.3-3zm49.5 15c2 0 4 .4 5 1.2-1.5 5.5-13.4 4-17.7 2 .2-2 3.5-2.5 6.2-2.8 2 0 4.3-.5 6.4-.4zm-27 10.2c1.3 0 2.8.2 4.3.6-4 3.2-8 5-14.6 7-3.2 1-8.7 2.4-9.2-1.2-.7-4.3 4.6-3.3 7.5-3.7 3.6-.5 7.6-2.6 12-2.7zm414.6 24.7c-.4 1-.8 2.3-.7 3.4.3 2 2.5 4 3 6.6.2 1.5-.7 4.6 0 6 2 3.8 7.2 1 11 1.2-4.3-6-8.6-11.8-13.2-17.3zm21.4 28.6c-.6 3-2.5 6.7-4 9-3.7 5.7-8.7 6-14 9-4.3 2.3-6 6.5-8.7 10.7-2.7 4.7-4.5 7.5-3.3 14.2-3.7 7.3-9.4 11.8-17 15.3-2.4 1-5.5 1.4-7.6 3-1.7 1-2.6 4.3-5 7-3 3.2-6 4.6-7.5 7-1.2 2-1.6 5.8-3 8.4-1.7 3.5-5.5 5.3-8 8.8-1 1.6-1.7 5-2.8 7-2.7 5-7.2 8.4-6.7 12.6.5 4.2 5 5 5.4 8.4 0 2-1.3 3.3-1.2 5.5 0 3 2.2 5.3 2.5 7.8.6 6.2-2 8.7-3.3 13-.5 2-.3 4.2-.8 5.8-1 3-5.4 6-5.5 9.5 0 2.7 2.6 4.8 2.8 8.5 0 2.5-1.2 5.2-.8 7.5 1 4.5 9 9.8 12.6 13.3 4.7 4.7 11 8.4 13 13.4 1.6 4.2 1.6 9.7 5 12.8 2.4 2.4 6.4 3.8 9.5 6.3 3 2.3 6.2 4.2 9.3 6.7 5 4 12.8 11.8 21 11.2 4-.3 8.4-3.8 13.2-4.6 5-.8 11.4-1.2 16.3-.7 4 .4 7.8 2.6 11.8 2.5 4.2-.3 9-3.4 13.7-5.5 3.8-1.6 8.5-3.5 13.7-4.8 2.3-16 3.6-32 3.6-48.6 0-66.7-20-128.4-54-179.8zM-5217 882.4c-7 .4-11.6.7-15.5 2.5-9 4-7.3 16.3-16.3 19.2-3.2 1-7.4 1-11 1.7-3 .5-6.5 2-9.5 2-1 0-1 0-2-.5-.8 5.2-1.7 11.5-2 17.2 8.6 1.7 12 12.7 19.5 16.4 2 1 4.8 1 7.5 1.7 2.2.5 3.8 1.4 6 2 4.3 1.6 9.7 1.4 13.2 3 5.3 2.4 9.2 12.3 13.7 15 .3 2.7-.5 6.3.5 8.3 2 3 5.2 2.3 8.7 4.2 4.2 2.3 5.5 8.2 9.5 10 1.4.6 5 .6 7 1.2 5.7 1.7 7.5 8 12.2 6.7 3-1 3-4.2 3.4-7.2 2.2-2.2 4.4-5.8 7.6-5.8 5.2-.3 5.7 5.3 7.5 10.4 1.2 2.8 4 5.3 4.7 8.3 1.3 5 .7 20.6-.4 23.7-1.3 3.8-6.5 5.4-9.6 9.6-1.5 2-2.2 5-3.4 6.3-2 2.5-5 3-6.6 5.4-.8 1.3-1.7 4-2.5 5.8-2.5 5.3-6 9-3.8 15.5 1 2.6 5 4.3 5 7.4 0 3.6-7.7 7-8.3 11-.4 2.8 2.5 8 3.4 12 .7 3 6.2 4.7 8 6.6 3 3.3 5.2 8 8 12 5.2 8.2 9.3 18 14.5 26 2.6 4 6.4 7.8 8.2 12 1 2.2.8 4.8 1.7 6.7 3 6.7 16 13.7 23 17 3 1.6 6.6 2.2 9.5 3.8 4.4 2.4 13.2 9 15.4 13 2 3.4 3 12 4 17.4 1.4 7.2 0 12.8.5 20.8.3 4.2 1.7 8.6 1.7 13 0 1.4-1 1.3-1 2.8l.2 1.6c41 18.8 86.4 29.5 134.5 29.5 8.6 0 17-.3 25.7-1l1-2c2-2.6 3.8-5 5-7 1.4-7.7-3-13-1-19.7 2-7.5 12.2-12 19.5-15.4 2.5-1.2 5-3 7-3.8 5-1.8 11.4-.8 16-2.5 7.8-2.8 8.7-11.2 12.5-18.3 1.8-3.4 4.2-6.8 4.6-9.2.3-2-.8-4.2-.5-6.7.4-2.4 2.7-4.6 3.4-7.4 1-3.6 1.3-9 1.3-13 0-3.2-1.6-6-1.7-9-.6-10.8 4-12 8-18 2-2.8 2.7-6.2 4-8.3 6.8-10 18.5-14.8 17.6-30-.2-5-3.4-16.3-7-18-2.2-.8-7 0-10-1-10-3.8-15.8-16-26-16.8-2.2-.3-4.2 1-6.6.8-4-.2-10.2-2.8-14.6-3.3-3-.3-6.7.8-8.4 0-2.6-1.3-3-6-5-7.5-1.7-1.2-5-1.6-7.5-2.5-4-1.6-7.4-3.4-12-3.8-1.6 0-3.4.7-5 .5-2.7-.5-4.8-3.6-7.2-5-3-2-5.8-2.8-7-5.4 2.7-9-5-11.5-6.7-16.6-1-2.5-.5-5.4-1.2-7.6-1-3-4-4.8-7.5-7.4-6-4.6-11.4-9-20-10-3.8-.5-7.6 1-12.2.8-4.8-.3-11-4.5-14.5-8.7-3.6-4-5.3-7.6-8.4-9.6-3-1.8-6.7-1.7-8.7-3.6-1-.8-.8-2.2-1.7-4.2-1.5-3-4-4.7-2-8.3-3.4-1.8-3.5 3-7.2 2.4-3.2-4.6-6-6.7-13.3-5.4-3.4.6-5.3 5-9.2 5-3.2.3-5.8-3.6-10-4.2-3.2-.4-7 1-9.2.4-3.5-.7-4.6-3.6-7.8-5.8-2.4-1.5-7-4.2-8.4-4.2-4.2.3-7.2 9-13 6-2.7-3.7 4.6-5.5 1.3-9-2.5-2.4-4.6 1.3-6.6 2.7-2.3 1.5-4.5 3-7 4-5.8 2.2-9.4 1-14 3.3-4 2.2-4.2 5.8-6.5 10-2 3.5-6.4 8.6-9.3 8.8-3.5.4-7-4.8-10-6-9.6-4.3-14.2 3.5-22.2 3.7-7.3.2-18-12-17.5-18.8 0-4.3 2.4-10.7 3-16 .4-4 3.2-6.6 3.3-10.4 0-5-6.8-9-10-9.5-7.8-1.4-18.7 3.2-27.6-.4-1.7-2.8 2-4.8 3-7.5.5-1.5.2-3.5.7-5.3 1-2.6 3.8-4.7 5-7.5 1-2 1.2-5.2 2.2-8 1-3 3-5 3.3-7 .2-2.8-1-6-3-8zm111.5 88.2c2.8.3 3.2 6 .3 6.6-3 .6-4.7-4.8-1.7-6.2.6-.2 1-.2 1.5-.2z"/></g><path fill="#0a396e" fill-rule="evenodd" d="M419.3 79l-85.7 51v131l85.7-51.2zm-149 11.4c-78.6-.4-227.4 22.3-228 191-1 204.3 152.3 157.7 187 137C296 379 365 337.4 428 300.4c34.3-20 98.5-33.2 98.5 61 0 94.4-69.8 123.6-107 121.6V323.7l-85.8 50.7V556c4.6 1 22 3.3 46 3.4 78.7.5 227.6-22.2 228.2-190.8.7-204.4-152.5-157.8-187.2-137-66.8 39.3-135.6 81-198.6 118-34.3 20-98.6 33-98.6-61.2 0-94.3 69.8-123.5 107.2-121.5v159l85.7-50.5V93.8c-4.7-1-22-3.2-46.2-3.3zM316.5 389l-85.7 51v131l85.7-51.3z"/></svg>