<?xml version="1.0" encoding="utf-8"?>
<!-- Generator: Adobe Illustrator 17.1.0, SVG Export Plug-In . SVG Version: 6.00 Build 0)  -->
<!DOCTYPE svg PUBLIC "-//W3C//DTD SVG 1.1//EN" "http://www.w3.org/Graphics/SVG/1.1/DTD/svg11.dtd">
<svg version="1.1" id="Layer_1" xmlns="http://www.w3.org/2000/svg" xmlns:xlink="http://www.w3.org/1999/xlink" x="0px" y="0px" width="100" height="100"
	 viewBox="0 0 100 100" style="enable-background:new 0 0 100 100;" xml:space="preserve">

<g>
	<g>
		<path fill="#FFFFFF" d="M76,20H24c-2.2,0-4,1.8-4,4v8c0,2.2,1.8,4,4,4h52c2.2,0,4-1.8,4-4v-8C80,21.8,78.2,20,76,20z M51,32v-8h25
			l0,8H51z"/>
	</g>
	<g>
		<path fill="#FFFFFF" d="M76,42H24c-2.2,0-4,1.8-4,4v8c0,2.2,1.8,4,4,4h52c2.2,0,4-1.8,4-4v-8C80,43.8,78.2,42,76,42z M42,54v-8h34
			l0,8H42z"/>
	</g>
	<g>
		<path fill="#FFFFFF" d="M76,64H24c-2.2,0-4,1.8-4,4v8c0,2.2,1.8,4,4,4h52c2.2,0,4-1.8,4-4v-8C80,65.8,78.2,64,76,64z M60,76v-8h16
			l0,8H60z"/>
	</g>
</g>
</svg>
