<?xml version="1.0" encoding="utf-8"?>
<!-- Generator: Adobe Illustrator 21.0.2, SVG Export Plug-In . SVG Version: 6.00 Build 0)  -->
<svg version="1.1" id="Layer_1" xmlns="http://www.w3.org/2000/svg" xmlns:xlink="http://www.w3.org/1999/xlink" x="0px" y="0px"
	 width="100px" height="100px" viewBox="0 0 100 100" enable-background="new 0 0 100 100" xml:space="preserve">
<title>Entitlement Template</title>
<path fill="#FFFFFF" d="M70.5,19.5H33.8c-3.7,0.1-6.8,3.2-6.9,6.9h-2.3c-2.5,0-4.6,2.1-4.6,4.6c0,0,0,0.1,0,0.1c0,2.5,2,4.6,4.5,4.6
	c0,0,0.1,0,0.1,0h2.3V45h-2.3c-2.5,0-4.6,2.1-4.6,4.6c0,2.5,2.1,4.6,4.6,4.6h2.3v9.3h-2.3c-2.5,0-4.6,2-4.6,4.6c0,0,0,0,0,0
	c0,2.5,2,4.6,4.5,4.6c0,0,0.1,0,0.1,0h2.3c0,4.6,3.2,6.9,6.9,6.9h36.7c3.8-0.1,6.8-3.1,6.9-6.9V26.4C77.3,22.6,74.3,19.6,70.5,19.5z
	 M67.2,64.6H36.7v-30h30.5V64.6z"/>
<path fill="#FFFFFF" d="M42,45.1h19.9c0.4,0,0.8-0.3,0.8-0.7c0,0,0-0.1,0-0.1v-4.5c0-0.4-0.3-0.8-0.7-0.8c0,0-0.1,0-0.1,0H42
	c-0.4,0-0.8,0.3-0.8,0.7c0,0,0,0.1,0,0.1v4.5c0,0.4,0.3,0.8,0.7,0.8C41.9,45.1,42,45.1,42,45.1z"/>
<path fill="#FFFFFF" d="M42,60.1h4.6c0.4,0,0.8-0.3,0.8-0.7c0,0,0-0.1,0-0.1v-9c0-0.4-0.3-0.8-0.7-0.8c0,0-0.1,0-0.1,0H42
	c-0.4,0-0.8,0.3-0.8,0.7c0,0,0,0.1,0,0.1v9c0,0.4,0.3,0.8,0.7,0.8C41.9,60.1,42,60.1,42,60.1z"/>
<path fill="#FFFFFF" d="M61.8,49.6h-9.2c-0.4,0-0.8,0.3-0.8,0.7c0,0,0,0.1,0,0.1v9c0,0.4,0.3,0.8,0.7,0.8c0,0,0.1,0,0.1,0h9.2
	c0.4,0,0.8-0.3,0.8-0.7c0,0,0-0.1,0-0.1v-9c0-0.4-0.3-0.8-0.7-0.8C61.9,49.6,61.8,49.6,61.8,49.6z"/>
</svg>
