<?xml version="1.0" encoding="utf-8"?>
<svg xmlns="http://www.w3.org/2000/svg" width="24" height="24" viewBox="0 0 24 24"><style>* { fill: #36c }</style>
    <path d="M12 6c-3.9 0-7 3.1-7 7s3.1 7 7 7 7-3.1 7-7-3.1-7-7-7zm0 13c-3.3 0-6-2.7-6-6s2.7-6 6-6 6 2.7 6 6-2.7 6-6 6zm-1.7-4.6c-.7 0-1-.4-1-1.2s.3-1.2 1-1.2c.4 0 .6.2.8.6l.9-.5c-.4-.7-1-1-1.9-1-.6 0-1.1.2-1.5.6s-.6.8-.6 1.5.2 1.2.6 1.6c.4.4.9.6 1.5.6.8 0 1.4-.4 1.9-1.1l-.9-.4c-.2.3-.5.5-.8.5zm4 0c-.7 0-1-.4-1-1.2s.3-1.2 1-1.2c.4 0 .6.2.8.6l.9-.5c-.4-.7-1-1-1.9-1-.6 0-1.1.2-1.5.6s-.6.8-.6 1.5.2 1.2.6 1.6c.4.4.9.6 1.5.6.8 0 1.4-.4 1.9-1.1l-.9-.4c-.2.3-.5.5-.8.5z"/>
</svg>
