<?xml version="1.0" encoding="UTF-8"?><svg id="a" xmlns="http://www.w3.org/2000/svg" width="52" height="52" viewBox="0 0 52 52"><path d="M33.8,23.95c2.81-2.26,4.6-5.73,4.6-9.61,0-6.81-5.52-12.33-12.33-12.33S13.74,7.53,13.74,14.34c0,3.91,1.82,7.4,4.66,9.66l-1.49,2.63-3.17,5.6c-.84-.25-1.72-.39-2.64-.39-5.02,0-9.08,4.07-9.08,9.08s4.07,9.08,9.08,9.08,9.08-4.07,9.08-9.08c0-2.7-1.18-5.12-3.04-6.78l3.17-5.59,1.49-2.63c1.34,.5,2.78,.77,4.29,.77s3-.28,4.36-.79l1.52,2.69,3.08,5.44c-1.95,1.67-3.19,4.14-3.19,6.91,0,5.02,4.07,9.08,9.08,9.08s9.08-4.07,9.08-9.08-4.07-9.08-9.08-9.08c-.85,0-1.68,.12-2.46,.34l-3.13-5.53-1.53-2.7v-.02ZM11.09,46.1c2.87,0,5.19-2.32,5.19-5.19s-2.32-5.19-5.19-5.19-5.19,2.32-5.19,5.19,2.32,5.19,5.19,5.19Zm29.83,0c2.87,0,5.19-2.32,5.19-5.19s-2.32-5.19-5.19-5.19-5.19,2.32-5.19,5.19,2.32,5.19,5.19,5.19Z" fill="#fff" fill-rule="evenodd"/></svg>