<svg xmlns="http://www.w3.org/2000/svg" x="0px" y="0px"
	 width="52px" height="52px" viewBox="0 0 52 52" enable-background="new 0 0 52 52" xml:space="preserve">
<path fill="#FFFFFF" d="M30.9,34.3c0,1.8-2.2,2.5-3.2,1l-2-4.3c-1.1-1.9-3.5-2.3-5.3-1.1l-1.3,1l6.7,15.9c0.3,0.7,1,1.1,1.8,1.1
	h17.6c0.9,0,1.6-0.6,1.8-1.4l3.1-11.1c0.8-3.1-1-6.1-3.8-7.2l-8-2.7C27,21.4,30.7,33.9,30.9,34.3z"/>
<rect x="1.8" y="28.5" fill="#FFFFFF" width="5.8" height="5.8"/>
<rect x="14.4" y="4" fill="#FFFFFF" width="5.8" height="5.8"/>
<rect x="14.4" y="42" fill="#FFFFFF" width="5.8" height="5.8"/>
<rect x="1.8" y="15.8" fill="#FFFFFF" width="5.8" height="5.8"/>
<rect x="1.8" y="4.1" fill="#FFFFFF" width="5.8" height="5.8"/>
<rect x="27.1" y="4" fill="#FFFFFF" width="5.8" height="5.8"/>
<rect x="39.8" y="4" fill="#FFFFFF" width="5.8" height="5.8"/>
<rect x="1.8" y="42.1" fill="#FFFFFF" width="5.8" height="5.8"/>
<rect x="39.8" y="16.8" fill="#FFFFFF" width="5.8" height="5.8"/>
</svg>
