<?xml version="1.0" encoding="UTF-8"?>
<svg xmlns="http://www.w3.org/2000/svg" xmlns:xlink="http://www.w3.org/1999/xlink" version="1.2" >
<font id="Overpass-LightItalic">
<font-face  font-family="Overpass" units-per-em="1000" ascent="750" descent="-250" font-style="italic" font-weight="300" font-stretch="normal" slope="-10" cap-height="700" x-height="511" underline-position="-123" underline-thickness="20" />
<missing-glyph  horiz-adv-x="221" d="" />
<glyph glyph-name="eth" unicode="&#xf0;" horiz-adv-x="547" d="M369 623 Q346 637 317.5 646.5 Q289 656 255 659 L265 712 Q306 708 345 696.5 Q384 685 414 665 L479 727 L507 692 L448 638 Q493 594 517.5 524.5 Q542 455 542 367 Q542 278 523 208 Q504 138 469 89 Q434 40 384 14 Q334 -12 272 -12 Q230 -12 197.5 2.5 Q165 17 142.5 43 Q120 69 108.5 105 Q97 141 97 183 Q97 244 117.5 294 Q138 344 172.5 380 Q207 416 253.5 436 Q300 456 351 456 Q382 456 404 448.5 Q426 441 441 429 Q456 417 465.5 401.5 Q475 386 481 369 Q481 398 477.5 429.5 Q474 461 465 491 Q456 521 441 548 Q426 575 404 596 L328 526 L303 560 L369 623 Z M283 51 Q316 51 347 66.5 Q378 82 402 109 Q426 136 441 173 Q456 210 456 253 Q456 316 426.5 354.5 Q397 393 343 393 Q310 393 278.5 377.5 Q247 362 222.5 334.5 Q198 307 183.5 269.5 Q169 232 169 187 Q169 121 197.5 86 Q226 51 283 51 Z " />
<glyph glyph-name="Lslash" unicode="&#x141;" horiz-adv-x="561" d="M111 0 L159 272 L77 217 L91 293 L173 349 L234 700 L302 700 L251 409 L369 491 L355 414 L237 330 L191 67 L524 67 L512 0 L111 0 Z " />
<glyph glyph-name="lslash" unicode="&#x142;" horiz-adv-x="271" d="M86 283 L159 335 L222 692 L297 722 L238 387 L312 439 L301 380 L228 328 L170 0 L100 0 L149 276 L75 224 L86 283 Z " />
<glyph glyph-name="Scaron" unicode="&#x160;" horiz-adv-x="591" d="M517 578 Q502 607 474 628 Q446 649 394 649 Q329 649 292 617.5 Q255 586 255 536 Q255 499 276.5 476 Q298 453 330 434.5 Q362 416 400 399 Q438 382 470 357.5 Q502 333 523.5 297 Q545 261 545 206 Q545 152 526.5 111 Q508 70 475.5 43 Q443 16 399.5 2 Q356 -12 305 -12 Q264 -12 230.5 -1 Q197 10 171 29.5 Q145 49 127 74.5 Q109 100 101 130 L165 155 Q203 51 311 51 Q386 51 429.5 89 Q473 127 473 200 Q473 242 451.5 269.5 Q430 297 398 317.5 Q366 338 329 356 Q292 374 260 396.5 Q228 419 206.5 450.5 Q185 482 185 530 Q185 569 200 602.5 Q215 636 243 660 Q271 684 310.5 698 Q350 712 399 712 Q435 712 464.5 703 Q494 694 517 679.5 Q540 665 555.5 645.5 Q571 626 579 605 L517 578 Z M457 766 L380 766 L272 922 L334 922 L428 821 L557 922 L620 922 L457 766 Z " />
<glyph glyph-name="scaron" unicode="&#x161;" horiz-adv-x="466" d="M415 407 Q399 427 372 444 Q345 461 300 461 Q257 461 228.5 440 Q200 419 200 384 Q200 359 217 343 Q234 327 259.5 313.5 Q285 300 314.5 287 Q344 274 369.5 254.5 Q395 235 412 207 Q429 179 429 136 Q429 69 379.5 28.5 Q330 -12 248 -12 Q188 -12 146.5 13.5 Q105 39 80 77 L133 119 Q151 91 181.5 70.5 Q212 50 250 50 Q295 50 327.5 72 Q360 94 360 137 Q360 164 343.5 182.5 Q327 201 301.5 215.5 Q276 230 247 243 Q218 256 192.5 274.5 Q167 293 150.5 318 Q134 343 134 382 Q134 415 147 441 Q160 467 182.5 485.5 Q205 504 235.5 513.5 Q266 523 301 523 Q360 523 400.5 502.5 Q441 482 464 445 L415 407 Z M363 576 L286 576 L178 732 L240 732 L334 631 L463 732 L526 732 L363 576 Z " />
<glyph glyph-name="Yacute" unicode="&#xdd;" horiz-adv-x="613" d="M271 0 L320 280 L177 700 L248 700 L363 340 L610 700 L682 700 L386 273 L338 0 L271 0 Z M455 766 L386 766 L550 922 L652 922 L455 766 Z " />
<glyph glyph-name="yacute" unicode="&#xfd;" horiz-adv-x="512" d="M183 -194 L112 -194 L222 16 L129 511 L201 511 L261 140 Q262 133 263 126.5 Q264 120 265 115 Q266 109 267 103 Q266 103 273.5 116 Q281 129 287 140 L481 511 L557 511 L183 -194 Z M374 576 L305 576 L469 732 L571 732 L374 576 Z " />
<glyph glyph-name="Thorn" unicode="&#xde;" horiz-adv-x="618" d="M111 0 L234 700 L302 700 L278 561 L456 561 Q507 561 541.5 547 Q576 533 597 509.5 Q618 486 627 456.5 Q636 427 636 396 Q636 355 621.5 311.5 Q607 268 576.5 232 Q546 196 498 173 Q450 150 383 150 L205 150 L179 0 L111 0 Z M401 213 Q447 213 479 229 Q511 245 531.5 269.5 Q552 294 561 323.5 Q570 353 570 381 Q570 400 564.5 420.5 Q559 441 545.5 458.5 Q532 476 509 487 Q486 498 451 498 L267 498 L217 213 L401 213 Z " />
<glyph glyph-name="thorn" unicode="&#xfe;" horiz-adv-x="565" d="M297 -12 Q271 -12 251.5 -7 Q232 -2 217 7 Q202 16 191.5 27.5 Q181 39 173 52 L134 -168 L61 -203 L217 678 L290 712 L246 465 Q274 487 307.5 505 Q341 523 391 523 Q430 523 460 508 Q490 493 511 466.5 Q532 440 542.5 402.5 Q553 365 553 320 Q553 243 533 182 Q513 121 478.5 77.5 Q444 34 397.5 11 Q351 -12 297 -12 Z M300 51 Q343 51 376.5 70 Q410 89 433.5 123.5 Q457 158 469.5 205 Q482 252 482 309 Q482 376 454 418 Q426 460 372 460 Q332 460 295 439.5 Q258 419 231 381 L187 130 Q207 96 233 73.5 Q259 51 300 51 Z " />
<glyph glyph-name="Zcaron" unicode="&#x17d;" horiz-adv-x="633" d="M78 0 L87 49 L581 638 L213 638 L223 700 L678 700 L669 649 L180 62 L566 62 L555 0 L78 0 Z M520 766 L443 766 L335 922 L397 922 L491 821 L620 922 L683 922 L520 766 Z " />
<glyph glyph-name="zcaron" unicode="&#x17e;" horiz-adv-x="500" d="M78 0 L86 43 L401 448 L176 448 L187 511 L508 511 L501 469 L182 63 L428 63 L417 0 L78 0 Z M408 576 L331 576 L223 732 L285 732 L379 631 L508 732 L571 732 L408 576 Z " />
<glyph glyph-name="onehalf" unicode="&#xbd;" horiz-adv-x="743" d="M27 -12 L614 712 L680 712 L93 -12 L27 -12 Z M140 283 L197 607 L152 607 L160 650 Q186 650 203 665 Q220 680 232 705 L272 705 L198 283 L140 283 Z M461 329 Q478 372 512.5 400.5 Q547 429 604 429 Q661 429 692.5 398.5 Q724 368 724 320 Q724 291 716 268 Q708 245 691 225.5 Q674 206 647 187 Q620 168 582 146 Q540 122 516.5 101 Q493 80 478 53 L677 53 L667 0 L402 0 Q409 40 424.5 69 Q440 98 462.5 120.5 Q485 143 514.5 162.5 Q544 182 579 204 Q621 230 642.5 254.5 Q664 279 664 319 Q664 329 660.5 339.5 Q657 350 649.5 358.5 Q642 367 630 372.5 Q618 378 600 378 Q565 378 543 360.5 Q521 343 507 308 L461 329 Z " />
<glyph glyph-name="onequarter" unicode="&#xbc;" horiz-adv-x="694" d="M27 -12 L614 712 L680 712 L93 -12 L27 -12 Z M140 283 L197 607 L152 607 L160 650 Q186 650 203 665 Q220 680 232 705 L272 705 L198 283 L140 283 Z M523 0 L542 108 L341 108 L346 138 L612 423 L657 423 L611 163 L661 163 L651 108 L601 108 L582 0 L523 0 Z M552 163 L582 335 L429 163 L552 163 Z " />
<glyph glyph-name="onesuperior" unicode="&#xb9;" horiz-adv-x="213" d="M158 444 L215 768 L170 768 L178 811 Q204 811 221.5 826 Q239 841 251 866 L290 866 L215 444 L158 444 Z " />
<glyph glyph-name="threequarters" unicode="&#xbe;" horiz-adv-x="838" d="M170 -12 L757 712 L823 712 L236 -12 L170 -12 Z M160 616 Q183 657 224 684.5 Q265 712 313 712 Q361 712 389.5 687 Q418 662 418 619 Q418 584 397.5 552.5 Q377 521 344 507 Q370 498 384.5 476 Q399 454 399 423 Q399 388 386.5 360 Q374 332 352.5 312 Q331 292 301 281.5 Q271 271 237 271 Q182 271 150.5 299.5 Q119 328 109 374 L166 397 Q174 361 194 341 Q214 321 246 321 Q288 321 312 346 Q336 371 336 408 Q336 432 322.5 452.5 Q309 473 281 473 L248 473 L257 523 L278 523 Q298 523 312.5 530.5 Q327 538 336.5 550 Q346 562 350.5 576.5 Q355 591 355 606 Q355 627 342 644.5 Q329 662 300 662 Q273 662 248.5 643.5 Q224 625 207 598 L160 616 Z M666 0 L685 108 L484 108 L489 138 L755 423 L800 423 L754 163 L804 163 L794 108 L744 108 L725 0 L666 0 Z M695 163 L725 335 L572 163 L695 163 Z " />
<glyph glyph-name="threesuperior" unicode="&#xb3;" horiz-adv-x="374" d="M195 560 Q203 524 222.5 504 Q242 484 274 484 Q317 484 341 508.5 Q365 533 365 570 Q365 594 351 614 Q337 634 310 634 L277 634 L286 684 L307 684 Q327 684 341.5 691.5 Q356 699 365 711 Q374 723 378.5 737.5 Q383 752 383 767 Q383 788 370 805.5 Q357 823 328 823 Q301 823 276.5 804.5 Q252 786 236 759 L188 777 Q211 818 252 845.5 Q293 873 341 873 Q389 873 417.5 848 Q446 823 446 780 Q446 745 425.5 713.5 Q405 682 373 668 Q398 659 413 637 Q428 615 428 584 Q428 549 415.5 521.5 Q403 494 381.5 474.5 Q360 455 330 444.5 Q300 434 266 434 Q211 434 179.5 462.5 Q148 491 138 537 L195 560 Z " />
<glyph glyph-name="twosuperior" unicode="&#xb2;" horiz-adv-x="376" d="M127 444 Q134 484 149.5 513 Q165 542 187.5 564.5 Q210 587 239.5 606.5 Q269 626 304 648 Q346 674 367.5 698.5 Q389 723 389 763 Q389 773 385.5 783.5 Q382 794 374.5 802.5 Q367 811 355 816.5 Q343 822 325 822 Q290 822 268 804.5 Q246 787 232 752 L186 773 Q203 816 237.5 844.5 Q272 873 329 873 Q386 873 417.5 842.5 Q449 812 449 764 Q449 735 441 712 Q433 689 416 669.5 Q399 650 372 631 Q345 612 307 590 Q265 566 241.5 545 Q218 524 203 497 L402 497 L392 444 L127 444 Z " />
<glyph glyph-name="brokenbar" unicode="&#xa6;" horiz-adv-x="280" d="M176 393 L234 720 L301 720 L243 393 L176 393 Z M86 -120 L143 205 L176 205 L210 205 L153 -120 L86 -120 Z " />
<glyph glyph-name="minus" unicode="&#x2212;" horiz-adv-x="655" d="M151 376 L621 376 L621 308 L151 308 L151 376 Z " />
<glyph glyph-name="multiply" unicode="&#xd7;" horiz-adv-x="655" d="M389 293 L218 121 L166 171 L340 344 L167 514 L216 562 L387 391 L558 563 L608 512 L436 342 L607 169 L560 122 L389 293 Z " />
<glyph glyph-name="space" unicode="&#x20;" horiz-adv-x="221" d="" />
<glyph glyph-name="exclam" unicode="&#x21;" horiz-adv-x="280" d="M170 193 L195 495 L234 712 L303 712 L264 495 L181 193 L170 193 Z M138 -14 Q115 -14 101.5 2.5 Q88 19 88 40 Q88 53 94 66 Q100 79 110 89.5 Q120 100 133 106 Q146 112 160 112 Q183 112 197 95.5 Q211 79 211 58 Q211 44 205 31.5 Q199 19 189 8.5 Q179 -2 165.5 -8 Q152 -14 138 -14 Z " />
<glyph glyph-name="quotedbl" unicode="&#x22;" horiz-adv-x="391" d="M191 700 L275 700 L210 433 L160 433 L191 700 Z M361 700 L446 700 L381 433 L353 433 L330 433 L361 700 Z " />
<glyph glyph-name="numbersign" unicode="&#x23;" horiz-adv-x="679" d="M154 0 L220 204 L101 204 L124 267 L239 267 L299 445 L186 445 L206 506 L316 506 L390 700 L446 700 L382 506 L517 506 L580 700 L646 700 L583 506 L702 506 L682 445 L565 445 L505 267 L618 267 L598 204 L486 204 L420 0 L354 0 L420 204 L285 204 L218 0 L154 0 Z M303 267 L439 267 L499 445 L363 445 L303 267 Z " />
<glyph glyph-name="dollar" unicode="&#x24;" horiz-adv-x="590" d="M516 579 Q508 607 479.5 627 Q451 647 400 647 Q333 647 294.5 617 Q256 587 256 536 Q256 501 277.5 478.5 Q299 456 331 438 Q363 420 400.5 403 Q438 386 470 362 Q502 338 523.5 303.5 Q545 269 545 216 Q545 166 528.5 126 Q512 86 482.5 57 Q453 28 412.5 11 Q372 -6 325 -10 L310 -98 L242 -98 L257 -9 Q188 0 146.5 39.5 Q105 79 96 130 L163 154 Q175 108 212 80.5 Q249 53 307 53 Q383 53 428 91 Q473 129 473 200 Q473 242 451.5 269 Q430 296 398 315.5 Q366 335 329 352 Q292 369 260 390.5 Q228 412 206.5 443 Q185 474 185 522 Q185 558 199 590 Q213 622 239.5 647.5 Q266 673 302.5 689 Q339 705 384 710 L398 789 L466 789 L452 709 Q509 701 543 672 Q577 643 582 601 L516 579 Z " />
<glyph glyph-name="percent" unicode="&#x25;" horiz-adv-x="875" d="M281 356 Q247 356 223.5 368.5 Q200 381 185 401 Q170 421 163.5 446 Q157 471 157 497 Q157 530 168 568 Q179 606 202.5 638 Q226 670 261 691 Q296 712 344 712 Q378 712 401.5 699.5 Q425 687 439.5 667 Q454 647 460.5 621.5 Q467 596 467 571 Q467 538 456.5 500 Q446 462 423.5 430 Q401 398 365.5 377 Q330 356 281 356 Z M291 414 Q318 414 339 426.5 Q360 439 374.5 460 Q389 481 396.5 508.5 Q404 536 404 566 Q404 604 386.5 629 Q369 654 333 654 Q305 654 284 641 Q263 628 249 607 Q235 586 228 558.5 Q221 531 221 502 Q221 465 237.5 439.5 Q254 414 291 414 Z M240 -12 L171 -12 L758 712 L827 712 L240 -12 Z M654 -12 Q619 -12 595.5 0.5 Q572 13 557.5 33 Q543 53 536.5 78 Q530 103 530 128 Q530 161 541 199 Q552 237 575 269.5 Q598 302 633 323 Q668 344 717 344 Q751 344 774 331.5 Q797 319 811.5 299.5 Q826 280 832.5 254.5 Q839 229 839 204 Q839 171 828.5 133 Q818 95 796 62.5 Q774 30 738.5 9 Q703 -12 654 -12 Z M664 46 Q691 46 712 58.5 Q733 71 747.5 92 Q762 113 769.5 140.5 Q777 168 777 197 Q777 235 759.5 260.5 Q742 286 706 286 Q677 286 656 273 Q635 260 621 239 Q607 218 600 191 Q593 164 593 135 Q593 97 610 71.5 Q627 46 664 46 Z " />
<glyph glyph-name="ampersand" unicode="&#x26;" horiz-adv-x="648" d="M535 0 L477 91 Q423 40 361 14 Q299 -12 241 -12 Q167 -12 125 30 Q83 72 83 141 Q83 187 97.5 223 Q112 259 139 289 Q166 319 203.5 344.5 Q241 370 286 394 Q258 441 244 476 Q230 511 230 542 Q230 581 245.5 612.5 Q261 644 286.5 666 Q312 688 346 700 Q380 712 417 712 Q475 712 510 676.5 Q545 641 545 587 Q545 521 500 474 Q455 427 378 383 L491 201 Q514 236 528 268 Q542 300 547 319 L610 319 Q601 284 582.5 240.5 Q564 197 526 147 L618 0 L535 0 Z M265 51 Q307 51 354.5 75 Q402 99 444 143 L314 348 Q273 324 242 303 Q211 282 190.5 260 Q170 238 159.5 213.5 Q149 189 149 160 Q149 111 180.5 81 Q212 51 265 51 Z M294 553 Q294 530 309 499.5 Q324 469 350 427 Q413 462 446 496.5 Q479 531 479 573 Q479 608 457.5 629 Q436 650 402 650 Q354 650 324 622.5 Q294 595 294 553 Z " />
<glyph glyph-name="quotesingle" unicode="&#x27;" horiz-adv-x="220" d="M191 700 L275 700 L210 433 L160 433 L191 700 Z " />
<glyph glyph-name="parenleft" unicode="&#x28;" horiz-adv-x="348" d="M186 -130 Q163 -87 145 -16 Q127 55 127 147 Q127 254 146.5 341 Q166 428 197.5 497.5 Q229 567 268 620 Q307 673 346 712 L410 712 Q398 699 377 674 Q356 649 332.5 612.5 Q309 576 284.5 528.5 Q260 481 240 424 Q220 367 207.5 301 Q195 235 195 160 Q195 105 201.5 57.5 Q208 10 217 -27.5 Q226 -65 235.5 -91.5 Q245 -118 251 -130 L186 -130 Z " />
<glyph glyph-name="parenright" unicode="&#x29;" horiz-adv-x="348" d="M254 712 Q281 668 300.5 591.5 Q320 515 320 420 Q320 315 302 231 Q284 147 255 80.5 Q226 14 189 -37.5 Q152 -89 115 -130 L51 -130 Q62 -117 81 -93 Q100 -69 122.5 -34.5 Q145 0 168 45 Q191 90 209.5 145 Q228 200 240 265 Q252 330 252 405 Q252 461 245 511.5 Q238 562 228 602.5 Q218 643 207 671.5 Q196 700 189 712 L254 712 Z " />
<glyph glyph-name="asterisk" unicode="&#x2a;" horiz-adv-x="535" d="M366 393 L349 473 L305 393 L226 301 L180 344 L257 432 L322 488 L251 493 L159 527 L193 593 L280 561 L340 512 L339 595 L359 707 L426 707 L406 595 L373 512 L450 561 L551 593 L562 527 L456 493 L381 488 L430 432 L476 344 L415 301 L366 393 Z " />
<glyph glyph-name="plus" unicode="&#x2b;" horiz-adv-x="655" d="M420 308 L420 108 L348 108 L348 308 L150 308 L150 376 L348 376 L348 578 L420 578 L420 376 L620 376 L620 308 L420 308 Z " />
<glyph glyph-name="comma" unicode="&#x2c;" horiz-adv-x="238" d="M57 -136 Q64 -130 74.5 -119.5 Q85 -109 95 -94 Q105 -79 113.5 -60 Q122 -41 126 -19 Q98 -19 82 -4 Q66 11 66 34 Q66 68 87.5 88.5 Q109 109 136 109 Q159 109 175.5 93 Q192 77 192 44 Q192 -16 158 -64 Q124 -112 74 -141 L57 -136 Z " />
<glyph glyph-name="hyphen" unicode="&#x2d;" horiz-adv-x="408" d="M144 264 L156 332 L370 332 L358 264 L144 264 Z " />
<glyph glyph-name="period" unicode="&#x2e;" horiz-adv-x="238" d="M117 -14 Q94 -14 80.5 2.5 Q67 19 67 40 Q67 53 73 66 Q79 79 89 89.5 Q99 100 112 106 Q125 112 139 112 Q162 112 176 95.5 Q190 79 190 58 Q190 44 184 31.5 Q178 19 168 8.5 Q158 -2 144.5 -8 Q131 -14 117 -14 Z " />
<glyph glyph-name="slash" unicode="&#x2f;" horiz-adv-x="488" d="M-12 -130 L514 712 L579 712 L53 -130 L-12 -130 Z " />
<glyph glyph-name="zero" unicode="0" horiz-adv-x="616" d="M315 -12 Q261 -12 225 10 Q189 32 167.5 67 Q146 102 136.5 146.5 Q127 191 127 236 Q127 287 133.5 342 Q140 397 154 450 Q168 503 191 550.5 Q214 598 247 634 Q280 670 323.5 691 Q367 712 423 712 Q477 712 513 690 Q549 668 570.5 633 Q592 598 601.5 553.5 Q611 509 611 464 Q611 413 604.5 358 Q598 303 584 250 Q570 197 547 149.5 Q524 102 491 66 Q458 30 414.5 9 Q371 -12 315 -12 Z M320 51 Q367 51 402 74.5 Q437 98 461.5 135 Q486 172 501.5 218 Q517 264 526 309.5 Q535 355 538 394 Q541 433 541 457 Q541 491 535.5 525.5 Q530 560 516 587.5 Q502 615 478.5 632 Q455 649 418 649 Q371 649 336 625.5 Q301 602 276.5 565 Q252 528 236.5 482 Q221 436 212 390.5 Q203 345 200 306 Q197 267 197 243 Q197 208 202.5 174 Q208 140 222 112.5 Q236 85 259.5 68 Q283 51 320 51 Z " />
<glyph glyph-name="one" unicode="1" horiz-adv-x="342" d="M163 0 L264 573 L150 573 L157 613 Q208 613 248.5 631.5 Q289 650 313 700 L356 700 L233 0 L163 0 Z " />
<glyph glyph-name="two" unicode="2" horiz-adv-x="597" d="M79 0 Q88 66 114 114.5 Q140 163 176 199.5 Q212 236 254 264.5 Q296 293 337 318 Q376 342 412.5 365.5 Q449 389 477 414.5 Q505 440 522 470 Q539 500 539 538 Q539 585 505.5 617 Q472 649 410 649 Q348 649 307 619 Q266 589 244 536 L187 564 Q199 595 220.5 622 Q242 649 271 669 Q300 689 336 700.5 Q372 712 413 712 Q459 712 495 699 Q531 686 556.5 662.5 Q582 639 595.5 608 Q609 577 609 541 Q609 488 587 447.5 Q565 407 529.5 373 Q494 339 449 311 Q404 283 359 256 Q324 235 293.5 214.5 Q263 194 238.5 171 Q214 148 196.5 122.5 Q179 97 170 67 L531 67 L519 0 L79 0 Z " />
<glyph glyph-name="three" unicode="3" horiz-adv-x="588" d="M311 -12 Q256 -12 216.5 4.5 Q177 21 150.5 45.5 Q124 70 109.5 99 Q95 128 90 153 L153 174 Q186 51 311 51 Q345 51 375.5 61 Q406 71 428.5 91.5 Q451 112 464.5 142 Q478 172 478 212 Q478 268 445.5 300.5 Q413 333 348 333 L297 333 L308 396 L349 396 Q384 396 413.5 406.5 Q443 417 464.5 435.5 Q486 454 498 481 Q510 508 510 541 Q510 591 478 620 Q446 649 393 649 Q335 649 296.5 621.5 Q258 594 238 543 L175 564 Q185 592 204 619 Q223 646 250.5 666.5 Q278 687 314 699.5 Q350 712 395 712 Q438 712 472 700 Q506 688 530 666 Q554 644 567 614 Q580 584 580 548 Q580 486 549 439.5 Q518 393 457 364 Q475 357 491.5 343 Q508 329 520.5 309.5 Q533 290 540.5 266 Q548 242 548 215 Q548 161 529 118.5 Q510 76 478 47 Q446 18 402.5 3 Q359 -12 311 -12 Z " />
<glyph glyph-name="four" unicode="4" horiz-adv-x="585" d="M366 0 L399 189 L72 189 L79 226 L516 700 L559 700 L480 251 L579 251 L568 189 L469 189 L436 0 L366 0 Z M410 251 L465 562 L182 251 L410 251 Z " />
<glyph glyph-name="five" unicode="5" horiz-adv-x="624" d="M139 136 Q152 120 169.5 104.5 Q187 89 208.5 77 Q230 65 257.5 58 Q285 51 319 51 Q363 51 400 64 Q437 77 463.5 101.5 Q490 126 504.5 160.5 Q519 195 519 238 Q519 268 511.5 295 Q504 322 487 343 Q470 364 443 376.5 Q416 389 377 389 Q323 389 282.5 367.5 Q242 346 219 318 L163 337 L281 700 L621 700 L610 636 L325 636 L246 400 Q270 420 306.5 436 Q343 452 393 452 Q436 452 472 438 Q508 424 534 397 Q560 370 574.5 332 Q589 294 589 246 Q589 191 570.5 143.5 Q552 96 517 61.5 Q482 27 430 7.5 Q378 -12 311 -12 Q268 -12 232.5 -2 Q197 8 169 23.5 Q141 39 121 57 Q101 75 91 90 L139 136 Z " />
<glyph glyph-name="six" unicode="6" horiz-adv-x="584" d="M298 -12 Q248 -12 210.5 4.5 Q173 21 148 49.5 Q123 78 110.5 115.5 Q98 153 98 195 Q98 282 133.5 366 Q169 450 229.5 520.5 Q290 591 369.5 642 Q449 693 538 715 L528 653 Q471 637 421 608.5 Q371 580 329.5 543 Q288 506 256 462 Q224 418 204 370 Q230 398 272 416 Q314 434 365 434 Q406 434 440.5 420 Q475 406 499.5 381 Q524 356 537.5 321.5 Q551 287 551 247 Q551 190 532 142.5 Q513 95 479.5 60.5 Q446 26 399.5 7 Q353 -12 298 -12 Z M301 51 Q341 51 374 65 Q407 79 431 104 Q455 129 468.5 163 Q482 197 482 238 Q482 300 445.5 335.5 Q409 371 349 371 Q310 371 277 357 Q244 343 220 318.5 Q196 294 182 259.5 Q168 225 168 184 Q168 126 202 88.5 Q236 51 301 51 Z " />
<glyph glyph-name="seven" unicode="7" horiz-adv-x="500" d="M168 0 Q182 81 205 161 Q228 241 264.5 320.5 Q301 400 354 479.5 Q407 559 482 640 L162 640 L172 700 L574 700 L566 654 Q481 570 423 481.5 Q365 393 327.5 307.5 Q290 222 269.5 143 Q249 64 239 0 L168 0 Z " />
<glyph glyph-name="eight" unicode="8" horiz-adv-x="595" d="M314 -12 Q264 -12 225.5 2.5 Q187 17 161 42 Q135 67 121.5 101.5 Q108 136 108 177 Q108 213 118 248 Q128 283 148 312 Q168 341 198.5 363.5 Q229 386 270 397 Q262 401 250 411 Q238 421 227 436 Q216 451 208.5 471 Q201 491 201 516 Q201 554 215 589.5 Q229 625 255.5 652 Q282 679 320.5 695.5 Q359 712 409 712 Q447 712 478.5 699.5 Q510 687 533 665 Q556 643 569 613 Q582 583 582 548 Q582 490 551 445.5 Q520 401 465 381 Q512 361 535.5 319.5 Q559 278 559 230 Q559 177 541 132.5 Q523 88 490.5 56 Q458 24 413 6 Q368 -12 314 -12 Z M318 51 Q352 51 383 62.5 Q414 74 437.5 96.5 Q461 119 475 152 Q489 185 489 227 Q489 281 454.5 319 Q420 357 353 357 Q316 357 284 344.5 Q252 332 228.5 309 Q205 286 191.5 253.5 Q178 221 178 181 Q178 121 215 86 Q252 51 318 51 Z M378 413 Q406 413 431 422 Q456 431 475 448.5 Q494 466 504.5 490.5 Q515 515 515 545 Q515 593 485.5 621 Q456 649 405 649 Q376 649 351 639 Q326 629 307.5 611.5 Q289 594 278.5 570 Q268 546 268 517 Q268 496 275 477.5 Q282 459 296 444.5 Q310 430 330.5 421.5 Q351 413 378 413 Z " />
<glyph glyph-name="nine" unicode="9" horiz-adv-x="584" d="M184 50 Q238 65 287.5 94.5 Q337 124 378 162 Q419 200 449 244.5 Q479 289 493 333 Q467 302 422.5 283.5 Q378 265 325 265 Q289 265 256 277.5 Q223 290 198.5 313.5 Q174 337 159.5 371 Q145 405 145 447 Q145 504 165.5 552.5 Q186 601 221.5 636.5 Q257 672 305.5 692 Q354 712 410 712 Q458 712 493 696 Q528 680 551.5 651.5 Q575 623 586.5 584.5 Q598 546 598 502 Q598 415 565 332 Q532 249 475 179.5 Q418 110 340.5 59.5 Q263 9 174 -12 L184 50 Z M342 324 Q381 324 415 338.5 Q449 353 474 378.5 Q499 404 513.5 438.5 Q528 473 528 514 Q528 573 496 611 Q464 649 402 649 Q363 649 328.5 634 Q294 619 268.5 593 Q243 567 228.5 532 Q214 497 214 457 Q214 429 222.5 404.5 Q231 380 247.5 362 Q264 344 287.5 334 Q311 324 342 324 Z " />
<glyph glyph-name="colon" unicode="&#x3a;" horiz-adv-x="238" d="M117 -14 Q94 -14 80.5 2.5 Q67 19 67 40 Q67 53 73 66 Q79 79 89 89.5 Q99 100 112 106 Q125 112 139 112 Q162 112 176 95.5 Q190 79 190 58 Q190 44 184 31.5 Q178 19 168 8.5 Q158 -2 144.5 -8 Q131 -14 117 -14 Z M182 357 Q159 357 145.5 373.5 Q132 390 132 411 Q132 424 138 437 Q144 450 154 460.5 Q164 471 177 477 Q190 483 204 483 Q227 483 241 466.5 Q255 450 255 429 Q255 415 249 402.5 Q243 390 233 379.5 Q223 369 210 363 Q197 357 182 357 Z " />
<glyph glyph-name="semicolon" unicode="&#x3b;" horiz-adv-x="238" d="M182 357 Q159 357 145.5 373.5 Q132 390 132 411 Q132 424 138 437 Q144 450 154 460.5 Q164 471 177 477 Q190 483 204 483 Q227 483 241 466.5 Q255 450 255 429 Q255 415 249 402.5 Q243 390 233 379.5 Q223 369 210 363 Q197 357 182 357 Z M57 -136 Q72 -124 92.5 -93.5 Q113 -63 121 -18 Q97 -18 81.5 -3.5 Q66 11 66 34 Q66 68 87.5 88.5 Q109 109 136 109 Q159 109 175.5 93 Q192 77 192 44 Q192 -16 158 -64 Q124 -112 74 -141 L57 -136 Z " />
<glyph glyph-name="less" unicode="&#x3c;" horiz-adv-x="655" d="M624 120 L154 309 L154 375 L624 565 L624 498 L231 343 L624 188 L624 120 Z " />
<glyph glyph-name="equal" unicode="&#x3d;" horiz-adv-x="655" d="M150 229 L150 296 L620 296 L620 266 L620 229 L150 229 Z M150 388 L150 455 L620 455 L620 388 L150 388 Z " />
<glyph glyph-name="greater" unicode="&#x3e;" horiz-adv-x="655" d="M617 309 L147 120 L147 186 L540 343 L147 498 L147 565 L617 375 L617 309 Z " />
<glyph glyph-name="question" unicode="&#x3f;" horiz-adv-x="526" d="M252 190 L254 200 Q264 250 285.5 284 Q307 318 333.5 343.5 Q360 369 388.5 389 Q417 409 440 431 Q463 453 478 480.5 Q493 508 493 548 Q493 589 464.5 618 Q436 647 379 647 Q307 647 259.5 605.5 Q212 564 198 488 L130 488 Q139 538 163 579.5 Q187 621 221.5 650.5 Q256 680 299.5 696 Q343 712 391 712 Q434 712 466.5 699.5 Q499 687 520.5 666 Q542 645 553 617 Q564 589 564 558 Q564 506 548.5 471 Q533 436 509 411 Q485 386 456 365.5 Q427 345 400.5 323 Q374 301 352.5 272 Q331 243 323 200 L321 190 L252 190 Z M249 -14 Q225 -14 211.5 2.5 Q198 19 198 40 Q198 53 204 66 Q210 79 220 89.5 Q230 100 243 106 Q256 112 271 112 Q294 112 307.5 95.5 Q321 79 321 58 Q321 44 315 31.5 Q309 19 299 8.5 Q289 -2 276 -8 Q263 -14 249 -14 Z " />
<glyph glyph-name="at" unicode="&#x40;" horiz-adv-x="788" d="M392 -12 Q331 -12 279.5 7.5 Q228 27 190.5 63 Q153 99 132 151.5 Q111 204 111 270 Q111 367 148 448.5 Q185 530 245.5 588.5 Q306 647 382.5 679.5 Q459 712 538 712 Q600 712 650 694 Q700 676 735 643 Q770 610 789 564 Q808 518 808 463 Q808 401 790.5 345.5 Q773 290 743.5 249 Q714 208 676.5 184 Q639 160 600 160 Q560 160 541.5 180.5 Q523 201 522 236 Q496 199 459.5 175 Q423 151 385 151 Q359 151 338 161.5 Q317 172 302 190.5 Q287 209 279 234.5 Q271 260 271 289 Q271 337 287.5 380.5 Q304 424 333 457 Q362 490 401.5 509.5 Q441 529 486 529 Q530 529 555 503.5 Q580 478 580 433 L608 516 L669 516 L590 284 Q588 277 586.5 269.5 Q585 262 585 251 Q585 235 594 225 Q603 215 620 215 Q645 215 668.5 236.5 Q692 258 710 292.5 Q728 327 739 370.5 Q750 414 750 458 Q750 504 733 540 Q716 576 686.5 600.5 Q657 625 617 637.5 Q577 650 530 650 Q450 650 385 621 Q320 592 273.5 542 Q227 492 201.5 425 Q176 358 176 283 Q176 235 190.5 192.5 Q205 150 234 118.5 Q263 87 306 68.5 Q349 50 406 50 Q441 50 480 55 Q519 60 547 69 L521 3 Q494 -5 460.5 -8.5 Q427 -12 392 -12 Z M410 212 Q439 212 464.5 226.5 Q490 241 508.5 264.5 Q527 288 538 318.5 Q549 349 549 382 Q549 423 532 445.5 Q515 468 482 468 Q450 468 424.5 453 Q399 438 380 414 Q361 390 351 359 Q341 328 341 296 Q341 258 359.5 235 Q378 212 410 212 Z " />
<glyph glyph-name="A" unicode="A" horiz-adv-x="657" d="M521 0 L492 181 L229 181 L138 0 L64 0 L420 700 L476 700 L589 0 L521 0 Z M439 523 Q437 536 434 556 Q431 576 430 586 Q426 576 417 556.5 Q408 537 401 523 L260 243 L483 243 L439 523 Z " />
<glyph glyph-name="B" unicode="B" horiz-adv-x="637" d="M233 700 L452 700 Q503 700 537.5 686.5 Q572 673 593 651 Q614 629 623 601 Q632 573 632 544 Q632 499 617 466.5 Q602 434 579.5 412.5 Q557 391 532 379.5 Q507 368 487 364 Q540 353 570 311 Q600 269 600 212 Q600 175 588.5 137 Q577 99 548.5 68.5 Q520 38 472.5 19 Q425 0 354 0 L110 0 L233 700 Z M361 63 Q415 63 448.5 78.5 Q482 94 500.5 117.5 Q519 141 525.5 167.5 Q532 194 532 215 Q532 239 525 260 Q518 281 501 297.5 Q484 314 455 323.5 Q426 333 383 333 L239 333 L191 63 L361 63 Z M382 394 Q472 394 518 434 Q564 474 564 536 Q564 556 559 574 Q554 592 541 606 Q528 620 505 628.5 Q482 637 447 637 L292 637 L249 394 L382 394 Z " />
<glyph glyph-name="C" unicode="C" horiz-adv-x="639" d="M367 -12 Q305 -12 260.5 13 Q216 38 187 79 Q158 120 144.5 172 Q131 224 131 278 Q131 360 154.5 438.5 Q178 517 222.5 577.5 Q267 638 331.5 675 Q396 712 479 712 Q518 712 549 701.5 Q580 691 603.5 675 Q627 659 642.5 638.5 Q658 618 667 599 L610 567 Q600 583 588 598 Q576 613 559.5 624.5 Q543 636 521 642.5 Q499 649 470 649 Q404 649 354 616 Q304 583 270 530.5 Q236 478 218.5 413.5 Q201 349 201 286 Q201 242 210.5 200 Q220 158 241 125 Q262 92 294 71.5 Q326 51 371 51 Q430 51 468.5 76 Q507 101 538 141 L595 113 Q580 89 558.5 66.5 Q537 44 509 26.5 Q481 9 445.5 -1.5 Q410 -12 367 -12 Z " />
<glyph glyph-name="D" unicode="D" horiz-adv-x="672" d="M233 700 L410 700 Q481 700 530 673.5 Q579 647 609 605 Q639 563 652.5 511 Q666 459 666 408 Q666 343 648.5 271.5 Q631 200 587.5 139.5 Q544 79 470.5 39.5 Q397 0 286 0 L110 0 L233 700 Z M302 63 Q387 63 443.5 96.5 Q500 130 534 181 Q568 232 582 293 Q596 354 596 408 Q596 449 586 490 Q576 531 554 563.5 Q532 596 497 616.5 Q462 637 413 637 L292 637 L191 63 L302 63 Z " />
<glyph glyph-name="E" unicode="E" horiz-adv-x="593" d="M110 0 L233 700 L617 700 L607 637 L292 637 L249 394 L462 394 L450 331 L238 331 L191 63 L527 63 L516 0 L110 0 Z " />
<glyph glyph-name="F" unicode="F" horiz-adv-x="563" d="M110 0 L233 700 L627 700 L617 637 L292 637 L249 394 L468 394 L456 331 L238 331 L180 0 L110 0 Z " />
<glyph glyph-name="G" unicode="G" horiz-adv-x="679" d="M364 -12 Q303 -12 259 11.5 Q215 35 186.5 74 Q158 113 144.5 162.5 Q131 212 131 264 Q131 347 152.5 427.5 Q174 508 217.5 571 Q261 634 325.5 673 Q390 712 477 712 Q520 712 552 701 Q584 690 607.5 673.5 Q631 657 645.5 637 Q660 617 668 599 L606 566 Q589 600 556 624.5 Q523 649 464 649 Q399 649 350 614.5 Q301 580 268 526 Q235 472 218 405 Q201 338 201 273 Q201 230 210.5 190 Q220 150 240 119 Q260 88 291.5 69.5 Q323 51 367 51 Q441 51 490 98 Q539 145 553 225 L560 267 L439 267 L450 329 L645 329 L629 241 Q617 176 592.5 128 Q568 80 533.5 49 Q499 18 456 3 Q413 -12 364 -12 Z " />
<glyph glyph-name="H" unicode="H" horiz-adv-x="686" d="M110 0 L233 700 L303 700 L250 397 L578 397 L631 700 L701 700 L578 0 L508 0 L566 331 L239 331 L181 0 L110 0 Z " />
<glyph glyph-name="I" unicode="I" horiz-adv-x="290" d="M110 0 L233 700 L303 700 L180 0 L110 0 Z " />
<glyph glyph-name="J" unicode="J" horiz-adv-x="536" d="M235 -12 Q172 -12 128.5 23 Q85 58 68 109 L126 133 Q138 101 163.5 76 Q189 51 236 51 Q266 51 291 59.5 Q316 68 335.5 88 Q355 108 369.5 140.5 Q384 173 393 222 L477 700 L547 700 L462 217 Q448 140 422.5 94.5 Q397 49 365.5 25.5 Q334 2 300 -5 Q266 -12 235 -12 Z " />
<glyph glyph-name="K" unicode="K" horiz-adv-x="638" d="M501 0 L362 399 L224 252 L180 0 L110 0 L233 700 L303 700 L243 358 L564 700 L646 700 L414 454 L573 0 L501 0 Z " />
<glyph glyph-name="L" unicode="L" horiz-adv-x="561" d="M110 0 L233 700 L303 700 L192 67 L524 67 L512 0 L110 0 Z " />
<glyph glyph-name="M" unicode="M" horiz-adv-x="791" d="M613 0 L698 481 Q700 490 702 503 Q704 516 706 521 Q703 513 696 501.5 Q689 490 686 485 L386 -12 L277 480 Q275 487 273.5 496.5 Q272 506 270 516 Q268 504 267 495 Q266 486 264 478 L180 0 L110 0 L233 700 L298 700 L405 208 Q407 198 410 185.5 Q413 173 415 159 Q420 170 428.5 184.5 Q437 199 441 205 L739 700 L806 700 L683 0 L613 0 Z " />
<glyph glyph-name="N" unicode="N" horiz-adv-x="697" d="M518 0 L310 498 Q308 502 303 513.5 Q298 525 293 538 Q287 553 280 570 Q277 553 274 538 Q272 525 270 513.5 Q268 502 267 497 L180 0 L110 0 L233 700 L298 700 L523 161 Q524 159 526.5 153 Q529 147 532 139 Q536 130 540 120 Q541 129 543 137 Q545 144 545.5 150.5 Q546 157 547 160 L642 700 L712 700 L589 0 L518 0 Z " />
<glyph glyph-name="O" unicode="O" horiz-adv-x="712" d="M362 51 Q432 51 484 87 Q536 123 569.5 179.5 Q603 236 619.5 304 Q636 372 636 436 Q636 475 627.5 513.5 Q619 552 599.5 582 Q580 612 549.5 630.5 Q519 649 475 649 Q404 649 352.5 613 Q301 577 267 520.5 Q233 464 216.5 396 Q200 328 200 264 Q200 222 209 183.5 Q218 145 237.5 115.5 Q257 86 287.5 68.5 Q318 51 362 51 Z M362 -12 Q300 -12 256 11 Q212 34 184 72 Q156 110 143 160 Q130 210 130 264 Q130 339 150.5 418 Q171 497 214 562.5 Q257 628 321.5 670 Q386 712 475 712 Q538 712 582 688 Q626 664 653.5 625 Q681 586 693.5 536.5 Q706 487 706 436 Q706 361 685.5 282 Q665 203 622.5 137.5 Q580 72 515 30 Q450 -12 362 -12 Z " />
<glyph glyph-name="P" unicode="P" horiz-adv-x="618" d="M110 0 L233 700 L475 700 Q526 700 561 685 Q596 670 618 645.5 Q640 621 650 591 Q660 561 660 531 Q660 488 646.5 445.5 Q633 403 604 368.5 Q575 334 528 312.5 Q481 291 415 291 L231 291 L180 0 L110 0 Z M423 350 Q469 350 501.5 366 Q534 382 554.5 407.5 Q575 433 584 464.5 Q593 496 593 526 Q593 544 587.5 564 Q582 584 568.5 601 Q555 618 532 629.5 Q509 641 474 641 L292 641 L241 350 L423 350 Z " />
<glyph glyph-name="Q" unicode="Q" horiz-adv-x="712" d="M362 -12 Q300 -12 256 11 Q212 34 184 72 Q156 110 143 160 Q130 210 130 264 Q130 339 150.5 418 Q171 497 214 562.5 Q257 628 321.5 670 Q386 712 475 712 Q538 712 582 688 Q626 664 653.5 625 Q681 586 693.5 536.5 Q706 487 706 436 Q706 384 696 329.5 Q686 275 666 224 Q646 173 616 128 Q586 83 545 51 L587 -38 L533 -65 L493 18 Q464 4 431.5 -4 Q399 -12 362 -12 Z M362 51 Q418 51 466 76 L430 153 L484 180 L516 112 Q546 140 568.5 178.5 Q591 217 606 260 Q621 303 628.5 348 Q636 393 636 436 Q636 475 627.5 513.5 Q619 552 599.5 582 Q580 612 549.5 630.5 Q519 649 475 649 Q404 649 352.5 613 Q301 577 267 520.5 Q233 464 216.5 396 Q200 328 200 264 Q200 222 209 183.5 Q218 145 237.5 115.5 Q257 86 287.5 68.5 Q318 51 362 51 Z " />
<glyph glyph-name="R" unicode="R" horiz-adv-x="653" d="M654 525 Q654 489 642.5 454 Q631 419 606.5 390.5 Q582 362 544 343 Q506 324 454 318 L565 0 L493 0 L384 315 L235 315 L180 0 L110 0 L233 700 L453 700 Q511 700 549.5 683.5 Q588 667 611.5 641.5 Q635 616 644.5 585 Q654 554 654 525 Z M419 378 Q468 378 500 391.5 Q532 405 551.5 426 Q571 447 579 473 Q587 499 587 523 Q587 543 581 563 Q575 583 559.5 599.5 Q544 616 518.5 626.5 Q493 637 454 637 L292 637 L247 378 L419 378 Z " />
<glyph glyph-name="S" unicode="S" horiz-adv-x="591" d="M517 578 Q502 607 474 628 Q446 649 394 649 Q329 649 292 617.5 Q255 586 255 536 Q255 499 276.5 476 Q298 453 330 434.5 Q362 416 400 399 Q438 382 470 357.5 Q502 333 523.5 297 Q545 261 545 206 Q545 152 526.5 111 Q508 70 475.5 43 Q443 16 399.5 2 Q356 -12 305 -12 Q264 -12 230.5 -1 Q197 10 171 29.5 Q145 49 127 74.5 Q109 100 101 130 L165 155 Q203 51 311 51 Q386 51 429.5 89 Q473 127 473 200 Q473 242 451.5 269.5 Q430 297 398 317.5 Q366 338 329 356 Q292 374 260 396.5 Q228 419 206.5 450.5 Q185 482 185 530 Q185 569 200 602.5 Q215 636 243 660 Q271 684 310.5 698 Q350 712 399 712 Q435 712 464.5 703 Q494 694 517 679.5 Q540 665 555.5 645.5 Q571 626 579 605 L517 578 Z " />
<glyph glyph-name="T" unicode="T" horiz-adv-x="573" d="M434 637 L322 0 L252 0 L364 637 L181 637 L191 700 L628 700 L618 637 L434 637 Z " />
<glyph glyph-name="U" unicode="U" horiz-adv-x="674" d="M349 -12 Q304 -12 266 0 Q228 12 201 36.5 Q174 61 158.5 99 Q143 137 143 189 Q143 206 144.5 226 Q146 246 150 267 L226 700 L296 700 L219 261 Q213 223 213 192 Q213 150 224.5 122.5 Q236 95 255 79.5 Q274 64 299 57.5 Q324 51 351 51 Q383 51 413.5 60 Q444 69 469.5 92.5 Q495 116 515 156.5 Q535 197 546 260 L623 700 L693 700 L616 260 Q590 114 524.5 51 Q459 -12 349 -12 Z " />
<glyph glyph-name="V" unicode="V" horiz-adv-x="636" d="M343 0 L294 0 L186 700 L258 700 L335 163 Q337 152 338 140.5 Q339 129 339 124 Q341 131 345 140 Q349 149 353 157 L617 700 L695 700 L343 0 Z " />
<glyph glyph-name="W" unicode="W" horiz-adv-x="815" d="M878 700 L620 0 L558 0 L504 516 Q503 520 503 524.5 Q503 529 502 534 Q501 539 501 544 Q499 538 496 533 Q494 528 492 523.5 Q490 519 488 516 L246 0 L184 0 L184 700 L252 700 L252 199 L252 151 Q256 159 260 168 Q263 176 266.5 184 Q270 192 273 198 L498 700 L551 700 L600 191 Q600 187 600.5 180 Q601 173 602 166 Q603 158 604 149 Q607 157 610 165 Q612 172 614 178 Q616 184 618 188 L803 700 L878 700 Z " />
<glyph glyph-name="X" unicode="X" horiz-adv-x="561" d="M443 0 L336 301 L130 0 L53 0 L311 371 L190 700 L257 700 L352 430 L537 700 L613 700 L377 362 L509 0 L443 0 Z " />
<glyph glyph-name="Y" unicode="Y" horiz-adv-x="613" d="M271 0 L320 280 L177 700 L248 700 L363 340 L610 700 L682 700 L386 273 L338 0 L271 0 Z " />
<glyph glyph-name="Z" unicode="Z" horiz-adv-x="633" d="M78 0 L87 49 L581 638 L213 638 L223 700 L678 700 L669 649 L180 62 L566 62 L555 0 L78 0 Z " />
<glyph glyph-name="bracketleft" unicode="&#x5b;" horiz-adv-x="385" d="M98 -130 L247 712 L448 712 L436 649 L302 649 L176 -67 L310 -67 L299 -130 L98 -130 Z " />
<glyph glyph-name="backslash" unicode="&#x5c;" horiz-adv-x="488" d="M365 -130 L137 712 L202 712 L430 -130 L365 -130 Z " />
<glyph glyph-name="bracketright" unicode="&#x5d;" horiz-adv-x="385" d="M40 -130 L51 -67 L185 -67 L311 649 L177 649 L189 712 L390 712 L241 -130 L40 -130 Z " />
<glyph glyph-name="asciicircum" unicode="&#x5e;" horiz-adv-x="655" d="M543 362 L437 625 L240 362 L171 362 L416 712 L489 712 L612 362 L543 362 Z " />
<glyph glyph-name="underscore" unicode="&#x5f;" horiz-adv-x="530" d="M-11 -177 L2 -100 L492 -100 L479 -177 L-11 -177 Z " />
<glyph glyph-name="grave" unicode="&#x60;" horiz-adv-x="343" d="M280 576 L136 732 L239 732 L348 576 L280 576 Z " />
<glyph glyph-name="a" unicode="a" horiz-adv-x="532" d="M379 0 L386 42 Q362 22 325 5 Q288 -12 239 -12 Q170 -12 131 28.5 Q92 69 92 135 Q92 187 110.5 224.5 Q129 262 158.5 285 Q188 308 225.5 319 Q263 330 301 330 Q349 330 380.5 317.5 Q412 305 430 292 L438 337 Q443 362 443 380 Q443 404 435.5 420 Q428 436 416.5 445.5 Q405 455 390 458.5 Q375 462 360 462 Q339 462 316.5 457 Q294 452 273 444 Q252 436 232.5 426.5 Q213 417 198 407 L189 467 Q222 487 268 505 Q314 523 365 523 Q390 523 415.5 516.5 Q441 510 462 494 Q483 478 496 452.5 Q509 427 509 388 Q509 368 504 340 L444 0 L379 0 Z M251 49 Q295 49 335.5 72.5 Q376 96 401 124 L418 225 Q403 237 372.5 253 Q342 269 300 269 Q272 269 246.5 262 Q221 255 201 239.5 Q181 224 169 200 Q157 176 157 142 Q157 102 180.5 75.5 Q204 49 251 49 Z " />
<glyph glyph-name="b" unicode="b" horiz-adv-x="560" d="M304 -12 Q256 -12 223 7.5 Q190 27 173 47 L165 0 L95 0 L217 692 L292 722 L247 470 Q269 489 302.5 506 Q336 523 383 523 Q420 523 450.5 509 Q481 495 503 469 Q525 443 537.5 406 Q550 369 550 323 Q550 246 532 184.5 Q514 123 481 79 Q448 35 403 11.5 Q358 -12 304 -12 Z M300 51 Q345 51 378.5 72 Q412 93 434.5 129 Q457 165 468.5 213.5 Q480 262 480 318 Q480 384 451.5 422 Q423 460 369 460 Q328 460 292 438 Q256 416 233 387 L187 126 Q201 97 229.5 74 Q258 51 300 51 Z " />
<glyph glyph-name="c" unicode="c" horiz-adv-x="485" d="M265 -12 Q228 -12 197.5 2.5 Q167 17 145.5 44 Q124 71 112 109 Q100 147 100 195 Q100 270 118 330.5 Q136 391 168 433.5 Q200 476 245.5 499.5 Q291 523 346 523 Q402 523 442.5 495.5 Q483 468 497 416 L432 391 Q424 420 402 440 Q380 460 339 460 Q295 460 263.5 437.5 Q232 415 212 377.5 Q192 340 182 292.5 Q172 245 172 195 Q172 127 196 89 Q220 51 271 51 Q354 51 394 129 L450 105 Q423 51 377 19.5 Q331 -12 265 -12 Z " />
<glyph glyph-name="d" unicode="d" horiz-adv-x="561" d="M268 -12 Q229 -12 197.5 4 Q166 20 144.5 49 Q123 78 111.5 119 Q100 160 100 210 Q100 281 119 339 Q138 397 172.5 438 Q207 479 254 501 Q301 523 358 523 Q406 523 435.5 506 Q465 489 480 472 L519 692 L594 722 L467 0 L397 0 L404 43 Q379 17 345 2.5 Q311 -12 268 -12 Z M283 51 Q307 51 328.5 59 Q350 67 367.5 78.5 Q385 90 398 104 Q411 118 420 130 L465 387 Q460 399 451.5 411.5 Q443 424 429.5 435 Q416 446 397.5 453 Q379 460 355 460 Q311 460 277.5 441.5 Q244 423 220.5 389 Q197 355 185 308.5 Q173 262 173 207 Q173 175 179.5 146.5 Q186 118 199.5 97 Q213 76 233.5 63.5 Q254 51 283 51 Z " />
<glyph glyph-name="e" unicode="e" horiz-adv-x="528" d="M279 -12 Q237 -12 203.5 4.5 Q170 21 147 50 Q124 79 112 118 Q100 157 100 202 Q100 271 119 330 Q138 389 172 431.5 Q206 474 252 498.5 Q298 523 352 523 Q390 523 422 512.5 Q454 502 477 479 Q500 456 513 420.5 Q526 385 526 334 Q526 301 520 275.5 Q514 250 507 227 L172 227 L172 213 Q172 138 200.5 95.5 Q229 53 287 53 Q314 53 343.5 62 Q373 71 405 93 L436 42 Q403 17 363 2.5 Q323 -12 279 -12 Z M352 460 Q315 460 286 445 Q257 430 236 406 Q215 382 201.5 351.5 Q188 321 181 290 L451 290 Q458 317 458 340 Q458 376 448.5 399 Q439 422 424 435.5 Q409 449 390 454.5 Q371 460 352 460 Z " />
<glyph glyph-name="f" unicode="f" horiz-adv-x="333" d="M261 448 L182 0 L112 0 L191 448 L106 448 L117 511 L202 511 L218 603 Q229 666 262.5 689 Q296 712 341 712 Q369 712 387 704.5 Q405 697 420 688 L410 627 Q395 635 379 641 Q363 647 343 647 Q327 647 317 641.5 Q307 636 300.5 627.5 Q294 619 291 608 Q288 597 286 587 L272 511 L389 511 L378 448 L261 448 Z " />
<glyph glyph-name="g" unicode="g" horiz-adv-x="562" d="M176 -158 Q236 -155 276 -142.5 Q316 -130 340 -111.5 Q364 -93 376 -69.5 Q388 -46 393 -20 L405 49 Q386 27 353.5 7.5 Q321 -12 269 -12 Q229 -12 197.5 4 Q166 20 144.5 48.5 Q123 77 111.5 115 Q100 153 100 198 Q100 270 118 329.5 Q136 389 169 432 Q202 475 247.5 499 Q293 523 348 523 Q383 523 417.5 509 Q452 495 478 463 L487 511 L555 511 L463 -8 Q451 -73 426 -112.5 Q401 -152 365.5 -174 Q330 -196 287 -203.5 Q244 -211 196 -213 L176 -158 Z M287 51 Q308 51 328 58 Q348 65 365.5 77 Q383 89 397.5 104.5 Q412 120 421 137 L464 382 Q453 414 422.5 437 Q392 460 350 460 Q306 460 273 438.5 Q240 417 217 382 Q194 347 182.5 300.5 Q171 254 171 205 Q171 133 203 92 Q235 51 287 51 Z " />
<glyph glyph-name="h" unicode="h" horiz-adv-x="560" d="M400 0 L455 312 Q457 326 458.5 337.5 Q460 349 460 360 Q460 414 434 437 Q408 460 367 460 Q341 460 317.5 453 Q294 446 275 429 Q256 412 241.5 384 Q227 356 220 314 L165 0 L95 0 L217 692 L292 722 L244 453 Q273 487 307.5 505 Q342 523 384 523 Q456 523 491.5 487.5 Q527 452 527 374 Q527 334 518 283 L468 0 L400 0 Z " />
<glyph glyph-name="i" unicode="i" horiz-adv-x="261" d="M95 0 L185 511 L255 511 L165 0 L95 0 Z M239 616 Q222 616 211 627 Q200 638 200 655 Q200 678 216 694 Q232 710 252 710 Q271 710 281.5 699 Q292 688 292 671 Q292 648 275.5 632 Q259 616 239 616 Z " />
<glyph glyph-name="j" unicode="j" horiz-adv-x="269" d="M-46 -158 Q-10 -155 13.5 -147.5 Q37 -140 52 -128 Q67 -116 74.5 -99 Q82 -82 86 -60 L187 511 L257 511 L155 -67 Q147 -112 129.5 -140.5 Q112 -169 88 -185 Q64 -201 35 -207.5 Q6 -214 -24 -216 L-46 -158 Z M242 616 Q225 616 214 627 Q203 638 203 655 Q203 678 219 694 Q235 710 255 710 Q274 710 284.5 699 Q295 688 295 671 Q295 648 278.5 632 Q262 616 242 616 Z " />
<glyph glyph-name="k" unicode="k" horiz-adv-x="513" d="M358 368 L480 0 L402 0 L305 318 L204 225 L165 0 L95 0 L217 692 L292 722 L220 316 L431 511 L513 511 L358 368 Z " />
<glyph glyph-name="l" unicode="l" horiz-adv-x="271" d="M100 0 L222 692 L297 722 L170 0 L100 0 Z " />
<glyph glyph-name="m" unicode="m" horiz-adv-x="837" d="M670 0 L726 319 Q728 331 729 341.5 Q730 352 730 363 Q730 409 709 434.5 Q688 460 646 460 Q622 460 599.5 450 Q577 440 559 421.5 Q541 403 528 377.5 Q515 352 510 321 L453 0 L383 0 L439 319 Q441 331 442 342 Q443 353 443 363 Q443 410 422 435 Q401 460 358 460 Q334 460 311.5 450 Q289 440 271 421.5 Q253 403 240 377.5 Q227 352 222 321 L165 0 L95 0 L185 511 L254 511 L245 461 Q274 493 310.5 508 Q347 523 382 523 Q427 523 458 502.5 Q489 482 503 445 Q534 482 573 502.5 Q612 523 662 523 Q725 523 764.5 485 Q804 447 804 380 Q804 359 800 340 L740 0 L670 0 Z " />
<glyph glyph-name="n" unicode="n" horiz-adv-x="560" d="M400 0 L454 308 Q459 336 459 355 Q459 405 435.5 432.5 Q412 460 366 460 Q340 460 315.5 449 Q291 438 271.5 418.5 Q252 399 238.5 371 Q225 343 219 310 L165 0 L95 0 L185 511 L255 511 L245 455 Q273 488 308.5 505.5 Q344 523 382 523 Q451 523 489 483 Q527 443 527 360 Q527 343 525.5 323.5 Q524 304 520 283 L470 0 L400 0 Z " />
<glyph glyph-name="o" unicode="o" horiz-adv-x="547" d="M279 -12 Q231 -12 196.5 5.5 Q162 23 140 51.5 Q118 80 108 117.5 Q98 155 98 196 Q98 251 114 309 Q130 367 162 414.5 Q194 462 242.5 492.5 Q291 523 357 523 Q406 523 440.5 505 Q475 487 497 457.5 Q519 428 528.5 390.5 Q538 353 538 315 Q538 260 522.5 202 Q507 144 475 96.5 Q443 49 394 18.5 Q345 -12 279 -12 Z M279 51 Q327 51 363 75.5 Q399 100 422 138.5 Q445 177 456.5 224 Q468 271 468 315 Q468 342 462 368 Q456 394 443 414.5 Q430 435 408.5 447.5 Q387 460 357 460 Q309 460 273.5 435.5 Q238 411 214.5 372.5 Q191 334 179.5 287.5 Q168 241 168 196 Q168 168 174 142 Q180 116 193.5 95.5 Q207 75 228 63 Q249 51 279 51 Z " />
<glyph glyph-name="p" unicode="p" horiz-adv-x="565" d="M314 -12 Q286 -12 264 -6 Q242 0 224.5 9.5 Q207 19 194.5 30.5 Q182 42 173 54 L133 -173 L58 -203 L184 511 L254 511 L246 465 Q268 486 302.5 504.5 Q337 523 391 523 Q428 523 458.5 508 Q489 493 510.5 465 Q532 437 543.5 398 Q555 359 555 311 Q555 236 535 176 Q515 116 481 74 Q447 32 403.5 10 Q360 -12 314 -12 Z M310 51 Q349 51 380.5 69.5 Q412 88 434.5 122 Q457 156 469.5 202 Q482 248 482 304 Q482 376 455.5 418 Q429 460 374 460 Q326 460 290 438 Q254 416 231 381 L186 130 Q207 93 237.5 72 Q268 51 310 51 Z " />
<glyph glyph-name="q" unicode="q" horiz-adv-x="563" d="M266 -12 Q188 -12 143.5 41 Q99 94 99 188 Q99 260 117.5 321.5 Q136 383 169.5 428 Q203 473 249.5 498 Q296 523 353 523 Q406 523 437 503 Q468 483 480 465 L488 511 L558 511 L438 -170 L363 -200 L407 52 Q378 23 344.5 5.5 Q311 -12 266 -12 Z M280 51 Q303 51 323.5 59 Q344 67 362 79 Q380 91 394.5 105.5 Q409 120 421 132 L465 381 Q451 423 420 441.5 Q389 460 352 460 Q313 460 280 439 Q247 418 222.5 382 Q198 346 184.5 297.5 Q171 249 171 194 Q171 127 198.5 89 Q226 51 280 51 Z " />
<glyph glyph-name="r" unicode="r" horiz-adv-x="393" d="M95 0 L185 511 L255 511 L242 439 Q277 484 316 503.5 Q355 523 387 523 Q426 523 447 502 L425 434 Q416 440 402 446.5 Q388 453 364 453 Q347 453 325 445 Q303 437 281.5 418 Q260 399 242 367.5 Q224 336 216 289 L165 0 L95 0 Z " />
<glyph glyph-name="s" unicode="s" horiz-adv-x="466" d="M415 407 Q399 427 372 444 Q345 461 300 461 Q257 461 228.5 440 Q200 419 200 384 Q200 359 217 343 Q234 327 259.5 313.5 Q285 300 314.5 287 Q344 274 369.5 254.5 Q395 235 412 207 Q429 179 429 136 Q429 69 379.5 28.5 Q330 -12 248 -12 Q188 -12 146.5 13.5 Q105 39 80 77 L133 119 Q151 91 181.5 70.5 Q212 50 250 50 Q295 50 327.5 72 Q360 94 360 137 Q360 164 343.5 182.5 Q327 201 301.5 215.5 Q276 230 247 243 Q218 256 192.5 274.5 Q167 293 150.5 318 Q134 343 134 382 Q134 415 147 441 Q160 467 182.5 485.5 Q205 504 235.5 513.5 Q266 523 301 523 Q360 523 400.5 502.5 Q441 482 464 445 L415 407 Z " />
<glyph glyph-name="t" unicode="t" horiz-adv-x="375" d="M270 448 L215 135 Q213 125 212 115.5 Q211 106 211 98 Q211 78 219.5 66 Q228 54 253 54 Q278 54 297 62.5 Q316 71 331 81 L310 8 Q289 -3 268.5 -7.5 Q248 -12 220 -12 Q176 -12 157 14 Q138 40 138 78 Q138 94 141 112 L200 448 L116 448 L127 511 L211 511 L243 692 L318 722 L281 511 L405 511 L394 448 L270 448 Z " />
<glyph glyph-name="u" unicode="u" horiz-adv-x="559" d="M395 0 L404 49 Q380 17 346.5 2.5 Q313 -12 271 -12 Q197 -12 159 28 Q121 68 121 146 Q121 163 123 180 Q125 197 128 217 L179 511 L249 511 L194 199 Q192 187 191 175.5 Q190 164 190 154 Q190 98 217 74.5 Q244 51 282 51 Q307 51 330.5 58 Q354 65 373.5 82 Q393 99 407.5 127 Q422 155 430 197 L485 511 L555 511 L465 0 L395 0 Z " />
<glyph glyph-name="v" unicode="v" horiz-adv-x="504" d="M280 0 L227 0 L137 511 L206 511 L263 163 Q265 147 268 131 Q270 121 271 112 Q277 121 281 131 Q285 139 289 147.5 Q293 156 297 163 L476 511 L548 511 L280 0 Z " />
<glyph glyph-name="w" unicode="w" horiz-adv-x="697" d="M534 0 L466 0 L422 342 Q421 347 420.5 354.5 Q420 362 419 368 Q418 375 417 382 Q413 373 409 365 Q406 358 402.5 350.5 Q399 343 397 339 L240 0 L173 0 L136 511 L203 511 L223 124 Q223 118 223.5 111.5 Q224 105 224 99 Q224 92 225 85 Q228 93 232 100 Q235 106 237.5 112.5 Q240 119 242 124 L413 511 L462 511 L502 124 Q503 116 503.5 109 Q504 102 505 97 Q506 91 506 85 Q508 91 511 98 Q513 104 515.5 110.5 Q518 117 521 124 L671 511 L741 511 L534 0 Z " />
<glyph glyph-name="x" unicode="x" horiz-adv-x="503" d="M260 264 L151 511 L227 511 L309 325 L458 511 L532 511 L335 266 L453 0 L377 0 L286 205 L122 0 L48 0 L260 264 Z " />
<glyph glyph-name="y" unicode="y" horiz-adv-x="512" d="M183 -194 L112 -194 L222 16 L129 511 L201 511 L261 140 Q262 133 263 126.5 Q264 120 265 115 Q266 109 267 103 Q266 103 273.5 116 Q281 129 287 140 L481 511 L557 511 L183 -194 Z " />
<glyph glyph-name="z" unicode="z" horiz-adv-x="500" d="M78 0 L86 43 L401 448 L176 448 L187 511 L508 511 L501 469 L182 63 L428 63 L417 0 L78 0 Z " />
<glyph glyph-name="braceleft" unicode="&#x7b;" horiz-adv-x="384" d="M307 -130 Q243 -124 202.5 -84.5 Q162 -45 162 36 Q162 65 168 100 L177 151 Q180 167 180 183 Q180 218 165 240.5 Q150 263 123 263 L119 263 L129 320 L133 320 Q166 320 191.5 351 Q217 382 226 433 L242 524 Q250 569 269.5 604 Q289 639 317 663 Q345 687 380 699.5 Q415 712 456 712 L445 653 Q388 651 354 611.5 Q320 572 307 500 L293 422 Q281 350 249 320.5 Q217 291 166 291 L165 287 Q179 286 193.5 281.5 Q208 277 220 265.5 Q232 254 239.5 234.5 Q247 215 247 183 Q247 159 241 125 L233 82 Q231 68 229.5 56 Q228 44 228 33 Q228 -16 250 -42.5 Q272 -69 317 -71 L307 -130 Z " />
<glyph glyph-name="bar" unicode="&#x7c;" horiz-adv-x="280" d="M71 -205 L249 805 L316 805 L138 -205 L71 -205 Z " />
<glyph glyph-name="braceright" unicode="&#x7d;" horiz-adv-x="384" d="M41 -71 Q98 -69 132 -29.5 Q166 10 179 82 L191 150 Q205 228 237.5 259.5 Q270 291 321 291 L322 295 Q286 302 262.5 323.5 Q239 345 239 395 Q239 419 245 454 L253 500 Q255 514 256.5 527 Q258 540 258 551 Q258 599 236 625 Q214 651 169 653 L180 712 Q250 707 287 668.5 Q324 630 324 544 Q324 526 322 506.5 Q320 487 316 465 L311 436 Q309 425 307.5 414 Q306 403 306 386 Q306 354 320 336.5 Q334 319 363 319 L367 319 L357 262 L353 262 Q320 262 295 232 Q270 202 261 151 L246 68 Q229 -29 176.5 -79.5 Q124 -130 31 -130 L41 -71 Z " />
<glyph glyph-name="asciitilde" unicode="&#x7e;" horiz-adv-x="655" d="M481 277 Q451 277 424.5 287 Q398 297 373.5 308.5 Q349 320 325 330 Q301 340 277 340 Q245 340 222 323 Q199 306 191 277 L153 277 Q157 302 167.5 325.5 Q178 349 195.5 367 Q213 385 237.5 396 Q262 407 295 407 Q325 407 352.5 397 Q380 387 404.5 375.5 Q429 364 452.5 354 Q476 344 499 344 Q531 344 554 361.5 Q577 379 585 407 L623 407 Q618 381 607.5 357.5 Q597 334 579.5 316 Q562 298 537.5 287.5 Q513 277 481 277 Z " />
<glyph glyph-name="Adieresis" unicode="&#xc4;" horiz-adv-x="657" d="M521 0 L492 181 L229 181 L138 0 L64 0 L420 700 L476 700 L589 0 L521 0 Z M439 523 Q437 536 434 556 Q431 576 430 586 Q426 576 417 556.5 Q408 537 401 523 L260 243 L483 243 L439 523 Z M385 796 Q368 796 357.5 807.5 Q347 819 347 836 Q347 859 363.5 874.5 Q380 890 401 890 Q418 890 428.5 879 Q439 868 439 851 Q439 828 423 812 Q407 796 385 796 Z M545 796 Q528 796 517 807.5 Q506 819 506 836 Q506 859 523.5 874.5 Q541 890 561 890 Q578 890 588.5 879 Q599 868 599 851 Q599 828 582.5 812 Q566 796 545 796 Z " />
<glyph glyph-name="Aring" unicode="&#xc5;" horiz-adv-x="657" d="M521 0 L492 181 L229 181 L138 0 L64 0 L393 647 Q374 659 362.5 682 Q351 705 351 731 Q351 758 362 781 Q373 804 391.5 821.5 Q410 839 433.5 849 Q457 859 481 859 Q522 859 548.5 831.5 Q575 804 575 764 Q575 723 548.5 690.5 Q522 658 486 643 L589 0 L521 0 Z M439 523 Q437 536 434 556 Q431 576 430 586 Q426 576 417 556.5 Q408 537 401 523 L260 243 L483 243 L439 523 Z M451 687 Q477 687 497 708 Q517 729 517 759 Q517 779 504.5 793 Q492 807 472 807 Q448 807 428 787 Q408 767 408 738 Q408 717 420 702 Q432 687 451 687 Z " />
<glyph glyph-name="Ccedilla" unicode="&#xc7;" horiz-adv-x="639" d="M300 -234 Q272 -234 252.5 -226.5 Q233 -219 220 -206 L270 -176 Q274 -184 281 -185 Q288 -186 302 -186 Q325 -186 344 -169.5 Q363 -153 363 -130 Q363 -113 347.5 -100 Q332 -87 312 -87 Q287 -87 277 -92 L267 -77 L329 -11 Q275 -7 237 18 Q199 43 175.5 81 Q152 119 141 166.5 Q130 214 130 264 Q130 347 152 427.5 Q174 508 218 571 Q262 634 328 673 Q394 712 482 712 Q527 712 558.5 702.5 Q590 693 611.5 677 Q633 661 646 640.5 Q659 620 668 599 L601 563 Q593 580 582.5 595.5 Q572 611 557 623 Q542 635 521 642.5 Q500 650 471 650 Q401 650 350 614 Q299 578 266 522.5 Q233 467 217 400.5 Q201 334 201 273 Q201 230 210 190 Q219 150 239 119 Q259 88 290 69.5 Q321 51 365 51 Q426 51 466 75.5 Q506 100 537 140 L591 116 Q576 93 555 71 Q534 49 506.5 31.5 Q479 14 445 2.5 Q411 -9 371 -11 L339 -55 Q363 -55 380 -61 Q397 -67 407 -76.5 Q417 -86 421.5 -98.5 Q426 -111 426 -123 Q426 -147 416 -167.5 Q406 -188 388.5 -202.5 Q371 -217 348 -225.5 Q325 -234 300 -234 Z " />
<glyph glyph-name="Eacute" unicode="&#xc9;" horiz-adv-x="593" d="M110 0 L233 700 L617 700 L607 637 L292 637 L249 394 L462 394 L450 331 L238 331 L191 63 L527 63 L516 0 L110 0 Z M439 766 L370 766 L534 922 L636 922 L439 766 Z " />
<glyph glyph-name="Ntilde" unicode="&#xd1;" horiz-adv-x="697" d="M518 0 L310 498 Q308 502 303 513.5 Q298 525 293 538 Q287 553 280 570 Q277 553 274 538 Q272 525 270 513.5 Q268 502 267 497 L180 0 L110 0 L233 700 L298 700 L523 161 Q524 159 526.5 153 Q529 147 532 139 Q536 130 540 120 Q541 129 543 137 Q545 144 545.5 150.5 Q546 157 547 160 L642 700 L712 700 L589 0 L518 0 Z M559 792 Q533 792 513.5 800 Q494 808 476.5 817 Q459 826 443 834 Q427 842 409 842 Q391 842 376 830.5 Q361 819 356 796 L319 796 Q328 849 354.5 877.5 Q381 906 427 906 Q452 906 472 898 Q492 890 509 880.5 Q526 871 542 863 Q558 855 576 855 Q594 855 609.5 867 Q625 879 631 902 L667 902 Q657 849 630.5 820.5 Q604 792 559 792 Z " />
<glyph glyph-name="Odieresis" unicode="&#xd6;" horiz-adv-x="712" d="M362 51 Q432 51 484 87 Q536 123 569.5 179.5 Q603 236 619.5 304 Q636 372 636 436 Q636 475 627.5 513.5 Q619 552 599.5 582 Q580 612 549.5 630.5 Q519 649 475 649 Q404 649 352.5 613 Q301 577 267 520.5 Q233 464 216.5 396 Q200 328 200 264 Q200 222 209 183.5 Q218 145 237.5 115.5 Q257 86 287.5 68.5 Q318 51 362 51 Z M362 -12 Q300 -12 256 11 Q212 34 184 72 Q156 110 143 160 Q130 210 130 264 Q130 339 150.5 418 Q171 497 214 562.5 Q257 628 321.5 670 Q386 712 475 712 Q538 712 582 688 Q626 664 653.5 625 Q681 586 693.5 536.5 Q706 487 706 436 Q706 361 685.5 282 Q665 203 622.5 137.5 Q580 72 515 30 Q450 -12 362 -12 Z M417 796 Q400 796 389.5 807.5 Q379 819 379 836 Q379 859 395.5 874.5 Q412 890 433 890 Q450 890 460.5 879 Q471 868 471 851 Q471 828 455 812 Q439 796 417 796 Z M577 796 Q560 796 549 807.5 Q538 819 538 836 Q538 859 555.5 874.5 Q573 890 593 890 Q610 890 620.5 879 Q631 868 631 851 Q631 828 614.5 812 Q598 796 577 796 Z " />
<glyph glyph-name="Udieresis" unicode="&#xdc;" horiz-adv-x="674" d="M349 -12 Q304 -12 266 0 Q228 12 201 36.5 Q174 61 158.5 99 Q143 137 143 189 Q143 206 144.5 226 Q146 246 150 267 L226 700 L296 700 L219 261 Q213 223 213 192 Q213 150 224.5 122.5 Q236 95 255 79.5 Q274 64 299 57.5 Q324 51 351 51 Q383 51 413.5 60 Q444 69 469.5 92.5 Q495 116 515 156.5 Q535 197 546 260 L623 700 L693 700 L616 260 Q590 114 524.5 51 Q459 -12 349 -12 Z M396 796 Q379 796 368.5 807.5 Q358 819 358 836 Q358 859 374.5 874.5 Q391 890 412 890 Q429 890 439.5 879 Q450 868 450 851 Q450 828 434 812 Q418 796 396 796 Z M556 796 Q539 796 528 807.5 Q517 819 517 836 Q517 859 534.5 874.5 Q552 890 572 890 Q589 890 599.5 879 Q610 868 610 851 Q610 828 593.5 812 Q577 796 556 796 Z " />
<glyph glyph-name="aacute" unicode="&#xe1;" horiz-adv-x="532" d="M379 0 L386 42 Q362 22 325 5 Q288 -12 239 -12 Q170 -12 131 28.5 Q92 69 92 135 Q92 187 110.5 224.5 Q129 262 158.5 285 Q188 308 225.5 319 Q263 330 301 330 Q349 330 380.5 317.5 Q412 305 430 292 L438 337 Q443 362 443 380 Q443 404 435.5 420 Q428 436 416.5 445.5 Q405 455 390 458.5 Q375 462 360 462 Q339 462 316.5 457 Q294 452 273 444 Q252 436 232.5 426.5 Q213 417 198 407 L189 467 Q222 487 268 505 Q314 523 365 523 Q390 523 415.5 516.5 Q441 510 462 494 Q483 478 496 452.5 Q509 427 509 388 Q509 368 504 340 L444 0 L379 0 Z M251 49 Q295 49 335.5 72.5 Q376 96 401 124 L418 225 Q403 237 372.5 253 Q342 269 300 269 Q272 269 246.5 262 Q221 255 201 239.5 Q181 224 169 200 Q157 176 157 142 Q157 102 180.5 75.5 Q204 49 251 49 Z M389 576 L320 576 L484 732 L586 732 L389 576 Z " />
<glyph glyph-name="agrave" unicode="&#xe0;" horiz-adv-x="532" d="M379 0 L386 42 Q362 22 325 5 Q288 -12 239 -12 Q170 -12 131 28.5 Q92 69 92 135 Q92 187 110.5 224.5 Q129 262 158.5 285 Q188 308 225.5 319 Q263 330 301 330 Q349 330 380.5 317.5 Q412 305 430 292 L438 337 Q443 362 443 380 Q443 404 435.5 420 Q428 436 416.5 445.5 Q405 455 390 458.5 Q375 462 360 462 Q339 462 316.5 457 Q294 452 273 444 Q252 436 232.5 426.5 Q213 417 198 407 L189 467 Q222 487 268 505 Q314 523 365 523 Q390 523 415.5 516.5 Q441 510 462 494 Q483 478 496 452.5 Q509 427 509 388 Q509 368 504 340 L444 0 L379 0 Z M251 49 Q295 49 335.5 72.5 Q376 96 401 124 L418 225 Q403 237 372.5 253 Q342 269 300 269 Q272 269 246.5 262 Q221 255 201 239.5 Q181 224 169 200 Q157 176 157 142 Q157 102 180.5 75.5 Q204 49 251 49 Z M402 576 L258 732 L361 732 L470 576 L402 576 Z " />
<glyph glyph-name="acircumflex" unicode="&#xe2;" horiz-adv-x="532" d="M379 0 L386 42 Q362 22 325 5 Q288 -12 239 -12 Q170 -12 131 28.5 Q92 69 92 135 Q92 187 110.5 224.5 Q129 262 158.5 285 Q188 308 225.5 319 Q263 330 301 330 Q349 330 380.5 317.5 Q412 305 430 292 L438 337 Q443 362 443 380 Q443 404 435.5 420 Q428 436 416.5 445.5 Q405 455 390 458.5 Q375 462 360 462 Q339 462 316.5 457 Q294 452 273 444 Q252 436 232.5 426.5 Q213 417 198 407 L189 467 Q222 487 268 505 Q314 523 365 523 Q390 523 415.5 516.5 Q441 510 462 494 Q483 478 496 452.5 Q509 427 509 388 Q509 368 504 340 L444 0 L379 0 Z M251 49 Q295 49 335.5 72.5 Q376 96 401 124 L418 225 Q403 237 372.5 253 Q342 269 300 269 Q272 269 246.5 262 Q221 255 201 239.5 Q181 224 169 200 Q157 176 157 142 Q157 102 180.5 75.5 Q204 49 251 49 Z M481 576 L387 677 L258 576 L196 576 L358 732 L435 732 L544 576 L481 576 Z " />
<glyph glyph-name="adieresis" unicode="&#xe4;" horiz-adv-x="532" d="M379 0 L386 42 Q362 22 325 5 Q288 -12 239 -12 Q170 -12 131 28.5 Q92 69 92 135 Q92 187 110.5 224.5 Q129 262 158.5 285 Q188 308 225.5 319 Q263 330 301 330 Q349 330 380.5 317.5 Q412 305 430 292 L438 337 Q443 362 443 380 Q443 404 435.5 420 Q428 436 416.5 445.5 Q405 455 390 458.5 Q375 462 360 462 Q339 462 316.5 457 Q294 452 273 444 Q252 436 232.5 426.5 Q213 417 198 407 L189 467 Q222 487 268 505 Q314 523 365 523 Q390 523 415.5 516.5 Q441 510 462 494 Q483 478 496 452.5 Q509 427 509 388 Q509 368 504 340 L444 0 L379 0 Z M251 49 Q295 49 335.5 72.5 Q376 96 401 124 L418 225 Q403 237 372.5 253 Q342 269 300 269 Q272 269 246.5 262 Q221 255 201 239.5 Q181 224 169 200 Q157 176 157 142 Q157 102 180.5 75.5 Q204 49 251 49 Z M305 616 Q288 616 277.5 627.5 Q267 639 267 656 Q267 679 283.5 694.5 Q300 710 321 710 Q338 710 348.5 699 Q359 688 359 671 Q359 648 343 632 Q327 616 305 616 Z M465 616 Q448 616 437 627.5 Q426 639 426 656 Q426 679 443.5 694.5 Q461 710 481 710 Q498 710 508.5 699 Q519 688 519 671 Q519 648 502.5 632 Q486 616 465 616 Z " />
<glyph glyph-name="atilde" unicode="&#xe3;" horiz-adv-x="532" d="M379 0 L386 42 Q362 22 325 5 Q288 -12 239 -12 Q170 -12 131 28.5 Q92 69 92 135 Q92 187 110.5 224.5 Q129 262 158.5 285 Q188 308 225.5 319 Q263 330 301 330 Q349 330 380.5 317.5 Q412 305 430 292 L438 337 Q443 362 443 380 Q443 404 435.5 420 Q428 436 416.5 445.5 Q405 455 390 458.5 Q375 462 360 462 Q339 462 316.5 457 Q294 452 273 444 Q252 436 232.5 426.5 Q213 417 198 407 L189 467 Q222 487 268 505 Q314 523 365 523 Q390 523 415.5 516.5 Q441 510 462 494 Q483 478 496 452.5 Q509 427 509 388 Q509 368 504 340 L444 0 L379 0 Z M251 49 Q295 49 335.5 72.5 Q376 96 401 124 L418 225 Q403 237 372.5 253 Q342 269 300 269 Q272 269 246.5 262 Q221 255 201 239.5 Q181 224 169 200 Q157 176 157 142 Q157 102 180.5 75.5 Q204 49 251 49 Z M444 602 Q418 602 398.5 610 Q379 618 361.5 627 Q344 636 328 644 Q312 652 294 652 Q276 652 261 640.5 Q246 629 241 606 L204 606 Q213 659 239.5 687.5 Q266 716 312 716 Q337 716 357 708 Q377 700 394 690.5 Q411 681 427 673 Q443 665 461 665 Q479 665 494.5 677 Q510 689 516 712 L552 712 Q542 659 515.5 630.5 Q489 602 444 602 Z " />
<glyph glyph-name="aring" unicode="&#xe5;" horiz-adv-x="532" d="M379 0 L386 42 Q362 22 325 5 Q288 -12 239 -12 Q170 -12 131 28.5 Q92 69 92 135 Q92 187 110.5 224.5 Q129 262 158.5 285 Q188 308 225.5 319 Q263 330 301 330 Q349 330 380.5 317.5 Q412 305 430 292 L438 337 Q443 362 443 380 Q443 404 435.5 420 Q428 436 416.5 445.5 Q405 455 390 458.5 Q375 462 360 462 Q339 462 316.5 457 Q294 452 273 444 Q252 436 232.5 426.5 Q213 417 198 407 L189 467 Q222 487 268 505 Q314 523 365 523 Q390 523 415.5 516.5 Q441 510 462 494 Q483 478 496 452.5 Q509 427 509 388 Q509 368 504 340 L444 0 L379 0 Z M251 49 Q295 49 335.5 72.5 Q376 96 401 124 L418 225 Q403 237 372.5 253 Q342 269 300 269 Q272 269 246.5 262 Q221 255 201 239.5 Q181 224 169 200 Q157 176 157 142 Q157 102 180.5 75.5 Q204 49 251 49 Z M369 575 Q349 575 332 583 Q315 591 303 604 Q291 617 284 634.5 Q277 652 277 672 Q277 699 288 722 Q299 745 317.5 762.5 Q336 780 360 790 Q384 800 409 800 Q449 800 475 772.5 Q501 745 501 705 Q501 679 489.5 655.5 Q478 632 459.5 614 Q441 596 417 585.5 Q393 575 369 575 Z M378 627 Q405 627 425 647.5 Q445 668 445 700 Q445 722 432.5 735 Q420 748 400 748 Q375 748 354.5 729 Q334 710 334 678 Q334 656 346.5 641.5 Q359 627 378 627 Z " />
<glyph glyph-name="ccedilla" unicode="&#xe7;" horiz-adv-x="483" d="M213 -234 Q186 -234 166 -226.5 Q146 -219 134 -206 L183 -176 Q188 -184 195 -185 Q202 -186 216 -186 Q227 -186 238 -181.5 Q249 -177 258 -169.5 Q267 -162 272.5 -152 Q278 -142 278 -130 Q278 -113 262 -100 Q246 -87 226 -87 Q201 -87 190 -92 L181 -77 L242 -11 Q174 -6 137 45.5 Q100 97 100 185 Q100 261 118.5 323.5 Q137 386 171 430.5 Q205 475 252.5 499 Q300 523 357 523 Q412 523 448.5 495.5 Q485 468 495 416 L430 391 Q424 420 404 440 Q384 460 343 460 Q295 460 262 437 Q229 414 208.5 376.5 Q188 339 179 290 Q170 241 170 189 Q170 126 194 88.5 Q218 51 269 51 Q309 51 340.5 72 Q372 93 392 129 L448 105 Q424 57 381.5 27.5 Q339 -2 286 -10 L252 -55 Q276 -55 292.5 -61 Q309 -67 319 -76.5 Q329 -86 333.5 -98.5 Q338 -111 338 -123 Q338 -147 328 -167.5 Q318 -188 301 -202.5 Q284 -217 261.5 -225.5 Q239 -234 213 -234 Z " />
<glyph glyph-name="eacute" unicode="&#xe9;" horiz-adv-x="528" d="M279 -12 Q237 -12 203.5 4.5 Q170 21 147 50 Q124 79 112 118 Q100 157 100 202 Q100 271 119 330 Q138 389 172 431.5 Q206 474 252 498.5 Q298 523 352 523 Q390 523 422 512.5 Q454 502 477 479 Q500 456 513 420.5 Q526 385 526 334 Q526 301 520 275.5 Q514 250 507 227 L172 227 L172 213 Q172 138 200.5 95.5 Q229 53 287 53 Q314 53 343.5 62 Q373 71 405 93 L436 42 Q403 17 363 2.5 Q323 -12 279 -12 Z M352 460 Q315 460 286 445 Q257 430 236 406 Q215 382 201.5 351.5 Q188 321 181 290 L451 290 Q458 317 458 340 Q458 376 448.5 399 Q439 422 424 435.5 Q409 449 390 454.5 Q371 460 352 460 Z M366 576 L297 576 L461 732 L563 732 L366 576 Z " />
<glyph glyph-name="egrave" unicode="&#xe8;" horiz-adv-x="528" d="M279 -12 Q237 -12 203.5 4.5 Q170 21 147 50 Q124 79 112 118 Q100 157 100 202 Q100 271 119 330 Q138 389 172 431.5 Q206 474 252 498.5 Q298 523 352 523 Q390 523 422 512.5 Q454 502 477 479 Q500 456 513 420.5 Q526 385 526 334 Q526 301 520 275.5 Q514 250 507 227 L172 227 L172 213 Q172 138 200.5 95.5 Q229 53 287 53 Q314 53 343.5 62 Q373 71 405 93 L436 42 Q403 17 363 2.5 Q323 -12 279 -12 Z M352 460 Q315 460 286 445 Q257 430 236 406 Q215 382 201.5 351.5 Q188 321 181 290 L451 290 Q458 317 458 340 Q458 376 448.5 399 Q439 422 424 435.5 Q409 449 390 454.5 Q371 460 352 460 Z M370 576 L226 732 L329 732 L438 576 L370 576 Z " />
<glyph glyph-name="ecircumflex" unicode="&#xea;" horiz-adv-x="528" d="M279 -12 Q237 -12 203.5 4.5 Q170 21 147 50 Q124 79 112 118 Q100 157 100 202 Q100 271 119 330 Q138 389 172 431.5 Q206 474 252 498.5 Q298 523 352 523 Q390 523 422 512.5 Q454 502 477 479 Q500 456 513 420.5 Q526 385 526 334 Q526 301 520 275.5 Q514 250 507 227 L172 227 L172 213 Q172 138 200.5 95.5 Q229 53 287 53 Q314 53 343.5 62 Q373 71 405 93 L436 42 Q403 17 363 2.5 Q323 -12 279 -12 Z M352 460 Q315 460 286 445 Q257 430 236 406 Q215 382 201.5 351.5 Q188 321 181 290 L451 290 Q458 317 458 340 Q458 376 448.5 399 Q439 422 424 435.5 Q409 449 390 454.5 Q371 460 352 460 Z M486 576 L392 677 L263 576 L201 576 L363 732 L440 732 L549 576 L486 576 Z " />
<glyph glyph-name="edieresis" unicode="&#xeb;" horiz-adv-x="528" d="M279 -12 Q237 -12 203.5 4.5 Q170 21 147 50 Q124 79 112 118 Q100 157 100 202 Q100 271 119 330 Q138 389 172 431.5 Q206 474 252 498.5 Q298 523 352 523 Q390 523 422 512.5 Q454 502 477 479 Q500 456 513 420.5 Q526 385 526 334 Q526 301 520 275.5 Q514 250 507 227 L172 227 L172 213 Q172 138 200.5 95.5 Q229 53 287 53 Q314 53 343.5 62 Q373 71 405 93 L436 42 Q403 17 363 2.5 Q323 -12 279 -12 Z M352 460 Q315 460 286 445 Q257 430 236 406 Q215 382 201.5 351.5 Q188 321 181 290 L451 290 Q458 317 458 340 Q458 376 448.5 399 Q439 422 424 435.5 Q409 449 390 454.5 Q371 460 352 460 Z M301 616 Q284 616 273.5 627.5 Q263 639 263 656 Q263 679 279.5 694.5 Q296 710 317 710 Q334 710 344.5 699 Q355 688 355 671 Q355 648 339 632 Q323 616 301 616 Z M461 616 Q444 616 433 627.5 Q422 639 422 656 Q422 679 439.5 694.5 Q457 710 477 710 Q494 710 504.5 699 Q515 688 515 671 Q515 648 498.5 632 Q482 616 461 616 Z " />
<glyph glyph-name="iacute" unicode="&#xed;" horiz-adv-x="261" d="M95 0 L185 511 L252 511 L162 0 L95 0 Z M231 576 L162 576 L326 732 L428 732 L231 576 Z " />
<glyph glyph-name="igrave" unicode="&#xec;" horiz-adv-x="261" d="M95 0 L185 511 L252 511 L162 0 L95 0 Z M218 576 L74 732 L177 732 L286 576 L218 576 Z " />
<glyph glyph-name="icircumflex" unicode="&#xee;" horiz-adv-x="261" d="M95 0 L185 511 L252 511 L162 0 L95 0 Z M338 576 L244 677 L115 576 L53 576 L215 732 L292 732 L401 576 L338 576 Z " />
<glyph glyph-name="idieresis" unicode="&#xef;" horiz-adv-x="261" d="M95 0 L185 511 L252 511 L162 0 L95 0 Z M157 616 Q140 616 129.5 627.5 Q119 639 119 656 Q119 679 135.5 694.5 Q152 710 173 710 Q190 710 200.5 699 Q211 688 211 671 Q211 648 195 632 Q179 616 157 616 Z M317 616 Q300 616 289 627.5 Q278 639 278 656 Q278 679 295.5 694.5 Q313 710 333 710 Q350 710 360.5 699 Q371 688 371 671 Q371 648 354.5 632 Q338 616 317 616 Z " />
<glyph glyph-name="ntilde" unicode="&#xf1;" horiz-adv-x="560" d="M400 0 L454 308 Q459 336 459 355 Q459 405 435.5 432.5 Q412 460 366 460 Q340 460 315.5 449 Q291 438 271.5 418.5 Q252 399 238.5 371 Q225 343 219 310 L165 0 L95 0 L185 511 L255 511 L245 455 Q273 488 308.5 505.5 Q344 523 382 523 Q451 523 489 483 Q527 443 527 360 Q527 343 525.5 323.5 Q524 304 520 283 L470 0 L400 0 Z M456 602 Q430 602 410.5 610 Q391 618 373.5 627 Q356 636 340 644 Q324 652 306 652 Q288 652 273 640.5 Q258 629 253 606 L216 606 Q225 659 251.5 687.5 Q278 716 324 716 Q349 716 369 708 Q389 700 406 690.5 Q423 681 439 673 Q455 665 473 665 Q491 665 506.5 677 Q522 689 528 712 L564 712 Q554 659 527.5 630.5 Q501 602 456 602 Z " />
<glyph glyph-name="oacute" unicode="&#xf3;" horiz-adv-x="547" d="M279 -12 Q231 -12 196.5 5.5 Q162 23 140 51.5 Q118 80 108 117.5 Q98 155 98 196 Q98 251 114 309 Q130 367 162 414.5 Q194 462 242.5 492.5 Q291 523 357 523 Q406 523 440.5 505 Q475 487 497 457.5 Q519 428 528.5 390.5 Q538 353 538 315 Q538 260 522.5 202 Q507 144 475 96.5 Q443 49 394 18.5 Q345 -12 279 -12 Z M279 51 Q327 51 363 75.5 Q399 100 422 138.5 Q445 177 456.5 224 Q468 271 468 315 Q468 342 462 368 Q456 394 443 414.5 Q430 435 408.5 447.5 Q387 460 357 460 Q309 460 273.5 435.5 Q238 411 214.5 372.5 Q191 334 179.5 287.5 Q168 241 168 196 Q168 168 174 142 Q180 116 193.5 95.5 Q207 75 228 63 Q249 51 279 51 Z M384 576 L315 576 L479 732 L581 732 L384 576 Z " />
<glyph glyph-name="ograve" unicode="&#xf2;" horiz-adv-x="547" d="M279 -12 Q231 -12 196.5 5.5 Q162 23 140 51.5 Q118 80 108 117.5 Q98 155 98 196 Q98 251 114 309 Q130 367 162 414.5 Q194 462 242.5 492.5 Q291 523 357 523 Q406 523 440.5 505 Q475 487 497 457.5 Q519 428 528.5 390.5 Q538 353 538 315 Q538 260 522.5 202 Q507 144 475 96.5 Q443 49 394 18.5 Q345 -12 279 -12 Z M279 51 Q327 51 363 75.5 Q399 100 422 138.5 Q445 177 456.5 224 Q468 271 468 315 Q468 342 462 368 Q456 394 443 414.5 Q430 435 408.5 447.5 Q387 460 357 460 Q309 460 273.5 435.5 Q238 411 214.5 372.5 Q191 334 179.5 287.5 Q168 241 168 196 Q168 168 174 142 Q180 116 193.5 95.5 Q207 75 228 63 Q249 51 279 51 Z M369 576 L225 732 L328 732 L437 576 L369 576 Z " />
<glyph glyph-name="ocircumflex" unicode="&#xf4;" horiz-adv-x="547" d="M279 -12 Q231 -12 196.5 5.5 Q162 23 140 51.5 Q118 80 108 117.5 Q98 155 98 196 Q98 251 114 309 Q130 367 162 414.5 Q194 462 242.5 492.5 Q291 523 357 523 Q406 523 440.5 505 Q475 487 497 457.5 Q519 428 528.5 390.5 Q538 353 538 315 Q538 260 522.5 202 Q507 144 475 96.5 Q443 49 394 18.5 Q345 -12 279 -12 Z M279 51 Q327 51 363 75.5 Q399 100 422 138.5 Q445 177 456.5 224 Q468 271 468 315 Q468 342 462 368 Q456 394 443 414.5 Q430 435 408.5 447.5 Q387 460 357 460 Q309 460 273.5 435.5 Q238 411 214.5 372.5 Q191 334 179.5 287.5 Q168 241 168 196 Q168 168 174 142 Q180 116 193.5 95.5 Q207 75 228 63 Q249 51 279 51 Z M494 576 L400 677 L271 576 L209 576 L371 732 L448 732 L557 576 L494 576 Z " />
<glyph glyph-name="odieresis" unicode="&#xf6;" horiz-adv-x="547" d="M279 -12 Q231 -12 196.5 5.5 Q162 23 140 51.5 Q118 80 108 117.5 Q98 155 98 196 Q98 251 114 309 Q130 367 162 414.5 Q194 462 242.5 492.5 Q291 523 357 523 Q406 523 440.5 505 Q475 487 497 457.5 Q519 428 528.5 390.5 Q538 353 538 315 Q538 260 522.5 202 Q507 144 475 96.5 Q443 49 394 18.5 Q345 -12 279 -12 Z M279 51 Q327 51 363 75.5 Q399 100 422 138.5 Q445 177 456.5 224 Q468 271 468 315 Q468 342 462 368 Q456 394 443 414.5 Q430 435 408.5 447.5 Q387 460 357 460 Q309 460 273.5 435.5 Q238 411 214.5 372.5 Q191 334 179.5 287.5 Q168 241 168 196 Q168 168 174 142 Q180 116 193.5 95.5 Q207 75 228 63 Q249 51 279 51 Z M300 616 Q283 616 272.5 627.5 Q262 639 262 656 Q262 679 278.5 694.5 Q295 710 316 710 Q333 710 343.5 699 Q354 688 354 671 Q354 648 338 632 Q322 616 300 616 Z M460 616 Q443 616 432 627.5 Q421 639 421 656 Q421 679 438.5 694.5 Q456 710 476 710 Q493 710 503.5 699 Q514 688 514 671 Q514 648 497.5 632 Q481 616 460 616 Z " />
<glyph glyph-name="otilde" unicode="&#xf5;" horiz-adv-x="547" d="M279 -12 Q231 -12 196.5 5.5 Q162 23 140 51.5 Q118 80 108 117.5 Q98 155 98 196 Q98 251 114 309 Q130 367 162 414.5 Q194 462 242.5 492.5 Q291 523 357 523 Q406 523 440.5 505 Q475 487 497 457.5 Q519 428 528.5 390.5 Q538 353 538 315 Q538 260 522.5 202 Q507 144 475 96.5 Q443 49 394 18.5 Q345 -12 279 -12 Z M279 51 Q327 51 363 75.5 Q399 100 422 138.5 Q445 177 456.5 224 Q468 271 468 315 Q468 342 462 368 Q456 394 443 414.5 Q430 435 408.5 447.5 Q387 460 357 460 Q309 460 273.5 435.5 Q238 411 214.5 372.5 Q191 334 179.5 287.5 Q168 241 168 196 Q168 168 174 142 Q180 116 193.5 95.5 Q207 75 228 63 Q249 51 279 51 Z M453 602 Q427 602 407.5 610 Q388 618 370.5 627 Q353 636 337 644 Q321 652 303 652 Q285 652 270 640.5 Q255 629 250 606 L213 606 Q222 659 248.5 687.5 Q275 716 321 716 Q346 716 366 708 Q386 700 403 690.5 Q420 681 436 673 Q452 665 470 665 Q488 665 503.5 677 Q519 689 525 712 L561 712 Q551 659 524.5 630.5 Q498 602 453 602 Z " />
<glyph glyph-name="uacute" unicode="&#xfa;" horiz-adv-x="559" d="M395 0 L404 49 Q380 17 346.5 2.5 Q313 -12 271 -12 Q197 -12 159 28 Q121 68 121 146 Q121 163 123 180 Q125 197 128 217 L179 511 L249 511 L194 199 Q192 187 191 175.5 Q190 164 190 154 Q190 98 217 74.5 Q244 51 282 51 Q307 51 330.5 58 Q354 65 373.5 82 Q393 99 407.5 127 Q422 155 430 197 L485 511 L555 511 L465 0 L395 0 Z M374 576 L305 576 L469 732 L571 732 L374 576 Z " />
<glyph glyph-name="ugrave" unicode="&#xf9;" horiz-adv-x="559" d="M395 0 L404 49 Q380 17 346.5 2.5 Q313 -12 271 -12 Q197 -12 159 28 Q121 68 121 146 Q121 163 123 180 Q125 197 128 217 L179 511 L249 511 L194 199 Q192 187 191 175.5 Q190 164 190 154 Q190 98 217 74.5 Q244 51 282 51 Q307 51 330.5 58 Q354 65 373.5 82 Q393 99 407.5 127 Q422 155 430 197 L485 511 L555 511 L465 0 L395 0 Z M387 576 L243 732 L346 732 L455 576 L387 576 Z " />
<glyph glyph-name="ucircumflex" unicode="&#xfb;" horiz-adv-x="559" d="M395 0 L404 49 Q380 17 346.5 2.5 Q313 -12 271 -12 Q197 -12 159 28 Q121 68 121 146 Q121 163 123 180 Q125 197 128 217 L179 511 L249 511 L194 199 Q192 187 191 175.5 Q190 164 190 154 Q190 98 217 74.5 Q244 51 282 51 Q307 51 330.5 58 Q354 65 373.5 82 Q393 99 407.5 127 Q422 155 430 197 L485 511 L555 511 L465 0 L395 0 Z M489 576 L395 677 L266 576 L204 576 L366 732 L443 732 L552 576 L489 576 Z " />
<glyph glyph-name="udieresis" unicode="&#xfc;" horiz-adv-x="559" d="M395 0 L404 49 Q380 17 346.5 2.5 Q313 -12 271 -12 Q197 -12 159 28 Q121 68 121 146 Q121 163 123 180 Q125 197 128 217 L179 511 L249 511 L194 199 Q192 187 191 175.5 Q190 164 190 154 Q190 98 217 74.5 Q244 51 282 51 Q307 51 330.5 58 Q354 65 373.5 82 Q393 99 407.5 127 Q422 155 430 197 L485 511 L555 511 L465 0 L395 0 Z M308 616 Q291 616 280.5 627.5 Q270 639 270 656 Q270 679 286.5 694.5 Q303 710 324 710 Q341 710 351.5 699 Q362 688 362 671 Q362 648 346 632 Q330 616 308 616 Z M468 616 Q451 616 440 627.5 Q429 639 429 656 Q429 679 446.5 694.5 Q464 710 484 710 Q501 710 511.5 699 Q522 688 522 671 Q522 648 505.5 632 Q489 616 468 616 Z " />
<glyph glyph-name="dagger" unicode="&#x2020;" horiz-adv-x="559" d="M382 457 L373 338 L258 -141 L253 -141 L304 338 L335 457 L198 438 L164 438 L176 506 L210 506 L338 486 L348 587 L370 712 L439 712 L417 587 L389 486 L525 506 L560 506 L548 438 L513 438 L382 457 Z " />
<glyph glyph-name="degree" unicode="&#xb0;" horiz-adv-x="422" d="M304 519 Q326 519 345.5 528 Q365 537 380 552.5 Q395 568 403.5 589.5 Q412 611 412 636 Q412 671 392 693.5 Q372 716 338 716 Q317 716 297 707.5 Q277 699 261.5 683.5 Q246 668 236.5 647 Q227 626 227 601 Q227 566 248.5 542.5 Q270 519 304 519 Z M291 450 Q261 450 236 461 Q211 472 193 490.5 Q175 509 165 534.5 Q155 560 155 590 Q155 632 171 667 Q187 702 214 728 Q241 754 276.5 768.5 Q312 783 350 783 Q380 783 405 772.5 Q430 762 447.5 743.5 Q465 725 475 699.5 Q485 674 485 644 Q485 603 469 567.5 Q453 532 426 506 Q399 480 364 465 Q329 450 291 450 Z " />
<glyph glyph-name="cent" unicode="&#xa2;" horiz-adv-x="512" d="M229 -12 L246 85 Q189 98 158 150 Q127 202 127 281 Q127 418 184.5 504 Q242 590 339 612 L357 712 L424 712 L406 615 Q455 610 486 585 Q517 560 526 508 L456 482 Q450 511 430.5 529.5 Q411 548 376 548 Q331 548 297.5 528.5 Q264 509 242 474 Q220 439 209 391.5 Q198 344 198 289 Q198 226 223.5 188.5 Q249 151 302 151 Q338 151 368 171.5 Q398 192 414 228 L475 204 Q423 92 313 83 L296 -12 L229 -12 Z " />
<glyph glyph-name="sterling" unicode="&#xa3;" horiz-adv-x="601" d="M102 0 L116 79 Q144 91 167 116 Q190 141 206.5 172 Q223 203 232 236.5 Q241 270 243 300 L150 300 L160 357 L238 357 Q230 381 222 408 Q214 435 214 473 Q214 521 230.5 564.5 Q247 608 279 641 Q311 674 359 693 Q407 712 470 712 Q533 712 575 694 Q617 676 648 647 L611 583 Q602 592 590 602.5 Q578 613 560 622.5 Q542 632 517 638.5 Q492 645 458 645 Q415 645 383.5 631.5 Q352 618 331 595.5 Q310 573 299.5 543.5 Q289 514 289 483 Q289 440 299.5 411 Q310 382 314 357 L471 357 L461 300 L317 300 Q312 231 272.5 172.5 Q233 114 172 65 L558 65 L547 0 L102 0 Z " />
<glyph glyph-name="section" unicode="&#xa7;" horiz-adv-x="542" d="M502 590 Q496 598 487.5 607 Q479 616 464.5 624 Q450 632 429.5 637 Q409 642 381 642 Q323 642 289 619.5 Q255 597 255 553 Q255 534 266 519 Q277 504 296 491 Q315 478 341 466.5 Q367 455 396 443 Q420 432 443 421 Q466 410 483 394 Q500 378 510.5 357 Q521 336 521 306 Q521 261 502.5 227 Q484 193 440 173 Q461 154 470.5 127.5 Q480 101 480 73 Q480 27 464 -9 Q448 -45 418 -69.5 Q388 -94 346.5 -107 Q305 -120 254 -120 Q217 -120 186.5 -112.5 Q156 -105 132.5 -93 Q109 -81 92.5 -65.5 Q76 -50 67 -34 L126 13 Q131 4 141.5 -7 Q152 -18 169 -28 Q186 -38 209 -45 Q232 -52 263 -52 Q328 -52 367.5 -29.5 Q407 -7 407 50 Q407 77 391 96 Q375 115 351 129 Q327 143 300 154 Q273 165 252 176 Q229 187 209 198 Q189 209 173 223.5 Q157 238 148 256.5 Q139 275 139 300 Q139 350 166.5 383 Q194 416 233 429 Q207 445 194.5 473.5 Q182 502 182 536 Q182 579 200 612 Q218 645 247.5 667.5 Q277 690 315 701 Q353 712 394 712 Q431 712 459 704.5 Q487 697 507 685.5 Q527 674 540.5 660 Q554 646 562 633 L502 590 Z M449 287 Q449 307 437.5 322.5 Q426 338 406.5 350 Q387 362 361.5 373 Q336 384 307 395 Q263 388 238 366.5 Q213 345 213 313 Q213 292 228.5 276.5 Q244 261 268.5 249 Q293 237 323 226.5 Q353 216 383 204 Q413 216 431 236 Q449 256 449 287 Z " />
<glyph glyph-name="bullet" unicode="&#x2022;" horiz-adv-x="421" d="M248 223 Q200 223 171.5 254 Q143 285 143 330 Q143 360 155 387.5 Q167 415 187.5 435 Q208 455 235.5 467 Q263 479 293 479 Q317 479 337.5 470.5 Q358 462 372 447 Q386 432 394 412 Q402 392 402 370 Q402 339 389.5 312.5 Q377 286 355.5 266 Q334 246 306 234.5 Q278 223 248 223 Z " />
<glyph glyph-name="paragraph" unicode="&#xb6;" horiz-adv-x="629" d="M435 -134 L570 630 L472 630 L331 -168 L258 -200 L342 278 Q281 278 239.5 294.5 Q198 311 173 336.5 Q148 362 137.5 394 Q127 426 127 457 Q127 498 140.5 541 Q154 584 184.5 619.5 Q215 655 264.5 677.5 Q314 700 386 700 L650 700 L509 -102 L435 -134 Z " />
<glyph glyph-name="germandbls" unicode="&#xdf;" horiz-adv-x="565" d="M171 478 Q182 542 207 586.5 Q232 631 264 659 Q296 687 332.5 699.5 Q369 712 403 712 Q477 712 520.5 670 Q564 628 564 561 Q564 503 534 453.5 Q504 404 443 385 Q493 366 517 327 Q541 288 541 240 Q541 185 521.5 139 Q502 93 469 59.5 Q436 26 392 7 Q348 -12 298 -12 Q276 -12 256.5 -7.5 Q237 -3 225 4 L265 58 Q284 51 310 51 Q336 51 364 61.5 Q392 72 415.5 94.5 Q439 117 454.5 150.5 Q470 184 470 231 Q470 253 463 274 Q456 295 440.5 311.5 Q425 328 399 338 Q373 348 336 348 L332 348 L343 411 L347 411 Q412 411 452.5 444.5 Q493 478 493 553 Q493 597 467.5 623 Q442 649 391 649 Q366 649 342 639.5 Q318 630 298 609.5 Q278 589 263 557.5 Q248 526 240 481 L126 -167 L51 -203 L171 478 Z " />
<glyph glyph-name="registered" unicode="&#xae;" horiz-adv-x="860" d="M488 -12 Q411 -12 345 15.5 Q279 43 230 92 Q181 141 153.5 207 Q126 273 126 350 Q126 427 153.5 493 Q181 559 230 608 Q279 657 345 684.5 Q411 712 488 712 Q565 712 631 684.5 Q697 657 746 608 Q795 559 822.5 493 Q850 427 850 350 Q850 273 822.5 207 Q795 141 746 92 Q697 43 631 15.5 Q565 -12 488 -12 Z M488 42 Q554 42 609.5 65.5 Q665 89 705.5 130.5 Q746 172 768.5 228 Q791 284 791 350 Q791 416 768.5 472 Q746 528 705.5 569 Q665 610 609.5 633.5 Q554 657 488 657 Q422 657 366.5 633.5 Q311 610 270 569 Q229 528 206 472 Q183 416 183 350 Q183 284 206 228 Q229 172 270 130.5 Q311 89 366.5 65.5 Q422 42 488 42 Z M336 137 L336 560 L543 560 Q574 560 596.5 548 Q619 536 632.5 518 Q646 500 652.5 478.5 Q659 457 659 438 Q659 393 631.5 355.5 Q604 318 554 310 L656 137 L584 137 L489 309 L401 309 L401 137 L336 137 Z M545 365 Q568 365 582 386 Q596 407 596 436 Q596 446 593 457.5 Q590 469 583.5 478.5 Q577 488 567.5 494 Q558 500 545 500 L401 500 L401 365 L545 365 Z " />
<glyph glyph-name="copyright" unicode="&#xa9;" horiz-adv-x="860" d="M653 259 Q636 200 594 169 Q552 138 494 138 Q409 138 360.5 193.5 Q312 249 312 355 Q312 455 361.5 514 Q411 573 502 573 Q556 573 593.5 544 Q631 515 650 463 L587 437 Q577 466 554 487 Q531 508 493 508 Q460 508 438 497.5 Q416 487 403.5 467 Q391 447 385.5 419 Q380 391 380 355 Q380 277 404.5 239 Q429 201 496 201 Q531 201 559 219 Q587 237 596 282 L653 259 Z M488 -12 Q411 -12 345 15.5 Q279 43 230 92 Q181 141 153.5 207 Q126 273 126 350 Q126 427 153.5 493 Q181 559 230 608 Q279 657 345 684.5 Q411 712 488 712 Q565 712 631 684.5 Q697 657 746 608 Q795 559 822.5 493 Q850 427 850 350 Q850 273 822.5 207 Q795 141 746 92 Q697 43 631 15.5 Q565 -12 488 -12 Z M488 42 Q554 42 609.5 65.5 Q665 89 705.5 130.5 Q746 172 768.5 228 Q791 284 791 350 Q791 416 768.5 472 Q746 528 705.5 569 Q665 610 609.5 633.5 Q554 657 488 657 Q422 657 366.5 633.5 Q311 610 270 569 Q229 528 206 472 Q183 416 183 350 Q183 284 206 228 Q229 172 270 130.5 Q311 89 366.5 65.5 Q422 42 488 42 Z " />
<glyph glyph-name="trademark" unicode="&#x2122;" horiz-adv-x="776" d="M285 648 L285 278 L229 278 L229 648 L114 648 L114 700 L399 700 L399 648 L285 648 Z M724 278 L724 534 L715 507 L611 262 L506 507 L496 537 L496 278 L440 278 L440 700 L485 700 L601 422 L610 397 L619 422 L735 700 L780 700 L780 278 L724 278 Z " />
<glyph glyph-name="acute" unicode="&#xb4;" horiz-adv-x="343" d="M317 576 L248 576 L412 732 L514 732 L317 576 Z " />
<glyph glyph-name="dieresis" unicode="&#xa8;" horiz-adv-x="343" d="M241 616 Q224 616 213.5 627.5 Q203 639 203 656 Q203 679 219.5 694.5 Q236 710 257 710 Q274 710 284.5 699 Q295 688 295 671 Q295 648 279 632 Q263 616 241 616 Z M401 616 Q384 616 373 627.5 Q362 639 362 656 Q362 679 379.5 694.5 Q397 710 417 710 Q434 710 444.5 699 Q455 688 455 671 Q455 648 438.5 632 Q422 616 401 616 Z " />
<glyph glyph-name="notequal" unicode="&#x2260;" horiz-adv-x="655" d="M360 227 L310 123 L238 123 L288 227 L155 227 L155 299 L328 299 L373 386 L155 386 L155 458 L410 458 L456 546 L527 546 L481 458 L620 458 L620 386 L444 386 L398 299 L620 299 L620 227 L360 227 Z " />
<glyph glyph-name="AE" unicode="&#xc6;" horiz-adv-x="861" d="M434 0 L466 181 L217 181 L86 0 L2 0 L516 700 L885 700 L875 637 L616 637 L573 394 L740 394 L728 331 L562 331 L515 63 L795 63 L784 0 L434 0 Z M477 243 L547 642 Q539 630 528 614 Q517 598 506 583 L262 243 L477 243 Z " />
<glyph glyph-name="Oslash" unicode="&#xd8;" horiz-adv-x="712" d="M87 -12 L167 86 Q157 103 150 125 Q143 147 138.5 171 Q134 195 132 218.5 Q130 242 130 263 Q130 312 138.5 364.5 Q147 417 165 467 Q183 517 211.5 561.5 Q240 606 279 639.5 Q318 673 368.5 692.5 Q419 712 482 712 Q533 712 570 697.5 Q607 683 633 658 L678 712 L749 712 L669 614 Q679 597 686 575 Q693 553 697.5 529 Q702 505 704 480.5 Q706 456 706 435 Q706 362 686.5 283 Q667 204 625 138.5 Q583 73 516 30.5 Q449 -12 354 -12 Q303 -12 265 2.5 Q227 17 200 42 L156 -12 L87 -12 Z M200 267 Q200 254 201 238 Q202 222 204 205.5 Q206 189 209 174 Q212 159 217 148 L588 602 Q568 624 539 636.5 Q510 649 470 649 Q400 649 349 613 Q298 577 265 521 Q232 465 216 397.5 Q200 330 200 267 Z M365 51 Q436 51 487 87 Q538 123 571 178.5 Q604 234 620 301 Q636 368 636 430 Q636 443 635 459.5 Q634 476 631.5 492.5 Q629 509 625.5 524.5 Q622 540 617 552 L246 98 Q266 76 295 63.5 Q324 51 365 51 Z " />
<glyph glyph-name="infinity" unicode="&#x221e;" horiz-adv-x="996" d="M744 128 Q700 128 668 141 Q636 154 612.5 177 Q589 200 574 231.5 Q559 263 550 301 Q527 265 501 233.5 Q475 202 444 178.5 Q413 155 377 141.5 Q341 128 298 128 Q259 128 225.5 140.5 Q192 153 168 176.5 Q144 200 130.5 234.5 Q117 269 117 313 Q117 378 138.5 429 Q160 480 196 515.5 Q232 551 279.5 569.5 Q327 588 379 588 Q422 588 453 574 Q484 560 506.5 536 Q529 512 544 480 Q559 448 570 412 Q593 450 619 482.5 Q645 515 675.5 538.5 Q706 562 742.5 575 Q779 588 823 588 Q863 588 896.5 575.5 Q930 563 954 539 Q978 515 991.5 480.5 Q1005 446 1005 402 Q1005 337 983.5 286 Q962 235 926 200 Q890 165 842.5 146.5 Q795 128 744 128 Z M747 191 Q785 191 819.5 204.5 Q854 218 879.5 244 Q905 270 920 306.5 Q935 343 935 390 Q935 453 899.5 489 Q864 525 806 525 Q773 525 742 510.5 Q711 496 683.5 472.5 Q656 449 631 418.5 Q606 388 585 357 Q595 325 609 295 Q623 265 642.5 242 Q662 219 688 205 Q714 191 747 191 Z M316 191 Q350 191 380.5 205 Q411 219 438 242 Q465 265 489 295 Q513 325 534 357 Q524 388 510.5 418.5 Q497 449 478.5 472.5 Q460 496 434.5 510.5 Q409 525 375 525 Q337 525 303 511 Q269 497 243 471 Q217 445 201.5 407.5 Q186 370 186 324 Q186 262 222 226.5 Q258 191 316 191 Z " />
<glyph glyph-name="plusminus" unicode="&#xb1;" horiz-adv-x="655" d="M423 373 L423 205 L351 205 L351 373 L153 373 L153 440 L351 440 L351 608 L423 608 L423 440 L623 440 L623 373 L423 373 Z M153 0 L153 67 L623 67 L623 0 L153 0 Z " />
<glyph glyph-name="lessequal" unicode="&#x2264;" horiz-adv-x="655" d="M620 192 L152 361 L152 431 L620 602 L620 522 L242 397 L620 270 L620 192 Z M152 0 L152 67 L622 67 L622 0 L152 0 Z " />
<glyph glyph-name="greaterequal" unicode="&#x2265;" horiz-adv-x="655" d="M152 192 L152 270 L530 397 L152 522 L152 602 L620 431 L620 361 L152 192 Z M152 0 L152 67 L622 67 L622 0 L152 0 Z " />
<glyph glyph-name="yen" unicode="&#xa5;" horiz-adv-x="557" d="M363 309 L512 309 L502 249 L356 249 L344 183 L490 183 L480 123 L334 123 L312 0 L245 0 L267 123 L109 123 L119 183 L277 183 L289 249 L131 249 L141 309 L301 309 L162 700 L237 700 L343 376 L571 700 L640 700 L363 309 Z " />
<glyph glyph-name="mu" unicode="&#xb5;" horiz-adv-x="564" d="M399 0 L410 58 Q380 17 342.5 2.5 Q305 -12 272 -12 Q243 -12 214 2 Q185 16 172 50 L133 -173 L58 -203 L184 511 L254 511 L199 201 Q197 187 195 174.5 Q193 162 193 142 Q193 127 197.5 110.5 Q202 94 212.5 81 Q223 68 241 59.5 Q259 51 287 51 Q310 51 333.5 59 Q357 67 377 84 Q397 101 412 129 Q427 157 434 197 L489 511 L557 511 L467 0 L399 0 Z " />
<glyph glyph-name="partialdiff" unicode="&#x2202;" horiz-adv-x="593" d="M271 -12 Q182 -12 132.5 38.5 Q83 89 83 175 Q83 233 103.5 281 Q124 329 159 363.5 Q194 398 241 417 Q288 436 341 436 Q410 436 454.5 404.5 Q499 373 511 325 Q515 339 521 362.5 Q527 386 527 431 Q527 484 512.5 523.5 Q498 563 472.5 590 Q447 617 413.5 631 Q380 645 343 647 L370 712 Q485 698 539.5 624.5 Q594 551 594 436 Q594 362 575.5 282.5 Q557 203 517.5 137.5 Q478 72 417 30 Q356 -12 271 -12 Z M278 55 Q318 55 353 69.5 Q388 84 414 109 Q440 134 454.5 168 Q469 202 469 241 Q469 304 431.5 336.5 Q394 369 333 369 Q296 369 263 355 Q230 341 205.5 316 Q181 291 166.5 256 Q152 221 152 179 Q152 125 184.5 90 Q217 55 278 55 Z " />
<glyph glyph-name="summation" unicode="&#x2211;" horiz-adv-x="626" d="M43 -142 L53 -83 L379 288 L195 639 L205 698 L671 698 L659 630 L282 630 L463 290 L144 -73 L554 -73 L542 -142 L43 -142 Z " />
<glyph glyph-name="product" unicode="&#x220f;" horiz-adv-x="714" d="M509 -140 L645 630 L291 630 L155 -140 L86 -140 L234 700 L726 700 L578 -140 L509 -140 Z " />
<glyph glyph-name="pi" unicode="&#x3c0;" horiz-adv-x="673" d="M516 -12 Q475 -12 450 11.5 Q425 35 425 78 Q425 86 425.5 99.5 Q426 113 430 134 L483 436 L323 436 L312 373 Q300 303 284.5 241 Q269 179 247 128.5 Q225 78 194 40 Q163 2 120 -20 L70 27 Q95 41 119 60 Q143 79 165 112.5 Q187 146 206 198 Q225 250 239 330 L258 436 L162 436 L175 511 L689 511 L676 436 L553 436 L500 135 Q498 125 497 115.5 Q496 106 496 98 Q496 78 504.5 66 Q513 54 538 54 Q563 54 582 62.5 Q601 71 616 81 L595 8 Q555 -12 516 -12 Z " />
<glyph glyph-name="integral" unicode="&#x222b;" horiz-adv-x="441" d="M128 -140 Q95 -140 75.5 -133 Q56 -126 42 -118 L51 -66 Q64 -71 80.5 -75.5 Q97 -80 119 -80 Q137 -80 148.5 -75 Q160 -70 166.5 -61.5 Q173 -53 176.5 -42.5 Q180 -32 182 -21 L291 598 Q302 661 336 686.5 Q370 712 413 712 Q445 712 464.5 704.5 Q484 697 498 688 L489 636 Q475 641 459 646.5 Q443 652 422 652 Q404 652 392.5 646.5 Q381 641 374 632.5 Q367 624 363.5 613 Q360 602 358 591 L249 -26 Q243 -58 231.5 -80 Q220 -102 204 -115.5 Q188 -129 168.5 -134.5 Q149 -140 128 -140 Z " />
<glyph glyph-name="ordfeminine" unicode="&#xaa;" horiz-adv-x="465" d="M372 283 L378 314 Q356 298 323.5 285.5 Q291 273 256 273 Q202 273 165.5 304.5 Q129 336 129 390 Q129 433 146.5 464.5 Q164 496 191.5 516.5 Q219 537 252 546.5 Q285 556 316 556 Q340 556 368.5 549.5 Q397 543 417 533 L419 545 Q422 563 423 571.5 Q424 580 424 588 Q424 622 403 636.5 Q382 651 340 651 Q303 651 273.5 640.5 Q244 630 221 614 L215 673 Q240 690 277.5 701 Q315 712 360 712 Q381 712 404 707 Q427 702 446 690 Q465 678 477.5 657.5 Q490 637 490 605 Q490 594 488.5 581 Q487 568 483 546 L437 283 L372 283 Z M273 332 Q288 332 304 336 Q320 340 335.5 346.5 Q351 353 365 361.5 Q379 370 389 378 L405 470 Q387 481 360 488.5 Q333 496 312 496 Q292 496 272 490.5 Q252 485 236 473.5 Q220 462 210 444 Q200 426 200 400 Q200 369 219 350.5 Q238 332 273 332 Z " />
<glyph glyph-name="ordmasculine" unicode="&#xba;" horiz-adv-x="471" d="M283 272 Q213 272 174 317 Q135 362 135 440 Q135 502 152 552.5 Q169 603 199 638.5 Q229 674 270.5 693 Q312 712 361 712 Q433 712 471.5 666.5 Q510 621 510 543 Q510 480 493.5 430 Q477 380 447 345 Q417 310 375.5 291 Q334 272 283 272 Z M294 337 Q331 337 359 351.5 Q387 366 405.5 392.5 Q424 419 433 455.5 Q442 492 442 536 Q442 588 419 617.5 Q396 647 349 647 Q284 647 243.5 594.5 Q203 542 203 451 Q203 398 227 367.5 Q251 337 294 337 Z " />
<glyph glyph-name="ae" unicode="&#xe6;" horiz-adv-x="849" d="M600 -12 Q544 -12 502 18.5 Q460 49 442 102 Q397 40 343.5 14 Q290 -12 239 -12 Q172 -12 132 27.5 Q92 67 92 135 Q92 185 109 222 Q126 259 155.5 283 Q185 307 223.5 318.5 Q262 330 305 330 Q336 330 368.5 321 Q401 312 430 292 L438 337 Q443 362 443 378 Q443 422 420.5 442 Q398 462 360 462 Q339 462 316.5 457 Q294 452 273 444 Q252 436 232.5 426.5 Q213 417 198 407 L189 467 Q222 487 268.5 505 Q315 523 365 523 Q419 523 453.5 498 Q488 473 499 434 Q518 459 540 476.5 Q562 494 585 504 Q608 514 630.5 518.5 Q653 523 673 523 Q760 523 803.5 474.5 Q847 426 847 336 Q847 297 840 270.5 Q833 244 828 227 L494 227 Q493 220 493 217.5 Q493 215 493 209 Q493 134 522.5 93.5 Q552 53 608 53 Q634 53 664 62 Q694 71 726 93 L757 42 Q728 20 688 4 Q648 -12 600 -12 Z M251 49 Q273 49 294.5 56 Q316 63 335.5 74.5 Q355 86 372 100.5 Q389 115 402 130 L418 225 Q398 242 367 255.5 Q336 269 300 269 Q271 269 245.5 262 Q220 255 200 239.5 Q180 224 168.5 200 Q157 176 157 142 Q157 102 180.5 75.5 Q204 49 251 49 Z M673 460 Q645 460 618.5 449.5 Q592 439 569.5 418 Q547 397 529.5 365 Q512 333 502 290 L772 290 Q776 306 777.5 320.5 Q779 335 779 348 Q779 405 748.5 432.5 Q718 460 673 460 Z " />
<glyph glyph-name="oslash" unicode="&#xf8;" horiz-adv-x="547" d="M507 442 Q523 414 530.5 381 Q538 348 538 315 Q538 260 522.5 202 Q507 144 475 96.5 Q443 49 394 18.5 Q345 -12 279 -12 Q240 -12 210.5 -1 Q181 10 159 30 L124 -12 L61 -12 L129 68 Q113 95 105.5 128 Q98 161 98 196 Q98 251 114 309 Q130 367 162 414.5 Q194 462 242.5 492.5 Q291 523 357 523 Q396 523 425 511.5 Q454 500 476 480 L512 523 L575 523 L507 442 Z M168 196 Q168 178 170.5 160.5 Q173 143 178 127 L432 428 Q418 443 400 451.5 Q382 460 357 460 Q309 460 273.5 435.5 Q238 411 214.5 372.5 Q191 334 179.5 287.5 Q168 241 168 196 Z M279 51 Q327 51 363 75.5 Q399 100 422 138.5 Q445 177 456.5 224 Q468 271 468 315 Q468 332 465.5 349.5 Q463 367 457 383 L204 82 Q217 68 235.5 59.5 Q254 51 279 51 Z " />
<glyph glyph-name="questiondown" unicode="&#xbf;" horiz-adv-x="526" d="M227 -200 Q184 -200 151.5 -188 Q119 -176 97.5 -155 Q76 -134 65 -106 Q54 -78 54 -46 Q54 6 69.5 41 Q85 76 109 101 Q133 126 162 146.5 Q191 167 217.5 189 Q244 211 265 240 Q286 269 295 312 L297 322 L366 322 L364 312 Q354 262 332.5 228 Q311 194 284.5 168.5 Q258 143 229.5 123 Q201 103 178 81 Q155 59 140 31.5 Q125 4 125 -36 Q125 -77 153.5 -106 Q182 -135 239 -135 Q311 -135 358.5 -93.5 Q406 -52 420 24 L488 24 Q479 -26 455 -67.5 Q431 -109 396.5 -138.5 Q362 -168 318.5 -184 Q275 -200 227 -200 Z M347 397 Q324 397 310.5 413.5 Q297 430 297 451 Q297 464 303 477 Q309 490 319 500.5 Q329 511 342 517 Q355 523 369 523 Q393 523 406.5 506.5 Q420 490 420 469 Q420 455 414 442.5 Q408 430 398 419.5 Q388 409 375 403 Q362 397 347 397 Z " />
<glyph glyph-name="exclamdown" unicode="&#xa1;" horiz-adv-x="280" d="M68 -200 L105 14 L188 316 L199 316 L174 14 L137 -200 L68 -200 Z M209 397 Q186 397 172.5 413.5 Q159 430 159 451 Q159 464 165 477 Q171 490 181 500.5 Q191 511 204 517 Q217 523 231 523 Q254 523 268 506.5 Q282 490 282 469 Q282 455 276 442.5 Q270 430 260 419.5 Q250 409 237 403 Q224 397 209 397 Z " />
<glyph glyph-name="logicalnot" unicode="&#xac;" horiz-adv-x="655" d="M547 176 L547 396 L149 396 L149 463 L619 463 L619 176 L547 176 Z " />
<glyph glyph-name="radical" unicode="&#x221a;" horiz-adv-x="557" d="M626 700 L300 0 L231 0 L126 327 L193 327 L274 77 L555 700 L626 700 Z " />
<glyph glyph-name="florin" unicode="&#x192;" horiz-adv-x="374" d="M156 511 L235 511 L250 598 Q256 629 268.5 651 Q281 673 298 686.5 Q315 700 334.5 706 Q354 712 373 712 Q401 712 419 704.5 Q437 697 451 688 L441 627 Q428 635 412 641 Q396 647 374 647 Q357 647 346.5 642 Q336 637 330 628.5 Q324 620 321 609 Q318 598 316 587 L302 511 L420 511 L409 448 L291 448 L206 -32 Q197 -83 178 -117 Q159 -151 133.5 -171.5 Q108 -192 79 -201.5 Q50 -211 21 -213 L0 -158 Q36 -155 60 -146 Q84 -137 99.5 -124 Q115 -111 123 -94.5 Q131 -78 134 -60 L224 448 L145 448 L156 511 Z " />
<glyph glyph-name="approxequal" unicode="&#x2248;" horiz-adv-x="655" d="M496 367 Q465 367 435.5 377 Q406 387 378.5 398.5 Q351 410 324 420 Q297 430 272 430 Q239 430 217.5 412.5 Q196 395 194 367 L154 367 Q154 392 160.5 415.5 Q167 439 182 456.5 Q197 474 220.5 484.5 Q244 495 278 495 Q310 495 340 485 Q370 475 398 463.5 Q426 452 452 442 Q478 432 502 432 Q535 432 556.5 450 Q578 468 580 495 L620 495 Q620 469 613 446 Q606 423 591 405.5 Q576 388 552.5 377.5 Q529 367 496 367 Z M496 190 Q465 190 435.5 200 Q406 210 378.5 221.5 Q351 233 324 243 Q297 253 272 253 Q239 253 217.5 236 Q196 219 194 190 L154 190 Q154 215 160.5 238.5 Q167 262 182 280 Q197 298 220.5 309 Q244 320 278 320 Q310 320 340 310 Q370 300 398 288.5 Q426 277 452 267 Q478 257 502 257 Q535 257 556.5 274.5 Q578 292 580 320 L598 320 L620 320 Q620 294 613 270.5 Q606 247 591 229 Q576 211 552.5 200.5 Q529 190 496 190 Z " />
<glyph glyph-name="Delta" unicode="&#x2206;" horiz-adv-x="657" d="M64 0 L420 700 L476 700 L589 0 L64 0 Z M444 489 Q441 509 436.5 537 Q432 565 430 586 Q426 577 420 564 Q414 551 407.5 537.5 Q401 524 394.5 511 Q388 498 384 489 L171 65 L510 65 L444 489 Z " />
<glyph glyph-name="guillemotleft" unicode="&#xab;" horiz-adv-x="507" d="M200 0 L99 256 L290 511 L365 511 L174 253 L275 0 L200 0 Z M425 0 L391 0 L290 256 L481 511 L558 511 L367 253 L468 0 L425 0 Z " />
<glyph glyph-name="guillemotright" unicode="&#xbb;" horiz-adv-x="507" d="M230 0 L421 256 L320 511 L397 511 L498 256 L307 0 L230 0 Z M39 0 L230 256 L129 511 L204 511 L305 256 L114 0 L39 0 Z " />
<glyph glyph-name="ellipsis" unicode="&#x2026;" horiz-adv-x="808" d="M148 -12 Q134 -12 124.5 -2 Q115 8 115 21 Q115 39 130 53 Q145 67 162 67 Q177 67 186.5 56.5 Q196 46 196 32 Q196 15 181.5 1.5 Q167 -12 148 -12 Z M401 -12 Q386 -12 377 -2 Q368 8 368 21 Q368 39 382 53 Q396 67 415 67 Q430 67 440 56.5 Q450 46 450 32 Q450 14 435 1 Q420 -12 401 -12 Z M654 -12 Q640 -12 630.5 -2 Q621 8 621 21 Q621 39 636 53 Q651 67 668 67 Q683 67 692.5 56.5 Q702 46 702 32 Q702 15 687.5 1.5 Q673 -12 654 -12 Z " />
<glyph glyph-name="Agrave" unicode="&#xc0;" horiz-adv-x="657" d="M521 0 L492 181 L229 181 L138 0 L64 0 L420 700 L476 700 L589 0 L521 0 Z M439 523 Q437 536 434 556 Q431 576 430 586 Q426 576 417 556.5 Q408 537 401 523 L260 243 L483 243 L439 523 Z M454 766 L310 922 L413 922 L522 766 L454 766 Z " />
<glyph glyph-name="Atilde" unicode="&#xc3;" horiz-adv-x="657" d="M521 0 L492 181 L229 181 L138 0 L64 0 L420 700 L476 700 L589 0 L521 0 Z M439 523 Q437 536 434 556 Q431 576 430 586 Q426 576 417 556.5 Q408 537 401 523 L260 243 L483 243 L439 523 Z M540 792 Q514 792 494.5 800 Q475 808 457.5 817 Q440 826 424 834 Q408 842 390 842 Q372 842 357 830.5 Q342 819 337 796 L300 796 Q309 849 335.5 877.5 Q362 906 408 906 Q433 906 453 898 Q473 890 490 880.5 Q507 871 523 863 Q539 855 557 855 Q575 855 590.5 867 Q606 879 612 902 L648 902 Q638 849 611.5 820.5 Q585 792 540 792 Z " />
<glyph glyph-name="Otilde" unicode="&#xd5;" horiz-adv-x="712" d="M362 51 Q432 51 484 87 Q536 123 569.5 179.5 Q603 236 619.5 304 Q636 372 636 436 Q636 475 627.5 513.5 Q619 552 599.5 582 Q580 612 549.5 630.5 Q519 649 475 649 Q404 649 352.5 613 Q301 577 267 520.5 Q233 464 216.5 396 Q200 328 200 264 Q200 222 209 183.5 Q218 145 237.5 115.5 Q257 86 287.5 68.5 Q318 51 362 51 Z M362 -12 Q300 -12 256 11 Q212 34 184 72 Q156 110 143 160 Q130 210 130 264 Q130 339 150.5 418 Q171 497 214 562.5 Q257 628 321.5 670 Q386 712 475 712 Q538 712 582 688 Q626 664 653.5 625 Q681 586 693.5 536.5 Q706 487 706 436 Q706 361 685.5 282 Q665 203 622.5 137.5 Q580 72 515 30 Q450 -12 362 -12 Z M575 792 Q549 792 529.5 800 Q510 808 492.5 817 Q475 826 459 834 Q443 842 425 842 Q407 842 392 830.5 Q377 819 372 796 L335 796 Q344 849 370.5 877.5 Q397 906 443 906 Q468 906 488 898 Q508 890 525 880.5 Q542 871 558 863 Q574 855 592 855 Q610 855 625.5 867 Q641 879 647 902 L683 902 Q673 849 646.5 820.5 Q620 792 575 792 Z " />
<glyph glyph-name="OE" unicode="&#x152;" horiz-adv-x="894" d="M443 0 Q402 -12 354 -12 Q291 -12 248.5 12 Q206 36 179.5 75 Q153 114 141.5 163.5 Q130 213 130 263 Q130 338 149.5 417.5 Q169 497 211.5 562.5 Q254 628 320.5 670 Q387 712 482 712 Q508 712 528 709 Q548 706 565 700 L918 700 L907 633 L646 633 L604 395 L781 395 L769 329 L592 329 L546 67 L828 67 L816 0 L443 0 Z M365 51 Q397 51 426 60 Q455 69 482 85 L575 615 Q533 649 470 649 Q400 649 349 613 Q298 577 265 521 Q232 465 216.5 398 Q201 331 201 268 Q201 226 209.5 187 Q218 148 237.5 118 Q257 88 288.5 69.5 Q320 51 365 51 Z " />
<glyph glyph-name="oe" unicode="&#x153;" horiz-adv-x="879" d="M525 213 Q525 138 553.5 95.5 Q582 53 640 53 Q667 53 696.5 62 Q726 71 758 93 L789 42 Q756 17 716 2.5 Q676 -12 632 -12 Q575 -12 534.5 17 Q494 46 474 94 Q442 46 393.5 17 Q345 -12 279 -12 Q231 -12 196.5 5.5 Q162 23 140 51.5 Q118 80 108 117.5 Q98 155 98 196 Q98 251 114 309 Q130 367 162 414.5 Q194 462 242.5 492.5 Q291 523 357 523 Q421 523 459.5 494 Q498 465 517 421 Q551 469 599.5 496 Q648 523 705 523 Q743 523 775 512.5 Q807 502 830 479 Q853 456 866 420.5 Q879 385 879 334 Q879 301 873 275.5 Q867 250 860 227 L525 227 L525 213 Z M279 51 Q327 51 363 75.5 Q399 100 422 138.5 Q445 177 456.5 224 Q468 271 468 315 Q468 342 462 368 Q456 394 443 414.5 Q430 435 408.5 447.5 Q387 460 357 460 Q309 460 273.5 435.5 Q238 411 214.5 372.5 Q191 334 179.5 287.5 Q168 241 168 196 Q168 168 174 142 Q180 116 193.5 95.5 Q207 75 228 63 Q249 51 279 51 Z M804 290 Q811 317 811 340 Q811 376 801.5 399 Q792 422 777 435.5 Q762 449 743 454.5 Q724 460 705 460 Q668 460 639 445 Q610 430 589 406 Q568 382 554.5 351.5 Q541 321 534 290 L804 290 Z " />
<glyph glyph-name="endash" unicode="&#x2013;" horiz-adv-x="525" d="M118 257 L129 317 L508 317 L497 257 L118 257 Z " />
<glyph glyph-name="emdash" unicode="&#x2014;" horiz-adv-x="602" d="M65 257 L76 317 L638 317 L627 257 L65 257 Z " />
<glyph glyph-name="quotedblleft" unicode="&#x201c;" horiz-adv-x="426" d="M282 707 Q274 701 264 690.5 Q254 680 244 665 Q234 650 225.5 631 Q217 612 213 590 Q241 590 257.5 575 Q274 560 274 537 Q274 503 252 482.5 Q230 462 202 462 Q180 462 163 478 Q146 494 146 527 Q146 587 180.5 635 Q215 683 265 712 L282 707 Z M471 707 Q463 701 452.5 690.5 Q442 680 432 665 Q422 650 414 631 Q406 612 402 590 Q429 590 445.5 575 Q462 560 462 537 Q462 503 440 482.5 Q418 462 390 462 Q369 462 351.5 478 Q334 494 334 528 Q334 557 343.5 584 Q353 611 369 635 Q385 659 406.5 678.5 Q428 698 453 712 L471 707 Z " />
<glyph glyph-name="quotedblright" unicode="&#x201d;" horiz-adv-x="426" d="M163 467 Q170 473 180.5 483.5 Q191 494 201 509 Q211 524 219.5 543 Q228 562 232 584 Q204 584 188 599 Q172 614 172 637 Q172 671 193.5 691.5 Q215 712 243 712 Q265 712 282 696 Q299 680 299 647 Q299 587 264.5 539 Q230 491 180 462 L163 467 Z M351 467 Q358 473 368.5 483.5 Q379 494 389 509 Q399 524 407.5 543 Q416 562 420 584 Q393 584 376.5 599 Q360 614 360 637 Q360 671 382 691.5 Q404 712 431 712 Q453 712 470 696 Q487 680 487 647 Q487 587 452.5 539 Q418 491 368 462 L351 467 Z " />
<glyph glyph-name="quoteleft" unicode="&#x2018;" horiz-adv-x="238" d="M282 707 Q274 701 264 690.5 Q254 680 244 665 Q234 650 225.5 631 Q217 612 213 590 Q241 590 257.5 575 Q274 560 274 537 Q274 503 252 482.5 Q230 462 202 462 Q180 462 163 478 Q146 494 146 527 Q146 587 180.5 635 Q215 683 265 712 L282 707 Z " />
<glyph glyph-name="quoteright" unicode="&#x2019;" horiz-adv-x="238" d="M163 467 Q170 473 180.5 483.5 Q191 494 201 509 Q211 524 219.5 543 Q228 562 232 584 Q204 584 188 599 Q172 614 172 637 Q172 671 193.5 691.5 Q215 712 243 712 Q265 712 282 696 Q299 680 299 647 Q299 587 264.5 539 Q230 491 180 462 L163 467 Z " />
<glyph glyph-name="divide" unicode="&#xf7;" horiz-adv-x="655" d="M149 308 L149 376 L619 376 L619 308 L149 308 Z M381 501 Q360 501 346.5 515 Q333 529 333 549 Q333 568 346.5 583 Q360 598 381 598 Q403 598 417.5 583 Q432 568 432 549 Q432 529 417.5 515 Q403 501 381 501 Z M381 88 Q360 88 346.5 101 Q333 114 333 134 Q333 154 346.5 168.5 Q360 183 381 183 Q403 183 417.5 168.5 Q432 154 432 134 Q432 114 417.5 101 Q403 88 381 88 Z " />
<glyph glyph-name="lozenge" unicode="&#x25ca;" horiz-adv-x="616" d="M271 -12 L141 350 L399 712 L472 712 L602 350 L344 -12 L271 -12 Z M426 665 L204 350 L315 35 L538 350 L426 665 Z " />
<glyph glyph-name="ydieresis" unicode="&#xff;" horiz-adv-x="512" d="M183 -194 L112 -194 L222 16 L129 511 L201 511 L261 140 Q262 133 263 126.5 Q264 120 265 115 Q266 109 267 103 Q266 103 273.5 116 Q281 129 287 140 L481 511 L557 511 L183 -194 Z M277 616 Q260 616 249.5 627.5 Q239 639 239 656 Q239 679 255.5 694.5 Q272 710 293 710 Q310 710 320.5 699 Q331 688 331 671 Q331 648 315 632 Q299 616 277 616 Z M437 616 Q420 616 409 627.5 Q398 639 398 656 Q398 679 415.5 694.5 Q433 710 453 710 Q470 710 480.5 699 Q491 688 491 671 Q491 648 474.5 632 Q458 616 437 616 Z " />
<glyph glyph-name="Ydieresis" unicode="&#x178;" horiz-adv-x="613" d="M271 0 L320 280 L177 700 L248 700 L363 340 L610 700 L682 700 L386 273 L338 0 L271 0 Z M363 796 Q346 796 335.5 807.5 Q325 819 325 836 Q325 859 341.5 874.5 Q358 890 379 890 Q396 890 406.5 879 Q417 868 417 851 Q417 828 401 812 Q385 796 363 796 Z M523 796 Q506 796 495 807.5 Q484 819 484 836 Q484 859 501.5 874.5 Q519 890 539 890 Q556 890 566.5 879 Q577 868 577 851 Q577 828 560.5 812 Q544 796 523 796 Z " />
<glyph glyph-name="fraction" unicode="&#x2044;" horiz-adv-x="333" d="M-98 -12 L489 712 L555 712 L-32 -12 L-98 -12 Z " />
<glyph glyph-name="Euro" unicode="&#x20ac;" horiz-adv-x="673" d="M493 396 L256 396 Q249 370 244 344.5 Q239 319 237 290 L432 290 L399 232 L235 232 Q235 147 265.5 100 Q296 53 370 53 Q417 53 455 73 Q493 93 522 125 L570 90 Q555 71 534 53 Q513 35 486.5 20.5 Q460 6 428.5 -3 Q397 -12 361 -12 Q304 -12 266.5 6.5 Q229 25 206 58 Q183 91 173 135.5 Q163 180 162 232 L93 232 L129 290 L165 290 Q167 315 171.5 341 Q176 367 183 396 L122 396 L158 454 L201 454 Q219 505 246 551.5 Q273 598 309.5 633.5 Q346 669 393.5 690.5 Q441 712 499 712 Q544 712 581.5 700 Q619 688 648 665 L611 601 Q591 622 559.5 634.5 Q528 647 486 647 Q444 647 410.5 631 Q377 615 351 588.5 Q325 562 306 527 Q287 492 274 454 L526 454 L493 396 Z " />
<glyph glyph-name="guilsinglleft" unicode="&#x2039;" horiz-adv-x="314" d="M200 0 L99 256 L290 511 L365 511 L174 256 L275 0 L200 0 Z " />
<glyph glyph-name="guilsinglright" unicode="&#x203a;" horiz-adv-x="314" d="M39 0 L230 256 L129 511 L204 511 L305 256 L114 0 L39 0 Z " />
<glyph glyph-name="fi" unicode="&#xfb01;" horiz-adv-x="546" d="M261 448 L182 0 L112 0 L191 448 L106 448 L117 511 L202 511 L218 603 Q229 666 262.5 689 Q296 712 341 712 Q369 712 387 704.5 Q405 697 420 688 L410 627 Q395 635 379 641 Q363 647 343 647 Q327 647 317 641.5 Q307 636 300.5 627.5 Q294 619 291 608 Q288 597 286 587 L272 511 L389 511 L378 448 L261 448 Z M382 0 L472 511 L542 511 L452 0 L382 0 Z M526 616 Q509 616 498 627 Q487 638 487 655 Q487 678 503 694 Q519 710 539 710 Q558 710 568.5 699 Q579 688 579 671 Q579 648 562.5 632 Q546 616 526 616 Z " />
<glyph glyph-name="fl" unicode="&#xfb02;" horiz-adv-x="554" d="M261 448 L182 0 L112 0 L191 448 L106 448 L117 511 L202 511 L218 603 Q229 666 262.5 689 Q296 712 341 712 Q369 712 387 704.5 Q405 697 420 688 L410 627 Q395 635 379 641 Q363 647 343 647 Q327 647 317 641.5 Q307 636 300.5 627.5 Q294 619 291 608 Q288 597 286 587 L272 511 L389 511 L378 448 L261 448 Z M383 0 L505 692 L580 722 L453 0 L383 0 Z " />
<glyph glyph-name="daggerdbl" unicode="&#x2021;" horiz-adv-x="559" d="M459 133 L494 133 L482 63 L447 63 L318 85 L310 -16 L288 -141 L219 -141 L241 -16 L267 85 L132 63 L98 63 L110 133 L144 133 L274 112 L285 232 L304 338 L335 457 L198 438 L164 438 L176 506 L210 506 L338 486 L348 587 L370 712 L439 712 L417 587 L389 486 L525 506 L560 506 L548 438 L513 438 L382 457 L373 338 L354 232 L321 112 L459 133 Z " />
<glyph glyph-name="periodcentered" unicode="&#xb7;" horiz-adv-x="238" d="M169 286 Q146 286 133 302.5 Q120 319 120 340 Q120 353 126 366 Q132 379 142 389.5 Q152 400 165 406 Q178 412 192 412 Q215 412 228.5 395.5 Q242 379 242 358 Q242 344 236 331.5 Q230 319 220 308.5 Q210 298 197 292 Q184 286 169 286 Z " />
<glyph glyph-name="quotesinglbase" unicode="&#x201a;" horiz-adv-x="238" d="M57 -136 Q64 -130 74.5 -119.5 Q85 -109 95 -94 Q105 -79 113.5 -60 Q122 -41 126 -19 Q98 -19 82 -4 Q66 11 66 34 Q66 68 87.5 88.5 Q109 109 136 109 Q159 109 175.5 93 Q192 77 192 44 Q192 -16 158 -64 Q124 -112 74 -141 L57 -136 Z " />
<glyph glyph-name="quotedblbase" unicode="&#x201e;" horiz-adv-x="426" d="M57 -136 Q64 -130 74.5 -119.5 Q85 -109 95 -94 Q105 -79 113.5 -60 Q122 -41 126 -19 Q98 -19 82 -4 Q66 11 66 34 Q66 68 87.5 88.5 Q109 109 136 109 Q159 109 175.5 93 Q192 77 192 44 Q192 -16 158 -64 Q124 -112 74 -141 L57 -136 Z M245 -136 Q252 -130 262.5 -119.5 Q273 -109 283 -94 Q293 -79 301.5 -60 Q310 -41 314 -19 Q287 -19 270.5 -4 Q254 11 254 34 Q254 68 276 88.5 Q298 109 324 109 Q347 109 363.5 93 Q380 77 380 44 Q380 -16 346 -64 Q312 -112 262 -141 L245 -136 Z " />
<glyph glyph-name="perthousand" unicode="&#x2030;" horiz-adv-x="1241" d="M281 356 Q247 356 223.5 368.5 Q200 381 185 401 Q170 421 163.5 446 Q157 471 157 497 Q157 530 168 568 Q179 606 202.5 638 Q226 670 261 691 Q296 712 344 712 Q378 712 401.5 699.5 Q425 687 439.5 667 Q454 647 460.5 621.5 Q467 596 467 571 Q467 538 456.5 500 Q446 462 423.5 430 Q401 398 365.5 377 Q330 356 281 356 Z M291 414 Q318 414 339 426.5 Q360 439 374.5 460 Q389 481 396.5 508.5 Q404 536 404 566 Q404 604 386.5 629 Q369 654 333 654 Q305 654 284 641 Q263 628 249 607 Q235 586 228 558.5 Q221 531 221 502 Q221 465 237.5 439.5 Q254 414 291 414 Z M240 -12 L171 -12 L758 712 L827 712 L240 -12 Z M654 -12 Q619 -12 595.5 0.5 Q572 13 557.5 33 Q543 53 536.5 78 Q530 103 530 128 Q530 161 541 199 Q552 237 575 269.5 Q598 302 633 323 Q668 344 717 344 Q751 344 774 331.5 Q797 319 811.5 299.5 Q826 280 832.5 254.5 Q839 229 839 204 Q839 171 828.5 133 Q818 95 796 62.5 Q774 30 738.5 9 Q703 -12 654 -12 Z M664 46 Q691 46 712 58.5 Q733 71 747.5 92 Q762 113 769.5 140.5 Q777 168 777 197 Q777 235 759.5 260.5 Q742 286 706 286 Q677 286 656 273 Q635 260 621 239 Q607 218 600 191 Q593 164 593 135 Q593 97 610 71.5 Q627 46 664 46 Z M1020 -12 Q986 -12 962.5 0.5 Q939 13 924.5 33 Q910 53 903.5 78 Q897 103 897 128 Q897 161 908 199 Q919 237 942 269.5 Q965 302 1000 323 Q1035 344 1083 344 Q1117 344 1140.5 331.5 Q1164 319 1178.5 299.5 Q1193 280 1199.5 254.5 Q1206 229 1206 204 Q1206 171 1195.5 133 Q1185 95 1162.5 62.5 Q1140 30 1105 9 Q1070 -12 1020 -12 Z M1030 46 Q1057 46 1078 58.5 Q1099 71 1114 92 Q1129 113 1136.5 140.5 Q1144 168 1144 197 Q1144 235 1126.5 260.5 Q1109 286 1072 286 Q1044 286 1023 273 Q1002 260 988 239 Q974 218 967 190.5 Q960 163 960 134 Q960 97 976.5 71.5 Q993 46 1030 46 Z " />
<glyph glyph-name="Acircumflex" unicode="&#xc2;" horiz-adv-x="657" d="M521 0 L492 181 L229 181 L138 0 L64 0 L420 700 L476 700 L589 0 L521 0 Z M439 523 Q437 536 434 556 Q431 576 430 586 Q426 576 417 556.5 Q408 537 401 523 L260 243 L483 243 L439 523 Z M570 766 L476 867 L347 766 L285 766 L447 922 L524 922 L633 766 L570 766 Z " />
<glyph glyph-name="Ecircumflex" unicode="&#xca;" horiz-adv-x="593" d="M110 0 L233 700 L617 700 L607 637 L292 637 L249 394 L462 394 L450 331 L238 331 L191 63 L527 63 L516 0 L110 0 Z M545 766 L451 867 L322 766 L260 766 L422 922 L499 922 L608 766 L545 766 Z " />
<glyph glyph-name="Aacute" unicode="&#xc1;" horiz-adv-x="657" d="M521 0 L492 181 L229 181 L138 0 L64 0 L420 700 L476 700 L589 0 L521 0 Z M439 523 Q437 536 434 556 Q431 576 430 586 Q426 576 417 556.5 Q408 537 401 523 L260 243 L483 243 L439 523 Z M450 766 L381 766 L545 922 L647 922 L450 766 Z " />
<glyph glyph-name="Edieresis" unicode="&#xcb;" horiz-adv-x="593" d="M110 0 L233 700 L617 700 L607 637 L292 637 L249 394 L462 394 L450 331 L238 331 L191 63 L527 63 L516 0 L110 0 Z M354 796 Q337 796 326.5 807.5 Q316 819 316 836 Q316 859 332.5 874.5 Q349 890 370 890 Q387 890 397.5 879 Q408 868 408 851 Q408 828 392 812 Q376 796 354 796 Z M514 796 Q497 796 486 807.5 Q475 819 475 836 Q475 859 492.5 874.5 Q510 890 530 890 Q547 890 557.5 879 Q568 868 568 851 Q568 828 551.5 812 Q535 796 514 796 Z " />
<glyph glyph-name="Egrave" unicode="&#xc8;" horiz-adv-x="593" d="M110 0 L233 700 L617 700 L607 637 L292 637 L249 394 L462 394 L450 331 L238 331 L191 63 L527 63 L516 0 L110 0 Z M440 766 L296 922 L399 922 L508 766 L440 766 Z " />
<glyph glyph-name="Iacute" unicode="&#xcd;" horiz-adv-x="290" d="M110 0 L233 700 L303 700 L180 0 L110 0 Z M277 766 L208 766 L372 922 L474 922 L277 766 Z " />
<glyph glyph-name="Icircumflex" unicode="&#xce;" horiz-adv-x="290" d="M110 0 L233 700 L303 700 L180 0 L110 0 Z M386 766 L292 867 L163 766 L101 766 L263 922 L340 922 L449 766 L386 766 Z " />
<glyph glyph-name="Idieresis" unicode="&#xcf;" horiz-adv-x="290" d="M110 0 L233 700 L303 700 L180 0 L110 0 Z M203 796 Q186 796 175.5 807.5 Q165 819 165 836 Q165 859 181.5 874.5 Q198 890 219 890 Q236 890 246.5 879 Q257 868 257 851 Q257 828 241 812 Q225 796 203 796 Z M363 796 Q346 796 335 807.5 Q324 819 324 836 Q324 859 341.5 874.5 Q359 890 379 890 Q396 890 406.5 879 Q417 868 417 851 Q417 828 400.5 812 Q384 796 363 796 Z " />
<glyph glyph-name="Igrave" unicode="&#xcc;" horiz-adv-x="290" d="M110 0 L233 700 L303 700 L180 0 L110 0 Z M270 766 L126 922 L229 922 L338 766 L270 766 Z " />
<glyph glyph-name="Oacute" unicode="&#xd3;" horiz-adv-x="712" d="M362 51 Q432 51 484 87 Q536 123 569.5 179.5 Q603 236 619.5 304 Q636 372 636 436 Q636 475 627.5 513.5 Q619 552 599.5 582 Q580 612 549.5 630.5 Q519 649 475 649 Q404 649 352.5 613 Q301 577 267 520.5 Q233 464 216.5 396 Q200 328 200 264 Q200 222 209 183.5 Q218 145 237.5 115.5 Q257 86 287.5 68.5 Q318 51 362 51 Z M362 -12 Q300 -12 256 11 Q212 34 184 72 Q156 110 143 160 Q130 210 130 264 Q130 339 150.5 418 Q171 497 214 562.5 Q257 628 321.5 670 Q386 712 475 712 Q538 712 582 688 Q626 664 653.5 625 Q681 586 693.5 536.5 Q706 487 706 436 Q706 361 685.5 282 Q665 203 622.5 137.5 Q580 72 515 30 Q450 -12 362 -12 Z M510 766 L441 766 L605 922 L707 922 L510 766 Z " />
<glyph glyph-name="Ocircumflex" unicode="&#xd4;" horiz-adv-x="712" d="M362 51 Q432 51 484 87 Q536 123 569.5 179.5 Q603 236 619.5 304 Q636 372 636 436 Q636 475 627.5 513.5 Q619 552 599.5 582 Q580 612 549.5 630.5 Q519 649 475 649 Q404 649 352.5 613 Q301 577 267 520.5 Q233 464 216.5 396 Q200 328 200 264 Q200 222 209 183.5 Q218 145 237.5 115.5 Q257 86 287.5 68.5 Q318 51 362 51 Z M362 -12 Q300 -12 256 11 Q212 34 184 72 Q156 110 143 160 Q130 210 130 264 Q130 339 150.5 418 Q171 497 214 562.5 Q257 628 321.5 670 Q386 712 475 712 Q538 712 582 688 Q626 664 653.5 625 Q681 586 693.5 536.5 Q706 487 706 436 Q706 361 685.5 282 Q665 203 622.5 137.5 Q580 72 515 30 Q450 -12 362 -12 Z M614 766 L520 867 L391 766 L329 766 L491 922 L568 922 L677 766 L614 766 Z " />
<glyph glyph-name="Ograve" unicode="&#xd2;" horiz-adv-x="712" d="M362 51 Q432 51 484 87 Q536 123 569.5 179.5 Q603 236 619.5 304 Q636 372 636 436 Q636 475 627.5 513.5 Q619 552 599.5 582 Q580 612 549.5 630.5 Q519 649 475 649 Q404 649 352.5 613 Q301 577 267 520.5 Q233 464 216.5 396 Q200 328 200 264 Q200 222 209 183.5 Q218 145 237.5 115.5 Q257 86 287.5 68.5 Q318 51 362 51 Z M362 -12 Q300 -12 256 11 Q212 34 184 72 Q156 110 143 160 Q130 210 130 264 Q130 339 150.5 418 Q171 497 214 562.5 Q257 628 321.5 670 Q386 712 475 712 Q538 712 582 688 Q626 664 653.5 625 Q681 586 693.5 536.5 Q706 487 706 436 Q706 361 685.5 282 Q665 203 622.5 137.5 Q580 72 515 30 Q450 -12 362 -12 Z M483 766 L339 922 L442 922 L551 766 L483 766 Z " />
<glyph glyph-name="Uacute" unicode="&#xda;" horiz-adv-x="674" d="M349 -12 Q304 -12 266 0 Q228 12 201 36.5 Q174 61 158.5 99 Q143 137 143 189 Q143 206 144.5 226 Q146 246 150 267 L226 700 L296 700 L219 261 Q213 223 213 192 Q213 150 224.5 122.5 Q236 95 255 79.5 Q274 64 299 57.5 Q324 51 351 51 Q383 51 413.5 60 Q444 69 469.5 92.5 Q495 116 515 156.5 Q535 197 546 260 L623 700 L693 700 L616 260 Q590 114 524.5 51 Q459 -12 349 -12 Z M488 766 L419 766 L583 922 L685 922 L488 766 Z " />
<glyph glyph-name="Ucircumflex" unicode="&#xdb;" horiz-adv-x="674" d="M349 -12 Q304 -12 266 0 Q228 12 201 36.5 Q174 61 158.5 99 Q143 137 143 189 Q143 206 144.5 226 Q146 246 150 267 L226 700 L296 700 L219 261 Q213 223 213 192 Q213 150 224.5 122.5 Q236 95 255 79.5 Q274 64 299 57.5 Q324 51 351 51 Q383 51 413.5 60 Q444 69 469.5 92.5 Q495 116 515 156.5 Q535 197 546 260 L623 700 L693 700 L616 260 Q590 114 524.5 51 Q459 -12 349 -12 Z M576 766 L482 867 L353 766 L291 766 L453 922 L530 922 L639 766 L576 766 Z " />
<glyph glyph-name="Ugrave" unicode="&#xd9;" horiz-adv-x="674" d="M349 -12 Q304 -12 266 0 Q228 12 201 36.5 Q174 61 158.5 99 Q143 137 143 189 Q143 206 144.5 226 Q146 246 150 267 L226 700 L296 700 L219 261 Q213 223 213 192 Q213 150 224.5 122.5 Q236 95 255 79.5 Q274 64 299 57.5 Q324 51 351 51 Q383 51 413.5 60 Q444 69 469.5 92.5 Q495 116 515 156.5 Q535 197 546 260 L623 700 L693 700 L616 260 Q590 114 524.5 51 Q459 -12 349 -12 Z M471 766 L327 922 L430 922 L539 766 L471 766 Z " />
<glyph glyph-name="dotlessi" unicode="&#x131;" horiz-adv-x="261" d="M95 0 L185 511 L252 511 L162 0 L95 0 Z " />
<glyph glyph-name="circumflex" unicode="&#x2c6;" horiz-adv-x="343" d="M419 576 L325 677 L196 576 L134 576 L296 732 L373 732 L482 576 L419 576 Z " />
<glyph glyph-name="tilde" unicode="&#x2dc;" horiz-adv-x="343" d="M384 602 Q358 602 338.5 610 Q319 618 301.5 627 Q284 636 268 644 Q252 652 234 652 Q216 652 201 640.5 Q186 629 181 606 L144 606 Q153 659 179.5 687.5 Q206 716 252 716 Q277 716 297 708 Q317 700 334 690.5 Q351 681 367 673 Q383 665 401 665 Q419 665 434.5 677 Q450 689 456 712 L492 712 Q482 659 455.5 630.5 Q429 602 384 602 Z " />
<glyph glyph-name="macron" unicode="&#xaf;" horiz-adv-x="343" d="M157 609 L168 670 L485 670 L474 609 L157 609 Z " />
<glyph glyph-name="breve" unicode="&#x2d8;" horiz-adv-x="343" d="M314 581 Q275 581 246.5 591.5 Q218 602 199.5 619 Q181 636 172 659 Q163 682 163 706 Q163 724 166 742 L229 742 Q228 737 227.5 732 Q227 727 227 722 Q227 681 250.5 662 Q274 643 319 643 Q340 643 360.5 650 Q381 657 398 669.5 Q415 682 427 700.5 Q439 719 443 742 L509 742 Q503 709 488.5 679.5 Q474 650 450 628 Q426 606 392 593.5 Q358 581 314 581 Z " />
<glyph glyph-name="dotaccent" unicode="&#x2d9;" horiz-adv-x="343" d="M311 606 Q294 606 283.5 617.5 Q273 629 273 646 Q273 669 289.5 684.5 Q306 700 327 700 Q344 700 354.5 689 Q365 678 365 661 Q365 638 349 622 Q333 606 311 606 Z " />
<glyph glyph-name="ring" unicode="&#x2da;" horiz-adv-x="343" d="M298 540 Q278 540 261 548 Q244 556 232 569 Q220 582 213 599.5 Q206 617 206 637 Q206 664 217 687 Q228 710 246.5 727.5 Q265 745 289 755 Q313 765 338 765 Q378 765 404 737.5 Q430 710 430 670 Q430 644 418.5 620.5 Q407 597 388.5 579 Q370 561 346 550.5 Q322 540 298 540 Z M307 592 Q334 592 354 612.5 Q374 633 374 665 Q374 687 361.5 700 Q349 713 329 713 Q304 713 283.5 694 Q263 675 263 643 Q263 621 275.5 606.5 Q288 592 307 592 Z " />
<glyph glyph-name="cedilla" unicode="&#xb8;" horiz-adv-x="343" d="M142 -234 Q110 -234 90.5 -223 Q71 -212 60 -198 L105 -171 Q110 -176 117.5 -181 Q125 -186 142 -186 Q164 -186 181.5 -171 Q199 -156 199 -133 Q199 -112 185 -99.5 Q171 -87 148 -87 Q123 -87 113 -92 L103 -77 L184 10 L224 10 L174 -55 Q223 -55 242.5 -77 Q262 -99 262 -127 Q262 -177 227.5 -205.5 Q193 -234 142 -234 Z " />
<glyph glyph-name="hungarumlaut" unicode="&#x2dd;" horiz-adv-x="343" d="M307 576 L239 576 L402 732 L505 732 L307 576 Z M497 576 L429 576 L592 732 L636 732 L695 732 L497 576 Z " />
<glyph glyph-name="ogonek" unicode="&#x2db;" horiz-adv-x="343" d="M135 -234 Q97 -234 71 -213.5 Q45 -193 45 -153 Q45 -97 88 -55 Q131 -13 205 10 L258 10 Q180 -21 143 -59.5 Q106 -98 106 -139 Q106 -163 119 -173.5 Q132 -184 149 -184 Q169 -184 183 -176.5 Q197 -169 206 -161 L238 -190 Q221 -207 195.5 -220.5 Q170 -234 135 -234 Z " />
<glyph glyph-name="caron" unicode="&#x2c7;" horiz-adv-x="343" d="M335 576 L258 576 L150 732 L212 732 L306 631 L435 732 L498 732 L335 576 Z " />
<glyph glyph-name="currency" unicode="&#xa4;" horiz-adv-x="631" d="M330 86 Q243 86 196 132 L122 66 L81 120 L158 188 Q150 206 146 232 Q142 258 142 281 Q142 335 157.5 383 Q173 431 208 479 L156 546 L213 598 L265 533 Q297 555 335 568 Q373 581 417 581 Q460 581 494 568.5 Q528 556 552 534 L625 598 L667 543 L593 478 Q601 459 604 434 Q607 409 607 388 Q607 331 590.5 281 Q574 231 538 185 L592 117 L535 66 L482 133 Q417 86 330 86 Z M342 153 Q384 153 419.5 169.5 Q455 186 481 214.5 Q507 243 521.5 282.5 Q536 322 536 368 Q536 399 527 425.5 Q518 452 501.5 471.5 Q485 491 461 502.5 Q437 514 406 514 Q365 514 330 497.5 Q295 481 268.5 451.5 Q242 422 227 382.5 Q212 343 212 298 Q212 267 221 240.5 Q230 214 246.5 194.5 Q263 175 287.5 164 Q312 153 342 153 Z " />
<glyph glyph-name="uni00AD" unicode="&#xad;" horiz-adv-x="408" d="M144 264 L156 332 L370 332 L358 264 L144 264 Z " />
<glyph glyph-name="Amacron" unicode="&#x100;" horiz-adv-x="657" d="M521 0 L492 181 L229 181 L138 0 L64 0 L420 700 L476 700 L589 0 L521 0 Z M439 523 Q437 536 434 556 Q431 576 430 586 Q426 576 417 556.5 Q408 537 401 523 L260 243 L483 243 L439 523 Z M309 799 L320 860 L637 860 L626 799 L309 799 Z " />
<glyph glyph-name="amacron" unicode="&#x101;" horiz-adv-x="532" d="M379 0 L386 42 Q362 22 325 5 Q288 -12 239 -12 Q170 -12 131 28.5 Q92 69 92 135 Q92 187 110.5 224.5 Q129 262 158.5 285 Q188 308 225.5 319 Q263 330 301 330 Q349 330 380.5 317.5 Q412 305 430 292 L438 337 Q443 362 443 380 Q443 404 435.5 420 Q428 436 416.5 445.5 Q405 455 390 458.5 Q375 462 360 462 Q339 462 316.5 457 Q294 452 273 444 Q252 436 232.5 426.5 Q213 417 198 407 L189 467 Q222 487 268 505 Q314 523 365 523 Q390 523 415.5 516.5 Q441 510 462 494 Q483 478 496 452.5 Q509 427 509 388 Q509 368 504 340 L444 0 L379 0 Z M251 49 Q295 49 335.5 72.5 Q376 96 401 124 L418 225 Q403 237 372.5 253 Q342 269 300 269 Q272 269 246.5 262 Q221 255 201 239.5 Q181 224 169 200 Q157 176 157 142 Q157 102 180.5 75.5 Q204 49 251 49 Z M209 609 L220 670 L537 670 L526 609 L209 609 Z " />
<glyph glyph-name="Abreve" unicode="&#x102;" horiz-adv-x="657" d="M521 0 L492 181 L229 181 L138 0 L64 0 L420 700 L476 700 L589 0 L521 0 Z M439 523 Q437 536 434 556 Q431 576 430 586 Q426 576 417 556.5 Q408 537 401 523 L260 243 L483 243 L439 523 Z M465 771 Q426 771 397.5 781.5 Q369 792 350.5 809 Q332 826 323 849 Q314 872 314 896 Q314 914 317 932 L380 932 Q379 927 378.5 922 Q378 917 378 912 Q378 871 401.5 852 Q425 833 470 833 Q491 833 511.5 840 Q532 847 549 859.5 Q566 872 578 890.5 Q590 909 594 932 L660 932 Q654 899 639.5 869.5 Q625 840 601 818 Q577 796 543 783.5 Q509 771 465 771 Z " />
<glyph glyph-name="abreve" unicode="&#x103;" horiz-adv-x="532" d="M379 0 L386 42 Q362 22 325 5 Q288 -12 239 -12 Q170 -12 131 28.5 Q92 69 92 135 Q92 187 110.5 224.5 Q129 262 158.5 285 Q188 308 225.5 319 Q263 330 301 330 Q349 330 380.5 317.5 Q412 305 430 292 L438 337 Q443 362 443 380 Q443 404 435.5 420 Q428 436 416.5 445.5 Q405 455 390 458.5 Q375 462 360 462 Q339 462 316.5 457 Q294 452 273 444 Q252 436 232.5 426.5 Q213 417 198 407 L189 467 Q222 487 268 505 Q314 523 365 523 Q390 523 415.5 516.5 Q441 510 462 494 Q483 478 496 452.5 Q509 427 509 388 Q509 368 504 340 L444 0 L379 0 Z M251 49 Q295 49 335.5 72.5 Q376 96 401 124 L418 225 Q403 237 372.5 253 Q342 269 300 269 Q272 269 246.5 262 Q221 255 201 239.5 Q181 224 169 200 Q157 176 157 142 Q157 102 180.5 75.5 Q204 49 251 49 Z M366 581 Q327 581 298.5 591.5 Q270 602 251.5 619 Q233 636 224 659 Q215 682 215 706 Q215 724 218 742 L281 742 Q280 737 279.5 732 Q279 727 279 722 Q279 681 302.5 662 Q326 643 371 643 Q392 643 412.5 650 Q433 657 450 669.5 Q467 682 479 700.5 Q491 719 495 742 L561 742 Q555 709 540.5 679.5 Q526 650 502 628 Q478 606 444 593.5 Q410 581 366 581 Z " />
<glyph glyph-name="Aogonek" unicode="&#x104;" horiz-adv-x="657" d="M469 -234 Q431 -234 405 -213.5 Q379 -193 379 -153 Q379 -103 414 -63.5 Q449 -24 520 0 L491 181 L229 181 L138 0 L64 0 L420 700 L476 700 L589 0 Q546 -15 517.5 -32 Q489 -49 471.5 -67 Q454 -85 447 -103 Q440 -121 440 -139 Q440 -163 453.5 -173.5 Q467 -184 484 -184 Q504 -184 517.5 -176.5 Q531 -169 540 -161 L572 -190 Q555 -207 529.5 -220.5 Q504 -234 469 -234 Z M439 523 Q437 536 434 556 Q431 576 430 586 Q426 576 417 556.5 Q408 537 401 523 L260 243 L483 243 L439 523 Z " />
<glyph glyph-name="aogonek" unicode="&#x105;" horiz-adv-x="532" d="M335 -234 Q298 -234 272 -213.5 Q246 -193 246 -153 Q246 -98 284 -61 Q322 -24 379 0 L386 42 Q362 22 325 5 Q288 -12 239 -12 Q170 -12 131 28.5 Q92 69 92 135 Q92 187 110.5 224.5 Q129 262 158.5 285 Q188 308 225.5 319 Q263 330 301 330 Q349 330 380.5 317.5 Q412 305 430 292 L438 337 Q443 362 443 380 Q443 404 435.5 420 Q428 436 416.5 445.5 Q405 455 390 458.5 Q375 462 360 462 Q339 462 316.5 457 Q294 452 273 444 Q252 436 232.5 426.5 Q213 417 198 407 L189 467 Q222 487 268 505 Q314 523 365 523 Q390 523 415.5 516.5 Q441 510 462 494 Q483 478 496 452.5 Q509 427 509 388 Q509 368 504 340 L444 0 Q403 -16 376.5 -34 Q350 -52 334.5 -70.5 Q319 -89 312.5 -106.5 Q306 -124 306 -139 Q306 -163 319.5 -173.5 Q333 -184 350 -184 Q370 -184 383.5 -176.5 Q397 -169 407 -161 L438 -190 Q421 -207 395.5 -220.5 Q370 -234 335 -234 Z M251 49 Q295 49 335.5 72.5 Q376 96 401 124 L418 225 Q403 237 372.5 253 Q342 269 300 269 Q272 269 246.5 262 Q221 255 201 239.5 Q181 224 169 200 Q157 176 157 142 Q157 102 180.5 75.5 Q204 49 251 49 Z " />
<glyph glyph-name="Cacute" unicode="&#x106;" horiz-adv-x="639" d="M367 -12 Q305 -12 260.5 13 Q216 38 187 79 Q158 120 144.5 172 Q131 224 131 278 Q131 360 154.5 438.5 Q178 517 222.5 577.5 Q267 638 331.5 675 Q396 712 479 712 Q518 712 549 701.5 Q580 691 603.5 675 Q627 659 642.5 638.5 Q658 618 667 599 L610 567 Q600 583 588 598 Q576 613 559.5 624.5 Q543 636 521 642.5 Q499 649 470 649 Q404 649 354 616 Q304 583 270 530.5 Q236 478 218.5 413.5 Q201 349 201 286 Q201 242 210.5 200 Q220 158 241 125 Q262 92 294 71.5 Q326 51 371 51 Q430 51 468.5 76 Q507 101 538 141 L595 113 Q580 89 558.5 66.5 Q537 44 509 26.5 Q481 9 445.5 -1.5 Q410 -12 367 -12 Z M483 766 L414 766 L578 922 L680 922 L483 766 Z " />
<glyph glyph-name="cacute" unicode="&#x107;" horiz-adv-x="485" d="M265 -12 Q228 -12 197.5 2.5 Q167 17 145.5 44 Q124 71 112 109 Q100 147 100 195 Q100 270 118 330.5 Q136 391 168 433.5 Q200 476 245.5 499.5 Q291 523 346 523 Q402 523 442.5 495.5 Q483 468 497 416 L432 391 Q424 420 402 440 Q380 460 339 460 Q295 460 263.5 437.5 Q232 415 212 377.5 Q192 340 182 292.5 Q172 245 172 195 Q172 127 196 89 Q220 51 271 51 Q354 51 394 129 L450 105 Q423 51 377 19.5 Q331 -12 265 -12 Z M364 576 L295 576 L459 732 L561 732 L364 576 Z " />
<glyph glyph-name="Ccircumflex" unicode="&#x108;" horiz-adv-x="639" d="M367 -12 Q305 -12 260.5 13 Q216 38 187 79 Q158 120 144.5 172 Q131 224 131 278 Q131 360 154.5 438.5 Q178 517 222.5 577.5 Q267 638 331.5 675 Q396 712 479 712 Q518 712 549 701.5 Q580 691 603.5 675 Q627 659 642.5 638.5 Q658 618 667 599 L610 567 Q600 583 588 598 Q576 613 559.5 624.5 Q543 636 521 642.5 Q499 649 470 649 Q404 649 354 616 Q304 583 270 530.5 Q236 478 218.5 413.5 Q201 349 201 286 Q201 242 210.5 200 Q220 158 241 125 Q262 92 294 71.5 Q326 51 371 51 Q430 51 468.5 76 Q507 101 538 141 L595 113 Q580 89 558.5 66.5 Q537 44 509 26.5 Q481 9 445.5 -1.5 Q410 -12 367 -12 Z M605 766 L511 867 L382 766 L320 766 L482 922 L559 922 L668 766 L605 766 Z " />
<glyph glyph-name="ccircumflex" unicode="&#x109;" horiz-adv-x="485" d="M265 -12 Q228 -12 197.5 2.5 Q167 17 145.5 44 Q124 71 112 109 Q100 147 100 195 Q100 270 118 330.5 Q136 391 168 433.5 Q200 476 245.5 499.5 Q291 523 346 523 Q402 523 442.5 495.5 Q483 468 497 416 L432 391 Q424 420 402 440 Q380 460 339 460 Q295 460 263.5 437.5 Q232 415 212 377.5 Q192 340 182 292.5 Q172 245 172 195 Q172 127 196 89 Q220 51 271 51 Q354 51 394 129 L450 105 Q423 51 377 19.5 Q331 -12 265 -12 Z M475 576 L381 677 L252 576 L190 576 L352 732 L429 732 L538 576 L475 576 Z " />
<glyph glyph-name="Cdotaccent" unicode="&#x10a;" horiz-adv-x="639" d="M367 -12 Q305 -12 260.5 13 Q216 38 187 79 Q158 120 144.5 172 Q131 224 131 278 Q131 360 154.5 438.5 Q178 517 222.5 577.5 Q267 638 331.5 675 Q396 712 479 712 Q518 712 549 701.5 Q580 691 603.5 675 Q627 659 642.5 638.5 Q658 618 667 599 L610 567 Q600 583 588 598 Q576 613 559.5 624.5 Q543 636 521 642.5 Q499 649 470 649 Q404 649 354 616 Q304 583 270 530.5 Q236 478 218.5 413.5 Q201 349 201 286 Q201 242 210.5 200 Q220 158 241 125 Q262 92 294 71.5 Q326 51 371 51 Q430 51 468.5 76 Q507 101 538 141 L595 113 Q580 89 558.5 66.5 Q537 44 509 26.5 Q481 9 445.5 -1.5 Q410 -12 367 -12 Z M502 796 Q485 796 474.5 807.5 Q464 819 464 836 Q464 859 480.5 874.5 Q497 890 518 890 Q535 890 545.5 879 Q556 868 556 851 Q556 828 540 812 Q524 796 502 796 Z " />
<glyph glyph-name="cdotaccent" unicode="&#x10b;" horiz-adv-x="485" d="M265 -12 Q228 -12 197.5 2.5 Q167 17 145.5 44 Q124 71 112 109 Q100 147 100 195 Q100 270 118 330.5 Q136 391 168 433.5 Q200 476 245.5 499.5 Q291 523 346 523 Q402 523 442.5 495.5 Q483 468 497 416 L432 391 Q424 420 402 440 Q380 460 339 460 Q295 460 263.5 437.5 Q232 415 212 377.5 Q192 340 182 292.5 Q172 245 172 195 Q172 127 196 89 Q220 51 271 51 Q354 51 394 129 L450 105 Q423 51 377 19.5 Q331 -12 265 -12 Z M363 606 Q346 606 335.5 617.5 Q325 629 325 646 Q325 669 341.5 684.5 Q358 700 379 700 Q396 700 406.5 689 Q417 678 417 661 Q417 638 401 622 Q385 606 363 606 Z " />
<glyph glyph-name="Ccaron" unicode="&#x10c;" horiz-adv-x="639" d="M367 -12 Q305 -12 260.5 13 Q216 38 187 79 Q158 120 144.5 172 Q131 224 131 278 Q131 360 154.5 438.5 Q178 517 222.5 577.5 Q267 638 331.5 675 Q396 712 479 712 Q518 712 549 701.5 Q580 691 603.5 675 Q627 659 642.5 638.5 Q658 618 667 599 L610 567 Q600 583 588 598 Q576 613 559.5 624.5 Q543 636 521 642.5 Q499 649 470 649 Q404 649 354 616 Q304 583 270 530.5 Q236 478 218.5 413.5 Q201 349 201 286 Q201 242 210.5 200 Q220 158 241 125 Q262 92 294 71.5 Q326 51 371 51 Q430 51 468.5 76 Q507 101 538 141 L595 113 Q580 89 558.5 66.5 Q537 44 509 26.5 Q481 9 445.5 -1.5 Q410 -12 367 -12 Z M531 766 L454 766 L346 922 L408 922 L502 821 L631 922 L694 922 L531 766 Z " />
<glyph glyph-name="ccaron" unicode="&#x10d;" horiz-adv-x="485" d="M265 -12 Q228 -12 197.5 2.5 Q167 17 145.5 44 Q124 71 112 109 Q100 147 100 195 Q100 270 118 330.5 Q136 391 168 433.5 Q200 476 245.5 499.5 Q291 523 346 523 Q402 523 442.5 495.5 Q483 468 497 416 L432 391 Q424 420 402 440 Q380 460 339 460 Q295 460 263.5 437.5 Q232 415 212 377.5 Q192 340 182 292.5 Q172 245 172 195 Q172 127 196 89 Q220 51 271 51 Q354 51 394 129 L450 105 Q423 51 377 19.5 Q331 -12 265 -12 Z M394 576 L317 576 L209 732 L271 732 L365 631 L494 732 L557 732 L394 576 Z " />
<glyph glyph-name="Dcaron" unicode="&#x10e;" horiz-adv-x="672" d="M233 700 L410 700 Q481 700 530 673.5 Q579 647 609 605 Q639 563 652.5 511 Q666 459 666 408 Q666 343 648.5 271.5 Q631 200 587.5 139.5 Q544 79 470.5 39.5 Q397 0 286 0 L110 0 L233 700 Z M302 63 Q387 63 443.5 96.5 Q500 130 534 181 Q568 232 582 293 Q596 354 596 408 Q596 449 586 490 Q576 531 554 563.5 Q532 596 497 616.5 Q462 637 413 637 L292 637 L191 63 L302 63 Z M464 766 L387 766 L279 922 L341 922 L435 821 L564 922 L627 922 L464 766 Z " />
<glyph glyph-name="dcaron" unicode="&#x10f;" horiz-adv-x="721" d="M268 -12 Q229 -12 197.5 4 Q166 20 144.5 49 Q123 78 111.5 119 Q100 160 100 210 Q100 281 119 339 Q138 397 172.5 438 Q207 479 254 501 Q301 523 358 523 Q406 523 435.5 506 Q465 489 480 472 L519 692 L594 722 L467 0 L397 0 L404 43 Q379 17 345 2.5 Q311 -12 268 -12 Z M283 51 Q307 51 328.5 59 Q350 67 367.5 78.5 Q385 90 398 104 Q411 118 420 130 L465 387 Q460 399 451.5 411.5 Q443 424 429.5 435 Q416 446 397.5 453 Q379 460 355 460 Q311 460 277.5 441.5 Q244 423 220.5 389 Q197 355 185 308.5 Q173 262 173 207 Q173 175 179.5 146.5 Q186 118 199.5 97 Q213 76 233.5 63.5 Q254 51 283 51 Z M789 712 L787 704 Q776 643 752 587.5 Q728 532 672 484 L655 498 Q664 513 674 537.5 Q684 562 693 591.5 Q702 621 709.5 652.5 Q717 684 722 712 L789 712 Z " />
<glyph glyph-name="Dcroat" unicode="&#x110;" horiz-adv-x="672" d="M166 318 L100 318 L111 380 L177 380 L233 700 L410 700 Q478 700 526.5 675.5 Q575 651 606 610 Q637 569 651.5 516.5 Q666 464 666 408 Q666 369 659 323 Q652 277 635.5 232 Q619 187 591 145 Q563 103 520.5 70.5 Q478 38 420 19 Q362 0 286 0 L110 0 L166 318 Z M302 63 Q388 63 444.5 97 Q501 131 535 182.5 Q569 234 582.5 294.5 Q596 355 596 408 Q596 451 585.5 492 Q575 533 552.5 565 Q530 597 495.5 617 Q461 637 413 637 L292 637 L247 380 L395 380 L384 318 L236 318 L191 63 L302 63 Z " />
<glyph glyph-name="dcroat" unicode="&#x111;" horiz-adv-x="561" d="M565 553 L468 0 L398 0 L406 44 Q378 15 345 1.5 Q312 -12 268 -12 Q229 -12 198 3.5 Q167 19 145.5 47 Q124 75 112 115 Q100 155 100 204 Q100 265 118.5 317.5 Q137 370 170.5 408 Q204 446 250.5 467.5 Q297 489 353 489 Q398 489 427 474.5 Q456 460 476 441 L496 553 L359 553 L370 616 L507 616 L520 692 L595 722 L576 616 L639 616 L628 553 L565 553 Z M284 51 Q321 51 357.5 72 Q394 93 421 131 L460 352 Q454 365 445 378 Q436 391 422.5 401.5 Q409 412 391 419 Q373 426 350 426 Q308 426 274.5 409.5 Q241 393 218.5 363 Q196 333 184 291.5 Q172 250 172 201 Q172 172 179 145 Q186 118 200.5 97 Q215 76 236 63.5 Q257 51 284 51 Z " />
<glyph glyph-name="Emacron" unicode="&#x112;" horiz-adv-x="593" d="M110 0 L233 700 L617 700 L607 637 L292 637 L249 394 L462 394 L450 331 L238 331 L191 63 L527 63 L516 0 L110 0 Z M287 799 L298 860 L615 860 L604 799 L287 799 Z " />
<glyph glyph-name="emacron" unicode="&#x113;" horiz-adv-x="528" d="M279 -12 Q237 -12 203.5 4.5 Q170 21 147 50 Q124 79 112 118 Q100 157 100 202 Q100 271 119 330 Q138 389 172 431.5 Q206 474 252 498.5 Q298 523 352 523 Q390 523 422 512.5 Q454 502 477 479 Q500 456 513 420.5 Q526 385 526 334 Q526 301 520 275.5 Q514 250 507 227 L172 227 L172 213 Q172 138 200.5 95.5 Q229 53 287 53 Q314 53 343.5 62 Q373 71 405 93 L436 42 Q403 17 363 2.5 Q323 -12 279 -12 Z M352 460 Q315 460 286 445 Q257 430 236 406 Q215 382 201.5 351.5 Q188 321 181 290 L451 290 Q458 317 458 340 Q458 376 448.5 399 Q439 422 424 435.5 Q409 449 390 454.5 Q371 460 352 460 Z M224 609 L235 670 L552 670 L541 609 L224 609 Z " />
<glyph glyph-name="Ebreve" unicode="&#x114;" horiz-adv-x="593" d="M110 0 L233 700 L617 700 L607 637 L292 637 L249 394 L462 394 L450 331 L238 331 L191 63 L527 63 L516 0 L110 0 Z M439 771 Q400 771 371.5 781.5 Q343 792 324.5 809 Q306 826 297 849 Q288 872 288 896 Q288 914 291 932 L354 932 Q353 927 352.5 922 Q352 917 352 912 Q352 871 375.5 852 Q399 833 444 833 Q465 833 485.5 840 Q506 847 523 859.5 Q540 872 552 890.5 Q564 909 568 932 L634 932 Q628 899 613.5 869.5 Q599 840 575 818 Q551 796 517 783.5 Q483 771 439 771 Z " />
<glyph glyph-name="ebreve" unicode="&#x115;" horiz-adv-x="528" d="M279 -12 Q237 -12 203.5 4.5 Q170 21 147 50 Q124 79 112 118 Q100 157 100 202 Q100 271 119 330 Q138 389 172 431.5 Q206 474 252 498.5 Q298 523 352 523 Q390 523 422 512.5 Q454 502 477 479 Q500 456 513 420.5 Q526 385 526 334 Q526 301 520 275.5 Q514 250 507 227 L172 227 L172 213 Q172 138 200.5 95.5 Q229 53 287 53 Q314 53 343.5 62 Q373 71 405 93 L436 42 Q403 17 363 2.5 Q323 -12 279 -12 Z M352 460 Q315 460 286 445 Q257 430 236 406 Q215 382 201.5 351.5 Q188 321 181 290 L451 290 Q458 317 458 340 Q458 376 448.5 399 Q439 422 424 435.5 Q409 449 390 454.5 Q371 460 352 460 Z M391 581 Q352 581 323.5 591.5 Q295 602 276.5 619 Q258 636 249 659 Q240 682 240 706 Q240 724 243 742 L306 742 Q305 737 304.5 732 Q304 727 304 722 Q304 681 327.5 662 Q351 643 396 643 Q417 643 437.5 650 Q458 657 475 669.5 Q492 682 504 700.5 Q516 719 520 742 L586 742 Q580 709 565.5 679.5 Q551 650 527 628 Q503 606 469 593.5 Q435 581 391 581 Z " />
<glyph glyph-name="Edotaccent" unicode="&#x116;" horiz-adv-x="593" d="M110 0 L233 700 L617 700 L607 637 L292 637 L249 394 L462 394 L450 331 L238 331 L191 63 L527 63 L516 0 L110 0 Z M446 796 Q429 796 418.5 807.5 Q408 819 408 836 Q408 859 424.5 874.5 Q441 890 462 890 Q479 890 489.5 879 Q500 868 500 851 Q500 828 484 812 Q468 796 446 796 Z " />
<glyph glyph-name="edotaccent" unicode="&#x117;" horiz-adv-x="528" d="M279 -12 Q237 -12 203.5 4.5 Q170 21 147 50 Q124 79 112 118 Q100 157 100 202 Q100 271 119 330 Q138 389 172 431.5 Q206 474 252 498.5 Q298 523 352 523 Q390 523 422 512.5 Q454 502 477 479 Q500 456 513 420.5 Q526 385 526 334 Q526 301 520 275.5 Q514 250 507 227 L172 227 L172 213 Q172 138 200.5 95.5 Q229 53 287 53 Q314 53 343.5 62 Q373 71 405 93 L436 42 Q403 17 363 2.5 Q323 -12 279 -12 Z M352 460 Q315 460 286 445 Q257 430 236 406 Q215 382 201.5 351.5 Q188 321 181 290 L451 290 Q458 317 458 340 Q458 376 448.5 399 Q439 422 424 435.5 Q409 449 390 454.5 Q371 460 352 460 Z M388 606 Q371 606 360.5 617.5 Q350 629 350 646 Q350 669 366.5 684.5 Q383 700 404 700 Q421 700 431.5 689 Q442 678 442 661 Q442 638 426 622 Q410 606 388 606 Z " />
<glyph glyph-name="Eogonek" unicode="&#x118;" horiz-adv-x="593" d="M481 0 Q453 0 424 -12.5 Q395 -25 371.5 -44.5 Q348 -64 333 -89 Q318 -114 318 -139 Q318 -163 331.5 -173.5 Q345 -184 362 -184 Q382 -184 395.5 -176.5 Q409 -169 418 -161 L450 -190 Q433 -207 407.5 -220.5 Q382 -234 347 -234 Q309 -234 283 -213.5 Q257 -193 257 -153 Q257 -102 292.5 -63.5 Q328 -25 389 0 L111 0 L234 700 L617 700 L606 633 L291 633 L249 395 L462 395 L450 329 L237 329 L191 67 L528 67 L516 0 L481 0 Z " />
<glyph glyph-name="eogonek" unicode="&#x119;" horiz-adv-x="529" d="M437 42 Q410 21 372.5 4.5 Q335 -12 301 -30.5 Q267 -49 243.5 -74.5 Q220 -100 220 -139 Q220 -163 233.5 -173.5 Q247 -184 264 -184 Q284 -184 297.5 -176.5 Q311 -169 321 -161 L352 -190 Q335 -207 309.5 -220.5 Q284 -234 249 -234 Q211 -234 185 -213.5 Q159 -193 159 -153 Q159 -108 190 -73 Q221 -38 271 -12 Q230 -10 198.5 8 Q167 26 145 54.5 Q123 83 112 121 Q101 159 101 202 Q101 271 120 330 Q139 389 173 431.5 Q207 474 253 498.5 Q299 523 353 523 Q391 523 423 512.5 Q455 502 478 479 Q501 456 514 420.5 Q527 385 527 334 Q527 301 521 275.5 Q515 250 508 227 L173 227 L173 213 Q173 138 201.5 95.5 Q230 53 288 53 Q315 53 344.5 62 Q374 71 406 93 L437 42 Z M353 460 Q316 460 287 445 Q258 430 237 406 Q216 382 202.5 351.5 Q189 321 182 290 L452 290 Q459 317 459 340 Q459 376 449.5 399 Q440 422 425 435.5 Q410 449 391 454.5 Q372 460 353 460 Z " />
<glyph glyph-name="Ecaron" unicode="&#x11a;" horiz-adv-x="593" d="M110 0 L233 700 L617 700 L607 637 L292 637 L249 394 L462 394 L450 331 L238 331 L191 63 L527 63 L516 0 L110 0 Z M480 766 L403 766 L295 922 L357 922 L451 821 L580 922 L643 922 L480 766 Z " />
<glyph glyph-name="ecaron" unicode="&#x11b;" horiz-adv-x="528" d="M279 -12 Q237 -12 203.5 4.5 Q170 21 147 50 Q124 79 112 118 Q100 157 100 202 Q100 271 119 330 Q138 389 172 431.5 Q206 474 252 498.5 Q298 523 352 523 Q390 523 422 512.5 Q454 502 477 479 Q500 456 513 420.5 Q526 385 526 334 Q526 301 520 275.5 Q514 250 507 227 L172 227 L172 213 Q172 138 200.5 95.5 Q229 53 287 53 Q314 53 343.5 62 Q373 71 405 93 L436 42 Q403 17 363 2.5 Q323 -12 279 -12 Z M352 460 Q315 460 286 445 Q257 430 236 406 Q215 382 201.5 351.5 Q188 321 181 290 L451 290 Q458 317 458 340 Q458 376 448.5 399 Q439 422 424 435.5 Q409 449 390 454.5 Q371 460 352 460 Z M412 576 L335 576 L227 732 L289 732 L383 631 L512 732 L575 732 L412 576 Z " />
<glyph glyph-name="Gcircumflex" unicode="&#x11c;" horiz-adv-x="679" d="M364 -12 Q303 -12 259 11.5 Q215 35 186.5 74 Q158 113 144.5 162.5 Q131 212 131 264 Q131 347 152.5 427.5 Q174 508 217.5 571 Q261 634 325.5 673 Q390 712 477 712 Q520 712 552 701 Q584 690 607.5 673.5 Q631 657 645.5 637 Q660 617 668 599 L606 566 Q589 600 556 624.5 Q523 649 464 649 Q399 649 350 614.5 Q301 580 268 526 Q235 472 218 405 Q201 338 201 273 Q201 230 210.5 190 Q220 150 240 119 Q260 88 291.5 69.5 Q323 51 367 51 Q441 51 490 98 Q539 145 553 225 L560 267 L439 267 L450 329 L645 329 L629 241 Q617 176 592.5 128 Q568 80 533.5 49 Q499 18 456 3 Q413 -12 364 -12 Z M589 766 L495 867 L366 766 L304 766 L466 922 L543 922 L652 766 L589 766 Z " />
<glyph glyph-name="gcircumflex" unicode="&#x11d;" horiz-adv-x="562" d="M176 -158 Q236 -155 276 -142.5 Q316 -130 340 -111.5 Q364 -93 376 -69.5 Q388 -46 393 -20 L405 49 Q386 27 353.5 7.5 Q321 -12 269 -12 Q229 -12 197.5 4 Q166 20 144.5 48.5 Q123 77 111.5 115 Q100 153 100 198 Q100 270 118 329.5 Q136 389 169 432 Q202 475 247.5 499 Q293 523 348 523 Q383 523 417.5 509 Q452 495 478 463 L487 511 L555 511 L463 -8 Q451 -73 426 -112.5 Q401 -152 365.5 -174 Q330 -196 287 -203.5 Q244 -211 196 -213 L176 -158 Z M287 51 Q308 51 328 58 Q348 65 365.5 77 Q383 89 397.5 104.5 Q412 120 421 137 L464 382 Q453 414 422.5 437 Q392 460 350 460 Q306 460 273 438.5 Q240 417 217 382 Q194 347 182.5 300.5 Q171 254 171 205 Q171 133 203 92 Q235 51 287 51 Z M486 576 L392 677 L263 576 L201 576 L363 732 L440 732 L549 576 L486 576 Z " />
<glyph glyph-name="Gbreve" unicode="&#x11e;" horiz-adv-x="679" d="M364 -12 Q303 -12 259 11.5 Q215 35 186.5 74 Q158 113 144.5 162.5 Q131 212 131 264 Q131 347 152.5 427.5 Q174 508 217.5 571 Q261 634 325.5 673 Q390 712 477 712 Q520 712 552 701 Q584 690 607.5 673.5 Q631 657 645.5 637 Q660 617 668 599 L606 566 Q589 600 556 624.5 Q523 649 464 649 Q399 649 350 614.5 Q301 580 268 526 Q235 472 218 405 Q201 338 201 273 Q201 230 210.5 190 Q220 150 240 119 Q260 88 291.5 69.5 Q323 51 367 51 Q441 51 490 98 Q539 145 553 225 L560 267 L439 267 L450 329 L645 329 L629 241 Q617 176 592.5 128 Q568 80 533.5 49 Q499 18 456 3 Q413 -12 364 -12 Z M484 771 Q445 771 416.5 781.5 Q388 792 369.5 809 Q351 826 342 849 Q333 872 333 896 Q333 914 336 932 L399 932 Q398 927 397.5 922 Q397 917 397 912 Q397 871 420.5 852 Q444 833 489 833 Q510 833 530.5 840 Q551 847 568 859.5 Q585 872 597 890.5 Q609 909 613 932 L679 932 Q673 899 658.5 869.5 Q644 840 620 818 Q596 796 562 783.5 Q528 771 484 771 Z " />
<glyph glyph-name="gbreve" unicode="&#x11f;" horiz-adv-x="562" d="M176 -158 Q236 -155 276 -142.5 Q316 -130 340 -111.5 Q364 -93 376 -69.5 Q388 -46 393 -20 L405 49 Q386 27 353.5 7.5 Q321 -12 269 -12 Q229 -12 197.5 4 Q166 20 144.5 48.5 Q123 77 111.5 115 Q100 153 100 198 Q100 270 118 329.5 Q136 389 169 432 Q202 475 247.5 499 Q293 523 348 523 Q383 523 417.5 509 Q452 495 478 463 L487 511 L555 511 L463 -8 Q451 -73 426 -112.5 Q401 -152 365.5 -174 Q330 -196 287 -203.5 Q244 -211 196 -213 L176 -158 Z M287 51 Q308 51 328 58 Q348 65 365.5 77 Q383 89 397.5 104.5 Q412 120 421 137 L464 382 Q453 414 422.5 437 Q392 460 350 460 Q306 460 273 438.5 Q240 417 217 382 Q194 347 182.5 300.5 Q171 254 171 205 Q171 133 203 92 Q235 51 287 51 Z M381 581 Q342 581 313.5 591.5 Q285 602 266.5 619 Q248 636 239 659 Q230 682 230 706 Q230 724 233 742 L296 742 Q295 737 294.5 732 Q294 727 294 722 Q294 681 317.5 662 Q341 643 386 643 Q407 643 427.5 650 Q448 657 465 669.5 Q482 682 494 700.5 Q506 719 510 742 L576 742 Q570 709 555.5 679.5 Q541 650 517 628 Q493 606 459 593.5 Q425 581 381 581 Z " />
<glyph glyph-name="Gdotaccent" unicode="&#x120;" horiz-adv-x="679" d="M364 -12 Q303 -12 259 11.5 Q215 35 186.5 74 Q158 113 144.5 162.5 Q131 212 131 264 Q131 347 152.5 427.5 Q174 508 217.5 571 Q261 634 325.5 673 Q390 712 477 712 Q520 712 552 701 Q584 690 607.5 673.5 Q631 657 645.5 637 Q660 617 668 599 L606 566 Q589 600 556 624.5 Q523 649 464 649 Q399 649 350 614.5 Q301 580 268 526 Q235 472 218 405 Q201 338 201 273 Q201 230 210.5 190 Q220 150 240 119 Q260 88 291.5 69.5 Q323 51 367 51 Q441 51 490 98 Q539 145 553 225 L560 267 L439 267 L450 329 L645 329 L629 241 Q617 176 592.5 128 Q568 80 533.5 49 Q499 18 456 3 Q413 -12 364 -12 Z M489 796 Q472 796 461.5 807.5 Q451 819 451 836 Q451 859 467.5 874.5 Q484 890 505 890 Q522 890 532.5 879 Q543 868 543 851 Q543 828 527 812 Q511 796 489 796 Z " />
<glyph glyph-name="gdotaccent" unicode="&#x121;" horiz-adv-x="562" d="M176 -158 Q236 -155 276 -142.5 Q316 -130 340 -111.5 Q364 -93 376 -69.5 Q388 -46 393 -20 L405 49 Q386 27 353.5 7.5 Q321 -12 269 -12 Q229 -12 197.5 4 Q166 20 144.5 48.5 Q123 77 111.5 115 Q100 153 100 198 Q100 270 118 329.5 Q136 389 169 432 Q202 475 247.5 499 Q293 523 348 523 Q383 523 417.5 509 Q452 495 478 463 L487 511 L555 511 L463 -8 Q451 -73 426 -112.5 Q401 -152 365.5 -174 Q330 -196 287 -203.5 Q244 -211 196 -213 L176 -158 Z M287 51 Q308 51 328 58 Q348 65 365.5 77 Q383 89 397.5 104.5 Q412 120 421 137 L464 382 Q453 414 422.5 437 Q392 460 350 460 Q306 460 273 438.5 Q240 417 217 382 Q194 347 182.5 300.5 Q171 254 171 205 Q171 133 203 92 Q235 51 287 51 Z M376 606 Q359 606 348.5 617.5 Q338 629 338 646 Q338 669 354.5 684.5 Q371 700 392 700 Q409 700 419.5 689 Q430 678 430 661 Q430 638 414 622 Q398 606 376 606 Z " />
<glyph glyph-name="Gcommaaccent" unicode="&#x122;" horiz-adv-x="679" d="M364 -12 Q303 -12 259 11.5 Q215 35 186.5 74 Q158 113 144.5 162.5 Q131 212 131 264 Q131 347 152.5 427.5 Q174 508 217.5 571 Q261 634 325.5 673 Q390 712 477 712 Q520 712 552 701 Q584 690 607.5 673.5 Q631 657 645.5 637 Q660 617 668 599 L606 566 Q589 600 556 624.5 Q523 649 464 649 Q399 649 350 614.5 Q301 580 268 526 Q235 472 218 405 Q201 338 201 273 Q201 230 210.5 190 Q220 150 240 119 Q260 88 291.5 69.5 Q323 51 367 51 Q441 51 490 98 Q539 145 553 225 L560 267 L439 267 L450 329 L645 329 L629 241 Q617 176 592.5 128 Q568 80 533.5 49 Q499 18 456 3 Q413 -12 364 -12 Z M276 -239 Q280 -236 287 -230 Q294 -224 301.5 -214.5 Q309 -205 316 -192.5 Q323 -180 327 -165 Q304 -165 293.5 -152 Q283 -139 283 -122 Q283 -93 303 -75.5 Q323 -58 344 -58 Q361 -58 373.5 -71 Q386 -84 386 -107 Q386 -143 364.5 -179.5 Q343 -216 293 -244 L276 -239 Z " />
<glyph glyph-name="gcommaaccent" unicode="&#x123;" horiz-adv-x="562" d="M176 -158 Q236 -155 276 -142.5 Q316 -130 340.5 -111.5 Q365 -93 376.5 -69.5 Q388 -46 393 -20 L407 58 Q381 26 346.5 7 Q312 -12 261 -12 Q227 -12 197.5 1.5 Q168 15 146.5 41 Q125 67 112.5 105 Q100 143 100 193 Q100 269 120.5 330 Q141 391 176 434 Q211 477 258 500 Q305 523 359 523 Q387 523 407.5 516.5 Q428 510 442 500.5 Q456 491 465 480.5 Q474 470 479 463 L487 511 L555 511 L466 8 Q455 -55 428.5 -96.5 Q402 -138 365.5 -163.5 Q329 -189 285 -200 Q241 -211 196 -213 L176 -158 Z M287 51 Q302 51 320 57 Q338 63 356 74 Q374 85 391 100.5 Q408 116 421 136 L464 382 Q457 401 445 415.5 Q433 430 418.5 440 Q404 450 388 455 Q372 460 359 460 Q312 460 277 441 Q242 422 218.5 388 Q195 354 183 307 Q171 260 171 205 Q171 133 203 92 Q235 51 287 51 Z M458 784 Q454 781 447 775 Q440 769 432.5 759.5 Q425 750 418 737.5 Q411 725 407 710 Q429 710 440 696.5 Q451 683 451 667 Q451 635 432.5 619 Q414 603 393 603 Q373 603 359.5 616.5 Q346 630 346 659 Q346 690 368 726 Q390 762 438 790 L458 784 Z " />
<glyph glyph-name="Hcircumflex" unicode="&#x124;" horiz-adv-x="686" d="M110 0 L233 700 L303 700 L250 397 L578 397 L631 700 L701 700 L578 0 L508 0 L566 331 L239 331 L181 0 L110 0 Z M586 766 L492 867 L363 766 L301 766 L463 922 L540 922 L649 766 L586 766 Z " />
<glyph glyph-name="hcircumflex" unicode="&#x125;" horiz-adv-x="560" d="M400 0 L455 312 Q457 326 458.5 337.5 Q460 349 460 360 Q460 414 434 437 Q408 460 367 460 Q341 460 317.5 453 Q294 446 275 429 Q256 412 241.5 384 Q227 356 220 314 L165 0 L95 0 L217 692 L292 722 L244 453 Q273 487 307.5 505 Q342 523 384 523 Q456 523 491.5 487.5 Q527 452 527 374 Q527 334 518 283 L468 0 L400 0 Z M510 765 L416 866 L287 765 L225 765 L387 921 L464 921 L573 765 L510 765 Z " />
<glyph glyph-name="Hbar" unicode="&#x126;" horiz-adv-x="686" d="M508 0 L566 331 L239 331 L180 0 L110 0 L203 532 L118 532 L129 598 L215 598 L233 700 L303 700 L285 598 L613 598 L631 700 L701 700 L683 598 L770 598 L759 532 L672 532 L578 0 L508 0 Z M578 397 L602 532 L274 532 L250 397 L578 397 Z " />
<glyph glyph-name="hbar" unicode="&#x127;" horiz-adv-x="560" d="M400 0 L449 278 Q451 292 452.5 303.5 Q454 315 454 326 Q454 380 428.5 403 Q403 426 362 426 Q336 426 312.5 419 Q289 412 269.5 395 Q250 378 235.5 350 Q221 322 214 280 L165 0 L95 0 L193 553 L131 553 L142 616 L204 616 L217 692 L292 722 L273 616 L424 616 L413 553 L262 553 L238 419 Q296 489 379 489 Q451 489 486 454 Q521 419 521 341 Q521 301 512 249 L468 0 L400 0 Z " />
<glyph glyph-name="Itilde" unicode="&#x128;" horiz-adv-x="290" d="M110 0 L233 700 L303 700 L180 0 L110 0 Z M359 792 Q333 792 313.5 800 Q294 808 276.5 817 Q259 826 243 834 Q227 842 209 842 Q191 842 176 830.5 Q161 819 156 796 L119 796 Q128 849 154.5 877.5 Q181 906 227 906 Q252 906 272 898 Q292 890 309 880.5 Q326 871 342 863 Q358 855 376 855 Q394 855 409.5 867 Q425 879 431 902 L467 902 Q457 849 430.5 820.5 Q404 792 359 792 Z " />
<glyph glyph-name="itilde" unicode="&#x129;" horiz-adv-x="261" d="M95 0 L185 511 L252 511 L162 0 L95 0 Z M309 602 Q283 602 263.5 610 Q244 618 226.5 627 Q209 636 193 644 Q177 652 159 652 Q141 652 126 640.5 Q111 629 106 606 L69 606 Q78 659 104.5 687.5 Q131 716 177 716 Q202 716 222 708 Q242 700 259 690.5 Q276 681 292 673 Q308 665 326 665 Q344 665 359.5 677 Q375 689 381 712 L417 712 Q407 659 380.5 630.5 Q354 602 309 602 Z " />
<glyph glyph-name="Imacron" unicode="&#x12a;" horiz-adv-x="290" d="M110 0 L233 700 L303 700 L180 0 L110 0 Z M128 799 L139 860 L456 860 L445 799 L128 799 Z " />
<glyph glyph-name="imacron" unicode="&#x12b;" horiz-adv-x="261" d="M95 0 L185 511 L252 511 L162 0 L95 0 Z M75 609 L86 670 L403 670 L392 609 L75 609 Z " />
<glyph glyph-name="Ibreve" unicode="&#x12c;" horiz-adv-x="290" d="M110 0 L233 700 L303 700 L180 0 L110 0 Z M287 771 Q248 771 219.5 781.5 Q191 792 172.5 809 Q154 826 145 849 Q136 872 136 896 Q136 914 139 932 L202 932 Q201 927 200.5 922 Q200 917 200 912 Q200 871 223.5 852 Q247 833 292 833 Q313 833 333.5 840 Q354 847 371 859.5 Q388 872 400 890.5 Q412 909 416 932 L482 932 Q476 899 461.5 869.5 Q447 840 423 818 Q399 796 365 783.5 Q331 771 287 771 Z " />
<glyph glyph-name="ibreve" unicode="&#x12d;" horiz-adv-x="261" d="M95 0 L185 511 L252 511 L162 0 L95 0 Z M235 581 Q196 581 167.5 591.5 Q139 602 120.5 619 Q102 636 93 659 Q84 682 84 706 Q84 724 87 742 L150 742 Q149 737 148.5 732 Q148 727 148 722 Q148 681 171.5 662 Q195 643 240 643 Q261 643 281.5 650 Q302 657 319 669.5 Q336 682 348 700.5 Q360 719 364 742 L430 742 Q424 709 409.5 679.5 Q395 650 371 628 Q347 606 313 593.5 Q279 581 235 581 Z " />
<glyph glyph-name="Iogonek" unicode="&#x12e;" horiz-adv-x="290" d="M67 -234 Q29 -234 3 -213.5 Q-23 -193 -23 -153 Q-23 -125 -12 -101.5 Q-1 -78 17 -59 Q35 -40 59.5 -25.5 Q84 -11 111 0 L234 700 L302 700 L179 0 Q111 -23 74 -60.5 Q37 -98 37 -139 Q37 -163 50.5 -173.5 Q64 -184 81 -184 Q101 -184 115 -176.5 Q129 -169 138 -161 L170 -190 Q153 -207 127.5 -220.5 Q102 -234 67 -234 Z " />
<glyph glyph-name="iogonek" unicode="&#x12f;" horiz-adv-x="263" d="M54 -234 Q16 -234 -10 -213.5 Q-36 -193 -36 -153 Q-36 -125 -25.5 -101.5 Q-15 -78 3 -59 Q21 -40 45.5 -25.5 Q70 -11 98 0 L188 511 L256 511 L166 0 Q97 -23 61 -60.5 Q25 -98 25 -139 Q25 -163 38.5 -173.5 Q52 -184 69 -184 Q89 -184 102.5 -176.5 Q116 -169 126 -161 L157 -190 Q140 -207 114.5 -220.5 Q89 -234 54 -234 Z M241 616 Q224 616 213.5 627 Q203 638 203 655 Q203 678 219.5 694 Q236 710 257 710 Q274 710 284.5 698.5 Q295 687 295 670 Q295 647 278 631.5 Q261 616 241 616 Z " />
<glyph glyph-name="Idotaccent" unicode="&#x130;" horiz-adv-x="290" d="M110 0 L233 700 L303 700 L180 0 L110 0 Z M284 796 Q267 796 256.5 807.5 Q246 819 246 836 Q246 859 262.5 874.5 Q279 890 300 890 Q317 890 327.5 879 Q338 868 338 851 Q338 828 322 812 Q306 796 284 796 Z " />
<glyph glyph-name="IJ" unicode="&#x132;" horiz-adv-x="825" d="M110 0 L233 700 L303 700 L180 0 L110 0 Z M504 -12 Q441 -12 397.5 23 Q354 58 337 109 L395 133 Q407 101 432.5 76 Q458 51 505 51 Q535 51 560 59.5 Q585 68 604.5 88 Q624 108 638.5 140.5 Q653 173 662 222 L746 700 L816 700 L731 217 Q717 140 691.5 94.5 Q666 49 634.5 25.5 Q603 2 569 -5 Q535 -12 504 -12 Z " />
<glyph glyph-name="ij" unicode="&#x133;" horiz-adv-x="516" d="M95 0 L185 511 L255 511 L165 0 L95 0 Z M239 616 Q222 616 211 627 Q200 638 200 655 Q200 678 216 694 Q232 710 252 710 Q271 710 281.5 699 Q292 688 292 671 Q292 648 275.5 632 Q259 616 239 616 Z M201 -158 Q237 -155 260.5 -147.5 Q284 -140 299 -128 Q314 -116 321.5 -99 Q329 -82 333 -60 L434 511 L504 511 L402 -67 Q394 -112 376.5 -140.5 Q359 -169 335 -185 Q311 -201 282 -207.5 Q253 -214 223 -216 L201 -158 Z M489 616 Q472 616 461 627 Q450 638 450 655 Q450 678 466 694 Q482 710 502 710 Q521 710 531.5 699 Q542 688 542 671 Q542 648 525.5 632 Q509 616 489 616 Z " />
<glyph glyph-name="Jcircumflex" unicode="&#x134;" horiz-adv-x="536" d="M235 -12 Q172 -12 128.5 23 Q85 58 68 109 L126 133 Q138 101 163.5 76 Q189 51 236 51 Q266 51 291 59.5 Q316 68 335.5 88 Q355 108 369.5 140.5 Q384 173 393 222 L477 700 L547 700 L462 217 Q448 140 422.5 94.5 Q397 49 365.5 25.5 Q334 2 300 -5 Q266 -12 235 -12 Z M630 766 L536 867 L407 766 L345 766 L507 922 L584 922 L693 766 L630 766 Z " />
<glyph glyph-name="jcircumflex" unicode="&#x135;" horiz-adv-x="269" d="M-46 -158 Q-10 -155 13.5 -147.5 Q37 -140 52 -128 Q67 -116 74.5 -99 Q82 -82 86 -60 L187 511 L257 511 L155 -67 Q147 -112 129.5 -140.5 Q112 -169 88 -185 Q64 -201 35 -207.5 Q6 -214 -24 -216 L-46 -158 Z M342 576 L248 677 L119 576 L57 576 L219 732 L296 732 L405 576 L342 576 Z " />
<glyph glyph-name="Kcommaaccent" unicode="&#x136;" horiz-adv-x="638" d="M501 0 L362 399 L224 252 L180 0 L110 0 L233 700 L303 700 L243 358 L564 700 L646 700 L414 454 L573 0 L501 0 Z M260 -239 Q264 -236 271 -230 Q278 -224 285.5 -214.5 Q293 -205 300 -192.5 Q307 -180 311 -165 Q288 -165 277.5 -152 Q267 -139 267 -122 Q267 -93 287 -75.5 Q307 -58 328 -58 Q345 -58 357.5 -71 Q370 -84 370 -107 Q370 -143 348.5 -179.5 Q327 -216 277 -244 L260 -239 Z " />
<glyph glyph-name="kcommaaccent" unicode="&#x137;" horiz-adv-x="513" d="M358 368 L480 0 L402 0 L305 318 L204 225 L165 0 L95 0 L217 692 L292 722 L220 316 L431 511 L513 511 L358 368 Z M202 -239 Q206 -236 213 -230 Q220 -224 227.5 -214.5 Q235 -205 242 -192.5 Q249 -180 253 -165 Q230 -165 219.5 -152 Q209 -139 209 -122 Q209 -93 229 -75.5 Q249 -58 270 -58 Q287 -58 299.5 -71 Q312 -84 312 -107 Q312 -143 290.5 -179.5 Q269 -216 219 -244 L202 -239 Z " />
<glyph glyph-name="kgreenlandic" unicode="&#x138;" horiz-adv-x="522" d="M416 0 L325 264 L184 115 L164 0 L97 0 L187 511 L254 511 L201 208 L483 511 L558 511 L382 323 L493 0 L416 0 Z " />
<glyph glyph-name="Lacute" unicode="&#x139;" horiz-adv-x="561" d="M110 0 L233 700 L303 700 L192 67 L524 67 L512 0 L110 0 Z M311 766 L242 766 L406 922 L508 922 L311 766 Z " />
<glyph glyph-name="lacute" unicode="&#x13a;" horiz-adv-x="271" d="M100 0 L222 692 L297 722 L170 0 L100 0 Z M262 756 L193 756 L357 912 L459 912 L262 756 Z " />
<glyph glyph-name="Lcommaaccent" unicode="&#x13b;" horiz-adv-x="561" d="M110 0 L233 700 L303 700 L192 67 L524 67 L512 0 L110 0 Z M238 -239 Q242 -236 249 -230 Q256 -224 263.5 -214.5 Q271 -205 278 -192.5 Q285 -180 289 -165 Q266 -165 255.5 -152 Q245 -139 245 -122 Q245 -93 265 -75.5 Q285 -58 306 -58 Q323 -58 335.5 -71 Q348 -84 348 -107 Q348 -143 326.5 -179.5 Q305 -216 255 -244 L238 -239 Z " />
<glyph glyph-name="lcommaaccent" unicode="&#x13c;" horiz-adv-x="271" d="M100 0 L222 692 L297 722 L170 0 L100 0 Z M57 -239 Q61 -236 68 -230 Q75 -224 82.5 -214.5 Q90 -205 97 -192.5 Q104 -180 108 -165 Q85 -165 74.5 -152 Q64 -139 64 -122 Q64 -93 84 -75.5 Q104 -58 125 -58 Q142 -58 154.5 -71 Q167 -84 167 -107 Q167 -143 145.5 -179.5 Q124 -216 74 -244 L57 -239 Z " />
<glyph glyph-name="Lcaron" unicode="&#x13d;" horiz-adv-x="561" d="M110 0 L233 700 L303 700 L192 67 L524 67 L512 0 L110 0 Z M314 766 L237 766 L129 922 L191 922 L285 821 L414 922 L477 922 L314 766 Z " />
<glyph glyph-name="lcaron" unicode="&#x13e;" horiz-adv-x="434" d="M100 0 L222 692 L297 722 L170 0 L100 0 Z M502 712 L500 704 Q489 643 465 587.5 Q441 532 385 484 L368 498 Q377 513 387 537.5 Q397 562 406 591.5 Q415 621 422.5 652.5 Q430 684 435 712 L502 712 Z " />
<glyph glyph-name="Ldot" unicode="&#x13f;" horiz-adv-x="561" d="M110 0 L233 700 L303 700 L192 67 L524 67 L512 0 L110 0 Z M450 301 Q433 301 422.5 312.5 Q412 324 412 341 Q412 364 428.5 379.5 Q445 395 466 395 Q483 395 493.5 384 Q504 373 504 356 Q504 333 488 317 Q472 301 450 301 Z " />
<glyph glyph-name="ldot" unicode="&#x140;" horiz-adv-x="477" d="M100 0 L222 692 L297 722 L170 0 L100 0 Z M396 267 Q379 267 368.5 278.5 Q358 290 358 307 Q358 330 374.5 345.5 Q391 361 412 361 Q429 361 439.5 350 Q450 339 450 322 Q450 299 434 283 Q418 267 396 267 Z " />
<glyph glyph-name="Nacute" unicode="&#x143;" horiz-adv-x="697" d="M518 0 L310 498 Q308 502 303 513.5 Q298 525 293 538 Q287 553 280 570 Q277 553 274 538 Q272 525 270 513.5 Q268 502 267 497 L180 0 L110 0 L233 700 L298 700 L523 161 Q524 159 526.5 153 Q529 147 532 139 Q536 130 540 120 Q541 129 543 137 Q545 144 545.5 150.5 Q546 157 547 160 L642 700 L712 700 L589 0 L518 0 Z M510 766 L441 766 L605 922 L707 922 L510 766 Z " />
<glyph glyph-name="nacute" unicode="&#x144;" horiz-adv-x="560" d="M400 0 L454 308 Q459 336 459 355 Q459 405 435.5 432.5 Q412 460 366 460 Q340 460 315.5 449 Q291 438 271.5 418.5 Q252 399 238.5 371 Q225 343 219 310 L165 0 L95 0 L185 511 L255 511 L245 455 Q273 488 308.5 505.5 Q344 523 382 523 Q451 523 489 483 Q527 443 527 360 Q527 343 525.5 323.5 Q524 304 520 283 L470 0 L400 0 Z M390 576 L321 576 L485 732 L587 732 L390 576 Z " />
<glyph glyph-name="Ncommaaccent" unicode="&#x145;" horiz-adv-x="697" d="M518 0 L310 498 Q308 502 303 513.5 Q298 525 293 538 Q287 553 280 570 Q277 553 274 538 Q272 525 270 513.5 Q268 502 267 497 L180 0 L110 0 L233 700 L298 700 L523 161 Q524 159 526.5 153 Q529 147 532 139 Q536 130 540 120 Q541 129 543 137 Q545 144 545.5 150.5 Q546 157 547 160 L642 700 L712 700 L589 0 L518 0 Z M281 -239 Q285 -236 292 -230 Q299 -224 306.5 -214.5 Q314 -205 321 -192.5 Q328 -180 332 -165 Q309 -165 298.5 -152 Q288 -139 288 -122 Q288 -93 308 -75.5 Q328 -58 349 -58 Q366 -58 378.5 -71 Q391 -84 391 -107 Q391 -143 369.5 -179.5 Q348 -216 298 -244 L281 -239 Z " />
<glyph glyph-name="ncommaaccent" unicode="&#x146;" horiz-adv-x="560" d="M400 0 L454 308 Q459 336 459 355 Q459 405 435.5 432.5 Q412 460 366 460 Q340 460 315.5 449 Q291 438 271.5 418.5 Q252 399 238.5 371 Q225 343 219 310 L165 0 L95 0 L185 511 L255 511 L245 455 Q273 488 308.5 505.5 Q344 523 382 523 Q451 523 489 483 Q527 443 527 360 Q527 343 525.5 323.5 Q524 304 520 283 L470 0 L400 0 Z M202 -239 Q206 -236 213 -230 Q220 -224 227.5 -214.5 Q235 -205 242 -192.5 Q249 -180 253 -165 Q230 -165 219.5 -152 Q209 -139 209 -122 Q209 -93 229 -75.5 Q249 -58 270 -58 Q287 -58 299.5 -71 Q312 -84 312 -107 Q312 -143 290.5 -179.5 Q269 -216 219 -244 L202 -239 Z " />
<glyph glyph-name="Ncaron" unicode="&#x147;" horiz-adv-x="697" d="M518 0 L310 498 Q308 502 303 513.5 Q298 525 293 538 Q287 553 280 570 Q277 553 274 538 Q272 525 270 513.5 Q268 502 267 497 L180 0 L110 0 L233 700 L298 700 L523 161 Q524 159 526.5 153 Q529 147 532 139 Q536 130 540 120 Q541 129 543 137 Q545 144 545.5 150.5 Q546 157 547 160 L642 700 L712 700 L589 0 L518 0 Z M528 766 L451 766 L343 922 L405 922 L499 821 L628 922 L691 922 L528 766 Z " />
<glyph glyph-name="ncaron" unicode="&#x148;" horiz-adv-x="560" d="M400 0 L454 308 Q459 336 459 355 Q459 405 435.5 432.5 Q412 460 366 460 Q340 460 315.5 449 Q291 438 271.5 418.5 Q252 399 238.5 371 Q225 343 219 310 L165 0 L95 0 L185 511 L255 511 L245 455 Q273 488 308.5 505.5 Q344 523 382 523 Q451 523 489 483 Q527 443 527 360 Q527 343 525.5 323.5 Q524 304 520 283 L470 0 L400 0 Z M431 576 L354 576 L246 732 L308 732 L402 631 L531 732 L594 732 L431 576 Z " />
<glyph glyph-name="napostrophe" unicode="&#x149;" horiz-adv-x="776" d="M595 0 L649 308 Q654 336 654 355 Q654 405 630.5 432.5 Q607 460 561 460 Q535 460 510.5 449 Q486 438 466.5 418.5 Q447 399 433.5 371 Q420 343 414 310 L360 0 L290 0 L380 511 L450 511 L440 455 Q468 488 503.5 505.5 Q539 523 577 523 Q646 523 684 483 Q722 443 722 360 Q722 343 720.5 323.5 Q719 304 715 283 L665 0 L595 0 Z M163 467 Q170 473 180.5 483.5 Q191 494 201 509 Q211 524 219.5 543 Q228 562 232 584 Q204 584 188 599 Q172 614 172 637 Q172 671 193.5 691.5 Q215 712 243 712 Q265 712 282 696 Q299 680 299 647 Q299 587 264.5 539 Q230 491 180 462 L163 467 Z " />
<glyph glyph-name="Eng" unicode="&#x14a;" horiz-adv-x="697" d="M371 -186 Q407 -183 430.5 -175.5 Q454 -168 469 -156 Q484 -144 491.5 -127 Q499 -110 503 -88 L518 0 L310 498 Q309 501 304.5 512 Q300 523 294.5 535 Q289 547 285 557.5 Q281 568 280 570 Q280 568 278 557.5 Q276 547 274 535 Q272 523 270 512 Q268 501 267 497 L180 0 L110 0 L233 700 L298 700 L523 161 Q524 158 526.5 152.5 Q529 147 531.5 140.5 Q534 134 536.5 128.5 Q539 123 540 120 Q541 125 543.5 140 Q546 155 547 160 L642 700 L712 700 L572 -95 Q564 -142 546 -170 Q528 -198 503 -214 Q479 -229 451 -235.5 Q423 -242 393 -244 L371 -186 Z " />
<glyph glyph-name="eng" unicode="&#x14b;" horiz-adv-x="559" d="M256 -158 Q292 -155 315.5 -147.5 Q339 -140 354 -128 Q369 -116 376.5 -99 Q384 -82 388 -61 L453 307 Q455 321 456.5 333.5 Q458 346 458 355 Q458 408 433 434 Q408 460 365 460 Q341 460 317 450 Q293 440 273.5 421 Q254 402 239 374 Q224 346 218 310 L164 0 L94 0 L184 511 L254 511 L244 455 Q273 490 308.5 506.5 Q344 523 381 523 Q455 523 490.5 480.5 Q526 438 526 360 Q526 343 524.5 323 Q523 303 519 283 L457 -67 Q445 -135 405 -173 Q365 -211 278 -216 L256 -158 Z " />
<glyph glyph-name="Omacron" unicode="&#x14c;" horiz-adv-x="712" d="M362 51 Q432 51 484 87 Q536 123 569.5 179.5 Q603 236 619.5 304 Q636 372 636 436 Q636 475 627.5 513.5 Q619 552 599.5 582 Q580 612 549.5 630.5 Q519 649 475 649 Q404 649 352.5 613 Q301 577 267 520.5 Q233 464 216.5 396 Q200 328 200 264 Q200 222 209 183.5 Q218 145 237.5 115.5 Q257 86 287.5 68.5 Q318 51 362 51 Z M362 -12 Q300 -12 256 11 Q212 34 184 72 Q156 110 143 160 Q130 210 130 264 Q130 339 150.5 418 Q171 497 214 562.5 Q257 628 321.5 670 Q386 712 475 712 Q538 712 582 688 Q626 664 653.5 625 Q681 586 693.5 536.5 Q706 487 706 436 Q706 361 685.5 282 Q665 203 622.5 137.5 Q580 72 515 30 Q450 -12 362 -12 Z M338 799 L349 860 L666 860 L655 799 L338 799 Z " />
<glyph glyph-name="omacron" unicode="&#x14d;" horiz-adv-x="547" d="M279 -12 Q231 -12 196.5 5.5 Q162 23 140 51.5 Q118 80 108 117.5 Q98 155 98 196 Q98 251 114 309 Q130 367 162 414.5 Q194 462 242.5 492.5 Q291 523 357 523 Q406 523 440.5 505 Q475 487 497 457.5 Q519 428 528.5 390.5 Q538 353 538 315 Q538 260 522.5 202 Q507 144 475 96.5 Q443 49 394 18.5 Q345 -12 279 -12 Z M279 51 Q327 51 363 75.5 Q399 100 422 138.5 Q445 177 456.5 224 Q468 271 468 315 Q468 342 462 368 Q456 394 443 414.5 Q430 435 408.5 447.5 Q387 460 357 460 Q309 460 273.5 435.5 Q238 411 214.5 372.5 Q191 334 179.5 287.5 Q168 241 168 196 Q168 168 174 142 Q180 116 193.5 95.5 Q207 75 228 63 Q249 51 279 51 Z M220 609 L231 670 L548 670 L537 609 L220 609 Z " />
<glyph glyph-name="Obreve" unicode="&#x14e;" horiz-adv-x="712" d="M362 51 Q432 51 484 87 Q536 123 569.5 179.5 Q603 236 619.5 304 Q636 372 636 436 Q636 475 627.5 513.5 Q619 552 599.5 582 Q580 612 549.5 630.5 Q519 649 475 649 Q404 649 352.5 613 Q301 577 267 520.5 Q233 464 216.5 396 Q200 328 200 264 Q200 222 209 183.5 Q218 145 237.5 115.5 Q257 86 287.5 68.5 Q318 51 362 51 Z M362 -12 Q300 -12 256 11 Q212 34 184 72 Q156 110 143 160 Q130 210 130 264 Q130 339 150.5 418 Q171 497 214 562.5 Q257 628 321.5 670 Q386 712 475 712 Q538 712 582 688 Q626 664 653.5 625 Q681 586 693.5 536.5 Q706 487 706 436 Q706 361 685.5 282 Q665 203 622.5 137.5 Q580 72 515 30 Q450 -12 362 -12 Z M499 771 Q460 771 431.5 781.5 Q403 792 384.5 809 Q366 826 357 849 Q348 872 348 896 Q348 914 351 932 L414 932 Q413 927 412.5 922 Q412 917 412 912 Q412 871 435.5 852 Q459 833 504 833 Q525 833 545.5 840 Q566 847 583 859.5 Q600 872 612 890.5 Q624 909 628 932 L694 932 Q688 899 673.5 869.5 Q659 840 635 818 Q611 796 577 783.5 Q543 771 499 771 Z " />
<glyph glyph-name="obreve" unicode="&#x14f;" horiz-adv-x="547" d="M279 -12 Q231 -12 196.5 5.5 Q162 23 140 51.5 Q118 80 108 117.5 Q98 155 98 196 Q98 251 114 309 Q130 367 162 414.5 Q194 462 242.5 492.5 Q291 523 357 523 Q406 523 440.5 505 Q475 487 497 457.5 Q519 428 528.5 390.5 Q538 353 538 315 Q538 260 522.5 202 Q507 144 475 96.5 Q443 49 394 18.5 Q345 -12 279 -12 Z M279 51 Q327 51 363 75.5 Q399 100 422 138.5 Q445 177 456.5 224 Q468 271 468 315 Q468 342 462 368 Q456 394 443 414.5 Q430 435 408.5 447.5 Q387 460 357 460 Q309 460 273.5 435.5 Q238 411 214.5 372.5 Q191 334 179.5 287.5 Q168 241 168 196 Q168 168 174 142 Q180 116 193.5 95.5 Q207 75 228 63 Q249 51 279 51 Z M379 581 Q340 581 311.5 591.5 Q283 602 264.5 619 Q246 636 237 659 Q228 682 228 706 Q228 724 231 742 L294 742 Q293 737 292.5 732 Q292 727 292 722 Q292 681 315.5 662 Q339 643 384 643 Q405 643 425.5 650 Q446 657 463 669.5 Q480 682 492 700.5 Q504 719 508 742 L574 742 Q568 709 553.5 679.5 Q539 650 515 628 Q491 606 457 593.5 Q423 581 379 581 Z " />
<glyph glyph-name="Ohungarumlaut" unicode="&#x150;" horiz-adv-x="712" d="M362 51 Q432 51 484 87 Q536 123 569.5 179.5 Q603 236 619.5 304 Q636 372 636 436 Q636 475 627.5 513.5 Q619 552 599.5 582 Q580 612 549.5 630.5 Q519 649 475 649 Q404 649 352.5 613 Q301 577 267 520.5 Q233 464 216.5 396 Q200 328 200 264 Q200 222 209 183.5 Q218 145 237.5 115.5 Q257 86 287.5 68.5 Q318 51 362 51 Z M362 -12 Q300 -12 256 11 Q212 34 184 72 Q156 110 143 160 Q130 210 130 264 Q130 339 150.5 418 Q171 497 214 562.5 Q257 628 321.5 670 Q386 712 475 712 Q538 712 582 688 Q626 664 653.5 625 Q681 586 693.5 536.5 Q706 487 706 436 Q706 361 685.5 282 Q665 203 622.5 137.5 Q580 72 515 30 Q450 -12 362 -12 Z M419 766 L351 766 L514 922 L617 922 L419 766 Z M609 766 L541 766 L704 922 L748 922 L807 922 L609 766 Z " />
<glyph glyph-name="ohungarumlaut" unicode="&#x151;" horiz-adv-x="547" d="M279 -12 Q231 -12 196.5 5.5 Q162 23 140 51.5 Q118 80 108 117.5 Q98 155 98 196 Q98 251 114 309 Q130 367 162 414.5 Q194 462 242.5 492.5 Q291 523 357 523 Q406 523 440.5 505 Q475 487 497 457.5 Q519 428 528.5 390.5 Q538 353 538 315 Q538 260 522.5 202 Q507 144 475 96.5 Q443 49 394 18.5 Q345 -12 279 -12 Z M279 51 Q327 51 363 75.5 Q399 100 422 138.5 Q445 177 456.5 224 Q468 271 468 315 Q468 342 462 368 Q456 394 443 414.5 Q430 435 408.5 447.5 Q387 460 357 460 Q309 460 273.5 435.5 Q238 411 214.5 372.5 Q191 334 179.5 287.5 Q168 241 168 196 Q168 168 174 142 Q180 116 193.5 95.5 Q207 75 228 63 Q249 51 279 51 Z M302 576 L234 576 L397 732 L500 732 L302 576 Z M492 576 L424 576 L587 732 L631 732 L690 732 L492 576 Z " />
<glyph glyph-name="Racute" unicode="&#x154;" horiz-adv-x="653" d="M654 525 Q654 489 642.5 454 Q631 419 606.5 390.5 Q582 362 544 343 Q506 324 454 318 L565 0 L493 0 L384 315 L235 315 L180 0 L110 0 L233 700 L453 700 Q511 700 549.5 683.5 Q588 667 611.5 641.5 Q635 616 644.5 585 Q654 554 654 525 Z M419 378 Q468 378 500 391.5 Q532 405 551.5 426 Q571 447 579 473 Q587 499 587 523 Q587 543 581 563 Q575 583 559.5 599.5 Q544 616 518.5 626.5 Q493 637 454 637 L292 637 L247 378 L419 378 Z M450 766 L381 766 L545 922 L647 922 L450 766 Z " />
<glyph glyph-name="racute" unicode="&#x155;" horiz-adv-x="393" d="M95 0 L185 511 L255 511 L242 439 Q277 484 316 503.5 Q355 523 387 523 Q426 523 447 502 L425 434 Q416 440 402 446.5 Q388 453 364 453 Q347 453 325 445 Q303 437 281.5 418 Q260 399 242 367.5 Q224 336 216 289 L165 0 L95 0 Z M338 576 L269 576 L433 732 L535 732 L338 576 Z " />
<glyph glyph-name="Rcommaaccent" unicode="&#x156;" horiz-adv-x="653" d="M654 525 Q654 489 642.5 454 Q631 419 606.5 390.5 Q582 362 544 343 Q506 324 454 318 L565 0 L493 0 L384 315 L235 315 L180 0 L110 0 L233 700 L453 700 Q511 700 549.5 683.5 Q588 667 611.5 641.5 Q635 616 644.5 585 Q654 554 654 525 Z M419 378 Q468 378 500 391.5 Q532 405 551.5 426 Q571 447 579 473 Q587 499 587 523 Q587 543 581 563 Q575 583 559.5 599.5 Q544 616 518.5 626.5 Q493 637 454 637 L292 637 L247 378 L419 378 Z M249 -239 Q253 -236 260 -230 Q267 -224 274.5 -214.5 Q282 -205 289 -192.5 Q296 -180 300 -165 Q277 -165 266.5 -152 Q256 -139 256 -122 Q256 -93 276 -75.5 Q296 -58 317 -58 Q334 -58 346.5 -71 Q359 -84 359 -107 Q359 -143 337.5 -179.5 Q316 -216 266 -244 L249 -239 Z " />
<glyph glyph-name="rcommaaccent" unicode="&#x157;" horiz-adv-x="393" d="M95 0 L185 511 L255 511 L242 439 Q277 484 316 503.5 Q355 523 387 523 Q426 523 447 502 L425 434 Q416 440 402 446.5 Q388 453 364 453 Q347 453 325 445 Q303 437 281.5 418 Q260 399 242 367.5 Q224 336 216 289 L165 0 L95 0 Z M45 -259 Q49 -256 56 -250 Q63 -244 70.5 -234.5 Q78 -225 85 -212.5 Q92 -200 96 -185 Q73 -185 62.5 -172 Q52 -159 52 -142 Q52 -113 72 -95.5 Q92 -78 113 -78 Q130 -78 142.5 -91 Q155 -104 155 -127 Q155 -163 133.5 -199.5 Q112 -236 62 -264 L45 -259 Z " />
<glyph glyph-name="Rcaron" unicode="&#x158;" horiz-adv-x="653" d="M654 525 Q654 489 642.5 454 Q631 419 606.5 390.5 Q582 362 544 343 Q506 324 454 318 L565 0 L493 0 L384 315 L235 315 L180 0 L110 0 L233 700 L453 700 Q511 700 549.5 683.5 Q588 667 611.5 641.5 Q635 616 644.5 585 Q654 554 654 525 Z M419 378 Q468 378 500 391.5 Q532 405 551.5 426 Q571 447 579 473 Q587 499 587 523 Q587 543 581 563 Q575 583 559.5 599.5 Q544 616 518.5 626.5 Q493 637 454 637 L292 637 L247 378 L419 378 Z M493 766 L416 766 L308 922 L370 922 L464 821 L593 922 L656 922 L493 766 Z " />
<glyph glyph-name="rcaron" unicode="&#x159;" horiz-adv-x="393" d="M95 0 L185 511 L255 511 L242 439 Q277 484 316 503.5 Q355 523 387 523 Q426 523 447 502 L425 434 Q416 440 402 446.5 Q388 453 364 453 Q347 453 325 445 Q303 437 281.5 418 Q260 399 242 367.5 Q224 336 216 289 L165 0 L95 0 Z M378 576 L301 576 L193 732 L255 732 L349 631 L478 732 L541 732 L378 576 Z " />
<glyph glyph-name="Sacute" unicode="&#x15a;" horiz-adv-x="591" d="M517 578 Q502 607 474 628 Q446 649 394 649 Q329 649 292 617.5 Q255 586 255 536 Q255 499 276.5 476 Q298 453 330 434.5 Q362 416 400 399 Q438 382 470 357.5 Q502 333 523.5 297 Q545 261 545 206 Q545 152 526.5 111 Q508 70 475.5 43 Q443 16 399.5 2 Q356 -12 305 -12 Q264 -12 230.5 -1 Q197 10 171 29.5 Q145 49 127 74.5 Q109 100 101 130 L165 155 Q203 51 311 51 Q386 51 429.5 89 Q473 127 473 200 Q473 242 451.5 269.5 Q430 297 398 317.5 Q366 338 329 356 Q292 374 260 396.5 Q228 419 206.5 450.5 Q185 482 185 530 Q185 569 200 602.5 Q215 636 243 660 Q271 684 310.5 698 Q350 712 399 712 Q435 712 464.5 703 Q494 694 517 679.5 Q540 665 555.5 645.5 Q571 626 579 605 L517 578 Z M419 766 L350 766 L514 922 L616 922 L419 766 Z " />
<glyph glyph-name="sacute" unicode="&#x15b;" horiz-adv-x="466" d="M415 407 Q399 427 372 444 Q345 461 300 461 Q257 461 228.5 440 Q200 419 200 384 Q200 359 217 343 Q234 327 259.5 313.5 Q285 300 314.5 287 Q344 274 369.5 254.5 Q395 235 412 207 Q429 179 429 136 Q429 69 379.5 28.5 Q330 -12 248 -12 Q188 -12 146.5 13.5 Q105 39 80 77 L133 119 Q151 91 181.5 70.5 Q212 50 250 50 Q295 50 327.5 72 Q360 94 360 137 Q360 164 343.5 182.5 Q327 201 301.5 215.5 Q276 230 247 243 Q218 256 192.5 274.5 Q167 293 150.5 318 Q134 343 134 382 Q134 415 147 441 Q160 467 182.5 485.5 Q205 504 235.5 513.5 Q266 523 301 523 Q360 523 400.5 502.5 Q441 482 464 445 L415 407 Z M336 576 L267 576 L431 732 L533 732 L336 576 Z " />
<glyph glyph-name="Scircumflex" unicode="&#x15c;" horiz-adv-x="591" d="M517 578 Q502 607 474 628 Q446 649 394 649 Q329 649 292 617.5 Q255 586 255 536 Q255 499 276.5 476 Q298 453 330 434.5 Q362 416 400 399 Q438 382 470 357.5 Q502 333 523.5 297 Q545 261 545 206 Q545 152 526.5 111 Q508 70 475.5 43 Q443 16 399.5 2 Q356 -12 305 -12 Q264 -12 230.5 -1 Q197 10 171 29.5 Q145 49 127 74.5 Q109 100 101 130 L165 155 Q203 51 311 51 Q386 51 429.5 89 Q473 127 473 200 Q473 242 451.5 269.5 Q430 297 398 317.5 Q366 338 329 356 Q292 374 260 396.5 Q228 419 206.5 450.5 Q185 482 185 530 Q185 569 200 602.5 Q215 636 243 660 Q271 684 310.5 698 Q350 712 399 712 Q435 712 464.5 703 Q494 694 517 679.5 Q540 665 555.5 645.5 Q571 626 579 605 L517 578 Z M531 766 L437 867 L308 766 L246 766 L408 922 L485 922 L594 766 L531 766 Z " />
<glyph glyph-name="scircumflex" unicode="&#x15d;" horiz-adv-x="466" d="M415 407 Q399 427 372 444 Q345 461 300 461 Q257 461 228.5 440 Q200 419 200 384 Q200 359 217 343 Q234 327 259.5 313.5 Q285 300 314.5 287 Q344 274 369.5 254.5 Q395 235 412 207 Q429 179 429 136 Q429 69 379.5 28.5 Q330 -12 248 -12 Q188 -12 146.5 13.5 Q105 39 80 77 L133 119 Q151 91 181.5 70.5 Q212 50 250 50 Q295 50 327.5 72 Q360 94 360 137 Q360 164 343.5 182.5 Q327 201 301.5 215.5 Q276 230 247 243 Q218 256 192.5 274.5 Q167 293 150.5 318 Q134 343 134 382 Q134 415 147 441 Q160 467 182.5 485.5 Q205 504 235.5 513.5 Q266 523 301 523 Q360 523 400.5 502.5 Q441 482 464 445 L415 407 Z M446 576 L352 677 L223 576 L161 576 L323 732 L400 732 L509 576 L446 576 Z " />
<glyph glyph-name="Scedilla" unicode="&#x15e;" horiz-adv-x="591" d="M279 -11 Q208 -4 162 35.5 Q116 75 101 130 L165 155 Q203 51 311 51 Q386 51 429.5 89 Q473 127 473 200 Q473 242 451.5 269.5 Q430 297 398 317.5 Q366 338 329 356 Q292 374 260 396.5 Q228 419 206.5 450.5 Q185 482 185 530 Q185 569 200 602.5 Q215 636 243 660 Q271 684 310.5 698 Q350 712 399 712 Q435 712 464.5 703 Q494 694 517 679.5 Q540 665 555.5 645.5 Q571 626 579 605 L517 578 Q502 607 474 628 Q446 649 394 649 Q329 649 292 617.5 Q255 586 255 536 Q255 499 276.5 476 Q298 453 330 434.5 Q362 416 400 399 Q438 382 470 357.5 Q502 333 523.5 297 Q545 261 545 206 Q545 154 528 114.5 Q511 75 481 47.5 Q451 20 410.5 5 Q370 -10 322 -12 L289 -55 Q338 -55 357.5 -77 Q377 -99 377 -127 Q377 -177 342.5 -205.5 Q308 -234 257 -234 Q225 -234 205.5 -223 Q186 -212 175 -198 L220 -171 Q225 -176 232.5 -181 Q240 -186 257 -186 Q279 -186 296.5 -171 Q314 -156 314 -133 Q314 -112 300 -99.5 Q286 -87 263 -87 Q238 -87 228 -92 L218 -77 L279 -11 Z " />
<glyph glyph-name="scedilla" unicode="&#x15f;" horiz-adv-x="466" d="M207 -8 Q163 0 131.5 22.5 Q100 45 80 77 L133 119 Q151 91 181.5 70.5 Q212 50 250 50 Q295 50 327.5 72 Q360 94 360 137 Q360 164 343.5 182 Q327 200 301.5 214.5 Q276 229 247 243 Q218 257 192.5 275 Q167 293 150.5 318.5 Q134 344 134 382 Q134 415 147 441 Q160 467 182.5 485.5 Q205 504 235.5 513.5 Q266 523 301 523 Q360 523 400.5 502.5 Q441 482 464 445 L415 407 Q399 427 372 444 Q345 461 300 461 Q257 461 228.5 440 Q200 419 200 384 Q200 359 217 342.5 Q234 326 259.5 313 Q285 300 314.5 287 Q344 274 369.5 255 Q395 236 412 207.5 Q429 179 429 136 Q429 69 379.5 28.5 Q330 -12 247 -12 L214 -55 Q263 -55 282.5 -77 Q302 -99 302 -127 Q302 -177 267.5 -205.5 Q233 -234 182 -234 Q150 -234 130.5 -223 Q111 -212 100 -198 L145 -171 Q150 -176 157.5 -181 Q165 -186 182 -186 Q204 -186 221.5 -171 Q239 -156 239 -133 Q239 -112 225 -99.5 Q211 -87 188 -87 Q163 -87 153 -92 L143 -77 L207 -8 Z " />
<glyph glyph-name="uni0162" unicode="&#x162;" horiz-adv-x="573" d="M233 -234 Q201 -234 181.5 -223 Q162 -212 151 -198 L196 -171 Q201 -176 208.5 -181 Q216 -186 233 -186 Q255 -186 272.5 -171 Q290 -156 290 -133 Q290 -112 276 -99.5 Q262 -87 239 -87 Q214 -87 204 -92 L194 -77 L266 0 L252 0 L364 637 L181 637 L191 700 L628 700 L618 637 L434 637 L322 0 L307 0 L265 -55 Q314 -55 333.5 -77 Q353 -99 353 -127 Q353 -177 318.5 -205.5 Q284 -234 233 -234 Z " />
<glyph glyph-name="uni0163" unicode="&#x163;" horiz-adv-x="375" d="M155 -234 Q123 -234 103.5 -223 Q84 -212 73 -198 L118 -171 Q123 -176 130.5 -181 Q138 -186 155 -186 Q177 -186 194.5 -171 Q212 -156 212 -133 Q212 -112 198 -99.5 Q184 -87 161 -87 Q136 -87 126 -92 L116 -77 L183 -5 Q159 5 148.5 27 Q138 49 138 78 Q138 94 141 112 L200 448 L116 448 L127 511 L211 511 L243 692 L318 722 L281 511 L405 511 L394 448 L270 448 L215 135 Q213 125 212 115.5 Q211 106 211 98 Q211 78 219.5 66 Q228 54 253 54 Q278 54 297 62.5 Q316 71 331 81 L310 8 Q289 -3 268.5 -7.5 Q248 -12 220 -12 L187 -55 Q236 -55 255.5 -77 Q275 -99 275 -127 Q275 -177 240.5 -205.5 Q206 -234 155 -234 Z " />
<glyph glyph-name="Tcaron" unicode="&#x164;" horiz-adv-x="573" d="M434 637 L322 0 L252 0 L364 637 L181 637 L191 700 L628 700 L618 637 L434 637 Z M453 766 L376 766 L268 922 L330 922 L424 821 L553 922 L616 922 L453 766 Z " />
<glyph glyph-name="tcaron" unicode="&#x165;" horiz-adv-x="439" d="M270 448 L215 135 Q213 125 212 115.5 Q211 106 211 98 Q211 78 219.5 66 Q228 54 253 54 Q278 54 297 62.5 Q316 71 331 81 L310 8 Q289 -3 268.5 -7.5 Q248 -12 220 -12 Q176 -12 157 14 Q138 40 138 78 Q138 94 141 112 L200 448 L116 448 L127 511 L211 511 L243 692 L318 722 L281 511 L405 511 L394 448 L270 448 Z M507 840 L505 832 Q494 771 470 715.5 Q446 660 390 612 L373 626 Q382 641 392 665.5 Q402 690 411 719.5 Q420 749 427.5 780.5 Q435 812 440 840 L507 840 Z " />
<glyph glyph-name="Tbar" unicode="&#x166;" horiz-adv-x="573" d="M434 637 L384 350 L507 350 L495 283 L372 283 L322 0 L252 0 L302 283 L178 283 L190 350 L314 350 L364 637 L181 637 L191 700 L628 700 L618 637 L434 637 Z " />
<glyph glyph-name="tbar" unicode="&#x167;" horiz-adv-x="395" d="M244 -12 Q200 -12 181 14 Q162 40 162 78 Q162 94 165 112 L187 238 L106 238 L117 301 L198 301 L224 448 L140 448 L151 511 L235 511 L267 692 L342 722 L305 511 L429 511 L418 448 L294 448 L268 301 L392 301 L381 238 L257 238 L239 135 Q237 125 236 115.5 Q235 106 235 98 Q235 78 243.5 66 Q252 54 277 54 Q302 54 321 62.5 Q340 71 355 81 L334 8 Q313 -3 292.5 -7.5 Q272 -12 244 -12 Z " />
<glyph glyph-name="Utilde" unicode="&#x168;" horiz-adv-x="674" d="M349 -12 Q304 -12 266 0 Q228 12 201 36.5 Q174 61 158.5 99 Q143 137 143 189 Q143 206 144.5 226 Q146 246 150 267 L226 700 L296 700 L219 261 Q213 223 213 192 Q213 150 224.5 122.5 Q236 95 255 79.5 Q274 64 299 57.5 Q324 51 351 51 Q383 51 413.5 60 Q444 69 469.5 92.5 Q495 116 515 156.5 Q535 197 546 260 L623 700 L693 700 L616 260 Q590 114 524.5 51 Q459 -12 349 -12 Z M548 792 Q522 792 502.5 800 Q483 808 465.5 817 Q448 826 432 834 Q416 842 398 842 Q380 842 365 830.5 Q350 819 345 796 L308 796 Q317 849 343.5 877.5 Q370 906 416 906 Q441 906 461 898 Q481 890 498 880.5 Q515 871 531 863 Q547 855 565 855 Q583 855 598.5 867 Q614 879 620 902 L656 902 Q646 849 619.5 820.5 Q593 792 548 792 Z " />
<glyph glyph-name="utilde" unicode="&#x169;" horiz-adv-x="559" d="M395 0 L404 49 Q380 17 346.5 2.5 Q313 -12 271 -12 Q197 -12 159 28 Q121 68 121 146 Q121 163 123 180 Q125 197 128 217 L179 511 L249 511 L194 199 Q192 187 191 175.5 Q190 164 190 154 Q190 98 217 74.5 Q244 51 282 51 Q307 51 330.5 58 Q354 65 373.5 82 Q393 99 407.5 127 Q422 155 430 197 L485 511 L555 511 L465 0 L395 0 Z M459 602 Q433 602 413.5 610 Q394 618 376.5 627 Q359 636 343 644 Q327 652 309 652 Q291 652 276 640.5 Q261 629 256 606 L219 606 Q228 659 254.5 687.5 Q281 716 327 716 Q352 716 372 708 Q392 700 409 690.5 Q426 681 442 673 Q458 665 476 665 Q494 665 509.5 677 Q525 689 531 712 L567 712 Q557 659 530.5 630.5 Q504 602 459 602 Z " />
<glyph glyph-name="Umacron" unicode="&#x16a;" horiz-adv-x="674" d="M349 -12 Q304 -12 266 0 Q228 12 201 36.5 Q174 61 158.5 99 Q143 137 143 189 Q143 206 144.5 226 Q146 246 150 267 L226 700 L296 700 L219 261 Q213 223 213 192 Q213 150 224.5 122.5 Q236 95 255 79.5 Q274 64 299 57.5 Q324 51 351 51 Q383 51 413.5 60 Q444 69 469.5 92.5 Q495 116 515 156.5 Q535 197 546 260 L623 700 L693 700 L616 260 Q590 114 524.5 51 Q459 -12 349 -12 Z M318 799 L329 860 L646 860 L635 799 L318 799 Z " />
<glyph glyph-name="umacron" unicode="&#x16b;" horiz-adv-x="559" d="M395 0 L404 49 Q380 17 346.5 2.5 Q313 -12 271 -12 Q197 -12 159 28 Q121 68 121 146 Q121 163 123 180 Q125 197 128 217 L179 511 L249 511 L194 199 Q192 187 191 175.5 Q190 164 190 154 Q190 98 217 74.5 Q244 51 282 51 Q307 51 330.5 58 Q354 65 373.5 82 Q393 99 407.5 127 Q422 155 430 197 L485 511 L555 511 L465 0 L395 0 Z M225 609 L236 670 L553 670 L542 609 L225 609 Z " />
<glyph glyph-name="Ubreve" unicode="&#x16c;" horiz-adv-x="674" d="M349 -12 Q304 -12 266 0 Q228 12 201 36.5 Q174 61 158.5 99 Q143 137 143 189 Q143 206 144.5 226 Q146 246 150 267 L226 700 L296 700 L219 261 Q213 223 213 192 Q213 150 224.5 122.5 Q236 95 255 79.5 Q274 64 299 57.5 Q324 51 351 51 Q383 51 413.5 60 Q444 69 469.5 92.5 Q495 116 515 156.5 Q535 197 546 260 L623 700 L693 700 L616 260 Q590 114 524.5 51 Q459 -12 349 -12 Z M475 771 Q436 771 407.5 781.5 Q379 792 360.5 809 Q342 826 333 849 Q324 872 324 896 Q324 914 327 932 L390 932 Q389 927 388.5 922 Q388 917 388 912 Q388 871 411.5 852 Q435 833 480 833 Q501 833 521.5 840 Q542 847 559 859.5 Q576 872 588 890.5 Q600 909 604 932 L670 932 Q664 899 649.5 869.5 Q635 840 611 818 Q587 796 553 783.5 Q519 771 475 771 Z " />
<glyph glyph-name="ubreve" unicode="&#x16d;" horiz-adv-x="559" d="M395 0 L404 49 Q380 17 346.5 2.5 Q313 -12 271 -12 Q197 -12 159 28 Q121 68 121 146 Q121 163 123 180 Q125 197 128 217 L179 511 L249 511 L194 199 Q192 187 191 175.5 Q190 164 190 154 Q190 98 217 74.5 Q244 51 282 51 Q307 51 330.5 58 Q354 65 373.5 82 Q393 99 407.5 127 Q422 155 430 197 L485 511 L555 511 L465 0 L395 0 Z M380 581 Q341 581 312.5 591.5 Q284 602 265.5 619 Q247 636 238 659 Q229 682 229 706 Q229 724 232 742 L295 742 Q294 737 293.5 732 Q293 727 293 722 Q293 681 316.5 662 Q340 643 385 643 Q406 643 426.5 650 Q447 657 464 669.5 Q481 682 493 700.5 Q505 719 509 742 L575 742 Q569 709 554.5 679.5 Q540 650 516 628 Q492 606 458 593.5 Q424 581 380 581 Z " />
<glyph glyph-name="Uring" unicode="&#x16e;" horiz-adv-x="674" d="M349 -12 Q304 -12 266 0 Q228 12 201 36.5 Q174 61 158.5 99 Q143 137 143 189 Q143 206 144.5 226 Q146 246 150 267 L226 700 L296 700 L219 261 Q213 223 213 192 Q213 150 224.5 122.5 Q236 95 255 79.5 Q274 64 299 57.5 Q324 51 351 51 Q383 51 413.5 60 Q444 69 469.5 92.5 Q495 116 515 156.5 Q535 197 546 260 L623 700 L693 700 L616 260 Q590 114 524.5 51 Q459 -12 349 -12 Z M457 730 Q437 730 420 738 Q403 746 391 759 Q379 772 372 789.5 Q365 807 365 827 Q365 854 376 877 Q387 900 405.5 917.5 Q424 935 448 945 Q472 955 497 955 Q537 955 563 927.5 Q589 900 589 860 Q589 834 577.5 810.5 Q566 787 547.5 769 Q529 751 505 740.5 Q481 730 457 730 Z M466 782 Q493 782 513 802.5 Q533 823 533 855 Q533 877 520.5 890 Q508 903 488 903 Q463 903 442.5 884 Q422 865 422 833 Q422 811 434.5 796.5 Q447 782 466 782 Z " />
<glyph glyph-name="uring" unicode="&#x16f;" horiz-adv-x="559" d="M395 0 L404 49 Q380 17 346.5 2.5 Q313 -12 271 -12 Q197 -12 159 28 Q121 68 121 146 Q121 163 123 180 Q125 197 128 217 L179 511 L249 511 L194 199 Q192 187 191 175.5 Q190 164 190 154 Q190 98 217 74.5 Q244 51 282 51 Q307 51 330.5 58 Q354 65 373.5 82 Q393 99 407.5 127 Q422 155 430 197 L485 511 L555 511 L465 0 L395 0 Z M363 540 Q343 540 326 548 Q309 556 297 569 Q285 582 278 599.5 Q271 617 271 637 Q271 664 282 687 Q293 710 311.5 727.5 Q330 745 354 755 Q378 765 403 765 Q443 765 469 737.5 Q495 710 495 670 Q495 644 483.5 620.5 Q472 597 453.5 579 Q435 561 411 550.5 Q387 540 363 540 Z M372 592 Q399 592 419 612.5 Q439 633 439 665 Q439 687 426.5 700 Q414 713 394 713 Q369 713 348.5 694 Q328 675 328 643 Q328 621 340.5 606.5 Q353 592 372 592 Z " />
<glyph glyph-name="Uhungarumlaut" unicode="&#x170;" horiz-adv-x="674" d="M349 -12 Q304 -12 266 0 Q228 12 201 36.5 Q174 61 158.5 99 Q143 137 143 189 Q143 206 144.5 226 Q146 246 150 267 L226 700 L296 700 L219 261 Q213 223 213 192 Q213 150 224.5 122.5 Q236 95 255 79.5 Q274 64 299 57.5 Q324 51 351 51 Q383 51 413.5 60 Q444 69 469.5 92.5 Q495 116 515 156.5 Q535 197 546 260 L623 700 L693 700 L616 260 Q590 114 524.5 51 Q459 -12 349 -12 Z M404 766 L336 766 L499 922 L602 922 L404 766 Z M594 766 L526 766 L689 922 L733 922 L792 922 L594 766 Z " />
<glyph glyph-name="uhungarumlaut" unicode="&#x171;" horiz-adv-x="559" d="M395 0 L404 49 Q380 17 346.5 2.5 Q313 -12 271 -12 Q197 -12 159 28 Q121 68 121 146 Q121 163 123 180 Q125 197 128 217 L179 511 L249 511 L194 199 Q192 187 191 175.5 Q190 164 190 154 Q190 98 217 74.5 Q244 51 282 51 Q307 51 330.5 58 Q354 65 373.5 82 Q393 99 407.5 127 Q422 155 430 197 L485 511 L555 511 L465 0 L395 0 Z M310 576 L242 576 L405 732 L508 732 L310 576 Z M500 576 L432 576 L595 732 L639 732 L698 732 L500 576 Z " />
<glyph glyph-name="Uogonek" unicode="&#x172;" horiz-adv-x="674" d="M321 -234 Q283 -234 257 -213.5 Q231 -193 231 -153 Q231 -108 260.5 -72.5 Q290 -37 338 -12 Q295 -11 259.5 2 Q224 15 198 39.5 Q172 64 157.5 101 Q143 138 143 189 Q143 206 144.5 226 Q146 246 150 267 L226 700 L296 700 L219 261 Q213 223 213 192 Q213 150 224.5 122.5 Q236 95 255 79.5 Q274 64 299 57.5 Q324 51 351 51 Q383 51 413.5 60 Q444 69 469.5 92.5 Q495 116 515 156.5 Q535 197 546 260 L623 700 L693 700 L616 260 Q596 148 554.5 86.5 Q513 25 445 2 Q369 -28 330.5 -59 Q292 -90 292 -139 Q292 -163 305.5 -173.5 Q319 -184 336 -184 Q356 -184 369.5 -176.5 Q383 -169 393 -161 L424 -190 Q407 -207 381.5 -220.5 Q356 -234 321 -234 Z " />
<glyph glyph-name="uogonek" unicode="&#x173;" horiz-adv-x="559" d="M465 0 Q425 -12 397 -27.5 Q369 -43 351.5 -61.5 Q334 -80 326 -100 Q318 -120 318 -139 Q318 -163 331.5 -173.5 Q345 -184 362 -184 Q382 -184 395.5 -176.5 Q409 -169 418 -161 L450 -190 Q433 -207 407.5 -220.5 Q382 -234 347 -234 Q309 -234 283 -213.5 Q257 -193 257 -153 Q257 -125 267.5 -101.5 Q278 -78 296.5 -59 Q315 -40 340 -25.5 Q365 -11 395 0 L404 49 Q380 17 346.5 2.5 Q313 -12 271 -12 Q197 -12 159 28 Q121 68 121 146 Q121 163 123 180 Q125 197 128 217 L179 511 L249 511 L194 199 Q192 187 191 175.5 Q190 164 190 154 Q190 98 217 74.5 Q244 51 282 51 Q307 51 330.5 58 Q354 65 373.5 82 Q393 99 407.5 127 Q422 155 430 197 L485 511 L555 511 L465 0 Z " />
<glyph glyph-name="Wcircumflex" unicode="&#x174;" horiz-adv-x="815" d="M878 700 L620 0 L558 0 L504 516 Q503 520 503 524.5 Q503 529 502 534 Q501 539 501 544 Q499 538 496 533 Q494 528 492 523.5 Q490 519 488 516 L246 0 L184 0 L184 700 L252 700 L252 199 L252 151 Q256 159 260 168 Q263 176 266.5 184 Q270 192 273 198 L498 700 L551 700 L600 191 Q600 187 600.5 180 Q601 173 602 166 Q603 158 604 149 Q607 157 610 165 Q612 172 614 178 Q616 184 618 188 L803 700 L878 700 Z M643 766 L549 867 L420 766 L358 766 L520 922 L597 922 L706 766 L643 766 Z " />
<glyph glyph-name="wcircumflex" unicode="&#x175;" horiz-adv-x="697" d="M534 0 L466 0 L422 342 Q421 347 420.5 354.5 Q420 362 419 368 Q418 375 417 382 Q413 373 409 365 Q406 358 402.5 350.5 Q399 343 397 339 L240 0 L173 0 L136 511 L203 511 L223 124 Q223 118 223.5 111.5 Q224 105 224 99 Q224 92 225 85 Q228 93 232 100 Q235 106 237.5 112.5 Q240 119 242 124 L413 511 L462 511 L502 124 Q503 116 503.5 109 Q504 102 505 97 Q506 91 506 85 Q508 91 511 98 Q513 104 515.5 110.5 Q518 117 521 124 L671 511 L741 511 L534 0 Z M555 576 L461 677 L332 576 L270 576 L432 732 L509 732 L618 576 L555 576 Z " />
<glyph glyph-name="Ycircumflex" unicode="&#x176;" horiz-adv-x="613" d="M271 0 L320 280 L177 700 L248 700 L363 340 L610 700 L682 700 L386 273 L338 0 L271 0 Z M549 766 L455 867 L326 766 L264 766 L426 922 L503 922 L612 766 L549 766 Z " />
<glyph glyph-name="ycircumflex" unicode="&#x177;" horiz-adv-x="512" d="M183 -194 L112 -194 L222 16 L129 511 L201 511 L261 140 Q262 133 263 126.5 Q264 120 265 115 Q266 109 267 103 Q266 103 273.5 116 Q281 129 287 140 L481 511 L557 511 L183 -194 Z M452 576 L358 677 L229 576 L167 576 L329 732 L406 732 L515 576 L452 576 Z " />
<glyph glyph-name="Zacute" unicode="&#x179;" horiz-adv-x="633" d="M78 0 L87 49 L581 638 L213 638 L223 700 L678 700 L669 649 L180 62 L566 62 L555 0 L78 0 Z M457 766 L388 766 L552 922 L654 922 L457 766 Z " />
<glyph glyph-name="zacute" unicode="&#x17a;" horiz-adv-x="500" d="M78 0 L86 43 L401 448 L176 448 L187 511 L508 511 L501 469 L182 63 L428 63 L417 0 L78 0 Z M372 576 L303 576 L467 732 L569 732 L372 576 Z " />
<glyph glyph-name="Zdotaccent" unicode="&#x17b;" horiz-adv-x="633" d="M78 0 L87 49 L581 638 L213 638 L223 700 L678 700 L669 649 L180 62 L566 62 L555 0 L78 0 Z M455 796 Q438 796 427.5 807.5 Q417 819 417 836 Q417 859 433.5 874.5 Q450 890 471 890 Q488 890 498.5 879 Q509 868 509 851 Q509 828 493 812 Q477 796 455 796 Z " />
<glyph glyph-name="zdotaccent" unicode="&#x17c;" horiz-adv-x="500" d="M78 0 L86 43 L401 448 L176 448 L187 511 L508 511 L501 469 L182 63 L428 63 L417 0 L78 0 Z M355 606 Q338 606 327.5 617.5 Q317 629 317 646 Q317 669 333.5 684.5 Q350 700 371 700 Q388 700 398.5 689 Q409 678 409 661 Q409 638 393 622 Q377 606 355 606 Z " />
<glyph glyph-name="longs" unicode="&#x17f;" horiz-adv-x="333" d="M112 0 L217 598 Q228 661 259.5 686.5 Q291 712 340 712 Q366 712 386 704.5 Q406 697 420 688 L410 627 Q397 635 379 641 Q361 647 341 647 Q315 647 303 630 Q291 613 286 587 L182 0 L112 0 Z " />
<glyph glyph-name="uni01CD" unicode="&#x1cd;" horiz-adv-x="657" d="M521 0 L492 181 L229 181 L138 0 L64 0 L420 700 L476 700 L589 0 L521 0 Z M439 523 Q437 536 434 556 Q431 576 430 586 Q426 576 417 556.5 Q408 537 401 523 L260 243 L483 243 L439 523 Z M494 766 L417 766 L309 922 L371 922 L465 821 L594 922 L657 922 L494 766 Z " />
<glyph glyph-name="uni01CE" unicode="&#x1ce;" horiz-adv-x="532" d="M379 0 L386 42 Q362 22 325 5 Q288 -12 239 -12 Q170 -12 131 28.5 Q92 69 92 135 Q92 187 110.5 224.5 Q129 262 158.5 285 Q188 308 225.5 319 Q263 330 301 330 Q349 330 380.5 317.5 Q412 305 430 292 L438 337 Q443 362 443 380 Q443 404 435.5 420 Q428 436 416.5 445.5 Q405 455 390 458.5 Q375 462 360 462 Q339 462 316.5 457 Q294 452 273 444 Q252 436 232.5 426.5 Q213 417 198 407 L189 467 Q222 487 268 505 Q314 523 365 523 Q390 523 415.5 516.5 Q441 510 462 494 Q483 478 496 452.5 Q509 427 509 388 Q509 368 504 340 L444 0 L379 0 Z M251 49 Q295 49 335.5 72.5 Q376 96 401 124 L418 225 Q403 237 372.5 253 Q342 269 300 269 Q272 269 246.5 262 Q221 255 201 239.5 Q181 224 169 200 Q157 176 157 142 Q157 102 180.5 75.5 Q204 49 251 49 Z M415 576 L338 576 L230 732 L292 732 L386 631 L515 732 L578 732 L415 576 Z " />
<glyph glyph-name="uni01CF" unicode="&#x1cf;" horiz-adv-x="290" d="M110 0 L233 700 L303 700 L180 0 L110 0 Z M314 766 L237 766 L129 922 L191 922 L285 821 L414 922 L477 922 L314 766 Z " />
<glyph glyph-name="uni01D0" unicode="&#x1d0;" horiz-adv-x="261" d="M95 0 L185 511 L252 511 L162 0 L95 0 Z M265 576 L188 576 L80 732 L142 732 L236 631 L365 732 L428 732 L265 576 Z " />
<glyph glyph-name="uni01D1" unicode="&#x1d1;" horiz-adv-x="712" d="M362 51 Q432 51 484 87 Q536 123 569.5 179.5 Q603 236 619.5 304 Q636 372 636 436 Q636 475 627.5 513.5 Q619 552 599.5 582 Q580 612 549.5 630.5 Q519 649 475 649 Q404 649 352.5 613 Q301 577 267 520.5 Q233 464 216.5 396 Q200 328 200 264 Q200 222 209 183.5 Q218 145 237.5 115.5 Q257 86 287.5 68.5 Q318 51 362 51 Z M362 -12 Q300 -12 256 11 Q212 34 184 72 Q156 110 143 160 Q130 210 130 264 Q130 339 150.5 418 Q171 497 214 562.5 Q257 628 321.5 670 Q386 712 475 712 Q538 712 582 688 Q626 664 653.5 625 Q681 586 693.5 536.5 Q706 487 706 436 Q706 361 685.5 282 Q665 203 622.5 137.5 Q580 72 515 30 Q450 -12 362 -12 Z M530 766 L453 766 L345 922 L407 922 L501 821 L630 922 L693 922 L530 766 Z " />
<glyph glyph-name="uni01D2" unicode="&#x1d2;" horiz-adv-x="547" d="M279 -12 Q231 -12 196.5 5.5 Q162 23 140 51.5 Q118 80 108 117.5 Q98 155 98 196 Q98 251 114 309 Q130 367 162 414.5 Q194 462 242.5 492.5 Q291 523 357 523 Q406 523 440.5 505 Q475 487 497 457.5 Q519 428 528.5 390.5 Q538 353 538 315 Q538 260 522.5 202 Q507 144 475 96.5 Q443 49 394 18.5 Q345 -12 279 -12 Z M279 51 Q327 51 363 75.5 Q399 100 422 138.5 Q445 177 456.5 224 Q468 271 468 315 Q468 342 462 368 Q456 394 443 414.5 Q430 435 408.5 447.5 Q387 460 357 460 Q309 460 273.5 435.5 Q238 411 214.5 372.5 Q191 334 179.5 287.5 Q168 241 168 196 Q168 168 174 142 Q180 116 193.5 95.5 Q207 75 228 63 Q249 51 279 51 Z M412 576 L335 576 L227 732 L289 732 L383 631 L512 732 L575 732 L412 576 Z " />
<glyph glyph-name="uni01D3" unicode="&#x1d3;" horiz-adv-x="674" d="M349 -12 Q304 -12 266 0 Q228 12 201 36.5 Q174 61 158.5 99 Q143 137 143 189 Q143 206 144.5 226 Q146 246 150 267 L226 700 L296 700 L219 261 Q213 223 213 192 Q213 150 224.5 122.5 Q236 95 255 79.5 Q274 64 299 57.5 Q324 51 351 51 Q383 51 413.5 60 Q444 69 469.5 92.5 Q495 116 515 156.5 Q535 197 546 260 L623 700 L693 700 L616 260 Q590 114 524.5 51 Q459 -12 349 -12 Z M506 766 L429 766 L321 922 L383 922 L477 821 L606 922 L669 922 L506 766 Z " />
<glyph glyph-name="uni01D4" unicode="&#x1d4;" horiz-adv-x="559" d="M395 0 L404 49 Q380 17 346.5 2.5 Q313 -12 271 -12 Q197 -12 159 28 Q121 68 121 146 Q121 163 123 180 Q125 197 128 217 L179 511 L249 511 L194 199 Q192 187 191 175.5 Q190 164 190 154 Q190 98 217 74.5 Q244 51 282 51 Q307 51 330.5 58 Q354 65 373.5 82 Q393 99 407.5 127 Q422 155 430 197 L485 511 L555 511 L465 0 L395 0 Z M414 576 L337 576 L229 732 L291 732 L385 631 L514 732 L577 732 L414 576 Z " />
<glyph glyph-name="AEacute" unicode="&#x1fc;" horiz-adv-x="861" d="M434 0 L466 181 L217 181 L86 0 L2 0 L516 700 L885 700 L875 637 L616 637 L573 394 L740 394 L728 331 L562 331 L515 63 L795 63 L784 0 L434 0 Z M477 243 L547 642 Q539 630 528 614 Q517 598 506 583 L262 243 L477 243 Z M622 766 L553 766 L717 922 L819 922 L622 766 Z " />
<glyph glyph-name="aeacute" unicode="&#x1fd;" horiz-adv-x="849" d="M600 -12 Q544 -12 502 18.5 Q460 49 442 102 Q397 40 343.5 14 Q290 -12 239 -12 Q172 -12 132 27.5 Q92 67 92 135 Q92 185 109 222 Q126 259 155.5 283 Q185 307 223.5 318.5 Q262 330 305 330 Q336 330 368.5 321 Q401 312 430 292 L438 337 Q443 362 443 378 Q443 422 420.5 442 Q398 462 360 462 Q339 462 316.5 457 Q294 452 273 444 Q252 436 232.5 426.5 Q213 417 198 407 L189 467 Q222 487 268.5 505 Q315 523 365 523 Q419 523 453.5 498 Q488 473 499 434 Q518 459 540 476.5 Q562 494 585 504 Q608 514 630.5 518.5 Q653 523 673 523 Q760 523 803.5 474.5 Q847 426 847 336 Q847 297 840 270.5 Q833 244 828 227 L494 227 Q493 220 493 217.5 Q493 215 493 209 Q493 134 522.5 93.5 Q552 53 608 53 Q634 53 664 62 Q694 71 726 93 L757 42 Q728 20 688 4 Q648 -12 600 -12 Z M251 49 Q273 49 294.5 56 Q316 63 335.5 74.5 Q355 86 372 100.5 Q389 115 402 130 L418 225 Q398 242 367 255.5 Q336 269 300 269 Q271 269 245.5 262 Q220 255 200 239.5 Q180 224 168.5 200 Q157 176 157 142 Q157 102 180.5 75.5 Q204 49 251 49 Z M673 460 Q645 460 618.5 449.5 Q592 439 569.5 418 Q547 397 529.5 365 Q512 333 502 290 L772 290 Q776 306 777.5 320.5 Q779 335 779 348 Q779 405 748.5 432.5 Q718 460 673 460 Z M537 576 L468 576 L632 732 L734 732 L537 576 Z " />
<glyph glyph-name="Oslashacute" unicode="&#x1fe;" horiz-adv-x="712" d="M87 -12 L167 86 Q157 103 150 125 Q143 147 138.5 171 Q134 195 132 218.5 Q130 242 130 263 Q130 312 138.5 364.5 Q147 417 165 467 Q183 517 211.5 561.5 Q240 606 279 639.5 Q318 673 368.5 692.5 Q419 712 482 712 Q533 712 570 697.5 Q607 683 633 658 L678 712 L749 712 L669 614 Q679 597 686 575 Q693 553 697.5 529 Q702 505 704 480.5 Q706 456 706 435 Q706 362 686.5 283 Q667 204 625 138.5 Q583 73 516 30.5 Q449 -12 354 -12 Q303 -12 265 2.5 Q227 17 200 42 L156 -12 L87 -12 Z M200 267 Q200 254 201 238 Q202 222 204 205.5 Q206 189 209 174 Q212 159 217 148 L588 602 Q568 624 539 636.5 Q510 649 470 649 Q400 649 349 613 Q298 577 265 521 Q232 465 216 397.5 Q200 330 200 267 Z M365 51 Q436 51 487 87 Q538 123 571 178.5 Q604 234 620 301 Q636 368 636 430 Q636 443 635 459.5 Q634 476 631.5 492.5 Q629 509 625.5 524.5 Q622 540 617 552 L246 98 Q266 76 295 63.5 Q324 51 365 51 Z M530 766 L461 766 L625 922 L727 922 L530 766 Z " />
<glyph glyph-name="oslashacute" unicode="&#x1ff;" horiz-adv-x="547" d="M507 442 Q523 414 530.5 381 Q538 348 538 315 Q538 260 522.5 202 Q507 144 475 96.5 Q443 49 394 18.5 Q345 -12 279 -12 Q240 -12 210.5 -1 Q181 10 159 30 L124 -12 L61 -12 L129 68 Q113 95 105.5 128 Q98 161 98 196 Q98 251 114 309 Q130 367 162 414.5 Q194 462 242.5 492.5 Q291 523 357 523 Q396 523 425 511.5 Q454 500 476 480 L512 523 L575 523 L507 442 Z M168 196 Q168 178 170.5 160.5 Q173 143 178 127 L432 428 Q418 443 400 451.5 Q382 460 357 460 Q309 460 273.5 435.5 Q238 411 214.5 372.5 Q191 334 179.5 287.5 Q168 241 168 196 Z M279 51 Q327 51 363 75.5 Q399 100 422 138.5 Q445 177 456.5 224 Q468 271 468 315 Q468 332 465.5 349.5 Q463 367 457 383 L204 82 Q217 68 235.5 59.5 Q254 51 279 51 Z M415 576 L346 576 L510 732 L612 732 L415 576 Z " />
<glyph glyph-name="uni0218" unicode="&#x218;" horiz-adv-x="591" d="M517 578 Q502 607 474 628 Q446 649 394 649 Q329 649 292 617.5 Q255 586 255 536 Q255 499 276.5 476 Q298 453 330 434.5 Q362 416 400 399 Q438 382 470 357.5 Q502 333 523.5 297 Q545 261 545 206 Q545 152 526.5 111 Q508 70 475.5 43 Q443 16 399.5 2 Q356 -12 305 -12 Q264 -12 230.5 -1 Q197 10 171 29.5 Q145 49 127 74.5 Q109 100 101 130 L165 155 Q203 51 311 51 Q386 51 429.5 89 Q473 127 473 200 Q473 242 451.5 269.5 Q430 297 398 317.5 Q366 338 329 356 Q292 374 260 396.5 Q228 419 206.5 450.5 Q185 482 185 530 Q185 569 200 602.5 Q215 636 243 660 Q271 684 310.5 698 Q350 712 399 712 Q435 712 464.5 703 Q494 694 517 679.5 Q540 665 555.5 645.5 Q571 626 579 605 L517 578 Z M221 -239 Q225 -236 232 -230 Q239 -224 246.5 -214.5 Q254 -205 261 -192.5 Q268 -180 272 -165 Q249 -165 238.5 -152 Q228 -139 228 -122 Q228 -93 248 -75.5 Q268 -58 289 -58 Q306 -58 318.5 -71 Q331 -84 331 -107 Q331 -143 309.5 -179.5 Q288 -216 238 -244 L221 -239 Z " />
<glyph glyph-name="uni0219" unicode="&#x219;" horiz-adv-x="466" d="M415 407 Q399 427 372 444 Q345 461 300 461 Q257 461 228.5 440 Q200 419 200 384 Q200 359 217 343 Q234 327 259.5 313.5 Q285 300 314.5 287 Q344 274 369.5 254.5 Q395 235 412 207 Q429 179 429 136 Q429 69 379.5 28.5 Q330 -12 248 -12 Q188 -12 146.5 13.5 Q105 39 80 77 L133 119 Q151 91 181.5 70.5 Q212 50 250 50 Q295 50 327.5 72 Q360 94 360 137 Q360 164 343.5 182.5 Q327 201 301.5 215.5 Q276 230 247 243 Q218 256 192.5 274.5 Q167 293 150.5 318 Q134 343 134 382 Q134 415 147 441 Q160 467 182.5 485.5 Q205 504 235.5 513.5 Q266 523 301 523 Q360 523 400.5 502.5 Q441 482 464 445 L415 407 Z M148 -239 Q152 -236 159 -230 Q166 -224 173.5 -214.5 Q181 -205 188 -192.5 Q195 -180 199 -165 Q176 -165 165.5 -152 Q155 -139 155 -122 Q155 -93 175 -75.5 Q195 -58 216 -58 Q233 -58 245.5 -71 Q258 -84 258 -107 Q258 -143 236.5 -179.5 Q215 -216 165 -244 L148 -239 Z " />
<glyph glyph-name="uni021A" unicode="&#x21a;" horiz-adv-x="573" d="M434 637 L322 0 L252 0 L364 637 L181 637 L191 700 L628 700 L618 637 L434 637 Z M214 -239 Q218 -236 225 -230 Q232 -224 239.5 -214.5 Q247 -205 254 -192.5 Q261 -180 265 -165 Q242 -165 231.5 -152 Q221 -139 221 -122 Q221 -93 241 -75.5 Q261 -58 282 -58 Q299 -58 311.5 -71 Q324 -84 324 -107 Q324 -143 302.5 -179.5 Q281 -216 231 -244 L214 -239 Z " />
<glyph glyph-name="uni021B" unicode="&#x21b;" horiz-adv-x="375" d="M270 448 L215 135 Q213 125 212 115.5 Q211 106 211 98 Q211 78 219.5 66 Q228 54 253 54 Q278 54 297 62.5 Q316 71 331 81 L310 8 Q289 -3 268.5 -7.5 Q248 -12 220 -12 Q176 -12 157 14 Q138 40 138 78 Q138 94 141 112 L200 448 L116 448 L127 511 L211 511 L243 692 L318 722 L281 511 L405 511 L394 448 L270 448 Z M129 -239 Q133 -236 140 -230 Q147 -224 154.5 -214.5 Q162 -205 169 -192.5 Q176 -180 180 -165 Q157 -165 146.5 -152 Q136 -139 136 -122 Q136 -93 156 -75.5 Q176 -58 197 -58 Q214 -58 226.5 -71 Q239 -84 239 -107 Q239 -143 217.5 -179.5 Q196 -216 146 -244 L129 -239 Z " />
<glyph glyph-name="dotlessj" unicode="&#x237;" horiz-adv-x="269" d="M-46 -158 Q-10 -155 13.5 -147.5 Q37 -140 52 -128 Q67 -116 74.5 -99 Q82 -82 86 -60 L187 511 L257 511 L155 -67 Q147 -112 129.5 -140.5 Q112 -169 88 -185 Q64 -201 35 -207.5 Q6 -214 -24 -216 L-46 -158 Z " />
<glyph glyph-name="firsttonechinese" unicode="&#x2c9;" horiz-adv-x="343" d="M157 609 L168 670 L485 670 L474 609 L157 609 Z " />
<glyph glyph-name="uni03BC" unicode="&#x3bc;" horiz-adv-x="564" d="M399 0 L410 58 Q380 17 342.5 2.5 Q305 -12 272 -12 Q243 -12 214 2 Q185 16 172 50 L133 -173 L58 -203 L184 511 L254 511 L199 201 Q197 187 195 174.5 Q193 162 193 142 Q193 127 197.5 110.5 Q202 94 212.5 81 Q223 68 241 59.5 Q259 51 287 51 Q310 51 333.5 59 Q357 67 377 84 Q397 101 412 129 Q427 157 434 197 L489 511 L557 511 L467 0 L399 0 Z " />
<glyph glyph-name="Wgrave" unicode="&#x1e80;" horiz-adv-x="815" d="M878 700 L620 0 L558 0 L504 516 Q503 520 503 524.5 Q503 529 502 534 Q501 539 501 544 Q499 538 496 533 Q494 528 492 523.5 Q490 519 488 516 L246 0 L184 0 L184 700 L252 700 L252 199 L252 151 Q256 159 260 168 Q263 176 266.5 184 Q270 192 273 198 L498 700 L551 700 L600 191 Q600 187 600.5 180 Q601 173 602 166 Q603 158 604 149 Q607 157 610 165 Q612 172 614 178 Q616 184 618 188 L803 700 L878 700 Z M529 766 L385 922 L488 922 L597 766 L529 766 Z " />
<glyph glyph-name="wgrave" unicode="&#x1e81;" horiz-adv-x="697" d="M534 0 L466 0 L422 342 Q421 347 420.5 354.5 Q420 362 419 368 Q418 375 417 382 Q413 373 409 365 Q406 358 402.5 350.5 Q399 343 397 339 L240 0 L173 0 L136 511 L203 511 L223 124 Q223 118 223.5 111.5 Q224 105 224 99 Q224 92 225 85 Q228 93 232 100 Q235 106 237.5 112.5 Q240 119 242 124 L413 511 L462 511 L502 124 Q503 116 503.5 109 Q504 102 505 97 Q506 91 506 85 Q508 91 511 98 Q513 104 515.5 110.5 Q518 117 521 124 L671 511 L741 511 L534 0 Z M442 576 L298 732 L401 732 L510 576 L442 576 Z " />
<glyph glyph-name="Wacute" unicode="&#x1e82;" horiz-adv-x="815" d="M878 700 L620 0 L558 0 L504 516 Q503 520 503 524.5 Q503 529 502 534 Q501 539 501 544 Q499 538 496 533 Q494 528 492 523.5 Q490 519 488 516 L246 0 L184 0 L184 700 L252 700 L252 199 L252 151 Q256 159 260 168 Q263 176 266.5 184 Q270 192 273 198 L498 700 L551 700 L600 191 Q600 187 600.5 180 Q601 173 602 166 Q603 158 604 149 Q607 157 610 165 Q612 172 614 178 Q616 184 618 188 L803 700 L878 700 Z M536 766 L467 766 L631 922 L733 922 L536 766 Z " />
<glyph glyph-name="wacute" unicode="&#x1e83;" horiz-adv-x="697" d="M534 0 L466 0 L422 342 Q421 347 420.5 354.5 Q420 362 419 368 Q418 375 417 382 Q413 373 409 365 Q406 358 402.5 350.5 Q399 343 397 339 L240 0 L173 0 L136 511 L203 511 L223 124 Q223 118 223.5 111.5 Q224 105 224 99 Q224 92 225 85 Q228 93 232 100 Q235 106 237.5 112.5 Q240 119 242 124 L413 511 L462 511 L502 124 Q503 116 503.5 109 Q504 102 505 97 Q506 91 506 85 Q508 91 511 98 Q513 104 515.5 110.5 Q518 117 521 124 L671 511 L741 511 L534 0 Z M449 576 L380 576 L544 732 L646 732 L449 576 Z " />
<glyph glyph-name="Wdieresis" unicode="&#x1e84;" horiz-adv-x="815" d="M878 700 L620 0 L558 0 L504 516 Q503 520 503 524.5 Q503 529 502 534 Q501 539 501 544 Q499 538 496 533 Q494 528 492 523.5 Q490 519 488 516 L246 0 L184 0 L184 700 L252 700 L252 199 L252 151 Q256 159 260 168 Q263 176 266.5 184 Q270 192 273 198 L498 700 L551 700 L600 191 Q600 187 600.5 180 Q601 173 602 166 Q603 158 604 149 Q607 157 610 165 Q612 172 614 178 Q616 184 618 188 L803 700 L878 700 Z M466 806 Q449 806 438.5 817.5 Q428 829 428 846 Q428 869 444.5 884.5 Q461 900 482 900 Q499 900 509.5 889 Q520 878 520 861 Q520 838 504 822 Q488 806 466 806 Z M626 806 Q609 806 598 817.5 Q587 829 587 846 Q587 869 604.5 884.5 Q622 900 642 900 Q659 900 669.5 889 Q680 878 680 861 Q680 838 663.5 822 Q647 806 626 806 Z " />
<glyph glyph-name="wdieresis" unicode="&#x1e85;" horiz-adv-x="697" d="M534 0 L466 0 L422 342 Q421 347 420.5 354.5 Q420 362 419 368 Q418 375 417 382 Q413 373 409 365 Q406 358 402.5 350.5 Q399 343 397 339 L240 0 L173 0 L136 511 L203 511 L223 124 Q223 118 223.5 111.5 Q224 105 224 99 Q224 92 225 85 Q228 93 232 100 Q235 106 237.5 112.5 Q240 119 242 124 L413 511 L462 511 L502 124 Q503 116 503.5 109 Q504 102 505 97 Q506 91 506 85 Q508 91 511 98 Q513 104 515.5 110.5 Q518 117 521 124 L671 511 L741 511 L534 0 Z M379 616 Q362 616 351.5 627.5 Q341 639 341 656 Q341 679 357.5 694.5 Q374 710 395 710 Q412 710 422.5 699 Q433 688 433 671 Q433 648 417 632 Q401 616 379 616 Z M539 616 Q522 616 511 627.5 Q500 639 500 656 Q500 679 517.5 694.5 Q535 710 555 710 Q572 710 582.5 699 Q593 688 593 671 Q593 648 576.5 632 Q560 616 539 616 Z " />
<glyph glyph-name="Ygrave" unicode="&#x1ef2;" horiz-adv-x="613" d="M271 0 L320 280 L177 700 L248 700 L363 340 L610 700 L682 700 L386 273 L338 0 L271 0 Z M420 766 L276 922 L379 922 L488 766 L420 766 Z " />
<glyph glyph-name="ygrave" unicode="&#x1ef3;" horiz-adv-x="512" d="M183 -194 L112 -194 L222 16 L129 511 L201 511 L261 140 Q262 133 263 126.5 Q264 120 265 115 Q266 109 267 103 Q266 103 273.5 116 Q281 129 287 140 L481 511 L557 511 L183 -194 Z M348 576 L204 732 L307 732 L416 576 L348 576 Z " />
<glyph glyph-name="afii00208" unicode="&#x2015;" horiz-adv-x="602" d="M65 257 L76 317 L638 317 L627 257 L65 257 Z " />
<glyph glyph-name="quotereversed" unicode="&#x201b;" horiz-adv-x="238" d="M215 461 Q204 471 193.5 486 Q183 501 175.5 519 Q168 537 163.5 556.5 Q159 576 159 595 Q159 627 167 649.5 Q175 672 188 686 Q201 700 216.5 706 Q232 712 247 712 Q267 712 281 697.5 Q295 683 295 659 Q295 625 270.5 604.5 Q246 584 212 584 Q212 539 222.5 509 Q233 479 239 467 L215 461 Z " />
<glyph glyph-name="minute" unicode="&#x2032;" horiz-adv-x="228" d="M207 730 L298 730 L186 425 L134 425 L207 730 Z " />
<glyph glyph-name="second" unicode="&#x2033;" horiz-adv-x="420" d="M207 730 L298 730 L186 425 L134 425 L207 730 Z M399 730 L490 730 L378 425 L352 425 L326 425 L399 730 Z " />
<glyph glyph-name="nsuperior" unicode="&#x207f;" horiz-adv-x="462" d="M372 283 L415 527 Q417 539 418.5 551.5 Q420 564 420 574 Q420 614 402 631.5 Q384 649 356 649 Q318 649 287.5 620.5 Q257 592 246 531 L202 283 L133 283 L207 702 L276 702 L267 651 Q289 677 314 694.5 Q339 712 377 712 Q425 712 456 679.5 Q487 647 487 580 Q487 566 485.5 548 Q484 530 479 504 L440 283 L372 283 Z " />
<glyph glyph-name="afii08941" unicode="&#x20a4;" horiz-adv-x="601" d="M102 0 L116 79 Q138 89 156.5 106 Q175 123 190 145 Q205 167 215.5 191 Q226 215 233 239 L139 239 L149 296 L241 296 Q242 300 242 315 Q242 326 240 339.5 Q238 353 236 362 L161 362 L171 419 L220 419 Q216 434 215 451.5 Q214 469 214 476 Q214 522 230 565 Q246 608 278.5 640.5 Q311 673 359 692.5 Q407 712 470 712 Q534 712 575.5 694 Q617 676 648 647 L611 583 Q602 592 589.5 603 Q577 614 559 623 Q541 632 516.5 638.5 Q492 645 458 645 Q415 645 383.5 631.5 Q352 618 331 595.5 Q310 573 299.5 543.5 Q289 514 289 483 Q289 474 290.5 455 Q292 436 297 419 L482 419 L472 362 L313 362 Q315 354 316 345 Q317 336 317 326 Q317 318 316.5 310 Q316 302 315 296 L460 296 L450 239 L305 239 Q289 191 255 147.5 Q221 104 172 65 L558 65 L547 0 L102 0 Z " />
<glyph glyph-name="afii61248" unicode="&#x2105;" horiz-adv-x="1003" d="M285 272 Q219 272 186 317.5 Q153 363 153 435 Q153 498 168.5 549 Q184 600 212.5 636.5 Q241 673 280 692.5 Q319 712 366 712 Q407 712 431 699.5 Q455 687 467.5 671 Q480 655 484 639.5 Q488 624 489 618 L419 592 Q417 601 413.5 610.5 Q410 620 401.5 628 Q393 636 380 641.5 Q367 647 347 647 Q314 647 290.5 630.5 Q267 614 251.5 586 Q236 558 228.5 520.5 Q221 483 221 441 Q221 392 239 364.5 Q257 337 294 337 Q335 337 356 353.5 Q377 370 392 397 L446 374 Q437 354 421.5 335.5 Q406 317 385.5 303 Q365 289 340 280.5 Q315 272 285 272 Z M746 -12 Q675 -12 636 33 Q597 78 597 156 Q597 218 614 268.5 Q631 319 661 354.5 Q691 390 732.5 409 Q774 428 823 428 Q895 428 933.5 382.5 Q972 337 972 259 Q972 196 955.5 146 Q939 96 909 61 Q879 26 837.5 7 Q796 -12 746 -12 Z M757 53 Q794 53 822 67.5 Q850 82 868.5 108.5 Q887 135 896 171.5 Q905 208 905 252 Q905 304 882 333.5 Q859 363 812 363 Q747 363 706.5 310.5 Q666 258 666 167 Q666 114 690 83.5 Q714 53 757 53 Z M214 -12 L801 712 L872 712 L285 -12 L214 -12 Z " />
<glyph glyph-name="afii61289" unicode="&#x2113;" horiz-adv-x="456" d="M264 -12 Q228 -12 201.5 11.5 Q175 35 175 82 Q175 94 176.5 111 Q178 128 182 149 L199 249 Q178 236 162 228 Q146 220 138 217 L127 274 Q133 276 143 281 Q153 286 165 292 Q177 298 189 305 Q201 312 211 318 L247 523 Q256 577 271.5 613 Q287 649 307 671 Q327 693 350.5 702.5 Q374 712 400 712 Q438 712 464.5 681.5 Q491 651 491 586 Q491 528 467.5 481.5 Q444 435 410.5 398 Q377 361 339.5 333 Q302 305 274 286 L250 150 Q248 136 246.5 121 Q245 106 245 95 Q245 70 256 61.5 Q267 53 282 53 Q305 53 325.5 65 Q346 77 361 91 L373 41 Q353 19 324.5 3.5 Q296 -12 264 -12 Z M386 645 Q374 645 364.5 639 Q355 633 346 618 Q337 603 329 576.5 Q321 550 314 509 L287 360 Q329 390 355 419 Q381 448 395.5 475.5 Q410 503 415 529.5 Q420 556 420 580 Q420 608 412 626.5 Q404 645 386 645 Z " />
<glyph glyph-name="afii61352" unicode="&#x2116;" horiz-adv-x="1180" d="M518 0 L310 498 Q308 502 303 513.5 Q298 525 293 538 Q287 553 280 570 Q277 553 274 538 Q272 525 270 513.5 Q268 502 267 497 L180 0 L110 0 L233 700 L298 700 L523 161 Q524 159 526.5 153 Q529 147 532 139 Q536 130 540 120 Q541 129 543 137 Q545 144 545.5 150.5 Q546 157 547 160 L642 700 L712 700 L589 0 L518 0 Z M756 130 L766 185 L1102 185 L1092 130 L756 130 Z M949 272 Q878 272 839 317 Q800 362 800 440 Q800 502 817 552.5 Q834 603 864 638.5 Q894 674 935.5 693 Q977 712 1027 712 Q1098 712 1136.5 666.5 Q1175 621 1175 543 Q1175 480 1158.5 430 Q1142 380 1112 345 Q1082 310 1040.5 291 Q999 272 949 272 Z M960 337 Q996 337 1024 351.5 Q1052 366 1070.5 392 Q1089 418 1098.5 454.5 Q1108 491 1108 536 Q1108 588 1085 617.5 Q1062 647 1015 647 Q949 647 908.5 595 Q868 543 868 452 Q868 398 892 367.5 Q916 337 960 337 Z " />
<glyph glyph-name="Ohm" unicode="&#x2126;" horiz-adv-x="730" d="M431 0 L444 71 Q504 128 541 173 Q578 218 598.5 261 Q619 304 626 349 Q633 394 633 453 Q633 489 625 524 Q617 559 599 586.5 Q581 614 551 631.5 Q521 649 478 649 Q413 649 366.5 618.5 Q320 588 289 539 Q258 490 243.5 429.5 Q229 369 229 308 Q229 240 250 183.5 Q271 127 311 71 L298 0 L92 0 L103 63 L265 63 Q214 102 187 166.5 Q160 231 160 310 Q160 378 179 449 Q198 520 238 578.5 Q278 637 340.5 674.5 Q403 712 490 712 Q550 712 591 689.5 Q632 667 657 631 Q682 595 693 550.5 Q704 506 704 461 Q704 324 647 225 Q590 126 484 63 L648 63 L637 0 L431 0 Z " />
</font>
</svg>
