<svg viewBox="0 0 24 24" xmlns="http://www.w3.org/2000/svg"><path d="M10.0049 20.9995H3.00488C2.4526 20.9995 2.00488 20.5518 2.00488 19.9995V3.99951C2.00488 3.44723 2.4526 2.99951 3.00488 2.99951H10.0049C10.0049 4.10408 10.9003 4.99951 12.0049 4.99951C13.1095 4.99951 14.0049 4.10408 14.0049 2.99951H21.0049C21.5572 2.99951 22.0049 3.44723 22.0049 3.99951V19.9995C22.0049 20.5518 21.5572 20.9995 21.0049 20.9995H14.0049C14.0049 19.8949 13.1095 18.9995 12.0049 18.9995C10.9003 18.9995 10.0049 19.8949 10.0049 20.9995ZM6.00488 7.99951V15.9995H8.00488V7.99951H6.00488ZM16.0049 7.99951V15.9995H18.0049V7.99951H16.0049Z"/></svg>