<?xml version="1.0" standalone="no"?>
<!DOCTYPE svg PUBLIC "-//W3C//DTD SVG 1.1//EN" "http://www.w3.org/Graphics/SVG/1.1/DTD/svg11.dtd" >
<svg>
<metadata>
Created by FontForge 20090622 at Fri Jul 17 05:35:57 2015
 By deploy user
[Lato] Copyright (c) 2011-2014 by tyPoland Lukasz Dziedzic (http://www.typoland.com/) with Reserved Font Name "Lato". Licensed under the SIL Open Font License, Version 1.1 (http://scripts.sil.org/OFL).  [Source Han Sans]Copyright  2014, 2015 Adobe Systems
</metadata>
<defs>
<font id="SpoqaHanSansJP-Bold" horiz-adv-x="1024" >
  <font-face 
    font-family="SpoqaHanSansJP-Bold"
    font-weight="700"
    font-stretch="normal"
    units-per-em="1024"
    panose-1="2 11 3 2 2 2 3 2 2 7"
    ascent="881"
    descent="-143"
    x-height="573"
    cap-height="758"
    bbox="-55 -250 1040 1034"
    underline-thickness="51"
    underline-position="-103"
    unicode-range="U+0020-U+FFE5"
  />
<missing-glyph 
d="M402 258v220h220v-220h-220z" />
    <glyph glyph-name=".notdef" 
d="M402 258v220h220v-220h-220z" />
    <glyph glyph-name="space" unicode=" " horiz-adv-x="232" 
 />
    <glyph glyph-name="exclam" unicode="!" horiz-adv-x="379" 
d="M119 636l-5 142h151l-5 -142l-21 -378h-99zM189 -14q-39 0 -66 28t-27 70t27 70t66 28q40 0 67.5 -28t27.5 -70t-27.5 -70t-67.5 -28z" />
    <glyph glyph-name="quotedbl" unicode="&#x22;" horiz-adv-x="589" 
d="M94 656l-5 143h154l-5 -143l-30 -220h-84zM350 656l-5 143h154l-5 -143l-30 -220h-84z" />
    <glyph glyph-name="numbersign" unicode="#" horiz-adv-x="603" 
d="M127 222h-87v97h98l18 141h-93v98h105l26 197h96l-25 -197h115l26 197h97l-24 -197h89v-98h-101l-17 -141h95v-97h-107l-26 -222h-101l28 222h-114l-27 -222h-100zM350 319l18 141h-115l-17 -141h114z" />
    <glyph glyph-name="dollar" unicode="$" horiz-adv-x="644" 
d="M283 1q-65 5 -124 30t-105 74l81 99q30 -31 69.5 -51.5t78.5 -27.5v200l-54 20q-26 12 -52.5 28.5t-48.5 40t-35 54t-13 70.5q0 39 14.5 73t41 60t64 44t83.5 24v108h95v-107q49 -7 95 -27t84 -58l-77 -89q-45 42 -102 55v-199l57 -22q32 -14 59.5 -30t48 -37.5t32 -49.5
t11.5 -66q0 -89 -57.5 -142t-150.5 -70v-109h-95v105zM456 207q0 31 -20.5 46t-57.5 32v-156q15 4 29.5 9.5t25 14.5t17 21.5t6.5 32.5zM210 543q0 -25 20.5 -47t52.5 -33v157q-32 -9 -52.5 -29.5t-20.5 -47.5z" />
    <glyph glyph-name="percent" unicode="%" horiz-adv-x="921" 
d="M32 562v10q0 91 49.5 138.5t129.5 47.5q39 0 72 -12t58 -34t39 -55t14 -77v-15q0 -44 -14 -78t-39 -58.5t-58 -36t-72 -11.5q-80 0 -129.5 46.5t-49.5 134.5zM276 562v18q0 57 -16.5 81t-48.5 24q-34 0 -51.5 -23.5t-17.5 -77.5v-22q0 -58 17.5 -81.5t51.5 -23.5
q35 0 50 23.5t15 81.5zM642 765h101l-481 -761h-104zM524 213v14q0 44 14 78t38 58t57 36t72 12q79 0 129 -46t50 -131v-14q0 -87 -50 -136t-129 -49q-81 0 -131 46t-50 132zM772 213v21q0 56 -17 79.5t-50 23.5q-35 0 -50 -23.5t-15 -79.5v-21q0 -55 15 -80t50 -25
q33 0 50 23.5t17 81.5z" />
    <glyph glyph-name="ampersand" unicode="&#x26;" horiz-adv-x="729" 
d="M36 197q-2 41 8.5 75t30.5 61.5t49.5 50t63.5 39.5q-32 40 -48 77t-17 78q-2 46 13.5 81t43 59t65 36.5t80.5 13.5q88 4 142.5 -39t57.5 -121q2 -38 -9.5 -67.5t-33 -54t-51.5 -44.5t-63 -38l152 -172q39 62 45 147l110 3q-5 -65 -28 -124t-56 -108l127 -141h-159l-49 53
q-39 -32 -89.5 -51.5t-107.5 -21.5q-129 -5 -201.5 48t-75.5 160zM449 133l-199 224q-39 -25 -63.5 -57t-22.5 -82q2 -63 41 -99t113 -33q39 1 71 13.5t60 33.5zM301 479l9 -12q39 21 69 54t29 78q-1 39 -24 60.5t-53 20.5q-37 -2 -60 -23.5t-21 -66.5q1 -30 14.5 -57
t36.5 -54z" />
    <glyph glyph-name="quotesingle" unicode="'" horiz-adv-x="333" 
d="M94 656l-5 143h154l-5 -143l-30 -220h-84z" />
    <glyph glyph-name="parenleft" unicode="(" horiz-adv-x="387" 
d="M240 -165q-73 119 -113 247.5t-40 283.5q0 153 40 281.5t113 247.5l94 -40q-65 -113 -95 -238t-30 -251q0 -128 30 -253t95 -238z" />
    <glyph glyph-name="parenright" unicode=")" horiz-adv-x="387" 
d="M53 -125q65 113 95 238t30 253q0 126 -30 251t-95 238l93 40q74 -119 114 -247.5t40 -281.5q0 -155 -40.5 -283.5t-113.5 -247.5z" />
    <glyph glyph-name="asterisk" unicode="*" horiz-adv-x="518" 
d="M104 475l68 117l-122 54l25 76l131 -30l13 135h81l12 -135l131 30l25 -76l-123 -54l69 -117l-65 -47l-90 102l-90 -102z" />
    <glyph glyph-name="plus" unicode="+" horiz-adv-x="603" 
d="M246 330h-207v106h207v218h111v-218h207v-106h-207v-218h-111v218z" />
    <glyph glyph-name="comma" unicode="," horiz-adv-x="243" 
d="M61 111h142l-76 -214h-108z" />
    <glyph glyph-name="hyphen" unicode="-" horiz-adv-x="463" 
d="M50 436h364v-107h-364v107z" />
    <glyph glyph-name="period" unicode="." horiz-adv-x="333" 
d="M166 -14q-40 0 -66.5 28t-26.5 70t26.5 70t66.5 28q41 0 67.5 -28t26.5 -70t-26.5 -70t-67.5 -28z" />
    <glyph glyph-name="slash" unicode="/" horiz-adv-x="407" 
d="M273 876h105l-261 -1011h-105z" />
    <glyph glyph-name="zero" unicode="0" horiz-adv-x="613" 
d="M568 555q23 -72 23 -175q0 -101 -23 -175q-11 -36 -25.5 -68t-32.5 -55q-18 -24 -42 -41.5t-49 -31.5q-26 -12 -54.5 -17.5t-58.5 -5.5q-28 0 -57 5.5t-53 17.5q-26 14 -49 31.5t-42 41.5q-19 23 -33.5 55t-26.5 68q-10 38 -15 81t-5 94q0 99 20 175q12 36 26.5 67.5
t33.5 55.5q19 23 42 41t49 32q24 12 53 17.5t57 5.5q30 0 58.5 -5.5t54.5 -17.5q25 -14 49 -32t42 -41q18 -24 32.5 -55.5t25.5 -67.5zM362 110q14 6 24.5 18t21.5 28q20 31 31 87q13 52 13 137q0 83 -13 137q-11 55 -31 87q-11 16 -21.5 27.5t-24.5 18.5q-29 13 -56 13
q-25 0 -54 -13q-13 -7 -24 -18.5t-21 -27.5q-21 -33 -31 -87q-12 -54 -12 -137q0 -85 12 -137q10 -55 31 -87q10 -16 21 -28t24 -18q29 -13 54 -13q27 0 56 13z" />
    <glyph glyph-name="one" unicode="1" horiz-adv-x="613" 
d="M414 773v-773h-134v549q0 12 0.5 25t1.5 26l-122 -100l-78 86h1l221 187h110z" />
    <glyph glyph-name="two" unicode="2" horiz-adv-x="613" 
d="M572 0h-529v76l257 258l27.5 28.5t24.5 27.5q12 14 21.5 27t17.5 26q8 15 14 27.5t10 27.5q8 27 8 57q0 27 -8 48q-7 22 -23 35q-13 13 -35 21q-18 8 -45 8q-46 0 -78 -24q-14 -11 -24 -27.5t-17 -36.5q-4 -9 -6 -17t-4 -14q-2 -7 -3 -13l-124 19v1q7 55 31 98
q24 42 57 70q36 29 79 42q46 14 96 14q55 0 98 -15q47 -18 76 -45q31 -29 49 -70q18 -40 18 -90q0 -45 -13 -79q-12 -36 -33 -69q-11 -17 -23.5 -33t-26.5 -31l-28.5 -31l-29.5 -32l-170 -173q11 3 22 5.5t23 4.5t23.5 3t23.5 1h244v-125z" />
    <glyph glyph-name="three" unicode="3" horiz-adv-x="613" 
d="M539 337q33 -45 33 -114q0 -55 -20 -101q-22 -44 -58 -75q-35 -30 -84 -46q-49 -15 -102 -15q-28 0 -54 3.5t-47 9.5q-42 13 -75 40t-54 64q-11 19 -21 41t-18 46v1l117 48l8 -22q4 -10 10 -23t15 -28l14.5 -19t15.5 -17q18 -15 37 -22q22 -10 51 -10q32 0 58 12
q25 11 42 27q8 9 14 18.5t10 20.5q8 23 8 43q0 27 -6 50q-7 24 -23 38q-19 16 -54 25q-33 9 -93 9h-1v96h1q47 0 80 8q31 9 50 24t27 36q3 11 5 22.5t2 24.5q0 54 -30 82q-29 28 -80 28q-48 0 -76 -25q-31 -25 -43 -64q-2 -5 -3.5 -12.5t-4.5 -14.5q-2 -8 -4 -18l-125 21v1
q9 56 31 97q23 41 58 71q35 28 78 42q46 14 97 14q53 0 96 -15q42 -16 74 -42q30 -28 46 -64t16 -79q0 -18 -1.5 -34.5t-6.5 -30.5q-7 -28 -24 -48q-15 -22 -39 -36q-20 -13 -48 -23q66 -20 101 -65z" />
    <glyph glyph-name="four" unicode="4" horiz-adv-x="613" 
d="M595 293v-105h-97v-188h-118v188h-303l-57 107l355 477h123v-479h97zM380 293v250v8t2 9v20q1 5 1 17q0 4 0.5 8.5t0.5 9.5l-233 -322h229z" />
    <glyph glyph-name="five" unicode="5" horiz-adv-x="612" 
d="M541 352q16 -42 16 -92q0 -62 -21 -113q-21 -49 -61 -87q-38 -34 -91 -55q-51 -19 -115 -19q-17 0 -34.5 1.5t-33.5 5.5q-17 4 -31.5 8.5t-29.5 10.5q-14 7 -27.5 14.5t-25.5 15.5q-25 15 -43 34l-1 1l67 92q8 -6 15 -10l11.5 -9.5t9.5 -6.5q16 -10 32 -18q17 -10 42 -19
q23 -9 58 -9t62 13q27 10 46 31q18 22 28 50q9 28 9 63q0 61 -36 97q-38 35 -106 35q-56 0 -112 -20h-1l-83 23v1l65 375h380v-118h-287l-28 -162q26 5 49.5 8t43.5 3q62 0 108 -19q44 -16 78 -50q31 -32 47 -75z" />
    <glyph glyph-name="six" unicode="6" horiz-adv-x="613" 
d="M559 346q19 -43 19 -101q0 -56 -20 -101q-20 -48 -55 -83q-18 -17 -40 -31t-46 -24q-52 -20 -112 -20q-31 0 -59 4.5t-51 14.5q-52 21 -84 55q-35 35 -54 86q-18 50 -18 111q0 54 21 112q12 28 28.5 58t40.5 60l207 278h168l-2 -2l-229 -279l-7 -9l-6 -8q-4 -4 -10 -12
q18 8 44 15q24 6 56 6q22 0 43.5 -3t41.5 -11q42 -15 73 -43q31 -30 51 -73zM444 236q0 16 -2.5 31t-7.5 27q-11 28 -28 45q-19 17 -45 28q-26 9 -57 9q-15 0 -29 -2.5t-27 -7.5q-27 -12 -43 -30q-9 -9 -16.5 -20.5t-12.5 -23.5q-9 -27 -9 -55q0 -30 8 -58q10 -27 26 -45
q17 -17 43 -29q12 -5 27 -7.5t31 -2.5q30 0 57 11q26 10 45 29q10 10 17 21t12 24q11 26 11 56z" />
    <glyph glyph-name="seven" unicode="7" horiz-adv-x="613" 
d="M575 766v-90l-322 -676h-144l1 2l288 583l19.5 33t20.5 29h-383v119h520z" />
    <glyph glyph-name="eight" unicode="8" horiz-adv-x="613" 
d="M541 327q33 -48 33 -116q0 -49 -19 -93q-20 -42 -55 -71t-85 -46q-49 -15 -109 -15t-109 15q-49 16 -84 46q-36 29 -56 71q-19 44 -19 93q0 68 34 116q33 47 101 69q-55 24 -81 66q-29 42 -29 103q0 45 19 82q16 38 50 67q30 26 76 44q44 15 98 15q53 0 98 -15
q22 -8 41.5 -19t34.5 -25q34 -29 50 -67q19 -37 19 -82q0 -58 -29 -103q-26 -42 -81 -66q68 -22 102 -69zM362 99q13 5 23 11.5t18 14.5q18 17 25 39q8 20 8 49q0 63 -34 94q-35 33 -96 33q-60 0 -96 -33q-34 -31 -34 -94q0 -29 8 -49q7 -22 25 -39q8 -8 18.5 -14.5
t22.5 -11.5q24 -9 56 -9t56 9zM256 663l-19 -11t-16 -13q-14 -16 -20 -35q-6 -18 -6 -41q0 -11 1 -22t4 -22q7 -21 18 -38q15 -17 35 -25q20 -11 53 -11t53 11q20 8 35 25q12 17 19 38q5 24 5 44q0 23 -6 41q-8 18 -21 35q-7 8 -15.5 13l-19.5 11q-21 9 -50 9q-28 0 -50 -9z
" />
    <glyph glyph-name="nine" unicode="9" horiz-adv-x="613" 
d="M548 628q17 -49 17 -104q0 -36 -6 -67q-3 -17 -7.5 -32t-9.5 -30q-14 -31 -28 -57q-16 -29 -36 -56l-199 -282h-168l2 2l238 298q5 5 9 10.5l8 11.5l6 8l6 8q-12 -8 -25.5 -13.5t-27.5 -9.5q-33 -9 -68 -9q-39 0 -79 15q-39 14 -68 41q-30 28 -49 70q-18 40 -18 96
q0 51 20 98q18 45 54 80q35 34 83 53q49 20 107 20q59 0 107 -18q23 -10 43 -23t37 -30q32 -32 52 -80zM254 659q-25 -10 -40 -26q-8 -9 -14.5 -19.5t-11.5 -22.5q-9 -24 -9 -52q0 -63 33 -98q33 -32 93 -32q32 0 56 9q26 11 42 27t26 41q8 25 8 52q0 30 -9 55q-9 24 -27 42
q-9 8 -19 14t-23 11q-23 10 -52 10q-27 0 -53 -11z" />
    <glyph glyph-name="colon" unicode=":" horiz-adv-x="333" 
d="M166 375q-40 0 -66.5 27.5t-26.5 69.5q0 43 26.5 70.5t66.5 27.5q41 0 67.5 -27.5t26.5 -70.5q0 -42 -26.5 -69.5t-67.5 -27.5zM166 -14q-40 0 -66.5 28t-26.5 70t26.5 70t66.5 28q41 0 67.5 -28t26.5 -70t-26.5 -70t-67.5 -28z" />
    <glyph glyph-name="semicolon" unicode=";" horiz-adv-x="333" 
d="M166 375q-40 0 -66.5 27.5t-26.5 69.5q0 43 26.5 70.5t66.5 27.5q41 0 67.5 -27.5t26.5 -70.5q0 -42 -26.5 -69.5t-67.5 -27.5zM54 -136q60 22 91.5 58.5t31.5 81.5h-9q-37 0 -65.5 23t-28.5 66q0 41 28.5 65t68.5 24q52 0 80.5 -39t28.5 -109q0 -90 -50.5 -155.5
t-143.5 -96.5z" />
    <glyph glyph-name="less" unicode="&#x3c;" horiz-adv-x="484" 
d="M39 307v114l399 280v-134l-280 -201l280 -198v-141z" />
    <glyph glyph-name="equal" unicode="=" horiz-adv-x="603" 
d="M39 569h525v-107h-525v107zM39 304h525v-107h-525v107z" />
    <glyph glyph-name="greater" unicode="&#x3e;" horiz-adv-x="487" 
d="M49 27v141l281 198l-281 201v134l400 -280v-114z" />
    <glyph glyph-name="question" unicode="?" horiz-adv-x="526" 
d="M247 -14q-40 0 -66.5 28t-26.5 70t26.5 70t66.5 28q41 0 67.5 -28t26.5 -70t-26.5 -70t-67.5 -28zM464 658q7 -16 9.5 -32t2.5 -31q0 -50 -10 -80q-7 -16 -14.5 -29.5t-16.5 -24.5q-16 -22 -37 -38q-19 -15 -38 -34q-10 -8 -18.5 -17.5t-15.5 -20.5q-9 -10 -13 -23.5
t-7 -30.5l-2 -41h-116v48q3 44 16 74q11 30 28 52q15 19 36 37q10 6 18 13.5t16 16.5l14 16.5t12 17.5q5 11 8.5 23t3.5 27q0 24 -6.5 42.5t-18.5 29.5q-20 26 -60 26q-27 0 -46 -11q-8 -8 -16.5 -15.5t-13.5 -15.5q-7 -10 -11 -21t-6 -22q-6 -17 -6 -36h-128q1 23 5 44
t10 40q8 23 19.5 43.5t25.5 36.5t30.5 29.5t37.5 21.5q21 9 43.5 14.5t48.5 5.5q63 0 108 -20q44 -19 70 -50q27 -29 38 -65z" />
    <glyph glyph-name="at" unicode="@" horiz-adv-x="1031" 
d="M489 -195q-87 0 -165 27t-137.5 80.5t-94.5 135t-35 190.5q0 119 41 217.5t111.5 168.5t163.5 108t197 38q93 0 167.5 -29.5t127.5 -83.5t81 -128.5t28 -163.5q0 -79 -23.5 -138.5t-60.5 -99t-82.5 -59.5t-89.5 -20q-49 0 -85.5 22.5t-44.5 65.5h-2q-13 -17 -29.5 -31.5
t-35 -24.5t-38 -16t-38.5 -6q-66 0 -107.5 46.5t-41.5 125.5q0 52 17.5 102t48 90t73 64.5t92.5 24.5q30 0 52.5 -14t36.5 -43h2l17 48h93l-50 -250q-27 -110 55 -110q27 0 52.5 15.5t46 43.5t33 68t12.5 90q0 65 -18.5 123t-57.5 101.5t-99 68.5t-144 25q-76 0 -147 -31
t-127.5 -87.5t-90 -137t-33.5 -179.5q0 -86 27 -150t73.5 -107t109 -64.5t132.5 -21.5q47 0 94.5 13t84.5 34l34 -84q-52 -30 -108 -43.5t-118 -13.5zM477 154q21 0 41 13t44 44l30 164q-23 38 -61 38q-27 0 -49.5 -17t-38.5 -42.5t-24.5 -56.5t-8.5 -58q0 -43 18.5 -64
t48.5 -21z" />
    <glyph glyph-name="A" unicode="A" horiz-adv-x="656" 
d="M416 312l-23 83q-17 60 -33 123.5t-33 124.5h-4l-31.5 -125l-33.5 -123l-22 -83h180zM449 195h-246l-53 -195h-154l243 758h178l243 -758h-158z" />
    <glyph glyph-name="B" unicode="B" horiz-adv-x="697" 
d="M93 758h251q58 0 108.5 -9.5t87.5 -31t57.5 -57t20.5 -89.5q0 -26 -7 -51.5t-20 -47.5t-32 -39t-44 -25v-6q62 -14 102 -58t40 -121q0 -57 -22.5 -99t-61.5 -69.5t-93 -41t-116 -13.5h-271v758zM333 450q73 0 105.5 26.5t32.5 72.5q0 50 -34 71.5t-102 21.5h-90v-192h88z
M350 117q78 0 119 28t41 87q0 56 -40.5 80.5t-119.5 24.5h-105v-220h105z" />
    <glyph glyph-name="C" unicode="C" horiz-adv-x="673" 
d="M402 -14q-71 0 -134.5 25.5t-110.5 74.5t-74.5 122t-27.5 168q0 93 28.5 166.5t76.5 125t112 78t136 26.5t128.5 -29t93.5 -68l-80 -96q-29 27 -62.5 45t-76.5 18t-80 -18t-63.5 -51.5t-42 -82t-15.5 -109.5q0 -62 14 -111t40 -83t62 -52t82 -18q49 0 87.5 21t68.5 53
l80 -94q-47 -55 -107.5 -83t-134.5 -28z" />
    <glyph glyph-name="D" unicode="D" horiz-adv-x="731" 
d="M93 758h208q87 0 156 -22.5t118 -69t75 -117.5t26 -167q0 -95 -26 -167t-74 -119.5t-115.5 -71.5t-151.5 -24h-216v758zM292 122q53 0 95.5 15t72 46t45.5 80t16 119t-16 118.5t-45.5 78.5t-72 44t-95.5 14h-47v-515h47z" />
    <glyph glyph-name="E" unicode="E" horiz-adv-x="630" 
d="M93 758h465v-126h-313v-175h266v-127h-266v-203h324v-127h-476v758z" />
    <glyph glyph-name="F" unicode="F" horiz-adv-x="599" 
d="M93 758h467v-126h-315v-198h269v-127h-269v-307h-152v758z" />
    <glyph glyph-name="G" unicode="G" horiz-adv-x="734" 
d="M419 -14q-78 0 -144.5 25.5t-115 74.5t-76.5 122t-28 168q0 93 29 166.5t78 125t115 78t142 26.5q82 0 139.5 -29.5t94.5 -67.5l-81 -96q-27 26 -61.5 44.5t-86.5 18.5q-47 0 -86.5 -18t-67.5 -51.5t-44 -82t-16 -109.5q0 -124 56.5 -194t167.5 -70q28 0 53.5 7t41.5 21
v150h-134v124h270v-342q-39 -38 -102.5 -64.5t-143.5 -26.5z" />
    <glyph glyph-name="H" unicode="H" horiz-adv-x="775" 
d="M93 758h152v-298h286v298h151v-758h-151v328h-286v-328h-152v758z" />
    <glyph glyph-name="I" unicode="I" horiz-adv-x="338" 
d="M93 758h152v-758h-152v758z" />
    <glyph glyph-name="J" unicode="J" horiz-adv-x="582" 
d="M258 -14q-83 0 -140 33t-95 100l104 77q23 -42 51.5 -60.5t61.5 -18.5q50 0 75.5 30.5t25.5 109.5v501h152v-513q0 -54 -14 -101t-42.5 -82t-73 -55.5t-105.5 -20.5z" />
    <glyph glyph-name="K" unicode="K" horiz-adv-x="702" 
d="M93 758h152v-329h3l251 329h167l-232 -298l273 -460h-167l-196 340l-99 -127v-213h-152v758z" />
    <glyph glyph-name="L" unicode="L" horiz-adv-x="591" 
d="M93 758h152v-631h307v-127h-459v758z" />
    <glyph glyph-name="M" unicode="M" horiz-adv-x="874" 
d="M93 758h168l129 -355q12 -35 23.5 -72l22.5 -74h5q13 37 23.5 74t22.5 72l126 355h168v-758h-138v316q0 27 2 59.5t4.5 65.5t5.5 65.5t7 58.5h-5l-61 -178l-117 -318h-87l-118 318l-60 178h-4q3 -26 6 -58.5l6 -65.5t5 -65.5t2 -59.5v-316h-136v758z" />
    <glyph glyph-name="N" unicode="N" horiz-adv-x="767" 
d="M93 758h155l220 -404l76 -164h5l-13 130.5t-7 135.5v302h144v-758h-154l-219 406l-77 162h-5q5 -61 12 -129.5t7 -134.5v-304h-144v758z" />
    <glyph glyph-name="O" unicode="O" horiz-adv-x="788" 
d="M394 -14q-76 0 -137.5 27t-107 78.5t-70 125t-24.5 165.5t24.5 165t70 123t107 76t137.5 26q75 0 137.5 -26.5t107.5 -76t69.5 -122.5t24.5 -165t-24.5 -165.5t-69.5 -125t-107.5 -78.5t-137.5 -27zM394 117q42 0 76.5 18.5t58.5 53t37 84t13 109.5q0 123 -50 191.5
t-135 68.5t-134.5 -68.5t-49.5 -191.5q0 -60 13 -109.5t37 -84t58 -53t76 -18.5z" />
    <glyph glyph-name="P" unicode="P" horiz-adv-x="683" 
d="M93 758h249q62 0 116.5 -12t94.5 -39.5t63 -73t23 -113.5q0 -64 -23 -112t-62.5 -78.5t-92.5 -45.5t-115 -15h-101v-269h-152v758zM336 389q154 0 154 131q0 67 -40 92.5t-119 25.5h-86v-249h91z" />
    <glyph glyph-name="Q" unicode="Q" horiz-adv-x="788" 
d="M210 382q0 -128 49.5 -200t134.5 -72t135 72t50 200q0 123 -50 191.5t-135 68.5t-134.5 -68.5t-49.5 -191.5zM766 -183q-20 -10 -52.5 -16.5t-74.5 -6.5q-58 0 -107 15t-89 41t-69.5 62.5t-48.5 79.5q-61 11 -110.5 43.5t-85 82t-55 116.5t-19.5 148q0 92 24.5 165
t70 123t107 76t137.5 26q75 0 137.5 -26.5t107.5 -76t69.5 -122.5t24.5 -165q0 -78 -18 -142.5t-50 -113.5t-78 -82t-103 -47q27 -43 73.5 -62t98.5 -19q25 0 46 3.5t37 8.5z" />
    <glyph glyph-name="R" unicode="R" horiz-adv-x="698" 
d="M245 407h98q74 0 112.5 30t38.5 91q0 62 -38.5 86t-112.5 24h-98v-231zM506 0l-156 287h-105v-287h-152v758h264q60 0 112 -11.5t90.5 -38t60.5 -70.5t22 -110q0 -86 -39.5 -139t-104.5 -79l177 -310h-169z" />
    <glyph glyph-name="S" unicode="S" horiz-adv-x="639" 
d="M319 -14q-76 0 -148.5 28.5t-127.5 81.5l87 105q41 -38 91.5 -61t101.5 -23q59 0 89.5 23.5t30.5 63.5q0 21 -8 35.5t-23 26.5t-36 21l-46 20l-102 43q-28 12 -56 29.5t-49.5 42t-34.5 57t-13 74.5q0 46 19.5 86.5t54 69.5t83 46t105.5 17q66 0 128.5 -25t108.5 -72
l-76 -95q-36 29 -75 45.5t-86 16.5q-50 0 -80 -21t-30 -59q0 -20 10 -35t26 -27.5t37.5 -22t45.5 -18.5l99 -42q70 -29 111.5 -78.5t41.5 -123.5q0 -46 -19 -88t-55 -73t-87.5 -49.5t-117.5 -18.5z" />
    <glyph glyph-name="T" unicode="T" horiz-adv-x="640" 
d="M244 632h-213v126h579v-126h-215v-632h-151v632z" />
    <glyph glyph-name="U" unicode="U" horiz-adv-x="766" 
d="M384 -14q-70 0 -124 20t-92.5 63t-58.5 110.5t-20 161.5v417h152v-430q0 -60 9.5 -100.5t28 -65t45 -35t60.5 -10.5t61 10.5t46.5 35t29.5 65t10 100.5v430h146v-417q0 -94 -19.5 -161.5t-57.5 -110.5t-92 -63t-124 -20z" />
    <glyph glyph-name="V" unicode="V" horiz-adv-x="633" 
d="M-5 758h159l100 -369q17 -63 31 -121.5t32 -123.5h6l32 123.5l32 121.5l98 369h154l-232 -758h-181z" />
    <glyph glyph-name="W" unicode="W" horiz-adv-x="937" 
d="M18 758h155l60 -370l18 -120t17 -122h4l24 122.5t25 119.5l88 370h129l88 -370l24 -119l24 -123h5q8 62 17 122.5l17 119.5l59 370h144l-140 -758h-188l-85 375l-17.5 88.5t-15.5 86.5h-4l-16 -86.5l-17 -88.5l-83 -375h-185z" />
    <glyph glyph-name="X" unicode="X" horiz-adv-x="642" 
d="M227 391l-199 367h168l75 -156q14 -27 26.5 -55.5t30.5 -64.5h5l26 64.5l24 55.5l72 156h159l-199 -374l213 -384h-168l-85 168q-15 30 -28.5 60t-31.5 65h-4q-14 -35 -27.5 -65l-27.5 -60l-81 -168h-161z" />
    <glyph glyph-name="Y" unicode="Y" horiz-adv-x="595" 
d="M221 278l-227 480h161l75 -185l33 -83l33 -84h4l34 84l34 83l75 185h158l-228 -480v-278h-152v278z" />
    <glyph glyph-name="Z" unicode="Z" horiz-adv-x="628" 
d="M44 91l353 541h-319v126h505v-90l-353 -541h357v-127h-543v91z" />
    <glyph glyph-name="bracketleft" unicode="[" horiz-adv-x="387" 
d="M103 879h235v-80h-122v-838h122v-82h-235v1000z" />
    <glyph glyph-name="backslash" unicode="\" horiz-adv-x="412" 
d="M394 -135h-104l-261 1011h104z" />
    <glyph glyph-name="bracketright" unicode="]" horiz-adv-x="387" 
d="M49 -39h122v838h-122v80h235v-1000h-235v82z" />
    <glyph glyph-name="asciicircum" unicode="^" horiz-adv-x="518" 
d="M213 756h95l149 -282h-97l-100 190l-97 -190h-102z" />
    <glyph glyph-name="underscore" unicode="_" horiz-adv-x="581" 
d="M14 17h553v-88h-553v88z" />
    <glyph glyph-name="grave" unicode="`" horiz-adv-x="641" 
d="M113 846l103 100l175 -208l-75 -72z" />
    <glyph glyph-name="a" unicode="a" horiz-adv-x="605" 
d="M222 -14q-39 0 -70 12.5t-53 35.5t-34.5 54t-12.5 68q0 92 78.5 142.5t251.5 69.5q-2 43 -23 71t-74 28q-40 0 -79 -15.5t-79 -38.5l-54 99q51 32 111.5 54t127.5 22q110 0 165 -64t55 -189v-335h-122l-12 61h-3q-38 -32 -81 -53.5t-92 -21.5zM271 103q33 0 58.5 15
t52.5 42v115q-52 -7 -88 -17t-57.5 -24t-31 -30.5t-9.5 -35.5q0 -34 21.5 -49.5t53.5 -15.5z" />
    <glyph glyph-name="b" unicode="b" horiz-adv-x="659" 
d="M369 -14q-39 0 -78.5 19.5t-75.5 54.5h-3l-13 -60h-118v817h149v-206l-3 -92q34 31 75 50t84 19q53 0 95 -21t71.5 -59t44.5 -92t15 -119q0 -74 -20.5 -131.5t-54 -97.5t-77.5 -61t-91 -21zM335 110q52 0 87.5 45t35.5 139q0 83 -27.5 126.5t-86.5 43.5q-30 0 -57 -15
t-57 -45v-251q27 -24 54 -33.5t51 -9.5z" />
    <glyph glyph-name="c" unicode="c" horiz-adv-x="540" 
d="M325 -14q-60 0 -111 20.5t-88.5 58.5t-59 94t-21.5 127t24 127.5t64 95t93.5 59t111.5 20.5q53 0 94 -18.5t73 -45.5l-72 -97q-21 18 -42 28t-46 10q-65 0 -105.5 -48.5t-40.5 -130.5q0 -81 40 -129t102 -48q31 0 59.5 12.5t52.5 33.5l59 -100q-41 -36 -90 -52.5
t-97 -16.5z" />
    <glyph glyph-name="d" unicode="d" horiz-adv-x="659" 
d="M283 -14q-54 0 -97.5 20.5t-74 59t-47 94t-16.5 126.5q0 70 20 126t54 95t77.5 60t89.5 21q49 0 81.5 -17t63.5 -46l-6 90v202h151v-817h-122l-13 59h-3q-31 -30 -72 -51.5t-86 -21.5zM322 110q29 0 55 13t51 46v252q-27 23 -53.5 33t-52.5 10q-25 0 -46.5 -11.5
t-37.5 -34t-25.5 -55t-9.5 -75.5q0 -90 30.5 -134t88.5 -44z" />
    <glyph glyph-name="e" unicode="e" horiz-adv-x="595" 
d="M330 -14q-61 0 -112.5 20.5t-90 58.5t-60.5 94t-22 127q0 69 22.5 125t60 95.5t85.5 60.5t99 21q60 0 104.5 -20.5t74.5 -57.5t45.5 -87t15.5 -110q0 -20 -2 -39t-5 -29h-354q10 -71 52.5 -107.5t106.5 -36.5q36 0 67.5 10.5t61.5 29.5l51 -92q-43 -30 -94.5 -46.5
t-105.5 -16.5zM423 344q0 58 -26.5 92.5t-82.5 34.5q-45 0 -80.5 -32t-44.5 -95h234z" />
    <glyph glyph-name="f" unicode="f" horiz-adv-x="381" 
d="M387 700q-14 6 -30 9.5t-30 3.5q-34 0 -52 -21t-18 -69v-50h108v-118h-108v-455h-151v455h-76v111l76 6v48q0 45 11 83.5t35 67t62 44.5t92 16q33 0 61 -6t48 -14z" />
    <glyph glyph-name="g" unicode="g" horiz-adv-x="611" 
d="M283 -249q-52 0 -95.5 9t-75.5 27t-50.5 46t-18.5 66q0 35 21.5 65.5t60.5 52.5v6q-23 14 -37.5 37t-14.5 59q0 33 19 61t44 46v4q-30 22 -53 61t-23 89t19 89t51.5 65.5t74 40t87.5 13.5q23 0 45.5 -4t40.5 -11h207v-110h-99q12 -14 19.5 -37.5t7.5 -49.5
q0 -48 -17.5 -84.5t-47 -61t-70 -37t-86.5 -12.5q-18 0 -36.5 3.5t-37.5 10.5q-12 -11 -18 -21.5t-6 -28.5q0 -23 19 -35t71 -12h97q104 0 158.5 -33.5t54.5 -109.5q0 -43 -21.5 -80.5t-62 -65t-98.5 -43t-129 -15.5zM292 274q38 0 63.5 27.5t25.5 78.5t-25 78t-64 27
t-64.5 -27t-25.5 -78t26 -78.5t64 -27.5zM305 -154q65 0 105.5 25t40.5 58q0 31 -25 41.5t-71 10.5h-69q-27 0 -46 2t-34 6q-38 -31 -38 -67t37 -56t100 -20z" />
    <glyph glyph-name="h" unicode="h" horiz-adv-x="655" 
d="M81 817h149v-206l-6 -107q35 33 78.5 58.5t101.5 25.5q94 0 136 -61t42 -170v-357h-151v339q0 67 -19 93.5t-62 26.5q-36 0 -61.5 -16.5t-58.5 -48.5v-394h-149v817z" />
    <glyph glyph-name="i" unicode="i" horiz-adv-x="311" 
d="M81 573h149v-573h-149v573zM157 666q-39 0 -64.5 23t-25.5 59t25.5 58.5t64.5 22.5t64 -22.5t25 -58.5t-25 -59t-64 -23z" />
    <glyph glyph-name="j" unicode="j" horiz-adv-x="312" 
d="M41 -234q-33 0 -56 4.5t-40 10.5l26 111q25 -8 47 -8q37 0 50.5 24t13.5 74v591h150v-587q0 -46 -9.5 -86t-31.5 -70.5t-59 -47t-91 -16.5zM158 666q-39 0 -64.5 23t-25.5 59t25.5 58.5t64.5 22.5t64.5 -22.5t25.5 -58.5t-25.5 -59t-64.5 -23z" />
    <glyph glyph-name="k" unicode="k" horiz-adv-x="620" 
d="M81 817h146v-491h4l199 247h164l-199 -234l217 -339h-162l-140 238l-83 -95v-143h-146v817z" />
    <glyph glyph-name="l" unicode="l" horiz-adv-x="317" 
d="M83 0v817h147v-817h-147z" />
    <glyph glyph-name="m" unicode="m" horiz-adv-x="987" 
d="M81 573h123l10 -76h4q36 38 78 64.5t98 26.5q62 0 99.5 -26t58.5 -75q39 42 82.5 71.5t99.5 29.5q92 0 135 -61t43 -170v-357h-150v339q0 67 -19.5 93.5t-60.5 26.5q-49 0 -111 -65v-394h-150v339q0 67 -19.5 93.5t-60.5 26.5q-49 0 -111 -65v-394h-149v573z" />
    <glyph glyph-name="n" unicode="n" horiz-adv-x="656" 
d="M81 573h123l10 -75h4q38 37 83 63.5t103 26.5q94 0 136 -61t42 -170v-357h-151v339q0 67 -19 93.5t-62 26.5q-36 0 -61.5 -16.5t-58.5 -48.5v-394h-149v573z" />
    <glyph glyph-name="o" unicode="o" horiz-adv-x="641" 
d="M321 -14q-55 0 -104.5 20.5t-87.5 58.5t-61 94t-23 127t23 127.5t61 95t87.5 59t104.5 20.5q53 0 103 -20.5t88 -59t61 -95t23 -127.5t-23 -127t-61 -94t-88 -58.5t-103 -20.5zM321 109q58 0 89.5 48t31.5 129q0 82 -31.5 130.5t-89.5 48.5q-59 0 -90.5 -48.5
t-31.5 -130.5q0 -81 31.5 -129t90.5 -48z" />
    <glyph glyph-name="p" unicode="p" horiz-adv-x="659" 
d="M81 573h123l10 -59h4q36 31 79.5 52.5t89.5 21.5q53 0 94.5 -21t71 -59t44.5 -92.5t15 -119.5q0 -74 -20.5 -132t-54 -97t-77.5 -60t-91 -21q-38 0 -74 16t-69 46l4 -94v-174h-149v793zM335 110q52 0 87.5 45t35.5 139q0 83 -27.5 126.5t-86.5 43.5q-30 0 -57 -15
t-57 -45v-251q28 -24 54.5 -33.5t50.5 -9.5z" />
    <glyph glyph-name="q" unicode="q" horiz-adv-x="659" 
d="M428 -38l6 92q-30 -29 -69 -48.5t-82 -19.5q-54 0 -97.5 20.5t-74 59t-47 94t-16.5 126.5q0 70 20 126t54 95t77.5 60t89.5 21q48 0 84.5 -17.5t70.5 -53.5h5l12 56h118v-793h-151v182zM322 110q29 0 55 13t51 46v252q-27 23 -53.5 33t-52.5 10q-25 0 -46.5 -11.5
t-37.5 -34t-25.5 -55t-9.5 -75.5q0 -90 30.5 -134t88.5 -44z" />
    <glyph glyph-name="r" unicode="r" horiz-adv-x="446" 
d="M81 573h123l10 -101h4q32 56 75 86t88 30q23 0 38.5 -3.5t29.5 -9.5l-27 -130q-14 6 -28 8t-32 2q-33 0 -70 -25.5t-62 -87.5v-342h-149v573z" />
    <glyph glyph-name="s" unicode="s" horiz-adv-x="507" 
d="M245 -14q-59 0 -117 22.5t-101 58.5l68 94q39 -30 76.5 -46.5t77.5 -16.5q43 0 63 17t20 44q0 16 -10.5 28t-27 22t-38.5 18.5l-44 17.5q-28 10 -55.5 24t-50 34t-37 46.5t-14.5 62.5q0 39 15.5 71t43 55.5t67 36.5t87.5 13q64 0 112 -22t84 -49l-68 -91q-30 21 -60.5 35
t-63.5 14q-39 0 -57 -15.5t-18 -39.5q0 -16 9.5 -27t26 -20t37.5 -17l43 -16q29 -11 57 -24.5t51 -33t37.5 -47.5t14.5 -68q0 -38 -15 -71t-43.5 -57.5t-71 -38.5t-98.5 -14z" />
    <glyph glyph-name="t" unicode="t" horiz-adv-x="430" 
d="M291 -14q-51 0 -87 15t-58.5 43.5t-33 68.5t-10.5 88v254h-80v111l88 7l17 154h126v-154h141v-118h-141v-254q0 -97 78 -97q14 0 29.5 4t26.5 9l25 -110q-24 -8 -53.5 -14.5t-67.5 -6.5z" />
    <glyph glyph-name="u" unicode="u" horiz-adv-x="652" 
d="M251 -14q-92 0 -134 61t-42 168v358h150v-339q0 -67 19 -93t61 -26q36 0 61.5 16t55.5 55v387h150v-573h-122l-12 82h-4q-37 -44 -80.5 -70t-102.5 -26z" />
    <glyph glyph-name="v" unicode="v" horiz-adv-x="590" 
d="M14 573h152l84 -285l23 -86.5t23 -87.5h5q11 44 23 87.5l23 86.5l84 285h144l-191 -573h-174z" />
    <glyph glyph-name="w" unicode="w" horiz-adv-x="884" 
d="M28 573h150l63 -283q8 -42 14 -83t14 -84h4l17 84.5t19 82.5l69 283h134l72 -283q10 -42 18 -83t18 -84h5q8 43 14 84t14 83l63 283h139l-141 -573h-177l-61 250q-9 41 -16.5 81l-16.5 86h-5l-15 -86.5t-16 -80.5l-59 -250h-172z" />
    <glyph glyph-name="x" unicode="x" horiz-adv-x="575" 
d="M196 299l-168 274h161l58 -102l51 -96h4l21 47.5l21 48.5l48 102h156l-168 -291l179 -282h-162l-63 104q-15 26 -28 51.5l-27 50.5h-6l-23.5 -50l-24.5 -52l-53 -104h-156z" />
    <glyph glyph-name="y" unicode="y" horiz-adv-x="588" 
d="M131 -230q-26 0 -43.5 3t-35.5 8l28 116q8 -2 19 -5t21 -3q44 0 69.5 25t37.5 62l11 34l-224 563h152l91 -266q13 -39 24.5 -79.5l23.5 -82.5h5q11 40 21 81l20 81l79 266h144l-203 -590q-19 -52 -41 -91t-50 -66.5t-64.5 -41.5t-84.5 -14z" />
    <glyph glyph-name="z" unicode="z" horiz-adv-x="523" 
d="M42 81l256 374h-227v118h415v-80l-257 -374h266v-119h-453v81z" />
    <glyph glyph-name="braceleft" unicode="{" horiz-adv-x="387" 
d="M273 -123q-37 0 -64.5 8.5t-45.5 27t-26.5 50t-8.5 77.5q0 31 1.5 56.5t3.5 49t3.5 47.5t1.5 52q0 16 -4.5 31.5t-16.5 27.5t-30.5 20t-47.5 9v89q29 0 47.5 7.5t30.5 20t16.5 28.5t4.5 31q0 28 -1.5 52t-3.5 48t-3.5 49t-1.5 56q0 47 8.5 78t26.5 50t45.5 27t64.5 8h67
v-80h-24q-40 0 -53 -19t-13 -70q0 -50 2.5 -95t2.5 -100q0 -64 -19.5 -93.5t-62.5 -39.5v-5q43 -10 62.5 -40t19.5 -93q0 -56 -2.5 -101t-2.5 -94q0 -25 3 -42t10 -27.5t20 -14.5t33 -4h24v-82h-67z" />
    <glyph glyph-name="bar" unicode="|" horiz-adv-x="303" 
d="M103 879h98v-1022h-98v1022z" />
    <glyph glyph-name="braceright" unicode="}" horiz-adv-x="387" 
d="M49 -41h24q19 0 32 4t20.5 14.5t10.5 27.5t3 42q0 49 -2.5 94t-2.5 101q0 63 19.5 93t62.5 40v5q-43 10 -62.5 39.5t-19.5 93.5q0 55 2.5 100t2.5 95q0 51 -13.5 70t-52.5 19h-24v80h67q38 0 65 -8t45 -27t26.5 -50t8.5 -78q0 -31 -1.5 -56t-4 -49t-4 -48t-1.5 -52
q0 -15 4.5 -31t16.5 -28.5t31 -20t47 -7.5v-89q-28 -1 -47 -9t-31 -20t-16.5 -27.5t-4.5 -31.5q0 -28 1.5 -52t4 -47.5t4 -49t1.5 -56.5q0 -46 -8.5 -77.5t-26.5 -50t-45 -27t-65 -8.5h-67v82z" />
    <glyph glyph-name="asciitilde" unicode="~" horiz-adv-x="603" 
d="M401 285q-35 0 -62 13.5t-50 30.5l-44 31.5t-45 14.5q-48 0 -85 -68l-79 60q40 63 82 89t85 26q35 0 62 -14t50 -31t44 -31t44 -14q49 0 85 67l79 -60q-39 -62 -81.5 -88t-84.5 -26z" />
    <glyph glyph-name="section" unicode="&#xa7;" 
d="M722 764l-27 -95q-70 37 -159 37q-51 0 -81 -19t-30 -47q0 -30 31.5 -49t101.5 -40q106 -31 160 -75t54 -122q0 -87 -76 -143q19 -15 33.5 -43.5t14.5 -63.5q0 -90 -75 -137.5t-174 -47.5q-134 0 -209 51l31 96q85 -50 177 -50q53 0 84 20t31 54q0 30 -30 51t-105 45
q-110 33 -166.5 76.5t-56.5 118.5q0 38 23 76.5t66 63.5q-19 15 -32 44.5t-13 59.5q0 82 68.5 130t176.5 48q106 0 182 -39zM412 477q-43 -27 -43 -69q0 -30 25 -52.5t87 -43.5q120 -42 137 -51q36 22 36 70q0 38 -39 63.5t-110 48.5t-93 34z" />
    <glyph glyph-name="dieresis" unicode="&#xa8;" horiz-adv-x="641" 
d="M122 742q0 33 21.5 55t54.5 22t54.5 -22t21.5 -55q0 -32 -21.5 -53.5t-54.5 -21.5t-54.5 21.5t-21.5 53.5zM367 742q0 33 21.5 55t54.5 22t54.5 -22t21.5 -55q0 -32 -21.5 -53.5t-54.5 -21.5t-54.5 21.5t-21.5 53.5z" />
    <glyph glyph-name="degree" unicode="&#xb0;" horiz-adv-x="413" 
d="M207 472q-67 0 -114 46t-47 116t47 116.5t114 46.5q68 0 115 -46.5t47 -116.5t-47 -116t-115 -46zM207 547q36 0 58.5 24.5t22.5 62.5q0 39 -22.5 63.5t-58.5 24.5q-35 0 -57.5 -24.5t-22.5 -63.5q0 -38 22.5 -62.5t57.5 -24.5z" />
    <glyph glyph-name="plusminus" unicode="&#xb1;" 
d="M876 572v-103h-312v-259h-104v259h-312v103h312v259h104v-259h312zM148 114h736v-105h-736v105z" />
    <glyph glyph-name="acute" unicode="&#xb4;" horiz-adv-x="641" 
d="M325 666l-75 72l175 208l102 -100z" />
    <glyph glyph-name="paragraph" unicode="&#xb6;" 
d="M453 -57v364h-8q-22 0 -48 7.5t-53.5 25.5t-49.5 42.5t-36.5 62.5t-15.5 82q-1 51 14 95t50 84t103.5 63.5t164.5 23.5t154 -12v-838h-96v754h-83v-754h-96z" />
    <glyph glyph-name="Aring" unicode="&#xc5;" horiz-adv-x="656" 
d="M272 923q0 -25 15 -40t38 -15q22 0 36.5 15t14.5 40q0 24 -14.5 39t-36.5 15t-37.5 -15t-15.5 -39zM417 841q-35 -31 -92 -31t-92 31t-35 82t35 81t92 30t92 -30t35 -81t-35 -82zM236 312h180l-23 83q-13 44 -35 129.5l-31 118.5h-4q-26 -116 -65 -248zM502 0l-53 195
h-246l-53 -195h-154l243 758h178l243 -758h-158z" />
    <glyph glyph-name="multiply" unicode="&#xd7;" 
d="M850 126l-74 -74l-263 263l-263 -263l-74 74l263 263l-263 263l74 74l263 -263l263 263l74 -74l-263 -263z" />
    <glyph glyph-name="divide" unicode="&#xf7;" 
d="M423 646q0 36 26 62.5t63 26.5t63 -26.5t26 -62.5q0 -37 -26 -63t-63 -26t-63 26t-26 63zM148 440h728v-104h-728v104zM423 130q0 37 26 63t63 26t63 -26t26 -63q0 -36 -26 -62.5t-63 -26.5t-63 26.5t-26 62.5z" />
    <glyph glyph-name="Alpha" unicode="&#x391;" horiz-adv-x="656" 
d="M236 312h180l-23 83q-13 44 -35 129.5l-31 118.5h-4q-26 -116 -65 -248zM502 0l-53 195h-246l-53 -195h-154l243 758h178l243 -758h-158z" />
    <glyph glyph-name="Beta" unicode="&#x392;" horiz-adv-x="697" 
d="M93 0v758h251q274 0 274 -187q0 -54 -28 -100t-75 -63v-6q65 -15 103.5 -60.5t38.5 -118.5q0 -110 -80.5 -166.5t-212.5 -56.5h-271zM245 450h88q138 0 138 99q0 49 -33 71t-103 22h-90v-192zM245 117h105q160 0 160 115q0 105 -160 105h-105v-220z" />
    <glyph glyph-name="Gamma" unicode="&#x393;" horiz-adv-x="598" 
d="M93 0v758h467v-126h-315v-632h-152z" />
    <glyph glyph-name="Delta" unicode="&#x394;" horiz-adv-x="727" 
d="M38 0v91l235 667h181l235 -667v-91h-651zM201 127h322l-91 282l-70 230h-4l-68 -230z" />
    <glyph glyph-name="Epsilon" unicode="&#x395;" horiz-adv-x="629" 
d="M93 0v758h465v-126h-313v-175h266v-127h-266v-203h324v-127h-476z" />
    <glyph glyph-name="Zeta" unicode="&#x396;" horiz-adv-x="627" 
d="M44 0v91l353 541h-319v126h505v-90l-353 -541h357v-127h-543z" />
    <glyph glyph-name="Eta" unicode="&#x397;" horiz-adv-x="775" 
d="M93 0v758h152v-298h286v298h151v-758h-151v328h-286v-328h-152z" />
    <glyph glyph-name="Theta" unicode="&#x398;" horiz-adv-x="788" 
d="M276 328v132h237v-132h-237zM55 382q0 182 93 286t246 104t246 -104t93 -286q0 -183 -93.5 -289.5t-245.5 -106.5t-245.5 106.5t-93.5 289.5zM260 189q49 -72 134 -72t135 72t50 193t-50 190.5t-135 69.5t-134.5 -69t-49.5 -191t50 -193z" />
    <glyph glyph-name="Iota" unicode="&#x399;" horiz-adv-x="337" 
d="M93 0v758h152v-758h-152z" />
    <glyph glyph-name="Kappa" unicode="&#x39a;" horiz-adv-x="702" 
d="M93 0v758h152v-329h3l251 329h167l-232 -298l273 -460h-167l-196 340l-99 -127v-213h-152z" />
    <glyph glyph-name="Lambda" unicode="&#x39b;" horiz-adv-x="632" 
d="M-5 0l230 758h182l232 -758h-160l-99 370q-13 43 -33 122.5t-32 121.5h-5q-14 -47 -34 -128l-29 -116l-99 -370h-153z" />
    <glyph glyph-name="Mu" unicode="&#x39c;" horiz-adv-x="874" 
d="M93 0v758h168l129 -355q13 -38 46 -146h5q7 21 22 70.5t24 75.5l126 355h168v-758h-138v316q0 54 19 249h-5l-61 -178l-117 -318h-87l-118 318l-60 178h-4q19 -195 19 -249v-316h-136z" />
    <glyph glyph-name="Nu" unicode="&#x39d;" horiz-adv-x="766" 
d="M93 0v758h155l220 -404l76 -164h5q-20 198 -20 266v302h144v-758h-154l-219 406l-77 162h-5q1 -14 7.5 -77.5t9 -105.5t2.5 -81v-304h-144z" />
    <glyph glyph-name="Xi" unicode="&#x39e;" horiz-adv-x="651" 
d="M60 0v127h532v-127h-532zM141 330v127h369v-127h-369zM72 632v126h508v-126h-508z" />
    <glyph glyph-name="Omicron" unicode="&#x39f;" horiz-adv-x="788" 
d="M55 382q0 182 93 286t246 104t246 -104t93 -286q0 -183 -93.5 -289.5t-245.5 -106.5t-245.5 106.5t-93.5 289.5zM260 189q49 -72 134 -72t135 72t50 193t-50 190.5t-135 69.5t-134.5 -69t-49.5 -191t50 -193z" />
    <glyph glyph-name="Pi" unicode="&#x3a0;" horiz-adv-x="763" 
d="M93 0v758h578v-758h-151v632h-275v-632h-152z" />
    <glyph glyph-name="Rho" unicode="&#x3a1;" horiz-adv-x="683" 
d="M93 0v758h249q297 0 297 -238q0 -124 -81.5 -187.5t-211.5 -63.5h-101v-269h-152zM245 389h91q154 0 154 131q0 64 -39 91t-120 27h-86v-249z" />
    <glyph glyph-name="Sigma" unicode="&#x3a3;" horiz-adv-x="634" 
d="M46 0v91l242 293l-238 284v90h511v-126h-322l200 -245l-205 -260h360v-127h-548z" />
    <glyph glyph-name="Tau" unicode="&#x3a4;" horiz-adv-x="640" 
d="M244 0v632h-213v126h579v-126h-215v-632h-151z" />
    <glyph glyph-name="Upsilon" unicode="&#x3a5;" horiz-adv-x="594" 
d="M221 0v278l-227 480h161l75 -185q58 -148 66 -167h4l68 167l75 185h158l-228 -480v-278h-152z" />
    <glyph glyph-name="Phi" unicode="&#x3a6;" horiz-adv-x="870" 
d="M503 568v-377q77 10 122.5 61.5t45.5 129.5t-45.5 127.5t-122.5 58.5zM369 191v377q-78 -9 -124 -58.5t-46 -127.5q0 -79 46.5 -130.5t123.5 -60.5zM503 784v-101q144 -11 227.5 -89t83.5 -212t-84 -214t-227 -90v-104h-134v103q-144 11 -229 91t-85 214t85 212.5
t229 88.5v101h134z" />
    <glyph glyph-name="Chi" unicode="&#x3a7;" horiz-adv-x="642" 
d="M14 0l213 391l-199 367h168l75 -156q47 -101 57 -120h5q21 54 50 120l72 156h159l-199 -374l213 -384h-168l-85 168l-27 56.5l-33 68.5h-4q-23 -56 -55 -125l-81 -168h-161z" />
    <glyph glyph-name="Psi" unicode="&#x3a8;" horiz-adv-x="857" 
d="M644 758h149v-187q0 -289 -294 -308v-263h-142v263q-294 19 -294 308v187h148v-177q0 -99 36 -145.5t110 -53.5v376h142v-376q74 7 109.5 53.5t35.5 145.5v177z" />
    <glyph glyph-name="Omega" unicode="&#x3a9;" horiz-adv-x="816" 
d="M52 0v122h134v4q-48 49 -82.5 123t-34.5 165q0 159 93.5 258.5t245.5 99.5t246 -99.5t94 -258.5q0 -91 -34.5 -164.5t-83.5 -123.5v-4h134v-122h-299v110q127 111 127 289q0 108 -49.5 175.5t-134.5 67.5t-135 -67.5t-50 -175.5q0 -177 128 -289v-110h-299z" />
    <glyph glyph-name="alpha" unicode="&#x3b1;" horiz-adv-x="679" 
d="M272 -14q-103 0 -165 79t-62 217q0 139 74 222.5t179 83.5q112 0 163 -124h4l20 109h148q-4 -16 -18.5 -83.5l-21 -98t-16.5 -81.5t-14 -86.5t-4 -61.5q0 -53 56 -53q20 0 38 7l19 -112q-34 -18 -93 -18q-120 0 -139 101h-4q-59 -101 -164 -101zM307 110q43 0 79 41
t40 97l7 101q-36 115 -114 115q-49 0 -84.5 -46.5t-35.5 -133.5t28.5 -130.5t79.5 -43.5z" />
    <glyph glyph-name="beta" unicode="&#x3b2;" horiz-adv-x="686" 
d="M80 -206v755q0 127 65 204.5t193 77.5q101 0 171.5 -53.5t70.5 -154.5q0 -115 -102 -179v-5q72 -13 118 -70.5t46 -139.5q0 -116 -68 -179.5t-160 -63.5q-118 0 -194 81q3 -53 6.5 -147t4.5 -126h-151zM372 110q53 0 88 34t35 96q0 54 -31 88t-90 34q-24 0 -50 -7
l-20 111q131 22 131 143q0 50 -28 77t-68 27q-55 0 -83.5 -45.5t-30.5 -129.5q-5 -148 -5 -354q58 -74 152 -74z" />
    <glyph glyph-name="gamma" unicode="&#x3b3;" horiz-adv-x="603" 
d="M374 -206h-156q7 57 7 154q0 118 -67 299t-157 306l153 35q43 -65 88 -180t74 -237h6q98 195 111 402h150q-26 -155 -72.5 -275t-151.5 -286q15 -97 15 -218z" />
    <glyph glyph-name="delta" unicode="&#x3b4;" horiz-adv-x="630" 
d="M319 109q56 0 87 37.5t31 111.5q0 51 -25.5 90.5t-73.5 76.5q-68 -18 -106 -62t-38 -112q0 -66 36 -104t89 -38zM563 785l-34 -112q-130 46 -218 46q-63 0 -63 -38q0 -14 7.5 -27t26.5 -30t33.5 -27.5l47.5 -34l49 -34.5q87 -64 129 -123t42 -147q0 -123 -71.5 -197.5
t-196.5 -74.5q-110 0 -187.5 72t-77.5 191q0 88 52.5 150.5t135.5 96.5q-130 94 -130 198q0 59 52 98t152 39q115 0 251 -46z" />
    <glyph glyph-name="epsilon" unicode="&#x3b5;" horiz-adv-x="540" 
d="M306 -14q-113 0 -187 46.5t-74 129.5q0 108 114 137v5q-42 13 -65 48t-23 74q0 80 68 121t170 41q105 0 195 -61l-57 -97q-59 41 -131 41q-44 0 -71 -17.5t-27 -47.5q0 -62 94 -62q10 0 78 5v-109q-82 5 -96 5q-101 0 -101 -69q0 -35 33.5 -55t95.5 -20q72 0 135 49
l60 -96q-94 -68 -211 -68z" />
    <glyph glyph-name="zeta" unicode="&#x3b6;" horiz-adv-x="527" 
d="M442 -216l-117 40q22 28 31 41t16 29.5t7 30.5q0 25 -23 38t-93 28q-46 10 -80.5 26.5t-66.5 47t-49 80.5t-17 118q0 105 81.5 228t204.5 217q-238 -9 -250 -10v119h416v-119h-6q-113 -71 -202.5 -201t-89.5 -226q0 -76 33 -111.5t113 -50.5q88 -18 124.5 -49.5
t36.5 -94.5q0 -32 -17.5 -81.5t-51.5 -99.5z" />
    <glyph glyph-name="eta" unicode="&#x3b7;" horiz-adv-x="646" 
d="M571 -206h-151q10 362 10 545q0 66 -16.5 93t-57.5 27q-35 0 -63.5 -22t-62.5 -73v-364h-149v402q0 95 -11 171h134l10 -105h4q87 120 189 120q164 0 164 -231v-563z" />
    <glyph glyph-name="theta" unicode="&#x3b8;" horiz-adv-x="629" 
d="M423 361h-217q4 -139 32.5 -195.5t75.5 -56.5q48 0 76.5 56.5t32.5 195.5zM206 463h217q-8 247 -109 247q-100 0 -108 -247zM569 411q0 -211 -67.5 -318t-187.5 -107q-119 0 -187 107.5t-68 317.5q0 207 68 313.5t187 106.5t187 -106.5t68 -313.5z" />
    <glyph glyph-name="iota" unicode="&#x3b9;" horiz-adv-x="336" 
d="M229 -14q-81 0 -114.5 45t-33.5 132v410h151l-5.5 -195t-4.5 -222q0 -26 11 -36.5t35 -10.5q17 0 35 6l19 -111q-41 -18 -93 -18z" />
    <glyph glyph-name="kappa" unicode="&#x3ba;" horiz-adv-x="617" 
d="M624 0l-169 -12q-77 97 -157 253l-20 -24q-56 -60 -56 -184v-33h-141v402q0 101 -12 171h147q11 -44 11 -140v-126h4q157 251 329 281l11 -142q-81 -19 -177 -106q43 -85 107 -180t123 -160z" />
    <glyph glyph-name="lambda" unicode="&#x3bb;" horiz-adv-x="622" 
d="M178 -12l-162 12l247 579l-4 17q-13 53 -43 81.5t-70 28.5q-34 0 -79 -20l-34 122q57 23 131 23q94 0 151.5 -57.5t95.5 -184.5l206 -589h-160l-124 411h-5z" />
    <glyph glyph-name="mu" unicode="&#x3bc;" horiz-adv-x="679" 
d="M81 -206v779h149v-339q0 -64 19 -91.5t61 -27.5q34 0 60.5 19t52.5 66v373h151l-5.5 -195t-4.5 -222q0 -47 49 -47q18 0 36 6l18 -111q-40 -18 -92 -18q-114 0 -136 100h-3q-49 -95 -133 -95q-55 0 -82 35q1 -116 11 -232h-151z" />
    <glyph glyph-name="nu" unicode="&#x3bd;" horiz-adv-x="591" 
d="M358 0h-143q-26 153 -83.5 297.5t-130.5 255.5l153 35q48 -78 91.5 -203.5t64.5 -230.5h5q90 202 107 419h149q-26 -157 -74 -288.5t-139 -284.5z" />
    <glyph glyph-name="xi" unicode="&#x3be;" horiz-adv-x="533" 
d="M447 -216l-117 40q22 28 31 41t16 29.5t7 30.5q0 25 -24 38.5t-92 27.5q-102 21 -159.5 72t-57.5 152q0 74 47 132.5t116 81.5v4q-52 21 -81 62.5t-29 95.5q0 77 62 117q-61 -3 -142 -10v119h482v-119h-135q-51 0 -83.5 -30t-32.5 -81q0 -47 33.5 -81.5t79.5 -34.5t83 10
v-120q-43 10 -92 10q-64 0 -108.5 -37t-44.5 -96q0 -62 36 -87.5t122 -41.5q89 -18 121 -48.5t32 -95.5q0 -32 -18 -81.5t-52 -99.5z" />
    <glyph glyph-name="omicron" unicode="&#x3bf;" horiz-adv-x="636" 
d="M45 286q0 138 79.5 220t193.5 82t194 -82t80 -220q0 -137 -80 -218.5t-194 -81.5t-193.5 81.5t-79.5 218.5zM229 156q30 -47 89 -47t89 46.5t30 130.5t-30 131.5t-89 47.5t-89 -47.5t-30 -131.5t30 -130z" />
    <glyph glyph-name="pi" unicode="&#x3c0;" horiz-adv-x="721" 
d="M594 -14q-84 0 -121 46.5t-37 135.5q0 19 2 125l3 161h-152q0 -156 -30 -462l-151 8q40 224 40 454h-126v112l84 7h589v-119h-110q-7 -109 -7 -293q0 -29 12.5 -40.5t39.5 -11.5q9 0 43 4l18 -111q-44 -16 -97 -16z" />
    <glyph glyph-name="rho" unicode="&#x3c1;" horiz-adv-x="654" 
d="M76 -206v486q0 152 74 230t194 78q124 0 193 -77.5t69 -214.5q0 -141 -70 -225.5t-167 -84.5q-94 0 -152 69q9 -201 10 -261h-151zM335 110q52 0 85 47t33 137q0 170 -114 170q-53 0 -87 -46.5t-34 -127.5v-126q48 -54 117 -54z" />
    <glyph glyph-name="sigma" unicode="&#x3c3;" horiz-adv-x="657" 
d="M312 -14q-114 0 -190.5 78.5t-76.5 216.5q0 140 80 216t194 76h325v-124q-82 9 -169 12v-5q46 -26 71.5 -78t25.5 -121q0 -125 -72.5 -198t-187.5 -73zM314 451q-54 0 -84.5 -42t-30.5 -128q0 -81 31 -126.5t84 -45.5t84 43t31 119t-31 128t-84 52z" />
    <glyph glyph-name="tau" unicode="&#x3c4;" horiz-adv-x="561" 
d="M354 -14q-80 0 -114 46.5t-34 135.5v287h-175v111l84 7h416v-118h-179q-5 -135 -5 -294q0 -52 45 -52q30 0 63 8l19 -113q-59 -18 -120 -18z" />
    <glyph glyph-name="upsilon" unicode="&#x3c5;" horiz-adv-x="610" 
d="M299 -14q-118 0 -177.5 63.5t-59.5 176.5q0 29 2.5 87.5t2.5 88.5q0 98 -13 171h146q11 -49 11 -140q0 -23 -3.5 -101t-3.5 -118q0 -52 26.5 -78.5t68.5 -26.5q108 0 108 181q0 128 -41 264l145 34q46 -151 46 -291q0 -148 -67.5 -229.5t-190.5 -81.5z" />
    <glyph glyph-name="phi" unicode="&#x3c6;" horiz-adv-x="838" 
d="M488 470v-367q68 3 110 52t42 132q0 85 -41 132.5t-111 50.5zM350 103v367q-68 -3 -109.5 -51t-41.5 -132t41.5 -132.5t109.5 -51.5zM488 727v-144q127 -6 216.5 -85t89.5 -211q0 -131 -90 -211t-216 -86v-196h-138v197q-127 6 -216 85t-89 211t89 211t216 85v144h138z
" />
    <glyph glyph-name="chi" unicode="&#x3c7;" horiz-adv-x="596" 
d="M165 -219l-155 13l220 397l-220 362l149 35l144 -264h4l114 249h157l-199 -378l232 -381l-148 -33l-156 290h-4z" />
    <glyph glyph-name="psi" unicode="&#x3c8;" horiz-adv-x="852" 
d="M606 554l146 34q45 -137 45 -266q0 -160 -77.5 -246.5t-225.5 -89.5v-192h-139v192q-149 3 -218 80.5t-69 203.5v132q0 97 -12 171h146q10 -50 10 -140q0 -26 -1 -90t-1 -84q0 -69 34.5 -111.5t110.5 -43.5v623h139v-623q77 2 114.5 51.5t37.5 159.5q0 112 -40 239z" />
    <glyph glyph-name="omega" unicode="&#x3c9;" horiz-adv-x="852" 
d="M267 -14q-100 0 -158.5 78t-58.5 222q0 74 26 155t67 147l141 -56q-91 -146 -91 -275q0 -69 21 -108.5t60 -39.5q83 0 83 115q0 59 -13 154h160q-12 -113 -12 -154q0 -62 19.5 -88.5t57.5 -26.5q37 0 59.5 44.5t22.5 127.5q0 74 -17 130t-61 125l138 52q91 -145 91 -298
q0 -147 -55 -225.5t-157 -78.5q-120 0 -163 107h-4q-44 -107 -156 -107z" />
    <glyph glyph-name="afii10023" unicode="&#x401;" horiz-adv-x="629" 
d="M93 0v758h465v-126h-313v-175h266v-127h-266v-203h324v-127h-476zM208 818q-33 0 -54 21.5t-21 53.5t21 53t54 21q32 0 53.5 -21t21.5 -53t-21.5 -53.5t-53.5 -21.5zM461 818q-33 0 -54 21.5t-21 53.5t21 53t54 21q32 0 53 -21t21 -53t-21 -53.5t-53 -21.5z" />
    <glyph glyph-name="afii10017" unicode="&#x410;" horiz-adv-x="656" 
d="M236 312h180l-23 83q-13 44 -35 129.5l-31 118.5h-4q-26 -116 -65 -248zM502 0l-53 195h-246l-53 -195h-154l243 758h178l243 -758h-158z" />
    <glyph glyph-name="afii10018" unicode="&#x411;" horiz-adv-x="691" 
d="M93 0v758h505v-126h-353v-175h115q131 0 209 -52t78 -167q0 -121 -76.5 -179.5t-205.5 -58.5h-272zM245 117h102q153 0 153 119q0 57 -38.5 82.5t-115.5 25.5h-101v-227z" />
    <glyph glyph-name="afii10019" unicode="&#x412;" horiz-adv-x="697" 
d="M93 0v758h251q274 0 274 -187q0 -54 -28 -100t-75 -63v-6q65 -15 103.5 -60.5t38.5 -118.5q0 -110 -80.5 -166.5t-212.5 -56.5h-271zM245 450h88q138 0 138 99q0 49 -33 71t-103 22h-90v-192zM245 117h105q160 0 160 115q0 105 -160 105h-105v-220z" />
    <glyph glyph-name="afii10020" unicode="&#x413;" horiz-adv-x="598" 
d="M93 0v758h467v-126h-315v-632h-152z" />
    <glyph glyph-name="afii10021" unicode="&#x414;" horiz-adv-x="768" 
d="M508 632h-166l-44 -260q-31 -163 -82 -245h292v505zM658 127h91v-94l-14 -251h-134v218h-434v-218h-134l-14 251v94h35q60 22 108 265l21 117l22 125.5l21 123.5h432v-631z" />
    <glyph glyph-name="afii10022" unicode="&#x415;" horiz-adv-x="629" 
d="M93 0v758h465v-126h-313v-175h266v-127h-266v-203h324v-127h-476z" />
    <glyph glyph-name="afii10024" unicode="&#x416;" horiz-adv-x="988" 
d="M762 401l223 -401h-163l-170 333h-87v-333h-143v333h-86l-169 -333h-164l223 401l-69 154q-21 44 -41 60t-47 16q-17 0 -32 -5l-25 137q19 9 57 9q64 0 109 -30t83 -107l84 -180h77v303h143v-303h77l85 180q38 77 83.5 107t109.5 30q37 0 56 -9l-25 -137q-14 5 -31 5
q-28 0 -48 -16t-41 -60z" />
    <glyph glyph-name="afii10025" unicode="&#x417;" horiz-adv-x="652" 
d="M321 -14q-168 0 -278 106l80 104q85 -79 195 -79q65 0 105.5 30t40.5 84q0 106 -157 106h-96v113h74q142 0 142 98q0 47 -32.5 70.5t-86.5 23.5q-86 0 -162 -62l-76 100q103 92 243 92q124 0 192.5 -53.5t68.5 -147.5q0 -121 -100 -165v-6q61 -14 99.5 -62t38.5 -117
q0 -111 -81.5 -173t-209.5 -62z" />
    <glyph glyph-name="afii10026" unicode="&#x418;" horiz-adv-x="779" 
d="M93 0v758h150v-302q0 -39 -3 -82t-9.5 -107t-7.5 -77h5l77 163l221 405h160v-758h-149v304q0 69 19 264h-5l-77 -161l-221 -407h-160z" />
    <glyph glyph-name="afii10027" unicode="&#x419;" horiz-adv-x="779" 
d="M93 0v758h150v-302q0 -39 -3 -82t-9.5 -107t-7.5 -77h5l77 163l221 405h160v-758h-149v304q0 69 19 264h-5l-77 -161l-221 -407h-160zM394 821q-190 0 -197 158h127q5 -82 70 -82q68 0 71 82h127q-9 -158 -198 -158z" />
    <glyph glyph-name="afii10028" unicode="&#x41a;" horiz-adv-x="709" 
d="M460 403l250 -403h-159l-210 333h-96v-333h-152v758h152v-303h96l100 180q43 77 87 107t107 30q37 0 56 -9l-25 -137q-14 5 -31 5q-26 0 -44.5 -15.5t-44.5 -60.5z" />
    <glyph glyph-name="afii10029" unicode="&#x41b;" horiz-adv-x="754" 
d="M74 -14q-50 0 -82 11l27 136q17 -5 33 -5q22 0 36 11t31.5 53t34.5 122q6 26 83 444h425v-758h-151v632h-158l-60 -333q-34 -182 -82.5 -247.5t-136.5 -65.5z" />
    <glyph glyph-name="afii10030" unicode="&#x41c;" horiz-adv-x="874" 
d="M93 0v758h168l129 -355q13 -38 46 -146h5q7 21 22 70.5t24 75.5l126 355h168v-758h-138v316q0 54 19 249h-5l-61 -178l-117 -318h-87l-118 318l-60 178h-4q19 -195 19 -249v-316h-136z" />
    <glyph glyph-name="afii10031" unicode="&#x41d;" horiz-adv-x="775" 
d="M93 0v758h152v-298h286v298h151v-758h-151v328h-286v-328h-152z" />
    <glyph glyph-name="afii10032" unicode="&#x41e;" horiz-adv-x="788" 
d="M55 382q0 182 93 286t246 104t246 -104t93 -286q0 -183 -93.5 -289.5t-245.5 -106.5t-245.5 106.5t-93.5 289.5zM260 189q49 -72 134 -72t135 72t50 193t-50 190.5t-135 69.5t-134.5 -69t-49.5 -191t50 -193z" />
    <glyph glyph-name="afii10033" unicode="&#x41f;" horiz-adv-x="763" 
d="M93 0v758h578v-758h-151v632h-275v-632h-152z" />
    <glyph glyph-name="afii10034" unicode="&#x420;" horiz-adv-x="683" 
d="M93 0v758h249q297 0 297 -238q0 -124 -81.5 -187.5t-211.5 -63.5h-101v-269h-152zM245 389h91q154 0 154 131q0 64 -39 91t-120 27h-86v-249z" />
    <glyph glyph-name="afii10035" unicode="&#x421;" horiz-adv-x="672" 
d="M402 -14q-150 0 -248.5 103.5t-98.5 286.5q0 181 102 288.5t251 107.5q129 0 222 -97l-80 -96q-65 63 -139 63q-88 0 -144.5 -70.5t-56.5 -190.5q0 -123 53.5 -193.5t144.5 -70.5q87 0 156 74l80 -94q-94 -111 -242 -111z" />
    <glyph glyph-name="afii10036" unicode="&#x422;" horiz-adv-x="640" 
d="M244 0v632h-213v126h579v-126h-215v-632h-151z" />
    <glyph glyph-name="afii10037" unicode="&#x423;" horiz-adv-x="630" 
d="M176 -14q-51 0 -91 14l29 131q26 -8 54 -8q58 0 80 42l12 29l-257 564h159l103 -252l62 -173h5l58 173l94 252h152l-239 -595q-35 -87 -87.5 -132t-133.5 -45z" />
    <glyph glyph-name="afii10038" unicode="&#x424;" horiz-adv-x="876" 
d="M504 558v-355q86 5 132.5 50.5t46.5 128.5t-46.5 127t-132.5 49zM373 203v355q-86 -5 -132 -49t-46 -127t46.5 -128.5t131.5 -50.5zM504 772v-102q152 -7 236 -80t84 -208t-84 -209.5t-236 -82.5v-104h-131v104q-152 8 -236 82.5t-84 209.5t84 208t236 80v102h131z" />
    <glyph glyph-name="afii10039" unicode="&#x425;" horiz-adv-x="642" 
d="M14 0l213 391l-199 367h168l75 -156q47 -101 57 -120h5q21 54 50 120l72 156h159l-199 -374l213 -384h-168l-85 168l-27 56.5l-33 68.5h-4q-23 -56 -55 -125l-81 -168h-161z" />
    <glyph glyph-name="afii10040" unicode="&#x426;" horiz-adv-x="769" 
d="M659 127h91v-94l-14 -251h-134v218h-509v758h152v-631h264v631h150v-631z" />
    <glyph glyph-name="afii10041" unicode="&#x427;" horiz-adv-x="720" 
d="M477 0v316q-53 -9 -121 -9q-139 0 -211 62.5t-72 205.5v183h147v-183q0 -81 36.5 -114t115.5 -33q53 0 105 8v322h151v-758h-151z" />
    <glyph glyph-name="afii10042" unicode="&#x428;" horiz-adv-x="1043" 
d="M93 0v758h148v-631h209v631h144v-631h208v631h147v-758h-856z" />
    <glyph glyph-name="afii10043" unicode="&#x429;" horiz-adv-x="1058" 
d="M949 127h91v-94l-13 -251h-135v218h-799v758h148v-631h209v631h144v-631h208v631h147v-631z" />
    <glyph glyph-name="afii10044" unicode="&#x42a;" horiz-adv-x="844" 
d="M258 0v632h-227v126h379v-285h93q130 0 213.5 -57.5t83.5 -170.5q0 -127 -79 -186t-212 -59h-251zM410 120h89q153 0 153 122q0 110 -159 110h-83v-232z" />
    <glyph glyph-name="afii10045" unicode="&#x42b;" horiz-adv-x="972" 
d="M93 0v758h152v-285h86q135 0 214 -56t79 -172q0 -127 -79.5 -186t-215.5 -59h-236zM245 120h73q157 0 157 122q0 110 -159 110h-71v-232zM729 0v758h151v-758h-151z" />
    <glyph glyph-name="afii10046" unicode="&#x42c;" horiz-adv-x="691" 
d="M93 0v758h152v-285h108q135 0 214 -56t79 -172q0 -127 -79.5 -186t-215.5 -59h-258zM245 120h96q158 0 158 122q0 110 -159 110h-95v-232z" />
    <glyph glyph-name="afii10047" unicode="&#x42d;" horiz-adv-x="672" 
d="M122 579l-80 96q43 42 107 69.5t133 27.5q151 0 243 -102t92 -294q0 -190 -94.5 -290t-242.5 -100q-149 0 -251 111l80 94q74 -74 167 -74q82 0 131 52.5t59 160.5h-280v127h277q-25 185 -190 185q-80 0 -151 -63z" />
    <glyph glyph-name="afii10048" unicode="&#x42e;" horiz-adv-x="1090" 
d="M707 117q82 0 127.5 71t45.5 194t-45 191.5t-128 68.5t-129 -68.5t-46 -191.5t46 -194t129 -71zM245 460h142q19 149 103 230.5t217 81.5q151 0 239 -103.5t88 -286.5q0 -184 -88.5 -290t-238.5 -106q-137 0 -223 91t-99 251h-140v-328h-152v758h152v-298z" />
    <glyph glyph-name="afii10049" unicode="&#x42f;" horiz-adv-x="704" 
d="M461 407v231h-99q-76 0 -113 -25t-37 -85q0 -121 150 -121h99zM348 758h264v-758h-151v287h-100l-172 -287h-173l200 307q-153 56 -153 221q0 230 285 230z" />
    <glyph glyph-name="afii10065" unicode="&#x430;" horiz-adv-x="605" 
d="M222 -14q-76 0 -123 48t-47 122q0 92 78.5 142.5t251.5 69.5q-4 99 -97 99q-66 0 -158 -54l-54 99q123 76 239 76q109 0 164.5 -64t55.5 -189v-335h-122l-12 61h-3q-87 -75 -173 -75zM271 103q54 0 111 57v115q-186 -24 -186 -107q0 -65 75 -65z" />
    <glyph glyph-name="afii10066" unicode="&#x431;" horiz-adv-x="646" 
d="M196 354v-33q0 -105 35 -158.5t100 -53.5q52 0 81.5 46.5t29.5 125.5q0 154 -112 154q-77 0 -134 -81zM546 848l28 -131q-36 -29 -130 -42q-36 -5 -53 -8l-43.5 -8t-38.5 -10l-30 -13t-26 -18l-19 -24t-16 -32.5t-9.5 -41.5t-7.5 -52q67 79 173 79q97 0 160 -70.5
t63 -195.5q0 -132 -75 -213.5t-189 -81.5q-134 0 -207.5 96.5t-73.5 272.5q0 104 17.5 181t47 125.5t78 80.5t98.5 47t121 25q79 10 132 34z" />
    <glyph glyph-name="afii10067" unicode="&#x432;" horiz-adv-x="607" 
d="M81 0v573h237q226 0 226 -149q0 -42 -24.5 -74.5t-72.5 -45.5v-5q119 -27 119 -134q0 -83 -65 -124t-170 -41h-250zM227 344h79q93 0 93 64t-91 64h-81v-128zM227 101h95q98 0 98 73q0 32 -25.5 51.5t-76.5 19.5h-91v-144z" />
    <glyph glyph-name="afii10068" unicode="&#x433;" horiz-adv-x="494" 
d="M81 0v573h384v-118h-235v-455h-149z" />
    <glyph glyph-name="afii10069" unicode="&#x434;" horiz-adv-x="662" 
d="M266 455l-16 -150q-13 -117 -51 -186h207v336h-140zM556 119h89v-99l-14 -220h-129v200h-342v-200h-129l-16 220v99h34q24 13 40.5 57.5t30.5 161.5l27 235h409v-454z" />
    <glyph glyph-name="afii10070" unicode="&#x435;" horiz-adv-x="594" 
d="M330 -14q-123 0 -204 81t-81 219q0 134 79.5 218t187.5 84q115 0 177.5 -76t62.5 -199q0 -45 -7 -68h-354q9 -69 51.5 -106.5t107.5 -37.5q66 0 129 40l51 -92q-90 -63 -200 -63zM189 344h234q0 60 -27.5 93.5t-81.5 33.5q-47 0 -82 -33t-43 -94z" />
    <glyph glyph-name="afii10072" unicode="&#x436;" horiz-adv-x="859" 
d="M668 298l181 -298h-161l-127 237h-65v-237h-134v237h-64l-127 -237h-161l181 297l-35 84q-16 37 -33.5 50t-42.5 13q-7 0 -21 -4l-24 140q21 8 43 8q61 0 102 -27t71 -95l50 -111h61v218h134v-218h60l52 111q30 68 71 95t101 27q24 0 43 -8l-23 -140q-14 4 -22 4
q-24 0 -42 -13.5t-33 -49.5z" />
    <glyph glyph-name="afii10073" unicode="&#x437;" horiz-adv-x="546" 
d="M256 -14q-128 0 -221 69l59 96q68 -50 148 -50q50 0 83 20.5t33 54.5q0 69 -104 69h-88v99h77q95 0 95 66q0 61 -93 61q-81 0 -142 -41l-57 96q91 62 208 62q97 0 163 -41.5t66 -120.5q0 -39 -24 -73.5t-68 -48.5v-5q115 -28 115 -137q0 -81 -74.5 -128.5t-175.5 -47.5z
" />
    <glyph glyph-name="afii10074" unicode="&#x438;" horiz-adv-x="670" 
d="M81 0v573h145v-181q0 -20 -13 -205h4q5 10 32 55t37 65l168 266h137v-573h-146v180q0 38 14 206h-4q-6 -11 -32.5 -56.5t-36.5 -64.5l-168 -265h-137z" />
    <glyph glyph-name="afii10075" unicode="&#x439;" horiz-adv-x="670" 
d="M81 0v573h145v-181q0 -20 -13 -205h4q5 10 32 55t37 65l168 266h137v-573h-146v180q0 38 14 206h-4q-6 -11 -32.5 -56.5t-36.5 -64.5l-168 -265h-137zM341 666q-95 0 -144 50t-52 136h118q2 -52 19.5 -79t58.5 -27t58 27t19 79h118q-2 -86 -50.5 -136t-144.5 -50z" />
    <glyph glyph-name="afii10076" unicode="&#x43a;" horiz-adv-x="619" 
d="M416 302l193 -302h-164l-139 237h-76v-237h-149v573h149v-218h73l52 111q32 70 72 96t101 26q24 0 43 -8l-24 -140q-12 4 -21 4q-25 0 -41.5 -12.5t-33.5 -50.5z" />
    <glyph glyph-name="afii10077" unicode="&#x43b;" horiz-adv-x="652" 
d="M72 -14q-36 0 -64 12l26 135q20 -5 27 -5q54 0 67 96l40 349h404v-573h-150v455h-135q-18 -164 -34 -272q-26 -197 -181 -197z" />
    <glyph glyph-name="afii10078" unicode="&#x43c;" horiz-adv-x="757" 
d="M81 0v573h171l84 -216l21.5 -64.5t21.5 -66.5h5q2 5 19 54t25 77l79 216h171v-573h-134v177q0 66 16 234h-5q-9 -27 -28.5 -80.5l-26.5 -73.5l-78 -206h-85l-80 206l-27.5 77l-27.5 77h-5q16 -202 16 -234v-177h-132z" />
    <glyph glyph-name="afii10079" unicode="&#x43d;" horiz-adv-x="669" 
d="M81 0v573h149v-214h209v214h151v-573h-151v228h-209v-228h-149z" />
    <glyph glyph-name="afii10080" unicode="&#x43e;" horiz-adv-x="641" 
d="M45 286q0 137 81.5 219.5t194.5 82.5t194 -82t81 -220q0 -136 -81 -218t-194 -82t-194.5 82t-81.5 218zM442 286q0 83 -31.5 131t-89.5 48t-90 -48t-32 -131q0 -82 32 -129.5t90 -47.5t89.5 47.5t31.5 129.5z" />
    <glyph glyph-name="afii10081" unicode="&#x43f;" horiz-adv-x="660" 
d="M81 0v573h499v-573h-151v455h-199v-455h-149z" />
    <glyph glyph-name="afii10082" unicode="&#x440;" horiz-adv-x="659" 
d="M81 -220v793h123l10 -59h4q87 74 169 74q105 0 165 -79.5t60 -212.5q0 -142 -71.5 -226t-171.5 -84q-75 0 -143 62l4 -94v-174h-149zM458 294q0 170 -114 170q-54 0 -114 -60v-251q50 -43 105 -43t89 47t34 137z" />
    <glyph glyph-name="afii10083" unicode="&#x441;" horiz-adv-x="539" 
d="M325 -14q-122 0 -201 81t-79 219t85.5 220t207.5 82q92 0 167 -64l-72 -97q-44 38 -88 38q-66 0 -106 -49t-40 -130q0 -80 39.5 -128.5t102.5 -48.5q57 0 112 46l59 -100q-78 -69 -187 -69z" />
    <glyph glyph-name="afii10084" unicode="&#x442;" horiz-adv-x="561" 
d="M206 0v455h-175v118h500v-118h-176v-455h-149z" />
    <glyph glyph-name="afii10085" unicode="&#x443;" horiz-adv-x="587" 
d="M131 -230q-43 0 -79 11l28 116q27 -8 40 -8q79 0 107 87l11 34l-224 563h152l91 -266q7 -21 48 -162h5q6 27 20 81l21 81l79 266h144l-203 -590q-40 -108 -94.5 -160.5t-145.5 -52.5z" />
    <glyph glyph-name="afii10086" unicode="&#x444;" horiz-adv-x="889" 
d="M372 -220v157l5 86q-60 -37 -110 -37q-100 0 -159.5 80.5t-59.5 219.5q0 135 65 218.5t154 83.5q55 0 110 -35l-5 84v180h146v-180l-5 -88q62 39 120 39q97 0 153.5 -79.5t56.5 -212.5q0 -142 -65.5 -226t-157.5 -84q-57 0 -107 34l5 -83v-157h-146zM305 110q43 0 72 29
v298q-34 27 -76 27t-70 -46.5t-28 -129.5q0 -178 102 -178zM586 110q46 0 74 47t28 137q0 170 -98 170q-40 0 -77 -29v-299q33 -26 73 -26z" />
    <glyph glyph-name="afii10087" unicode="&#x445;" horiz-adv-x="575" 
d="M16 0l180 299l-168 274h161l58 -102l51 -96h4q6 16 21 48t21 48l48 102h156l-168 -291l179 -282h-162l-63 104l-55 102h-6l-48 -102l-53 -104h-156z" />
    <glyph glyph-name="afii10088" unicode="&#x446;" horiz-adv-x="677" 
d="M573 119h90v-99l-15 -220h-129v200h-438v573h149v-454h193v454h150v-454z" />
    <glyph glyph-name="afii10089" unicode="&#x447;" horiz-adv-x="626" 
d="M395 0v204q-49 -9 -103 -9q-109 0 -171 52t-62 163v163h151v-163q0 -50 27.5 -74t86.5 -24q31 0 71 10v251h151v-573h-151z" />
    <glyph glyph-name="afii10090" unicode="&#x448;" horiz-adv-x="916" 
d="M81 0v573h148v-454h157v454h143v-454h157v454h150v-573h-755z" />
    <glyph glyph-name="afii10091" unicode="&#x449;" horiz-adv-x="940" 
d="M836 119h88v-99l-14 -220h-129v200h-700v573h148v-454h157v454h143v-454h157v454h150v-454z" />
    <glyph glyph-name="afii10092" unicode="&#x44a;" horiz-adv-x="715" 
d="M211 0v455h-180v118h329v-191h71q111 0 176 -45t65 -143q0 -101 -65 -147.5t-176 -46.5h-220zM360 115h63q104 0 104 80q0 76 -104 76h-63v-156z" />
    <glyph glyph-name="afii10093" unicode="&#x44b;" horiz-adv-x="838" 
d="M81 0v573h149v-191h54q110 0 175 -45t65 -143q0 -101 -65 -147.5t-175 -46.5h-203zM230 115h44q106 0 106 80q0 76 -106 76h-44v-156zM607 0v573h151v-573h-151z" />
    <glyph glyph-name="afii10094" unicode="&#x44c;" horiz-adv-x="591" 
d="M81 0v573h149v-191h77q111 0 176 -45t65 -143q0 -101 -65 -147.5t-176 -46.5h-226zM230 115h69q104 0 104 80q0 76 -104 76h-69v-156z" />
    <glyph glyph-name="afii10095" unicode="&#x44d;" horiz-adv-x="539" 
d="M100 433l-65 87q72 68 181 68q123 0 201 -77.5t78 -224.5q0 -145 -77 -222.5t-203 -77.5q-117 0 -189 69l56 89q50 -43 118 -43q134 0 151 144h-214v99h212q-21 127 -142 127q-59 0 -107 -38z" />
    <glyph glyph-name="afii10096" unicode="&#x44e;" horiz-adv-x="888" 
d="M579 109q54 0 82.5 47t28.5 130q0 84 -28.5 131.5t-82.5 47.5q-53 0 -84 -48.5t-31 -130.5q0 -81 31 -129t84 -48zM230 357h100q19 108 88.5 169.5t168.5 61.5q110 0 184 -81.5t74 -220.5q0 -138 -74 -219t-184 -81q-102 0 -172.5 64t-86.5 176h-98v-226h-149v573h149
v-216z" />
    <glyph glyph-name="afii10097" unicode="&#x44f;" horiz-adv-x="622" 
d="M392 301v161h-63q-107 0 -107 -78q0 -39 28 -61t79 -22h63zM309 573h234v-573h-151v197h-75h-2l-125 -197h-167l158 225q-107 51 -107 163q0 185 235 185z" />
    <glyph glyph-name="afii10071" unicode="&#x451;" horiz-adv-x="594" 
d="M330 -14q-123 0 -204 81t-81 219q0 134 79.5 218t187.5 84q115 0 177.5 -76t62.5 -199q0 -45 -7 -68h-354q9 -69 51.5 -106.5t107.5 -37.5q66 0 129 40l51 -92q-90 -63 -200 -63zM189 344h234q0 60 -27.5 93.5t-81.5 33.5q-47 0 -82 -33t-43 -94zM113 742q0 33 21.5 55
t54.5 22t54.5 -22t21.5 -55q0 -32 -21.5 -53.5t-54.5 -21.5t-54.5 21.5t-21.5 53.5zM358 742q0 33 21.5 55t54.5 22t55 -22t22 -55q0 -32 -22 -53.5t-55 -21.5t-54.5 21.5t-21.5 53.5z" />
    <glyph glyph-name="uni2010" unicode="&#x2010;" 
d="M384 413h256v-47h-256v47z" />
    <glyph glyph-name="afii00208" unicode="&#x2015;" 
d="M76 413h872v-47h-872v47z" />
    <glyph glyph-name="quoteleft" unicode="&#x2018;" horiz-adv-x="332" 
d="M218 798l35 -67q-51 -28 -75 -62t-25 -83q4 1 11 1q34 0 58 -21.5t24 -57.5q0 -39 -23 -62.5t-59 -23.5q-49 0 -74 36t-25 102q0 158 153 238z" />
    <glyph glyph-name="quoteright" unicode="&#x2019;" horiz-adv-x="332" 
d="M114 434l-34 66q51 29 74.5 62.5t24.5 83.5q-3 -1 -10 -1q-34 0 -58 21.5t-24 57.5q0 39 23 62.5t59 23.5q48 0 73.5 -36t25.5 -103q0 -159 -154 -237z" />
    <glyph glyph-name="quotedblleft" unicode="&#x201c;" horiz-adv-x="588" 
d="M218 798l35 -67q-51 -28 -75 -62t-25 -83q4 1 11 1q34 0 58 -21.5t24 -57.5q0 -39 -23 -62.5t-59 -23.5q-49 0 -74 36t-25 102q0 158 153 238zM474 798l35 -67q-51 -28 -75 -62t-25 -83q4 1 11 1q34 0 58 -21.5t24 -57.5q0 -39 -23 -62.5t-59 -23.5q-49 0 -74 36t-25 102
q0 158 153 238z" />
    <glyph glyph-name="quotedblright" unicode="&#x201d;" horiz-adv-x="588" 
d="M114 434l-34 66q51 29 74.5 62.5t24.5 83.5q-3 -1 -10 -1q-34 0 -58 21.5t-24 57.5q0 39 23 62.5t59 23.5q48 0 73.5 -36t25.5 -103q0 -159 -154 -237zM370 434l-34 66q51 29 74.5 62.5t24.5 83.5q-3 -1 -10 -1q-34 0 -58 21.5t-24 57.5q0 39 23 62.5t59 23.5
q48 0 73.5 -36t25.5 -103q0 -159 -154 -237z" />
    <glyph glyph-name="dagger" unicode="&#x2020;" 
d="M581 791l-12 -239l197 10v-120l-197 11l12 -511h-138l12 511l-197 -11v120l197 -10l-12 239h138z" />
    <glyph glyph-name="daggerdbl" unicode="&#x2021;" 
d="M581 791l-12 -223l197 10v-120l-197 10l1 -201l196 11v-120l-197 10l12 -226h-138l12 226l-197 -10v120l197 -11v201l-197 -10v120l197 -10l-12 223h138z" />
    <glyph glyph-name="twodotenleader" unicode="&#x2025;" 
d="M198 330q-25 24 -25 59t24.5 59t58.5 24t58.5 -24t24.5 -59t-24.5 -59t-58.5 -24t-58 24zM710 330q-25 24 -25 59t24.5 59t58.5 24t58.5 -24t24.5 -59t-24.5 -59t-58.5 -24t-58 24z" />
    <glyph glyph-name="ellipsis" unicode="&#x2026;" 
d="M88 389q0 35 24 59t59 24t59 -24t24 -59t-24 -59t-59 -24t-59 24t-24 59zM429 389q0 35 24 59t59 24t59 -24t24 -59t-24 -59t-59 -24t-59 24t-24 59zM770 389q0 35 24 59t59 24t59 -24t24 -59t-24 -59t-59 -24t-59 24t-24 59z" />
    <glyph glyph-name="perthousand" unicode="&#x2030;" 
d="M119 -14l401 787h69l-402 -787h-68zM31 537q0 100 36.5 167.5t100.5 66.5q47 0 77.5 -36.5t41.5 -86t11 -108.5q0 -114 -38 -173.5t-93 -59.5q-68 0 -102 67.5t-34 162.5zM164 701q-48 0 -48 -161q0 -163 50 -163q27 0 37 41t10 119t-10.5 121.5t-38.5 42.5zM411 223
q0 100 36.5 168t100.5 67q47 0 77.5 -37t41.5 -86.5t11 -108.5q0 -114 -38 -173t-93 -59q-68 0 -102 67.5t-34 161.5zM726 223q0 100 36.5 168t100.5 67q47 0 77.5 -37t41.5 -86.5t11 -108.5q0 -114 -38 -173t-93 -59q-68 0 -102 67.5t-34 161.5zM544 388q-48 0 -48 -162
q0 -163 50 -163q27 0 37 41.5t10 119.5t-10.5 121.5t-38.5 42.5zM859 388q-48 0 -48 -162q0 -80 11 -121.5t39 -41.5q27 0 37 41.5t10 119.5t-10.5 121.5t-38.5 42.5z" />
    <glyph glyph-name="minute" unicode="&#x2032;" horiz-adv-x="332" 
d="M95 471l24 328l149 -1l-24 -135l-50 -193z" />
    <glyph glyph-name="second" unicode="&#x2033;" horiz-adv-x="588" 
d="M95 471l24 328l149 -1l-24 -135l-50 -193zM351 471l23 328l150 -1l-24 -135l-50 -193z" />
    <glyph glyph-name="uni203B" unicode="&#x203b;" horiz-adv-x="997" 
d="M213 274q-18 0 -35.5 8t-30.5 21t-21 29t-8 34t8 35.5t21 30.5t30.5 21t35.5 8q17 0 33.5 -8t29.5 -21t20.5 -30.5t7.5 -35.5t-7 -34t-20 -29t-29.5 -21t-34.5 -8zM876 61l-72 -68l-152.5 154.5l-152.5 157.5l-154 -157.5l-151 -154.5q-21 17 -38 34l-34 34l312 309
l-156.5 153.5l-155.5 154.5q17 17 33.5 36t30.5 37l309 -317l312 317q17 -18 32.5 -37t32.5 -36l-309 -308l155.5 -154.5zM495 560q-18 0 -34 8.5t-29 21t-21 30t-8 35.5q0 19 7.5 35.5t20 29t29 19.5t35.5 7q18 0 35.5 -7t30.5 -19.5t21 -29t8 -35.5q0 -18 -7.5 -35.5
t-20.5 -30t-30.5 -21t-36.5 -8.5zM495 -18q-18 0 -33.5 7t-27.5 19t-19 29t-7 36q0 37 25 64t62 27q18 0 35.5 -7t30.5 -20t21 -29.5t8 -34.5q0 -38 -27.5 -64.5t-67.5 -26.5zM800 279q-37 0 -64 25t-27 62q0 19 7 36.5t20 30.5t29 20.5t35 7.5q18 0 34.5 -7.5t29.5 -20.5
t20 -30.5t7 -36.5q0 -37 -27 -62t-64 -25z" />
    <glyph glyph-name="uni2103" unicode="&#x2103;" 
d="M306 520q-47 -47 -115 -47t-115 46.5t-47 116.5t47 116.5t115 46.5t115 -46.5t47 -116.5t-47 -116zM272 636q0 38 -22.5 63t-58.5 25t-58 -24.5t-22 -63.5t22 -63.5t58 -24.5t58.5 24.5t22.5 63.5zM763 -14q-153 0 -252 103t-99 287q0 183 101.5 290.5t253.5 107.5
q128 0 221 -97l-84 -94q-59 59 -135 59q-89 0 -145.5 -70.5t-56.5 -189.5q0 -123 53.5 -193.5t144.5 -70.5q85 0 151 71l85 -92q-93 -111 -238 -111z" />
    <glyph glyph-name="arrowleft" unicode="&#x2190;" 
d="M983 337h-724q72 -52 136 -140l-92 -52q-114 144 -267 244q153 100 267 244l92 -51q-66 -90 -136 -141h724v-104z" />
    <glyph glyph-name="arrowup" unicode="&#x2191;" 
d="M460 -82v724q-51 -70 -141 -136l-51 92q144 114 244 267q100 -153 244 -267l-51 -92q-90 66 -141 136v-724h-104z" />
    <glyph glyph-name="arrowright" unicode="&#x2192;" 
d="M41 337v104h724q-70 51 -136 141l92 51q114 -144 267 -244q-153 -100 -267 -244l-92 52q64 88 136 140h-724z" />
    <glyph glyph-name="arrowdown" unicode="&#x2193;" 
d="M564 860v-724q51 70 141 136l51 -92q-144 -114 -244 -267q-100 153 -244 267l51 92q90 -66 141 -136v724h104z" />
    <glyph glyph-name="arrowdblright" unicode="&#x21d2;" 
d="M41 298h692q50 54 98 90q-48 36 -98 90h-692v104h603q-49 59 -77 109l89 51q61 -100 156 -197t189 -157q-94 -60 -189 -157t-156 -197l-89 51q30 53 77 110h-603v103z" />
    <glyph glyph-name="arrowdblboth" unicode="&#x21d4;" 
d="M322 742l90 -51q-27 -53 -70 -109h340q-43 56 -70 109l90 51q54 -101 136 -197.5t163 -156.5q-81 -60 -163 -156.5t-136 -197.5l-90 51q28 56 70 110h-340q42 -54 70 -110l-90 -51q-54 101 -136 197.5t-163 156.5q81 60 163 156.5t136 197.5zM760 478h-496
q-45 -56 -87 -90q42 -34 87 -90h496q45 56 87 90q-42 34 -87 90z" />
    <glyph glyph-name="universal" unicode="&#x2200;" 
d="M819 791l92 -49l-397 -758h-4l-397 758l92 49l124 -238h366zM383 449l127 -245h4l127 245h-258z" />
    <glyph glyph-name="partialdiff" unicode="&#x2202;" 
d="M702 488q0 91 -42.5 142t-116.5 51q-90 0 -162 -76l-74 88q115 94 252 94q116 0 193.5 -80t77.5 -223q0 -63 -13 -129t-43 -132.5t-72 -118t-106.5 -83.5t-141.5 -32q-121 0 -187.5 67.5t-66.5 175.5q0 119 82 196.5t189 77.5q139 0 219 -113h2q10 49 10 95zM324 240
q0 -63 37 -100.5t95 -37.5q136 0 192 164q-19 66 -64.5 101t-101.5 35q-63 0 -110.5 -44.5t-47.5 -117.5z" />
    <glyph glyph-name="existential" unicode="&#x2203;" 
d="M194 765h633v-754h-633v104h529v222h-529v104h529v221h-529v103z" />
    <glyph glyph-name="gradient" unicode="&#x2207;" 
d="M419 -13l-276 666v91h738v-91l-276 -666h-186zM596 336l113 281h-398l110 -281l85 -231h5z" />
    <glyph glyph-name="element" unicode="&#x2208;" 
d="M892 613h-427q-85 0 -148.5 -48.5t-80.5 -124.5h656v-104h-656q17 -76 80.5 -124.5t148.5 -48.5h427v-104h-427q-144 0 -242.5 94.5t-98.5 234.5t98.5 234.5t242.5 94.5h427v-104z" />
    <glyph glyph-name="suchthat" unicode="&#x220b;" 
d="M559 613h-427v104h427q144 0 242.5 -94.5t98.5 -234.5t-98.5 -234.5t-242.5 -94.5h-427v104h427q85 0 148.5 48.5t80.5 124.5h-656v104h656q-17 76 -80.5 124.5t-148.5 48.5z" />
    <glyph glyph-name="radical" unicode="&#x221a;" 
d="M566 901h458v-48h-423l-330 -947h-32l-112 284l-70 -97l-28 22l148 208l99 -254z" />
    <glyph glyph-name="proportional" unicode="&#x221d;" 
d="M581 388q92 -110 201 -110q32 0 58 9l39 -97q-44 -16 -99 -16q-147 0 -268 134q-120 -134 -268 -134q-84 0 -149.5 57t-65.5 157t66 157.5t149 57.5q147 0 268 -135q122 135 268 135q53 0 99 -17l-39 -97q-28 10 -58 10q-108 0 -201 -111zM242 278q108 0 202 110
q-95 111 -202 111q-46 0 -77.5 -30.5t-31.5 -80.5t31.5 -80t77.5 -30z" />
    <glyph glyph-name="infinity" unicode="&#x221e;" 
d="M512 468q122 135 268 135q83 0 148.5 -57.5t65.5 -157.5t-65.5 -157t-148.5 -57q-147 0 -268 134q-120 -134 -268 -134q-84 0 -149.5 57t-65.5 157t66 157.5t149 57.5q147 0 268 -135zM242 278q108 0 202 110q-95 111 -202 111q-46 0 -77.5 -30.5t-31.5 -80.5t31.5 -80
t77.5 -30zM581 388q92 -110 201 -110q46 0 77.5 30t31.5 80t-31.5 80.5t-77.5 30.5q-108 0 -201 -111z" />
    <glyph glyph-name="angle" unicode="&#x2220;" 
d="M344 136v-3h564v-103h-810v4l672 675l74 -74z" />
    <glyph glyph-name="uni2225" unicode="&#x2225;" 
d="M195 140l326 652l92 -48l-324 -650zM503 -13l-92 47l324 649l94 -46z" />
    <glyph glyph-name="logicaland" unicode="&#x2227;" 
d="M113 39l397 758h4l397 -758l-92 -49l-305 587h-4l-305 -587z" />
    <glyph glyph-name="logicalor" unicode="&#x2228;" 
d="M911 737l-397 -757h-4l-397 757l92 49l305 -586h4l305 586z" />
    <glyph glyph-name="intersection" unicode="&#x2229;" 
d="M183 8v427q0 144 94.5 242.5t234.5 98.5t234.5 -98.5t94.5 -242.5v-427h-104v427q0 101 -64.5 169.5t-160.5 68.5t-160.5 -68.5t-64.5 -169.5v-427h-104z" />
    <glyph glyph-name="union" unicode="&#x222a;" 
d="M841 768v-427q0 -144 -94.5 -242.5t-234.5 -98.5t-234.5 98.5t-94.5 242.5v427h104v-427q0 -101 64.5 -169t160.5 -68t160.5 68t64.5 169v427h104z" />
    <glyph glyph-name="integral" unicode="&#x222b;" 
d="M449 193v416q0 263 197 263q31 0 66 -7l-12 -117q-20 4 -42 4q-44 0 -63.5 -35.5t-19.5 -130.5v-417q0 -263 -197 -263q-31 0 -66 7l12 118q20 -4 42 -4q44 0 63.5 35.5t19.5 130.5z" />
    <glyph glyph-name="uni222C" unicode="&#x222c;" 
d="M246 193v416q0 263 197 263q31 0 66 -7l-11 -117q-20 4 -42 4q-43 0 -62.5 -35t-19.5 -131v-417q0 -263 -199 -263q-30 0 -65 7l11 118q20 -4 43 -4q43 0 62.5 35.5t19.5 130.5zM650 193v416q0 263 199 263q30 0 65 -7l-11 -117q-20 4 -43 4q-43 0 -62.5 -35.5
t-19.5 -130.5v-417q0 -263 -197 -263q-31 0 -66 7l11 118q20 -4 42 -4q43 0 62.5 35t19.5 131z" />
    <glyph glyph-name="therefore" unicode="&#x2234;" 
d="M423 618q0 37 26 63.5t63 26.5t63 -26.5t26 -63.5q0 -36 -26 -62.5t-63 -26.5t-63 26.5t-26 62.5zM173 158q0 36 26 62.5t63 26.5q36 0 62.5 -26.5t26.5 -62.5q0 -37 -26.5 -63t-62.5 -26q-37 0 -63 26t-26 63zM674 158q0 36 26 62.5t62 26.5q37 0 63 -26.5t26 -62.5
q0 -37 -26 -63t-63 -26q-36 0 -62 26t-26 63z" />
    <glyph glyph-name="uni2235" unicode="&#x2235;" 
d="M173 618q0 37 26 63.5t63 26.5q36 0 62.5 -26.5t26.5 -63.5q0 -36 -26.5 -62.5t-62.5 -26.5q-37 0 -63 26.5t-26 62.5zM674 618q0 37 26 63.5t62 26.5q37 0 63 -26.5t26 -63.5q0 -36 -26 -62.5t-63 -26.5q-36 0 -62 26.5t-26 62.5zM423 158q0 36 26 62.5t63 26.5
t63 -26.5t26 -62.5q0 -37 -26 -63t-63 -26t-63 26t-26 63z" />
    <glyph glyph-name="uni223D" unicode="&#x223d;" 
d="M475 425q66 83 138 130.5t167 47.5q83 0 148.5 -57.5t65.5 -157.5q0 -101 -65.5 -157.5t-152.5 -56.5q-56 0 -98 16l39 97q25 -9 61 -9q50 0 81.5 29.5t31.5 80.5q0 50 -31.5 80.5t-77.5 30.5q-50 0 -95 -23t-74 -51.5t-65 -74.5q-65 -82 -136.5 -129t-167.5 -47
q-84 0 -149.5 57t-65.5 157q0 101 66 158t153 57q52 0 98 -17l-39 -97q-28 10 -61 10q-50 0 -81.5 -30t-31.5 -81q0 -50 31.5 -80t77.5 -30q72 0 125.5 38.5t107.5 108.5z" />
    <glyph glyph-name="uni2252" unicode="&#x2252;" 
d="M242 689q0 37 26 63t63 26q36 0 62 -26t26 -63q0 -36 -26 -62t-62 -26q-37 0 -63 26t-26 62zM148 531h728v-88h-728v88zM148 333h728v-88h-728v88zM605 87q0 36 26 62t62 26q37 0 63 -26t26 -62q0 -37 -26 -63t-63 -26q-36 0 -62 26t-26 63z" />
    <glyph glyph-name="notequal" unicode="&#x2260;" 
d="M876 454h-285l-48 -132h333v-105h-371l-68 -188l-98 36l56 152h-247v105h284l48 132h-332v103h370l69 191l98 -36l-56 -155h247v-103z" />
    <glyph glyph-name="equivalence" unicode="&#x2261;" 
d="M148 660h728v-96h-728v96zM148 436h728v-96h-728v96zM148 212h728v-96h-728v96z" />
    <glyph glyph-name="uni2266" unicode="&#x2266;" 
d="M873 872l36 -98l-510 -192v-3l510 -194l-36 -97l-770 291v3zM132 234h760v-96h-760v96zM132 43h760v-96h-760v96z" />
    <glyph glyph-name="uni2267" unicode="&#x2267;" 
d="M151 872l770 -290v-3l-770 -291l-36 97l510 194v3l-510 192zM132 234h760v-96h-760v96zM132 43h760v-96h-760v96z" />
    <glyph glyph-name="uni226A" unicode="&#x226a;" 
d="M601 787l50 -72l-467 -325v-4l467 -325l-50 -72l-568 397v4zM940 787l50 -72l-466 -325v-4l466 -325l-50 -72l-568 397v4z" />
    <glyph glyph-name="uni226B" unicode="&#x226b;" 
d="M84 787l568 -397v-4l-568 -397l-50 72l466 325v4l-466 325zM423 787l568 -397v-4l-568 -397l-50 72l467 325v4l-467 325z" />
    <glyph glyph-name="propersubset" unicode="&#x2282;" 
d="M892 59h-427q-144 0 -242.5 94.5t-98.5 234.5t98.5 234.5t242.5 94.5h427v-104h-427q-101 0 -169 -64.5t-68 -160.5t68 -160.5t169 -64.5h427v-104z" />
    <glyph glyph-name="propersuperset" unicode="&#x2283;" 
d="M132 717h427q144 0 242.5 -94.5t98.5 -234.5t-98.5 -234.5t-242.5 -94.5h-427v104h427q101 0 169.5 64.5t68.5 160.5t-68.5 160.5t-169.5 64.5h-427v104z" />
    <glyph glyph-name="reflexsubset" unicode="&#x2286;" 
d="M892 683h-475q-84 0 -136.5 -50t-52.5 -124q0 -73 52.5 -123.5t136.5 -50.5h475v-104h-476q-126 0 -209 81t-83 197q0 117 83 197.5t209 80.5h476v-104zM132 93h760v-104h-760v104z" />
    <glyph glyph-name="reflexsuperset" unicode="&#x2287;" 
d="M132 335h476q83 0 136 50.5t53 123.5t-53 123.5t-136 50.5h-476v104h476q126 0 209 -80.5t83 -197.5q0 -116 -83 -197t-209 -81h-476v104zM132 93h760v-104h-760v104z" />
    <glyph glyph-name="perpendicular" unicode="&#x22a5;" 
d="M564 135h363v-104h-830v104h363v620h104v-620z" />
    <glyph glyph-name="uni2312" unicode="&#x2312;" 
d="M63 571l-43 99q199 201 492 201t492 -201l-43 -99q-199 185 -449 185t-449 -185z" />
    <glyph glyph-name="SF100000" unicode="&#x2500;" 
d="M0 369v41h1024v-41h-1024z" />
    <glyph glyph-name="uni2501" unicode="&#x2501;" 
d="M0 328v123h1024v-123h-1024z" />
    <glyph glyph-name="SF110000" unicode="&#x2502;" 
d="M492 -123v1024h40v-1024h-40z" />
    <glyph glyph-name="uni2503" unicode="&#x2503;" 
d="M451 -123v1024h122v-1024h-122z" />
    <glyph glyph-name="SF010000" unicode="&#x250c;" 
d="M1024 369h-492v-492h-40v533h532v-41z" />
    <glyph glyph-name="uni250F" unicode="&#x250f;" 
d="M1024 328h-451v-451h-122v574h573v-123z" />
    <glyph glyph-name="SF030000" unicode="&#x2510;" 
d="M532 -123h-40v492h-492v41h532v-533z" />
    <glyph glyph-name="uni2513" unicode="&#x2513;" 
d="M573 -123h-122v451h-451v123h573v-574z" />
    <glyph glyph-name="SF020000" unicode="&#x2514;" 
d="M1024 369h-532v532h40v-491h492v-41z" />
    <glyph glyph-name="uni2517" unicode="&#x2517;" 
d="M451 328v573h122v-450h451v-123h-573z" />
    <glyph glyph-name="SF040000" unicode="&#x2518;" 
d="M532 369h-532v41h492v491h40v-532z" />
    <glyph glyph-name="uni251B" unicode="&#x251b;" 
d="M0 328v123h451v450h122v-573h-573z" />
    <glyph glyph-name="SF080000" unicode="&#x251c;" 
d="M1024 369h-492v-492h-40v1024h40v-491h492v-41z" />
    <glyph glyph-name="uni251D" unicode="&#x251d;" 
d="M1024 328h-492v-451h-40v1024h40v-450h492v-123z" />
    <glyph glyph-name="uni2520" unicode="&#x2520;" 
d="M1024 369h-451v-492h-122v1024h122v-491h451v-41z" />
    <glyph glyph-name="uni2523" unicode="&#x2523;" 
d="M1024 328h-451v-451h-122v1024h122v-450h451v-123z" />
    <glyph glyph-name="SF090000" unicode="&#x2524;" 
d="M532 -123h-40v492h-492v41h492v491h40v-1024z" />
    <glyph glyph-name="uni2525" unicode="&#x2525;" 
d="M532 -123h-40v451h-492v123h492v450h40v-1024z" />
    <glyph glyph-name="uni2528" unicode="&#x2528;" 
d="M573 -123h-122v492h-451v41h451v491h122v-1024z" />
    <glyph glyph-name="uni252B" unicode="&#x252b;" 
d="M573 -123h-122v451h-451v123h451v450h122v-1024z" />
    <glyph glyph-name="SF060000" unicode="&#x252c;" 
d="M1024 369h-492v-492h-40v492h-492v41h1024v-41z" />
    <glyph glyph-name="uni252F" unicode="&#x252f;" 
d="M1024 328h-492v-451h-40v451h-492v123h1024v-123z" />
    <glyph glyph-name="uni2530" unicode="&#x2530;" 
d="M1024 369h-451v-492h-122v492h-451v41h1024v-41z" />
    <glyph glyph-name="uni2533" unicode="&#x2533;" 
d="M1024 328h-451v-451h-122v451h-451v123h1024v-123z" />
    <glyph glyph-name="SF070000" unicode="&#x2534;" 
d="M1024 369h-1024v41h492v491h40v-491h492v-41z" />
    <glyph glyph-name="uni2537" unicode="&#x2537;" 
d="M1024 328h-1024v123h492v450h40v-450h492v-123z" />
    <glyph glyph-name="uni2538" unicode="&#x2538;" 
d="M1024 369h-1024v41h451v491h122v-491h451v-41z" />
    <glyph glyph-name="uni253B" unicode="&#x253b;" 
d="M1024 328h-1024v123h451v450h122v-450h451v-123z" />
    <glyph glyph-name="SF050000" unicode="&#x253c;" 
d="M1024 369h-492v-492h-40v492h-492v41h492v491h40v-491h492v-41z" />
    <glyph glyph-name="uni253F" unicode="&#x253f;" 
d="M1024 328h-492v-451h-40v451h-492v123h492v450h40v-450h492v-123z" />
    <glyph glyph-name="uni2542" unicode="&#x2542;" 
d="M1024 369h-451v-492h-122v492h-451v41h451v491h122v-491h451v-41z" />
    <glyph glyph-name="uni254B" unicode="&#x254b;" 
d="M1024 328h-451v-451h-122v451h-451v123h451v450h122v-450h451v-123z" />
    <glyph glyph-name="filledbox" unicode="&#x25a0;" 
d="M102 799h820v-819h-820v819z" />
    <glyph glyph-name="H22073" unicode="&#x25a1;" 
d="M102 799h820v-819h-820v819zM147 754v-729h730v729h-730z" />
    <glyph glyph-name="triagup" unicode="&#x25b2;" 
d="M512 846l481 -834h-962z" />
    <glyph glyph-name="uni25B3" unicode="&#x25b3;" 
d="M512 846l481 -834h-962zM512 756l-403 -699h806z" />
    <glyph glyph-name="triagdn" unicode="&#x25bc;" 
d="M31 766h962l-481 -834z" />
    <glyph glyph-name="uni25BD" unicode="&#x25bd;" 
d="M31 766h962l-481 -834zM915 721h-806l403 -698z" />
    <glyph glyph-name="uni25C6" unicode="&#x25c6;" 
d="M512 889l500 -500l-500 -500l-500 500z" />
    <glyph glyph-name="uni25C7" unicode="&#x25c7;" 
d="M512 889l500 -500l-500 -500l-500 500zM512 825l-435 -436l435 -436l436 436z" />
    <glyph glyph-name="circle" unicode="&#x25cb;" 
d="M838 63q-135 -135 -326 -135t-326 135t-135 326t135 326t326 135t326 -135t135 -326t-135 -326zM218 683q-122 -122 -122 -294t122 -294t294 -122t294 122t122 294t-122 294t-294 122t-294 -122z" />
    <glyph glyph-name="uni25CE" unicode="&#x25ce;" 
d="M186 63q-135 135 -135 326t135 326t326 135t326 -135t135 -326t-135 -326t-326 -135t-326 135zM806 95q122 122 122 294t-122 294t-294 122t-294 -122t-122 -294t122 -294t294 -122t294 122zM299 176q-88 88 -88 213t88 213t213 88t213 -88t88 -213t-88 -213t-213 -88
t-213 88zM698 203q77 77 77 186t-77 186t-186 77t-186 -77t-77 -186t77 -186t186 -77t186 77z" />
    <glyph glyph-name="H18533" unicode="&#x25cf;" 
d="M838 63q-135 -135 -326 -135t-326 135t-135 326t135 326t326 135t326 -135t135 -326t-135 -326z" />
    <glyph glyph-name="uni25EF" unicode="&#x25ef;" 
d="M270 807q111 65 242 65t242 -65t176 -176t65 -242t-65 -242t-176 -176t-242 -65t-242 65t-176 176t-65 242t65 242t176 176zM827 74q130 130 130 315t-130.5 315.5t-314.5 130.5t-314.5 -130.5t-130.5 -315.5t130.5 -315t314.5 -130t315 130z" />
    <glyph glyph-name="uni2605" unicode="&#x2605;" 
d="M628 498h357v-6l-289 -210l114 -345l-4 -3l-294 213l-294 -213l-4 3l114 345l-289 210v6h357l113 343h6z" />
    <glyph glyph-name="uni2606" unicode="&#x2606;" 
d="M396 498l111 343h10l111 -343h356l3 -11l-291 -205l116 -343l-7 -7l-293 215l-293 -215l-7 7l116 343l-291 205l3 11h356zM429 453h-161l-120 7v-2l102 -66l131 -93l-51 -149l-47 -119l2 -2l101 83l126 92l126 -92l101 -83l2 2l-47 119l-51 149l131 93l102 66v2l-120 -7
h-161l-52 157l-30 115h-2l-31 -115z" />
    <glyph glyph-name="female" unicode="&#x2640;" 
d="M275 603q0 98 69.5 167.5t167.5 69.5t167.5 -69.5t69.5 -167.5q0 -84 -52.5 -148t-132.5 -82v-84h280v-105h-280v-245h-104v245h-280v105h280v84q-80 18 -132.5 82t-52.5 148zM512 470q56 0 94.5 39t38.5 94t-39 93.5t-94 38.5t-94 -38.5t-39 -93.5t39 -94t94 -39z" />
    <glyph glyph-name="male" unicode="&#x2642;" 
d="M588 228q0 -98 -69.5 -167t-167.5 -69t-167 69t-69 167t69 167.5t167 69.5q69 0 124 -36l244 244h-220v103h400v-400h-103v227l-247 -246q39 -59 39 -129zM218 228q0 -56 39 -94.5t94 -38.5t94 39t39 94t-39 94t-94 39t-94 -39t-39 -94z" />
    <glyph glyph-name="musicalnote" unicode="&#x266a;" 
d="M498 860h25q0 -121 119 -225q132 -115 132 -231q0 -110 -86 -249h-26q64 131 64 215q0 88 -53 153t-134 83v-514q0 -77 -56 -125.5t-132 -48.5q-38 0 -66.5 20.5t-28.5 55.5q0 54 56.5 97.5t120.5 43.5q41 0 65 -13v738z" />
    <glyph glyph-name="uni266D" unicode="&#x266d;" 
d="M614 477q66 0 108.5 -38.5t42.5 -96.5q0 -49 -20.5 -91t-52.5 -71t-76.5 -60t-87 -56t-89 -61t-78.5 -73h-9v919h41v-514q36 65 94 103.5t127 38.5zM393 282v-280q26 30 74 75.5l77.5 75t53.5 75.5t24 94q0 86 -72 86q-37 0 -79 -32.5t-78 -93.5z" />
    <glyph glyph-name="uni266F" unicode="&#x266f;" 
d="M769 535l-139 -21v-207l139 21v-116l-139 -22v-232h-40v226l-162 -23v-234h-41v228l-139 -21v116l139 20v208l-139 -21v115l139 22v224h41v-218l162 24v224h40v-218l139 21v-116zM590 301v207l-162 -24v-208z" />
    <glyph glyph-name="uni3000" unicode="&#x3000;" 
 />
    <glyph glyph-name="uni3001" unicode="&#x3001;" 
d="M371 24l-110 -95q-103 128 -220 227l106 92q52 -42 117 -108t107 -116z" />
    <glyph glyph-name="uni3002" unicode="&#x3002;" 
d="M198 254q69 0 117.5 -49t48.5 -117t-48.5 -117t-117.5 -49q-68 0 -116.5 49t-48.5 117t48.5 117t116.5 49zM198 -3q38 0 65 26.5t27 64.5t-27 65t-65 27q-37 0 -64.5 -27t-27.5 -65t27.5 -64.5t64.5 -26.5z" />
    <glyph glyph-name="uni3003" unicode="&#x3003;" 
d="M367 634l141 -63l-233 -455l-77 35zM683 634l142 -63l-232 -455l-78 35z" />
    <glyph glyph-name="uni3005" unicode="&#x3005;" 
d="M797 627l94 -50q-69 -196 -207 -394q84 -56 122 -94l-85 -117q-56 59 -166 130.5t-220 122.5l76 103q86 -38 159 -77q83 116 140 249h-293q-98 -192 -215 -304q-53 40 -118 68q108 95 191 248t125 306l137 -31q-28 -85 -64 -165h301z" />
    <glyph glyph-name="uni3006" unicode="&#x3006;" 
d="M799 823l119 -75q-93 -105 -245 -304q127 -91 226 -173l-101 -125q-73 76 -215 182l-214 -284l-93 -134l-122 40q6 46 6 66q-2 146 -23 268l125 18q3 -32 6 -88t4 -70l203 264q-122 89 -220 139l94 111q129 -79 214 -137l130 167z" />
    <glyph glyph-name="uni3007" unicode="&#x3007;" 
d="M180 57q-138 137 -138 332t137.5 332.5t332.5 137.5t332.5 -137.5t137.5 -332.5t-137.5 -332.5t-332.5 -137.5t-332 138zM755 146q101 101 101 243t-101 243t-243 101t-243 -101t-101 -243t101 -243t243 -101t243 101z" />
    <glyph glyph-name="uni3008" unicode="&#x3008;" 
d="M701 389l268 -439l-102 -44l-294 483l294 483l102 -44z" />
    <glyph glyph-name="uni3009" unicode="&#x3009;" 
d="M157 -94l-102 44l268 439l-268 439l102 44l294 -483z" />
    <glyph glyph-name="uni300A" unicode="&#x300a;" 
d="M626 389l193 -457l-85 -26l-204 483l204 483l85 -26zM802 389l194 -457l-86 -26l-202 483l202 483l86 -26z" />
    <glyph glyph-name="uni300B" unicode="&#x300b;" 
d="M290 -94l-85 26l193 457l-193 457l85 26l204 -483zM114 -94l-86 26l194 457l-194 457l86 26l202 -483z" />
    <glyph glyph-name="uni300C" unicode="&#x300c;" 
d="M656 218v654h339v-110h-218v-544h-121z" />
    <glyph glyph-name="uni300D" unicode="&#x300d;" 
d="M369 560v-654h-340v110h218v544h122z" />
    <glyph glyph-name="uni300E" unicode="&#x300e;" 
d="M995 690h-184v-494h-197v676h381v-182zM950 827h-291v-586h108v494h183v92z" />
    <glyph glyph-name="uni300F" unicode="&#x300f;" 
d="M29 88h184v495h197v-677h-381v182zM74 -49h291v587h-108v-495h-183v-92z" />
    <glyph glyph-name="uni3010" unicode="&#x3010;" 
d="M676 872h319v-5q-89 -76 -145.5 -202t-56.5 -276t56.5 -276t145.5 -202v-5h-319v966z" />
    <glyph glyph-name="uni3011" unicode="&#x3011;" 
d="M348 872v-966h-319v5q89 76 145.5 202t56.5 276t-56.5 276t-145.5 202v5h319z" />
    <glyph glyph-name="uni3012" unicode="&#x3012;" 
d="M169 743h686v-108h-686v108zM169 515h686v-108h-285v-397h-116v397h-285v108z" />
    <glyph glyph-name="uni3013" unicode="&#x3013;" 
d="M922 799v-307h-820v307h820zM922 287v-307h-820v307h820z" />
    <glyph glyph-name="uni3014" unicode="&#x3014;" 
d="M949 -106l-239 153v684l239 154l49 -81l-176 -113v-604l176 -113z" />
    <glyph glyph-name="uni3015" unicode="&#x3015;" 
d="M314 47l-239 -153l-49 80l176 113v604l-176 113l49 81l239 -154v-684z" />
    <glyph glyph-name="uni301C" unicode="&#x301c;" 
d="M708 232q-138 0 -242 113q-37 39 -70 56.5t-83 17.5q-96 0 -162 -123l-113 61q103 189 278 189q138 0 242 -113q36 -39 69.5 -56.5t83.5 -17.5q96 0 162 123l113 -61q-103 -189 -278 -189z" />
    <glyph glyph-name="uni3041" unicode="&#x3041;" 
d="M487 204q63 64 100 150q-54 -1 -108 -17q0 -69 8 -133zM313 100q33 0 78 25q-14 77 -17 163q-43 -31 -71 -72t-28 -78q0 -38 38 -38zM625 493l105 -26q-2 -3 -13 -38q77 -25 121 -81.5t44 -130.5q0 -95 -67.5 -168.5t-212.5 -98.5l-61 96q115 13 170.5 62.5t55.5 118.5
q0 37 -21 66.5t-61 45.5q-63 -161 -174 -251q6 -23 18 -63l-105 -31q-8 26 -10 32q-67 -32 -122 -32t-88.5 29.5t-33.5 94.5q0 83 58.5 158.5t146.5 118.5q1 39 7 102h-25q-59 0 -148 7l-3 103q87 -12 151 -12h35l5 46q4 28 2 51l124 -2q-2 -7 -12 -48q-1 -7 -8 -44
q152 8 282 37l1 -105q-126 -21 -297 -29q-1 -8 -2.5 -21.5t-2.5 -25t-1 -21.5q62 13 119 13h14q7 32 9 47z" />
    <glyph glyph-name="uni3042" unicode="&#x3042;" 
d="M458 403v-2q0 -89 11 -168q82 82 128 193q-68 -1 -139 -23zM366 147q-19 111 -22 203q-56 -38 -91.5 -90.5t-35.5 -95.5q0 -49 47 -49t102 32zM640 590l125 -29q-8 -19 -19 -52q90 -30 143 -95.5t53 -153.5q0 -118 -80 -205.5t-254 -113.5l-67 106q138 16 206.5 77
t68.5 142q0 47 -26.5 85t-77.5 58q-81 -199 -214 -308q4 -16 23 -75l-117 -35q-9 27 -13 41q-80 -41 -157 -41q-60 0 -98.5 37.5t-38.5 110.5q0 95 71 188.5t178 144.5q6 86 10 127h-32q-39 0 -180 6l-4 118q94 -13 188 -13h39l6 54q4 38 3 60l133 -3q-7 -21 -14 -54
q-7 -27 -11 -54q191 6 344 43l1 -117q-147 -27 -360 -37q-6 -60 -7 -91q79 18 151 18h18q7 36 9 61z" />
    <glyph glyph-name="uni3043" unicode="&#x3043;" 
d="M180 594l139 -1q-9 -48 -9 -100q0 -153 7 -211q9 -81 31 -129t51 -48q26 0 49.5 53.5t36.5 117.5l96 -109q-40 -109 -82 -157.5t-102 -48.5q-71 0 -125 69.5t-73 228.5q-12 101 -12 249q0 58 -7 86zM621 535l117 38q64 -76 108 -207.5t52 -232.5l-125 -48
q-12 121 -49 249.5t-103 200.5z" />
    <glyph glyph-name="uni3044" unicode="&#x3044;" 
d="M113 731l155 -2q-12 -62 -12 -123q-2 -120 6 -215q24 -246 109 -246q32 0 60.5 61t46.5 138l103 -123q-50 -129 -100 -183.5t-113 -54.5q-90 0 -153 89.5t-84 282.5q-11 114 -11 274q0 66 -7 102zM646 665l129 43q69 -85 123 -241t63 -278l-135 -51q-13 145 -58.5 293
t-121.5 234z" />
    <glyph glyph-name="uni3045" unicode="&#x3045;" 
d="M681 260q0 44 -31.5 71.5t-89.5 27.5q-88 0 -222 -43q-40 -12 -77 -29l-35 130q38 1 84 11q5 1 39 8.5t54 11l53 9.5t62 8.5t55 2.5q107 0 171 -55.5t64 -153.5q0 -129 -105.5 -215.5t-301.5 -116.5l-64 115q344 41 344 218zM333 562l17 109q178 -33 387 -39l-18 -112
q-74 4 -196.5 17t-189.5 25z" />
    <glyph glyph-name="uni3046" unicode="&#x3046;" 
d="M698 337q0 53 -38.5 87.5t-107.5 33.5q-27 0 -56 -3t-49.5 -6t-50 -10t-40.5 -10t-39 -11.5t-29 -8.5q-17 -5 -52 -18t-47 -17l-37 144q43 4 110 18q8 2 47.5 10.5l61 13t58.5 10.5t71 9t68 3q123 0 198.5 -66.5t75.5 -183.5q0 -158 -132 -259.5t-351 -131.5l-73 127
q412 47 412 269zM281 701l20 123q84 -19 226.5 -32.5t229.5 -13.5l-21 -125q-287 19 -455 48z" />
    <glyph glyph-name="uni3047" unicode="&#x3047;" 
d="M343 561l17 108q110 -26 354 -44l-17 -109q-206 18 -354 45zM677 471l64 -73l-52 -39q-98 -84 -135 -127q19 -2 35 -11q31 -10 46 -60q3 -11 11 -36.5t11 -36.5q12 -33 58 -33q81 0 161 18l-8 -121q-60 -11 -171 -11q-62 0 -93.5 17.5t-44.5 52.5q-6 14 -13.5 43
t-10.5 37q-14 47 -46 47q-18 0 -55 -37q-65 -67 -144 -169l-111 77q9 7 48 42q238 230 294 294q-12 -1 -53.5 -4l-78 -5.5t-56.5 -4.5q-23 -2 -79 -12l-10 127q35 -4 82 -2q264 12 305 17q30 5 46 10z" />
    <glyph glyph-name="uni3048" unicode="&#x3048;" 
d="M302 710l20 117q187 -36 413 -49l-16 -120q-211 18 -417 52zM696 590l75 -85q-3 -2 -66 -51q-120 -105 -165 -153q22 0 38 -8q41 -12 62 -69q4 -11 13.5 -44.5t14.5 -47.5q13 -47 71 -47q112 0 199 17l-8 -133q-74 -14 -199 -14q-74 0 -114.5 19t-58.5 68q-10 26 -30 102
q-17 50 -54 50q-26 0 -65 -41q-90 -90 -182 -207l-121 84q40 32 71 62l88 88.5l149 151l115 118.5q-57 -2 -250 -19q-42 -4 -88 -12l-12 140q36 -3 97 -3q44 0 175 7.5t188 14.5q35 4 57 12z" />
    <glyph glyph-name="uni3049" unicode="&#x3049;" 
d="M326 54q25 0 25 34q0 36 -3 100q-80 -46 -80 -88q0 -16 20 -31t38 -15zM611 563l1 -113q-86 -19 -155 -28q-1 -31 -1 -88q82 19 155 19q104 0 170.5 -52.5t66.5 -139.5q0 -79 -50.5 -136t-158.5 -78q-15 -3 -95 -10l-39 118q62 0 97 6q54 8 89 34.5t35 67.5
q0 42 -31.5 65.5t-86.5 23.5q-78 0 -151 -21q4 -140 4 -169q0 -129 -97 -129q-67 0 -137.5 48.5t-70.5 112.5q0 57 54 111.5t136 91.5v32v82q-15 -1 -46 -1q-55 0 -121 6l-1 118q77 -10 122 -10q31 0 47 1v50q0 47 -5 77h128q-6 -39 -8 -77l-2 -40q92 12 151 28zM655 493
l55 96q136 -68 209 -121l-61 -99q-26 23 -91.5 62t-111.5 62z" />
    <glyph glyph-name="uni304A" unicode="&#x304a;" 
d="M286 91q32 0 32 44q0 45 -3 125q-47 -24 -75 -53t-28 -56q0 -22 26 -41t48 -19zM430 456v-36q106 26 195 26q120 0 199 -60t79 -162q0 -195 -223 -250q-57 -12 -133 -16l-47 130q83 0 125 7q66 11 106.5 44t40.5 86q0 51 -41 80t-108 29q-89 0 -191 -28q1 -30 2 -75
t2 -74t1 -44q0 -89 -28.5 -124t-82.5 -35q-81 0 -160.5 58t-79.5 134q0 64 64.5 128.5t162.5 106.5q-1 24 -1 71v85q-38 -2 -54 -2q-86 0 -141 5l-2 123q76 -9 140 -9q18 0 58 2q1 36 1 83t-7 89h139q-4 -36 -8 -88q-2 -46 -3 -72q100 13 187 38l3 -127q-81 -19 -194 -32
q-1 -31 -1 -91zM680 620l56 99q159 -77 249 -142l-61 -105q-33 29 -110.5 74.5t-133.5 73.5z" />
    <glyph glyph-name="uni304B" unicode="&#x304b;" 
d="M323 821l150 -15q-14 -62 -18 -84q-3 -17 -10.5 -54l-10.5 -51l85 5q183 0 183 -194q0 -253 -57 -370q-24 -51 -65 -72t-102 -21q-57 0 -121 15l-22 134q78 -22 124 -22q57 0 76 44q42 81 42 278q0 57 -23 74.5t-77 17.5q-11 0 -69 -4q-90 -355 -206 -542l-133 53
q120 161 204 474q-59 -7 -87 -11q-47 -5 -112 -15l-12 137q27 -2 108 0q48 2 131 8q23 130 22 215zM700 659l123 52q43 -61 97 -179.5t80 -197.5l-128 -61q-22 93 -71.5 208t-100.5 178z" />
    <glyph glyph-name="uni304C" unicode="&#x304c;" 
d="M1004 748l-81 -36q-50 98 -83 141l81 34q51 -71 83 -139zM315 814l151 -15q-6 -28 -17 -84l-10.5 -49.5l-11.5 -55.5q68 4 85 4q183 0 183 -193q0 -253 -57 -370q-24 -51 -64.5 -72t-102.5 -21q-61 0 -121 14l-22 134q74 -21 125 -21q54 0 75 44q41 82 41 278
q0 57 -23 74.5t-75 17.5q-12 0 -70 -4q-94 -361 -206 -542l-133 53q124 169 204 474q-58 -6 -87 -11q-47 -5 -112 -15l-12 137q27 -2 108 0q48 2 131 8q22 125 21 215zM882 700l-53 -22q42 -66 91.5 -173.5t73.5 -179.5l-129 -61q-22 93 -71 206t-100 176l94 40
q-45 89 -69 121l81 34q34 -49 82 -141z" />
    <glyph glyph-name="uni304D" unicode="&#x304d;" 
d="M196 288l126 -12q-25 -60 -25 -98q0 -106 177 -106q155 0 268 22l-4 -130q-118 -19 -261 -19q-146 0 -226 51t-80 154q0 52 25 138zM865 582l25 -115q-59 -21 -157 -41q62 -128 84 -169l-60 -77q-131 23 -221 34l11 97q24 -3 63 -7t44 -4l-46 106q-214 -24 -445 -7
l-5 117q225 -21 404 -2l-17 40l-25 57q-168 -14 -349 4l-6 116q176 -18 307 -11v1q-15 32 -49 87l144 28q8 -36 32 -102q103 16 195 47l21 -113q-100 -29 -174 -41l19 -44l24 -52q94 18 181 51z" />
    <glyph glyph-name="uni304E" unicode="&#x304e;" 
d="M156 279l125 -12q-24 -62 -24 -98q0 -107 176 -107q151 0 268 23l-4 -130q-124 -20 -260 -20q-146 0 -226.5 51t-80.5 154q0 57 26 139zM825 572l24 -114q-59 -21 -157 -41q62 -128 84 -169l-60 -77q-134 24 -221 34l11 96l57 -5.5t51 -4.5q-38 85 -46 105
q-209 -23 -446 -6l-5 117q226 -21 404 -2l-16 39q-4 8 -26 58q-168 -14 -348 4l-7 116q175 -18 307 -11v1q-22 44 -49 87l145 27q7 -33 32 -101q82 13 157 38l21 -114q-69 -21 -136 -32l20 -44l22 -51q97 19 182 50zM716 805l76 32q44 -64 80 -139l-76 -34q-43 89 -80 141z
M829 849l75 34q45 -61 86 -135l-77 -37q-41 81 -84 138z" />
    <glyph glyph-name="uni304F" unicode="&#x304f;" 
d="M631 841l119 -106l-48 -36.5l-42 -31.5l-267 -215q-40 -35 -39.5 -52.5t41.5 -52.5l101.5 -84l153 -127t117.5 -105l-118 -109l-48 50.5l-41 43.5q-62 65 -303 270q-74 65 -71 113t80 112q233 191 287 245q60 58 78 85z" />
    <glyph glyph-name="uni3050" unicode="&#x3050;" 
d="M589 559l82 33q29 -40 86 -152l-84 -36q-4 7 -23.5 45.5l-33.5 65t-27 44.5zM711 606l84 35q27 -38 87 -152l-83 -34q-72 129 -88 151zM614 841l120 -106q-17 -12 -47.5 -35.5l-42.5 -32.5q-238 -191 -266 -215q-40 -35 -40 -52.5t41 -52.5l101 -83l154.5 -129
t116.5 -104l-118 -109l-27 30l-33 35l-28 29q-55 57 -303 270q-51 43 -65 78t3.5 69.5t69.5 77.5q219 178 287 245q60 58 77 85z" />
    <glyph glyph-name="uni3051" unicode="&#x3051;" 
d="M139 809l151 -15q-21 -66 -24 -82q-66 -300 -34 -451q5 11 22 53.5l26 63.5l64 -40q-44 -129 -69 -248q-7 -26 -7 -49l3 -42l-113 -11q-21 59 -40 151t-19 177q0 191 34 405q6 35 6 88zM941 631l-1 -132q-74 -9 -150 -13v-42q0 -81 -3.5 -134.5t-16 -112.5t-36.5 -101.5
t-64.5 -85.5t-100.5 -81l-117 93q75 33 118 80q56 58 75.5 133t19.5 209v37q-76 -2 -114 -2q-32 0 -157 5v129q71 -10 154 -10q37 0 115 2q-1 69 -6 136q-4 47 -11 70h149q-3 -15 -5 -69q-2 -46 -2 -130q84 6 153 19z" />
    <glyph glyph-name="uni3052" unicode="&#x3052;" 
d="M903 677l-70 -24q-28 90 -54 146l70 21q38 -84 54 -143zM122 779l150 -14q-15 -43 -24 -83q-65 -294 -34 -439l48 116l64 -40q-44 -130 -69 -247q-6 -30 -6 -49q0 -14 2 -42l-113 -12q-21 55 -39.5 149t-18.5 180q0 177 34 394q4 25 6 87zM617 782h148q-3 -26 -5 -69
v-129q107 9 163 19l-1 -133q-61 -7 -161 -12v-32q0 -81 -3.5 -134.5t-16 -112.5t-36.5 -101.5t-64.5 -85.5t-100.5 -81l-117 92q75 33 119 81q56 59 75 133.5t19 209.5v26q-70 -2 -104 -2q-54 0 -156 6v129q86 -12 154 -12q15 0 32 0.5t38 1.5t34 1q-2 86 -5 136
q-4 40 -12 69zM885 831l69 22q38 -80 57 -142l-70 -23q-32 94 -56 143z" />
    <glyph glyph-name="uni3053" unicode="&#x3053;" 
d="M225 607v135q114 -12 277 -12q158 0 294 14v-136q-170 -12 -293 -12q-126 0 -278 11zM178 325l133 -13q-17 -70 -17 -102q0 -51 51.5 -81.5t156.5 -30.5q212 0 356 40l1 -142q-140 -35 -352 -35q-172 0 -260.5 56t-88.5 161q0 52 20 147z" />
    <glyph glyph-name="uni3054" unicode="&#x3054;" 
d="M156 314l133 -12q-17 -70 -17 -102q0 -51 51 -81.5t156 -30.5q213 0 357 40l1 -143q-150 -34 -353 -34q-172 0 -260 56t-88 161q0 48 20 146zM722 807l81 33q43 -62 82 -141l-83 -35l-14 27l-15 29v-122q-170 -12 -293 -12q-126 0 -276 11v135q112 -12 275 -12
q142 0 287 13q-22 43 -44 74zM843 853l81 33q47 -64 83 -140l-81 -34q-48 94 -83 141z" />
    <glyph glyph-name="uni3055" unicode="&#x3055;" 
d="M195 333l131 -11q-28 -77 -28 -121q0 -60 40 -92t141 -32q66 0 121.5 5t78 9t77.5 15l-3 -134q-134 -24 -274 -24q-153 0 -233 56t-80 162q0 62 29 167zM856 731l24 -128q-92 -25 -172 -41q68 -143 131 -259l-72 -77q-117 24 -230 37l11 105q13 -1 58 -6t62 -6l-89 186
q-186 -19 -427 0l-5 130q208 -26 379 -10q-9 18 -21 48q-24 54 -50 97l143 28q23 -73 59 -155q105 19 199 51z" />
    <glyph glyph-name="uni3056" unicode="&#x3056;" 
d="M178 325l132 -11q-28 -73 -28 -121q0 -60 40 -91.5t141 -31.5q23 0 43.5 0.5t40.5 1.5t33.5 2t32 3.5t26.5 3t27.5 4t23.5 4t25.5 5t23.5 4.5l-3 -134q-134 -24 -273 -24q-153 0 -233 56t-80 162q0 66 28 167zM719 815l81 34q48 -70 81 -140l-35 -16l18 -98
q-95 -26 -172 -41q62 -134 130 -259l-71 -76q-101 21 -231 36l11 104q107 -9 120 -10q-7 16 -39 82.5l-49 102.5q-187 -19 -428 0l-4 130q213 -26 379 -11l-22 48q-28 63 -50 98l145 27q20 -67 58 -154q64 12 141 34q-33 69 -63 109zM841 859l81 34q49 -70 83 -139l-81 -36
q-48 94 -83 141z" />
    <glyph glyph-name="uni3057" unicode="&#x3057;" 
d="M218 811l164 -2q-11 -70 -13 -135q-13 -283 -13 -462q0 -135 140 -135q211 0 347 207l92 -114q-28 -41 -65.5 -77.5t-91.5 -73t-127.5 -58.5t-155.5 -22q-130 0 -202 60t-72 185q0 74 5 263.5t5 226.5q0 79 -13 137z" />
    <glyph glyph-name="uni3058" unicode="&#x3058;" 
d="M540 686l89 38q56 -82 96 -165l-92 -40q-46 100 -93 167zM678 739l88 40q62 -84 99 -159l-89 -43q-49 96 -98 162zM202 805l164 -1q-13 -77 -14 -135q-12 -264 -12 -462q0 -136 139 -136q211 0 347 207l93 -113q-28 -41 -65.5 -78t-91.5 -73.5t-128 -58.5t-156 -22
q-130 0 -201.5 60t-71.5 186q0 74 5 263t5 227q0 78 -13 136z" />
    <glyph glyph-name="uni3059" unicode="&#x3059;" 
d="M413 337q0 -34 23 -55t54 -21q35 0 55.5 29.5t11.5 90.5q-20 36 -67 36q-31 0 -54 -21t-23 -59zM953 705l-1 -120q-102 5 -294 5q1 -51 1 -151q38 -56 38 -140q0 -42 -9.5 -82.5t-33.5 -84.5t-60 -81t-93 -69.5t-129 -52.5l-108 109q175 38 248 116q-28 -6 -46 -6
q-66 0 -120.5 50t-54.5 137q0 84 59 136.5t144 52.5q22 0 40 -3l-2 68q-194 -3 -435 -16l-3 123q68 0 239.5 3.5t196.5 3.5q0 24 -1 31q-4 69 -9 88h148q-4 -20 -8 -87q0 -3 -0.5 -13t-0.5 -17h294z" />
    <glyph glyph-name="uni305A" unicode="&#x305a;" 
d="M981 751l-86 -36q-33 67 -72 121l85 34q50 -73 73 -119zM383 323q0 -34 23.5 -55.5t55.5 -21.5q35 0 54.5 30t10.5 92q-20 34 -66 34q-31 0 -54.5 -21t-23.5 -58zM843 721l-71 -31h152l-1 -121q-122 6 -294 6q1 -51 1 -150q38 -56 38 -140q0 -53 -16.5 -104.5t-52.5 -103
t-101.5 -94.5t-154.5 -68l-109 109q178 38 248 115q-23 -5 -46 -5q-66 0 -120.5 49.5t-54.5 135.5q0 85 59 138t144 53q22 0 41 -3l-1 67q-219 -3 -436 -15l-3 123q69 0 240 3.5t197 3.5q0 7 -0.5 17t-0.5 14q-6 67 -11 88h148q-2 -12 -7 -87q0 -3 -0.5 -14t-0.5 -17h124
q-35 70 -67 116l84 35q42 -58 72 -120z" />
    <glyph glyph-name="uni305B" unicode="&#x305b;" 
d="M644 800h137q-4 -18 -6 -87q-1 -53 -3 -110q60 4 77 5q5 0 42 3t55 4v-125q-26 2 -98 -1q-57 -3 -78 -4q-6 -154 -15 -202q-7 -38 -27 -52.5t-61 -14.5q-63 0 -153 15l3 112q64 -12 93 -12q16 0 23 4.5t9 18.5q5 37 7 122q-139 -11 -275 -25q-2 -187 0 -230q1 -34 4 -51
t11 -34t26.5 -23t47 -10t75.5 -4q156 0 303 27l-5 -139q-147 -17 -289 -17q-80 0 -132 8t-85.5 22.5t-50.5 44.5t-23.5 64.5t-7.5 91.5q-1 43 -1 236l-69 -7q-3 0 -122 -18l-13 130q51 0 127 6l77 7v102q0 55 -8 113h143q-6 -51 -6 -105q0 -58 -1 -98l121.5 11.5l154.5 14.5
v115q0 50 -7 92z" />
    <glyph glyph-name="uni305C" unicode="&#x305c;" 
d="M897 643l-71 -23q-31 99 -52 141l70 22q39 -88 53 -140zM625 783h137q-3 -17 -6 -87q-1 -47 -3 -109q62 4 76 5l98 7v-125q-10 1 -50 0t-49 -1q-53 -2 -77 -4q-6 -149 -16 -204q-7 -38 -27 -52t-61 -14q-56 0 -152 16l3 112q69 -13 93 -13q16 0 23 4.5t9 18.5q5 38 7 123
q-63 -5 -276 -27q-2 -185 0 -228q1 -43 5 -62.5t21 -35.5t48 -20t90 -4q151 0 303 26l-5 -140q-158 -16 -289 -16q-100 0 -157.5 10.5t-89 40t-41 69t-11.5 111.5q-1 43 -1 236l-68 -7q-3 0 -122 -18l-13 130q50 0 127 6l76 8v102q0 56 -8 112h143q-6 -49 -6 -105
q0 -57 -1 -97q17 2 120 11.5l157 14.5v113q0 49 -7 93zM880 797l69 21q38 -79 56 -139l-70 -23q-32 94 -55 141z" />
    <glyph glyph-name="uni305D" unicode="&#x305d;" 
d="M260 651l-6 130q43 -4 96 -4q35 0 143.5 6t151.5 11q43 4 71 12l80 -93q-68 -47 -79 -57l-122.5 -99l-119.5 -96q233 24 427 24v-119q-166 10 -260 -2q-71 -10 -121 -55.5t-50 -106.5q0 -57 40 -85t114 -37q76 -8 154 -2l-26 -133q-198 -8 -305 51t-107 184q0 44 22 87.5
t52 72.5q-127 -10 -307 -40l-13 123q19 2 177 20q107 70 286 231q-8 -1 -95.5 -6.5t-111.5 -7.5q-15 -1 -47 -4.5t-44 -4.5z" />
    <glyph glyph-name="uni305E" unicode="&#x305e;" 
d="M685 624l76 32q36 -53 69 -121l-77 -34q-31 69 -68 123zM799 668l74 34q50 -67 74 -119l-76 -35q-44 84 -72 120zM229 651l-6 130q43 -4 96 -4q35 0 143.5 6t151.5 11q43 4 71 12l80 -93q-68 -47 -79 -57l-122.5 -99l-119.5 -96q233 24 426 24l1 -119q-166 10 -260 -2
q-71 -10 -121 -55.5t-50 -106.5q0 -57 40 -85t114 -37q77 -8 155 -2l-27 -133q-198 -8 -305 51t-107 184q0 44 22 87.5t52 72.5q-127 -10 -307 -40l-12 123q19 2 177 20q104 67 285 231q-7 -1 -94.5 -6.5t-111.5 -7.5q-15 -1 -48 -4.5t-44 -4.5z" />
    <glyph glyph-name="uni305F" unicode="&#x305f;" 
d="M546 388v120q112 10 194 10q90 0 179 -9l-4 -122q-100 12 -174 12q-108 0 -195 -11zM626 714v-128q-99 -21 -197 -33q-12 -61 -31 -130q-30 -113 -75.5 -248.5t-84.5 -220.5l-143 47q43 72 93.5 207.5t81.5 249.5q1 6 9.5 36.5t12.5 47.5q-48 -2 -67 -2q-51 0 -123 4
l-3 127q69 -8 128 -8q43 0 90 3q10 56 10 58q8 58 4 102l154 -12q-3 -11 -21 -95l-8 -39q79 12 170 34zM483 264l122 -11q-14 -51 -14 -85q0 -37 29 -57t105 -20q93 0 211 21l-5 -130q-122 -15 -207 -15q-127 0 -192.5 42t-65.5 120q0 50 17 135z" />
    <glyph glyph-name="uni3060" unicode="&#x3060;" 
d="M863 636l-82 -36q-43 91 -80 142l81 34q48 -70 81 -140zM515 377v119q93 10 195 10q99 0 178 -8l-3 -123q-108 13 -174 13q-97 0 -196 -11zM595 701v-127q-85 -20 -197 -33q-16 -77 -30 -130q-29 -111 -75 -246.5t-86 -222.5l-142 47q43 73 94 208t81 248q20 79 21 85
q-48 -2 -66 -2q-51 0 -123 4l-3 126q61 -7 128 -7q43 0 90 3q5 26 9 58q8 58 4 103l155 -12l-22 -96l-8 -38q85 12 170 32zM453 252l121 -10q-14 -52 -14 -85q0 -37 29 -57.5t105 -20.5q89 0 211 20l-5 -130q-114 -14 -207 -14q-127 0 -192.5 42t-65.5 120q0 47 18 135z
M822 790l81 32q51 -71 83 -139l-81 -35q-50 97 -83 142z" />
    <glyph glyph-name="uni3061" unicode="&#x3061;" 
d="M809 727l2 -123q-221 -34 -402 -43q-19 -89 -47 -175q117 64 252 64q123 0 198 -60.5t75 -157.5q0 -166 -146 -234t-401 -41l-36 131q86 -14 164 -14t142.5 14t102.5 50t38 90q0 47 -40.5 79.5t-111.5 32.5q-89 0 -163 -31t-118 -89q-7 -8 -28 -44l-120 43
q64 124 116 340q-87 1 -175 10v126q105 -17 198 -19q1 5 3 19.5l3 21.5q7 63 6 102l143 -6q-9 -28 -24 -103l-6 -31q206 11 375 48z" />
    <glyph glyph-name="uni3062" unicode="&#x3062;" 
d="M757 702l2 -121q-200 -32 -390 -41q-22 -96 -44 -165q115 63 252 63q123 0 198 -60t75 -157q0 -166 -146.5 -234t-401.5 -41l-36 131q86 -14 164 -14t142.5 14t102.5 50t38 90q0 47 -40.5 79.5t-111.5 32.5q-88 0 -161.5 -31.5t-118.5 -88.5q-15 -18 -29 -44l-120 43
q61 118 113 330q-86 1 -172 10v126q112 -19 196 -20q5 23 9 52q7 58 4 102l144 -6q-8 -26 -24 -104l-8 -41q200 9 363 45zM716 807l82 33q39 -57 81 -141l-82 -34q-4 7 -17.5 32.5l-21 40t-20 35t-22.5 34.5zM838 853l81 33q41 -57 82 -140l-80 -34q-48 94 -83 141z" />
    <glyph glyph-name="uni3063" unicode="&#x3063;" 
d="M203 302l-52 133q48 8 107 27q6 2 50 15.5t74.5 21.5l76 19.5t87 17t76.5 5.5q121 0 194 -67t73 -182q0 -141 -123 -228t-360 -101l-54 126q183 5 293 55.5t110 149.5q0 57 -40 93t-106 36q-121 0 -406 -121z" />
    <glyph glyph-name="uni3064" unicode="&#x3064;" 
d="M118 418l-58 143q43 7 124 31q8 2 48.5 15l67 21t74 20.5t84 20t80.5 13.5t79 6q142 0 235 -78.5t93 -214.5q0 -171 -154 -276t-422 -119l-59 135q142 3 249.5 31t174 87t66.5 144q0 74 -49.5 121t-138.5 47q-166 0 -494 -147z" />
    <glyph glyph-name="uni3065" unicode="&#x3065;" 
d="M707 790l80 33q42 -60 82 -141l-82 -35q-61 117 -80 143zM828 837l81 32q46 -64 83 -139l-82 -35q-39 83 -82 142zM99 403l-57 143q26 4 125 31q3 1 30 9.5l39.5 12.5l43.5 13.5t51.5 15l51.5 13.5t56 13t54 9.5t55.5 7t50.5 2.5q142 0 235 -78t93 -215q0 -171 -154 -276
t-423 -118l-58 135q219 5 354 70.5t135 191.5q0 74 -49 121t-138 47q-154 0 -495 -148z" />
    <glyph glyph-name="uni3066" unicode="&#x3066;" 
d="M90 563l-12 139q52 1 99 6l437 38q169 13 287 18l1 -131q-136 0 -195 -13q-90 -24 -152 -108t-62 -176q0 -60 26.5 -105.5t73.5 -72t103 -40.5t124 -18l-47 -140q-82 5 -155 30t-131.5 67t-93 107t-34.5 144q0 101 45.5 185t104.5 128q-294 -30 -419 -58z" />
    <glyph glyph-name="uni3067" unicode="&#x3067;" 
d="M682 501l76 31q56 -83 82 -139l-78 -35q-41 89 -80 143zM798 545l74 35q45 -62 86 -137l-76 -36q-39 77 -84 138zM88 561l-13 139q55 1 99 6q37 3 103 9l165.5 14.5l169.5 14.5q171 13 287 18l1 -131q-132 0 -195 -14q-91 -24 -153 -107.5t-62 -175.5q0 -60 26.5 -105.5
t73.5 -72.5t103.5 -41t124.5 -17l-47 -140q-82 5 -155 29.5t-131.5 66.5t-93 107t-34.5 145q0 101 45 184.5t105 127.5q-299 -31 -419 -57z" />
    <glyph glyph-name="uni3068" unicode="&#x3068;" 
d="M759 714l70 -118q-57 -33 -100 -54l-56 -28l-76.5 -38.5l-74.5 -39.5t-76 -45q-141 -91 -141 -184q0 -112 211 -112q166 0 332 37l-2 -146q-154 -25 -326 -25q-354 0 -354 230q0 143 168 268q-68 126 -143 302l128 52q50 -134 127 -281q48 28 127 70t93 50q69 42 93 62z
" />
    <glyph glyph-name="uni3069" unicode="&#x3069;" 
d="M715 685l63 -119q-62 -36 -100 -54q-15 -8 -66.5 -33.5t-97 -50.5t-87.5 -52q-140 -92 -140 -185q0 -111 211 -111q164 0 330 37l-2 -146q-143 -25 -325 -25q-355 0 -355 231q0 79 44 142.5t124 123.5q-61 114 -141 302l128 53q50 -134 127 -281l106 59t88 49
q67 39 93 60zM713 783l81 33q42 -59 82 -140l-83 -35q-41 87 -80 142zM834 829l81 34q50 -72 82 -140l-81 -35q-50 98 -82 141z" />
    <glyph glyph-name="uni306A" unicode="&#x306a;" 
d="M967 559l-72 -107q-42 34 -115.5 76.5t-128.5 67.5l66 100q56 -25 134.5 -67.5t115.5 -69.5zM585 715l3 -118q-91 -24 -176 -35q-36 -108 -96 -228t-121 -206l-124 62q58 70 114 169.5t93 189.5q-17 -1 -53 -1q-61 0 -127 3l-9 119q62 -7 135 -7q44 0 91 3q25 101 28 170
l140 -15l-34 -138q64 11 136 32zM609 151v19q-45 10 -82 10q-43 0 -69.5 -16.5t-26.5 -43.5q0 -29 23 -46.5t64 -17.5q91 0 91 95zM593 506h128q-2 -31 0 -130q2 -66 6 -128q114 -43 210 -130l-68 -109q-78 72 -137 108v-9q0 -76 -46.5 -122t-148.5 -46q-99 0 -162.5 43.5
t-63.5 124.5q0 76 61 126t164 50q24 0 68 -4q0 12 -11 226z" />
    <glyph glyph-name="uni306B" unicode="&#x306b;" 
d="M460 584l-1 131q100 -12 223.5 -11t212.5 11v-131q-216 -19 -435 0zM424 292l117 -11q-13 -54 -13 -85q0 -72 142 -72q122 0 254 27l3 -138q-110 -20 -262 -20q-128 0 -193 44t-65 123q0 52 17 132zM161 794l142 -13q-9 -23 -24 -90q-50 -243 -50 -372q0 -36 4 -65
q8 20 24.5 54.5t21.5 47.5l63 -49q-59 -172 -73 -249q-6 -28 -6 -47q1 -6 1.5 -20.5t0.5 -21.5l-117 -8q-39 138 -39 332q0 53 5.5 119.5t10.5 105.5t15 105t11 71q10 72 10 100z" />
    <glyph glyph-name="uni306C" unicode="&#x306c;" 
d="M656 87q58 0 97 72q-48 23 -90 23q-30 0 -48 -13.5t-18 -33.5q0 -48 59 -48zM219 126q40 0 98 71q-34 54 -56 97q-21 42 -31 67q-55 -89 -55 -167q0 -28 12 -48t32 -20zM469 554q-85 -25 -153 -88q9 -25 29 -65q13 -29 47 -89q26 52 38 89q24 76 39 153zM615 719l-4 -39
q135 -6 222 -93t87 -226q0 -86 -19 -167q52 -39 100 -96l-75 -96q-27 34 -71 80q-68 -109 -193 -109q-80 0 -128 39.5t-48 109.5q0 61 48.5 109.5t123.5 48.5q61 0 125 -22q10 53 10 100q0 99 -53 154.5t-144 58.5q-16 -104 -47 -201q-49 -149 -144 -263t-194 -114
q-65 0 -109 47t-44 131q0 155 93 280q18 23 30 37l-24 71q-27 82 -43 119l120 50q12 -64 40 -153q99 73 211 95q2 16 4 53q1 56 -2 91l142 -4q-4 -21 -9 -55.5t-5 -35.5z" />
    <glyph glyph-name="uni306D" unicode="&#x306d;" 
d="M657 92q69 0 101 82q-57 25 -103 25q-34 0 -57 -14t-23 -38q0 -55 82 -55zM388 553l-1 -10q166 146 295 146q108 0 169 -82.5t61 -222.5q0 -96 -11 -162q52 -38 105 -94l-66 -105q-32 39 -75 77q-58 -123 -200 -123q-90 0 -145 41.5t-55 123.5q0 69 55 114t146 45
q62 0 116 -18q5 57 5 110q0 82 -35 131t-93 49q-118 0 -282 -182q-3 -51 -3 -96q0 -168 6 -263l4 -42.5t3 -35.5h-139q3 33 3 75q1 41 2 111t2 112l-128 -187l-80 112q128 157 217 290l4 71l-89.5 -11.5l-94.5 -12.5l-12 130q43 -1 88 1q44 3 116 13l2 33.5t2 28.5t1 16
q0 59 -5 90l149 -4q-12 -59 -23 -144l38 -48q-20 -26 -52 -77z" />
    <glyph glyph-name="uni306E" unicode="&#x306e;" 
d="M280 184q63 0 123 201q36 112 55 246q-118 -25 -187.5 -113.5t-69.5 -180.5q0 -72 24 -112.5t55 -40.5zM558 -42l-76 120q54 7 95 16q102 24 166 95t64 177t-55.5 178t-156.5 90q-28 -170 -60 -276q-46 -157 -112 -243t-148 -86q-85 0 -145.5 84.5t-60.5 210.5
q0 177 136 305.5t331 128.5q184 0 296.5 -113.5t112.5 -283.5q0 -162 -99 -268t-288 -135z" />
    <glyph glyph-name="uni306F" unicode="&#x306f;" 
d="M152 800l141 -13q-11 -28 -25 -90q-14 -61 -31 -192t-17 -200q0 -38 4 -65q2 6 45 103l63 -50q-58 -165 -73 -242q-7 -30 -5 -47q0 -28 1 -42l-115 -8q-40 142 -40 324q0 149 42 422q10 72 10 100zM664 170v17q-46 12 -82 12q-43 0 -70 -17t-27 -45q0 -29 26.5 -44
t68.5 -15q45 0 64.5 23t19.5 69zM984 129l-69 -106q-62 59 -122 101q-5 -77 -53 -121.5t-146 -44.5q-105 0 -166 43.5t-61 122.5q0 78 61 126t164 48q39 0 66 -4q-6 119 -7 208q-25 -1 -72 -1q-88 0 -178 6v121q97 -10 178 -10q23 0 71 2q0 19 -0.5 44.5t-1 41.5t-0.5 26
q0 27 -6 67h145q-4 -27 -6 -66q-3 -69 -3 -105q98 11 157 23v-126q-79 -11 -158 -17q2 -90 11 -248q100 -41 196 -131z" />
    <glyph glyph-name="uni3070" unicode="&#x3070;" 
d="M1007 724l-71 -23q-32 94 -55 141l69 21q36 -75 57 -139zM899 691l-72 -24q-30 98 -52 142l70 21q32 -67 54 -139zM124 787l140 -11q-8 -21 -24 -91q-14 -62 -31.5 -192.5t-17.5 -199.5q0 -29 5 -66q7 21 24 57.5t21 47.5l63 -50q-58 -167 -74 -242q-5 -23 -5 -47
q0 -29 1 -43l-113 -7q-41 130 -41 322q0 125 42 423q9 65 10 99zM635 159v17q-42 11 -81 11q-43 0 -70 -16.5t-27 -44.5q0 -29 26 -44t69 -15q44 0 63.5 22.5t19.5 69.5zM906 640v-127q-63 -9 -157 -16q2 -90 11 -248q96 -40 196 -131l-68 -108q-66 61 -124 102
q-5 -77 -53 -121.5t-146 -44.5q-105 0 -165.5 43.5t-60.5 122.5q0 78 61 126.5t164 48.5q39 0 66 -4q-6 120 -7 206q-13 0 -36.5 -0.5t-35.5 -0.5q-74 0 -177 7l-1 121q87 -9 178 -9q47 0 71 1q0 28 -0.5 66t-0.5 46q0 28 -8 66h146q-4 -27 -6 -64q-3 -69 -3 -106
q72 7 156 24z" />
    <glyph glyph-name="uni3071" unicode="&#x3071;" 
d="M124 787l140 -11q-8 -21 -24 -91q-14 -62 -31.5 -192.5t-17.5 -199.5q0 -29 5 -66q7 21 24 57.5t21 47.5l63 -50q-58 -167 -74 -242q-5 -23 -5 -47q0 -29 1 -43l-113 -7q-41 130 -41 322q0 125 42 423q9 65 10 99zM635 159v17q-42 11 -81 11q-43 0 -70 -16.5t-27 -44.5
q0 -29 26 -44t69 -15q44 0 63.5 22.5t19.5 69.5zM906 640v-127q-63 -9 -157 -16q2 -90 11 -248q96 -40 196 -131l-68 -108q-66 61 -124 102q-5 -77 -53 -121.5t-146 -44.5q-105 0 -165.5 43.5t-60.5 122.5q0 78 61 126.5t164 48.5q39 0 66 -4q-6 120 -7 206
q-13 0 -36.5 -0.5t-35.5 -0.5q-74 0 -177 7l-1 121q87 -9 178 -9q47 0 71 1q0 28 -0.5 66t-0.5 46q0 28 -8 66h146q-4 -27 -6 -64q-3 -69 -3 -106q72 7 156 24zM898 721q21 0 35.5 14t14.5 35q0 22 -14.5 36t-35.5 14q-22 0 -36 -14.5t-14 -35.5t14 -35t36 -14zM820 849
q32 32 78 32t78.5 -32.5t32.5 -78.5t-32.5 -78t-78.5 -32t-78.5 32t-32.5 78t33 79z" />
    <glyph glyph-name="uni3072" unicode="&#x3072;" 
d="M980 360l-94 -101q-46 59 -92 137q3 -90 -17 -170t-63 -144.5t-116.5 -102.5t-169.5 -38q-128 0 -206.5 76.5t-78.5 205.5q0 108 46.5 215.5t113.5 183.5q-52 -7 -131 -22q-8 -2 -27 -6t-32 -7l-18 132q29 0 58 3q83 6 188.5 23.5t154.5 34.5l38 -112q-46 -20 -51 -23
q-28 -22 -62.5 -63t-68.5 -94.5t-56.5 -120t-22.5 -126.5q0 -80 45.5 -121.5t115.5 -41.5q152 0 219 167t7 438l-21 59l123 38q57 -258 218 -420z" />
    <glyph glyph-name="uni3073" unicode="&#x3073;" 
d="M1007 715l-77 -26q-33 94 -61 148l74 25q34 -65 64 -147zM893 676l-77 -26q-34 102 -59 150l77 23q45 -105 59 -147zM615 726l123 38q56 -256 218 -420l-95 -100q-43 55 -91 135q3 -89 -17 -169t-63 -145t-116.5 -103t-169.5 -38q-128 0 -206 76.5t-78 206.5
q0 107 46.5 214.5t113.5 183.5q-70 -9 -132 -21q-19 -4 -59 -14l-18 132q20 0 58 4q84 6 189.5 24t153.5 35l38 -114q-36 -13 -50 -22q-67 -52 -138.5 -171t-71.5 -233q0 -81 45.5 -122.5t115.5 -41.5q152 0 219 167.5t7 438.5l-10 26t-12 33z" />
    <glyph glyph-name="uni3074" unicode="&#x3074;" 
d="M615 726l123 38q56 -256 218 -420l-94 -100q-49 62 -92 136q4 -90 -16.5 -170t-63.5 -145t-116.5 -103t-169.5 -38q-128 0 -206 76.5t-78 206.5q0 107 46.5 214.5t113.5 183.5q-70 -9 -132 -21q-19 -4 -59 -14l-18 132q20 0 58 4q84 6 189.5 24t153.5 35l38 -114
q-36 -13 -50 -22q-67 -52 -138.5 -171t-71.5 -233q0 -81 45.5 -122.5t115.5 -41.5q152 0 219 167.5t7 438.5l-10 26t-12 33zM949 740q0 23 -16.5 39.5t-39.5 16.5t-39 -16.5t-16 -39.5q0 -24 16 -40t39 -16t39.5 16t16.5 40zM809 824q34 34 84 34t84.5 -34.5t34.5 -83.5
t-34.5 -83.5t-84.5 -34.5t-84.5 34.5t-34.5 83.5t35 84z" />
    <glyph glyph-name="uni3075" unicode="&#x3075;" 
d="M562 500l-82 73q39 27 63 48q-75 51 -202 98l75 95q173 -66 261 -122l31 -80q-85 -70 -146 -112zM327 -28l-20 134q86 -23 157 -23q87 0 87 65q0 41 -37 99t-79 100q-45 43 -93 80l99 83q17 -18 45.5 -45.5l37.5 -36.5q85 -86 126.5 -156t41.5 -138q0 -94 -56.5 -135
t-145.5 -41q-87 0 -163 14zM992 94l-123 -65q-21 80 -66 176t-94 157l110 59q46 -57 97.5 -155.5t75.5 -171.5zM292 321l77 -100q-113 -121 -257 -209l-78 110q66 35 139.5 92t118.5 107z" />
    <glyph glyph-name="uni3076" unicode="&#x3076;" 
d="M718 664l81 32q41 -57 82 -140l-82 -36q-59 112 -81 144zM840 710l81 32q46 -64 83 -139l-82 -35q-37 79 -82 142zM548 492l-83 74q17 11 63 47q-80 55 -202 99l75 94q163 -60 262 -121l30 -80q-82 -67 -145 -113zM312 -35l-19 134q83 -24 157 -24q87 0 87 66
q0 41 -37.5 99.5t-78.5 98.5q-48 46 -94 80l100 84q15 -16 42 -42.5l40 -39.5q85 -86 126.5 -156.5t41.5 -137.5q0 -94 -56.5 -135t-145.5 -41q-88 0 -163 14zM977 87l-123 -65q-19 78 -64.5 174t-95.5 159l111 59q45 -57 96.5 -155.5t75.5 -171.5zM278 313l76 -100
q-115 -121 -258 -209l-77 111q66 35 140 91.5t119 106.5z" />
    <glyph glyph-name="uni3077" unicode="&#x3077;" 
d="M817 630q0 -24 17.5 -41.5t42.5 -17.5t42 17.5t17 41.5q0 25 -17 42.5t-42 17.5t-42.5 -17.5t-17.5 -42.5zM790 544q-36 35 -36 86t36 87t87 36t86.5 -36t35.5 -87t-35.5 -86.5t-86.5 -35.5t-87 36zM548 492l-83 74q17 11 63 47q-80 55 -202 99l75 94q163 -60 262 -121
l30 -80q-82 -67 -145 -113zM312 -35l-19 134q83 -24 157 -24q87 0 87 66q0 41 -37.5 99.5t-78.5 98.5q-48 46 -94 80l100 84q15 -16 42 -42.5l40 -39.5q85 -86 126.5 -156.5t41.5 -137.5q0 -94 -56.5 -135t-145.5 -41q-88 0 -163 14zM977 87l-123 -65q-19 78 -64.5 174
t-95.5 159l111 59q45 -57 96.5 -155.5t75.5 -171.5zM278 313l76 -100q-115 -121 -258 -209l-77 111q66 35 140 91.5t119 106.5z" />
    <glyph glyph-name="uni3078" unicode="&#x3078;" 
d="M166 180l-123 127q45 38 85 80q27 28 99.5 117l88.5 108q54 61 104.5 65.5t106.5 -48.5q40 -40 117 -130.5t93 -107.5q136 -149 248 -249l-104 -119q-99 93 -225 241q-26 30 -92.5 112.5t-93.5 111.5q-28 28 -44.5 27t-39.5 -30t-83 -110.5l-73 -98.5z" />
    <glyph glyph-name="uni3079" unicode="&#x3079;" 
d="M637 669l89 37q55 -81 97 -164l-92 -40q-51 107 -94 167zM775 721l88 41q53 -70 101 -160l-90 -43q-51 98 -99 162zM157 163l-122 127q43 33 86 79q27 28 99.5 118.5t87.5 107.5q54 60 104.5 64.5t106.5 -49.5q41 -41 124 -137t86 -100q144 -154 248 -248l-106 -120
q-67 63 -222 246l-62 75l-71.5 87t-52.5 61q-28 29 -45 27.5t-40 -30.5q-2 -3 -157 -208q-14 -19 -36.5 -55.5z" />
    <glyph glyph-name="uni307A" unicode="&#x307a;" 
d="M801 552q27 0 45.5 19t18.5 46t-18.5 46t-45.5 19q-28 0 -47 -19t-19 -46t19 -46t47 -19zM801 751q55 0 94 -39t39 -95t-38.5 -94.5t-94.5 -38.5t-94.5 38.5t-38.5 94.5t38.5 95t94.5 39zM157 163l-122 127q43 33 86 79q27 28 99.5 118.5t87.5 107.5q54 60 104.5 64.5
t106.5 -49.5q41 -41 124 -137t86 -100q144 -154 248 -248l-106 -120q-67 63 -222 246l-62 75l-71.5 87t-52.5 61q-28 29 -45 27.5t-40 -30.5q-2 -3 -157 -208q-14 -19 -36.5 -55.5z" />
    <glyph glyph-name="uni307B" unicode="&#x307b;" 
d="M148 801l142 -13q-11 -31 -24 -90q-13 -60 -30 -192t-17 -201q0 -41 4 -68q8 20 24 56l22 50l64 -50q-56 -162 -74 -242q-5 -23 -5 -47q0 -28 1 -42l-116 -8q-41 132 -41 324q0 132 41 423q9 63 9 100zM653 155v23q-37 10 -74 10q-42 0 -66 -15t-24 -40q0 -57 81 -57
q83 0 83 79zM933 535v-118q-78 -10 -171 -14q1 -61 7 -151q110 -40 208 -128l-67 -111q-65 67 -136 111v-10q0 -71 -46 -111t-141 -40q-94 0 -153.5 41t-59.5 120q0 70 55 115t154 45q37 0 66 -4q-4 77 -5 119q-113 -3 -230 3v118q118 -9 229 -6v127q-124 -2 -214 3v113
q248 -19 482 13v-113q-65 -7 -150 -12v-126q54 3 172 16z" />
    <glyph glyph-name="uni307C" unicode="&#x307c;" 
d="M1011 723l-70 -24q-30 89 -55 141l69 22q38 -79 56 -139zM122 786l141 -12q-9 -22 -24 -90q-13 -59 -29.5 -191t-16.5 -202q0 -49 4 -69q8 21 25 60t20 47l63 -50q-58 -165 -73 -242q-6 -28 -6 -47q0 -14 2 -42l-116 -8q-40 129 -40 323q0 140 40 424q9 62 10 99z
M626 140v24q-37 10 -75 10q-42 0 -65.5 -15t-23.5 -40q0 -28 21.5 -43t59.5 -15q83 0 83 79zM906 520v-118q-67 -8 -171 -13q1 -59 7 -152q110 -39 208 -127l-66 -111q-69 69 -136 111v-11q0 -70 -47 -110t-142 -40q-94 0 -153 41t-59 120q0 70 54.5 114.5t153.5 44.5
q38 0 67 -4q-6 114 -6 120q-135 -2 -229 3l-1 118q118 -9 229 -6v126q-104 -2 -214 4v112q211 -15 404 4q-13 37 -26 62l70 21q38 -82 54 -140l-59 -19v-30q-51 -6 -110 -9v-126q70 3 172 15z" />
    <glyph glyph-name="uni307D" unicode="&#x307d;" 
d="M122 786l141 -12q-9 -22 -24 -90q-13 -59 -29.5 -191t-16.5 -202q0 -49 4 -69q8 21 25 60t20 47l63 -50q-58 -165 -73 -242q-6 -28 -6 -47q0 -14 2 -42l-116 -8q-40 129 -40 323q0 140 40 424q9 62 10 99zM906 830q-22 0 -36 -14.5t-14 -35.5q0 -22 14 -36t36 -14
q21 0 35.5 14t14.5 36q0 21 -14.5 35.5t-35.5 14.5zM626 140v24q-37 10 -75 10q-42 0 -65.5 -15t-23.5 -40q0 -28 21.5 -43t59.5 -15q83 0 83 79zM840 691v-52q-53 -6 -106 -9v-125q70 3 172 15v-118q-67 -8 -171 -13q1 -59 7 -152q110 -39 208 -127l-66 -111
q-69 69 -136 111v-11q0 -70 -47 -110t-142 -40q-94 0 -153 41t-59 120q0 70 54.5 114.5t153.5 44.5q38 0 67 -4q-6 114 -6 120q-135 -2 -229 3l-1 118q118 -9 229 -6v126q-101 -2 -214 4v112q216 -17 400 4q-5 17 -5 34q0 45 32 78t78 33q45 0 78 -33t33 -78t-33 -77.5
t-78 -32.5q-37 0 -66 21z" />
    <glyph glyph-name="uni307E" unicode="&#x307e;" 
d="M488 134q0 26 -1 43q-47 7 -83 7q-52 0 -81 -17.5t-29 -44.5q0 -29 27 -46t78 -17q44 0 66.5 17t22.5 58zM894 109l-73 -114q-95 90 -205 140q1 -13 1 -36q0 -68 -51 -110.5t-148 -42.5q-121 0 -184.5 44t-63.5 125q0 78 67.5 126t183.5 48q32 0 62 -3q-2 30 -4 92h-52
q-133 0 -244 13l1 120q95 -18 245 -18h48v105h-48q-123 0 -220 15l-1 116q100 -19 220 -19h50v46q0 45 -5 69h138q-6 -38 -7 -71l-1 -40q107 4 242 24l3 -116q-193 -17 -246 -20l-1 -105q117 5 270 23v-120q-149 -16 -268 -20q5 -86 7 -118q156 -45 284 -153z" />
    <glyph glyph-name="uni307F" unicode="&#x307f;" 
d="M267 196q23 33 83 162q-81 -12 -127.5 -55.5t-46.5 -93.5q0 -21 11 -34.5t27 -13.5q29 0 53 35zM978 276l-58 -140q-44 39 -87 71q-35 -88 -97 -155.5t-161 -119.5l-108 88q195 83 258 255q-121 66 -238 82q-83 -190 -117 -243q-58 -89 -158 -89q-68 0 -112 44t-44 119
q0 118 97 199t249 88q72 165 81 182q-106 -3 -173 -7q-35 -2 -83 -9l-5 131q36 -4 84 -4q119 0 213 8q37 3 69 16l81 -64q-24 -26 -34 -43q-24 -39 -99 -217q104 -16 218 -66q2 24 3 35q4 72 -1 111l133 -16q-7 -111 -20 -188q17 -10 109 -68z" />
    <glyph glyph-name="uni3080" unicode="&#x3080;" 
d="M194 306q0 -32 16 -50.5t40 -18.5q33 0 48.5 30t15.5 76q0 29 -13 46t-35 17q-30 0 -51 -28t-21 -72zM730 316l140 -43q0 -97 -1 -118q-5 -74 -36 -117t-114 -68q-67 -21 -220 -21q-68 0 -116 9t-73 21t-38.5 33.5t-16 38.5t-2.5 43v22q-5 -1 -16 -1q-62 0 -106 45.5
t-44 136.5t52 150.5t135 59.5h5v67h-21q-54 0 -166 10l-7 119q98 -14 164 -14h30v8q0 81 -11 128h143q-10 -60 -10 -127q92 13 181 36v-123q-78 -17 -181 -28v-131q30 -43 30 -103q0 -109 -54 -173v-40q0 -36 23.5 -50.5t107.5 -14.5q92 0 156 18q73 22 73 102q0 70 -7 125z
M666 647l86 85q45 -29 111.5 -89.5t103.5 -103.5l-93 -95q-41 51 -103 111.5t-105 91.5z" />
    <glyph glyph-name="uni3081" unicode="&#x3081;" 
d="M248 146q48 0 110 77q-45 68 -94 195q-74 -88 -74 -191q0 -37 15.5 -59t42.5 -22zM525 553q-86 -10 -161 -56q41 -112 71 -161q49 88 90 217zM690 697l-9 -39q121 -27 193.5 -118.5t72.5 -223.5q0 -155 -99.5 -249.5t-265.5 -119.5l-78 116q158 13 234 85.5t76 175.5
q0 84 -43.5 143t-120.5 80q-62 -209 -137 -323q23 -28 55 -60l-101 -81q-25 27 -35 40q-53 -57 -99 -83t-101 -26q-67 0 -114 54.5t-47 148.5q0 87 40 173.5t109 147.5q-18 54 -26 82q-13 45 -41 105l133 41q8 -42 22 -96q5 -19 19 -63q109 56 229 61q1 6 10 49q9 53 7 96
l141 -13q-1 -4 -24 -103z" />
    <glyph glyph-name="uni3082" unicode="&#x3082;" 
d="M669 419l142 31q98 -124 98 -244q0 -116 -97.5 -189.5t-261.5 -73.5q-126 0 -199 58t-73 180q0 29 7 103q-116 11 -195 33l7 123q85 -30 200 -40q3 23 8.5 70t8.5 69q-113 11 -201 35l7 118q86 -28 208 -38q3 23 8 81q4 56 2 90l142 -8q-12 -54 -17 -90q-2 -9 -5.5 -35.5
l-5.5 -41.5q107 1 186 13l-4 -121q-100 -10 -198 -10q-10 -75 -17 -138h7q80 0 204 13l-3 -121q-114 -10 -180 -10h-40q-1 -11 -2 -27t-2 -27t-1 -19q0 -63 38.5 -96t113.5 -33q103 0 161 41.5t58 106.5q0 99 -104 197z" />
    <glyph glyph-name="uni3083" unicode="&#x3083;" 
d="M604 580l-92 -67q-50 53 -110 97l90 66q22 -14 57 -44.5t55 -51.5zM178 548l127 48q22 -39 31 -59l10.5 -21l15 -29t13.5 -28q200 84 288 84q103 0 158.5 -54t55.5 -127q0 -96 -55 -149.5t-166 -53.5q-67 0 -127 25l3 117q61 -27 115 -27q51 0 78 23.5t27 63.5
q0 28 -25 48t-69 20q-74 0 -236 -71q12 -26 25 -58q55 -125 126 -354l-128 -31q-41 165 -110 336l-12.5 28.5t-11.5 27.5q-34 -16 -86.5 -43t-66.5 -33l-58 123q54 14 90 28l36 15l36 15q-12 26 -35 65q-25 43 -49 71z" />
    <glyph glyph-name="uni3084" unicode="&#x3084;" 
d="M622 733l-97 -69q-84 84 -132 120l93 66q78 -59 136 -117zM131 708l131 50q33 -66 41 -79l47 -96q232 102 349 102q115 0 183.5 -61t68.5 -152q0 -107 -68 -169t-185 -62q-79 0 -155 28l3 127q81 -34 139 -34q60 0 96 30t36 84q0 40 -32.5 67t-88.5 27q-97 0 -298 -92
l29 -62q88 -209 160 -442l-141 -35q-63 250 -136 420l-26 63l-66.5 -34l-67.5 -34t-47 -22l-59 130q63 15 100 33q30 11 92 37q-12 25 -46 86q-20 38 -59 90z" />
    <glyph glyph-name="uni3085" unicode="&#x3085;" 
d="M634 161q134 13 134 148q0 116 -122 133q4 -48 4 -110q0 -98 -16 -171zM498 644l125 2q8 -50 13 -97q118 -6 185 -72.5t67 -166.5q0 -116 -72.5 -193t-205.5 -77q-13 0 -19 1q-44 -80 -113 -131l-110 63q63 40 104 102q-75 43 -114 120l65 93q42 -77 94 -106
q18 73 18 161q0 32 -4 92q-90 -23 -149 -91t-71 -142q-4 -19 -4 -40q5 -64 10 -88l-109 -15q-31 100 -31 229q0 105 21 261q3 24 1 51l131 -10q-11 -31 -16 -53q-24 -100 -25 -164q78 129 232 166q-3 24 -8 49q-5 23 -15 56z" />
    <glyph glyph-name="uni3086" unicode="&#x3086;" 
d="M638 223q84 7 130 54.5t46 123.5q0 72 -40.5 121.5t-121.5 58.5q5 -77 5 -143q0 -119 -19 -215zM490 820l134 3q11 -68 18 -130q136 -6 218 -87t82 -203q0 -136 -85.5 -221t-242.5 -85q-12 0 -18 1q-50 -107 -139 -171l-123 72q83 47 133 133q-99 49 -145 144l72 93
q49 -93 117 -126q23 88 23 196q0 25 -5 132q-76 -19 -136.5 -71.5t-92.5 -110.5t-43 -117q-4 -23 -4 -49q0 -41 12 -99l-115 -15q-36 118 -36 281q0 38 3 86.5t6.5 81l8.5 77t6 54.5q5 35 3 61l139 -12l-10 -30.5l-10 -30.5q-30 -128 -27 -212q49 85 123 140t163 76
q-8 57 -11 69q-10 50 -18 70z" />
    <glyph glyph-name="uni3087" unicode="&#x3087;" 
d="M463 109v29q-32 5 -61 5q-99 0 -99 -54q0 -23 25.5 -37.5t66.5 -14.5q68 0 68 72zM827 71l-69 -110q-87 87 -170 132v-25q0 -63 -41.5 -103.5t-135.5 -40.5q-97 0 -161 41.5t-64 117.5q0 74 61.5 117.5t170.5 43.5q14 0 40 -2q-5 142 -5 162v144q0 60 -9 100h138
q-9 -43 -9 -99v-47q138 4 234 14l3 -113q-86 -8 -237 -12q0 -6 8 -174q138 -46 246 -146z" />
    <glyph glyph-name="uni3088" unicode="&#x3088;" 
d="M455 163q0 22 -1 35q-47 7 -84 7q-59 0 -92.5 -19t-33.5 -51q0 -68 122 -68q49 0 69 22.5t20 73.5zM893 116l-78 -121q-105 105 -224 159q1 -13 1 -35q0 -77 -49.5 -126t-166.5 -49q-118 0 -190.5 44t-72.5 141q0 83 71 136t205 53q33 0 61 -3q-8 211 -8 220q0 78 -2 164
q-2 83 -10 119h153q-6 -49 -10 -119v-73q187 5 283 15l5 -121q-100 -9 -288 -14q2 -71 12 -216q182 -55 308 -174z" />
    <glyph glyph-name="uni3089" unicode="&#x3089;" 
d="M311 698l33 123q67 -21 199 -46t207 -33l-31 -125q-70 9 -204.5 36.5t-203.5 44.5zM213 636l137 -19q-20 -85 -38 -236q132 96 298 96q129 0 205.5 -67.5t76.5 -164.5q0 -57 -18.5 -104.5t-60 -88.5t-107.5 -65t-161 -34.5t-221 1.5l-39 133q221 -31 343 15t122 146
q0 50 -42.5 81.5t-109.5 31.5q-183 0 -280 -118q-27 -34 -37 -60l-118 30q15 78 30.5 205t19.5 218z" />
    <glyph glyph-name="uni308A" unicode="&#x308a;" 
d="M232 825l140 -6q-30 -107 -41 -210q42 68 107 116t144 48q108 0 179.5 -98.5t71.5 -262.5q0 -392 -445 -473l-77 117q72 11 126.5 26.5t105 42.5t82 64.5t50.5 93.5t19 128q0 117 -36 180t-100 63q-57 0 -110.5 -50.5t-84.5 -123t-34 -139.5q-2 -54 5 -108l-126 -8
q-12 94 -12 169q0 131 28 325q6 43 8 106z" />
    <glyph glyph-name="uni308B" unicode="&#x308b;" 
d="M503 61q23 0 59 4q-5 50 -31.5 79t-67.5 29q-28 0 -45.5 -14t-17.5 -34q0 -28 29 -46t74 -18zM726 793l66 -91l-71 -46q-24 -17 -62 -47l-94 -76.5t-68 -55.5q42 11 95 11q129 0 216 -72.5t87 -182.5q0 -126 -95 -206t-272 -80q-107 0 -177 45.5t-70 120.5q0 63 51.5 110
t130.5 47q90 0 147 -49t69 -124q83 45 83 139q0 67 -60 109.5t-150 42.5q-109 0 -191.5 -51t-174.5 -155l-92 96l136.5 112.5l117.5 97.5q8 7 95 79l117 98q-115 -2 -245 -12q-45 -2 -83 -8l-4 132q48 -5 93 -5q213 0 327 10q48 3 78 11z" />
    <glyph glyph-name="uni308C" unicode="&#x308c;" 
d="M976 201l17 -143q-79 -76 -190 -76q-58 0 -92.5 40.5t-34.5 112.5q0 58 18 182.5t18 168.5q0 75 -68 75q-53 0 -125.5 -53.5t-142.5 -130.5q-2 -58 -2 -82q0 -168 6 -263l4 -42.5t3 -35.5h-139q3 33 3 75q1 41 2 111t2 112q-108 -160 -128 -187l-80 112q128 157 217 290
l4 71l-89.5 -11.5l-94.5 -12.5l-12 130q43 -1 88 1q44 3 116 13l2 33.5t2 28.5t1 16q0 59 -5 90l149 -4q-12 -59 -23 -144l38 -48q-20 -26 -52 -77q0 -8 -2 -22q173 151 295 151q79 0 119.5 -41.5t40.5 -108.5q0 -52 -17 -179t-17 -180q0 -44 39 -44q60 0 130 72z" />
    <glyph glyph-name="uni308D" unicode="&#x308d;" 
d="M241 639l-5 132q42 -5 78 -5q204 0 323 7q47 4 73 11l67 -89q-26 -14 -56 -33q-156 -113 -233 -180q50 15 103 15q132 0 216.5 -69.5t84.5 -175.5q0 -75 -32 -134.5t-95.5 -101t-166.5 -59t-238 -6.5l-36 132q202 -27 315.5 19t113.5 150q0 60 -52 98t-138 38
q-51 0 -98.5 -13.5t-82.5 -32t-74 -51t-63 -57.5l-60 -65l-94 100l242 211.5t205 178.5q-31 -1 -116.5 -5.5t-100.5 -5.5q-32 -2 -80 -9z" />
    <glyph glyph-name="uni308E" unicode="&#x308e;" 
d="M434 451l-2 -20q118 82 231 82q107 0 173.5 -64.5t66.5 -163.5q0 -265 -317 -321l-57 111q255 35 255 213q0 48 -37 83.5t-101 35.5q-105 0 -222 -98q-1 -20 -1 -57q0 -111 8 -237q0 -16 5 -61h-125q3 51 3 59q1 49 3 196l-52 -80.5t-57 -86.5l-70 97q34 36 92.5 113.5
t93.5 130.5l3 45q-90 -13 -159 -27l-10 107q39 0 67 3q49 4 109 14l2.5 42.5t1.5 30.5q3 39 -2 74l128 -3q-10 -48 -21 -137l28 -31z" />
    <glyph glyph-name="uni308F" unicode="&#x308f;" 
d="M402 678l38 -48q-20 -26 -52 -77q0 -5 -1 -15t-1 -15q140 106 298 106q119 0 199.5 -76.5t80.5 -197.5q0 -303 -380 -378l-61 123q305 48 305 258q0 62 -45.5 106.5t-118.5 44.5q-148 0 -288 -130q-2 -58 -2 -84q0 -168 6 -263l4 -42.5t3 -35.5h-139q3 33 3 75
q1 41 2 111t2 112l-128 -187l-80 112q128 157 217 290l4 71l-89.5 -11.5l-94.5 -12.5l-12 130q43 -1 88 1q44 3 116 13l2 33.5t2 28.5t1 16q0 59 -5 90l149 -4q-12 -59 -23 -144z" />
    <glyph glyph-name="uni3090" unicode="&#x3090;" 
d="M617 57q38 0 75 15q-19 86 -87 86q-25 0 -41.5 -13t-16.5 -35q0 -23 19.5 -38t50.5 -15zM399 428l5 16q-97 -47 -156 -130.5t-59 -144.5q0 -21 9.5 -32.5t22.5 -11.5q28 0 48 27q57 74 130 276zM573 590h5q156 0 253 -90.5t97 -232.5q0 -136 -76 -227t-222 -91
q-84 0 -136 39.5t-52 110.5q0 63 47 107t116 44q118 0 170 -96q26 54 26 116q0 95 -61 153.5t-163 58.5q-13 0 -39 -2l-22 -66l-22 -66q-78 -222 -154 -309q-49 -55 -136 -55q-52 0 -90.5 40t-38.5 110q0 146 105.5 271t265.5 167q22 70 31 110q-80 -1 -264 -17l-7 125
q48 -5 73 -5q107 -3 213 6q40 5 68 14l77 -59q-28 -46 -38 -77q-2 -7 -11 -34z" />
    <glyph glyph-name="uni3091" unicode="&#x3091;" 
d="M449 414q-23 0 -40.5 -9.5t-17.5 -26.5q0 -36 78 -44q35 20 35 46q0 15 -15 24.5t-40 9.5zM690 813l69 -89q-42 -11 -109 -40t-120 -59q31 5 73 5q109 -1 178 -54.5t69 -129.5q0 -72 -47 -122.5t-118 -72.5t-159 -22q-32 0 -69 5l-39.5 -29.5l-35.5 -27.5q79 2 125 -81
q36 50 88 79t108 29q87 0 154 -58t108 -155l-130 -49q-49 153 -143 153q-37 0 -68 -27t-50 -73q-9 -25 -9 -44l-131 1q-4 34 -7 46q-25 91 -99 91q-44 0 -82.5 -38t-84.5 -109l-111 63q178 185 285 275q-45 34 -45 87q0 52 49.5 84.5t118.5 32.5q71 0 112.5 -29t41.5 -73
q0 -21 -10 -43q54 11 87 39t33 66q0 44 -47.5 75t-117.5 31q-105 0 -180 -37q-91 -44 -196 -136l-77 94q173 111 388 232q-229 -12 -249 -14l-5 106q51 -3 90 -3q209 0 289 8q36 2 73 13z" />
    <glyph glyph-name="uni3092" unicode="&#x3092;" 
d="M638 147h-122q2 28 4 121q-116 -63 -116 -131q0 -40 35 -55.5t113 -15.5q145 0 288 29l-4 -132q-136 -16 -287 -16q-279 0 -279 169q0 46 20 87.5t57 75t74.5 58t87.5 49.5q-22 35 -71 35q-41 0 -84 -20t-74 -50q-33 -33 -95 -111l-108 81q156 144 223 278h-12
q-94 0 -171 7v119q70 -11 178 -11h49q20 75 21 115l133 -11q-9 -46 -25 -100q170 9 287 30l-1 -119q-138 -20 -331 -27q-26 -58 -58 -102q42 20 114 20q47 0 83 -20.5t53 -58.5q44 21 137 61l60 28l51 24l52 -118q-34 -8 -121 -43q-102 -39 -165 -68q1 -33 2.5 -102t1.5 -76
z" />
    <glyph glyph-name="uni3093" unicode="&#x3093;" 
d="M453 828l144 -58q-4 -5 -33 -47q-38 -55 -177 -303q54 31 116 31q57 0 90 -35.5t36 -98.5q0 -9 0.5 -76.5t4.5 -92.5q4 -55 64 -55q61 0 104 67.5t67 172.5l110 -89q-86 -290 -303 -290q-79 0 -122 40.5t-46 100.5q-2 29 -3.5 94t-2.5 84q-5 57 -60 57q-49 0 -90 -42.5
t-71 -110.5q-33 -70 -77 -225l-144 48q50 134 168 378.5t174 346.5l22.5 43t28.5 60z" />
    <glyph glyph-name="uni309B" unicode="&#x309b;" 
d="M10 784l88 35q29 -40 100 -169l-92 -38q-79 147 -96 172zM143 835l89 37q36 -51 101 -169l-90 -37q-68 128 -100 169z" />
    <glyph glyph-name="uni309C" unicode="&#x309c;" 
d="M66 639q-36 36 -36 86t35.5 86t85.5 36t85.5 -36t35.5 -86t-35.5 -86t-85.5 -36t-85 36zM108 767q-18 -17 -18 -42t18 -43t43 -18t42.5 18t17.5 43t-17.5 42t-42.5 17t-43 -17z" />
    <glyph glyph-name="uni309D" unicode="&#x309d;" 
d="M797 268l-34 -105q-108 -37 -328 -127l-64 126l247 96q-37 57 -137 164t-177 175l114 83q93 -85 211 -213.5t168 -198.5z" />
    <glyph glyph-name="uni309E" unicode="&#x309e;" 
d="M524 701l86 35q23 -32 93 -156l-89 -37q-5 10 -25.5 47.5l-36 65t-28.5 45.5zM662 744l88 36q52 -75 93 -156l-88 -37q-66 121 -93 157zM758 247l-34 -106q-124 -43 -328 -126l-64 126q53 19 248 97q-38 57 -138 163.5t-177 173.5l113 84q94 -86 212 -214t168 -198z" />
    <glyph glyph-name="uni30A1" unicode="&#x30a1;" 
d="M418 403h141q-5 -157 -21 -224q-36 -156 -179 -250q-22 -15 -46 -28l-108 87q44 16 83 44q82 56 109.5 124t27.5 175q0 33 -7 72zM835 580l75 -69q-16 -17 -30 -41q-36 -56 -95.5 -131t-108.5 -112l-103 72q41 29 84.5 75.5t63.5 80.5h-445q-49 0 -106 -6v132
q58 -9 106 -9h476q57 0 83 8z" />
    <glyph glyph-name="uni30A2" unicode="&#x30a2;" 
d="M412 555h148q0 -68 -1 -107t-6.5 -98t-16.5 -96.5t-31.5 -85.5t-50.5 -83.5t-75 -73t-104 -68.5l-118 97q57 19 107 56q92 64 123.5 147t31.5 220q0 46 -7 92zM896 769l82 -76q-28 -33 -40 -53q-43 -71 -110.5 -151.5t-136.5 -129.5l-105 85q57 35 111 92t77 99h-533
q-41 0 -125 -7v142q65 -10 125 -10h552q76 0 103 9z" />
    <glyph glyph-name="uni30A3" unicode="&#x30a3;" 
d="M731 642l103 -95q-81 -89 -231 -186v-341q0 -87 7 -110h-151q5 33 5 110v264q-158 -75 -289 -112l-69 119q93 20 194 59.5t168 78.5q80 47 153 105.5t110 107.5z" />
    <glyph glyph-name="uni30A4" unicode="&#x30a4;" 
d="M635 508v-419q0 -101 9 -134h-162q7 44 7 134v336q-182 -92 -352 -139l-74 125q257 56 466 185q80 50 153 113t115 118l109 -99q-124 -124 -271 -220z" />
    <glyph glyph-name="uni30A5" unicode="&#x30a5;" 
d="M788 532l90 -47q-11 -29 -16 -69q-9 -57 -33 -130.5t-54 -127.5q-50 -91 -144.5 -156.5t-213.5 -94.5l-102 116q70 11 125 32q132 49 197 142q67 94 77 210h-415v-120q0 -38 3 -62h-130q4 40 4 69v156q0 20 -6 80q47 -5 98 -5h175v55q0 34 -7 75h144q-6 -53 -6 -75v-55
h143q51 0 71 7z" />
    <glyph glyph-name="uni30A6" unicode="&#x30a6;" 
d="M842 675l89 -54q-11 -31 -21 -82q-29 -167 -95 -290q-61 -112 -170.5 -191.5t-247.5 -115.5l-106 123q77 13 144 39q151 57 233 176q70 100 91 263h-508v-150q0 -46 3 -76h-141q5 43 5 86v178q0 57 -5 88q45 -5 104 -5h219v78q0 45 -8 95h158q-7 -62 -7 -95v-78h178
q54 0 85 11z" />
    <glyph glyph-name="uni30A7" unicode="&#x30a7;" 
d="M577 100h222q18 0 78 6v-134q-27 5 -78 5h-566q-48 0 -83 -5v134q54 -6 83 -6h209v330h-159q-35 0 -81 -4v129q29 -5 81 -5h469q37 0 79 5v-129q-52 4 -79 4h-175v-330z" />
    <glyph glyph-name="uni30A8" unicode="&#x30a8;" 
d="M581 161h271q43 0 95 8v-149q-43 6 -95 6h-675q-49 0 -100 -6v149q43 -8 100 -8h260v418h-197q-33 0 -98 -5v141q40 -6 98 -6h557q36 0 96 6v-141q-77 5 -96 5h-216v-418z" />
    <glyph glyph-name="uni30A9" unicode="&#x30a9;" 
d="M686 489h121q23 0 83 7v-124q-48 2 -78 2h-123q6 -232 7 -366q1 -40 -27 -65t-72 -25q-82 0 -159 5l-8 117q63 -9 118 -9q26 0 26 31q0 47 -2 203q-55 -70 -148 -146.5t-182 -122.5l-89 102q105 49 203.5 126t154.5 150h-219q-36 0 -96 -4v126q58 -7 93 -7h278
q0 25 -2 63q-2 40 -8 85h132q-4 -33 -4 -85z" />
    <glyph glyph-name="uni30AA" unicode="&#x30aa;" 
d="M695 643h128q57 0 107 8v-136q-99 3 -100 3h-132q1 -52 5 -216t5 -243q1 -50 -28 -76.5t-87 -26.5q-91 0 -178 6l-12 133q69 -12 137 -12q19 0 27 10t8 33q0 171 -2 276q-69 -91 -183.5 -187t-233.5 -159l-95 107q143 68 264 165.5t187 189.5h-280q-44 0 -116 -4v136
q52 -7 113 -7h339q-1 34 -3 74q-4 60 -10 103h145q-6 -48 -6 -103z" />
    <glyph glyph-name="uni30AB" unicode="&#x30ab;" 
d="M805 645l88 -43q-7 -40 -7 -54q-14 -390 -61 -501q-35 -79 -132 -79q-70 0 -170 8l-15 138q83 -15 143 -15q43 0 59 36q20 44 31.5 162t11.5 218h-231q-28 -200 -103.5 -331t-214.5 -230l-119 96q78 43 134 101q135 134 169 364h-135q-91 0 -135 -4v134q75 -7 135 -7h146
q2 58 2 89q0 50 -7 94h151q-3 -28 -6 -91q-2 -60 -4 -92h192q33 0 78 7z" />
    <glyph glyph-name="uni30AC" unicode="&#x30ac;" 
d="M868 679l-82 -35q-43 91 -79 142l80 33q38 -54 81 -140zM514 628h193q41 0 77 7l88 -44q-7 -37 -7 -53q-14 -394 -60 -502q-35 -78 -132 -78q-70 0 -170 8l-16 136q87 -14 144 -14q24 0 37 8.5t21 28.5q20 44 31.5 162t11.5 218h-230q-28 -200 -103.5 -331t-215.5 -230
l-118 96q82 46 134 99q135 133 169 366h-136q-80 0 -135 -5v135q60 -7 135 -7h147q2 58 2 89q0 50 -7 94h150q-3 -29 -6 -92q-2 -58 -4 -91zM827 833l81 33q49 -70 83 -139l-82 -36q-37 79 -82 142z" />
    <glyph glyph-name="uni30AD" unicode="&#x30ad;" 
d="M906 434l27 -135q-20 -1 -108 -15l-222 -36q9 -48 22 -111t15 -74q1 -6 27 -100l-148 -26q-12 92 -14 103q-2 13 -7 39.5l-13.5 69.5t-14.5 77l-245 -42q-66 -12 -102 -21l-29 137q23 1 107 11q23 3 107.5 17t137.5 22l-30 164q-52 -8 -122.5 -20t-78.5 -13
q-51 -10 -94 -21l-28 141q51 2 95 7q48 5 203 30l-11 57t-7 36q-2 11 -21 78l145 24q1 -4 4.5 -34.5t6.5 -45.5q2 -17 16 -95q149 24 202 34q50 9 96 22l25 -134q-13 -1 -48 -6.5t-46 -6.5l-205 -32l32 -163q167 27 222 38q71 14 104 24z" />
    <glyph glyph-name="uni30AE" unicode="&#x30ae;" 
d="M983 751l-81 -36q-48 94 -83 141l81 34q44 -62 83 -139zM532 516l32 -163q167 27 222 38q38 7 105 25l27 -135q-8 -1 -108 -16l-222 -36l22 -108.5t15 -75.5q6 -27 26 -100l-147 -26q-11 83 -15 104q-5 31 -34 185l-245 -42q-68 -12 -101 -21l-30 137q22 1 106 11
q23 3 108.5 17l137.5 22l-31 164q-52 -8 -122 -20t-78 -13q-40 -8 -95 -22l-27 142q58 3 95 7q48 5 203 30l-11.5 57t-7.5 36q-6 30 -20 78l144 23l12 -80q4 -26 17 -94q153 25 201 34l58 12q-38 76 -71 124l81 34q43 -62 82 -141l-51 -22l21 -120q-3 0 -94 -12z" />
    <glyph glyph-name="uni30AF" unicode="&#x30af;" 
d="M816 701l105 -64q-24 -41 -34 -74q-60 -194 -178 -342q-150 -184 -414 -289l-121 109q146 43 242 105.5t171 147.5q51 58 91.5 138.5t53.5 140.5h-288q-115 -148 -258 -247l-114 85q199 122 319 329q33 57 46 108l150 -49q-33 -48 -63 -105l-3 -5h206q48 0 89 12z" />
    <glyph glyph-name="uni30B0" unicode="&#x30b0;" 
d="M879 698l-76 -31l87 -54q-25 -42 -34 -72q-60 -196 -179 -342q-149 -185 -413 -290l-121 108q146 43 241.5 105.5t171.5 148.5q50 57 91 138t54 141h-288q-115 -150 -258 -248l-115 86q201 122 319 329q33 54 47 107l150 -49q-35 -51 -63 -104l-4 -5h206q50 0 89 12l8 -4
q-40 83 -75 132l81 33q36 -52 81 -141zM838 852l81 33q41 -57 82 -140l-81 -34q-38 82 -82 141z" />
    <glyph glyph-name="uni30B1" unicode="&#x30b1;" 
d="M397 644h442q66 0 106 7v-140q-38 4 -106 4h-144q-26 -391 -310 -571l-138 92q56 23 97 57q188 143 209 422h-216q-75 -136 -165 -215l-129 78q91 67 177 211q34 56 60 139q18 52 21 106l158 -32q-20 -47 -33 -83t-29 -75z" />
    <glyph glyph-name="uni30B2" unicode="&#x30b2;" 
d="M993 735l-81 -36q-49 97 -82 142l81 33q51 -74 82 -139zM871 687l-81 -35q-57 108 -81 143l82 32q35 -49 80 -140zM388 621h441q67 0 107 7v-141q-63 5 -107 5h-143q-26 -392 -310 -572l-138 92q50 20 97 58q188 143 209 422h-216q-75 -137 -166 -216l-128 77
q87 65 177 211q33 57 59 141q19 56 22 104l158 -31q-21 -50 -33 -84q-6 -17 -29 -73z" />
    <glyph glyph-name="uni30B3" unicode="&#x30b3;" 
d="M894 -23h-149q1 16 1 54h-466q-65 0 -133 -6v146q72 -6 128 -6h473v424h-460q-69 0 -127 -4v142q57 -6 127 -6h515q56 0 90 2q-3 -72 -3 -94v-531q0 -59 4 -121z" />
    <glyph glyph-name="uni30B4" unicode="&#x30b4;" 
d="M865 596v-530q0 -69 5 -121h-148q1 16 1 53h-468q-63 0 -131 -6v146q70 -6 127 -6h473v424h-461q-69 0 -127 -4v142q58 -6 127 -6h494q-32 72 -76 132l84 35q46 -66 80 -137l-71 -30h5q55 0 89 2q-3 -72 -3 -94zM818 853l85 35q43 -61 82 -135l-85 -37q-57 104 -82 137z
" />
    <glyph glyph-name="uni30B5" unicode="&#x30b5;" 
d="M766 612h76q67 0 112 8v-137q-34 3 -112 3h-76v-33q0 -80 -8.5 -141.5t-29 -118.5t-55.5 -102t-88 -84.5t-127 -71.5l-110 104q104 36 163 81t90.5 124t31.5 203v39h-243v-139q0 -27 4 -107h-143q6 40 6 107v139h-87q-65 0 -111 -4v140q60 -10 111 -10h87v102q0 35 -6 92
h145q-6 -38 -6 -93v-101h243v108q0 55 -6 95h145q-6 -60 -6 -95v-108z" />
    <glyph glyph-name="uni30B6" unicode="&#x30b6;" 
d="M998 690l-70 -22q-28 88 -56 139l70 22q34 -74 56 -139zM891 656l-71 -22q-30 93 -52 140l69 23q37 -81 54 -141zM749 596h75q68 0 113 8v-136q-35 3 -112 3h-76v-34q0 -100 -13.5 -173.5t-48 -138.5t-95 -115t-152.5 -91l-109 104q105 37 163.5 82t89.5 123.5t31 203.5
v39h-242v-139q0 -28 4 -108h-144q7 47 7 108v139h-87q-65 0 -111 -4v139q60 -10 111 -10h87v102q0 26 -7 93h146q-6 -57 -6 -94v-101h242v109q0 56 -6 94h147q-7 -47 -7 -94v-109z" />
    <glyph glyph-name="uni30B7" unicode="&#x30b7;" 
d="M242 698l74 113q125 -70 234 -146l-77 -114q-125 88 -231 147zM203 -51l-77 135q194 32 349 115q129 72 232.5 172.5t165.5 211.5l79 -140q-71 -106 -176 -200.5t-231 -166.5q-76 -43 -173.5 -79t-168.5 -48zM84 464l75 114q119 -64 233 -145l-75 -115q-149 103 -233 146
z" />
    <glyph glyph-name="uni30B8" unicode="&#x30b8;" 
d="M662 751l84 35q53 -77 95 -158l-89 -38q-45 98 -90 161zM801 800l87 36q38 -49 96 -153l-87 -39q-43 85 -96 156zM228 693l74 113q106 -58 234 -147l-76 -112q-114 80 -232 146zM189 -55l-76 134q196 32 348 116q129 72 233 172.5t165 211.5l79 -140q-142 -214 -407 -368
q-76 -42 -174 -78t-168 -48zM71 460l73 112q127 -67 235 -144l-75 -115q-129 91 -233 147z" />
    <glyph glyph-name="uni30B9" unicode="&#x30b9;" 
d="M770 757l84 -63q-20 -28 -36 -63q-71 -162 -161 -282q73 -63 155.5 -148.5t130.5 -144.5l-117 -101q-99 136 -258 290q-180 -190 -385 -288l-105 111q117 44 230 125t190 168q51 58 93 127t59 124h-347q-19 0 -43.5 -1.5t-47.5 -3.5t-30 -2v146q56 -8 121 -8h361
q66 0 106 14z" />
    <glyph glyph-name="uni30BA" unicode="&#x30ba;" 
d="M998 749l-80 -35q-50 95 -83 140l80 34q44 -62 83 -139zM810 687l24 -17q-24 -37 -36 -65q-69 -157 -161 -280q73 -63 155.5 -148.5t130.5 -144.5l-117 -103q-103 142 -258 290q-184 -192 -385 -287l-106 111q117 43 229.5 124.5t190.5 169.5q51 58 93.5 127.5
t59.5 123.5h-347q-19 0 -43.5 -1.5t-47.5 -3.5t-30 -2v145q49 -7 121 -7h361q72 0 106 12l12 -9q-23 45 -56 96l80 34q47 -68 82 -140z" />
    <glyph glyph-name="uni30BB" unicode="&#x30bb;" 
d="M688 232l-113 67q47 41 93 101t71 106l-315 -63v-271q0 -50 24.5 -68t105.5 -18q143 0 324 34l-5 -138q-163 -23 -317 -23q-86 0 -139.5 10t-81.5 34t-37 53.5t-9 79.5v280q-144 -28 -215 -45l-25 134q52 7 240 40v146q0 67 -8 117h152q-9 -56 -9 -117v-121
q185 35 339 68q47 11 73 25l98 -77q-27 -42 -34 -56q-38 -71 -99 -159.5t-113 -138.5z" />
    <glyph glyph-name="uni30BC" unicode="&#x30bc;" 
d="M995 744l-81 -35q-50 98 -81 141l80 34q50 -72 82 -140zM873 697l-81 -35q-57 108 -81 142l82 34q35 -52 80 -141zM410 671v-120q230 43 338 67q47 11 72 25l99 -77q-25 -38 -33 -55q-38 -71 -99 -159.5t-113 -138.5l-113 67q47 41 92.5 100.5t70.5 105.5l-314 -62v-271
q0 -50 24.5 -68t105.5 -18q148 0 323 33l-4 -138q-156 -22 -318 -22q-86 0 -139.5 10t-81.5 34t-37 54t-9 79v279q-144 -28 -215 -45l-24 134q49 6 239 40v146q0 67 -8 117h153q-9 -56 -9 -117z" />
    <glyph glyph-name="uni30BD" unicode="&#x30bd;" 
d="M372 -45l-122 105q221 92 350 278q86 124 121 309q15 71 13 124l166 -23q-13 -43 -31 -119q-49 -217 -142 -360q-133 -206 -355 -314zM97 698l131 68q77 -109 178 -300l-136 -77q-85 184 -173 309z" />
    <glyph glyph-name="uni30BE" unicode="&#x30be;" 
d="M388 439l-135 -77q-34 73 -84 164t-89 146l132 67q77 -112 176 -300zM853 718l-81 -34l98 -19q-11 -37 -29 -109q-14 -56 -30 -104t-42.5 -107.5t-63 -112.5t-85 -107t-116 -104.5t-149.5 -92.5l-123 106q100 42 179 100.5t125 112.5t81 120.5t49.5 110.5t26.5 97
q17 82 16 121l58 -11q-34 74 -79 135l85 35q46 -66 80 -137zM826 853l85 35q43 -61 82 -135l-85 -37q-57 104 -82 137z" />
    <glyph glyph-name="uni30BF" unicode="&#x30bf;" 
d="M816 718l105 -65q-23 -39 -34 -72q-51 -150 -142 -281q42 -26 99 -66l-93 -119q-22 20 -96 72q-158 -172 -377 -255l-119 104q225 68 382 229q-95 61 -192 117l87 97q101 -53 193 -107q82 119 106 218h-294q-124 -163 -270 -264l-111 85q204 126 327 340q33 55 46 107
l149 -46q-34 -49 -64 -104l-1 -1h210q53 0 89 11z" />
    <glyph glyph-name="uni30C0" unicode="&#x30c0;" 
d="M879 700l-58 -24l75 -46q-23 -41 -34 -74q-49 -149 -141 -280q83 -54 98 -65l-92 -121q-24 22 -95 73q-160 -172 -378 -255l-119 103q225 68 381 230q-85 55 -190 116l86 98q80 -42 192 -108q83 122 107 218h-294q-122 -161 -270 -264l-110 85q200 124 325 340
q34 56 47 108l148 -47q-31 -45 -62 -104l-1 -1h209q45 0 81 9q-37 74 -67 117l81 33q36 -52 81 -141zM838 854l81 33q46 -64 82 -139l-81 -35q-38 82 -82 141z" />
    <glyph glyph-name="uni30C1" unicode="&#x30c1;" 
d="M597 484h258q24 0 93 6v-132q-56 4 -90 4h-265q-24 -278 -262 -420l-130 88q229 106 257 332h-282q-42 0 -96 -4v132q56 -6 94 -6h289v146q-115 -9 -275 -14l-31 119q194 -5 349 17q181 25 258 61l84 -113l-48.5 -11.5t-30.5 -7.5q-77 -20 -172 -34v-163z" />
    <glyph glyph-name="uni30C2" unicode="&#x30c2;" 
d="M993 575l-75 -35q-40 76 -76 124l74 34q35 -48 77 -123zM727 622l76 31q44 -63 73 -125l-77 -33q-43 87 -72 127zM572 472h258q34 0 94 5v-131q-42 3 -90 3h-266q-26 -280 -262 -421l-130 88q228 106 256 333h-281q-55 0 -96 -3v132q56 -6 95 -6h287v145q-97 -8 -273 -13
l-33 119q207 -5 350 16q181 25 258 62l84 -113l-48.5 -11.5t-30.5 -7.5q-73 -19 -172 -34v-163z" />
    <glyph glyph-name="uni30C3" unicode="&#x30c3;" 
d="M395 569l122 40q56 -129 84 -224l-123 -43q-9 38 -36.5 113t-46.5 114zM751 581l144 -46q-14 -39 -25 -75q-48 -183 -139 -300q-136 -176 -343 -254l-107 109q91 24 185 81t155 133q52 65 87 160t43 192zM157 511l123 44q44 -89 95 -233l-125 -48q-15 47 -45.5 126.5
t-47.5 110.5z" />
    <glyph glyph-name="uni30C4" unicode="&#x30c4;" 
d="M356 756l128 42q20 -39 57 -132.5t51 -142.5l-129 -45q-14 50 -49 140.5t-58 137.5zM799 760l152 -44q-14 -37 -25 -80q-63 -242 -172 -385q-79 -103 -184.5 -180t-218.5 -120l-114 115q112 32 221 100.5t183 163.5q60 76 103 197.5t55 232.5zM69 689l131 45
q24 -48 62 -140.5t56 -146.5l-132 -48q-15 51 -55 150.5t-62 139.5z" />
    <glyph glyph-name="uni30C5" unicode="&#x30c5;" 
d="M340 726l128 42q19 -38 55.5 -131t51.5 -143l-129 -45q-15 51 -49 141t-57 136zM772 667l150 -35q-6 -14 -26 -80q-58 -197 -159 -331q-79 -104 -184.5 -181t-217.5 -119l-115 115q112 32 221.5 101t183.5 163q110 138 147 367zM52 658l131 47q76 -162 119 -287l-132 -48
q-19 56 -58 153t-60 135zM694 821l85 35q43 -62 80 -137l-85 -36q-37 80 -80 138zM833 854l85 35q41 -59 81 -136l-85 -36q-59 108 -81 137z" />
    <glyph glyph-name="uni30C6" unicode="&#x30c6;" 
d="M727 657h-411q-47 0 -109 -4v132q46 -7 108 -7h412q62 0 111 7v-132q-72 4 -111 4zM185 517h671q51 0 93 6v-133q-39 3 -93 3h-247q-9 -154 -65 -263q-28 -55 -83.5 -109t-122.5 -88l-120 87q53 20 103 60.5t82 86.5q57 86 64 226h-282q-40 0 -98 -4v134q62 -6 98 -6z
" />
    <glyph glyph-name="uni30C7" unicode="&#x30c7;" 
d="M1012 751l-81 -36q-48 93 -82 141l81 34q51 -74 82 -139zM890 703l-82 -35q-55 104 -81 142l82 34q39 -57 81 -141zM637 644h-335q-62 0 -109 -3v132q53 -8 109 -8h335q55 0 111 8v-132q-52 3 -111 3zM172 505h671q53 0 93 6v-133q-39 3 -93 3h-247q-9 -151 -66 -263
q-28 -55 -83.5 -109t-121.5 -88l-120 87q54 21 104 61t81 86q58 86 64 226h-282q-40 0 -98 -4v134q46 -6 98 -6z" />
    <glyph glyph-name="uni30C8" unicode="&#x30c8;" 
d="M890 377l-59 -141q-141 74 -369 152v-290q0 -50 9 -142h-160q11 73 11 142v588q0 67 -11 124h160q-9 -81 -9 -124v-150q103 -30 230.5 -77.5t197.5 -81.5z" />
    <glyph glyph-name="uni30C9" unicode="&#x30c9;" 
d="M929 667l-86 -42q-41 80 -95 153l85 40q60 -82 96 -151zM792 607l-90 -40q-44 95 -90 158l86 37q58 -86 94 -155zM430 672v-150q104 -31 231.5 -78.5t196.5 -81.5l-57 -142q-150 79 -371 153v-290q0 -58 10 -142h-160q10 67 10 142v589q0 71 -10 124h159q-9 -81 -9 -124z
" />
    <glyph glyph-name="uni30CA" unicode="&#x30ca;" 
d="M610 578h231q45 0 111 6v-140q-110 5 -112 5h-231q-5 -166 -70 -289t-222 -217l-127 94q143 65 207.5 168.5t70.5 243.5h-261q-22 0 -118 -6v142q72 -7 114 -7h266v112q0 74 -13 120h162q-8 -43 -8 -121v-111z" />
    <glyph glyph-name="uni30CB" unicode="&#x30cb;" 
d="M88 38v157q107 -8 128 -8h588q42 0 112 8v-157q-54 6 -112 6h-588q-52 0 -128 -6zM174 547v148q56 -6 120 -6h424q55 0 113 6v-148q-10 0 -33 1.5t-43.5 2t-36.5 0.5h-423q-51 0 -121 -4z" />
    <glyph glyph-name="uni30CC" unicode="&#x30cc;" 
d="M773 756l97 -73q-16 -28 -31 -69q-68 -197 -161 -332q111 -81 192 -154l-95 -114q-82 78 -186 158q-76 -78 -174 -140.5t-198 -99.5l-113 115q219 69 368 210q-152 108 -253 163l84 100q114 -61 260 -159q88 128 119 252h-374q-12 0 -132 -4v139q80 -8 132 -8h388
q37 0 77 16z" />
    <glyph glyph-name="uni30CD" unicode="&#x30cd;" 
d="M793 699l84 -83q-35 -35 -79 -85q-96 -109 -215 -200q0 -43 -0.5 -135.5t-0.5 -122.5q0 -56 7 -131h-148q9 65 9 131v175q-131 -70 -315 -126l-79 121q229 51 418 171q119 77 172 153h-371q-80 0 -133 -5v134q46 -7 131 -7h178v53q0 50 -7 95h147q-6 -50 -6 -95v-53h123
q49 0 85 10zM647 274l85 99q143 -78 246 -149l-86 -112q-110 87 -245 162z" />
    <glyph glyph-name="uni30CE" unicode="&#x30ce;" 
d="M694 791l160 -41q-13 -26 -45 -115q-91 -249 -193 -376q-71 -90 -174 -171.5t-214 -125.5l-116 120q117 40 218 110t171 156q70 85 120 205t73 238z" />
    <glyph glyph-name="uni30CF" unicode="&#x30cf;" 
d="M210 338q79 197 97 389l150 -32q-20 -73 -25 -101q-11 -60 -36.5 -150.5t-50.5 -157.5q-61 -164 -150 -293l-144 60q100 133 159 285zM716 359q-68 188 -149 337l136 44q76 -144 152 -336q64 -165 119 -357l-152 -49q-51 211 -106 361z" />
    <glyph glyph-name="uni30D0" unicode="&#x30d0;" 
d="M718 783l81 34q41 -60 81 -140l-82 -36q-59 113 -80 142zM839 829l81 34q45 -65 82 -139l-81 -36q-35 76 -82 141zM197 318q79 198 97 390l149 -31q-14 -48 -24 -103q-30 -152 -87 -308q-61 -163 -152 -293l-143 61q100 129 160 284zM702 340q-72 199 -148 337l136 44
q79 -149 151 -336q61 -152 120 -357l-152 -50q-48 203 -107 362z" />
    <glyph glyph-name="uni30D1" unicode="&#x30d1;" 
d="M820 736q0 -24 17.5 -41t42.5 -17t42 17t17 41q0 25 -17 42.5t-42 17.5t-42.5 -17.5t-17.5 -42.5zM757 736q0 51 36 87t87 36t86.5 -36t35.5 -87q0 -50 -35.5 -86t-86.5 -36t-87 36t-36 86zM197 318q79 198 97 390l149 -31q-14 -48 -24 -103q-30 -152 -87 -308
q-61 -163 -152 -293l-143 61q100 129 160 284zM702 340q-72 199 -148 337l136 44q82 -156 151 -336q61 -152 120 -357l-152 -50q-48 203 -107 362z" />
    <glyph glyph-name="uni30D2" unicode="&#x30d2;" 
d="M347 373v-190q0 -31 15 -44t51 -20q47 -6 118 -6q89 0 193.5 9.5t163.5 25.5v-149q-151 -22 -365 -22q-97 0 -172 12q-140 25 -140 153v558q0 56 -8 107h151q-7 -45 -7 -107v-193q211 54 358 115q60 24 111 55l55 -129q-15 -6 -57 -24t-62 -25q-169 -66 -405 -126z" />
    <glyph glyph-name="uni30D3" unicode="&#x30d3;" 
d="M838 689l-83 -35q-43 91 -80 142l81 33q45 -65 82 -140zM306 351v-189q0 -31 15 -44.5t52 -20.5q47 -6 119 -6q86 0 191.5 10t164.5 26v-150q-144 -21 -365 -21q-97 0 -172 12q-140 24 -140 153v558q0 55 -8 106h151q-8 -51 -8 -106v-194q209 52 354 114q61 23 112 55
l55 -130l-53 -22t-66 -26q-168 -67 -402 -125zM796 843l81 33q37 -51 82 -140l-80 -35q-50 97 -83 142z" />
    <glyph glyph-name="uni30D4" unicode="&#x30d4;" 
d="M851 668q25 0 42 17t17 42t-17 42t-42 17q-24 0 -41 -17t-17 -42t17 -42t41 -17zM306 679v-194q209 52 354 114q46 17 99 47q-30 37 -30 81q0 51 35.5 87t86.5 36t87 -36t36 -87t-36 -87t-87 -36q-36 0 -66 20l42 -100l-53 -22t-66 -26q-168 -67 -402 -125v-189
q0 -31 15 -44.5t52 -20.5q47 -6 119 -6q86 0 191.5 10t164.5 26v-150q-144 -21 -365 -21q-97 0 -172 12q-140 24 -140 153v558q0 55 -8 106h151q-8 -51 -8 -106z" />
    <glyph glyph-name="uni30D5" unicode="&#x30d5;" 
d="M810 746l100 -64q-12 -27 -22 -72q-59 -244 -154 -372q-151 -200 -411 -283l-112 123q256 59 401 239q94 118 120 289h-477q-68 0 -122 -4v144q83 -8 123 -8h473q49 0 81 8z" />
    <glyph glyph-name="uni30D6" unicode="&#x30d6;" 
d="M856 728l-38 -16l65 -42q-9 -18 -23 -71q-60 -250 -153 -373q-148 -198 -412 -282l-112 122q144 34 239 94t163 146q48 60 78.5 138t42.5 151h-478q-68 0 -122 -4v144q60 -8 122 -8h474q31 0 49 2q-18 35 -58 99l84 35q45 -65 79 -135zM836 854l85 35q39 -56 81 -135
l-84 -37q-57 104 -82 137z" />
    <glyph glyph-name="uni30D7" unicode="&#x30d7;" 
d="M882 692q24 0 41 17.5t17 41.5q0 25 -17 42t-41 17q-25 0 -42.5 -17t-17.5 -42q0 -24 17.5 -41.5t42.5 -17.5zM228 727h474q28 0 59 4q-2 12 -2 20q0 51 36 86.5t87 35.5q50 0 86 -35.5t36 -86.5q0 -50 -36 -86t-86 -36q-10 0 -14 1l-8 -31q-60 -250 -153 -373
q-148 -198 -412 -282l-112 122q144 34 239 94t163 146q48 60 78.5 138t42.5 151h-478q-68 0 -122 -4v144q60 -8 122 -8z" />
    <glyph glyph-name="uni30D8" unicode="&#x30d8;" 
d="M167 182l-123 127q31 25 84 78q30 31 197 231q47 55 91.5 58t108.5 -49q78 -64 209 -208q177 -189 252 -276l-109 -119q-45 57 -220 265q-131 156 -187 203q-27 23 -44 22t-39 -29q-23 -29 -82 -109l-73 -98z" />
    <glyph glyph-name="uni30D9" unicode="&#x30d9;" 
d="M637 673l89 37q57 -85 96 -164l-92 -40q-48 105 -93 167zM775 726l88 40q58 -79 100 -160l-90 -43q-50 99 -98 163zM158 167l-121 124q37 31 84 78q16 16 41.5 45.5l47 55l55.5 67l52 63.5q47 56 92 58.5t109 -49.5q82 -69 209 -208l252 -276l-110 -119l-219 268
q-123 148 -188 203q-27 24 -44 22.5t-39 -28.5q-24 -30 -87 -115.5l-69 -93.5q-32 -43 -65 -95z" />
    <glyph glyph-name="uni30DA" unicode="&#x30da;" 
d="M759 673q-19 -19 -19 -46t19 -46t46 -19t46 19t19 46t-19 46t-46 19t-46 -19zM673 627q0 56 38.5 94.5t93.5 38.5t94 -39t39 -94t-38.5 -93.5t-94.5 -38.5q-55 0 -93.5 38.5t-38.5 93.5zM158 167l-121 124q37 31 84 78q16 16 41.5 45.5l47 55l55.5 67l52 63.5
q47 56 92 58.5t109 -49.5q82 -69 209 -208l252 -276l-110 -119l-219 268q-123 148 -188 203q-27 24 -44 22.5t-39 -28.5q-24 -30 -87 -115.5l-69 -93.5q-32 -43 -65 -95z" />
    <glyph glyph-name="uni30DB" unicode="&#x30db;" 
d="M246 434l116 -54q-34 -66 -94 -152.5t-103 -133.5l-112 76q52 49 107 124t86 140zM833 525h-239v-476q0 -45 -27 -70.5t-81 -25.5q-88 0 -165 9l-13 126q59 -11 114 -11q20 0 28 8.5t9 28.5q1 38 1 410v1h-260q-60 0 -99 -4v135q72 -7 99 -7h260v82q0 44 -8 89h151
q-9 -42 -9 -90v-81h237q53 0 102 7v-134q-48 3 -100 3zM690 377l112 60q91 -116 175 -269l-120 -66q-87 172 -167 275z" />
    <glyph glyph-name="uni30DC" unicode="&#x30dc;" 
d="M996 725l-81 -36q-47 92 -79 135l80 33q44 -59 80 -132zM861 694l-82 -35q-44 90 -77 136l81 33q47 -69 78 -134zM233 422l116 -54q-35 -67 -94.5 -153.5t-102.5 -132.5l-111 76q51 49 105.5 124t86.5 140zM820 513h-239v-476q0 -45 -27 -70.5t-80 -25.5q-89 0 -167 9
l-12 127q66 -12 114 -12q20 0 28 8t9 28q1 38 1 411v1h-260q-60 0 -99 -4v136q62 -8 99 -8h260v82q0 51 -9 89h152q-9 -63 -9 -89v-82h238q54 0 101 7v-134q-48 3 -100 3zM678 365l112 60q91 -116 175 -269l-121 -66q-35 70 -83 150.5t-83 124.5z" />
    <glyph glyph-name="uni30DD" unicode="&#x30dd;" 
d="M850 823q-24 0 -40 -16t-16 -39t16 -39.5t40 -16.5q23 0 39 16.5t16 39.5t-16 39t-39 16zM850 649q-50 0 -84.5 34.5t-34.5 84.5q0 49 34.5 83.5t84.5 34.5t84 -34t34 -84t-34.5 -84.5t-83.5 -34.5zM233 422l116 -54q-35 -67 -94.5 -153.5t-102.5 -132.5l-111 76
q51 49 105.5 124t86.5 140zM820 513h-239v-476q0 -45 -27 -70.5t-80 -25.5q-89 0 -167 9l-12 127q66 -12 114 -12q20 0 28 8t9 28q1 38 1 411v1h-260q-60 0 -99 -4v136q62 -8 99 -8h260v82q0 51 -9 89h152q-9 -63 -9 -89v-82h238q54 0 101 7v-134q-48 3 -100 3zM678 365
l112 60q91 -116 175 -269l-121 -66q-35 70 -83 150.5t-83 124.5z" />
    <glyph glyph-name="uni30DE" unicode="&#x30de;" 
d="M873 729l103 -84q-31 -35 -35 -43q-61 -98 -154 -208t-195 -192q89 -89 159 -173l-120 -96q-68 90 -196 222q-45 46 -112.5 104.5t-112.5 91.5l108 87q75 -57 174 -142q82 65 151.5 146t108.5 149h-542q-41 0 -118 -7v143q61 -9 118 -9h568q60 0 95 11z" />
    <glyph glyph-name="uni30DF" unicode="&#x30df;" 
d="M244 681l48 121q107 -13 286.5 -51t271.5 -70l-52 -128q-88 32 -266 73t-288 55zM198 402l47 124q127 -22 286.5 -58t248.5 -67l-50 -128q-84 32 -245.5 70.5t-286.5 58.5zM141 104l52 129q138 -21 333.5 -68t296.5 -85l-56 -128q-96 39 -290.5 85t-335.5 67z" />
    <glyph glyph-name="uni30E0" unicode="&#x30e0;" 
d="M976 15l-138 -61q-15 40 -48 121q-372 -42 -607 -66q-14 -2 -47.5 -6t-48.5 -6l-24 149q79 0 113 1l28 1q90 233 177 539q20 73 25 118l162 -33q-23 -51 -44 -114q-141 -426 -167 -497q125 12 374 41q-62 127 -107 187l128 52q54 -82 121 -210t103 -216z" />
    <glyph glyph-name="uni30E1" unicode="&#x30e1;" 
d="M709 807l156 -55q-22 -39 -42 -92q-59 -157 -138 -278q141 -116 244 -225l-106 -118q-97 114 -226 225q-163 -198 -381 -316l-118 105q235 114 389 302q-166 130 -274 194l88 105q128 -79 270 -184q62 98 113 243q16 47 25 94z" />
    <glyph glyph-name="uni30E2" unicode="&#x30e2;" 
d="M527 330v-157q0 -42 27.5 -59.5t89.5 -17.5q110 0 264 15l-9 -139q-134 -8 -278 -8q-132 0 -183 42t-51 126v198h-167q-34 0 -111 -5v134q73 -5 111 -5h167v174h-112q-54 0 -99 -3v128q75 -5 99 -5h493q52 0 92 5v-128q-81 3 -92 3h-241v-174h310q45 0 99 4l1 -131
q-29 3 -97 3h-313z" />
    <glyph glyph-name="uni30E3" unicode="&#x30e3;" 
d="M683 172l-113 56q38 35 84 91t67 94l-237 -49q87 -312 99 -352q1 -2 11.5 -37t15.5 -47l-139 -33q-4 40 -18 89l-95 354q-129 -27 -191 -41l-32 123q54 5 94 12q20 3 99 18q-9 35 -27 95q-8 29 -29 72l138 33q3 -21 16 -78l28 -99q258 50 313 62q30 5 52 16l82 -58
q-33 -69 -99 -166.5t-119 -154.5z" />
    <glyph glyph-name="uni30E4" unicode="&#x30e4;" 
d="M706 272l-133 63q52 43 107 111t84 117q-66 -11 -309 -62q96 -354 120 -435q21 -65 33 -97l-152 -35q-11 63 -23 104q-3 10 -117 434l-231 -49l-36 138q60 6 116 13l119 22q-31 107 -33 116q-18 60 -35 90l151 34q8 -51 19 -92l16 -55t19 -67q385 75 387 76q27 4 60 19
l95 -68q-35 -76 -113.5 -190t-143.5 -187z" />
    <glyph glyph-name="uni30E5" unicode="&#x30e5;" 
d="M717 112h65q65 0 101 4v-132q-60 3 -98 3h-539q-44 0 -102 -3v133q47 -5 102 -5h332q35 220 39 289h-276q-27 0 -102 -5v135q54 -6 101 -6h262q55 0 77 12l98 -49q-3 -8 -10 -43q-9 -70 -50 -333z" />
    <glyph glyph-name="uni30E6" unicode="&#x30e6;" 
d="M746 177h111q23 0 95 8v-148q-36 5 -95 5h-683q-57 0 -101 -5v148q53 -8 101 -8h423q55 323 57 395h-353q-67 0 -116 -4v145q66 -8 115 -8h324q63 0 95 13l106 -53q-7 -26 -10 -47q-14 -107 -69 -441z" />
    <glyph glyph-name="uni30E7" unicode="&#x30e7;" 
d="M810 507v-514q0 -8 0.5 -34.5t0.5 -35.5h-129q1 9 1 41h-388q-37 0 -88 -3v126q34 -4 89 -4h387v136h-327q-63 0 -111 -2v121q41 -3 111 -3h327v124h-338q-77 0 -127 -4v124q54 -6 127 -6h387q47 0 79 2q-1 -13 -1 -68z" />
    <glyph glyph-name="uni30E8" unicode="&#x30e8;" 
d="M869 657v-618q0 -11 0.5 -39t0.5 -38h-141q0 32 1 51h-478q-61 0 -105 -4v136q40 -4 106 -4h477v182h-400q-77 0 -135 -2v131q68 -6 135 -6h400v167h-415q-58 0 -154 -3v133q57 -5 154 -5h466q49 0 89 2q-1 -16 -1 -83z" />
    <glyph glyph-name="uni30E9" unicode="&#x30e9;" 
d="M835 545l91 -57q-13 -25 -20 -43q-56 -178 -151 -283q-141 -157 -366 -221l-102 115q225 46 355 180q74 75 106 177h-495q-65 0 -119 -5v133q64 -6 119 -6h507q52 0 75 10zM228 653v132q36 -5 107 -5h394q75 0 111 5v-132q-42 3 -113 3h-392q-62 0 -107 -3z" />
    <glyph glyph-name="uni30EA" unicode="&#x30ea;" 
d="M200 785h150q-3 -35 -3 -77v-347q0 -53 3 -89h-151q0 6 1.5 23.5t2.5 35t1 31.5v346q0 46 -4 77zM671 795h151q-4 -58 -4 -103v-203q0 -156 -28.5 -243t-90.5 -155q-88 -97 -248 -148l-108 112q168 40 251 129q50 56 66.5 122t16.5 192v194q0 60 -6 103z" />
    <glyph glyph-name="uni30EB" unicode="&#x30eb;" 
d="M166 -45l-125 83q120 84 174 245q30 91 30 405q0 56 -9 93h150q-7 -28 -7 -92q0 -326 -31 -440q-46 -174 -182 -294zM600 -48l-85 71q8 38 8 75v597q0 64 -8 88h153q-8 -24 -8 -89v-535q65 28 134 86t119 130l79 -113q-61 -80 -158.5 -156.5t-188.5 -122.5
q-13 -7 -45 -31z" />
    <glyph glyph-name="uni30EC" unicode="&#x30ec;" 
d="M296 -43l-96 84q13 28 13 67v555q0 62 -11 115h160q-10 -65 -10 -115v-532q133 38 283 131t244 207l72 -116q-199 -238 -594 -368q-35 -13 -61 -28z" />
    <glyph glyph-name="uni30ED" unicode="&#x30ed;" 
d="M763 594h-495v-425h495v425zM900 627v-502q0 -18 0.5 -52t1 -61.5t0.5 -28.5h-141l1 56h-494l1 -56h-141q3 15 3 143v501q0 70 -2 99q84 -2 109 -2h563q64 0 101 2q-2 -31 -2 -99z" />
    <glyph glyph-name="uni30EE" unicode="&#x30ee;" 
d="M785 573l93 -58q-14 -22 -20 -59q-44 -241 -121 -337q-116 -149 -315 -223l-107 108q193 50 296 176q85 103 101 267h-400v-128q0 -32 3 -74h-140q5 45 5 74v178q0 28 -4 72q40 -3 106 -3h423q53 0 80 7z" />
    <glyph glyph-name="uni30EF" unicode="&#x30ef;" 
d="M824 749l100 -63q-9 -23 -19 -69q-13 -77 -22.5 -123t-36 -122.5t-63.5 -133.5q-130 -204 -388 -294l-114 116q112 28 215.5 92t160.5 155q78 127 94 307h-492v-171q0 -51 4 -84h-150q5 53 5 84v216q0 39 -5 86q66 -4 125 -4h489q54 0 97 8z" />
    <glyph glyph-name="uni30F0" unicode="&#x30f0;" 
d="M413 282h194v252h-194v-252zM739 282h114q32 0 95 7v-136q-29 4 -95 4h-114v-114q0 -39 4 -97h-140q4 56 4 95v116h-423q-66 0 -100 -4v136q46 -7 100 -7h100v252h-63q-57 0 -101 -5v134q44 -8 101 -8h386v74q0 17 -4 80h139q-3 -63 -3 -80v-74h90q42 0 96 8v-134
q-37 5 -96 5h-90v-252z" />
    <glyph glyph-name="uni30F1" unicode="&#x30f1;" 
d="M756 598h-502l-122 -5v139q61 -7 112 -7h546q42 0 78 11l85 -58q-18 -27 -26 -43q-31 -65 -91 -146.5t-116 -131.5l-113 75q95 75 149 166zM566 155h293q33 0 98 7v-150q-52 5 -98 5h-679q-43 0 -103 -5v150q48 -7 103 -7h245v255q0 82 -5 117h152q-6 -50 -6 -118v-254z
" />
    <glyph glyph-name="uni30F2" unicode="&#x30f2;" 
d="M823 761l103 -65q-13 -27 -17 -46q-56 -270 -124 -380q-72 -112 -176 -193.5t-263 -137.5l-106 112q132 32 240 100t172 160q16 25 27 47h-398q-56 0 -105 -4v129q52 -5 99 -5h450q18 64 31 148h-489q-61 0 -117 -6v140q84 -9 116 -9h464q59 0 93 10z" />
    <glyph glyph-name="uni30F3" unicode="&#x30f3;" 
d="M151 676l96 102q56 -37 138.5 -104.5t125.5 -111.5l-104 -107q-41 44 -121 113.5t-135 107.5zM205 -39l-86 135q220 32 392 134q125 74 223.5 182t149.5 217l80 -145q-60 -106 -159 -206t-220 -173q-182 -110 -380 -144z" />
    <glyph glyph-name="uni30F4" unicode="&#x30f4;" 
d="M859 708l-82 -35q-58 110 -80 142l81 33q38 -54 81 -140zM555 651h179q52 0 85 11l88 -55q-6 -21 -19 -81q-32 -173 -96 -290q-60 -112 -169.5 -191.5t-248.5 -116.5l-107 123q76 13 146 41q150 57 232 174q69 103 90 264h-508v-150q0 -49 4 -76h-141q4 35 4 86v178
q0 62 -4 87q47 -4 105 -4h218v78q0 43 -7 94h157q-8 -59 -8 -94v-78zM826 852l81 34q50 -72 82 -140l-81 -34q-52 99 -82 140z" />
    <glyph glyph-name="uni30F5" unicode="&#x30f5;" 
d="M754 501l80 -38q-7 -33 -7 -44q-7 -318 -53 -422q-27 -63 -117 -63q-21 0 -46.5 1t-54.5 3t-42 3l-13 125q89 -13 120 -13q36 0 49 28q17 35 26 125t9 174h-186q-23 -158 -85.5 -266t-182.5 -192l-110 87q57 27 109 75q120 112 146 296h-115q-57 0 -109 -3v124
q58 -5 108 -5h128q1 23 1 70q0 41 -6 79h137q-3 -20 -6 -76q-1 -14 -2.5 -38t-1.5 -35h161q31 0 63 5z" />
    <glyph glyph-name="uni30F6" unicode="&#x30f6;" 
d="M419 486h375q50 0 90 6v-125q-41 4 -90 4h-125q-25 -325 -263 -471l-127 85q46 19 92 54q149 122 169 332h-180q-73 -118 -141 -178l-120 69q82 61 156 174q37 56 57 131q12 41 15 75l143 -30q-4 -11 -12.5 -30.5t-11.5 -29.5q-18 -47 -27 -66z" />
    <glyph glyph-name="uni30FB" unicode="&#x30fb;" 
d="M420 297q-39 38 -39 92t38.5 92.5t92.5 38.5t92.5 -38.5t38.5 -92.5t-38.5 -92.5t-92.5 -38.5t-92 39z" />
    <glyph glyph-name="uni30FC" unicode="&#x30fc;" 
d="M94 313v161q74 -6 165 -6h550q39 0 120 6v-161q-7 0 -30.5 1.5t-47 2.5t-42.5 1h-550q-102 0 -165 -5z" />
    <glyph glyph-name="uni30FD" unicode="&#x30fd;" 
d="M267 529l118 92q90 -75 217 -210.5t193 -228.5l-125 -99q-65 100 -183.5 231t-219.5 215z" />
    <glyph glyph-name="uni30FE" unicode="&#x30fe;" 
d="M525 673l86 35q33 -46 94 -157l-90 -37q-75 138 -90 159zM663 716l88 37q47 -67 93 -157l-88 -37q-66 121 -93 157zM242 522l117 92q90 -76 217.5 -211.5t192.5 -227.5l-125 -99q-65 102 -183 232.5t-219 213.5z" />
    <glyph glyph-name="uni4E00" unicode="&#x4e00;" 
d="M42 465h942v-132h-942v132z" />
    <glyph glyph-name="uni4E01" unicode="&#x4e01;" 
d="M968 790v-127h-353v-579q0 -63 -16.5 -94t-58.5 -48q-65 -25 -251 -25q-13 65 -60 143q136 -7 205 -4q20 1 28 7t8 23v577h-413v127h911z" />
    <glyph glyph-name="uni4E03" unicode="&#x4e03;" 
d="M544 65h205q50 0 66 38.5t25 172.5q56 -42 125 -58q-12 -157 -54 -216t-153 -59h-224q-117 0 -159 42t-42 159v250l-267 -40l-21 123l288 44v325h134v-305l502 77l20 -125l-522 -78v-272q0 -52 13 -65t64 -13z" />
    <glyph glyph-name="uni4E07" unicode="&#x4e07;" 
d="M963 678h-533q-4 -113 -9 -166h460q-1 -39 -3 -54q-11 -237 -27 -343.5t-46 -140.5q-37 -43 -110 -51q-52 -7 -178 -1q-6 65 -43 120q71 -6 171 -6q33 0 48 13q40 38 55 345h-341q-17 -102 -48 -184t-94 -162t-154 -135q-30 54 -88 98q43 24 78.5 54.5t62 60t47 70
t34.5 72t24 79.5t15.5 80t9 85t4.5 82l3 84h-239v120h901v-120z" />
    <glyph glyph-name="uni4E08" unicode="&#x4e08;" 
d="M965 564h-283q-9 -135 -37 -235t-88 -178q157 -95 419 -122q-42 -42 -74 -117q-278 37 -439 147q-124 -90 -337 -139q-23 62 -71 109q201 43 309 116q-123 132 -190 359l116 27q50 -187 164 -301q47 61 67.5 141.5t27.5 192.5h-489v119h493q0 109 1 167h134
q0 -61 -2 -167h279v-119z" />
    <glyph glyph-name="uni4E09" unicode="&#x4e09;" 
d="M124 769h776v-123h-776v123zM195 442h624v-124h-624v124zM67 97h888v-125h-888v125z" />
    <glyph glyph-name="uni4E0A" unicode="&#x4e0a;" 
d="M545 84h433v-123h-931v123h367v771h131v-293h361v-124h-361v-354z" />
    <glyph glyph-name="uni4E0B" unicode="&#x4e0b;" 
d="M969 670h-412v-161l21 23q243 -120 349 -206l-90 -112q-83 73 -280 186v-486h-131v756h-370v123h913v-123z" />
    <glyph glyph-name="uni4E0D" unicode="&#x4e0d;" 
d="M579 473l75 64q253 -182 341 -278l-103 -93q-85 102 -313 277v-530h-134v500q-155 -165 -325 -252q-33 57 -84 110q134 63 250 171.5t191 231.5h-408v125h887v-125h-318q-23 -43 -59 -94v-107z" />
    <glyph glyph-name="uni4E0E" unicode="&#x4e0e;" 
d="M975 289v-117h-200q-24 -163 -67 -209q-38 -42 -108 -49q-52 -5 -174 0q-4 65 -43 122q83 -7 169 -7q34 0 50 14q28 24 47 129h-597v117h614q5 41 10 108h-354l-11 -43l-129 11q59 219 101 503l127 -11q-3 -21 -10.5 -62l-10.5 -57h474v-116h-495q-9 -50 -23 -112h464
q-2 -37 -4 -52q-8 -99 -15 -169h185z" />
    <glyph glyph-name="uni4E10" unicode="&#x4e10;" 
d="M950 689h-383v-94h315v-111h-315v-97h382q-2 -35 -5 -52q-19 -173 -41.5 -260.5t-55.5 -119.5q-37 -37 -109 -43q-45 -4 -170 0q-4 68 -41 119q78 -7 166 -7q36 0 51 12q41 35 68 238h-568q-2 -12 -7.5 -33t-7.5 -30l-120 14q39 154 73 403l121 -12q-9 -57 -38 -229h180
v302h-368v113h873v-113z" />
    <glyph glyph-name="uni4E11" unicode="&#x4e11;" 
d="M369 58h274q16 158 24 278h-258q-20 -153 -40 -278zM685 691h-233l-15 -128.5t-12 -105.5h249q5 74 11 234zM977 336h-185q-12 -177 -21 -278h196v-116h-910v116h186q28 160 43 278h-239v121h254q20 162 26 234h-188v119h677q-6 -161 -17 -353h178v-121z" />
    <glyph glyph-name="uni4E14" unicode="&#x4e14;" 
d="M328 205v-133h382v133h-382zM710 695h-382v-129h382v129zM710 323v131h-382v-131h382zM838 72h136v-119h-921v119h154v741h631v-741z" />
    <glyph glyph-name="uni4E15" unicode="&#x4e15;" 
d="M598 487l89 72q220 -171 289 -250l-96 -84q-77 95 -282 262zM449 94v360q-150 -139 -322 -226q-15 23 -43.5 56t-48.5 50q137 59 256.5 151t201.5 205h-418v117h870v-117h-299q-27 -43 -72 -100v-496h-125zM56 -54v115h914v-115h-914z" />
    <glyph glyph-name="uni4E16" unicode="&#x4e16;" 
d="M574 343h138v161h-138v-161zM835 188h-123v41h-138v-42h-122v317h-140v-411h639v-118h-639v-64h-126v593h-145v118h145v215h126v-215h140v237h122v-237h138v227h123v-227h151v-118h-151v-316z" />
    <glyph glyph-name="uni4E17" unicode="&#x4e17;" 
d="M703 111v379h-136v-379h136zM314 490v-379h135v379h-135zM978 611v-121h-151v-570h-124v71h-389v-79h-121v578h-142v121h142v237h121v-237h135v237h118v-237h136v237h124v-237h151z" />
    <glyph glyph-name="uni4E18" unicode="&#x4e18;" 
d="M325 398v-329h293v329h-293zM743 69h238v-119h-937v119h156v716l111 -22q294 40 456 97l92 -105q-216 -65 -534 -103v-135h600v-119h-182v-329z" />
    <glyph glyph-name="uni4E19" unicode="&#x4e19;" 
d="M218 451v-269q188 91 217 269h-217zM955 687h-380v-122h357v-511q0 -50 -13.5 -76.5t-47.5 -39.5q-49 -21 -200 -21q-8 59 -40 120q40 -2 151 -2q14 0 20 4.5t6 17.5v394h-239q-5 -34 -12 -58q182 -124 245 -191l-83 -97q-67 78 -206 180q-66 -120 -211 -201
q-29 44 -84 88v-259h-122v652h346v122h-376v120h889v-120z" />
    <glyph glyph-name="uni4E1E" unicode="&#x4e1e;" 
d="M339 602l77 -35q-39 -152 -116.5 -264.5t-179.5 -175.5q-14 20 -43 46.5t-50 39.5q79 43 141.5 114.5t98.5 162.5h-204v107h254zM71 -52v107h882v-107h-882zM858 644l110 -80q-130 -100 -214 -153q112 -124 248 -178q-52 -46 -86 -106q-215 107 -342 356v-272
q0 -45 -11.5 -69.5t-41.5 -36.5q-48 -18 -185 -18q-6 49 -37 109q92 -3 131 -1q24 0 24 19v431h71q46 36 89 79h-428v106h532l25 7l81 -63q-94 -103 -192 -175q23 -52 59 -106q106 81 167 151z" />
    <glyph glyph-name="uni4E21" unicode="&#x4e21;" 
d="M973 680h-407v-97h364v-550q0 -44 -11 -68.5t-40 -36.5q-46 -20 -174 -18q-8 47 -40 106q34 -2 73.5 -2.5t48.5 0.5q23 0 23 21v435h-244v-253h75v198h108v-354h-108v51h-265v-72h-102v375h102v-198h71v253h-234v-561h-119v674h353v97h-394v118h920v-118z" />
    <glyph glyph-name="uni4E26" unicode="&#x4e26;" 
d="M462 566v-491h98v491h-98zM682 75h291v-126h-920v126h289v491h-269v120h208q-30 76 -74 138l108 42q66 -88 92 -164l-39 -16h249q55 82 94 182l136 -35q-66 -110 -92 -147h196v-120h-269v-491zM114 461l109 28q72 -161 90 -312l-117 -30q-4 63 -27.5 151.5t-54.5 162.5z
M809 148l-111 29q64 151 96 320l132 -30q-69 -217 -117 -319z" />
    <glyph glyph-name="uni4E2A" unicode="&#x4e2a;" 
d="M508 738q-62 -96 -174 -196t-240 -173q-32 59 -80 101q130 68 246.5 179t176.5 216h130q82 -125 200.5 -225.5t246.5 -156.5q-34 -32 -84 -111q-123 68 -240.5 169.5t-181.5 196.5zM444 520h128v-609h-128v609z" />
    <glyph glyph-name="uni4E2D" unicode="&#x4e2d;" 
d="M574 350h232v220h-232v-220zM215 350h230v220h-230v-220zM574 690h360v-511h-128v51h-232v-319h-129v319h-230v-56h-123v516h353v177h129v-177z" />
    <glyph glyph-name="uni4E31" unicode="&#x4e31;" 
d="M333 430v424h121v-425q0 -73 -6 -128.5t-24.5 -117.5t-51 -109.5t-88.5 -91.5t-133 -76q-12 22 -36.5 52.5t-43.5 46.5q111 43 168.5 108.5t77.5 153.5h-112v-62h-119v550h119v-372h127q1 15 1 47zM817 755h123v-542h-123v54h-132v-355h-121v942h121v-471h132v372z" />
    <glyph glyph-name="uni4E32" unicode="&#x4e32;" 
d="M575 177h227v99h-227v-99zM223 177h220v99h-220v-99zM264 555h179v92h-179v-92zM757 647h-182v-92h182v92zM575 387h360v-358h-133v40h-227v-158h-132v158h-220v-41h-127v359h347v62h-305v304h305v113h132v-113h315v-304h-315v-62z" />
    <glyph glyph-name="uni4E36" unicode="&#x4e36;" 
d="M256 548l100 88q114 -78 226.5 -172t169.5 -167l-113 -102q-53 74 -163 174t-220 179z" />
    <glyph glyph-name="uni4E38" unicode="&#x4e38;" 
d="M812 45h55q17 0 22.5 34t7.5 150q46 -37 115 -55q-8 -140 -36 -194t-97 -54h-89q-73 0 -100 35.5t-27 133.5v439h-182q-11 -120 -40 -222q103 -73 157 -127l-92 -99q-44 47 -113 101q-88 -178 -278 -277q-13 24 -39 52t-50 46q184 91 262 259q-83 59 -167 111l83 85
q88 -52 125 -76q14 62 23 147h-268v120h275q2 69 2 210h132q-2 -141 -5 -210h300v-559q0 -32 4.5 -41t19.5 -9z" />
    <glyph glyph-name="uni4E39" unicode="&#x4e39;" 
d="M378 617l86 68q118 -89 181 -160l-92 -76q-41 54 -175 168zM313 431h411v281h-411v-245v-36zM974 431v-117h-127v-262q0 -53 -14.5 -80.5t-48.5 -41.5q-47 -20 -221 -20q-8 52 -42 119q55 -4 172 -4q18 1 24.5 7t6.5 22v260h-419q-30 -272 -184 -403q-14 19 -43 46
t-49 39q127 110 153 318h-131v117h139v37v356h657v-393h127z" />
    <glyph glyph-name="uni4E3B" unicode="&#x4e3b;" 
d="M580 62h393v-119h-917v119h389v198h-291v118h291v177h-346v119h410q-49 48 -154 125l101 69q132 -84 196 -154l-54 -40h325v-119h-343v-177h293v-118h-293v-198z" />
    <glyph glyph-name="uni4E3C" unicode="&#x4e3c;" 
d="M384 485l86 76q113 -84 159 -151l-92 -83q-21 34 -65 79t-88 79zM368 316h282v261h-278v-137q0 -69 -4 -124zM987 316v-115h-212v-290h-125v290h-300q-44 -194 -208 -295q-15 21 -44 49.5t-50 42.5q126 74 172 203h-181v115h206q6 48 6 125v136h-180v113h180v174h121
v-174h278v176h125v-176h180v-113h-180v-261h212z" />
    <glyph glyph-name="uni4E3F" unicode="&#x4e3f;" 
d="M486 839h135v-312q0 -74 -5 -132t-23.5 -129.5t-50 -128t-89 -114t-137.5 -101.5q-19 24 -51.5 52.5t-58.5 42.5q62 32 109.5 70t77 80.5t49 84t29 92t12.5 91t3 93.5v311z" />
    <glyph glyph-name="uni4E42" unicode="&#x4e42;" 
d="M744 803l135 -33q-89 -345 -271 -550q156 -134 394 -190q-21 -20 -47 -56t-41 -65q-246 65 -407 212q-162 -137 -390 -213q-24 47 -91 116q236 69 389 195q-158 196 -240 548l126 27q65 -298 212 -478q155 178 231 487z" />
    <glyph glyph-name="uni4E43" unicode="&#x4e43;" 
d="M715 544h255q-1 -41 -2 -58q-13 -247 -32 -360.5t-52 -151.5q-39 -44 -115 -52q-53 -6 -181 -1q-6 68 -46 126q75 -7 178 -7q36 0 50 14q43 38 65 372h-136q-10 -68 -11 -73l-128 9q27 156 40 326h-202v-50q0 -71 -4 -132t-20.5 -148.5t-45 -160.5t-81.5 -151.5
t-126 -137.5q-14 23 -42.5 55t-50.5 48q65 51 112.5 119t72 130.5t38.5 138.5t17.5 127.5t3.5 113.5v48h-189v120h658q-12 -142 -26 -264z" />
    <glyph glyph-name="uni4E45" unicode="&#x4e45;" 
d="M643 719l89 -41q-37 -147 -98 -272q53 -130 147 -230.5t217 -151.5q-51 -44 -89 -110q-219 106 -350 361q-164 -247 -427 -365q-15 25 -44 59t-51 50q187 74 325 219.5t206 351.5h-215q-93 -177 -218 -288q-45 47 -109 91q101 76 177.5 200t119.5 273l134 -29
q-15 -48 -46 -124h209z" />
    <glyph glyph-name="uni4E4B" unicode="&#x4e4b;" 
d="M851 684l92 -57q-86 -144 -217.5 -289t-271.5 -251q97 -39 274 -39q90 -2 264 1q-29 -45 -42 -120h-230q-170 0 -283.5 37t-187.5 135q-62 -121 -106 -189l-119 75q54 62 105.5 159t81.5 186l123 -45q-1 -2 -29 -66q16 -31 43 -62q109 78 215 186.5t179 213.5h-644v119
h349v188h125v-188h254z" />
    <glyph glyph-name="uni4E4D" unicode="&#x4e4d;" 
d="M972 584h-459v-113h395v-117h-395v-114h416v-119h-416v-210h-129v673h-86q-77 -133 -152 -214q-37 34 -112 76q76 72 144 185.5t111 235.5l128 -32q-16 -43 -57 -132h612v-119z" />
    <glyph glyph-name="uni4E4E" unicode="&#x4e4e;" 
d="M976 392v-126h-387v-204q0 -56 -15.5 -85t-52.5 -43q-58 -22 -228 -22q-15 68 -52 127q75 -4 183 -4q19 1 26 6.5t7 21.5v203h-408v126h408v295q-160 -12 -320 -15q-3 50 -29 110q464 16 730 79l59 -111q-124 -30 -308 -50v-308h387zM147 616l105 38q71 -118 91 -204
l-112 -43q-16 81 -84 209zM783 411l-101 36q60 108 94 230l132 -42q-87 -169 -125 -224z" />
    <glyph glyph-name="uni4E4F" unicode="&#x4e4f;" 
d="M817 549l91 -60q-79 -114 -202.5 -225t-259.5 -195q89 -28 250 -28q162 -3 301 3q-28 -46 -41 -117h-267q-168 0 -274 31t-177 117q-49 -87 -98 -153l-106 72q47 48 93.5 123.5t76.5 145.5l113 -39l-21 -43q16 -27 36 -47q101 56 199 134.5t168 158.5h-575v116h323v149
q-159 -13 -328 -16q-6 50 -30 108q475 13 740 77l94 -101q-149 -36 -352 -57v-160h224z" />
    <glyph glyph-name="uni4E55" unicode="&#x4e55;" 
d="M254 474h281v64h-280v-4q0 -40 -1 -60zM535 640v70q-135 -12 -280 -18v-52h280zM974 372h-320v-67h284v-221q0 -41 -10.5 -63t-37.5 -34q-39 -18 -160 -18q-7 45 -33 103q74 -3 104 -1q18 0 18 14v118h-165v-293h-119v293h-151v-237h-117v339h268v67h-285
q-21 -291 -122 -452q-14 19 -45 43t-53 33q105 174 105 539v272l85 -16q404 20 607 66l93 -92q-124 -27 -266 -43v-82h319v-102h-319v-64h320v-102z" />
    <glyph glyph-name="uni4E56" unicode="&#x4e56;" 
d="M258 400v114h112v-538h-112v111q-29 -13 -85.5 -36t-80.5 -34l-51 111q56 15 217 68v98h-188v106h188zM969 546h-401v-635h-121v635h-391v109h391v71q-143 -8 -305 -10q-3 44 -26 98q438 9 698 51l77 -98q-150 -22 -323 -34v-78h401v-109zM786 90h70q16 0 21.5 17.5
t8.5 82.5q35 -27 100 -44q-8 -94 -33.5 -128.5t-85.5 -34.5h-100q-73 0 -97.5 30.5t-24.5 114.5v384h114v-157q82 43 129 82l82 -88q-80 -48 -211 -98v-122q0 -26 4.5 -32.5t22.5 -6.5z" />
    <glyph glyph-name="uni4E57" unicode="&#x4e57;" 
d="M347 369v-74h100v74h-100zM347 546v-72h100v72h-100zM673 546h-104v-72h104v72zM673 295v74h-104v-74h104zM932 191h-279q134 -109 337 -160q-53 -48 -89 -112q-187 63 -332 197v-203h-122v203q-141 -131 -328 -196q-32 55 -83 104q200 55 333 167h-270v104h129v74h-171
v105h171v72h-112v103h331v56q-167 -11 -310 -14q-3 51 -27 104q460 13 708 67l79 -99q-153 -32 -328 -48v-66h343v-103h-119v-72h175v-105h-175v-74h139v-104z" />
    <glyph glyph-name="uni4E58" unicode="&#x4e58;" 
d="M861 184h-94q-46 0 -71 11q131 -110 298 -154q-47 -42 -79 -102q-197 67 -338 228v-255h-130v254q-139 -155 -341 -225q-36 62 -79 102q168 47 296 151h-62v36l-87 -13.5t-89 -14.5l-20 100q29 3 97 11t99 11v56h-164v95h164v54h114v-290q41 41 72 89v225h-381v110h381
v55q-147 -7 -293 -9q-3 40 -27 102q436 11 700 56l54 -104q-143 -24 -304 -36v-64h380v-110h-380v-227q38 -57 86 -102q-15 26 -15 90v218h111v-80q61 24 110 50l70 -87q-84 -35 -180 -60v-40q0 -20 4.5 -25t21.5 -5h64q15 0 20.5 11t7.5 49q37 -28 97 -39
q-10 -70 -34.5 -96t-78.5 -26z" />
    <glyph glyph-name="uni4E59" unicode="&#x4e59;" 
d="M343 82h412q35 0 53.5 16t29.5 62.5t14 137.5q60 -31 124 -46q-9 -121 -35.5 -185t-73 -88t-129.5 -24h-384q-134 0 -201 48t-67 135q0 31 6 54t31.5 64.5t75 92.5t138.5 130.5t220 185.5h-457v127h639l30 7l86 -65q-7 -8 -21 -15l-339 -266.5t-187 -165.5t-73 -86
t-16 -51q0 -68 124 -68z" />
    <glyph glyph-name="uni4E5D" unicode="&#x4e5d;" 
d="M792 44h69q18 0 24 28.5t9 127.5q46 -36 115 -54q-8 -125 -37.5 -172.5t-99.5 -47.5h-103q-76 0 -104 35t-28 133v401h-185q-10 -100 -30.5 -179.5t-58 -156.5t-100 -139t-149.5 -109q-29 54 -88 98q77 39 132 90.5t88 115t50.5 130t25.5 150.5h-245v122h252q2 75 2 237
h133q0 -136 -4 -237h304v-523q0 -33 4.5 -41.5t23.5 -8.5z" />
    <glyph glyph-name="uni4E5E" unicode="&#x4e5e;" 
d="M958 623h-660q-77 -109 -160 -183q-60 60 -105 89q77 59 146 150t111 188l128 -40q-13 -28 -44 -85h584v-119zM371 57h405q42 0 58.5 26t20.5 110q50 -29 118 -43q-12 -129 -56.5 -172t-152.5 -43h-382q-116 0 -175 40t-59 112q0 23 4 40t22.5 44.5t53 57t98 73.5
t155.5 98h-262v117h487l26 4l89 -64q-12 -12 -23 -18q-229 -120 -348 -193t-144.5 -99t-25.5 -48q0 -42 91 -42z" />
    <glyph glyph-name="uni4E5F" unicode="&#x4e5f;" 
d="M436 41h310q68 0 89.5 29.5t32.5 131.5q56 -34 114 -46q-15 -131 -60 -178t-167 -47h-320q-136 0 -184.5 40.5t-48.5 157.5v269l-144 -45l-31 110l175 55v278h120v-240l157 49v260h121v-221l185 57l14 10l24 16l86 -37l-5 -22q-5 -298 -30 -371q-24 -74 -83 -90
q-55 -14 -129 -10q-4 60 -28 111q29 -3 86 -3q17 0 27.5 9t19.5 35q13 45 16 234l-183 -59v-384h-121v346l-157 -50v-309q0 -56 19.5 -71t94.5 -15z" />
    <glyph glyph-name="uni4E62" unicode="&#x4e62;" 
d="M379 205v459h102v-639h-102v69h-214v-96h-103v666h103v-459h52v648h110v-648h52zM709 51h124q29 0 38.5 31.5t14.5 134.5q50 -36 109 -50q-10 -129 -41 -178.5t-111 -49.5h-152q-88 0 -118.5 36.5t-30.5 141.5v738h120v-739q0 -43 8 -54t39 -11z" />
    <glyph glyph-name="uni4E71" unicode="&#x4e71;" 
d="M427 74v160h-234v-160h234zM369 724v-139h206v-109h-206v-135h177v-397h-119v22h-234v-33h-114v408h171v135h-217v109h217v121q-98 -14 -169 -19q-8 41 -35 96q278 29 428 81l88 -95q-73 -23 -193 -45zM761 34h82q22 0 29 36t11 151q59 -40 110 -51q-9 -140 -38 -195
t-102 -55h-112q-78 0 -106.5 37.5t-28.5 139.5v753h121v-754q0 -40 6 -51t28 -11z" />
    <glyph glyph-name="uni4E73" unicode="&#x4e73;" 
d="M475 864l73 -100q-188 -48 -483 -61q-5 46 -30 100q280 18 440 61zM341 565l-102 -16q-2 60 -24 146l97 14q26 -77 29 -144zM183 552l-96 -28q-8 59 -44 145l92 24q32 -63 48 -141zM453 725l110 -42q-76 -132 -99 -164l64 -56q-95 -95 -169 -154v-18l192 14v-110
q-174 -17 -192 -18v-146q0 -43 -10.5 -67t-38.5 -37q-41 -18 -156 -18q-7 48 -39 110q43 -1 105 -1q19 1 19 16v134q-90 -8 -195 -15l-12 115q139 10 207 14v74h32q24 21 57 58h-251v107h337l-53 22q59 89 92 182zM752 34h88q23 0 30.5 37.5t12.5 161.5q55 -42 113 -56
q-9 -146 -38.5 -203t-106.5 -57h-120q-83 0 -112.5 38.5t-29.5 143.5v747h127v-748q0 -41 6.5 -52.5t29.5 -11.5z" />
    <glyph glyph-name="uni4E7E" unicode="&#x4e7e;" 
d="M381 468v52h-201v-52h201zM381 333v53h-201v-53h201zM706 40h147q23 0 31.5 24t10.5 111q48 -26 103 -38q-5 -89 -22.5 -135.5t-46 -63t-79.5 -16.5h-145q-171 0 -171 127q0 31 8.5 59t53 99t131.5 183h-160v82l-7 -8q-27 28 -66 60v-278h-156v-60h176v-108h-176v-167
h-118v167h-182v108h182v60h-147v362h147v58h-170v106h170v95h118v-95h169v-106h-169v-58h156v-26q80 104 121 284l121 -23q-13 -54 -37 -123h284v-113h-331q-29 -62 -64 -108h246l26 2l79 -32q-8 -18 -12 -23q-120 -140 -181.5 -221.5t-75 -108.5t-13.5 -48q0 -28 49 -28z
" />
    <glyph glyph-name="uni4E80" unicode="&#x4e80;" 
d="M635 1h183q27 0 40.5 10t20.5 36h-313q1 -28 15 -37t54 -9zM240 167v-43h205v43h-205zM445 282h-205v-45h205v45zM786 167h-221v-43h221v43zM786 282h-221v-45h221v45zM282 461h163v44h-163v-44zM531 725h-196l-43 -42h210q14 16 29 42zM445 570v43h-163v-43h163z
M732 570v43h-167v-43h167zM732 461v44h-167v-44h167zM905 358v-256q42 -21 85 -31q-9 -91 -42 -123.5t-120 -32.5h-206q-98 0 -136 28.5t-41 103.5h-205v-54h-117v365h322v34h-278v198q-11 -7 -35 -21q-15 22 -41 48t-46 38q90 42 155 99t102 117l129 -24l-24 -36h186l16 4
l79 -50q-11 -20 -55 -82h220v-291h-288v-34h340z" />
    <glyph glyph-name="uni4E82" unicode="&#x4e82;" 
d="M488 635l56 -43q-40 77 -93 147l71 36q-125 -28 -319 -45q-16 -45 -42 -100h131q-4 36 -23 89l95 22q25 -53 28 -94l-70 -17h145zM496 226v116h-138q-18 -42 -33 -71l63 2q-18 26 -20 28l59 27q46 -53 69 -102zM646 606l-88 -47q-7 19 -11 25q-66 -63 -138 -105l50 -25
l-18 -20h160v-411q0 -70 -40 -93q-38 -20 -126 -20q-5 23 -18 55l-1 -1q-28 18 -58 31q-46 -43 -99 -69q-22 31 -46 50q31 15 75 49q-35 13 -57 19l34 56q45 -11 76 -22q20 27 27 38h-131v58h165l14 3l47 -20q-20 -60 -54 -106l43 -22l-11 -19h38q17 0 17 16v192l-60 -30
q-1 2 -5 11.5l-6 14.5q-38 -3 -108 -7.5t-101 -7.5l-7 67l37 1q10 25 24 75h-77v-431h-106v523h220q-65 27 -117 40l55 61q21 -4 77 -23q30 19 57 40h-223v69q-22 -44 -46 -74q-37 34 -82 59q67 82 99 219l55 -12q209 24 313 54l77 -80l-36 -9q79 -95 110 -172zM797 28h63
q18 0 24.5 36.5t8.5 149.5q48 -37 106 -52q-8 -138 -34 -191.5t-94 -53.5h-95q-73 0 -98.5 35.5t-25.5 134.5v755h117v-756q0 -38 4.5 -48t23.5 -10z" />
    <glyph glyph-name="uni4E85" unicode="&#x4e85;" 
d="M456 836h132v-750q0 -61 -15 -91.5t-53 -44.5q-61 -24 -239 -24q-9 57 -50 135q116 -6 191 -3q18 0 26 6.5t8 22.5v749z" />
    <glyph glyph-name="uni4E86" unicode="&#x4e86;" 
d="M834 804l95 -71q-71 -88 -164 -174t-182 -142v-364q0 -53 -15.5 -81t-52.5 -41q-57 -20 -222 -20q-9 50 -48 125q108 -6 179 -3q17 0 23.5 4.5t6.5 17.5v464h68q92 65 177 157h-594v120h699z" />
    <glyph glyph-name="uni4E88" unicode="&#x4e88;" 
d="M887 486l99 -43q-78 -163 -164 -267l-104 61q40 55 80 125h-216v-318q0 -50 -14 -75t-50 -38q-50 -18 -202 -18q-10 56 -44 117q60 -2 157 -2q15 1 20.5 5t5.5 15v314h-405v116h466q-98 41 -224 89l60 92q135 -47 161 -57q74 47 130 96h-495v112h613l27 7l88 -68
q-108 -108 -237 -195q57 -22 88 -36l-25 -40h162z" />
    <glyph glyph-name="uni4E89" unicode="&#x4e89;" 
d="M756 241v75h-188v-75h188zM568 499v-72h188v72h-188zM555 679h-221q-29 -34 -72 -74h230q33 33 63 74zM989 427v-111h-110v-230h-123v44h-188v-87q0 -50 -12.5 -75.5t-45.5 -37.5q-49 -20 -194 -20q-8 48 -44 117q60 -3 147 -3q14 1 19.5 5.5t5.5 15.5v85h-291v111h291
v75h-407v111h407v72h-253v47q-29 -22 -59 -42q-14 20 -40.5 45.5t-48.5 39.5q96 56 168 129t113 149l131 -24q-23 -38 -39 -60h221l20 5l87 -60q-41 -58 -103 -123h238v-178h110z" />
    <glyph glyph-name="uni4E8A" unicode="&#x4e8a;" 
d="M761 190v64h-192v-64h192zM569 414v-61h192v61h-192zM293 512h153v163h-145q52 -79 65 -136zM709 675h-140v-163h158l-77 26q42 87 59 137zM983 353v-99h-100v-208h-122v46h-192v-53q0 -49 -12.5 -73t-44.5 -36q-48 -19 -197 -19q-8 38 -42 102q83 -4 146 -1q27 0 27 27
v53h-302v98h302v64h-401v99h401v61h-294v98h102q-15 60 -58 133l87 30h-214v105h377v89h123v-89h387v-105h-217l97 -25l-90 -138h137v-159h100z" />
    <glyph glyph-name="uni4E8B" unicode="&#x4e8b;" 
d="M755 147v49h-185v-49h185zM570 333v-44h185v44h-185zM286 537h160v49h-160v-49zM736 586h-166v-49h166v49zM985 289v-93h-106v-179h-124v42h-185v-31q0 -45 -12 -67.5t-42 -35.5q-44 -17 -181 -17q-9 42 -40 96q49 -2 126 -2q25 1 25 26v31h-311v88h311v49h-405v93h405
v44h-303v82h303v45h-277v203h277v42h-381v96h381v66h124v-66h392v-96h-392v-42h291v-203h-291v-45h309v-126h106z" />
    <glyph glyph-name="uni4E8C" unicode="&#x4e8c;" 
d="M142 727h740v-134h-740v134zM57 136h910v-140h-910v140z" />
    <glyph glyph-name="uni4E8E" unicode="&#x4e8e;" 
d="M971 471v-121h-384v-281q0 -57 -14.5 -86t-51.5 -43q-58 -24 -224 -24q-11 56 -51 129q111 -6 180 -3q32 1 32 28v280h-405v121h405v210h-335v121h778v-121h-314v-210h384z" />
    <glyph glyph-name="uni4E91" unicode="&#x4e91;" 
d="M867 802v-126h-700v126h700zM980 -22l-126 -68q-14 36 -41 83q-350 -20 -729 -36l-8 129q18 0 68.5 1.5t80.5 2.5q63 129 113 289h-286v127h922v-127h-477q-62 -154 -130 -284q119 4 375 14q-63 91 -111 148l118 57q69 -76 133 -169.5t98 -166.5z" />
    <glyph glyph-name="uni4E92" unicode="&#x4e92;" 
d="M348 310h294q13 103 20 165h-278q-12 -60 -36 -165zM738 67h241v-114h-930v114h556q17 99 22 134h-304l-13 -48l-134 9q73 249 121 537h-216v114h870v-114h-521q-5 -28 -23 -115h396q-31 -309 -65 -517z" />
    <glyph glyph-name="uni4E94" unicode="&#x4e94;" 
d="M684 356h-214q-21 -110 -58 -276h272v276zM811 80h160v-121h-914v121h218q37 150 61 276h-185v120h207q21 114 31 178h-272v120h787v-120h-379l-32 -178h318v-396z" />
    <glyph glyph-name="uni4E95" unicode="&#x4e95;" 
d="M400 354h230v196h-227v-76q0 -60 -3 -120zM973 354v-124h-213v-320h-130v320h-246q-44 -213 -209 -328q-19 22 -51.5 49t-57.5 40q139 92 181 239h-194v124h217q4 53 4 121v75h-191v123h191v190h129v-190h227v192h130v-192h186v-123h-186v-196h213z" />
    <glyph glyph-name="uni4E98" unicode="&#x4e98;" 
d="M85 811h865v-113h-865v113zM54 57h920v-111h-920v111zM328 332v-92h374v92h-374zM328 521v-90h374v90h-374zM207 629h622v-497h-622v497z" />
    <glyph glyph-name="uni4E99" unicode="&#x4e99;" 
d="M752 66h224v-112h-927v112h575q33 206 55 438h-292q-51 -244 -83 -361l-136 8q68 230 126 547h-217v113h873v-113h-524l-17 -89h407q-25 -278 -64 -543zM608 187l-78 -94q-52 53 -179 125l72 85q124 -61 185 -116zM639 380l-73 -91q-48 48 -168 108l68 82
q112 -49 173 -99z" />
    <glyph glyph-name="uni4E9B" unicode="&#x4e9b;" 
d="M838 328h-138q-88 0 -118 33t-30 125v380h122v-178q110 39 185 80l91 -96q-109 -47 -276 -94v-92q0 -29 7.5 -37t35.5 -8h109q25 0 33 22.5t12 99.5q43 -31 110 -47q-10 -108 -40.5 -148t-102.5 -40zM168 150v116h696v-116h-696zM519 463l3 -111q-100 -13 -474 -57
l-12 121l56 5v342h113v-332l58 6v429h121v-153h127v-109h-127v-155zM50 -69v122h924v-122h-924z" />
    <glyph glyph-name="uni4E9C" unicode="&#x4e9c;" 
d="M450 202v-145h107v145h-107zM229 309h103v176h-103v-176zM450 702v-110h107v110h-107zM557 309v176h-107v-176h107zM783 485h-108v-176h108v176zM675 57h308v-109h-941v109h290v145h-103v-27h-116v417h219v110h-263v111h888v-111h-282v-110h230v-416h-122v26h-108v-145z
" />
    <glyph glyph-name="uni4E9E" unicode="&#x4e9e;" 
d="M237 315h218v-252h107v252h221v163h-221v224h-106v-224h-219v-163zM678 63h298v-110h-927v110h289v148h-101v-35h-119v406h220v120h-272v111h895v-111h-283v-120h228v-400h-123v29h-105v-148z" />
    <glyph glyph-name="uni4E9F" unicode="&#x4e9f;" 
d="M291 309v173h-85v-173h85zM870 611l71 -18q-25 -181 -95 -306q66 -67 147 -101q-50 -44 -79 -97q-74 38 -137 104q-53 -58 -125 -100q-25 48 -61 84q-8 -57 -24 -79q-23 -35 -65 -43h476v-108h-931v108h318q-5 54 -32 99q42 -4 100 -4q24 0 33 14q23 30 30 368h-62
q-1 -4 -3.5 -15.5t-4.5 -17.5l-30 1v-289h-190v-68h-104v438h228q13 63 23 122h-279v109h884v-109h-491l-6 -33t-6 -34h155q0 -35 -1 -48q-6 -317 -18 -404q66 34 119 99q-51 79 -87 188l93 25q22 -64 55 -115q30 65 45 128h-178v99h214z" />
    <glyph glyph-name="uni4EA0" unicode="&#x4ea0;" 
d="M575 481h402v-126h-927v126h393v208h132v-208z" />
    <glyph glyph-name="uni4EA1" unicode="&#x4ea1;" 
d="M978 551h-692v-395q0 -52 21.5 -72.5t81.5 -20.5h366q96 0 174 13q4 -64 15 -123q-44 -9 -193 -9h-348q-133 0 -188.5 46.5t-55.5 170.5v390h-112v123h398v192h125v-192h408v-123z" />
    <glyph glyph-name="uni4EA2" unicode="&#x4ea2;" 
d="M969 730v-120h-912v120h387v137h128v-137h397zM785 42h66q19 0 25.5 31t9.5 138q39 -33 112 -53q-8 -135 -36 -184t-98 -49h-99q-76 0 -105 34.5t-29 128.5v312h-250v-81q0 -299 -272 -410q-10 20 -35.5 52t-44.5 49q59 23 102 53.5t66.5 59.5t37 66t17 67t3.5 68v192
h503v-428q0 -30 4.5 -38t22.5 -8z" />
    <glyph glyph-name="uni4EA4" unicode="&#x4ea4;" 
d="M609 560l98 71h-647v119h387v118h125v-118h393v-119h-252q187 -126 265 -215l-109 -84q-65 84 -260 228zM305 623l126 -50q-52 -68 -130 -135.5t-153 -114.5q-51 55 -102 94q74 37 145 92.5t114 113.5zM633 447l131 -37q-60 -142 -157 -240q147 -105 385 -143
q-20 -21 -43.5 -55.5t-35.5 -60.5q-249 47 -403 173q-159 -116 -399 -175q-22 51 -77 115q243 47 386 147q-82 97 -141 236l116 34q44 -109 118 -189q79 84 120 195z" />
    <glyph glyph-name="uni4EA5" unicode="&#x4ea5;" 
d="M797 431l115 -65q-84 -116 -198 -201q164 -93 254 -162l-121 -91q-80 69 -252 175q-195 -112 -480 -176q-23 58 -72 118q550 106 754 402zM571 755h398v-115h-438l28 -12q-99 -100 -191 -173q20 -13 77 -57q148 88 227 200l111 -58q-209 -275 -652 -403q-28 60 -75 110
q145 35 260 86q-88 72 -207 143l93 81q8 -4 71 -42q66 60 122 125h-340v115h389v112h127v-112z" />
    <glyph glyph-name="uni4EA6" unicode="&#x4ea6;" 
d="M179 498l128 -28q-61 -211 -177 -337q-46 40 -111 74q112 103 160 291zM966 587h-261v-533q0 -52 -12.5 -79.5t-43.5 -41.5q-49 -22 -187 -22q-6 52 -39 127q52 -3 131 -3q23 1 23 20v532h-99v-103q0 -79 -8.5 -145t-33 -148t-79.5 -157t-137 -134q-14 22 -42 49.5
t-51 42.5q73 50 122 114t70.5 134t28.5 125t7 121v101h-297v121h394v159h126v-159h388v-121zM726 457l112 48q121 -189 159 -334l-123 -56q-13 66 -55 161.5t-93 180.5z" />
    <glyph glyph-name="uni4EA8" unicode="&#x4ea8;" 
d="M834 365l84 -74q-157 -101 -339 -166v-94q0 -47 -15.5 -71.5t-54.5 -35.5q-55 -16 -222 -14q-9 44 -43 109q122 -6 178 -3q29 1 29 20v178h95q44 17 98 43h-548v102h710zM703 489v65h-380v-65h380zM833 634v-224h-633v224h633zM571 782h397v-104h-912v104h388v85h127v-85
z" />
    <glyph glyph-name="uni4EAB" unicode="&#x4eab;" 
d="M956 792v-103h-889v103h377v75h127v-75h385zM306 560v-58h412v58h-412zM847 418h-663v225h663v-225zM972 200v-104h-398v-74q0 -45 -14.5 -67.5t-51.5 -32.5q-47 -13 -204 -13q-11 44 -42 100q59 -3 157 -3q15 1 20.5 5.5t5.5 15.5v69h-393v104h393v43h58q42 13 100 39
h-450v95h615l28 5l75 -67q-110 -66 -242 -115h343z" />
    <glyph glyph-name="uni4EAC" unicode="&#x4eac;" 
d="M963 769v-116h-903v116h384v98h129v-98h390zM205 215l125 -40q-89 -143 -199 -227q-48 41 -99 70q51 36 99 91.5t74 105.5zM299 477v-118h426v118h-426zM854 255h-281v-216q0 -48 -11.5 -73t-44.5 -37q-48 -18 -187 -18q-9 53 -39 117q102 -4 133 -2q14 1 18 4t4 13v212
h-269v327h677v-327zM685 162l112 53q127 -127 185 -216l-120 -60q-56 95 -177 223z" />
    <glyph glyph-name="uni4EAD" unicode="&#x4ead;" 
d="M211 151v98h601v-98h-226v-117q0 -48 -15.5 -72.5t-54.5 -36.5q-52 -14 -216 -14q-8 45 -42 111q115 -6 168 -3q28 1 28 20v112h-243zM58 176v215h906v-215h-114v123h-683v-123h-109zM703 509v60h-387v-60h387zM195 649h639v-220h-639v220zM571 790h398v-101h-912v101
h387v78h127v-78z" />
    <glyph glyph-name="uni4EAE" unicode="&#x4eae;" 
d="M969 790v-101h-912v101h387v78h127v-78h398zM963 174h-113v118h-683v-118h-109v210h905v-210zM703 507v61h-387v-61h387zM195 648h639v-222h-639v222zM309 265h127q-4 -65 -13 -108.5t-30.5 -86.5t-58 -71t-96 -52t-143.5 -39q-18 57 -62 105q72 11 121 27t78 34.5
t45.5 50t22.5 61t9 79.5zM731 24h95q23 0 30.5 19t10.5 86q41 -30 113 -47q-9 -97 -38.5 -132t-101.5 -35h-130q-91 0 -121.5 30t-30.5 112v205h132v-204q0 -23 7 -28.5t34 -5.5z" />
    <glyph glyph-name="uni4EB0" unicode="&#x4eb0;" 
d="M222 202l124 -40q-88 -130 -209 -217q-42 36 -100 71q53 34 105 86.5t80 99.5zM299 376v-55h427v55h-427zM299 514v-54h427v54h-427zM852 230h-279v-189q0 -48 -11.5 -73.5t-43.5 -38.5q-44 -18 -184 -18q-7 50 -39 120q51 -2 130 -2q13 0 17 3t4 13v185h-267v373h673
v-373zM656 146l110 58q146 -132 198 -197l-118 -66q-58 79 -190 205zM573 772h404v-116h-926v116h393v95h129v-95z" />
    <glyph glyph-name="uni4EB3" unicode="&#x4eb3;" 
d="M969 793v-99h-912v99h387v74h127v-74h398zM312 586v-58h401v58h-401zM843 459h-653v197h653v-197zM853 236v96h-684v-102h-109v190h906v-184h-113zM601 11h199q36 0 47.5 12t15.5 52q43 -24 109 -36q-10 -74 -43.5 -100t-116.5 -26h-222q-113 0 -153 28.5t-40 106.5v20
l-327 -19l-9 93l336 19v42q-86 -7 -176 -12q-4 41 -24 76q334 20 520 65l68 -74q-120 -27 -261 -42v-49l419 22l9 -90l-428 -24v-25q0 -26 13.5 -32.5t63.5 -6.5z" />
    <glyph glyph-name="uni4EB6" unicode="&#x4eb6;" 
d="M973 796v-93h-920v93h394v73h126v-73h400zM625 493v35h-215v-35h215zM716 572v-123h-394v123h394zM773 414v192h-506v-192h506zM890 669v-318h-732v318h732zM319 167v-40h400v40h-400zM319 263v-39h400v39h-400zM840 68h-635v255h635v-255zM50 36h927v-94h-927v94z" />
    <glyph glyph-name="uni4EBA" unicode="&#x4eba;" 
d="M427 844h139l-3 -59q2 -38 6.5 -77.5t18 -103t32.5 -122t53.5 -127.5t78 -127t109 -112.5t144.5 -91.5q-63 -48 -95 -104q-291 145 -403 514q-103 -346 -379 -514q-33 48 -102 97q60 33 110.5 75t87.5 84t67.5 94.5t50.5 95.5t35.5 99.5t23.5 93.5t13.5 90.5t7 77.5
t3.5 68t2 49z" />
    <glyph glyph-name="uni4EC0" unicode="&#x4ec0;" 
d="M263 864l116 -37q-50 -124 -89 -195v-719h-120v528q-45 -58 -77 -92q-23 63 -65 126q71 71 134 175t101 214zM982 529v-119h-252v-499h-127v499h-263v119h263v323h127v-323h252z" />
    <glyph glyph-name="uni4EC1" unicode="&#x4ec1;" 
d="M949 705v-131h-537v131h537zM273 863l122 -39q-44 -111 -100 -208v-703h-123v520q-40 -53 -81 -93q-26 62 -72 129q76 70 144 175.5t110 218.5zM355 102h634v-130h-634v130z" />
    <glyph glyph-name="uni4EC2" unicode="&#x4ec2;" 
d="M255 864l116 -37q-45 -115 -95 -207v-707h-122v514q-12 -17 -61 -73q-32 79 -66 126q69 70 130 172.5t98 211.5zM658 634h299q-1 -41 -1 -56q-11 -313 -23.5 -439t-39.5 -161q-33 -45 -91 -54q-38 -7 -142 -3q-4 67 -38 121q52 -5 121 -5q26 0 39 17q35 40 47 461h-177
q-15 -211 -74 -359.5t-192 -245.5q-31 53 -89 93q118 82 169 206.5t63 305.5h-179v119h185q2 73 2 229h125q0 -81 -4 -229z" />
    <glyph glyph-name="uni4EC4" unicode="&#x4ec4;" 
d="M240 699v-195q0 -402 -107 -592q-52 41 -108 61q93 163 93 531v313h851v-118h-729zM503 665h128q-1 -15 -2 -43t-1 -43q30 -227 111.5 -365.5t247.5 -195.5q-45 -44 -78 -107q-125 50 -202.5 137t-122.5 219q-36 -120 -112 -208t-208 -146q-23 52 -79 99q64 26 113 61
t81.5 71.5t55.5 86t35 93.5t19 105t9.5 110t4.5 118v8z" />
    <glyph glyph-name="uni4EC6" unicode="&#x4ec6;" 
d="M305 865l125 -40q-40 -99 -93 -191v-721h-123v532q-59 -77 -118 -135q-37 72 -81 123q86 76 163.5 191.5t126.5 240.5zM1010 347l-77 -107q-84 64 -256 163v-491h-126v945h126v-314q140 -71 333 -196z" />
    <glyph glyph-name="uni4EC7" unicode="&#x4ec7;" 
d="M249 864l115 -36q-41 -108 -96 -212v-704h-121v515q-14 -20 -59 -72q-30 73 -66 125q68 70 129 172.5t98 211.5zM849 39h23q12 0 17 4q7 6 10 33q3 57 3 122q48 -38 96 -53q-2 -96 -14 -145q-9 -37 -39 -57q-26 -17 -66 -17h-66q-48 0 -78 28q-16 16 -22.5 42t-6.5 85
v442h-117q-12 -218 -62 -368.5t-165 -248.5q-14 24 -40.5 52t-48.5 41q101 84 143 211t51 313h-145v119h149q1 70 1 222h123q0 -151 -2 -222h236v-558q0 -35 5 -40q4 -5 15 -5z" />
    <glyph glyph-name="uni4ECA" unicode="&#x4eca;" 
d="M740 346l22 5l97 -28q-67 -167 -187 -415l-129 36q75 146 136 286h-525v116h586zM328 556h366q-118 104 -186 199q-71 -102 -180 -199zM441 873h122q82 -118 199.5 -218.5t237.5 -156.5q-33 -33 -79 -107q-101 59 -194 137v-85h-434v82q-85 -73 -190 -136q-25 47 -76 97
q125 68 239 177.5t175 209.5z" />
    <glyph glyph-name="uni4ECB" unicode="&#x4ecb;" 
d="M508 745q-60 -98 -170 -196t-237 -165q-29 59 -74 100q129 62 241 170t169 215h130q77 -127 192 -223.5t242 -146.5q-30 -31 -79 -112q-124 63 -238.5 161.5t-175.5 196.5zM622 495h127v-583h-127v583zM269 489h126v-127q0 -64 -7 -115.5t-28 -114.5t-68 -119.5
t-118 -101.5q-15 20 -45.5 46t-55.5 41q64 38 105.5 84t60 97.5t24.5 92.5t6 94v123z" />
    <glyph glyph-name="uni4ECD" unicode="&#x4ecd;" 
d="M262 865l113 -37q-44 -107 -95 -197v-718h-116v542q-42 -54 -85 -97q-26 69 -64 124q73 69 139.5 172t107.5 211zM805 524h176q-1 -36 -2 -51q-10 -250 -24 -360.5t-42 -143.5q-19 -23 -38 -33t-50 -15q-46 -5 -144 -2q-4 68 -38 118q53 -4 126 -4q28 0 41 14
q34 35 49 368h-66q-1 -12 -4 -33l-4 -28l-116 8q21 150 33 325h-123q-2 -100 -7 -174t-18 -167t-33.5 -164.5t-57 -145t-85.5 -129.5q-15 23 -41.5 48t-51.5 39q45 48 76.5 113t48.5 127t27 148.5t12.5 148t3.5 156.5h-88v111h462q-10 -136 -22 -274z" />
    <glyph glyph-name="uni4ECE" unicode="&#x4ece;" 
d="M516 243l-89 -114q-37 74 -108 167q-56 -252 -168 -386q-17 16 -56.5 43.5t-65.5 41.5q112 116 158 321t55 513l135 -4q-7 -187 -29 -361q109 -116 168 -221zM623 825h132q-2 -96 -10 -200q58 -446 252 -588q-22 -20 -51 -57.5t-46 -66.5q-138 120 -210 378
q-66 -238 -206 -373q-40 52 -112 97q57 50 100 112t69.5 143.5t42.5 136t24.5 153t10 126t3.5 118.5q1 14 1 21z" />
    <glyph glyph-name="uni4ECF" unicode="&#x4ecf;" 
d="M273 862l121 -39q-43 -109 -101 -209v-701h-121v523q-47 -58 -87 -97q-30 74 -71 128q78 72 147.5 177t111.5 218zM1008 -38l-127 -52q-5 34 -24 107q-265 -29 -517 -54l-26 126l92 7q50 159 94.5 362.5t67.5 377.5l141 -22q-69 -373 -178 -708l291 26q-46 140 -99 258
l114 43q133 -280 171 -471z" />
    <glyph glyph-name="uni4ED4" unicode="&#x4ed4;" 
d="M273 862l121 -39q-42 -105 -101 -208v-702h-121v523q-47 -58 -87 -97q-30 74 -71 128q78 73 147.5 178t111.5 217zM997 433v-118h-265v-263q0 -53 -13 -80t-47 -40q-48 -22 -205 -22q-8 55 -41 124q43 -2 157 -2q14 0 20 4.5t6 16.5v262h-275v118h275v140h56
q55 46 110 110h-367v114h460l24 6l82 -58q-100 -142 -242 -256v-56h265z" />
    <glyph glyph-name="uni4ED5" unicode="&#x4ed5;" 
d="M280 865l118 -38q-43 -106 -105 -214v-701h-121v525q-35 -44 -82 -91q-9 23 -31.5 63t-39.5 62q79 72 149 177t112 217zM991 439h-259v-372h242v-117h-613v117h246v372h-271v119h271v289h125v-289h259v-119z" />
    <glyph glyph-name="uni4ED6" unicode="&#x4ed6;" 
d="M250 864l112 -37q-41 -104 -95 -205v-709h-121v521q-37 -49 -64 -77q-25 63 -66 123q70 70 133 173t101 211zM598 36h208q44 0 58.5 26t21.5 114q51 -33 110 -47q-12 -117 -49 -160t-132 -43h-226q-109 0 -148.5 37.5t-39.5 142.5v280l-76 -30l-47 108l123 48v242h121
v-194l100 38v265h113v-220l104 39l15 12l23 16l82 -32l-4 -19q-2 -291 -9 -346q-7 -71 -57 -92q-37 -16 -116 -14q-4 66 -27 111q46 -2 63 -2q21 0 26 24q6 25 7 220l-107 -42v-364h-113v319l-100 -39v-328q0 -46 13 -58t63 -12z" />
    <glyph glyph-name="uni4ED7" unicode="&#x4ed7;" 
d="M273 861l119 -39q-41 -100 -99 -202v-708h-121v526q-40 -51 -87 -98q-30 70 -71 127q78 71 147.5 176t111.5 218zM986 542h-191q-4 -234 -95 -385q112 -100 297 -140q-44 -41 -76 -109q-184 48 -297 150q-84 -87 -220 -150q-29 52 -83 100q136 60 215 147
q-89 125 -142 326l111 23q39 -153 105 -247q58 112 62 285h-326v116h326v198h123v-198h191v-116z" />
    <glyph glyph-name="uni4ED8" unicode="&#x4ed8;" 
d="M273 862l121 -39q-48 -117 -97 -207v-703h-125v513q-34 -42 -72 -82q-32 74 -71 127q73 70 138.5 174.5t105.5 216.5zM989 647v-123h-112v-465q0 -58 -15.5 -86.5t-52.5 -42.5q-57 -22 -240 -20q-12 58 -47 121q54 -2 117 -2.5t76 0.5q20 0 27.5 6.5t7.5 23.5v465h-391
v123h391v209h127v-209h112zM654 214l-116 -59q-31 73 -132 245l108 51q114 -186 140 -237z" />
    <glyph glyph-name="uni4ED9" unicode="&#x4ed9;" 
d="M262 865l113 -37q-44 -107 -95 -197v-717h-116v541q-42 -54 -85 -97q-26 69 -64 124q73 69 139.5 172t107.5 211zM831 601h118v-656h-118v73h-357v-75h-114v658h114v-469h116v702h120v-702h121v469z" />
    <glyph glyph-name="uni4EDD" unicode="&#x4edd;" 
d="M577 287v-220h334v-125h-802v125h333v220h-225v123q-55 -42 -104 -72q-26 52 -83 107q125 70 235.5 187.5t166.5 226.5h135q77 -129 190.5 -236t234.5 -165q-34 -35 -86 -118q-117 70 -227.5 177t-172.5 206q-100 -167 -287 -311h579v-125h-221z" />
    <glyph glyph-name="uni4EDE" unicode="&#x4ede;" 
d="M262 864l112 -40q-46 -103 -94 -185v-725h-116v547q-52 -71 -83 -105q-19 51 -66 127q69 72 136.5 175t110.5 206zM372 785h603q-1 -45 -1 -60q-9 -395 -21 -544.5t-42 -190.5q-35 -52 -96 -62q-41 -8 -151 -4q-4 71 -40 129q57 -5 133 -5q24 0 40 20q22 26 32.5 158
t17.5 443h-134q-3 -67 -7 -120t-13.5 -119.5t-23.5 -120t-38 -113t-55.5 -107.5t-77 -95t-102.5 -84q-32 52 -88 94q52 31 94 72t70 83t48.5 95t32 98.5t19 106t9.5 105t4 105.5h-213v116zM417 574l104 -34q-50 -199 -106 -282l-106 50q74 109 108 266z" />
    <glyph glyph-name="uni4EDF" unicode="&#x4edf;" 
d="M250 863l115 -37q-45 -114 -99 -212v-702h-120v516l-63 -75q-25 69 -67 127q70 70 133 172.5t101 210.5zM989 463v-120h-263v-433h-124v433h-279v120h279v194q-104 -16 -210 -27q-8 53 -37 104q319 35 506 105l95 -100q-90 -31 -230 -60v-216h263z" />
    <glyph glyph-name="uni4EE3" unicode="&#x4ee3;" 
d="M971 695l-99 -63q-40 74 -140 172l91 56q104 -94 148 -165zM292 859l117 -38q-44 -100 -96 -188v-720h-127v538q-61 -75 -106 -115q-25 65 -68 124q84 72 159.5 178t120.5 221zM986 492l-297 -41q48 -376 165 -390q12 -1 20.5 16.5t14 53t9.5 93.5q27 -31 99 -69
q-33 -248 -138 -242q-125 12 -193.5 143.5t-97.5 377.5l-201 -27l-18 117l207 28q-12 159 -16 300h124q3 -163 13 -284l292 38z" />
    <glyph glyph-name="uni4EE4" unicode="&#x4ee4;" 
d="M870 368v-263q0 -44 -12 -69.5t-43 -39.5q-52 -20 -178 -20q-9 54 -43 118q25 -1 129 -1q22 0 22 16v149h-245v-347h-129v347h-240v110h739zM339 566h344q-107 91 -175 182q-69 -95 -169 -182zM440 867h124q83 -115 200 -211t238 -150q-31 -32 -81 -109q-103 58 -196 134
v-74h-426v75q-88 -74 -196 -136q-34 60 -78 99q125 65 240 170t175 202z" />
    <glyph glyph-name="uni4EE5" unicode="&#x4ee5;" 
d="M633 501l-120 -64q-19 52 -62.5 124t-90.5 130l111 55q49 -55 93.5 -123t68.5 -122zM445 319l28 -119l-402 -173l-41 130q57 19 136 50l-21 598l127 5l19 -554q67 29 154 63zM1001 13l-104 -101q-49 86 -191 247q-114 -161 -312 -249q-32 50 -97 107q121 46 205 115.5
t137 170t82 221t44 285.5l134 -12q-35 -334 -125 -521q171 -177 227 -263z" />
    <glyph glyph-name="uni4EED" unicode="&#x4eed;" 
d="M823 669h-148q-10 -212 -40 -338q68 -63 156 -112q19 158 32 450zM364 782h586q0 -44 -1 -60q-17 -366 -41 -554q59 -21 105 -31q-46 -45 -78 -106q-3 1 -21.5 6t-27.5 9q-11 -46 -30 -70q-37 -49 -95 -58q-51 -8 -148 -3q-4 64 -36 117q55 -5 124 -5q29 0 44 20
q14 14 22 47q-96 48 -170 113q-75 -191 -230 -299q-26 48 -87 89v-83h-116v541q-42 -54 -85 -97q-26 69 -64 124q73 69 139.5 172t107.5 211l113 -37q-44 -107 -95 -197v-632q160 105 222 306q-97 116 -160 282l102 30q36 -93 88 -167q12 92 16 219h-184v113z" />
    <glyph glyph-name="uni4EEE" unicode="&#x4eee;" 
d="M262 865l114 -38q-41 -101 -96 -197v-717h-116v543q-46 -58 -84 -97q-8 23 -29 64t-36 63q73 68 139.5 169.5t107.5 209.5zM821 438h-209q41 -124 113 -218q60 88 96 218zM885 554l74 -28q-44 -240 -153 -395q86 -77 199 -118q-49 -44 -82 -104q-113 48 -197 127
q-79 -79 -183 -128q-13 23 -37.5 53.5t-43.5 44.5q104 43 184 120q-71 96 -122 227q-23 -293 -133 -445q-16 18 -46.5 43t-50.5 34q38 54 63 122t35.5 144.5t14 134.5t3.5 132v298h558v-116h-438v-149h334z" />
    <glyph glyph-name="uni4EF0" unicode="&#x4ef0;" 
d="M249 865l110 -35q-37 -96 -94 -201v-715h-114v537q-32 -44 -77 -92q-8 23 -28 63t-35 60q70 69 134 171.5t104 211.5zM476 666v-455l120 35l18 -110q-122 -39 -276 -84l-46 110l72 18v572l47 -14q91 64 144 128l113 -66q-80 -70 -192 -134zM968 758v-552q0 -84 -41 -108
q-35 -21 -136 -21q-5 55 -30 117q32 -1 76 -1q14 0 14 16v442h-118v-740h-115v847h350z" />
    <glyph glyph-name="uni4EF2" unicode="&#x4ef2;" 
d="M249 864l115 -36q-41 -108 -100 -220v-697h-116v516q-3 -4 -60 -73q-26 70 -66 127q68 70 129 172t98 211zM707 348h135v201h-135v-201zM453 348h132v201h-132v-201zM707 663h256v-481h-121v54h-135v-325h-122v325h-132v-61h-115v488h247v191h122v-191z" />
    <glyph glyph-name="uni4EF6" unicode="&#x4ef6;" 
d="M250 863l116 -37q-43 -113 -101 -218v-696h-115v515q-18 -23 -62 -74q-21 58 -65 127q68 69 129 172t98 211zM986 374v-119h-262v-344h-123v344h-276v119h276v176h-125q-28 -76 -63 -132q-46 32 -106 58q79 114 121 335l118 -25q-7 -37 -30 -117h85v185h123v-185h214
v-119h-214v-176h262z" />
    <glyph glyph-name="uni4EF7" unicode="&#x4ef7;" 
d="M245 864l115 -37q-41 -107 -98 -211v-703h-116v523q-39 -50 -69 -82q-25 68 -65 126q69 69 131.5 172t101.5 212zM452 335v146h117v-147q0 -287 -184 -431q-34 47 -86 82q153 109 153 350zM570 849h117q61 -104 148 -196t174 -140q-40 -47 -72 -112q-52 36 -98 78v-557
h-122v561h118q-125 116 -201 241q-50 -87 -129.5 -176t-167.5 -148q-26 55 -70 103q91 58 175 156.5t128 189.5z" />
    <glyph glyph-name="uni4EFB" unicode="&#x4efb;" 
d="M985 325h-256v-263h246v-116h-606v116h236v263h-277v117h277v228q-105 -17 -213 -30q-6 36 -35 101q-27 -63 -63 -123v-706h-122v524q-49 -61 -83 -94q-9 22 -32 63t-40 65q77 71 145.5 176t110.5 218l121 -38q-11 -29 -36 -82q331 43 513 109l90 -102q-105 -36 -232 -59
v-250h256v-117z" />
    <glyph glyph-name="uni4F01" unicode="&#x4f01;" 
d="M439 871h125q82 -120 200.5 -218.5t242.5 -152.5q-36 -37 -82 -110q-119 66 -235.5 167t-182.5 195q-63 -95 -174 -194t-236 -169q-26 49 -77 98q128 66 243 174t176 210zM582 254v-205h366v-110h-871v110h111v355h120v-355h146v532h128v-220h274v-107h-274z" />
    <glyph glyph-name="uni4F09" unicode="&#x4f09;" 
d="M334 720h266v146h122v-146h264v-117h-652v117zM262 865l113 -37q-44 -107 -95 -197v-717h-116v541q-42 -54 -85 -97q-26 69 -64 124q73 69 139.5 172t107.5 211zM862 28h24q12 0 17 5q6 5 9 32q3 29 3 119q36 -31 94 -50q-2 -89 -14 -142q-9 -36 -38 -55q-25 -16 -66 -16
h-64q-49 0 -76 27q-29 27 -29 120v325h-152v-58q0 -299 -184 -431q-13 19 -41.5 46.5t-47.5 39.5q49 34 82 77.5t48 92t20 89t5 88.5v169h392v-434q0 -35 4 -39q5 -5 14 -5z" />
    <glyph glyph-name="uni4F0A" unicode="&#x4f0a;" 
d="M262 864l113 -36q-41 -102 -95 -198v-717h-116v542q-52 -66 -85 -97q-23 61 -65 124q74 69 140.5 171.5t107.5 210.5zM807 338v120h-144v-37q0 -25 -4 -83h148zM663 689v-119h144v119h-144zM987 570v-112h-62v-282h-118v49h-165q-53 -216 -251 -318q-12 19 -36.5 46.5
t-46.5 45.5q159 70 210 226h-146v113h167q3 44 3 84v36h-223v112h223v119h-161v113h544v-232h62z" />
    <glyph glyph-name="uni4F0D" unicode="&#x4f0d;" 
d="M249 864l111 -36q-43 -112 -79 -178v-739h-119v545q-46 -64 -88 -107q-17 55 -62 126q70 71 133.5 175t103.5 214zM782 359h-155q-24 -164 -49 -298h204v298zM905 61h91v-112h-664v112h122q30 164 50 298h-129v113h145q21 148 27 207h-172v114h571v-114h-274l-29 -207
h262v-411z" />
    <glyph glyph-name="uni4F0E" unicode="&#x4f0e;" 
d="M256 865l112 -36q-44 -109 -88 -188v-729h-118v545q-42 -55 -86 -101q-21 59 -63 123q73 70 138 173t105 213zM795 374h-264q47 -100 132 -179q84 78 132 179zM873 488l81 -38q-60 -192 -197 -329q112 -70 251 -102q-48 -47 -80 -110q-155 43 -271 130
q-118 -83 -276 -130q-10 22 -33.5 54.5t-42.5 50.5q147 37 261 108q-86 91 -147 226l86 26h-153v110h247v127h-259v113h259v138h123v-138h266v-113h-266v-127h131z" />
    <glyph glyph-name="uni4F0F" unicode="&#x4f0f;" 
d="M948 672l-100 -59q-24 61 -107 182l93 52q79 -102 114 -175zM257 867l117 -36q-45 -119 -96 -211v-709h-122v516q-33 -42 -66 -78q-21 59 -66 129q70 71 132.5 175t100.5 214zM973 463h-267q85 -321 286 -444q-22 -18 -49 -49t-42 -57q-161 114 -252 362
q-62 -218 -237 -366q-33 37 -101 81q215 179 249 473h-234v121h241v23v258h124v-259v-22h282v-121z" />
    <glyph glyph-name="uni4F10" unicode="&#x4f10;" 
d="M931 727l-84 -75q-39 44 -158 144l80 66l52 -41.5l66.5 -54t43.5 -39.5zM273 867l118 -37q-42 -107 -95 -202v-715h-124v526q-39 -50 -77 -89q-10 24 -31.5 63.5t-37.5 60.5q74 71 140.5 176t106.5 217zM833 488l117 -42q-76 -148 -209 -273q51 -138 107 -138
q35 0 43 184q46 -46 106 -67q-14 -142 -48.5 -192t-109.5 -50q-119 0 -198 178q-113 -83 -245 -140q-11 21 -36.5 54t-43.5 51q150 54 282 154q-33 118 -52 282l-211 -21l-11 116l211 19q-10 126 -12 253h128q-2 -128 7 -241l301 30l11 -114l-300 -30q11 -90 33 -198
q86 92 130 185z" />
    <glyph glyph-name="uni4F11" unicode="&#x4f11;" 
d="M978 501h-214q45 -111 109.5 -210t135.5 -161q-23 -17 -49.5 -45t-41.5 -52q-118 117 -207 325v-447h-121v427q-92 -193 -218 -310q-30 43 -83 90v-205h-120v520q-49 -59 -84 -92q-9 23 -32 64.5t-39 63.5q78 71 147.5 175.5t111.5 217.5l121 -39q-47 -118 -105 -216
v-477q74 61 141 160t112 211h-212v119h260v231h121v-231h267v-119z" />
    <glyph glyph-name="uni4F1A" unicode="&#x4f1a;" 
d="M324 560h384q-125 93 -197 190q-72 -102 -187 -190zM273 449v74q-74 -53 -173 -102q-26 55 -71 102q126 56 239 152t174 191h127q80 -111 194.5 -195.5t238.5 -128.5q-26 -27 -78 -112q-97 47 -172 99v-80h-479zM92 251v113h847v-113h-459l-94 -181q108 3 308 11
q-52 61 -100 104l107 57q69 -61 134 -134t101 -130l-114 -68q-9 17 -41 63l-667 -31l-17 118l155 6q40 82 78 185h-238z" />
    <glyph glyph-name="uni4F1C" unicode="&#x4f1c;" 
d="M262 865l113 -37q-44 -107 -95 -197v-717h-116v541q-42 -54 -85 -97q-26 69 -64 124q73 69 139.5 172t107.5 211zM715 407v-133h269v-114h-269v-249h-124v249h-264v114h264v133h124zM867 473h19q10 0 14 4q6 2 9 25q2 18 4 94q37 -32 93 -50q-6 -91 -16 -114
q-10 -31 -37 -45q-23 -12 -59 -12h-58q-48 0 -72 26q-27 24 -27 107v130h-105q-24 -106 -83 -177.5t-174 -116.5q-8 21 -28 47.5t-39 43.5q88 32 135.5 81.5t67.5 121.5h-155v110h174q6 71 7 117h118q-4 -74 -7 -117h204v-238q0 -27 4 -32q3 -5 11 -5z" />
    <glyph glyph-name="uni4F1D" unicode="&#x4f1d;" 
d="M941 798v-117h-535v117h535zM262 865l113 -37q-44 -107 -95 -197v-717h-116v541q-42 -54 -85 -97q-26 69 -64 124q73 69 139.5 172t107.5 211zM1006 -37l-119 -52q-6 31 -27 83q-425 -39 -515 -46l-21 122q45 3 99 6q50 121 94 302h-186v118h662v-118h-336
q-58 -178 -107 -293l260 20q-45 89 -81 143l108 45q56 -80 103.5 -171.5t65.5 -158.5z" />
    <glyph glyph-name="uni4F2F" unicode="&#x4f2f;" 
d="M262 864l116 -26q-40 -137 -94 -248v-680h-121v483q-26 -35 -65 -74q-36 66 -73 112q78 73 140 187.5t97 245.5zM501 84h295v184h-295v-184zM796 570h-295v-182h295v182zM668 686h255v-766h-127v42h-295v-49h-122v773h160q35 104 49 181l144 -22q-35 -94 -64 -159z" />
    <glyph glyph-name="uni4F30" unicode="&#x4f30;" 
d="M250 863l114 -37q-37 -99 -101 -218v-696h-117v516l-63 -75q-25 69 -67 127q70 70 133 172t101 211zM808 69v180h-303v-180h303zM990 541h-270v-177h214v-450h-126v40h-303v-44h-121v454h208v177h-254v117h254v209h128v-209h270v-117z" />
    <glyph glyph-name="uni4F34" unicode="&#x4f34;" 
d="M847 824l124 -43q-68 -144 -110 -217l-99 40q57 112 85 220zM552 604l-110 -44q-17 96 -78 218l102 38q66 -118 86 -212zM262 865l113 -37q-44 -107 -95 -197v-717h-116v541q-42 -54 -85 -97q-26 69 -64 124q73 69 139.5 172t107.5 211zM992 295v-113h-273v-271h-123v271
h-269v113h269v138h-228v113h228v308h123v-308h232v-113h-232v-138h273z" />
    <glyph glyph-name="uni4F36" unicode="&#x4f36;" 
d="M262 865l113 -37q-44 -107 -95 -197v-717h-116v541q-42 -54 -85 -97q-26 69 -64 124q73 69 139.5 172t107.5 211zM934 382v-261q0 -44 -10.5 -69t-39.5 -37q-41 -19 -165 -19q-7 49 -38 113q79 -3 113 -1q12 1 15.5 3.5t3.5 11.5v148h-174v-359h-121v359h-172v111h588z
M509 577h269q-82 81 -137 163q-51 -81 -132 -163zM578 860h115q62 -95 146.5 -178t169.5 -126q-33 -40 -71 -111q-62 41 -110 84v-60h-366v62q-50 -46 -115 -88q-28 62 -66 103q88 53 171 142.5t126 171.5z" />
    <glyph glyph-name="uni4F38" unicode="&#x4f38;" 
d="M245 864l115 -37q-41 -107 -98 -211v-703h-116v523q-39 -50 -69 -82q-25 68 -65 126q69 69 131.5 172t101.5 212zM708 305h144v93h-144v-93zM447 305h141v93h-141v-93zM588 596h-141v-92h141v92zM852 596h-144v-92h144v92zM708 707h263v-553h-119v41h-144v-283h-120v283
h-141v-52h-113v564h254v156h120v-156z" />
    </font>
</defs>
</svg>
