<svg width="24" height="24" viewBox="0 0 24 24" stroke-width="1.5" fill="none" xmlns="http://www.w3.org/2000/svg">
<path d="M3 20.4V3.6C3 3.26863 3.26863 3 3.6 3H20.4C20.7314 3 21 3.26863 21 3.6V20.4C21 20.7314 20.7314 21 20.4 21H3.6C3.26863 21 3 20.7314 3 20.4Z" stroke="currentColor"/>
<path d="M12 16C10.6193 16 9.5 15.5 9.5 13.5C9.5 12 10.6193 11.5 12 11.5C13.3807 11.5 14.5 12 14.5 13.5C14.5 15.5 13.3807 16 12 16Z" stroke="currentColor" stroke-linecap="round" stroke-linejoin="round"/>
<path d="M9.5 13C9.5 10 9.5 8 14 8" stroke="currentColor" stroke-linecap="round" stroke-linejoin="round"/>
</svg>
